<svg xmlns="http://www.w3.org/2000/svg" viewBox="456 1732 20179 32851" stroke="black" stroke-width="16" stroke-linecap="round" stroke-linejoin="round" fill="none" data-xena="-1 -12 0"><style>@media(prefers-color-scheme:dark){svg{background-color:black;stroke:white;}}</style>
<path d="M2290 2258l-10-23-24 2-14 23-10 25-8 31-4 26-3 26 0 28 1 26 4 26 9 28 18 23 22 11 29 1 26-7 27-12 26-17 25-22 17-18 15-20 15-21 11-23 10-30 4-29-5-31-12-28-18-24-22-16-23-11-27-4-27 1-25 8"/>
<path d="M2706 2177l-24 8-15 22-9 23-6 27-3 28 2 28 6 25 10 25 19 22 22 10 27 4 24-2 26-6 26-10 27-16 25-20 20-22 16-23 8-25-4-29-13-23-19-23-22-19-24-16-25-13-25-8-24-6-27 0"/>
<path d="M3111 2128l-23 9-13 21-13 27-8 23-3 25 1 24 6 29 12 23 21 17 23 10 25 6 27 0 27-6 27-9 23-11 17-18 14-23 1-28-9-25-13-21-19-21-22-19-21-16-22-11-25-6-28 3-25 14"/>
<path d="M2449 2768l-27 10-23 16-22 19-14 22-8 28-4 31-2 25 2 24 6 29 11 25 14 22 24 16 24 3 28-1 30-9 23-12 22-15 23-17 19-20 17-23 12-22 11-28 2-27-6-26-14-23-21-20-23-16-24-11-25-4-29 3-27 9-23 12"/>
<path d="M2849 2752l-25-1-19 17-9 23-4 29-1 27 3 28 10 25 13 22 21 16 24 9 27-3 24-10 22-15 20-21 12-21 7-27-4-28-13-22-19-18-23-16-22-9-24-6-24 1"/>
<path d="M3285 2671l-10 22-6 26-2 24-2 26 0 25 2 25 4 28"/>
<path d="M2482 3389l-27 5-23 19-20 22-13 21-12 24-12 29-8 29-5 30-2 25 4 29 11 21 24 17 26 5 26 0 26-4 28-6 27-11 25-13 22-16 20-17 16-19 13-27 4-25-6-24-13-21-18-16-21-14-23-14-27-10-27-3-25 3"/>
<path d="M2964 3358l-21 12-8 28-2 26-2 29-2 25-2 26-2 27-3 27-2 32 0 24 1 27 15 21"/>
<path d="M3160 3411l-13 21-5 28 1 28 6 24 13 23 15 18 21 16 25 8 27-1 26-10 23-19 14-21 8-23 2-25-7-28-12-22-18-20-23-16-25-11-26-3-25 2-24 6-25 14"/>
<path d="M2377 4105l-24 5-12 22-9 24-7 30-2 24-1 25 3 31 9 26 13 21 19 16 22 10 25 1 32-8 24-10 23-13 21-14 23-21 21-21 11-22 4-28-6-23-19-22-20-17-22-14-25-12-25-8-27-3-28 2-25 11"/>
<path d="M2859 4054l-16 18-3 27-1 26 0 30 1 31 0 26 1 24 1 30 6 24 6 25"/>
<path d="M3145 4002l 13 23 10 25 6 25 5 30 3 24 1 24 1 25 0 24 0 29-1 25-2 25"/>
<path d="M2390 4721l 1 26-3 29-5 27-5 26-5 28-6 27-4 26-5 25-3 25-2 31 4 24"/>
<path d="M2675 4706l-11 23-7 24-5 26-3 28 3 26 7 26 17 24 22 15 26 7 29-4 24-10 22-15 18-17 16-20 6-26-9-27-19-22-23-19-24-15-25-9-25 2-23 11"/>
<path d="M3036 4691l-23 14-13 24-2 29 3 30 11 26 15 23 18 19 22 15 24 7 26 2 26-3 24-10 21-14 18-19 16-25 8-28-3-28-8-24-13-24-15-19-18-16-22-11-25-4-26 4-23 12"/>
<path d="M2353 5272l-13 20-9 30-5 32-4 28-4 29-4 31-5 32-4 34-5 32-5 29-3 24 3 27"/>
<path d="M2622 5299l-7 23-5 28-3 25 3 26 7 28 10 27 16 24 20 17 22 13 26-4 25-16 21-23 13-21 12-22 11-28 7-26-2-29-9-23-15-20-19-16-22-13-24-5-29 4-22 10-22 17"/>
<path d="M3167 5207l-16 22-8 28-1 24 1 26 0 30 1 31 1 28 3 30 3 27 4 24"/>
<path d="M2394 5943l 10 27 0 25-1 26-1 30-3 30-2 31-2 31-3 31-3 28-1 29"/>
<path d="M2765 5877l 0 25-2 30 0 28 0 25-1 25-2 26-3 28-3 27-3 25-2 29 2 27"/>
<path d="M3142 5923l-19 18-11 22-6 24-4 25 3 28 7 29 10 22 19 26 23 20 24 14 24 6 25-3 26-12 19-15 19-21 17-22 13-26 9-27 6-25 2-31-7-32-9-23-13-22-19-25-25-17-28-6-27 2-27 10-22 11-21 14"/>
<path d="M2337 6558l 2 27-4 25-5 31-4 25-4 27-5 29-7 32-6 33-4 31-2 27 0 28 5 27"/>
<path d="M2692 6564l-7 24-1 25 4 27 3 25-1 28 0 24-3 27-4 28-3 31-3 28-2 25"/>
<path d="M3204 6552l 4 24 3 28 1 24 2 28 0 31-1 24-1 24-1 25-2 29-3 27-4 24-6 23"/>
<path d="M6961 1887l 0 30-4 28-6 31-2 25-3 28-2 29-1 30-2 30-3 26-2 25-2 29-2 26-3 24"/>
<path d="M7254 1872l-2 27-1 28-1 28 0 24-1 24 2 26 3 29 0 31-1 30-1 26-2 28-1 26"/>
<path d="M7586 1834l-11 25-4 25-2 26 0 28 0 29 1 25-1 31 1 25-2 26-1 26 1 29-2 29-1 27"/>
<path d="M6861 2472l-23-9-26 4-22 16-15 20-10 24-7 31-5 29-2 28 2 25 6 24 12 25 22 14 25 12 24 8 25 4 27-3 23-8 24-10 23-14 21-18 20-19 19-24 15-26 10-22 4-28-4-28-15-23-15-20-16-20-21-21-23-17-26-10-26-8-24 4-20 14 12 23"/>
<path d="M7251 2416l 6 24 0 28-3 28-1 25-4 27 0 27-1 26-2 27 0 24 0 26"/>
<path d="M7547 2367l 12 24 0 28-3 25-2 24 0 29-2 28 0 25-1 25 0 25 2 26"/>
<path d="M7579 2896l 10 23 0 26-2 24-6 26-1 28 3 28 0 27 2 25 2 26-1 25"/>
<path d="M7577 3491l-5 27-3 31-3 27 0 24-1 24-1 32 0 26-1 27-2 26 0 25-1 29 2 25 3 25"/>
<path d="M7221 2946l-23 8-14 23-14 24-10 27-7 26-2 28 4 27 14 20 22 15 24 5 25-5 24-8 24-16 17-16 18-20 5-26-6-28-15-23-17-20-17-19-21-16-23-11-26 7-16 21"/>
<path d="M7185 3585l 1-24-25 7-15 22-13 21-8 24-6 27-1 28 6 23 11 25 16 20 19 15 27 5 27-2 25-5 28-8 26-12 22-15 18-18 12-23 7-27-3-28-8-24-15-24-16-18-20-15-21-16-24-10-26 0-24 4-23 8-13 22"/>
<path d="M7506 4233l-20 14-11 25-3 26-1 28 3 29 9 26 12 23 19 21 22 12 29 4 26-4 25-12 25-18 19-20 12-24 6-23-4-25-10-22-11-21-14-21-18-16-22-15-24-14-27-11-25-1-27 3-19 16"/>
<path d="M7591 4806l-20-13-28 0-25 12-20 17-19 23-15 25-15 25-16 27-11 29-6 25-4 24-1 31 4 29 6 24 12 21 17 21 25 16 26 6 28 0 25-2 27-8 27-15 21-13 26-20 17-17 14-25 9-25 5-23-1-27-7-28-13-29-16-27-13-22-19-23-18-17-21-15-23-10-26-2"/>
<path d="M7577 5468l-14-21-25-4-24 9-17 20-15 26-11 24-8 26-7 26-2 26 3 24 6 28 16 22 21 14 28 8 27-2 25-5 28-10 25-15 24-16 22-19 17-22 10-22 7-26-4-25-12-21-16-20-18-21-22-21-26-15-25-9-24-7-25 2-22 15"/>
<path d="M7551 5967l-23 14-12 23-10 24-9 28-5 25-5 24-3 24 0 31 3 28 7 24 11 22 19 21 23 13 23 9 26 1 29-7 23-12 20-16 21-20 17-21 12-23 9-24 4-27 2-25-6-25-11-25-16-24-16-22-19-17-21-13-26-8-25 1-25 5"/>
<path d="M13234 1956l-4 30-2 31-5 25-3 28 2 28-1 26-1 27-2 28-1 27-2 24-1 28 1 26 2 26 12 22"/>
<path d="M13716 1891l 23 11 9 24 4 29 1 28 1 25 2 25 1 26 2 27 0 28 0 26-1 27 0 26 3 25 2 31-2 28 2 28 3 25"/>
<path d="M13150 2796l-25 4-20 16-15 22-9 22-9 25-7 27-7 27-1 26 1 25 6 29 11 28 14 21 19 18 25 8 25 3 26-5 30-12 27-18 23-18 19-20 16-20 17-27 13-28 4-31-3-30-10-29-9-24-15-27-20-21-21-18-25-15-25-8-25 1-24 5-23 9-21 15"/>
<path d="M13757 2731l 1-24-2 27-5 32-6 29-5 30 3 32-3 32-3 31-4 30-2 28 0 25 3 31 1 29 2 26 4 25"/>
<path d="M13700 3720l-21-14-22 17-11 28-6 27-3 27 1 26 4 25 13 26 17 18 28 6 25-3 29-10 23-12 22-16 18-18 17-24 8-23 3-30-8-26-12-26-11-21-18-25-23-20-24-13-27-6-26 4-27 13-18 17-15 23"/>
<path d="M13791 4227l-24 9-13 23-4 28-4 26 0 28 0 27 6 23 16 19 17 21 22 18 24 7 27-1 26-11 23-16 20-19 15-22 5-27 0-24-9-28-17-23-16-26-13-24-20-20-21-15-23-12-29-7-31-1-29 4-25 9-28 14"/>
<path d="M13095 3605l-23 6-20 17-15 21-14 26-9 30-2 26 0 28 3 27 5 26 8 23 14 27 18 19 25 12 31 7 25-1 27-5 28-11 29-16 27-20 24-24 20-23 15-24 9-25 0-24-5-30-9-25-13-25-12-24-16-22-19-16-23-13-28-5-27 3-28 12-25 13-19 18-15 21"/>
<path d="M13292 4138l-8 30-2 25-1 28 2 26 2 26 2 25 0 27 2 25 1 29 4 27 6 25 3 26 5 25"/>
<path d="M15204 2072l-11-23 3-25 22-13 25-10 26-9 27-6 28 1 28 7 26 6 25 13 12 23-11 22-20 22-19 17-24 16-25 14-24 14-23 9-22 10 24 7 24 0 26 3 25 5 31 5 25 6 29 7 26 12 20 18 3 25-18 24-22 21-22 14-23 10-24 7-30 6-26 2-30-2-25-8"/>
<path d="M15323 2749l 7 23 2 25 2 26 3 31 0 25 1 27 2 29 0 28-1 24 2 24 6 28 3 24 2 25"/>
<path d="M15315 3478l-17-17-26 0-23 15-18 24-9 23-8 25-5 27 1 29 11 24 19 20 22 10 30 3 25 0 25-5 25-8 27-13 24-17 19-18 17-24 9-23 0-27-8-29-9-23-15-19-17-20-26-18-25-13-31-6-26-1-27 5-18 16-10 26"/>
<path d="M15255 4019l 26 1 26 4 27 10 25 9 24 12 23 16 17 16 12 26 1 26-10 28-16 23-19 24-18 16-24 19-25 18-22 14-22 14-20 16 22 14 31-2 28-2 30-4 24-3 24-3 30-5 26-3 30-1 27 4"/>
<path d="M6804 2973l-16-19-24 5-18 19-14 25-10 26-5 28-2 29 3 26 10 25 18 19 24 11 25 1 25-3 23-9 25-13 20-20 13-23 6-25-1-26-6-24-12-23-17-20-18-17-22-12-29-7-24-1-26 7-22 13"/>
<path d="M6743 3455l-3 26-2 29 2 24 3 26 3 26 1 30 0 29-1 27 3 27-3 26-1 25"/>
<path d="M6664 4235l-21-11-18 22-13 22-9 28-6 26-4 26 0 24 2 29 10 24 18 18 24 10 28 4 24-4 26-10 22-11 22-16 17-21 14-24 9-28 0-25-3-30-7-24-14-24-16-25-17-18-21-11-25-5-23 12-18 22"/>
<path d="M7028 4909l 2 25 6 26 3 25 0 26-1 27 2 26 2 25-1 24"/>
<path d="M6603 4920l-21 13-15 24-9 27-6 25-2 28 1 27 8 28 14 24 19 16 28 10 25 1 29-3 29-9 27-13 21-13 22-17 16-20 15-24 4-25-4-29-11-27-17-24-19-23-20-19-21-12-25-10-25-3-30-1-28 7-25 10-22 16"/>
<path d="M6598 5531l 21 14 9 24 8 25 4 27 0 26 0 24 0 27-2 26"/>
<path d="M6643 6020l 5 26 5 26 7 24 2 27 2 24 0 27 1 24 1 27 2 24 0 25"/>
<path d="M7049 5463l-20 15-16 20-10 24-6 26-1 24 3 25 9 23 14 21 19 20 24 10 26-2 25-9 23-12 21-14 19-18 12-20 9-25-1-26-8-24-16-22-16-20-21-17-22-11-23-5-26 0-23 7-20 16"/>
<path d="M7119 5892l-2 27-2 24-1 25 3 24-2 24-2 24"/>
<path d="M7151 4297l-11-21-25 5-18 17-16 22-11 22-9 23-8 24-5 25 0 25 5 25 11 25 20 19 25 7 29-3 26-9 23-15 19-17 18-22 13-25 4-26-1-28-6-29-12-27-15-25-17-18-19-15-25-7-24 6"/>
<path d="M5898 7479l-8 24-2 26 1 26 3 31 3 28 3 30 2 33 4 35 2 25 3 24 4 35 3 34 3 31 4 30 2 27 1 28 1 26-3 24"/>
<path d="M6464 7439l-5 27 1 30-1 32 0 26 0 28 1 30 2 30 0 30 1 31 2 30 2 29 2 28 0 24 3 28 1 28-1 24"/>
<path d="M7070 7463l-9 23-1 25-2 30 0 25 1 27 0 28 1 29 4 28 1 27 2 27 2 25 2 24 2 30 2 26 1 25 3 25"/>
<path d="M7596 7460l-2 27 0 30-1 32 0 25 1 28 1 28-1 29 4 29 2 30 1 28 3 28 2 27 3 26 4 25 5 23 5 29 6 23 4 27"/>
<path d="M6501 8322l-8 24 0 28 1 27 1 30 1 26 0 25 1 26 2 25 1 28 2 26 1 26-1 31 3 28 1 26-2 27 0 26"/>
<path d="M7109 8353l-2 27 0 26 1 28 0 30-3 25-1 31 0 29-1 30-2 28 0 25 0 25-1 24 4 25"/>
<path d="M7594 8343l 1 25 1 25 0 29 0 25-3 26 0 25 1 26-1 27-1 27-1 26-1 25 2 26 0 25-1 26"/>
<path d="M7138 9201l 0 30-4 30-2 25-2 26-1 29-2 30 0 29 0 28-1 26 1 24 1 28 3 26 5 28 7 25"/>
<path d="M7622 9161l 10 28 3 30 1 28-3 33 1 26-1 30 0 28 0 26 1 25 2 32 1 28 2 26 0 30 2 25 0 25 0 25"/>
<path d="M7696 9964l-5 25-3 29 0 29 0 29-1 30 0 31 0 27 0 29 0 27-1 26 0 26 2 27 1 24 0 25-1 24 1 27 1 28 1 26 2 25 5 23 6-28"/>
<path d="M5892 8344l-20-14-25-3-25 6-22 16-17 22-16 26-13 23-13 25-12 25-10 27-9 27-4 25-3 24 0 29 6 25 10 22 17 24 20 22 22 18 28 14 25 7 25 3 27 0 26-2 26-5 24-10 22-12 22-16 15-19 15-21 14-22 12-22 9-28 4-30-1-25-3-27-6-31-6-23-5-25-6-25-5-24-9-26-15-23-18-17-23-14-25-10-27-6-25-2-24 2-25 12-17 17-12 25"/>
<path d="M6484 9361l 3-24-8-23-25 6-17 17-17 23-12 24-12 29-9 22-9 25-5 26-3 27-2 29 1 29 1 28 6 24 10 27 15 25 16 22 19 18 23 12 28 11 27 2 30 0 29-6 25-12 25-17 22-21 19-27 12-20 11-28 6-28 1-31-1-25-5-25-6-25-9-24-13-23-15-23-16-21-15-20-18-17-20-14-28-15-29-9-26-5-27 0-24 8-19 19-13 20-7 24"/>
<path d="M6453 10401l-11-23-14-22-24-2-21 14-16 17-17 24-14 22-14 22-9 25-8 28-7 28-1 27 2 26 6 27 9 25 13 26 17 18 22 18 20 13 28 11 29 5 24-3 25-6 26-15 21-13 22-16 19-18 17-22 14-22 13-22 11-23 10-29 6-25 0-25-8-29-8-28-9-24-11-26-14-28-15-27-18-24-20-23-23-17-24-11-25-4-25 0-25 7-27 12-19 16-11 24-2 25"/>
<path d="M7702 11026l 5 27 3 26 2 27 3 29 1 26 1 29 2 28 1 28 3 25 2 26 2 24 2 29 2 24 2 28 5 23 2 24"/>
<path d="M7700 11956l 2 25 1 29 2 28 1 25 1 28 2 29 5 31 2 25 3 25 1 31 1 30 2 27 4 24 3 29-1 26 2 26"/>
<path d="M7655 12940l 3 26 2 28 2 28 2 27 3 28 2 30 2 26 0 27 2 24 3 29 3 25 3 25 6 25 1 26 2 25 6 25"/>
<path d="M7703 13952l-9 24 1 28 2 24 1 25 1 25-1 26 1 28 0 31 2 25 0 26 2 25 2 25 1 25 2 25 0 25 2 24 1 28 3 27-1 26 4 28 0 27-3 27"/>
<path d="M7085 10210l 10 25 2 26 1 31 0 25-1 27-1 28-2 30-2 28-2 28-2 28 0 24 0 29 1 25 1 25 0 24"/>
<path d="M7078 11112l-14-21-19-18-24-6-24 2-24 12-23 20-17 21-16 26-13 30-10 26-8 27-9 31-4 32-3 31 1 28 6 26 12 22 16 25 22 20 27 14 30 10 24 6 31 3 28-2 30-8 29-14 21-11 21-14 24-21 14-21 12-21 11-22 10-23 8-26 4-26 0-28-6-28-9-27-13-27-12-25-17-23-21-20-19-18-22-11-24-9-29-6-28 3-27 4-23 7-21 13"/>
<path d="M7163 12060l-17-18-23-10-27 5-23 13-19 17-17 22-14 19-17 22-13 23-13 27-11 34-10 33-5 31-2 30 0 28 7 28 10 22 19 26 23 18 26 13 29 6 24 0 27-4 27-7 27-12 25-14 22-18 18-20 17-25 13-25 8-25 6-30-3-28-6-23-9-25-12-24-15-23-16-22-19-22-20-19-22-15-25-14-26-8-24-2-26 4-20 13"/>
<path d="M7048 12969l-26-9-26 0-25 11-21 18-17 19-16 23-14 26-13 29-10 28-11 31-9 34-7 33-6 34-3 32 0 31 3 29 7 29 14 27 13 25 19 24 27 18 31 6 24 0 26-3 26-9 25-11 23-15 22-21 20-22 17-25 14-27 10-29 8-28 7-27 3-29-2-28-5-29-10-28-13-28-17-30-21-29-22-26-23-25-24-19-22-15-26-9-27-3-24 11-17 21-7 26"/>
<path d="M6898 14203l-25-2-23 11-21 17-16 25-8 22-6 25-2 25 0 25 0 28 1 27 5 29 6 27 10 24 14 28 13 26 17 20 20 16 23 10 28 6 28-1 29-8 28-7 28-9 21-12 27-17 22-22 19-23 14-20 11-25 7-25 4-30-1-27-2-24-7-26-9-25-12-24-17-21-18-26-19-28-15-19-23-22-25-21-22-16-24-10-30-8-29-5-26-2-25 7-21 15-11 27-5 24-1 24"/>
<path d="M7638 14966l-23-13-26-4-24 10-19 17-15 20-14 30-9 23-9 27-7 30-8 32-5 32-3 34-2 31 0 30 3 27 4 24 11 30 13 23 24 19 30 6 29-2 32-9 23-10 22-11 20-14 20-15 19-16 22-25 17-25 13-25 8-25 3-25-1-25-4-24-8-26-11-26-14-26-15-25-16-22-16-24-16-21-15-21-20-21-24-17-23-6-26 6"/>
<path d="M7611 15825l-27-7-25 7-25 17-19 21-15 19-13 23-12 25-8 31-6 32-3 33 2 35 9 29 11 27 17 22 18 17 22 11 26 6 29 0 33-6 34-11 24-10 22-13 24-15 21-16 19-16 21-24 15-23 7-25 3-29-5-30-9-24-14-25-18-26-21-23-23-22-22-15-23-11-28-5-25-2-31 1-28 7-23 12-20 20"/>
<path d="M7620 16609l-17-17-24 5-19 19-14 22-11 22-11 26-11 31-7 33-4 24-2 25-2 25 0 24 5 33 8 29 11 24 17 24 21 17 28 10 26 4 26 1 30-5 25-6 25-9 25-10 23-12 19-16 20-22 13-25 8-30 1-30-5-24-9-27-13-27-16-29-21-27-22-27-18-17-23-26-23-20-22-15-22-10-28-7-25-2-26 9"/>
<path d="M7651 17553l-4-25-16-20-27 0-20 13-17 19-14 21-13 26-12 30-12 33-7 33-5 34-1 36-2 24 4 35 7 30 11 28 13 21 20 22 28 10 26 3 26-5 28-9 26-16 25-18 22-19 21-21 16-24 12-26 10-26 5-33-1-29-7-28-10-25-15-26-16-28-18-28-19-24-17-20-24-18-25-6-26 6-23 16"/>
<path d="M7598 18391l-23-14-25-5-27-2-23 6-28 15-20 20-15 21-12 25-10 29-6 31-5 30-2 31 1 30 6 28 9 28 12 24 11 23 24 21 22 13 25 10 27 6 30 0 33-6 32-10 31-15 29-16 27-17 22-21 17-21 11-22 8-28-2-27-11-29-12-24-15-21-20-19-23-22-26-20-27-18-28-14-26-8-27-7-29-3-27 6-25 11-22 12"/>
<path d="M7582 19210l-26-2-23 14-17 18-18 24-18 27-14 26-8 24-6 26-3 26-2 26 2 27 6 23 10 26 16 22 19 16 24 10 28 3 25-6 28-8 29-15 28-21 26-20 22-20 17-21 16-26 7-26 2-25-11-26-17-24-16-17-28-17-18-17-22-18-24-10-26-6-31-2-26 4-24 9-19 16"/>
<path d="M7533 19916l-27 2-26 9-23 13-20 17-17 23-13 26-10 30-5 28-3 31 1 31 6 31 7 30 10 29 12 28 16 24 21 24 25 16 28 12 29 3 25-3 28-7 26-15 26-15 27-19 24-17 16-20 12-22 9-27 3-30-4-31-10-28-13-21-14-26-21-25-21-24-23-19-24-16-22-12-23-11-29-10-26-5-27 2-23 11"/>
<path d="M7509 20753l-20-14-23-10-26-4-23 8-15 21-7 24-3 27-3 24-3 29 3 31 6 29 9 29 10 25 14 23 21 19 27 10 25 9 25 4 31-1 26 1 31-7 25-10 25-16 21-20 13-20 19-24 18-23 14-25 7-31 3-28-1-28-8-25-15-22-17-22-14-20-22-21-25-18-22-13-26-12-25-6-29-1-27 4-24 7-26 12-21 16-18 22-13 23"/>
<path d="M954 24119l 6 25 17 20 23 16 24 7 28-6 23-17 18-22 13-20 14-23 14-28 15-32 14-33 14-33 12-34 11-33 8-32 7-31 4-33 2-32 2-33 0-34-2-34-2-32-1-32-3-29-1-25-3-32-9-26-22 15-15 26-11 25-12 29-12 35-11 38-11 42-10 44-5 25-4 24-5 25-4 26-3 26-4 27-3 28-2 27-2 27-1 28-1 28 0 28 0 27 1 26 2 26 1 26 3 24 6 46 8 42 10 38 11 32 12 28 13 25 21 28 22 17 26 10 28-5 18-20 11-24 8-31 2-34-2-25-3-24-8-34-11-33-13-28-13-27-12-21-15-23"/>
<path d="M1300 24057l 16 18 18-21 14-24 10-21 11-25 11-27 12-27 11-28 9-28 7-30 4-31 2-31 1-32-1-33-1-34-1-30-3-25-5-25-10-23-22 17-14 27-10 29-10 34-5 25-5 26-4 27-3 27-2 28-1 27 0 26 1 25 4 35 7 32 8 29 11 26 11 22 16 23 22 17 26 4 26-4 25-15"/>
<path d="M1519 23948l 25 6 22-18 17-21 10-23-13-22-25-5-24 6-18 18-9 26-4 26 1 30 4 28 9 26 16 18 25 7 22-10 20-17 19-25"/>
<path d="M1660 23861l 11 23 16 20 15 22 15 21 13 20 18 18 24 11 26-9 20-14"/>
<path d="M1786 23827l-23 17-17 21-16 23-17 24-15 25-13 26-11 22-9 26"/>
<path d="M1945 23992l 14-21 13-21 15-29 16-27 18-32 11-22 11-23 11-23 12-33 10-34 7-34 3-35 1-35 0-33 0-28-1-29-2-27 0 29 3 31 3 27 5 30 8 32 9 33 9 33 10 33 9 33 12 29 12 28 12 27 11 22 11 25 12 22 13 21"/>
<path d="M2000 23864l 27-8 27-10 24-9 26-9 27-9"/>
<path d="M2345 23941l-2 24-4 25-8 27-6 25-11 25"/>
<path d="M2946 23961l 26-8 24-19 18-18 20-22 15-20 17-24 19-27 21-29 20-31 21-30 17-28 15-30 13-28 9-26 7-27 4-24 1-25 0-35-4-34-6-30-9-26-20-14-18 18-15 24-11 25-13 29-14 33-12 38-12 39-13 41-12 44-13 45-6 24-4 25-5 25-4 25-3 26-3 25-3 27-3 26-1 26 0 26 0 25 1 25 1 24 4 45 7 41 8 37 10 31 10 28 10 22 18 26 16 17 22 13 25-9 9-31 1-29-1-33-4-35-5-24-11-35-13-32-10-22-13-28-11-25-11-25-10-22"/>
<path d="M3170 23971l 25-1 21-19 22-23 18-22 19-26 18-27 16-28 16-28 13-28 11-27 6-29 2-28 0-30-3-30-4-30-4-26-4-28-10-24-23 14-13 26-11 25-10 32-7 25-5 28-5 28-5 30-3 30-3 30-1 29 0 31 1 28 3 27 7 34 11 26 13 22 21 20 22 10 28-3 22-12 22-16 21-18"/>
<path d="M3461 23852l 22 13 23-11 23-15 21-19 17-20 7-24-20-16-24 3-21 18-17 26-11 25-7 28-4 28 2 24 7 26 15 22 27 8 27-6 24-17 21-19"/>
<path d="M3650 23775l 26 8 18 18 17 19 15 20 14 21 17 18 21 11 26-4 19-15"/>
<path d="M3787 23735l-17 19-14 20-13 22-14 24-11 21-12 21-11 21-13 28"/>
<path d="M4052 23428l-3 27 0 26-2 25-3 31-1 35-1 26-2 28-3 28-4 30-3 30-3 31-3 30-2 29-3 30-5 27-3 25-4 33 0 25-3 25"/>
<path d="M4035 23498l 12-21 26-14 29-6 29-3 24 1 32 2 25 6 24 12 16 21-1 25-16 25-17 19-19 19-21 19-23 18-22 19-23 17-20 16-20 17-15 19 25 1 25-1 26-2 25 1 28 4 27 3 28 6 25 10 13 23-12 26-16 23-22 21-25 18-28 15-22 11-30 9-31 7-24 1-27 1-25-6-24-11-23-14"/>
<path d="M6477 23802l 11-27 14-22 16-18 23-8 15 22 1 28-4 30-7 31-7 24-7 24-8 24-6 28-3 25 23 10 22-15 18-19 22-25 20-26 20-27 15-27 13-26 10-22 10-23-11 23-9 29-8 29-4 28-3 26 4 27 10 23 28 0 26-14 22-20 20-20 18-21 17-23 15-23 12-23 12-27 6-24 3-24-14 20 2 26 1 25 7 25 9 29 11 27 8 25 10 26 6 23-22 11-25-5-24-5 23-9 26 6 29 2"/>
<path d="M7041 23743l-8 23-7 25-8 28-6 25-1 25-4 26 8 24"/>
<path d="M7083 23642l"/>
<path d="M7147 23755l-2 25-4 29-3 27-1 24 0 26 28-7 15-19 16-22 14-22 14-23 21-17 19 19-3 24-2 25 2 25 19 17 28 0 24-8 25-12 26-18 23-17 16-18 15-22 9-22-3-26-23-6-25 17-17 17-16 18-17 23-8 24 14 22 24 6 26-4 25-10 22 13 0 25 0 24 0 29 0 25-2 28-1 32-2 31-2 33-6 36-5 25-7 27-7 25-9 28-10 25-11 25-13 22-18 30-19 24-16 19-23 13-22-14-5-29-3-30 3-32 7-36 6-26 7-28 9-28 10-29 10-29 11-30 14-27 12-28 14-26 13-25 10-25 16-22 16-22 17-19 21-20 23-20"/>
<path d="M8125 23819l 24-2 22-13 24-17 25-20 21-18 20-19 22-20 22-22 21-22 23-22 23-22 21-23 20-22 16-23 15-22 13-33 11-30 8-27 1-30-4-25-18-17-25 13-20 22-18 27-11 23-11 26-12 30-11 33-12 35-13 36-11 40-10 41-9 41-6 41-5 41-5 38-2 37-1 36 0 31 3 28 4 27 7 34 9 29 9 23 15 21 16 20 24 0 13-25 6-29 3-25-1-28-2-32-6-35-6-24-12-33-13-29-13-23-18-21-20-15-24-7 24-10 27-5 29-8 27-8"/>
<path d="M8598 23382l-17 20-10 23-9 28-7 24-6 25-7 28-7 29-8 31-8 31-7 29-7 30-5 30-4 28-3 26 3 31 4 24 8 23 19 20 27 3 28-8 21-12"/>
<path d="M8670 23725l 24-1 28-10 27-12 22-12 0-24-27-4-24 6-24 12-18 18-11 24-5 27 8 25 15 23 22 10 24 3 31-2 23-10"/>
<path d="M8879 23670l 5 27 9 23 13 21 17 18 24 14 28 5 28-7"/>
<path d="M8982 23642l-24 7-19 17-18 19-18 23-15 19-18 21-21 22-22 24-21 24"/>
<path d="M9593 23692l-17-17-23-10-26 1-22 10-18 17-19 21-17 24-12 23-4 28 16 20 25-2 25-7 22-12 21-16 7-24 10 22 25-12 20-14 18-17 23-20 22-22 25-23 23-27 23-27 20-29 11-22 11-32 10-34 6-35 5-35 3-33 2-31 1-26-2-27-22 11-14 24-11 24-11 28-11 31-7 24-8 26-9 28-8 30-8 31-7 30-7 32-8 30-6 28-4 28-3 25-3 32 2 24 11 22 17 18 27 1"/>
<path d="M9931 23596l-24-1-28 6-22 12-20 15-18 19-2 25 22 12 27 4 25 3 26 6 25 7 22 13-8 24-23 11-23 8-24 6-28 3-25-3"/>
<path d="M10037 23637l-12 23-12 25 1 26 15 21 26 5 24-6 25-11 20-15 11-22-8-23-17-18-21-13-23-6-28 1-24 8"/>
<path d="M10737 23627l 22-16 22-10 17 18-7 27-12 23-12 24-11 22-5 24 25 12 29-5 27-12 22-13 21-14 20-17 15-18 10-24 0 24 25 3 24-6 25-9 23-10 26-15 21-13 18-17-2-24-24 1-6 24 10 26 11 22 16 22 11 22-1 25-15 21-25 9-26 6-25-5-21-13 11-22"/>
<path d="M11178 23647l 25 2 26-5 25-12 22-14 3-24-21-14-26-5-24 7-25 14-19 17-16 22-9 23 3 27 16 20 23 12 29 7 32 2 26-2 27-4"/>
<path d="M11499 23568l-23-11-27 7-25 11-23 15-14 20 20 18 25 7 24 4 28 5 24 5 24 6 14 21-22 14-27 15-23 11-24 10-27 7-24 4-28-1"/>
<path d="M12226 23529l 15 22 2 26-3 25-3 28-7 28-10 29-7 25-11 23-26-2-9-22 0-30 3-26 8-28 11-28 16-28 19-28 22-25 21-25 22-21 23-17 25-14 25-13 25-8 26-5 25-3"/>
<path d="M12450 23598l 25-8 24-9 25-10 23-12 22-13 14-21-11-22-21-17-25-1-23 12-21 14-22 20-18 19-15 18-15 26-7 25 0 24 13 25 22 10 26 2 30 0 27-5 29-7"/>
<path d="M12800 23548l-14-21-22-19-23-9-28 2-24 10-26 17-22 16-17 18-16 20-5 27 11 22 27 6 25 0 28-6 25-7 21-14 12-21-12 23-1 25 24 7 27-11 24-11 22-13 22-15 22-18 18-21 16-22 12-27 8-27 8-30 7-31 6-33 1-24 7-34 4-33 7-32 2-31 5-28 2-25-3-25-16 22-12 22-11 28-10 22-8 22-7 25-8 28-7 28-8 29-8 32-8 31-7 32-8 30-7 28-7 26-6 24-4 31-1 27 6 27 15 21 22 13 24 1 23-6 27-9 26-9"/>
<path d="M13557 23562l-23-7-29 9-20 13-23 17-19 18-11 22-1 26 18 19 24-2 25-4 25-8 22-14 15-20-2-26-24-10 20 16 26-7 24-11 23-13 25-13 24-17 23-19 19-21 15-24 11-30 11-24 10-25 12-28 13-30 15-29 12-27 10-25 11-22-16 21-17 28-16 22-18 31-13 22-12 25-13 25-12 27-13 29-11 28-8 29-8 27-5 23-4 34-1 28 2 25 5 28 9 25 24 10 23-16 15-22 10-26 6-31-3-25-4-27-9-27-8-27-9-25-11-22-17-19-26-10-24 13 16 23 29 5 25-8 30-10 23-11 25-11 25-13 22-14 26-19 21-21 16-23 11-23 4-24-15 19-12 24-11 28-9 23-7 26-10 28-9 28-8 27-6 31-3 27-2 26 16 20 26 0 23-10 24-15 21-17 13 21 12 21 25 8 24 0 28-3 27-9 23-14 15-19 6-26-3-24-15-19-25-1-23 12-23 16-20 19-13 23-8 25 4 25 15 19 23 15 28 6 25-1 27-4"/>
<path d="M14258 23547l 27-10 25 8 24 14 15 21-16 19-21 11-22 10-23 10-21 13-11 22 12 22 21 14 23 10 26 7 30 6 29 3"/>
<path d="M859 22834l 23 12 5 26 6 27 5 26 6 25 4 26 4 28 1 28-9 23-17-17-6-27-2-27 2-30 6-28 10-26 14-23 14-20 18-20 25-17 21-14 22-11"/>
<path d="M1121 22873l 23-11 18-16 19-16 20-16 18-21 8-23-13-22-23-11-26 2-17 20-17 24-11 22-8 26-5 28 0 27 5 27 12 24 22 16 30 2 31-5"/>
<path d="M1433 22779l-25-8-24 0-24 10-24 14-19 20-14 22 1 26 27 4 23-8 24-10 19-15 12-21-6 26 1 25 7 24 17 17 25 3 26-13 22-16 20-14 21-22 22-27 20-26 16-29 16-30 13-32 8-23 7-35 3-25 3-24 1-26 1-27 0-27-2-31-1-27-2-25-5-32-8-27-10-22-21-14-25 11-12 23-12 26-7 27-9 29-6 35-3 25-1 27-3 28 0 28 0 28 0 28 2 28 2 28 3 27 5 25 5 24 10 30 13 27 14 21 21 22 22 14 27 4 25-4"/>
<path d="M1859 22777l 23 6 23-21 21-23 19-29 13-20 13-22 12-22 12-23 11-23 10-24 7-25 6-25 6-26 3-28 2-29 2-30 1-27 1-26-2-29-8-24-14 24-1 26 1 30 4 34 8 33 10 33 11 32 12 32 13 27 13 25 11 24 12 22 15 25 16 24 15 21"/>
<path d="M1972 22637l 24-8 28-8 28-7 31-6 25-5 25-5"/>
<path d="M2288 22618l-4 27-5 25-7 25-10 29-8 24"/>
<path d="M2848 22780l 23-17 18-17 19-19 17-20 18-19 16-19 15-26 13-26 4-25-5-23 26-6 25 2 25 6 22 11 6 23-9 24-12 22-13 22-10 22-2 25 24 12 28-10 23-14 26-16 24-15 24-14 21-13 20-13 17-18 18-19 16-20-17-18-26 4-24 10-20 15-16 22-11 23-2 24 9 24 19 17 27 7 24-1 30-7 27-8 25-7 26-11 26-10"/>
<path d="M3509 22577l-20-14-26-4-27 4-22 16-19 17-18 21-10 22 22 16 24-8 26-10 22-12 18-15 22 12 15 20 24 2 23-12 20-16 24-17 21-16 21-21 20-24 16-21 16-22 14-23 14-28 8-30 5-31 2-30-2-30-4-25-9-25-24 8-18 23-15 25-15 28-11 27-8 30-9 33-6 23-6 24-5 23-6 33-1 30 4 27 6 25 10 26 17 24 23 12 27 3 24-6"/>
<path d="M3965 22343l-8 28-6 25-3 32-3 27-4 28-5 30-4 29-2 30-3 28-2 26-2 30-1 26"/>
<path d="M3996 22315l 19-15 26-6 24-1 26 1 25 4 24 11 1 26-14 22-23 20-19 15-20 15-23 13-22 12-21 11 25-2 28 2 26 6 23 7 31 4 25 5 25 6 27 10 18 18 4 27-8 25-13 25-16 20-18 20-18 16-20 17-22 15-22 13-23 10-22 10-30 6-25-1-27-1-27-7-20-16-10-26"/>
<path d="M814 25791l-27 4-17 19-16 26-14 24-16 27-12 21-13 24-13 24-12 26-11 25-12 28-11 28-11 30-11 32-9 33-9 35-8 36-7 37-6 38-7 40-4 38-5 40-2 41-2 39 0 39 2 37 3 35 5 35 6 33 6 32 7 29 9 28 10 28 11 27 10 26 10 26 12 24 11 23 11 22 17 27 17 25 15 23 13 21 17 24 17 21 16 22 17 19"/>
<path d="M1034 25835l 24 8 25 5 24 0 27-5 25-7 26-9 25-9"/>
<path d="M1114 25850l-20 15-14 23-9 23-9 27-7 26-7 27-4 26 22 11 27-11 25-13 24-13 27-10 28-8 29-3 26-1 27 4 24 11 14 24-3 25-10 25-12 21-16 19-17 19-24 18-24 11-27 8-25 7-24 0-26-6-22-13-4-25"/>
<path d="M1990 25812l 18-18 27-7 23-6 25-6 24-6"/>
<path d="M2008 25820l-20 14-14 20-6 24-3 25 2 25 23 8 23-12 22-9 23-9 26-5 25-3 25-2 27 1 27 5 20 15 4 26-11 25-17 22-17 19-21 16-21 13-26 15-24 8-25 4-25 3-25 1-27-4"/>
<path d="M1040 26689l-22 11-16 19-9 24-6 25-6 29-3 30 1 31 6 24 6 24 10 27 13 20 18 17 21 12 26 7 28 5 28 2 30-6 25-9 23-10 21-14 18-17 15-19 14-24 7-23 3-30-7-29-15-28-17-23-19-21-22-18-24-16-24-10-28-7-29 2-25 5-22 11-17 20"/>
<path d="M1936 26675l-22 10-17 17-9 26-3 25 3 27 10 26 15 24 20 16 26 10 28-1 25-7 22-12 19-15 16-24 7-27 2-25-12-25-16-19-19-17-24-14-27-9-26-5-27-1-24 5"/>
<path d="M2234 25602l 14 22 19 21 17 19 18 21 18 18 17 19 20 23 21 28 20 28 12 21 13 22 12 21 11 25 11 26 12 26 10 27 13 27 9 26 10 26 9 27 7 27 6 27 6 28 5 27 4 28 4 28 1 31-2 31-3 32-5 34-5 33-6 34-9 34-10 34-11 34-13 32-11 31-13 29-12 29-11 26-12 26-10 26-12 23-14 32-12 27-12 23-12 21-13 25-13 22"/>
<path d="M3549 25999l-20 17-12 22-15 25-11 25-9 25-9 29-10 29-7 29-8 32-6 23-4 24-5 31-1 29 0 27 2 25 5 25 7 25 7 23 12 22 9 23 15 21"/>
<path d="M3665 26180l-20 15-13 24-10 25-5 28-1 28 3 25 13 26 18 19 24 14 27 7 28 3 28-1 29-5 28-8 23-11 20-21 11-23-2-25-8-25-14-24-18-26-16-21-16-21-15-20-17-23-21-17-26-4-23 15-14 19-11 23"/>
<path d="M4067 26377l-7 24-10 28-11 26-13 29-14 28"/>
<path d="M4293 26125l 26-2 26 3 26 4 26 7 18 18 3 24-13 22-15 20-19 23-20 20-22 17-18 17-19 21-16 20-3 24 25 7 24-4 24-7 27-8 27-6 26-7 25-8 26-6"/>
<path d="M4467 25995l 17 19 19 17 20 17 20 15 22 15 25 15 24 16 23 16 19 18 16 18 15 19 13 27 6 30 0 27-7 29-11 34-12 33-11 22-11 22-11 21-17 30-17 27-14 24-16 21-14 21-20 23-19 22"/>
<path d="M6049 25547l-17 22-11 25-8 26-10 32-9 24-7 26-6 27-7 27-7 28-8 29-5 30-7 33-6 24-5 25-7 26-4 26-4 27-4 27-2 29-3 29-2 29-2 30-1 28 0 28 1 28 2 28 2 26 2 27 3 25 3 25 3 25 7 35 8 34 8 32 8 30 9 28 10 27 10 26 10 24 9 23 13 28 9 25 11 22 12 21 12 21 15 22 11 21 12 22 13 21 14 22"/>
<path d="M6418 25552l 24-5 24-7 25-5 28-4 28-1 24 2 23 5 25 8 22 12 0 25-18 22-19 18-25 18-21 13-27 15-27 11-22 10-22 8-25 5 19-17 27-2 24 1 26 2 25 2 24 3 28 6 26 8 24 14 18 17 2 27-11 25-20 23-21 17-25 16-26 14-27 9-28 7-27 3-29 1-25 0-24-7"/>
<path d="M6506 26346l-26 3-19 17-14 24-9 26-5 25-3 24 1 26 4 29 10 22 15 21 24 13 26 6 25-2 26-8 25-14 21-13 21-16 20-18 19-18 15-20 14-23 7-25-3-25-9-24-21-24-20-16-20-15-22-14-22-9-24-7-24-3"/>
<path d="M7342 26324l-22 11-15 19-12 23-5 25-1 29 6 23 10 26 15 21 22 18 22 14 29 8 28 2 25-7 26-16 20-16 15-21 14-20 11-22 4-25-3-24-6-23-17-25-22-20-26-15-23-8-31-7-24-1-28 2-29 6-25 9-21 15"/>
<path d="M7328 25466l 23-15 28-5 25-6"/>
<path d="M7352 25474l-20 15-13 23-9 26 0 24 6 25 19 16 25 3 24-4 29-9 28-5 28-4 28-3 26 1 26 5 21 11 8 24-13 24-21 20-22 14-25 12-26 8-26 5-24 3-27-4-20-16"/>
<path d="M7795 25361l 14 21 16 19 15 20 21 25 14 21 14 21 16 24 15 26 17 28 14 31 10 23 9 35 8 24 9 24 10 25 8 26 6 27 6 27 4 26 4 27 3 28 3 27 1 27-1 27-3 36-3 25-4 25-3 26-5 25-6 25-8 26-7 25-11 26-7 27-9 26-9 25-9 25-10 24-8 22-9 26-8 24-9 31-9 26-11 25-13 21-18 16-26-4"/>
<path d="M9121 25562l-25 10-20 20-16 23-11 23-14 26-13 28-14 30-12 31-8 23-9 33-12 36-7 24-7 25-6 25-6 24-3 25-6 36-3 34 0 31 1 29 5 28 6 25 10 30 12 25 14 24 14 21 16 19 16 18 15 21 21 17 19 15"/>
<path d="M9257 25825l-3 27 1 27 1 30 3 24 2 26 2 25 1 30 3 28-1 28-4 25-4 25-6 25"/>
<path d="M9427 26200l-10 25-7 28-9 26-9 23-10 24"/>
<path d="M9656 25894l-17 22-8 25-8 27-7 25-9 27-10 24-10 26-1 25 18 17 27 4 26-3 28-5 26-6 28-7 26-9 27-6 25-8 24-8 23-8 24-7"/>
<path d="M9791 25925l 0 26 5 28 1 26 2 26 3 30 1 24-2 29-1 25 1 28 0 25"/>
<path d="M9922 25750l 20 18 16 21 18 20 16 24 16 26 15 26 13 23 8 22 11 24 6 23 6 26 2 32-2 25 0 27-6 28-11 27-10 28-11 28-12 25-12 24-11 22-13 22-17 24-18 19"/>
<path d="M11103 25291l-25 4-17 20-14 21-15 28-14 26-13 33-13 33-8 24-10 35-5 24-5 25-5 25-4 26-5 27-5 27-3 28-3 30-3 28-5 31-3 29-2 30-3 29-2 29-1 27 0 27 0 25 3 25 0 35 2 34 2 31 3 30 2 30 4 28 6 27 5 25 8 27 5 30 7 28 7 23 10 29 11 28 8 23 14 23 12 22 16 18"/>
<path d="M11332 25349l 26-5 24 3 25 8 23 13 21 17 2 27-14 25-18 21-24 21-20 15-23 16-20 16-19 18-19 16-19 15-19 17-20 19-10 23 26 2 29-2 29-5 26-4 27-2 31-2 25-1 27 1"/>
<path d="M12161 25330l 21-14 24 3 26 9 27 10 25 10 22 12 16 19-9 25-19 19-17 17-19 16-24 17-28 18-25 19-21 18-20 14-21 16 20 15 28-1 27-4 27-2 28-1 24-2 27 0 24 2"/>
<path d="M11355 26070l-3 27 1 28-1 28 0 24 0 26 2 25-1 29-2 29 2 24-3 25"/>
<path d="M12209 26090l-23-10-16 21-17 21-14 26-7 25-5 24 5 26 10 23 22 17 26 13 28 3 27-6 24-10 22-15 16-19 13-25 6-23-3-25-16-23-24-17-25-12-26-8-25-4-25 0"/>
<path d="M12500 25250l-1 30 8 31 10 26 14 29 17 32 11 23 13 24 13 25 12 25 9 23 13 26 12 25 13 26 14 27 12 26 11 27 11 25 10 25 9 26 9 25 8 27 6 26 5 25 3 27 2 28 1 27 1 27 0 28-3 25-2 28-3 28-5 26-5 28-7 25-7 24-9 25-6 23-7 25-9 24-15 32-13 32-13 29-9 29-12 27-13 23-10 25-10 23-17 21-22 10"/>
<path d="M13684 25507l-20 17-16 23-9 25-10 24-10 28-8 25-9 25-7 26-8 25-6 25-5 24-5 25-3 32-3 30-1 30 1 30 0 29 0 28 5 27 3 28 3 29 13 25 10 24 12 21 18 22 11 23 17 20 19 19 16 18"/>
<path d="M13993 25596l-21 20-13 25-11 22-10 26-10 26-7 26-4 27-1 26-1 24 2 29 6 28 14 29 14 28 15 18 21 13 25 11 26 4 28-3 28-8 22-11 22-16 23-20 20-22 16-22 15-26 5-28-5-29-5-26-13-24-12-24-17-22-15-20-20-22-21-14-25-9-27-3-25 0-27 4"/>
<path d="M14395 26011l-14 23-14 24-11 22-9 23"/>
<path d="M14694 25651l 23-14 25-2 25 1 25 4 28 7 25 12 17 20 1 27-15 19-24 18-23 13-24 12-25 11-22 11 24 0 24 3 24 7 26 8 26 9 20 13 21 13 13 22-9 25-16 22-19 21-22 18-25 14-23 9-27 6-25 1-27-4-19-20-9-27"/>
<path d="M14955 25487l 22 17 19 19 21 16 22 19 16 18 16 20 14 24 11 28 10 29 9 29 9 29 4 29 0 29 2 29 0 28-4 29-4 31-6 28-9 28-11 27-18 27-17 28-18 27-17 25-18 25-16 22-18 19-17 17"/>
<path d="M15869 25281l-17-17-22 18-19 24-15 23-17 26-21 31-12 23-14 25-14 27-12 28-12 29-11 30-9 31-9 34-10 35-9 36-9 36-7 37-6 38-3 36-5 35-5 37-4 35-5 33-2 31-1 30 0 30 3 29 2 28 3 26 3 25 5 25 9 34 9 32 11 28 11 27 14 25 10 22 13 28 13 27 13 23 10 22 17 22"/>
<path d="M16129 25384l-20 20-11 28-7 26-5 27-2 25 2 25 7 25 18 22 20 14 23 11 28 6 24-2 31-10 30-11 26-17 22-18 17-23 9-25-1-24-7-26-7-25-11-21-16-22-23-19-21-13-25-10-28-2-24 12"/>
<path d="M17130 25293l 2 24 3 25 0 25 1 25 0 27 0 24-1 26-1 25 3 25 1 25 0 24 3 24"/>
<path d="M17114 25954l 1 27-3 27-3 25-5 26-1 28-5 25-2 27-2 26-3 28-1 25-1 28-2 25"/>
<path d="M16228 26053l 5 26 3 26 3 24 3 25 4 25 3 29 3 28 0 27 2 25-1 26 14 19"/>
<path d="M17378 25193l 20 15 16 24 12 23 15 27 10 22 12 25 15 26 14 28 12 32 10 23 9 24 10 24 13 25 9 25 9 25 8 26 7 26 7 28 6 26 3 27 3 28 3 28 1 29 3 31 1 30 1 31 0 32 0 31-2 32-2 31-2 30-4 29-4 29-4 28-5 28-6 27-6 27-7 27-11 26-7 24-11 34-12 33-11 31-12 30-12 28-12 25-11 28-12 21-18 20-16 18"/>
<path d="M18141 25486l-26 8-16 19-16 21-15 26-11 26-11 28-11 30-8 31-7 32-4 24-5 26-2 27-2 26-1 27-1 25-1 25 1 25 1 25 3 24 4 33 4 29 3 24 7 27 12 22 12 22 14 21 15 21"/>
<path d="M18403 25689l-26 4-13 23-14 26-9 25-7 27-5 30-2 30 3 30 7 26 12 21 22 20 26 10 29 2 26-3 29-9 23-10 24-16 20-21 15-22 9-23 4-24 0-27-7-26-12-28-15-21-16-26-16-20-21-16-25-7"/>
<path d="M18854 25906l 18 17 0 25-7 26-10 24-15 22-15 23"/>
<path d="M19263 25616l 0 26-1 26-1 27 0 29-2 26-2 26-2 29-3 25 0 30 0 27 2 27 5 24"/>
<path d="M19420 25413l 8 26 12 22 11 25 10 23 13 24 11 22 11 24 11 25 11 26 10 25 11 27 12 27 9 28 11 28 6 28 5 27 7 26 4 24 1 25 0 25-1 28-5 29-7 26-10 27-11 25-11 24-12 22-14 23-14 21-14 20-16 18"/>
<path d="M2428 28225l-21 17-12 25-6 29-2 32 0 27 2 30 2 32 3 31 5 31 9 32 10 30 12 26 12 21 17 20 21 15 24 9 25 4 25-1 26-6 27-11 20-13 19-16 16-21 14-24 12-27 9-28 5-27 1-27-2-27-6-26-12-25-16-25-20-25-24-25-24-23-23-20-21-16-22-15-21-13-26-3"/>
<path d="M3022 28135l-5 24 0 27 2 29 3 26 5 30 3 24 3 26 2 27 1 28 2 28 1 28 1 27 2 25 0 30-1 27"/>
<path d="M3494 28179l-15-19-24 5-16 20-13 22-13 28-11 23-8 26-6 26-2 28 3 28 9 27 12 25 15 20 19 17 21 12 24 9 25 5 25 2 25 0 25-2 25-4 29-9 27-12 25-15 19-20 13-25 6-25 3-26-3-28-9-30-11-24-13-25-17-26-17-24-20-21-23-21-24-13-23-7-27 3-23 16"/>
<path d="M4189 28095l-23 16-18 20-17 21-11 26-8 28-5 28 0 29 3 27 11 24 20 20 21 12 25 10 25 5 26 1 26-3 25-8 22-11 20-21 16-25 7-23-2-26-7-25-11-26-13-21-19-24-24-21-25-16-29-12-28-9-26-5-26-2-27 3-25 10"/>
<path d="M2438 28944l 23-8 26-1 27 0 27 3 23 8 24 18 13 20 5 25-4 33-8 28-13 34-10 23-12 25-12 25-14 24-15 23-16 22-17 21-17 21-17 19-18 18-17 17-25 25-22 21-19 17-18 16 22 12 26-2 31-2 25-3 27-3 27-2 28-2 26-3 27-3 25-2 30 0 25 1"/>
<path d="M2953 28986l-5 27-4 25-9 28-9 27-10 30-9 30-7 30-5 25 1 25 11 23 20 14 26 6 25 0 26-2 27-5 27-8 24-6 26-11 24-11"/>
<path d="M3056 29124l-8 23 1 29 2 30 6 32 7 31 6 24 8 24 9 24"/>
<path d="M3473 28980l 20-20 27-10 27-5 28-3 26 0 26 4 22 11 8 22-9 25-14 21-17 20-21 18-23 18-22 16-22 17 24 8 27-7 29-8 25-5 24-5 31-4 31-2 29 2 25 4 22 13 14 24 3 26-1 25-4 27-7 27-11 27-16 28-18 26-22 27-22 25-25 22-28 18-26 13-24 8-31 1-29-8-21-16-17-22-11-25-4-25"/>
<path d="M4202 28882l 14 22 9 25 7 26 6 30 3 25 2 27 2 29 2 30 2 30 1 32 1 31 0 28 0 31-1 26-3 26-1 24"/>
<path d="M5754 28581l 27-5 25-2 28 0 26-1 29-3 24-1"/>
<path d="M5745 28697l 27-2 25-1 29-3 24-4 25-5 24-6 23-7"/>
<path d="M5973 28485l 27-4 25 0 28 2 25 6 27 9 19 14 13 22-6 28-13 27-12 22-13 23-16 24-18 26-17 24-19 24-19 21-17 22-16 20"/>
<path d="M6831 27965l-14 20-8 27-9 24-7 30-5 25-7 28-6 28-7 29-4 31-6 31-4 28-3 27-2 27-3 27-3 28-3 29-1 29-1 30-1 31 2 31 1 33 2 32 2 30 1 30 4 29 5 27 5 25 8 30 9 29 10 26 9 25 8 24 8 24 10 24 11 23 10 22 10 23 12 24 11 23 12 24 14 23 14 20 13 20-14-22"/>
<path d="M7031 28046l 19-18 26-6 28 1 28 3 29 6 26 9 23 12 12 23-6 26-14 29-13 23-16 26-18 26-19 22-19 19-20 19-22 19-23 19-20 12 23 8 26 0 26 0 27-2 25-1 25-1 26 0 24 9"/>
<path d="M7148 28753l-21 11-12 23-6 29-1 27 2 27 5 28 10 25 20 22 24 17 29 10 27 1 24-3 25-5 22-9 22-11 22-10 22-17 16-23 6-24-3-29-12-24-19-19-22-17-23-15-22-9-27-7-28-3-26 3-21 15"/>
<path d="M7574 28058l 26 6 19 23 16 22 18 23 14 27 13 23 14 24 15 27 13 29 12 31 12 34 7 23 7 25 6 25 4 27 2 27 3 28 2 28 1 30 1 29 0 31-1 31 0 30-5 30-2 30-3 29-2 28-1 28-3 26-7 35-7 31-8 27-10 23-11 25-13 23-19 19"/>
<path d="M8106 28517l 24-5 25 2 24-2 29-4 26-5 26-4"/>
<path d="M8164 28470l-2 27 5 25 11 24 12 25 11 21"/>
<path d="M8732 27975l-23 8-15 22-10 25-9 27-7 29-6 25-7 25-7 31-7 34-6 25-4 26-4 27-4 28-2 29-2 29-1 31-2 31-1 31 0 31 1 31 2 31 1 28 2 30 3 29 4 29 4 29 5 28 5 26 6 24 7 24 11 31 14 31 13 30 9 29 13 27 12 25 13 25 9 23 11 30 12 28 15 23 12 22 12 25 11 21"/>
<path d="M9372 27904l 13 20 16 25 15 23 14 21 18 22 17 25 18 27 18 29 13 20 12 22 13 24 14 27 13 27 13 30 11 29 11 31 10 33 10 32 9 34 8 33 8 33 4 32 5 31 2 30-1 28 1 28-1 27-1 27 0 27-2 26-4 25-7 34-9 30-10 29-10 26-12 24-12 22-18 26-19 19"/>
<path d="M9975 28407l 25-6 24-5 25-3 27 0 28-2 26-3"/>
<path d="M10078 28281l-4 27-1 27 2 26 3 28 2 25-1 24 2 26 3 25 0 25"/>
<path d="M10722 27851l-17 18-10 23-11 23-10 28-7 24-7 28-7 32-8 33-7 35-6 36-4 27-3 28-3 29-4 28-1 28-2 28-1 29 0 29 1 29 1 30 1 29 3 29 3 27 4 27 5 27 3 25 3 24 5 35 6 36 5 24 7 31 9 27 10 26 9 25 13 28 12 26 13 28 12 26 13 21 15 21 15 23 15 21 16 21 15 19 17 17"/>
<path d="M11066 27851l 17-17 26-3 27 3 27 7 26 12 21 13 12 22-6 29-12 23-18 24-22 23-19 18-21 17-23 19-20 16-22 17-21 13 26 3 26-1 30-2 27-1 24-2 29 0 28 0 25 2"/>
<path d="M11164 28379l-1 24 3 27 4 29 2 24 2 25 1 26 2 27 1 26 2 28 1 26-2 26"/>
<path d="M11457 27776l 17 20 19 21 17 23 16 21 17 23 13 21 18 26 13 21 12 22 9 26 12 27 13 29 15 29 10 31 8 32 5 24 6 36 5 23 3 34 2 34 0 34 2 35 1 34 1 34-2 33-2 32-2 31-1 30-4 29-4 28-6 27-4 25-5 31-7 27-6 24-10 26-10 23-11 22"/>
<path d="M12004 28305l 25-2 26-1 25-2 25-2 27-3 25-4"/>
<path d="M12079 28242l 3 25 8 23 9 23 5 24"/>
<path d="M12632 27750l-18 19-13 23-14 25-12 25-11 27-9 23-9 24-7 26-6 27-7 29-11 33-6 33-4 33 0 33-3 35-1 34-2 35 0 34 1 34 2 30 0 31 4 29 5 28 8 26 7 24 5 24 8 24 9 23 8 24 13 29 15 26 15 26 16 25 13 23 12 26 14 21 15 24 16 20 16 20"/>
<path d="M12966 27759l-1 27-3 25-2 25 0 28 0 25-1 26 3 25-3 24"/>
<path d="M12966 28347l-20 15-10 25-8 28-7 26-3 29 0 28 1 26 11 23 13 23 20 19 25 8 26 1 26-3 25-9 24-15 19-20 17-19 12-23 7-23 2-25 0-27-11-24-14-24-16-19-21-16-23-17-28-10-24-7-24 3"/>
<path d="M13283 27664l 23 14 23 12 20 14 20 14 22 16 17 20 18 24 12 22 10 25 8 27 7 29 6 24 6 24 5 25 4 24 6 25 4 24 5 32 4 30 3 31 1 25 4 29 2 29 0 28 1 27 1 27-1 27 1 27-1 28-2 28-2 27-1 27-3 30-3 30-3 31-6 31-7 29-8 26-8 25-10 23-11 23-12 22-18 17-17 19-22 13"/>
<path d="M9029 27976l-23-8-19 19-8 25-9 28-7 25-5 26-2 27 0 27 4 27 6 26 9 28 15 24 21 18 26 9 26 4 27-3 28-10 24-17 21-23 15-19 11-22 9-24 8-29-1-25-7-25-14-23-22-22-22-18-21-15-23-13-22-10-24-9-26-4-22 14-6 25"/>
<path d="M9076 28483l-16 25-7 23-7 26-9 28-9 31-8 24-7 26-9 27-7 23-5 25 4 25 17 18 29 2 25-5 29-7 30-9 23-8 23-9 29-14 27-13 25-12 25-15"/>
<path d="M9213 28582l-19 18-1 27 1 31 2 25 1 26 2 26 2 24 4 31 6 30 6 29 4 28 6 25"/>
<path d="M18757 26924l 3 25 3 29 2 31 0 26 1 29 1 30 1 34 0 36 0 26 0 26 0 27-1 35-5 32-2 30 0 26 4 30 1 27 3 26 5 24"/>
<path d="M18644 27426l 13 20 17 21 19 19 21 20 22 17 24 14 22 11 26-2 21-12 16-23 13-22 15-21 10-22 6-29 10-22 8-24"/>
<path d="M18243 28196l-24 11-14 20-10 24-11 28-11 31-10 25-9 31-13 32-8 24-6 25-7 25-6 26-5 27-5 26-3 27-3 27 1 27 1 28 1 28 3 30 3 29 3 30 4 29 4 28 7 29 4 28 4 29 5 28 4 27 3 27 4 26 4 25 3 24 7 32 8 29 6 29 9 26 14 23 12 26 14 26 17 22 14 21 16 20 15 22 13 21 3-27 3-28"/>
<path d="M18561 28335l-18 22-12 25-10 26-5 29 0 24 0 25 0 25 7 31 12 26 15 20 19 19 26 11 30 1 25-5 27-13 21-14 18-16 16-19 13-21 10-26 2-25-3-25-9-26-13-27-18-23-21-20-20-16-24-11-27-2-25 6-22 16"/>
<path d="M19437 28859l 3 26 3 29 3 28 2 28 0 31-3 31-3 28-3 26-3 24-2 27-4 26"/>
<path d="M18651 28934l-24 8-18 17-9 26-4 24 0 29 3 29 7 27 12 25 16 20 19 15 28 10 25 2 25-5 26-13 25-17 20-21 16-21 9-24 0-26-10-26-17-22-23-21-22-16-24-10-27-4-24 5"/>
<path d="M19316 28360l-27 2-15 24-16 26-10 28-5 27 0 26 6 24 13 25 19 19 23 15 23 9 28 6 25 0 26-7 25-15 21-17 14-22 8-26 7-30 2-31-6-29-13-28-18-26-16-18-22-15-25-10-25-4"/>
<path d="M19659 28151l 13 24 14 22 16 26 15 21 15 21 18 21 16 23 17 24 15 25 11 25 10 26 11 28 11 31 9 33 6 33 6 35 2 24 1 27 0 26-2 25-3 28-2 25-4 28-5 26-6 27-8 28-6 26-7 26-8 24-11 34-11 32-13 30-11 26-11 24-10 22-11 25-13 24"/>
<path d="M4277 31169l 18-17 24-6 25 0 26 1 27 5 24 8 20 14 11 24 11 23 2 25-2 24-6 26-10 31-9 23-11 23-17 25-19 26-16 18-23 26-23 22-22 19-20 17-24 20-22 18-19 15-22 12-26 7 27-7 26-4 26-4 25-2 26-3 25 0 26 3 28 3 27 6 26 8 24 4"/>
<path d="M3357 30996l-7 27-5 29-5 28-3 28-2 27-1 25 0 24-1 24 1 25 1 27 2 27 1 26 1 26 0 25-1 24-1 25 0 26-1 31-1 27-1 25 0 26 1 25 2 24 6 24 2-25"/>
<path d="M4259 32319l-5 27 0 25 3 33 1 27 3 29 3 31 1 32 3 33 4 32 4 29 3 24 4 29 4 25 4 25 1 25"/>
<path d="M3149 32325l-24 10-9 24-3 25 0 31 3 29 6 32 8 32 10 32 11 30 12 28 17 24 17 20 20 17 20 14 23 10 25 4 25 2 25 0 26-3 26-9 25-14 23-18 22-24 12-21 12-22 8-23 7-24 5-33 0-33-6-32-12-32-17-31-13-22-15-20-22-26-22-19-20-16-27-10-28-3-24 6-23 13-23 17-21 21-18 22"/>
<path d="M2875 33247l 20-14 25 2 27 4 26 2 31 6 36 3 26 5 29 3 32 3 33 5 37 4 40 6 43 6 46 8 24 4 26 5 26 3 27 3 28 3 27 4 31 2 30 3 29 3 30 2 31 2 32 3 33 2 33 1 33 0 35 0 35 1 35 0 36 0 37-1 38 0 37 0 37-1 37-1 36-1 37 0 37-1 38-2 36-2 37-2 36-1 36-2 36-1 34-1 35-1 34-2 34-1 32 0 32-1 30 0 30-1 29-2 28 0 28 0 28 1 26 0 26 1 25 2 25 2 46 3 42 2 38 3 35 3 33 3 28 2 36 3 30 1 31 3"/>
<path d="M3111 33993l 21-15 24-7 26-1 26 0 27 3 27 4 22 8 7 27-13 23-13 22-18 23-19 24-19 23-18 21-16 19-16 21-17 22 24 7 28-5 24 0 24 0 24 1 30 7 26 9 25 10 16 21 2 25-6 25-9 27-11 28-14 26-17 24-17 20-19 18-21 12-24 4-29 6-29-4-23-8-20-15-8-25"/>
<path d="M4323 33905l-11 25-10 22-13 29-11 26-13 25-12 24-12 25-9 25-9 28-4 26 6 25 20 17 26 9 25 1 27-2 30-3 31-2 26-2 30-3 28-1 28-2 29-3 26-6 24-2 25 2"/>
<path d="M4496 33982l-7 23-4 28 1 30 3 26 3 25 4 28 3 26 3 28 4 30 4 26 3 30 3 25 4 29 3 24 4 28"/>
<path d="M8201 30887l-21-11-21 13-17 21-17 29-14 25-15 31-16 34-16 42-16 45-8 24-8 24-7 25-8 26-7 26-7 27-6 27-7 28-6 28-6 29-5 28-5 29-4 28-4 29-3 30-2 29-2 29 0 28-2 28-1 29 0 28 0 28 0 27 1 26 0 26 2 26 3 25 5 47 8 44 10 42 11 40 13 38 13 36 15 34 13 32 15 31 14 28 14 27 14 25 14 23 13 22 18 28 19 25 16 21 21 21 20 19 23 17 23 9"/>
<path d="M8495 30978l-17 22-16 30-12 32-9 26-7 28-9 29-7 28-5 29-2 28 3 27 2 25 7 33 9 29 15 21 24 17 26 10 31 0 29-5 27-11 21-16 10-23 0-26-10-24-20-21-23-17-25-10-28-2-28 5-24 13-20 18-13 22"/>
<path d="M9187 31004l 20-16 24-7 31-5 27-5 25-3 28 0 27 3 26 9 17 18-4 29-12 22-18 26-23 27-17 18-23 25-25 22-25 21-26 20-22 19-19 18-19 20-11 24 11 21 29 1 31-5 24-5 29-7 27-6 24-4"/>
<path d="M8474 31957l-26 2-14 23-10 27-8 25-6 31-3 34 0 24 3 33 7 32 10 27 14 24 20 19 25 13 31 8 34 1 36-5 25-6 24-8 24-11 26-13 23-14 20-16 26-24 17-26 11-24 2-25-7-31-12-24-21-23-26-20-31-14-31-9-30-3-29 0-30 4-22 10"/>
<path d="M9307 31925l-20 17-16 20-13 24-9 29-3 25 0 27 5 28 7 26 11 22 16 25 19 19 23 11 25 6 28 0 29-6 27-13 20-21 13-28 8-25 3-27 0-28-9-26-11-25-14-25-18-23-18-22-20-18-26-13-25-7-27-1-25 13"/>
<path d="M9619 30911l 20 16 25 17 26 19 23 17 24 20 23 22 25 26 15 20 15 22 15 23 14 24 13 25 12 25 12 24 11 25 10 26 9 29 7 31 6 30 6 31 4 31 2 33 2 34-2 36-2 39-1 39-3 40-2 41-5 40-4 41-5 40-3 39-4 38-6 34-6 35-10 32-8 31-8 30-8 29-8 29-10 27-10 26-11 24-17 31-16 28-18 24-17 21"/>
<path d="M10323 31578l 26 6 26 5 26 4 30 3 24 2 24 0 29 2 24 3 26 4 24 6"/>
<path d="M10581 31492l 25 9 25 8 27 10 28 7 25 12 23 12 22 14-3 24-16 21-17 20-21 20-23 16-24 17-22 13-23 14"/>
<path d="M11295 31147l-22 14-12 23-10 27-9 29-6 24-5 25-3 26-3 25-2 25-4 32-3 28-4 32-4 33-4 25-3 27-4 29-5 30-5 32-4 32-4 30-4 31-3 29-3 29-3 28 0 26 0 35 3 28 3 25 6 28 10 26 10 24 11 22 13 23 12 24 14 24 13 20"/>
<path d="M11544 31393l-13 27-3 25-1 30-1 31 1 31 4 32 4 29 5 28 6 26 5 24 5 30 5 26 1 27-4 24-7 27-8 24"/>
<path d="M11836 31840l-11 22-11 21-14 22-13 24-12 22-17 25-14 22"/>
<path d="M12072 31477l 26-11 27 2 25 4 25 7 26 8 19 15 3 26-11 23-14 25-15 21-20 21-18 20-18 19-18 18-20 22-16 19-17 19 23 11 29-4 27-4 26-7 30-6 28-6 28-8 23-9"/>
<path d="M12297 31211l 25 11 23 19 22 19 19 18 18 20 19 24 19 26 16 28 15 32 13 32 12 32 10 31 9 31 5 33 3 33-2 33-3 33-6 34-6 34-7 24-7 26-8 25-9 26-11 25-12 24-12 25-12 24-12 21-16 27-18 23-16 18"/>
<path d="M12773 31531l 25 2 28 0 24 0 24 0 25 1 28 0 30-3 30-6"/>
<path d="M12978 31450l 24 14 23 10 25 10 26 8 25 11 18 17-2 26-17 25-17 20-21 20-23 16-20 16-23 11"/>
<path d="M13517 30814l-26 5-14 22-18 25-13 23-16 28-14 33-11 24-11 24-13 27-9 30-10 31-8 34-7 35-6 35-6 37-6 35-4 36-3 35-1 35-2 34 0 35 0 34 0 34 0 34 0 35 1 34 1 33 1 32 3 30 4 28 7 27 5 26 5 25 5 24 8 33 10 29 11 28 11 24 11 24 10 22 16 28 15 27 12 23 18 22 16 21 21 13"/>
<path d="M13885 30843l-26 1-22 13-16 21-12 25-10 23-9 28-10 31-6 32-6 31-3 29-1 27 2 30 7 25 12 22 20 19 25 10 25 2 25-4 25-10 22-15 17-23 6-25-4-25-16-24-25-15-25-5-28 2-30 9-28 13-23 14-17 21"/>
<path d="M14735 30935l-17-17-25 10-21 18-19 22-13 22-12 25-12 26-5 26 1 24 10 28 18 24 19 15 24 13 26 8 29 4 31 2 30-5 25-7 22-12 22-20 15-24 4-27-3-27-7-29-10-22-14-20-18-24-16-19-25-16-23-6-29-1-28 6-26 14"/>
<path d="M14636 31713l-16-19-26 9-15 21-10 27-10 22-11 23-8 25-8 25-3 31 6 25 9 27 14 22 21 19 22 10 28 3 28-5 25-11 24-18 21-22 16-22 7-25 0-26-6-28-10-23-11-23-13-21-19-23-22-18-21-14-27-10-28-3-30 2-24 6"/>
<path d="M13639 31785l-18 17-12 25-10 27-8 26-4 24-5 25 2 25 6 30 13 27 22 21 22 13 31 11 30 5 31 0 24 0 24-3 36-7 34-10 33-11 29-16 27-18 19-19 14-22 5-25-6-25-19-27-19-21-23-20-27-18-28-14-28-9-24-6-25-4-30-3-27 0-25 7"/>
<path d="M15044 30830l 14 23 16 25 14 21 17 23 18 25 19 29 21 30 14 21 15 20 16 20 15 21 17 33 14 22 13 23 16 24 12 25 12 26 9 27 9 27 8 27 8 29 7 29 4 31 3 31 2 32-2 31 0 32-3 32-3 32-3 33-4 32-6 33-6 32-8 33-8 33-6 32-7 31-6 30-7 29-7 30-5 28-7 27-8 26-8 25-8 23-12 34-12 30-12 28-13 27-11 22-12 22-15 20-19 18"/>
<path d="M15681 31470l 27 0 29-2 30-3 31-6 25-4 28-4 24-2 30-4 24-2 28-1 26 1"/>
<path d="M15920 31370l 25 2 27 4 28 4 25 4 29 4 24 5 20 13-6 25-21 17-21 18-21 15-22 15-20 15"/>
<path d="M16538 31073l-9 23-11 23-13 25-11 26-12 23-13 26-15 28-10 22-9 24-8 24-8 24-6 24-5 23-5 30-4 32-1 25-2 31-1 28 1 27 3 26 2 27 4 26 6 27 4 26 3 24 6 27 8 24 11 23 9 23 12 22"/>
<path d="M16748 31225l-23 9-20 23-17 24-10 23-5 25-5 25 0 26 7 31 11 30 14 29 17 23 18 18 21 12 27 11 28 3 29-6 23-12 21-21 18-26 10-30 2-25-2-28-5-30-11-31-12-30-17-26-18-22-18-18-22-19-24-12-27 0-23 11-16 23"/>
<path d="M17017 31591l-9 26-12 24-15 23-13 21-16 24"/>
<path d="M17114 31292l 27-7 24 5 23 10 21 13 17 18-11 22-21 13-22 13-21 14 20 14 25 5 26 10 22 11 22 14 15 20-2 26-15 20-24 16-25 11-25 3-30 0-25-7"/>
<path d="M17249 31128l 23 16 20 14 23 19 23 18 21 21 15 19 11 21 15 23 11 23 11 24 12 25 7 26 6 25 3 26 1 26-3 26-3 26-7 26-6 25-10 27-12 25-15 23-16 25-22 24-23 24-24 24-25 22-26 18-23 16"/>
<path d="M17728 31438l 23 14 23 10 26 6 27 3 29 3 28 0 30-1 28-2 25-3 24-3"/>
<path d="M17927 31421l 25 5 26 8 26 10 21 13 22 14 16 20 6 24-12 24-17 21-19 16-20 15-20 13"/>
<path d="M18766 30732l-18 18-13 21-11 22-12 23-15 28-14 28-15 32-11 23-11 25-11 28-11 28-10 30-12 29-8 28-10 28-10 29-6 30-9 29-6 31-6 30-4 30-3 28-2 28-1 28-1 27 0 26 1 26 0 24 0 25 3 35 6 33 6 32 6 31 7 29 8 30 7 27 10 27 9 22 12 21 13 27 12 25 13 21 10 24 15 19 12 22 10 23 9 22 20 19 21-11"/>
<path d="M19066 30847l 22-10 26 1 25 2 27 6 21 12 9 23-13 21-19 16-21 14-19 14-23 17-25 14-24 12 28-3 25-3 26 2 26 4 25 4 26 9 21 16 8 23-13 23-17 25-22 19-25 16-26 16-25 10-30 10-27 6-25 1-25-6"/>
<path d="M19844 30943l-25 8-14 20-6 25-1 28 9 27 17 21 18 15 24 11 26 3 26-3 27-9 26-13 24-18 19-21 9-23 1-29-7-24-16-23-20-15-26-16-28-8-26-3-27 1-25 5-26 9-27 14-26 17"/>
<path d="M19066 31631l-25 9-20 23-16 26-11 22-8 22-8 31-1 28 3 25 13 22 19 22 26 15 30 6 32 0 24-5 24-7 22-11 25-17 16-23 12-26 7-26-4-27-11-25-14-22-24-19-23-8-27-1-23 11"/>
<path d="M19914 31702l-23-7-19 18-12 26-4 25 3 27 10 27 18 20 20 16 27 6 25-3 21-13 17-22 12-24 2-28-6-29-13-22-18-20-22-15-26-12-26-2-28 2-25 10-20 15"/>
<path d="M20209 30823l 21 14 21 22 22 22 22 24 17 18 15 19 18 21 18 24 16 22 19 24 18 24 16 24 17 24 14 25 12 25 10 25 8 25 9 27 7 27 7 28 4 28 4 29 2 30 2 28 1 31-1 31-1 32 0 32 0 33 1 30 0 29-2 29-3 30-3 31-5 30-5 31-6 31-8 30-7 30-9 30-10 28-12 31-13 31-13 30-14 30-14 28-12 25-15 25-14 23-13 22-14 21-19 26-19 24-22 20-21 17-22 12"/>
</svg>
