<svg xmlns="http://www.w3.org/2000/svg" viewBox="2924 1713 11123 1478" stroke="black" stroke-width="16" stroke-linecap="round" stroke-linejoin="round" fill="none" data-xena="0 0 0"><style>@media(prefers-color-scheme:dark){svg{background-color:black;stroke:white;}}</style>
<path d="M3283 2552l-23-13-29 2-25 9-21 14-23 19-18 16-18 19-17 21-17 24-15 25-14 28-13 28-10 27-6 26-5 28-2 29 6 28 8 23 17 22 22 13 26 5 29-2 25-7 28-14 22-10 22-12 21-12 22-12 28-14 27-14"/>
<path d="M3802 2435l 27-6 27-5 30-5 28-1 25 0"/>
<path d="M3831 2593l 23-8 29-1 24-2 25-2 25-1"/>
<path d="M4532 2490l-1 25-2 30-3 28-3 32-5 33-6 35-5 25-5 24-7 25-6 26-7 27-8 26-6 27-9 26-8 27-8 25-9 24-9 23-11 29-10 28-8 24-6 26"/>
<path d="M4520 2552l 2-27 8-25 22-14 25-11 26-7 25-3 25-3 26 1 32 0 23 6 25 4 25 6 23 12 15 24-4 25-14 30-18 29-15 21-18 21-16 21-19 20-18 18-17 21-20 20-20 21-18 18-21 15-25 18-22 12-26 7-1-26"/>
<path d="M5084 2427l 27 6 25-4 26-5 23-5 24-6 23-9 23-8 27-11"/>
<path d="M5215 2322l-5 27-2 25-1 27-6 28-3 31-6 28-4 25-2 27"/>
<path d="M5733 2459l 23 8 6 24-4 29-5 28-7 23-11 26-10 27-12 28-13 27-12 26-12 24-13 25-13 21 13-23 12-27 19-30 11-22 17-31 15-34 11-21 12-21 14-20 17-24 18-23 18-19 20-20 19-16 25-18 22-15 23-11 26-4 7 24-3 25-7 25-10 31-12 24-9 26-10 22-10 22-10 28-7 25-4 28-2 24 12 21 24 5 29-7 25-10"/>
<path d="M6153 2277l 25-1 26 0 25-1 13 21-14 22-19 22-17 18-21 20-16 22-15 20 22 12 24-1 26-5 30-10 25-9"/>
<path d="M6838 2841l-21 20-17 24-16 23-16 28-13 20-13 21-15 24-15 26"/>
<path d="M7928 2345l-27 2-21 12-22 13-25 17-22 17-22 21-22 22-17 16-21 24-15 26-9 26-3 29 8 25 16 22 16 21 24 7 28 2 29-4 29-9 33-10 30-14 30-13"/>
<path d="M8831 2353l-16 21-7 24-9 28-7 27-6 24-7 24-8 25-3 26"/>
<path d="M8907 2187l 5 26"/>
<path d="M9083 2314l-27 7-26 10-23 11-22 13-18 20 18 19 26 3 27-1 28-2 26-2 27 5 14 21-13 24-20 23-19 19-21 16-22 12-27 11-28 3-23-6-20-19-1-26"/>
<path d="M9923 2312l-20 16-7 25-2 26 3 26 9 25 13 22 23 15 26 3 26-3 24-11 24-17 21-20 18-25 12-26 3-30-6-26-12-24-18-20-22-10-27-1"/>
<path d="M10370 2237l-10-23-23-13-28 3-29 11-25 14-20 15-23 19-18 19-16 27-9 26-2 27 8 26 15 21 23 13 28-1 29-8 23-13 25-21 23-25 24-27 15-20 15-22 14-23 12-25 10-27 9-27 8-29 7-31 5-33 5-33 3-34 3-31 4-30 2-25 1-33-2-25-9-26-25-2-14 25-10 31-4 34-5 36-3 26-3 26-4 30-5 33-4 33-3 33-3 30-3 29-2 26 0 27 1 25 6 31 7 28 11 28 17 19 29 8"/>
<path d="M10769 2194l-24-7-28 5-24 11-25 18-19 17-17 20-16 24-14 24-7 24-7 28-2 28 7 26 20 19 24 6 25-5 24-11 28-19 20-16 21-16 19-20 19-23 18-23 17-27 16-29 14-31 12-36 10-38 10-39 9-41 6-37 6-37 3-35 1-29 0-28-3-29-7-25-22-13-21 20-8 31-7 31-5 35-3 25-1 30-3 30-2 32-3 35-3 31-2 31-2 29-2 25-1 26 0 25 1 33 3 30 3 25 8 28 12 26 21 14"/>
<path d="M11573 2192l-25 5-23 14-23 18-15 20-14 22-10 22-6 24-1 26 7 25 17 19 23 10 32 5 32-2 24-6 27-7 28-6 31-12 29-10"/>
<path d="M11938 2171l-27 2-27 9-19 17-19 18-13 23-8 26 2 29 14 20 24 9 28-2 27-9 25-15 19-15 17-17 15-20-6-24-15-22 8-24 21-14 23-9 23-5 25 3 24 6 24 4 20 16 8 24-10 26-13 22-14 22-16 21-12 22 18-23 15-23 16-21 19-18 20-19 19-16 20-19 20-16 23 8-4 27-9 25-10 28-5 24 22-11 22-23 19-20 19-19 17-19 23-22 20-14 25-14 19 15-4 27-8 23-10 29-9 29-9 25-7 28 4 25 20 15"/>
<path d="M12557 2151l 13 25 0 28-4 28-5 27-7 32-11 33-9 24-10 25-9 26-11 25-11 27-11 26-12 27-12 23-11 22-15 27-15 23-4-24 9-28"/>
<path d="M12585 2159l 9-23 14-24 18-17 26-5 24 5 23 11 23 16 18 23 6 23 1 28-12 23-18 17-24 18-24 16-26 13-24 12-25 10-23 8-26 4"/>
<path d="M12867 2156l-29 5-21 13-15 19-7 27-1 26 13 25 18 20 25 13 25 3 25-8 21-16 10-22 12-25 9-24 1-24-6-25-16-21 25 2 25-2 25-5 22-8 22-12 21-15 16-19 6 26 14 25 14 22 15 20 10 22 11 23 10 25-4 24-26 12-28 0-29-3-26-5-26-7-24-10 26-9 24-2 30-2 32-1 27-3 28-4"/>
<path d="M13342 2044l 5 28 0 29-4 25-9 29-10 29-12 28-10 23"/>
<path d="M13407 1888l"/>
<path d="M13625 1816l-3 27-2 26-1 25-2 30-6 30-8 31-12 32-9 22-9 24-12 23-9 22-14 31-14 23-10 25-8 24 18 18 26-4 26-7 29-12 31-13 26-15 24-14"/>
<path d="M13520 1991l 24 1 26 2 32 3 26 5 24 5 26 5"/>
<path d="M13784 2078l 23 11 27 2 29-5 23-9 22-13 14-22-7-25-17-17-25-10-25-1-25 7-24 17-17 20-12 25-5 28-1 27 5 29 10 25 13 23 18 19 22 9 28 8 30 0 24-3 31-9"/>
<path d="M3770 2455l 23 8 24 3 28-3 29-3 24-5 26-8 24-7 28-5 28-7 25-11 24-7 25-1-17 20"/>
<path d="M3767 2618l 18-16 23-12 23-10 23-7 24-8 25-7 26-5 27-5 25 0 27 0 24 5 24 4 25 1"/>
<path d="M3733 2691l 19-17 19-23 19-21 23-27 18-22 18-23 21-24 23-26 22-25 26-29 25-29 25-29 25-28 24-28 21-24 20-26 17-22 17-21 22-24 20-19 16-21"/>
<path d="M5355 2218l 17-18 25-12 27-6 24-3 28 0 24 4 28 9 26 10 27 11 20 16 14 23 6 26-2 24-10 27-12 22-15 25-19 25-19 25-20 24-19 26-21 27-21 25-21 22-20 24-20 21-19 17-20 17-19 19 22-16 24-7 26-1 29 0 28 3 28 5 27 2 26 2"/>
</svg>
