<svg xmlns="http://www.w3.org/2000/svg" viewBox="2096 3629 17152 17350" stroke="black" stroke-width="16" stroke-linecap="round" stroke-linejoin="round" fill="none" data-xena="0 -7 0"><style>@media(prefers-color-scheme:dark){svg{background-color:black;stroke:white;}}</style>
<path d="M2440 4434l-2-26-9-23-18-19-24-4-18 17-16 23-12 24-12 26-12 30-13 32-9 22-8 23-10 32-9 30-4 26 0 29 8 27 17 20 27 12 26 0 30-9 25-11 26-17 25-19"/>
<path d="M2605 4511l-11-23-22-13-24 12-15 19-14 22-11 21-10 23-9 25-7 29 0 27 16 22 27 2 22-11 20-18 18-22 14-23 9-25 2-25-7 24 1 24 5 27 10 24 23-10 14-23 10-26 8-25 7-25 0 29-1 28 2 25 8 24 20-20 10-23 11-24 9-23 10-25 10-23 15 23 3 28 4 27 9 24 15 21"/>
<path d="M3330 4550l-6 25 4 24 27-10 19-22 16-22 16-29 11-22 11-24 12-25 11-25 10-25 9-26 9-26 7-26 7-25 5-28 5-27 3-26 2-28 2-24 0-34-2-26-4-28-24-6-17 28-14 33-9 28-9 33-8 34-7 34-5 36-3 36-2 35 0 35 3 33 4 31 7 29 8 26 13 31 15 23 22 21 25 13 28-3 19-20 7-24 5-29-2-30-7-29-12-24-16-21-22-16 3 26"/>
<path d="M3640 4493l 20-16 18-17 18-18 8-22-8-24-20-13-26-3-21 13-13 21-7 25-4 24 1 26 5 29 11 22 17 18 22 13 24 5 25-2 26-8 25-13"/>
<path d="M4487 4147l 15 23-3 30-5 29-9 33-6 26-8 26-10 28-10 29-11 30-12 29-13 30-14 29-12 28-12 24-13 30-10 29-2 26 25 3 27-12 23-15 24-13 26-10 27-10 26-10 27-8 25-5 24-4 26-3 25 3 23 12"/>
<path d="M5009 4135l-25 0-21 14-17 18-17 23-15 21-17 26-18 28-15 29-13 30-12 29-7 27-3 26 1 30 8 26 15 25 20 18 26 10 25 3 24 0 30-4 29-8 27-11 25-12 23-10 26-9"/>
<path d="M5294 4479l 20-19 19-24 16-24 16-28 15-33 19-37 21-39 19-39 19-40 16-40 14-38 11-37 9-34 6-32 4-28 3-25 2-28 0-25-1 28 3 29 5 26 5 28 4 28 6 30 7 29 7 28 8 28 7 26 6 26 9 25 8 22 8 23 14 31 14 28 13 26 11 22 12 23 11 22"/>
<path d="M5470 4273l 26-11 23-8 29-6 27-2 30-3"/>
<path d="M6272 4162l 27-5 31-3 25-1 29-4 30-5 31-4 30-5 26-3 25-3 28-2 25 1"/>
<path d="M6314 4266l 23-10 26-10 25-9 31-10 24-8 25-8 25-5 24-6 32-5 29-5 25-5 28-2"/>
<path d="M6393 4004l 10 22-14 23-18 23-18 18-19 19-21 18-19 16-21 15-22 13-25 19-22 16-21 18-16 19 15 22 26 13 24 8 25 6 29 4 28 4 31 3 27 5 24 7 24 9"/>
<path d="M6498 4069l 26 2 28 0 26 2 27 3 26 6 25 6 24 10 21 12 23 14 10 22-19 21-25 16-23 14-27 13-25 14-24 12-23 11"/>
<path d="M7350 4177l-23-7-25 5-23 9-23 10-23 14-22 14-20 14-23 14 18 17 29 5 27 6 27 5 29 5 24 7 22 10 16 19-7 26-15 25-18 22-23 18-24 13-23 9-26 4-27 1-27-6-2-27"/>
<path d="M7433 4396l 25-2 20-15 21-22 20-22 15-20 13-20 13-22 12-22 11-22 11-28 9-23 10-23 4-25-9 24-12 25-10 23-11 26-7 26-6 25-4 27-1 24 2 25 12 21 26 3 21-13 23-21 21-23 16-21 14-20 18-27 15-26 15-27 12-23 13-23-21 19-12 24-11 27-8 26-2 28 3 27 7 26 14 19"/>
<path d="M7834 4323l 21 12 20-15 20-23 18-21 17-25 18-26 18-27 16-28 15-27 14-27 12-27 9-30 7-31 7-29 4-25 6-26-23 23-16 31-13 23-12 25-12 27-10 26-9 28-8 27-6 28-5 29-3 28-2 25 0 25 2 31 7 26 15 25 21 15 28 6 25-8 22-17 17-25 8-24 4-26-5-25-14-21-19-16-22-10-24-2 24 2"/>
<path d="M8239 4035l 24-3 9 24 3 31-2 31-5 27-9 26-9 31-9 31-12 32-12 31-11 29-7 26-3 27 13 23 22 10 25-3 25-12 22-13 19-16 18-17 22-23"/>
<path d="M8196 4234l 27-14 26-9 23-7 25-5 26-6 27-6 27-5"/>
<path d="M8449 4214l 22 11 25 5 10 23-18 21-19 16-20 18-19 20-15 22-5 24 15 20 26-3 23-7"/>
<path d="M8622 4307l 27-9 25-13 20-14 19-15 6-23-19-16-28-1-24 8-23 14-21 21-15 21-9 29 0 25 12 21 24 10 27 1 26-3 29-7"/>
<path d="M8826 4272l 27-2 25-10 21-11 7-25-23-12-25-3-27 3-21 13-17 17-14 21-9 26 4 25 14 23 18 18 23 9 26 1 24-3"/>
<path d="M9582 3872l 11 24-2 27-5 26-8 34-8 24-8 27-9 27-9 28-8 30-10 30-11 31-11 33-12 30-11 30-10 27-9 26-10 33-7 25-6 23 10-25 13-28 10-22 13-24 12-22 12-22 16-29 16-25 14-21 18-21 24-9 23 11 11 23 6 27-1 26-4 29-5 31-4 30 1 24 12 22 25 7 29-12 155-139 9-25-18-16-26 13-21 16-22 22-21 22-17 22-9 25 9 23 25 3 26-10 27-11 20-13 15-20-11 24 9 23 23 7 27-10 24-14 25-18 22-18 19-22 11-25 1-25-10-22-8 25 3 24 9 25 12 26 16 22 16 19 15 21-20 18-26 0-28 0-25 1 24-2 25-4 23-5 25-5 31-7"/>
<path d="M10569 4261l 14-22 9-23-6-24-28-1-24 13-20 15-19 19-18 24-6 25 5 23 23 12 24-3 23-5 25-1 21 12 28 1 22-11 24-19 19-17 20-17 19-19 17-21"/>
<path d="M10822 4000l 5-26 4-28-13 21-7 24-8 25-8 28-6 29-9 32-13 31-8 24-7 23-7 25-10 34-6 31-2 25 3 27 14 21 29 7 27-8 23-13 22-15 22-18 19-17 19-23"/>
<path d="M10742 4149l 25-5 27-11 23-9 26-8 27-7 33-8 26-7 27-9"/>
<path d="M11473 4230l-25 5 5 25 28-3 24-13 29-19 24-17 26-19 26-20 28-22 27-22 26-22 24-22 20-22 18-21 15-22 13-21 11-22 12-31 8-27 3-26 0-28-6-26-20-15-21 19-18 21-20 28-15 22-18 22-16 25-15 25-14 26-9 28-10 27-9 25-6 24-6 32 0 27 6 30 8 23 20 19 28 4 29-7 24-11 22-13"/>
<path d="M11782 4163l 27-2 25-12 24-14 19-15-9-23-25-4-28 5-23 10-21 17-16 20-12 24-3 27 14 20 24 14 26 6 29 0 25-5 28-6 28-6"/>
<path d="M12118 4121l-23-9-26-4-27 8-21 11-20 19-18 20-12 25 8 25 28 2 29-8 22-10 22-13 18-17 13 21 27 1 23-7 24-9 21-13 23-17 20-19 14-22-1-26-18-16-15 20-1 27 3 25 13 20 16 21 14 23-11 21-25 7-26-6-21-14 13-24 25-3 25-5 30-8 24-7"/>
<path d="M12490 3856l 8 26 1 26-1 26-5 28-7 31-5 24-8 25-8 25-11 25-9 25-8 23-8 24-2 24 23 11 26-1 27-8 26-9 24-12"/>
<path d="M12411 4042l 27-10 25-7 31-6 28-7 29-6"/>
<path d="M13128 3745l-17 22-10 22-9 29-8 27-8 30-8 33-11 34-7 23-7 26-7 27-7 27-9 26-9 23-10 33-12 29-9 24-9 22 12-29 13-29 16-32 10-22 10-22 10-23 13-32 10-32 11-26 10-29 15-23 19-17 26-4 24 5 24 9 17 18-7 24-19 23-25 20-22 14-23 14-22 12-26 15-25 9-21 13 18 22 26 12 24 10 23 8 28 9 26 7 26 7"/>
<path d="M13687 4004l-2 28-6 30-9 27-11 26-10 24-10 26-13 21 8-27 11-22 14-25 14-24 16-23 15-21 16-19 17-19 19-19 25-6 15 19-3 25-10 28-14 23-15 23-12 21-9 23 19 16"/>
<path d="M13938 4032l-22 16-16 23-11 25 7 24 25 4 26-9 27-12 24-16 15-19-2-24-21-17-25-6"/>
<path d="M14203 4002l-25-8-27 3-25 10-24 13-22 17-15 20-13 24-6 26 17 21 26 4 27-7 26-12 27-17 18-16 18-17 18-19 17-21 15-23 15-25 11-24 10-25 5-28 5-29 2-30 2-29-1-27 0-26-3-25-15 21-16 26-13 22-12 28-9 30-9 29-5 30-2 27-1 27 1 25 3 28 11 22 17 21 25 7 25-4 24-12"/>
<path d="M14353 4016l 18 18 26-4 26-5 22-11 15-20-13-23-26-11-24 3-22 13-20 20-10 23-12 27-1 26 13 24 25 12 28-1 28-6 28-10 24-10 23-11 21-12 20-14 23-17 20-18 15-19 7-24-16-18-19 16-3 25 8 24 12 25 13 23 17 21 7 25-15 21-24 7-27-2-24-3 26 4 24 2 28 3 25 4 25 12"/>
<path d="M7581 7440l-5 24 2 24 18 17 24 5 22-12 13-22 5-26-12-21-24-8-20 13-11 22-4 26 17 16 22-12 14-21-10-22-15 20 22 12 7-24-20 14"/>
<path d="M7801 7449l 17-19 25-17 22-15 25-16 31-20 23-14 24-15 27-15 29-16 28-16 31-16 31-16 32-16 34-15 34-17 35-16 35-18 37-18 37-19 37-19 38-20 38-21 40-21 39-20 36-20 36-17 35-17 33-16 35-14 30-13 28-11 25-9 32-14 27-11 28-8 25-8"/>
<path d="M7788 7528l 29-9 24-5 31-4 27-2 28-1 34 0 36 0 27 1 27 0 29 0 26 1 30 0 31 1 29-1 35-1 33 0 32-1 33-1 29-1 30-1 28-2 26-2 26-3 24-4 35-5 26-5 27-3 24-4"/>
<path d="M7841 7663l 29-6 24 1 28 3 34 5 26 4 27 4 28 5 31 6 33 7 34 7 35 8 36 7 38 7 39 7 41 7 40 5 40 6 38 6 38 6 37 8 35 7 32 7 31 7 28 6 26 7 32 8 23 8 25 8"/>
<path d="M9511 5973l-29-17-29-12-30-5-29-1-29 4-30 6-33 10-35 12-24 10-27 10-26 12-27 14-27 17-29 20-29 21-29 27-31 29-31 33-30 38-16 20-16 22-17 23-16 24-17 26-17 27-17 29-18 30-19 31-18 32-20 34-18 36-20 37-21 38-20 39-21 40-22 42-21 43-20 44-21 45-19 46-20 46-19 47-17 47-18 48-17 46-17 47-15 47-15 47-14 47-13 47-13 47-11 47-10 47-10 47-7 47-8 47-6 47-5 47-4 47-3 46-1 47 0 47 0 46 2 46 3 46 4 44 4 44 6 43 7 44 7 44 8 43 10 43 10 41 11 42 12 41 13 40 14 39 14 38 16 37 17 35 18 35 19 34 22 34 19 33 22 31 22 31 23 30 25 31 25 28 25 28 26 27 27 26 28 27 28 24 28 23 28 21 28 21 29 19 28 18 30 17 32 14 31 14 31 13 32 12 31 11 32 9 33 8 32 7 31 6 31 5 34 3 32 1 34 1 32-1 33-2 35-4 32-5 36-6 33-9 35-9 35-10 35-12 34-14 35-15 34-17 35-17 37-20 34-20 34-23 35-23 35-25 34-26 36-28 35-29 34-30 33-32 33-31 32-34 32-33 31-34 32-35 26-36 30-36 29-36 28-38 27-39 27-39 25-41 25-42 26-42 23-43 22-43 22-44 20-46 20-47 18-47 17-47 15-48 15-49 13-50 11-50 11-51 8-50 8-52 7-50 5-53 4-51 3-52 0-53 0-53-3-53-3-52-6-53-4-51-9-53-8-51-9-51-11-50-11-49-13-49-14-46-15-45-17-45-17-42-17-41-18-40-19-38-20-37-20-36-20-34-21-33-24-33-23-31-23-31-25-30-24-28-26-28-25-28-26-25-24-25-27-25-27-24-29-23-28-22-28-21-28-20-31-18-29-19-27-16-28-15-28-13-27-12-27-10-27-9-24-8-25-6-26-5-26-4-24-2-25-1-25 0-25 1-24 2-47 7-44 11-42 14-40 17-38 20-35 20-31 22"/>
<path d="M6436 6887l 20 21 17 17 24 18 28 17 22 13 25 12 25 12 29 13 30 13 31 13 33 15 33 14 34 15 34 17 33 16 32 17 31 17 29 16 30 16 29 16 28 15 26 15 25 13 25 13 22 12 31 16 25 13 21 12 23 11"/>
<path d="M6632 7655l 23-8 26-6 24-3 30-3 27-3 31-5 34-8 24-6 25-6 23-7 25-8 26-9 27-10 29-10 28-11 29-11 28-12 26-10 25-11 31-12 23-11 25-9 24-7-18 22"/>
<path d="M6686 8014l 27-10 22-10 30-15 22-13 26-14 28-16 28-17 28-19 28-19 28-20 28-20 29-19 27-19 28-18 26-18 25-18 25-17 22-16 21-16 24-22 21-18 22-17 17-18"/>
<path d="M5995 5865l-24-1-24 14-27 20-24 22-19 18-20 22-21 25-23 26-24 29-24 30-26 34-27 36-28 39-17 21-14 22-15 22-16 24-16 26-17 26-17 28-18 31-15 31-18 34-18 36-18 39-19 39-19 42-18 43-20 45-20 46-18 47-18 49-16 49-15 51-15 51-14 50-10 50-10 51-8 49-8 50-6 49-5 48-3 47-3 48-2 46 0 46 1 47 2 45 2 45 3 44 4 44 5 43 6 43 6 42 7 42 8 41 9 39 8 40 10 38 12 38 12 37 13 37 14 35 15 36 16 35 16 34 17 35 17 34 18 32 19 34 20 32 20 33 21 30 21 30 22 29 23 27 23 26 23 25 23 23 24 21 24 20 25 19 25 18 26 16 26 15 26 13 26 13 27 12 28 11 26 10 27 8 27 8 27 6 24 5 26 4 27 2 26 1 27 0 26-1 26-2 26-3 28-5 28-6 25-8 26-8 25-10 25-12 25-12 25-13 24-16 24-16 24-18 24-19 24-21 23-22 24-22 23-25 22-25 24-26 22-27 21-28 21-28 21-30 21-29 20-31 20-31 20-31 17-32 18-32 18-33 16-33 16-34 15-35 15-36 14-35 14-37 13-37 13-38 11-39 11-39 11-40 9-40 8-40 7-41 7-41 5-41 5-42 3-43 2-43 2-43 3-44-1-44-2-44-2-44-3-45-5-45-4-44-7-45-7-45-8-44-9-46-9-45-11-44-10-44-12-44-11-45-12-42-12-42-12-41-12-39-13-38-12-38-13-36-13-34-15-33-14-31-14-30-15-29-15-28-15-27-16-25-15-24-17-23-17-23-16-22-17-20-17-21-17-18-17-18-18-17-18-16-37-29-38-27-38-25-38-23-36-19-37-15-37-13-37-9-35-6-32-3-28 2-26 4-35 13-30 19-25 23-21 29-12 22-10 22-9 25-6 26-6 27-4 28-3 29-2 27"/>
<path d="M9408 7141l 1 24 6 28 7 28 9 26 8 28 7 27 9 25 10 27 13 23 25-7 12-21 10-23 7-27 9-27 6-28 7-30 4-30 5-32 3-31 2-28 2-28 7-23-5 26"/>
<path d="M9689 7346l-4 27 0 28-1 28 1 24 1 25 8 23 24-11"/>
<path d="M9695 7244l"/>
<path d="M5732 7257l-8 23-5 26-5 32-4 24-4 25-2 26-3 26-2 25 1 32 2 28 7 29 11 22 16 19 23 11 24-13 16-21 13-22 14-25 15-30 14-32 13-32 10-33 8-29 6-25 4-28-1-28-3-25-4 26-1 31 1 26-1 26 1 28 0 27 1 27 1 25 2 24 1 30 5 26 10 26 13 22 22 12"/>
<path d="M6025 7587l-2 25 3 24 4 27 5 26 9 26"/>
<path d="M6035 7470l-23 9"/>
<path d="M2219 10544l-12 23-5 26-1 25-2 27 0 29 0 28 0 29 3 26 7 24"/>
<path d="M2271 10327l"/>
<path d="M2490 10264l-18-16-24-3-21 17-13 23-11 27-6 23-7 24-5 32-2 24 0 31 6 29 4 25 6 25 5 26 5 25 5 27 3 28 3 28 2 29 1 24 2 30 0 25-4 24"/>
<path d="M2315 10561l 24-10 28-4 27-6 23-6 27-7 29-7"/>
<path d="M3391 10548l-14 24-9 28-10 32-6 24-7 24-6 23-6 24-5 24-5 35-4 32-1 25 3 28 12 24 25 7 23-11 19-15 22-20 22-25 21-29 13-20 18-31 15-30 15-31 10-30 9-31 7-30 5-28 4-26 6-30 4-28-15 22-8 30-6 23-7 30-5 31-3 31-2 28-1 27 2 24 6 26 7 25 9 23 19 15"/>
<path d="M3725 10826l-8 23-2 26 2 25 8 24 13 21 24-2"/>
<path d="M3739 10700l"/>
<path d="M4263 10514l 24-6 27 1 25 2 28 2 27 3 26 3-3 25-23 12-23 12-25 11-24 10-24 11-24 11"/>
<path d="M4272 10738l 23-12 22-14 22-13 23-13 24-14 26-11 25-10"/>
<path d="M4816 10382l 1 24 0 24 0 30-3 26-3 28-6 31-6 23-5 25-6 24-5 25-7 23-5 24-6 23-5 24-5 23-7 34-6 28-4 24-3 29-1-29 2-24 4-28 3-29 3-28 1-25 4-28 5-30 5-23 10-27 13-23 16-19 23-10 26-2 26 9 21 14 12 23-5 25-17 23-17 19-20 19-20 15-21 14-18 16 15 22 24 14 24 12 26 10 25 7 26 6 25 3 25-4"/>
<path d="M5753 10504l 23-8 24-4 29-5 28-3 24 0 24 0"/>
<path d="M5755 10598l 23-9 25-5 29-6 28-5 27-6"/>
<path d="M5930 10418l 26 2 29 3 27 4 26 8 24 11 19 16 13 21 4 26-9 25-17 20-22 21-19 20-21 19-20 16-20 15"/>
<path d="M6712 10554l 15-23 19-17 21-13 26-10 28-6 28-4 28 1 25 5 21 12-13 24-23 19-24 17-22 14-23 14-22 15-22 19-18 19 13 22 23-7 29-5 25-1 25 3 27 9 26 11 21 13 20 16 20 17 22 22 17 27 9 23 5 24 0 26-5 30-10 30-11 22-14 21-13 21-17 22-16 20-16 19-18 18-23 21-21 16-23 8-28 0-23-19-11-22-7-27-3-33 2-35 2-26 6-27 7-26 7-27 9-27 10-26 10-25 12-25 12-22 13-21 15-20 15-19 18-18 18-16"/>
<path d="M7316 10471l 25-3 25-1 25-1 29-4 24-3 27-4"/>
<path d="M7403 10407l-2 27 1 25 6 24 6 26 1 26"/>
<path d="M7661 10408l 23-8 25-1 28 1 27 2"/>
<path d="M7658 10481l 27-9 26-5 29 0 26-2 25-2"/>
<path d="M7894 10448l 24 13 14 25 7 25 6 28 5 27 4 27 6 27 10 23 12 22 26-9 17-28 14-27 14-30 13-33 8-23 9-25 6-25 7-25 7-23 8-34 7-30 6-24 6-23"/>
<path d="M8238 10638l-11 24-2 25 8 24 12 24 15 19 26 6"/>
<path d="M8285 10457l"/>
<path d="M3363 11641l-12 25-6 27-4 25-4 27-3 29-1 30 3 27 4 24 9 23 10 22 7 24 13 21 25-11 17-19 19-26 13-21 11-23 13-24 10-26 11-28 9-28 7-30 7-24 6-27 3-25"/>
<path d="M3582 11909l-6 23-2 29-3 28-3 24 0 25 3 26 7 23 25 5 20-18"/>
<path d="M3591 11834l"/>
<path d="M4046 11608l 27 5 25 6 29 6 28 10 26 8 26 10 18 16-19 21-21 13-25 17-22 15-25 18-25 16-23 16-26 16-21 14"/>
<path d="M4074 11824l 27-5 25-4 24-5 29-6 28-8"/>
<path d="M4506 11421l 11 26 3 29 1 27-2 32-4 37-4 27-3 27-4 29-3 27-4 30-3 29-3 29-3 30-2 27-3 25-4 34-2 31-2 27-2 25 6-31 2-25 2-29 4-27 4-28 6-31 7-26 10-25 14-23 22-11 25-3 24 6 21 17 6 24-9 24-19 20-22 18-22 14-21 12 12 21 27 5 26 6 28 6 29 3 29 4"/>
<path d="M5499 11669l 21-13 24-9 24-5 29-6 25-6 25-4 24-5"/>
<path d="M5520 11749l 22-13 23-9 23-7 25-7 27-9 27-10 29-11 28-11"/>
<path d="M5712 11516l 27-1 25 2 27 4 25 5 23 7 23 12 23 16 16 19 11 25-4 25-15 25-20 19-25 19-25 19-24 19-20 21-18 18-19 19"/>
<path d="M6401 11721l 14-23 25-12 26-10 29-8 26-2 25-3 24 0 0 25-19 19-23 22-22 20-22 20-18 19-17 19 16 18 27 0 26 2 31 7 25 10 23 13 24 18 23 22 18 25 11 21 9 30 2 32-2 27-8 30-12 32-13 21-12 20-22 28-22 27-21 22-18 16-23 15-28 0-20-20-14-28-7-28-5-33-1-33 0-34 5-31 9-29 14-31 15-30 20-28 23-27 17-17 19-17 19-18 20-17 20-18"/>
<path d="M6890 11631l 25-8 27-3 24-3 25-3 27-3 26-3 27 0 24-3"/>
<path d="M6984 11544l-5 27 6 26 3 25 6 25 7 25 5 27 5 30 3 28 2 25"/>
<path d="M7248 11564l 24-8 26 0 28-3 24-1 27-3"/>
<path d="M7248 11634l 28-4 29-1 29-4 31-4 25-2"/>
<path d="M7626 11563l-5 29-4 24-3 30-5 28-1 26 0 26 4 26 13 22 28 5 21-12 20-15 18-19 18-22 16-20 13-21 12-22 13-28 9-25 4-27 2-26-4 25-4 26-1 25-1 25 1 28-3 27 7 27 13 24 18 17"/>
<path d="M7940 11748l-8 24 0 28 0 28-2 27 11 22"/>
<path d="M7940 11637l"/>
<path d="M3272 12992l-12 26-7 26-4 24-4 29-4 28-3 28-2 28 0 30 2 25 5 28 11 22 23 9 20-15 20-24 17-26 16-29 15-30 15-28 12-28 10-28 8-25 5-30 1-25-3-26-6 25 0 27 1 29 2 31 1 29 0 26 3 24 7 27 11 26 16 18"/>
<path d="M3585 13204l-9 24-3 26-1 27 2 24 5 26"/>
<path d="M3603 13064l"/>
<path d="M3782 13035l 24-4 28-4 25-3 25-6 25-3"/>
<path d="M3846 12951l 1 27 6 28 4 25 3 28"/>
<path d="M4013 12948l 1 28 9 24 10 28 10 25 12 27 10 27 11 27 12 25 19 16 20-16 15-25 13-27 11-29 11-31 9-31 6-30 4-25 2-27"/>
<path d="M4263 13173l-8 23-3 28 5 25 20 18 24 1"/>
<path d="M4276 13064l"/>
<path d="M4482 12882l 25-7 26 2 25 7 25 7 24 7 24 9 21 13-17 21-24 14-28 15-23 13-24 12-22 13-22 12-21 13"/>
<path d="M4488 13104l 22-13 23-8 24-12 22-9 22-13 26-12"/>
<path d="M4878 12649l-6 26-4 29-3 28-4 29-3 33-4 35-4 26-4 26-3 29-3 29-2 30-2 28-3 29-2 28-3 30-2 25-2 34-1 30 2 24 5-24 2-26 2-31-1-25 0-25 2-32 2-26 6-27 8-24 10-22 15-20 20-17 20-14 26-5 25 6 22 16 12 24-2 26-10 22-19 21-21 22-20 15-21 16-10 23 15 21 27 8 30 1 30-3 33-3 25-3 27-2"/>
<path d="M5595 12870l 26-7 25-1 25 0 26-3 28-3 25-4"/>
<path d="M5605 12944l 27 5 29-3 27-5 30-8 23-7 25-9"/>
<path d="M5769 12786l 27 2 27 3 25 4 25 4 27 8 24 12 22 13 15 20-9 24-21 24-23 19-20 16-21 17-25 18-19 14-18 20-16 21"/>
<path d="M6495 12952l 27-12 26-7 32-4 25-5 26-6 25-2 24 0 24 2 17 17-22 15-20 19-24 13-23 9-23 13-22 13 9 25 24 7 22 10 24 13 26 14 24 17 23 17 22 19 18 22 11 27 4 31-1 28-7 26-13 29-17 28-19 27-21 27-21 23-21 19-24 19-22 10-25 0-20-18-11-31-1-32 3-27 6-25 7-27 10-29 12-28 16-29 15-29 17-25 18-23 18-22 19-18 17-17 24-22 22-21 24-19 25-18 25-14"/>
<path d="M7021 12858l 25-6 25-4 28-5 30-5 28-9 23-13"/>
<path d="M7082 12780l 2 24 9 26 5 25 5 24 3 24-1 28"/>
<path d="M7324 12835l 25-2 24 1 24-4 25-3 24-6"/>
<path d="M7360 12764l 3 25 2 26 6 27 7 27 7 24 5 27 7 26"/>
<path d="M14896 6249l 25 2 25 15 23 19 20 17 20 21 22 23 23 25 18 18 16 21 19 22 15 21 20 23 20 23 20 23 23 22 23 23 23 24 24 24 25 24 22 25 23 26 23 26 20 25 22 28 20 27 20 28 21 27 19 27 18 27 20 26 19 25 19 23 18 21 16 22 21 28 21 25 17 21 17 22 17 19 17 16"/>
<path d="M14785 5856l 18-18 21-15 22-10 25-8 23 10-7 27-16 17-17 19-18 19-18 21-16 18 27 7 25-3 28-6 27-5"/>
<path d="M15737 7152l 24-13 27-14 21-12 27-17 21-14 25-19 28-21 31-23 35-27 37-29 19-15 20-15 19-15 20-15 19-15 19-15 34-30 35-29 35-29 33-29 35-28 31-27 28-27 28-24 25-24 22-22 22-20 19-20 22-18 22-18 21-17 21-17 17-17 26-23 23-20 22-19 22-22 22-17"/>
<path d="M16838 6106l 23-11 24-1 23 6 10 23-16 20-18 16 24 5 25-1 24 8 21 15 19 18 14 22-9 24-17 17-24 16-25 12-25 13"/>
<path d="M15731 7248l 22 11 23 17 21 17 19 16 20 18 20 19 25 22 20 16 21 18 23 18 25 18 28 18 31 19 32 20 35 20 36 22 38 23 38 25 39 27 40 29 20 15 22 16 20 16 20 16 21 17 20 18 20 17 21 17 19 18 20 17 20 18 18 18 20 17 20 18 20 17 19 18 19 17 18 17 18 17 22 16 18 16 36 30 36 31 36 30 34 29 33 29 32 26 29 24 31 24 28 22 28 22 28 20 23 19 22 18 21 17 25 22 21 19 15 19"/>
<path d="M17345 8335l 2 27-4 24-7 26-9 23-9 29-7 26-3 24 16 22 25 10 26 3 28-6 27-7 24-5 24-6 28-10 27-10 26-10"/>
<path d="M17497 8456l-7 24-7 28-7 31-5 31 1 30 3 27 5 24"/>
<path d="M15696 7210l-9 26-16 25-18 24-23 29-20 22-22 26-26 28-28 32-32 36-17 18-16 20-18 19-19 21-16 22-21 22-19 22-22 25-20 24-23 25-22 26-22 25-25 28-22 27-24 28-24 29-24 28-22 30-25 29-25 29-25 30-25 29-23 28-24 27-22 26-24 26-21 25-18 24-17 22-16 20-26 36-21 32-17 27-14 25-12 22-12 28-13 23"/>
<path d="M14288 8692l 24-11 27-9 27-10 28-11 27-11 25-8 25-8"/>
<path d="M14366 8642l-23 9-17 18-18 23-15 24-7 24 3 26 25 8 24-6 26-9 28-9 23-5 27-3 25-2 27 3 13 20-7 24-16 24-15 19-23 22-23 16-26 14-26 7-28-5-23-13-22-19"/>
<path d="M15694 6615l-2 27 3 28 1 28 0 26-4 27-5 28-7 27"/>
<path d="M18084 6840l-1 29-3 26-6 31-8 28-9 30-9 30-10 30-14 30-10 30-8 27-8 29-6 23-4-29 13-26 16-26 19-21 21-16 22-11 23-7 25 4 19 15-12 21-20 17-20 18-18 18-10 22 10 23 25 12 26 7 24 4 27 2 32 0 24 0"/>
<path d="M18429 6954l 14-22 28-11 30-9 26-6 25-4 25 0 31 1"/>
<path d="M18484 7010l 24-8 30-6 26-6 30-4"/>
<path d="M18889 6832l 20-14 25-2 28 2 27 4 26 6 28 8 24 11 18 18-1 24-17 19-24 13-21 14 15 21 22 12 23 15 19 15 21 14 18 18 5 25-20 18-26 12-27 8-28 3-29 1-25-4-27-7-26-11"/>
<path d="M3832 10506l 25-8 23-12 22-13"/>
<path d="M3863 10425l 3 27 6 23 7 26 8 25"/>
<path d="M4003 10273l 4 27 4 25 5 27 7 29 4 26 2 28 1 29 2 29 3 29 3 27 3 28 4 24"/>
<path d="M3732 11708l 24-6 24-5"/>
<path d="M3739 11662l 5 27 9 25 10 22"/>
<path d="M3855 11503l 7 25 10 23 3 28 3 30 2 25 1 27 1 25 1 28 4 26 3 24 3 27"/>
<path d="M13414 10240l-3 26-5 24-3 26-6 25-7 27-5 29-3 26-4 29-3 30-6 25-2 25-3 24-4 29-3 26-1 28-3 28-3 24-6 27 0 26 0 25-6 24"/>
<path d="M13640 10452l"/>
<path d="M13618 10603l"/>
<path d="M2702 12843l-3 28 0 33-2 28-3 33-6 36-4 25-5 25-4 25-5 26-5 25-5 26-4 24-6 36-3 31-1 27 7 28"/>
<path d="M2839 13117l 26-6 27-2 24-9 24-12"/>
<path d="M2917 13018l-12 23-4 25 0 24 2 26 3 29 3 28 5 29 5 30"/>
<path d="M13977 10267l 16-21 22-15 24-10 23-12 22-9 24-9 27-7"/>
<path d="M14032 10282l-16 22-13 21-10 24-6 26 9 23 14 20 27 3 24-5 25-4 23-7 29-5 27 0 26 2 27 8 26 8 21 12 18 17 13 24 0 24-6 26-19 22-21 15-20 13-26 12-28 8-25 2-26-1-26-2-25-7-20-15"/>
<path d="M13175 11159l 11-23 18-19 22-16 24-9 26 4 27 5 25 11 21 17 10 23-5 27-12 24-18 23-19 24-17 20-18 19-22 20-19 17-21 18-18 18-24 20-22 17-23 18-21 17-22 16-20 16-19 15 26 1 28-2 26-6 26-5 28-7 26-5 25-3 25-3 25 0 24-7"/>
<path d="M13548 11169l"/>
<path d="M13549 11262l"/>
<path d="M13993 10991l-3 26-5 27-2 27 1 26-2 26-3 26-3 27-3 28-3 26-5 27-7 26-4 27-6 27-7 25"/>
<path d="M13107 11722l 18-16 24-11 28-9 26-3 25 3 27 6 20 15-4 25-13 23-17 22-16 20-21 18 17 19 25 5 24 5 26 11 19 17 8 23-8 25-13 23-18 24-19 24-22 20-25 13-27 10-24 2-27-4-25-9-13-22 7-24"/>
<path d="M13501 11798l"/>
<path d="M13488 11882l"/>
<path d="M13857 11656l 3 28 8 27 6 24 5 28 4 26 4 27 3 31 2 26 1 26 4 24 1 26 1 28 0 26 0 25-3 24"/>
<path d="M13454 12517l-7-25"/>
<path d="M13573 12521l 19-18"/>
<path d="M13704 12514l"/>
<path d="M16222 11508l 9-28 4-27-1-24 18 21 9 27 6 30 7 28 9 24 9 23 13 23 25-12 16-23 19-29 15-24 14-25 14-27 15-27 14-30 12-30 12-31 12-35 12-35 11-36 13-37 13-32 12-32 14-30 10-25 9-23 9-24 10-25 9-24"/>
<path d="M7165 18078l-14 21 9 23 25 2 10-22-10 22 21 12 19-17 4-24-10-22-22 10-4 24 6 23 21-13 0-24-18-16 5-25 14-20 16-22 17-21 19-25 18-26 17-23 18-24 17-26 20-27 18-22 18-24 20-27 22-28 21-28 24-27 25-26 24-26 25-27 25-25 23-25 26-24 23-25 24-26 23-25 20-23 23-23 25-21 25-22 28-24 27-25 28-29 30-28 28-25 28-24 25-25 25-21 25-20 22-19 22-15 20-16 25-19 23-15 20-16"/>
<path d="M7181 18098l-16-21-14-22-13-23-13-23-11-22-13-26-12-30-9-22-11-22-12-26-13-28-15-30-16-33-15-34-18-36-18-34-19-35-20-35-21-35-24-36-25-36-29-37-29-37-15-19-14-20-15-19-15-19-15-20-15-20-15-19-30-38-28-37-17-19-30-36-28-36-28-32-27-30-24-26-21-21-20-20-17-17-25-20-22-15-26-16-24-12"/>
<path d="M7166 18152l-24-2-21 12-22 12-20 13-24 15-29 18-22 15-22 14-25 15-25 15-26 15-27 16-28 16-29 17-29 17-30 17-29 17-28 18-28 19-28 17-27 18-28 18-28 19-27 18-28 17-27 18-27 17-25 16-25 15-24 15-22 13-22 12-29 15-24 11-24 11-23 13"/>
<path d="M7241 18159l-8 25-3 25-3 28-4 36-5 30-5 32-6 36-5 39-6 43-9 45-4 25-4 24-5 24-6 25-6 25-4 27-5 25-4 28-3 27-5 26-5 28-2 28-3 27-4 26-3 28-4 25-3 27-4 26-5 25-2 26-4 25-3 25-2 24-6 47-4 47-7 46-6 44-7 42-9 39-7 38-8 35-7 33-7 29-7 25-5 24-8 28-4 26"/>
<path d="M7286 18178l 27 5 22 17 20 21 20 29 16 20 16 23 18 24 21 26 21 28 23 30 24 30 26 31 27 33 28 31 29 34 28 34 29 33 29 33 18 16 30 34 29 33 31 33 25 31 28 30 28 28 25 27 29 27 28 25 28 25 27 25 26 25 24 23 23 22 21 19 21 18 19 15 26 22 22 17 20 20 17 16"/>
<path d="M8401 18980l-22-16-24-5-24 3-30 7-26 10-29 13-31 17-21 14-21 16-20 19-19 22-20 25-18 29-16 33-17 37-13 40-10 44-9 43-5 44-2 43 1 41 5 41 7 38 12 39 14 38 18 38 19 37 22 38 24 34 24 31 28 28 30 25 31 22 34 19 35 16 38 12 37 12 37 7 40 6 35 3 40 1 39-1 40-5 40-7 39-10 38-13 37-15 36-18 33-18 29-20 30-22 24-22 24-25 22-26 20-27 19-27 15-27 15-28 8-29 10-29 5-31 4-33 0-35-4-37-7-39-11-41-14-41-17-41-21-40-24-39-26-35-28-32-32-28-34-25-36-22-38-20-39-18-38-15-39-11-38-9-37-7-38-7-35-8-33-6-33-5-29-3-28 0-27 3-24 5-26 8-23 9-22 11"/>
<path d="M6996 19517l-10-25-20-14-24-6-28 3-22 9-19 18-15 20-16 25-16 31-10 24-12 26-10 29-12 32-9 36-8 37-8 38-3 38-3 39 0 38 4 38 6 35 12 33 12 30 16 27 19 26 20 23 22 21 23 20 25 17 28 15 27 12 29 9 29 6 29 5 30 1 31 0 28-3 29-5 28-7 27-12 29-13 25-16 25-20 26-21 20-25 22-29 21-30 17-34 19-34 17-36 14-36 12-35 9-36 7-36 3-37 2-37-3-38-6-37-10-35-14-35-16-33-19-31-21-29-24-27-27-23-29-21-30-18-34-14-34-12-35-9-37-6-38-3-38 0-37 2-40 6-38 6-35 7-38 6-32 7-32 6-29 6-26 6-33 8"/>
<path d="M5964 18341l-29 2-28 4-29 8-32 14-32 17-23 14-22 15-24 18-23 18-22 20-22 18-18 21-19 21-17 21-14 23-13 24-12 28-10 30-11 33-6 37-4 39 2 40 4 41 7 42 12 42 13 42 18 40 22 38 22 35 27 32 29 28 31 24 33 20 35 16 38 13 38 8 41 7 38 4 37 1 37-2 36-5 35-9 35-11 35-14 31-15 31-18 29-20 27-22 27-24 22-26 19-29 14-31 14-34 11-36 10-38 7-39 5-40 2-43-2-45-7-46-9-44-11-45-15-43-16-43-19-41-21-40-25-37-24-35-23-31-25-28-26-26-27-24-30-22-31-18-31-15-32-10-31-8-31-5-30-1-31 0-28 3-29 3-28 4-27 6-23 5-30 8-24 6"/>
<path d="M6012 16333l-30-11-29-9-30-4-29-2-30 2-32 4-32 7-32 11-22 10-21 11-24 16-23 20-23 24-23 28-21 32-22 34-19 40-18 41-16 43-13 45-5 23-7 46-3 25-1 24-1 24 0 24 1 24 4 48 9 46 13 45 15 43 17 40 18 37 22 35 22 31 27 29 29 25 30 21 33 18 35 14 38 10 38 7 40 3 38 1 38-3 41-6 39-8 40-13 42-16 41-19 39-21 38-25 38-26 35-31 16-17 33-34 16-17 28-36 25-37 23-37 18-38 16-41 13-39 9-41 6-41 3-43 0-41-6-42-7-43-12-41-16-43-17-41-20-40-24-38-25-37-28-35-31-34-33-29-34-26-35-21-34-16-35-13-36-9-34-5-35-3-34 0-32 3-32 6-32 7-31 9-29 10-29 9-28 8-23 10-30 13-19 15-18 17"/>
<path d="M8414 16375l-27-11-27-1-31 6-28 9-34 14-23 12-25 14-25 17-25 20-25 23-25 26-25 31-22 35-20 39-10 22-10 22-8 23-8 24-9 25-7 26-8 26-6 26-6 26-5 27-3 27-4 27-2 25-3 26 0 26-1 26-1 26 2 25 1 24 2 25 6 46 7 43 11 42 15 38 17 35 19 32 25 27 26 24 30 20 34 19 35 15 38 13 39 11 40 8 41 8 41 4 41 3 43 0 41-3 43-5 40-9 41-11 39-13 40-16 39-20 36-22 36-24 33-28 29-31 28-32 26-33 22-34 20-32 15-33 13-33 8-34 4-35 1-38-1-40-6-42-7-43-11-45-13-44-16-45-10-22-10-23-11-22-11-22-11-21-12-21-13-21-15-21-27-40-29-37-32-35-31-29-34-26-35-21-35-18-35-15-34-11-34-8-33-5-32-2-32 0-30 3-32 4-31 6-29 9-28 9-24 10-31 16-24 18-20 19-13 20"/>
<path d="M14612 17091l 28-2 30-3 28-3 31-5 24-5 25-5 23-7 28-8 29-10 30-12 28-13 25-13 25-12 22-10"/>
<path d="M14842 17077l 3 24-1 26-1 26-2 25-1 28 1 29-1 25 0 26 0 27 0 28-1 30 0 30 2 33 2 36 1 26 3 28 0 29 2 32 1 32 3 33 3 31 2 31 2 33-1 34 3 33 1 35 1 34 4 34 1 34 1 34 3 35 2 36 2 35 2 35 2 34 2 35 4 37 3 38 4 38 5 40 4 41 4 42 5 43 4 45 6 47 3 24 4 48 2 26 3 26 2 26 1 28 2 27 1 28 2 28 1 29 0 29 2 29 0 29 1 29 1 29 0 30 0 29 0 28 0 30 0 30 1 31 0 29 0 30 0 30 0 30 0 30 0 30 0 30 0 28 0 30-1 30 1 30-1 29 0 30 0 29 0 29 1 29 1 29 1 29 0 29 0 29 1 29 0 30 1 29 0 29 1 29 0 29 1 29 0 30 0 29 0 28 0 28 1 28 0 29 0 28 0 29 1 28 1 28 0 28 0 27 0 26 1 26 0 26 1 25 0 25 1 24 0 46 1 45 0 41-2 39 0 37 0 35 0 31-2 27-1 34-2 26-4 27 0 25"/>
<path d="M15220 17016l-8 26 8 26 17 18 22 11 25-5 18-16 12-23 1-26-15-24-22-13-25-4-23 8 26-1 22-12 25-10 25 1 22 12 16 20 14 20 15 22 5 24-11-25 5-25 11-25 16-18 22-12 25-4 24 7 14 22 10 22 12 23 10 24 17 18"/>
<path d="M15553 16913l"/>
<path d="M15673 16973l-25-7-18 20-9 25 1 27 6 24 25 9 25-14 15-20 16-22 8-23 8 25 10 26 11 22 9 25 7 26 6 28 7 27 2 27-3 26-3 27-5 29-8 24-15 21-18 16-25-7-13-22-6-30-4-28-2-29 0-26 3-30 8-27"/>
<path d="M15522 19323l-15-22-24-14-26 0-27 10-19 17-17 20-11 22 13 21 27 8 25-2 26-2 27 1 24 5 22 10 13 22-5 26-17 23-20 20-19 15-27 12-25 7-27-2"/>
<path d="M15663 19364l-25 0-23 6-19 17-12 22 3 25 21 13 25-11 19-18 17-19 9 24 16 20 23-12 13-20 23 11 8 25 21-14 10-25 7-24 22-11 21 12 24 3 20 15 25 1"/>
<path d="M15975 19351l 25 4 25 0 24-10 20-15 17-18 7-23-11-21-25-1-16 20-11 24-1 26 7 24 16 18 22 13 26 1 24-6 24-13"/>
<path d="M14777 17285l-19-15 8-24 10-24 12-25 12-27 11-30 12-23 12-22 12-26 14-22 23 14 9 26 12 22 16 24 14 22 16 22 12 22 10 22"/>
<path d="M14768 16629l 21-11-19 14 23-5-20-14 0-26 6-25 1-25 2-28 3-29 1-27-1-29 0-33-2-27-1-31-1-35-2-34 0-33-1-30-3-29-1-31-4-30 0-31-4-30-1-29-5-33-4-24-3-24-5-36-2-34-3-35-3-33-4-33-3-30-5-28-4-28-3-26-4-29-3-24 0-29-3-26-7-24-2-29 0-28-3-27-1-24 0-24-25 8-16 18-10 23-17 18-1-26 11-23 14-21 24 3 22 11 22 12 22 13 22 9"/>
<path d="M13514 18431l 25 5 26-3 24-1 29-6 24-3 28-5 25-4 24-3 27-3 25-2 25-2 28-2 24-1 27-3 24 0 24-1"/>
<path d="M13694 18443l 14 20 3 28 5 23 4 26 1 29 2 26 3 31 2 27 5 29 3 34 6 35 2 25 2 24 3 25 0 25 2 25 3 28 3 27 4 28 3 28 3 28 3 27 3 28 4 26 3 27 3 25 2 25 3 25 2 25 2 25 2 25 3 25 2 25 3 25 1 25 2 25 1 25 3 24 2 25 2 24 5 25 2 25 2 24 2 24 0 25 3 35 2 25 2 24 2 25 2 24 2 35 2 33 2 36 0 35 2 25 3 34 4 34 3 32 4 31 4 30 3 29 2 30 2 33 2 35 4 24 3 35 4 33 1 29 2 25 4 31 4 29 0 27 2 25 4 28 1 25 2 28 2 27 2 25 1 26-1 25"/>
<path d="M13699 18426l-13 24-12 28-9 25-11 28-14 25-10 23 11-28 11-27 13-25 11-22 12-25 12-25 21-12 16 21 17 23 12 23 16 20 17 18 17 19"/>
<path d="M14047 18374l-15 20-2 27 9 23 19 17 24 11 26 1 24-7 19-16 11-21-1-25-9-24-22-17-24-11-26-7-26-1-24 7-14 21"/>
<path d="M13698 18342l 4-25 1-27-2-24-2-25-2-25-1-28 2-28 1-29 0-28-1-30-1-29 0-29-1-27 0-29 0-30 5-30 2-30 1-27 2-26 2-28 0-29 1-29 0-26-1-27 1-25 0-24 1-27 0-25-1-24-2-26 1-25-1-27 0-26-2-25 0-26-1-25 5-26 0-25 4-25 1-28 4-24 1-27 4-24 3-24 2-24-20 17-14 21-13 21-15 20-13 21 7-25 10-25 10-25 21-13 21 13 15 21 16 19 18 18 17 17"/>
<path d="M13485 17119l 16-18 24-1 25 2 24 0 30-2 32-2 25-4 28-5 29-4 26-3 25-4 25-3 31-1 29 0 25 1 26 2 25 0 27 3 24 3 24-3"/>
<path d="M13681 16981l 0-24 3-24 0-29 2-29 2-27 1-31 1-26 1-29 1-29 1-33 2-24 2-24 1-27 0-27 1-29 1-30 1-30 2-30 1-30 1-30 0-30 0-31 0-30 1-30 2-27 0-28 0-27 0-27-3-29 0-27-1-28 0-29 0-28 0-30 0-29 0-30 0-31 0-32 1-33 1-35 1-34 3-32 2-31 5-28 4-29 2-28 3-26 0-24 1-34 2-31-1-28 0-26-2-26 0-31 0-29 0-30-2-27 1-27-1-25-18 21-14 29-14 26-14 25-15 26-10 22-15 25-13 23 15-22 13-26 12-28 11-24 9-23 8-25 23-10 22 15 22 15 21 14 21 13 10 22"/>
<path d="M12345 18023l 23-10 24 5 24 6 29 4 28 4 25 5 27 2 25 1 28 0 30-1 28 0 27 3 27 2 25 1 24-2 24-3 23-8"/>
<path d="M12971 18029l-9 24 3 28 8 23 15 22 27 6 26-12 17-18 18-20 12-21 6-25 3-24-16-23-22-16-25-9-25-4-22 11-15 22-6 24"/>
<path d="M12586 18498l 2 24 6 27 3 28 3 26 5 28 0 24 4 24 3 27 4 24 6 23 3 24 1 30 2 25 3 29 4 27 3 29 2 26 1 28 2 27 4 27 2 27 1 28 1 27 3 26 1 26 1 27 0 26 3 30 1 24 2 28 4 27 1 29-1 24 0 28 3 30 2 24 1 27 0 28 0 29 1 29 4 29-4 30 1 25 2 24 1 26-2 27 0 25 2 30 0 25 0 24 0 29 1 29 0 30 0 25 2 29 1 29-3 27 3 28 0 26 0 26 1 26 0 28-1 29 0 28 0 26 0 27 0 28 1 26 3 25-1 24 1 25 1 25 2 24 5 26 2 24 2 24 0 27 0 25 3 25 0 25-16-25-6-35"/>
<path d="M12577 18514l-20 14-11 24-12 21-15 22 6-24 9-27 10-23 25 3 19 18 19 19 22 14 21 13 21 13"/>
<path d="M12337 18520l 25 3 24-1 24-3 25-1 29-1 25-2 29 0 27 0 26 3 27 0 26-2 25-6 27-4 25-5 25-5 25-6 25-2 25-4 24-2 24 2"/>
<path d="M12563 18430l-5-23-2-25 2-28 0-28 1-24-1-25 0-30-1-28-2-26-5-27-5-23-3-24-17 21-14 25-15 21-15 21 12-22 13-22 12-22 21-14 25-1 24 5 17 16"/>
<path d="M12548 17974l 4-25 0-26 0-27-2-26-2-29 2-30 2-31-1-25 1-24-1-25 1-32 0-31 0-31-2-30-3-31-1-28 2-26 1-25-1-29-1-29 0-25 1-29-2-29 0-27-3-27 1-26-1-25-1-25-17 19-12 22-10 22-13 25-16 20-1-29 5-26 6-25 7-26 8-26 10-22 24 11 20 16 22 16 21 17 22 14"/>
<path d="M12314 17074l 23 8 27 1 26 3 26 2 26 2 29 1 28-1 26-1 28 1 25 1 28 0 25 2 25 4 24 4 27 3 29 2 26 2 26-2 24 0 26-2-18-19"/>
<path d="M12552 17048l-5-24 4-26-1-26 1-27 0-24 2-28 0-25-2-28-4-31-2-31-1-30-2-32-2-34-2-35-1-25-2-25-3-27-1-28-3-28-3-30-2-29-1-30-2-30-1-32 1-31 0-32-1-31 1-29-1-29 0-28 1-28-1-28 2-27 1-26 0-26 1-26 0-26 0-26 0-26 1-26 0-27 0-28 0-28-2-29 0-30 0-28 0-31 2-27 1-27 1-25 0-25 4-33 2-32 6-26 2-25 1-29 1-27 2-27 2-28 3-29 3-32 3-29 2-27 3-27 2-26-2-24-13 21-9 23-11 25-11 22-12 24-14 21 1-29 6-26 5-25 5-23 25 2 18 16 17 18 9 23"/>
<path d="M11369 18043l-26-2-17 16-11 26-7 24-6 25-4 28 1 27 6 25 12 25 16 20 22 12 24 6"/>
<path d="M11523 18234l 11 23 10 24 7 23 5 25"/>
<path d="M11465 18254l 21-14 24-1 25-2 22 10 0 28-9 27-13 22-14 23-15 21 17-18 21-15 22-8 25-5 24 1 24 2"/>
<path d="M11735 18035l-23 7-22 13-19 17 21 15 24 3 24 3"/>
<path d="M11690 18139l 24-2 24 1"/>
<path d="M11937 17965l-24 0-18 19-11 24-9 23 1 26 3 24 12 21 25 7 24-6 23-11 21-11"/>
<path d="M12081 18126l 11-22 3-24-14-21-24 5-10 22-3 25 9 23 21 11 26 8 26 5 24 7 21 13 2 25-16 23-20 15-22 11-23 7-24-9-6-26 0-28 0-25 5-26 5-26 9-26 14-21"/>
<path d="M11422 18281l 22-15 23-12 24-9 25-7 24-6 17 20-4 27-5 28-3 28-5 26-8 27-8 23-1 25-4 25 13-26 4-25 8-28 5-28 6-26 6-27 0-25 4-25-22 13-26 5-25 0-25-4-25-2 25-5 25-5 26-8 27-4 25-9 3 26-7 24-7 26-6 24-5 23-7 26-3 26-7 26-1-26 5-24 7-25 6-26 7-28 7-23 8-23"/>
<path d="M11465 18366l 23-9 25-10 24-8 23-7 25-4"/>
</svg>
