<svg xmlns="http://www.w3.org/2000/svg" viewBox="581 -14739 9616 25552" stroke="black" stroke-width="20" stroke-linecap="round" stroke-linejoin="round" fill="none" data-xena="0 0 0"><style>@media(prefers-color-scheme:dark){svg{background-color:black;stroke:white;}}</style>
<path d="M7020 9432l 1-1 0 0 1 1 7 0 5-1 4 0 5 0 6-1 6-2 7-1 7-1 7-3 9-1 9-4 7-1 9-3 9-3 8-3 9-3 8-3 8-4 7-1 7-3 6-2 6-1 4-2 4-1 5 0"/>
<path d="M7049 9441l 0 1-1 3-1 2-1 3-1 3 0 4 0 11 0 7 1 8 1 9 1 9 2 11 0 10 3 12 0 12 2 11 1 14 2 14 1 13 1 14 1 15 1 15 1 16 0 16 0 17 0 16-1 18-1 17-1 17-2 17 0 17-1 18-2 16-1 18-1 16-1 15-2 15 0 14-1 12-1 11 0 19 1 7 1 7 1 6 2 5 2 4 3 4 2 3 4 3 4 2 3 2 5 1 6 1 12 0 7-1 8-1 9-1 10-2 11-2 11-3 23-4 12-3 11-3 12-2 11-3 11-2 10-2 11-3 11-3 10-2 10-3 9-2 9-3 8-2 7-3 7-2 6-3"/>
<path d="M7407 9733l-3-3-3-3-5-3-5-3-5-4-5-5-6-3-4-3-4-2-4-2-4-3-3-2-5-1-5-2-4-1-5-1-5 0-5 1-6 1-11 3-7 2-5 4-7 4-6 5-7 6-7 6-13 14-5 7-5 7-5 7-5 7-3 7-3 6-1 5-3 6 0 5 0 5 1 4 1 4 2 4 3 2 3 3 4 1 5 1 12 0 8-1 8-2 9-4 9-4 10-5 10-6 10-5 10-7 9-6 9-6 9-6 8-5 8-5 7-5 6-5 6-4 5-4 4-3 4-2 3-2 2-2 3-3 0 0 0 1 0-1 0 2-1 0-1 2 0 15 1 3 0 10 1 5 0 5 1 5 1 5 1 5 2 3 2 5 2 5 2 5 2 3 3 4 2 3 3 4 3 4 3 3 4 2 4 2 4 1 10 0 4-1"/>
<path d="M7646 9628l-1 0-3-1-9 0-1 1-2 0-1 1 1 1 2 1 1 1 2 0 3 2 3 1 4 1 4 1 10 1 27 0 7-1 8 0 8-1 9-1 9-1 8-2 10-1 10-2 10-3 10-3 10-4"/>
<path d="M7986 9474l-1 0-3 1-2 0-3 2-3 2-4 3-2 3-2 3-1 4-1 4-1 5-1 5 0 11 1 6 1 7 1 6 1 7 1 7 1 6 2 7 0 7 2 8 1 7 2 8 0 7 2 8 1 16 1 9 1 8 0 8 0 8 1 8 1 8 0 10 1 7 1 8 1 6 1 6 1 7 2 5 2 5 1 3"/>
<path d="M8062 9316l 0-1-1 0 0-1 0 0 0-1 0 1 5 0 2-1 13 0 5-1 7 0 7-1 14-1 8-2 7-1 8-2 7 0 7-2 7-1 7-1 6-1 7-1 7-2 6 0 5-1 5-1 5-1 5-1 4-1 3 0 3 0 2 0 3 0 1 1 1 2 2 0 1 1 0 1 2 1 0 2 2 1 1 2 1 2 2 2 2 4 1 4 2 5 2 5 2 7 2 8 2 7 4 20 2 12 3 11 2 13 3 14 2 13 3 15 2 15 3 15 2 15 2 16 2 16 1 15 3 15 1 17 2 15 2 16 1 14 3 28 1 14 1 14 1 12 0 14 0 13 1 13 1 13 0 39-1 13 0 13-1 12 0 13 0 12-1 13-1 12 0 13-1 12-1 10-1 9-1 10-1 8-1 7-2 7-2 6-1 6-2 5-3 5-2 4-2 4-3 3-3 3-4 3-4 3-4 2-5 3-5 2-6 3-6 1-6 1-7 2-7 1-8 0-7-1-8 0-7-1-9-1-9 0-8 0-9-2-10 0-20-3-10-1-11-1-12-3-22-2-12-3-12-1-14-2-14-2-15-1"/>
<path d="M4368 10235l 0-1 0 1 1-1 0 0 5 0 2-2 3 0 4-1 5 0 6 0 7 0 8 0 10-1 12-1 13 0 14-2 16-1 17-1 18-2 21-2 22-2 23-1 25-2 27 0 28-1 29-1 32 0 66 0 34-2 36 0 36-1 38 0 38 0 40 0 128 0 45 0 45 0 46-2 47 0 47-2 49-1 50-1 51-1 50-2 53-1 53 0 54-1 55-1 54 1 56 0 57 1 58 2 57 1 59 1 119 4 60 2 60 2 60 3 60 2 61 3 61 3 60 2 61 5 62 2 61 2 61 2 62 2 61 1 60 1 60 0 60 0 58 0 58 0 57-2 57-2 55-1 55-3 53-2 52-2 52-3 50-1 49-2 47-2 47-1 46-1 44-1 42-1 42-1 38 0 38 0 35 1 34 1 31 1 30 0 27 2 26 2 24 1 22 1 18 1 18 0 15 2 12 1 11 2 9 1 6 2 5 0 4 2 2 0 0 1-1 0-2-1-4 0-5-1-8-1-10-2-13-1-16-2-18-3"/>
<path d="M6267 10387l 2 0 2 1 25 0 6-1 6 0 5-1 20 0 8 0 14 0 7-1 6 0 7 1 5 0 5 0 4 2 4 0 2 2 4 3 2 3 0 2 1 3 0 2-1 4 0 4-2 7-6 13-5 8-6 9-7 10-7 11-9 10-8 11-9 9-9 10-9 9-9 9-9 9-8 7-8 8-9 7-9 7-9 6-7 5-9 5-7 5-7 3-7 4-5 3-5 2-9 6-3 2-3 2-2 3-4 4 0 1 1 0 0 0 3 2 2 1 4 2 4 2 5 2 7 3 7 2 8 2 8 2 9 2 11 2 10 3 12 1 11 1 11 1 12 2 11 0 12 1 13 1 12 1 24 0 12 1 12 0 12 1 12 0 23-2 22 0 11-1"/>
<path d="M1461 -13696l-1 1 0 1 0 1 0 1 0 0 0 1 0 1 0 0 2 0 0 1 0-1 2 0 0 0 1-1 0-1 0 0 0-1 1-2 0-1 1-1 0-2 0-1 1-2 0-11-1-4-1-2-1-2-1-1-1-2-1-1-2-1-1-1-2-1-2 0-2-1-2 0-2 1-2 1-2 2 0 1-2 2-2 2-1 3-3 3-7 14-1 3-1 2-1 3 0 2 0 3 0 0 1 2 2 1 1 2 1 2 3 1 2 1 4 1 4 1 5 1 5 0 5 1"/>
<path d="M1040 -13032l-1-1-3-3 0 0-1-1-1-1 0-1 0-1 0-1-1-1 0-1-1-2 0-2-1-1 0-2 0-1 0-4-1-1-1 0 0-1 0-1-1 0 0-1-2-2 0 0 0-1-2 0 0-1 0 0 0 2 0 0 0 3 1 1 1 2 0 4 1 3"/>
<path d="M2001 -13701l-1 0-1 1-2 0-1 1-1 1-1 1 0 0-1 0 0 1-1 0 0 1 1 0 0 3 1 1 0 1 1 0 0 1 0 1 1 0 0 1 1 0 0 0 5 0 1 0 1-1 0-3-1-1-1 0 0-1 0-1-2-1 0-1-2-1-1-1-2-1 0-1-2-2-3-1-2 0-1-1-2 0-1 1-2 0-2 1-1 1-2 1 0 2-2 1 0 2-2 3-1 2-2 3 0 2 0 3-2 2 0 3-1 3 0 5 1 2 0 2 1 2 0 2 1 1 1 3 1 1 3 1"/>
<path d="M1978 -12643l 0 1 1 1 0 0 0 1 2 1 1 2 0 1 2 0 0 2 2 0 1 1 2 0 1 1 1 0 1 1 2 0 1 1 4 0 0-1 1-1 1 1 1-1 0 0 0-1 0-1 1 0 0-1 1-1 0 0 0-2 1-1 0-1 1-2 0-1 1-2 0-9-1 0 0-2-1 0-1-2 0-1 0 0-1-1-1 0 0-1 0-1-2 0 0 1-1 0 0 1-1 0 0 1-1 0 0 2 0 1 0 1 1 3 1 2 0 2 1 2 2 2 2 3 3 2"/>
<path d="M2441 -13651l 0-1-1-1 0-2-1 0-1-2-1 0 0-1-1-1-1-1 0 0-2-2 0 0-1-1-1-2-1 0 0-1 0-1-1-1-1-1 0-1-1 0 0-2 0 0 0-2-1-1 0 3-1 0 0 0 1 0 0 2 1 0 0 1 0 1 2 3 1 1 2 2 2 2 1 3 2 2"/>
<path d="M2436 -12577l 1 0-2 0 0 1 0-1 0 0 0 1 0 0 0 0 0 0 0-1 1 0-1-1 0 0-2-3-1 0-1-2-1 0-1-2-2-1-1-1-1-1-3 0 0-1-3-2-2 0 0 0-2 0-1-1-2 0 0 1-1 0 0 0-1 0 1 0 0 2 1 0-1 0 0 5-1 1 0 7 1 1 0 1 1 1 2 2"/>
<path d="M2989 -13631l-1-1-1 0-1 0-4-3-2 0-2 0-2-1-7 0-1-1-9 0-2 0-9 0-1-1-1-1-2 0 1 0 0 1 1 1 1 1 1 1 2 5 2 3 1 3"/>
<path d="M2909 -12534l-1-1-1 0-2 0 0 0-2-1-2 0 0 1 1 0 0 2 1 0 0 1 0 2 1 2 1 2 0 3 2 3 1 3 2 4 1 3 2 5"/>
<path d="M3262 -13637l 0-1-1 0 0-2 0-1 0 0-2-3-1-1 0-1-1-1 0-1-1-2 0-1 0 0 0-3-1-1 0-1-1-1 0-1-2-2 0 1-1 0 0-1 0 1 0-1 0 2-1 0 1 0-1 0 0 2 1 2 0 3 0 1 1 2 1 2 0 2 2 2 1 2 2 2 1 3 2 3 2 3 3 3"/>
<path d="M3274 -12492l-1-3-2-1-1-2-1-2-1-1-1-2-1-2-1-1 0-2 0 0 0-3-1 0 0-1-1-1 0-2 0-1 0-3 0 0 0 1 1 0-1 0 0 0 1 1-1 1 1 0-1 0 0 1 1 0 1 1 1 1 1 0 2 1 3 1 1 0 2 1 3 2 3 0 3 1 3 1"/>
<path d="M3621 -13572l 0-1-1-2-1-1-2-1-1-1-1-3-2-2-1 0-1-2-1-1-1-2-1-2-1-1 0-1 0-1-1-1 0-3-1-1 0-15 1 0 0 1 1 1 1 2 2 1 1 2 1 2 3 2 2 3 2 3 1 3 2 5 3 3 2 4 3 5"/>
<path d="M4248 -13258l 1 0-1 0-1-1 0 0 0-2 0 1 0-1-1 0 0-3-1-2 0-3-1-1 0-3 0-1 0-5-1 0 0-2-1-1 0-2 0 0 0-1-1-1 0-1-1 0 0 0-1 0 0-1 0-1 0 0-1 0 0-2-1-1 0-1 0-1 0-5-1 0 0-2-1-1 0 0-1 0 0-2 0 1 0 0 0 1-1 0 0 2 1 1 0 3 0 2 1 2 1 4 0 4 1 3 0 4 1 5 0 4 1 5 0 18 0 5 0 9 1 5 0 15 1 5 0 15 1 5 0 5 0 5 1 5 1 5 0 6 0 6 1 6 1 6 0 6 1 6 0 6 0 5 1 5 1 6 0 6 1 6 1 7 0 6 1 7 1 7 1 7 0 6 1 7 2 15 1 7 1 7 0 8 1 8 1 7 1 8 1 16 1 8 1 7 1 6 1 8 0 6 2 6 0 6 0 7 1 6 1 6 1 6 0 6 1 6 1 5 0 6 0 6 1 5 1 5 0 5 1 6 0 6 0 6 1 5 0 7 1 6 0 7 0 6 0 13 1 6 0 13 1 7 0 12 1 6 0 21 0 5 0 4 0 5 0 4 0 40 0 5 0 26-1 6 0 38-1 6-1 6 0 11 0 5-1 6 0 6-1 6 0 7 0 6-1 6-1 7 0 7-1 6 0 7 0 7-1 6-1 8 0 7 0 6 0 13-1 6 0 6 1 7 0 30 0 7 0 18 1 6 0 12 1 5 0 6 0 17 1 5 0 16 1 5 0 18 1 5 0 32-1 4 0 12-1 4 0 106 1 6-1 6 0 15 1 4 0 26 1 5-1 5 1 6 0 11 0 6 0 113 1 6 0 14 1 7 0 7 0 7 1 6 1 7 1 7 1 7 1 6 0 7 1 6 2 7 0 5 1 6 1 6 1 5 1 5 1 5 0 5 1 5 0 5 1 5 0 5 0 5 0 10 1 5 0 10 1 5 0 9 1 4 0 5 0 5 0 9 1 5 0 10 1 4 0 5 0 4 0 8 1 4 0 8 1 3 1 4 0 6 0 4 0 3 1 5 0 3 1 4 0 8 0 5 0 5 1 5 0 15 1 5 0 80-1 5 0 20 1 5 0 14 1 4-1 4 1 4 0 4-1 4 1 4 0 8-1 4 0 13 1 3 0 30-1 2 0 2-1 0 0-4-1-1-1-2-2-3-2-5-3-5-4-8"/>
<path d="M4313 -12951l-1 0 0 1-1 0 0 1 1 0 0-1 7 0 0 0 3 0 1-2 1 0 0 0 2-2 1-1 0-1 1-1 1-2 0-1 1-2 1-2 1-1 0-2 0-2 1-2 0-3 1-1 0-1-1-1-1 0 0 1 0 0-1 1-1 0 0 0-1 1 0 1 0 1-1 0 2 0 1 1"/>
<path d="M3919 -13577l-1-1-3 0-1 0-5 0 0 0-1 1 0 1-2 3-1 2-1 1-1 2 0 2-1 3 0 1-1 2 0 1-1 1 0 6 1-1 0 0 1 0 1-1 1-1 1 0 3-1 2-1 3-1 2-1 2-2 2 0 3-1 3-1 3-1"/>
<path d="M4210 -13249l 0-1 0 1-1 0 1 0 0-1 0 1 0-1 0 1-1 0 0-1 0 0 0 0-1 0 0-1-1 0-1-2 0-1-1-1 0-1-1-1 0-2 0-1 0-1-1-2 1-1-1-2 0-5 1-3 0-2 0-3 1-3 0-3 1-3 1-7 1-3 1-4 0-3 0-3 0-4 1-3 0-3-1-4 0-3 1-3 0-4-1-3 0-8 0-5 0-4-1-4 0-4-1-5-1-5 0-5 0-5-1-5-1-6 0-6-1-6 0-7-1-5 0-7-1-6 0-7-1-6 0-6-1-6 0-6-1-5-1-5-1-6 0-5-2-5 0-4-2-5-1-4-1-5-1-5-1-5-2-5-1-5-1-5-1-5-2-5 0-5-2-6-1-6-2-5-1-6-1-7-3-6-1-6-1-7-2-7-1-6-2-8-1-7-1-6-1-7-1-7-1-6 0-7-1-6-2-6 0-5-1-7-1-6 0-5-1-6-1-6-1-5 0-5-1-6-1-5 0-6-2-11-1-7 0-6-1-7-1-6 0-14 0-8-1-8 0-16-1-9 0-8-1-9 0-9 0-8 0-9-1-8 0-9-1-9 0-37 0-7 0-26-1-5 0-20 1-7 0-14 0-8 0-7 1-8 0-8 1-17 1-8 0-8 1-4 0-4 1-4 0-5 0-5 1-5 0-4 1-5 0-4 0-5 0-5 1-5 0-13 1-5 0-19-1-3 0-7-1-3 0-3 0-3 0-3-1-3 0-3-1-2 0-3 0-5-1-1 0-2-1-2 0-6-1-2 0-4 0-1 0-2"/>
<path d="M1218 -13345l 0-1-2 0-1 1-1 0-1 1-1 0 0 0-2 0 0 0-1-1 0-1 0-1-1-1 0-1-1-1 0-1 0-2-2-1-1-2 0-1-1-2-2-6-1-3 0-3-1-3 0-4 0-3-1-5 0-4-1-4 0-5 0-10-1-6 0-19-1-7 1-8 0-15 1-7 0-78-1-9 0-19-1-10 0-11-1-10 0-11-1-11 0-11-1-11-2-23 0-11-1-11-1-12-1-11-1-11-2-11-1-12-3-21-1-10-2-20-1-9-1-9-1-8-2-9 0-8-1-8-2-8-1-15-1-8 0-8 0-15-1-8 0-31 1-7 0-21 0-8 0-7 1-9 1-8-1-7 0-8 1-9 1-8 0-9 1-9-1-9 0-33-1-5 0-13-1-12 0-8-1-7 0-6 0-8-1-7 0-9-1-8 0-7-1-8 0-7 0-24-1-8-1-7 0-31 0-8 0-7-1-8 0-7-1-7-1-7 0-7-1-14-1-8 0-7 0-7-1-7-1-7-1-7 0-7-1-7-1-7 0-6-2-8-1-7 0-8-1-7-1-8-2-7-1-8-1-8-1-7-1-8-2-8-1-7-1-7-2-7-1-7-2-6 0-7-2-6-1-6 0-6 0-10 0-5 1-5 1-5"/>
<path d="M1217 -12320l-1 0-1 1-1 1-1 2 0 2 0 3 0 5-1 3 0 6-1 3 0 14 1 6 0 6 1 7 0 7 0 8 0 7 2 8 1 19 2 10 1 20 2 11 1 12 1 12 1 13 2 13 0 15 1 14 1 16 0 15-1 16 0 48-1 16 0 107 0 18 0 17 0 19 0 19 0 18 0 19 0 20 0 19 1 19 0 19 1 20 0 19 2 20 2 60 1 39 1 18 2 19 0 19 2 17 1 17 2 19 0 18 2 17 0 17 2 17 1 16 0 16 2 16 0 14 1 14 2 14 1 13 1 13 2 13 2 12 1 13 2 12 1 12 2 12 1 11 1 10 1 11 0 9 2 8 0 8 1 7 2 6 1 7 1 5 1 5 1 5 1 4 1 4 1 2 0 4 1 3 1 2 1 1 1 3 2 2 1 0"/>
<path d="M1976 -13164l 1 0-3 0 0-1-2 0-1 0-5 0-2-1-2 0-3-1-3 0-2-1-3 0-1 0-6 0-2-1-6 0 1 0 0 1 1 0 2 1 2 3 3 1 2 2 2 2 4 2 4 2 4 2 5 1"/>
<path d="M2395 -13094l 1-1-1 0 0 1-1 0 0 1-1 0 1 0-1 0 1 0 0-1 1 0 0-1 1 0 0 0 0 0 0 0 0 0 0-1-1 0 0 1-1 0 0-1 0 0-1-1 0-1-1-2-1-1-2-4-1-3-1-2-3-4 0-1-1-2-2-1 0-1-1 0-1-1-1 0-1 1-1 0 0 4 0 1 0 6 0 3 1 2 2 3 1 2 2 2 3 3"/>
<path d="M2918 -13101l-2 0-1 1-1 0 0 0 0 0 0 0 1 0 1 0 0-2 1 0 0 0 0 0 0-2 2-2 1-2 2-4 0-3 0-2 1-2 0-1 1-2-1 0 0-2-1 0 0 1-1 0 0 1-1 0-1 0 0 1-1 1-1 1-1 2-1 2-1 2 0 1-1 2 0 3 1 2 0 2 2 2"/>
<path d="M3276 -13070l 1 0-9 0-1 1 0 0 1 0-1 1 0 2 0 2 0 9-1-1 0 0-1 0 0-1-2 0 0-1 1 0 1-1 1 1"/>
<path d="M3651 -13034l 0-1-1 1 0 1 0 1-1 0 0 1 1 0 0 1-1 0 1 0 0 1 0 1 1 0 0 1 1 1 1 1 0 0 2 1 0 1 1 1 3 2 1 1 1 1 2 0"/>
<path d="M4303 -11438l 0-1-1 0 0 0 0-1 0-1-1-1 0 0-1-2 0-1-1-2 0-1 0-1 0-3-1 0 0-2-1 0 0-2 0 0 0-1-1 0 0-1-1 0 0-1-1 0 0-1-1 0 0-1-1 0 0-1-3 0 0 1 1 0-1 0 1 0-1 1 0 1-1 0-1 0 0 0-2 2 0 0-1 2-1 0 0 1-1 0 0 1 0 0 0 1-1 0 0 3-1 2 0 4-1 2 0 6 0 2 0 17 0 4 0 11 1 4 0 10 1 4 0 4 1 3 0 4 1 3 0 4 1 3 0 4 0 4 1 3 0 4 1 3 1 4 0 4 1 4 1 4 0 4 0 5 1 5 0 5 1 5 1 5 0 5 1 6 1 6 0 5 0 6 1 7 1 6 1 6 0 7 0 6 0 7 1 7 0 14 1 7 0 15 0 7 0 54 0 9 0 48 0 9 0 11 1 10 0 10 1 11 1 10 0 11 0 10 1 12 1 11 0 11 2 11 1 13 0 12 2 11 0 14 2 13 1 12 1 12 1 13 0 13 2 12 1 12 1 10 1 12 1 11 2 10 0 10 2 9 0 10 2 18 1 10 2 22 0 10 1 11 2 20 1 10 1 10 0 10 2 9 1 10 1 9 1 10 2 9 1 10 1 10 1 10 1 10 1 10 1 9 1 10 1 10 0 11 2 18 1 10 1 9 1 9 0 9 2 9 1 9 0 9 2 9 0 9 2 8 1 8 1 16 1 6 1 8 1 7 1 6 0 6 1 6 1 6 0 6 1 5 1 6 0 5 1 4 0 5 0 3 1 3 0 23-1 1-2 2-1-1-1 0-1 1-2-1-1 1"/>
<path d="M1264 -11227l 0-1-1 1-3 0 0 1 0 0 0 0 0 1 1 0 1 1 1 1 1 2 1 1 1 2 2 2 1 3 1 2 3 3 1 3 1 4 1 3 2 4 1 5 1 6 2 5 0 7 1 9 0 9 2 10 0 87-1 15 0 17-1 17 0 18 0 18 0 18-1 18 0 18 1 17-1 18-1 18 0 17 1 17 0 18 1 18 0 18 1 20 1 18 1 20 0 38 1 19 0 119-1 15 1 14-1 14-1 13 0 46 0 9-1 9 1 9 0 7-1 7 0 6-1 5 0 5 1 5 0 3-1 2 1 3 0 2 1 1 1 0 0-1 1 0 0-2 1-2 0-16"/>
<path d="M1194 -13345l 0-1-1 0-1-1-1-1-1-1-2 0 0-2-2-1-1-3-2-1 0-3-1-2-2-3 0-2-2-3 0-4-2-3-1-4 0-3 0-3-1-3 0-4-1-2 0-1 0 0 0-1 0 1 0 0 0 0 0 0 0 1 1 1 0 1 1 2 1 4 2 2 0 3 1 3 1 4 2 4 1 5 2 5 0 5 2 7 1 6 2 7 0 8 2 8 1 9 0 9 0 9 1 10 1 9 1 22 2 20 0 11 0 9 1 11 1 10 0 10 2 20 1 10 0 10 2 11 0 11 2 10 1 12 2 11 1 11 2 11 2 12 1 11 2 13 2 12 1 13 2 12 2 14 2 13 1 13 2 13 1 12 2 12 2 11 1 11 1 10 1 10 2 9 3 19 1 8 1 9 1 8 2 9 0 9 2 8 0 9 2 8 1 9 1 8 1 8 2 10 1 8 1 9 1 8 1 8 2 8 0 8 2 8 0 7 1 7 1 6 1 8 0 7 0 7 1 7 0 13 1 6 0 19 0 6 0 13 1 7 0 28 1 8 0 72-1 7 0 21 1 6-1 6 0 34-1 6 0 24 0 5 0 15-1 6 0 12-1 5 0 28 1 5 0 31 1 5-1 5 1 4 0 4 0 5 1 5 0 5 1 5 0 4 1 5 0 5 1 5 0 40 1 4 0 5 0 5 0 10 1 3-1 5 0 4 1 5-1 5 0 4 0 20-1 5 0 33-1 3 1 4 0 9 1 3-1 3 0 4 1 3 0 9 0 3 0 2 0 10 0 2 0 2 1 2 0 2 1 2 0 1 1 2 0 2 0 2 2 1 0 1 0 1 3 2 0 1"/>
<path d="M1469 -12124l-1 0 0 1-1 0 0 0-1 1-1 0 0 1-1 0 0 1 0-1 1 0-1 0 1 0-1 0 0-1 0 1-1 0 0 1-2 0-1 2-1 2-2 2-3 4-1 2-2 3-1 2-1 1-1 1 0 1-2 1-1 1 0 2 0 1-1 1 0 9 1 2 3 4"/>
<path d="M1944 -12099l 0 1-1 0 1 1 0 4 1 0 0 1 0 1 0 1 3 0 0 0 1 0 1 0 0 0 0-1 1-1 2-1 0-1 2-1 1-3 2-2 2-1 1-3 2-2 1-3 1-2 1-3 2-2 0-2 1-3 1-2 0-5 1-1 0-4-1-1 0-1 0 0 0 0-2 0-1-1-7 0-1 1-1 0-1 0-1 0-1 2-2 1 0 2-1 1 0 6"/>
<path d="M2429 -12095l-1-1 0 0-1-1-2-1 0-1-2 0-1 0-1-1-1 0-1-1-2 0-3-1-2 0-2-1-2 0-1-1-1 0-1 0-1-1-2 0-2-1-2 0-1 1-2 0 0-1-2 0 1 0-1 0 0 1 0 1-1 0 0 0 0 0 1 1 0 1 2 2 3 1"/>
<path d="M2976 -12088l-3 0-1 1-4 0-2 0-2 1-2 1-1 1-1 0-1 1-1 1-1 0 0 0-2 0 1 1 1-1-1 1 0-1 1 0 0 0-1 0 0-1-1 0 0-1 0 0-2 0-1 0 0-1-2 0 0-1-2 0-1-1-2 0 0 1 0 1"/>
<path d="M3355 -12117l 0-1-2 0-1 0-1 0-2 0 0 1 0 0 0 1 0-1-1 1 0 2 0-1 1 0 0 1 0-1 0 1 1 0 1 1 1 1 3 3 3 2 2 2 4 2 2 2"/>
<path d="M3684 -12114l-1-1-2 0-1 0-2 0-1-1-3 0 0 1-1 0 2 0 0 0 2 1 1 1 0 0 2 2 3 1 2 1 3 1"/>
<path d="M3980 -12120l-2 0 0 1-2 0 0 0 0 0 0 1 1 1 1 1 1 1 0 1 2 3 2 0 1 2 2 0 1 2 2 1 2 0 3 0 2 1 2 0"/>
<path d="M4614 -13003l-1 0 0 1 2-2 18 0 5 1 21 0 9 1 44 0 9 0 20 0 22 2 10 1 12 1 10 2 12 1 11 1 13 2 13 1 14 2 14 1 15 1 16 1 15 0 17 0 34 0 18 0 18-2 18-1 18-1 19-2 18-2 19-1 18-3 19-2 17-2 17-2 17-2 15-3 29-3 14-1 12-1 12-2 12 0 11-2 9 0 9-1 16 0 6 1 6 1 5 1 4 0 3 1 2 1 3 1 1 1 2 2 2 1 0 0 0 1 0 0 0 1-1 0-1 1-1 0"/>
<path d="M5568 -13271l 1 1 0 1 0 2 1 2 1 4 1 4 0 5 2 6 0 6 2 8 1 7 1 8 1 15 1 9 1 8 1 8 1 8 1 9 2 8 6 37 1 9 1 10 2 9 1 10 2 9 1 9 2 9 1 9 1 8 1 8 1 9 1 9 1 7 1 8 1 8 2 8 0 8 1 7 1 6 0 7 1 6 1 5 0 5 1 4 0 12 0 4 0 3"/>
<path d="M4556 -12537l-1-1 0 1 0-1-1 0 0 1-1 0 0 1 2 0 1 0 1 2 2 1 2 1 3 2 3 2 4 2 4 3 5 3 6 3 6 4 7 2 7 3 8 2 8 2 9 1 9 0 10 1 11 0 10-1 11 0 11-2 12-1 11-2 11-1 12-2 12-1 11-1 13-1 12-2 11 0 39 0 25 1 14 1 13 1 13 2 13 2 14 2 13 2 13 2 14 2 13 3 13 2 13 2 14 2 13 1 12 3 13 1 12 1 12 1 13 1 13 1 12 0 11 1 12 1 11 0 10 0 10 0 9 1 9 0 8 2 35 0 5 0 4 0 11 0 0-1 1 0 0-2"/>
<path d="M5549 -12637l 0 1 1 0 0 0 2 1 2 1 3 1 3 1 5 1 5 1 6 2 7 2 7 2 7 2 14 4 7 3 7 2 8 2 6 2 6 2 7 1 6 3 7 2 5 1 6 2 5 2 6 3 5 2 4 3 4 3 4 3 3 3 3 3 2 3 1 3 1 4 1 3-1 4-1 4-1 4-2 5-3 6-4 6-5 7-5 6-5 8-8 7-7 8-8 8-8 8-9 7-9 7-17 15-8 6-8 6-7 6-6 6-6 4-5 4-4 4-4 3-3 3-3 3-1 2-2 1 0 1-1 1-1 1 0 1 2 0 0 0 2 1 1 0 3 1 4 1 4 1 4 1 6 2 6 1 7 1 14 1 8 1 7 1 7 1 8 0 9 1 7 0 8 1 8 0 8 0 16 0 7 1 7 0 7 1 14 0 6 1 17 0"/>
<path d="M3632 -12577l 1 1 0-2 0 0 0 0 1 0 0-1 1-1 0-2 1-1 0-3-1 0 0 0-3 0-1 0-1 0-1 1-1 0-1 1-1-1-1 1-1 0-1 1-1 0-1 0 0 1 0 1-1 1-1 1 0 1-1 2 0 1 0 9 0 2 0 2 1 1 1 3"/>
<path d="M1459 -8854l 1 0 0 1 0 0 2 1 1 1 2 1 2 0 3 2 3 0 4 2 4 1 5 2 4 0 12 3 6 2 7 0 7 2 8 1 6 1 9 1 8 0 8 1 19 0 10 1 10 1 11 1 12 1 12 2 12 1 13 1 13 1 13 3 32 1 16 0 17 1 18 0 19 1 20 1 20 1 22 1 23 0 25 1 25-1 26 0 28-1 28 0 30-3 60-2 31-1 32-4 32-2 32-2 33-2 35-1 35-3 35-2 35-3 38 0 37-3 38-2 38-3 77-5 39-3 41-2 40-2 38-3 41-2 41-1 40-2 42-2 42-1 81-4 42-3 41-2 42-3 41-2 42-3 40-2 42-3 42-3 40-2 41-4 40-3 39-3 40-4 39-3 38-5 38-3 38-5 37-4 35-3 36-4 34-4 34-3 31-3 32-4 31-4 29-3 28-4 28-3 27-3 27-4 25-3 23-3 24-2 22-2 22-2 20-2 18-1 18-1 33-2 15 0 13-1 13 0 11 1 28 0 6 1 5 0 5 1 2 0 3 0 1 0 1 1-1 1-1 0-2 1-3 2-4 2-5 3-6 2-9 4"/>
<path d="M1863 -8451l 1 0-1 0 0 1-1 0 1 0 1 0 0-1 3 0 2 1 11 0 4 0 4 0 4 1 5 0 6 1 6 1 14 1 8 1 8 0 9 0 9 2 9 0 9 1 9 0 20 1 12-1 11 0 12 0 79 0 16 0 16 0 17-1 36 0 19-1 60 0 21 1 133 0 22 1 24 0 22-1 24-1 24-1 24 0 23-2 50-3 25-3 25-2 25-1 27-1 27-3 28 0 27-2 29-2 28-2 30-2 29-2 30-3 30-2 30-2 31-1 31-2 28-2 30 0 60-3 29-1 29-1 29 0 28-2 28-1 27-1 26-1 26-1 25-1 23-1 24-2 22-2 22-1 20 0 20-2 19-1 17-2 16-1 15-1 15-1 13-2 12 0 12 0 11-1 9-1 16 0 6 1 9 0 2 1 3 0 1 0 1 1 0-1 0 0 0 0 0 2-2 0-1 1-2 1-1 1-3 2-3 3-5 2"/>
<path d="M1848 -8137l 0-1-1 1 0-1 1 0 1 0 0 0 3 0 0 1 2 0 4 1 2 1 2 0 3 1 4 1 3 1 7 1 3 1 4 2 4 0 4 2 5 0 5 2 10 3 5 1 7 2 6 2 7 2 8 2 8 1 9 2 11 1 10 0 23 3 13 1 13 1 13 2 14 1 30 3 16 1 15 2 16 1 16 1 17 1 16 1 17 1 16 1 17 0 16 1 16 1 16 0 16 0 17 1 69 0 17 1 19 0 19-1 19-1 19-1 20-1 20-1 21-1 21 0 22-1 23-2 22 0 23-1 23-1 24-1 25-2 25-1 25-2 25-3 25-2 27-2 26-3 27-3 28-3 26-4 27-2 27-3 27-3 26-4 27-5 26-3 26-3 25-4 26-3 25-4 25-3 26-4 24-3 24-3 23-3 22-4 23-1 21-3 21-2 20-1 18-2 20-2 17-1 19 0 16-1 17-1 16-1 15-1 14 0 27 0 11-1 12 1 11 1 9 0 8 1 8 1 5 1 6 1 4 0 5 2 2 1 2 0 1 0 1 1 1-1 0 1-2 0 0-1-3 0-2 0-5 0-3 0-5 0"/>
<path d="M1507 -7761l-4 0 1 0 0-1 0 1 1 0 0-1 1 0 0 0 3 0 2-1 12 0 3 1 4 0 3-1 4 1 4-1 15 0 5-1 21 0 7 2 9 0 8 1 10 1 10 1 11 1 11 2 12 1 13 0 12 1 13 1 15 1 15 2 15 1 15 0 17 1 16 1 17 1 18 1 17 0 75 0 20 0 37 0 20-2 19 0 20-1 21-1 41 0 22-1 21 0 43 2 22 1 22 1 22 1 22 2 23 1 23 0 24 1 23 1 25 2 48 0 25 1 25 0 25 0 27 1 26-1 27 0 27-1 28-2 27-2 28 0 28-3 29-1 28-3 30-2 30-2 30-3 29-4 31-3 30-2 31-4 30-3 31-3 32-2 31-3 30-2 31-4 31-4 32-2 31-4 31-4 31-3 32-2 32-3 31-4 32-2 31-2 32-1 30-1 32-2 31 0 32 0 64 0 32 3 32 1 32 2 32 2 32 2 31 3 31 2 31 4 31 3 30 3 58 9 29 5 29 5 28 4 27 5 26 5 50 10 25 5 23 6 22 6 22 5 20 5 19 5 19 5 18 4 16 5 16 5 13 4 14 5 11 4 10 4 9 3 8 4 7 2 6 3 3 1 3 1 2 2 2 1 0 0-3 0-2-2-5-1-5 0-7-2-8-2-10-3"/>
<path d="M1436 -8864l-1-1 0 0 0-1-1 0-1-1 0-1-1 0 0 0 0-1 0 3 0 1 0 2 1 3 2 4 0 5 1 6 1 7 2 8 1 8 1 20 1 11 0 13 1 13 0 77 1 18 1 19 0 20 0 20 0 21 2 43 0 22 0 46 1 25 1 24 0 25 1 27 0 53 1 54 0 27 1 27 1 28 0 26 1 27 1 27 1 26 2 28 1 28 1 28 2 29 1 27 2 28 1 29 1 29 2 29 1 28 0 27 0 58 1 29 0 58-1 28 0 28-1 27 1 28 0 27 2 53 0 27 1 25 1 25 1 25 1 25 2 26 1 25 4 77 2 24 2 26 2 27 3 25 3 25 2 25 3 25 3 24 4 23 3 22 5 21 3 20 4 20 5 19 5 18 4 17 9 31 4 15 3 13 5 14 3 13 4 11 3 12 4 12 3 11 3 11 3 9 2 11 3 10 2 10 2 10 2 8 1 10 1 8 2 7 0 8 0 7 0 38 0 0 0 1 0-1 0 0 0 0-1-2 0-3-2-2 0-4-2-6"/>
<path d="M1840 -8512l 1-1-1 0 0-1-1-1 0-1-1 0 1 0-1 1 1 1-1 0 1 0 0 1-1 1 0 1 1 1 0 17-1 7 1 6-1 7 0 33 1 9 0 9 0 9 0 21 1 10 1 11 0 10 0 11 1 10 0 10 1 12 1 10 0 10 1 10 1 12 0 10 1 13 2 11 0 11 0 11 1 13 0 80 1 13-1 11 0 25-1 10 0 12 0 12 0 22 0 11 0 35 1 12 1 11 1 11 1 11 1 11 0 11 2 10 0 10 1 18 1 10 1 9 0 9 0 9 1 8 1 8 1 17 1 9 0 8 1 8 0 9 0 8 1 7 1 16 2 14 1 7 0 7 2 7 0 7 0 6 1 7 0 15 1 7 0 7 1 6 0 8 0 7 0 24 1 6-1 7 0 6 0 6 0 27-1 7-1 7 0 35 1 8 1 8 0 7 0 8 0 8 1 7 0 8 1 7 0 8 0 6 1 8 1 7 1 8 1 7 1 8 0 8 1 7 1 8 1 8 0 8 1 8 0 8 1 7 0 8 0 25 1 7 1 8 0 7 1 8 0 7 0 8 1 7 0 16 1 7 0 15 0 7 1 8 0 7 1 8 1 8 0 8 0 8 2 8 0 8 1 8 1 8 1 8 0 8 1 8 1 7 0 9 0 18 0 8 0 34-1 8 1 8-1 7 0 7 1 6 0 24-1 5 1 6 0 5-1 5 0 35-1 3 0 7 0 3 0 3-1 3 0 6 1 4-1 3 0 7 1 4 0 17 0 4 0 4 0 3 0 6 0 3 1 5 0 8 1 3 0 4 0 5 0 13 1 2 0 3 1 2 1 0 0 2 0 1 0-8"/>
<path d="M2216 -8483l 0 1 1 0 0 12-1 3 0 7-1 3 0 14 0 5 0 5 0 6 0 20-1 8 0 42-1 10 0 9-1 10 0 10 0 12 0 12-1 12-1 12-1 12-1 14-1 12-1 14-1 13 0 13-1 13-2 12 0 13-1 12 0 12-1 12 0 24 0 12 0 35 0 12 0 56 0 12 0 11 0 24 1 13 0 23 1 12 0 12 0 23 1 12 0 33 1 10 0 10 1 10 0 10 0 9 0 10 0 10 1 9 0 20 1 9 0 10 0 10 2 8 0 10 1 18 1 9 1 10 0 10 1 9 1 9 1 9 0 9 1 9 1 7 1 8 1 8 1 9 0 8 1 10 1 8 0 8 1 9 1 8 1 7 1 8 1 7 0 6 1 7 1 7 1 7 0 7 0 6 1 8 0 7 1 7 0 6 1 7 1 7 1 7 0 8 0 8 2 7 0 8 0 8 1 8 1 7 0 8 1 8 1 7 1 8 0 7 1 7 1 7 1 8 1 6 1 7 1 7 1 7 2 6 1 7 2 7 1 5 1 6 1 7 0 5 1 5 1 6 2 17 1 5 0 6 2 5 1 6 2 15 0 4 0 5 2 6 1 11 1 5 1 11 1 7 1 6 0 5 1 6 0 6 0 7 2 6 0 6 1 6 1 7 1 6 0 5 2 6 0 6 1 5 1 5 1 5 0 6 0 5 1 6 1 5 0 6 0 5 1 7 0 5 1 6 1 7 0 6-1 6 1 6 0 14 0 6 0 7 1 5 0 12 1 6 0 5 0 4 0 15 0 1-1 0 0-3-1-3 0-4-1-6 0-18"/>
<path d="M2528 -8859l 1 0 0 2 0 1 0 1 1 1 0 2 2 4 0 4 1 3 0 4 1 4 0 8 0 5 0 31 1 6 0 14 1 8 0 8 1 8 0 8 0 9 1 10 2 30 1 10 1 10 0 11 2 12 0 11 2 10 1 12 0 12 2 12 0 13 2 11 1 12 0 12 1 12 0 10 1 11 0 12 0 10 1 11 1 11 0 23 1 11 0 12 0 12 1 11 0 22 1 11 0 9 1 9 1 10 1 10 0 10 1 10 1 9 1 10 2 21 0 9 1 10 1 11 1 10 2 22 0 10 2 11 0 11 2 12 1 12 1 10 1 12 0 12 1 13 1 11 1 12 0 12 1 11 1 10 0 11 2 11 1 10 0 10 1 12 1 10 0 11 2 22 0 11 1 21 1 10 1 11 0 10 1 11 1 11 1 10 1 10 1 10 0 10 0 11 0 168 2 21 0 12 1 11 0 12 0 10 1 12 0 10 1 12 0 11 1 23 0 13 1 11 0 25 1 10-1 13 0 55-1 11 0 11 1 11 0 61 1 9 0 10 0 9 1 8 1 10 0 8 1 10 1 9 0 10 1 9 0 9 0 10 1 8 0 18 1 9 0 9 2 28 0 9 1 10 0 9 0 10 1 10 0 20 1 22 1 9 1 10 1 11 0 8 1 8 1 8 0 8 0 8 1 8 1 7 1 8 0 7 1 8 1 7 0 8 0 7 1 7 1 7 0 7 1 7 0 7 0 14 1 9 0 8 1 9 1 17 0 8 1 8 1 7 0 6 0 6 1 6 0 10 1 5 0 10 0 6 0 6 0 5 0 33 1 5 0 4 1 4-1 3 0 29 1 5 0 2 1 4 0 4 0 2 1 4 0 4 1 2 0 4 1 7 1 4 0 4 1 7 0 4 2 4 0 3 0 3 2 6 0 3 1 4 0 5 1 5 1 5 2 17 1 10 1 3 1 5 0 3 1 4 1 2 1 3 0 3 1 3 1 3 0 2 1 3 1 4 1 2 0 4 1 4 1 2 0 3 1 4 0 3 1 2 1 3 1 2 0 3 1 2 0 2 1 2 1 2 1 2 0 2 0 2 0 1 1 3 0 3 1 2 0 0 0 0 0 2 1 0 1 1 0 4 1 0 0 1-1 2 0-1 0 1 0-2-1-1 0-2-1-1 0-2 0-4 0-3-1-5"/>
<path d="M1411 -8521l 1-1 0-1 1-2 0 0 1-1 0-1 1-1 0-1 0-1 1-2 1 0 0-2 0-1 1-2 0 0 1-2 0-1 1-1 0-2 0-1 0-4 0-1-1-1-1 0-1 0-1-1-1 0-2-1-2 0-1 0-5 0-3 0-2 0-2 1-3 1-5 3-3 1-3 1-3 3-3 2-3 3-3 2-4 3-3 3-3 4-3 3-3 4-2 3-2 3-2 5-1 3-2 4-1 3-1 4 0 3-1 4-1 4 0 11 1 4 1 4 0 3 2 4 1 4 2 5 2 3 2 4 3 3 3 3 4 4 3 3 3 3 5 1 4 3 8 4 5 1 10 3 5 2 12 2 6 1 5 0 6 1 11 0 12-3 6-2 11-3 6-4 5-2 6-4 5-3 5-3 4-3 4-4 4-4 4-4 3-4 3-3 3-5 3-5 3-4 2-5 2-5 2-5 1-5 1-5 1-5 1-4 0-14-1-5-1-4-1-4-2-5-2-5-2-4-3-4-4-4-3-3-3-5-4-3-4-3-4-3-5-1-5-3-5-2-6-1-6-2-6-1-12-1-6-1-12 0-6 1-11 1-6 1-12 3-5 1-5 2-5 2-5 2-5 1-8 4-4 3-3 2-4 1-2 2-3 1-2 1-1 2-1 1 0 2 1 2"/>
<path d="M1425 -8199l 0-1-2 0-2 0-2-2-5-1-3-1-3 0-2-1-6 0-3 1-3 0-3 1-2 0-3 1-3 1-4 1-3 2-2 1-3 2-3 2-3 1-3 2-3 3-2 3-2 3-2 3-2 3-2 2-1 4-2 3-1 3-1 3 0 3-1 3-1 3 0 3-1 3 1 2 0 7 1 3 1 3 1 4 1 3 4 3 2 4 4 3 3 3 4 2 5 3 5 2 10 3 11 3 7 1 7 1 7 0 7-1 8-1 9-1 7-2 8-3 9-3 9-4 8-4 9-4 8-5 7-6 7-6 7-5 6-7 5-5 5-6 5-6 4-6 3-6 3-6 3-6 2-7 2-7 1-6 0-13-1-7 0-7-2-5-2-6-3-6-3-5-5-5-4-5-6-4-5-4-7-4-7-3-7-3-9-3-7-2-8-1-9-2-15 0-8 1-7 1-6 1-7 2-6 3-6 2-6 4-5 3-5 3-5 3-4 3-3 3-3 4-2 2-3 3-1 2 0 3"/>
<path d="M1839 -8874l-23 0-3 1-12 0-2 0-2 0-1 1-2 1-2 0-2 1-1 0-1 1-2 1-1 2-1 1-3 3-1 3-1 2-1 3-2 2-1 4-2 3-3 7-1 5-1 4 0 4-1 4 0 13 1 4 0 4 0 4 2 3 1 3 2 4 2 3 2 3 3 2 3 3 2 2 4 3 4 2 4 1 4 2 5 1 6 1 11 2 17 0 6-1 7-1 5 0 5-2 6-1 6-2 5-2 4-3 5-2 4-3 5-4 4-3 3-3 4-4 4-4 3-4 2-5 3-5 2-5 2-5 2-5 1-6 1-7 0-20-1-7-3-14-2-6-2-5-3-6-3-5-3-5-4-4-3-3-5-3-3-4-5-3-4-2-5-1-5-2-10-1-6-1-6 1-5 0-6 1-6 1-6 2-6 2-12 4-5 1-5 3-5 2-3 2-3 1-3 1-2 1-1 1 0 2-2 1 0 4 1 1 1 3 1 3 2 3 2 5 3 5"/>
<path d="M2167 -8926l-3 0-2 1-2 0-2 1-3 1-2 1-2 0-2 1-1 1-2 0-1 0-1 0-1 2 0 0-1 1-1 1 0 1-1 1-1 0-1 2-1 1-1 2-1 2-2 4-2 4-1 4-2 5-1 7-2 6-2 6 0 6-1 7-1 6 0 6-1 6 1 5 0 6 1 5 1 4 1 5 2 5 1 3 3 4 2 4 3 4 3 2 2 3 3 3 3 2 4 3 3 2 4 2 3 1 3 1 5 1 7 2 8 0 3-1 3-1 4 0 4-1 4-1 3-2 4-2 3-1 4-3 4-2 3-2 3-2 3-4 3-2 2-4 4-3 2-3 2-5 3-4 2-4 2-5 1-4 2-4 0-4 1-5 1-3 0-5 0-4 0-5 0-4-2-4 0-5-2-5-2-5-2-5-2-4-3-4-3-3-3-4-4-4-4-3-3-2-5-2-4-2-4-2-9-3-5-2-4 0-4-1-5-1-4-1-13 0-4 1-4-1-4 0-3 0-5 1-3 1-3 0-4 1-3 0-2 0-3 0-2 1-5 0-2 1-1 0-3 1-2 1-2 1"/>
<path d="M6576 -8751l-1 1 0 0 0 0-1 1 0 5 1 2 0 0 0 1 1 0 1 1 3 0 2-1 0-1 1 0 2 0 2-3 2-2 1-1 1-3 1-1 0 0 0-1 0-2-1-1-1-1 0-1-1-1-2-1-1 0-1-1-3-1-1 0-1 0-3 0-2 0-2-1-11 0-2 1-1 0-1 1-1 0 0 1 0 1-1 1-1 1-1 2-1 1-1 3 0 1 0 3-1 2 0 10 1 5 0 3 1 1 1 1 1 3 1 1 3 3 1 1 2 1 3 1 2 0 3 0 3 0 4 0 5-2 5-3"/>
<path d="M6930 -9098l-1 1-2 0-3 2-1 1-3 3-1 2-1 2-1 3-1 1-1 2 0 2-1 2 0 1 1 1 0 1 1 2 0 0 1 2 1 1 1 0 1 1 1 0 1 1 1 0 1-1 4 0 1-1 2-1 2 0 1-2 1 0 1-2 1-1 1-1 1-1 0-5-1-2 0-1-1-2-1-2 0-1 0-2-1-2-1-1-1-2-1-1-1-2 0-2-2-1 0 0 0-1-1 0 0 1-1 1 0 3-1 1 0 1 0 2 0 3"/>
<path d="M7363 -9135l-1-1 0 1-2 0-2 1-1 1-3 1-2 1-1 2-2 0-2 2-1 1-3 3-1 1-1 1-3 3-1 1-2 1-3 3 0 2-2 1 0 1-1 1-1 0 0 2 0-1 1 0 0-1 0-1 1 0 0 0 1-1 1 0 0-1 1 0 1-3 1-1 1-1 1-3 0 0 0-2 1-1 0-2 1-1 0-1-1 0 0-2-1 0 0-1-1 0 0 1-2 0 0 1-1 0-1 1-1 0-1 2-1 0-1 1-1 2-5 4 0 1-1 1 0 3-1 1 1 1 0 1 1 1 0 1 1 0 0 1 1 0 0 0 5 0 0 0 2 0 1-1 0 0 2-1 0 0 2-1 1 0 0-1 0-1 0-2 0-1 0-1-1-1 0 0-1-1-1 0-1 1 0 1-1 1"/>
<path d="M6506 -8340l 1-1-1 1 0-1 0 1-1 0 1 0 0-1 1 0 0-1 1 0 1-1 0-1 1 0 0-2 1 0 0-2 1-1 1-5 0-1 1-2 0-5-1-2 0 0-1-2 0 0 0-1-1-1-1 0 0-1 0 1-1 0-1 1 0 1-1 0 0 0 1 1 0 1 1 2 0 1 1 3"/>
<path d="M6865 -8342l 1 0 0-1-1 0 0-3-1 0 0-1 1-1 0 0-4 0 0 1 0 0 0 6 0 1 0 1 1 1 0 0 1 0 0 1 1 0 0-1 0 1 0-1 0 0 1 0 1-1 0-2 2-1 1-2 0-2 1-3 0-4 1-3 0-3 0-16 0-3-1-3-1-2 0-3-1-2-1-2-1-2 0-1-2-2 0-1-1 0-2-1 0-1-2 0-1-1-4 0 0 1-1 0-2 0-1 2-1 0 0 1-2 1 0 1-1 1 0 1-1 1 0 4-1 2 0 5 0 3 0 2 0 3 0 5 1 2 1 4 2 2 1 1 1 1 2 3 2 0"/>
<path d="M6911 -8769l-1 0-2 1-2 1-1 2-3 1-2 1-2 2-3 4 0 2-2 2-1 2-1 3-1 2-1 3 0 2-1 2 0 9 1 1 0 1 1 1 0 1 1 1 4 0 0-1 1 0 2-2 1-2 1-1 0-2 0-10 0-2-1-3-1-2-1-3 0-2-2-3-1-3-2-2 0-2-2-3 0-2-2-2-1-1-1-1-1-1 0-1-1-1-1 0 0-1-1 0 0 0 0 5 0 2 0 3 1 3 1 2 0 4 1 4 1 5 1 5"/>
<path d="M7256 -8427l-1 0-1 1 0 5 1 0 0 3 0 2 0 0 1 1 1 2 0 0 0 1 1 1 1 1 3 3 0 1 1 1 1 0 1 2 3 0 1-1 1 0 0-1 1-1 1 0 0-1 0-1 1 0 1 0 0-1 1-2 0 0 2-3 0-4 0-1 0-2 0-1 0-1-1-1-1-2 0 0 0-1-1-2-1-1-1 0 0-1-1 0-1 1 0 0-1 1-4 0 0 1-3 0 0 0 0 0-2 2 0 1-1 1 0 1-1 2-1 2 0 1 0 2 0 5-1 3 0 4-1 3 0 5"/>
<path d="M6830 -7819l 1 0-2 0 1-1 1 0 0 0 0-1 1 0 1-1 1 0 1-1 1 0 1-1 2-1 0 0 1-2 1-1 2-1 1-1 2-3 2-2 1-2 2-2 3-3 1-3 2-3 2-3 1-3 1-2 2-3 1-2 0-2 1-3 1 0 0-2 0-2 0-5 0-3-1-1 0-1-3-3-1-1-7 0-1 1-2 0-2 0-2 1-1 2-2 0-2 2-3 1-1 2-2 1 0 1-2 2 0 1-2 2-1 1 0 2 0 1 0 12 0 2 1 2"/>
<path d="M6409 -8419l 1-1 0 0 0 1 3 3 2 1 1 1 1 2 1 2 2 2 1 3 2 2 2 3 3 4 2 3 3 4 3 4 3 5 4 4 3 4 4 4 4 5 4 5 4 5 4 4 4 5 5 4 5 4 4 4 4 5 4 4 4 3 4 4 3 3 4 4 3 4 3 2 2 3 3 2 2 3 3 2 1 3 2 1 3 3 1 1 1 2 1 0 1 2 0 0 1 1 1 1 0 1 0 0 0 0-1 0 0 1 0-1-1 0 0 0"/>
<path d="M6525 -8422l-1 0 0 1-1 0-2 2-2 1 0 1-2 1-1 2-1 2-2 2-2 3-1 4-2 3-3 4-3 4-2 4-4 5-2 5-4 5-4 5-3 5-4 6-4 6-4 6-4 7-4 6-4 7-4 7-4 7-5 7-3 7-4 7-4 7-4 7-2 6-4 6-3 6-3 6-2 5-1 5-2 4-2 4-2 3-1 4-1 2-2 3 0 2 0 2-1 2 0 2-1 1 0 3"/>
<path d="M5147 -5993l-1 0-3 1-1 1-1 2-2 0-3 3 0 2-1 0-1 1 0 1-1 2 0 5 1 1 0 2 1 0 1 1 0 0 0 1 1 1 1 0 0 0 2 1 1 0 0 1 8 0 2-1 1 0 1-1 3-1 2-1 0 0 2-1 2-2 1 0 1-2 1-1 1-2 0-2 0-1 1-2 0-6-1-2 0-1-1-3-1-1 0-2-1-1-1-2-1-1-1 0-1 1-1 0 0 2 2 0 1-1 2 0 3-1 2-2"/>
<path d="M5104 -6502l-1-1 0 0-1-1-2-2 0-1 0-1-2 0 0-1-2 0-1-1-1-1-5 0-1 1-1 0-2 2-1 1-1 1 0 1 0 1 0 4 0 1 0 2 1 1 0 0 1 0 1 2 1 1 1 0 0 1 1 0 1 1 2 0 1-1 0 0 1-1 1 0 0-3 0-1 0-2 0-2 0-1-1-1 0-1-1-2-1-1-3 0 0 1-1 0 0 1-1 2-1 2-1 2 0 3-1 3 0 2-1 4 0 4 2 7 1 3 2 2 2 4 2 3 2 3 3 2 3 1"/>
<path d="M5081 -5493l-1 0-1 1-1 0-1 2-2 1-2 1-1 2-1 2-1 1 0 2-1 2-2 4 0 1 0 13 0 2 1 2 1 3 0 1 1 1 0 3 1 1 1 1 0 0 1 2 1 1 1 0 0 0 1 0 1 1 2 0 1-1 1-1 1-2 0-1 1-1 1-3 1-2 1-6 1-4 0-3 1-4 0-14-1-3 0-2 0-2-1-2-1-1-3-3-1 0-1 1 0 0-2 0-1 3 0 0-3 3-1 2-1 1-1 2-1 2-1 1-2 2 0 2-1 2-1 2 0 2 0 3-1 1 0 1 1 1 0 1 0 2 0 0 1 1 1 1 0 1 1 1 1 1 1 0 0 2 2 0 0 1 2 1 1 1 2 0 1 1 2 1"/>
<path d="M5466 -6852l-1 0 0-1-3 0 0 0 2 0 0-1 1-1 1-1 1 0 1 0 2-1 2-1 1 0 2-1 3-1 2-1 2-2 3-1 1-2 2-1 2-2 1-2 1-2 2-3 1-1 0-2 0-2 1-2-1-1 0-3 0-1-1-1-1-1-1 0 0-1 0 0-4 0-1-1 0 0-1 1-1-1 0 0 0 1-1 0 1 0 1 0 1 1 1 1 2 1 2 1 2 1 3 3"/>
<path d="M6232 -6822l 1-1-1 0 0 1 0-1 0 1 1 0-1 0 0 1-1 0 0 1 0 1 0 3 0 0 0 0 1 1 0 2 1 0 0 1 0 1 0 3 1 1 0 2-1-1 0 2 0 0 0-1 0 1-1 0"/>
<path d="M5833 -6828l-1-1-1-2-2-1-1-2-1-1-3-2-1-1-1-1 0-1 0-1-1 0 0-1-1 0 0 0 0 21 0-2-1-1 0-1 0-1-2-3 0-1-1-2 0 0-1-1 0-1-1 0 0 2 2 0 3 1 3 1 2 1 4 0"/>
<path d="M6162 -6815l 1 0-2 0 1 0 0-1 1 0 0 0 0 0 0-1 2 0 1-1 1 0 1-1 0 0 1 0 1-1 1-1 1 0 1-1 0-1 0-1 1 0 1-1 2-2 1 0 0-1 0 1 0-2 0 2-1 0 0 1-1 0 0 1 0 0 0 1-1 0-1 1 0 3 1 1 1 2 1 2 1 1 1 3 1 2"/>
<path d="M6189 -6832l-1-1-1-1-2-1-1-1-3-2-1-1 0-1-1-1-1 0-2 0-1 0 0 0-1 1-1 1 0 1-1 0-1 2-1 1-1 2 0 1-1 1 0 2 0 1 0 4 0 1 0 0 1 1 1 1 1 1 2 1 1 0 1 1 2 0 1 1 2 0 3 1 2 0 1 1 2 0 2 1 3 0 1 1 4 0 2-1 0 0 2-1 1-1 0 0 1 0 1-1 0-1 0-1 1-2 1-2 1-4 0-2 1-2-1-2 0-3 0-2-1-2-1-3-1-2-2-2-2-3-1-2-2-1-3-3-2-2-3-1-3-1-2-1-3 0-6 0-2 0-3 1-2 1-3 1-2 2-2 1-2 2-2 0-3 2-2 2-1 2-2 1-1 3-1 2-1 3-2 2 0 7 1 1 1 1 1 1 2 1 1 2 2 0 2 1 4 0 2 1 3-1 2 0 3-1 6-3 3-1 2-1 3-3 2-1 3-2 2-2 1-2 2-3 0-2 1-1 1-2 0-5-1-1 0-1-1-2 0-1-3 0 0 0-6 0-1 0-3 0-1 0-2 1-2 2-2 1-2 2-1 2-2 3-2 2-1 4-1 3-1 4-1 4 0 8"/>
<path d="M1252 -5617l 0-1-1 0 0 0 0-1-1-1-1-1-3-3-1-1-1-1-3-3-1 0 0-1-1 0 0-1-1 1 0 0 0 6-1 2 0 14"/>
<path d="M1653 -5232l-1 0 0 1 0-1-2-1 0-1-1 0 0-1 0-1-1 0-1-1-1 0-1-1-1 0 0 0 0 0 0-1-1 0-1-1-4 0-1-1 0 0-2 0-1-1-1 1-6 0-2-2-1 0 0 0-1 0 0-1-1 0 1 0-1 0 0 1 1 0-1 0 0 0 1 0 0 2 1 0 0 2 1 2"/>
<path d="M1689 -4811l 1 0 0 1 0-1 0 1 0-1-1 1-1 0 0 0-1 0-4 0-1-1-2-1 0 0-2-1-4-4-1-1-2 0-1-1-1-1-3-1-1-1-1 0-1 0-1-2-7 0 0 1-1 1-2 0-1 0 0 1 0-1 0 1-1 0 1 0 0 2 1 0 0 2 1 1 0 1 0 1 0 1 2 1 0 1 0-1 1 0 1 0 1 0 3 0 1 0 1 0 1-2 1-1 1-2 2-2 1-2 1-2 1-2 1-2 1-2 1-3 1-2 0-1 0-2 1-2 0-4-1-1 0-1 0 0-1 0 0 0-2 0-1 1 0-1-1 0-1 1-1 0-1 1-2 1 0 0-2 1-1 1-1 0-1 2 0 1-1 2-1 0 0 1 0 2-1 0 0 2-1 0 0 3-1 1 0 8 1 2 0 2 1 2"/>
<path d="M1235 -5275l 0-3 1-1 0-3 0 0 0-1 1 0-1 0 0 2 1 0 2 1 0 0 2 1 1 1 2 2 1 0 2 3 2 2 2 3 3 4 2 5 3 5"/>
<path d="M1679 -4398l 1 0-1 0 0 1-1 0 0 2 1 1 0 13 1 2 0 2 0 1 0 1 1 1 1 0 0 0 1 0 0 0 0 0 0-5 0-2 0-2-1-2-1-2 0-3-1-3-1-3-1-1 0-2-2-2-1-2 0-1-2-1 0-2-3-2-1 0-1-2 0-1-3-2 0-1-2 0 0-1 0-1-1 1-1 0 0-1 0 1-1 1 1 0-1 0 0 4 0 2 0 8-1 4 0 3 1 3 0 4 0 5 0 4 1 5 1 4"/>
<path d="M1297 -3983l 1 0-2 0 0 2 1-1 0-1 1 0 0 1 1 1 0 1 1 1 1 0 1 3 1 1 0 1 0 0 0 1 1 1 1 0 0 0 0 0 1 0 0-2 0 0 1 0-1 0 1-1 0-2 1 0 0-2 0-4 1-2 0-12-1-2 0-3-1-2-1-2 0-2-1-1-1-1-1-2 0-1 0 0 0-1 0 1-1 1-1 0 0 1-1 1-1 0-1 1 0 0-1 2 0 1-1 1-1 1-1 2-1 2 0 2 0 3 0 7 0 2 1 2 1 2 1 3 1 2 1 2"/>
<path d="M1686 -4035l-1 0 0 2-1 0 0 1-2 0 0-1 0 1 1 1 0 11-1 2 0 2 0 2 0 3-1 2 0 3-1 2-1 4 0 4-1 5"/>
<path d="M1309 -3481l 0-1 1 0 0 0 0 0 3 0 1 0 1-1 2 0 2-2 1-1 0-1 1-1 2-3 0-2 1-2 1-2 1-1 0-2 2-2 0-1 0-2 0-1 1-1 0-1-1-2 1 0-1-2 0 0-1 0-1-1-3 0 0-1-1 1-1 0-1 1 0 0-1 1-1 1 0 1-1 1 0 1-1 1 0 2 1 2 0 10 8 0 3-1 2-1"/>
<path d="M6062 -4667l 0-1-1 0-1-1-1 0-1-1-1-1-1 0 0 1 1 1 0 1 1 0 0 1 0 1 1 1 1 1 1 2 1 1 6 7 2 1 1 1 0 1 0 0 1 0 1 1 0 1 1 0"/>
<path d="M5722 -4256l 0-1 0 2-1 0 0 1 1 1 0 1 1 1 1 1 2 3 0 1 2 2"/>
<path d="M6365 -4214l-1-1 0 0-1 1-2 0 0 1-1 0 1 0 0 1 0 1 0 1 3 2 0 1 1 0 1 2 0 0 1 2 1 2"/>
<path d="M6049 -3814l-1-1-1 0-2 0-1-1-1 0-2-1-1-1 0 0 0 1 1 0 1 1 1 0 1 1 1 0 2 0"/>
<path d="M6368 -4588l-1 1-2 0-1 1-3 3-2 1-1 2-1 1 0 2"/>
<path d="M6056 -4283l-2 0-1 1-2 0 0 0 1 0 0 1 1 1 1-1 1 2 2 2 2 1 3 2 2 2 3 3"/>
<path d="M6326 -3874l 0-1-2 0-2 0 0 0-2-1 0 0 0-2 1 0 1-1 1-1"/>
<path d="M6650 -4216l-1 0 0 1-2 0-1 0 0 0-2 1 0 2 0 2 2 2 1 3"/>
<path d="M6669 -4629l-1 0 0 1 0 0-1 0-1 0 0 1 0-1 1 0 1 0 0-1 1 0"/>
<path d="M7234 -5152l-1-1-1-1-2 0-2-1-4 0-1-1-1 0 0 1 1 0 0 1 2 0 3 1 2 0 3 1 2 1 4 1 4 1 5 1 6 1 6 1 7 2 7 1 8 2 8 2 8 2 10 2 9 2 10 2 11 1 10 2 12 2 13 0 13 1 14 1 15 1 44 0 15 0 15-1 15-1 16-1 16 0 17-1 16-1 16 0 18-2 16-1 18-1 18-1 18-1 17-1 18-1 19 0 17-1 17-1 18-1 18-1 18-1 17 0 16 0 17 0 45 0 14-1 14 0 12 1 13-1 11 1 11 0 10 2 9 0 9 1 7 0 13 2 5 0 5 0 5 1 3 0 4 1 2 0 2 1 1 1 1 0 1 1 0-1 0 1-1-1-1 0-2-1-1 0-2-1-2-1-3-2-5-1"/>
<path d="M7400 -5437l 1 0 0-1 0 0 0 0 1 0 1-1 1 0 0-1 2 0 1-1 2 0 2 0 3-1 4-1 3 0 4-1 4-1 5-1 10 0 7 1 5 2 7 0 7 2 7 2 8 1 9 2 8 2 9 2 10 2 9 2 9 2 10 1 9 2 9 2 10 1 9 2 9 0 9 2 9 2 8 1 9 2 8 1 14 2 23 0 4-1 5 0 4-1 4-1 7-1 3-1 6-1 2-1 1-1 3 0 1-1 2-1 2 0 1 0 1-1 2-1 1 0 2-1 1 0 2 0 1-1 1-1 2 0"/>
<path d="M7438 -4896l 1-1 0 1 3 0 2-1 1 0 3 0 3-1 3 0 3-1 5 0 5-1 5 0 5 0 11 0 6-1 52 0 8 1 23 0 7 1 30 0 8 1 7-1 32 0 5-1 4 0 4 0 13-2 4-2 3-1 3-1 4-1 3 0 3-1 2-2 3 0 2-1 2 0 2-1 1 0 3 0 1 0 1 0 2 0 5 0 1-1 4 0"/>
<path d="M7912 -5419l 0-1-1 0-1 0-1 0-1-1 0 0 0-1 0 2 0 0 0-1 1-1 2 0 2-1 2 0 2 2 3 0 3 1 4 1 4 0 4 1 10 1 3 0 6 1 6 0 6 1 12 0 7-1 7 1 36 0 7-1 8 1 8-2 7 0 7-1 7 1 7-1 7 0 7 0 20 0 8-1 22 0 8-1 7 0 8 0 17-2 8 0 9-1 8 0 9 0 9 0 18 0 9-1 9-1 9 0 10 0 9-1 28 0 9 1 9-1 9 1 8 0 7 1 8 0 14 1 7 0 7 0 6 0 31 0 5 0 6 0 6 1 6 1 5 1 5 0 5 0 5 2 4 0 5 1 3 2 5 0 4 1 4 1 4 1 3 1 5 1 3 0 3 1 4 1 3 2 3 1 4 0 3 1 2 1 2 1 12 0 1-1 3 0 2 0 1 0 2-1 2-1 2 0 1-1 2-2 1 0 2-1 0-1 0-1 1 0 0-2"/>
<path d="M8150 -5132l 1-1 0 0 1 0 1 0 1-1 1-1 1 0 2-1 2 0 2-1 2 0 2-1 2 0 3-1 2-1 3-1 2 0 3 0 3-1 2-1 7 0 3 0 6 0 4 0 13 0 3 1 7 0 3 1 7 0 3 1 7 0 3 1 4-1 3 1 7 0 3-2 10 0 3 1 3-1 2 0 8 0 2 1 4 0 2 1 1-1 2 1 1-1 2 0 0-1 3 0 1 0 3 0 0-1 1 0 2-1 0 0 1 0 1 0 2-1 1-1"/>
<path d="M8086 -5695l 0-1-1 0 3 0 1 1 1 0 1 1 1 0 1 0 6 3 1 2 2 0 5 2 3 1 2 0 4 2 4 0 3 1 4 1 5 1 4 2 4 1 5 2 5 0 4 2 5 0 6 1 5 2 5-1 5 1 6 1 6 1 5 0 6 1 5 0 5 1 5 1 5 1 4 1 5 0 4 1 4 2 3 0 4 2 3 0 4 1 3 1 4 0 3 1 6 0 3 0 3 0 7 0 3-1 2 0 2-1 3-1 3 0"/>
<path d="M6670 -4636l 0-1-3 0 1 0 0 0 1 0 0 0 0-1 0 2 0-1 0 0 1 1 1 0 0 1 2 0 1 0 2 2 2 1 1 0 2 1 3 1 2 0 3 1 2 2 3 0 3 0 3 1 3 1 3 0 3 2 2 0 3 1 3 0 3 1 4 1 2 0 4 0 3 1 7 2 3 0 3 0 3 0 3 1 7 1 3 1 4 0 3 2 4 1 3 1 10 0 4 0 8 0 3 1 8 0 4 1 23 0 4 1 17 0 4 0 19 0 4 0 3 0 4-1 4-1 4 0 5-1 3 0 4 0 18 0 4-1 3 0 5-1 40 0 3 1 17 0 3 1 7 0 3-1 10 0 2-1 3 1 2 0 3 1 9 0 3-1 2 1 11 0 2 0 6 0 2 1 2 0 3-1 17 0 2 2 18 0 2 1 5 0 2 0 29 0 2 1 3-1 22 0 2 0 12 0 2-1 2 1 2 0 3-1 1 0 2 1 2-1 10 0 2 1 3 0 4 0 3 0 13 0 3-1 2 1 5 0 2-1 6 0 2-2 3 0 3 0 3 0 2 0 8 0 3 1 7 0 3-1 2 1 8 0 3 1 2 1 3 0 2 0 3 0 2 0 3 0 14 0 3 1 2 0 2 1 5 0 2 0 9 0 3 1 1-1 2 1 4 0 3 2 2 0 2 1 2 0 2 1 2 0 3 0 3 1 2-1 3 1 3 0 3 1 2 1 5 0 2 0 3 0 3 1 2 0 3 1 2 0 3 1 2 1 2 0 2 1 2 0 2 0 3 1 2 1 2 0 2 0 3 1 2 0 2 1 2 0 3 1 2 0 3 2 2 0 2 1 3 0 2 1 3 1 2 0 2 1 4 0 3 1 1 1 3 1 2 1 2 0 2 1 2 1 2 0 2 0 3 1 2 2 2 0 2 1 2 1 2 1 2 1 3 1 2 0 3 1 2 1 2 1 2 1 2 0 2 1 2 0 3 0 2 1 1 1 2 0 2 0 3 0 2 1 2 1 2 0 2 1 3 0 2 1 2 0 2 1 3-1 2 1 8 0 2 0 10 0 2 1 7 0 2-1 6 0 1-2 2 0 1 0 1 0 1 0 0 0 0 1"/>
<path d="M6911 -4279l 0-1 2 0 2-3 2 1 1-1 2 0 2-1 3-1 2-1 3-2 3 0 4-1 3-1 3-1 4-2 7-1 4 1 4-2 4-1 4-1 5-1 4 0 4-1 10-1 4-1 5-2 10 0 10-1 5 0 4-1 10 0 5-1 4-1 5 0 5-1 5 0 5 0 4-1 4 0 9-1 4 0 4-1 5 0 3-1 4-1 4 0 4-1 4 0 3-1 4 0 4 0 3 0 4-1 3 0 3 1 4 0 3 0 6 0 4 1 2 0 3 1 5 0 2 0 6 0 2 1 7 0 3 1 2 1 9 0 1 0 5 0 2 1 1 0 2 1 1 1 4 0 3 1 4 0 1-1 4 0 1 1 11 0 1 1 2 0 1 1 2 0 1-1 0 0-1 0 0-1 0 0"/>
<path d="M6888 -4924l 0 0-1 0 0 1 0 0 0-1 1 0 0-1 4 0 2 1 3 0 2 1 6 0 3 0 12 0 4 1 12 0 8 2 5 0 5 0 3 1 5 1 4 0 8 2 5 0 4 1 4 0 4 0 4 1 5 1 4 0 9 2 4 0 4 1 4 0 4 0 11 0 4 1 4 1 8 0 3-1 5 0 4 1 12 0 4-1 4 0 4 1 4-1 4 0 4-1 11 0 4 1 8 0 3 1 4 0 10 0 4-1 3 0 3 1 9 0 3 0 4 0 2 1 7 0 2-1 8 0 1 0 2 0 2-1 5 0 1-1 4 0 2 0 3 0 1-1 2 1 0 0 2 0 1 1"/>
<path d="M6603 -3924l-1 0 0-1 1-1 1 0 0-1 1 0 2-1 14 0 1 1 3 0 2 1 2 0 3 1 2 0 3 0 2 0 3 1 3 1 3 0 7 1 4 1 3 0 5 1 3 0 4 0 5 1 5-1 18 0 6 0 16 0 5-1 5 0 5-1 5 0 5-1 5 0 5 0 15 0 5-1 5-1 5 0 5 0 5 0 5-1 5 0 5-1 10 0 5 1 4 0 4 1 7 0 4 0 4 1 2 0 3 1 4 0 3 1 3 2 2 0 3 0 5 0 3 1 3 0 2 1 2-1 3 0 2-1 2 0 3 1 2 0 1-1 7 0 1 1 6 0 3 1 5 0 1 0 3 0 1-1 3 0 2 1 5 0 0-1 2 0 0 1 4 0 1 0 0 0 1 0 1 0 6 0 0 1 1 0 1 1 0 1"/>
<path d="M5189 -3209l 1 0 0-1 0 0 0-1 0 1 0 0 0 1-1 1 0 0-1 1 0 1 0 1-1 0-2 2-1 1-2 3-3 3-3 3-3 3-4 5-4 5-3 5-4 5-5 5-8 11-5 5-4 6-5 6-6 6-5 6-12 12-5 6-6 7-7 6-5 7-7 7-5 7-7 8-6 7-6 7-6 7-7 8-6 6-7 8-6 7-7 7-6 7-6 7-7 7-6 7-6 7-5 6-6 7-5 5-5 7-4 5-4 5-5 6-8 10-4 5-3 6-4 4-2 4-4 3-2 5-3 3-3 3-3 4-3 2-3 3-2 2-2 3-2 2-2 3-2 2-1 3-2 1 0 3-2 1 0 1-1 1-1 0-1 0 0 1 0-1 0 1 0 0 0-1 0 0 0-1 1 0 0 1 0 0 1 0 0 0 0 0-1 0 0-1 0 1 0-1 1 1-1 0 0-1 1 0 0 1 0-1-1 0 1 0 0 1 0-2 0 1 1 0-1 0 0-1 0 1 1 0 0-1 0 1-1 0 1 0 0-1-1 1-1 0 1 0 0 1 1 0 0 2 1 1 1 2"/>
<path d="M7551 -12011l-1-1-2-1-1-1-2-2-2-1-1-1-2-1 0-1-2 0 0 1 1 0 0 1 1 1 0 0 2 2 1 2"/>
<path d="M8081 -12043l 0-1-1 0 0 0 0 1 0-1 0 1 1 1 1 0 0 1 2 1 1 1 1 3 2 2 2 2"/>
<path d="M7531 -11351l 0-1-1 0 0 0 0 0 2 0 2 0 2 1 3 1 8 1 5 1 5 1 6 0"/>
<path d="M8088 -11312l 1 0-1 0 1 1 1 2 2 1 2 3 2 2 3 3 3 2"/>
<path d="M8091 -12063l-2 0-2 1-3 2-4 2-4 3-5 4-4 5-5 4-5 6-4 6-5 8-5 7-5 9-6 8-6 10-7 11-8 11-9 13-10 13-10 15-12 16-13 18-14 19-13 20-17 21-18 23-19 24-20 27-21 25-22 28-47 58-24 30-25 31-24 30-50 61-24 30-24 30-24 28-23 28-23 27-20 27-21 26-20 23-19 23-18 22-16 21-16 19-14 17-13 17-11 13-10 13-7 10-7 8-4 8-4 4-2 3-1 1-1 0 0 0 1-2 1-2 2-4"/>
<path d="M7406 -12166l 0-1 0 2 1 1 0 2 2 2 1 3 3 4 4 5 4 6 4 7 6 8 6 8 7 9 7 10 7 11 9 12 9 12 9 13 10 14 12 13 12 15 12 15 14 15 15 15 14 15 15 15 16 15 15 17 17 17 16 17 17 19 17 19 17 20 18 22 18 22 18 22 19 24 19 24 19 25 20 26 19 26 18 27 19 26 19 27 19 26 18 26 18 26 17 25 18 25 17 23 18 24 18 23 17 23 16 23 17 21 17 21 15 21 16 20 15 20 15 19 14 19 15 18 13 17 14 17 12 16 13 15 11 14 11 13 11 12 10 11 9 10 8 9 8 8 5 6 5 5 4 4 3 5 3 2 1 3 1 0 1 2 0 1-1-1 0-2-1 0-1-2-2-2"/>
<path d="M8613 -9805l-1-2-1-2-6-5 1 0 0-1 1 0 2 1 4 0 3 0 3 2 4 1 4 2 5 1 6 3"/>
<path d="M9057 -9751l 1-1-2 2 0 0 0 1-1 0 1 0 0 1 0 0 0 1 1 0 1 1 1 1 2 1 1 2 1 2 3 1 2 2 2 2 1 2 3 1 2 2 2 2"/>
<path d="M9523 -9802l 1-1 0-1 0-2 0-2 1 0 0-2 0 1-1 0 0 1 0-1 0 1 0 0 0 2 0 1 0 1 1 1 0 1 2 1 0 2"/>
<path d="M10002 -9804l 0-1-1 0 0 0-1-1-1 0 0-1-1 0 0-1 0 0 0 0 0-1 0 1 0 0 1 0"/>
<path d="M8653 -9127l-1 0 0 1 3 3 2 1"/>
<path d="M8995 -9140l-11 0-2 1-1 0 0 1 1 1 1 1 2 2 2 2 2 2 4 2 4 2 5 2 6 2"/>
<path d="M9455 -9176l 0-1 0 2 1 0 0-2 0 1 0 0 1 1 1 1 1 2 2 0 1 2 2 1 2 1 3 1 2 2 3 0 2 1 4 2 3 1"/>
<path d="M9876 -9132l 2-1 4 0 6-1 4-1 5-1 5-1 4 0 4-1 5 0 4-2 4-1 4-1 5 0 4-1 9 0 4 0 8 0 3 0 4 1 3 1 3 0 2 2 4 1 1 2 2 0 1 2 1 1 1 0 0 0 1 2-1 1"/>
<path d="M8519 -8693l-1-1 0-1 0-1 0-1 2 0 2 1 2 0 6 2 3 0 5 2 3 1 4 1"/>
<path d="M8971 -8637l-1 0-1 1-2 0 0 1 0 1 0 0 0-1 2 0 1 2 1 0 1 1 2 1 2 2 3 1 2 2 3 1"/>
<path d="M9482 -8667l-1 0-1-1-3 0-1 0-4 0 0-1-1 0 1 0 0-1 1 1 0 0 1 1 2 0 2 0 3 1 2 1 4 0 4 1"/>
<path d="M8458 -8078l-1-1 0-1-1-2-3-2 1 0 2 0 4 0 4 1"/>
<path d="M8916 -8076l-1 0-1 1-2 0-1-1-1 0 0-1 1 0 1 2 1 0 2 1 4 3 2 1 4 2 2 2 5 1 3 3 5 0"/>
<path d="M10020 -8084l 1-1 0 0 0 0 1-1 2 0 0-1 0 0 0 1 0 1 2-3 2 0 2-1"/>
<path d="M8903 -8027l 1 0 0-1 0 0 0 0 2-2 1 0 0-1 2 0 1-2 2 0 1-2 1-1 3-2 2-2 2-2 2-2 3-2 3-3 3-4 4-3 12-12 5-5 6-5 5-5 7-7 6-6 7-7 16-16 9-9 17-18 31-31 10-11 11-11 11-12 11-12 12-12 11-11 11-12 13-13 12-11 12-13 26-24 12-11 12-12 11-13 12-13 11-12 11-12 9-13 10-11 9-12 9-12 9-12 8-11 9-12 8-11 7-12 8-10 7-10 13-20 5-9 6-9 5-8 5-8 5-8 4-7 4-6 4-6 3-5 4-4 2-4 3-2 2-3 4-4 2-1 1-1 1-1 0-2 1 0 1 0 0-1 0 0 0-1 0 2 0-1 1 0 0 1 2 0 1 0 1 1 3 2 2 1 3 1 3 3 4 2 3 2 5 3 4 3 5 4 5 4 5 4 6 6 5 6 6 7 6 6 7 8 7 8 6 8 8 8 7 8 8 9 7 9 8 7 7 10 14 17 8 9 7 9 7 9 7 9 7 9 8 9 7 9 8 8 7 8 8 8 8 8 8 8 8 8 7 7 7 7 7 7 7 6 6 7 7 7 5 6 6 6 6 7 5 6 5 6 6 6 5 7 5 6 4 7 5 7 4 7 4 6 5 7 3 7 4 5 4 7 4 6 2 6 4 6 4 6 3 7 4 5 4 7 3 6 3 6 4 5 4 5 2 5 4 4 3 5 3 5 3 4 2 5 4 5 3 5 3 6 3 5 4 6 3 5 4 5 4 5 3 4 4 6 3 4 4 4 3 5 4 5 4 3 2 5 3 3 4 3 3 3 3 3 4 4 3 2 2 2 1 2 2 1 4 4 1 0 1 1 1 2 1 0 0 0 1 0 0-2-1 1-2-2-1-1-2-1-2-2"/>
<path d="M8442 -8145l 3-2 3-2 5-2 4-3 6-4 5-3 5-4 6-4 5-2 6-4 5-4 6-4 5-4 7-4 5-5 7-5 6-5 7-5 6-4 7-4 6-5 7-5 7-5 7-5 6-5 7-5 7-5 15-11 8-5 7-6 8-5 7-5 8-6 8-7 8-5 8-5 8-7 7-5 7-7 8-6 7-6 8-7 8-6 8-6 7-6 8-7 8-7 8-7 9-7 7-7 8-8 7-6 7-7 6-7 7-5 5-6 7-5 17-17 6-5 5-5 5-6 20-21 5-5 5-4 4-5 4-4 4-3 7-7 2-4 3-3 3-2 8-9 3 0 2-2 1-2 2-1 2-1 3-3 0-1 2 0 0-2 1 0 2-2 1 0 1-1 0 0 1-1 1 0 1-1 0 0 2 0 0-1 2-1 3 0 1-1 2 0 2 0 1 0"/>
<path d="M10004 -8640l 0-1-1 0 0 0-1-1-2 0 0-1-1 0-1-1 0 0-1 0-1-1-1-1-1 0-4-5-1-1-1-2-1-1"/>
<path d="M8919 -8582l 1-1-1 0 0 0-1 0 1-1 1 1 0 0 1 0 2 2 1 0 4 2 2 1 3 0 2 1 3 1 2 2 3 1 3 2 3 2 4 2 4 3 3 3 5 3 4 3 5 4 5 4 5 4 5 4 5 4 6 4 5 4 6 5 7 4 6 5 6 5 7 5 7 5 6 4 8 6 5 4 7 4 7 4 7 5 7 5 7 5 7 5 6 5 7 5 6 6 6 5 7 6 6 6 6 5 6 5 7 5 6 7 6 6 6 7 7 6 6 7 7 8 6 7 14 16 7 8 7 7 6 7 6 8 7 6 5 7 7 7 5 6 6 6 6 6 6 5 5 5 5 6 10 10 5 4 5 4 5 4 5 5 5 4 5 3 5 5 4 4 5 4 5 5 6 5 5 5 5 4 5 6 6 5 6 5 5 5 7 5 6 5 5 6 6 5 6 6 7 5 6 6 7 7 5 5 7 5 6 6 5 5 5 5 6 4 5 4 5 3 5 4 4 4 5 3 4 4 4 3 4 3 14 14 4 3 3 5 4 3 3 4 4 3 3 4 3 3 2 3 5 5 3 2 2 3 1 2 2 2 1 1 1 2 2 1 1 2 2 2 0 1 0 0 0-3"/>
<path d="M8570 -9826l 1-1-1 0 1 1 0 1 1 1 2 2 2 3 3 4 2 4 3 6 5 6 4 8 4 9 6 10 6 10 7 12 8 13 8 13 9 14 8 15 9 15 8 16 10 16 8 16 10 17 9 15 10 17 9 16 11 15 10 15 11 15 10 13 10 14 11 13 10 13 11 14 10 13 8 14 10 14 9 15 9 14 9 15 9 16 9 15 8 16 9 15 8 14 7 14 8 15 8 13 14 24 7 10 7 11 7 10 7 9 6 8 6 8 6 8 6 7 6 7 5 5 5 6 13 14 4 3 5 3 3 2 2 2 3 1 3 2 5 0 3-2 1-1 2-1 2-2 1-2 3-4 2-3 3-5 4-5 3-8 4-7 4-9 4-9 4-10 5-10 5-10 4-11 5-10 5-11 5-13 5-12 5-13 5-13 5-14 5-13 6-14 6-13 6-14 6-14 7-13 7-15 7-14 8-13 7-13 8-13 8-12 8-14 8-12 8-11 8-13 14-24 7-13 7-12 7-11 7-12 7-12 13-23 5-11 7-11 6-9 6-10 6-8 5-8 6-8 5-7 5-6 5-7 4-5 4-5 3-5 3-5 3-4 3-4 3-4 3-3 3-3 3-4 2-3 3-3 2-3 3-3 2-2 3-2 2-2 2 0 2-2 3-2 2-2 3-2 2-2 2-1 3-1 2-1"/>
<path d="M9079 -9718l 1 0 0 1 1 0 2 2 2 2 3 2 3 3 4 4 4 3 5 4 16 16 6 6 6 7 6 7 15 16 6 9 8 9 7 10 7 11 8 11 9 11 7 13 9 12 9 12 7 13 9 12 16 24 8 11 7 12 8 11 14 22 7 10 8 10 7 9 7 10 8 9 7 9 7 8 7 8 8 9 6 9 7 8 7 10 6 9 6 10 6 10 7 10 5 10 7 10 5 9 6 9 6 9 6 9 5 8 5 8 5 7 4 6 3 6 5 5 3 4 4 4 3 3 3 3 2 3 3 1 2 1 1 0 2 0 1 0 1-2 3-3 2-3 2-4 3-5 3-7 5-8 4-10 5-10 5-12 6-12 5-14 5-15 6-15 6-15 5-16 7-16 6-15 6-16 6-15 8-16 7-16 7-15 8-15 7-16 8-15 8-14 8-16 9-16 9-15 9-15 10-16 9-15 8-15 10-15 9-15 9-14 10-16 8-14 9-15 8-14 10-15 8-15 9-15 8-15 7-14 8-14 7-13 8-10 6-12 6-10 6-9 5-8 6-8 4-7 4-6 4-6 3-4 3-5 2-3 3-3 1-4 2-2 1-1 1-2 1-1 3-3 1 0 0-1 1 0 1 1 3 0"/>
<path d="M8530 -7249l-1-1-2 0-1 0-2 0-3-1-2-1-5-1-1-1-2-1-1-1-1-1-1-1-1-1 0-1-1 0 0 0 1-1 1 1 8 0 3-1 4 1 4 0 6-1 6-1 6-1"/>
<path d="M8943 -7254l-1-1-2 1-2 0-2 1-2 1-3 1-3 1-1 0-3 1-1 1-1 1-2 1-1 1-1 0-1 1-2 1-1 2 0 1-1 1-1 1 0 3 0 1 0 1 0 0 1 2 1 1 0 1 1 1 4 2 3 1 2 1 4-1"/>
<path d="M9358 -7274l 1 0-1 0 0 1-1 1 0 1 2 1 0 1 2 1 3 3 2 2 1 1 2 1 2 1 1 2 2 1 3 1 2 1 3 2 2 1"/>
<path d="M9742 -7224l-1 0 0-1 0 0-1 0 0-1 0 1-1 0 0 1 1 1 0 1 1 1 0 1 0 1 0 1 1 1 0 2 1 0"/>
<path d="M8354 -6587l 0-1-2 0-1-1-1 0 0-1 0 0 18 0 4-1 5 0 4 0"/>
<path d="M8402 -3468l-1-1-1 0-1-1-1-1-2-1 0-1-2-1-1 0 0-1 0-1 0-1-1 0 0-2 0 1 1 0-1 1 0 0 1 0 3 2 3 1 3 0 4 2"/>
<path d="M9066 -3449l-1-1-4-1-2-2-3 0-2-2-3 0-1-2-2-1-1-1-1-1-1 0 0-1 0-1-1-1 1 0 0 1 1 1 1 1 0 1"/>
<path d="M9479 -3450l-1 0 0-1-2 0-3-1 0-1-2 0-1-1-1-1-1 0 1 0 0-1 1 0 1 2 2 0 1 0 1 2"/>
<path d="M10013 -3485l-1-1 1 0 0 1-1 0 0 4 0 1 0 1 0 8"/>
<path d="M8901 -2891l-1 0 0-1-2 0 1 0 1 0 1 0 0-1 1 0 1-1 1 0 3-1 2-1 1-1 2 0 3-3"/>
<path d="M9346 -2367l 1 1 0 0 0 0 1 0 1 1 1 1 0 0 1 1 1 0 0 0 0 2 0-1 0 1 1 0 0 1 0-1 0 0 1 1 1 1 0 1 0 1 1 0 0 3"/>
<path d="M9703 -1954l 1 0 0 1 1 0 1 1 1 0 2 2 0 1 1 1 1 0 1 0 0 2 0 1 1 1 0 1 1 0 0 1 0 1 0 1 0-1 1 1 0 0 1 1 0 1 1 1 0 2 0 1 0 1 1 2 0 1 1 1 0 1 0 1 0 2 2 1 1 1 1 0 1 0"/>
<path d="M8251 -2913l-1-1 0 0-1 1-2 1 0 0-1 0-1 1 0 1-2 1 0 1-1 1 0 3 0 2 0 6 0 2 0 1 1 1 1 2 1 1 0 2 0 1 1 4 1 1 2 2 1 0 0 2 2 0 0 1 2-3 1 1 1 0 1 1 1 0 7 0 1 0 3-2 1-1 1-1 1-1 1-2 0 0 1-1 0-1-1-1 0-1-1-1 0-1-1-2-1-1-1-1-2-1-1-2-1-1-3-1-1-2-2-1-3-2-2 0-5 0-2 0-2 1-1 1-2 2-1 1-1 2-2 3-1 2-1 3-1 5-1 3-1 4-1 3 0 4 0 3 0 7 0 2 0 3 2 2 1 2 1 2 1 2 2 1 1 2 2 0 2 0 2 1 6 0 2-1 3 0 1-1 3-2 2-1 4-3 2-2 2-2 1-2 2-2 1-3 0-2 1-3 0-2-1-2 0-3-1-2-2-2-1-3-2-2-2-3-2-2-3-2-2-2-3-2-2-1-3-1-2-1-5 0-3 1 0 2-2 1 0 2 0 5 0 4 1 5"/>
<path d="M9125 -1845l 0-1 0 1-1 1 0 1-1 1-1 1 0 2-1 2 0 2 0 1-1 3 0 2-1 2 0 2 0 2 0 4-1 1 0 2-1 2 0 3-1 0 0 2 1 0 0 3 1 1 0 1 1 0 0 2 0 1 0 2 1 0 1 0 0 2 1 1 1 1 1 1 2 1 0 1 1 1 1 0 0 1 1 0 0 1 2 0 1-1 0-3-1-1 0-2 0-1 0-2-1-1-1-1 0-2-2-3-1-1-2-2-1 0-1-2-1 0-2-1-1-1-2-1-2 0-1 0-2-1-2 1-3 0-2 0-2 0-3 2-2 1-1 1-2 1-2 2-1 1-2 2 0 2-1 2-2 2 0 2 0 2-1 2-1 2 0 11 1 1 1 1 0 1 1 1 1 1 1 0 2 2 1 0 2 1 2 0 2 0 7 0 3 0 3-1 3 0 2-2 3 0 3-1 3-1 3-1 2-2 3-1 2-2 2-2 1-1 2-2 1-2 2-3 1-2 2-2 0-1 1-2 0 0 1-2 0-1-1-1 0-1-1-1-1-1-1-1-1-2-2 0 0-2-2 0 0 0-2-1-2 0-1 1-1 0-2 2-1 1-1 1-1 1-1 0-1 2 0 2-1 1 0 3 1 2 0 3 0 2 2 2 1 2 1 1 1 1 1 1 2 2 1 1 1 1 3 2 2 2 1 0 2 1 2 1 2 0 1 1 11 0 1-1 5-2 1-1 2-2 0-1 1-1 1 0 0-1 0-1 1-1 0-2-1 0 0-1 0-1 0-1-1-2-1-1-1-2-1-1-1-1 0-1-1-1-1 0 0-1-1 0 0 1-1 1 0 1-1 1 0 1 0 1 0 2-1 1 0 11 1 2 0 1 0 2 1 2 1 2 1 1 0 1 2 1 2 2 2 1 1 0 3 1 2 2 4 1 3 1 3 0 2 1 3 1 3 0 2 1 4 0 3 0 3 0 4 0"/>
<path d="M5513 -1964l-2-5-4-6-3-7-5-8-4-10-4-10-4-11-2-9-2-9-1-9-1-7-1-8-1-7 0-37 1-2 0-8 1-1 0-1 1 0 2 1 1 1 2 2 2 2 3 2 5 3 3 4 5 5 4 6 5 7 5 7 4 9 5 10 4 10 3 12 4 12 4 12 3 12 3 12 3 12 2 13 3 12 5 23 1 11 2 11 2 10 0 10 1 8 0 30-1 5 0 11 0-3-1-2-1-4-1-5-2-5-2-8-2-9-1-11-2-13-1-13 0-28 1-15 2-15 2-15 3-13 2-14 3-13 4-11 4-12 4-10 4-10 4-9 4-8 4-8 4-5 3-7 5-7 3-4 7-10 4-4 3-5 3-5 3-3 4-2 3-2 2-1 3-1 2-1 3 0 3 1 3 1 4 1 3 2 4 3 4 4 3 5 4 4 4 6 4 5 4 7 4 7 3 6 4 7 4 8 2 7 3 8 3 7 2 8 2 8 2 9 2 9 1 8 2 9 1 9 2 9 2 9 1 8 2 9 2 8 1 8 2 8 3 7 2 7 1 8 2 6 2 6 3 6 2 4 2 5 2 3 2 2 2 3 2 1 3 0 2-1 2-2 3-3 2-3"/>
<path d="M5788 -2374l 0-1 1 0 0-1 2-1 3-3 8-5 4-3 4-2 4-3 5-3 9-4 4-1 3-1 3-1 7 0 2 0 2 1 1 2 1 2 1 2 0 2 0 11-1 4-1 5-2 6-2 7-3 8-4 8-3 8-4 9-4 10-4 9-5 9-4 8-4 9-4 8-3 7-3 5-2 6-2 4-2 5-1 5 0 3-1 2 0 3 1 2 1 3 2 1 2 1 2 0 3 0 4 0 4-1 5 1 5-2 7-1 6-2 7-2 7-2 8-3 8-4 8-4 9-5 7-5 18-10 8-5 26-13 8-4 9-3 8-3"/>
<path d="M1108 4945l-2-2-4-2-5-2-5-2-5-1-6-2-6 0-10 5-5 4-5 3-6 6-5 7-6 7-11 18-6 10-6 10-5 10-5 10-5 11-3 11-4 9-3 10-1 9-2 8-2 8-1 8 0 6-1 5 0 5 1 4 0 3 2 3 1 2 2 0 2 2 3 1 2 0 3-1 6-2 4-2 5-3 4-3 5-4 6-5 5-5 5-5 7-7 4-6 5-7 4-6 5-7 4-6 4-6 3-7 4-6 3-6 2-6 3-5 2-4 1-3 1-3 0-3-1 1-1 1 0 1 0 0 0 2-2 5 0 4-1 4-1 5-1 5-1 5-1 5 0 5 0 5 0 4 0 5 0 4 1 5 1 4 2 4 1 4 1 4 2 4 2 4 2 4 3 4 2 3 3 4 4 4 3 4 3 2 3 3 3 3 3 2 3 3 4 2 4 2 3 0 4 1 9 0 5-1 5-2"/>
<path d="M1329 4978l 0-4-1-2 0-4 0-4-1-3-1-4 0-5-1-3 0-5 0-4-1-4-1-4 0-3-2-4-1-3-2-3-1-2-2-3-2-2-3-3-3-2-2-2-3-1-3-1-4-1-3 0-4 1-4 1-4 3-5 2-4 4-5 5-5 6-5 8-6 7-5 10-5 10-5 10-3 10-4 11-4 11-3 10-2 11-3 18 0 17 2 8 1 7 2 5 2 6 3 4 4 4 3 3 10 3 5-1 7-1 5-3 7-3 7-5 7-5 7-7 7-8 8-8 7-10 7-11 7-11 6-12 7-13 6-12 6-14 4-14 5-12 4-14 3-15 3-14 2-15 1-16 2-16 0-17 0-34-1-18-2-17-1-18-1-19-2-17-2-18-2-19-1-9-1-9-1-10-1-11-1-10-1-11-1-10-1-11 0-10-1-10-1-8-1-8-1-8 0-8-1-6-1-7 0-5-1-4-1-2-1-1-1 0-1 2-3 4-2 5-3 13-5 16-5 19-5 22-5 24-4 26-3 26-3 23-2 25-2 26-2 26-1 28-1 26-1 27 0 54 1 25 1 25 2 23 2 22 3 22 4 18 4 18 5 15 5 13 6 12 6 11 6 9 7 7 6 8 7 5 7 4 7 2 7 1 7-1"/>
<path d="M1543 4972l-1-2-3-2-2-1-2-2-3-2-3-2-4-1-3-2-8 0-4 0-3 0-3 1-2 2-5 1-3 1-5 3-5 2-4 4-5 4-5 5-5 5-6 5-5 6-4 6-5 8-8 16-3 8-4 8-3 8-2 8-2 8-1 8-1 8-1 8 2 14 1 6 1 5 3 5 1 4 3 3 3 3 3 1 5 1 5 0 5 0 6-1 6-2 7-4 7-3 8-5 8-6 8-7 8-9 8-9 8-10 7-11 8-13 7-12 7-13 7-14 6-14 5-15 6-16 4-15 4-16 5-15 3-17 2-15 2-16 3-17 0-17 0-18 0-17-2-17-1-18-2-19-3-18-3-18-7-38-5-18-2-9-2-11-2-10-3-10-2-9-3-10-2-9-3-9-3-8-3-7-2-7-3-7-2-5-3-5-2-3-3-3-3-2-3 0-3 1-3 2-3 4-3 5-7 13-5 14-6 18-5 20-4 22-4 23-3 24 0 24 0 25 0 25 1 26 2 28 2 27 3 28 4 28 3 28 5 27 4 25 4 25 4 25 6 23 5 22 6 20 6 20 7 18 6 15 8 15 8 12 8 12 10 10 9 8 10 8 11 5 13 5 12 2 14 2 15-1 14-2"/>
<path d="M1744 5098l-1-1-2-1-2-1-1-1-3-1-2-1-1 0-2-2 0 0 0-1 0 0 0 0 1 0 1-1 1-1 2-1 3-2 3-3 4-4 5-3 5-5 6-6 7-7 7-8 8-8 8-9 7-9 8-10 7-10 7-10 7-10 6-8 5-10 5-8 3-8 4-7 3-7 2-7 2-5 2-5 1-5 1-5 0-11-1-3 0-3-1-2-1-1-3-3-2 0-2 2-1 1-1 2-1 2 0 3 0 3-1 5-1 3 0 9 2 5 0 5 2 5 1 4 3 5 3 5 3 4 3 5 4 5 4 5 4 5 4 4 4 5 4 4 4 5 4 4 3 5 3 5 2 4 2 4 2 4 1 4 1 4 1 5-1 3-1 5-2 5-1 5-3 4-3 5-4 5-4 4-4 4-4 4-5 4-10 7-5 3-5 2-5 2-5 1-13 0-5-1-5-1-10-3-4-1-4-2-3-1-4-1-2-1-2-1-1-1-1 0 0-1-1-1 1 0 1 0 2 0 2-1 3-1 3 0 8-1 6-1 9-1 9-1 10-2 11-2 13-2 14-2 14-2 15-4 16-3"/>
<path d="M2535 4887l-1 0 0 4 1 2 0 7 1 5 0 6 0 6 0 35-1 20-1 11-1 21-1 10-1 10 0 9-2 9 0 9-1 7-1 7-1 6 0 5 0 4-2 3 0 3 0 2-1 2 0 2 1-1 0-2-1-3 0-13 1-7 1-10 1-10 2-10 2-12 2-13 3-13 4-13 3-13 3-12 4-11 3-11 4-10 3-10 4-7 3-8 3-6 4-6 3-6 4-5 4-4 4-5 3-3 5-4 3-3 9-5 5-1 5-2 5-1 5-1 6-2"/>
<path d="M2709 4948l 0 1 1 0 0 1 0 2 1 1 2 1 2 1 3 2 8 0 3-1 3-2 3-1 4-2 4-2 4-2 3-3 5-4 4-3 4-3 4-4 3-3 3-5 2-3 3-4 2-3 1-4 1-3 0-6-1-2-1-3-2-2-2-3-3-1-3-1-3-2-4-1-5-1-5-1-10 0-6 1-7 0-5 1-7 2-5 1-6 2-4 2-5 3-5 3-5 3-4 4-4 4-3 4-4 5-2 3-2 5-2 5-2 5 0 6-2 11 0 12 1 6 3 13 2 6 3 6 3 6 3 6 5 5 5 5 4 4 6 4 5 3 6 4 6 2 7 2 7 1 7 0 7 0 7-1 8-2 8-1 9-3 8-3 9-5 8-4 8-5 9-4 8-5"/>
<path d="M2869 4915l-1-1-9 0-2 2-2 2-2 2-1 2-2 4-2 3-1 5-1 4-1 5-1 5-1 5 0 20 0 4 1 4 1 3 1 3 2 4 1 2 1 3 2 1 1 2 1 1 1 1 3 0 2 1 2-1 2 0 2-2 4-1 3-3 4-3 4-3 4-5 5-6 4-6 9-13 4-6 3-7 4-7 4-5 3-6 3-5 2-4 2-4 2-4 1-2 2-1 1-2 1 0 0 1 1 1 1 1 1 2 1 2 1 2 1 4 2 3 0 4 1 4 1 4 0 5 2 5 1 4 0 5 1 3 1 5 2 3 1 4 2 3 2 3 1 2 2 1 2 2 2 1 2 1 2 0 2 1 6 0 3-1 3 0 3-1 3-2 4-2 3-2 4-3 4-3 5-3 5-4 5-5 4-5 5-5 4-5 4-6 5-6 4-4 4-5 3-4 3-3 3-4 2-2 2-2 2-1 2-2 2-1 1-1 3-1 3 0 1 0 1 1 1 1 1 2 2 2 1 3 2 3 1 3 1 4 3 3 2 9 3 4 1 5 2 5 2 5 2 5 2 6 2 5 2 5 2 5 3 5 3 4 4 5 3 3 4 4 5 3"/>
<path d="M3733 4903l 2-2 2-2 1-4 2-3 3-5 4-5 3-6 3-6 3-6 3-7 3-7 3-7 3-7 1-8 3-8 2-7 1-7 2-7 0-7 1-7 0-6-1-6 0-6-2-5-1-5-2-6-3-4-3-5-4-4-3-4-5-3-4-3-8-4-5-2-5 0-5 0-6 0-7 2-6 1-7 4-7 4-7 6-9 7-9 8-8 9-9 11-9 12-9 13-7 13-9 14-8 14-7 15-6 15-6 14-6 14-3 14-4 12-3 12-2 11-1 11-1 9 1 9 0 8 1 6 2 5 3 5 3 4 3 3 5 2 4 1 5 2 11-2 8-1 7-2 8-3 7-5 9-5 9-5 8-6 8-7 9-7 7-8 9-7 9-7 7-8 8-7 8-7 14-14 7-6 6-6 5-6 5-5 4-5 3-5 3-4 2-2 0-3 1-2 0-3-1 0 0 0 0 0-1 1 0 1-1 1-1 2-1 2-1 3-1 4-1 4 0 6-2 7-1 7 0 24 1 8 0 10 2 8 0 8 2 9 1 8 2 9 2 8 2 7 3 6 2 7 3 6 3 7 3 5 4 5 3 6 5 5 3 5 4 4 5 5 5 3 5 3 5 4"/>
<path d="M905 5918l 0-1 1 0 0-1 1-1 2 0 1-2 1-1 3-3 1-2 3-2 2-3 1-3 3-4 2-5 0-5 2-5 1-5 1-6 1-6 2-6 1-7 0-7 0-8 2-16 0-8 0-8 0-9 0-9 0-8-1-9 0-9-1-8-1-8-2-9-1-7-2-7-2-7-2-7-6-12-2-5-3-4-4-3-3-4-3-2-4-2-4-2-14 0-5 2-5 3-7 3-3 3-4 4-4 4-5 5-5 6-7 7-5 8-7 10-7 10-7 10-7 12-7 12-7 13-7 14-6 14-6 15-6 16-5 14-5 15-4 13-4 14-2 13-2 12-1 11 0 20 2 7 1 8 3 7 3 5 4 5 4 2 5 3 6 1 12 0 13-3 14-4 13-7 14-8 14-9 12-11 11-11 12-11 10-10 12-11 10-10 9-11 17-20 8-9 7-9 6-8 4-7 4-7 3-6 3-5 2-4 1-4 1-3 0-2 0-3 0-1 0 0-1-1-4 0-1 1-3 0-2 1-2 1-2 2-2 2-2 3-2 4-3 4-1 5-3 6-2 6-2 7-2 7-2 9-1 9-2 10-1 10-1 10-1 10 0 10 1 11 0 10 2 10 2 11 0 10 2 9 3 10 2 9 2 9 3 8 3 9 3 7 3 7 4 6 3 6 4 5 5 4 4 3 5 3 6 3"/>
<path d="M1259 5762l 0-1-1-1 0-1 0 1 2 0 0 1 3 0 2 0 2 0 3 1 4 1 4 0 4 2 4 1 4 1 4 1 4 1 5 2 3 1 4 1 5 1 4 2 4 0 5 2 8 1 4 1"/>
<path d="M1255 5850l 1 0 0-1 4 0 1 1 3 0 2 1 23 0 5-1 6 0 6-1 6 0 7-1 5-1 7-1 7 0 6-2 7-1 8-2 7 0 8-2 7-2 8-2 7-1"/>
<path d="M1939 5617l-3-2-3-1-4 0-4-1-5-2-6 0-10 0-4 0-4 0-4 1-4 2-3 1-7 3-5 3-4 3-4 4-4 4-4 5-5 6-5 7-4 8-5 8-4 10-4 11-5 12-3 13-4 13-4 14-3 15-3 14-2 15-1 14-1 14 0 13 1 14 1 13 2 12 4 11 3 11 10 20 6 9 7 7 6 7 8 8 8 5 8 5 8 5 9 3 10 3 10 2 11 2 11 0 12 1 11 0 13-1 12-1 12-2 12-2 11-2 13-3 10-3 12-4 10-4 11-5 11-5 11-6 10-6 10-6 10-6 9-8 8-8 8-9 8-8 7-10 6-9 5-11 5-11 4-11 3-10 2-11 2-11 0-11-1-12-1-12-3-12-4-11-5-13-6-12-8-11-8-11-9-11-10-11-11-11-13-10-11-10-12-9-12-8-13-7-12-6-12-6-13-4-11-4-13-2-12-1-12 1-11 1-12 3-11 5-9 4-9 6-7 7-6 6-5 7"/>
<path d="M2846 5688l-11 0 2 0 0-1 2 0 1 1 4 0 3 1 4 0 4 1 5 1 7 1 5 0 7 1 7 0 7 1 7 0 7 0 7 1 8 0 7 1 8 0 7 1 16 0 7-1 19 0"/>
<path d="M2809 5773l-4 0-2 1-4 0-2 0-2 0 0 1 3 0 2 1 3 1 3 0 4 2 7 0 13 3 8 1 8 1 9 0 9 1 10-1 9 0 10 0 10-1 11-1 11-3 10-1 11-3 11-3 11-3 10-2 10-4 9-4"/>
<path d="M2942 5619l-6 0 0 1 2 0 1 1 2 2 2 2 3 2 9 6 5 3 6 4 5 4 6 4 6 4 6 4 7 4 7 3 6 3 7 3 6 3 7 3 7 3 6 3 6 3 5 3 5 3 6 3 4 3 4 4 4 3 2 3 3 4 2 3 3 4 1 3 1 5 1 3 0 10-1 5-1 4-2 6-2 5-3 6-4 6-3 7-5 7-5 7-5 7-6 7-7 7-7 6-7 7-8 5-7 6-6 4-7 5-5 3-6 3-5 3"/>
<path d="M3840 5725l-1-1-2-3-2-1-2-2-3-2-3-2-3-3-3-1-3-1-4 0-3 0-4 0-3 0-4 1-4 1-5 2-4 2-4 2-4 4-5 3-5 5-6 5-5 5-5 6-6 6-10 15-3 7-5 8-4 7-3 8-3 8-3 8-2 8-3 16-1 8-1 7 0 14 2 8 0 7 3 6 2 7 3 6 3 6 4 5 5 5 5 4 6 4 7 3 6 3 8 2 8 2 8 1 7 0 10-2 10-1 10-4 10-3 11-5 12-7"/>
<path d="M3923 5498l 1 1-1 0 0 2-1 2 0 16 1 7 1 7 1 9 1 8 1 9 2 10 0 11 2 13 1 13 1 13 1 15 0 15 0 15 1 15 1 17 1 16 0 17 0 17 1 16 1 16 1 16 0 15 1 14 1 13 0 12 1 11 1 10 0 9 1 8 2 6 0 6 0 4 1 3 1 2 0 1 0 0 0-1 1-3 2-2 0-4 2-6 2-6 1-9 3-9 2-11 4-11 3-12 3-12 3-13 3-12 4-12 3-12 4-11 3-11 3-9 3-9 3-9 3-7 3-5 2-5 3-5 1-3 1-2 2-3 1 0 1 0 0 0 1 2 0 1 3 5 0 2 2 3 0 5 2 4 0 6 1 7 0 7 0 8 1 8 0 28 1 9 0 48 0 9 0 8 2 8 1 8 0 7 2 7 1 6 2 5 2 4 2 4 3 3 3 2 2 1 4 0 4-1 5-2 6-4"/>
<path d="M4177 5719l-3 1-3 3-4 4-4 4-5 5-6 6-5 6-4 6-4 6-3 5-3 8-3 5-2 5-2 6-1 5-1 5-1 4 0 5 1 3 1 3 1 4 2 2 2 3 2 2 3 1 3 2 3 1 4 1 9 0 4-2 6 0 7-3 6-2 7-3 7-4 6-4 7-4 7-5 5-5 6-5 5-5 4-5 5-5 2-3 3-5 2-4 2-4 1-7 0-4 0-3-2-3-2-3-2-3-3-3-4-3-3-2-10-4-7-2-5-2-7-2-7-1-6-2-7-1-5-1-6 0-5-1-12 0-3 1-2 0-2 1-2 1-1 0 0 0 0 1 0 0 1 1 2 0 2 2"/>
<path d="M4415 5671l-7 1-4 3-5 1-6 2-6 3-6 4-5 2-5 4-5 4-4 3-4 4-4 5-4 5-4 5-4 4-3 6-3 5-2 5-2 5-1 5-2 5 0 8 1 4 1 3 3 3 1 3 3 2 3 2 3 2 4 1 4 1 11 0 6-1 7 0 7-3 7-1 7-3 8-3 7-3 7-3 7-4 7-5 6-4 7-5 5-5 5-4 5-5 3-5 3-4 3-4 2-4 1-3 1-4 0-3-1-3-2-3-2-2-3-3-2-2-4-3-4-2-10-3-5-2-6-1-6-1-5 0-7 0-11 0-5 0-9 2-3 0-3 1-1 0-1 1-1 0-1 1 0-1 0 1 1 0 1 0 0 1 2 1 2 1 2 2 3 1 3 1 4 2 10 1 6 1 6-1 7 0 7-1 8-2 8-2 8-3 9-3 7-4 9-4 8-5 8-5 8-6 8-5 7-7 7-6 7-6 6-6 6-6 6-6 4-4 4-5 2-4 4-8 1-2 0-3 0-2-1-3-1-1-2-1-1 0-2 0 0 0-2 0-2 1-1 1-1 1-2 2-1 2-1 3 0 3-1 4 0 4 1 5 1 5 1 6 3 5 2 6 4 6 4 6 3 6 4 5 5 6 4 5 4 5 5 4 4 4 4 5 4 4 4 4 4 4 3 4 3 5 3 4 3 4 2 3 1 5 1 4 1 4 0 4-1 3-1 4-3 4-2 3-4 4-4 3-4 2-5 3-6 3-5 2-6 2-6 1-7 2-7 0-21 0-6 0-7-1-6-2-6-2-5-1-5-2-5-2-9-3-4-2-2-3-3-1-2-3 0-2-1-3 0-3 1-3 1-3 2-4 2-4 4-3 3-4 5-4 4-4 11-7 7-4 6-3 6-2 7-2 7-1 13-3 13 0 6-1 6 0 7-1 5 0 5 0 6 0 5 0 5 0 4 0 12 0 3 1 7 0 3 1 7 0 2 1 2 0 2 0 2 0 3 1 21 0 11-2 4-2 3 0 9-3 5-2 4-2 5-2 4-2 3-2 5-2 3-2 4-3 3-2 4-2 3-2 3-3 3-2 3-2 2-3 2-2 3-2 1-3 1-2 2-5 1-2 0-3-1-3-1-2-1-2-2-2-2-1-1-2-3-2-3-1-7-2-5-1-5-1-5-1-5 0-6 1-6 0-5 2-5 1-5 1-5 3-5 1-4 3-4 3-4 3-4 4-4 3-4 5-3 4-4 5-3 5-3 5-3 6-2 6-2 6-1 6 0 6 0 6 1 7 2 6 2 7 3 5 3 7 3 6 4 5 5 5 5 4 5 4 7 3 6 4 7 2 7 2 7 1 8 1 8 1 17 0 10-1 9-1 9-3 10-2 10-2 9-2"/>
<path d="M5404 5420l-1 1-2 1-2 2-3 2-3 3-3 5-4 4-3 6-3 6-3 7-4 9-3 9-2 9-3 11-2 11-2 12-1 12-1 12-1 12 0 13 0 13 1 13 1 13 1 12 2 12 3 12 4 12 3 11 5 11 5 10 5 10 5 9 7 9 6 9 7 8 8 7 8 6 9 5 10 6 10 4 10 4 10 2 11 2 10 2 11 1 12-1 11 0 12-3 12-2 12-2 11-3 12-5 12-7 11-6 10-7 10-8 20-19 10-10 9-11 9-11 7-11 8-13 7-12 5-12 5-12 5-13 3-12 2-12 0-12 1-12-1-13-1-13-2-13-4-13-4-13-5-13-5-14-6-13-7-12-7-11-8-10-8-10-8-8-9-8-9-6-10-5-10-3-11-3-11-2-11-1-11 1-11 1-12 2-12 3-12 5-12 6-13 6-12 7-12 7-12 8-11 8-9 6-10 8"/>
<path d="M1920 6288l 1 0-1 1-1 1 0 2-1 3-2 2-1 5-1 4-1 5-2 6-1 6-1 7-1 8-2 19 0 10 0 12-1 11 0 25 1 13-1 14 0 47-1 18 0 18 0 18-2 19-3 40-1 21-2 21-2 21-3 22-2 21-2 21-2 21-2 20-2 21-1 20-2 20-1 20-1 19 0 19 0 19 0 17 1 16 1 15 2 14"/>
<path d="M2790 6554l-1 0 0 0 0-1 1 0 1 0 5 0 3-1 9 0 6 1 65 0 9-1 8-1 8-1 8 0 9-1 8-1 7-2 8-1 7-2 8-1 7-1 7-2 6-1 5-1"/>
<path d="M2804 6637l 0 1 0-1 17 0 6-1 23 0 10 0 9-2 10 0 10-2 11-2 10-2 10-2 10-4 10-3 11-3 10-2 10-3 10-5 9-3 10-4 8-4 8-4 8-4 8-4 7-4 6-4 6-4"/>
<path d="M2975 6416l-1-1-8 0-1 1-3 0 2 0 0 1 2 0 2 1 2 2 2 2 4 2 3 2 5 3 5 3 4 2 6 3 5 3 5 2 6 3 6 2 5 3 7 2 6 2 5 2 7 3 5 2 5 2 7 2 5 2 5 3 5 2 4 3 4 3 5 4 3 3 2 3 3 4 3 3 2 4 1 4 1 3 2 4 1 4 0 3-1 5-2 4-1 5-2 5-4 5-3 6-5 6-5 7-6 7-7 6-7 7-8 7-8 8-9 7-8 7-8 6-8 7-8 7-7 6-6 5-7 5-6 4-5 3-5 4-5 3-4 2-4 1"/>
<path d="M3710 6674l 0-2-1-2 0-2 0-3-2-2-1-3-1-2-1-2-2-1-1-2-2-1-3-2-2 0-3-1-2 0-3-1-4 1-3 0-4 1-4 1-4 2-4 2-5 3-4 3-5 3-5 4-5 4-5 5-5 4-5 5-5 5-4 4-4 6-5 6-3 6-4 7-2 6-3 7-2 7-1 8-2 8-1 8-1 9 0 7 2 18 1 7 1 8 3 7 2 7 3 6 3 6 4 6 5 4 5 4 5 3 6 3 7 2 7 1 8 0 9-1 8-1 10-3 10-3 10-5 10-6 12-6 11-7 12-8"/>
<path d="M3802 6366l-1 1-1 0-1 0-1 2-2 3 0 3 0 2 0 70-1 13 0 13-1 16-1 16 0 17-1 18-1 18 0 20-2 20-1 40-1 19 0 20 1 18 0 17 1 15 2 15 1 13 2 12 2 10 2 10 3 9 2 7 2 6 2 5 2 3 2 3 1 1 2 1 2-1 1-1 1-3 3-2 2-5 3-5 3-7 4-8 3-10 5-9 4-11 4-12 4-12 4-11 5-13 5-11 9-21 9-19 3-7 5-8 3-6 3-6 3-5 3-4 3-3 1-2 4-4 1-1 3 0 1 1 1 1 1 0 3 5 0 3 2 2 1 4 1 4 1 5 1 5 2 6 0 6 1 8 1 7 1 6 1 8 1 7 1 7 1 7 0 6 1 7 2 5 0 6 1 6 1 5 2 5 1 5 2 5 1 3 2 3 2 3 3 2 3 1 4 1 4 0 4-1 6-1 6-3"/>
<path d="M4068 6636l-2 2-3 3-4 4-5 5-5 6-5 6-10 15-5 6-4 7-4 7-4 8-4 8-3 7-3 7-2 6-2 7-1 5 0 5 0 4 0 3 2 3 1 3 2 2 2 2 3 2 4 1 3 1 9 0 5-1 5-2 5-2 6-3 7-3 6-5 7-5 8-5 6-5 7-6 7-6 7-6 5-7 5-5 5-7 5-6 3-5 4-5 2-5 2-5 1-3 1-4 0-3-1-3-1-3-1-3-3-3-2-3-4-2-3-3-4-2-5-2-5-2-6-1-5-3-5-1-5-1-6-1-4-1-5 0-4-1-3 0-3 0-5 0 0-1 0 0 1-1 1 0 2 1 1-1 3 0 3 1 4 1 4 0 4 0 6 1"/>
<path d="M4192 6649l-2 2-1 2-2 3-2 1-2 3-3 4-2 4-3 5-3 3-3 4-2 5-3 4-2 4-2 5-2 3-2 4 0 3-2 4 0 4-1 2 1 3 0 3 1 2 1 3 1 2 1 2 2 2 1 2 2 1 3 2 2 0 3 1 2 1 4-1 3 0 4-1 4-1 4-2 5-2 6-3 5-3 5-3 6-4 5-4 6-4 5-4 5-4 3-6 5-4 3-4 3-4 3-5 2-4 2-3 1-4 1-4 0-6-1-3-1-2-1-3-2-2-1-2-2-2-3-2-3-2-3-1-4-2-4-1-5-1-5-1-5 0-10-1-5 1-5 0-4 0-4 1-4 1-3 0-2 1-2 2-1 0-1 0-1 2 0 3 1 2 1 2 1 1 1 3 1 2 2 2 3 3 2 2 3 2 3 1 4 2 4 1 4 1 5 0 5 1 10-2 5-1 5-2 5-2 5-3 5-3 5-4 5-3 5-4 5-4 5-5 5-4 3-4 4-4 3-4 4-4 2-4 1-3 2-3 1-3 0-7-1-1-2-1 0 0-2-1-2 0-2 1-1 0-2 2-2 1-2 2-2 3-2 2-1 4-2 4 0 3-1 4 1 4 0 4 2 4 1 3 2 4 3 3 4 3 3 3 4 4 4 3 5 2 4 3 5 3 4 2 5 2 5 1 4 2 5 2 4 1 7 4 3 2 2 1 2 2 2 2 1 1 1 2 0 4-1 2-1 2-2 2-2 3-3 3-3 2-4 3-5 2-4 3-5 2-6 1-5 2-6 1-5 1-5 1-10 2-5 0-5 0-4 0-3 1-11 0-1-1-1 0 0 0 1-1 2-1 1-1 1-2 3-1 2-2 4-2 4-3 5-3 5-2 5-3 5-4 6-3 6-4 7-3 7-3 6-3 8-4 7-2 6-2 7-2 6-2 6-3 12-4 6-1 5-2 5-1 5-2 5-1 8-1 4 0 4-1 4-1 2 0 4-1 3-1 3-1 3 0 4-1 3-2 7-1 3-1 7-1 3 0 3-1 2 0 5-2 2-1 2-1 1-1 2-1 2-1 0-1 1-1 1-1 2-3 0-1 0-2 0-2 1-2 0-2-1-2 0-2 0-3-1-3-2-3 0-2-2-3-3-2-2-2-3-2-2-2-3-2-3-2-4-1-3-1-5-2-12 0-4 1-5 1-4 1-5 2-4 1-4 2-5 3-4 4-5 3-3 5-5 4-2 6-4 5-3 6-3 6-3 7-2 8-2 7-1 8-1 7-1 9 0 7 1 7 1 8 2 6 3 6 3 7 4 6 5 5 5 5 6 5 6 5 6 4 7 4 7 3 8 3 8 2 9 1 10 1 10-1 11-1 12-1 13-3 14-5 16-5 17-6 19-7 21-8"/>
<path d="M5029 6543l 0-1-1 0 0 0 1 2 1 2 2 3 2 3 2 4 4 4 3 6 5 7 4 7 5 9 6 8 5 10 7 10 7 11 7 11 8 12 8 11 9 12 9 13 8 11 9 12 9 12 19 21 8 11 9 10 8 10 8 10 8 10 7 8 7 7 8 7 7 6 7 4 8 3 6 2 6 1"/>
<path d="M5201 6573l-3 2-4 2-4 4-6 4-6 5-7 5-6 7-7 8-6 8-7 9-8 10-7 10-8 11-9 12-8 12-9 12-9 13-9 12-8 13-8 14-7 13-8 14-8 13-7 11-7 13-5 11-5 10"/>
<path d="M5586 6533l-1-1-1 0 0 0-2 0 5 0 3-1 4 1 28 0 9-1 8 0 8-2 10-1 10-1 10-2 10-2 10-1 11-3 11-1 11-3 10-1 10-2 8-2 8-1 7-1 7-1"/>
<path d="M5572 6607l-1 0 0-1 8 0 4 1 23 0 8-1 9 0 8 0 10-1 10-1 10-2 10-2 10-2 11-2 11-3 10-2 11-3 11-3 11-3 10-3 10-2 9-3 9-3"/>
<path d="M5711 6405l 1 0 0 1 1 0 2 1 0 1 2 1 3 2 2 3 3 2 4 3 4 4 4 3 10 7 5 3 7 4 6 4 6 2 7 4 7 3 8 3 8 3 7 3 9 3 8 4 7 3 8 3 8 4 8 2 7 3 7 2 15 6 6 2 6 3 7 3 6 3 5 3 5 4 5 3 5 3 4 4 3 4 3 5 2 3 3 4 1 4 1 4 0 10-2 4-1 5-3 6-4 5-4 7-5 6-6 7-7 6-8 8-10 7-9 9-10 8-11 9-11 9-10 9-11 9-11 8-11 8-11 7-10 7-9 6-9 5-8 6-8 4-6 5-6 4-5 3-4 3-2 2-3 0"/>
<path d="M6107 5532l 1 0-2 0 0 1 2 0 2 0 1 0 1 1 3 1 3 1 3 0 5 0 5 2 12 0 6-1 7-1 8 0 16-2 8-1 9-1 8-1 8 0 8-2 8-1 8-1 6-1 8-1 6-1 6-1 6 0 5-1"/>
<path d="M6069 5624l-4 1-2 2-2 1-2 1-1 1-2 1 2 0 0-1 2 0 1 0 6 0 3-1 8 0 5-1 5 0 7 0 14-2 16-1 8-1 8-1 9-1 10-2 9 0 9-2 10 0 10-1 10-1 27-2 10-1 9 0 9-1 7-2 9-1 8-1 7-2 8-2"/>
<path d="M6257 5423l-2 0-1-1-3 0 0 2 3 5 2 3 2 4 2 3 3 5 4 3 4 5 5 4 5 3 5 4 6 4 6 4 6 3 6 3 6 3 6 4 6 3 6 3 6 3 6 4 5 3 6 3 6 4 5 3 4 4 4 4 4 4 3 3 4 4 4 5 2 3 2 5 2 4 1 3 2 5 1 5 0 8-1 5-1 4-2 4-1 4-3 5-3 5-4 5-5 5-5 6-6 6-7 6-7 6-7 5-8 7-9 7-9 7-9 7-20 14"/>
<path d="M6692 5613l 0-1-1-1 0-1 0-1-1-1-1-1-1 0 0 1 0 0 0 1-1 0 0 2 1 2 0 3 1 3 1 5 1 7 0 6 1 9 1 8 0 10 1 10 2 22 0 12 2 13 0 13-1 14 0 14-1 14 0 15-1 14-1 15-1 14-1 15-1 14-1 14-1 13-1 14-1 13-1 12 0 11-1 11 0 18-1 8 0 18 1 1 1-1"/>
<path d="M6669 5579l 1-1 0-3 2-2 1-1 1-3 2-2 3-3 3-2 3-2 5-2 4-2 5-1 6-2 5-1 13-2 12 0 8 1 7 1 7 1 8 1 7 1 7 1 8 2 6 2 8 3 7 2 6 3 6 2 5 3 5 3 5 3 3 4 3 3 2 4 1 4 1 5 0 4-1 5-1 6-3 6-3 7-4 7-5 8-6 8-7 7-7 8-9 9-9 9-9 8-9 8-10 8-10 6-9 7-10 5-8 5-9 3-8 4-7 3-7 2-6 1-7 1-6 1-5 0-5-1-5-1-7-5-2-2-2-2-1-3 0-3"/>
<path d="M6903 5591l 0 1-1 0 0 2-1 1 0 2-2 3 0 3 0 3-1 4-1 4 0 3 0 5-1 5-1 4 0 5-1 5 0 5-1 5 0 5-1 4 0 5 0 5 0 15-1 3 0 5 1 2 0 5 1 0 0 0 1-1 0-1 0-1 1-1 1-2 1-2 1-3 1-4 1-4 2-5 2-6 1-6 2-6 2-7 1-6 2-7 1-7 1-6 3-7 1-6 2-5 2-5 2-5 3-4 2-4 3-4 2-4 2-3 2-3 2-4 3-3 2-2 3-3 3-2 3-2 3-2 4-2 3-2 4-1 4-2 4 0 4-1 4 0 5-1"/>
<path d="M7066 5570l 1 1 0 1 0 2 0 1 2 1 1 1 2 2 2 1 1 1 2 0 3 1 2 1 3 0 3 1 11 0 4-1 5-2 4-1 5-1 6-2 5-2 6-3 6-1 5-3 5-2 5-2 5-3 9-5 4-2 4-3 3-1 2-1 3-2 2-1 3-2 1 0 1-2 1-1 1-1-1-2 0-2-1-2 0-1-2-2-2-2-2-3-3-2-3-3-3-2-4-1-4-2-4-1-5-1-5-1-4-2-5 1-4 0-5 1-5 1-5 2-4 1-5 2-4 3-4 3-5 3-4 3-4 4-3 3-4 3-3 5-4 4-3 4-3 6-3 5-3 5-2 6-1 6-2 7-1 5 0 12 1 6 1 6 3 6 2 6 3 6 3 5 4 5 9 7 6 3 5 3 7 2 7 0 7 2 9 0 8-1 8-1 9-2 10-3 9-4 9-4 10-4 7-5 9-5 7-5 7-5 6-5 6-5 5-5 4-5 4-4"/>
<path d="M7254 5590l 1-4 2-5 0-7-1-3-1-2-2-3-1-2-2-1-2-2-1 0-4 0-2 0-1 1-2 1-2 1-1 2-2 2-2 2-1 3-2 3 0 4-2 4-1 5 0 15 1 3 2 5 1 5 4 9 2 5 3 4 2 4 4 4 3 3 3 3 3 3 4 3 4 2 4 2 4 2 4 0 5 1 9 0 5-1 4-2 10-4 5-4 4-3 5-4 4-5 4-5 5-5 3-5 4-6 5-12 3-5 1-7 2-5 1-7 1-5 0-6-1-5 0-6-1-5-1-5-1-5-1-5-2-4-1-5-2-5-1-4-2-3-2-3-1-4-2-3-2-2-1-2-1-2-1-2-2-1"/>
<path d="M7524 5128l 1-1 0 0 1 1 45 0 6-1 6 0 7 0 6-1 13-2 6-1 8-2 5-2"/>
<path d="M7904 5160l-1 0 0-1-1 0-1 0-1 0 0-1 0-1 0-1 1 0 1 0 1 0 1-1 1-1 3-1 3-1 4-1 5-2 6-1 7-2 6-2 7-1 8-2 7-2 8-2 17-4 9-2 8-1 10-1 7-3 9 0 8-1 8-1 8-2 8-1 7-1 7-1 6 0 7-1 5-1 5-1 10 0 4 1 6 2 2 1 3 1 2 2 2 2 2 3 3 2 2 4 3 2 3 5 3 5 2 5 3 5 3 7 4 6 3 7 3 8 4 7 3 7 4 8 4 8 4 8 4 9 4 8 5 10 4 9 4 10 5 10 4 10 4 11 3 11 3 11 3 12 4 11 3 12 2 12 3 11 2 12 3 12 2 12 2 11 4 37 2 12 2 12 1 12 2 10 1 10 2 11 1 10 1 9 2 10 2 25 1 9 0 8 0 14 1 8-1 7 0 8 0 7-1 6-1 8-1 6-2 6-2 5-3 6-2 5-3 4-3 5-4 5-3 4-5 4-4 4-6 4-6 4-8 3-8 2-8 4-9 2-9 3-10 2-20 3-10 1-10 0-11 0-10 0-21-2-10-1-11-2-9-2-9-2-9-2-7-2-7-2-7-2-6-2-4-2"/>
<path d="M6226 6537l 1 3 0 2 1 3 2 3 0 3 2 5 1 3 1 4 1 4 2 4 2 4 1 5 2 4 1 6 2 5 2 6 2 5 1 7 2 6 0 7 2 6 1 6 0 7 0 27 0 7 0 7-1 6-1 6-1 6 0 4-1 5-1 4 0 3-1 3-1 2-1 2 0 2 1-1 0-4-1-3 0-3 0-4-1-5 0-17 1-6 0-8 1-7 2-7 1-7 1-7 3-7 0-7 3-7 2-7 2-7 3-7 4-6 3-6 3-7 4-5 4-6 4-5 4-6 4-4 3-4 4-4 3-3 2-3 3-2 2-2 3-1 2 0 3-1 2 0 3 1 2 1 3 2 2 2 3 3 2 4 3 4 2 4 2 5 2 5 2 7 2 6 1 7 1 6 2 6 1 8 1 7 1 7 0 6 0 7 1 6 0 6 1 6 0 25 1 1 0 1 0-1 0 0 0-1 1 0 0 0 1-2 0-2 2-2 1-3 2-4 3-5 2-5 3-7 4-6 3-8 3-7 3-8 3-7 3-7 3-6 3-7 2-6 3-5 2-6 3-5 2-5 2-5 2-5 2-4 2-3 1-5 2-3 2-3 0-3 2-2 0-2 1-1 1-1 1 0 0-1 0 1-1 0 0 0 1 2 0 1 0 1 1 3 1 3 2 4 1 5 2 5 1 6 2 7 2 6 1 7 2 7 0 7 2 8 1 8 1 7 1 7 2 8 2 7 1 7 2 6 1 8 2 6 2 6 1 5 2 6 2 4 1 5 2 4 2 4 2 3 2 3 2 2 3 2 3 2 3 0 3 1 4-1 4-1"/>
<path d="M6589 6540l-1 1 0 0 0 2-2 1-1 3 0 3-2 4 0 5-2 5-1 5-2 7 0 6-2 14-1 8 0 35 1 6 1 6 1 5 0 6 2 6 0 4 2 4 1 5 2 3 1 3 2 2 2 2 1 2 2 1 2 2 3 0 4-1 3-1"/>
<path d="M6558 6410l-3 0-3 1-4 0-4 0-4 0-3 2-4 1-1 0-2 0-1 0 0 1 1 1 1 0 3 1 2 1 2 1"/>
<path d="M6702 6578l 1 2-1 5 0 4-1 6 0 7 0 7 0 23-1 7 0 20 1 7 0 6 0 5 1 5 0 4 1 6 0 1 1 2 0 1 1 0 0-1 1 0 0-3 0-2 2-3 0-4 2-5 2-6 2-7 3-6 3-9 3-8 3-9 2-8 4-9 3-8 3-8 3-7 2-7"/>
<path d="M6779 6533l 1 2 1 3 2 4 0 5 2 5 1 7 2 6 0 8 2 7 0 8 2 9 1 8 0 9 2 9 0 10 2 9 2 10 1 10 3 9 2 9 2 8 2 8 3 7 3 6 3 5 2 5 4 5 3 4 3 3"/>
<path d="M7118 6139l-1-1-1-1-2-1-1-1-2-1-2-1-2 0-4 0 0 0-1 0-2 2-1 0-2 3-3 2-3 3-3 4-4 5-4 6-4 7-4 7-5 9-11 22-5 12-6 13-5 15-6 15-5 17-7 16-5 17-6 19-10 38-4 20-5 20-3 20-4 19-3 19-2 20-2 19-3 37-1 18 0 17 1 17 1 17 1 17 2 16 2 17 3 15 3 15 3 15 4 13 3 12 5 11 5 11 5 10 5 8 6 10 6 7 6 8 7 7 7 8 8 5 8 6 8 5 9 4 8 5 9 3 9 2 9 3 9 2 8 1 9 2"/>
<path d="M4439 4949l-1-1 1 0 0-1 1 0 0-1 0-1 1-2 1-2 0-3 1-4 1-4 1-6 0-7 2-7 2-8 1-9 3-11 2-12 3-13 3-15 4-16 5-16 4-18 11-37 6-20 6-21 3-11 3-11 4-12 7-25 4-15 4-13 3-15 5-14 4-16 4-15 5-16 4-15 3-15 5-14 3-14 3-13 3-12 3-12 2-10 1-8 2-8 1-6 1-5 1-4 0-11 0 5 0 4 1 4 2 5 1 6 1 7 3 9 2 10 3 11 4 12 3 13 5 14 10 30 10 29 10 29 10 28 10 25 10 24 10 20 8 17 9 17 7 15 8 16 7 14 7 15 7 13 7 14 6 13 7 12 6 11 11 20 6 9 6 8 5 7 5 6 4 6 4 5 3 3 3 3"/>
<path d="M4540 4811l 1-1 20 0 5 0 8-1 6-1 9-1 7-2 9-3 9-3 10-3 10-4 10-3 11-4 11-4 10-4 12-4"/>
<path d="M4869 4918l 2-2 2-3 1-2 2-4 2-4 4-6 3-8 5-9 5-11 5-14 5-14 6-16 6-16 6-17 7-18 13-37 5-19 6-19 3-10 3-10 3-11 4-12 3-12 3-12 3-13 3-14 3-13 2-15 2-13 2-15 0-14 2-14 0-29-1-13-1-13-2-12-2-10-3-10-3-9-3-8-3-6-4-6-3-4-4-4-3-3-4-2-4 0-3 0-4 2-4 3-4 2-4 5-4 6-4 7-4 8-4 9-3 11-4 12-4 12-3 13-2 15-5 29-3 29-2 29 0 29 1 26 2 25 3 21 3 19 4 17 4 16 5 16 5 14 5 14 6 13 6 13 6 11 6 10 6 9 7 9 6 6 6 7 8 3 7 4 8 2 7 1 9-1 9-1"/>
<path d="M5131 4692l-1 2-3 4-2 4-4 6-4 6-4 8-4 8-3 8-3 9-2 9-2 9-2 8-2 10-1 8-1 8-1 9 0 8 1 7 1 6 1 7 1 5 1 4 2 3 2 3 2 1 2 0 3-1 4-2"/>
<path d="M5065 4597l-1 1-1 0-1 1-1 1-1 1-1 2-1 2-1 1-1 5-2 5 0 5 2 5 3 5 5 4 5 4 5 3 7 3"/>
<path d="M5268 4705l-1 0-2 1-2 1-2 2-4 1-3 2-4 2-4 2-4 2-4 2-4 3-4 3-4 4-4 4-5 4-3 5-5 4-4 5-4 6-4 6-4 5-4 6-2 6-4 5-3 7-2 5-1 5-2 5-1 5 0 4 0 9 1 3 1 4 1 3 1 5 2 3 3 3 3 4 3 3 3 3 5 3 4 2 4 2 5 2 6 2 6 1 7 1 8 0 8-1 9-1 18-6 10-4 10-4 10-5 10-7 10-7 10-7 9-8"/>
<path d="M5383 4762l-1 0 0-1 0 1-1 0-1 1-1 0 0 1 2 0 1 1 0 0 2 1 1 0 2 0 3 1 13 0 3-1 4 0 7-3 4-2 7-4 3-2 3-3 3-2 2-2 2-2 2-2 1-2 1-2 1-2 0-3-1-2-1-2-1-2-1-1-3-2-3-1-3-2-4-2-4-2-4-1-5-2-15-2-11 0-5 1-6 1-5 2-5 1-5 2-5 3-5 3-5 4-5 2-5 5-4 5-4 4-4 6-4 5-4 5-2 6-3 6-2 6 0 6-1 6 0 7 1 6 2 7 3 6 3 6 4 6 5 5 5 5 7 4 8 3 8 3 10 2 10 1 12 0 14-1 16-2 18-4 21-5 24-9"/>
<path d="M6948 4463l-1 0 0-1 0 0-1 1 0 2 1 2 0 2 0 3 1 4 1 4 1 6 2 6 1 7 1 8 2 10 2 10 1 12 4 25 2 25 3 26 2 26 2 25 2 23 1 20 1 17 1 16 2 16 2 15 2 14 2 12 2 12 2 11 3 8 2 7 3 6 1 4 2 3 2 2 2 0"/>
<path d="M6961 4420l-3-3-1-1 0 0-2-2 0 0-1-1-1-2 1 0 1 0 1-1 2-1 3 0 4 0 10-2 5 0 7-1 37 0 11 1 11 0 12 1 12 1 12 1 13 1 12 3 11 2 11 3 11 2 9 3 8 4 8 4 7 4 5 5 3 5 3 5 2 6-1 6-2 6-3 7-4 7-6 7-7 7-9 7-9 8-10 8-12 7-11 7-12 7-12 8-12 7-12 6-12 7-12 5-12 5-10 5-10 3-9 4-8 3-7 3-6 2-5 2-5 1-3 1-2 1-2 0 0 0 2 0 3-1 3-1 5-1 6-1 6-1 8-1 9-2 9 0 11-1 10 0 13-1 12 0 13 0 27 0 14 0 14 1 14 1 13 0 14 2 13 2 13 2 11 2 12 2 10 3 9 2 16 5 12 5 9 6 6 6 2 6-2 7-2 8-5 7-5 8-8 10-8 9-9 9-11 10-12 11-12 10-13 11-15 10-15 10-15 8-14 9-15 9-16 9-15 7-15 7-14 6-13 6-14 6-13 4-12 4-11 3-12 2-11 2-11 1-10 0-9-1-8-1-8-3-6-3-5-4-4-4-3-6-1-6 0-8 1-7"/>
<path d="M7336 4668l-3 2-4 4-4 4-6 5-6 6-6 6-6 7-4 7-4 5-3 5-3 6-2 5-1 4-1 4-1 4 0 3 1 4 0 3 4 9 3 2 2 2 3 2 2 2 3 1 4 1 4 1 4 0 5 0 5 0 5 0 5-2 7-1 6-2 7-1 6-3 7-2 6-3 6-3 6-2 5-3 5-3 4-3 3-3 3-3 3-3 1-3 2-4 1-4 0-8-1-4-2-5-1-5-2-3-3-5-3-4-3-3-4-3-4-2-4-3-3-1-3-1-3 0-3-1-2-1-2-1-2 0 0 0-2 0 0-1 2 0 0-1 1 0 1 0 1-1 2 0 3-1 3-1 4-1 4-1 11-5 7-3 7-2 7-5 7-3 4-3 5-3 5-3 10-7 5-4 7-5 6-5 7-6 8-6 7-6 7-7 7-8 8-9 8-8 8-10 9-10 8-10 8-10 7-12 8-10 7-11 7-12 6-11 6-12 4-12 5-13 5-12 3-13 4-13 2-12 2-13 1-12 2-12 0-22-1-11-1-9-2-10-2-8-2-6-2-6-4-4-3-3-4-1-3 0-5 2-5 3-5 5-5 7-5 8-6 8-6 10-5 11-6 13-6 13-6 15-6 15-5 16-5 17-4 17-4 18-3 18-2 18-3 35 0 33 2 31 4 27 6 24 5 21 7 18 7 14 7 13 7 11 7 10 7 9 8 8 7 7 8 5 8 5 7 5 8 3 7 3 7 2 8 2 7 0 6 0 7-1 7-1 6-3 6-3 5-4 5-4 4-5 4-5 3-6 2-6 2-7 1-7 0-8-1-8-1-8-2-8-3-8-3-8-5-8-2-4-3-3-3-5-3-4-4-3-3-5-4-3-4-4-4-3-4-4-4-3-5-3-3-3-3-3-4-3-5-4-3-2-2-1-2-1-1-1-2-1 0-1 1 0 6 0 3 0 4 2 4 0 6 0 6 1 8 2 9 0 9 1 11 1 11 1 14 2 15 0 16 1"/>
<path d="M7223 6545l-1 0 0-1-1 0-1 0 0 1 1 1 0 1 1 3 0 3 0 4 0 12 1 7 0 17 1 10 0 21 0 12 1 13 2 13 0 13 1 14 1 14 1 13 1 14 1 13 0 12 1 14 0 40-1 15 0 14-1 15-2 14-1 15-1 14-2 15-2 15-2 13-2 14-1 13-1 13-2 13-1 12-1 10-1 10-1 8 0 7-1 6 0 4-1 3 0 2 1 2 2 0 0-2 0-1 1-3"/>
<path d="M7175 6598l-1-3-1-2-3-6-1-3-2-4-1-2-1-1 0-2-1-1 0-2 1-1 0-1 1-1 2-1 1-1 2-2 3 0 2-2 3-2 4-2 5-2 6-2 5-1 6-2 7-2 7-1 7-1 6-1 8 0 7 0 8 0 8 0 16 2 7 1 8 1 8 1 7 3 7 1 6 1 7 3 5 2 5 3 5 2 5 2 3 3 4 4 3 3 2 3 2 5 1 3 1 5 0 10-1 6-1 6-2 7-2 6-3 7-4 8-4 7-4 7-5 8-5 8-5 7-5 7-6 7-7 6-5 5-7 5-5 5-7 3-6 2-6 3-6 2-10 1-5 0-4-1-4 0-4-2-3-3-3-3-2-3-3-4-2-5-1-5-1-5 0-6"/>
<path d="M7407 6565l 1 0 0 1 1 5 2 2 0 3 2 3 0 3 2 4 1 3 2 4 1 3 2 4 2 4 1 4 7 13 1 3 2 5 2 2 1 4 1 4 2 4 1 3 2 4 1 3 2 3 0 3 1 4 1 2 0 2 0 5 0 2-1 1-1 1 0 0-2 0-1 1-2 0-1-1-2 0-2-1-2-2-2-2-2-3-2-4-2-4-1-4-2-5-2-6-1-6-1-6-1-6-1-6 0-13 1-5 1-6 2-6 1-5 2-5 2-5 2-5 3-3 2-4 3-3 3-4 3-3 4-3 3-2 4-3 5-3 4-2 5-3 5-2"/>
<path d="M7582 6586l 1 0 0 2-1 2 1 0 0 2 0 1 3 0 0-1 4 0 2 0 4-2 3 0 4-1 3-2 4-2 4-2 4-1 4-2 4-3 3-3 4-2 3-3 3-3 4-3 2-3 3-2 1-3 2-2 1-1 1-2 0-3 0-2 0-1-2-1-1-1-2-1-2-1-3-1-3-1-4-1-4 0-4-1-4 0-5-1-5 1-10 0-4 1-5 1-4 1-4 1-4 2-3 1-4 2-3 3-3 3-3 3-3 3-3 5-3 4-2 5-3 5-2 5-1 6-2 5-1 6 0 19 1 7 2 6 2 5 2 6 3 6 4 4 3 5 4 4 4 4 5 3 4 3 6 2 6 2 8 1 7 0 8-1 7-1 10-3 9-2 9-4 10-4 9-5 10-6"/>
<path d="M7776 6548l-1 1 0 0-2 0-1 2-2 1-1 2-2 2-1 3-2 3-2 3-1 3-1 4-1 4-2 3 0 4 0 10 0 4 1 3 2 4 1 3 1 4 1 3 2 3 2 4 1 3 2 3 2 2 2 3 2 3 2 2 2 2 3 2 2 1 2 1 3 1 7 0 3-1 2-1 3-2 2-1 3-3 3-3 3-4 3-3 3-5 3-5 2-5 3-6 2-6 2-7 1-6 1-7 1-7 0-14-1-8-1-7-1-7-2-7-1-7-1-7-2-7-1-6-2-7-1-7-2-6-2-5-1-5-1-4-1-3-2-3 0-3-2-2-1-1 0-1"/>
<path d="M8011 6137l 0-1-1 0 0-1 0-1 0-1 0-1 2-1 1 0 2 0 2-2 3-1 5-1 5-2 5-1 7-3 7-1 6-2 8-2 7-1 8-1 8-1 8-2 8-1 7-2 8-2 7-1"/>
<path d="M8017 6150l-1-1-6 0-2 1 0 0-1 1 0 2 1 2 0 2 0 4 0 5 1 5 1 7 1 8 1 10 1 10 0 11 1 12 0 12 1 14 0 28-1 15 0 15-1 33-1 16-1 18-1 17-1 18-1 17-2 17-1 18-2 18-2 18-2 17-2 17-3 18-1 18-2 16-3 18-2 17-2 17-1 18-2 16 0 16-1 15-1 15 0 13 1 13 1 11 1 11 1 11 3 9 2 10 3 8 3 8 3 7 3 7 3 6 4 5 3 5 3 4 4 4 4 4 3 2 4 4 4 3 4 3 5 2 5 2 4 2 5 2 5 2 5 1 5 1 5 3 4 1 5 2 7 2 11 2 6 2 6 1 7 1 7 2 7 1 6 1 7 2 8 1 7 1 8 1 23 2 40 0 8-1"/>
<path d="M7453 5154l-1-1-1 0-2-1-1-1-1 0-2-1 0-2 1-1 0-2 1 0 0 5 0 3 1 4 1 5 1 6 2 7 0 8 2 10 1 12 2 12 0 13 2 14 1 16 2 16 2 17 1 17 2 18 2 17 3 18 2 17 3 18 2 17 3 18 3 17 4 18 3 17 2 18 4 17 3 17 3 16 3 17 2 16 3 15 2 17 3 15 2 15 1 15 2 15 1 13 1 14 2 26 0 13 1 11 0 30 0 9 0 6 0 7 0 21 0 0 0-1 1 0 0-1 2-2 1 0 0-1 1 0 1 0 1-1 2-2 3 0 3-1 2-1 4-2 4-1 5-1 4-1 6-1 5-1"/>
<path d="M7766 5445l-1-3 0-3-2-3-1-4-2-4-2-4-2-5-2-4-2-3-5-7-2-3-3-3-4-3-3-2-5-2-4-1-4-2-5 0-5 0-5 0-6 1-5 1-6 3-13 7-7 5-7 5-7 5-6 8-7 7-6 8-10 17-5 8-3 8-3 9-4 14-1 7-1 6 0 6 1 6 1 5 2 4 2 5 3 3 3 3 3 2 5 2 4 1 6 1 5 0 7-1 7-1 8-2 15-6 9-4 9-5 8-5 9-5 8-6 7-5 8-5 6-5 6-5 5-5 5-5 4-4 3-4 2-3 2-4 2-2 0-3 0-2 1-2-1-1 0-2 0-1 0-1-1-1-1-1-1-1 0 0-1-1-1 0 0 1 0 0-1 0 0 8 1 4 0 5 0 6 0 7 2 8 0 9 2 10 2 9 1 9 3 10 2 10 3 10 3 9 4 8 4 9 5 9 5 9 6 8 6 9 8 9"/>
<path d="M8323 6563l 0-2 1-2 0-1 0-1 1-3 1-2 3-5 1-3 2-3 1-3 1-4 2-3 1-4 2-4 1-4 1-4 1-4 1-5 1-4 1-4 1-4 1-5 0-3 0-4 0-15 0-2-1-2-1-2-3-3-1-1-2-2-2-1-3-1-3-1-3 0-4-1-10 0-5 1-5 0-5 2-7 1-5 2-7 2-6 4-5 3-6 4-6 4-5 6-6 6-5 6-6 5-4 7-5 6-4 7-5 7-4 7-4 8-2 6-3 7-2 7-2 6-1 6-1 5 0 5 1 4 0 3 1 4 2 2 2 2 3 2 2 1 4 1 4 1 10 0 5-1 6-1 6-1 7-2 6-2 7-3 7-4 7-3 7-5 8-2 6-5 8-4 6-5 6-4 5-4 5-3 5-4 3-4 3-3 3-3 2-2 2-2 2-2 0-3 2-1 0-1 1 0 0-3 0 1-2 0 0 1-1 0 0 1 0 1-2 4 0 4 0 4-1 6-1 6 0 5-1 7 0 7 1 6 1 7 1 5 0 6 2 5 1 4 2 5 2 4 1 5 2 4 2 4 2 3 1 3 2 3 3 2 2 2 3 2 3 1 4 0 3 0 5 0 5-2"/>
<path d="M8423 6140l 0-2-1-2 0-2 0-2-1-2-1-3 0-2-1-1 0-7 0-1 1-1 1 0 0-1 1 0 1 0 2-2 6-3 3-1 5-2 3-2 5-2 4-1 3-2 4-2 4-1 2-1 4-1 3-1 2-1 3-1 2 0 2 0 9 0 1 0 2 0 2 1 0 1 2 1 1 0 1 0 1 1 1 0 1 1 1 0 1 0 0 1 1 0 0 1 0-1 0 2 1 1 1 1 1 2 0 2 2 2 1 4 2 3 0 2 1 3 1 2 1 3 1 3 1 4 0 3 1 4 1 3 1 5 2 5 1 5 1 5 2 7 1 6 2 9 1 8 2 10 2 10 1 10 2 12 2 12 1 12 2 12 1 12 1 13 2 13 1 14 1 13 1 12 2 15 1 13 2 13 1 14 2 13 1 12 1 13 3 13 1 13 2 13 2 11 2 13 2 13 2 13 1 13 3 13 2 12 1 12 2 13 1 13 1 12 2 12 1 13 2 10 1 13 1 11 1 11 2 11 3 20 0 9 1 9 1 9 1 7 1 9 1 8 0 7 1 7 0 7 1 7 0 13 0 5 0 5 0 15-1 5 0 3-1 4 0 3-1 4-1 3-1 2 0 2-1 1-1 3 0 0-1 2-1 0-1 2-2 1 0 0-2 1-2 1-1 2-3 1-3 2-3 3-4 1-3 2-4 3-4 1-4 3-5 2-4 3-4 2-4 3-5 2-5 2-5 3-5 2-5 3-5 2-6 3-6 3-6 3-5 4-5 3-6 2-5 2-6 2-4 1-5 2-4 1-5 0-3 1-7 0-3-1-3 0-2 0-2-1 0-2-1-1"/>
<path d="M8683 6463l 1-1-1 0 1 0-1 0 1 0 0 1 0 0 0-1 2 0 1 0 2 0 1-1 2 0 2-1 3 0 2-1 2 0 3-1 3-1 3 0 4-1 4-2 4-1 5-1 5-1 4-1 5-1 6-2 5 0 5-2 6-1 6-1 5-1 6 0 6 0 5-1 6-1 5-1 5 0 5 0 5 0 5-1 5 0 5 1 10 0 5 0 5 1 5 1 5 1 5 1"/>
<path d="M9004 6413l 0-4-1-1 0-1 0-2 0-3-1 0 0-1 0 1 1 1 0 1 1 2 1 2 2 3 2 4 3 4 3 6 3 6 3 6 3 7 4 8 2 7 4 8 4 8 3 8 4 9 4 7 4 9 5 8 5 8 4 8 4 7 5 8 4 7 5 7 5 7 5 6 5 6 5 6 5 5 5 5 4 5 5 4 4 4 3 4 4 4 3 2 4 3 2 3 4 2 2 3 3 2 2 1 2 1 2 1 2 2 5 0 2-1 3-1 2-2"/>
<path d="M9159 6383l-1-1-2 0-1 1-3 1-3 2-3 2-3 3-4 3-4 5-5 5-5 6-5 7-6 7-7 8-7 9-7 8-8 10-7 10-9 10-9 11-7 12-9 11-9 12-8 12-9 12-8 10-8 12-14 21-8 10-6 10-6 9-5 8-4 9-4 9-3 7-3 7-1 6 0 9 0 3"/>
<path d="M9367 6681l-1-1-1 1-3 0-2 1-2 0-2 1-3 2-3 2-3 2-3 3-3 4-4 5-4 5-4 5-4 6-4 8-5 6-4 8-5 7-5 8-5 8-5 9-6 9-5 9-5 9-3 9-5 9-3 9-3 7"/>
<path d="M7203 7446l 1 5 0 6 2 9 1 9 2 11 2 13 1 14 2 15 3 16 1 16 2 17 2 19 2 19 3 18 2 20 3 19 3 19 3 18 2 19 3 19 4 37 2 18 2 17 1 17 1 16 1 15 1 15 1 14 1 13 0 11 1 9 1 8 0 14-1 1-1-1"/>
<path d="M7181 7376l 0-17 1-4 1-3 2-2 2-1 5-2 5-1 5-1 8-1 7-1 26 0 9 2 10 0 10 2 10 2 9 2 9 3 10 3 8 3 8 5 8 5 6 5 7 5 5 5 5 6 4 6 3 7 2 6 1 7 1 6-1 8-1 9-4 8-3 9-5 10-6 9-6 10-7 10-8 10-9 10-8 10-18 17-9 7-9 7-9 7-8 6-9 4-8 4-8 3-7 2-8 1-7 1-6-1-6-2-6-2-4-3-3-5"/>
<path d="M7405 7392l 1-1 0 2 0 1 1 2 1 1 1 3 2 3 2 3 1 5 2 4 3 5 2 6 1 5 2 5 2 6 2 6 1 5 2 6 1 6 2 5 1 5 1 5 1 5 1 4 1 4 0 3 0 3 0 5-1 2 0 2-2 0 0-1-1-1-1-2-2-1-2-3-2-3-2-4-3-5-2-5-2-5-2-6-1-6-2-6 0-7 0-5 0-6 0-5 2-5 0-4 2-5 2-3 2-4 3-3 4-2 3-4 4-3 5-3 7-3 6-2 7-3 7-4 8-3"/>
<path d="M7608 7386l 6 0 1-1 3 0 4-2 3-1 4-1 5-2 5-2 6-2 7-3 5-4 6-3 6-3 6-4 7-3 6-4 6-4 5-2 5-4 4-4 4-3 3-4 2-3 2-2 0-3 1-2-1-3 0-1-2-1-3-2-3-1-4-1-5-1-6-1-7-1-14 0-8-1-8 2-8 1-8 2-8 1-8 2-9 3-7 2-8 3-7 4-7 3-5 3-5 4-4 3-3 3-3 4-3 4-2 4-2 5-1 4-1 5-1 6 1 5 1 6 1 6 2 6 4 7 4 5 4 7 5 5 6 7 7 6 6 6 8 6 7 5 9 5 9 5 9 4 10 4 9 2 11 1 10 0 10-1 10-1 12-3 10-3 12-5 11-5"/>
<path d="M7818 7353l-1-1-4 0-2 1-2 0-2 1-3 3-1 1-1 3-1 3-2 3 0 5 0 9 0 5 1 5 2 5 1 5 3 4 3 4 3 5 3 4 3 4 4 4 4 3 3 3 5 3 3 2 5 2 4 1 3 2 5 0 13 0 4 0 4-2 4-2 4-2 4-2 4-3 3-4 4-4 4-4 2-5 3-5 3-7 2-6 2-7 3-7 1-6 1-7 1-8 0-15-1-8 0-9 0-8-1-9-1-10"/>
<path d="M8066 7103l 0-4 1-1 0-1 2-2 2-1 3 0 4-2 5 0 6-2 6-1 7-1 8-1 9-3 8-1 9-1 9-1 10-1 9-1 9-1 9-1 10-2 8-1 9-1 8-1"/>
<path d="M8077 7097l-1 1-2 0-1 2-2 1-2 2-1 3-2 2-1 5-1 5-1 5 0 41 1 10 0 53-1 13 0 12-1 14-1 15-1 15-2 15-1 16-1 16-2 17-1 16-2 17-3 18-2 15-3 17-2 18-3 16-2 16-2 16-1 15-2 14 0 13 0 12 0 11 1 9 2 10 2 8 2 7 3 5 4 6 3 5 5 4 5 4 5 3 6 3 7 3 7 2 8 2 7 1 9 2 9 1 19 3 9 1 10 0 11 1 11 2 11 0 63 0 10-1 9-2 9-2 10-1 10-2 10-2"/>
<path d="M8398 7422l-2-4-3-4-4-5-4-6-5-6-5-6-6-7-4-4-5-4-5-5-4-3-5-2-5-3-5-2-6-1-4-1-12 0-5 2-6 0-6 2-6 3-6 5-6 5-6 5-5 6-6 6-5 7-4 8-4 7-5 7-2 8-3 6-2 7-2 8-1 6 0 11 0 4 2 4 1 5 2 2 3 3 2 2 3 2 4 1 4 0 5 1 6 0 6-1 7-1 8-2 8-2 9-3 8-4 10-4 8-4 9-5 8-5 8-5 7-4 7-4 5-3 5-4 5-3 4-3 4-2 4-5 1 0 1-1 0-1 0 1-1 0 0 1 0 0 0 0 0 0 1 0 2 5 1 1 1 3 0 2 2 3 0 3 2 3 2 4 1 4 3 3 2 4 3 4 2 4 3 4 2 3 7 7 3 3 4 2 4 2"/>
<path d="M8513 7366l-1 0-1-1-2 0 0-1-2 0 0-1 0-1 21 0 5 0 6 0 5-1 12 0 6-1 6 0 6 0 7-1 7-1 13 0 7-1"/>
<path d="M8822 7206l-1 0 0-1-2 0-1 2-1 1-1 2-1 3-1 4-1 6-2 7-1 7-2 8 0 10-2 10 0 12-1 11-1 12 0 26-1 12 1 13 0 13 1 13 0 13 1 12 0 12 2 23 1 11 1 11 1 11 1 10 1 9 0 8 1 7 2 6 0 6 1 4 1 2 1 3 2 0 1 0 2-1"/>
<path d="M8818 7066l 0-1-1-1 0-2 1-2 0-1 1-2 1-2 2-1 3-2 4-1 3-1 5-2 5-2 5-1 6-1 6-2 13-2 6-1 6-2 8-1 7-1 8-1 7-1 8-1 6-2 7 0 7 0 7-1 7-1 6-1 10 0 5 0 5 0 2 0 3 0 2 1 3 0 1 1 4 3 0 1 0 2 0 0 1 2 0 2 1 2 0 2 0 3 2 3 1 3 0 5 2 5 1 5 2 6 1 7 2 7 2 8 2 8 3 9 2 9 3 10 4 10 3 11 5 10 3 11 5 11 5 11 4 10 5 11 4 11 5 11 5 12 4 10 5 12 5 12 5 12 4 12 4 13 5 12 3 13 4 13 3 12 2 13 3 12 2 13 2 13 1 12 2 12 0 11 0 13 0 12 0 12 0 11-2 11-1 21-2 11-1 9-1 10-3 8-2 8-2 8-3 6-3 6-2 5-4 4-4 3-3 4-4 3-6 3-5 2-6 3-6 0-7 2-8 2-7 1-16 1-16 0-8 1-8-1-7 0-8-1-7-1-8-2-7-1-6-1-7-2-6-1-6-2-5-2-5-2-5-3-5-3-3-3-3-2"/>
<path d="M9246 7315l 1-1 0-1-1-1 0-1 11 0 4-1 5 1 38 0 8 1 20 0 10-1 32-2 11 0 11-2 10-1 11-2 10-3 10-2 10-2 9-3 8-3"/>
<path d="M9336 7196l-3 1-1 2-2 1-3 2-1 3-1 5-1 4-2 6 0 20 1 8 1 8 1 9 2 8 2 8 1 9 2 7 2 10 2 8 1 8 3 8 1 9 1 8 2 8 2 8 1 7 3 8 2 8 2 6 2 7 3 7 3 5 3 5"/>
<path d="M9570 7255l 0-1 0 1-1 0 0 1 1 2 1 1 0 2 2 2 2 3 2 3 3 5 4 5 3 5 4 6 4 6 4 8 5 7 4 8 4 7 5 9 4 9 5 8 5 9 5 9 5 9 5 9 5 8 7 9 6 9 5 8 13 17 7 9 7 8 7 8 6 7 7 7 7 6 7 6 7 5 7 4 7 5 8 3 7 4 7 3 6 1 7 1 13 0"/>
<path d="M9776 7298l-6 0-4 1-4 1-5 2-4 3-5 2-4 5-6 5-5 6-6 6-7 8-8 9-7 10-18 20-10 11-10 11-10 12-10 12-10 13-10 11-10 12-10 12-9 12-8 11-8 11-7 10-7 9-7 9-5 7-5 7-4 6-3 4-2 4-2 2 0 2"/>
<path d="M9882 6977l-1-1-1 0-2-1-2-1-1-1-2-2-3-3 0 0 1 0-1 0 1 0 0 0-1-1-1-1 0 0-1-2 0 0-1-1 0-5 1 0 0 1 1 0-1 0 1 0 0 1 1 1 1 0 1 1 2 2 2 2 2 2 3 3 3 3 4 2 3 5 2 3 3 4 4 4 3 4 4 5 4 5 4 5 3 6 5 6 4 5 4 8 5 7 5 8 4 8 4 9 4 11 5 12 3 12 5 12 3 13 4 13 3 14 3 13 4 14 3 14 2 13 3 15 2 13 3 14 2 15 3 15 2 15 3 15 2 15 2 16 3 15 2 16 2 15 2 14 2 15 1 14 1 15 2 13 1 13 2 13 0 12 1 13 0 47-1 11-1 11-1 12-3 10-2 10-3 11-4 10-3 9-5 10-5 10-5 9-5 9-6 10-7 8-6 9-8 9-7 8-8 8-7 8-8 7-7 7-7 6-6 6-6 5-5 5-5 5-5 4-4 4-3 3-5 4-4 4-4 2-5 3-4 4-4 3"/>
<path d="M3714 7811l 0-1-1-2-1-2-2-2-2-3-1-3-2-2-2-2-2-2-1-3-2-1-2-2-1-2-2-2-2-1-2-1-2-1-2-1-2-1-1-1-2-1-5 0-2 0-2 0-3 0-3 1-2 1-4 1-4 2-4 3-4 4-5 3-6 4-6 5-6 6-6 6-7 7-6 7-7 7-7 8-6 9-7 9-6 11-7 10-6 10-6 11-5 10-5 9-3 9-3 8-3 7-1 7-1 7 0 11 1 5 0 5 2 4 2 3 2 4 3 3 3 4 5 4 4 2 5 3 6 3 7 2 7 2 7 0 9 1 9-1 9 0 11-2 10-3 11-4 12-5 12-6 13-7"/>
<path d="M3766 7596l-1-3-3-2-2-4-3-2-2-3-3-3-2-3 0-2-1-1-1-1 0 3 1 2 1 3 2 2 2 4 2 5 3 5 3 7 3 8 3 9 4 10 2 10 3 11 3 12 2 13 2 14 2 14 1 16 1 15 2 17 0 17 0 18 1 17 0 51-1 16 0 16 0 15-1 15-1 14-1 14 0 12-1 10-1 10 0 9-1 6 0 5-1 5 0 3 1 1 0 1 1-1 1-1 1-3 1-2 2-4 2-5 3-6 2-8 4-9 4-9 4-10 4-12 9-22 5-12 4-11 5-11 4-11 5-10 3-10 4-8 3-7 3-8 3-6 3-6 2-5 2-5 2-4 1-4 2-4 1-1 0-1-1 1 0 0-1 2 0 1-1 2 0 3-1 4 0 4-2 5-1 5 0 7-2 6 0 8-2 7-1 8 0 7-1 8-1 8 0 7-1 8-1 7 1 7 0 6 1 7 0 6 2 4 2 4 2 4 4 3 2 2 5 2 5 1 5 1 6-1 7 0 7-3 9-3 9-6"/>
<path d="M4049 7790l-2 1-2 1-3 2-4 1-3 3-5 3-4 3-3 3-4 4-4 4-3 4-3 4-4 5-2 5-3 4-2 5-3 5 0 5-2 5 0 4 0 4 0 3 1 3 1 3 2 2 2 2 2 1 2 1 4 1 8 0 5-1 5-1 5-2 11-4 6-4 6-2 5-5 6-4 5-4 6-5 5-4 4-5 4-5 4-5 3-5 3-6 2-4 3-5 1-4 0-9-1-4-2-4-1-2-2-4-3-4-4-2-3-3-4-3-4-2-4-2-4-3-4-1-5-2-4-1-4-1-4-1-3-1-10 0-2 1-2 0-1 1-2 1 0 1-1 0 1 1 0 2 2 3 0 0 2 2 2 2 3 2"/>
<path d="M4164 7798l-1 0-1 1-1 0-1 0-2 2-1 1-2 2-2 1-2 2-2 3-2 2-2 4-2 3-1 3-2 4-1 3-2 4-2 4-1 3-1 4 0 3 0 4 0 6 0 4 1 3 3 4 2 2 1 2 3 1 2 1 3 2 2 0 4 1 9 0 3-1 4-2 3-1 4-1 3-3 4-3 4-3 4-4 4-3 4-4 3-5 3-4 4-4 3-4 2-5 1-4 1-4 1-4 0-4 0-3-2-4-1-3-2-2-3-3-2-2-3-2-2-2-3-1-3-2-3-1-3-1-3 0-3-1-3 1-4-1-3 2-2 0-4 3-1 2-2 1-1 2 0 2 0 1 0 2 0 1 2 3 1 1 1 0 1 1 2 1 1 0 2 0 3 1 6 0 3-1 4 0 4-2 5 0 4-2 4-2 5-3 5-3 5-3 5-3 5-4 5-3 4-4 3-4 4-4 4-4 3-4 3-3 3-4 3-3 2-4 2-3 1-3 1-2 2-3 0-3 1-2 1-2 0-4-1-1-1 0-1 1-1 1-1 0 0 1 0 1 0 2-1 1 0 5 1 3 0 3 0 4 1 5 1 5 2 5 1 5 3 5 2 5 3 5 2 4 3 4 3 4 2 3 3 3 2 4 3 3 2 3 2 3 3 3 2 4 3 2 1 4 2 4 2 2 1 3 1 3 0 2 1 3 1 2 0 2-1 3-1 2 0 3-1 2-2 2-2 1-2 2-3 1-2 1-3 1-3 0-3-1-3 0-3-1-3-1-2-2-3-2-2-2-3-3-2-3-2-3-1-2-1-3-1-3 0-3 0-6 0-3 1-4 1-3 1-3 2-2 2-3 2-2 2-3 3-1 3-2 3-2 2-1 4-1 4-3 2 0 4-2 4-1 3-1 3-1 4 0 3-1 7 0 2 1 3 0 3 0 3 1 5 0 2 1 2 0 2 1 3 0 1 0 1 0 2 2 2 0 2 0 2 1 2 1 1 1 11 0 3-1 2-1 3-1 3 0 3-2 4 0 3-3 4-1 4-3 4-2 4-3 4-3 5-3 3-3 4-3 4-4 4-2 2-4 4-4 4-3 2-2 3-4 3-3 3-4 2-4 3-2 1-4 2-4 1-2 1-3 1-3 0-3 0-3 0-2-1-2-1-2-2-2-1-3-2-2-2-1-3-2-3-2-2-1-3-2-3-1-3-1-4 0-6 0-3 0-3 1-3 1-3 2-4 3-3 3-3 2-3 3-3 4-3 4-3 5-2 5-2 5-3 5-1 5-2 6-2 6-1 5-1 6-1 6 0 6 0 7 0 7 1 5 1 7 1 6 2 5 3 6 2 5 3 5 3 4 4 5 3 3 5 4 4 3 4 2 5 3 6 1 6 1 6 1 7 1 8 1 8-1 8-2"/>
<path d="M4887 7627l 1 1 0 0 3 3 2 2 3 3 3 3 4 4 3 4 5 4 4 4 5 5 5 5 5 6 5 5 5 7 6 6 5 7 5 7 6 6 5 7 6 7 6 5 6 6 6 6 6 6 6 5 7 5 6 5 5 5 6 5 6 5 5 5 5 3 5 4 5 3 4 3 9 4 4 2 5 1 4 0 5 1 4-1 5-1"/>
<path d="M5094 7620l-1 1-4 2-4 2-4 4-5 3-6 5-5 5-6 6-6 6-5 7-7 7-6 8-6 8-8 9-7 9-9 9-7 11-9 12-9 11-8 12-8 12-9 12-7 12-8 12-7 11-7 11-11 20-5 8-5 9-3 7-4 8"/>
<path d="M3587 8567l-1 0 0 1-1 0 0 1 1 1 0 1 1 0 1 2 0 1 1 2 1 1 1 3 2 2 0 3 2 3 1 3 0 5 2 4 0 4 0 4 1 5 0 35-1 5 0 4-1 4-1 5-1 4-1 4-1 4-2 3-1 4-2 3 0 2 0 1-1 1 0 1 0 0 1-1 0-1 0-2 2-1 1-3 2-4 1-5 2-6 3-8 4-9 4-10 4-11 5-11 5-13 5-12 6-13 5-12 5-12 6-11 5-12 5-10 10-19 5-9 4-7 4-7 4-6 3-5 4-5 4-5 3-3 3-4 3-2 3-1 2-2 1 0 2-1 2 1 1 0 2 2 1 1 1 2 1 3 1 4 1 4 0 4 1 6 0 13-1 7 0 8-2 8-1 8-2 7-2 9-2 9-2 7-2 8-2 8-1 7-2 7-2 6-1 5-1 5-1 4-2 3 0 3 0 2 0 2 0-1 0-1 1 0 1-2 1-2 1-2 2-4 2-4 2-5 3-6 3-8 3-7 4-9 4-9 3-9 9-17 4-9 4-9 4-8 4-8 3-7 4-8 3-7 3-6 4-5 3-5 3-5 2-4 3-3 1-3 2-2 2-2 0-2 1-1 1 0 0 0 0 0 0 1 0 4 1 2 1 2 1 3 0 3 1 3 1 5 0 4 0 6 1 5 0 35-1 7 0 7 0 6-1 7 0 7-1 6 0 7 0 5 0 21 0 4 1 4 0 3 1 3 1 3 2 2 1 2 2 2 2 1 3 1 3 1 9-2 4-1 6-1"/>
<path d="M3999 8477l 0-1-1-1 0-2-1-1-1-1-1-2 0-1-1-2-1-2-1-1-2-2 0-2-2-1-3-3-1-2-1-1-2-1-1-1-2-1-3-1-2-1-1-1-3 0-2 0-9 0-3 0-2 1-4 1-4 2-4 3-3 3-5 2-4 5-4 3-4 5-4 4-4 6-4 5-4 5-3 5-4 5-3 6-3 6-3 7-3 6-3 6-2 6-1 5-2 6-1 5-1 4 0 4 2 3 0 3 2 2 2 2 2 1 2 1 4 1 3 0 3-1 4-1 5-2 4-1 6-3 5-4 5-5 6-3 6-6 6-5 5-5 5-5 5-4 5-5 5-4 5-5 3-4 4-4 3-4 4-4 2-4 2-4 2-3 2-3 1-3 1-2 1-3 0-1 0-1 0-2 0 2 0 0 0 5 0 2 1 3 1 2 0 3 2 2 1 4 2 4 1 3 2 4 1 3 1 3 3 4 2 3 2 3 1 2 2 3 3 3 2 3 3 3 2 3 3 2 2 3 3 2 2 2 3 2 2 1 3 3 4 0 3 2 3 1 2 2 3 0 4 0 3 1 3 0 4 1 3-1 5 0 3-1 5-1 4-2"/>
<path d="M4118 8400l-1-1-5 0-1 1-2 0 0 1-1 1-1 1 0 1 0 3-1 2 0 2-1 3 0 3 1 4 0 3 1 5 0 3 1 5 1 3 2 4 1 5 3 4 2 4 3 4 3 4 4 4 2 4 5 4 3 4 4 4 4 4 4 4 5 3 5 4 3 4 5 3 5 3 4 3 5 3 4 3 4 3 5 2 8 5 5 2 5 1 4 1 8 0"/>
<path d="M4251 8378l-1-1-3 0-7 0-4 0-3 1-3 1-3 3-3 2-3 3-4 3-4 4-4 3-4 5-4 5-4 5-5 7-4 5-4 8-4 8-5 9-5 9-6 9-5 10-5 10-5 10-5 9-4 9-5 9-4 9-4 9-3 7-3 8-2 6-3 7-2 6-2 6-1 4"/>
<path d="M3777 8848l 0-1-1 0 0 0 0 0 1 0 1 2 3 2 2 2 3 4 3 4 5 5 5 7 6 8 6 8 7 10 7 12 7 11 7 12 7 13 7 12 7 12 6 12 7 11 8 10 5 10 7 10 7 9 7 8 6 8 6 7 7 7 5 6 6 7 5 5 6 5 5 5 4 3 5 4 5 2 4 2 5 1 4 0 4-1 5-2 5-3 5-5"/>
<path d="M3961 8873l-1 1-3 0-3 3-3 1-4 3-5 3-3 4-4 5-4 4-4 6-5 7-4 7-4 7-5 8-4 9-5 7-15 28-5 8-4 10-5 10-5 9-5 10-4 9-5 10-4 8-3 9-3 7-2 6-1 6-1 5 0 7 2 2 2 0"/>
<path d="M4541 8163l-1-2-1-2-1-2-1-3-2-2-2-2-1-1-3-2-2 0 0-1-2-1-3 0-1-1-1 1-2 0-2 1-1 1-3 1-2 1-2 2-2 2-3 3-3 3-3 5-5 5-4 7-4 7-6 9-6 11-6 12-7 14-8 15-9 16-8 18-9 19-10 20-10 21-10 22-9 24-10 24-10 25-10 26-9 26-9 26-8 26-7 25-6 25-5 25-5 24-5 23-3 25-4 23-3 23-2 24-3 23-1 23-1 23-1 22 0 22 1 23 1 22 2 22 2 20 2 21 4 21 3 20 3 18 5 19 4 18 5 18 5 15 6 17 5 16 7 15 6 15 7 14 7 12 7 12 7 12 7 10 7 8 8 8 7 7 7 6 7 5 6 4 7 3 6 3 7 1 5 2 6 0 5 0 6-1 5-1"/>
<path d="M4490 8579l 1-2 1-2 1-2 1-4 1-3 1-3 2-3 1-2 0-2 2-1 0-2 1 0 1-2 0-1 1 0 1 1 0 1 1 1 0 1 1 1 1 3 1 2 1 3 1 2 1 5 2 3 0 5 1 5 1 5 0 6 0 14 1 7-1 8 0 15 0 7-1 7 0 6-1 7-1 6-1 6-1 6-1 4-1 4 0 4-1 2-1 2 0 3 1 0 0-1 1-1 1-3 1-3 1-4 2-5 2-5 2-5 3-7 2-8 3-8 3-8 3-9 4-9 3-8 2-8 4-9 3-8 3-7 3-6 2-7 3-5 2-7 2-5 2-5 2-4 2-4 2-3 1-3 1-2 0-2 1-1 0-1 0 1 0 1 0 2 0 1 1 2 0 3 1 3 0 4 2 5 1 4 0 5 1 6 0 25-1 6 0 19 0 5 0 27 0 1 1 1 0 1 1 0 0-1 0-1 2-1 1-1 1-1 1-3 3-2 2-3 3-5 3-5 3-5 4-6 2-6 4-6 3-7 3-6 3-6 2-5 3-6 2-6 3-5 2-4 3-5 2-4 3-5 2-4 2-3 1-3 2-3 2-4 1-2 1-3 1-1 1-2 1-2 0-1 1 0 0 0 0 0-1 0 0 50 1 5 0 5 0 4 1 5 0 4 1 5 0 4 0 5 1 3 1 5 1 3 0 3 1 3 1 4 2 2 2 1 2 2 2 0 3 0 3 0 4-2"/>
<path d="M4754 8530l-1 1 0 3-2 2-1 3-2 3-1 4-2 4-1 4-1 4-1 5-2 4 0 4-1 5-1 4 0 9 0 4 0 8 0 3 0 8 1 4 1 3 1 4 1 3 1 3 2 2 1 2 2 1 1 1 2 0 2-1 2-1 3-2 3-4"/>
<path d="M4771 8371l-1-1-2 0-1-2-2 0-2-1-2-1-1 0-1 1 0 8 1 3 0 2 2 2 1 3 2 3 2 2 2 2 3 1 3 2 3 3 4 2"/>
<path d="M4824 8502l 1 2 0 15 0 4 0 3 1 3 2 3 0 3 1 4 1 4 2 4 1 5 2 6 1 5 2 7 1 6 1 7 3 6 1 7 1 6 2 6 2 5 1 6 3 5 1 5 2 4 2 3 2 3 1 2 2 2 4 0 2-1 1-1 2-2 3-3 3-5 4-5 4-5 4-7 5-8 5-9 5-9 4-11 10-20 4-10 5-10 5-11 4-10 4-10 7-17 4-8 3-8 3-6 2-6 2-5 1-3 2-4 1-2 1-1 1-1 0-1-1 1-1 1-1 1 0 2 0 3-1 4-1 5 0 6 0 8-1 8-2 20-1 22 0 11-1 11 0 21 1 9 1 10 1 9 2 8 2 9 2 8 6 12 3 6 4 5 4 5 5 3 5 3 6 2 6 2"/>
<path d="M5345 8131l-1-1-1 0-2-1-2 0-2-1-6 0-2 0-1 0-4 0-2 1-1 0-2 1-1 1-2 1-3 3-3 3-3 3-3 5-4 6-4 7-5 9-3 10-5 11-5 14-7 15-6 17-7 18-7 20-7 23-8 24-8 24-8 25-7 28-8 28-8 30-14 60-7 30-13 63-6 31-5 30-4 31-7 60-2 29-3 28-1 28 0 57 1 28 2 26 2 26 3 26 3 22 4 23 4 22 5 20 5 18 5 17 5 15 7 13 5 13 7 11 6 8 7 8 6 6 7 5 6 4 6 3 6 3 6 1 5 0 6 0 4 0 4-2 4-2 5-3 4-3 4-5"/>
<path d="M5398 8395l-1 1 0 1 0 2 0 2-1 3-1 4-1 5 0 6 0 6 0 7-1 8-1 9 0 11 0 11 0 12-1 13-1 12 0 13-1 13 0 14 0 25-1 13 0 12-1 12 0 11 2 22 0 9 1 8 1 6 1 6 1 4 1 3 2 1 1-1 2-1 1-3 2-5 2-6 3-8"/>
<path d="M5404 8336l 0-6 1-3 0-2 2-3 2-3 3-3 3-4 4-4 4-4 5-4 6-5 6-4 5-4 6-4 6-3 6-2 5-2 6-1 10-2 10 2 4 1 5 2 4 3 4 4 4 3 3 5 2 4 3 6 2 6 0 6 1 6-1 6 0 7-2 7-1 7-3 7-3 7-3 8-4 7-4 7-5 7-4 6-4 5-4 7-3 4-4 4-3 4-3 3-2 3-6 3-2 0-3 0-2 0-2 0-3-1-2-1-2-1-1-2-2-1"/>
<path d="M5624 8299l 0 6-1 2 0 3 0 3 0 8-1 4 0 33 1 5 0 10 0 5 0 21 0 4 0 4 0 3 0 4-1 2 0 2-1 2 0 2-1 0 0-4 0-2 0-5-1-3-1-5 0-5 0-5 0-7-1-6 1-6 0-7 0-7 1-6 1-7 0-6 1-6 1-5 1-5 1-4 1-4 0-4 2-3 1-2 2-2 1-1 1-2 1 0 2 0 2-2 2 0 3-1 11 0"/>
<path d="M5705 8330l 1 1 0 1 0 2 1 1 1 2 1 2 2 1 0 1 2 2 1 1 2 0 2 2 5 0 2 1 2-1 2 0 2-1 3-1 2-1 3-2 2-1 4-2 7-4 4-3 3-4 3-2 4-4 3-4 4-3 3-5 3-3 2-4 2-4 2-5 1-4 2-4 1-4 0-2 0-7-1-2-2-1-1-2-2-1-2-1-2-1-3-1-3-1-3-1-6 0-2 1-3 0-2 1-3 1-2 1-3 1-2 1-2 1-2 1-2 2-2 3-3 3-2 2-3 5-2 3-1 4-3 5-2 5-2 5-2 4-3 6-1 5-2 4-2 6 0 4-2 6 0 4 0 8 0 4 0 4 2 3 1 4 2 3 2 3 2 4 3 3 3 3 3 3 4 3 5 2 4 2 4 2 5 1 10 2 12 0 13-2 7-1 7-2 7-3 7-2"/>
<path d="M5859 8310l-1-1 0 1-2 0-1 1-1 1-1 1-2 2-1 2-1 2-1 2 0 3-1 3-1 3 0 3 1 4 0 2 1 4 1 3 1 3 3 3 2 2 3 3 2 3 3 2 3 3 3 2 3 2 3 1 3 1 3 1 3 1 3 1 3 0 4-1 4-1 3-1 4-2 4-2 4-3 3-3 4-4 3-4 3-4 4-5 3-6 2-5 2-6 2-6 1-6 2-6 1-6 0-6 1-6 0-11-1-5-1-5-1-5-1-5-2-5-2-4-2-4-2-4-2-4-3-2-2-3-3-2-2-1-2-1"/>
<path d="M5970 8126l 1-2 0-2 1-2 2-2 1-2 3-2 3-2 3-2 12-5 6-1 6-2 6 0 6-1 7-1 7-1 7-1 8-1 6-1 8-1 7-1 8-2 7-2 7-3 7-2 7-3 8-3 5-3"/>
<path d="M6019 8103l-1 2-3 2-3 4-4 4-3 4-4 6-3 7-3 7-2 7-2 8-2 9-1 9-1 9-2 10-1 21-1 12 0 11 0 12-1 12-1 12 0 11-1 12-1 23 0 12-1 11 0 12 0 11-1 10 0 39 1 7 0 7 1 6 1 5 2 5 1 4 2 3 2 3 2 2 2 1 3 1 2 1 3 0 4 0 7 0 5 0 12 0 6-1 7-1 8 0 7-1 8 0 8-1 9-1 15-1 9 0 8-1 8-1 9 0 9-1 8-1 9-3 10-2"/>
<path d="M6222 8250l-2-2-3-3-4-4-4-2-4-3-5-4-4-1-4-2-7 0-4 1-4 1-4 3-5 1-4 4-6 4-5 5-6 6-6 7-6 7-6 8-6 8-5 8-5 9-5 8-5 8-3 8-4 7-2 7-2 6-1 5 0 5 0 7 0 2 3 5 2 1 2 1 3 0 3-1 4-1 4-1 5-1 5-3 6-3 6-4 7-4 6-5 6-5 7-5 6-5 7-5 5-6 5-5 5-4 4-4 4-5 2-4 3-3 2-4 1-2 2-2 0-2 1-2 0-1-1 0 0 1 0 1-1 0 0 1-1 0 0 0-1 1 0 4 1 2 0 3 1 3 1 3 0 4 2 4 1 4 2 4 2 5 3 3 2 4 3 4 2 4 3 3 3 3 3 3 4 2 3 2 3 2 4 1 4 1 3 1 5-1 3-1 5-1"/>
<path d="M6273 8117l-1-1-5 0 1-1 1 0 0-1 1 0 2-1 1 0 2-1 2 0 3-1 4 0 4-1 4-1 5-1 5-2 5-1 5-2 5-2 5-3 5-2 4-2 4-2 4-2 5-2 3-1 4 0 2-1 3-1 3-1 2-1 1 0 2 0 2 0 1 0 0 1 2 3 1 2 1 2 1 3 0 4 1 3 1 5 0 5 2 5 1 5 1 5 2 6 2 6 3 6 2 7 4 5 3 7 3 6 3 7 4 7 3 6 3 7 4 7 3 8 4 7 3 8 3 8 3 8 3 9 3 8 3 9 3 8 2 9 3 9 2 9 2 8 2 10 1 9 3 9 1 9 1 9 0 9 1 8 0 22-1 5 0 5-2 3 0 4-2 2-1 3-2 1-3 3-4 2-5 3-4 3-7 3-7 3-8 3-10 4-9 3-11 3-10 4-10 3-10 2-10 3-10 2-10 2-9 1-16 3-7 1-8 1-7 0-6-1-5-1-9-3-3-2-2-3-2-3 0-4 1-4"/>
<path d="M6601 8253l-4 0 0 1 3 0 2 0 1 0 2 1 3 0 4 1 4 0 5-1 6 0 6-1 8-1 8-2 8-2 8-2 10-3 9-3 9-3 9-3 10-2 8-3"/>
<path d="M6766 8168l-1-1 0 0 0 0-1-1-1 0-1-1 1 0 0 2 2 0 0 0 1 0 1 1 0 1 0 0 0 0-1 0 0 1-1 0 0 1 0 0-1-1-2 0 0 1-2 0-2 1-1 0"/>
<path d="M6757 8173l 1 1-1 0 0 0-1 2 0 1-1 2 0 2-1 1 0 11 1 3 1 4 0 4 2 4 1 5 2 5 2 6 3 6 2 6 3 6 4 6 3 6 5 6 3 7 5 6 4 7 4 7 5 7 4 7 5 7 5 7 4 7 5 7 4 6 5 7 5 6 5 6 3 6 4 6 5 6 4 5 4 5 4 4 3 4 4 4 4 3 3 3 2 2 3 2 2 1 2 1 3 1 2 0"/>
<path d="M6875 8200l-1 1-2 2-3 2-2 3-3 3-4 6-4 4-3 6-4 5-4 6-4 7-5 7-5 8-5 8-17 26-5 9-7 9-6 9-5 10-7 8-10 18-4 7-4 8-4 7-3 7-2 5-2 7-1 4 0 4 0 2"/>
<path d="M6949 8386l 0 2 1 3 0 4 0 4 1 5 1 6 0 6 1 6 0 26-1 7-1 7-1 8-2 9-2 9-3 10-3 10-4 11-4 11-5 10-6 12-5 11-6 12-7 12"/>
<path d="M5251 9002l-1 0-1 1-2 0-2 6-1 4-1 5-1 6 0 8 0 9 0 11 0 63 0 14 0 12 2 14 0 14 1 13 1 13 1 13 1 12 2 12 0 11 2 11 1 10 2 9 1 9 1 8 2 6 1 6 1 4 1 3 1 2 1 0 1 0 1-1 1-2 1-4 1-4"/>
<path d="M5219 9018l-1-1 0-7 2-3 2 0 2-2 3-1 3-1 4-1 5-2 6-1 5-1 7-1 6 0 7-1 7 0 6 1 12 0 6 1 10 1 4 2 4 1 3 2 2 1 3 2 1 2 2 3 0 2 1 3 0 3-1 4 0 4-2 5-3 4-3 6-3 5-4 6-5 5-5 6-4 7-5 5-5 5-4 5-5 5-4 5-5 4-5 4-4 4-4 4-9 6-3 2-4 2-4 2"/>
<path d="M5390 8998l 0 9-1 3 0 9 1 3 0 3 1 3 0 2 0 2 1 4 1 3 0 3 1 2 0 3 1 2 1 3 0 3 1 2 1 2 0 2 1 3 0 6-1 1 0-3-1-1-1-1 0-2-1-2-1-3-1-2-2-4-1-4-1-3-1-4-1-5-1-4 0-4-1-4-1-3 0-13 1-3 1-3 0-2 2-3 1-2 2-3 3-3 2-2 3-3 2-3 4-3 4-2"/>
<path d="M5506 8995l 1 0 0-1 0 0 1 0 1 0 8 0 3 0 4-1 3-1 4-1 4-2 4-1 4-3 4-2 5-3 4-3 5-3 4-3 5-4 3-4 4-4 3-3 2-4 3-3 0-4 2-4 0-4-1-2-1-1-1-2-2-1-2-1-4 0-4-1-8 2-5 0-6 2-5 2-6 2-5 3-5 2-5 4-5 3-5 3-5 4-4 3-4 4-4 3-3 3-2 5-3 4-2 3-2 5-1 4-2 5-2 5-1 5 0 4-1 5-1 5 0 6 1 5 0 6 1 5 1 5 2 5 2 5 2 5 3 4 3 4 3 5 4 4 4 3 5 4 4 2 5 3 6 2 6 2 6 0 7 1 8 0 9-1 8-1 9-3 9-3 9-3"/>
<path d="M5692 8948l-1 1 0 1 0 2 0 2-1 3 1 2 1 3 1 5 2 3 2 5 3 4 3 5 3 5 5 6 3 5 4 5 5 5 5 5 4 5 5 4 5 5 5 5 5 4 5 4 5 4 6 4 5 5 5 4 5 4 5 4 4 4 4 3 5 3 4 2 4 1 4 2"/>
<path d="M5782 9068l 0-1 1-3 0-1 1-2 1-2 1-2 0-3 0-2 1-3 1-5 1-4 2-4 1-4 1-5 2-5 1-5 2-5 3-6 2-6 1-6 2-5 3-7 2-5 3-7 2-6 3-6 3-6 3-6 3-5 3-4 2-5 2-4 2-3 1-3 2-2 1-2 0-1 2-1"/>
<path d="M5889 8733l 0-1 1 0 1 0 3 0 2-1 3 0 4-1 4-1 10-1 17-2 6-2 6 0 7-1 6-1 6-1 7-2 6-2 6-1"/>
<path d="M5896 8739l 0 1-1 0-1 2-2 1 0 2-2 3-1 3-1 4-1 4 0 5 0 12 0 7 0 7 1 8 2 8 0 9 2 10 0 10 1 10 2 11 0 11 0 12 1 13 1 13 0 28-1 14 0 16-1 15 0 16-1 16-2 15-1 18-1 16-2 16-1 17-2 16-2 17-1 16-2 15 0 14-1 15-1 13 0 11 1 11 1 9 0 8 2 6 1 5 2 4 1 4 1 2 2 2 1 1 2 2 2 0 2 1 2 0 3 1 4 0 13 0 6 0 6 0 6-1 7 1 7-1 8-1 7 0 8-1 8-1 8-1 8-1 9-1 9-1 8-2 9-1 8-1 9-3 8-2 8-3 6-2"/>
<path d="M6104 9031l-2-1-12 0-10-2-10 0-4 1-3 1-9 1-4 1-4 2-4 2-5 3-5 2-5 4-5 3-5 4-5 5-5 5-5 5-4 6-4 5-3 6-2 6-2 5-2 3 0 4 0 6 0 4 2 2 1 1 2 2 2 1 2 2 3 0 3 0 3 1 5-1 4 0 10-1 6-2 5-2 5-2 6-2 5-3 5-2 5-3 4-3 5-3 3-3 4-3 3-2 2-3 3-3 2-2 5-4 0-1 0-1 0 3 0 2 0 0 0 2 1 1 1 3 1 6 1 3 1 3 2 3 1 4 1 4 1 3 2 3 2 3 1 3 3 3 2 3 2 2 2 2 2 2 2 2 3 1 2 1 3 1 6 0 3-1 5-1"/>
<path d="M6174 8978l-1 0 0-1 0 0 3 0 2 1 2 0 2 1 3 0 3 0 4 0 3 1 10 0 5-1 6 0 6 0 13-3 6-2 7-2 7-2 6-3 7-3 6-3"/>
<path d="M6338 8847l 0 1 1 0 0 1 0 1 1 2 1 2 1 2 2 3 1 4 2 3 2 5 2 5 2 5 2 5 2 7 2 7 1 6 2 8 2 8 1 8 1 9 1 9 1 10 1 8 0 10 1 9 0 9 1 9 0 17 1 8 0 8 0 7 0 12 1 6 1 5 1 2 1 3"/>
<path d="M6351 8688l-2 0-4 1-3 0-2 1-2 1-1 0 2-2 1 0 4-2 2 0 4 0 3-1 4-1 5-1 5-1 12-1 6-2 5-1 5 0 6-2 5 0 6-1 10 0 5-1 5-1 5 0 5 0 5-1 5-1 5 0 4-1 5-2 5 0 4-1 5-1 9-2 3-1 4-1 2-1 3 0 2 0 2-1 2 0 1-1 1 0 0 1 1 1 0 1 1 1 1 3 0 2 2 3 1 2 2 5 1 3 2 6 2 6 1 7 2 7 2 9 3 9 2 9 3 10 2 11 3 11 2 10 4 12 3 11 3 12 4 13 4 13 3 13 4 14 3 14 3 15 4 15 3 15 3 16 3 16 4 15 3 16 3 15 3 15 3 15 3 13 4 15 3 14 3 13 3 12 4 10 3 11 2 11 3 10 2 7 1 9 2 8 0 7 1 7 0 11-1 5-1 4-1 3-1 3-3 3-3 3-4 3-5 3-5 2-7 3-6 2-8 3-9 2-8 3-9 2-19 3-10 0-9 2-10 0-19 0-10 1-9 0-9 1-9 0-9-1-7-1-15 0-5-1-6-1-10-3-4-2-3-3-2-3-3-4"/>
<path d="M6676 8920l 1 1 0 1 1 1 1 1 3 2 2 1 3 2 5 1 4 2 4 2 5 1 6 1 13 1 13 0 8-1 7-1 8-2 7-3 7-3 7-3 7-3 7-5 7-5 6-5 7-5"/>
<path d="M6739 8812l 0 1-1 0-1 2-2 2-1 3-1 3-2 4-1 4-2 5 0 6-1 7 0 23 1 9 1 8 1 8 2 9 2 8 2 9 2 8 2 9 3 9 2 8 3 9 3 7 3 7 4 6 3 6 3 7 4 4 4 6 3 5"/>
<path d="M6963 8838l-2 1-2 3-4 2-3 5-2 3-3 4-3 4 0 4-1 5 1 5 0 4 3 4 2 4 3 5 4 5 3 4 5 4 5 5 5 4 6 5 6 4 6 4 7 4 6 3 7 4 6 5 6 5 7 5 7 4 6 5 8 4 6 6 6 3 7 5 6 4 5 4 5 3 5 4 5 3 5 2 5 4 4 1"/>
<path d="M7027 8842l-2 2-3 4-4 3-4 5-5 5-6 8-5 7-5 7-5 8-5 8-10 17-4 10-5 9-5 10-6 9-5 9-5 10-5 10-6 10-5 8-4 8-5 8-3 7-3 7-3 6-1 6-1 6-1 4 0 4"/>
<path d="M7008 8139l 0-1-1 0 0 1 1 1 1 0 1 1 2 1 3 2 4 3 3 3 5 5 5 5 7 7 7 6 6 8 8 8 8 9 9 9 8 8 9 10 9 10 9 10 10 11 18 23 9 11 10 13 8 12 9 13 8 14 8 13 7 15 8 15 7 16 7 16 6 17 5 18 6 18 5 18 4 20 5 21 3 21 3 22 2 23 2 23 1 22 0 48-1 25-3 26-2 26-3 25-4 24-4 25-4 24-5 23-5 23-5 21-12 40-6 18-6 17-6 15-6 14-5 12-5 12-5 9-5 8-4 7-4 6-4 4-2 3-4 3-3 0-1 0"/>
<path d="M7251 8273l 0-1 1-1 0-1 2 0 3 0 3 0 3 1 4 1 5 3 5 2 5 3 6 3 7 4 6 5 6 5 7 6 7 6 7 7 7 8 8 7 8 8 8 8 8 10 9 10 9 10 9 12 10 13 9 14 9 14 9 15 9 17 9 17 8 18 8 18 7 19 8 18 7 20 6 20 6 18 5 20 5 20 4 19 4 18 3 20 2 19 2 19 1 20 0 39-1 19-2 20-2 20-2 20-3 20-3 20-3 21-4 20-5 20-5 19-4 19-5 18-10 36-5 16-5 16-6 16-11 27-7 12-5 11-6 10-6 9-7 7"/>
<path d="M3909 10006l-1-1-2 0-2 0-2-1-3 0-3-1-2-1-2 0-2-1-1 0-1-1-1 0-2-1 0-1 0 1 1-1 3 0 1 1 5 0 4 1 4 0 10 2 6 0 6 1 6 1 7 1 15 0 7-1 8-1 8-1 9-1 8-1 7-2 8-3 8-2"/>
<path d="M3884 10086l 0 2 1 1 0 1 0 1 1 1 2 2 2 1 2 2 2 2 4 2 3 1 4 2 5 1 6 0 7 2 7-1 7-1 9-1 9-3 10-1 10-3 12-2 11-4"/>
<path d="M4324 9978l 0-1 0 1-1 0 0 1 0 0 0 1 0 1 0 1 1 2 1 5 1 3 1 5 1 4 1 5 1 6 2 5 1 7 2 8 2 7 1 9 2 9 2 10 1 10 2 10 2 11 1 11 2 12 0 12 2 12 1 13 1 13 1 13 1 26 0 14 1 11 0 47-2 18 0 8-1 7-1 5 0 4-1 3 0 4 0-2-1-2 0-4-1-5 0-7 0-8-1-9"/>
<path d="M4274 10006l-1-6-3-6-1-7-2-7-2-8-2-7-2-8-1-5 0-5 0-5 0-4 0-4 1-4 2-5 1-4 1-4 3-4 2-3 3-3 2-4 4-3 4-4 4-4 4-3 5-3 5-4 7-2 5-2 7-2 7-1 6-1 7 0 8-1 7 1 8 0 7 1 7 0 7 2 7 1 7 2 7 2 6 2 5 2 5 3 5 2 4 4 3 2 3 4 3 4 2 4 2 3 0 5 1 4 0 4-1 5-1 6-2 5-3 6-4 6-8 14-6 8-6 7-6 7-7 7-7 7-7 7-8 7-7 6-8 5-7 5-7 4-7 5-7 3-7 2-5 1-6 0-4 1-5 0-4-1-4-1-2-2-3-2-2-2-1-3"/>
<path d="M4523 9841l 0 2 1 2 0 4 0 3 0 3 2 2 1 3 0 4 2 3 1 4 2 4 2 3 1 4 2 4 2 4 3 3 4 9 2 3 2 5 2 4 2 4 1 5 1 4 1 5 0 5 0 14 0 4-1 5-2 3-1 3-1 3-1 3-2 2-1 1-1 2 0 1-2 0-1 1-2-1-1-1-2-1-2-1-2-3-3-2-3-5-2-4-1-4-2-5-1-5-1-5 0-6-1-6-1-6 0-6 1-6 1-7 1-6 1-6 3-6 2-7 3-6 3-7 4-6 5-6 4-7 5-6 6-7 11-13 6-6 6-5 6-6 7-5 7-5 6-4 6-4 6-2 7-3 6-2 6 0 6-1 6 0 6 1 5 0 5 2 4 3 8 5"/>
<path d="M4706 9880l 0 1 1 2 0 2 1 3 1 2 1 1 2 3 1 1 1 1 1 0 2 2 2 1 1 0 2 0 3 1 6 0 3-1 3 0 4 0 4-2 4-1 3-1 5-2 4-2 4-2 4-3 4-2 4-3 4-2 4-3 3-3 3-3 4-4 2-4 3-3 2-5 1-5 2-3 1-3 0-9-1-3 0-2-3-3-1-2-3-2-3-1-3-2-4 0-3-1-13 0-5 1-3 0-4 1-3 1-4 1-3 1-4 1-4 2-3 1-4 2-3 2-3 3-2 2-3 2-2 2-2 2-3 2-1 2-1 3-2 3-1 4-1 3-1 5-1 4 0 4-1 5 0 10 1 4 1 5 1 6 1 4 1 5 9 18 2 2 3 4 3 3 2 3 4 2 3 2 4 1 4 2 5 1 5 1 5 0 6-1 7 0 7-2 8-2 7-2 9-3 9-4 9-4 9-3 9-4 10-4 9-5 9-4 9-4 8-4"/>
<path d="M4926 9803l-1-1-1 0-7 0-1 0-1 0 0 1-1 0 0 3 1 1 0 1 0 2 1 2 1 2 1 3 3 6 1 4 3 3 1 4 2 5 2 5 2 5 3 6 2 5 2 5 2 5 3 5 2 4 2 4 3 3 3 3 2 3 3 2 3 1 2 2 3 1 2 1 6 0 2-1 2-1 1-2 2-3 5-5 3-5 2-5 3-6 2-7 1-6 2-6 2-8 1-6 1-6 1-6 0-7 0-22 0-5-1-5-2-5 0-3-2-3-1-4-2-3-1-2-1-3-2-2-2-3-1-1-3-1"/>
<path d="M5109 9642l 6 0 2-1 3 0 3 0 5 0 12-2 6-1 6-1 7-2 7-2 7-2 7-3 7-1 7-3 7-3 7-2 6-3"/>
<path d="M5102 9636l 0 1-1 3 0 2-1 4-1 4-1 5 1 6 0 12 1 7 1 7 1 7 1 6 1 7 2 8 1 7 1 6 2 8 1 9 2 8 0 8 1 9 2 20 0 62-1 13-1 15 0 13-1 14 0 13-1 13-1 14-1 13-1 13 0 13-1 12 0 34 1 9 2 16 1 6 1 7 3 3 2 5 2 4 3 3 2 3 3 2 2 2 3 1 2 2 3 0 3 1 4 1 43 0 7-1 21 0 8-1 15 0 8 0 8 0 8 0 8-1 8-2 7 0 8-1 8-1 7-2 8-1 7-2 7-3"/>
<path d="M5384 9893l-1-2-3-3-4-2-4-3-15-9-5-2-5-1-4-2-6-1-5-1-12 0-5 1-6 1-6 2-6 2-6 3-6 3-5 3-5 4-5 3-5 4-4 4-3 4-3 4-3 3-2 4-2 3-1 4-1 2 0 5 1 2 1 1 2 2 1 1 2 2 3 2 3 1 4 1 3 1 4 0 5 0 5 1 10-1 5-2 5-1 6-2 5-1 5-2 5-2 4-1 5-2 3-2 4-1 3-2 3-2 2-1 2-1 2-2 1-1 2-1 1-1 0 0 1 0 1 0 0-1 0 1 0-1 2 0 1 1 0 0 2 0 0 0 2 1 1 1 2 0 2 1 4 3 3 1 2 1 2 2 3 1 2 1 3 2 6 3 3 1 3 2 3 1 4 1 3 1 4 1 4-1 9 0 5-1 5-2 6-3"/>
<path d="M5479 9587l-1-1-2 0-1-1-1 0-1-1 0 0 0 0 1-1 2 0 2 0 2-1 5 0 8-1 5-1 12-3 5-1 6-1 7-2 6 0 6-2 6-1 7-1 5-1 7-1 5-1 6-1 6 0 10-2 5 0 4-1 4 0 3-1 3 0 3 0 4 0 2 0 2 0 1 1 1 1 1 1 1 2 1 1 1 2 1 3 1 4 2 3 1 4 1 4 1 5 2 5 1 6 2 7 1 6 2 7 2 8 1 7 2 8 2 8 3 7 2 8 2 7 2 9 2 9 2 9 2 8 3 10 2 10 3 10 2 10 3 10 2 10 3 11 2 11 3 10 2 11 3 11 2 11 3 11 2 11 5 22 2 11 2 11 2 11 2 10 1 10 1 10 0 11 1 10 0 19-1 10 0 8-2 8-1 7-2 6-2 6-3 5-4 5-4 3-4 5-5 2-6 3-7 3-7 2-6 1-8 1-9 0-7 0-9 0-9-1-10-1-9-1-10-2-10-2-9-1-19-4-8-2-9-2-8-1-7-3-7-1-6-2-6-2-6-2-5-3-4-1-4-1-5-3"/>
<path d="M5911 9814l-1-1 0 0 0-1 0-1-1-1 1 0 1 0 1-1 5 0 3 1 4 0 4-1 12 0 5-1 7 0 7-2 7-1 8-1 7-1 9-2 9-3 9-2 9-3 10-3 11-3 10-3 11-4 10-5 9-5 9-4 9-6 7-4"/>
<path d="M5977 9716l-4 0-3 1-3 0-3 1-3 0-2 1-1 1 0 0-1 1 0 7 1 4 0 3 1 5 2 5 1 6 1 6 2 6 2 6 2 6 2 7 2 6 3 7 2 6 3 6 2 8 3 6 2 7 3 7 2 8 3 9 2 7 2 8 3 8 2 7 3 8 2 6 3 6 4 5 4 6 4 4"/>
<path d="M6226 9816l 0-1 1-1 0-2 0 0 0-2 1-1 1-1 1 1 1 0 1 1 2 1 2 1 2 2 2 3 3 3 2 4 3 4 3 6 2 6 3 8 2 9 2 10 2 10 2 13 1 12 1 14 1 14 0 14 1 16 1 15 0 32-1 18 0 17-1 17 0 16 0 17-1 16-1 16 0 15 0 14 0 13-1 12 0 27-1 6 0 7 1 2 0 2 0-1-1-1 0-3-1-3-1-5-1-7-2-7-2-10-2-10-2-11-3-12-2-12-4-13-3-12-3-14-3-14-3-14-4-14-2-14-3-15-2-15-3-13-2-15 0-14-2-14 0-41 1-12 1-12 2-12 1-10 2-10 2-9 3-8 2-7 3-7 2-5 3-6 3-5 3-5 3-4 2-4 2-3 3-3 2-2 2-2 2-1 6 0 3 1 3 0 3 2 4 1 4 2 10 5 5 3 6 4 5 3 5 4 6 4 5 4 5 4 4 4 4 5 4 5 3 5 3 6 2 5 3 6 1 6 0 12-1 6-2 7-2 5-4 6-3 7-10 14-6 8-6 6-6 6-6 6-7 6-6 4-5 4-6 3-5 2-5 2-4 1-4 1-3 0-3-1-2-1-3-2-1-3"/>
<path d="M6436 9778l 0 1 1 0 0 3 0 2 1 2 1 2 0 3 1 3 1 3 1 4 0 3 2 3 1 4 2 4 1 4 2 5 2 4 2 4 2 4 6 13 2 4 2 4 1 5 2 4 1 3 1 4 1 4 0 2 0 8 0 0 0 1-1 1 0 0-1 0 0 1-1-1-1 0-3-1-1-1-2-3-2-3-2-4-1-4-2-5 0-6-1-5-1-8 1-6 1-6 0-7 2-6 2-6 2-5 2-5 3-4 3-5 3-4 3-3 4-4 4-4 4-3 4-2 4-3 5-4 4-3 3-2 5-2 5-3 6-1 5-2"/>
<path d="M6600 9788l 1 0 0 1 0 2 1 1 1 1 1 2 1 1 1 1 1 0 2 0 3 0 2 0 2-2 3 0 3-1 4 0 3-2 4-1 3-2 5-2 4-1 3-2 4-2 4-4 5-3 4-3 4-3 3-2 4-4 3-4 4-3 3-3 3-4 2-2 1-3 2-4 1-3 1-3-1-2-1-1 0-2-2-1-3-1-3-1-3 0-4-1-5 0-5 1-6 0-6 1-6 2-6 2-6 2-5 3-6 3-7 3-5 4-6 3-5 5-10 8-5 5-4 5-4 5-3 5-3 5-2 5-3 5-1 5-1 5-1 5 0 9 1 5 1 4 2 4 3 3 3 3 3 2 5 3 5 2 5 2 6 1 6 2 21 0 7-1 7-2 7-2 8-2 7-3 8-3 8-4 7-3 8-3 7-4 7-4 6-4 7-5 6-4 6-5 5-4 4-5 5-3 2-4 3-3 1-3 1-2 1-2 1-2 0-4 0 1-1 0 0 1-1 1 0 3 0 1 0 6-1 4 1 4 0 4 1 4 2 5 2 4 2 5 2 4 3 4 3 4 3 3 3 3 3 2 4 3 2 2 4 1 3 2 3 2 3 0 2 0 3 0 3 0 3-1 4-1 2-4 3-2 3-3 3-4 3-3 3-4 3-5 2-5 2-7 3-5 2-6 2-7 2-8 2-6 1-8 1-7 1-16 0-23-1-7 0-7-1-14 0-7-1-6 0-6 0-5-1-6 0-6 1-4 0-5 2-4 2-5"/>
</svg>
