<svg xmlns="http://www.w3.org/2000/svg" viewBox="632 542 9504 5896" stroke="black" stroke-width="40" stroke-linecap="round" stroke-linejoin="round" fill="none" data-xena="0 0"><style>@media(prefers-color-scheme:dark){svg{background-color:black;stroke:white;}}</style>
<path d="M953 1630l 0-1 7 28 4 27 3 36 2 27 4 29 4 30 3 30 4 30 3 30 2 27 3 25 3 35 1 28 0 25"/>
<path d="M3584 1658l-1-1 12-23 22-19 26-16 23-10 27-8 31-6 33-2 32 1 28 5 26 15 11 28-6 31-18 32-18 24-21 25-25 26-26 25-29 24-28 24-28 22-25 20-23 18-20 15-22 15-21 13 24-9 30-10 28-8 32-3 34-3 26-1 27-3 29-2 29-1 26-1 24 1 32 2"/>
<path d="M2460 2276l 1 0 27-1 25-2 28-3 32-4 35-6 35-6 32-4 31-3 30 0 28 0 28 1 29-1 28-2 25-4 28-6 25-8"/>
<path d="M5764 2102l-2-1 24-3 26 1 29 1 32 0 35 0 24-1 25-1 26 0 26-1 24 0 32 1 25 0 26 3"/>
<path d="M1127 2646l 1 0 13 24 11 23 11 23 10 27 13 32 8 22 11 27 11 28 12 32 13 32 15 34 16 32 19 29 21 26 23 23 26 19 28 16 32 12 32 10 35 8 37 5 37 3 40 2 41-1 42 0 42 0 40 0 39 0 40-2 42-2 43-5 47-8 23-5 25-6 24-6 24-8 24-7 25-8 24-9 24-8 25-9 22-9 44-15 42-14 40-13 40-13 39-13 37-13 35-14 33-15 31-15 29-17 29-20 29-20 29-23 28-24 25-25 23-25 20-25 17-26 15-27 12-25 8-25 7-23 5-32-1-30-3-25-6-23"/>
<path d="M1775 1405l-1-1 0-28 14-21 14-19 17-20 23-23 18-18 22-20 24-21 27-21 26-19 26-18 26-18 28-18 29-19 32-20 34-21 37-21 39-23 40-22 41-20 41-18 42-17 39-17 36-14 34-12 33-11 33-9 33-9 27-6 31-5 35-5 26-2 28-3 30-1 31-1 31-1 31 1 32 1 45 2 28 2 26 2 45 5 37 6 29 6 27 6 29 7 28 7 26 6 22 8 23 9 23 12 22 12 22 13 28 17 27 18 28 22 26 24 23 25 21 25 20 26 18 25 14 21 14 26 14 23 13 24 14 25 14 26 11 22 10 22"/>
<path d="M4891 2416l 0-1 4 25 9 31 8 26 9 25 10 26 11 24 14 25 16 23 21 22 24 21 28 19 32 18 25 10 25 10 28 10 26 9 26 8 28 8 28 7 28 7 29 5 30 5 32 5 33 3 33 3 32 0 30-2 29-5 29-6 31-10 30-13 27-14 25-15 22-17 22-18 20-21 20-23 20-25 19-27 18-28 17-29 16-30 16-32 13-30 10-30 8-26 10-32 7-26"/>
<path d="M4781 1504l-1-3 2-25 21-18 22-9 27-5 32-4 29 0 32 2 32 3 29 7 26 12 11 23-11 28-18 21-24 22-28 22-27 19-23 16-22 14 27-2 34-7 25-4 26-3 24-2 36-1 33 3 32 5 24 8 19 22 5 25-5 27-10 23-15 22-18 20-19 18-20 19-20 15-28 13-29 6-29-1-27-10-22-15-16-19"/>
<path d="M3404 2139l 1-1 29 6 27 7 27 4 35 1 27-3 31-3 33-5 34-7 37-8 40-7 40-7 40-6 37-5 33-4 32-2 29-2 29-1 28-1 27-1 24-1 32-2 26-1 25-1"/>
<path d="M2433 1666l 4-4 25-20 21-12 25-12 28-11 29-9 30-7 32-5 37-4 25-1 25-1 25 2 31 6 25 11 22 14 22 23 10 28-6 32-17 26-17 19-20 20-22 21-24 20-26 20-29 20-31 19-33 19-35 17-37 18-36 15-34 15-29 13-23 11-27 11-24 8 28 0 25-6 30-7 33-9 35-9 24-5 35-7 25-3 25-3 24-3 32-1 27 1 30 4 27 7 23 12 23 13"/>
<path d="M1611 1890l 0-4 5-25 11-23 20-18 29-10 24-8 30-10 34-10 35-8 33-5 28-4 24 2 13 25-8 27-12 25-17 27-18 30-21 30-21 32-22 33-23 32-23 32-21 30-19 27-17 24-18 28-12 22 25 7 27-6 24-7 25-9 27-11 32-14 33-11 32-10 33-6 31-5 28-3 25 0 30 3"/>
<path d="M5881 1430l 0-2-24 18-10 24-12 27-13 30-12 29-14 28-12 27-12 25-9 24-9 32-3 26 6 24 22 9 33-4 33-12 25-11 27-11 27-12 28-12 27-12 26-11 25-10 24-10 31-12 25-10 26-10"/>
<path d="M6007 1426l-2 0-22 17-6 33-1 26 0 30 2 34 4 36 6 35 6 36 9 37 8 35 9 34 8 32 10 30 8 27 8 24"/>
<path d="M1176 4555l-1-2 5 26 5 31 2 24 3 28 2 32 3 33 1 35 2 35 2 35 2 32 3 29 2 26 3 29 2 26"/>
<path d="M2007 4477l 1 0 6 27 4 31 3 27 2 31 0 35 0 38 0 39-1 38 1 38 1 36 3 33 3 29 3 24 5 25 12 22"/>
<path d="M2846 4529l 0-3 8-24 26-18 27-16 23-10 23-9 24-7 25-7 25-2 34 0 31 7 29 12 26 18 19 23 12 28 2 34-3 24-8 26-14 27-18 28-21 28-25 27-26 25-28 23-29 20-28 18-25 14-21 13-23 12-22 9 21-18 25-13 32-12 24-6 26-5 27-3 28-4 28-3 27 0 25 0 25 4 32 8 24 13"/>
<path d="M1237 5680l-1-1-6 27 6 34 7 33 5 26 4 28 5 31 4 32 5 33 4 31 3 30 2 26 1 24 3 32 3 25 9 25"/>
<path d="M2007 5757l-1-1 26-14 31-8 25-6 26-5 27-3 25-3 27-1 24 0 34 2 27 5 24 13 7 25-9 24-20 30-21 23-25 23-28 24-30 23-32 23-33 23-31 22-31 21-28 21-24 18-25 20-18 17 29 3 35-7 31-7 35-9 37-7 39-8 37-7 38-5 36-6 36-4 34-3 30-4 26-1 34 0 29 1"/>
<path d="M3015 5614l-1-2 20-20 30-11 35-8 33-3 31 2 25 6 21 12 16 21 8 26-2 26-11 25-19 23-20 15-24 16-20 15 29-4 25-3 28 0 27 0 27 5 24 5 26 12 16 24 0 29-9 26-17 27-15 20-16 20-19 19-20 18-22 16-25 13-26 11-26 6-27 4-24 1-34-4-30-11-23-18"/>
<path d="M1221 5151l 0-1-4 30-1 30 1 36 3 25 3 26 3 25 2 28 1 27 0 25 0 25-1 33 0 27 0 27 2 27"/>
<path d="M2118 5201l 0 0-1 26 2 33 2 30 3 30 3 33 3 33 2 32 3 31 2 28 4 25 5 26"/>
<path d="M3073 5052l 0-1 4 27 0 28-2 25-1 31-2 34-1 34-2 34-2 32 0 30 0 29 1 25 2 27 7 25"/>
<path d="M5031 4513l 0 0-10 28-3 24-1 29 2 31 2 37 2 25 2 27 2 26 3 26 5 33 2 28 0 25-1 25"/>
<path d="M5907 4471l 0-1 24-15 29-7 24-1 32 0 35 4 25 4 32 11 26 12 22 20 2 27-17 22-18 19-23 20-26 21-29 22-31 22-31 23-29 21-26 22-24 18-19 18-23 22-15 20 29 8 26-3 34-5 24-6 28-4 30-7 33-5 32-5 31-3 29-1"/>
<path d="M6797 4379l-1-1 32-5 33 1 35 4 35 5 31 7 23 10 18 20-8 28-16 22-22 20-25 18-22 15-22 16-17 18 26 8 29-2 28-1 32 1 32 4 33 8 28 10 23 16 16 20 11 28-4 28-13 23-21 25-27 25-30 20-33 16-25 9-26 7-27 5-26 3-24 0-30-5-24-7"/>
<path d="M7843 4379l-1-1-27 9-18 23-16 28-12 20-13 23-14 23-13 24-12 24-9 23-8 30 0 30 17 18 30 7 34 3 28 1 33-2 36-4 39-4 39-6 38-5 35-5 33-5 27-6"/>
<path d="M7933 4524l-1-1-10 22 0 25 4 30 9 31 14 33 10 23 10 24 12 25"/>
<path d="M8725 4384l 1-1 26-5 34-3 27-3 25-2 24-2 34-3"/>
<path d="M8762 4402l-3 0-22 11-21 23-12 22-9 26-7 25-6 25-4 25-2 24 16 20 25-1 30-6 25-4 27-6 29-7 29-6 30-7 31-7 30-6 28-5 25-4 32-1 25 5 23 12 12 21-2 29-14 28-19 21-25 21-30 17-32 14-33 8-33 6-33 1-29 0-26-5-21-11"/>
<path d="M9513 4351l 0-1 29 1 31 1 35-1 36-1 35 0 25-1 32-1 27-1 27-2 23 11-7 29-11 27-14 32-12 23-12 23-12 22-12 23-14 25-15 22-14 23-13 22-19 30-15 26-13 24-11 24"/>
<path d="M5011 5647l-2-2-18-18-10-23 21-19 26-16 29-12 24-6 26-2 25 2 24 5 26 10 17 19-7 26-15 21-19 24-20 22-18 17-20 17 22 14 28 4 31 5 33 7 31 6 27 9 26 14 15 19 2 24-13 30-22 27-20 17-23 18-23 14-24 13-25 10-23 8-34 7-26 1-25-3 2-27"/>
<path d="M5783 5609l-1-2 18-17 27-3 25-2 27 2 28 3 25 6 29 12 21 18 2 26-19 23-24 19-21 14-26 15-22 12 28 5 32-1 27 0 28 4 30 5 32 8 30 9 25 12 21 13 18 19 5 28-9 22-20 24-19 17-21 17-24 16-25 15-23 12-25 10-33 11-31 5-27 1-29-8-25-16"/>
<path d="M6948 5468l-1-1 27-1 29-2 34-5 25-5 25-7 25-6 33-10 27-8"/>
<path d="M7006 5483l-2 1-22 10-20 20-18 27-12 24-10 27-5 28-3 27 2 28 12 22 29 5 25-5 33-10 25-9 25-6 25-5 25-5 33 0 30 0 30 5 24 7 23 12 2 29-12 22-19 27-16 19-16 20-18 19-17 18-18 18-26 21-27 13-28 9-27 1-30-10-21-24-7-31"/>
<path d="M7836 5399l-4 1-23 13-23 22-19 30-10 24-9 26-6 28-4 29-1 28 2 28 4 27 7 25 10 23 16 29 21 24 22 20 27 16 27 10 25 3 31-4 25-13 16-21 5-27-6-28-12-21-20-18-27-10-31-5-32-1-28 5-27 12"/>
<path d="M8910 5362l-1-1-25-5-23 10-21 21-18 24-19 31-12 24-12 26-9 27-8 29-5 28-3 28-2 27 2 24 6 33 11 26 16 24 17 19 25 17 29 4 29-10 24-20 12-24 1-26-10-24-17-26-21-22-23-15-27-10-25-3"/>
<path d="M9493 5371l-1-1 32-3 31-2 33-5 33-4 35-3 26-3 24-3 32-2 30 0 29-2 16 24-4 25-9 33-13 34-9 26-10 27-10 25-11 28-11 28-12 29-13 30-12 28-12 27-11 24-10 22-12 30-10 27-7 23-9 27"/>
</svg>
