<svg xmlns="http://www.w3.org/2000/svg" viewBox="995 2715 17075 15770" stroke="black" stroke-width="16" stroke-linecap="round" stroke-linejoin="round" fill="none" data-xena="0 -4 0"><style>@media(prefers-color-scheme:dark){svg{background-color:black;stroke:white;}}</style>
<path d="M1666 2820l-1 0-7 23-10 28-10 29-8 25-8 24-10 31-9 30-6 25-7 24-5 24-8 29-7 27-7 24-9 27-9 25"/>
<path d="M2237 2849l 0-1-11 27-11 29-10 28-7 27-4 24-4 27-3 26-3 25-5 29-5 24-6 24-6 23"/>
<path d="M2844 2835l 1-1 22-10 25-3 29-1 29 4 29 8 28 8 26 9 25 12 17 18 4 24-10 25-19 24-18 19-22 22-24 23-28 21-27 19-28 15-26 15-26 13-25 12-24 10-26 12-26 11-20 14 25 2 25-5 29-9 26-7 28-6 30-9 30-6 32-4 30-3 26-3 28 1 25 4"/>
<path d="M1361 3407l 1 0 22-8 26-2 24 0 25-2 29-3 32-2 33-3 25-2 25-1 27-1 28-1 29-1 31-1 32-1 33-1 34-1 35-1 37 0 40-1 42 0 44-1 45 0 45-2 46-1 47-2 24-1 25 0 25-1 25-1 24-1 25-1 26-1 26-1 26-2 25-1 26-2 26-2 26-1 25-2 26-2 26-1 25-2 25-2 24-2 25-1 24-2 25-2 24-1 45-3 43-3 43-1 41-2 38-2 36-1 33-1 28-1 27 0 24 1 32 0 25 1 24 2"/>
<path d="M3736 2867l 0-1 24-13 27-10 23-8 24-7 25-4 25-4 28-2 25 0 25 8 17 17-6 23-19 21-22 20-25 19-26 16-28 14-22 12-23 10-28 11-24 8-25 9 23-9 29-9 27-6 29-1 24 0 27 3 27 4 25 5 23 7 24 9 24 12 18 17 3 26-12 23-17 19-24 18-28 18-22 13-24 12-25 10-26 9-25 5-25 6-25 4-31 5-30 0-26-4-27-9-20-12-17-19"/>
<path d="M4477 2886l 0-1-1 25-4 30-7 27-5 30-4 30-5 28-5 26-7 25-12 26-15 27-16 28-15 22-12 22"/>
<path d="M4839 2880l 2-1 24-9 29-5 24-2 26 2 28 4 28 3 28 6 25 7 24 10 20 17 9 24-13 25-22 24-22 21-24 23-24 21-23 19-23 16-24 15-21 16-21 14-23 18-19 22-11 23 19 18 31 6 25 0 29-3 29-5 30-5 31-6 33-5 34-7 33-6"/>
<path d="M5773 2853l 2-1 25-8 29-3 30 0 26 4 24 5 24 9 16 18-18 23-24 17-28 16-23 11-23 10-27 15-23 14-18 16 13 22 25 7 26 8 29 10 27 10 26 10 26 10 22 11 25 14 20 15 14 22-5 23-17 18-19 16-24 15-29 13-26 9-29 8-29 6-30 5-28 3-26 2-25 0-25-2-25-2"/>
<path d="M6402 3210l 0-1"/>
<path d="M6565 3273l-1 0"/>
<path d="M6812 3301l 1-1 20-16 24-10"/>
<path d="M1418 4837l 0 0-4 27-5 28-8 31-7 26-10 31-8 33-9 34-7 33-8 34-7 34-7 34-7 31-8 32-6 29-9 25-10 26-12 24"/>
<path d="M2085 4954l 0-2 17-21 22-14 23-9 27-5 25-1 25 1 25 3 25 6 28 9 22 10 17 17 6 26-8 28-18 28-20 23-24 25-26 24-27 22-29 22-20 16-20 15-21 14-20 14-29 17-25 16-21 14-21 16-21 13 28-7 29-10 23-9 27-9 26-9 28-8 26-8 27-7 28-7 26-7 26-5 23-6 30-6 27-3 28 0"/>
<path d="M2908 4850l-1-1 3 29 4 26 2 31 2 26 1 26 0 29 0 28 2 28 1 27 1 26-1 25-1 24-1 28 0 26 1 24"/>
<path d="M1179 5588l 2-1 25-6 25-4 26-4 27-4 34-4 25-3 26-3 28-4 30-2 33-3 36-4 40-2 42-4 43-4 46-3 48-3 24-1 26-1 27-1 25-1 28-1 28-1 28-1 29-1 29 0 30-1 30 0 31 0 32 0 30 0 32 0 32 0 32 0 32 0 33 0 32 0 32 1 33 0 33 0 32 0 32 0 32 0 33 1 32 0 31 0 31 0 29 0 30 0 29 0 28 0 28 0 26 0 26 0 26 0 25 1 25 0 24 0 47 0 43 0 39 0 36 0 32-2 30 0 25-1 30 0 26-2"/>
<path d="M3765 4912l 0-1 18-16 25-3 27 0 28 3 28 6 24 5 30 8 28 8 23 8 24 11 17 18-2 26-16 21-25 19-21 14-24 13-23 12-25 12-25 10-24 12-28 11-26 10 24 7 28 0 29 2 28 1 31 4 30 5 27 7 25 9 23 11 22 17 15 19 8 25-7 25-11 25-16 25-16 18-17 19-19 18-21 16-21 14-22 13-23 11-23 8-29 8-28 2-28-5-26-10-23-11-23-16-22-17-21-14"/>
<path d="M4461 4960l 2 0 27 5 28 6 24 7 24 5 27 10 23 8 18 17-3 26-19 26-21 23-24 25-17 16-25 25-24 24-26 23-28 23-28 20-28 20-24 17-21 14-19 16 14 20 25-4 30-8 25-7 26-6 25-5 28-5 27-5 27-5 27-5 27-2 30-3 27 1"/>
<path d="M5206 4952l 0 0-6 24-2 28 1 26 0 27-1 28-3 30-2 29-2 28-4 25-7 28-12 25"/>
<path d="M5690 4956l 0-1 21-13 27-9 28-5 26-1 25 2 32 5 31 8 27 8 26 10 23 11 20 14 15 19-12 25-22 19-25 12-27 12-23 10-25 10 22 11 27 1 26 1 24 6 25 12 20 21 15 20 15 21 12 25 2 27-9 23-19 22-23 19-26 16-22 9-25 8-30 6-27 5-28 4-26 2-25 2-25 1-25 1-28 2-28 1"/>
<path d="M4384 4803l 0-1 24-4 25-3 32-6 28-2 34-1 25-2 27-1 30 0 32-1 32-1 35 0 36-1 38-2 41-2 43-2 48-1 48-2 26-1 26-1 26-1 26-1 26 0 27 0 27-1 26-1 28-1 25 0 27 0 27 0 28 0 25 0 27 0 26 0 25 0 25 0 24 0 46 0 43-1 40-1 37-1 34-1 32 0 27-1 24-1 28 0 24 0"/>
<path d="M1209 6833l 1-2 14-20 21-14 25-12 23-10 26-9 29-8 30-5 28-3 30-2 27 2 24 6 22 10 20 17 14 25 4 30-7 31-10 25-11 26-15 27-19 25-17 25-17 22-15 22-18 21-20 22-24 21-26 20-26 19-26 17-23 15-24 13-22 11-23 11-22 9 25-10 29-8 29-6 24-4 25-5 29-6 29-5 29-4 28-4 30-3 29-3 27-1 25-2 27 0 27 3 19 16"/>
<path d="M2229 6755l-1 0-2 25 1 29-1 26-1 25-1 27-3 27-2 27-3 27-4 27-4 25-6 24-9 29-9 26-8 26 0 25 26-3"/>
<path d="M3033 6733l-2 0-15 21-6 26-4 26-6 28-3 28-5 31-4 24-4 30-6 28-6 25-6 29-5 27-1 25"/>
<path d="M3773 6708l 0-1 15-19 23-12 27-3 29-1 26 0 26 1 25 1 28 1 26 4 17 20-13 24-18 23-22 20-25 19-19 15-21 13-25 13-24 13-22 11 28-2 26 0 30 3 28 5 29 4 29 6 29 6 30 6 27 9 23 10 21 18 13 21-3 26-17 25-19 20-23 18-24 17-24 14-27 10-28 9-28 5-25 3-27 0-25-2-28-4-25-5-29-8-25-8"/>
<path d="M1183 7404l 2 0 27-2 24-1 30 0 31-1 28-1 31 1 32 2 24-1 28 0 29 0 31-1 34-1 35 0 36-1 38-1 40 0 41 1 43 0 43 1 44 0 45 0 47 3 48 0 24 1 25 1 25 1 24 1 24 0 24 0 25 1 48 2 25 0 24 1 25 0 47 1 24 0 25 1 25-1 47 0 25 0 47 0 47-1 47-1 44 0 43-2 40-1 39-2 37-2 36-1 35-2 35-1 33-2 32 0 31-2 29-1 26-2 27-1 24-3 24-1 32-2 28-2 29-1 27-4"/>
<path d="M4673 6712l 1 0 4-24 19-15 22-11 22-12 27-8 25 0 24 9 23 12 25 16 21 13 21 14 22 12 25 17 21 16 18 16 7 25-8 23-15 20-18 17-21 20-26 20-20 15-30 21-20 13-30 19-29 17-29 17-27 15-25 15-21 14-25 16-22 15-21 17 22 11 25-4 24-6 30-4 29-4 29-3 31-4 31-3 31-2 31-1 30-1 26-1 27 0 26 3 19 15"/>
<path d="M5600 6777l 0-2 2 27-3 27-4 32-6 34-7 35-5 24-7 24-6 25-7 24-8 23-8 25-8 22-12 31-10 25-9 28-7 25"/>
<path d="M6058 6838l 1-1 22-14 22-10 28 0 28 3 24 4 25 4 26 4 27 3 27 5 28 4 28 6 25 6 24 6 26 9 22 13-1 26-21 17-29 13-28 9-31 8-30 9-30 8-30 7-30 9-25 7-24 7-23 12 20 15 27 0 27 3 24 4 30 5 29 7 29 8 23 7 22 10 21 16 5 27-12 23-20 21-20 14-19 14-25 16-26 14-30 12-29 8-31 3-28-1-26-8-24-13-18-17-13-20-8-25"/>
<path d="M6979 6816l 2-2 19-15 24-10 29-4 30 3 24 6 25 9 23 11 23 11 22 11 20 17 14 24 6 23-4 24-18 25-24 19-22 15-23 14-25 14-25 13-26 12-26 12-25 11-27 13-24 13 4 24 28 5 31 0 28 0 31 1 31 1 28 1 31 2 29 2 25 3 25 3"/>
<path d="M5687 6455l 2 0 25-3 30-1 32-1 27 0 32 1 25 1 25 1 28 2 28 2 29 3 32 3 33 4 35 3 37 3 41 4 43 4 44 3 47 4 48 3 25 1 26 2 26 0 25 3 28 0 27 2 28 1 28 2 29 1 28 2 30 2 29 2 29 2 30 2 29 2 30 1 29 2 30 1 28 3 28 1 29 2 28 1 27 2 27 3 25 1 26 2 26 1 24 3 24 0 45 3 41 3 39 2 37 2 33 2 32 2 26 1 33 2 24 2 26 6"/>
<path d="M10268 6942l 0-1 4 29 1 30-2 25-3 29-3 30-5 34-4 35-5 25-4 25-5 25-7 25-5 25-6 25-7 24-8 33-11 32-10 28-9 29-6 24"/>
<path d="M10232 6987l-1-5 0-27 6-25 11-21 17-23 24-16 24-10 27-9 29-8 30-5 27-2 28 3 23 10 13 23 3 30-4 25-9 28-15 31-19 30-15 19-16 19-24 26-23 23-22 18-21 15-26 16-26 12"/>
<path d="M10541 7062l 0 0 20-15 22-16 20-17 19-19 17-25 19-26 21-30 19-22 16-25 16-23 17-25 16-27 16-28 13-29 15-29 11-29 9-29 9-31 6-30 5-30 4-30 1-30 1-29 0-28-1-26-3-34-6-26-7-25-22-12-19 16-20 23-13 21-12 24-12 28-12 29-11 32-10 32-9 33-8 34-8 34-6 35-5 35-5 35-4 35-2 33-2 32 1 30 2 28 5 26 7 34 10 27 17 25 21 17 26 9 31-1 24-8 27-14"/>
<path d="M11003 6870l-1-2-13-21-22-9-25 10-22 17-20 21-20 25-16 19-16 25-9 22-9 23 6 25 23 9 26-6 24-12 21-14 18-18 17-17 20-23 15-19 11-24-18 19 8 26 17 17 24 7"/>
<path d="M11310 6783l-2-1-26-2-25 5-20 14-20 17-21 21-19 17-19 19-19 21-16 22-14 22-10 23 3 27 16 21 29 9 24 1 27-3 26-6 24-7 23-9 23-10 22-10"/>
<path d="M11392 6889l-2 0 23 12 24-11 22-12 21-16 19-18 10-22-18-19-26-9-25-2-26 9-22 12-21 17-20 23-14 20-15 25-8 24-1 28 7 24 20 21 28 9 28 4 31 1 36-3 27-3 31-3 33-6 34-4"/>
<path d="M12283 6807l 1-2-1 27-8 27-12 31-8 23-14 33-13 33-12 32-11 29-10 27-7 25 15 19 28-14 21-18 22-22 21-24 20-23 18-23 16-20 17-24 12-22-4 28-5 27-4 26-1 28 17 16 25-4 28-15 22-18 22-19 22-21 19-20 15-21 16-26 15-22-22 15-6 24-6 24-9 22-6 27-7 24 25-8 17-17 17-17 20-25 18-25 19-22 16-19 18-19 24 10 1 28-2 29-3 27-4 25-6 25 18 18 25-6"/>
<path d="M12876 6814l 0-1-3 28-2 26-4 27-2 26 2 27 7 25 24 5 24-8 28-17 24-21 18-17 17-17 17-21 13-22-12 25 6 25 13 23 23 9 26-2 26-7 28-15 22-13 21-16 20-15 21-21 18-21 14-23 9-23-2-27-17 19 9 26 13 21 13 23 11 25 11 25 3 24-3 24-17 22-21 15-25 9-25-1-25-10 0-25 24-14 24-11 22-11 27-11 25-10 26-9 29-6 27-3 28-1 25 0 24-2 20-17 22-15 18-19 6-24-20-19-26-9-26 0-23 7-24 14-24 16-18 22-14 27-7 23-4 25 3 29 12 24 18 18 25 13 28 8 26 2 26 0 29-3 25-4 25-6 26-7"/>
<path d="M13813 6876l 2-2 15-20-4-25-22-15-27-3-28 6-24 14-20 15-18 20-20 23-15 24-6 30-3 25 2 24 17 19 32 1 24-6 25-13 25-19 26-22 25-28 15-18 14-21 20-29 18-31 15-32 10-35 7-25 4-26 3-26 4-28 3-28 1-31 2-30 1-29 0-29 2-25-2-34-4-25-13-21-24 10-19 20-11 22-12 28-8 32-5 37-1 25-2 29-1 30 0 31 0 35 1 34 1 35 1 36-1 34 2 34 3 32 3 29 5 27 9 32 14 26 15 20 23 19 28 11 26 1"/>
<path d="M14561 6851l-1-1-14 23-5 23-9 28-7 28-6 23-5 27 0 27 11 22 28 4 25-8 24-13 26-18 19-20 19-20 18-24 13-25 5-24-7-25-24 9-5 24-2 26 2 29 6 27 19 19 25 3 28-13 24-18 21-16 22-22 17-22 12-21 12-25-19 21-8 27-6 23 25 7 21-18 20-18 20-19 18-17 18-16 6 26 0 25 0 24 10 24 24 4"/>
<path d="M15243 6505l 0 0-2 27-3 27-4 26-5 29-8 33-6 25-8 25-8 27-8 28-6 28-10 28-9 26-9 27-9 26-7 24-9 33-6 27-2 26 6 23 25 9 26-10 22-13 21-19 24-21 23-22 22-23"/>
<path d="M15122 6737l-2 1 29-7 31-8 25-6 29-7 27-4 28-2 29 3 24 5 23 10 19 16 8 23 2 25-2 24-7 24-12 23-12 23-8 26"/>
<path d="M15466 6554l-1-2"/>
<path d="M15499 6885l-2 0 24 8 30-6 26-10 27-15 22-16 24-16 22-18 16-20 20-21 17-21 19-21 13-23 12-24 10-26 6-27 4-30 3-31 2-31 0-30-2-28-7-29-15-22-28 4-20 17-18 19-16 24-16 28-13 31-10 33-5 24-5 25-4 26-4 28-2 28-1 28 2 28 2 25 3 34 1 30 7 28 9 26 11 23 13 24 18 22 25 13"/>
<path d="M16394 7033l-2-1 27 2 29-7 22-10 27-17 23-15 23-20 26-24 29-28 30-31 33-34 34-33 32-35 17-17 32-34 29-33 25-32 21-29 19-29 15-27 10-25 9-25 7-34 3-29-3-25-22-12-27 12-26 21-20 18-21 24-20 26-22 31-21 36-20 41-11 23-10 23-10 25-9 25-9 26-9 27-9 28-8 27-7 29-7 29-6 28-6 29-5 28-3 29-5 29-3 28-3 27-3 27-2 27-1 26-3 26-2 25 0 47 2 43 3 37 5 32 5 27 8 30 10 23 15-19 7-29 5-24 4-27 5-29 5-30 3-31 3-33 3-33 3-35 2-34 1-31 0-31 0-26-3-31-6-26 25-6 27-7 29-10 23-10 23-10 23-9 23-11 22-10 25-11 23-8-6 26-10 24-3 25 14 22 27-1 21-12 21-15 23-19 19-18 19-19 19 18 21 14 28-7 22-12 26-20 22-21 27-23 19-17 21-18 17-18 17-21 15-20 15-21 15-21 12-22 13-23 10-23 8-24 7-25 3-25 4-24 5-33 0-30 0-28-27-3-19 25-18 26-11 22-11 24-11 27-12 28-12 28-8 29-9 28-9 28-8 28-9 26-4 24-2 25 0 31 3 25 9 25 22 15 25 0 31-12 28-18 19-16 20-16 21-18 20-18 20-20 20-21 18-22 20-22 18-24 17-25 15-26 11-25 9-28 6-26 5-27 4-26 2-25 1-34-2-25-10-24-28-2-22 17-19 23-15 22-13 27-11 31-8 24-3 25-4 27-2 28-2 30-2 30-1 32 0 33 0 33 2 32 1 31 2 28 6 26 9 34 11 28 10 26 13 28"/>
<path d="M10385 8404l-1-1 28-10 29-4 25-3 27-3 31-4 31-5 33-3 29 0 24-1 26 3"/>
<path d="M10448 8509l-4 2-26 6 24 12 30-6 25-7 28-8 30-10 25-9 29-11 29-11 32-12 29-12"/>
<path d="M10687 8312l-2 0 22-14 26 0 28 4 25 5 24 8 21 13 13 22-6 24-15 21-22 22-24 21-20 16-22 15-21 13-23 13-24 12-21 16"/>
<path d="M10998 8655l 1 0 26-1 22-12 20-14 22-20 25-23 18-18 18-17 17-18 22-25 16-22 17-26 10-24 7-25-2-25 18-21 24-4 28-3 30-5 26-2 27 4 0 25-16 21-21 19-19 16-22 16-21 18-20 17-19 16-20 20-17 19 15 20 28-4"/>
<path d="M11423 8465l 0 0 27-5 28-8 28-14 21-11 23-17 20-17-13-21-27 4-25 4-24 9-24 12-21 17-15 20-9 26-3 28 8 26 11 22 22 13 27 4 29-3 25-6 25-9 23-9 23-10 22-10"/>
<path d="M11729 8399l 1 1-12 25-5 24-5 31-4 25-6 26-5 26-6 28-8 29-8 31-11 33-7 23-13 34-12 31-12 29-12 28-8 24-8 23 11-25 8-25 11-30 11-23 10-23 8-25 11-27 9-26 9-28 10-28 8-27 8-26 9-26 8-24 10-32 11-30 12-24 16-24 20-18 26-6 26 7 24 14 17 16 7 26-4 24-13 24-18 25-17 20-18 20-19 19-18 17-22 16-22 12"/>
<path d="M11917 8490l 1 0 26-5 24-6 27-7 29-8 28-8 23-10 25-13 18-16-3-25-22-10-28 0-23 8-26 16-22 20-16 19-13 22-12 28-2 25 13 25 24 17 29 8 24 1 31-2 25-5 26-5"/>
<path d="M12311 8466l 0-2-7-26-20-14-25-6-23 6-22 15-19 17-15 19 9 24 28 0 25-6 24-7 16 19 17 19 26 4 28-6 28-10 22-11 25-15 23-18 24-20 22-22 22-22 19-25 20-25 17-26 15-26 13-26 10-29 11-29 9-29 6-28 6-30-1-25-24 1-19 18-20 24-16 24-13 29-15 32-9 23-6 23-6 25-4 25-4 25-2 25-1 25 0 33 2 29 3 25 8 26 16 19 23 9 27-5 24-16 19-17 18-25 8-27"/>
<path d="M12453 8284l-2 0 24-4 31-4 25-2 24-2 26-2 27-3 28-1 31-1"/>
<path d="M12815 8515l 0-1"/>
<path d="M13457 8253l 0 0 9 24 5 28 9 25 13 22 25-1 19-23 17-23 21-29 15-20 18-21 16-22 17-23 16-23 17-22 17-24 15-23 16-25 13-22 12-23 11-22 15-29 13-25 12-25"/>
<path d="M1432 10199l 0-1 24 4 29 2 26 0 27 0 30 2 26 1 30 3 34 4 25 2 27 3 30 3 32 0 32 4 33 3 34 3 34 5 38 3 43 4 43 3 24 2 46 3 48 2 24 1 25 1 25 1 26 0 26 1 26 0 27 1 27 0 28 0 28 1 30 0 29 0 30 0 31 0 31 0 31 0 31 0 30 0 32-1 32 0 33 0 33 0 34-1 34-1 35 0 36 0 36 0 35 0 37 0 37 0 37 0 37 0 37-1 37 0 37 0 39-1 38-1 39 1 39 0 40 0 40-1 41 0 41 0 42 0 40-1 42-1 42-1 43 0 43 0 44-1 43-1 44-1 45 2 45-1 46-1 44-1 45 0 45 0 47 0 46 0 47-3 47 0 47 0 47-1 48-1 48-1 48 0 47-2 47 0 49-1 47 0 49-1 49-1 49-1 50 0 50-1 49-1 49-1 49-1 50-1 50-1 50 0 50-1 50-1 50-1 50 0 50-1 50 0 51 0 51-1 50-1 52-1 51-1 53-1 52-1 52 0 52-2 52 0 52-1 53 0 52-1 53-2 52 0 54-2 51-1 54 0 53-1 54-1 54-1 53 0 55-1 54-1 54-1 53 0 54-2 55-1 54 0 53-3 54-1 55-1 54-1 55-1 55-2 54-1 56-2 56-1 56-2 57-2 56-2 59-1 57-2 59-1 57-2 58-1 59-3 58-1 58-2 57-3 59-1 59-2 58-2 60-1 59-3 60-1 62-3 59-1 60-2 60-2 59-2 60-2 61-1 58-2 59-1 62-2 60-3 61-1 62-3 60-2 62-2 64-2 63-2 63-3 63-3 63-2 64-2 64-3 65-3 63-3 64-3 64-2 63-3 65-3 65-3 64-4 65-3 64-3 65-3 64-3 66-3 63-3 65-4 66-1 65-3 66-3 65-2 65-3 69-3 66-1 66-4 66-2 67-2 66-2 66-3 65-2 66-2 66-4 66-1 66-3 67-2 66-2 65-3 67-2 66-3 66-1 66-3 66-1 65-2 65-2 66-1 65-2 66-1 65-2 67-1 65-2 64-2 65-1 67-2 66-3 64-2 65-1 64-2 66-1 64-1 65-2 62-1 63-1 62-1 64-1 65-1 61 0 62 0 62 0 62-1 62 0 62-1 65 0 59-1 61 0 61-1 62-1 60 0 62 0 58-1 58 0 61-1 60 0 59-1 60 0 59 0 57-1 61 0 58-1 58-1 57 0 57 0 56 0 58 0 56-1 56 0 54-1 55 1 54-1 54 0 53 0 51 0 52 0 53-1 52 0 51 0 52 0 50 0 51 0 49 0 49 0 48 0 47 1 47 0 47 0 47 0 45 0 45 0 44 0 43 0 41 1 41 0 39 1 39 0 38 1 37 2 36 0 36 0 34 0 34 0 32 1 31 0 31-1 28 1 28 0 24 1 24 0 46 1 40 1 33 1 33 0 27 1 29 0"/>
<path d="M1354 11370l-1 0 17-19 21-12 21-11 28-16 26-14 32-17 23-12 25-13 25-12 28-12 27-11 26-11 24-9 31-11 26-7 28-5 25 0 15 19-11 26-16 24-14 21-18 25-21 28-23 30-27 32-28 34-30 36-16 18-15 19-16 20-16 20-16 20-15 20-17 20-15 19-16 19-16 19-17 19-17 18-16 18-17 19-32 35-30 34-28 31-25 28-20 25-17 22-16 23-5 24 25 6 25-2 35-8 28-11 31-13 33-15 32-17 33-16 32-16 30-16 30-15 31-14 29-15 28-13 25-12 30-15 23-11"/>
<path d="M1392 11526l-1-1 27-1 29-3 34-6 25-6 27-6 29-9 31-8 34-8 35-8 35-8 35-9 34-10"/>
<path d="M2043 11442l 0 0 24 2 28-5 26-5 28-4 28-4 27-2"/>
<path d="M2050 11542l 0 0 25-7 25-7 29-6 31-5 32-6"/>
<path d="M2684 11363l-1-1-18-18-24-1-24 8-23 16-21 22-17 21-15 25-16 28-14 30-10 31-6 34 0 34 6 32 10 28 15 24 19 19 23 15 27 10 28 9 30 2 29-3 29-8 29-9 32-17 21-14 21-16 21-18 19-20 19-22 15-22 16-24 12-23 9-23 8-33 1-33-5-34-11-32-17-31-21-25-23-22-25-18-28-13-28-8-29-5-28-1-26 1-25 4-28 6-21 12"/>
<path d="M3558 11470l-1 0 25 2 25 0 27-3 30-4 26-4 29-4 31-5"/>
<path d="M3552 11573l-2 1 25-3 24-3 29-7 30-7 32-8 32-6 33-8"/>
<path d="M3779 11341l 0-1 27 9 30 6 32 3 25 2 31 1 26 3 24 6 10 23-24 16-22 14-26 16-22 13-28 16-25 13-25 14-22 11"/>
<path d="M4460 11611l 0-2-2-26 8-27 11-21 16-19 19-19 22-17 23-12 26-5 21 12 10 22 2 28-4 27-8 32-9 25-9 23-9 24-9 22-13 32-12 31-13 26-12 25-11 21-13 21-1-25 13-32 11-26 13-26 15-28 15-28 17-28 16-29 17-26 17-25 16-23 15-19 22-25 20-21 20-17 23-18 21-13 16 19-3 30-9 30-10 26-11 28-12 31-11 33-12 31-11 28-8 25-7 26 8 24 26-10"/>
<path d="M4868 11550l-1 0-24 10-14 21-10 27-7 24-2 24 5 27 13 22 25 12 29 0 25-9 25-16 23-19 17-22 10-23 0-24-10-24-16-23-21-14-30-4-27 5-22 12-15 21"/>
<path d="M5454 11649l-1 0-3 26 17 20 25 7 25-3 30-11 27-16 19-14 20-18 19-20 21-21 21-22 21-22 20-20 18-21 16-20 19-26 13-21 12-24-23 9-14 24-10 22-12 22-10 23-9 29-9 29-7 27-3 26 16 20 21-11 25-22 19-22 22-26 21-28 20-26 18-25 15-22 13-21 15-23 1 28-6 26-7 25-5 28-1 24 26 1 20-19 17-17 16-19 18-19 16-19 18-23 15-23 5 26-7 26-6 27-3 26 0 25 3 27 13 22 25 0 24-14 22-18 25-24 19-20"/>
<path d="M6370 11051l 0-5 1-29-8-24-20 23-12 26-10 25-9 30-8 34-4 26-6 27-7 28-8 32-8 34-9 37-8 40-7 39-8 39-8 35-6 34-5 31-3 28-2 25 1 32 6 24 16 20 26 1 29-17 26-24 19-20 18-22 16-22"/>
<path d="M6181 11367l-4 1 27-11 29-10 33-10 23-6 25-6 29-6 31-6 35-7"/>
<path d="M6458 11483l-1-1 25-9 28-7 30-8 25-8 24-9 22-10 26-15 23-17 14-23-24-15-28 2-28 6-28 9-21 13-19 19-18 25-11 22-11 28-3 27 8 23 16 22 25 16 29 7 24-1 24-4 27-9 26-13 25-15 22-16"/>
<path d="M6758 11402l-2-1 27-4 24-2 25-2 24 5-4 27-19 20-19 19-17 18-15 20-16 25-10 23 6 23 25 9 27-3 28-7 24-7 25-8"/>
<path d="M7024 11408l 0-1 4 26 2 24 2 25 2 25 2 27 6 24 23-9 20-23 19-24 14-21 17-27 14-26 11-24 9-23"/>
<path d="M7370 11439l 0-2-5-24-6-26-19-16-27 1-25 12-20 16-21 20-20 21-16 24-10 23 2 24 24 13 26 0 30-7 28-12 25-15 17-16-5 24 10 25 23 11 28-7 28-16 24-18 25-23 23-28 17-21 17-21 18-21 16-21 14-23 13-23 12-25 12-25 9-26 9-28 6-30 5-32 5-32 3-31 3-30 2-26-1-34-1-26-6-27-28 0-19 21-17 23-17 29-10 22-10 26-9 29-9 30-6 32-8 33-7 33-4 33-5 32-3 31-2 29-2 26 0 25 3 34 6 30 6 23 10 24 15 20 25 12 25 0 29-7"/>
<path d="M8162 11418l 1-2 25 9 3 26 0 31-6 31-6 32-7 24-6 25-7 25 0-28 11-29 16-30 20-26 22-26 21-24 21-23 20-21 21-17 19-16 22-13 18 19-5 27-9 30-10 24-8 23-12 26-9 23 21-17 16-19 16-20 18-24 20-24 21-21 17-17 17-18 19-17 9 24-7 26-8 30-6 23-6 24-6 28-3 27 11 23 26 0"/>
<path d="M8645 11417l-1 0 26-8 25-11 24-11 24-14 19-14 3-25-22-13-27-9-28 5-23 11-22 19-18 19-16 23-12 23-7 23-3 28 5 28 14 21 28 10 31 2 30-3 24-6 25-9 24-9"/>
<path d="M8858 11328l-1-1 24-2 29 10 26 9 23 12 17 18 13 26 6 23 10 25 14 20 20 15 28 2 27-6 22-11 22-14"/>
<path d="M9103 11280l-2-1-24 6-22 15-18 21-15 20-15 22-19 26-17 22-19 24-18 25-18 24-17 20"/>
<path d="M9509 11214l 0 1 27-1 25-2 29-3 24-4 28-5 26-3 31-6"/>
<path d="M9550 11289l 0 0 28 2 30-4 31-6 32-6 34-8"/>
<path d="M10141 11083l-5 1-25 7-25 15-25 18-21 21-17 26-12 24-8 30-4 34 0 35 2 33 3 31 8 26 12 22 15 19 23 22 25 16 25 10 30 3 32-7 25-9 27-13 23-17 24-21 19-22 18-27 15-27 9-33 3-24 1-26-3-25-4-25-8-34-15-29-20-22-30-15-33-10-24-2-28 0-30 5-32 7-33 10"/>
<path d="M5871 11164l 0 0"/>
<path d="M3724 12697l-1 0 24 2 25-3 29-4 32-4 25-3 26-4 31-4 25 0"/>
<path d="M3714 12817l 0 0 29-5 28-7 26-5 28-7 31-9 31-10 31-11 30-9 27-8"/>
<path d="M3961 12558l-1 0 24 14 29 9 30 7 31 6 27 9 25 10 24 15 16 20 1 25-13 27-16 20-19 21-22 21-20 16-21 13-21 14-25 17-22 16-19 15"/>
<path d="M4557 12988l 0-2 5-26 6-25 5-29 1-24-1-28-10-24-26-9-24 7-21 15-18 17-16 21-17 24-16 26-14 26-12 26-9 27-5 26-1 30 12 21 24 6 24-4 28-13 22-14 20-17 17-18 18-19 11-22-23 12-4 26 3 28 16 21 22 10 27-5 21-12 24-22 19-20 22-25 23-26 16-20 17-22 17-23 17-24 18-27 14-27 15-30 13-32 11-30 9-30 6-31 4-29 2-30 2-31 0-28 0-26-2-31-4-28-13-21-18 15-18 28-15 31-8 25-10 30-9 33-9 34-10 38-9 39-9 39-7 40-6 38-6 35-3 35-3 31 1 28 3 27 10 32 12 26 17 23 28 9 28-9 26-17 18-17 19-20 19-23 18-25 19-26 19-28 16-30 16-31 15-32 12-33 13-33 9-35 5-35 4-34 1-33 1-32 1-28 0-25-3-32-6-27-15-23-23-8-19 21-12 27-8 28-5 23-6 29-6 31-5 34-5 36-5 37-3 37-5 38-5 36-4 37-2 34 0 31 1 28 3 25 7 32 9 29 14 22 19 21 26 13 31 6 25-1"/>
<path d="M5512 13030l-2 1-16 19-5 23 23 7 27-11 20-15 25-20 27-23 20-17 21-19 21-20 22-20 19-20 18-18 19-25 13-22 13-24-25 12-13 26-11 22-11 24-9 25-7 30-5 24 2 27 21 11 26-14 20-16 23-20 24-23 24-25 24-25 21-23 18-20 19-21-11 27-10 27-9 25-6 25 25 1 22-18 23-20 23-20 22-18 19-15 22-15 9 24-9 25-9 23 0 27 15 18 25-9 23-18"/>
<path d="M6390 12506l 0-2 3-25-17 22-12 28-10 29-11 31-11 32-9 24-6 24-8 26-8 27-6 27-7 27-9 28-7 25-8 25-5 23-7 30-2 25 1 25 18 16 25-5 23-17 21-19 23-22 22-25 18-23"/>
<path d="M6238 12730l-4 0-25 4 30-12 27-9 33-10 25-6 26-7 27-6 27-6 29-6 31-4"/>
<path d="M6484 12815l-2-1 25-10 27-10 23-9 25-9 23-10 24-9 23-12 20-14-25-13-27 2-27 8-27 14-22 12-21 17-21 17-18 19-17 19-13 25-5 25 12 26 25 16 26 8 31 3 27-3 31-8 34-11 25-10 24-12 23-12 22-13"/>
<path d="M6802 12689l-2-1 26-6 25 2 27 3 25 7 13 20-15 19-20 18-20 15-20 17-19 16-19 18-14 21 6 25 28 7 24-2 25-3 27-6"/>
<path d="M7030 12740l-1-1 6 27 6 26 6 27 5 28 4 28 4 24 24-11 13-29 11-25 11-28 12-28 11-29 7-28 6-23 6-25"/>
<path d="M7374 12774l-2-2-18-18-20-16-27 0-23 10-20 15-19 21-15 22-8 26 8 22 27 3 24-6 25-9 21-11 21-14-19 15 14 22 26 3 27-7 27-13 22-15 24-17 23-21 21-24 19-25 16-25 12-26 8-27 7-30 6-32 4-24 3-24 2-27 1-25 3-27 1-24 1-34 0-24-11-21-25 18-16 21-15 29-9 24-6 26-7 31-7 34-6 34-6 35-6 34-3 33-2 29-3 29 1 27 1 35 6 28 10 31 15 19 22 13 28-7 25-16 22-19 24-21 23-22"/>
<path d="M7767 12629l-1-1-26-1-24 8-20 14-18 18-3 25 25 10 27 5 24 7 25 8 24 12 22 12 6 26-16 19-18 17-22 14-25 13-26 9-26 5-26 2-24-2-29-10"/>
<path d="M5895 12636l-1-2"/>
<path d="M8558 12632l 1-1-24-5-25 14-20 12-22 16-24 17-19 16-18 19-16 19-14 23-8 26 16 19 23 8 25-1 33-6"/>
<path d="M8676 12703l-3 0-24 5-27 13-19 15-13 22 15 19 24 7 28-1 27-8 22-9-13-21-25-8-18-16 21-18 23-8 24-9 25-10 24-9 27-9 24-1 19 18-3 27-6 27-7 24 28-1 22-17 18-16 19-16 19-16 18-16 21-18 21-19 18-17-3 26-5 30-2 29-1 24 5 25 26 8 26-15 22-16 25-21 20-16 20-18"/>
<path d="M9324 12393l 3-8 6-28 6-28 4-28 2-24-19 21-13 28-12 31-7 24-6 27-6 29-8 30-8 33-7 33-7 34-8 34-8 31-9 28-7 28-6 25-6 34 0 26 8 27 25 7 25-10 25-15 24-21 26-25 22-26"/>
<path d="M9153 12606l-2 0 25-14 25-8 31-8 32-11 24-6 26-5 28-6 32-6"/>
<path d="M9549 12632l-2-2-6-26-12-24-22-14-26 10-21 20-14 20-7 24 14 22 25 3 26-3 25-7 25-7 21-12-24 7 0 25 15 20 24-5"/>
<path d="M9693 12594l-1 0-22 8-15 20-3 27 18 16"/>
<path d="M9744 12446l-1 0-16 20"/>
<path d="M9765 12566l-1 2-9 23-7 24-7 25 26-13 14-22 14-21 16-18 21-18 19-15 23-12 21 15-4 26-9 26-8 26-1 26 9 23 22 14"/>
<path d="M10481 12378l 1-1-25 8-18 16-22 24-16 20-15 25-19 27-12 30-11 31-7 31-4 27 2 29 9 23 17 18 22 13 31 6 28 0 30-4 31-8 33-11 31-13 28-13 23-16 21-17 18-20 14-21 11-22 7-24 0-27-3-27-8-30-13-31-17-28-20-23-21-19-22-12-26-10-25-3-26 1-25 6-24 11-23 20"/>
<path d="M10801 12722l-1-2"/>
<path d="M1345 14019l-2 0 28 9 26-5 28-7 25-6 28-8 26-5 24-5 30-3 25-1 27 3 23 14-2 28-15 23-17 21-21 24-23 26-17 18-18 19-19 20-19 21-20 22-22 21-22 22-22 23-24 22-24 24-23 24-24 23-21 22-21 20-17 19-23 26-16 21-9 23 25 14 34-1 31-4 35-6 24-6 25-7 24-8 23-7 25-8 34-12 32-11 30-11 26-10 24-9 26-11 25-11"/>
<path d="M1229 14203l-2 0 27 2 27 0 31 0 25-1 25-1 25-2 26-3 27-3 27-3 26-3 28-3 27-3 25-2 26-1"/>
<path d="M1986 14105l 0-1 23-7 28-3 28-2 27 2 26 2"/>
<path d="M2011 14191l-2 0 29-5 25-3 32-3 27-1"/>
<path d="M2614 13862l-1-1-9 26-4 33-4 37-5 28-7 32-6 33-8 35-8 37-9 38-9 40-8 39-8 40-8 37-6 34-6 30-4 27-4 24-3 34-3 29-1 29 0 25"/>
<path d="M3234 14156l-1 0 27-7 25-5 29-5 30-4 32-2 25-2 31-1"/>
<path d="M3261 14243l 0 0 24-2 24-2 25-3 26-4 27-5 28-4 26-3"/>
<path d="M3470 14039l-2 0 22 20 28 7 25 4 26 2 27 3 29 5 24 7 21 12 11 21-7 27-14 22-17 18-19 19-23 18-26 17-25 18-21 16-19 18-14 20"/>
<path d="M4142 14370l 0-2 11-21 16-20 14-20 17-21 18-21 17-18 18-17 19-16 24 4 5 27-1 27-1 25-4 25-6 26-8 27-9 28-10 29-12 27-13 28-13 24-15 26-17 19-1-25 8-23 11-28 15-28 17-28 20-29 22-28 20-28 21-26 19-24 20-23 17-18 18-18 18 18-2 26-5 25-7 28-9 29-7 24-7 23-10 29-7 25-1 24 28 3"/>
<path d="M4593 14292l-2 1-23 16-18 22-14 22-10 22-7 25 4 27 21 19 23 6 24 0 25-5 22-10 21-12 18-21 9-23-1-26-12-27-13-21-19-21-24-11-24-2-27 8"/>
<path d="M5366 14490l-2-1 28-1 23-7 26-15 22-16 23-20 26-23 18-17 19-18 16-19 17-19 22-27 18-24 14-20 13-21-10 24-9 25-5 24-7 27-4 26 21 14 20-15 21-18 22-22 22-24 23-24 24-25 23-23 22-23 19-18 20-17-12 22-16 28-12 22-12 21-10 22-14 26-10 23-4 24 28-5 21-18 18-18 20-19 19-19 18-21 17-20 16-19 18-20 5 27-6 26-5 25-1 26 5 27 17 20 28-4 24-13 21-16 25-20 18-17 19-17 18-20 19-21 19-23 19-23 18-24 19-23 16-24 15-24 15-24 10-27 10-27 7-26 7-26 6-24 7-32 6-26 4-27-26 9-12 21-13 28-9 25-11 29-9 23-8 25-9 28-11 31-10 31-12 32-10 31-11 31-8 31-8 29-7 27-6 25-7 31-1 27 4 27 17 20 27-7 26-20 20-21 22-24 19-25 14-24 12-24"/>
<path d="M6098 14110l-2 1 30 4 24-4 27-6 30-6 35-6 33-7"/>
<path d="M6362 14177l-2 0 24-8 24-10 27-11 25-12 22-11 13-21-24-8-26-2-28 4-25 10-25 18-21 26-15 25-11 28-8 31-5 30 0 27 7 23 11 25 18 16 27 7 31-1 25-8 25-11 28-16"/>
<path d="M6599 14131l-1-1 22-13 27-1 25-2 25-2 25 3 1 24-17 20-20 20-21 22-17 18-17 17-20 23-17 23-9 25 17 17 29 2 29-6 26-8 32-9"/>
<path d="M6824 14142l 0 0 16 20 11 24 9 26 6 26 9 23 22 11 18-20 14-20 14-24 14-25 15-24 13-24 12-24 10-23 9-28 7-27"/>
<path d="M7214 14120l-1-3-13-23-22-16-26-6-23 9-20 15-18 19-15 20-7 24 2 26 20 13 27-3 23-8 21-15 16-20 15 21 23 8 26-3 27-11 21-12 21-15 21-18 20-22 16-23 16-25 16-27 12-30 11-31 8-32 6-33 3-36 2-34 1-32-2-28-4-28-14-22-26 10-20 23-15 26-11 22-9 25-9 28-9 33-10 36-8 38-7 40-5 40-3 38-2 34-2 33 0 30 1 28 4 25 8 31 10 23 18 20 26 12 28-2"/>
<path d="M8126 13993l 2-2 20-19 24-17 21-13 25-10 27-4 20 16 5 30-2 26-5 28-9 28-11 29-15 28-15 29-16 24-13 21-18 21-3-27 11-24 15-25 16-23 18-23 18-20 18-20 18-18 19-18 21-15 22-16 23-8 13 20-7 30-8 27-11 25-11 23-15 23-16 19 20-22 19-18 20-22 21-22 22-22 22-21 21-20 19-16 21-17 20-15 2 27-12 29-9 24-13 28-8 27-4 24-3 26 16 18 29-3 24-11 110-100 14-20 21-14 25-14 23-11 26-15 22-14 2-24-24-11-25-2-24 4-22 12-18 16-19 22-13 27-9 24-5 25-2 24 4 29 9 23 21 22 24 8 29 2 24-2 31-8 28-14 25-17 20-19 18-20 14-20 14-36 6-25 0-24-4-25 21 13 20 17 19 19 16 23 14 25 12 23 14 21 20 14 26 6 26-7 22-12"/>
<path d="M9053 13917l-2 0-25 9-21 20-19 23-13 21-15 23-17 24-21 25-18 25-19 24-18 23"/>
<path d="M9422 13893l 0 0 28-7 27-3 26-1 27-1 27 0"/>
<path d="M9415 13951l 1 0 28-3 25-2 31-3 25-2 27-2 27-2 28-3"/>
<path d="M9912 13686l 0 0 2 26 0 29 1 27-3 28-5 30-8 33-6 24-8 24-6 25-7 26-8 26-10 26-10 26-8 23-11 29-5 27-9 29-7 26-8 26-1 27"/>
<path d="M5754 14139l 0-1-10-22"/>
<path d="M4409 15619l-1-2-10-25-16-21-18-17-22-11-27 4-24 20-20 24-16 21-13 24-12 26-8 24-8 29 1 25 16 19 25 3 24-10 21-16 22-19 18-22 14-21 14-21-2 25-4 30 0 25 5 24 16 20 25 1 24-16 18-20 16-20 15-23 17-28 12-22 11-22 10-23 12-24 10-25 11-28 10-28 9-30 7-31 7-30 7-31 8-31 5-33 5-33 4-32 2-33 3-34 4-32 3-29 3-26 3-30 0-28-2-25-18 22-11 26-12 34-8 28-9 32-9 35-9 38-10 39-9 41-7 41-7 40-5 38-3 36-2 33 2 30 3 24 6 31 9 23 12 22 22 10 29-5 22-18 19-21 21-27 12-21 13-23 13-26 15-28 13-28 13-29 12-30 11-30 11-31 9-31 8-31 8-29 5-29 4-28 2-26 1-35-2-33-1-30-2-27-4-29-6-24-22 19-11 25-11 36-7 27-8 30-7 32-7 32-5 34-4 35-2 35-3 35 0 33 2 32 2 31 3 29 4 27 4 25 9 33 10 27 16 26 18 21 24 14 24 5"/>
<path d="M3637 15282l 1-1 21-15 25-7 25-4 29-3 28-2 25 0"/>
<path d="M3655 15380l 0 0 26-5 26-6 23-9 24-9 26-11 26-13 25-15"/>
<path d="M3799 15135l-1 0 20 17 23 7 30 5 27 2 27 2 27 6 23 12 16 19 3 27-9 22-13 20-17 24-17 20-21 20-22 20-20 20-21 17-22 18"/>
<path d="M5342 15664l 0-2 8-23 22 13 14 22 20 18 25 8 28-9 24-17 21-18 21-22 20-25 19-26 18-26 17-26 16-27 14-26 13-22 11-23-7 30-9 28-10 28-7 25-6 30-5 26-2 28 5 25 25-12 19-20 16-21 17-22 17-25 18-22 15-21 17-26 16-21 15-19-12 28-14 26-13 27-9 26-8 24 24 11 27-17 20-19 21-21 21-24 21-24 21-25 19-23 17-20 17-18 16-19-5 24-10 25-11 26-8 27-8 26-3 25 7 24 26 2 26-16 22-19 22-25 16-20 16-23 17-24 17-25 17-25 16-25 18-27 16-27 16-27 16-27 15-28 13-27 13-27 11-28 10-25 8-26 6-24 7-23 8-30 7-28 7-25-10 22-10 28-12 32-11 34-9 24-10 25-9 26-10 27-9 28-8 29-10 31-10 30-7 30-9 29-8 26-7 25-7 33-3 28 4 27 13 21 30 4 28-16 22-19 22-25 22-26 19-27 17-26 13-25 10-23 3-26"/>
<path d="M6121 15247l-5 2-21 12-20 13 25-2 28-14 26-13"/>
<path d="M6418 15336l 0 0 23-10 25-9 25-16 22-14 21-16 18-18-26-7-30 4-27 9-24 7-28 11-27 14-25 15-20 20-13 25 3 27 17 21 23 10 24 3 27 0 32-6 24-6 34-12 24-9 23-11 22-12 23-11 90-110-17-19 26 6 26 3 18 18-9 23-19 23-16 18-19 19-21 21-16 21 3 24 28 2 23-7 23-14 22-19 23-23 18-18 17-19 17-19 16-19 16-21 13-24 8 26 0 27 0 27 3 25 4 29 11 24 18 18 23-14 13-20 13-25 10-26 9-27 6-27 2-26"/>
<path d="M7202 15248l-2-2-15-18-20-16-24-6-25 10-19 22-16 24-12 23-6 26 14 21 27-3 24-14 21-15 22-13 12 22 5 25 16 19 25-8 21-14 20-19 16-19 17-21 18-23 18-26 17-27 17-28 14-28 10-31 7-31 6-33 3-34 1-34 0-30-1-25-3-25-25 15-10 24-13 33-7 25-8 27-9 27-7 28-9 30-8 29-7 30-7 31-6 29-3 31-3 27 2 26 1 32 3 24 10 26 22 15 28 3 27-10 20-13 24-18 24-21 25-23 20-24 19-23 15-21 15-27 10-22 12-23-22-13-23 16-18 18-17 20-13 20-6 25 19 15 25 11 24 10 23 8 24 8 25 9 5 24-20 19-25 16-23 9-24 8-27 5"/>
<path d="M5586 15107l-1-1"/>
<path d="M8361 15028l 2-5 11-25 11-24 13-20 13-21 16-25 14-22 16-22 0 29-5 28-6 24-6 26-9 27-8 31-9 31-10 32-9 31-11 33-10 33-11 32-10 31-9 30-9 28-9 26-7 24-10 32-5 26-7 27 14-21 11-26 12-29 12-30 12-28 12-26 14-24 14-22 18-25 18-18 21-11 20 15 1 26 2 25-2 27-5 30-5 24-7 32-5 24 2 24 25 3"/>
<path d="M8669 15267l 1-2-9-22-24-7-26 13-21 14-19 20-18 22-14 21-11 24 4 24 24 3 25-9 24-14 22-15 19-18 15-21-11 22 2 25 24 10 25-13 18-18 17-20 13-22-7 28 2 26 8 23 21 13 26-7 15-19 15-20 10-24 7-25"/>
<path d="M8934 15291l 1 0 26 0 23-8 20-13 21-14 20-13 14-22-10-22-23-9-25 3-26 11-20 17-20 22-14 26-10 23-7 23 1 24 15 24 23 11 28 2 29-4 24-7 27-11"/>
<path d="M9733 15017l-2-1-26 4-27 10-27 17-19 18-19 25-14 26-13 32-6 24-5 25-3 27-2 25 2 24 8 34 14 32 16 28 21 23 22 17 27 13 26 8 31 5 32-1 33-6 32-11 25-9 22-11 20-13 20-14 24-25 21-28 17-31 12-31 10-33 1-36-3-25-3-25-7-25-8-23-9-24-10-22-17-30-20-24-20-20-23-13-26-8-26-4-24-1-31 3-29 7-25 13-19 19"/>
<path d="M10405 15171l-1 0 30-2 24 0 27-3 29-3 30-2 29-2 25-2"/>
<path d="M10419 15252l-1 1 24-5 29-7 25-6 29-6 26-7 26-6 28-6"/>
<path d="M10654 15071l-1 0 28 2 28 5 27 5 28 7 25 8 23 11 12 20-12 25-20 18-21 17-22 18-24 17-25 17-24 16-25 15-23 16"/>
<path d="M11260 14923l 2-2-2 30-7 30-7 31-10 33-9 33-8 24-7 24-9 25-8 25-8 26-9 25-10 25-10 24-12 24-12 22-12 21-16 27-17 25 22-21 22-24 22-24 21-23 20-20 17-18 19-16 25-17 20-13 13 23-10 23-9 25-3 25-3 26 0 27 13 23"/>
<path d="M11537 15296l-3-1-21-13-26-12-27 3-22 14-20 20-17 22-12 23 3 24 27 12 26 0 28-8 25-10 23-15 18-18-7 23 22 15 26-3 26-12 21-18 18-19-21 18-4 25 8 22 16 19 27 3 24-10 18-21 14-23 9-27 8-26 5-25 3-25"/>
<path d="M11803 15297l 1 0 26-4 25-7 27-8 26-10 22-15 18-17-12-22-24-12-26-1-25 11-20 19-16 19-12 25-6 26 0 26 7 26 12 23 21 20 21 12 30 6 25 0 25-2"/>
<path d="M12814 14905l 0 0-15 21-8 27-7 25-7 29-8 31-9 34-4 25-6 24-6 26-6 25-7 26-6 27-5 25-6 25-5 23-9 33-5 31-4 25-7 31-5 27-7 26-8 22"/>
<path d="M7522 16388l 0-2-8-23-17-18-28-3-23 9-22 17-19 24-13 21-12 24-8 24-8 25-6 23-1 27 6 28 23 10 22-11 19-16 20-23 20-31 11-22 13-25 12-25 12-24 11-24 9-24 7-25 6-24 5-26 5-25 3-26 2-26 1-26 1-26 1-26 0-25-2-34-5-28-3-26-10 23-9 36-7 29-6 33-6 34-7 36-6 36-5 36-6 35-5 33-3 33-4 32-2 31-3 28-1 28-1 25 1 31 3 25 7 23 19 16"/>
<path d="M7638 16425l-2 0-24 8-16 19-3 25 4 25 19 20 26 7 24-2 18-17 2-24-9-25-19-19-20-13 17-18 22-16 22-10 25-10 24 5 2 26-3 27-4 26-4 25 21 11 15-19 10-22 11-26 12-22 13 21 3 27 3 26 5 25"/>
<path d="M7979 16287l-1 0-18 17-11 24-11 26-10 25"/>
<path d="M8112 16125l 0 0 2 24-4 29-6 27-6 29-6 25-8 27-10 30-10 32-13 31-10 32-11 32-9 32-8 29-7 23-2 27 16 20 24-8 23-18 18-19 20-21 17-20 17-26"/>
<path d="M7988 16331l-3 0-24 8 25 1 28-3 26-4 29-6"/>
<path d="M8577 16053l-1 0-10 22-5 24-3 24-4 28-4 31-6 32-6 34-6 25-6 25-6 24-9 34-10 34-10 33-9 28-8 28-14 22 9-23 14-28 15-23 15-23 19-24 18-20 19-19 20-17 24 3 2 29-2 25-3 24-4 24 2 28 10 24 24 14"/>
<path d="M8809 16378l-1-1-16-19-27 1-25 15-22 18-18 23-11 23 0 25 26 4 25-7 25-13 24-14 17-18-20 15-4 24 5 25 13 21 25 8 25-8 24-11 19-16 17-17 12-24 7-27 0-24-9-23-10 23 5 26 3 26"/>
<path d="M8997 16424l 1-1 13-21 22-14 19-16 14-21 9-22"/>
<path d="M8944 16376l 0 0 1 26 8 22 5 24 25-1 19-21 13-20 12-24 12-23 12-27 8-23"/>
<path d="M9141 16372l 0 0 27 5 23-8 23-8 20-16 2-24-21-13-27 1-24 13-18 17-17 22-10 24 2 26 17 22 20 16 28 9 25 3 28 2 25-2 25-4"/>
<path d="M9790 16098l 0-2-5-23-25-4-28 12-20 13-21 17-21 21-21 26-18 28-12 21-12 22-10 23-11 23-10 34-6 30 0 26 6 31 13 25 19 21 27 14 29 8 25 2 28-1 28-4 25-6 26-9 25-13 24-15 21-16 20-18 21-19 15-19 14-28 12-30 5-30 0-25-5-25-7-25-9-26-9-25-13-22-18-24-23-18-22-11-24-7-33-7-29 0-29 0-27 5-24 8-22 10"/>
<path d="M10337 16265l 0-1 24-10 28-9 28-10 27-7 26-7 25-4"/>
<path d="M10327 16316l 1 0 26-5 25-7 25-8 27-5 26-6 25-4"/>
<path d="M10537 16142l 1 0 26 1 25 0 27 3 30 4 26 3 29 9 25 10 21 18 1 27-12 23-16 18-21 20-24 19-21 15-21 15-20 14-23 18-23 15-21 13-20 17"/>
<path d="M11248 16378l-2-2-5-24-10-25-14-21-24-10-25 7-22 17-21 19-22 22-21 28-14 20-13 21-13 21-15 31-12 27-8 29 6 25 25 10 28-5 31-13 24-16 24-22 23-26 15-20 14-21 14-22 11-23 11-22 11-33 8-34 3-24 2-26 1-27 1-27 0-27 0-27 0-27 2-35 1-31 2-26 0-29-2-26-14 21-9 29-7 29-7 34-6 25-4 28-5 29-5 29-3 31-4 31-3 31-2 29-2 26-1 25 1 35 3 32 4 26 9 26 16 21 25 2"/>
<path d="M11383 16387l-1-1-22 12-9 23-3 25 11 24 19 16 26 2 24-5 22-13 12-22-4-25-17-23-19-18-22-18-20-15 23-15 25-8 24-6 26-5 25-1 20 16 8 25-3 24 3 28 26-9 17-19 16-19 18-19 21-15 18 16-2 25-1 26 9 23 13 22"/>
<path d="M11836 16246l-2 0-23 14-20 20-16 21-13 22"/>
<path d="M11988 16077l 0 0-2 26-6 25-9 32-7 27-12 30-11 31-12 33-11 33-12 30-10 27-9 28-4 27 2 26 25 3 26-11 22-13 25-15"/>
<path d="M11877 16250l-2 1 29-6 28-6 31-7 24-5 24-7"/>
<path d="M12618 15994l 0-1 3 27-3 26-5 24-6 29-6 32-6 24-8 25-8 26-7 26-9 26-9 27-12 25-10 24-10 23-14 29-12 22-14 22 13-22 14-22 17-26 19-27 20-25 20-24 19-20 19-19 22-18 21-13 24-11 14 21-3 25-8 31-6 25-8 24-9 29 0 28 13 21 25 4 27-6"/>
<path d="M12910 16259l-2-2-25-6-25 4-24 11-24 16-18 16-18 22-8 23 9 24 27 3 29-6 26-10 22-11 16-18-9 23-1 24 10 25 20 13 28-1 26-11 21-16 15-21 8-23-1-25-3 24 13 20 24 14 28-1 27-8 22-13 17-20 9-25 2-27-5-26"/>
<path d="M13226 16307l 2-1 22-13 24-13 22-15 11-22-20-17-24-5-22 10-21 15-18 22-13 22-5 28 6 24 12 23 20 20 24 10 28 4 28-2 25-4"/>
<path d="M13942 15986l 0 1-5 29-5 29-4 25-4 30-4 32-1 35-4 36 0 34-3 35 1 31-2 29-3 26-6 28-5 28-11 22"/>
<path d="M10429 15032l 2 0-22 16-19 17-19 16-19 18-21 21-16 23-14 21-14 21 21 17 22 10 24 9 24 9 24 10 22 12 22 16 20 15 19 19 17 18"/>
<path d="M10390 16090l 0 0-23 11-19 16-20 21-18 20-21 22-17 18-16 18-17 24-16 23-9 25 8 25 23 9 29 5 26 5 28 6 27 7 24 11 23 15 20 15 18 18 17 18"/>
<path d="M1098 18216l-1-2 6-24 25-6 25-4 24-3 25-3 25-2 28-1 27-7"/>
<path d="M1177 18244l-1 1 21-14 23-10 24-10 25-8 24-9"/>
<path d="M1286 17989l-2 0 21 12 29 4 31 4 31 3 30 1 30 4 26 5 28 9 23 15 5 25-11 27-16 27-18 23-21 24-25 24-27 23-26 24-25 20-19 16-19 17 24-9 26-13"/>
<path d="M1887 17854l-2-1 28 1 25-4 27-4 30-7 32-8 33-7 34-5 34-5 32-5 27-3 24-2 24-1 25 6-3 25-17 26-17 27-16 19-17 20-19 20-20 22-24 25-25 24-26 26-28 28-28 30-27 31-26 30-24 28-21 26-18 26-15 23-12 21-13 29-9 28 4 26 24 11 30 0 28-7 32-9 34-12 33-12 23-8 25-8 23-7 34-11 30-10 27-8 24-7 26-7 24-7"/>
<path d="M1815 18148l-1 1 28-3 31-5 30-7 36-8 25-6 26-5 25-6 26-5 28-5 29-6 29-4 28-4 27-4 26-4 24-2"/>
<path d="M2524 17961l 0 0 28 1 26-2 25-2 27-3 27-4"/>
<path d="M2590 18036l-1 0 24-4 24-7 25-6 30-9 31-8"/>
<path d="M2940 17748l-1-2 16-18 29-9 27-2 24 0 26 2 27 4 24 5 30 9 27 13 22 16 16 20 10 23 3 25-6 31-11 28-17 29-14 21-17 21-18 21-22 22-24 21-25 21-25 21-24 20-23 20-22 18-22 18-20 16-26 22-22 19-18 21-11 24 23 12 29 2 29 0 33-4 34-6 35-5 25-2 26-2 24 0 24 0 33 0 32 0 27 2 24 2"/>
<path d="M3867 17663l-1-2 6-23 16-20 21-11 30-7 24 1 27 4 26 12 21 19 12 25 7 28 3 32-3 27-10 30-12 33-9 24-11 26-12 25-13 28-13 26-14 25"/>
<path d="M3986 18164l-1 2-7 26-7 25"/>
</svg>
