<svg xmlns="http://www.w3.org/2000/svg" viewBox="1492 1059 2768 4776" stroke="black" stroke-width="40" stroke-linecap="round" stroke-linejoin="round" fill="none" data-xena="0 0"><style>@media(prefers-color-scheme:dark){svg{background-color:black;stroke:white;}}</style>
<path d="M1814 1579l-1-1 9 31 8 33 6 28 6 30 6 34 5 38 4 39 4 43 5 45 4 47 5 47 4 45 5 45 5 40 4 37 3 31 4 25 3 26 6 23 5-25"/>
<path d="M2295 1558l 0 0 8 28 6 26 5 37 5 30 5 35 5 38 5 40 7 44 5 46 4 25 4 24 4 24 4 25 4 24 4 25 7 45 4 39 5 34 2 25 2 26"/>
<path d="M3302 1856l-1-1-8-24-25-1-1 25 20 19"/>
<path d="M3890 1829l-1 0-23 10-9 24 7 24 10-22 0-29-5-23"/>
<path d="M2824 1381l-1-1-2 29 7 30 5 26 5 30 6 35 6 37 5 40 6 42 5 45 5 46 3 24 5 48 5 47 4 46 5 42 4 38 4 32 4 25 3 25 3 25"/>
<path d="M1946 2747l-1-1-1 27 8 23 10 27 11 33 8 26 8 29 8 31 7 34 7 35 7 39 6 41 4 45 4 45 1 42 1 40-1 35-1 28-1 28"/>
<path d="M2464 2600l 1 0 17 19 9 28 5 24 5 30 5 36 4 29 3 31 4 35 3 39 5 40 5 41 4 42 4 40 4 38 1 33 2 27-2 29-2 25"/>
<path d="M3374 2626l-1-1 5 24 6 34 4 37 3 31 3 35 3 39 3 44 4 46 4 47 5 47 4 44 4 41 4 36 4 29 4 34 5 30"/>
<path d="M3069 2921l-1-1"/>
<path d="M3904 2878l-1-1-11 22"/>
<path d="M2058 3708l 0 3 1 31 1 29 4 34 2 24 3 27 5 27 3 29 4 33 5 37 4 40 7 42 6 43 6 44 6 43 4 41 4 36 4 30 5 29"/>
<path d="M2534 3666l 0-1 9 25 9 25 11 34 7 28 8 34 7 37 8 41 8 45 9 47 5 25 4 26 5 26 5 27 5 27 4 28 5 27 5 28 5 27 4 26 3 25 8 45 5 38 5 29 5 27"/>
<path d="M3009 3949l 0 0 24-6"/>
<path d="M3472 3930l-1-1-8 24-11-24"/>
<path d="M3872 3632l-1-1-3 28 0 31 1 32 1 25 1 31 1 35 2 38 3 40 4 42 3 45 4 44 5 44 5 42 5 40 5 35 5 35 6 31 4 27 6 33 4 29 5 26"/>
<path d="M2138 4814l 0 0-1 26 5 30 5 30 3 25 3 29 4 34 5 36 5 39 4 43 5 47 4 47 2 24 2 25 1 24 2 25 3 45 2 43 3 38 2 33 2 26 4 27"/>
<path d="M2763 5099l-1-1-23-8 0 25"/>
<path d="M3154 4795l-1 0 10 28 5 28 5 24 5 29 4 32 3 36 2 38 3 40 3 41 3 45 4 47 5 47 5 46 5 43 5 40 5 37 5 32 4 26 4 28 5 24 2-24 1-30 1-24 2-27"/>
<path d="M3509 4801l-1 0 22 19 9 27 7 29 7 35 5 26 4 29 5 31 3 34 3 36 5 38 3 39 5 40 6 40 6 39 6 37 6 34 6 31 6 26 8 32 7 25 9 23"/>
<path d="M3937 5035l-1-1-17-20"/>
</svg>
