<svg xmlns="http://www.w3.org/2000/svg" viewBox="436 2369 19347 42963" stroke="black" stroke-width="16" stroke-linecap="round" stroke-linejoin="round" fill="none" data-xena="0 -18 0"><style>@media(prefers-color-scheme:dark){svg{background-color:black;stroke:white;}}</style>
<path d="M2679 2793l-1 0 24-8 26-3 27-3 25-6 25-4 26-9 27-9 24-10"/>
<path d="M2791 2696l-1 0 15 20 8 25 4 24 3 26 3 25 1 25 0 25-4 25 1 25"/>
<path d="M3059 2472l 0 2 2 24 3 27 5 23 6 26 6 28 4 25 3 28 1 30 2 32 1 34 1 35 0 25 0 24 2 24 0 24 1 33 1 31 2 28 3 26 3 27 5 30 5 24 7 26"/>
<path d="M2705 3905l 0 0 24-5 24-6 25-9 26-11 24-11 20-13"/>
<path d="M2757 3824l 0 0 1 25 4 26 2 25 1 27 0 27 0 29 1 26"/>
<path d="M3014 3563l 0-2 15 23 8 28 6 27 4 29 2 32 3 32 4 33 3 34 3 35 2 24 2 35 2 34 1 35 2 34 0 34 1 29 0 27"/>
<path d="M3717 4038l 0 1 17 17 25 7 27-8 29-15 25-21 18-17 20-21 22-23 22-24 22-25 21-25 19-25 16-23 15-24 10-22 12-33 6-30 2-31-1-29-1-29-3-25-6-25-22-11-17 18-17 26-13 24-14 29-14 35-12 37-13 40-11 41-11 41-8 44-7 44-6 45-3 45-2 42 2 41 3 39 3 36 4 35 5 32 5 28 7 24 14 31 17 21 22 13 26-2 21-23 10-25 7-29 4-32-2-35-4-36-7-35-4-25-5-24-8-34-5-33-4-31-4-25-2-25 15-22 25 0 24-2 29-5 28-8 29-10 27-13 22-12 22-13-17 20-14 23-11 23-7 25 5 27 20 13 24-3 25-9 23-13 19-17-12-21 7-24 21-18"/>
<path d="M4322 3863l 0 0 26-6 23-6 25-5 12 21-19 20-19 21-15 21-13 24 3 27 16 20 28 6 32-3"/>
<path d="M5090 3839l 0 0 27 2 25-6 24-7 24-11 23-15 21-16 4-24-25-8-25 1-24 9-25 14-18 19-17 25-12 22-8 22-3 26 5 23 20 19 27 10 30 0 28-4 28-5"/>
<path d="M5413 3841l-2-1-24-8-26-2-26 3-23 10-20 18-18 19-3 25 24 3 25-9 23-13 21-12 6 24 13 23 21 13 26-4 26-9"/>
<path d="M5590 3809l 0-2-11-21-25 1-21 12-20 18-20 21-19 22-10 22 0 25 19 17 26 5 26-4 32-8"/>
<path d="M5796 3484l-2 0-21 14-13 22-7 25-6 31-4 26-2 27-3 28-4 28-6 28-6 28-6 26-4 26-5 24-10 28-9 25 14-27 12-29 11-23 13-24 16-22 19-16 25 3 3 25-2 26-5 24-5 28 1 30 11 22 18 17"/>
<path d="M6414 3804l 0 0 22-11 25-18 20-15 22-17 22-18 19-17 21-21 17-21 11-23-3 25 3 27 3 24 6 27 9 25 12 24 8 24-9 24-22 13-28 6-24-2-21-12 1-24 25-12 22-10 29-5 27-8 28-12 28-9 24-10 22-10 23-17 16-18 9-23-9 30-6 31-4 25-6 27-5 30-4 31-5 31-7 30-6 30-6 32-6 30-6 29-7 26 1-26 5-29 5-32 3-33 4-34 3-35 4-37 2-24 4-35 4-33 5-30 9-24 9-22 17-20 25-10 26 3 24 7 24 10 21 13 10 22 1 25-10 28-15 21-19 19-19 16-20 19"/>
<path d="M7070 3650l 2-1-25 0-25 14-23 16-24 17-21 19-18 22-14 21-4 25 23 7 28-6 24-10 22-10 24 9 10 22 25 6 26-13 20-14 20-18 15-20-5 26 18 16 25-16 19-15 21-20 21-16 21-11 24 0 20 17 9 25 9 24 12 22"/>
<path d="M2619 5061l 0-1 9 27 2 29-1 28-4 34-7 34-5 24-8 35-5 24-6 35-8 32-5 29-4 24-2 28"/>
<path d="M3230 5056l 0 0 27-7 27 0 29 2 28 4 30 4 27 4 25 4 30 8 25 10 17 22-5 26-18 25-21 24-17 18-21 16-21 16-22 18-22 16-21 17-22 17-20 17-22 16-22 16-19 16-26 21-21 18-19 19 0 25 28 3 25 0 29-4 31-5 31-7 33-5 34-5 36-3 25-2 24-2"/>
<path d="M4234 5041l-1-1 11-22 26-10 28-4 29-2 31 3 32 4 30 8 25 10 18 16-1 28-14 25-22 21-22 16-25 16-23 15-22 14-25 14-22 13 20 13 25 0 27 0 28 3 32 3 24 3 29 3 25 6 24 13 13 24-5 24-14 21-19 22-23 20-28 17-23 12-24 11-31 10-25 7-26 3-28 0-24-9"/>
<path d="M5296 4891l 2 0 26-1 24 1 32 0 28 0 30-1 31-2 31-2 32-3 31-3 30-2 27-2 30-2 26 0 26 0 5 24-13 20-14 20-16 23-16 25-16 28-14 28-14 27-14 26-15 26-12 28-11 26-10 27-11 26-11 24-10 25-11 25"/>
<path d="M2535 6559l-1-2 2-25 6 25 0 31-3 27-2 33-4 25-3 27-4 27-3 28-4 29-2 29-4 28-4 27-2 26-2 25 0 33 0 27 0 28 0 25"/>
<path d="M3336 6676l-1-2-1-27 0-24 4-25-5 31-3 25-2 26 0 26 2 28 1 30 3 30 2 28 2 24 4 31 3 29 2 24 0 28 0 26"/>
<path d="M4413 6455l 0-2-8 24-3 30-2 25-1 28-3 31-3 33-2 32-2 32-1 31-2 30-1 28-1 30 1 29 5 25"/>
<path d="M5444 6367l-1-1-26 5-24 16-21 22-21 24-15 20-13 23-12 24-11 26-10 29-7 32-3 35-2 24-1 25 2 25 5 35 8 31 7 27 12 23 18 24 20 16 23 13 22 11"/>
<path d="M5560 6567l 0-2 10-22 25-6 26-2 28 1 27 1 27 3 21 13-8 23-21 21-19 18-18 18-20 18-18 19 23 8 25-3 26 5 27 6 21 15 6 25-12 22-16 20-19 16-23 12-24 8-25-2-19-18"/>
<path d="M6176 6614l 1-1 0-24-24-3-25 8-24 15-22 16 6 25 26 9 23 7 24 7 24 8 22 9 18 16-4 25-16 18-20 16-22 16-27 13-24 10-19-17"/>
<path d="M6345 6658l-2 0-18 16 2 27 1 27 1 27-1 32-4 26-6 27-8 28-7 30-5 28-6 27-5 28"/>
<path d="M6339 6701l 0-3 5-24 16-18 22-10 26-8 24 2 22 14 7 27-2 24-7 25-14 25-16 18-21 20-20 16-21 12"/>
<path d="M6633 6667l-2-1-24 3-24 5-27 7-23 10-20 15 9 22 25 3 24-3 24-6 24-7 22 14 22 11"/>
<path d="M6737 6696l 2 0-2 26 10 22 22-16 20-16 21-15 18 16 14 21 15 20"/>
<path d="M6935 6453l-2-2 10 25 13 24 12 23 15 25 17 25 15 25 10 22 7 24 4 25 2 24-1 27-10 30-14 24-20 24-23 25"/>
<path d="M5586 7477l-1-1-7-23 20-15 24-6 25-1 27 1 27 5 25 10 19 17 10 23-5 27-13 25-18 24-19 19-23 21-27 23-26 23-25 22-25 20-21 19-21 20-21 22-16 18-17 18 25 8 26-5 24-3 28-3 28-2 26 0 27 2 25 8"/>
<path d="M10778 4937l 0-2 8-23-6 29-9 31-6 24-5 24-5 25-5 23-5 31-5 24-6 30-4 25-7 32-6 30-7 27-6 28-3 25"/>
<path d="M11445 4878l 0 0 23-12 28-9 25-8 30-4 24 0 26 6 25 12 21 13 20 15 19 16 1 26-21 19-18 16-23 16-26 12-25 11-24 10-28 11-25 9-22 8 26-6 27-9 28-5 29-2 27 1 30 4 28 5 24 9 24 16 19 18 12 25 4 27-2 26-7 28-12 21-15 21-21 20-23 20-27 16-28 14-27 10-26 9-25 6-29 0-23-10"/>
<path d="M12362 4817l 0-1 26-7 25-5 25-5 25-4 25-4 25-3 26-4"/>
<path d="M12456 4803l-2 0-24 8-21 15-18 21-13 23-8 22-5 25 0 26 13 21 20 15 28 6 30 1 25-1 25 0 27 1 27 3 25 5 25 8 22 10 23 14 21 16 9 23-5 27-20 19-21 14-20 14-23 15-26 11-27 10-26 7-27 5-29-1-26-9-19-15"/>
<path d="M10606 6023l 0 0 5 27-1 27-1 28-2 27-3 24-3 29-3 29-5 29-4 25-5 27-4 26-1 25"/>
<path d="M10812 6220l 0-1-23-10-25 6-8 22 17 19 19 17 20 15 20 16 6 25-10 23-21 13-25 1-23-10"/>
<path d="M11512 5998l-1-2 9-23 16 18-6 26-4 29-4 29-4 25-4 25-8 26-5 26-6 25-5 23-5 27-6 26-9 24-10 22"/>
<path d="M11751 6121l 0-1-22-10-23 9-25 10-24 13-18 17 18 17 24 3 26 9 27 9 23 10 24 13 21 13 18 18 6 24-17 19-21 18-23 15-22 14-26 9-27 4-26-3-24-8-20-16"/>
<path d="M12517 5857l 0 0-9 26-5 26-8 29-5 24-6 25-7 26-7 27-8 27-8 27-9 29-6 26-6 25-7 31-7 27-6 24-7 25-9 24"/>
<path d="M12759 6094l-1-1-22-9-26 0-26 5-23 10-23 12-16 19 10 24 23 10 25 8 25 5 28 4 27 7 24 11 15 18 1 25-14 19-20 19-21 13-24 11-26 8-25-2-22-12-10-22"/>
<path d="M10507 6813l 0-1-10 22-6 32-7 32-6 24-5 26-6 25-5 25-7 25-4 25-6 23-7 35-6 33-5 31-5 29-4 28-3 25-7 29-3 24-3 28"/>
<path d="M11393 6917l-1-2-5-23 23-14 25-4 27 3 26 7 23 6 27 13 24 13 18 16 12 24-7 24-19 26-22 24-26 25-18 17-18 17-19 18-18 17-17 16-18 16-23 22-20 18-21 21-18 17-18 16-21 15 27-6 26-7 26-6 28-4 32-3 25-2 26-1 25-1 25 1 31 2 25 3 28 6 23 12"/>
<path d="M12543 6799l-1-1 3 26-3 27-2 25-4 31-5 30-5 31-3 25 0 26-2 25-5 27-2 25-4 24-1 24-2 28-3 25-3 24-2 26"/>
<path d="M1667 9116l-1-1 24-10 20-13 20-18 23-15 22-11 22-8 28-8 28-5 31-5 27-4 32-4 36-6 26-3 27-3 30-4 31-5 33-5 36-5 38-6 41-6 43-6 43-8 47-7 24-3 25-3 26-4 26-3 27-3 28-4 28-3 28-3 30-4 30-3 30-4 31-4 31-4 33-3 32-4 34-4 34-4 36-4 36-5 37-4 39-5 39-4 39-5 39-5 41-5 40-4 43-3 43-6 43-4 45-6 45-5 46-5 47-5 49-7 48-5 50-6 50-5 50-6 53-6 51-6 53-6 55-6 55-5 56-6 56-6 57-6 58-5 60-7 60-5 60-6 60-5 62-6 63-6 64-6 65-6 66-6 66-6 66-6 68-6 69-6 69-6 70-6 71-6 70-5 73-7 74-6 75-6 76-6 77-7 79-6 80-6 79-7 82-6 82-6 83-7 84-7 85-7 84-7 87-6 89-7 89-8 91-7 90-7 91-7 94-8 93-6 94-9 96-7 96-8 98-7 97-9 100-8 100-8 100-9 103-8 103-9 102-9 104-9 108-8 104-9 106-8 106-9 107-7 107-6 108-8 106-6 106-8 109-6 109-6 110-6 109-7 110-6 108-6 112-6 109-6 111-6 110-4 111-6 110-4 111-6 113-4 110-5 112-3 109-5 111-4 111-4 109-3 110-3 111-3 110-3 110-2 110-3 108-3 110-3 113-2 108-3 109-3 108-2 108-3 107-2 109-2 105-3 105-2 106-2 105-3 104-1 104-1 102-1 100-2 103-1 101-1 101-1 100-1 100 0 99 0 98-1 97 0 96-1 95 0 95 1 91 0 91 1 90 0 90 0 89 0 87 1 86 1 84 1 84 0 84 0 82 1 79 1 78 1 76 0 77 1 74 2 73 0 71 2 69 1 69 1 67 2 67 2 65 2 65 2 60 1 59 2 60 3 56 2 55 2 53 3 50 1 49 3 48 2 46 2 44 2 42 2 42 2 39 2 38 3 36 2 34 1 33 2 30 2 29 2 26 1 25 3 46 3 39 3 32 3 29 2 33 3 28 2"/>
<path d="M2116 9918l-1-1-19 16-13 24-11 23-11 28-10 31-9 34-6 25-6 24-5 27-4 28-4 27-2 28-2 26 2 26 2 24 7 35 11 30 14 25 15 20 19 15 25 11 25 4 26-1 24-6 25-9 18-16 10-23-9-24-20-19-27-12-26-7-26-6-24 0-26 5-23 12-14 20"/>
<path d="M2385 10351l 0 2-2 25-1 28 1 28 0 26"/>
<path d="M2502 10360l 0 0-9 23-1 25 6 27 19 17 24 1 23-10 15-19 2-24-21-13-24-2"/>
<path d="M2915 10067l 0 0 26-5 26-5 26-4 26-1"/>
<path d="M2934 10122l-1 0 25 6 28 2 25 0"/>
<path d="M3487 9851l-1 1-4 26-5 25-5 29-3 24-4 26-3 28-5 29-3 28-6 26-4 26-5 24-7 30-7 26-3 25"/>
<path d="M3722 9789l-1 0-1 24 0 28-3 26-2 24-2 25-4 27-4 26-3 27-6 29-5 28-5 27-4 26-4 31-1 25"/>
<path d="M4068 9775l-2-1-26 1-18 23-14 28-10 22-7 26-6 26-1 27 1 26 4 27 8 25 12 24 14 19 18 16 28 16 31 6 24-1 26-6 25-8 23-12 22-14 20-14 23-22 18-22 12-23 5-23 3-29-7-24-10-24-15-25-18-25-23-22-25-16-24-16-25-13-24-5"/>
<path d="M4489 10075l 1 0 26-3 25 2 5 24-17 18-20 19-20 18-19 17 11 22 25 0 27 1 29-2"/>
<path d="M2221 11644l 1-2-9 25-5 25-6 28-8 30-7 30-8 29-6 29-8 28-8 28-8 27-6 26-8 29-5 29"/>
<path d="M2543 11697l-1-1-24 7-17 19-14 26-11 25-9 29-5 31-1 28 6 24 12 23 20 19 26 9 26 0 24-8 23-12 25-15 23-18 19-18 16-20 14-25 6-26-3-29-10-25-12-28-13-28-18-24-19-20-25-6-24 5"/>
<path d="M3144 11576l 0 0-7 23-6 25-5 28-5 25-5 29-5 27-5 27-5 26-3 32-1 28-1 26-4 27"/>
<path d="M3496 11581l 1-1 3 25 1 26 0 25 0 30 0 25-2 24-4 28-4 25-6 25-6 23-6 24"/>
<path d="M2210 12345l-1-1-18 18-12 25-10 25-9 28-8 28-6 28-9 28-7 28-6 26-3 25"/>
<path d="M2512 12339l 0 0-11 25-9 24-8 29-6 26-5 26-5 28-8 27-9 28-7 26"/>
<path d="M2955 12327l-1 0-26 3-22 16-15 20-13 26-9 28 0 28 8 24 19 18 23 8 27 1 26-7 23-8 22-12 18-18 10-22-6-25-14-22-18-16-24-12-25-4"/>
<path d="M3445 12239l 0 0-3 27-5 28-6 27-3 29-3 26-3 27-4 27-6 26-5 25-6 23-4 27-6 28"/>
<path d="M1696 12988l-1-2 21-15 26-2 31-1 26 0 29 1 32 2 24 2 26 1 28 2 32 1 34 0 36 2 38 1 41 1 45 1 48 0 25 0 26 0 26-1 27-1 28 0 29 0 30-1 30-1 30-1 32-2 33-1 32-1 34-2 34-1 36-2 35-1 36-1 37-2 36-2 37-2 37-3 36-2 38-3 37-2 38-2 35-2 37-3 37-2 36-2 36-3 35-2 34-2 37-2 35-3 34-2 34-1 33-3 32-2 33-1 32-2 31-2 31-2 30-2 31-2 28-2 29-2 28-2 27-1 25-2 25-1 25-2 46-2 41-1 38-2 34 0 28-1 24 1 27 1 25 3-25 9"/>
<path d="M2436 13289l-1-1-7 26-6 28-6 26-8 26-8 28-7 27-10 28-11 28-12 27-10 24"/>
<path d="M2931 13221l-1 0-16 23-8 24-8 28-8 24-7 26-7 27-7 25-6 24-4 25 6 26"/>
<path d="M3167 13335l-2 1-21 18-10 23 1 27 14 23 23 17 28 6 26-1 27-6 28-11 23-13 19-16 17-21 8-27-1-28-10-27-19-20-18-16-20-14-23-13-22-10-23-7"/>
<path d="M4112 13275l 0 0 16 21 11 25 9 23 16 19 24-11 19-18 20-20 18-22 18-25 15-26 12-27 11-24 9-23 10-23 9-27 4-25"/>
<path d="M3150 13332l 1-2 10-24 18-19 23-14"/>
<path d="M7651 9830l 0-1-4-26-2-25-10-24-23-11-28 5-28 12-23 14-23 19-19 20-18 23-15 23-11 22-10 26-3 28 9 23 26 8 26-11 21-15 19-18 18-19 18-20 24 4 13 23 20 16"/>
<path d="M7922 9500l 0 0-7 26-8 29-6 30-7 33-4 24-4 25-5 36-3 24-2 25-2 24-3 36 1 32 3 28 2 24 5 25 24-12 12-27 12-21 12-22 19-18 26-4 24 4 27 9 20 18 8 23-6 28-12 21-19 22-21 19-16 18-23 17-23 10-27 2"/>
<path d="M8401 9841l 0-2-9-24-21-11-24 10-19 16-16 19-18 22-19 26-16 27-9 25-1 26 12 21 23 15 27 3 25 0 25-3 26-6 25-7"/>
<path d="M8736 9878l-2-1-23-9-24-5-25 5-21 15-19 20-16 21-10 23-8 27 2 27 17 18 26-3 23-19 19-24 16-22 15-26 14-26 14-28 15-29 13-31 10-31 9-32 6-32 4-32 3-32 0-34 1-33-1-30 0-25-3-25-14-21-18 23-12 26-9 26-10 30-9 35-6 36-4 24-2 24-1 25 0 34 2 33 5 31 6 28 10 24 15 19 19 21 23 17"/>
<path d="M9034 9897l-1-1 27-6 25-12 22-13 18-17-15-19-24-3-26 4-25 12-20 20-14 20-9 24-6 24 0 26 16 23 23 11 27 4 29-2 32-5 25-4"/>
<path d="M9305 9966l 0 0 26-4 21-12 22-17 20-19 22-21 22-25 16-19 17-19 15-22 15-22 14-21 14-32 15-28 9-27 9-27 4-27 0-27 1-25 0-24 1-27-2-25-24 1-20 21-21 23-20 30-14 24-14 26-12 28-12 31-10 32-4 31-7 31-4 32-3 32-3 33 1 31 1 32 4 31 4 31 5 29 5 29 7 27 6 26 7 24 10 33 10 26 14 26 16 20 22-17 12-31 7-30 7-31 3-31-2-33-3-32-4-32-5-31-6-29-6-23-11-25-22-11"/>
<path d="M9826 9838l-2-2-16-21-16-20-21-13-23 5-20 13-24 19-16 21-13 21-13 25-2 26 15 22 26 3 26-7 26-15 22-16 19-17 16-19 16-20-19 21-10 23-6 24 2 25 6 28 7 27 11 29 8 30 5 24 4 26 3 26 0 25 0 26-5 25-4 26-10 24-11 24-15 26-18 18-23 13-27 5-29-8-25-13-22-19-20-21-17-26-13-24"/>
<path d="M12838 9139l-1-3-2-26-14-21-27-2-26 16-20 16-20 18-18 19-17 21-16 20-15 25-11 27-2 26 22 12 28-6 22-13 22-16 19-17 20-16 19-15 10 22 7 24 18 15 25 2"/>
<path d="M13045 9090l 1-1 23-11 28-9 25-6"/>
<path d="M13020 9163l 0 0 27-4 25-6 28-9"/>
<path d="M13409 8910l 0 0-5 24-2 28-4 26-2 29-1 29-4 28-4 26-4 27-4 25-6 28-6 23-6 26-6 28"/>
<path d="M7496 10712l-1-2-8-24-21-15-27 5-21 16-18 21-17 26-11 21-11 22-8 28-2 25 7 23 27 5 27-10 22-15 17-18 15-23 13-24 5-26-11 26-1 25 1 24 3 29 3 30 3 29 4 28 3 30 2 30 0 29-2 30-5 27-10 26-14 22-21 19-26 10-28-1-25-12-17-18-15-25-10-23-6-24-2-24"/>
<path d="M7737 10718l-1 1 24 4 26-15 21-17 22-21 19-22 20-24 20-27 16-27 13-26 10-24 7-24 4-29 2-27-2-28-6-25-23-10-21 22-15 23-16 28-10 23-12 24-12 26-11 27-11 27-8 28-5 28-5 27-2 28-1 28-1 29 3 28 1 28 2 26 4 35 9 30 9 24 16 23 21 18 26-8 9-27 3-25 1-27-4-28-6-27-8-27-6-25-6-25-8-23 27 0"/>
<path d="M8254 10639l 0-1-17-17-23 9-18 20-15 23-12 21-10 28-8 25-2 24 10 22 19 19 22 12 30 5 28-1 30-4"/>
<path d="M8166 10749l 0-1 17-16 24-7 23-11 24-13 21-16 17-20 3-24-19-17"/>
<path d="M8655 10645l 0-2-11-21-18-17-24 0-25 13-19 19-16 19-16 21-13 26-3 28 9 25 24 12 28-9 21-16 21-20 19-23 15-20 14-22 14-25 13-27 12-28 10-27 9-26 3-28-1-26-2-27-4-25-3-25-5-24-7-27-9-23-22 11-9 28-10 28-5 25-5 25-5 28-3 30-4 30-2 31-1 30 0 30 3 29 4 26 11 29 15 27 20 23 24 17"/>
<path d="M9032 10640l 1-2-17-18-25 2-20 13-20 18-16 24-8 24-6 25 3 28 16 23 25 10 30 0 30-3 24-5"/>
<path d="M9323 10734l 1 0 22-17 18-16 17-17 18-20 20-23 15-20 16-22 14-21 12-22 14-27 9-25 7-26 4-27 4-28 1-25-26 1-18 17-18 25-17 25-15 29-14 31-13 32-10 33-6 33-3 31 0 30 3 28 6 24 10 26 15 23 18 17 27 2 20-17 13-23 6-26-9-24-15-20-18-16 24 5 26 1 24 0"/>
<path d="M9825 10631l 0-2 4-25-9-25-22-14-24 5-23 15-19 16-18 19-15 21-10 23-4 25 15 21 27 1 25-5 24-8 25-11 22-13 10 24 5 26 14 24 21 16"/>
<path d="M11349 10718l-1 0 20 16 24-8 21-13 24-20 19-17 18-19 17-18 16-18 19-24 16-23 13-22 10-23 4-25 0 25-3 25-4 25-5 28-7 25-7 26-11 29-11 32-8 23-7 25-9 26-10 26-11 25-8 23-11 33-10 29-7 27-7 28-4 24 12-26 7-24 7-29 5-31"/>
<path d="M11486 10737l 1-7 5-26 5-29 9-28 9-26 10-23 14-25 14-22 16-19 15-18 23-16 24-10 25-2 26 3 25 8 22 14 12 21-4 26-12 24-15 20-16 22-22 24-25 22-22 21-22 16-23 18-20 15"/>
<path d="M11871 10578l 0-1-23-7-25 10-20 15-19 16-18 18-14 23-5 24 18 19 26 1 26-8 23-12 22-13 22-11 23 7 25-4 25-9 24-13 20-13 26-16 24-20 25-23 17-17 17-18 18-19 17-20 16-20 14-22 17-29 15-29 13-28 11-27 7-27 3-28 3-28 2-25 0-24-1-26-6-26-26 1-16 21-17 22-17 26-12 21-10 22-12 24-12 26-10 25-10 26-9 25-8 25-8 24-5 33-1 29 4 26 10 30 16 25 16 19 25 14 28 5"/>
<path d="M12323 10472l-2 1-17 19-8 25-6 25 4 25"/>
<path d="M12382 10318l-2-1-18 17"/>
<path d="M12391 10481l-1 1-7 24-7 24-7 27-3 24 11-24 12-25 15-24 19-22 16-21 22-10 25 4 9 24-6 27-6 23-7 24-5 24 0 26"/>
<path d="M12767 10528l-1-1-13-21-18-17-25-9-26 5-24 16-21 17-17 18-15 20-15 27-9 25-2 26 17 21 25-2 24-16 22-23 14-19 14-22 14-22 16-23 17-25 17-27 17-27 15-27 13-29 12-29 9-31 9-33 6-33 3-29-3-30-2-25-26 2-13 22-13 22-13 29-13 33-9 24-9 26-10 26-9 25-6 26-5 24-6 35-1 33 3 30 5 27 7 23 11 24 17 22"/>
<path d="M12848 10512l 0 0-16 18-9 27-5 26-5 28-5 25-3 25 7-28 7-24 9-24 9-24 17-24 18-19 25-14 23-9 25-5"/>
<path d="M13029 10542l-2 1-23 11-20 15-18 18-7 25 6 26 22 10 25-2 26-8 22-13 17-19 5-25-15-20-24-10 28-9 22-12 25-8 26-4 28 1 21 13 12 24 4 24-5 25-7 24-14 20 1-25 10-27 13-20 14-26 13-21 18-21 22-10 10 23-7 25-10 22-12 23-3 25 24-5 14-22 15-22 20-16 20-18 21-15 24-10 8 23-10 24 9 22 25-6 26 3 26-3 23-9 21-11 21-17 13-21-3-25-19-15-25 4-21 12-17 19-16 19-12 22-3 24 0 24 5 28 15 21 22 15 26 7 27 3 27-4"/>
<path d="M13722 10706l-1-1-16 19-12 21-16 25"/>
<path d="M14439 10523l-1-1-23-5-25 10-21 15-19 18-18 20-17 23-16 25-8 28 6 25 23 10 33 0 29-4"/>
<path d="M14558 10626l 0 0 25-11 25-14 21-14 21-16 13-21-17-19-25-6-29 3-25 13-19 15-14 22-13 28-7 24-3 24 4 27 11 25 21 14 27 5 27-6 25-12 27-17 21-13"/>
<path d="M14761 10597l 0-2-20 14-10 24-6 25 26-8 20-18 20-15 22-13 20-15 25-6-1 26-4 27-3 26 14 21 24-7"/>
<path d="M15099 10328l-2-1-21 18-10 24-10 25-12 30-9 24-12 27-9 26-7 28-9 26-8 27-6 26-4 31 0 25 5 24 17 17 28 6 30-8 29-15 22-15 20-16 19-18 16-23"/>
<path d="M15027 10487l-2 0 29 4 25-2 29 0 26 0"/>
<path d="M15262 10537l 0 0 25-5 23-9 22-10-3-24-24-7-27 0-24 5-25 11-22 17-15 22-11 27 0 25 13 20 23 18 27 6 29-2 25-4"/>
<path d="M15389 10555l-2 1-16 17-9 24-6 25-6 24 16-20 14-19 17-23 19-19 21-15 30-12 30-6"/>
<path d="M16367 10375l-2-2-25-5-25 9-24 15-22 14-19 19-20 23-15 27-14 29-10 31-6 31 0 29 4 28 10 22 18 23 27 16 24 7 26 1 31-3 31-9 31-12 31-16 20-13 27-20 22-22 16-23 12-22 7-30 0-25-8-27-11-28-15-27-16-27-22-26-24-21-23-16-26-11-28 0-26 13-14 23-5 29"/>
<path d="M16854 10522l 1 0 0 25-9 28-12 24-10 22 1 25"/>
<path d="M16921 10384l 1-1 26 8"/>
<path d="M16982 10562l-1 0 23-16 24-15 24-14 24-16 23-18 23-19 23-19 22-21 17-20 15-22 12-21 13-28 8-29 5-28 1-26-23-8-20 23-18 21-20 28-14 23-15 26-15 29-17 31-18 35-17 37-15 37-16 39-13 38-12 39-9 37-5 35-1 34 1 31 5 28 6 23 13 28 15 20 23 17 27 7 22-11 18-25 13-27 7-25 3-24 3-26 0-27 0-29 0-26 2-30-2-25 25 8 31 3"/>
<path d="M17783 10610l-2-2-20-13-27 8-19 17-12 21-11 26 4 27 17 17 29 7 29-4 23-9 22-11 15-21-2-26-19-15"/>
<path d="M18015 10636l 0-1-10-22-26-7-25 7-23 11-19 15-18 21-10 22 7 25 26 9 24-4 22-10 21-17 23-18 22-20 19-23 18-24 14-25 11-28 11-28 5-30 0-24 1-26 1-30-5-27-17-18-20 18-13 21-14 26-8 31-6 31 0 28 2 28 3 27 7 24 11 22 15 21 19 17"/>
<path d="M18249 10642l 0-2-12-22 2-25-21-15-27 9-22 13-21 18-19 16-10 25 2 25 24 1 23-12 23-16 22-17 22-18 19-20 18-21 16-21 14-20 11-22 10-22 11-30 6-23 3-24 2-25 2-31 4-29-5-26-26-3-18 17-19 24-14 22-12 23-9 28-7 27-5 29-1 28 0 28 4 28 8 28 10 26 9 25 13 22 15 21 17 20 18 19"/>
<path d="M2105 14727l-1 0 19-15 24-12 25-10 30-9 33-9 33-6 33-5 32-4 32-2 28 0 26 2 31 6 22 9 20 19 5 25-12 25-16 22-22 25-17 18-20 17-20 18-22 15-20 14-29 18-28 16-27 12-24 10-27 8-28 5-25-1 28-10 25 0 29 3 30 4 24 3 25 3 32 5 31 6 31 8 26 9 25 16 17 17 1 25-12 23-17 22-19 19-22 20-23 19-27 17-28 15-31 15-23 8-32 12-33 10-29 8-26 4-25 3-27-3-10-22"/>
<path d="M2551 15146l 0-1-10 22-9 25-10 27-7 28-7 25-4 25"/>
<path d="M2640 15229l-2 2-13 23-10 24-2 27 16 21 22 8 25-1 25-5 27-13 18-17 9-25-8-26-18-20-21-12-26 3"/>
<path d="M2993 14959l 0 0 24 1 25-1 26-4 28-4 25-3"/>
<path d="M3009 15061l-1 0 27-5 29-4 31-4 26-1 33-4 24-3"/>
<path d="M3698 14789l 0-2-7 30-8 27-11 28-10 30-12 30-10 31-9 30-9 31-6 29-4 29-3 27 0 30"/>
<path d="M3960 14716l-1 0-16 20-10 27-7 29-5 24-6 26-6 29-4 30-6 29-6 30-6 31-7 29-5 28-4 25-2 25 2 24"/>
<path d="M4089 15036l-1-1 26-11 27-2 26 3 23 6 9 23-12 22-19 21-19 16-23 17-21 14-19 15 23 12 27 4 27 3 28 5"/>
<path d="M2321 15985l 0-1-9 28-13 29-13 25-13 26-13 26-13 25-12 23-15 27-15 25-13 25-12 24-11 22"/>
<path d="M2536 16001l-1 1-13 23-11 23-9 28-5 25-3 27 1 28 6 26 9 23 17 22 22 17 26 8 28 3 24-7 26-11 25-14 20-15 24-19 22-20 18-20 15-25 7-27 0-29-9-28-16-19-20-15-23-13-27-9-27-4-25 4-24 6-26 11"/>
<path d="M2146 16567l-2 0-25 6-19 14-19 20-14 23-11 25-9 24-9 25-6 25 0 27 7 23 15 23 22 14 25 7 27-2 28-5 30-11 24-12 24-15 23-19 20-21 18-22 15-20 14-28 5-25-4-26-17-23-23-16-23-10-24-9-27-4-25-4-29-1-28 6-20 15-16 19"/>
<path d="M2617 16482l-1 0-14 22-5 23-7 30-5 26-5 26-5 28-9 31-7 28-8 27-7 28-6 24-4 24"/>
<path d="M1660 17043l 4 0 32-4 27-4 33-4 24-5 26-3 27-5 29-4 30-4 32-4 34-4 34-5 37-3 37-3 39-3 39-1 41-3 42-2 42-2 42-5 40-2 41-3 38-2 38-1 36 0 35-1 32-2 30 1 28 2 25 3 34 6 29 5 31 6 24 13"/>
<path d="M2090 17193l-1-2-5 25-4 25-4 28-6 29-9 28-8 31-7 25-7 23-6 24-4 27"/>
<path d="M2462 17187l-1 2-14 21-14 22-14 25-14 28-11 25-9 28-11 28-10 27-7 29-3 29"/>
<path d="M3507 17088l 0 1 2 25 6 27 6 29 9 29 9 24 9 25 12 23 23 8 18-18 14-23 18-30 14-23 14-24 13-25 14-26 11-26 11-26 11-26 9-25 9-25 8-23 11-35 10-32 7-31 6-24 6-24"/>
<path d="M1965 18436l-1-1-19 17-12 22-14 29-12 25-13 28-14 30-13 32-13 30-11 27-10 24-7 26-3 24"/>
<path d="M2178 18467l-1 2-11 21-11 25-11 29-11 31-4 25-3 25 2 30 8 26 12 22 22 20 22 10 28 3 31-3 23-8 25-13 24-16 23-17 22-18 20-21 16-22 13-21 9-29 1-24-8-26-18-19-25-19-24-13-24-10-26-7-25-5-25-3-30 1-28 8-24 16"/>
<path d="M2516 18690l 0-1-17 17-14 21-12 23-13 22-9 25"/>
<path d="M2616 18706l-2 2-14 20-12 23-8 23 10 24 25 4 24-8 26-14 21-16 19-19 8-24-17-20-23-13-23-9"/>
<path d="M2953 18515l-1 0 25-2 24-1 29-3 27-2 26 0"/>
<path d="M2950 18604l 0 0 27 1 25-2 24-1 25-2"/>
<path d="M3658 18307l 0-1-19 18-13 24-13 23-15 26-13 29-13 29-9 22-10 22-12 23-10 22-12 23-10 23-10 23-13 26-11 22-12 22-13 20"/>
<path d="M3941 18420l-1-1-21-12-23 13-16 20-18 22-16 26-15 28-10 29-3 28 2 29 9 26 17 24 21 14 26 12 30 5 26-2 26-4 24-8 23-13 24-17 18-16 20-26 13-20 14-27 7-24-1-30-6-24-13-22-17-21-19-17-23-11-24-6-30 2-27 8-24 10"/>
<path d="M4318 18420l-1-1 3 26-7 24-10 28-12 24-14 23-15 27-14 28-10 25-6 26"/>
<path d="M4642 18419l-2-1-26 0-22 12-17 16-17 25-11 24-8 25-3 25 1 26 4 26 12 21 18 17 23 13 25 8 31 3 31 0 28-4 25-6 24-7 27-10 21-12 20-15 15-19 11-22 8-23 3-27-7-27-13-22-20-21-23-19-25-14-31-9-24-3-30 0-29 3-25 8-23 12-12 23"/>
<path d="M5006 18639l 0-1 26 2 23 7 21 13-8 23-21 15-21 13-23 12-23 13-9 23 23 9 26 4 24 3 25 3"/>
<path d="M5531 18485l 1-1 20-13 24-7 26-4 27 1"/>
<path d="M5545 18560l 0-1 25-4 30-5"/>
<path d="M6138 18395l-1-2-24-9-23 6-25 15-22 18-18 17-17 22-13 22-13 25-9 25-5 25-1 26 4 25 8 24 14 19 18 17 21 13 30 11 25 5 27 0 27-4 27-8 25-9 22-11 22-14 21-15 18-17 19-22 11-23 7-27-7-28-15-24-19-24-17-18-17-17-24-16-24-13-26-8-28-4-25 5"/>
<path d="M6603 18367l-1-1-16 18-10 26-7 24-12 26-12 28-10 28-12 28-11 29-8 28-6 28"/>
<path d="M6862 18402l-1-1-25 0-22 15-19 21-16 22-12 24-6 25-3 30 6 26 15 22 21 18 27 12 26 2 27-2 29-6 27-10 27-12 25-14 20-17 19-16 18-19 12-24 3-24-9-27-21-20-26-15-24-9-25-7-26-3-26 1-24 6-23 16"/>
<path d="M7321 18345l-1 0-16 20-9 23-6 25-7 30-6 25-7 24-8 30-7 30-4 28-4 25"/>
<path d="M7591 18414l 0-2-23-7-23 17-17 22-13 21-11 21-8 28-3 27 5 25 12 24 20 19 25 13 30 8 29 4 27 0 26-3 24-6 23-10 22-13 24-18 21-22 20-23 16-24 8-25 2-28-3-28-14-25-17-18-24-17-28-12-31-4-31-1-31 5-29 7-22 12-19 16"/>
<path d="M7978 18600l 0 0 23 13 25 9 21 13-20 17-24 12-22 11-22 14-8 23 23 13 27 6 24 7"/>
<path d="M1864 21811l-2 4-11 23-10 26-12 31-13 33-9 25-10 25-9 26-9 27-8 25-7 23-8 33-6 31-2 28-2 28-2 26-1 25-2 31-2 25"/>
<path d="M2349 21775l-1 1-13 22-9 24-9 24-7 28-9 30-8 29-6 28-5 25-6 26-7 30-6 27-6 24-6 27"/>
<path d="M2837 21788l-2 0-26 5-20 14-19 15-17 20-14 22-13 27-9 23-9 25-5 25-4 25 0 25 5 30 10 27 12 24 22 19 27 7 24-1 28-7 23-10 22-14 20-18 18-20 19-23 18-24 16-24 13-22 12-28 6-30-4-26-18-25-22-23-20-17-20-13-27-14-24-7-25-2-27 8-26 15-22 22"/>
<path d="M3400 21802l-1-1-27-2-23 8-22 14-22 20-17 19-16 23-14 26-13 27-8 33-5 36-2 24 0 34 5 31 10 25 15 21 22 16 23 6 28 0 31-7 31-13 27-15 21-12 29-19 18-16 23-21 19-21 15-22 14-25 5-28-6-25-13-21-20-24-22-21-25-18-21-13-27-13-24-9-25 0-27 9-20 14"/>
<path d="M4077 21786l-1-2-6 26 0 28 1 28 1 31 0 32 0 35 1 36 1 24 1 34 0 36 0 24 0 26-2 26-2 24-2 24-4 35-4 36"/>
<path d="M5315 21927l 0 0 0 27 3 27 5 25 6 24 9 23 15 19 24-6 21-20 18-25 15-21 14-23 16-25 17-27 15-27 14-28 14-27 13-28 13-28 12-28 11-28 12-27 9-26 13-32 11-27"/>
<path d="M1712 22767l-1-2-12 22-6 25-9 31-12 34-9 23-10 24-10 24-9 24-9 24-8 24-7 23-9 32-6 27-2 27"/>
<path d="M2069 22792l-2-1-22 9-16 18-14 21-12 25-9 27-1 27 4 25 12 27 20 22 26 14 25 4 27-2 28-9 29-14 26-17 20-20 14-21 9-27-6-26-17-26-22-20-25-18-26-13-24-7-27 4"/>
<path d="M2643 22770l-4-2-26 0-22 15-17 20-16 26-8 23-5 28 1 26 8 26 14 22 20 17 27 9 31 2 31-4 31-7 30-9 25-14 20-14 21-19 7-25-9-28-17-21-26-19-24-13-26-10-27-7-25-3-28 0-27 8"/>
<path d="M3365 22715l-1 0-13 21-10 28-9 30-6 24-5 30-2 29-2 27 1 25 1 26 1 25 6 27"/>
<path d="M4051 22680l-1 0-13 20-6 29-6 24-6 26-4 28-3 29-3 28-5 27-5 26-3 26-3 26-2 27-2 26"/>
<path d="M1554 24225l 0 0-5 28-5 27-6 31-7 25-9 28-10 28-13 30-15 30-13 28-10 26-8 27"/>
<path d="M1838 24091l 0 0-8 23-6 27-4 30-5 27-4 29-5 34-4 25-4 24-5 25-3 24-3 35 1 33"/>
<path d="M2002 24541l 0 0-1 24-5 24-8 26-9 27-7 24-6 26"/>
<path d="M2144 24569l-1 1-13 20-4 26 4 26 15 22 22 14 25 6 27-5 21-15 13-25 4-24-9-23-18-17-24-7-26 0-26 4"/>
<path d="M2551 24275l 1-1 22-10 26-6 26-3 26-5 26-3"/>
<path d="M2566 24323l-1 0 25-1"/>
<path d="M3203 24044l 0 0-3 25-8 30-7 26-9 28-9 30-9 29-8 32-8 30-8 29-7 27-5 23-7 27-7 28"/>
<path d="M3483 24142l-2 0-19 16-13 24-8 25-4 32 1 26 6 25 12 29 18 26 23 18 26 9 29 3 29-4 29-10 22-12 21-16 22-18 19-18 15-21 15-28 10-26 5-25-4-28-14-24-17-19-17-19-23-19-26-13-30-8-29-1-26 2-23 8-17 21"/>
<path d="M4001 24079l 0-2-5 25-5 29-4 24-8 27-8 27-6 28-7 29-7 27-6 25-7 30-4 26-4 25"/>
<path d="M4320 24062l-1 0-13 24-9 27-7 27-4 28-2 28-1 27 0 29 0 29 1 28 1 26-2 26-5 26-6 26"/>
<path d="M4486 24428l 0-1 25-12 26-4 26 0 25 6 22 11-4 27-20 16-22 15-21 15-26 13-25 12-24 12-19 15 13 22 26 1 25-2 26-1 28 0"/>
<path d="M1792 25990l 0-2-5-25-7-25-15-24-18-15-25-8-28 1-25 11-21 14-21 21-15 19-17 26-12 28-5 29 8 26 17 17 21 15 26 12 25 9 30 7 29 5 25 9 22 10 25 13 22 16 16 22 6 28 3 30-3 24-6 30-10 28-10 25-12 22-19 19-26 8-26-11-19-16-15-27-9-29-5-32-2-24 1-26 2-27 3-26 3-27 4-26 5-25 10-34 9-31 12-28 14-25 16-20 17-18"/>
<path d="M2019 26365l 0-1-14 24-9 25-7 25-8 26-5 25"/>
<path d="M2096 26392l-1 1-5 23-4 28-1 26 6 24 16 21 22 12 28-2 25-12 18-16 17-22 13-23 5-24-13-22-21-19-25-11-25-5-26 0-26 12"/>
<path d="M2578 26005l 1-1 22-13 25-5 25-2"/>
<path d="M2584 26093l 0 0 28-5 25-2 30-3"/>
<path d="M3308 25817l-1 2-12 22-11 25-9 23-10 24-10 27-11 28-10 29-12 28-9 29-13 29-10 27-11 25-10 24-11 28-6 23-7 25"/>
<path d="M3604 25879l 0-1-26 5-17 23-15 21-14 25-12 26-8 27-4 27 1 25 8 24 12 21 21 19 22 11 27 5 28-1 31-7 26-9 26-13 27-14 25-17 28-21 25-19 24-21 18-21 13-20 8-25-4-25-12-23-20-22-22-14-25-13-24-10-31-8-29-3-29 3-26 5-24 7"/>
<path d="M4273 25806l-2-1-22-11-23 12-18 20-18 22-20 27-14 23-11 25-8 25-6 24-2 24 2 24 9 31 16 27 22 20 21 12 24 9 27 2 29-2 32-4 30-8 30-10 28-14 28-16 24-18 22-19 17-20 19-24 9-26 0-25-6-25-14-28-15-20-18-19-22-18-22-17-25-16-23-11-24-8-30-5-29 4-24 9"/>
<path d="M4833 25797l-2-2-21-13-27-2-28 6-23 14-22 20-21 24-17 25-13 24-5 26 3 26 9 28 11 22 15 22 18 19 22 16 25 13 29 8 32 3 29 1 29-3 27-5 25-8 24-9 20-14 18-17 18-25 10-26 4-27-3-24-10-26-15-26-18-25-19-20-16-18-19-20-22-15-27-8-27 3"/>
<path d="M5216 26019l-1-1 21-13 24 0 26-2 25 8-18 19-21 18-19 16-17 18-17 20-5 25 26 6 26 0 25-3 25-5"/>
<path d="M5839 25780l-1-1 28-8 26-3 26-2 25-1 24 2"/>
<path d="M5859 25874l 1-2 26-10 27-4 28 0"/>
<path d="M6478 25718l-2-1-26 6-21 17-22 21-17 24-12 28-8 31-5 25 1 32 7 28 13 27 20 21 21 13 23 9 24 7 25 4 27 3 24-1 25-4 23-5 28-13 22-11 23-16 24-19 23-22 21-24 18-23 14-24 9-29 1-31-8-25-12-27-19-26-22-25-25-20-26-17-26-13-25-10-27-4-30-1-28 2-32 7-25 10"/>
<path d="M7135 25667l 0 0-25 7-23 10-19 17-16 19-9 23-11 23-7 24-4 28 0 27 5 26 11 24 18 19 20 19 24 10 25 7 25 5 28 0 29-4 24-8 22-9 24-13 23-15 22-18 19-20 17-22 15-24 11-23 9-27 6-29-2-29-9-27-10-25-16-24-17-19-22-16-27-10-26-6-24-3-26 5-25 7-27 13-24 14-22 19"/>
<path d="M7657 25623l-1-1-23-7-21 13-19 18-16 22-11 26-5 24-2 28 6 25 18 22 24 18 26 10 25 7 30 6 27 2 31-1 27-4 26-7 23-9 24-19 15-19 13-21 6-24 1-27-8-24-13-24-16-22-19-20-20-18-22-16-27-15-26-8-27-2-27 0-27 6-25 9-20 14"/>
<path d="M8221 25546l 0-1-8 25-8 28-4 28-7 28-7 30-6 25-3 25-5 23-9 30-7 29-3 26-6 26-3 26"/>
<path d="M8653 25594l-1 0-27 8-20 19-19 22-14 22-14 25-13 27-9 28-7 24-5 29 3 29 13 25 19 20 24 12 29 5 30-2 30-4 26-10 28-13 22-12 20-15 18-16 17-18 20-25 10-26 5-29-1-31-6-30-12-28-19-21-23-16-27-10-31 1-24 5-26 7-23 9-23 11"/>
<path d="M9177 25626l-4-1-23-6-28-1-25 6-25 16-16 18-17 23-12 23-8 25-3 25-1 25 6 23 11 27 13 23 21 15 27 9 29 5 31 1 26-2 25-6 26-7 27-10 25-12 23-15 20-14 19-20 9-25-2-30-13-29-20-22-21-20-22-19-21-15-22-13-22-11-28-9-25-3-28 3-22 11"/>
<path d="M9599 25655l-5-3-27-10-25 0-24 9-18 16-12 24 0 25 3 28 10 27 17 23 22 21 27 16 26 9 26 7 29 4 26 2 24 0 29 0 25-5 25-10 23-9 22-17 13-23 0-26-6-24-12-27-16-22-21-20-22-17-20-13-25-12-28-9-25-5-25-1-30 3-26 7-22 13-20 19"/>
<path d="M9986 25851l 0 0 24 1 26 1 26 3 25 6 0 25-21 17-22 14-21 14-17 17 15 22 27 2 25 1 27-1 25 1"/>
<path d="M539 28298l 3-1 30-2 32 3 28 0 31-2 36 0 26 0 28 0 28-1 31-2 33-2 36-4 38-3 40-3 41-3 43-3 44-3 47-3 48-2 24-2 25-2 26-1 26-3 26-1 28-2 27 0 27-3 28-1 29-2 30-1 30-2 30-2 31-2 32-2 32-1 32-1 33-2 33-3 34-3 36-2 35-1 35-4 37-3 37-3 38-3 38-3 39-2 38-3 41-2 40-2 41-3 42-4 43-3 43-3 44-3 44-4 45-3 45-4 46-3 46-3 46-3 48-3 48-3 47-2 48-3 49-4 49-4 49-4 50-4 49-3 50-5 50-4 52-5 50-3 52-4 52-4 53-3 53-4 54-4 54-3 54-3 55-3 55-3 56-3 57-4 57-2 57-2 56-3 58-3 58-2 58-3 57-2 58-1 58-2 59-3 58-2 59-1 61-3 59 0 60-2 59-1 61 0 61-1 61-1 61-1 59-2 63-1 62 0 62-2 63-1 62-1 65 0 63-1 64 0 63-1 64-1 64 0 64-2 64-1 64 0 65-1 66-2 65-1 66-2 68-2 68-1 68-1 69-1 68-1 70-2 69-1 69-1 71-1 70-2 72-3 71-2 73-1 71 0 73-1 72-1 74-1 72 0 72 1 74-1 73-1 74-1 72-1 75 0 74 0 73-3 74 0 75 0 73 0 75 0 74 0 75 0 75 0 76 1 75 0 76 1 76 0 77 1 77 0 76 0 79 1 78 1 78 1 78 0 79 2 80 1 78 3 79 0 79 1 79 1 79 1 80 0 79 1 78 0 79 0 80 1 80 1 81 1 81 1 79 0 79 2 82 2 80 0 78 0 77 1 77 0 80 0 79 1 79-1 79 0 79 1 77 1 81 1 80 0 80 1 80 1 79 1 81 1 78 0 83 0 81 1 81 0 81 0 81 0 81 0 83 1 83 0 82 1 81 1 82-1 81 1 82 0 84 1 81 0 82 1 81 1 81 3 82 2 80 2 81 1 77 3 79 2 78 2 79 5 78 0 77 3 78 4 75 3 76 4 76 5 75 6 75 3 73 4 74 6 72 4 73 5 74 5 72 5 72 3 71 5 70 5 71 5 69 4 69 5 68 4 68 5 66 4 66 5 65 4 65 5 65 5 64 3 65 3 63 4 61 3 63 4 61 4 61 4 59 3 59-1 58 4 56 3 57 3 54 3 53 3 51 4 51 3 48 9 49 3 46 3 44 3 44 4 42 3 40 3 39 3 38 3 34 3 34 3 32 2 31 3 28 1 28 3 24 2 43 5 37 3 33 1 26 3 27 2 24 1"/>
<path d="M1151 29639l 0 0 8 27 3 24 1 28-1 27-4 28-5 27-5 28-4 28-1 24 10-26 7-23 8-28 10-28 8-28 8-27 9-24 11-30 11-25 15-19 24 9-2 25-6 27-11 29-11 29-8 24-7 25 22-21 15-23 18-29 19-30 17-29 17-26 14-22 18-22 17-19 10 22-3 31-4 28-6 29-7 30-5 28-5 26 10 23"/>
<path d="M1504 29601l 0 1-6 23-2 28-3 24-1 27-2 28 10 24"/>
<path d="M1538 29447l-1 0"/>
<path d="M1619 29681l-1 1-9 23-5 24 21-16 14-21 16-25 16-21 15-20 16-21 17-18 19 19 1 27 0 25-3 27-1 25 5 24"/>
<path d="M2206 29157l-4-2-24-3-22 10-20 16-16 21-19 29-14 21-14 22-13 24-14 26-13 28-13 31-12 32-11 32-10 34-7 34-7 34-5 35-3 34-1 34 0 33 1 31 4 29 3 28 5 25 4 25 7 33 8 28 9 24 12 21 16 24"/>
<path d="M2300 29437l-1 0-13 24-9 28-7 25-9 28-8 29-8 30-8 30-6 27-4 26-3 26 2 25"/>
<path d="M2281 29556l 1-5 1-32 2-27 1-25 2-26 4 24 1 28 3 30 4 31 6 31 8 29 10 27 13 24 18 24 18 18 23 13 26 0 19-16 13-24 9-23 7-25 5-29 2-30 0-27-2-29-3-28-4-31-6-27-7-28-10-23"/>
<path d="M2553 29788l-1 1-8 24-8 23-13 24"/>
<path d="M2854 29433l 0 0-5 27-4 28-5 26-3 27-4 28-4 28-5 31-5 31-5 29-3 25-5 24"/>
<path d="M2841 29603l 0-7 0-28 0-31-1-30-1-27 1-29 2-24 5 28 3 24 4 28 6 29 8 26 14 24 17 16 25 6 22-8 21-14 16-18 18-19 16-21 16-21 13-21 13-22 15-28 13-22 15-22-6 29-4 26-6 30-3 31-5 29-5 27-1 27-1 26-1 28 4 25"/>
<path d="M3165 29250l 0 0 18 17 17 18 17 22 17 26 14 25 12 24 13 29 9 30 13 32 9 33 5 32 3 32 1 34-3 36-6 36-8 34-12 32-14 31-16 30"/>
<path d="M3759 29432l 0 0-25 2-23 10-22 12-24 15-24 12-13 20 14 20 23 14 24 9 23 12"/>
<path d="M3614 29628l 0 0 25 11 29 5 27 4 28 5"/>
<path d="M4260 29301l-1-1 21-11 27-7 28-6 34-8 26-6 26-5 28-4 29-6 34-4 34-5 37-5 38-5 37-4 36-4 37-3 36-3 35-5 35-3 34-3 34-3 31 0 31-2 31-2 29-1 28-2 25-1 29-1 27 0"/>
<path d="M4264 29317l 0 0 5 24-3 24-7 25-7 32-8 25-7 28-9 28-8 31-8 32-8 34-8 34-8 33-7 32-6 31-7 30-7 29-7 27-5 26-5 23-7 33-7 27-7 29-10 24-20-17-12-25-14-25-14-21-24-6-16 17-10 22-7 24"/>
<path d="M4404 29549l 0 0 21-12 27-2 25 2 25 5 24 8 23 9 20 18 1 28-8 25-18 23-19 18-21 19-23 19-25 18-26 18-26 18-23 17-24 18-19 18-9 24 13 23 24 3 30-3 28-4 23-7 24-11 26-11 28-13"/>
<path d="M4719 29550l 0-1 25-7 23-7 25-6 25-6 26-5"/>
<path d="M4762 29547l-2 2-20 15-18 16-16 19-11 22-8 24 2 24 22 8 26-1 27-4 31-3 28 0 28 1 27 3 29 4 23 8 18 17-7 23-21 17-25 15-21 11-21 12-26 12-24 12-25 7"/>
<path d="M5065 29562l-2 2-19 20-18 20-13 23-10 24-1 28 9 28 18 24 23 17 27 11 28 4 27-6 23-10 23-16 18-20 12-22 0-27-12-25-16-20-23-18-30-10-25-2-25 2-29 8"/>
<path d="M5388 29463l-1-1-18 19-8 25-6 24-7 28-6 28-7 31-6 31-5 30-3 28-3 26-1 29 1 29"/>
<path d="M5587 29517l-1 0-23 5-23 10-26 13-23 13-24 14-22 18-20 19-13 22-5 26 10 24 19 18 21 10 24 7 29 5 28 2 25 0 27 1 24-6"/>
<path d="M5013 29189l 0 1 24 10 28 5 31 1 26 0 30 0 31-3 34-2 35-1 34-1 35 0 34 1 25 2 27 1 36 1 28 0 30 2 28 0 30 0 29 1 28-1 26 1 25 1 25 0 36 1 32 1 29 2 25 4 26 5"/>
<path d="M6072 29483l 0-1 27 0 26 1 27 2"/>
<path d="M6108 29566l-1 0 24 9 28-2 25-2"/>
<path d="M6613 29333l 0-1 24-10 29-5 27-3 29-4"/>
<path d="M6634 29343l-2 0-24 13-19 15-16 18-10 23-5 24 12 23 24 12 29 0 28-4 25-5 28-5 26-3 27 1 24 5 26 9 24 11 18 16 8 23-10 25-20 18-18 16-22 16-25 19-25 16-24 15-22 10-29 9-26 6-29 4-25-3-18-18"/>
<path d="M7120 29374l-2 0-27 5-26 13-21 19-16 20-10 23-9 27-3 27 5 24 11 22 15 18 25 17 28 11 29 3 29-7 23-8 22-12 25-18 23-21 17-18 16-25 10-25 2-25-2-27-6-26-16-27-20-23-23-17-29-11-28-4-24-1-24 5-15 21"/>
<path d="M7554 29359l-2 0-28 2-27 8-29 12-25 15-15 19-10 26-2 24 4 26 10 22 19 21 21 11 24 8 24 5 25 2 25-2 23-5 26-5 24-10 23-16 18-18 11-25-3-26-12-21-15-22-24-18-27-12-25-7-26-1-27 2-29 5"/>
<path d="M11038 29065l 0-1 19-15 26-13 26-13 27-14 22-11 25-15 26-13 24-11"/>
<path d="M11052 29034l-2 1-21 17-17 18-10 23-8 24 13 24 26 1 28-9 26-13 29-12 28-11 28-11 22-9 27-4 26 0 23 12 12 22-1 28-12 22-18 23-23 21-24 19-24 17-23 19-25 15-22 13-28 14-25 9-25 8-17-17"/>
<path d="M11394 29052l-2 0-21 15-16 19-16 22-14 26-7 26 0 28 10 26 21 20 25 12 25 3 29-2 28-9 25-14 23-16 17-18 15-19 14-21 9-27-1-26-11-27-14-20-16-21-16-18-22-11-24-5-25-1-26 4-22 11"/>
<path d="M11771 29035l-2 0-27 6-20 13-15 20-12 28-4 28-1 29 5 27 10 22 21 22 22 15 26 10 30 3 26-2 27-6 26-10 22-13 19-21 8-24-3-29-10-28-16-21-18-21-19-18-22-16-26-10-25-4-27 5"/>
<path d="M12031 29166l 0 0"/>
<path d="M12280 28989l 2-2 25-9 28-8 25-3 25 0 25 3 14 23-11 25-18 25-17 22-22 24-18 17-19 18-19 17-19 18-27 24-18 16-23 23-25 21-18 19-16 20-10 24 9 25 27 3 25-5 27-8 30-12 26-10 31-12 30-11 30-14 28-11 28-11 26-11"/>
<path d="M12534 29024l 0 0 25-11 25-10 24-9 27-9 26-10"/>
<path d="M12586 29027l-3 3-19 18-20 21-19 21-14 23-5 25 19 17 28-3 26-8 26-12 25-11 25-11 23-9 24-5 24 4 16 19-8 28-14 21-22 22-22 17-22 16-22 13-26 16-22 14-20 14"/>
<path d="M12844 29034l-1 2-12 23-14 25-1 26 0 29 7 25 16 18 24 13 25 3 27-3 23-13 20-15 16-22 3-28-6-25-13-23-17-21-18-16-24-15-24-9"/>
<path d="M13187 28868l 0 1-8 26-6 30-5 29-6 30-5 26-6 27-7 27-7 24-7 25-4 32-3 27 3 25"/>
<path d="M13421 28913l 1-1-25 7-28 14-22 13-24 15-29 16-28 16-24 16-25 17-22 14-21 13-17 19-9 23 8 26 19 16 24 17 24 10 23 8 29 5 25 4 29 6 23 5 27 12"/>
<path d="M13657 29078l 0-2 22-14 25-5"/>
<path d="M13604 29151l 0 0 25 8 26 2 30-1"/>
<path d="M13998 28956l 1-2 22-11 26-8 24-7 28-9 26-6 24-5"/>
<path d="M14066 28935l-4 1-23 11-21 12-19 17-16 19-9 24 10 24 27 9 26 1 31-1 24-1 31-2 28 0 25 3 28 6 23 10 22 15 15 22-3 26-19 24-21 16-25 14-28 14-28 13-28 12-25 11-29 12-23 9"/>
<path d="M14422 28945l-1-1-22 14-20 19-14 20-10 25-7 27 0 29 3 29 7 27 10 25 18 22 21 12 28 6 27-4 30-8 24-14 21-17 15-20 9-27 3-27-10-26-18-24-23-18-26-11-27-3-27 3"/>
<path d="M14681 28976l-1 0-22 8-18 20-13 21-12 24-1 28 9 29 17 22 21 19 24 10 24 4 30-2 25-5 25-11 22-16 16-21 15-23 2-25-6-27-10-26-14-22-18-19-18-16-21-11-26-6-27 3-21 11"/>
<path d="M15015 29055l-1-1"/>
<path d="M15292 28910l 1-1 22-10 26-4 27 8 22 10 22 15 19 18 13 22 1 25-11 22-19 20-22 16-24 17-27 16-28 17-30 16-29 16-27 14-22 12-25 16-19 15 20 13 30-2 25-3 27-5 30-4 29-3 31-3 25-2 30 0"/>
<path d="M15517 29179l-1 0"/>
<path d="M15709 28904l 0-1 22-15 24-8 28-6 27-3"/>
<path d="M15679 28927l-2 1-18 16-19 19-4 25 13 20 24 3 29-1 27-3 25-5 26-5 28-3 25 0 24 3 23 9 13 20-3 24-16 19-17 19-20 14-25 20-19 17-25 17-25 14-25 12-23 9-25 4-13-21"/>
<path d="M15914 29057l 0 0 27 8 27 4 29 3 25-1 25-3 23-5 17-17-8-23-22-16-25-3-26 8-25 14-20 17-16 19-12 22-8 24 3 25 14 23 20 14 29 9 30 5"/>
<path d="M16752 28998l 0-1 23-7 26-2 24 1 26 1 28 2"/>
<path d="M16748 29063l 0 0 24 4 25 3 25 1 25 3 25 5"/>
<path d="M16818 28998l-3-1 20-16 25-9 25-7 25-9 22-9 25-4 25 2 22 10 23 10 20 15 24 10 25 2 25-4"/>
<path d="M16779 29068l-2 0 26 11 25 0 27-3 25-2 28-4 25-7 25-8 24-7 24 3 21 15 20 13 23 8 24 4 26 2 24-1"/>
<path d="M17410 28854l 0-1-14 22-13 24-11 28-8 26-11 27-10 29-10 28-10 28-8 28-8 30-7 29-9 27-11 24-8 27 0 28 10 22"/>
<path d="M17499 29157l 2-1 28-2 25-3 28-5 28-6 26-10 25-12 19-16 8-22-16-18-25-6-25 1-26 5-21 12-21 14-21 15-17 18-15 25-8 25 4 26 16 19 23 11 24 6 24 3 26 1 31-1 34-3 33-3 31-6"/>
<path d="M663 31272l 0 0 10-23 13-28 10-26 11-29 11-30 9-33 8-32 5-29 4-28 3-25 0-31 0-28 11 29 7 36 5 27 5 29 5 30 6 30 7 30 7 29 8 27 9 27 8 26 11 24 10 23 15 30 15 22 15 22-23-11-25-17-26-19-21-16-22-17-23-17-23-19-23-18-23-18-21-17-21-14-21-14-21-14 27-3 24-7 31-11 22-9 25-12 25-14 26-14 27-15 26-14 27-12 25-10 23-10 31-13 27-11 23-8 1 24-19 27-20 26-16 19-17 19-17 20-17 20-18 20-20 20-19 20-20 18-18 19-17 18-18 17-17 18-21 22-17 17-17 22"/>
<path d="M1332 31341l 0 0 23-7 23-15 19-18 22-24 16-19 16-21 15-19 16-27 11-24 6-24-1-25 6 28 11 22 12 22 15 23 11 21 8 25-6 24-15 21-20 17-23 12-27 4-26-2 14-21 24-14 26-11 22-11 21-12 22-11 23-5 26-5 25-8 22-13 21-14 20-17 19-19 14-21 7-24-21-15-28 4-25 10-21 15-18 20-16 22-15 24-7 24 0 27 12 25 21 13 27 2 25-6 23-11 26-15 22-14 21-18"/>
<path d="M1954 30868l 0-1-8 28-7 28-8 30-10 27-10 29-11 30-9 32-10 33-12 33-10 32-10 31-6 28-2 26-1 29 8 28 23 15 24-3 25-12 21-13 21-15 20-16"/>
<path d="M1865 31139l-2 0 25-11 29-6"/>
<path d="M2200 31186l 0 0 25-8 24-7 26-9 23-9 24-8 24-5"/>
<path d="M2556 31198l-1 0-3 28-1 25-3 33-5 27-7 29-7 31-10 32-11 31-13 32-12 32-15 30-13 29"/>
<path d="M2585 31166l 2-3 17-20 23-11 25-3 27-2 25 5 22 16 14 20 8 25-2 28-11 24-16 27-17 21-19 20-21 19-20 19-21 16-25 17-22 15"/>
<path d="M2764 31189l 0 0 5 27 2 28 0 28-2 25-2 24-4 29-5 25-8 23 1-28 8-26 12-27 10-23 14-23 17-21 21-17 23-16 25-14"/>
<path d="M2912 31272l-1 2-7 25 16 19 27-1 26-12 23-16 22-18 19-18 13-20-15-19-27-8-24 2-27 9-22 11-21 14-18 21-16 23-11 24-6 24 0 27 8 23 19 16 28 9 27 1 31-5 26-7 27-9 27-12 29-13 30-12 30-14 28-14 25-16 22-15 24-19 19-19 13-21 5-25-6-23-24-6-2 26 5 25 8 27 10 23 9 23 7 26-8 22-21 14-24 10-27 0-23-7 26-3 27 0 25-2 30-4 26-7 28-7 28-7 26-9"/>
<path d="M3495 31241l-2-2-23-5-8 24-7 25-7 25-2 24 2 26 20 13 22-13 21-18 17-22 17-22 15-23-9 25 1 24 16 20 24 1 26-12 23-17 20-17 18-16 21-20 18-17 0 24-9 25-3 24 25-1 15-20 17-21 24-1 2 25 15 19 24-4 24-10 25-13 22-12 23-11 22-13 1 25 4 25 27 3 28-9 27-13 26-13 24-18 23-17 20-16 13-20 3-25-24 5 8 26 9 23 9 24 8 25-8 24-25 13-24 5-25 4-26 4 26 8 25 1 29 3 27 2 31 1"/>
<path d="M4458 30853l 1-2 16-20 24-8 25 3 23 10 19 16 3 24-6 25-10 22-11 24-13 25-13 25-13 25-12 23-12 23-10 22"/>
<path d="M4465 31242l-1 1 1 25"/>
<path d="M5437 30903l 0-1 19-16 23-6 25 0 26 3 26 9 23 15 17 19 6 26-4 27-13 29-15 23-17 26-20 27-21 26-23 23-22 24-20 20-20 19-20 17-22 19-21 14-19 15-20 14 24-12 25-9 27-9 28-3 25-3 28-2 28 1 26 3 27 7"/>
<path d="M5721 31241l 0-1"/>
<path d="M5899 30855l 0-1 22-13 24-10 25-8 27-9 25-10"/>
<path d="M5920 30854l-2 2-18 20-13 23-7 26-4 25 11 22 25-1 28-9 28-11 29-9 24-4 29-1 25 2 26 6 23 8 22 15 14 22-1 29-10 27-12 22-14 25-16 23-18 23-20 21-19 19-20 15-26 17-26 11-25 6-26-6-15-20-3-27"/>
<path d="M6204 31109l 1 0 24 9 26 4 28-2 26-7 22-12 20-18 7-25-18-18-23-11-27-5-28 5-21 15-17 18-17 24-11 23-6 27 0 25 9 24 18 19 27 6 27 3 30-3 28-6"/>
<path d="M7406 31062l 0 1-5 26-3 29-5 25-4 27-5 29-6 30-6 31-7 31-7 31-8 29-9 28-10 27-8 24-12 27-10 25"/>
<path d="M7389 31056l 1-3 10-22 23-14 24-6 26-2 28 4 25 6 20 15 8 24-4 28-10 25-11 22-16 22-19 22-22 21-22 16-23 16-21 14-22 14-23 12"/>
<path d="M7580 31097l 0-1 22 12 23 12 24 7 24 0 24-10 22-13 17-17 2-25-18-18-24-8-30 0-26 8-22 11-19 19-16 19-13 22-8 23-5 25 6 26 19 19 24 6 26 0 31-6 26-5 27-8 28-8"/>
<path d="M7879 31027l 0-1 26 3 25 3 25 6 7 23-20 21-21 19-20 20-17 20-8 25 8 25 19 18 28 9 31 2"/>
<path d="M8284 31124l 0-1 25-6 23-12 23-14 25-18 20-16 23-17 24-17 22-18 16-17 20-22 15-20 9-25 4-24-16 19 0 24 10 24 8 24 13 25 12 23 10 24 0 26-11 22-20 18-22 12-24 3-24-3-20-15 23-10 24 8 27 7 25 4 25 5 25 3 26 2"/>
<path d="M8698 31041l 0 0 25 0 24-6 24-11 24-12 21-16 5-23-24-8-25 10-18 18-17 18-12 22-8 25 4 25 21 15 26 2 25-4 28-9 23-12"/>
<path d="M9107 30799l-2-1-19 18-12 23-9 24-10 30-7 26-9 28-11 30-10 29-9 29-10 29-6 28-3 24 1 30 8 26 13 25 19 18 24 1 23-6 24-13 24-18"/>
<path d="M8986 30981l 0 0 23-9 26-11 27-13 22-8 25-8"/>
<path d="M9240 30905l 0 0 26 2 26 7 20 14 10 25-2 25-11 25-14 23-19 22-17 23-17 23-17 22"/>
<path d="M9243 31192l 1 0 20 14"/>
<path d="M16304 28810l 3-2 24-7 27-3 29-3 24-3 28-4 25-3 26 2"/>
<path d="M16335 28851l-1 0-22 11-15 20-8 26-3 26 12 22 28 3 24-4 28-6 29-3 26-2 27 2 26 7 23 15 12 23-1 26-17 20-23 15-22 10-26 12-27 9-30 5-27 4-24-1-24-5"/>
<path d="M6640 30766l 0-2 15-20 28-5 24-7 24-5 25-6 25-6"/>
<path d="M6680 30761l-2 0-18 16-18 19-14 23-12 22-12 23-12 22-9 23-2 25 13 22 26 7 28-6 27-7 27-9 28-7 30-6 27-5 29-1 28 6 25 13 17 18 8 24 5 25-5 24-14 24-18 21-18 20-25 16-29 14-23 8-23 7-25 5-24 3-24 1-24-1-31-3-25-8-24-11-19-16"/>
<path d="M17900 28945l 3 1 25 0 25-6 25 0"/>
<path d="M18041 28945l 1-1 18-18 18-17 13-22 2-28-7-25-21-16-23-11-30-1-23 5-25 8-22 9-23 17-16 21 0 25 12 25 17 19 20 21 19 16 18 17 21 16 21 16 25 17 26 18 23 17 22 17 22 22 9 25-7 25-14 21-20 17-24 14-22 10-24 7-24 3-24-2-28-6-22-14-16-22-8-23-2-29 4-26 4-29 12-30 12-28 17-27 16-26 18-22 18-22 21-17 21-15 22-13 23-11 28-11"/>
<path d="M18493 29116l 0-1 2 25 10 25 13 21 20 16 25 1 27-16 21-13 25-16 25-22 25-24 20-25 17-23 15-28 11-28 9-29 5-27 4-26-3-24"/>
<path d="M18787 28929l 2-1-25 1-26 14-22 11-23 11-24 12-28 11-27 11-24 12-21 12-24 12 24 11 29-6 31-8 29-8 26-5 29-7-21 20-23 14-26 15-24 14-22 17-18 19 3 24 25 6 23 8 0 24 13 23 15 19 18 17 24 14"/>
<path d="M11597 29556l 0-2-27 7-19 21-22 26-21 29-21 29-19 29-18 31-12 21-11 23-11 22-11 25-11 23-10 24-8 23-6 33-5 30 2 26 7 31 19 22 24 14 24 5"/>
<path d="M11619 29919l-1-1-15 21-7 24-9 23-8 23 26-10 21-19 20-22 21-19 20-19 20-15 12 22-4 24-5 26 1 25 26-3 21-15 21-15 22-11 22 9 18 16 22 15 26 4 25-4"/>
<path d="M12036 29925l 1-2 7-24-13-21-27-2-23 9-22 17-17 20-5 23 26 3 25-7 6 25 6 26 19 17 28 3 24-11 22-13 22-15 20-15 19-16-25 0-16 21-5 23 27-6 24-14 20-14 21-16 20-18 17-20 7 27-4 30-3 30-2 25-2 29-5 30-6 33-5 34-6 34-5 33-8 32-11 32-12 29-14 27-15 25-17 22-20 21-22 15-25-2-9-23-2-25 2-25 5-30 9-33 8-23 8-27 10-29 12-31 12-32 16-32 17-29 19-27 21-24 19-22 21-19 21-18 22-16 23-13 23-13"/>
<path d="M12398 29887l-2 1-16 18 26 2 23-7 26-14 20-13 23-15 25-17 20-19 16-22 11-22 11-24 6-23 5-26-2-26-9-23-27-1-20 17-19 22-15 22-12 25-14 27-12 29-12 30-7 28-4 24-2 28 4 24 11 22 22 15 27-2 23-15 12-21 8-24 1-24 6 24 23 7 27-10 23-14 19-15 16-18-9-23-21-14-27-3-24 6-23 13-20 20-12 25-8 23-3 25 7 24 15 23 25 15 27 7 25 2 29-1"/>
<path d="M13199 29879l-2 0-18 17 0 25 4 25 20 14 26 0 23-5 23-9 22-11 7-23-4 24 20 19 27 7 29-4 24-9 22-15 16-19 9-25-3-25-9-22-16-19"/>
<path d="M13760 29494l-5 1-20 13-17 25-13 22-13 26-14 30-13 32-11 24-12 25-12 25-14 27-14 27-14 27-14 28-16 29-15 28-16 29-15 27-15 28-13 27-12 23-11 24-15 32-11 28-9 24-8 24"/>
<path d="M14283 29940l-1 0 27 4 22-12 22-13 25-18 20-16 22-17 24-19 25-20 23-19 21-20 19-18 22-24 16-22 12-28 6-27 2-25 3-25-6-24-24-1-17 18-18 22-18 27-15 22-17 31-13 31-9 30-9 31-6 31-1 26 5 30 8 22 16 23 25 5 24-5 11-23-10-24-19-17-19-17 23-9 28-7"/>
<path d="M14641 29817l-2 1-10 23-4 25 1 26 6 25"/>
<path d="M14658 29754l 0-2 1-24"/>
<path d="M14859 29585l-2 0-18 17-3 24-4 29-4 28-4 31-1 26-7 30-8 32-12 32-10 23-14 24-14 23-13 22-16 29-14 25-11 27 3 26 25 5 29-10 29-11 30-15 30-16 28-17 24-17 19-15 18-19 12-20 10-26-12-24-25-17-26-10-28-7-26-6-28-4-27 1 25 2 25-3 31-5 31-3"/>
<path d="M15064 29809l-1 0-25 5-23 9-22 13-21 15 14 22 27 2 25 5 24 12 20 15 23 16 15 21-13 23-23 12-25 13-29 9-27 5-26 5"/>
<path d="M15126 29863l 0-1 26 0 25-4 23-10 16-18-18-18-27-5-25 5-21 14-19 16-14 21 0 26 5 25 19 15 27 7 25-1 28-5 26-6 27-9"/>
<path d="M15468 29618l-1 0-22 14-14 25-8 25-8 28-6 28-8 29-7 31-6 31-6 24-6 28-5 28-2 26 4 27 14 24 23 14 27 1 27-8 21-14 19-17"/>
<path d="M15322 29786l-2 0 25 9 28-4 24-4 26-4 25-5"/>
<path d="M15592 29556l 0 0-2 25 3 30 7 25 7 26 8 27 12 27 8 27 5 27 3 25 0 24-3 29-5 25-7 27-11 27-14 26-22 23-20 25-24 24-18 17-21 16"/>
<path d="M12571 30834l 0-2 22-15 24-6 24-6 28-6 28-5 24-3 26-2"/>
<path d="M12522 30927l 1 0 27-8 24-9 24-8 26-11 26-11 29-14"/>
<path d="M12721 30687l 0 0 26 5 27 4 29 3 26 2 30 2 27 2 28 3 25 7 15 20-10 26-14 20-21 22-23 23-22 20-20 19-22 19"/>
<path d="M13224 30871l 0-1-17-18-30 4-26 10-23 13-21 13-21 15-20 20-12 25 10 22 24 13 31 6"/>
<path d="M13419 30943l-1-1-23-8-27 0-25 8-25 12-19 15-19 19-6 25 21 16 26 6 26-2 27-5 23 7 21 12 26-2 22-11 23-16"/>
<path d="M13533 30958l 0-1-11 22 2 24 17 19 24-9 19-16 21-17 17-17 19-16 19 17 9 23 18 19"/>
<path d="M14266 30877l 0-1 5 27-3 26-4 31-6 31-6 31 0 25-6 25-10 24-7 25-10 30-10 22-13 27-13 22"/>
<path d="M14268 30882l 0-3 5-26 15-21 23-11 26-6 28-2 24-2 28-2 28 5 23 9 13 20-8 25-17 21-25 20-21 14-26 18-22 16-24 14"/>
<path d="M14586 30810l 0-1-23-6-27 9-23 11-22 14-24 15-17 17-4 25 20 15 26 4 24-4 24-8 16-18 14 20 21 13 27-7 22-15 21-16"/>
<path d="M14695 30833l 0-1-10 24-2 25 7 24"/>
<path d="M14759 30693l-3-2-24-5 2 24 16 22"/>
<path d="M14771 30799l 1 1 9 22 1 27 4 25 5-26 11-24 15-23 19-15 23-10 27-7 26-5"/>
<path d="M14984 30816l 0-2 0 26 8 24 25-1 23-11 20-17 19-18 13-21-9 25-7 24 0 26 10 23 26 11 24-4 23-10 21-17 18-19 6-27-1-26-10-22-25 0"/>
<path d="M15312 30774l-1 1-8 26 5 25"/>
<path d="M15381 30684l 2-1"/>
<path d="M15511 30735l 0 0-25 1-25 7-21 11-16 19 24 14 22 11 23 12 23 14 22 16 10 25-11 23-21 17-22 13-23 11-25 6-21-14"/>
<path d="M15620 30788l 0 1 22 13 25 0 26-4 16-18-21-15-23-6-26-2-26 7-20 15-16 22-8 26 2 27 10 27 19 19 24 14 32 7 34 2 29-1 30-1 32-4"/>
<path d="M16459 30813l 0 0 5 24 1 24-4 25-10 24-12 21-3-24 7-24 6-25 8-25 16-23 19-20 21-17 22-12"/>
<path d="M16664 30786l-2 1-24 11-22 18-14 22-8 23 0 26 13 20 25 8 24-2 25-7 24-9 20-14 7-25-17-20-22-11"/>
<path d="M16826 30827l-1-1-22 11-12 21-10 25 15 20 27 3 26-9 21-15 8 26 14 21 17 19 22 10 25-5 19-15 16-21 11-25 0-26-3-25-6-25-13-22"/>
<path d="M17540 30543l 0 1 5 29 6 25 9 28 13 28 19 25 20 23 23 21 23 19 21 18 19 19 14 23 12 24"/>
<path d="M17822 30528l-2-1-26 6-25 17-21 25-19 24-21 27-22 27-22 28-16 19-16 19-21 27-18 27-16 24"/>
<path d="M17938 30664l-4-1-27 3-26 10-19 21-10 26 3 27 14 23 18 17 24 8 25-3 26-8 24-13 22-15 19-15 13-21 4-24-7-25-16-24-21-16-26-11-26-2"/>
<path d="M18101 30600l 0 2-6 24-2 26 2 30-2 25-2 26-4 25-6 25-1 25"/>
<path d="M18092 30555l 2-2 20-19 23-9 25-4 27 0 29 3 29 7 28 8 21 14 10 25-10 22-18 19-25 18-27 13-28 11-31 11-29 6-25 4-26 3 24 12 29 6 27 9 25 12 26 14 25 16 19 17 19 16 13 21 6 25 3 24"/>
<path d="M18383 30909l 0-1-11 26-12 23-19 19-21 19"/>
<path d="M18526 30817l 0-1-5 26-6 26 16-20 19-22 15-19 11 23 18 17 27-3 25-10 21-12 23 10 15 20"/>
<path d="M18859 30784l-1-2-20-12-26 0-23 10-22 16-13 21 15 22 25 6 24-2 24-9-6 26 6 24 26 8 25-5 25-11 23-14 20-14-13 21 12 22 22 13 25 5 24-5 26-9 22-13 19-15 17-19 11-23-26-3-14 22-1 26 3 25 4 28 3 25 4 25 4 27 1 25-1 29-3 25-12 27-16 23-25 16-24 12-24 7-26-4-18-19-7-28 1-25 7-31 8-27"/>
<path d="M19159 30848l 0 0 26 5 26-4 26-9 23-11 23-14 23-19 17-17 19-22 12-23 10-26 7-27 3-25 2-28-6-24-27 5-15 20-17 26-14 22-13 23-9 24-10 24-8 25-6 25-8 30 0 25 7 28 13 22 17 18 24 11 26-1 24-13 18-17 12-23 8-26 1-25-11-22-25 3"/>
<path d="M19394 30852l 2-1 25 3 26-4 26-3 26-2 25-4 24-10 6-24-17-18-23-9-25 4-24 10-23 15-18 22-8 23-4 28 5 27 14 23 18 17 21 11 27 7 30 3"/>
<path d="M19676 30940l 2 1"/>
<path d="M1211 32800l-2 0-25 4-27 7-26 10-26 14-24 15-19 15-18 18-3 24 25 4 26-3 27-5 29-6 27-6 24-6 28-8 25-5 16 19-17 23-21 25-18 18-20 18-20 16-20 14-21 13-24 17-21 13-23 8"/>
<path d="M1325 32756l 1-1 14 21 4 25 0 28-1 29-1 26-3 28-3 28-3 29-5 29-5 32-6 33-7 31-8 28-7 23-9 27-6 23"/>
<path d="M1371 32766l 2-2 21-12 25 1 26 3 25 5 15 22-5 29-12 27-14 23-18 25-17 24-16 22-17 24-13 20"/>
<path d="M1589 32763l 0 0-23 11-21 16-23 17-20 19-20 21-19 23-15 23-10 26 10 24 27 5 28-7 28-14 25-19 22-19 18-21 10-23-5-24-13 21-7 26-5 25-2 28 1 25 2 26 8 24 24 0 20-16 19-20 13-21 11-24-4 26 1 24 26-1 20-17 18-20 16-19 16-20 22-8 11 24 4 24-1 25 3 26 14 20"/>
<path d="M2587 32358l 1-2 25-6 21 12 11 26 3 29 0 32-3 28-6 32-6 25-7 25-8 25-11 25-11 26-12 26-12 26-12 26-12 27-11 25-8 23-12 32-7 27-6 25 0 26 10 24 29 3 29-16 26-19 25-25 23-25 17-26 13-24 9-29 0-26-9-27-21-21-22-14-24-10-24-5-24 1-22 16-16 19 22 9 29-9 29-12 23-7 24-7 25-6 24-3 19 16-8 27-9 24-5 28 2 24 19 17 28-1 25-13 23-19 14-20 6-27-11-24-18-19-23-13-23-6"/>
<path d="M3521 32659l-1-1-8 27-3 26-5 30-7 30-7 29-9 26-12 25-14 21 1-28 12-24 14-25 16-25 15-25 14-23 16-21 20-22 22-18 21-11 15 19 1 29-3 24-6 26-5 23-8 26-8 25 21 15"/>
<path d="M3748 32681l-1 0 3 25 25 8 28-6 25-11 21-14 18-18-1-24-20-16-26-5-25 6-22 13-21 19-15 19-12 27-6 24 1 29 9 25 17 21 27 9 27-1 26-7 29-10 22-10 22-11 29-16"/>
<path d="M4001 32650l-1-2-20 14-1 25 6 25 15 22 22 17 23 13 25 4 24-4"/>
<path d="M4100 32660l-2-1-24 3-23 12-19 16-22 21-18 18-21 21-22 22-25 24"/>
<path d="M4304 32367l 0 0-5 27-3 28-1 26-4 27-4 31-7 23-6 24-8 26-10 26-10 25-10 24-9 23-9 28-7 25-4 26 10 26 20 16 28 4 29-4 25-8 25-13 27-17 19-14"/>
<path d="M4223 32578l 0 1 27 8 29-4 27-5 32-7"/>
<path d="M5029 32606l-2 0-23 8-18 15-16 21-13 26-9 23-5 26 4 24 22 10 25-9 21-13 19-15 16-18 9-23-4-24-18-21-18-16 22 13"/>
<path d="M5111 32632l 2-1 24 3 7 25 2 24 0 25-4 25-3 25 2-25 14-23 19-23 21-22 24-19 25-17 22-11 27-14 29-11"/>
<path d="M5889 32681l-1 1-16 23-9 29-7 31-4 25-5 27-6 27-7 29-9 29-9 30-10 28-12 26-10 24-11 25-7 24 11-24"/>
<path d="M5852 32751l 1-5 3-28 6-25 12-22 19-15 26-4 25-2 27-2 27-1 26-1 25 0 23 6 0 26-16 19-20 18-22 19-23 17-23 18-19 16-18 18-18 18"/>
<path d="M6142 32601l-2 1-18 19-8 25 1 28 1 24-1 26 1 26-4 25-7 24 8-24 12-22 12-23 14-24 16-25 16-24 15-23 19-22 20-14 24-6 25 4 11 22 2 24 19 15 25 5 25 1 25-2 24-5 20-16-15-19-27-5-27 2-27 10-19 17-15 23-12 25-2 25 9 22 25 13 25 1 26-8 28-13 25-15 22-14 20-16 20-16 13 22-2 27 0 24 5 26 7 25 12 28 16 19 27 13 25-3 20-14 15-21 13-24 13-28 10-28 7-28 8-25 7-27 4-25"/>
<path d="M7219 32695l-1 0-9 26-4 24-3 25-4 26 2 25"/>
<path d="M7289 32586l-2-2 7 25"/>
<path d="M7360 32635l 0 1-15 22-12 25-5 24 2 25 17 23 21 15 23 7-4 25-20 19-21 14-22 11-27 7"/>
<path d="M8025 32722l-1 2-7 24-5 27-4 26-6 28-7 31-6 32-5 34-7 32-9 32-11 31-10 27-14 27-12 23 9-23 12-21 15-28 13-31 11-30 11-30 10-30 9-32 11-31 11-28 12-26 13-21 16-22 20-18 23-8 22 11 6 26-7 27-8 25-10 24-10 23-5 24 27-5 22-18 20-19 21-20 22-22 23-22 24-21 22-21 18-17 24-19 23-14 11 25-10 24-10 28-10 26-10 27-6 25-4 28 5 25"/>
<path d="M8541 32703l-2 2-15 18-15 22-10 24-8 24-7 28 2 26"/>
<path d="M8595 32638l-1-3-8-24-17 19"/>
<path d="M8590 32694l-2 0 2 25 1 24-1 26-3 26 26-3 21-15 22-15 21-13 24 11 9 23 10 22 5 28 5 28 3 25"/>
<path d="M8029 29445l 2 0"/>
<path d="M8038 29489l 1 0"/>
<path d="M8002 29454l 0-1 23-10 27-3 26-4 26-2 24-3"/>
<path d="M8011 29510l 0-1 23-6 27-5 26-1 27-2 25-1"/>
<path d="M8318 29289l 0-1 11 22 11 21 12 24 12 24 13 24 14 24 16 21"/>
<path d="M8562 29249l 0 0-8 25-9 25-10 22-9 25-9 28-11 30-14 31-13 32-12 31-10 31-11 31-7 28-8 28-7 27-9 24-6 27-2 26"/>
<path d="M1689 34165l 1-2 17-17 25-12 24-10 24-8 26-9 29-10 30-11 28-11 26-9 24-9"/>
<path d="M1737 34139l-4 2-23 10-20 15-17 20-9 25 7 23 27 5 29-7 27-8 28-11 31-10 29-8 30-4 26 0 26 3 25 11 18 17 8 27-7 25-15 25-16 21-19 21-22 21-23 20-22 18-22 16-26 17-22 13-26 8-11-21"/>
<path d="M2139 34168l-1 1-21 12-19 15-20 20-16 19-12 25-3 28 12 23 23 13 27 4 31-3 26-6 25-8 23-10 21-11 27-17 22-17 18-19 17-23 12-23 3-28-5-28-12-23-20-15-25-12-29-6-25 1-28 7-21 15"/>
<path d="M2596 34048l-4 0-28 4-26 13-19 14-18 17-16 22-9 24-3 28 9 25 15 25 19 20 25 15 28 10 32 4 28 0 28-6 27-9 26-12 22-15 19-18 17-23 8-24 1-25-11-25-15-22-23-21-27-16-24-8-25-5-28-1-28 1-28 4-27 10"/>
<path d="M3544 34365l 0 0 4 25-3 26-7 24-8 29-8 29-10 29-10 30-13 29-10 28-13 30-14 29-14 25-14 23-17 21"/>
<path d="M3534 34339l 3-4 17-18 18-17 21-13 25-9 27-6 25-3 27-3 29 0 27 3 27 6 18 19-15 22-20 15-25 17-28 17-30 16-21 12-30 15-28 12-25 8-22 9"/>
<path d="M3851 34310l 0 0 21 12 29-5 24-9 24-11 20-14 0-24-23-10-28 0-25 9-23 13-20 15-19 22-11 25 0 25 14 22 23 13 24 4 29-1 31-6 25-6"/>
<path d="M4092 34274l-1-1 24-7 24-4 24 4-7 25-23 15-24 12-25 12-21 14-17 18 3 24 25 13 25 2 24-1 29-3 32-6"/>
<path d="M4711 34403l-2-1 22-13 32-8 24-8 29-12 28-13 30-14 31-15 26-16 23-19 18-18 11-24-4-25-14 22 4 27 9 23 14 23 6 25-15 24-19 15-24 13-23 11"/>
<path d="M5009 34327l 1 0 24 10 27-2 23-7 22-10 20-13 16-19-10-23-23-8-24 4-25 10-23 13-19 17-11 22-3 24 13 22 26 10 24 2 26-1 29-5 23-5 31-8 23-9 24-10"/>
<path d="M5373 34039l-1 0-21 11-11 25-6 25-7 25-10 28-9 25-11 27-13 26-13 28-10 22-8 24-8 23-5 25-3 28 2 25 11 22 19 15 29-4 29-13 26-14 28-19"/>
<path d="M5222 34216l-2 0 29 0 24-5 29-5 32-6 33-6 33-5 31-3 33 0"/>
<path d="M5662 34120l 1-2 17-16 21-13 23-6 24 1 22 13 7 25-9 26-18 27-17 24-20 23-19 23-23 23-21 21-19 21-16 20"/>
<path d="M5600 34461l 0 0 22 10"/>
<path d="M11094 32413l-1-1 25-1 15 22 10 24 10 24 13 24 16 25 16 25 16 20 14 21 11 21"/>
<path d="M11411 32335l 0 0-6 23-9 28-10 29-14 33-9 23-10 26-12 27-12 29-13 30-12 29-12 31-14 30-14 31-14 32-16 32-16 33-16 32-17 31-16 29-13 27-12 22-9 28-5 25"/>
<path d="M11525 32506l 0-2 7-25-15 26-9 28-9 33-11 34-8 23-7 25-6 24-5 25-7 35-6 35-8 31-6 30-6 26-5 27-6 23 13-26 8-24 7-29 6-32 6-33 3-34 3-36 2-36 3-24 2-24 2-24 6-33 5-25 10-22 17 23 6 24 8 29 6 24 5 27 9 27 11 26 9 27 9 27 11 26 11 23 15 26 16 19 24 14 25-1 20-20 13-25 9-22 5-25 4-26 4-27 2-27 4-28 1-27-2-27 0-27 0-31-4-27-18-16"/>
<path d="M11951 32488l 0 0 3 28-1 24-7 28-6 31-4 24-7 26-8 28-8 31-10 31-14 32-11 31-8 28-9 23-9 23"/>
<path d="M11947 32503l 0 0 2 24 1 27 3 25 5 25 5 25 10 24 16 23 22 16 28 1 26-9 24-12 23-17 22-20 18-21 18-23 13-24 12-22 12-23 10-27 6-25 6-25-13 26-8 30-7 28-6 29-4 29-5 29-6 28-4 28-1 28-2 29 0 28 0 29 1 28 2 25 3 28"/>
<path d="M12676 32583l 0-1-25-3-24 9-25 9-23 9-26 14-21 18-3 25 16 19 25 10 26 5 25 5 28 4 25 4"/>
<path d="M12527 32762l 0 0 27-3 25-1 24 1 25 1 25 4 25 5"/>
<path d="M13214 32532l 1-2 10 23-8 28-9 23-11 27-10 30-16 31-12 22-15 22-12 22-12 22-15 32-15 31-12 26-10 24"/>
<path d="M13303 32792l 0 1 27 4 28-1 26-5 30-5 26-7 23-9 23-14 15-20-10-26-21-14-25-4-25 5-25 15-20 17-17 17-20 23-18 25-12 25-5 28 2 25 17 22 22 12 25 6 31 2 26-2 31-3 27-5"/>
<path d="M13879 32550l-2-2-16-21-24-10-26 0-28 10-24 13-21 12-22 15-10 24 3 25 21 18 26 13 23 10 30 11 25 12 22 9 28 16 25 16 19 18 15 21 9 22 3 29-8 24-16 26-21 24-17 16-22 15-22 12-26 9-24 6-25 3-28 1-26-8-17-16-11-27 2-29 7-25 11-29 17-31 13-21 15-21 15-20 24-26 20-20 23-15 22-11"/>
<path d="M11111 33614l-1-1-19 21-19 25-19 25-15 22-16 22-16 25-15 25-15 27-13 25-11 26-10 25-7 24-6 24-4 35 0 35 6 32 9 29 13 24 14 20 21 19 22 12 28 5 28-2 25-8 22-13 21-15 20-18 16-20 11-27-2-27-10-23-13-20-16-17-23-16-23-12-27-5-22 15"/>
<path d="M11332 34079l 0 0 23-5"/>
<path d="M11337 34006l 0-1 23-9 25-5 28-9 24-10 22-11 24-13 22-17 7-23-20-18-25-10-28 0-25 7-25 13-21 14-20 16-19 20-19 23-18 24-14 23-11 24-12 22-6 24 2 24 16 20 22 9 31-1 28-6 31-10 22-10 24-10 28-14 26-13"/>
<path d="M11784 33665l-1 1-13 21-15 24-14 24-18 25-15 22-20 25-20 24-22 24-20 24-17 23-14 24-2 27 27 11 28-1 25-4 26-6 27-9 26-9 27-8 26-9 27-10 23-10 24-8 28-12"/>
<path d="M11854 33730l-3 1-25 10-24 15-15 22-13 26-9 30-5 31-1 31-1 28-1 29 2 30 2 28 2 27"/>
<path d="M12472 33924l-2 0 4-24 19-18 21-16 26-8 6 28-10 27-8 25-12 29-11 30-13 28-12 22-10 25 1 25 28-1 28-16 25-20 21-15 18-17 17-18 17-20 15-19 18-27 13-22 11-24 6-23-21 16-15 24-11 26-11 25-7 24-3 26 22 14 28-11 19-17 19-22 20-23 18-21 15-23 12-22-11 24-11 23-9 23-9 24-8 23 21 14 27-15 19-16 21-19 21-18 20-18 18-17 19-20 19-18-10 25-15 20-15 23-6 26 20 17 28-7"/>
<path d="M13047 33876l-1 1-17 22-12 27-7 23-5 28 3 25"/>
<path d="M13280 33878l-1-2-14-20-27-7-23 10-24 15-23 18-23 21-18 21-12 25-2 26 19 17 29 1 25-9 23-14 20-15 22-17 18-15-21 22-20 28-14 24-15 25-13 27-14 28-13 30-15 32-8 23-5 24-6 24-6 25-6 34-5 31-1 27 3 26 19 16 22-12 21-23 16-24 15-28 13-30 8-30 7-31 5-29 1-30 0-28-1-27-1-24-5-25 17-18 29-4 26-12 27-14 21-14 20-15 19-17 22-15 17-17 19-19 18-20 13-21-14 21-16 25-13 22-11 22-11 22-7 28 2 24 29-5 21-14 23-18 22-20 22-19 17-17 17-22-20 17-1 25 18 18 25 2 25-6 25-11 22-13 20-14 21-15 18-18 18-19 12-22 0-24-25-4-26 9-22 16-19 18-11 24-5 24 5 26 16 18 24 10 28 0 28-7 24-7 23-10"/>
<path d="M13067 33671l 2-1 25-10 26-5 27 2"/>
<path d="M8853 35819l-1-1-7 25-2 28 1 32 0 30 0 36 0 26 0 28-1 30-1 33-2 35-1 37-3 37-2 40-1 39-3 41-2 42-2 41 0 44-2 41 0 41-1 41 0 39 0 39 0 37 0 37 0 34 0 33 0 31 0 28 0 27 3 26 4 33 3 28 3 27 8 24"/>
<path d="M8850 35916l 0 0 24-2 25-5 29-2 29-4 32-6 29-4 33-3 25-2 27-3 26-3 32-3 32-4 35-3 37-3 38-3 41-3 43-4 45-1 48-3 25-3 25-1 29-2 26 0 27-3 28-1 29-2 29-2 28-1 29-2 30-2 31-3 33-1 33-2 34-3 34-1 37-2 35-3 35-2 34-1 37-3 36-3 37-2 37-2 39-2 39-2 39-2 39-2 40-2 41-2 41-2 40-1 41-3 42-1 42-2 43-1 42-2 43-1 44-2 43-1 44 0 45-2 45-1 44 0 43 0 45-1 45 1 45 0 44 0 45 0 45 0 45 0 45 1 45 0 44 2 43 0 43 1 44 2 44 1 43 2 42 0 42 3 42 2 41 2 41 2 40 2 39 2 39 3 39 3 39 3 37 2 38 2 37 3 36 3 36 2 35 3 36 2 33 2 33 3 32 3 32 3 31 3 30 3 29 2 29 2 27 3 28 3 27 3 24 1 24 3 45 6 38 6 34 7 31 8 27 7 26 6 27 11 23 14"/>
<path d="M12989 35901l 1 0 6 24-4 25-7 27-5 27-2 32-5 27-4 30-3 34-2 35-2 25 0 26 0 29 1 29 0 31 0 31-1 32 1 35 1 35 2 35 1 35 1 35 1 37 0 35 1 36-1 35 0 35-3 36-3 34-2 35-3 33-5 32-3 31-3 29-3 29-1 26-3 26-5 34-6 32-5 31-5 25-6 30-8 25"/>
<path d="M8875 37177l 2-2 23-7 27-1 31 2 29 0 35 1 26-1 29 1 32 0 33 1 40 1 40 0 44 1 47-1 25-1 26 0 26 0 27 0 28-1 28 1 29-1 30 1 31 0 32 0 31-1 33 0 34 0 35-1 35 0 37 0 37 0 38 0 38 0 39 1 40 0 40 1 40 1 41 0 42 1 42 1 44 1 44 0 43 1 44 2 45 1 45 0 44 3 45 1 46 2 46 1 47 2 47 2 47 1 48 2 50 2 48 1 49 1 49 3 49 2 48 3 49 2 50 3 49 4 49 4 49 4 49 3 48 3 50 3 47 3 48 3 48 1 48 3 48 3 48 3 47 3 47 4 46 4 46 4 46 4 45 3 44 4 47 4 43 3 43 4 42 3 42 4 41 3 41 3 42 3 36 4 38 3 38 3 38 3 35 3 36 3 34 3 32 3 31 3 31 2 28 3 29 3 28 3 25 3 26 2 24 3 47 6 40 5 34 5 29 5 25 5"/>
<path d="M8867 35957l-1-1-12 21-4 28-5 24-3 29-1 27-1 30-2 33 1 34 1 25 0 27 2 31 2 31 2 33 4 35 3 37 3 39 4 41 5 42 4 44 3 46 3 47 1 24 2 24 3 48 2 25 1 26 2 26 3 26 1 27 3 28 1 27 3 28 1 28 2 29 4 28 2 29 1 30 2 28 3 29 1 30 2 30 2 30 1 31 2 30 2 31 2 32 2 32 2 32 2 31 1 32 2 32 1 33 2 31 1 32 3 33 1 32 2 33 1 32 2 34 1 32 1 32 1 33 1 32 2 31 1 33 1 31 2 30 2 31 1 28 2 31 1 31 1 29 1 29 2 30 1 28 1 29 0 30 1 28 2 28 1 27 1 26 0 26 2 25 0 25 3 47 2 46 2 44 2 40 3 39 2 37 1 35 2 32 1 27 2 26 0 32 2 26 1 25"/>
<path d="M8828 35931l 0 2 23 9 29 0 28-3 32-5 27-4 31-4 37-5 26-4 29-4 30-3 33-4 34-4 36-3 38-4 39-2 39-2 40-2 36-2 40-1 38 0 36 0 38 0 34 1 34 2 31 2 30 3 28 3 26 3 24 4 29 7 22 9 22 15 11 22-20 17-24 14"/>
<path d="M9754 35941l 0-1 5 27 0 27-1 28-2 25-3 28-2 32-2 35-1 27-2 28 0 29 0 32 0 31 1 33 2 33 3 35 4 36 6 38 5 41 5 40 5 42 6 43 5 43 5 45 5 45 5 46 6 46 2 24 3 25 2 25 3 25 2 25 3 26 2 26 3 26 2 25 3 26 3 27 2 26 2 27 3 27 3 27 2 28 3 28 3 28 5 28 4 29 2 27 3 29 2 29 3 29 3 28 3 29-1 29 2 29 3 31 3 31 2 29 2 30 2 30 3 29 3 30 3 30 1 29 2 29 2 29 2 29 2 29 2 28 0 28 2 28 2 26 1 27 2 28 1 27 3 26 1 25 2 26 2 25 2 25 3 25 4 46 5 44 6 43 5 39 4 40 4 37 4 34 5 32 3 31 4 28 4 25 6 36 5 29 5 29 4 24 6 23"/>
<path d="M9123 38965l-1 1-25 3 28 4 25 0 29 3 32 4 26 2 29-2 33 0 33 1 24 0 28-1 25-1 28-1 27-1 24-1 27-2 28-1 28-2 27-1 27-2 27-1 25 0 26 1 25 0 35-1 31-2 30 0 28 1 27-2 31-1 26-2 28 0 26-3 25-1"/>
<path d="M1162 33504l 2 0 28 3 26 4 27 3 29 1 26 1 29 0 32 2 37 1 27 2 28 0 31 0 33 1 34 0 39 0 40 0 44 1 46-1 48-1 25 0 25 0 25-1 26 0 27-1 27 0 27-1 28 0 28 0 29-1 31-1 31 0 31-1 31 0 32-1 32-1 33-1 33 0 33 0 34-1 33 0 35-1 35-1 35 0 35-1 36-1 36-1 37-1 37-1 37-2 38-1 38-2 38-1 38-2 38-1 40-2 40-2 40-2 41-2 41-3 42-2 44-3 42-2 42-3 44-3 41-2 43-3 43-3 42-2 44-2 43-3 44-2 44-3 45-2 45-3 44-2 45-2 45-2 45-2 45-2 45-2 46-1 46-1 46-1 45-1 47-1 47-1 45-1 46-1 47-1 46-1 47-1 47-2 47 0 48-1 48-2 47 0 49-1 48-2 49-1 48-2 49-1 49-2 49-1 50-2 50-2 50-2 50-2 52-1 51-3 52-2 53-2 52-2 53-2 53-1 53-2 52-1 53-2 54-1 53 0 55-1 54-1 55 0 54 0 55 0 54 0 53 1 55 1 54 0 54 0 54 1 55 1 54 0 54 1 54 2 53 1 53 1 52 2 52 1 52 2 52 2 52 1 52 2 50 1 50 2 50 2 50 1 48 2 49 2 50 1 48 3 49 1 48 2 48 1 45 2 47 1 46 2 45 2 44 1 45 2 43 2 45 1 44 2 42 2 41 1 40 2 39 1 39 2 37 1 36 3 37 1 35 2 36 2 35 1 34 2 32 1 33 2 30 2 31 1 28 2 28 0 27 2 26 1 26 2 46 4 43 3 40 3 35 6"/>
<path d="M2064 34826l 1 1 21 18 17 20 14 20 14 23 13 24 14 27 13 29 11 27 9 27 8 27 6 26 5 26"/>
<path d="M2300 34836l 0 0-2 30-2 27-3 26-4 30-6 34-3 25-3 26-4 26-5 27-4 28-4 29-4 28-4 31-4 30-6 30-5 31-4 30-6 29-4 25-5 26-5 34-4 33-4 29-5 26"/>
<path d="M11270 34420l 1 0 26 8 24 15 23 16 21 17 20 17 18 19 18 16 18 18 16 19 18 22 14 22 11 22"/>
<path d="M11559 34368l-2-1-25 0-18 19-19 21-16 19-18 21-19 24-18 24-18 25-17 24-18 25-18 23-18 23-18 23-13 22-15 26"/>
<path d="M18253 33140l 0 0-5 29 0 27 3 28 7 32 6 25 6 29 9 31 8 35 5 25 6 28 6 28 5 32 5 33 6 35 4 37 5 36 3 39 3 40 3 41 2 42 2 44 0 45 1 46-1 47 0 48-1 24-1 24-1 49 0 24-2 24-1 25 0 25-1 25-1 25-1 26-1 25 2 25 0 25-1 26-1 27-2 26-1 27-1 26-2 26-3 26-2 26-1 25-1 25-2 25 0 25-2 25-1 25-3 46-1 46-2 44 0 41-2 41-1 38 1 34 1 32 1 30 2 28 1 27 2 24 4 31 2 25 8 27 3 25 22-12-22-13-25-2-25 0-25-1-25 1-24 3-9 23-3 26 1 24-2 27-2 25 0 28 1 25-1 26-1 26"/>
<path d="M18189 35490l 1-2 8-22-23-12-24-4-25-1-28-1-32-1-30 0-24 1-30 0-34 0-38 0-41 0-43-1-44 0-25 0-25 1-26 0-27 0-29 0-29 0-30 0-31 0-33 0-32 0-32 0-34-1-34 1-34 0-35 0-33 0-36 0-37 0-38 0-36 2-39-1-38 0-39 0-41-1-39 0-40 0-40-3-40 0-41 0-44 0-41 0-42 1-42 0-41 1-42 1-42 0-40 1-38 2-40 0-40 1-39 1-40 1-38 2-37 1-38 2-37 1-35 2-35 1-34 0-32 1-31 1-29 1-29 1-28 0-26 0-26 0-24 0-42 1-41 0-33-1-29 0-26-2-26-3-26-3 28 4"/>
<path d="M3622 35485l 0 0 24-8 20-15 19-18 21-23 16-20 17-24 16-28 18-27 16-29 15-29 12-27 10-27 7-24 7-30 5-25-3-25-10-24-25 0-17 25-13 25-13 32-9 25-10 28-9 29-11 31-8 31-6 28-5 28-3 24-1 33 0 30 5 26 10 25 18 19 26 4 26-7 21-13 14-20 4-25-6-23-12-25-13-22-12-22"/>
<path d="M4068 35364l-2 0-26 1-25 4-25 7-20 15-15 21-12 23-10 23-4 26 9 22 27 6 22-11 22-17 21-21 18-20 15-20-18 18 3 24 15 19"/>
<path d="M4245 35339l-2-1-24-7-24 9-17 18-15 22-16 26-11 22-9 28-3 25 9 25 27 1 24-13 18-18 18-23 19-26 17-23 13-23 13-25 14-27 13-29 12-28 10-28 7-28 5-27 4-26 3-25 0-29-1-28-4-25-7-24-18 22-11 31-9 28-10 31-11 34-6 25-6 25-6 35-7 35-4 32-3 29 0 25 6 29 9 28 11 26"/>
<path d="M4573 35526l 1-1 24-1 23-13 22-17 22-20 17-21 15-21 14-23 7-24 6-26 4-24 16-18 25-4 24 5 22 10 3 25-14 24-15 19-15 22-18 22-15 24-14 24-4 25"/>
<path d="M4871 35459l 0 0 25-2 27-9 22-16 20-16 9-23-25-1-27 5-24 8-25 14-17 17-12 22-10 27 2 27 13 24 21 18 24 7 25 3 26-2"/>
<path d="M5070 35411l-2 1-11 21-4 26-6 28-6 24-6 28-5 28-5 28-4 28-3 26-3 26-3 25-3 24 0 26-3 24"/>
<path d="M5042 35469l 1-3 11-22 23-9 24 1 24 9 19 15-7 26-12 22-16 22-15 19-18 22-16 18"/>
<path d="M5253 35133l 0 0 25-6 24-1 24 4 23 11 3 28-6 29-9 30-11 26-11 29-14 30-14 30-16 30"/>
<path d="M5262 35561l 1 0"/>
<path d="M1011 37002l 0 0 17 20 14 19 8 24 3 26-1 25-4 26-7 25-9-26-1-30 0-28 1-29 6-26 9-25 11-21 19-22 19-16 25-16 26-13 23-10"/>
<path d="M1398 36621l-1 1-7 24-6 24-9 28-10 34-8 25-8 26-9 28-9 30-9 31-8 34-8 34-10 35-9 36-9 33-9 36-7 31-6 30-5 28-4 25-4 25-4 34-2 29"/>
<path d="M1562 36968l-1-1-21-12-21 13-16 18-13 21-11 25-9 25-6 28 6 28 14 20 23 10 25 7 28 7 25 5"/>
<path d="M2350 36980l-2 0-24 12-13 21-14 25-11 23-3 25 17 19 27-1 28-5 24-11 16-19-14-22-23-10"/>
<path d="M2446 36993l 0-1 2 24 1 25 5 26 4 27 2 28 0 27 11-23 7-23 9-27 11-23 16-18 24-12"/>
<path d="M2740 36990l-1 0-24 1-27 11-22 15-20 16-18 24-14 20-13 23-9 24-9 24-1 25 14 22 26 9 26-8 24-17 18-22 19-24 19-24 17-27 14-28 14-29 12-29 9-29 8-30 8-32 3-31 0-31-2-27-4-32-7-33-11-28-11-26-14-23-23-7-20 22-12 28-8 28-5 29-1 31 3 30 5 29 7 29 8 28 8 27 9 28 9 28 9 28 9 25 12 27 15 24 19 21"/>
<path d="M2881 37037l-1 0 21 14 25 0 22-8 24-10-15-20-27 4-26 11-21 16-18 21-10 24-6 28 3 27 15 19 25 12 28 3 25-4 25-8 25-10 21-11 22-19 16-22 10-22 5-26-12 24 6 25 6 24 1 25 2-26 5-29 6-23 11-24 14-23 15-20 20-20 27-16 23-7 27-8"/>
<path d="M4073 36977l-1-4 0-25-9-23-25-3-21 13-24 19-16 19-18 23-17 23-14 24-13 25-8 23-8 28-2 25 23 9 23-14 19-19 20-26 15-21 15-22 15-22 14-24 14-23 13-23 12-22 13-34 10-31 7-32 5-30 4-28 2-32 0-35 1-32-1-29 1-28-22 12-11 29-9 28-9 33-9 35-6 23-6 34-7 35-3 25-2 36 2 33 3 30 6 28 13 26 20 19 26 5"/>
<path d="M4201 36974l 1-1 16 18 27 3 24-9 24-9 18-17-18-18-24-3-28 3-23 13-22 18-13 21-11 24-5 24-2 28 9 23 22 15 25 6 25-2"/>
<path d="M4301 36976l 1-1-3-25-26-4-24 15-21 18-17 18-18 21-13 23-12 27-5 26 5 24 22 11 25-4 26-9 21-11 22-12 25-19 23-18 20-18 18-22 11-23 1-26-17-18-22-9-27-3-25-3"/>
<path d="M4399 36970l 1 0 24 13 24 4 26-3 26-9 25-10-15-19-25 1-28 3-23 10-18 18-13 22-1 25 14 22 20 14 27 8 27 0 29-5 24-6 24-9 24-9 22-14 21-20 16-20 13-22 4-25-5-24-21 16-7 25 5 28 16 25 18 20 18 18 6 24-14 21-25 17-21 11-27 9-28 5-25 6-24 3 24-2 25-5 26-8 30-10 25-10 25-9 26-11 27-10"/>
<path d="M4847 36952l-1-1-19 15-3 25 0 25-4 28-9 23-6 25 18-18 16-21 16-26 15-27 17-24 13-21 17-20 17 21-3 28-7 27-4 25 2 27"/>
<path d="M5080 36794l-1 0-7 24-14 23-18 24-17 22-16 22"/>
<path d="M5161 36642l 0 0 2 27 3 28 0 26-4 28-4 30-5 31-8 30-7 26-10 29-9 31-12 29-11 25-8 27-4 31 1 28 13 22 24 11 27-7 23-12 25-16 22-19 19-21"/>
<path d="M5136 36871l-5 1-25 6 26 7 30-9 32-3 30-6"/>
<path d="M5693 36949l 0 1 3 24 6 27 3 28-1 25 0 25 15-25 11-22 12-21 15-23 17-21 23-9 9 23 2 28-5 26-6 23-5 24 25-3 19-16 18-18 18-18 19-23 17-17 18-18 25 3 4 28 1 25 4 24 13 23 25 13 28 2 28-5 22-10 24-16 17-18 13-22 3-25-25-5-26 7-19 14-20 18-18 19-10 23-4 24 22 15 28-5 25-12 20-16 14-21 8 25 13 21 24 9 25-5 22-12 23-15"/>
<path d="M6361 36733l-1-6-3-30-2-25-10 28-5 24-7 31-5 27-6 29-9 30-8 33-8 34-4 33-2 29 0 28 6 30 9 23 19 19 29 3 27-11 25-15 26-21 22-20 25-23 25-24 18-18 21-25 18-28 12-29 13-28 11-29 8-30 4-29 3-27-1-25-14-19-22 16-16 27-12 29-9 33-5 23-5 26-3 33-3 27-1 27-2 25-2 24 0 31 4 26 7 28 15 23 19 14 26 2 22-13 15-20 9-24"/>
<path d="M6273 36885l-4 2-24 11 24 7 32-10 29-10 29-8 24-5 24-5 27-3 28-5 29-4 32-4 30-3 31-3 31-2 27-2 29-1 26 0 33-1"/>
<path d="M6732 36942l 0 1 24 10 25 0 27-2 23-9 18-17-15-21-29-4-23 9-25 10-18 21-15 21-8 23 5 25 19 19 26 7 27 7 30 0 29-6 28-9 23-10 23-11 19-16 16-18 13-25 0-24-6 24-3 25-4 25-3 25-13 22 6-25 10-23 14-26 15-21 15-21 19-18 23-12 27-6 27 6 23 12 21 15"/>
<path d="M7354 36688l 0 0 26-1 26 0 28 3 25 9 15 21 6 25 1 25-5 29-10 29-9 30-8 27-9 26-6 24"/>
<path d="M7471 37102l-1-1-5 24 13 22"/>
<path d="M1564 38807l 0-2 2-24 0-26-7-24-15-19-23-11-24 1-24 10-26 19-19 21-18 26-16 31-9 22-8 23-8 34-5 35-1 32 0 30 3 26 9 27 17 23 24 11 26-8 21-16 24-24 16-21 15-24 16-25 13-28 13-29 12-29 9-31 10-29 7-31 6-30 5-32 5-31 2-34 3-35 3-34 3-35 1-34 1-31 0-32-1-31 0-29-1-28-1-24-2-31-5-28-24 1-11 30-7 34-5 25-4 28-4 32-3 33-3 34-3 38-4 40-3 42-4 41-2 40-3 38 0 37-1 33 1 33 0 29 2 28 3 25 5 33 6 26 9 29 11 22 18 22 25 6"/>
<path d="M1738 38832l 0 0 4 24 0 24-1 31-4 35-2 25-2 28-3 28-3 31-3 31-2 31-2 30-2 30-3 29-4 28-4 27-3 25-5 35-6 28-6 26"/>
<path d="M1679 38891l-1-4 3-27 11-25 20-23 22-19 23-18 27-14 27-7 26-4 24 2 27 6 23 9 22 11 24 15 17 16 13 24 3 25-7 30-11 26-16 25-19 26-22 24-22 25-22 22-20 17-26 18-23 13-25 8"/>
<path d="M2108 38976l 0-1 2 26-4 26-6 28-4 27-4 30-2 24 26 4 19-20 18-25 11-23 10-22 10-27 9-27 4-25-15 21-4 26-2 25-1 26 1 28 7 27 13 22 18 17"/>
<path d="M2296 39148l-1 0-7 27-9 27-10 28"/>
<path d="M2468 39044l 0-2-11-21-21-13-24-3-26 7-19 16-16 24-13 22-15 27-9 24-2 25 10 23 26 3 20-15 17-19 17-25 17-27 11-24 11-25 10-26 5-23 3-24 1-25 0-27-4-27-3-28-4-28-4-25-7-25-9-23-20 14-11 25-8 28-4 28-1 25 0 25 3 28 2 25 4 26 3 25 4 26 5 26 6 24 10 25 11 22 18 21 24 15"/>
<path d="M1498 40293l-1-1-25-6-28 7-20 13-24 19-19 20-22 26-16 21-18 24-19 27-19 30-20 34-20 35-19 36-16 35-14 33-11 33-9 31-6 29-4 28-2 24 2 31 9 26 25 16 26-1 25-8 28-15 22-14 22-15 25-17 24-16 25-16 26-16 28-14 28-14"/>
<path d="M1548 40878l 0 0 24-12 18-18 19-25 15-22 18-25 18-28 13-21 14-22 14-24 15-25 14-26 14-28 15-28 13-31 14-32 12-30 9-30 8-29 4-29 2-29 1-29-1-29-1-27-2-25-3-30-4-25-23-9-15 25-14 29-10 24-9 28-10 31-10 35-11 37-11 38-10 40-9 38-7 39-4 36-2 34-1 34 2 30 4 29 6 26 9 23 16 27 16 21 26 19 27 6"/>
<path d="M1965 40672l-1-2-7-24-12-21-20-14-24 6-18 19-16 20-14 25-13 27-8 26-3 25 19 19 27-5 24-14 21-20 15-19 14-21 8 23 10 22 27 4"/>
<path d="M2071 40647l 0 0-13 23-7 23-2 28 2 27 7 25"/>
<path d="M2162 40704l 0-1-1 27-1 24-3 24 19-15 16-23 15-25 11-23 13-22 16 20-4 25-7 26-6 25 26-7 14-25 12-23 14-24 19-16 6 24 2 26 1 27 1 25 8 23"/>
<path d="M2512 40503l-2 0"/>
<path d="M2518 40600l 0 0"/>
<path d="M2771 40644l 1-2 8-22 5 26-4 25-5 27-4 26-2 25 12 21 26-6 19-15 19-23 17-26 15-23 12-25 7-23-9 24 2 24 9 26 13 21 19 16 24 2 23-11 20-21 17-25 11-26 5-25 2-26-4-26-10-24"/>
<path d="M3182 40612l-1 0 22-11 24-10 21-13 16-21-13-21-24-8-28-3-28 5-26 12-18 17-9 22-3 29 3 25 7 25 10 23 17 24 25 16 27 12 25 2 30-5"/>
<path d="M4032 40659l-1 1-12 21 4 25 22 11 28-2 26-9 22-14 27-21 19-18 20-22 23-25 23-27 23-29 22-29 20-29 19-28 14-27 12-26 10-25 8-24 7-23 6-34 1-32 1-30-1-27 0-25-15 20-9 28-7 24-7 26-6 28-7 29-9 30-7 32-9 31-8 31-8 34-7 32-7 32-5 29-5 26-4 25-3 30-2 25 3 26 27-6 20-27 16-26 14-28 13-26 12-24 16-25 15-25 21-13 14 24 3 29-2 29 2 28 9 23 24 10"/>
<path d="M4574 40555l-1-1-17-16-24 5-16 19-15 23-11 24-8 22 9 22 28-3 22-13 19-17 16-19 2-24-5 24 5 26 21 14 24-11 18-17 14-22 17 19 8 28 15 20 26-5 19-22 12-25 11-25 6-28-1-25-2-25"/>
<path d="M4857 40568l 0 0 24-11 22-16 15-18 9-25-17-20-24-8-27-3-24 11-18 17-10 22-7 28-2 28 1 29 5 28 12 22 17 18 22 12 29 5 25-2 28-6 30-13"/>
<path d="M5629 40616l 1-2 1-25-10-23-19-15-26 0-24 16-17 17-15 21-16 25-8 26 16 18 25-2 22-10 20-14 5 24 9 24 22 9 28-11 21-14 25-20 20-18 22-19 21-21 17-23 16-24 14-25 13-28 9-28 6-28 3-27 0-27-2-27-4-26-6-28-9-25-19-18-24 14-11 25-11 27-10 32-5 24-5 25-5 25-4 26-4 27-2 25-1 35 3 31 6 25 11 25 21 19 27 4 21-12 20-15 22-22 22-25 20-28 14-21 18-31 16-32 13-31 10-33 6-34 3-24 1-25 1-35 0-33-2-28-3-28-9-25-24 15-13 25-8 25-9 30-8 33-5 24-5 25-3 26-3 27-3 26-2 26-1 27 0 27 0 25 3 35 5 28 7 24 13 25 19 16"/>
<path d="M6555 40686l-1 1 27-2 23-17 22-21 21-23 16-21 16-22 13-21 14-25 5-29-5-25-11-25-16-20 20 14 24 12 23 9 23 7 22 11 13 23 1 24-14 24-14 23-18 20-16 19-12 22 26 6 26-9 25-12 25-12 127-64 17-18 16-19 7-25-20-14-24 5-24 15-15 21-13 22-7 24-3 28 6 28 16 23 28 12 30 2 29-4 25-8 28-9"/>
<path d="M7213 40503l-2-2-15-21-23-7-25 11-19 17-20 22-16 19-15 22-10 27 1 27 15 22 28 8 28-2 25-5 26-8 27-13"/>
<path d="M7393 40266l 0 1-4 25-1 27-2 30-5 28-6 24-7 26-8 26-9 28-6 27-5 26-3 28-2 24 3 25 10 23 28 8 24-12 25-19 18-18"/>
<path d="M7299 40407l-3 1-24 9 25 5 33-4 30-6 30-5 32-5"/>
<path d="M7599 40405l-2 0-24 8-22 9-25 12-22 11-24 15-19 16 19 18 24-2 26 0 26 2 24 5 24 5 16 18-15 23-22 16-24 17-27 18-27 14-24 12-24 11"/>
<path d="M7693 40566l 0 0-13 21"/>
<path d="M8426 40279l 1-1 24 9 9 25 1 25-2 24-6 27-8 30-10 32-8 24-9 25-14 25-11 25-10 23-10 22-14 30-10 26-11 25"/>
<path d="M8668 40280l 0 0-5 25-9 30-7 24-9 27-10 31-13 32-8 24-8 24-6 25-7 23-9 33-7 30-4 25 1 29 13 20"/>
<path d="M8381 40511l 0 0 23-5 26-7 27-7 31-9 35-9 25-6 24-5 25-4"/>
<path d="M8737 40490l-2 2-15 19-13 21-16 23-15 25-12 24 0 25 24 9 23-6 27-15 21-16 20-19 16-21 3-26-17-19-22-12 19 19 25 0 26-2 25-2 25-4 25-1 12 22-6 26-14 23-14 22 28 0 22-13 22-17 22-15 6 25 13 22 21 14 25 0 24-10 25-13 22-15 20-15 16-21 10-23-5-24-15-22-22-10-26 0"/>
<path d="M9630 40178l 0-2 11 25 3 25-3 25-6 28-7 24-10 26-12 28-14 30-16 30-16 29-13 29-9 26-6 28 5 25 26 2 22-12 22-18 18-20 17-24"/>
<path d="M9499 40409l-1 1 24 10 27-6 25-5 27-6 29-6 29-6 27-6 25-6 27-4 25-3-3 26-17 19-15 21-10 22-2 25 12 22 26 8 29-5 24-11 24-14 24-15 18-20 8-25-9-25-17-21-19-16-23-7"/>
<path d="M10563 40398l 0-2-13-20-26-5-28 4-22 11-24 14-23 18-17 17-15 25-5 24 15 24 27 7 31-3 27-6 28-12 27-11 24-13"/>
<path d="M10648 40411l-2 1-22 11-20 18-17 19 9 23 25 8 26-4 25-7 25-10 22-11 15-21-10-23-24-12-24-6-25 3 25-1 27-10 22-10 25-13 25-17 22-14 24-16 24-17 23-18 22-18 20-18 21-18 18-23 10-23 6-24 2-27-11-22-25 12-17 18-19 24-14 21-13 25-11 26-8 26-9 28-7 28-9 26-2 24 4 27 11 23 22 13 24 0 28-9 24-12 23-15 22-19 21-21 17-22 17-24 14-25 10-26 8-28 6-28 4-29 4-28 0-24-4-27-25 10-15 20-14 25-8 23-9 27-10 28-11 29-8 30-8 29-4 30-3 27 5 25 7 27 13 26 25 15 26 4 29-4 26-6"/>
<path d="M11325 40378l-1-2-18-17-20-16-25-4-22 9-23 13-23 17-20 20-7 24 16 21 25 4 27-3 24-7 25-11 21-15 14-21 15 21 26 5 26-8 25-10 20-13 21-15 20-17 19-18 18-20 12-20 13-21 12-22 9-24 8-25 6-26 8-26 10-27 6-25 5-26 5-24-21 21-17 25-12 23-14 26-16 28-15 31-10 23-10 23-8 24-9 24-11 34-7 32-3 27 2 28 10 26 19 17 26 4 29-7 25-13 26-19 17-19"/>
<path d="M11434 40253l-4 0-26 2 31 2 30-4 27-3 26-2 30-2 28-1 31 0"/>
<path d="M11658 40313l-2 0-21 12 28 2 28-9 23-13 19-17 1-24-24-11-27-2-27 6-21 12-22 17-18 17-13 24-7 28 6 25 19 16 25 5 26 0 30-5 30-10"/>
<path d="M11888 40119l 0-2 23-10 26 1 26 3 23 12 13 22-8 26-14 24-16 19-20 20-20 24-19 25-17 25-17 27"/>
<path d="M11899 40454l 1 1"/>
<path d="M15129 36750l-1-2 15 23 16 24 15 24 16 27 19 30 13 23 14 24 15 25 15 26 17 27 18 28 20 29 22 28 23 29 26 30 26 30 28 29 28 30 28 28 28 29 27 29 26 29 25 29 25 28 22 27 22 26 23 26 18 24 18 23 16 22 19 28 18 25 17 20 17 22 16-18"/>
<path d="M16339 37232l-2 0"/>
<path d="M16350 37125l 0-2"/>
<path d="M16477 37505l 0 0 24 5 28-3 22-9 25-14 20-18 20-19 21-23 12-21 10-26 9-27 7-24 10-25 8-23 14-20 24 11 25 11 25 5 29 1 27 4 25 4-1 25-20 24-20 17-18 16-22 20-18 18-19 21-17 18 10 23 26-6 26-12 24-9 25-6 26-4 25-8 23-9 23-12 23-14 22-16 20-14 18-19-11-22-22-12-25 3-24 11-23 18-16 18-19 23-12 27-4 27 10 23 21 12 29 1 31-4 28-8 29-10 31-11 29-11"/>
<path d="M17119 37329l 0-2 10-21 8 25-2 27-7 24-11 25-12 20 8-28 15-24 20-23 19-21 19-20 21-17 16 21-2 25-11 24-13 20 24-13 23-19 20-19 20-21 21-17 25-5-3 27-5 25-4 24 17 18 24-3"/>
<path d="M17460 37309l-1-2-23 7-18 16-16 22 1 24 23 13 26-4 26-9 24-14 16-19-22-15-21-11-22-13 21-13 23-10 26-8 25-8 26-7 26-7 24 10-3 25-6 28-7 26 0 24 24 0 20-16 18-19 15-19 10-27 7-26 0-24-17 18"/>
<path d="M17746 37299l 0 1 23 7 29-3 26-10 24-7 25-11 23-13-8-25-26-6-25 3-27 8-22 14-20 21-14 23-10 24 3 26 14 21 24 15 25 9 28 4 25 2 28-1 32-1"/>
<path d="M15446 38254l-2 2-19 21-15 21-19 25-16 21-18 23-19 26-20 31-22 31-25 34-26 37-28 38-29 38-15 20-28 38-29 36-28 37-28 35-25 34-24 31-22 32-19 30-19 27-16 26-16 22-13 21-17 28-10 23-12 21 12-22"/>
<path d="M15726 38530l-1-1"/>
<path d="M15757 38591l-1 0-19 14"/>
<path d="M16273 38733l 1-3 3-25-3-25-15-21-24-12-27 6-21 14-22 22-19 21-18 25-15 28-10 28-8 25-6 30 3 28 18 21 27 1 22-12 20-16 20-22 22-27 18-20 16-22 14-24 15-23 11-24 11-23 9-23 9-25 5-25 5-26 3-27 3-29 1-29 2-28 1-27 2-26 1-24 1-33 0-26 0-28-22 22-11 25-11 29-11 35-7 24-7 24-8 26-6 27-4 27-5 29-3 28-2 29-1 25-1 27 0 35 3 32 4 28 6 24 11 23 19 15"/>
<path d="M16423 38691l-2 2-11 21-7 24-3 25 3 26 7 25 19 16"/>
<path d="M16503 38467l-1 1-10 22 0 25"/>
<path d="M16567 38654l 0 1 8 25 16 19 16 19 15 19 15 20 22 11 18-16 11-26 5-24 0-28 0-28 0-27-3-24"/>
<path d="M16775 38636l 0 0-5 26 6 24 1 27 1 28 0 25"/>
<path d="M16780 38558l-2-2"/>
<path d="M16960 38630l-2-2-18-17-27-1-23 16-16 18-15 23-13 24-10 25-4 24 3 28 8 27 22 15 25-5 22-14 24-22 17-20 18-22 18-25 16-24 13-25 9-24 5-26 2-28 1-32-1-33 1-33-2-34 0-32-2-27-6-26-26 11-9 30-6 25-7 27-3 27-3 29 0 31 3 31 4 30 5 27 4 25 6 24 10 27 15 23 22 19"/>
<path d="M17200 38687l 0 0 25-8 25-9 22-10 17-20 3-25-16-21-25-6-25 2-24 12-16 22-13 24-5 25-1 25 5 25 13 22 21 21 24 17 27 12 25 6 26 3 28 0 25-1"/>
<path d="M1788 42057l-1 0 25-4 23-8 23-11 25-13 25-15 22-13 22-12 24-12 22-10"/>
<path d="M1817 42114l-2 1-21 11-7 24 7 25 7 25 11 22 24 7 23-14 19-15 22-16 23-12 27-11 26-7 27-4 25-3 28-2 28 4 24 11 13 21 1 28-8 25-9 25-12 26-15 27-19 26-22 24-24 20-25 18-25 14-25 11-28 10-25 4-22-11-14-23 8-29"/>
<path d="M2318 42063l-1 0-26 6-17 18-17 24-15 26-11 30-7 30-2 31 4 31 7 27 14 20 21 19 25 12 24 4 29-1 25-7 25-16 20-15 22-19 22-20 21-23 16-24 13-25 9-26 6-26 1-24-5-31-12-29-18-24-22-17-24-12-26-3-27 3-26 8-28 12-22 11-25 17-18 19-9 23"/>
<path d="M2654 42074l-1 0-23 8-15 24-8 24-3 26 0 30 4 31 5 24 9 22 14 27 16 24 19 20 22 14 25 12 30 4 24-4 24-8 26-12 26-19 17-17 16-18 16-26 12-28 7-28 1-30-4-24-9-24-11-22-21-24-23-17-25-12-28-5-31 0-30 5-27 7-24 9-21 15-16 22"/>
<path d="M3101 42209l-1 0"/>
<path d="M3399 41978l 0-2 11 26-2 28-5 31-8 25-6 25-8 23-8 24-8 23-9 30-9 25-8 23 2 25 23 8 28-3 27-7 25-7 27-10 27-11 28-11 24-9 24-11 23-9"/>
<path d="M3486 42158l 0 0 2 24 6 24 6 24 3 25 1 29-2 26-3 27-3 25-4 24"/>
<path d="M3555 41880l 0-2-25 2-18 27-16 27-12 22-13 25-14 29-16 29-15 32-16 32-14 35-14 34-11 34-9 34-7 32-4 31-3 28-1 27 2 24 5 33 9 26 11 21 21 22 28 16 24 6 25 0 32-3 30-12 24-11 24-15 25-16 23-18 18-19 18-24 13-26 2-28-7-25-17-20-24-17-26-10-29-5-25-1-26 3-29 6-29 8-31 10-30 11-27 13-23 14-20 13-19 16-13 20 10 22"/>
<path d="M3736 42463l-2-1"/>
<path d="M3910 42067l-1 0 6 25-4 24-8 28-11 29-10 23-11 23-12 24-10 22-14 26-10 27-4 24 18 19 27 5 30-3 28-6 25-7 25-9 25-9 25-11 23-11 25-13 24-13"/>
<path d="M3982 42165l 0 0-6 27 2 28 5 27 5 23 6 28 5 27 2 26 1 25 0 26"/>
<path d="M4197 42301l 0-1 25-3 24-8 23-11 23-13 21-15 19-18 13-21-9-23-24-13-25-5-25 5-25 15-19 16-19 21-15 24-8 27-4 28 2 28 8 25 12 21 18 20 22 12 27 6 26 2 25-4 26-8 26-12 25-15 24-17"/>
<path d="M4544 41992l 1 0-8 27-8 28-8 28-8 28-9 24-11 25-10 25-9 23-7 24 3 24 18 17 26 6 28 0 24-4 25-5 25-6 24-6 24-7 23-7 29-11 26-10 27-10"/>
<path d="M4655 42098l-1 0-7 25 0 30 4 29 6 31 6 24 6 23 6 24 6 24 4 31 6 29 4 27 3 26 1 28 1 27"/>
<path d="M5449 41916l 0-1-1 26-4 28-6 27-5 32-4 27-7 31-9 33-5 23-7 25-10 34-10 33-8 31-8 28-4 31 4 29 16 22 25 11 26-1 25-9 28-17 20-18 21-21 20-22 17-23"/>
<path d="M5315 42207l 0 0 27-9 24-8 28-9 22-8 25-10 28-9"/>
<path d="M5608 42182l 0 2-8 23-1 27 1 25 1 28-1 27-3 26-7 25-9-25 1-27 4-30 5-28 9-23 16-24 18-21 21-17 22-11 26-10 28-7"/>
<path d="M5922 42215l-1-2-16-20-25-4-27 9-24 15-21 21-16 21-7 24 19 18 26-2 24-9 23-12 22-13 23-13 18-19-2 25 20 16"/>
<path d="M6156 42152l-1-1-25-1-25 11-19 15-21 18-18 19-14 20-7 26 10 23 22 10 27 0 24-4 30-6 29-13 23-12 24-13"/>
<path d="M6297 41883l 0 1 1 25 2 25 4 29 2 25 1 25 2 26 2 27-1 31-5 32-7 33-7 31-8 29-7 26-10 27-10 22 1-26 6-24 7-26 10-27 10-26 13-24 14-22 16-22 17-20 19-15 22-14 23-7 25-3 25 4 12 22-18 20-22 14-23 18-22 17-24 18-21 18-17 21-8 25 17 19 24 7 28 3 30-2 24-3 23-5 26-8"/>
<path d="M6723 42060l 0-2-15-19-24-5-26 6-22 12-21 16-15 19-3 25 10 22 25 11 27 5 26 2 27 4 26 7 26 11 20 15-6 24-18 18-21 15-24 15-23 13-24 10-25 4-24 0-28-5-25-7-23-9-24-15"/>
<path d="M1715 43481l 0-1 28 2 24-6 26-6 30-12 25-13 25-13 25-16 25-16 22-13 26-14"/>
<path d="M1848 43419l-2 1-20 14-19 20-16 23-10 22-6 25-1 25 10 22 28 0 27-10 26-10 22-10 29-11 27-8 28-3 28 5 24 12 10 22-7 25-11 21-17 23-22 25-22 25-21 22-20 22-21 20-21 17-21 15-23 10-24 2-17-23"/>
<path d="M2128 43468l 0 1-11 26-9 24-8 23-5 30-3 32 1 30 8 24 19 21 24 7 28-2 23-8 24-10 24-13 24-15 22-19 23-18 22-21 21-21 18-24 13-23 7-24 4-31-6-32-11-24-15-23-19-18-21-13-24-8-31-5-25 0-25 4-28 10-26 12-20 17"/>
<path d="M2566 43371l-6 2-24 10-24 20-15 19-14 22-9 24-6 26-1 25 3 27 7 24 12 22 14 23 21 17 28 11 25 4 28-4 22-9 25-15 27-19 26-22 17-17 22-26 19-25 14-25 7-26 2-27-3-29-6-32-15-31-19-28-22-27-22-21-25-16-26-10-24-6-27 1-25 6"/>
<path d="M2992 43437l-2-2"/>
<path d="M3252 43626l 0 0 17 17 26 0 28-10 26-16 25-19 23-21 23-21 18-21 13-20 12-25 6-24 2-26 21-14 24 2 25 6 21 13 19 18 13 21-6 24-20 18-22 15-23 19-21 20-14 21-10 22 5 26 22 11 24 0 27-6 24-8 25-10 24-9 24-9 24-9"/>
<path d="M3807 43521l-1-1-19-15-25-7-27 7-23 13-21 17-16 23 4 24 27 3 25-6 24-10 25-13 22-16 16-18-15 20 4 25 22 14 25-5 22-11 21-13 17-17-14 20 24 8 25-9 22-13 19-16 21-13 7 23 6 25 21 16 26 4 25-1 28-6 27-9 23-11 23-15 22-18 17-17 16-21 9-26-12-23-28 0-27 12-23 14-21 16-19 18-17 21-12 23 10 24 27 8 27-8 25-10 24-3 17 21 7 29 4 27 3 31 0 25-2 27-4 29-5 30-8 32-13 33-9 25-12 25-12 25-14 26-16 24-16 24-15 22-16 20-21 26-20 19-22 15-23-8-10-27-2-32 5-33 5-25 8-30 9-32 10-34 14-37 15-39 18-39 18-38 20-37"/>
<path d="M4366 43531l 0 0 24 1 28-10 24-13 26-15 25-17 22-19 17-18 10-23-6-25-19-14-27 1-23 7-28 13-24 16-18 18-17 20-13 21-8 24 3 25 13 25 16 21 21 13 29 7 32 4 29-1 34-4"/>
<path d="M5024 43406l 0-2 13-25 23 8 3 26-3 28-10 30-10 30-12 26-14 25-17 20 8-29 14-26 19-28 19-30 18-27 16-23 19-23 18-18 26-7 19 18 6 23-2 28-8 24-9 24 28-8 19-16 21-20 21-20 20-18 18-17 20-17 21-16 5 27-9 28-8 23-6 26-3 26 3 25 28 4"/>
<path d="M5495 43368l 0 0-22 15-14 22-6 24-6 25 0 25"/>
<path d="M5543 43251l-2-2-21 13-1 25"/>
<path d="M5562 43379l 1 1 4 26-9 23-7 23 25-13 19-18 18-21 16-18 18-20 17 16-4 26-1 24 0 28 1 27 9 23"/>
<path d="M6489 43288l 1-2-4-25-26-6-28 6-26 10-23 12-21 12-24 16-22 14-18 19 10 22 26 9 30 6 30 8 29 10 27 12 25 11 24 8 20 13 12 22-19 21-24 16-26 13-23 10-25 8-27 6-31 5-28 0-26-4-17-18 8-24"/>
<path d="M6739 43073l 0-1 14 21 3 25-3 28-6 25-9 28-11 29-11 24-13 25-15 25-14 27-15 27-12 28-12 28-10 22-7 28 5 26 24 8 25-3 25-6 27-10 30-12 32-14 29-14 28-13 23-15"/>
<path d="M6635 43277l-2 1 21-14 26-8 28-6 32-6 31-3 25-1 31 4"/>
<path d="M6589 43501l 0-1 24 0"/>
<path d="M6957 43502l-1 0"/>
<path d="M6130 43038l-1-1-1 27-3 30-7 29-7 24-8 24-8 26-10 30-12 31-13 34-10 22-9 24-9 23-13 33-10 30-7 28-3 25"/>
<path d="M6225 43340l-1-2-4-25-14-21-22-10-22 12-19 19-18 23-14 24-8 25-6 25 24 1 19-22 18-20 19-22 18-24 17-23 18-25 15-24 15-26 10-24 9-31 6-32 4-26 2-26 1-28-1-27-1-24-4-28-18 19-10 25-9 27-7 29-6 25-5 25-4 28-4 29-3 31-1 33-3 32-3 31 0 27 0 26 4 28 6 27 12 24 22 15"/>
<path d="M3393 43933l 1 0 22 15 22 14 22 14 22 13 24 12 29 9 24 5 29 4 30 2 33-2 36-2 26-2 29-2 30-3 32-4 33-3 36-3 39-4 41-2 42-3 42-3 44-2 44-1 44-2 44 1 43 1 43 3 44 4 43 5 43 5 43 8 40 7 38 9 34 11 34 10 32 12 31 15 32 15 30 17 26 19 24 16 22 18 19 18 20 17 18 18 23 24 18 23 16 24 12 24 6-26 9-25 12-26 14-26 16-23 17-21 19-19 23-20 26-20 28-18 32-18 23-12 24-10 25-11 27-10 28-9 30-8 33-8 35-6 37-6 38-4 35-3 36-1 38 1 35 1 37 3 33 3 32 3 31 3 31 4 31 3 31 3 31 3 33 1 32 1 30 2 34 0 33 1 33 0 33-1 31-1 31-1 30-2 31-2 28-4 29-3 28-4 28-6 28-6 27-5 26-7 24-7 33-13 31-13 27-13 20-14 24-17 19-16 9-23"/>
<path d="M3816 44752l 1-2 9-23 17-17 25-8 23 8 7 28-3 26-7 24-11 27-14 28-14 29-13 28-13 24-15 25 6-29 12-28 15-29 14-29 16-25 18-26 17-19 20-17 23-10 22 15 3 26-5 26-9 24-11 22-10 24 23-14 19-24 20-23 16-19 18-19 22-12 18 16 5 27 0 27-2 26-1 25-4 29 7 25 21 13"/>
<path d="M4269 44805l-2-1-23-6-19 15-17 22-16 24-13 20-12 24 7 23 25-9 22-13 24-14 21-14 1 25 10 24 26 6"/>
<path d="M4375 44791l-1-1 25 3 24-4 3 25-18 20-16 18-15 19-17 22-13 23-4 24 24 11 25-8 22-10 25-16"/>
<path d="M4566 44598l 0 0 2 24 3 28 2 24 1 27-3 24-7 29-9 30-8 31-9 32-11 31-12 28-10 22-11 23 7-27 10-28 10-30 11-28 12-26 14-22 16-22 20-19 24-17 24-11 25-1 13 23-15 22-19 21-23 19-21 16-20 16-24 21-19 16-11 22 26 6 26 0 25-3 28-7 25-7 25-8"/>
<path d="M4722 44818l 0 0 24-10 24-15 22-15 18-18 1-25-25-3-24 4-22 10-21 15-20 19-16 25-11 23-7 24-4 27 2 25 17 18 25-4 22-11 22-14 25-16"/>
<path d="M4839 44783l-1 0 24 0 25-1-9 24-18 17-16 21-13 22-12 22 8 24 29 1 26-10 27-11 25-16 20-14 20-18 25-20 18-16 21-22 15-19 11-22 2-26-11-21-18 20-5 23-1 27 4 25 5 24 7 26 4 26-6 25-20 14-27 3-26-5 24-12 25-2 27-3 25-2 25-3 24 0"/>
<path d="M5210 44516l 0 0"/>
<path d="M5989 44738l 1-2 1-25-9-25-18-18-27-3-26 9-23 18-20 24-18 24-14 25-13 28-5 27-3 26 2 31 7 25 25 11 28-11 23-20 18-22 18-27 20-29 19-30 18-31 12-21 12-21 14-31 13-31 9-31 6-32 3-33 2-33-1-33-1-31-1-30 0-25-2-26-18 16-7 24-8 25-9 29-8 30-6 32-4 34-5 36-2 25-1 27-3 27-1 26-1 28-1 25 1 34 3 29 5 24 11 23 17 18 24 0"/>
<path d="M6146 44737l-2 2-12 23-6 24-4 27 0 25-2 29 0 25-2 24-3 25-2 27-3 28-5 30-4 30-6 30-4 30-4 28-3 25-2 31-2 26"/>
<path d="M6153 44761l 1-1 17-17 24-11 25-3 27 5 22 15 16 20 6 26-4 25-13 26-16 24-23 19-25 16-25 11-28 7-27 3"/>
<path d="M6444 44428l 2-1 24-1 22 10 22 16 13 24-1 28-9 24-12 30-12 24-15 24-17 23-17 24-14 20-12 22-13 28-9 22"/>
<path d="M6423 44878l 0 1-4 24"/>
<path d="M9589 42222l 0-1-13 26-4 29-5 26-7 28-4 33-4 35-1 26-2 27-2 29-2 29-3 30-2 34-3 35-3 39-3 42-3 46-3 48-1 25-1 27-1 27 0 28 0 28 0 28 0 29-1 29 0 29-1 29 0 29 2 29-2 28 0 30 1 29 1 29 0 29 1 29 1 29-1 29 2 30 1 28 1 29 1 29 0 29 1 28 1 29-1 28 1 27 1 28 0 26 2 27 1 26 0 25 1 25 2 25 0 46 0 45 0 43 0 40 0 37-2 34-1 30 0 27-1 33 1 27 2 26 0 26"/>
<path d="M8284 43273l 2-2 24-15 22-15 21-14 27-18 25-16 28-18 21-13 21-15"/>
<path d="M8280 43272l-5 4-22 19-18 25-10 22-9 23-6 24-3 26 0 29 5 26 16 22 25 12 24-3 25-9 22-12 25-16 28-19 21-12 23-14 23-13 23-12 23-11 23-9 31-9 29-7 15 19-16 20-17 21-24 26-23 27-19 18-18 17-18 16-19 15-28 22-27 20-25 17-23 14-24 13"/>
<path d="M8651 43252l-2 1-22 13-16 19-13 25-9 28-2 28 6 25 17 22 24 8 29-3 24-10 26-14 27-17 22-17 20-19 17-20 15-20 15-25 6-23-3-27-14-22-23-12-28-4-24 3-24 6-23 11-22 15-16 21"/>
<path d="M9006 43234l-1 2-19 20-18 21-14 27-9 26 0 26 10 25 21 21 20 13 25 8 26 0 29-6 28-13 22-13 21-18 20-20 19-23 14-25 9-26 4-24-6-32-12-25-15-25-20-22-24-15-25-10-28-5-31 1-32 4-33 9-31 10-26 9"/>
<path d="M9630 42317l 2-1 28-7 30-5 31-1 29-1 37-2 28 0 34-2 38-2 43-4 24-2 24-3 28-1 26-3 28-2 30-3 31-3 31-3 33-3 33-4 35-3 36-4 37-3 39-4 38-4 40-3 41-5 42-4 43-4 44-3 45-4 45-4 46-4 47-4 48-3 49-3 50-4 50-4 52-3 51-4 53-3 55-3 54-2 56-2 56-3 57-2 57-2 59-2 58-2 60-1 61-3 61-1 62-2 63-1 64-1 63-2 66-1 65-1 65-1 66 0 66-1 69-1 66-1 67-1 67 0 68-1 68-1 67 0 68 0 66 0 66 0 68 0 66 1 65 0 66 1 65 0 63 1 65 0 64 2 63 1 63 1 61 2 61 0 61 2 61 1 59 3 57 1 56 2 56 2 55 2 55 1 52 2 49 3 48 2 47 3 46 2 42 2 40 3 39 2 37 2 36 1 32 2 31 2 29 2 26 2 26 2 44 4 36 3 30 5 32 5"/>
<path d="M11462 42014l 2-2 19-20 23-23 21-21 24-23 17-16 19-18 21-20 21-22 23-24 23-26 22-27 23-31 22-31 21-32 19-33 17-32 14-31 13-32 6-29 5-27 2-27-1-34-5-29-6-24-14-21-30-4-23 12-23 15-22 19-23 22-24 28-23 32-23 36-24 38-22 40-13 20-20 42-19 42-15 42-11 39-9 37-7 34-1 29 1 26 8 33 14 29 18 22 20 17 24 12 26 4 29-3 30-10 31-13"/>
<path d="M11899 41761l-1-2-13-21-20-15-26 9-19 17-15 19-15 23-14 25-13 23-9 27-4 26 14 20 24 1 27-13 26-19 19-17 16-17 17-22 12-22-6-23 2 26 12 21 26 2 26-11"/>
<path d="M12032 41724l 0 0 23-8 26-5 24 5-1 27-16 22-16 20-17 19-16 19-18 23-13 24-11 27 0 25 23 10 25 0 30-9"/>
<path d="M12286 41765l-2-2-18-17-27-6-23 11-23 17-24 20-17 19-18 24-12 23-3 25 25 11 29-4 28-10 24-15 21-20 19-20 9-23-7 27-4 27-2 30 0 29-2 28-6 29-6 29-8 26-14 25-20 25-19 22-18 20-23 17-24 12-25-8-8-26 2-25 7-24 12-24 16-26 19-26 22-26"/>
<path d="M12345 41784l 1 0 22 10 26 1 24-7 24-13 19-17 12-21-2-26-20-15-26-5-27 3-23 13-17 19-12 25-3 24 0 27 3 29 11 29 15 24 18 19 20 16 25 13 24 6 25-3 21-12"/>
<path d="M16030 41926l-1-2-12-21-27-4-24 9-23 18-21 26-15 25-19 29-16 31-11 31-8 31-1 29 6 31 16 21 22 11 28 5 33 0 25-3 25-5"/>
<path d="M16212 42007l-4 0-26 7-21 13-16 22-9 22 5 24 25 15 26 4 29-2 25-6 24-11 8-24-11-22-14-21-21-15-19 15 12 23 27 5 24-7 27-11 27-13 23-16 26-19 21-20 20-22 15-24 15-25 10-24 8-26 5-29 2-32 1-33 1-35 1-35 0-32-2-25-6-25-27 0-16 19-15 22-14 27-15 29-11 22-9 23-6 24-6 27-5 28-2 28-3 29-3 30 2 29 0 29 2 28 0 25 3 33 6 28 9 25 14 24 22 17 27 2 28-11"/>
<path d="M16616 41961l-1-2 12-21 28-4 28-4 29-1 30 1"/>
<path d="M16830 41945l 1-1-5 24-11 24-14 26-14 25-5 25 21 13 28-10 22-13 22-16 22-16 19-20 15-20-23 9-8 23 3 25 13 21 22 11 25 1 27-6 24-10 24-14 18-19 16-21 14-25-3-28-9-28-13-21-23 10"/>
<path d="M17157 41923l 0 0-8 25-3 26-6 27-8 27-8 26-3 27"/>
<path d="M17192 41792l-1-2-22 9 6 23"/>
<path d="M17334 41903l-2-1-25-9-25 8-20 14-20 19-17 21-9 23 12 22 25 9 26 3 26 1 27-2 25 1-4 26-22 19-22 13-25 11-24 14-25 9"/>
<path d="M17499 41943l 0 0 24-5 27-9 26-11 24-14 11-22-21-12-27-1-26 7-24 11-20 20-16 20-8 25-3 29 5 28 7 24 15 24 20 13 26 8 27 0 32-6"/>
<path d="M18274 41910l 0-2-1-25 1-24-11-21-25-6-28 6-27 11-22 11-21 14-21 18-18 20-15 21-12 23-11 23-6 28 6 29 13 23 24 12 26-1 25-8 29-13 31-17 27-21 19-16 23-26 21-27 15-30 7-33 3-36 1-27 2-28-3-29-2-30-2-30-5-28-4-25-6-31-9-22-11-23-17-20-12 22-4 26-3 24-4 28-3 32 1 33-1 34 0 34 0 24 0 36-1 36-2 34 1 33 4 29 5 24 11 25 15 19 26 15 28 5"/>
<path d="M18424 41910l-2 0-4 26-3 29-1 30-2 25-3 27-5 30-5 30-6 30-7 32-8 29-10 27-8 24-6 24-6 24 7-26 9-31 10-35 6-25 5-28 4-27 5-29 3-28 5-28 5-26 4-24 6-32 5-27 2-26 1-24 24-13 25 1 31 5 24 8 25 9 21 11 23 19 18 19 13 21 7 23-4 25-19 21-27 15-27 10-31 6-37 5-25 2"/>
<path d="M17187 42590l 0 0 4 28 4 28 2 25 1 27 2 24 4 24 4 28 9 24 22 12 18-17 13-21 16-30 12-22 10-24 12-24 9-25 6-25 10-34 6-31 3-25"/>
<path d="M17513 42548l-1-2-22-9-20 18-20 18-20 20-16 18-12 22 17 16 27 6 27 2 25 3 25 7 17 20-8 25-15 22-21 23-19 17-22 17-24 15-23 5"/>
<path d="M17665 42750l 1 0"/>
<path d="M15474 43806l-3-1-22-13 3 26 21 12 28 1 25-6 31-12 22-12 21-12 19-15 28-24 25-23 19-22 16-27 9-27 3-28 5-24 25 3 22 11 21 11 23 13 22 17 8 25-9 24-16 20-20 22-21 21-22 19-19 19-6 24"/>
<path d="M15931 43748l-1 0-23 14-18 23-10 24-3 26 19 18 28 4 25-5 25-12 19-16 11-25-2-28-14-21-17-18-25-9-22 13 16 19 28 1"/>
<path d="M16058 43725l 3-1 22-10 8 23-6 26-3 26 10 24 21 13 25-2 26-10 21-13 18-19 9-24-6-25-10 22-2 25 15 20 26 1 24-9 25-13 20-17 15-20 6-24-9-26-16-19-22-16-27-2"/>
<path d="M16411 43724l-1-2 24-15 27-7 27-4"/>
<path d="M16583 43709l 0 0-12 23-13 24-9 26 14 22 28 0 25-8 24-12 23-14 21-14 19-17 11-23-14-21-25 7-12 21-7 23 8 23 20 18 27 4 27-9 22-15 15-19 8-24-2-25-10-23-23-9"/>
<path d="M16880 43674l-1 1-16 22-10 24-2 26 0 24 5 24"/>
<path d="M16958 43552l-2-3-21-14-3 26"/>
<path d="M17037 43631l-4 0-24 4-27 10-23 13 2 25 24 6 26 3 26 2 24 3 24 7 2 25-21 16-26 9-28 10-27 9-27 6"/>
<path d="M17169 43665l 1 0 22 10 25-2 23-10 18-17-1-24-24-12-26-1-27 7-22 17-16 18-10 22-7 24 0 29 5 25 9 25 14 22 21 17 26 5 27-6"/>
<path d="M17547 43844l 1-1 23-6 31-10 29-12 33-13 22-11 24-12 25-12 23-13 22-15 19-14 26-23 20-22 16-25 9-25 7-29 1-25-23-10-20 16-12 25 5 25 9 23 14 25 15 20 20 24 19 23 16 23 12 21 12 23-10 24-26 10-28 1-26-5-22-11-15-20 24-12 23-10 24-8"/>
<path d="M18076 43715l 0 0 23-10 25-6 25-9 21-13-3-26-23-10-24 1-23 15-19 15-16 19-13 22-5 25 8 28 21 18 23 11 28 6 25 1 27-1"/>
<path d="M18374 43685l-2-2-20-16-26-9-30 4-24 10-25 17-23 19-15 19-10 25 3 25 22 16 25 3 28-3 27-8 22-12 21-16 18-19 12-21-13 24-4 28 4 28 3 27-1 26-2 28-4 29-3 27-3 26-7 27-9 26-14 23-16 19-22 15-25 9-26 4-27-3-24-10-22-16-19-21-11-28-2-27 2-31 5-24 6-25"/>
<path d="M18580 43378l 1 1-3 28 0 26 1 24 2 30 0 26 0 29 1 31-5 36-5 25-9 25-8 23-11 34-11 29-10 28-9 29-5 24 16 19 29-3 29-9"/>
<path d="M18446 43663l 0-1 25-5 24 0 25-1 27 0 28-1 29-3"/>
<path d="M18729 43676l-1 2-11 21-5 29-2 25-6 25-8 25-25-7-1-25 4-24 7-27 17-19 23-14 25-6 26-2"/>
<path d="M18854 43712l 1 0 26 1 24-5 25-8 22-15 6-25-25-6-24 6-24 13-21 16-18 19-12 24-9 25-2 28 6 25 17 19 24 8 29 5 28 0 32-4"/>
<path d="M19076 43750l 1 0 25-6 23-7 24-6 27-9 20-14 20-18 8-23-24-13-24-1-25 5-25 8-24 11-21 12-23 14-21 17-19 21-15 22-5 27 9 25 20 21 25 12 23 5 29-2 31-5 28-8 23-10"/>
</svg>
