<svg xmlns="http://www.w3.org/2000/svg" viewBox="-2796 416 20352 36040" stroke="black" stroke-width="32" stroke-linecap="round" stroke-linejoin="round" fill="none" data-xena="-558 -2630"><style>@media(prefers-color-scheme:dark){svg{background-color:black;stroke:white;}}</style>
<path d="M1094 1450l 1-1 24-13 24-17 19-18 21-22 26-31 29-37 17-21 16-23 17-23 18-25 18-26 18-26 17-27 17-28 16-28 16-28 13-28 13-27 11-27 10-26 8-25 7-24 5-24 4-31 1-25-22-15-18 24-22 42-13 25-10 27-10 30-10 31-11 33-10 34-10 36-9 38-10 38-10 40-9 40-8 40-9 41-8 41-7 40-7 39-4 37-5 36-2 33-1 32 0 29 0 26 6 45 10 34 13 26 21 23 27 8 21-16 15-23 12-32 11-39 5-43 0-43-6-44-10-41-12-36-13-28-12-21-18-20 28 3 25-5 31-13 25-15 26-19 28-23 24-24 16-19-5 28-2 27 2 25 19 18"/>
<path d="M1621 1153l-3-4-21-17-24 2 16 19"/>
<path d="M1701 1186l-1-1 27 3 28-1 25 0 7 26-16 26-17 21-17 19-17 19-6 24 26-2 23-12 27-16 22-12 23-16 22-18 20-17 19-16 19-19 12-22-16 23-4 27 9 24 12 21 14 25 8 24-4 26-21 15-26 2 27 3 28-7 28-9 25-9 28-11 25-11"/>
<path d="M2197 879l-1-1 12 27 7 28 3 26 1 29-3 33-6 34-7 24-6 24-8 26-8 28-9 29-7 28-5 27-3 34 1 28 5 26 17 17 26-1 25-14 22-20 23-26 22-28"/>
<path d="M2143 1065l-3 1 32 4 35-6 27-6 29-7"/>
<path d="M3067 1291l-1 0 19-16 20-23 16-22 19-28 19-31 21-34 21-35 20-37 19-37 15-36 12-37 7-35 2-24 0-25-5-26-15-18-23 14-15 24-15 33-12 36-9 41-6 47-4 25-2 25-2 28-2 30-2 30-1 32-1 31-1 32 0 32 0 32 1 31 1 32 3 30 2 30 3 28 2 29 4 27 4 26 5 25 8 45 9 37 9 28 12 29 24 6 10-25 6-27 6-30 3-34-1-36-4-39-5-39-7-39-10-36-10-32-10-28-10-24-13-24"/>
<path d="M3418 1219l-1-1-24-4-25 16-21 24-15 28-6 26 12 22 28 7 24-6 24-12 21-16 18-16-9-22 25-10"/>
<path d="M3539 1216l-1 0 26 8 26-1 25-1-2 26-15 26-15 26-8 25 10 23 26 3 25-9 24-12"/>
<path d="M3879 1131l-1-1-26-2-22 17-18 18-17 21-14 21-13 28 0 25 17 19 30 7 31-3"/>
<path d="M3967 1178l-1 0 25-4 27-12 23-13 17-18-17-20-25-1-24 8-22 14-19 19-13 21 3 27 18 17 31 10 29 0 32-6 32-10"/>
<path d="M4272 1086l 0-3-4-26-20-14-24-3-24 9-22 16-22 25-14 19-11 21-13 32 0 32 11 28 17 21 22 13 31 5 30-11 24-18 18-19 19-22 19-25 18-27 16-27 15-30 13-32 11-34 9-36 8-40 7-40 5-35 2-27 3-28 0-26-1-26-4-35-7-28-16-21-24-2-19 14-17 29-12 42-5 48-1 26-1 26-1 26 0 25 0 24 0 27 0 26 0 26 1 26 2 25 2 24 5 45 8 39 11 32 13 29 15 24 23 27 23 15 30 5"/>
<path d="M5175 1151l-2 2-10 24-10 36-6 30-6 36-5 38-5 42-5 43-3 43-3 42-2 40-2 35 0 27-1 25"/>
<path d="M5162 1145l 0-4 3-27 16-23 26-12 26-5 28-4 25 0 29 5 24 16 12 27-3 31-8 26-14 26-18 25-22 26-23 22-22 15-28 13-22-12"/>
<path d="M5699 685l 0 0-4 24-10 40-12 43-14 47-8 23-8 23-17 42-17 44-9 23-9 22-9 23-10 23-11 23-10 23-11 23-20 42-22 40-19 36-16 32-14 27-14 27"/>
<path d="M5862 786l 0 0-12 28-9 31-8 36-7 27-7 30-7 34-6 34-7 36-6 35-3 33-4 30 0 27 2 34 6 28 9 24 20 15 25-5 28-15 20-15 20-18 21-20 19-20"/>
<path d="M5767 1038l-2-1 22-22 30-13 32-10 35-8 24-5 25-5 25-4"/>
<path d="M814 2866l-1 0 18-23 18-21 15-21"/>
<path d="M1127 3091l 0 1 24 8 25-15 23-23 17-20 19-24 20-28 20-32 19-35 20-36 18-38 18-39 16-39 12-41 8-44 7-46 3-48 0-46 0-40-2-31-3-31-26-4-15 28-13 31-15 40-9 23-8 26-9 28-8 29-9 30-8 31-8 30-7 31-6 32-7 31-3 30-3 29-1 27 0 26 2 25 7 43 13 35 17 29 19 22 21 16 31 15 30 4 30-4 27-13 23-24 21-28 16-26 12-24 6-26-8-26 13 22 28-10 25-14 24-17 19-19 15-20 10-22-6-26-20-14-30 7-23 17-25 26-15 21-15 21-15 28-7 25 2 27 13 20 22 13 30 4 27-3 31-9 32-15 21-12 20-13 26-22 18-23 11-22 8-23-9 25 4 28 11 22 19 18 27 0 24-10 23-20 14-20 11-24 9-26 5-24 1-25-8 25"/>
<path d="M1963 2903l 2-1 27-5 26-12 22-13 22-18 19-17 15-19-4-24-25-10-24 6-27 17-22 17-21 24-18 26-12 25-6 29 6 29 21 22 28 10 30-1 35-9 25-10 25-12 25-16 24-17 21-17 19-20 17-23 16-23 15-25 12-27 12-28 9-31 8-33 7-35 5-35 3-34 4-33 2-29-2-34-5-24-14-24-22-10-20 16-13 30-8 36-4 28-1 33 0 34 3 36 6 36 6 36 10 37 10 36 13 34 14 32 13 29 15 23 15 19 24 22 24 15 24 9 31 5"/>
<path d="M774 4294l-1-3-4-24"/>
<path d="M1214 4379l 0-3 4-29-7-24-16-21-20-14-29 5-18 17-23 27-16 22-17 24-15 26-13 26-11 26-9 33-1 24 13 24 27 3 24-10 28-22 21-23 23-29 24-33 25-36 23-38 21-36 18-38 15-38 9-39 6-42 1-44-1-47-2-25-1-24-4-46-5-43-4-35-4-27-7-29-23 27-7 33-8 42-9 46-4 25-4 26-4 26-4 27-2 26-2 26-1 25 0 25 0 25 4 47 7 41 9 35 13 29 12 24 14 20 21 22 20 12"/>
<path d="M1454 4281l-1 0-25 11-17 22-13 23-10 28-5 25 2 25 18 21 25 1 25-13 19-16 20-23 11-24-1-29-15-25-19-15-24-7 21 17 25 4"/>
<path d="M1590 4313l 1 0 25 3 27-2 28-4 27-8 25-10 15-19-18-17-25 5-25 17-17 19-14 22-10 24-8 30 4 24 24 9 29-2 27-8 31-13 33-16 23-14 22-14 19-15 20-22 16-25 5-23-26 0-9 27 3 26 13 20 20 20 24 17 22 16 20 17 3 25-26 12-30 6-30 3-27 1 27-20 26-12 29-15 31-13"/>
<path d="M2050 4251l 0 0 5 25 5 26 1 33-4 27-6 27-5 24-5 24 7-25 8-23 13-26 13-27 14-25 14-24 12-21 17-25 17-24 23-11 16 19 6 30 0 24-3 26-2 25 1 28 7 26"/>
<path d="M2357 4114l-1-1-15 25-13 29-12 21-13 21-12 21"/>
<path d="M2676 3852l 0-1-4 26-5 29-6 25-6 28-8 31-9 32-9 34-10 35-10 37-12 37-10 37-8 35-7 31-3 30-2 25 3 30 11 23 21 18 32 4 30-8 23-12 24-15 24-18"/>
<path d="M2668 4153l-9-3-34-7-28-5-32-1-24 2 29-8 25-9 32-12 37-13 43-15 46-15 24-8 25-7"/>
<path d="M3533 4192l 1-6 8-28 8-27 7-27-3-26-25-5-30 13-20 15-21 18-21 20-18 21-17 20-14 25-8 25 17 18 31-2 28-10 28-14 24-15 19-16-10 27-8 30 0 35 1 24 4 26 3 30 3 33 4 35 0 38 0 39-2 35-7 36-9 34-12 33-16 29-15 25-14 20-20 22-22 8-6-34 2-31 8-40 13-47 8-25 8-26 9-28 10-28 9-30 10-28 9-29 12-28 11-26 12-25 12-22 23-39 25-31"/>
<path d="M3720 4147l 0 0-10 28-16 23-15 23-15 22-11 23-4 27 10 27 27 12 29-3 25-9 23-14 21-16 19-24 8-28-6-23-15-26-15-21"/>
<path d="M4429 3772l 1-3-5 24-3 24-2 31-3 35-3 40-4 44-6 46-9 48-5 24-5 25-6 25-7 26-8 25-8 25-8 25-8 25-9 24-8 23-15 40-11 33-10 29 18-17 18-27 25-35 25-41 14-21 13-21 14-20 14-20 26-36 24-30 20-24 17-18 21-19 18 17 2 33-4 28-4 27 0 29 5 27 23 12 24-5"/>
<path d="M4748 4134l-3 1-22 18-20 25-14 25-7 26 15 20"/>
<path d="M4808 3902l-1-1-15 20 1 29"/>
<path d="M5005 4100l 0-1-11-25-23-11-29-1-26 6-28 11-25 16-19 16-14 23 3 25 26 12 33-2 27-7 26-10 26-14 21-14-7 25-5 27-4 33-2 35 0 26 0 28 1 31-1 34-3 37-5 41-9 43-11 45-12 43-16 42-16 39-17 34-15 26-16 23-25-12-5-33 2-33 6-42 5-23 6-25 6-27 7-28 8-31 10-31 9-33 11-34 10-37 12-37 13-38 14-38 14-38 15-37 14-37 16-35 14-33 15-33 15-29 15-26 12-25 12-22 21-37 20-28 15-24 19-26 19-24 25-1 5 35 0 29-3 36-6 40-7 45-10 46-6 24-6 23-5 24-12 45-13 43-11 40-9 33-9 26-6 25 20-29 15-28 17-32 18-33 15-27 14-22 14-20 21 13 6 26 1 25 2 25 2 30 5 25 20 17 29-8"/>
<path d="M5427 4144l-1-1 29-3 26-2 29-6 26-11 20-13 15-20-2-28-22-16-27 3-27 16-22 18-20 24-15 25-9 25-1 25 6 30 16 22 28 13 27 3 31-3 34-10 25-10 24-12 24-15 23-15 19-15 21-24 12-27 2-24-5-25 16 18 26 4 26 3-12 22-19 15-21 22-13 23-5 28 6 26 28 13 33-4 30-8 35-14 26-11"/>
<path d="M6493 3732l-3-2-21-12-16 18-12 28-9 27-12 32-11 36-12 41-14 45-7 23-8 24-8 24-8 25-8 23-7 23-14 42-9 39-5 32-2 27 5 31 18 25 24 6 33-8 27-15 28-20 29-27 26-28 20-30 11-28 2-27-8-26-17-27-23-26-26-26-29-23-29-19-26-12-24-6-28 0-25 12-1 26 20 14 30 4 28-4 33-10 37-14 37-18 40-20 39-22 38-23 34-25 31-27 27-26 21-24 17-24 11-22 10-30 2-25-1-25-9 29-6 24-7 30-9 32-10 35-12 38-13 40-14 42-14 42-14 39-13 37-10 32-9 26-6 28 17 19 29-18 28-24 18-18 18-18 21-22 18-18 10 26 6 25 12 29 15 20 21 16 30 9 34 1"/>
<path d="M7069 4037l-1-3-12-23-25-11-24 5-24 15-20 18-19 22-17 25-16 24-11 27 6 25 26 5 32-8 28-11 24-14 22-18 15-20-19 15-4 25 5 26 18 18 25-11 23-18 19-18 20-17 19-20-6 23-2 28 0 26 1 26 7 24 24 7 26-16 21-22 20-25 18-28 14-26 13-27 12 28 3 24 1 24 2 25 5 29 15 20 26 7"/>
<path d="M8027 4142l-2 3-11 28-3 27 15 21 26-13 23-17 28-25 36-33 20-18 21-19 20-20 22-20 22-22 22-22 23-21 21-23 20-22 20-23 21-22 17-23 16-23 16-24 13-25 13-25 12-25 12-25 8-26 10-24 13-45 9-34 3-24-12-24-26 6-23 12-26 20-30 29-31 35-15 20-15 20-14 22-12 23-11 25-10 24-10 25-7 25-7 26-5 26-5 26-3 26-3 26-2 24-1 24 1 44 6 36 9 30 13 24 17 19 30 18 24 5 26-1 27-6 30-12 29-17 30-18 27-19 24-18 19-15 18-22 11-27-2-26-21-12-4 25 24 10 30-3 24-6 22-9 22-12 2-25-30-4-30 7-25 12-25 17-22 21-20 23-17 25-9 29 1 24 18 21 32 8 30-2 24-5 26-7 27-9 26-11 24-12 23-13 20-14 23-20 15-20 12-25 2-24-22 14-11 25-4 30 5 27 12 23 20 15 28-3 22-12 23-19 22-22 18-23 14-26 8-26 5-30-4 26 19 19 25 8 26 3 27-2 26-6 26-9 27-12 23-16 18-18 12-23-12-22-31-3-27 6-29 11-28 21-18 17-17 19-15 19-15 28-7 25 2 31 12 25 24 17 31 8 32-1 26-5 25-8 28-12 27-14 25-16 25-19 22-20 21-21 19-25 20-28 16-30 17-34 15-36 15-40 15-42 14-44 12-42 8-38 4-31-2-31-11-22-26-1-23 24-18 29-11 25-10 28-7 33-10 36-6 39-6 39-3 40-1 38-2 38 0 35 1 32 2 30 5 34 9 26 16 24 22 12 26-6"/>
<path d="M2177 5406l-1-3-16-21-24 19-17 31-12 28-14 36-13 40-14 46-6 23-7 26-5 25-6 27-5 27-4 28-5 28-3 28-3 27-3 27-1 27-2 25 0 25 3 42 7 38 7 31 9 28 10 24 15 29 17 20"/>
<path d="M2505 5411l-1-1-20 15-15 29-11 26-12 32-12 36-12 41-11 45-11 47-9 49-3 24-3 24-2 24-1 25 0 24 3 48 6 46 10 45 11 40 14 39 15 33 17 28 18 22 18 16 30 17 34 9"/>
<path d="M2844 5511l-1-1 29 13 24 12 27 15 24 21 23 28 14 23 13 27 11 28 10 29 9 29 7 31 5 33 4 35 2 35-1 34-1 32-4 30-6 29-8 28-10 30-10 30-11 28-9 27-11 33-9 25"/>
<path d="M3535 5408l-1-1"/>
<path d="M3534 5404l 0 0 26 3 20 12 20 14 23 19 27 22 25 25 21 27 19 30 10 22 10 22 9 24 8 24 7 23 5 25 4 26 2 24 0 37-2 24-3 36-7 34-10 34-9 23-11 33-11 27-12 25-14 21-17 21-21 15"/>
<path d="M1826 6566l-2 1-17 18-13 27-7 27-1 28 4 26 7 24 17 23 24 12 29-6 25-19 17-22 15-25 8-24-1-27-14-24-24-21-28-13-27 1-22 10-16 20"/>
<path d="M2306 6498l-1-1-5 27 1 27 4 28 5 28 4 25 3 28 4 28 4 26 5 26"/>
<path d="M2700 6503l 0-1 21-17 28-16 22-10 28-8 29-1 22 12 6 24-7 26-13 25-16 26-18 23-18 19-19 17-22 18 23 17 29-5 25-3 24-5 31-3 26-1 26 4"/>
<path d="M3302 6480l 0-1 9 24 3 25 3 30 1 31 1 31 3 28 3 28 2 25"/>
<path d="M3879 6470l-1 0-21 17-9 24-4 25 1 27 8 27 15 26 21 20 29 14 25 4 27-3 26-10 24-17 19-21 14-25 7-26 2-26-7-26-12-23-21-21-24-10-30 1-28 10-22 17"/>
<path d="M2460 8169l 0 0 21-17 25-10 26-3 24 3 25 1"/>
<path d="M2695 8060l 1-1 26 0 32 0 26 1 31 3 27 7 10 24-13 21-19 23-20 21-20 18-17 17-14 20-2 25 26 10 30 0 27-8 23-10"/>
<path d="M3156 7598l-1 0 24-5 25-5 25-5 26-2 25-4"/>
<path d="M3400 7455l-1 0 7 24 4 25 3 30 1 31 2 29 1 27 1 25 0 26 3 25"/>
<path d="M557 9275l-3-1-25-2-24 19-19 26-15 24-17 30-18 37-18 42-10 22-8 23-8 24-6 23-7 24-5 24-6 46-1 45 3 45 8 41 13 37 20 31 24 24 26 18 27 14 29 10 29 7 28 3 28 0 26-4 25-6 23-10 23-15 12-22-5-30-13-28-15-21-18-21-22-20-22-19-23-15-22-11-31-11-27-7-26-2"/>
<path d="M1200 9418l-1-1 5-26 22-12 28-11 29-6 29-3 27-1 31 3 24 7 19 16 0 28-12 23-22 27-19 20-21 21-23 21-25 20-23 21-22 19-19 17-18 18 29 7 29-11 34-12 23-8 25-7 25-6 23-5 35-5 30 2 27 6 28 14 17 18 5 23-3 24-11 28-19 28-15 19-19 18-21 18-23 17-25 17-27 15-28 12-28 9-26 5-35 2-28-8-22-16-13-22"/>
<path d="M2339 9322l 1-3 12-22 4 34-9 25-13 30-15 31-14 31-13 30-12 29-10 26-10 24-10 31-5 29 5 25 27 9 32-5 31-10 25-9 28-9 29-10 31-11 34-10 33-11 34-10 31-9 30-8 25-7 30-6 25-6"/>
<path d="M2488 9444l-1-1-13 30-2 35-2 28-1 29-2 28-1 28-1 29 2 28 1 27 3 26 2 24 3 34 3 29"/>
<path d="M3272 9332l 0-1 1 25 0 35-2 28-3 31-2 32-3 31 0 31-2 30 0 27-1 27-2 26 0 24 0 34 2 26 5 28"/>
<path d="M4130 9388l-1-2-11-22 22-15 29-7 26-2 29 2 30 3 31 7 29 7 27 10 25 13 20 18 8 26-11 30-15 21-21 24-26 25-27 23-26 23-27 22-29 23-29 25-30 24-29 23-28 21-25 19-22 17-25 18 28 0 22-9 23-10 24-10 24-9 25-9 26-10 29-9 32-7 31-7 31-6 28-4 36-1 30 4"/>
<path d="M5144 9289l-1-1 25-10 29-6 32-7 31-4 31-5 28-4"/>
<path d="M5175 9292l-3 0-23 10-20 20-14 20-11 26-12 28-8 29-5 26 0 25 6 28 10 24 22 14 27 0 27-5 31-8 34-8 36-7 36-4 33-4 31-2 28 0 25 3 30 5 23 9 19 21 4 27-6 26-12 21-18 23-24 23-20 14-22 14-23 13-25 10-24 9-23 8-23 5-35 6-30 0-30-5-24-10-18-18-14-25"/>
<path d="M1895 9112l 1-4 2-25 11 29 9 37 6 36 4 43 1 25 2 26 0 28 2 29 1 31 2 31 1 32 2 31 2 31 3 31 2 32 3 31 2 31 2 30 3 30 2 29 3 29 3 28 2 27 3 26 2 25 1 24 4 45 5 41 3 37 2 32 2 28 1 24 1 26-4-30"/>
<path d="M1713 10444l 0-3 3-24-22 26-12 22-13 26-12 28-11 29-9 28-8 30-5 30-3 29-1 28 3 24 9 31 13 24 23 21 28 10 29-3 29-12 23-18 15-26 0-26-9-27-20-24-20-14-27-8-24 1-23 12-7 24"/>
<path d="M1995 10403l-1-1 27-7 25-4 27-7 28-8 25-9 25-8"/>
<path d="M2031 10418l-3 1-20 16-11 25-5 29 0 24 2 28 10 23 28 2 23-6 25-11 29-10 28-6 26-3 27-1 25 0 25 3 22 9 1 29-13 30-15 24-17 23-18 23-19 22-21 21-23 17-22 13-24 9-24 2-24-10-15-20"/>
<path d="M4664 9019l 0-1 13 29 9 36 5 32 5 40 4 44 2 24 1 25 1 27 1 26 2 27 2 27 1 28 3 27 1 29 1 29 2 27 1 29 2 29 0 28 2 28 1 26 1 26 1 26 3 24 0 24 3 46 3 42 2 37 2 33 0 26 2 33 0 26"/>
<path d="M4428 10289l-1-1-8 28-12 28-14 32-12 24-12 23-12 22-17 32-13 25-8 24 9 24 26 3 26-3 29-7 25-8 26-8 26-9 26-11 24-12 21-12"/>
<path d="M4490 10441l-1-1-11 27-2 24-1 26 1 25 2 25 3 31 5 27 13 24"/>
<path d="M4719 10288l 1-1 27-7 24-1 33-2 26-3 24-5 29-7"/>
<path d="M4807 10287l-4 1-25 10-19 20-16 27-8 23-5 31 0 27 13 24 26 11 27-2 29-4 25-7 23-10 25-12 25-11 26-7 30-1 25 6 13 21-9 23-15 25-22 27-17 19-17 18-26 25-25 21-20 17-24 17-22 11-23-8-11-23-3-25 4-25"/>
<path d="M2928 9099l-1-2-5 28 0 35 0 29 2 31 1 34 2 36 2 37 2 37 1 39 2 42 1 44 0 46 0 47 0 47 0 24-1 25 0 47 0 45 0 43 0 40 0 39 0 37 0 34 0 30 0 29 2 26 2 24 4 29 5 28"/>
<path d="M2753 10346l-1-1-18 20-11 23-10 29-9 30-8 27-7 25-5 23-2 27 4 26 21 14 29-1 25-4 26-5 25-6 25-6 25-8"/>
<path d="M2842 10472l-2-1-14 21 2 26 2 32 3 32 5 32 6 29 9 26 15 28"/>
<path d="M3018 10408l-1-4 3-25 26-9 28 4 30 10 20 13 21 13 20 17 16 22-2 30-12 23-20 30-15 20-18 20-19 20-16 20-23 24-16 18 21 18 30-1 24-2 26-2 26-4 31-4 25-2"/>
<path d="M7280 8256l-2 0-28 9-21 19-18 22-17 32-12 27-11 32-12 36-10 40-7 43-4 44-1 43 3 41 6 37 10 31 13 28 17 24 19 18 22 15 24 9 24 6 26 0 24-5 24-8 30-19 20-23 10-27-2-25-16-25-28-20-24-10-25-5-25-3-24 3-32 7-26 11-18 17-3 25"/>
<path d="M7753 8312l-1 0 25-4 32-6 33-9 35-9 33-10 32-9 27-9 30-6"/>
<path d="M7836 8311l-5 2-26 16-23 18-15 26-12 22-10 28-10 29-4 29 0 25 9 25 22 18 29 6 29-3 23-5 24-7 25-7 25-8 25-6 25-6 25-4 33-2 29 5 26 8 22 10 19 18 8 24-4 30-12 24-18 25-18 18-22 18-27 19-28 17-31 17-31 15-31 13-31 12-29 10-27 9-30 11-23 15"/>
<path d="M7245 9129l-1 0-12 25-13 29-13 29-12 33-10 23-10 26-10 26-9 25-9 27-8 23-9 30-1 30 12 22 21 12 24 6 27 3 30-3 32-6 25-6 27-9 30-11 30-12 30-13 30-12 25-11 23-11 27-15 22-18"/>
<path d="M7383 9355l-1-1-8 27-3 30 1 32 2 30 5 29 5 29 9 23"/>
<path d="M7780 9171l-1-2 22-13 28-8 32-8 33-7 30-7 27-7 28-9 26-9"/>
<path d="M7915 9123l-6 4-21 15-19 16-25 24-20 24-18 25-15 24-12 26-7 24-3 27 3 25 24 14 26-4 27-6 27-6 30-4 30-2 27-1 25 1 24 4 24 5 12 23-11 27-16 24-20 24-24 23-26 25-25 20-26 16-25 11-25 6-26 0-30-5-24-12-18-20"/>
<path d="M7223 9910l-1-1-20 27-17 33-13 26-13 26-12 27-13 27-12 27-10 27-8 26-5 24-2 27 8 24 20 19 24 7 27 3 33-4 25-5 26-6 26-8 27-7 29-8 28-9 27-8 26-8 29-11"/>
<path d="M7348 10094l-1-1-8 26-5 34-3 26-3 26-2 24 0 24 3 34 5 31 5 27 9 25"/>
<path d="M7730 10087l-1-1 22-13 25 0 33 3 25 6 27 6 30 9 31 8 29 9 27 9 23 10 27 15 16 24-5 28-18 23-19 18-24 19-29 19-33 19-34 20-36 20-35 20-35 20-32 23-27 21-23 19-20 22-5 24 27 13 25 3 34-1 25-1 29-3 30-1 30-1 31-3 29-2 27-1 24-1 30 2 28 4"/>
<path d="M1265 12697l-1-1-16 26-14 29-13 22-14 24-16 26-16 26-16 28-18 28-15 28-13 25-12 25-8 23-7 31-1 24 8 25 20 14 23 6 28 2 30-2 27-4 28-8 31-10 31-10 29-10 26-8 26-8"/>
<path d="M1292 12923l-1-1 0 25 3 27 5 30 6 33 5 32 5 31 4 29 4 27 6 30 6 27"/>
<path d="M1768 12836l-1 0 10-23 23-13 29-10 30-5 25-1 28 0 27 0 25 1 27 5 17 18-10 24-18 27-17 20-19 22-20 22-21 21-21 21-22 21-21 21-22 20-20 20-20 18-18 17-23 20-21 18 24 10 29-4 32-7 32-7 30-6 27-4 25-3 30-4 26 0 24 5 6 25"/>
<path d="M1563 12587l 0-1 6 24 1 25 2 28 2 24 1 29 3 30 4 30 2 32 3 25 0 27 1 26 0 26 0 25 1 30 2 26 1 29 2 27 2 26 0 28-1 26-1 29-4 27-3 28-3 27-2 26 0 25-1 27 4 24"/>
<path d="M2335 12356l 0 0 0 29-6 32-6 29-4 34 0 35 0 26 0 27 2 28 2 28 3 28 3 30 4 30 2 31 2 31 2 31 2 30 2 33 1 34 1 37 0 37 0 38-1 37 0 36 0 35 1 34 1 31 2 30 1 26 2 33 3 27 3 29 0 25"/>
<path d="M2736 12709l 0-1 17-18 24-10 26-10 28-8 24-8 23-8 27-10"/>
<path d="M2772 12695l-2 1-18 20-4 27-2 30-1 32-2 24 1 31 2 26 4 30 4 25 27 5 23-10 22-12 25-13 26-12 24-10 23-10 24-8 25-5 25 0 26 7 15 19 2 26-7 28-15 25-14 20-18 18-19 15-21 13-29 12-27 3-27-1-28-10-23-17-16-23"/>
<path d="M329 12723l-4-1-25 2-30 10-22 18-15 22-13 33-10 30-10 37-10 44-5 24-5 25-3 25-4 26-4 25-3 25-2 25-1 24 0 46 4 39 8 34 13 27 17 23 19 18 22 15 24 12 24 7 26 2 27-1 27-7 26-10 25-14 23-16 17-18 20-27 10-26-2-31-15-21-25-16-34-9-24 0-25 3-34 7-30 11-25 12-23 17-17 20"/>
<path d="M872 12336l-1 0 0 28 1 32 1 29 1 32-1 38-1 42-1 45-3 24-1 25-1 26-1 28-1 27-1 28-2 29-1 30-2 31-1 31-1 31-3 33-2 32-1 32-2 32-2 31-1 32-2 31-1 30-1 29 0 28 0 28 0 27 0 25 0 26 0 24 0 25 1 45 2 42 2 38 2 32 3 26 4 30 5 27"/>
<path d="M1143 13411l-1 0 26 4 26 5 28 4 27 1 29-1 29 0 29 0 24-2 29-2 28-3 27-2 30-3 30-1 24 0 25 0 26-1 25-3 25-1 25-2 25-2 26-1 26 0 26-1 25-2 25-1 26-5 26-3 25-2 25-2 25-2 25-2 24-4"/>
<path d="M2343 13314l 0 0 5 26-1 26 0 24 4 26 4 28 2 28 1 27 0 24 1 27 2 26"/>
<path d="M1069 13666l 0-1 24-7 28 1 24 3 30 5 26 5 29 3 30 3 25 2 27 1 26 1 27 1 25 1 26 1 27 0 25 2 26 3 26 1 29-1 33-3 34-4 35-3 32-5 33-6 34-7 32-5 30-5 27-5 27-5 26-5 30-5 28-6 25-4 28-6 27-6 28-7 25-4 25-4 25-4 27-3 27-1 26-2 25-1 30 1 28 0 26 1 29 2 27 2 25 5 25 5 26 7 24 5 29 3 30 2 29 3 29 0 29 2 28 1 29 1 24 0 25 0 25-1 28-1 28-1 27-2 24-1 28 1 28 2 29 3 26 2 28 2 29 2 28 1 29 1 31-1 30-1 30-3 30-2 27-3 28-4 25-3 30-5 27-4 24-4"/>
<path d="M771 13628l 0-1 15-20 16-19 16-19 13 25 1 25 3 28 5 32 2 24 3 30 2 29 3 26 3 26 2 28 2 31 3 30 2 28 3 26 2 24 0 27 0 26-1 26 1 24 3-26"/>
<path d="M-105 14138l-1-1 25-8 27-2 25-2 25 2 28 3 32 2 26 0 29 1 29-2 30-2 31-3 33-2 33-2 31 0 30 0 28 2 28 3 26 2 26 3 31 2 25 1 26 2 27 2 28 1 27 2 27 2 27 3 30 0 28 0 29-3 26-2 27-3 29-4 31-3 32-5 33-3 30-5 30-4 29-3 27-3 25-3 31-2 30-2 25-1 25-1 26-1 27 0 29-1 30-1 31-1 31 0 28 2 27 3 27 1 29 3 29 1 29 1 27 1 28 1 30 0 32 0 31 0 29 0 30 0 31 0 32 1 34 2 34 3 34 4 25 3 27 3 26 4 26 3 26 2 27 2 27 3 26 2 25 2 33 1 31-5 31-6 33-5 35-3 26-1 26 1 27 2 27 5 26 4 25 5 25 5 35 6 24 3 31 4 31 5 28 3 28 2 28 0 29 0 25 1 30 2 26 2 24 4 24 4 27 3 24 1 25-1 26-1 25-4 25-1 31 2 32 1 30 2 30 3 29 0 26 2 30 2 25 1 27-1 28-2 30-2 25-1 27-1 26-1"/>
<path d="M4579 11984l 0-1-4 30-2 25-1 29 1 30 0 32 2 33 1 32 3 32 2 30 2 27 0 28 2 26"/>
<path d="M4924 11988l-1-1 8-25 20-14 27-6 25 2 27 4 28 4 24 7 18 15-7 28-15 22-20 25-22 28-20 28-18 27"/>
<path d="M5017 12295l-1 0-1 25"/>
<path d="M5863 11999l 1-2 20-15 24-7 30-2 26 2 24 5 25 10 4 25-23 18-27 17-22 15-23 14-20 17 11 22 26-2 31-3 30-3 27 2 29 9 23 12 19 16 14 19 1 25-16 21-23 18-27 16-29 15-29 10-27 8-30 6-28 0-24-4-23-13-9-27 11-30"/>
<path d="M6236 11930l 0-1 24-10 28 0 27 4 27 7 28 11 19 16 9 23-1 26-5 27-10 29-12 32-11 31-9 31"/>
<path d="M6354 12309l-1-1 26 4"/>
<path d="M-230 14428l 0-1-1 27-1 25 0 26 1 25 1 29 4 26 3 26 2 25 5 24"/>
<path d="M700 14455l 0-1-1 27-1 25 0 27-2 28 2 26 3 24 5 25"/>
<path d="M1479 14394l 0 0 3 28 5 28 6 29 5 24 4 25 3 28 3 29 2 25 5 23"/>
<path d="M2304 14404l-1-1-2 25-1 29 0 28 2 27 1 26 1 27 5 25"/>
<path d="M3308 14358l-1-1-9 30-1 31 0 32 1 29 3 26 4 26 6 28 6 25"/>
<path d="M-330 14974l-1-1 18-19 26-6 24 0 27 4 10 22-16 24-20 18 22 17 29 5 27 6 23 12 11 23-10 24-19 19-22 14-27 8-24 4-25-3"/>
<path d="M615 14974l-1-1 0-25 24-7 27 1 24 7 20 14-2 25-17 20-23 16-23 13-23 13 20 15 25 2 27 1 24 2 26 6 1 27-25 20-21 14-22 12-27 13-28 8-28 3"/>
<path d="M1457 14994l-1-1 18-18 28 3 26 6 27 11 21 14-18 23-22 11-22 11-22 10 24 15 28 6 23 9 19 17-10 23-23 16-24 9-26 6-28 3"/>
<path d="M2295 15012l 0-1 16-20 29-2 25 5 22 10 17 17-18 17-22 14 19 16 26 7 24 8 23 11 18 17-6 25-24 15-25 12-25 2"/>
<path d="M3263 14918l 0-1 21-16 30-9 27-3 26-2 29 2 22 10-9 25-25 16-24 14-26 13-25 15-20 12-20 16 20 17 30 3 25 2 29 6 26 9 24 14 19 18-8 23-17 20-24 13-27 9-24 5-28-1-25-10"/>
<path d="M6029 13287l 0-3 12-22 22-10 28-12 26-13 29-16 22-12 22-14 21-15 22-14"/>
<path d="M6108 13243l-1 0-19 19-9 27-5 26-6 29-5 28-5 25-1 26 7 26 27 6 25-10 25-11 26-12 29-12 26-9 23-7 26-4 23 7-6 26-14 22-17 26-20 23-23 21-25 19-24 15-23 10-26 8-14-23 12-22"/>
<path d="M6387 13359l-1 0"/>
<path d="M6683 13040l-6 2-24 19-17 18-14 22-15 26-14 30-12 34-10 35-9 35-8 38-5 37-2 35 2 32 6 28 12 22 26 25 23 11 24 7 26 3 35-3 31-10 24-10 20-18 2-27-15-25-22-17-32-16-22-8-24-6-24-2-33 3-31 11-21 14-15 20"/>
<path d="M6920 13206l-1-1 21-17 31-7 33-5 32-2"/>
<path d="M6937 13282l-3 0 27 0 31-5 34-8 24-6"/>
<path d="M7204 13086l 1-4 14-25 24-12 28-3 25 3 30 9 23 15 16 20 5 27-10 23-19 25-20 18-22 15-21 13-23 12 29-7 25-5 29 2 25 5 25 8 18 17-10 24-14 19-21 22-23 21-25 21-27 20-28 16-26 13-26 7-8-26"/>
<path d="M7476 13029l-1 0-5 28-8 28-8 25-7 29-3 31-1 30 2 28 12 28 18 20 29 13 28 4 32-2 31-8 30-13 30-20 18-17 17-20 14-21 11-24 7-24 5-24 0-25-6-32-11-27-17-21-21-17-27-10-32-4-35 1-25 6-23 8"/>
<path d="M8263 13144l 1 1 6 25 8 23 11 25 13 22 15 20 22 13 27-21 16-19 17-24 20-30 20-33 20-37 21-41 11-23 11-23 12-24 10-25 11-25 11-23 17-40 13-31 11-27"/>
<path d="M6413 14678l-1-3 6-24 23-16 25-9 31-7 25-5 26-4 24-2 25 2 22 9 10 27-12 27-20 23-18 18-17 20-20 20-22 20-21 20-22 20-21 19-20 20-19 19-17 17-23 23-18 17-19 17 30-9 32-14 24-9 23-11 23-10 23-9 32-12 27-9 29-6 26 0"/>
<path d="M6891 14261l-1-1-5 31 1 26 0 33-1 37 0 42 0 46-1 47 0 25-1 25 1 25 0 25-1 25-1 25 0 47 0 46 0 44 3 40 1 38 2 35 2 30 2 27 3 25 5 29 3 24"/>
<path d="M7374 14419l-1-1-21 12-14 23-15 30-9 23-11 24-10 24-13 33-9 29-6 26 0 27 13 24 27 7 29-3 34-7 24-7 23-7 24-7 24-7 25-7 25-8 26-7 24-5 31-5 25-5 26-5"/>
<path d="M7493 14549l-1-1 2 29 7 28 6 31 7 34 4 24 5 24 6 35 4 35 5 31 4 31"/>
<path d="M6148 15309l 1-1 3 25 2 28 3 25 6 30 6 29 10 25 19 20"/>
<path d="M6873 15304l 0-1 1 25 9 28 8 25 6 25 6 26 9 27"/>
<path d="M7887 15167l 0-2 4 27 3 31 4 24 5 24 5 25 5 24 3 24 4 30"/>
<path d="M6837 15843l-1-3 12-22 26-9 27-5 33-5 36-5 34-3 30-3 28 1 19 14-18 23-21 21-24 22-27 22-25 21-24 16-19 16 30 7 26-2 28 0 28 0 27 3 29 4-18 21-32 16-24 11-22 10-28 15-26 15-22 17-22 18"/>
<path d="M7822 15725l 0-2 17-22 27-9 27-6 26-4 26 0 26 3 27 8 17 18-4 29-20 23-20 17-22 15-23 19-18 17 24 10 26 2 35 1 24 2 31 4 23 6 22 13 1 25-18 16-23 13-28 11-32 10-23 6-25 6-25 4-26 4-25 5-34 4-27 1"/>
<path d="M-2537 16227l-2-3"/>
<path d="M-2131 16219l 1-3 13-24 15-19 13-20-21 15-20 24-15 21-13 20-15 25-12 21 16 21 25 0 32-2 31 0 29 3 22 14-2 24-15 26-17 20-19 20-20 17-23 16-24 5-2-28 20-30"/>
<path d="M-1846 16209l-4 1-21 15-21 17-18 17-14 20-11 22 4 28 24 14 30 2 29-7 30-14 28-17 23-18 15-22-6-26-21-16-28-11-27-6-24-4 25 9"/>
<path d="M-1699 16211l-1 0-5 27 6 24 5 26 6 25-5-23-2-29 3-26 15-22 19-16 24-14 29-10 25-6 24-5"/>
<path d="M-1458 15922l-3-1-12 26 6 27 8 33 5 25 4 28 4 31 2 31 3 32 4 32 3 30 5 29 5 26 10 29 14 21 20 15 27 2 28-15 23-20 21-25"/>
<path d="M-1491 16157l-4 0-25 4 20-14 30-15 24-11 28-12 28-11 32-11 32-11 33-10"/>
<path d="M-209 16238l-1-3 4-28 1-26-13-24-25-12-27 11-20 18-18 28-12 20-15 31-9 26-2 26 26 9 29-15 23-18 18-19 14-22-2 25 0 26 9 27 11 24 13 28 13 32 8 25 6 26 5 28 3 27 1 26-3 35-5 28-8 23-15 22-23 10-29-5-23-13-24-24-14-21-10-25-7-31 0-33 4-37 11-37 15-37 21-33"/>
<path d="M71 16100l-5-1-28-3-28 3-25 6-23 10-25 17-17 21-10 24 12 21 27 3 31-8 24-11 23-11 25-10 4 24 21 17 25-3 25-11 23-16 17-17 15-21-6 26 1 25 4 32 4 26 5 28 7 29 6 30 7 31 6 29 5 28 4 25 5 28 2 25-7-32-1-25-2-31-2-34-2-35-3-35-4-38-4-38-5-37-4-35-3-32-3-28-2-31 2-25 25-5 30 0 29 3 29 3 27 6 24 11 6 25-20 22-24 18-26 17-26 12-27 9"/>
<path d="M481 15991l 4-1 25-8-25 15-23 16 15 22 25 3 29 4 29 5 23 5 20 16-6 26-22 18-28 11-23 7-31 3-30-2"/>
<path d="M48 11760l-9 5-19 15-26 21-27 27-20 27-17 29-12 29-8 28-3 28 0 27 4 25 13 30 20 21 26 12 33 2 24-3 26-8 26-11 23-15 19-16 19-24 7-25-17-18-23-8-32-2-33 7-32 12-22 16-17 24-4 24 22 22"/>
<path d="M593 11641l-5 1-24 19-20 27-16 34-9 25-5 26-4 27 0 25 4 25 8 34 15 28 20 20 25 10 26 2 28-6 27-11 21-13 17-19-18-21-28-9-26-1-25 5-25 10-27 16"/>
<path d="M1477 11686l-1-1-18 23-12 24-10 23-10 25 5 27 17 16 28 10 30 1 28-4 32-7 31-9 29-11 25-12"/>
<path d="M1635 11688l-3-1-18 17 6 25 12 28 14 27 13 23 14 24"/>
<path d="M2263 11663l-1-1 24-9 28-4 30-3 29-3"/>
<path d="M2324 11682l-4 2-22 11-20 14 0 26 7 25 8 23 15 23 25 11 29 1 30 0 27 0 26 0 25 5 0 24-17 21-25 18-25 9-30 3-28-2-25-11"/>
<path d="M2942 11612l 1-1 18-18 22-12 23-10 27-8 23-7 26-6 24-5"/>
<path d="M3033 11555l-3 1-22 14-9 26 0 25 1 28-1 25 6 23 27 2 29-10 26-10 27-10 27-8 25-8 29-7 24-3 28 1 22 9 13 23-8 26-17 24-20 21-22 14-26 11-30 7-24 2-25-2-24-3-29-7"/>
<path d="M-2463 17243l-2-1"/>
<path d="M-2288 17516l-1 0 22-14 22-22 16-23 20-27 21-34 22-37 24-41 12-21 12-22 12-24 12-24 12-22 12-24 11-23 10-22 16-44 11-40 4-42-1-38-3-36-7-30-13-29-20-13-25 13-22 26-17 24-15 30-12 32-10 34-8 36-5 36-1 38 0 37 4 39 5 38 7 35 8 35 9 30 12 29 12 26 13 23 15 20 24 22 27 11 30-1"/>
<path d="M-1859 17336l 0-1-12-22-24-13-24 7-19 18-16 20-14 24-9 24-4 29 6 24 29 5 23-10 24-18 23-21 18-19 15-21-25-3 1 26 12 22 18 15 30 4 30-9"/>
<path d="M-1716 17269l-2-2-23-9 30-3 29-4 28-2 10 22-21 22-17 21-13 21-3 28 15 22 28 6 30-3"/>
<path d="M-1464 17276l 0-4 0-24-14-21-28-3-24 9-25 21-18 21-15 25-10 25-3 30 11 23 29 7 26-5 27-12 26-14 22-20 9-23-18 23-7 24-3 28 2 29 7 30 7 34 7 35 6 35 2 35-2 34-7 34-11 31-14 23-21 17-25 0-20-18-12-24-6-34-1-26 2-26 6-29 9-26 11-25 13-22 15-19"/>
<path d="M-1349 17317l 1-1 23-7 28-6 25-10 23-15 16-20-1-27-21-15-28-1-27 8-24 15-21 22-13 27-5 29 8 27 17 25 23 17 32 8 27 0 30-4"/>
<path d="M-823 17092l 0-1 25-8 24-5 30-5 25-5 26-5 26-5 27-5 26-5 27-5 25-5"/>
<path d="M-778 17149l-1 1 25-7 30-8 24-5 24-5 24-6 25-6 26-8 26-7 26-9"/>
<path d="M-585 16956l-2-1 33 1 33 4 34 5 32 8 30 10 25 12 23 15 16 18 3 26-13 20-19 18-24 18-25 15-27 15-25 12-23 11"/>
<path d="M89 17104l-1-4-10-22-24-8-32 4-29 7-30 9-30 13-28 12-23 11-1 24 24 8 33 6 24 2 24 2 36 4 31 3 25 7 24 14-6 24-23 24-26 19-30 17-29 13-28 10-28 2-20-16 8-27 21-29"/>
<path d="M167 17081l 1 1 8 25 1 25 1 27-1 28-2 25 16-25 19-30 13-22 18-26 20-21 25-3 7 29 3 26 0 25 3 24 20-14 22-24 22-22 21-17 20-14 26 1 14 20 12 22 15 19 21 15 32 5"/>
<path d="M690 17097l-1-2-6-24-19-15-27-3-25 8-23 15-11 22 13 21 23 7 25-4 25 1 15 21 25 9 25 0 30-7 25-9 31-14 21-13 20-15 20-18 18-20 17-22 16-24 12-26 11-27 6-27 5-28 1-29-1-31-4-30-5-32-8-30-8-28-14-30-19-20-25 7-22 21-15 22-15 28-12 32-8 38-5 40-2 43 1 45 4 42 8 37 11 33 14 27 17 20 26 23 28 11 29-1 32-13 22-15 21-20 19-24 16-26 13-30 11-33 8-36 5-38 4-41 2-43 0-44-1-43-4-39-5-33-6-25-15-25-28 8-17 19-13 28-9 35-2 27 0 30 1 31 5 34 5 36 6 39 6 38 7 39 6 36 8 33 9 31 9 25 10 24 17 27 20 24"/>
<path d="M2884 16735l-2-1-6 27-1 27-1 31-1 33-1 35 1 37 0 35 2 35 3 33 1 27 4 25 4 28 11 25"/>
<path d="M2892 16698l-1-2-1-24 23-15 30-10 25-8 30-6 34-6 37-5 39-3 39 1 37 4 34 10 31 14 27 18 21 23 17 25 10 27 6 28 1 30-6 33-12 31-18 31-22 30-26 30-30 30-30 28-34 25-35 22-32 18-33 15-30 12-26 8-31 3-25-10 0-25"/>
<path d="M3600 16613l-3-3-22-11-26-7-28 1-32 9-33 13-23 10-29 18-24 19-15 20 14 22 28 13 28 6 32 6 37 3 37 3 38 4 35 5 34 6 30 6 28 6 25 7 28 10 18 18-1 27-12 21-25 27-23 19-25 19-26 18-29 17-27 15-28 13-27 11-24 6-34 4-27-3-26-17-8-29"/>
<path d="M4004 16549l-2-1-22 12-3 27-2 28 3 33 7 37 6 25 7 25 10 25 11 23 18 30 22 24 21 17 25 9 28 0 33-8 22-11 24-15 23-18 21-20 20-23 17-24 15-26 12-30 10-30 9-32 6-32 3-31 0-30 0-25-5-25-13-21-23 11-5 27 3 25 8 29 8 34 7 24 5 24 5 26 7 26 5 25 6 24 10 33 12 30 14 26 16 25 20 22"/>
<path d="M2569 17780l-1 1-4 25 11 23 25 7 28-9 25-18 19-19 19-24 21-26 21-29 21-32 19-31 14-32 11-33 5-33 2-34-2-35-5-34-5-31-7-25-10-23-28-3-20 27-12 22-11 27-10 33-10 35-7 37-5 41-3 40 1 42 2 41 5 39 6 35 9 31 11 29 11 24 14 21 21 22 25 10 26-1 27-14"/>
<path d="M2949 17715l-2-1-26-6-24 13-19 23-16 26-12 27-6 26 19 16 24-10 26-18 21-20 14-23-7-24-8 24-1 25 16 18 24 6 24-3 27-10"/>
<path d="M3076 17680l-1-1 22-13 27 0 25 6 0 26-17 23-15 20-13 25-9 23 20 17 30 1 30-11 24-12 23-16 21-17 22-20 15-23 3-27-16-22-24 7-16 18-12 21-13 29-7 26 5 24 27 11 25-6 24-13 20-17 16-21-14 20-1 30 3 24 7 26 6 26 5 28 4 34 0 33-4 30-8 29-13 28-17 26-20 21-24 14-26-3-18-19-8-23-4-28 0-33 7-36 7-26 8-27 13-24 14-23 14-21 17-19"/>
<path d="M3354 17721l 0-1 26 1 28 0 26-6 24-12 17-19-10-22-25-5-26 9-19 16-16 22-10 22-3 24 5 26 14 20 23 11 25 1 32-3"/>
<path d="M3683 17507l-1-1 27 5 24 2 29 0 29-2 28-4"/>
<path d="M3692 17600l 0-1 26-5 24-5 29-8 30-10 33-12 32-10"/>
<path d="M3867 17417l-3 1-16 18 21 17 24 13 23 7 26 5 24 6 28 9 28 11 24 16 5 25-19 24-19 18-21 19-22 17-21 16-21 16-22 16"/>
<path d="M4131 17596l-1 1 7 24 14 21 11 25 5 25-4 25-11 25-6-30 6-26 8-30 12-31 14-28 16-23 21-24 22-18 22-8"/>
<path d="M4343 17583l 1 0 26-4 24-7 25-8 23-12-12-23-28 0-29 6-26 10-20 14-14 21-9 27 5 25 16 24 23 12 31 7 25 0 27-4 26-8"/>
<path d="M4548 17534l-1-1-17 21 0 29 1 27 1 30-1 32-1 34-1 33-3 31-4 33-7 33-3 28 0 28-3-30 0-32 2-37 1-28 4-30 3-30 3-28 6-25 6-31 9-25 17-18 25-10 25-2 29 1 28 5 25 11 20 16-10 25-21 14-22 10-31 9-24 4-32 3-31 0"/>
<path d="M2570 18515l-1-2-1 29 4 29 4 25 5 26 5 27 4 27 3 27 1 27-10-29-4-31-3-34 1-34 1-28 6-30 11-24 18-21 25-20 26-13 31-10 25-5 25-4"/>
<path d="M2836 18582l-1 0 26 0 25-11 21-12 25-19 16-19-18-18-25 0-29 8-27 14-22 18-15 23-7 26 0 29 6 29 13 25 19 18 28 9 26 0 31-5 32-11 31-15"/>
<path d="M3072 18557l-1-1-25 12-8 23 2 27 3 25 7 30 8 33 5 24 5 25 4 26 4 26 3 25 2 34 0 31 1 24-11-28-3-25-1-25 0-26 1-28 1-28 2-27 2-25 5-32 6-26 8-23 12-24 17-20 22-13 26-5 30 1 26 9 22 15 9 26-10 23-19 26-20 17-22 15-27 12-27 6"/>
<path d="M3506 18438l-1-1"/>
<path d="M3532 18429l 6-1 26-4 32-6 26-5 29-4 27-4 28-4 24 1"/>
<path d="M3504 18512l 0 0 26-1 25-1 25 0 29-2 26-3 30-5 28-7 29-7 25-8"/>
<path d="M3738 18341l-1-1 24 7 24 7 28 5 29 6 25 5 25 8 11 23-11 29-14 23-19 25-20 24-22 24-22 21-18 18-18 16"/>
<path d="M4155 18402l 0-1 12 21 5 24 2 28-1 31-4 31-2 27-3 29 0-26 3-31 4-30 7-28 8-26 15-28 17-22 18-16 21-12 28-6"/>
<path d="M4470 18376l-2-1-18 20-5 31 0 29 1 27 3 26 5 29"/>
<path d="M4498 18282l-2 0-17 18"/>
<path d="M4699 18375l-1-4-17-21-25-9-24 4-21 12-20 17-19 22-15 22-10 24-3 31 10 26 27 7 32-8 30-16 19-14 25-21 17-18 12-23-13-21-20 15-9 25 3 29 10 27 13 30 13 23 14 26 12 26 10 30 8 27 6 28 4 28 0 27-5 25-9 23-15 20-20 16-29 14-25 2-31-7-25-15-23-23-15-22-12-25-8-28-4-32-1-33 2-35"/>
<path d="M4807 18027l-1-1 4 30 6 29 7 35 6 26 6 27 4 29 4 29 2 30 1 29 0 27-2 26-3 34-4 25 13-27 16-31 15-28 15-23 17-23 18-19 21 18 5 27 4 31 3 31 4 29 4 29 16 20 29-8"/>
<path d="M5123 18042l-1 0 1 29 2 29 0 34-1 28-2 29-3 30-5 30-2 30-3 29-1 26-1 34 3 28 9 30 14 26 26 14 25-6 25-11 27-15"/>
<path d="M5081 18313l 2-1 30-13 30-11 23-8 24-9 25-9 24-8 23-8"/>
<path d="M7422 18406l 1-4 15-24 23-13 24-8 28-5 30-3 35-1 24 1 24 2 25 4 34 6 26 10 21 17 5 27-14 24-17 20-25 23-30 24-35 25-37 24-37 25-37 25-35 25-32 22-30 23-25 20-17 17-18 23-7 26 12 21 22 15 29 5 26 1 31-2 35-5 39-7 43-9 45-11 24-5 24-7"/>
<path d="M7902 18581l 0 0 28 0 26-1 33-4 29-4 37-2 26-3 28-1 31-1 29-1 29-1 31-1 28-2 29-3 27-2 33-6"/>
<path d="M8291 18462l 1-1 27 0 29 1 36 1 25 2 24 2 34 4 29 6 26 8-1 28-22 16-30 18-30 16-29 16-26 16-22 16-20 19"/>
<path d="M8818 18327l-2-1 28 1 33 1 25-1 25-1 25-3 25-2 33-3"/>
<path d="M8911 18316l-4 1-25 10-17 18-11 25-5 25-4 33-5 29-6 27-4 28 2 28 17 17 23 5 25-1 27-4 29-4 28-1 28 1 24 3 29 5 26 8 24 9 5 24-17 20-19 17-21 15-27 14-23 11-23 8-26 8-26 5-25-6-19-14"/>
<path d="M6530 18750l-2 3-17 22-19 27-18 29-15 29-15 27-12 22-10 23 9 23 30 1 33-4 34-6 26-6 27-6 28-8 25-7 24-8 31-10 25-8"/>
<path d="M6673 18845l 0-1-17 24-12 24-10 29-8 33-8 23-8 24-7 25-8 23-6 34-4 30 7 29"/>
<path d="M6941 18786l-2-1 20-21 21-12 23-14 26-13 26-16 26-16 26-15 25-14 24-13 25-13 21-11 28-15"/>
<path d="M7215 18550l-1-1 22 10 21 17 18 16 12 23 0 25-9 23-12 21-15 24-17 23-20 22-18 21-17 25"/>
<path d="M5321 19242l-1 0-22 20-13 26-11 23-13 25-14 30-15 32-15 35-15 37-14 38-11 40-10 41-6 39-2 38 1 36 6 31 10 26 18 29 26 15 31 5 33-5 30-15 26-23 20-29 11-31 1-28-10-24-20-21-30-18-31-13-33-3-33 5-29 12-24 18-15 21-2 27"/>
<path d="M5687 19410l-3-1-25 3 26-1 27-15 27-17 22-13 22-15 24-15 26-17 25-17 25-16 25-15 22-14 28-17 20-14 20-16"/>
<path d="M5934 19188l-1-1 26-4 30-3 28-3 28 2 29 4 24 6 20 16 8 23-4 26-12 29-13 25-18 26-20 26-20 27-18 28-15 27-11 25"/>
<path d="M-1013 19702l-6 6-25 26-21 26-19 27-16 26-15 30-12 33-10 34-5 33-1 32 2 29 7 26 9 22 21 25 26 16 32 6 24-1 28-7 30-10 31-15 29-17 25-19 20-19 17-23 4-25-12-21-26-19-26-10-31-2-31 3-29 8-27 13-24 13-24 15"/>
<path d="M-651 19534l-1-1-2 30 2 34 0 26 0 30 0 33-2 35-1 38-1 38-1 38-1 38-1 37-1 34 0 33 0 29 1 27 1 25 3 27 5 26"/>
<path d="M-1161 20260l-1 0 21-13 28-2 29 4 29 2 25 3 25 2 25 1 28 1 30-1 33-2 35-3 25-1 25-2 25-2 26-1 35-1 34-1 32 0 30-2 27-1 30-1 29-3 29-5 27-6 23-5 25-6 25-4"/>
<path d="M-412 19700l 0-2-17 26-10 30-7 23-10 34-10 35-11 30-7 28-7 29 2 26 25 12 24 2 32-4 29-6 32-9 32-12 29-13 22-14 20-17"/>
<path d="M-376 19850l-1 0 0 28 5 26 5 25 3 25 4 27 5 27 5 26"/>
<path d="M846 19812l 0 0 29-4 27-4 28-3 30 0 25 1 30 4 22 11-8 24-18 20-26 24-21 16-23 15-23 14-22 15-22 15-21 13-26 20-21 17-19 18 22 12 31-4 30-7 32-8 33-8 35-7 32-7 33-6 29-6 26-6"/>
<path d="M1226 19662l-1-1 3 27 7 31 5 35 3 26 4 25 3 27 3 29 3 30 3 30 1 30 2 28 1 27 2 25 2 32 2 30 5 24"/>
<path d="M1462 19779l-1-1 24-10 25-5 24-3 25-4 27-4 25-6"/>
<path d="M1559 19747l-4 0-26 10-20 19-14 24-7 26-2 25 11 22 24-2 27-6 28-6 26-5 29 0 25 8 22 13 16 19-9 28-15 20-25 19-26 15-31 15-22 10-23 7-31 8-25 2-26-6"/>
<path d="M629 20277l-1 0 25 6 29 1 25-1 31-2 28-2 31-3 31-4 32-3 33-3 32-2 32-2 30-1 30-2 30-1 29-3 29-4 26-5 29-4 31-6 32-5 32-5 30-5 29-3 26-2 25-2 33-2 25-1 25-2 26-1 26-2 25-2 31-4 30-2 28-2 29-4 27-5 26-5 24-5 25-4 27-5"/>
<path d="M-1197 19715l 2 1 19 27 23 25 22 15 30 11 37 8 45 5 25 1 27 1 28 0 29 0 31 0 33 0 34 0 34 0 36 0 36 1 38 1 37 3 38 2 40 4 38 4 40 5 42 7 40 8 41 7 42 10 42 10 42 10 43 11 42 12 43 12 43 13 46 14 46 13 45 13 47 15 48 14 49 14 49 14 50 15 51 15 51 14 52 14 53 15 52 14 54 13 54 15 54 13 54 14 54 13 55 13 54 13 54 13 54 12 53 12 53 10 51 11 51 11 48 10 49 10 46 10 46 10 44 10 42 10 42 10 39 9 38 9 36 9 35 8 33 9 32 7 30 7 29 7 29 5 27 5 25 5 23 5 43 8 36 7 27 7"/>
<path d="M-1051 20521l-3-7-11-24-12-24 25-19 25-10 34-12 43-16 24-9 27-10 30-9 32-11 34-10 36-12 37-11 39-12 41-13 42-12 43-13 45-13 45-14 47-13 48-13 48-14 49-13 48-14 50-13 49-14 49-13 49-13 49-14 50-14 50-12 51-14 50-14 51-14 51-15 53-15 52-16 54-17 55-17 55-18 56-18 56-17 57-18 56-19 57-18 56-18 56-17 56-18 55-16 55-16 55-17 53-16 52-15 50-14 48-13 47-11 45-12 44-9 41-8 39-7 38-6 36-5 34-4 32-3 31-2 28-1 28-1 26 0 48 3"/>
<path d="M6067 13985l 1-4 19-19 27-13 27-5 30 3 24 13 16 19 2 29-16 26-24 23-20 17-24 20-28 21-29 22-29 21-25 19-18 17-19 19 28-12 25-15 22-13 25-14 29-16 33-17 36-18 40-17 41-16"/>
<path d="M6875 13782l-1-1-16 25-14 22-16 25-19 27-18 27-17 26-13 23-10 25 10 22 29 4 25-3 32-7 24-5 25-6 25-7 26-6 24-7 24-6 29-9"/>
<path d="M6932 13923l-1-1-10 26-1 26 0 29 4 30 4 31 7 30"/>
<path d="M7894 13780l 0-1-19 20-17 24-20 29-16 31-12 21-10 22-16 33-7 27-4 24 11 24 27 8 33 1 31-4 36-5 26-5 26-5 25-7 25-6 34-9 27-6 26-6"/>
<path d="M8002 13893l-1-1-8 30 0 27 4 28 6 27 6 25 7 23 10 29 9 25 7 28"/>
<path d="M2074 21895l-1 0-3 26-4 30-3 28-5 28-5 27-4 25-3 25 1 28"/>
<path d="M2203 21940l-1-1-16 20 2 25 8 28 14 26 21 21 26 12 30-1 28-9 29-15 26-21 22-24 12-24 5-24-2-25-9-24-15-20-23-16-29-3-27 8-24 16-18 18-13 26"/>
<path d="M2061 22444l-1 0-24 17-23 22-23 23-18 19-20 20-25 25-28 27-32 31-18 16-18 17-19 19-20 19-21 20-21 22-22 23-22 23-22 24-23 25-24 26-24 26-23 27-25 28-25 29-25 29-25 30-28 32-26 32-27 34-28 34-28 34-27 34-28 35-27 34-26 33-25 32-25 32-24 31-24 31-22 29-23 30-21 29-21 29-21 29-21 28-21 28-22 29-23 30-25 31-24 29-24 29-24 27-21 27-19 23-18 20-25 32-18 25-14 20-15 23-15 20 22-16 22-20"/>
<path d="M421 24309l-1 0-12 26-8 25-9 30-12 33-10 32-9 30-5 25-2 25 7 26 20 15 25 5 25-1 32-6 28-10 28-14 27-15 26-15 23-13 23-17"/>
<path d="M549 24434l-1 0-16 21-8 31-5 32-3 24-2 24-3 24-1 33 1 30 4 25 6 26"/>
<path d="M2173 22487l-1-1 16 20 13 25 14 35 10 26 11 29 12 30 12 33 13 34 14 33 13 34 15 33 15 32 15 32 16 32 17 31 16 31 16 32 16 33 13 34 15 36 15 37 14 40 14 40 13 42 13 41 13 41 12 39 10 35 10 35 10 32 9 33 10 32 9 31 8 32 8 31 8 31 7 30 8 28 8 27 7 27 7 26 9 25 8 22 12 33 12 31 12 29 12 27 10 22 8 25 9 22 10 26 10 23 8 22 6 25"/>
<path d="M2625 24499l-1-4-6-27-15-22-26-13-28-1-25 8-28 15-20 18-20 24-16 29-13 31-8 28-2 26 20 19 29-2 28-15 22-18 20-20 15-22 14-23-9 25-1 25 1 29 0 26-2 28-2 26-1 29 0 27"/>
<path d="M2425 22278l-1-1 22 22 20 17 27 20 20 16 22 17 26 20 27 20 30 23 32 23 34 24 37 26 39 28 19 15 20 16 21 15 21 17 21 17 22 18 21 19 22 19 23 19 23 21 23 20 24 21 23 22 23 21 25 22 24 22 25 22 26 23 25 24 25 23 26 25 27 24 26 24 26 25 27 24 26 26 27 25 27 26 25 26 28 26 27 27 28 26 28 25 29 26 28 26 29 27 29 26 28 26 28 28 28 26 27 27 26 27 27 27 26 27 25 28 26 27 25 26 24 26 23 27 23 27 21 25 23 26 21 25 20 25 19 25 20 24 17 24 18 23 17 23 15 22 15 22 13 21 24 40 21 39 18 36 17 33 15 29 10 26 10 24 10 31 5 24 5 24-23-7"/>
<path d="M4420 24592l 0-5 6-25 1-30-8-25-15-20-25-18-23-10-26-5-29 0-27 6-25 12-21 16-16 20-11 30 3 28 20 24 27 15 24 6 27 5 29 2 30 1 30 2 27 0 33 5 24 5 19 17 0 25-12 22-21 26-20 17-22 15-23 15-22 13-23 11-29 9-30 1-23-10-11-21 3-25 8-32 10-23 12-25 16-24 18-24 19-22 19-20 18-17"/>
<path d="M2547 25006l-1 0-15 21-14 20-14 20-12 21-11 22-8 22-9 25-10 28-12 28-12 28-11 27-12 29-11 28-10 22-11 26-13 31-10 25-13 26-15 27-15 26-16 27-12 24-12 23-10 23-14 30-11 30-12 30-13 30-10 30-11 27-10 26-12 27-11 31-13 32-9 30-9 28-9 26-8 25-7 30-6 28-9 27-11 27-9 27-12 30-9 22-10 24"/>
<path d="M1851 26564l-4-1-27 7-16 20-13 28-9 25-8 30-9 35-6 35-5 38-3 37 0 37 2 35 5 30 7 27 10 23 20 28 24 20 27 11 28 2 26-6 24-12 18-19 14-22 9-30-7-26-19-21-22-12-25-7-24-3-30 5-22 10-12 20"/>
<path d="M1738 27300l-1-3-28 7-17 30-13 25-15 31-17 36-20 40-21 43-11 22-11 23-12 25-12 25-13 25-13 26-12 27-13 27-14 29-13 29-14 30-15 31-15 31-15 31-16 31-17 32-16 31-17 31-17 31-16 30-16 30-15 28-14 27-14 25-13 25-13 22-20 36-17 27-17 26"/>
<path d="M1004 28584l-1-1-7 26-2 26-1 31 1 34 1 35 2 35 1 33 4 28 8 29"/>
<path d="M1883 27319l-1 0 11 26 11 28 10 25 13 27 15 32 17 36 18 39 21 41 12 22 12 22 12 21 14 23 13 24 13 25 15 25 13 24 14 25 14 25 14 24 13 25 14 23 13 24 14 23 14 22 12 23 13 22 12 22 13 21 12 20 23 40 20 38 17 35 14 32 12 27 9 23 9 26 8 24"/>
<path d="M2265 28572l-1-1 16-18 27-7 30 0 27 5 21 17 6 24-2 25-8 27-10 26-10 23 22 17 25 2 25 6 23 8 23 10 19 15 2 29-3 27-8 28-9 28-14 28-15 20-20 16-26 14-31 10-34 2-25-2-26-7-25-8-23-10-27-10-25-10"/>
<path d="M2142 27060l 0 0 22 21 18 20 23 23 18 17 23 18 27 20 30 21 33 23 35 25 38 26 21 14 21 14 22 14 23 15 22 15 23 16 24 16 23 16 23 17 23 17 24 18 24 17 24 18 23 18 23 18 23 18 22 17 22 18 22 17 20 17 20 17 19 17 36 31 34 32 33 30 33 31 32 29 31 27 30 25 27 23 26 23 26 23 25 20 23 19 21 16 29 21 25 21 25 20 20 18 17 21 18 19"/>
<path d="M3233 28323l 0-1 4 27 3 30 1 25-1 25-3 26 0 29-2 29-1 29-1 25 1 24 6 23"/>
<path d="M3418 28326l-1 1-6 25-1 24 3 31 3 25 3 28 4 27 3 25 3 27 6 23 7 24 7 25 10 25"/>
<path d="M3425 28924l-1-1-6 29 1 26 2 31 2 36 2 39 2 39 2 40 2 39 2 38 2 40 3 41 2 41 3 41 1 41 4 39 3 37 3 34 4 31 2 25 4 33 2 25"/>
<path d="M3323 29856l-1-1 14-20 28-8 25-5 25 1 25 7 20 17 6 26-5 28-8 25-13 27-16 28-18 27-19 24-18 22-20 23-17 19 26 4 31-5 29-4 30-2 29-2 27 0 24 2 26 3"/>
<path d="M3885 28757l-1 0 25 18 27 18 25 18 31 20 24 15 27 14 29 17 32 20 34 24 36 30 35 31 18 17 19 17 19 17 19 18 19 19 20 18 19 17 19 18 20 16 20 17 19 17 19 15 20 15 37 30 20 15 36 29 34 26 32 28 31 27 29 29 26 29 28 27 24 28 23 26 25 25 22 25 22 24 19 22 17 20 22 25 20 20 19 23 19 18"/>
<path d="M4842 29864l-1 0-3 25 5 25 5 26 4 25 3 25 3 25 3 25 2 25"/>
<path d="M4974 29881l 0-1 21-15 25-3 27 5 22 18 14 26 5 27 0 28-4 29-10 27-13 23-16 22-15 19 25-1 27-8 28-6 28-6 28-4 27-3"/>
<path d="M4932 30444l-1-1-18 25-15 30-12 25-14 30-16 35-18 37-21 42-10 22-11 24-11 22-11 25-11 25-10 25-10 25-10 26-10 25-11 26-10 26-9 25-10 25-10 25-9 25-8 22-10 24-8 23-15 43-15 39-12 36-13 36-12 36-10 33-12 31-9 28-9 26-10 25-8 23-9 29-8 28-10 23"/>
<path d="M4264 31694l-1-1 27 0 28 4 30 5 31 3 24 3 32 2 25 1 28-1 20 16-5 25-5 28-7 30-6 32-7 34-4 25-4 25-3 25-4 26-3 25-3 24-4 33-5 29-3 25 0 27-3 26"/>
<path d="M5237 30438l-1-1 20 25 17 22 20 28 14 22 16 24 17 29 18 30 18 34 20 34 20 36 18 36 21 37 20 39 21 40 22 42 21 42 22 42 21 44 10 22 11 22 11 22 11 23 11 23 12 24 10 23 12 22 11 23 10 22 20 43 19 41 18 38 17 35 15 31 12 26 11 23 16 30 16 27 12 25 13 28 13 24 12 23 10 22"/>
<path d="M5728 31960l-1 0 25-1 27-8 28-8 25-7 25-6 26-5 28-4 24 0"/>
<path d="M5749 32019l-2 1-20 20-12 24-7 26 0 28 3 27 25 10 28-9 26-10 25-8 29-5 27-2 28 2 21 16-5 26-8 23-9 27-10 30-10 29-10 27-12 24-13 25-15 23-23 12-26-1-22-11-23-13"/>
<path d="M8694 21605l-1-1-4 30 0 26 2 32 5 36 3 25 4 26 6 35 7 32 7 28 7 24 8 26 9 23 6 24"/>
<path d="M8748 22208l-1-1-3 27 0 30-1 28-2 33-1 25-2 27-1 28-3 30-2 32-3 31-1 31 0 31 1 32 0 32 1 33 3 31 1 29 3 27 4 28 3 29 3 29 2 29 3 30 2 27 3 26 4 24 3 31 5 31 4 30 4 31 5 28 3 26 4 26 3 26-3-24"/>
<path d="M8761 23355l-1-1-10 30-7 27-5 35-2 25-1 28 0 30 1 29 3 28 4 27 6 23 12 33 12 29 13 24 15 21 19 19 24 17 25 7 27-2 10-25-10-27-16-23-18-18-21-11-25-1-22 10-17 22-10 28-8 30-6 28"/>
<path d="M8780 24060l 0-1-26 15-17 19-22 26-17 21-20 23-22 26-23 30-24 32-28 36-15 19-16 20-16 21-15 22-17 22-17 23-16 22-18 22-15 21-17 22-17 23-16 21-17 21-17 20-17 22-19 21-17 20-18 21-16 20-17 19-17 20-32 35-28 32-24 28-21 25-18 21-23 26-17 20-17 20"/>
<path d="M7937 25150l 0-1 24-13 24-3 28 2 23 9 18 17 4 27-5 25-10 23-12 23 14 21 24 8 24 3 27 3 22 10-2 24-9 26-12 23-17 22-20 14-26 6-29-3-26-12-22-22-14-23-9-26"/>
<path d="M8927 24205l-1-1 1 30 6 32 4 29 6 33 5 36 5 40 5 41 5 42 4 42 4 40 5 40 4 36 3 34 2 31 1 29 1 27 1 25 0 30 2 25 4 25"/>
<path d="M8881 25093l-1-1-4 31-1 30 0 34-2 33-1 34-2 32 0 28 1 30 9 23"/>
<path d="M9026 25137l 0-1-1 31 2 31 1 25 2 26 3 27 5 25 7 27 10 23"/>
<path d="M9114 24015l 1-1 22 12 27 14 26 16 21 12 24 13 28 15 32 15 34 16 36 19 38 20 39 22 40 23 39 25 40 26 39 27 20 15 19 15 19 14 36 30 36 31 34 32 32 31 30 32 27 30 25 28 24 25 23 25 22 23 19 22 17 20 22 24 19 19 19 18"/>
<path d="M10208 24853l-4-3-22-22-24-12-29-3-24 6-26 13-28 18-26 25-20 28-11 29-5 24 8 23 23 9 27 1 32-7 30-13 25-16 22-19 14-20 12-24 5-23 5 29 5 31 6 33 6 36 3 24 3 25 2 25 2 34 2 30 3 25 6 26"/>
<path d="M10406 25478l 0-1 26-3 21 13 20 20 17 24 16 30 11 23 11 25 13 25 14 25 13 26 14 27 13 25 14 26 14 26 16 30 16 30 18 31 19 32 18 31 18 31 19 30 17 30 17 28 19 25 17 23 19 22 18 22 17 18 24 26 23 23 22 23 20 23 16 21 16 22 14 21"/>
<path d="M10872 26514l-1 0 7 29 4 28 1 34 0 35 0 34-1 32-1 30 0 27 2 25"/>
<path d="M11035 26604l-2 1-18 21-6 29 0 26 7 27 10 25 15 22 18 16 27 13 31 4 32-4 22-11 21-19 19-24 15-27 12-30 4-30-3-30-12-28-19-25-23-17-25-8-26 2-24 8-23 15-19 20"/>
<path d="M11049 27065l-1 0-4 29-4 27-5 33-5 28-7 32-8 37-11 39-13 41-14 44-16 44-16 44-15 43-12 41-11 39-9 35-8 33-7 28-5 25-5 29-4 26 16-21"/>
<path d="M10719 27946l 0-1-5 30-4 32-6 26-6 26-5 25-4 26-1 24 3 26 17 20 25 5 32-3 29-5 27-6 25-6 29-6 26-10 23-14"/>
<path d="M10847 28076l-2 1-16 21-6 29 0 30 2 24 3 27 3 27 5 27 5 27"/>
<path d="M11211 27093l 1 0 25 15 23 17 19 16 21 19 22 23 24 26 25 28 27 30 29 32 28 34 27 36 25 37 25 38 23 38 22 38 22 37 21 35 20 32 18 30 18 29 16 27 15 24 15 23 15 20 16 25 17 23"/>
<path d="M11944 28024l-1-4-3-29-7-26-18-18-25-7-32 0-25 8-28 14-18 16-18 16-14 24 0 24 18 25 21 15 22 13 26 9 23 9 25 8 23 8 23 10 18 21-1 30-8 28-15 28-17 26-20 20-21 13-25 8-27-3-19-15-6-30 5-27 10-34 10-24 13-23 13-25 15-24 16-23 16-22 16-18 21-24 18-16 22-12"/>
<path d="M9012 25808l-1-1 22 13 21 21 17 23 12 21 13 23 12 25 13 29 14 32 14 34 14 36 17 36 17 37 17 37 17 36 17 37 18 36 17 36 16 33 14 32 15 30 14 28 13 29 11 28 10 26 9 23 10 30 10 25 8 24"/>
<path d="M9398 26834l-1-1 25-3 28 3 32 8 30 10 25 12 21 13 9 27-17 25-24 21-26 16-29 15-29 15-25 17-20 16-17 17 16 20 26 0 31-5 30-7 25-8 24-9"/>
<path d="M8751 25688l-2 0-22 15-23 20-24 19-20 16-23 17-25 21-30 23-33 25-37 27-20 14-20 14-22 15-22 15-23 16-23 17-24 17-24 16-25 18-25 18-25 18-25 18-25 18-24 17-25 18-23 17-24 17-23 18-23 17-21 18-21 17-22 18-21 18-20 18-20 19-19 17-18 18-18 17-32 34-30 31-28 30-25 26-21 22-23 24-18 18 17-18"/>
<path d="M7470 26789l-1-1 6 26 5 34 4 27 3 28 6 28 4 28 6 26 6 25 7 31 5 26 4 24"/>
<path d="M7618 26863l 1-2 21-19 24-10 25-4 25 1 26 13 17 22 0 29-7 26-10 22-15 21-18 17 21 13 27 4 27 1 30 2 24 1 28 0 30-1"/>
<path d="M7489 27274l-1-2-25 6-16 27-14 24-15 30-18 34-20 42-12 23-13 23-12 25-13 27-15 28-15 29-15 29-15 30-15 31-15 30-15 32-14 30-15 31-13 30-14 31-13 30-13 30-13 29-12 30-12 28-11 28-12 26-11 25-10 24-10 23-17 41-15 34-12 27-10 28 27-13"/>
<path d="M6683 28563l-2 0 22-16 23-10 26-10 28-10 27-6 25-4 30-1 24 3 21 12 2 27-6 24-9 30-11 30-11 32-10 35-7 23-9 34-7 31-2 24 2 26"/>
<path d="M7658 27430l-1-1 18 19 17 23 12 22 13 25 15 28 17 30 16 31 19 33 20 34 20 32 20 33 18 33 18 34 18 34 19 35 18 35 19 35 21 34 22 30 22 27 22 25 22 25 21 22 20 21 18 18 23 23 17 19"/>
<path d="M7988 28518l-1-1 25-13 24-7 26-8 26-6 24-5 25-5"/>
<path d="M8043 28517l-2 1-22 15-18 25-14 26-12 26-4 26 12 22 26 6 25-3 27-5 26-6 29-5 24-4 26-4 29 0 25 5 20 16 6 28-6 31-11 25-14 24-18 22-23 21-28 19-22 10-24 8-25 6-34 2-34-3-29-8-27-10-27-12-21-12"/>
<path d="M9090 21855l-1-1 23 15 24 4 27 4 24 4 27 5 26 9 29 11 30 10 23 7 25 6 27 7 27 8 30 10 32 10 33 12 24 8 26 7 29 7 33 7 32 6 33 8 33 8 33 9 32 10 32 13 31 13 32 14 33 16 30 16 31 18 31 18 29 20 30 20 30 21 29 22 30 21 29 22 28 23 29 24 30 27 29 27 30 28 29 26 30 26 29 28 28 27 27 29 27 28 28 28 29 30 28 30 29 30 29 31 29 30 30 29 29 29 28 29 31 30 30 28 32 28 33 26 32 28 32 27 31 28 30 29 32 30 28 31 27 32 28 31 26 32 26 33 27 34 27 33 27 33 28 34 29 33 27 33 25 34 27 35 26 36 25 37 26 37 25 37 26 38 27 37 26 38 27 38 25 36 27 36 25 36 26 36 25 37 24 37 25 38 23 39 23 37 22 39 22 39 22 38 21 38 22 38 20 37 19 38 19 38 19 41 19 42 17 42 18 44 17 44 15 44 16 43 15 43 14 41 15 41 15 40 16 40 17 41 17 40 18 41 15 41 16 41 14 41 15 40 13 40 13 41 14 44 12 44 13 46 5 23 12 46 10 46 8 46 10 46 9 45 8 45 10 44 9 44 9 45 9 44 9 42 8 42 9 43 7 43 8 44 7 42 5 45 6 44 4 45 5 46 3 47 3 46 2 45 2 43 0 43 0 40-2 41-3 40-3 42-6 41-5 41-5 41-6 40-7 39-8 40-7 38-8 38-8 37-8 34-8 34-7 33-6 32-5 31-4 29-4 28-5 28-5 28-7 27-8 27-7 25-10 25-8 25-9 25-9 24-9 24-10 22-11 23-12 22-17 31-18 28-16 28-19 27-17 29-19 27-20 24-16 21-17 25-13 21-13 23 23 9"/>
<path d="M7789 25462l-2-1-24-10-26 0-26 7-26 11-24 13-22 12-27 15-32 18-22 14-23 15-26 17-25 17-26 18-25 18-23 18-21 19-20 18-19 19-18 18-17 20-17 21-16 22-18 23-18 26-20 28-21 29-25 31-27 33-28 35-31 36-30 36-29 36-28 35-24 33-23 33-20 31-19 29-18 28-17 29-17 28-17 28-17 28-17 29-16 29-18 31-17 33-18 33-19 34-15 33-16 32-14 28-12 28-10 26-10 26-8 26-7 27-7 27-6 26-7 27-8 28-7 29-8 32-9 32-8 33-8 31-8 30-7 28-5 26-7 36-5 23-3 36-2 24-2 36-1 24-5 25-3 26-5 26-7 25-5 27-5 25-5 26-5 26-5 25-5 26-6 25-6 25-5 26-4 24-6 35-3 30-3 28-2 29 0 31 0 32 2 29 2 27 2 27 2 27 1 26 3 31 4 28 4 29 7 28 8 30 8 23 7 23 10 27 9 26 7 24 9 25 8 26 10 26 8 23 12 22"/>
<path d="M9670 27331l-1 1-10 25 0 30 2 30 5 28 5 28 7 29 7 32 9 33 9 34 10 34 7 24 8 23 7 24 8 24 13 32 12 30 11 30 13 29 12 29 14 30 14 27 17 28 17 25 20 21 18 18 24 20 23 16 25 15 28 15 27 16 24 16 25 14 24 11 23 12 26 8 27 7 26 2 28 1 25-2 25-3 26-3 25-4 24-3 27 0 28-1 26-3 25-1"/>
<path d="M9271 29540l-1-1 11 25 8 25 6 26 5 32 2 27 0 28-1 29-3 25-6 23-10-26-5-27-4-30-1-29 0-25 5-26 8-27 15-25 17-18 23-15 22-11 27-8 28-2"/>
<path d="M9545 29543l 0 0-18 19-13 20-14 28-6 24-1 30 7 24 16 21 25 5 25-7 22-13 20-17 17-20 11-28 1-24-11-22-20-18-27-8-26 7-19 14"/>
<path d="M9741 29543l 0-2-21 17-12 26-7 26 1 24 14 20 26 13 25 1 28-7 25-14 18-22 12-23 1-29-16-25-23-16-22-10-27-3"/>
<path d="M9948 29258l-1-3 7 24-2 31-1 25-3 30-2 31-2 31 0 33 1 32 4 29 6 26 11 34 13 28 15 22 23 20 23 7 25-2 30-12 24-14 20-17"/>
<path d="M9859 29540l 0-2 21-23 24-16 32-18 26-12 28-10 30-12 32-11 33-10 33-10"/>
<path d="M10374 29070l 1-5 10-24-3 33-9 32-12 38-13 42-17 45-8 23-9 24-8 25-9 26-9 25-8 25-9 25-8 27-9 27-9 26-9 27-8 25-8 26-7 25-7 25-6 24-13 45-10 40-9 37-6 29-4 24 5 26"/>
<path d="M10439 29658l-1 0 24-6 18-19 20-24 14-22 16-28 16-32 18-35 17-37 16-38 16-40 11-41 9-43 7-44 5-42 3-38 0-32 0-26-5-29-10-24-30-2-21 21-17 27-12 23-10 28-11 34-10 38-7 41-4 43 0 43 3 41 6 41 9 38 10 35 11 32 13 26 11 22 19 23 20 15 27 12 28 0 30-10"/>
<path d="M10901 29460l-1-2-19-17-25 6-20 21-16 26-15 23-14 25-11 24-5 30 5 25 19 18 23 7 29 1 36-7"/>
<path d="M11172 29495l 1-2 3-26-13-21-25-5-25 8-25 12-22 15-21 20-15 23-11 22-3 25 14 24 29 3 29-10 21-13 24-21 15-18 11-23 22 15 17 23 23 20 22 14"/>
<path d="M9231 30377l-2-1-22-13 18-17 30-1 33 3 29 3 29 4 28 6 23 7 18 17 0 26-13 27-14 21-18 24-21 25-22 25-26 24-26 25-27 24-28 25-25 24-25 23-23 22-20 20-18 18-19 21-13 21 28-1 27-7 24-8 26-8 26-10 27-8 27-8 25-8 26-6 24-6 24-6 24-5 34-4"/>
<path d="M9839 30600l 0-3 0 27-3 24-3 29-6 33-6 34-6 35-7 35-8 35-7 34-8 31-7 28-5 24-5 26"/>
<path d="M9784 30712l-1-3-6-25 17-23 22-16 33-18 26-11 26-11 27-10 25-7 33-9 25-1 20 17-8 28-17 24-23 26-18 18-19 19-21 18-20 18-20 15-25 18-24 16"/>
<path d="M10187 30625l-1-1-20-16-24-6-24-1-27 10-18 16-13 21-5 23 23 15 24-2 29-8 28-10 24-12 5-24-4 26 6 27 10 24 19 20 28-1 27-19 27-26 22-22 23-25 23-28 24-28 20-30 18-31 15-32 10-35 5-34 3-37 1-36-1-34-1-30-3-33-17-17-22 19-14 21-11 29-8 24-8 28-7 31-7 35-6 37-5 38-6 35-4 31-2 26 3 31 9 26 21 14 22-9 21-21 18-25 5-28-22-21-25-11-33-10-25-5-36-6-31-3-29 1 29-5 23-10 30-15 33-20 34-21 35-24 33-25 31-25 28-25 22-24 17-23 12-23 10-32 5-28 0-30-22 13-11 27-7 24-7 26-6 28-6 30-5 30-4 32-4 33-4 34-4 31-4 30-3 25-2 27 2 25 20-15 19-21 18-23 18-22 26 1 9 27 0 30 2 28 9 27 26 10"/>
<path d="M10814 30469l-2 0-27 1-23 9-24 14-19 17 11 25 24 5 24 4 26 3 24 4 25 7 22 12-12 23-22 12-28 10-25 6-25 4-28 2-27-6"/>
<path d="M11546 30085l-5-3-29-13-23-8-28-1-25 11-19 23-12 32-5 29-3 36 3 25 2 26 5 24 9 26 9 24 10 25 10 25 8 24 9 26 7 25 4 25 3 25 0 25-4 25-6 24-9 25-12 24-12 21-19 27"/>
<path d="M11274 30478l 1-4 16-23 19-23 25-20 29-19 22-11 24-11 26-10 27-9 27-7 25-6 25-5 33-4 29 1"/>
<path d="M11649 30410l-1 1 0 24 6 24 3 28-1 27-2 25-4 27-12-21 1-24 2-28 4-29 8-28 10-22 18-24 27-18 23-11 24-6"/>
<path d="M11835 30400l-1 1-19 19-20 19-19 20 3 24 26 6 24-6 22-10 15-22-4-27-16-22 1-24 26-7 25 5 21 17 10 22-3 24-6 24 17-24 17-23 17-20 17-18 19-15 24 5 4 25 12 23 26-4 20-17 18-19 20-17 15 21 9 25 16 21"/>
<path d="M12662 30311l-1-1 20-15 13 22 1 25-3 24-6 26-6 30-6 24-8 26-3-26 1-26 4-30 5-25 6-23 12-28 19-26 18-19 23-16 25-13 27-8 25 0"/>
<path d="M12964 30316l-2 0-24 1-21 16-16 20-3 29 11 22 28 6 28-8 23-16 7-24-7-23-16-19-24-9"/>
<path d="M13129 30299l 1 0-24 10-20 16-17 20-1 24 26 11 26-2 24-7 22-9 22-17 10-22-8-26-21-17-24-10"/>
<path d="M13353 30034l-2-3 1 26 7 28 5 31 3 34-1 37-3 26-4 26-4 24-3 25 0 29 2 28 15 22 25-2 25-13 23-19"/>
<path d="M13301 30233l-8 1-31 5-31 5 26-20 32-15 33-15 33-14 32-8 30-5"/>
<path d="M10434 31085l-1-2-27-1-18 19-18 25-12 22-15 26-15 32-15 37-15 41-15 43-13 47-6 23-5 24-4 24-5 46-2 44 1 40 5 35 8 29 10 25 13 21 23 26 23 20 24 14 28 8"/>
<path d="M10568 31516l 0-1 13 21 6 24 2 30-2 27-6 25 17-27 10-25 11-25 11-24 14-30 14-24 18-22 26-3 18 19 9 29 4 25 2 29 0 25 0 26 14 21 24 6 27-10 22-14"/>
<path d="M10873 31525l-1-3-5 25 7 26 10 22 27-4 16-25 9-25 5-27-11 30-1 26 5 27 17 18 26 5 28-8 27-16 21-21 20-27 15-22 14-25 12-27 10-28 9-30 5-31 4-34 1-37-1-40-4-38-5-35-6-27-7-31-11-24-22 11-10 30-6 28-5 33-4 37-3 39-2 42 1 41 2 39 6 38 7 34 10 29 11 21 19 22 29 11 27-5 30-18 20-22 20-28 18-32 15-36 12-37 8-37 5-40 1-42-2-42-4-40-4-36-5-29-5-24-9-22-25-1-7 26-5 36-3 29-1 30 1 32 3 35 5 35 5 35 7 32 5 30 8 27 7 24 13 30 12 22 19 15 28 0 25-16 17-18 16-20 12-21 9-26 3-27-19 17-2 24 2 26 6 26 7 23 15 20 22-13"/>
<path d="M11458 31235l-3-4-20-14-23-8"/>
<path d="M11552 31392l-4 0-24 6 26 4 30-13 28-21 21-19 22-21 21-24 18-25 16-26 12-25 9-25 6-26 3-27 0-29 0-30-1-30-3-30-4-26-8-28-19-14-23 25-10 24-11 32-12 39-9 46-5 25-3 27-5 27-2 29-3 29-2 30-1 29-1 28-1 29 1 29 1 27 1 25 2 25 2 25 6 43 6 37 9 32 9 25 13 23 25 10 11-25 4-33 0-28-2-30-3-30-5-28-6-24-8-29-6-25 5-24 22-20 25-19 25-16 23-9 23 10 3 28 0 24-1 24 20 16 17-19 16-23 15-23 12-21 10-23 5 29-1 30 1 32 1 35 1 25 1 25 2 26 0 26 2 28 0 29 1 28 0 30-1 31-2 31-2 31-3 30-4 25-5 29-12 22-24-18-13-29-7-26-4-31-1-33 1-33 5-36 6-35 8-35 12-35 11-33 13-30 13-26 12-23 14-22 15-19 19-17 19-16"/>
<path d="M12312 31446l 2-3 20-24 17-24 15-20 19-27 14-21 17-26 15-29 17-30 15-32 16-33 14-35 11-36 10-38 6-38 3-36 1-32-1-26-5-27-13-22-22 17-20 25-13 23-14 28-12 30-11 32-8 34-5 35-2 35 0 36 3 38 5 37 7 38 8 35 11 32 14 27 15 22 20 16 31 13 26 2 27-6 26-12 27-17 22-20 19-20 17-21 18-29 9-24-2-26-20-20-28-1-23 13-19 18-13 25 5 27 23 16 29 6 24-4 24-10-5-27-20-18-21-16 19-18 30-7 30-3 27 0 25 2 10 22-5 27-7 27 2 24 21 14 24-14 22-20 21-25 21-29 18-26 15-20 13-20-2 28 2 32 6 24 17 26 22 19 32 7 28-4 29-11 26-17 23-22 19-24 14-24 9-23 4-29-6-25-19-16-25 13-21 21-21 25-17 27-11 25-2 28 16 25 23 12 27 4 25-3 25-11 15-22 0 26 0 33 1 36 2 25 2 24 3 25 4 25 1 36-3 33-9 32-13 27-20 21-24 12-27 3-27-8-24-20-15-19-11-26-8-30-2-33 2-34 8-33 10-32 15-30 16-28 17-25 20-25 21-23 21-22 22-20 23-16 22-15 21-12 25-16 21-14 25 3 24 3 24-6 8-25-15-20-28-2-24 7-23 17-20 23-10 23-6 29 8 26 15 20 26 13 28 1 24-7 22-12 25-17 25-19 25-22 24-22 24-23 20-21 16-19 11-22-13-22-25 2 6 23 12 21 15 23 15 23 16 22 16 21-8 24-26 8-29 2-28 0-26-2 28-5 27-4 25-5 28-6"/>
<path d="M13670 30797l-2-2 21 16 17 26 13 33 6 25 4 26 5 29 0 31-1 32-3 34-7 33-7 31-5 30-5 27-7 31-5 24 12 22 28 6 29-10 28-15 29-22 19-16"/>
<path d="M13627 31008l-4-1-26-5 26-4 35-5 29-5 31-5 33-5 34-5 32-5 31-6"/>
<path d="M13819 30658l-1-1 17 17 26 20 20 16 22 19 20 22 21 24 18 26 16 26 14 27 11 25 10 25 8 25 6 25 4 24 2 24 0 25-2 25-4 25-6 24-8 23-8 24-10 23-12 22-13 20-15 19-23 25-24 19-22 13"/>
<path d="M9044 32607l-1-2"/>
<path d="M9342 32292l-1-3 19 22 3 32-1 28-1 29-3 33-5 34-4 36-5 38-6 39-6 39-7 37-7 35-5 30-1 27 4 32 15 26 24 7 23-7 30-16 20-17 23-20 20-21"/>
<path d="M9280 32614l-2 1 17-23 26-20 21-13 22-12 23-12 24-10 25-9"/>
<path d="M9539 32528l-1-1 30-8 27-7 27-3 26 2 11 24-12 24-16 24-18 24-20 23-18 23-10 25 14 20 29 3 27-7"/>
<path d="M9791 32532l-3-1-26-3-22 17-15 22-12 24-3 27 23 5 26-10 23-13 23-15 26 7 26 1"/>
<path d="M10019 32451l-3-1-28-1-25 5-18 18-15 27-13 28-8 23-7 30 1 25 12 20 29 5 31-8 28-13 29-19 19-15"/>
<path d="M10126 32215l-2-1-3 24 7 28 6 24 4 26 4 28 3 28 0 29 0 30-1 29-3 26-2 25-4 27-4 26 6-29 10-29 14-29 16-28 18-25 20-20 27-15 25-8 26 2 19 16-12 24-23 21-21 18-21 17-24 17 13 23 26 1 30 0 26 0 26 0 30-1"/>
<path d="M10961 32686l-1-1 28-8 27-17 27-25 19-24 21-29 23-32 23-35 22-39 22-43 11-22 11-24 10-23 9-24 9-23 8-23 12-46 8-45 3-42 1-38-2-32-7-33-15-26-25-5-19 20-16 32-10 28-10 35-10 40-9 43-7 45-7 45-4 47-1 45 2 41 5 38 8 31 11 28 14 23 23 27 30 15 32 4 33-7"/>
<path d="M11419 32432l-4-1-25-3-25 3-29 12-19 15-17 18-16 25-8 25 4 27 20 14 26-2 29-14 20-15 20-23 10-23-9-25-15-20 13-23 22-11 24-3 23 10 13 21 4 29 0 25-5 26-6 25 20-18 13-23 14-23 17-22 17-22 19-19 17 19 0 24 1 28 6 27 11 27 21 18 28 6"/>
<path d="M11781 32434l 0-2-5-26-28 2-23 22-19 24-19 28-15 28-7 25 6 27 28 6 28-13 23-17 22-18 16-19 14-21-16 23-4 25 0 29 2 33 2 33 1 33-3 32-5 34-6 23-7 24-13 33-14 28-15 21-24-12-3-26 5-38 5-29 9-32 10-33 11-32 13-31 13-28 14-27 13-23 20-27 19-21 20-17 21-13 23-11 24-3 26 1 27-9 20-15 15-22-2-26-26-4-25 10-21 15-24 22-20 26-16 29-6 25 11 28 27 14 27 2 31-6 30-13 29-18 27-21 24-23 20-24 13-24 10-27 3-25-19 17 8 25 11 22 20 21 18 17 11 23-12 21-24 9-28 7-29 8-26 10 28-4 27-9 23-7 27-12 30-15"/>
<path d="M12374 32034l-2-1-7 26 10 31 8 23 5 27 5 28 3 28 2 31 0 29 0 30-2 29-2 28-2 28-2 24-2 34 0 27 1 24 6 25 25 4 23-18"/>
<path d="M12316 32269l-2-1 23-9 31-7 34-8 24-6 24-5 36-7"/>
<path d="M13031 32254l-1 0 2 24 3 30 2 27 2 30 2 35 2 36 2 37 2 36 1 36 2 34 0 32 1 30-1 26-2 30-3 26"/>
<path d="M13012 32326l 1-4 10-24 18-22 28-13 29-6 30 0 25 9 15 21-5 27-12 24-19 28-18 20-18 18-18 17-26 21-20 17-21 12"/>
<path d="M13301 32263l-2-1-24-6-28 0-25 11-20 20-12 24 17 21 24 0 25-8 25-10 22-12 14-20-2 24 25 4 27-13 23-15 29-23 21-19 22-21 20-24 20-24 17-26 13-26 9-27 5-26 1-27-2-27-4-28-6-25-10-33-11-24-19-18-19 16-9 25-5 27-3 33-2 25-2 28-2 30-1 33-2 34-3 35-4 33-2 30 0 26 4 32 12 28 20 13 27 1 25-9 25-16 22-21"/>
<path d="M13414 32153l-5 0-25 4 32-14 25-14 27-16 28-18 27-19 28-19 27-20 22-20"/>
<path d="M13649 31842l-1-1-26 6-9 31-3 33 0 26 0 27 1 31 2 31 1 34 1 35-1 33-1 34-1 30-1 26-1 31 3 24 25-13 15-23 15-28 15-31 17-31 18-26 18-20 25 2 12 28 11 29 16 26 15 24 15 21 20 16"/>
<path d="M14154 32225l 0 0 21-14 24-12 22-13 26-18 19-16 21-21 22-25 23-28 23-31 22-32 21-34 19-36 16-38 11-41 6-40 2-44 0-41-3-37-5-32-9-31-21-15-24 15-22 28-13 26-13 29-12 31-7 34-5 35-3 38 0 38 1 40 2 39 4 36 4 36 5 33 9 32 8 28 11 22 19 19 25 9 26-1"/>
<path d="M14502 32082l 0-1 27 7 29-5 28-9 17-18-16-22-28-5-27 4-29 11-20 15-15 19-11 23-8 25-3 29 14 23 23 9 24 4 29-1 32-4"/>
<path d="M14763 32052l-1 0-26 1-24 14-16 19-1 26 22 10 28-1 23-9 24-8 27 4 27-1 25-11"/>
<path d="M15065 31709l-2-4-15-20-25-12-25 14-17 23-10 25-5 31 0 37 3 26 2 29 4 28 2 29 1 29 1 29 0 28 0 28 1 26 1 26 0 24 2 30 1 28-1 27"/>
<path d="M14852 32062l 0-1 24-13 26-9 31-11 33-10 29-8 26-7 27-6"/>
<path d="M10244 33001l-1-1-25-3-15 21-13 29-11 25-11 30-10 32-10 32-8 32-5 33-3 31-2 30 2 30 3 25 6 27 9 26 12 26 14 23 22 21 24 10"/>
<path d="M10313 33343l-1 0-16 19-7 25 3 27 25-10 8-23 10-24 10-23 12-23 15-24 16-22 21 18 4 26 1 25 3 28 4 25 21 12"/>
<path d="M10531 33290l-2-1-22 15-14 20-7 24 6 26 23 12 26-5 21-20 0-26-20-19-16-19 24-8 25-3 26 0 16 20 0 25 3 25 9-24 6-26 11-27 13-23 21 17 10 22 12 25 8 24"/>
<path d="M11031 33189l-1 1 5 26 4 27 1 27-1 27-4 26 7-27 8-23 14-26 15-20 26-1 7 25 0 26 3 28 3 25 13 20"/>
<path d="M11239 33223l-1 0-15 19-8 23-3 25 25 8 19-16 15-22 9-23 13 21 16 19 26-3 18-17 18-26 17-23 17-28 18-29 15-32 11-33 5-24 5-26 5-27 4-35 1-30-4-28-22-11-15 27-16 32-10 28-11 29-8 32-5 34-4 33-1 30 0 28 3 25 9 29 17 23 26 4 24-13 18-22 18-30 11-23 11-24 9-25 9-26 10-27 8-27 7-28 6-25 5-33 1-24-22 13-14 30-11 33-8 34 0 31 4 29 6 25 8 30 11 26 14 23 23 13 22-15 15-22"/>
<path d="M11569 32824l-1-1 26 10 17 20 13 21 13 23 11 25 13 27 10 28 11 31 8 31 6 33 5 32 4 29 1 27-3 32-7 34-11 32-9 25-11 22-16 25"/>
<path d="M9260 34347l-1-1"/>
<path d="M9600 34294l-1-3-18-16-25 9-25 16-18 16-18 19-16 20-15 24-3 26 28 7 31-7 29-9 32-11 30-10 28-8 25-2 17 21-4 31-13 31-10 24-13 25-13 22-21 28-19 18-24 12-25-4-16-24 1-25 12-30 18-28 17-18 18-17"/>
<path d="M9793 34320l-1 1-13 23-12 22-11 23-8 22-4 25 6 25 25 12 27-4 25-12 22-16 18-16 17-21-9-25-23-15-25-8 24-15 24-10 24-11 25-12 25-14 20-15 18 16 2 28 6 29 11 27 12 20 14 25 6 24-9-23-4-32 0-26 5-29 9-23 17-22 23-20 23-16 29-13"/>
<path d="M10292 34017l-1-2 0 27 0 29 0 25-2 25 0 28 0 29 1 30 1 30 1 30 3 29 2 26 4 25 7 31 12 27 19 23 25 5 32-12 26-19"/>
<path d="M10193 34230l-4 1-25 3 25-8 28-10 25-8 30-10 34-12 38-11"/>
<path d="M10833 34322l-1 0-6 25 26 0 22-13 29-23 23-23 25-27 27-33 27-35 29-38 26-40 24-40 18-42 11-40 6-40-2-38-5-37-8-35-10-30-9-24-14-23-25-2-24 23-20 31-11 26-12 29-9 33-7 37-4 38-2 40 2 38 5 37 8 35 9 31 14 29 14 26 16 24 17 22 24 25 26 17 27 10"/>
<path d="M11264 34172l-2 0-23 10 24 12 24-7 26-13 26-15 21-16 12-22-19-19-24-6-31-1-26 6-25 12-23 18-21 22-15 23-9 24 2 30 16 23 22 15 26 8 32 0 30-4 32-9 34-14 31-14 29-14"/>
<path d="M11533 34130l-3-2-26-9-28 3-26 10-26 17-20 24-12 23 2 28 25 12 27-5 30-11 21-11 22-14 17-19-10 23 5 25 20 17 26-7 24-20 16-19 16-26 9-24 2-27-4 25 7 24 13 23 18 18 25 11 28-3 23-12 18-17 12-25 7-31 0-25-4-24-8-25"/>
<path d="M11826 34090l 1 1 23 8 25-8 19-16 17-20 12-24 2-25-22-10-23 19-18 24-12 21-7 28 7 24 20 22 26 6 26-2 28-9 30-12 27-16 24-18 19-18 16-26 3-25-7-28-23-10-11 25 8 23 17 17 25 17 25 16 22 17 10 23-21 17-26 2-28-2-29-2-26-1 20 15 25 1 31-3"/>
<path d="M12558 34079l 0 0 21 14 30-7 33-18 26-17 29-22 29-27 31-31 30-34 29-37 26-37 21-38 16-37 8-35 2-34-5-31-9-28-11-24-17-26-25-10-29 11-23 24-14 24-14 29-13 33-10 37-8 40-4 38 2 37 5 32 8 31 11 29 12 27 14 23 17 21 26 23 29 16 28 10 28 2 23-6 24-16 12-23-7-24-16-21-23-20-26-14-26-8-29-5-25-2 28-5 25-3 32-2 33 0"/>
<path d="M13034 33927l-1-1 5 25 0 27-1 29-2 25 2 25 26-14 18-20 22-27 15-20 18-30 16-30 12-25 6-25-13 20-1 28 2 29 7 33 5 26 5 29 4 31 4 32 2 35 0 35-1 37-4 37-5 37-6 35-7 33-10 33-11 31-11 29-10 25-15 30-19 18-23-11-10-27-5-25 0-30 1-33 4-36 5-39 7-41 10-41 13-40 13-38 15-35 17-29 17-27 17-24 18-20 20-16 28-21 29-17"/>
<path d="M13927 33925l 0-1 1-26-17-17-27 0-22 9-22 17-17 19-16 22-15 26-11 25-8 24-1 26 8 27 24 12 27-10 25-19 18-20 21-25 20-30 20-34 18-35 15-35 12-36 7-35 4-35 0-36-2-36-3-33-4-31-3-27-6-31-6-29-19 24-2 26-2 30 0 36-1 38 1 40 2 41 1 39 3 36 3 33 4 30 4 25 8 34 9 27 15 23 28 6"/>
<path d="M14130 33912l 0 1 24 5 27-12 22-10 19-16-15-22-26 0-25 9-24 16-18 17-20 26-12 26-3 26 8 28 19 17 28 9 30 1 24-4 26-8 26-11"/>
<path d="M14317 33897l-3 1-16 23 1 25 4 25 3 32 3 28 3 30 1 31-2 33-1 31-2 25-1 28 0-28-1-33 0-26 0-27-1-28 0-26 0-25-1-33 1-25 2-27 6-25 18-18 27-1 26 9 22 15 17 23 5 29-6 26-12 22-17 20-19 18-23 17-25 5-18-16"/>
<path d="M14544 33622l-1-1-3 25-1 30-5 35-4 27-5 31-6 34-6 35-5 35-5 34-3 31 0 25 5 29 17 21 23 6 31-6 24-15 23-22 19-25 11-25 0-28-10-27-17-32-15-20-18-18-29-20-31-9-30 1-23 7-22 13 25 15 30-7 24-8 26-11 27-14 29-15 25-15 26-17 25-16 20-17 23-26 12-25 4-24-1-28-19 18-7 32-5 26 0 30 0 32 1 33 1 35-1 33 1 33 1 30 1 27 2 24 2 30 5 24 19-20 14-30 15-33 11-22 16-27 15-20 20-14 18 17 10 23 10 24 11 23 14 26 10 23"/>
<path d="M10331 35160l-1-1"/>
<path d="M10614 34918l-1-2 8 31 1 27-1 30 1 34-1 36-1 37-1 38-1 37 0 34 0 33 0 31 1 26 1 34 1 26-1-31-1-37-1-30-1-32-2-33-3-35-4-34-3-34-2-32-2-30 0-29 2-26 6-34 8-28 10-23 15-23 18-17 23-10 32-6 28 1 30 5 27 7 23 11 18 17 9 28-5 28-17 34-15 23-18 24-20 23-20 22-22 20-23 18-19 15-25 17-22 17-18 19 19 17 23 7 25 8 27 9 27 8 26 10 25 10 25 10 28 12 23 13 18 18"/>
<path d="M10967 34932l 1-3 16-20 22 19 12 23 8 35 5 30 2 31 1 34-1 37-3 36-4 36-3 33-5 29-2 26-4 31-1 24 6-31 4-28 4-36 6-40 5-44 5-43 5-40 5-36 6-32 6-26 9-29 9-23 27 7 13 21 11 30 9 33 5 25 4 25 3 27 3 26 1 24 2 35-1 28-3 26 0-34 0-24 3-30 5-33 7-37 8-38 10-36 10-35 11-32 12-29 11-25 11-22 18-24 22-17 24 16 11 21 11 30 7 25 5 27 5 28 5 28 5 29 4 29 4 27 3 27 3 24 2 36 1 29 4 26"/>
<path d="M11585 35050l-3-3-26-14-26 3-24 11-19 18-16 23-12 26-8 25-3 29 16 21 29-1 24-16 22-20 17-19 14-21 21 19 10 22 10 22 15 26 21 20 24 0"/>
<path d="M11715 35065l-1 0-7 25 14 20 17 21 17 17 17 18 22 18 25 10"/>
<path d="M11831 35065l-3-1-27-1-21 15-20 21-15 22-14 25-15 29-12 26"/>
<path d="M12247 34643l-2 0-24 9-25 20-23 24-19 21-18 23-19 29-21 32-17 34-16 37-10 38-5 37-1 36 4 31 8 26 22 27 31 17 24 8 25 3 35-2 27-6 24-9 25-13 24-15 22-19 21-24 20-26 19-31 13-32 12-32 8-33 2-34 1-33-3-32-8-32-11-29-19-25-24-21-28-15-30-8-29-2-26 1-33 10-25 16-20 25-14 30-6 32"/>
<path d="M12282 34897l 1 1 18 18 21 17 19 16 22 19 22 20 22 20 22 20 22 21 21 19 19 20 21 20 17 20"/>
<path d="M13023 34975l-1 1-13 23 0 25 10 25 21 17 26 3 22-10 19-19 13-21 3-28-16-22-23-16-25-5 25 5 30-7 24-7 24-11 27-14 25-18 25-21 22-26 21-26 19-30 17-31 10-23 10-25 9-23 7-24 7-33 3-30 0-29-27 1-18 21-20 29-15 26-13 31-13 36-11 40-9 45-7 50-3 25-3 27-3 28-2 27-1 28-2 27-1 27-1 27 1 26 1 25 1 25 5 44 8 38 10 31 13 25 20 29 23 16 24 5 23-8 20-18 15-29 8-35-1-25-4-27-9-26-12-23-17-24-21-20-21-18-22-17-27-19-21-14 15-21 33-4 29-2"/>
<path d="M13985 34805l-1-3-23 13-5 27-1 31 0 31 2 29 7 31 14 20"/>
<path d="M14049 34657l-1 0 0 27 9 25"/>
<path d="M14139 34810l 1 2 5 29-2 29-5 29-2 24 12-21 11-28 13-24 18-21 22-14 24 14 11 22 6 23 4 25 6 25"/>
<path d="M14380 34771l-1-1 25-15 26-7 29-6 32-5 30-2"/>
<path d="M14679 34772l-4 0-26 4-21 16-18 21-12 27-3 24 10 22 26 10 24-7 28-13 23-18 18-23 6-24-12-24-19-15-24-1 20 15 27-1"/>
<path d="M14809 34747l 0-1 26-3 24 4 25 8 9 23-16 20-18 18-19 19-11 25 12 21 26 10 27-1 31-6"/>
<path d="M15093 34767l-1-1-24-10-26 4-19 17-15 21-10 26-4 26 8 23 26 8 22-10 19-17 20-22 18-27 19-31 12-23 11-23 8-27 9-29 6-30 2-34 1-34-1-35-2-35-3-31-4-27-11-29-17-19-27 5-15 24-8 26-3 34-1 25 1 29 1 33 2 36 4 38 4 39 5 37 5 35 5 32 6 30 6 27 12 31 13 24 23 16 27-1 23-13"/>
<path d="M15288 34786l-1-1 22 12 23-6 24-16 19-15 20-20 9-23-23-14-24 7-23 11-22 16-20 20-15 23-8 28 0 29 12 25 23 15 25 6 28-3 30-13 25-15"/>
<path d="M15511 34729l-1-4 0-24 22 14 27 4 23 9-2 25-15 20-8 24 21 12 26-1"/>
<path d="M12101 21909l 0-1 24-14 26-4 24-2 25-1 31 1 24 6 17 20-7 29-13 20-18 22-21 20-19 15-21 15 22 10 29 3 30 4 24 6 25 13 20 22 11 23 1 27-8 26-20 23-20 13-30 11-25 4-27 1-26-1-30-5-22-12"/>
<path d="M12750 21941l 0 0 24-8 30-8 24-6 25-5 26-4 30-3 25 0 26 3 2 25-9 22-14 30-18 31-16 29-13 25-15 29-11 27-9 24-7 26 1 25"/>
<path d="M13370 21868l-1 0 25-7 26-7 26-7 28-7 28-6"/>
<path d="M13435 21875l-1 0-18 16-8 25-5 24-3 25 2 25 19 16 28 1 27-1 28-2 25-2 25 1 26 1 26 4 29 6 23 8 21 12 4 25-16 23-20 18-21 16-28 15-24 10-24 7-26 3-28 0-25-7-23-11"/>
<path d="M14132 21875l 0-1 21-15 29-3 31 0 30 7 28 12 21 18 11 21 3 26-10 29-13 23-23 28-24 22-23 17-26 14-26 11-23 10 23 7 27 4 28 1 27 3 27 4 23 5"/>
<path d="M14964 21866l 0 0-6 27-7 26-9 30-9 28-4 29 6 26 23 15 30 3 30-1 30-2 26-4 27-5 25-6"/>
<path d="M15051 21935l-1 1-5 24 0 29 3 27 5 25 10 30 11 28 11 26 12 24"/>
<path d="M15738 21917l 0-3-1-26-5-24-8-23-20-19-23-6-29 5-27 10-27 14-27 18-23 23-18 23-9 25-2 24 8 24 16 26 22 20 22 15 27 14 25 12 23 13 22 15-25 15-26 1-24-5-26-12-19-17-7-26 9-23 18-26 21-23 27-25 20-15 22-16 23-13 22-10 33-10"/>
<path d="M12021 22676l 0-1 13-22 26-3 30 2 26 8 22 12 17 23 2 25-9 30-13 26-17 26-20 24-21 21-20 18-22 15-22 12 24-7 28-5 28-3 29 0 24 4 26 10"/>
<path d="M12768 22601l-1-1-23 13-17 21-14 21-16 25-10 22-10 29-6 28 8 25 24 14 29 5 26 0 27-2 27-4 25-3"/>
<path d="M12819 22714l-1 0 2 25 0 30 0 29 3 31"/>
<path d="M13222 22625l-2-1-21 16-8 29-2 24 0 25 5 25 14 21 26 12 30 3 28-2 29-6 25-7 25-10 26-10"/>
<path d="M13364 22650l-1-1-10 25-2 24 0 28 0 28-1 26 2 26"/>
<path d="M14085 22603l 1-1 25-5 29-1 28 1 25 3 21 12-1 26-17 18-19 15-21 14 23 12 30 2 27 7 24 8 26 13 20 15 5 25-15 21-19 19-23 15-23 10-27 7-25 3-25-5-22-13"/>
<path d="M14939 22621l 0-1-15 22-12 22-12 23-10 23-5 24 7 26 23 12 26 3 30 0 30-3 27-5 27-7"/>
<path d="M15005 22684l-2 0-14 25-7 25-3 29-1 30 3 30 8 28"/>
<path d="M15573 22579l-2 0-12 24-10 24-11 25-12 26-11 28-6 24 3 27 25 9 27-1 25-4 26-3 26-5 26-5 26-4 26-3 31-3"/>
<path d="M15685 22658l-1 0-3 29-4 32-2 30 1 28 6 30"/>
<path d="M13347 24220l-1-3 16-20 26-1 29 5 24 15 9 23-1 28-6 26-9 29-12 30-12 31-12 29-10 27-10 26 5-25 12-34 7-25 9-25 8-24 9-23 10-22 15-31 14-24 16-18 25 8 8 26 5 25 5 25 8 28 10 28 14 20 25-10 17-18 18-22 19-24 15-24 12-22 10-22-6 27-1 26 9 26 20 14 24-4 21-16 17-21 9-23-1 26 9 22 22 10 26-14 23-24 17-25 16-29 12-30 7-30 0-31-3-25-4-25-5-25-6-25-7-31-7-26-18 23-8 31-4 25-2 26-1 28 1 27 2 25 3 35 7 30 10 24 15 22 22 12 25-8 19-18 21-25 13-20 14-21 11-21 10-25 5-25 2-28 1-27-1-28-1-25-4-31-10-27-25 17-7 33-1 26-1 28 1 29 3 30 2 30 3 27 6 25 7 24 15 31 15 24 21 22 22 13 25 2"/>
<path d="M14268 24124l-1-1 26-10 26-5 28-4 27-4"/>
<path d="M14277 24191l-3 1 26-2 29-7 32-8 31-8 29-8"/>
<path d="M14403 24048l-1 0 28 8 24 3 28 4 25 4 27 6 25 11 13 20-14 26-21 24-23 22-18 16-19 17"/>
<path d="M14746 24131l-1-1 27-3 25 0 32-2 30-3"/>
<path d="M14991 23977l-1-1-10 24 1 26 3 30 3 30 5 30 4 28 4 28 3 26 3 24"/>
<path d="M10435 35265l 6-7 21-19 30-20 39-22 39-13 44-11 25-6 27-6 29-5 31-6 33-6 35-7 37-7 40-6 41-8 43-7 44-7 47-7 48-7 50-7 51-8 54-8 55-9 58-8 59-9 62-9 63-10 66-9 67-10 70-10 71-10 73-10 76-11 77-11 79-12 81-11 83-13 84-12 86-12 87-13 90-12 89-13 91-11 92-11 92-10 94-10 92-10 94-10 94-9 94-9 93-7 94-8 93-8 93-8 93-6 92-6 91-6 90-6 90-5 87-5 87-4 84-3 83-4 81-3 80-2 78-1 76-2 74-1 72-2 70 0 69-1 66 0 63 1 62 0 60 2 58 0 54 3 53 1 50 2 47 2 45 2 43 3 39 2 37 3 34 2 31 3 28 2 24 3 40 5"/>
<path d="M10732 35992l 0 0 24-9 23-14 22-16 25-20 23-24 22-25 16-24 11-22 6-23-10-23-19 19 4 27 14 23 23 22 20 16 21 15 22 20 13 25-9 27-23 15-24 6-28 0-24-9 17-22 22-15 22-11 22-12 22-10 27-9 26-6 26-3 25-9 25-15 20-15 22-17 21-16 17-20-20-17-27 5-25 12-26 14-22 17-17 24 0 24 12 21 21 19 23 11 29 8 32 3"/>
<path d="M11414 35828l 1-2-4-28-15-19-24-3-25 11-24 20-15 20-12 22-6 28 8 27 24 12 26-3 29-12 20-14 21-22 13-23 5-27-18-16-10 24-2 25 7 29 7 24 12 26 11 25 12 27 10 27 8 28 3 29-1 30-7 30-11 26-15 22-19 16-24 9-25 1-26-6-25-14-23-22-20-28-12-32-7-33 1-34"/>
<path d="M11620 35460l-2-1-13 25 1 28 1 25 2 29 2 33 2 35 0 37-1 28-1 31-2 33-2 32 0 31 4 28 13 25 28 12 31-5 25-12 24-17 21-21 17-31"/>
<path d="M11596 35708l-8 1-28 10-31 11 28 4 29-7 35-9 25-6 26-7 25-6 34-8 27-7"/>
<path d="M11797 35676l 0 0-3 24 19 18 25 7 28 3 27 3 9 24-20 20-20 17-18 17-21 22-14 20-7 24 22 14 29-5 28-10 22-11 28-16 24-16 18-16 20-19 19-16 26-7 27-10 28-11 23-11 25-14 13-20-18-20-28 0-27 8-26 15-22 20-11 22-3 28 7 23 17 20 26 13 24 5 27-1 28-8 23-9 27-16 20-14 23-20 23-23 14-21 16-18 26-7 27-8 23-9 22-18 14-22 2-27-20-16-24-4-31 8-27 14-25 18-18 17-12 27 1 27 15 26 24 15 27 6 25 2 28-3 27-3 26-6"/>
<path d="M14657 30902l-1-1 19-15 27-9 31-11 30-11 34-9 24-7 25-6 25-5 34-5 27-4"/>
<path d="M14692 30983l 0-1 24-10 26-11 31-12 30-12 31-10 33-10"/>
<path d="M14950 30793l-1-2 20-17 28-1 27 4 23 17 12 25-2 28-10 27-14 23-19 22-20 24-21 21-18 20-19 21"/>
<path d="M15355 30673l-2-4-15-24 11-22 32-8 30-6 33-3 25 0 32 3 30 8 21 12 14 24-2 24-16 31-19 24-24 25-28 24-31 24-33 24-32 23-32 20-28 20-22 16-25 21-13 22 23 15 29 1 26-3 30-5 32-8 38-9 37-8 38-9 37-7"/>
<path d="M15778 30795l-1-1-17 24-11 23-7 25 10 23 27 3 28-13 20-15 20-23 11-22-21 20-5 27 9 24 22 13 26-2 25-11 23-18 18-23 12-23 7-26-15 21-6 26 1 30 5 27 6 31 4 33 2 35-1 36-3 35-8 29-9 24-8-26 2-35 4-29 5-32 6-35 5-36 7-35 6-32 5-28 7-25 7-28 9-25 19-22 22-13 25 7 21 17 12 23 0 25-12 23-23 22-22 14-28 14"/>
<path d="M16380 30702l-1-4-15-20-22-12-24-3-25 8-22 14-20 20-15 24-7 24 2 28 15 19 25 10 30-1 23-9 24-18 22-26 15-22 12-25 9-27 6-27 2-32 0-33-3-37-1-39-1-39-4-37-3-32-5-25-10-28-13-21-17 21-8 28-6 35-2 25 2 28 3 29 5 29 9 29 7 27 8 26 7 25 13 33 14 28 16 26 18 22 19 18 29 14 26 5"/>
<path d="M16682 30652l 1-4 0-27-22-16-28 1-27 10-23 13-20 17-20 19-15 26-4 24 8 26 21 16 29 3 29-10 22-16 16-21 7 25 25 15 27 3 24-8 24-21 17-22 17-27 13-30 10-34 5-26 5-30 5-31 4-34 4-35 2-33 1-30 0-26-2-30-6-26-14 24-12 31-8 27-6 28-5 33-3 33-1 35-1 35 0 34 0 33 2 28 2 26 6 33 10 26 18 23 22 9 27-4 26-18 14-22 8-28"/>
<path d="M16806 30562l-9-1-32 1-28 0-32 3-26 3 25 0 33-4 28-3 31-4 34-3 35-2 32 0"/>
<path d="M17024 30576l 0 0 19 17 27 3 24-6-14-23-23-15-24-6-27 4-23 11-19 19-12 26-2 26 10 25 20 20 28 14 26 4 29-3 30-7 30-13 27-17 25-21 19-23 14-24 8-23 5-24-17-18-24 7-16 21 6 26 17 24 18 22 20 23 18 25 20 21 15 19 9 23-20 15-26 3-24 1-27 0-29-2 25-8 24-2 28-1 30-2 32-2"/>
</svg>
