<svg xmlns="http://www.w3.org/2000/svg" viewBox="894 -14684 8624 7656" stroke="black" stroke-width="20" stroke-linecap="round" stroke-linejoin="round" fill="none" data-xena="0 0 0"><style>@media(prefers-color-scheme:dark){svg{background-color:black;stroke:white;}}</style>
<path d="M2320 -13840l 0-1-2-2-1-1-1 0 0-1 0 0 0 3-1 0 0 3 1 1 0 2 2 3 1 3 2 4 2 5 3 7 6 13 4 7 3 9 5 10 4 9 5 10 5 11 5 12 6 12 5 12 7 12 5 12 7 13 6 12 7 13 6 13 6 13 6 13 7 14 6 13 7 14 6 14 6 14 7 14 6 14 7 15 5 15 7 15 6 15 7 15 5 15 7 16 6 15 6 15 6 14 5 15 5 14 5 14 5 14 5 15 4 13 5 15 5 13 5 14 5 13 4 14 5 12 9 26 3 11 5 12 3 12 4 10 3 10 3 10 3 10 3 9 4 9 2 9 3 8 3 9 3 8 3 8 3 8 3 8 2 8 3 7 2 8 3 7 2 7 3 7 2 8 2 6 2 6 3 7 2 6 1 5 3 5 2 5 1 4 2 3 1 4 1 3 1 2 1 2 1 2 0 1 0 1 0 0 0-1 1-1 0 0-1-1 0-2 0-2"/>
<path d="M2184 -14230l-1 0 0-1 0 0-1 0-1 0-1-1 0 0-1-1-1 0 0-1 0 2 0 1 0 3 1 2 0 8 1 4 0 14 0 6 0 28 1 8 0 62-1 14 0 44 1 10 0 28 1 9 0 9 1 8 0 8 0 7 1 8 1 14 1 8 2 7 1 6"/>
<path d="M2777 -12855l 1-1 0-1 0-1 0-1 1-1 1-1 0-1 1-2 1 0 1-1 0 0 1-1 1 0 1-1 1-1 1 0 0-1 1 0 1 0 2 0 0 0-1 0 1 1 0 4 1 3 0 12 0 5 0 4-1 5-1 5-1 6-1 5-1 5-1 6-1 6-1 6-1 5-1 7-1 5-1 5-1 5-1 5-1 5 0 3 0 4 0 15 0 3 1 3 0 2 1 3 1 2 0 3 2 2 2 2 2 1 2 2 3 1 3 2 3 1 9 3 5 1 6 0 5 1 14 0 8-1 7-1 9-1 8-1 9-2 10-2 9-2 10-2 9-2 10-2 10-4 10-4 10-2 9-4 10-4 9-2 10-4 9-3 10-3 9-2 8-2 8-2 8-2 7-1 6-1 5-2 5-1 4-1 4-1 4-1"/>
<path d="M2959 -12850l-1 1-2 2-1 1-1 2-1 1 0 3-1 2-1 4 0 9-1 5 0 20 2 17 1 9 2 10 2 10 2 10 3 10 2 11 3 12 2 10 3 12 3 11 2 11 3 11 2 10 2 11 2 11 3 10 2 10 2 10 2 9 2 9 2 10 1 8 3 9 1 10 3 15 1 8 2 7 1 6 2 6"/>
<path d="M2278 -13841l 0-2 1 0 0-1 0-1 1-1 2-2 0 1 0 0 0 0 0 1-1 0 0 1-1 0-1 2 0 1 0 2-2 3-3 7-2 5-17 34-10 19-6 10-6 12-6 13-8 14-9 13-8 15-10 15-10 16-10 17-12 17-12 19-12 19-13 19-14 19-13 21-13 21-14 21-12 21-13 20-12 21-12 21-11 21-10 20-11 20-11 19-13 19-10 20-12 19-12 20-11 18-10 19-10 18-10 18-17 31-8 16-9 13-7 14-7 13-7 12-6 11-6 12-5 10-5 9-5 9-5 7-4 8-4 6-3 6-2 6-2 5-3 5-1 4-1 3-2 4-1 3-1 2-1 2 0 1-1 2-1 1 0 3 0-1 0 1-1 0 0-1 2 0 0 1"/>
<path d="M1513 -12927l 0-1 1 0 2 1 3 0 3 1 2 0 3 0 3 1 4 0 4 1 4 0 5 1 22 0 8 1 7 0 5-1 3 0 4 1 13 0 3 1 3 0 2 0 2 1 0 1 2 1 1 0 0 0 0 2 1 1 0 7-1 2 0 2-2 3-2 3-1 3-3 4-3 3-3 4-4 3-3 5-4 5-4 4-4 5-5 5-5 5-5 5-5 5-5 4-6 5-5 6-6 5-5 5-5 4-5 5-5 5-5 4-5 5-5 4-4 4-4 3-5 5-3 3-4 4-3 3-2 2-2 3-2 2-4 3 0 1 0 1-1 0 0 2-1 0 0 1 1 0-1 0 1 0 1 1 1 1 2 0 2 1 1 2 2 0 2 2 3 1 2 2 3 1 2 1 3 3 3 1 4 1 3 2 3 1 4 2 5 0 5 2 6 0 7 1 21 0 8-1 8-1 9-1 9-1 9-1 8-2 10-2 9-2 11-2"/>
<path d="M2381 -13811l-1-1-1 0-1-2-1-1-2-1-2-1-1-1-1-1-1-1-1-1-1-1-1 0-2-2 0 0-2-1-1 0 0-1-1-1-1 0 0 0 0-1-1-1 0-1 5 0 1 1 2 1 1 1 3 0 4 2 4 1 5 2 5 0 6 2 7 2 7 1 7 2 9 2 8 2 9 2 10 3 10 2 11 3 12 2 12 3 13 2 12 2 14 4 14 3 14 3 13 2 14 3 15 4 14 3 15 4 15 4 15 5 15 4 16 5 16 5 15 6 15 6 18 6 17 6 18 7 18 7 20 8 21 8 21 8 22 9 23 8 25 10 25 9 25 9 27 9 25 10 27 9 28 11 27 10 28 11 26 10 29 11 28 11 28 12 29 11 27 12 28 12 27 13 27 12 26 14 25 13 49 28 24 13 45 26 22 12 21 13 21 11 21 11 20 11 21 10 20 11 39 20 17 9 18 10 17 8 15 9 16 8 14 8 15 7 13 8 12 5 11 6 12 5 10 5 8 4 9 4 7 3 6 3 7 3 5 3 5 3 4 2 3 1 3 2 1 1 2 0 0 1 0 1 1 0-3 0 0 5"/>
<path d="M4264 -13190l-1 0-2 1-1 0-1 1-2 2-2 1-2 1-2 3-3 2-3 4-3 4-3 4-4 5-3 4-4 6-3 5-5 6-4 6-3 6-5 8-4 7-7 18-4 8-3 10-2 10-3 9-2 11-3 10-2 11-1 9-1 11-1 10 0 11 1 10 1 10 1 10 2 10 2 10 3 8 3 9 2 8 4 8 4 7 5 7 5 6 5 6 6 6 6 5 5 5 5 5 5 5 6 5 6 5 5 4 6 3 5 4 6 3 6 2 5 2 6 2 7 1 12 0 5-1 6 0 7-2 7-1 6-2 7-3 6-3 6-4 6-3 6-5 4-4 5-4 4-4 4-5 3-4 3-4 2-4 2-3 1-4 1-4 1-2 0-4-1-4 0-3-1-4-2-3-1-4-2-3-3-4-3-4-3-4-3-3-4-4-4-3-4-3-4-3-4-2-5-3-5-2-5-3-10-2-5-1-10-2-5 1-5 0-5 1-5 1-5 2-4 1-4 2-8 5-3 2-4 3-3 2-3 3-3 3-3 3-3 3-2 3-2 3-2 3-1 4-3 3"/>
<path d="M2616 -12751l 1 0-2 0 0 1 0 0 0 0-2 2-1 1-1 2-2 2-2 3-2 5-3 5-2 6-3 7-3 7-3 8-4 8-2 9-4 10-4 11-4 12-4 12-5 14-5 14-6 15-6 17-7 19-8 19-8 20-9 22-9 21-9 23-10 24-10 24-10 24-11 24-11 25-10 26-13 26-10 25-12 25-11 25-12 24-10 24-10 24-10 23-10 23-7 21-8 22-7 20-8 20-6 19-6 18-6 18-5 16-6 16-6 17-5 16-4 14-5 13-3 13-4 13-3 12-3 10-3 10-2 9-1 7-2 6 0 6-1 4-1 3 0 3 0 2 0 5-1 0 1 0 0-1 0 0 0-2 1 0-1 0 1 0 0-2 1-2"/>
<path d="M2001 -11659l 1 0 0 1 1 0 2 0 1 0 3 1 2 1 4 1 3 0 4 0 8 0 5 0 5 0 5-1 6-1 6-1 6-2 7-1 7-2 7-2 6-2 7-2 6-2 7-2 5-2 6-3 6-2 5-4"/>
<path d="M2015 -11651l-1 0-1 1-3 0 0 0-1 0 0 2 0 2-2 2-1 3-2 4-3 5-1 6-3 6-2 7-2 6-2 7-2 6-1 6-2 5-1 5-1 5 0 5-1 4 0 9-1 3 0 18 1 2 0 2 1 2 0 1 1 0 1 2 1 0 2 1 11 0 9-2 5-1 6-1 6-2 7-2 7-2 6-3 8-3 7-2 8-2 7-3 8-3 9-3 8-3 9-2 9-3 8-2 9-2 8-2 8-2 8-1 8-1 8-1 13 0 5 2 6 1 6 2 5 2 4 2 4 3 3 3 4 4 3 4 2 5 2 5 1 6 1 6 1 7 0 8-1 8-2 9-4 18-4 10-4 10-5 9-5 8-6 10-6 8-8 9-7 8-8 7-10 6-9 7-10 6-10 6-11 5-10 4-10 4-11 3-11 3-10 2-10 0-18 0-9-1-8-1-7-3-7-3-6-4-6-3-5-5-5-5-4-6-3-7-3-9-2-8 0-11"/>
<path d="M2700 -12690l 1 0 0 1 1 0 0 0 1 0 1 1 0 1 2 1 2 2 2 2 4 2 4 4 4 4 4 4 6 6 6 6 6 6 6 7 6 8 8 9 7 8 8 10 9 9 9 11 10 11 11 12 11 13 11 13 11 13 13 15 12 14 12 15 12 15 11 15 12 16 11 15 13 15 12 17 12 15 12 17 12 17 12 16 12 18 12 16 12 16 11 16 12 17 13 16 10 15 12 16 10 14 10 15 10 14 10 15 10 12 9 13 11 14 9 13 9 12 17 24 8 12 8 11 8 11 6 10 8 10 6 9 6 9 6 9 7 8 5 9 6 8 5 8 5 8 5 7 5 8 4 7 5 8 3 6 4 7 4 7 4 6 2 6 4 7 3 6 3 7 3 5 4 5 6 12 3 6 4 5 4 5 4 5 3 5 4 5 3 4 4 3 3 4 3 3 2 3 3 2 2 2 3 1 2 2 1 1 2 1 1 1 1 0 3 0 0 0 0-1 1-1 1-2 1-2"/>
<path d="M3521 -11652l 1 0 0-1 0-1 2 0 1-1 1 0 3-2 3-1 4-1 5-2 6-2 7-2 6-1 8-2 8-1 8-2 8-1 8 0 7-1 8 0 8-1 8 0 7-1 19 0 5 1 5 0 3 1 3 1 2 1 2 0 2 2 1 1 0 2 1 1 0 2-1 2-1 3-1 4-2 3-2 5-3 4-3 5-3 4-4 6-4 5-5 4-5 5-5 5-5 5-4 4-5 4-3 4-5 3-3 5-2 2-3 3-2 2-3 3 0 1-1 1 1 0 0 0 1 0 2 1 2 1 1 1 4 1 3 2 4 2 5 2 5 1 5 2 6 2 6 2 6 2 6 1 6 3 6 1 5 2 6 2 5 2 6 3 5 3 4 2 5 3 4 3 4 3 3 2 3 3 2 3 3 3 2 4 2 3 1 3 1 5 1 3 0 10-1 5-1 6-1 5-2 6-2 6-3 6-4 6-3 5-5 6-3 6-5 5-5 5-6 5-6 5-6 5-6 4-7 4-6 2-8 3-7 2-6 3-8 1-7 1-8 2-7 0-14 2-7 1-15 0-7 0-14 0-7 0-14-2-6-2-8-1-7-2-8-3-7-3-8-3"/>
<path d="M2482 -14317l 0-1 1 0 0-1 4-4 2-1 2-2 2-1 3-2 4-2 3-2 4-2 4-2 5-1 5-3 6-2 5-1 6-2 6 0 6-2 6 0 6-2 6-1 5 0 6-1 19 0 5 1 3 0 3 1 3 1 2 1 2 2 1 1 1 2 0 2 0 3-1 4-1 3-2 3-2 4-2 4-3 4-4 5-3 5-4 4-4 5-4 4-4 4-4 4-4 4-5 5-4 3-4 3-4 3-3 3-3 2-2 2-3 2-2 1-2 1-1 1-1 1-1 1 10 0 2-1 11 0 4-1 39 0 5 2 4 0 5 0 5 2 4 0 3 3 4 1 4 2 2 2 3 2 3 3 2 4 2 3 1 3 2 9 0 4-1 4-1 5-1 4-2 5-3 4-2 5-3 5-2 5-4 5-4 5-5 5-4 5-4 4-6 3-5 5-6 3-6 5-6 2-6 4-7 3-12 5-14 3-12 3-12 3-12 2-10 0-8 1-5 0-8-1-5-1-9-3"/>
<path d="M2532 -14477l-1-1-1 0-2 0-1 0-3-2-2-1-2 0-2 0-11 0-3 0-3 1-3 1-3 1-4 2-3 2-4 2-3 3-4 3-4 3-4 4-5 5-4 5-5 5-4 6-5 7-5 7-6 8-5 8-6 9-5 10-6 10-5 11-5 11-6 11-5 11-5 13-4 12-5 13-4 13-3 12-4 13-3 12-2 12-2 12-2 12-1 10-1 10 0 11 2 19 2 16 3 14 3 12 6 11 6 8 5 7 7 7 6 5 7 5 7 5 7 5 7 5 8 4 8 5 8 4 8 3 8 3 9 2 8 2 10 3 9 2 10 1 9 1 10 0 22 0 10-1 12-1 11-3 12-2 12-3 12-4 11-3 12-5 12-5 11-6 12-7 12-6 5-4 6-3 6-4 6-5 7-5 7-6 6-5 7-7 6-7 7-8 6-7 7-9 6-9 11-20 6-10 5-12 4-10 4-12 3-12 2-12 1-12 1-13 0-12-1-13-2-13-3-13-3-13-4-13-5-13-6-14-7-13-7-12-8-13-8-13-9-12-9-11-20-21-10-10-21-18-10-7-10-5-11-5-11-5-10-3-11-2-10 0-10 0-10 0-10 2-10 2-19 7-10 5-9 6-9 6"/>
<path d="M1267 -13119l 1-1 0 0 0-1 2-2 1 0 2-2 3-2 3-1 4-2 4-3 4-2 4-2 4-2 4-2 5-2 4-2 4-2 5-1 4-2 4-1 9-3 3-1 4-1 3 0 4-1 2 0 2 1 2 0 3 1 0 0 2 2 1 0 0 2 1 2 0 1-1 3-1 3-1 4-3 3-3 5-2 5-4 5-4 6-4 6-10 15-6 6-5 7-5 7-6 5-6 6-6 7-5 5-7 5-5 5-5 5-5 5-5 5-5 4-5 5-5 4-5 5-5 5-4 4-4 5-4 4-3 4-3 3-3 3-2 2-2 2 0 2-2 1 0 2 1 0 1-1 15 0 5-1 5 1 6-2 6 0 6-2 7-3 7-2 7-3 6-2 7-4 7-4 8-3 7-4 7-3 6-5 8-3 7-4 8-3 6-3 7-4 7-3 7-5 6-4 7-3"/>
<path d="M1310 -13293l-7-1-5-1-5-2-7 0-7-2-13-2-5-1-20 0-7 1-14 2-6 1-8 1-6 3-7 2-8 3-7 4-7 3-7 5-8 5-7 5-8 7-7 7-13 17-6 9-6 10-6 11-5 12-7 12-5 11-5 12-5 14-5 14-5 15-3 14-4 16-1 14-2 15-1 15-1 15 0 14 1 14 1 13 1 13 2 12 3 12 3 10 4 10 4 10 10 15 6 7 6 6 6 7 7 5 7 5 8 5 8 5 8 4 10 4 10 3 10 2 10 2 11 2 11 2 11 1 24 0 11-1 12-1 11-2 11-2 11-3 11-3 10-4 10-4 9-5 10-5 9-5 10-6 9-6 9-6 9-7 8-8 9-7 8-7 8-8 7-8 8-9 6-10 7-9 7-10 6-10 7-10 6-10 6-10 10-19 4-9 4-8 2-10 3-9 1-9 1-10 0-19-1-9-1-10-3-10-3-10-4-11-4-10-6-11-5-10-7-12-6-11-7-12-8-12-7-11-8-12-8-11-9-12-8-10-8-11-9-10-9-9-8-8-8-7-8-7-7-5-7-5-7-3-6-3-5-3-6-2-7-1-7-1-14 0-7 1-7 2-8 2-8 3-8 3-7 4-7 5-8 5-7 5-8 7-7 7-7 8-7 8"/>
<path d="M3926 -11377l 0 3-1 1 0 5 1 2 0 3 1 3 0 4 1 5 1 6 1 6 0 6 1 6 0 7 1 7 0 7 1 7 0 7 1 8 1 8 0 8 1 8 1 8 0 9 1 9 2 9 1 20 1 11 0 11 1 12 2 12 0 12 2 13 1 13 1 11 1 12 3 20 2 10 1 7 1 6 1 5 1 4 1 3 1 3 1 2 0 1 0 1 1 0 1-1 1-1 0-2 1-3"/>
<path d="M3935 -11500l-1-1-1-1-2-1-1-1-1-2-3-1-1-1-2-1-2-1-1-1-2-1-2-1-2-1-1-1-2-1-2 0-3-1-2 0-3-1-2 0-3-1-7 0-3 1-4 1-4 1-10 1-5 2-5 2-5 3-6 3-5 3-4 4-5 5-5 4-5 6-5 5-6 7-5 6-5 6-6 8-5 8-5 7-5 8-5 9-10 20-5 12-5 11-5 13-4 12-3 13-3 14-4 13-3 14-2 15-1 15-2 16 0 15 0 17 1 16 1 17 3 17 2 16 4 16 4 16 5 15 5 13 7 14 6 13 7 12 7 11 8 11 8 10 8 10 9 9 8 7 9 8 9 7 9 6 10 6 9 6 10 4 10 4 10 4 10 2 11 3 10 2 11 1 11 0 11 0 12-1 10-2 11-3 11-2 10-3 12-5 11-5 12-6 11-6 11-7 11-8 10-8 10-8 18-19 17-21 8-12 8-11 7-12 7-12 7-13 5-13 6-11 5-12 4-13 3-12 4-12 1-11 2-12 0-13 0-11-2-13-3-13-4-13-4-15-5-15-7-15-6-13-7-15-8-14-9-16-8-13-9-13-8-11-10-11-10-9-10-8-10-7-10-5-12-6-10-4-11-3-12-2-11-2-11 0-23 0-10 1-12 1-12 2-12 1-11 3-13 2-12 3-12 4-11 3-12 3-11 4-10 3-11 4-10 3"/>
<path d="M3135 -12913l 0-1 1 0 0-1 1-1 2-1 1-2 3-1 3-2 5-2 5-3 5-4 5-3 7-2 6-3 7-3 6-2 6-2 6-1 7-2 5-2 12-3 5 0 4-1 5-1 12 0 2 1 3 1 3 0 3 2 1 1 1 1 0 5-1 2 0 2-1 3-1 3-1 3-2 3-2 4-3 3-2 5-3 4-3 4-4 4-3 3-2 5-4 3-2 2-3 3-3 3-2 3-2 2-2 2-2 2-2 1-1 2-1 0 0 1-1 1 0 0 0 0 1-1 1 0-1-1 1 0 1 0 1 0 1-1 4 0 3-1 6 0 4 0 10 0 5 0 15 0 5 1 5 0 15 2 4 1 4 0 4 1 3 2 3 0 2 2 3 2 1 1 2 2 3 5 1 3 0 2 1 4 0 8-1 5-1 5-1 5-3 6-2 5-3 6-3 6-4 5-5 5-5 6-5 5-5 6-6 5-6 5-6 5-7 5-6 4-6 5-7 4-7 3-7 4-7 3-7 3-6 3-7 2-6 2-6 3-6 1-4 1-5 1-4 0-4-1-4-1-3-1-3-3-2-2-2-2-1-3-2-4 0-3"/>
<path d="M3245 -13103l-2-1-3 1-24 0-4 1-5 0-4 1-5 2-5 0-5 3-5 1-6 2-6 2-6 3-6 3-5 3-7 5-7 4-6 5-7 5-6 5-7 6-6 6-7 6-7 7-6 8-7 9-6 10-13 23-6 12-5 12-5 13-5 12-4 13-4 12-4 13-2 12-2 12-3 25 0 24 3 24 2 13 3 10 4 11 10 21 5 10 7 10 7 9 7 9 9 8 8 9 9 7 10 8 10 7 12 5 11 6 12 4 13 5 14 3 13 3 29 3 15 1 15 0 16-1 15-1 15-2 15-2 16-3 16-3 15-5 15-5 15-5 14-8 14-6 13-8 14-8 13-10 12-9 12-10 20-21 9-10 7-12 6-11 7-12 5-11 4-12 3-12 3-11 2-11 2-11 1-11 0-11-2-10-2-10-2-10-4-10-4-11-6-12-5-11-8-11-7-12-8-12-10-13-10-13-10-12-12-13-11-11-12-11-12-11-11-10-12-8-12-7-11-7-12-5-11-4-12-3-12-2-14-1-13 0-13 0-13 2-14 2-14 3-14 4-14 5-13 6-13 6-14 8-12 7-11 8-12 9-11 7-10 9"/>
<path d="M2221 -11226l 0-1 0 1 2 0 2-1 1 0 2 0 3-1 3-2 3 0 5-2 5-1 10-3 5-1 5-1 6-2 4 0 6 0 4-1 5-1 9 0 4 1 2 1 3 0 3 0 2 2 2 1 2 0 3 5 0 2 0 15 0 5-2 7-3 6-2 7-3 7-2 7-5 7-3 7-3 7-4 7-4 6-4 5-5 6-4 5-4 5-5 4-4 5-5 5-5 3-5 4-4 3-4 4-3 3-4 3-3 3-2 2-1 2-2 3-2 1-1 1-1 0 0 2 1-1 1 0 0-1 5 0 2 1 5 0 9 2 10 0 11-2 6-1 7 0 5-1 6-1 6-2 7-2 6-2 6-3 7-4 7-3 7-5 8-4 7-5"/>
<path d="M2313 -11334l-2-2-4-2-4-2-4-2-6-3-6-3-5-2-5-2-5-1-10-3-5-1-5 0-5-1-5 1-5 1-6 1-5 2-7 3-5 2-7 3-6 5-7 4-6 5-7 5-7 7-7 6-8 7-7 7-7 9-6 8-6 9-6 10-5 9-6 10-5 11-4 11-5 12-4 12-3 14-3 14-3 14-1 15-1 14 0 15 1 15 1 14 3 15 2 14 3 13 5 12 4 12 5 11 6 11 7 9 7 9 7 8 8 7 8 7 9 6 10 6 10 5 10 4 11 4 11 3 12 2 12 1 13 1 13 0 13 0 14-2 14-3 13-5 15-5 15-6 14-6 16-9 15-9 15-10 30-20 14-11 14-12 12-12 13-12 12-14 12-14 10-14 9-14 9-15 8-14 5-14 5-14 4-14 3-13 3-13 1-12 1-13 0-12-2-11-2-11-3-11-5-10-5-10-7-10-8-10-9-9-9-8-12-10-13-9-13-8-14-8-16-8-16-8-17-7-18-7-17-6-17-6-17-4-17-3-18-2-16-2-16 1-15 2-15 3-14 4-13 5-13 5-11 5-12 5-10 6-8 6-8 6-8 6-6 6-5 5-4 7-3 6 0 5"/>
<path d="M4699 -13202l-1 0 0 1 0 10 0 3 1 4 1 5 1 6 1 6 1 7 2 8 2 8 1 8 2 8 1 9 2 8 2 9 2 9 1 7 2 9 3 9 1 8 2 9 2 8 2 8 2 8 2 7 1 7 3 7 2 6 0 6 3 4 1 5 3 7 1 3 2 2"/>
<path d="M4701 -13360l-4 0-1-1-10 0-3 1-3 0-3 1-5 0-4 2-5 1-6 2-6 2-6 3-6 3-7 5-6 4-6 5-7 5-6 6-7 7-6 8-5 9-7 9-6 10-6 10-5 12-5 12-10 26-5 14-5 14-3 15-4 15-3 16-2 15-2 17-1 16 0 32 0 16 2 17 3 15 3 15 4 15 4 15 5 14 5 13 6 13 8 10 7 10 7 10 8 8 8 7 10 7 9 6 10 5 11 5 12 4 12 3 12 2 13 2 13 1 13 0 12-1 13-2 13-2 13-3 14-3 13-4 14-5 13-5 14-5 13-7 13-7 14-6 13-8 14-10 12-8 13-10 11-11 11-11 20-21 9-11 8-11 7-12 7-11 6-11 5-12 4-11 3-12 3-11 2-11 0-11 0-23-2-11-2-12-3-11-4-12-5-11-6-12-6-13-7-13-9-12-9-12-10-13-11-13-11-12-11-11-13-10-13-10-13-9-13-9-14-8-13-6-13-6-14-5-14-3-13-4-13-1-13-1-12 1-13 0-12 2-11 3-12 4-12 4-13 4-12 5-11 6-11 6-10 7-9 7-8 7-7 7-6 8"/>
<path d="M6795 -13880l 1-4-1-6 0-59-1-6 0-6-1-6-2-5-1-5-1-5-3-4-2-3-2-4-3-3-3-3-3-2-4-1-4-2-4 0-10 0-12 3-6 2-7 5-7 5-8 5-7 7-9 8-9 9-8 11-9 10-8 12-7 12-7 12-6 14-5 11-5 11-2 11-3 10-2 8 0 7 0 7 1 5 1 5 3 4 1 4 4 2 3 3 4 2 5 1 6 1 12 0 7-2 8-1 7-1 8-3 7-4 8-4 7-4 7-5 7-5 6-6 6-6 6-6 5-5 3-5 5-5 3-4 3-4 2-4 2-3 3-2 1-1 1-2 0-1 0-1 1 0 0 0 0 0-1 1 0 1 0 1 0 2 0 2 1 3 1 5 1 4 1 6 1 6 2 7 1 7 2 8 2 8 1 9 2 8 2 9 2 10 2 10 2 10 2 10 1 10 2 12 1 11 1 11 1 13 1 12 0 52-2 14-1 14-1 14-3 14-2 15-3 13-3 14-4 14-3 13-5 12-4 12-4 10-4 10-5 10-5 8-4 8-4 7-5 5-4 5-4 4-4 3-4 3-4 2-3 1-8 0-4-1-5-2-4-3-4-4-4-4-4-5-4-5-4-6-3-7-3-8-2-8-2-10-1-10 0-12 1-13 2-15 3-15 4-17 6-18 5-19 7-19 9-20 18-42 11-20 11-22 11-19"/>
<path d="M6922 -13981l-1 1-3 1-2 2-4 2-4 2-3 3-4 3-4 2-3 3-3 2-3 3-3 4-3 3-3 3-3 3-2 4-2 3-2 3-2 5-2 4-2 5-1 6-2 6-2 6-1 7-1 7-1 6 0 6 0 13 0 6 1 5 1 5 2 5 2 5 3 4 2 4 3 4 3 3 4 2 4 3 5 2 5 1 10 2 7 0 6-1 7-1 7-1 8-3 7-2 7-4 7-4 6-3 6-5 5-5 5-4 4-6 3-6 4-5 2-5 2-6 2-5 0-6 1-6 0-5-1-5-1-5-2-5-2-5-3-4-4-3-3-4-5-4-5-2-4-3-6-2-5-3-6-1-7-1-6-1-6-1-18 0-5 1-5 1-4 0-3 1-3 1-2 1-1 1-2 1 0 2 1 1 2 2 2 1 3 1 3 1"/>
<path d="M7112 -13980l-1 0-1 1-2 0-1 0-2 0-3 1-2 1-3 1-3 1-3 1-3 3-5 2-3 3-4 3-4 4-4 3-4 5-4 5-4 4-3 4-4 4-3 5-3 5-3 5-2 4-2 4-1 5-1 4-1 5 0 8 1 5 2 4 2 4 2 3 2 4 4 3 3 2 4 3 5 2 4 2 5 2 6 1 5 1 6 1 7-1 7 0 6-1 7-2 7-3 8-2 7-4 6-4 7-5 5-5 5-5 5-5 4-6 3-5 3-6 2-5 1-5 2-4 0-6 0-4 0-4-1-4-2-5-2-3-1-5-3-4-4-4-3-3-4-4-5-3-5-3-5-4-6-3-6-2-5-3-6-2-5-1-5-2-5 0-5-1-7 0-3 1-2 0-2 1-1 1-1 1-1 2 0 3 1 2"/>
<path d="M7316 -14015l-1-1-2 0-2-2-3-1-3-1-3-1-4-1-4-1-4 0-4-1-4 1-10 2-5 2-6 3-6 2-5 4-6 5-7 5-12 13-7 8-6 7-13 17-5 9-5 9-4 9-4 8-2 9-2 8-2 16 1 8 1 7 2 6 2 6 3 4 3 5 4 3 4 3 5 2 5 2 5 0 12 0 5-1 7-3 7-4 7-4 7-6 7-7 8-8 7-9 7-10 13-21 6-12 6-12 6-11 6-12 10-26 4-13 5-14 2-13 2-7 1-7 1-8 1-7 0-9 1-9 0-18-1-9-1-22-1-12-1-11-2-13-2-12-3-13-2-14-2-13-6-25-2-13-3-11-4-11-3-10-3-9-2-9-3-8-3-7-2-6-2-5-3-4-2-4-2-3-2-1-1-2-3 0-2 1-2 2-2 2-3 3-2 5-2 5-2 7-3 8-2 9-3 10-2 11-3 12-2 14-2 15-3 30-2 33-2 33 0 65 2 30 2 26 2 24 2 23 3 21 4 21 4 18 5 18 6 17 7 17 7 15 7 14 6 13 8 11 8 10 9 10 7 7 10 6"/>
<path d="M7988 -13825l 1 0 0-1 1-1 1-2 1-1 2-3 3-3 2-4 4-4 5-6 5-7 6-7 5-7 7-8 7-9 7-9 7-9 7-9 7-10 7-9 7-8 6-9 6-9 6-9 6-8 5-8 4-8 4-8 2-7 3-6 1-7 1-5 1-6 0-12-1-4 0-3-2-2 0-2-1-1-2-3-1 0-1 0 0 0-1 1 0 4 1 3 0 2 1 9 1 5 2 5 1 5 2 6 2 5 3 5 2 5 3 5 3 5 4 5 3 5 4 4 4 5 3 4 4 5 3 4 3 3 6 9 3 4 2 4 2 4 2 4 2 4 0 4 1 5 0 4-1 4-1 4-2 5-2 5-4 6-4 5-5 5-5 5-6 5-6 4-7 5-7 3-7 2-7 3-7 2-6 2-6 1-6 0-5 1-4 1-13 0-2-1-2 0 0-1 2-3 2 0 1-1 2-1 3-1 4-2 3-2 5-2 6-3 6-3 6-4 6-3 8-5 7-5 7-4 8-5 8-5 7-6 8-5 8-6 9-7 8-5 9-6 8-6 8-5 7-7 8-6 8-5 7-5 6-6 6-5 5-6 6-5 4-5 5-5 4-6 4-4 2-5 3-4 2-4 1-2 2-3 0-2 1-2 0-3-1 0-3 2-1 0-1 2-3 1-2 2-2 2-2 2-3 4-3 5-3 4-2 4-3 5-2 5-1 5-2 4-1 5-1 4 0 4 0 5-1 4 0 4 1 4 0 3 0 3 0 4 2 2 0 3 2 1 1 2 1 2 2 1 2 1 3 1 9 0 5-1 4-2 5-2 4-2 5-3 5-2 5-3 5-3 4-3 3-4 3-3 2-2 3-3 1-1 1-2 1-2 1-1 1-1 0-1 0-2 0 3 0 0 0 2 0 2 0 1 1 2 1 0 0 2 2 1 3 5 2 1 2 2 3 1 3 2 3 1 4 1 3 1 5 0 5-1 5-1 5 0 6-2 6-3 7-2 7-3 7-5 8-4 8-5 8-6 8-7 9-8 9-7 8-8 9-9 8-10 10-11 4-5 4-5 5-6 4-6 5-6 5-7 5-7 5-8 5-7 4-9 4-9 5-8 4-9 3-10 3-9 3-9 3-10 2-10 2-10 0-9 1-8 0-9-1-8 0-8-2-7-1-7-2-6-3-5-2-5-3-5-2-4-3-3-3-2-3-1-4-1-3 1-4 1-5 2-3 3-10 9-4 6-5 6-6 8-5 8-5 9-5 10-5 11-5 11-5 11-9 23-7 23-6 23-3 21-2 20 0 17 0 16 2 14 2 13 3 11 3 11 3 10 4 9 5 9 4 7 4 8 5 7 5 5 5 7 6 5 6 6 5 4 5 4 5 4 5 3 6 4 4 2 5 2 5 2 5 1 5 1 8 0 4-2 3 0 4-3 2-2 4-5 3-4 0-4 2-4 0-4-1-4-1-5-2-5-2-5-3-5-3-5-5-5-4-4-5-5-6-4-5-5-5-4-6-4-6-6-5-5-6-6-5-4-4-5-4-4-4-4-4-3-4-3-2-2-2-2-1 0-2-3-1 0 0-1 1 0 1-1 5 0 4 0 3 0 5-1 5-1 7-1 7 0 9-1 9-1 10-1 10-1 12-1 11-2"/>
<path d="M8713 -14260l-1 1 0 1 0 1 0 1-1 2-1 2 0 1-1 3 0 3 0 4-1 4 0 5-1 5 0 6 0 6-1 7 0 16-1 8 0 68-1 37-1 17-1 16 0 15-1 13 0 14-1 13 0 12-1 13 0 32 2 10 1 10 0 8 2 9 2 8 3 8 3 6 2 6 3 5 4 3 3 5 5 2 4 3 5 1 5 0 6-1 5-2 7-2 7-4 8-5 7-6"/>
<path d="M8637 -14047l-1-1 0 0 1-1 1-1 2 0 3-1 7-4 5-2 6-2 6-3 8-4 8-3 8-4 9-3 9-2 4-2 6-1 5-2"/>
<path d="M8838 -14065l 1 0 2 1 3 0 2 0 3 0 2 1 2 1 2 1 2 0 3 0 2 2 2 0 5 3 2 1 2 1 4 4 1 2 1 2 1 2 1 3 1 2 0 3-1 2-1 3-1 4-1 3-2 5-1 5-2 5-2 5-3 5-2 5-3 5-4 5-2 4-3 4-3 5-3 4-4 7-2 4-2 3-1 3-1 3-1 3-1 2 0 3-1 2 0 3-1 2 1 2 0 5 1 3 1 2 0 2 1 3 1 2 2 3 1 2 5 4 2 2 3 2 3 1 3 2 4 1 8 1 5 1 5 0 5-1 6-1 6-1 5-2 5-2 6-3 5-3 6-3"/>
<path d="M8986 -13966l 1-1-1 1 0 1-1 0 0 1 0 0 0 1 0 0 0 1 1 0 1 0 1 0 2 1 1 1 2 0 3 0 3 0 7 0 4-1 7-1 5-1 3-2 3 0 4-2 3 0 4-2 3-1 6-2 3-1 4-3 2-1 1-1 1-2 1 0 0-2 2-3 0-5-1-2-1-3 0-1-2-3-4-6-6-5-3-3-4-2-4-2-4-2-3-1-4-1-4-1-10 0-4 1-3 1-5 1-3 2-5 1-4 2-4 4-4 3-4 3-4 4-4 5-3 4-5 5-3 6-3 5-4 5-3 5-2 6-3 5-1 6-1 6-2 6-1 6 0 13 1 7 2 5 1 7 2 6 2 6 4 5 3 5 4 5 4 4 5 4 5 3 5 4 6 2 6 2 7 2 6 2 7 1 8 0 16 0 9-1 8-2 7-2 9-2 8-3 9-3 8-4 8-4 8-4"/>
<path d="M9178 -13949l-1 0 0 1 0 0 7 0 2 0 3 0 5 0 4-1 4-1 4 0 4 0 4-1 5-2 4-1 4-1 5-1 5-2 4-1 5-2 4-2 9-4 5-3 4-2 4-3 5-3 4-3 3-4 3-4 4-4 3-3 2-4 2-3 1-3 2-3 1-3 0-5-1-2-1-1-1-3-2-2-3-2-2-2-3-2-3-2-4-2-4-1-4-2-5 0-5-1-5 0-6 1-6 0-7 3-6 2-7 3-8 3-7 4-7 5-8 5-7 5-6 7-6 6-6 7-5 8-5 7-4 6-4 7-2 7-3 6-2 7-1 7-1 7 0 13 1 8 1 7 2 7 2 6 3 6 3 6 2 5 5 5 3 4 5 5 5 4 5 5 7 3 5 4 8 3 8 3 9 3 9 3 20 3 11 0 33 0 12-1 11-1 12-3 11-2 12-3"/>
<path d="M7288 -12355l 0-1-1-1 0-1-3-3-1 0 0 1-1 1 0 0-1 0-2 0-1 1-2 0-2 1-3 1-4 1-3 1-5 3-6 2-6 3-8 2-7 4-9 5-9 5-10 6-12 7-13 7-12 8-15 9-15 10-15 10-18 12-18 12-19 13-19 15-19 14-21 14-21 16-23 16-22 16-22 18-23 18-23 20-23 18-22 21-22 21-23 20-22 20-22 21-22 21-22 21-22 21-23 22-23 22-24 23-22 22-25 23-24 23-25 21-24 23-24 22-24 22-24 21-23 21-22 21-21 20-22 20-20 19-20 19-20 17-17 14-17 15-16 13-14 11-13 11-12 9-10 8-8 7-8 5-5 5-4 3-3 3-3 1-1 1-1 1 1-1 1-1 0-1 2-1 1-1 2-3 5-3 5-5 5-6"/>
<path d="M7266 -12343l 0-1 0 18 1 6 0 6 0 8 1 8 1 10 1 11 0 13 1 13 1 15 1 17 2 18 0 19 1 21 1 22 1 23 1 24 1 25 1 25 1 25 1 25 2 26 1 24 1 26 1 22 2 23 0 23 2 23 1 22 2 22 1 22 2 22 2 21 1 22 2 19 2 21 0 20 2 20 1 19 1 19 1 18 0 18 1 17 1 16 0 15 0 14 1 14 0 13 1 13 0 24 1 10 0 10 0 8 0 8 1 7 0 6 1 6 0 3 0 4 1 2 0 1 1 3 1 0 0 0 0 0 0-4 1-2 1-2 0-3 2-5"/>
<path d="M7336 -12368l 1 0 0 1 0 0 1 0 1 1 1 1 2 1 2 2 2 3 3 2 3 3 5 5 4 3 5 4 6 5 6 5 7 6 8 6 9 6 9 6 9 7 10 7 12 7 12 8 13 7 13 8 15 9 16 8 16 10 18 9 19 11 19 10 20 10 22 10 21 11 23 12 23 11 24 11 24 11 24 12 26 12 25 10 27 12 27 12 28 13 28 13 30 13 30 12 31 13 30 14 31 13 33 14 32 14 32 15 31 14 32 14 32 15 31 16 31 15 29 16 30 16 28 16 28 15 27 16 25 15 25 16 24 16 24 15 23 14 22 15 21 14 20 14 20 15 18 13 20 13 17 13 17 12 16 12 16 12 16 10 14 11 14 10 11 9 12 9 12 8 10 7 9 7 9 7 8 5 8 6 6 4 7 5 5 5 5 4 5 3 4 3 4 3 3 2 4 2 4 3 1 1 2 1 1 0 0 1-1 0-1-1"/>
<path d="M5922 -11224l 0-1 1 0 1 1 1 1 1 2 1 3 1 5 2 5 2 8 2 8 3 11 3 12 2 14 3 12 2 15 2 15 2 15 2 15 3 14 2 14 2 15 2 14 2 13 2 14 3 13 2 12 2 12 3 12 3 10 3 10 2 8 3 9 4 8 2 7 3 6"/>
<path d="M7416 -11078l 1 0 0 1-1 0 0 3-1 2 0 3-1 3-2 4-1 6-1 7-2 7-1 7-1 8-1 8 0 9-1 9 1 8 0 8 0 8 1 9 1 9 2 8 2 9 1 8 3 7 2 8 3 7 2 6 3 7 4 5 3 5 5 5"/>
<path d="M9041 -11232l 1-1 0 1-1 0 0 5 1 2 0 3 0 41 0 8 0 8-1 7-1 9 0 9 0 9-1 8 0 8-1 9 0 25-1 8 0 15 0 7 0 8-1 8-1 7 0 7 0 8-1 7-1 6-1 6 0 6 0 15"/>
<path d="M7186 -12729l 0-6 1 0 0 0 8 0 3-1 4 0 5-1 4-1 5 0 5 0 5 0 5 0 10 0 4 0 5 1 5 1 4 1 4 0 3 1 4 1 2 0 3 2 2 1 2 0 2 2 1 2 0 7 0 3-2 3-1 4-4 9-3 4-4 5-3 5-4 4-4 5-4 5-4 5-4 4-5 5-4 5-4 4-5 4-3 3-4 4-4 3-4 3-4 3-3 2-3 3-2 1-3 3-2 1-1 1-2 0 0 1 0 0 0-1 4 0 1 1 3 0 1 1 4 0 4 1 30 0 8-1 8 0 9-1 8-1 10 0 30-2 39 0 11 0 10 0 11 1"/>
<path d="M1676 -10211l-1 0-1-1-1 0 1 0 0 1 1 0 1 1 1 0 1 0 2 2 3 1 3 2 4 1 4 2 5 2 6 3 7 4 6 3 8 3 8 3 8 4 9 5 11 5 10 6 12 6 12 6 14 8 12 9 15 8 15 10 14 10 16 10 15 11 16 11 34 23 17 12 17 12 19 12 17 12 17 12 17 12 17 11 18 11 18 11 18 11 17 11 16 10 17 11 17 11 16 10 15 9 15 10 15 10 15 9 14 10 14 10 13 10 13 11 12 9 11 10 11 10 12 9 10 9 10 8 10 9 9 6 8 8 9 7 9 7 7 7 7 7 6 6 7 6 6 6 6 5 5 6 5 4 4 5 4 5 5 3 3 4 4 3 3 3 3 2 2 1 2 2 1 1 2 1 0 0 1 0 0 0 1 0 0 0-1 0 0 0 0 0-1 0 0 0-1 0 0-1-1 1 0 0-1 1"/>
<path d="M2495 -9647l 0-1 0 1 1 0 0 1-2 0 0 2 0 0 0 1-1 0 0 2-1 0 0 1-1 1 0 1-2 0 0 0-3 2-2 1-3 2-4 4-5 3-5 5-6 5-6 6-7 7-7 7-7 6-8 8-9 8-10 9-11 11-11 11-12 12-13 13-14 14-15 14-14 16-15 16-16 17-18 19-18 19-19 20-20 21-42 42-23 22-23 23-22 22-24 22-23 22-23 22-23 22-22 22-24 22-23 21-23 21-23 21-22 22-22 20-22 21-21 20-19 18-19 19-19 19-17 16-16 17-16 15-15 14-14 14-12 12-12 10-12 10-11 10-9 8-9 9-7 6-6 6-6 5-4 4-4 4-2 2-3 2-2 2-1 1-1 1-1-1 0 1-1 0-1 0 0 2 1 0 0-1 0 1 1 0-1-1 0 1 0-1 1 0-1 0 1 0 0-1 0 0 0 1 0-1 1 0 0 0-1 0 1-1-1 0 2 0 0 1 0 0 0-1 0 0 0 0 0-1 0 0 0 0 0-1 0 1 1 0 0 1-1 0 0-1 1 0-1 1 1-1 1 0-1 0 0-1-1 0 1 1 0 0 0 0 1 0-1 0 1 0-1 0 1 0-1 0 0 0-1 0 2 0 0 1-1-1 1 0-1 0 1 0 0 0-1 0 0 0 1 0 7 6 4 3 6 3 7 5 9 5 8 6 10 7 10 7 9 6 9 7 9 6 10 7 9 7 10 7 11 8 10 7 10 8 10 8 11 9 11 8 11 8 10 9 12 8 10 9 12 8 11 9 12 9 11 8 12 9 12 9 12 9 11 8 13 9 13 9 11 8 13 8 12 10 13 9 12 10 13 10 12 9 12 10 12 10 12 10 12 10 12 10 11 8 12 9 12 8 12 9 11 9 12 9 12 9 11 9 11 10 11 8 10 9 11 9 20 17 9 7 9 7 9 8 9 7 9 7 9 7 8 7 8 6 7 8 10 6 7 5 7 5 7 6 6 6 7 5 6 5 6 4 5 4 5 3 6 4 5 3 5 2 4 2 4 3 4 2 3 2 3 3 4 1 3 2 2 1 3 1 2 2 4 2 2 1 2 0 1 2 2 0 0 1 2 0 0 0 0 0 0 0-9 5-3 3-5 5-6 4-7 6-9 7-30 26-10 9-10 9-11 9-10 8-10 9-12 10-10 10-12 12-12 12-13 11-12 13-14 13-14 14-16 13-14 14-16 15-16 15-17 14-17 16-16 15-16 18-15 16-33 33-16 18-16 17-17 17-16 16-32 33-16 16-16 16-16 15-15 15-13 16-15 15-14 16-13 15-12 13-13 15-11 13-11 12-10 12-8 10-10 9-8 9-7 8-7 7-6 6-17 17-4 5-3 3-3 3-4 3-3 3-2 1 0 1-1 1 0 1 0 0 0 0 0-1 0 1 0-1 0 0 0 1 0-1 0 1 1 0-1 0 1 0-1-1 0 1 0-1 0 0 0 0 2 0-1 0 1 0 0-1 0 1 0-1 1 0 0-1 0-1 0 0 0 0 0-1 0 1 0 0 0-1 1 0"/>
<path d="M1426 -7381l 24 0 5-1 7 0 5 0 7 0 24 0 5 1 11 0 4 1 5 0 4 0 5 2 3 1 3 0 3 2 2 1 2 2 1 0 1 2 0 5 0 3-2 4 0 3-3 5-2 5-3 6-3 6-4 6-4 7-5 6-5 8-5 7-6 7-5 7-7 8-6 7-7 7-6 6-7 7-7 5-6 7-7 6-5 5-5 4-5 5-4 4-10 10-2 3-1 1-2 3-1 0 0 1-1 0 1 0 0-1 3 0 2 1 2 0 3 1 5 0 5 0 5 1 7 1 16 0 9 1 8 0 9-1 9-1 9 0 8-1 10-2 9 0 10-2 10-2 10-1 10-3 11-4 11-2 12-3"/>
<path d="M2561 -8127l 10 0 3 1 7 0 4 0 4 1 4 1 4 1 5 1 4 1 4 1 4 2 4 2 4 1 3 2 4 1 3 1 6 3 4 3 3 2 1 1 1 2 0 2 1 1 0 4-1 2 0 3-2 3-2 4-3 5-2 5-3 5-4 6-4 5-5 6-5 6-5 5-5 5-5 5-5 5-5 5-5 5-5 4-4 4-3 4-4 3-3 4-3 3-2 3-1 2-2 2-1 1-1 2 0 3 1 2 1 0 1 1 1 1 2 1 2 2 1 1 3 2 3 1 4 1 3 2 5 1 4 1 5 1 5 0 6 0 12 0 6 0 7-1 7-1 7 0 8-1 8-2 7-2 9-2 9-2 9-2 9-3 10-1"/>
<path d="M1204 -8911l 1-1 0 1 3 0 3-1 22 0 5 1 4 0 3 1 5 0 5 1 4 1 4 1 5 1 4 1 3 0 4 2 6 3 3 1 2 2 1 1 2 4 0 6-1 4-2 4-1 5-2 5-4 6-3 6-5 6-5 8-5 6-6 6-7 6-7 7-7 5-7 6-8 6-8 7-7 6-8 7-7 5-6 7-7 6-6 5-6 6-5 4-5 4-3 5-2 3-3 3-2 2-1 3-2 2 0 2-1 1-1 2 0 0 2 0 1 0 12 0 5 0 5 0 5 0 6-1 6-1 8-1 7-1 9-1 10-2 10-2 11-1 11-2"/>
<path d="M2660 -9819l 0-1-1 0 0 0 0-1-1 0 5 0 1-1 2 0 3-1 11 0 4 0 5 0 10 1 5 0 5 1 6 1 6 1 6 1 7 1 5 0 6 1 6 1 5 2 4 0 4 0 4 2 3 1 3 1 2 1 2 3 1 2 1 2 1 3 0 2 0 3 0 4-1 3-1 4-2 4-3 5-3 5-4 5-4 6-5 7-6 6-6 6-5 5-6 6-6 6-5 5-6 6-5 5-4 5-5 4-3 4-4 4-2 4-3 4-1 2-2 3-2 4-1 2 0 2 0 6 0 1 1 0 1 1 1 1 2 1 1 0 2 1 2 1 3 1 2 1 3 0 3 1 4 1 4 1 10 1 6 1 5 0 7 0 7 0 6 0 8 0 7-2 8 0 7-2 8-1 7-1 8-1"/>
<path d="M1341 -10468l 1 0 0-1 2 0 1 0 2 0 3-2 3 0 4-2 4-1 4-1 5-2 4-1 4-1 4-1 5-1 4-1 4-2 5 0 4-1 4-2 5 0 4 0 5-1 5 0 5-1 3 0 5 0 12 0 0 0 1 0 0 5-1 1 0 2-1 3-1 3-3 4-2 5-4 5-4 7-5 5-5 8-7 7-5 8-8 8-5 7-7 7-7 7-6 8-6 6-6 6-6 7-6 6-5 5-4 5-4 5-3 4-3 4-2 3-1 3-1 3-1 1 0 2 1 0 0 0 0 0 1 0 1-1 16 0 5-1 6 0 6 0 5-1 7 0 8-1 7-1 8-2 7-2 9-2 9-2 10-2 10-3 12-2 12-2"/>
<path d="M2296 -9756l-1-1-3 0-1-1-2 0-2-1 0 0 0 1 0 0 1 1 1 0 1 0 2 1 1 1 3 3 3 2 3 4 5 4 4 5 5 5 5 6 6 6 7 7 7 7 7 7 8 7 8 7 8 8 10 7 8 8 10 9 9 6 8 8 28 24 9 8 8 7 10 8 8 7 9 7 8 6 8 7 7 6 8 7 7 5 8 6 7 5 6 5 7 5 5 4 5 4 5 4 5 3 4 2 3 2 3 2 2 1 3 1 2 1 3-2 1-1 2-1 2-2 2-2 1-4 1-5 1-5"/>
<path d="M2514 -9870l-1-1-1 0-2-2-1-1-1-1-2-1-1-1-1 0 0-1 0 4-1 3-1 2-1 5-1 5-2 7-2 8-3 10-2 11-3 12-2 12-2 13-3 12-3 13-2 15-3 13-4 14-4 14-4 15-5 16-4 15-5 16-5 16-5 16-4 16-5 15-3 14-5 14-3 13-3 14-3 12-3 12-3 12-2 12-2 11-3 22-2 11-1 11"/>
<path d="M2261 -8212l 0-6 3 0 1 1 2 1 3 0 4 2 4 2 5 2 6 3 6 4 6 4 7 5 7 6 8 6 9 7 8 9 9 8 10 9 9 8 11 10 10 10 20 18 9 10 10 9 9 9 10 9 16 17 8 8 7 8 8 7 6 8 7 7 6 6 7 7 6 5 5 6 5 5 5 4 4 5 4 5 6 6 3 3 2 2 2 2 1 2 2 0 0 1 2 0 1-1 1-3"/>
<path d="M2496 -8391l-3-1-1 0-2-1-2-1-4 0-1 1-1 1-1 2-1 3-2 3-2 5-2 5-4 7-3 8-2 9-3 10-4 12-3 12-3 13-5 13-3 15-4 15-3 17-4 16-8 34-4 18-4 19-5 19-10 38-5 18-6 20-6 19-5 19-6 18-6 18-6 18-4 17-5 16-5 15-4 16-4 14-5 14-4 12-4 13-3 12-3 10-4 12-2 9-3 10-4 19-2 8-2 9-2 8 0 7-2 6"/>
<path d="M4713 -10009l-1-4-2-2-1-2-1-2-1-2-1-2-2 0 0-1-1 0-1-1-1 0-2 1-2 0-2 1-2 0-3 1-3 2-3 2-4 3-3 3-5 4-4 5-4 5-5 6-4 7-4 10-4 8-4 9-3 10-3 10-2 10-1 11-2 12 0 9 0 11 0 11 2 11 4 21 7 20 4 11 6 9 13 17 7 8 7 7 8 6 9 6 8 5 10 3 9 4 9 3 11 2 21 3 23 0 12-1 12-1 10-3 13-2 12-3 11-5 12-5 10-7 11-7 10-7 9-8 8-8 8-8 6-10 5-9 5-8 3-9 3-9 2-9 1-9 1-9-1-10-1-10-3-10-2-10-4-11-4-11-6-11-6-10-6-10-8-10-8-9-8-8-8-9-10-8-9-7-10-6-10-6-10-5-10-5-11-3-10-2-10-2-11 0-11 2-10 2-10 4-10 5"/>
<path d="M4398 -9456l 1 0-1 0 1-1 5 0 2 0 8 0 3 0 8 0 3 2 3 0 3 0 3 2 2 1 3 0 2 2 2 1 2 2 2 1 2 2 1 2 1 2 1 1 1 2 0 2 1 3-1 2-1 3-1 3-2 4-2 4-2 4-3 5-3 4-3 5-4 6-4 5-4 4-5 5-4 4-4 4-4 4-4 4-4 2-3 3-3 3-3 2-3 2-3 3-2 1-2 2-1 2-2 2-1 0-1 1-1 1 0 1 0 0 0 0 1-1 1 0 0-1 1 0 1 1 1 1 1 0 0 2 1 1 3 2 2 2 2 2 1 2 2 2 3 2 2 2 2 3 2 1 2 2 2 2 2 2 2 1 1 2 2 2 3 4 2 1 2 3 2 2 1 2 2 2 1 3 2 2 1 3 1 3 1 3 0 3 1 4 1 3 0 4 0 3 0 5 1 3 0 13-1 5 0 9 0 5 0 5-1 5 0 6-1 6 0 6 0 5-2 11 0 6-1 6 0 6 0 37 0 6 1 5 1 5 1 5 0 3 1 5 1 3 2 4 1 4 2 4 3 7 2 4 2 4 2 2 2 4 3 3 2 3 4 3 3 3 4 3 4 3 4 3 5 3 4 3 5 3 10 6 5 2 6 2 6 2 13 4 6 3 8 1 6 1"/>
<path d="M4622 -9364l-2 0-2-1-3 0-2 1-4 0-1 1-2 0-3 2-2 2-3 2-2 3-3 4-7 15-3 7-2 7-3 8-2 8-3 8-1 8-2 9-2 7 0 9-1 9 0 8 1 8 0 8 2 8 1 8 2 7 3 8 3 6 4 6 3 8 5 5 5 5 5 5 5 5 7 2 7 4 7 2 9 2 9 1 10 1 9 0 22-3 10-2 10-2 10-4 10-4 9-5 9-5 9-5 7-6 8-6 6-5 7-7 5-6 5-6 5-6 2-7 3-6 2-7 0-7 0-7 0-7-2-8-2-9-3-8-3-9-5-9-10-20-5-9-5-10-6-10-13-19-6-8-6-7-6-6-7-5-6-5-7-3-5-2-7-2-6 0-6 0-6 0-7 2-6 2-6 3-6 4-5 4-5 5-4 5"/>
<path d="M4894 -9159l 1 1 0 11 0 4 0 15 1 6 0 12-1 6 0 6 0 6-1 7-1 6-3 7-1 8-3 8-3 8-3 8-2 10-4 8-4 9-3 9"/>
<path d="M5039 -9372l-1 1-3 3-3 2-3 3-4 5-4 5-3 5-3 6-2 6-3 7-2 7-1 7-1 7-1 7 2 14 1 7 4 14 3 7 3 7 3 6 4 7 5 6 4 5 5 4 5 5 6 4 5 4 6 4 7 3 5 3 7 3 6 2 7 1 12 3 8-1 7 0 7-1 7-2 7-2 7-2 12-6 6-4 5-4 5-4 5-5 4-4 4-5 4-7 2-5 3-6 1-6 1-5 2-7 0-13-2-5-2-14-3-8-3-7-4-8-3-8-5-7-5-7-5-6-5-6-5-6-6-4-7-4-13-6-7-2-7-2-7-1-7 0-6-1-7 0-6 2-6 2-5 1"/>
<path d="M5175 -9472l 0-1 6 0 2 0 2-1 3 0 3-1 3-1 10 0 5 1 3 0 4 2 4 0 4 1 4 1 3 0 5 2 3 1 4 1 3 1 4 1 3 2 3 2 3 1 2 2 2 2 2 2 1 2 2 2 1 2 1 2 1 2 0 1 0 8-1 4-1 3-1 3-2 3-1 3-1 3-3 3-1 2-1 3-3 2-4 7-1 1-1 2-1 3-2 2 0 2-1 1 0 1 0 1 0 1 0 2 0 0 1 0 0 2 1 0 3 3 1 1 1 1 2 2 1 1 3 2 2 1 2 2 2 1 2 1 3 1 2 2 2 1 2 1 3 1 1 2 2 0 2 2 2 1 2 2 2 1 2 1 3 3 1 2 2 1 1 2 2 2 1 3 1 1 0 1 1 3 0 1 1 1 0 1 1 2 0 0 0 2 1 1 0 2 2 3 0 2 0 1 0 1 1 2 0 1 1 3 1 2 1 2 2 6 1 2 0 1 0 3 1 2 1 2 1 3 0 3 1 6 1 2 0 3 1 2 0 3 1 3 1 6 1 3 1 5 1 3 1 3 1 3 0 3 0 3 1 3 0 4 1 3 0 13-1 4-1 3 0 4-2 4-1 4-2 3-1 4-2 4-2 3-3 3-2 4-4 2-3 4-3 2-3 4-4 3-4 2-4 4-5 3-4 3-5 3-6 4-5 3-7 3-6 4-7 3-7 3-7 4-6 3"/>
<path d="M6351 -10080l 1-1-1 0-1 0 0 0 0 0 0 1 1 1 0 3 1 2 1 4 1 4 1 5 2 6 1 7 2 8 2 16 2 8 1 10 2 10 0 10 2 10 1 10 1 10 1 12 1 10 1 12 1 11 0 11 1 10 1 11 0 10 0 10 0 10 1 9 0 8 1 9 0 9 1 8 0 8 0 8 2 14 0 7 0 5 1 5 1 6 1 4 0 3 1 3 1 2 0 2 0 3 1 2"/>
<path d="M4445 -8788l 0-1-1 1 0 0 0 1-1 0 0 1-2 2 0 0 0 2-2 1 0 2-2 2-1 3-2 2-1 3-2 3-2 3-2 4-1 2-3 5-2 4-2 4-4 4-3 6-3 5-3 5-3 6-4 6-3 5-4 5-3 5-3 5-3 5-3 5-3 5-2 3-3 5-1 3-2 4-2 3-1 2 0 2-1 1 0 2 1 0 0 0 2 0 1 0 2 0 2 1 2 1 3 1 3 1 3 1 3 2 3 2 4 1 3 3 4 2 3 1 4 3 7 4 4 3 3 2 4 3 3 3 2 4 3 4 2 3 3 3 2 3 3 4 2 3 2 2 1 3 2 3 3 3 2 6 2 3 1 2 2 3 1 2 1 2 1 2 1 1 1 3 1 2 1 2 1 2 0 1 1 3 1 2 0 5 0 2 0 6 0 4 0 6-1 4 0 3-1 4 0 4-1 4-2 3 0 5-2 3-1 4-1 4-2 5-2 5-2 6-2 6-2 5-2 5-2 6-2 6-2 6-2 7-1 6-2 6-1 5-1 5-1 5-1 5-1 3-1 4-1 3 0 3-1 7 0 3-1 3 0 13 1 2 0 3 1 4 2 3 0 3 3 6 2 2 2 3 3 3 2 2 3 3 2 2 3 3 4 2 3 2 4 2 4 2 4 2 3 2 5 2 5 2 4 1 10 3 6 0 5 2 5 0 7 1 6 0 7 1 31 0 9-1"/>
<path d="M4662 -8694l 1 2 1 3 2 4 1 4 1 5 2 6 1 6 1 6 1 7 1 6 1 7 1 8 1 7 1 8 1 7 2 8 0 7 2 9 1 8 3 17 1 9 2 9 2 9 1 9 3 18 2 9 1 9 2 9 0 8 2 9 1 8 1 8 1 7 1 8 1 7 0 7 2 13 1 5 0 5 2 5 0 5 2 7 1 2 0 2 2 4 0 1 0 1 1 0 0 1 1 0 1 0 1 0"/>
<path d="M4879 -8372l 1-1-1 1 0 1-1 0 0 10 1 3 0 23-1 5 0 6 0 5-2 6-1 5-2 7-1 7-2 6-2 7-3 8-2 7"/>
<path d="M5061 -8658l 1-1 0 12 0 3 1 4 0 3 1 5 1 4 0 5 0 6 1 5 1 5 0 6 1 7 0 7 1 7 1 8 0 7 1 7 1 7 0 7 1 8 2 16 0 6 2 8 0 8 0 8 2 16 1 7 1 7 1 7 0 8 1 6 2 15 0 7 1 5 0 15 1 6 0 6 0 6 1 6 0 10 1 4 1 4 0 3 0 3 1 4 1 2 0 1 1 2 2 2 0 1 2 0"/>
<path d="M5194 -8768l 2-1 2 0 1 1 2 1 2 0 3 1 4 1 3 1 2 0 4 2 3 0 3 2 3 1 3 0 4 2 3 1 5 3 3 1 2 1 2 2 3 2 2 1 2 2 1 2 2 1 2 2 1 2 1 2 1 1 0 2 0 3 1 2-1 2 0 2 0 3-2 2 0 3-3 3-1 3-3 3-2 4-4 3-2 4-4 3-3 5-3 3-3 4-4 4-3 4-2 4-3 4-2 3-3 4-2 4-3 4-2 3-1 4-2 3-2 2-1 3-1 2-1 1 0 3 0 1 0 3 0 1 1 1 1 1 0 2 1 1 1 1 1 2 3 1 2 2 1 0 1 2 3 1 2 2 1 1 2 2 5 3 2 2 2 2 2 1 3 2 2 2 3 1 2 3 3 2 2 2 2 2 2 2 2 2 3 1 2 3 3 0 2 2 2 2 2 1 2 2 2 2 2 1 2 2 2 2 2 2 2 2 2 2 2 2 2 3 2 2 2 2 2 3 2 1 2 3 1 2 3 3 2 6 2 3 1 2 2 4 1 3 2 3 2 6 1 3 2 2 1 3 1 2 2 2 2 2 1 3 3 2 2 2 3 1 2 2 3 2 3 2 3 2 3 2 2 2 3 2 3 3 2 2 2 3 2 2 2 2 2 3 2 3 1 3 2 3 0 4 2 5 0 4 1 5 0 4-1 5-1 5-1 6-1 5-1 5-3 6-2 5-2 5-6 12-2 6-3 6-4 6-3 6-9 12-4 5-5 6-4 5-4 5-4 5-5 5-5 5-5 4-4 5-5 4-4 3-5 4-5 2-4 3-4 2-4 2-5 2-5 2-5 1-8 3-5 0-4 2"/>
<path d="M6215 -9315l 0-11 2 0 1 1 1 1 2 0 2 0 1 2 2 1 3 0 2 2 2 1 2 1 1 1 3 1 1 1 2 2 2 1 1 1 1 1 1 2 1 1 1 2 0 4 0 2-1 2-2 3-2 3-2 4-3 4-3 4-3 4-4 5-5 5-5 5-4 5-5 5-5 5-4 5-5 5-5 4-4 5-3 4-5 5-3 3-3 4-2 4-3 4-2 4-2 3-3 7-1 3-1 3 0 7 1 3 2 4 1 2 1 1 2 1 3 3 1 2 2 2 2 1 2 1 2 1 1 2 2 1 2 1 1 2 2 1 1 2 1 2 1 1 1 2 1 3 1 4 1 3 1 2 1 1 1 3 0 2 0 2 1 3 1 2 1 2 0 3 0 2 1 2 0 2 1 2 0 2 1 1 1 2 1 5 1 2 1 2 0 3 1 3 1 4 1 4 0 4 0 5 1 4 0 23-1 5 0 25 1 5 0 6 1 4 0 5 1 4 2 4 1 4 1 4 2 2 3 3 2 3 3 2 3 2 2 1 5 2 8 0"/>
<path d="M6374 -9252l-4 1-4 3-5 2-5 3-6 5-7 5-5 6-5 6-4 8-4 7-2 8-3 8-2 9-2 28 1 10 1 11 1 10 3 9 3 10 3 9 4 9 4 8 5 9 5 6 6 6 6 7 7 6 7 4 8 4 7 3 8 3 8 1 7 1 8 1 8 0 8-1 8-2 8-3 8-4 9-5 8-4 8-6 8-7 8-7 7-8 7-8 6-10 6-8 3-10 4-10 3-9 1-10 2-11 0-10-1-9-2-10-2-9-3-9-5-9-5-9-5-8-7-9-8-7-7-8-8-7-7-6-8-7-7-4-13-6-6-1-6-1-5 0-5 1-4 1-4 2-5 2-4 2-3 3-3 3-4 3-3 5-2 4-1 4-2 5"/>
<path d="M6646 -9080l 0 2 1 3 0 33-1 6-1 6 0 7-2 7-1 8-2 8-2 7-3 9-2 8-3 9-3 8-3 8-4 9-3 8-3 8-3 7-3 7"/>
<path d="M6809 -9350l 1 1 0 5 0 3 0 5 1 6 2 6 1 8 1 8 3 8 2 9 3 10 2 9 3 8 3 10 4 10 3 10 4 10 4 10 3 11 4 11 2 11 3 10 3 12 2 11 2 12 3 10 1 11 1 11 2 10 1 9 1 9 1 8 1 9 2 14 0 5 1 6 1 5 0 3 1 3 1 1 1 1 0 1 1 0 1-1"/>
<path d="M6929 -9400l 1-1 1 0 2 0 2-1 2 0 3-1 9 0 5 1 5 0 5 1 5 1 6 1 5 2 5 1 4 2 4 2 5 3 3 2 4 1 3 2 2 3 3 2 2 3 2 2 1 2 1 2 0 3 1 2 0 3-1 2-1 3-2 3-1 3-2 4-3 4-4 5-3 5-3 5-4 5-3 6-4 5-3 5-3 5-3 3-2 4-3 3-1 3-2 3-1 2-1 3 0 2-1 3-1 0 0 2 2 3 0 2 1 2 1 1 1 2 2 2 2 2 2 2 2 2 2 2 3 3 3 2 3 3 3 2 3 3 4 2 3 3 3 2 4 3 3 2 3 3 4 2 3 3 3 2 4 3 3 2 3 3 3 2 3 3 3 2 3 3 3 2 2 3 3 2 5 6 2 2 3 3 2 2 3 3 3 3 3 2 3 3 3 4 3 2 3 3 3 3 4 3 2 4 3 2 3 4 3 3 4 3 2 3 3 3 2 4 3 2 2 3 3 4 2 4 2 3 2 4 2 3 2 4 1 3 1 4 1 4 1 4 0 5 1 4-1 6-1 5-1 6-1 5-1 7-2 7-2 6-3 6-3 7-2 7-3 7-4 7-3 8-4 7-4 8-5 7-5 7-5 7-5 7-5 6-6 5-7 6-6 5-7 6-7 6-7 6-10 6-9 6-10 7"/>
<path d="M6311 -8727l-1 0 0 1-1 0-3 2-2 1-2 2-2 1-3 2-2 2-2 3-2 2-3 4-2 3-2 3-3 3-2 3-2 4-2 4-3 4-3 5-3 3-3 4-3 5-3 3-2 4-3 4-2 2-3 4-2 3-2 2-2 3-1 3-2 2-1 3-2 3 0 4-2 3-1 7-1 3-1 2 0 3 0 5 0 2 1 3 0 2 1 2 1 2 2 2 1 2 1 2 2 3 1 2 2 3 2 2 2 2 1 2 3 2 2 3 1 2 2 2 2 2 2 3 2 3 1 4 2 3 1 2 1 4 1 4 0 4 1 3 0 5 1 3 1 4 0 4 0 4 0 3 1 3 0 3 1 3 0 5-1 3 0 7-1 3 0 3 0 2-1 3-2 5 0 2-1 3-1 2 0 3-1 2-1 3-3 7-1 3-2 4-1 4-1 4-2 5-1 5-2 4-1 4-2 5 0 5-2 4-1 5 0 4-1 4-1 5-1 4-1 4-1 4-1 3-1 5-1 3-1 5-1 3-1 4-1 4-1 4-1 3-1 4-2 3 0 5-2 4 0 4-2 4-1 5 0 5-1 4-1 4 0 5 0 3 0 4 0 3 0 3 1 3 1 3 3 4 1 2 2 0 6 0 3 0 5-2 5-2 6-3"/>
<path d="M6400 -8622l 1-1 0 4 0 1 0 2 1 3 0 2 1 3 0 3 1 9 1 5 1 5 0 4 1 6 1 5 1 7 1 7 1 6 1 8 1 8 1 8 1 9 1 8 1 9 2 10 0 10 2 9 0 10 2 10 1 11 1 12 1 11 1 12 2 10 0 12 2 10 0 10 2 9 1 9 2 8 1 7 2 7 2 6 2 6 2 6 2 4 2 4 2 5 2 3 1 3 2 4 3 2 1 1 4 4 2 0"/>
<path d="M6574 -8352l 1 0 0 4 0 2 1 3 1 2 1 4 0 4 1 4 1 4 0 4 1 5 0 17-1 6 0 7-2 6-1 7-2 7-2 8-3 7-2 8-3 7-3 7-3 6-3 7-3 7-3 6"/>
<path d="M6734 -8530l-3 4-1 3-2 4-3 5-2 5-1 6-2 6 0 7 0 21 0 9 2 7 1 7 2 8 3 7 2 7 3 8 3 6 4 5 3 6 5 5 4 5 4 4 5 4 5 4 6 3 6 3 5 2 6 0 5 3 6 0 8 0 6-1 8-2 8-2 8-3 9-2 8-5 9-5 9-5 9-8 8-7 8-8 7-7 8-8 6-8 6-9 5-8 5-8 4-7 3-7 2-8 1-6 0-12 0-7-2-6-2-6-3-7-3-6-5-6-4-6-5-6-6-4-5-5-6-3-6-2-13-5-7 0-8-1-7-1-15 0-9 1-8 1-8 1-8 1-7 2-8 1-6 2-6 1-5 0-5 2-5 1"/>
<path d="M7011 -8677l 1 0 0 1 0 0 1 1 0 1 2 1 0 2 2 1 2 2 2 3 2 3 4 3 3 3 3 3 4 3 4 2 4 3 2 2 4 3 3 2 3 2 3 2 1 2 2 2 2 2 1 2 1 2 0 2 1 3-1 3 0 3-1 5-1 4-2 4-1 4-2 3-3 5-2 4-2 4-3 5-2 4-2 5-1 5-2 3-1 5 0 3-1 4 0 3-1 4 1 3 0 4 1 4 1 4 1 3 1 3 1 3 2 3 2 3 1 2 2 2 2 3 2 1 2 3 2 2 2 2 2 1 2 2 2 2 3 2 2 1 3 2 2 1 3 2 3 1 2 2 3 2 4 1 3 1 3 1 3 2 6 3 3 1 3 1 2 2 3 2 3 1 6 3 3 2 2 1 3 2 2 2 3 2 2 2 2 1 2 3 2 2 2 3 3 2 2 3 1 2 2 3 1 4 1 3 1 3 1 5 0 17-2 4 0 5-2 5-2 5-3 5-2 5-3 5-3 5-4 5-3 5-4 4-4 5-3 4-4 4-4 4-4 3-2 4-4 3-4 3-4 4-3 3-5 2-3 3-5 2-4 3-3 3-5 2-4 2"/>
<path d="M2504 -12947l-1-1 0 0 0 0 0 0 1 0 1 1 2 1 2 1 2 1 4 2 4 1 4 3 4 2 6 4 5 3 5 4 6 4 6 5 5 5 7 6 6 6 7 6 6 7 7 8 6 8 6 9 7 9 6 9 7 10 5 10 8 10 5 10 7 10 5 10 7 10 6 10 5 11 5 9 5 10 6 9 5 8 6 10 5 8 5 10 15 23 4 8 4 7 4 7 3 6 4 6 3 5 3 4 3 4 2 2 2 3 2 2 1 3 2 1 1 1 1 0 2 0 2-1 2-4"/>
<path d="M2805 -13117l 0-1-1 0 0 1-1 1-1 0 0 1-1 2-1 2-1 4-2 5-2 6-3 6-3 8-5 9-4 10-5 10-6 11-5 12-7 14-7 14-8 15-8 16-10 17-9 18-9 18-10 19-10 19-9 20-10 19-10 21-20 40-9 20-9 20-19 37-8 19-7 17-7 17-7 16-7 16-5 13-6 14-6 13-5 11-4 11-4 10-5 10-3 8-2 7-3 6-2 5-3 4 0 3-2 2-1 1-1 0 0-1-1 0 0-5"/>
<path d="M2224 -13908l-1-1-1 0-1 0-1 0 0 0 1 1 0 1 1 0 1 0 0 1 2 2 3 3 3 4 4 3 4 5 5 6 6 6 5 8 7 7 6 8 7 8 8 9 7 9 8 9 7 10 8 9 9 10 9 10 9 9 9 10 9 9 10 10 20 19 9 9 10 9 9 9 9 8 9 9 9 7 7 8 8 6 8 6 7 7 7 6 6 5 6 5 6 4 5 4 5 4 5 3 5 3 3 3 4 2 3 2 2 2 2 0 1 1 2 0 1-1 2 0 0-1 2-4 0-4 0-5"/>
<path d="M2428 -13972l-1-1-2 0-5 0-3 0-3 0-3 1-3 1-3 2-3 2-3 2-2 4-5 3-5 5-5 6-6 6-13 18-6 10-8 10-6 11-8 11-7 12-8 11-8 12-8 12-8 13-9 13-9 12-9 14-10 14-10 12-9 15-9 14-9 14-8 12-9 13-8 12-7 12-8 11-6 10-7 10-7 9-5 9-6 9-6 8-5 7-5 8-4 7-4 5-3 6-4 5-3 4-2 4-2 4-2 4-2 3-2 3"/>
</svg>
