<svg xmlns="http://www.w3.org/2000/svg" viewBox="7035 1012 7056 6272" stroke="black" stroke-width="20" stroke-linecap="round" stroke-linejoin="round" fill="none" data-xena="0 0 0"><style>@media(prefers-color-scheme:dark){svg{background-color:black;stroke:white;}}</style>
<path d="M9351 5320l 8-4-10 6-9 6 7-5-9 7-8 8 9-9-7 9 5-8-7 11-7 12 4-8-6 14-6 15-6 17-6 18-6 18-5 18-5 18 2-8-4 17-3 16-3 16-1 14 0 13 0 12 2 10-2-8 3 8 4 6 6 6 8 3-8-3 10 3 12 0 13 0 16-3-9 2 17-4 19-5 19-7-9 3 20-8 19-8 9-4 19-7 20-8 19-6 20-6 20-4 9-2 21-2 21 1 23 3 22 4 22 6 22 7 22 8 8 3 21 9 20 9 18 8 16 9 15 9 13 10 11 10 10 12 8 12 6 13 2 9 4 14 2 15-1 16-3 17-2 9-7 18-9 20-4 8-13 22-5 7-16 21-9 9-19 20-23 17-6 5-25 15-26 14-28 13-5 3-27 12-27 11-27 10-25 8-24 8-24 7-5 1-23 6-22 4-21 2-20 1-18-1-8-1-17-3-15-5-4-7"/>
<path d="M10443 5206l-17 5 6-3-8 5 5-4 6-3 8-5 6-3 6-3 7-4 8-4 8-3 8-2 9-2 9 0 8 0 9 1 10 1 11 3 8 3 11 4 10 6 9 6 8 8 7 8 5 8 4 9 3 8 2 10-1 10-3 11-2 9-5 11-4 8-7 12-7 10-5 7-8 11-9 10-10 12-9 9-11 12-12 12-12 11-12 10-11 10-11 9-10 8-10 8-8 7-7 5-6 5-5 4 14-16-2 4 6-17 1 3-3-8 4 1-8-3 6 1 8 1 8-1 9-1 11-1 12 0 13 1 14 1 16 1 17 3 18 4 19 5 19 7 21 7 21 7 20 7 21 7 19 6 18 6 7 4 17 6 15 7 12 8 11 8 9 8 6 9 5 8 3 8 2 9 2 8-1 9-2 9-2 9-4 10-4 8-6 10-8 11-5 7-10 11-8 9-13 11-15 11-7 5-17 10-18 10-20 10-8 4-20 8-21 8-20 5-9 2-20 5-18 3-18 2-15 1-14-1-9-1-12-3-11-4-8-5-7-8-4-8-4-13-3-18-2-22 1-9 4-8 4-7 6-7"/>
<path d="M11741 5315l 1 8 2 10 1 11 2 13 2 14 4 15 2 19 3 21 2 23 3 23 4 23 4 21 4 20 4 21 5 20 5 19 5 15"/>
<path d="M12919 5303l 8-4-8 5 7-6-8 6-8 9 9-9-8 10-9 12 5-7-8 12-9 15 5-8-8 16-6 16-5 18 2-9-3 18-1 18 0 20 1 19 3 17 4 17-3-8 6 14 7 14 8 13 10 12 11 10 12 9 14 8 15 6-8-3 17 4 18 3 20 1 20-1 21-2-9 1 20-4 19-6-8 3 17-8-7 5 16-11 16-12-7 6 14-13 13-14-6 7 11-16-5 7 9-17-4 8 7-18 4-19 2-19-1 9 0-19-2-20-3-21-5-19-7-18 4 8-8-16-9-14-9-12-12-10-12-9-14-7-14-4-16-3 9 2-17-1-18 0-18 2"/>
<path d="M7827 1829l-9-3-9-2 8 2-10-1-10 1 8-2-10 3-11 5 8-4-12 7 8-5-13 9-13 11-14 14 9-9-16 17-16 19-18 22-16 21 4-6-16 22-17 26-17 29-19 34 3-5-18 37-17 41-14 43-12 43 2-4-9 45-7 45-5 46-3 45 1 44 3 42 6 42 9 40-1-4 12 38 14 36 17 35 19 33 22 31 23 30 25 27 24 26 24 23 24 20 25 18 26 15 28 13-4-2 29 11 30 9 31 7 33 4 32 2 32 0 31-3 30-5-5 1 29-8 29-10-4 2 28-14 27-15-4 2 27-18 24-19-3 3 24-22 22-23 22-25-3 3 21-25 19-27 18-27-3 4 15-30-2 4 13-31 10-32 8-34 6-34 6-36 3-37 0 5 3-38 1-39 0-40-1-44-4-49-5-55-5-52-7-44-8-39-10-41-14-45-18-52-22-51 2 4-23-46-24-40-23-35-25-32-25-28-27-25-26-22-28-19-31-17-33-13-37-10-38-6 4 0-40-3-39 1-38 4-38 6 5-1-37 10-37 12-36 12-35 12-33 12-31 11-26 11 4-2-23 12-21 13-4 2"/>
<path d="M10519 3228l 9 1-11 1-11 2 8-1-13 4-13 6 8-4-14 9 7-5-13 12-14 15 9-9-15 15-8 9-15 15-16 17-16 17 8-9-16 18-16 19 5-7-14 19-13 20 4-7-10 21-7 22 2-8-5 23-2 23 2 23 4 21-2-8 7 19 9 18 11 16 13 13 14 11 15 8 16 7-8-3 16 6 17 3 18 2 19-1 20-2 21-3-8 2 23-5 24-6 26-9-8 3 27-11 27-13 28-14-6 4 26-16 23-18-4 3 20-19-3 4 16-21 14-21-3 4 11-21-2 5 7-20 5-20 3-20-1 6 1-19-2-18-5-18-7-19-9-20 3 8-10-19-12-17-16-15-17-14-20-13-20-10-21-8-21-5-21-4 8 1-20-1-19 0-19 2-16 4 8-2-14 5-12 6 8-4-11 6-9 7"/>
<path d="M11611 3222l-8-1 9 1-7-1-6 0-5 1-6 0 8-1-6 1-7 3 8-4-6 4-8 4-7 5 7-5-8 7 9-9-9 11 5-8-8 13-9 14-9 15 4-8-8 16-8 19-9 20-8 22 3-8-6 23-4 23-1 23 1 23 4 23 6 21-3-8 8 19 11 18 13 15 15 15 16 12 18 10 20 8-8-3 21 5 24 5 23 3 24 0 22-3-9 1 22-5 22-7 22-9-8 3 23-10 25-12 24-13-6 4 24-15 24-16 23-17-5 4 21-19 17-20-3 5 14-20-3 5 11-20-2 5 6-19 3-19-1 6-1-19-3-21-7-22-8-22 3 7-10-21-12-21-14-18-15-17-17-15-18-13-20-10-19-8-20-5-19-3 8 1-19 0-19 2-20 5 8-2-19 6-18 6-17 8 8-4-15 8-13 8 7-5-10 8-8 7 9-9-6 6"/>
<path d="M12868 3236l 9 1-9-1-9 0-9-1-10 0-9 2 9-2-10 2-10 5-11 4 8-4-10 6 7-5-10 7-9 9 9-9-9 11-9 11 5-7-8 12-7 12 5-8-6 13-5 15-4 16 2-9-3 16-1 17 0 17 2 19 2 20 4 19 5 19-2-8 7 18 9 16 11 16 12 14 14 12 16 10 17 7-7-3 20 6 22 4 24 2 26 1 28-2 28-4-8 2 30-6 29-6 27-8 27-11-5 2 27-13 25-15-4 3 24-17 22-17-4 3 19-18 16-18-4 4 12-17-3 5 9-16-3 5 5-16-1 7 0-16-3-17-5-17-7-16 4 7-10-15-14-16-17-17-20-16-22-15-24-12-26-10-28-8-31-6 7 1-34-4-34-4-34-2-32-1-31 2-29 4-27 6 4-1-26 7-4 1"/>
<path d="M7196 1172l 1 7 1 8 1 10 1 12 1 14 2 17 1 18 1 20 3 20 2 22 3 22 2 23 4 23 3 24 4 24 4 26 5 27 4 28 4 29 4 29 4 31 4 31 5 32 3 34 4 35 4 38 4 38 5 39 5 40 5 42 4 43 4 45 4 46 4 47 4 48 5 48 5 49 5 51 6 52 6 55 6 57 7 58 7 59 8 62 8 63 8 65 9 66 9 68 9 68 9 69 8 71 8 72 8 73 8 76 8 76 7 78 8 79 7 81 7 82 8 84 7 86 8 87 6 89 7 91 6 93 6 93 6 94 5 94 5 97 4 99 5 101 3 102 4 103 2 102 2 102 2 102 1 101 2 99 0 97 1 96 0 94 0 93 0 92 0 90 0 88 1 85 1 82 1 78 1 75 2 71 2 68 2 64 3 60 3 56 2 51 3 46 3 42 4 36 4 31 6 25-1-5 7 19 10 13 11 10"/>
<path d="M12793 4249l 4 7-3-1 32-9-3 3 14-16-4 5-3 7-4 7 4-8-4 9-4 10-4 11-4 12-5 13-6 15-5 17-4 18 2-9-4 21-3 22-3 24-2 25 0 24 1 22 3 21-2-8 6 17 7 17 9 14 10 14 12 11 13 10 15 7-8-3 17 7 19 4 21 3 22 0 25-1 27-3 28-4-8 2 29-6 28-8-6 2 26-12-5 3 25-15 23-16 22-17-5 4 20-19 18-20-4 4 15-20-3 4 12-20 9-22-2 6 5-22 3-23-1 7 0-22-3-21-6-20-7-22-10-22 3 6-12-21-13-18-16-14-17-12-19-9-20-6-22-5 8 2-25-2-26 1-28 2-29 4-27 6 6-2-27 7-6 1-6-1"/>
<path d="M13831 1644l-2 19-2 23-3 29-2 34-1 40 1 44 4 47 6 51 8 54 9 60 9 65 9 69 9 74 9 80 8 85 8 88 6 92 5 96 4 100 4 100 3 101 1 101 2 101 0 102-1 103-2 103-4 103-4 102-5 102-6 102-6 104-7 104-6 103-7 104-6 104-5 104-6 103-5 102-5 101-4 102-5 102-4 102-3 100-4 97-3 94-3 93-3 90-3 87-1 82-1 79 0 77 1 73 2 69 2 64 4 61 4 58 6 54 6 51 8 47 8 43 8 39 10 35-1-4 10 33 10 30 11 28 1 4"/>
<path d="M8153 2236l 7-5-2 3 14-17-2 3 7-16-1 4-1 5-1 7 0 8 0 12 1 13 1 16 1 16 2 17 2 19 3 21 2 23 3 25 2 25 3 27 2 27 1 27 2 26 3 26 3 25 2 24 3 23 4 22 3 19 5 18 4 15 3 15 3 14 3 12 3 11-2-9 2 9 3 7 2 5 3 5 2 8"/>
<path d="M9188 2364l 0-5-2-4 4 8-3-3-4-2 9 2-4-1 8-2-4 1 8-4-4 3 7-5-4 4 9-10-5 6 6-7-4 6 4-7-4 8-5 10-4 12-5 13-4 13 2-9-3 15-2 17-2 18-1 19 1 19 3 19 4 20 5 19-3-8 7 17 7 17 10 15 12 13 13 12 15 11 17 8-8-3 19 6 20 3 22 2 23 0 22-2-9 1 23-4 21-7-8 3 21-9 21-10-8 4 21-12 21-14 21-15 20-16-6 5 19-18 18-20-5 6 17-20 14-20-4 6 11-21-3 7 8-20 5-19 1-20-1 7-2-20-5-19-8-19 3 7-9-18-13-17-13-15-16-13-16-11-17-8-18-6-19-5 9 2-19-3-19 0-20 2-19 2-20 4-19 5 9-2-17 5-15 6 8-4-13 6-10 6 7-5-9 7-7 5"/>
<path d="M10316 2320l-4 7-3 7-5 8 5-8-4 9-4 10-3 10 3-9-2 11-2 11 0 11 1 11 2 11-2-9 4 11 5 11 7 11 8 10 11 9 12 9 14 7 15 6-7-3 15 5 17 4 18 3 19 1 19 1 20-1 20-2 22-3 22-3-9 2 24-5 23-5 24-7 24-7 24-7 24-9-7 3 22-9 21-10 20-11-7 4 18-13 16-13 15-14-6 6 13-14 11-14-5 7 9-14-5 7 7-14-3 8 5-14 3-16-1 9 0-16-4-15-6-16 4 8-8-15-11-15-14-16-19-18-22-18-23-15-25-13-26-10-28-9-29-6 6 1-29-5-29-4-27-2-26 0-25 1-25 2-25 4-24 5 6-2-22 6-17 7 6-2-15 7-14 9 7-5-11 9-10 10 14-17-8 11 5-8-6 12-4 13-5 7-5 8-9 9-7 5-8 4-8 2-9-2-4-8 1-8 5-13 3-8"/>
<path d="M11692 2256l-6 4 7-5-5 5 8-9-5 6 5-7-4 7-5 8-5 9-5 9 4-8-5 11-5 11-5 11-5 10-4 10-4 12-4 12 2-9-2 14-2 13-1 13-1 13 1 13 3 12-2-8 3 11 4 9 5 7 5 8 7 8 8 7 8 6 10 5-8-3 11 4 11 2 12 2 12 1 12-1-8 1 13-2 15-5 18-6-8 3 18-8 18-10-7 4 17-10 17-11 17-12 16-12 16-13-7 6 15-14 13-15 13-14-6 6 12-14 10-16-4 7 8-17-3 8 6-19 5-17 2-17-1 8 0-16-3-15-5-16-7-15 4 8-9-15-10-14-10-14-13-12-14-10-15-9-15-5-15-4 8 2-15-2-16-1-16-1-15 1-14 3 8-2-13 3-13 4-12 5 8-4-11 5-10 7 7-5-8 6-7 8"/>
<path d="M13013 2192l-9-2 8 2-10-2-12 0-13 0-14 2-15 3 9-1-15 4-16 6-17 8 8-4-16 9-16 10-16 11 8-5-16 12-15 14-15 16 9-10-15 18 6-7-14 20-13 21 5-7-12 22-10 22-8 23-7 22 2-8-6 24-3 24-2 25 1 24 3 22 5 22-2-7 7 20 9 18 11 15 13 12 15 11 17 9 19 8-7-3 21 5 23 4 26 2 27 1 27 0 27-3-7 1 27-6 25-9-6 3 24-11 21-13-6 3 19-13-5 4 17-15 13-16-4 5 11-17-4 6 8-18-2 7 5-19 3-19-1 7 1-19-1-18-4-18-6-16 4 7-9-17-11-16-13-17-14-17-17-16-19-15-22-15-24-14-24-11-24-8-25-5 8 1-24-2-24 1-22 2-21 4-7-1"/>
<path d="M8178 3373l 0-5 4-7 5-8 5-6 7-6 7-5 8-3 9-1 5-1 8 3 6 3 5 5 5 7 5 9 5 10 5 11 5 13 2 8 3 14 4 16 3 16 3 17 2 17 2 19 1 21 0 21 0 19-1 20-1 19-1 19-1 18 0 17 0 15 1 13"/>
<path d="M9472 3313l 0 11 0 12 1 12 1 12 1 14 2 16 1 19 1 20 1 20 2 20 2 20 3 20 2 19 2 20 2 18 3 19 4 18 4 17 4 16"/>
<path d="M8136 4304l-8 1 6-2-8 3 8-4 8-4 8-3 10-4 11-3 13-3 9-1 14-2 15-1 17-1 17 1 18 1 18 2 20 3 20 4 20 4 20 4 19 4 17 4 17 5 7 3 15 6 14 6 11 7 10 8 8 10 6 11 5 12 2 9 2 14 1 15-1 17-3 17-2 9-5 18-5 19-7 18-9 19-4 8-11 19-14 19-5 8-16 17-9 9-18 16-19 15-7 5-21 14-19 12-18 11-18 11-18 12-18 12-18 13 6-5-17 14-17 13-15 13-14 13-12 13 9-9-10 12-9 10-6 8 5-7-4 7 4-8-2 5 2-8 1 4-3-9 5 2-8-3 8 0-9 1 10-2 13-3 15-4 17-5 19-6 22-7 23-7 25-8 25-7 25-7 25-7 25-6 27-8 32-8 35-10 36-10"/>
<path d="M9393 4265l 8-4 7-5 8-4 9-4 8-3 9-3 8-2 9-1 9-2 9-1 8 0 9 1 8 3 8 3 8 5 8 6 7 8 7 9 5 10 3 10 2 8 2 11 0 12-2 12-2 13-2 9-4 12-3 14-5 13-4 14-6 14-7 15-8 15-7 16-4 8-8 15-8 15-9 15-10 17-5 7-11 15-9 9-13 13-14 12-7 5-15 10-15 8-14 9-15 7-8 4-14 6-13 5 8-4-12 6-9 5-8 4-8 4 8-4-6 3 22-22-2 3-3-28 4 2 9 1 11 0 12 0 14-1 15 0 16 0 17-1 18 0 17-1 18-1 19-2 19-2 20-1 22-1 22-1 22 0 8 3 2 8"/>
<path d="M10560 4259l 2 8 3 10 2 13 2 15 2 16 2 18 2 20 2 22 2 24 1 24 2 24 1 24 2 22 1 21 3 22 2 21 2 21 2 19 2 17 2 13"/>
<path d="M11652 4270l 9 1-9 0-9 1-11 2 9-2-12 4-11 5 8-4-12 7-12 8 7-5-13 10-14 10-15 12-14 14 9-9-14 15 5-7-13 18-12 20 4-7-11 22-9 24-7 26 2-8-6 27-3 26 0 24 3 23 6 21-2-7 8 20 11 17 13 15 15 12 18 9 21 8-7-3 22 7 24 4 26 3 27 1 27 0 25-2-7 1 23-4 21-8-6 3 20-11-6 4 19-14 17-15-5 5 17-17-5 6 15-20-4 6 13-21 11-23-3 6 8-24 5-24 3-23-1 7 0-24-1-24-4-24-5-23-7-22-9-22-10-22 3 6-12-21-13-20-13-19-15-19-14-18-15-17-16-14-17-10-17-6-17-3 8 1-17-1-16 1-15 2 8-2-14 4-13 5 8-4-11 8 7-6-9 9 8-9-8 10-9 9"/>
<path d="M8207 5387l-1-4 0-4 0-4 1-9 0-5 1-4 1-6 2-5 1-4 2-5 1-4 4-8 1-1 4-8 6-6 7-6 7-5 9-3 9-1 7 3 3 8-3 9 0 2-3 6-3 8-5 10-6 12-6 13-7 14-7 16-7 16-8 18-8 18-9 18-8 18-9 18-9 17-8 18-8 17-8 16-6 15-5 14-5 14 3-9-3 12-1 12 0 10 1 9-2-8 3 8 6 6 7 5-8-3 10 3 12 2 13 1 15-1 17-2-9 1 19-4 20-4 22-6 23-6 25-7 26-7 25-8 24-8-7 3 23-9 23-9 22-11 21-10 21-11 20-10 19-9 18-9"/>
<path d="M8510 5425l-3 4-3 4 6-7-3 4 4-8-2 6-2 7 2-9-1 7-1 8-2 9-1 10-1 13 0 15 1 15 1 18 2 18 3 21 4 23 4 23 6 25 6 25 6 26-2-8 6 26 8 26 9 27 9 26 2 7"/>
<path d="M9315 5288l 7-3 9-1 8-2 10 0 12 0 13 0 13 0 15 0 16-1 16-2 17-1 17-3-9 2 19-4 19-4 19-5"/>
</svg>
