<svg xmlns="http://www.w3.org/2000/svg" viewBox="2418 1972 6240 8602" stroke="black" stroke-width="16" stroke-linecap="round" stroke-linejoin="round" fill="none" data-xena="0 0 0"><style>@media(prefers-color-scheme:dark){svg{background-color:black;stroke:white;}}</style>
<path d="M2856 2600l-5-27-6-25-12-22-17-19-23-8-25 8-22 20-18 27-16 31-15 32-12 28-9 25-3 28 9 26 22 12 27-11 20-15 21-18 19-22 16-23 12-27 3-27-23 11 7 26 17 21 19 16 25 9"/>
<path d="M2964 2638l 24-6 28-10 23-15 20-14 20-20 22-26 21-29 15-20 14-21 12-22 16-31 10-31 4-30 3-29-1-29-2-31-5-27-4-26-6-25-13-21-18 22-18 29-12 25-11 31-10 33-6 34-5 35 0 35-1 24 1 33 3 33 5 33 7 30 8 26 11 21 18 24 20 18 24 13 25 7"/>
<path d="M2591 3557l 17 17 27-6 26-17 19-21 22-28 15-21 16-25 16-25 15-25 14-27 13-26 9-25 8-25 6-27 3-27 3-26 0-27 0-26 0-24-1-25-2-33-4-27-5-24-24-6-17 20-12 26-11 23-11 25-8 28-8 28-6 31-5 30-4 30-3 30-2 29 1 28 1 27 3 26 6 34 8 29 10 27 13 24 16 20 25 18 28 7"/>
<path d="M3101 3388l-19-17-25-4-23 9-19 16-21 20-18 24-14 24-9 23 8 25 25 6 27-9 26-16 18-18 4 26 7 24 7 25 14 25 18 19 24 15 29 4"/>
<path d="M2661 4460l 7-25 7-24 1-25-7-25-16-18-25-7-24 12-18 19-19 24-17 26-15 29-10 28-4 25 19 19 30-4 23-11 23-16 22-18 18-17 17-19 13-21-3 28 7 25 16 23 22 18 23 10 26 5"/>
<path d="M2942 4040l-2 27 0 31-2 29-2 35-2 25-1 26-2 25-2 26-1 27 0 25-2 25-1 35-1 28 0 30 1 24 14-28 10-30 10-23 8-23 14-27 18-23 16-18 21-18 23-11 26-5 27 4 26 9 24 14 19 19 12 25 4 28-2 25-9 26-17 28-15 24-19 25-20 24-22 22-22 16-21 14-22 10-28 6-25-2-21-13"/>
<path d="M2651 4806l 3 29 2 29 1 27 1 30 0 24 0 27 1 28-1 29 0 28 0 28-1 26-1 24-1 33-2 30-3 28-4 29-4 24 4-27 6-26 7-28 9-28 10-25 12-22 15-22 19-16 24-4 24 4 24 14 19 19 16 23 9 23 1 27-7 29-12 23-18 23-21 20-24 15-26 13-26 7-28 2-21-16"/>
<path d="M3085 5134l-17-17-21-14-26-5-24 6-26 15-23 20-20 24-14 26-8 26-2 27 10 26 23 11 27 0 27-9 22-18 17-19 10 26 9 25 15 21 19 19 22 16"/>
<path d="M2743 5914l-17-17-21-13-23-7-25 2-19 15-17 22-11 21-9 25-8 25-5 24 0 29 7 25 22 13 30-4 29-12 22-14 21-17 16-18 15-21 7-25-16 20 7 28 9 24 18 20 20 16"/>
<path d="M2909 6098l 22 11 23-9 25-17 19-20 23-26 15-19 15-23 15-23 14-25 14-24 11-23 12-23 10-24 10-23 8-24 7-25 5-24 4-24 4-36 0-25 0-24-2-31-1-26-5-28-11-21-18 17-15 25-11 23-11 30-8 24-6 24-6 27-4 25-3 27-3 26-1 26 0 25 0 24 4 33 7 30 8 28 13 28 16 22 21 20 25 14 25 6 25 2"/>
<path d="M2615 6851l 25 8 27-12 23-18 18-21 20-27 13-22 16-22 13-25 12-24 11-23 9-22 11-31 7-28 5-25 1-30-6-31-4-26-6-25-10-30-15-22-25 7-18 24-14 27-10 23-8 26-7 28-4 31 0 34 1 24 1 25 3 25 3 26 3 25 7 35 11 32 12 30 13 25 13 20 21 20 22 15 23 8 30-6"/>
<path d="M3096 6742l-6-23-12-23-23-12-26 5-24 17-16 20-14 26-10 29-6 29 0 27 12 25 23 16 24 0 26-13 19-15 19-22 10-22 2 25 10 25 15 22 17 19 23 15"/>
<path d="M2847 7785l-2-27 0-25 0-26-6-27-9-28-13-25-16-20-24-10-26 8-21 16-21 23-13 23-13 25-12 28-8 29-4 31-1 28 3 25 7 28 12 23 20 20 26 4 24-5 24-14 22-21 18-20 13-22 8-25 3-25-3 26 4 25 6 28 7 23 13 24 18 19 22 15"/>
<path d="M3221 7735l-13-23-14-22-22-10-26 6-22 13-23 19-21 23-17 25-12 27-6 26 1 26 8 23 17 22 27 14 24 2 28-6 27-12 22-16 20-20 12-22 7-23 0-25-6 23 4 25 8 27 10 23 11 22 13 21 19 22 22 16"/>
<path d="M4806 2293l-24-5-23 18-17 17-15 25-13 21-13 29-9 25-7 25-5 26-4 27-2 27 2 26 4 25 6 25 9 23 11 22 14 20 18 20 18 16 21 14 30 14 31 7 26 0 29-7 32-13 20-13 28-22 23-25 23-28 19-29 12-30 4-32 0-36-3-25-3-24-6-24-7-26-7-25-8-24-16-30-15-25-17-20-21-19-23-12-28-6-28 2-22 13-11 22"/>
<path d="M5362 2307l 25 2 24 10 27 8 29 10 25 10 25 14 18 16 5 28-11 25-22 25-22 22-18 16-22 15-20 17-24 18-23 18-24 17-24 18-21 15-19 16-24 22-19 22-8 24 15 21 27 12 30 5 26 3 27 0 28 1 25 2 25 2 29 2 27 2 25 1 25 1"/>
<path d="M4732 3270l 1-24 21-13 26-5 25-3 29 0 28 3 25 4 24 8 14 22-11 28-16 20-23 20-26 21-26 22-18 17-27 22-25 21-26 22-25 23-21 23-16 20-13 22-8 24 22 17 31 4 29-2 32-8 23-6 26-8 25-9 26-11 28-10 26-12 27-11 26-12"/>
<path d="M5228 3311l-25-1-23 11-15 20-8 28 1 28 4 27 12 21 20 19 24 14 30 5 25 0 26-3 24-7 22-11 25-12 21-16 18-15 12-22 3-28-10-22-14-20-21-17-25-13-27-8-26-3-25 0-25 4-30 7-24 13-21 16-18 20"/>
<path d="M4766 4101l-25-5-17 22-10 25-10 27-8 30-4 24-4 32-1 25 3 29 6 25 10 23 12 21 21 21 22 12 27 6 30-1 28-7 29-11 28-15 24-17 21-21 16-22 13-22 10-28-1-31-6-24-13-26-17-25-21-22-21-19-24-17-25-14-26-12-25-6"/>
<path d="M5440 4026l-9 27-2 26 0 33 0 31 0 34-1 25-1 26-1 26 0 24 0 26-3 27 1 26 0 26 2 33 1 30 1 28 1 25 1 25-1 25"/>
<path d="M4853 4911l-3 27-3 26-3 32-6 34-8 35-5 35-5 34-4 33-5 31-3 27-3 25 0 27 6 26"/>
<path d="M5277 4968l-23 8-18 16-14 21-9 25-5 29 1 26 4 28 9 29 13 29 18 28 19 25 24 21 26 16 28 11 33 5 33 0 29-8 25-15 25-22 23-28 13-22 13-23 16-31 8-29 0-27-6-25-9-23-12-24-15-23-16-20-19-18-26-19-24-17-26-8-26-2-27 7-21 12-21 18-17 22"/>
<path d="M4856 5821l-8-23-13-24-22-11-23 8-18 17-15 22-12 21-9 25-9 26-4 25 0 26 3 24 9 28 13 22 19 16 22 9 28 2 32-7 27-11 29-14 26-17 22-19 17-21 16-24 6-27-1-31-10-26-11-22-16-21-17-17-21-17-24-11-25-1-7 25"/>
<path d="M5295 5699l 19-15 29-1 28 2 27 3 26 8 22 11 19 15 13 21 4 25-11 26-18 25-20 22-24 22-28 23-19 15-19 16-20 16-24 24-20 21-20 20-16 20 12 23 26 9 30 4 31 3 25 1 24 1 30 4 25 6"/>
<path d="M4769 6691l 26-7 29 3 25 3 26 6 27 7 25 12 15 19-2 27-16 25-19 25-16 18-18 20-19 19-19 21-19 22-17 21-17 20-16 20-21 26-16 21-13 23 18 19 31 2 24-2 32-3 24-6 27-7 31-8 31-8 31-9 31-9 30-9 30-10 29-9"/>
<path d="M5371 6735l-25 5-18 18-12 26-3 27 4 27 12 26 19 22 26 17 24 11 27 5 30 1 31-8 26-15 20-15 20-18 18-21 12-23 10-29 2-26-6-26-16-26-18-18-21-18-22-18-22-17-28-14-28-6-28 2-28 10-25 18"/>
<path d="M4888 7521l-23-15-25-2-24 7-23 14-19 17-20 26-16 25-13 26-9 28-3 28 0 29 5 28 6 28 13 24 18 21 20 17 27 15 29 10 24 5 27 2 29-1 29-3 28-6 27-7 27-11 26-13 24-15 24-16 20-17 16-18 17-25 8-26-2-25-4-27-12-28-15-29-20-28-23-27-23-27-24-23-23-17-23-11-27-9-24 3-13 20"/>
<path d="M5521 7424l-29 3-22 11-24 19-23 22-16 18-15 24-12 26-10 29-9 32-6 34-3 35 5 30 10 25 17 23 22 15 26 8 28 0 26-6 29-13 29-20 19-16 17-16 16-19 16-19 20-28 15-28 6-24 1-28-7-26-15-22-17-23-21-24-23-25-24-23-24-18-23-11-24-6-28-1-30 8-25 14"/>
<path d="M8227 7390l-8-23-22-10-23 10-23 18-20 19-15 22-13 26-12 30-4 24-2 25-1 30 7 28 14 26 17 21 16 18 21 14 23 11 26 7 24 3 29 0 26-5 27-12 24-18 20-19 18-22 19-27 15-26 11-26 4-24 2-32-2-25-6-24-7-25-12-22-15-27-18-19-23-13-25-10-25-3-27 1-24 5-27 10-25 13-23 18-17 18-10 23"/>
<path d="M8439 3925l-2 26 0 26 1 26-1 27 0 27 0 26 0 27 0 29 3 25 1 29 0 27-1 25-1 28-1 25-1 28 4 25-2 25-5-25-2-25-1-24-2-25 0-24-2-27-3-25-3-25-4-28-4-24-3-27-4-28-4-28 0-27 1-25-2-27 2-24-1-24"/>
<path d="M8163 5690l-2-24 20-15 22-13 24-11 26-6 27-5 27-2 27 4 24 11 18 22 4 25-7 24-11 22-11 23-12 23-12 23-14 22-16 22-19 23-20 21-20 23-22 22-20 23-21 20-19 19-17 20-18 20 22 9 28-5 26-5 25-6 27-3 25-5 28-2 25-2 24 2"/>
<path d="M8238 2081l 25-6 26 3 25 3 24 5 30 5 28 7 23 11 21 16 17 20 1 28-5 23-13 26-14 21-18 22-22 22-22 21-21 20-22 20-24 19-23 19-23 18-21 19-20 20-16 20 16 18 27 2 27 2 25-2 25-1 29-1 25 0 28-1 27 2 18 16"/>
<path d="M8297 4778l-8-23 18-16 26-8 29-4 26 2 25 3 25 4 29 6 22 9-8 26-21 15-26 16-23 13-22 12-28 14-25 12-22 12 26 10 25 2 24 6 27 7 29 11 28 10 28 13 25 14 19 19 10 23-7 29-16 23-19 19-21 17-24 16-26 14-29 11-29 10-29 7-28 4-28 3-25 0-25-1-29-3-26-3"/>
<path d="M8157 6498l-17 17-17 24-14 22-15 25-15 27-11 21-14 28-10 27-7 25-3 25 7 26 18 17 28 12 27 3 24-1 28-3 28-4 28-7 30-8 28-10 29-10 24-10 23-9 26-8 23-9 23-7"/>
<path d="M8274 6615l-13 23 2 30 6 23 4 27 5 27 1 28 4 25 3 30 7 29 5 26"/>
<path d="M8322 2904l-24 3-23 18-20 21-21 24-13 22-15 23-15 24-13 23-12 27-11 23-9 25 8 25 20 15 22 9 28 7 25 4 29 2 33 1 37 0 25-1 35-2 35-4 33-4 29-6"/>
<path d="M8420 3083l-7 24-7 30-8 31-5 25-7 28-8 30-7 33-6 23-5 24-4 25-5 25-4 27"/>
<path d="M2993 10200l-29 0-27 10-25 19-17 18-16 19-12 23-11 26-8 25-7 30-3 26 4 29 8 23 20 17 28 2 27-11 26-14 22-19 18-19 16-20 13-23-7 24 3 25 10 23 20 17 23 8"/>
<path d="M3279 10376l 27-5 25-14 21-16 25-22 16-17 18-20 19-21 19-21 18-24 19-23 16-22 16-24 15-22 11-24 10-22 11-32 6-33 2-33-1-34-2-34-3-31-4-26-5-25-9-22-22 13-15 22-15 25-13 25-11 28-11 32-8 24-6 25-5 28-5 28-4 29-3 30-1 29 0 28 2 26 3 24 8 31 12 26 16 23 20 16 21 13"/>
<path d="M3842 10228l-17-22-22-10-27 0-22 11-19 18-16 25-13 22-9 24-8 27-1 28 10 22 22 12 26-2 25-10 19-15 16-19 6 27 8 25 11 23 22 13 28-6"/>
<path d="M4015 9919l 15 19 15 25 15 27 12 24 12 27 11 29 8 31 5 31 4 31 0 29-1 28-1 28-3 28-6 25-9 23-13 27-15 20-18-16 4-26 9-25 13-24 16-21 19-16 21-11 25-5 25 1 26 7 21 15 13 23 6 24-6 25-8 26-16 22-19 16-22 14-24 6-25 2-27-4-20-15-17-21"/>
</svg>
