<svg xmlns="http://www.w3.org/2000/svg" viewBox="1860 1809 11584 10259" stroke="black" stroke-width="16" stroke-linecap="round" stroke-linejoin="round" fill="none" data-xena="0 0 0"><style>@media(prefers-color-scheme:dark){svg{background-color:black;stroke:white;}}</style>
<path d="M2313 1912l 5 29 0 25-1 31-2 27-4 33-3 35-2 26-4 25-3 26-5 26-5 26-6 27-6 27-4 26-5 25-6 25-10 34-9 31-8 26-9 27-8 25 6-23 9-24 11-26 13-30 14-29 15-29 17-29 17-28 18-27 16-24 16-22 15-19 20-19 22-17 24 0 7 24-6 26-9 30-10 26-9 30-9 30-8 30-8 30-7 28-5 25 0 26 18 17 25-9"/>
<path d="M2646 2240l-20 15-11 26-8 26-6 27-4 26 1 24 16 20 26-7 25-15 20-19 14-24 8-26-2-27-14-23 23-10 24-11 24-11 24-11 23-8 24 5-8 27-12 24-11 27-10 26-9 25 0 24 22 14 26-6 23-9 21-12 22-15 25-7 27 0 22 10 22 13 24 11 25-2 23-10 19-20 13-21 3-24-1-25-14-21-24-8"/>
<path d="M3692 2196l 12 24-1 28-6 26-8 28-7 24-9 25-11 21 19-23 16-20 18-22 19-21 16-20 17-18 19-18 21-16 24-8 23 10 8 25-2 28-6 27-7 24 25 5 28-18 25-16 25-20 25-20"/>
<path d="M4151 2195l 8-23-10-22-15 19-22 19"/>
<path d="M3903 2337l 14-23 19-15 16-19 18-17 20-17 20-20 19-15 22-19 23-16 24-12 25-1 16 19 4 27-3 24-6 24-11 27-9 26-10 24-4 24"/>
<path d="M4448 2192l-17-17-22-10-25 1-23 8-24 10-22 12-22 13-20 14-20 21-19 23-12 26 2 24 23 8 25-2 26-8 26-12 23-13 22-13 22-15-10 25-8 24-3 24 24 8 27-11 22-12 21-13 21-17 20-18 17-19-4 25-7 23-4 25 27 2 23-16 21-14 19-17 20-17 21-14-6 25-8 24-6 25 0 24 25 2 26-13 24-15 22-17 19-17 5 24 1 25 17 19 28-4 25-14 22-14 22-16 19-17 18-17 19-19 17-19 5 26-4 28-3 31-6 27-7 31-6 27-9 29-10 33-7 26-8 25-8 25-9 25-9 27-10 25-12 24-12 26-11 23-12 23-13 22-19 29-18 26-19 24-18 16-22 18-21-14 4-29 7-24 10-27 13-32 10-23 12-24 11-25 14-28 16-29 15-29 17-31 16-29 17-29 16-27 16-24 16-22 22-28 20-21 18-19 19-19 22-16"/>
<path d="M5626 2252l 5-25-15-20-27 2-27 13-25 15-22 19-19 23-15 23-10 23 3 28 25 16 25 6"/>
<path d="M5796 2286l-26 7-20 15 16 19 21 12 26 3 29-1 24-3 26-4-6-23-23-12-24-10-25-9-7-24 22-13 25-13 28-11 22-9 27-10 26-6 25-2 22 8 12 24-5 27-11 25-16 21-18 18 22-20 19-16 20-18 20-18 18-16 24-19 21-16 25-14 22-10 24 8 0 24-3 25-4 28-3 24 9 23 24-4"/>
<path d="M6501 1950l 1 25-5 27-10 28-13 25-9 22-12 22-13 24-14 24-14 26-15 23-13 23-16 26-15 25-10 25-4 25 13 22 29 4 27-3 24-9 28-12 27-15"/>
<path d="M6487 2122l 26-3 27-4 27-2 28 1 27 7 23 13 6 24-3 26-10 24-10 24-11 23-12 23-10 24"/>
<path d="M6693 2064l"/>
<path d="M6845 2230l-23-13-24-9-24-5-24 12-18 20-17 18-8 24 6 23 21 13 27 6 29 0 24-6 22-13-18 19-6 25-6 31-4 27-4 24-5 27-8 27-8 29-11 30-10 29-12 26-14 23-18 24-18 21-22 19-25 12-26 13-26 0-8-23 8-26 14-24 22-30 18-21"/>
<path d="M7032 2165l-10 27-7 25-8 23-6 24-8 27-9 25-6 26 15 21 27-9 29-18 22-16 21-22 16-22 16-24 11-23 8-24-9 24-5 27 1 25 10 25 23 14"/>
<path d="M7312 2231l-25-1-21 12-18 19-8 25 8 25 24 15 29 0 25-5 22-13 3-25-6-25-17-19 23-13 25-12 22-13 24-12 24-7 12 22-10 22-10 25-10 23 17 18 23-13 18-17 17-17 16-22 4 25 4 26 11 22"/>
<path d="M7758 2193l-25-7-27 4-24 8-22 11-15 20 21 16 27 9 25 4 25 4 24 6 23 10 3 25-23 16-22 17-22 10-24 10-28 9-27 4-24 1-24-4"/>
<path d="M8447 2229l-21-14-28-2-27 2-29 7-25 9-27 10-21 12-12 21 16 20 26 8 24 7 29 4 26 5 24 11 8 24-22 17-25 14-27 13-29 9-29 8-28 5-25 4"/>
<path d="M8579 2287l 25-5 28-9 23-8 22-12 19-15 9-24-17-20-24 1-24 6-23 9-23 16-25 16-21 18-15 22-13 23-2 27 18 20 23 10 25 4 34 0 25-3 25-2"/>
<path d="M8984 2235l-17-17-23-10-26-5-27 2-24 10-22 12-20 15-19 20-9 23 14 23 28 9 29 3 24-1 27-3 26-7 23-11 15-19-16 23-10 28-6 27-1 31-1 27 2 27 0 26-2 28-1 31 0 31-2 30-6 28-8 30-12 26-12 29-17 25-18 23-19 18-24 19-25 11-28 5-27 1-25-5-25-16-17-26-6-28 1-24 3-28 9-29 13-31 11-21 17-31"/>
<path d="M9136 2245l 3 25-8 23-12 23-16 20-18 16-17-17 14-20 17-17 18-19 16-18 20-23 16-18 19-17 19-15 18 18 1 27-9 25-8 26-9 25-9 22 19-17 21-15 20-17 18-17 18-22 19-18 23-11 3 25-1 24-6 27-7 25-1 25 25 6"/>
<path d="M9449 2250l 27-1 28-2 26-4 26-8 20-15-8-24-24-4-27 5-23 11-22 19-18 18-17 22-8 23 0 24 15 19 22 12 25 6 30 2 24 1"/>
<path d="M9680 2225l-21 13-16 20-13 21-13 21 24-10 21-15 20-16 19-17 20-17 21-14 23-9 14 24-3 24-8 23-15 21-7 24"/>
<path d="M10039 1984l 8 24-3 24-4 25-9 25-10 28-11 29-8 24-9 23-10 23-8 23-9 28-6 24-7 26-1 25 9 24 25 5 29-4 22-9 22-13 20-14"/>
<path d="M9899 2156l-27-6 24-5 31-1 27 0 28 0 31 0"/>
<path d="M10341 2140l-26 2-26 5-26 6-27 8-23 11-14 20 22 17 24 10 25 9 25 7 25 5 23 8 25 8 18 15-23 15-31 9-30 5-31 6-29 4-31 6-30 4-27 3-28 5"/>
<path d="M10489 2000l 25 1 27 4 22 11 16 19-2 25-12 24-19 23-19 19-19 18"/>
<path d="M10470 2321l"/>
<path d="M2339 3807l 14-20 19-16 25 5 18 20 6 28-2 26-7 24-11 26-14 27-16 30-18 31-19 30-16 25-15 20-17 21 9-26 13-26 11-21 12-21 13-22 18-29 17-27 18-22 17-21 17-17 21-18 24-16 26-8 22 10 4 25-3 24-9 31-9 25-10 27-11 29-12 27-12 26-12 28-10 23 23-11 24-22 20-24 21-27 21-28 19-26 16-23 15-20 18-24 17-19 18-19 17 18-1 26-2 29-4 26-2 30-1 25 3 26 18 19"/>
<path d="M2955 3877l-11-24-19-16-25-2-25 7-22 18-21 19-22 22-16 23-12 25 5 24 23 13 25 0 29-7 27-10 27-11 22-11 23-15 16-18-10 23 0 25 9 23"/>
<path d="M3121 3855l-22 12-5 25-5 24-9 25-7 27"/>
<path d="M3139 3695l"/>
<path d="M3215 3804l-1 24-3 25-3 25-6 27-9 24-12 23 16-22 20-25 16-21 18-20 17-19 21-22 17-19 18-17 23-11 10 23-4 25-7 23-8 24-9 29-9 25-8 25-1 28"/>
<path d="M3579 3557l 9 25 5 23 0 28-3 26-8 32-7 27-8 28-10 28-10 28-10 29-12 27-10 25-9 23-8 25 8 24 26 5 27-6 28-10 31-12 25-10 23-10 24-11 22-12"/>
<path d="M3517 3776l-27 3 27 1 28-6 35-6 26-6"/>
<path d="M3854 3754l-25 2-25 6-23 10-23 17-20 16-17 19 3 24 25 4 28-6 23-6 28-9 24-11 17-18-18 18-6 25-1 24 21 15"/>
<path d="M4026 3759l-23 10-12 25-6 26-7 26-8 28"/>
<path d="M4034 3645l"/>
<path d="M4088 3777l-6 25-3 24-6 27-8 24-13 22 16-21 21-26 16-18 16-18 21-23 17-19 21-18 22-12 10 24 2 26-3 26-3 28-4 26-5 24-2 29"/>
<path d="M5223 3804l 11-23-9-22-26 5-29 7-22 11-23 14-23 14-19 17-16 22 13 23 21 12 29 7 26 4 24 4 26 7 22 12 6 23-19 21-20 15-25 14-28 8-28 8-29 6-26 2-24 0"/>
<path d="M5314 3851l 20 15 29-2 26-4 25-5 27-9 25-9 23-13 17-20-12-23-22-12-26-1-24 8-22 11-22 16-20 18-17 19-13 22-9 25-5 26 8 24 19 15 22 9 24 1 30-3 33-7 24-7"/>
<path d="M5704 3567l-1 26-4 26-6 24-6 29-6 31-10 26-12 27-12 27-11 26-11 28-9 28-7 23-7 28 2 25 18 20 30 1 32-6"/>
<path d="M5628 3738l-27-4-27 1 27 6 30 1 29-1 32-1 25-1 25-1 25-2"/>
<path d="M6289 3782l-24 2-14 22-9 26 1 26 11 23 23 15 28 0 25-6 23-16 13-20-1-24-16-18 25-2 24-6 29-11 23-11 25-12 27-15 26-15 24-20 20-18 21-18 15-20 15-21 11-21 13-22 9-22 6-31 6-29 3-26-25-4-22 23-19 24-18 30-12 23-13 24-12 28-14 28-13 32-14 34-12 35-10 36-10 36-8 35-6 34-3 31-1 30 0 28 2 25 5 32 6 28 8 24 9 23 13 21 3-28 2-28 2-31-2-29-1-29-2-32-1-31-1-29 0-25-2-26-2-27 28-1 25 6 24 4"/>
<path d="M7569 3594l-23-10-22 11-24 16-26 22-17 17-19 21-20 24-20 27-20 28-15 29-11 27-6 27-1 25 4 32 14 31 20 27 18 25 23 20 25 13 31 10 32 5 34 2 35-2 35-5 24-6 23-9 30-14 26-16 23-18 22-19 19-20 16-20 13-24 6-25 5-29 0-31-2-34-9-34-12-34-15-28-17-24-19-20-22-17-21-14-23-9-24-4-31 4-28 11-21 17"/>
<path d="M8039 3784l-25-7-27 2-24 10-24 11-16 18 15 21 21 11 26 7 27 7 27 6 22 9-20 21-22 8-25 7-25 7-28 4-26 5-24 4"/>
<path d="M2256 5922l 23-6 25 4 26 5 27 5 26 4 26 5 28 2 27 4 28 4 25 3 28 2 29 1 32 2 26 1 26 0 29 1 29 0 29 1 28 1 29 0 30 0 32 0 30 0 33-1 35-1 24 0 26-1 26-2 25-2 25-2 27-1 26-1 27-1 27-2 27-2 27-2 26-1 28-2 29-2 30-2 31-1 31-2 31-2 32-3 30-1 31-3 32-2 31-2 33-2 33-1 31-1 32-2 32-2 33-1 32-3 33-2 33-1 31-2 33-2 33-1 31-1 32-1 33-1 29-1 31-1 30-1 28-1 29-1 27 0 27 0 25 0 24-1 25-1 33-1 34-2 33 0 27-1 26 0 29 0 26 0 27 0 25 0"/>
<path d="M3404 6307l 24 4 24 4 25 5 25 1 25 2 28 1 25 2 25 1 25 2 25 2 24 2 29 2 29 2 30 2 25 1 26 2 27 1 26 3 31 2 25 1 30 1 24 2 31 3 30 0 24 2 25 1 25 1 31 0 24 1 26 0 25 1 26 1 25 0 27 1 26 0 26 0 26 0 27 2 28 0 27 0 26 0 27 0 26 0 27 0 27 0 27-1 25 0 25-1 26 0 26 0 25 0 26-1 26 0 27-1 26 0 27 1 25-1 28-1 25 0 26 0 26 0 26 1 25-1 28 0 25 1 31-1 25-1 25 1 33 0 25 0 26-1 24 1 25 0 27-1 27 0 27 0 27 1 25 0 25 0 24 1 26 1 24 0 26 0 25 0 27 0 32 0 24 1 26 1 32 0 24 0 32 0 25 0 27 0 25 0 25 1 30-1 30 0 30 1 29-1 29 0 28 0 26 0 29 0 26 1 28 0 28 0 25 1 25 2"/>
<path d="M5583 5872l 18-16 25-5 26-5 24-5 27-4 25-2 25-3 29-3 24-4 26-5 30-2 28-2 25-3 27-3 27-2 28-3 28-3 29-3 28-2 29-3 29-4 28-3 28-2 29-2 28-3 29-2 30-2 31-2 25 0 25-2 25-1 26-3 26-1 26 0 28-1 30-2 29-2 30-1 29-2 29-1 28-1 31-1 32-1 29 0 34-1 35-1 33-1 31 0 31-2 32-1 37 0 34-1 34-1 35-1 35 0 35-1 36-2 25-1 24 0 24 0 35 0 32 0 32 0 29 0 31 0 32 0 31 0 29 0 29 2 28-1 24 0 24 1 32 1 26 1 25 0 25 0 26 0 26 3"/>
<path d="M2451 7404l-11-23-27-1-20 16-16 22-12 22-11 27-10 29-7 31-3 33 1 31 3 29 7 25 11 22 19 24 27 18 24 9 29 4 29 0 31-4 31-7 31-12 29-16 27-16 20-18 18-25 13-27 3-29-5-30-9-23-14-22-16-22-17-17-23-19-22-14-24-12-27-12-25-6-25 2"/>
<path d="M3070 7157l-25 3-19 15-18 22-14 23-16 29-10 22-11 25-11 27-11 29-10 29-10 32-7 32-8 32-6 31-3 29-2 30 1 28 0 26 4 25 6 34 9 29 10 25 20 26 23 18 28 12 29 5 31-1"/>
<path d="M3205 7348l-10 25-7 29-6 26-6 28-6 30-7 29-9 28-8 25-8 24 3-24 9-31 7-25 6-26 6-26 4-24 5-30 4-25 7-26 12-21 19 21 7 23 5 24 5 26 7 25 8 27 8 26 9 25 16 26 18 18 23 11 28 3 27-8 21-13 17-21 15-26 10-29 2-24 1-32-1-24-5-31-7-26-8-26-10-23-7-23"/>
<path d="M3553 7260l 23-7 26 2-8 25-20 19-17 19-9 24 20 14 25 5 25 0 24 1"/>
<path d="M3704 7627l 24 5 23-12 20-15 27-20 25-18 24-21 23-24 23-24 23-24 20-24 14-24 8-22 9-31 5-30 2-30 0-28-2-28-10-23-25 7-16 20-14 22-12 28-11 33-7 25-5 26-4 26-4 25-2 33 0 30 3 26 9 28 16 22 18 21 19 15 26 11"/>
<path d="M4123 7482l-23-5-22 10-20 15-17 21-9 25 9 23 23 10 25 2 23-6 16-19 13 21 9 26 5 26 4 24 2 25-1 29-4 29-6 23-8 25-11 23-15 25-16 18-19 18-23 16-24 9-25 0-23-13-18-18-13-21-7-25-2-29"/>
<path d="M4660 7243l-14 24-6 27-5 25-9 32-8 26-11 30-13 28-13 27-11 23-11 23 15-20 14-26 13-29 10-29 7-29 7-28 6-25 7-30 6-24 11-24 17 17 8 24 5 25 8 27 8 28 11 29 11 29 13 24 15 20 17 18 21 12 26 4 24-8 22-17 15-20 10-24 7-25 5-28 1-27-2-24-7-27-6-26-7-27-6-23"/>
<path d="M5000 7070l 8 27 14 25 12 24 16 26 13 28 7 24 9 22 6 25 6 23 7 30 0 32-1 26-5 28-6 29-10 28-11 28-16 28-18 30-18 31-20 30-20 27-17 24-19 22-18 19-20 18-19 16"/>
<path d="M2354 9155l-2 28 1 30 0 28-1 30-1 35-1 24-1 26 0 27 0 27 0 28 0 27 0 28 0 28 1 29 1 28 0 29 1 30 0 31 1 30 1 30 0 29 1 27 1 27 1 25 3 35 2 32 2 29 2 27 2 28 0 26 0 31 0 27 0 25"/>
<path d="M2383 9144l 23-12 25-4 25-3 25-2 25-4 27-4 31-4 34-6 24-3 26-3 27-3 29-3 30-4 31-3 32-4 31-4 32-3 32-2 33-2 33-3 34-1 36-3 34-2 35-1 37-3 37-2 38-1 37-3 40-1 39-1 44-1 46-2 47-1 45-2 24-1 24 0 25-1 25 0 25 0 25 0 26 0 26-1 26 0 26 0 26 0 26 1 27-1 26 0 27 1 26 0 27 0 27 0 25-1 27 0 26 0 25 0 27 0 26 0 26 0 26 0 26 2 26-1 26 0 25 0 26 0 25 0 25 0 25-2 24-1 25 0 24 0 25 0 24 0 24 0 48 0 46-1 44 0 43-1 40 0 38 0 38 0 37 0 35 0 34-1 30 0 26-1 26 0 24 0 35 1 28 0 25-1 25 0 27-2 22 11 7 27 4 26 3 30 2 27 4 29 2 33 3 34 3 33 3 36 4 35 3 34 0 32 3 32 2 30 4 30 1 32 1 31 2 28 3 32 3 30 3 28 2 24 1 27 3 26"/>
<path d="M2294 10042l 23-12 25-5 24-3 27-3 28 0 26 1 29 2 31 1 26 0 25 1 29 1 30 0 31 0 34 0 32 0 34 0 34 0 34-1 32 0 34 0 35 0 25-1 26 1 27 0 25 0 27 0 29-1 29 0 30 0 30-1 30 0 31 0 31 0 33-1 33 0 34-1 35 1 36 0 35 0 37 0 35-1 35 1 37 0 37-1 36-1 39 0 38-1 38-1 40 0 39-1 39-1 40 0 38-1 40-2 40-2 41-2 41-3 41-2 40-1 39-2 39 0 39-2 39-1 38-1 37-2 35 0 35-1 34-2 34-1 36-3 32-1 31-2 30 0 27 0 28-1 27-1 25-2 26-1 35-1 34 0 30 1 26 0 24-1 24-1 27-2 26 0 25-1 24-5 26-6 25 0 25-1 8-24-6-23-6-28-3-28-3-27-5-28-2-28 0-26-3-24"/>
<path d="M2044 9730l-6 25-2 30-1 26-1 30-1 35 0 25 0 27 0 28 1 31-1 33 0 36 0 38-2 41-1 41-2 43-2 47-2 47-1 24-1 25-1 25-1 25-2 24-1 24-1 24-1 25-1 24 0 24-3 49-1 46-2 44-2 43-1 41 0 40-1 39-1 37 0 37-1 32 0 31 0 28 0 25 1 25 1 32 1 27 2 31 1 26"/>
<path d="M1963 9799l 19-15 23-6 26-6 24-5 28-5 31-6 33-6 26-6 27-4 29-5 32-4 31-5 33-6 33-6 34-7 35-6 35-6 36-6 34-4 32-6 32-5 31-5 31-5 30-4 28-6 26-4 25-3 35-3 33 0 27-1 31 1 28 5 27 8 20 14 17 19 11 29 9 28 8 32 7 24 3 26 3 28 2 29 3 30 3 31 4 32 4 34 3 34 4 37 3 36 4 37 4 37 3 38 5 40 4 40 4 39 5 39 4 35 6 34 4 35 6 33 6 34 3 32 4 32 4 31 3 31 3 31 2 33 3 33 2 31 1 33 2 30 1 27 0 24 2 25 1 26 0 25 1 25 1 31 2 25 0 29 1 28-1 29-2 27-3 25-5 27-9 24-11 22-21 15-24 8-25 7-26 3-25 3-31 6-25 3-28 1-30 4-32 5-36 6-26 5-26 2-28 3-28 3-27-2-29 3-28 1-28 1-30 4-28 0-28-1-28 0-27 0-27-1-26-1-25-1-25-2-35-3-33-2-32-3-31-2-30 0-27-1-24 2-28-2-26-9-29-2-24-4-24-9"/>
<path d="M2320 11068l 2 27 3 28 3 28 2 31 3 25 3 25 3 28 4 28 4 31 3 32 4 31 2 34 3 33 2 34 2 33 2 34 2 33 1 31 0 31 0 28 0 27 0 24 0 32-1 28-2 27 3-33 2-28 1-31"/>
<path d="M2292 11205l 2-26 5-26 13-24 19-16 26-12 24-6 25-5 28-5 34-5 25-3 25-2 26-3 26-2 27 0 27-1 29-2 29-2 31-3 30-1 32 0 34 0 34 1 35 0 38-1 39-1 40 0 42-1 41-1 45-1 45-1 47-2 25 0 24-3 26-1 25-2 27-2 27-2 27-3 29-2 30-2 30-1 29-3 31-3 30-3 30-3 31-3 32-3 29-4 31-3 32-3 32-3 32-3 33-3 32-3 31-3 34-2 32-3 34-3 32-3 32-2 32-2 30-1 33-3 31-2 30-1 30-1 30-1 30 0 29-1 29-2 29 0 28-1 28-1 28-1 28 0 26-1 27 0 26 0 26-1 26 0 24-1 25 0 48 1 24-1 25 0 48 0 46 0 46-3 44 1 42 0 41-1 41 1 38 0 36 1 35 0 32 0 30 1 29 0 27 2 25 1 34 0 27 2 24 3 26 8 25 9 20 16 7 24-1 27-3 26-3 25 0 28-3 29-4 34-3 25-3 24-2 26-2 34-1 24 1 36 0 35 0 30 1 28 0 28 2 31 1 28 2 26 2 28 2 25-1 26 0 30 1 25-6 25-7 25-11 22-19 22-27 15-27 12-24 8-28 6-31 12-35 6-26 5-27 3-30 3-33 5-34 6-36 4-39 5-40 4-43 3-45 4-48 4-24 1-26-1-27 1-27 2-26 1-27 1-28 2-28 0-29 1-28 5-31 0-30 2-30 1-31 0-32 2-32 0-33-1-31-1-33 1-32 0-32 1-33 0-33 0-33 0-33 1-34 0-34 0-34 1-35 0-36 1-36-1-35 2-36 0-36 1-36 1-35 2-36 0-36-2-35 3-36 2-36 1-35 2-36 1-36 2-37 3-35 5-34 2-35 3-35 1-33 2-33 2-33 1-31 0-31 2-30 1-30 1-28 1-29 1-27 0-27 0-26 0-25 0-24-1-46-1-42-1-40-2-37-1-33-3-31 0-28-3-25-4-31-6-27-3-27-3-24-2"/>
<path d="M4344 9557l 8 26 5 28 2 26 2 33 0 26 0 28 0 30 0 33 0 36 0 38-1 38 0 39 0 42 0 42-1 44 0 45 1 45 1 46 0 46 1 46 2 24 0 48 2 24 1 48 1 25 0 24 1 25 1 25 1 25 0 26 0 25 1 25 1 24 1 25 2 47 2 46 2 43 2 41 2 37 1 33 3 32 1 29 3 28 4 26 3 26 3 26 4 34 4 29 3 24 3 31 2 27 2 27 2 28-1 25 4 25 2 25"/>
<path d="M4380 9786l 5-27 18-20 21-11 23-9 24-6 26-10 31-8 25-4 30-6 33-4 34-5 38-4 24-3 26-3 26-3 27-3 26-4 28-3 30-3 31-3 32-4 34-5 34-7 35-8 36-7 35-6 34-4 33-6 32-4 31-5 29-3 28-4 30-3 29-3 29-4 28-4 25-4 35-5 30-4 30-4 24-2 30-2 29-3 28 0 28 5 22 12 16 20 12 26 7 26 5 31 7 34 3 25 3 27 4 28 4 28 4 28 5 29 5 29 6 27 6 28 7 29 6 30 6 32 5 34 5 34 6 37 6 39 6 38 4 40 6 40 5 38 5 39 6 38 5 36 5 35 4 35 4 34 2 34 2 35 1 34-1 31 2 31 2 30 2 31 2 29 0 29 0 27-1 25 1 26 0 24-1 25-2 32-2 30-3 28-3 27-4 27-3 29-4 27-4 28-5 27-6 24-2 28-1 26-6 25-10 23-25 3-28-3-24-2-26-1-31-4-28-8-29-4-33-3-35-4-26-3-27 0-28-2-29-3-30 1-32-2-33 0-33-1-32-4-33 1-31 0-33 0-33 1-32 0-32-1-30 1-31-1-31-2-30 0-30-3-30-1-31-1-30-1-26 0-35 0-34-1-30-1-27 0-31-3-25-5-29-5-27 2-24-2-23-6-28 0-26 5-27 4-24 2-28 5"/>
<path d="M8554 7127l-11-22-25 2-22 18-18 26-16 27-11 21-10 23-9 25-7 27-5 27-5 27-2 28 2 27 3 26 6 24 13 32 17 26 24 18 28 11 34 5 24 0 26-3 25-6 25-9 25-10 25-13 28-15 27-15 28-19 26-20 24-21 23-23 19-23 18-23 14-22 17-30 6-26-2-26-9-26-15-25-20-23-25-20-30-16-32-12-33-7-32-4-32-2-28 0-27 2-29 3"/>
<path d="M9210 6931l-24 1-16 19-15 24-10 26-14 31-10 23-10 27-11 28-11 30-10 32-13 36-11 37-11 40-9 41-8 41-7 41-5 41-3 40-2 37 1 32 1 30 5 25 12 30 17 25 19 19 22 13 25 4"/>
<path d="M9283 7192l-11 24-5 30-3 29-3 31-2 34-2 25-1 24-2 25-1 24 0 31-1 25 14-19 6-34 2-24 1-25 1-25 1-25 0-35 0-33 1-29 1-27 24 6 11 26 11 29 11 24 12 25 14 28 12 28 16 26 16 23 20 19 24 19 23 10 25 0 24-19 14-21 13-30 7-33 5-35-1-34-3-32-8-33-8-31-13-29-15-28-13-25-9-23-10-25"/>
<path d="M9656 7060l 24-5 26 0 24 4 13 21-18 18-19 17-18 17 7 24 24 2 26-5 26-4 29-6"/>
<path d="M9814 6937l 28 10 24 11 24 17 19 16 16 17 17 21 16 22 14 25 13 27 12 29 9 30 9 34 1 26 3 27 1 29 0 28-3 29-3 28-5 28-10 29-7 27-8 25-9 25-7 23-11 23-12 21-19 28-17 24-19 22-21 15"/>
<path d="M10747 7509l 18 17 21-12 26-20 21-18 19-17 18-17 15-20 10-23-15 23-4 26 1 27 16 17 27-3 23-10 21-17 19-16 21-17 19-15 13-21 9-24 13 24 11 25 14 23 12 23 5 25-23 10-26-4-24-5 25-11 28-6 24-9 25-9 26-6"/>
<path d="M10862 7209l"/>
<path d="M11792 7514l 21 14 25 3 25-6 24-9 25-13 28-19 19-15 22-18 21-20 22-22 21-24 18-24 20-23 17-23 15-23 15-23 13-23 13-23 12-23 10-34 6-34 2-34 0-29-4-25-8-27-25-1-18 18-19 26-15 23-14 28-15 33-15 38-16 40-13 45-6 24-6 24-6 25-5 26-5 25-4 25-5 26-3 26-3 25-3 24-5 47-2 43 1 40 3 34 6 28 8 24 15 27 15 20 24 16 25 3 27-12 18-18 9-26 1-28-5-29-9-24-11-24-14-27-14-27-13-25-10-22-12-21-11-22 10-23"/>
<path d="M12254 7328l-16 20-16 25-8 27-7 27-4 27 1 24"/>
<path d="M12283 7226l"/>
<path d="M12355 7357l-14 22-10 23-10 24-8 24 22-18 16-20 16-22 15-19 20-19 20-15 25-6 16 20 2 26-6 27-5 26-3 25"/>
<path d="M12584 7344l 22-11 26-11 22-11 25-9-9-23-27-6-27-2-25 5-16 18-13 23 1 26 10 23 19 20 25 15 27 7 26 2 27-2 27-5"/>
<path d="M13051 7286l 5 27 9 25 5 26 8 27 12 22 22 12 22-17 15-20 18-26 16-28 13-28 14-30 16-32 13-31 11-34 5-23 9-25 8-25 9-24 9-22 12-32 10-27 8-23 10-25 5-25 4-24"/>
<path d="M9418 8492l-15-19-24 4-26 10-23 17-17 19-17 25-11 23-8 22-6 28 3 29 14 21 26 13 30 5 26 0 28-2"/>
<path d="M9627 8562l-24 0-23 9-23 12-15 22 2 25 15 21 26 6 28 0 28-6 24-12 20-14-11-24-27-3-25 1-25 2-25 5 28-8 22-10 25-12 28-14 22-11 22-10 23-10 26-12 25-11 14 20-12 26-10 25-11 22-9 23 1 25 24 12 24-6 22-11 21-15 23-16 17-19 10-22-1-25 18 16 23 10 28 2 26-2 24-4"/>
<path d="M10072 8506l 13 23 1 25 0 26-6 24 7-29 11-24 12-23 12-21 15-21 18-18 23-11 20 15 6 24-5 27-8 23-8 24-5 25 24-1 25-17"/>
<path d="M10364 8267l-4 25 3 29 1 28 0 25 1 26-1 28 2 30-1 30-6 30-3 31-3 29 0 29 6 27 25 4 24-17 23-21"/>
<path d="M10340 8434l-26 0-27 6-23 8 27-12 26-11 29-13 23-9 23-9"/>
<path d="M11024 8138l-3 25 4 30 2 25 2 28 0 31-2 34-5 25-3 27-6 27-7 28-6 28-10 28-11 26-10 25-12 24-15 31-16 24-14 23 17-19 19-25 14-22 15-22 15-21 15-20 15-20 23-26 21-25 20-19 24-19 21-12 26-3 3 28-9 29-12 28-13 30-10 22-12 28-5 25 5 23 25 2 27-9"/>
<path d="M11272 8487l-21 13-18 20-4 25 18 18 28 4 27-6 25-11 24-15 13-21-10-24-22-16-24-7-25-1-24 5 26 2 28-9 26-7 25-9 24-6 26-4 26 0 16 18-9 23-10 26-10 23-4 24 14 22 25-1 24-6 28-11 25-13 22-13 20-16-17 18 6 24 28-3 31-8 25-9 28-9 25-10 24-8 23-11 19-18-7-26-18-21-19-16-21-13-27-12-27-6-26-2"/>
<path d="M12124 8426l 16-20 24-10 15 19-3 30-10 30-11 24-13 25-13 24-13 21-14 24 17-23 16-27 16-21 15-22 14-19 17-24 16-19 20-17 19 19 1 28-5 27-4 24-5 25 23-14 18-21 17-19 15-19 18-22 18-21 19-17 24-7-3 24-5 28-4 25-1 27 3 25 20 13 27-3 30-10 126-96-12-24-25-6-24 8-20 13-20 18-20 20-17 22-8 24 22 14 29-5 27-9 24-12 21-13 20-18-21 13 3 25 25 8 27-1 27-8 23-10 21-15 15-19 5-25-16 19-8 25-1 27 25 10 25-16 19-19 19-21 16-20 15-20-1 27-5 25-3 25 22 13 24-10 20-14 17-20-12 23 5 24 26 4 29-8 27-9 28-14 24-15 19-16 17-20 6-25-5-23-20 14-7 25 1 25 0 24 4 29 4 25 3 28 1 31 1 32-2 35-3 24-3 26-4 25-4 26-4 25-7 25-8 25-9 27-12 25-11 24-12 23-14 21-18 26-20 23-18 17-21 13-24-1-14-20-5-31 2-28 7-35 7-25 8-26 11-28 11-26 14-25 15-23 14-22 15-21 20-31 16-19 22-25 22-24 22-20 24-18 21-15 25-16"/>
<path d="M9283 9353l-23-12-25 5-26 12-24 15-23 19-20 21-16 23-8 24-2 26 13 21 23 10 25 3 31-2"/>
<path d="M9420 9445l-28-1-26 9-22 13-19 17 17 20 26 7 27 2 28-1 25-5-1-25-20-19-20-15 5-25 26-16 26-10 23-9 28-7 27-3 23 8 16 20-5 24-11 23-7 23 20 15 22-10 23-14 24-19 23-21 20-22 16-20 15-20 13-23 3 26-6 25-5 26-2 25 1 27 18 17 26-3 22-12"/>
<path d="M9933 9105l 4 24 9 28 1 28-2 26-4 27-3 29-9 33-6 25-6 24-7 23-11 33-13 26-9 28-3 25 25 8 29-11 25-15 22-14 25-20 20-20 15-25"/>
<path d="M9988 9309l-27-8-26-2-24 4 25-5 26-9 31-10"/>
<path d="M10119 9302l-14 23-11 21-11 23-8 27-1 25"/>
<path d="M10170 9176l"/>
<path d="M10350 9294l-26-6-27-3-27 7-23 13-22 16-20 19-13 24-4 25 23 12 26 0 31-7 24-7 25-10 24-14 20-16 9-24-23 15-6 27-5 25 1 27 6 28 6 31 5 25 4 29 4 30 2 32-1 35-2 24-5 25-4 25-10 34-12 29-14 25-15 19-24 19-28 11-31-1-24-6-22-12-18-16-20-23-13-26-7-30 0-25 6-27 12-30"/>
<path d="M10484 9339l 13 22-5 26-7 25-3 25 26-1 27-15 21-18 20-20 16-20 12-21 6-23-14 21-7 26-2 24 2 26 11 24"/>
<path d="M10779 9334l-26 11-20 16-18 18 3 25 15 20 23 11 26 0 24-4 24-14 13-20-3-27-19-17-26-7-24 5 27 6 27-5 27-4 28-7 25-9 25-4 15 20-11 24 10 22 24-6 24-10 21 11 27 4 23-5 27-12 25-12 21-12 19-14 17-21 14-22 3-25-13-21-25-2-8 25 13 23 15 24 12 23 14 21 13 23 6 26-4 25-16 19-22 11-24 9-27 0-21-14 8-24 20-13 27-7 26-2 28 3 25 4 25 8 25 11"/>
<path d="M11918 9073l 15 23-5 25-8 25-10 28-12 32-10 22-12 21-10 22-10 24-10 24-11 34-10 28-9 27 1 25 17 19 27 0 27-6 31-11"/>
<path d="M12112 9241l-23-11-25 6-23 14-19 16-15 20 2 25 26 8 25 2 27 0 28 0 25 2 25 4 13 20-20 14-26 13-25 11-24 9-27 9-25 5-24 3 23-6"/>
<path d="M12315 9436l"/>
<path d="M11797 9169l 8-23 22-15 22-15 22-17 24-16 22-15 22-16"/>
<path d="M11734 9485l 23-11 27-2 26-4 27-5 30-2 25-1 28 0 25 1 25-2 26-1"/>
</svg>
