<svg xmlns="http://www.w3.org/2000/svg" viewBox="1739 1650 6995 3891" stroke="black" stroke-width="16" stroke-linecap="round" stroke-linejoin="round" fill="none" data-xena="0 0 0"><style>@media(prefers-color-scheme:dark){svg{background-color:black;stroke:white;}}</style>
<path d="M2028 1971l 13-21-2-25-22-13-27 11-19 15-23 23-16 21-17 24-16 27-15 30-12 31-11 32-9 31-7 28-3 26 0 36 7 32 12 28 16 21 17 18 24 17 27 10 29 3 31-4 29-11 21-14 21-16 16-21 18-22 17-24 12-26 8-25 3-25-3-27-6-28-10-28-11-29-15-29-13-29-16-30-13-26-12-21"/>
<path d="M2371 1753l-26 10-19 23-16 22-15 28-17 31-12 22-12 23-11 25-11 26-9 26-8 28-7 28-7 27-5 27-5 27-4 25-2 25-2 34 1 32 2 30 4 26 6 27 7 28 10 22 21 13"/>
<path d="M2396 2003l-14 20-6 26-5 24-6 26-6 24-6 26-5 24-5 25-8 28-6 27 25-15 12-25 10-28 8-29 5-30 2-28 1-29 0-27-1-28-6-25-12 25-1 27 2 30 8 29 10 23 13 22 18 21 19 15 24 14 24 9 24-7 18-18 9-25 3-29-2-25-8-27-9-28-11-25-10-25-7-27"/>
<path d="M2646 1866l 26-7 26 2 24 3-14 20-23 13-20 16-8 24 18 21 26 6 25-4"/>
<path d="M2792 1775l 15 22 15 20 15 22 13 22 15 22 15 21 15 22 14 25 9 27 5 27 2 29 0 24-3 27-9 26-14 28-18 28-18 26-20 27-21 25-24 22"/>
<path d="M3337 2287l 6 23 26 0 25-12 23-16 24-17 22-17 20-17 21-20 17-22 13-23-11 24-9 31-7 27-9 28-8 29-10 29-10 29-8 31-8 29-10 28-9 28-8 25-9 30-5 24 15-29 8-29 9-33 8-33 6-24 7-34 7-34 6-38 7-34 8-35 8-28 10-23 14-24 22-15 26-3 24 4 25 5 22 15 3 26-11 26-16 21-21 21-23 22-23 21-19 15"/>
<path d="M3767 2184l-20-14-22 8-22 20-21 19-20 19-16 21 10 22 27-7 22-11 21-12 21-13 15 21 25 0 25-6"/>
<path d="M3892 2173l-21 14-10 25-6 24-2 24"/>
<path d="M3932 2051l"/>
<path d="M3941 2175l 1 25 3 24-1 27-8 22-9-24 6-26 11-26 15-19 19-16 24-12 23-8"/>
<path d="M4149 2140l-24-2-25 7-20 15 10 22 23 6 25 8 22 13 15 20 3 25-12 23-21 17-24 13-25 5-16-19"/>
<path d="M4624 2196l-24-2-19 18-16 24-8 23-3 26 9 22 23 11 28-2 27-10 19-19 9-24-12-22-19-18 25-7 23-11 26-17 24-15 19-16 19-16 19-18 22-22 17-25 15-27 8-26 4-25 2-24-5-25-27 4-19 16-16 18-15 27-14 31-10 22-10 23-9 25-9 24-8 24-7 25-6 26-6 26-2 27-2 27-2 25 0 25-1 24 3 33 3 31 6 31 11 26 17 20 24-5 12-22 6-24 2-26-1-25-3-27-4-26-4-25-8-26-15-22 20-19 26-8 32-6"/>
<path d="M5276 2284l 26-10 26-11 30-15 28-15 23-15 18-19 8-23 2-25 25-5 25-1 12 23-8 26-11 21-6 26 10 22 25 10"/>
<path d="M5654 2190l-24-2-18 18 6 24 27 4 27-7 24-11 19-16 2-26-20-14 25-9 25-6 26-4 25 0 9 25-12 24-8 24 12 21 25-4 23-9 21-12 20-14 12 21 18 19 25 6 26-5 24-11 19-19 14-23-2-26-9-23-13-21 13 21 26 6 25 1 24-4 21-13-12 22 7 23 10 26 10 24 1 25-18 17-24 4-22-12 19-17 24-5 28-4 27 1"/>
<path d="M6284 2268l"/>
<path d="M2001 3349l 7-23 20-15 23 15 13 25 4 25-2 26-6 30-7 23-9 27-11 27-12 26-12 23-14 24 6-28 12-33 8-24 10-24 9-23 12-29 10-25 12-26 16-22 25-9 21 12 13 21 7 28 1 25-4 25-7 28-9 23-10 24 19-25 16-25 15-28 15-26 13-25 13-24 12-27 15-23 17-18 24 5 3 29-3 28-7 26-7 27-5 25-2 25 8 25"/>
<path d="M2441 3402l 25 9 25-9 23-14 23-16 18-18 12-21-11-24-23-14-26-3-24 6-25 13-19 17-15 22-12 25-6 29-2 25 3 25 15 24 22 12 30 2 28-6 23-9 26-13 26-15"/>
<path d="M2668 3301l 25 3 26-2 12 21-14 20-15 24-15 23-11 24 1 26 21 16"/>
<path d="M2908 3336l-7-23-18-18-27 1-21 16-18 17-15 21-14 24-10 23-8 25 8 25 25 9 24-5 21-11 21-14 19-16 9 26 0 30 0 28-1 29-2 24 0 28-1 25-2 28-2 28-4 31-7 31-8 33-10 34-10 33-12 30-11 26-12 21-16 21-14-22 1-26 5-35 6-27 7-30 9-31 11-31 10-31 9-29 9-27 9-24 14-31 13-24 15-26"/>
<path d="M3019 3418l 19 15 23-6 22-12 20-17 14-22-6-25-19-19-25-8-23 11-20 16-16 19-12 25-10 27-5 26 1 24 9 26 17 18 24 12 29-1 30-8 25-9 29-10"/>
<path d="M3578 2940l 13-23 18-16 10 27-2 29-7 29-7 24-9 25-11 28-13 28-13 28-16 29-16 29-17 30-19 31-18 31-18 31-19 29-18 28-18 28-15 27-13 25-12 23-16 31-11 24-7 25"/>
<path d="M3707 3210l-14 23-9 23-10 27-9 23-9 29-5 25 25 11 22-13 26-20 20-15 23-21 19-21 16-18 16-18 0 26-3 26 3 25 19 16 26-10 20-14 19-17 15-21 13-21 14-21 11 23 0 27 1 27-1 24 26-11 19-20 18-18 18-18 20-13 7 25 3 25 9 22"/>
<path d="M4214 3231l 5 24-7 28-9 24-13 25-12 21 22-18 16-18 20-25 18-22 18-21 18-20 13 24-6 28-10 23-9 25 25-12 20-20 21-23 18-20 18-17 17-17 8 27-5 23-9 26-5 25 13 22"/>
<path d="M4505 3271l 24-2 26-9 22-11 23-14 20-15 2-25-19-15-25-4-26 4-24 11-18 23-13 25-7 25 5 24 18 20 25 11 27 4 31-1 29-5 31-7 32-11 31-12"/>
<path d="M4773 3173l 26-4 25 5-13 24-19 21-19 21-17 21-14 21 0 27 18 15 29 0"/>
<path d="M5078 3168l-27-2-27 7-28 12-23 13-21 18-21 21-17 20-11 25 4 26 26 8 26-6 26-12 23-15 20-14 21-18 19-19-6 23-8 24-6 23-5 28-4 24-6 27-5 29-6 32-5 35-5 24-4 26-5 26-6 25-5 25-7 25-8 23-15 33-17 28-16 22-18 18-24 16-26 1-15-25-1-31 5-32 11-34 7-25 12-25 12-25 13-26 15-26 13-26 15-25 14-23"/>
<path d="M5184 3261l 23-11 25-9 23-12 19-15 6-23-16-19-26-3-24 9-21 13-17 22-15 22-16 22-11 27-1 28 11 24 20 19 23 6 25 0 33-4"/>
<path d="M6106 3207l 2-26-3-25-23-9-24 12-25 19-19 21-21 25-17 26-16 26-12 23-10 25-3 24 29 4 29-16 24-20 25-23 22-27 21-26 17-25 14-28 12-27 10-29 9-29 9-32 7-33 8-32 7-29 7-24 5-24-21 23-13 23-13 30-14 33-9 23-8 24-9 23-12 33-12 31-9 31-7 30-5 27 0 29 12 24 21 12 28 1 23-9 19-15"/>
<path d="M6217 3211l-8 25-6 26-4 25-7 24 1 24"/>
<path d="M6289 3079l"/>
<path d="M6331 3252l-3 26-2 26 7 23 17 17 19-17 17-23 17-24 11-21 9-23 9-26 6-25"/>
<path d="M6443 3321l 26 3 26-12 20-15 20-18 19-21 13-20 11-26 6-24-3 25 7 23 11 22 8 24-8 23-24 9-24 4 23 6 24 0 25 1 25 5"/>
<path d="M6800 3393l"/>
<path d="M2162 4485l 26-8 26-9 28-6 24-7 26-9 28-9 26-8 25-7 24-6 24-6 27-6 28-7 27-6 25-6 25-5 26-6 27-4"/>
<path d="M2243 4459l-11 25-3 25-3 30-4 33-4 24-5 25-6 26-6 27-6 28-7 29-7 29-7 28-7 28-7 27-7 27-6 25-6 23-6 23-7 33-6 28-6 29-9 24-5-26-3-32-3-27-4-26-6-28-10-27-25 2-12 25-7 25-4 27-2 25 6 25"/>
<path d="M2347 4668l 4 25 2 24 2 29 3 27 4 29 2 32-1 24-1 32-2 31-4 26-2 25"/>
<path d="M2384 4637l 18-18 26-15 23-9 31-9 23-5 24-3 25-2 31 2 26 5 23 9 20 12 11 25-7 25-13 23-17 21-21 23-24 21-25 21-26 18-28 14-24 9-24 7-26 5-25-3"/>
<path d="M3417 4806l 2-24-10-23-25-8-27 7-26 12-25 16-19 14-20 16-21 18-16 20 15 20 26 1 26-1 28-2 29-2 28-1 29 1 28 3 23 6 24 15 6 26-10 23-16 24-16 22-21 19-21 17-22 14-27 15-26 10-26 6-29 0-22-10-8-25 12-25 15-19"/>
<path d="M3623 4869l 25-5 22-14 23-17 20-21 15-21-2-24-23-15-26-6-28 4-23 11-19 15-19 20-15 23-12 24-7 25-2 25 4 28 14 24 21 19 27 10 28 0 30-5 26-8 27-11 27-12"/>
<path d="M3998 4803l-9-23-17-19-22-12-25 3-22 9-20 17-15 19-13 26-8 28-4 24 7 23 22 10 26-1 27-7 24-14 19-15 15-20 12-21 10-22-15 19-3 27 0 28 2 26 2 31 4 26 5 27 4 25 5 25 5 24 2 26 3 25 1 26 1 27-2 26-3 28-4 27-5 28-7 27-9 28-13 25-14 23-15 19-22 19-24 13-25 5-28-8-23-16-22-21-15-20-12-24-9-28-9-31-6-33-3-34 2-33 4-32 8-28"/>
<path d="M4115 4775l-2 25-1 29-2 25-8 27-10 24-10 23 0-29 13-29 13-23 15-26 13-24 17-21 19-24 16-18 20-15 24-2 11 22-4 25-8 26-12 24-12 24 17-20 20-25 16-20 18-25 18-22 17-18 19-19 18 19-2 25-2 26-5 27-6 26-2 27 15 22 26-3"/>
<path d="M4466 4781l 23 9 22-9 20-15 18-18 8-24-15-21-24-6-25 7-22 13-18 16-17 19-16 23-15 23-9 22-5 25 8 27 21 19 23 9 24 2 29-3 26-7 27-9 25-8"/>
<path d="M4634 4753l-20 17-4 27 0 25-2 25 24-11 16-25 16-22 15-23 16-19 15-19 19-18 24-6 4 26-4 27-5 25-4 25-2 27 2 27 17 17"/>
<path d="M5008 4447l-10 23-9 26-8 24-6 25-9 28-8 31-10 34-7 23-6 26-7 25-6 36-6 31-3 28 0 28 5 24 20 16 24 1 25-11 23-17 21-22 17-18"/>
<path d="M4899 4635l-23 8 29 0 30-3 24-3 29-4 29-3"/>
<path d="M5218 4620l-19 15-20 14-24 14-22 17-21 19-17 21 17 17 26 6 25 4 25 6 23 9 18 17-14 23-25 17-22 11-25 9-26 8-25 6-25 4-27-1"/>
<path d="M6158 4808l-13 21-7 26 9 28 19 20 25 10 29 3 26-3 24-7 22-10 17-19 0-25-17-21-21-18-24-15-25-10 28 2 25-9 25-9 29-14 22-11 23-13 24-15 23-16 21-18 22-19 20-18 19-19 19-18 22-28 19-29 15-33 10-35 6-25 7-25 6-25 6-23 5-33 4-24-5-26-25 8-17 19-21 28-14 25-15 28-15 32-13 37-14 40-14 43-13 44-13 45-6 24-12 44-8 45-8 43-8 42-6 40-4 39-2 37 0 34 2 31 4 28 5 26 9 33 13 28 11 21 17 21 23 10 14-25 6-28 3-35-3-25-3-28-4-28-5-31-3-30-6-29-7-28-7-24-10-29-11-23-14-23 22-17 26-1 24-2"/>
<path d="M7276 4776l 20-19 25-11 25-14 25-17 22-17 22-20 22-18 14-23 14-21 13-21 20-18 23-16 24-16 21-14 24-14 25-9 26-2 27 6 25 8 0 25-16 19-21 20-17 16-18 18-22 18-22 18-19 20-21 23-16 21-11 22 21 20 28 3 28-4"/>
<path d="M7852 4606l-25 5-23 9-23 13-21 18-14 20-8 24 6 27 24 14 24 1 29-1 28-5 26-8 23-15 12-22-5-25-13-22-18-17 23-16 28-5 28-6 26-4 26-2 27-2 26 1 8 24-13 22-9 24 3 25 22 14 28-2 25-7 24-10 20-15 25-4 22 8 27 1 28-4 23-6 25-9 24-13 16-21 0-26-9-23-16-21-21-18-21-14"/>
<path d="M8578 4513l-24 0-25 6-20 16-3 25 17 20 21 11 23 12 22 11 22 15 19 17-4 26-20 17-23 16-23 9-27 6-25 3-28 1-25-3-25-11"/>
</svg>
