<svg xmlns="http://www.w3.org/2000/svg" viewBox="1235 714 18682 12845" stroke="black" stroke-width="16" stroke-linecap="round" stroke-linejoin="round" fill="none" data-xena="0 0 0"><style>@media(prefers-color-scheme:dark){svg{background-color:black;stroke:white;}}</style>
<path d="M5022 4330l"/>
<path d="M5020 4229l 3 24 0 27 1 31 1 26 2 25 3 31 2 26 5 27 3 27"/>
<path d="M7418 3367l 18-17 27-10 26-8 27-1 27 3 25 8 21 17 2 25-11 27-13 20-18 25-22 26-17 19-18 18-23 28-22 25-18 23-15 20-14 22 23 13 25-7 28-9 26-9 24-6 25-10 28-8"/>
<path d="M10088 3632l 17-18 23-6 29-5 26-3 28 1 23 5 17 19-5 27-16 19-20 23-19 23-23 16 23 12 24-7 30-5 26 0 27 5 19 16 1 25-6 24-16 21-19 18-25 21-21 14-21 13-21 12-31 11-24 5-27 3-27-6"/>
<path d="M12315 4086l-11 24-8 23-11 26-10 26-7 26-5 25 15 20 29 2 28-5 29-7 30-12 30-9 27-7 28-11 25-11"/>
<path d="M12435 4139l-14 23-5 29-1 31 3 25 1 26 1 26 4 26"/>
<path d="M13811 4150l 27-6 26-9 25-8 29-10 30-10 30-9"/>
<path d="M13860 4157l-12 21-7 27-1 24 15 22 25 1 25-4 26-4 24-3 27-2 24 0 27 4 24 6 20 14-1 26-20 20-20 20-23 19-20 14-23 18-24 14-25 13-22 10-26 6"/>
<path d="M15688 4934l-23 14-16 21-14 26-10 28-10 29-9 30-1 26 5 24 9 23 17 23 20 14 23 9 25 4 24-1 24-6 23-10 7-25-14-22-22-20-28-10-28-1-26 7-21 15"/>
<path d="M17007 6121l 23 8 30 3 24 3 30 3 29 0 28 1 28 1 24 3 23 9 3 25-14 22-10 27-10 25-13 28-11 22-11 26-7 24-9 27-5 26"/>
<path d="M17447 8307l 12-23-3-25-18-18-27-1-27 6-24 12-24 15-19 15-22 23-15 23-9 25 3 26 18 21 24 12 30 10 24 6 32 9 30 8 29 8 23 9 21 14 10 24-13 26-18 21-23 21-22 14-28 13-27 4-26-3-26-16-12-22-1-32 5-28 12-32 12-22 13-23 16-22 17-19 17-18 24-25 25-21 27-17 24-12 26-11"/>
<path d="M16985 10519l 8-25 7-24 4-25 4-27-5-24-13-20-21-13-26 0-27 9-21 14-22 19-18 24-13 26-10 27-1 25 12 27 17 17 24 9 28 3 30-6 28-14 23-17 20-19-1-25-16 19-6 24-3 26-3 31-5 31-5 24-4 26-6 23-9 30-2 27 3 25 5 26"/>
<path d="M15496 11768l-5 25-3 25-4 26-4 30-5 26-7 25-8 26-6 24-8 22-11 26"/>
<path d="M15629 11875l-20 17-3 28 6 25 13 23 21 22 25 12 27 1 26-5 28-12 21-14 17-17 19-24 15-23 6-27-9-26-12-25-25-16-28-5-32 4-25 7-25 9-23 13-23 16"/>
<path d="M12968 12482l 4 28 1 28 3 32 0 26 1 30-1 29-1 27-2 27-1 25 0 27"/>
<path d="M13175 12433l-7 27-1 29-1 26 1 29 1 30 1 31 0 29-2 30 0 26-2 26-3 32"/>
<path d="M10922 12680l 2 27 0 29 0 28-1 29-3 29 0 28-3 28 1 28 5 25 2 26 2 24 10 25"/>
<path d="M11114 12752l 19-17 29 1 29 4 24 4 26 5 21 12-11 26-14 20-17 18-20 16-19 19-20 18-18 22-17 21-16 24-13 24 9 24 25 10 24 3 27 0 24-1 25-2 28-5 25-4 24-1"/>
<path d="M9042 12876l-8 26-3 27-3 28-2 32 1 35 0 37-1 26-2 25-1 36 0 33 2 31 1 31 1 25 2 25"/>
<path d="M9280 12949l 24 3 25 4 25 7 22 12-6 23-17 21-18 19-19 16-18 17-22 18-15 20 16 19 25 1 28-1 26 4 24 6 4 26-7 26-12 23-15 25-20 20-23 17-25 14-25 8-26 2"/>
<path d="M6764 13004l 8 26 1 30-2 30-2 37-3 25-4 26-3 29-3 28-4 28-3 27-5 33-4 29-2 31"/>
<path d="M6922 13055l-19 15-11 21-12 24-12 29-8 22-9 26-5 25-4 25-3 27 3 26 22 10 27-1 28-13 29-13 29-14 28-14 26-16 21-18"/>
<path d="M6979 13177l-3 27 9 28 5 28 0 28 0 28-1 27-1 27 2 27-2 26-3 31"/>
<path d="M4537 12517l-9 26 3 24 4 29 6 26 5 29 5 29 7 24 11 23"/>
<path d="M4686 12452l 26-11 27-9 25-7 24-9"/>
<path d="M4733 12424l-22 14-13 21-1 25 2 29 3 26 5 25 18 20 25 8 25-3 25-4 25-6 28-9 28-4 25-2 25 8 3 28-12 24-15 24-18 22-20 21-22 16-22 13-25 9-26 3-24 0-26-10-19-21"/>
<path d="M3039 11526l-3 26-2 30-1 25 0 27 0 28 0 29 1 27 0 27 1 25 4 25"/>
<path d="M3230 11434l-17 25-10 23-6 26-2 26 2 24 3 27 5 26 5 25 8 24 13 26 15 21 22 16 26 8 25-5 17-19 11-21 3-27-15-22-24-6-27 4-24 8-19 17-15 20"/>
<path d="M2056 9898l 5 30 4 25 4 28 3 32 4 32 3 35 2 32 2 33 3 27 6 29 9 23"/>
<path d="M2220 9882l 21-14 24-15 25-14 27-14 26-10 28-9 25-3 7 24-7 27-9 27-6 24-2 27-1 28-2 33-1 25 0 24 0 24 1 26 2 25 2 26"/>
<path d="M1339 8793l-2 29 1 24 2 27 1 28 3 24 6 26 11 23"/>
<path d="M1568 8678l-27-2-23 9-21 16-11 22 6 27 20 16 23 9 25 5 25 7 23 13 19 20 4 24-7 23-17 22-22 9-27-7-20-16-7-24 3-29 9-27 13-28 12-22 13-21 14-20 18-23 16-18"/>
<path d="M1866 6773l-4 28 2 24 5 30 4 24 4 28 4 29 3 27 5 31 6 28"/>
<path d="M2106 6705l-5-24-10-25-22-13-23 16-18 22-17 26-14 26-7 27 7 23 26 2 22-10 22-16 22-16 19-16-4 26 1 25 5 27 7 27 6 28 3 25 4 26 3 27"/>
<path d="M3042 5833l 17-19 25-8 28 0 28 6 20 13 5 24-11 23-16 25-15 22-16 22-14 22-16 25-11 23 7 25 28 2 27-7 26-10 29-12 23-9"/>
<path d="M3333 5842l-23 12-13 23-5 27 6 26 15 22 25 2 25-9 22-15 19-19 15-21 7-23-5-27-18-21-25-10-25 3-22 11-16 20"/>
<path d="M5412 4513l 26 7 26 7 25 9 28 12 23 11 28 14 29 13 23 12 22 11 24 14 26 14 28 16 31 17 31 16 22 13 22 12 24 14 22 13 25 14 22 14 24 14 26 16 23 14 27 14 26 15 27 13 28 15 28 16 30 16 31 17 33 15 33 16 35 14 38 16 37 17 37 17 36 17 36 17 38 16 39 14 40 16 40 17 39 17 39 19 42 18 43 18 43 18 22 10 23 9 44 18 45 17 44 18 46 16 23 9 23 9 24 9 23 8 23 9 24 9 24 9 25 9 24 10 25 8 24 9 24 9 24 8 25 10 25 9 26 9 24 9 25 10 25 9 24 11 26 11 25 10 25 10 22 11 25 10 26 12 26 10 26 11 25 11 26 11 29 11 26 12 27 11 26 11 25 11 25 13 27 12 27 12 26 13 27 12 28 13 29 13 29 13 29 12 31 12 28 13 29 12 30 12 31 13 29 12 31 11 30 14 31 11 32 12 30 12 31 12 31 12 30 11 31 13 32 12 30 13 30 13 30 14 31 13 30 13 31 14 29 13 30 13 30 13 28 14 30 14 30 13 29 14 30 13 30 15 31 14 29 14 29 14 29 13 30 15 28 13 29 14 28 13 27 14 29 14 29 15 29 14 29 14 30 14 29 15 29 14 30 14 30 14 30 14 30 16 29 14 31 15 30 15 32 16 29 16 31 15 29 15 30 14 31 14 29 15 30 15 30 14 30 15 31 14 31 15 31 15 30 15 31 15 31 15 33 15 32 15 31 14 31 14 32 15 32 14 32 14 31 14 31 15 33 14 32 15 33 15 32 14 32 15 32 15 33 15 32 15 31 15 31 15 30 15 31 15 32 16 31 15 32 15 31 15 32 15 31 16 31 15 31 16 31 15 31 15 28 16 31 15 30 16 31 15 31 15 31 15 31 16 32 15 30 16 32 15 32 15 31 15 31 16 31 16 31 15 34 16 31 16 30 17 31 16 30 16 30 15 31 16 32 15 28 15 31 14 30 16 32 15 31 15 32 16 31 15 29 15 33 15 34 16 31 15 30 15 30 16 31 15 32 16 31 15 30 15 28 15 31 14 30 16 31 16 30 16 29 16 31 17 30 16 30 16 30 17 29 16 30 15 30 16 30 15 27 15 30 15 30 16 29 15 31 16 29 15 30 16 29 15 30 16 30 15 31 15 30 16 29 15 31 16 29 16 30 16 31 15 29 15 28 16 30 15 29 15 29 16 30 15 28 16 28 16 29 16 29 16 28 16 27 15 28 16 27 14 27 15 26 16 26 15 25 15 27 15 26 15 26 15 27 15 25 14 26 15 26 14 24 14 26 15 25 14 25 14 25 14 26 14 26 15 24 13 25 15 25 14 25 14 24 14 24 15 22 14 24 14 25 15 25 14 24 15 25 15 24 14 23 15 25 13 24 14 24 14 23 14 23 13 22 14 22 14 23 13 22 13 22 14 20 14 22 12 23 14 22 14 22 13 20 13 22 13 22 14 22 13 21 13 21 12 41 25 22 12 21 13 38 24 38 26 37 25 35 24 36 24 35 23 34 21 33 22 32 20 33 22 32 21 28 20 31 21 29 20 29 21 30 19 27 21 26 19 25 19 26 20 24 17 23 19 23 18 22 17 21 18 21 17 20 17 22 16 20 16 20 14 20 14 30 19 26 19 25 18 24 15 19 16 23 14 21 14 22 14 23 19 23 17 20 16 22 17 23 14 21 16 22 15 22 13 18 15 22 13"/>
<path d="M4939 4770l-8 25-11 22-10 23-8 23-13 27-13 25-13 28-11 27-12 29-11 29-11 29-12 31-13 31-13 33-10 22-10 23-11 24-12 26-12 26-14 26-14 28-15 28-14 28-15 29-14 28-14 28-15 28-16 28-16 28-18 28-16 30-17 30-18 32-18 33-19 33-19 33-21 32-22 32-22 32-23 34-23 36-22 37-22 38-21 37-21 37-22 35-21 35-20 36-20 37-19 36-20 36-20 38-20 37-21 39-20 39-20 40-20 38-19 39-21 40-22 41-22 43-11 22-22 43-11 21-12 23-11 21-11 22-10 23-12 21-10 22-12 23-10 23-12 22-10 23-11 22-12 22-10 22-11 22-11 23-12 22-10 22-11 23-11 22-12 23-9 23-12 25-11 23-12 24-12 25-13 25-11 25-11 25-14 25-11 25-12 24-11 24-12 24-11 23-12 23-11 23-12 21-12 23-13 22-12 21-12 22-24 42-12 21-21 42-22 42-21 42-10 23-11 22-11 22-12 23-11 22-11 23-10 22-11 22-19 41-19 42-19 40-19 40-20 38-19 40-19 41-20 43-10 22-19 41-21 42-21 40-20 40-22 40-21 40-22 39-22 39-20 38-18 36-19 36-18 33-17 32-17 32-16 31-16 31-16 31-16 33-17 33-16 34-16 34-15 31-16 32-14 29-14 30-11 28-11 28-9 26-10 25-12 32-11 29-9 26-8 22-10 26-11 27-8 24-9 22"/>
<path d="M1984 6242l-14-22-9-25 6-29 8-22 10-26 12-28 14-31 11-24 10-26 12-27 12-29 12-31 13-31 12-31 14-32 12-34 15-36 16-38 17-38 18-39 19-39 21-41 11-21 24-43 13-23 14-22 14-24 15-24 15-24 14-22 15-22 14-22 15-21 15-19 16-20 31-37 17-18 17-19 17-18 17-17 17-18 17-17 17-17 17-18 17-17 18-18 17-17 18-18 19-18 18-17 19-17 19-17 19-18 20-16 20-18 19-16 21-16 20-17 21-17 21-16 20-15 22-16 20-15 20-16 22-15 21-15 20-15 22-15 20-15 21-16 21-14 20-14 21-15 21-16 21-13 21-14 21-14 20-12 20-14 40-25 40-23 40-24 40-22 41-21 40-21 40-19 38-18 40-17 39-15 38-15 38-13 36-12 35-10 35-7 33-7 33-7 32-3 30-4 29-2 28-1 28-1 29 0 28-1 30-1 28-1 26-2 27-1 24-2 36-1 33-1 31 2 27 0 25 1 29 2 27 2 26 3 27 3 24 0 25-2"/>
<path d="M7888 3962l 25 6 25 8 23 7 25 12 24 11 23 11 22 11 25 10 25 12 28 13 27 10 24 11 26 10 28 13 32 13 24 9 32 15 22 10 30 17 24 12 23 12 23 12 25 13 26 12 27 14 27 12 26 12 26 12 24 11 29 12 26 12 27 12 27 12 25 13 27 12 26 12 26 13 27 12 26 13 27 12 24 13 27 13 27 12 28 13 29 14 27 14 29 14 29 13 30 12 30 13 32 12 32 12 32 11 32 11 30 11 31 12 33 11 33 15 34 12 33 14 33 14 34 15 34 15 35 14 36 15 37 15 36 15 35 16 36 15 34 15 35 15 38 15 36 13 35 14 38 13 38 12 35 13 40 12 38 13 37 14 38 13 35 15 34 14 35 14 35 14 33 14 34 15 33 13 32 13 35 14 36 13 41 12 37 11 38 12 37 10 32 12 36 12 36 10 37 12 35 11 35 10 33 10 34 9 32 10 32 12 32 12 29 10 31 11 30 11 27 9 28 10 27 10 26 11 27 10 26 10 27 9 27 8 26 8 26 6 28 7 28 8 34 7 30 6 31 6 29 5 25 6 29 7 27 7 29 7 27 7 26 7 27 7 26 6 26 6 24 5 24 6 33 8 34 7 35 6 34 7 36 6 35 6 34 6 34 6 35 6 24 3 24 3 36 6 33 6 35 7 35 7 35 6 37 6 23 5 24 3 26 4 25 4 26 2 26 3 24 1 25 3 26 0 24 3 24 3 36 3 24 2 36 4 24 3 35 4 32 3 24 3 25 3 35 5 28 4 34 6 25 4 31 5 32 4 31 4 34 4 32 3 32 2 31 3 24 0 31 1 32 1 29 1 30 0 28 1 31-1 35-1 31-2 29-1 30-4 30-4 29-7 30-5 29-7 30-8 30-9 28-8 27-9 26-11 25-11 22-10 25-8 26-9 30-8 26-8 24-7 25-7 25-8 25-8 25-7 23-6 24-7 26-6 24-7 31-9 27-9 27-9 30-8 24-7 29-10 28-10 25-7 33-9 28-8 24-9 27-10 25-5 23-7 25-12 27-12 23-12 29-13 22-11 22-11 21-11 21-11 28-13 22-12 26-12 26-11 25-8 26-8 26-8 27-7 25-8 28-9 22-9 25-7"/>
<path d="M7977 3850l"/>
<path d="M7981 4041l-2-24 11-23-7-23-15-22-16-21-23-11-24-7 15 21 18 18 16 18 19 16 19 15 22 20 19 19 22 18 23 18 23 18 25 17 20 16 21 14 22 17 21 17 25 18 24 19 26 19 26 20 25 19 25 18 27 20 27 19 26 21 29 21 28 20 21 15 19 15 22 16 22 15 22 15 21 15 22 15 18 16 23 15 23 16 24 16 28 16 24 16 25 15 26 17 25 17 26 16 27 19 27 18 27 19 29 20 26 19 28 20 28 19 28 19 28 18 27 18 28 17 29 18 29 18 29 18 29 19 30 18 33 21 31 21 32 20 28 19 34 21 32 19 33 21 36 22 32 19 33 21 35 21 34 20 34 20 35 20 35 18 38 21 36 21 38 22 38 22 36 23 38 22 38 23 38 23 38 24 38 24 38 24 35 23 38 24 37 24 38 25 40 24 38 24 38 24 38 23 38 24 38 23 39 24 39 25 35 25 38 25 37 25 37 25 37 25 38 25 37 26 34 27 39 26 39 27 20 14 21 14 20 14 24 14 20 14 20 14 21 13 40 26 38 27 21 13 21 13 21 13 21 14 21 12 21 13 22 13 25 12 20 13 21 13 21 13 21 13 21 13 21 13 22 14 40 27 22 14 21 13 20 14 22 14 21 13 40 27 20 13 40 25 42 24 21 12 40 25 41 25 20 14 39 25 39 28 40 27 40 27 39 28 38 27 38 27 39 27 40 27 38 28 21 13 21 15 21 14 21 13 21 15 20 12 23 13 22 13 21 12 22 13 22 12 21 13 22 12 23 12 20 13 21 12 21 13 20 13 40 25 41 26 41 26 38 25 38 24 36 25 36 25 37 25 36 26 37 25 36 26 36 26 35 23 34 23 36 23 35 23 35 24 34 27 33 24 34 24 34 26 36 24 34 25 33 25 32 25 33 24 32 23 32 25 32 24 29 24 31 25 31 24 26 23 31 23 29 22 29 22 33 22 30 22 29 22 28 22 27 22 28 23 27 22 27 22 25 22 26 21 27 21 28 21 28 20 29 19 27 21 28 21 29 20 26 21 27 19 30 20 28 20 27 19 29 19 26 21 28 20 28 19 28 20 25 18 25 19 28 20 27 19 27 19 26 18 23 18 23 17 24 16 25 17 22 17 21 18 20 17 19 18 22 19 19 17 22 17 21 17 21 16 25 17 20 17 20 17 19 16 20 16 18 17 19 16 17 17 23 24 24 23 24 24 21 24 22 23 22 23 24 21 22 22 20 22 19 22 20 22 20 21 17 22 19 17 19 18 22 18 17 18 21 22 22 19 19 19 21 19 20 20 20 20 18 16 18 17 19 18 22 18 19 20 16 21 21 15 18 17 19 16 19 17 20 16 20 18 18 19 18 21 21 19 16 18 20 17 20 15 19 17 20 14 17 17 19 16 22 16 19 18 21 13 19 15 20 18 20 16 18 16"/>
<path d="M7817 3956l"/>
<path d="M7828 3965l 16 21 5 24 3 25 3 27-1 28 2 25 5 23 5 28 4 32 3 28 3 31 4 26 2 27 3 31 1 32 2 25 2 26 4 30 2 32 2 32 2 30 1 29 3 27 3 24 2 25 5 36 3 34 6 33 3 34 3 24 4 25 2 26 3 27 2 28 1 30 2 33 2 33 3 34 5 34 2 35 2 35 2 36 3 36 3 36 3 32 3 33 3 31 2 29 3 31 5 31 2 31 2 32 2 31-2 33 0 33 0 35-2 35 0 41-4 45-3 24-2 26-3 27-3 27-4 28-3 29-3 29-4 28-4 28-4 29-3 27-4 28-2 27-4 27-3 26-3 26-2 24-5 46-4 43-3 38-2 38-3 40-3 46-4 25-2 26-2 27-2 29-3 28-3 28-4 29-3 29-5 29-4 28-5 27-4 27-5 28-4 27-5 28-5 26-2 28-4 26-6 27-4 27-6 26-5 27-4 26-6 25-6 25-5 25-5 25-9 48-10 47-7 48-6 46-8 45-6 45-6 43-7 41-4 40-5 39-5 40-4 42-6 43-7 45-7 47-8 48-4 24-4 25-5 24-5 25-5 24-4 25-5 25-5 24-5 25-5 25-4 26-5 25-5 24-4 26-5 25-5 25-5 26-4 25-4 25-4 25-4 26-4 24-4 25-2 25-6 47-5 47-5 47-4 47-4 49-2 24-3 24-3 26-2 25-3 26-4 26-3 27-4 25-3 27-4 28-5 29-4 29-5 30-5 30-5 30-5 31-6 31-6 29-5 30-6 29-5 28-5 28-5 28-5 28-5 27-3 27-4 27-4 26-4 24-3 25-3 25-1 24-4 46-5 46-4 46-5 45-6 46-6 46-3 24-6 48-3 24-4 24-4 25-3 24-3 25-4 24-4 24-4 25-4 24-3 25-3 26-4 26-5 25-4 25-3 26-4 25-5 27-3 26-4 25-3 25-1 25-6 47-6 45-5 44-8 42-5 43-3 42-4 40-3 40-3 40-5 40-6 41-7 43-7 44-8 43-10 45-9 45-13 46-9 44-10 43-11 42-7 37-10 40-9 38-9 39-10 40-9 39-10 37-9 36-10 35-10 36-9 35-8 34-7 34-5 29-7 35-5 24-7 36-6 30-3 25-4 24-3 33-5 35-5 35-6 34-5 31-4 29-3 28-4 29-5 25-3 25-2 25-2 28 0 25 0 26 0 28-2 30-2 27-2 24-2 29"/>
<path d="M9887 4186l-16 20-15 22-14 20-16 22-13 26-12 22-15 26-17 24-16 21-19 24-21 27-24 27-16 19-17 19-16 19-17 19-18 19-16 19-16 19-24 26-23 27-22 27-18 18-16 19-16 20-18 19-15 22-19 21-19 23-17 24-19 23-20 26-22 26-21 27-22 27-20 28-22 29-21 30-22 28-22 31-24 30-23 30-23 31-24 32-23 31-25 32-26 32-25 32-24 31-24 32-23 32-23 33-25 34-24 33-25 33-24 34-24 33-25 34-24 35-23 35-24 36-24 36-24 38-25 37-24 38-24 37-23 38-24 37-26 37-25 37-25 38-24 38-26 39-26 39-27 37-26 39-24 39-25 38-24 38-25 38-26 39-13 20-14 21-14 22-14 21-14 21-14 22-14 21-14 22-14 21-14 21-14 21-13 20-14 22-13 21-14 21-14 21-13 22-12 21-13 22-13 22-12 22-13 21-11 22-12 22-13 22-14 21-12 22-13 22-13 22-14 22-14 22-14 22-13 24-13 23-12 23-13 23-13 24-13 24-13 25-12 25-14 24-14 25-14 25-14 25-15 24-14 24-14 25-16 25-15 24-13 25-15 25-14 24-14 24-14 25-14 24-13 25-14 25-14 25-15 24-15 25-14 25-15 24-16 24-14 25-16 24-15 24-14 24-15 25-14 24-15 25-15 24-14 24-15 24-15 25-14 25-15 24-15 25-14 25-14 24-16 25-13 25-15 24-14 25-14 24-14 24-14 24-14 24-14 24-12 23-16 25-13 24-15 23-14 24-14 24-16 24-14 24-14 24-15 24-15 25-14 23-14 24-14 24-14 23-14 24-15 22-13 23-12 22-13 23-14 23-14 22-13 23-13 22-13 22-14 22-14 22-11 23-13 22-13 22-13 22-12 22-13 23-11 22-14 23-12 22-11 21-13 22-12 21-13 22-12 21-13 21-12 22-13 21-12 20-13 21-12 22-23 41-12 22-12 21-11 22-10 22-11 22-12 22-10 22-12 21-11 22-23 43-11 22-12 21-12 22-12 23-12 22-13 22-12 22-13 22-12 22-13 22-12 21-12 22-12 22-11 22-12 22-13 22-11 22-12 21-11 23-13 23-12 22-13 23-13 22-13 23-14 23-14 24-14 23-13 23-13 23-13 23-14 23-13 23-12 22-12 23-12 22-12 22-12 22-12 22-12 21-12 22-12 21-21 41-21 41-21 38-19 39-21 37-20 37-20 38-20 37-17 37-19 37-19 37-18 37-19 37-17 35-16 31-16 32-14 27-14 29-12 28-11 25-11 27-12 22-10 23-11 22-15 31-6 24-11 27-7 26-11 28-8 26-5 25-11 27-9 26-14 21"/>
<path d="M3502 11003l 10-22 17-21 18-21 18-18 19-19 20-20 23-23 17-17 17-19 17-20 18-21 19-22 20-23 21-23 21-25 21-25 22-26 23-26 23-27 25-27 25-27 25-26 25-28 26-30 27-31 27-32 29-35 31-36 16-19 15-19 16-20 18-19 16-20 17-20 17-19 17-21 18-20 17-21 18-21 18-21 18-21 19-21 19-21 18-22 20-21 18-22 19-21 19-22 19-22 19-22 20-23 19-23 20-22 19-23 21-23 19-23 20-22 21-22 19-23 21-23 20-23 20-24 21-22 20-22 21-23 21-23 21-22 22-22 19-22 21-23 22-22 21-23 20-23 21-21 20-23 22-23 21-23 21-22 21-23 21-23 21-24 22-24 22-24 22-25 23-25 24-25 22-26 24-27 25-28 23-28 25-28 24-29 25-30 24-30 26-31 24-30 25-29 24-31 24-30 25-29 25-29 25-29 25-28 24-28 23-28 24-27 24-28 23-28 23-26 24-27 22-26 25-27 23-26 24-27 25-26 23-27 24-26 24-27 23-26 25-27 24-26 24-28 24-25 24-28 25-27 24-27 26-27 26-28 25-28 26-28 26-28 26-28 26-28 25-28 25-28 25-27 26-27 25-28 25-28 26-27 25-28 26-27 25-27 23-28 25-28 23-27 24-26 23-27 23-26 23-25 22-25 23-24 21-25 23-24 22-24 21-24 21-23 21-25 22-23 21-24 21-24 21-23 21-25 21-24 20-24 20-24 21-24 19-23 21-24 20-23 21-23 22-23 21-22 21-24 21-22 22-23 21-22 22-23 19-23 21-22 22-23 21-23 21-23 22-24 22-24 22-24 23-24 22-24 22-24 24-25 23-24 22-25 23-24 23-24 22-24 23-25 22-22 21-24 22-23 21-22 20-21 20-23 20-22 20-21 18-22 20-21 19-20 19-21 19-20 19-20 18-20 18-18 19-19 18-19 18-19 18-18 18-18 17-17 19-16 18-17 18-17 19-16 35-33 34-33 18-17 17-16 18-17 17-17 18-18 17-17 17-18 33-32 32-34 32-31 29-30 27-29 26-29 21-28 23-25 22-25 21-24 21-23 19-22 18-22 16-20 17-20 23-27 22-26 17-19 21-26 24-26 20-23 19-21 19-19 18-18 16-21 16-20 18-19 19-19 17-17 17-18 18-18 18-21 20-20 19-18 20-20 22-20 18-18 21-23 19-24 16-21 17-21 14-20 20-21 17-18 21-21 20-13 21-13 23-16 22-14 22-17 20-16 23-17 19-16 23-15 23-15 25-17 23-13 25-13 23-9 23-11 25-10 25-14 23-8 24-10 20-13 24-7"/>
<path d="M2013 8409l 8-25 15-24 19-24 17-20 21-21 25-24 17-17 20-17 20-18 21-19 22-20 23-21 24-21 25-22 27-24 27-24 27-25 30-25 30-25 33-26 34-28 33-29 34-30 34-30 36-29 35-28 38-29 39-28 20-15 21-14 20-14 21-16 22-16 22-14 22-16 22-15 22-15 22-15 23-15 23-16 22-14 23-15 23-15 23-15 23-15 24-15 24-15 24-17 24-16 24-16 25-17 24-17 25-16 25-19 26-16 26-18 26-17 26-17 26-18 27-17 26-18 27-17 26-18 25-17 26-18 27-18 25-17 26-17 27-19 26-17 27-18 27-18 27-18 28-17 28-18 28-19 27-18 29-19 28-19 28-19 29-18 27-19 29-19 28-19 28-19 28-20 30-20 28-19 30-20 30-20 31-20 30-20 31-20 31-21 31-20 31-21 31-21 31-22 31-22 31-22 31-22 33-23 32-23 32-23 33-22 32-23 34-22 32-23 34-21 33-22 33-22 32-21 33-22 31-20 32-21 31-20 31-20 31-20 32-19 31-19 31-19 31-19 32-19 30-20 31-19 31-19 31-19 30-19 31-19 31-17 30-18 30-18 30-17 31-17 30-16 31-18 30-16 31-17 30-17 30-17 31-17 30-16 30-16 29-16 30-16 29-15 29-16 29-16 29-15 28-15 28-16 29-15 28-16 29-15 28-15 28-14 29-15 27-15 27-14 27-14 26-14 27-14 25-14 26-13 23-15 26-13 25-14 25-13 25-13 25-13 25-13 25-13 26-13 24-12 25-13 25-13 23-11 22-12 24-12 23-12 24-13 23-11 23-11 23-12 24-12 24-10 23-12 24-11 42-24 23-11 23-12 23-12 24-11 22-11 24-12 25-11 23-11 23-11 23-10 22-11 23-11 43-20 42-20 41-19 39-18 40-17 39-17 39-17 38-16 36-16 36-16 36-16 36-15 39-15 35-16 37-16 33-15 33-15 34-14 32-14 33-13 30-13 31-13 31-14 31-13 30-13 30-12 29-13 30-12 30-11 29-11 31-10 27-11 29-10 28-10 26-10 27-10 23-7 33-13 32-11 31-11 29-9 29-9 30-8 28-8 28-8 28-8 27-6 26-5 23-5 24-5 25-3 31-6 27-5 26-5 27-7 25-4 29-5 28-3 26-3 28-4 28-7 28-5 25-4 25-4 25-2 27-2 26-2 26-2 27-2 25 0 26-1 24-1 26 2 24 4 27 5 25 1 24-3 24-4"/>
<path d="M12546 4547l 19-16 24 3 24 7 26 4 27 6 26 7 28 7 24 7 25 11 23 8 23 9 26 11 25 9 26 13 25 14 27 15 20 13 24 15 21 15 23 15 24 16 27 15 25 16 23 16 26 16 24 18 23 19 24 16 25 18 28 16 25 18 25 18 25 18 27 21 26 22 28 21 28 22 29 21 24 23 29 21 20 14 19 17 21 15 19 16 20 16 24 15 19 17 20 16 19 16 28 24 20 18 20 17 19 18 20 18 21 17 21 18 24 17 22 18 22 17 21 18 21 20 22 19 23 19 26 19 24 19 24 18 25 19 22 18 23 19 23 19 23 18 26 20 25 21 23 20 24 20 21 20 24 19 23 19 28 21 24 20 24 20 25 21 22 19 25 21 26 22 26 22 26 24 27 22 26 22 24 21 26 20 26 22 26 21 26 23 25 22 25 23 26 22 25 22 26 22 26 22 25 24 28 24 28 24 29 25 31 27 31 26 29 29 30 27 31 28 30 28 31 26 31 26 31 26 31 25 31 27 31 26 29 26 32 26 31 25 32 27 32 26 31 26 28 26 30 27 27 28 29 28 30 28 29 28 32 26 29 27 30 26 29 26 29 27 29 25 30 26 26 25 30 25 28 24 28 25 29 25 25 24 25 23 27 24 26 24 25 24 25 24 23 23 20 22 23 22 23 21 23 22 23 22 22 22 21 21 20 21 20 20 19 19 19 19 21 19 16 19 18 18 16 17 19 25 23 24 22 21 24 22 19 19 15 21 19 20 22 24 19 20 18 20 18 17 20 22 18 21 20 19 15 21 15 19 16 21"/>
<path d="M14249 4291l 13 21 21 15 21 14 21 14 22 13 21 15 23 16 28 18 20 13 23 13 27 14 25 16 27 16 27 17 31 17 32 13 27 15 27 13 26 15 26 14 24 15 24 13 24 14 24 13 23 14 26 19 23 12 25 10 24 12 22 14 24 13 25 11 26 11 26 12 27 13 23 12 23 11 22 12 21 12 22 10 27 14 25 13 22 10 23 13 22 10"/>
<path d="M14333 4141l 15-20 20-16 21-14 25-16 28-17 21-13 21-15 22-15 23-13 24-14 22-11 24-10 32-14 30-10 32-11 35-13 23-7 26-9 25-7 29-8 31-8 31-8 38-7 36-9 37-7 40-8 40-6 43-7 43-7 42-5 43-4 44-3 44-3 45-1 44-1 45 1 44 1 47 3 47 4 24 2 24 3 25 3 48 7 25 4 26 3 26 4 26 4 26 4 26 5 26 4 27 6 26 6 28 6 26 6 27 7 26 8 27 7 26 9 25 8 25 9 25 10 23 10 23 11 24 10 23 11 22 12 21 12 21 12 41 24 40 24 39 24 38 24 35 24 37 25 34 25 34 24 35 24 32 24 33 26 32 26 33 29 30 29 29 30 23 31 25 32 25 34 24 35 26 35 19 36 20 37 19 38 19 38 17 39 15 39 13 38 9 38 11 37 10 37 8 36 12 36 6 34 5 33 5 30 1 30 1 27 0 27-2 27 1 25-3 24-5 34-6 32-7 31-8 30-9 31-8 33-12 32-7 28-8 25-5 23-9 30-10 25-9 24-7 23-6 28-4 24-3 25-4 29-6 29-6 25-10 22"/>
<path d="M13782 4677l 10 22-2 25-2 26-2 27-8 26-6 23-4 24-4 26-9 31-6 25-8 25-5 25-6 24-6 25-6 25-5 28-6 26-6 27-6 26-6 28-7 29-9 30-11 30-10 32-8 32-12 31-8 23-12 25-9 25-9 26-10 27-6 27-10 26-8 27-7 27-8 26-7 28-6 25-7 25-4 25-5 25-5 27-2 24-6 26-7 25-6 26-9 27-6 28-7 29-9 30-10 30-9 31-9 31-9 30-8 30-11 32-10 32-10 32-9 33-11 31-10 33-7 31-10 32-8 32-9 31-10 30-6 31-8 31-8 30-9 32-10 32-9 32-9 35-9 36-10 37-11 37-11 36-12 36-11 37-12 39-13 38-14 38-13 39-15 37-13 38-10 40-15 40-15 40-15 40-14 20-15 41-14 39-15 39-13 40-15 40-15 40-16 41-12 41-16 41-15 42-14 42-15 42-14 44-14 44-14 43-14 42-13 43-15 44-14 45-17 45-14 45-8 23-16 45-16 46-17 44-8 23-15 45-16 44-15 44-12 43-14 43-14 44-15 44-12 44-8 22-15 44-15 44-17 45-9 23-15 45-8 23-8 23-9 23-8 24-9 25-6 24-10 24-9 25-10 24-10 24-10 25-10 25-9 24-10 23-9 24-10 24-9 24-10 23-9 24-9 22-10 22-17 46-9 22-9 23-19 46-10 22-10 22-12 22-12 23-10 22-11 23-11 23-11 22-20 43-21 42-18 39-18 38-18 37-16 37-19 38-16 39-19 41-18 41-18 44-9 22-10 22-18 43-16 41-17 39-17 39-14 38-15 38-17 38-13 33-13 36-13 36-11 37-13 40-13 41-13 38-11 37-14 36-15 33-13 35-17 35-13 34-14 36-12 35-13 35-12 33-14 36-15 36-16 36-18 36-15 34-16 34-17 32-17 32-15 30-14 28-14 27-15 27-12 30-13 26-12 27-11 26-11 22-10 27-10 23-10 24-12 32-13 34-8 25-11 25-10 26-12 26-13 26-12 25-12 25-11 25-12 25-12 27-11 25-10 23-15 33-13 29-13 29-12 29-12 27-12 29-13 24-12 22-13 22-7-25-1-29"/>
<path d="M2499 9642l 17-17 22-11 25-5 25 0 28-4 25-6 23-6 25-6 26-9 28-9 29-11 24-8 27-8 31-8 31-9 35-9 36-10 25-6 27-6 26-7 28-7 28-8 28-7 30-9 31-9 31-10 33-10 33-11 34-11 36-12 37-12 39-14 40-14 41-16 41-15 42-16 43-15 44-15 45-16 45-15 23-8 23-9 46-16 25-9 24-9 24-9 24-10 25-9 25-9 26-10 25-9 25-9 25-10 25-9 26-10 25-11 26-11 25-9 25-11 26-11 26-12 26-10 27-12 28-11 27-11 27-12 27-12 27-12 28-12 28-12 26-12 27-12 26-13 28-13 27-14 28-13 28-13 28-14 28-13 27-13 28-13 28-13 28-13 27-12 28-13 28-13 28-13 28-13 28-13 26-12 27-13 28-13 26-12 27-13 26-13 26-12 27-13 28-12 27-12 26-13 27-12 26-12 27-13 27-12 26-13 27-12 27-13 26-12 26-13 27-13 27-13 27-14 26-13 27-14 26-14 27-12 28-14 26-13 26-14 26-12 26-14 26-12 26-13 26-13 25-13 27-13 26-13 25-13 25-13 25-14 25-13 25-12 23-13 23-13 24-12 24-12 25-13 24-12 23-11 24-12 24-10 24-11 22-10 22-11 22-10 22-10 43-22 23-10 42-21 41-22 41-22 40-23 21-11 21-12 21-12 22-11 22-12 21-12 22-13 22-12 22-13 22-12 23-14 22-13 23-13 24-13 23-13 22-12 21-13 22-12 21-12 41-24 42-23 42-23 21-12 21-11 22-12 21-11 21-13 20-12 22-13 22-13 22-13 22-14 21-13 22-14 20-13 21-13 22-13 40-24 41-22 43-22 40-21 39-21 37-19 35-18 35-18 35-17 36-17 36-16 35-18 35-17 37-18 38-19 37-18 39-18 38-17 39-19 37-18 37-17 37-18 35-17 35-17 36-16 35-15 35-14 33-14 33-13 31-13 34-13 34-14 36-13 32-13 33-14 34-13 33-14 36-15 34-14 36-14 34-15 36-16 35-16 34-15 35-14 33-14 33-13 33-12 31-13 31-13 32-14 31-13 33-13 31-14 30-13 31-13 29-13 31-14 33-14 35-15 33-13 34-15 33-13 34-14 34-14 37-16 35-15 35-16 34-14 34-14 35-15 33-13 32-15 34-14 32-14 34-13 33-13 32-14 32-15 33-15 34-15 36-16 35-16 37-16 38-18 36-19 39-18 39-17 40-18 39-18 39-17 38-18 38-16 38-17 39-17 38-15 38-16 38-16 39-16 38-15 36-17 40-16 39-17 38-16 40-16 38-17 39-16 41-16 39-17 38-17 37-16 34-15 36-15 36-15 34-15 33-15 33-13 30-12 29-12 32-12 28-12 29-13 25-11 28-13 30-12 28-12 31-14 30-14 31-12 30-16 33-13 32-15 31-15 32-13 29-16 29-14 28-14 26-12 25-13 22-11 22-10 30-16 30-16 30-17 29-15 30-15 32-12 31-13 27-12 28-11 27-13 23-8 29-14 29-13 27-13 26-13 24-14 21-12 22-10 24-13 24-13 25-13 25-12 28-13 25-9 28-11 27-10 25-10 23-9 23-10 23-8 24-7 26-5 27-4 26-1 25-5 23-6 26-9 24-6 25-8 25-8 29-7 24-10 22-14 25-7 24-1 25-3 23-6 24-8 23-8"/>
<path d="M15925 5328l 16 22 16 18 21 18 19 18 23 18 22 14 22 12 24 15 22 13 20 13 21 12 21 13 22 14 21 14 21 13 21 13 21 14 23 16 21 13 21 12 24 13 22 13 21 13 20 13 21 14 26 17 24 18 21 14 28 18 21 14 20 15 23 19 21 13 28 17 23 15 26 14 26 13 25 10 22 12 23 15 21 13 20 16 20 16 18 18 20 14 19 17 21 16 19 17 22 14"/>
<path d="M17047 5924l"/>
<path d="M17028 5854l-2 25-5 25-1 26-4 25-5 27 0 25-2 25 4 24 5 25-1 24 0 25"/>
<path d="M14296 4253l-11-22-6-24 6-24 16-19 18-19-17 18-20 13-22 15-16 17-4 25 10 22 14 21"/>
<path d="M1975 6311l 8-23 23 9 18 17 18 20 16 18 16 18 17 20 18 22 17 18 19 20 19 20 19 18 19 19 20 21 20 19 20 19 17 17 22 20 16 18 17 17 19 24 17 19 18 18 17 18 18 18 23 20 22 19 17 16 18 19 17 17 17 17 19 19 19 20 20 21 22 20 23 20 25 19 24 19 21 21 20 18 22 20 22 21 20 20 19 18 19 19 19 16 18 17 22 21 25 21 23 20 19 17 21 17 21 17 21 16 20 16 22 15 19 15 21 15 20 16 21 17 21 16 22 18 20 17 21 18 22 15 22 17 22 18 23 17 23 17 25 18 25 17 25 18 23 19 28 19 25 20 25 19 22 18 24 18 25 19 25 18 24 18 25 18 24 18 24 18 25 18 26 20 20 15 27 22 19 15 20 16 19 16 21 15 20 14 21 13 20 14 22 12 22 15 23 14 22 15 22 14 20 14 21 13 22 15 22 13 22 14 30 18 29 18 22 12 20 14 20 14 29 22 28 21 19 15 28 21 20 15 21 15 22 13 21 15 20 15 21 15 20 15 21 15 22 15 22 15 23 14 22 15 22 13 20 14 22 12 22 14 23 13 23 14 25 14 22 14 23 14 24 15 22 14 24 15 25 14 23 14 24 15 24 16 26 14 25 14 25 16 26 16 24 16 24 16 24 16 25 15 25 15 27 15 25 15 26 16 27 14 28 15 29 14 27 13 28 13 28 13 29 13 28 14 29 13 30 12 29 13 27 13 29 13 31 14 29 13 31 14 30 14 31 12 30 13 31 14 31 14 32 13 32 15 33 13 32 12 32 12 29 13 30 13 32 13 32 12 35 12 33 13 33 12 35 13 34 10 33 12 32 12 31 12 33 11 33 11 33 13 33 11 32 11 32 12 33 11 32 11 33 11 33 11 33 10 34 11 33 11 33 10 35 10 34 10 34 9 35 10 33 8 34 8 34 8 34 7 36 8 34 7 34 6 32 4 33 7 33 6 31 6 30 6 32 6 32 7 31 6 34 6 31 6 30 7 28 6 30 6 31 6 31 4 32 5 31 4 31 5 29 4 32 5 32 5 32 5 34 4 31 4 30 2 30 3 29 3 30 3 28 2 31 3 29 3 28 2 26 3 25 0 24 3 25 3 26 2 26 4 25 4 24 3 34 3 25 3 25 2 27 1 25 3 24 2 25 2 33 3 24 1 37 2 35 0 32 2 33 2 31 2 29 2 31 1 33-1 29-1 33-2 33-2 31-3 34-4 31 0 31-3 29-3 31-2 30-2 29-2 28-3 26-2 28-3 30-6 28-5 23-5 28-3 25-4 28-2 31-5 31-4 25-4 26-5 28-6 28-7 28-8 31-9 31-8 30-9 30-10 31-9 25-8 28-9 29-7 27-9 28-7 27-9 27-8 27-7 28-9 28-7 32-7 27-8 25-8 26-8 28-8 25-4 26-9 29-9 26-7 31-10 25-8 28-7 25-10 30-9 29-10 24-6 30-8 29-7 30-10 25-6 29-12 28-12 23-9 25-9 24-9 24-10 22-10 25-10 25-10 25-9 26-11 25-12 27-13 29-14 29-16 29-17 29-16 27-16 27-16 26-16 26-17 27-17 28-17 29-17 28-18 25-18 29-17 31-20 20-15 27-20 23-20 27-21 29-21 20-13 29-20 20-15 26-23 19-15 19-16 20-14 27-20 28-22 28-19 27-21 28-21 20-16 29-22 28-23 20-15 19-15 28-21 28-22 21-15 23-16 20-17 20-16 20-16 20-18 22-18 22-20 22-19 22-20 22-20 23-20 20-20 21-20 23-18 22-19 22-19 23-18 24-18 22-19 27-19 24-20 25-19 27-20 25-20 25-20 25-21 27-21 24-22 26-22 26-22 25-22 29-23 28-24 27-24 28-25 26-23 27-23 29-23 25-22 28-22 26-22 27-22 27-24 28-25 27-25 28-25 26-24 27-24 27-23 24-23 27-23 26-22 26-24 26-23 26-24 25-23 25-23 28-25 26-24 28-24 25-23 23-22 24-21 24-22 24-23 24-23 23-22 24-24 27-22 24-24 25-24 24-24 22-23 24-24 24-23 23-24 21-23 22-22 23-21 23-22 24-21 20-22 20-20 16-21 20-21 19-21 19-21 19-21 19-21 19-20 19-20 19-19 19-19 18-19 17-20 18-21 16-19 18-20 16-19 16-19 16-18 23-26 23-22 22-23 20-21 21-22 21-22 18-22 18-22 17-20 18-19 16-20 14-21 15-19 19-23 17-21 18-19 18-23 17-20 14-20 16-23 18-26 18-26 14-21 17-19 17-22 15-22 19-21 15-19 13-22 15-21 19-20 17-18 18-18 15-20 16-21 18-19 19-19 13-22 18-18 12-21 13-21"/>
<path d="M15274 4894l 13 21 17 19 15 21 13 22 10 23 17 18 6 25-2 25-5 25-11 23-16 20-16 18-12 21"/>
<path d="M15207 5218l 23-14 22-15 23-13 23-10 23-15 23-16 21-17 19-15-25 4"/>
<path d="M15280 4958l-15-21 27 2 20 15 21 18 19 18 18 19 19 17 18 17 23 10"/>
<path d="M15162 5659l-20-13 5-26 7-25 10-22 10-22 15-28 12-24 13-27 9-29 10-27 12-27 9-26 8-24 11-30 9-26 9-24 10-23 8-22 7-24 10-27 12-26 7-25 4-26 14-19 13-22 22-9"/>
<path d="M15389 5081l-25-5 9 23 18 18 20 16 20 12 25 15 23 13 24 8 27 8 25 6 26 6 24 7 26 8 23 8 24 8 25 5 26 5 27 3 24 4 25 10 24 11 24 8 23 7 22 10 21 12"/>
<path d="M16345 10051l 3-24 8-23 13 23 14 21 15 22 8 24 19 21 12 20 19 16"/>
<path d="M9476 12449l 8-24 17-21 24-13 20-16 21-14 24-14 22-14 22-17 23-18 24-22 18-16 20-19 21-19 21-18 22-21 22-22 23-23 23-25 23-26 23-25 26-24 26-25 27-26 28-24 28-26 29-27 32-28 33-30 35-30 35-32 18-17 19-18 19-17 20-18 20-19 20-18 20-19 20-19 23-20 21-20 21-20 21-20 22-20 22-20 23-20 22-20 21-21 23-20 24-20 24-19 23-21 25-20 23-21 24-20 23-21 24-21 23-21 24-21 23-22 23-21 24-21 26-20 24-21 24-22 24-21 24-21 24-21 25-22 24-22 21-21 26-22 24-21 26-23 25-22 25-23 26-24 27-23 27-24 26-25 27-25 27-25 27-25 28-24 28-25 28-25 30-25 29-26 30-25 30-25 30-26 29-25 31-26 31-26 29-27 31-26 31-27 31-28 32-26 31-28 31-27 31-26 32-27 32-26 32-27 32-25 31-26 31-25 31-25 31-25 29-25 31-24 30-25 30-26 30-25 30-25 30-25 31-25 32-25 31-25 31-25 32-25 31-25 31-25 32-25 31-25 32-25 30-26 32-25 32-26 32-26 32-27 33-27 32-27 33-28 34-28 34-28 34-28 34-28 34-28 35-27 32-27 34-28 32-28 33-26 33-27 33-27 33-26 32-25 34-25 32-26 36-25 33-25 33-24 31-24 32-24 31-23 31-24 31-23 29-22 30-23 30-22 30-22 29-22 29-21 29-21 29-20 28-19 28-21 28-18 28-20 28-20 27-19 27-19 27-20 28-20 26-19 25-19 27-20 26-19 26-19 25-19 26-19 25-18 26-19 27-18 25-18 25-19 27-19 25-18 25-19 24-19 24-18 25-17 24-18 23-18 23-17 23-17 22-17 22-17 22-17 20-18 21-17 21-18 21-16 20-16 19-16 19-15 37-30 36-29 33-28 33-28 33-28 31-28 31-25 30-26 29-24 27-22 27-22 24-21 23-21 23-20 21-20 21-21 22-21 18-21 21-20 20-19 19-19 19-18 17-18 24-26 24-24 22-23 21-22 20-22 19-22 17-21 20-21 18-21 21-21 20-22 22-25 17-18 17-19 19-19 19-18 17-19 20-20 21-20 22-19 23-19 22-18 21-17 21-17 20-16 19-16 19-16 27-24 19-16 20-16 24-17 22-18 22-18 22-19 23-19 23-17 22-19 23-20 21-19 22-19 22-18 22-18 18-18 19-17 22-25 22-22 19-19 20-25 20-22 19-16 19-20 16-19 23-20 20-18 22-16 19-19 16-19 23-15 23-13 22-12 22-13"/>
<path d="M6993 12545l 14-23 21-15 23-9 26-9 24-11 20-13 21-15 27-19 19-16 22-18 19-19 24-21 27-23 20-14 19-16 21-16 22-16 21-19 21-18 22-19 24-18 24-19 25-19 26-19 27-20 27-21 31-22 29-21 30-21 30-23 30-23 33-24 34-25 35-23 32-26 35-25 35-26 36-27 36-27 37-28 39-28 19-15 19-15 40-28 19-15 20-15 20-15 21-16 20-15 21-15 22-17 20-16 21-15 22-16 20-15 21-16 24-16 21-15 22-17 22-16 22-17 23-17 22-17 23-18 20-17 22-18 23-19 24-18 23-19 24-18 24-18 23-18 25-18 25-18 24-18 24-18 24-19 25-18 24-19 23-19 24-19 25-19 25-18 25-18 23-18 24-18 25-18 26-18 24-18 25-19 25-17 25-18 24-19 24-18 24-18 23-18 24-16 21-18 24-17 23-18 24-17 23-17 23-17 24-17 24-18 23-18 23-18 23-17 24-18 24-18 24-17 25-18 24-18 25-17 24-18 24-18 25-19 24-18 23-18 22-18 25-18 23-19 24-18 24-17 24-18 23-17 25-17 23-16 24-16 25-17 24-17 23-16 25-17 23-17 24-17 25-17 23-16 24-17 24-17 22-17 24-17 23-17 24-17 24-16 24-19 23-18 24-17 24-18 24-17 25-18 25-18 25-18 25-17 24-18 25-16 25-19 24-17 25-17 25-19 24-17 24-18 26-18 25-18 25-18 26-18 25-18 25-18 26-19 26-17 26-17 27-19 26-17 26-18 27-19 26-18 26-19 27-19 25-19 27-18 26-19 26-19 27-18 26-19 26-17 26-17 26-19 27-17 27-17 27-17 27-17 26-19 27-17 28-17 27-16 26-18 27-17 27-16 27-17 27-16 26-16 27-17 27-17 26-16 27-16 27-17 26-16 25-17 27-15 26-16 26-15 26-16 26-15 25-15 25-15 26-15 25-15 24-15 25-14 24-15 24-13 23-14 24-14 22-12 23-14 24-13 23-13 24-13 23-14 23-13 24-13 21-13 23-12 22-13 23-13 22-13 21-13 22-13 22-13 23-13 22-13 22-13 21-13 21-13 21-13 21-13 22-12 21-13 22-12 21-13 42-25 41-23 37-24 40-23 39-23 39-23 39-24 38-23 40-23 39-24 21-12 21-12 41-25 21-12 41-25 22-14 38-27 21-13 40-27 20-13 40-25 38-25 40-25 37-25 38-23 37-24 37-22 36-22 37-21 35-21 35-22 36-21 35-23 38-23 36-22 37-21 38-23 36-23 36-23 34-22 34-22 35-21 36-20 34-21 35-21 34-22 33-20 33-20 33-18 32-18 31-17 31-17 27-17 30-17 29-16 31-15 32-16 30-16 29-16 31-15 27-16 27-15 28-15 27-14 28-18 30-16 29-18 29-16 28-16 28-14 28-14 27-15 28-14 28-15 27-13 28-15 25-13 24-14 24-13 23-13 24-12 23-12 23-12 24-11 25-13 23-13 25-13 23-12 23-11 21-12 22-10 22-12 22-10 22-12 22-11 22-11 21-12 30-17 28-17 29-15 26-16 27-16 27-16 26-16 22-15 25-14 25-16 28-15 23-15 21-13 23-15 26-18 28-16 28-16 30-15 26-13 24-11 22-11 28-14 28-14 28-14 27-12 23-11 25-12 26-10 27-10 26-8 25-8 26-9 29-10 28-8 27-8 23-8 25-9 25-5-19 19"/>
<path d="M5140 11937l 23-9 22-11 22-16 22-12 21-14 20-14 19-15 23-16 25-18 20-13 23-12 21-14 22-16 20-15 20-14 21-14 20-16 21-13 22-15 25-17 25-17 25-16 25-17 27-18 25-18 29-19 29-20 21-14 22-15 22-15 23-16 24-13 24-16 23-13 24-13 23-15 22-13 24-14 21-13 23-14 24-14 22-14 26-15 24-15 24-16 24-15 25-16 25-18 27-18 28-19 29-21 30-21 29-22 30-22 28-22 29-21 29-23 29-22 29-21 29-22 26-21 28-22 30-22 27-22 30-23 29-23 31-24 33-25 33-26 32-25 31-24 30-24 31-25 32-24 30-25 32-24 31-23 31-25 31-23 31-23 31-23 31-23 29-24 31-23 30-22 29-21 30-22 29-23 29-23 31-23 26-21 30-21 28-22 28-22 31-22 28-23 30-22 29-22 32-23 31-24 33-23 32-22 29-22 31-22 31-22 32-24 31-23 32-24 32-24 33-23 31-25 33-23 32-24 31-23 34-23 34-23 36-23 35-22 33-22 35-22 33-21 31-23 33-22 33-21 34-21 36-20 34-21 33-21 34-22 34-23 34-23 33-22 34-22 31-22 33-21 33-22 30-20 32-21 31-19 31-19 33-19 31-19 32-19 33-19 35-19 33-20 32-19 31-18 32-19 31-19 32-19 31-19 34-19 31-19 33-21 34-20 32-22 32-21 34-20 35-20 34-19 35-22 36-21 35-22 37-22 36-21 37-21 37-21 37-21 38-22 34-20 40-22 41-22 42-22 21-11 23-13 21-11 42-23 21-13 21-12 22-13 21-12 22-13 21-12 22-13 43-22 21-12 22-12 23-11 23-12 22-12 22-11 22-11 22-11 22-11 22-11 22-10 43-21 41-20 42-21 41-19 41-19 41-19 40-17 38-17 40-16 40-16 38-16 38-16 38-16 37-16 37-16 37-16 35-16 36-16 35-16 35-15 36-16 38-16 37-16 38-16 36-15 37-16 36-15 35-15 35-14 31-14 34-12 32-13 33-12 34-13 33-12 32-13 34-14 33-13 33-13 33-13 32-13 33-13 32-13 34-13 32-13 32-13 33-14 33-14 33-14 33-14 33-12 34-13 36-14 32-13 34-13 32-13 31-12 32-13 31-12 30-11 29-12 30-12 29-12 30-11 30-11 29-12 31-10 30-12 31-10 30-10 27-10 28-10 28-9 27-10 28-10 27-9 29-12 28-10 29-13 28-11 26-11 27-10 25-11 28-10 28-11 27-11 28-9 27-12 28-11 28-11 28-12 28-11 28-12 30-12 26-11 28-12 28-12 26-11 27-11 26-10 24-9 26-9 26-9 27-9 25-10 25-9 25-9 24-10 26-9 25-9 24-9 23-9 34-14 23-9 24-9 22-10 23-8 33-13 33-13 34-12 23-8 24-8 33-13 33-11 33-13 32-12 23-8 22-9 23-8 25-8 26-9 23-9 25-9 33-15 25-10 25-10 26-9 27-10 26-9 25-9 26-10 25-11 24-10 24-9 24-9 24-8 24-9 27-7 33-12 33-11 31-10 33-10 31-8 32-8 36-9 34-8 32-7 30-7 28-5 26-6 26-5 25-6 29-5 30-6 28-7 27-6 25-4 26-4 26-2 25-4 27-3 26-5 25-3 24-4 25-5 25-4 26-3 24-1 25-2 25-3 27-2 25-1 25 0 24 2 24 1 25 0 25 0 25 0 24-3 25-4 24-2 25 1 27-3 25-2 25-6 24-5 26-6 24-6 25-5 25-6 24-6 24-4 24-6 25-2 23-5 24-6 23-7 22 10"/>
<path d="M14496 999l-2 27-3 31-3 30-2 32 0 30 1 31 4 28 2 29 3 26 3 27 2 25 3 25 3 28 3 24 5 24"/>
<path d="M14687 1176l 29-3 29-7 28-6 34-9 24-6 23-7 24-6 33-8 30-8 26-5 24-4 31-6 25-6"/>
<path d="M15040 976l 24 7 26 4 29 6 29 3 25 4 25 10 17 18-2 25-13 24-18 21-21 20-18 17-20 18-21 16-20 18-20 18"/>
<path d="M15724 939l 5-26-5-26-8-24-13-22-22-12-27-2-25 7-22 12-20 13-21 15-20 23-12 22 0 28 17 20 26 11 27 1 31-4 25-9 23-11 21-13 22-17 15-19-17 22-5 26-2 30-7 31-6 26-2 28-1 31-3 28-1 25 0 30 0 26 0 25"/>
<path d="M15906 999l 30-1 30-1 30-3 27-3 25-4 27-4 31-5 24-4 30-6 29-8 28-6"/>
<path d="M16171 910l 24 1 24-2 25 1 27 3 26 4 23 9 6 23-12 22-16 18-17 18-18 17-19 19"/>
<path d="M16627 823l 23-6 27 2 26 5 29 5 25 8 26 6 27 5 23 14 7 24-15 26-20 21-22 16-27 17-30 17-29 17-22 15-19 18 25 7 26-3 29-6 32-5 28-5"/>
<path d="M14516 1749l 7 24 0 30-1 32 1 26 1 27 0 26 2 30 1 26 3 27 4 26"/>
<path d="M14709 1876l 27-8 24-5 23-7 31-7 25-6 23-6 31-6 27-7 25-6 25-8"/>
<path d="M14879 1753l 24-10 27-1 28 3 24 2 26 5 27 8 24 8 12 21-20 21-21 20-18 19-19 17-19 18"/>
<path d="M15369 1594l 4 25 6 29-2 29 0 28-1 25-2 28-1 28-2 27-4 31-1 29 3 25 7 24"/>
<path d="M15667 1561l-17-18-25-9-22 16-19 20-14 20-14 20-15 25-12 24 8 24 29-1 25-10 22-17 24-18 19-20 16-20-6 28-3 28-3 29-2 25 1 24 0 27-3 26 3 24"/>
<path d="M15911 1677l 25-10 26-3 27 2 26 0 24-2 28-3 27-3 27-6"/>
<path d="M16103 1583l 24 4 28 4 25 9 21 12 13 21-10 23-20 21-20 17-20 17-21 14-16 19"/>
<path d="M16554 1461l-20 18-16 21-10 24-15 28-12 24-8 24-5 24-3 28 4 28 13 24 19 18 26 14 30 7 27 0 28-2 29-10 23-9 14-21-8-26-20-19-23-14-25-8-26-1-27 2-24 10"/>
<path d="M16980 1578l 24 1 27-1 27-5 25-4 25-5 23-6 26-7 24-7"/>
<path d="M17135 1490l 23 14 25 11 25 9 13 21-16 21-19 17-18 21-16 19"/>
<path d="M17436 1436l 23 8 25 7 25 5 25 3 22 9 22 13-4 28-19 21-23 18-21 16-24 17-21 15-21 12-20 17 25 15 28-3 29-6 24-3 28 0 28 3 21 13"/>
<path d="M14469 2300l-5 25-4 29 1 31-1 26 1 28 0 30 1 29 1 28 1 29 1 28 0 24-4 25 0 25"/>
<path d="M14659 2414l 26-5 29-5 26-4 27-7 27-6 27-5 24-9 25-7 27-7"/>
<path d="M14943 2299l 27-6 25 1 25 7 24 9 19 16-9 24-18 16-19 20-21 14-23 11-23 10"/>
<path d="M15262 2191l 3 29 2 29-1 28-1 25-2 26-5 25-3 24-4 25-4 24"/>
<path d="M15374 2159l 25-8 27-3 26-3 27-6 25-6 27-3 24-4 26-3 12 22-5 26-6 27-5 27-4 28-6 29-4 27 0 24-4 26-8 25"/>
<path d="M15786 2218l 27 2 28 4 24 1 28 1 27-2 24-3 25-7"/>
<path d="M15991 2147l 25 7 25 6 26 7 15 21-7 25-16 22-15 20-21 16-19 15-25 13"/>
<path d="M16387 2164l 25-5 28-2 30-5 27-5 28-6"/>
<path d="M16437 2133l-19 15-5 25 1 27-1 28-1 27 0 26-2 26 6 24 24-4 20-14 23-14 22-11 27-8 24-5 25 0 27 3 25 10 20 14 13 23 4 27-7 24-11 21-17 19-22 13-27 10-31 8-30 5-25 1-26 2-28-1-28-3"/>
<path d="M16826 2247l 27-4 25 0 25-1 28 0 28-3 27-3 24-3 25-6"/>
<path d="M17001 2142l 25-5 27 4 25 6 26 8 22 10 8 23-16 21-19 20-20 18-23 13-23 15-22 12"/>
<path d="M17388 2037l 25-10 28 3 27 2 27 0 29 2 29 1 31 0 27 0 25-2 24-4 24-4 9 25-3 24-5 26-9 28-7 25-7 26-7 28-9 28-10 26-8 24-8 23-11 22-11 25-9 24-8 24"/>
<path d="M17903 2162l 24-5 24-2 27-1 24-1 28 0 27 1 26 0 26 1 26-1 25 0"/>
<path d="M18179 2043l 26-3 26 8 22 9 20 14 21 14 4 24-21 17-23 15-24 13-25 15-25 17-21 16-21 14-22 15"/>
<path d="M18499 1996l 3 31-5 27-4 31-8 31-9 29-5 28-5 27-8 28-4 27-3 26-2 24-2 29 2 27"/>
<path d="M18712 2014l-7 25-5 23-6 25-10 24-11 25-9 23-13 25-7 25 15 19 25-3 26-5 24-6 26-5 26-4 27-2 26-1 29-2 25 0"/>
<path d="M18832 2101l-6 25 1 27-3 29-3 30 2 31 4 29 6 28 7 24 7 28"/>
<path d="M19129 2206l 20-15 27-5 26 0 25 1 28 2 28 0 26 1 24 1 26 1"/>
<path d="M19339 2122l 25 0 24 5 25 9 22 10 9 23-16 19-24 14-25 15-26 12-22 12"/>
<path d="M19582 2136l 20-14 23-6 25 2 23 8 17 19 1 24-16 23-25 18-23 16-23 16-20 16-15 20 21 15 25-1 29 0 27 0 30 0 26-1 25-2 29-2 29-1"/>
</svg>
