<svg xmlns="http://www.w3.org/2000/svg" viewBox="1216 1605 20870 37798" stroke="black" stroke-width="16" stroke-linecap="round" stroke-linejoin="round" fill="none" data-xena="-1 -13 0"><style>@media(prefers-color-scheme:dark){svg{background-color:black;stroke:white;}}</style>
<path d="M2774 2365l 27 5 28-7 27-12 23-16 18-15 20-20 23-22 24-25 25-28 24-30 25-31 22-32 20-33 19-32 17-33 14-32 12-30 9-31 6-30 4-28 2-28 0-25 0-35-2-27-7-25-20 19-11 24-14 34-9 27-9 31-9 33-8 36-8 36-11 37-9 37-9 37-9 37-9 33-7 32-6 29-6 26-5 25-4 31-5 29 3 25 24-21 15-26 12-23 14-25 15-27 16-25 15-23 15-20 20-26 20-19 23-18 22-14 12 24-3 31-6 27-7 31-8 31-7 29-5 25-7 28 0 25 22 11"/>
<path d="M3364 2175l-24 12-18 20-13 25-6 26 6 27 17 17 26 3 22-15 14-23 9-25-4-25-15-20 16-18 24-12 26-12 24-9 18 16-5 27-9 23-12 25-10 23 26-1 18-17 19-20 19-17 13 22 8 25 13 25 19 21 27 10 28-2 27-10 20-16 18-21 16-23 12-25 7-28-2-24-10-29-13-23-20-15-25-4"/>
<path d="M4154 2162l 19-16 10 24-9 26-9 27-11 28-11 25-14 24-15 19 19-24 16-24 21-27 21-28 20-26 20-23 19-18 21-17 22-12 7 24-9 26-10 24-10 22-9 22 25-2 16-18 15-20 16-19 14-20 18-22 16-20 9 25-2 28-1 27 0 26 11 23 23 11"/>
<path d="M4591 2138l-14-20-25-6-22 11-20 20-19 22-10 22 7 25 27 2 24-6 22-13 19-16-23 12 3 24 22 10 27-11 24-15 20-18 15-21-11 23-4 25 21 13 25-18 18-17 19-17 19-18 16-22-16 23-10 25-9 23 14 21 25-7 27-15 22-19 21-21 19-23 16-20 16-20 9-22-18 17-11 23-5 25 24 7 22-16 16-22 12-20 10-24-2 24 1 25-3 27-2 26 0 24-2 25-2 28-4 25-7 25-7 25-9 22-8 24-10 27-11 24-10 27-9 24-13 26-15 26-15 25-15 28-16 25-16 21-19 19-23 9-12-21 1-29 9-35 8-27 10-26 10-27 12-26 13-27 13-25 13-24 13-23 19-30 18-26 18-27 19-24 19-19 21-20 19-16 22-20"/>
<path d="M5749 2190l 2-25-1-24-15-20-25-9-27 8-26 15-19 16-16 17-18 24-10 24-3 26 15 21 27 8 25-2 25-7 22-12 17-17 1 29 1 28-2 31 0 27-3 28-5 28-6 30-7 29-8 27-11 26-10 27-12 26-14 24-15 20-18 17-19 17-21 10-27-6-17-22-2-33 6-36 7-29 11-31 12-33"/>
<path d="M5861 2132l-6 24 0 26-4 26-9 22 8-25 12-22 16-25 17-25 18-22 21-21 16-17 22-12"/>
<path d="M6092 2108l-15 24-9 24-6 25 0 24"/>
<path d="M6132 1960l-8 23 12 25"/>
<path d="M6294 2077l-20-14-25-5-25 11-21 13-20 19-18 24-16 22-10 25 7 24 22 12 25-6 24-16 19-20 21-21 17-22 15-26 12-29 10-32 9-33 6-35 3-24 4-25 3-25 3-34 3-28 2-28-22 22-8 23-8 27-7 28-6 31-5 33-5 33-3 33-1 29 0 28 4 29 12 27 22 14 31-3"/>
<path d="M6501 2018l-25-5-23 13-21 18-18 19-6 23 21 15 25 6 27 3 24 5 25 6 16 19-15 24-17 18-24 17-28 14-22 9-28 9-24 7-24 0"/>
<path d="M7051 1856l 20-17 22-13 19 16-1 24-4 29-6 23-11 29-17 30-13 22-14 24-13 25-15 26-14 24-12 22-12 28-6 25 1 28 17 21 29 1 25-9 31-16"/>
<path d="M7020 1981l-25 9 9 25 29 2 25 0 26 0 28-3 25-2 25-2 27 0 24 7-7 25-16 19-18 22-16 18-13 22-2 25 23 14 29-6 26-14 20-14 13-22 4-24-9-25-11-27 5-26"/>
<path d="M7447 1854l 9 26-3 26-6 29-7 24-7 25-10 28-15 27-11 21-16 25-14 22-11 21-9 23 27 6"/>
<path d="M7397 2001l 26-5 24-3"/>
<path d="M7630 2018l-26-1-26 6-28 9-24 12-18 19-13 22 18 17 26 3 26-6 20-15 1 24 13 23 26 7 27-5 26-10 28-16 22-16 21-16 18-20 21-22 22-23 19-28 15-31 10-23 10-23 8-26 9-26 7-26 5-25 7-32 0-26-4-25-23-11-22 12-17 17-18 24-14 24-14 29-15 34-11 25-10 26-9 29-8 26-7 25-5 25-3 25 0 34 2 30 6 28 8 23 11 27 17 21 23 17 29 9 25 1"/>
<path d="M8113 1825l 14-20 29-5 26 1 28 9 22 10 11 25 0 25-11 25-13 21-16 20-17 22-16 21-18 24"/>
<path d="M8148 2201l"/>
<path d="M3077 3285l-26 0-27 8-27 14-21 14-21 14-20 17-19 19-15 20-13 21-10 22-9 26 0 24 10 27 18 16 33 4 35-7 27-10 29-14 31-17"/>
<path d="M3241 3061l 21 16 2 24 0 29-2 32-4 35-6 27-5 28-8 27-7 28-6 25-6 24-8 30-6 26-5 23-8 27-8 25 6-24 13-29 12-22 15-24 16-24 17-23 18-21 17-18 21-19 21-17 15 21-8 26-9 24-9 26-8 24-9 26-2 27 18 18"/>
<path d="M3500 3320l-22 11-20 16-17 23-9 25-1 26 18 19 24 9 24-3 25-9 23-15 12-26-2-24-14-25-18-16-25-6"/>
<path d="M3662 3328l-26 8-16 19-15 21-10 23-2 25 14 20 26 6 26-3 27-12 22-14 15-21 3-24-12-21-22-13-25-6 24 6 29 3 25 2 28-2 28-6 22-15 17-18 14-23 5-25-5-23-11 25 5 25 12 26 15 23 14 22 8 25 1 27-22 16-26 5-27-5-20-16 10-23 26 4 24 8 27 1 27-3 26-5 24-5 24-8 23-7 24-9 21-14 20-17 5-24-21-16-26-2-27 9-24 11-22 16-19 18-14 20-6 24 2 25 9 24 18 23 19 16 27 14 26 7 28 6 33 2 35-2 25-3"/>
<path d="M4847 3410l-22 12-21 14-21 18-7 23 9 25 19 19 24 6 30-3 25-11 22-15 15-22 2-24-16-21-25-18-21-11-25-11 16-20 25-13 23-9 23-7 27-5 27 4 23 10 19 15 13 24 5 25-4 26-12 26-15 19 9-26 17-26 16-19 17-19 19-21 22-20 18-17 19 17-7 26-9 24-8 25 6 24 22-10 26-17 23-20 22-22 20-20 16-22 15-19 9 22-4 29-2 25 0 26 11 24 24 7 25-10"/>
<path d="M5437 3325l-20 16-9 25 2 26 8 26 16 20"/>
<path d="M5436 3194l"/>
<path d="M5653 3088l-9 23-3 29-8 29-9 31-12 29-14 32-12 22-12 25-10 23-11 24-9 31-6 23 1 25 12 24 22 13 27 4 28-5 25-8 27-9 26-13 24-12 23-14"/>
<path d="M5528 3286l 26 2 24 0 31-1 27-4 28-5"/>
<path d="M5932 3248l"/>
<path d="M5941 3361l"/>
<path d="M6240 3102l 27 5 25 7 27 7 26 8 22 10 24 15 18 17 9 23-10 25-20 19-22 17-24 17-29 17-21 11-34 17-30 19-27 17-21 16-20 16-15 21 17 19 25 6 30 1 25 2 27-2 26-4 25-3 28-1 29-2 26-3 24-4 30-5"/>
<path d="M6762 3099l-19-16-25 15-21 23-18 24-18 31-12 23-10 26-7 25-4 25-4 35 2 31 7 28 15 25 15 21 16 17 22 13 31 13 28 6 30-1 29-7 26-9 20-15 14-20 6-26-2-29-12-28-21-22-27-18-28-8-28 0-26 3-25 7-24 13"/>
<path d="M3513 4849l-3-25-17-20-25-9-28 2-29 10-24 12-22 16-19 21-16 23 3 24 26 6 28 1 31 2 30 4 25 5 27 9 18 17 6 24-8 23-18 25-22 21-24 19-28 14-26 9-28 3-26-7-10-22"/>
<path d="M3656 4880l-17 17 0 25 5 26 18 22 28 2 24-10 23-19 17-18 13-20 7-24-17 19 2 28 7 27 12 21 21 17 24 4 24-8 23-18 17-22 15-23 10-24 2-24-6-25-10-24-16-23-19-16-17 20"/>
<path d="M4094 4786l-26-1-26 9-22 14-18 17-16 23-6 27 10 25 22 12 25 2 27-5 26-11 21-15 10-23-6 24 8 25 15 19 24 8"/>
<path d="M4237 4812l-10 24 0 28 1 25 1 31 2 30 3 35 2 25 2 25 1 27 1 28 1 28 0 30 0 29 1 30 0 28 1 24 2 28 3-33-5-35"/>
<path d="M4180 4826l 23-14 25-8 25-5 28-4 26-5 24-2 29 4 10 22-12 23-18 24-18 19-18 18-19 17-19 16-19 15-24 21-19 17"/>
<path d="M4518 4764l-24 13-22 17-19 17-18 20-12 21 14 20 27-3 28-4 28-5 30-3 25-4 25 6-11 23-21 19-21 14-24 15-23 14-22 11-27 8"/>
<path d="M4747 4674l"/>
<path d="M4771 4744l"/>
<path d="M5927 5399l 27-3 30 0 35 1 28 0 31 0 33 0 36 2 37 0 40 1 44 1 46 0 26 2 25 1 26 0 25 1 26 1 27 1 28 0 28 1 28 0 29 0 30 1 31 0 31 1 32 0 31 0 33 0 33 0 34 0 34 1 35 1 34 1 36 0 35 0 35 0 35 1 34 2 34 0 35 1 34 2 34 1 35 2 33 0 32 2 34 1 32 1 31 2 31 1 30 2 29 1 29 2 28 4 28 2 27 1 27 1 24 1 25 1 44 1 44 0 37 2 34 1 28 3 33 1 26 2"/>
<path d="M6919 4513l 5 27 1 26 0 35-1 26-3 33-3 35-4 38-5 42-5 44-6 48-2 25-2 25-2 25-3 27-3 26-1 28-3 29 1 27-3 29-3 29-3 30-2 30-1 31-3 31-2 31-5 32-2 32-2 32-2 32-1 33-1 32-1 31 0 32 0 31 0 30 0 29 1 29 1 28 1 27 2 28 2 27 2 26 3 26 1 26 2 26 2 25 2 24 4 46 4 44 4 40 3 39 2 35 2 31 2 27 2 32 0 27-2 25"/>
<path d="M7158 4518l-17 19-16 21-18 28-15 21-16 24-19 23-19 26-20 26-21 27-20 27-20 28-21 27-19 27-17 26-18 24-14 23-18 29-11 25-7 26 28 0 29-17 26-18 29-21 32-24 34-27 31-25 33-26 30-25 28-23 28-22 24-20 22-18 21-16 23-19 22-16-23 23-22 24-17 20-20 23-21 24-23 27-24 28-23 29-24 33-28 35-28 37-29 36-27 36-27 35-24 32-21 30-19 28-12 23-10 27 9 26 29-1 34-14 29-17 36-25 36-31 19-16 19-18 19-18 19-17 20-19 19-18 19-19 18-18 18-19 18-17 17-18 31-33 29-31 28-29 25-26 21-24 19-21 20-25 17-21-23 20-23 29-18 24-23 25-23 27-27 27-24 29-25 31-26 33-26 37-16 19-16 18-17 20-16 20-17 19-29 35-25 30-19 23-18 21 22 16 33-16 29-21 37-30 20-17 21-18 23-21 23-21 25-22 24-21 24-23 23-22 23-22 22-21 21-21 21-20 20-21 19-18 19-19 19-18 19-17 18-18 18-16 34-29 30-25 26-21 21-15 24-19-22 29-21 22-23 27-29 30-31 32-33 35-18 19-18 18-17 19-18 20-18 19-17 21-17 20-18 20-17 19-17 18-31 34-28 30-21 27-14 23-12 27 6 25 25 1 35-12 30-19 36-25 40-29 20-17 21-18 22-17 22-17 21-18 23-17 24-18 22-19 21-17 20-17 21-17 18-16 34-30 31-24 27-20 24-16 26-17-27 24-23 22-25 25-29 29-28 30-29 32-30 34-31 32-32 33-31 32-31 31-26 28-22 26-13 22-7 27 18 22 26 0 26-6 29-14 35-21 35-22 36-27 36-26 34-27 33-25 31-23 28-21 26-19 22-18 27-20 20-18-15 25-13 23-10 23-3 24 12 21 26 5 26-4 30-11 23-9 23-11 33-16 30-14 29-11 24-9 25 0 6 26-2 26-1 25"/>
<path d="M6096 5565l-1 30-11 31-16 30-12 21-15 23-14 22-16 23-15 23-16 22-16 21-14 20-20 23-17 19 22-18 19-20 24-25 27-31 32-34 17-18 32-34 33-32 32-29 28-25 28-23 25-21 22-19 21-17 27-21 22-14 23-12-8 29-18 25-17 22-19 26-21 28-23 30-24 33-24 32-26 36-26 36-25 37-26 36-26 33-23 33-21 30-19 27-12 22-10 24 16 17 28-10 22-14 28-23 32-29 18-18 18-17 16-19 19-20 18-20 17-19 18-20 18-20 16-18 18-19 19-18 16-18 16-18 31-32 28-30 23-25 21-23 17-19 19-21 16-18-17 18-14 23-14 21-16 24-18 26-20 28-20 30-21 32-22 32-21 31-21 32-23 33-22 33-21 33-20 30-18 30-13 22-15 26 20 15 24-15 21-17 22-22 25-28 26-31 27-32 25-33 25-29 23-29 22-29 21-27 21-27 19-23 16-21 15-19 16-22 16-22-10 28-14 23-13 26-16 29-19 29-17 30-21 31-21 32-22 35-25 36-25 36-24 37-23 34-19 32-17 28-12 22-9 25 16 20 23-14 21-17 28-25 26-30 28-34 28-36 25-36 27-35 25-33 26-31 24-29 22-25 17-23 22-27 17-20 17-18-12 29-11 23-10 24-15 27-16 27-15 26-15 29-16 28-17 31-18 33-16 31-18 30-17 30-14 26-13 23-8 26 11 23 28-10 23-19 18-19 20-23 20-23 20-25 19-24 16-21 16-20 18-23 19-25 17-21 10 28-3 26-4 31-7 33-11 34-6 25-7 24-8 34-1 28 4 27 21 16 32-3 24-14 27-19 23-22 19-23 16-25 18-20 25 6 4 29 2 30 1 32"/>
<path d="M7110 6029l 25 7 26-5 27-11 23-11 23-15 30-20 21-15 23-18 22-18 23-20 22-19 22-19 21-21 21-20 20-21 19-22 18-22 15-19 19-25 12-25 3-25-25-3-23 13"/>
<path d="M7432 5662l 18-18 24-16 25-11 25-10 24-7 26-2 3 25-9 25-10 28-9 23-11 21-9 25-5 27"/>
<path d="M6642 4678l-22-14-26 6-24 10-27 15-24 17-27 19-27 21-18 16-19 17-19 17-18 18-17 18-18 19-16 19-21 26-16 24-12 28-6 24-1 25 4 26 12 20"/>
<path d="M6293 4780l-19 16-14 23-12 26-10 27-9 22-11 31-8 26-6 27-4 26-3 30 1 26 14 23 26 7 25-6 23-10 23-15 25-15 20-15 19-14 21-15 22-20"/>
<path d="M10637 4116l-16 21 2 24 28-2 22-10 19-18 2-26-22-12-27 1-19 14-3 27"/>
<path d="M9602 5053l 2 25 21 13 7 26-1 24-1 30 1 27-2 31-1 32-1 27-1 29-2 28-2 29-2 30-3 35-1 36-1 24-2 34 0 32 0 28 1 27 1 24 0 25 3 25 5-24"/>
<path d="M9677 5086l 23 6 27 2 28-2 25-1 27 1 28 1 29 1 25 0 26 0 29 0 32-1 30 1 32 3 25 3 36 4 26 2 26 3 33 1 35 1 40 1 42 0 42-1 44 0 43-2 44-1 46-1 46-1 24 0 47 0 46 1 44 0 44 2 41 3 38 4 40 4 33 5 35 4 32 5 33 6 29 5 27 6 26 6 35 9 33 7 29 8 24 6 29 7 26 3 25 3-4-25-13-25"/>
<path d="M10622 4176l 17 19 7 24 5 30 3 28 0 35-1 25-2 28-2 28-4 31-3 34-5 35-4 37-6 38-4 34-5 37-4 37-4 38-5 38-3 37-4 37-4 36-2 37-3 38-3 37-2 38-1 36-2 33-1 33 0 29 0 28 0 27 0 25 0 25 0 25 0 35 0 34 0 31-3 31-2 31-3 32-4 31-4 30-3 26-2 30-1 24 0 24 16-24 6-32 5-28"/>
<path d="M10698 4115l 23 15 25 5 28 3 27 2 32-1 26 0 28 1 31 1 31 1 30 0 34-1 36-3 27-1 28-3 29-4 32-3 31-3 30-2 29-2 27-1 26-1 24-1 35 0 32 0 29 1 30 4 25 4 25 3 23 9"/>
<path d="M10715 5198l-4 26-16 26-13 22-12 22-13 23-15 22-13 25-8 24 30 0 24-20 20-17 21-20 21-22 20-20 19-19 17-18 23-23 17-19 18-20 18-16-14 25-14 21-16 26-17 26-15 28-15 28-15 26-14 26-11 22-12 28-3 26 24 3 26-17 23-21 17-18 27-26 18-18 17-19 24-24 20-20 18-17 19-17-2 25-14 27-12 21-13 21-14 22-16 21-15 20-16 22-15 22-13 21-14 21-18 27-14 23-11 24 25 11 21-16 19-16 19-20 20-21 20-23 17-23 19-22 18-20 16-19 18-17 24-25 22-22 21-19 20-16 23-15 10 23-13 24-16 27-17 27-20 27-21 29-21 28-22 28-16 21-13 22 18 16 28-15 28-20 19-15 19-16 19-15 24-22 22-20 20-18 18-18 24-19 23-13 25-12 25 3 0 28-7 31-8 28-7 29-9 26-6 27 5 23 14 23"/>
<path d="M2375 2315l 4-25 3-25-11-22"/>
<path d="M2583 7737l"/>
<path d="M3120 7703l 2-25-25-8-25 11-20 14-20 19-20 19-16 21-13 23-2 27 18 17 25 5 25 0 29-4"/>
<path d="M3307 7710l-26-3-24 10-19 15-17 20-15 22-10 25 1 25 22 10 25-9 24-14 20-15 17-17 10-24-9 23 0 24 6 24 25 0 19-17 19-17 18-17 19-17 21-16 10 24-9 24-1 25 24 1 20-15 19-17 21-16 19-18 19-17 22 10 0 24 3 24 16 21"/>
<path d="M4405 7860l 24-14 23-18 20-16 22-18 22-20 21-21 21-20 17-20 17-23 14-25 2-25-14 24-6 29-2 28-3 32-2 35-1 24-1 25-1 28-3 28-3 28-4 28-5 28-6 27-7 26-8 25-8 23-12 29-10 23-13 25-3-33 4-33 4-26 5-28 4-30 4-31 4-31 3-33 4-31 4-30 4-26 7-33 7-26 11-27 11-24 16-22 18-18 22-14 23-7 25-2 24 6 22 13 10 22-10 27-19 22-19 19-21 18-22 18-19 15-24 16-21 14"/>
<path d="M4749 7767l 23-10 25-12 21-14 19-16 20-18 22-22 22-22 22-25 19-26 16-28 14-27 10-30 6-33 3-25 3-27 3-30 3-30 3-28 4-25 4-28-1-27-24 11-14 21-15 26-15 31-9 24-9 24-8 24-7 25-8 26-7 27-6 26-6 27-5 26-5 36-1 32 1 28 4 25 12 26 16 19 21 12 25 2 25-5"/>
<path d="M5187 7632l-25-2-25 1-23 8-20 16-15 21-14 21 2 25 28 2 26-10 21-12 19-15 11-22-6 23 11 21 26-2"/>
<path d="M5386 7588l-25-3-24 8-20 15-16 19-16 22-13 23-9 25 2 24 18 16 24 6 25 0 30-4 31-5 24-6"/>
<path d="M5499 7660l-23 8 25-5 23-7 25-10 25-7-17-18-25-1-26 4-22 11-19 17-14 24-7 24 3 24 11 24 20 16 29 10 25 0 34-3 27-6"/>
<path d="M6431 7590l-1 26-1 27-4 24-8 24-12 26-11 21 7-25 16-26 17-23 16-22 17-21 16-20 20-22 17-18 25 6 6 25 0 25-1 26-3 25-1 25"/>
<path d="M6642 7608l 28-2 27-6 25-10 24-13 23-17 16-20-21-17-25-1-25 3-25 8-22 12-17 17-16 19-14 25-5 28 2 28 10 25 23 16 27 5 28-5 23-7 27-12"/>
<path d="M6858 7550l 14 21 16 19 18 18 14 22 12 21 20 16 24 6 25-5 27-10 24-11 23-11"/>
<path d="M7023 7526l-24 8-21 11-24 18-21 17-21 21-19 18-21 18-19 19-18 20-16 21"/>
<path d="M7248 7279l-11 25 0 27-2 31-2 26-4 29-6 30-8 32-8 32-10 29-8 28-5 30 0 25 5 24 21 11 25-3 25-9 31-13"/>
<path d="M7123 7455l 30-2 33-3 30-3 25-3 28-3 30-6 33-4"/>
<path d="M7882 7661l 15 22 27 0 30-9 29-14 20-13 21-14 20-16 21-17 20-19 20-19 18-21 15-21 14-23 13-23 10-24 8-26 7-26 3-26 5-25 4-33 3-26-6-23-25-3-24 17-17 18-17 22-20 25-16 30-12 22-10 23-9 24-8 23-7 25-5 34-3 25-2 35 3 32 9 30 11 27 19 22 23 17 29 12"/>
<path d="M8350 7569l-27-3-25 2-28 9-21 11-19 17-16 22-9 23 15 20 26 4 26-8 22-11 23-15 15-19-6 24 19 16 28 2"/>
<path d="M8507 7530l-25 1 15 21 26 2 24 5-6 24-18 20-17 23-11 25 6 26 28 8 27-1 27-4 29-6 33-7 35-7 34-7 32-6 30-5"/>
<path d="M8870 7594l-16-19-23-17-26-11-27 0-25 7-23 12-24 17-22 22-16 22-11 27 3 26 18 19 25 2 30-6 24-8 24-10 20-16 17-20-17 17-7 27-4 24 0 28 0 30 1 24 0 25-1 27-1 29-3 30-8 29-12 29-16 27-18 25-20 21-20 17-25 13-26-2-19-19-7-25-1-25 4-31 6-25 7-29 11-30 12-28 15-25 15-21 23-25"/>
<path d="M8943 7637l 23-11 25-8 22-11 24-13 21-18 11-22-13-21-25-10-24 6-21 12-22 20-17 18-14 23-1 27 15 22 20 14 30 7 28-2 31-7 26-11 28-12 25-14 19-16 17-21 11-26 1-25-11-22-21 12-10 25 6 24 13 25 12 23 17 20 9 23-25 0-25-8-24-5-24-1 20 13 26 2 27-2 24-3 29-6 34-7 25-6 26-8 27-8 29-9"/>
<path d="M9455 7257l-24 10-11 23-3 29-2 30-2 26-3 28-4 28-4 29-4 30-4 28-6 29-5 27-4 25 0 27 3 26 18 15 30-8 25-11"/>
<path d="M9334 7465l 26 6 31-2 36-6 26-5 25-6 27-6 26-7"/>
<path d="M10520 7500l-22 14-12 25-10 23-10 28-8 27-6 26-5 31 1 27 3 25"/>
<path d="M10551 7413l 20 18"/>
<path d="M10622 7550l-14 23-9 22-4 25-3 25 25-12 16-19 16-19 21-16 22-14 22-10 8 25-3 28-3 27-2 26 2 25 14 23"/>
<path d="M11495 7566l-17-20-22-10-25 3-27 15-20 20-17 19-15 18-15 22-11 24 19 20 26-2 26-8 27-12 23-13 14-20-24 7 6 25 16 19 22 10 27-8 20-14 19-16 18-19 6-25-13 21 9 23 22-11 22-18 21-18 18-16-4 25-9 23 14 21 24-3 23-9 20-15 2 25 4 25 26-6 22-13 21-13 20-15 22-18 17-18-24 6-7 25 2 24 23 14 20-14-9 25-2 25 2 28 3 29 1 27-3 30 0 32 0 25-3 26-7 26-8 23-8 24-14 26-15 23-17 18-23 13-25 4-25-6-23-13-19-20-7-29 3-30 8-25 9-31 11-22 13-25 17-25 17-25 18-25 17-25 17-24 19-20 18-19 25-23 21-18 21-16 21-14 27-13 23-8"/>
<path d="M12739 7581l 26-2 23-12 23-15 26-19 19-15 22-17 22-18 22-21 21-20 19-23 19-24 19-25 17-26 17-26 14-26 11-27 10-26 6-25 6-25 9-31 3-25-9-25-28 11-18 17-18 25-20 28-14 21-11 22-13 23-9 22-12 33-7 31-4 32 1 30 3 27 9 30 13 23 19 22"/>
<path d="M13128 7431l-27-5-25 7-16 21-5 26 7 25 23 12 26 0 23-10 19-15 10-24-8-26-19-18-25 3"/>
<path d="M13368 7400l-23-11-25 3-23 14-19 17-18 16-15 21-6 24 6 27 20 14 28 7 30-2"/>
<path d="M13548 7410l-19-15-24-8-27 11-22 17-17 17-17 20-12 24 3 24 19 15 27-4 26-8 22-15 16-18 12 21 24 7 30-6 29-12 26-10 27-14 27-16 24-18 22-20 21-23 19-24 13-25 9-26 8-28 6-30 7-31 4-31 2-26-1-27-14-22-27 6-21 20-14 20-15 26-16 31-9 24-9 26-10 25-7 27-7 27-6 28-4 27 0 25 1 32 7 26 12 25 19 15 24 6 27-5 23-12 26-17 26-22 24-26 15-18 19-30 10-22 9-23 6-24 6-25 7-26 7-26 8-28 6-25 7-32 2-29-24-3-18 18-17 26-11 22-10 26-8 28-5 31-3 29-3 30-6 30-3 30 0 27-2 24-2 27 5 24 24 12 24-6 22-11 26-15"/>
<path d="M14031 7354l-23 9-10 23-5 25-7 26-7 26-2 27 25 7 18-16 19-20 22-22 20-22 17-20 0 27-6 26-6 25-5 25 7 24 28-6 19-15 16-19 16-21 12-24 9-24-15 22-10 26-6 26-5 31-3 27-5 31-7 36-5 25-7 26-6 28-11 28-12 29-12 30-18 29-14 30-14 31-15 29-13 30-16 27-16 26-17 24-14 23-17 20-22 25-22 15-22 10-22-14-4-28 3-31 4-24 9-27 9-30 10-33 10-33 12-35 11-34 14-33 15-31 13-31 16-31 17-29 17-28 19-28 19-25 21-24 22-21 22-17 22-16 22-12 28-16 27-13 26-10 29-6"/>
<path d="M14957 7351l 13-21-8 25-10 22-12 26-13 26-13 24-15 27-8 22 18 18 27-6 26-15 22-14 22-19 17-20 11-21-11 22 7 24 21 16 26 0 28-10 22-12 22-14 19-17 18-22 10-24-3-24-18 19-10 22-9 23-10 24-9 30-7 27-9 29-13 33-7 23-9 24-9 25-9 24-9 24-9 24-8 23-12 31-10 27-9 27 1-25 6-25 6-30"/>
<path d="M15196 7369l 16-21 23-16 25-8 26-1 27 7 21 12 10 25-7 29-15 23-18 18-19 18-25 17-28 16-25 14-22 11-22 11-25 8"/>
<path d="M15455 7363l-14 22-9 23-10 27-6 26-7 29-8 24-12 29-14 30-12 21-14 33-11 22-12 21-16 30-15 26-16 19 7-25 12-29 11-22 9-23 11-25 12-26 9-27 14-25 13-26 12-25 13-24 12-22 18-30 16-26 15-21 16-20 23-16 24 1 20 15 14 22-1 26-14 24-17 19-21 18-26 16-28 14-23 11-23 8"/>
<path d="M15627 7379l 27-6 26-7 24-8 24-9 20-17-10-24-25-8-24 6-23 12-22 19-16 17-15 24-9 25 9 25 19 21 27 10 32 3 25-3 28-5 25-8 27-10"/>
<path d="M15882 7339l 25-5 26 2-9 26-25 15-22 18-20 15-21 19-17 21-1 25 28 8 29-3"/>
<path d="M16061 7326l 24-5 28-3 25-5 30-6"/>
<path d="M16217 7379l 21 15 27-4 30-9 27-12 28-14 30-16 28-18 26-20 22-23 21-28 19-30 16-31 12-31 10-31 8-31 7-24-1-25-24-5-21 19-21 20-17 20-14 21-13 25-13 28-15 30-13 31-11 31-6 29-5 26 0 24 1 30 11 23 21 18 29 4 31-6 24-8"/>
<path d="M16560 7337l 28-6 26-3 26-6 25-10 6-24-27-7-27 3-24 7-23 13-22 14-20 16-10 23 6 25 21 13 24 7 27 1 32-5 29-7 33-12 23-10 23-10 22-12 31-19 21-14 20-14 25-26 17-19 14-21 17-23 14-25 13-28 11-28 11-29 10-28 10-26 8-24 9-29 0-29-10-22-24 0-19 21-15 21-17 27-12 21-10 25-11 28-12 30-14 33-15 37-16 37-15 40-16 39-15 40-15 39-14 39-10 37-12 34-9 31-8 29-8 24-2 32-1 25 4 28 21 13 22-13 19-15 21-19 18-23 14-25 9-27 4-28 0-28-1-30-6-26-9-28-16-22-18-22-19-16 24-3 28-7 29-10 22-9 25-12 26-13 26-15 21-16 20-19"/>
<path d="M17063 7109l 10-24 7-24-21 12-10 28-13 28-13 28-14 34-10 24-9 25-12 25-13 24-10 24-10 23-8 24-9 33-7 30 0 31 5 25 27 12 26-9 22-9 21-14"/>
<path d="M16926 7272l 26-6 28-5 26-3 28-4 30-4 30-4"/>
<path d="M17694 7325l-16-20-24 3-27 13-21 12-22 15-20 16-20 18-19 23-11 24 8 24 26 14 32 2 27-2 31-5 33-7"/>
<path d="M17915 7338l-27-4-24 2-24 3-21 11-9 23 0 26 13 21 27 9 27 1 27-4 27-7 23-12 14-21-16-20-20-16-24-9-23 8-6 25 25 9"/>
<path d="M18097 7290l 25 2 23 15 17 19-16 20-24 9-23 8-20 16 1 24 27 1 27-3 28-4 31-7"/>
<path d="M18288 7321l-23-5-19 17-8 23-10 23-8 22-15 22 27 3 21-17 23-21 22-20 20-18 18-18 19-16 5 25-5 26-12 25-6 26-4 24 25 5 28-7"/>
<path d="M18473 7374l 26-7 28-1 29-3 25-7 18-17-21-13-28-3-25 6-26 11-21 13-19 15-16 20-6 24 12 25 14 24 25 14 29 7 30 3 31-2 29-8 81-101-6-24 23 13 17 18 18 16-12 23-20 15-16 22-8 24 16 21"/>
<path d="M4648 9267l-20 14-10 24-3 25 0 28 8 28 11 22 15 20 19 18 25 13 28 6 29 0 27-4 27-8 26-12 24-16 25-20 20-22 13-27 6-24 5-25-2-25-5-24-11-24-13-22-15-19-25-18-26-13-24-6-25-1-24 3-29 7-24 11-19 15-16 24"/>
<path d="M5377 9127l 8 24 6 27 3 27 5 25 3 27 2 25 4 25 2 24"/>
<path d="M4647 9810l-14-20 23-9 25 1 24 2 27 5 24 7 22 14 16 21-4 27-10 27-13 20-15 21-19 19-23 20-21 18-19 15-23 15-22 17-20 15 25-8 27-13 26-6 27-6 28-6 26-3 26-1 28-1 24 5"/>
<path d="M7433 9623l 16 21 7 27 4 25 3 28 3 28 3 25 8 24 17 17 20-22 13-30 11-26 9-28 8-28 5-25 4-25 4-28 3-26"/>
<path d="M7771 9603l-20-15-24 8-19 15-18 22-15 22-8 24 17 21 26 5 27 2 26 2 26-1 25 2 24 5-13 21-23 18-22 12-25 12-23 10"/>
<path d="M7948 9767l"/>
<path d="M9569 9118l-20 15-12 24-8 28 0 29 7 28 16 23 24 14 26 9 25 3 28-3 28-4 28-7 27-11 23-15 13-23 6-27-5-29-14-24-19-22-22-17-21-10-25-8-25-1-25 3-22 9"/>
<path d="M10300 9062l 3 27 1 25 1 27 2 28 4 28 3 26 3 25"/>
<path d="M10871 9037l 25-8 26-3 26 0 24 1 25 11 16 19-1 26-15 24-18 22-18 18-18 17-17 18-2 25 22 11 24 1 27 0 28-2 26 2"/>
<path d="M9709 9707l 15 20 17-18-18-18-24 1-10 23 15 19 24-7-11-24-23-5-5 26"/>
<path d="M11450 9123l-26 3-3 24 24-7 17-19-15-19-23 10 16 19-21-12-24 7"/>
<path d="M5749 9183l 23 8"/>
<path d="M5315 9769l 24-2-14-20 9 23"/>
<path d="M4713 10473l 11-22"/>
<path d="M4531 11627l-18 16-7 29-5 28-3 31 1 29 5 27 9 23 18 24 21 13 26 7 29 3 31-1 29-9 23-9 21-15 20-16 20-15 16-19 13-23 12-25 6-24 0-29-11-31-11-27-18-29-19-22-22-18-22-12-28-7-24-4-32-1-25 3-23 5-23 11-27 17-21 24-10 22"/>
<path d="M5384 11487l 6 25 4 30 2 31 2 25 4 29 4 30 1 30 3 27 2 24 4 25"/>
<path d="M4618 12234l 18-18 24-5 28 4 25 5 25 5 25 11 22 14 10 25-7 23-12 24-18 26-17 17-20 20-22 23-26 24-25 24-19 17-25 22-25 19-20 16-19 18-19 16 24 9 24-2 25-2 30-3 24-1 27-4 25-2 26-5 31-6 27-2 26 1 24-3"/>
<path d="M5302 12168l 23-8 27-7 25-2 23 6 24 6 0 25-15 19-18 19-21 14-21 15-22 17 21 13 27-3 25-7 24 0 28 3 27 4 27 2 24 10 16 21 8 26-3 29-9 24-11 23-15 22-19 19-22 14-25 7-28 3-28 1-28 0-25-6-27-6-22-11"/>
<path d="M8324 11432l-23 8-18 18-11 26-6 28-3 25 1 29 4 30 10 28 10 25 15 22 23 21 25 11 26 5 29 3 28-2 29-5 31-9 28-12 23-12 25-16 21-19 15-23 9-23 5-27-5-26-17-24-20-19-23-19-28-18-28-15-27-10-28-6-27-2-29 1-24 5-27 12-24 17-16 18-10 23"/>
<path d="M8400 12002l 2 27 3 31 3 30 2 29 2 31 1 30 1 28 1 29 2 26 3 27 2 25"/>
<path d="M8980 11415l 17-17 25-3 28 2 25 5 25 6 28 10 25 6 25 8 22 14-8 28-17 24-22 21-23 20-19 18-26 18-29 13-23 15-20 14-20 14 17 20 25 3 26 0 29-3 29 0 24-2 25-1"/>
<path d="M8960 12011l 22-14 24-5 28 2 30 4 25 1 27 2 24 10 3 24-19 18-25 18-20 13-23 12-26 15-25 16-22 15-20 14 24 13 30-7 28-5 29-3 28-3 25 1 28 3 24 7 22 16 5 24-8 26-13 23-17 22-17 23-21 19-25 16-23 13-28 6-26-5-26-10-15-18-19-19"/>
<path d="M6817 12495l-7 27-7 25-9 33-8 24-8 26-9 28"/>
<path d="M1398 11699l 27-10 30-4 25-3 29-3 28 5 16 19-6 23-15 30-17 26-20 28-15 21-18 19-16 21-17 20-15 19-21 28-19 26-17 26-14 23-12 25-12 22 18 16 28-2 25-5 28-4 32-7 23-5 23-7 30-10 26-13 24-13"/>
<path d="M1660 11885l 27 5 23 9 24 4 25 4 24 5 25 3"/>
<path d="M1763 11835l-23 12-16 18-16 25-13 21-12 23-10 24-9 23-6 26"/>
<path d="M1878 11663l 27-5 28-3 25-2 28 2 27 8 13 21-8 24-15 22-16 20-17 21-18 20-19 20-16 19-15 21-7 24 18 17 26-1 25-5 24-4 26-6 31-6 26-3"/>
<path d="M1678 14287l 14-20 28-8 25-8 28-7 28-6 24-3 27 4 25 9 16 19 0 28-13 25-15 23-15 20-17 21-19 22-20 20-23 22-24 22-26 21-26 19-20 15-28 20-29 21-25 19-21 14-24 14-21 11 24-1 22-14 21-13 22-11 28-10 26-9 28-9 28-8 25-6 26-5 24-4 26-5 27-3 24 0"/>
<path d="M2058 14318l 18 17 22 14 24 15 23 13 22 11 21 13 21 13"/>
<path d="M2157 14320l-21 18-18 21-12 23-9 26-7 25"/>
<path d="M2372 14184l 27-3 28-2 26 0 27 3 24 5 5 25-13 21-22 21-19 17-23 18-21 13-21 13-16 17 25 1 26-3 24-4 24-1 25-2 24 0 24 0 29 4 24 7 18 16 6 23-6 29-10 27-14 24-15 23-17 21-22 16-25 13-27 11-26 5-26 1-26-3-28-6"/>
<path d="M5168 14340l-26 0-20 19-10 22-9 26-6 25-4 26-2 26 1 24 3 25 8 30 13 27 20 22 23 14 26 7 31 4 25 0 25-5 24-9 29-13 29-16 21-11 28-20 26-20 21-20 17-19 15-22 6-29-3-28-14-23-14-20-17-21-21-19-27-17-26-15-30-10-29-5-30-7-27-3-29-1-26 2-29 6-15 19"/>
<path d="M5993 14234l 9 25 2 27 3 28 2 25 3 27 2 29 3 28 4 25 4 31 4 26 6 25 7 26 7 23"/>
<path d="M6799 14240l 23-13 25-4 28-4 29-2 25 1 28 2 26 6 23 11 15 19-4 28-13 26-19 26-18 21-20 21-19 22-21 21-22 20-24 18-22 13-21 15-21 17-21 13 25 9 26-2 26-4 28-3 29-3 26-4 27-2 25 1"/>
<path d="M5160 15097l 25-8 27 2 28 4 26 7 27 6 21 12 4 26-20 18-24 17-22 17-24 14-22 11-22 14 17 18 28 0 25 2 26 2 28 4 28 6 26 8 24 12 18 16-2 27-13 27-15 24-19 20-23 18-27 15-27 13-24 8-24 7-28 3-24 3-30 3-27 2"/>
<path d="M5901 15001l-8 23-9 26-12 26-13 25-14 27-12 27-11 27-1 24 16 21 25 10 25 0 28-3 30-5 29-4 26-8 28-10 29-8 23-9 26-8"/>
<path d="M6000 15108l-11 25 3 30 4 28 2 28 4 28 3 29 3 28 3 27 4 28"/>
<path d="M6730 14895l 23-16 25-11 23-9 27-7 25-5"/>
<path d="M6739 14887l-12 22-2 26-3 24 0 29 1 29 1 28 5 24 24 12 25-5 24-6 24-6 24-1 24-6 24-6 26-3 25-1 26 1 25 9 25 8 18 18 6 24-7 24-13 22-15 21-18 25-18 24-16 18-16 18-19 17-25 16-24 10-23 5-26 1-25-2-26-5-22-10-22-14"/>
<path d="M7855 15321l-11 26"/>
<path d="M8786 14265l-24 11-15 24-9 23-5 24-2 27 5 27 9 24 12 21 17 18 22 16 26 11 27 2 26-2 26-10 23-9 22-15 23-19 19-22 18-21 12-22 10-22 1-25-7-28-12-23-16-22-20-21-22-19-24-15-23-11-28-8-26-2-29 6-25 12-22 18-19 26"/>
<path d="M9737 14150l 4 26 2 30 5 30 5 31 4 25 3 25 3 25 2 25 0 29 1 29 3 26 0 24"/>
<path d="M8912 14922l 24-10 29-1 27 2 28 4 24 10 12 23-8 25-13 23-13 22-18 21-20 23-24 25-16 18-24 25-25 24-26 24-24 24-19 22-17 17-15 20 22 10 24-4 26-6 26-5 25-2 25 0 29-2 28 0 26 7"/>
<path d="M9570 14924l 27-5 25-6 27 2 24 0 24 3 24 8-3 25-20 20-18 18-21 19-20 15-19 15-17 18 24 2 26 2 29 1 24 2 26 3 24 3 25 6 27 13 18 16 12 22 5 27-3 25-8 27-13 27-16 23-22 15-27 14-28 9-30 4-24 0-25-2-29-4-23-7-23-13-16-19"/>
<path d="M10510 14197l-11 22-7 27-9 25-9 27-11 26-11 26-9 23-2 28 13 22 25 6 29-3 32-7 25-8 25-9 24-8 30-10 29-10 29-10 25-8 22-11"/>
<path d="M10634 14282l-17 18-2 27 2 26 3 28 3 30 4 29 5 29 5 29 5 26 3 26 6 30"/>
<path d="M10518 14913l 22-13 28-3 24-4 25-5 26-6 25-6"/>
<path d="M10536 14899l-23 9-16 21-10 25-10 25-7 26-1 25 10 24 24 10 27-2 24-5 25-7 28-6 28-6 29-4 27-1 26-1 29 5 23 6 25 10 12 23-10 24-15 20-20 18-24 16-22 14-24 10-28 7-27 1-26 0-27-2-25-9"/>
<path d="M11863 15133l-17 23-10 22-12 25-16 31-19 31-12 22-15 29"/>
<path d="M12935 14072l-25 8-14 22-11 25-9 24-8 24 1 28 8 28 11 23 17 23 21 18 25 10 24 5 30 0 28-3 26-6 24-9 22-10 26-15 21-19 16-24 12-25 5-24-2-29-8-31-11-23-13-23-20-25-23-17-22-11-28-9-24-8-26-1-27 4-24 11-18 21"/>
<path d="M13859 13987l 1 27-3 25-1 24 0 30 1 24 1 25 2 28 1 28 0 25-3 25-4 25"/>
<path d="M12949 14827l 19-17 24 3 24 5 22 10 22 12 23 12 23 15 19 20 1 26-15 24-22 24-23 19-25 21-27 23-19 15-29 21-21 14-19 15-25 20-25 17-22 16-20 14-19 17-18 18 24 11 26 1 28-1 24-2 29-3 30 0 28 2 28 1 27 3 28 1 29 0"/>
<path d="M14842 14041l 23-14 22-8 25-1 25 0 25 4 18 17-17 20-23 18-22 12-24 13-22 9-22 11 15 22 24 4 26 3 28 6 24 7 26 10 23 12 21 18 9 22-8 24-18 16-22 14-28 13-31 9-30 8-25 5-25 3-31 2-28 1-26 0"/>
<path d="M13975 14842l-24 6-12 22-8 24-12 27-12 21-13 25-11 24-9 24 15 21 24 2 29-4 26-4 27-5 29-8 27-7 25-7 29-6 23-8 23-8"/>
<path d="M14030 14903l-2 27 7 27 13 25 9 26 5 27 10 26 11 26"/>
<path d="M14627 14671l 22-12 26-5 25-3 29-3 32-4 25-3 31-3 27-3"/>
<path d="M14688 14662l-17 17-19 20-8 27-1 28 0 25 0 28 8 23 18 18 27-1 28-6 26-6 26-6 29-2 25-1 31-3 25 2 25 3 28 3 26 11 21 15 16 21-7 25-14 21-17 20-20 18-23 15-22 11-28 13-24 7-25 8-28 5-29 2-28-1-29-5-23-8"/>
<path d="M5196 16576l-20 14-13 22-8 27-1 27 6 27 13 22 20 19 23 18 26 11 26 12 26 12 30 6 27-3 26-12 21-14 24-16 19-24 14-27 11-23 6-25 4-29-3-26-7-32-12-25-16-21-19-18-25-18-28-9-28-3-28 3-26 13-26 18-20 16-22 25-13 24"/>
<path d="M5227 17281l-2 27-1 26-4 25-3 30-1 29-3 25-2 25 1 27 1 25 2 25 1 28-1 28 0 25 4 25-1 25"/>
<path d="M6023 16519l 17-17 25-5 26 2 26 6 24 9 21 17 16 21 0 26-13 24-16 19-21 20-22 19-19 16-19 15-23 19-23 17-24 16-20 15 22 15 26-2 25-2 27-5 28-4 25-2 24-1 26-1 23 7"/>
<path d="M6774 16485l 21-13 26-7 26-7 27-2 24 1 24-3 26 2 26 6 22 12 0 24-16 20-18 17-25 16-27 18-23 12-24 12-22 12-24 15-23 10 26 3 25-10 25-2 26 3 26 3 28 6 29 10 26 10 20 13 16 22 2 26-17 19-19 19-23 13-24 9-24 9-23 8-24 5-26 3-24 3"/>
<path d="M6135 17279l-12 23-9 27-10 24-11 22-14 25-9 23-11 23-4 26 11 24 24 9 28 0 27-3 26-5 29-7 25-3 24-9 24-8 23-9 22-9 25-12 23-15"/>
<path d="M6218 17375l-5 27 0 29 1 31 3 26 4 26 3 25 5 25 5 24 9 28 13 25"/>
<path d="M6870 17334l 16-19 24-11 24-9 29-9 28-8 27-5 26-2 25 0"/>
<path d="M6957 17282l-26 0-23 10-18 20-11 28-10 26-4 26 0 24 3 28 11 23 21 13 29-1 30-5 26-4 30-7 30-7 30-2 30 1 26 0 24 0 26 3 24 11 16 20-16 23-21 17-26 20-25 16-25 13-26 11-26 7-28 3-29-1-27-2-24-7"/>
<path d="M8054 17778l-22 13-18 17-24 20-19 16-19 20-15 19-20 25"/>
<path d="M9123 16522l-24-4-23 14-17 22-16 22-18 27-10 24-8 30-1 27 6 25 17 24 23 15 30 7 26 3 28 0 30-6 32-5 30-8 32-8 27-11 25-15 22-19 12-25 3-28-6-29-13-27-19-22-21-21-23-15-28-13-24-3-25 2-27 9-25 16"/>
<path d="M9051 17374l-4 29-6 30-4 28-2 28-2 27-1 27-1 27 3 27-3 25-2 25"/>
<path d="M9900 16447l 23-11 22-9 28-8 28-3 25 3 26 9 21 11 25 13 16 22 3 25-13 22-18 20-21 17-25 15-26 13-21 12-21 11-22 14-23 13 18 20 28 2 28-2 29-1 30 0 29-4 28-3 29-3 29-3 29-2 27 3"/>
<path d="M9949 17174l 22-14 26-6 24-2 29 3 29 5 25 9 22 11-2 27-19 15-24 10-26 10-26 8-24 10-17 17 25 5 25-2 25 3 28 6 23 5 25 7 26 9 25 13 23 18 11 21-4 25-17 22-19 16-24 18-25 13-25 12-27 10-29 6-27 4-25 1-27-4-24-12"/>
<path d="M10805 16489l-11 23-10 24-10 26-9 22-6 26 12 24 29 6 25-2 27-4 27-6 26-8 30-9 28-8 28-8 30-7 28-7 26-9"/>
<path d="M10927 16533l-10 23-3 27-1 24 1 29 3 27 6 31 8 30 7 29 6 23"/>
<path d="M10933 17140l 23-7 25-7 28-9 29-12 25-12 23-9 26-7"/>
<path d="M11003 17090l-23 10-22 13-21 20-16 24-10 23-9 23-1 26 6 23 17 17 25 5 28-2 28-7 27-8 29-6 25-3 25 0 28 0 27 6 26 6 26 10 19 17 5 24-3 24-14 21-21 18-20 13-26 12-25 7-25 4-25 3-26 0-27-2-25-1-26-3"/>
<path d="M7855 15301l-16 21-14 20-15 23-12 23-16 27-17 27-14 22"/>
<path d="M17824 14821l-25 6-22 14-20 20-18 21-19 26-15 23-16 27-10 23-10 26-8 28-7 31-5 31-3 32-1 31 1 29 3 28 5 26 7 33 12 27 11 22 17 24 19 21 21 15"/>
<path d="M18006 14925l 20-14 24-8 25-7 26-3"/>
<path d="M17980 14934l-20 16-9 26-5 25-5 28-6 25 2 25 20 16 25-6 24-8 26-6 27-5 24-4 26-5 27-2 27-1 25 1 26 5 17 18-6 25-12 22-23 18-25 15-24 10-30 10-26 10-27 9-25 5-26 1"/>
<path d="M18325 14783l 14 21 14 23 14 21 13 24 15 25 16 27 15 26 15 28 14 29 12 29 12 28 11 27 8 25 6 25 1 28 0 27-8 28-10 29-13 27-14 26-18 22-19 24-18 19"/>
<path d="M18769 14802l 22-10 26-1 25 3 27 6 22 13 17 18 10 22-2 25-7 23-11 28-12 23-14 24-13 21-11 22"/>
<path d="M18846 15205l"/>
<path d="M18126 11278l-24 2-22 19-14 21-13 21-14 22-12 25-13 26-11 31-8 31-8 32-5 33-5 32-2 34 3 30 3 29 4 26 5 29 10 26 12 27 13 23 18 20"/>
<path d="M18310 11405l 27-10 29-1 30 2 29 4 26 7 21 18 5 26-13 27-18 22-18 16-22 15-24 16-26 13-26 13-25 14-22 13-21 16-1 25 26 6 25-1 29-2 24-3 24-6 25-6 25-8 28-8 29-11"/>
<path d="M18516 11244l 17 21 17 22 17 19 19 21 19 21 17 22 16 24 14 23 16 25 13 27 14 27 9 28 8 28 5 28 5 29 2 30-3 30-5 30-11 30-9 29-11 28-14 28"/>
<path d="M4297 19424l-24 2-22 16-15 24-8 26-4 25-3 30-1 34 1 33 4 35 4 24 8 34 12 32 13 27 15 21 18 18 22 18 27 11 29 0 29-9 25-12 25-20 25-25 21-27 16-22 12-21 10-22 10-23 9-31 2-32-8-31-13-32-19-31-21-28-24-24-24-18-25-13-24-10-29-6-25-4-26 1-25 11"/>
<path d="M4919 19322l 3 27 3 30 6 27 6 32 3 26 3 27 3 29 2 28 1 29 0 27 1 31-1 25 2 26"/>
<path d="M5357 19311l 24-6 29-2 30 1 24 4 28 5 24 3 26 7 21 14 16 19 3 26-17 24-16 19-22 19-25 24-25 21-25 23-22 23-19 24-16 22-13 20-12 25-2 24 27 2 26-6 26-6 25-6 29-6 33-7 36-5"/>
<path d="M5800 19354l 15-22 23-11 26 2 26 6 29 2 25 3 25 1 24-1 25 4-20 17-27 17-26 14-22 15-20 16-19 15-23 15 17 21 27 1 27 1 28 2 29 3 24 3 29 5 27 10 17 17-3 26-13 20-22 21-20 13-25 15-30 13-26 14-28 11-26 9-26 6-28 2-28-5-10-22"/>
<path d="M6352 19233l-12 22 1 26-3 29 0 29-6 29-6 26-4 28 4 25 20 15 24 1 30-1 26-4 28-5 31-7 25-5 27-7 26-9"/>
<path d="M6466 19354l-6 23 6 29 4 29 3 24 4 27 6 29 6 27 7 24 11 26 18 23"/>
<path d="M6756 19310l 27-8 31-3 24-3 26-6 25-3 25-6 28-7 23-6"/>
<path d="M6825 19314l-20 14-17 21-8 23-6 28-3 25 6 25 15 22 26 5 24-1 25-6 25-8 28-9 24-4 30-9 27-6 28-3 24 1 26 7 17 17-7 24-17 26-18 22-22 23-24 22-25 22-28 19-27 17-26 15-23 13-24 9-27 7-24-3"/>
<path d="M7216 19620l-5 26-13 25-14 27-16 26"/>
<path d="M7900 19356l-24 14-16 23-8 26-1 29 1 26 7 24 14 29 18 20 23 17 25 13 29 7 30 5 31 1 30 1 31-6 30-10 28-15 25-17 21-17 17-26 6-27 0-30-7-26-13-27-18-28-25-23-28-19-29-12-30-7-32-2-34 4-31 7-29 10-25 11-27 15"/>
<path d="M8527 19204l-7 27 0 25 5 28 8 31 2 26 2 27-2 27-1 26-1 25-1 31-5 29 0 27"/>
<path d="M8950 19140l-14 20-6 27-6 24 1 27 9 25 16 19 22 15 26 10 25 5 28 1 29-2 24-3 25-4 26-6 26-7 27-8 25-9 22-10"/>
<path d="M9100 19205l-2 24 4 27 6 25 7 29 4 24 1 25 2 26 4 31"/>
<path d="M9677 19153l 27 2 25 7 27 8 26 10 23 12 17 19 10 25-7 25-16 17-21 14-25 16-23 16-21 17-24 16-19 16 14 20 24 6 25 2 30 0 27 0 30-2 34-3 24-2"/>
<path d="M10138 19109l 26-7 26 1 26 1 30 2 28 3 28 3 27 8-8 23-25 10-25 13-22 17-18 16-8 23 22 13 26 7 28 2 26 2 24 4 26 4 26 6 28 9 21 13 9 23-18 21-21 17-21 13-22 12-25 11-25 9-25 7-23 7-30 6-25 2-28-5"/>
<path d="M10802 19072l 25-8 30-1 28 0 30 0 29-2 25-3 30-3"/>
<path d="M10836 19077l-22 11-8 25-2 24 2 25 3 27 6 24 23 12 26-3 26-3 28-4 29-5 25-3 30-4 26-3 28-2 25 2 22 10 16 20-4 27-15 21-19 19-19 14-23 18-27 15-23 10-30 11-28 7-31 5-26 1-27-3-22-14"/>
<path d="M11223 19394l-20 19-16 19-16 19"/>
<path d="M12162 19033l-18 16-11 23-9 25-8 28-8 28-6 29-2 28 1 25 11 26 14 23 19 17 25 14 25 9 30 2 26-1 23-9 22-10 26-12 26-19 21-23 11-21 10-28 2-28-4-24-6-26-12-25-18-21-20-20-22-16-21-13-26-11-28-4-25 0-25 3-23 9-17 20"/>
<path d="M12632 18991l-2 28 4 26 1 24 4 27 3 25 4 25 3 25 3 28 0 27 0 25-2 28-1 25"/>
<path d="M13046 18945l 22-10 25-1 25 1 26 3 27 5 26 7 24 8 9 24-18 18-23 18-23 13-22 12-23 9-28 12-23 12 6 24 26 3 24 4 25 7 28 7 27 10 22 10 22 10 21 16 13 22-15 21-19 17-20 16-23 13-27 15-25 10-23 11-24 7-31 7-28 6-26 1-25-8"/>
<path d="M13655 18925l 23-8 26 2 27 4 27 9 23 9 22 14 15 18 7 25-14 19-23 18-21 13-22 14-25 16-26 16-28 15-25 15-28 16-24 16-22 17-19 18 10 23 23 8 24 4 28 2 24 1 28-1 29-2 33-3 33-5 32-3 29-5 28-6"/>
<path d="M14083 18907l 0 25-3 24-7 25-4 25-6 25-6 27 7 26 22 15 27 8 26 2 32 0 24-1 32-2 25-2 31-5 26-3 26-6"/>
<path d="M14216 19006l-11 23-1 25 3 30 3 26 3 26 5 29 1 28 2 27 5 30 8 23 17 19"/>
<path d="M14521 18946l 14-22 27-9 30-2 30-1 32 1 28 3 25 4"/>
<path d="M14549 18965l-17 18-7 24-4 27-2 25-5 27 2 26 11 23 24 3 27 0 26-1 28-4 25-1 27-2 25-1 26-1 28 1 24 11 7 23 0 25-10 25-15 19-24 17-23 10-26 10-27 8-27 6-24 6-29 1"/>
<path d="M14946 19295l-14 24-16 21-20 21-18 20"/>
<path d="M15586 18916l-25 2-24 13-21 18-19 20-18 23-16 25-14 29-9 28-6 28-1 25 5 26 8 24 13 23 16 19 20 15 28 11 30 6 33 1 34-1 24-3 27-3 27-6 27-9 26-11 24-12 31-18 25-18 21-21 13-21 7-28-6-31-11-24-17-25-18-24-20-21-22-18-23-15-27-11-26-7-27-4-26-1-26 4-26 10"/>
<path d="M16156 18859l 22-11 30 0 26 6 27 12 25 10 28 10 25 9 24 13 17 18 5 23-18 18-22 16-20 15-26 14-26 14-27 13-24 13-24 14-22 17-21 18-10 23 17 20 28 7 27 1 24-1 26 0 28-4 30-5 31-6 31-6 28-7"/>
<path d="M16613 18829l 21-12 26 2 26 3 28 8 29 11 23 14 21 13 23 16-10 24-23 9-24 9-21 11-21 14 9 23 24 13 27 11 26 12 25 11 26 13 22 11 23 15 24 14 11 22-19 22-23 12-22 10-24 12-31 9-24 6-27 4-25 3-29 0-30-2-25-4"/>
<path d="M17218 18835l 7 24 7 28 7 25 9 28 4 28 3 29 1 27-5 29-1 26-5 27-7 24"/>
<path d="M17590 18813l-7 25-5 23-5 25-9 25-7 27-9 22-1 24 14 22 28 9 28 5 33 4 28 1 29-1 26-5 32-5 24 0 27-3 28-4 27-8 22-13"/>
<path d="M17800 18927l-15 20-1 28 4 25 3 27 5 28 3 24 3 28 3 24"/>
<path d="M18143 18832l 27-5 25 0 24-2 26 0 25 2 27 0 25-3 24-3"/>
<path d="M18236 18831l-22 13-19 20-12 22-10 22-6 27-4 26 3 27 10 25 18 16 25 6 26 1 30-1 25-1 25 1 28 4 25 8 24 9 20 16 11 21-10 24-21 12-24 13-23 7-26 8-28 5-26 1-25 0-29-2-27-9-23-11"/>
<path d="M18647 19190l-9 25-7 25-8 25-12 27-12 25-15 26"/>
<path d="M19313 18897l-25-1-25 14-20 17-19 23-13 21-9 28-4 29 1 25 9 25 15 24 22 20 23 17 28 16 28 13 31 8 27 4 26 0 28-7 22-10 24-19 20-24 15-25 4-28-7-31-9-25-12-25-16-25-20-22-25-18-27-11-26-2-24 7"/>
<path d="M19807 18907l 20-14 27-3 27 3 31 5 28 9 28 9 25 9 17 21-7 28-23 20-22 14-24 15-26 15-25 15-27 15-29 16-23 15-22 17-17 17 6 24 22 12 28 5 30 3 25 1 27 1 28-2 28-3 31-3 32-6 30-5"/>
<path d="M20249 18855l-14 22-3 26-9 28-7 29-3 28 3 26 17 17 22 10 25 5 28 3 31 1 24-3 25-3 25-3 29-5 26-7 23-11"/>
<path d="M20366 18944l-3 27 1 25 8 29 4 26 4 27 3 28 2 30 1 25 4 31"/>
<path d="M20803 18894l-2 29 2 25 0 30-1 25 2 27 0 28 0 28-3 28-2 30-2 28-3 30-4 29"/>
<path d="M21005 18889l 25-6 25 1 27 4 28 6 28 7 25 8-3 25-25 18-27 11-26 10-25 8-24 7 19 18 26 4 25 4 26 6 27 9 24 8 22 12 19 18 13 21-6 26-20 23-24 17-23 14-28 13-27 6-25 2-29-2-24-6-15-23"/>
<path d="M21399 18891l 26-9 23-5 31-4 31-2 31-2 28-2 25-1"/>
<path d="M21453 18896l-20 13-15 20-9 23-6 24-3 28 0 24 10 22 24 11 27 0 31-3 25-2 28-1 28 0 28 1 24 4 27 4 24 5 23 11 20 17 4 25-16 23-19 16-21 15-24 13-28 9-30 7-29 2-24 0-28-3-29-6-24-6-25-8-21-11"/>
<path d="M3160 21403l"/>
<path d="M3523 21448l-21-11-24 11-14 21-14 25-11 22-8 23-9 32-4 25 4 28 18 21 25 7 27 0 29-3 27-12 23-14 25-16"/>
<path d="M3652 21178l 8 27 9 25 7 27 6 26 4 28 3 32 2 33 0 25-1 36-3 36-4 35-4 31-6 30-5 30-3 26 16-26 11-23 13-27 12-24 13-23 16-26 14-25 18-22 19-16 22 10 5 27-3 28-5 29-6 29-3 24 10 22"/>
<path d="M3946 21471l-20 14-12 25 0 26 7 25 17 20 27 4 25-7 20-15 18-20 5-25-13-24-22-16-22-12-24-10"/>
<path d="M4099 21486l-21 11-16 22-9 25-2 26 10 22 25 14 24 3 28-3 24-12 16-19 7-24-13-22-21-14-25-5 13 21 24-3 23-9 24-14 23-18 21-18 14-22 1-25-13 22 10 22 20 20 18 17 20 18 14 23 9 22-12 21-25 5-25-3-24-5 14-21 25-11 22-10 26-12 23-8 27-6 25-8 25-7 24-7 23-8 20-15 14-21-23-9-24 3-18 15-13 23-5 24-1 25 0 25 12 25 17 19 26 12 28-2 26-3 30-6 24-10 26-15"/>
<path d="M5426 21400l 19 18 2 26 1 30-1 24-1 31-3 25-2 25-2-28 9-30 9-24 14-31 15-24 15-22 22-10 21 13 11 22 4 24-4 25 25-2 16-22 16-25 14-22 14-21 15-20 18-18 17 20 6 24 3 28 3 25 7 25 10 23 25 2"/>
<path d="M5844 21390l-7 24-3 28 2 24 3 25 6 25 15 19"/>
<path d="M5837 21270l-18-20"/>
<path d="M6014 21379l-25-4-23 10-14 21-11 28-5 27 1 24 13 20 28 7 25-15 24-20 16-19 15-22 14-26 12-26 10-30 6-30 1-31 0-31-4-32-4-36-4-26-5-35-4-29-5-25-18 17-10 32-3 28-7 30-2 35-1 35 3 34 7 36 8 33 9 30 11 30 16 23 20 18 25 8 30-4"/>
<path d="M6305 21374l-22-10-24 5-18 19-18 19-10 22-6 24 6 26 16 20 24 8 29-10 24-14 18-16 17-20 14-26 12-27 8-27 5-28 2-30 1-30-2-34-5-35-4-36-3-25-3-24-5-25-6-31-7-27-23 15-9 28-4 29-2 34 1 34 2 35 4 33 5 32 8 31 10 28 10 25 16 26 20 19 27 7 24-9 22-15 21-16"/>
<path d="M6487 21361l 27 6 20-14 17-19 16-25 14-19 13-22 19-27 13-27 5-23 9-28 5-28 5-27 1-27 0-26-5-29-8-22-28-1-15 22-13 28-11 23-12 25-9 30-6 32-5 34-1 36 0 29 3 32 5 32 7 30 7 24 11 24 15 24 21 14 25-8 19-19 16-24"/>
<path d="M6681 21350l-9 23 25 7 26-3 24-10 22-12 10-23-1-24-17-22-24-9-26 2-22 9-22 14-18 21-10 23-6 27 3 29 10 25 18 24 19 16 25 12 28 7 32-2 29-5 35-9 25-9"/>
<path d="M7626 21399l 7 23 2 25 1 24-1 25-13-21-1-24 4-28 12-24 16-25 16-27 16-18 20-24 22-16 23-10 24-7"/>
<path d="M7885 21306l-22 13-13 20-8 25 3 27 10 22 24 13 24 4 24-6 24-18 4-24-10-25-18-22-20-17-23-8 25-9 28-9 24-9 31-8 28-7 29-7 26-4 24 3-4 25-10 23-8 25-3 27 13 20 27 4 25-9 20-14 16-20 11-21 11 22 19 19 23 9 24 5 24-3 24-8 22-16 16-19 11-21-1-27-18-20-19-16-23-9"/>
<path d="M8524 21004l 27-2 23 7 23 6 21 13 17 18 8 25-1 25-7 28-10 25-10 22-11 22-14 22-16 27"/>
<path d="M8598 21390l"/>
<path d="M3200 22527l"/>
<path d="M3518 22537l-5-23-27 6-23 19-18 18-21 23-15 19-14 21-13 24-7 23 1 27 21 13 26 3 28-3 28-8 29-11 23-11"/>
<path d="M3643 22265l 10 25 8 25 6 33 3 28 3 29 1 32-1 36-3 34-3 34-4 29-6 25-6 27-5 23 11-24 16-29 12-20 15-24 14-23 18-24 16-18 18-17 14 23 2 29-2 24-4 27-3 27 3 26 23 13"/>
<path d="M3949 22514l-21 16-14 24-9 26 2 28 18 20 23 6 27-6 22-9 19-16 13-21 3-26-14-23-22-15-26-2"/>
<path d="M4169 22523l-23 6-16 18-15 24-6 25 7 26 20 15 25 3 24-7 21-15 16-18 13-22 7-24-3-26-12-21-22-11-24-1"/>
<path d="M4421 22489l-4-24 11-22-9 23 7 23 11 22 12 21 8 24 6 25-3 25-20 16-24-10-20-15 18-19 22-13 25-9 24-6 25-5 25-4 25-7 25-3 25-6 21-12 14-21-14-20-27 5-22 14-17 18-17 20-10 22-2 26 11 25 16 19 22 15 26 9 27-1 25-4 31-7 35-11"/>
<path d="M5457 22549l-20-17-26 3-22 16-19 23-14 20-10 26-7 30-2 27 6 27 18 21 30-1 29-14 26-18 18-17 17-19 18-21 17-22 15-22 14-23 10-22 11-33 6-29 2-32-1-33-3-33-3-24-3-24-6-26-3-24-4-31-2-24-22 20-6 31-5 36-2 25-2 27 2 26 2 26 3 27 7 26 6 28 7 27 7 27 6 24 10 33 10 29 9 26 10 22 13 23"/>
<path d="M5714 22586l-16 20-7 24-1 26 0 25 9 24 21 14"/>
<path d="M5732 22457l-18 16"/>
<path d="M5943 22598l-17-18-25-10-26-3-27 11-19 18-16 22-5 25 5 23 24 15 26 0 25-5 23-12 13-21-3 27 8 23 18 17"/>
<path d="M6206 22627l 12-23 2-25-16-20-25-2-25 7-20 14-20 21-21 26-13 25-4 26 4 26 15 22 25 5 24-6 25-15 20-17 16-20-10 23-1 28 3 27 5 29 6 29 4 24 5 25 3 28 0 27-2 26-5 30-7 30-11 33-12 27-16 21-14 20-19 19-25 10-29-6-20-18-14-30-5-28-2-35 3-26 5-27 7-28 10-29"/>
<path d="M6379 22598l-17 17-22 16-16 23-7 25 4 27 15 19 27 9 27 0 22-10 19-20 5-26-11-24-19-17 23 6 24-4 23-10 20-14 5 25-1 25 5 25 25-2 14-20 18-22 15-20 19-17 20 16-1 26 3 28 9 24 24 12"/>
<path d="M6806 22602l-23-8-25 5-19 17-16 19-11 21-1 24 16 18 27-6 23-16 20-16-2 25 25 6 26-10 20-15 19-19 22-19 20-24 18-23 15-21 11-22 9-23 7-25 5-26 2-28 4-32 1-32 0-31 1-31 1-25-3-25-23-11-17 21-14 22-12 27-8 24-8 33-5 25-5 35-2 27 0 27 0 26 1 27 3 24 6 33 6 30 8 24 12 25 18 17 23 9 28-1 21-11"/>
<path d="M7211 22309l 25-2 25 15 24 10 25 10 19 19 8 28 2 27-9 25-14 22-16 19-17 20-17 22-17 25-13 23-8 29-6 30-3 26"/>
<path d="M7244 22751l"/>
<path d="M15812 22977l 24-11 28-3 26-2 28-1 27-1 25 2 25 7 20 15 8 26-7 25-12 26-15 22-16 21-19 23-21 24-25 24-17 17-25 22-24 21-22 18-23 20-21 13 25-1 28-8 24-9 29-11 28-11 26-7 27-6 25-1 27 7 22 9"/>
<path d="M13342 21272l-24 5-22 9-18 21-16 17-16 21-15 20-13 24-17 26-12 23-14 23-11 25-9 28-11 28-11 31-11 31-9 32-9 32-7 36-3 25-3 27-3 26-3 27-4 26-1 25-1 27 1 27 4 28 1 28 4 28 5 28 6 29 6 28 8 27 9 28 8 27 12 27 13 28 13 27 16 26 16 25 18 25 20 21 20 22 23 20 24 21 25 19 26 19 27 18 30 18 29 16 32 17 32 17 34 16 36 16 35 13 37 12 38 12 38 10 40 9 40 8 38 8 40 9 38 7 37 6 35 6 37 3 35 4 33 5 35 2 31 2 32 1 34-1 37-1 33-3 32-4 32-6 28-8 32-10 33-12 29-14 31-17 31-17 31-19 31-21 29-21 31-22 28-22 29-22 26-22 25-21 25-20 20-18 20-18 18-17 25-22 23-23 19-21 20-22 17-22 18-25 15-29 13-32 9-23 9-24 7-28 12-28 6-29 7-32 1-33 3-34 2-35 0-35 5-35-2-34-4-33-5-33-8-30-8-31-10-28-11-29-10-30-13-28-15-30-16-30-20-31-20-31-21-32-22-33-23-32-25-33-25-33-26-32-26-29-26-24-25-22-23-18-24-17-25-14-23-12-27-10-25-9-27-8-27-7-30-6-28-5-31-5-29-3-31-3-32-3-31-3-32-4-30-3-31-3-33-3-31-3-32-3-30-3-30 0-29 3-30 3-28 5-30 6-26 8-28 9-29 11-30 11-32 13-31 12-31 14-32 14-31 16-29 15-30 14-28 14-29 14-28 15-27 16-24 16-24 15-22 15-21 13-22 12-25 18-19 16-16 19"/>
<path d="M13561 21669l-20-15-23-6-24 10-21 17-15 24-12 25-8 27-4 28 1 29 4 28 9 25 17 23 20 18 24 12 22 8 28 4 27-1 30-5 21-10 23-14 20-16 20-20 15-21 13-22 8-28 2-30-9-25-16-28-17-21-20-18-20-16-25-15-29-12-28-5-28-1-24 6"/>
<path d="M14268 21552l-10 24 1 24 0 29 1 31 2 24 4 24 0 24 3 30 1 26 0 24 3 27 2 25"/>
<path d="M20443 21086l-27-8-25-6-24-6-27-7-27-4-27-1-30 3-29 6-26 6-24 7-27 10-23 11-29 16-22 11-23 14-22 16-24 18-23 22-24 24-28 27-30 30-29 31-32 34-32 35-17 19-16 18-15 19-17 19-15 20-15 20-16 19-15 21-15 20-14 19-15 21-15 19-14 20-14 21-13 20-24 39-20 38-19 39-17 38-15 40-14 42-15 44-12 43-11 45-9 44-6 45-5 46-3 46-2 46 0 45 4 45 6 44 9 43 10 44 13 42 15 42 18 41 20 40 21 39 25 40 26 38 27 37 29 37 29 35 29 35 29 35 30 34 33 35 34 33 36 32 19 16 38 29 18 16 21 14 20 14 21 14 22 14 22 12 22 14 24 13 23 11 25 12 22 11 25 11 24 10 25 10 25 10 25 9 25 8 25 8 26 8 26 7 25 7 25 7 24 7 24 6 25 7 25 6 26 6 25 6 24 5 25 6 25 5 23 6 24 5 47 9 47 8 44 6 46 4 44 2 46 0 46-1 47-5 46-9 45-10 43-15 43-16 41-18 43-21 41-22 38-23 38-25 37-25 36-25 37-27 33-28 30-29 28-29 25-29 26-29 26-30 24-30 24-32 22-34 20-34 20-37 19-38 19-41 18-42 18-45 8-23 15-47 7-24 6-24 7-24 5-24 9-48 4-24 3-25 6-47 4-45 0-44-1-41-6-41-9-40-10-38-13-36-12-36-16-34-16-35-18-36-19-34-15-34-20-35-20-33-22-34-25-35-25-36-25-35-26-34-27-34-30-31-32-30-33-30-34-28-34-27-35-26-36-23-35-24-37-22-37-21-37-19-38-20-38-20-38-20-37-18-38-19-37-20-34-18-38-19-35-18-37-16-36-16-35-15-35-14-34-13-35-10-33-10-32-7-32-6-33-4-33-2-33-1-32 1-29 1-27 3-27 4-23 7-24 8"/>
<path d="M15666 24335l 26-7 25 5 25 4 28 5 25 3 23 7 0 24-19 21-23 21-18 17-23 19-19 17-18 17 21 14 29-3 25-3 25-6 29-4 30-1 29 5 25 8 18 20 5 25-5 26-11 26-14 20-17 24-17 19-23 17-23 14-28 10-25 8-28 2-23-5 13-22"/>
<path d="M16068 24313l 23 5 25 3 25 8 28 7 22 18 11 25-5 23-9 24-13 26-12 22-10 23-15 27-12 27-4 26"/>
<path d="M16188 24667l 26 3"/>
<path d="M16865 24260l 13 21-6 24-9 26-10 25-8 28-6 25 0 25 9 24 22 11 29 5 25-3 25-3 25-7 26-10 24-8 27-11 25-11 20-15"/>
<path d="M17009 24321l-16 20-5 28 4 28 6 24 5 26 7 26 5 27 6 25 7 23"/>
<path d="M17201 24215l 25-9 24-4 26 2 20 14 6 27 1 25 0 29-1 26-1 26-2 25-2 27-7 28-9 30"/>
<path d="M17292 24575l"/>
<path d="M16806 21949l 17-17 23-13 27-12 24-10 26-8"/>
<path d="M16816 21974l-20 17-9 25-2 24-1 25 5 24 10 24 22 10 25-8 22-11 22-11 24-12 25-12 25-8 28-4 25 3 24 9 14 21 2 27-12 27-12 25-13 21-16 27-15 24-21 18-22 14-26 12-28 4-28-1-22-11"/>
<path d="M17781 21021l-25-2-16 25-13 22-13 27-11 30-7 24-4 26-3 28-1 31-2 28 4 27 10 23 14 25 19 19 21 12 24 6 30-1 25-8 24-15 20-16 17-18-4-26-20-20-26-8-28 4-22 11-20 19-15 22"/>
<path d="M20314 22014l 26-1 29-8 24-8 28-7 26-7 25-5 24-3-2 26-8 24-8 23-10 27-12 28-12 28-14 31-13 32-11 29-9 27-7 25-9 29-6 24-8 24 3 24"/>
<path d="M21133 21950l-2-24-17-17-27-2-27 8-25 11-25 14-23 17-22 18-18 23-8 26 5 26 17 20 21 14 21 14 26 10 29 7 24 5 34 6 31 8 28 9 26 10 27 10 22 16 14 23 5 25-10 29-19 24-18 19-20 17-21 14-27 14-26 7-25 1-25-13-16-22-11-28-3-25 1-26 3-27 10-28 14-26 15-24 15-22 16-22 21-22 24-21 24-20 26-20 24-19 24-14"/>
<path d="M6887 27852l-2 27-3 31-8 30-8 26-10 27-10 30-11 30-10 28-9 29-7 29-6 27-3 25-2 29-1 25 8 25 20 17 26 3 24-5 27-8 27-7 29-7 25-8 24-9 25-10 28-9 24-4 23-6 24-8 24-4"/>
<path d="M7030 28060l-6 27 2 27 6 32 6 26 7 30 8 33 7 35 5 24 6 24 4 25 7 31 6 30 6 26 9 26 7 27 5 25-26-1"/>
<path d="M6834 25766l 15-19 24-13 26-7 27 2 25 10 22 16 18 18 14 20 4 25-6 26-10 26-14 20-18 22-20 24-21 23-22 22-22 21-21 21-21 23-16 21-11 22 23 13 27-7 25-8 27-10 28-11 30-11 24-8 29-8 26-5"/>
<path d="M6825 26865l 17-20 22-13 22-11 25-11 26-10 27-8 27-6 23 6-9 26-17 23-16 19-17 19-22 22-17 21-16 22-12 21 24 10 25-2 25-3 28-4 24-2 25 2 25 5 22 12 15 23 3 30-7 31-7 26-8 26-10 28-13 26-11 24-13 23-19 26-19 21-24 17-21 11-28 4-26-5-28-10"/>
<path d="M7066 24590l 3 27 5 26 6 31 4 27 4 28 3 29 2 30 0 29 1 27 1 24 1 28 2 28 3 27 3 24"/>
<path d="M7003 23732l-24-1-18 22-11 22-11 29-6 25-3 26-2 25 2 25 8 28 10 25 16 20 20 17 26 12 30 7 24 1 28-4 28-6 29-10 29-13 29-17 28-19 24-21 21-20 15-21 14-26 5-26-2-27-11-28-19-26-18-17-19-16-25-15-25-11-26-9-27-7-27-4-31-1-27 3-27 7-23 12-18 18"/>
<path d="M8021 23642l 26-3 27-2 29-6 24-6"/>
<path d="M8043 23669l-13 20 2 27-1 26 0 28 1 25 4 25 12 21 25 0 25-8 27-10 26-10 25-9 25-6 28-1 27 6 18 20 0 24-7 28-12 23-16 23-16 21-16 19-16 18-23 19-24 16-24 10"/>
<path d="M8077 24512l-25 5-16 20-11 22-11 30-7 28-6 30-2 31-2 32 1 31 5 31 7 29 12 25 16 22 17 17 27 17 26 7 26 4 25-2 24-4 29-9 23-12 12-23-9-22-22-20-22-16-26-13-28-7-25 2-27 8-25 13-20 16"/>
<path d="M7912 25623l 29 5 28-3 26-7 25-8 25-7 24-10 25-12 23-9 22 12-1 26-6 30-5 26-7 29-7 31-6 32-6 32-5 31-4 31-5 30-3 27-3 26-5 30-3 25 2 24"/>
<path d="M8132 26719l-11-23-24-9-25 4-24 12-17 20-13 23-6 27 1 27 8 25 16 21 23 16 27 12 26 10 26 11 23 11 21 15 16 19 12 28 4 27-3 32-7 24-8 24-16 24-19 21-22 16-23 9-28-1-27-11-22-20-15-24-9-28 1-26 5-29 12-31 15-33 13-23 12-23 13-22 12-21 19-29 16-25 18-23"/>
<path d="M9179 23552l-5-25-10-24-16-18-21-15-27-4-25 6-21 12-19 20-14 28-8 24-8 24-3 24-2 27 9 24 20 13 24 2 31-7 23-13 24-17 25-18 21-18 21-18 21-21 14-23 1 25 3 25 3 30 2 26 1 27 3 27 3 26 3 26 1 26 2 25 2 25 3 27"/>
<path d="M9129 24448l-12 25-7 24-5 28-5 28-3 29-1 29 6 29 17 16 24-4"/>
<path d="M9246 24504l-11 23 2 29 5 24 12 27 20 19 24 9 25-3 23-11 23-16 18-15 22-22 17-21 9-24 0-24-15-25-19-18-25-14-26-7-26 1-26 12"/>
<path d="M9092 25521l-4 24 1 29 1 25 2 26 1 26 1 27 1 26 2 24 1 30 2 26 3 27"/>
<path d="M9295 25498l 7 23 5 25 5 25 3 32 0 26 2 25 0 24 1 31 1 28 1 27 1 29-3 25"/>
<path d="M11650 23365l 4 26 4 25 1 29-1 29 1 24-1 27-3 26-2 27-1 26 1 25-1 31 0 24 0 24"/>
<path d="M11805 23376l 23-9 25-3 25-8 27-11 23-10 21-11"/>
<path d="M11877 23360l-13 21-4 26-3 26 3 27-2 25 6 24 26 2 23-8 26-8 27-5 25-6 27-2 29-1 26 7 23 12 10 22-6 27-12 22-17 19-19 18-24 16-23 8-24 5-28 2-26-2-23-5-21-16"/>
<path d="M10426 24378l-2 29 0 28-3 32-3 25-3 26-5 24-4 25-4 25-5 31-7 27-5 23-4 25"/>
<path d="M10584 24367l-3 24-5 26-4 24-6 26-9 26-6 25-7 26 1 26 21 13 24-1 24-6 25-10 22-10 27-12 28-14 24-15 20-13 19-15"/>
<path d="M10642 24392l-2 24 6 28 7 26 8 28 8 24 5 25 4 26 3 27 1 28 5 26 1 27 5 24"/>
<path d="M10421 23438l-5 27 3 25 4 28 3 28 4 26 2 27-1 27-2 26-4 30-4 24 5 25"/>
<path d="M10610 23431l 19-16 24-5 25-2 27 2 19 14-1 24-18 19-19 16-22 16-20 16-12 21 24 6 27-3 29 0 24 1 25 2 26 6 23 12 11 24-10 27-15 24-17 18-21 14-22 11-25 7-28 0-29-6-24-8"/>
<path d="M9032 26587l 6 24 5 30 4 25 5 26 3 28 1 30 1 31 0 31 1 29 1 28 1 24 4 27"/>
<path d="M9242 26615l 24-11 27-2 25-5 28 3 25 7 24 8 22 15 21 17 10 22-4 28-12 26-14 21-19 23-22 23-18 17-17 18-22 23-19 20-16 20-16 19 25 9 26-4 27-6 24-7 26-5 26-2 24-2 26-2 26 2"/>
<path d="M11754 24265l-2 28 3 26 1 30 0 30 1 29 1 28 1 26-1 27 3 26"/>
<path d="M11997 24203l-17 19-11 27-5 24-3 25 3 29 2 32 1 30 5 28 7 25 10 26 16 19 19 16 25 11 25-5 20-14 5-24-8-25-13-21-21-13-24 4"/>
<path d="M10424 25429l 4 25 4 25 3 30 3 25 4 25 3 28 2 25 3 31 1 28 0 26 0 27 1 26"/>
<path d="M10575 25452l 14-20 24-16 22-9 24-7 27-5 25 2 25 8 6 27-5 26-6 30-7 25-6 26-7 30-7 29-6 29-3 26-3 25 0 25 1 28 4 28 11 25"/>
<path d="M11668 25344l 5 27 1 25 2 26 3 30 3 31 1 30-1 29-1 31 0 29-2 25 0 28"/>
<path d="M11951 25337l-17-17-26-6-24 5-22 10-21 14-14 21-6 25 7 23 16 22 20 17 22 18 20 15 22 17 17 19 14 21 8 24-9 24-21 18-22 10-24 6-26 2-25-9-15-19-4-30 5-27 12-29 14-21 16-20 16-21 16-22 18-21 19-18 22-20"/>
<path d="M10372 26542l 11 25 6 29 5 29 5 25 3 25 3 24 3 24 5 24 4 24 8 29 8 25"/>
<path d="M10684 26543l-10-25-17-20-22-9-24 12-18 18-12 22-11 25-4 27 7 24 24 12 24-3 27-11 22-13 18-18 10-23 1 28 2 30 0 28 2 30 1 31 0 31 1 32 4 30 4 25 4 28"/>
<path d="M11665 26532l 25-7 28 2 28 4 24 11 8 25-10 27-16 24-16 19-18 17-21 19-21 17-18 18-13 21 14 21 27 9 27 2 32-5 26-7 31-11"/>
<path d="M12010 26588l-28 8-16 23 0 27 5 25 17 22 21 17 27 9 28 3 24-4 28-8 21-13 16-21-1-26-17-23-21-19-19-15-21-14-25-9-25-2-27 10"/>
<path d="M8054 27818l 24-8 28-6 24 0 25 3 25 8 13 24-8 25-14 27-12 22-16 22-18 21-16 21-16 18-20 21-17 18-19 19-18 16 16 22 28 5 25-1 29-2 32-7 26-8 28-11 30-13"/>
<path d="M8392 27847l-14 23-1 29 2 28 3 26 6 30 7 28 10 30"/>
<path d="M9061 27891l 23-11 25-3 25 2 27 6 22 11 20 17 13 22-6 24-14 23-18 22-19 21-23 24-21 20-22 20-18 16-22 19-18 19-3 25 24 7 28 2 28-1 25-5 27-6 30-10 31-11 33-14"/>
<path d="M9426 27898l-6 25 3 27 8 24 10 29 6 24 6 26 1 27 2 26 4 25"/>
<path d="M9286 27941l 12-22 18-18 24-12 26-3 28 3 23 10 22 15 13 22 1 24-7 27-11 27-12 22-19 27-16 20-17 25-16 19-17 18-18 18 23-11 26-12 30-9 29-3 24 7 27-1 24 6 24 10 23 11 19 15"/>
<path d="M10416 27840l 26 0 28-1 27 3 24 3 25 11 0 26-19 21-21 17-22 17-23 17-22 19-18 16-13 22-7 24 25 6 24 3 25 2 24-5 25 1 25-1"/>
<path d="M10710 27789l 27 0 27 0 25 7 21 12 5 23-13 22-22 15-20 16-18 17 13 21 28 3 25 1 28 0 25 5 22 13 11 22-8 27-13 21-16 20-22 19-20 13-26 10-28 3-28-5"/>
<path d="M11479 27814l 27 1 26 1 24 1 30 4 23 7 25 9 18 18-8 23-19 25-17 17-19 17-21 16-19 17-19 19-21 21-19 20-13 21 23 10 31-5 24-5 26-7 28-10 33-12 23-9 33-11 23-11 22-10"/>
<path d="M11924 27778l-25 3-15 20-8 23-12 23-10 23 0 26 21 14 27 4 26-1 27-2 27-6 28-8 28-11"/>
<path d="M12018 27846l-13 21-1 25 6 26 9 26 4 28 2 26"/>
<path d="M9042 26351l-25 5-24 9-23 11-19 15-19 21-16 23-11 22-13 26-11 26-10 30-11 29-9 29-6 30-4 29 0 28 1 28 3 28 6 29 8 29 12 29 13 29 17 30 18 30 19 29 18 28 22 27 25 27 27 22 28 19 29 16 28 12 30 9 31 7 30 4 31-1 31-4 31-6 32-7 31-11 28-13 28-15 27-16 25-17 22-15 26-18 24-20 20-17 22-22 16-26 16-25 16-22 12-25 9-22 6-24 3-27 0-26-3-28-4-27-8-26-11-27-12-27-12-25-13-24-17-26-19-24-20-19-24-21-20-17-25-16-23-9-23-10-25-10-25-7-24-7-31-9-26-6-26-4-28-5-29-4-31-4-29-2-29 0-25 3-24 6-29 6-25 7-25 9"/>
<path d="M10386 23264l-10-23-23-9-24 9-26 12-21 11-24 14-24 19-18 15-16 19-15 21-13 23-10 25-8 27-7 27-6 29-3 29-3 29 2 27 4 26 9 26 11 26 13 24 17 23 19 19 21 17 21 17 22 15 26 19 23 14 24 15 23 12 26 11 24 8 26 7 26 3 31 0 31-1 31-6 32-6 32-9 24-7 23-8 24-8 32-13 30-13 25-13 25-13 22-13 21-15 20-15 24-20 21-23 16-18 20-24 15-25 13-27 9-28 6-24 1-28-2-31-6-30-9-27-15-26-15-23-17-19-18-18-25-16-27-15-30-13-32-12-33-11-23-8-34-12-24-7-25-9-35-11-33-9-31-7-32-7-31-4-28-2-30 0-27 2-28 2-31 5-24 8-22 10-19 20"/>
<path d="M15338 25802l-25 4-20 13-20 15-20 17-19 21-16 25-16 27-9 23-6 23-4 24 2 29 7 27 11 22 21 16 25 9 31 0 28-6 23-10"/>
<path d="M15523 25565l 8 24 3 25 4 30 3 24 2 29 3 32-2 34-1 25-3 25-3 26-3 26-5 24-4 26-7 23-9 34-8 29-7 25-7 26 19-23 12-25 12-28 13-26 13-24 12-22 14-19 17-19 22-11 12 24 0 28-5 29-3 28 0 29 0 26 5 25 10 23 23 12"/>
<path d="M15784 25935l-20 17-12 22-7 25 5 25 17 18 25 5 26-5 23-9 24-12 20-19 13-24 3-26-11-23-17-18-24-15-26 3-20 14"/>
<path d="M16015 25924l-24 8-18 21-11 23-2 26 7 23 18 20 23 9 24 3 24-7 22-13 17-18 11-24-2-24-13-25-16-18-21-13-24 6 16 18 27-1 23-7 26-11 23-11 21-13 19-17 16-21 0-25-24-3-4 25 5 27 10 25 13 21 15 21 13 20 11 23-4 27-19 18-26 1-18-16 9-22"/>
<path d="M16310 25964l 24-2 26-2 24-2 25-9 23-15 17-18 12-21 2-25-21-13-25 2-25 16-19 22-13 22-10 26-5 24 9 26 20 17 22 11 25 5 31 1 28-3 25-4"/>
<path d="M17235 25811l-25 2-24 14-22 17-16 21-14 23 1 26 14 23 25 8 27 2 26-1 28-2 24-1 26 2 0 27-21 17-25 13-28 13-28 10-28 8-24 3-25-2-14-21"/>
<path d="M17484 25564l-14 22 0 26 0 28 3 25 5 25 6 29 2 28 1 28 0 31-3 31-4 31 1 28 2 26 12 21 26 2 23-11 23-15 25-16 22-16 17-19"/>
<path d="M17391 25781l 30-1 30-4 26-4 31-5 33-6 24-4 34-6 34-4"/>
<path d="M17685 25796l-13 21 2 27 4 28 2 25 1 25-2 25-3 25-14-20 0-25 7-30 8-28 13-24 15-21 20-16 24-4"/>
<path d="M17908 25827l-14 20 0 27-3 28 5 27"/>
<path d="M17921 25690l-21-13 5 24"/>
<path d="M18048 25833l-9 23-2 29 0 25 1 29 1 32 1 26 1 27 2 28-1 28 0 27-2 26-3 26-6 28-5 25 3-28 1-25-2-30-1-35-2-25-1-24-2-25-3-35-3-31-1-27-3-29-1-28 7-26 19-18 25-13 25-10 26-6 27 3 19 16 12 22-3 27-11 21-21 20-21 13-28 12-22 10-25 5"/>
<path d="M18356 25780l 20 15 26 5 25-3 24-9 15-20 4-24-15-22-23-5-24 7-22 16-21 18-14 22-11 27 0 27 10 23 17 19 20 15 24 12 24 5 27 2 28-2 26-5"/>
<path d="M14892 25880l 27-5"/>
<path d="M18712 25374l 21-16 24-4 28 3 22 9 23 13 21 22 12 21 12 26 3 26-5 27-10 24-13 29-15 24-15 25-16 23-14 24-14 22"/>
<path d="M18829 25849l"/>
<path d="M15629 26561l 8-23-15 21-13 25-15 32-10 22-12 24-11 25-11 25-10 28-10 25-9 26-7 24-7 25-4 25-6 35-3 32-1 30 2 25 4 28 0 28 6 27 10 22 11 23 7 23 12 26 16 19 19 19 18 19 22 10"/>
<path d="M15824 26698l-8 27-7 26-11 27-10 26-7 26-5 25 1 24 18 17 26 1 26-4 32-3 25-5 25-6 24-6 31-9 28-11 23-13"/>
<path d="M15954 26712l 2 27 2 26 4 28 4 30 3 24 2 24 6 24 13 27 11 21"/>
<path d="M16229 26781l 20-13 28-6 28-4 27-3"/>
<path d="M16264 26732l 10 23 10 24 7 26 3 29 7 27 5 25 14 22"/>
<path d="M16510 26638l 26-6 26-2 28-3 28-1 24-4 23-6"/>
<path d="M16553 26633l-16 18-10 22-7 24-7 27-2 29 6 23 9 25 23 8 27-7 22-8 24-11 24-10 29-6 27 2 24 9 19 19 15 22 4 25-4 25-10 25-17 25-20 18-24 14-24 11-24 7-27 1-28-5-24-8-17-20 9-24"/>
<path d="M16891 26738l 26-1 29-3 28-5 27-4 27-4"/>
<path d="M16952 26689l 5 27 6 27 4 24 3 27"/>
<path d="M17252 26591l-16 23-9 26-4 24-5 25-7 26-7 24 4 25 21 16 26 6 28 5 27 1 24 0 25-4 27-8 24-9"/>
<path d="M17317 26682l-7 23 5 27 7 27 6 30 3 29 3 26 5 24 6 27 8 24"/>
<path d="M17647 26725l 21-12 27-5 27-6 26 0"/>
<path d="M17621 26791l 25-8 25-2 28-6 24-6"/>
<path d="M17939 26629l-2 26 5 29 5 28 0 27 4 29 1 26-2 30 5 23"/>
<path d="M18030 26620l 23-13 29 3 24 5 25 7 22 9 7 24-18 21-25 17-21 13-22 11 19 16 25-2 27 3 26 6 24 8 18 18-2 27-18 22-21 19-21 12-25 10-25 6-28-2-21-14"/>
<path d="M18267 26477l 12 22 14 25 13 22 17 25 15 26 15 25 13 24 12 26 4 25 6 25 7 28-1 28-7 28-15 27-19 22-20 25-24 26-22 25"/>
<path d="M6372 26864l 14-21 19-16 24-18 23-17 22-16 24-17 25-19 19-17 22-17 25-21 25-22 18-16 19-16 20-17 20-20 20-20 22-21 23-21 23-22 25-21 24-23 24-22 24-23 24-24 25-23 24-24 27-22 25-24 26-23 27-24 27-24 28-26 28-26 29-29 29-29 31-31 31-31 32-30 32-30 30-30 30-29 29-29 28-29 29-28 28-26 27-26 26-27 28-26 27-25 27-25 29-27 27-26 28-27 28-28 28-26 27-25 27-25 25-24 26-24 25-24 25-25 25-24 25-24 24-23 24-24 24-23 24-23 23-23 24-22 24-22 23-23 23-22 25-24 24-22 23-23 24-24 23-22 23-22 23-23 23-24 23-25 23-23 24-24 23-25 23-24 22-24 23-25 23-24 23-24 23-24 21-23 21-23 22-25 23-24 22-25 22-25 22-22 21-22 21-22 20-21 22-22 21-21 21-22 21-22 21-21 22-23 23-22 23-24 23-23 24-25 24-25 24-25 26-26 27-28 28-29 28-30 28-29 28-30 28-28 28-30 30-30 29-30 29-30 31-30 28-30 30-30 29-30 28-30 29-31 31-32 31-32 30-33 30-33 31-34 30-34 30-34 30-35 31-36 31-36 16-19 31-36 16-18 15-19 15-19 15-19 16-19 14-20 16-19 15-20 16-20 16-20 17-21 17-19 16-19 18-20 17-20 17-18 18-20 17-20 18-19 16-19 18-19 17-19 17-19 17-18 17-17 17-18 16-18 17-17 33-33 31-32 30-31 29-29 28-29 25-26 25-24 24-23 24-21 22-19 20-18 18-17 26-23 22-21 22-20"/>
<path d="M7713 29098l 22-13 22-17 20-18 21-17 22-20 19-20 19-21 21-19 21-24 16-19 20-20 20-22 22-25 22-27 16-19 24-27 16-19 15-20 18-19 16-21 17-21 17-20 17-21 17-20 18-21 19-21 18-20 17-21 17-21 16-21 16-21 16-20 16-21 16-19 15-18 16-19 24-28 17-20 16-21 18-22 16-22 19-23 17-23 20-22 19-24 20-25 20-25 20-25 21-26 22-25 22-25 23-27 23-26 23-23 23-25 22-24 22-22 23-23 21-23 23-22 23-24 23-23 25-22 24-24 24-24 24-24 24-27 24-25 24-25 25-26 25-24 25-24 25-25 26-23 25-23 22-23 22-22 21-23 21-22 20-20 20-20 20-19 19-20 20-21 20-22 18-22 19-21 20-22 20-22 20-23 19-24 20-25 20-25 20-25 21-25 21-25 22-25 21-25 20-25 20-23 18-25 18-23 18-22 17-22 16-20 17-21 16-19 17-19 17-18 23-27 15-18 23-25 16-18 16-19 16-18 17-22 17-19 17-18 18-19 17-18 18-19 19-19 18-20 19-21 19-19 21-21 19-20 22-21 22-22 22-22 26-20 24-22 24-22 25-23 25-22 25-24 25-25 26-26 24-26 27-25 27-25 27-26 28-26 30-25 30-26 32-26 31-25 31-27 31-27 32-28 31-26 32-27 32-28 30-26 31-27 30-26 29-27 29-25 29-24 28-23 28-23 27-24 27-22 25-23 23-24 27-22 25-22 27-23 27-22 27-23 26-22 26-23 27-23 25-23 28-23 26-25 30-25 27-25 28-24 26-24 25-22 25-22 25-22 25-22 25-22 25-22 25-21 26-22 27-25 25-24 26-23 24-24 25-23 26-23 25-24 25-25 27-23 25-24 25-23 24-22 23-21 22-21 21-19 25-20 21-19 21-18 22-18 17-19 19-18 19-16 25-25 26-23 24-22 20-21 20-19 18-18 19-18 19-16 23-21 20-17 18-16 19-19 17-18 15-19 17-18"/>
<path d="M4659 30218l"/>
<path d="M4922 30441l 19-17 20-22 16-19 18-22 19-27 22-27 20-28 16-25 11-26 4-25-18 18-4 27 0 29 3 31 4 26 3 29 3 32 2 34 0 35-1 25-2 26-4 27-3 25-3 25-6 25-7 25-7 23-11 33-14 31-14 26-14 20-20 19-26-4-12-25-3-26 0-31 3-35 4-24 6-26 8-26 9-26 11-26 11-26 12-26 14-25 13-23 15-22 14-23"/>
<path d="M5198 30308l-8 24 1 25 14 21 26-6 19-19 17-25 15-25 13-23 10-23-9 23 7 24 21 12 28 3 23-5 23-11 22-15 20-18 16-21 12-25 5-24-3 26 14 23 15 23 15 21 13 23-16 19-27 4-24-1 24-12 21-15 22-13 22-13"/>
<path d="M5710 29904l-8 27-1 29-3 27-3 30-5 32-7 33-6 33-9 34-10 31-8 31-6 25-5 29 3 25 26 2 24-12 20-15"/>
<path d="M5588 30093l 26-2 26-5 25-6 29-7 30-10 31-11"/>
<path d="M5130 29945l"/>
<path d="M6454 30191l 23-8 23-9 26-10 29-14 22-12 23-12 22-11 24-16 19-16-5-26-24-8-25 1-27 9-25 17-19 17-20 20-19 23-18 22-15 22-11 25-3 25 15 19 22 11 27 1 25-3 29-7 31-11 23-10 23-11 28-14 23-16 20-17 17-18 10-22-17 19-5 25-4 25-8 24 20-18 17-24 15-21 15-19 19-22 21-19 24 1 3 25-1 24-5 25-4 27 28 4 25-15 19-16 21-16"/>
<path d="M6993 30089l-17 17-11 22-7 24-5 23 2 25 27 6 22-12 22-20 19-24 15-23 14-26 11-24-17 18-5 26-5 26-1 25 8 24 25 8 25-10 21-15 22-18 22-21 47-78-20 17-5 24 0 25-5 26-6 24-7 23 23-13 19-20 20-25 20-25 17-21 20-19 17-18 15 22-3 25-5 27-8 25-6 24 25-18 24-22 20-21 20-22 21-22 18-21 20-22 18-18 17 19-6 29-7 25-7 26-5 28-1 26 14 20 27 2"/>
<path d="M7574 30078l 30-2 28-5 28-7 25-7 22-12 17-17-11-23-27-8-25 5-23 9-23 13-19 18-15 20-12 23-6 26 7 26 18 17 29 10 32 0 30-6 29-7 30-11 28-13 25-13"/>
<path d="M7845 30065l 6-27-1-27 25 6-3 25-22 15-21 16-20 19-16 18-13 23-2 25 28 5 32-6 27-6 29-10 31-9"/>
<path d="M8127 30044l-26-7-27-4-26 2-23 14-21 20-18 17-11 24 0 26 17 17 24 2 25-5 24-9 21-14 18-17 10-22-13 21 21 17 27-3 26-9 22-12 25-16 23-19 23-22 21-23 18-23 15-25 9-26 8-30 5-33 3-24 3-25 7-33 3-26 0-25-22 20-14 28-9 25-8 29-8 30-8 32-6 32-7 30-6 31-6 30-6 28-5 25-3 25 6 25 20 14 28-4 26-12 21-13 19-15"/>
<path d="M8315 29935l-27-1-25 3 25 0 25-4 27-3 31-5 34-3 34-1"/>
<path d="M8484 29996l-25 9 29 1 24-6 27-9 25-9 23-13-14-21-26-12-25 0-24 9-23 15-20 16-17 23-8 29 2 26 10 23 19 19 26 14 26 7 25 1 29-2 30-4 29-7"/>
<path d="M8742 29797l 27 5 25 9 23 13 21 17 10 24-5 26-12 24-16 27-15 20-16 21-18 26-11 29"/>
<path d="M8752 30180l 25-5"/>
<path d="M5940 31311l"/>
<path d="M6352 31508l 9-25 6-26 5-23 3-26-6-26-22-13-26 6-27 19-24 19-25 23-16 17-17 19-16 21-14 20-19 28-12 26-10 23-5 25 14 21 25 4 25-12 22-13 22-16 21-17 19-16 20-20 16-18-1 24 3 26 10 25 18 19 29 5"/>
<path d="M6520 31614l-13 23-12 24-11 23-6 24-7 26-3 24 16 19"/>
<path d="M6520 31533l-21-11"/>
<path d="M6905 31245l 24 11 21 15 24 10 26 6 26 6 27 7 26 3 26 1 1 24-18 17-22 16-23 17-23 13-23 10-24 11-22 11-22 13-19 15"/>
<path d="M7606 31447l 17-22 15-21 10-24 9-23 3-25-7-26-16-20-26-9-25 3-26 10-26 16-20 17-22 19-19 23-19 24-18 24-11 22-7 28 1 25 14 22 23 11 29 0 27-9 21-13 18-16 20-22 15-23 8-25 6-24-8 25-3 25 7 25 11 25 12 21"/>
<path d="M7760 31614l-15 22-8 25-9 27-4 27-2 25 23 13 22-12"/>
<path d="M7811 31500l-24-2"/>
<path d="M7905 31643l 27-2 24 4 28 3"/>
<path d="M8142 31615l-5 27-1 24-3 28 1 26 0 24"/>
<path d="M8644 31727l-22 19-19 26-16 25-16 25-17 28"/>
<path d="M9255 31489l-3-26-11-22-22-12-26 2-24 12-21 14-19 19-16 19-14 21-14 25-13 27-11 22 8 25 22 15 25 0 28-7 29-13 22-11 27-17 22-18 14-21-8 23 0 28 2 24 14 22 19 19"/>
<path d="M9401 31664l-12 21-5 25-3 27 2 25"/>
<path d="M9450 31544l"/>
<path d="M9778 31377l 23 9 28 5 27 4 27 5 25 9-10 24-22 11-25 13-23 13-22 13-19 16-17 18-9 22"/>
<path d="M10361 31445l 13-23 9-22 5-26-5-26-11-24-26-5-27 4-27 11-21 11-23 16-23 19-21 20-20 23-18 26-15 28-12 28-6 24 0 27 12 25 22 19 27 8 32-1 30-6 26-13 24-15 21-20 18-27 11-27 10-24 9-23 8-25-20 17-10 24-7 28-2 27-2 24 3 25 8 23"/>
<path d="M10485 31641l-21 16-13 23-6 23-5 27-3 25 5 24"/>
<path d="M10496 31542l"/>
<path d="M10552 31700l 23-6 25-3 25-5"/>
<path d="M10722 31617l 24-8 24-1 25-3 25-6 25-9"/>
<path d="M10775 31593l-20 15-14 21-11 25-8 25-3 25 7 25 25 3 27-6 24-7 28-3 26-3 24 0 27 3 22 13-2 25-18 22-20 17-23 14-23 9-26 5-24-8-23-9-17-19"/>
<path d="M6019 32240l-24-8-21 20-16 20-19 25-20 29-14 21-14 23-14 23-15 25-13 26-14 28-11 28-12 28-9 28-7 26-6 25-4 25-3 31 1 26 6 24 10 25 15 23 18 21 22 15 26 10"/>
<path d="M6005 32649l 6-27 13-21 16-19 20-14 4 24-10 27-9 28-10 29-7 25-5 24 20 15 26-15 17-18 20-24 19-22 16-20 16-23 10-24-24 10-11 24-6 23 2 25 14 21 26-2 20-15 20-18 17-23 13-23 9-24-12 22-7 24-6 25 27-7 18-24 16-24 14-20 14-20 7 26-4 28-4 27-1 26"/>
<path d="M6383 32653l 7 24 26-4 23-10 22-16 23-22 19-21 16-21 15-22 12-25 10-26 10-30 6-33 5-34 3-35 1-32 0-26-2-27-19-15-18 21-14 22-15 28-14 31-8 23-8 24-6 25-5 26-5 27-4 27-2 24 0 35 4 31 6 26 13 26 19 20 22 10 25 0 22-11 22-17 20-15"/>
<path d="M6648 32596l 24 8 22-13 20-18 10-23-18-18-25 3-21 16-20 20-18 23-10 22-2 25 18 19 27 6 25 2 25-6 27-13 26-16 22-17 17-18 15-23 6-27-6-23-25 4-11 24-2 24 9 24 10 23-9 23-21 13-20 14 23 11 24-10 23-15 21-13 24-15 19-16 19-19 11-22-7-24-24-3-4 25 10 23 14 20 19 21 13 20-13 22-25 4-25-3 28-4 27-6 24-4 25-3"/>
<path d="M7268 32588l-14 20-13 23-9 25-3 25 3 25 22 13"/>
<path d="M7269 32460l"/>
<path d="M7460 32448l 21-15 26 1"/>
<path d="M7430 32525l 24-9 24-5 26 1"/>
<path d="M7452 32574l 24-3 26-3 25-2"/>
<path d="M7792 32395l-24-2-22 13-17 22-15 25-11 22-8 23-6 23-4 29 5 28 10 22 19 18 21 13 25 7 28-3 25-7 25-13 26-17 20-17 19-20 14-22 10-30 3-25-2-29-6-27-11-22-18-20-26-11-28-4-25 1-26 8"/>
<path d="M8173 32330l-20-14-25 11-21 16-17 17 3 24 6 24 1 28-2 30-1 25 1 28 0 27 1 26-2 26-2 26 1 24 2 24 2 25 15 19 28-3 28-6 29-2 28-4 25 0"/>
<path d="M8279 32450l 25-8 25-4 24 0 27-4"/>
<path d="M8312 32443l-20 13-18 20-10 23-4 26 4 24 25 11 25-2 23-9 24-8 24-6 25-6 25 1 22 13 10 22-12 21-17 18-21 15-25 10-26 7-27 2-25-4"/>
<path d="M8463 32317l 24-11 24-5 25 2 24 1 16 20 3 26 2 27 2 26 0 30 0 28 2 25 3 26 2 28 0 25 1 28 2 28 0 27 0 24 1 25-21 17-29-1-28 3-25 2-24 0"/>
<path d="M8596 32123l 25 6 20 14 19 15 19 20 18 23 16 30 16 31 9 22 13 31 12 31 9 28 10 28 11 29 11 27 6 26 9 28 10 28 2 30-4 29-10 31-14 27-18 27-22 27-16 19-15 20-16 19-16 20-21 26-21 23-18 20-22 18"/>
<path d="M9503 32201l-23 7-20 16-21 22-21 22-21 26-14 22-16 24-15 26-14 27-15 30-14 31-13 33-13 32-11 31-9 29-7 26-4 24-1 29 3 30 7 24 12 28 15 25 17 21 19 19 21 18 21 15 21 15 22 14"/>
<path d="M9629 32553l-13 21-10 22-10 27-6 25 20 15 25-10 26-17 26-18 19-14 21-16 19-15 6 23 6 24 16 21 27 1 24-9 19-17 19-21 14-24 2-24-15 19-12 23-9 24-7 24 28-4 19-19 20-21 15-19 16-19 2 25-3 27 0 24 11 22 27 2"/>
<path d="M10062 32585l 26-3 28-6 26-9 27-12 23-11 21-14 19-17 22-23 13-25 5-25-2-26-4-26-6-26-11-22-23 7-19 22-13 22-12 27-10 23-8 26-7 26-6 26-4 26-2 32 4 25 9 24 18 18 26 2 27-3"/>
<path d="M10311 32581l 28-2 24-7 21-11 21-13 14-22-12-21-26-1-25 10-19 16-14 24-8 22 4 25 23 15 27 3 25-2 27-6 27-8 28-11 28-15 23-19 17-17 15-24-17-18-20 18-1 26 9 25 14 21 18 22 19 15-25 6-25-1 24-11 26-12 25-12 22-14 20-14 21-19 13-21 5-24-17-19 2 24 11 23 10 23 9 24 1 25-16 18-25 1 20-18 24-3 31-2 25-1 27 2"/>
<path d="M11216 32469l-15 20-12 22-6 25-3 26 7 24 18 21 26 7"/>
<path d="M11268 32346l-23-8"/>
<path d="M11554 32345l-25 2-22 17-24 14-26 11-21 14 2 25 23 8 24 6 24 7 25 6"/>
<path d="M11735 32289l 27-8 28-5 30-3 26-2 28 1"/>
<path d="M11777 32289l-21 17-16 21-12 22-6 26 3 25 11 22 25-3 27-3 29-5 24-4 28 0 27 7 26 6 19 17 6 25-9 22-13 22-20 17-27 15-24 11-28 8-24 4-31 4-27-2-26-7"/>
<path d="M12099 32105l 21 21 21 18 23 22 18 18 22 20 16 21 16 22 12 23 12 22 9 30 6 29 7 29 1 29-2 27-8 31-10 27-13 25-18 27-21 24-23 24-22 21-19 19-19 16-21 15-24 12"/>
<path d="M5407 39164l 27 2 26 3 24 2 24 4 29 2 24 1 26 2 27 1 28 0 30 0 30 2 32 2 33 2 32 3 35 1 35 2 36 2 25 2 35 2 36 0 24 0 35 1 32 3 31 0 29-7 27 1 26 2 30 3 28-2 24 1"/>
<path d="M9099 39209l-9 27-2 25 5 26 23 9 20-13 5-25-10-23-24 0-8 24 16 18 20-16 8-24-14-20-23 6"/>
<path d="M9179 38509l-25-4-14 20 21-11-5-25-26-3-19 15 3 25"/>
<path d="M9968 38442l-18 17 25 5 17-18-15-20-25 2-3 25 17 17 21-13"/>
<path d="M9075 37668l 12-21-15-20-20 15"/>
<path d="M10027 37641l 16-19-10-22-24 8-9 22"/>
<path d="M9094 36906l 7-23 23-10-1-25-18 17"/>
<path d="M9944 36797l 15 19 5-24-4 24"/>
<path d="M10708 36775l 24 5 13-22-23 9 22 11"/>
<path d="M9041 35903l-23 11-2 24 25-4 17-21 5-24-20 12-4 25"/>
<path d="M9993 35929l 8-23-23 9 1 27"/>
<path d="M10777 35920l 25 5 17-19-2-24-24 2-13 21"/>
<path d="M11691 35854l 1 24 26-2 22-11 0-25-24 1-1 25"/>
<path d="M12487 35817l-14-20-19 15 6 24 24 4 25-7 23-11 15-19-18-19-25-7-23 9-16 19-8 24 11 22"/>
<path d="M11557 36601l 20 14 25 10 24 14 23 14 25 17 22 15 22 17 20 17 20 15 22 9"/>
<path d="M11713 36585l-20 16-14 23-14 25-16 28-14 22-11 23-12 21-16 27-14 26-8 25"/>
<path d="M10660 37566l 20 14 19 16 19 15 23 17 22 14 24 10 24 11 24 7"/>
<path d="M10798 37577l-22 10-17 22-14 25-10 22-13 26-10 21-12 26-13 25"/>
<path d="M9839 39140l 26 10 20 14 19 15 21 19 22 16 18 20 20 15"/>
<path d="M9965 39124l-11 21-10 26-15 26-12 23-14 21-18 24-12 21"/>
<path d="M15338 31007l-25-2-19 20-14 21-14 30-9 23-9 26-10 27-8 28-7 29-5 29-4 30-2 29-1 30 1 31 3 29 4 27 7 25 14 28 17 22 21 15 22 10 25 7 28 2 30-1 28-4 28-7 25-9 26-13 24-18 16-23 0-27-13-26-23-21-23-11-30-9-29-2-24 1-26 5-25 7-22 9-29 12-23 13-18 19"/>
<path d="M15605 30858l 23-13 24-5"/>
<path d="M15634 30838l-20 17-16 20-7 24-2 25 6 24 21 13 25 2 27-5 24-6 24-6 24 0 23 10-2 24-15 23-17 18-26 14-25 7-27 4-24-5"/>
<path d="M16316 31277l 15-23 13-22-14-22-27 3-23 9-27 13-27 15-22 13-22 16-13 21 21 18 29 6 26 2 25 2 24 1 25 4 26 5 16 20-5 24-17 20-19 17-19 16-25 16-24 11-24 4-27-7-19-21-2-26"/>
<path d="M16527 30941l 13 24 9 23 5 26 3 26-3 33-5 34-4 24-4 24-6 25-6 26-5 24-5 33-3 29-2 25-2 27 10 23 14 20 24 11 26-2 30-9 25-11 26-15 30-16"/>
<path d="M16449 31198l 11-21 32-9 30-6 34-5 35-4 25-3 27-1 27-2 28-1"/>
<path d="M16864 31185l-24-5-27-2-27 2-25 1-27 6-23 15-18 17-9 25 2 25 23 11 28 0 23-5 28-11 23-12 20-15-6 23 6 23 22 12 27-3 28-13 20-14 21-16 22-20 20-22 19-24 13-25 9-27 4-30 1-31-4-33-5-32-6-24-9-32-9-29-13-27-17-18-18 16-4 27 1 25 4 28 3 25 3 28 3 29-1 33 2 31 3 31 4 29 1 25 3 30 6 26 7 26 14 24 26 6 23-6 29-15 22-14 20-16"/>
<path d="M16920 31137l-24 6 29 4 25-5 28-4 31-5 33-6 33-4 33-3 30-1 27 1 25 1 36 34-21 13 23 11 28-6 25-7 21-12 8-24-23-13-29 0-25 7-21 15-16 17-13 20-3 27 15 23 20 16 28 9 27 3 29-3 25-3 26-3 24-7 28-12 19-16 16-20 2-26-7-23-2 26 12 24 18 20 17 20 16 20 12 22-7 25-23 13-29 7-29 3-24 0-26-3-24-8 25-2 24-1 26-2 31-1 26 0 27-1 28-2 28 0"/>
<path d="M18163 31200l-25-4-20 15-4 26 10 23 24 10 24 1 24-8 13-21-10-22-17-20-22-10 22 11 28-1 26-6 23-11 25-14 21-15 20-18 21-21 18-23 18-23 11-22 11-29 6-30 2-24 2-25-3-32-1-28-2-25-26 1-15 22-13 31-11 32-7 26-8 30-6 31-8 36-6 37-6 37-5 37-3 34-1 32 3 30 3 28 5 27 7 24 10 22 12 30 16 24 18 25 20 20 24-15 4-27-1-25-5-28-9-29-9-23-11-22-14-25-19-22-19-17 21-21 24-7 29-7 25-7 25-6"/>
<path d="M18944 30836l 8-24 15-20 18-17 25-6 19 16 15 24 9 26 10 28 5 24 5 24 7 24 7 24 15 25 22 12 27-2"/>
<path d="M19274 30689l-20 18-15 25-12 28-12 25-8 32-6 23-4 26-8 27-9 27-10 29-9 30-10 30-10 29-10 30-8 27-8 26-5 32-3 25 3 25"/>
<path d="M19356 31083l-23 9-17 20 1 26 12 25 20 18 27 6 26-5 21-13 16-23-3-24-11-22-18-17 23-6 24-6 24 1 8 25 1 24 0 26 21 12 21-18 14-22 8-25 6-24-6 26 3 25 10 24 21 14 24-6 20-18 15-20 26 2 26-8 23-11 23-8 16 18 2 24 13 21 22 12 25 0 24-6 22-9 23-14 18-17 14-23-1-27-11-24-23-10-23 12-16 22-10 23 6 25 17 18 24 9 21 12 15 22 11 26 10 24 7 28 6 24 3 27 3 29-2 28-7 29-9 31-11 24-13 23-18 21-21 20-22 11-26-9-15-23-5-29 2-26 5-30 8-31 6-23 9-24 9-27 12-29 11-28 12-25 13-25 17-29 16-24 17-25"/>
<path d="M20601 30644l-2-25-11 25-4 29-7 26-6 31-4 26-6 27-5 30-7 31-10 33-8 34-5 31-4 28-1 31 2 27 11 27 13 21 24 14 24 2 31-8 24-12"/>
<path d="M20373 30865l 30-6 25-5 31-6 34-8 25-4 25-4 28-3 26-3 26 0"/>
<path d="M20738 30906l-21 14-21 17-16 19 22 13 24-7 21-14 15-19-8 24 11 22 25 6 26-2 27-6 28-10 24-12 24-15 25-18 23-17 20-18 18-21 12-21 10-29 6-31 2-25-1-26-2-25-5-25-5-28-8-24-24 16-15 22-11 22-11 26-10 30-6 23-7 36-4 25-3 26-2 25-3 25-1 35 2 31 5 27 8 25 8 23 12 25 16 24 22 11 26-6 15-23 7-28-1-28-10-29-11-24-14-20-22-15-22 8 17 20 27-9 22-10 28-15 20-15 21-17"/>
<path d="M21177 30656l-22-10-17 21-10 28-6 28-5 30-3 26-4 28-1 28 1 25 1 25 2 31 3 26 6 29 8 23 17 19 23 9 26-2 25-7 24-9 21-12 24-10 23-7 25-10 22-12 12-21-9-23-25-11-25 3-22 12-19 19-10 24 1 26 21 17 24 10 29 4 24-1 27-1"/>
<path d="M21510 30960l-14-20-24-8-27 10-21 12-15 20 10 22 27 3 24-3 22-11 16 19 22 11 25 0 25-7 19-16 3 24 26-1 26-10 23-12 12-21-21 12 6 24 10 25 17 21 18 17 27 6"/>
<path d="M21826 30756l 24-1 22 16 16 21 8 25-5 27-9 26-11 24-9 23-10 25"/>
<path d="M21831 31074l 17 18"/>
<path d="M15249 32123l-14 20-3 30 0 25 5 26 3 29 3 28 4 28 6 25 8 23 11 24 16 18 26 5 24-8 26-19 20-19 15-21 16-25 10-26-3-25-11 25-1 24 3 29 8 23 10 23 11 21 21 24 25 16 28 6 32-3 22-9 20-17 16-22 13-25 9-30 3-30 0-31-3-31-6-30-9-31-9-31-12-31-7-31-12-29-9-25-11-22"/>
<path d="M15703 31949l-8 23 3 28 9 30 5 29 5 32 6 33 4 35 2 24 2 24 1 25 1 25-2 25-3 35-1 32-2 26-5 24 15-28 11-24 12-24 15-21 17-24 16-22 21-15 13 22 3 24 0 25 11 22 27-9 23-16 19-19 13-24 8-23-15 22-3 24 10 24 25 0 26-9 24-13 18-18 16-20 4-24-15 21-4 26 2 28 9 28 5 25 8 28 6 24 7 25 6 28 3 29 2 33-1 35-1 24-4 24-3 24-5 25-7 23-11 33-13 30-13 24-19 21-25 8-25-13-16-27-10-27-7-29-4-30-3-30-3-30 3-31 7-31 11-33 8-23 10-24 8-24 12-24 13-24 12-23 13-22 13-21 21-26 21-22"/>
<path d="M16621 32216l 23 11 21-14 21-15 27-20 19-17 19-17 18-20 19-22 19-22 19-24 22-23 17-22 14-21 13-22 12-31 9-29 5-27 3-25 2-25-23 10-11 23-10 29-11 34-6 23-11 35-6 24-7 26-5 26-4 24-7 33-1 28 1 29 10 26 22 12 27-9 20-15 24-21 16-18 17-20 16-20 15-23 14-22 13-24 13-23 9-24 9-35 6-34 5-34 3-29 2-25 3-26-16 24-10 31-5 30-5 32-8 34-5 25-6 25-7 28-5 28-8 28-6 26-7 24-11 32-5 27-2 25 1 25 22-14 19-23 16-22 16-24 14-23 16-23 15-19 18-19 18-18 20 13 3 25 1 24 0 24 3 26 24 11 28-7 28-12 62-97-23 6-11 24-7 25-6 26-6 28 2 27 17 18 26-7"/>
<path d="M17276 31979l"/>
<path d="M17435 32026l-24 5-21 15-19 18-17 22-5 25 25 10 25 3 24 2 26 5 20 16-6 24-25 17-23 11-28 10-25 5"/>
<path d="M16635 32045l 24-8 26-3 26-4 30-4 32-6 26-5 29-5 32-5 33-5 35-6 36-4"/>
<path d="M17950 32129l-17 17 23-7 27-17 25-19 29-22 20-16 19-17 24-24 20-21 17-19 14-21 9-27-23 9-12 23-8 28-11 29-11 29-6 26 5 25 25-2 22-12 20-14 19-17 16-19 19-21 18-22 17-21 20 14-5 25-2 24 24-15 19-19 20-16 22-16 12 23-12 21 16 19 25-13 20-13 20-16 22-12 3 24 15 20 24 1"/>
<path d="M18568 31958l-20 15-7 27-4 31-2 25-3 28-1 31-5 32-4 34-6 34-6 34-7 33-7 30-8 24-8 23 7-29"/>
<path d="M18550 31955l 2-26 16-19 26 2 26 4 25 6 25 10 5 25-17 20-23 17-27 16-26 15-23 12-22 12"/>
<path d="M18797 31940l-17 18-14 21-13 23 2 26 21 13 26-2 23-13 15-20 3-25-16-20-24-6 21 14 28-2 25-10 20-16 21-15 25-3 25 0 15 19-16 19-17 17-20 17-9 23 18 17 29-2 25-5 26-9"/>
<path d="M19200 31721l-19 18-11 22-6 27-5 28-4 27-9 29-10 22-7 24-7 23-5 28-2 28 7 26 21 17 29-2 26-9 28-15"/>
<path d="M19099 31874l-23 5 25 0 31-4 27-3 26-2 28 0 28 0 26 2 25 4 24 3 26 7"/>
<path d="M19374 31900l-27 0-25 0-27 6-22 11-21 14-20 19-3 24 25 10 25-1 24-6 24-13 20 15 28 3 28-9 23-9 21-12 21-17-18 17 10 22 22-10 23-13 16-18 18-17 7 24-5 25 10 22 29 2 24-3"/>
<path d="M19727 31700l-17 20-4 28-1 27-1 27-6 30-7 29-7 29-3 26 1 28 9 23 19 16 28-2 26-8 27-12"/>
<path d="M19612 31814l 30-5 30-9 24-6 28-8 27-7 29-6 30-5"/>
<path d="M19898 31732l-3 27 11 22 0 27-6 24-9 23-5 25"/>
<path d="M19911 31967l 14 20"/>
<path d="M18259 31736l"/>
</svg>
