<svg xmlns="http://www.w3.org/2000/svg" viewBox="2671 1605 8966 4774" stroke="black" stroke-width="16" stroke-linecap="round" stroke-linejoin="round" fill="none" data-xena="0 0 0"><style>@media(prefers-color-scheme:dark){svg{background-color:black;stroke:white;}}</style>
<path d="M2774 2365l 27 5 28-7 27-12 23-16 18-15 20-20 23-22 24-25 25-28 24-30 25-31 22-32 20-33 19-32 17-33 14-32 12-30 9-31 6-30 4-28 2-28 0-25 0-35-2-27-7-25-20 19-11 24-14 34-9 27-9 31-9 33-8 36-8 36-11 37-9 37-9 37-9 37-9 33-7 32-6 29-6 26-5 25-4 31-5 29 3 25 24-21 15-26 12-23 14-25 15-27 16-25 15-23 15-20 20-26 20-19 23-18 22-14 12 24-3 31-6 27-7 31-8 31-7 29-5 25-7 28 0 25 22 11"/>
<path d="M3364 2175l-24 12-18 20-13 25-6 26 6 27 17 17 26 3 22-15 14-23 9-25-4-25-15-20 16-18 24-12 26-12 24-9 18 16-5 27-9 23-12 25-10 23 26-1 18-17 19-20 19-17 13 22 8 25 13 25 19 21 27 10 28-2 27-10 20-16 18-21 16-23 12-25 7-28-2-24-10-29-13-23-20-15-25-4"/>
<path d="M4154 2162l 19-16 10 24-9 26-9 27-11 28-11 25-14 24-15 19 19-24 16-24 21-27 21-28 20-26 20-23 19-18 21-17 22-12 7 24-9 26-10 24-10 22-9 22 25-2 16-18 15-20 16-19 14-20 18-22 16-20 9 25-2 28-1 27 0 26 11 23 23 11"/>
<path d="M4591 2138l-14-20-25-6-22 11-20 20-19 22-10 22 7 25 27 2 24-6 22-13 19-16-23 12 3 24 22 10 27-11 24-15 20-18 15-21-11 23-4 25 21 13 25-18 18-17 19-17 19-18 16-22-16 23-10 25-9 23 14 21 25-7 27-15 22-19 21-21 19-23 16-20 16-20 9-22-18 17-11 23-5 25 24 7 22-16 16-22 12-20 10-24-2 24 1 25-3 27-2 26 0 24-2 25-2 28-4 25-7 25-7 25-9 22-8 24-10 27-11 24-10 27-9 24-13 26-15 26-15 25-15 28-16 25-16 21-19 19-23 9-12-21 1-29 9-35 8-27 10-26 10-27 12-26 13-27 13-25 13-24 13-23 19-30 18-26 18-27 19-24 19-19 21-20 19-16 22-20"/>
<path d="M5749 2190l 2-25-1-24-15-20-25-9-27 8-26 15-19 16-16 17-18 24-10 24-3 26 15 21 27 8 25-2 25-7 22-12 17-17 1 29 1 28-2 31 0 27-3 28-5 28-6 30-7 29-8 27-11 26-10 27-12 26-14 24-15 20-18 17-19 17-21 10-27-6-17-22-2-33 6-36 7-29 11-31 12-33"/>
<path d="M5861 2132l-6 24 0 26-4 26-9 22 8-25 12-22 16-25 17-25 18-22 21-21 16-17 22-12"/>
<path d="M6092 2108l-15 24-9 24-6 25 0 24"/>
<path d="M6132 1960l-8 23 12 25"/>
<path d="M6294 2077l-20-14-25-5-25 11-21 13-20 19-18 24-16 22-10 25 7 24 22 12 25-6 24-16 19-20 21-21 17-22 15-26 12-29 10-32 9-33 6-35 3-24 4-25 3-25 3-34 3-28 2-28-22 22-8 23-8 27-7 28-6 31-5 33-5 33-3 33-1 29 0 28 4 29 12 27 22 14 31-3"/>
<path d="M6501 2018l-25-5-23 13-21 18-18 19-6 23 21 15 25 6 27 3 24 5 25 6 16 19-15 24-17 18-24 17-28 14-22 9-28 9-24 7-24 0"/>
<path d="M7051 1856l 20-17 22-13 19 16-1 24-4 29-6 23-11 29-17 30-13 22-14 24-13 25-15 26-14 24-12 22-12 28-6 25 1 28 17 21 29 1 25-9 31-16"/>
<path d="M7020 1981l-25 9 9 25 29 2 25 0 26 0 28-3 25-2 25-2 27 0 24 7-7 25-16 19-18 22-16 18-13 22-2 25 23 14 29-6 26-14 20-14 13-22 4-24-9-25-11-27 5-26"/>
<path d="M7447 1854l 9 26-3 26-6 29-7 24-7 25-10 28-15 27-11 21-16 25-14 22-11 21-9 23 27 6"/>
<path d="M7397 2001l 26-5 24-3"/>
<path d="M7630 2018l-26-1-26 6-28 9-24 12-18 19-13 22 18 17 26 3 26-6 20-15 1 24 13 23 26 7 27-5 26-10 28-16 22-16 21-16 18-20 21-22 22-23 19-28 15-31 10-23 10-23 8-26 9-26 7-26 5-25 7-32 0-26-4-25-23-11-22 12-17 17-18 24-14 24-14 29-15 34-11 25-10 26-9 29-8 26-7 25-5 25-3 25 0 34 2 30 6 28 8 23 11 27 17 21 23 17 29 9 25 1"/>
<path d="M8113 1825l 14-20 29-5 26 1 28 9 22 10 11 25 0 25-11 25-13 21-16 20-17 22-16 21-18 24"/>
<path d="M8148 2201l"/>
<path d="M3077 3285l-26 0-27 8-27 14-21 14-21 14-20 17-19 19-15 20-13 21-10 22-9 26 0 24 10 27 18 16 33 4 35-7 27-10 29-14 31-17"/>
<path d="M3241 3061l 21 16 2 24 0 29-2 32-4 35-6 27-5 28-8 27-7 28-6 25-6 24-8 30-6 26-5 23-8 27-8 25 6-24 13-29 12-22 15-24 16-24 17-23 18-21 17-18 21-19 21-17 15 21-8 26-9 24-9 26-8 24-9 26-2 27 18 18"/>
<path d="M3500 3320l-22 11-20 16-17 23-9 25-1 26 18 19 24 9 24-3 25-9 23-15 12-26-2-24-14-25-18-16-25-6"/>
<path d="M3662 3328l-26 8-16 19-15 21-10 23-2 25 14 20 26 6 26-3 27-12 22-14 15-21 3-24-12-21-22-13-25-6 24 6 29 3 25 2 28-2 28-6 22-15 17-18 14-23 5-25-5-23-11 25 5 25 12 26 15 23 14 22 8 25 1 27-22 16-26 5-27-5-20-16 10-23 26 4 24 8 27 1 27-3 26-5 24-5 24-8 23-7 24-9 21-14 20-17 5-24-21-16-26-2-27 9-24 11-22 16-19 18-14 20-6 24 2 25 9 24 18 23 19 16 27 14 26 7 28 6 33 2 35-2 25-3"/>
<path d="M4847 3410l-22 12-21 14-21 18-7 23 9 25 19 19 24 6 30-3 25-11 22-15 15-22 2-24-16-21-25-18-21-11-25-11 16-20 25-13 23-9 23-7 27-5 27 4 23 10 19 15 13 24 5 25-4 26-12 26-15 19 9-26 17-26 16-19 17-19 19-21 22-20 18-17 19 17-7 26-9 24-8 25 6 24 22-10 26-17 23-20 22-22 20-20 16-22 15-19 9 22-4 29-2 25 0 26 11 24 24 7 25-10"/>
<path d="M5437 3325l-20 16-9 25 2 26 8 26 16 20"/>
<path d="M5436 3194l"/>
<path d="M5653 3088l-9 23-3 29-8 29-9 31-12 29-14 32-12 22-12 25-10 23-11 24-9 31-6 23 1 25 12 24 22 13 27 4 28-5 25-8 27-9 26-13 24-12 23-14"/>
<path d="M5528 3286l 26 2 24 0 31-1 27-4 28-5"/>
<path d="M5932 3248l"/>
<path d="M5941 3361l"/>
<path d="M6240 3102l 27 5 25 7 27 7 26 8 22 10 24 15 18 17 9 23-10 25-20 19-22 17-24 17-29 17-21 11-34 17-30 19-27 17-21 16-20 16-15 21 17 19 25 6 30 1 25 2 27-2 26-4 25-3 28-1 29-2 26-3 24-4 30-5"/>
<path d="M6762 3099l-19-16-25 15-21 23-18 24-18 31-12 23-10 26-7 25-4 25-4 35 2 31 7 28 15 25 15 21 16 17 22 13 31 13 28 6 30-1 29-7 26-9 20-15 14-20 6-26-2-29-12-28-21-22-27-18-28-8-28 0-26 3-25 7-24 13"/>
<path d="M3513 4849l-3-25-17-20-25-9-28 2-29 10-24 12-22 16-19 21-16 23 3 24 26 6 28 1 31 2 30 4 25 5 27 9 18 17 6 24-8 23-18 25-22 21-24 19-28 14-26 9-28 3-26-7-10-22"/>
<path d="M3656 4880l-17 17 0 25 5 26 18 22 28 2 24-10 23-19 17-18 13-20 7-24-17 19 2 28 7 27 12 21 21 17 24 4 24-8 23-18 17-22 15-23 10-24 2-24-6-25-10-24-16-23-19-16-17 20"/>
<path d="M4094 4786l-26-1-26 9-22 14-18 17-16 23-6 27 10 25 22 12 25 2 27-5 26-11 21-15 10-23-6 24 8 25 15 19 24 8"/>
<path d="M4237 4812l-10 24 0 28 1 25 1 31 2 30 3 35 2 25 2 25 1 27 1 28 1 28 0 30 0 29 1 30 0 28 1 24 2 28 3-33-5-35"/>
<path d="M4180 4826l 23-14 25-8 25-5 28-4 26-5 24-2 29 4 10 22-12 23-18 24-18 19-18 18-19 17-19 16-19 15-24 21-19 17"/>
<path d="M4518 4764l-24 13-22 17-19 17-18 20-12 21 14 20 27-3 28-4 28-5 30-3 25-4 25 6-11 23-21 19-21 14-24 15-23 14-22 11-27 8"/>
<path d="M4747 4674l"/>
<path d="M4771 4744l"/>
<path d="M5927 5399l 27-3 30 0 35 1 28 0 31 0 33 0 36 2 37 0 40 1 44 1 46 0 26 2 25 1 26 0 25 1 26 1 27 1 28 0 28 1 28 0 29 0 30 1 31 0 31 1 32 0 31 0 33 0 33 0 34 0 34 1 35 1 34 1 36 0 35 0 35 0 35 1 34 2 34 0 35 1 34 2 34 1 35 2 33 0 32 2 34 1 32 1 31 2 31 1 30 2 29 1 29 2 28 4 28 2 27 1 27 1 24 1 25 1 44 1 44 0 37 2 34 1 28 3 33 1 26 2"/>
<path d="M6919 4513l 5 27 1 26 0 35-1 26-3 33-3 35-4 38-5 42-5 44-6 48-2 25-2 25-2 25-3 27-3 26-1 28-3 29 1 27-3 29-3 29-3 30-2 30-1 31-3 31-2 31-5 32-2 32-2 32-2 32-1 33-1 32-1 31 0 32 0 31 0 30 0 29 1 29 1 28 1 27 2 28 2 27 2 26 3 26 1 26 2 26 2 25 2 24 4 46 4 44 4 40 3 39 2 35 2 31 2 27 2 32 0 27-2 25"/>
<path d="M7158 4518l-17 19-16 21-18 28-15 21-16 24-19 23-19 26-20 26-21 27-20 27-20 28-21 27-19 27-17 26-18 24-14 23-18 29-11 25-7 26 28 0 29-17 26-18 29-21 32-24 34-27 31-25 33-26 30-25 28-23 28-22 24-20 22-18 21-16 23-19 22-16-23 23-22 24-17 20-20 23-21 24-23 27-24 28-23 29-24 33-28 35-28 37-29 36-27 36-27 35-24 32-21 30-19 28-12 23-10 27 9 26 29-1 34-14 29-17 36-25 36-31 19-16 19-18 19-18 19-17 20-19 19-18 19-19 18-18 18-19 18-17 17-18 31-33 29-31 28-29 25-26 21-24 19-21 20-25 17-21-23 20-23 29-18 24-23 25-23 27-27 27-24 29-25 31-26 33-26 37-16 19-16 18-17 20-16 20-17 19-29 35-25 30-19 23-18 21 22 16 33-16 29-21 37-30 20-17 21-18 23-21 23-21 25-22 24-21 24-23 23-22 23-22 22-21 21-21 21-20 20-21 19-18 19-19 19-18 19-17 18-18 18-16 34-29 30-25 26-21 21-15 24-19-22 29-21 22-23 27-29 30-31 32-33 35-18 19-18 18-17 19-18 20-18 19-17 21-17 20-18 20-17 19-17 18-31 34-28 30-21 27-14 23-12 27 6 25 25 1 35-12 30-19 36-25 40-29 20-17 21-18 22-17 22-17 21-18 23-17 24-18 22-19 21-17 20-17 21-17 18-16 34-30 31-24 27-20 24-16 26-17-27 24-23 22-25 25-29 29-28 30-29 32-30 34-31 32-32 33-31 32-31 31-26 28-22 26-13 22-7 27 18 22 26 0 26-6 29-14 35-21 35-22 36-27 36-26 34-27 33-25 31-23 28-21 26-19 22-18 27-20 20-18-15 25-13 23-10 23-3 24 12 21 26 5 26-4 30-11 23-9 23-11 33-16 30-14 29-11 24-9 25 0 6 26-2 26-1 25"/>
<path d="M6096 5565l-1 30-11 31-16 30-12 21-15 23-14 22-16 23-15 23-16 22-16 21-14 20-20 23-17 19 22-18 19-20 24-25 27-31 32-34 17-18 32-34 33-32 32-29 28-25 28-23 25-21 22-19 21-17 27-21 22-14 23-12-8 29-18 25-17 22-19 26-21 28-23 30-24 33-24 32-26 36-26 36-25 37-26 36-26 33-23 33-21 30-19 27-12 22-10 24 16 17 28-10 22-14 28-23 32-29 18-18 18-17 16-19 19-20 18-20 17-19 18-20 18-20 16-18 18-19 19-18 16-18 16-18 31-32 28-30 23-25 21-23 17-19 19-21 16-18-17 18-14 23-14 21-16 24-18 26-20 28-20 30-21 32-22 32-21 31-21 32-23 33-22 33-21 33-20 30-18 30-13 22-15 26 20 15 24-15 21-17 22-22 25-28 26-31 27-32 25-33 25-29 23-29 22-29 21-27 21-27 19-23 16-21 15-19 16-22 16-22-10 28-14 23-13 26-16 29-19 29-17 30-21 31-21 32-22 35-25 36-25 36-24 37-23 34-19 32-17 28-12 22-9 25 16 20 23-14 21-17 28-25 26-30 28-34 28-36 25-36 27-35 25-33 26-31 24-29 22-25 17-23 22-27 17-20 17-18-12 29-11 23-10 24-15 27-16 27-15 26-15 29-16 28-17 31-18 33-16 31-18 30-17 30-14 26-13 23-8 26 11 23 28-10 23-19 18-19 20-23 20-23 20-25 19-24 16-21 16-20 18-23 19-25 17-21 10 28-3 26-4 31-7 33-11 34-6 25-7 24-8 34-1 28 4 27 21 16 32-3 24-14 27-19 23-22 19-23 16-25 18-20 25 6 4 29 2 30 1 32"/>
<path d="M7110 6029l 25 7 26-5 27-11 23-11 23-15 30-20 21-15 23-18 22-18 23-20 22-19 22-19 21-21 21-20 20-21 19-22 18-22 15-19 19-25 12-25 3-25-25-3-23 13"/>
<path d="M7432 5662l 18-18 24-16 25-11 25-10 24-7 26-2 3 25-9 25-10 28-9 23-11 21-9 25-5 27"/>
<path d="M6642 4678l-22-14-26 6-24 10-27 15-24 17-27 19-27 21-18 16-19 17-19 17-18 18-17 18-18 19-16 19-21 26-16 24-12 28-6 24-1 25 4 26 12 20"/>
<path d="M6293 4780l-19 16-14 23-12 26-10 27-9 22-11 31-8 26-6 27-4 26-3 30 1 26 14 23 26 7 25-6 23-10 23-15 25-15 20-15 19-14 21-15 22-20"/>
<path d="M10637 4116l-16 21 2 24 28-2 22-10 19-18 2-26-22-12-27 1-19 14-3 27"/>
<path d="M9602 5053l 2 25 21 13 7 26-1 24-1 30 1 27-2 31-1 32-1 27-1 29-2 28-2 29-2 30-3 35-1 36-1 24-2 34 0 32 0 28 1 27 1 24 0 25 3 25 5-24"/>
<path d="M9677 5086l 23 6 27 2 28-2 25-1 27 1 28 1 29 1 25 0 26 0 29 0 32-1 30 1 32 3 25 3 36 4 26 2 26 3 33 1 35 1 40 1 42 0 42-1 44 0 43-2 44-1 46-1 46-1 24 0 47 0 46 1 44 0 44 2 41 3 38 4 40 4 33 5 35 4 32 5 33 6 29 5 27 6 26 6 35 9 33 7 29 8 24 6 29 7 26 3 25 3-4-25-13-25"/>
<path d="M10622 4176l 17 19 7 24 5 30 3 28 0 35-1 25-2 28-2 28-4 31-3 34-5 35-4 37-6 38-4 34-5 37-4 37-4 38-5 38-3 37-4 37-4 36-2 37-3 38-3 37-2 38-1 36-2 33-1 33 0 29 0 28 0 27 0 25 0 25 0 25 0 35 0 34 0 31-3 31-2 31-3 32-4 31-4 30-3 26-2 30-1 24 0 24 16-24 6-32 5-28"/>
<path d="M10698 4115l 23 15 25 5 28 3 27 2 32-1 26 0 28 1 31 1 31 1 30 0 34-1 36-3 27-1 28-3 29-4 32-3 31-3 30-2 29-2 27-1 26-1 24-1 35 0 32 0 29 1 30 4 25 4 25 3 23 9"/>
<path d="M10715 5198l-4 26-16 26-13 22-12 22-13 23-15 22-13 25-8 24 30 0 24-20 20-17 21-20 21-22 20-20 19-19 17-18 23-23 17-19 18-20 18-16-14 25-14 21-16 26-17 26-15 28-15 28-15 26-14 26-11 22-12 28-3 26 24 3 26-17 23-21 17-18 27-26 18-18 17-19 24-24 20-20 18-17 19-17-2 25-14 27-12 21-13 21-14 22-16 21-15 20-16 22-15 22-13 21-14 21-18 27-14 23-11 24 25 11 21-16 19-16 19-20 20-21 20-23 17-23 19-22 18-20 16-19 18-17 24-25 22-22 21-19 20-16 23-15 10 23-13 24-16 27-17 27-20 27-21 29-21 28-22 28-16 21-13 22 18 16 28-15 28-20 19-15 19-16 19-15 24-22 22-20 20-18 18-18 24-19 23-13 25-12 25 3 0 28-7 31-8 28-7 29-9 26-6 27 5 23 14 23"/>
</svg>
