<svg xmlns="http://www.w3.org/2000/svg" viewBox="2733 1273 15443 14528" stroke="black" stroke-width="16" stroke-linecap="round" stroke-linejoin="round" fill="none" data-xena="-3 -3 0"><style>@media(prefers-color-scheme:dark){svg{background-color:black;stroke:white;}}</style>
<path d="M2904 2531l 25 5 29 3 28 4 28 2 32 3 26 2 28 1 30-1 32-1 33-2 33-3 24-3 25-3 25-5 24-4 25-5 25-4 26-4 27-5 26-4 25-4 34-7 32-5 28-5 27-3 24-4 27-2 27-1 25 0"/>
<path d="M2889 3336l 28 4 29 4 29 3 25 0 28 0 30-1 32-3 25-2 24-1 24-2 26-2 25-2 24 0 25 0 36-1 35-2 33-1 24-1 24-1 25 0 34-2 31-2 28-2 24-1 28 0 30-1 28 2 25 0 25-3 24 3"/>
<path d="M2903 3981l 20 13 25 9 27 8 26 4 28 3 30 3 32 1 24-5 27 0 27 1 27 1 28-2 30-1 31-2 32-3 31-2 32-3 32-3 31-4 29-2 28-2 26 0 30-1 26 0 28-1 27-1 25 3"/>
<path d="M2921 4741l 23 5 25 2 26-1 29-1 26-2 28-2 29-2 25-1 25-2 26-1 28-2 28-2 31-2 32-3 31-4 33-5 33-5 33-4 31-6 29-4 27-6 23-7 27-8 25-6 23-7"/>
<path d="M2836 2602l 5 23 6 27 6 27 5 30 3 28 3 30 2 25 1 26 2 26 1 30 1 31 1 31 1 33 1 35 1 25 1 27 1 26 1 27 1 27 1 26 1 28 0 25 1 27 1 26 2 25 2 24 1 24 2 24 1 25 0 26 0 27 1 27 1 30 0 26 1 27 1 24 1 35 0 25 0 24 1 35 3 34 2 32 1 34 0 32 1 31 2 31 0 31 1 32 2 32 0 33 0 31 0 32 0 32 1 31 1 29 1 28 1 26 3 26 2 25 4 33 3 24 3 32 2 29 2 29 4 29 4 29 3 28 2 28 2 27 3 29 3 29 4 31 3 27 3 26 3 25 3 25 3 24 3 24 2 25"/>
<path d="M3702 2512l-14 22-6 26-4 32-3 27-3 28 0 26-1 29-1 30-1 34-1 32-1 31 0 32 0 35 0 24-1 25-2 25-1 26-1 28-1 27-1 28 0 28-1 25-1 26 0 25-1 27 0 24 0 24 0 33 0 34-1 33 0 33 1 34 0 35 0 24-1 25-2 24-1 35-1 35 0 34 0 35 0 33 0 32 1 29 0 30 2 30 2 30 0 27 1 26 1 26 1 26 2 26 1 27 0 26 0 25 2 26 2 30 1 25 0 28 1 26 0 30 2 24 1 25 1 27 2 29 0 27 4 27 0 26 0 25 0 28 2 25 2 26 1 24 3 26 5 24 3 25 4 25 4 24"/>
<path d="M5162 2362l 6 23-1 25-2 25-4 25 0 25-4 25 0 25-1 28-2 25 2 25-1 25 0 26 3 26-1 26 2 25 1 25 2 25-1 25 3 27 0 27 1 24-1 25 3 27 2 26 1 25 0 28 3 29 2 28 1 29 1 24-2 29 1 24 2 26 1 25 1 28 2 27 2 25 0 28 1 24 4 29 0 24 2 24 1 28 1 26 2 24 3 26 3 29 1 28 3 25 3 29 3 27 2 28 0 25 1 24 0 26 1 26 2 27 3 25 0 25 3 27 0 27 3 30 1 27 2 29 1 26 0 26 1 27-1 24 2 27 0 24 3 27-1 24 1 24 0 26 0 27 2 24 1 24 0 26 3 25 0 26 1 24 5 24 15 20 23 12 24 5 25 6 24 5 26 2 26 5 24 0 24-2 25-1 29-2 28-2 27-3 27-1 28-1 25-1 25-1 28 2 29 2 26-3 26-1 26-3 24-4 24 0 24-4 15-22 4-28 0-25-4-26-6-32-5-27-4-28-5-31-5-28-3-28-4-26-2-25-6-31-5-29-3-27-5-28-3-27-1-31-2-26-3-24-1-24-1-30-1-24-1-26-3-31 0-25-1-27-2-28 0-27 0-29 0-32 2-33 0-27-1-28-4-27 0-27 1-26-2-24-3-30-3-28-2-27-3-27-1-29-2-28-2-30-2-24 0-32 0-30-1-30 1-30-2-24 0-24 0-27-1-30-3-30-2-29-1-27 1-28 2-26 0-30-5-28-1-26 3-27-3-27-3-27 0-28-1-26-4-32-1-26 0-25 0-30-4-29-3-28 0-29-2-27-5-27-1-25-3-24-4-25-1-24-6-25 0-25-9-22-17-18-23-7-25-1-26-2-25 4-26 4-24 2-27 2-25 4-24 3-25 3-25 2-25 4-24 3-27 6-25 3-24 4-23 7-24 5"/>
<path d="M5277 2169l-14 20-15 22-15 19-14 19-14 23-8 24 13 21 19 15 20 17 23 12 23 13 24 14 22 11 24 9"/>
<path d="M9031 3108l 8-24 5-29 3-27 1-31 0-25 1-29 1-33 1-35 1-28 0-28 1-28 2-31 0-31-1-34-1-34-4-35-1-35-1-36-1-35-1-32-1-31-2-28-2-24-3-31-1-29-3-28-7-23-24 1-18 18-22 15-20 15-18 16 1-28 17-26 14-20 15-19 25-8 25 6 25 12 21 16 22 16 19 16 18 16 20 16 20 17 21 15"/>
<path d="M7974 2190l 19 18 24 5 25 3 30 2 27 1 29 1 32 2 33 1 25 1 26 0 27-1 29 2 28 1 30 1 30 2 30 1 33 0 33 0 35 0 38 0 38 0 39-1 43-1 42-1 43-1 44 0 42 0 43 0 44 0 44 0 44 0 45 0 45 1 44 0 48 0 47 0 45 1 25 0 46 0 47-1 46 1 46-1 45 0 46 2 42 0 43 0 43-1 40-2 39 0 37 0 34 0 33 0 31-1 29 1 26 0 25 1 32 2 26 0 28 1 26 0"/>
<path d="M11209 2399l"/>
<path d="M11203 2541l"/>
<path d="M11597 2568l-20-18-22-9-28 2-25 13-19 18-20 20-19 23-14 25-12 24-9 26-5 31 7 26 19 17 25 2 27-12 24-21 21-18 20-23 18-25 15-26 14-27 11-30 6-29 4-29 2-28 0-27-1-29-4-30-6-32-3-30-3-31-4-29-2-26-2-24-20 20-4 24-3 27-2 30-2 31-1 34-1 25 2 25 0 24 2 26 2 24 1 26 3 27 5 25 4 25 9 34 9 30 10 27 12 21 21 22 22 14 26 2"/>
<path d="M11790 2646l 7 24 26-4 25-4 24-9 23-14 11-22-15-19-24-10-25-4-27 5-20 15-17 23-15 24-14 28-7 29-4 28 1 25 9 27 20 18 24 9 30 2 25-2 24-4"/>
<path d="M12125 2688l-20-14-26-7-27 5-24 16-19 19-15 20-8 25 15 20 26 8 28-7 24-11 19-15 15-21 1 25 14 20 19 15"/>
<path d="M12390 2726l-5-26-12-22-22-13-22 9-19 15-15 22-16 24-15 24-8 26-3 28 11 26 18 17 29-2 24-11 25-18 17-18 16-20 12-22 15-25 12-26 10-25 6-24 7-27 4-27-1-32 2-34 0-25 2-25-1-24-1-24-2-34-4-29-6-29-10-26-24 10-7 28-5 29-4 32-6 34-3 25-1 25 1 28 3 28 3 27 4 26 4 25 7 35 10 31 11 30 11 27 13 24 16 25 17 22 18 17"/>
<path d="M7460 6277l 25-4 25-3 24-2 25 1 25 1 29 2 28 2 25 1 27 0 27 1 29 2 32 2 24 1 27 1 26 1 26 1 28 1 27 0 28 0 29 0 29 0 30-1 30-2 32-1 32-2 32-3 32-2 32-2 31-2 30-1 30 0 25-2 25-1 34-3 28-2 29-2 24-1"/>
<path d="M8378 6171l 27 5 27 9 22 10 25 9 25 8 22 12 19 15-6 26-19 17-23 14-22 13-25 14-24 12-25 10"/>
<path d="M8700 6224l-21 14-9 24 21 15 23-12 18-17-9-22-25-2-19 17-9 23 13 21 25-7 16-18-13-21-21 15-5 25 13 21 22-11 17-20-9-24-23-10-22 11-8 23 8 24"/>
<path d="M8740 6165l 7-23 6-24 0-24-2-24 1-25-3-25-1-26 1-27-1-27 0-24-1-28-1-25-1-27-2-25-3-26-1-27-1-26 0-27-1-29 0-30-2-29 1-26-1-27-3-25-3-26-4-25-2-26 4-24"/>
<path d="M3562 7173l 2 26 0 26 0 26 1 30 2 25 1 25 2 27 3 29 2 34 2 34 2 35 3 25 2 25 1 25 1 24 2 24 1 35 2 32 3 32 2 31 4 30 1 27 3 24 3 31 3 28 3 26 3 26 1 24 5 24 26-2 24-5 27-5 24-3 28-3 24-1 25-2 28-2 29-2 31-3 24-1 24-1 32-1 24-2 25-2 30-2 31-1 30-1 28-1 31-1 30-3 28-2 25-1 26-2 27-3 26-2 24-3 23 10 7 25 7 26 5 30 5 28 6 24 4 24 5 27 4 26 4 27 4 24 4 27 4 26 4 25 5 30 5 25 4 24 3 31 5 28 5 29 3 28 6 27 3 24 5 26 5 23 3 25-23-7-24 0-27-1-27 1-27-2-25 0-25 2-28 1-27 1-29 2-29 0-25 0-25 3-27 0-29 1-28 0-25 2-25 2-29 2-27 3-25 3-29 4-27 3-25 4-26 3-25 4-26 4-25 3-23 9-13 20-6 26-2 24-1 28 0 25 1 29 0 26 1 30 0 32 0 31 1 32 0 33 2 33 1 34 0 34 2 32 0 30 0 31 1 29 0 30 3 26 1 30 3 28 3 30 1 29 0 24 2 25 5 26 8 25 20 13 25 3 26-2 26-4 27-4 26-2 27-3 26-2 28-1 24 0 26-2 27-4 28-4 28-4 26-3 28-2 24-3 26-2 27-1 26-1 27-2 26 1 29-2 27-1 28-1 27 0 24-1 25-1 24-1 26-2 25-3 27-3 25-2 25-2 25-2 27-1 27-1 25 0 25-1 27 1 26 1 26 0 29 2 25 2 26 4 24 3 26 0 28 3 28 0 25 1 24 0 28 2 24-2 26 0 24 1 26-1 27 1 24-1 25-1 25 0 24-6 18-16 5-24 5-25 2-25 4-25 2-26 2-25 2-26 2-29 2-25 0-27 0-26 0-25 3-26 2-25-3-28 0-25 2-25 0-28-2-26 1-24 0-25-1-26-2-25-3-25-4-26-2-25-4-24-9-26-4-26-6-27-7-25-5-26-2-24-7-24-6-23-3-25-5-27-5-25-2-26-3-25 0-25-3-27-1-24 0-26-2-26-1-26-1-25-1-27-2-26-1-27-1-26 3-26-2-26-3-25 2-25-4-25-2-25 0-27 1-28-2-24-3-27 0-24 0-26-2-28-1-25-3-26 0-26-3-26 0-25-2-25-3-25 1-24-2-26-3-25-1-26-3-24-3-27-1-27-2-27-1-27 0-24-3-24-2-28-2-25-2-25 1-25-2-25-2-24-6-23-15-20-25 0-25 1-24 2-25 2-25 0-25 0-25 2-27 1-27 2-25 3-29 3-28 4-24 1-27 2-30 3-25 2-24 0-29-2-25 0-28-3-27-1-29-2-28-4-25-2-25-1-25-2-27-1-26-2-26-3-24-2-25 0-26-1-25-1-27-1-28 0-28 1-25 2-26 3-25 2-27 3-28 3-25 2-28 4-27 3-29 4-27 3-27 3-26 3-29 5-26 3-25 2-28 2-25 2-26 0-25 1-24 2-25-2"/>
<path d="M3754 7066l-23 11-18 19-20 16-19 15-18 19 9 23 16 20 20 16 23 14 22 13 23 16 24 15 22 14 21 15 23 15"/>
<path d="M7513 7167l 4 25-1 30-1 32 0 27-2 28 0 31 0 35 1 24 0 25-1 25-1 25 0 25 1 25 0 27 2 27 1 28 1 27-1 26-1 28 1 26 2 27 3 25 1 25 2 24 3 34 3 33 3 31 2 27 6 30 5 25 6 26 9 23 9 23 13 21 25 0 25 0 26 1 27 0 26-1 27 0 25 2 32 0 25-1 24 0 25 0 25 0 25 1 25 0 30 2 29 2 28 1 25 2 29 2 27 1 27 3 27 2 24-1 24-4 19 16 7 27 2 26 2 28 5 26 3 28 2 27 3 31 0 31 1 32 3 33 4 32 3 28 2 25 4 31 7 25 5 28 5 29 4 25 6 24 2 26-25 7-25-8-29-6-29-3-24-2-26-1-29 0-31 3-31 3-37 5-26 4-28 4-27 6-26 4-25 4-34 4-31 4-32 3-29 2-27 3-28 3-28 0-24 1-25 0-7 23 6 28 6 28 5 33 2 28 3 28 3 29 4 31 1 32-2 34 0 24 0 35 3 32 0 31 3 30 1 29 2 28 1 25 2 30 1 26 2 27 4 28 4 27 7 26 8 23 12 21 25 6 25-3 26-4 25-3 27-5 25-3 26-3 26-4 27-5 29-6 32-4 35-4 33-5 35-4 36-5 33-4 34-5 33-3 24-1 24-2 35-2 31-3 29-2 30 0 32-1 31-1 26 0 29 2 25 0 29 4 24 1 26 2 26 2 24 0 25-3 10-25 3-28 2-30 0-29-3-25-1-29-1-32-2-33-2-25-2-25-1-28-2-28 0-28-2-29-2-29-1-30-4-31-1-31-2-32-2-30-3-28-3-26-2-27-2-29-2-28 0-30-1-29 1-30 0-29 0-32 0-30-1-32-2-31-1-34-2-33-1-33-2-31-2-29-2-28-2-28-2-26-2-25-3-24-2-35-3-33-4-33-3-32-1-32-3-30-2-33 0-34 0-35-1-34-6-34-2-36-2-35 2-33-1-33-3-31-1-32-2-28-3-25-4-31-6-30-3-27-3-29-5-26-6-25-10-22-15-19-24-8-24-5-26-3-26-4-28-3-29 0-25 0-29 0-26 1-26 2-29 1-32 1-31 2-30 0-32 1-31 1-31 0-30 1-33 0-30 0-29-1-28-2-30-1-29-1-30-1-27-2-28-4-27-3-31-5-27-4-25-4-24-6-28-4-25-7-26-4-25 0"/>
<path d="M11130 7337l 5-23-16-19-26-2-25 3-29 10-27 13-26 14-22 16-19 18-2 25 22 10 24 3 27 0 28-1 28 3 25 6 21 15 2 26-15 26-17 18-21 21-25 17-26 15-27 11-24 8-26 4-6-26"/>
<path d="M11224 7347l-6 24-5 26-5 27-5 24-2 26 6 25"/>
<path d="M11297 7145l-10 23"/>
<path d="M11341 7366l-8 27-5 27-4 26-4 24-9 22 13-23 12-20 16-25 16-24 15-21 17-17 23-9 13 24 2 25 0 26 1 26 0 24 22-17 17-22 16-18 16-23 15-19 17-17 21 13 7 25 0 25-1 25 22 13 22-10 23-15 21-15 20-15 20-19 18-17 20 16 3 24 0 27 1 25"/>
<path d="M11853 7377l-20 19-2 26 0 26"/>
<path d="M11865 7238l-12 23"/>
<path d="M11910 7429l 13 21 26 3 23-8 21-16 25-20 19-19 21-21 19-21 16-22 13-22 11-23 10-24 6-25 4-26 5-27 2-28 5-29 3-29 3-27 1-28-25-5-19 22-11 21-10 24-11 28-10 31-12 33-9 35-5 23-4 35-4 33-2 31 5 30 7 27 13 22 21 22 22 12 22 9 24 7 31 3"/>
<path d="M12318 7407l-3-27-11-25-19-16-24-6-23 9-20 17-17 18-12 24-7 23-1 26 14 22 25 1 27-11 21-13 16-21 17-17 12 22 26 1 27-7"/>
<path d="M12452 7363l-3-25 23-10 24 5-8 24-19 20-19 17-18 17-15 24-13 20-5 26 17 18 30 3 29-2 30-4 23-6 29-7"/>
<path d="M13151 7451l-14 23-13 26-10 26-11 30-10 34-6 25-6 27-6 29-8 29-8 30-8 30-7 27-7 25-10 31-8 23-6 25 23-20"/>
<path d="M13153 7434l 17-23 22-14 24-10 26-6 28 0 25 8 21 13 16 23 7 24-9 26-20 22-26 19-24 14-25 14-22 13-23 11-24 12-21 12"/>
<path d="M13528 7357l-11 23-7 24-5 26-7 27-9 23-11 22-14 25-16 19-2-28 15-29 12-24 16-24 17-23 18-22 16-19 21-22 20-15 26-14 23-8"/>
<path d="M13738 7363l-23 5-26 13-19 21-12 26-4 27 9 22 23 14 24 3 29-5 25-9 22-12 15-21-1-24-14-20-18-17 24-6 26-9 26-12 23-13 23-12 28-13 31-15 32-16 24-13 22-12 24-13 23-13 21-13 22-14 28-20 25-22 19-23 16-24 11-26 8-25 5-28-5-26-26-3-22 16-21 21-13 22-16 25-20 28-17 32-11 23-11 24-10 27-11 27-10 27-8 28-8 26-7 27-4 26-4 35 1 27 8 27 16 22 25 9 23-9 22-20 17-21 13-23 7-23 2-25-1-24-6-26-15-22 28-4 25-15 25-15 20-15 24-17 26-18 25-19 24-19 21-20 17-20 13-22 11-23 10-24 11-22 7-28 1-25-23 8-17 23-15 26-13 24-16 28-13 29-14 32-11 23-9 23-10 24-8 22-8 34-6 32-3 31 1 28 9 29 15 20 25 13 26 1 30-7 22-11 26-17 18-17 16-18 12-24-1-24 23-15 24-9 23-12 19-15 0-25-16-19-25 2-22 15-16 19-14 22-11 23-3 28 4 27 14 23 27 13 24 1 28-6 26-8 27-11 23-11 23-10 25-12 22-15-6 25-9 24 22-16 20-14 20-16 22-9 22 14 19 17 19 15 25 4 25-6 26-11 25-8 27-6 25 7 16 21 19 18 25 10 30 6 31 0"/>
<path d="M11133 8315l-3-26-20-16-25 7-22 15-19 19-19 24-15 20-13 21-12 23-11 23-8 23-7 24-7 23-4 24-3 25 2 35 4 31 10 26 14 21 19 15 24 11 29 5 30 0 33-6 30-11 31-17 28-19 27-22 27-23 18-26 11-25 3-31-2-30-5-30-10-24-11-23-13-24-13-23-14-21-19-20-25-9-23 7"/>
<path d="M11100 8374l 19-27 19-21 18-18 20-19 20-15-2 27-19 22-25 28-19 21-20 22-22 22-22 22-24 22-23 22-23 22-23 21-21 19-20 19-17 18-17 21-8 25 28 8 26-6 31-11 22-10 32-17 23-12 22-12 30-17 28-15 27-14 25-10 13 21-9 23-10 26-9 26-8 26-6 29-8 30 0 30 8 28 11 24 19 22 25 17 29 12"/>
<path d="M12186 8297l 14-20-9 25-16 25-19 23-22 26-16 17-24 26-16 18-23 25-23 24-19 22-17 26-12 26 8 23 23 11 32 5 31 0 35-2 24-2 27-4 36-7 25-4 25-6 33-9 23-5 34-9 32-9 28-8 25-8 23-8"/>
<path d="M12309 8380l-15 19-3 27-2 30-1 27-1 29-1 31-1 32-3 31-1 32-2 30-3 29-3 28-8 25-8 28-7 24-6 23"/>
<path d="M12668 8275l-1 30-5 29-5 29-11 33-8 24-8 26-10 27-11 27-11 28-13 28-12 28-10 29-8 28-8 27-9 27-7 25-8 24-9 32-7 27-6 29-9 26"/>
<path d="M12925 8318l-26 6-23 21-18 19-25 24-20 17-24 18-25 20-26 20-28 22-29 22-29 23-29 22-26 20-23 19-19 16-25 22-18 17-16 19 4 25 29 7 26 1 32-1 34-1 35-2 24-2 25-2 35-2 33 0 32 1 29 2 28 3 25 4 29 7 23 9 20 18-1 24"/>
<path d="M13643 8474l"/>
<path d="M13735 8456l 7-23-21-13-25 8-25 11-22 11-25 13-20 13-13 20 21 18 25 9 27 8 25 10 22 10 13 22-12 25-19 16-19 15-24 15-26 13-25 10-24 7-23 6 0-29"/>
<path d="M13321 8495l-22 13-12 25-10 26-9 28-8 22-6 25"/>
<path d="M13362 8368l 5 26"/>
<path d="M13395 8524l-8 25-3 26-3 25-7 24 16-18 14-21 16-25 16-22 16-22 19-18 22-10 0 25-2 25-5 23-7 25"/>
<path d="M13684 8203l-22 10-3 28-3 25-6 28-3 26-5 28-8 28-8 31-8 30-10 30-10 29-10 29-9 27-6 24-7 27-2 24 25 5 22-9 25-12 23-16 23-18"/>
<path d="M13549 8386l 23-5 25-5 27-4 26-6 26-4 26-5"/>
<path d="M13913 8428l-25-9-27 4-17 17-17 21-12 22 9 21 24 6 22 11 5 24 2 24-10 22-21 17-25 9-25 5-26 1-25-3"/>
<path d="M13287 8473l 25-23 20-17 25-17 27-17 30-18 33-19 34-20 34-19 35-17 34-16 35-14 33-13 30-10 28-9 23-8 33-9 30-5 28 0 17 19-16 28-24 23-19 19-21 23-24 22-24 25-28 25-28 25-30 25-30 23-28 24-28 24-25 22-23 22-21 19-18 17-18 21-5 24 29 7 28-6 23-9 27-11 32-15 34-17 34-17 34-18 33-17 30-17 30-15 26-14 25-13 24-11 23-11 28-12 26-9 24-5 25-2 24 11 3 30-2 25-4 27-7 30-5 30-6 30-7 29 2 25 13 21"/>
<path d="M14526 8504l-20 15-8 24-8 23-8 26-6 23-6 25-6 25"/>
<path d="M14575 8540l-6 24-2 25-1 24-9 25 24-12 22-19 18-18 17-17 16-18 18-16 7 25-5 28 6 25 17 17 28-11"/>
<path d="M14950 8259l-16 18-11 24-12 27-9 28-10 23-8 25-10 25-10 27-12 27-11 27-9 26-10 25-7 24-5 25-1 26 18 19 24-10 25-17 22-16"/>
<path d="M14836 8414l-24 3-23 11 24 11 25 0 24-2 28-2 30-1 31-1 31 1 33 2"/>
<path d="M15029 8531l 11 22 25 0 26-5 25-6 24-9 24-13 13-21-22-12-28-4-28 3-24 8-26 11-23 15-20 21-17 23-11 25-7 27 12 21 25 10 29-1 26-4 28-6 32-9 32-10 32-10"/>
<path d="M15310 8475l-20-14 23 10 22 12 2 25-20 16-24 17-23 16-17 18-13 23 11 21 24 4 27-6 28-10 22-9 24-10 23-11"/>
<path d="M15488 8517l 24-9 23-8 23-13 16-18-20-13-27 1-24 9-20 18-18 19-8 24 2 26 19 16 27 6 30-2 29-6 25-6 27-7 26-8 27-9 23-9 26-11 21-11 18-19-16-18-24-2"/>
<path d="M15259 8604l 21-16 22-11 22-12 27-15 21-13 26-17 21-17 18-18 13-21-1-25-5-24-17 18-16 23-7 25-1 26 1 25-2 24-5 24-18 16-23 9 24 0 27-9 24-7 28-9 24-9"/>
<path d="M15708 8463l-23-7-22 12-20 17-19 17-14 22-3 24 12 21 27 8 26 1 26-6 29-11 23-9 25-9 24-10 23-9"/>
<path d="M16020 8246l-23 5-13 25-9 28-9 28-8 25-10 28-11 28-12 28-11 28-8 27-6 24 0 25 13 23 29 3 28-6 23-8 29-13 25-15"/>
<path d="M15911 8396l-25 4-23 7 21 11 28-2 25-1"/>
<path d="M16180 8393l-26 5-23 8-24 10-21 13-9 24 20 16 25 11 23 11 24 13 22 13 6 24-19 18-28 10-27 8-24 4-26-3"/>
<path d="M16333 8572l"/>
<path d="M14531 8388l"/>
<path d="M9875 2096l-26-3-21 17-18 22-15 22-10 24-8 30-6 28-2 30-2 30 3 29 5 27 9 24 15 27 18 20 25 13 26 8 27 6 28 3 31-1 28-5 28-10 23-10 20-13 23-22 17-20 18-25 11-28 5-23 2-25 0-25-5-26-5-25-8-25-12-22-19-25-16-19-19-19-19-16-25-16-27-11-29-7-31 0-31 4-26 8-24 7"/>
<path d="M8073 2050l-24 0-21 15-20 17-18 20-16 22-12 21-9 23-7 29-2 29 5 28 8 24 14 23 19 17 24 9 29 6 30 0 27-5 27-9 28-9 27-15 23-20 20-19 16-20 12-25 3-28-3-25-13-26-16-22-18-24-22-19-24-12-23-9-28-5-26-1-24 2-29 9-24 13-21 18"/>
<path d="M8890 1406l 14 20 18 22 16 18 18 19 20 18 19 17 22 19 21 20 19 16 16 17 20 15"/>
<path d="M9080 1376l-25 6-19 18-15 24-12 24-18 27-19 24-17 25-16 27-17 26-15 25-13 22-13 25-12 24"/>
<path d="M3296 10758l-27 8-17 24-14 21-14 23-11 22-9 23-6 29 1 26 8 25 20 17 30 6 25-1 28-3 28-12 23-16 21-17 16-20 11-24 1-28-10-27-13-21-17-22-20-14 27-2 25-12 22-12 23-10 24-13 25-8 23 5 8 27 2 24-1 25-3 25-2 25 5 24 25 6 20-14 21-20 16-19 15-21 11-24 6-25-13 20-2 25 5 24 16 20 24 1"/>
<path d="M3798 10427l-19 16-1 24 0 27-1 25-2 27-3 29-2 25-4 25-4 27-6 27-5 28-5 28-4 29-2 25-2 28 4 26 17 20 25-1 23-9 22-14 24-17"/>
<path d="M3706 10657l 25-14 27-13 27-11 33-11"/>
<path d="M3980 10678l 27-11 24-5 30-7 26-7"/>
<path d="M4328 10737l-16-20-24 0-22 11-21 14-19 15-19 16-18 18-15 19-11 22-8 28 2 25 14 23 24 11 28 1 25-7 29-9 31-14"/>
<path d="M4508 10451l-14 22-6 30-6 24-6 30-5 24-5 25-6 26-7 27-7 28-8 28-7 27-8 29-7 27-7 26-8 26-10 33-9 30-9 24-7 24 23-10 17-23 18-25 15-26 15-24 15-23 14-20 17-24 18-18 23-11 14 23 4 27 0 25-6 27-6 28-5 24 2 25 25 4"/>
<path d="M4709 10822l-25 1-21 13-15 19-10 25 2 24 24 11 25-6 23-12 23-16 18-17 4-24-21-14-26-5"/>
<path d="M4901 10761l 8 23-3 27-2 28-4 26-6 26"/>
<path d="M4976 10667l-19-15 2 25"/>
<path d="M5130 10773l-22-10-24 12-21 15-20 16-20 22-16 23-7 25 15 21 24 7 24-1 29-4 28-8"/>
<path d="M5265 10813l 25-7 23-13 26-13 20-16-17-19-25-6-26 4-23 10-20 19-14 21-12 22-9 24 4 24 19 18 24 5 25-1 24-8 26-7 28-8 28-9 25-10 22-15 20-18 6-24-11-21-13 23 11 22 16 20 16 19 3 25-18 16-23 12-27 8-26 3-24 1 26-2 26-4 25-2 30-4 28-3"/>
<path d="M5777 10616l-6 24"/>
<path d="M5749 10726l"/>
<path d="M6327 10331l-4 30-6 31-5 28-5 30-6 32-5 36-5 36-4 26-3 27-4 28-4 28-4 29-6 28-6 28-6 28-5 25-5 25-6 31-3 27-4 28-2 24"/>
<path d="M7579 10616l-2 24 0 29 0 25 2 29 5 24 7 24 11 23 25-14 15-19 20-27 15-21 16-24 16-25 15-26 15-28 13-26 13-26 10-26 10-24 10-26 9-26 5-25 8-25 7-33 9-32 6-26 6-30 4-24"/>
<path d="M6065 11584l 16-20 27-11 30-8 31-5 31-4 29-1 31 3 28 3 29 7 29 7 27 8 24 10 21 17 13 22 1 27-12 25-16 21-22 24-19 20-22 19-23 20-24 20-24 19-25 20-25 20-27 20-27 18-25 18-28 17-25 18-25 17-25 17-21 15-21 14-26 20-22 17-19 19-16 17 10 22 24 8 26 5 30 0 24-2 27-5 28-4 29-5 28-5 27-6 25-3 31-6"/>
<path d="M6689 11772l"/>
<path d="M6713 11867l"/>
<path d="M7604 11810l 24-4 26-2 25-6 24-5 29-5 33-6 30-5 33-3 31-3 31-3 28-4 27-4 26-2 25-2 28-2 28-2 25-1"/>
<path d="M8016 11679l 23-8 26 3 24 13 20 15 17 18 7 23-12 24-19 18-23 15-21 12-22 14"/>
<path d="M7488 11774l-25 2-26 8-26 4-28 5-25 4-24 4-25 3-28 3-29 2-29 3-27 2-24 2-24 3"/>
<path d="M7229 11733l-26 1-22 10-21 12-23 13-20 15-21 12-6 24 21 13 23 11 27 6 24 7 27 2 25 0 26 5"/>
<path d="M9330 11849l 16-18 10-24 2-24-20-18-26-5-27 3-24 14-23 19-20 25-14 22-16 26-12 26-10 27-7 23-4 30 3 25 17 19 23-5 25-11 23-17 23-20 23-24 22-23 21-25 19-25 17-26 15-24 11-27 11-26 9-29 10-29 7-30 7-28 4-28 6-25 5-24 7-28-19 22-9 25-10 28-10 30-11 32-9 32-6 24-8 35-9 34-6 31-6 31-3 28 0 25 3 28 11 25 23 14 24 0 26-8"/>
<path d="M9564 11874l 25-5 26-5 25-7 22-10 21-12-10-22-23-11-25-7-24-3-25 4-25 7-23 14-22 22-12 22-9 27-5 28 1 28 10 25 19 17 27 7 32-3 25-5 28-9 26-11 28-11"/>
<path d="M9885 11801l-23-6-25-3-25 5-22 15-22 16-15 20-17 23-12 23 0 24 24 7 28-7 22-9 23-16 22-16 17-18-14 20 9 23 22 13 26 0"/>
<path d="M10115 11805l-9-23-19-16-24-7-24 10-23 16-21 20-19 24-16 21-16 26-12 25-6 26 5 24 26 3 28-7 22-9 25-15 19-15 22-17 21-21 18-20 17-19 16-24 14-25 13-27 11-28 6-29 5-29 2-29 1-32-1-32-1-30-4-25-3-27-8-24-18 21-7 24-6 28-4 26-5 29-2 31-3 29-2 30-2 27 0 29 1 27 0 25 4 29 8 24 10 26 13 20 19 17"/>
<path d="M7501 12844l 21-11 28 0 26 0 27-1 30-2 32-1 31-2 28-3 30-3 26-4 25-3 31-1 27-1 29-1 25 0 26-1"/>
<path d="M7860 12733l 23 6 25 7 22 10 24 10 21 12 9 23-22 17-20 17-22 14-16 18"/>
<path d="M7482 12946l 17 18 4 28 3 25 4 26 2 29 0 31 0 29 1 30 2 31 1 29 0 25-1 28 1 25-1 25-5 24-7-24-10-23"/>
<path d="M7422 13229l-1 26 7 25 14 23 17 20 17 17 23 14 25 10 24-2 25-13 17-16 14-25 15-24 12-22 8-23 7-26 5-24"/>
<path d="M3126 14362l 16-20 20 16 14 25 8 24 4 27 2 28-2 30-4 31-6 29-7 26-7 25 4-26 9-29 10-33 12-34 12-32 11-28 12-23 13-22 16-19 24-4 19 18 10 29 5 26 3 29 1 28 2 29 2 27 25-7 17-28 15-25 15-26 14-26 13-23 13-22 14-22 19-20 23-6 15 23 9 25 6 25 10 23 26-2"/>
<path d="M3648 14304l-5 26-2 26 2 25 6 26 22 11 22-11 19-17 19-21 15-21 12-21-5 25 5 27 16 18 25 2 24-12 21-16 20-19 17-21 13-25 5-25-2-25-10 22 5 27 10 23 16 19 18 20 15 22-5 25-25 6-28 2-25 3 26-1 24-11 30-13 27-10"/>
<path d="M4184 14024l-10 23-4 27-2 27-2 25-2 26-3 29-4 30-3 31-3 30-1 30-1 30 2 27 3 24 6 25 12 23 26 7 23-9 22-19"/>
<path d="M4090 14203l-24 5 26 8 26-6 24-8 26-7 28-6"/>
<path d="M4852 14293l-11 22-4 26-4 25-3 25 1 25 24 0 17-17 19-21 18-22 16-19 3 25-3 25 10 23 26 3 26-11 23-12 21-17 16-19 14-21 11-23 5-27 1-24 3 24 2 25 8 27 9 23 7 24 6 25-12 22-16-19 21-14 25-5 25-2 24-1 24-3 24-6 25-12 24-11 19-15 12-21-4-25-16-19-25 0-22 14-17 19-15 22-9 24-2 26 5 27 15 22 24 9 24 0 30-5 28-10 23-9 27-10"/>
<path d="M6032 14038l-8 28-10 28-7 27-11 26-12 27-12 29-10 27-5 23-1 27 11 23 25 11 29 0 26-3 30-9 25-10 28-10 29-11 28-13 28-14 24-12 23-12"/>
<path d="M6126 14112l-17 19-7 25-4 24-2 30 2 24 3 28 3 29 5 23 7 24 10 28"/>
<path d="M6798 14247l 13 20 9 23 7 26 2 26-4 24-9 26-4-25 7-26 9-24 12-25 19-22 19-17 21-17 23-12 25-7 26-5"/>
<path d="M7122 14240l-16 20-16 22-10 24-5 24 2 24 15 19 25 6 25-2 22-11 22-17 3-25-7-23-19-19 23-9 24-6 23-7 25-8 22 11-2 28 3 26 18 18 27-1 24-11 20-18 15-21 20 15 20 14 24 4 25-1 28-8 24-12 17-18 8-24-2-28-10-25-10-22"/>
<path d="M7730 14135l-25-2-20 16-13 22 9 22 21 12 24 11 23 14 21 14 17 20 6 23-13 22-24 12-24 10-31 4-28-2-26-3-25-10"/>
<path d="M13167 9910l 8-25 17-18 23-8 13 23 1 26-4 29-8 31-7 25-9 25-9 27-10 28-10 29-10 28-10 29-11 30-10 29-9 29-9 28-7 27-8 28-6 27-5 25-4 34-2 31 0 27 3 31 5 23 19 21 27 2 22-11 21-14 25-19 24-22 23-23 20-21 17-21 16-25"/>
<path d="M13113 10276l-28 2-25 6 19-16 26-11 24-11 29-9 25-6 25-3 28-3 29 3 25 5 24 9 22 16 14 21-5 26-4 27-3 27-4 26-4 27-4 26-7 26 10-27 10-25 12-26 12-24 15-25 14-20 20-15 23-14 24-7 27-4 24 0 24 2"/>
<path d="M13716 10343l-12-22-25-10-26 1-25 12-20 14-24 16-17 19-14 24-11 22 14 21 24-4 28-9 21-11 26-14 22-14 20-15-4 25-2 24 11 24 24 12 26 2"/>
<path d="M13994 10291l-9-23-26-1-20 15-19 17-18 16-19 20-15 20-11 25-5 26 6 27 18 19 23 8 25 1 28-5 25-8"/>
<path d="M14175 9979l-23 6-11 25-7 26-7 25-7 28-6 29-6 32-6 33-7 35-6 34-5 33-6 35-4 32-3 30-4 26-4 28-8 25 2-27 7-30 7-24 7-25 7-25 9-30 10-24 13-22 16-18 23-12 24-3 26 0 24 4-13 25-22 12-23 15-24 18-21 18-20 20-13 21-4 27 1 24 16 21 25 10 30 4 33-4 32-5 34-7 32-7 24-6"/>
<path d="M14751 10189l 30-2 29-4 27-5 28-8 33-10 23-7 34-9 32-9 30-7 26-4"/>
<path d="M14794 10250l 14 21 28-4 29-6 30-9 25-9 25-9 27-12 21-11"/>
<path d="M14951 10019l-15 23-7 23-7 24-4 29-5 31-4 26-3 28-5 27-6 28-4 27-3 26-1 29 6 24"/>
<path d="M15048 9989l-11 23-7 29-3 25-7 32-8 26-6 30-7 33-7 35-9 33-5 32-3 29 2 26"/>
<path d="M15241 10394l 12 23 27-5 25-11 28-15 21-12 23-16 24-18 26-21 28-21 26-22 27-21 23-21 23-20 20-21 18-21 15-20 17-28 10-26 5-26 2-26 0-26-1-25 1-29-5-24-27 10-21 25-21 28-13 24-12 26-11 26-11 27-9 28-9 29-7 29-9 29-6 28-10 27-6 27-3 25 0 33 1 26 9 25 15 20 26 10 27-1 22-10 17-16 10-22 0-27-6-26-8-24-17-17"/>
<path d="M15741 10272l 4 26 3 24 7 25 3 25-1 26-6 24-9-24 3-25 4-29 9-29 10-26 12-21 16-20 19-21 24-13 23-9"/>
<path d="M16007 10225l-16 19-1 27-3 26 1 25-1 25"/>
<path d="M16057 10153l-10 23"/>
<path d="M16136 10288l 20-15-28-4-25 13-22 14-18 18-19 19-18 19-13 22-10 23 24 11 24-10 24-15 25-17 21-15 23-17 25-18 20-19 17-17 18-19 15-19 12-21 10-24 7-26 7-26 6-29 5-30 5-32 3-32 2-30 1-27 0-27-10-23-23 12-16 20-14 26-10 22-10 28-9 32-11 35-7 24-8 25-6 26-4 25-2 25-3 34 2 32 3 31 8 28 12 24 17 19 23 13"/>
<path d="M16484 10244l-8-26-15-19-24 0-22 13-20 15-19 19-16 22-12 26 2 28 13 23 23 11 25 1 25-10 16-20-7 27-7 28-7 28-5 25-4 27-5 30-3 32-3 34-3 33-6 32-5 34-8 32-9 31-10 28-12 26-14 23-21 21-25 11-26-10-11-22-6-24-4-25-1-28 4-32 4-35 3-26 6-26 3-26 8-26 9-25 11-23 14-23"/>
<path d="M16550 10282l 23 8 23 11 29 0 23-6 22-14-12-24-24-11-25-3-24 6-23 13-19 18-16 22-6 25 5 27 13 21 24 12 30 2 27-2 27-7 26-9 28-9 27-11 26-11 21-13 20-16 16-19 7-25-5-25-24 7-7 25 1 28 6 27 4 27 5 25 0 25-10 24-24 7-25 0-25-6-25-9-19-14 25 6 29 1 28-2 25-2 31-5 36-4 27-3 29-3 29-3 26-1"/>
<path d="M17374 9877l-14 24-14 31-17 31-10 24-15 27-14 29-14 31-18 32-17 33-18 34-18 33-20 35-20 34-22 32-24 33-22 32-23 30-22 28-20 26-19 26-18 24-14 22-19 27-15 23"/>
<path d="M17527 10291l-9-23-27-2-25 12-22 18-22 18-21 21-19 21-16 25-6 25 16 21 28 6 27-1 35-4 34-6 34-7"/>
<path d="M17742 10332l-27 2-23 11-23 17-19 18-10 22 9 22 23 6 27-4 23-12 0-24-16-19 21-15 23-14 22-17 22-16 21-15 22-14 23-15 24-16 23-18 24-19 20-20 17-22 13-22 12-24 10-23 9-25 6-27 6-28 4-26 3-24 2-25-11-22-22 11-16 19-13 25-9 25-10 29-15 31-12 33-7 24-6 36-5 24-3 33 0 32 4 31 6 28 10 27 14 23 15 20 19 16 20 14 23 11 25 6 32 2"/>
<path d="M8424 14019l 20 14 21 13 23 9 25 6 28 1 25-4 31-9 32-13 23-9 26-12 28-13 30-16 33-18 36-21 37-21 40-24 41-25 21-12 21-13 22-15 22-15 23-15 24-17 24-16 24-17 25-17 25-19 25-18 25-19 26-19 24-19 27-21 28-20 28-21 28-20 28-21 29-22 30-22 31-22 30-22 30-23 31-22 32-23 32-25 35-25 34-25 34-25 34-25 35-25 35-27 35-26 35-25 33-25 35-25 34-26 33-25 35-26 33-26 35-26 33-27 35-26 34-27 34-28 35-27 35-29 35-28 34-29 36-30 36-30 36-31 35-31 37-32 35-32 37-33 37-33 36-33 38-34 37-35 38-36 38-34 38-36 37-36 38-37 38-37 37-37 38-36 38-37 38-37 37-37 38-36 37-37 39-37 36-38 37-36 36-37 35-38 36-37 35-37 35-37 34-37 36-35 35-35 35-35 34-33 33-33 33-32 32-31 31-30 30-30 30-28 27-28 28-26 27-26 26-26 25-23 24-24 23-22 22-21 22-22 20-21 20-20 19-18 19-19 17-18 32-32 27-31 24-29 21-28 17-25 16-25 13-22 12-21 14-28 11-24 11-26 11-22-3 25"/>
<path d="M12502 10583l 25-8 27 0 24-3 29 0 28 0 26 5 16 18-5 25-8 24-11 22-12 25-11 25-8 24"/>
<path d="M12404 10775l 17-17 22-11 23-13 23-12 25-14 26-15 22-12 22-12 28-14 25-11 26-7"/>
<path d="M12719 11950l 25 8 24 4 26 2 30-2 30-1 24-3 25-3 30-2 32-1 32-1 32-1 34 0 34-2 26 0 24-2 25-1 25-2 27-1 26-2 26-1 28-1 25-2 26 0 27-1 26-2 25 0 24 0 32-2 29 0 32 0 28-1 25 0"/>
<path d="M13637 11964l-18 17-5 25 0 29-4 28 0 25-5 25-4 28 1 32-1 25 0 27 0 28 0 29 0 30 0 28 0 28 0 28-3 31-1 32-2 32-3 34-3 34-4 34-3 35-3 35-6 35-3 36-2 25-2 24 0 25-3 35-3 35-3 36-1 24-2 24-1 35-3 35-2 33 0 34-2 31 2 28-3 28-6 28-1 30-1 27-1 25-3 28-3 28-1 26 2 27-2 25-3 25-3 24 1 25-6 26 0 25-1 26 0 26-1 25 1 24 0 24 0 24 0 26-4 24 1 27-5 25-2 26 2 25 1 24 24 0 25-6 26-2 27-4 29-2 30-5 27-4 32-1 24 0 31-4 26-2 30-2 28-4 30-4 24-2 25-1 28-2 26-1 28-3 28-3 27-1 26 0 28-2 29-1 26 1 27 1 25-2 25 4 26 0 25 0 26 2 26 2 25 3 26 3 26 2 27 3 25-2 28 2 25 1 26 3 24-1 27 4 24-1 31-1 26 2 25 1 26 0 26-1 28 0 28 0 26 0 29-1 28 1 26 1 28 2 27-2 29 1 28-1 29 2 25 0 25 1 29 2 28 0 26-1 29 4 28 2 24 1 30 0 27 1 27 2 24 1 24 4 27-1 27 0 24 1 26 1 24-1 26 2 27 0 25 0 25-1 28 1 25 3 26-1 24 1"/>
<path d="M13535 12820l-16-18 18 17 24-10 22-12 18-17 14-20-4-24-23-8-24 3-20 17-21 20-17 23-4 26 11 23 25 4 25-7 17-18 11-22-2-25-24-7-13 21-8 26"/>
<path d="M14741 13828l 23 9-18-18-24 7-17 19-8 24 21 13 25-2 25-10 10-22-18-16-22-13-23 8 4 25 17 21"/>
<path d="M15804 13834l-5-23 3-25 8-28 5-27 6-30 6-31 7-28 6-33 3-35 3-25 3-28 3-29 4-31 3-31 3-32 2-30 1-29 3-29 1-27 0-27 1-25 0-35 1-32-1-28-2-28-1-25-2-30-5-29-2-26-1-28-1-24-2-25-8-24-25 6-24 3-25 1-26-2-24-3-25-3-29-3-32-1-25-2-27-3-26-2-27-2-30-1-33-2-29 0-29 0-29-2-26-1-28-1-27-2-30-1-28 0-27 0-29 1-29 0-30 0-27 0-31 3-25 1-31 1-27 2-26 1-29 2-24 3-24 2-24 4-24 8-23 7-24 7-6-26 3-27 0-27 2-26 2-25 1-25 1-25 2-28 1-28 1-30 2-33 2-34 1-25 6-26 2-27 2-25 1-25-1-25 3-34 2-34 4-35 2-24 2-36 2-25 3-34 3-34 3-33 3-30 1-28 3-24 4-25 7-28 3-24 1-24 6-24 4-24 22 12 22 11 24 7 23 7 25 3 26 4 25 2 28 2 27 2 28 1 26 0 30 0 31 1 24 1 30 1 24 0 31 1 25-1 34 0 30-1 27 0 31-1 28-2 28-2 31-3 28-2 29-1 28-2 30-1 29 0 31 0 28 0 27 0 28 0 29 1 27 2 29 2 28 3 29 3 29 2 30 3 27 1 31 2 27 2 32 1 27 3 32 2 25 2 24 1 31 2 28 2 24 1 27-1 25 0 25 0 26 1 25-1 24 1 24 2 25 0 26-1 24 1 25 3 25 5 23 8 6 24 3 25 2 26-3 28-3 25-3 29 0 24 0 26-1 28-5 30-1 32-1 31-5 31-2 25-4 26-6 27-6 28-5 28-4 28-4 28-3 28-1 27-2 27-2 28-2 28 1 30-4 29-2 29-4 29-2 27-6 28-3 27-3 28-2 28-3 28-1 27-2 28-3 25-2 27-4 29-4 28-5 28-3 25-6 27-3 28-4 27-3 26-3 26-5 25-3 25-1 32-3 32-3 26-4 26-3 26 2 24-2 32-6 26-3 26-3 27 0 32-3 25-3 29-3 31 0 30-4 26-1 26-3 27-2 30-1 32-2 30 0 28-3 29 0 31-5 31 2 29 0 25 1 26 0 30 0 28 3 25 2 25 6 25 3 28 3 26 4 25 1 28 2 27 3 28 1 28 1 28 3 30 0 24 0 26 4 27 3 27 4 26 2 26 0 26 1 25-22 10-27-6-27-3-24-1-25-5-27-4-28-6-25-3-24-3-24-2-28-3-30-2-25-1-34-5-36-3-33-1-35 2-35-1-26-3-27-2-26-1-26 0-26 0-25 1-25 0-26 0-25 1-24-1-25 0-26 0-27 1-28 0-27 0-26-2-29 0-26 1-27 1-27 2-26 2-26 0-26 1-26 0-37 0-25-1-25-1-28 0-25 0-26 1-34-1-25-1-34-2-34-2-35-2-26-1-25 0-35 2-24 1-32 0-24 2-34 1-25 0-35-3-36 0-35 3-24 0-27 0-25 0-25 1-25-1-24 0-25 0-26-1-26 0-25-2-26 1-26 0-28-1-27 3-28 0-31 1-28 1-29 1-29 0-27 0-28 0-27-1-25 0-27 1-28 2-28 1-30 1-28 1-28 2-28-1-28 1-27-1-26 0-35 0-28 0-27 0-26 1-27 0-25 1-24-1-24-1-25 0-34-1-25-1-32-1-32 0-31 0-30 0-27 0-24 3-28 1-25-1-32 0-29-2-28-1-25 3-26 1-29 0-25-1-24-3-26 1-26 5-25 0-25 0-25 2-26-2-25-2-27 1-26-2-25 1-24-3-22-13-11-23-5-26-9-26-9-28-10-28-7-29-5-25-8-24-8-29-6-31-7-27-6-32-1-27-4-29-1-27-4-25-4-26-2-29-2-29-3-27-1-26-2-28-1-29 0-28 2-28 2-31 3-30 0-30 3-30-1-29 1-27 2-30 4-28 3-32 0-33 3-29 2-32 8-32 3-32 0-32 3-34 3-32 4-31 2-28 3-29 2-30 1-28 2-25 2-28 0-26 2-26 1-26 6-28 2-26-1-28 2-31 3-34 3-24 3-33 3-31 3-30 3-28 1-25 2-24-2-27-1-28 1-26 1-28 4-29 2-31 3-29 3-28-1-24 3-31 4-29 2-29 4-24 2-25-2-27 2-26 5-25 3-24 3-26 3-27 4-29 2-26 3-30 2-26 1-25 2-25 2-25 3-24 0-27 2-27-3-25-5-24-8-23-2-25"/>
<path d="M12711 12768l-24 6-10 23 0 25 15 21 25 5 26-10 22-12 18-19 11-22 6-25-11-25-20-12-26-3-26 4-22 11-15 20-2 26 16 21 26 8 26-1 27-7 24-14 15-18-9-25-17-17-25-1-20 18-12 27"/>
<path d="M12673 13819l-8-23-25-5-21 13-19 21-16 22-11 25 8 25 25 10 25-5 25-9 21-13 22-14 14-20-13-21-24-4-22 13-16 21-10 23 6 28"/>
<path d="M13581 14676l-17-17-23 9-21 19-13 22-12 22-3 26 13 22 24 7 23-5 23-16 14-21-8-24-18-16-4 26 5 25"/>
<path d="M14692 14712l-10-23-17 18 8 23 27-1 23-12 22-15-1-26-16-19-24 0-20 14-16 19-6 25 13 24 25 8"/>
<path d="M15699 14711l 23-10 16-19-23-7-17 17-11 22 1 24 25 4 24-6 25-8 24-7 20-15-9-25-24-2-19 16-7 24"/>
<path d="M16394 13849l-1 24 22 10 24-11 16-17-1-25-15-20-23 9 6 24 27 1 27-5 18-16"/>
<path d="M16582 12885l-24 0-15 19-4 24 23 14 28-5 24-10 10-22-15-19-24 6-19 17-13 21 19 15 24-7 22-11-11-22-23-8-23 8"/>
<path d="M15729 11932l-18-16-21 13-10 22 22 11 25 0 24-3 25-10 19-20 1-27-15-18-25-5-20 17-9 25-7 24 1 24 18 18 24 0 18-16 3-25-18-17-24 2-7 24"/>
<path d="M12496 15315l-13-21 22-12 24-9 27-3 26 1 23 7 13 21-15 23-21 18-22 14-22 16-23 15-24 16-22 15 26 7 24 0 25 0 25-4 26 3 27 6 23 10 15 22 3 25-6 28-13 22-19 19-20 20-22 14-26 10-24 11-24 7-25 0-25-3-23-10-20-14"/>
<path d="M13361 15370l 14-21 23-12 24-2 27 0 26 8 23 6 18 19 14 19 0 25-13 25-16 21-17 17-23 20-24 16-21 15-22 17-21 13-23 13 10 23 28 2 28-2 28-3 28-4 25-1 26 0 25 2 24 6"/>
<path d="M14689 15348l 2 28-3 27 0 29 1 25 1 30-3 25 1 28-1 26-4 28-1 26 2 24-2 25 1 24"/>
<path d="M15727 15347l-1 27-2 28-4 25-3 28-2 29-3 25-3 24-2 28-2 25 1 25"/>
<path d="M16540 15302l 20-14 25-3 26 0 24 5 22 11 16 18 5 26-16 20-24 13-25 10-22 8-24 7-21 13 24 6 26 9 22 12 24 12 22 13 24 14 23 14 21 17 18 18 4 25-15 22-23 10-26 11-27 7-25 5-25 2-28 1-26-1-24-8-20-14"/>
</svg>
