<svg xmlns="http://www.w3.org/2000/svg" viewBox="3895 7356 9504 5402" stroke="black" stroke-width="16" stroke-linecap="round" stroke-linejoin="round" fill="none" data-xena="0 -3 0"><style>@media(prefers-color-scheme:dark){svg{background-color:black;stroke:white;}}</style>
<path d="M4171 8297l-21 15-13 24-12 25-15 26-12 26-16 30-9 23-10 22-10 22-15 32-15 31-11 28-8 26-6 27 0 25 15 21 29 2 28-7 24-10 28-12 31-13 29-12 28-13 26-11 24-13 23-8 26-8 25-8"/>
<path d="M4260 8469l-5 29-2 31 0 28 2 29 3 31 2 32 3 33 5 32 5 31 7 32"/>
<path d="M5391 8292l 23-11 25-3 28-2 28 3 26 8 22 11-7 26-19 17-25 14-25 15-22 14-12 22 22 14 26 2 27 5 26 7 29 9 29 8 23 7 25 11 21 16 9 23-10 26-18 25-21 17-22 14-23 13-24 11-25 6-26 2-29-4-25-9-21-13"/>
<path d="M6710 8080l 23-14 24-3 27-3 32-3 33-3 24 3 24 3 27 3 28 9 25 13 18 20 2 27-8 24-15 22-22 22-21 18-21 17-24 15-25 16-22 15-20 15-25 17-23 18 11 22 26-1 24-4 29-4 24-5 27-5 29-4 30-5 30-5"/>
<path d="M8163 7814l 5 26 0 26-2 24-1 30 0 25 0 28 0 30 0 30 3 30 0 28 0 28 0 27 3 25 3 30 2 27 6 27 4 25"/>
<path d="M4334 10254l-7 25-1 27 0 28 0 30 1 26 2 26 1 25 2 25 0 26 0 25 0 26 0 29-2 30-2 29-2 27 0 32 4 24"/>
<path d="M5519 10114l 8 27 7 27 4 25 2 30 2 27 1 30 1 32 1 29 1 31-1 31-1 31-2 30-3 29-3 30-3 27-3 27-2 25 0 29-1 26 0 24 0 25"/>
<path d="M4974 12146l 23-7 26 8 27 10 24 9 27 9 28 10 27 10 26 12 24 13 22 17 16 23 0 28-15 31-19 27-17 19-19 20-22 19-23 20-23 20-24 19-22 18-22 17-21 17-20 16-18 15-24 20-20 19-19 20-10 22 20 16 29 6 33 1 28-1 32-3 35-4 26-4 27-4 27-4 27-4 24-3 33-4"/>
<path d="M6254 12120l 10 26 2 30-1 32 0 26 0 26 0 27-1 28-2 30-2 29-1 28-1 26-2 24-2 29 1 29 4 25"/>
<path d="M7983 12076l 21-16 27 1 25 6 24 10 26 12 22 12 25 18 16 18 15 22 7 25-3 27-10 24-21 25-19 20-23 21-27 23-25 24-21 15-20 14-31 19-26 17-23 16-25 18-19 17-16 21 12 21 25 5 29 1 25-1 27-3 28-3 30-3 33-1 28 0 26-1 27 1 24 4 25 5 23 8"/>
<path d="M11981 7476l-18-17-24 9-22 13-21 14-22 17-19 14-21 18-17 18-12 20 17 17 23 7 26 4 30 6 27 4 26 4 25 7 23 8 25 10 17 19-2 25-14 21-21 23-20 17-22 16-24 14-25 9-27 9-24 5-32 1-28-3-23-8-25-11-19-18"/>
<path d="M11764 8107l 27 5 30 6 28 6 27 5 27 9 23 12 6 24-11 22-17 21-20 18-24 20-18 16-19 16-18 18-17 18-21 21-16 18-6 24 21 16 31 5 28 1 31 1 27-1 32-4 25-2 27-1 24 0"/>
<path d="M11560 7501l-22 12-17 18-18 23-23 27-13 21-14 21-12 22-12 23-11 24-10 24-12 27-9 27-8 28-8 31-6 32-8 33-8 35-6 34-6 35-6 35-4 33-4 34-3 34-2 32-1 33 1 28 1 28 3 27 7 35 9 32 12 27 12 24 16 24 21 21 23 18 26 14 29 9 30 7"/>
<path d="M12219 7530l 9 23 10 25 11 27 11 23 12 23 12 25 11 27 11 28 8 26 8 32 8 35 6 23 6 35 3 37 4 25 1 24 1 24-1 25-1 24-4 34-3 32-7 30-11 29-11 28-13 24-15 23-15 21-14 21-17 23-14 22"/>
<path d="M12627 7915l 27-2 25 1 24 1 25 1 25-2"/>
<path d="M12675 7815l 4 25 4 27 6 28 4 25 5 26 8 29 7 29 4 28 6 26"/>
<path d="M13176 7886l-24-8-22 10-24 12-22 15-15 19-3 25 6 25 23 16 26 7 28 7 25 5 29 5 28 4 25 6 24 10 14 20-5 25-18 22-25 18-23 18-27 12-28 9-30 5-30 1-28-6-24-9-22-13-22-20"/>
</svg>
