<svg xmlns="http://www.w3.org/2000/svg" viewBox="-1 2525 19488 54502" stroke="black" stroke-width="16" stroke-linecap="round" stroke-linejoin="round" fill="none" data-xena="0 -22 0"><style>@media(prefers-color-scheme:dark){svg{background-color:black;stroke:white;}}</style>
<path d="M1748 2761l-26 11-21 16-23 18-19 25-14 24-12 26-12 31-9 32-4 25-2 28 0 28 2 30 5 30 7 30 11 28 12 26 16 24 19 23 21 21 23 19 25 12 28 10 28 7 28 3 29 0 29-3 29-7 31-11 30-13 30-17 27-19 26-21 23-22 21-22 19-25 17-25 13-26 11-26 9-26 5-24 3-36-7-34-9-25-13-25-15-27-17-26-18-21-20-19-19-14-31-16-32-10-34-5-34 1-34 3-29 8-25 8-25 12-18 18"/>
<path d="M2587 2810l-25 6-20 21-13 21-11 31-8 29-6 31-2 36 2 24 4 25 6 26 9 26 11 24 12 23 21 28 24 23 26 18 28 11 31 8 30 3 30-3 31-7 27-14 26-20 24-25 19-27 15-32 10-33 5-24 3-25 0-35-4-24-6-26-9-28-11-28-13-27-15-25-15-20-18-17-26-19-27-11-25-5-29-2-31 4-31 7-29 12-26 15-24 13-22 14"/>
<path d="M3356 2727l-5 24-1 34-1 33-1 24-1 27-1 27-1 29 0 28 0 29 0 30 0 30 0 30 0 30 0 28 0 27-1 26-1 33-2 28-4 28"/>
<path d="M3801 2768l 2 27-1 28-2 31-1 28-3 30-3 34-4 35-2 24 0 24-2 25 0 24 0 32 0 31 1 25 4 29 4 29"/>
<path d="M4500 2712l 25 5 27 1 28-4 26-10 23-9 23-12 24-13 24-13 22-14 24-16"/>
<path d="M4576 2743l-20 15-10 22-6 26 5 24 8 25 15 21 22 13 26 4 27-1 26-7 26-9 30-10 25-7 27-7 26-4 27-4 29 1 28 0 26 0 24 2 31 4 28 9 20 18 6 24-8 27-15 27-13 21-17 22-14 21-18 21-23 25-20 16-22 12-26 11-24 8-23 5-25 0-26-4-24-7-29-13-25-15-21-16-18-16-19-18-14-22"/>
<path d="M1877 4227l-7 27-6 25-7 28-9 31-7 32-6 31-5 31-4 31-2 31-3 28-2 26-1 24-1 27 0 26-2 24"/>
<path d="M2364 4235l 27-2 25 5 27 11 23 16 17 19 13 22-4 28-14 24-19 20-24 21-20 15-21 16-23 16-23 17-19 17-19 18-22 20-16 20-13 24 0 25 25 0 27-6 30-10 24-10 26-12 28-13 22-11 32-14 22-9"/>
<path d="M2836 4136l 22-14 26-4 28 5 27 10 13 21-14 24-19 17-25 17-20 13-21 14-25 14-21 16 21 15 29-3 27-4 28-2 32 1 25 2 25 4 29 7 24 10 22 18 7 23-12 26-19 24-17 19-20 19-23 15-23 11-25 8-28 4-30-1-31-5-29-8-22-12-19-15"/>
<path d="M2066 5545l 2 27 1 29 0 29 0 33-1 35 0 24-2 36-1 24-1 25-2 25-1 25-2 36-1 33-3 30-2 27 0 29-1 25 0 25"/>
<path d="M2729 5508l-5 28-3 25 0 32 0 29 0 34 0 36 0 26 0 26 0 27 0 27 1 27 2 25 0 26 1 24 1 34 0 32-1 28-1 25-3 25"/>
<path d="M3372 5555l 3 25 0 25-1 24-4 28-3 33-3 36-2 24-1 27 0 26 0 25 1 25 1 36 2 35 2 34 3 29 2 25 2 28 2 25"/>
<path d="M4220 5483l-20 14-8 24-5 32-3 28 0 32 1 34 1 25-1 25-1 25 0 24-1 24-2 34-1 31-2 28 0 26-1 30-2 24"/>
<path d="M4981 5281l 5 25 0 24 0 31 0 26-1 31-2 36-1 36-2 25-1 24 0 25 0 24 0 35 0 32 0 30 2 28 1 26 1 29 2 29"/>
<path d="M1918 7332l 9-24 22 13 9 25 5 27 0 24-1 27-2 28-6 29-7 31-9 31-12 31-11 28-11 25-9 24 8-33 8-34 8-24 6-24 7-24 9-22 13-33 14-30 13-26 12-21 14-21 22-10 16 19 6 29 1 30-1 31-2 27-2 27-3 24-5 29-2 25 17-24 12-26 12-28 13-29 13-27 12-25 13-21 12-23 16-19 14 23 2 30 0 25-1 24 0 24 0 30 3 27 9 24 13 21"/>
<path d="M2429 7444l 0-26 2-26-7-25-22-12-26 5-25 14-20 18-19 22-18 27-16 27-14 28-11 26-7 24-3 25 10 22 25 8 28-9 24-15 23-19 19-19 15-19 9 23 6 24 8 25 14 23 22 14"/>
<path d="M2549 7434l 17-19 24 0 26 8 23 13 19 17 18 21 17 24 14 20 18 23 18 16 22 10"/>
<path d="M2727 7357l-20 18-19 26-16 22-16 24-18 28-12 21-13 21-13 22-13 22-12 25-12 24-9 25"/>
<path d="M3033 7394l 18-20 22-12 27-11 25-11 26-8 25-6"/>
<path d="M3073 7432l 24-6 26-9 29-10"/>
<path d="M3326 7327l 5 24 3 25 1 31 1 24-1 24-3 30-3 28-5 25-6 24 9-23 9-23 10-27 13-27 15-27 16-26 16-24 18-23 17-18 21-19 23-13 24 9 10 23 4 25 3 29 1 25 0 28 0 26-1 28-1 26 4 24"/>
<path d="M4138 7298l 27-10 25-7 28-10 29-11 24-8 26-8 26-7 23-6 30-6"/>
<path d="M4202 7356l 27 2 28-7 23-7 25-9 28-9 28-12 28-11"/>
<path d="M4430 7170l 27-8 26 1 28 4 30 5 28 6 26 9 19 16-4 25-15 22-17 20-21 21-23 21-22 20-21 18-19 17-19 18-14 21"/>
<path d="M4992 7376l 14-20 26-8 27-6 30-5 28-3 26 3-13 22-21 22-19 16-21 16-24 17-23 16-21 13 21 15 24 13 22 12 22 10 23 9 27 6 28 6 28 6 24 10 12 22-1 25-13 29-18 27-19 28-23 28-22 25-21 23-22 19-20 16-25 14-26 13-25 4-23-14-6-30 2-25 8-29 12-31 12-24 14-25 17-24 17-24 20-24 20-22 22-21 22-20 23-20 23-19 23-18 24-15 23-14 21-13"/>
<path d="M5444 7315l 17-18 29-9 27-8 26-5"/>
<path d="M5421 7389l 23-10 23-10 25-7 27-8 30-8 27-6"/>
<path d="M5666 7391l 19-16 20-14 21-16 24-20 20-15 24-20 20-22 20-20 17-22 12-22-14 20 0 26 8 25 15 23 17 19 17 19 12 21-5 25-21 20-26 14-26 8-27 3-24-1-24-8 20-15 27-8 29-8 31-8 27-7 26-8"/>
<path d="M6111 7252l 1 27-3 29-3 30-6 30-8 35-8 25-9 26-8 27-9 25-8 26-9 27-9 27-9 27-8 25-8 23-10 31-6 25-7 26"/>
<path d="M6178 7266l 19-17 23-6 25 1 23 6 25 10 21 14 13 20-1 28-13 22-18 21-17 18-21 17-21 15-26 15-24 12-26 9"/>
<path d="M6542 7235l-22-10-26 0-23 15-19 22-15 22-10 22-5 26 4 24 24 11 28-6 23-12 23-16 20-18 15-22 9-22-6 25-5 27-1 25 19 15 27-10"/>
<path d="M6678 7264l-17 17-8 26 2 24 25-6 17-22 16-19 17-18 15-19 19-22 21-16 17 18 6 26 8 24 10 24 15 20"/>
<path d="M2122 8820l-19 17-14 21-8 23 14 20 19 16 25 7 24-2 23-8 12-21-9-26-15-23-16-19-18-21 24-11 26-10 21-12 23-18 18-19 20-21 20-23 19-25 17-27 18-27 17-28 14-29 14-29 14-27 12-26 13-25 11-29 8-24-14 20-12 26-13 32-9 23-9 24-10 25-9 26-8 27-7 26-6 27-5 26-4 27-2 28-1 25 0 25 2 35 4 33 7 27 11 27 15 20 23 9 21-12 16-24 6-23 0-27-7-28-15-26-21-24-22-23-22-21-22-18-23-13-24-8 24 9 29-10 27-15 23-16 25-18 25-21 25-22 23-23 77-110 7-30 5-23-10 31-5 29-7 33-5 34-4 24-5 36-3 25-3 25-2 24-3 24-4 35-3 33-4 28-3 25-4 28-5 26 16-20 14-28 12-26 11-22 13-23 12 23 3 28 5 26 6 24 12 22 27-2"/>
<path d="M2695 8773l 23-8 22-15 19-16 2-25-22-15-26 2-25 13-18 20-14 24-8 27-1 29 5 29 12 24 20 17 28 4 25-6"/>
<path d="M2806 8739l 26-3 27-7 23-6 27-5 26-5-10 24-18 22-15 21-16 23-12 24-5 27 7 24 24 9 26-6"/>
<path d="M3034 8755l-17 17-3 25 16 21 26 1 23-9 21-16 15-19 11 23 10 24 21 14 28 2 25-9 22-16 16-21 5-24-8-24-18-20-21-13"/>
<path d="M3367 8713l-8 25-4 25 0 25 6 27"/>
<path d="M3364 8584l 3 24"/>
<path d="M3510 8679l-23 9-25 14-16 18 15 19 25 3 25 7 22 13 9 24-21 19-24 11-23 8-26 3"/>
<path d="M3604 8737l 23 11 26-1 26-5 22-12 13-22-16-21-24-14-27-3-28 6-23 18-18 24-13 27-3 30 0 26 5 28 10 26 13 23 21 17 27 12 24 6 31 1 24-2 26-5 27-7 29-8"/>
<path d="M4050 8765l 22-17 23-14 25-16 27-11 23-6"/>
<path d="M4004 8885l 26-11 24-9 23-9 25-9"/>
<path d="M4176 8612l 23-14 25-2 27 1 29 3 29 5 29 7 29 9 25 10 23 11 20 15 3 25-17 22-25 20-21 17-23 16-21 18-21 17-21 15-21 18-19 17-18 17-26 19"/>
<path d="M4697 8763l 12 26-2 29-3 29-5 35-4 26-6 26-4 27-6 28-7 29-7 30-7 29-8 28-9 28-9 25-10 24-14 29-12 21"/>
<path d="M4679 8792l 17-19 19-14 24-13 23-10 24-7 28-2 24 6 21 14 12 22-1 27-15 26-18 26-19 17-22 14-20 14-26 16-23 11"/>
<path d="M4948 8727l-3 24-10 25-6 26-3 26-1 24"/>
<path d="M5000 8570l 5 23"/>
<path d="M5156 8696l-27 2-23 9-23 16-18 21-17 22-11 23-2 26 10 22 20 17 27 7 25-1 26-8 23-11"/>
<path d="M5306 8454l-8 23-3 29 2 30 0 29-1 32-4 36-3 24-3 25-4 25-5 24-7 34-7 28-8 28-7 23-10 25-3-32 7-29 9-30 9-29 10-28 12-23 12-27 10-25 16-18 26-7 27 4 23 9 20 17-2 25-19 20-22 18-21 11-23 14-21 11-22 14-10 22 19 20 22 15 25 9 28 6 25 2 25 0 26-2"/>
<path d="M5861 8821l-11 24-6 27 3 27 9 26 15 19 23 8 27-11 19-20 16-24 10-21-4-27-12-20-22-15-24-8 22 10 29-10 27-14 25-13 28-14 32-17 22-14 24-14 24-16 24-16 23-15 20-15 25-23 21-25 12-25 9-27 4-26 0-26-3-30-9-25-23-13-22 9-19 20-18 23-12 22-13 25-12 29-15 32-14 33-13 36-15 38-11 40-11 40-10 42-8 42-7 42-6 40-3 37-1 37 0 32 1 30 2 27 6 33 10 27 11 23 21 11 22-14 17-29 12-30 10-34 5-26 3-27 2-29 1-28-1-29-2-30-3-28-3-28-4-28-3-25-6-31-8-26-13-22 25 7 27 3 31 2 25 0 24-2 32-6 26-8 28-14 28-17 31-21 18-16 17-18 16-18 18-27 15-28 10-30 7-31 4-30 2-26-1-28-12-24-27-5-21 16-20 22-17 25-15 30-12 24-10 27-10 31-10 33-11 36-11 40-11 41-10 44-9 44-9 44-6 43-5 40-3 38-2 34 1 32 1 28 6 34 8 27 15 23 22 15 25-5 20-18 15-21 12-24 9-28 9-30-1-33-5-35-6-24-7-25-8-25-7-26-8-24-8-22-14-30-13-22-17-18-22-11 26 3"/>
<path d="M6851 8802l 5 24 24-4 25-18 26-21 18-17 22-19 21-19 20-21 19-20 18-21 17-22 17-21 15-21 13-21 10-22 13-33 5-32-1-29-4-27-4-31-6-25-26 6-22 22-15 21-18 26-17 29-11 24-13 25-9 28-10 29-9 30-5 30-7 30-3 31-2 28-1 28 2 25 5 35 7 31 13 22 20 20 24 11 25 1 25-8 28-15"/>
<path d="M7176 8749l-25 1-21 13-14 21-10 23 1 28 12 22 26 9 27-4 24-14 19-16-3-25-17-22-19-20 19-21 24-5 27-4 26-4 22 10-7 24-7 26-5 25 23 11 23-11 20-15 18-17 6 24 9 23 17 19 27-4 21-14 20-20 14-23 8-23 1-26-5-27-9-23"/>
<path d="M7600 8912l-17 17-16 19"/>
<path d="M7893 8760l 23-16 27-7 24 1 26 8 3 25-20 15-23 12-25 10-24 11-22 13 12 23 20 18 26 17 22 14 21 14 23 18 20 22 19 22 14 23 8 25-1 28-7 30-14 21-16 23-22 22-23 19-22 17-23 12-26 8-25-1-22-14-16-24-5-26-3-31 3-35 3-26 7-27 9-25 12-26 13-24 15-25 15-25 16-23 16-24 18-22 17-19 18-18 26-23 24-21 24-18 23-14"/>
<path d="M8240 8683l 22-12 26-6 27-2 24 0 26 5"/>
<path d="M8253 8718l 26 2 26 6 28 4"/>
<path d="M8470 8796l 25-2 24-9 22-12 24-16 22-18 19-18 20-21 16-24 11-23 19 15 14 25 14 22 12 23 9 22 4 25-7 23-23 11-27 5-25-3 10-23 27-9 26-7"/>
<path d="M8938 8634l-23 16-13 25-5 26-4 31 0 26-3 27-4 31-3 32-6 35-6 35-6 24-7 26-8 25-8 26-9 24-9 22-14 31-14 26-13 23"/>
<path d="M8926 8732l 17-17 25-9 26 6 23 12 20 15 14 21-15 22-23 13-23 10-22 10-23 9"/>
<path d="M9219 8671l-27-5-28 4-26 12-22 16-19 20-12 23 7 25 24 0 27-7 21-12 19-16 17-18 1 25-2 24 18 19 25-7 22-11"/>
<path d="M9324 8699l-14 20 3 25 24-1 20-17 22-19 23-15 20 15 0 26 3 25 15 21"/>
<path d="M3018 11489l 17-18 25-11 24-8 26-8 29-10 30-9"/>
<path d="M3028 11495l-19 18-14 21-12 22-10 24-7 23-5 28-1 26 10 22 22-8 21-15 25-13 22-10 23-8 25-6 24-4 24 0 24 6 16 21 2 29-8 25-9 24-14 24-16 24-16 20-17 20-21 23-21 18-20 13-25 7-24-3-13-20"/>
<path d="M3347 11477l 24-10 28-10 26-10"/>
<path d="M3309 11538l-23 14-10 24-3 26 24 11 26-13 25-14 26-12 27-11 26-7 27-2 25 7 16 21 3 25-3 26-6 24-11 24-14 24-17 24-21 21-25 20-27 16-27 12-25 7-26 4-24-6"/>
<path d="M3558 11786l-16 20-14 22-12 22-12 24"/>
<path d="M3863 11468l 26-8 28 1 25 5 23 7 24 12 14 22-4 25-14 24-17 19-21 20-23 21-25 22-25 22-27 19-23 18-20 16-22 21-17 18 22 13 28-6 26-3 31-8 26-7 27-7 28-8"/>
<path d="M4270 11476l-8-25-11-21-16-20-22-10-23 5-21 13-25 19-18 18-17 22-15 24 2 25 16 24 19 17 25 17 25 12 28 15 28 17 24 21 20 23 14 24 6 28-4 25-16 24-23 19-22 12-24 10-25 5-24 2-29-3-22-12-18-18-13-23-4-28 4-33 8-23 14-24 17-24 20-24 20-23 22-20 23-18 25-16 24-14 24-13"/>
<path d="M4865 11553l 27-13 24-7 28-10 29-6 29-6 27-6 29-5"/>
<path d="M4867 11642l 22-10 24-8 25-9 24-7 22-8 25-9 23-9"/>
<path d="M5087 11422l 27-6 25 4 26 7 25 11 23 12 22 16 13 21-4 27-15 20-19 19-22 20-21 22-17 17-22 21-21 18-18 18-17 19"/>
<path d="M5690 11361l 1 29-4 26-8 31-6 23-7 25-7 26-9 27-6 27-6 28-6 26-3 26-4 26-5 34-3 34-4 29-5 28-5 31-4 25-5 23"/>
<path d="M5952 11903l-6 23-8 25-13 25-14 23"/>
<path d="M6318 11444l 27 8 26 11 22 13 20 17 11 23-9 24-17 22-21 20-19 17-20 17-22 17-20 16-20 16-18 16-21 19-17 18-8 24 17 17 28 6 28 2 25 0 31-2 25-4 28-4 27-8 27-10 26-12"/>
<path d="M6643 11407l 22-14 27-6 31-6 26-4 27-2 25-1 28 3 25 4 22 11 9 23-9 26-13 25-16 24-16 28-18 30-15 22-12 23-10 25-11 25-8 23-10 32-7 29-5 31-3 27-2 29-3 25"/>
<path d="M2861 13151l 1 24-3 27-1 24-3 26-3 27-4 29-4 28-4 27-4 26-5 25-6 30-6 27-3 25"/>
<path d="M3192 13184l 1 24 9 24 8 26 5 26 4 29 0 26-4 25-6 26-6 23-8 25"/>
<path d="M3534 13043l 27-6 25-5 28-6 24-5 29-5 26-6 27-5 26-4 17 17-4 25-8 25-9 31-9 24-8 25-8 25-9 25-7 25-6 24-7 23-9 30-6 28-6 28-7 24"/>
<path d="M2690 12459l 23-11 26-6 24-6 25-6 26-9 24-7 23-7 24-8 25-7"/>
<path d="M2800 12452l-20 15-19 17-16 22-14 22 1 24 26 7 24-4 24-5 26-4 27-2 24 2 24 9 13 22-3 30-12 26-13 22-17 25-21 23-21 23-25 22-26 21-27 19-28 15-25 13-28 9-29 0-21-13-5-28"/>
<path d="M3109 12453l 25-11 28-5 28-4 28-2"/>
<path d="M3143 12468l-20 14-19 21-16 21-13 21-10 23-8 25-3 25 26 3 26-7 24-7 27-6 26-3 28 3 24 8 16 22-4 25-13 27-17 23-19 21-22 18-23 15-24 10-27 10-28 3-19-17"/>
<path d="M3562 12429l-14 20-8 24-5 23-3 27-1 29 1 32 1 27 4 28 5 26 9 29 13 24 18 23 25 14 25 4 25-4 26-11 22-14 20-18 10-22-20-17-30-7-28-4-28 0-28 9-25 15-22 17-19 18"/>
<path d="M6045 12522l-22 12-19 24-18 26-14 21-14 23-14 24-13 26-12 25-10 25-7 26-5 25-3 24 0 24 1 34 5 29 7 24 14 26 21 19 26 6 24-4 27-13 21-13 18-17 17-17 15-22 7-24-10-25-20-16-27-12-25-6-25-1-28 6-28 12-22 15-13 23"/>
<path d="M6338 12585l 24-1 28-2 28-5 25-6 25-7 26-10"/>
<path d="M6417 12548l-22 13-21 13-15 20-15 23-14 21-13 23-11 23-6 25 12 21 24 1 24-7 27-5 26-4 27 2 25 7 26 10 20 15 13 22-4 27-13 26-19 22-20 16-20 16-21 15-27 16-28 12-25 6-25-3-21-12-7-24"/>
<path d="M6681 12546l 27-5 27-2 26-3 28-4 24-6"/>
<path d="M6708 12569l-20 17-17 21-17 20-17 25-12 21 0 24 19 16 25 1 26 0 25 3 25 3 28 8 28 9 24 13 18 20-2 26-12 21-19 22-19 15-22 12-25 11-27 4-26-5-24-7-26-9"/>
<path d="M5953 13321l 2 30-3 27-5 29-5 25-6 27-6 26-7 26-9 26-9 26-7 26-11 30-8 28-8 24"/>
<path d="M6385 13274l-8 23-7 28-6 23-8 26-9 31-7 26-8 26-8 28-7 25-9 29-9 24-9 24"/>
<path d="M6623 13250l 27-7 23-6 24-7 26-3 24-7 24-9 25-1 23 10 0 27-7 30-10 24-12 26-11 31-15 33-10 23-10 25-11 23-10 23-8 23-10 31-7 30-6 29-4 25-4 24"/>
<path d="M3318 14834l-14 21-13 21-13 22-14 22"/>
<path d="M3693 14442l-20-16-27-5-28 4-25 14-18 17-19 20-11 23 6 25 23 16 27 13 25 9 26 12 24 14 22 18 19 19 16 21 14 21 10 25 3 28-7 29-12 24-17 26-22 25-24 26-18 17-25 23-25 21-22 14-28 12-24 4-26-9-16-18-9-27-3-26 0-29 7-31 9-34 9-24 8-25 11-25 12-23 12-22 13-20 19-28 17-24 20-19 21-17 23-15 23-11"/>
<path d="M4307 14704l 26-3 25-2 28-1 32-4 31-4 28-4"/>
<path d="M4327 14788l 28-5 27-4 27-5 30-8 30-8"/>
<path d="M4459 14621l 25-5 25-3 24 0 28 2 24 8 15 19-6 24-14 23-16 22-16 23-18 24-19 22-18 21-17 24-12 21"/>
<path d="M2650 14345l-13 21-14 25-18 31-13 23-13 22-15 22-14 23-14 22-14 22-17 30-13 23-12 24 0 24 25 9 27-4 24-6 27-7 27-8 26-9 27-8 23-5 25-3"/>
<path d="M2659 14511l 3 27 0 25-2 28-5 28-7 29-6 28-6 26-5 27"/>
<path d="M2891 14406l 23-12 26-8 25-10 27-7 28-7 25-8 26-5 24-4-6 26-12 30-13 25-13 30-13 32-9 23-10 25-10 26-8 25-9 24-11 34-9 31-6 29-5 26-3 26-5 25"/>
<path d="M4962 14528l 27-4 23-5 26-8 24-6 27-6 28-8 25-7"/>
<path d="M4993 14542l-24 5-15 22-11 26-9 26-4 26-1 24 4 26 27 4 26-8 24-7 26-6 24-6 26-6 24-2 24 10 10 24-3 25-10 26-12 27-15 22-20 21-21 21-21 18-22 15-26 12-25 4-22-14-8-26 7-24 20-22"/>
<path d="M5301 14884l 0 27-7 27-12 26-15 25-17 28-13 22-14 21-15 25"/>
<path d="M5599 14412l 24-9 25-3 27-2 25-3 27-2 25-2 20 15-6 24-7 24-9 32-9 30-12 34-10 24-8 25-11 27-11 26-11 27-9 25-11 25-9 22-15 31-10 25-11 28-11 25-11 25-11 24"/>
<path d="M2600 15554l 0 25-5 28-4 24-6 29-5 24-7 25-5 27-7 25-5 23-7 30-6 27-7 28-5 26-8 23"/>
<path d="M2850 15538l-6 24-2 27-1 32-2 31-3 37-2 28-3 29-4 31-4 30-3 30-4 29-4 26-3 25-4 32-1 30-1 24 2 24"/>
<path d="M3055 15944l 4 26 2 25-3 25-11 27-14 24-13 21"/>
<path d="M3365 15575l 26-8 26 6 24 8 23 12 21 16 20 18 18 21 7 23-2 25-10 22-17 23-17 18-21 20-22 22-24 22-23 22-23 22-20 21-19 19-19 21-15 19 20 17 28-3 26-2 29-4 27-3 24-2 27-2 28-3 25 1"/>
<path d="M4167 15670l 27 4 29 0 26 1"/>
<path d="M4125 15761l 24-4 25-6 31-7 26-6"/>
<path d="M4299 15613l 25 0 25 6 23 10 18 17-3 25-13 22-16 21-19 25-18 25-16 26-16 24-17 25-15 19"/>
<path d="M4832 15605l 24-9 25-7 27-7 25-7 25-9"/>
<path d="M4856 15628l-19 17-11 22-6 24-6 26 0 25 9 23 25 11 25-3 26-9 24-9 24-6 29-7 26-3 26 1 24 7 20 16-1 26-17 22-20 21-23 16-24 15-24 13-27 10-26 5-25 3-24 1-24-7"/>
<path d="M5191 15930l-10 23-10 22-13 22-15 21-21 20"/>
<path d="M5523 15481l-5 29-7 26-5 25-3 25-4 29-4 31-4 33-4 36-4 34-5 33-3 32-4 31-3 27-4 30-5 25-7 27-6 25"/>
<path d="M2397 16709l-1 28-3 30-4 30-6 31-5 25-5 24-6 24-7 25-8 26-7 26-7 23-8 25-8 24"/>
<path d="M2538 16709l 16-20 25-7 29-5 24-1 29 2 27 4 20 13-10 24-24 19-25 18-20 14-26 17-25 15-24 15-21 12 27-6 26-8 23-5 26-3 28-3 28 0 26 3 25 7 21 11 4 26-11 23-17 21-23 20-21 15-21 14-22 11-28 15-24 9-28 9-26 4-24 2-25-3-14-21"/>
<path d="M2873 16942l-7 26-9 26-14 25-15 24-16 25"/>
<path d="M3265 16659l 25 6 28 5 27 6 29 5 28 6 27 8 23 9 22 16 7 27-10 29-19 26-23 23-28 23-21 16-22 16-23 15-22 16-22 15-20 16-19 15-24 19-21 18-18 19-19 19 23 9 24-5 29-8 26-8 27-7 28-7 30-7 32-8 24-5 35-8 25-6"/>
<path d="M4003 16705l 27-1 29 0 25-1 28-1 27 0 25 0"/>
<path d="M3975 16818l 22-12 28-8 26-5 27-3 31-5 26-3 24-4 30-6 27-7"/>
<path d="M4186 16625l 27-2 25 1 24 6 24 11 23 12 15 20-6 25-14 22-15 21-16 20-16 19-16 17-22 19-22 15"/>
<path d="M4885 16609l-20 20-18 25-15 25-14 29-13 30-12 29-7 29-6 28-2 28-1 27 0 28 7 28 17 19 24 15 28 7 29-3 27-10 21-13 13-22-16-19-22-15-23-13-25-4-24 3-22 12"/>
<path d="M5124 16933l-5 26-9 26-15 21"/>
<path d="M5388 16609l-4 24-5 28-6 25-6 25-6 25-3 25-4 26-2 24-3 31-4 28-2 25-1 24-2 26-4 25"/>
<path d="M11391 13403l 15-25 14-20 13-25 10-22 11-28 8-25 6-28-2-25-10-24-24-15-25-2-25 6-27 13-28 22-21 18-21 21-20 21-19 23-18 23-15 22-13 20-15 28-8 26-1 28 12 23 23 9 28-4 22-11 28-15 29-20 21-13 20-15 21-15 20-13 26-19 20-16 18-17-6 25-12 24-12 25-8 28-6 23-5 27-4 28-3 28-3 30-4 32-5 31-3 31-4 27 0 25 2 27 8 24"/>
<path d="M11920 13300l 8-28 5-25 4-24-7-26-24-11-30 7-24 13-25 18-27 22-23 24-20 22-13 21-12 26-4 28 11 24 20 14 25 0 27-7 23-9 28-9 25-10 22-10 21-13 21-15 17-18-14 21-10 25-4 24-4 29-5 30-3 30-1 30-1 26-1 28 2 27 7 26"/>
<path d="M12681 13284l-2 28-9 29-8 26-11 28-8 23-12 30-13 23-12 24-11 23-12 30-11 25-2 25"/>
<path d="M12821 13366l-19 19-17 25-12 22-9 23-6 28-1 25 5 23 14 21 18 18 24 11 27 6 30-1 25-9 22-13 20-18 15-20 13-25 4-28-5-30-4-24-10-26-17-20-23-11-30-1-24 4-26 9"/>
<path d="M11126 12538l-4 28-1 30-1 26-4 28-5 24-7 24-7 24-8 24"/>
<path d="M11926 12477l 24 2 25 15 21 14 22 13 22 14 19 18 9 24-7 26-13 22-21 22-20 16-20 15-20 16-21 15-23 12-26 16-20 13-18 18 16 20 29 8 28-2 24-1 26-1 25-1 25-1"/>
<path d="M12775 12579l 24-2 26 3 26 4 26 6 21 14 16 21 6 25-10 25-17 18-21 20-21 15-20 15-18 18 1 24 25 4 27-3 27 0 28-1 28 3 22 10"/>
<path d="M12762 11221l 0-24-17 19-15 22-13 22-13 21-15 26-10 24-9 26 0 25 17 17 24 2 29-6 31-10 30-15 23-12 21-11 28-15 25-11 25-11"/>
<path d="M12845 11289l-17 18-6 24-4 27-4 26-2 26-1 24 4 27 3 24"/>
<path d="M13081 11189l 22-11 26-3 29 0 26 5 25 10 18 16-5 27-15 20-20 22-19 15-20 16-22 16-20 16-23 19-21 19 21 11 24-6 26-11 26-11 25-9 25-5 25 7"/>
<path d="M10361 14872l-17 23-10 23-11 27-10 28-10 31-9 30-8 27-8 29-10 25-12 24"/>
<path d="M10531 14874l-20 15-11 23-11 23-9 25-7 28-2 27 3 25 8 26 12 22 17 19 25 8 26-1 25-12 20-18 17-18 19-22 20-27 18-27 17-26 13-23 12-22 6-26-4-29-15-21-18-19-21-14-30-8-27-2-31-1-27 2-29 2-26 6"/>
<path d="M10861 15148l-3 25-9 23-13 24-17 24-16 21-15 22"/>
<path d="M11147 14859l 20-14 19-15 25-10 24-8 26-1 28 6 22 12-8 23-18 17-21 16-25 16-24 14-24 14-21 13 18-16 22-13 23-9 28-6 25 0 25 5 21 13 16 18 10 22 2 25 4 26-6 25-11 22-16 19-20 18-25 16-25 13-25 12-24 9-25 1-23-10-16-19"/>
<path d="M10287 15752l 5-24-8 26-10 26-9 30-9 29-8 23-9 23-9 25-9 22-8 23-10 28-3 27"/>
<path d="M10486 15780l-17 23-7 29-6 28 0 31 5 25 5 23 9 29 16 23 19 18 23 10 26 0 28-10 27-16 20-16 17-18 16-20 17-26 8-24 2-28-7-26-14-23-20-22-21-20-22-14-22-10-26-3-24 10-19 21-14 24-8 29"/>
<path d="M10838 15972l-14 20-9 25-9 28-7 25-3 26-6 26"/>
<path d="M11101 15671l 23-8 28 0 25 3 25 5 24 7 10 23-16 19-21 21-20 17-23 17-23 15-21 12 25-1 28 3 25 1 24 1 25 1 26 4 22 9 11 23-9 24-12 22-16 24-19 16-24 18-24 14-27 8-27 3-25-3-23-11-20-17"/>
<path d="M10227 16503l-8 24-7 24-8 32-7 23-6 23-5 31-5 29-4 29-2 27-5 24-9 25-6 24"/>
<path d="M10482 16481l-9 26-4 27-1 24-2 24-1 25-2 25-4 28-6 26 6 25"/>
<path d="M10692 16733l 21 13 1 26-10 25-12 25-14 24-13 21-18 23"/>
<path d="M11062 16461l 1-24 19-16 24-3 25 1 23 6 27 8 20 16 6 24-6 28-13 28-15 27-12 22-15 20-16 21-18 19-18 20-19 19-18 17-23 20-22 19-21 17 23 16 28 1 24-2 26-2 25-4 25-4 25-3 30-4 24-4 26 0"/>
<path d="M2525 21044l 18-18 24-9 26-7 26-8 25-8 26-7 31-4 29 3 27 8 22 14 18 19 13 21 12 26 6 28-1 25-7 25-9 29-15 23-19 23-26 22-24 23-26 22-27 21-25 21-23 18-23 18-20 17-20 16-24 18-22 14-22 14-24 10 26-5 30-3 29-3 26-4 27-5 30-6 34-5 33-6 29-3 25-1 29 0 25 2 24 4 23 9 22 10"/>
<path d="M3647 21103l 17-20 25-16 24-12 25-10 23-5 25 0 24 7 20 14 16 19 9 26-7 30-18 25-19 23-22 24-25 25-19 16-18 17-20 16-20 16-20 16-19 15-19 16-27 21-22 20-20 17-22 17-21 15 25 10 29-4 25-4 29-5 31-5 33-4 31-3 28-3 25-3 25-1 24 0 28 1 25 3 25 4"/>
<path d="M4709 21080l 2-24 23-12 26 0 25 1 25 4 25 6 29 9 25 13 20 20 11 24 3 28-8 26-11 23-18 24-19 26-23 24-25 25-26 23-25 21-25 20-24 19-23 18-22 18-23 19-18 17-18 18 27 5 25 0 24 0 29 0 31 0 31 0 25 0 32 0 31 1 24 2 26 4-6 25"/>
<path d="M2486 19799l 17-19 25-11 24-9 26-6 28-4 26-2 25 1 24 4 21 13 1 27-16 22-18 17-18 18-19 17-21 19-18 16-21 17 25 4 28-1 25 0 25 2 28 3 27 5 26 9 25 13 18 21 3 24-10 29-11 22-15 24-16 22-19 18-19 17-19 16-27 15-25 9-28 5-27 2-28-3-27-6-27-7-23-9-24-9"/>
<path d="M2533 23603l-23 12-21 22-19 25-15 21-15 22-15 22-13 23-12 22-12 27-8 24-2 27 10 23 21 17 31 5 24-1 27-4 29-8 30-9 31-11 29-10 28-9 25-8 25-6 27-8 23-8"/>
<path d="M2648 23693l-14 25-1 30-2 28-5 30-4 30-6 30-6 31-5 33-5 30-4 30-4 28-4 26-4 28"/>
<path d="M2440 24589l 23-11 25-3 29 1 25 2 25 2 26 4 24 3 31 7 29 8 23 10 14 21-6 26-21 25-24 22-27 23-19 17-20 17-22 18-24 19-25 18-25 18-25 18-22 19-22 19-19 17-25 23-20 18-20 20-15 20 24 6 26-4 25-5 28-6 27-6 34-9 24-6 28-5 25-6 26-6 25-3 24-5 24-2"/>
<path d="M3594 24664l 26-10 26-4 29-3 28-1 30 1 25 3 24 6 22 11 4 26-16 23-17 17-22 20-28 21-21 15-22 14-23 15-23 14-28 20-24 17-21 20-14 20 12 22 25 0 28-4 32-6 27-5 27-6 27-7 28-6 29-7"/>
<path d="M4855 24616l 27-4 27 2 28 1 24 3 24 6 24 6 26 10 20 16 5 26-12 23-17 16-23 18-23 15-25 13-28 16-32 16-30 15-30 13-26 12-22 11-22 16 21 16 29-2 25-3 27-3 29-7 30-5 32-6 33-4 35-7 32-9 31-6"/>
<path d="M5889 24487l 24-4 28 6 24 7 25 7 25 7 27 11 23 15 7 24-11 25-16 18-20 17-20 15-22 13-25 12-27 10-28 10-25 8-25 8-22 10 22 9 29-3 24-2 26-2 28-1 30-3 25-2 31-1 24-1 30 2"/>
<path d="M2810 27626l 25-8 31-9 25-4 31-6 26-4 26-3 25-5 28-9 25-10 23-12 22-10"/>
<path d="M2976 27602l-11 23 0 27 6 29 3 27 7 28 6 26 4 26-1 28-9 24-10 24"/>
<path d="M2829 27953l 23-14 23-8 32-10 27-7 29-8 29-8 26-6 25-8 30-9 29-5 29-3"/>
<path d="M3815 27527l 6 28 7 29 4 26 6 28 6 26 10 27 8 28 9 28 7 28 7 25 7 24 9 26 12 21 25 2 22-19 20-26 14-22 16-24 15-26 15-26 15-27 14-27 11-26 11-28 8-28 8-29 8-28 6-27 6-26 6-34 6-28 4-27"/>
<path d="M4685 27425l 5 29 3 28 3 26 5 28 6 24 5 26 7 26 5 26 6 26 5 23 9 24 9 25 12 21 26-3 21-21 21-25 20-29 14-21 13-22 14-22 13-25 14-24 11-26 12-28 11-25 10-27 10-26 8-25 9-32 8-24 9-23 8-23"/>
<path d="M2748 29262l 23 7 31 1 30-3 24-7 27-8 29-9 29-11 26-12 24-11 29-13 25-12 26-11"/>
<path d="M2947 29249l-2 24 0 31 0 28 1 28 2 29 1 31 0 32-1 33-2 35-1 24-2 25-4 24-4 24-5 24-9 34-7 32-6 29-6 27-5 24-5 28"/>
<path d="M2715 29842l-24 3 23 14 29 6 27 4 27 3 26 3 25 3 28 2 31 2 25 2 25 2 25 0 25 1 28 1 27 6"/>
<path d="M3983 29444l 23 17 16 19 17 24 17 23 16 24 18 21 17 19 19 22 16 19 17 17"/>
<path d="M4152 29463l-27 6-24 13-23 19-17 19-16 19-14 22-12 25-10 22-11 25"/>
<path d="M5081 29218l 24-5 27-6 25-7 29-8 28-7 28-7 26-5 31-7 26-3"/>
<path d="M5260 29221l-14 25-4 26-3 25-2 28-5 30-2 33-3 32-1 33-3 30-2 30-3 31-4 28-6 28-9 25-9 24-13 22"/>
<path d="M4993 29768l 26-12 24-2 30-3 25-2 27-1 29-2 27-1 28 0 25-1 24-2 30 0 25-1"/>
<path d="M6313 29301l 22 15 20 18 19 16 23 17 22 14"/>
<path d="M6474 29292l-23 5-22 14-19 17-18 18-20 22-15 19-14 20"/>
<path d="M4935 30055l 25-9 26-5 31-6 27-1 33-3 25-3 27-1 29-3 31-2 32-2 34-3 36-4 39-4 38-5 43-5 42-5 46-5 47-5 24-2 25-3 25-4 26-3 26-3 26-2 25-3 25-3 27-2 26-2 25-2 27-1 25-2 26-2 25-1 28-1 24-1 24 0 24-1 47-2 25 0 44-2 42 0 41 0 37 2 36 2 34 3 30 3 30 2 26 3 25 2 25 2 31 4 27 4 25 3 25 3"/>
<path d="M8071 29623l 24-1 25-13 22-14 24-20 19-16 19-17 20-20 20-22 19-22 20-22 17-23 17-24 15-24 15-23 12-25 10-23 10-24 7-24 8-32 9-29 7-27 4-29 0-26-24-7-20 17-19 23-13 23-13 29-11 23-10 25-9 28-9 30-7 31-8 30-7 30-4 28-3 27-1 27 1 24 3 33 7 27 13 25 23 16 26 5 31-8"/>
<path d="M8461 29522l 24 1 24-10 23-12 24-15 7-24-21-16-23-8-25-3-28 4-22 12-22 18-13 22-4 26 7 25 14 20 24 11 28-1 28-5 31-8 25-9 26-10 26-12 26-13 24-16 20-14 19-16 19-19 19-22 18-24 18-29 15-33 11-24 8-25 8-26 7-27 5-26 6-24 6-23 7-33 6-26 2-25 1-28-25-7-19 26-18 28-11 22-12 25-12 29-12 32-12 35-11 38-10 42-10 44-10 45-9 46-7 46-7 47-6 46-6 47-4 45-4 42-2 41-1 39 3 35 2 33 4 27 5 34 8 27 11 21 26-9 10-30 8-33 2-25 1-27-1-29-4-30-3-31-4-29-4-29-4-29-5-28-6-25-9-31-9-22 30 5 26-12 22-13 24-16 22-18"/>
<path d="M8988 29203l 2-25-12 27-8 29-9 30-7 26-8 33-10 35-5 25-7 24-6 24-7 26-8 25-4 25-6 25-5 35-1 29 3 25 10 23 21 15 25-8 20-16 18-25 15-25 12-24 4-25-3-25"/>
<path d="M8924 29413l-27-1-25 4 24-9 27-9 28-10 27-7 30-5 27-5 28-3 27-2 27 0"/>
<path d="M9187 29423l-27 14-21 16-18 17-13 20 2 25 22 16 28-2 26-8 25-11 16-21-7-24-22-15-19-15 23-10 24-12 23-10 24-8 17 19 11 24 6 24 6 26 10 25 19 15 17-17 15-25 11-24 5-26 6-26-1-24"/>
<path d="M9459 29404l 24 7 25-5 23-13 11-22-19-15-25-5-24 6-19 18-17 24-7 23-3 27 1 26 15 21 24 7 28-3 28-7 24-6 23-8 27-8"/>
<path d="M9723 29384l 20 15 2 24-17 22-18 19-16 18-6 24 19 16 24 4 25 0 27-8 23-8 25-8"/>
<path d="M2612 31383l 26-3 30 0 30-6 27-8 29-10 28-11 26-10 27-10 25-11 25-10 24-8 27-10 26-7"/>
<path d="M2825 31338l-21 13-10 25-4 28-4 29-3 25-4 27-3 26-4 27-3 26-2 25-3 24-2 24-6 30-7 25-8 23"/>
<path d="M2587 31794l 27-1 25 2 31 1 26-3 28-3 31-5 33-7 35-7 31-9 31-8 31-8 32-6 28-7 24-5 28-5"/>
<path d="M3225 31371l 8 30 9 27 8 29 11 31 11 31 13 28 13 28 14 27 14 23 16 20 18 18 26 10 27-10 22-23 18-25 18-30 13-22 11-22 9-22 9-22 8-25 8-25 7-25 6-26 4-27 6-25 9-32 6-24 4-26"/>
<path d="M2547 32047l 23-9 27-2 26 0 30-2 34-3 26-2 28-2 29-2 31-3 33-4 33-3 37-4 38-5 38-4 40-6 40-5 40-5 40-4 39-5 38-4 38-4 37-4 35-4 36-3 37-2 34-2 34-2 30-2 29-1 27-2 24-1 32-2 27-2 25 0"/>
<path d="M4706 31430l 27-5 30-3 26-3 28-6 31-7 32-7 33-7 29-5 24-5 28-6 25-1"/>
<path d="M4857 31463l-15 21-3 29-5 26-7 28-6 30-6 24-7 26-8 27-9 25-10 27-12 26-10 25-13 27"/>
<path d="M4626 31842l 23-8 25-1 28 1 25 1 26 3 27 5 29 3 24 2 25 2 29 2 30 1 29 0"/>
<path d="M5981 31562l 23-12 25-7 25-6 27-5 26-2"/>
<path d="M5987 31638l 23-7 29-4 27-4"/>
<path d="M7071 31187l 24-6 29-5 29-6 24-5 24-6 28-8 23-9"/>
<path d="M7124 31189l-19 15-16 24-11 22-6 24-3 26 0 27 11 22 27 3 25-8 25-11 25-11 24-11 25-7 24-1 25 8 23 11 22 12 20 19 13 23-1 26-16 26-19 23-18 19-20 17-21 15-26 16-22 11-23 10-23 7-29 5-28 2-24 0-27-7-10-22 17-22"/>
<path d="M7571 31367l 26-4 22-8 28-10 25-11"/>
<path d="M7662 31271l-13 20-8 28-7 28-2 29-1 25-3 25 4 28 17 21"/>
<path d="M7890 31213l-8 27-5 24-4 27-3 29-4 31-3 24-1 31-3 29-1 24 10 24"/>
<path d="M8098 31374l 23-9 29-5 28-5 28-4 31-5 34-4 29-4"/>
<path d="M8581 31171l-17 20-6 24-3 30-2 29-2 29-5 29-1 26-3 26 0 27 3 27"/>
<path d="M2943 33500l 25-5 27-5 27-8 28-9 23-8 23-8 24-9 24-9"/>
<path d="M3025 33509l-13 23 3 25 1 26-1 31-2 26-2 28-3 27-3 28-5 27-5 27-4 26-7 26-9 22-11 30-12 26"/>
<path d="M2841 33907l 26-2 29 0 28-3 28-6 25-4 25-5 24-5 26-5 25-6 25-6"/>
<path d="M3269 33702l 20-15 26-2 24-2 29-1 26 0"/>
<path d="M3515 33815l 27 2 28-4 27-5 27-8 27-12 22-14 13-20-19-19-24-1-25 10-24 15-20 17-20 19-18 23-16 22-10 22-3 25 4 24 19 17 25 2 26-4 30-13 26-12 26-15 27-17 26-18 25-17 24-19 23-19 20-20 18-21 15-23 15-24 13-26 11-28 8-29 6-30 3-34 3-35 0-34-1-30-2-26-3-28-7-23-21 13-15 24-10 23-9 25-9 28-8 32-9 33-8 33-6 34-4 35-3 35 0 32 2 28 6 32 8 25 11 22 23 14 25-8"/>
<path d="M3974 33700l-14 20-2 27-1 27 3 26 5 25 8 23 21 13"/>
<path d="M3959 33770l 21 14 25-6 24-14 19-17 12-21-4-25-23-14-24 3-22 12-20 19-14 20-10 27-6 26 1 25 7 24 16 20 25 12 26 6 24-3 28-5 25-8"/>
<path d="M4033 33659l-1 24-7 31-8 25-7 27-8 27-6 27-6 28-4 25-1 30 2 26 6 28 14 19 24-9 19-22"/>
<path d="M4025 33537l"/>
<path d="M4295 33737l-23-17-24-11-26-6-27 2-23 10-21 20-14 21-12 26-7 23-3 25 12 24 24 16 30-1 27-9 26-13 23-15 20-15 18-17 18-19 11-24-16 19-8 28-1 25 1 28 3 28 2 25 3 26 5 29 5 30 4 31 2 32 0 33-2 32-4 34-6 32-8 29-11 25-12 20-19 25-19 19-27 8-25-8-19-18-16-28-12-26-12-25-10-25-10-31-6-26-1-25"/>
<path d="M4564 33915l-5 24-7 28-8 28"/>
<path d="M5150 33482l-1 24 2 28 1 25 3 26 4 26 6 27 5 30 7 30 5 31 6 30 5 31 5 31 4 27 5 24 7 30 7 23 12 24 25-8 15-23 10-26 11-28 11-31 11-34 7-24 8-25 8-26 7-28 8-28 8-29 8-28 9-27 7-25 10-33 6-28 6-28 3-24"/>
<path d="M5521 33687l 22-10 26-10 25-8 27-9 23-8"/>
<path d="M5800 33716l 26-6 28-6 27-9 26-9 17-17-19-16-29 3-25 12-24 12-21 16-18 18-15 22-11 25-6 27 1 27 6 24 19 20 24 11 24 4 31-2 25-6 25-10 26-11 24-13 28-16 26-18 25-21 23-21 20-23 18-27 13-29 11-29 9-30 7-33 4-24 4-36 5-34 3-30 2-24-2-25-11-21-17 23-9 24-12 28-10 25-9 29-8 32-8 34-5 25-4 24-6 23-5 25-4 25-3 25-1 33 0 30 3 25 10 27 19 21 24 4"/>
<path d="M6206 33708l-17 18-7 24 1 25-1 25 4 28 18 19"/>
<path d="M6270 33544l-23 10"/>
<path d="M6416 33737l-18-20-22-13-28 4-24 16-18 18-17 22-15 25 0 25 10 24 22 13 28-2 23-11 20-17 20-19 17-22 11-21 0 26-4 28-6 25-3 29-3 26-3 30-4 32-5 33-6 35-5 36-3 24-6 35-6 24-6 25-6 25-7 25-7 24-15 32-14 28-16 24-19 23-19 15-18-16-9-23-3-25-2-30 3-37 2-26 5-29 6-30 7-30 11-29 10-28 12-25 12-25 10-22 19-29 17-27 17-23 16-22 16-20"/>
<path d="M12946 27468l 23-15 29-4 25-3 28-5 31-6 36-7 32-8 31-7 24-6 25-6"/>
<path d="M13073 27480l-7 24 2 26-1 27-4 31-3 24-4 25-4 25-5 24-6 25-5 23-5 24-9 23-9 23-14 27-18 24-13 22-13 20-24 12-25 5-25-2 25-12 26-2 30 0 25 0 29 1 27 1 26 0 27 0"/>
<path d="M13450 27478l 12-21 24-8 25 1 25 8 25 9 21 12 16 18 2 26-11 24-18 23-18 19-19 19-19 21-18 19-16 22-14 21-11 25-3 28"/>
<path d="M13469 27870l"/>
<path d="M13770 27548l 4 24 2 30 6 27 6 27 9 32 7 24 8 24 9 29 11 28 11 22 13 21 18 16 24-11 20-20 14-22 13-24 13-25 10-29 10-30 9-33 9-34 7-31 5-31 5-26 5-26 0-25"/>
<path d="M5779 34531l-5 27-6 24-3 27-3 27-4 30-2 28-4 26 0 31 4 29 2 27 4 27 1 25"/>
<path d="M5890 34442l-11 27-3 28-1 25 3 30 2 29 4 25 4 28 3 31 2 32 2 32 0 31 0 30 1 28 2 24 1 27 2 27"/>
<path d="M5726 34771l 1 25 6 27 10 23 15 24 17 22 21 19 22 16 25 10 28 2 27-4 27-12 21-16 22-24 16-19 20-29 17-28 16-28 14-26 11-24 9-28 2-26-2-29"/>
<path d="M5566 35477l 24-5 27 0 25 7"/>
<path d="M5767 35344l 20-17 25-3 25 3 25 7 24 6 19 16-1 27-7 24-13 26-19 25-19 25-18 23-20 20-18 17-19 18-23 16-21 11 21 13 28 1 28-4 24-5 24-5 26-5 24-9"/>
<path d="M3545 34456l-10 28-4 24-4 31-4 31-5 33-5 33-4 34-3 32-4 32-3 31-4 29-3 26-2 25 0 29 0 27 1 25"/>
<path d="M3643 34399l-1 26-1 28 0 28-3 35-1 27-2 28-2 29-2 28-2 30-3 30-2 28-2 28-2 27 0 26-1 25 0 34 0 31 1 27 1 29 0 26"/>
<path d="M3360 34911l 0 25 17 18 22 21 22 20 22 23 23 20 25 18 23 15 22 12 28 7 25 2 25-8 22-17 16-20 11-22 13-25 13-30 13-30 12-32 12-30 11-29 8-24 8-25"/>
<path d="M3304 35526l 26-7 27-3 29-7 25-7 27-10 27-11 23-13 18-16"/>
<path d="M3409 35406l-16 18 2 27 3 25 3 30 2 29 5 23 14 23"/>
<path d="M3611 35358l-14 22-6 26-4 29-1 27 5 26 9 24 16 22 19 19 19 16 25 11 26 3 26-6 24-16 18-19 17-25 9-23 7-24 5-25 2-26-4-31-12-27-19-26-18-17-26-16-25-8-27-2-29 5-26 11-21 13"/>
<path d="M3284 35535l 17-22 20-17 28-22 22-16 28-19 31-19 34-21 37-22 36-22 36-21 37-22 36-20 35-19 31-16 29-14 25-11 31-11 26-3 6 24-18 19-26 26-19 22-25 22-25 24-27 23-28 24-26 24-25 23-25 22-23 21-20 20-17 17-19 22 25 9 32-18 26-17 29-18 29-19 29-18 26-16 24-14 21-11 26-11 25-9 25-4-5 27-12 25-8 23 2 25 13 23 19 17 20 13 24 9 27 6 24 5"/>
<path d="M3212 36186l 19-19 27-6 24-6 26-6 28-6 27-3"/>
<path d="M3530 36022l 2-24 24-12 25-2 27 2 27 6 22 9 10 23-1 28-9 24-16 27-16 22-16 20-18 22-18 18-17 20-18 18-18 18-20 21-18 20 15 19 28-5 24-7 25-6 25-4 29-6 24-3 26-2 28 1"/>
<path d="M2274 32326l 8-23-23 15-21 20-19 19-18 21-21 24-21 25-21 25-22 24-21 25-20 26-22 25-23 27-25 28-29 28-29 29-32 29-30 31-30 30-30 31-29 30-29 28-26 26-23 24-20 21-16 18-18 23-17 22"/>
<path d="M1658 32813l-25 10-23 20-18 20-15 21-12 22-8 24 0 28 7 23 22 15 24-3 25-10 23-12 26-15 23-15 24-15 25-12 24-10"/>
<path d="M1204 33396l 23-5 28-5 24-4 26-6 29-7"/>
<path d="M1422 33266l 21-11 27 1 21 14 14 23 3 24-9 22-14 22-19 23-17 18-19 15-20 19-19 18 24 1 26-9 24-10 25-10 27-9 27-10 26-10"/>
<path d="M14925 27723l 28-1 27-2 25-5 28-7 28-6 25-7 28-7 25-5"/>
<path d="M14988 27640l 5-25 2 27 1 25 0 25 3 29-2 29-1 29-2 27 1 25-4 25"/>
<path d="M15562 27499l 8 27 3 31 0 29 3 24 0 35 1 36 2 34 2 35 1 32 3 31 4 31 6 30 6 27 6 29 7 24 9 23 26-1 17-20 19-31 14-24 11-25 11-26 10-25 6-27 8-25 9-26 9-25 8-25 7-24 7-33 7-30 6-28 0-25 6-28 10-25 3-25 3-24"/>
<path d="M16224 27640l 24-3 30-4 24-4 26-4 26-4 25 0"/>
<path d="M16230 27730l 28-8 26-8 24-4 25-5 25-6"/>
<path d="M16390 27568l 27-3 25 2 26 4 24 8 24 11 19 16-1 25-13 23-22 22-20 19-21 18-19 19-18 19-20 21-16 20-15 19"/>
<path d="M17145 27468l 23-7 24-5 23-5 26-7 27-9 28-7 29-8 29-9 27-7 25-6 25-4"/>
<path d="M17345 27451l-17 17-10 22-6 29-3 24-4 25-5 28-6 23-7 25-6 24-6 24-6 30-7 29-8 26-4 27-6 27-4 24"/>
<path d="M17585 27596l 22-11 24-4 25-5 28-3 27-4 25 2"/>
<path d="M17609 27669l 24-5 27-4 29-3 27-4"/>
<path d="M18066 27452l 19 18-2 29-3 32-2 31-4 26-4 25-6 25-6 25-9 30-9 29-7 28-6 26-3 24 0 25"/>
<path d="M18351 27449l-12 26-9 24-7 27-2 30-3 32 0 28-1 25 1 26-1 30-3 25-4 26 1 28 2 26"/>
<path d="M14916 29192l 29-8 30-9 27-6 30-8 29-8 29-8 27-9 26-11"/>
<path d="M15080 29051l-17 17-6 26-6 26-2 28-3 29 0 29 2 27 10 23 11 30 10 29"/>
<path d="M15422 28997l 26-6 26-5 31-5 26-4 25-5 28-6 25-6 25-5 29-5 26-4"/>
<path d="M15594 28982l-22 17-11 22-9 28-10 28-3 28 0 27 3 26 8 28 7 28 3 26 4 26 1 25-7 27-9 27"/>
<path d="M15399 29416l 23-8 24-3 27-2 28-1 29-2 24-1 25 2 31-1 27-2 29-2 28-3"/>
<path d="M16046 29107l 25-7 29-3 26-1 29 1 28 2 25 3"/>
<path d="M16056 29173l 25-2 24-1 30-2 30-5"/>
<path d="M16173 29011l 19 18 26 7 25 5 24 6 24 6 27 7 25 10 17 17-16 22-21 17-23 18-19 16-20 18-18 20-21 21-19 20-19 20-16 20-16 21"/>
<path d="M16784 28949l 25-7 27-3 29-3 25-2 30-4 25-3 30-5 32-4 31-4 29-3"/>
<path d="M17001 28950l-24 1-12 22-9 24-2 27 2 33 0 26 0 25-4 27-1 27 2 28 0 27-2 28-3 25-4 25-7 24-6 29-4 26-4 24"/>
<path d="M17339 29102l 24-11 28-2 25-1 24-1 29 1 25 4"/>
<path d="M17351 29151l 25 1 24-2 26-3 26-4 29 0"/>
<path d="M17788 28961l 27 0 26-1 30 1 28 0 25 0 28-1 24-3 26-1 25 1 25 2 23 7 7 27-2 26-6 26-7 24-9 25-10 25-12 28-10 22-12 21-11 23-14 24-11 22-12 22-14 24-13 20-11 23-14 31-9 30-9 23-11 23-5 25"/>
<path d="M13427 28217l-15 20-6 29-3 24-3 28-1 29-2 34-3 36-4 36-8 41-5 43-7 46-3 24-3 24-2 25-4 24-4 26-4 25-4 25-4 25-4 26-5 27-4 26-4 27-5 27-4 27-5 27-4 28-4 28-4 27-5 26-3 27-5 26-4 25-4 25-5 24-7 46-7 45-7 42-6 40-6 38-5 34-6 29-4 27-6 32-6 27-6 26-6 25"/>
<path d="M13069 29509l 8 24 6 26 10 29 12 27 13 25 14 22 17 23 19 20 27 2 19-19 16-28 15-24 16-26 16-25 12-26 15-24 13-22 16-21 15-21"/>
<path d="M12305 30338l 23-8 27-9 24-8 27-11 29-11 22-8 29-12 23-9 23-8"/>
<path d="M12396 30337l-9 26 1 29 1 25-1 30-2 29-4 25-4 28-5 28-6 28-7 26-5 25-7 28"/>
<path d="M12212 30726l 29-3 23-6 24-8 26-7 29-7 29-8 26-5 28-4"/>
<path d="M12674 30515l 26-5 28-6 29-4"/>
<path d="M12824 30565l 24-8 24-12 21-12 23-12 19-17 11-22-2-24-23-6-24 7-21 16-20 20-18 20-16 25-13 26-8 27-3 29 6 26 16 18 23 10 27 4 27-1 28-9 24-13 22-15 21-16 22-19 21-21 19-20 18-23 17-23 14-25 13-24 8-25 6-26 5-27 4-29 0-29 0-26-1-29-4-26-24 7-8 25-5 25 0 29-3 27-5 28-4 30-3 31 0 31-1 31-2 29 0 26 6 28 9 25 11 22 21 15 27-5"/>
<path d="M13228 30533l-11 23-6 25-1 26 4 26"/>
<path d="M13261 30390l-20 15"/>
<path d="M13364 30512l-10-22-25-8-26 10-19 15-16 22-12 24-5 26 14 21 24-2 23-13 18-18 13-20 4 28 3 25 7 29 6 25 6 28 4 29 6 30 4 32 1 36 2 36 3 34-2 34-3 33-9 33-8 31-10 28-11 25-17 23-20 15-20-19-14-30-7-32-5-35-2-25-2-26 0-27-2-26 2-27 4-28 6-26 7-25 12-34 9-27 14-24 14-21 16-19 18-21 21-16"/>
<path d="M13533 30627l-11 23-15 25-14 22-15 23-15 24"/>
<path d="M13670 30311l 12 21 4 27 1 25 5 25 5 26 6 28 6 28 6 28 6 27 9 24 10 25 7 26 18 16 22-22 15-22 19-30 12-21 12-21 11-22 15-32 13-33 10-34 7-31 5-32 3-31 1-26 0-27-1-26 1-24"/>
<path d="M14021 30402l 23-15 22-9 24-8 26-9"/>
<path d="M14124 30451l 27-3 25-11 26-14 23-15 19-18 18-20-12-21-25-3-25 7-21 15-16 20-11 21-10 25-7 27-4 26 7 27 10 23 18 16 28 6 25-4 24-9 23-14 24-17 24-19 24-20 19-22 20-22 17-23 14-24 13-26 10-27 7-29 5-32 4-31 5-30 3-28 4-25 4-25 3-26-25 7-13 26-10 28-8 24-8 27-7 31-6 35-7 36-4 36-5 33-2 32-2 27 3 30 10 23 16 18 24 5 25-9"/>
<path d="M14543 30367l-15 20-13 23-10 24-4 26 6 24"/>
<path d="M14570 30258l-17-20"/>
<path d="M14716 30333l-18-16-27 9-22 16-19 19-13 23-12 24-2 26 18 17 25-1 24-7 20-15 21-16 17 19 7 25 0 28 1 26 3 32-2 27-2 28-7 30-6 33-7 24-5 24-8 23-8 25-7 27-10 26-9 25-10 26-12 24-14 32-15 29-15 23-16 21-24-11-2-25-1-33 4-24 5-28 5-29 7-32 6-33 7-36 12-35 10-36 12-34 11-32 11-29 11-26 11-23 17-28 14-22 19-24 18-18 23-17 24-11"/>
<path d="M10419 33437l 25-7 30-1 29-3 24-3 25-2 27-3 26-4 26-4 26-3 29-4"/>
<path d="M10583 33464l-11 27-8 27-2 24 0 26 1 27 2 28-2 30 0 31-3 31-4 29-6 25"/>
<path d="M10416 33855l 24 14 24 0 26-1 29-3 24-3 32-5 24-4 33-4 24-2 33-3 25-1"/>
<path d="M10991 33384l 20-16 27-3 28 2 26 6 24 8 23 13 16 20 3 25-4 24-17 24-14 20-17 22-17 24-19 24-18 23-16 22-13 20-15 26-6 25-5 25 0 26"/>
<path d="M11034 33831l"/>
<path d="M11376 33408l 18-17 27-4 28-2 27 0 26 2 29 4 27 9 20 13-2 27-17 22-19 19-17 22-22 24-22 24-22 24-19 25-18 22-12 22-10 25-5 28-6 25"/>
<path d="M11432 33844l"/>
<path d="M11774 33468l 5 25 7 26 5 24 6 26 4 29 9 28 8 29 8 31 11 29 12 26 14 27 12 21 22 14 22-13 22-27 19-29 13-21 15-23 15-24 14-25 14-27 13-29 11-30 10-32 10-32 12-32 12-30 11-25 14-29 9-27"/>
<path d="M10876 34205l-8 29-8 30-5 26-6 26-3 28-5 25-6 25-5 25-7 27-8 29-11 33-9 23-10 23-10 25-13 26-13 26-15 29-16 27-15 26-17 24-15 22-15 19-19 25-13 22-12 22"/>
<path d="M10530 34752l-10 22-1 25 5 29 7 27 7 27 11 25 12 22 14 21 21 20 23 12 26 4 30-10 25-16 24-22 23-25 15-20 21-29 19-28 17-26 14-24 11-23 12-27 9-23 6-24"/>
<path d="M9649 35576l-5 27 4 29 3 24 5 27 4 29 3 28 2 28 4 28 4 27 5 26 7 24 6 24 11 33 11 28 12 22 17 19 25 3 18-18 17-25 17-32 11-27 10-28 10-27 11-28 11-28 8-27 9-25 8-28 8-28 9-31 6-31 7-28 7-26 7-35 6-32 6-25 6-23-9 25-3 28"/>
<path d="M10055 35766l 25-3 27-3 27-2 27-5 26-4"/>
<path d="M10204 35894l 21 12 25 5 24-6 22-13 20-16 11-22 4-24-18-18-26-2-22 8-24 17-19 18-19 23-10 23-9 23-7 24 4 28 9 23 15 20 22 14 25 8 27-3 23-8 24-13 25-20 19-17 19-20 19-22 18-22 17-25 14-27 13-29 11-28 9-30 6-31 5-31 3-33 3-35 1-33 0-28 1-29 3-29-4-24-13 21-9 27-8 27-8 31-7 32-5 24-5 24-5 24-3 26-3 25-2 24-3 35 0 34 3 31 3 27 7 30 12 26 17 18 27 0 27-9 24-16 17-20 16-21 13-21 18-48-11 24-6 27-4 26 1 27 23-8"/>
<path d="M10658 35811l-3-31-7-24-7-26-13-22 0 27"/>
<path d="M10761 35846l-23-9-22 11-13 21-14 22-8 24 11 22 24 6 22-11 18 15 3 26 1 25 0 31 1 26 0 33-2 27-3 31-4 33-6 31-8 30-8 27-8 26-9 29-13 22-17 19-11-22-4-29 1-28 3-31 4-32 5-36 6-25 6-26 7-26 7-25 7-24 8-24 11-32 11-32"/>
<path d="M11474 34348l 9 26 11 29 9 27 10 29 10 31 10 23 11 25 14 27 15 26 17 29 20 29 19 30 21 30 24 30 24 28 24 27 23 26 23 26 20 24 23 23 23 21 22 20 23 20 21 19 22 18 18 17 20 17 28 22 23 19 22 14 29 17 22 13 24 12 23 8"/>
<path d="M11913 35058l 11 23 21 20 23 15 23 9 24 9 24 7 27 6 26 6 25 3 25-2 25-5 20-17 13-20 6-24-4-25-10-22-12-22-14-21"/>
<path d="M12217 35420l 25-5 23-6 25-8 26-10 24-10 25-9 26-7 25-7 24-8"/>
<path d="M12347 35382l-14 20-7 24-9 27-4 25-5 27-3 29-5 30-1 30-6 30-4 25-6 25"/>
<path d="M12125 35796l 25-4 27-1 30-3 25-3 27-2 28-4 27-3 31-2 26-2"/>
<path d="M12621 35604l 26-9 26-5 25-3 24-3"/>
<path d="M12778 35685l 29-2 27-5 28-7 27-7 25-12 22-14 7-25-3-26-14-20-25-8-24 11-19 16-16 18-13 21-13 24-8 26-5 29 3 25 14 23 25 10 25 2 25-6 28-12 24-13 22-14 24-17 26-19 21-21 21-23 16-25 16-25 16-27 11-30 8-33 4-35 4-26 4-27 5-27 3-28 3-25 4-33 2-27-2-25-24 1-11 22-9 29-8 26-8 31-9 31-7 33-6 32-5 33-3 32-1 31 0 27 4 29 8 25 17 22 27 8"/>
<path d="M13231 35542l-15 20-8 24-4 28-3 24 3 24"/>
<path d="M13277 35425l"/>
<path d="M13414 35535l-24-9-28 7-25 10-24 14-19 17-21 20-18 22-9 25 11 22 24-8 27-15 23-14 23-18 21-15 16 19 5 28 2 26 2 29 1 29 0 25 0 27 0 30-2 30-5 30-3 31-7 32-6 32-8 34-11 33-13 32-13 21-16 31-16 26-14 21-22 19-23 10-22-16-9-31 1-33 2-26 4-29 4-31 9-33 12-32 14-33 17-33 17-32 17-31 16-30 18-27 17-26 18-24 19-22 18-21 18-21 18-20 20-19 17-19 27-20 24-15 23-9"/>
<path d="M15290 33222l 15-20 24-13 27-10 23-8 26-6 25-6 27-7 27-6 29-7 25-6 28-5"/>
<path d="M15451 33211l-16 22-5 24-6 30-4 31-2 27-5 29-3 32-5 32-5 33-7 31-7 30-8 30-7 29-7 25"/>
<path d="M15185 33701l 27-10 30 2 29 0 32 1 26 1 25-1 25 0 24 0 29-1 24 0"/>
<path d="M15886 33138l 23-11 27-5 26-2 25 8 18 18 5 24-1 28-7 25-11 25-12 26-16 27-11 23-14 24-18 24-16 24-14 25"/>
<path d="M15867 33596l"/>
<path d="M16364 33119l 25-13 25-4 26 0 25 10 19 18 8 28-2 25-7 31-9 25-9 25-9 25-9 24-8 24-7 24-9 29"/>
<path d="M16405 33608l"/>
<path d="M16819 33115l 21-15 29-4 25 5 24 12 17 17 12 23 2 26-2 29-5 24-12 25-12 26-13 27-14 22-14 22-15 24"/>
<path d="M16839 33610l"/>
<path d="M17398 33182l 8 30 3 31 3 28 3 28 3 28 4 27 9 25 8 30 10 27 11 23 17 23 22 14 26 6 26-11 21-14 22-19 24-23 20-27 18-29 14-29 14-30 11-33 7-24 7-24 8-24 8-34 6-28 9-28 5-26"/>
<path d="M15710 33913l-10 25-10 23-16 31-9 24-10 27-12 28-12 31-13 35-13 37-13 37-15 40-15 37-13 37-15 37-16 38-12 37-16 36-12 34-11 32-11 33-9 31-9 31-9 30-8 28-10 26-7 24-8 33-8 27-6 27-6 25"/>
<path d="M15143 35326l 25 0 26-3 24 2 25 6"/>
<path d="M14723 35089l 8 24 9 26 6 24 7 27 9 32 8 31 8 33 4 33 8 33 6 32 7 28 6 25 9 28 10 22 13 23 25-2 15-25 16-30 12-23 9-25 13-27 12-28 13-30 13-30 12-29 12-30 13-31 9-31 10-27 9-26 11-29 8-24 7-25 3-26"/>
<path d="M16933 33826l 14 22 12 24 13 24 16 30 15 34 13 24 14 25 16 26 17 27 18 28 19 27 18 30 19 28 21 30 22 29 22 29 23 28 22 28 25 28 22 30 25 28 25 30 25 30 28 31 25 31 25 32 25 32 26 35 23 34 23 36 21 36 20 32 20 33 19 30 18 32 17 31 15 30 16 28 15 26 16 25 13 24 12 21 13 25 15 20 16 21-2-30"/>
<path d="M17736 35385l 27-6 29-2 29-3 27-6 27-6 28-8 25-7"/>
<path d="M17816 35420l-5 27 1 28 3 31 3 25 0 25 0 26-2 27-3 30-5 26-3 28-3 25"/>
<path d="M17702 35735l 23-8 26-3 29-3 27-3 26-1 24-4 27-4"/>
<path d="M18125 35513l 21-14 26-9 27-3 25-4 24-3 25-4"/>
<path d="M9403 37340l 2 25 17 18 4-27-1-30-2-27 4-29 7-24 8-26 11-22 17-20 24-18"/>
<path d="M9574 37327l-5-24 0-28 9-28 14-26 15-20 18-19 21-16"/>
<path d="M9735 37482l 2 25 5 24 3 30 1 26 0 25-2 27-6 24-8 27-12 21-12-24-3-27-2-29 1-25 3-25 3-26 8-29 8-24 8-25 14-21 19-16 21-15 24-13 23-10 25-12"/>
<path d="M9963 37426l-14 22-2 26-2 25-5 31 0 27 0 26 6 23 24 6 20-17 16-20 15-22 15-19 13-22 12-24 0-24-13 22-1 27 2 24 9 25 19 19 25-4"/>
<path d="M10189 37433l-14 23-5 26-3 24 0 26 24-7 14-20 12-24 11-21 15-22 16-21 17 18 3 28 3 25 2 25 7 25 16 19"/>
<path d="M10552 37417l-24-1-24 6-20 16-7 24 17 18 22 13 22 13 24 9 21 18 11 21-6 27-14 23-18 17-22 12-24 7-26 4-25-4-26-12-20-19-13-21-9-23"/>
<path d="M10674 37241l 11 22-9 25-12 21-11 21"/>
<path d="M10767 37205l-4 27-4 25-5 30-5 26"/>
<path d="M16053 34052l 27 3 30-1 27-4 34-4 24-3 27-4 27-4 27-3 25-5 26-4 25-4 25-3 34-3 30-4 27-5 27-4 31-3 27-3 24-4 24-5"/>
<path d="M16330 34285l-7 25-5 26-4 24-3 28-2 31-1 36 0 26 0 27 0 30 1 32 0 35 1 38 3 43 1 46 1 24 1 24 1 27 2 26 0 26 2 28 1 28 0 29 0 29 1 30 0 30 1 29 1 30-2 31 0 30-1 30 0 29 0 30-1 30-2 29-3 30 0 29-1 29 0 28-1 29 0 27 0 27 0 28 2 26 0 28 0 25 0 26 0 26 1 26 1 24 0 25 1 47 2 47 1 48 2 45 1 43 3 41 3 36 3 38 3 35 2 33 2 34 3 29 3 25 6 31 6 26 7 24 25-6"/>
<path d="M15846 36692l-5 27-4 26-2 30-5 25-4 25-5 27-5 28-6 26-4 28-2 28-3 25-3 25-4 26-2 27-1 26-1 26-1 35-1 31-1 28-1 24-1 26-1 26"/>
<path d="M16099 37091l-5 27-4 25 1 25 3 27 3 29-3 25-5 24-7-27 0-28 0-29 3-28 7-25 9-28 12-25 16-20 20-15 27-6 25-9 30-5"/>
<path d="M16352 37096l-16 18-9 24-8 23 0 27 8 23 23 8 25-12 19-18 15-20 10-23 3-24-4 26-2 24 1 27 11 22 28-4"/>
<path d="M16557 37112l-7 25-6 24-1 27-6 25 14-23 16-24 13-21 16-22 20-18 25-2 14 24 7 25 0 27 0 27-4 28 2 25"/>
<path d="M17072 37078l 30-2 25 0 28-1 28-1 25 3 28 3"/>
<path d="M17086 37139l 26-2 29-3 25-1 26 1 27 7"/>
<path d="M17273 36996l 27-8 22 10 24 12 24 10 20 14 18 20 8 23-14 24-24 20-24 19-28 18-29 19-29 16-27 17-23 19-19 15-22 16-21 15"/>
<path d="M17826 36956l-23 10-22 18-25 25-18 22-17 25-16 26-15 31-13 29-11 30-7 28-7 29-2 29 0 28 3 29 6 26 6 24 13 33 12 28 18 24 20 20 21 14 22 13 25 4 26-3 28-10 31-12 21-12 22-14 23-18 24-18 22-19 19-22 18-22 16-22 12-22 12-22 10-34 6-33 0-34-4-35-4-26-7-26-7-27-9-27-12-23-11-22-19-26-20-21-21-14-23-11-31-6-31 0-28 6-22 13"/>
<path d="M18426 37311l-23-13-25 2-25 7-25 11-24 9-21 13-1 25 15 21 24 15 26 8 27 13 19 15 21 13 23 15 15 19-18 22-22 13-26 6-27 6-28 6-28 5-26 4-27-2"/>
<path d="M18702 37007l-12 27-8 27-6 24-8 25-8 30-8 32-5 33-6 24-10 35-10 26-7 25-7 26-6 26-5 25-5 25-5 26-7 32-1 26 2 30 6 24 19 20 25 1"/>
<path d="M18790 37414l-24 12-20 21-15 19-11 23-6 23 6 24 24 14 24 0 23-10 24-16 20-18 17-21 2-26-12-24-17-20-26-9-26 0"/>
<path d="M19031 37117l 1 26-4 27-5 26-3 29-6 27-4 28-7 27-8 28-9 28-7 30-10 31-13 28-10 26-9 24-4 27 5 24 17 18 29-3 24-7 26-11 26-16 20-18"/>
<path d="M18928 37336l 26-14 24-3 24-2 27 0"/>
<path d="M19317 37377l-26-6-27-2-27 6-20 13-4 26 22 15 24 10 26 11 21 12 21 13 20 16 21 16 14 22-14 24-21 15-23 14-24 11-27 8-26 4-25-3-25-3-25-8-22-11"/>
<path d="M1218 37900l 5-24 24-12 23-9 26-5 28-4 25 0 24 3 24 9 16 19 3 26-10 27-12 27-12 22-13 21-15 23-19 26-16 20-15 22-17 23-16 20-17 25-13 20-12 22 7 25 12 22"/>
<path d="M1331 38373l"/>
<path d="M1668 37898l 2 30 2 28 4 33 5 34 7 33 8 34 6 24 8 24 11 35 9 23 13 31 12 31 11 27 12 21 14 21 19 17 22-17 15-25 16-33 12-25 9-27 10-27 9-29 9-30 6-30 6-32 4-32 3-31 3-32 2-30 1-29 2-25 1-29 0-26"/>
<path d="M2276 37750l 21-11 24 4 25 11 21 13 19 20 11 23 4 26-5 26-6 25-10 28-13 27-11 30-10 28-9 27-9 27-6 31"/>
<path d="M2349 38206l"/>
<path d="M2653 37693l 26-10 25 1 27 4 29 8 23 13 18 20 8 26 0 25-4 30-6 25-9 26-9 27-11 25-11 28-8 28-7 25-8 24-7 23-6 30"/>
<path d="M2768 38233l"/>
<path d="M3287 37581l 24-5 27-1 27 1 27 4 25 10 21 15 17 20 12 26 3 25-3 25-4 30-7 28-9 23-10 24-11 26-13 25-13 25-12 22-12 23-10 23"/>
<path d="M3425 38118l"/>
<path d="M3796 37616l 20-17 24-7 28-2 26 6 25 11 22 12 19 17 12 22 7 28 3 25-1 30-6 26-9 27-9 23-11 22-12 23-12 23-11 25-9 23-8 23-6 29-3 29"/>
<path d="M3921 38177l"/>
<path d="M4574 37639l 17-17 29-9 26-7 25-5 30-4 30-1 30-1 29-1 28-1"/>
<path d="M4695 37657l-5 27-9 25-9 28-10 23-6 24-6 28-3 25-4 28-3 28-2 28-1 28 0 28-3 28-4 25-3 26"/>
<path d="M4492 38165l 27-3 30-2 24-2 26-3 29-4 29-3 29-3 27-4 27-5 26-4 30-3"/>
<path d="M5154 37602l 2 27 6 27 3 26 2 31 6 31 8 32 8 33 9 33 8 32 9 31 6 29 9 26 10 28 9 27 26-3 21-21 15-21 16-23 16-25 16-26 16-27 17-28 15-31 15-32 14-32 13-31 12-30 11-28 10-25 6-24 8-26 3-25"/>
<path d="M5886 37534l 9 28 5 28 4 29 0 32 0 25-2 25-2 28-2 27-3 24-2 27-1 26-1 25 2 27 4 33 9 27 13 28 15 19 22 10 23-13 16-19 21-26 18-31 13-21 12-23 11-24 14-26 13-28 11-31 13-32 12-35 14-35 15-34 13-30 12-26 11-30 10-25"/>
<path d="M116 38931l 17-17 25-8 25-9 25-8 22-10"/>
<path d="M196 38907l-17 20-8 26-4 30-1 25 0 29 1 26 2 26 1 25 2 26 2 28-1 26"/>
<path d="M102 39252l 26-5 26-2 24-2 29-6 25-6"/>
<path d="M302 39076l 25 0"/>
<path d="M400 39163l 26 0 25-10 22-10 19-16 13-22-3-25-17-16-24-7-19 18-12 22-8 24-5 25-2 25 2 28 11 23 21 17 24 5 26 1 24-2 28-2"/>
<path d="M150 39567l-1 27 6 27 5 28 5 26 8 30 10 28 6 23 8 28 7 24 9 23 13 23 24-2 15-25 8-23 8-29 8-31 6-32 3-32 3-31 0-30 0-25 0-30-2-27-4-24"/>
<path d="M394 39691l 27-5 27-1"/>
<path d="M570 39690l 24-1 24-7 23-11 16-18-22-13-26 2-23 10-20 15-16 18-7 23-1 28 5 30 8 23 16 23 23 11 28 5 24-8 22-11 22-15 21-16"/>
<path d="M1205 39073l 8 25 12 23 10 25 9 22 9 24 19 15 11-27 8-30 5-25 2-27 2-30 3-34 3-34 2-24 4-32 2-31 3-27 3-24 2-28 1-25-1-25"/>
<path d="M263 40316l-1 24 1 26 1 26 1 29 0 31 1 32 1 25 0 26 0 24-1 31-1 31-1 27-2 25"/>
<path d="M224 40344l-4-25 10-23 20-19 19-19 20-16 23-9 25 1 20 15 12 20 7 25-7 24-9 22-13 24-17 23-19 24-14 19-21 20-21 14-19 19 17 21 23 12 23 11 26 11 22 8 28 10 24 10 23 13 20 13 21 15 20 15 17 20 17 16"/>
<path d="M2157 40432l 26 0 25-2 24 0 24 4 25 3 24 0 25-6 30 0 26-1 27 0 27 1 27-2 26-2 26 0 26 0 26 0 27 1 28 1 26 0 25-4 28 0 28 3 28 0 25 2 25 2 25 1 26-1 28 2 27-1 25 1 28 3 26 1 29 3 26-1 28-3 30 3 29 0 29 1 29 2 31 0 30 1 29 3 30 4 31 2 24 4 24 2 32 0 32-2 24 1 24 1 25 0 26-1 26 1 26 0 25-1 25-1 26 0 24 1 25 1 29 0 28 2 28-2 28-6 28-1 25 2 24 4"/>
<path d="M7877 38651l 4 27 1 25 0 32 0 26-2 28-3 26-5 29-7 28-6 30-6 30-6 30-5 26-5 30-4 28-4 25-4 25"/>
<path d="M8464 38659l-2 24-2 24-3 27-4 29-1 27-2 28-5 29-7 29-7 31-4 31-6 23-9 27-9 28-6 23 25 5"/>
<path d="M8608 38950l 24-2 24-9 23-9 22-15 9-23-14-22-21-15-27-3-22 12-20 21-9 23-5 25-1 30 0 25 7 28 14 20 21 15 24 6 25 0 26-7 24-8 21-21"/>
<path d="M8375 38639l 27-2 24-2 27-7 24-5 28-7 25-5 25-4 27-1"/>
<path d="M8303 39012l 24-5 25 3 24 4 26 3 27 4 25 7 25 4 27-3"/>
<path d="M7824 39482l-22 10-19 20-11 22-6 24-5 26-1 27 3 28 6 23 13 21 21 20 25 7 26-2 27-6 29-10 25-12 24-14 24-18 21-21 17-22 16-27 7-28 0-29-13-23-23-21-20-15-24-14-26-13-30-12-28-8-24-3-27 0-26 3-9 23"/>
<path d="M8271 39451l-5 23 4 29 4 24 8 27 6 23 10 27 12 24 13 22 23 9 23-10 17-18 13-25 14-28 13-31 12-32 9-31 7-30 6-26 5-25 2-27 2-26"/>
<path d="M8532 39575l 25 5 25-2 24-11 21-13 13-21-4-24-18-17-25-7-25 6-20 17-13 21-7 23-3 28 4 28 5 25 3 25 11 24 14 19 24 13 26-1 26-9"/>
<path d="M7756 40126l-25 1-17 19-12 27-9 27-10 30-5 32-2 31 1 33 3 27 4 26 11 29 15 24 23 18 28 12 24 6 26 3 27-1 30-5 27-6 28-11 25-13 23-16 18-20 15-21 13-22 8-25 4-32-6-31-9-25-15-26-16-24-19-20-22-17-24-15-23-13-25-10-31-5-24 2-29 5-28 11-15 22"/>
<path d="M8393 40475l 24 8 22-12 22-16 24-22 19-16 19-18 19-18 18-17 17-19 17-18 14-19 15-26 9-24 2-28-5-25-17-19-27 2-18 19-17 25-15 25-11 28-10 30-7 31-6 33-3 30-2 29-2 27 3 28 7 28 16 19 23 12 25-10 14-22 3-25 2-25-1-24"/>
<path d="M8733 40409l-25 8-16 20 11 22 24 11 26 0 20-15-4-24-15-20-15-20 5-26 25-14 22-13"/>
<path d="M8945 40179l 10-22-4 25-5 24-8 29-7 29-8 24-9 25-8 27-7 26-5 25-2 24 1 28 4 27 13 23 27 3 22-13 19-21 12-24 3-27"/>
<path d="M8883 40300l 29 0 24-8 26-11 19-14 21-14 20-15"/>
<path d="M9127 40118l-14 23-8 25-8 27-6 30-7 28-6 27-6 29-6 26 25 0 20-18 21-16 24-10 22 12 11 25 5 27 4 24 12 24 22 10"/>
<path d="M7763 40930l 23-11 25 1 28 1 29 7 24 13 22 16 21 18 16 25 11 25-1 28-12 28-15 24-23 25-17 19-18 17-18 16-19 18-21 16-19 16-19 16-20 15-27 20-27 18-22 15-26 17-21 13-19 16 25 7 25-5 33-6 26-7 27-5 26-4 25-4 30-5 29-2 24 0 24-1 25 7"/>
<path d="M8493 41178l 17-19-20-17-24 9-26 13-27 13-25 15-24 16-16 17 18 20 27 7 25 9 23 9 18 19 7 25-7 23-17 18-19 16-20 13-27 11-25 7-25-4-3-24"/>
<path d="M8575 41295l 16 19 27-5 21-15 19-16 22-20 22-24 23-28 20-28 18-28 16-27 16-27 11-28 9-31 8-29 9-32 7-29 6-27 6-23 6-26-28 7-20 23-15 24-16 26-11 22-9 22-10 23-13 33-11 34-6 33-6 33-5 31-2 30 2 26 4 24 8 25 19 22 26 10 25 1"/>
<path d="M8939 41211l-20 14-16 19-10 24 4 24 24 8 27-5 23-11 20-15 12-22-1-26-17-18-22-15-25-4"/>
<path d="M9176 40898l-13 25-11 26-9 28-8 26-12 29-11 32-8 29-6 29-5 29-6 30 0 30 5 28 7 29 5 27 13 26 23 15 25-1 25-11 22-20 19-20 13-22"/>
<path d="M9057 41096l 24-14 28-8 24-6 25-3 27-2 27 0 24 0 25 2"/>
<path d="M9378 41082l-22 10-21 12-23 16-21 15-11 21 15 19 26 2 25 1 22 13 19 16 7 26-12 21-18 17-23 12-26 7-26 0-20-15"/>
<path d="M7856 37753l 22 11 24-3 24-8 24-9 27-11 27-13 25-11 27-9"/>
<path d="M7927 37778l-19 17-2 25 2 25 1 25 2 25-1 26-5 27-4 28-3 24-7 29-2 25 27-6 22-16 21-14 23-13 24-8 27-5 27-3 27 1 24 7 23 13 14 20 2 24-6 28-10 25-15 27-18 23-22 21-22 17-24 12-26 10-25 3-25 1-23-8-10-22 10-24"/>
<path d="M8524 38055l 9-23-26-4-22 13-24 18-22 18-18 17 22 14 25 5 26 3 25 9 24 8 19 17-8 25-22 16-26 10-26 6-24-1-6-25"/>
<path d="M8616 38074l 11 21 2 27 0 25 1 27-1 27 0 28-2 31-5 29-4 31-2 30 0 28"/>
<path d="M8654 38103l 17-19 25-1 24 0 25 3 25 9 19 17 1 26-11 23-20 21-22 19-21 15-23 12"/>
<path d="M8920 38109l-25 1-17 18-19 20-17 22-11 22 16 17 22-11 21-14 22-13 14 22 11 22 21 12"/>
<path d="M9118 38082l-24-2-18 20-15 20-13 23-6 27 7 24 21 13 24 5 26-1"/>
<path d="M9251 38137l 26-8 24-7 18-17 10-23-13-20-25-1-24 9-20 14-16 20-12 24-8 26 1 25 16 19 26 8 27-4 28-9"/>
<path d="M9482 38069l-24 2-22 11-2 25 16 19 21 16 22 10 23 10 22 12 20 14-6 25-24 11-24 9-26 6-26 5-25-1"/>
<path d="M11582 38242l-8 24-9 24-10 24-13 27-13 28-13 27-10 25-11 25-11 25-9 25-5 25 0 25 12 22 28 3 28-5 27-4 28-6 24-6 25-6 26-10 31-8 26-8 25-9 27-10"/>
<path d="M11675 38455l-14 23-4 25-1 27 1 25 3 26 2 31 2 28 1 25-1 24"/>
<path d="M11948 38317l 26-12 27-9 30-9 26-8 28-9 29-6 30-6 27-5 23-6"/>
<path d="M12098 38267l-15 20-8 27-7 25-3 26-2 24-1 25-3 29-1 28-1 26-4 25-2 25 2 25 1 25"/>
<path d="M11886 38660l 25-8 26-4 30-7 30-8 30-6 26-3 25-3 27-3 24-2 30 0 25-1 28 3"/>
<path d="M12926 38291l 2 25 6 29 8 26 8 29 6 24 6 25 6 26 6 24 7 31 7 28 5 26 15 22 22-14 13-21 13-22 12-23 11-24 11-27 9-31 10-31 9-33 6-35 5-34 5-28 3-27 3-24"/>
<path d="M12613 38290l 2 26-3 26-4 32-3 27-3 28-4 26-5 27-3 28-6 27-4 26-6 25-4 31-2 25-2 26"/>
<path d="M13393 38617l 24 6 27 1 26-6 24-9 25-9 24-6"/>
<path d="M13387 38725l 23 8 23 6 26 3 25-3 26-3 25-6 23-6"/>
<path d="M13535 38515l 25-2 26 4 25 6 22 12 21 16 5 28-4 25-13 25-14 22-16 25-17 22-15 20-15 22-16 20-15 21-10 22-12 21"/>
<path d="M13869 38699l 23-6 24-8 26-9"/>
<path d="M14160 38553l 26-3 23 6 23 8 20 13 15 20 10 23 3 24-3 26-11 26-15 25-18 20-19 21-21 20-21 19-17 17-16 19-17 17-17 19 26 3 29-3 26-3 26-1 28-2 26 0 24-1"/>
<path d="M14551 38727l 23-8 25 2 28-1 25-4"/>
<path d="M14810 38575l 24-8 26 12 25 13 22 11 26 8 18 16 10 23-1 24-11 24-16 25-20 22-20 15-24 17-21 17-20 16-22 19-19 16-16 19 26 3 26-2 29 1 25-5 25 1 25-1 24 3 25 3"/>
<path d="M15344 38727l 23-13 24-7 26-7 27-3"/>
<path d="M15339 38784l 24-5 28-6 31-5 25-7"/>
<path d="M15591 38742l 24-6 27-5 25-2"/>
<path d="M16009 38532l 1 27-7 25-9 28-12 22-13 21-16 23-14 23-16 24-13 24-6 24 19 17 25 3 26 0 27-2 29-2 30-3 29-4 25-3 28-5 25-6 29-8"/>
<path d="M16137 38692l-8 27-7 27-2 26 1 28 4 25 4 26 4 25 2 26"/>
<path d="M7366 36537l 13 21 1 30 0 25-1 29-1 30 0 32-1 30 1 31 1 30 0 31 1 31-1 31 0 32-1 30-1 29 0 28-1 27 1 26 0 31 3 25"/>
<path d="M7621 36585l-16 22-10 32-9 33-6 24-4 27-5 26-5 28-3 28-3 29 0 29 0 30 0 28 3 27 4 25 9 33 10 25 15 21 23 18 28 6 26-9 20-12 22-20 20-24 15-25 11-23 10-26 3-28-7-26-17-16-26-11-25-3-24 2-24 8-22 14"/>
<path d="M7998 36991l 4 24 23 12 27-3 22-11 26-20 21-20 21-24 19-27 15-19 20-28 20-28 13-27 10-26 7-26 4-25 2-26-3-27-4-27-6-26-8-25-22-15-22 11-20 26-15 28-15 31-9 24-7 24-6 25-6 26-4 27-2 29 0 29 2 31 2 30 4 30 2 28 6 26 8 26 11 32 16 23 22 21 27 12 25 0 25-9 23-16 17-22 13-22 6-25-1-24-10-26-14-20-21-13"/>
<path d="M8425 36913l-23 12-16 18-14 22-11 27-8 26 8 22 28-2 22-10 21-11 20-13 25-1 24-7 18-16 12-22-1-25-9 25 9 23 13 21 14 21 10 22-10 22-23-13"/>
<path d="M8590 36987l 26-8 26-9 24-10 21-12 23-9 11-22-11-23-25-3-23 10-17 19-10 22-1 25 13 22 23 13 24 5 26 0 25 0"/>
<path d="M16390 38713l 21-12 24-10 25-7 23-5 26-5 25-3 26-6"/>
<path d="M16500 38597l 4 24-3 28-1 24 0 26-2 26-3 26 4 24 6 23"/>
<path d="M16963 38568l 8-26 3-25-4-24-22-12-27-2-26 5-24 14-21 18-20 22-20 21-14 25-9 26 12 21 25 4 27-8 24-9 22-12 21-14 22-13 19-15-5 28-7 25-7 27-7 26-3 28-3 27-6 26-3 28-5 25-8 26-1 25"/>
<path d="M17115 38637l 25-13 26-1 26-1 24-1"/>
<path d="M17122 38675l 24-5"/>
<path d="M17369 38629l 27-3 27-4 28-2 28-5 24-6"/>
<path d="M17450 38553l-19 18-8 27-2 26 3 28 0 27 6 24 2 25"/>
<path d="M17680 38464l 23-10 24-2 26-2 28-2 26-2 25 1 24-1"/>
<path d="M17774 38455l-17 18-14 21-12 23-5 24-1 27 1 24 5 24 16 19 25 0 26-5 29-1 25 2 26 3 25 3 26 6 23 7 25 6 20 13-4 25-16 19-16 18-22 19-23 14-26 10-27 8-28 3-27-3-25-12-23-14-22-15-25-14"/>
<path d="M8925 36777l 21-13 26-7 25-8"/>
<path d="M9096 36605l 20-14 25-3 25 1 28 3 24 6 24 8 23 11 12 21-3 27-11 21-20 25-16 19-17 18-17 18-18 17-20 20-20 20-16 23-8 23 24 9 28 0 28 0 25 0 28 2"/>
<path d="M18211 38592l 19-17 25-6 28-7 24-5 25-6"/>
<path d="M18218 38647l 26-5 24-6 27-6 28-5"/>
<path d="M18387 38478l 27 1 27 5 22 8 26 6 25 7 24 9 22 10 19 15-5 24-16 20-17 18-19 19-18 18-20 19-17 19-13 22"/>
<path d="M18866 38440l-9 23-4 24-1 24-8 26-11 29-9 26-10 27-7 26-9 26-11 27-13 24-8 24"/>
<path d="M19182 38497l 7-27 4-28 1-24-7-24-25-2-23 13-22 16-21 18-19 19-17 19-18 23-12 28 1 24 21 18 26 2 26-7 26-12 25-14 19-15 22-14 10 24-8 27-8 25-6 25-6 26-5 24-5 24-7 27-6 24-2 25-3 29 2 27"/>
<path d="M11567 39368l 22-11 26-5 26-9 28-9 29-8 25-10 24-9 26-7"/>
<path d="M11646 39374l-14 20-13 22-15 26-10 24-8 28-4 28-2 25 13 24 22 10 25-7 19-17 17-17 22-16 21-13 25-7 28 0 27 6 25 10 12 23 3 24-7 26-15 26-15 20-16 20-16 19-18 19-20 16-20 14-27 14-23 7-28 1-27-4-22-16-15-22"/>
<path d="M11966 39376l 26 1 26-6 28-4 30-5 25-3 26-3 29-5 24-6 24-8"/>
<path d="M12112 39372l-21 14-12 23-10 28-5 25 0 30 6 25 7 28 10 25 8 25 3 28-3 25-8 24-11 25"/>
<path d="M11963 39717l 24 0 26 0 27-4 31-2 31-2 25 0 31 3 29 0 30 1 26 0"/>
<path d="M12563 39501l 23-6 28-2 25 1 26 1 28 3 24 3"/>
<path d="M12562 39589l 26 5 31 3 29-2 25-1 27-3"/>
<path d="M12734 39404l 20 16 22 14 22 12 24 14 23 13 20 15 17 17 12 24-5 27-15 25-17 21-18 20-20 18-22 16-21 15-22 12"/>
<path d="M13131 39623l 26 2 26-3 24 1 25 0 22 11"/>
<path d="M13412 39463l 24 4 25 3 24 8 26 8 24 8 25 12 19 18 13 24 5 26-1 27-12 25-20 24-19 20-21 19-23 19-21 19-22 19-23 18-20 21-17 18-19 17-23 20-18 17-18 17 25 9 28-3 30 3 29 2 25 3 29-1 24 1 27 1 25 1"/>
<path d="M13836 39620l 27-4 24 0 24-1 25 0"/>
<path d="M13835 39704l 26 2 26 0 24-7 25-6 25-3"/>
<path d="M14246 39511l 17-17 25-7 25 1 25 9 25 7 19 16 8 23-13 23-23 18-23 16-22 19-23 14-21 14-21 13-25 9 22-10 23-12 25-6 26-4 25-2 26 2 25 5 24 8 22 13 23 9 15 19 6 25-9 23-14 20-14 19-19 19-20 15-22 13-26 8-24 7-24 4-27 2-28-3-27-9"/>
<path d="M14043 39626l 24-5 26-5 24-5"/>
<path d="M14098 39532l-7 24 2 25 8 26 9 23 4 25-2 25"/>
<path d="M14683 39612l 23-11 25-4 26-4 27-3 29-3 29-3 25-3"/>
<path d="M14753 39654l 25-5 26-6 26-4 28-3"/>
<path d="M14869 39520l 27 1 25 6 25 7 24 8 23 8 24 9 23 9 14 21-7 25-17 19-22 14-22 13-19 15-20 15"/>
<path d="M15323 39447l-14 25-12 30-10 31-9 31-9 34-5 27-3 28-2 27 0 28 0 33-2 29-1 27-3 24 2 24"/>
<path d="M15407 39495l 25-11 26-7 25-7 25-8 29-4 25-4 29-3 26-1 24 6 16 19-3 25-8 25-9 24-11 26-13 27-14 26-11 27-13 25-13 28-13 24-9 24-10 23-10 25-10 24-12 21"/>
<path d="M11560 40291l 2-26 3 26-1 30-4 25-5 30-6 32-6 33-6 34-7 34-5 35-3 30-2 28-4 24-1 24 0 24"/>
<path d="M11749 40320l 22-11 23-7 25-4 24-5 25-6 24-5 29-1 27-3 24-6"/>
<path d="M11854 40349l-13 21-2 27 3 26 5 25 7 27 2 26-4 30-10 33-12 26-12 25-9 25"/>
<path d="M11719 40684l 26-6 28-6 27-6 29-3 28-4 27-2 27-1 24 1 24 1"/>
<path d="M12389 40225l-15 22-13 27-10 24-10 25-11 24-13 23-10 24-8 26-7 26 1 27 18 18 30 1 25-7 31-10 25-9 24-8 31-10 23-9 27-10 26-7"/>
<path d="M12473 40328l-12 21-5 27-3 27 0 31-3 25-1 31 0 27-1 30 0 29 5 26"/>
<path d="M12653 40295l 2 29 5 26 7 28 8 25 7 25 9 30 8 27 12 31 12 27 13 25 12 21 15 23 16 19 27 0 24-23 15-26 11-23 10-22 8-24 9-25 11-34 8-25 5-26 4-35 0-35 3-30 1-28-4-25"/>
<path d="M13196 40404l 25-4 24-1 24 3 30 7 24 4 24 11"/>
<path d="M13190 40494l 27 5 25-4 26-3 28-1 25-5 25-5 26-2"/>
<path d="M13358 40329l 26 1 28 6 25 8 25 11 22 16 19 16 21 15 13 23-3 26-15 23-19 22-16 20-17 21-23 19-25 18-23 18-23 16"/>
<path d="M13749 40533l 23-10 26-4 28-3 28-4 30-3 25 1"/>
<path d="M14030 40388l 25-5 24 2 29 5 24 3 23 10 21 15 20 18 12 24 2 26-6 31-12 26-12 21-19 25-17 18-19 19-20 19-20 16-24 19-19 16-24 13 20 15 26-2 26-3 28-1 24-1 25-4 26-2"/>
<path d="M14471 40490l 25-3 27-5 27-3 26-3 26-6"/>
<path d="M14474 40554l 27-3 28 0 28-5 28-5 28-4 26 0"/>
<path d="M14638 40446l 23 14 24 11 17 17 22 13 20 15 20 16-8 25-20 18-20 16-22 13-22 15-23 13"/>
<path d="M15126 40363l 15 23-1 28-2 30-3 25-4 28-3 27-4 27-1 30-3 27-2 24-2 27 1 27-1 25-5 24-10 22"/>
<path d="M15431 40365l-8-23-23-13-26 4-21 14-21 17-21 21-18 27-12 27-9 23-4 25 11 24 29 0 24-10 26-14 21-17 18-16 18-19 12-21 2 27-3 28-2 24 2 26 0 29-6 28-6 25-4 28-3 25-7 27"/>
<path d="M14891 40566l 23-15 25-10 27-9 26-6"/>
<path d="M14976 40475l-17 20-4 26 0 27 7 26"/>
<path d="M15761 40485l 24 2 24-4 28-3 24-3 26-5"/>
<path d="M15766 40541l 28-5 24-5 24-2 28-3 25-5"/>
<path d="M15931 40405l 23-5 25 5 26 6 26 9 21 12 7 23-17 18-22 18-20 15-23 13-18 19-20 15-19 17"/>
<path d="M16222 40267l 26-1 26 1 25-1 28-1 29 0 28-1 27 1 28-2 24 3-1 24-17 22-19 16-20 17-20 17-19 15-26 13-24 13-23 6 26-5 26-5 28-4 25-1 25 3 26 5 24 6 25 10 18 19 3 26-13 22-18 19-19 20-19 16-22 14-24 8-26 7-24 2-19-17"/>
<path d="M16663 40240l 27-5 28 0 25 4 25 9 17 19-3 27-14 22-15 20-20 16-21 14 25-6 27 2 28 7 26 10 23 11 21 13 21 15 16 19 7 23-10 25-16 21-16 19-21 19-25 14-25 10-25 3-26-2-27-6-23-9-23-12-20-13"/>
<path d="M2087 42907l 17-19 26-5 24-5 25-3 25 0 27 2 26 5 26 8 21 12 20 16 9 26-4 27-10 23-15 28-17 21-17 22-17 20-16 21-16 21-14 20-19 24-16 22-15 22-12 21-12 23 1 24 8 25 11 22"/>
<path d="M2172 43533l"/>
<path d="M2506 43010l 21-11 24-3 25 0 25 6 22 13 17 20 10 25 1 25-6 27-9 29-10 27-12 26-13 27-10 28-9 25"/>
<path d="M2577 43426l"/>
<path d="M2892 42913l 8 25 6 24 6 30 5 32 5 32 4 32 6 31 5 30 5 28 5 27 9 29 8 25 11 23 25-6 17-20 20-30 15-22 13-24 13-25 13-27 12-27 13-28 13-28 13-28 13-26 11-27 10-23 13-31 10-25 9-26 7-25 3-25"/>
<path d="M1590 43110l 2-24 15-21 22-10 28-7 25-6 26-2 22 12 11 22 2 27-5 26-10 27-15 28-16 23-17 24-17 26-17 25-13 25-9 23 49 118"/>
<path d="M1075 43084l 21-14 27-3 25 3 22 9 17 18 8 23 3 28-3 28-6 26-8 29-8 23-9 24-10 26-12 25-12 27"/>
<path d="M1113 43568l 24-5"/>
<path d="M7283 43460l 23-5 25-8 28-8 29-8 27-7 27-7 26-6 27-7 24-5"/>
<path d="M7409 43423l-20 14-12 23 1 27 3 25 4 25 3 25-1 29-1 25-5 27-5 27-6 27-6 27-7 27-7 24-8 28"/>
<path d="M7258 43870l 23-9 26-8 28-3 28-3 24-1 29-1 28-2"/>
<path d="M7700 43472l 21-16 27-7 26-6 25 0 24 6 18 16 4 26-4 24-8 24-12 25-10 23-13 22-12 23-10 27-5 29"/>
<path d="M7797 43800l"/>
<path d="M8002 43485l 2 26 3 24 4 29 8 31 6 24 9 24 7 23 11 27 11 24 13 22 15 21 26 1 15-21 16-25 12-22 11-23 10-28 10-34 8-25 7-24 8-23 10-33 8-29 6-23 3-26 5-26"/>
<path d="M8519 43420l 23-9 29-4 26-4 29-6 30-8 26-5 26-3"/>
<path d="M8612 43442l-11 24-4 26-4 30-2 25-1 27-1 28-1 29-1 31-2 28-3 27"/>
<path d="M8493 43785l 25-5 29-4 24-3 26-2 26 0"/>
<path d="M8952 43432l 14-20 24 2 25 10 23 13 15 20 0 27-4 24-6 25-7 25-8 25-11 25-10 24-6 26"/>
<path d="M9023 43728l 21 11"/>
<path d="M9282 43444l-2 28 1 27 0 30 1 31 6 30 7 29 7 28 11 23 11 22 17 18 24 1 22-19 18-24 14-21 14-23 16-25 12-24 10-24 8-24 6-23 9-30 6-25 4-25 1-27"/>
<path d="M9760 43378l 18-17 24-9 24-2 20 14 11 22 1 25-3 28-10 23-12 27-10 23-9 23-10 26-6 25"/>
<path d="M9790 43697l"/>
<path d="M10071 43359l 15-20 24-9 23-5 24 11 21 15 3 28-6 25-12 25-12 27-15 26-15 24-10 22-10 26"/>
<path d="M10083 43711l"/>
<path d="M10362 43376l 20-14 25 2 22 10 22 16 15 22 5 25-2 25-12 25-14 22-17 25"/>
<path d="M10365 43753l"/>
<path d="M10659 43351l 24-9 27 4 27 3 26 7 24 6 8 25-6 28-9 24-14 23-13 25-13 26"/>
<path d="M10687 43726l"/>
<path d="M7357 45009l 11-22 25-11 24-6 26-3 25 0 25 10 22 15 20 18 14 20 1 24-7 26-13 23-16 26-22 26-16 20-18 19-16 19-25 26-18 17-26 23-26 21-22 20-19 17-21 19-19 17-20 14 28 1 28-3 24-4 30-8 25-6 25-7 25-4 29-4 24-2"/>
<path d="M7695 45025l 24-10 26-4 26-3 25-7 26-6 26-3 25-1"/>
<path d="M7790 45026l-3 27 2 27 0 26 1 25-2 28-5 28-5 31-5 31-5 28-4 26"/>
<path d="M7636 45348l 24-4 28 2 29 4 28 4 24 2 30 1 29 2 26 3 27 3 25 6"/>
<path d="M8373 44986l-17 20-14 23-13 21-16 23-17 24-18 25-17 24-16 23-14 20-13 21-7 24 13 22 24 5 26-2 29-3 29-4 27-5 28-9 23-8 26-8 25-10 25-7 28-8 27-10"/>
<path d="M8408 45117l-16 20-6 28-4 25-4 30-6 24-6 24-3 29 0 24 9 24"/>
<path d="M8594 45061l-4 28 1 30 5 30 5 28 8 29 11 30 11 26 14 24 16 22 24 10 25-10 23-23 16-23 15-28 16-28 12-29 11-30 11-29 12-30 9-31 7-31 7-30 6-27 6-31 4-26"/>
<path d="M9719 45096l 26-7 27-7 26-9 23-6 27-7 25-8"/>
<path d="M9752 45115l 27 2 26-7 28-12 23-11 21-11"/>
<path d="M9891 44967l 26-4 24 0 25 5 24 7 9 22-9 26-13 24-15 24-13 20-11 22"/>
<path d="M10325 44940l 23 6 25 2 27-3 30-7 28-8 31-6 24-5 27-5 27-4"/>
<path d="M10489 44940l-10 22-1 24 0 31-1 25-2 27-3 29-5 30-5 23-5 25-6 31-7 27-5 23"/>
<path d="M10353 45294l 23-12 25-5 31-8 29-5 25-5 27-2 24 1 28 0 30 3 25 10"/>
<path d="M10799 44891l 20 17 8 25 4 25 4 28 3 25 2 27 2 29 3 29 2 30 2 27 2 26 4 31 5 28 27-5 14-26 12-21 13-25 12-22 11-23 11-25 13-26 13-25 11-23 8-25 11-28 9-25 6-24 9-22"/>
<path d="M11212 44927l 2 27 5 25 9 29 8 24 8 25 7 25 6 24 4 24 6 26 8 23 23-7 14-25 11-27 7-27 7-24 9-30 7-28 4-27 6-26 7-26 9-25 16-17"/>
<path d="M11605 44923l 20-15 27-4 26-4 24-4 25-4 28-4 24-3"/>
<path d="M11685 44919l 0 25 3 27 1 28 1 25 4 28 3 26 2 27 1 29-2 28"/>
<path d="M11586 45248l 20-16 22-11 26-3 27 3 29 1 27 3 29 3"/>
<path d="M11974 44947l 0 24 2 29 4 33 3 27 5 27 4 28 8 27 7 27 9 26 7 28 8 28 12 21 23 14 23-10 21-19 18-24 15-27 17-30 18-28 14-28 14-30 12-29 14-31 14-29 9-28 8-25 9-28 5-25"/>
<path d="M12501 44897l-4 25 6 24 3 31 5 25 4 24 6 26 5 25 7 26 6 31 4 28 10 26 16 18 25-2 18-19 13-24 12-29 11-23 11-26 10-28 8-31 7-30 7-30 5-26 3-27 3-25"/>
<path d="M12977 44956l 25-5 25-3 30-6 23-6 24-7"/>
<path d="M13013 44971l-14 23 3 26 6 24 8 24 6 26 8 25 1 27-2 27"/>
<path d="M12926 45249l 24-8 24-3 25-2 28-4 25-3 24-4 28-2 26-2"/>
<path d="M13297 44994l 4 27 9 24 9 27 9 27 11 27 13 26 9 25 12 25 14 24 21 14 26-8 24-21 19-24 21-25 20-26 15-25 11-27 7-27 7-28 6-28 5-27 1-25 0-26"/>
<path d="M13809 44896l 21-12 30-8 26-7 27-6 28-5 28-4 26-2 27 0"/>
<path d="M13864 44910l-11 25 0 27 9 28 8 25 8 25 6 26 1 25-6 24"/>
<path d="M13735 45203l 26-5 27-2 26-2 27-2 27-3 29-3 28-4 28-5"/>
<path d="M14202 44899l-5 25-3 29 1 28 5 29 6 26 11 27 13 24 12 26 15 19 18 16 20 15 27-6 22-18 17-19 17-20 19-23 16-26 12-29 13-28 13-31 11-31 7-30 5-28 4-30-4-25"/>
<path d="M9822 45839l 25 1 25-6 26-9 24-7 25-4"/>
<path d="M9807 45927l 26-2 26-4 25-6 28-10 25-11 23-11"/>
<path d="M9950 45769l 25 3 26 0 29 2 29 3 26 6 23 10 21 12 9 23-12 27-17 23-20 17-19 17-20 17-21 18-20 17"/>
<path d="M10389 45805l 2 24-4 25-3 29-5 31-6 24-4 25-5 30-5 29-6 30-3 26-6 28-5 28-4 25"/>
<path d="M10521 45856l 14-20 28 3 25 5 27 4 24 8 21 13 16 23 6 26-1 25-6 28-13 30-14 22-16 22-19 22-19 17-24 20-23 16-23 14-24 14-23 8 24-14 25-6 24-5 26-4 28-4 27-3"/>
<path d="M10837 45989l 23-8 24-6 26-3 28-3 25-3 27-5 27-5"/>
<path d="M10966 45879l-9 25 3 27 4 25 2 26 2 26 5 26"/>
<path d="M11242 45854l 21-14 24 3 25 11 27 13 20 16 18 20 16 19-1 29-11 23-12 21-16 19-22 20-20 18-21 20-22 18-22 17-20 16-18 16-20 15-19 14 22 14 28 1 30-5 31-5 24-6 24-6 25-7 25-5 29-8"/>
<path d="M11551 45995l 24-11 24-7 25-7 30-4 26-1"/>
<path d="M11647 45912l-11 23-1 25 0 27 1 24"/>
<path d="M11881 45825l 27 6 22 11 22 13 24 9 23 11 20 17 2 25-10 25-22 22-25 20-25 19-23 18-20 15-23 15-21 14-19 18-15 21 17 21 29 1 25-4 26-5 28-8 30-8"/>
<path d="M12213 45930l-28 3-15 23-7 23 2 26 15 22 19 18 23 10 27 5 25-1 26-7 23-14 16-21 8-26-9-25-14-21-20-17-26-9-25-4-25-1-26 8"/>
<path d="M12498 45977l 24 5 28 3 28 2"/>
<path d="M12749 45884l 24-5 27 7 23 10 21 11 22 13 20 15 8 25-10 25-15 22-17 22-20 21-20 22-24 20-24 18-23 15-23 17-19 16 23 12 24 1 27 2 24 1 27 0 29 3"/>
<path d="M13107 45998l 26 1 24-1 26 1"/>
<path d="M13354 45894l 27-5 24 10 26 9 22 16 18 18 0 27-12 21-17 18-20 15-22 15-21 14-20 14-24 15-20 19-16 20 8 23 20 17 27 9 27 7 31 3 25 1 30-1"/>
<path d="M13628 46008l 26-4 28 1 26 0"/>
<path d="M13915 45929l 22-11 26-6 28-1 27 4 27 9 23 12 21 17 15 21-3 25-16 25-22 21-21 16-23 16-24 16-25 14-23 15-21 16-16 20-4 24 20 14 25 3 29 0 30-4 32-5 27-6"/>
<path d="M14250 46026l 26-7 27-3 24-3 30-4 32-6 25-4"/>
<path d="M14564 45898l 25-6 28 4 23 7 25 11 20 15 16 21 10 24-7 23-16 22-24 18-27 15-25 14-22 14-23 14-17 20-12 21 18 17 27 4 28 0 24 0 24 0 28-2 26 3 27 4 24 4"/>
<path d="M14909 45995l 26-4 27-1 25-4 29-5"/>
<path d="M14918 46041l 25-8 29-4 26-2 25 2"/>
<path d="M15375 45880l 13-23 29-4 25 3 26 5 23 10 21 16-1 27-13 24-16 19-18 18-19 19-22 19-21 18-19 19-18 16-23 20-19 15-17 20 2 24 28 5 25-1 30-4 27-6 30-8 31-9 33-10"/>
<path d="M15799 45806l-23 14-25 23-22 21-20 24-17 26-13 26-8 25-5 24 7 26 11 23 18 19 23 11 26 6 28 4 28-3 24-8 20-13-13-23-24-12-26-6-28 1-25 6-25 10"/>
<path d="M1295 48350l 11 22 22 14 28-1 22-11 28-19 22-23 15-19 16-23 16-25 17-27 17-30 17-30 17-32 16-31 16-31 15-30 12-30 10-28 9-29 7-27 6-26 3-34 0-26-4-26-23 18-14 30-11 26-11 29-12 31-10 33-10 32-7 34-5 34-3 34-3 35 0 34 0 32 4 31 6 29 8 27 10 24 16 30 17 23 24 14 29 0 24-13 12-22 2-28-9-27-11-22-15-23-15-24-14-22-11-22"/>
<path d="M1709 48201l 27-7 25-10 21-10 25-14 21-16-10-22-26-1-26 5-21 17-16 23-12 26-8 26 2 28 17 22 22 13 24 3 29-3 24-5 25-8 27-9 23-10 24-9"/>
<path d="M2044 48126l-20-17-25-5-23 11-18 19-15 22-13 22-7 25 16 19 24-4 23-13 20 14 22 13 24 2 26-6 24-10 13 21 23 11 23-13 21-16 21 16 10 23 20 13 27-9 20-15 22-23 16-20 18-22 17-25 17-26 16-27 13-25 12-24 12-25 10-24 7-25 7-30 6-26-15 25-11 26-8 27-11 29-10 31-7 24-8 25-7 26-6 28 0 25 13 22 24 9 24-8 17-20 10-24 2-26-10-25-20-20-26-13-24-9-27-8-26-4 23-13 23-9 28-11 25-11 27-11 24-9 26-7 24-2 18 18 2 25-2 24-1 26 2 26 12 24"/>
<path d="M2610 47932l-17-17"/>
<path d="M2638 48152l 19-20 17-17 23-21 20-18 20-20 21-22 19-23 19-23 15-22 14-23 13-28 7-25 1-29-3-26-11-22-22 13-18 27-15 26-16 32-11 24-11 28-12 31-11 32-11 34-9 36-8 35-7 36-4 35-3 33 0 31 1 27 4 34 7 26 13 25 22 17 26-1 14-22 7-29 3-27-2-28-4-31-4-27-3-26-3-25-3-28-3-26 25 0 19 16 21 13 19-15 10 23 25 7 24-6 21-14 17-18 16-19 15-21 14-23"/>
<path d="M3001 47891l-26 5-12 23-7 24-6 27-5 29-5 31-3 26 0 32 5 29 11 28 17 25 20 19 24 13"/>
<path d="M3300 47971l 17-17 22-10 27-9 30-8 24-6 25-5 26-4 27-4 31-1"/>
<path d="M3345 47991l 25-9 24-8 28-7 25-6 24-6 27-5 27-5 25-7"/>
<path d="M3530 47851l 24-7 24 5 25 12 23 14 21 13 16 18-7 25-18 18-22 16-22 19-20 15-22 14"/>
<path d="M3341 47910l-24 9-15 19-18 17-16 19-10 22 16 19 23 8 30 2 28-1 32-1 25 1"/>
<path d="M4016 48068l-4 30-6 25-10 30-10 23-12 28-13 24-13 21 18-17 16-21 17-23 19-22 17-23 17-23 18-22 21-19 22-12 25 2 10 23-2 25-6 27-7 25-3 25"/>
<path d="M4290 48095l-25 4-19 18-12 24 2 25 14 21 26 13 28 3 26-2 24-8 21-13-11-24-19-15-22-13 3-25 21-13 23-12 24-14 22-14 24-6 10 24 3 29 2 26-1 27-3 27-8 23 23-11 17-19 16-18 20-23 19-20 19-16 12 22-3 25 0 26 12 24"/>
<path d="M4740 48070l 24-5 25-3 28 1"/>
<path d="M5016 48090l 17-18 16 20-3 25-9 28-10 25-12 23-13 23-16 25-15 19 5-26 16-26 17-27 18-27 19-25 18-22 17-16 21-13 16 18-2 27-6 27-8 26-11 27-8 24 28 2 20-18 19-16 19-17 20-17 16-18 17-20 20-17 13 21 0 27 2 24 21 12"/>
<path d="M5451 48098l-23-7-25 14-16 24-8 24-2 24 2 24 14 20 24 15 24 2 25-7 21-15 2-24-11-24-13-22-7-25 14-24 25-11 24-6 25 3 19 16 10 22 5 25 4 26 22 10 23-11 23-17 20-17 20-17 7 24-6 24 8 24 20 17"/>
<path d="M5913 48116l-18-16-24-2-25 10-22 15-19 16-17 18 20 15 24-8 22-11 14 21 17 18"/>
<path d="M6074 48073l-10-23-20-13-25 3-21 15-16 19-14 22-2 28 8 24 22 11 25 0 22-12 9 24-3 25-2 25-2 25-4 28-5 32-5 28-6 28-8 31-8 31-9 32-11 33-10 32-12 31-13 29-14 32-14 29-10 23-12 25-19-19 0-24 6-29 9-34 9-23 10-24 11-25 15-25 14-28 15-27 14-29 13-28 15-27 13-27 12-24 17-30 14-22 13-21 15-23 15-22"/>
<path d="M9795 48337l 25-5 27-2 28 2 28 4 28 4 29 2 29 1 28 1 32-1 25-2 30-4 27-4 26-4 30-4 27-4 26-6 25-5 31-1 27-2 26-2"/>
<path d="M10503 48288l 26-2 26-1 25 1 24 1 28-1 25 0 24-3 26-2 27-2 25-2 27-2 28-2 24-2 31-1 31 1 29 0 27 0 28 1 24 1"/>
<path d="M11201 48284l 27-5 31 0 28-1 28-2 31-3 28-3 31-3 29-2 27-4 26-4 26-2 27-2 25-3 25-2"/>
<path d="M11808 48266l 28-8 28-3 25-4 28-4 24-4 26-5 27-5 25-3 28-6 27-1 26 0 29-3 28-1 28 0 25 2"/>
<path d="M9684 48585l 8 23 1 25-5 25-5 29-4 24-4 26 1 26 10 22 25 4 29-2 29-3 27-3 30-5 33-5 35-6 24-4 28-5 28-5 28-5 29-5 27-3 28-3 27-2 28-3 28-1 29-2 28-1 30-2 31-1 32-2 32-1 32-2 30-1 29-1 31-2 29-2 29-3 31-2 26-3 25-2 26-2 35-2 29-4 25-3 28-4 27-4 24-4 24-8 23-6 25-8 25-6 24-6 22-10 7-25 1-27 4-24-3-25"/>
<path d="M10402 48826l 3 27-2 26-5 27-8 28-5 27-4 27-6 24-2 26 14 22 24 6 26-1 26-3 25-2 28-2 32-4 27-5 32-5 36-5 24-4 27-4 28-5 31-4 33-3 29-3 29-3 26-1 27-1 28-2 27 0 27-2 26-1 26 0 29-2 26 0 26-2 25 0 37 0 24-1 25 0 36-1 34-1 32 0 31-2 24-1 26-1 30-3 26-5 25-5 22-11 19-15 12-25 2-25 1-25 2-25-2-25-9-25-26 3"/>
<path d="M11048 49156l-9 24-6 24-2 25 0 25-3 27-4 25 1 25 6 23 12 22 22 15 25 1 28-2 30-6 24-5 27-3 29-3 24-3 27-2 27-3 28-2 27-3 27-3 29-2 28-1 28-1 29-2 28-2 28-1 30-1 28-2 27 0 26-2 26-1 24-1 36 0 32-1 33 0 30 2 28 0 27 2 25 1 30 0 25-1 27-1 25-4 22-13 18-17 18-16 2-26-6-25-14-22"/>
<path d="M9582 51240l 24-6 28 0 26-2 28-1 29-4 26-4 29-4 27-4 27-5 28-4 31-4 28-4 25-3 31-5 29-4 29-5 25-2"/>
<path d="M10398 51199l 24-5 26-3 30-3 24-1 27-2 33-4 28-5 30-7 24-4 26-5 32-4 25-2 25-3 24-2 34-3 31-2 26 0 26 3 26 7"/>
<path d="M11171 51134l 26-5 29-3 26-3 30-1 25 0 25 1 30 2 32 1 31-3 35-3 24-4 26-5 24-4 34-4 30-2 27-1 26 1 26 1"/>
<path d="M12062 51024l 24-5 26-1 25-1 28-1 28 0 27 0 25 0 28 0 25 0 28 0 29 0 28 3 25 4 24 9"/>
<path d="M9510 51532l-8 24 6 24 25 5 25 5 24 6 27 6 27 5 28 5 29 2 25 0 30 1 25 1 29 2 29 2 30 3 25 1 26 2 25 1 26 0 29 0 28-1 31-1 35 1 33 0 34 1 31 0 33 2 33 2 33 3 33 2 29 2 29 1 30 1 29 1 28 2 30 0 32 0 31 0 31-2 29-1 30-2 28-2 29-3 25-2 25-3 25-2 25-2 25-3 26-3 21-12 8-24 8-25 6-29 3-28"/>
<path d="M11109 51472l-14 23 3 28-6 23-5 24-4 25 7 25 24 10 24 1 28 2 24 1 30-1 24-1 27-1 29-3 33-4 34-4 33-1 29-2 33-1 35-2 35-1 37-3 25-2 25-3 25-2 35-3 25-2 25-2 27-1 25-3 25-1 29-2 31 0 28 1 29 1 33 1 26 2 27 0 29-2 27-2 29-1 24 0 26 0 27-1 29-2 25-2 25-4 22-10 20-15 15-19 14-21 4-27 2-27-3-26-21-15"/>
<path d="M13968 50797l-5 27-10 25-11 23-13 26-15 27-12 21-10 22-13 22-14 30-14 28-13 22"/>
<path d="M14124 50857l-23 18-18 22-11 24-6 24-1 25 4 26 8 24 18 21 22 11 25 3 30-5 22-8 27-14 25-15 19-17 17-23 12-24-2-26-8-27-16-22-22-15-23-13-24 0"/>
<path d="M13818 50995l 19-15 23-15 23-14 24-16 21-13 20-15 21-13 27-16 26-14 25-10-17 24-26 22-19 18-20 17-21 17-22 16-21 15-20 14-26 21-23 19-19 19-22 20 25 11 28-11 26-11 21-11 25-13 23-9 25-6 16 18-14 21-14 20-10 23 22 16 30-3 27-5 28-7 28-7 26-5 23 6 6 25 6 26"/>
<path d="M14774 51202l 19-18 26-11 23-7 27-6 25-3 28-2 26 2 24 6"/>
<path d="M14814 51248l 20 14 32 5 25-2 28-3 28-5"/>
<path d="M15029 51094l 22 14 20 18 19 17 17 18 2 24-15 20-17 22-18 16-19 18-23 16-22 14-22 17"/>
<path d="M15404 50985l-20 15-20 21-19 19-19 23-17 21-12 21-16 27-12 25-3 27 9 27 21 20 31 10 30 3 35-1 26-2 27-3 27-4 26-5 26-5 25-6 23-7 24-6 34-9 34-10 28-8 24-7 24-11"/>
<path d="M15620 51073l-27 3-20 15-17 24-7 25-3 28-5 31 0 27 0 28 2 27 2 27 1 27-4 28"/>
<path d="M13144 48196l 18-17 26-8 26-3 29 1 26 3 24 4 25 5 25 10 21 14 5 25-14 27-16 19-20 23-24 23-26 22-25 22-24 19-22 17-22 16-21 20-19 17-17 18 6 24 25 7 30-3 29-6 24-5 25-7 25-6 29-6"/>
<path d="M12713 48298l 24 2 24-1 28-3 25-3 26-3 27 0"/>
<path d="M12779 48383l 23-12 26-11 29-10 29-6 26-8"/>
<path d="M12891 48188l 24 11 28 7 25 7 25 7 25 7 24 13 19 15 4 25-14 26-18 22-18 19-20 20-18 19-17 18-21 20-15 18-16 20"/>
<path d="M2091 51314l 12-26 11-23 12-24 5-24-15-20-28 3-27 5-31 11-22 9-31 16-22 12-21 15-20 15-20 15-25 22-17 18-2 25 28 8 28 1 35-2 25-3 27-3 25-4 25-4 25-2 34-3 29 0 25 0 27 4 22 14 4 25-10 24-13 21-19 25-21 24-25 24-24 23-22 18-24 15-24 11-25 10-27 3-18-17"/>
<path d="M2421 50952l-13 25-5 26-4 25-5 29-3 32-2 34-3 37-3 25-2 25-4 27-2 27-2 27-2 26-2 26 0 25 0 24 0 34 2 30 5 25 12 25 21 14 30 3 28-11 24-14 28-19 28-22 25-24"/>
<path d="M2303 51262l 11-26 19-18 23-17 25-15 29-12 23-6"/>
<path d="M2317 51482l"/>
<path d="M2707 51458l"/>
<path d="M1812 52438l 24 8 4 26-2 27-6 31-6 24-9 29-7 25-9 25 13-22 9-25 10-25 9-24 12-26 13-22 20-15 11 26-2 28-4 27-6 27-7 24-5 24 25-9 14-21 13-22 12-21 15-26 14-24 23 11 4 25 1 26 5 27"/>
<path d="M2132 52495l-25 10-14 21-7 27 3 25 13 21 23 6 26-7 25-12 23-16 22-17 19-22 8-25-8-23-21-17-23-9-28-6 18 22"/>
<path d="M2411 52424l 5 23 18 24 13 21 13 24 10 23 4 26-9 25-18 18-25 11-24 5-27 5-25-2-24-5 25 0 25 2 28-1 28-7 25-9"/>
<path d="M2626 52262l-4 27-3 28-1 25-3 27-2 29-3 28-4 30-4 30-5 30-2 29-1 27 12 24 27 2 24-10 21-14 20-17"/>
<path d="M2564 52383l 24-11 29-8 27-8 31-10 26-8 27-6"/>
<path d="M2857 52390l 25-8 28-4"/>
<path d="M2990 52568l 25 7 26-4 27-12 24-15 24-19 18-17 20-23 19-23 13-23 12-21 9-24 9-24 22-10 24 10 21 12 4 25-11 24-14 21-15 22-14 23-12 24-6 26 15 19"/>
<path d="M3385 52464l 23-10 22-8 25-12 19-15-21-16-26-2-25 8-21 16-18 21-14 23-7 25-4 26 1 25 19 17 28 1 27-5"/>
<path d="M3659 52418l-26-2-26 4-23 7-20 15-18 21-9 23-4 28 6 27 17 20 27 8 30-3"/>
<path d="M3748 52478l 24-2 24-8 24-10 22-13 19-17-10-22-27-8-27 0-27 8-26 17-19 20-13 24-9 26-5 25 4 25 16 20 25 7 28-6 25-9 28-12 26-15 28-14 26-16 21-14 22-14-12 22 20 14 24-14 21-14 20-15 18-16 13 20 4 27 20 15"/>
<path d="M4318 52234l-21 14-15 24-10 24-9 24-9 25-9 25-10 26-9 24-8 24-5 31 0 29 7 26 15 24 19 17 24 4 24-10 21-14"/>
<path d="M4195 52352l 23-11 29-9 28-5 24-5"/>
<path d="M4627 52354l 21-11"/>
<path d="M5014 52409l-19-17-27-7-25 1-25 11-21 14-19 21-15 22-10 22-3 26 25 10 23-12 26-21 24-19 24-21 24-23 20-25 20-27 17-29 13-29 9-27 8-28 5-25 5-26 4-30 0-24 3-25-15 22-12 27-9 24-9 28-9 28-9 30-6 30-6 30-5 30-2 27-2 24 3 27 9 27 20 17"/>
<path d="M5194 52349l-22 12-11 24-4 24"/>
<path d="M5248 52199l"/>
<path d="M5270 52376l 26-2 25-9 28-15 22-14 25-18 25-19 25-21 26-21 22-22 17-23 14-22 15-27 11-24 8-24 6-29 4-27-26 16-16 20-21 27-16 22-18 24-18 28-18 31-19 32-17 34-17 35-16 37-16 40-15 39-14 40-12 40-10 38-7 34-3 31 0 25 4 32 11 28 18 18 27-7 19-21 15-22 14-28 13-31 9-33 6-34 2-36 0-34-3-33-4-30-3-25-2-26-4-24 28-1 29-2 27-6 27-9 22-12 21-13 21-17 22-18 22-20 21-22 19-24 17-25 15-27 13-27 14-29 9-27 7-26 5-30 2-24-25 15-16 20-19 25-22 29-15 23-16 25-18 28-16 31-16 33-16 37-15 37-15 41-14 40-14 41-10 40-8 38-4 36 1 31 3 27 8 32 10 24 15 22 22 14 25-5 13-22 8-24 6-29 1-25 0-28-2-29-3-30-2-29-3-27-1-30-2-28 25 12"/>
<path d="M9529 54737l 24 2 26 0 26-1 29-4 30-1 24 1 32-2 25-2 27-3 33-3 28-4 26-1 29 1 29-3 25-1 25 2"/>
<path d="M10195 54751l 25-8 24-5 25-1 26-2 28 3 27 2 25 1 24-1 25-1 29-2 27-1 24 0 24-3 25 0"/>
<path d="M10759 54722l 25-7 26 2 27 1 25 1 26 1 26 0 27 1 29 0 28-1 27 3 29-3 28-1 30 1 24 0 24-1"/>
<path d="M11492 54687l 28-8 26-5 24-3 27-4 30-6 24-2 24-3 28-2 27-2 24 2 26 6 25-3 24 3 25 1"/>
<path d="M8923 55153l 5 24 1 28-1 31 0 25-1 26-1 26-1 24 0 25-1 27-3 27-3 26-3 26-4 27"/>
<path d="M9645 55155l 18-19 25-8 26-3 26-1 25 8 25 6 21 16 17 18 6 25-18 22-23 22-25 20-24 24-25 19-26 20-25 17-26 20-21 15-19 15-18 18-19 17 6 24 27-2 27-3 25-6 26-5 31-6 31-6 30-1 30-5 27-1 24 8"/>
<path d="M9027 56009l 0 24-2 28-3 26-5 24-7 24-10 32-9 25-9 25-10 25-9 28-10 25-9 25-5 24"/>
<path d="M9588 56027l 23-9 25-6 28 1 27 5 25 11 21 15 8 25-9 27-15 23-19 27-19 21-22 20-21 16-18 18-17 17-21 20-18 21-13 21 19 17 28-3 29-4 25-3 26-3 27-4 24-1 27 2"/>
<path d="M10116 55899l-14 23-11 32-11 27-12 28-13 27-11 27-11 25-7 24-6 25 4 25 20 13 28-1 28-11 23-10 26-9 25-6 25-4 27-2"/>
<path d="M10223 56024l-21 14-6 23-3 28-2 25-1 26-1 26 1 27 0 29 0 26-3 26 5 26 11 27 13 20"/>
<path d="M15173 53642l-3 26-4 32-2 28-2 30-3 31-1 30-1 30-1 29 3 30-4 29-10 30-6 27-8 30"/>
<path d="M15344 53699l 20-19 25-11 24-7 24-2 28 10 23 9 24 16 21 20 13 22 4 24-9 27-17 24-16 22-18 20-20 18-23 17-24 19-18 17-19 21-13 21 11 24 29 4 24 1 26 0 25-2 24 0 25 0 30 0 28 3 24 8"/>
<path d="M15069 54230l 24-5 25 1 28 2 28 4 25 5 26 8 6 26-14 23-18 22-22 18-22 16-25 18-19 19-17 17-21 21-16 19-15 22 0 24 25 0 25-10 25-13 29-13 24-10 22-10 28-12"/>
<path d="M15428 54264l 18-17 26 0 24 2 24 5-2 26-15 20-16 21 10 23 23 9 22 11 19 16-3 26-11 22-16 25-17 17-22 17-25 11-25 9-27 4"/>
<path d="M15076 54676l 20-15 27-8 27-6 25-3 30-1 24 8 1 26-18 22-18 18-21 18-19 18-10 21 20 15 22 11 19 15 12 24-10 26-15 21-18 20-21 22-21 20-21 14-21 15"/>
<path d="M15372 54679l 3 24-3 29-8 24-10 28-10 28-7 26-6 24 3 27 22 15 25 3 25-5 25-10 24-12 26-12 24-9 25-13"/>
<path d="M15504 54762l-21 16-2 24-3 31-1 24 0 25 2 25 5 29 3 27"/>
<path d="M14839 56607l-12 26-8 29-7 28-4 30-1 32 5 31 8 30 11 25 14 22 21 23 23 19 26 13 29 6 29-3 25-3 24-8 24-11 23-15 23-16 23-18 20-20 16-19 13-25 6-25-1-26-8-30-12-25-17-25-17-25-18-23-22-21-17-18-23-18-22-16-23-10-27 0-25 3-29 10-26 13-21 18"/>
<path d="M15542 56531l-23 12-22 15-15 22-11 23-12 27-5 31 3 27 6 27 12 22 20 15 22 10 26 7 27 5 26-4 26-4 31-6 24-10 22-14 19-15 22-17 19-17 20-22 11-23 6-27 0-29-10-25-11-22-13-23-19-23-24-17-26-9-30 0-27 8-28 10-26 10"/>
<path d="M16141 56436l-17 18-14 22-16 22-14 23-15 25-17 24-9 25-3 24 22 13 27 2 24-8 25-6 29-8 28-10 24-5 26-7 26-9 25-3 26-4 26-9 25-6"/>
<path d="M16253 56480l-3 30-5 25-5 31-1 25 0 25 0 25 0 31 0 29-1 24-3 28-6 26"/>
</svg>
