<svg xmlns="http://www.w3.org/2000/svg" viewBox="1561 2056 36314 43680" stroke="black" stroke-width="16" stroke-linecap="round" stroke-linejoin="round" fill="none" data-xena="-6 -17 0"><style>@media(prefers-color-scheme:dark){svg{background-color:black;stroke:white;}}</style>
<path d="M1747 2262l 8-25 16-18 26 1 18 16 11 24 4 26 1 28 0 29-4 24-5 26-8 27-9 28-13 25-15 25-16 20-6-23 2-27 4-33 5-25 8-34 9-33 11-31 13-31 13-30 14-27 15-23 16-19 20-15 23-8 25 8 18 24 8 31 1 29-4 32-6 34-8 34-9 31-10 31-9 28-6 25-6 25 13-31 12-34 9-25 11-25 11-25 11-26 11-24 11-22 15-27 14-23 15-22 20-17 22 11 3 28-1 24-3 24-2 27-3 26-3 26-2 24 0 30 3 26 7 24"/>
<path d="M2336 2243l-24-8-24-2-23 11-22 16-21 22-15 20-16 22-15 24-12 23-9 28-1 27 15 22 25 1 24-13 20-17 19-19 17-19 16-20 13-21-17 21-2 27 7 24 20 15 25-8 21-16"/>
<path d="M2430 2262l 16 20 17 18 19 16 16 18 18 20 19 16 22 12 28 2"/>
<path d="M2552 2222l-23 19-17 18-17 21-16 23-17 25-17 25-15 25-14 26-11 26-9 25"/>
<path d="M2777 2310l 22-12 25-5 24-3 28-6 24-6 26-4"/>
<path d="M3072 2321l 8 27 8 24 7 23 5 27 3 24 0 25-14-20 1-25 4-29 6-31 7-30 7-26 9-26 13-24 17-19 27-9 28-6 25-2 25-2 28-1 24 4"/>
<path d="M1664 3509l 22-17 20-16 23-22 21-17 22-20 24-24 23-26 16-18 16-20 17-21 16-23 16-24 15-25 14-26 12-26 11-26 9-25 7-27 6-26 3-25 1-32-3-25-11-24-24-10-21 11-17 23-15 29-9 24-10 26-11 28-10 28-10 31-9 31-7 30-6 33-5 31-4 33-3 32-1 30 1 30 3 27 3 25 5 24 9 33 11 28 14 21 18 20 22 9 26-6 20-20 9-24 0-27-7-29-12-27-16-26-17-22-14-21-20-16-4 26"/>
<path d="M2032 3432l 25 5 18-17 6-24-23-8-25 5-19 19-12 22-9 27 0 28 8 26 14 22 26 11 28 0 27-9 22-16 21-21 19-23 16-23 12-26 5-25 0-25-4-26-18 18-4 27 9 23 19 20 22 18 18 19 16 19 9 25-13 20-26 7-24 1-26-3 27-10 28-9 25-10 27-9 27-11"/>
<path d="M2413 3149l 0 28-1 25-1 26 0 29-2 24-1 24-1 24-3 32-2 24-5 32-4 30-3 29 0 24 3 28 18 15 29-6 23-12 23-15 25-19 19-16"/>
<path d="M2330 3355l 28-2 27-3 31-5 27-4"/>
<path d="M2698 3410l 22-11 25-4"/>
<path d="M3001 3314l-26 2-22 10-21 15-19 15-19 18 22 13 27-6 26-2 24 5 26 6 24 12 10 23-16 21-24 16-23 14-25 12-24 8-28 5-26-1-22-12 8-27"/>
<path d="M3133 3361l-5 26-1 25-2 25-4 31-4 26-3 28-4 27-4 26-4 26-4 25-5 30-5 25-3 25"/>
<path d="M3127 3334l 21-13 25-1 29 1 25 2 25 9 23 13 8 24-8 24-18 22-21 17-22 15-23 10-25 10-23-11"/>
<path d="M3423 3336l 27-7 23-9 25-11 23-13 20-15 2-25-25-8-26 6-23 13-21 17-17 16-19 23-14 23-8 24 5 27 17 22 23 9 24 6 28 0 29-2 30-5 28-8"/>
<path d="M3706 3317l-24 9-20 16-17 19-16 23-9 22 0 26 18 19 23 11 25 5 29 0 25-3"/>
<path d="M1784 4330l 26 10 28-12 22-14 25-19 20-14 21-18 24-19 25-21 25-23 24-24 22-24 21-25 19-25 18-23 14-24 12-23 10-22 9-31 4-28-3-29-9-26-18-18-25 1-22 17-16 20-15 28-13 24-11 26-12 31-14 32-11 34-11 36-12 36-8 35-7 35-4 33 0 31 1 28 5 25 9 33 16 27 17 18 24 15 25 3 27-8 25-16 16-19 13-22 9-25 4-25-2-31-8-27-13-26-18-22-19-15-25-3"/>
<path d="M2218 4253l 23-7 16-19-22-12-26 5-19 16-17 23-10 24-3 27 6 26 16 22 25 13 27 5 26-3 31-9 25-10 24-13 25-19 20-21 18-23 11-25-1-26-8-22-24-2-8 23 0 28 10 23 15 20 18 18 22 14 22 13-22 16-24 0-25 0-24 8 15 19 25-2 28-7 29-9 23-11 23-13 23-14"/>
<path d="M2596 4032l-15 19-5 25-1 26-1 29-2 26-3 28-2 30-3 32-3 31-3 30-1 28 2 28 7 24 16 23 26 7 24-5 22-12 23-18"/>
<path d="M2508 4227l 24-8 29-9 26-7 28-8 29-7 32-8 31-6"/>
<path d="M2777 4241l 27 2 25 2 24 0 25-1 25-1"/>
<path d="M3170 4278l-23 8-20 16-15 23 0 26 16 20 24 14 26 2 27-8 27-12 20-14 13-20-1-26-16-18-23-13-24-9 17-21"/>
<path d="M3367 4098l 15-26 12-22 9-25 4-25-23 9-11 22-10 28-5 24-6 26-6 29-6 31-3 31-1 32 0 28 1 27 7 28 8 23 15 19 25 11 27-2 28-10 21-16 14-24 0-29-16-22-25-16-23-12-25-14-24-11-24-10-28-10-29-2-26 1 29-4 30-7 24-7 24-8 26-9 28-10 29-12 26-13 25-15 22-16 19-19 19-23 9-26-1-26-8-28-14-21-22 14-12 27-9 29-4 26-4 28-3 31-2 37-2 24-1 26 0 26 0 24 1 25 2 24 3 31 4 27 8 29 11 21 23-15 15-25 11-24 11-24 9-24 10-23 11-27 13-21 18-16 10 24-4 28-3 25-3 26 3 24 13 22 28 5 26-8 24-11"/>
<path d="M3813 4238l-23 6 24 1 26-9 26-11 23-13 19-16-11-24-25-4-24 8-21 17-19 23-13 20-13 27-7 27 6 26 21 15 27 2 29-8 22-10 25-10 28-15 28-15 23-14"/>
<path d="M4029 4166l-25-1 21 12 22 10 21 15 14 21-14 22-20 16-17 19-10 24 10 23 22 14 25 4 28-3 28-6 23-9"/>
<path d="M4946 3003l-24-6-21 20-16 22-22 28-15 22-17 23-18 27-17 27-17 28-15 29-13 28-12 25-7 26-7 24-4 25-4 34 1 31 5 26 9 28 15 22 17 17 20 14 23 9 24 6"/>
<path d="M4980 3476l 24-11 18-21 14-21 15-24 12-23 9-26 6-24 5-25 24-7 24 7 26 9 24 11 22 10 23 12-4 25-21 19-18 16-17 18-13 20 14 21 27 3"/>
<path d="M5421 3402l-12-22-23-11-28 0-28 6-24 11-19 15-16 21-4 24 21 14 26-3 28-11 23-10 25-11 15 19 25 2 26 1 24-8 21-14 10-23-18 16-8 24 26-9 21-17 20-16 24 4 6 26 13 23 21 13 28 3 23-6 25-13 26-13 23-17 21-17 14-20 0-25-23-14-24 5-22 13-19 18-16 20 2 26 20 15 22 9 25 3 25 4 20 16 11 24 6 25 5 26 3 28-1 31-4 25-9 27-9 27-10 28-14 27-17 28-18 25-18 19-22 17-25 5-21-11-14-24-5-27-2-32 1-25 2-28 6-28 7-29 9-28 10-23 9-22 16-29 17-26 20-22 21-20 25-17 25-15 28-13 29-12 28-10"/>
<path d="M5944 3414l-21 12 24 3 24-12 16-17-3-25-23-11-27 2-23 10-22 15-16 21-9 25 1 29 9 23 22 17 24 9 29-3 26-8 29-14 21-14 21-16"/>
<path d="M6118 3220l 8 23 15 19 16 21 18 21 18 21 15 19 16 19 15 21 10 22 6 28 0 27-13 27-17 24-18 20-20 14-27 13-28 6-30-4"/>
<path d="M9358 2305l 8-27 12-21 13-20 15-21 22-16 24-3 14 25 0 29-3 29-7 31-8 33-11 33-12 33-12 32-10 28-9 25-10 25-6-25 6-27 6-30 9-29 8-28 11-22 16-24 17-18 27-3 16 21 8 28 1 30 0 29-2 26-4 25-8 25 22-13 20-25 16-22 15-21 17-19 17-18 20-20 18-17 22-13 16 20 1 24 3 26 5 26 14 22"/>
<path d="M9826 2403l 8-23-6-24-20-15-25 10-18 16-15 22-12 22 0 26 20 15 25-3 23-13 18 18 16 19"/>
<path d="M9892 2351l 26-4 25 6 22 12 19 20 15 23 13 20 14 21 21 12 24-8"/>
<path d="M10036 2302l-23 13-19 17-20 21-20 23-14 20-16 26-12 24"/>
<path d="M10563 2344l 0 25-2 27 0 28-6 28-3 25-13-21 1-27 6-25 12-27 17-25 21-24 19-17 18-16 23-18 21-16 22-12 25-4 25 4 24 8 20 14 17 18"/>
<path d="M9369 3182l 11 25 0 28-2 25-2 24-4 28-6 23-9 23-6-26 3-27 7-31 8-24 10-26 11-25 12-23 15-25 14-21 20-21 21-13 25-11 24-8 24-2 25 4"/>
<path d="M9724 3161l-7-23-16-21-26-4-24 13-22 18-19 19-18 18-15 22-9 23 15 21 27 1 25-6 23-9 25-13 21-14 13-21 9 23 22 15 22 12"/>
<path d="M9831 3159l-17 20-6 25 3 24 25-8 18-20 16-21 18-20 17-17 16 20-3 24 2 28 10 22 22 10 28-5 28-12 24-12 23-15 21-14 19-15 16-19 12-22-5-25-26 1-20 15-18 16-18 17-13 23 1 25 19 16 27-1 23-8 20 15-4 27 2 27 4 27 4 24 5 26 5 28 4 31 2 24 3 25 1 26-1 26-5 26-6 23-13 27-16 21-20 16-27 9-24-6-23-19-18-24-10-22-9-27-7-29-5-33 1-35 5-35 6-24 11-30 13-27 13-21 14-20 21-24 18-16 19-15"/>
<path d="M10185 3167l 23 8 25-2 24-5 23-10 22-11 23-14 18-19-2-26-20-16-26 0-24 10-22 13-22 19-18 19-13 22-6 25 3 28 12 25 18 17 23 12 23 8 32 4 26 0 25-2 28-4 28-4 26-5 24-6"/>
<path d="M9161 4171l 27-6 24-11 22-13 28-18 19-15 22-17 22-18 22-20 22-23 23-23 23-25 22-25 21-22 19-22 17-21 14-21 13-20 10-30 9-26 2-25 2-26-5-24-26 13-19 19-20 25-15 20-12 20-14 23-12 23-13 25-10 25-10 25-9 27-6 26-5 26-4 26-2 35 1 32 2 30 7 24 15 29 16 21 23 13 26 3 27-8 20-15 16-22 7-27-7-26-12-25-14-22-17-22-22-16-25-3-18 17 18 18"/>
<path d="M9627 4111l 21-14 22-13 22-12 17-18-18-19-26-4-24 7-20 20-14 23-10 24-5 24 5 24 12 22 23 16 30 3 27-3 24-7 25-10 27-13 27-15 24-15 22-17 22-22 25-67-7-23-21 13 22 13 25 4 24 6 15 19-17 21-18 16-14 21 6 23 25 5 26-4 27-8 25-11 24-15 27-17 22-15"/>
<path d="M10197 3858l-9-23-21 12-12 22-11 28-10 26-8 23-8 25-10 28-9 28-7 26-5 24 1 28 5 24 12 24 19 20 25 3 22-11 19-17"/>
<path d="M10054 4020l 27-9 25-10 28-8 28-9 24-6 23-7"/>
<path d="M10335 3964l 24-3 30-3 26-5 30-4 26-4"/>
<path d="M10597 4111l-25 5-5-25 4-26 11-24 8-23 15-21 22-15 27-10 28-5 25 2 23 5"/>
<path d="M10850 4031l-11-21-20-18-27-2-25 14-21 16-20 19-18 21-12 23 12 21 26 3 27-4 28-9 26-11 22-14 19-16 14 21 24 2 26-8 21-14 14-21 3 25-1 25 26-3 20-15 21-11 22 10 12 22 19 18 24 7 25-6 20-13 22-16 21-17 19-20 9-24-13-22-24 1-23 9-21 17-18 18-4 24 5 25 10 26 11 23 12 25 9 23 12 24 12 26 10 26 9 28 3 29-3 31-3 32-6 24-13 22-15 23-19 24-22 25-22 18-27 16-29 1-25-13-12-24-3-26 0-31 6-35 7-26 9-28 11-30 13-31 16-32 19-32 20-30 23-28 24-24"/>
<path d="M11375 4027l 26-5 19-14-11-22-23-10-25 7-19 16-15 19-10 26-6 26 0 29 4 26 15 22 28 10 28 0 25-2 31-8 25-6 28-9 28-7"/>
<path d="M9319 5030l 30-7 21-13 27-20 19-18 21-19 23-21 23-19 22-20 22-21 20-22 19-22 17-21 14-22 17-31 14-29 8-28 6-28 2-25 1-26-25-1-16 21-18 25-18 30-18 33-11 24-11 26-10 27-13 29-11 30-9 29-9 29-6 29-5 28-2 27 1 34 6 26 13 26 20 16 28 10 24-2 25-12 18-17 16-19 13-27 6-30-3-31-10-30-14-26-14-20-21-15"/>
<path d="M9673 4921l 26 0 26-1 24-5 23-9 23-16 10-23-19-16-25 0-26 12-22 16-19 18-16 23-13 25-2 28 11 22 19 18 23 7 24 1 28-5 29-9 24-10 28-17 22-19 19-17 14-23 2-27-16-20-10 24 12 22 17 18 19 19 18 20 16 20-6 25-24 7-26 3-28 3-25 3 22-10 26-8 24-7 27-9 25-10 29-12 30-15 32-16"/>
<path d="M10202 4718l-13 22-10 26-7 25-9 24-9 29-4 25-6 25-3 24-5 26-4 28-4 26-3 25 1 30 10 25 23 15 26 0 25-8 22-10 22-12 21-12"/>
<path d="M10073 4881l 27-14 27-10 26-8 26-8 32-8 29-5"/>
<path d="M2384 6726l-24-3-17 18-16 26-13 27-10 22-9 24-9 26-10 29-8 29-7 29-3 30-4 27-3 27-1 25 0 26 2 26 4 24 8 35 10 30 12 26 15 20 24 22 26 14 28 7 29-1 28-6 27-11 22-13 17-21 8-26-8-28-21-20-24-14-29-11-29-5-29 1-28 5-25 7-24 14-15 23-3 31"/>
<path d="M2827 7062l 23-15 28-12 23-9 27-9 25-7"/>
<path d="M2884 7110l 22-11 28-9 24-7 28-7 31-6"/>
<path d="M3328 6836l 9 23 2 29-1 28-2 29-3 30-5 32-4 33-5 32-5 31-5 32-6 28-4 26-3 27-1 26"/>
<path d="M3651 6820l-7 26-2 29-1 25-1 29-2 32-1 25-3 26-3 28-5 26-5 28-7 27-7 28-4 27"/>
<path d="M3989 6869l-20 20-14 24-10 22-10 29-5 32-1 24 3 25 5 23 9 24 12 29 15 26 17 20 19 16 22 10 25 5 25-3 28-11 22-13 22-16 19-21 16-23 12-22 9-25 1-31-2-25-6-26-9-27-14-25-17-24-17-18-21-14-28-13-24-7-25-1-22 10"/>
<path d="M4318 7132l 22 13 11 23-8 25-16 19-20 16-17 21-10 22 17 18 24 4 25 1 25 3"/>
<path d="M2096 8115l-25 5-15 24-15 26-15 32-12 26-13 28-12 30-13 33-12 32-11 34-9 32-8 32-7 30-4 31-4 28-2 29-1 27 1 26 1 25 5 34 7 31 8 27 11 23 18 25 19 19 22 19 25 8"/>
<path d="M2280 8240l-22 11-15 21-14 22-13 27-13 33-9 25-9 27-8 26-8 27-6 26-5 26-4 26-2 25-1 24 2 24 5 34 8 32 10 25 15 20 22 20 25 11 30 1 23-6 25-11 22-14 22-18 15-21 14-21 10-26-2-27-15-24-18-16-23-10-26-6-27-2-25 4-22 8-22 15-13 23"/>
<path d="M2620 8706l-6 24-8 24-9 24-12 27-9 23"/>
<path d="M2817 8347l 23 10 23 9 26 14 20 12 19 18 3 24-9 24-18 24-17 20-20 20-22 22-23 21-24 23-22 21-20 19-19 23-12 21 20 14 25-5 24-9 28-11 25-13 24-12 23-10 24-8 25-8 23-7 24-8 25-8 26-8 26-9"/>
<path d="M3008 8168l 27 5 28 10 26 15 20 14 21 17 21 19 23 22 23 24 22 25 18 28 18 28 17 28 12 29 8 31 4 31-1 31-4 32-9 33-12 32-16 31-17 29-17 24-17 21-19 20-22 10"/>
<path d="M3671 8397l 26-2 26-6 28-7 23-7 23-5 31-6 30-3 28-3"/>
<path d="M3714 8459l 28 1 30-6 27-6 23-6 25-6 25-8 26-8"/>
<path d="M3948 8246l 23 11 24 6 26 8 26 8 27 11 22 10 27 13 21 18 12 23-2 26-14 24-19 20-22 17-24 15-26 17-25 15-21 16"/>
<path d="M4843 8223l 27-2 28-3 27-6 24-6 26-9 26-9 25-9 26-10"/>
<path d="M4906 8221l-11 25-5 28-4 27-1 25-3 28 0 25-2 25 25-7 19-15 21-17 22-15 22-12 27-5 26 5 24 9 25 12 20 18 17 21 12 24 11 25 7 27 2 27-3 26-9 24-14 21-15 22-18 19-20 16-22 15-24 11-24 8-27 5-27 0-24-4-27-10-18-19-5-25"/>
<path d="M5596 8368l-26 8-15 20-14 26-9 25-5 25-1 25 2 29 7 25 15 21 21 19 25 16 23 10 25 7 27 5 30 2 28-1 27-5 26-11 24-17 19-25 14-24 11-26 4-24-5-25-7-25-11-26-15-24-19-19-20-18-21-13-25-8-25-4-24 2-27 6-22 10-19 19"/>
<path d="M5610 8440l 17 20 19 18 18 16 18 17 20 16 20 18 21 19 20 17 19 15"/>
<path d="M5783 8350l-19 16-17 20-16 23-15 24-18 26-15 21-15 21-15 21-15 21-13 21-14 25-9 25"/>
<path d="M6152 8242l 23-9 23-6 24-2 26 0 27 3 23 7 25 11 11 22-19 17-23 15-25 12-23 13-22 12-24 14-17 17-7 24 28 4 24-2 28-2 24-2 29 0 29 4 27 10 28 13 23 13 21 17 17 20 11 26-1 27-10 25-15 22-19 23-21 22-20 18-20 14-22 11-24 7-25 2-25-2-28-5-24-7-21-14-14-21"/>
<path d="M1952 9792l 21-14 25-9 25-10 25-11 23-11 22-12 24-13 25-12 22-12 23-8 24-4 12 24-4 25-8 25-8 24-12 28-12 31-13 32-10 24-8 25-7 25-9 26-7 26-6 26-8 27-6 28-6 29-6 28-5 28-5 27-5 26-4 25-4 25-3 24-4 34-5 29-4 26-4 29-3 25-3 28"/>
<path d="M2427 10049l 21-13 25-6 28-5 27-5"/>
<path d="M2452 10138l 25 1 26-2 25-3 27-4 24-3"/>
<path d="M3176 9804l-25 14-19 22-14 22-14 27-14 30-11 32-11 35-6 34-5 35-1 32 2 31 4 29 6 27 8 23 13 27 16 20 19 15 26 12 30 1 24-4 24-9 24-13 19-17 16-22 7-27-8-26-18-19-24-13-28-7-25 3-26 9-26 11-21 13-22 17-15 22"/>
<path d="M3792 9921l-15-20-25-9-24 9-21 15-18 16-18 24-15 21-12 24-10 28-6 25-3 26 1 30 8 29 13 23 19 20 21 15 25 9 28 3 28-1 29-4 24-6 23-10 24-12 24-16 21-19 16-21 15-21 11-22 10-28 4-28-3-30-6-31-12-27-20-23-23-18-25-13-27-8-26-5-24-4-28 3-26 9-18 18"/>
<path d="M3705 9918l 22 18 13 24 13 21 16 20 14 22 16 19 17 18 20 21 18 21 17 20 14 19"/>
<path d="M3908 9873l-17 18-16 24-12 21-12 22-16 26-14 21-18 26-15 24-16 25-15 23-13 22-14 25-11 24-9 22"/>
<path d="M4325 9703l-3 30-2 32 0 30 0 33 0 35 0 33 0 34 1 34-1 34-1 34-2 36 0 35-3 35-2 35-4 34-3 32-2 28-3 30-2 26-1 31-2 25-1 26 1 24"/>
<path d="M1822 11071l-13 21-8 26-9 26-8 30-7 30-7 24-8 27-8 27-8 28-7 27-8 26-7 25-7 24-8 29-3 26"/>
<path d="M1918 11156l-14 23-9 25-7 25-6 25-4 26-3 27-1 26 3 27 5 25 13 29 15 24 20 17 30 8 25-1 26-5 27-15 19-16 16-19 15-20 16-27 11-29 7-30-3-31-6-25-11-25-14-22-16-18-26-19-28-10-29-3-30 4-27 9"/>
<path d="M2192 11138l 27-2 28 0 25-4"/>
<path d="M2198 11219l 27 5 27 0 28-2"/>
<path d="M2875 11031l-8 27-8 31-6 28-8 31-10 31-12 32-14 35-9 24-9 23-9 23-12 31-11 27-12 28-8 25"/>
<path d="M3048 11142l-18 17-19 19-18 24-15 23-10 25-3 31 4 28 12 24 21 19 27 13 32 3 24-3 24-6 23-9 22-12 21-14 21-18 16-19 15-21 12-21 11-27 5-25-5-25-10-28-16-26-22-17-29-10-31-3-30 3-27 8-23 13-19 16"/>
<path d="M3551 11036l-23 12-7 26-3 25-3 26-3 25-4 31-6 28-8 25-10 28-9 25-9 24-10 23-5 26"/>
<path d="M3742 11100l-24 17-16 25-10 22-4 30 2 26 7 27 12 29 16 25 18 16 19 15 27 10 27 3 27-6 25-11 22-15 16-18 19-22 15-25 9-23 2-29-7-23-16-20-22-13-27-7-27-3-30 3-27 6-23 6"/>
<path d="M4067 11386l 24-2 24 7 20 15 2 25-22 14-21 16-13 21 23 12 27-3 26 2 24 1"/>
<path d="M2118 12625l 18-16 27-4 28-2"/>
<path d="M2078 12701l 23-5 24-8 28-8 25-6"/>
<path d="M2797 12352l 2-26 2-26 0-27-6-25-17-17-26-2-25 4-28 14-21 16-22 18-21 20-18 21-15 19-13 22-11 27-6 26 1 27 10 23 20 13 28 0 24-8 25-18 22-18 18-19 19-22 20-22 16-19 14-21-17 19-11 24-9 23-11 27-12 29-12 31-10 34-9 31-8 30-4 27-3 29-2 30-2 27 0 27-1 30 0 25-1 25 0 25 5-25"/>
<path d="M3095 12389l-26-7-25 10-25 13-25 14-18 17-18 19-19 20-17 26-14 29-11 30-5 26-2 26-2 25 3 31 8 29 13 24 20 19 23 17 26 10 28 6 31 4 32 1 31-3 25-4 28-5 25-7 23-9 21-15 20-13 20-14 19-17 18-16 19-24 11-24 8-25 3-24 0-27-7-29-12-28-13-20-18-26-19-19-22-18-24-17-24-7-25-1-25 5-25 6-28 10-22 18"/>
<path d="M3035 12474l 16 21 14 21 15 22 20 22 20 22 20 22 18 19 16 20 17 17 19 18"/>
<path d="M3252 12402l-22 14-17 19-16 24-15 21-18 23-18 25-15 19-15 21-14 20-14 20-13 21-15 24-13 22-10 22-8 25"/>
<path d="M3599 12408l 18-17 27-6 29-4 31 0 25 2 25 2 28 3 26 4 20 14-12 24-19 15-19 15-21 15-22 14-24 14-23 13-22 12-29 13-24 13-22 13 26 4 27-8 29-6 27-4 27 5 25 6 23 6 26 7 24 11 23 12 20 14 21 17 9 24-1 26-9 23-13 24-17 19-23 18-27 13-25 8-26 6-25 2-25 2-27 0-24-5-23-9-17-17"/>
<path d="M8575 6560l 11 24 3 27 2 31 0 27-1 30-2 32-2 33-3 32-3 32-3 31-2 30-1 29-1 27 0 29 0 28 1 31"/>
<path d="M8827 6601l 11 26 0 29-2 25-2 28-2 28 0 28 0 25 0 25 1 32 0 31-1 24-2 30 0 26 1 27-1 24"/>
<path d="M9083 6751l 24 0 29 1 30-3 31-3 25-2 24-2"/>
<path d="M9149 6838l 27 0 31-1 30-2 26-1 24 0"/>
<path d="M9538 6630l 9 26-2 26-4 30-3 24-4 32-4 32-4 31-5 29-5 31-3 27 0 26-2 24"/>
<path d="M9852 6697l-22 13-21 21-15 23-14 26-7 27-1 26 1 26 4 27 6 25 12 24 21 17 26 12 24 6 28 1 24-1 24-3 30-6 28-10 27-13 20-16 18-20 11-22 5-23 5-30-4-27-9-27-10-24-16-19-19-16-24-15-26-10-25-2-25 4-28 11-22 15"/>
<path d="M10375 6664l 5 23 1 26-2 31-2 25-2 25-2 31-2 28-2 28-2 25-1 26-2 27"/>
<path d="M10586 6642l 9 27 1 24 1 29 0 31 0 30-1 29 1 31 1 28-2 31 1 27 3 24-1 28 1 25 1 25"/>
<path d="M10826 7006l 26-5 26 3 23 11-14 24-25 13-23 12-23 12-18 16 17 18 26-2 25 0 27 3"/>
<path d="M8509 7504l 25 4 27-2 26-4 26-4 25-3 24-2 26-3 25-1 20 14-5 24-8 26-7 24-9 28-11 30-11 31-12 32-8 23-8 23-10 33-10 34-10 32-10 33-7 29-9 25-12 28-8 28-8 24"/>
<path d="M8999 7711l 25-7 27-6 25-5 27-5"/>
<path d="M9046 7753l 27-4 25 1"/>
<path d="M9434 7645l-27 5-24 19-19 21-18 27-13 29-11 29-8 28-2 27 3 25 5 24 8 24 17 20 23 13 25 4 29-1 28-5 29-10 23-9 27-16 21-18 19-21 13-21 8-27-1-30-6-26-10-25-14-22-15-20-20-21-23-16-22-12"/>
<path d="M9839 7604l 11 25 3 28 1 28-3 30 0 30-1 29-2 24-2 28-1 25-1 26"/>
<path d="M10211 7593l-12 21-8 23-6 26-7 28-5 28 0 29 1 28 2 26 2 25 3 27 4 25"/>
<path d="M10435 7561l-1 25 2 24 2 27 2 28 1 29 2 28 3 28 0 25-2 28 1 28"/>
<path d="M10674 7797l 25 5 25 9 22 13 2 24-18 16-23 13-22 15-21 14 15 20 25 2 25 2"/>
<path d="M8474 5867l 2 27 3 30 0 31 0 25 3 24 0 24 0 32-2 24-1 31 0 28-3 28"/>
<path d="M8665 5815l 26-8 24-2 24 1 26 1 30 7 24 13 19 21 3 28-6 31-14 28-16 23-19 23-22 23-24 22-24 22-25 20-23 18-19 17-21 19-18 17-10 23 25 7 29-3 28-6 24-7 25-9 29-6 29-7 31-6 29-6 30-4 28-5"/>
<path d="M9095 5951l 23-9 26-4"/>
<path d="M9084 6033l 24-1 24-1"/>
<path d="M9571 5797l-2 27-1 26 1 27-3 31-1 25-4 25-1 25-3 32-4 30-7 28-8 25-6 23"/>
<path d="M9943 5862l-11 24-3 27-5 28-5 32-4 24-6 25-6 25-6 25-6 26-4 25-1 26-1 30 0 28 5 24 7 24 17 18 25 0"/>
<path d="M10318 5909l-25 7-18 23-12 22-12 23-13 26-8 25-3 25 1 30 6 25 14 23 21 16 23 9 28-2 28-7 28-11 25-14 22-17 21-20 16-22 8-23 1-25-4-27-10-27-14-25-18-23-22-18-25-13-25-10-28-1-22 8-19 16"/>
<path d="M10764 5915l-24-6-24 11-22 18-16 19-15 20-13 23-5 23-7 27 0 27 12 24 19 15 25 7 24 1 28 0 29-5 25-7 28-14 23-16 15-19 9-28-3-28-7-25-11-22-17-18-25-17-26-10-26-2"/>
<path d="M10922 6071l 24 2 23 9 22 12-4 25-23 12-22 11-19 15 14 22 28 0 27-3 25-4"/>
<path d="M13822 5827l 6 27-1 25-5 31-5 34-6 35-4 34-5 33-3 32-4 29-6 29-4 27-4 26-5 28"/>
<path d="M13979 5797l 27-3 28 1 24 4 27 3 29 4 23 12-3 24-20 18-21 17-23 16-24 15-21 14-19 15 21 13 26-4 25 1 24 5 26 6 27 9 24 9 26 12 18 19 2 28-13 26-22 22-21 18-23 19-27 17-26 16-25 14-22 12-26 9-25 5"/>
<path d="M14369 5904l 28-8 24-6 27-7 25-6 26-4"/>
<path d="M14391 5978l 23-6 26-7 29-6 24-6 28-6 31-5 33-5"/>
<path d="M14818 5759l-1 26-1 26-3 30-4 26-7 27-9 29-5 23-8 31-10 29-6 26-3 25"/>
<path d="M15012 5762l-8 25-1 30-4 25-6 25-3 28-2 28-6 28-6 28-5 26-3 24-3 25"/>
<path d="M15464 5843l-25 5-20 12-17 19-14 22-13 25-6 26-3 29 6 25 17 23 25 14 27 8 27 3 29 0 28-3 28-8 26-9 24-14 15-21-2-29-7-23-14-24-17-23-21-21-28-15-26-11-24-6-29-2-23 6"/>
<path d="M15880 5815l 1 24 1 24-3 27-1 24 1 26-1 27 1 25 3 25-3 30-1 29 0 27"/>
<path d="M16068 6059l 25 0 24 9 19 16-14 21-21 15-24 12-21 16-18 17 18 20 24 3 26-2 26-2 26-4"/>
<path d="M14250 6802l 18-17 22-12 24-10 25-6"/>
<path d="M14226 6876l 25-2 26-5 25-7 29-2 24-3"/>
<path d="M14761 6690l-7 24-4 26 0 27-2 24-4 27-4 29-2 25 0 25 0 28-4 26-7 25-4 25"/>
<path d="M14893 6742l-1 24-3 25 2 27 0 25 4 26 10 26 15 20 22 13 24 3 28-5 24-5 24-12 23-17 18-16 19-22 13-23 4-25 0-26-5-24-13-22-13-20-22-14-23-6-26 2-23 10-18 16"/>
<path d="M15310 6704l 11 23 6 29 5 28 1 28 1 27 0 26-1 25-1 25-7 24-4 26"/>
<path d="M15659 6686l-10 26-3 25-2 27-1 28-1 26 2 29-1 28-4 24-2 24-1 24 5 25"/>
<path d="M15850 6907l 25-6 25 9 23 12 13 21-6 25-19 17-22 14-20 14 16 19 26 3 27 4 23 6"/>
<path d="M13644 6695l 18 17 2 27-2 26-3 29-1 30 1 30-2 31-2 24-3 25-2 25-3 25-5 31-2 27-2 24 2 26"/>
<path d="M13903 6686l-1 24-1 28 3 24 4 27 3 27 2 29 1 30 0 24-3 24-3 30 0 29-3 27-1 25"/>
<path d="M14968 7547l-2 25-2 27-1 29-2 24-2 26-2 24 0 30-5 26-2 25 4 25"/>
<path d="M15229 7570l 5 26 2 25 4 24 1 26-4 25 0 26-3 28-2 25-1 24"/>
<path d="M15536 7620l-15 19-12 22-7 27-5 28 0 28 8 25 11 24 17 20 23 11 27 0 24-6 27-12 21-15 20-19 18-20 13-21 3-28-5-25-7-23-13-21-18-18-20-13-27-13-26-7-27-2-20 14"/>
<path d="M15811 7760l 25 5 23 11 14 20-16 20-19 17-16 19-10 22 23 9 26-1 27-4 27-5"/>
<path d="M14706 7544l-26 4-22 11-18 16-20 19-16 24-13 25-10 23-5 24 0 29 1 28 9 24 18 21 21 15 26 4 28-2 27-6 23-11 24-19 18-18 16-22 12-22 7-24 4-26-3-26-8-28-10-27-13-22-18-18-26-10-25-1-24 9-23 16"/>
<path d="M14135 7617l 22-15 26-8 28-4 27-1"/>
<path d="M14114 7716l 20-14 25-9 25-7 25-6 27-7 27-5"/>
<path d="M13740 7438l-17 23-14 25-11 25-9 28-7 26-6 28-6 31-6 32-4 32-2 31 2 28 4 27 9 30 9 25 10 26 17 21 20 15 25 4 31-3 24-8 25-15 22-19 16-21 6-24-2-28-8-25-11-25-22-14-26 1-23 11-20 16-18 20-13 22-12 24"/>
<path d="M7861 9377l 23-15 23-9 24-11 24-12 25-12 24-11 27-12 25-12 22-10 26-9 23-8 25-9"/>
<path d="M7892 9395l-16 18 1 26-1 24-3 25-1 25 3 26 2 24 4 27 12 21 23-8 21-15 22-19 22-17 22-16 22-14 22-10 25-6 27 0 25 8 23 8 24 9 23 15 17 17 11 23-3 27-10 25-9 23-15 23-19 22-21 19-23 18-26 14-27 11-26 7-25 2-27 0-25-8-22-10-16-18"/>
<path d="M8406 9762l-4 27-5 28-5 26-10 27"/>
<path d="M8660 9430l 11-23 22-13 25-2 28 4 24 5 24 9 20 16 6 24-16 19-21 16-20 15-23 15 18 17 26 3 26 9 23 12 22 14 19 19 7 26-6 23-14 20-21 19-21 14-25 15-23 13-30 8-25 4-26 0-24-8-22-13-20-17"/>
<path d="M7833 9218l-26 1-19 15-18 18-18 21-19 27-14 25-16 29-11 22-10 22-10 25-9 27-9 28-8 30-8 32-6 32-3 32-2 32 0 31 2 30 3 28 6 28 8 27 9 25 11 23 12 21 18 27 24 24 27 20 24 14 23 10 23 9 26 6 24 7 25 6 27 4"/>
<path d="M8969 9196l 21 17 12 22 15 25 12 22 14 24 15 26 15 25 14 25 15 28 11 28 12 30 14 30 10 32 8 30 5 32 6 30 4 30 2 29-2 31-8 29-9 27-13 26-13 27-16 23-16 21-21 23-21 18"/>
<path d="M7787 10579l 17-20 23-9 27-9 25-7 25-7 28-3 27-3 26-1 27 0"/>
<path d="M7866 10584l-25 8-23 18-16 20-16 25-12 22-9 26-7 26-5 28 3 27 14 21 25 4 26-11 25-14 23-14 22-13 27-12 24-4 25 1 25 6 24 9 21 17 16 21 6 28-3 25-12 27-18 25-24 23-19 15-22 15-21 15-20 13-22 10-27 13-25 9-28 5-22-11"/>
<path d="M8183 10987l-17 19-9 26-12 24"/>
<path d="M8512 10675l-16 21-8 24-6 24-6 26-6 25-7 25-2 24 10 25 24 7 28-3 27-10 23-8 28-9 26-8 28-8 24-7"/>
<path d="M8657 10740l-12 21-5 28 0 27 2 25 5 25 8 29 4 25 6 25"/>
<path d="M7771 10460l-29-1-25 8-23 11-27 15-21 15-23 16-22 21-21 24-20 27-20 31-14 22-12 25-10 28-9 28-9 32-6 32-5 33-4 30-1 29 0 29 2 27 3 28 6 24 9 23 11 23 12 24 13 21 20 29 20 27 24 23 28 20"/>
<path d="M8745 10526l 14 25 15 20 15 19 17 22 19 22 19 27 15 21 13 22 12 22 12 24 10 26 9 26 6 26 4 25 3 24-1 27-4 26-7 28-10 29-13 28-14 28-14 25-16 25-13 22-15 24"/>
<path d="M9395 10800l 21-14 26-9 27-7 25-5"/>
<path d="M9407 10876l 24-3 28-5 25-3"/>
<path d="M9926 10566l 23-9 27-7 26-4 24-3 28-4"/>
<path d="M9964 10579l-21 14-18 17-13 25-9 24-7 27-5 24 1 26 6 23 21 15 27-1 28-9 24-9 24-12 24-9 23-7 28-3 28 0 25 6 21 15 16 20 8 27-5 26-7 28-11 25-16 22-19 23-20 21-22 19-26 16-23 13-27 11-25 3-25-6-17-17-5-24"/>
<path d="M10607 10638l-22 14-20 23-17 24-13 23-10 26-10 27-6 30-3 26-3 25 3 31 8 28 11 24 19 23 22 14 28 11 30 8 31 1 27-2 26-4 26-9 23-11 23-15 22-17 18-19 16-19 16-27 11-29 5-24 0-25-4-24-9-25-11-23-14-24-16-23-17-22-20-19-22-16-22-13-24-8-31-5-31 2-28 10-22 17"/>
<path d="M10571 10685l 14 22 17 23 17 21 16 22 19 21 24 20 25 16 24 17 18 18 21 14 22 14"/>
<path d="M10769 10660l-23 14-20 16-19 16-18 18-19 21-19 23-18 22-17 25-15 25-17 25-16 24-15 25"/>
<path d="M15293 8899l 23 6 7 27 1 25-1 25 0 28-3 31-5 25-4 25-5 25-6 31-5 31-4 26-5 28-4 25"/>
<path d="M15827 8933l-24 10-21 17-19 21-16 23-10 26-2 25 5 29 9 27 15 22 24 15 25 9 29 2 27-3 27-9 26-12 22-16 21-16 16-19 1-24-9-25-16-18-24-17-25-13-29-9-30-6-27-4-28-2"/>
<path d="M16326 8908l 8 24 0 28 3 24 5 25 4 25 3 25 4 26 3 25 0 29-2 28"/>
<path d="M16635 9179l 27 3 24 8 10 22-19 18-19 16-3 24 24 7 26 3 23 7"/>
<path d="M15801 9960l 11 23-1 28 1 25-2 29 2 28-1 25-2 25 0 25 3 25-2 25"/>
<path d="M16271 9920l 7 23 8 25 1 25-2 28-1 26 1 28 1 26-3 28 3 25-3 28 1 25 1 24"/>
<path d="M6362 12518l-8-23 16-22 25-16 26-12 25-11 27-8 24-2 23 9 6 26-13 22-18 20-17 16-19 17-20 17-17 20-23 19-18 17 16 19 24-9 26-4 24 2 28 6 24 5 23 14 13 22-11 27-18 24-19 19-19 18-20 18-21 14-28 19-25 11-25 4-28 0-21-12-8-25 5-32"/>
<path d="M6685 12459l-17 22-13 22-12 27-5 31-1 25 0 25 6 28 12 24 16 18 28 14 28 4 27-5 27-12 25-16 18-16 19-16 18-27 9-24 4-28-6-26-16-26-19-18-23-19-22-16-25-13-25-8-29-3-26 2-25 4-2 27"/>
<path d="M7060 12543l"/>
<path d="M7196 12423l 13-20 23-7 27 0 27 3 29 3 25 8 22 16 8 23-8 26-18 22-19 20-24 23-27 23-18 16-20 18-19 15-19 16-20 16-26 21-23 24-16 19-13 24 0 26 22 10 29 1 25-7 29-7 25-8 26-8 26-10 31-8 31-9 32-13"/>
<path d="M7660 12474l-9-26-10-24-10-23-11-22-17-22-23-11-25 4-23 15-20 17-17 23-5 27 6 26 13 21 22 18 28 19 22 14 26 11 25 14 23 17 22 14 19 16 24 17 18 16 18 25 10 22-6 25-16 21-22 16-27 13-30 6-30 1-27-5-24-12-22-16-15-27-9-29-3-30 2-26 3-27 8-24 11-30 15-25 21-21 25-18 20-13 25-10"/>
<path d="M7813 12474l 22-15 26-3 26-1 24 1 25 7"/>
<path d="M7795 12553l 20-19 29-6 27-4 29-3 31-4"/>
<path d="M8450 12409l-2-27-7-25-13-23-19-20-25-6-28 5-26 14-22 21-15 22-3 27 10 22 17 22 19 20 22 18 25 16 22 15 20 16 20 14 18 17 17 22 13 22 2 26-10 23-18 24-18 17-21 13-23 16-21 12-23 9-30 4-27-4-21-18-9-31 1-32 5-26 10-28 12-30 15-28 14-26 15-23 16-20 21-23 21-17"/>
<path d="M8680 12341l-7 27-9 24-11 26-9 29-9 24-6 25-1 25 9 23 23 15 25 7 27-2 26 2 30-2 29-4 30-5 26-4"/>
<path d="M8754 12410l-21 17-6 24-3 24 1 25-1 30 0 29 0 29 1 30 3 28"/>
<path d="M9046 12436l-18 20-10 23-5 30 4 25 11 24 16 25 17 17 25 19 24 9 28 6 28-1 24-7 21-15 18-18 17-24 10-26 7-27 3-30-6-32-10-31-10-26-16-21-23-10-31-6-26 1-24 5"/>
<path d="M10697 12327l 23 10 26 11 25 9 24 9 23 12 12 22-16 22-22 19-19 17-21 17-22 17-23 16-24 19-17 18-14 21-8 25 1 25 17 19 30 6 28 3 33-5 33-8 33-10"/>
<path d="M11041 12311l 21-16 28-4 26 0 25 3 23 12 1 24-15 19-17 19-11 21 18 17 22 11 23 10 22 14 20 17 17 18 11 23-2 25-14 23-20 17-23 15-26 15-26 10-26 8-27 4-28-1-22-15"/>
<path d="M11357 12411l 23-9 26-5 26-3 27-3 25-3"/>
<path d="M11443 12322l-20 19-11 22-2 26 3 27 8 29 11 25 13 22"/>
<path d="M11925 12317l-6-26-17-21-23-15-29-4-28 7-24 8-24 13-25 14-22 16-19 17-20 21-8 25 19 21 24 3 31-4 25-6 24-7 28-12 25-14 24-12 23-12-9 29-10 24-10 27-7 31-6 24-9 30-3 29 1 29 2 26 6 28 6 25"/>
<path d="M12220 12380l 23-5 26-7 28-4 25-1 25 2"/>
<path d="M12227 12429l 26-7 24-2 24-4 31-2"/>
<path d="M12664 12277l 23-16 29-1 26 3 27 3 25 6 25 7-7 23-21 14-23 13-24 12-25 9-16 18 25 4 27 6 26 7 24 9 27 10 28 12 26 15 21 12 22 17 9 23-9 23-21 19-27 15-25 15-26 10-32 9-29 7-29 4-28-1-28-6-24-7-16-18 1-26"/>
<path d="M13136 12223l 5 24 2 26-1 30 3 27 4 28 3 30 1 30-1 30 1 28 2 26-2 29 0 25 3 26"/>
<path d="M12972 12304l 19-17 23-9 27-7 24-3 27 2 22 11 13 24 12 24 9 23 3 26 1 27-2 26-7 24-12 22-15 19-17 21-19 17-21 16-22 19-22 14-20 16-21 12 16-19 22-14 25-11 24-9 25-5 27-1 27 5 27 7 25 9 24 10 21 15 21 14"/>
<path d="M3287 13890l 24-11 30-5 24-3 24-1 29 3 26 4 23 10 6 23-11 22-20 23-22 19-23 17-23 15-23 14-22 14 24 8 26 0 25 3 26 3 25 6 25 7 25 10 24 12 22 19 10 23-4 26-12 22-18 21-24 19-26 19-21 12-30 12-25 5-25 2-25-3-25-8"/>
<path d="M2792 14001l 10-23 28-5 27 0 27 1 27 4 26 3 26 5 26 8 20 18 6 24-3 26-8 23-14 24-17 26-20 27-25 25-17 18-18 17-28 22-28 19-25 17-22 12-23 14-21 14 14 20 29 3 28 1 29 0 26-1 27-1 29-2 27-2 28 0 24 2"/>
<path d="M3605 14074l 28-3 28 1 25 0 27 3"/>
<path d="M3634 14149l 24 5 29 4"/>
<path d="M4383 13806l 1 30 1 31-2 27-2 29-2 28-1 28-2 28-1 25 0 25-1 30-1 29-1 25-1 26-2 25-1 26-2 28 0 26-3 24"/>
<path d="M4804 13891l-24-7-23 15-16 19-13 21-16 25-13 28-11 30-6 24-5 31-1 30 4 27 8 25 15 23 18 18 24 15 29 12 24 6 30 3 24 0 30-3 24-6 24-9 24-11 23-12 20-15 20-14 23-22 18-22 10-23 3-27 0-31-6-25-12-24-13-25-16-21-21-19-20-15-24-19-22-10-28-9-29-5-28-1-25 3-24 6"/>
<path d="M5349 13831l-8 23-2 25-1 25 0 24-3 28-2 24 1 27 1 28 1 26 2 28 0 28 0 25 5 24 4 25 1 26"/>
<path d="M5705 13852l-5 24-3 28 0 26 0 25 1 27 3 27 5 24 4 24 6 28 5 26 6 24 5 25"/>
<path d="M6139 13833l-8 26-3 25-2 25 2 28-3 25-1 25 1 26 1 28 0 25 3 27 4 26 2 27 2 26 2 26 4 27 2 25 5 23"/>
<path d="M6358 14264l 24-3 23 9 20 14 6 25-19 17-21 14-23 16-18 16-3 24 25 5 25 0 25-1 25 2"/>
<path d="M3283 15071l-2-29-3-24-6-29-6-23-14-21-19-16-27-4-24 5-24 14-23 18-19 23-14 24-11 24-3 29 9 24 21 16 26 2 24-5 28-10 22-13 23-18 19-19 9-23-12 23-3 27-1 32 0 24-1 25 0 29-1 29 0 30 0 27 1 26 1 25 3 30 4 27 6 28 11 25"/>
<path d="M3601 15144l 26-8 26-3 24-1 28-1"/>
<path d="M3614 15222l 25 1 29-3 26-2 25 1"/>
<path d="M4854 14898l 1 24 0 26 0 28 0 24-2 27 2 24 3 27 0 25 1 27 1 26 2 26 1 25 2 27 4 25 5 26"/>
<path d="M5279 14985l-22-10-22 15-16 18-14 23-12 25-6 27-3 27 6 26 11 22 15 19 21 19 25 15 27 5 26 1 26-9 22-13 21-21 16-25 8-26-1-28-5-25-11-29-10-23-12-21-17-25-18-18-24-14-24-3-24 12-10 23"/>
<path d="M5679 14953l-25-7-24 9-18 19-9 24-8 27-6 29 0 31 4 26 10 25 14 23 17 17 25 10 25 0 28-7 24-11 24-14 25-17 18-18 15-21 6-28-9-25-17-23-24-18-22-15-21-16-25-12-25-10-25-8"/>
<path d="M6092 14854l 5 24 3 25 3 26 1 30 2 28 4 29 6 32 6 28 5 28 6 25 6 24 2 24"/>
<path d="M6321 15155l 24 5 24 9 19 16 10 23-13 21-21 15-22 15-21 13 17 20 25 4 25-1 24-4 26-4 26-2"/>
<path d="M2200 15925l 27-2 26 0 30 0 29-2 26 0 29 0 33 0 36 0 35 1 25 1 26 1 26 1 28 0 29 2 30 1 31 2 30 0 32 1 32-1 34 0 36 0 37 0 37 2 39 1 38 0 38 3 39 1 41 2 42 0 44 0 44 0 43 1 25 2 47 0 25 1 24 1 25 1 26 0 25 0 25 0 26 1 26 1 26 0 26 0 27 0 27 0 26 0 27 0 27 0 28-1 28 0 28-1 28 0 29 1 29 0 29-1 29 0 29-2 29-1 29-1 27-2 29-3 29 0 29-2 29-1 31-1 29-2 29-1 32-1 30-1 30-1 31-1 30-2 30 0 29-1 31-1 30-1 32 0 30-1 30-1 30-1 31-1 32 0 30-1 30-1 30 0 31-1 30-1 30-1 29-1 30 0 28 0 30-1 29-1 29 0 30 0 29 0 28 1 28 0 28 0 28 0 28 0 28 0 27 2 28-1 28 0 27 0 28 0 26 0 27 0 29-5 27-1 27 1 26 0 25 0 26 0 26 0 25 0 48 4 25 1 26 0 25 0 24 0 26 0 25-2 24 0 25 0 25 0 24 0 24 0 46-1 46-1 44-1 45-1 44-1 42-1 41 0 38-1 37 1 34-1 33-1 32-2 32 0 30 0 29 0 25 0 34-1 31-2 26-2 28-4 25-4"/>
<path d="M4233 16371l-10 25-1 27-1 26 2 27 2 28 2 28 1 28 0 26 0 27-2 25-3 31-3 28-4 27-2 27 2 26"/>
<path d="M4626 16354l 5 27 1 28 1 29 1 27 3 25 3 28 2 27 2 26 2 25-1 26-3 28 1 25 2 25"/>
<path d="M5199 16331l-9 25-2 28 2 24 2 28 2 25 2 29 1 29 0 26 2 28-1 25 6 25"/>
<path d="M5526 16306l 4 27 5 28 2 28 1 29 1 31 1 27 0 24 0 28 0 29-3 28 0 29-3 24-3 25 0 27"/>
<path d="M6006 16320l-25-2-20 20-17 26-14 29-8 24-8 26-6 25-5 25-2 28 0 27 4 24 6 24 14 28 19 17 23 15 25 7 24 1 29-5 26-13 21-15 22-20 18-21 16-23 12-26 4-24 3-24 0-27-3-29-8-28-10-24-13-23-21-23-21-19-23-11-26-9-25-4-26 5-13 22"/>
<path d="M6302 16533l 23 7 25 4 27 8 24 5 24 7-12 24-22 12-22 16-22 13-17 18-18 19 20 18 25-2 28-4 27-1 27 0 24 0"/>
<path d="M3568 16501l 26-2 26-4 24 1"/>
<path d="M3522 16631l 22 11 26 0 24 3 27-6 25-5"/>
<path d="M2544 16331l 2-24 23-15 24-9 25-6 27-2 27 5 17 19-4 24-13 25-20 22-20 22-23 22-17 17-18 17-22 19-20 19 18 20 27-1 26 6 26 3 26 3 25 5 26 10 11 23-7 27-15 25-19 26-17 21-18 21-20 18-20 17-23 16-22 12-21 12-27 11-25 4-12-24"/>
<path d="M2878 16372l-19 17-14 22-10 25-2 24 1 24 5 24 10 25 12 23 15 20 19 19 22 14 25 9 28 2 28-6 22-11 22-18 19-18 18-18 13-22 8-23-2-31-9-24-13-25-16-19-19-23-20-17-20-15-25-12-27-7-27 2-25 10-25 10-24 16-12 21"/>
<path d="M15163 12404l 18-20 21-12 22-10 25-10 25-7 26-4 27 1 25 7 17 17-11 22-19 18-22 16-26 16-24 15-22 15 20 19 31-4 30-4 28-2 26 0 27 3 21 12-12 25-18 16-20 14-23 15-25 14-25 14-25 11-22 10-25 8-24 3"/>
<path d="M15609 12219l-14 22-11 22-7 24-10 23-12 25-15 26-13 26-7 24-5 27 13 23 26 8 30-2 27-4 29-8 28-7 25-7 29-8 27-8 24-9 24-11"/>
<path d="M15714 12337l-8 23-8 25-5 27-5 30-3 28 5 29 4 25"/>
<path d="M15755 12057l-23-8-35-6-28-3-28-1-32-1-34 2-34 2-40 4-41 6-41 8-45 11-45 13-23 9-24 8-24 9-24 10-26 10-24 12-24 12-23 13-24 13-23 16-23 16-22 16-21 18-21 18-21 19-19 20-18 21-18 22-16 21-14 22-12 22-11 23-8 23-13 45-5 44 0 43 6 40 12 37 16 35 20 32 24 29 28 27 31 25 32 22 35 18 34 14 37 13 37 10 40 8 44 8 41 4 42 3 45 1 44-1 25-2 25-3 25-3 25-4 25-4 24-4 26-4 25-5 25-5 23-6 25-6 24-7 25-6 23-7 46-16 22-9 24-10 44-19 22-10 24-11 21-12 39-24 34-26 28-27 22-29 20-32 17-34 11-34 8-36 4-36 0-35-3-36-6-35-10-33-14-32-19-32-19-28-23-27-25-24-25-22-30-21-29-18-27-19-27-16-28-16-27-14-28-12-29-10-27-7-28-6-28-4-29-3-29-1-29 1-29 3"/>
<path d="M8495 13885l 18-20 25-13 28-9 27-6 28-5 25-2 29 2 26 7 20 14 5 27-17 26-16 19-22 21-26 19-24 18-23 16-21 15-27 16-22 15-22 10 24-7 24-7 24-2 28-3 25 0 29 2 30 3 26 6 25 14 16 20 9 26-4 26-12 26-15 22-16 24-19 22-20 22-22 18-22 16-21 14-27 13-28 10-27 5-25 0-26-7-21-14-14-21-7-27"/>
<path d="M9115 14253l 27-12 23-19 23-21 25-25 17-18 16-21 19-21 19-23 17-23 18-21 16-23 13-22 14-32 9-30 6-30 2-28 1-27-1-31-5-25-11-22-25 14-17 27-14 29-9 24-10 26-9 30-8 31-8 34-7 34-6 34-5 36-5 35-3 37-2 37 0 38 1 35 2 34 3 29 4 27 5 26 10 33 10 28 12 22 16 21 20 15 14-22 0-26-3-32-6-27-7-27-9-26-9-24-13-29-12-26-13-22-15-19 12-23"/>
<path d="M9404 14180l-26-2-11 23-5 24 10 23 24 11 26-6 19-15 6-25-5-25-16-18"/>
<path d="M9512 14164l 11 22 11 23 1 24-15-21 0-27 9-23 15-23 15-20 17-20 22-15 25-9"/>
<path d="M12094 13710l 2 26 1 26 0 25 2 27 6 29 1 28 2 26 3 25 3 30 7 25 6 25 3 25"/>
<path d="M12191 14270l-8 24-3 25-3 26-2 24 1 27-2 25 2 27 1 25 0 26 2 28-2 24-1 24 1 25 0 25-2 26 0 24 0 24"/>
<path d="M10090 13883l-23 12-13 24-9 24-7 29-1 28 4 27 10 25 14 25 18 23 25 19 22 12 23 10 30 9 29 4 30-1 30-5 27-12 24-17 19-24 11-22 7-30 2-25-3-27-12-27-14-27-16-27-16-25-22-23-23-19-23-15-29-7-28 0-28 5-26 10-26 14-20 16-12 22"/>
<path d="M8565 14649l-22 11 27 2 32-6 33-5 26-4 30-3 31-4 34-4 36-4 39-5 42-5 44-4 45-5 24-3 24-2 25-3 25-3 27-2 26-3 28-2 28-4 28-3 28-3 29-3 30-3 29-5 30-5 29-5 30-4 30-3 31-4 30-4 30-5 32-3 30-3 32-3 32-3 31-3 32-3 32-4 31-4 31-3 31-4 31-3 30-4 31-3 30-3 30-4 29-2 31-3 29-2 28-3 28-2 28-3 28-3 27 0 26-3 25-2 25-3 25-2 46-4 24-5 42-5 41-4 37-4 32-2 30-3 26-2 31-3 28-2-31-4"/>
<path d="M9444 14846l 23-11 25-2 27-1 26 2 29 6 21 17 5 24-9 25-16 23-16 18-17 17-19 16-21 19-22 13-24 10 27 7 28 1 25-1 25 5 20 15 2 26-10 22-15 24-17 23-16 19-23 22-22 18-25 14-27 5-14-20"/>
<path d="M9664 14955l-14 20-1 28 13 23 25 15 24 9 26 2 28-3 29-8 25-10 24-11 25-17 21-15 20-18 18-23 10-22-2-25-14-23-23-21-22-15-24-11-28-8-29-3-26 0-25 9-25 18"/>
<path d="M12085 15044l 2-24-13-21-28 9-19 16-16 24-14 23-13 25-11 27-10 29-4 33-4 33 1 30 4 26 9 27 11 29 13 25 19 18 26 13 28 9 29 2 26-1 25-7 27-13 23-18 22-22 18-20 13-22 10-24 7-24 5-25 0-26-4-28-9-28-12-27-13-24-16-20-18-19-21-16-25-18-23-10-28-8-25-3-25 3-20 15"/>
<path d="M12540 14958l 5 24 5 26 4 25 1 27 4 30 1 28-3 26 0 30 1 29 1 27-1 29-3 26 1 27 4 28 1 29 2 27 3 26"/>
<path d="M12489 14222l-3 24-5 25-1 25-2 27 1 25 0 25 1 27 3 28 1 25 2 24 3 29 1 27 1 25 2 26 1 26 0 25 0 25 0 25 2 24"/>
<path d="M17175 12968l 1 27 1 30 0 27-2 29-2 32-2 25-3 25-2 25-2 27-3 29-4 27-3 25-3 28 0 26-3 28-3 25"/>
<path d="M17621 13002l 5 27 6 26 3 30 3 26 3 27 2 26 1 26 0 26 2 30-2 29 0 28 1 26-1 29 1 26 3 25"/>
<path d="M18116 12984l-7 27-4 25-2 25-3 27-1 28 1 26 2 25 2 29 3 26 4 26 1 26 2 24"/>
<path d="M18580 12940l 15 20 3 28-3 28-2 30 1 29-3 29-3 25-1 26-2 27 1 28 2 27 0 25 2 28 1 26 6 25"/>
<path d="M19042 12970l-17 19-13 21-8 23-11 26-9 28-4 25-2 27 2 25 9 27 17 24 22 16 27 14 23 8 28 5 29 1 31 0 32-10 22-11 22-14 20-16 17-20 17-26 7-28 0-25-10-31-12-25-14-23-21-21-21-18-23-16-21-13-27-16-26-12-27-9-24 0-25 10"/>
<path d="M17093 13795l-5 27-2 30-4 29 0 31-1 31-5 30-4 31-4 29-2 26 1 27 12 22"/>
<path d="M17510 13846l-20 17-7 24-1 26 6 29 10 25 13 24 16 22 21 19 23 15 24 9 31 2 26-1 25-6 25-7 28-15 21-16 17-16 20-25 13-24 8-26-1-24-11-22-15-22-18-18-22-13-28-10-28-5-25-2-26 1"/>
<path d="M18181 13740l-8 25-3 29-2 26-4 28-1 28-2 28-4 28-4 25 0 26 10 22"/>
<path d="M18588 13761l 2 25 1 27 2 28-2 28 2 30 0 29 4 28 3 28 2 25 2 25"/>
<path d="M19147 13694l 7 28-2 29-3 26-4 28-3 28-1 28-2 28-1 28-3 28-2 26-3 24-3 26"/>
<path d="M16924 14570l-22 15-13 23-10 27-2 27-3 30-2 27 3 28 15 24 23 16 24 9 29 5 26 0 27-3 28-5 28-9 25-11 22-15 20-19 16-22 10-26 4-25-4-27-11-24-19-22-21-21-21-17-25-12-25-9-29-4-27 0-24 6-23 15"/>
<path d="M17671 14467l 6 23 0 26 0 25 1 25 2 25 2 27-1 24 0 25 1 24 0 25 0 26 5 24"/>
<path d="M18185 14478l-25-7-23 12-20 18-17 24-10 26-3 25 3 24 9 23 19 19 23 17 24 7 25 3 29 0 26-5 23-10 23-11 22-12 18-19 12-22 3-26-4-25-11-24-13-22-16-19-21-18-20-15-24-7-25 1"/>
<path d="M18706 14442l-24 3-22 15-18 19-16 25-6 28 1 27 9 23 18 17 23 12 27 4 26-1 27-6 28-8 22-14 16-18 12-21-4-26-12-26-15-21-16-20-17-23-19-16-21-12"/>
<path d="M19202 14372l-10 24 2 24 3 26 4 30 2 24 4 27 1 26-2 24 2 27 2 29 2 24 1 26 1 26-3 25"/>
<path d="M17389 11891l 26-13 26-3 24-2 28 0 26 3 24 4 27 9 20 13 0 28-16 20-21 20-20 15-21 15-22 14-21 13-26 15-22 11 13 22 28-1 29 0 27 2 24 3 25 4 28 6 23 12 4 24-19 20-22 17-25 19-23 14-23 12-22 11-28 12-26 9-25 2"/>
<path d="M18035 11827l-11-22-14-22-17-17-27 5-14 22-9 24-8 27-5 26-3 29-1 30 1 30 7 29 9 30 9 29 12 28 8 28 5 28-1 28-5 25-9 22-17 19-20 15"/>
<path d="M17890 12001l 26-12 26-8 24-6 24-3 25-1 30 0 24 5 22 10-9 25-16 20-12 22-4 26 13 22 22 10 25 0 28-8 21-12 18-21 5-24-16-22-21-14-22-10"/>
<path d="M18260 12020l 6 25 4 24-1 24-13-21 8-27 12-21 18-19 25-14 27-7"/>
<path d="M18878 11803l-26-1-20 13-19 18-20 23-19 26-12 22-11 29-6 30 0 29 8 27 13 23 16 20 16 17 24 15 27 10 26 7 24 4 24-1 25-4 24-9 25-13 23-17 22-20 17-23 14-22 11-27 3-30-4-31-6-29-10-28-16-22-19-16-22-14-23-8-29-4-25 4-25 12"/>
<path d="M21157 11698l-17 22-11 22-11 27-11 26-11 26-12 27-12 29-12 29-9 25-5 25 6 27 17 19 24 7 25-2 26-6 27-8 25-8 25-8 25-6 25-8 27-8 23-9 24-11"/>
<path d="M21272 11796l-20 17-8 25-8 30-3 27-3 28 2 28 2 28 3 28 4 27 6 26 7 24 7 23"/>
<path d="M22055 11741l-10-23-17-19-20-14-23-8-28 3-24 15-21 20-16 19-14 30-6 30-4 31 2 29 7 26 11 28 15 25 12 25 10 25 12 23 10 22 9 29 5 24-2 24-7 26-13 27-20 26-20 22-21 17"/>
<path d="M21854 11974l 24-13 28-7 27-5 31-4 29-2 27 0 25 2 25 6 8 23-15 20-12 25-10 25-3 25 6 23 21 14 26 0 24-12 18-18 5-23-12-23-18-17-25-14-23-8"/>
<path d="M22231 12042l 5 24 7 24 0 24-14-20-1-26 5-27 13-23"/>
<path d="M22808 11752l 21-12 27 4 27 7 23 10 25 14 18 18 4 25-21 16-19 15 17 17 23 9 16 20 11 25-9 24-17 22-19 16-22 16-23 15-24 13-22 10-28 6-24-1-13-20"/>
<path d="M23042 11840l-10 24-4 25 3 28 13 26 20 18 26 14 26 5 28-1 25-5 24-8 25-12 22-16 22-16 16-18 9-22 0-25-6-25-15-20-23-16-25-9-25-3-26 2-25 8-21 11"/>
<path d="M21120 12841l 10 26 2 32 0 26 1 27 1 30 0 29 0 30 0 31 0 31-2 29 1 26-1 26-1 24 0 29-1 24 2 26"/>
<path d="M21518 12826l 9 27 10 25 8 23 5 26 4 28 3 29 3 29 3 30 3 28 2 29 2 27 3 27 6 25-2 26-1 25"/>
<path d="M22127 12833l-8 23-3 31-3 28-3 29-1 32-1 24 0 32 1 31 3 31 1 29-3 29 0 26 3 25-3 26"/>
<path d="M22408 12864l 9 23 8 27 6 29 5 26 2 26 0 30 0 30-2 29 1 27 4 26 2 25 1 28 1 26 15 21"/>
<path d="M22983 12929l-26 9-16 22-13 26-9 23-6 24-2 26 2 26 5 25 8 23 15 27 20 22 24 17 26 10 27 8 27 0 28-5 30-10 27-15 20-13 25-19 21-23 16-24 7-26-1-29-4-29-12-25-16-22-19-19-21-18-24-15-26-10-25-6-24 0-25 6-23 15-21 16"/>
<path d="M21103 13684l-7 28 0 26 1 28 1 30 1 26 2 27 2 29 0 29-1 28-1 29 0 28-1 25 2 31 6 25 9 22"/>
<path d="M21440 13738l-2 27 7 27 6 26 3 25 3 25 0 25 1 25 1 26 2 25 0 24 0 31 1 29 4 27 13 22"/>
<path d="M22009 13728l 2 26 3 25 6 24 4 29 0 32 2 31 3 30-1 29-2 29 2 26 2 26 1 24"/>
<path d="M22413 13732l-9 23 1 25 8 28 8 24 3 26 4 29 0 29 1 27 2 27"/>
<path d="M22998 13694l-16 19-11 26-6 28 3 26 4 31 6 23 12 28 15 24 20 20 21 17 23 16 27 13 24 7 28 5 26 1 29-3 27-7 24-11 21-17 20-19 17-23 10-28 4-25 1-26-3-27-4-26-5-25-9-24-13-23-18-20-23-21-25-17-27-11-30-4-24 0-28 3-27 7-26 9-25 12-25 15"/>
<path d="M21084 14595l 2 28 0 24 2 31 0 31-1 24-1 25 0 25-1 27-3 25 0 29 4 28 8 25"/>
<path d="M21338 14686l-20 19-10 22-7 27 1 28 9 27 16 23 25 15 24 7 28 2 26-3 24-3 28-9 26-13 20-17 19-22 11-26-5-25-17-25-20-16-27-14-28-13-28-11-28-8-27-4"/>
<path d="M21977 14506l-6 23 1 28 3 29 0 26 1 26-1 27 0 27 3 26 3 28 3 25 10 24"/>
<path d="M22403 14462l-9 26 3 29 6 28 5 25 10 25 7 25 4 25 3 28 4 28 6 24"/>
<path d="M23067 14362l 15 19 6 26 3 26 6 29 1 26 3 31 2 31 1 32 2 30 3 29 0 29 1 25 1 28-1 28 2 27"/>
<path d="M20893 15388l-23 9-13 27-5 28 0 25 1 28 2 30 5 27 6 26 10 23 11 21 20 23 23 19 27 11 31 4 25-2 27-7 26-11 25-14 25-18 21-20 18-19 15-23 14-21 8-29-3-31-6-23-8-25-15-23-19-22-24-18-24-15-26-12-24-6-25-2-30 1-28 7-20 14"/>
<path d="M21523 15301l 2 28-1 24 0 28 1 30 1 26 1 30 0 29-1 28 0 26-1 30 1 26 1 27"/>
<path d="M21997 15315l-26 5-22 16-18 24-13 26-7 27-1 26 4 28 12 21 20 19 24 8 26 1 29-6 25-9 24-13 19-15 21-21 11-22 5-29-10-28-11-21-18-23-21-16-20-12-23-9-27 0"/>
<path d="M22417 15277l-25-2-17 19-6 26-2 24 2 25 10 23 11 24 24 17 27 10 26 5 26 0 28-1 26-4 25-7 22-11 21-14 15-22 4-26-6-28-12-23-16-22-22-21-23-14-28-9-27-5-26 4-21 15"/>
<path d="M23079 15136l-1 24 1 27 5 25 2 27-2 30-2 26 1 24 4 30-2 28 2 26 3 28 3 25 1 24"/>
<path d="M14317 16932l 2 27 0 31 1 27 1 26-1 28 2 26 4 27 2 26 1 31 4 29 4 30 3 27 0 26 8 25"/>
<path d="M14566 16869l 14-20 24-14 25-9 25-9 24-9 27-12 27-9 27-6"/>
<path d="M14709 16823l-17 20-16 21-13 23-9 25-7 26-6 28-5 24 0 28 9 23 23 18 25 1 26-3 31-5 24-3 24-6 31-2 25-2 25-4 31 1 25 4 27 5 23 10 21 12 14 23-2 26-13 23-20 20-24 20-20 15-22 14-26 14-23 11-22 10-26 9-27 6-25 1-25-4"/>
<path d="M14162 17835l 11-23 28-8 25-10 26-5 27 1 25 0 28 6 19 17-6 24-13 21-18 24-15 20-16 21-16 23-19 23-16 22-15 21-13 23-9 26 20 14 29-11 22-13 28-19 30-20 24-14 23-12 24-15 26-14 26-14 26-14"/>
<path d="M14674 17690l 14-21 27-9 26-1 26 0 25 4 21 16-2 28-13 26-13 24 4 25 24 7 24-2 26 4 25 11 10 23 2 26-10 27-15 24-19 21-21 18-22 16-24 9-25 0"/>
<path d="M14190 18519l 25-8 28 1 28 3 27 6 23 14 11 22 0 28-9 23-15 26-17 24-16 19-15 20-18 25-16 18-19 22-19 22-16 21-9 23 20 17 25-1 27-4 30-7 26-9 29-12 30-11 32-12 23-9 24-8"/>
<path d="M14704 18428l 11-22 24-11 28-9 25-10 26-9 25-7 25-8 25-5 24-6 13 24-2 27-2 25-6 26-6 29-6 32-8 32-9 31-7 30-6 29-4 29-3 27-1 25 0 29"/>
<path d="M14019 19612l 17-19 25-11 25-9 24-5 26-1 26-3 29 0 23 11-1 28-11 23-13 22-16 20-18 24-17 25-18 25-17 22-14 23-15 21-13 21-13 22-10 23 2 24 21 18 27 2 26-4 31-6 35-9 22-8 25-9 27-11 26-12 27-12 26-12 27-12"/>
<path d="M14616 19569l-11-23-13-22-20-16-25 8-23 19-19 17-15 19-19 25-12 21-3 25 19 17 25-3 26-9 21-11 26-15 23-15 21-19 19-16-8 28-2 31-4 29-1 27-1 29 4 32 3 26 6 29 8 29 6 25 9 27"/>
<path d="M21011 16772l-20-13-14 21-12 24-10 24-8 30-1 30 5 31 7 26 7 23 15 27 17 17 22 21 26 17 29 13 27 9 30 2 25-3 25-6 25-11 24-16 22-18 18-19 17-21 13-23 9-23 1-29-4-31-6-23-13-24-14-25-18-28-20-30-19-26-19-20-21-15-26-9-29-5-24 5-24 8-23 14-14 19"/>
<path d="M21579 16759l 11 27 6 24 3 27 2 30 1 31 3 24 1 31 0 25 0 32-1 28 0 29 2 28"/>
<path d="M22095 16739l-4 26 2 27 1 29 3 26 3 28-1 28-2 29-3 30-4 28-3 28-6 27 0 26 19 15"/>
<path d="M22594 16718l-16 20-6 29-5 28-3 24-3 30-1 27 1 30 0 25-3 25 0 25 1 27 1 28 1 25 6 24"/>
<path d="M23123 16648l-6 26-2 24-3 26 3 24 3 30-1 26 1 27 4 27 2 29-1 29 1 29 1 25 0 27 3 28 6 24 1 25"/>
<path d="M21112 17493l-6 24-1 30-1 25-2 24 2 29 2 29-1 29 1 25 1 24 1 25-1 24 0 28 0 24 0 24 1 26"/>
<path d="M21571 17508l-21-12-19 18-15 22-13 24-10 24-7 25-4 29-2 28 6 25 10 23 13 20 20 15 27 5 27 2 30-5 27-8 24-9 23-12 20-16 18-18 19-23 12-23 3-26-12-22-19-23-19-17-19-15-20-14-23-15-25-9-29-4-27-3-24 4-4 24"/>
<path d="M22092 17468l-5 27-6 26 2 30 3 25-1 24 0 24 4 24 1 30-3 24 3 26"/>
<path d="M22586 17438l 14 23 3 29-1 25 3 30 3 26 1 28 4 29 2 27 0 24-2 27 0 26"/>
<path d="M23217 17329l 2 27-2 28 2 28 0 31-2 26-2 26 2 24-4 30-1 26 3 24-3 26 0 24 1 25-1 25 2 24"/>
<path d="M21060 18259l-1 27 3 28 2 25 5 28 4 27 2 24 3 29 2 28 0 29-1 25 1 24 7 24"/>
<path d="M21612 18158l-2 24-1 26 3 27 2 28 1 28 2 29 5 28 1 30 3 27 3 26-2 25 1 25 1 26"/>
<path d="M22057 18217l-25 3-17 17-13 21-9 28-3 27 0 27 4 24 11 26 17 22 17 17 23 14 27 9 29 0 25-2 23-8 24-15 24-17 17-18 14-21 8-26-3-29-7-24-11-25-17-21-22-17-20-13-25-11-26-6-24-2"/>
<path d="M22637 18159l 4 26 4 28 4 26-2 27-2 24 0 29-1 29-2 30-3 26 2 26-3 25"/>
<path d="M23126 18111l 5 25 2 25 3 26-2 30 3 30 4 25-1 29-3 26-1 24 0 26 3 25 1 28 4 24 5 24"/>
<path d="M21067 19175l 11 27 2 26 1 29 2 28 2 31 2 31-1 25 0 25 0 24 3 29 1 26 1 27 5 26"/>
<path d="M21570 19139l 5 25 1 29-1 26-1 25 2 28 0 30 2 29-1 30-1 26 4 28 1 24 0 25 0 27-6 24-1 25"/>
<path d="M22165 19128l-3 27 5 25 0 25-4 27 2 28 3 26 2 28 2 25 0 27-1 25"/>
<path d="M23235 19073l 4 26 2 25 1 25 3 25 1 27-3 25 4 25 1 25-1 26 5 24 0 26 0 24 0 24"/>
<path d="M22708 19118l-24 9-17 19-10 24-9 28-5 27 1 25 3 28 8 26 11 22 16 22 21 16 23 13 24 9 25 2 28-3 27-11 20-14 21-20 17-24 10-26-1-27-6-28-10-27-15-24-16-18-22-17-25-16-28-11-30-3-26-2-25 6-28 9-22 13"/>
<path d="M20173 21093l-22-10-26 4-16 19-14 26-10 25-9 28-7 31-4 32 0 34 3 34 6 32 7 29 11 27 12 22 16 20 24 20 27 12 30 5 26-1 26-6 30-10 31-18 23-13 22-17 22-19 20-20 19-19 16-22 13-22 14-30 7-29 1-28-6-28-11-31-17-30-14-20-17-19-25-25-25-21-21-15-23-9-25-5-28-2-27 2-27 7-24 12-19 15-12 21"/>
<path d="M20830 21015l-12 25 1 27 0 28 4 26 3 28 5 31 3 33 4 32 3 33-1 35 1 34-3 32-3 28-4 25-9 23"/>
<path d="M21324 21034l 8 24 4 28 2 26 1 31 2 27 1 27 2 27 2 28 4 26 1 26 2 24 1 27 4 29 1 25-3 24"/>
<path d="M21887 20995l 3 25-1 31 0 25 3 28 2 30 1 34 0 25 1 25-1 25 0 25 0 27 1 26 1 25 0 32 2 30 2 26 3 24 7 24"/>
<path d="M22401 20985l-2 25-2 29-2 25 0 26 0 29 1 30 0 31 0 31 1 31 2 30 1 30 2 29 0 24 2 28 2 25 2 26"/>
<path d="M22907 20884l 4 24-2 30-4 30-1 24-2 25-1 28-2 30 0 30 0 30 3 32 2 30 2 28 3 29 3 28 3 27 3 26 6 34 6 29 5 25 6 28 4 25"/>
<path d="M20229 22051l 4-25 4 27-4 31-1 34-1 24-2 25-2 25-2 26-1 37 1 25-1 25-2 35-1 29 2 24 3 28 7 23 20 15"/>
<path d="M20882 22007l-5-24-28-2-27 9-23 13-23 18-21 22-15 20-16 24-15 31-9 22-8 25-6 26-3 27-2 28 0 29-1 27 1 26 8 34 13 29 17 23 23 18 23 14 26 10 29 6 30 3 29-3 31-8 31-11 23-9 31-17 29-21 25-25 22-28 20-26 12-27 8-29 1-31-4-31-8-31-9-23-10-24-10-22-13-22-18-26-20-21-18-17-28-15-25-7-27-4-23 12"/>
<path d="M21440 22014l-7 28-2 30 1 25 0 28-1 30 1 28 1 28 2 29 0 28 3 28 0 25-6 24 0 25"/>
<path d="M21864 21996l-3 30 1 25 1 28 2 25 4 25 2 28 2 26 2 25 0 25 0 26 0 25-1 30-5 26-8 26"/>
<path d="M22420 21983l-2 26 3 24 1 30 1 33 2 33 3 33 2 32 4 30 3 30 0 30 0 27 3 24 5 29 2 26-2 25"/>
<path d="M23036 21935l 3 28 0 28 2 27 2 30 7 31 6 32 6 33 4 32 4 31 3 30 3 28 2 27 3 29 3 25 0 28-4 25"/>
<path d="M20194 23050l-5 25 0 33-1 30-3 32 2 33 1 25 4 24 3 24 1 25 6 33 3 34 3 30 2 25 6 25 11 25 15 19"/>
<path d="M20862 23030l-8 23-3 32 1 29 0 30 3 34 2 36 2 27 2 25 2 26 2 25 3 32 4 29 4 29 7 24"/>
<path d="M21321 23082l-23 8-16 22-6 25 1 30 2 26 4 28 7 28 11 28 12 23 18 22 26 12 27 6 29 0 25-5 23-9 21-14 19-16 17-21 17-22 8-25 4-32-3-32-9-28-11-30-17-30-19-25-21-20-27-14-29-5-31 6-24 12-24 17"/>
<path d="M21835 22994l 6 23 8 24 10 29 7 30 5 24 6 31 3 25 3 31 4 31 2 27 2 26"/>
<path d="M22476 22903l-2 31-1 32-1 29 1 30-2 35 2 24 1 25 4 24 3 24 3 35 2 33 3 34 4 26 1 24-1 24"/>
<path d="M23106 22896l 10 27 4 28 4 26 2 30 3 31 3 34 1 35 1 34 0 34 1 32 4 32 1 31 0 29-2 26-4 25"/>
<path d="M20155 23862l 8-23 9 22 1 31-4 27-3 27-3 32-5 33-4 35-3 33-4 34-4 29-4 30-3 27 2 24"/>
<path d="M20770 23857l-15 21 1 27 3 27 7 30 5 24 4 26 6 25 6 28 3 28 2 28 2 26 2 30 1 28 3 26"/>
<path d="M21386 23840l 2 29 0 29 0 28 0 31-2 31 2 32 3 27 5 26 3 26 2 24 5 25"/>
<path d="M21926 23847l-20 13-15 23-11 23-9 23-1 26 3 28 8 28 9 28 15 25 22 25 17 17 21 14 22 10 25 4 25 2 28-3 25-10 24-12 20-18 19-20 15-23 10-23 9-25 0-25-5-28-8-29-13-28-17-32-12-22-13-22-19-28-19-24-20-16-27-10-28 4-24 10-20 21-15 24-5 27"/>
<path d="M22569 23784l-6 25-2 25 0 27 1 31 4 29 2 24 3 28 6 27 4 27 3 25 8 26 6 26"/>
<path d="M23186 23732l 6 25 7 26 4 27 2 31 2 28-1 30-2 32-3 30-1 29 0 27 0 24-2 30 2 25 1 26 8 24"/>
<path d="M22647 24709l-23-10-22 12-10 24-8 25-7 29 0 30-2 26 2 29 1 28 5 27 12 25 10 24 15 26 21 14 23 13 25 12 27-2 26-13 20-15 25-21 26-25 22-26 20-28 11-28 7-24 5-26-1-29-5-33-9-34-8-23-17-30-19-25-24-19-19-15-30-7-24-3-27-3-28 7-28 13-21 14-19 17-16 25-6 24"/>
<path d="M23261 24560l-8 23-3 27-2 26-1 30-2 29 1 26 1 28 0 29 2 29 2 27 2 27 0 26 2 25 4 25 2 24"/>
<path d="M22030 24656l 7-23 4 27-1 28-3 32-2 24-2 35 2 35 0 35 3 35 2 31 2 30 2 24 7 24 3 28 3 27"/>
<path d="M21368 24687l 11 25 3 27 1 28 3 31 2 28 3 32 2 27 2 30 0 32 0 35-4 34-2 34-4 31-2 25-1 26"/>
<path d="M20727 24702l-1 25 3 24 3 28 3 29 3 27 4 25 3 25 1 24-1 26 0 25 0 31 0 28 1 28 4 25"/>
<path d="M20270 24744l-8 27-2 28-1 27-3 29 2 30 0 33 4 32 2 32 3 34 2 34 3 24 1 24 2 25 2 25 4 34 4 31 3 29 4 31 5 28 3 25"/>
<path d="M23614 20847l-6-23-14 25-3 30-3 28-1 30-2 30 0 31 2 32 0 32 3 32 1 30 1 29 1 26 4 29 1 25 5 24"/>
<path d="M23552 21844l 4 30 4 25 3 25 3 25 3 29 2 32 1 32 1 35-1 25 0 24 0 24 0 25 0 24 1 36 1 29 4 25 5 23 13 22"/>
<path d="M23591 22934l 10 28 4 30 2 31-2 25 0 29 2 28-1 29 0 26-1 27 3 31 5 27 0 26 8 24"/>
<path d="M23634 23730l 5 26 5 26 6 24 7 29 7 34 4 34 6 35 4 24 6 25 3 26 3 25 5 34 3 31 6 28 4 25 7 29 4 25"/>
<path d="M23754 24663l 1 27 1 27 2 30 1 33 0 33 1 33 1 32 3 30 1 28 2 25 4 31 1 25"/>
<path d="M23750 25496l 9 26 4 29 3 25 4 29 3 35 2 24 2 28 6 30 3 31 2 35 4 32 2 33 3 30 4 28 4 29 2 26 4 28 5 34 5 30 5 26 4 27"/>
<path d="M23267 25599l-20-14-22 11-16 20-15 28-10 28-11 32-4 25-4 27-2 30 1 31 2 31 2 32 4 28 7 27 8 25 9 23 16 28 18 22 20 17 26 15 24 7 29 1 24-6 22-11 21-15 19-22 19-28 11-21 11-23 9-23 8-25 7-25 3-25 0-27-2-25-6-25-10-26-10-25-14-25-16-25-18-26-21-23-23-18-23-15-23-7-33-10-30-4-31 1-31 4-24 6-24 10-19 17"/>
<path d="M22707 25626l-2 28 0 26 1 27 6 30 3 34 1 24-1 26 2 29 1 25 3 25 0 25 2 35 0 34 1 29 0 30 0 25 9 24"/>
<path d="M22003 25664l-2 28 3 31 1 32 0 26 1 28 2 28 2 28 2 28 2 28 3 29 1 28 2 26 3 25 0 33 2 28 1 28 5 24"/>
<path d="M21383 25706l-19 15-1 32 1 27 3 31 2 32 3 33 6 34 5 35 3 24 2 35 3 32 2 28 1 24 2 29 2 25"/>
<path d="M20713 25716l-11 25-3 26 0 29 4 30 4 31 2 25 3 25 2 27 1 31 2 30 1 32 0 28 1 26 2 30 5 24"/>
<path d="M20234 25812l-14 21-5 29-4 28-2 27-1 28 2 30 1 27 0 28 3 29 1 30 2 31 3 31 3 29 3 31 3 24 5 25 11 24"/>
<path d="M24893 23298l 2 25 4 28 4 27 6 28 7 28 9 28 9 26 10 26 13 26 16 21 25-9 15-30 10-32 7-24 6-24 5-26 5-25 4-25 2-24 2-33 0-28-2-27-13-21-10 22"/>
<path d="M25233 23208l-25-8-25 7-23 15-19 16-16 19-13 24-11 25 2 24 22 17 24 6 26 3 30 5 24 5 24 10 22 18 11 22-10 28-13 25-17 16-26 15-23 6-26 3"/>
<path d="M25393 23431l"/>
<path d="M26817 20693l 10 23 0 25-2 25-6 27-4 30-3 30-1 29-4 29-4 29-1 27 0 25-2 30-2 24-1 26-3 24"/>
<path d="M27268 20685l-16 20-4 27 0 25 1 29 3 25 4 26 7 26 7 26 3 27 3 26 3 24 3 26 6 24 2 24"/>
<path d="M27899 20639l-2 27-3 31-4 28-1 25 1 25 0 28-2 28-1 27-2 26-1 27 1 31 0 29 1 25 3 28 3 25"/>
<path d="M28368 20667l 11 23 3 25 0 25-3 30-2 31-2 30-1 30-1 28-1 26-1 26 2 28-2 25 2 27 2 25"/>
<path d="M28864 20646l 19 17 5 25 3 24 3 26 7 24-2 24 0 27-1 28-3 27-3 26 1 29 0 26-3 26 1 26 0 26 2 26"/>
<path d="M29336 20635l 10 23-4 25-5 25-6 26 0 31-4 25-2 26-2 27 1 26 2 25 3 30 5 25 7 25 6 25"/>
<path d="M29808 20668l-16 20-12 25-8 25-6 29-3 31 1 25 4 28 10 26 16 21 22 20 28 16 33 9 29 4 32 0 30-3 31-5 27-8 26-10 24-12 21-15 22-22 15-21 11-27 2-26 0-29-4-31-6-28-13-27-15-23-20-19-21-13-22-10-24-6-24-3-29 0-28 3-28 5-26 9-25 9-23 13"/>
<path d="M26917 21663l"/>
<path d="M26876 21633l 16 23 2 31 2 28 2 30-1 32 0 31 1 29 1 30 0 29 0 29 0 27 0 24-1 24-1 31 0 28-1 25"/>
<path d="M27312 21677l-5 24 5 24 5 27 4 31 4 24 4 25 6 23 4 25 5 24 3 25 4 31 0 31-3 28 2 26"/>
<path d="M27965 21631l 0 27 4 25 4 25 3 30 3 24 2 26 3 27 1 28-1 29-1 28 0 28 1 24 2 26 6 23"/>
<path d="M28374 21600l 6 26 1 25 1 29 1 26-1 27-4 28-2 31-1 32-1 34-1 32-1 31 0 26 2 29 4 26 13 21"/>
<path d="M28881 21660l-2 26 4 24 3 28 3 24 0 27-2 27-2 27-1 28 0 28-1 28 0 26-2 30 2 25 5 23"/>
<path d="M29333 21701l-4 28 4 25 1 30 0 31-1 25 2 25 1 25 5 26 1 26 1 25 3 30 2 25"/>
<path d="M30013 21735l-25-5-25 11-20 23-14 27-10 24-8 28-9 30-3 29 3 29 8 25 12 29 15 23 23 19 23 12 25 10 27 6 30 2 34-4 31-7 30-10 27-15 24-17 14-20 14-23 10-26 6-31 0-34-3-25-4-27-6-25-8-26-10-24-12-22-20-28-24-22-24-16-23-11-24-6-24-1-32 3-23 9-25 15"/>
<path d="M26951 22736l-14 27-1 32 1 32 3 35 3 27 1 27 1 26 2 27 0 26 0 27-1 26-1 26-3 35-2 31-3 26 0 27 5 23"/>
<path d="M27416 22724l-1 29 1 28 2 26-2 28 0 30-2 32 1 31 1 32 2 30 2 31 1 30 1 26 5 27 4 25"/>
<path d="M27987 22705l-6 26-2 26-3 29-2 26-3 28-3 30-2 31-2 30-2 28-2 29 3 26 0 31 2 27"/>
<path d="M28366 22753l-5 25 3 26 5 26 5 31 3 30 3 31-1 29 0 28 1 28-1 27-2 25"/>
<path d="M28953 22718l 5 27 3 25 3 28 2 28 3 31 5 30 3 30 1 29 3 28 0 27-3 24 4 26"/>
<path d="M29367 22749l-2 25 0 30 4 28 3 25 1 24 2 24 6 24 4 30 0 30 2 28 0 27"/>
<path d="M30012 22739l-26 4-19 20-16 24-13 22-10 27-11 31-9 33-6 35-1 34 6 34 10 33 7 29 16 24 21 19 27 14 29 10 31 5 34-1 25-4 24-6 26-8 24-12 24-13 25-16 21-18 19-19 18-21 11-22 11-23 6-24 4-24 3-25 0-26-3-28-7-27-8-26-10-26-12-24-13-21-18-17-20-13-22-10-25-6-27-2-26 0-26 1-27 4-25 4-34 10-30 13-23 16-17 19"/>
<path d="M26875 23667l 5 30 3 28 2 24 0 26-1 27-2 29-4 32-5 34-6 35-5 36-2 24-3 35-2 31-1 27 0 28 5 26"/>
<path d="M27296 23731l-1 29-4 27-2 24-1 28 0 31 0 31 3 29 0 30 3 31 1 30 3 28 0 24 3 27 6 23 5 25"/>
<path d="M27890 23709l-7 25-2 30-3 31 1 24 4 28 3 31 4 30 4 30 4 33 1 32 2 28 2 26 6 29 4 27 7 25"/>
<path d="M28300 23742l 13 21 10 24 6 29 1 25 1 27 1 30 0 31-1 34-1 34 0 34-3 31-3 27 1 24-1 27-1 24"/>
<path d="M29027 23676l-2 30-3 25-2 30-1 31 3 32 0 34 0 33 3 33 4 31 6 32 4 28 7 24 4 26 10 25"/>
<path d="M29491 23698l 2 24 3 28 2 26 1 24 1 25-1 24 0 25 0 24 1 25 2 30-1 30 1 26"/>
<path d="M30074 23714l-27 8-21 17-16 19-7 29-2 28 3 29 8 28 9 28 16 25 23 22 26 14 27 7 28 3 31-7 25-9 22-14 20-15 17-17 16-21 13-21 11-30 4-26 0-29-6-29-10-28-15-22-16-20-27-16-29-8-32-1-31 7-27 13-21 13"/>
<path d="M26851 24710l-5 26-5 29-4 30-4 24-3 27-3 28-3 28 0 28 0 30 0 29 0 26 0 24-1 31-1 26 1 27"/>
<path d="M27312 24763l-24 11-16 28-12 26-10 28-8 30-8 32-4 34 1 31 2 28 6 23 13 28 19 22 24 16 26 11 28 6 29 2 29-2 27-4 24-10 25-11 21-11 24-15 18-20 17-26 9-26 2-26-7-29-9-23-8-25-13-23-11-25-19-22-25-21-21-19-22-15-26-15-22-9-27-6-25 6-4 26"/>
<path d="M27912 24727l-6 23 4 27 2 30 0 26 3 27 5 28 3 25 7 28 2 31 3 29-3 27 2 31 1 25 0 25 0 24"/>
<path d="M28437 24720l 11 28 4 27 5 32 1 35-1 35 0 35 0 25 1 24 1 33 1 29-3 26 0 27 0 26"/>
<path d="M29078 24734l-5 24 2 29 1 27 3 28 2 29 4 27 1 31 5 33 7 32 4 32 3 31 2 28 0 25 1 28-6 23"/>
<path d="M29607 24781l-3 25-1 27 0 29 2 24 3 27 1 29-1 28-1 28-1 25-1 30-4 26-4 25"/>
<path d="M30292 24706l-5 27 0 24 1 26 2 28 2 28 2 28 1 28 2 28 3 25 2 26 1 25 0 30 1 25-1 29 2 27 0 25"/>
<path d="M27291 25622l 8 27-2 31-1 30-1 25-1 29-1 28 0 28 0 29 0 29-2 28-1 31-1 27 0 29-3 27"/>
<path d="M26748 25676l-27 6-22 17-19 18-14 29-7 25-6 29-6 31-2 31 1 29 4 27 7 25 12 22 16 25 20 19 24 15 27 6 27-3 28-9 23-13 21-19 19-23 19-26 14-28 13-27 7-26-3-29-12-29-15-22-17-21-18-19-20-17-25-18-26-15-27-12-26-5-22 12 3 28"/>
<path d="M30310 25648l-2 25-2 26-1 30-2 28-1 31 3 31 0 30-1 33 2 34 3 32 6 29 3 25 3 28-2 30"/>
<path d="M27891 25696l-11-23-19-16-20 14-14 21-13 28-9 31-5 23-1 24 3 31 8 28 11 22 21 18 26 10 28-1 25-8 25-11 25-15 24-21 20-25 18-25 13-25 9-27 3-24-1-30-8-23-12-24-16-21-22-17-21-12-29-13-31-4-28 2-24 7-24 17-15 24-3 26"/>
<path d="M28514 25652l-27 0-25 15-23 17-19 16-20 21-15 23-10 26-7 27-3 25 1 25 9 28 17 26 17 18 23 9 26 7 26 2 26-3 27-9 28-12 27-18 26-17 21-18 16-20 11-21 7-24 2-31-5-23-14-25-13-25-18-25-18-20-20-14-26-12-28-3-28 1-24 6"/>
<path d="M29089 25682l-27-4-24 8-21 11-20 17-22 21-15 25-8 30-4 32 3 30 10 27 17 23 20 22 23 16 29 6 25 3 32-3 25-9 25-10 21-16 19-16 18-20 14-20 6-30-1-31-11-30-14-22-19-21-21-19-21-18-22-14-29-11-28-4"/>
<path d="M29685 25682l-23-11-25 6-22 15-19 20-14 28-9 24-5 29-3 31 2 31 4 31 9 29 10 26 13 21 21 24 25 16 30 9 27 3 31-6 25-9 23-16 20-18 17-23 14-29 8-30 6-28 1-30-2-33-9-35-12-33-16-29-22-21-27-15-28-10-30-6-27-4-26 1-25 9"/>
<path d="M14078 22028l 0 28 1 29 0 24 0 25-1 27 1 29 0 33 0 24 1 26 0 27 0 28 0 28 1 28 0 26 1 25 1 34 2 30 3 27 4 24 6 26 7 24-4-26"/>
<path d="M14494 22092l-26-4-17 24-12 30-8 28-6 33-2 35 0 24 1 35 3 32 8 27 11 23 16 24 19 18 24 13 26 5 27-2 28-9 22-11 20-14 19-18 17-20 14-22 10-23 6-26 4-26-3-28-6-29-11-30-14-28-18-25-19-22-19-19-19-15-22-13-25-13-26-8-26 5-18 18-4 26"/>
<path d="M15028 21984l-4 27 1 24 0 29 1 24 1 32 1 24 2 24 0 24 1 25 2 29 3 28 1 26 2 24 2 26 1 24"/>
<path d="M15399 22022l-26 9-17 21-15 23-12 28-9 31-5 32 1 30 8 29 15 25 24 20 20 13 22 12 29 10 27 8 26 3 27-1 30-5 24-6 26-12 22-21 17-24 11-27 3-29-6-30-9-25-12-25-13-25-19-24-19-22-19-20-24-18-24-12-23-8-28-2-25 3-23 8-21 15-22 23-14 23"/>
<path d="M14141 23751l-8 25-6 25-6 32-3 26-4 28-1 28-2 27 0 29 0 28 0 26 3 24 2 28 2 25 4 25 7 24"/>
<path d="M14637 23770l-24-3-17 26-10 22-9 26-7 29-6 29-2 28 1 26 4 25 11 29 14 21 22 16 27 7 25-3 23-9 24-15 25-21 22-25 20-26 15-26 7-23 4-30-7-31-12-22-18-20-21-21-22-17-23-12-29-10-24-2-24 10-9 24"/>
<path d="M15121 23744l-26 9-23 17-22 20-17 24-13 28-5 25-4 24 3 28 12 24 18 21 23 13 27 6 27 0 30-5 25-8 22-12 21-13 21-22 11-23 4-27-6-25-13-27-15-19-24-22-25-16-28-12-25-7-27-2-26 4"/>
<path d="M15634 23624l-2 27 7 28 5 28 4 25 2 28 1 30 1 31-1 32-1 32 1 29 0 30 0 28 0 26 0 28-1 25-2 27"/>
<path d="M14091 24686l-25 3-20 14-20 19-15 21-10 25-6 31-1 26 2 28 4 27 8 24 13 27 18 19 22 13 25 7 29-2 24-9 25-11 25-15 24-16 24-17 21-21 20-23 13-22 9-23 7-29 1-26-9-28-13-27-15-20-19-18-19-15-27-14-23-9-26 0-24 6-16 20"/>
<path d="M14711 24641l-22 14-15 21-10 23-7 26-3 27 2 26 4 24 13 27 18 18 25 11 28 5 25-7 25-13 17-20 14-21 12-24 3-24-6-25-15-24-21-24-19-15-21-12-31-10-27-2-28 4-24 12-10 25"/>
<path d="M15204 24529l-1 25 4 28 5 24 6 26 5 29 5 31 4 30 2 24 3 31 1 27 1 26 0 26"/>
<path d="M15640 24499l-4 27 2 25 4 30 3 32 4 25 3 28 4 25 3 25 4 31 3 28 3 26 5 27 1 25"/>
<path d="M16100 22014l 23-12 25-9 26-10 25-8"/>
<path d="M16096 22082l 23-15 23-6 26-7 24-6 26-6"/>
<path d="M16792 21835l 10 25-5 28-5 30-2 25-3 25-3 25-4 25-4 26-4 26-5 29-2 25 0 24 10 23"/>
<path d="M16988 21900l-13 27-9 27-6 23-2 25 0 24 3 26 7 25 13 28 18 23 22 15 25 9 29 5 30-4 28-11 23-13 21-18 19-19 13-22 10-22 7-30-2-30-7-25-12-27-16-29-21-27-23-22-24-19-22-12-25-7-25-1-25 5-26 11"/>
<path d="M15849 22324l 22-11 25 3 23 7 19 15-11 22-18 17-21 17-22 14-18 16 24 6 25-3 28-4 28-4"/>
<path d="M16223 23654l 25-10 25-7 28-9 24-7 23-9"/>
<path d="M16245 23747l 20-14 25-13 25-9 29-10 29-12 23-7"/>
<path d="M17142 23482l 6-23-4-25-16-20-25-12-25-2-27 7-24 14-21 17-19 20-18 22-17 27-13 26-10 23-6 26 5 26 23 15 29-1 25-6 26-11 25-15 21-16 20-19 18-18 18-20 11-22-5 25-4 29-2 27-2 28-2 29-1 29 0 28 2 30 2 29 4 29 3 27 2 27 6 25"/>
<path d="M16305 24474l 24-5 28-3 27-5 28-7 26-5"/>
<path d="M16311 24563l 23-11 27-10 28-9 23-9 26-9"/>
<path d="M16983 24296l 18-16 27-4 28-2 25-1 26 1 26 2 25 2 24 6 18 19-9 23-16 20-20 23-20 19-21 17-21 17-21 14-21 15-20 14-24 17 25-2 27-9 29-8 25-6 25-6 27-5 26-2 30 0 24 4 27 12 17 22 8 28 0 28-4 31-5 24-8 26-11 26-13 26-15 26-16 24-19 22-22 18-21 16-24 12-30 11-28 3-28-3-26-7-23-11-23-10-16-18"/>
<path d="M14155 27188l 1 25 3 26 1 27 1 28 0 24 2 25 3 25 3 24 3 27 1 26 1 26 2 25"/>
<path d="M14135 27142l-13-20-22-13-26-1-24 8-21 12-21 18-18 19-16 23-12 27-9 22-7 24-1 28-2 28 3 29 6 25 7 25 11 23 15 23 16 19 20 15 25 7 25-3 23-7 26-11 23-18 23-15 21-14 22-18 18-17 16-22 9-24 3-25-6-26-11-26-12-22-13-22-14-20-19-21-18-18-19-15-21-14-23-7-24-6-26 5-22 11-18 16-16 19-15 22-11 22-9 27-7 27-4 28-1 26 2 25 5 27 10 26 12 21 19 17 22 10 27 2 25-7 22-10 26-14 24-18 18-16 18-19 15-21 12-22 8-25 3-27-4-25-11-26-19-19-19-18-22-15-24-11-25-8-26-2-26 7-23 15-16 18-12 23-10 25-6 25-4 26-2 24 2 25 7 29 8 24 11 22 16 25 18 19 20 15 22 10 24 3 28-1 24-7 21-12 21-15 20-21 16-23 10-21 10-27 3-26-3-29-9-28-10-23-10-24-12-22-19-21-18-17-22-15-25-12-25-3"/>
<path d="M15288 27054l 1 24 1 27 1 25 0 29 2 24 2 26 4 24 3 25 2 25 3 29 2 27 2 26 4 24"/>
<path d="M15779 27039l 6 27 2 25 3 24 3 26 4 27 5 28 4 31 3 32 3 26 4 30 2 24-2 24"/>
<path d="M14707 27169l-22-14-26 0-25 7-20 22-15 27-11 25-11 28-6 28-4 28 1 26 1 24 6 30 11 24 16 21 19 18 19 14 26 12 24 5 28-2 23-10 24-19 18-22 14-27 13-28 10-30 4-29-1-30-8-31-8-24-10-23-12-23-17-23-17-18-21-15-22-11-24-5-29-2-24 10-19 18"/>
<path d="M14126 27949l 1-24 11 25 2 28 1 26-1 31 1 25 0 26 0 25-1 25 0 24-1 31 1 28 0 26 0 24-1 27-6 23"/>
<path d="M14810 27937l-17-19-25 3-19 21-12 24-9 26-7 30-3 25 1 31 5 26 13 28 15 19 22 12 24 6 26-4 27-8 23-13 23-16 23-19 20-23 13-23 9-24 2-26-9-26-19-23-25-16-30-9-24-4-25-2-32 1-29 4-25 6-23 12"/>
<path d="M15348 27896l-23-11-22 9-18 22-13 24-14 29-10 25-8 25-4 26 0 31 7 24 13 22 18 17 26 12 25 3 28-3 25-6 25-11 26-15 26-18 23-19 19-22 15-22 13-27 6-25-2-25-10-23-15-24-20-22-24-16-29-10-25-3-30-2-26-4-28 1"/>
<path d="M15893 27773l-14 21 1 26 2 28 2 24 4 29 6 30 3 24 3 29 1 25 2 29 2 26-1 25 0 24"/>
<path d="M14106 28704l-2 26 5 28 1 27-2 28 0 29-2 29-2 27-2 29-1 31-1 31-2 26 4 27 20 15"/>
<path d="M14804 28717l-26 7-22 18-16 20-17 27-11 24-12 26-7 29-6 29 0 28 1 25 6 29 9 24 17 21 25 10 28 0 26-7 27-12 26-15 19-18 18-18 17-18 15-20 14-26 9-23 5-28-8-28-13-24-20-22-25-19-28-16-26-9-24-6-28 0-24 5-16 19"/>
<path d="M15326 28633l 3 29 2 29 0 24 1 25 1 26 1 29-1 34 0 25-1 26-1 29-1 26-4 27-5 23"/>
<path d="M15862 28679l-24 6-16 21-12 23-12 26-10 30-9 33-8 33-3 33-1 31 4 29 5 24 11 28 14 20 24 16 25 4 29-2 27-9 26-17 19-16 20-22 15-21 13-20 14-26 8-30 2-31-3-25-7-27-10-28-13-26-14-22-20-21-20-16-26-10-27-5-26 2-25 6-25 12-18 20-12 25"/>
<path d="M18246 27138l-7 29-4 29-3 28-3 28-1 29-1 28-1 28 0 27 1 26 2 25 1 26 2 24 2 30 3 27 1 24 0 25 2 26"/>
<path d="M18601 27131l 8 26 3 28 3 29 2 26 3 25 3 24 3 25 4 31 1 30 2 31 2 27 2 29 4 26 4 24"/>
<path d="M18931 27183l-22 10-15 24-9 25-6 24-3 25 0 25 4 28 8 25 10 23 18 19 20 16 23 12 26 8 28 1 28-5 25-9 23-15 21-18 16-23 13-25 9-26 2-28-6-29-11-26-15-23-16-19-23-17-25-12-24-5-24-2-27 2-22 9-10 22"/>
<path d="M19337 27134l-22 13-11 24-9 25-3 24 1 26 1 24 6 29 7 27 10 25 17 21 23 13 27 7 26 0 27-8 23-11 24-18 20-19 17-22 11-23 6-28-3-25-9-27-16-25-21-23-25-18-27-14-27-10-28-8-27-4-25 5"/>
<path d="M19695 27397l 24-10 25 2 23 13 6 23-10 22-16 22-20 19-21 17-19 15 16 19 26 3 26-2 28-4 28-5"/>
<path d="M20005 27253l 26-5 28 0 26 1"/>
<path d="M20001 27337l 23-8 29-3 25 0"/>
<path d="M20417 27125l-4 30 6 27 3 26 2 27 4 28 3 27 2 27 3 26 1 27 0 26-2 25-2 31-4 27-5 24"/>
<path d="M20592 27150l 25-11 26-2 25-1 25 1 27 2 25 5 28 9 21 12 18 16 13 23 1 26-8 27-14 25-19 21-17 17-18 19-21 19-21 17-21 16-21 15-23 17-21 15-22 14 26 3 26-4 28-4 24-3 27-3 25-1 24 1 24 3 26 7 24 9"/>
<path d="M18272 28414l 10 22 6 23 5 27 2 24 2 28-2 31 0 31 0 28 0 31-1 30-2 28 0 30 1 27 1 26 1 25 0 24"/>
<path d="M18735 28431l 2 25 0 29 0 26-1 28 1 25 3 30 3 26 3 28 2 25 1 25 5 24"/>
<path d="M18845 28418l-7-23-16-19-25 3-19 17-11 25-9 23-11 26-6 24-5 27-2 27 1 28 5 29 5 24 8 24 10 26 12 22 15 22 19 18 25 7 27-6 22-16 19-15 16-17 13-21 12-22 10-24 11-26 9-25 5-29 1-28-6-24-13-26-14-25-17-24-17-18-22-18-22-14-25-10-25-6-24 2"/>
<path d="M19231 28335l 3 24 2 29 2 27 1 27 1 29-1 30 1 29 1 29-2 27-2 25-4 28-4 25-4 25"/>
<path d="M19536 28337l 3 27 2 30 3 26 3 30 2 32 1 25 0 25 1 25 0 30 0 29-1 31-2 28-1 28 0 25"/>
<path d="M19806 28668l 24-5 28 0 25 2 22 11 6 25-14 21-19 19-20 21-19 20-16 19-15 21 20 16 28-2 28-5 28-5"/>
<path d="M20200 28387l 25-5 29-1 24 0 26-1"/>
<path d="M20198 28489l 26-8 25-3 25-2 27-2 27-2"/>
<path d="M20573 28224l 5 27 5 24 6 27 4 25 5 27 4 28 5 31 2 30 3 30 0 31 2 29 1 27-1 24-5 27-6 24-6 23"/>
<path d="M20851 28155l 5 23 3 27 5 30 3 25 4 29 3 33 5 32 6 24 5 34 3 24 4 36 6 34 4 35 5 32 1 30 1 28 2 31 4 25 6 25"/>
<path d="M18300 29377l 5 27 4 25-1 27 0 26 3 28 1 32 3 27 5 25 3 25 4 29 2 25"/>
<path d="M18241 29437l 0-25-7-23-26-1-22 11-20 16-17 21-13 23-12 26-8 27-5 29-3 27 1 30 2 31 7 29 10 27 12 22 16 20 22 12 27 6 24 0 24-6 24-8 22-12 22-18 18-21 15-26 10-25 8-25 5-26 3-27-3-25-9-25-10-25-15-25-16-19-16-20-19-20-24-13-25-11-25 1-22 11-19 17-19 21-15 23-13 26-9 23-5 27-3 25-2 24-1 32 3 31 8 29 9 24 14 21 24 15 26 10 25 3 28-6 24-9 24-11 21-14 19-18 17-25 11-22 8-23 5-24-2-25-7-28-14-26-13-21-14-21-21-21-19-19-22-12-21-10-25-11-28 9-23 13-23 19-17 20-15 21-11 22-8 23-3 28 5 26"/>
<path d="M18806 29390l-3-25 0-24 0 25-2 26-4 25-3 28-2 31-3 31-3 31-3 31 0 29 0 27 0 26 0 30 1 26"/>
<path d="M19105 29395l"/>
<path d="M19150 29354l 0 27 2 25 2 25 3 28 3 28 4 27 4 27 5 26 7 24 6 24 3 24"/>
<path d="M19533 29348l 4 25 2 27 2 26 2 27 1 28 0 24 4 25 2 24-1 30 1 28 2 26 1 24"/>
<path d="M19784 29585l 24-6 28 3 23 5 23 6 22 12-13 22-18 19-22 19-18 16-17 18-15 19 16 18 26-3 30-6 28-11 25-7 25-7"/>
<path d="M20289 29331l 25-5 26 3 25 0"/>
<path d="M20241 29419l 27-7 25-1 24 0 29-1 29-5"/>
<path d="M20669 29114l 25 0 26-1 28-4 27-3 27-4 26-2 26-4 25-2-3 24-7 25-8 23-10 24-9 27-7 27-7 31-8 28-6 31-6 31-7 32-7 32-6 30-5 25-4 31-4 28-4 25-4 25"/>
<path d="M18270 30859l-22-13-26-5-25 10-24 16-19 21-13 21-13 26-10 25-7 25-3 24 3 26 10 28 13 24 19 20 23 18 23 14 24 6 27-1 28-9 24-15 19-15 22-21 21-21 17-21 10-25 9-25 6-28-3-27-11-26-12-21-17-19-21-20-21-12-25-8-25-2-25 6-18 21"/>
<path d="M18749 30817l-4 27-1 28 0 30 3 25 1 27-1 29 0 26 0 27-2 28 0 26-1 25 1 26"/>
<path d="M19056 30862l 1 27-1 28 0 28 2 25 0 30-1 26-3 24-3 27 2 27"/>
<path d="M19448 30800l-7 27 2 28 4 28 5 30 2 26 3 25 0 25 1 28 2 28 2 24 3 24"/>
<path d="M19653 31056l 26-4 26 2 24 6 22 8-11 24-21 16-21 18-19 19-19 17-15 20 19 19 28 4 26-1 28-1 25-3"/>
<path d="M18207 31572l 2 24 3 24 3 28 2 30 1 30 3 31 0 31 1 31-1 31 0 26 3 29 6 24"/>
<path d="M18635 31586l-25 9-18 20-9 23-3 24-1 25 5 24 11 23 13 22 20 19 27 12 27 8 27 2 28-7 26-12 20-13 22-17 19-20 17-21 13-26 6-28-9-26-18-21-25-15-26-9-30 0-30 5-29 9-24 12-21 14-11 21"/>
<path d="M19073 31558l-22 11-3 27 5 26 6 27 8 23 8 25 7 24 7 23 10 26 15 21"/>
<path d="M19382 31502l-4 26 2 25 4 29 4 25 4 28 3 25 3 26 4 27 2 25"/>
<path d="M19615 31702l 27-2 26 4 23 9 1 24-19 20-21 18-22 16-20 16 12 22 25 6 26 1 27-1 24 0"/>
<path d="M23903 27131l 2 28-2 27-1 25-1 28 0 27 1 28 0 29 0 28-1 29-1 29-1 26-1 29 0 25 1 25"/>
<path d="M24442 27179l-26 4-15 19-15 21-10 26-7 27-2 25 1 26 7 24 13 24 21 17 23 13 25 7 26 1 26-1 25-5 23-11 23-15 19-19 16-20 13-22 12-22 9-24 3-26 1-26-1-24-9-23-14-20-18-19-24-12-27-2-26 0-25 5"/>
<path d="M25089 27128l-23-9-20 17-15 20-12 22-12 26-9 29-1 29 4 28 7 26 14 22 20 18 24 15 27 11 26 7 29 2 24-1 30-4 28-10 26-13 22-17 17-23 8-23 2-29-10-26-11-22-15-19-19-18-20-14-24-11-28-11-29-8-28-1-27 5"/>
<path d="M25614 27040l-5 27-3 30 0 26 1 27 2 28 4 29 0 28 3 29 3 28 2 26 1 25 1 28 3 25"/>
<path d="M26001 27092l-24 5-18 20-14 23-8 27-8 24-5 27-3 28 1 27 6 27 7 25 8 25 12 22 18 25 20 20 21 14 23 8 30 4 30-3 29-6 24-12 21-13 19-16 19-22 18-25 13-28 3-25-3-26-12-28-13-28-14-27-19-22-20-18-21-14-26-15-27-9-26-9-29-4-15 20"/>
<path d="M26383 27425l 27-4 25 6 21 12 19 16-4 25-21 17-25 15-25 14-19 16 17 19 27-4 25-5 28-4 27-6 27-6"/>
<path d="M26696 27198l 27-2 28 3 25 4"/>
<path d="M26682 27269l 23-5 29-1 26 2 26 5"/>
<path d="M27165 27009l 2 28 2 30 1 27 1 28 2 30 2 32 4 33 2 31-1 31 2 31 1 28 2 26 3 27 4 25"/>
<path d="M27581 27106l 14-24 7-28 2-27-4-24-18-16-28-2-25 7-23 15-19 15-17 22-6 23 6 28 13 25 19 23 21 17 22 16 28 17 29 14 30 14 26 11 28 12 26 13 20 14 19 19 9 28-8 27-12 24-17 25-22 23-27 24-26 19-24 16-26 16-28 6-30-5-20-15-12-26-7-25-2-30 4-35 4-26 6-25 8-25 10-22 13-22 20-28 21-27 23-22 22-20 23-18 26-15 28-14 29-9 24-5"/>
<path d="M23912 28348l 5 28 7 28 4 25 4 30 2 25 1 28 0 28 2 28-1 26 0 26-2 31-1 27 0 24 2 27 0 24"/>
<path d="M24484 28407l-23-14-27 0-20 16-16 21-12 22-10 28-5 28-2 29 2 27 7 25 12 21 18 17 24 13 29 9 25 2 28-1 29-4 27-10 28-13 25-16 24-18 15-20 12-25 1-26-9-28-13-26-17-24-19-23-22-21-21-19-20-20"/>
<path d="M25147 28375l-24 3-27 11-20 13-21 21-11 26-3 29 1 24 2 27 6 24 8 23 13 22 20 23 26 18 23 11 26 6 26 2 25 0 28-5 29-8 27-12 23-15 20-23 13-24 10-23-3-27-10-29-9-23-13-22-18-20-24-17-22-15-28-15-23-13-26-9"/>
<path d="M25684 28370l-25-6-22 14-11 22-9 23-6 27-1 29 4 30 7 25 15 25 21 15 27 4 30-2 28-7 28-12 25-17 18-18 14-23 2-28-6-23-13-26-15-20-17-20-18-17-24-15-29-7-25 5 2 27"/>
<path d="M26174 28311l-24 11-11 23 2 30 6 28 7 28 7 31 6 25 3 31 2 29 1 28 1 28 0 27"/>
<path d="M26416 28573l 23 12 19 17 0 25-24 14-25 12-23 12 16 19 30-1 26-2 27-2 26 0"/>
<path d="M23897 29240l-25 5-20 14-15 20-13 23-7 27-2 29-1 29 5 26 10 24 13 20 18 18 23 13 28 6 32 0 28-5 29-10 29-14 28-16 26-17 24-19 16-18 14-24 7-24-5-27-13-28-16-23-23-21-22-19-23-14-25-11-24-6-24-2-25 5"/>
<path d="M24537 29204l-25 5-23 12-20 16-15 25-6 24-2 27 2 29 8 26 13 24 19 18 20 13 23 9 28 1 27-6 25-9 21-11 23-18 20-20 16-22 6-24-5-24-7-25-8-24-16-20-20-16-23-12-26-1"/>
<path d="M25210 29248l-26-8-27 0-26 4-22 16-16 24-11 28 0 26 3 27 9 23 15 25 18 17 25 10 27 6 30 0 24-3 24-7 23-11 24-12 25-18 15-20 8-28 1-26-7-26-13-27-18-24-19-19-22-12-25-7-25 0"/>
<path d="M25821 29185l-7 25 3 25 8 29 7 25 5 27 3 29 1 27 1 26-4 24"/>
<path d="M26272 29111l-6 25 2 27 6 28 5 23 5 29 6 29 3 24 2 25 2 29 4 28 3 26"/>
<path d="M26507 29360l 23 8 23 12 18 16-14 21-22 12 18 17 27 0 28 1 27 2 26 5 24 7"/>
<path d="M26991 28402l 26 0 26 1 28 0 28-1 27-1"/>
<path d="M27021 28466l 26-3 26-2 28-3 30-3"/>
<path d="M27522 28264l-9 23-2 29 0 29 0 25 0 27 2 28 1 28 2 31 3 30 4 29 2 25 3 28 2 26"/>
<path d="M27714 28258l 23-6 28-2 25 0 25 0 28 1 28 2 26 1 25 3 15 20-6 25-9 24-9 23-10 26-10 31-12 33-9 25-8 26-10 26-10 28-9 28-11 28-10 28-9 27-8 27-6 25-8 33-8 28-5 24-5 27"/>
<path d="M27158 29134l 25-6 24 0 28-1 24 0"/>
<path d="M27149 29204l 23 8 25-3 28-6 23-6 26-7 27-6"/>
<path d="M27624 29029l 27-6 28 1 30 3 28 3 30 4 25 5 23 9-3 26-24 14-23 12-27 12-31 10-29 10-28 9-25 11-18 19 24 14 29 1 27 0 29 2 31 2 25 3 28 3 29 4 28 5 25 6 23 10 25 14 20 17 13 24-2 26-11 28-15 25-19 26-19 18-22 17-24 17-25 15-25 15-26 12-25 11-26 7-27 4-27 1-25 0-28-2-25-2-26-3-23-6"/>
<path d="M23815 30646l-21 17-12 22-9 23-5 24-5 26-1 29 3 29 5 28 7 30 12 26 20 22 22 17 29 11 24 5 26 3 28 2 32 0 33-3 31-5 30-8 25-10 23-13 19-15 19-23 16-26 10-23 5-24-1-26-2-27-7-25-9-24-16-27-20-24-22-19-24-16-28-13-30-9-24-5-31-3-29 2-25 4-29 12-21 17-9 24"/>
<path d="M24502 30573l-5 26 2 26 0 24 0 29-1 28 1 29 0 25 1 24 0 25-3 27-1 25 0 25 0 24-2 24"/>
<path d="M25116 30559l-2 25 6 24 2 26 3 27 6 28 5 28 0 25-2 25 0 28-1 26 1 27"/>
<path d="M25620 30620l 12 21 8 27 6 24 4 27 4 29 4 29 3 27 5 24 7 27 4 25 8 23"/>
<path d="M26213 30549l-2 25 0 28-1 26 0 28 1 27 2 29 2 32 1 30 2 28 3 28 3 26 0 26"/>
<path d="M26479 30839l 23 12 21 14 12 21-15 19-18 17-18 16 22 12 25 3 28-1 24-3 28-3 26-2"/>
<path d="M23882 31458l 16 19 4 31 0 24-2 27-3 28-3 29-1 28-3 26-5 24-3 28 0 28 6 25"/>
<path d="M24410 31420l-24 6-15 22-9 26-1 26 1 31 4 28 12 25 17 22 24 15 24 9 25 4 27 1 26-2 27-6 27-9 27-13 24-18 22-19 22-19 15-20 12-26 2-27-10-26-16-25-18-25-25-18-22-10-28-10-25-5-30-1-24 9-13 24"/>
<path d="M25139 31370l 14 21 6 27 7 23 5 24 3 26 2 27 2 29 0 29 3 30 0 27 1 28 2 27"/>
<path d="M25696 31399l-4 26 2 29 2 27 2 29 6 27 1 28 3 24 2 27 3 25 6 24 12 22"/>
<path d="M26276 31396l-2 26-1 26-1 29 3 28 3 28 7 27 2 28 2 25 6 27 0 24"/>
<path d="M26541 31594l 24 11 28 8 27 8 24 12-11 22-22 11-20 14-14 19 21 12 25 6 26 3 25-1 28-3 26-2"/>
<path d="M23941 32197l-1 24 3 25 4 24 2 27 1 29 0 33-1 35-1 35-2 32 0 32-2 30-3 28-3 26-3 30-2 27-2 24"/>
<path d="M24559 32220l-5 25 0 26 0 25 3 30 4 30 2 31 3 25 4 28 2 26-2 27 0 27-3 26-3 25"/>
<path d="M25072 32273l-24 14-15 20-14 25-8 29 0 28 9 27 16 24 19 21 21 16 25 13 27 5 30-2 29-5 28-9 27-17 25-21 16-23 6-28 2-31-2-25-9-25-15-23-22-21-20-20-20-16-21-13-27-7-26-1-24 4-22 13-14 22"/>
<path d="M25711 32158l-12 23 7 26 8 28 7 28 8 29 8 28 4 28 3 27 1 25 2 25-3 26-3 24"/>
<path d="M26318 32135l-11 23 0 26 4 27 5 30 4 24 4 31 3 30 0 24 0 25-1 25-2 30 1 25 1 26 4 25"/>
<path d="M26585 32424l 24 6 24 4 24 10 4 24-19 15-21 19-18 17-13 22 25 5 26-4 24-1 25-2 26 3"/>
<path d="M23885 33153l 0 27 0 30-1 30 1 27 3 25 2 27 1 27 2 28 0 25-1 24-4 31-4 25-2 28"/>
<path d="M24494 33148l 1 27 4 25 6 25 5 28 2 24 3 26 0 27-3 28-2 27-3 27-3 26 5 27"/>
<path d="M25255 33109l-1 28 1 24 2 32 1 25-2 26 1 30 2 24-1 27-1 25 1 29 2 25-1 25"/>
<path d="M25779 33172l-27 1-21 13-17 20-10 22-6 25-3 24 4 26 6 24 9 25 14 19 20 18 23 11 28 0 24-6 24-10 27-15 22-14 19-18 19-22 12-25 6-28-2-26-9-28-20-22-26-19-24-15-23-12-27-7-27 0-28 6-20 13"/>
<path d="M26339 32998l 14 23 5 26 2 32 2 25 7 26 3 24 2 26-1 25-1 26 1 30 2 28-1 26-3 26"/>
<path d="M26697 33291l 26-3 26 1 23 7 22 12-8 22-18 19-20 18-21 16-19 16-17 17 8 24 27 2 24-2 26-4 26-2"/>
<path d="M14057 33384l-6 25-3 30-2 32 0 27 0 29 1 30 2 31 1 32 2 31 3 32 2 30 2 27 3 27 3 31 4 27 5 24 10 22"/>
<path d="M14512 33387l 4 24 7 28 8 28 6 25 6 24 6 26 6 28 5 31 4 31 4 31 4 31 4 31 5 29 4 28 5 29 5 24 7 24"/>
<path d="M15034 33376l 3 29 2 29 3 28 2 30 1 24 3 25 1 27 2 26 3 27 1 26 1 27 1 25 3 26 2 26 3 28 2 26 3 24"/>
<path d="M15622 33386l-1 29 1 30 0 27 0 30 0 32 1 32 0 33 1 32 0 29 3 28 1 25 2 24 3 29 2 29 1 26"/>
<path d="M16745 33782l 23-10 25 6 16 19 10 24-1 25-13 25-18 19-21 17-23 14-21 11-22 11 24-8 24-5 26-3 24 3 24 2"/>
<path d="M17018 33510l 24-2 25-2 26-3"/>
<path d="M17022 33588l 25-11 26-1"/>
<path d="M14096 34692l-10 22-3 29 0 26 1 29-1 27 0 29 2 31 1 32 1 29 1 28 3 26 6 23"/>
<path d="M14561 34663l-23 9-16 18-14 25-13 27-8 26-9 28-5 25 0 28 7 23 12 21 18 18 22 13 24 9 25 4 25-6 22-16 17-20 15-27 9-24 9-23 6-24 4-29-4-24-9-22-16-20-21-19-22-8-25-3-26 7-16 20"/>
<path d="M15038 34702l-7 24 8 26 5 26 4 29 3 24 3 24 4 29 3 26 1 28 1 25 4 25"/>
<path d="M15590 34672l-12 22-4 27-1 31 1 25 2 25 2 29 1 29 0 24-1 29-2 28-3 26 9 24"/>
<path d="M16063 34669l 13 23 7 28 3 25 2 27 0 32 0 25-1 24-1 25-1 30 0 28 1 26 4 27"/>
<path d="M16564 34644l-1 26 0 24 3 24 1 27 1 26 3 27 3 25 2 29 4 24 5 25 8 23"/>
<path d="M14619 35394l 7 23 4 28 4 26 3 25 2 28 3 32 1 24 0 25 0 26-1 32 0 24 0 29 4 25 9 23"/>
<path d="M14058 35514l-23 11-16 19-11 24-5 26 0 28 4 25 7 29 8 24 9 22 16 23 17 19 21 16 28 8 25 0 23-8 25-15 24-22 19-22 18-27 13-29 9-30 5-26 1-31-6-28-15-28-17-18-21-16-21-14-28-14-26-5-25 0-26 4-24 10-23 16-15 23 0 26"/>
<path d="M16079 35393l 9 23 5 30 4 29 2 26 2 27 1 29 2 27 0 27 1 29 1 33-2 30-2 25-1 25 1 26"/>
<path d="M16661 35347l-1 25 3 29 1 30 1 30 1 31 0 32 0 25 0 27 1 29 1 28 1 28 0 26"/>
<path d="M14144 36205l 5 26 1 25 0 29-1 26 0 28-1 30-2 31-3 31-2 28-2 28 0 32 0 24 5 27"/>
<path d="M14567 36211l-5 25 1 28 6 29 4 26 6 27 5 31 6 31 5 33 5 30 6 28 6 24 7 28 8 25"/>
<path d="M15147 36165l-5 27-4 29-3 30-2 28-3 31-2 33 0 36 1 33 3 29 6 31 8 23"/>
<path d="M15633 36199l 6 26 9 27 8 24 9 27 5 28 5 25 0 25-2 29-4 28-3 25"/>
<path d="M14160 36998l 4 24 3 25 2 25 2 28 3 34 3 32 1 33 2 31 2 29 1 28 4 24 6 28 14 23"/>
<path d="M14628 36990l-9 26 1 25 7 25 9 29 7 30 5 31 3 32 3 33 2 33 2 29 1 25 2 27 5 24"/>
<path d="M15156 36902l 5 26 8 26 8 23 6 28 5 31 3 24 1 25 3 25 3 27 2 25 2 29 2 25 6 24"/>
<path d="M15679 36867l 5 24 6 25 6 26 6 29 4 31 2 25 0 29 0 28-2 26-1 33 1 24 3 24"/>
<path d="M16075 33444l-5-24-1-24-25-6-21 19-17 23-13 21-10 24-9 28-6 24-4 29 0 30 6 26 11 25 14 23 19 17 23 13 25 12 27 5 25 2 26-2 25-6 23-9 23-14 19-23 9-26 7-30 4-26-1-29-5-29-10-28-13-28-13-25-19-22-19-18-22-16-25-12-25-7-30 0-27 6-18 16 4 26"/>
<path d="M16399 33392l-16 22-10 26-4 28-1 25 2 28 6 29 9 28 13 25 15 21 19 21 23 12 27 2 24-6 26-14 19-15 18-20 17-24 12-24 8-25 2-24-5-26-9-25-14-25-21-22-23-20-23-14-23-10-27-6-26 2-25 8"/>
<path d="M16136 36218l-23 8-18 19-14 25-9 25-5 28-1 25 3 26 6 24 12 23 16 19 19 14 25 9 26 5 25 0 28-7 23-12 20-19 17-23 15-28 10-25 7-24 6-27 1-25-6-29-16-25-18-16-27-11-31-8-29-1-28 6-25 6-23 13-17 19-15 22"/>
<path d="M16591 36174l-19 15-17 20-14 22-11 25-6 27-3 30 3 28 6 24 13 23 19 21 22 15 26 11 29 9 31 3 29-1 25-8 25-14 24-19 14-21 14-24 10-28 9-28 7-29 1-28-4-26-9-24-15-21-17-20-19-18-21-13-23-12-24-7-31-5-29 3-27 6-24 15-18 16-18 20"/>
<path d="M16169 36906l-24 11-16 19-12 22-10 27-8 32-6 26-5 29-1 26 2 27 3 31 8 23 16 22 21 15 27 12 31 4 24-5 25-7 26-11 29-14 25-18 21-23 22-25 19-25 16-24 11-26 6-25 2-28-7-23-17-23-24-18-28-12-24-6-24-3-30 1-30 3-29 6-22 10-21 12"/>
<path d="M16700 36886l-25 8-16 22-10 24-7 24-6 29-4 28-1 26 2 28 3 24 10 29 13 27 13 24 26 17 24 9 24 6 27 1 28-6 29-11 27-13 19-14 17-20 15-22 10-24 8-24 6-25 5-27 0-24-4-24-8-25-12-24-17-23-18-21-19-17-25-17-25-10-23-7-25 3-27 5-23 16"/>
<path d="M14167 38730l-17 18-14 20-13 24-11 24-8 26-4 27 0 28 1 28 5 28 9 28 13 24 16 22 19 15 24 12 25 8 25 4 25 1 28-2 24-10 25-17 20-18 15-20 13-25 13-25 10-28 8-28 7-27 1-30-6-30-11-22-16-23-21-17-22-13-22-13-23-9-23-10-28-6-25 1-25 7-19 17-7 27"/>
<path d="M14776 38696l-7 24-3 27 1 30 2 28 3 30 2 29 3 28 1 29 3 29 1 27 0 25 1 29 3 26"/>
<path d="M15202 38683l 6 23 4 31 1 30-1 24 1 25 0 25 2 31 1 28 0 28 1 27 1 29 1 24"/>
<path d="M15574 38655l 10 23 4 27 4 27 2 31 1 31 0 25-1 24-1 32-2 31-2 24-1 24-1 25-2 27 3 26"/>
<path d="M16068 38665l-3 27 4 25 3 27 1 26 3 28 0 28 0 29 0 30-1 30-3 28-4 24 0 24"/>
<path d="M16733 38643l-4 25 2 26 1 27 0 27 1 26 1 27 0 28 0 28-1 26 2 24 1 28 2 25 0 25"/>
<path d="M14246 39474l 2 26 0 27 0 31 0 28 0 30-1 32-2 34 0 33 1 30 2 27 7 25"/>
<path d="M14660 39459l-20 18-10 25-5 24-2 26 1 30 4 24 6 23 11 31 10 22 16 22 22 17 24 8 27-2 25-9 25-13 22-17 22-20 20-24 13-23 12-28 6-27-3-28-9-27-19-25-25-19-25-13-25-9-25-4-28 1-23 7-18 18"/>
<path d="M15281 39414l 0 24 3 26 3 28 5 24 3 24 2 28 1 24 3 25 3 27 2 26 2 26"/>
<path d="M15695 39368l-9 23 0 28 1 28 3 29 5 32 5 25 6 25 5 30 4 28 4 28 6 25"/>
<path d="M16220 39349l-10 23-1 27 3 28 3 27 2 25 1 31-1 32 0 31 2 29 6 24"/>
<path d="M16795 39286l-5 25 0 28 3 29 1 26 1 28 0 28 0 30-1 28-1 26-1 27-1 28 1 25 3 26"/>
<path d="M14310 40200l-11 25-1 28-2 24-1 25-2 28-1 31-2 32-1 33-3 35-2 32 0 30 2 25 5 24"/>
<path d="M14811 40194l-3 24-2 27-1 27 0 30 1 31 0 25 0 26 1 27 0 27 2 25 3 27 7 26"/>
<path d="M15247 40194l-24 11-16 25-8 27-6 26-1 28 0 30 7 29 10 28 17 22 21 19 24 13 27 6 29 0 31-3 30-10 23-9 20-13 19-16 17-26 8-25 7-23 2-31-7-29-13-27-21-25-20-16-26-12-27-4-28-2-25 3"/>
<path d="M15849 40137l-2 25 1 29 2 28 1 26 2 27 1 26 1 30-1 29-1 25 4 25"/>
<path d="M16377 40112l-4 27 3 25 6 24 4 24 4 32 2 26 1 28 1 28 0 30 0 28-1 31-2 24 6 26"/>
<path d="M16984 39988l-1 26-1 26-2 24-2 26-2 29-1 31-2 31-1 31 0 25 1 24 1 30 2 30 5 25 9 24"/>
<path d="M14284 41071l-4 24-1 26 1 30 1 24 1 26 1 28 2 27 0 27 1 29 1 26 2 28 6 28 16 20"/>
<path d="M14815 41060l 8 24 10 22 10 27 7 28 5 31 3 25 2 26 1 26 0 26 0 26 0 29 1 25 1 27"/>
<path d="M15377 41027l-8 25-2 29 0 24 1 25 0 28 1 31 1 25 1 25 3 29 4 26"/>
<path d="M15734 41028l-6 25-2 29 0 27 0 30 3 26 6 29 9 29 13 25 15 22 18 19 19 15 27 12 29 4 26-1 23-9 21-15 19-22 11-25 8-26-1-25-4-27-8-27-6-25-9-23-11-25-13-20-15-20-21-12-25-1-28 7-24 12-22 12-21 15-20 16-18 17-17 22-11 24"/>
<path d="M16374 40959l 16 19 4 26 4 27 1 33 1 31 1 24 0 24-2 27-1 27-2 29-3 28-2 31 1 27"/>
<path d="M17020 40879l-8 24-1 25 0 27 1 28 3 32 3 33 2 24 2 25 4 30 4 31 4 26 1 24-1 25"/>
<path d="M15130 35435l-24-5-25 7-20 19-11 25-9 27-6 25-6 25-5 28-2 26 2 31 8 28 13 22 20 19 23 12 28 0 27-6 26-13 24-16 20-19 16-24 12-28 7-29 3-30-2-28-8-24-12-22-19-20-22-16-25-13-28-8-26-3-24 6"/>
<path d="M15637 35430l-22-11-26 0-19 16-14 26-9 26-9 31-7 26-5 26-3 26 3 26 6 29 10 26 12 21 19 21 23 12 26 3 29-3 23-8 24-14 25-18 20-22 17-24 13-26 9-29 6-27 0-25-9-28-15-25-17-20-22-20-24-17-26-13-27-9-28-3-24 7-16 20"/>
<path d="M17198 34706l 26-2 27-5 24-4 24-1"/>
<path d="M17224 34790l 22-11 23-9 25-5 28-7"/>
<path d="M17320 35462l 26-3 24-9"/>
<path d="M17305 35543l 23-6 25-3 25-7 24-6"/>
<path d="M17518 33391l-20 15-16 25-14 27-14 34-9 24-7 26-8 28-6 29-4 30-2 31 1 31 2 29 5 27 6 25 9 23 15 30 17 23 21 18 22 11 23 6 26-1 28-6 28-9 27-14 23-18 18-21 13-22 9-28-4-29-20-19-27-9-25-5-26 1-27 2-26 6-30 11-25 13-22 15-20 21-13 24 4 24"/>
<path d="M17876 33481l-24 4-14 25-10 29-7 25-6 29-3 30-1 28 3 25 9 28 14 22 19 16 25 14 29 11 24 5 24 2 25 0 30-6 24-7 22-10 21-12 21-21 11-24 2-27-9-31-14-24-18-22-25-21-25-20-27-16-26-17-28-14-23-12-26-11-25-9"/>
<path d="M17596 34504l-19 19-11 21-14 27-9 22-11 25-8 26-9 24-8 24-6 26-2 25 14 22 25 1 26-7 27-8 23-9 23-9 26-9 26-9 27-9"/>
<path d="M17664 34571l-8 24 1 29 2 29 1 29 2 30 3 29 1 25 4 28 5 23 4 26 8 24"/>
<path d="M17941 34538l 24-9 26-5 26-1 27-4 27-7 24-9 24-8-2 24-6 25-7 27-8 23-10 28-9 28-6 27-7 24-8 26-7 28-7 25-3 25"/>
<path d="M17734 35168l-1 30 1 31 2 27 2 28 1 29 1 31 2 32 2 31 1 28 3 24 3 29 1 25 2 26 5 24"/>
<path d="M18144 35172l-4-25-6-27-8-22-19-17-28 0-26 10-20 14-15 22-14 27-9 23-9 24-6 24-5 31 0 30 6 28 17 17 26-3 23-11 24-15 22-22 18-23 17-22 14-24 12-23-8 23-3 31-1 25-1 26 0 28 1 28 0 31 3 30 1 29 3 28 3 24 6 31 4 25 5 25 7 23"/>
<path d="M17283 36243l 26-11 26-4"/>
<path d="M17326 36327l 27 4 28-6"/>
<path d="M17904 35970l-20 14-17 22-13 29-9 27-8 34-4 25-4 26-3 29-1 30-1 31 4 30 4 29 6 26 9 24 16 31 18 25 20 16 27 13 28 3 28-4 25-10 21-15 16-19 10-26-1-27-17-20-25-12-26-6-28-2-25 3-27 5-25 7-25 9-21 17"/>
<path d="M18209 36069l-26 7-19 23-16 28-10 28-8 31-5 34 1 32 3 33 7 30 12 27 14 21 24 17 26 9 27 3 27-4 29-9 22-14 21-19 19-22 16-24 13-25 12-26 6-26 2-25-2-25-8-24-14-20-15-19-18-17-23-18-23-11-24-6-28-1-26 10"/>
<path d="M17404 37016l 23-5 29-4 27-6"/>
<path d="M17429 37100l 28 1 27-3 32-6"/>
<path d="M17913 36806l-26 6-16 23-10 29-6 28-5 33-2 26-2 26-1 27 0 28 0 27 1 26 4 27 5 24 10 32 15 26 17 19 21 13 29 7 32-1 23-5 25-13 25-16 22-20 16-20 12-24 3-25-11-23-26-13-29-3-25 3-25 7-24 10-24 14-18 20-13 21 5 23"/>
<path d="M18266 36920l-23 6-16 22-9 30 0 25 3 27 8 29 10 30 13 30 15 27 17 24 20 17 22 12 29 7 31-4 26-9 24-9 21-13 19-22 11-26 7-27-2-29-9-30-14-20-15-21-19-18-22-17-24-15-24-12-29-12-25-3"/>
<path d="M17285 38666l 27-5 27-7 25-7 26-5"/>
<path d="M17279 38761l 22-11 23-9 25-5 28-8 27-6"/>
<path d="M17817 38527l 21-16 24-4 27-2 24-1 29 0 26 4 25 8 8 24-12 22-18 19-23 21-20 14-24 17-22 15 27 2 24-3 26-4 25-2 24 0 26 3 25 6 16 22-4 25-12 24-13 22-15 19-16 18-18 18-25 16-29 9-27 6-24-2-18-20"/>
<path d="M18313 38424l 1 28 6 27 3 30 2 24 2 26 3 26 3 26 3 24 3 25 3 28 2 26 2 25 2 27 1 24"/>
<path d="M17326 39407l 20 15 23 7 26-3 26-7 22-8 24-7 25-9"/>
<path d="M17363 39522l 21-11 23-10 26-5 25-5 26-5 24-6 28-6"/>
<path d="M17916 39150l-9 23-8 27-7 25-8 27-6 24-7 25-1 25 16 17 26 0 27-4 29-4 28-5 28-9 25-6 25-7 23-7 26-6"/>
<path d="M18012 39253l-5 24 1 26 4 27 8 26 6 25 9 27"/>
<path d="M18220 39152l 26-3 25 0 26-2 27-2 24-1 24-6 23-8 14 22-1 27-3 27-5 29-7 30-6 29-3 27-6 27-7 27-3 25-7 25-6 23"/>
<path d="M17401 40160l 21-14 24-12 25-9 24-7 24-3 24-3"/>
<path d="M17420 40241l 23-13 25-7 25-8 28-2"/>
<path d="M17824 39913l 26-7 26-4 27-4 26-4 27-4 27-8 24-5"/>
<path d="M17863 39916l-16 19-3 29-1 25-1 25 1 26 0 29 5 28 8 24 27 3 21-18 20-17 22-18 24-12 27-10 24-6 28 2 23 7 22 12 11 24-4 25-10 23-14 22-15 20-20 24-21 20-19 17-22 17-21 11-22 10-24 8-24 0-20-17-2-28"/>
<path d="M18282 39858l 27-6 24-4 29-5 25-4 24-4 26-4"/>
<path d="M18329 39871l-12 21-6 27-2 25 1 26 3 29 5 27 13 21 26 4 25-9 23-8 29-2 25 2 27 6 22 11 20 16 8 25-12 25-14 21-15 20-20 24-18 18-20 16-22 14-24 14-23 9-28 6"/>
<path d="M17467 41001l 27 2 26 0 26 4"/>
<path d="M17444 41123l 22-11 23-6 25-4"/>
<path d="M17858 40816l 23-14 27-9 25-7 25-7 24-5 27-4 26-6"/>
<path d="M17910 40825l-13 20-1 25-1 24 1 26 4 25 14 21 25-5 24-8 27-11 27-7 28-5 27-3 24-1 26 3 19 16 4 28-6 25-10 24-11 21-16 27-19 23-22 21-23 17-27 12-28 5-25 2-25-9"/>
<path d="M18485 40750l-7-26-21-13-25 0-21 15-18 16-19 18-15 20-14 27-12 27-9 24 7 25 25 2 25-12 26-9 23-18 18-16 19-17 20-16-4 26-1 24 0 26-1 28 2 28 3 26 1 28 3 28 0 26-3 24 0 27 3 24"/>
<path d="M21998 34828l 14 21 0 24-3 30-3 32-3 29-1 31-3 33 1 34-3 33-1 31-1 29 0 27 2 30 4 25 4 26 6 26"/>
<path d="M22474 34883l-25-1-23 18-12 21-10 29-9 23-8 24-8 26-3 26 0 25 1 28 11 26 16 20 20 18 26 12 27 5 31 1 30-3 31-6 25-8 28-14 23-19 21-21 19-24 12-27 5-30-4-32-5-24-8-24-7-24-10-22-18-25-18-22-22-17-26-11-25-3-27 3-25 10-19 16"/>
<path d="M23137 34816l-5 30-2 30-2 26-2 26-1 27-2 28 0 28 0 28 0 28 1 26 3 24 2 29 2 26 2 27 3 27"/>
<path d="M23472 34898l-8 23-14 25-8 26-8 29-4 32-1 26 0 25 2 27 10 22 19 19 26 9 24 3 28-2 26-6 30-8 29-10 28-12 22-13 20-17 16-18 11-24 0-30-8-29-13-24-16-24-20-22-22-22-22-19-23-16-21-15-23-13-28-12-27-5-27 2"/>
<path d="M22779 35620l-7 24-1 24-2 28 0 26 0 27 2 28 2 26 1 25 0 25 0 25"/>
<path d="M22866 35589l-3 27 0 28 1 25 2 29 5 30 6 28 6 29 5 30 3 28 6 28 6 25"/>
<path d="M22698 35848l 14 20 19 17 19 16 18 15 22 14 25 13 24 9 27-1 23-12 18-23 17-27 10-25 9-30 9-30 10-28 8-23 5-25-1-25"/>
<path d="M21911 36650l-20 13-12 22-9 23-9 23-6 24-3 30 1 29 4 28 6 25 11 24 17 19 22 13 28 6 28 1 28-4 27-8 26-10 23-16 19-16 18-22 12-22 4-25-1-24-6-27-12-26-16-22-15-21-19-19-24-10-27-9-25-4"/>
<path d="M22453 36650l-25-5-14 22-11 26-4 30 0 24 6 28 8 23 10 22 22 19 23 12 25 10 29 1 25-7 27-13 24-17 19-17 15-20 10-24 0-25-9-27-16-23-20-25-20-19-25-16-26-9-26-5-24 4"/>
<path d="M23048 36510l 2 25 3 27 1 24 0 25 1 24 1 26-4 25-1 25 2 25-2 26-2 25-2 28-1 26"/>
<path d="M23499 36530l 5 23 12 22 8 28 6 31 7 24 8 23 6 25 6 29 3 31 1 24 0 28-4 29-4 24-10 22"/>
<path d="M21932 37263l-9 27-2 31-3 26 0 28 0 31 0 32 0 33 3 31 2 31 1 28 2 26 2 31 2 24 3 25"/>
<path d="M22379 37409l-17 18-3 26 0 30 5 26 8 26 10 25 12 22 18 19 23 13 24 6 28 1 25-4 28-10 27-15 25-19 17-22 14-24 7-29-3-26-9-24-12-21-17-20-20-15-21-13-30-12-25-6-30-4-26 2-27 8-20 22"/>
<path d="M23038 37255l-3 25 0 28 1 27 1 29 5 30 3 28 2 26 4 26 3 26 2 28 2 28"/>
<path d="M23521 37228l 1 27-1 27-2 30 1 24 2 27 1 28 3 28 2 27 1 28 3 26 3 28 3 26-2 28 4 25"/>
<path d="M23049 37253l-23-7-16 21-10 23-9 24-7 25-6 26-2 27 2 27 5 25 9 24 15 26 16 22 18 16 24 8 27 4 29-1 27-6 27-11 20-16 18-20 16-21 12-24 8-23 4-25-2-29-7-30-12-30-11-24-16-26-16-21-20-17-25-15-26-7-25-1-24 7-21 15-24 17-17 19-13 21-10 22-2 27 9 25"/>
<path d="M26270 34670l-9 25-4 30-3 29 0 30 3 31 4 25 2 29 1 28 1 27 3 24 4 31 4 30 2 27 0 24 3 28 0 27 3 25"/>
<path d="M26822 34640l-2 27 0 28 2 26 3 30 0 30 0 24-2 25 1 27 5 24 1 31 2 26 4 29 4 26 6 26 9 25"/>
<path d="M27342 34636l 1 27 1 25 1 30-1 28-1 30-3 32-1 25 0 26-2 26-2 30-1 28 2 28-2 25"/>
<path d="M27777 34730l-23 8-16 19-11 21-9 29-2 28 5 29 6 27 8 25 19 22 21 15 22 13 24 12 24 10 26 6 26 5 26 2 33-1 25-6 25-8 26-17 19-25 13-27 5-29 0-25-6-27-10-28-14-26-19-29-20-27-21-25-21-22-20-16-28-14-31-5-29 4-29 10-22 14"/>
<path d="M26956 35575l-1 24-2 28-2 27-2 28-2 30 0 31-1 31 1 30 0 29 1 31 4 25"/>
<path d="M27088 35590l 7 27 4 28 6 31 5 26 5 27 5 25 4 26 5 26 4 26 5 30 4 25 2 25 5 23"/>
<path d="M26908 35897l-3 27 9 25 18 21 21 21 22 20 24 14 24 8 27 2 24-8 25-17 23-21 21-25 19-31 15-32 10-23 10-23 9-33 8-30 5-24 3-26"/>
<path d="M26144 36636l 2 24 0 31-3 28 0 24 0 26 2 26 1 27-1 25 1 24 4 29 2 28 3 25"/>
<path d="M26488 36678l-23 16-12 24-4 28 6 30 9 26 15 27 17 16 23 19 25 15 24 8 27 2 30-3 24-9 25-10 22-13 25-21 14-20 11-22 9-24 3-28-6-28-9-23-15-21-20-22-23-14-27-10-26-3-27 1-29 5-24 9-18 21-4 26"/>
<path d="M27159 36554l 14 21 0 25 0 29 0 30 0 31 0 25 1 31 2 25 3 32 5 28 4 25 3 25 11 24"/>
<path d="M27684 36531l 8 25 5 27-2 29 0 24 0 26 0 25-1 24 0 24-1 26-2 28 0 26 1 27-2 26 9 23"/>
<path d="M27746 37206l 5 27-5 26-5 28-3 29-3 28-2 27 0 25 1 28 1 27 3 25 0 24 3 24 2 26"/>
<path d="M26543 37327l 0 28-2 29-1 25 0 26 0 26 1 24 3 30 1 26 4 28 2 26 2 24"/>
<path d="M27101 37310l-25-8-18 19-17 20-14 25-13 27-9 27-4 26 2 28 11 23 15 20 24 10 24 6 29-5 28-7 25-12 25-16 20-19 15-21 14-20 8-24 4-26-3-28-9-27-14-25-18-20-20-15-24-5-26 5-28 11-26 16"/>
<path d="M26078 37362l-24 5-18 20-16 23-12 29-6 28-7 31 0 31 4 29 6 26 10 23 22 18 23 9 24 1 24-5 26-9 23-11 21-12 22-16 18-20 19-20 19-21 15-27 5-25 0-24-7-24-12-22-17-20-21-14-28-5-27 3-24 8-20 14"/>
<path d="M29846 34601l 19 23 6 26 5 31 4 25 4 25 1 26 2 28 2 29 1 28 1 27 1 26 1 29 6 26"/>
<path d="M30187 34572l 8 26 6 24 3 27 1 24 2 28 5 29 2 30 3 33 0 33 2 33 1 30 3 28 5 30 4 25"/>
<path d="M30639 34589l 7 26 2 26 2 28 0 25 0 26 1 27-1 28 0 29 0 29 2 26 2 24 3 28 2 29 5 25"/>
<path d="M31006 34598l 16 19 7 27 2 30 0 25 0 27 0 27 1 28 1 28 0 26 0 25-3 24-1 25-3 28-2 24"/>
<path d="M31522 34638l-20 18-14 22-11 27-8 30-4 24 2 27 7 25 9 23 14 20 18 17 24 18 27 10 26 3 28-4 28-8 34-13 28-16 25-19 18-21 14-22 10-31 0-29-9-30-14-22-17-21-23-20-25-16-27-12-28-10-27-4-28 0-28 7-26 11"/>
<path d="M30687 35437l-9 27 1 28 1 28 5 30 2 32 2 25 2 27 2 24 5 27 12 24"/>
<path d="M30878 35371l-13 23-4 28-1 26-2 28 3 31 6 25 3 26 0 26 3 27 3 26 7 30 9 23 8 24"/>
<path d="M30585 35680l 18 23 17 17 20 20 18 16 18 17 18 17 19 16 20 13 26 16 27 12 25 4 26-5 23-11 20-16 22-22 19-28 13-22 14-22 13-32 13-32 11-30 8-29 7-24 3-28"/>
<path d="M29698 36500l-17 21-6 26-4 27-2 24 2 25 4 30 9 27 12 22 17 18 24 14 27 10 27 3 24-9 22-15 17-17 14-24 13-29 10-22 8-31 2-30-1-29-3-27-8-23-15-19-18-20-25-13-22-9-28-3-24 4-20 17"/>
<path d="M30244 36390l 5 24 1 24 3 25 2 24 4 24 0 26-1 26 2 25 2 26 5 24 4 24 0 24"/>
<path d="M30682 36400l-5 24 0 28-3 25 0 28 2 28 2 28 2 27 0 26 0 25-1 25 5 25"/>
<path d="M31113 36374l-7 25 1 27 1 27 4 28 3 29 3 28 2 28 3 27 2 28-1 26 7 24"/>
<path d="M31618 36340l 0 25 5 27 4 26 5 29 3 26 2 28 4 26 4 25 4 25 2 25 0 27 0 25 3 28 2 28"/>
<path d="M29798 37163l-1-24 8 26 3 31 1 30 1 24 2 31 0 25 0 25 0 29 0 24 2 25 7 24"/>
<path d="M30159 37192l-18 17-12 26-7 24-2 25 3 27 8 28 15 24 18 19 22 15 25 6 28-1 30-7 26-14 22-19 18-23 16-28 6-27-3-27-11-26-19-22-22-19-23-13-28-8-25 0-19 15"/>
<path d="M30638 37129l 1 24 4 25 7 31 7 23 4 25 4 24 3 27 3 26 4 32 2 28 3 24 12 23"/>
<path d="M31093 37123l-11 24-1 24 4 28 5 29 5 26 3 29 3 24 4 30 5 25 1 24"/>
<path d="M31640 37050l-2 30 0 24 2 26 5 26 4 28 5 28 1 27 2 25 1 28 3 27"/>
<path d="M29785 37779l 17 20 5 23 6 30 2 28-3 29 0 31 0 29 0 30 1 30 2 26 3 30 6 24 13 23"/>
<path d="M30292 37826l-1 27 3 26 7 25 7 26 7 27 8 30 5 31 0 31 2 28 2 27 8 23"/>
<path d="M30651 37891l-17 17-9 25-7 25-3 25 6 29 11 22 18 23 23 14 24 5 29-2 29-8 23-13 24-16 20-17 20-23 14-20 8-26-10-27-19-19-23-14-26-12-26-7-29-3-27 5-20 14"/>
<path d="M31103 37761l-6 26 6 25 6 29 8 31 6 32 2 27 3 28 3 25 3 32 2 25 3 29 3 27"/>
<path d="M31640 37692l-2 27 0 28 0 28 1 25 2 28 1 28 0 27 0 27-1 27-1 25 0 24 1 28-2 27-2 27"/>
<path d="M29806 38534l 4 29 1 29 0 31 0 24 0 25 3 32-1 28 1 29 3 26 0 26 1 25"/>
<path d="M30298 38485l 2 27 7 30 5 26 6 26 7 30 2 26 2 30 0 28 1 26-1 25 2 25 2 28 10 24"/>
<path d="M30729 38493l-10 26-1 26 0 32 3 28 7 29 6 29 3 27 4 27 5 26 4 27 2 24 2 30"/>
<path d="M31125 38531l-17 19-4 24 0 27 4 31 6 31 10 26 14 24 16 19 26 14 24 6 24-1 27-6 24-10 22-15 22-19 22-21 14-23 6-25 2-28-11-23-21-24-19-18-21-15-22-12-23-9-28-6-27 0-24 6"/>
<path d="M31719 38403l-8 24 2 24 5 26 4 29-1 25 0 26 1 27 1 27 1 25-1 26 0 31 0 28 1 28 2 24"/>
<path d="M33486 29506l-14 22-3 26-3 32-6 34-1 34-1 32-1 34-1 32-2 33 0 32 0 31 4 28 2 25 4 30 5 26 6 23"/>
<path d="M33897 29646l-19-15-18 16-14 20-10 23-8 26-4 30 3 30 5 29 8 25 15 19 19 16 25 11 28 6 24 3 29 2 28-2 28-6 28-10 27-15 20-21 14-26 8-31 1-29-11-30-12-23-16-24-20-24-23-20-23-20-23-17-26-13-27-3-26 5-28 10-24 18-18 22"/>
<path d="M34527 29468l-5 26-2 24 1 27 1 27 3 25 2 26 2 30 1 25 2 29 3 28 1 28 2 26 1 24 2 25 2 25 4 25"/>
<path d="M35053 29456l 2 27-1 24 0 26 1 31 2 25 1 31 3 28 3 30-1 27 3 29 1 24-1 27 3 24-3 24"/>
<path d="M35524 29365l 8 23-5 25-3 25-1 26 1 24 2 25 3 25 1 28 3 26 2 27 0 26 3 25 1 25-1 27 2 27-2 26 2 26 0 24"/>
<path d="M35916 29504l-22 10-13 20-12 25-8 28-7 28-8 27-6 23-2 28 6 27 13 20 17 18 22 15 23 8 27 7 29 1 24-5 25-7 25-9 22-13 24-17 19-17 16-20 13-24 6-27 0-30-7-29-7-24-9-24-13-21-19-22-21-15-27-13-24-5-28-2-26 0-25 4-27 8-20 15-17 22"/>
<path d="M36308 29706l 24 4 24 8 22 13 22 11 13 21-10 24-15 19-22 16-22 13-23 13-22 15-21 14 23 12 27-8 26-7 29-9 24-8"/>
<path d="M36672 29559l 24-7 27-4 25-4"/>
<path d="M36660 29633l 25-11 27-9"/>
<path d="M37168 29312l 11 27-3 28-4 30-8 30-6 24-7 25-6 25-9 25-7 27-9 24-7 28 0 26 11 22 24 4 25 1 25-1 27-3 28-5 24-6 25-5 25-5 26-7 23-7"/>
<path d="M37284 29468l-5 25 0 26 5 26 4 24 5 25 4 25 4 30 3 31 4 28 3 24 5 27 8 23"/>
<path d="M37598 29387l-17 19-16 29-11 28-10 32-7 34-3 24-3 35 0 35 3 32 5 27 11 29 19 26 18 17 25 19 24 9 27 8 30 4 28 0 22-9 18-19 7-23 3-27-9-25-17-18-20-16-25-7-27-2-28 5-24 5-20 16"/>
<path d="M34119 31487l 0 25-1 27-3 28-1 28-2 30-1 24 0 26 0 26 0 26 1 24 3 28 3 28 3 28 7 25"/>
<path d="M34534 31518l-8 27-3 27-4 27-4 31-3 25 1 25 0 24 3 30 1 25 3 25 6 26 5 25"/>
<path d="M34971 31535l-6 23 0 28 5 28 5 26 1 26 2 27 4 27 2 26 2 26 2 28 4 28 6 27"/>
<path d="M35387 31465l 10 25 0 27 1 27 3 28 3 29 3 28 1 28 2 27 4 25 4 24 3 27 2 25 6 24 3 24"/>
<path d="M34053 32474l-23 11-13 22-9 27-5 27-3 27 2 27 7 24 14 24 19 17 22 11 25 3 30-3 27-9 27-15 26-19 19-16 18-19 18-25 14-25 7-28-7-26-13-23-15-20-19-18-23-17-23-13-26-8-24-1"/>
<path d="M34551 32407l 0 27 2 28 3 25 4 26 4 27 4 25 4 25 6 30 7 28 8 23 11 23 14 24"/>
<path d="M34871 32424l 11 21 2 27 1 24-1 27 0 27 1 28 0 28 1 26 2 28 3 28 5 27 9 26"/>
<path d="M35324 32337l-1 24 1 26 2 25 4 26 4 28 5 30 5 30 5 28 5 26 3 25 6 30 3 26 4 26-1 25-3 27"/>
<path d="M34157 33145l 0 27 0 29 0 26-2 29-2 28-1 28-1 28-2 28 0 24-1 26 4 28 23 8"/>
<path d="M34462 33224l-14 23-8 25-5 26-1 25 5 28 13 24 21 16 28 9 28 0 30-9 21-12 24-17 22-20 16-22 12-21 8-27 0-25-8-26-15-20-21-16-25-9-26-4-25 0-24 7-20 15"/>
<path d="M34907 33133l-12 22-1 25 5 29 6 30 5 30 5 31 4 32 5 27 8 26 10 22"/>
<path d="M35299 33056l-3 27 5 28 6 31 5 26 4 30 3 31 0 30 0 30 0 28-1 28 0 25 4 26"/>
<path d="M34200 33781l-8 27-3 28-3 24 0 25 0 26 0 28 0 28 1 28 1 25 3 29 7 26 17 17"/>
<path d="M34534 33798l 4 27 1 28 3 25 6 28 6 27 10 25 7 25 9 29 11 22 16 18"/>
<path d="M34879 33761l 0 27 5 28 4 28 5 25 5 26 4 29 4 31 3 28 1 24 5 26"/>
<path d="M35268 33775l-20 14-13 25-6 25-1 30 4 30 8 24 8 25 12 23 17 24 24 15 31 3 24-5 25-9 23-13 27-16 23-21 21-22 16-21 13-26 6-23 0-28-14-21-19-18-22-15-25-14-28-7-28-2-29 3-32 9-31 13-28 18-28 21-26 23"/>
<path d="M34029 34412l 7 25 6 30 4 29 3 25 5 27 4 28 2 29-1 30 1 30 3 28 4 24 8 25 18 20"/>
<path d="M34622 34333l-11 24-3 27 1 27 2 24 2 27 2 28 2 29 3 29 0 30 2 29 2 30 1 30 0 28-1 25 0 26 1 26"/>
<path d="M34951 34409l-3 25 1 24 2 29 2 32 0 26 0 26 3 27 2 27 2 27 2 26 3 31 3 27 7 28"/>
<path d="M35451 34363l 1 28 1 28 1 31 2 24 0 31 3 31 4 30 2 30-2 32 0 30-1 28-6 27-3 24-1 27-1 25"/>
<path d="M14028 43206l 23-13 24-5 26-1 27 4 27 5 23 10 23 16 16 21 5 27-7 29-14 26-14 20-15 22-17 22-19 21-19 20-20 18-18 19-21 22-17 19-15 20-6 23 22 13 28 3 31 0 24 0 28-3 28 0 25 0 26 1 25 5"/>
<path d="M14455 43122l 26-8 28-8 26-7 25-7 25-9 26-5 24 1 21 12 4 26-1 28-4 24-7 28-9 33-7 24-7 25-8 26-7 26-9 28-7 27-7 25-7 24-7 30-5 28-4 24-4 25-3 24"/>
<path d="M14874 43269l 25-10 27-6 28-5"/>
<path d="M14870 43332l 27-5 24-3 28-3 27-4"/>
<path d="M15336 43051l-5 26 0 30 0 24 1 27 2 29 4 29 4 32 5 32 5 35 5 34 5 31 4 32 4 27 5 30 2 25 2 25"/>
<path d="M15808 43135l 2 27 0 29 3 27 6 27 4 28 5 26 5 25 5 28 3 25 0 27-1 26"/>
<path d="M16231 43162l-24-8-21 17-11 25-10 26-7 24-6 26-3 26-1 25 1 26 4 24 7 25 11 28 17 22 20 20 23 14 26 10 26 6 25 0 29-7 23-9 23-12 21-16 22-16 16-18 16-19 15-22 12-21 10-23 3-26 1-27-2-29-6-27-11-23-14-20-22-22-21-13-27-15-26-10-25-6-25-4-29 1-24 6"/>
<path d="M16786 43054l-3 29-1 32 0 25 0 27 0 26 1 27 2 26 1 25 2 31 2 29 3 27 4 29 0 25"/>
<path d="M17175 43007l 9 24 3 28 3 28 2 24 2 24 1 25 1 25 2 25 4 31 4 30 2 28 3 26 3 27 2 25"/>
<path d="M17452 43385l 23 5 22 14 16 20-3 25-19 15-22 11-24 15-20 12 19 16 25-1 25 1 25 5"/>
<path d="M15363 44361l-17-18-21 13-19 19-11 25-10 25-8 28-6 29-2 27 6 28 15 22 18 19 19 18 23 13 24 10 28 7 25 2 28 0 28-4 26-8 27-10 23-13 20-18 17-20 15-21 13-24 8-25 4-29-4-28-6-26-9-27-13-26-14-21-17-20-22-11-25-10-25-6-26 6-28 4-23 13-18 19"/>
<path d="M15878 44278l-7 27 1 25 1 31-3 30 1 26 2 25 2 31 3 30 4 29 4 25 3 26 0 27"/>
<path d="M16317 44211l-4 25-1 26 0 26 0 29 0 31-1 24-3 29-1 28 2 29-1 25-2 26 0 27 0 24"/>
<path d="M16696 44211l-21-13-18 20-10 22-9 26-9 28-5 31-1 30 1 26 8 25 13 25 17 20 20 14 23 10 27 6 30-2 24-7 26-14 20-16 19-17 18-20 17-27 13-27 3-28-2-26-9-28-15-26-16-23-16-20-18-18-24-15-24-11-25-1"/>
<path d="M17223 44202l-21 16-9 23-9 27-5 29-1 26 1 26 7 29 10 28 15 20 20 16 23 10 25 5 29-4 23-9 28-13 19-17 15-21 15-24 7-25 0-28-6-24-10-28-14-26-17-19-22-14-22-13-24-9-27 1-25 10-17 16"/>
<path d="M15402 45102l-3 28-2 29-2 29 1 34 0 32 1 31-1 28 1 28 0 25 0 25 1 28 1 27 1 26 0 31 0 24 1 25 24-14"/>
<path d="M15856 45220l-20-15-11 23-9 25-5 24-3 28 0 27 5 30 7 24 13 23 18 20 23 16 27 11 28 6 30 2 27-7 28-11 22-14 21-17 17-19 13-27 10-29 4-29-1-28-5-26-15-26-22-22-22-17-24-14-28-11-25-5-29 0-24 5-24 6-21 11"/>
<path d="M16324 45129l-8 25 3 30 2 31 1 25 4 33 3 32 3 27 4 26 3 31 4 26 3 24 1 24"/>
<path d="M16769 45080l 6 25 0 29 2 26 2 25 1 28 2 27 3 24 2 24 4 26 1 25 2 26 7 23"/>
<path d="M17350 44979l 0 25 0 25 1 25 1 28 0 29 0 26 2 25 2 29 2 25 1 24 1 27 2 28 2 24 3 25 3 26 6 24"/>
<path d="M17647 45448l 25 0 23 11 12 22-12 22-18 17-13 21 11 21 24-5 23-5 24-6"/>
<path d="M14075 44304l 10 24 1 27 1 28 1 32 1 24 0 29 1 34 0 32 1 31 1 28 0 28 1 26 1 30-2 27-1 26"/>
<path d="M14312 44371l 23-12 26-3 27 0 26 6 23 13 20 17 12 24-2 30-8 24-16 27-15 22-18 24-18 22-19 20-17 19-22 21-18 19-18 20-8 24 24 5 27-5 25-10 27-11 30-10 25-9 26-10"/>
<path d="M14714 44387l 24-8 25-2 27-4 25-3 25-3"/>
<path d="M14720 44489l 27-5 29-4 25-5 25-4 28-2"/>
<path d="M14669 45335l 21-14 25-6 26-5 24-3"/>
<path d="M14699 45419l 19-15 26-9 24-6 27-4"/>
<path d="M13851 45294l 23-11 24 9 15 19 10 24 1 26-6 25-10 27-12 25-17 28-13 20-17 27-18 25-18 23-17 23-14 23 5 24 25-5 24-9 28-12 22-11 22-11 23-10 23-11"/>
<path d="M14165 45276l 10-23 25-6 29-1 28 1 24 3 19 15-11 22-16 19-21 18-23 22-22 19-19 18 23 7 27-6 31-1 26 3 28 5 26 7 22 13 14 22 1 27-8 23-14 20-18 23-18 16-24 17-25 9-23 6-27 3-19-16"/>
</svg>
