<svg xmlns="http://www.w3.org/2000/svg" viewBox="1561 2056 15270 10874" stroke="black" stroke-width="16" stroke-linecap="round" stroke-linejoin="round" fill="none" data-xena="0 0 0"><style>@media(prefers-color-scheme:dark){svg{background-color:black;stroke:white;}}</style>
<path d="M1747 2262l 8-25 16-18 26 1 18 16 11 24 4 26 1 28 0 29-4 24-5 26-8 27-9 28-13 25-15 25-16 20-6-23 2-27 4-33 5-25 8-34 9-33 11-31 13-31 13-30 14-27 15-23 16-19 20-15 23-8 25 8 18 24 8 31 1 29-4 32-6 34-8 34-9 31-10 31-9 28-6 25-6 25 13-31 12-34 9-25 11-25 11-25 11-26 11-24 11-22 15-27 14-23 15-22 20-17 22 11 3 28-1 24-3 24-2 27-3 26-3 26-2 24 0 30 3 26 7 24"/>
<path d="M2336 2243l-24-8-24-2-23 11-22 16-21 22-15 20-16 22-15 24-12 23-9 28-1 27 15 22 25 1 24-13 20-17 19-19 17-19 16-20 13-21-17 21-2 27 7 24 20 15 25-8 21-16"/>
<path d="M2430 2262l 16 20 17 18 19 16 16 18 18 20 19 16 22 12 28 2"/>
<path d="M2552 2222l-23 19-17 18-17 21-16 23-17 25-17 25-15 25-14 26-11 26-9 25"/>
<path d="M2777 2310l 22-12 25-5 24-3 28-6 24-6 26-4"/>
<path d="M3072 2321l 8 27 8 24 7 23 5 27 3 24 0 25-14-20 1-25 4-29 6-31 7-30 7-26 9-26 13-24 17-19 27-9 28-6 25-2 25-2 28-1 24 4"/>
<path d="M1664 3509l 22-17 20-16 23-22 21-17 22-20 24-24 23-26 16-18 16-20 17-21 16-23 16-24 15-25 14-26 12-26 11-26 9-25 7-27 6-26 3-25 1-32-3-25-11-24-24-10-21 11-17 23-15 29-9 24-10 26-11 28-10 28-10 31-9 31-7 30-6 33-5 31-4 33-3 32-1 30 1 30 3 27 3 25 5 24 9 33 11 28 14 21 18 20 22 9 26-6 20-20 9-24 0-27-7-29-12-27-16-26-17-22-14-21-20-16-4 26"/>
<path d="M2032 3432l 25 5 18-17 6-24-23-8-25 5-19 19-12 22-9 27 0 28 8 26 14 22 26 11 28 0 27-9 22-16 21-21 19-23 16-23 12-26 5-25 0-25-4-26-18 18-4 27 9 23 19 20 22 18 18 19 16 19 9 25-13 20-26 7-24 1-26-3 27-10 28-9 25-10 27-9 27-11"/>
<path d="M2413 3149l 0 28-1 25-1 26 0 29-2 24-1 24-1 24-3 32-2 24-5 32-4 30-3 29 0 24 3 28 18 15 29-6 23-12 23-15 25-19 19-16"/>
<path d="M2330 3355l 28-2 27-3 31-5 27-4"/>
<path d="M2698 3410l 22-11 25-4"/>
<path d="M3001 3314l-26 2-22 10-21 15-19 15-19 18 22 13 27-6 26-2 24 5 26 6 24 12 10 23-16 21-24 16-23 14-25 12-24 8-28 5-26-1-22-12 8-27"/>
<path d="M3133 3361l-5 26-1 25-2 25-4 31-4 26-3 28-4 27-4 26-4 26-4 25-5 30-5 25-3 25"/>
<path d="M3127 3334l 21-13 25-1 29 1 25 2 25 9 23 13 8 24-8 24-18 22-21 17-22 15-23 10-25 10-23-11"/>
<path d="M3423 3336l 27-7 23-9 25-11 23-13 20-15 2-25-25-8-26 6-23 13-21 17-17 16-19 23-14 23-8 24 5 27 17 22 23 9 24 6 28 0 29-2 30-5 28-8"/>
<path d="M3706 3317l-24 9-20 16-17 19-16 23-9 22 0 26 18 19 23 11 25 5 29 0 25-3"/>
<path d="M1784 4330l 26 10 28-12 22-14 25-19 20-14 21-18 24-19 25-21 25-23 24-24 22-24 21-25 19-25 18-23 14-24 12-23 10-22 9-31 4-28-3-29-9-26-18-18-25 1-22 17-16 20-15 28-13 24-11 26-12 31-14 32-11 34-11 36-12 36-8 35-7 35-4 33 0 31 1 28 5 25 9 33 16 27 17 18 24 15 25 3 27-8 25-16 16-19 13-22 9-25 4-25-2-31-8-27-13-26-18-22-19-15-25-3"/>
<path d="M2218 4253l 23-7 16-19-22-12-26 5-19 16-17 23-10 24-3 27 6 26 16 22 25 13 27 5 26-3 31-9 25-10 24-13 25-19 20-21 18-23 11-25-1-26-8-22-24-2-8 23 0 28 10 23 15 20 18 18 22 14 22 13-22 16-24 0-25 0-24 8 15 19 25-2 28-7 29-9 23-11 23-13 23-14"/>
<path d="M2596 4032l-15 19-5 25-1 26-1 29-2 26-3 28-2 30-3 32-3 31-3 30-1 28 2 28 7 24 16 23 26 7 24-5 22-12 23-18"/>
<path d="M2508 4227l 24-8 29-9 26-7 28-8 29-7 32-8 31-6"/>
<path d="M2777 4241l 27 2 25 2 24 0 25-1 25-1"/>
<path d="M3170 4278l-23 8-20 16-15 23 0 26 16 20 24 14 26 2 27-8 27-12 20-14 13-20-1-26-16-18-23-13-24-9 17-21"/>
<path d="M3367 4098l 15-26 12-22 9-25 4-25-23 9-11 22-10 28-5 24-6 26-6 29-6 31-3 31-1 32 0 28 1 27 7 28 8 23 15 19 25 11 27-2 28-10 21-16 14-24 0-29-16-22-25-16-23-12-25-14-24-11-24-10-28-10-29-2-26 1 29-4 30-7 24-7 24-8 26-9 28-10 29-12 26-13 25-15 22-16 19-19 19-23 9-26-1-26-8-28-14-21-22 14-12 27-9 29-4 26-4 28-3 31-2 37-2 24-1 26 0 26 0 24 1 25 2 24 3 31 4 27 8 29 11 21 23-15 15-25 11-24 11-24 9-24 10-23 11-27 13-21 18-16 10 24-4 28-3 25-3 26 3 24 13 22 28 5 26-8 24-11"/>
<path d="M3813 4238l-23 6 24 1 26-9 26-11 23-13 19-16-11-24-25-4-24 8-21 17-19 23-13 20-13 27-7 27 6 26 21 15 27 2 29-8 22-10 25-10 28-15 28-15 23-14"/>
<path d="M4029 4166l-25-1 21 12 22 10 21 15 14 21-14 22-20 16-17 19-10 24 10 23 22 14 25 4 28-3 28-6 23-9"/>
<path d="M4946 3003l-24-6-21 20-16 22-22 28-15 22-17 23-18 27-17 27-17 28-15 29-13 28-12 25-7 26-7 24-4 25-4 34 1 31 5 26 9 28 15 22 17 17 20 14 23 9 24 6"/>
<path d="M4980 3476l 24-11 18-21 14-21 15-24 12-23 9-26 6-24 5-25 24-7 24 7 26 9 24 11 22 10 23 12-4 25-21 19-18 16-17 18-13 20 14 21 27 3"/>
<path d="M5421 3402l-12-22-23-11-28 0-28 6-24 11-19 15-16 21-4 24 21 14 26-3 28-11 23-10 25-11 15 19 25 2 26 1 24-8 21-14 10-23-18 16-8 24 26-9 21-17 20-16 24 4 6 26 13 23 21 13 28 3 23-6 25-13 26-13 23-17 21-17 14-20 0-25-23-14-24 5-22 13-19 18-16 20 2 26 20 15 22 9 25 3 25 4 20 16 11 24 6 25 5 26 3 28-1 31-4 25-9 27-9 27-10 28-14 27-17 28-18 25-18 19-22 17-25 5-21-11-14-24-5-27-2-32 1-25 2-28 6-28 7-29 9-28 10-23 9-22 16-29 17-26 20-22 21-20 25-17 25-15 28-13 29-12 28-10"/>
<path d="M5944 3414l-21 12 24 3 24-12 16-17-3-25-23-11-27 2-23 10-22 15-16 21-9 25 1 29 9 23 22 17 24 9 29-3 26-8 29-14 21-14 21-16"/>
<path d="M6118 3220l 8 23 15 19 16 21 18 21 18 21 15 19 16 19 15 21 10 22 6 28 0 27-13 27-17 24-18 20-20 14-27 13-28 6-30-4"/>
<path d="M9358 2305l 8-27 12-21 13-20 15-21 22-16 24-3 14 25 0 29-3 29-7 31-8 33-11 33-12 33-12 32-10 28-9 25-10 25-6-25 6-27 6-30 9-29 8-28 11-22 16-24 17-18 27-3 16 21 8 28 1 30 0 29-2 26-4 25-8 25 22-13 20-25 16-22 15-21 17-19 17-18 20-20 18-17 22-13 16 20 1 24 3 26 5 26 14 22"/>
<path d="M9826 2403l 8-23-6-24-20-15-25 10-18 16-15 22-12 22 0 26 20 15 25-3 23-13 18 18 16 19"/>
<path d="M9892 2351l 26-4 25 6 22 12 19 20 15 23 13 20 14 21 21 12 24-8"/>
<path d="M10036 2302l-23 13-19 17-20 21-20 23-14 20-16 26-12 24"/>
<path d="M10563 2344l 0 25-2 27 0 28-6 28-3 25-13-21 1-27 6-25 12-27 17-25 21-24 19-17 18-16 23-18 21-16 22-12 25-4 25 4 24 8 20 14 17 18"/>
<path d="M9369 3182l 11 25 0 28-2 25-2 24-4 28-6 23-9 23-6-26 3-27 7-31 8-24 10-26 11-25 12-23 15-25 14-21 20-21 21-13 25-11 24-8 24-2 25 4"/>
<path d="M9724 3161l-7-23-16-21-26-4-24 13-22 18-19 19-18 18-15 22-9 23 15 21 27 1 25-6 23-9 25-13 21-14 13-21 9 23 22 15 22 12"/>
<path d="M9831 3159l-17 20-6 25 3 24 25-8 18-20 16-21 18-20 17-17 16 20-3 24 2 28 10 22 22 10 28-5 28-12 24-12 23-15 21-14 19-15 16-19 12-22-5-25-26 1-20 15-18 16-18 17-13 23 1 25 19 16 27-1 23-8 20 15-4 27 2 27 4 27 4 24 5 26 5 28 4 31 2 24 3 25 1 26-1 26-5 26-6 23-13 27-16 21-20 16-27 9-24-6-23-19-18-24-10-22-9-27-7-29-5-33 1-35 5-35 6-24 11-30 13-27 13-21 14-20 21-24 18-16 19-15"/>
<path d="M10185 3167l 23 8 25-2 24-5 23-10 22-11 23-14 18-19-2-26-20-16-26 0-24 10-22 13-22 19-18 19-13 22-6 25 3 28 12 25 18 17 23 12 23 8 32 4 26 0 25-2 28-4 28-4 26-5 24-6"/>
<path d="M9161 4171l 27-6 24-11 22-13 28-18 19-15 22-17 22-18 22-20 22-23 23-23 23-25 22-25 21-22 19-22 17-21 14-21 13-20 10-30 9-26 2-25 2-26-5-24-26 13-19 19-20 25-15 20-12 20-14 23-12 23-13 25-10 25-10 25-9 27-6 26-5 26-4 26-2 35 1 32 2 30 7 24 15 29 16 21 23 13 26 3 27-8 20-15 16-22 7-27-7-26-12-25-14-22-17-22-22-16-25-3-18 17 18 18"/>
<path d="M9627 4111l 21-14 22-13 22-12 17-18-18-19-26-4-24 7-20 20-14 23-10 24-5 24 5 24 12 22 23 16 30 3 27-3 24-7 25-10 27-13 27-15 24-15 22-17 22-22 25-67-7-23-21 13 22 13 25 4 24 6 15 19-17 21-18 16-14 21 6 23 25 5 26-4 27-8 25-11 24-15 27-17 22-15"/>
<path d="M10197 3858l-9-23-21 12-12 22-11 28-10 26-8 23-8 25-10 28-9 28-7 26-5 24 1 28 5 24 12 24 19 20 25 3 22-11 19-17"/>
<path d="M10054 4020l 27-9 25-10 28-8 28-9 24-6 23-7"/>
<path d="M10335 3964l 24-3 30-3 26-5 30-4 26-4"/>
<path d="M10597 4111l-25 5-5-25 4-26 11-24 8-23 15-21 22-15 27-10 28-5 25 2 23 5"/>
<path d="M10850 4031l-11-21-20-18-27-2-25 14-21 16-20 19-18 21-12 23 12 21 26 3 27-4 28-9 26-11 22-14 19-16 14 21 24 2 26-8 21-14 14-21 3 25-1 25 26-3 20-15 21-11 22 10 12 22 19 18 24 7 25-6 20-13 22-16 21-17 19-20 9-24-13-22-24 1-23 9-21 17-18 18-4 24 5 25 10 26 11 23 12 25 9 23 12 24 12 26 10 26 9 28 3 29-3 31-3 32-6 24-13 22-15 23-19 24-22 25-22 18-27 16-29 1-25-13-12-24-3-26 0-31 6-35 7-26 9-28 11-30 13-31 16-32 19-32 20-30 23-28 24-24"/>
<path d="M11375 4027l 26-5 19-14-11-22-23-10-25 7-19 16-15 19-10 26-6 26 0 29 4 26 15 22 28 10 28 0 25-2 31-8 25-6 28-9 28-7"/>
<path d="M9319 5030l 30-7 21-13 27-20 19-18 21-19 23-21 23-19 22-20 22-21 20-22 19-22 17-21 14-22 17-31 14-29 8-28 6-28 2-25 1-26-25-1-16 21-18 25-18 30-18 33-11 24-11 26-10 27-13 29-11 30-9 29-9 29-6 29-5 28-2 27 1 34 6 26 13 26 20 16 28 10 24-2 25-12 18-17 16-19 13-27 6-30-3-31-10-30-14-26-14-20-21-15"/>
<path d="M9673 4921l 26 0 26-1 24-5 23-9 23-16 10-23-19-16-25 0-26 12-22 16-19 18-16 23-13 25-2 28 11 22 19 18 23 7 24 1 28-5 29-9 24-10 28-17 22-19 19-17 14-23 2-27-16-20-10 24 12 22 17 18 19 19 18 20 16 20-6 25-24 7-26 3-28 3-25 3 22-10 26-8 24-7 27-9 25-10 29-12 30-15 32-16"/>
<path d="M10202 4718l-13 22-10 26-7 25-9 24-9 29-4 25-6 25-3 24-5 26-4 28-4 26-3 25 1 30 10 25 23 15 26 0 25-8 22-10 22-12 21-12"/>
<path d="M10073 4881l 27-14 27-10 26-8 26-8 32-8 29-5"/>
<path d="M2384 6726l-24-3-17 18-16 26-13 27-10 22-9 24-9 26-10 29-8 29-7 29-3 30-4 27-3 27-1 25 0 26 2 26 4 24 8 35 10 30 12 26 15 20 24 22 26 14 28 7 29-1 28-6 27-11 22-13 17-21 8-26-8-28-21-20-24-14-29-11-29-5-29 1-28 5-25 7-24 14-15 23-3 31"/>
<path d="M2827 7062l 23-15 28-12 23-9 27-9 25-7"/>
<path d="M2884 7110l 22-11 28-9 24-7 28-7 31-6"/>
<path d="M3328 6836l 9 23 2 29-1 28-2 29-3 30-5 32-4 33-5 32-5 31-5 32-6 28-4 26-3 27-1 26"/>
<path d="M3651 6820l-7 26-2 29-1 25-1 29-2 32-1 25-3 26-3 28-5 26-5 28-7 27-7 28-4 27"/>
<path d="M3989 6869l-20 20-14 24-10 22-10 29-5 32-1 24 3 25 5 23 9 24 12 29 15 26 17 20 19 16 22 10 25 5 25-3 28-11 22-13 22-16 19-21 16-23 12-22 9-25 1-31-2-25-6-26-9-27-14-25-17-24-17-18-21-14-28-13-24-7-25-1-22 10"/>
<path d="M4318 7132l 22 13 11 23-8 25-16 19-20 16-17 21-10 22 17 18 24 4 25 1 25 3"/>
<path d="M2096 8115l-25 5-15 24-15 26-15 32-12 26-13 28-12 30-13 33-12 32-11 34-9 32-8 32-7 30-4 31-4 28-2 29-1 27 1 26 1 25 5 34 7 31 8 27 11 23 18 25 19 19 22 19 25 8"/>
<path d="M2280 8240l-22 11-15 21-14 22-13 27-13 33-9 25-9 27-8 26-8 27-6 26-5 26-4 26-2 25-1 24 2 24 5 34 8 32 10 25 15 20 22 20 25 11 30 1 23-6 25-11 22-14 22-18 15-21 14-21 10-26-2-27-15-24-18-16-23-10-26-6-27-2-25 4-22 8-22 15-13 23"/>
<path d="M2620 8706l-6 24-8 24-9 24-12 27-9 23"/>
<path d="M2817 8347l 23 10 23 9 26 14 20 12 19 18 3 24-9 24-18 24-17 20-20 20-22 22-23 21-24 23-22 21-20 19-19 23-12 21 20 14 25-5 24-9 28-11 25-13 24-12 23-10 24-8 25-8 23-7 24-8 25-8 26-8 26-9"/>
<path d="M3008 8168l 27 5 28 10 26 15 20 14 21 17 21 19 23 22 23 24 22 25 18 28 18 28 17 28 12 29 8 31 4 31-1 31-4 32-9 33-12 32-16 31-17 29-17 24-17 21-19 20-22 10"/>
<path d="M3671 8397l 26-2 26-6 28-7 23-7 23-5 31-6 30-3 28-3"/>
<path d="M3714 8459l 28 1 30-6 27-6 23-6 25-6 25-8 26-8"/>
<path d="M3948 8246l 23 11 24 6 26 8 26 8 27 11 22 10 27 13 21 18 12 23-2 26-14 24-19 20-22 17-24 15-26 17-25 15-21 16"/>
<path d="M4843 8223l 27-2 28-3 27-6 24-6 26-9 26-9 25-9 26-10"/>
<path d="M4906 8221l-11 25-5 28-4 27-1 25-3 28 0 25-2 25 25-7 19-15 21-17 22-15 22-12 27-5 26 5 24 9 25 12 20 18 17 21 12 24 11 25 7 27 2 27-3 26-9 24-14 21-15 22-18 19-20 16-22 15-24 11-24 8-27 5-27 0-24-4-27-10-18-19-5-25"/>
<path d="M5596 8368l-26 8-15 20-14 26-9 25-5 25-1 25 2 29 7 25 15 21 21 19 25 16 23 10 25 7 27 5 30 2 28-1 27-5 26-11 24-17 19-25 14-24 11-26 4-24-5-25-7-25-11-26-15-24-19-19-20-18-21-13-25-8-25-4-24 2-27 6-22 10-19 19"/>
<path d="M5610 8440l 17 20 19 18 18 16 18 17 20 16 20 18 21 19 20 17 19 15"/>
<path d="M5783 8350l-19 16-17 20-16 23-15 24-18 26-15 21-15 21-15 21-15 21-13 21-14 25-9 25"/>
<path d="M6152 8242l 23-9 23-6 24-2 26 0 27 3 23 7 25 11 11 22-19 17-23 15-25 12-23 13-22 12-24 14-17 17-7 24 28 4 24-2 28-2 24-2 29 0 29 4 27 10 28 13 23 13 21 17 17 20 11 26-1 27-10 25-15 22-19 23-21 22-20 18-20 14-22 11-24 7-25 2-25-2-28-5-24-7-21-14-14-21"/>
<path d="M1952 9792l 21-14 25-9 25-10 25-11 23-11 22-12 24-13 25-12 22-12 23-8 24-4 12 24-4 25-8 25-8 24-12 28-12 31-13 32-10 24-8 25-7 25-9 26-7 26-6 26-8 27-6 28-6 29-6 28-5 28-5 27-5 26-4 25-4 25-3 24-4 34-5 29-4 26-4 29-3 25-3 28"/>
<path d="M2427 10049l 21-13 25-6 28-5 27-5"/>
<path d="M2452 10138l 25 1 26-2 25-3 27-4 24-3"/>
<path d="M3176 9804l-25 14-19 22-14 22-14 27-14 30-11 32-11 35-6 34-5 35-1 32 2 31 4 29 6 27 8 23 13 27 16 20 19 15 26 12 30 1 24-4 24-9 24-13 19-17 16-22 7-27-8-26-18-19-24-13-28-7-25 3-26 9-26 11-21 13-22 17-15 22"/>
<path d="M3792 9921l-15-20-25-9-24 9-21 15-18 16-18 24-15 21-12 24-10 28-6 25-3 26 1 30 8 29 13 23 19 20 21 15 25 9 28 3 28-1 29-4 24-6 23-10 24-12 24-16 21-19 16-21 15-21 11-22 10-28 4-28-3-30-6-31-12-27-20-23-23-18-25-13-27-8-26-5-24-4-28 3-26 9-18 18"/>
<path d="M3705 9918l 22 18 13 24 13 21 16 20 14 22 16 19 17 18 20 21 18 21 17 20 14 19"/>
<path d="M3908 9873l-17 18-16 24-12 21-12 22-16 26-14 21-18 26-15 24-16 25-15 23-13 22-14 25-11 24-9 22"/>
<path d="M4325 9703l-3 30-2 32 0 30 0 33 0 35 0 33 0 34 1 34-1 34-1 34-2 36 0 35-3 35-2 35-4 34-3 32-2 28-3 30-2 26-1 31-2 25-1 26 1 24"/>
<path d="M1822 11071l-13 21-8 26-9 26-8 30-7 30-7 24-8 27-8 27-8 28-7 27-8 26-7 25-7 24-8 29-3 26"/>
<path d="M1918 11156l-14 23-9 25-7 25-6 25-4 26-3 27-1 26 3 27 5 25 13 29 15 24 20 17 30 8 25-1 26-5 27-15 19-16 16-19 15-20 16-27 11-29 7-30-3-31-6-25-11-25-14-22-16-18-26-19-28-10-29-3-30 4-27 9"/>
<path d="M2192 11138l 27-2 28 0 25-4"/>
<path d="M2198 11219l 27 5 27 0 28-2"/>
<path d="M2875 11031l-8 27-8 31-6 28-8 31-10 31-12 32-14 35-9 24-9 23-9 23-12 31-11 27-12 28-8 25"/>
<path d="M3048 11142l-18 17-19 19-18 24-15 23-10 25-3 31 4 28 12 24 21 19 27 13 32 3 24-3 24-6 23-9 22-12 21-14 21-18 16-19 15-21 12-21 11-27 5-25-5-25-10-28-16-26-22-17-29-10-31-3-30 3-27 8-23 13-19 16"/>
<path d="M3551 11036l-23 12-7 26-3 25-3 26-3 25-4 31-6 28-8 25-10 28-9 25-9 24-10 23-5 26"/>
<path d="M3742 11100l-24 17-16 25-10 22-4 30 2 26 7 27 12 29 16 25 18 16 19 15 27 10 27 3 27-6 25-11 22-15 16-18 19-22 15-25 9-23 2-29-7-23-16-20-22-13-27-7-27-3-30 3-27 6-23 6"/>
<path d="M4067 11386l 24-2 24 7 20 15 2 25-22 14-21 16-13 21 23 12 27-3 26 2 24 1"/>
<path d="M2118 12625l 18-16 27-4 28-2"/>
<path d="M2078 12701l 23-5 24-8 28-8 25-6"/>
<path d="M2797 12352l 2-26 2-26 0-27-6-25-17-17-26-2-25 4-28 14-21 16-22 18-21 20-18 21-15 19-13 22-11 27-6 26 1 27 10 23 20 13 28 0 24-8 25-18 22-18 18-19 19-22 20-22 16-19 14-21-17 19-11 24-9 23-11 27-12 29-12 31-10 34-9 31-8 30-4 27-3 29-2 30-2 27 0 27-1 30 0 25-1 25 0 25 5-25"/>
<path d="M3095 12389l-26-7-25 10-25 13-25 14-18 17-18 19-19 20-17 26-14 29-11 30-5 26-2 26-2 25 3 31 8 29 13 24 20 19 23 17 26 10 28 6 31 4 32 1 31-3 25-4 28-5 25-7 23-9 21-15 20-13 20-14 19-17 18-16 19-24 11-24 8-25 3-24 0-27-7-29-12-28-13-20-18-26-19-19-22-18-24-17-24-7-25-1-25 5-25 6-28 10-22 18"/>
<path d="M3035 12474l 16 21 14 21 15 22 20 22 20 22 20 22 18 19 16 20 17 17 19 18"/>
<path d="M3252 12402l-22 14-17 19-16 24-15 21-18 23-18 25-15 19-15 21-14 20-14 20-13 21-15 24-13 22-10 22-8 25"/>
<path d="M3599 12408l 18-17 27-6 29-4 31 0 25 2 25 2 28 3 26 4 20 14-12 24-19 15-19 15-21 15-22 14-24 14-23 13-22 12-29 13-24 13-22 13 26 4 27-8 29-6 27-4 27 5 25 6 23 6 26 7 24 11 23 12 20 14 21 17 9 24-1 26-9 23-13 24-17 19-23 18-27 13-25 8-26 6-25 2-25 2-27 0-24-5-23-9-17-17"/>
<path d="M8575 6560l 11 24 3 27 2 31 0 27-1 30-2 32-2 33-3 32-3 32-3 31-2 30-1 29-1 27 0 29 0 28 1 31"/>
<path d="M8827 6601l 11 26 0 29-2 25-2 28-2 28 0 28 0 25 0 25 1 32 0 31-1 24-2 30 0 26 1 27-1 24"/>
<path d="M9083 6751l 24 0 29 1 30-3 31-3 25-2 24-2"/>
<path d="M9149 6838l 27 0 31-1 30-2 26-1 24 0"/>
<path d="M9538 6630l 9 26-2 26-4 30-3 24-4 32-4 32-4 31-5 29-5 31-3 27 0 26-2 24"/>
<path d="M9852 6697l-22 13-21 21-15 23-14 26-7 27-1 26 1 26 4 27 6 25 12 24 21 17 26 12 24 6 28 1 24-1 24-3 30-6 28-10 27-13 20-16 18-20 11-22 5-23 5-30-4-27-9-27-10-24-16-19-19-16-24-15-26-10-25-2-25 4-28 11-22 15"/>
<path d="M10375 6664l 5 23 1 26-2 31-2 25-2 25-2 31-2 28-2 28-2 25-1 26-2 27"/>
<path d="M10586 6642l 9 27 1 24 1 29 0 31 0 30-1 29 1 31 1 28-2 31 1 27 3 24-1 28 1 25 1 25"/>
<path d="M10826 7006l 26-5 26 3 23 11-14 24-25 13-23 12-23 12-18 16 17 18 26-2 25 0 27 3"/>
<path d="M8509 7504l 25 4 27-2 26-4 26-4 25-3 24-2 26-3 25-1 20 14-5 24-8 26-7 24-9 28-11 30-11 31-12 32-8 23-8 23-10 33-10 34-10 32-10 33-7 29-9 25-12 28-8 28-8 24"/>
<path d="M8999 7711l 25-7 27-6 25-5 27-5"/>
<path d="M9046 7753l 27-4 25 1"/>
<path d="M9434 7645l-27 5-24 19-19 21-18 27-13 29-11 29-8 28-2 27 3 25 5 24 8 24 17 20 23 13 25 4 29-1 28-5 29-10 23-9 27-16 21-18 19-21 13-21 8-27-1-30-6-26-10-25-14-22-15-20-20-21-23-16-22-12"/>
<path d="M9839 7604l 11 25 3 28 1 28-3 30 0 30-1 29-2 24-2 28-1 25-1 26"/>
<path d="M10211 7593l-12 21-8 23-6 26-7 28-5 28 0 29 1 28 2 26 2 25 3 27 4 25"/>
<path d="M10435 7561l-1 25 2 24 2 27 2 28 1 29 2 28 3 28 0 25-2 28 1 28"/>
<path d="M10674 7797l 25 5 25 9 22 13 2 24-18 16-23 13-22 15-21 14 15 20 25 2 25 2"/>
<path d="M8474 5867l 2 27 3 30 0 31 0 25 3 24 0 24 0 32-2 24-1 31 0 28-3 28"/>
<path d="M8665 5815l 26-8 24-2 24 1 26 1 30 7 24 13 19 21 3 28-6 31-14 28-16 23-19 23-22 23-24 22-24 22-25 20-23 18-19 17-21 19-18 17-10 23 25 7 29-3 28-6 24-7 25-9 29-6 29-7 31-6 29-6 30-4 28-5"/>
<path d="M9095 5951l 23-9 26-4"/>
<path d="M9084 6033l 24-1 24-1"/>
<path d="M9571 5797l-2 27-1 26 1 27-3 31-1 25-4 25-1 25-3 32-4 30-7 28-8 25-6 23"/>
<path d="M9943 5862l-11 24-3 27-5 28-5 32-4 24-6 25-6 25-6 25-6 26-4 25-1 26-1 30 0 28 5 24 7 24 17 18 25 0"/>
<path d="M10318 5909l-25 7-18 23-12 22-12 23-13 26-8 25-3 25 1 30 6 25 14 23 21 16 23 9 28-2 28-7 28-11 25-14 22-17 21-20 16-22 8-23 1-25-4-27-10-27-14-25-18-23-22-18-25-13-25-10-28-1-22 8-19 16"/>
<path d="M10764 5915l-24-6-24 11-22 18-16 19-15 20-13 23-5 23-7 27 0 27 12 24 19 15 25 7 24 1 28 0 29-5 25-7 28-14 23-16 15-19 9-28-3-28-7-25-11-22-17-18-25-17-26-10-26-2"/>
<path d="M10922 6071l 24 2 23 9 22 12-4 25-23 12-22 11-19 15 14 22 28 0 27-3 25-4"/>
<path d="M13822 5827l 6 27-1 25-5 31-5 34-6 35-4 34-5 33-3 32-4 29-6 29-4 27-4 26-5 28"/>
<path d="M13979 5797l 27-3 28 1 24 4 27 3 29 4 23 12-3 24-20 18-21 17-23 16-24 15-21 14-19 15 21 13 26-4 25 1 24 5 26 6 27 9 24 9 26 12 18 19 2 28-13 26-22 22-21 18-23 19-27 17-26 16-25 14-22 12-26 9-25 5"/>
<path d="M14369 5904l 28-8 24-6 27-7 25-6 26-4"/>
<path d="M14391 5978l 23-6 26-7 29-6 24-6 28-6 31-5 33-5"/>
<path d="M14818 5759l-1 26-1 26-3 30-4 26-7 27-9 29-5 23-8 31-10 29-6 26-3 25"/>
<path d="M15012 5762l-8 25-1 30-4 25-6 25-3 28-2 28-6 28-6 28-5 26-3 24-3 25"/>
<path d="M15464 5843l-25 5-20 12-17 19-14 22-13 25-6 26-3 29 6 25 17 23 25 14 27 8 27 3 29 0 28-3 28-8 26-9 24-14 15-21-2-29-7-23-14-24-17-23-21-21-28-15-26-11-24-6-29-2-23 6"/>
<path d="M15880 5815l 1 24 1 24-3 27-1 24 1 26-1 27 1 25 3 25-3 30-1 29 0 27"/>
<path d="M16068 6059l 25 0 24 9 19 16-14 21-21 15-24 12-21 16-18 17 18 20 24 3 26-2 26-2 26-4"/>
<path d="M14250 6802l 18-17 22-12 24-10 25-6"/>
<path d="M14226 6876l 25-2 26-5 25-7 29-2 24-3"/>
<path d="M14761 6690l-7 24-4 26 0 27-2 24-4 27-4 29-2 25 0 25 0 28-4 26-7 25-4 25"/>
<path d="M14893 6742l-1 24-3 25 2 27 0 25 4 26 10 26 15 20 22 13 24 3 28-5 24-5 24-12 23-17 18-16 19-22 13-23 4-25 0-26-5-24-13-22-13-20-22-14-23-6-26 2-23 10-18 16"/>
<path d="M15310 6704l 11 23 6 29 5 28 1 28 1 27 0 26-1 25-1 25-7 24-4 26"/>
<path d="M15659 6686l-10 26-3 25-2 27-1 28-1 26 2 29-1 28-4 24-2 24-1 24 5 25"/>
<path d="M15850 6907l 25-6 25 9 23 12 13 21-6 25-19 17-22 14-20 14 16 19 26 3 27 4 23 6"/>
<path d="M13644 6695l 18 17 2 27-2 26-3 29-1 30 1 30-2 31-2 24-3 25-2 25-3 25-5 31-2 27-2 24 2 26"/>
<path d="M13903 6686l-1 24-1 28 3 24 4 27 3 27 2 29 1 30 0 24-3 24-3 30 0 29-3 27-1 25"/>
<path d="M14968 7547l-2 25-2 27-1 29-2 24-2 26-2 24 0 30-5 26-2 25 4 25"/>
<path d="M15229 7570l 5 26 2 25 4 24 1 26-4 25 0 26-3 28-2 25-1 24"/>
<path d="M15536 7620l-15 19-12 22-7 27-5 28 0 28 8 25 11 24 17 20 23 11 27 0 24-6 27-12 21-15 20-19 18-20 13-21 3-28-5-25-7-23-13-21-18-18-20-13-27-13-26-7-27-2-20 14"/>
<path d="M15811 7760l 25 5 23 11 14 20-16 20-19 17-16 19-10 22 23 9 26-1 27-4 27-5"/>
<path d="M14706 7544l-26 4-22 11-18 16-20 19-16 24-13 25-10 23-5 24 0 29 1 28 9 24 18 21 21 15 26 4 28-2 27-6 23-11 24-19 18-18 16-22 12-22 7-24 4-26-3-26-8-28-10-27-13-22-18-18-26-10-25-1-24 9-23 16"/>
<path d="M14135 7617l 22-15 26-8 28-4 27-1"/>
<path d="M14114 7716l 20-14 25-9 25-7 25-6 27-7 27-5"/>
<path d="M13740 7438l-17 23-14 25-11 25-9 28-7 26-6 28-6 31-6 32-4 32-2 31 2 28 4 27 9 30 9 25 10 26 17 21 20 15 25 4 31-3 24-8 25-15 22-19 16-21 6-24-2-28-8-25-11-25-22-14-26 1-23 11-20 16-18 20-13 22-12 24"/>
<path d="M7861 9377l 23-15 23-9 24-11 24-12 25-12 24-11 27-12 25-12 22-10 26-9 23-8 25-9"/>
<path d="M7892 9395l-16 18 1 26-1 24-3 25-1 25 3 26 2 24 4 27 12 21 23-8 21-15 22-19 22-17 22-16 22-14 22-10 25-6 27 0 25 8 23 8 24 9 23 15 17 17 11 23-3 27-10 25-9 23-15 23-19 22-21 19-23 18-26 14-27 11-26 7-25 2-27 0-25-8-22-10-16-18"/>
<path d="M8406 9762l-4 27-5 28-5 26-10 27"/>
<path d="M8660 9430l 11-23 22-13 25-2 28 4 24 5 24 9 20 16 6 24-16 19-21 16-20 15-23 15 18 17 26 3 26 9 23 12 22 14 19 19 7 26-6 23-14 20-21 19-21 14-25 15-23 13-30 8-25 4-26 0-24-8-22-13-20-17"/>
<path d="M7833 9218l-26 1-19 15-18 18-18 21-19 27-14 25-16 29-11 22-10 22-10 25-9 27-9 28-8 30-8 32-6 32-3 32-2 32 0 31 2 30 3 28 6 28 8 27 9 25 11 23 12 21 18 27 24 24 27 20 24 14 23 10 23 9 26 6 24 7 25 6 27 4"/>
<path d="M8969 9196l 21 17 12 22 15 25 12 22 14 24 15 26 15 25 14 25 15 28 11 28 12 30 14 30 10 32 8 30 5 32 6 30 4 30 2 29-2 31-8 29-9 27-13 26-13 27-16 23-16 21-21 23-21 18"/>
<path d="M7787 10579l 17-20 23-9 27-9 25-7 25-7 28-3 27-3 26-1 27 0"/>
<path d="M7866 10584l-25 8-23 18-16 20-16 25-12 22-9 26-7 26-5 28 3 27 14 21 25 4 26-11 25-14 23-14 22-13 27-12 24-4 25 1 25 6 24 9 21 17 16 21 6 28-3 25-12 27-18 25-24 23-19 15-22 15-21 15-20 13-22 10-27 13-25 9-28 5-22-11"/>
<path d="M8183 10987l-17 19-9 26-12 24"/>
<path d="M8512 10675l-16 21-8 24-6 24-6 26-6 25-7 25-2 24 10 25 24 7 28-3 27-10 23-8 28-9 26-8 28-8 24-7"/>
<path d="M8657 10740l-12 21-5 28 0 27 2 25 5 25 8 29 4 25 6 25"/>
<path d="M7771 10460l-29-1-25 8-23 11-27 15-21 15-23 16-22 21-21 24-20 27-20 31-14 22-12 25-10 28-9 28-9 32-6 32-5 33-4 30-1 29 0 29 2 27 3 28 6 24 9 23 11 23 12 24 13 21 20 29 20 27 24 23 28 20"/>
<path d="M8745 10526l 14 25 15 20 15 19 17 22 19 22 19 27 15 21 13 22 12 22 12 24 10 26 9 26 6 26 4 25 3 24-1 27-4 26-7 28-10 29-13 28-14 28-14 25-16 25-13 22-15 24"/>
<path d="M9395 10800l 21-14 26-9 27-7 25-5"/>
<path d="M9407 10876l 24-3 28-5 25-3"/>
<path d="M9926 10566l 23-9 27-7 26-4 24-3 28-4"/>
<path d="M9964 10579l-21 14-18 17-13 25-9 24-7 27-5 24 1 26 6 23 21 15 27-1 28-9 24-9 24-12 24-9 23-7 28-3 28 0 25 6 21 15 16 20 8 27-5 26-7 28-11 25-16 22-19 23-20 21-22 19-26 16-23 13-27 11-25 3-25-6-17-17-5-24"/>
<path d="M10607 10638l-22 14-20 23-17 24-13 23-10 26-10 27-6 30-3 26-3 25 3 31 8 28 11 24 19 23 22 14 28 11 30 8 31 1 27-2 26-4 26-9 23-11 23-15 22-17 18-19 16-19 16-27 11-29 5-24 0-25-4-24-9-25-11-23-14-24-16-23-17-22-20-19-22-16-22-13-24-8-31-5-31 2-28 10-22 17"/>
<path d="M10571 10685l 14 22 17 23 17 21 16 22 19 21 24 20 25 16 24 17 18 18 21 14 22 14"/>
<path d="M10769 10660l-23 14-20 16-19 16-18 18-19 21-19 23-18 22-17 25-15 25-17 25-16 24-15 25"/>
<path d="M15293 8899l 23 6 7 27 1 25-1 25 0 28-3 31-5 25-4 25-5 25-6 31-5 31-4 26-5 28-4 25"/>
<path d="M15827 8933l-24 10-21 17-19 21-16 23-10 26-2 25 5 29 9 27 15 22 24 15 25 9 29 2 27-3 27-9 26-12 22-16 21-16 16-19 1-24-9-25-16-18-24-17-25-13-29-9-30-6-27-4-28-2"/>
<path d="M16326 8908l 8 24 0 28 3 24 5 25 4 25 3 25 4 26 3 25 0 29-2 28"/>
<path d="M16635 9179l 27 3 24 8 10 22-19 18-19 16-3 24 24 7 26 3 23 7"/>
<path d="M15801 9960l 11 23-1 28 1 25-2 29 2 28-1 25-2 25 0 25 3 25-2 25"/>
<path d="M16271 9920l 7 23 8 25 1 25-2 28-1 26 1 28 1 26-3 28 3 25-3 28 1 25 1 24"/>
</svg>
