<svg xmlns="http://www.w3.org/2000/svg" viewBox="4573 -1184 15152 10736" stroke="black" stroke-width="20" stroke-linecap="round" stroke-linejoin="round" fill="none" data-xena="0 0 0"><style>@media(prefers-color-scheme:dark){svg{background-color:black;stroke:white;}}</style>
<path d="M6501 1907l 8-1 6 2 2 2 2 7-2 8-4 6-4 7-4 5-5 7 5-7-4 6 4-7-3 7-3 6-3 6-2 7-3 6-1 5-1 4-1 3 2-7-1 4-1 4-2-8 1 3-29 5 3-2-6 5 4-4-5 6 4-6-8 14 2-5 1-6 0 8-1-6-1-6 3 7-2-5-4-3-5-3-5-3 7 2-5-1 21-9-3 3 18-30-1 7-2 7-4 7-5 7"/>
<path d="M6630 2018l 5 5 5 5 5 5 4 5 4 5 3 7 4 7 4 9 4 8 5 10 6 11 7 13 7 14 8 14 8 14 8 14 9 15 8 15 9 16 9 18 10 19 11 21 12 22 14 24 13 25 12 24 12 21 11 20 12 20 12 20 12 21 12 21 11 23 13 26 14 29 16 32 17 31 16 31 17 30 16 27 15 25 15 25 15 27 16 28 16 30 18 31 17 30 18 30 18 31 18 30 17 29 16 28 15 27 15 26 15 25 16 24 15 25 16 24 16 25 17 24 17 25 16 24 16 24 16 23 16 24 16 24 16 23 16 23 14 23 15 22 14 21 13 21 13 20 13 19 11 19 10 18 10 18 8 18 9 17 9 16 9 16 8 15 9 14 8 14 8 14 7 13 8 14 6 15 6 14 6 13 6 12 5 12 6 11 5 10 5 10 5 9 5 8 4 9 3 7 3 7 3 6 3 5 2 4 3 5 2 3 3 4 3 4 3 4 4 3-7-3 4 1-8 2 4-2-26 19 3-4-8 14 2-5 1-5-1 8 0-6 1-8 3-7 4-7 5-6 6-5 7-4"/>
<path d="M7402 2646l 6-5 5-5 7-4 8-5 7-3 10-3 10-4 12-4 12-3 13-3 14-3 8-1 15-2 14-1 14 0 13 0 12 1 12 2 12 3 11 3 12 3 11 4 7 2 9 5 9 6 7 6 7 7 5 7 3 7 2 7 2 8 1 10-2 12-3 13-2 8-4 13-6 13-4 7-6 11-7 10-5 7-8 10-9 12-10 12-12 13-7 8-12 13-13 12-14 12-14 11-15 10-6 5-14 10 7-5-13 10-11 9-10 8-8 8 8-8-6 7 4-7-4 7 6-15-1 5-2-7 2 5 5 4 7 4-7-3 9 4 10 2 12 1 14 1 14 0 15-1 16-1 17-1 17-2 19-3 20-2 21-3 22-3 23-2 23-2 6 2"/>
<path d="M8016 4210l-2 8-4 6-1 5-5 6-8 8-4 4-4 5 7-8-5 5 5-6-5 7-6 10 4-8-5 11-7 13-6 14-8 17-8 18-9 22-11 24-13 27-15 31-18 32-2 5-20 34-20 34-22 37-21 39-23 42-23 44 2-4-23 46-23 47-23 48-23 49-22 50-23 51-24 51-25 51-2 4-26 49-26 48-26 48-25 46-24 46-23 45-23 44 2-4-21 43-20 42-18 40-16 39-16 38-14 37-14 36-12 33-13 31-11 28-10 25-9 22-8 18-6 16-6 15-5 13-4 12-3 10-4 7-4 8-3 7-4 5-3 5-5 6-2 3-8 8-7 5-2 1-7 4-8 1-7-1-2-2-4-7-1-6-1-8"/>
<path d="M7151 4735l-7-1 8 1-7 0 8-2-9 4 7-3-9 6 6-4-10 9 8-9-9 11 5-6-8 12-7 14 3-7-6 15-7 16-6 16-5 15-5 15-6 16-5 19 2-8-5 21-4 22-4 24-2 26-2 28 0 28 1 28 2 28 3 27 5 25-1-5 7 23 7 20 9 18 10 15 12 13 12 10 12 9 12 6-6-3 12 4 12 1 13 0 13-2-8 2 12-4-8 2 12-6-7 4 10-9-6 5 11-11-6 6 10-13-4 7 8-14 7-14 6-14-3 7 5-14 3-13-1 8 1-12-1-10-3-10 4 7-5-8-6-7-9-6-10-4-13-2 8 1-15 0-16 2 7-1-17 4-17 5-17 8 7-4-15 9-14 10 7-4-13 10-11 11-6 5"/>
<path d="M8146 4303l-6 0 8-1-6 1 22-16-4 4 11-22-1 8 2 10-2-8 4 13 7 15 8 18 10 21 11 25 11 29 11 30 10 29 10 26 12 28 14 29 14 33 16 34 18 36 18 37 19 38 20 39 21 39 23 40 23 40 23 40 24 42 23 41 22 42 22 41 21 42 21 41 21 41 21 39 21 39 22 39 22 38 23 38 22 37 23 36 22 35 21 33 20 32 19 31 17 31 16 31 14 29 14 28 13 26 12 25 11 22 10 21 11 19 10 16 11 15 9 14 9 13 8 10 7 10 6 8 5 7 3 7 2 5 3 8 0 4-2 7-4 8-5 6-7 8-3 2-6 5-7 3-8 2-4 0-8-1-5-2-6-3-6-3-7-5-3-7 1-8 3-7"/>
<path d="M8792 4813l-1 5 2-7 0 7-1 8-1 10-1 13-1 16-1 19-1 21-2 24-2 28-3 29-3 31-2 30 0 28 1 26 2 24 3 21 5 17-2-5 6 13 6 9"/>
<path d="M6316 2121l-5-1 8 2-5 1 14-5-4 2 6-5-4 4 8-9-3 4 4-6-3 5 4-7-3 6-3 9-4 9-4 11-6 14-8 20-13 27-16 33-16 35-18 36-20 39-2 4-21 42-24 44-25 43-23 41-23 41-25 45-25 47 2-3-25 50-24 52-22 51-22 51-23 51-22 50-24 50-23 49-23 49-23 48-22 48-22 46-22 47-21 46-21 48-19 48-19 46-17 45-16 44-14 41-14 39-13 38-12 36-9 33-9 30 1-4-6 27-5 24-3 20 0 15 1 12 2 10 0 8 1 6-2-7 0 2-45 24 2-3-3 7 3-6 2-7 3-8 4-6 6-6 6-6 7-4"/>
<path d="M5452 2645l-2-4 0-3 1-8 3-7 2-4 4-7 5-6 4-4 4-4 6-5 5-4 7-4 6-3 8-3 6-1 8-1 8 0 8 0 8 1 8 0 8 0 9 1 8 0 8 1 7 0 8 1 7-1 7 0 6 1 6 2 6 2 6 3 5 4 3 5 2 5 2 7 1 5 0 6 0 5-1 5-2 8-2 5-2 5-2 6-2 5-2 4-2 5-3 4-1 5 2-8-1 4-1 5 0 5 0 6 2 4-2-7 2 5 4 4 5 4 7 3-7-3 6 2 7 2 6 2 7 2 7 3 6 3 7 3 6 3 6 4 6 5 4 5 5 5 4 5 3 7 2 7 2 7 2 8 0 8-1 8-1 8-3 10-2 8-2 10-3 10-4 12-5 12-6 13-5 11-4 7-7 11-7 11-4 6-8 10-7 9-7 8-7 8-8 8-7 7-7 7-7 6-7 5-6 5-7 4-6 4-6 4-7 3-6 3-6 2-8 1-4 1-5 0-8-2-3-1-3-2-4-7"/>
<path d="M6385 1309l 3-7-3 7 2-8 2-8 4-7 3-7 4-7 4-8 3-8 4-8-3 7 3-7 3-7 3-7 4-7 5-6 6-5 3-2 7-4 8-3 8-1 6 2 4 8 2 7 2 13 2 17 1 18-1 22 0 24-2 28-1 28-1 30-1 31"/>
<path d="M8079 3742l-4-4-4-5-3-7-3-6-1-6 0-6 1-7 2-6 3-7 4-7 6-6 4-5 6-5 5-4 7-4 6-3 7-3 7-3 6-1 8-1 7-1 8 0 8 1 8 1 6 2 7 3 7 2 6 4 5 5 2 6 2 7 1 8 1 6-2-7 5 4-7-3 7 3 9 1 8 0 9-1 8 0 8 0 8 1 8 1 7 1 7 3 7 2 5 3 6 4 5 3 4 5 2 5 2 8 1 6 0 7-2 7-2 8-2 7-3 7-4 7-4 6-5 7-4 7-6 6-5 6-8 8-6 6-6 6-8 7-8 6-8 6-8 7-9 7-8 7-8 8-8 8 8-9-8 9-6 7-6 8 4-7-4 8-4 7-5 7"/>
<path d="M7070 6257l-5 4-4 5 8-9-4 5 8-13-2 6-3 7 2-8-2 8-1 10 0 12 1 13 2 14 4 15 4 17 4 17 5 18 5 19 5 20 6 20-2-8 6 21 6 21 8 22 7 23 2 7-1 7"/>
<path d="M9065 6204l 7-4 7-3 6-2 6-2 8-1 8-1 9-1 10 0 9 0 10 0 11 0 11-1 11 0 12-1 13-2 15-2-8 1 14-3"/>
<path d="M9132 6210l-4 5-7 8-4 5-4 4-5 5 8-9-4 6-5 6 5-7-5 7-4 7-4 7 4-7-3 8-3 9-3 10-3 10 2-8-2 10-2 11-1 11-1 11 0 10 0 10 1 9 1 7 2 7-2-8 3 6 3 4 5 2-7-3 6 1 6 0-8 1 7-2-8 3 8-4 8-5-7 4 10-6 10-7 12-8 7-4 13-8 14-7 14-7 15-6 14-6 8-3 15-6 15-5 15-3 15-3 8-1 14-2 13 0 12 1 12 2 10 3 9 3 6 3 9 4 7 3 6 5 5 6 4 6 2 8 2 7 1 7-1 9-2 9-2 8-3 10-4 11-7 12-3 7-9 14-4 6-11 14-12 13-8 8-14 13-14 12-7 4-15 11-17 9-7 3-17 8-18 6-18 6-17 4-8 2-17 3-15 3-14 1-13 1-13-1-12-2-7-1"/>
<path d="M11179 3479l 8-8-5 6 9-13-4 8-3 9-3 11 2-8-3 13-3 14-2 17-3 20-2 23-2 25-2 26-3 29-2 29-1 28-1 29 1 27 1 28 0 28-1 5"/>
<path d="M10988 4470l 7-4 7-4 8-3 9-2 8-2 11-2 11-1 11-1 11-1 12-1 13 0 12 1 13 1 11 2 11 3 11 3 7 3 9 4 8 6 7 7 5 10 3 10 2 8 2 11 0 13-2 13-2 8-4 15-6 15-6 15-8 17-4 7-9 16-10 15-5 7-11 15-11 13-12 13-8 9-12 12-12 11-13 10-6 5-14 9-13 8-12 7-11 6-8 5-7 5 6-4-5 5 16-22-2 5 0-15 1 5 5 4 8 3-7-2 11 3 13 2 14 2 15 1 16 1 18 0 20 0 23 0 25 1 27 1 28 3 29 3 4 2 1 5-1 4"/>
<path d="M11014 5447l-3-7-2-4 1-8 1-4 3-7 5-7 5-6 4-3 6-6 7-4 5-3 8-3 7-2 7-2 8-2 8-1 8-1 8 0 9 0 8 1 9 1 7 2 7 3 7 3 6 5 4 6 2 8 1 7-1 7-2 8-3 7-3 7-4 7-5 6-5 7-6 7-8 8-7 7-6 6-6 5-7 4-6 4-5 4-5 3 6-5-4 4 16-22-2 4 0-15 2 5 7 4-7-2 9 3 10 2 11 2 12 1 12 0 13 0 13 0 12 0 12 1 11 2 10 2 8 2 7 3 7 4 5 4 4 5 3 8 2 7 1 9 0 9-2 10-2 8-3 10-5 11-4 7-6 11-7 10-6 10-5 6-7 9-8 8-9 9-9 9-10 9-10 10-10 9-11 9-11 8-10 8-10 8-10 8-6 4-12 8-10 7-10 6-7 5 6-4-6 4-6 5"/>
<path d="M10997 6344l 1-4 3-7 2-4 4-7 3-4 5-6 6-5 7-4 4-2 7-3 8-1 5 0 7 3 4 3 3 5 3 7 2 7 2 9 0 9 0 10 0 11-1 11-1 13-3 13-3 14-3 16-4 16-4 17-3 17-3 17-2 16-2 15-2 16 0 15 0 13 1 13 2 11 2 9-2-7 3 7 5 6 5 4 6 3-7-3 7 1 8 0-8 2 9-2 9-4-7 3 11-5 13-7-7 4 14-9 15-9 15-11 16-11 17-11 16-12 15-10 14-11 15-10"/>
<path d="M11183 6452l-4 3 6-4-4 3-4 4 13-15-3 5 4-7-2 6 2-8-2 7-1 9 0 10 1 13 2 14 2 16 3 16 4 18 5 19 4 20 5 20 6 21 5 21 6 22-2-7 6 22 2 7-2 8"/>
<path d="M11043 7244l 4-4 7-4 5-3 8-3 4-2 6-2-8 3 6-2 8-3 6-3 7-1 8-2 7 0 9-1 9-1 10 0 9-1 10-1 10-1-8 1 10-2 10-2 10-4 9-3-8 3"/>
<path d="M11095 7225l-4 5 5-6-4 6-4 7 4-7-4 7-4 9-3 9 2-8-2 10-1 10-1 11-1 11 1 11 0 10 1 10 2 9 2 9-2-7 2 7 3 6 3 5 4 4-7-3 5 1 5 0-8 1 6-1 7-3-8 3 8-3 8-4 8-5-7 4 9-5 9-6 10-7 10-6 11-6 7-4 10-7 11-6 11-5 10-5 8-3 10-4 10-3 10-2 8-1 10-2 10 0 10-1 8 1 8 0 8 1 6 2 7 3 6 2 5 3 4 4 4 5 3 6 3 6 2 8 1 8 0 9-1 10-1 12-3 12-2 8-3 12-5 12-7 13-3 7-8 12-5 7-9 12-10 12-8 8-12 11-12 10-6 5-13 8-7 3-14 7-13 4-8 2-15 2-14 0-8-2-15-2-14-4"/>
<path d="M6391 7666l 3-4 5-6 3-4 6-5 4-4 4-3 5-4 7-4 6-3 8-3 7-2 9-3 8-1 11-1 13-1 14-1 16-2 18-1 19-2 19-1 20-2 20-1 21-2 19-2 19-1 17-2 15-1 13-1 12-2-8 1 10-2 8-1"/>
<path d="M6389 7904l 0-4 1-3 3-7 3-5 4-6 3-5 3-5 5-5 5-6 5-6 6-5 7-5 7-5 7-5 9-4 9-5 8-3 10-3 11-4 13-2 8-1 14-2 14-2 16-2 15-1 17-1 16-2 17-2 16-1 17-2 16-2-8 1 15-3 15-4 13-4"/>
<path d="M6571 7567l 9 3 10 3 12 2 13 3 15 3 15 3 17 4 16 4 17 4 16 5 15 4 14 3 13 3 12 3 11 3 11 3 11 3 10 3 9 2 8 2 8 2 7 3 6 2 7 3 5 2 5 4 3 4 2 8 1 6 0 6-1 7-2 8-2 8-3 9-4 9-4 7-6 11-6 10-7 12-7 12-8 12-8 12-9 12-8 12-9 12-4 6-9 11-8 10-8 9-9 9-10 9-9 9-7 7-7 7-7 7"/>
<path d="M7515 7531l-3 8-3 9-4 11-5 13-3 14 2-8-4 16-3 19-3 19-2 21-1 21-1 22 0 22 0 24 2 24 2 24 3 24 5 23 6 22-2-6 7 21 8 19 10 17 10 14 11 12 12 10 12 9 13 8 13 7 13 6-7-3 13 5 15 4 15 3 15 3 15 2 14 1 14 0 13-2-8 2 11-3 11-4-8 3 10-6-7 4 9-7-6 6 8-9-5 6 6-10-4 6 5-11-3 7 5-12 3-12 2-12-1 8 1-12-2-11-4-11 4 7-7-11-9-10-11-10-15-8-19-7-21-7-22-4 7 1-23-3-22-1-21 2 7-2-20 5-17 7 6-3-16 10 6-4-14 12 7-8-12 15 4-6-10 17-10 17 4-7-7 18-6 18-4 17 2-8-3 16-1 14-1 14-2 7"/>
<path d="M8143 7657l 6 0 6 1 7 1 8 1 9-1 9-1 10-1 11 0 12-1 13-2 13-2 13-2 7 3"/>
<path d="M8425 7491l-7-3 5 2 6 2 8 2 8 2 8 3 10 2 11 1 11 2 13 2 13 1 14 1 14 1 14 1 14 0 14 1 13 1 12 1 12 1 11 2 10 2 10 3 7 3 8 4 7 4 6 5 4 7 4 8 2 7 2 9 0 9-2 11-2 7-4 12-7 14-3 7-9 15-11 17-5 6-13 17-15 17-8 8-16 17-19 17-20 17-20 17-21 17-21 16-20 16-20 17-19 17-18 17-17 17-16 15-14 14 5-5-11 13-10 12-8 11 4-6-6 9-4 6-5 8 4-6-3 6 6-15 0 4-2-7 3 3-7-2 7 2 8 0 10-2-8 2 13-3 13-5 15-5 16-6-7 3 17-8 18-7 8-3 21-8 22-8 23-7 26-7 26-7 28-5 6-1 28-4 28-3 3 1 1 4-1 3-1 4-3 3-4 4-3 3-3 1"/>
<path d="M9075 7629l-8 1 6-2 7-2 7-1 8-2 10-2 10-2 12-3 12-3 13-3 13-3 14-4 14-5 15-6-8 3 15-6 14-6 7-3"/>
<path d="M9097 7744l 8 0 8 0 10-1-8 1 10-2 11-3 12-4 13-6-7 3 15-6 16-8 17-9 8-3"/>
<path d="M9690 7359l 1 5 1 5-1 6-1 8-2 8-3 9-3 9-5 11-6 13-6 13-8 15-8 17-9 18-9 20-10 21-10 22-11 24-11 23-12 24-11 22-10 22-8 21-7 19-5 17 2-6-3 15-1 13 0 11 1 9 1 8-2-7 2 7 4 5 6 4-7-3 8 3 10 1 13 0 16-2 19-3 23-3 26-3 27-2 27-3 28-4 29-5-5 1 31-6 32-8 33-8 34-9 34-10 33-11 31-12-4 2 30-13 3-1"/>
<path d="M9846 7608l-2 6-4 7-4 8-4 8 3-7-5 11-4 11-4 14 2-8-3 14-2 16-1 16-2 18-1 18 0 18 0 19 1 19 2 20 1 21 1 23 2 24 2 25 0 26 0 27 0 27 0 28 0 27 1 26 1 27 1 32"/>
<path d="M5340 4192l 0-3 1-4-1 8 0-3 0-4 0-4 1-3-1-3-2-3 4 7-2-4-2-3-3-3-3-3-4-2-4-1 8 1-4 0-4-1-5 0-4 1-4 0 8-1-4 1 7-3-4 2 6-5-3 3 13-15-3 4 4-7-2 5-3 5-1 5 2-7-1 5 0 5 1 5 2 6 1 6-2-8 2 6 3 4 5 4 5 2 2 8-2 7"/>
<path d="M8100 4096l-4 0-8-1-4-2-4-3-4-2-4-3-4-4-3-4-4-3-3-3-3-3 8 1-4 0 21-10-4 3 13-15-4 6 3-7-2 6 2-8-1 7 2 7-2-8 2 7 4 7 2 7-2 8-4 7"/>
<path d="M7199 1950l 11 0 9 0 8 2 7 2 8 1-8 1 7-1 8-1"/>
<path d="M7494 1996l 3-21 4 5 4 4 6 3-7-3 8 2 10 2 11 2 11 1 12 1 12-2 12-1 11-2 7 3"/>
<path d="M7755 2028l 5 2 5 2 5 2 5 2-7-3 5 1 6 0 5 0 6 0 6 0 7-1-8 1 6-1 7-2 8-1 10-2 10 0 11-1 10-1 11-1 10 1 9 2 7 3 7 3"/>
<path d="M8098 2134l 1 5 1 4-2-7 2 5 2 5 2 6 2 5 2 5 3 4 5 4 6 4 6 4 6 4"/>
<path d="M8686 2513l 8 1 8 1 7 0 8 1 8 1 9 0 7 1 7 2 7 1 7 0 8 1 8 0 7 0 8 0 9 1 6 3 2 7"/>
<path d="M8957 2657l 4 2"/>
<path d="M9088 2778l 1 6 1 6 0 7 0 6 2 7-2-7 3 6 5 5"/>
<path d="M9230 2958l-2 7-2 7-2 6 2-8-1 6 1 5 1 4-2-7 1 3 2 4 3 4 3 5 4 4 5 3"/>
<path d="M9372 3124l 1 4-1 6 0 7 0 6 0 6 0 5-1 7 1 7 1 7-2-8 2 8 2 7-2 8"/>
<path d="M9470 3316l 2 5 2 6 0 6 0 6 1 6 1 7 0 6 0 6 1 6 1 6-2-8 2 5 2 8 1 5"/>
<path d="M9598 3649l 2 5 1 5 1 6 0 7 2 7 2 7 1 8"/>
<path d="M9618 4044l 1 6 2 6 0 6 1 7 2 7 1 7 2 6 2 7-2-7 2 7 2 7 3 7 2 7 2 8-2-7 3 8 3 8"/>
<path d="M9710 4330l 0 5 0 5 0 6-1 8 0 8-1 9-1 10-1 9-1 10-1 10-1 11-1 10-1 10 0 10-1 11-2 10-1 10 0 11-2 8-4 7-5 6-8 9"/>
<path d="M9716 4713l-2 5-2 6-3 7-3 7-3 8-3 8-3 7-3 8-2 8-3 8-3 8-2 7-3 7-2 8-3 8-2 8 2-7-2 8-2 8-3 7"/>
<path d="M9680 5030l-4 6-4 7-4 8 4-7-4 8-4 10-4 10-4 11-4 12-4 11-4 11 2-8-2 11-2 11-2 11-2 12-2 8"/>
<path d="M9601 5449l-1 6-1 6 2-8-2 7-2 8-2 8-2 9-2 9-3 10-3 9-3 10-3 9-4 10-4 10-3 9-2 9-2 9 2-7-2 8-2 9 0 8-1 7 0 6"/>
<path d="M9495 5791l 6-4-4 4-3 4 7-9-3 4 5-6-3 5-4 5-3 7-4 8-5 8 4-7-4 9-5 10-3 9-4 10-2 10-3 10-3 10 2-8-2 11-2 10-2 9"/>
<path d="M6941 6191l-3 8-3 9-4 11-5 12-5 14-6 15-6 15-6 16-7 17-7 16-6 15-6 15-5 14-4 15 2-8-3 13-2 13-2 11-1 10 0 9 1 8-2-7 2 7 4 5 4 4 6 4-7-3 7 2 9 1 9 0 11-2-8 2 12-3 12-3 15-5 14-5-7 3 15-7 15-6 15-8 14-8 15-8-7 4 14-9 13-8 12-8 11-9 10-9 11-9-6 5 11-10 13-13 14-14 6-5"/>
<path d="M12246 3590l-2 2 24-34 1 3-2-7 3 5 5 6 6 7 6 7 7 7 8 7 8 7 8 7 8 8 9 8 8 8 10 8 9 9 10 10 9 10 9 11 9 10 9 11 9 10 9 10 9 9 9 9 10 9 10 8 10 9 10 8 10 9 11 9 11 8 11 8 12 8 11 8 12 9 12 8 12 9 13 9 13 9 14 10 15 9 14 9 14 8 13 9 14 8 12 7 12 8 10 8 10 7 9 8 9 8 9 8 9 9 8 10 9 10 9 10 8 9 7 9 8 9 7 8 7 7 7 8 8 8 8 8 7 7 8 8 7 7 8 7 7 6 8 6 8 7 8 6 8 5 9 6 10 6 9 7 11 7 10 7 11 7 10 8 11 8 11 9 11 9 11 9 11 10 10 10 11 10 11 11 12 11 11 12 13 12 13 12 13 12 14 12 15 11 14 12 14 11 15 11 14 11 14 11 14 10 14 9 13 8 12 8 12 7 11 7 10 7 10 6 10 7 10 8 9 8 9 8 9 9 8 10 7 10 8 11 8 11 8 12 8 12 8 12 9 14 9 14 8 15 9 15 9 15 10 15 10 15 11 15 11 15 12 15 13 15 13 16 15 16 16 17 17 18 18 19 18 19 18 18 18 19 18 17 18 17 18 17 19 17 20 17 20 17 21 17 21 17 22 17 23 17 22 18 23 17 22 18 21 18 19 19 19 19 17 18 16 17 16 17 15 16 16 17 16 16 16 17 17 17 17 17 19 17 20 18 20 19 21 19 20 19 20 20 19 19 18 19 17 20 16 19 16 20 14 19 14 19 14 20 14 19 14 18 14 18 15 17 15 17 15 17 16 16 17 17 18 18 18 18 20 20 20 21 20 22 21 21 20 22 21 21 20 22 20 21 20 21 21 20 22 21 23 22 24 22 25 22 25 23 26 24 26 23 25 22 24 21 22 21 22 19 20 19 20 19 20 17 20 18 19 17 20 17 20 18 21 18 21 20 22 21 23 23 23 24 24 25 23 27 23 26 23 27 23 27 25 27 26 26 29 26 30 27 32 26 33 28 33 26 32 26 30 24 28 23 28 23 28 22 29 22 30 21 30 21 31 21 30 20 29 20 29 21 26 21 25 21 23 23 22 22 21 23 21 22 22 22 22 23 22 21 23 21 22 20 21 17 21 16 20 15 20 13 19 12 18 10 16 9 16 9 14 8 14 7 12 7 11 7 9 7 9 8 8 8 7 8 7 8 7 8 6 8 6 8 5 8 5 8 5 9 4 8 5 9 4 7 3 8 4 6 3 6 4 5 4 5 4 4 5 3 6 2-7-3 5 1-8 2 5-2-20 12 3-3-12 20 2-6-1 8 0-8-2-10-3-10 1-8 3-8 4-6 5-6 6-6 7-4"/>
<path d="M12855 3897l 6-5 6-6 7-6 9-6 9-8 11-7 12-8 7-4 13-8 14-7 14-8 15-8 15-9-6 4 15-10 15-12 15-12 15-13-6 5 16-14 16-15 6-5 17-14 18-15 20-16 20-16 20-17 20-16 20-17 20-17 19-16 17-15-4 3 16-14 14-13 5-4 12-13-4 5 10-11 10-8 6-5 8-8 7-5 5-4 4-4 7-4 8-3 8-1 7 2 2 8-2 8-4 7"/>
<path d="M13830 3860l 6-5 5-4 7-4 8-5 6-4 10-6 11-6 14-7 16-8 18-10 20-10 21-12-7 4 21-14 21-15 21-17 22-17 22-17 25-19 27-20 28-20 29-20 31-21 30-19 31-19 29-18 25-17 22-17 20-15 17-15-3 3 16-14 3-3 15-15 13-13-4 4 11-10 5-5 9-9 8-7-6 5 6-6 5-6 7-5 7-4 7-3 8-1 7 3 2 7-2 8-4 7"/>
<path d="M15197 5641l 1-5 2-6 3-7 3-6 4-6 4-7 5-6 5-6 5-7 6-7 7-7 7-8 8-8 9-8 9-9 10-9 11-11 11-12 13-13 12-14 13-14 12-15 13-15 13-15 14-15 14-17 15-17 16-16 16-17 16-17 16-18 16-18 16-17 16-16 15-15 14-14 13-14 11-12-5 5 8-11 7-9 5-6 7-9 7-7-5 6 5-7 5-6 4-6 4-5 3-4 3-5-4 7 2-5-3 7 2-5 2-5 2-5 1-5 1-5 3-7 4-7 5-6 6-5 7-4 8-3 8-2 6 3 3 8-1 5-1 5-2 7"/>
<path d="M16216 5686l-1-6 1-7 1-6 3-7 4-5 4-7 4-6 5-6 5-6 7-7 6-5 9-7-6 5 10-9 10-10 11-11 11-12 11-12 11-13 12-14-5 6 11-14 12-16 13-16 5-6 13-16 14-16 15-16 16-17 16-17 18-17 18-17 18-17 19-17 19-18 19-18 19-17 17-17 15-16 15-15 13-13 11-13 10-11 9-10 8-8 7-7 7-6"/>
<path d="M16309 6230l-7-3 8 2 7 1 7 1 10 1 10 1 11 1 12 0 12 1 13 1 15 1 16 1 17 1 18-1 18-1 20-1 19-1 18-1 18-1 17 0 16-1 15-1 14 0 11-2 10-1 7-1 4 1 7 3 2 8 0 4-2 8-3 6-4 8-4 8-4 9-4 10-6 11-5 13-6 13-5 16-5 17 2-8-4 19-5 21-4 23-6 23-5 25-6 26-6 25-6 25-6 24-5 22-4 19-3 17-2 13-2 12-2 14-2 7-3 14-3 12-2 10 2-8-2 9-2 8-1 7"/>
<path d="M9751 2884l-3-1-3-7 0-8 4-7 1-4 4-7 5-6 6-5 6-5 8-5 7-4 9-4 10-5 11-4 7-3 12-4 11-4 13-3 13-2 8-1 13-2 12-2 12-1 11-2 11-1 11 0 11 0 9 0 9 2 7 3 6 3 4 4 3 8 1 7-1 7-2 8-3 9-4 7-6 10-8 13-10 15-10 14-5 7-11 14-11 13-11 12-8 9-12 11-12 11-11 9-7 5-10 7-10 5-7 5 7-4-5 4 18-29-1 4-2-7 3 3-7-2 7 2 7 1 9 0 9 0 9-1 10-1 10-1 9-1 10-1 10-1 9 0 10 0 8 0 9 1 9 2 8 3 9 2 9 3 6 3 9 3 9 4 8 5 8 5 7 6 6 6 5 8 4 8 3 8 2 8 2 9 2 9 0 11-1 10-2 10-2 8-4 10-4 9-3 8-5 9-7 9-4 6-7 9-8 9-9 9-9 8-10 8-7 4-11 8-11 6-11 6-11 6-7 4-11 5-11 4-11 3-10 3-7 1-10 2-9 0-9 0-9 1-8 0-7 0-7 0-8-1-7-2-6-1"/>
<path d="M10796 -391l 7-2 6-1 5 0"/>
<path d="M11054 -386l 4-8 5-7 4-7 5-8 5-7 5-6 5-7 5-5 5-6 6-5 4-4 7-4 7-3 8-1 4 0 7 2 2 8 1 5-2 10-2 8-4 13-6 15-7 17-7 18-9 18-9 20-10 20-10 20-10 20-9 19-9 19-7 18-5 16-4 14 2-7-1 11 2 7-2-7 7 3-7-3 10 0-8 1 11-4-7 3 13-7-7 4 14-9 16-11 16-12 17-14 17-15-6 5 17-16 14-17-4 6 13-17 10-16 9-13-4 6 7-12 4-9-3 7 2-7-1 8 0-3 11 8-3 0 15-5-6 4 6-5-7 5-8 7 8-8-7 9-7 10 4-7-7 11-5 11 3-7-4 10 2-7-2 9-1 10 0 8 2 8-2-8 3 7 4 7 6 6 7 6 8 5 9 4 10 4-7-3 9 3 9 2 9 0 9 0 10-1-8 1 9-2 10-4-7 3 10-5 11-6-7 5 10-8-6 5 9-9-5 6 8-10 9-13-5 7 8-14 7-15-3 7 5-16 4-15 2-15-1 8 1-16-2-16-4-16-5-18-5-17-6-16-6-14 3 7-6-12-8-10-7-7-8-6-7-3-6-1 8 1-6 1 15-5-5 2 15-13-4 4 8-13-2 5 2-7-1 6-1 7 1 7-2 8-4 7"/>
<path d="M11496 -327l 9-1 9-1 11-1 11-2-8 1 11-2 12-3-7 3 11-5 11-5 11-7 11-6 11-6-7 4 10-7 10-6 9-8-6 5 7-7-5 6 6-9 6-8-4 7 5-8 3-8-3 8 1-7-1 7 0-6-3-7 3 7-4-7-6-7-7-7-8-5-9-4-10-3 8 2-10-2-11 0-11 2-13 3 8-2-13 4-14 5-14 6 7-3-13 7-13 8 7-5-12 9-10 9-10 10 8-9-7 11 4-7-5 11 3-7-4 12-3 12 2-7-2 13-1 15 1 15 2 15 4 15-2-7 5 14 7 14 7 13 8 12 9 11 10 10 11 8 11 6-7-3 12 4 13 3 14 1 14 0-8 1 14-3 16-5-8 3 17-8 18-10-7 4 18-12 20-12 19-12 6-4"/>
<path d="M11853 -449l 6-4-4 4 8-8-4 5 5-7-4 6-4 7 3-7-3 8-3 9 2-8-2 11-2 8-3 12-4 13-4 14 2-8-3 14-2 16-3 15-3 17-2 15-2 15-2 13 0 13 0 10 2 7-2-7 3 4-7-3 7 2"/>
<path d="M11839 -643l-11 2-10 2 8-1-10 2-7 2-9 1-8 2 8-2-7 2 14-8-4 2 17-37 3 5 2 8-2 8-4 7"/>
<path d="M12180 -485l-8-6-9-5-9-6-10-5-11-6-11-4-12-4-12-3 8 1-12-1-11-1-12 2-12 2 7-2-13 5-12 6 7-4-13 8 7-4-12 10 8-8-12 13-10 14 4-7-9 15 4-7-9 17-6 16-5 16 2-7-2 15 0 15 2 15 3 14-2-8 5 13 7 11 8 9 10 7-7-3 13 5 15 2 18-1-8 1 20-4 21-7 24-9-8 3 24-10 23-13-6 4 22-14 19-15-5 4 17-15 13-15-4 4 10-14-3 5 6-13-2 5 3-10 1-10-1 8 0-8 0-7-3-6 4 7-4-3-6-2 8 1-6-1-7 1 8-2-8 2-8 3 8-3-9 4-8 5 7-5-8 6 8-8-5 6 4-7-4 7 4-7-3 8 2-7-2 9 0 11 1 12 2 14-2-8 5 15 5 17 7 19 6 21 6 22 2 8 6 23 5 24 4 25 4 23 3 24 2 25 2 25 0 27 0 29-2 28-4 29-3 29-4 29-4 29-6 28-6 27-1 4-8 26-10 25-11 24-2 4-12 22-13 20-3 4-14 18-14 16-5 5-15 15-15 11-5 4-16 9-4 3-17 7-18 5-6 1-18 2-18-2-7-1-17-6-16-10-15-14-14-17-12-21-11-23-3-7-9-25-7-29-5-32-5-36-4-38-4-39 1-4"/>
<path d="M12313 -849l 0 9 1 10 2 12 1 14 3 15 3 18 3 21 2 21 2 23 2 24 2 25 1 26 0 26 0 26-1 26-1 26-2 25-2 25-2 24-2 22-3 21-3 17-4 16-2 6-3 12-3 9-3 6-4 6-3 3-8 8-6 4-6 4-8 1-7-1-4-3-3-7-2-9 1-11 1-8 2-13 3-14 6-15 3-8 7-15 7-15 7-15 8-14 5-6 8-12 6-6 8-11 10-8 6-5 9-8 9-7 8-5 7-4 8-5 8-3 6-3 8-3 6-2 8-1 6-1 7 1 6 1 7 2 7 3 6 4 5 4 4 6 3 7 2 7 2 9 0 10 0 11 0 12-2 13-2 13-1 14-2 14-1 14 0 13 0 12 0 12 1 11 2 10 1 8 2 8-2-8 3 5 5 3-7-3 7 1-8 1 8-3-15 7 10-5 11-10-6 5 14-13 15-14"/>
<path d="M12692 -858l 7-3-5 3 6-4-4 4 13-15-4 6-4 7 4-7-3 8-3 9 2-8-3 10-1 11-1 12 1 14 1 16 2 19 1 20 1 22 1 23-1 25-1 25-2 25-2 26-3 25-4 24-4 25-5 24-5 23-6 22-4 22-4 20-2 18-1 16 1 13 0 12 1 10 2 9-2-8 2 7 3 6 3 4 5 3-7-2 7 2 7 1 8-1 9-1-8 1 10-3-8 3 11-6-7 5 12-8 12-9 14-9 15-11 16-12 7-4 7-3 8-2"/>
<path d="M12582 -570l-6 0-8-2-4-2-4-7-1-5 0-8 1-5 3-7 3-5 5-7 5-6 5-6 6-5 8-6 7-4 10-6 14-7 16-7 8-3 19-7 24-6 26-6 7-1 28-4 29-4 31-4-5 1 35-7 40-9 40-9"/>
<path d="M13349 -509l 5-6 6-6 7-7 8-7 9-8 6-5 10-8 12-7 11-7 7-5 12-7 12-6 8-3 12-4 12-3 12-2 7-1 11-1 10 1 9 2 7 3 9 3 7 6 6 7 5 8 4 9 3 11 3 7 2 12 2 12 1 13 0 13 0 16 0 16 0 18-1 18-1 17 0 17 0 17 0 16 1 15 1 14 3 13 2 12-2-8 3 10 4 9 4 8 5 6 6 5 7 3-7-2 8 1 8 0-8 1 9-1 9-3"/>
<path d="M13686 -591l 7-2-6 3 7-3-7 3 7-4-7 5-7 6-7 7-7 7 8-8-8 8-7 9-8 11 5-6-10 13-9 14-10 15-10 16-11 18-10 19-11 20-11 21-13 21-13 21-15 20-15 21-4 6-16 20-16 20"/>
<path d="M14547 -406l 6 5 4 5 4 6 4 6 3 6 2 7 3 7 3 7 4 6 5 5 5 4 6 4 6 3 6 3-7-3 7 3 7 1 7 1 7 1 7-1 8-1-8 1 8-2 9-3-8 3 9-4 9-5-7 4 9-6 8-6 8-7-6 5 7-7-5 6 6-8-4 7 4-9-3 7 4-9 2-9-1 8 0-9-1-10-3-10-5-11 4 7-7-11-9-11-10-11-12-10-12-10-13-9-12-7-11-7-11-4-10-3 8 1-10-1-8 0-8 1 8-1-6 2 7-4-5 3 23-26-1 2 0-15 3 2-7-3 7 1 8 0 10-1 12-2-8 1 12-2 8-1 14-3 14-2 16-2 17-1 17 0 16-1 17 1 16 1 15 2 14 1 13 1 12 1 10 1 10 1 8 1 6 1 7 3 6 3 4 4 2 6 2 7 1 7 0 7 0 8-2 9-2 9-1 9-2 9-2 9-2 9-2 8 0 8 0 7-2-8 2 6 5 4-7-3 6 1 7 0-8 1 8-2-8 3 8-4-7 4 7-6-6 5 7-7-5 6 6-8 7-8 5-10-4 7 6-9 5-10 5-9 4-8 5-8 4-7 4-7 4-6 5-6 5-4 6-5 7-5 5-2 7-3 8-1 5 1 7 2 6 4 5 6 4 7 4 8 4 8 4 8 4 7 5 6 7 6 7 5 9 4-7-3 9 3 11 2 12 0 14-1 14-2-8 2 16-4 17-5 17-7-8 3 18-8 17-9-6 4 17-11 17-12 17-14-6 5 15-15 16-16-5 5 15-17 15-20 15-21-4 5 14-23 13-24 12-26-2 5 12-28 10-28 9-30 8-31 6-31 5-31 4-31-1 4 3-31 1-29 0-26-1-24-3-19-6-16 2 4-6-11-7-8-7-6-7-5-7-3 8 2-6-1 7-1-6 2 7-4-8 5 7-5-8 8 8-8-9 10 5-6-9 13-10 17 4-7-10 21-10 23-10 27-10 30-10 31-9 33 1-5-7 35-7 36-5 37-5 37-4 37-2 35-2 33 0 29 0 28 2 24 3 22 5 20-2-5 6 17 6 14 6 12 6 9 6 7 5 6 5 3-7-3 7 0-9 2 8-3-15 7 8-5 10-9-6 6 10-12-5 6 12-14 13-17 13-18 14-18 14-18 13-18 12-17 11-14 8-13 8-11 5-9 4-5-8 13 1-1 31 6-2 3 8-8-5 6 5-7-6 9-7 10-6 10-6 11 4-7-5 10-5 11-4 10-3 9-3 9 2-8-2 8-1 8 1 8 1 7-2-7 4 6 5 6 6 3-7-3 7 2 8 0-8 1 9-2-7 2 10-4 11-5 13-7 14-8 14-8-7 4 14-9 12-9 12-9 10-8-6 5 10-8 7-8 6-5 6-5 2-2 7-4 8-3 8-1 7 3 2 7-1 2-2 8-2 5-2 7-3 7 2-7-1 7-1 9 0 9 0 11 0 12 0 15 0 16 1 19 0 20-1 22-1 24-2 26-3 26-4 27-5 27-7 28-2 6-7 28-9 27-9 27-9 27-9 26-9 26-10 26-10 25-10 24-10 22-2 4-12 21-11 19-12 17-3 4-13 15-5 5-12 13-12 11-5 4-12 8-7 3-12 4-7 2-11 0-8-1-10-3-9-8-7-11-3-7-6-15-4-20-2-23 0-27 2-29 1-7 3-31 5-31 5-31 6-30 7-28 8-27 8-25 10-24 2-4 10-22 12-22 2-3 14-21 15-20 2-4 17-19 19-19 4-3 20-18 23-18 23-18 23-17 24-16 22-15 23-14 4-2 3-2 4 0 4 1"/>
<path d="M16419 -518l-5 4-6 4-6 4 7-5-7 5-6 7 8-8-7 8-6 9 4-6-7 10-7 12-6 12 4-7-6 12-5 13-3 12 2-8-3 13-1 11 1 8-2-7 4 6-7-3 7 3-8 1 9-2-8 3 11-5-7 4 13-8 15-11 18-12 19-13 20-14 19-12 18-12 16-11 14-11 11-8 8-7 7-3 7-3 8-2 5-1 7 3 2 7 0 5-2 8-2 8-4 8-3 8-4 6 2-7 0 3-9-10 5 0-16 4 7-3 8-5-7 4 7-4 7-5 7-4 7-4 7-4 8-3 7-3 8-1 6-1 7 2 7 2 6 4 6 5 7 2-7-2 6-1-23 8 5-4-11 12 4-6-4 7 3-6-4 8 2-6 1-6-1 8-1-6-2-6 4 7-3-5-4-5-4-4-3-4-4-4-4-3-4-7 1-8"/>
<path d="M16887 -561l 4-6-2 6 3-7-2 6 2-8-1 7-2 8-1 9 0 9-1 10-1 10-1 11 0 12-1 13-1 13-1 13-1 14-1 12-1 11-2 9-2 8-4 7"/>
<path d="M16890 -814l 8-2-6 2 7-3-6 3 19-19-3 4 4-22 5 2 2 8-2 8-4 7"/>
<path d="M17220 -929l 6-4-4 5 12-15-3 7 3-7-2 7 2-7-2 8-1 10-1 10-1 13-1 14-1 17-2 18-2 20-2 23-4 25-6 27-7 31-2 6-8 30-10 31-10 31-10 31-12 28-12 28-13 26-2 3-13 26-13 24 2-3-11 22-8 20-6 18-3 14 1-6-2 11 0 8-1-6 2 5 6 2-7-3 9 0-8 1 11-2 14-5-8 3 16-7 17-10-7 4 17-11 17-13-6 5 16-14 14-15-5 6 11-14 9-14-4 7 7-13-3 7 4-13 1-11 0 7-1-11-4-11 3 7-5-12-8-12-10-14-12-14-14-15-16-14-17-14-17-12-17-10-17-7-16-5-15-4 8 2-14-2-12 0-11 0-7 0-8-1-2-2-3-7 1-7 3-8 4-6 5-6 6-6 7-4 6-3 7-3 13-4 17-6 22-6 25-8 26-7 26-8 27-9-5 1 26-10 26-13 25-13 24-13 24-14 24-13 22-13-4 2 21-12 20-13 18-14 17-15-4 3 15-15-3 3 12-16 11-17-3 4 8-16-2 5 5-14 4-11 2-10 0-7-1 7-1-3 19 7-4 1 13-8-5 6 13-15-7 10-7 13 4-7-7 16-7 17-6 20-6 19 2-7-5 20-4 22-3 23-2 25-3 26-4 28-4 29-3 28-4 28-5 26-5 25-5 23-2 4-5 22-6 19-5 16-4 13-2 8 2-6-1 2-2 8-3 6-5 6-7 8-6 4-7 3-7 2-7-1-3-7-1-1 1-8 3-7 3-7 5-10 5-6 8-12 12-14 5-6 13-15 16-16 16-17 17-17 16-17 15-15 13-13 5-5 12-11 11-9 9-6 7-4 8-4 7-3 8-2 8-1 7 0 7 2 5 3 5 4 4 5 2 6 2 6 2 8 2 6 1 7 1 7 0 8 1 9 0 8 0 8 0 8 2 8 1 7 2 7-2-8 2 6 4 5 5 3-7-2 7 0 9-1-8 1 10-3-8 3 12-4 12-7 13-7-7 4 14-10 15-10 14-10 14-10 13-10 10-8 8-5 7-4 8-3 8-1 5-1 7 3 1 4 2 7-1 7-2 8-3 10-5 11-5 11-4 7-6 11-5 11-5 9 4-7-4 9-3 8 2-8-1 8 0 7-2-8 2 7 5 5 6 3-7-2 8 1 7 1 9-1 8-1-8 2 8-2-7 2 9-3 9-6"/>
<path d="M17826 -797l-6 3-6 2 7-3-6 3 6-4-4 4 16-22-3 6 2-7 0 7-2-7 3 8 4 8 7 9 7 8 8 9 8 8 8 8 8 7 6 7 5 8 3 8 2 8 2 7 1 9 0 9-1 11-2 12-3 13-2 8-4 14-5 14-6 14-7 14-4 7-7 14-8 13-7 12-6 11-5 11 3-7-4 9-4 9-2 7 2-8 0 6-2-7 4 5-7-3 7 2 7 0-8 1 8-2-7 3 7-4 7-4-7 4 7-6-6 6 7-8-5 7 6-9 7-9 7-9 7-9 6-8 6-7 5-6 6-6 6-5 6-4 6-4 8-3 8-1 6-1 6 2 6 3 6 3 6 5 6 4 6 5 7 4 6 3 7 4 6 3 6 4 6 5 6 5 7 5 7 6 6 5 7 5 2 8-2 8"/>
<path d="M18792 -700l 1-5 2-4 1-5 2-4 0-4-1 8 0-3 3 7-2-2 7 1-4 0-5 1 7-2-7 3-9 4 7-4-9 6-11 7 6-4-12 8-12 10-13 11-13 12-12 13 8-8-12 13-11 13 5-6-10 14-8 12-7 12 4-7-6 11-3 11 2-8-2 10 0 10 2 9-2-7 4 9 6 8 8 9 13 8 15 8-7-3 17 6 17 5 15 3 7 3"/>
<path d="M18961 -512l 8-2-5 2 7-3-3 2 6-5-3 3-4 3-4 4-4 4 8-8-4 3-3 5 4-7-2 5 5-15 0 7-2-8 2 6 5 3 2 8-2 8"/>
<path d="M19301 -721l 3 7-2-3-4-1-4-1 7 1-5 0-7 0-7 1 8-2-8 3 7-4-8 4-9 6-9 6 7-4-9 6-10 8-9 8-10 9-9 9 7-8-9 10-9 11-9 12 5-6-8 11-7 11-5 10 3-7-4 10-3 9 2-7-2 9 0 8 1 9-2-8 3 8 5 7 6 6 7 6 8 6 10 5 10 4 12 5-7-3 13 5 14 4 13 4 15 4 14 3 15 2 16 2 7 3"/>
<path d="M19530 -496l-2 4 10-21 1 4-2-8 3 5 3 4 4 3 5 4 4 3 2 8-2 8"/>
<path d="M11414 853l-3-6-2-7-2-8-2-8-1-7-2-6-2-6 4 7-3-4-4-4-4-1 8 1-5 1 14-5-5 3 6-5-6 5-6 6 8-8-7 7-7 10 5-7-7 11 4-7-7 13-5 14-5 14 2-8-3 15-2 15-1 14 1 14 2 13 3 12-2-7 5 11 6 9 7 9 8 6 10 4-7-2 11 2 14-1-8 2 15-3 17-6-8 3 18-8 17-10-7 4 17-11 15-13-6 5 15-13 12-14-5 6 11-13 8-13-5 6 6-11-3 7 4-10 2-9-1 8 1-8-1-6-3-4 4 7-4-4-5-3-5-2-5-1-2-2-4-7 1-7 3-8 5-6 5-6 6-6 2-1 7-4 5-3 8-3 9-5 10-5 12-6 14-7 15-9-7 4 17-10 19-12 21-12 7-4 22-13 24-14 26-15-5 3 27-17 28-20 27-22-4 2 26-25 22-26-2 3 20-26 19-26 16-25-2 3 14-24 12-24-2 4 10-23 6-23 5-22 1-21 0 5 0-20-2-17-4-15-5-12 3 6-6-8-7-6-6-3 8 1-8 0 8-1-9 3 13-8-10 8 8-8-12 12-12 17 4-6-15 21-16 26-19 29 3-5-19 34-19 39-17 44-16 50-15 54-15 57 1-3-14 61-12 64-11 66-10 66-7 64-6 62-4 61-1 58 0 55 3 52 4 46 6 40 7 35-1-4 9 29 11 23 13 16 14 11-5-2 14 4 14-2-14 4 13-7-12 9 12-11 13-16-5 7 13-20-4 7 14-23 14-27-3 6 12-30 10-32 6-34-1 4 2-35-2-35-4-34-7-33-9-31-12-29 2 3-13-27-16-25-16-23-16-21-17-17-16-13-16-10-15-7-14-3-12-3-10-3-6-2-4-4-4-7-1-4 1-8 2-5 3-7 4-7 5-5 5-6 6-6 8-6 7-4 11-6 15-6 7-3 18-7 21-7 23-6 24-6 24-6 24-5 23-5 23-4"/>
<path d="M12593 796l-6-3-7-3-8-1 8 1-7 0-8 0-9 1 8-1-9 2-9 3-10 4-11 4-12 5 7-3-11 6-11 7 6-4-11 9-11 10 8-9-10 12-9 12 5-7-8 12-6 12 4-7-4 11 2-8-3 10 0 8 1 8-2-8 3 6 5 5 7 3-7-3 7 1 9 0-8 1 11-2 11-3 12-5-7 3 13-6 12-6-7 4 12-7 10-8 10-7 9-8 8-6 7-6 7-4 6-3 7-3 8-2 5 0 7 3 4 3 3 6 2 8 3 7 3 8 3 7 4 6 5 6 5 4-6-3 7 2 7 0-7 1 9-2-8 2 10-5-7 4 11-8 13-10 14-12-6 5 15-14 6-5 18-16 20-16 21-17 21-19-4 4 21-21 21-23-3 3 19-27-2 4 18-29 16-31 14-31-2 3 12-32 11-32 9-31 7-30 6-28 4-27 2-25 0 4 1-24-1-21-3-19-5-17 3 5-7-12-7-7-5-5-5-1 8 1-6 0 8-1-7 3 14-9-7 6 8-8-8 8 5-6-8 11-9 13-9 16-10 16-11 18-12 20-13 23-14 26-16 29 3-5-17 33-15 37-13 39-12 41 1-4-10 40-8 40-7 39-4 37-2 37 0 34 3 30 6 28-2-4 8 24 11 21 13 16 16 12 18 7-4-2 19 4 19-1-6 1 20-6-6 3 20-11-6 4 21-16 22-20-5 4 25-23 26-28 28-29 29-31 28-31 27-31-3 3 26-33 24-33-2 3 20-35 17-35-2 3 13-35 10-34 8-33 4-32 0 4 3-31 0-29 0-28-3-27-3-25-6-22-7-19 2 4-8-15-10-12-10-9-12-6-11-5-10-3-10-3-9-1 8 1-9-1-8 1 8-2-8 2 7-3-7 4 7-5-7 5 8-8-6 7 5-7-5 9 3-7-5 10-5 13-5 16-5 20 2-8-6 22-6 25-7 28-7 31-8 33-7 36-7 36-5 37-4 38-2 36-1 36-1 33 1 31 3 28 4 26 7 24-2-3 9 21 10 19 11 16 13 14 15 11 16 9 18 7-6-2 19 5 20 4 6 3 1 6"/>
<path d="M14297 507l-4 6-8 8-6 7-7 6-8 6-9 7-9 7-9 7-6 4-9 7-10 6-12 7-11 6-12 6-7 3-12 6-12 4-11 4-10 4-9 4 7-4-7 4-6 3 14-12-2 2 8-28 4 2-7-3 6 3 7 2 7 1 8 1 7 2 8 2 8 1 9 1 8 0 9 0 9 2 9 2 8 2 7 2 7 2 7 2 7 1 7 0 7 1 6 1 6 1 7 1 6 2 7 1 6 2 6 0 7 1 8 1 7 2 7 3 7 3 2 7-2 8-3 7-5 7-8 8-7 4"/>
<path d="M14515 556l 4-4 3-4-5 6 3-5 4-5 3-5 4-5 4-5 4-5 5-6 4-5 4-5 7-5 4-4 6-3 6-5 6-3 8-3 6-2 8-1 8-1 7 2 7 3 7 3 7 4 6 4 5 6 5 7 5 9 5 10 5 11 5 12 4 13 2 7 3 14 3 14 3 17 2 19 1 19 1 18 1 19-1 20 0 19 0 20 1 19 0 20 1 19 1 17 2 14 3 13-2-7 3 10 4 10 5 7 5 7 6 5 7 5-7-3 8 3 9 0 10 0-8 1 12-2 12-4 14-4-7 3 14-7 15-8-7 4 16-9 15-11 14-11 14-13 7-4"/>
<path d="M14909 482l-5 5-6 5-6 7-7 8-9 9-11 11-12 13-15 14-15 15-17 17-18 17-19 18-21 19-20 18-21 20-21 19-20 22 4-5-20 24-19 24-18 23 2-3-16 22-15 21-13 19-11 17-9 13-5 11-5 8-3 5-5 7-8 8-7 5"/>
<path d="M15598 679l 6-5 6-5 7-5 8-6 7-4 10-5 12-6 14-7 15-6 16-8 17-8 18-8 18-8 19-9 17-9-7 4 16-10 14-9 12-9 11-9 9-7-6 5 7-6-5 6 4-6-8 14 3-6-1 8 0-5 3 7-2-4-5-4-7-4-9-4-11-3-14-2 8 2-17-2-17-1-19 0-19 1-20 3-19 4 8-2-18 6-17 6-16 7 7-3-14 8 7-4-12 10-11 11 8-8-9 12 4-7-8 13 4-7-7 14-4 15 2-8-3 16-1 17 0 17 3 16 4 16-2-7 7 14 9 14 10 13 12 11 13 9 14 8 16 6-7-3 18 5 19 4 20 3 20 2 21 0 22-2-7 1 21-4 22-5 8-1 6 3"/>
<path d="M16164 589l-8-2-8-1 8 1-9-1-11-1-10 1-12 1-12 3 8-2-13 4-13 5 7-3-14 7-14 9 6-5-14 11-15 12-14 14 8-8-14 15 5-6-12 17-11 18 4-7-9 19-8 18-7 18 2-7-4 16-1 15 0 12 2 10-2-7 3 9 4 6 7 5-7-2 8 2 10 1 13-2-8 1 16-5 19-7-7 3 21-10 25-12 26-15-6 4 28-19-4 3 29-25 26-28-3 3 25-31 22-32-2 3 21-33 18-34 17-34-2 3 15-34 12-36 9-37 8-39 5-39 4-39-1 4 3-37 0-33 0-30-2-26-4-23-6-20 2 4-9-16-11-12-9-8-7-6-6-3 8 1-4 0 15-6-5 3 19-19-4 6 4-7-3 9 2-8-3 12-3 15-3 18-4 22-6 28-7 33-8 39-7 41-6 43-5 43-5 42-5 43-5 43-5 42-4 40-3 37-1 34-1 30 1 25 4 21-1-4 6 16 8 12 10 8 10 6 10 4-7-2 11 0-8 2 14-3 17-7-7 3 21-10 24-11 7-2 7-2 7 3 2 7"/>
<path d="M16565 592l-5-3-5-3-6-2-6-1 8 1-7-1-8 0-9 2 8-2-11 3-12 4-13 5-15 7 7-4-15 9-16 9-15 11 7-5-15 12-13 11-11 12 8-8-10 11 5-6-8 11 4-7-6 12-3 11 2-8-3 10 0 9 2 7-2-7 3 7 6 7 7 6 8 5 10 4-7-3 12 3 13 2 14 0 14-1 14-2-8 1 13-2 12-3 10-3 8-1 8-2 5 1 7 2 1 3 2 8 0 5-1 7-2 8-2 7-2 7 2-8-2 8-1 8 0 8 0 9 1 10 2 11 2 12 3 12 3 13 3 13 4 14 3 14 3 14 2 15 1 16 0 17-2 18-3 18-2 8-5 17-7 18-4 7-10 18-12 17-4 7-14 17-14 17-15 17-8 7-15 15-14 14-13 12-12 9-6 5-11 7-7 3-9 4-8 2-8 2-8-2-8-1-6-4-6-7-6-10-3-7-5-12-3-16-3-18-1-22 1-25 0-7 4-27 6-30 9-31 11-31 12-31 2-4 13-29 15-27 2-3 16-25 18-23 3-3 19-20 20-18 3-3 19-16 19-16 17-15 17-14 16-14 16-14 16-11 16-11 16-11 6-3 16-10 16-9 16-8 15-8 14-8 13-6 8-3 12-5 12-4 10-3 9-2 8-1 8-2 7 0 7-1 7 1 7 0 6 1 7 1 7 0 8-1-8 2 8-2 7-3-7 3 8-4 7-4-6 4 7-5 8-7-6 6 8-8 7-7 8-8-6 6 7-8 6-8 6-7 4-7-4 7 2-6-4 15 0-4 3 7-3-3-5-1 8 1-8 0-8 2 8-2-10 3-11 4-12 5-13 6 7-3-14 7-15 9-14 9-14 10 6-4-13 10-13 10-10 10 8-8-8 10 9-13-5 10-3 10 2-8 0 10 3 10-3-7 5 9 8 9 9 8 11 8 13 7 15 6-7-3 15 5 15 3 15 1 15 0 15-2-8 1 14-4 14-4-7 3 15-6 14-8 15-8-7 4 14-9 15-9 14-10 15-10 14-11 14-12 14-11-6 5 12-12 12-12 10-12 9-10-5 6 7-9 6-8-5 6 3-6-3 15 0-5 3 7-2-2 8 1-5-1-5 1 8-1-6 2 7-3-5 3 15-13-4 5 8-13-3 6 2-8-1 7 1 9 2 8-2-8 3 9 3 8 5 9 4 9 4 9 5 9 3 9 4 9 2 8 2 10 2 10 1 10 0 11 0 9-2 9-2 8-2 8-2 7-3 6-4 7-4 6-4 6-5 6-8 8-5 4-6 5-6 3-7 4-6 2-7 3-8 1-7 2-8 0-9 0-7-1-9-2-8-2-8-1-7-2-5-1 8 1-1 0 30-50 3 1 6 2 8 2 10 3 11 3 12 3 14 3 14 2 15 1 17 1 16 0 16 0 15-1 14-1 13-1-8 1 13-2 8-2 7 3 2 8-2 7-4 7-5 7-8 8-6 5"/>
<path d="M12208 2369l 1 6-1 8 0 9-1 12-1 11-1 12-1 13-1 13 0 14-1 15-1 15-1 16-1 16 0 16-1 16 0 17 0 18 0 18 0 18 0 16 0 16 1 15 1 14 2 13 2 11 1 10-2 8"/>
<path d="M13065 2357l 6-4 6-4 7-4 6-3 7-4 8-3 9-4 7-3 10-4 10-3 11-3 12-3 12-3 8-1 13-2 12 0 13 0 13 1 12 1 12 3 10 3 10 3 7 3 9 4 6 5 5 6 3 7 2 8 1 8-2 9-2 8-4 11-4 7-6 12-9 13-4 7-11 13-12 15-14 15-16 16-7 8-17 16-18 16-18 16-18 16-18 15-16 15-15 15-14 14 6-6-12 14-11 13-10 12 5-6-8 12-7 9-5 7-6 8-5 6 8-13-1 4 0-15 4 2-7-3 7 0 8-1-8 1 8-2 8-2 9-3 9-3 10-3 10-3 11-3 12-4 11-3 10-3 9-3 10-1 8-2 10-1 10 0 9 0 9 0 9 1 9 1 8 2 8 1 8 2 8 1 8 2 7 3 2 7"/>
<path d="M14051 2313l 8-3 8-3 7-2 8-2 8-1 8-2 9-1 10-1 11-1 10-1 10-1 10 0 9 0 10 1 9 1 7 3 7 3 6 4 4 5 2 8 0 6-2 8-1 6-4 7-4 7-5 7-4 6-7 8-7 8-8 8-8 9-10 9-9 9-9 9-9 8-9 8-9 7-8 7-8 6-6 6-6 4 13-15-2 4 3-22 2 4 5 3-7-3 8 2 8 2 8 2 9 2 8 3 9 2 8 1 9 2 8 1 9 1 9 1 9 2 8 3 7 2 7 2 7 3 7 3 5 5 4 5 2 8 1 7-2 8-2 8-3 8-4 7-5 7-4 6-6 8-8 8-8 8-8 8-11 9-11 10-12 11-13 10-12 10-13 10-12 10-7 5-13 9-12 8-13 6-7 4-12 5-14 3-7 2-14 2-15 0-13-2-8-1-14-3-14-6-13-7-4-7 1-8 3-7 5-6"/>
<path d="M15189 2313l 7 3 2 3 2 7 0 7-2 8-2 8-4 8-3 7-5 10-7 10-7 11-8 13-7 13-8 14-7 14-9 13-8 12-7 13-7 11-5 10 4-7-5 10-3 9-2 9 2-8-2 7 1 6-2-7 4 6 6 4 8 4-6-3 9 2 10 0 12 0 13 0 15-1 16-2 18-2 20-3 19-2 20-2 20-2 19-3-8 1 19-3 17-4 17-4 15-4 14-4 12-4 8-1 7 2"/>
<path d="M15298 2451l 3 8-2-7 4 8 3 10 4 10 4 11 4 11 5 12 4 12 2 8 4 12 2 13 2 14 2 14 3 16 3 16 3 14"/>
<path d="M16169 2276l 7-3 8-3 8-1 8-1 9-1 10-2-8 2 10-2 8-2 13-1 15-1 17-1 18 0 18-1 18-2 18-1 16-2 15-1 14-3-8 2 13-3 8-1 12-2 12-1 12-2-8 1"/>
<path d="M16287 2334l-9 3-8 4-9 4-9 4 7-4-8 5-6 4 6-4-5 4 8-8-5 6 9-14-3 7-3 7 2-8-2 8-1 8-1 8 1 8 1 9 3 8-2-8 2 9 4 8 3 8 5 7 5 5 7 4-7-3 8 3 9 1 11 0 11 0 12 0 13-1 13-2 13-2 12-1 12 1 12 2 12 2 12 3 12 5 12 4 12 4 6 3 11 5 10 5 8 6 8 7 8 5 6 5 5 5 3 5 3 6 2 7-1 6-2 8-3 6-3 8-5 6-5 6-8 8-7 7-8 6-7 4-10 7-12 6-7 3-13 6-15 6-15 7-16 8-18 8-19 8-21 7-21 5-7 2-21 4-20 3-20 2-19 2-17 1-17 0-17-1-16-2-16-1-8-2-3-7"/>
<path d="M14105 4262l 3 7-3-4 7 1-3 1 29-18-4 4 5-6-3 6-4 6-4 7-4 7 4-7-4 9-4 10-5 12-4 13-5 14-5 15-5 14-5 15-6 15-6 15-6 16-6 16-6 15-6 16-6 15-5 14-3 12 2-8-3 11-1 9-1 8 0 7-2-7 3 5 5 4 7 2-7-2 7 1 7 0 9-1-8 1 8-2 9-3 10-3 11-4 12-3 11-3 11-2 11-2 12-3 12-4 13-4 12-4 13-4 13-4 13-3 13-4 13-3 12-4 12-3 11-3 11-3 10-3 9-3 7-3 8-1 7 3 2 7"/>
<path d="M14214 4340l 8 1-7 1 8-1-6 3 14-9-5 4 8-8-4 5 8-14-3 6 2-8-1 8-1 11 1 11 1 11 2 13 2 15 2 16 3 16 4 17 4 17 4 18 4 19 3 21 3 21 3 21 3 22 3 22 3 21 2 21 3 19 3 18 2 17 1 16 2 17 1 15 0 14-2 8"/>
<path d="M18221 1925l-1 8-1-4 4 7-3-2-4-3-5-2 8 2-8-1-8 0-11 1 8-2-13 3-13 4-15 6-15 7 7-4-16 9-16 10-16 11 7-5-15 12-14 11-12 11-11 10-9 9-8 8 8-8-6 7 5-7-4 7 4-7-3 6 2-8 0 5-2-8 1 4 4 3 6 3-7-3 8 1 9 1 12 1 14 1 15 1 16 2 16 1 17 2 18 3 19 4 19 6 6 3 19 7 18 8 17 8 16 9 15 9 13 9 12 9 10 9 8 8 6 8 4 8 2 7 1 8-2 8-2 8-4 7-4 7-5 7-8 8-7 7-6 5-10 7-13 6-7 4-15 5-8 2-18 3-19 3-20 3-20 1-20 1-19 0-19-1-18-1-17-2-16-2-16-2-7-1-15-2-14-3-15-3-13-3-11-2-10-2-3-7"/>
<path d="M18540 2012l 7-3 6-2 8-1 7-1 10-1 12 0 12 0 14-1 16 0 17 0 16-1 18-1 21-1 22-2 19-2 18-1 19-1"/>
<path d="M18544 2157l-6-1-4-2-3-3-2-3-3-7 0-4 1-7 3-8 4-6 2-4 5-6 7-5 6-4 5-3 8-3 8-2 10-3 14-3 15-4 18-3 19-4 20-4 21-5 23-5 25-5 8-1 31-5-7 1 33-3 5-1 4 2 1 5-1 5-2 4-3 4-5 5-4 3"/>
<path d="M19245 1755l-5-1-6-1 8 1-5 0-7 1 8-1-7 2 8-3-8 4 7-5-8 6-9 9 8-8-10 11-10 13 5-7-11 16-11 19-12 21-14 24-14 25-14 28 3-6-14 30-13 31-10 32 1-4-8 30-5 28-2 25 0 22 3 18-2-5 6 14 6 14 8 13 9 13 9 11 10 10 12 9 13 7 13 6-7-3 15 5 15 3 16 2 16 2 17 0 16 0 16-2 15-2-8 1 13-3 12-5-8 3 9-5-7 4 8-5-6 5 5-5-5 6 4-6-8 14 2-6-1 8 0-7-3-7 3 7-5-7-7-7-10-8-12-6-15-7-17-6-17-6-17-6-16-4-17-3 8 1-15-2-14 0-13 2-12 2 7-2-12 3-11 4-11 4 7-3-10 5-8 6 6-5-8 6-7 7-7 5-7 3"/>
<path d="M15078 3357l 5-4 5-4 7-4 7-3 7-2 8-2 8-1 10-2 11-1 12-1 10 0 11 0 12 0 13-1 16-1 16 0 18-1 20 1 25 1 24 2 21 1 17 0-6 1 15-3 14-5 11-3 11-3 9-3 8-2 6-2 8-1 3 0 7 3 3 7-2 8-2 4-4 7-4 6-4 8 3-8-4 10-4 12-4 13-3 14 2-7-4 15-4 18-4 19-4 19-4 21-4 23-4 23-5 25-5 25-6 24-6 25-5 24-3 24-3 23-3 20-3 18-2 17-1 13-1 12-2 8"/>
<path d="M16197 3320l 4-6 3-6 5-6 6-6 6-6 7-6 9-7 10-7 10-7 11-6 7-4 12-7 13-6 14-6 14-6 13-5 8-3 12-5 13-4 12-3 12-3 12-3 8-1 12-2 12-1 11-1 10-1 10-1 9 0 8 1 7 1 7 3 6 4 3 6 2 7-1 8-2 8-3 8-4 7-5 8-5 7-7 9-9 10-8 8-10 11-11 11-12 11-13 11-12 10-12 10-12 10-13 9-12 10-12 9-10 9-8 8-7 7 8-9-5 6 4-6-3 5 6-15 0 4-2-7 3 3-7-3 6 2 7 0 8 0 8 0 8-1 9 1 8 0 10 1 9 1 11 0 11 1 11 1 12 2 11 4 11 3 11 4 11 4 7 3 11 4 10 5 9 5 8 5 7 5 6 5 4 5 4 6 2 6 2 8 1 6-1 8-2 8-2 8-4 7-3 8-5 8-5 6-6 9-8 9-8 9-8 9-9 10-8 8-9 10-9 9-9 8-9 8-7 5-10 7-9 6-10 5-7 3-9 4-9 3-9 2-7 2-9 1-8 1-8 0-8 0-8-2-8-1-9-1-8-2-9-2-9-2-8-2-7-3-6-3-4-7 1-7"/>
<path d="M15151 4248l 6-2 8-1 6-1 7-1 6 0 6 1 5 0 6 0 7-1 7 0 7 0 7-1 8 0 8 0 10-1 11-1 11 0 11-1 12-2 12-1 12-1 12-2 11-1 11-2 10-1 10-2 9-2-8 2 9-2 9-2 8-2 8-1 8-2 8-1 8-2 8-1 7 0 7-1 8 1 7 1 7 2 7 3 5 3 4 5 4 6 2 7 2 8 1 7 1 7 0 8 0 8 0 8-1 8-2 8-1 10-2 10-2 11-3 13-2 7-3 14-4 14-5 15-5 16-4 17-6 17-6 18-6 18-6 18-6 19-6 18-5 18-4 17 2-8-4 16-4 17-3 16-3 14-3 14-3 12-2 11-2 10-2 8-1 8-1 7-1 6-1 6 0 5 0 5"/>
<path d="M16262 4191l 4-6-3 5-3 6-4 7 4-7-3 7-4 8-4 9-3 9-4 10-3 10-3 9-3 10-3 10-3 10-3 10-3 10-3 9-3 10-2 8-3 8-1 7-2 6 2-7-2 6 0 6 1 6-2-8 4 6 6 4 6 4 8 3-7-3 8 3 9 2 11 3 12 1 13 1 14 0 15-1 16-1 16-1 15-2-8 1 15-3 14-4 14-5 14-4 13-4 14-5 14-4 13-5 12-4 13-5 11-5 12-4 11-4 12-4 10-4-7 3 9-5 9-4-7 4 7-5 7-5-6 6 4-6-5 7 4-5 4-5"/>
<path d="M16396 4162l-4 4 16-21-2 7 2-8-1 10-1 11 0 15 1 16 2 20 1 21 1 24 0 26-1 29-2 29-2 28-1 26 0 25-1 24-2 25-2 24-2 23-1 21-2 21 0 20-1 19 0 18 0 15 2 14 1 14 1 12 2 11 2 9-2-7 2 8 2 7-2 8-4 7-4 7-8 8"/>
<path d="M4743 4272l-1-5 0-6 0-5 1-8 1-5 1-5 2-5 3-7 2-5 3-5 4-6 4-5 5-6 4-5 4-4 6-5 5-4 7-4 6-3 6-3 8-3 6-2 7-2 8-1 6-1 7 0 6 1 6 1 7 3 6 3 4 4 4 5 2 6 2 8 1 7 0 10-1 11-3 13-2 8-5 14-6 15-8 17-3 7-9 17-10 17-9 18-10 17-9 17-9 15-8 16-8 14-8 14-7 12-8 12-7 10-6 9-5 8-4 6-4 6 6-15-1 3-9-10 3 1 6-1-8 1 8-2 9-4-8 3 11-4 12-6 16-7 7-3 18-6 21-6 24-6 25-5 8-1"/>
<path d="M11061 9072l 4-3 7-4 4-3 8-3 6-2 7-1 8-3 9-2 9-2 10-3 11-4 13-4 14-6-7 3 18-8 19-10 17-9 18-10-7 4 17-11"/>
<path d="M11172 9037l 7-3-5 3-5 2-4 3-4 2 6-4-4 3-4 3-4 4 8-9-3 4-3 4 4-6-2 4 3-7-2 5-2 5-2 5-1 6-2 6 2-7-2 6-1 8-1 8-2 9-1 9-1 10-1 10-1 10-1 10-1 10-1 9 0 8 0 8 0 6 1 6-2-8 1 5 4 4 5 2-7-3 6 1 7 0 8-1-8 1 8-1 9-3 9-2 10-3 11-4 11-3 12-4 13-5 13-4 14-4 13-4 14-4 12-2 13-3 8-1 12-2 12-2 11 0 9 0 8 0 7 1 7 3 7 2 6 3 5 3 4 4 4 5 3 5 3 5 2 5 2 8 2 6 0 7 1 8-1 8-1 9-1 10-2 10-2 8-3 11-3 11-4 11-5 10-3 8-6 9-5 7-7 8-8 9-9 8-9 7-7 5-10 6-8 4-12 5-13 5-14 4-8 1-14 3-15 2-14 1-15 1-14 0-14 0-13 0-13 0-12 0-10 1-9 0-7 1-7 0-6 2-8-2-3-7"/>
<path d="M11621 9181l-4 2 7-3-4 2 14-13-2 4 8-29 2 4 4 4 2 7-2 8-4 7"/>
<path d="M12049 8823l 4-7-3 7-1 8-3 8-3 9-3 10-4 11-5 13-6 15-6 15-5 14-5 15-6 16-7 17-7 16-7 16-7 16-5 16-4 15 2-8-3 14-3 13-1 12-1 10 1 8 1 7-2-7 4 6 5 5 6 3-7-3 8 3 9 1 12 0 13-2-8 2 13-3 14-3 15-4 14-5 15-5 16-5 15-5 17-4 17-5 17-5 18-4 18-4 18-4 18-4 8-1 20-3-8 1 21-4 23-4 22-5 19-4 17-5 7-1 5 2"/>
<path d="M12177 8936l-1 6 2-7-2 6-1 8-1 8-1 9 0 10-1 11 0 12 0 13 0 13 0 13 1 15 0 15 1 17 1 17 1 18 1 18 2 18 2 17 3 16 2 16 3 15 4 14 4 13-2-7 4 11 4 10 4 9 4 8"/>
<path d="M12562 9054l-5 1 15-5-4 3 25-35 0 5-2-8 3 6 6 5-7-2 9 4 7 2 2 8-1 8-4 7"/>
<path d="M12896 8749l 4 7 3 8 2 8 2 9 2 10 1 12 0 12-1 14-1 13-2 15-2 15-2 16-3 17-4 17-2 8-4 19-5 18-5 18 2-8-4 18-4 17-3 14-3 13-1 12-1 10-1 8 0 7-2-7 3 6 6 4-7-3 7 2 8 1 9 0 9-1 9-1 11-2 12-1 12-1 13-2 14-1 15-2 15-1 15-1 16-1 15-1 15-1 14-2 15-2 15-2 16-2 15-3-8 2 15-3 16-3 15-4 14-3 14-4 13-3"/>
<path d="M13094 8899l 4-6-3 6 4-7-3 6-2 7-3 8 2-8-1 9-1 10 0 11 1 13 1 13 1 14 2 16 3 16 2 18 3 18 3 20 3 19 3 19 3 20 4 19 3 20 4 19 3 18 3 18 3 18 2 15 3 14 2 10-2-8 2 8 3 8 2 7"/>
<path d="M13608 8935l 7 3-7-3 8 2 9 2 9 4 7 2 10 4-7-2 11 3 12 4 11 3 11 2 11 2 10 1 11 0 9 0"/>
<path d="M13592 9032l 8 2 12 1 13 0 15 0 17-2 18-2 18-2-8 1 18-4 19-5 19-6 20-8-7 3 21-9 7-3 8-1 7 3"/>
<path d="M14213 8834l-3-8-4-7-3-7-3-7-3-7 3 7-3-5-5-6-5-4-6-4-7-4-7-2 8 2-8-2-8 1-9 1 8-1-9 3-9 3 7-3-9 5-9 5-9 6 7-5-9 7-7 7 7-8-7 8-6 8 5-7-6 8-4 8 3-7-3 8-3 8-3 7 2-8-1 6 1 6-2-7 2 6 5 7 6 6 7 7 8 6 9 7 10 6 11 6 12 7 12 7 14 7 13 8 15 8 14 8 14 9 14 10 14 9 13 10 12 11 12 10 11 11 9 10 8 11 6 12 4 13 2 7 4 15 1 16-1 18-3 19-2 8-7 19-9 21-11 22-4 7-13 22-15 23-4 5-16 21-16 20-16 16-6 6-14 14-13 10-4 3-11 6-6 3-6 1-11 2-7-1-11-3-10-9-8-14-4-7-6-19-4-23-1-28 2-32 0-6 5-34 7-34 9-34 9-33 10-32 11-31 12-30 1-3 14-28 14-27 14-26 3-3 15-24 16-21 16-20 2-3 16-18 16-16 15-15 15-14 4-3"/>
<path d="M14519 8837l-4 5 12-15-3 7 4-7-4 9-4 11-4 12-5 14-5 16-5 19 2-8-5 21-4 21-4 22-3 22-3 22-2 21-1 21 0 19 2 18 2 16 5 15-2-7 6 13 8 10 9 9 11 6-7-3 12 4 14 2 14-1 17-2-8 1 17-5 18-6-7 3 18-8 18-9 18-11-7 5 17-11 16-11 14-12-6 5 13-11 12-14-5 6 11-15 10-16-4 6 10-17 10-20-3 8 8-21 7-22 5-23-1 8 2-23-1-22-4-23-6-22-8-22-10-20 3 6-10-18-12-16-14-14-15-10-15-9-16-7-16-6-16-4-15-4-13-3-12-2 8 1-9 0-9 1 8-1-8 2-8 2-8-2"/>
<path d="M15562 8836l 4 10 5 13 6 15 6 17 6 19 2 8 5 20 5 21 4 21 5 21 5 20 4 18 5 17 4 14-2-7 4 13 3 11 4 9 4 7 4 4-15-1 6-1-14 7 8-6-6 5 8-10-5 6 9-13-5 7 10-18 11-22 12-26 14-29-3 6 14-33 12-35 10-35 9-36 10-35 9-34 9-33 10-32 9-31 10-30 9-26 9-23 7-19 6-15 2-5 7-15 3-5 9-14 4-5 11-12 6-5 6-4"/>
<path d="M5281 7714l 7-2 8-2 9-3 10-3 10-3 10-3 10-3 10-3 10-2 9-2 8-2 9-1 6 0 6 1 7 2 5 3 3 3 2 5 2 8 1 6-1 8-2 8-2 9-4 11-7 13-3 7-9 15-11 18-14 21-17 23-4 6-19 26-21 27 3-4-21 29-21 29-21 27-2 4-19 25-17 24-16 21 2-3-13 19-11 17-8 15 4-11-2 10-2-7 5 3-7-3 10-2-8 1 13-4 16-6 19-6 20-7 22-7 23-7 22-7 23-6 21-6 20-5 18-5 16-4 13-4 12-3 7-2 11-2 9-1 9 1 7 1 7 3 7 3 6 4 6 5 5 5 5 6 6 7 4 8 5 9 5 10 4 10 4 12 4 13 2 7 4 15 4 15 3 17 2 18 1 19 1 20-1 21-2 23-4 24-5 25-2 8-8 26-10 27-12 27-13 27-2 5-15 28-16 27-20 28-2 4-23 27-4 4-26 26-29 24-3 2-31 22-33 19-33 17-3 1-32 15-31 12-29 10-28 7-4 1-28 5-27 2-26 0-25-1-22-3-20-2-5-1-17-3-14-5-9-8-3-6-5-12 0-16 1-8 5-20 4-7 11-24 16-26 3-6 19-28 4-4 4-4 5-3 6-2 5-1 5 2 2 5-2 6-13 27-11 26"/>
<path d="M5728 7393l 4 5 3 5 3 6 2 8 1 7 0 8 0 8-1 10-2 10-3 11-2 8-3 13-4 13-3 15-5 16-4 17-6 18-6 20-8 19-8 20-8 20-8 19-8 17-8 16-7 16-6 14-6 14-5 14-5 12-4 11-2 9 2-7-2 7 0 6 1 6-2-8 2 5 3 5 4 4 6 3-7-3 8 3 10 2 12 1 13 0 14 0 14-1 15-2-8 1 15-3 16-3 15-4 15-4 15-4 15-6-7 3 15-6 16-6 15-7 16-6 14-6 8-3 14-6 13-5 12-4-8 3 11-5 9-4 7-2 8-3-7 2 6-2 6-3 5-2"/>
<path d="M5855 7531l 13-8-5 4 8-8-4 6 5-6-5 7 4-7-4 9-4 11-3 13 2-7-3 15-4 18-3 20-3 21-3 23-3 23-3 25-3 25-4 25-3 26-2 25-2 24-1 24-1 22-1 21 1 19 1 17 3 15 2 15 3 12 4 12 3 10 3 10-2-7 3 9 3 9 2 7"/>
</svg>
