<svg xmlns="http://www.w3.org/2000/svg" viewBox="609 268 21312 16008" stroke="black" stroke-width="32" stroke-linecap="round" stroke-linejoin="round" fill="none" data-xena="-653 -781"><style>@media(prefers-color-scheme:dark){svg{background-color:black;stroke:white;}}</style>
<path d="M914 1126l-1-1 0 30 1 30 1 36 0 28 0 31-1 34-1 37-3 39-2 39-1 37-2 37 2 33 1 28 3 31 7 25"/>
<path d="M871 1166l-1-2-2-25 12-22 18-17 23-18 21-15 25-13 28-12 33-8 32-5 29-2 26 3 25 13 15 22 4 27-7 25-18 30-17 22-19 22-23 23-25 23-28 23-30 22-27 20-26 18-22 15-28 19-24 10"/>
<path d="M1314 931l-1-1-28 9-17 18-19 28-14 24-15 31-14 35-15 40-13 45-7 24-6 24-5 24-5 25-4 25-3 25-3 45 0 41 4 34 6 28 9 23 16 26 20 20 27 16 31 3 23-6 29-12"/>
<path d="M1522 1306l 0-1-18-18-24 13-22 20-15 25-11 29-6 30 0 25 12 24 25 7 30-3 28-12 30-19"/>
<path d="M1594 1091l 0-1 11 28 10 27 5 36 3 29 0 29 0 30-3 31-2 30-3 29-2 26-5 30-3 27 6-27 10-33 9-24 9-25 11-23 12-28 13-25 20-14 13 25 4 28-1 29-1 28 2 27 21 12 24-11"/>
<path d="M1797 1306l-1-1-25 4-14 21-7 26 12 23 24 1 25-12 20-18 10-24-14-21-25-2 25 8 22-12 24-17 22-20 17-19 14-23-15 22 7 26 20 23 20 16 20 13 19 17 8 24-19 17-26 10-24 7-24 3 6-25 19-22 18-16 21-19 22-16 22-15 23-8 27-2 25-10 23-14 15-21-7-23-26-10-27 8-20 17-12 20-8 25 2 24 11 25 22 16 27 0 26-8 27-17 20-22 15-25 12-25-11 24 2 26 20 13 18-20 16-24 16-23 13-20 14 24 5 27 10 23 27 2 23-12"/>
<path d="M2221 916l 0-1 26 9 22 10 25 13 25 18 25 21 25 24 23 26 18 31 15 33 7 22 8 35 5 25 2 27 0 27-2 26-3 27-6 23-11 34-14 29-18 26-17 19-25 9"/>
<path d="M2571 1124l 0-1 26-9 30-11 23-7 31-7 25-4"/>
<path d="M2567 1209l 0 0 29-1 28-10 29-12 29-10"/>
<path d="M2976 916l-1-2 3 26 6 29 3 24 3 27 2 29 2 30 1 30 0 30 0 29-1 27-2 26-2 33-1 28"/>
<path d="M3236 797l-1-1-10 24-8 37-6 30-9 32-10 35-11 40-13 44-7 24-7 24-7 25-8 26-7 26-8 25-8 25-7 24-7 24-12 43-11 38-9 31-7 25-8 26"/>
<path d="M3308 994l 0-1 0 24-3 27-6 33-5 23-5 25-7 24-8 24-9 33-8 29-6 25 10-23 8-30 5-24 5-25 3-27 4-28 3-29 3-27 2-25 3-29 2-27 0 27 2 25 7 29 11 29 13 30 15 28 15 26 15 24 16 21 21 21 25 12 29-8 21-16 20-23 18-26 12-30 5-36 1-29-2-30-4-32-5-28-7-24-13-26-15-21-21-15"/>
<path d="M1147 2446l 0-5-1-28-6-29-14-24-22-17-28 0-28 15-23 21-23 28-15 23-13 24-11 26-8 24-9 31 0 29 17 20 28-9 22-18 23-27 17-20 14-22 13-22 15-31 11-23 7-23-11 26-4 28 0 28 3 29 12 22 25-8 18-20 14-24 11-25 8-23 4-26 0-28-14 21 1 32 6 26 7 25 16 26 21 19 24 6 22-16 15-27 9-27 7-28 4-26-3-32-6-23-9-27"/>
<path d="M1359 2336l 0 1 9 23 26-1 24-15 19-17 19-23 8-23-16-20-25-6-24 5-19 17-15 23-10 28-7 29 1 27 9 27 18 19 26 10 30-6 29-14 24-13 22-16"/>
<path d="M1499 2275l-1-1 25-1 23-9 24-8 24 8-12 22-16 26-14 22-14 24-10 22-10 28 2 26 22 17 31-2 23-8 27-11 25-11"/>
<path d="M1779 2289l-1-1-23-8-27 0-24 13-20 19-16 19-15 22-13 23-11 26 6 25 28-1 27-13 21-14 19-16 20-20 8-24-10-22-19 16-2 27 14 23 22 13 27 3"/>
<path d="M1939 2256l-3-1-23-10-28 5-18 17-14 20-14 26-11 27-8 23-5 26 10 22 24-6 23-20 16-20 12-25 5-25-5-26-10 26-1 25 4 25 9 23 12 24 14 29 12 26 8 29 5 31 2 34-2 36-3 24-5 24-10 30-13 23-15 20-27 1-19-22-11-24-7-33-4-26-3-30 0-32 2-32 3-33 5-31 8-29 9-26"/>
<path d="M1989 2283l 0-1 24-7 20-17 16-22-13-22-26-4-27 7-25 14-15 18-12 23-6 25 3 28 12 26 16 22 22 17 28 9 29 0 24-7"/>
<path d="M2394 2153l 2-2 15-19 12 23 2 28 0 32-2 25-3 27-4 25-6 27-7 23 0-25 5-25 8-33 12-32 13-31 12-27 12-21 13-22 20-18 22 15 5 26-1 25-1 25-4 32-5 26-3 24 14-20 14-29 12-25 12-27 11-25 9-22 14-25 14 19-2 30-2 25-1 31 2 29 7 22 29-5"/>
<path d="M2765 2127l-1-1-23-8-22 20-18 23-12 23-10 22-8 27 0 25 23 13 27-9 23-18 21-21 16-22 6-25-8-23-17-21 13-21 26-3 24 12 15 23 5 28 1 25 0 25 2 25 20 15 17-20 16-28 11-25 9-25 3-25 0-28-5-27-5 25"/>
<path d="M2930 2151l 1 0 25 1 25-10 22-11 23-17 21-19 14-23-12-21-26-4-22 11-22 17-21 20-16 23-9 23-2 28 10 28 18 23 20 12 25 6 28-2 28-9 26-15 20-18"/>
<path d="M3101 2096l 0 0-5 26 4 28 0 27-2 25 19-22 13-28 10-23 10-28 11-26 9 24-3 28-2 26-1 26 25-2 15-25 13-27 12-26 10-22 11-22 2 24-2 27 0 26 7 23 22 12 26 4"/>
<path d="M3360 2069l 0 0 29 2 24-6 26-11 27-15 21-17 14-20-16-20-29-7-27 4-28 13-20 16-18 20-15 22-11 26-3 27 2 24 12 26 19 19 27 10 30 0 25-6 23-10 23-15 21-19 17-22 12-22 7-28 0-25-5-24-18 20-5 25 0 25 4 26 24-8 14-23 15-23 12-21 14-21 12 24 0 24 2 29 6 25 18 17 24 2"/>
<path d="M3729 1757l 1-1 24 1 14 21 5 31-1 31-5 34-5 24-5 26-7 27-6 30-7 30-7 30-5 25-4 34 1 26 10 27 28 9 24-7 28-14 28-19 25-20 23-21"/>
<path d="M3658 1952l-5 1-26 7 26-9 28-9 33-11 25-8 25-7 25-10 25-8 23-7"/>
<path d="M3950 1913l 0-1 23-9 27-8 30-8 29-8 25-7"/>
<path d="M3929 1979l 1 0 24-4 29-10 25-11 27-11 28-12"/>
<path d="M1225 2370l-1-1 17-19 21-15 22-12 30-9 26-4 31-4 25-3 28-5 34-6 37-8 41-8 45-12 25-7 25-7 25-8 28-8 29-7 29-9 32-9 32-10 33-10 35-10 35-9 36-9 36-10 36-8 37-9 37-9 38-8 39-8 40-8 41-9 41-8 42-9 43-8 44-8 43-8 45-10 45-8 47-9 46-10 47-9 49-9 48-10 50-10 50-8 50-10 49-10 51-10 51-9 51-10 50-10 51-10 51-10 51-11 49-10 49-9 49-11 49-9 47-9 47-9 46-8 45-9 43-8 41-7 40-7 38-7 37-6 37-6 35-5 33-5 32-4 30-3 30-4 28-3 27-3 25-1 46-4 42-2 36-2 31-1 25 1 30 2 25 2"/>
<path d="M1050 2489l 9-3 36-10 35-10 37-11 38-10 41-12 43-13 47-12 25-6 25-7 25-6 28-6 27-6 28-7 28-6 30-6 30-8 32-7 31-7 33-7 32-6 34-7 34-6 35-7 36-5 35-5 36-6 36-5 38-6 36-6 38-5 38-5 38-6 40-7 40-7 41-6 41-7 43-7 42-8 43-7 42-7 42-8 42-7 42-8 43-7 43-7 43-8 44-6 44-7 45-7 44-7 44-7 44-8 45-7 46-7 45-7 45-9 46-8 45-7 45-8 44-7 44-7 43-6 43-8 43-5 41-7 41-6 41-6 41-6 39-5 38-5 38-4 35-4 35-4 35-4 32-4 31-2 31-4 29-4 28-2 26-3 26-2 24-3 45-5 40-4 35-4 31-4 27-3 32-3 30-2"/>
<path d="M1325 3433l 0-4-3-28 3-27 6-25 8-25 10 28-4 35-6 30-5 32-5 35-8 35-5 33-7 31-8 29-5 25-6 30 17-20 7-28 9-35 6-40 5-42 5-43 2-42 1-39 0-33 1-27 1-25 5 26 5 31 5 25 7 28 8 29 10 29 10 28 11 27 12 23 18 30 17 23 22 16 27 4 20-18 13-22 8-30 4-25 3-27 0-28-3-28-6-28-9-27-10-22-15-28-18-21"/>
<path d="M1606 3413l 0-1 24-10 27-5 25-4 25-4 25-3 28-4"/>
<path d="M1836 3209l-1-1 5 25 6 33 5 29 5 30 4 30 2 29 1 28 1 24 0 27 1 27"/>
<path d="M1280 3722l-1 0 22 8 30 4 28 2 32 0 27-1 28-3 33-4 35-5 36-7 39-8 39-10 39-8 40-12 39-11 40-10 36-11 32-8 29-6 24-4 29-2 29-1 26 1"/>
<path d="M1536 3844l 0-1 0 27-4 30-5 27-4 26-5 27-6 27-5 25-7 29-5 24 12-30 7-30 6-33 2-32 3-30 2-25 3-26 25 16 13 26 15 28 14 21 15 22 17 22 16 19 17 18 19 19 24 7 25-10 20-26 14-28 8-30 4-32-5-33-11-34-9-24-14-32-12-25-13-22"/>
<path d="M2109 3647l-1 0-25 1 5 25"/>
<path d="M2279 3362l 0-2 11 28 4 27 5 36 2 27 3 30 1 33 3 35 2 35 1 35 2 36 2 34 1 32 2 28 2 25 3 31 5 28"/>
<path d="M2629 3560l 0-1 26 1 28-1 25 0 27-4 28-6 27-7 27-8"/>
<path d="M2723 3465l 0 0 1 24 3 27 3 26 4 28 5 26 5 25 5 28 1 25"/>
<path d="M1213 3715l 0-1 16-23 25-18 23-17 29-20 35-25 19-15 22-15 22-16 24-17 26-18 28-19 28-20 31-21 31-20 32-21 33-20 33-20 34-20 35-20 34-19 35-19 34-18 34-17 35-17 33-17 32-15 31-15 31-13 30-14 29-12 27-12 26-10 26-10 24-9 24-8 40-12 36-9 27-7 27-2"/>
<path d="M1434 3983l-2 1 31-6 32-16 42-22 24-14 27-16 30-17 31-19 34-20 35-20 39-22 40-22 41-22 42-22 43-22 44-22 43-21 44-22 44-20 43-20 44-20 43-17 42-18 42-17 41-16 41-15 39-16 39-13 37-15 36-13 34-12 34-10 32-10 30-10 29-9 28-8 26-8 25-8 45-12 36-9 29-6 27-3"/>
<path d="M2206 3883l 2-4 26-24 24-17 29-16 33-19 37-19 41-20 44-20 23-10 22-10 25-9 23-9 23-9 24-8 23-7 24-8 24-7 45-15 44-13 43-10 39-10 36-8 30-7"/>
<path d="M5670 931l 0-1 4 29 2 26 2 30 2 30 3 31 2 30 1 28 0 26 0 30-3 27"/>
<path d="M5938 908l 0-1-19 23-12 27-11 22-13 25-15 28-17 30-18 32-21 35-24 39-26 41-15 20-15 22-15 22-15 21-15 22-15 21-14 20-14 20-26 38-22 33-19 29-15 22-15 25-12 22"/>
<path d="M5778 1334l 0-1 0 25 0 27-1 33-3 34-5 36-3 32-3 25 1 26 17-21 9-25 7-32 2-34-3-34-5-31-5-24-8-23-3 29 9 29 13 24 16 24 20 24 23 21 26 19 25 18 25 14 25 9 25 2 25-4 26-13 17-23 7-31-2-29-8-34-8-24-9-27-10-28-10-28-10-28-8-23-8-25"/>
<path d="M6170 1241l 0-2"/>
<path d="M6461 905l 1-1-11 25-4 32-4 24-4 26-4 25-4 25-4 26-4 35-3 27 1 25 14-24 10-31 4-27 3-28 0-28-2-27-4-29-4-26-7-32-8-25 3 32 10 26 15 29 18 28 22 27 22 25 23 22 22 18 21 14 23 9 26-6 18-24 7-28-2-25-5-30-11-35-8-24-9-24-11-32-12-26"/>
<path d="M6697 953l 0-1 27-6 29-4 26-3 27-3 25-4"/>
<path d="M6745 873l-1-1 8 24 10 26 7 27 5 29 3 26 7 26"/>
<path d="M6942 798l-1 0 5 24 10 29 7 24 5 27 4 30 1 30 0 27 0 25-3 30-5 24"/>
<path d="M6383 1260l 1-1 26 0 27-2 36-5 29-4 33-5 35-5 37-7 39-6 40-6 41-7 42-5 43-4 40-4 37-3 35-3 31-2 29 0 25 0 33 1 27 4 27 4 24 8"/>
<path d="M6644 1365l 0-1 24-16 27-3 28 0 27 4 23 8 3 27-16 20-20 18-23 20-27 19-27 17-25 14-24 16-16 18 24 4 29-4 24-4 25-3 31-3 29 0 27 1 24 4 25 10"/>
<path d="M4913 2227l-1-1 25-3 27 0 27-1 29-4 27-4"/>
<path d="M4963 2171l 0-1 6 26 1 24 1 26 2 24 5 30"/>
<path d="M5389 2149l 0 0-21 19-19 29-18 32-13 26-15 30-14 35-13 35-11 37-10 37-7 36-5 37-3 37-2 36 2 36 3 34 5 33 7 32 8 30 12 29 11 27 13 23 20 29 20 20 20 14 27 8 24-8"/>
<path d="M5476 2275l-1-1-20 17-2 25 0 29-1 26-3 28-6 27-6 23-7 25 15-28 12-26 9-31 5-35 1-35-2-31-4-27-6-25 0 30 9 24 12 26 16 30 18 29 20 27 21 23 21 21 20 13 24 10 27-5 19-19 13-22 8-27 4-30-4-34-8-33-14-33-14-29-15-22-19-17"/>
<path d="M5753 2288l 0-1 26-6 28-2 30-3 29-3"/>
<path d="M6022 2113l-1 0 2 29 5 30 5 27 3 33 0 35 0 35-1 25-2 35 0 31 0 25 2 27"/>
<path d="M5452 2617l-1-1 25 1 31-3 32-3 25-3 28-3 31-4 34-5 35-5 36-6 36-6 36-6 35-6 34-7 33-5 31-5 28-6 24-3 31-5 27-3 28-2 25-2"/>
<path d="M5801 2687l 1 0 0 25 2 29 1 27 1 25-1 25-1 27 5 23"/>
<path d="M6165 2178l-1-1 24 17 19 20 17 18 17 20 18 23 19 24 18 28 18 27 18 28 17 26 13 26 9 28 5 30 0 33-3 33-7 34-10 33-10 32-10 28-10 27-10 22-10 25-15 19"/>
<path d="M5760 2718l 0-1 26 8 16 18 18 16 19 19 21 24 19 20 19 16 23 18 20 16 21 17 19-15 1-25-2-32-4-28-3-27-4-24-5-26-6-25"/>
<path d="M6541 2440l 1-1 24-8"/>
<path d="M6811 2096l 0-1 9 27 2 29 0 27-1 32-1 35-3 35-2 33-1 30 1 25 4 28"/>
<path d="M7040 2115l 0-1-14 25-10 24-16 31-13 25-16 27-18 32-19 34-22 36-23 38-23 37-24 37-24 38-24 36-22 34-20 33-18 31-15 29-15 28-12 22-12 28-6 26"/>
<path d="M6865 2512l-1-1-4 28-1 24-2 25 1 27 0 29 1 29 0 25 0 24 12-29 2-28 1-30 0-29-1-25 0-25 1-28 18 22 8 27 10 28 9 22 15 27 17 22 20 16 27 11 26 0 26-13 18-18 13-23 9-28 2-25-2-27-4-31-6-33-6-32-6-27-9-25-12-20"/>
<path d="M7301 2380l 0 0"/>
<path d="M7638 2055l 0-2-9 30-3 28-3 33-2 35-1 32-1 28 0 30 0 28 3-24 2-28 2-34 0-25 0-25-2-24-2-33-3-28-2-25 1 32 7 28 10 30 13 31 15 31 16 27 19 24 20 20 23 19 23 8 21-19 12-23 5-33-3-28-6-32-9-32-9-35-8-30-6-24"/>
<path d="M7885 2155l 0-1 23-9 26-5 27-4 25-4 28-4"/>
<path d="M7925 2069l 0 0 6 28 8 25 7 28 8 30 6 28 7 26 12 21"/>
<path d="M8093 2000l-1 0-8 24 3 27 5 25 5 28 6 30 5 30 3 32 1 31-2 29-3 28"/>
<path d="M7547 2445l-1-1 26-4 26-1 34-1 25-2 28-2 28-1 31-1 32-1 32-2 33-3 34-2 36-3 35-3 35-4 34-3 32-2 30-3 28-4 24-3 33-5 28-3 26-2"/>
<path d="M7813 2543l-1-1 23-10 26 4 23 10 22 18 11 23-9 26-21 20-23 17-20 12-22 14-22 11-23 13-22 12 21 13 30-5 28-6 33-5 35-7 34-5 29-4 25-1 25 0 24 10 6 25"/>
<path d="M4711 3781l 0-1 21-12 27-5 28-3 30-2 28-3 24-3"/>
<path d="M4804 3693l-1-1-1 30-1 32 0 25 0 26 1 27 1 25 3 30"/>
<path d="M5217 3490l-1 0-25 13-20 23-18 24-18 30-12 22-11 24-11 25-9 28-8 30-7 30-5 32-4 32-2 33-1 36 0 38 1 39 2 38 3 39 4 34 5 33 6 28 7 25 13 30 13 21 22 17 29 3"/>
<path d="M5239 3573l-1 0-8 29-4 27-3 32-1 34-1 36-1 33-2 30-3 28 6-31 4-24 3-28 3-28 1-28-1-26-1-33-2-25-2-25 9 30 8 24 11 27 14 29 17 30 19 24 19 18 24 13 28 4 24-9 16-20 11-23 5-27-1-27-7-27-12-26-13-25-15-24"/>
<path d="M5481 3623l 1-1 25 8 26 3 29 0 25-2"/>
<path d="M5718 3503l-1 0-7 24 4 30 5 29 6 31 4 32 3 35 1 35 0 33-1 31-2 27"/>
<path d="M5176 3941l-1-1 35-5 27-3 33-4 35-4 39-4 40-3 41-2 41-3 39-2 38-3 35-2 34-3 30-2 29-4 26-4 33-5 27-3 25 0"/>
<path d="M5422 4026l-1-1-15 22-10 30-8 28-8 32-9 35-6 23-9 33-8 26"/>
<path d="M5400 4058l 0-1 4 27 11 30 14 23 19 25 20 22 20 20 20 15 20 14 25 14 25 5 23-10 23-20 15-22 14-29 9-32 3-34-2-33-7-30-11-26-19-20"/>
<path d="M5789 3453l 0-1 24 22 21 23 16 20 19 23 21 27 21 29 21 31 20 32 17 33 16 32 14 32 11 31 10 31 7 30 4 30 3 29-1 30-2 29-6 29-7 29-10 30-12 29-13 30-13 30-14 27-14 25-14 20-19 22-21 16"/>
<path d="M6022 3420l 0-1 28-5 31 2 27 3 25 5 30 6 23 9 9 22-24 20-23 13-25 12-22 14-23 16 12 23 30 3 24 1 29 0 31-2"/>
<path d="M6454 3803l-1-1 17-20"/>
<path d="M6672 3470l 0-1 3 29 8 31 8 27 7 27 7 28 6 26 5 24 3 28"/>
<path d="M6943 3416l 0-1-16 19-11 24-10 22-12 27-15 33-17 36-20 41-23 45-11 23-12 24-12 23-10 24-11 24-11 23-9 23-10 22-16 42-15 40-14 35-11 32-9 27-9 29-4 25"/>
<path d="M6850 3803l-1 0-15 20-7 24-8 29-6 31-7 30-3 25-4 30 19-20 10-30 8-35 4-34 1-31 0-27-2-24 5 24 3 27 7 29 10 33 16 33 13 20 21 28 22 25 23 22 22 16 28 11 27 0 24-13 18-18 15-26 11-30 2-33-5-35-7-26-8-27-10-27-10-25-14-30-13-20-19-16"/>
<path d="M7238 3739l-1-1"/>
<path d="M7578 3445l-1-1-12 22 1 25 1 33-1 29-2 30-4 28-4 25-5 25 17-21 10-29 6-32 1-33-2-31-4-31-6-28-6-25-10-22-10 28 5 25 10 27 15 29 19 29 13 20 22 27 21 21 20 14 24 15 28 4 25-17 15-27 5-28 0-32-6-34-9-33-12-28-12-23-15-20"/>
<path d="M7830 3494l 0 0 28 3 26-2 27-5 28-4 27-6"/>
<path d="M7887 3405l 0-1 6 28 8 26 5 28 5 29 2 29 4 27"/>
<path d="M8048 3358l 0 0-1 25 3 29 4 27 3 30 3 30 2 32 2 30 2 29 0 25-1 31-2 26"/>
<path d="M7444 3806l-1-1 32 1 33 2 27 2 30 0 33-1 35-2 35-2 37-3 39-3 37-4 37-3 34-4 33-3 32-4 28-2 25-2 32-1 26 1 26 3 24 12"/>
<path d="M7680 3918l 1-1 27-10 30-1 25 3 30 7 25 9 23 14 14 23-7 25-17 24-21 19-24 19-27 19-28 16-25 14-22 11-24 13 24-8 29-7 26-5 26-3 25 0 31 0 29 3 25 7 26 4 24 4"/>
<path d="M4581 5044l 2-1 27-8 25-7 27-8 28-8 25-9"/>
<path d="M4644 4943l-1 0-4 24 2 27 4 32 3 26 4 29 4 28 5 25 8 30"/>
<path d="M4873 5146l 0-1"/>
<path d="M4987 5168l 0-1"/>
<path d="M5130 5181l 1-1 24-8"/>
<path d="M4596 5778l 0-1 26-7 27-3 32-3 26-3 27-3 27-4 27-4 25-5"/>
<path d="M4709 5670l-1-1-11 27 1 28 2 28 2 28 2 28 2 27 3 26 4 24 10 26"/>
<path d="M5147 5462l 0-1-24 17-15 23-18 32-13 25-12 28-12 30-12 30-10 34-10 36-10 37-8 39-6 39-4 37-2 36 0 36 4 34 6 32 7 30 10 27 10 22 16 28 18 22 19 18 22 20 19 20 15 25 11 26 10 27 7 23"/>
<path d="M5204 5628l 0-1-5 25 0 31 0 26 0 27 0 26 1 28 2 26 23-18 10-26 6-29 2-31-1-30-4-26-6-24-2 31 8 25 12 26 16 23 19 18 23 14 24 7 24 1 24-3 23-11 20-16 16-21 10-23 4-29-7-32-8-23-11-28-9-27"/>
<path d="M5558 5651l 1-1 24-10 24-5 32-3 25-1 27-1 25-2"/>
<path d="M5898 5488l 0 1-9 28 2 25 2 31 4 25 5 33 6 31 4 29 3 28-1 26"/>
<path d="M5281 6006l 1-1 27-13 31-5 26-2 32-3 37-2 39-1 41-3 43-1 44-4 45-3 45-3 44-5 41-2 38-4 36-4 34-5 33-5 28-5 25-5 27-4 24-6"/>
<path d="M5580 6092l 0-1-4 27-4 30-6 28-9 29-9 28-9 25-10 23 18-23 13-22 10-28 5-30 1-31 1-29 0-27 12 20 9 25 12 24 17 23 22 23 24 22 25 16 25 13 26 8 27 1 25-5 21-13 18-17 14-20 9-24 4-24-1-25-2-25-8-27-11-24"/>
<path d="M6020 5459l 0-1 15 20 16 20 23 26 19 19 21 20 24 22 23 23 24 25 22 27 20 28 19 30 16 29 13 29 10 30 6 29 4 31 2 30 0 30-3 33-5 33-8 33-11 33-14 33-15 32-17 33-18 32-17 30-17 28-15 27-13 22-18 28-17 21"/>
<path d="M6295 5431l 1-1 18 21 3 29 1 29-1 24-1 30-1 27"/>
<path d="M6448 5373l 0-1-14 20-15 27-18 24-19 19-23 21-21 19-23 20-16 18 28-5 30 0 27 4 26 4 24 6 24 8 26 5 24 5 24 7"/>
<path d="M6637 5914l 1-1 23-12-24-5 24 6"/>
<path d="M6969 5658l 0-1 15 22 10 25 6 27 5 34 3 27 0 30-1 34-2 36-2 38-2 40-3 39-3 38-2 35-1 32-1 29 0 26 2 30 1 26 2 27 1 25"/>
<path d="M1644 7440l 0-1 27 4 25-2 32-5 30-7 32-8 30-8 25-7"/>
<path d="M1692 7527l 0-1 25-8 24-9 28-11 31-10 32-8"/>
<path d="M2304 7016l-1-1-25 12-20 25-19 28-14 23-13 28-14 32-15 38-18 44-7 24-9 26-9 27-8 27-7 27-7 26-6 28-6 28-5 28-4 26-3 28-3 26-2 27-1 27-2 25 0 24 2 46 5 42 7 38 8 35 10 32 10 28 13 23 19 29 21 20 25 15"/>
<path d="M2283 7187l-1-1 2 30 3 29 2 25 0 25 0 24 2 24 13-20 5-29 3-31 0-32-3-29-2-26-3-26 1 31 9 29 10 33 12 22 11 21 15 20 23 27 25 23 25 17 23 10 28 1 23-14 16-22 12-27 7-32-1-33-6-34-11-34-12-31-10-26-12-22"/>
<path d="M2656 7198l 1-3 20-13 31-3 29 0 27 1"/>
<path d="M2962 7039l 0-1 6 25 6 31 3 29 1 34 0 35 1 24-1 25-1 24-1 25-3 33-4 30-5 31"/>
<path d="M2403 7468l-2-1 28 4 35 2 28 1 34 0 38 0 40-3 45-4 45-5 45-5 47-5 45-5 43-6 40-5 38-5 36-4 31-3 29-2 34-3 25 0 25 3"/>
<path d="M2641 7578l 0-1-9 22-4 26-6 33-5 26-6 26-7 27-6 27-5 28-5 25-4 32-3 26 21-23 10-33 5-26 3-27 2-27 1-27 2-25 2-33 1-25 14 22 11 24 13 27 19 27 20 27 23 21 24 19 25 16 25 12 24 7 31-1 25-14 15-20 13-25 8-30 2-33-5-36-5-24-6-26-12-30-13-21-23-14"/>
<path d="M3112 7020l 1-1 20 22 22 22 18 18 20 21 22 24 21 26 20 28 21 29 20 31 20 30 18 31 16 33 15 32 12 34 9 33 6 33 3 34 2 35-2 38-5 37-8 39-12 40-15 39-16 40-19 40-19 36-19 34-17 29-18 26-15 21-19 23-24 4"/>
<path d="M3370 6953l 0-1-4 30 0 34 0 24 0 27 2 27 3 24 6 30 8 23 13 21"/>
<path d="M3492 6945l 1-1 8 27-13 25-20 21-20 15-21 14-21 14 5 24 25 10 25 8 27 7 30 7 28 4 25 1 28 8 27 8"/>
<path d="M3745 7433l 0-1 25-4 24-5 25-3 27-2 29-3 29-3 25-3"/>
<path d="M3821 7332l 0-2 13 22 8 24 8 27 9 29 7 30 6 31 5 29 8 26 10 28"/>
<path d="M4329 7015l 0-1-9 30-5 31-4 27-3 27-3 28-5 29-4 28-6 26 8-26 6-34 4-26 2-27 1-28 0-28-1-27 0-25-3-29-4-24 0 27 5 24 7 29 13 28 15 30 21 28 16 19 18 18 17 17 27 19 23 15 27 13 26 1 22-15 11-28-2-31-8-29-11-35-10-25-9-27-8-26-9-23-11-26-18-20-11 21"/>
<path d="M4631 7094l-1-1 25-5 27-4 30-4 24-2 24-5"/>
<path d="M4675 7001l 0-1 9 27 10 24 10 25 7 28 6 26 6 27 7 25"/>
<path d="M4903 6896l 0-1 2 25 1 27 0 25 1 30 2 33 3 33 2 24 4 35 3 34 2 26 4 26"/>
<path d="M4291 6819l-1-1-27 7-20 20-22 25-17 21-18 22-16 23-17 23-15 24-13 23-12 24-11 25-8 25-7 25-6 35 1 31 9 29 17 28 26 21 22 12 27 10 30 8"/>
<path d="M4948 6817l 1-1 24 17 24 15 27 16 27 22 18 17 17 18 18 20 16 22 15 22 13 22 10 22 7 24 7 35 1 35-4 36-7 25-8 24-11 25-13 22-14 19-20 22-18 17-26 12"/>
<path d="M5456 6811l 1-1-10 25-7 28-8 26-11 33-10 22-12 26-14 28-17 29-18 33-19 33-19 34-19 33-18 30-15 27-12 23-14 26-15 24"/>
<path d="M5544 6940l-1-1 25-10 27 5 26 8 27 9 23 15 17 22 1 27-13 21-18 19-25 19-27 20-28 17-27 17-25 16-22 13-24 17-19 16 24 13 28-4 24-3 27-3 29-4 26-5 24-5 27-5"/>
<path d="M5753 6995l 0-1 1 28 0 32-3 27-6 28-8 28-8 23-7 24 16-23 4-32-3-28-4-32-6-30-5-25-6-26 20 20 20 23 17 18 19 19 18 20 19 18 18 18 24 16 24 10 27 0 24-9 19-21 10-22 5-27 1-27-2-30-4-29-8-24-13-25-17-22-19-16-25-10"/>
<path d="M4112 7453l 1-1 28-3 27-5 37-5 31-4 34-2 37-4 41-2 43-2 49-2 25-1 26 0 27-2 29-1 29 0 30-1 32 0 31 0 33 0 34-1 35 1 34-1 36 0 37 0 37 0 37 0 38-1 37 0 37-1 38 0 38-1 37-1 36-1 36-1 37-1 36-1 36 0 35-2 35-1 35-1 35-1 33 0 34-1 33-1 32-2 31-1 30 0 30-1 29-1 28-1 27-2 27 0 26-1 25 0 25-1 48-2 44-1 41 0 37 0 34-2 30-1 26-3 25-1 30-2 27 2 28-3 27-2-24 6"/>
<path d="M4304 7722l 0-1 1 30 1 25-1 30 0 32-1 33 0 33 0 34 1 35 0 27 1 25 1 26 0 24 0 33 0 28 1 29 5 25 15-22"/>
<path d="M4520 7964l 1-1 23-10 26-6 26-4 28 0 28 5 27 1 30-1 27-8 23-8"/>
<path d="M5164 7594l 0-1-2 25-1 24-3 31-3 25-3 28-2 26-4 28-3 24 10-29 7-28 5-32 3-31 2-29 1-25-1-26 9 27 9 26 12 28 15 28 20 21 19 16 27 12 27 0 21-13 11-25-2-29-13-28-12-23-13-26-15-23-12-21-13-24 17 18"/>
<path d="M5444 7668l 1-1 25 5 28-3 25-5 26-5 29-3 25-4"/>
<path d="M5713 7587l-1-2 9 24 7 24 7 24 6 24 6 25 5 24"/>
<path d="M5192 7870l 1-1 25-8 24-2 32-1 27-2 30-1 32-1 35-3 39-3 40-2 41-4 40-4 39-4 37-4 34-1 31-2 30-1 27-1 27-1 25 1 33 1 28 2 24 2 27 1"/>
<path d="M5406 7984l-1-1 5-25 11 27-4 28-5 24-6 24-8 31-9 31-7 25 4-27-1-28-3-31-5-31-5-26 26 7 23 21 25 21 19 19 20 21 20 21 21 20 22 17 23 15 26 9 26 2 24-5 23-14 15-22 7-27-1-33-4-29-7-33-7-31-10-24-16-25-20-13"/>
<path d="M6173 7428l 1 0 22-11 24-8 23-10 24-8 24-7 26-6 28-2 29 1 28-3 26-4 26-2 27 1 29 0 32 2 26 1 26 1 26 2 26 2 26 0 27-1 27-2 28-2 33-4 25-2 27-3 28-1 27 0 26 0 27 0 27 1 26 1 24 1 35 2 32 2 31 1 30 2 32 0 33 0 25-2 28-1 29-2 28 0 28-2 27-1 27 0 26 0 26 0 26 1 25 1 24 2 26 2 25 2 25 3 25 2 26 2 26 3 28 2 29 2 28 3 28 3 28 2 27 2 27 3 28 1 26 2 26 3 25 2 25 1 25 2 35 2 35 0 34 0 36-2 35 0 35 0 31 1 29 0 25-1 27-1 26-2 25-3"/>
<path d="M6211 6998l 1 0 24 0 25 1 25-2 25-3"/>
<path d="M6666 6709l 0-1-24 11-18 21-14 20-18 26-13 24-13 27-12 27-10 30-9 33-7 34-3 33-3 31 0 30 2 29 4 24 9 28 8 25 10 23 11 26 11 25"/>
<path d="M6653 6743l 0 1-7 25-9 29-8 29-4 27-2 28 22-18 7-27 3-27 1-28-1-29 4 24 8 27 13 27 17 22 17 19 20 15 26 4 25-14 15-22 5-26-6-30-10-25-10-25-13-24"/>
<path d="M6882 6770l-1-1 25 5 25-1 26-3"/>
<path d="M7029 6667l 0-1-1 25 1 27 0 25 2 25 4 25 7 27 8 23 10 23"/>
<path d="M6621 6994l-1-1 24 6 30 1 32-1 26-2 30-2 31-2 34-1 35-2 32-2 32-3 29-4 29-2 26-4 30-3 25-2 24 0 24 3"/>
<path d="M6715 7143l 0-1 4 25-3 24-5 26-7 24 1-29 3-25 1-28 27 8 18 18 23 21 24 19 23 15 25 12 26 4 23-14 7-25-3-25-8-29-10-26-11-24-12-21"/>
<path d="M7120 6696l 0-1 19 18 22 19 18 17 16 20 13 25 8 24 8 24 6 25 5 28 3 27 0 28-3 27-6 26-7 25-8 26-8 26-11 27-14 23-15 22-17 18"/>
<path d="M7263 6506l 0-1-6 27-2 28 2 25 1 29 1 31 0 30 3 27 3 24 4 26 0 24"/>
<path d="M7403 6534l 1 0-20 19-19 17-21 18-20 16-23 16-19 15-18 16 18 19 24 8 23 7 28 7 28 7 26 9 23 9"/>
<path d="M7592 6934l 1 0"/>
<path d="M7856 6676l-1-1-20 15-15 28-10 24-13 28-13 30-12 32-10 35-7 25-5 27-6 27-5 26-4 26-3 25 0 36 3 32 6 29 8 25 11 27 15 24 16 21 16 18"/>
<path d="M7910 6828l 0-1-8 28-3 26-3 28 0 28 0 30 0 26 0 29-1 25 16-23 5-27 3-30 1-32 0-30-2-30-7-23 1 25 11 30 13 26 17 27 21 27 21 24 21 25 20 23 18 21 20 17 26-3 13-22 5-31-2-27-5-29-8-33-7-23-6-25-7-23-10-34-8-27-7-23 3 25"/>
<path d="M8181 6969l 1 0 25-4 30-4 29-3 27-1 26 1"/>
<path d="M8262 6887l-1-1 3 27 2 28 2 30 3 28 4 25 6 28"/>
<path d="M8437 6885l 0 0 7 24 9 25 8 26 7 29 5 27 3 24 2 26"/>
<path d="M8433 6730l 0-1 22 20 24 21 21 21 23 24 23 24 21 22 19 23 17 22 15 23 12 25 10 25 6 24 0 26-5 29-9 29-13 29-17 28-15 23-19 19"/>
<path d="M8968 6663l-1-1-8 25-3 24-5 32-6 25-8 28-8 31-10 35-11 35-12 37-12 38-14 36-13 35-10 31-10 26-10 32-7 26"/>
<path d="M9008 6823l 1-2 27-7 23 5 28 10 28 10 22 15 6 25-14 24-17 17-22 19-23 18-23 17-18 15-20 19 11 24 26 2 27-4 25-4 27-5 25-7 30-8"/>
<path d="M9178 6829l 0 0 4 28 6 26 4 29 0 31-2 30-3 27-5 25-5 23 8-23 3-29 0-26-1-32-3-33-3-30-5-28-7-24 24 17 21 25 18 19 18 24 18 23 19 22 20 16 25 16 25 9 28 1 27-10 24-21 14-20 9-26 3-30 0-35-3-35-3-25-7-33-9-25-13-24-16-18"/>
<path d="M892 9703l 0-1 22-14 29-2 32-2 25-2 25-4 31-4"/>
<path d="M926 9779l-1 0 27 0 30-2 32-4"/>
<path d="M1459 9318l 1-2 12 21 2 25-1 31-1 32-3 35-4 35-5 35-5 30-5 28 13-29 5-34 3-24 1-25-1-24-3-25-4-26-5-24-4-25-7-32-5-27-2 32 6 29 13 30 19 29 23 29 16 19 17 19 15 19 22 25 18 21 21 18 23 9 20-22 7-23 4-29 1-31-3-35-3-25-4-25-5-24-7-31-6-24-7-24 2 25"/>
<path d="M1773 9406l 0-1 23-9 27-6 26-7 26-5 26-2 29-3"/>
<path d="M2042 9252l 0-1 13 25 11 28 5 28 6 31 4 32 5 32 2 31 2 29 1 26 1 25"/>
<path d="M1402 9766l 1-1 23-10 25-2 25 0 34-2 27-1 29-3 32-2 33-2 35-3 36-4 38-4 38-4 37-3 36-2 32-2 30-2 28-2 29-3 25-2 25-2 31-4 29-3 31-6 23-5 24-5"/>
<path d="M1686 9888l 0-2-9 28-4 27-5 29-5 29-4 28-4 25-4 30-1 25 7-24 8-29 7-32 5-35 1-33-2-30-2-24 15 19 11 23 14 26 18 29 14 20 23 28 25 24 25 18 23 15 23 8 30-1 28-12 19-18 15-22 13-25 7-25 0-28-3-30-10-30-12-28-12-22-18-19-22-11"/>
<path d="M1291 9200l-1-1-16 21-11 26-6 24-7 29-7 24-8 26-10 33-10 37-10 40-10 47-5 23-5 25-5 26-5 26-4 27-3 26-3 26-2 26-1 25 0 26 2 24 3 25 6 45 10 44 14 41 15 38 19 37 22 35 27 34 28 31 33 28 34 27"/>
<path d="M2231 9256l 0-1 9 24 12 21 14 27 17 31 13 24 14 27 13 28 14 30 13 32 11 32 10 32 10 33 9 32 7 32 7 32 4 30 3 31-1 30-1 31-6 30-6 29-10 32-12 31-13 32-16 32-16 29-16 27-16 24-15 20-20 25-18 19-26 9"/>
<path d="M2402 9100l 0 0 4 27 5 29 5 28 2 29 3 29 2 29 0 30-1 29-1 25-1 27"/>
<path d="M2522 9129l 0-1-20 18-14 22-16 19-16 18-19 19-18 18-12 21 21 14 28 6 27 3 28 5 27 4 25 5 27 8 23 7 22 13"/>
<path d="M2748 9643l-1-1 5-25"/>
<path d="M3267 9244l 0-1-21 22-11 26-9 22-11 27-11 31-11 35-12 39-11 43-12 43-10 47-5 25-3 25-3 25-1 25-2 25-1 26-1 47 1 45 2 42 3 38 5 39 8 34 7 33 10 29 10 26 8 23 10 23 15 26 16 21 19 21 24 9 15-23"/>
<path d="M3363 9326l 0-1-1 30-1 25-2 29-2 29-3 33-4 31-3 28-5 25-11-23 3-29 6-34 3-26 4-27 4-27 3-27 2-34-2-28-3 25 7 24 12 28 14 30 18 28 19 29 21 26 21 26 20 23 17 20 22 17 24 6 22-17 11-28 3-26-2-34-7-34-6-27-8-27-7-29-7-25-6-24-8-27-9-24"/>
<path d="M3701 9400l 0-2 26 3 26-2 30-5 25-3 27-4 27-5"/>
<path d="M3792 9307l-1 0-5 24 8 28 9 26 7 28 6 25 10 27"/>
<path d="M4047 9265l 0-1 9 25 5 26 2 31 3 26 2 27 0 26 1 24 0 31 2 29 2 24"/>
<path d="M3312 9746l-1-1 29-1 26 0 32 0 26 0 29-1 33-1 36-2 40-3 41-3 44-2 44-1 42-2 41-2 42-2 40-6 40-4 36-5 34-6 32-5 28-6 27-5 25-3 30-8 29-5"/>
<path d="M4208 9103l-1-1 28 10 26 20 21 20 24 29 16 21 17 22 18 25 17 25 18 28 17 30 15 32 13 33 12 32 10 33 7 31 6 33 4 32 2 33 0 36-3 33-4 34-7 33-8 32-9 33-11 32-12 31-12 30-12 28-12 27-12 26-12 25-12 21-17 28-17 25-20 17"/>
<path d="M3721 9916l-1 0-23-10-23-6 28-1 27 4 31 6 25 5 24 6 23 8 23 15 13 24-5 30-12 22-18 23-23 25-26 23-19 15-20 15-20 15-28 18-25 15-22 11-22 13 24 3 25-5 30-5 31-5 33-3 32-2 30 0 28 2 25 3 29 3 25 5 23 5"/>
<path d="M4736 9531l-1 0"/>
<path d="M5273 9052l-1-1-25 5-18 26-14 23-16 30-12 23-10 26-11 31-10 31-9 35-10 35-8 38-7 42-7 43-6 44-5 45-4 43-2 41-1 41 0 39 2 38 4 34 5 32 6 32 8 29 8 26 9 25 9 23 16 31 16 26 16 23 19 24 17 21 16 18"/>
<path d="M5378 9311l 0-3 16 18 8 27 8 34 5 28 5 29 3 34 2 35 1 36 1 39-1 39-1 38 0 35-1 32 0 28 0 24 0 31 2 25"/>
<path d="M5720 9486l 1 1 26 4 27 4 25 2 27 5 26 1 24 2 28-2"/>
<path d="M6351 9089l 1-2 0-24-8 24-8 26-9 31-8 33-7 32-5 31-4 26-3 24 9-24 5-28 3-33 1-32-1-31-2-29-4-28 6 31 11 28 15 30 12 21 14 20 13 20 15 20 20 23 20 18 25 15 28 4 22-15 13-26 6-29 0-25-5-29-9-28-12-30-13-30-12-29-13-26"/>
<path d="M6645 9158l-1-1 27 0 26-5 29 1 28 2 26 1"/>
<path d="M6904 9006l 0-1-4 26 6 28 7 31 5 25 6 30 4 30 4 30 1 27-1 28"/>
<path d="M6285 9411l 1-1 25-3 28 2 31 0 24 0 27-1 30 1 31 1 33 3 34 2 36 2 36 3 35 0 34 2 33 2 31 2 30 3 30 1 26 2 24 2 31 1 26 2 25 0 25 0"/>
<path d="M6494 9579l 1-1 3 32-3 29-5 34-5 33-5 34-5 33-4 27-3 25 5-34 4-31 2-32 1-33-1-35 0-30-1-27 17 24 17 26 14 22 18 23 21 23 24 24 24 19 24 17 23 14 26 13 29-1 22-20 14-26 6-23-1-31-6-24-10-25-15-25-20-19-21-16"/>
<path d="M6166 8987l-1-1-25 7-13 20-17 33-13 27-12 33-11 35-11 38-9 39-7 40-6 40-3 40-1 39 2 41 3 40 6 40 8 38 11 36 13 36 17 33 18 31 21 29 23 27 23 24 26 22 27 19 27 17 28 15 25 13"/>
<path d="M6977 9006l 0-1 14 20 15 25 14 22 16 26 19 28 20 29 13 22 13 23 12 24 12 25 9 26 8 25 6 26 3 27 1 28-1 29-4 29-6 31-8 32-9 31-11 32-14 30-14 30-14 29-14 28-14 25-12 23-19 26-17 20-20 17"/>
<path d="M7133 8956l 0-1 12 23 12 26 9 25 7 27 5 25 2 26 0 25"/>
<path d="M7251 8961l 1-1-4 25-12 22-16 20-19 18-20 15-12 21 20 14 28 7 28 2 25 0 25 0 27 1 25 2 24 1"/>
<path d="M7371 8858l 0-1 11 22 20 23 20 21 25 24 18 19 18 19 18 21 17 23 17 23 15 26 13 27 11 29 10 28 8 32 7 33 6 33 5 35 5 32 4 33 4 34 3 31 3 29 2 28 1 27-1 28-2 27-5 25-7 24-9 23-11 24-13 24-14 24-15 22-17 18-23 24-23 18-20 15-25 14-25 10"/>
<path d="M2669 9630l 0 0 22 11 28 9 27 7 27 4 30 0 25-1 25-3 24-3 26-4 24-6"/>
<path d="M2789 9491l-1 0 0 26 5 25 10 28 8 26 9 27 7 29 6 30 5 29 5 26 5 30 4 30 4 24"/>
<path d="M10783 620l-1-1 7 28-2 25-5 29-5 32-5 33-3 33-3 29-3 27-4 24-1 26 16-29 10-35 5-26 3-28 1-29 1-28 0-26 1-33-2-26-4-25-2 29 5 25 9 27 11 28 16 28 19 29 20 25 17 22 21 23 23 16 24-14 7-28 3-28-2-33-2-24-4-25-2-24-7-35-5-30-4-26-7-25"/>
<path d="M11058 525l 0-1 24 10 20 14 21 16 5 25-16 20-21 17-21 14 26 11 25-2 29-3 30-1"/>
<path d="M11184 788l-1-1 25-2 24-2 24-2 27-3 30-3"/>
<path d="M11432 619l 1-1 15 20 9 25 6 29 0 25 2 28 1 30 2 30 0 28 2 26 3 29 4 26"/>
<path d="M10685 1076l 0 0 25 10 29 6 32 2 28 1 36 0 27 0 29-1 33-1 33-1 35 0 36 0 34 0 36 0 36 0 34 1 35 1 36 1 35 0 34 1 34 1 32-1 31-1 30-1 29-3 26-2 24-4 30-5 28-5 24-5"/>
<path d="M10985 1285l-1-2 11 27-1 25-3 29-2 32-3 25-5 34-3 31-1 28 24-2 13-23 12-30 10-31 5-34 0-25 0-25-3-34-2-26 15 28 10 26 14 27 16 26 18 22 19 19 21 16 22 12 25 6 25-7 18-18 11-25 4-25-3-26-8-29-10-26-12-23-15-21-18-19"/>
<path d="M11309 1225l 0-1 27-5 27 1 27 2 25 4-2 26-20 16-22 14 14 21 28-1 29-3"/>
<path d="M9881 2316l 0-1 29-3 26-5 29-5 29-5 28-4 25-5 23-5"/>
<path d="M9982 2223l 1-1 3 28 5 31 2 28 1 29-1 27 2 27 13 22"/>
<path d="M10655 1983l-1-1-17 22-16 25-13 24-17 31-11 24-12 29-12 31-10 34-10 36-8 36-7 38-3 39-3 39-1 39 0 38 2 36 4 33 4 32 5 31 7 29 6 27 7 25 11 32 10 27 11 21 15 24 16 22 16 18 18 17 17-20"/>
<path d="M10736 2080l 1-2-5 26-4 31-4 34-4 34-5 33-1 27 1 26 21-18 11-32 5-35 2-24 1-25 0-26-1-24 0-31-3-27-8 27 2 29 7 32 13 32 19 29 21 26 25 21 27 15 26 10 27 6 23-8 10-22 2-28-6-27-9-32-8-23-7-23-13-32-12-27-13-24-19-17"/>
<path d="M11059 1955l-1-1 27 7 27 6 26 7 0 26-16 19-20 16-23 11 25 4 29-2 25-1"/>
<path d="M11208 2125l-1-1 23-6 32-3 24-2 26-4 26-4"/>
<path d="M11460 1992l-1-2 30 4 23 9 29 16 23 17 17 21 0 29-15 22-19 18-24 17-28 18-29 17-27 16-25 14-24 17 19 17 26-4 31-7 32-8 31-8 32-9 33-11"/>
<path d="M11591 2033l 0-1 10 28 4 29 5 27 2 29-2 30-3 27-3 25-2 24 8-32 4-30 1-35 0-25 1-27 1-25 2-32-1-27 14 21 11 24 15 26 17 24 19 23 17 21 18 22 22 15 27 3 22-19 12-27 5-25-1-29-4-33-5-35-6-32-9-24-12-21-16-19"/>
<path d="M11942 2043l-1-1 24 10 30 4 31 1 29-1 28-6 24-8"/>
<path d="M12007 1967l-2 1-19 18-4 28 1 25 2 29 2 30 1 33 3 31 5 28 8 28"/>
<path d="M12155 1947l-1-1 25-4 27 3 26 3 27 5 26 8 24 10 24 15 16 22 1 28-9 25-20 25-20 17-25 18-32 15-30 15-25 12-21 13 11 22 27 5 33 3 25 0 26 0 25 0 26-3 25-4"/>
<path d="M10774 2414l 0-1 26 4 25 0 25-1 28-1 36-2 41-3 45-3 25-2 26-1 27-1 27-2 30-1 29 0 31-1 31-1 32 0 33 0 33 0 34 0 34-1 35 0 35-1 36-1 35-1 35-1 36-2 36-3 35-3 35-3 36-4 35-5 35-5 34-5 34-5 34-5 31-5 30-5 29-4 28-4 26-2 25-3 45-5 41-2 37-2 33-1 30 1 26 1 29 1 25 1"/>
<path d="M11413 2533l-1-1 1 27 4 28 1 32 1 28-2 30-3 30-5 32-8 31-7 27-4 25 23-19 16-27 9-22 8-24 5-25 3-24 2-24 0-34-2-29-5-23 3 28 12 29 19 21 23 21 26 19 25 17 22 14 24 15 22 9 19-20 13-24 5-23 0-30-5-35-4-26-6-25-9-32-11-22-21-18"/>
<path d="M11724 2446l 1-1 28-4 27 1 25 4 23 9-12 23-24 15-23 12 26 10 29 0 24-4 30-6"/>
<path d="M12543 1873l 0 0 14 21 16 18 23 24 18 18 21 20 24 21 25 24 28 24 27 27 28 31 26 33 24 35 22 35 19 36 16 35 12 33 8 31 5 30 1 28-1 27-1 26-2 25-7 24-7 25-10 23-14 22-14 20-14 21-17 19-18 19-18 17-20 14-28 16-25 11-25 6-11-23"/>
<path d="M13070 2288l 0-1 26-2"/>
<path d="M13565 1838l-1-1-30 6-23 20-17 23-18 29-12 24-12 28-12 30-10 33-11 35-10 37-8 40-7 40-7 42-3 40-3 40-2 38 0 35 2 31 3 29 4 25 12 31 20 28 24 28 22 27 20 25 21 22 21 18 23 14 24 6"/>
<path d="M13703 1977l-1 0 0 24-1 27 0 25 1 25 1 25-1 31-2 27 15-28 14-32 8-23 6-25 4-25 2-27 1-28 1-27 1-25 0-28-8 28 0 33 5 35 10 34 16 33 21 29 16 18 25 23 25 20 22 12 23 10 25 1 20-17 12-26 2-28-5-32-9-29-11-34-10-25-9-22-12-29-16-20"/>
<path d="M14123 1787l 0-1 25-1 26 7 22 14 6 24-18 21-19 17 19 20 25 4 30 4"/>
<path d="M14300 2002l-1-1 30 1 32 3 25 1 28 2 27 0 27-1"/>
<path d="M14600 1860l-1 0-4 24 8 31 10 29 11 32 7 31 5 31 3 29 0 27 0 25-6 30"/>
<path d="M13706 2285l-1 0 26 16 34 1 31-1 39-3 46-4 25-2 27-2 29-1 31-3 32-1 32-1 33-1 32-1 34-1 32 0 32 0 30 1 32 0 30 1 30 1 30 0 29 0 29 1 31 1 29 0 29 1 27 1 28 1 26 1 25 1 25 1 43 2 39 3 33 2 29 3 33 2 25 2"/>
<path d="M14124 2472l-1-1-2 27-6 32-7 27-8 30-6 29-5 30-1 30 2 24 19-24 12-24 9-28 5-31 0-30 0-31 0-26 1-25 9 27 17 28 18 25 21 24 25 24 26 21 23 16 22 10 28 6 23-12 5-26 0-28-7-26-9-28-9-28-8-24-10-24-12-22"/>
<path d="M14436 2374l-1-1 27 2 23 5 22 10-10 24-22 12-21 12 16 18 28-2 26-2 28-4 27-3"/>
<path d="M14839 1963l 2-1 27 5 24 13 28 19 20 14 23 17 23 19 22 21 21 23 18 26 14 27 12 26 9 27 6 26 5 25 3 24 1 25 0 34-2 34-5 34-7 28-9 25-15 26-19 27-22 26-23 23-27 20-28 16"/>
<path d="M9821 3562l 0-1 28-3 33-5 30-7 31-5 32-7 31-8 29-10"/>
<path d="M9953 3455l-1-1-6 27 6 25 10 31 6 26 9 24 12 24 16 23"/>
<path d="M10382 3653l 1-1 30 2"/>
<path d="M10533 3686l-1-1 27-6 25 0"/>
<path d="M10753 3670l-1-1 24 1"/>
<path d="M9714 4701l 1-1 26-5 27-5 25-7 28-6 28-6 26-7 26-8"/>
<path d="M9832 4608l-1 0 1 26 13 24 14 29 9 24 10 22"/>
<path d="M10410 4349l-3 0-26 15-17 19-19 29-15 23-15 26-17 29-15 30-14 32-13 32-10 32-7 33-8 31-5 33-2 33 0 32 3 30 6 30 7 27 9 26 10 24 12 23 14 20 24 25 25 22 25 18 27 14 24 10 28 6"/>
<path d="M10539 4437l-1-1-6 25-2 30 0 27 3 30 0 31-2 28 1 26 11-27 4-30-1-32-4-33-5-35-4-29-6-25 5 26 13 26 15 27 18 28 24 27 25 23 26 19 24 13 24 8 27-6 15-23 8-25 3-29-6-31-8-34-8-24-8-24-8-24-12-28-14-24"/>
<path d="M10860 4375l 0-1 26 0 28 6 24 10 13 21-19 20-25 16-21 14-19 16 26 12 27 2 26 1 30 2"/>
<path d="M11073 4533l-1-1 28-8 24-5 29-7 29-9 31-9"/>
<path d="M11355 4377l 1-2 29-2 26 9 27 11 22 11 21 18 2 24-12 22-25 19-23 16-26 16-28 17-21 12-29 18-25 15-20 20 2 25 26 5 24-1 29-3 31-5 31-6 34-10 23-8 23-10"/>
<path d="M11528 4426l-1-1 0 25 5 27 3 28-4 25-6 25-5 27 6-25 7-30 4-30 4-34 1-29-1-27 3 28 11 25 16 25 19 25 19 25 20 21 22 14 26 2 24-17 17-24 9-30 1-26-4-30-10-31-12-27-14-21-17-19"/>
<path d="M11820 4424l-1-1 26-3 29 2 31-1 29-3 25-8"/>
<path d="M11895 4373l-1 0-19 16 1 25 5 24 7 24 11 26 13 23"/>
<path d="M12098 4338l 0-1 24-8 30 6 27 11 21 16 15 23 4 24-13 24-24 18-25 13-28 11-27 11-25 9-21 12-17 18 25 7 28 0 31-3 26-5 29-5 26-7 28-5"/>
<path d="M10619 4840l-1-3 18-21 24-7 36-7 32-3 36-2 41-2 47-2 24-1 27-1 27-1 29 0 30-1 31 0 32-2 32-1 34 0 35 0 35-1 36-1 36-1 37-2 38 0 37-1 37-1 36 0 38-1 37-1 35-1 36 0 34 0 35-1 34 0 34-1 32 0 32 0 31 0 32 0 30 0 30 1 28 0 27 1 25 0 26-1 47 0 42-1 37-3 33-3 30-3 27-3 28-3"/>
<path d="M11334 4961l-2-1-12 27-7 32-6 25-5 24-6 30-8 27-8 23 8-30 12-29 13-34 10-33 5-30 0-28 4 27 11 25 17 26 20 27 23 26 26 22 25 20 24 17 21 12 26 6 19-16 10-28 4-26-1-27-5-32-9-33-11-33-11-27-11-25"/>
<path d="M11621 4905l-1-1 25 2 27 5-6 25-26 12-24 12-23 14 7 25 31 3 27-2 30-5 35-7 27-5 27-6"/>
<path d="M12321 4317l-1-1 27 18 29 15 23 13 24 15 25 19 25 22 26 25 23 26 20 30 19 31 16 32 13 34 11 35 9 35 7 35 3 35 3 33-1 32-3 32-5 30-9 30-10 30-13 27-18 28-19 27-21 26-22 25-22 21-23 19-21 15-29 17-25 9-25-1"/>
<path d="M12597 4134l-1 0 10 26 5 28 3 26 4 29 3 27 3 27 3 27 1 25"/>
<path d="M12811 4128l-1-1-27 10-21 17-19 17-21 18-21 18-22 19-20 17-22 19-18 16 23 8 25 3 33 1 33 2 34 4 31 3 32 3 26 5 24 5 25 7"/>
<path d="M10826 6253l-1 0 24-7 28-3 27 0 26 2 28 2 31 1 28 2"/>
<path d="M10795 6375l 0-1 24 3 29-1 26-5 29-7 26-5 31-5 31 0 28 5"/>
<path d="M11525 5837l 1-2 9-24-2 30-4 25-8 28-8 29-7 30-6 30-6 28-5 23-6 24 13-28 9-29 8-35 5-24 4-24 5-35 1-29-1-26 4 28 5 27 7 27 8 29 12 31 16 29 19 27 20 23 21 19 20 12 27 8 25-4 21-17 14-21 13-25 4-28-2-30-8-32-14-33-11-22-12-23-12-22-14-26-12-23"/>
<path d="M11882 5727l-1-1 17-20 26-3 25 8 9 22-7 23-19 20-23 19-21 15-23 11 25-1 26 3 27 4 26 0"/>
<path d="M12075 5991l-1 0 24-6 24 1 27 0 27-2"/>
<path d="M12336 5811l 0-1 4 27-3 29 3 31 3 31 2 24 3 30 5 24 6 24 8 25"/>
<path d="M11504 6244l-1-1 26-5 26 2 33 2 31 1 26 2 28 0 32 1 33 0 36 1 37 0 39 0 40 1 39 0 42 0 42 0 40 0 40-1 37-2 36-1 34-3 31-3 29-2 27-2 33-2 28-2 30 0 25 0 27 0 25 3"/>
<path d="M11846 6411l-1-3 15 25 1 33 0 25-1 27 0 29-1 30-2 30 0 29 0 29 0 28 1 26 0 26 5 33 8 24 26-5 13-26 11-36 4-25 2-27-4-26-6-29-9-28-9-28-9-26-12-31-9-23-12-23 18 19 15 24 12 22 14 21 14 20 15 20 16 18 22 20 23 16 26 3 23-11 11-24-2-28-8-28-8-29-7-23-9-25-12-22-11-22 1-27-6-25"/>
<path d="M12131 6328l-1-1 25 4 24 8 18 16-17 19-21 12-22 13-5 24 28-1 25-7 28-7 24-2 26 3"/>
<path d="M11293 5822l-1 0-20 15-18 23-15 20-17 26-13 28-10 24-11 28-12 32-12 36-11 39-11 44-9 46-8 47-2 24-2 24-2 46 2 46 6 43 8 40 10 37 14 34 17 32 18 31 21 29 24 27 25 25 28 25 30 21 35 19 39 20 43 18"/>
<path d="M12603 5795l-3-1-18 18 10 27 12 22 18 25 22 27 17 20 18 22 17 24 18 24 18 25 18 26 18 29 16 29 15 31 11 31 8 32 6 32 3 33 0 33-3 33-5 34-10 35-12 35-13 34-17 33-18 31-18 31-19 26-18 24-17 21-23 23-23 17-22 10-25 3"/>
<path d="M13003 6178l 0-1"/>
<path d="M13396 5819l-1-2-28-1-23 12-23 22-16 25-13 22-13 26-14 31-15 34-15 35-17 35-15 37-15 36-11 37-9 37-6 39-2 38-3 38 2 38 3 36 7 34 8 32 10 28 12 25 12 22 20 30 19 25 22 20 20 17 25 14 25 4 28-7"/>
<path d="M13500 5979l-1-1 3 27 5 33 4 36 3 27 3 32 2 33 0 36 0 35-2 36-2 35-4 34-2 33-4 33-2 30 0 25-1 26"/>
<path d="M13727 6236l-1 0 27 1 25 2 28 0 24-2 27-5 26-5"/>
<path d="M14244 5934l 1-1 16-20 17-19-2 26-5 24-6 29-5 27-6 27-4 25-5 31-2 25-6 23 5-26 7-27 6-32 3-33 2-25 1-25 1-24 1-29-2-25 2 30 7 31 11 26 12 24 16 24 16 24 18 23 15 20 20 20 22 11 25-3 17-20 10-27 2-31-2-27-7-30-7-32-8-31-10-28-10-29"/>
<path d="M14540 5801l 0-1 24-2 26 6 21 12-15 20-20 15 15 21 25 1"/>
<path d="M14670 5971l 0-1 24-1 27 2 25 1 24 2 32 2"/>
<path d="M14923 5875l 1-2 20-14 29-3 25 1 29 6 22 12 8 26-15 25-18 18-20 19-22 18-25 16-28 18-25 17-21 15-17 18 23 12 24-1 28-3 29-4 29-5 28-7 27-6 25-6"/>
<path d="M15159 5876l-1-1 2 28-2 27-3 24-6 25-9 29-12 26 2-27 8-24 6-26 1-27-2-25-2-28 3 28 14 24 15 21 15 22 20 21 17 17 20 15 25 12 25 4 25-6 18-22 8-23 1-31-5-27-10-25-12-25-12-23-14-22"/>
<path d="M15433 5875l-1-2 26-6 31 3 32 3 28 1 25-1"/>
<path d="M15516 5824l-1 1-10 26 5 29 7 27 8 26"/>
<path d="M15646 5816l 1-1 25-5 25 2 23 7 25 15 19 16 11 22-11 23-22 21-21 16-23 17-24 16-19 15 20 16 28-1 29-5 25-5 26-5 26-3 27-2"/>
<path d="M14188 6217l 0-1 26-10 24-3 32 0 27 0 33 1 38 0 46-1 25 0 28 0 30-1 31 0 34-1 35 0 37-2 39-1 40-1 41-1 43-1 41-2 44-2 44-2 44-2 44-2 45-3 45-3 44-3 45-3 44-2 42-3 42-2 41-3 38-2 38-2 37-1 36 0 35 0 33-1 31 0 30 1 30 0 27 2 27 1 25 2 45 2 43 2 35 2 30 1 25 0 26 0"/>
<path d="M14874 6344l 1-1-7 25-4 27-8 34-8 35-8 23-9 33-8 30-5 23 20-19 14-31 9-23 10-35 3-24 0-33-1-27 15 29 15 23 19 22 25 20 29 20 22 11 29 16 29 13 23 8 25 6 24-6 16-18 11-25 1-30-5-25-8-28-9-29-14-27-12-22-13-21"/>
<path d="M15201 6306l 0-1 25-5 27 3 26 9-17 23-22 15-15 18 22 12 24 0 28-2 23-5 24-6"/>
<path d="M14157 5866l-1-1-21 13-14 25-15 29-11 25-14 30-13 31-12 35-12 37-10 37-10 39-6 38-3 37 3 35 8 32 15 31 19 29 25 29 31 29 35 27 38 27 21 12 41 25 22 12"/>
<path d="M15941 5849l 1-1 25 2 28 9 23 14 26 18 20 17 18 22 16 26 15 29 12 33 12 33 8 24 6 23 5 25 5 25 3 24 1 26 0 25-3 26-2 26-5 27-6 26-8 25-11 25-11 26-15 24-17 22-17 20-18 18-19 17-19 15-20 14-30 16"/>
<path d="M16438 5814l-1-2-18 16-20 32-15 27-17 31-16 35-15 37-13 38-11 39-9 38-6 40-2 39 2 37 2 37 6 36 7 32 10 30 13 27 12 23 15 21 20 25 19 20 19 15 22 13 26 0 20-19"/>
<path d="M16602 5886l-1-1-8 27-7 32-5 26-3 25-4 30-4 25 1-26 5-27 5-30 1-32-2-29-4-29 12 23 10 30 14 32 11 23 14 21 21 28 23 23 25 16 22 10 28 2 22-11 18-22 13-23 9-28 2-33-4-35-7-24-7-25-7-24-9-23-9-26-16-19-23 10"/>
<path d="M16861 5794l 0-1 25-13 25 0 27 3 24 8 9 23-21 18-21 15-21 13 21 18 26 0 25 1 26 3"/>
<path d="M17043 5939l 0-1 27 7 29 2 27-1 27-1"/>
<path d="M17249 5844l 0-1 15 22 10 23 7 26 8 31 4 31 2 32 1 27 0 30 1 29"/>
<path d="M16550 6160l-2-1 28 7 25 3 33 1 38 0 42-1 46-3 47-4 24-1 25-2 24-3 48-5 25-1 48-4 45-4 44-3 41-5 38-3 33-3 30-3 27-2 35-2 29-1 26 2"/>
<path d="M16787 6341l-1 0 5 25 2 31-2 32-4 34-6 35-5 24-6 24-9 31-7 25 7-26 10-35 5-25 5-26 3-25 3-24 5-34 4-27 5-26 21 17 14 25 12 32 12 25 11 24 14 24 13 22 13 22 20 25 22 18 28 12 26-3 26-17 18-23 15-31 11-34 4-25 0-27-3-31-2-31-4-28-5-25-8-25-15-23"/>
<path d="M17150 6268l 0 0 27 2 24 4 24 8-16 21-23 12-20 12-14 20 26 10 28-3 28-5 27-8"/>
<path d="M17390 5869l 0 0 27 4 24 10 31 13 23 13 25 15 24 19 22 20 22 23 18 25 15 26 13 28 11 28 10 31 12 31 9 33 8 32 5 31 2 31 4 31 3 30 1 29 0 29-3 27-3 25-5 24-12 29-12 24-17 20-21 19-29 7-26-6"/>
<path d="M17587 5739l 1 0 24 6 26 9 32 15 23 13 25 15 24 19 24 21 25 24 23 27 22 30 21 31 19 32 18 33 17 34 14 32 11 34 9 32 6 32 4 30 1 29 0 28-2 27-4 27-6 26-8 28-12 27-13 27-14 26-14 23-15 21-20 27-18 23-22 20-24 9"/>
<path d="M18455 5509l 0-1-16 22-8 30-6 26-8 31-8 35-9 38-11 43-12 46-6 24-6 26-7 26-7 26-7 27-7 28-7 29-7 29-8 30-9 30-9 31-8 32-9 32-10 32-10 32-11 32-10 32-11 32-12 31-11 31-11 31-10 30-10 29-10 29-10 29-9 29-9 27-8 26-8 27-8 24-8 23-12 44-11 39-10 35-7 27-8 33-2 27 2-28 8-24 10-25"/>
<path d="M18651 5763l-1-1-28 5-15 19-20 28-15 22-15 25-16 26-14 29-14 30-13 31-11 32-12 34-9 36-7 35-6 35-2 31-1 29 1 28 2 25 7 32 10 28 14 28 17 23 22 18 25 14 22 13"/>
<path d="M18717 5875l-1-1-1 27 0 30 1 29 0 35 0 26 0 28-1 30-2 29-2 29-4 28-4 28-2 25-4 33-4 25-5 25"/>
<path d="M18898 6081l-1-1 27-2 25 1 27-4 24-1 27 0 27 1"/>
<path d="M19394 5729l-1-1-20 17-16 25-14 30-11 28-13 32-9 23-8 25-8 27-7 29-7 30-5 30-5 31-2 29 1 29 1 27 2 28 3 25 1 26 4 24 8 34 5 30 7 26 7 24 9 26 13 25 13 22 25-2"/>
<path d="M19491 5791l 0-1 2 27-2 31-4 27-2 27-3 28-2 24-2 25 19-19 3-30-2-25-2-28-4-27-7-29-8-23-3 30 8 28 12 21 16 20 16 20 19 17 24 16 24 10 25 2 23-15 9-26-5-30-13-27-13-29-12-23-15-23-16-20"/>
<path d="M19702 5729l-1-1 23-11 27-1 26 3 21 11-5 26-20 14-24 13 12 22 25 3 27 6"/>
<path d="M19847 5854l-1 0 25-2 25 1 32 2 31 1 29 2"/>
<path d="M20080 5730l-1-1 25-4 22 9 25 12 23 14 19 17 3 26-20 17-25 15-24 11-28 12-26 13-23 13-22 17 21 15 30-2 27-2 26-3 26-3 23-5 26-7"/>
<path d="M20270 5764l-1-1 6 27 2 28-3 25-8 28-13 24-17 19 3-26 6-25 6-28 5-30 0-25 0-24 5 24 13 23 15 27 15 25 15 23 18 22 22 11 22-14 15-27 4-25-3-31-5-25-6-24-7-27-12-22"/>
<path d="M20462 5769l-1-1 28-7 28-1 31 0 28-2"/>
<path d="M20523 5716l 0-1-14 20 5 30 10 25 11 25 16 21"/>
<path d="M20651 5709l 0-1 25 0 24 11 26 14 21 14 13 22-5 24-18 17-20 15-26 14-22 11-20 14 19 18 27 5 25 1 25 0 25 0 24 1 31 1"/>
<path d="M19488 6122l-1-1 25-5 32 0 30 0 36-1 42-1 45-1 25 0 25 0 25 0 26 0 27 1 28 1 29 0 27 1 30 0 29 1 30 1 29 1 30 2 29 1 30 1 30 2 29 1 29 1 30 1 30 0 29 1 29 1 30 0 27 0 28 0 28-1 28-1 28-2 26-1 26-2 25-1 46-2 42-2 32 1 26 2 25 2"/>
<path d="M20043 6299l-1-1-5 25-1 27-2 31-2 26-5 25-6 24-9 29-11 25 8-29 13-29 7-23 10-34 6-35 4-28 2-27 6 25 7 24 15 25 17 26 20 25 20 21 19 17 25 14 24 5 26-7 19-21 12-25 4-32-2-27-4-27-8-25-12-22-19-18"/>
<path d="M20320 6228l 1-1 26 2 27 9 19 15-21 17-22 14 17 18 26 0 31-1 25-2 27-4 30-6"/>
<path d="M20814 5744l 0 0 15 25 18 24 19 20 20 21 20 23 18 26 17 28 15 32 9 22 8 23 6 25 5 25 5 26 3 25 2 25 0 24-3 35-9 35-12 31-17 29-18 25-17 20-18 17-22 16-26 6"/>
<path d="M20930 5731l-1-1 20 17 22 20 20 19 23 22 25 23 24 25 23 28 12 21 11 23 7 24 7 23 5 25 2 25 2 27 0 25 0 24-1 33-2 27-4 24-5 30-9 27-12 28-14 24-15 21-16 19-22 20"/>
<path d="M11324 7542l-1-1 27 2 25-2 32-4 27-5 29-5 30-6 27-5 25-4 25-5"/>
<path d="M11466 7428l-1-1 7 27 6 25 6 28 5 29 5 27 6 25 11 24"/>
<path d="M11911 7404l-1-1 8-24-14 23-10 23-12 25-11 28-12 30-12 31-10 33-10 34-8 35-6 34-3 34-3 34 0 35 2 35 1 35 3 33 2 32 5 30 5 27 7 26 8 24 12 31 12 25 14 22 19 25 18 18 20 17 22 12"/>
<path d="M12106 7459l 0-2 4 28-3 29-3 32-2 32-4 32-4 32-4 27-5 26 7-28 10-34 6-27 4-26 2-26 0-25-2-35-4-31-7-26 1 29 10 27 17 28 12 21 16 20 16 21 17 19 17 18 23 23 24 20 21 12 27 8 26-8 17-20 10-22 4-27-4-30-8-33-8-24-10-24-11-25-16-30-15-22-22-15"/>
<path d="M12404 7331l-1-1 27 0 20 14 6 25-12 22-18 19-16 18 21 12 28 0 31 0 27 2"/>
<path d="M12591 7470l 0-1 26-10 25-3 28-5"/>
<path d="M12869 7352l 0-1 29-4 27 4 23 5 30 8 25 12 6 26-14 23-23 28-19 20-20 19-21 17-22 16-25 21-21 17-20 16-18 17 30 2 32-10 27-10 33-10 32-9 33-7 30-6"/>
<path d="M13129 7377l-1-1-7 26 1 28-1 24-1 24-2 31-3 28-5 24 2-29-1-25-2-29-4-32-5-32-6-28-3-27 7 29 9 23 13 25 18 27 23 25 24 22 24 18 26 15 23 8 27 2 28-10 16-20 11-28-1-32-6-25-10-24-13-22-16-25-16-19"/>
<path d="M13432 7394l-1-1 27-5 32-2 28-3 28-4 25-6 27-8"/>
<path d="M13534 7319l-3 0-24 4-14 23-3 24 8 28 14 21 16 19 17 18"/>
<path d="M13695 7236l 1-1 25 3 25 11 23 13 21 17 19 18 7 27-10 27-20 22-20 16-21 16-22 15-20 16-21 20 4 24 30 2 31-2 27-4 27-3 26-2 24-2 28-2"/>
<path d="M12044 7801l-3-1 28 4 25-1 32-2 39-2 45-3 25-2 27-2 28-2 30-1 31-2 32-2 35-1 36-2 36-1 40-1 40-2 43-1 44-2 46-2 46-1 48-2 49-2 49-1 51-2 50-2 50-1 51-1 50-1 49-2 49-1 48-2 46 0 45-1 44-2 44 0 41-1 42-1 42-1 41-2 41 0 39-1 39 0 37 0 36 1 35 0 31 1 31 2 28 2 28 1 25 2 45 3 37 4 30 5 32 9-31 11"/>
<path d="M12934 7959l 0-1-4 28-4 27-6 30-10 33-10 33-10 34-10 30-10 27-10 25 11-23 10-30 7-35 2-37 0-24-2-33-3-28-5-24 15 22 21 25 19 23 22 26 21 28 22 26 22 24 18 21 21 20 26 7 16-21 10-22 5-29 2-32-3-34-5-35-9-32-9-28-9-22-12-22"/>
<path d="M13263 7922l 1-1 24-3 24 3 25 7-12 25-23 15-25 15-24 12-22 16 20 17 31 5 32-1 28-1 32-5 35-5"/>
<path d="M14151 7242l 2 0 24 10 22 13 26 18 30 24 23 19 24 19 25 22 25 24 24 26 24 29 21 32 19 34 16 34 14 36 10 38 6 35 4 36 0 35-4 35-6 37-10 36-15 39-18 38-22 40-26 40-15 19-14 20-15 19-29 37-29 33-25 31-19 26-17 22-21 23"/>
<path d="M14607 7155l 0-1 4 28 2 32 2 27 1 30 0 31-3 30-3 24-3 25"/>
<path d="M14746 7162l-2 0-23 16-19 20-19 18-21 20-19 22-18 18-15 19 24 9 24 2 32 0 33 0 24 0 36-1 35 1 34 1 30 2 27 7"/>
<path d="M18518 6788l-1 0-1 26 3 29 8 27 12 25 17 19 26 13 28 8 25 7 30 2 32 0 25 0 26 0 29-2 35-5 27-5 27-5 28-6 31-7 31-7 33-5 33-5 32-4 33-3 35-1 32 0 30 3 32 4 29 6 30 7 31 8 29 10 29 12 28 13 27 14 25 17 25 19 23 19 20 21 19 21 16 22 15 23 14 24 11 22 11 25 11 24 10 22 13 31 10 25 10 27 13-25 6-34 6-25 10-25 12-24 12-22 13-20 20-26 25-23 26-22 29-19 22-11 23-11 25-10 28-9 27-8 31-6 33-4 34-2 37-2 35 1 36 1 34 2 36 4 35 4 36 5 37 5 35 5 37 3 35 4 37 3 39 2 37 0 38 0 36-2 31-5 33-6 31-7 28-9 27-10 25-11 23-11 21-14 27-22 21-25 16-28 10-28 2-27-4-28-15-24-26-12"/>
<path d="M17752 8054l-1-1-24 3 14 19 25-5 17-17-20-13-21 13"/>
<path d="M18159 7716l-1-1-23 5-15 20-16 21-19 28-13 21-14 24-13 26-14 30-12 32-11 35-11 37-9 37-8 38-5 37-5 36-2 35 1 33 1 32 5 30 5 28 5 28 6 29 7 26 7 27 8 24 10 33 11 30 11 24 13 24 11 22 12 28 12 26 14 22 21-12"/>
<path d="M19118 7754l 0-1 3 30-9 30-8 26-8 28-9 28-8 28-7 27 14-30 13-33 7-24 6-25 6-35 2-32 0-28 1 31 8 27 14 29 13 21 16 22 17 21 20 21 17 20 16 19 22 24 22 17 28 13 25-4 15-27 6-28 2-35-3-27-4-27-6-29-7-28-6-28-6-26-6-24-6-30-6-27"/>
<path d="M19474 7674l 1-1 25-10 30 5 28 6 26 7 24 10-5 26-29 15-23 12-26 15-19 16 15 22 25 2 24-1 29 0 31-2 32 0 29 3"/>
<path d="M18218 8214l 0-4 21-14 25-1 25 0 30-1 25-1 28-1 34-2 37 0 44-1 24 0 26 1 25 0 29 1 31 0 31 2 32 0 34 0 38 0 37 0 40 0 40 0 43-2 45-1 47-3 47-3 48-3 50-3 53-4 51-4 53-4 51-3 52-4 54-2 54-3 52-2 53-2 53-2 52-1 52-2 50 0 49 0 48 0 48 0 46 0 45 0 45 1 44 1 44 1 43 0 42 0 40 2 39 0 38 1 37 1 35 1 33 2 34 1 28 2 28 2 26 2 25 2 42 4 34 3 32 3 24 3 31 3 24 3"/>
<path d="M18677 8532l-1-1 7-25 25-8 25-5 29 0 25 3 26 3 28 7 26 10 17 20-4 25-17 26-24 23-28 25-21 17-23 18-24 16-25 17-25 15-23 15-22 12-25 16-21 12 28-7 27-8 26-7 28-5 27-6 28-5 27-7 28-6 24-6 28-7 25-4 25-2"/>
<path d="M19033 8491l-1-1 4 29-4 32-5 27-5 28-9 26-8 23-13 25 1-25 5-24 3-28 1-29 0-32 1-28 2-29 15 27 12 23 14 25 15 24 18 24 18 24 19 21 16 18 20 19 22 12 28-2 20-13 20-25 13-26 9-30 5-34 0-24-1-25-2-25-7-33-8-25-9-23-18-17"/>
<path d="M19423 8526l-1-3 20-18 27 0 33 1 31-1 29 0 26-1 29 0"/>
<path d="M19552 8447l-2-1-8 23 10 28 9 26 7 28 5 25 10 25"/>
<path d="M19877 8459l 0-1 24-5 25 5 24 5 28 8 25 9 21 12 6 26-18 20-21 18-20 15-24 15-25 14-22 13-25 15 19 15 28-3 31-2 26-3 30-2 28 0 29 0 28 5"/>
<path d="M20802 7739l 1-1 28 3 28 17 27 20 20 19 21 21 22 25 24 25 25 29 25 30 23 32 20 31 18 34 17 34 17 34 15 34 14 33 9 33 6 33 5 32 2 31 2 30 0 29-3 28-5 27-7 26-8 25-10 24-9 25-12 24-14 22-15 22-17 20-18 21-18 19-19 18-19 16-25 21-23 17"/>
<path d="M18938 8000l-1-2 13-26 28-18 21-12 24-14 29-18 32-19 35-20 38-21 40-21 42-20 42-20 42-21 42-21 40-21 39-20 36-20 35-20 33-18 32-17 30-16 27-15 24-14 29-16 25-13 25-9"/>
<path d="M11664 6867l-1-1 1-25 18-18 26-26 22-20 23-21 26-24 28-23 28-23 29-23 29-22 30-22 30-23 30-23 30-22 28-20 27-20 27-17 25-16 25-16 23-14 21-13 30-16 32-13 34-12"/>
<path d="M16070 5482l 0 0 18 21 6 25 2 25 3 29 0 35 0 24 2 25 3 31 2 24 4 28"/>
<path d="M16205 5504l-1 0-22 18-18 21-18 20-21 22-21 24-21 22-19 19-19 17-9 23 23 11 27 0 31-4 37-7 27-5 25-4 28-3 25-3 34-2 29-1 27 0 31 2 26 3 26 1"/>
<path d="M9804 9729l 0-1 14 25 1 25-1 30 0 32-3 27-2 30-4 32-4 34-4 31-4 28-2 30-1 26"/>
<path d="M9782 9774l 0-4 1-30 3-25 12-25 19-20 26-15 23-5 26-4 28 0 31 3 25 4 24 4 24 11 18 17 2 27-17 28-24 24-20 15-21 14-21 13-22 12-30 15-28 14-23 11-24 14-22 9 27-9 29-5 31-2 27 3 26 5 29 7 30 10 27 13 24 17 19 18 17 19 17 22 13 25 5 26"/>
<path d="M10229 9827l 1-1 24-8 29-3 28-2 29-2 28 0 27 3"/>
<path d="M10279 9899l-1-1 22-17 25-6 25-5 25 0"/>
<path d="M10678 9488l-1 0 4 28 2 28 1 28 3 33 3 34 5 35 4 32 5 26 8 25"/>
<path d="M10949 9498l-1-1-8 25-8 29-9 26-10 30-12 32-13 35-15 40-15 40-18 45-10 23-9 22-11 23-10 22-10 22-22 43-19 39-16 36-15 33-12 27-11 22-12 24"/>
<path d="M10927 9889l-1-1 26-10 26-2 31 2 31 5 25 7 21 15 7 25-15 27-17 19-22 21-26 21-19 14-28 21-26 17-22 14-18 16 25-2 31-5 25-6 25-7 26-6 26-5 25-2 31-1 25 2 24 9"/>
<path d="M12012 10081l-1 0 27-11 19-20 22-29 14-21 15-26 12-26 11-27 10-28 10-29 6-31 5-33 3-35 3-35 1-33 2-27 1-29 16 27 11 33 10 25 12 29 13 32 14 32 13 33 12 33 12 33 8 32 8 32 7 30 8 28 9 25 11 32 10 23 17 19 18-17"/>
<path d="M12125 9991l-1-1 20-15 23-8 30-7 24-8 25-7 28-7 28-5 29-5 30-3 28-3"/>
<path d="M12619 9795l-1-1 27-3 25 0 28 0 31-2 29 1"/>
<path d="M12625 9920l-1-1 26-10 29-7 27-4 28-2 30-2"/>
<path d="M14782 9644l 1-2 23-17 23-7 29-7 33-4 25-2 25-1 28-1 32-1 30 0 30 1 28 4 23 11-3 26-17 19-26 22-22 18-25 18-26 19-30 22-30 21-31 22-32 22-33 23-34 23-33 23-31 23-28 21-21 19-22 24-9 25 27 13 33 4 29 0 31 0 34-2 36-3 37-4 35-6 35-6 32-6 31-6 27-5 33-7 28-6 30-8 24-9"/>
<path d="M14736 9842l-1-1 20-15 30-5 27-4 33-4 24-2 26-3 27-4 27-2 27-3 29-3 29-4 29-4 28-3 26-3 27-2"/>
<path d="M15284 9754l-1 0 23-16 23-8 29-5 25-2 26 3"/>
<path d="M15251 9828l-1 1 24-7 30-4 28-2 28 0"/>
<path d="M15602 10051l-1 0 21-21 21-26 19-27 14-21 14-23 13-26 13-26 10-29 10-30 10-32 8-33 8-30 7-29 7-32 5-26 11 27 4 30 3 24 4 25 5 27 6 27 8 27 7 28 8 27 9 27 7 25 8 23 12 31 12 26 14 25 20 16"/>
<path d="M15648 9919l-1-1 22-15 24-8 31-11 24-6 25-5 27-5 27-5 25-3 25-1"/>
<path d="M16062 9819l-1-1 22-12"/>
<path d="M16460 9427l-1-2-24-7-19 17-18 21-19 26-16 21-15 22-14 26-14 27-15 31-12 33-9 36-9 38-4 35-5 36-1 33 0 30 2 31 7 30 5 28 10 27 11 25 11 22 14 21 19 28 23 22 24 16 23 11"/>
<path d="M16538 9591l-1-1 10 23 6 26 5 35 3 28 1 30 2 31 0 31 0 28-1 28-1 26-1 35 0 28 2 25"/>
<path d="M16706 9774l 1-2 21-15 24-4 30-3 31-2 25 0 27 1 27 1 26 2"/>
<path d="M17104 9635l 0-1 9 30 3 25 4 36 1 26 2 29 0 29 1 26 1 26 0 33 0 28 1 25"/>
<path d="M17115 9594l 0-1 20-19 29-6 27-5 25-3 28 0 24 3 26 9 24 13 21 19 12 26-3 25-16 24-20 17-26 16-25 16-27 16-25 11-25 7-30 6-28 2 27 3 26 3 28 5 28 8 27 11 26 14 23 15 22 14 25 20 18 17 18 18"/>
<path d="M17422 9436l-1-1 15 19 11 25 9 29 1 24 0 25 0 25-2 25 1 27"/>
<path d="M17577 9440l-1-1-11 24-22 18-22 14-24 12-23 12-20 14-4 25 23 12 28 6 30 4 29 6 26 2 27 4"/>
<path d="M17687 9874l-1-1 25-12 21-21 17-20 22-23 16-19 16-22 16-23 13-25 11-26 10-25 7-24 6-25 5-24 7-31 5-25 3 32 7 30 11 35 8 23 9 25 9 25 10 25 11 24 12 33 15 28 12 23 13 25 13 22"/>
<path d="M17736 9757l 0-1 26-2 30 2 25 0 28 0 27-1 28-2 28-1 28-2 26-2"/>
<path d="M18061 9420l 0-1 22 19 21 16 28 22 20 18 24 20 22 20 21 22 20 23 18 24 17 22 14 21 15 33 9 32 4 35 0 33-4 30-9 26-17 26-23 27-25 22-23 19-21 15"/>
<path d="M18597 9312l-1 3-15 30-17 31-12 23-12 28-14 31-15 34-15 37-16 39-17 41-17 42-15 43-15 43-15 42-15 42-16 37-16 36-14 33-14 29-11 25-10 22-13 27-11 22"/>
<path d="M18784 9415l-1 0-23 11-19 17-21 22-17 23-18 29-11 22-11 26-10 29-10 28-10 29-8 30-7 31-5 30-2 30 0 27 2 24 5 33 8 30 10 25 16 26 16 22 24 10"/>
<path d="M18854 9589l-1-1-8 26-2 25 0 29 3 28 3 31 4 29 4 26 6 27 9 25"/>
<path d="M18970 9684l-1-1 27 5 29-1 31-3 31-6 31-5 26-3"/>
<path d="M19339 9580l-1-1 10 26 9 31 4 31 3 34-1 25-1 24-7 34-6 28-7 25-9 27"/>
<path d="M19364 9541l-1-1 25-15 25-3 27 0 28 4 28 6 23 10 2 28-15 19-19 16-22 17-24 13-23 12-23 11-28 12-23 7 19 18 27 8 29 10 23 12 22 13 23 20 20 20 18 21 11 21 7 26"/>
<path d="M19533 9398l 0 0 21 14 21 12 28 18 30 21 17 17 22 27 12 22 8 23 12 35 10 33 8 33 6 30 3 34 1 32-2 30-2 26-5 25-9 23-12 21-19 23-20 17"/>
<path d="M19959 9664l-1-3 22-9 27 1 34 5 24 2 35 5 33 4 27 4"/>
<path d="M20047 9602l-1 1-9 27 1 25 5 24 9 29 9 26 9 26"/>
<path d="M20371 9515l 1 1 14 23 14 30 9 29 8 33 3 25 2 28 0 29-2 28-5 28-8 24-12 32-13 26-15 25-6-25"/>
<path d="M20392 9502l 0-4 4-26 21-16 31 3 25 7 31 12 22 9 32 16 28 18 22 19 15 20 8 24-8 29-24 20-28 13-34 12-25 6-25 4-33 7-28 3-26 3 22 12 26 8 28 12 30 15 30 18 29 15 19 17 19 20 19 18 16 20"/>
<path d="M20677 9326l-1-1 18 22 17 20 11 23 9 27 6 34 1 35-1 25-6 34-7 32-6 25-7 25"/>
<path d="M20887 9359l-1 0-14 24-21 19-23 13-23 11-21 13 10 25 22 14 22 10 26 7 29 6 28 7 23 5 25 5"/>
<path d="M15159 10969l-1-1 25 6 24 0 28-2 30-3 24-4 24-5 25-3 30-4 27-5"/>
<path d="M15184 11066l-1-1 27-5 28-4 30-3 27-1 25-1 27-2 24-2 29-2 25 0"/>
<path d="M15756 10794l-1-1 24-17 31-6 29-2 31 1 29 5 25 7 23 14 11 25-15 25-21 16-24 16-26 13-23 10-29 10-25 8 26 10 28 0 27 0 26 0 25 2 27 6 26 13 17 19 0 25-15 20-20 17-22 16-25 14-25 10-25 10-32 8-31 6-27 3-28-1-20-12 5-24"/>
<path d="M16238 10837l 0-1 0 25-9 30-14 29-13 22-16 26-19 28-24 32-27 33-29 36-30 36-16 18-16 20-16 19-15 19-16 19-16 20-15 20-30 36-28 35-25 32-24 29-20 25-18 21-20 21"/>
<path d="M16161 11138l-1 1-23 15-18 22-19 24-20 24-19 24-15 24-13 25 2 24 27 8 25 0 32-4 24-4 24-4 25-5 35-6 35-4 32-3 27-1 26 3"/>
<path d="M16208 11200l-1 0 10 24 9 27 7 25 7 28 4 29 2 28 0 25 3 25 10 23"/>
<path d="M16521 11119l-1-2"/>
<path d="M16954 10708l-4 1-24 12-21 16-20 22-20 30-13 25-12 27-10 29-10 32-9 31-7 34-5 35-4 37-2 36-3 35 0 34 0 33 0 30 3 30 2 27 5 25 5 25 9 30 11 25 16 26 17 22 21 20 24 12"/>
<path d="M17073 10911l 1-1 3 27 6 32 5 30 6 34 3 25 1 25 1 24 1 25 0 36-2 33-5 27-4 25"/>
<path d="M17284 11057l-1-1 27-7 25-5 28-5 27-1 24 4 25 9"/>
<path d="M17744 10769l-1-1 18-20 27-5 33-2 29 1 27 1 31 6 25 12-1 27-21 15-21 14-22 11-28 10-26 8 24 9 27 5 25 8 26 14 22 13 5 25-20 18-24 10-27 7-30 5-30 3-27 2-27 3"/>
<path d="M17603 11101l 0 0 26-7 24-3 30-2 34-3 25-2 27-2 30-2 33-3 32-2 35-3 35-3 35-4 34-3 31-4 30-3 29-2 28-3 24-3 29-4 27-5"/>
<path d="M17954 11243l 1-4 1-25-22-16-27-2-25 3-24 8-23 14-20 17-1 26 22 15 31 10 28 7 30 6 30 5 27 5 28 9 18 16-1 26-22 18-22 13-23 14-30 10-27 0-26-13-13-21 5-29 17-21 19-16 23-17 26-17 29-17 22-12 33-16"/>
<path d="M18179 10801l 0-2 26-2 20 16 21 18 28 23 19 16 19 18 18 19 18 20 18 22 16 21 14 22 14 20 15 33 13 33 7 35 2 36-3 34-9 34-10 23-10 24-11 23-12 22-19 27-18 22-18 17-24 15"/>
<path d="M18851 10618l 0 0-3 25-6 32-5 24-8 30-9 37-10 42-12 46-6 24-6 24-6 25-7 25-7 24-6 24-6 24-6 25-6 24-6 24-11 46-10 46-8 43-10 42-6 40-6 37-5 32-4 30-3 26-3 34-3 25-3 24 5-23"/>
<path d="M19087 10841l 0-1 9 22 4 26 3 29 4 27 6 27-5 24"/>
<path d="M19295 10819l-1-1-3 25-9 31-9 29-11 32-8 23-10 26-13 26-15 28-17 29-17 28-18 28-18 26-15 24-15 24-14 21-15 27-13 23-12 22"/>
<path d="M19249 11117l 0-1 26-3 25 5 24 8 23 12 15 19-10 22-21 16-23 12-25 12-25 12-24 12 16 19 24-3 29-3 29-3 24 1 27 0 25 5"/>
<path d="M19774 10959l 0-1 26 2 30 4 28 1 25-2 28-2 29-3"/>
<path d="M19891 10886l 0-1-10 24-2 31 3 27 5 26 7 24 8 27 13 25"/>
<path d="M20564 10636l-1 0-21 12-19 18-19 21-17 28-15 24-12 28-11 33-8 23-9 25-7 25-7 24-5 23-5 24-7 35-4 34 0 32 3 31 8 30 7 30 6 29 7 28 5 27 7 25 8 23 10 27 10 22 12 21 20 15 5-23-2-27"/>
<path d="M20743 10729l 0-1 19 17 5 30-1 30-1 25-1 29 0 26 2 27-2 24"/>
<path d="M20957 10785l-1 1-18 24-15 24-17 28-14 21-16 23-18 25-20 28-20 28-22 30-23 30-22 29-20 27-17 23-12 21-11 25-6 25"/>
<path d="M20936 11047l 3-1 29-1 25 5 24 13 18 18-6 27-24 18-20 12-24 13-24 12-22 12-24 12-21 13 24 15 26 4 32 0 28-2 31-5 32-6 29-8 26-9"/>
<path d="M21097 10683l 1-2 23-12 24 5 27 19 24 21 17 18 17 20 16 20 17 23 15 24 15 24 14 24 12 25 11 22 8 23 5 24 7 33 2 33 0 31-3 31-7 30-12 30-16 30-18 30-19 30"/>
<path d="M15134 12346l 0-1 26-8 28-2 25-1 24-2 26-2 25 2"/>
<path d="M15158 12424l 0-1 26 0 28-5 25-3 27-5 28-4 27-1"/>
<path d="M15714 12219l 0-1 26-11 27-2 26-3 27-2 25-2 26 3 14 22-14 20-19 17-24 17-26 16-26 15-24 14-25 14 28 2 31-3 26-2 28-3 25-1 29 2 24 8 7 25-13 20-18 17-22 17-23 16-23 14-26 12-25 10-25 8-27 5"/>
<path d="M16144 12235l-1-1-5 25-10 22-16 29-14 23-17 26-18 30-23 31-25 35-29 37-16 19-16 18-17 19-16 18-31 37-30 36-27 32-25 30-21 27-17 22-17 26-13 25"/>
<path d="M16020 12567l 1-1 23-10 29-5 31 1 29 3 26 7 15 21-15 20-23 20-24 17-26 18-27 18-27 17-26 16-22 14-19 15 19 18 30 0 27-3 28-4 28-4 26-3 26-3 26-1 22 11"/>
<path d="M16452 12472l-1-1"/>
<path d="M16815 12061l-1-1"/>
<path d="M16811 12061l-1-1 28-1 28-4 29-7 25-6 25-8"/>
<path d="M16809 12076l-1 1-20 18-13 22-11 23 0 25 29 2 23-12 27-11 25-4 28-1 25 1 26 2 24 5 29 8 25 10 7 25-17 22-23 22-20 16-24 15-26 14-26 14-26 12-24 9-28 7-27 2-1-26"/>
<path d="M17259 12111l 1 0-10 27-17 28-17 29-15 25-18 26-21 29-22 32-26 34-27 35-29 37-30 35-28 34-27 34-24 30-22 27-19 24-16 20-19 25-15 21"/>
<path d="M17271 12452l 1-3 7-24-6-24-26-5-24 10-22 12-19 14-15 21 4 24 19 21 21 18 24 13 25 14 24 13 21 14 19 16 6 27-11 28-15 20-19 20-21 15-24 15-29 7-25-1-24-15-6-26 4-25 12-29 20-30 16-19 17-19 25-24 22-22 24-21 23-18 23-13"/>
<path d="M17784 12361l-1-1 26 2 29 3 32 0 25 0 28-1 27-2 25-2 25-3"/>
<path d="M17853 12319l-1-1 4 25 7 23 3 26 4 28 6 24"/>
<path d="M18488 12148l 0-1 9 24 3 31 2 25 0 27 1 26 0 27-2 27"/>
<path d="M18781 12114l-1-1-20 22-15 24-12 21-13 25-14 28-17 30-19 34-23 36-24 38-26 39-14 21-26 39-26 38-24 37-20 34-19 31-16 29-15 26-12 21-15 25-11 22"/>
<path d="M18700 12464l 1-1 26 2 24 12 20 17 14 21-10 28-21 20-23 16-24 16-23 16-23 17-17 17 25 10 30 0 27-2 25 0 25-1 29-1 27 0"/>
<path d="M17204 2508l 0-2 9-24 24-17 23-10 25-6 30-1 25 2 25 4 30 8 26 11 24 16 17 23 4 27-7 29-16 27-13 21-17 22-20 22-22 22-24 23-24 22-24 21-24 19-22 19-23 16-20 15-29 20-25 16-20 14-19 14 24-9 24-10 29-10 31-10 31-7 29-3 28-1 26 0 30 1 28 5 22 13"/>
<path d="M17622 2663l-1-1"/>
<path d="M17908 2212l 1-1 9 27-3 25-3 28-3 29-1 30-2 28-3 28-1 30 1 25 11-29 1-26-1-30-2-34-2-24-3-26-3-34-4-28-2-28 10 23 10 23 14 28 15 27 21 27 24 23 22 20 20 15 26 14 24 6 25-10 12-22 0-26-9-32-11-27-14-26-13-23-15-26-14-23"/>
<path d="M18196 2263l 0-1 25 0 26 0 25 0 23 5"/>
<path d="M18483 2088l-1-1 7 26 5 24 4 30 2 27 2 25 0 26 1 27 0 26-1 25-3 28-2 26"/>
<path d="M17869 2614l 0 0 25-3 31-1 33 0 26 0 31-2 32 0 33-3 36-1 36-1 36-3 36-2 37-4 36-4 36-5 35-6 35-6 32-5 30-5 26-5 33-6 28-5 24-6 27-6 24-5"/>
<path d="M18093 2771l 0-3 6-23 2 29-6 28-8 33-6 25-6 26-4 28-5 27-5 25-5 34-3 28-1 29 25-14 11-29 7-34 2-36 2-25-2-24-2-33-4-27-7-26 23 18 19 25 17 21 19 22 17 22 15 20 18 20 19 23 16 17 20 15 26-4 10-27 2-24-1-30-3-35-7-35-5-31-5-24-7-25-8-25"/>
<path d="M18365 2694l 0-1 25 0 27 2 26 2-6 24-21 13-20 16 20 15 28-2 26-6"/>
<path d="M18832 2545l-1-1"/>
<path d="M19194 2170l 1-1 24 1-2 25-5 29-6 25-7 27-8 30-8 29-10 26-9 25-11 24-8 24 6-28 8-30 6-25 5-27 5-28 5-27 3-25 3-30 3-28 0-26 11 26 9 30 9 26 12 29 15 28 15 27 15 23 15 20 22 20 23 15 25 0 20-20 8-26 1-26-2-29-6-32-8-28-11-27-14-22"/>
<path d="M19456 2261l 0-1 26-2 28-2 25-1 27 0 26-3"/>
<path d="M19502 2190l-1 0 6 25 8 27 5 29 6 30 7 27 6 28"/>
<path d="M19715 2173l-1-1 24-1 26 3 24 5 24 10 24 13 23 15 10 25-5 25-19 20-23 17-29 16-32 16-32 14-31 13-26 11-26 12 26 13 32 1 24 2 26 5 24 2 24 5 28 4 28 4"/>
<path d="M19060 2590l-1-1 25-1 31 0 31 1 25 1 29 1 31 1 33 0 36 0 39-1 40-1 42-1 42-3 42-1 42-1 39 0 38 0 36 1 34 0 30 1 29 0 26 1 33 2 29 4 30 3 24 4"/>
<path d="M19297 2746l 0-1 21-15 25-9 26-3 27 4 21 13 19 18 17 18 15 21-7 28-18 19-19 14-25 15-27 14-28 13-29 12-25 10-24 10 23 8 32-3 27-2 26-2 32-1 29 0 28 2 29 3 24 7 19 16"/>
<path d="M20149 2518l 1-1 21-17 28-8 26-4 27 1 26 4"/>
<path d="M20177 2572l 0-1 24-12 29-8 23-5 28-5 28-3"/>
<path d="M20439 2847l 1-1 23-17 20-26 12-21 15-26 18-30 18-35 18-38 16-41 15-44 12-45 5-25 7-48 2-24 6-48 4-44 3-38 3-30 1-30-3-25 9 30 7 35 7 29 10 32 9 33 13 34 15 35 15 37 14 35 16 35 15 33 15 33 14 31 14 28 15 26 14 23 14 21 20 27 17 20 19 20"/>
<path d="M20601 2665l 0-1 21-12 28-8 24-5 27-3 27-3 26-2 24 0"/>
<path d="M21109 2512l 0-1 27 0 27-4 27-2 29-2 27 0"/>
<path d="M21112 2578l 0 0 25-3 25-3 29-3 31-3"/>
<path d="M21665 2243l-1 0-3 24-4 25-4 30-3 34-1 24-2 27-1 27-1 30-1 32-2 32-1 34-2 35-4 35-3 36-3 37-4 34-1 34-2 31-2 28-1 25-3 34 1 26 4 25 16-23"/>
<path d="M13128 9455l-1-1-8 28-1 30 1 26 2 30 2 33 4 35 4 38 5 39 6 41 6 42 6 42 6 43 7 42 5 43 6 42 6 39 5 37 5 32 6 29 5 25 9 31 9 28"/>
<path d="M15214 13516l-1-1 21-13 27-7 30-5 24-3 29-1"/>
<path d="M15234 13588l-1-2 24-14 30-4 26-3 28-1"/>
<path d="M15771 13405l 0 0 5 25 1 26-1 25-2 30-4 32-5 36-4 25-5 25-5 27-6 25-5 25-7 33-4 27-3 30 0 25"/>
<path d="M15976 13601l-1-1 23-8"/>
<path d="M16410 13292l 0-1 9 26 2 29 0 26 0 25 0 30-2 26-3 27"/>
<path d="M16668 13283l-1-1-17 18-12 29-10 29-11 32-10 25-11 27-13 30-14 30-15 32-16 33-16 30-17 32-15 28-13 27-13 25-15 30-10 24-9 26"/>
<path d="M16612 13586l 1-2 28-1 27 7 27 10 16 20-15 20-25 19-26 16-27 13-25 14-21 15 25 12 31-6 28-4 30-4 28-3 27-1 25 0 24 1"/>
<path d="M17106 13202l-1-1-7 27-5 28-5 25-6 28-7 30-9 33-10 36-10 38-11 40-13 42-12 41-16 41-17 41-17 38-16 37-14 35-13 30-10 26-8 24-9 30-6 27"/>
<path d="M17274 13311l 0-1 11 25 8 25 6 30 5 24 6 31 4 27 4 25"/>
<path d="M17481 13326l-1 1-13 27-9 23-12 26-15 31-11 22-15 24-15 26-16 26-17 28-17 27-15 27-15 26"/>
<path d="M17436 13548l 2-1 24-9 30-1 30 4 29 8 23 10 21 18-6 27-21 20-26 17-23 13-24 14-23 15-20 16 23 14 24 4 28-3 25-3 28-4"/>
<path d="M17916 13522l 1-1 28-3 32 1 28 5 32 5 30 5 28 2 24 1"/>
<path d="M17994 13472l-1 0 15 24 20 23 17 19 17 20 17 24"/>
<path d="M18898 13247l 0 1 4 26 1 32-1 27-2 30-1 30-3 27-2 30 3 24"/>
<path d="M19154 13169l-1-1-7 28-7 31-8 25-10 28-13 30-17 31-18 34-20 35-23 38-23 36-26 36-26 37-26 33-23 32-19 28-15 25-12 23-14 27"/>
<path d="M19104 13526l 1-1 25-2 24 4 24 8 20 15 8 26-18 24-20 15-25 17-28 15-25 14-25 16-14 20 24 10 34 1 29-2 30-4 30-7 32-6 28-7"/>
<path d="M6905 11207l-1-1 5 31-1 30-1 24-1 29-1 32 0 33-1 35 0 36 0 37 0 39 0 39 0 37 0 35 0 28 2 33 3 26"/>
<path d="M6860 11140l-1-1 17-20 22-12 30-13 36-10 25-5 27-4 28-1 29 1 28 4 27 7 25 10 23 11 20 14 23 25 15 27 2 28-8 33-11 22-16 23-18 23-21 22-23 21-23 19-22 16-23 14-22 12-30 15-26 10-24 5"/>
<path d="M7424 10987l-3 0-27 17-19 27-14 22-13 28-14 32-13 37-11 38-10 41-8 43-7 46-5 46-5 47-1 45 1 43 3 42 4 38 6 33 7 29 6 25 14 28 16 21 25 17 29 6"/>
<path d="M7419 11475l 0 0 11 24 10 25 12 29 8 30 4 28 2 24-2-30 5-33 6-25 7-26 8-24 10-22 13-26 15-23 25-7 15 24 6 27 4 31 0 31 0 26 0 24 20-15"/>
<path d="M7690 11443l-1 0-23 11-18 18-16 23-10 23-1 24 20 17 26-3 26-10 22-14 20-19 3-26-16-24-20-16-24-5"/>
<path d="M7842 11133l-1-1-12 20-1 30-1 27 0 35 0 26-1 29 0 32 0 34 0 36 0 35 0 33 2 30 3 24 7 26 15 20 25 10 26-2 27-19"/>
<path d="M7749 11366l-4 1-22 13 27 7 28-5 34-10 26-9 27-9"/>
<path d="M8311 11370l-1-1-19-15-24 10-20 15-22 25-17 25-16 28-14 32-9 31-3 29 5 24 15 24 23 11 24-3 29-13 22-13 21-18 23-20"/>
<path d="M8321 11145l-2-1 11 28 12 22 13 28 7 24 5 26 4 30 2 32-1 33-1 33-4 32-4 32-4 27-5 32-2 24 16-23 14-33 13-27 12-28 13-28 13-25 12-22 14-25 14-20 14 25-1 26-3 32-4 33-4 33 0 28 3 28 17 18 27-11"/>
<path d="M8624 11408l-1-1-25 4-19 21-11 24-4 25 6 25 23 13 25-3 22-13 15-20 8-24-12-25-21-17 28-1 22-11 23-15 20-16 16-22-1-25-25 3-5 24 6 28 16 23 17 22 15 22 4 25-6 25-17 21-23 14-26-4-1-26 15-19 24-14 23-10 23-8 25-6 25-7 26-7 26-9 24-11 21-14 15-21-8-23-25-9-25 4-25 16-16 18-9 23-4 25 7 29 18 20 27 10 29 1 29-11 23-17 19-22 15-24 13-26-10 23 1 26 14 20 22-18 18-22 17-25 17-22 24 8 9 22 7 23 7 24"/>
<path d="M9057 11005l 1 1 24 19 24 16 30 18 20 14 22 16 21 18 22 20 20 22 17 23 15 24 12 25 10 26 8 26 6 27 4 26 3 25 0 25-1 25-6 35-6 24-9 23-11 23-13 22-15 21-15 20-24 25"/>
<path d="M9386 11231l 0-1 26 0 25 3 30 2 28 2 26 3"/>
<path d="M9404 11294l-1 1 27 13 31-3 26-6 26-6"/>
<path d="M9922 10948l-1 0-21 16-15 23-14 26-12 24-14 30-10 24-10 29-11 34-11 36-10 38-10 39-8 39-9 37-5 35-5 35-2 32-1 32 1 30 2 27 5 28 5 26 7 24 10 32 12 28 12 23 14 21 17 21 23 15"/>
<path d="M10028 11075l 0-1 0 27-2 26-3 33-4 34-5 32-3 26-3 28 15-25 8-31 3-36 2-27-1-27-1-26-3-24-4-31-5-24-8 26 0 24 3 29 10 31 13 30 17 26 20 21 22 17 21 13 27 13 27 1 26-15 15-22 9-32 0-27-7-31-12-29-13-28-12-25-14-27"/>
<path d="M10307 11093l 0 0 24-8 28-7 24-5 28-4 26-3 30-1"/>
<path d="M10555 10945l-1-1-2 25 7 28 5 24 5 26 5 27 2 27 1 30 0 27-1 24-2 24"/>
<path d="M10013 11379l-1-1 30 7 30 1 26-1 29-1 30-2 32-4 33-4 34-6 34-6 35-6 35-5 34-4 32-4 29-1 27-2 33 0 29 1 24 2 26 3 23 10"/>
<path d="M10302 11452l-1-1-4 30-6 25-7 27-8 28-6 27-7 27-5 29 19-24 6-31 4-32 1-27-2-26 5 27 16 24 23 20 21 12 22 10 23 7 32 6 28 0 25-6 22-14 10-27-2-30-10-27-10-24-15-28-13-22-13-22"/>
<path d="M10712 10938l-1-1 17 25 22 25 22 25 16 21 17 22 16 25 14 27 14 29 14 29 11 29 12 26 11 26 7 23 7 25 1 25-1 25-2 25-5 25-9 25-11 27-13 26-15 27-15 25-16 25-17 24-15 23-15 20-21 23-23 18"/>
<path d="M10930 10963l-1-2 24-12 27 4 28 8 24 10 17 18-18 18-22 12 18 18 27 0 25-2 25 0"/>
<path d="M11322 11277l-1-1 28 1 28 4 28-1 32-4 25-4 24-4 25-5 27-7"/>
<path d="M11442 11163l-1-1-9 26-2 29 1 26 1 29 4 28 3 29 5 25 7 28"/>
<path d="M11800 10948l-2-2-27 3-19 23-15 29-11 24-11 28-12 31-12 36-11 39-10 40-6 41-7 42-3 41-2 41 1 38 3 37 5 33 9 32 9 30 10 28 11 27 10 23 14 30 15 22 20 19 22 9"/>
<path d="M11974 11013l 0 0 6 28 3 33 2 32-1 25-1 26-3 27-2 25-2 25-4 33-3 25"/>
<path d="M11733 11385l 0-1 28 5 33 2 30 1 33 0 35-1 25-2 27-3 27-3 26-4 27-4 24-5 24-4 24-5 31-5 25-5 28-2"/>
<path d="M11902 11495l-1-1 1 27-5 30-5 27-6 28-4 25-6 28 19-20 13-33 8-25 4-25 2-32 0-28 4 30 10 31 17 27 23 22 21 13 27 10 25 6 27 1 20-13 8-27-1-25-5-27-6-24-8-27-8-27-9-27"/>
<path d="M12160 11004l-1-1 28 3 27 18 23 18 27 22 19 16 18 17 19 18 16 19 17 20 13 21 14 22 13 22 9 25 8 27 2 31 3 33 1 34-4 36-3 35-5 35-8 34-5 31-8 30-9 27-9 23-15 30-14 23-17 19"/>
<path d="M12435 10973l 0-1 24-6 25 1 30 5 25 7 21 13-9 24-23 15-19 16 18 17 29 3 28-2 29-3"/>
<path d="M6516 12786l 0-1 1 26 2 29 1 25 1 28 1 32 0 38 0 41-2 43-2 45-1 45-5 43-5 41-3 39-5 35-2 27-2 28"/>
<path d="M6498 12718l-1-2 15-19 25-7 27-4 33-3 35-1 25-1 27-1 24 1 25 1 34 5 28 9 24 18 10 25-2 26-13 29-12 21-18 21-19 21-21 21-22 19-22 19-21 16-19 15-28 17-27 15-23 9"/>
<path d="M7149 12492l-2-1-27 6-22 21-21 26-14 23-15 28-15 33-15 38-13 42-12 46-6 24-5 25-5 25-4 25-4 26-2 26-2 26-2 26 0 26 0 25 1 25 1 24 3 45 5 41 6 35 7 30 7 24 13 22 21 14"/>
<path d="M7189 12981l-1-2 0 28 0 28 0 28 2 27 5 28 17 21 23-12 18-19 20-26 17-27 13-25 10-25-17 23-3 25 7 26 15 22 26 8 24-9 18-16 17-20 13-23 10-23 4-25-3-24-12 22 0 25 13 21"/>
<path d="M7472 12969l-1-1-2 27-3 26-6 28-7 26-5 25 8-27 7-25 8-28 7-24 13-26 15-20 21-12 19 17 8 23 3 27 1 26 0 27 3 26 10 23"/>
<path d="M7675 12979l-1 0-8 24 1 25 2 27 5 27"/>
<path d="M7677 12855l-4-1-24-5"/>
<path d="M7748 13048l 0 0 25-1 25-17 24-21 18-17 19-20 20-24 19-27 20-28 19-30 18-31 16-34 13-35 8-37 6-39 1-38 0-37-2-35-4-30-7-33-14-24-25 0-19 24-16 35-12 31-11 37-12 44-6 25-5 26-5 28-5 29-5 30-4 30-3 31-3 31-2 31-2 30-1 30-1 29 1 28 1 27 1 24 2 24 5 45 7 40 7 34 8 30 7 25 11 29 14 20 25-10 11-25 8-35 3-28-1-30-4-31-8-33-10-35-12-36-14-37-13-32-12-26-15-22-9 23 26 11"/>
<path d="M8032 12933l-1-1-27 1-18 17-8 24 5 26 18 21 23 13 27 2 22-13 18-23 4-26-12-28-20-21-25-6 28 4"/>
<path d="M8157 12898l 0-1 25 7 27 3 21 12-8 23-14 20-15 25-7 25 16 20 26-3 21-12 22-18 22-21 18-24 11-22 10-22-7 24 1 25 24 0 15-20 24 0 8 24 25 4 24 5 20 15 17 20 14 20"/>
<path d="M8528 12547l-2-1 16 25 21 21 16 20 17 23 16 25 17 29 15 32 13 32 12 35 10 34 7 34 6 33 4 34 1 33-1 33-5 34-7 35-11 35-13 34-15 33-16 29-16 26-16 20"/>
<path d="M8792 12810l-1 0 30 1 26 0 28 1 25 2 26 3"/>
<path d="M8790 12881l-1-1 24 5 25-1 30-3 31-5"/>
<path d="M9301 12501l 0-2 9 28-3 33-5 27-5 30-6 33-7 32-6 32-4 30-2 28-2 24 0 27"/>
<path d="M9540 12553l-2 0-24 17-18 21-20 30-16 25-17 28-21 34-23 37-27 41-13 21-15 21-15 21-15 22-16 21-16 22-15 20-16 21-14 20-15 20-14 19-27 35-23 31-19 25-18 24"/>
<path d="M9396 12848l-1-1-17 20-7 30-6 27-4 30-4 27-1 27 21-12 11-24 9-27 6-26 2-29-9 25 4 29 7 30 12 28 14 25 17 22 17 18 23 15 28 2 24-19 15-23 13-30 9-31 2-34-4-35-7-34-8-30-9-23-14-20"/>
<path d="M9746 12789l-1-1 25-5 30-1 27 0 26 0 32-2"/>
<path d="M9782 12741l-2-1-12 25 7 28 9 22 11 22 15 28 16 23"/>
<path d="M10255 12408l-1-1 3 24 1 30 1 27-1 29-1 31-1 31-2 30 0 28 0 29 1 24"/>
<path d="M10516 12405l-1-1-10 28-10 29-10 25-11 28-14 31-18 34-20 37-22 40-22 43-11 22-21 43-20 42-19 40-17 37-17 36-14 33-14 32-10 27-10 24-12 27-6 24"/>
<path d="M10399 12833l-1-3 2 26-2 33-3 26-2 29-3 30-3 30-2 28-1 25 1 32 4 24 24-9 10-33 4-27 0-27-2-29-4-28-6-27-7-26-7-24-9-26 1 32 10 26 15 26 20 24 21 23 24 21 25 18 24 12 23 9 26 4 23-10 14-21 5-24 0-32-3-24-5-27-7-29-8-30-10-30-9-27-8-25-10-26"/>
<path d="M10866 12755l 0 0 28 4 28 0 25 2 28 0"/>
<path d="M11385 12436l 0-1 11 23 1 31-1 28-1 27-1 24-1 27-3 25-4 25"/>
<path d="M11607 12445l 0-1-3 27-8 26-9 24-13 30-13 23-15 25-18 28-20 29-22 32-22 33-22 34-22 34-20 32-19 30-18 29-16 27-14 26-11 23-14 28-13 24"/>
<path d="M11497 12715l-1 0-2 24-6 27-4 32-3 28-2 28-2 29-1 26 0 28 3 27 24-14 15-28 8-26 3-30-1-32-2-32-5-28-7-28-11-23 3 26 9 25 12 24 13 23 11 22 13 21 15 22 21 15 22-9 12-21 5-29-4-28-4-24-4-26-6-30-7-24"/>
<path d="M11709 12618l 0 0 27 1 27 6 25 13 3 24-22 12 16 18 27 2 27 2"/>
<path d="M8922 14018l 0-2 16-18 25-6 26-4 30-2 26-1 26-1"/>
<path d="M8934 14116l 1-2 16-19 25-11 25-10 23-9 28-7 29-6"/>
<path d="M9446 13785l 1-2 20-14 28-5 31 3 28 4 28 5 26 5 25 6 19 18-10 25-21 26-21 22-24 23-25 20-26 21-23 19-19 18-21 22-20 19 25-1 24-10 30-10 30-6 27-4 25-3 26-2 25-2"/>
<path d="M9748 13760l-2-1-10 27-2 28-3 31-3 25-4 31-5 29-5 24-3 25 21-14 7-29 3-25-1-27-4-30-5-28-5-25-6-26-9-23 5 27 12 23 17 26 15 20 14 21 16 20 16 18 17 17 23 17 22 11 25 7 28-7 20-16 10-25 2-25-6-29-9-24-10-24-12-24-16-19"/>
<path d="M10097 13808l-1-1 25-2 26 0 25-1 26-1 27-2 26-2"/>
<path d="M10397 13632l-1-1 5 29 2 24 3 27 0 27 2 27 0 26 1 27 0 27-1 25-3 31-4 24-6 26"/>
<path d="M9482 14151l 1-2 24-7 28-4 36-3 26 0 31 0 33 0 37 2 40 2 40 3 43 3 42 2 45 1 45 1 45-1 44-2 44-2 42-2 39-2 37-3 34-1 29-1 26-2 33-1 30 0 26 1 31 1 28 0 27 2"/>
<path d="M9761 14312l 0-1 12 20 7 30 2 27 0 30-3 33-3 32-4 31-5 29-6 25-4 26 19-18 8-35 4-25 2-27 0-25-1-24-3-32-2-25-7-25 25 5 17 25 13 24 13 26 13 26 15 27 14 21 20 22 18 18 25 12 27-6 18-20 9-26 0-32-5-29-8-32-9-32-10-30-7-28-10-27"/>
<path d="M10083 14248l-1-1 22-8 27 1 26 6 0 26-19 18-19 19-18 17 4 24 25-3 27-8 27-8 25-7 26-7"/>
<path d="M11050 14104l 0-1"/>
<path d="M11450 13638l-1-1-24 7-14 21-14 27-16 28-10 23-12 26-13 30-11 33-12 34-10 34-8 34-6 34-3 32-2 31-1 30 0 30 2 29 3 29 3 28 5 27 5 29 5 28 5 27 6 27 7 24 12 33 15 27 13 23 14 22 17 26 17 23 19 21 18 18 20 14-5-25"/>
<path d="M11597 13764l-1-2 1 26-3 34-3 25-2 25-4 36-3 32 0 28 2 26 20-16 7-29 4-34 0-35-3-36-5-32-5-24-8 22 5 27 8 24 11 22 20 20 23 14 25 6 25 0 27-11 19-19 13-28 4-32-6-24-11-24-16-24-14-21-14-20"/>
<path d="M11848 13801l-1-1 24-10 24-2 25-1 27-3 25-6"/>
<path d="M11911 13720l-1 0 0 24 7 28 10 27 11 27 11 22"/>
<path d="M12077 13675l 0-1 2 29 4 26 4 32 4 25 2 25 1 26 2 27 1 25 1 28"/>
<path d="M11580 14089l-1-1 27 4 28 2 35 1 27 0 28-2 30-3 33-4 33-4 35-5 35-6 34-6 32-6 31-6 29-5 25-5 25-5 30-6 25-4 28-1"/>
<path d="M11768 14199l-2-1 28 5 25 2 31 4 25 4 22 10-4 26-20 21-23 18-23 16-21 12 18 17 29 7 26 4 33-1 25-2 27-4 29-5 28-8 28-9 28-9"/>
<path d="M12201 13684l 0-1 28 12 23 18 19 15 20 17 21 21 20 22 18 24 19 25 16 26 15 25 12 25 11 27 8 27 6 28 4 27 3 28 1 28 0 27-1 25-3 25-5 24-11 34-13 32-16 30-19 29-22 26-20 23"/>
<path d="M12537 13981l 1-1 25-3 28 0 26 2 25 1"/>
<path d="M12535 14066l-1-1 25-8 28-4 29-4 30-5 30-4"/>
<path d="M13152 13611l-1-1-13 22-6 28-7 33-5 24-7 33-6 29-4 26-2 25 17-25 11-33 6-24 4-26 2-27 0-27 0-24-3-30-10 23 6 34 9 35 8 23 16 31 19 27 21 23 21 16 25 16 27 6 24-18 12-28 6-28 1-34-5-35-5-25-6-25-6-23-8-30-9-24"/>
<path d="M13413 13561l 0-1 26-7 24 10 16 22-5 27-19 17-21 13-17 19 24 12 28 2 25 0"/>
<path d="M13563 13750l 0-1 26-2 24-1 30 2 26 0 26-1"/>
<path d="M13806 13616l-1-1-7 26 2 31 1 27 0 28 1 28 1 29 0 26-2 26-5 31-7 28"/>
<path d="M13061 14003l-1 0 30 8 28 3 37 4 29 3 31 3 34 3 35 2 38 3 39 1 41 1 41 0 43 0 41 0 42-2 39-1 37-2 34-2 31-2 28-2 25-1 33-3 26-1 27-1"/>
<path d="M13308 14186l-1-1-1 25-1 26-3 34-2 27-1 26-3 27-3 27-3 25-3 25-3 33-1 27-2 25 11-29 8-28 7-35 1-25-1-26-3-27-2-28-5-27-3-25-2-27 12 23 10 28 14 29 17 26 18 24 19 20 20 17 22 18 23 10 27 2 22-11 16-19 10-25 0-25-6-30-9-27-8-24-11-28-14-22"/>
<path d="M13531 14174l-1-1 27 7 18 17-12 22-22 13 20 18 29 1 25-1 28-2"/>
<path d="M9494 15264l 0-1-21 14-13 23-11 25-11 33-7 24-7 27-6 29-6 32-6 33-4 32-3 33-2 30-1 29 1 29 1 29 3 28 4 28 5 27 6 26 8 24 8 24 14 31 15 25 15 22 21 24 21 18 25 13 24 4"/>
<path d="M9616 15383l 0 0-2 24-2 32-3 30-4 33-3 30-4 27-3 26 9-26 3-29 2-33 0-33-2-32-2-27-4-27 11 25 13 25 20 22 22 21 23 18 22 15 27 10 25-5 19-20 9-24 4-26-3-28-7-28-7-27"/>
<path d="M9893 15381l 0-1 29-10 23-5 25-3 27-1 28-1 27 0 29-2"/>
<path d="M10218 15240l-1 0-7 24 4 25 3 27 2 27 4 24 3 29-2 28-6 25"/>
<path d="M9604 15656l-1-1 28-8 26 0 34-2 27-3 29-2 31-4 34-4 33-3 33-5 33-5 34-5 34-4 32-4 31-4 28-3 26-4 26-4 26-4 32-5 28-7 27-10 24-5"/>
<path d="M9818 15733l-1-1-5 28 2 28 0 31-1 27-2 28-4 31-5 32-7 30-4 25-4 26 7-24 3-28 3-32 1-33-2-29-2-27-4-30-2-24 25-2 20 22 16 26 11 23 11 27 8 23 13 27 14 21 14 20 25 14 24 3 24-5 21-17 10-22 7-29 0-26-2-29-5-25-2-24-4-26-10-23"/>
<path d="M10327 15153l 2 1 28 13 25 18 24 22 17 19 18 22 14 23 15 25 13 26 11 28 12 27 10 30 11 29 10 31 6 24 5 25 5 24 3 25 4 26 1 28-1 29-3 31-4 30-7 32-8 31-9 29-9 30-10 27-10 26-12 25-10 25-10 23-14 27-18 20"/>
<path d="M10609 15180l 1-1 20-17 26 4 24 13 18 19 10 22-16 21-19 15 19 18 26-1 25-3"/>
<path d="M15242 14668l 0-2 16-19 28-3 25 5 22 10 20 18-2 24-20 16-26 15-27 12-22 10 17 18 23 8 22 12 18 16 0 24-15 20-19 15-26 13-24 9-28 8-26 5"/>
<path d="M15614 14586l 0 0-11 26-10 24-13 33-11 26-11 30-13 33-15 35-17 37-18 37-19 40-19 40-19 38-18 37-17 35-15 32-15 28-14 25-11 23-13 26"/>
<path d="M15615 14871l-1 0-10 23-13 27-12 26-13 21-12 22-12 26-10 23 17 19 29 2 26 0 28 0 31 2 31 1 30 1 27 1 31-1 27-1"/>
<path d="M15717 14976l-1 0-1 30 0 30-1 27 2 25 2 31 3 30 5 25 6 24"/>
<path d="M15954 14919l 0-1 14 20"/>
<path d="M16200 14593l 0-1 21-13 26-3 28 5 24 9 0 27-24 17-22 10-24 10 22 13 27 4 24 4 24 7 17 19-15 22-24 15-23 11-23 9-24 8-28 8"/>
<path d="M16550 14653l-1-1-10 27-14 20-20 29-16 24-19 26-21 30-23 31-23 33-23 32-23 33-21 31-20 31-19 30-18 30-18 27-15 24-12 22-13 25-10 22"/>
<path d="M16480 14917l 1-1 25-4 25 6 25 9 19 15-13 22-23 19-25 17-20 14-23 15-22 16-24 17-19 16 28 8 26-3 30-2 30-3 29-2 29-2 25-1 26-2"/>
<path d="M16803 14878l-1-1 27-7 28-3 25-2"/>
<path d="M16857 14791l-1-1 14 20 4 25 3 25 5 23 4 24"/>
<path d="M17548 14541l-1-2 10 22 3 33 1 24 1 24 0 35 1 33-1 31 1 28 0 31-4 27"/>
<path d="M17830 14592l 0-1-13 21-13 24-12 21-15 24-16 27-20 28-20 31-23 32-24 33-26 34-26 32-26 33-25 30-22 29-21 26-17 25-14 22-14 25-7 25"/>
<path d="M17780 14873l-1-1-23 16-17 22-15 20-17 27-12 23-7 26 5 26 26 7 25 0 25-2 28-4 30-6 30-4 27-4 29-5"/>
<path d="M17825 14923l 0-1 4 27 6 23 5 30 1 24 3 24 1 29 6 26"/>
<path d="M18050 14870l-1-1"/>
<path d="M18316 14588l-1-1 11 24 8 28 4 24 5 27 4 29 3 32 2 32 4 33 2 33 3 31 1 30 1 29 1 28 0 27-1 25-1 26-5 33-2 26-5 28-3 26"/>
<path d="M18555 14751l 0-1 24-9 29 6 26 8 28 7 28 6"/>
<path d="M18558 14818l-1-1 27 0 23 9 25 9"/>
<path d="M18909 14530l 0 0 4 25 2 28 0 28-1 26-2 27-4 27-5 24-3 24"/>
<path d="M18999 14576l 0 0 4 29-3 29-2 26-1 25-2 30 1 24 2 26"/>
<path d="M19203 14598l-1 2-10 23-13 27-13 25-19 29-15 23-16 25-17 27-17 26-18 27-19 27-18 27-17 26-15 25-13 22-11 22-14 31-12 27-10 28"/>
<path d="M19251 14821l 0-2-8-24-25-4-24 10-19 19-8 25 6 25 15 22 19 21 18 16 21 16 22 17 17 17 12 22-3 25-22 17-25 8-26 5-28 0-26-6-23-18-4-25 7-25 13-26 18-27 23-24 24-23 24-17 23-13 22-10 26-10"/>
<path d="M11167 15556l-1-1"/>
<path d="M11447 15371l-1-1 9 30 5 29 6 36 5 28 5 29 5 28 4 29 3 29 3 31 4 30 2 28 2 28 1 25 2 25 2 33 2 29 0 31 2 29 0 24"/>
</svg>
