<svg xmlns="http://www.w3.org/2000/svg" viewBox="140 -13781 10240 25400" stroke="black" stroke-width="20" stroke-linecap="round" stroke-linejoin="round" fill="none" data-xena="0 0 0"><style>@media(prefers-color-scheme:dark){svg{background-color:black;stroke:white;}}</style>
<path d="M1761 -11421l 1-1-1 1-1 0 0 1 0 6 0 3 1 5 0 5 1 7 0 7 0 8 0 9-1 10-1 11-3 12-2 13-3 13-3 14-4 15-3 15-4 15-3 16-5 15-3 13-4 14"/>
<path d="M1261 -11826l-2 1-2 0-2 2-3 1-3 2-3 3-4 3-3 4-3 4-3 5-2 5-3 5-3 6-2 7-2 8-2 8-2 9-1 9-1 9-1 11 0 22 1 10 2 12 1 10 2 13 3 11 3 12 4 12 3 12 5 12 5 11 5 11 6 9 6 10 7 8 6 8 7 7 7 6 8 6 7 4 8 3 9 3 8 0 8 1 9-1 8-2 9-3 9-5 8-5 9-6 7-8 8-8 8-9 7-9 7-11 7-12 6-11 6-13 6-13 6-13 4-14 4-13 4-14 3-13 1-14 1-13 0-12-1-13-2-13-3-13-4-12-5-11-7-12-8-10-7-10-10-10-10-9-11-9-13-8-14-8-14-7-14-8-15-5-15-4-16-2-14 0-16 1-15 3-15 4-15 6-14 7"/>
<path d="M1036 -11389l-1 1 0 0 0 2-2 2-1 2-1 4-1 4-2 4-1 6-2 6-2 6-3 8-3 8-3 8-4 10-5 9-4 9-5 10-5 10-6 10-5 9-6 10-6 9"/>
<path d="M364 -11591l 1 0 0 1 1 0 2 0 0 0 2 1 2 0 6 2 2 0 4 0 4 1 4 1 5 0 4 1 11 0 6 0 11-2 5-1 6-1 6-2 5-2 6-2 6-2 5-3 5-3 5-3"/>
<path d="M441 -11700l-1 1 0 0 0 2 0 1-1 3 0 3-1 4-1 4 0 4 0 7 0 6-1 7 0 45 1 10 0 11 0 11 0 10 2 11 1 11 0 10 2 18 1 10"/>
<path d="M651 -11790l 0 4 1 2-1 3 0 11 1 5 0 6 0 7 0 7 1 9 2 8 0 10 1 10 1 11 1 11 2 13 1 12 2 12 2 13 2 14 2 13 2 13 2 14 3 14 3 14 3 14 4 14 4 15"/>
<path d="M495 -9949l 0-1 1-1 0-2 0-2 1-2 1-3 1-3 1-3 1-4 1-4 2-5 1-5 1-6 1-5 2-6 1-7 2-7 2-7 1-8 2-8 2-8 1-8 2-9 2-9 1-8 2-9 2-9 1-10 2-9 1-10 3-20 1-10 2-9 1-10 1-10 3-20 2-9 1-10 2-10 0-10 2-8 0-9 2-8 1-9 1-8 1-8 0-8 2-7 1-8 0-7 1-6 1-7 0-6 1-6 1-5 1-6 0-5 1-6 1-4 0-5 1-4 0-5 1-5 1-3 0-5 0-2 0-4 1-3 1-3 0-3 0-2 0-5 1-2 0-8 1-1 0-5 1-2 0-4 0-1 2 0 0 1 1-1 2 1 0-1 2 1 10 0 3 1 5 0 4 1 3 0 3 0 3 1 4 1 7 1 3 2 5 0 4 1 4 1 4 2 4 1 4 1 5 1 5 1 4 1 6 1 5 1 10 1 5 1 6 1 16 0 5 1 6 0 5 0 5 0 7 0 23 0 6-1 18 0 7-1 12 0 23-1 10-1 26 0 7-1 6 0 8-1 14 0 6-2 7 0 6 0 7-1 7-1 5 0 7 0 7-1 7 0 6-1 26 0 7-1 6 2 7 0 7 1 14 0 7 0 14 0 7 1 6 0 7 1 6 0 7 0 7 0 6 2 6 0 7 1 6 0 6 1 6 1 6 0 7 1 7 1 8 1 7 1 8 1 7 1 8 1 7 1 8 1 7 1 9 2 9 1 8 2 8 1 9 2 8 1 8 1 7 1 9 1 8 1 8 0 8 0 9 1 7 1 9 0 9 0 32 0 9 1 16 0 8 1 15 0 7 1 8 0 8 0 9 0 8 1 7 1 9 1 9 1 7 1 9 0 9 1 8 1 8 0 8 1 8 0 6 1 59 0 7-1 7 0 6-1 7 1 6-1 20 0 6 0 12 0 7 0 7 0 6 1 19 0 8 1 20 0 7-1 20 0 7 1 7 0 6-1 8 0 6 1 26 0 6 1 7 0 5 0 6 0 6 1 5 0 12 1 6 1 5 1 5 1 7 0 5 2 7 0 6 2 7 1 7 1 6 2 7 1 7 1 7 1 7 1 7 1 7 1 8 1 7 1 7 1 7 0 7 1 7 1 7 1 8 0 7 1 35 0 7 1 6-1 12 0 5-1 7 0 6 0 5-1 6-2 6 0 5 0 5-1 5-1 4 0 4-2 4-1 7-1 3-1 3 0 2-1 2-1 2-1 2 0 2 0 0-1 0-1 1 0-1 0 0 0 0 0 0 0 0 1 1 0-1 0 0-1 0 1 0-1 0 1 0-1 0 0 0 2 1 0-1 0 0 0 1 1 1 2 1 0 0 2 1 2 1 3 1 2 2 2 1 3 1 3 1 4 2 4 1 2 2 5 2 3 1 4 1 4 3 4 1 5 2 5 2 4 2 5 2 6 2 5 2 6 2 5 2 6 3 6 1 6 2 6 2 8 3 6 2 6 3 8 2 7 2 7 3 6 3 7 3 6 3 6 2 6 3 6 3 5 1 5 3 5 3 5 2 5 2 4 2 4 2 4 3 4 2 3 2 4 2 3 1 4 3 4 2 5 2 4 1 3 1 2 1 2 1 2 1 3 1 2 1 2 1 2 1 2 1 2 1 1 0 3 1 1 1 1 0 2 1 1 1 2 1 1 0 2 0 0 0 2 1 0 0 1 1 1 0 1 0 2 0 0 1 2 0 1 2 2 0 2 0 1 0 2 1 3 1 2 0 1 0 2 1 3 1 2 0 2 1 3 0 2 0 3 1 2 1 3 1 3 0 3 2 4 1 5 1 3 1 2 2 2 0 3 1 2 1 3 2 3 1 3 1 3 1 3 1 3 2 4 1 3 0 3 1 3 2 2 1 4 0 2 2 2 1 2 2 2 1 3 1 2 1 2 2 1 0 2 2 2 1 2 1 1 1 2 0 1 2 2 1 3 2 1 0 1 1 2 1 2 0 1 1 3 1 1 1 1 0 1 1 2 1 1 0 1 1 0 0 1 2 0-1 0 0-1-1 0 2 0 0 0-1 0 0 0 0 0-1 0 2 0 0-1 0 1 0-1-1 0 1 0-1 1 1 0 0 0-1 0 1 0-1 0 0 1 0-1 1 0 0 0-1 0 1 0-1 0 1 0-1 0 0 1 0-1 1 0-1 0 1 0-1 0 0-1 1 0 0 1 0 0 0 0 0 0 0 0-1-1 0 1 0-1 1 0-1 0 1 0 0 0 0 0 0 0 0 1 0-1-1 0 0 1 0-1 0 1 0-1 1 0 0 1 0-1 0 1 0-1 0 1 0 0 0 0 0 0 0 0 0 0 0 0 0 0 0 0 0 0 0 0 0 0 0 0 0 0 0 0 0 0 0 0 0 0 0 0 0 0 3 3 2 2 1 1 1 2 2 1 4 4 2 2 2 3 2 2 1 2 2 2 3 3 2 2 2 3 3 3 2 3 2 2 3 3 2 2 3 3 3 4 3 3 2 3 3 3 4 4 3 3 3 4 4 4 3 4 3 4 4 4 3 4 4 4 4 4 3 5 3 3 3 5 4 5 4 5 4 5 4 6 5 6 4 6 4 7 6 7 5 5 5 7 5 6 4 6 5 6 5 6 5 6 5 6 5 5 5 6 6 6 5 5 4 6 6 7 6 5 5 7 5 5 5 7 6 6 5 6 6 6 5 5 6 6 6 7 6 5 5 6 6 6 6 7 6 6 6 7 6 5 7 7 6 6 7 5 6 6 7 6 7 5 7 5 8 7 6 6 8 5 6 7 7 5 8 7 7 5 7 6 7 5 7 5 7 6 7 5 9 6 7 5 8 7 7 6 9 6 8 6 7 6 7 7 8 5 8 7 7 6 8 8 8 6 7 7 8 7 8 7 7 7 7 8 8 8 8 6 7 8 8 8 9 8 7 8 9 8 9 8 9 9 8 9 9 9 9 8 8 8 9 9 10 8 8 9 9 9 8 9 9 9 9 10 9 9 9 9 9 9 9 10 9 9 18 18 9 7 8 8 9 8 7 7 7 7 7 6 7 7 6 5 7 6 5 5 6 5 5 4 5 5 4 4 5 3 3 3 4 3 3 3 2 1 3 3 2 2 3 1 1 1 1 1 1 0 0 0 1 0 0 1 1 1 0-1-1-1 1 0 0 0 0 0-1 0 1 0 0 0 0 0-1 0 0 0-1 0 0 1 1 0 0-1 1 0 0 1 0-1-1 0 1 0-1 0 0 1 1 0-1 0 1-1 0 1 0-1 0 1 0-1 0 0 0 0 0 0 1 1 2 0 2 1 11 0 3 0 3 0 2 1 3 0 3 1 2 0 3 1 7 0 3 0 23 0 2 0 13 0 2-1 5 0 2-1 3 1 2-1 13 0 2-1 10 0 3 0 5 0 3-1 11 0 3 1 3-1 10 0 2-1 50 0 3 1 7 0 4 1 4 0 3 1 4 0 4 1 5 0 4 1 9 0 5 0 5 2 5 0 4 0 17 0 5 1 5 1 7-2 5 1 25 0 5 1 32 0 7 1 36 0 8 0 17 0 8 2 9 0 8 0 8 1 7 1 40 0 8 1 32 0 8 1 16 0 9-1 7 1 49 0 9 2 7-1 51 0 9-2 16 0 8 0 24 0 8 0 8 0 38 0 8 0 8 0 7-1 8 1 7-2 8 0 8-1 25 0 8 0 64 0 7 0 8 0 8 1 16 0 17 2 9 1 9 1 8 0 10 1 8 2 10 0 10 0 9 1 9 0 9 1 10 0 10 0 9 1 10 1 11 1 10 0 10 0 11 2 33 0 11 0 12 0 11 1 36 0 13-1 13 0 13 1 12 0 13-1 14 0 13-1 13 0 12-1 13 0 13-1 27-2 27 0 14-1 14-1 14-1 13-1 13-1 15-1 14-1 13-2 15-1 13 0 29-1 14-1 13-1 14-1 29-3 14 0 14-2 15 0 15-1 15-1 14-1 15 0 14-1 15-2 14 0 13-1 14-1 14 0 14-2 13-1 14-1 14-1 14-2 13-1 14-2 14-2 12-1 14 0 13-2 12 0 14-2 12-1 13 0 12-1 13-1 12 0 13-1 12-1 13 0 12-1 12 0 12 0 26 0 12-1 13 0 12-1 12 0 11 0 35 0 11-1 34 0 12 1 35 0 11 0 12 0 12 1 11 1 46 0 11 0 24 0 11 0 23 0 11-1 11 0 10 1 12-1 11 0 12-1 23-1 11-1 12 0 12-1 10 0 11-1 10 0 11-1 9 1 10-1 9-1 10 0 10-2 10 0 9 0 9-2 10 0 9-1 10-1 8-1 10-1 18-1 9 0 8-1 9-1 8-1 8 0 8-1 7-1 8 0 8 0 8-1 7-1 8-1 6 0 7-1 8 0 7-2 7 0 6-1 7 0 7-1 6 0 6 0 6-1 12 0 6-1 16 0 5 0 5 0 5 0 24 0 2-1 13 0 1-1 2 0 0-1 1 0 0 1 0-1 0 1 0-1 1 0 0 0 0-2 2-2 2-3 1-3 3-5 3-5 3-7 3-6 3-7 4-7 3-7 3-6 4-7 3-6 4-8 4-8 4-8 4-7 4-8 4-8 4-8 5-8 3-8 9-16 5-8 4-8 4-9 5-8 5-9 5-9 10-19 5-8 4-9 5-8 8-17 5-8 4-8 4-9 4-7 4-7 3-8 4-8 3-8 3-8 4-7 2-7 3-8 3-7 2-6 3-7 2-6 2-6 3-5 2-6 2-7 2-5 2-5 2-6 2-6 2-5 2-5 2-6 2-6 2-6 3-5 2-6 3-6 2-6 2-5 3-7 2-5 3-6 3-6 2-6 2-6 3-6 3-5 2-6 3-6 2-5 3-5 3-6 3-5 3-6 3-6 3-4 3-5 3-3 3-5 2-3 3-4 2-4 2-3 3-4 2-2 2-3 2-3 2-2 1-2 2-1 0-2 2 0 1-2 0 0 1-1 0-1 0 1-1 1 0 0 0 0 0 0 0-1 0 1-1 0 0-1 0 1-1 0 0 0-1 2-1 2"/>
<path d="M8495 -12443l-1-2-1-1-1-2-1-1-2-2-1-2-1-1 0-2 1 0 0-1 4 0 2-1 3 0 5-1 4 0 7 0 6-1 8-1 17-1 10-1 8-1 38 0 10 0 10 0 11 1 10 0 20 1 9 1 17 3 9 2 7 1 8 2 6 2 6 2 6 3 4 2 4 3 4 3 3 3 3 3 2 2 2 3 0 3 0 5-1 3-2 3-3 4-4 4-5 5-6 5-7 6-9 7-10 6-10 7-12 7-12 9-13 8-13 8-14 8-12 7-14 9-13 7-12 8-13 7-10 7-12 8-10 6-10 6-8 5-7 6-8 5-7 4-5 5-5 3-5 4-3 3-3 3-2 2-2 1 0 1-1 1 0 2 1 0 0 2 2 1 1 0 2 2 3 0 4 2 4 1 6 2 6 1 8 1 8 1 9 0 10 1 10 1 34 0 25-2 13 0 12-1 14-1 13-1 12 0 13-2 13 0 13-1 13-1 13-1"/>
<path d="M8995 -12457l-1-1 0 1-2 0-1 1-1 0-1 3-2 2-1 3-1 4-1 4-2 6-1 6-1 7-1 8 0 7-1 8 0 17 1 10 0 9 1 19 1 9 1 10 2 9 1 9 1 10 1 10 2 10 2 10 1 10 2 8 2 10 2 10 1 9 2 9 5 19 1 9 2 9 3 9 2 8 3 8 3 7 4 8 2 6 4 6 4 6"/>
<path d="M9451 -12340l-2 1-3 2-3 3-4 4-4 5-5 6-5 7-5 7-4 8-4 8-5 10-3 9-4 9-3 10-3 10-2 10-2 9-1 10 0 18 1 9 1 9 2 8 3 9 3 8 4 7 4 6 5 7 5 6 6 5 7 6 7 5 8 4 8 4 9 5 8 4 10 3 9 3 10 2 8 1 20 3 11 0 20-1 10-3 10-2 10-3 9-3 10-4 10-5 9-5 8-5 8-5 9-6 9-7 7-6 8-7 7-7 7-8 6-8 6-8 6-8 4-8 4-8 3-9 2-8 2-8 3-19 1-9-1-9 0-10-1-10-2-9-2-9-3-9-4-8-4-8-6-7-6-7-8-5-8-4-9-4-10-3-10-3-10-1-10-2-30 0-10 2-10 1-10 2-7 3-9 4"/>
<path d="M8863 -11588l 0-1-1-1 0-1 0-1 0-2 1 0 1 0 3 1 30 0 7 1 17 0 8 0 8 1 9 1 6 1 8 1 7 1 7 1 8 2 6 1 6 1 6 3 5 2 5 2 5 2 4 2 3 2 3 3 3 2 2 3 2 3 1 3 1 3 0 3 0 4-2 4-1 4-3 5-4 4-4 5-6 5-5 5-7 6-8 5-8 5-9 7-8 6-10 6-9 6-9 6-9 6-9 6-9 6-8 5-7 5-7 5-7 4-5 5-5 4-3 3-4 3-2 3-2 3-2 2 0 2 0 2 0 2 0 2 1 2 1 2 3 2 3 2 4 2 5 3 7 2 7 1 9 0 10 1 10-1 12-1 13-1 12-2 14-2 14-3 14-3"/>
<path d="M9396 -11523l-1 0 0 1-2 0-2 2-2 2-2 2-3 3-2 3-2 3-3 3-2 4-3 4-2 4-3 5-2 5-3 5-1 5-2 5-2 5-1 6-1 5 0 5 0 5 0 5 1 6 1 5 2 5 2 4 2 5 2 4 3 4 3 4 4 5 3 3 5 4 4 3 6 3 5 4 7 2 5 2 7 1 14 3 7 1 8-1 8 0 8 0 8-1 8-2 9-1 8-2 7-3 9-3 8-4 7-4 8-5 6-5 6-5 6-6 6-6 5-6 5-6 4-6 4-5 3-6 3-6 2-6 2-7 1-6 1-7 1-7-1-6-1-7 0-7-2-5-3-7-2-6-3-6-4-6-4-5-5-5-5-5-6-4-6-4-7-4-8-3-7-3-9-2-9-2-9-1-9-2-20-1-22 1-10 2-10 1-11 3-10 2-10 4"/>
<path d="M8433 -11827l 0-2-1-2 0-1-1-1-1-1-1-2 0 0 0 0 0 0 0 3-1 2 0 5-1 3 0 5-1 7-1 7 0 8-1 8-1 19 0 45 1 12 0 12 1 13 2 12 0 13 2 12 1 13 2 14 1 13 1 13 1 14 1 12 1 14 1 13 1 13 1 24 1 11 1 11 0 12 2 20 1 9 1 9 1 8 1 16 1 7 1 6 2 7 0 5 1 5 1 5 1 5 0 4"/>
<path d="M8413 -11033l 0-1-1-2 0-2 0-1 0-1 0-1 2 0 1-1 3 0 4 0 4-1 6-1 5-1 7-1 8 0 8-1 24 3 8 1 7 2 8 3 7 3 7 3 7 4 7 4 7 5 6 5 6 4 5 5 5 4 5 5 4 4 4 5 4 4 3 5 3 4 2 5 1 5 0 5 1 5-1 7-1 5-2 6-4 7-4 7-5 8-7 8-8 9-10 9-21 20-12 11-13 12-14 11-12 12-13 12-13 11-13 10-26 20-11 8-11 9-11 8-10 8-9 8-8 6-10 7-8 6-9 7-8 5-8 5-7 5-6 5-5 5-5 3-4 2-3 1-2 2 0 1-1 0 0 1 1-1 0 0 2 1 1 0 2 0 2 1 5 1 5 0 7 1 8 2 9 0 10 0 11 1 13 0 12-1 13 0 13 0 14-2 15 0 15-2 15-2 16-3 17-3 16-3 16-2 18-3 17-3 17-4 18-5 18-3"/>
<path d="M9043 -11002l-1 0-1 1-2 0-2 1-2 2-2 2-3 3-2 4-2 4-3 6-2 6-2 7-2 9-3 8-1 8-2 10-2 9-1 9-1 10-3 18 0 10-2 10-1 20-1 10-1 11-1 11-1 11 0 11 0 20 0 11 1 10 1 10 3 10 4 20 3 9 3 10 3 8"/>
<path d="M9391 -10873l-3 4-3 5-4 5-4 8-5 8-5 10-5 10-2 10-3 9-2 10-1 10 0 17 1 8 1 8 1 7 3 7 3 8 4 6 4 6 4 5 6 5 5 5 6 5 6 3 7 4 7 3 8 2 7 2 9 3 9 1 9 0 9 0 20-1 10-2 10-2 11-3 10-3 11-4 10-5 10-5 10-5 8-5 8-7 8-6 6-7 7-6 5-7 5-6 3-7 3-7 3-7 2-8 2-7 0-14-1-8-2-7-1-7-3-7-3-7-4-6-5-7-6-7-5-5-7-6-7-6-8-6-8-5-8-5-9-5-9-3-9-3-9-3-9-1-10 0-10 0-10 2-9 3-10 3-10 5-10 7-9 7-9 7"/>
<path d="M7996 -9518l 2-1 4-3 4-2 5-3 6-2 7-3 8-1 7-1 7 0 7-1 7 1 7 0 8 2 6 1 6 2 6 2 5 3 4 2 4 3 3 2 2 3 1 3 2 4 0 3-1 3-1 4-2 4-4 4-5 5-5 5-7 6-7 6-9 7-9 7-10 7-10 8-11 7-11 9-10 8-12 7-11 9-12 9-11 8-11 9-11 9-11 6-10 9-10 9-9 8-8 7-8 8-7 7-6 7-5 7-5 6-3 5-2 5-1 2-1 5 1 4 1 4 2 3 3 3 4 3 5 2 6 2 6 2 8 1 8 1 10 0 10-2 12 0 12-3 14-2 15-3 15-4 15-5 17-4 16-4 17-6 17-7 18-5 18-7"/>
<path d="M8284 -9443l-3 1-4 2-4 2-7 2-6 4-7 4-8 4-5 5-6 5-5 5-6 6-5 6-4 5-4 6-4 6-3 6-3 7-2 6-1 6 0 18 1 5 2 5 2 5 3 5 3 3 2 4 5 2 4 2 4 2 5 2 5 1 18 0 7-1 14-4 7-2 9-3 7-3 8-4 7-5 8-5 7-5 6-6 7-5 5-6 5-7 5-5 4-7 3-6 2-7 1-6 1-6 0-13-1-6-3-6-2-7-3-6-3-7-4-6-5-6-5-6-5-6-6-5-7-5-6-5-6-4-6-3-6-3-6-2-5-3-6-1-9 0-5 1-4 1-3 3"/>
<path d="M8896 -9540l 1-1 1 0 1-1 1-1 2-1 3 0 2-2 3 0 3-1 4-1 4-1 4-1 6-1 5-1 6 0 5-1 22 0 6 1 4 1 4 0 4 2 5 1 3 1 3 1 3 1 3 1 4 3 1 1 1 2 0 2 0 3 0 2-2 4-2 3-3 4-4 5-4 5-7 6-6 6-8 6-9 6-9 7-19 13-10 7-10 8-10 6-10 8-10 7-9 6-8 6-8 7-7 5-6 5-5 5-4 3-3 4-2 3-2 3-1 3 0 6 1 2 2 1 1 2 4 1 4 2 6 1 7 0"/>
<path d="M9121 -9439l-4 1-5 3-7 4-6 3-7 5-7 5-8 6-5 6-4 6-4 6-3 6-2 6-2 7-1 6-1 6 1 5 1 5 2 5 2 5 3 5 3 4 4 3 5 3 5 2 5 2 6 1 7 0 14-2 7-1 8-2 9-2 8-3 10-2 9-3 8-3 10-4 9-3 9-5 9-3 8-4 8-5 6-4 6-4 4-4 4-4 3-4 2-5 2-3 1-4 1-4-1-4-1-5-1-5-2-4-2-4-4-5-3-3-5-4-5-4-5-4-5-2-5-3-6-4-7-2-5-2-6-2-6-1-6-1-7-1-12 0-5 1-6 0"/>
<path d="M9783 -9531l 0-1-1 0 0-1 0 0 0-1 3 0 2 1 18 0 5 1 5 0 5-1 5 0 6 1 9 0 9 1 3 1 4 1 3 2 3 2 4 2 2 2 3 2 2 2 1 2 2 3 1 2 1 3 0 7-1 3-1 3-2 4-2 4-3 4-4 4-5 4-5 4-6 5-6 5-7 5-7 5-7 5-8 5-7 4-7 4-6 5-7 5-5 4-5 4-5 4-5 3-5 5-4 3-4 4-2 4-3 4-2 2-2 5-1 3 0 2 0 3 0 2 2 3 2 2 2 2 4 2 4 1 5 2 6 1 8 0 7-1 9-1 10-1 11-2"/>
<path d="M10080 -9458l-1 1 0 1-1 1-1 1-2 0-1 1-5 3-3 1-2 3-3 3-4 4-3 4-3 4-3 4-3 5-2 5-2 4-1 4-1 5 0 4 0 7 0 4 1 4 1 3 3 5 2 1 3 4 2 3 3 2 5 3 3 1 5 1 5 2 5 1 6 0 6 0 7-1 6-2 8-1 7-2 8-3 9-4 8-4 8-3 9-4 7-5 8-5 7-5 5-5 6-5 5-4 4-5 3-5 2-5 3-5 1-4 1-5 0-4-1-4-1-5-1-4-4-9-3-3-4-4-4-3-5-3-5-2-7-3-7-2-7-1-7-1-9-1-8 0-9 1-10 0-9 2"/>
<path d="M8128 -8662l-2-1-2 0-2-1-3-1-2-1-3 0-2-1-2 0-1-1 0 1-1-1 0 1-1 0 0 4 0 2 0 3-1 4-1 4 0 5-1 7 0 7 0 8-1 8 0 9-1 9 0 9 0 10 0 20-1 10 0 11 1 11 0 10-1 11 0 22-1 10-1 20-1 10-1 10 0 9-2 9-1 9-1 8-1 7 0 21 2 5 1 5 2 2 3 3"/>
<path d="M8288 -8651l 1 0-1-1-1 0-1-1 0-1 3 0 3-1 3 0 4-1 6-1 7-2 7-2 9-3 9-2 9-3 9-2 10-4 10-2 19-8 8-2 10-4 7-3 8-3"/>
<path d="M8402 -8719l-4 2-5 2-6 5-6 4-8 5-9 5-8 5-7 6-7 5-6 5-7 5-7 5-6 7-7 6-6 7-5 7-5 6-5 7-4 5-3 6-3 6-2 5-3 4 0 5-1 4 0 7 1 4 1 3 2 3 2 2 3 3 4 1 4 2 5 1 7 1 23 0 9-1 10-1 10-1 10-2 11-2 11-3 11-2 12-1 11-2 12-2 11-1 11-2 13-1 22-1 10-1 20-2 10 0 8 0 7 0 7 1 6 2 5 1 3 1 3 2 2 3 2 2 0 2 0 3-1 3-2 3-2 3-4 4-4 5-6 5-6 5-8 6-7 7-9 6-9 6-10 5-10 6-10 6-10 4-10 7-11 5-20 8-9 4-10 3-9 3-8 4-8 0-8 3-7 2-7 2-7 1-6 0-5 1-3 1-4 0-3-1-2-1-1-2 0-3 1-3"/>
<path d="M8918 -8705l 1-1 2 0 1-1 3-1 3-1 3-1 4-1 4 0 4 1 4 0 5 1 4 0 5 2 4 1 4 1 4 1 4 2 2 1 4 2 2 1 3 2 1 2 1 2 2 2 0 2-1 2-1 3-2 3-2 4-4 3-3 4-5 5-6 5-6 5-6 5-7 5-7 5-6 6-7 6-7 5-6 5-7 5-5 4-5 5-5 5-3 4-4 4-3 4-2 3-1 3-1 3 0 5 1 3 1 2 2 2 3 3 3 1 5 2 5 1 13 0 8-1 9-1"/>
<path d="M9112 -8630l-3 1-3 2-4 2-5 3-5 3-6 4-5 4-3 4-4 4-3 4-3 5-2 4 0 4-1 4-1 3 1 3 1 4 2 6 3 2 2 3 3 2 5 3 4 2 4 0 5 1 6 1 6 0 6-1 6-1 7-2 7-3 6-2 8-3 7-3 8-2 7-5 7-3 6-4 7-5 13-8 6-5 5-4 5-4 4-4 5-3 2-4 3-3 2-4 0-4 0-7 0-4-2-3-3-4-2-4-4-3-4-4-5-3-5-5-5-3-5-4-5-3-6-4-5-3-6-2-5-2-5-2-5-2-5 0-5-1-10 0-4 1"/>
<path d="M9756 -8749l 0-1 1-1 0-1 0-1 3 0 2 1 3 0 3-1 12 0 5 1 10 0 5 1 5 1 4 0 5 1 5 1 4 0 4 2 5 1 4 1 4 1 3 2 4 1 3 2 4 5 1 3 2 2 0 3 1 2 0 4-1 4 0 3-2 4-3 3-3 5-4 5-10 10-6 5-6 5-6 6-8 6-7 6-8 7-7 6-8 6-7 5-7 5-6 5-5 5-5 4-8 8-3 4-3 4-1 2-2 3-1 3-1 3 0 4 1 1 1 2 2 0 4 2 4 0 3 0 5 1 11 0 6-1 8 0 7-2 9-1 9-2 10-2 11-3 11-3"/>
<path d="M10091 -8747l-1-1-2-1-2 0-6-2-2 0-2-1-1 0 0-1 0 0 0 0 2 0 0-1 2 1 2-1 2-2 4 0 3-2 9-3 4-1 5-2 5-2 5-2 4-2 5-2 5-2 5-2 4-2 5-1 4-2 5-1 4-1 3-1 4-1 3-1 3 0 2-1 4-1 1 0 1 0 1-1 0-1"/>
<path d="M10166 -8808l-2-1-3 0-4 1-4 1-5 2-5 1-6 2-5 3-5 2-5 3-5 2-5 4-5 4-6 3-6 4-5 5-6 5-6 5-5 5-5 5-5 6-4 5-5 6-4 5-5 4-5 9-3 4-2 4-2 3-1 3-1 3 0 7 1 1 1 3 1 1 1 2 2 2 3 0 3 2 4 1 3 1 5 1 5 0 5 1 5 0 6 1 6-1 6 1 7 0 20 0 7 2 7 0 7 1 26 0 5 0 6 1 5 1 5 0 4 1 4 2 4 2 4 0 3 2 3 1 2 2 2 2 2 1 1 2 1 1 1 2 1 1 0 2-3 4-1 2-1 1-3 2-5 5-5 3-4 2-6 4-5 4-7 4-7 4-7 3-16 7-8 4-7 3-8 3-8 3-7 3-8 3-7 3-8 2-7 3-7 2-8 2-14 3-8 1-7 2-7 0-7 1-22 2"/>
<path d="M7888 -8122l 0-1 1-1 0-2 1-1 1-1 1-1 2-2 2-1 4-2 2-2 4-1 3-1 4-1 13-2 4-1 5-1 14 0 5 1 9 1 4 2 4 1 3 2 3 1 2 3 3 1 2 2 1 2 2 1 0 2 1 2 1 3 0 2-1 2-1 4-3 3-2 5-3 6-5 6-5 6-5 8-7 9-7 8-8 9-8 8-9 10-8 9-9 9-10 9-9 9-9 9-9 9-9 8-8 8-7 6-7 7-6 7-5 5-4 5-3 5-3 3-2 3-1 3-1 2-1 1 1 2 1 1 2 2 2 1 4 1 4 1 6 1 7 1 8 0 10 0 11-1 13-1 14-1 14-3 15-4 16-5 16-6 16-6 17-7 17-7 17-6 17-8 17-7 17-8 16-8 15-7 15-7"/>
<path d="M8233 -8071l-2 0-2 1-1 0-2 0-4 2-3 1-3 1-4 2-5 3-5 3-5 3-5 4-6 4-5 5-6 5-5 6-5 6-4 5-4 7-3 6-2 5-2 6-1 10 0 4 0 4 1 4 2 3 2 4 3 3 3 3 4 2 5 3 5 2 6 2 7 2 7 1 8-1 8 0 9-1 8-2 10-3 8-4 8-4 9-5 8-5 9-5 8-4 7-6 7-5 7-6 6-5 5-7 5-5 4-6 3-6 2-6 1-5 1-5 0-4-1-4-1-4-2-4-2-4-4-5-4-4-4-4-5-4-6-5-6-5-6-4-5-4-6-3-6-3-5-2-6-3-6-1-5-1-5-1-4-1-9 0-3 0-2 1-3 1-2 1-3 2-2 3 0 2-1 3 0 6 1 4"/>
<path d="M8788 -8141l-1 0 0 1 0 1-2 2-1 3-1 4-2 5-2 5-1 7-2 6-2 7-2 8-1 9-2 8-1 9-1 8-1 8 0 8-1 7-1 7 0 6 0 13 0 5 1 6 1 6 1 5 3 8 2 4 2 4 2 3 3 3 3 2 3 1 4 1"/>
<path d="M8953 -8117l 1-1-2 0 1 0 1 0 2 0 2-1 3-1 3-1 5-1 5-1 6-3 7-2 6-3 7-2 7-3 6-2 7-3 7-2 7-3 6-2 6-2 6-2 5-2 5-2 4-1 3-1 3-3 2 0 3-2 1-1 0-2-1 0"/>
<path d="M9028 -8153l-4 1-3 3-5 3-4 4-6 3-7 5-7 5-5 4-6 5-6 4-6 5-5 5-7 7-5 5-6 5-5 5-6 5-5 6-4 5-4 5-4 4-3 5-3 4-2 4-2 4-1 3-1 3-1 2-1 2 1 2 0 1 1 2 4 2 3 1 3 1 3 1 16 0 7-1 7-1 8 0 9-1 9-1 9-1 10 0 11-1 10-1 11-2 10-1 9-1 11-1 11-1 10-1 9-1 10-1 33 0 7 1 6 1 5 2 5 2 5 1 4 2 3 2 3 1 2 2 2 2 1 5 0 2-1 3-2 2-2 3-3 3-3 4-5 3-5 4-6 4-6 5-7 5-8 5-8 5-9 5-18 10-10 5-10 4-9 4-10 4-10 3-9 4-9 3-19 6-8 2-8 2-7 1-11 2-7 0-3-1-2-2"/>
<path d="M9710 -8151l 2-1 2-1 3 0 3-1 3-1 4 0 4-1 4 0 4-1 9 0 5 1 4 1 4 0 4 2 4 1 3 1 4 1 2 1 3 2 2 1 1 1 2 2 0 1 1 2 1 2 0 1-1 2 0 1-1 2-1 2-2 3-3 2-4 4-4 4-6 4-5 4-7 5-7 4-7 5-8 5-7 4-8 4-6 5-7 4-6 3-7 4-5 4-6 4-5 3-4 4-5 4-2 3-3 4-2 3-2 2-1 3-2 5 1 1 1 2 0 2 3 1 2 1 3 1 4 1 5 1 5 0 13 0 8 0 9-2 8-1 9-2 10-1 10-2 10-2 11-4 10-3 11-3 11-3 10-4 11-4 10-3 12-4"/>
<path d="M10013 -8213l 1-1-1 0 0 0 1 0 0-1 1-1 4 0 3-1 2 0 4 0 9 0 5-1 5-1 5-2 4-1 5-2 5-1 5-2 4-2 4-1 5-2 5-2 4-2 5-1 4-2 4-2 3-1"/>
<path d="M10081 -8235l-1 1-3 1-2 2-3 2-3 3-4 2-4 3-3 4-3 3-4 3-3 4-3 3-4 3-4 4-2 3-4 4-4 4-2 2-3 4-3 3-3 3-4 8-2 3-3 4-1 3-1 3-1 4-2 3 0 2 0 2 0 1 1 2 1 2 1 1 2 2 2 1 3 1 3 1 3 2 4 0 5 1 5 1 6 1 7 0 6 0 7 1 28 0 7 1 7 0 7 0 7 1 6 0 7 1 7 0 6 1 6 0 6 1 5 1 6 1 6 1 5 1 5 2 5 1 4 1 4 2 7 3 3 2 2 1 2 2 2 2 2 1 0 3 1 2 1 2 0 5-1 2-1 3-1 2-4 6-3 3-3 4-4 3-4 4-5 4-6 5-13 7-7 4-7 4-8 4-8 3-8 3-8 2-8 3-8 2-8 3-9 2-8 2-8 2-8 1-9 2-8 1-7 1-8 0-7 1-8 0-7 1-13 0-5-1-6 0-5 0-5-2-4 0-4-2-3-1"/>
<path d="M775 -7678l-3 0 1 0 0 1-1 0 1 0-1 0 1 0-1 0 0 0 0 0 0 1-1 1 1 0 0 8 1 3 0 2 1 3 0 7 0 5 1 5 0 5 1 4 0 6 1 5 1 7 1 6 1 12 1 7 0 6 1 7 1 7 1 6 1 7 1 7 1 7 1 6 1 7 2 13 1 6 1 6 1 6 1 5 1 6 0 5 2 4 1 5 0 5 1 5 1 3 0 4 0 4 1 4 1 3 0 3 1 4 0 5 0 2 0 5 1 2 0 6 1 0 0 6"/>
<path d="M694 -8380l 0-1-1 0 0 0 0-1 0-1-1-1-1 0 0-1-1 0 0-1 0 0-1 0 0-1 0 1-1 0 0 11 1 4 0 15 1 6 0 8 0 47 0 11 0 24-1 12 0 13-1 13 0 12 0 13-1 12-1 13-1 24 0 51 1 16 1 6 1 6 2 5"/>
<path d="M813 -8359l-1 1 0 1 0 1 0 1-1 2 0 3-1 2 0 18 1 4 1 5 0 5 1 6 1 6 2 6 1 7 1 7 2 7 2 8 1 8 2 8 2 9 1 9 1 10 2 11 1 11 1 12 1 11 1 12 1 13 1 14"/>
<path d="M696 -7284l 0-1 0 1-1-1 1 0-1 0 0 1 0 1 0 30 0 5 0 85 0 10 0 19-1 10 0 19-1 9 0 34 1 8 0 7 1 6 0 6 1 6 1 5 1 4 1 4"/>
<path d="M804 -7250l-1 1 0 0 0 1-1 0 0 2-1 2 0 8 1 3-1 4 1 3 0 12 1 5 0 5 0 6 0 12 1 6 1 6 0 20 0 7 0 6 1 7 0 30 1 8 0 15 1 7 0 8 0 7 0 8"/>
<path d="M969 -7335l 0 1 0-1 0 1-1 0 0 3 0 2 0 11 0 6 0 6 0 7 0 8 0 9 1 10 0 20 1 11 0 11 0 12 0 25 1 14 0 41 2 14 0 16 1 15 1 14 1 15 2 13"/>
<path d="M911 -7818l-1 0 0-1-2 0 1 0 0 2 1 0 0 2 0 2 1 2 1 4 0 3 3 10 1 7 2 6 2 7 1 8 1 8 1 9 2 9 1 9 3 20 1 11 2 11 2 11 1 12 2 12 1 12 2 13 0 12 2 13 1 13 1 13 1 12 1 13"/>
<path d="M2824 -8530l 1-1 0 0-1-1 0-2-1 0 0 0 0 0 0 0 0 0 0 0 0 1-1 0 0 2 1 1 0 7 0 4 0 21 1 7 0 21 1 7 0 9 0 8 0 8 1 8 0 9 1 7 0 15 1 8 0 6 1 6 1 6 0 6 0 5 1 6 0 5 1 4 0 17 1 4 0 10 0 3 0 6 1 3 0 10 1 2 0 1 0 2 0 3 1 1 1 2 1 2 1 1 1 1 1 2 2 3 1 1 1 2"/>
<path d="M2845 -7474l 0-1-1 0 0 0-1-1-1 0-1-1 0 0 0-1 0 1 0-1 0 3 0 1 0 3 1 2 0 4 1 5 0 5 1 6 1 6 1 7 0 7 0 7 2 7 1 8 1 8 1 8 0 8 2 8 1 8 2 9 0 9 1 9 1 10 1 11 0 9 1 11 1 21 1 10 1 10 0 10 1 8 0 9 0 7 1 7 0 7 1 5 0 6 0 5 1 4 0 5 1 3 1 3 0 6 0 2 0 3 1 1 0 1 1 0 0-1 1-1 1-2"/>
<path d="M2828 -8085l 1-1 0-2 0 1-1 0-1 1 0 0 0 0 0 12-1 3 0 5 1 4-1 5 0 31-1 6 0 6 1 6 0 13-1 7 0 29-1 8 0 13 0 7 0 5-2 12 0 5 0 5 0 7-1 5 0 10-1 5 0 5-1 4 0 5 0 4 0 10-1 4 0 4-1 5 0 4 0 4-1 4 0 4-1 4 0 9-1 3 0 13 1 0 0 2 1 0 1 2 0 1 2 0 2 2 1 1 2 1"/>
<path d="M3010 -7474l-1-1 0 0 0-1 0-1 0-1 0 0 11 0 3 0 3 0 4 1 7 0 4 1 22 0 5-1 4 0 4-1 9-1 5-1 4-1 5-2 5-1 5-2 6-2 6-2 5-3 7-3 6-4 6-5"/>
<path d="M3097 -7604l-1-1 0 1-2 3-1 1 0 2 0 3-1 2 1 3 0 5 0 4 2 8 1 5 2 5 1 5 2 5 2 5 2 5 2 5 2 5 2 7 2 6 3 6 2 7 2 6 2 6 4 13 2 7 3 6 2 6 3 5 2 7 3 6"/>
<path d="M3290 -7586l 0-2 4 0 2 1 3 0 8-2 5-1 7 0 6-2 6-1 6-3 7-1 6-3 7-2 7-2 6-3 7-3 7-2 6-4 7-4 7-4 7-4 6-4"/>
<path d="M3346 -7623l-3 1-3 2-3 1-4 2-3 3-4 2-4 3-3 2-3 3-3 3-3 3-2 3-3 3-2 4-2 4-1 4-3 5-1 4-1 5-3 5-1 6-1 6-3 11 0 6-1 5 0 5-1 7 0 16 1 5 0 5 1 4 1 3 2 4 1 2 1 3 2 2 3 2 2 0 2 2 4 1 3 1 9 1 5 1 5 0 5 1 7 0 6 0 7 0 7-1 6-1 7 0 14-1 7-1 7-1 6 0 7 0 7-1 20 0 6 1 6 0 6 1 6 2 5 1 4 1 4 2 5 2 3 2 4 3 3 2 4 6 1 3 2 3 1 4 1 4 1 4 0 4-1 4-1 5 0 5-5 10-3 5-3 6-4 6-4 6-4 5-5 7-5 5-5 5-6 6-11 10-7 4-6 4-7 3-7 4-6 3-5 3-6 3-11 2-5 2-5 1-9 0-4-1-7-4-2-3"/>
<path d="M3534 -7466l 1 1 2 1 1 2 3 2 3 2 3 3 4 1 4 2 5 0 5 0 5 0 5 0 6-1 7-2 5-2 7 0 6-3 7-2 7-3 6-2 7-3 6-3 6-3 7-4 6-4 12-7 5-3 4-4"/>
<path d="M3641 -7545l-1 0-1 2-2 2-1 2-2 3-3 3-1 4-2 4-1 5-1 4-1 5 0 5 0 6-1 5 1 6 0 10 0 4 1 4 1 5 1 5 1 5 1 4 2 5 1 4 2 5 2 6 2 4 3 5 2 4 3 4 3 4 3 4 3 3 4 3"/>
<path d="M3846 -7567l 1 0 0 1 1-1 4 0 3-1 2-1 4-1 4-1 4-2 5-1 5-2 4-1 5-2 5-2 6-2 5-2 5-1 5-2 5-3 4-2 4-2 5-2 4-2 4-2 3-1"/>
<path d="M3878 -7574l-3 1-3 3-2 1-3 3-3 3-3 3-2 2-3 5-2 5-2 5-3 5-2 5-2 6-2 7-1 6-2 6-1 5-2 7-1 6-2 5-1 10-1 4 0 16 1 4 1 7 1 3 3 6 1 2 4 5 2 1 2 2 3 2 3 1 3 2 4 1 4 1 4 1 4 2 6 0 24 0 6 0 6 0 7-1 11 0 7-1 5 1 6-1 6 1 6 0 5 1 10 2 6 2 4 2 5 1 5 3 5 2 5 3 4 2 4 3 4 4 4 3 4 4 2 4 3 4 2 4 1 4 2 5 0 9-1 6-2 5-2 5-3 8-5 6-4 8-6 7-6 8-7 8-7 8-8 6-8 7-9 8-7 6-10 7-8 5-9 5-17 10-8 4-8 4-7 3-7 3-6 2-6 2-6 2-5 1-13 0-3 0-3-2-2-2-3-3-2-3-1-4 0-5"/>
<path d="M4188 -7427l 1 0 1 1 1 0 1 0 2 0 3 1 2 2 3 0 7 2 5 0 4 1 21 0 5-1 7 0 3 0 3 0 3-1"/>
<path d="M4158 -7335l 0-1 0 1 1 0 0-1 1 0 1 1 5 0 3 1 3 0 4 0 4 0 5 1 5 0 6-1 6 0 7-1 6-1 7-2 7-1 8-1 7-1 8-2 8-2 8-1 8-2"/>
<path d="M4409 -7479l 1 0-1-1-3 0 0 1 1 1 0 3 1 2 0 3 0 3 1 4 1 10 1 6 2 7 0 5 1 7 1 7 0 7 1 9 2 7 0 8 1 8 1 9 0 9 1 9 1 7 1 8 0 8 0 9 1 8 1 7 0 8 1 8 1 7 1 7 0 7 1 6 1 5 1 5 2 5 1 4 3 7 2 3"/>
<path d="M4526 -7454l-1 2 0 3-1 3-1 4-1 6-1 6-1 7 0 27 1 7 1 8 0 8 1 8 1 9 1 8 1 9 1 9 2 8 1 8 2 8 1 8 1 8 1 7 2 8 2 7 1 8 2 6 1 7 2 7 2 8 3 7 2 7 2 8 2 7 2 7 3 6 2 7 2 6 3 7 2 6 2 6"/>
<path d="M1289 -6012l 1-1 0 0 1 0 3-2 2-1 2 0 3-1 2-1 2 0 3-1 3-1 4-1 3 0 4 0 3-1 5 0 8-1 9 0 5-1 4-1 5-1 5 0 5-2 12-3 5-2 5-1 5-2 5-1 5-3 5-1 10-5"/>
<path d="M1346 -6099l 0 4-1 2 0 6 1 4 0 12 1 4 1 4 2 5 1 5 1 5 2 5 2 5 2 4 2 5 2 6 1 5 2 5 4 11 1 6 2 6 3 5 1 5 2 5 2 6 2 5 3 5 2 4 3 5 2 4"/>
<path d="M1571 -6181l-1 1-1 3-2 2-2 4-1 4-2 6-2 6-2 7-1 6-2 7-1 7-1 6-1 7 0 7 0 7 0 26 1 8 0 7 1 6 1 7 0 7 1 8 1 7 0 8 1 7 1 8 1 7 0 8 2 7 0 8 3 7 1 8 2 6 2 7 2 6 4 6"/>
<path d="M1730 -5900l 1 2 0 2-1 3 0 9-1 5 0 33 0 5-1 6-2 11-1 7-1 6 0 6-2 7-1 7 0 7-1 7"/>
<path d="M2055 -6029l 0-1 3 0 2 1 8 0 4 1 11 0 7 0 6 0 8-1 7 0 8-2 7-1 18-4 8-2 9-2 10-3 10-3 9-2 10-3 9-4 9-2 8-4"/>
<path d="M2203 -6115l-1 1-3 3-2 2-2 3-3 4-3 5-2 5-2 4-1 5-2 6 0 6-1 6-1 6 1 7 1 7 0 6 2 7 0 6 3 13 2 7 0 5 3 6 2 6 3 5 2 6 3 5"/>
<path d="M2390 -6197l-2 0-2 1 0 2 0 3-1 3 0 7-1 4 0 30 1 7 0 7 1 7 0 8 1 7 1 8 1 8 1 8 0 8 1 8 1 9 1 9 1 9 1 9 1 9 2 10 3 9 1 10 3 9 3 10 3 10 7 17 3 8 5 7"/>
<path d="M2601 -5949l 1 1 0 3-1 2-1 1 0 3 0 4-1 3 0 4-1 4-1 4-1 5-1 4-1 4-1 5-1 5-3 10-1 6-1 5-2 6-1 5-2 6-1 5-1 6-1 5-1 5"/>
<path d="M2934 -6031l-1-1 0 0-2 0 0-1-1 0 0-1 1 0 1-1 1 0 2-1 4-1 4-1 4-2 5 0 6-2 7-1 8-1 9-1 8-2 10 0 18-3 10-1 10-1 10 0 10 0 10-2 21-1 11-2"/>
<path d="M3294 -6204l-1 0-2-1-3 0-2 1-2 1-1 3-2 4-1 4 0 5-2 7 0 7-1 8 0 36 1 19 1 10 1 9 0 9 0 9 0 11 1 10 1 11 1 10 0 41-1 10-1 11-1 9"/>
<path d="M1051 -5814l 1 0 0 6 0 3 0 1 1 3 0 25-1 7 0 8-2 9-1 9-2 11-3 12-3 12-3 12"/>
<path d="M546 -5914l-1-1 0 0-1-1-1 0 0-1-1 0 0-1-1 0-1-1 0-1 0 0 8 0 3 1 14 0 5 1 50 0 7-1 7 0 8-1"/>
<path d="M761 -6107l-1 1-3 3 0 1-1 2-1 3-1 3-1 4-1 4-1 6-1 7 0 13 0 9 0 28 0 12 1 12 1 12 3 26 1 13 2 15 2 13 3 14"/>
<path d="M2225 -5375l-1-1-8 0-2 1-3 1-2 2-2 2-3 3-2 4-3 5-3 6-3 6-3 8-3 9-2 10-2 11-2 13-2 14-2 15-1 15 0 17 0 16 0 17 0 16 1 16 2 15 1 13 2 14 3 12 4 12 3 11 5 11 4 9 5 8 5 8 6 6 5 6 5 5 6 5 6 3 6 3 6 3 7 1 7 2 7 0 7-1 8-1 8-2 8-3 8-5 8-3 7-6 8-5 7-6 8-6 7-6 6-8 7-9 6-8 6-9 5-9 5-10 5-9 3-9 3-10 3-9 1-10 0-10-1-8-1-10-4-10-4-9-10-18-12-19-8-10-7-9-7-8-8-9-8-8-8-8-9-7-8-8-9-7-8-7-8-7-9-6-8-5-8-5-7-4-8-3-7-2-5-1-6-1-5 0-5 2-5 2-5 2-5 5-4 5-5 5"/>
<path d="M2611 -5025l-1 1-1 1-1 2-1 2-1 3-1 4-1 4-2 5 0 5-1 6-1 7 0 8-2 7-1 8 0 8-2 9-1 10-2 10-2 10-3 11-1 11-2 11"/>
<path d="M2914 -5392l-1-1-2 0-1 0-6 0-1 0-3 0-2 2 0 2-1 1-1 2-1 3-1 3-1 4 0 4-1 6-2 6 0 7-1 7 0 17-1 8 1 10 1 8 0 10 2 10 1 10 1 10 2 9 2 10 2 10 3 10 2 8 3 9 3 9 3 8 3 8 3 7 3 7 3 7 4 6 3 7 3 5 4 5 3 4 4 4 4 4 4 4 5 3 5 3 5 2 5 2 6 2 7 1 6 1 6-1 7 0 7-1 6-1 8-2 7-4 8-3 7-3 8-5 8-5 8-5 7-6 8-6 7-6 8-7 6-8 7-9 6-8 7-9 5-10 5-10 5-11 5-10 4-9 4-10 2-9 3-9 1-8 1-8 1-8-1-8 0-7-3-16-2-8-3-8-3-7-4-8-2-7-5-7-4-7-4-6-5-6-5-5-5-6-5-4-5-5-5-4-6-5-6-4-6-4-6-3-7-4-6-3-7-2-7-2-6-1-7-2-14-1-14 0-6 1-7 0-7 2-6 0-7 3-6 3-5 3-6 4-5 3-4 4-4 5"/>
<path d="M5909 -6596l-1-1-2 0-1 0-2-1-3-1-1-1-1 0-1 0-1-1 0-1 3 0 0 0 1 0 0-1 2 0 2-1 1 0 3-1 3 0 4 0 4 0 4 0 15 0 10 2 10 0 4-1 6 1 15 0 5-1 11 0 6-1 5 0 4-1 17 0 4 1"/>
<path d="M5964 -6675l 0 4 1 2 0 2 1 3 1 5 1 5 1 11 1 7 0 6 1 7 0 7 1 7 0 13 1 7 0 12 0 6 0 5 1 5 0 5 1 6 0 14 0 4 0 4 1 4 2 3 1 2 1 3"/>
<path d="M6102 -6695l-1 0 0 1 0 0-1 2-1 1-1 3 0 3 0 3-1 3 0 9 1 5 0 6 0 6 1 6 1 7 1 8 0 7 1 8 1 8 1 18 1 9 1 9 1 9 1 10 1 9 1 9 1 8 2 8 0 9 2 7 1 8 2 7 2 8 2 7 2 7 3 6"/>
<path d="M6249 -6482l-1 1-2 3-2 2-2 5-3 5-3 5-3 7-2 7-2 6-2 7-2 7-2 7-1 7-2 7 0 7-1 7-1 7-1 7-1 7 1 7-1 7-1 7"/>
<path d="M6346 -6562l-1-1 0 0 0-1-1-1 1 0 1 1 14 0 4 1 6 0 5 0 27 0 6 0 7 0 7-1 7-1 7-1 6-1 7-1 7-2"/>
<path d="M6575 -6733l 0-1-1 1 0 1 0 1-1 2-1 2 0 18 1 7 0 7 1 8 1 8 3 17 1 8 2 10 1 8 2 9 2 10 1 8 2 10 3 19 2 8 1 10 1 10 3 9 0 9 2 7 1 8 1 8 1 7 2 7 2 7 1 6 2 6"/>
<path d="M6703 -6452l-1 1-1 0-2 2-1 2-3 6-1 3-1 3-1 4-1 5-2 5-1 4-1 5-1 6-2 5-1 6-1 6-2 5"/>
<path d="M6927 -6595l 0-4 6 0 3 1 5 1 5 0 5-1 12 0 6-1 7 0 6-1 14 0 7-1 7 0 7 0 7 0 7-1 7-1 7 0 6-1 7 0 7 0"/>
<path d="M7214 -6739l-3 0-1 1-2 0-2 0-1 2-2 2 0 2-1 4-2 3 0 5-1 5-1 5 0 34 1 7 0 7 1 7 0 7 0 8 1 7 1 8 0 7 1 7 1 8 1 15 2 8 1 8 0 7 2 7 0 8 1 7 2 8 0 6 2 6 1 6 2 6"/>
<path d="M7327 -6490l 1 1 0 6 0 3 0 4 1 3 1 4 0 9 1 4 0 10-1 5-2 11-1 6-1 5-3 7-2 6-3 7-2 6-3 7"/>
<path d="M7418 -6582l 1-1 0 0 9 0 4-1 5 0 5-1 5 0 13-1 6-1 6 0 6-1 6 0 11 0 6-1 11 0 5-1 5 0 15-2 5-1 5 0 4-1"/>
<path d="M7494 -6661l-1 1-1 1-2 2-1 2-1 3-3 2 0 4-1 4 0 24 1 6 1 11 2 6 1 6 1 6 3 6 1 6 2 5 2 6 2 5 3 5 2 6 3 4 2 5 3 5 3 4 3 4 3 4 3 3"/>
<path d="M7690 -6677l-1 0 0 1-1 1-1 2-1 2 0 4 0 6 0 5 0 5 1 5 1 5 1 6 1 7 1 6 3 14 2 7 1 8 2 8 2 7 1 7 1 8 1 8 1 7 1 8 0 7 1 9 1 7 0 8 1 8 0 8 0 7 1 8 1 7 0 8 0 7 1 7 2 7 0 6 1 6 1 7"/>
<path d="M5774 -5814l 0-1 1 0 1-1 3 0 3-1 3-1 3 0 5 0 5-2 5 0 5-1 7-2 5 0 7-2 6-3 7-2 8-3 7-2 6-3 7-2 6-3 6-2 6-3 6-3 5-2 5-2 4-3 4-3 4-2 4-2 3-3"/>
<path d="M5846 -5922l-1 1-3 0 0 0-1 2 0 23 1 5 0 6 0 7 1 7 1 6 1 7 0 7 1 8 1 7 0 8 1 8 1 7 1 9 0 8 1 8 1 7 1 7 2 7 2 6"/>
<path d="M6027 -6005l-1 1 0 0 0 1-1 2-1 2 0 13 1 6 1 6 1 7 1 8 1 8 2 9 2 9 2 10 1 9 2 10 3 11 1 11 1 11 2 12 1 11 1 12 1 12 1 12 1 11 1 11 2 11 2 10 2 9 2 9"/>
<path d="M6166 -5721l-1 1-1 3-2 3-2 4-2 5-3 6-2 7-2 6-2 7-2 8-2 8-2 8-2 8-1 9-3 8-1 8-1 8-2 7-2 9-2 8-2 8-2 8"/>
<path d="M6321 -5845l 1-1 2 0 1 1 2 0 3 1 24 0 7-1 8-1 8-1 9-2 9-1 9-1 9-3 9-2 8-2 10-2 8-2 9-2 8-2"/>
<path d="M6546 -5998l-1 0-2 1-1 1-3 3-2 3 0 3-1 3 0 7 1 5 0 6 1 6 2 6 1 7 1 6 3 7 2 7 2 7 2 6 3 7 2 8 3 7 2 8 3 7 3 8 2 7 3 9 3 8 2 7 3 8 3 7"/>
<path d="M6734 -5782l 1 0 0 32-1 5-2 17-1 7-1 6 0 7-1 7-1 7 0 7-1 6-1 8-1 8"/>
<path d="M6940 -5904l-3 2-3 3-5 4-5 4-5 6-5 6-4 7-4 6-1 8-2 7-1 8-1 7 1 6 0 7 2 8 2 8 2 7 3 7 4 6 4 6 5 6 6 5 6 5 6 3 7 3 7 2 6 2 7 2 22 0 8-1 7-2 7-2 7-3 7-4 7-4 6-4 5-5 6-5 5-6 5-7 4-7 4-7 2-7 3-8 2-7 1-6 1-7-1-8 0-8-3-14-2-8-2-7-7-16-4-7-4-8-5-7-5-7-5-7-11-13-7-4-6-5-6-4-6-4-7-3-6-3-6-2-6-2-5-1-7 0-6 0-5 2-6 1-5 3-6 3-10 9-3 5-3 7-3 6"/>
<path d="M7162 -5721l 1 1 0 1 0 1 0 1 1 2 0 3 1 2 1 3 0 7-1 5 0 5-2 12 0 6-2 7-1 8-2 7-2 7-3 6-2 7-2 7-3 8-2 8-1 7"/>
<path d="M7506 -5972l-4 0-3-1-3 1-4 0-4 1-3 1-3 2-2 2-4 3-3 3-3 4-3 5-4 5-3 6-3 7-2 7-3 7-2 8-1 8 0 24 1 8 2 8 3 7 2 8 3 7 4 7 4 7 4 6 5 5 5 6 5 5 5 4 5 4 5 3 7 3 6 3 7 1 6 1 14 0 8-1 7-1 7-2 8-2 7-3 7-3 8-3 8-5 15-10 8-5 7-6 6-6 6-8 6-6 4-7 3-7 4-7 2-6 2-7 0-7 0-6 0-7-1-5-2-6-2-6-4-6-4-6-4-6-5-6-6-6-6-5-6-6-8-5-7-5-8-5-7-4-8-5-8-3-7-4-8-3-7-2-6-2-6-1-6-1-5-1-4 0-4 1-4 1-4 0-3 2-2 1-2 2"/>
<path d="M7832 -5812l 1 0 0 1-1 0 1 0 0 0 1 1 0 1-1 0 0 1-1 0-1 0 0 1 0 1-1 0-1 0-1 2-1 0 0 1-1 0 0 0 0 1-1 0 0-1 1 0 0 2 0-1 0 1 0 0 0-1 0 1 1 0 0-2 0 1 0-2 0 2 1 0 0 1 0-1 0 1 0-1 0 1-1 0 0-1 1 0 0 1 0 0 0 1 0-1 0 3 0 1 0 2 1 2 0 2 1 3 0 3 1 3 0 23-1 3 0 3-1 4-1 3-1 5-1 4-2 4-2 5-3 5-3 5-3 7-4 7-4 7-4 7-5 8-5 9-6 8-6 9"/>
<path d="M7983 -5948l-1 0 0-1 0 0 0 0 1 0 2 0 2-1 7 0 4-1 4 0 4-1 4 0 5 0 4-1 5-1 5-1 5-1 5-1 5-1 5-1 5 0 5-1 5-1 5-1 5-1 5-1 5 0 5 0 4-1 4-2 4 0 3-1 4-1 3 0 3 0"/>
<path d="M8173 -6118l 0-1-1-1 0-1 1 0 0 2 1 1 0 1 0 1 1 2 1 2 3 8 0 3 3 5 1 6 1 6 3 7 2 6 2 7 2 7 3 8 2 7 3 8 3 7 3 8 2 7 3 8 2 8 3 8 2 6 3 8 2 7 2 8 2 9 1 8 2 9 1 8 1 8 1 9 0 9 0 8 1 8 0 8 2 7 0 16 0 8 0 6 1 7 1 7 0 5 0 7 1 5 0 5 1 4 1 4 0 5 1 2 0 4 1 3 1 2 1 2 1 2 1 0"/>
<path d="M8340 -5787l 1 1 0 1 0 1 1 1 1 2 1 2 1 2 1 2 1 3 1 2 1 3 1 3 1 3 0 3 1 4 0 8-1 4 0 5-1 5-1 4-2 5-1 5-2 5-3 5-9 17-3 5-4 5-4 6-3 5-3 4"/>
<path d="M8423 -5936l 0-1-2 0 9 0 3 0 9 0 5-1 5-1 7 0 5-1 7 0 6-1 6-1 6-2 13-1 5-2 6 0 6-2 5-1 6-1 6-1 5-1 5-2 5-1 5-1 4-2 4-1 4-2"/>
<path d="M8461 -6025l-8 0-3 1-2 0-2 0-1 1-1 2-1 1-1 2 0 2 0 3-1 3 0 4 1 3 0 4 1 5 1 5 1 5 2 4 2 6 2 5 2 5 2 6 2 7 3 5 2 5 1 7 2 5 2 6 2 5 1 5 2 5 1 5 2 5 2 5 1 6 2 4 1 5 1 4 2 5 2 4 2 4"/>
<path d="M8643 -6045l 0 1-1-1 0 31 2 13 0 7 2 7 1 7 1 8 1 7 2 9 3 15 2 8 1 9 2 8 1 7 2 8 1 7 1 8 1 7 2 8 1 6 1 7 1 7 2 7 1 13 1 6 1 6 0 6 2 10 0 4 1 4 1 4 0 5 1 3"/>
<path d="M5669 -5148l 1 0 0-1 1 0 1 1 2 0 2 1 3 0 4 1 5 0 5 1 33 0 8-1 9 0 7-1 8 0 9 0 8-1 18-3 7-1 8-2 8-2 7-3 7-2 6-3 6-3 4-2 4-3"/>
<path d="M5751 -5197l-1 1-2 1-2 2-1 2-3 3-2 2-2 3-1 4 0 3-2 7 0 3 1 5 0 4 1 6 1 5 1 5 1 5 2 6 1 7 2 5 2 7 1 7 2 6 2 7 1 7 2 6 2 7 1 7 2 6 2 6 2 6 2 6 2 6 2 6 3 5 3 4"/>
<path d="M5894 -5273l-1-1-2-2-1-1 0-1-1-1 1 0 1 0 2 2 2 0 3 2 4 1 3 2 6 2 5 2 6 2 6 2 7 3 6 2 7 3 5 3 7 4 5 4 5 3 12 9 5 5 5 6 8 10 4 5 3 5 2 5 1 7 2 6 1 7-2 13-1 7-2 6-4 7-4 7-4 7-5 6-5 7-6 8-6 7-7 8-7 7-7 7-8 7-7 7-8 7-7 7-8 5-7 7-6 6-6 6-5 6-5 5-3 5-3 4-4 4-2 2-2 3-2 2 0 0 0 2 0 1 2 0 1 1 17 0 6-1 7 0 7-1 8-1 8-1 9-2 10-2 10-1 10-1 10-1 10-3 10-1 10-1 11 0 10-1"/>
<path d="M6156 -4998l-1 0 0 1-1 1-1 2-1 2-2 2 0 3-2 2-1 3-1 3-1 2-2 4-1 3-2 3-1 4-2 4-2 5-2 4-3 5-2 5-2 5-3 6-2 5-3 6-3 6-2 6-2 6-2 6-2 6"/>
<path d="M6282 -5133l 0-1-1-1 0-1 1 0 1-1 2 0 3 0 3-1 5-1 6 0 7-2 8-1 8-1 8-1 10-1 8-1 10-1 9-1 9-1 9-1 9-2 9-1 10-2 9-2 9-2 9-1"/>
<path d="M6553 -5284l 0-1-1-1 0-1-1-1-1-2-1-1 0-2 2-1 1 0 0-1 6 0 3 0 16 0 5 0 5 2 5 0 5 2 5 2 5 1 6 3 6 2 5 3 5 2 5 3 12 6 5 3 5 3 5 3 3 5 5 3 3 4 3 5 3 5 2 5 2 6 1 5 1 6 0 11-2 6-2 6-2 6-3 6-4 7-4 6-5 7-5 7-7 7-7 7-14 14-8 7-8 8-7 7-8 7-8 7-8 7-7 7-8 7-7 6-6 5-11 11-5 4-4 5-3 5-3 4-2 4-2 3 0 4 0 8 1 1 2 1 2 2 2 1 3 1 3 0 5 1 5 0 5 1 5 1 21 0 8 1 26 0 10-1 10-1 10 1 9-2"/>
<path d="M6806 -5000l-1 1-1 0-2 2-1 2-1 3-2 3-2 4-1 4-2 5-1 4-2 5 0 5-2 5-1 5-1 4-1 6-2 6-3 11-2 6-1 7-2 6-1 6"/>
<path d="M6921 -5179l-2 1-3 0-3 2-3 3-5 3-3 4-4 5-3 5-1 6-2 6-1 6-1 8 0 14 1 8 1 8 2 7 2 8 3 8 3 9 3 8 5 9 5 8 4 8 5 7 5 8 6 7 5 6 11 10 6 4 7 5 6 4 6 3 7 3 7 2 7 1 8 1 7 0 7-1 8-1 7-2 8-3 8-4 8-4 8-4 8-6 14-13 7-7 5-7 6-8 5-8 4-8 4-8 3-7 3-8 1-8 1-8 0-8 0-6-2-8-2-9-3-8-7-15-5-7-6-8-5-7-6-7-6-6-8-5-7-4-8-4-7-3-8-4-7-1-9-1-8-1-25 0-8 1-8 2-8 1-7 2-7 2-5 3-5 2-6 3"/>
<path d="M7165 -4949l 0-1-1 0 0 2 0 0 0 2-1 1-1 2-1 2-2 3-1 3-2 3-2 4-3 5-2 5-6 8-3 5-7 9-3 4-4 4-5 5-4 6-4 5-5 5-4 6"/>
<path d="M7323 -5075l-1 0 0-1-1 0 0 0 1 0 0-1 1 0 1-1 1 0 2-1 1 0 2-2 2 0 3-2 3-1 4-1 4-1 7-1 4-1 5-1 4 0 5-1 4 0 5-1 5 0 6 0 5 0 6-1 6 0 6-1 6-1 6 0 6 0 6 0 6-1 6 0 12-1"/>
<path d="M7520 -5209l-1 0-1-1-1 0-1-1 0 0-2-1 0 1 0 0 0 2 1 1 1 2 0 3 1 4 2 4 0 5 2 6 1 6 2 8 2 7 1 6 2 8 2 8 2 8 4 18 2 8 2 9 2 10 2 9 2 9 2 10 2 9 3 10 2 8 2 10 2 8 3 8 2 9 3 8 2 7 3 6 2 7 3 5 3 6 3 6 2 4"/>
<path d="M7758 -4989l 1 1 0 1 0 2 0 1 1 3 1 2 1 2 1 3 1 2 1 2 1 3 1 3 1 2 1 4 0 3 0 3 1 4 0 4-1 4 0 4 0 3-1 5-1 4-2 4-1 5-2 5-6 11-3 5-4 6-3 5-4 5-4 7-4 5-4 6-3 5"/>
<path d="M8036 -5242l-1-1-2 0-3 1-2 0-3 1-3 1-4 3-4 3-4 4-4 5-4 7-5 7-5 8-5 10-5 10-10 22-5 11-5 13-4 13-3 13-4 13-3 12-2 13-1 12-1 13 0 10 1 10 2 10 2 8 3 9 3 7 5 7 11 11 6 5 8 3 8 4 10 3 9 1 11 1 11 1 12-1 12-2 12-2 12-3 12-3 13-4 11-4 12-5 11-6 11-5 10-7 10-7 8-6 15-15 6-8 6-8 5-8 5-8 4-8 3-8 4-17 1-9 0-9-1-8-1-9-2-9-3-9-3-9-4-9-4-9-6-10-5-8-6-8-7-8-7-7-8-7-7-6-9-6-9-4-8-4-9-2-9-3-9 0-10 0-9 0-8 2-10 2-8 3-7 3-7 4-8 4-5 5-5 5-5 6-3 6-2 7"/>
<path d="M8366 -4949l-1 1-1 0-2 1-1 1-1 1-2 2-1 2-2 3-1 2-1 3-1 4-2 5-1 5-2 4-3 12-3 5-2 7-3 6-4 7-2 6-5 7-3 7-5 8-3 5-4 7-4 8-4 7"/>
<path d="M8459 -5112l-1-1 0-1-1-1-1-1 0 0-1-1 0-1 1 0 2-1 1 0 3-1 3 0 4-1 6 0 5-2 8 0 7 0 8 0 7-1 8 0 7-1 8-1 7 1 8 0 6-1 6 0 6-1 5-1 6 0 5-1 4-1 5-1 4-2 4-1 4-2 3-2 4-3 3-2"/>
<path d="M8556 -5204l-1 0-3 1-2 2-1 1-2 2-2 2-3 2 0 1-1 3-1 4-1 3-2 4 0 3 0 4 0 14 1 10 2 12 1 6 1 5 1 7 2 5 1 6 1 7 2 5 1 6 2 6 9 20 3 5 3 5 4 4"/>
<path d="M8718 -5207l 0-1 0 1-1 0-1 1-1 2-1 2 0 14 1 6 1 6 1 8 1 6 1 8 2 9 2 10 2 11 2 11 2 11 2 11 2 12 2 12 2 12 2 12 1 10 2 11 2 11 2 10 4 22 2 10 4 20 1 11 2 10 2 11 1 9"/>
<path d="M574 -4055l 0-1 1-2 0-1 0-1 0-1 2-2 1-1 1-2 1-2 2-1 2-2 2-2 3-1 4-1 2-1 4-1 4-1 8 0 4 1 8 1 5 2 4 1 3 2 4 2 4 2 3 2 3 2 3 4 2 3 3 3 1 4 2 4 1 4 1 5 1 5-1 5-1 5-1 5-2 7-1 6-3 7-3 7-3 7-4 7-4 7-4 7-5 8-4 7-6 7-5 7-4 6-5 7-5 6-4 7-5 5-5 6-8 10-4 4-3 4-4 4-3 3-4 6-2 2-2 1-1 2-1 2-2 2 0-1 1 0 1 0 3 0 2-1 6-2 3 0 4-1 10-3 5-2 6-1 6-3 7-2 7-3 8-4 8-3 9-4 9-4 9-4 20-10 10-6 10-5"/>
<path d="M751 -4114l-1-1 1 0 0-1 1 0 0-1 3-1 1-1 2-1 2 0 3-3 4-1 3-1 5-3 4-2 10-6 6-4 12-6 12-7 10-6 11-6 9-5 8-4 8-3 5-3 5-2 4-1 3-2 4-1 4-2 1 0 2 0-1 1-2 1-1 1-2 0-3 2-3 1-4 2-3 1-4 2-4 2-5 2-2 1-3 2-2 2-3 1-3 2-3 2-3 2-3 2-3 3-4 2-2 2-3 3-3 3-4 2-3 3-3 3-3 3-3 2-3 3-2 3-2 2-2 3-2 3-2 3-2 2-1 3-1 3-1 2 0 3-1 2 0 11 1 3 0 3 2 4 1 2 2 3 2 2 3 4 2 3 3 3 3 3 7 7 8 6 7 5 8 4 8 3 9 3 7 2 7 2 7 1 7 0 8 2 7 0 8 2 6 0 8 3 7 0 6 2 6 0 6 2 5 1 10 3 5 1 3 1 4 2 3 2 3 0 3 2 2 2 2 2 2 3 0 2 1 2 0 5-1 3-1 2-1 4-3 4-3 3-4 4-3 5-15 15-7 5-6 5-8 5-7 5-8 5-8 3-8 4-8 3-7 4-8 3-7 2-8 2-7 2-4 0-4 2-4 0-4 0-8 0-4 0-8-2-4 0-5-2-4-1-4-2-4-1"/>
<path d="M1711 -4220l-1-1 0 0-1 0 0-1-1 0 0 1 1 0 0 2 1 2 0 3 0 3 1 5 1 6 0 6 0 8 0 27 1 10 0 30-1 11 2 11 0 10-1 11 0 31 1 9 1 9-1 9 1 9 2 8 1 6 2 6 2 4 3 4 4 2 4 2"/>
<path d="M1866 -4255l 0-1 1 1 0 0 1-1 1 0 1-1 1-2 2-1 2-1 3-2 4-2 4-2 6-3 5-2 5-3 7-4 6-3 7-4 7-3 6-4 7-3 8-4 6-2 7-2 7-3 5-3 5-2 5-2 3-1 4-1 3 0 1-1 2 0"/>
<path d="M1948 -4290l-4 4-5 4-6 5-6 6-8 6-7 7-8 7-6 6-5 6-4 7-5 6-5 7-4 5-4 6-4 6-3 6-2 5-3 5-2 4 0 4-1 4 0 3 1 3 0 4 1 3 1 2 3 3 2 2 3 3 2 2 3 3 5 2 4 2 4 2 5 2 6 2 6 2 5 1 7 2 6 1 7 1 7 0 8 2 7 2 8 1 8 1 8 2 7 2 7 2 8 2 7 2 7 2 8 2 6 2 6 1 6 2 6 2 6 3 4 1 4 3 4 3 3 2 3 3 3 3 2 3 2 3 2 4 0 3 1 4 0 7-1 4-2 5-1 5-4 5-3 5-5 5-4 6-11 11-7 6-6 6-6 6-7 5-7 5-7 4-6 3-6 5-7 3-6 2-5 2-5 1-5 1-5 1-4 0-3 0-5 0-3-2-3-2-2-3"/>
<path d="M2675 -4235l-1-1-1 0-2-2 0-1-1-2-1-1 1-2 1-1 2-1 2 0 2-2 4-1 4-2 4-2 5-2 5-3 5-2 6-2 6-2 6-2 7 0 5-2 6-1 16 0 5 1 4 2 4 0 4 3 3 2 4 4 1 2 2 3 0 2 1 4-1 2 0 3-1 4-2 5-2 4-3 7-4 5-5 6-5 6-6 8-6 7-7 6-7 7-7 7-7 7-6 7-6 6-7 6-6 7-10 10-3 5-4 5-3 3-2 4-1 4-1 4-1 3 1 3 0 3 2 2 2 3 4 1 4 1 6 0 7-1 9-1 9-2 11-3 11-4"/>
<path d="M2992 -4224l-2 1-2 1-2 3-6 6-4 5-3 4-4 4-3 5-4 5-3 4-3 5-2 5-2 3-1 4 0 4-1 4 0 3 1 4 0 3 2 3 1 3 2 3 5 4 3 3 4 2 3 0 15 0 5 0 5-2 5-3 6-2 6-3 5-2 6-5 10-7 4-4 4-4 3-4 3-4 2-2 1-3 0-4 0-6-1-2-1-3-2-2-2-3-2-3-3-4-4-3-3-3-4-3-4-3-4-3-4-3-4-2-5-3-4-2-4-1-9-3-4-1-4-3-4 0-4-1"/>
<path d="M576 -3436l 0-1-1 0 0-1 0-1 0-3 0-1 2-1 1 0 2-1 8 0 4 1 4 0 4 1 5 0 5 1 5 1 6 1 6 1 6 2 6 1 6 2 6 2 6 2 6 3 6 2 5 3 6 2 5 3 4 3 4 3 4 3 4 3 3 3 3 3 2 3 2 4 1 2 2 4 0 4 1 3-2 9-2 4-1 4-3 5-2 5-3 5-7 10-4 6-4 5-5 6-4 5-3 5-5 5-4 5-4 4-4 5-3 4-4 5-3 5-2 4-3 3-2 4-2 4-2 3-2 3-1 3-1 3-1 2 0 3 0 3 0 2 2 1 1 2 2 2 3 1 2 2 4 0 4 1 5 1 10 0 7-1 8-1 7-2 10-2 9-3 10-3 21-8 13-6 24-10 23-12 23-12 21-12 19-12"/>
<path d="M931 -3502l-1-1-5 0-3 1-4 0 0-1 1 0 0 0 1 0 0-1 0 0 2-1 3 0 2-1 3 0 2-1 3-1 4 0 3-2 3-1 5-1 4-1 4-2 5-1 5-1 5-1 4-1 10-2 4 0 5 0 13 0 4 0 7 0 4 1 2 0 4 1 4 1 1 1 2 1 2 1 1 1 0 1-1 0 0 2-2 1 0 2-1 0-1 2-1 1-2 2-2 2-2 3-3 2-2 3-1 3-2 3-3 3-3 3-3 4-2 4-2 3-2 3-3 4-2 4-1 3-2 4-2 4-2 2-1 3 0 5-1 2 0 5-1 3 0 2 1 3 1 2 2 2 1 2 5 3 4 2 7 3 4 1 5 1 5 2 5 2 7 0 5 1 13 1 7 1 6 1 7 1 7 0 7 1 70 0 6 1 12 0 5 1 5 0 4 1 4 0 3 1 3 1 3 1 1 0 2 1 1 2 1 0 0 2 1 0-1 1 0 2-1 2-1 1-2 3-2 3-3 3-3 4-4 4-5 5-4 5-7 5-5 5-5 5-7 5-6 5-7 5-6 4-6 5-7 4-6 4-7 4-5 4-7 2-6 4-5 3-6 3-6 3-5 2-5 3-5 1-4 2-9 2-2 0"/>
<path d="M1834 -3557l 0 1-1 0 0 2-2 1-1 3 0 4-2 4 0 6 0 6-1 7 0 7-1 8 0 7-1 9 1 9-1 9 0 8 0 10 0 8-1 10 0 10 1 10-1 10-1 10 0 36 1 7 1 7 0 5 2 5 2 5 1 2 2 4 3 1 3 0"/>
<path d="M1995 -3624l 1 0 0-2 1 0 2-1 2-1 3 0 2-2 5-1 5-1 5-1 5-2 5-2 6-1 6-2 6-2 5-1 13-5 7-2 5-1 6-1 5-2 6-1 5-2 4-1 3 0 3 0 5 0 3 0 1 0 1 2 0 1 1 0-1 1-1 0-1 1-2 0-1 0-2 1-3 2-2 0-3 2-4 0-3 3-4 0-4 2-3 1-4 2-4 1-4 1-4 3-3 1-4 2-3 2-3 2-2 2-3 2-2 2-2 3-2 3-1 2-2 3-2 3-2 3 0 4-2 3 0 3-2 3 0 6-1 3 1 4 0 3 1 3 1 4 2 7 2 4 2 3 2 4 2 4 2 4 3 3 4 3 3 3 4 4 4 2 4 2 4 2 5 2 6 2 6 0 5 2 6 0 7 0 7 0 7 1 9 1 42 0 9-1 23 0 7-1 8 0 6 1 6 1 6 1 6 1 6 1 4 2 4 2 4 1 4 3 3 1 3 2 2 2 2 3 1 2 1 2 1 3 1 3 0 3-1 3-2 3-2 5-2 4-3 4-4 5-4 5-5 6-6 6-6 6-6 6-7 6-7 6-8 6-7 5-8 5-9 5-8 4-8 4-8 2-8 3-9 2-7 3-8 1-7 1-6 1-6 1-11 0-5-1-6-1-5-1-6-1-5-1-5-2"/>
<path d="M526 -2654l 0-1 1 0 0-1 0-1 0-1 3-2 0-1 2-1 0-1 3-2 2-1 2-2 3-1 3-2 4-2 3-1 5-2 5-1 5-2 5-1 5-2 6-1 7-2 5 0 7-2 5-1 7 0 6 0 10 0 10 1 5 1 4 1 3 2 3 2 3 2 2 2 2 3 1 4 1 3 0 4-1 5-1 5-1 6-2 6-2 6-3 7-4 7-3 8-5 8-4 7-5 9-5 9-6 8-5 9-5 9-5 9-5 10-5 8-5 9-5 9-5 8-4 8-3 8-3 8-3 7-3 7-3 13-1 5-1 5 0 9 1 4 0 4 2 3 2 3 3 3 3 2 5 2 5 0 5 1 13 0 8-1 9-1 10-3 10-4"/>
<path d="M892 -2669l 1-1 0-2 0-1 3-2 1-3 2-2 4-2 3-2 5-4 5-2 5-4 6-4 6-4 5-3 6-5 6-3 6-3 6-3 5-3 6-2 5-3 5-2 6-2 4-2 10-3 4-2 4-1 3-1 3 0 2-1 4 0 0 1 0 0-2 1 0 1-2 0-2 1-3 2-3 2-3 2-4 2-3 3-5 3-5 3-4 5-4 5-5 3-9 10-5 6-4 6-4 6-5 5-8 11-3 5-3 6-3 5-2 5-1 4-2 5-1 8 0 3 0 3 0 3 2 3 1 2 3 2 2 3 3 1 4 2 3 2 5 2 3 1 5 2 5 1 6 1 6 1 7 1 6 1 7 1 15 1 7 1 8 0 7 1 8 1 7 1 8 1 7 1 8 2 6 1 7 2 6 1 5 2 4 2 4 1 4 2 3 2 2 1 1 1 2 1 1 2 0 3-1 2-2 3-1 2-3 3-2 3-4 2-3 5-4 4-6 4-6 4-6 5-7 5-7 5-8 5-7 5-8 4-7 4-8 4-8 3-7 3-8 2-8 3-7 1-7 2-6 1-7 1-12 0-6-1-5-2"/>
<path d="M1596 -2671l 1 1 0 1 2 1 1 1 2 2 3 4 2 4 3 4 3 5 2 6 3 6 2 7 2 7 3 9 1 8 1 10 1 9 1 9 0 10 1 10 0 21 0 11 1 10 0 20 1 10 0 9 1 9 2 7 0 5 2 5 2 5 3 3"/>
<path d="M1809 -2766l 1-1 0 0 0-1 0-2 3 0 1-2 3 0 3-1 3-1 5-2 5-2 6-3 6-3 6-3 5-3 6-3 6-4 6-3 5-2 5-3 4-2 4-3 3-1 3-1 1-1 1 0"/>
<path d="M1839 -2763l-1 2-3 2-2 4-3 3-3 3-4 5-3 5-2 4-1 3-2 5-1 3-1 4 0 3 1 4 0 4 1 3 1 4 1 3 1 4 2 3 2 4 3 3 2 3 3 3 3 2 7 6 4 2 4 3 3 2 4 2 5 3 5 2 4 1 6 2 5 1 5 1 5 1 6 1 6 1 6 0 7 2 6 1 7 1 6 1 6 1 5 1 5 1 4 2 5 1 4 1 3 2 4 1 3 2 2 2 3 3 2 1 2 2 1 2 2 3 0 2 2 2 1 1 0 2 0 5 0 2-1 3-2 3-1 3-2 3-3 4-4 5-5 3-4 4-5 3-6 5-6 4-6 4-13 9-7 3-8 4-7 3-7 3-6 2-7 3-7 2-7 1-6 2-6 0-19 0-5 1-6-1"/>
<path d="M2686 -2759l 1-1 2 0 2-1 3-1 3 0 5-1 12 0 6 1 15 0 7 1 8 1 7 0 7 2 6 0 7 2 5 1 6 1 4 1 5 2 3 1 3 2 3 1 4 4 0 2 2 2 0 2 1 2 0 5 1 2-1 3-1 3-1 3-1 3-2 3-2 5-2 4-3 4-2 5-4 5-3 5-2 5-4 4-4 5-10 15-5 6-3 5-4 7-4 5-4 7-4 6-3 7-4 6-4 6-2 6-4 6-3 6-3 5-2 6-2 4-1 5-1 5 0 5-1 3 1 3 0 4 1 2 1 2 2 2 2 2 2 1 4 1 9 0 6 1 7 0 7-1 10-2 9-3 11-5 12-3 13-6 14-6 15-7 15-8 16-7"/>
<path d="M3034 -2717l-4 1-4 2-5 3-5 3-6 3-5 4-6 4-4 4-3 3-3 4-2 3-2 4-2 3-1 3-1 4 0 7 1 4 1 3 1 4 3 3 2 3 3 4 3 3 3 2 3 3 4 2 5 3 5 2 5 2 5 1 6 1 7 1 7 0 7 0 8 0 7-2 8-2 9-1 8-3 8-3 8-4 8-3 8-4 7-4 7-4 5-5 5-5 5-5 3-5 3-4 2-4 2-4 1-5 0-8-1-4-1-3-2-5-2-3-3-4-2-4-3-3-4-4-3-3-4-4-4-5-4-5-5-4-4-4-4-5-4-3-4-4-3-4-4-2-3-4-2-3"/>
<path d="M6147 -2944l 4-1 5 0 6-1 24 0 10 1 19 2 9 3 9 2 10 3 9 3 8 4 8 3 7 4 6 3 5 5 5 4 5 4 2 3 3 4 2 3 1 5 0 4-1 4-2 4-3 5-4 5-4 7-7 6-7 6-8 7-10 8-10 7-10 7-10 8-10 7-11 8-10 7-11 7-9 8-10 7-9 8-10 7-8 6-8 7-6 6-7 6-5 5-3 5-4 4-2 4-2 3-1 4 0 3 1 2 0 3 3 3 2 2 4 2 5 3 5 1 6 2 8 1 7 1 20 0 10-1 12-1 13-1 13-1 14-2 14-2 15-2 15-3 16-2 16-3 16-4 16-3"/>
<path d="M6498 -2800l-4-1-5 1-6 0-13 1-7 1-6 1-6 1-4 2-3 2-4 1-3 2-3 3-2 2-2 1-2 2-1 2-1 3-2 1 0 2 0 3 0 2 0 3 1 3 1 3 1 3 1 2 1 3 3 3 2 3 2 4 3 2 3 4 3 2 4 3 4 3 4 1 6 2 4 3 6 2 7 1 7 1 7 1 15 0 7-1 7-1 6-2 7-1 11-5 5-3 5-2 4-3 4-3 3-4 2-3 2-3 2-4 1-3 1-3 0-10-2-3 0-4-5-7-2-4-3-4-4-5-3-5-5-3-3-4-5-5-12-10-5-3-3-4-5-3-3-3-4-2-3-3-4-2-3-1"/>
<path d="M7248 -2930l 0 2 1 2 0 1 1 3 1 1 1 2 1 3 1 3 1 3 1 4 1 3 1 4 1 4 1 4 2 5 1 5 1 4 1 6 2 5 2 5 1 5 2 6 1 6 1 7 2 7 1 7 1 7 1 8 0 9 1 8 1 7 1 9 1 7 1 8 0 8 2 6 1 7 1 5 1 6 2 5 2 4 1 4 1 3 2 2 1 2 1 2 2 1 1 1 1 2 1 0 1 1 0 0 2 0 0 0 0 0 1-2 0-1"/>
<path d="M7111 -2935l-1-1 0-1 0-2 0-8 2-2 2-2 2-1 3-2 3-1 5-1 4-3 11-2 7-2 7-1 7-1 7 1 7 0 8 0 8 0 8 2 8 1 7 1 8 2 8 2 8 2 7 2 8 3 7 3 7 3 7 4 6 4 6 4 7 5 5 4 5 5 5 4 4 5 3 5 4 5 3 5 3 6 2 6 2 5 1 6 2 6 1 6 0 12-1 7-2 6-1 7-2 6-3 6-3 7-3 6-5 7-4 5-5 5-5 5-6 6-5 5-6 4-5 5-10 9-3 4-4 3-3 3-2 3-2 2-1 1-1 2 0 1-1 0 0 0 1 0 0 0 1 0 3-2 2-1 3 0 3-2 5-1 5-2 7-2 7-2 8-2 8-2 7-3 8-2 9-2 8-2 9-3 9-2 10-2 9-2 11-3 10-2 11-2 11-3 11-2 12-3 10-3 12-2 10-2 12-3 11-4 12-2 13-3"/>
<path d="M7700 -3047l 2 0 3-1 4-2 4-2 6-2 8-4 8-2 10-3 11-3 10-2 13-3 12-2 13-3 12-2 13-1 13-2 13-2 11-2 13-1 11-2 11-1 10 0 8-1 9-1 8 0 6-1 6 0"/>
<path d="M7794 -3054l-4 1-5 3-6 2-6 3-8 2-7 4-8 4-5 2-5 4-4 3-4 3-4 3-3 4-2 2-3 4-2 2-1 4-1 3-1 3 0 3 0 6 0 4 1 2 2 3 1 2 2 3 2 5 5 5 3 2 4 3 4 2 6 3 5 1 7 1 6 2 8 1 9 2 10 0 9 1 11 0 10 1 12-1 11 1 36 0 11 1 11-1 10 1 11 2 9 1 9 1 8 2 8 1 7 3 7 2 8 3 5 2 7 1 5 4 5 2 4 3 4 2 4 2 2 3 2 3 2 2 2 3 0 3 1 2 0 6-1 3-1 3-1 3-3 4-3 4-4 3-5 4-5 3-6 4-7 3-7 3-6 5-8 2-9 4-8 3-9 3-10 3-9 2-11 2-11 3-12 1-11 2-11 0-13 1-22 1-11 0-21 0-9-2-10 0-9-3-9-1-9-2-8-3"/>
<path d="M2651 -3564l-1-1 0-3 0-2 0-1 1-1 2-1 3-1 4-1 4-3 6-1 6-2 7-2 8-2 9-3 8-2 9-2 8-1 9-2 9 0 9-2 8 0 8-1 16 0 6 1 7 1 5 1 5 1 5 2 5 2 3 2 2 3 3 3 2 4 0 4 1 4-1 5 0 6-2 6-3 7-4 7-4 7-5 9-6 8-6 9-7 8-6 9-7 8-8 8-7 8-7 8-7 8-7 7-6 8-7 8-5 8-5 6-5 7-3 6-4 6-3 5-2 4-1 4-1 3 0 7 1 2 1 3 2 2 2 3 3 1 4 1 10 3 6 1 16 0 8-1 10-1 9-2 11-2 10-3 12-4 11-3 13-5 13-5"/>
<path d="M3024 -3522l-1 0-3 1-2 1-4 1-4 2-5 3-5 3-5 4-4 4-4 3-9 9-7 10-3 5-3 5-3 5-2 5-2 5 0 5-2 5 0 5 1 5 1 5 1 5 2 4 2 4 3 5 4 4 8 7 5 3 5 2 6 2 6 2 7-1 7 0 8-1 7-1 8-1 8-2 8-3 7-3 8-3 8-5 8-4 7-6 7-5 13-11 10-13 4-7 4-7 3-6 2-7 2-7 1-6 1-6 0-6-1-5-2-6-2-6-3-5-3-5-9-10-5-5-11-9-6-3-6-4-7-3-6-2-7-1-7-2-7-1-7 0-8 1-7 2-7 2-8 3-8 5-6 4-7 5-8 5"/>
<path d="M3600 -3604l-1-1 0 0-2-1-1 0-1-1-1-1 0 0 0 3 1 0 1 2 1 2 2 3 1 3 2 5 2 5 2 5 3 7 2 7 3 7 2 9 1 8 2 9 1 11 1 11 0 11 0 25 0 14-1 15-1 14-2 15-2 16-1 16-3 15-2 14-2 14-1 12-1 12-1 12 0 9 0 8 0 7 2 5 2 4 3 3"/>
<path d="M3841 -3664l-4 4-4 3-3 4-5 5-10 11-4 8-4 7-4 7-4 9-4 8-4 10-4 9-4 9-3 8-5 9-3 10-3 8-4 9-3 8-2 7-2 7-1 6-2 6 0 5 0 4 0 5 2 4 1 3 2 1 3 3 4 2 5 1 5 1 5 0 8 0 17 0 10-2 10 0 11-3 11-2 12-3 13-2 12-3 13-4 13-3 13-5 14-4 13-4 13-3 13-5 13-4 12-4 12-4 12-4 11-3 11-5 10-4 10-4 8-5 9-5"/>
<path d="M3957 -3637l-2 2-3 2-3 4-3 4-4 5-4 7-2 7-2 8-1 7-1 10 0 19 1 11 1 11 2 12 1 12 2 12 2 12 2 14 3 12 2 13 3 13 4 14 3 14 3 14 3 15 4 14 13 43 6 14 6 14"/>
<path d="M3628 -4419l-1-1-1 0-2-1-2 0 0 2 0 4 0 4 0 17 1 8 1 17 1 10 1 10 1 11 0 10 2 12 1 11 1 11 1 11 0 11 1 12 1 10 0 35-1 12-1 12-1 12-1 11-1 12-1 11-1 10-1 10 0 10-1 8 1 8 0 6 1 6 1 5"/>
<path d="M3873 -4406l-1 2-3 3-2 4-3 4-4 6-4 7-4 7-5 8-4 9-9 20-5 10-4 11-5 11-4 11-9 20-3 10-5 9-2 9-4 8-4 7-2 9-2 9-2 7-1 8-2 6 0 11 2 5 0 4 2 3 3 3 2 1 4 2 3 2 4 1 4 1 6 1 14 0 8-1 9-1 9-2 10-1 10-2 12-3 11-3 11-2 12-4 12-4 12-4 12-4 13-4 12-5 12-5 23-10 11-4 11-5 18-10 8-5 8-5 7-5"/>
<path d="M3993 -4330l-2 1-2 2-3 3-4 3-3 4-5 5-3 6-3 5-3 6-2 6-1 7-1 7-2 7 0 24 2 19 1 9 2 10 1 10 2 10 2 10 2 11 2 10 3 10 3 9 3 10 5 10 4 11 5 11 5 10 6 10"/>
<path d="M3786 -2990l-1-2-1-2-2-2 0-3-2-2-1-2-1-1 0-2-1 0 0 2 1 0 0 2 2 6 0 3 1 5 1 7 0 7 0 8 0 19 0 11-1 10 0 12-1 13 0 12-2 14-1 14-1 14-1 13-2 15-3 30-1 14-1 14-1 14-1 13 0 28 1 12 0 11 1 11 2 11 1 8 1 7 3 7 2 3 3 4 2 3 3 1 3-2 4-1"/>
<path d="M3996 -2980l-3 3-3 3-5 5-5 6-6 7-6 7-6 8-5 7-3 8-4 7-3 7-3 6-3 7-3 6-1 7-2 7-3 8-2 7-1 8-2 7-1 8-1 7 0 8-1 6 0 6 1 7 1 5 1 5 2 4 2 4 3 4 3 3 4 3 4 2 6 2 6 1 8 2 7 1 10 0 9 0 10 0 11-1 10-2 12-1 11-3 12-1 11-3 12-3 12-3 11-3 11-3 11-3 10-4 10-3 9-4 9-3 8-4 8-6"/>
<path d="M4097 -2939l-3 1-6 7-5 4-4 5-6 7-4 7-3 8-4 8-3 8-3 9-1 10-2 10-1 11-1 11 0 10 1 12 1 11 0 12 2 12 2 11 2 12 3 11 3 12 3 12 4 12 4 11 5 11 5 12 6 12 6 11"/>
<path d="M4917 -2874l 0-1-1-2 0-1 0-1 0-1-1-1 0-1 1-1 0 0 1 0 2 0 2 0 4 1 4 0 5 2 5 0 7 1 7 2 8 2 7 1 8 1 7 3 8 2 8 1 8 3 8 1 8 3 7 2 6 4 7 2 6 2 6 2 4 3 4 2 4 1 3 2 3 2 2 3 1 2 1 2 1 3 0 2-1 3-1 3-1 3-2 4-3 4-4 4-9 10-5 5-6 6-8 6-7 6-7 6-7 6-8 7-7 6-7 7-7 6-7 6-5 5-5 7-5 5-5 6-4 5-3 5-3 4-2 4-1 4-1 4-1 3 0 3 1 3 1 2 1 3 2 2 3 2 3 2 4 2 5 2 5 1 7 1 7 1 8 1 8-1 10-1 10-2 12-1 11-3 12-4 12-4 13-4 13-5 14-6 13-6 12-5 13-6 13-6"/>
<path d="M5266 -2911l-1 0-3 1-1 2-2 1-2 2-2 1 0 3-2 2-1 4-1 4-1 4 0 5 0 17 0 8 2 16 0 9 3 18 2 10 1 11 2 10 0 10 2 11 3 20 2 9 2 10 2 11 2 10 2 10 3 10 3 9 3 11 3 10 3 10 4 8 4 9 4 9"/>
<path d="M4862 -4369l 0-4-1-2 0-12 1-2 1-2 2-2 1-2 2-1 3-2 3-2 4-2 4-1 5-2 6-1 11-3 7-1 5 0 7-1 6 0 7-1 32 0 6 1 6-1 6 1 5 1 5 1 5 1 5 1 3 2 4 0 3 3 2 2 3 1 1 2 1 2 0 2-1 3-1 4-1 3-3 4-3 5-3 6-5 6-5 7-6 9-7 8-7 10-6 9-7 9-8 10-8 10-24 23-7 9-8 8-7 8-8 8-7 8-6 7-6 9-5 7-3 5-3 6-3 5-2 4 0 5-1 3 1 2 0 3 1 2 2 2 2 1 2 1 3 1 4 0 5 0 5 0 6 0 8-1 8-1 19-5 10-3 10-3 10-3 23-9 12-5 12-4 11-4 12-5 12-5 12-4 11-5 13-5 11-4"/>
<path d="M5198 -4436l-1-1-1 0-1 1-1 0 0 23 0 5 0 6 1 5 1 8 1 7 0 7 1 9 1 9 2 20 1 10 2 10 0 12 2 11 1 12 2 12 1 11 2 12 1 12 2 13 2 12 1 12 1 12 3 13 1 12 1 13 2 11 1 12 2 12 3 10"/>
<path d="M4831 -3629l 0-1 1-1 1-1 2-1 2-1 4-1 4-1 6-2 6 0 16-3 9-2 10-2 10-2 10-2 11-1 11-1 10-2 21-3 11-1 10-1 10 0 10-1 17-1 8 0 7 1 7 1 5 2 5 1 4 2 3 3 2 3 1 2 1 2 0 4-1 4-2 4-2 4-4 5-4 7-5 6-6 8-7 7-8 8-25 26-10 7-9 10-9 8-9 8-10 8-8 7-9 7-7 7-7 5-6 6-6 7-6 5-5 5-4 5-5 4-4 5-3 4-4 4-2 3-2 4-1 3 0 7 1 3 1 3 2 3 2 4 4 3 4 2 4 2 5 2 5 2 7 1 7 1 8 0 9-2 9-1 10-2 11-3 12-3 12-4 13-5 13-5 12-3 15-7 13-5"/>
<path d="M5266 -3713l-2 3-3 3-3 5-3 5-5 7-3 8-3 10-3 10-1 11-1 12 0 24 1 13 1 14 1 14 3 13 2 14 3 13 3 13 4 13 3 12 5 13 4 12 4 12 5 12 5 13 6 12 6 12 7 11 7 12 7 11 7 11"/>
<path d="M6051 -4271l 0-2 1-2 1-2 2-3 1-3 2-3 3-3 4-3 3-2 4-2 12-4 6-2 6-2 7-1 7-2 7-1 6-2 7 0 6-1 6-1 7 0 6 0 7 0 5 0 6 2 10 3 4 2 5 2 3 2 3 4 3 2 1 3 3 3 1 4 1 3 0 5 0 5 0 5-2 5-2 5-3 6-3 6-5 6-5 7-6 5-7 7-7 6-8 7-8 7-9 8-8 7-9 8-9 7-9 8-7 7-8 8-8 5-8 7-6 7-8 7-5 6-5 7-4 6-3 6-3 6-1 4-1 4 1 4 2 3 3 3 4 1 5 1 7 2 8 1 8-1 11-2 11-1 14-4 13-4 15-4 17-7"/>
<path d="M6459 -4286l-4 3-6 3-6 5-7 5-8 6-8 8-8 8-7 8-6 8-5 7-4 8-5 8-2 7-2 7-1 5 1 6 1 5 2 5 3 5 3 4 5 3 4 4 5 3 6 2 5 2 7 1 7 0 7 1 7 0 8-1 8-1 9-2 9-3 8-3 9-4 9-4 8-5 9-5 8-6 7-7 8-6 6-6 6-7 5-7 5-7 4-7 3-7 3-8 2-7 1-6 0-7 0-6-2-6-3-5-3-5-5-6-5-5-7-5-7-4-8-5-9-4-10-4-11-2-10-1-13-1-12 1-11 1-13 2-13 3-13 5-13 4-13 6-13 6-12 7"/>
<path d="M6061 -3796l-1 0 1 0 1-1 3-1 3-1 4-1 5-2 6-3 7-2 8-4 8-4 9-3 9-3 8-4 10-2 8-3 9-3 9-2 8-2 8-2 8-1 7-1 7-1 6 0 15 0 4 0 3 1 3 2 2 2 1 1 1 3 1 3-1 4-1 4-1 5-2 6-3 6-4 7-4 7-5 6-6 7-5 8-6 8-6 7-7 8-6 7-7 8-7 7-7 8-7 9-6 8-6 7-7 8-6 8-5 8-10 16-5 7-3 6-2 7-2 6-2 5 0 5 1 3 1 4 2 3 2 3 3 2 4 2 10 1 6 0 8-1 8-3 9-3 10-4 11-5 12-5 12-6 13-6"/>
<path d="M6404 -3781l-3 2-4 3-10 7-6 4-6 6-7 6-5 6-5 5-3 7-4 5-3 7-2 6-2 6-1 6-1 5-1 5 1 5 0 3 1 4 2 3 2 4 3 4 3 2 3 3 4 2 4 3 4 2 5 1 6 2 5 0 6 0 5 0 6 0 7-1 5-1 6-1 6-2 5-3 6-4 6-3 6-2 5-4 5-3 4-4 4-4 4-3 3-5 2-4 2-6 1-8 0-5-1-4-2-5-2-5-3-4-2-4-4-4-4-4-5-4-10-7-5-3-7-3-5-3-7-3-7-3-7-2-7-2"/>
<path d="M9358 -4300l 1 0 0 1 6 0 3-2 4-1 4 0 4-1 6-1 6 1 7-1 7-1 7 0 9-2 8-2 9-2 8-3 10-2 9-3 9-3 10-3 9-3 10-3 8-3"/>
<path d="M9611 -4428l 0-1-1 0 0-1 0-2 0-1 2-1 3-1 3-2 4-3 4-3 6-4 5-3 15-7 8-4 7-4 8-3 8-4 9-2 8-2 7-1 8-2 7-2 5-1 5-1 10 0 3-1 7 0 1 2-1 0-1 1-1 2-3 1-2 2-4 2-4 2-3 1-4 3-5 4-5 3-5 4-6 3-6 5-6 4-5 5-7 5-5 5-12 10-6 4-5 5-5 6-5 4-5 5-4 5-4 5-4 4-3 4-4 4-2 4-2 6-2 2-1 3 0 5 2 2 2 0 2 0 2 2 3 1 3 2 3 1 4 1 5 1 5 1 5 1 5 0 5 1 6 1 12 1 6 2 6 0 7 1 6 2 6 2 6 2 5 3 6 3 6 2 5 4 5 4 5 3 5 4 4 4 4 1 3 5 3 4 2 4 2 4 2 5 1 4 0 4 0 6 0 5-2 5-2 4-2 5-4 5-3 5-5 5-5 5-6 5-6 4-6 5-16 10-8 4-9 5-9 4-9 4-9 4-9 3-8 3-8 3-9 1-7 3"/>
<path d="M9367 -3677l 0 1 1 2 0 2 1 1 2 2 2 1 5 5 5 2 5 2 5 1 7 1 7 1 7 1 9 1 18 0 20-2 10-1 10-1 10-3 11-1 10-3 11-2 9-3 10-2 9-3"/>
<path d="M9631 -3805l-1 0 0 1 0-2 2 1 0-1 5-1 3-2 4-1 4-1 6-3 6-2 7-1 7-3 8-3 8-3 8-3 8-5 9-3 7-4 8-3 7-4 5-3 7-3 5-2 4-2 4-3 4-2 3-2 2-1 1-2 2-1 0 0 1-1-2 0-1 1-2 0-3 1-2 1-3 1-2 2-4 2-4 2-3 3-4 3-5 2-3 3-5 2-4 3-4 3-4 2-4 4-4 1-5 4-3 4-3 3-4 4-3 4-4 3-3 3-2 5-3 3-3 4-2 3-2 3-3 4-2 3-1 3-2 3 0 3-2 6 0 7 1 2 1 3 0 3 1 3 2 2 2 3 3 3 2 2 4 3 4 2 5 2 5 3 5 2 6 2 6 1 7 2 6 2 7 1 6 1 7 1 7 1 7 1 21 2 7 1 8 0 6 1 7 1 13 1 7 2 7 0 6 3 6 1 6 1 5 1 5 3 4 2 5 2 3 2 4 1 3 2 2 3 2 2 2 3 1 2 1 3 1 3 1 4 0 7-1 3-1 5-1 4-2 3-3 5-2 4-4 4-4 5-5 3-6 4-6 5-6 4-6 4-22 10-8 3-7 3-7 2-8 2-14 2-7 2-7 1-19 0-6-1-6-1-7-1-5-2-7-3-5-2-6-3-5-4"/>
<path d="M7276 -4351l-1-1-2-2-2-1-2-2-2-2-2-2-2-2-1-2 0-1-1-1-1-3-1-1 0-4 1 0 0-1 2 0 2-1 25 0 6 1 5 1 7 0 6 1 6 2 6 0 6 2 6 2 5 2 6 3 5 2 5 3 5 3 4 3 4 3 4 4 3 3 2 4 3 4 2 4 2 5 0 5 1 5 0 10-1 5-2 6-3 6-2 6-4 6-4 6-5 5-5 7-5 6-12 11-5 6-7 5-6 6-6 6-6 5-8 5-5 5-6 6-6 5-6 5-10 10-7 9-3 3-3 3-2 3-2 2 0 3-1 3 0 2 1 2 0 2 2 3 2 1 3 1 3 2 5-1 5 1 6 1 7 0 8-2 9-1 10-2 10-3 10-3 11-4 12-4 12-4 12-4 12-4 13-4 13-3 12-5 13-5 12-4 13-4 12-5"/>
<path d="M7562 -4380l-1-1-1-1-1-1-1-3-1-1 0-2 1 0 2-2 2-1 3-2 4-2 4-2 6-2 6-2 6-3 7-3 6-2 7-3 7-2 6-2 7-2 5-2 5-2 5-1 5-1 4-1 6 0 2 0 5 0 0 1-2 2-2 2-2 2-4 1-2 3-5 2-6 4-6 4-6 4-6 3-7 4-6 4-6 4-6 4-6 4-5 4-10 8-5 5-5 4-5 4-3 3-4 4-3 4-3 3-2 3-1 3-1 2-1 2 1 3 0 0 3 3 2 2 2 1 7 1 5 1 11 0 7-1 7 0 8 0 7-1 9-1 9-1 8 0 9-1 26 0 8 2 7 0 8 2 8 3 7 1 7 3 7 3 7 3 7 2 6 4 6 3 6 3 5 5 5 4 3 4 3 4 2 5 2 4 0 4 0 5 0 5-2 5-2 6-7 10-4 6-5 5-5 6-7 5-6 5-7 6-8 6-7 7-8 6-9 5-9 5-9 7-10 5-10 5-10 5-10 5-10 4"/>
<path d="M7278 -3839l 1-1 0-3 2-2 1-3 2-2 4-5 4-3 6-4 6-3 7-3 7-5 8-2 8-4 9-2 9-4 9-2 9-2 9-2 9-2 9 0 9-1 8-1 8 1 7 0 6 1 6 1 5 2 4 2 4 2 3 3 2 3 3 2 1 4 1 4 1 5-1 5 0 6-2 6-2 6-3 7-4 8-5 7-6 7-6 8-7 8-8 7-8 7-7 8-8 7-9 8-7 7-8 7-7 8-15 14-7 6-6 8-6 6-6 5-5 6-5 5-4 5-4 5-2 4-3 4-2 4-1 3-1 3-1 4 1 3 1 3 1 3 1 3 2 3 2 3 4 2 3 2 3 1 5 2 5 1 5 1 5 0 7 1 8-1 7 0 9-1 9-1 10-2 11-2 11-3 11-4 12-3 11-5 11-5 12-5 12-5 12-5 12-5 12-4 13-6"/>
<path d="M7630 -3827l-1-1-2 0-2-1-1-2-2 0-1-1-1-1 0-1 1 0 2-1 1-1 3-1 4-2 4-2 5-3 5-2 6-4 6-3 7-3 5-5 6-3 6-4 6-3 5-2 5-2 4-1 5-2 3-2 2-1 3-2 2 0 2-1 1-2 1 0 0 0 0 0"/>
<path d="M7688 -3859l-2 2-3 4-4 3-4 5-4 5-4 5-5 5-5 5-3 4-4 5-3 4-4 4-3 5-3 4-3 4-3 4-3 4-3 4-2 4-1 3-2 3-1 3-1 2-1 3 0 5 1 1 0 2 1 2 1 2 2 3 2 1 2 1 2 2 3 1 3 1 4 1 4 0 5 0 5 1 6 1 13 0 8 1 8-1 7-1 9-1 8 0 9-1 9-1 9 0 9 0 8-1 50 0 7 1 7 0 8 2 5 1 6 2 6 1 5 3 5 2 5 3 5 3 4 3 3 4 3 4 2 4 1 4 1 4 0 5-1 5-1 5-3 5-2 5-4 5-5 5-5 6-5 6-5 6-6 6-7 6-7 5-8 5-7 5-8 3-9 4-9 4-9 4-9 2-9 4-9 2-9 2-9 2-8 2-8 1-8-1-8 0-8-2-7-1-7-3"/>
<path d="M8441 -4379l 0-2-1-4-1-3-1-2-1-3 0-4 1-1 2-2 1-1 2-2 3-1 4-1 8-5 6-2 6-1 7-3 7-2 8-2 9-3 9-3 10-2 10-3 11-4 11-2 11-3 12-4 12-4 10-5 13-3 12-4 11-5 12-5 12-4 10-3 10-4 10-3 18-7 7-3 6-2"/>
<path d="M8545 -4406l-4 1-4 2-5 3-5 3-5 2-6 4-6 3-4 3-4 3-3 4-4 3-3 4-3 4-3 4-2 5-2 3-3 6-3 5-2 5-1 4-2 5-2 5-2 6-1 5-1 4-2 15 0 10 1 5 0 3 2 5 1 4 2 3 2 3 3 2 3 3 4 2 4 2 5 1 6 2 6 0 22 0 8 0 9 0 10-2 10-2 10-3 11-1 11-2 11-2 12-3 11-2 12-3 12-2 11-2 12-1 11-2 21-3 10 0 8 0 7 0 8 1 5 1 5 1 3 2 3 3 2 2 1 3 1 2-1 4-2 4-2 4-3 4-5 5-5 5-7 7-8 6-9 6-10 7-11 7-11 6-11 7-11 7-11 6-11 5-11 5-10 5-10 4-10 3-9 3-10 2-8 3-9 2-9 1-8 2-8 0-7 1-8 2-7 1-6 0-6 1-6-1-4-1-4 1-4-1-3 1-2-1-4 0-2 2"/>
<path d="M8569 -3840l-4-4-2-2-1-2-1-1-1-2 0 0 0 0 1-1 2 0 1-1 4-1 3 0 6 0 6-2 8-1 9-2 9-1 9-2 11-3 11-3 10-3 11-3 11-2 11-3 10-2 11-3 10-4 9-3 10-3 7-5 8-3 7-4 7-3"/>
<path d="M8633 -3873l-2 0-3 1-2 1-4 2-3 2-3 2-4 2-2 4-1 2-2 3-2 4-2 3-1 5-2 4-2 4-1 5-2 4-2 5-1 4-2 5-1 5-1 5-1 4 0 5-1 5-1 5 0 11 1 4 1 3 1 4 1 3 2 3 2 2 3 3 3 2 4 3 5 2 6 3 5 2 7 2 7 2 8 1 8 2 10 1 9 0 11 1 10-1 10 0 11 0 11 0 10 0 11 0 21 0 11 1 10 1 10-1 9 1 9 1 9 1 7 1 7 2 7 2 5 1 6 3 4 3 5 2 3 3 3 2 2 3 2 3 2 3 0 3 1 3 0 7-1 4-1 5-2 4-3 4-3 5-4 6-5 4-6 6-7 6-7 6-8 5-9 6-9 5-9 5-10 6-10 5-11 5-10 4-11 4-10 4-10 3-10 3-10 3-10 2-10 2-10 1-10 2-9 0-9 0-9 0-9-2-9-2-8-2-7-3-7-4"/>
<path d="M9021 -4416l 1-1 0-5-1 0 0 1-1 1 0 16 0 4-1 5 0 5-2 5 0 6 0 6-1 6-1 7 0 7-1 6 0 25 1 5 1 5 1 4 2 3 2 4 2 4 2 2 3 4 3 2 3 2 3 1 4 1 4 0 4 0 5 0 4-2 6-3 6-2 5-4 5-4 6-5 6-5 6-7 6-6 6-7 5-8 5-7 5-8 4-8 3-7 3-7 2-7 2-7 1-6 0-7 0-5 0-6-2-6-2-6-2-5-4-5-3-5-4-5-5-4-5-4-6-3-5-4-6-2-6-2-6-2-20 0-7 1-6 3-6 2-6 3-6 4-6 4-5 6-5 6-5 6-5 7-4 8-3 6-4 9-1 9-3 9"/>
<path d="M9122 -3770l-1-1-2-1-1-1-2-1-2-1-2-1-2-1-2-1-4 0-3 2-1 0-2 2-2 1-3 3-2 4-3 4-2 4-4 7-3 5-3 7-5 18-3 8-2 9-3 8-2 9 0 8-1 8-1 6 0 8 1 6 1 7 2 5 2 6 2 5 3 4 3 5 3 3 4 3 4 2 4 3 6 2 5 0 13 2 7 0 7-1 7-1 8-2 7-2 8-3 8-2 7-4 7-4 7-3 6-5 6-6 6-5 4-6 5-6 4-5 4-6 3-6 2-6 1-6 2-7 1-6 0-13-1-7-1-6-2-7-2-6-3-6-3-6-4-6-4-6-4-6-4-6-5-5-5-5-5-4-5-4-4-2-4-3-5-2-3-1-4 0-3 1-4 0-3 2-5 3-3 3-4 4-4 5"/>
<path d="M1346 6260l-1-1 0-2-1-2-1-1-1-3-2-1-1-2-2-2-2 0-1-1 0 1-1 0-1 1 0 1 0 1-1 2-1 3-1 4-2 4 0 4-2 6 0 6-2 6-1 7 0 7 0 21 0 7 1 8 2 6 1 7 2 7 2 7 3 5 4 7 3 6 5 6 4 5 6 5 7 5 6 4 7 3 15 6 8 1 9 2 27 0 9-2 10-1 10-3 10-1 9-3 10-5 9-4 9-4 9-5 8-6 8-6 7-6 8-6 6-6 6-7 7-6 6-6 5-8 4-7 4-6 4-7 3-6 2-6 3-6 1-6 1-5 1-5 0-4-1-5 0-4-2-5-2-5-2-4-4-4-3-4-5-4-5-4-6-3-6-4-6-3-6-3-8-3-7-2-8-3-8-2-9-2-9-1-9-1-30 0-10 2-9 0-9 2-9 3-8 4-7 3-6 3-7 4-6 3-5 4-5 4-4 4-2 3"/>
<path d="M2074 6204l-1-1-3 0-2 0-3 0-2-1-3 0-3 1-6 0-2 0-1 0-3 1-5 0-2 1-3 1-2 1-3 1-2 1-3 1-2 2-3 1-4 2-3 2-3 2-4 3-3 2-5 4-3 3-5 4-4 4-3 6-5 5-3 6-5 7-3 6-4 7-3 8-3 7-4 8-3 9-2 8-1 8-2 8 0 8 0 16 0 8 1 7 2 7 2 7 4 6 3 6 3 5 5 5 5 3 5 4 5 4 11 4 7 2 6 1 6 0 15 0 8-1 7-1 8-3 7-2 8-2 8-3 8-3 8-4 7-4 7-4 8-5 7-4 8-5 7-5 7-6 6-5 7-6 7-7 7-5 6-7 7-8 7-8 5-8 6-9 5-7 5-9 4-8 5-8 3-8 2-7 2-7 1-7 1-6 1-6 0-6-2-6 0-6-3-5-2-6-3-5-4-5-4-5-5-5-6-5-6-3-7-4-7-3-7-3-8-3-8-2-8-1-7-1-8 0-17 0-7 0-8 2-7 1-6 2-7 2-5 2-7 3-5 3-6 4-5 3-4 5"/>
<path d="M2623 6161l 0-1-1 0 0 0-2-1-1-2-1 0 0-1 0 1-1 0 1 1-1 0 1 0 0-1-1 0 1 0 0-1 0 1 1 0-1-1 1 0-1 0 0 1 0-1 1 0 0 1 0-1-1 0 1 1-1 0 1 0-1 0 1 1 0 2 0 2 1 4 1 4 1 5 0 5 0 6 1 6 0 8 1 6 0 21 0 7 0 7 0 7 0 35 0 7 0 37 0 5 1 5 0 4 1 3 1 3 0 3 1 2 1 1 1 2 2 1 1 1 1 1 3 1 5 0 2-1 3-1 4-2 4-3 4-2"/>
<path d="M2767 6188l 0 1-1 0 0 1 0 1-1 1-1 3-1 3 0 3-2 4-1 4-1 6-1 5-1 7-1 5-2 6-1 7 0 5-1 7 0 23 1 5 1 4 1 5 1 3 2 4 2 4 2 2 1 3 3 2 2 3 3 2 2 2 3 2 3 1 4 0 3 1 8 0 4-1 4-1 4-1 5-1 6-2 5-2 5-3 10-5 5-3 5-3 4-4 5-3 4-3 3-4 4-4 3-4 3-4 3-5 2-5 2-4 2-6 1-5 2-4 1-4 0-5 0-5 0-4-1-4-2-4-2-4-2-4-2-5-4-4-4-4-4-4-4-4-5-4-5-2-6-3-7-3-5-2-6-2-6-1-5-2-6-1-6-1-5-1-5 0-5 0-10 1-4 1-4 2-4 2"/>
<path d="M1386 5577l-1-1 0 0-3-2-2 0 0-1-2-1-1 0 0-1 0 0 0 0-1 0 0-1 1 0 0-1 1 0 1-1 1 0 2 0 2-1 2-1 2-1 4-1 3 0 4-1 4-2 5-1 5-1 6-1 5-2 6-1 6-2 6 0 6-2 6 0 6-1 7-2 11-1 5-1 6-1 5-1"/>
<path d="M1471 5559l-1 1-3 2-2 3-4 3-3 2-4 4-3 4-3 2-3 4-2 4-3 4-3 5-2 5-4 5-3 5-3 6-3 7-2 5-3 7-3 6-2 7-2 5-3 7-1 5-2 6-2 5 0 4-1 3 0 6 1 3 0 2 2 2 1 2 2 0 3 2 2 1 3 0 5 1 8 0 6-1 6 0 7-1 8-2 7-2 8 0 9-3 8-2 9 0 9-2 7-2 18-4 7-2 8-1 7-2 8-2 8-1 7-1 7-1 7-1 7-1 13-2 16 0 5 1 5 1 4 1 6 3 2 2 3 2 2 2 0 3 2 3 0 3 1 3-1 4-1 4-1 3-2 4-3 5-2 6-8 13-5 7-5 7-5 7-7 8-7 7-8 8-8 7-8 7-8 6-9 7-8 6-9 6-8 6-9 5-7 3-8 4-7 3-7 3-7 2-6 2-6 2-5 1-5 0-5 0-4-1-4-1-2-1"/>
<path d="M2629 5620l 0-1-1 0-1-1-4-2-2-1-5 0-1 1-2 1-1 1-2 1-2 2-1 2-2 3-3 3-2 4-3 4-2 5-3 5-2 6-3 6-2 6-2 6-1 8-2 7 0 7 0 15 0 7 2 7 1 8 2 7 3 7 3 7 4 6 3 6 4 6 4 5 4 4 5 3 5 4 5 3 11 4 7 2 5 1 7 1 6 0 7-1 7-1 6-2 7-2 7-3 7-3 7-5 7-4 7-4 6-6 6-5 7-6 6-5 5-7 5-6 5-7 4-6 4-7 4-6 3-6 2-5 2-6 1-5 2-5 0-4 0-4 0-4-3-7-2-3-2-3-4-3-4-4-3-3-4-3-5-3-4-3-6-1-5-2-7-2-6-2-6-1-7 0-7 0-7 0-8 0-6 1-7 2-7 1-7 1-6 3-7 1-6 3"/>
<path d="M2051 5544l-1-1 0 0 0 0 0 0 1-1 1 0 2-1 4-1 3-1 9-3 5-1 5-2 10-5 5-1 6-3 6-1 5-3 7-2 6-2 6-3 6-2 7-3 6-3 6-2 11-6 5-3 5-3 4-2 4-2"/>
<path d="M2084 5519l-2 0-3 1-4 1-3 2-4 2-5 4-4 4-4 5-3 5-4 5-3 6-3 6-4 8-3 7-3 7-3 8-3 8-2 7-2 8-2 8-2 7-1 8-2 7 0 7-1 7 0 6-1 5 1 5 0 5 1 5 0 3 2 3 1 3 1 2 4 4 2 0 2 1 3 1 3 0 4-1 4-1 6-1 6-2 6-2 7-3 7-4 8-3 8-3 8-4 8-4 9-4 9-3 10-4 9-3 8-3 10-3 9-3 9-2 8-2 9-3 8-2 7-2 7-1 7-2 6 0 6-1 5-1 11 0 4 1 4 1 4 2 4 1 2 2 3 3 2 3 3 4 0 3 1 4 0 5-1 5-1 6-2 5-3 7-4 7-4 8-4 7-6 8-5 8-6 9-6 8-7 8-7 7-8 8-7 7-10 8-8 7-10 6-10 6-9 6-20 11-9 5-9 4-8 5-9 3-8 3-8 2-7 2-6 2-7 1-6 1-17 0-5-1-4-1-5-1"/>
<path d="M1442 7283l-1 1-2 2-2 2-3 2-3 3-3 4-3 2-2 5-2 3-3 3-2 4-3 5-1 4-2 4-2 5-2 5-2 5-1 5-2 6 0 6-1 8-1 7-1 8 0 9 0 17 0 9 0 10 2 8 1 9 2 9 3 9 2 7 3 8 3 6 4 6 5 5 4 5 4 5 5 4 5 4 6 2 6 2 5 1 8 2 12 0 8-2 7 0 7-3 7-1 8-3 6-3 7-3 7-4 7-3 6-5 7-5 6-5 6-5 6-6 6-6 6-6 6-7 5-8 5-7 5-8 5-9 5-8 5-9 3-9 4-8 3-8 2-9 3-7 0-8 1-8 1-8-1-6-1-8-2-6-2-6-4-5-3-6-4-5-5-4-7-5-6-3-6-4-7-3-7-2-8-1-8-2-8 0-8 0-8-1-8 1-8 2-8 3-8 2-8 3-7 3-8 4-7 3-7 5-7 3-6 4-4 5-4 5-3 5-2 6"/>
<path d="M2044 7277l-1 1-1 1-1 2-1 2-1 4-1 4-2 5-2 6-1 6-2 7-2 6-2 8-2 8-2 8-2 8-1 8-2 8-3 9-1 8-2 9-2 8-1 8-1 7-1 8-1 7-1 7 0 12 1 4 2 4 1 3 3 2 2 1 4 2 7 0 3-2 5-1 5-2 5-4"/>
<path d="M2159 7290l-1 2 0 2-1 4-1 4-1 6-2 7-1 6-1 8-1 7 0 8 0 7 0 16 0 7 1 7 2 7 1 7 1 6 3 6 2 4 2 6 3 4 3 5 2 3 3 3 5 3 3 2 4 2 4 0 5 0 5 0 5-1 5-2 4-3 6-3 5-3 6-5 5-3 5-5 5-5 5-4 4-5 4-6 3-5 4-5 3-5 2-5 2-5 1-5 2-5 0-5 1-4 0-3-1-5 0-3-2-5-2-3-3-4-3-3-4-4-4-3-5-3-5-3-5-3-6-2-5-2-6-2-5-1-11-2-6 0-5 0-5 0-5 1-5 1-4 1-4 2-5 2-2 1-3 2"/>
<path d="M2688 7189l 1-1 2 0 1 0 0 0 2-1 1 0 2-1 6-1 3-2 3-1 4-1 4-1 9-2 5-2 5 0 5-2 4-1 6-3 5-2 6-2 5-3 6-2 6-3 5-2 7-3 6-4 6-3 6-3 6-4"/>
<path d="M2734 7163l-2 1-3 2-3 2-3 3-4 3-4 3-4 5-2 4-3 4-2 5-2 4-2 5-1 5-2 5-1 5-1 4-1 4-1 5 0 3 0 4-1 4 0 7 1 4 0 3 0 2 0 3 1 2 1 2 0 2 1 2 1 2 1 2 0 2 2 2 1 1 2 2 2 1 3 2 2 1 4 0 4 1 3 1 4 0 5 2 5 0 5 0 6 0 6 1 5 0 6-1 6 0 5 0 6-1 6 0 6-1 6 0 17 0 7-1 6 0 5-1 5 0 6-1 26 0 5 1 4 0 4 1 4 1 3 0 4 0 3 1 6 3 2 1 2 2 1 1 2 2 2 2 1 3 0 2 1 3 0 9-1 4-1 5-2 5-3 6-3 6-4 7-5 7-5 7-7 7-6 8-7 7-8 7-9 8-8 7-8 6-9 6-8 6-7 5-8 5-7 5-7 4-7 4-6 4-7 2-6 3-7 2-5 2-5 1-5 0-5 0-4-1-4-1-3-1-3-2-1-3-1-3"/>
<path d="M3408 7278l 1 0-1 1 1 0-1 0 1 1 1 0 2 1 3 0 3 1 4 0 3 1 4 1 8 0 4 1 8 0 8-2 5 0 5-1 4-1 5-1 5-1 4-1 5-1 5-2 5-2"/>
<path d="M3622 7186l 1 0-1 0 1 0 0-1 5 0 3 0 2 0 3-1 4-1 3-1 5-1 7-3 3-1 5-2 3-2 4-1 3-1 4-1 4-3 2-1 3-1 3-2 3 0"/>
<path d="M3679 7171l-1 2-3 3-2 3-3 3-4 5-3 3-4 5-3 4-3 3-2 4-3 4-1 3-2 4-1 3-1 4-2 3-1 4 0 9 1 2 1 3 1 2 1 2 2 1 2 2 2 1 3 1 2 1 3 0 16 0 5 0 5-2 5-1 6-1 5-1 5-2 5-1 6-1 12-3 6-1 6 0 6-1 12 0 5-1 5 0 10 2 5 0 4 1 3 2 5 0 3 2 3 1 3 3 2 1 2 3 2 2 3 2 1 2 1 3 1 3 1 1 1 3 0 6-1 3-2 3-1 4-1 4-3 4-3 5-3 5-4 4-3 6-4 5-5 5-5 6-5 5-5 6-6 5-6 5-6 5-7 5-7 5-6 5-7 4-6 5-7 3-5 4-7 2-6 3-6 2-6 3-5 1-6 1-6 1-10 0-6-1-5 0-5-2-5-1-5-2"/>
<path d="M1436 7849l-1 0 0-1 0 0-1 0-1-1-1-1 0 0-2 0 0 0-2 0-1 0 0 0-1 0-1 0-1 1-2 0-1 1-1 0-1 0-1 1-1 1-2 2-2 1-2 3-2 2-3 4-2 5-3 4-2 7-3 6-3 7-3 8-1 9-2 10-2 10-1 10-2 11-1 11-1 11 0 12 0 11 0 12 0 10 0 10 2 10 1 10 2 8 2 9 3 7 2 8 3 6 5 6 3 7 4 5 4 4 5 4 5 5 5 3 6 2 5 3 7 2 7 1 8 1 16 0 9-1 9-1 8-2 9-3 9-4 9-3 9-4 8-4 9-5 8-4 8-6 8-4 8-6 6-5 8-7 7-5 5-7 6-7 6-7 5-8 4-8 4-8 4-8 3-9 2-8 2-8 2-8 0-7 0-15-1-7-2-8-2-7-3-6-4-7-3-6-5-6-5-5-6-5-6-5-6-5-7-3-7-4-7-3-7-2-7-3-7-3-8-1-8-1-7 0-8-1-8 0-6 1-8 0-8 2-8 0-6 2-8 2-6 2-6 2-5 2-5 3-4 3-3 4-2 4-1 4-1 6"/>
<path d="M2090 7951l 0 1-1 1-2 2-2 2-2 2-2 3-2 5-2 5-3 6-2 7-1 8-2 9-3 8-1 10-1 10-2 10-1 8 1 10 0 7 1 8 1 7 1 6 2 6 2 5 3 5 2 4 4 4 3 2 3 3 5 2 3 1 4 2 5 0 10 0 5 0 5-1 6-2 7-2 6-3 6-4 7-4 7-4 6-6 6-5 7-7 6-4 5-7 6-7 5-6 4-8 4-7 3-7 3-7 2-7 2-7 1-6 1-7 0-13-1-6-1-5-2-6-3-5-3-5-3-4-4-5-6-3-5-3-7-4-6-3-6-2-8-3-7-2-8-2-7-1-8-2-7-2-7-1-6-1-7-1-20 0-6 1-5 1-4 1-5 2-3 0-4 1-2 1-2 2"/>
<path d="M2697 7824l-1-1 0 0 0 1-2 0 0 2 1 2 1 1 0 2 0 3 2 3 1 3 2 5 1 5 1 5 3 5 1 6 2 7 2 6 2 6 1 8 2 6 1 6 1 7 1 6 1 7 1 5 0 7 0 12 1 6 0 37 1 6 0 5 1 4 2 3 1 4 2 3 2 1 3 2 3 0"/>
<path d="M2856 7799l 0-1 1 0 0 0 2 0 1-1 2-1 3-2 2-2 4-2 4-3 4-3 4-4 4-2 5-3 4-4 5-3 5-3 5-4 5-3 6-2 5-3 4-3 5-3 4-2 5-3 3-2 3-2 3-1"/>
<path d="M2876 7770l-3 1-1 2-2 1-3 3-2 2-3 2-1 3-4 4-2 3-1 3-2 3-2 2-1 2-2 3-1 4-1 3-1 3-1 4-1 4 0 4-1 3-1 4 0 4-1 3 0 12 1 3 0 2 1 3 1 2 0 2 2 3 1 1 2 1 2 2 1 1 2 1 3 1 3 2 3 0 3 1 8 0 4-1 5-1 5-2 6-2 5-1 7-2 6-2 6-2 6-3 8-2 6-2 6-3 8-2 6-2 7-1 7-1 7-1 19-3 6 0 6-1 6 0 5-1 14 0 4 1 4 1 4 0 2 0 3 1 3 2 3 0 2 2 2 2 2 1 1 3 2 2 0 3 1 4 0 3-1 4 0 4-2 4-2 5-2 5-2 6-2 6-4 7-4 6-4 7-4 7-5 6-5 7-6 7-5 6-6 7-5 6-7 7-6 5-7 5-6 5-7 5-7 5-7 4-6 4-6 4-6 3-6 4-6 2-6 2-6 2-10 0-5-1-4-2-5-2-4-2-5-3-3-3-4-3-3-4-4-5"/>
<path d="M3566 7799l-1-1-5 0 1 0 0 1 2 0 1 1 6 0 5 1 12 0 5-1 5 0 6 0 7-2 6-2 6-1 8-3 7-3 6-3 7-3 7-3 6-4 6-3 6-3 5-3 5-3 5-2 4-3 3-1"/>
<path d="M3673 7756l-1 1-1 1-2 2-4 3-3 2-2 3-2 2-2 3-2 3-3 4-2 3-3 4-2 3-3 5-2 5-3 4-3 4-3 4-3 5-3 6-2 5-3 5-2 5-3 6-2 6-3 5-2 5-3 5-1 4-2 5-2 4-1 4-1 5 0 3-1 4-1 3 0 3-1 3 0 3 1 2 0 2 1 2 1 1 1 1 1 1 2 0 3 1 2 0 3 1 9 0 5-1 6-1 6-1 7-2 7-2 7-2 6-2 7-1 7-3 7 0 6-2 7 0 7-2 6-1 8-1 6-1 7 0 7-2 6 0 6-1 30 0 5 1 4 0 4 1 4 1 3 1 4 1 3 0 2 2 2 1 2 2 2 2 1 2 1 1 0 3 1 2-1 3-1 3-1 3-2 4-2 4-3 5-3 5-4 6-5 5-4 7-6 7-6 6-6 7-6 7-7 6-6 7-8 5-8 7-8 6-7 6-8 6-7 5-7 5-7 5-5 4-6 3-6 3-5 3-4 2-9 3-3 0-3 1-2-1-2 0-2-2-1-1-1-3 0-2"/>
<path d="M4101 7897l 0-1-1 0 4 0 2 1 20 0 4-1 10-1 5-1 5-1 5-1 5-1 6-1 6-2 5 0 6-2 7-1 5-2 6-1 6-1 6-3 5-1 5-2 5-2 4-1 9-3 4-1 4-1"/>
<path d="M4272 7766l-1 0 0 1-2 0 0 0-1 0 1 1 0 2 1 1 1 2 0 4 1 3 1 5 1 5 1 5 1 6 0 6 2 5 0 6 1 7 1 6 1 6 0 6 0 14 1 7 0 14-1 7 0 8 0 8-1 8 1 7-1 8-1 8 0 8-1 7 0 37 1 6 1 7 1 5 0 5 2 3 0 3 3 2 1 2 2 0 2 0"/>
<path d="M4417 7804l-1 1-2 4-3 4-2 5-3 6-3 7-2 7-2 8-1 8 0 8-1 8-1 8 0 23 1 7 1 7 1 7 2 6 2 6 2 5 2 4 2 5 3 2 3 3 3 3 3 2 3 2 4 1 2 2 3 0 12 0 3 0 5-2 4-1 4-2 5-1 4-3 4-3 4-3 5-5 4-4 4-5 5-6 3-5 4-5 3-6 4-6 3-6 3-6 2-5 3-6 1-6 1-7 2-5 1-6 0-11-2-7-1-6-2-5-2-5-3-5-3-5-4-5-4-5-5-4-4-3-5-5-6-3-5-4-5-3-6-2-5-1-6-2-16 0-5 2-6 0-5 2-5 1-6 2-5 3-5 2-5 3-5 3-4 3-4 3"/>
<path d="M1296 8528l-1 2-3 4-2 3-3 5-2 5-3 7-2 7-3 7-1 7-1 8-2 8-1 9 0 9 0 28 1 11 2 10 2 11 3 10 3 12 5 11 6 12 6 13 7 12 7 13 8 13 9 14 9 13 10 12 10 12 10 11 11 10 11 9 11 9 12 7 10 6 11 6 11 3 13 3 12 2 11 1 12 0 10-1 12-3 10-4 10-6 9-5 9-7 8-9 8-10 7-10 7-11 5-13 5-12 5-13 3-14 3-13 2-13 2-12 0-12-2-11-1-11-3-10-4-9-5-10-5-8-7-9-6-7-7-7-8-6-7-7-8-6-9-5-9-5-9-4-10-3-10-4-10-3-10-2-10-2-10-2-10-1-10-1-10-1-38 0-7 1-10 1-5 1-4 1-4 2-2 2-3 1-2 2-2 2-1 3"/>
<path d="M2176 8658l-4 1-3 3-5 3-5 4-7 5-5 5-6 7-4 6-3 7-4 7-2 8-2 8-1 10-3 9 0 9-3 20 0 21-1 10 1 10 1 9 1 9 2 9 2 8 2 6 3 6 2 6 3 4 3 4 3 2 4 2 3 1 4 1 3 0 4-1 4 0 4-3 4-2 5-3 4-5 5-5 4-5 5-5 4-7 5-8 4-9 3-8 4-10 3-8 3-10 3-9 2-8 2-9 2-8 1-8 1-8-1-6-1-13-2-6-3-5-4-6-3-5-4-4-5-5-5-5-6-5-6-5-6-3-8-4-7-3-8-3-7-4-9-3-8-2-8-2-8-1-7-2-7-1-6-2-6 0-4 0-5 0-3 0-3 0-3 1-1 2 0 2"/>
<path d="M2860 8721l-2 3-4 4-4 5-5 6-5 8-6 8-4 10-4 11-3 11-2 10-2 10-1 11-2 10 0 28 1 9 1 7 1 8 2 5 3 6 4 5 4 4 4 2"/>
<path d="M2977 8760l 0 2-1 3-1 3 0 3-2 5 0 5 0 10 0 5 1 5 2 5 1 5 2 5 2 5 3 4 3 4 4 4 3 3 4 3 4 2 4 2 5 1 5 1 5 0 5-1 4 0 5-3 5-2 10-5 5-3 4-5 4-3 5-5 3-5 4-4 3-5 3-5 2-6 3-6 2-4 2-5 1-5 1-4 0-10-1-3 0-4-2-4-1-3-2-4-4-3-2-3-4-3-3-3-9-4-5-3-5-2-15-6-5-1-4-2-5-1-4-1-4 0-11 0-3 0-2 1-1 1"/>
<path d="M3656 8581l-1-1 1 0-1 0 0 1 0 0 0 1-1 0 0 1-2 5 0 3-1 4-1 6-1 7-2 7 0 8-2 9-2 11-1 10-2 10-2 10-2 11-1 10-3 9-1 9-2 9-2 9-2 16-2 8-1 7 0 7 0 10 0 4 1 3 2 3 1 2 2 1 7 0 3-1"/>
<path d="M3758 8633l-1 2-2 4-1 5-2 5-3 7-2 6-1 7 0 13 1 6 0 5 2 5 2 5 2 4 2 5 3 2 3 3 3 2 3 3 5 1 2 1 4 1 11 0 4-1 4 0 2-1 4-1 4-2 3-2 4-3 3-3 4-3 3-5 3-4 2-5 3-5 2-6 3-5 2-4 1-5 1-5 1-4 0-13 0-4-2-4-2-3-2-4-3-4-3-3-3-3-5-3-4-2-5-3-4-2-5-2-5-2-5-1-4-1-4-1-4-1-8-1-11 0-3 0-6 0-2 1-3 1-1 1-1 1"/>
<path d="M4226 8626l-1 0-1-1-2 0 0 1 0 0 0 0 0-1 3 0 1 1 1 0 3 1 2 0 5 0 4 0 4 0 6 0 6 0 6-2 7 0 7-3 8-1 7-1"/>
<path d="M4431 8514l-1-1 0 0-1 0-1 0-1-1 0-1 0 0 0-1 2 0 1 0 1-1 1 0 3-1 3-3 4-2 3-2 5-3 4-3 5-3 4-4 4-3 5-4 5-3 4-3 4-3 5-3 4-3 4-3"/>
<path d="M4455 8479l-1 0-3 2-3 2-3 2-4 3-3 3-4 2-3 4-2 3-2 3-1 3-2 4-3 3-2 4-1 4-2 4-2 4-1 4-2 3 0 4-2 4 0 4 0 4-1 4 0 14 1 3 0 2 1 1 1 2 2 2 1 3 2 1 3 1 2 2 3 1 2 1 3 1 4 1 8 0 5 1 5 0 5-1 5 0 6-1 6 0 6-1 6-1 13-3 6 0 7-1 6-1 7-1 6-1 6-2 6 0 7-1 6 0 6 0 5-1 11 0 5 1 4 0 9 2 4 0 4 1 3 2 4 1 3 1 3 2 2 2 3 2 2 3 2 3 1 2 2 3 1 3 0 4 1 3 0 8-1 4 0 4-2 5-1 5-2 5-2 4-2 5-3 4-3 5-3 4-3 5-3 5-4 4-5 5-4 5-4 4-5 5-4 4-5 4-4 4-4 3-4 3-4 2-4 2-4 1-4 1-4 1-3 0-5 0-3 0-3 0-3-1-3 0-2-2-2-1-3-4 0-3"/>
<path d="M5103 8606l 0-1-1 0 0 0 0 0 0 0 0 0 1 0 1 0 1 0 8 0 4-1 7 0 5-1 4-1 5-1 5-1 5 0 11-3 6-1 12-3 6-1 6-2 5-1 6-2 5-2 6-1 6-2"/>
<path d="M5352 8518l 0-1 6 0 2 0 3-1 3-1 2-1 4 0 4-2 2-1 3-2 3-1 4-2 3-2 3-2 4-1 3-2 2-2 4-1 3-2 2-2 3-1 2-2 4-2 2-2 2-1"/>
<path d="M5378 8518l-1 1-2 2-1 1-2 2-2 3-2 3-2 3-2 3-2 2-1 3-2 3-2 3-2 2-1 4-2 4-1 2-2 4-1 3-1 3-1 4-1 4-1 3-1 4-1 3-1 4-1 3-1 3 0 4-1 3-1 3 0 5 0 3 0 11 0 3 0 3 1 2 1 4 2 1 1 3 0 1 2 1 2 3 1 1 2 1 2 1 2 1 2 0 2 1 9 0 3-1 3 0 5-2 3 0 4-2 3 0 2-3 3 0 4-2 3-1 3-2 4-1 3-1 3-1 3-1 7-1 4-1 3-1 5 0 3-1 7 0 4-1 17 0 4 1 3 0 3 1 3 0 3 1 3 1 3 0 2 2 3 1 2 2 2 2 1 1 2 2 2 1 2 3 1 1 1 3 2 2 1 3 1 2 0 3 1 2 0 7-1 2 0 3-2 3-1 4-2 4-2 5-3 4-2 4-4 4-3 5-3 5-5 5-3 3-5 5-5 4-5 4-5 4-5 5-5 3-6 5-5 3-5 4-5 3-5 4-5 2-5 3-5 3-10 4-4 2-5 2-5 2-4 2-8 1-5 1-13 0-17-3-5-2-4-1-4-2-4-2-3-1-4-3-4-1-2-2-3-2-2-2-2 0"/>
<path d="M3495 7041l-1-1-2 0-1 0-2-1-3-1-2-1-3-1-2-1-1 0-2-1-2-1-3-1-2 0-2-1-19 0-4 1-7 0-3 0-5 2-4 1-5 1-5 2-5 2-6 2-5 3-6 3-6 3-6 4-6 5-6 5-8 7-6 6-7 8-7 9-8 10-8 12-7 13-8 13-8 14-7 15-7 15-6 17-6 15-5 16-5 17-4 18-3 17-2 17-1 16 0 15 0 15 3 14 4 12 4 12 6 11 8 10 8 10 8 9 10 7 11 8 11 7 12 5 13 5 13 5 14 3 15 3 15 3 15 1 16 0 16 1 16 0 15-1 15 0 16 0 16-2 15-2 15-1 15-2 15-3 14-3 14-2 12-2 14-4 14-4 12-4 13-4 13-4 13-6 13-4 12-6 11-5 12-6 11-6 10-7 10-6 9-7 8-6 8-7 7-7 8-8 6-6 6-8 6-8 6-8 4-8 5-9 4-8 4-10 3-9 3-9 2-10 1-9 2-11 0-11 0-10 0-10-2-11-1-10-3-11-4-11-5-12-5-11-6-12-7-12-8-12-9-13-9-11-9-11-11-10-11-9-10-8-12-8-13-7-14-5-13-5-15-5-15-4-15-3-31-5-15-1-17-1-15 0-16 1-16 1-16 2-15 2-15 3-15 3-14 3-13 5-14 4-13 4-12 4-12 5-11 5-11 6-10 6-9 6-8 6-7 6-6 6-6 6-4 6-4 7-3 8"/>
<path d="M3901 6884l-6 0 0 1 0 0 0 1 1 1 1 1 2 1 1 1 2 3 3 2 2 1 3 2 2 3 4 2 4 3 3 3 4 2 4 3 4 3 4 3 4 3 4 2 5 3 4 2 4 3 5 2 4 2 3 1 5 2 3 1 5 1 4 1 3 0 15 0 3 0 2-1 3-1 2-1 3-1 2-1 2-2"/>
<path d="M3955 6888l-1 1-1 0-2 1-2 2-3 2-2 1-3 3-2 2-2 4-2 3-2 4-2 5-2 5-2 6-2 8-2 7-2 6-2 8-3 8-2 8-2 9-1 8-2 9-3 9-1 9-2 9-2 7 0 8-2 7 0 5 0 12 0 3 1 4"/>
<path d="M4074 6763l 1 0-1 0 0-1-1 0 0 0 1-1 1 0 0-1 2-1 1 0 1 0 2-1 2-1 2-1 3-2 2-1 3-1 2-1 3-2 2-1 3-1 3-2 2-1 3-1 4-1 3-2 2-2 3-1 3-1 4-2 3-1 3-1 3-2 7-1 3-1 3-1 3 0 3 0 2 0 3 0 2 2 3 0 2 3 1 1 2 2 1 3 1 3 1 3 1 4 0 4-1 5-1 5-1 6-2 6-2 8-2 7-3 8-4 8-3 7-4 9-4 8-4 8-3 9-5 8-4 8-4 7-3 8-4 7-4 8-2 5-3 7-3 5-2 6-2 5-2 4 0 3-1 4-1 2 0 4 0 1 0 1 4 0 1-1 2 1 3-1 2 0 3-1 2-1 5-2 3-1 4-2 4-2 5-2 5-3 5-3 6-3 6-3 5-3 6-3 7-3 7-3 7-3 8-3 8-4 8-4 8-2 8-4 9-4 9-5 9-4 8-4"/>
<path d="M1392 10628l 0-1-1 0 0-1 0 0 0-1-1 0 0-1 0 1 0-1 1 0-1 0 0 1-1 1-1 0 0 1-2 0 1 1-2 1-1 2-1 1-2 2-2 3-1 2-2 3-4 4-2 3-3 5-6 11-3 7-3 6-4 8-3 8-3 8-3 8-2 8-3 9-3 9-2 9-3 8-1 9-2 8-2 7-1 7-1 5-1 6 0 5 0 5 0 4 0 5 2 7 1 3 2 3 2 2"/>
<path d="M1499 10623l-1 2-3 9-1 6-3 7-1 7-3 7-2 8 0 6-1 7-1 7 0 6 1 6 1 6 1 5 2 5 2 5 2 2 3 5 3 3 3 2 4 2 4 1 5 2 10 0 6-2 6 0 7-2 5-3 7-3 5-2 6-4 7-4 5-5 6-5 6-5 5-7 6-6 5-7 6-8 5-7 4-8 4-8 3-9 3-7 2-8 2-6 1-6 0-13-1-5-1-4-1-4-3-4-2-4-3-4-4-2-3-4-5-2-5-4-5-2-6-1-6-2-6-2-7-1-5 0-5 0-18 2-5 2-5 2-6 2-5 2-10 4-5 2-4 3-3 3-3 2-3 3-1 3-1 3"/>
<path d="M2226 10534l-1-1-1 0 0 1-1 0 0 1-1 2 0 4 0 3-1 4 0 4-1 5-1 6-2 6-1 6-1 7-3 6-1 7-3 8-2 7-2 8-3 7-2 9-3 9-3 7-3 8-3 7-1 8-2 6-2 6-1 5-1 5 0 5 1 3 1 3 1 2 2 1"/>
<path d="M2341 10556l 0 1-1 3-1 5-2 5-1 5-1 6-2 6-1 7 0 6 0 12-1 5 1 6 1 6 2 4 1 6 1 4 3 4 2 3 4 4 3 3 3 3 5 2 3 3 5 1 4 1 10 1 9 0 5-1 5-2 5-1 5-2 4-2 5-4 5-2 5-4 4-3 4-5 4-4 3-4 4-5 3-5 3-5 3-5 2-5 1-4 2-5 1-5 0-4 1-4-1-5-1-4 0-3-2-4-2-4-2-2-7-6-4-2-4-3-10-4-12-3-5-2-7 0-6 0-7 0-7 0-7 2-6 2-7 2-6 3-6 3-10 4-3 4-4 2"/>
<path d="M3008 10498l 0 1-1 1-1 2-2 2 0 2-2 3-1 5-1 4-1 4-1 5-1 6 0 6-1 6-1 6-1 6-1 7-1 7 0 7-1 7-1 7-1 7 0 7-1 8-1 7-1 6 0 7-1 6 0 12 1 6 1 5 2 4 2 4 3 3"/>
<path d="M3169 10549l 0 3-1 3-1 4-2 5-1 5-1 6-1 7-1 6-1 6 0 19 1 5 1 6 1 6 2 5 2 4 2 4 3 4 3 3 3 3 3 3 4 3 4 2 4 2 4 1 8 1 5 1 5-1 5-1 5-1 5-3 5-2 5-4 6-4 6-5 5-5 6-5 4-5 5-6 4-5 4-5 3-6 3-5 2-5 2-5 1-5 1-4 0-9-1-5-1-5-2-3-1-4-3-3-3-3-4-4-4-2-4-3-4-2-10-4-5-2-5-1-10-1-6 0-6 0-5 2-6 0-6 2-6 1-7 2-5 3"/>
<path d="M1309 11266l 0-1-1 0 0-1 0 0 0-2-1 0 0-1-1-1 0 0 1-1-1-1 0-1 1-1 0-2 1-1-1 1 0 5 1 3 0 3 0 5 0 24-1 8-1 9-1 9-2 9 0 10-2 10-1 10-2 11 0 10-2 10-1 9 0 8 0 8-1 8 0 12 1 5 0 4 1 3 2 3 0 1 3 1 2 0 2 0 1 0 2-2"/>
<path d="M1422 11211l 1 0-1 0 2 0 2-1 1 0 2-1 2-2 4-2 4-2 4-2 4-2 4-3 5-3 4-3 4-2 5-3 4-2 6-2 5-3 6-2 6-3 6-3 5-5"/>
<path d="M1436 11222l-2 2-2 4-3 5-4 5-3 7-5 7-4 6-3 7-3 5-2 6-3 7-1 5-1 5-1 5-2 8 0 4 0 7 0 1 1 1 1 1 1 1 3 0 2-2 2 0 3-1 5-1 4-1 5-3 6-3 5-3 7-3 8-3 8-5 8-4 9-4 10-5 8-5 9-5 20-10 10-5 8-5 10-4 8-5 9-3 8-5 8-3 8-4 6-2 8-3 5-1 5-2 5 0 4 0 3-1 3 0 2 1 2 0 1 0 2 2 0 4-1 2-1 4-3 5-2 5-5 5-4 6-6 7-5 6-8 8-7 7-9 7-8 7-9 7-9 8-17 12-8 7-9 6-17 10-9 4-8 4-9 2-8 3-8 3-8 2-7 2-7 2-6 0-12 1-5 0-5-1-5-1-3-2"/>
<path d="M2304 11165l 0-1-1-1 0-2-1-1-2-1-1-2-1-1-2-1-1-1-1-1-4 0-1-1-6 0-2 1-2 1-2 0-2 0-2 2-5 1-1 1-2 1-2 2-2 0-1 2-2 1-2 2-1 2-2 2-2 2-2 3-1 4-3 7-2 4 0 5-1 6 0 20 1 7 0 8 1 8 2 8 2 8 2 9 3 7 3 8 4 8 4 8 4 7 5 7 5 7 5 5 5 8 5 5 5 5 6 4 6 3 5 3 7 2 6 1 7 1 8 0 7-1 9-1 9-2 9-2 8-3 9-3 9-5 7-4 8-6 7-5 8-5 5-7 6-5 5-8 5-6 4-6 4-8 3-6 3-8 2-7 1-8 2-6-1-8 0-14-2-7-2-6-4-7-4-6-4-6-11-11-7-5-6-4-7-4-8-2-8-4-8-3-8-3-8-2-8-2-9-1-8-1-8-1-8 1-6 1-8 1-6 2-7 2-6 3-6 2-5 3-4 2-5 4-4 4-4 3-3 4-3 4-2 4"/>
<path d="M2057 -13447l-1 0 0-1 0 0 0 0-1-1 0-1-1 0 1 0 0-1 1 0 0 0 2 0 0-1 2 0 1-1 2 0 2-1 2-1 2-1 3 0 2-1 2-1 2 0 2 0 3-1 2 0 2 1 6 0 3 0 2 1 4 1 7 1 4 1 4 1 4 1 4 1 4 1 4 1 4 1 4 1 4 1 4 0 4 0 3 1 26 0"/>
<path d="M2261 -13620l 1 1-1 0 0 3 1 5 1 3 2 4 1 5 1 5 2 6 1 8 2 8 2 9 3 17 1 10 2 11 2 21 1 12 1 11 1 12 0 13 1 12 0 27 1 13 0 39 0 12 0 11 2 11 1 10 0 10 0 10 1 8 1 9 1 7 2 6 1 7 1 5 2 4 2 4 2 3 2 2 2 2"/>
<path d="M3131 -13412l 1-1-1-2 0-3-1-2 0-5 1 0 0-1 3 0 1 1 3 0 3 1 2 1 3 0 3 2 3 1 7 3 4 1 4 3 13 4 5 1 5 2 10 3 11 1 6 1 4 0 6 1 5 1 7 0 6 1 19 0"/>
<path d="M3396 -13565l 1 0-1 0-1 1 0 2 1 1 1 2 0 3 2 3 1 4 1 5 1 7 2 6 1 7 2 8 2 9 1 9 1 10 1 11 1 11 2 25 0 12 1 12 0 26 1 12 0 65 0 10 1 10 1 8 1 9 1 8"/>
<path d="M2734 -13253l 0-1 1 0 0 2-1 0 0 1 1 1 0 3 0 3 0 2 1 5 0 4 1 5 0 12-1 7-1 8-1 8-2 9-2 10-2 10-3 9-2 11-4 12"/>
<path d="M3699 -13260l-1 1-2 3-1 2-2 4-3 5-2 6-3 7-2 8-2 7-1 8-2 9-2 9-2 10-2 10-3 9-2 11-3 10-4 12-3 10-3 11-4 12"/>
<path d="M4051 -13535l-1 1 0 1-3 1-1 2-2 3-3 3-2 4-2 5-2 6-3 6-1 8-1 9-2 8-1 9-1 11 0 21 1 11 1 10 2 10 3 10 3 8 4 9 3 8 4 8 5 7 5 7 5 7 6 6 7 5 6 5 7 4 7 3 8 1 9 2 8 0 10-1 9-1 20-6 11-4 11-5 10-6 11-6 11-7 12-7 10-8 10-9 9-10 8-9 9-11 7-10 7-10 5-11 5-9 4-11 3-9 2-10 1-9 1-8 0-8-1-8-2-6-3-7-3-7-5-7-11-13-7-6-8-6-9-6-7-6-10-4-11-4-12-4-11-3-12-2-13-2-13-2-13 0-13 2-12 1-12 2-11 4-10 4-9 4-8 4-7 5-6 5-5 5-3 6-2 5"/>
<path d="M4571 -13242l 1-1 0 2-1 1 0 3-1 2 0 6 0 4-1 6-2 6-2 7-2 9-3 9-3 10-4 11-3 11-5 12-8 26-5 13"/>
<path d="M4890 -13442l 2 0 1 1 1 0 2 0 2 0 2 1 4 0 4 1 4 1 5 0 7 0 5 0 15 0 7-1 8-2 7 0 8-2 8-1 8-2 8-2 8-3 8-2 7-2 7-1 6-2 5-3 5-2"/>
<path d="M4926 -13500l-1 1-2 3-2 2-2 3-2 2-2 5-1 4-1 4-1 5 0 5 1 5 2 6 1 6 1 6 2 7 1 6 2 7 3 7 2 5 3 6 2 6 3 6 2 6 4 6 4 5 3 5 4 6 4 5 4 5"/>
<path d="M5229 -13520l 0 3-1 4-1 5-1 7-1 7 0 8 0 10 0 9 1 10 1 11 1 10 3 23 2 12 3 23 2 12 2 11 2 12 2 12 1 13 3 14 1 13 2 12 2 13 0 13 3 24 2 12"/>
<path d="M1770 -13189l-1 0 0 1-1 2-2 2 0 3-2 3-1 5-2 5-2 7-1 7-2 7-2 9-2 8-2 9-2 9-2 11-3 10-4 11-3 11-4 13"/>
<path d="M1138 -13406l 1-1 0 0 3 0 2-1 3-1 4-1 4-1 4-1 6-2 6-2 6-2 7-2 6-2 7-3 7-4 16-7 7-3 8-3 7-3 7-4 7-3 11-4 6-2 5-2 9-5"/>
<path d="M1167 -13522l-1 1-2 2-2 1-2 2-2 3-2 2-1 3-1 4-1 3 1 5 0 5 1 5 1 7 0 7 2 7 0 8 3 8 1 8 2 8 2 10 3 7 2 10 3 9 4 9 3 8 3 9 4 8 4 8 4 9 5 7 4 7 3 6"/>
<path d="M1381 -13605l-1 1 0 0-1 1-1 2-1 2-1 3-1 2 0 4-1 4 0 10 1 7 0 7 0 6 1 8 1 9 1 9 2 10 1 11 1 11 3 13 2 14 1 15 2 16 2 16 2 18 2 17 2 18 2 17 2 17 2 17 3 18 2 18 2 18 2 18 2 19 2 18"/>
<path d="M301 -12547l 0-1-1 0 1 0 0 0 1 0 1-1 3 0 2-1 2-1 2 0 3 0 2-1 4-1 2-1 4-1 3-1 5-1 4-1 3 0 5-2 4-1 4-1 9-1 3-1 5-1 4-1 9-1 5-1 8-1 5-1 6-1"/>
<path d="M554 -12775l 1 1 0 3 0 1 1 2 1 2 1 6 2 4 0 3 2 4 1 5 2 5 2 6 1 6 2 6 2 6 2 7 1 7 3 7 2 8 1 7 2 6 2 7 2 7 1 8 2 7 2 8 1 7 2 7 1 7 2 7 1 7 2 6 1 6 1 7 2 6 1 5 1 6 1 6 1 5 1 5 1 5 1 5 1 3 1 5 1 3 0 3 1 4 1 2 1 3 0 2 1 2 0 3 1 0 0 1 0 1 0 1 1 1 0-1 1 0 0-2-1-1"/>
<path d="M336 -12681l 1 1 0 2 0 1 0 2 1 3 1 2 1 3 1 4 1 4 1 4 2 5 2 5 1 6 2 6 2 6 1 7 2 7 2 6 2 7 2 8 2 7 2 8 2 7 0 8 2 7 1 8 2 8 1 7 1 9 1 7 1 8 1 7 1 7 2 8 0 6 2 8"/>
<path d="M831 -12484l 1 0-1 1 1 0-1 1 0 9 1 2 0 7 0 6 0 6 0 4 0 10-1 5-1 6 0 7-1 6-1 8"/>
<path d="M1253 -12695l-1 0-3 1-2 2-3 3-4 3-4 3-3 5-4 7-3 6-4 8-3 8-3 10-4 10-3 11-2 12-3 11-2 11-2 13-1 12-1 12-1 12 0 11 2 22 1 10 2 9 2 9 3 8 3 7 4 8 3 5 5 6 5 6 5 4 5 4 6 5 6 3 7 3 7 3 7 2 7 2 8 1 7 0 9-1 8-1 8-2 9-3 9-4 9-5 10-5 10-6 9-5 10-7 9-8 9-8 9-9 8-10 7-11 7-12 7-12 7-12 6-12 5-13 5-13 5-13 3-12 3-11 1-11 2-11 0-10-1-10-1-9-5-17-4-8-3-8-5-8-5-7-6-8-7-8-7-7-7-8-8-7-8-7-8-7-9-6-9-6-9-5-8-5-9-4-8-2-8-3-8-2-8-1-8 0-7 1-8 1-8 3-7 3-8 5-7 5-8 6-7 6-7 8-6 8-5 10-5 9-4 8-2 10"/>
<path d="M1759 -12357l 0 1-1 0 0 3 0 2 0 5-1 3 0 28-1 7 0 17-1 9 0 10-1 10-1 11 0 12-2 12-1 12-1 12"/>
<path d="M2112 -12542l-1-1 0 0 0 1-1 0 1 0 0 1 0 0 2 1 1 1 2 1 2 2 4 1 3 2 8 5 5 2 6 1 6 2 5 2 6 1 6 1 6 1 21 0 7-2 8-1 7-2 7-2 7-3 7-3 6-4 8-3"/>
<path d="M2352 -12715l-1 0-2 1-1 1-2 2-3 2-4 2-3 3-2 4-3 4-3 6-2 5-3 7-2 7-3 17-2 10 0 10-1 9-1 11 0 10 1 11 0 10 1 12 1 12 1 12 2 11 2 13 1 12 3 13 2 13 3 12 7 23 4 11 5 12 5 12 6 11 13 23 7 10 8 12"/>
<path d="M2656 -12306l-1 0-1 1-2 1-1 2-2 2-2 3-2 3-1 4-2 5-1 5-1 6-2 7-1 7-1 8-1 8-1 9-2 9 0 9-1 10-1 9-1 9-1 10-1 9"/>
<path d="M3023 -12487l 1-1 5 0 2 0 3 0 4-1 4-1 5-1 5 0 6-1 13-1 7-1 7-1 8-1 8 0 8-2 10-1 18-4 10-3 10-2 11-3 10-2 10-3 10-3 11-4 10-3"/>
<path d="M3430 -12678l-1 1-2 0-2 1-2 1-2 1-2 2-2 3-1 2-1 3-1 4 0 4 0 23 0 6 1 8 2 9 2 8 1 10 2 10 2 10 3 12 4 13 3 13 4 12 4 13 4 14 5 13 6 13 6 12 6 12 7 12 7 12 6 12 8 11 7 11 8 10"/>
<path d="M3720 -12312l-1 3 0 3-2 4-1 4-2 6-2 7-1 7-2 7 0 7 0 8-1 8 0 26 1 9 0 20 0 10 1 10 1 10 1 9"/>
<path d="M4131 -12532l-2 1-2 2-3 2-4 4-3 3-2 6-4 6-2 7-2 7-1 7 0 16 1 9 1 9 2 9 2 9 7 18 3 9 5 9 5 9 6 9 7 8 5 8 7 7 7 7 8 6 8 6 8 4 9 4 10 3 9 3 11 0 10 0 11-1 12-2 10-3 11-4 11-5 10-6 11-7 11-7 11-8 10-9 18-18 9-9 8-9 7-10 6-10 6-9 5-9 3-10 5-8 2-9 2-9 1-8 0-9-1-9-1-8-3-8-3-7-4-8-5-8-7-7-7-7-8-7-8-8-10-7-10-6-11-6-12-6-12-5-13-5-12-4-13-3-13-3-14-2-13-2-13 0-12 1-12 3-13 3-11 5-10 5-10 7-9 8"/>
<path d="M4569 -12299l-1 0 0 1-1 0-1 0-1 1 0 3 0 1-1 3-1 2 0 3-1 4-1 4-1 6-1 5-1 6-1 7-2 6-2 7-1 7-2 8-2 8-3 9-2 8-2 10-3 9"/>
<path d="M4963 -12516l-1-1 0 0-1-2-1-1-1-1-1-1-1-1-1-2-1 0-1 0 0-1-5 0 0 1-1 0-1 2-1 2-2 3-2 3-2 4-2 5-3 6-2 6-3 7-3 7-3 8-2 8-3 9-1 8-1 10-1 9 0 9 1 20 2 9 3 10 2 10 3 8 5 10 4 8 4 8 6 8 5 7 6 6 7 6 7 6 8 5 7 3 8 4 10 3 9 1 9 2 10 0 10 0 10 0 10-2 10-2 10-3 10-3 10-4 10-4 10-5 10-5 9-7 10-5 8-6 9-6 8-7 8-7 7-8 6-8 7-8 5-9 5-8 4-9 4-9 2-9 1-8 2-9 0-8-1-8-2-8-2-8-3-8-3-7-4-8-5-8-5-8-8-7-6-7-8-7-8-7-9-6-9-6-10-5-10-5-11-5-11-3-10-4-11-3-20-3-9 0-10 1-8 1-10 2-9 3-8 3-9 5-8 4-8 6-6 4-6 6"/>
<path d="M5513 -12218l 0-1-1 0 0 0-1-1-1 0-1-1 0 1 0 1-1 0-1 2 0 3-1 2-1 4-1 5-1 6-1 6-3 7-1 8-1 9-3 8-2 8-2 9-2 9-1 9-3 8"/>
<path d="M5977 -12580l 0 1-1 1 0 2-2 1-1 2-1 3-1 3-2 3-1 3-1 4-1 3-1 5-1 4-1 5-1 6-1 6-2 7-1 7 0 9-1 8-1 8 0 26 1 7 1 8 1 8 2 7 2 8 2 7 2 7 3 6 3 6 4 5 3 6 4 4 4 5 4 4 5 4 4 2 6 3 6 2 5 2 8 1 7 2 7 0 7 0 7 0 8-1 9-1 7-3 9-1 8-3 8-3 8-3 8-5 9-4 8-4 8-6 9-4 8-6 7-6 8-7 7-6 8-7 7-7 6-8 6-7 6-8 5-8 4-8 3-8 4-7 2-8 2-8 1-8 1-7-1-7-1-6-2-7-3-7-3-6-5-7-5-7-5-6-7-7-7-8-8-6-9-7-10-7-10-7-10-5-11-7-11-5-11-4-11-5-11-3-11-2-12-1-11 0-12 2-11 1-12 2-10 2-10 4-10 3-7 3-7 5-6 3-5 4-5 4-3 5"/>
<path d="M6431 -12282l 1 0 0 17-1 5 0 6-1 6-1 7-2 7-2 8-3 8-3 8-4 9-3 10-5 10-5 10"/>
<path d="M6686 -12500l 0-1 6 0 2 1 3 0 4 1 4 0 5 0 30 0 5 0 12 0 7-1 6 0 6-1 6 0 7 0 13-2 7-1 6 0 7-1 5-1 6-3 7-2"/>
<path d="M6781 -12584l-1 1-2 2-1 1-2 2-1 3-2 2-1 4-1 4-1 3-2 4 0 5 0 5 0 13 0 6 1 7 2 7 1 7 1 7 2 7 2 6 1 7 3 7 2 6 2 7 2 6 2 7 2 6 3 7 2 5 3 6 3 6 3 5 3 4 3 4 4 5 3 2"/>
<path d="M7100 -12655l 0 2-1 2 0 2 0 3-1 4 0 6-1 6 0 15 1 9 0 31 1 12 0 12 0 14 0 13 1 13 1 13 0 13 1 14 1 12 1 13 1 12 1 13 1 12 1 13 1 12 1 11 1 12 1 12 2 11 1 11 1 10 3 10 2 18 3 10 2 9 1 9"/>
<path d="M3129 -11570l-1 0-1-1-4 0-1 0-2 0-1 0-1 0-1 1 0 1-1 0 1 0 1 1 0 1 1 1 1 1 3 2 1 1 2 2 3 2 2 2 3 1 2 2 3 2 4 1 2 1 3 2 5 1 3 1 5 2 4 0 5 2 5 0 23 0 7 0 5-1 6-1 7-1 6-2"/>
<path d="M3366 -11731l 0 1-3 3-1 2-1 2-2 3-2 4-1 4-1 6-1 6-1 6-1 7 0 8 0 8-1 9 0 54 1 12 0 25 0 14 0 12 1 13 1 12 1 13 0 13 1 14 1 13 1 13 2 14 0 13 2 13"/>
<path d="M3662 -11299l 1 3-1 4 0 9-1 6 0 8-1 8 0 8-1 8-1 7-1 19-1 9-2 10-1 10-2 10-1 12-2 10-2 12"/>
<path d="M3921 -11480l-1-1 0-1 0-1-1 0-2-2 1-1 3 0 1 0 3 0 2-1 3-1 2 0 8-1 4-1 3 0 5-1 5 0 5 0 5 0 5-1 6-1 7 0 5-1 7-2 6 0 7-2 6-2 7-2 6-2"/>
<path d="M4159 -11670l 0 4-1 3 0 7 1 5 1 4 0 5 1 5 2 5 1 6 2 6 2 7 3 7 3 7 2 8 3 9 4 9 2 8 3 9 3 8 3 9 3 10 3 9 3 9 3 10 3 10 4 10 2 10 3 10 2 10 3 10 2 12 3 10 2 10 3 11 2 10"/>
<path d="M4586 -11286l 0 7-1 4 0 8 0 5-1 5 0 6-1 6-1 5-1 6-1 7-1 7-2 8-2 7-2 8-2 8-3 10-2 9-3 10"/>
<path d="M5121 -11592l-4 0-3 1-4 0-3 2-5 1-4 3-3 2-4 3-4 4-3 4-3 5-4 5-3 7-3 7-3 7-3 8-3 8-2 9-2 9-1 10-2 10 0 10 0 30 0 10 2 9 2 9 2 8 3 8 3 8 5 7 4 5 5 5 4 5 7 2 6 3 7 1 7 1 8 1 8-1 9-1 8-2 9-2 8-3 8-4 8-3 8-4 8-6 8-6 8-6 7-8 7-7 7-7 7-8 7-8 6-10 5-7 4-10 4-8 3-9 1-9 1-8 0-9-2-7-2-7-3-8-5-7-5-7-5-7-7-7-8-7-8-6-9-8-10-6-10-7-10-6-10-7-10-5-10-5-10-4-10-2-10-2-10-2-8 0-9 1-8 2-7 0-6 2-5 3-5 3-5 4-3 4-4 4"/>
<path d="M5408 -11339l-1 1 0 3-1 3-1 2-1 4 0 4 0 25 0 6 0 7 0 6 0 16-1 8-1 9-1 10-2 10-2 10-1 11-2 11-2 11-3 10"/>
<path d="M5961 -11596l-2 1-2 1-2 2-3 2-3 3-4 3-3 4-2 5-3 5-2 6-2 7-1 7-2 7 0 8 0 17 0 9 2 9 1 10 2 10 3 9 4 9 3 10 5 9 5 8 5 8 6 8 6 7 6 5 7 5 7 4 9 3 8 3 8 1 9 1 9-1 10-1 9-2 9-3 9-4 9-5 9-5 8-6 9-8 8-7 15-15 8-10 7-8 6-10 6-9 7-10 10-20 3-10 3-10 3-9 2-9 1-10 0-18-1-9-3-8-2-8-5-7-4-8-6-6-6-6-7-8-8-6-8-6-9-5-9-5-10-4-9-4-9-2-10 0-10-1-11 1-12 2-10 2-11 3-11 3-10 4-10 5-8 4-8 6-7 5"/>
<path d="M6484 -11331l-1 1-1 0-2 3-2 1-2 3-2 3-1 4-2 4-1 5-1 5-1 5 0 5-1 6-1 6-1 6 0 7-1 7 0 7-1 7-1 6-2 8-1 10-1 8-2 8-1 8"/>
<path d="M6669 -11524l 1-1 0 0 3 2 2 0 4 0 4 1 4 1 5 1 6 1 12 0 6 1 7-1 6 0 14-3 7-1 8-1 6-1 7-2 7-1 6-3 6-2"/>
<path d="M6731 -11616l-1 1-2 3-2 3-1 4-3 5-2 5-1 7-1 6 0 20 1 6 1 6 1 7 1 6 1 7 2 6 2 7 2 7 2 7 2 6 3 7 3 7 3 7 3 7 3 7 4 6 3 6"/>
<path d="M7011 -11654l-1 0 0 1 0 2-1 2-1 4-1 4 0 11 1 7 2 8 1 8 1 9 2 10 3 10 2 10 3 12 2 11 3 11 2 12 3 12 3 12 2 14 2 14 2 13 2 14 2 15 2 15 2 16 1 17 2 15 1 16 2 16 2 16 2 15"/>
<path d="M2633 -11380l 1 1 0 3 0 3 1 4 1 5 1 6 0 7 0 8 0 18-2 32-1 12-2 12-3 13-2 13-3 13-2 13-4 14-3 14-3 13-4 15"/>
<path d="M2202 -11709l-19 0-5 1-4 0-3 1-3 2-3 1-3 2-2 2-2 4-3 3-2 3-2 5-3 5-3 7-2 8-2 8-3 9-2 11-1 12-1 12 0 13-1 12 1 13 2 12 2 13 3 12 3 10 4 11 5 10 5 10 6 9 6 8 6 7 7 7 6 6 7 4 7 3 7 3 7 1 7 1 7-1 9-1 8-3 10-2 9-5 9-4 10-6 9-7 9-8 9-8 8-9 9-11 8-10 8-12 8-12 8-13 7-13 7-14 7-15 5-14 4-14 4-13 2-13 1-12 0-12-1-10-2-10-3-10-5-9-5-9-5-7-7-8-8-7-8-6-9-6-10-6-10-6-10-4-11-5-12-3-11-3-11-2-13-2-11 0-12 1-12 2-11 3-10 4-10 6-10 6-9 7-10 8"/>
</svg>
