<svg xmlns="http://www.w3.org/2000/svg" viewBox="199 818 18360 21064" stroke="black" stroke-width="20" stroke-linecap="round" stroke-linejoin="round" fill="none" data-xena="0 0 0"><style>@media(prefers-color-scheme:dark){svg{background-color:black;stroke:white;}}</style>
<path d="M10263 4387l-4 4-5 4-6 5-5 7-7 7 4-4-6 6-4 7-5 6-4 9-4 9 2-6-2 7-2 7 1-6-1 6 0 7-1-7 2 7 3 6-3-6 4 5-5-5 4 4-5-3 5 3 8 1-6-1 9 0 9-1-6 1 9-2 9-3 9-4 11-5 10-5 11-5-6 3 11-7 9-6 9-7 8-7-5 4 7-6 4-6 4-6-3 6 3-6 1-6-1 6 1-6-1-5 1 6-1-4 2 6-3-4 4 4-6-4-8-4 6 3-9-4-9-4-8-4-7-2-7-3-7-2-8-1 7 1-7 0-5 0 6-1-4 2 10-7-4 3-4 4-3 5 2-4-1 5-2 4-2 2"/>
<path d="M10479 4391l-2 7-3 5-3 6-2 7-3 6-4 6-3 7 3-6-4 8-3 7-2 8-3 7-1 7 1-6-1 7 0 7 0-7 1 7 2 7 3 7-3-6 5 5-5-4 5 5 6 3-6-3 6 2 5 2-6-1 6 0-7 1 6-2 7-2 7-3 8-4-5 3 8-6 8-5 8-6 7-6 6-7-4 5 5-7 5-7 4-7-3 5 3-6 2-6 1-6-1 6 0-5 1 6-1-4-1-5 2 6-2-5-4-5 4 5-5-5-6-4-6-3 6 3-6-3-5-2-4-1-5-3-2-1-4-5-3-5-1-7 1-6 3-6 4-4 6-3 2-1 5-1 6-1 7-2 7-2 6-2 6-2 7-2 7-2 7-2 7-1 6-2 7-1 6 0 7 1 6 1 7 2 6 3 6 3 6 4 4 5 5 6 5 7 3 6 4 9 3 10 4 11 3 12 3 13 3 13 3 13 2 15 1 6 3 15 3 15 2 16 2 15 2 15 1 14 0 13 1 12-1 12 0 14-1 14-1 13-2 13-1 6-2 11-2 10-3 8-2 7-3 5-3 5-5 4-5 3-4 1-6 1-6-1-6-3-4-2-4-5-3-6-3-6-3-9-1-6-1-11 0-12 0-13 1-13 1-14 1-15 2-17 2-19 3-21 3-20 1-6 3-21 4-20 4-20 5-20 5-17 5-15 5-12 5-11 3-6 5-9 5-7 5-5 5-5 6-5 7-5 6-4 6-3 7-3 6-3 6-2 5-2 6-1 6-1 6 0 6 0 7 0 6 1 7 1 6 3 5 2 6 4 4 4 4 4 3 6 2 5 1 6 0 6-1 6-1 6-3 6-3 5-4 6-5 5-5 6-6 6-4 5-6 5-6 6 5-4-6 7-6 6-5 6-4 6 3-5-2 5 1-6 0 5-4-12 3 4-10-8 6 2-6-1 8 0 9-1-6 1 9-3 10-3 10-5 10-5 9-5-5 3 9-5 10-6 10-6 13-8 14-9 14-10 14-9 14-9 13-9 12-9 10-8 8-7 6-7-4 5 4-6 4-6-3 6 3-5-1 6-1-5 4 12-2-4 10 8-5-2 7 1-6-1 6-1-5 2 5-3-5 3 5-5-4 5 3-6-2 6 1-7 1 7-1-7 2 7-3-6 4 6 4 6 5 5 6 5-5-4 6 5 6 4 7 5 7 5 6 5 4 5 6 6 4 6 3 6 2 7 1 6 1 7-1 6-1 7-2 6-3 5-4 6-5 4-5 5-6 4-7 4-6 3-8 3-8 3-8 3-9 2-9 1-6 1-8 2-8 1-7 1 6-1-5 1 6-3-2 1-6-35 3 1-6-1 7 1 9 1 9-1-5 1 11-1 11-2 12-3 12-3 13-4 13-3 13-3 3 0"/>
<path d="M11185 4428l 6-1 6-1 7 0 6-1"/>
<path d="M813 8910l-1 11-2 13-2 16-1 19-3 20-2 21-1 6-3 20-3 18-4 17-3 19-4 20-4 21-4 22 1-5-4 22 0 5-4 21-3 21 1-5-3 19-1 16-1 4"/>
<path d="M1005 8964l-4 8-5 10-4 10 2-4-4 12-3 13-4 13-4 12-4 12-3 10-1 10 1-6-1 9 1 9-1-6 2 9 4 9 4 10-3-6 7 9 8 9-5-4 10 8 11 8 13 6-6-2 14 6 14 5 15 4 15 3-6-1 15 2 15 1 14 0 14-1-6 1 13-2 13-4 12-5 12-5-6 3 11-7 10-8 10-9-5 5 9-11 7-13-3 6 5-14 3-16-1 7 0-16 1 7-3-16-6-16-8-15 3 6-8-14-10-12-10-13-12-12 5 4-14-12-16-12-17-12-19-11 6 2-19-9-19-7-19-4 6 1-18-3-16-2-14 1 4-1-14 4-14 6 4-2-13 9-12 10-2 1"/>
<path d="M2201 8818l-1 9-1 11-1 12-1 14-1 16-1 18-1 20-2 20-2 21-2 21-1 21-2 21-1 20-1 19-1 17-1 17-1 16-1 16-1 2-1 3"/>
<path d="M3294 8848l-3 5-2 7 2-6-2 7-3 8-3 9-2 13-2 13-3 14-2 16 1-7-3 18-3 19-2 19-3 18-2 18-1 14-1 15-2 16-1 16-2 14-1 11-1 8 0 3-2 3"/>
<path d="M3521 8962l-2 9-3 9-2 11-3 11-3 12-2 14-2 14 1-6-2 13-1 13 0 10 1 9-1-6 2 9 3 9 4 8-3-5 6 7 7 8-5-5 8 6 9 6-5-3 10 4 11 2-6-1 12 2 14 0 15-1 16-3-7 1 17-3 17-5 16-6 16-6 15-6 15-7-6 3 15-9 14-11 13-12-5 5 9-12 7-12-3 6 3-12-1 6 1-12-1-13 1 6-4-14-5-14 3 5-9-14-10-15-13-13 4 5-14-12-15-10-15-8 5 3-14-7-15-5-15-3 6 1-15-2-14 0-12 0 6 0-11 1-10 2-9 3-8 4 4-2-7 5 3-3-6 7-6 8-2 2-3 2"/>
<path d="M4776 8812l 0 9-1 10 0 12-1 13-1 14-2 15-1 17-2 17-3 18-2 19-3 20-1 20-2 18-2 14-1 5-1 13-3 13-2 15 1-4-2 18-2 16-1 3"/>
<path d="M5764 8836l-1 7-2 8-2 9-2 9-1 9-2 11 1-6-1 11-2 13-2 13-1 14-2 14-2 16-2 15-2 16-2 16-3 16-2 15-1 5-2 14-3 13-2 12-2 12-3 11-1 3"/>
<path d="M6097 8889l 4-4-5 6-4 8 3-5-4 9-4 12-4 12-4 14-3 15-2 16 1-7-1 17 0 16 2 15-1-6 3 14 3 12 5 11-3-5 6 10 8 8-4-4 9 7 10 6 9 5-5-3 10 4 10 3 10 2-6-1 11 0 12 0 12-1-6 0 13-2 13-4 13-5 13-6-5 2 13-7 12-9 12-10 11-11-4 4 9-11 8-12-3 5 6-12 4-14 3-15-1 6 0-15-1-15 1 7-3-15-5-13-7-14 3 6-9-13-10-11 5 5-11-8-11-6 6 2-12-5-13-3 6 1-12-1-13 1-12 2 5-1-12 2-13 3-12 5 4-2-11 7-12 7-12 7-4 2-3 1"/>
<path d="M763 10589l-3 2-4 2 5-2-4 3-3 3 4-4-3 4-3 6 3-6-3 7-3 8-3 8-2 10-2 11 1-7-1 12 0 11 0 12 1 12 2 13 2 14-1-6 3 14 4 15 5 16 6 15 6 15 8 14-3-6 8 14 9 12 9 12 9 11 10 10-4-4 10 8 11 6-6-3 12 5 12 3 13 2-7-1 13 1 14-2-7 1 15-3 14-5 15-7-5 3 15-8 14-9 14-11 15-11 13-13 14-13-5 4 13-14 11-15 9-15 8-14-3 6 5-14 3-14-1 6 1-13-1-13 1 6-4-14-5-13 3 5-8-13-11-14-11-12 4 4-12-12-14-11-14-10-15-8 5 3-15-7-15-5-15-4-13-2 6 1-14-1-13 0 6-1-13 2-13 4-12 5 5-3-13 7-13 8-13 10-14 12-14 12-16 15 3-3-17 17-3 3-3 2"/>
<path d="M1852 10504l 1 9 1 11 1 14 1 14 2 16 1 16 2 18 2 17 1 18 1 16 2 18 1 18 2 18 1 18 0 19 1 20 0 19 0 20 0 19 0 18 1 17-1 4"/>
<path d="M3030 10487l 3 5 1 7 2 7 1 6 1 8 1 9 1 11 1 12 0 13 1 15 0 15 0 15 0 16 1 15 1 14 0 14 0 14 1 15 0 15 0 16-1 17 0 18-1 18-2 19-2 18-1 4-3 20-4 22"/>
<path d="M700 11602l-2 6 2-5-2 6-3 8-2 8-3 9-3 10-3 12-4 13-3 15-3 16 1-6-2 18-2 20-3 20-3 22-1 5-4 23-4 23 1-6-4 24-3 22-4 22 0 5-4 19-2 17-2 14 0-3-1 12-1 11"/>
<path d="M878 11712l-2 7-2 8-2 9-2 9-1 11 1-7-1 11 0 11 0 11 0 12 2 12-1-6 4 12 4 12 5 11-3-5 7 10 7 9 8 9-5-4 9 7 9 6-5-2 10 4 10 4 11 2-6-1 12 0 12-1 14-2-6 1 14-4 15-6-6 3 15-9 14-9 13-11 12-12-5 4 11-13 9-14 8-14-3 5 7-14 4-14 4-13 2-14-1 7 0-13-2-12 1 6-3-11-6-11 3 5-7-9 4 4-9-8-11-8-11-8 6 3-13-6-12-5-13-4-12-2 6 1-11-1-11 0 6-1-11 2-10 3-10 4 5-2-10 6-9 7-9 7-3 2-3 0"/>
<path d="M1863 11554l-1 10-2 11 1-7-2 13-1 13-2 14-1 14-2 14-2 15-3 16-2 17-3 19-2 19-3 21-2 20-1 5-3 19-3 17-3 16"/>
<path d="M2034 11593l-2 7-1 9-2 9-3 10-2 11-2 11-2 12 1-6-1 12-1 13 1 13 1 14-1-6 3 13 4 13 5 13 7 12-3-5 7 12 8 11 9 10-4-4 9 9 11 8 10 7 11 6-6-3 12 4 11 2-7-1 11-1-6 1 11-3 11-4-6 3 12-7 11-9 12-11 12-11-5 4 12-12 10-14 10-13 8-13 8-14 6-12-3 6 5-12 3-11 2-10-1 7-1-10 1 6-2-9-3-10 2 6-5-9-7-9-9-9 4 4-10-9-11-8-11-8-11-7-11-6 5 3-11-5-11-3-11-3 6 1-12 0-11 1 5-1-11 2-11 4-10 5 5-3-10 6-8 5-8 6 3-2-7 6-6 8-2 2"/>
<path d="M3133 11487l 3-6-1 5-1 5 1-6 0 5-1 7-1 6 1-6-1 7-1 8-1 9-1 10 0 10-1 12 0 12-1 12-1 12-2 12-1 13-3 12-1 6-2 12-3 13-3 13-3 14-4 14-4 14-4 14-5 12-4 11-1 4-3 2"/>
<path d="M3315 11448l-1 6-2 8-2 8-3 10-3 10-3 11-3 12-3 12-2 14-2 13 1-6-2 14-1 14 0 13 0 13 2 11-1-6 3 10 4 9-3-5 6 8 5 8 6 7 6 6-5-5 7 6 8 5-5-3 9 4 9 3 10 2-7-1 11 0 10 0 12-1-7 1 12-2 11-3 11-5-6 3 11-6 10-7 10-9-5 5 9-10 8-11 7-12 7-12-3 5 5-13 4-14 3-14 2-14-1 6 2-14 0-15-2-14 1 7-2-14-3-12-4-11-5-10 3 6-6-9-6-7 4 5-7-6 6 3-8-4-9-2 6 1-9-1-10 0 6-1-11 2-11 3-12 3-11 5-12 6 5-3-11 7-9 7-9 7-8 7-7 6-6 5-3 1"/>
<path d="M842 12415l-2 9-2 12 1-6-1 14-2 15-1 17-1 18-1 19 0 19 0 19 0 18 1 18 2 17 3 16-1-7 3 16 5 14 5 12 6 12-3-5 6 10 7 9 8 8-4-5 8 7 10 4-6-2 10 3 10 1-6-1 11 0 12-1-6 1 12-3 13-4 13-6 14-6 13-7-5 3 13-7 14-8 12-9 12-9 11-9 10-9 9-10-4 5 8-10 7-10 7-11 5-11-3 6 5-12 4-13 3-14-1 7 2-15 1-15 0-15-2-15-2-16-2-15 1 6-4-15-4-14-5-14-5-13-6-12 3 5-6-10-6-9-6-7-6-7 5 5-6-6-6-4-5-4-5-3 5 3-5-2-4-2-5 0-3-1-5-3-5-5-3-5 0-2-1-6 1-6 3-6 4-4 3-2 5-3 5-1 4-1 6-1 4 0 6 1 6 3 4 4 1 3 3 5 1 7 0 3-1 7-1 4-2 5-3 6-3 6-3 8-4 8-3 8-4 9-3 8-4 9-3 8-3 8-3 8-2 6-2 5-1 3-3 5-4 5-6 3-6 1-7-1-5-3-5-5-3-5-1-7 0-1 1-6 1-5 2-6 2-7 1-8 2-8 1-8 2-8 2-8 1-8 2-7 2-6 2-6 1-5 2-6 2-4 2-5 3-6 2-4 2-3 2-4 3-3 3-4 3-3 5-4 3-4 4-3 4-2 4-3 6-2 4-3 5-1 5-1 6-1 5-1 5 0 6 1 6 1 6 1 6 2 7 2 7 3 7 3 5 3 7 3 6 4 7 4 6 4 5 5 6 5 5 5 6 4 5 5"/>
<path d="M3876 11612l 7-4-4 3 4-3 5-2 4-2 5-3 6-1 6-1 6-2 7-1 7 0 8-1 8 0 8 1 6 1 7 1 6 2 6 2 7 1 6 3 5 3 6 3 5 3 4 5 5 4 3 4 3 6 2 5 2 7 1 6 1 9-1 10-1 11-1 7-3 12-4 15-4 18-5 18-5 20-6 21-7 21-7 22-6 21-6 20-5 19-5 18-3 15-2 15 1-7-2 14 0 12 0 11 1 10-1-6 2 9 3 8 3 6-3-6 4 6 4 5 4 4 4 4-5-4 4 4 5 3 5 3 5 3-6-3 5 2 5 2 5 2 4 2 6 3 4 2 4 3 4 4 3 4 2 6 2 4 1 4 2 5 1 4-2-4 2 5 2 4"/>
<path d="M4045 12240l 5-1"/>
<path d="M9449 6313l 0 13 1 15 0 16 1 17 0 17 1 18 1 18 1 17 1 17 1 16 1 16 0 14 0 14-1 13-1 15-2 16-1 19-1 19-2 20-1 21-1 22-1 21-1 20 0 2-1 3"/>
<path d="M10183 6367l 7-4 9-4 12-4 12-3 6-1 14-2 14-2 15-1 17-1 16 0 17 1 16 1 6 1 16 3 16 3 14 3 14 4 14 4 13 4 12 4 12 4 5 3 10 5 7 5 5 5 6 5 4 7 3 5 2 8 1 6 0 8-1 6-2 10-4 10-3 6-7 10-8 11-10 12-5 4-11 12-13 11-15 12-16 11-18 13-18 12-19 14-19 14-18 14-15 13-14 13-12 11-10 10 4-4-8 8-6 8-4 7 3-6-2 6 1-6-1 6-1-7 1 5-3-5 3 4 4 4-5-5 5 4 5 3-6-3 6 2 8 3 9 2 10 2 11 2-6-1 12 2 13 2 14 2 14 1 14 2 14 1 15 1 15 1 17 1 18 0 3 1"/>
<path d="M11352 6428l 2 10 2 10 2 10 1 7 2 10 2 11 1 11 2 12 0 12 0 12 0 11-2 11-1 11-2 10-1 12-1 10-2 11-1 9 0 10-1 3-1 2"/>
<path d="M12078 6376l 7-1 8-1 9-1 9-2 11-1 11-1 12-1 13-1 14-1 15-1 15 0 14-1 15 0 13 0 13 1 12 1 11 1 7 1 9 2 8 1 7 2 6 3 4 3 5 4 2 4 3 5 1 7 0 4-1 7-2 5-3 6-4 7-6 8-5 4-8 8-10 10-13 10-14 11-16 11-17 11-17 12-18 13-18 12-17 12-15 12-15 11-13 11-12 11-10 9 5-4-8 8-6 7-4 6 3-6-2 6 1-7-1 6-1-6 2 5-3-5 5 5-5-4 7 4-6-3 9 2-6-1 11 0 12-1 15-1 16-1 19-2-7 1 20-4 21-4 22-6 21-5 23-6 24-4 5-1 23-4 23-3 23-3 22-3 21-3 22-1"/>
<path d="M13162 6325l 1 6 2 13 3 15 3 16 3 17 2 18 4 17-1-6 3 16 3 16 3 16 3 15 2 14 1 6 2 15 2 16 1 16 1 16 0 17-1 16-1 14-1 13-1 4-2 14-2 14-2 14-3 14"/>
<path d="M13113 8784l 1-6 0 7-1 9 1 10 1 14 2 16 3 19 3 21 3 23-1-7 4 24 5 23 6 22 6 21 6 19 6 17 6 14 6 13-3-6 7 12 7 11 8 12 8 12 10 12 10 13 12 12-4-4 13 12 15 12 15 12 15 12 16 11 16 11 17 10 16 10 16 8-5-3 15 8 16 6 15 4 15 4-6-1 15 2 16 0 17 0 17-2 19-3-7 1 20-4 19-5 20-5 21-7 21-7 21-8 21-9 20-9-5 3 19-11 18-10 17-11 16-11 16-11 18-12 19-14 20-14 20-14 18-14 18-13 17-13 16-14 17-13 16-14 14-15-4 4 13-15 13-16 11-17 11-17 10-17 8-17 8-16-3 6 7-15 6-14 5-12 4-12 4-10 3-9 3-8 2-8 2-8 1-7-1 7 1-7 0-6 0-6 0-6-1-6 0-6-1-6 1 6-1-5-2-4 7 10-3-2 12 4-4 0 6-1-5 2-6 2-6 2-6 2-6 3 6-3-6 3-5 4-6 3-6 4-7 4-7 5-8 5-8 5-8 5-9 5-8 5-8 5-8 4-6 4-6 3-5 2-1 1-6 1-7-1-5-3-5-5-3-5-1-7 1-6 3-5 5-5 4-2 8-5 11-6 11-6 13-8 12-7 13-7 6-3 13-7 13-6 13-6 13-5 11-5 11-4 9-4 9-4 9-4 8-3 7-2 7-2 7-1 7 0 6 1 6 1 6 3 6 3 5 4 4 5 4 4 3 6 3 6 3 6 1 7 2 7 1 7 1 8 0 8 0 7 1 7 0 7 0 6 0 7 1 6 0 6 0 6-1-6 1 7 2 7 1 7 2 6 2 6 3 6"/>
<path d="M14923 8121l-1-6 0-8-1-8 1-9 1-11 1-6 1-10 1-10 2-11 2-10 1-9-1 6 1-10 1-9-1-9 0-8 1 6-2-8-2-7-4-6 3 5-4-6-6-5 5 4-7-5-7-4-8-4 6 2-8-3-9-2 6 1-10 0-11 2 7-1-12 3-12 4-12 6 6-3-12 7-13 9-13 11-12 12 5-4-12 14-12 17-11 19 3-6-10 22-10 24-9 25-9 26-8 24-6 22-6 20-4 19-2 16 1-7-1 14 0 12-1-6 2 10 4 8-3-6 5 7-5-5 7 5-6-3 7 2-6-1 8 0-6 1 9-1 10-4 12-5-6 3 13-7 13-9 14-10 15-12 15-13 14-14 14-14 14-13 13-13 12-12 11-11-5 4 10-10 8-9 6-8 6-8 4-6 2-5 5-4 2-1 5-3 6-1 7 1 5 3 5 4 3 6 1 3 1 7 1 6 1 8 1 9-1-6 2 10 2 10 3 11 3 12 3 11 4 12 4 12 4 11 4 10 5 10 5 10 5 10-3-5 4 10 5 9 5 10 5 9 5 9 6 9 6 8 5 5-3-3 5 5"/>
<path d="M15064 7974l-1-3 1-6 0-3 1-4 3-5 1-3 3-4 2-4 4-4 3-4 4-3 5-4 5-3 6-3 6-3 6-2 6-2 7-1 6-2 7-1 6-1 7 0 6 1 6 1 7 1 6 2 6 2 7 3 5 3 6 4 5 4 5 5 4 5 3 6 3 6 3 7 3 8 2 10 1 6 2 11 0 12 1 13 0 14-1 14 0 16-1 15 0 16 1 15 1 14 1 14 2 14-1-6 3 13 3 12 4 11 4 11 5 11-3-6 6 9 7 9 7 8 7 7-5-4 8 6 7 6 9 6 8 5-5-3 10 5 11 4 12 4 12 2-5-1 11 0 10-1-4 1 11-3 11-5 3 0"/>
<path d="M15412 7878l-2 5-4 5-4 6-5 7-6 7-6 9-7 9-8 10-10 10-4 5-11 11-13 13-14 14-15 15-17 16 4-5-16 17-16 19-17 20-17 20-16 21-15 20-14 20-12 18-11 17-11 14-11 14-8 10-7 7-2 2-2 1"/>
<path d="M15637 7973l 8-2 8-1 8-2 9-2 9-2 11-1 6-1 10-1 10-2-5 1 11-1 13-2 5-1 14-2 14-2 16-2 17-2 18-2"/>
<path d="M16060 8118l 7-7 7-8 9-8 10-10 11-11 12-12 13-14 15-14 16-16 17-16 18-17 19-16 21-18 20-19-5 5 20-21 18-22 17-25 15-26 14-26 14-27-3 6 13-26 11-25 11-24 9-24 8-24 7-23 5-24 5-23 3-23-1 6 3-22 2-20 2-17 0-16-1-13-1-11 1 6-2-9-2-7 3 5-4-5-3-3 10 7-4-2 6 1-4 1 6-1-5 2 5-3-5 5 4-4-6 7-6 10-7 13-8 14 3-5-8 16-8 18-9 19-8 20-9 22-9 24-9 30-9 36-7 39-6 40 1-6-4 39-1 36 0 33 2 29 3 27-1-7 4 24 6 22 6 20 7 19 7 18 8 17 8 16 8 16 8 14-3-5 8 13 7 11 7 9-4-4 8 7 8 5-6-3 8 3-6-1 8 0-7 1 8-1 7-3-6 3 7-5 7-7-5 5 7-9 6-9 6-11-3 6 5-13 4-12 4-14 2-12-1 6 1-13-1-12 1 6-2-12-4-12-6-11 3 5-7-10-8-10-8-10 4 5-9-9-9-8-9-7-8-5-8-5 6 3-8-3-7-4-7-2-7-2-6-2-5-1-6-3-4-4-1-2-3-6-1-6 1-6 3-5 4-5 6-3 5-1 5-1 8 0 11-1 12 0"/>
<path d="M13061 7920l-1-4 0-4 0-4 1-6 1-4 0-5 1-4 1-3 1-4 2-4 3-6 1-3 3-3 5-5 5-3 4-1 6-1 4 0 6 1 6 3 4 3 5 4 4 4 4 6 4 7 3 6 4 8 3 9 3 11 3 10 2 12 1 6 2 12 1 13 1 14 0 15 0 15 0 15-1 15-1 15-2 15-2 14-1 14-2 12-1 6-1 10-2 9-2 6-3 6-1 2-4 4-6 3-6 1-7-1-5-3-5-4-3-6 0-2-1-7-1-6 1-9 1-12 0-6 3-13 2-15 4-15 3-15 4-17 5-15 5-15 5-15 6-14 5-14 6-13 3-6 7-12 7-11 6-11 7-10 6-8 5-8 5-5 4-5 5-4 6-3 5-2 6-1 6 1 6 1 6 2 5 3 6 3 5 5 5 4 4 6 5 7 4 8 3 5 3 8 3 9 3 9 1 6 1 10 1 10 1 11 0 11-1 12-1 12-2 12-1 6-2 12-1 11-2 11-2 10-2 8 1-7-1 6-1-6 1 3-31-11 3-1-5 4 5-5 6-8 6-9 6-11 7-12 7-12 7-13 7-12 7-12 7-11 7-11 7-11 7-10 6-9 6-9 5-8 5-7 4-6 3-5 5-4 4-2 5-3 7-1 6 1 4 1 5 2 4 3 5 4 3 4 3 4 3 6 2 5 2 7 2 7 1 8 1 9 1 6 1 8 1 9 1 9 1 10 1 11 1 12 2 12 2 11-1-3"/>
<path d="M13629 7846l 3 3-5-4-5-4-6-3-6-3 5 3-6-2-7-1-8-2 6 1-8 0-9 0-9 1 7-1-10 3-8 3-10 4 6-3-9 5-9 7-10 7-9 9 5-5-8 10-8 11-8 11-7 11-7 12-5 10-5 10 3-6-4 9-3 8-3 8-2 6 1-6-1 6-1-7 1 4-3-5 3 3-5-5 4 3-5-3 5 0-7-1 6 0-6 1 6-2 7-3 9-4 9-4-6 3 10-6 11-8 12-9 13-11 13-10 12-10 11-10 10-9 9-9 7-7 6-5 5-5 4-4-4 4 3-4 3-4 2-4 2-1 4-4 6-3 6-1 6 1 6 3 5 4 2 6 1 2 1 6 0 5 0 6 0 8 0 7 0 8 1 8-1-6 2 8 2 8 2 8 3 7 3 8 3 7 4 7-3-5 4 6 4 7 5 6 4 6 5 5 4 5-4-4 5 5 5 4 5 4 4 4 5 3 4 2-4-2 6 2-4 0 7 0"/>
<path d="M13784 7859l-1-6 2 5 2 7-3-6 4 7 5 7 5 7 6 7 7 7 6 7 6 8 7 7-4-4 7 8 8 7 9 8 8 8 4 4 9 10 9 11 9 11 7 10 5 8 4 7 2 3 0 2"/>
<path d="M13921 7785l-6 5-6 7 4-4-7 9-7 10-8 13-9 14-10 14-10 16-11 17-10 18-11 17-10 17-12 18-11 19-11 21 2-5-12 23-11 24-11 25-11 25-10 25-1 3-2 2"/>
<path d="M15136 8395l-2 7-2 8-1 8-2 8-1 10 1-6-2 10-1 11 0 11-1 11 1 12 0 9 0-6 1 8 1 5-3-5 2 4-4-4 4 3-5-2 6 2 4 2 3 3"/>
<path d="M15101 8249l 5-2-6 3-5 2-6 3-5 2 10-30 2 3 2 5 1 6-1 5"/>
<path d="M16635 8285l-1 6-1 7-1 7-2 7 1-6-1 8 0 8-1 8 0 9 0 9-1 10 0 10 0 11 1 11 0 12 1 11-1-6 2 9 2 8 3 7 2 6-3-5 4 5 4 5-4-4 4 4-5-3 6 3-6-1 7 2 8 0 8-2-4 1 8-3 8-4-4 2 8-5 3-2 4 0"/>
<path d="M16689 8097l 5-3-4 3 8-15-1 5-1 6-3 5-4 4-5 3"/>
<path d="M13444 8380l 1 6 1 6 1 7 1 7 1 8 0 7 0 8 0 8 0 8 1 8 0 8 1 8-1-6 2 7 1 8 1 6 1 8 1 8 1 8-1-6 1 7 2 6 2 6 1 5 2 5-3-5 2 4-4-4 3 4 4 2-4-2 4 1-4-1 6-1-3 1 8-3 3-1"/>
<path d="M13442 8273l-1 6"/>
<path d="M14631 9482l-1 5 1-8 1-5 1-8 2-10 3-9 3-10 4-9 3-6 5-9 5-9 6-8 5-8 6-6 6-6 4-5 5-5 6-3 5-3 6-2 6-1 6-1 6 1 5 1 5 2 5 3 5 3 5 4 4 4 5 6 4 7 3 6 5 8 4 10 4 11 4 12 4 13 4 13 4 14 4 14 5 13 3 13 4 14 4 14 5 14 5 14 4 13 5 13 5 12 6 13 5 12-3-6 7 11 7 11 6 10 6 9 5 8 5 7-4-4 6 6 6 4 6 4-4-2 7 2-5-1 7 1-4 1 8-1 7-4-3 2 8-5 3-2"/>
<path d="M14883 9424l-8 8-10 9-11 11-12 13 4-4-11 13-12 15-12 16-11 15-12 14-13 15-13 16-13 16-14 17-16 19-17 18-16 18-16 17-19 18-24 24-20 23-2 2-3 1"/>
<path d="M15506 9468l-5 7-5 7-5 8-5 9-5 9-4 9-5 9-5 9-5 9-4 9 3-5-4 9-3 9-3 10-2 10-2 9 1-6-1 10 0 9 1 8-1-6 2 9 3 9-3-6 4 9 5 8-4-4 7 7 7 6 9 6-4-2 10 4 11 4 12 3 12 3 3 1 3 3"/>
<path d="M15761 9423l-4 1 5-1-4 2 5-2-4 2-3 4-4 4 4-4-3 5-4 6-4 6-4 6-5 8-4 8 3-6-4 9-4 10-4 10-4 10-3 10-3 9-2 10-2 9 1-7-1 9 0 8 2 7-1-6 2 8 2 7-3-6 4 6 4 6-5-5 5 5 5 3-5-3 5 2 6 1-6-1 7 0 7-1-6 1 8-2 8-3 9-4-6 3 8-5 9-5 7-6 8-6 6-6-4 4 6-6 5-6 4-6 3-6-3 6 2-6-1 6 1-5-1-6 1 7-2-5 3 5-2-4-4-5-4-5 4 5-4-4-5-4-5-3 5 3-5-3-5-1-5-1 6 1-5 0 7-1-5 1-4 2 5-3-2 3 7-11-1 2-19-27 2 0-6 1 4-1-5 3 5-3 6-4 7-4 6-5 7-5 7-4 7-4 7-5 8-4 8-5 5-2 8-5 8-3 7-4 6-3 6-2 5-2 5-2 6-2 5-1 6-1 6 0 5 0 6 1 6 2 5 2 6 3 5 3 5 4 4 4 5 4 4 5 3 4 3 6 3 5 3 6 2 7 3 7 2 8 2 7 2 8 1 6 1 8 0 9 1 8 0 8 0 8 0 8 1 7 0 7 0 7 1 6-1-7 1 5 2 4-8-10 4 2-12-4 4 0-6 1 5-2-5 3 6-4 7-5 7-7 7-7-4 4 7-8 8-9 8-10 8-9 7-9 6-9 6-8 6-7 4-6 5-4 4-4 6-2 6-2 4 0 6 1 6 3 5 4 3 4 3 5 2 6 2 7 1 7 1 7 1 8 1 7 0 7 1 6-1-6 1 6 3 5-3-6 3 5 4 4-5-5 5 4-6-3 6 2 6 2 6 2-6-1 6 0 7 0 7-1-7 1 7-1 8-3 8-3-6 3 8-5 8-5 8-7 8-7-4 4 7-7 6-9 6-9 6-9 5-10 5-10-3 6 5-10 4-10 3-9 2-8 2-8 2-8-1 6 1-7 0-7-1-6 1 6-1-4 7 10-2-2 24 0-3 2 4-4-2 5 3-5-2 7 1-7 0 9 0 8-1-6 2 8 3 7 3 6-3-5 4 6 4 6 5 5 5 6 5 6 5 7 6 6 5 6 6 5 5 5 4 5 5 5 3 4 3 5 3 6 2 5 1 6-1 6-1 5-3 5-3 4-5 5-4 3-6 3-6 2-7 2-8 1-6 1-8 1-8 1-9 0-9 0-8 0-7-1-6-1-6 0-5-3-2-1-4-5-3-5-1-7 1-6 3-6 4-4 6-3 3-2 7-2 8-2 7-1 10-1 10-2 10-1 11-1 10-1 11-1 10-2-5 1 11-1 10-2 10-2 10-3 9-4 9-3 9-4 9-5 4 0 3 0 3 2 3 2"/>
<path d="M16470 9213l 1 7 0 7 0 8 0 9 0 9-1 11 0 11-1 12-1 13-1 14-1 15-1 16-1 17-1 19 0 18 0 18 0 17-1 17 0 15 0 13 0 12 0 10 1 9 0 9 0 7 1 6-1-6 1 6 2 5-7-10 4 5 4 4-5-3 6 3 7 1-5-1 8 0-4 1 8-3-4 2 9-5 9-7 8-7 3-1 3 0"/>
<path d="M16357 9364l-5 1-5-1-4 0-4-3-4-3-3-5-1-6 1-5 3-5 4-5 4-4 8-7 9-6 6-3 11-6 13-6 14-6 16-6 18-6 19-6 21-8 23-8 23-8 26-8 26-7 26-5"/>
<path d="M16958 7945l 8 0 8 0 8 0 9-1 9 1 8 1 9 1 10 1 10 0 11 1 11 0 11 1 12 0 11-1 3 0 2 2"/>
<path d="M17307 7872l 4 7 3 7 3 8 2 9 2 9 2 10 1 6 2 11 1 10 1 11 1 12 0 14-1 13 0 13-1 13 0 12 0 12 0 10 2 10-1-7 2 8 3 6-3-6 4 5-10-7 6 2-6-1 8 0-7 1 9-4-6 3 9-6 10-8 10-10-4 5 10-12 11-13 11-14 12-16 11-15 11-16 11-16 10-16 9-17-3 5 8-17 7-18 7-17 6-17 6-16 4-15 5-12 3-10 2-7-1 6 0-1 40 6-2 4-3 9-2 12 1-7-1 13 0 13 1 14 1 14 3 15-1-6 3 15 3 15 3 16 4 15 3 15 3 17 4 17 1 6 3 18 2 20 1 22 1 24-1 25-1 26-2 26-2 25-1 7-3 24-5 24-6 23-8 22-8 23-8 23-9 23-10 24-10 23-11 24-10 22-3 6-11 20-11 18-10 16-11 13-5 5-10 10-9 8-6 3-9 4-6 1-9 1-6-1-8-1-6-3-7-4-7-6-5-5-5-8-3-6-4-11-3-13-1-6-2-16 1-19 3-21 1-6 5-23 7-24 9-24 11-24 11-25 12-25 3-6 13-27 15-28 16-29 17-28 18-28 20-27 22-25 4-4 23-22 23-20 24-17 23-16 22-12 20-11 18-9 4-2 16-8 14-6 13-5 3-1 4 0 3 2 2 2 2 4"/>
<path d="M16956 8145l-4-4-2-5-1-5-1-5 1-6 2-5 4-8 6-9 9-10 4-4 11-11 13-11 15-12 17-13 19-14 22-16 24-16 27-18 31-17 6-3 35-19 37-19-5 2 37-20 36-23 34-25 32-26 32-26 33-26 35-24 37-22 37-20 5-3 37-19 34-16 31-13 28-12 24-10 22-10 20-9 20-7 18-6 19-6 17-4 16-3 5-1 13-1 13 0 11 0 9 1 3 0"/>
<path d="M15033 9705l-2 6-1 8-3 9-3 9-4 9-5 10-5 10-2 4-5 11-6 10-8 10-7 10-2 2-3 2"/>
<path d="M15149 9463l-2 7-1 8-2 9-1 9-2 9 1-6-1 9-1 9 0 9-1 9 0 8 0 8 0 8 1 7 0 6-1-6 2 5-3-6 3 4-10-8 4 2-6-2 5 0-7 1 6-1 6-3-6 3 6-4 5-4 7-5 6-5 6-7-4 5 6-8 5-8 5-8 4-8-3 6 4-8 3-5 3-8-3 6 3-7 3-6 2-6 2-6 1-5-1 6 0-4-1-4 1 6-1-3 7 10-2-2 18 3-3 1 5-3-3 3 4-5-3 3-2 4 3-5-2 5-1 6 1-7 0 7 0 7 2 7-1-6 1 8 3 9 2 9 3 10 4 11 4 11 4 11 4 11 5 13 4 13 4 14 4 14 4 14 3 15 3 15 1 6 3 15 2 15 2 14 1 14 1 14 0 13-1 12-2 12-1 6-2 11-3 10-4 8-3 6-5 8-6 8-6 7-4 4-8 7-8 6-9 5-6 3-10 4-10 4-10 3-11 2-6 1-11 2-10 0-10 1-9 0-10-1-9-1-6-1-8-2-8-2-7-3-6-3-6-4-5-2-5-4-4-4-4-4-3-3-3-4-3-4-2-4-1-4"/>
<path d="M14154 11386l-3-2-5-2 6 3-5-1-4-2-5-1 6 1-5 0 7-1-5 1-5 2-5 3 6-3-6 4-6 4-6 6 4-5-6 7-6 8-6 10-6 11 2-6-6 14-6 16-7 18-6 21-6 23-5 25-4 27 1-6-3 27-1 27-1 26 1 23 2 20-1-6 3 18 4 15 5 13-3-4 6 12 7 10 8 8-3-3 10 6-4-2 11 4 11 3-3-1 13 1 2 0 3 2"/>
<path d="M14448 11495l-4-1-5-1-5 0-4-1-5 0 6 1-5-1-5 1-5 1 6-1-4 1-5 1-5 3 5-3-5 3-6 5-6 5 5-4-6 7-7 8-7 10-6 11-7 12 3-6-6 14-5 13-4 15-3 14-3 13 1-6 0 13 0 11 1 11-1-6 3 10 3 8-3-6 4 7 5 6-4-4 5 5 6 3-5-3 6 3 6 1-7-1 7 0-6 1 7-1 7-3-5 2 7-4 7-6 8-8-5 5 7-9 8-9 7-10 6-10 7-11 5-10 6-10 4-9-2 5 4-9 3-8 2-8 2-8 2-7-1 6 0-7 0-7-1-6 1 6-2-6-2-7-2-6-3-6 3 6-3-6-4-5-3-5-3-4-2-4-3-4-3-5-1-4-1-4-1-6-1-4 1-6 1-4 2-4 2-6 3-3 3-3 4-5 4-3 4-3 4-3 5-3 5-2 5-2 5-2 6-1 6-2 6-1 6-1 7-1 6-1 7 0 6 1 6 1 6 1 6 2 5 2 6 3 5 4 5 4 4 5 5 5 4 6 4 7 3 6 2 7 3 8 1 8 1 6 2 9 0 8 1 8 0 8 0 7 0 7-1 6 1 5-1-6 0 4-7-10 2 2-18-3 3-2-5 3 5-5-4 5 6-7 7-9 7-9 7-10 7-10 8-10 7-10 7-10 8-9 6-8 7-7 5-7 6-5 4-5 5-5 5-4 4-4 3-3 3-2 6-3 3-1 7-1 3 0 6 1 6 3 3 2 5 4 3 4 3 4 3 6 3 5 2 6 2 8 1 7 1 7 1 8 2 8 0 8 2 7-1-6 1 7 1 7 2 5 2 6-3-6 3 5 3 4-4-4 4 3-6-3 4 1-6-1 5 0-6 1 6-2-6 3 6-4 6-4 6-6-5 4 6-7 6-7 5-9 6-9 5-9 5-9 4-9 5-8-3 5 4-8 3-7 3-7 2-7 2-6 2-5 1-4 3-5 4-5 2-1 6-3 6-1 6 1 6 3 4 5 2 2 3 4 3 6 4 7 3 5 3 8 4 7 4 9 4 9 5 9-3-6 6 9 5 8 7 8 6 8 7 7-4-5 7 6 7 5 7 4-5-2 7 3 7 2-6-1 6 0 7 0-7 1 7-2 6-3-5 3 6-4 7-5 6-6 7-6-4 4 6-7 6-8 6-9 5-10-3 6 4-10 4-10 2-11 3-10 1-11 2-10-1 6 1-10 1-10 1-9 0-7 0-5 1-3 1-6 3-6 1 0"/>
<path d="M15085 11342l 4 1 6 3 4 2 4 2-5-3 4 2 4 1 4 2 5 1 4 2 5 0-6-1 5 1 4 0 5-1 5 0-6 1 5-2 6-1 5-3-5 3 5-3 6-4 7-5 6-6-5 5 6-7 5-6 5-6 4-7-3 6 3-7 2-7 1-6-1 6 0-6 1 7-1-6 2 6-2-5-4-4 4 5-4-4-6-3 6 3-6-3-6-2-6-1 6 1-7 1 7-1-7 1-6 4 5-3-6 4-6 6 5-5-6 7-5 8-5 10 3-6-5 11-4 11-4 11-3 11-3 11-3 11-1 10 1-7-1 10 1 8-1-6 1 8 3 8 4 7-3-6 4 7 4 7 5 5-4-4 5 4 7 4-6-3 7 4 8 2 9 1-6-1 8 1 9-1-6 1 10-1 10-3 12-4 13-5 14-6 14-6 14-7-4 2 14-8 14-8 14-9 3-1 3-1"/>
<path d="M15365 11309l 4-4-3 4-3 5 3-6-2 6-2 6-1 6 1-6-1 7 0 7 0 7-1-6 2 8 2 7-3-6 4 6 4 7 5 6 6 6 6 7-5-5 6 6 8 6 8 6 8 5 7 5 8 5 8 6 10 6 10 5-5-2 7 4 8 3 9 3-4-1 9 1 6 0 6 0 3 0 3 2"/>
<path d="M15496 11242l-5 7-6 8-5 10-6 10-6 12-7 13-8 13-8 14-8 15-10 15-10 15-10 15-11 14-12 15-13 16-14 16-14 17-14 17-14 16-3 3-13 14-3 1"/>
<path d="M16014 10799l 1-5 1 5-1-5 2 7 3 9 5 12 5 14 7 19 6 22 6 26 7 29 6 31 7 31 5 32 1 6 5 31 4 32 3 34 2 35 1 36 1 37 0 36 0 33-2 30-1 27-2 23-3 20-1 6-3 17-2 14-3 10-1 7 1-6 0 1-37-11 2-4-2 5 3-9 5-13 6-16 6-19 7-22 8-25 8-25 9-26 9-24 9-21 3-5 9-19 9-15 8-12 8-9 4-5 8-6 6-3 8-4 6-1 8 0 6 1 7 3 5 3 5 5 5 6 3 5 4 9 1 6 2 12 0 13 1 15 0 17 0 19-1 19-1 19-2 18-2 18-2 15-1 14 0 11 1 9-1-7 2 8-2-6 4 5-5-4 6 4-5-3 8 1-7-1 10 0-7 1 11-2 11-4 12-6-6 3 13-8 12-10 12-11-4 4 12-13 12-15 11-15 9-17 9-17-3 5 8-17 7-16 5-15 5-13 4-10 2-6 3-6 2-2 5-5 5-3 7-1 6 1 6 3 4 5 3 5 1 3 1 6 1 6 0 8 1 9 0 10 0 10 1 10 1 9 1 9-1-6 2 8 2 8 3 8 2 8 4 8 3 7 3 7-3-6 4 6 4 5 4 5-5-5 5 3-5-2 5 2 5 1-6-1 6-1-6 1 6-1 6-1 6-1 7-1 7 0 6 1 8 1 8 3 8 2 9 3 9 1-6-1 9 1 9-1-6 1 9-3 11-5-5 3 12-6 12-10 13-11-5 5 13-14 13-16 13-18 13-20 12-21 12-22 10-21-3 5 10-21 8-21 7-20 5-20 3-21-1 7 3-21 1-22 0-22 0-24-2-25-3-25-3-25 1 7-5-24-5-22-5-19-6-16-5-13 3 6-6-11-7-8 5 5-6-6 5 3-6-3 6 1-6-1-7 2 6-1-8 3 6-3-8 5 5-4-8 8-8 12-8 15 3-5-7 19-7 21-6 24-5 25-4 25 1-6-2 24-1 24 0 23 1 22 3 22 4 23-1-7 5 23 5 22 7 22 7 22 7 20 8 19 9 17-3-5 9 15 9 13 9 12 8 9-4-5 9 8 9 5-6-3 9 3 8 2-6-1 8-1-6 1 8-2-6 3 9-5 8-8-4 4 8-11 9-13 9-17 10-19-3 5 10-21 10-24 9-24 9-25 8-26 7-26 5-28 5-31-1 6 4-33 4-34 2-34 2-33 1-31 1-26 0-23-1-19-1-17-1-13-2-11 1 6-2-10-3-8-3-7 3 6-4-6-3-4 4 4-4-3 6 3-5-2 6 1-5 0 7-1-6 2 6-3-5 5 4-5-5 6-4 8 3-5-4 10-4 13-4 15-3 17 1-6-2 21-2 23-2 27 0 30 0 30 1 31 1 29 2 29 3 26 2 26 3 26 3 26 3 26 4 27 4 27-1-6 4 27 6 27 6 24 7 23 9 20-3-5 10 18 11 15 12 12-3-3 13 11 14 10 3 3 2 3 0 4"/>
<path d="M17460 10796l-3-5 9 6-3-1 23-12-2 4 0 9 0-6 1 12 0 15 0 19 0 23 0 27 0 30 0 32-1 32-1 32-3 32-3 32-4 34-1 6-6 35-5 36 1-7-5 37-4 35-4 32-2 27-1 23 1 19 2 14-1-6 4 11 5 9-3-6 5 7-5-5 6 5 6 4-5-3 7 2-6-1 8 0 8-1-6 1 10-3 10-4-5 3 11-7 11-8-4 4 11-11 10-12 9-15 9-16-2 4 7-17 5-18 3-18 1-3 2-2 3-1 3-1"/>
<path d="M17380 11108l-7 0-6 1-2 1-6-1-5-3-3-4-3-5-1-5 1-6 3-5 1-2 4-4 6-3 6-3 8-3 9-3 11-3 13-4 13-4 15-3 15-3 16-4 16-3 17-3 6-1 17-2 16-3 16-1 14-1 12 0 11 0 10 0 8 0 6 1 7 2 5 3 6 3 5 4 5 4 5 4 6 3 6 4 6 3 6 3 6 3 5 4 4 4 5 4 4 5 4 5 3 5 3 6 2 5 1 6 0 5 0 6-1 6-2 6-2 6-4 6-2 6-4 6-4 5-4 5-4 4-4 5-5 5 4-5-5 6-5 6-5 6-4 7-5 7-4 6-5 7-4 6 3-5-3 6-2 7-1 6 1-6 1 7-1-7 4 7-3-5 5 6-4-4 6 6 7 4-6-3 8 4 7 2-6-1 9 0-6 1 9-1 10-2 10-4-5 2 11-6 11-7 11-8 13-8"/>
<path d="M17814 11133l-4 7-5 9 3-5-3 10-3 12-3 13-2 15-3 14 1-6-1 15-1 16 0 16 2 16 2 16-1-6 2 15 4 15 4 13 5 12-3-5 5 10 5 7 6 5-3-3 6 4-4-2 7 3-3-1 8 1 3 1 2 1 2 2"/>
<path d="M17775 10863l-3 7-3 8-2 8-3 10 1-5-2 10-1 12 1 11 1 11-1 3-2 3"/>
<path d="M17995 11111l-6 1 6-1-6 2-6 3-6 4 6-3-8 4-8 5-8 7-9 7-10 9-9 8-10 9 5-4-9 9-7 11-6 10 3-5-5 11-4 10-3 9-2 9 1-6 0 8-1-7 2 8-3-6 6 6-5-4 8 5 8 5-6-3 8 4 10 2 10 2-7-1 11 1 12-1 12 0 13-2-6 1 13-2 13-3 13-4 12-5-5 2 13-6 12-7 5-2 13-7 13-6 12-6-3 1 13-6"/>
<path d="M18140 10790l 1 9 2 10 2 11-1-5 3 11 4 14 4 16 4 17 4 20 4 20 1 6 3 21 3 22 3 21 2 22 1 21 1 21 0 20-2 20-2 19-1 7-4 20-5 21-5 21-5 20-4 20-5 17-4 16-3 13-3 11-2 8-3 6-2 3-4 5-6 3-6 1-7-1-5-3-5-5-3-5-1-3-1-6 0-7 1-9 1-6 2-12 3-14 4-16 6-17 7-18 8-17 3-6 9-16 9-14 9-11 5-5 10-10 10-8 10-6 6-3 11-6 11-4 12-4 11-4 10-3 11-2 6-1 10-1 9-1 9-1 8 0 8 1 6 1 7 1 5 3 6 3 5 4 3 5 3 6 1 6 1 6-1 7-1 6-3 6-4 5-5 5-5 5-7 5-8 4-5 3-9 4-10 5-10 4-9 5-10 4-8 4-8 4 6-3-7 4-5 4 4-4-4 5 3-6-1 6 1-6 0 7-1-7 3 7-3-6 4 7 6 7-4-5 7 7 8 6 8 5 9 6 10 5-6-3 11 5 11 5 13 5 12 5 13 5 4 3 13 6 12 6 12 7-4-2 14 6"/>
<path d="M14401 1879l-4 2-4 3-4 4 4-4-4 5-3 6-4 7-5 9-5 11 3-6-5 11-5 11-3 11-3 11 1-6-1 10 0 10 1 8-1-6 2 8 4 6-3-5 4 5-4-4 6 3-5-3 7 3-7-1 8 1 7-1-6 1 7-2 6-3-5 3 6-4 6-4 7-6 7-7-5 5 7-8 6-8 6-10 5-10-3 5 4-10 3-10 1-10-1 6 1-8 0-8-1-7 1 6-2-6-2-4 2 5-3-3 5 4-4-3 5 3-4-2 6 1-5 0 6-1-5 1 5-2-4 3 4-5-3 4 4-12 0 3-9-16 3 1-12-3 6-1-6 1 6-1 7-4-6 3 7-4 8-6 8-6 9-7 9-8 9-7 9-7 9-7 10-7 9-6 8-5 8-5 6-4 6-3 5-3 6-2 6-1 7-1 6 0 6 1 7 1 6 3 7 4 7 5 4 5 7 8 6 9 3 6 5 12 5 14 4 16 3 17 1 6 3 17 2 18 3 18 2 18 1 18 2 17 1 17 1 17 1 17 0 17 0 18-1 18 0 17-1 17-1 16-1 15-1 12-1 7-1 9-2 4-3 6-5 4-6 3-6 1-6-1-3-1-6-3-4-4-3-6-3-6-4-10-3-13-3-15-4-17-1-6-3-18-3-19-3-18-2-19-3-19-3-20-1-18-2-19-1-17 0-17 1-16 2-14 1-7 2-14 3-13 3-12 4-11 5-11 3-6 5-10 7-9 7-9 7-8 4-4 8-7 8-6 9-6 9-6 10-5 5-3 10-5 9-4 8-3 9-3 8-1 6-1 7-1 7-1 6 1 6 1 5 3 6 2 5 5 3 4 3 6 2 5 1 6-1 7-1 6-2 7-3 6-4 7-5 7-6 7-7 8-4 5-8 8-10 9-10 9-11 9-12 9-12 8-12 8-11 6-6 3-9 5-7 3-6 1-3 0-7-1-5-2-5-5-3-6-1-6 1-6 3-6 3-3 4-5 7-6 10-10 13-12 14-14 16-14 15-15 15-15-5 4 15-15 16-18 17-20 17-21 17-22 17-22 16-22 14-22 13-21 12-21 10-21-3 6 9-20 8-19 8-19 7-18 6-17 6-15 6-13 4-10 3-7 1-3 36 18-1 2-3 6 3-6-5 10-5 13-6 16-5 19-5 22-4 23-4 25 1-7-3 25-2 25-1 23-1 23 0 22 2 20 2 20 2 19-1-6 4 18 4 17 5 16 6 15 7 13-3-6 7 11 7 9-5-5 7 7 8 5-6-3 7 3 8 1-6-1 7 0-6 1 7-3-5 3 7-4 7-7-5 5 6-8 5-10-2 6 4-11 2-11-1 6 1-12-2-12 1 6-4-11 3 5-6-11-9-12-12-11 5 4-14-11-17-10-18-9 6 3-19-9-19-6-18-5-16-3 6 1-15-2-14-1-12 1-11 2 6-1-10 2-8 2-6 2-6 1-2 0-6-1-6-3-4-4-3-6-1-6 1-7 3-5 4-5 3-2 7-4 9-5 6-3 10-5 13-6 15-7 17-8 19-9 20-9 21-8 19-7 20-6 18-5 16-4 15-3 6-1 13-2 11-1 10 0 6 1 8 1 7 3 6 3 6 4 4 4 6 5 4 7 3 5 3 7 3 8 2 8 1 7 1 8 0 8 0 8 0 8 0 8-1 8 0 8-1 7-1 6-1 7-1 6 1 5-1-5 2 5"/>
<path d="M15114 1499l 4-4-4 6-3 6 3-5-2 6 1-5-1 9 0 9 0 4-2 3"/>
<path d="M15269 1682l 2 7 3 7 2 7 2 7 2 7 2 7 4 6-3-5 3 6 5 6 4 6-4-5 5 4 5 4-6-3 6 2 7 1-6-1 6 0-6 1 7-2 6-3-5 3 5-3 5-4 5-4 4-4-4 4 4-4 2-5-2 6 1-5-1 6 1-6 0-6-1-5 1 6-1-5-3-5 3 5-4-5-3-4 4 4-4-4-5-4-6-3-5-3-5-3-4-5-4-3-3-6-1-4-1-7 1-6 2-4 3-6 3-4 5-5 4-3 6-3 6-2 6-2 7-1 6-1 7 1 6 1 7 1 6 2 7 2 5 2 6 3 6 3 5 3 4 4 5 4 5 4 5 5 4 4 5 5 4 4-4-4 4 4 5 4 4 4 5 3-5-3 5 2-6-1 6 1-7 1 6-2 6-2 5-3-6 3 6-3 5-3 6-3 5-2 6-2 6-1 6 1 6 1 6 2 5 2 6 4 5 4 6 5 7 4 6 4-6-3 7 2 6 2 6 1-6-1 7 1 7-1-6 1 7-1 8-2 8-3 9-3 10-3 9-4 10-4-6 3 10-6 10-6 9-7 9-8 9-8 8-7-5 4 7-8 7-7 5-8 5-8 4-8-2 6 3-8 3-8 2-7 1-6 0-1 3-6 4-4 6-3 6-1 7 1 5 3 5 4 3 6 1 6-1 3 0 6 0 6 1 7-1-6 1 6 3 7 2 6 4 7-3-6 4 8 5 7 5 7 5 7 5 7 5 7 6 7 5 7 5 7 4 7 4 7 3 5 4 8 2 7 2 7 1 7 1 7 0 6-1 7-1 6-2 7-3 6-3 6-3 5-5 5-4 5-6 4-6 3-7 3-8 3-9 4-9 2-11 3-6 1-12 1-11 0-12 0-11 0-11 0-10 0-8 0-6-1-6-1-2 0-5-3-5-5-3-5-1-6 1-7 3-5 5-5 5-3 7-1 4 0 8-1 10 0 13 1 12 0 14 1 14 1 15 1 16 0 17 1"/>
<path d="M14714 2758l-5-2 5 3-5-2-6-2-7-1-7-1 7 1-8-1-8 1-9 1-9 1 6-1-10 2-10 3-11 4-11 6 6-3-11 6-11 8-11 9 5-4-10 11-10 12-9 13-9 14-8 15-9 15 3-6-7 15-6 16-5 16-4 15-2 13 1-6 0 12 1 11-1-6 3 9-3-5 5 7-4-5 6 5-6-2 7 3-6-1 8 0 9-1-6 1 11-4 13-5 13-7-5 3 13-8 14-9 13-9 11-10 11-10 9-9-4 4 8-9 6-9 6-7 4-7 4-7-3 6 3-7 2-6 1-6-1 6 1-5 0-5 0-5-1-4 1-6 0-2 3-6 5-4 6-3 6-1 6 1 6 3 4 4 2 2 3 5 3 6 4 6 3 7 3 7-2-6 3 7 4 6 4 7 3 7 4 7 4 8 4 7 5 7 5 7 5 6-4-4 6 6 7 5-5-2 8 4 9 4 11 3 13 2-4-1 14 1"/>
<path d="M15622 2341l 2 8 2 9-1-5 2 10 4 12 5 14 6 16 6 18 7 18 7 19 7 19 7 18 6 18 6 18 5 19 5 19 3 19 1 6 3 20 3 21 2 22 1 22 0 21 0 20 0 18-1 17 0 15-1 12-1 11 0 9 0 7 0 5-1-6 0 2-36-5 2-3-3 6 2-6 2-7 4-9 4-10 5-11 5-12 5-12 6-12 3-5 6-12 7-11 8-10 8-10 5-4 8-8 8-7 8-6 9-5 5-2 10-4 10-4 10-2 7-1 11-1 13-1 12 0 13 0 12 1 7 1 12 2 12 2 11 3 10 4 9 4 5 3 7 5 6 5 5 5 4 5 3 6 3 6 1 7 1 6 0 7-1 7-3 8-4 9-3 6-6 9-8 11-10 11-4 5-11 11-13 11-14 10-15 10-15 9-15 8-6 3-14 7-14 6-13 5-13 5-13 3-11 2-6 1-12 1-12-1-5-1-12-3-11-4-11-5-3-2-3-2-1-4-1-3"/>
<path d="M3308 18948l 3-3 5-5 4-2 5-2 5-1 5-1 5 0 6 1 5 1 5 3 5 2 5 3 4 5 5 4 5 6 5 8 2 5 4 9 3 11 3 11 1 7 2 13 1 15 1 17 1 19 0 20 0 21 0 22-1 22-1 22-1 21-2 18-1 17-1 16-2 13-1 11-1 7-2 9-1 7 0 2-3 6-5 4-5 3-7 1-6-1-6-3-4-4-3-6-1-6 1-5 1-11 2-16 1-6 3-20 4-24 5-25 6-26 7-25 7-22 7-21 7-19 7-16 6-15 3-5 6-13 6-10 6-9 6-8 5-4 5-6 6-4 5-2 6-2 6-1 6-1 6 1 5 1 6 3 4 3 5 4 5 4 4 6 4 7 3 5 3 8 4 10 4 11 3 12 3 15 3 15 1 6 3 17 2 17 2 17 2 17 1 16 2 15 1 13 2 11-1-6 2 9 3 7-8-11 4 3-24 0 5-3-5 5 6-8 7-12-3 6 7-16 8-19 9-21 9-22 10-22 3-6 11-22 11-20 11-18 11-18 11-16 11-14 10-12 11-11 4-5 10-10 10-8 8-8 8-6 7-4 6-3 6-3 6-2 6-1 6 0 6 1 5 1 6 3 5 2 5 4 4 4 5 6 5 6 5 9 3 5 4 10 4 10 3 12 3 13 1 7 3 15 1 17 2 18 1 20 1 21 0 23 0 24 0 24 0 24 1 23 1 20 2 19 2 16 2 15"/>
<path d="M3981 19306l-1 5 0 5 1-6 0 6-1 8 0 7-1 9-1 9-2 8-1 6-2 9-2 10-2 9-2 10-3 11-2 11-2 10-3 9"/>
<path d="M4187 18991l 3-3 5-3 4-2 4-3 4-2 6-1 5-1 6-1 6 1 6 0 6 1 6 1 5 1 5 2 5 2 6 3 4 3 5 3 6 3 5 5 5 4 5 6 5 6 5 6 4 8 5 8 3 6 5 9 4 11 5 11 4 13 5 14 5 14 5 15 5 16 4 15 5 16 6 15 6 14 6 14-3-6 7 12 6 10 6 8 5 6 5 6-5-4 6 5 5 4 4 4 5 4-5-3 5 3 6 3 6 1 6 2 5 1-4-1 4 0-4 0 6-1 5-1 3 0"/>
<path d="M4459 18992l 4-2-3 2-5 3-3 2 4-2-3 2-4 4-4 3-3 4-5 4 5-5-5 6-5 7-6 8-6 8-6 9-6 9-6 11-7 12 3-5-6 14-8 16-7 17-8 18-9 19-9 19-2 5-11 20-10 19-10 18-10 18-11 16-11 16-11 16-12 16"/>
<path d="M4824 19031l 6 0 5 1 6 0 7 1 7 0 9 0 9 1 9 2 6 1 9 2 9 2 11 2 10 1-4 0 12 1 11 1 3 0"/>
<path d="M4902 18927l-2 6-2 7-2 9-1 10 1-6-1 11-1 11-1 12-1 14-1 14 1 15 1 16 2 18 2 19 2 19 0 3-2 3-2 2"/>
<path d="M5128 19218l 9-14 11-17 13-20 15-23 17-26 17-26 19-27 19-28 20-30 20-32 19-34 18-38-3 6 17-37 16-37 13-35 11-32 9-32 7-29 5-29-1 7 3-27 1-24-1-24-2-21-3-20 1 7-4-17-6-12 3 5-6-9 4 4-7-6 5 3-8-3 6 1-9 0 7-1-10 4 6-3-10 7 5-4-10 11-11 14-10 17-10 19 3-6-10 22-10 23-9 25-8 28-7 30-5 34 1-6-4 36-2 38-2 36 0 35 1 32 3 31 5 29-2-7 7 28 8 25 9 24 9 22 10 21-3-6 11 19 12 17 12 15 12 12-5-4 12 10 11 8 11 6-6-3 10 4 8 1-6-1 8-1-6 1 6-3-5 3 5-5-4 4 5-7-3 6 4-9 2-11-1 7 2-11-1-12-2-11 1 6-3-11-5-11 3 6-7-11-9-9 5 4-11-9-11-9-12-9-13-6 6 2-13-5-13-4-13-3 6 1-12-1-11-1-11 0-9 1 6-1-7 2 5-3-6 3-5 4 4-4-3 4 2-5-1 5 0-6 1 6-1-5 2 7-2-5 4 7 7 7-3-3 9 7 10 7 11 7 2 2 2 3"/>
<path d="M5643 19216l-1 6-1 6 1-6 0 7 1 8 1 8 1 8 0 8 1 10 1 9-1-5 1 9 1 9 1 5 2 10 1 9 2 10-1-4 2 11 2 10 1 2"/>
<path d="M6061 18754l 5-2 6-2 5 0 7-1 8 1 9 0 9-1 3 1"/>
<path d="M6096 18835l 7-1 7 1 9 1 9 0 11-2-4 1 12-3 12-2 3 0 3 0 2 1"/>
<path d="M6353 18739l 5 0 6 1 6 1 6 3 6 3 7 4 6 6 5 5 6 6 7 9 6 10 3 5 5 12 5 14 4 15 4 16 3 16 1 7 3 17 1 17 1 17-1 17-1 16-1 15-2 14-1 13-1 7-3 12-2 11-2 9-2 7-2 5-3 5-2 2-4 5-6 3-6 1-7-1-5-3-5-5-1-1-3-6-1-5-1-6 0-7 0-9 1-10 1-12 1-6 3-13 3-15 3-16 3-16 4-18 4-16 5-17 5-16 5-15 6-14 5-13 3-6 6-11 5-9 6-8 5-6 4-4 6-4 5-3 5-3 6-1 6 0 6 1 5 2 6 3 5 4 4 5 5 6 3 5 3 8 3 8 2 10 2 6 1 11 2 11 1 13 0 13 0 13 0 13 0 13 0 12-1 12 0 10-1 10-1 9 0 6-8-16 2 1-24 0 5-5-4 5 7-10 8-14 9-14 8-16 9-17-3 6 8-18 8-18 9-17 3-6 8-16 9-16 8-15 9-14 8-11 8-10 7-9 5-4 7-7 6-6 6-4 5-3 5-2 6-1 5 0 6 1 4 2 6 2 4 5 4 4 3 5 3 6 3 7 3 10 2 11 1 7 2 13 1 15 1 18 1 19 1 19 0 19 0 20 0 18 0 17-1 16 0 15 0 15 0 13 1 13 1 12 1 11 1 10 1 9"/>
<path d="M6846 18945l 6-1 5 0 7 0 6 0 6 1 7 1 6 1 7 1 6 2 6 3 4 2 5 5 3 4 3 5 1 5 1 6 1 6-1 6-2 5-3 6-3 6-4 7-5 8-5 8-7 9-6 9-7 10-8 10-8 10-8 10-8 9-7 9-6 8-6 8-4 6 3-5-3 6-2 6 1-6 0 4-1-6 2 4-8-10 3 3-5-3 4 2-6-1 6 1-6 1 8-1 8-2 10-3 12-3 12-4 14-4 15-5 16-5 17-6 18-6 3-1"/>
<path d="M7042 18785l 0-4 1-5 0-4 2-4 2-5 2-4 3-5 3-4 4-5 5-4 5-3 6-3 6-2 6-3 7-2 8-1 6-1 7-1 8 0 8 1 7 1 8 1 8 2 7 3 6 3 7 4 7 5 7 6 4 5 7 7 6 8 5 8 6 9 3 6 5 10 5 11 4 12 4 13 5 13 6 12 5 14 4 13 4 13 5 12 5 12 4 11-2-5 5 10 6 9 6 9 5 7 6 7 6 6 7 6-3-3 6 5 7 3-4-2 7 3 7 2 2 2"/>
<path d="M7344 18745l-7 3-8 4-8 5 5-3-9 6-10 7-11 9-10 10 5-4-11 12-11 13-12 15-12 16-13 18-12 20-12 22-13 21-13 22-13 21-13 20-13 19-13 18-13 17-12 16-2 2-2 1"/>
<path d="M7556 18761l 6 1 6 2 8 1 8 2-6-1 10 1 10 0 11 0 11 0 13-1 12-2-5 1 13-2 5 0 13-2 13-1 12-1 12 0 12-1 3 1"/>
<path d="M7637 18698l-4 7-4 7 3-5-4 10-2 11-2 13 1-6-1 14-1 15-1 16 0 18 0 18 2 19 2 19 2 20 3 19-1-5 4 18 4 16 5 15 0 3 0 3-2 3"/>
<path d="M7864 18929l-6 3 13-7 14-10 16-12 18-15 20-17 20-20-5 4 20-21 20-22 20-22 18-23 18-23 16-23 16-22 14-23 13-23-3 6 12-26 10-29 8-31 5-30-1 6 3-28 1-25-1-24-3-21 1 6-4-18-6-15-6-12 2 5-6-9 4 4-8-6-7-5 5 3-8-2 6 1-8 0 6-1-9 2-9 5 5-3-10 7-10 9 5-5-11 12-11 14-10 19 3-6-11 23-10 25-8 27-7 30-6 30-5 30 1-6-3 30-3 32 0 32 1 32 4 32 5 32-1-7 6 30 7 27 9 25 10 22 9 19-2-6 10 17 10 15 9 11-4-4 10 9 10 6-6-2 10 4 8 2-6-1 9 1 8-1-6 1 8-2-6 3 7-4 6-6-4 5 5-8-3 5 3-9 3-12-1 6 2-13 1-14-1-15-3-15 1 7-3-15-4-13-4-12-5-10 3 6-5-9-5-7-6-6 4 4-5-4 6 3-6-3-5 0 6 1-5 0 6-1-4 2 10-8-2 3 0-22 3 5-4-4 7 5-3-2 9 5 9 4 3 1 2 2 1 3 1 2-1 3"/>
<path d="M8357 18856l 9 1-6-1 9 1 9 0 9 1 9 0 8 0 7 1 8 1 6 1 7 1 6 1 7 2 5 2 5 3 4 3 5 4 3 3 3 6 2 4 1 4 1 6-1 5-1 6-1 5-3 6-3 5-4 7-6 7-6 7-7 8-4 5-8 7-9 7-9 7-8 6-8 6-7 6-6 5-5 5 5-4-4 4 3-6-1 4 0-12 2 4-7-10 5 4 6 3-5-3 7 3 8 1-6-1 8 1 8 0 10 0 11-1 12-1 13-1 14-1 16-1 16-2 17-2 17-1 3 0 3 2"/>
<path d="M3970 20875l 1-5 2-9 3-11 3-13 5-13 5-12 3-5 5-12 7-11 8-11 8-11 8-9 5-5 8-8 7-6 7-4 6-3 6-3 7-2 6-2 7-1 6-1 7 0 6 1 6 2 6 3 6 3 6 5 5 5 6 8 3 6 5 10 5 13 5 15 3 16 4 17 1 6 3 19 2 19 2 21 2 22 1 24 1 24 1 26 1 27 1 28 2 27 2 27 3 25 3 23-1-7 4 20 4 18 5 15 4 14 5 13 6 11-3-5 6 10 6 8-4-4 7 6-5-3 8 5 8 2-5-1 10 1 10-1-4 1 12-2 14-6-3 2 17-10 18-12 3-1"/>
<path d="M4379 20806l-6 6-8 8-9 9-10 12-12 12-12 13 4-4-12 15-14 15-14 17-15 19-15 20-16 23-15 26-15 27-15 30 3-5-14 30-14 30-13 28-12 27-12 24-3 5-12 23-11 20-10 18-9 17-8 14-8 12-5 10-5 7-4 6-2 2"/>
<path d="M4564 20843l 9-1 10-1 11-1 12-2 13-1 13 0 14-1 13-2 14-2 15-1 15-2 15-3 3 1"/>
<path d="M4555 21007l 10-4 14-5 16-5 18-4 20-4 21-5 21-6 20-6 22-5 22-5 23-6 23-7 3 0 3 0"/>
<path d="M5444 20681l-7-10 4 3-6-3 6 1-6-1 6-1-6 1 8-3-6 3 9-5 10-7 12-9 12-12 15-15-5 5 16-17 17-19 19-23 20-26 21-29 22-31 21-32 21-32 19-31 17-29 14-28-3 6 13-26 10-26 8-27 6-28-1 6 3-31 2-31 1-29 0-26-2-22-1-19-2-16 1 7-3-14-4-11-4-9 3 6-4-7-5-5 4 4-5-3 6 3-6-2 6 1-6 1 6-1-7 3 5-3-8 5-10 9 5-5-10 12-11 16-12 19-12 22 3-5-12 25-12 28-10 30-9 32-9 34-7 37-7 38 1-6-4 38-2 35-1 32 1 31 1 31 3 29 3 28-1-6 6 27 7 25 10 24 11 22-3-6 11 19 12 15 12 13-4-4 12 9 11 8-6-3 12 4 11 2-7-1 11 0-6 1 9-3 9-4-5 3 8-7-4 5 7-8 6-9 5-11-3 6 5-12 3-12 2-13-1 6 0-12-2-11 1 6-3-11-4-10 2 6-5-8-6-7 4 4-7-6-8-5-9-5 6 3-9-3-9-3-9-2 6 1-9-1-9-1-8 0-7 0 5-1-6 1-6 1 5-2-5 2-3 2 6-8-2 3 1-5 0 4-1 5-2 4-3 4"/>
<path d="M5901 20602l 5 1 6 1 6 2 8 2 7 2 7 2 7 2 6 2 6 2 5 1 6 3 4 2 4 5 3 3 3 5 1 5 1 6-1 6-1 6-3 7-3 5-4 7-5 7-5 7-7 8-6 8-6 8-5 7-6 8-5 7-5 7-3 6-3 5 3-6-2 4 1-6 0 4-1-7 1 4-7-11 3 3-5-2 5 2 7 2-6-1 8 1 10 1 11 0 12-1-5 0 13-1 5-1 13-2 14-2 14-2-4 0 14-2 14-3 16-3"/>
<path d="M6134 20461l 9-3 11-2 6-1 12-1 13-2-5 1 17-4 18-5 20-5 20-5 3-1"/>
<path d="M6561 20559l 6 1 7 1-6-1 8 1 8 0 10-1 10-1-7 1 10-2 10-4 11-4 11-6-6 3 13-7 12-9 13-12-4 4 13-14 14-17 15-20 16-25 17-29 19-30 17-31 16-31 15-29-3 5 13-29 11-30 9-29 7-29 5-29-1 6 2-28 1-27 0-26-2-23-3-21 1 7-5-18-5-16-6-12 3 6-7-10 4 5-7-7-8-5 6 3-10-2 7 1-11 0 6-1-10 2-12 5 6-3-12 7-12 10-14 12 5-5-14 15-15 18-14 22-14 24 3-6-13 27-11 28-9 29-8 27-5 28 1-7-3 27-2 27 0 27 2 28 3 27 4 26-1-6 6 24 5 21 7 19 8 18 9 18-3-6 9 17 9 15 10 13 10 12 10 11-5-5 10 9 10 8 10 7 11 6-5-3 11 5 12 2-6-1 11 1 11-1-7 1 10-3 9-3 8-3-6 2 7-4 5-4 5-4-5 4 4-5 4-5-3 5 2-6 2-7-1 6 0-7-2-7 1 6-2-7-3-7-3-6 3 6-3-6-5-6-5-4 5 4-5-4-5-3 5 2-5-2-5-1 6 1-5-1-4 0-6-1-5-3"/>
<path d="M7155 20492l 1-6 0 6 0 7 0 7 1 8 0 8 0 7-1 8 0 9 0 9-1 9-1 8 0 9 0 8 0 9-1 9 0 9 0 9 1 8-1 2-1 3"/>
<path d="M5587 21223l 6-1 5-1 6 1 5 0 5 3 5 3 5 4 5 4 4 6 3 6 3 7 3 9 2 11 1 6 1 13 1 14 0 16 0 17-1 18-1 19-2 20-2 19-3 19-2 18-1 7-2 16-3 15-3 13-2 11-3 9-2 7-3 5-2 6-3 2-4 5-6 2-6 1-6-1-6-2-2-2-4-4-3-6-1-5-1-6-1-7 1-10 1-12 1-6 3-13 3-14 4-15 5-14 5-15 6-13 6-13 3-5 6-12 6-10 5-10 6-8 6-8 5-4 5-6 6-4 5-3 5-2 7-1 4 0 6 1 4 2 6 2 4 4 4 4 3 5 3 6 3 6 3 8 2 9 1 6 1 10 1 12 2 12 1 14 1 14 1 14 0 13 0 13 0 12 0 11 0 11-1 9 0 7 0 6-2-7 1 3-25-13 2-1-10 8 3-5 5-6 5-9-3 6 5-12 6-13 5-15 6-17 5-17 6-17 6-17 6-17 6-17 6-15 7-14 3-6 6-12 6-11 6-10 5-8 5-8 5-6 4-5 5-5 4-2 6-3 6-1 6 1 4 1 5 3 5 4 3 4 3 6 2 6 2 7 1 6 1 9 1 11 0 13 0 14-1 15 0 16 0 17-1 16 0 17-1 16-1 16 0 15 0 14 1 13 1 12 1 11 1 10 0-5 2 10 2 9"/>
<path d="M6047 21576l-2 5-4 9-4 9 3-5-4 10-4 10-4 11-4 11-4 13-4 13-3 15 1-4-2 15-2 15-2 14 0 3"/>
<path d="M6171 21358l 9 0 9 0 12 1 13 1 15-1 14-1 16-2 18-2 18-2 20-4 3 1 3 1"/>
<path d="M6595 21286l 3 7 1 6 2 8 1 10 1 11 1 12 0 13 0 15-1 15 0 17 0 17-1 17-1 16-1 16-2 14-1 7-2 13-2 10-1 9-1 6 1-6 0 2-37-12 2-3-2 6 3-7 4-11 5-13 6-15 7-16 7-17 7-17 7-16 8-15 2-6 8-14 7-13 6-12 7-10 6-9 6-7 5-5 5-5 5-5 5-3 6-3 4-2 6-1 5 0 6 1 4 0 6 3 3 2 4 5 3 4 3 5 3 6 2 8 2 9 1 6 1 11 0 12-1 13-1 14-2 15-1 6-2 16-3 14-2 15-2 13 1-6-1 11-2 10 0 8 0 6-1-6 1 3-20-14 3 0-12 4 5-4-5 5 5-6 6-8 6-10 6-12-3 6 7-14 6-15 5-16 6-15 7-14 6-13 3-6 6-11 7-12 6-10 6-9 6-9 6-7 5-4 6-7 6-5 5-4 6-4 5-3 5-2 5-2 6-1 5-1 4 1 7 1 4 2 6 3 4 3 4 4 3 5 3 6 3 5 2 7 2 9 1 6 2 10 0 11 0 12 0 12 0 13 0 14-1 13 0 14-1 13-1 12 0 12 0 11 0 10 1 11 0-4 2 12 3 12 0 3 0 4-2 3-2 2-3 2-4 0"/>
<path d="M6967 21459l 5-3 6-2 7-2 7-2 7-2 6-2 7-1 7-1 7-1 7 0 7 0 6 1 6 0 6 1 5 2 5 2 6 3 3 3 4 2 4 5 3 3 3 6 1 4 1 4 1 6 0 5 0 5-1 7-2 5-3 6-2 5-5 7-5 6-4 4-7 7-6 6-8 5-7 6-7 6-8 6-7 6-6 6-5 5 4-5-3 5 2-6-1 4-3-18 2 3-10-8 5 3-6-1 6 1 7 1 8 0 9 0 10-1 11-1 11-1 13-1 13-2 15-2 3 1 2 1 2 2"/>
<path d="M917 1103l 6-4 8-4 8-5-5 3 6-5 7-4 7-5 5-3 9-5 10-5 10-4 11-3 12-4 13-3 13-3 12-2 7-1 13-3 12-1 12-2 12 0 11 1 6 1 10 1 9 3 8 3 5 3 7 4 4 4 5 5 3 6 4 6 1 6 1 7-1 8-1 7-2 8-4 10-3 6-6 10-7 10-9 11-5 5-10 10-12 11-13 10-14 12-14 12-13 12-14 12-14 11-13 11-12 10-11 10-10 9-8 7-7 5-5 4-5 3-2 0-7 1-6-1-5-3-5-4-3-6-1-6 1-6 3-6 1-2 5-4 4-4 6-5 8-5 9-5 5-3 11-5 12-4 14-5 14-4 15-3 6-1 16-3 15-2 17-1 16-1 15 0 15 0 13 1 13 1 13 2 6 1 12 1 12 3 10 3 9 4 6 2 7 5 7 5 4 5 6 6 3 6 4 7 2 9 1 7 1 10-1 13-1 6-2 15-4 15-5 17-6 17-8 17-3 6-8 17-10 17-11 15-13 16-4 4-14 14-16 14-17 13-17 11-19 11-5 2-18 9-18 8-18 6-17 5-16 4-14 3-5 0-13 1-10 0-5-1"/>
<path d="M1767 1028l 1 5-1-1 0-5 0-6 3-4 4-4 4-2 5-1 6 1 4 2 4 4 2 4 2 3 1 6 0 7-1 6-1 9-4 10-4 11-6 11-3 6-6 12-7 13-7 13-7 13-8 14-8 13-8 13-8 14-8 13-6 12 2-5-5 12-4 13-3 12-2 11-2 11 1-6-2 9 0 8-1-6 1 7 3 6-2-5 5 5-5-5 7 4-6-3 10 3-7-1 11 1 13-1 15-3-7 1 16-3 16-4 16-5 16-5 16-5 16-6 16-5 15-4 14-5 15-4 14-4 15-4 15-4 14-3 15-3 13-3 13-2 12-3 12-3 11-2 3-1 3 1 3 2 3 2"/>
<path d="M1957 1131l-1 5-1 6 0 6 0-6 0 7 0 8 0 9 0 10 0 11 0 13 0 13 0 15 1 16 1 18-1 19 0 19-1 20-1 20 0 20 0 19 0 18 0 17 0 15 1 14 1 12-1 4-2 3"/>
<path d="M2614 997l-2 5-3 6-3 7-5 7 3-5-4 9-5 10-5 12-5 12-5 13-5 14-7 14-7 15-3 5-8 15-8 15-9 14-10 15-10 15-11 15-12 16-11 16-10 15-9 16-8 14 3-5-7 14-5 12-3 12 1-7-1 10 1 9-1-6 3 8-3-6 5 6-5-4 7 4-6-3 9 3-7-1 10 1 12 0 13-2-7 1 14-3 14-4 15-4 16-5 16-5 18-5 17-5 19-5 18-6 19-5 19-6 19-6 20-5 18-4 19-4 4-1 17-2 17-3 16-2"/>
<path d="M2734 1160l-5 5 4-3-4 5-5 7-3 7 2-5-2 8-2 10-2 10 1-6-1 11-1 12 0 14 0 15 0 16 1 17 1 16 1 16 2 16 1 17 2 17-1-6 3 17 2 15 2 14 3 13 2 13 3 15 1 2-1 3"/>
<path d="M3385 1077l 3 8 1 9 1 6 2 12 2 14 3 14 1 12 1 10 1 12 1 12 0 14 0 14 0 15 0 16-1 18-2 17-1 19-2 20-1 22-1 21-1 15-1 12-1 10 0 11-1 3"/>
<path d="M3786 1025l 3-4 5-4 5-5 6-4 5-2 8-4 10-3 11-3 13-3 13-3 6-1 15-2 16-2 17-2 17-2 18-2 17-1 16 0 15 0 14 1 6 1 13 2 12 2 10 3 5 3 8 4 7 6 4 4 4 7 3 6 2 8 2 6 0 9-1 6-2 9-4 10-3 6-6 11-9 13-10 13-11 12-4 5-12 11-11 10-11 9-11 9-12 9-12 9-9 7-9 5-7 6-7 6-5 4 8-10-1 3-13-25 4 2-6-1 8 1 8 0 10 0 10 0 12-1 15 0 16 0 14 0 13 0 13 1 14 1 13 1 12 2 7 1 12 2 12 3 11 3 10 3 9 4 6 3 9 5 9 6 8 7 5 4 6 7 4 6 3 6 2 7 1 6 1 6-1 7-1 6-2 6-2 7-4 9-3 5-6 11-9 12-12 16-14 16-5 4-16 15-17 14-17 12-19 11-18 10-6 3-16 8-16 6-17 5-19 4-5 1-20 4-19 2-17 1-17 0-17-1-4-1-3-2-3-2"/>
<path d="M1065 2123l 5-2 8-4 11-4 11-3 6-1 12-2 12-2 14-2 15-1 15-1 15-1 14 0 12 0 12 0 11 1 9 1 6 1 8 1 6 2 7 3 6 2 6 4 4 4 5 5 3 6 2 6 1 6 0 6-1 6-2 7-3 6-3 6-5 8-6 9-7 9-9 9-4 5-10 9-10 8-10 9-10 7-9 7-10 7-12 9-12 9-13 9-12 7-11 7-9 6-6 5 7-10-2 5-2-18 3 4-5-4 6 3-5-3 8 2-7-1 10 1 12 0 12-1 12-1 13-2 15-3 16-2 16-2 15-1 15-1 13 1 6 1 11 2 11 3 12 4 5 3 11 5 8 6 4 5 6 6 5 8 2 6 3 8 1 7 2 9 0 11 0 12-1 6-2 12-4 13-5 12-3 6-6 10-8 10-9 10-4 4-11 10-11 11-13 11-13 11-14 10-14 9-15 8-6 3-15 7-16 6-17 4-17 4-17 3-6 1-16 1-16 1-15-1-14-2-6-1-11-4-5-2-7-5-3-4-2-4-2-5-1-5 1-4 2-5 2-4 4-5 3-2"/>
<path d="M1721 2054l 2 6 2 5 2 6 2 7 1 7 1 6 1 7 1 7 0 7 0 7 0 9-1 11-1 6-2 14-3 14-3 13-3 13-3 15-4 15-4 17-4 19-3 23-4 21 1-6-3 19-1 16 0 13 1 10-1-7 1 8 3 6-3-5 4 5-4-4 7 4-5-3 10 4 13 2-6-1 15 0 16-3-6 1 17-3 18-4 15-4 17-3 20-6 20-8 21-8 20-9 21-10 20-10 20-8 20-7 17-5 3-1 3 1"/>
<path d="M1949 2231l-1 7-1 6-1 9 1-5-1 14 0 16 1 16 1 17 1 17 1 17 2 16-1-6 4 15 3 13 4 12 3 13 4 12 4 12 5 11 0 3"/>
<path d="M2609 2044l 7-3 11-4 13-4 13-4 12-4 14-4 13-5 11-3 13-4 15-6 15-8 3 0 3 0"/>
<path d="M2654 2055l-4 6-5 6-4 8-5 7-3 9-4 8 3-5-4 8-3 8-3 8-2 8-3 8-1 7-2 8-2 7-1 9 1-6-2 10 0 11-1 9 0 9 1 7-1-6 2 6-3-6 3 5-5-4 5 4-6-3 7 2-6-1 8 0 9-1-6 1 9-2 11-4 12-5 12-6 14-5 14-6 15-5 14-5 13-4 15-4 16-4 17-4 13-2 7-1 12-2 12-1 13-1 14 0 15 0 12 2 7 1 10 1 9 2 7 3 8 3 5 3 7 4 5 4 5 5 4 4 2 6 3 6 1 6 1 8 0 9-1 6-2 11-5 11-5 13-7 14-7 14-2 6-8 15-8 16-10 18-11 17-10 15-12 14-4 5-15 14-16 14-16 12-16 9-5 3-14 7-13 4-14 4-14 3-14 3-5 1-13 1-12 1-11 0-11-1-4-1-9-3-3-2-5-4-2-2"/>
<path d="M3506 1986l-5 10-7 12-7 12-7 13-9 15-9 16-9 17-9 17-10 18-9 18-10 19 3-6-9 20-8 21-7 22-6 24-4 23 1-6-2 23-1 23 2 22 2 20-1-6 4 19 6 17 6 15-3-6 7 13 8 9-4-4 8 7 10 7-5-3 11 5 12 3-6-1 12 1 13-1-6 1 13-3 13-4 13-7-6 3 14-8 12-11-4 5 12-13 10-13 8-13-3 6 5-12 3-10-1 6 1-10 0-11 1 6-2-9-3-8 3 6-4-7 4 4-7-7-9-5 6 3-10-4 6 1-11-1-11 0 6-1-11 3-10 2-12 3-14 5-14 6 5-2-14 7-13 8-12 8-10 8-8 6 2-2-7 7-5 6-5 6-2 2"/>
<path d="M3861 2025l 7-5 10-6 5-3 11-6 12-6 14-6 15-7 17-6 17-6 17-5 17-4 18-4 6-1 18-2 16-3 16-2 14-3 13-2 12-1 10 0 8-1 8 0 7 0 7 0 6 1 7 2 6 3 6 4 5 4 5 6 4 6 3 6 3 7 2 8 1 6 1 9 0 9 0 11-2 11-1 7-2 12-2 13-2 13-3 13-4 13-4 14-5 13-5 14-6 15-7 15-8 16-8 17-9 20-10 22-10 24-10 24-11 25-11 24-11 24-12 23-1 2"/>
<path d="M2449 5458l 13 13-2-1 6 1-3 0-3 1 6-1-4 1-3 1 5-2-3 2-3 3-4 3-3 3-3 3-4 3 5-4-3 3-2 4 2-6-1 4-1 4 1-6 0 4-4-12 3 4-5-5 4 3-6-3 4 1-6-1 5 0-6 1 5-2 4-1 4-2-5 3 3-3 3-3-4 5 2-3 3-4 2-3-3 5 1-2 0 12 0-1 26 13-2 1 10-8-3 3 3-6-1 4 1-7 0 4-4-12 2 4-4-5 4 3-12-4 4 0 5 0-6 1 4-2-5 3 3-2-8 10 1-2 3 18-1-1 10 7-4-1 13 0-5 1-4 2-3 2 6-3-2 1-5 2-7 2-6-1-6-3-4-5-3-6-1-6 1-6 3-6 4-4 2-1 3-2 4-4 5-3 4-3 3-3 4-3 4-4 4-3 4-4 4-4 5-4 6-5 6-6-4 4 7-7 7-8 8-8 8-9 5-5 8-9 9-8 10-9 11-9 12-10 13-11 14-12 16-12 16-12 18-13 18-14 18-14 19-14 20-14 19-14 19-14 19-14 19-13 20-14 19-13 21-14 20-12 22-12 5-3 23-11 23-11 24-10 25-9 24-8 24-8 23-8 23-7 23-8 22-8 22-9 21-8 23-8 23-8 23-8 23-8 23-8 23-7 21-7 21-8 20-8 19-7 18-7 17-8 16-7 15-6 15-7 14-6 14-6 14-5 13-5 13-5 13-5 13-5 11-4 12-4 11-3 10-4 11-2 11-3 11-2 10-3 10-2 10-1 6-1 9-2 8-1 8-1 8-1 7-1 7-1 5 0 5 0 5 0 5 0 5 0 4 0 5 1 5 3 4 4 3 4"/>
<path d="M3776 4758l 5-1 5-1 4-1 5-1 6-1 6 0 6-1 6-1 6-1 7 0 6-1 7 1 6 0 7 1 7 0 6 0 7-1 6 1 6 0 5 1 6 1 5 1 4 0 4 1 6 3 3 3 4 4 3 4 3 5 1 4 1 7 0 4-1 7 0 5-2 5-3 6-2 5-4 6-4 7-4 7-5 8-5 8-6 9-5 9-6 9-7 10-6 9-6 10-6 10-6 9-6 9-5 8-5 7-4 5-3 4-3 3"/>
<path d="M2147 5417l 2 5 1 5 1 7 1 6 0 7 1 7 0 10 0 10 0 12 0 13 0 14 0 15 0 16 1 16 1 16 1 17 2 16 2 15 2 14 2 12-1-6 2 12 2 10 2 10 1 6 1 9-1-6 1 9 1 8 1 7 1 8 0 6 1 5 1 5 0 5 0 5"/>
<path d="M4362 5721l-3 6-5 9-4 8 3-5-3 8-2 8-3 9-2 9-3 12-3 12-4 13-4 14-4 14-5 13-4 14-3 14-3 13-3 13-2 12-2 11 1-6-1 10 0 9 0 9 0 8 1 7-1-7 1 6 3 6-3-6 4 5 4 4-5-5 5 4 5 3-5-3 6 3 7 2 8 2-6-1 10 0 10 0 11-1 13-1 12-2-6 1 12-3 12-3 12-5 12-5 13-6-6 3 13-6 12-7 12-8 11-7 12-8 11-9 11-9 10-9 10-8 9-9 3-1"/>
<path d="M4524 5810l-1 8-1 10-2 10 1-6-1 12-1 13 0 15-1 16-1 16 0 15 1 15 0 15 1 15 0 14 0 14 2 12 1 12 0 11 1 12 0 11-1 10-1 9 0 3-2 8-1 2"/>
<path d="M2763 6602l-6 1 5-2 5-1 6-2 7-3 8-3 8-3 9-5 9-4-5 3 10-6 10-6 12-8 12-8 13-8 14-8 15-10 17-9 18-10 19-10 21-11 5-3 22-11 23-11 23-10 23-11 23-11 24-10 22-10 24-11 23-10 23-12 24-11 24-10 25-10 30-10 33-11 33-12 30-10 26-9 20-7 18-7 17-6 19-8 19-8 18-7 18-8 18-7 18-6 18-6 17-6 16-6 17-5 16-5 15-5 14-5 14-4 12-4 11-4 11-3 11-4 10-3 10-3 9-3 9-3 9-3 8-2 8-2 8-1 7-2 7-2 8-2 8-3 8-2 7-2 6-1 5 0 5 0 5 0 4 1 3 1"/>
<path d="M3915 6065l 4-3 5-3 6-3 6-2 6-3 7-2 8-3 7-2 8-1 6-1 8-2 7-1 8-1 7-1 8 0 7 0 7-1 7 0 6 1 6 0 6 1 5 2 6 3 4 3 5 4 3 4 2 4 3 6 1 4 1 6 0 5-1 6-1 5-1 5-3 7-3 7-3 6-4 7-5 8-4 8-6 9-7 8-7 9-7 10-9 10-9 10-10 10-10 11-10 10-11 11-4 3-11 11-12 10-12 9-13 10"/>
<path d="M4298 5060l 3 4 3 4 3 6 4 6 4 7 3 6 4 8 4 10 4 9 3 11 3 11 3 12 3 13 1 7 1 14 2 14 0 15 0 14 0 14 0 15 0 14 1 15 0 12 1 12 0 11-1 11 0 10 0 10-1 9-1 10-1 10-1 8-1 8-1 7-1 5-2 6-2 5-2 4-3 5-3 5"/>
<path d="M4279 5385l 0 5 1 6 1 6 0 7 2 7-1-7 1 7 2 7 1 7 2 6 2 6 2 6 2 6 3 6 2 5 2 5 2 5 3 5-3-6 3 5 3 4 4 5-4-5 4 3-5-3 4 2-6-1 5 0-6 1 5-3-5 3 5-4 6-5 5-6 6-5-5 4 6-6 6-6 6-7 6-6 6-6 6-7 5-8 6-7 5-6 5-7 4-6 5-8 5-5 3-5 3-3 4-2 4-1"/>
<path d="M4026 5766l-4-1-3-2-4-1-3-2-4-1-5 0-4-1-4-1-5-1-5-1-5-1-6 0 6 1-5-1-6-1-6 0-7-1-6 0-7-1-7-1-7 0-7 0-8-1-7 0-8-1-8 0-9-1-8 0-9 0-9-1-9 0-9 0-9-1-9 0-10-1-10-1-10-1-11-1-11-1-11-1-12-1-11-1-12-1-12 0-11-1-11-1-11-1-11-1-10 0-10-1-10-1-9-1-10-1-8-1-7-1-8-2-8-1-9-2-8-1-8-1-9-2-7-1-8-2-7-2-7-2-7-3-7-2-7-2-8-3-8-2-7-2-8-3-9-3-8-3-9-3-9-3-10-3-10-2-10-2-11-2-11-3-11-2-11-2-11-3-11-3-11-2-11-3-11-2-10-2-11-3-10-2-10-2-10-2-9-2-9-2-9-2 6 1-9-1-9-1-6-1-9-1-8-2-9-2-8-2-8-2-8-2-8-2-9-2-8-3-9-2-8-2-9-3-8-2-9-1 6 1-9-1-9 0-8-1-9-1-9-1-8-1-8-1-8-1-8-1-7-1-7-1-8-1-7-1-8 0-7-1-7 0-6 0-6-1-6 0-6-1-6-1-5-1 6 1-5-1-5 0-5 0-4 0-4 0-4 0-4 0-4 0-4 0-4 0-4 1-4 0-4 0-4 1-4 0-4 1-4 0-4 0-4-1-5 0-4 0-4-1-7-1-4-1-4 0-4-1-4-1-4-1-4-1-3-1-4-1-3-1-4 0-4-1-4-1-4-1-4-1-3-1-3-1-4-1-3-1-3 0-4-1-4-1 6 1-4-1-4 0-4 0-3 1-4 0 6-1-3 1-3 1-3 1-4 1-3 1-6 1-4 0-4 1-3 0-3 0-3 1-4-1-3 0-6-1-3-1-4 0-2-1 12 0-2 1 10-8-1 2 3-18 1 3 2 5-3-6 3 5 4 6 4 5 4 5 5 6 5 6 5 7 5 7 6 7 5 7 6 8 5 7 5 7 5 6 3 7 4 6 3 5 4 6 3 5 3 4 2 4 3 6 1 3 1 6 0 1-1 6-2 6-5 4-6 3-6 1-6-1-6-3-1-1-5-4-3-4-3-4-3-4-4-5-3-6-4-5-5-6-4-7-5-7-5-7-5-7-5-8-4-7-4-7-4-7-3-6-3-6-3-7-3-5-2-5-2-4-2-4-1-3-2-3-1-3-1-3-1-6 0-3 0-3 1-7 2-3 2-6 3-3 2-4 5-5 3-3 4-3 6-3 4-2 5-1 5-2 6-1 6 0 6-1 5 0 7-1 6 0 7 0 7 0 8-1 7-1 7-1-6 1 8-2 7-2 8-2 8-2 8-3 7-2 8-3 8-3 8-4 8-3 7-3 8-3 6-3 7-2 6-2 5-3 5-1 5-2 4-1 5 0 5-1 4-1 6 1"/>
<path d="M5013 4167l-6 3 6-3-7 4-9 5-10 6-8 5-8 5-8 5-9 7-10 7-11 9-12 9-15 13-18 15-17 16-15 14-14 13-16 14-20 16-24 19-26 19-23 17-20 14-17 12-17 11-20 13-19 12-15 11-13 11-16 12-14 12-12 10-9 8-9 9-9 8-9 8-9 8 5-4-10 9-8 9-5 6-5 6-4 4-3 4-5 3-4 2"/>
<path d="M4536 4408l-1 5-2 5-2 6-2 6-2 6-3 7-4 7-3 7-4 9-4 9-4 9-4 10-4 9-3 5-4 9-5 9-5 9-5 10-5 9 3-5-4 8-3 7-2 6-2 6-1 4-1 5-1 5 1-7 0 5-1-6 1 5-2-6 2 4 4 4-4-4 4 3 5 3-6-3 5 3 6 1 5 2-6-1 6 1 5 0 6-1-6 1 5-1 7-1 7-2 7-2 8-2 9-2 8-3 10-2 10-2 12-4 15-4 3-1 3 1 2 1"/>
<path d="M4886 5599l-7 7-9 7-10 9-9 10 4-4-10 12-12 13-12 13-11 12-9 13-10 15-12 19-13 25-14 29 3-5-14 30-11 30-9 28-7 28-5 27 1-6-4 29-2 30-2 31 0 31 2 32 3 31 6 31-1-6 7 29 9 28 12 26-3-5 13 24 14 22 15 18 17 17-4-4 17 14 19 12 19 10-5-3 20 7 21 6 23 3-7-1 24 2 25 0 27 0 26-2 26-2 26-4-6 1 25-5 23-7 22-10-5 3 20-12 19-13 19-16-5 4 17-18 17-21 15-21 14-23 13-24 13-24 12-23-3 6 10-23 7-23 5-24-1 6 3-27 1-30 0-29-4-26 1 6-7-25-9-26-13-29-16-32 3 5-17-29-15-24-15-19-15-18-16-17 4 5-17-17-19-16-21-16-24-17-27-16-25-14 5 2-21-10-20-7-20-5 5 1-18-3-16 0-14 1 5 0-14 3-14 6-13 7 3-2-14 8-3 1-3 1"/>
<path d="M6160 3267l-10-3-11-2-13-2 5 1-13-1-15 0-15 1-16 3 6-1-15 5-16 6-16 8 6-3-16 8-15 10-14 11-15 12-13 12 4-4-12 13-10 14-10 16-11 18-11 19-9 17 3-6-8 18-8 20-7 21-6 21-4 23 1-7-2 24-1 24 2 25 2 23 3 22-1-7 6 22 9 23 12 23-3-5 13 21 15 17-4-5 17 15 19 11 20 11-5-3 22 10 23 9 25 8 25 7 25 5-6-1 23 3 21 1 19 0 18-3-7 1 20-4 20-5 18-6 19-8-6 3 21-12 21-13 20-15 18-16-5 4 15-17 15-20 16-24 14-24 12-24-3 6 10-24 10-26 6-25 5-22-1 6 1-23 0-25-2-25 1 6-4-24-8-26-11-29-15-31 3 6-16-29-18-27-17-23-19-19 5 4-20-16-19-14-20-11 6 3-20-9-19-6-19-4 6 1-19-3-20 0-19 0-21 1-21 3 5-1-22 4-21 6-20 7-18 8 4-2-16 10-15 10-14 10-3 1-3 1"/>
<path d="M3747 3816l-6 0-6 1-7 1-7 1-8 1-9 2-9 1 6 0-9 2-10 2-10 3-11 4-11 5-12 5 6-3-11 6-12 7-11 8-11 8-11 10-12 11 5-5-12 13-11 16-11 18-11 21-11 22 3-6-11 23-9 24-10 25-8 24-8 24-6 24-4 26 1-6-3 26-1 25 1 26 3 26-1-6 5 25 8 23 9 23 10 20-3-6 12 18 12 15 13 14-5-5 15 11 15 10-6-3 17 7 17 6 19 3-6-1 20 2 22 1 23-1 23-2 23-3-6 1 23-4 22-5 22-7 20-8 19-10-6 3 19-12 17-14 18-15 18-16 17-17-4 5 17-18 17-19 14-18 13-18 12-18 11-17 10-17 8-17-2 6 6-16 6-16 3-16-1 7 2-16 1-17-2-17 1 6-4-18-5-18-7-18-8-19 3 6-11-19-12-18-15-17-16-17 5 4-17-15-18-15-18-13-19-11-19-10 5 3-19-8-21-7-21-5-22-4 7 1-23-1-22 0-22 2-21 3 5-1-21 4-20 5-21 5-20 7-18 8-15 7 3-2-11 6-10 6-3 1-3 1"/>
<path d="M359 11100l 4-2 10-6 14-5-5 2 14-9 14-13 14-14 15-16 15-17-4 4 17-20 18-22 20-25 22-28 24-30 27-32 30-32 4-5 33-33 33-33 32-34-4 5 32-36 31-39 33-42 37-48 43-54 45-51 44-46 4-5 40-41-4 5 37-40 34-40 31-39 30-37 28-34 26-30 24-26 3-3 24-23 22-20 22-16 21-12 3-2 19-9 17-9"/>
<path d="M2156 12329l 4 4 4 4 3 4 4 5 3 5 3 6 3 6 3 6 3 8 3 9 3 10 3 11 3 13 3 15 4 15 5 17 5 17 6 18 7 18 6 18 8 17 8 16-3-6 9 16 10 16 11 15 13 15 13 15 14 14 14 14-4-4 15 13 16 13 18 12 17 11 17 10 16 9-5-3 16 7 16 7 15 6 16 4 15 4 17 2-7-1 18 1 18 0 19-1 20-4-6 1 21-4 22-6 23-7 23-8 22-9 22-10 21-10-5 2 20-11 19-11 18-11 18-11 18-10 17-11 17-10 16-10 16-11 15-10 14-11 14-12-5 5 13-13 12-15 11-16 10-18 9-19-3 6 8-19 7-19 6-20 5-19 4-18 4-16 3-15 2-13-1 6 2-12 0-12 1-10 0-10-1-8-1-8 1 6-1-7-1-7-2-6-2-5-1-5-2-4-1-3 3 5-1-3-2-5-1-6"/>
<path d="M2948 12247l 6-4 5-3 7-3 7-4 8-4-6 3 8-4 9-5 9-6 9-5 8-6 9-4 8-5 8-4 7-4 5-3 7-3 5-3 6-3 5-1 5-1 6-1 4 0 7 1 4 1 6 3 4 2 4 5 4 4 3 5 3 6 3 6 2 7 2 7 2 8 2 8 1 7 2 8 2 8 1 8 2 7 1 8 2 8 2 9 1 9 1 8 1 9 1 6 1 8 1 8 0 8-1-5 1 7 0 7 1 7 1 5 0 6-1 7"/>
<path d="M9697 8853l 2 5 1 6 2 6 3 7 2 7 2 9 3 8 3 9 3 9 3 10 4 10 4 11 4 11 4 11 5 11 5 11 5 11-3-6 6 10 5 10 6 10 6 10 6 11 8 12 8 11 9 12 10 13 10 13 12 13 12 13-4-4 14 13 15 12 16 12 16 12 18 11 19 12 20 10 19 11 20 11 20 10 19 10 19 9-6-3 19 9 20 8 20 7 22 7 23 6 25 5 25 5 27 4-6-1 28 4 27 4 28 4 26 3 26 2 25 2 25 0 25 1 25-1 27-2 27-2 27-3 27-5-6 1 26-5 25-7 24-9 23-10-6 3 21-12 19-13 19-15 18-16 17-18-5 4 17-18 17-20 16-20 16-20 15-19 15-19 12-19 12-18 12-17 11-18 11-19-3 6 9-20 8-19 7-20 7-21 6-19 6-19 5-18 4-17 3-15 2-14 2-12-1 6 2-10 1-9 0-8 0-6 0-6 1 6 0-5-1-4-1-3 3 4-1-3-3-4 0-5"/>
<path d="M10914 8779l 4-4 6-2 4-3 5-3-5 3 4-2 6-3 5-3 5-2-6 3 5-3 4-3 5-2 5-3 5-3 5-2 4-2 4-2 4-1 6-1 7 1 3 2 6 3 5 4 3 4 3 6 2 5 1 6 2 5 1 6 2 6 1 6 1 5 2 6 1 6 2 6 2 5 1 6 2 5 3 6 2 6 1 5 1 6 1 5 2 5 2 4 0 5"/>
<path d="M11441 8829l 3 5 3 7 2 7 2 9 3 11 3 12 3 13 3 14 4 15 4 15 4 16 4 15 4 15 4 14 4 14 5 13 6 13 6 14 6 13-3-6 7 13 7 13 9 12 10 13 11 12 11 12-4-5 13 11 14 11 15 10 16 10 17 9 18 9-6-2 18 8 18 8 17 7 17 7 17 6 19 6 19 5 20 4 21 3-6-1 21 3 23 2 24 2 25 1 26 1 25 1 24 0 24-1 22-1 22-2 20-2 21-4-6 1 21-4 21-6 21-6 22-7 22-8 22-9 23-9 22-11-6 3 21-11 20-13 18-12 17-14 16-13 14-14-4 5 13-14 12-14 12-15 10-16 10-17-3 6 9-19 9-21 8-22 7-24 7-25 7-24 6-24 5-23 5-22 4-23 4-20 3-18 2-14 1-11 2-10 1-7 1-7-1 6 1-5 0-6 1 7-2-5 3 6-3-3 10 7-4-2 6 1-5 0-5 0-5 1 6-1-6 1-5 3 5-3-6 3-6 4-6 4-5 5-5 4 5-4-4 4 3-6-1 3-19-27 3 0-6 1 6-2 6-2 6-3 6-3-6 3 6-4 6-3 6-3 5-3 6-3 6-1 6 0 7 1 6 2 5 2 6 5 5 4 5 6 6 5-5-4 6 5 6 5 5 5 5 4 4 4 5 5 3 4 4 5 4 4 3 4 4 4 3 4 3 5 4 5 3 4 3 5 4 4 3 4 4 5 5 5 5 6 5 5 1 3 0 3 0 3-1 2"/>
<path d="M8786 8892l 1 5 0 4 1 5-1-6 1 4 0 5 2 5 1 5 2 6 1 7 2 8 2 9 3 9 3 10 3 11 4 11 4 12 5 12 5 12 5 12 6 14 7 13 7 14-3-6 8 14 8 15 10 15 11 14 11 14 12 13 13 13-5-5 14 12 14 11 15 10 16 9 16 9 16 8-6-3 15 7 16 7 15 6 14 4 14 4 14 4 13 2-6-1 13 1 14 1 14-1 14-2-6 1 14-3 14-4 14-6-5 3 13-7 14-9 13-9 13-11 13-12-4 4 13-13 12-15 12-16 11-16 10-16 10-15 9-16 8-15 8-15-3 6 7-15 6-14 6-15 5-15 4-16 3-15 3-14-1 6 1-14 1-13 0-13-1-11-1-9 1 6-1-9-2-7-3-6-3-6 3 6-3-4 5 4-4-3-4-2 6 2-3-2-4-1 6 1-3-1-5 0 6-1-4 1-6 1-4 0-4 0-4 1-4 1 4-1-5 1-3 0"/>
<path d="M9241 8902l 3-5 4-6 5-6 5-6 5-7 6-6 6-8 6-7 7-7 6-7 6-6 5-5 6-5 6-6 6-6 6-5 6-4 5-3 5-4 6-3 5-2 5-2 6-1 5 0 6 1 5 0 5 3 5 3 4 4 4 5 3 5 3 6 3 6 3 8 3 8 3 9 2 9 3 10 2 9 3 10 2 10 2 9 2 9 3 9 3 8 3 8 3 8 2 7 2 7 2 7 2 6 2 5 2 5 0 3"/>
<path d="M8818 9277l 0 5 1 5 0 6 1 6 1 6 1 6-1-6 1 6 1 7 1 6 1 7 1 7 1 6-1-6 2 7 1 7 2 7 1 7 2 6 2 7 1 7 2 6 1 7 2 6 2 6 2 7 2 6 3 7 2 7 2 7 2 7 3 7 3 8 4 7-3-5 4 7 5 8 5 9 5 8 5 8 5 8 6 8 5 8 6 9 6 8 7 9 7 9 8 10 7 9 8 9 8 9 8 9 9 9-4-4 8 8 9 8 9 8 9 9 9 8 9 8 9 7 9 8 9 7 8 8 8 7 7 7 8 7 7 7 7 7 7 6 5 5 7 7 7 7 8 8 7 7 8 8-4-4 8 8 9 8 9 7 9 8 10 7 11 7 10 7 11 7 10 7 11 8 11 8 12 7 12 8 12 8 12 7 13 8 12 7 12 8 12 7 11 7 12 7 11 6 10 7 11 5 10 6 10 5 10 5-5-3 10 5 10 5 10 5 11 4 11 5 11 5 11 5 12 5 12 5 13 4 12 5 13 5 14 5 14 4 15 5 14 4 15 4 14 5 14 5 14 5 13 4 14 5 13 5 13 4 13 4 13 4 13 3 14 3 14 4 14 3 14 3 14 3 15 3 14 3 15 2 15 3 15 2 16 2 16 3 16 2 16 2-7-1 16 2 14 2 6 1 14 2 14 3 13 2 12 2 12 2 12 1-6-1 11 2 12 1 12 1 12 1 12 1 12 1 12 0 12 1 13 1 12 0 12 0 13 0 12-1 13-1 13-1 13-1 13-1 12-2 12-1 12-2 12-1 11-2 10-1-6 1 10-2 9-2 9-2 9-3 9-3 9-2 9-3 9-4 9-3 9-3 8-4 9-5-6 3 9-4 8-6 9-5 9-5 9-6 8-5 9-5 8-5 9-4 8-5 9-5 5-3 9-4 8-5-5 3 8-4 8-5 8-4 7-5 8-5 7-5 8-4 7-5 7-4 7-5 7-5 7-4 7-5 6-4 7-5 6-5 6-5 6-5 5-6-5 5 5-5 5-6 5-6 5-6 5-6 4-6 4-7 4-6 4-7 4-6 4-6 4-7 4-6 3-6 4-7 4-6 5-7 4-6 4-7 5-7 4-7 4-7 5-6 4-7 4-7 5-7 4-7 5-7 4-7 4-6 4-7 5-7 4-6 5-7 4-7 5-7 4-7 4-7 5-6 4-7 4-6 4-6 4-5 4-6 5-5 4-6 4-5 4-5 4-5 4-5 3-5 4-6 3-6 3-6-3 6 3-6 3-6 2-6 2-7 2-6 2-6 1-7 2-7 1-7 1-7 2-8 1-8 1-8 1-7 1-8 2-8 1-8 1-7 2-8 1-7 2-6 1-7 2-6 2-6 1-6 1-5 1-5 1-5 1-4 1-4 0-4-1 6 1-4 0-4 1-4 1-7 0-4 1-5 1-4 1-5 1-4 1-5 1-5 1-5 1-4 0-5 1-5 1-5 1-4 1-5 0-5 1-4 1-4 1-4 0-4 1-4 0-3 1-4 1-4 1-4 0-4-1 7 1-4 0-4 0-4 1-3 1-7 0-3 1-4 1-4 1-3 0-2 8 23-1-1 29-4-2 2-2 3-4 5-3 5-3 5-3 6-3 5-3 5-4 5-3 5-3 5-4 5-3 5-2 3-3 3-4 5-1 0-6 3-6 1-6-1-6-3-4-4-3-6-1-6 1-6 0-2 1-3 3-6 2-4 3-4 3-4 3-5 3-4 4-5 3-5 3-5 3-5 4-5 2-4 3-5 3-4 2-3 3-4 4-4 3-3 4-3 5-2 4-2 4-2 6-1 5 0 4 0 5 0 6 1 5 1 4 2 6 3 4 3 4 2 4 4 5 4 3 4 4 3 3 4 3 4 3 4 3 4 3 4 2 4 2 4 3 5 2 4 2 5 1 4 3 5 2 5 1 4"/>
<path d="M10916 9343l 4-3 4-4 5-3 4-4 5-3 5-4 5-3 4-3 5-3 5-4 5-3 4-3 5-4 4-3 4-4 5-3 3-3 4-3 4-3 3-3 3-3 3-2 6-3 4-2 6-1 4-1 7 1 4 1 4 2 6 3 3 2 4 3 4 5 3 3 4 4 3 4 3 4 4 4 3 4 4 4-5-5 4 4 4 3 3 2 4 3 3 3 3 3 4 3 4 3 3 3 4 3-6-3 2 1-26 25 0-1 3 6-2-3-2-3-3-3-3-2-2-3-3-3 4 4-3-2-3-3-5-5-3-3-2-3-3-3-3-3-3-3 5 5-3-3-3-2-3-2-3-2 6 3-4-2-3-1-4 0 7 1-4 0-3 0 6-1-4 1-3 1-4 2-4 1-4 2-3 1-4 2 6-3-3 2-4 2-4 2-4 3-4 2-4 2-4 3-5 3-5 3-5 3-5 3-6 3-5 3-7 3-6 3-7 3-6 3-7 3-7 4-6 3-6 2-5 3-5 2 6-3-4 3-4 2-3 2-6 3-2 0-6 1-6-1-6-3-4-4-3-6-1-6-1-1 1-7 3-5 2-3 3-4 5-4 4-4 5-3 4-3 6-4 5-3 6-4 5-4 6-4 6-4 6-4 6-3 7-4 6-3 6-3 5-3 6-3-6 3 6-3 5-3 5-4 5-3 4-3 5-3 4-2 5-3 5-2 5-3 4-1 5-2 6-1 4 0 4 0 7 1 4 2 5 3 4 3 4 3 4 4 4 4 3 3 3 4 3 4 2 4 3 4 2 4 3 5 3 4 2 4 3 4 4 4 3 4 3 3 3 4 3 4 2 3 3 4 2 5 3 5 3 5 1 5 1 4 1 6-1 7-1 2-2 6-5 4-6 3-6 1-2 0-6-1-6-3-3-1-3-3-5-5-2-3-3-3-2-3-3-4-2-3-3-4-2-4-2-4-3-6-2-4-2-4 3 5-3-4-3-5-2-4-2-4-1-4-2-4-1-3-1-3-1-6 1-6 0-1 3-6 4-4 6-3 6-1 6 1 6 3 5 4 1 2 2 4 3 4 3 5 2 4 3 5 2 4 3 6 2 4 2 4-2-6 2 4 3 6 2 4 2 5 1 4"/>
<path d="M14366 3254l 5-1 10-2 12-2 13 0 14-1 16-2 19-3 22-3 26-4 30-3 34-3 38-3 38-2 38-3 39-5 42-4 46-5 51-5 54-5 54-5 53-5 48-6 45-4 51-5 62-5 66-4 64-3 62-3 62-2 62-1 58 0 54 0 51 1 50 0 51 2 50 1 49 3 46 3 42 2 37 2 34 1 32-1 30-1 28 0 26-1 25-1 22 0 19-1 16-1 12 0 9-1 7-1 3 1"/>
<path d="M15266 2250l-5 2 9-7-3 5 2-5-2 7-2 12 1-7 0 15 0 18 1 22 1 25 3 28 2 31 3 30 3 34 4 39 4 41 4 41 4 47 4 56 6 59 5 60 4 58 5 57 6 55 5 51 5 48 5 50 6 53 7 56 7 57 7 57 8 55 7 55 8 57 8 58 9 58 8 57 8 56 8 56 8 57 8 59 9 59 9 57 9 59 9 59 9 61 9 61 9 60 10 61 10 63 10 63 10 64 12 64 11 65 11 66 12 67-1-6 12 66 11 63 11 62 1 6 11 62 11 63 10 64 11 64 9 64 9 65 9 65 7 63 8 61 6 60 7 59 6 59 6 58 5 55 5 53 6 52 5 50 6 51 6 49 6 48 5 44 6 41 6 40 5 38 5 39 5 38 5 37 5 37 5 34 5 33 4 30 5 29 4 29 4 28 4 29 4 29 4 30 4 29 4 29 3 28 3 26 3 24 3 20-1-5 3 18 4 15 2 14 3 13 1 11 1 5 2 10 1 7 1 7 1 5-1 3-1 3"/>
<path d="M8117 13854l-6 1 5-2 5-2 5-2 5-1 6-1 6-1 6-1 7-1 8 0 9 0 9 1 10 1 12 1 12 2 15 1 15 2 17 2 17 2 19 2 18 2 19 2 6 1 19 3-6-1 18 3 19 2 19 3 19 2 21 2 22 1 24 1 25 1 28 1 29 2 30 1 31 0 30 1 30 1 32 0 33 0 36 0 39 1 41 1 42 2 42 2 42 2 43 2 44 3 47 2 48 3 50 4 49 5 48 4 50 3 52 3 53 3 54 3 54 4 52 3 52 3 55 2 56 2 57 2 56 1 55 2 54 2 55 1 57 1 57 1 55 0 53 0 52 0 54 0 54-1 54 1 52 1 49 1 47 2 45 1 46 2 46 2 45 2 43 3 40 3 36 4 32 4 29 3 26 3 24 2 22 2 19 3 5 1 17 2 13 3 10 3 8 2 7 2 3 2 2 2"/>
<path d="M8285 11066l 5 4 4 4 5 6 4 7 5 7 5 10 3 5 6 11 5 14 6 15 5 18 5 20 4 24 1 6 5 28 4 30 4 33 4 34 4 36 4 38 2 40 2 45 2 48 0 51 1 53 0 55 0 59-1 64-2 65-1 68-2 70-2 72-1 74-2 77-2 78-2 82-2 83-2 84-2 88-3 91-2 91-2 90-2 91-2 93-2 93-2 95-3 96-3 97-2 99-3 100-3 101-4 98-3 99-3 100-4 101-3 102-3 101-3 96-1 88-2 79-2 75-3 75-4 76-4 77-4 77-3 75-3 76-2 80-3 87-2 87-2 84-1 70 0 52 0 42 2 36 2 32 3 28 3 25-1-6 4 20 4 17 4 15 4 11 4 10 3 8-2-5 3 6 3 5-4-4 3 2-5-2 3 1 5 2 3 3"/>
<path d="M8288 13139l-3 2-4 3 5-4-3 3 3-6-3 4-2 5-3 3-3 4"/>
<path d="M10860 11157l-2 5-2 7-3 12-2 8 1-4 0 6 0 7 0 3-2 2"/>
<path d="M10922 11508l 0 6 0 6 0 7 0 7 1 7 0 7 0 8-1 8-1 8-1 7 0 8 0 7 1 7 0 8 0 7 0 8-1 2-1 3"/>
<path d="M10946 11819l-2 6-3 4-3 7-4 8-3 8 3-5-3 8-3 9-4 9-3 9-2 9-2 9-1 7 1-4-1 8 0 8 0 8 0 2"/>
<path d="M10964 12083l-2 6-2 6-2 7-3 7-2 5-4 7-4 7 2-4-3 8-3 8-3 9-4 13-2 3"/>
<path d="M10949 12417l-1 6-1 7-1 7-1 7-1 8 1-6-2 8-1 6-1 6-2 7 1-5-1 7-1 8 0 8 0 9 0 9 1 11-1 3"/>
<path d="M10978 12720l-1 5-1 7-2 8-2 8-1 9-2 9-3 9-2 10-3 11-2 10-1 12-3 12-2 13-2 12-2 3"/>
<path d="M10967 13094l-2 7-2 7-3 8-3 9-3 10-3 10-4 11-3 11-4 11-3 12-3 12-2 12-3 11-2 12-2 3-2 2"/>
<path d="M10935 13498l-1 9-1 5-1 10-1 10 0 10 0-6 0 11-1 11-2 10-2 11-1 11 0 11-1 12 0 11-1 11 0 10-1 11-2 11 0 3-1 2"/>
<path d="M10937 14014l-1 7-1 5-1 8 0 10 1-6-1 10 0 11-1 11 0 11 0 11 0 13 0 13 1 13 1 13 1 14 1 13 2 16 0 3"/>
<path d="M11001 14401l 1 5 1 9 1 11 1 11 1 12 1 13 1 14 1 15 1 15 0 15 0 16 0 14 0 15-1 14 0 13 0 12 0 11-1 11-1 11-1 10 0 3"/>
<path d="M11069 14957l 1 7 0 8 0 9-1 8 0 6-2 9 1-5-1 9-1 11-2 10-1 11-1 13-1 15-1 3"/>
<path d="M11089 15304l-2 8-1 9-2 10-2 11-2 11-2 12-2 11-3 12-3 12-3 12-1 12-2 10 0-4-1 10 0 11 0 12-1 3-1 2"/>
<path d="M11141 15568l 1 6 0 6 1 7 0 7 0 7 0 7 0 7 0 8-1 8-1 8-1 9 0 9 0 9 0 10 0 11 1 10 0 10 0 10 0 9 0 9-1 3-1 2"/>
<path d="M11175 15861l-3 9-3 4-4 10-4 9 3-5-5 11-4 10-4 10-6 11-3 5-5 9-6 10-5 10-5 9 2-4-5 9-1 4-5 8-4 5-5 5"/>
<path d="M8259 13124l 5 2 7 4 8 3 8 4 9 5 10 5 12 6 12 6 13 8 14 8 15 11 14 12 15 12 15 14 17 14 17 15 19 15 20 15 21 14 24 14 25 14 26 13 27 15 27 14 27 16 27 16 27 17 27 18 30 19 32 20 35 21 37 23 38 25 38 24 38 24 38 22 39 22 41 23 43 23 46 26 47 27 48 29 47 31 49 33 50 34 54 33 54 32 55 31 54 30 54 31 56 33 59 35 59 36 58 36 56 35 57 33 58 31 59 30 59 31 58 31 57 33 57 34 58 36 59 35 58 34 55 32 54 31 55 30 56 31 56 31 55 33 52 34 51 36 51 35 52 35 53 32 51 31 49 30 45 31 44 31 44 32 45 32 45 33 45 32 42 30 40 29 36 26 32 24 31 22 29 21 29 21 27 20 26 19 25 19 24 18 22 17 21 16 18 15 17 14 14 13 12 12 10 10 8 8 7 6 5 4 3 4 3 4 0 2 1 5-1 4-2 5-3 3-4 2-5 1-4-1"/>
<path d="M8183 14982l 4-4 4-5 5-5 6-6 8-7 10-7 11-8 12-10 14-11 15-14 17-16 17-18-4 5 18-20 18-21 19-23 19-25 21-25 23-26 24-27 5-4 27-28 31-30 32-34-4 4 34-37 36-40 36-41 36-42 38-42 41-44 44-47 47-49 48-51 49-52 49-51 50-53 52-55 54-56 55-57 55-58 56-58 57-59 4-5 59-60 61-62 61-62 61-62 62-63 63-65 64-64 63-63 60-60 61-62 65-66 67-67 66-66 64-64 64-64 63-64 64-64 64-62 62-60 59-59 57-58 57-57 58-54 56-51 52-47 48-44 45-43 44-43 42-41 41-39 40-36 37-32 34-29 31-26 27-24 23-21 21-19 19-17 17-15 15-15 13-13-3 4 12-12 11-12 11-10 8-9 4-4 7-7 7-6 6-5 6-4"/>
<path d="M8297 13031l-6-1 5 0 6 1 6 0 6 0 6 0 7 0 6 0 8 0 7 0 9 0 8-1 9 0 10 0 9 0 10 0 11-2 11-1 12-2 14-1 15-2 18-2 19-3 21-2 23-3 25-2 27-2 28-3 29-3 29-3 30-4 32-4 35-5 38-6 41-5 42-5 43-5 43-5 43-6 46-7 48-6 51-7 53-6 53-7 52-6 55-8 56-7 59-7 59-7 59-7 61-7 63-8 64-7 65-8 64-7 64-8 67-8 67-8 69-7 68-8 68-7 69-6 70-7 68-6 67-5 66-5 66-5 67-5 65-4 64-4 61-5 61-4 61-4 60-4 57-3 54-3 52-4 51-3 52-4 50-3 47-3 43-3 39-3 35-4 33-4 29-3 27-4 25-3 23-3 20-2 17-2-6 0 14-1 10-2 7-2 4-2-10 10 2-3 0 9-1-4-1-4 1-4"/>
<path d="M8367 12132l 7 3 7 4 7 4 8 5 8 6 9 6 10 7 10 7 12 8 13 8 14 10 16 10 18 10 18 11 20 11 22 11 23 12 24 12 25 14 26 13 26 14 26 13 26 14-6-3 28 13 30 13 33 13 35 15 37 16 39 18 6 3 38 20 39 21 40 23 43 24 45 25 48 26 49 27 48 27 49 25 49 25-6-3 51 25 6 3 53 26 54 28 54 29 54 31 56 32 59 31 60 32 61 30 59 30-6-3 60 28 60 29 62 29 5 3 64 31 62 32 60 33 61 33 61 33 61 31 59 29 58 28 55 27-6-3 54 27 55 26 6 3 54 27 53 27 51 27 47 27 45 26 44 25 44 22-6-3 44 20 42 19 40 16 36 15 33 12 29 10 27 10 24 8 22 8 21 7 18 5 17 5 15 3 13 3 11 2-5-1 8 2 7 1 5 1 5 2"/>
<path d="M8364 12143l 10-4 13-4 14-6 17-6 19-7 21-8 24-9 27-9 30-10 32-11 33-11 35-12 35-15 36-15 39-17 43-18 46-19 48-19 50-20 52-20 53-21 57-20 61-21 63-19 64-20 67-21 69-22 70-23 72-24 73-26 76-28 78-28 78-29 79-27 79-25 79-25 80-24 80-24 80-24 80-25 81-25 79-26 79-27 78-28 77-26 75-24 71-22 70-21 68-18 67-18 68-18 70-18 66-16 59-15 54-14 48-11 44-8 38-7 33-6 26-5 6-1 22-3 19-2 16-2 13-1 10 0 9 0 4 1 3 1"/>
<path d="M10819 11121l-4 4-5 4 5-4-5 5-4 6-4 7-5 7-5 8-5 8-4 10 2-6-4 10-5 12-4 15-3 17 1-6-3 19-1 21 0 22 1 22 2 23-1-7 4 21 5 20 6 18 7 16-3-6 9 14 9 13 10 11-4-5 10 10 12 7 12 6-6-2 14 5 16 4 17 3-6-1 17 3 19 1 18 0 19-1 18-3 18-3-7 1 17-3 16-5 15-5 14-7-6 3 13-9 13-11 12-12-4 4 12-14 11-16 10-17 10-18-3 6 9-18 8-19 6-18 5-19 4-17 3-17-1 6 1-16-1-16 1 6-3-16-5-16-6-14 3 5-9-14-10-14-12-14-11-13-13-13 5 4-12-11-13-10-13-9 5 3-14-7-14-4-16-3 6 1-17-2-18 1 6-1-19 3-19 5-19 6-20 8-20 10-20 10 5-2-20 11-18 12-18 13-18 14-17 14-3 2"/>
<path d="M11409 11669l 4 1 4 2 3 3 3 3 2 4 1 5"/>
<path d="M11400 11737l 6-3-6 3 5-3 5-4 5-3 5-3 4-3 5-4 4-4-5 4 5-4 4-5 4-5 4-5 4-7 4-6 5-8 4-7 5-8 4-9-3 6 5-10 3-5 4-10 6-9 6-10 6-11 6-10 6-10 6-10 7-11 7-11 7-11 7-11 8-12 8-13 8-12 8-13 9-12 8-12 9-12 9-12 9-12 8-13 10-13 9-14 10-15 9-16 9-17 9-18 10-18 9-18 10-18 11-17 10-18 12-18 11-17 12-16 12-16 11-15 12-16 12-14 13-15 14-15 14-15 15-17 15-17 16-19 17-19 16-19 16-20 15-20 16-20 14-19 14-20 14-18 14-18 13-18 13-18 13-19 14-19 13-20 14-21 13-21 14-21 13-20 13-20 13-19 14-19 15-18 14-18 14-17 13-16 13-15 14-14 4-4 13-14 13-12 12-12 11-11-4 5 10-12 11-11 10-12 11-13 11-13 9-12 8-10 8-9 8-9 3-3 6-6 6-4 5-4"/>
<path d="M11652 11094l 5 0-5-1 5 0 6 0 6 0 6 0 7-1 7 0 8 0 7 0 8 0 8 0 9 0 10-1 10-1 11-2 11-1 11-2 13-2 13-1 15-2 17 0 19-1 21-1 22-1 22-1 23-1 23-1 23-1 22-1 23-1 22-2 23-3 24-2 26-3 29-2 32-3 32-2 34-3 33-3 33-2 32-4 32-3 33-4 34-4 37-4 39-4 38-3 38-3 36-3 34-2 34-3 33-3 35-3 35-3 37-2 36-2 35-1 33 0 30-1 27 0 26 1 25 0 25 1 23 1 23 2 21 1 21 3 19 2 18 3 5 1 16 3 14 4 13 3 10 4 3 2 9 5 2 2"/>
<path d="M11817 11040l-3 3 4-4-2 4-3 4-3 5-3 6-3 6 3-6-3 8-2 7-3 9-3 9-1 11 1-6-1 11-1 11 0 12 1 11 2 12-1-6 3 11 3 11 4 11 5 10-3-6 5 10 8 8-5-4 8 8 10 6-6-3 11 5 11 4 12 1-6-1 12 0 14-2-6 1 14-4 15-6 15-7-6 3 15-9 16-10 15-11 15-13 13-12-4 4 12-13 11-13 9-13 7-12-3 5 6-13 4-13 2-14-1 7 1-14-1-13 2 6-3-13-5-14-6-13 3 5-9-13-11-11 5 4-14-10-16-9 6 3-18-7-20-6-20-4-20-4 6 1-20-2-20-1-21 1 6-1-20 3-18 6-17 7 4-2-16 9-15 9-14 11 3-3-12 13-10 12-11 13-2 2"/>
<path d="M1148 17588l 4-4 5-4 4-4 4-3 5-3 5-4 5-3 6-3 6-3 7-3 7-2 9-3 11-2 12-2 6-1 13-2 14-2 17-1 18-2 19-1 20-3 21-2 21-3 21-2 22-4 23-3 24-4 25-4 27-4 31-4 33-4 34-4 34-4 34-3 33-4 33-4 34-5 35-4 39-5 40-4 41-4 40-3 37-3 37-3 35-3 35-3 36-3 37-2 38-1 37-1 36 0 33 0 32 0 29 0 29 2 26 2 27 2 25 3 23 3 21 4 6 1 19 4 19 4 18 4 15 3 15 4 12 4 11 4 10 3 2 1 2 2"/>
<path d="M2690 17473l-3-1-3 0-4 0 6 1-4 0 6-1-4 1 6-2-3 2 4-4-2 3-2 4 3-6-2 5-2 5-1 6 1-6 0 6 0 7 0 8 0 8 1 7 0 7-1-6 2 7 1 5 2 6 3 5-3-5 3 5 3 4-5-4 4 3 5 2-6-2 4 1-6-1 5 0-6 1 5-2-6 3 5-3 4-3 4-3 4-4-4 4 3-4 3-5-3 5 2-5 3-6 2-6 2-6 1-6-1 6 1-6 0-7-1-6 0-6 1 7-1-6-2-4-2-5 3 6-2-4-3-3 4 5-3-3-3-2 6 3-4-2-4-1-4-1-4-1 7 1-4-1-5 0-4 0-3 0-4 0-4 1-2 0-7-1-1 0-6-3-4-5-3-5-1-7 1-6 3-5 4-5 2-1 3-2 5-3 5-3 5-2 5-3-6 3 5-2 5-3 5-4 6-3 5-5 7-4 7-4 5-3 7-4 8-3 8-4 9-5 10-5 10-5 10-5 12-5 13-6 14-7 15-6 17-7 17-6 19-7 20-6 22-7 23-7 24-7 24-7 24-7 24-7 23-7 24-7 24-8 25-7 28-7 30-8 31-7 32-8 32-8 31-9 31-9 30-11 31-11 31-11 34-13 35-12 36-11 37-12 37-11 35-11 34-11 33-12 34-11 35-11 37-11 37-10 38-10 37-10 35-9 34-9 32-9 31-9 31-9 31-8 32-8 33-7 32-7 32-6 30-6 28-5 25-6 25-5 23-5 22-6 21-5 19-5 19-6 19-5 17-5 18-4 16-4 16-4 15-3 13-3 12-3 11-3 10-2 8-1"/>
<path d="M4577 16792l 4-4-2 3 3-5-1 4 1-6-1 5 1 6-1-7 1 6 2 5 2 5-3-5 3 4 3 5 4 4 4 4-5-4 5 3 6 3-6-3 6 3 7 1-6-1 7 1 8 1 8-1 9-1-7 1 9-3 8-3 8-4-6 3 8-5 7-5 7-6 7-7-4 5 6-7 6-7 4-6 4-6-3 5 3-6 2-6 2-5 2-5 1-4-1 6-1-4 4 12-2-3 5 4-4-2 6 3-4-2-5 0 6 1-5 0-5 0 7-1-5 1-5 2-5 1-5 2-6 2-4 2 6-3-4 2 5-5-1 1-17-32 2 0-6 1 4-1 5-2 5-2-6 3 5-3 5-4 4-3 5-4 5-4 6-4 6-5 6-6 8-5 7-6 8-6 8-6 8-7 8-7 9-7 10-7 10-8 11-8 12-8 12-9 14-8 14-10 15-10 17-12 17-12 18-14 19-14 20-15 21-17 21-17 21-18 21-19 21-19 21-19 21-20 22-20 23-20 24-20 25-20 27-20 28-21 29-23 28-25 29-26 27-27 27-27 27-28 27-27 28-27 28-25 30-25 31-25 30-25 31-25 29-25 27-26 26-25 24-24 22-24 22-22 21-20 20-19 18-17 18-16 17-14 15-12 15-10 14-9 12-8 12-6 11-6 10-5 9-5 8-4 7-4 7-4 6-3 5-3 6-3 5-3 3-1 4-3 3 0 3 0 2 2 2 2 2 2"/>
<path d="M5924 15565l 4-4 3-4 4-3 4-3 6-2 4-3 4-1 5-2 4-1 7-1 4 0 5 0 5 0 5 1 6 1 5 1 6 2 5 2 6 3 6 2 5 3 5 3 5 4 5 4 4 3 5 5 4 4 3 3 3 4 3 3-5-5 3 2-12-4 4-1-12 4 3-2-5 5 3-4 3-5-3 6 2-5 2-7 1-6-1 6 1-7 0-8-1-7-1-7 1 6-1-7-3-7-3-6 3 6-4-5 5 4-5-4-5-3 5 3-6-2 6 1-7 0-8 1 6-1-8 2-8 3-9 3-9 5 5-3-9 5-8 6-8 6-7 6-7 7-7 6 5-4-6 6-5 6-4 6-3 5 3-5-2 5-1 4 0-12 1 4-3-6 3 3-10-7 5 2 5 1-6-1 6 0 6-1-7 1 6-2 6-1 6-2 5-2 5-2-6 3 5-3 4-3 4-2 5-3 5-2 5-2 5-2 6-3 6-3-6 3 6-3 6-4 6-4 7-5 7-6 7-7 8-7-5 5 8-8 8-9 8-10 9-10 10-11 9-12 11-13 11-13 11-14 11-14 13-15 12-14 14-16 13-15 14-17 14-18 14-20 15-23 16-24 15-26 16-26 15-28 16-27 15-27 14-27 13-27-2 6 13-29 12-30 13-34 13-35 13-37 13-36 14-37 14-35 14-35 16-35 15-37 16-39 15-40 16-39 17-38 16-37 16-36 15-35 15-35 14-36 14-37 13-38 12-36 12-36 12-34 11-33 11-31 11-32 10-32 11-33 11-34 11-34 11-32 11-31 10-28 11-26 11-23 10-22 10-21 8-20 9-19 7-18 8-17 6-16 7-15 5-12 4-12 4-10 3-8 2-7 2-6 1-5-1 7 0-4 0-4 1-6 2-6 5-5"/>
<path d="M6918 13617l 5-2-4 3-4 4-4 4-5 4-4 5-6 5 5-5-5 6-6 6-5 6-5 7-5 7-5 8-4 8-4 7-4 7-4 6-3 6-4 6 3-5-3 6-2 6-3 6-2 6-1 5 1-6-1 5-1-6 1 5 2 4-3-5 4 3-5-4 5 2-6-3 5 1-6-1 7 0-7 1 8-2 7-2 9-4 8-4-5 2 8-6 9-7-5 5 8-9 7-10 8-12 6-12 7-13-3 6 6-13 5-13 5-13 3-12 3-12 1-11-1 6 1-10 0-9-1-8 1 6-2-8-3-7 3 6-4-6-4-6-4-5 4 4-4-4-5-2 6 2-6-1 7 1-6 0 6-1-5 1 5-3-5 4-6 4 5-4-5 6-5 7-5 8 3-6-4 9-3 10-3 10-2 10 1-6-1 10 0 9 0 9-1-6 2 8 2 8-3-6 4 5-5-4 4 4-5-3 4 1-6-1 5 1-6 1 5-2 6-2-6 3 6-5 6-5 7-7-4 4 7-8 7-8 7-9 6-10 5-9-2 6 4-10 3-9 2-8 2-7-1 6 0-6-1-6 1 6-2-5 3 5-4-4 5 5-4-4-5-3 6 3-6-3-5-2-5-2-5 0 6 0-5 0-3 1 17-9-1 1 0-23 2 2-5-5 4 3-5-3 5 2 5 1-6-1 4-1-12 4 4-2-5 5 3-4 3-4 3-5 3-5 3-5 3-6 4-6 4-7 4-7-3 5 4-8 4-9 4-8 4-9 4-10 5-10 6-12 5-13 5-16 5-18 5-20 5-22 5-24 6-25 5-26 5-26 6-26 5-27 5-27 4-29-1 6 4-31 3-34 4-36 4-39 4-42 4-45 4-45 4-43 3-41 3-39 3-43 2-46 3-46 3-45 1-42 0-41 1-38 0-38 0-40 0-42 1-42 0-40 1-38 0-35-1-34 0-31 0-30 0-33 0-34 0-36-1-35 0-33-1-30 0-29-1-28 0-26 0-24 0-22 0-19 1-19 0-18 1-17 0-17 1-16 2-16 1-15 1-14 1-12 0-9 2-8 1-6 1-6 2-6 2-5 3-5 1-4 3-3 4-2"/>
<path d="M7124 11571l-3 4 5-5-3 4-3 4-2 4-3 4-2 3-2 4 3-5-2 4-1 5-1 4 1-6 0 5-1-6 2 3-7-10 4 2-12-4 5 1-6 1 5-1 6-3-6 3 6-3 6-5 6-5 7-6-5 4 7-7 7-9 7-10 7-10 5-9 5-7 4-7 3-8-3 6 3-7 3-7 1-7-1 6 1-7 0-5-1-5 1 6-1-5-2-4-2-5 3 6-2-5-4-3 5 4-4-3-4-2 6 3-5-2-5-1-6-1 7 1-6-1-5 0 6-1-5 1-5 3 6-3-4 3-4 3 4-4-4 4-3 5-3 5 3-5-3 5-2 6-2 6-2 6-1 7 1-6-1 6 0 7 0 6 1 6-1-7 1 6 1 5 2 5-3-6 3 5 3 4-5-4 4 3 4 3-5-3 5 2-6-1 6 1 7 0 7 0-5 1 8-2 8-2 9-2 4-1 3 1"/>
<path d="M6970 13464l-3 3-3 2-3 3-3 3-3 3 4-5-2 4-2 4-2 4 3-6-2 5-1 5-1 5 1-7 0 5-1-6 2 5 2 5-3-6 2 5-4-5 4 4-6-3 5 1-6-1 5 0-6 1 4-2 5-2 4-1 4-2-10 8 1-2 0 24-1-2-2-3-3-6-1-3-1-4-1-4-1-3-1-7 0-4 0-4 0-4 0-4 1-4 0-4 1-6 1-4 1-4 1-4 1-4 2-4 2-4 2-3 2-4 2-4 3-5 2-3 3-3 4-3 4-2 5-1 5 1"/>
<path d="M893 18039l 9-5 9-6-5 3 10-6 11-7 4-2 12-7 13-7 13-7 14-8 14-7 15-8 14-7 15-7 14-7 14-6 14-7 13-7-5 3 14-8 13-8 14-8 14-8 14-8 15-7 6-3 15-8 16-8 17-8 18-8 19-9 21-10 22-10 22-11 23-12-6 3 23-12 21-13 21-14 21-13 20-15 22-14 22-14 24-14 25-15 26-14 27-15 6-3 27-14 28-14 27-13 27-13 25-12 25-12 26-13 25-12 25-14 26-13 28-15 29-15 29-15 30-16-6 3 29-16 28-16 28-16 27-16 28-15 28-17 30-16 6-2 31-16 31-15 33-15 32-15 32-14 32-13 31-14 31-14 32-16 32-16 34-17 34-18 35-18-6 3 35-19 35-19 34-18 35-19 6-3 35-18 36-19 38-18 39-17 40-18 40-16 40-16 39-17 40-17 40-19 42-19 43-21 44-23 44-23-5 3 43-24 44-25 45-24 6-3 46-23 47-23 48-22 49-22 48-21 47-23 48-25 50-26-5 3 51-28 52-28 53-28 52-28 6-3 53-27 53-27 55-26 56-26 56-26 57-27 57-29 59-32-5 3 60-33 61-33 61-34 5-3 62-32 62-32 64-31 65-31 64-32 64-34-6 3 66-35 66-36 67-36 6-3 67-35 67-33 69-33 69-32 69-33 69-34 69-35 70-36 70-37 71-36 69-35 70-35 70-35 71-35 74-39-6 3 78-42 84-46 85-46 6-3 81-43 75-37 71-34 68-32 67-32 66-32 63-33-5 3 61-33 62-34 5-3 62-32 60-31 58-27 54-26 53-24 51-23 50-24 50-23 48-25-6 3 44-25 41-24 37-24 35-22 33-20 32-18 30-16 5-3 28-13 25-12 23-10 20-9 19-7 16-7 14-5 11-5 10-3 7-3 6-2 5-3 4 0"/>
<path d="M9728 18133l 6-2 5-1 6-1 7-2 8-1 8-1 10-1 11-2 13-2 15-2-7 1 18-3 18-4 19-5 21-6 22-7 24-9 25-9 27-10 28-12 32-13 37-15 41-16 44-16 46-16 46-15 47-15 49-15 51-15 54-14 58-14 60-14 61-15 63-15 66-17 69-18 71-20 73-21 76-21 78-22 81-22 83-22 85-22 88-21 89-21 92-20 95-20 96-19 95-20 98-21 100-22 102-23 101-25 102-25 103-25 105-24 106-24 106-22 105-22 104-20 7-1 105-18 107-18 106-19-7 1 104-19 103-21 102-22 103-23 102-22 99-23 98-21 95-20 94-19 93-17 89-16 87-16 6-1 85-15 83-14 81-13 76-11 73-11 69-10 68-10 64-10 60-9 55-9-6 1 51-10 52-10 54-11 51-9 45-8 6-1 38-5 32-4 27-2 21-2 16 0 12 0 10 0 4 1"/>
<path d="M13072 18519l 4-10 5-12 5-15 6-19 6-22 8-24 9-27 10-29 11-30 13-30 14-31 16-34 3-6 18-37 21-41 23-44 23-47 24-48-3 6 24-50 23-53 23-56 24-60 23-61 25-62 26-67 28-70 30-72 33-74 33-78 34-82 33-83 32-85 33-88 34-92 36-94 39-96 42-96 43-99 42-103 42-107 40-108 42-109 45-112 52-121 57-132 55-128 46-117 44-120 48-129 50-124 47-112 50-113 53-124 51-125 46-115 48-119 54-126 53-121 48-106 45-105 48-115 46-113 42-100 43-98 48-101 45-97 39-84 36-81 36-85 35-79 29-65 26-57 25-54 24-53 24-53 23-48 21-44 21-40 19-37 2-3 2-2"/>
<path d="M5468 20895l 8 0 10-1 11-1 13-1 17-2 19-2 22-2 25-1 28-1 30-1 30 0 32 0 32-1 33-1 36 0 39-1 40-1 40 0 41 0 42 0 41-1 44-1 45-2 48-1 50 0 49 0 49 0 50-1 50-1 54-1 54-2 55-1 53-2 51-2 52-3 52-3 50-3 49-3 45-2 43-4 39-3 37-3 36-4 34-3 33-2 32-1 30 0 29 2 26 1 24 2 23 2 20 2 18 3 6 1 16 2 14 3 13 4 11 4 10 3 9 4 8 4 7 4 4 2 6 3 5 3 4 4 4 3"/>
<path d="M4061 4599l 1-4 2-4 2-3 5-4 3-3 3-3 6-3 5-1 5-2 5-2 7-1 7-2 7-2 6-1 8-1 8-1 8 0 7 0 6 0 6 1 6 1 6 1 5 1 6 3 5 3 5 4 3 5 3 5 2 6 1 6 1 6-1 6-1 6-2 5-2 6-3 5-3 6-3 6-4 5-5 6-5 7-6 6-5 6-6 6-4 5-6 5-5 6 4-5-5 5-3 5 3-6-1 4-7-23 3 3-6-3 5 2 5 1-6-1 5 0 5 0 5 1 6 0 6-1 7 0 6 0 7 0 8 0 9 1 8 1 6 1 8 1 6 1 5 2 5 2 6 3 4 3 5 3 4 3 4 5 3 3 3 6 2 4 1 5 1 6 0 6-1 6-1 6-2 7-3 8-3 6-5 8-6 10-6 10-7 10-8 9-9 10-4 4-9 9-9 8-9 8-10 8-10 7-11 7-11 6-12 7-5 3-13 5-15 6-14 4-12 3-11 2-4 1-12 1-12 1-13 0-3 0"/>
<path d="M2280 6748l 3-4 3-4 5-3 4-4 6-4 5-3 7-3 7-3 9-2 10-2 9-2 7-1 10-1 10-1 11-1 11 0 11-1 10 1 10 1 6 1 9 2 9 2 7 2 6 3 6 3 5 3 4 4 5 5 2 4 3 5 2 5 1 6 0 6-1 7-1 7-2 9-3 10-4 11-6 12-3 6-7 12-8 12-9 12-10 13-11 12-5 4-11 12-12 11-11 10-12 10-12 8-10 8-10 7-9 8-8 7-8 6-6 5-6 5-4 3 5-4-2 3-4-29 3 2-12-4 5 1 6-1 7-1 7 0 8-1 8-1 9-1 10-1 10-2-6 1 11-2 10-2 6-1 11-1 10 0 10 0 9 0 10 0 10 0 9 0 10 0 9 0 9 0 9 0 2 1 3 1 2 2"/>
<path d="M1705 7200l-1 6-2 8-1 8-3 9-2 10-3 9-2 9-2 11-3 10-2 9-3 9-3 8-4 8-3 7-3 7-3 7-2 7-2 6-3 5-1 5 1-6 0 5-1-7 3 5-8-10 5 4 6 3-6-3 7 2 7 1-7-1 8 0 9 0 11-1-7 1 12-2 11-3 13-2 13-3 13-4 14-3 13-4 12-5 12-4 10-5 11-4 10-4 9-4 8-5 3 0"/>
<path d="M1806 7266l-2 3-1 4 2-5-1 4 0 5-1 5-1 6 1-6 0 6-1 5 0 5 0 5 1 5-1-6 2 5 1 6 2 6 1 7 2 7 1 8 3 9 2 10 3 11 2 11 2 12 1 3 2 11-1 3"/>
<path d="M1601 7024l-11 5-11 6 4-2-12 8-12 9-13 10-12 13 4-4-13 14-12 15-11 18-10 18 3-6-9 20-8 21-7 21-7 22-6 21-6 22-5 22-4 25 1-6-3 28-1 30 1 31 3 32 5 31-1-6 7 29 8 27 10 24 11 21-3-5 11 18 12 17 13 14-4-4 13 12 14 10 15 8-5-3 15 6 17 4-6-1 18 1 19 0 20-1 21 0 21-1 21-3-6 1 20-5 21-6 19-10-6 3 18-12 16-15-4 4 14-20 13-23-3 5 12-26 11-29 10-28 9-27 8-25 6-24 5-23-1 6 3-23 2-25-1-27-2-30-4-30-5-31 1 6-7-30-7-26-9-21 3 6-10-18-11-17-13-15 4 5-14-14-16-12-16-11-17-10 6 3-18-8-19-6-19-3 7 1-18 0 6-1-16 3-16 5-15 6 5-2-14 8-14 9-13 11-12 10-12 11 3-3-10 11-9 12-8 12-8 11-2 2"/>
<path d="M5203 3880l 2-5 4-4 4-5 7-5 8-8 11-9 11-8 12-7 6-3 11-6-5 3 11-6 6-3 12-6 15-6 16-6 17-6 17-5 17-4 17-4 18-5 21-5 18-6 13-4 11-3 14-4 12-2 4-1 9 0"/>
<path d="M5298 3912l-4 7-4 6-5 7-4 8-5 10 3-5-4 11-4 12-4 13-5 14-4 16-4 15-3 12-3 13-3 12-2 12 1-6 0 10-1 7 1 8-1-7 2 7 2 6-3-6 4 5-5-5 4 3-12-4 5 1-6 1 5-2 8-2 9-3 11-5 12-6-6 3 11-7 13-8 14-9 14-9 13-8 12-8 13-7 6-3 13-7 13-6 12-6 11-5 11-4 10-4 9-3 10-2 9-2 7-1 10-2 9 0 8 0 6 1 6 2 6 2 6 3 6 3 5 4 6 5 4 4 5 6 5 8 3 6 3 10 2 11 1 6 1 10 0 11-1 6-2 11-3 11-5 12-5 13-3 5-8 13-9 15-11 16-12 17-13 16-13 13-5 4-12 12-14 10-16 10-6 3-16 8-16 7-17 5-19 4-18 3-6 1-17 1-14 0-6-1-11-2-9-2-10-4-3-2-9-6-9-7"/>
<path d="M1568 4991l 3-4 4-4 3-4 5-4 4-3 5-4 6-2 7-4 9-4 9-3 8-3 8-2 8-1 9-2 8-2 8-2 6-1 6-1 7 1 4 2 6 3 4 4 3 6 2 3 1 7 0 5-1 7-2 6-3 7-3 6-4 8-5 9-7 9-8 8-4 5-8 7-8 9 4-5-8 9-4 4-8 8-7 7 4-5-6 8-6 7-6 6-5 6-4 4 3-5-1 3-13-26 2 1-12 0 5-1 5-2 6-2 6-1 7-1 8-2 6-1 8-1 8-1 6 0 7 1 6 0 6 1 6 1 5 2 6 3 5 2 4 3 5 5 3 4 3 6 2 4 1 6 0 5-1 6-1 6-2 6-3 7-4 7-3 6-4 8-5 8-7 9-8 9-5 5-9 8-9 8-9 7-10 6-10 6-10 6-10 5-5 3-10 3-10 2-5 1-9 0-10 0-4-1-8-2-8-3-3-2"/>
<path d="M1576 4798l-5-3-5-2 5 3-6-1 6 1-6 0-6 0 6-1-7 2-6 2-6 3 6-3-6 3-6 4-5 5-7 5-6 7 4-5-7 9-8 12-9 14-8 17 3-6-9 19-9 22-9 24-9 25-8 27-7 26-6 26-5 26-4 27 1-6-3 27-2 27 0 26 2 24 4 22-1-6 6 21 7 20 9 18-3-6 10 17 12 15 13 13-4-4 14 12 14 10 16 8-6-2 16 7 17 5 18 4-7-1 19 1 20 1 20-1 22-3 23-4-6 1 23-5 22-8 22-9 20-11-5 3 19-13 17-14-4 4 15-16 14-18 13-19 12-19 11-19-3 5 9-19 7-20 6-20 5-20 4-23-1 6 2-25 0-24-2-22 1 6-5-23-7-27-10-29-12-29-13-26 3 6-15-24-18-21 5 4-19-18-18-14-18-11 6 3-18-8-17-7-19-6-19-5 6 1-21-3-23-1-22 2 5-1-20 4-18 5-14 6 4-2-14 7-13 8-14 11-13 11-3 1-3 0"/>
<path d="M4920 5803l-1 8-2 8-2 10-2 12-4 17-3 21 1-6-3 21-2 20-2 19-2 19-2 19 0 20-1 21 0 21 0 21 0 20 2 20 2 19-1-7 4 18 4 17 4 16 6 14 6 12-2-5 7 10 7 8-5-5 8 7 9 4-5-3 10 4 10 1-6-1 11 0 10-1-6 1 10-4 11-4-5 2 11-6 11-7 10-8 9-9-4 5 8-9 6-9 5-8-3 6 3-7 2-7-1 6 0-7 1 6-2-6 3 6-3-6-5-6 4 5-6-6-9-5 6 3-9-3-10-3-11-3 7 1-11 0-11 0-12 2 7-1-11 2-10 4-9 4 5-3-9 5-9 6-9 8 4-4-8 8-7 10-6 9-6 10-5 10-5 10-2 2"/>
<path d="M6005 3495l 5-3 9-5 11-5 11-4 12-5 12-5 11-4 11-4 12-3 10-4 11-2 10-3 9-2 7-1 6-1 6-1 6 1 5 1 6 3 4 3 5 5 3 4 3 6 1 5 2 6-1 7-1 6-1 9-2 11-3 12-3 11-4 12-3 13-4 13-4 14-5 14-4 13-3 12-4 14-4 17-4 17-4 16-4 15-3 14-4 14-4 11-5 10-3 9-3 6-3 6-1 3-2 2"/>
<path d="M3704 4056l 1 6 1 6-1-7 1 7 2 6 1 6 1 7 2 6 1 6 1 6 1 7 1 7 0 7 1 8 1 8 1 7 1 8 0 7 1 7 1 7 1 8 0 6-1-6 1 6-3-6 2 3-16-8 3 0-6 1 4-2-6 3 5-3 4-4-5 4 5-4 4-5 4-6 4-6 5-6 5-7 5-6 5-6 5-5 4-4 5-4 5-4 5-4 5-3 6-3 5-3 6-2 7-2 6-2 6-2 7-2 7-1 6-2 7-2 7-1 6-1 7-1 6 0 6 0 7 1 6 0 6 1 6 1 4 2 6 3 4 3 5 5 2 4 3 6 1 5 1 6 0 6-1 6-1 7-2 7-4 8-4 10-2 5-5 10-6 10-6 11-8 11-7 11-8 10-9 11-10 11-4 4-10 10-11 10-12 10-12 9-13 8-12 7-6 3-13 6-12 5-12 4-10 3-10 2-8 2-7 0-5 1-6 0-4-1"/>
<path d="M3649 3997l 6-3 7-3 9-4 9-5 10-5 11-5-6 3 11-6 11-6 10-7 10-7 10-7 11-6 10-6 9-6 10-5 8-6 8-5 8-4 7-5 6-3 5-2 5-3 5-2 4-2 4-1 4 0"/>
<path d="M8138 2061l 3-5 2-5 3-6 4-5 4-5 5-5 7-5 7-4 6-3 8-3 8-4 9-4 9-4 9-4 9-4 10-2 10-2 9-1 6-1 9-1 8 0 6 0 8 2 6 3 6 3 5 5 6 5 4 7 2 6 3 8 1 6 2 9 0 9-1 10-1 6-2 11-3 13-4 13-5 14-3 6-7 15-8 15-9 15-8 15-10 15-10 16-10 16-10 16-10 17-11 16-10 16-11 17-10 17 3-5-9 18-7 18-6 17-4 16-3 13-2 11 1-6-1 8 1 7-1-6 2 5-7-10 4 3-6-3 6 2-7-1 7 0 9-1-6 1 10-3 10-3 11-3 12-5 12-4 13-5 14-5 13-5 15-6 16-6 18-6 19-6 21-8 21-8 22-8 21-8 21-8 20-7 20-8 3 0"/>
<path d="M8552 1955l 2-5 2-6 4-5 5-6 4-4 5-5 6-3 7-3 8-4-6 3 9-6 9-6 10-6 10-6 11-6 12-6 11-5 5-3 12-4 11-4 10-3 9-2 4 0 7-1"/>
<path d="M8643 1913l-6 6-6 7 4-4-6 8-5 9-5 8-5 10-4 9 2-5-4 10-3 11-3 13-2 13-3 14-2 13 1-6-1 13-1 12 0 12 2 10-1-6 1 9 2 7 3 6-2-6 4 5-5-4 6 3-5-3 7 2-7-1 9 0 9-2-6 1 10-2 11-4 13-5 13-5 15-5 15-6 14-6 15-7 14-6 13-7 14-5 12-5 12-3 10-3 10-3 9-3 6-1 8-1 7 0 6 1 7 1 6 2 6 3 5 3 5 5 4 5 3 5 2 7 1 6 0 7-1 6-2 7-3 9-4 8-3 6-6 8-6 9-8 9-5 5-10 10-13 10-14 10-14 10-13 8-15 8-5 3-17 8-17 7-14 6-15 5-15 7-14 6-14 6-12 5-10 4-9 2-6 1-6-1-6-1-5-2-4-5-3-5-1-6 0-3 0-5 3-5 4-4 5-5"/>
<path d="M9065 1993l 4-4-3 5-4-26 5 4-4-3 17 8 3 2 2 2 1 2 1 3-1 3"/>
<path d="M9256 1740l 4-4 5-5 6-4 5-4 6-3 6-2 6-3 6-2 8-3 8-2 9-3 11-2 6-1 11-2 11-1 12 0 12 0 12 0 12 1 12 1 7 1 11 2 11 3 10 3 9 3 10 4 8 4 6 3 8 5 8 5 7 5 7 6 7 6 4 4 6 6 5 6 4 7 3 5 3 7 1 7 1 8-1 9-1 7-2 10-5 11-3 5-6 12-8 12-9 13-12 14-14 15-4 4-16 15-18 16-20 17-21 16-23 18-23 17-22 18-22 18-20 18-19 17-17 16-15 15 4-4-13 14-11 12-9 12-7 10-6 8-4 7 3-6-2 5 1-6 0 5-4-12 3 4-4-5 5 3-5-3 7 2-6-1 10-1-7 1 11-2 13-4 14-4 16-5 17-4 18-5 19-5 19-4 19-4 19-4 18-3 17-3 15-2 6-1 14-2 12-2 11-1 11 0 9 1 5 1 8 1 8 2 8 2 8 3 7 3 3 2 2 2"/>
<path d="M9775 1893l 6-2 7-2 8-2 7-1 8-1 9 1 8-1 9-2-4 1 11-2 4-1 11-1 11-2 11-1"/>
<path d="M10026 1755l 4-4 4-5 6-5 6-5 7-5 8-5 9-5 5-3 9-4 9-4 9-3 9-2 9-2 6-1 8-1 8 0 7 1 6 1 8 1 7 2 6 3 5 3 5 4 5 4 4 5 3 6 2 5 1 6 0 6 0 5-1 6 0 6-2 6-2 7-3 6-3 6-4 8-5 8-5 8-6 7-5 7-6 7-5 6-4 6-4 5 3-6-2 5 0-12 1 4-3-5 4 4-4-4 5 3 6 3-5-2 6 2 6 2 6 1 6 2 6 1 7 1 7 2 8 2 9 2 8 1 7 2 8 2 7 2 7 2 7 3 6 2 5 4 5 5 5 4 4 6 3 5 2 7 1 6 0 7-1 6-2 7-3 6-3 7-5 7-6 7-4 5-7 7-9 7-10 7-11 8-13 7-5 3-14 7-14 7-15 6-16 7-18 6-18 6-18 5-19 4-19 3-18 3-5 1-17 2-15 1-13 1-13-1-4 0-11-2-11-3"/>
<path d="M10545 1796l 0-4 1-6 2-5 3-4 4-4 3-4 5-5 6-4 5-2 7-3 10-2 11-3 12-2 6-1 12-2 13-2 14-1 16-2 16-1 16-1 15-1 14 0"/>
<path d="M10603 1850l 6-1 13-2 14-1 16-1 18 0 19-2 20-2 21-3 21-2 20-4-3 1 20-4 3 0 2 0"/>
<path d="M11038 1612l-5 4-6 5-5 5 4-4-5 6-6 7-6 9-6 10 3-6-5 12-6 12-6 13-3 6-6 12-8 13-7 14 3-5-6 15-6 15-6 14-5 14-4 12-3 10-2 8 1-6-1 7 1 6-1-6 2 6-3-6 3 5-5-5 5 4-5-3 7 4 9 2 11 2-7-1 11 1 12 1 13 1 14 0 13-1 14-1 14-1 14-1 14-1 13-1 14-1 12-1-5 1 12-2 13-2 12-2 13-2 5-1 12-2 12-2-5 1 13-3 11-3 11-4 3 0 2 0"/>
<path d="M11114 1707l-1 7 0 8 0 10 0 10 1 11 0-6 2 11 3 12 3 12 3 13 4 14 3 13 3 13 2 13 2 12 2 11 1 12 2 11 1 6 1 12-1-5 2 11 2 10 1 5 1 9 1 7 1 7 0 4"/>
<path d="M11293 1570l 5-2 7-4 9-3 10-2 5-1 11-3 12-2 12-2 12-2 13-1 12 0 14 1 13 1 13 0 12 0 11 1 10 0 9 0 9 0 9 0 10-1 9-1 8-1 8 0 7 0 7 0 6 1 6 3 6 2 4 5 4 5 3 6 1 6 1 8-1 10-1 6-3 10-4 9-4 11-6 11-5 12-3 6-6 12 3-6-7 14-7 16-7 18-7 19-6 19-6 17-6 17-5 17-7 15-6 15-6 14-2 5-7 13-7 13-6 12-8 12"/>
<path d="M7963 3526l 10-32 3 1 3 4 3 5 1 5-1 6-3 5-3 4-5 2"/>
<path d="M8118 3730l-6 1 7-2 6-2-5 3 6-4 8-5 9-6 10-7 10-8 9-8 9-8 8-8 8-8-5 5 8-8 7-10 8-10 7-10 6-10 7-11 7-12 6-11-3 5 5-10 4-11 3-10 2-10-1 7 0-9 0-8 0-7 1 6-1-6 3 6-2-4 16 9-3-1 12-4-4 3 5-5-3 4 2-6-2 5-2 6-1 6 1-6 0 6 0 6 2 7-1-7 1 8 3 8 2 6 3 7-2-6 3 7 5 8 6 9 6 9 5 9 4 7 5 7 4 6 5 5 4 7 5 6 4 7 3 5 4 6 2 6 1 6 1 6-1 5 0 7-2 6-2 6-3 6-3 5-3 4-5 5-5 5-6 4-6 4-6 3-7 3-7 3-8 1-6 1-8 1-8 0-6 0-6 0-6 0-7 0-7-1-6-1-5-1-6-3-2-2-5-4-3-6-1-6 1-6 3-6 3-3 4-5 6-4 7-4 8-4 5-3 8-4 10-4 11-5 11-4 9-4 10-4 9-3 10-3 11-4 11-3 11-4 10-3 10-2 10-3"/>
<path d="M8480 3554l 1 7 0 7 2 9 1 8 0-6 2 9 2 9 2 9 3 10 3 11 4 13 5 14 4 17 3 16 3 15 1 6 2 14 2 15 1 18 0 18 0 17 0 19 0 22-1 22-2 19-1 16-1 13-1 10 0 9-1 10-1 6-2 8-2 4-3 6-4 5-6 3-6 1-6-1-6-3-3-2-4-5-3-6-3-7-3-12-3-15-1-6-2-17-2-20-2-21-2-21-1-20-1-19-1-18-1-20-1-19-1-16 0-12 0-11 0-11 0-11 1-12 2-12 1-6 1-11 3-9 3-9 4-10 4-9 3-5 5-8 5-9 7-9 8-11 9-9 5-5 9-9 10-7 10-7 6-3 10-5 10-3 11-3 7-1 10-2 10 0 9 0 10 1 6 1 8 1 6 3 7 3 4 5 5 6 3 5 3 7 2 7 1 6 1 7-1 6-1 6-1 7-4 9-3 6-6 10-9 10-9 10-9 10-8 9-5 4-9 8-10 9-9 8-9 6-7 5-8 4-5 2-7 4-8 3"/>
<path d="M8740 3504l 4 4 3 4 3 5 2 6 1 6 0 7 0 9-1 6-1 8-2 8-2 9-1 8 0-6 0 8 0 8 1 8-1-6 2 8 2 7-3-6 3 6 4 5-4-5 5 4 5 4 6 2-6-2 6 2 6 1 5 1-6-1 6 1 5-1-6 1 6-2 5-2-6 3 6-4 6-5 5-5-4 4 5-6 4-5 5-6 3-5 3-5-3 6 1-5 1-5-1 6 0-5 1 6-1-6-2-5 2 6-3-5-3-4 4 5-3-3-4-2 5 3-4-2-6-2-6-1 7 1-7 0-6 0-6 1-5 1-5 0-6-1-3-1-6-3-5-4-2-6-1-3-1-6 1-6 2-5 3-5 3-6 6-7 6-8 8-9 8-10 9-10 8-10 8-9 8-9 7-9 8-9 8-11 8-12 8-12 8-14 7-13-3 6 5-12 5-13 3-13 3-14-1 7 2-14 1-15 0-16 1-17 0-18 0-16 1-15 0-13 0-11 0-7 1-3 1-6 2-6 5-4 6-3 6-1 6 1 6 3 4 4 3 6 1 6 1 3 1 9 1 12 1 15 1 15 2 16 2 17 1 19 3 19 2 20 3 20 2 20 3 20 2 20 2 21 1 21 1 21 0 21 0 20 0 18-1 17-1 17-1 16-2 15-1 11-1 7-1 8-2 5-3 6-1 2-4 4-6 3-6 1-6-1-6-3-5-4-2-6-1-3-1-6 0-7 1-9 1-6 2-11 3-10 4-10 5-11 3-6 6-11 6-11 6-11 6-9 6-10 7-9 8-9 8-9 5-5 9-9 9-9 9-8 9-7 9-7 9-7 10-6 10-6 6-3 11-6 11-5 9-3 7-2 6-1 4 0 6 1 6 3 5 5 3 5 1 7 0 3-1 6-3 5-3 5-5 7-7 8-8 9-9 10-10 11-9 10-8 9-7 8-6 7-6 7-6 8-6 8-4 8 2-5-3 8-1 7 0-13 1 6-3-6 4 4-5-4 6 3-6-3 6 1-6-1 6 0 7 0-6 1 8-2 9-3 10-3 9-3 9-4 9-3 9-4 8-4 8-3 7-4 7-3-6 3 5-3 5-3 3-2 4-2 6-3 4-2 5-2 5-1 6-1 5 0 6-1 5-1-6 1 6-1 6-2 7-3 7-4-5 3 7-4 7-5 7-5 6-5 7-6 6-5 5-5 4-4 5-4-5 4 5-4 4-6 4-5 3-5-3 6 2-5-1 6 0-5 3 12-2-3 5 4-4-3 6 3-4-2-6-2-6-1 6 1-6 0-5 1 6-1-5 1-5 3 6-3-5 3-4 4-5 4-5 5 5-5-5 6-5 5-5 6-5 7-4 6-4 7 3-6-3 6-2 7-1 6 1-6 0 5 1 6-1-7 1 5-2-6 2 4-4-4 3 3 5 3-5-3 6 1-6-1 7 0 9 0 10-2-6 1 9-2 10-2 10-4 11-4 12-5-6 2 13-7 14-8 15-10 14-9 14-9 13-9 11-8 9-7 8-6 7-6 5-5-4 5 4-6 4-5 3-5-3 6 2-6 1-5-1 6-1-4 4 12-2-3 16 8-3 0 12-4-4 3 5-5-3 5 3-6-2 6 1-6 0 6 0 6-1-6 2 6 3 6-3-6 4 6 5 6 5 7 6 5-5-4 6 5 5 5 6 5 5 5 5 5 5 5 5 4 4 6 4 5 3 6 3 6 3 7 1 7 1 6 0 7-1 6-2 6-3 6-3 5-4 5-5 4-5 4-6 3-7 3-8 2-9 2-7 1-9 1-9 1-10 1-9 0-9 2-8 1-8 1 6-1-7 1-7 2-4 1 13-13-1 1-13-25 4 1-6-1 8 1 10 1 12 1 11 0 13 1 12 0 12 0 12-1"/>
<path d="M7980 4402l 6 5 5 5"/>
<path d="M8124 4682l-5-3 5 1-6-1 7 0-7 1 8-2 7-3-6 3 9-6 9-8 10-10-4 5 12-14 14-17 13-20 13-21 15-26 16-31 18-32 14-29 14-27 13-27 14-28 15-29-3 6 15-32 15-35 14-33 10-30 8-29 7-30 5-29 4-23-1 7 3-19 1-16 0-15-1-12-1-11 0 6-2-8 3 6-4-7 4 5-5-4 12 4-8-1 7-1-8 3 6-3-9 6-10 9 5-5-12 14-14 18-13 20-12 21-13 24-14 28 3-6-14 29-11 28-10 30-9 34-9 38-8 38-6 38 1-6-3 37-2 36 1 33 1 28 3 22-1-6 3 19 5 17 6 16 6 15-3-6 8 14 8 11 10 10-5-4 9 8 10 6 10 5-6-3 10 4-6-1 10 1 10-1-6 1 10-2 10-4-6 3 9-5 8-6 6-7-4 5 5-8 5-7-3 6 4-8 2-7-1 6 1-8-1-7 1 6-2-8-4-8-3-7-5-8 3 5-5-8-5-8-7-8 5 5-7-6-6-5-6-3 6 3-6-2 7 1-6 0-5 0-5 0-6-1-2-1-5-2-4-4-3-5-1-6 1-6"/>
<path d="M8487 4439l 8-2 7-3 8-4 8-3 9-3 8-3 8-4 8-3 7-3 7-2 6-1 6-1 6 1 6 3 4 4 4 4 3 6 1 6 1 6-1 8 0 6-2 7-3 7-3 5-3 7-5 8 3-5-4 9-4 10-4 11-5 10-4 9-4 9-4 8-4 8-3 9-2 8-2 7-1 6 1-7-1 6 1 6-1-7 2 7-2-6 3 7 4 5-4-4 4 4 4 3-5-3 5 3 6 3 8 1-5-1 8 1 8-1-4 0 10-2 12-5 12-4 10-4 3 0"/>
<path d="M8724 4492l 8-5-6 3 7-4 7-6 8-7 7-6 6-6 5-5-4 4 5-6 5-6 4-6 3-5-3 6 3-6 1-5 0 12-2-5 3 6-3-4 4 4-4-3 6 3-7-2-6-2 6 1-7 0 7-1-7 2-9 3-9 3-8 5 5-3-8 5-8 5-8 6-7 6-8 6-7 7 5-4-7 8-5 9-6 9 3-6-4 10-3 9-3 9-2 8-1 7 1-6-1 8 1 9-1-7 2 10 3 8-3-5 4 7 5 6-4-5 5 5 7 3-6-2 7 3 9 4 10 3 11 3-5-1 12 1 13 1 14 0 17-2 17-2-4 0 17-4 17-4 3 0 3 0"/>
<path d="M8954 4493l-6-1-5-1-5-1-6-1-6 0 6 1-5-1-6 0-6 1 6-1-7 1-6 2 6-2-6 2-4 4 4-5-4 4-3 5-5 7-5 8-5 8-4 8 2-6-3 8-2 10-2 9-2 9 1-6-1 7 0 7 1 6-4-12 3 4-5-4 5 3-6-2 8 2 7 2-6-1 8 0-6 1 8-2 8-2 7-4-5 3 8-6 8-6 8-7 8-6 6-6 6-5-4 4 5-6 3-6-3 6 3-5 2-5 2-5 2-4 2-2 4-5 6-3 6-1 7 1 5 3 5 5 3 5 1 7 0 1-1 7-1 4-1 5 1-7 0 7-1-7 1 7 3 7-3-6 5 6 4 6 5 5-5-5 5 4 6 4 7 4-5-3 7 4 7 3 7 2 6 1-6-1 7 0 9 0 8-1-6 1 9-2 9-3 12-5-6 3 12-7 11-6 12-9 12-11-4 3 13-13 11-15 12-17 14-19 13-21"/>
<path d="M9230 4117l-1 8 0-5-1 9 0 5-1 10 1-5-1 10 0 13 0 14 1 14 2 16 1 18 2 18 1 17 1 18 1 21 2 23 1 23 1 23 1 22 0 21-1 20 0 21 0 22 1 21 0 16 1 15 1 13 1 13 1 11 1 7-1-6 1 4-36-6 2-2-3 6 1-6-1 6 1-8 1-9 1-12 2-13 1-6 2-15 3-17 3-17 4-14 3-14 5-13 5-12 3-6 5-10 5-8 6-8 6-7 5-6 5-5 5-4 5-6 6-5 7-4 7-4 8-5 6-3 8-4 8-3 8-3 8-2 9-1 6-1 7-1 7 1 5 2 6 3 4 4 4 4 2 6 1 6 1 5-1 6-3 6-3 6-4 6-6 6-4 5-7 6-8 7-9 9-9 9-8 7-8 7-8 8-9 8-9 7-7 7 5-4-6 6-5 5-2 6 4-12-1 6-1-7 2 7-3-6 5 6-5-4 6 5 6 3-6-3 7 3 10 3-6-1 12 2 14 2 15 1 17 0 19-2 19-3-4 1 20-5 22-6 21-6 3 0 3 0"/>
<path d="M9896 4544l 8-11 9-12 11-15 12-17 13-19 15-21 15-23 15-21 14-19 15-19 16-22 16-21 14-20 12-21 13-25-3 6 11-28 9-29 8-27 4-22 4-21-1 7 2-20 2-19 1-19 0-18 0-18-1-17-1-16-2-14 1 6-2-10-3-7 3 5-4-3 10 7-4-2 7 1-6 0 7-1-6 1-5 3 5-3-7 3-9 6-10 8-10 11 4-5-11 13-11 16-11 17-9 19 3-5-9 20-6 21-6 23-6 29-6 31-4 29 0-6-3 27-1 26-1 25 0 23 1 24 2 22 1 21 3 18-1-7 3 18 5 19 5 17 5 15 6 13-3-6 8 13 8 11-4-4 10 8 10 6-5-2 11 2-5 0 12-1-5 1 14-4 15-6 15-8 4 0"/>
</svg>
