<svg xmlns="http://www.w3.org/2000/svg" viewBox="525 2525 21754 60474" stroke="black" stroke-width="16" stroke-linecap="round" stroke-linejoin="round" fill="none" data-xena="-2 -15 0"><style>@media(prefers-color-scheme:dark){svg{background-color:black;stroke:white;}}</style>
<path d="M2562 2793l-7 27-1 28-1 29-1 33-1 25 0 25 0 28-1 28-2 29-3 27 0 28-2 25-3 33-2 30-1 25 1 27-5 25"/>
<path d="M2808 3276l-19 20-11 22-11 27-7 25"/>
<path d="M3210 2862l 21-16 25-2 27 5 27 9 26 9 19 15 3 25-9 28-17 26-18 21-23 24-23 25-18 16-23 26-16 18-19 24-18 20-16 22-12 22 24 10 26-3 25-6 26-8 27-8 29-4 27-7 25-5 24 9"/>
<path d="M3564 3189l 8 23-13 26-15 26-14 23"/>
<path d="M3904 2868l 24-13 25-1 27 3 25 9 25 13 5 25-12 23-19 24-21 19-19 20 5 23 27 1 30-2 27-2 26 4 23 10 9 24-6 24-13 24-15 21-15 22-19 22-19 20-20 17-19 15-24 16-24 12"/>
<path d="M4292 3220l-14 25-11 26-16 24-14 23-10 22"/>
<path d="M4578 2843l 13 23-9 25-9 23-8 24-3 25 2 25 22 18 25 7 28 6 25 4 25-3 29-6 30-6 27-7 25-7 23-10 22-11"/>
<path d="M4725 2878l-1 27 2 25 1 24 3 26 5 25 1 32 2 30 0 34"/>
<path d="M5217 3161l-20 15-7 26-6 27-13 27-14 26-14 29"/>
<path d="M5552 2720l 27-2 29-2 24-4 25-5"/>
<path d="M5602 2747l-23 10-15 20-7 25 0 27-6 29 0 24 1 25 22 14 29-1 23-6 24-6 25-4 25-2 28 0 23 7 21 14-2 27-10 23-18 22-20 16-22 16-22 17-26 18-28 13-30 6-25 2"/>
<path d="M5918 3095l-20 16-20 20-17 19-16 18-13 22"/>
<path d="M6426 2628l-14 20-9 23-9 24-10 27-10 29-9 33-6 24-5 23-5 23-8 36-4 33 0 31 3 28 10 28 17 22 23 16 29 0 27-10 25-17 20-20 4-25-14-22-27-14-25-4-29 3-26 9-22 16"/>
<path d="M6636 3117l-14 23-14 25-10 28-9 26"/>
<path d="M6977 2720l 26-7 27-6 29-7 24-5 30-5 29-6 28-6 26 3 19 16-4 25-13 27-13 26-12 21-10 22-10 23-9 23-6 24-9 24-7 24-12 32-7 31-9 29-6 30-3 24-3 28"/>
<path d="M7361 3182l-19 19-18 22-15 20-17 21-16 24-16 25-13 24"/>
<path d="M7977 2807l-8-23-9-25-12-22-19-19-25-9-26-5-28 3-24 14-16 20-9 23 0 29 12 26 16 21 18 17 21 17 23 13 27 15 23 12 22 15 16 20 12 20 13 27 8 28 0 24-7 26-12 22-16 23-18 19-23 14-23 8-28 6-28-4-22-13-16-19-12-24-1-32 6-28 12-32 17-27 21-25 18-17 18-18 21-17 21-15 24-15 25-13"/>
<path d="M8184 3295l-22 18-17 18-17 16-19 18-19 23"/>
<path d="M8713 2872l-2-25-6-23-12-26-13-22-20-15-24-5-24 11-24 16-17 24-9 27 1 26 13 26 22 16 23 5 25-2 24-8 24-10 20-16-18 20-5 24-2 27-1 30 1 31 4 25 0 27 2 25-2 28-3 29-2 27-5 24-9 23"/>
<path d="M8947 3225l 18 16-12 23-12 22-14 25-14 26-14 24"/>
<path d="M9398 2874l-9 24-2 24-2 29 1 32-2 26-3 29-5 29-4 26-3 30-2 25"/>
<path d="M9616 2855l-14 21-3 28 0 31 2 27 3 32 2 33-1 28 1 31 2 30 0 25"/>
<path d="M9750 3200l-12 23-7 25-11 25"/>
<path d="M10248 2873l 17-20 25-3 28 2 25 3 25 6 24 8 22 13 10 22-12 23-16 20-22 21-18 18-23 17-23 18-23 17-18 16-16 17-15 25 6 23 27 8 26-3 26-5 31-7 34-11"/>
<path d="M10608 2895l-3-24 26-11 29-1 26 2 26 7 22 10 22 12 17 16 2 26-6 24-17 19-21 16-21 17-22 20-20 18-18 18-18 22-14 21 6 24 26 7 28 5 25 1 30 2 25 0 26 0 26-2"/>
<path d="M11094 3220l-16 20-14 23-15 25-12 24"/>
<path d="M11430 2905l 23-11 27 3 24 5 26 11 18 17-18 19-22 13-21 13-22 12 18 16 24 1 27 3 24 6 23 9 17 19 2 25-13 24-24 17-21 18-23 18-22 12-24 11-26 5"/>
<path d="M11721 2854l 21-12 24 0 26 3 30 4 28 9 20 13-7 24-20 19-22 13-24 13-23 12 12 22 27-3 25 1 24-1 15 19-1 25-4 27-9 23-16 24-15 19-19 15-25 14-24 1"/>
<path d="M1838 2761l-23-8-19 24-16 27-13 26-12 31-9 23-6 25-7 27-6 26-4 28-3 29-2 29 1 30 3 27 3 25 9 32 12 25 18 20 19 17 22 10 25 3 27-6 29-10 28-17 20-14 27-26 18-21 15-21 15-25 14-23 10-24 12-32 6-33 0-30-8-29-13-29-18-25-16-19-19-16-19-16-19-17-25-19-22-14-26-11-23-8-25 8-9 27"/>
<path d="M2263 3220l-13 23-10 26-7 27"/>
<path d="M10174 3701l-24 8-12 22-14 26-14 24-14 25-13 26-12 27-10 26-7 26-6 25-5 30-2 24 1 25 4 26 6 30 6 23 11 26 10 23 15 19 13 21 19 15 15 20"/>
<path d="M10371 3853l-12 21-8 25-10 25-10 31-8 26-8 25-9 26-6 24-7 26-3 25"/>
<path d="M10454 3946l-14 20-7 29-6 28-5 28 1 25 8 24 14 21 22 18 24 8 25-7 16-19 14-24 9-26 0-26-4-27-8-27-16-21-21-10-25 5-20 14"/>
<path d="M10662 3795l 11 21 16 22 15 21 16 22 15 22 13 21 9 23 6 28 0 31-4 27-6 27-8 29-9 29-10 30-11 30-11 29-9 29-10 25-9 23-11 28"/>
<path d="M11500 2828l 20-18 22-12 26-4 24-1 25-1 25 0 22 15 9 24-6 27-14 24-18 22-18 17-23 19-24 20-27 20-29 23-32 23-35 25-37 25-37 24-38 23-39 22-39 22-38 18-36 19-31 16-26 15-22 13-21 11 32-14 24-12 30-16 35-20 38-22 42-25 23-13 23-13 23-12 24-13 24-12 24-14 26-12 24-12 24-13 24-12 22-11 23-12 22-9 44-17 41-17 38-15 35-14 28-12 25-7 24-6 11 23-20 18-21 16-25 18-30 20-36 23-40 23-21 12-21 13-22 12-22 13-24 12-23 13-23 12-25 12-25 13-25 11-25 13-25 14-25 13-25 12-26 15-27 13-26 13-26 15-26 13-26 13-24 11-25 16-22 11-40 22-32 18-28 18-27 17 24 14 26-5 33-10 38-15 46-19 25-11 27-12 27-12 30-14 30-14 31-13 32-15 33-15 32-15 33-14 34-16 32-14 34-14 32-14 32-13 32-13 31-11 30-11 30-11 28-9 26-9 26-8 24-7 43-11 36-7 30-1 31 3 22 15-6 23-17 25-17 17-22 18-25 18-30 20-33 20-34 22-37 22-38 21-40 20-36 20-36 20-32 18-27 17-23 14-25 18-17 17 21 20 27 8 29 4 30 3 36 0 43-1"/>
<path d="M3629 5531l 7-23 11-24 8-26-9-23-25-2-25 11-21 15-19 23-19 26-16 24-8 23-1 26 21 17 26-1 28-9 25-14 23-16 19-16-8 25 13 23 20 13 23-11 19-21 18-22 10-26 11-23-11 26-5 25 27-11 16-24 15-24 15-25 16-19 10 23-2 24-1 25 3 25 25-5 19-19 21-21 17-21 17-18 0 25-9 24-5 26 5 26 25 0 20-16 17-20 18-22 16-22 10-22 10-24 3-25-13 21-3 26-2 28-1 25 1 31-1 31 0 32-2 25-3 27-4 30-6 32-4 34-6 23-5 25-7 26-6 26-10 25-8 25-11 24-10 23-11 22-14 27-14 21-15 20-24 4-10-26 1-31 3-27 5-30 9-32 10-35 12-36 15-38 14-39 17-39 17-39 17-37 19-35 20-33 20-31 20-28 20-25"/>
<path d="M4275 5159l 3 30-2 32-6 31-7 34-7 25-8 25-9 27-10 27-9 27-10 28-8 25-10 24-10 30-8 30-1 24 19 17 26-11 21-15 19-21 14-22 11-22 7-27-4-24-13-21-18-19-22-15-23-10-26-7 28-9 24-14 22-17 25-20 27-21 24-22 23-23 21-22 16-22 12-21 12-22 12-21-18 25-10 25-13 32-9 25-8 25-10 25-7 28-7 25-7 27-5 26-5 25-4 25-3 32-1 27 1 27 24-8 16-24 16-27 15-20 17-18 8 24 1 26-4 24 6 26 25-1 25-17 20-17 18-18 20-20-20 20-7 24-3 28 3 25"/>
<path d="M4579 5295l-12 23 8 26"/>
<path d="M4609 5470l-9 25-4 24 26-5 19-22 16-23 19-20 18-18 23-13 22 10 0 28-3 25 8 27 14 20 25 5 29-5 24-10 23-14 24-17 18-16 22-22 15-21 9-23-18-18-28-2-25 11-22 11-20 20-13 21-8 28 3 27 9 24 22 16 27 7 26-3 24 5 13 25 1 25 2 31 2 28-1 34-3 24-3 26-6 26-7 28-9 28-12 28-11 28-12 27-12 26-11 24-13 23-20 25-20 19-24-3-5-29 2-32 4-25 5-27 8-29 9-30 12-35 13-38 16-39 17-40 20-38 17-34 19-31 19-25 15-22 17-19 16-18 24-23 26-22"/>
<path d="M5749 5240l 28 2 23 9 27 9 24 8 24 10 21 11 1 25-22 13-22 12-26 14-23 12-23 11-24 12"/>
<path d="M5785 5437l 26-14 26-10 26-11 29-13"/>
<path d="M6164 5190l 26-4 26 6 25 6 25 6 24 6 17 18-13 26-21 19-26 21-25 20-25 22-19 17-18 16-24 22-20 16-16 22-12 23 10 24 23 11 26 2 25-2 31-6 31-9 31-10 27-8"/>
<path d="M6473 5186l 23-14 25-2 24 1 25 1 25 2 28 4 26 10 15 20 6 24-15 24-18 20-17 18-20 18-22 20-27 23-20 16-19 15-18 16-24 24-24 25-18 21-11 25 11 21 26 6 25-2 27-3 34-7 24-6 26-6 26-7 27-9 25-8"/>
<path d="M7848 5283l-2 26 9 23 6 27 6 29 8 25 8 25 24 5 20-25 21-27 17-22 17-23 18-26 19-28 20-28 20-31 18-32 19-31 18-30 16-29 14-26 13-22 15-28 12-24"/>
<path d="M9475 4313l 1 29 1 24 2 33 1 25 2 29 2 33 2 35 2 38 1 40 3 40 2 43 1 44 2 44 1 47 4 46 0 48 0 25 0 25-1 25-1 25-1 25-4 25 0 25-2 24-1 24-2 25-1 25-3 24-2 25-1 24-5 48-4 46-4 44-3 43-3 41-3 39-2 37-4 33-2 30-1 25 2 33 0 24-2 24-7-26-3-26-2-24"/>
<path d="M9436 4374l-26 4-22 16-19 16-16 18 22-13 21-16 23-16 21-13 26 4 23 8 21 14 17 20 11 22 11 22 13 25 8 26 10 22 11 24"/>
<path d="M9182 6187l 22-15 26-7 28-5 24-3 30-5 24-4 26 0-6 26-21 19-23 17-22 19-24 19-24 20-22 20-21 20-19 21-18 20-17 24-11 23 7 26 22 11 25 4 31-7 24-9 29-12 27-13 27-14 28-15 30-17"/>
<path d="M9504 6164l 17-19 24-1 7 25-9 23-15 20-15 21 18 18 28-5 27-3 23 7 15 20-7 24-17 23-17 18-17 18-17 18-22 13"/>
<path d="M5749 6275l 22 10 25 9 29 8 29 5 24 1 25 0-16 23-24 19-25 20-23 19-22 18-21 19-18 17-16 19"/>
<path d="M5814 6530l 11-23 20-16 25-18 21-16 20-18"/>
<path d="M6214 6188l-3 26-4 28-1 26-1 28-2 28 2 28 2 26 6 24"/>
<path d="M6391 6074l 0 27 5 28 3 27 4 26 4 27 0 26 4 25 3 27 4 26 3 25 2 25 9 22"/>
<path d="M6094 9389l-8 25-6 26-3 27-3 24-3 28-5 28-2 28 0 28-3 27-1 27 0 26-4 26"/>
<path d="M8257 10453l 20-15 28-2 28-4 24 1 26 4 20 15-7 24-17 24-17 21-22 21-17 16-17 18-19 19-18 18-21 21-16 18 18 16 27-4 28 0 27-3 26 0 29 4"/>
<path d="M6880 12671l 23-13 27-4 24-3 24 3-6 26-15 19-19 21-18 21-18 20-15 21-15 19 15 20 26-4 26-4 27-3 25 2 23 10 12 22-8 23-11 27-16 22-20 23-23 22-20 16-21 15-22 13-27 11-26 7-25 5-31 7-23 5-24 4"/>
<path d="M4643 11456l-16 23-11 26-11 25-10 27-8 31-9 27-9 25 5 24 20 18 25 0 23-6 22-10 25-12 24-15 21-14"/>
<path d="M4701 11550l-1 30 6 23 0 24 2 29 5 30 2 27 4 26"/>
<path d="M13147 9929l-17-18-22 13-19 16-18 25-15 25-11 26-10 27-5 28-3 27 2 26 6 25 9 22 14 26 21 22 23 15 27 10 24 2 27-3 28-8 29-14 26-17 23-23 22-23 18-28 15-28 10-27 7-24 1-24-5-27-16-29-16-24-19-22-24-18-27-17-27-13-27-10-31-9-25-4-28-1-24 9-13 21"/>
<path d="M15496 11244l-4 25-4 25-6 26-5 29-4 30-3 29-3 27-3 29-1 28 1 25 2 25-5 25-18 16"/>
<path d="M14055 13770l 17-18 24-2 23 6 26 9 24 11 22 13 7 25-14 25-16 19-20 20-23 22-22 17-22 16-22 17-20 17-20 18-19 18-17 18-17 20-8 24 21 13 28 6 25 1 29 1 24 1 28 2 25 2 25 4"/>
<path d="M11725 12178l 21-12 26-2 26 0 25 3 28 6 22 15 7 23-11 23-18 18-19 18-22 18-24 16-24 15-19 17 17 19 24 3 27 3 28 6 22 10 16 21-2 25-13 24-17 21-21 20-24 16-22 11-29 8-26 3-25 0-25-3-27-3"/>
<path d="M13802 10151l 22 10 21 13 26 13 25 9 23 7 29 10 29 8 27 7 31 9 31 9 23 6 24 8 23 8 26 10 26 11 27 12 29 14 27 13 28 14 31 15 30 14 32 17 33 16 31 15 31 17 30 16 31 17 31 18 30 17 31 17 30 16 28 17 29 17 28 16 27 18 28 19 28 17 29 18 30 16 28 18 28 17 28 17 25 18 26 17 25 18 24 17 24 17 22 16 20 16 27 22 26 20 24 18 20 17 18 19 18 19-18-21-19-19"/>
<path d="M14792 9950l-14 24-6 24-7 29-5 24-4 26-6 24-10 29-12 26-12 23"/>
<path d="M15542 11897l-14 25-15 27-14 22-15 26-15 30-13 22-15 26-15 26-17 28-17 29-20 31-22 32-22 34-22 36-21 35-19 38-20 36-21 36-19 37-20 37-20 38-18 36-18 36-18 33-18 34-17 33-19 33-17 32-16 31-14 32-14 30-15 28-14 27-14 27-13 26-12 26-12 26-11 25-9 24-12 23-11 21-17 32-15 31-14 28-13 29-13 26-10 23-11 22-11 25-11 25-13 23-13 21 8-28"/>
<path d="M15396 12730l 23-11 29 2 29 3 28 4 26 5 23 8 13 20-13 24-19 15-22 19-18 16-19 15-22 18-23 17-21 15-16 19 16 21 28 8 26 5 25 4 26 6 21 12"/>
<path d="M12429 12801l-22-12 30 7 23 10 25 15 21 15 24 17 27 18 31 22 24 16 23 16 25 17 28 18 27 20 29 19 30 22 28 22 31 22 32 21 33 22 33 22 33 21 32 21 31 22 31 21 29 21 30 20 28 21 27 19 27 21 25 21 25 20 24 22 23 20 20 21 19 21 18 20 18 20 21 20 18 19 17 18 23 25 20 21 19 18 23 21 20 15 20 13-25-3"/>
<path d="M12574 13522l 14-20 22-11 27-4 27 5 21 15 0 24-17 21-21 18-23 16-20 13-25 15-22 14 25 5 25 3 25 2 28 6 21 13 14 21 0 26-10 24-15 20-20 19-23 14-23 11-27 9-26 6-27 4-24-1-24-6-22-12"/>
<path d="M12793 10513l-20 14-19 19-17 24-14 23-18 28-19 31-14 22-15 24-18 26-19 28-20 30-21 32-24 34-23 35-26 34-26 36-26 36-25 35-26 36-25 35-24 36-24 34-22 33-24 34-25 31-22 32-22 31-21 31-21 31-20 29-20 29-21 27-18 24-16 21-14 20-18 28-18 24-16 20-17 18-9-25"/>
<path d="M11869 10584l-17 18-15 25-13 23-13 25-16 26-15 25-12 26-9 25-7 26-2 26 19 16 28 4 27-3 25-5 25-6 26-9 26-10 28-9 23-6 25-6"/>
<path d="M11920 10713l-11 25-3 27-5 28-4 25-5 24-5 24-2 24-1 30 1 28-1 26"/>
<path d="M8138 21396l 5-24 3-26-8-23-23-10-26 10-22 16-20 23-14 23-10 23-8 25 0 26 24 12 27-5 23-12 19-15 12-21 16 17 7 24 18 18"/>
<path d="M3378 22662l 0-26-4-26-10-21-23-10-22 17-16 19-15 20-15 28-8 28-5 25-1 27 8 23 23 11 25-3 21-15 16-18 12-22 9-23 9-25 3-25-6-23-10 25-5 25 3 26 9 25 14 20 27 3"/>
<path d="M3458 22563l 2-25 12-23 13-25 10-24 5-24 0 27 6 27 5 25 8 24"/>
<path d="M3554 22757l 20-15 16-24 15-27 13-24 12-27 10-30 9-28 8-30 3-32-1-30-1-26-4-25-22 12-8 23-8 26-6 25-4 28-1 30 0 31 1 30 7 28 5 24 8 27 14 25 16 18 24 5 17-20 4-28-5-26-9-25 20-13 27-2"/>
<path d="M5303 22661l-8-23-8-25-17-18-27 3-23 15-21 20-16 23-15 23-13 24-7 25 7 25 21 11 26-3 25-12 18-15 18-18 12-23 4-24-2 25-1 28 10 25 18 19"/>
<path d="M7156 22430l 3 25-1 26-1 26-3 29-2 25-2 27-3 25-1 25-4 29-3 24-2 25 8-26 6-26 9-24 13-21 19-16 25-8 25 4 23 14 17 19 13 22 1 27-7 25-11 25-17 19-22 16-27 6-26-3-22-13-17-18"/>
<path d="M8782 22571l-11-23-17-16-24-5-23 9-20 15-20 21-14 24-8 23 1 27 22 12 27-5 23-14 17-20 5-24 9 23 17 20 24 8"/>
<path d="M8780 22397l 8-24 14-21 14-20 14-22 14-23 10-23 13-22 5 25 3 26 6 26 12 23 11 22"/>
<path d="M9033 22232l 5 26 0 27-2 28 0 25-1 28-3 30 0 28-1 28-1 26 1 25 5 30 2 25 8 25-1-27 8-25 11-22 18-19 20-15 24-1 24 10 17 21 8 25-5 25-10 22-16 20-19 16-25 4-25-9"/>
<path d="M2887 23651l 16-18 18-18 13-24 10-22 9-24 10-27 10-28 6-26 3-27 5-28 1-29-2-28 0-25-7-24-25 9-9 23-5 24-6 24-5 24-3 27 1 25-1 25-1 27-1 26 2 25 0 30 6 26 8 26 10 22 17 18 24-12 10-26 3-24-1-24-6-25 1-24 25-10"/>
<path d="M3852 23645l 7-27 8-24 3-24-2-26-11-23-22-15-25 12-16 18-15 24-12 25-6 24 5 26 25 8 25-9 17-17 21 11 17 20 22 12"/>
<path d="M4657 23570l-11-21-18-18-27 3-17 19-11 27-9 23-4 26 17 18 23-10 19-15 12-24 22 11 18 18 25 1"/>
<path d="M4708 23428l 14-22 13-24 8-24 11-23 9-24 10 23 6 24 12 22 9 23 9 24"/>
<path d="M4872 23216l 0 26 5 28 6 27 4 25 8 28 6 24 3 25 2 27 3 26 2 25-1 31-5 28 9-23 12-24 10-23 22-11 22 10 16 20 13 22 5 26-8 27-9 23-17 19-23 10-27-4-13-22"/>
<path d="M5585 23278l 6 27-1 25-1 31-1 26-1 27 0 27-1 27-1 29 0 26-1 25-1 28 1 24 7-24 8-25 9-22 13-21 19-16 26-2 24 8 21 16 4 27-2 26-7 28-11 25-17 21-25 7-25-3-18-18"/>
<path d="M6792 23544l 6-23 3-25-11-22-25 0-20 15-18 22-13 24-7 25 8 24 25 4 24-5 22-10 17-18 4 27 8 26 19 19 27 9"/>
<path d="M7602 23500l 6-24 2-26-14-21-24-9-25 10-18 19-13 25-9 24 6 25 25 7 23-9 24-14 19-15 11 22 10 22 14 21 27-2"/>
<path d="M7681 23376l 8-23 13-21 12-24 10-24 5-25 10 25 7 23 10 22"/>
<path d="M7816 23143l-3 27 7 26 7 24 8 26 6 28 5 30 1 31-1 24 0 26 0 25 0 25-3 27 0 25 6-24 7-25 8-25 13-22 14-19 19 16 11 22 5 25-2 26-16 21-22 15-25 0"/>
<path d="M8459 23252l-7 27-1 27 2 24 1 28 0 30 3 29 2 28 2 27 2 26 4 30 2 25 1 25 0-25 4-28 12-23 18-17 25-3 25 8 26 13 16 19 14 21 4 24-10 24-15 21-19 16-24 10-26 11-24 6-24-4"/>
<path d="M9372 23515l 6-24-2-25-13-22-21-12-26 4-19 15-19 22-11 23-5 25 10 23 22 11 25-6 20-16 19-16 19 18 12 20"/>
<path d="M4299 21515l 25-1 23-10 24-19 23-19 19-20 18-23 16-25 16-25 14-25 11-26 8-25 6-30 1-28-4-28-8-26-9-24-16-21-19 14-11 25-8 23-9 27-9 29-6 31-5 31-2 32 0 31 2 24 5 35 5 34 7 28 7 24 13 27 18 24 20 14 25-1 14-23-3-29-8-27-14-22-16-19-17-17 27 2 25-6"/>
<path d="M6142 20653l-1-25-14-20-24 0-25 12-17 22-11 22-6 27 5 24 23 5 25-11 19-18 15-19 11 23 14 20 26 8"/>
<path d="M6245 20526l 12-21 13-22 11-24 12-25 3-27 7-23 0 25 7 25 7 24 8 23 11 22"/>
<path d="M6392 20297l 3 27 2 25 3 29 5 24 5 29 6 32 4 26 1 25 1 31 1 28 2 25 3 26 2 24 5-23 5-27 6-23 10-23 16-19 24 7 22 12 22 16 9 24 0 25-12 21-15 20-24 12-24-6"/>
<path d="M2118 19776l-2-25-3-24-25-5-20 19-14 21-12 28-12 25-6 24-2 25 1 25 23 12 23-8 18-17 16-19 10-24 11-21 15 20 6 24 15 23 21 16"/>
<path d="M10073 19228l-3 25 1 27 4 30 1 28 0 26-2 26-2 27 2 27-3 26-1 27-2 27-2 25-4 31 0 26 1 29-3 26 0 25 5-26 4-25 16-21 15-19 23-13 26-5 25 2 25 10 19 18 10 24-3 25-13 23-16 21-22 15-23 8-27-8-20-16"/>
<path d="M2387 24297l 4-24 3-24-14-21-25-2-18 18-15 22-9 23-9 26 0 24 3 25 16 19 25-1 19-16 10-24 5-23-6 24 9 24 10 22"/>
<path d="M2411 24177l 1-25 10-22 1-24 10-23 14 22 6 25 6 24 4 25 6 23"/>
<path d="M2501 24038l 7 23 5 25 3 24 4 28 4 26 3 29 1 25 1 30 2 26 3 28 1 26 1 24-1-25 2-25 10-23 17-18 23 13 12 22-6 24-12 22-19 16-25 2"/>
<path d="M3090 24312l 7-24 10-24-1-25-25 0-18 15-15 23-10 24-5 25-1 26 19 17 22-15 14-22 11-22 3 25 12 22"/>
<path d="M3535 24010l-5 25-1 25 1 26 3 29 0 25 1 25 1 27 0 26 1 27 0 25 10-22 12-21 24-8 23 6 16 19 2 25-6 24-16 20-24-2"/>
<path d="M3950 24317l-3-24-23-9-16 20-8 25 12 22 26-6 17-17 22 12"/>
<path d="M3979 24181l 5-27 13-22 12-24 15 19 6 24 9 22"/>
<path d="M4087 24039l-2 24 0 28 3 28 1 26 1 24 1 29 2 29 2 25 1 26 11-26 10-23 24 0 17 17-1 25-18 16-22 12-25-1"/>
<path d="M13912 19998l-7-24-9-23-15-20-17-19-25-3-22 9-22 19-19 22-11 25-10 25-1 27 9 24 23 10 27 0 26-10 22-15 19-20 16-20 7-24 4 25 3 26 9 23 20 16"/>
<path d="M14863 19975l 8-24 5-24-8-24-25-4-21 12-20 19-15 20-13 23-12 25-10 29-3 25 1 24 16 22 26-6 24-13 21-18 17-21 14-21 8 25 14 20 24 12"/>
<path d="M14991 19893l 3-26 11-21 16-22 14-21 11 25 6 23 9 23 14 20"/>
<path d="M15184 19612l-11 26-2 26 0 27 2 29 0 32-1 36 2 35 2 34 4 30 2 28 3 30 4 26 5 25-10-23 1-25 10-22 18-19 23-12 24 4 24 5 18 18 14 20 4 25-2 24-10 22-18 16-20 15-26 8-26 0"/>
<path d="M16143 19634l 4 30 2 24 4 29 4 30 4 30 3 36 2 25-1 25-2 25-3 26-3 26-3 26-2 26-4 35-1 30-2 28 2 25 20-19 12-29 9-29 11-26 11-23 14-22 22-14 27 3 23 11 21 14 14 22 10 24-5 25-13 20-18 21-20 20-22 16-24 11-24 3-18-16"/>
<path d="M13930 21111l 1-28 1-28-4-29-13-22-19-16-24 0-24 11-19 20-17 21-15 26-13 26-12 29-9 28-5 25 1 28 13 25 25 10 25-4 31-11 25-13 23-17 20-19 19-23 13-22 8-24-2-24 1 26 9 23 16 24 18 19"/>
<path d="M14825 20575l-7 27 1 25 4 32 3 32 6 33 6 32 4 25 4 27 3 25 3 27 3 26 2 25 4 26 1 27 2 34 1 26-1 30 0 25 13-26 9-24 14-25 17-22 16-19 22-15 28-3 25 8 21 17 16 21 12 23 1 25-9 23-16 25-18 17-21 15-26 11-26 5-23-6-21-17"/>
<path d="M16089 21098l-10-22-16-22-19-15-25 1-20 18-16 23-13 23-7 24 6 24 25 7 24-6 24-9 22-14 18-18 10 24 8 23 22 16"/>
<path d="M16189 21010l 19-23 16-19 15-22 15-24 15-26 12-24 11-26 6-24 6 27 7 27 8 26 7 26 6 27 12 24"/>
<path d="M16492 20652l-4 24 1 28 2 33 4 27 4 32 4 35 3 25 1 27 2 27 1 29 1 29 0 29 0 29 0 29-1 25 0 32-1 27 0 25 0 29 0 25 5-24 6-32 5-25 6-27 11-27 8-25 14-20 23-8 27 8 22 11 21 15 20 16 10 26-6 25-14 25-17 22-20 18-26 12-23 6-25 2-27-3"/>
<path d="M684 19460l-23 6-16 24-9 28-5 30-2 24-1 27 1 28 3 30 4 27 8 27 11 25 12 22 18 25 22 18 27 13 30 10 28 5 28 0 23-7 22-11 20-13 19-20 16-27 10-25 6-27 6-28 2-26 1-27-3-25-10-31-11-25-17-22-19-27-19-22-20-21-20-17-24-13-24-9-24-5-28-1-31 4-23 13-18 23-12 25"/>
<path d="M17990 19635l-3 24 2 26 1 25 2 26 1 26 0 31-1 26 1 25 2 31 1 25 2 33 3 24 3 26 3 24 2 28 4 28 3 24 2 24"/>
<path d="M17966 20592l 19-16 24-8 24 0 25 1 26 3 27 2 23 10 23 11 23 17 17 19 14 24 8 29 1 25-8 29-14 27-18 25-15 19-17 21-18 19-20 20-21 17-20 19-19 15-23 16-18 16-20 17 21 12 26 0 25-1 24 0 28-2 25 9 26 1 22 9"/>
<path d="M18709 19690l 23-13 27-2 27-2 30 0 29 3 28 2 25 4 24 10 22 14-7 23-25 16-22 12-23 9-24 9-24 10 24 7 27 5 26 4 27 8 27 5 24 12 17 19 3 25-12 22-21 18-20 14-25 12-25 13-26 10-25 7-28 7-26 2-25 4-23-6"/>
<path d="M18770 20515l-5 28-9 26-10 22-12 27-10 23-11 24-9 23-10 26-6 27-4 28 5 27 17 18 24 9 25 6 25 2 24-1 25-3 30-6 31-6 28-8 28-6 24-4 23-7"/>
<path d="M18873 20702l-3 27 1 26 3 26 1 28 1 31-1 31-1 30-3 27 0 25-2 28-3 25"/>
<path d="M18462 21099l-14 21-17 21"/>
<path d="M18471 20082l 3 28-1 26-4 25-6 23-9 26-10 26"/>
<path d="M19140 20033l 5 27 0 27-8 26-10 23-13 24"/>
<path d="M19494 19988l"/>
<path d="M19620 19999l"/>
<path d="M19792 19995l"/>
<path d="M19121 21074l-20 18-15 21-15 21-15 21-18 24"/>
<path d="M19330 21022l 24-8"/>
<path d="M19460 21023l 24-5"/>
<path d="M19586 21008l"/>
<path d="M12821 22753l 22-12 23-8 23-12 25-4 25-2 24 5 20 16 11 25 3 24-2 27-5 24-10 26-13 24-16 27-15 19-18 19-21 21-21 21-24 19-21 18-21 16-22 15-25 17-23 15-23 14-22 15-19 16 24-3 23-6 25-6 26-5 28-4 27-4 25-1 26-2 24 1 25 0"/>
<path d="M13194 22866l 23-14 27-9 24-8 25-7 24-7"/>
<path d="M13282 22748l-3 26-3 27 2 26 2 25"/>
<path d="M12820 23594l 11-22 24-3 24 5 25 9 24 11 18 15 16 22 2 28-8 24-13 26-14 21-17 22-19 23-22 23-24 23-25 24-26 22-26 23-23 19-23 17-24 20-18 16 21 16 27-1 27-1 30-3 26-5 27-5 28-7 28-6 29-5"/>
<path d="M13167 23758l 23-12 29-5 24-6 26-6"/>
<path d="M13223 23653l-9 23-3 27 0 26 2 28 3 25 3 25"/>
<path d="M13633 23553l-2 28 0 25-3 27-4 28-2 28-2 25-3 28-1 25-4 25-6 26-2 24"/>
<path d="M13547 23573l-13-20 9-26 15-19 22-16 25 1 20 15 17 19 15 20 12 26 9 23 5 24-6 27-8 24-12 27-16 23-21 23-21 22-22 21-24 20-23 20-25 17-22 17-20 14-24 16-24 12 14-21 21-19 25-13 24-5 26-5 26 0 29 1 28 3 28 4 28 4 23 9 19 16 16 18"/>
<path d="M13859 23363l-1 27 0 25-1 25-3 28-1 26 3 26"/>
<path d="M12600 24537l 11-21 23-9 27 4 27 7 24 11 21 13 18 16 13 25 3 27-6 28-9 25-10 28-15 30-19 31-15 21-15 21-17 22-18 22-18 21-18 20-18 18-19 17-18 17-27 23-25 20-23 17-22 14-23 12-24 10 26-11 24-6 27-7 30-6 24-5 27-4 25-6 27-6 29-6 28-4"/>
<path d="M13005 24758l 24-11 25-6"/>
<path d="M13046 24665l-7 23-1 25 5 25 5 25 6 27"/>
<path d="M13370 24567l 24-8 24-1 26 1 26 0 26 3 24 8 13 22-5 25-11 27-15 27-15 22-19 24-19 23-21 24-22 22-23 22-21 21-19 21-18 18-19 19-15 19 21 16 25-3 25-6 28-8 30-9 28-11 24-8 24-9"/>
<path d="M13658 24406l 27-1 28 5 25 8 9 22-15 19-10 22 20 16 23 10 23 10"/>
<path d="M12687 25383l 28-2 28-1 27 2 26 6 25 9 18 18 2 26-9 30-9 23-13 25-18 25-18 27-17 26-22 26-21 26-22 24-20 23-19 19-21 22-15 19 23 12 30-6 27-6 23-6 25-7 23-7"/>
<path d="M13022 25599l 22-13 24-5 28-9 24-6 24-7 23-8"/>
<path d="M13112 25509l-8 24-7 29-3 26 1 26 3 29"/>
<path d="M13356 25474l 25-4 27 5 24 6 28 6 25 5 23 12 15 21-2 26-10 28-16 23-18 25-22 27-17 18-19 19-20 17-20 17-21 16-19 16-22 17-20 17-17 16-26 24-19 21-19 20-10 22 26 6 24-4 30-10 28-10 29-10 33-12 30-10 31-12 27-13 28-9 25-10"/>
<path d="M13653 25362l 17-17 25-2 25 5-3 24-11 23 20 15 25 1 5 24-19 15-23 9-25 2"/>
<path d="M12478 26540l-4-24 20-15 26-8 24-3 28 1 26 2 27 11 20 13 18 18 7 25-2 24-9 28-11 25-15 27-16 29-21 28-22 27-16 19-17 18-18 17-19 15-27 21-26 19-27 15-22 11-25 11-22 11 30-5 24-6 27-9 28-8 28-10 31-10 30-9 32-10 30-9"/>
<path d="M12838 26691l 20-18 26-12 27-9 24-7 24-8"/>
<path d="M12929 26571l-18 16-5 25 0 27 1 29 6 29 9 25"/>
<path d="M13143 26540l 19-16 26-4 26-3 27 0 28 4 27 10 20 16 5 24-7 28-16 27-16 22-19 24-20 23-24 22-26 21-25 22-27 22-25 22-23 17-20 16-19 17-16 18 25 12 26-4 30-6 24-5 23-6 25-6 27-9 27-7 24-9 28-10"/>
<path d="M13470 26391l-9 26-11 23-13 24-9 25 2 25 25 8 25-1 27-5 24-10 24-9"/>
<path d="M13540 26439l-14 21-6 24-4 26 1 25"/>
<path d="M14125 23720l 23-9 29-1 25-1 29 0"/>
<path d="M14503 23567l-4 29 3 26 2 26-1 32-2 25-1 26-3 28-2 28 0 30 0 30"/>
<path d="M14010 24768l 25-11 27-4 24-1 25-1 29-3"/>
<path d="M14389 24608l-1 25 5 26 5 29 3 26 2 28 4 30 2 26"/>
<path d="M13964 25629l 22-15 25-5 25-2 27 0 26 2"/>
<path d="M14369 25479l-7 24-2 26 2 25 6 26 3 28 2 24 1 24 0 29 2 26 4 26 8 24"/>
<path d="M13592 22520l 25-3 23 8 23 9 23 9 26 11 22 14 13 24-3 24-12 24-15 21-17 23-22 26-16 18-18 19-20 19-20 19-19 19-18 18-19 18-17 18-17 17-24 24-21 22-18 19-17 17 27 2 26-2 25-5 28-9 29-12 22-9 22-10 23-11 28-14"/>
<path d="M13847 22570l-22 10 2 24 12 22 20 14 27-3 22-15 10-22-1-25-15-22-19-16-25 3"/>
<path d="M14148 22788l 24-3 28-5 24-5"/>
<path d="M14450 22628l 2 25 3 27 5 26 0 26 1 25 0 26 0 28 3 25 4 25"/>
<path d="M16170 23634l-21 14-2 25 15 21 25 7 24-9 8-23-22-11 18-16 24-10 24-12 22-12 22-13 25-13 24-14 21-13-15 24-18 25-16 24-19 24-17 24-17 25-19 28-13 21-14 21-14 21-12 21-14 22-14 23-13 22-18 30-11 25-8 25-1 24"/>
<path d="M16293 23896l-15 19-12 23 9 25 21 13 27 3 23-10 5-25-15-22-21-13-25-5"/>
<path d="M16751 23631l 17-18 28-2 28 2 26 4 25 6-1 24-23 15-20 16-13 21 22 12 25 9 26 8 23 13 13 23-5 25-13 21-17 17-19 17-23 13-25 7-25 2-25-4"/>
<path d="M16143 25365l-25 8-14 20-3 26 12 21 24 5 23-9-5-26-17-18 22-10 26-9 24-7 23-7 24-8 24-8 24-8 25-9 24-5-2 25-11 25-12 27-12 23-16 26-17 28-13 21-14 22-14 23-14 24-16 23-15 24-16 23-16 23-15 23-14 21-20 29-15 26-11 22-9 25"/>
<path d="M16250 25751l-15 20 4 25 26 1 25-10 19-16-10-23-22-8-26-3"/>
<path d="M16692 25364l 21-11 26-2 27 1 24 7 10 22-14 24-18 20-20 21-18 16-20 17 23 13 26 5 25 9 25 9 24 11 20 14 14 23 3 24-5 25-13 24-18 17-20 15-26 13-26 6-29 3-25 0-27-4-23-11-18-18"/>
<path d="M7692 28815l-11-23-12-22 22-13 27-5 27-1 29 3 26 6 28 10 28 13 27 17 18 18 16 25 8 24 0 27-10 31-15 25-18 26-16 28-18 19-19 19-23 16-24 21-22 19-22 20-23 21-21 20-22 19-22 18-17 17-21 16-28 18-25 16-21 15 28-1 23-11 23-8 25-7 24-8 26-5 24-5 26-2 25-2 25 1 31 5 23 5"/>
<path d="M8155 29090l 7-23"/>
<path d="M8039 27527l-23-11-25 4-24 9-22 12-23 15-25 18-19 15-19 18-17 20-16 21-17 27-14 26-10 27-4 25 3 26 15 22 19 15 26 9 26 4 34 2 34-2 36-4 35-4 25-4 25-4 25-6"/>
<path d="M8378 27514l 27-16 27-7 26-5 25-4"/>
<path d="M8413 27602l 24 2 27 0 25 0"/>
<path d="M9023 27339l-9 26-2 25-4 31-4 25-2 26-6 26-6 26-6 27-7 30-8 29-8 27-9 28-6 27"/>
<path d="M9266 27403l-21 11-13 21-10 23-6 24-2 25 5 23 13 22 20 19 24 14 24 6 30-1 23-5 24-9 20-13 18-17 21-23 15-26 4-27-3-27-9-29-12-21-20-20-22-14-23-8-27-2-27 3-25 13-16 18"/>
<path d="M9813 27328l-24-6-22 19-18 21-15 27-13 28-7 25-2 25 3 25 6 30 12 28 16 25 20 19 25 16 28 11 27 4 30 1 24-5 29-13 23-18 21-24 9-23 8-23 6-24 1-26-4-28-7-28-12-29-19-25-19-21-17-17-20-14-25-10-25-2-27 8-23 15"/>
<path d="M8678 28799l-2 26-6 27-3 28-4 28-3 25-2 27-3 28-5 29-5 29-3 29-3 28-4 28-5 29-3 28-2 26-2 26-3 31-2 29-1 25-3 28-1 26"/>
<path d="M7878 30346l-4-26 20-16 24-7 26 1 25 10 23 14 21 17 17 20 10 26-4 26-9 24-13 27-16 29-19 28-18 28-18 28-18 23-17 21-16 19-15 19-18 19-20 18-21 15-21 11 24-3 27-3 25-7 25-9 31-7 29-6 26-3 27-6"/>
<path d="M8327 30450l"/>
<path d="M8688 30136l-11 21-6 24-1 26-4 25-5 29-1 31-1 26-4 25-2 30-2 30-2 25-2 30 0 24 2 26-1 27-3 25-2 24 10-23"/>
<path d="M7895 31055l 3-24 23-12 26 0 28 0 28 7 23 12 17 19 4 25-5 25-10 22-14 28-18 30-19 30-13 21-21 28-22 28-23 25-25 25-22 23-20 20-19 22-19 22-16 19 22 12 25-9 29-10 25-8 27-8 31-9 30-9 30-10"/>
<path d="M8288 31252l 20-23"/>
<path d="M8608 30987l-13 20-5 29-2 29 0 24 0 28 2 30 2 32 0 33 1 24 2 37 0 25 1 24 1 25 0 25 3 34"/>
<path d="M14110 27546l-5-23-24-13-26 3-25 13-24 20-17 19-18 22-16 25-15 26-12 27-7 26-4 25 1 25 9 30 21 23 21 14 25 10 30 6 34 1 33-3 35-8 33-10 22-10 21-12 29-19 24-21 19-24 9-24 4-31-3-25-7-28-11-28-13-27-14-25-16-20-18-19-22-17-27-11-27-5-23 8"/>
<path d="M14571 27496l-21 14-9 25-6 29-5 29-3 30-5 32-3 33-3 25-1 24-2 24-1 24-2 33-1 29-2 25 0 25"/>
<path d="M14962 27696l 22-10 24-6 25-4 25-3 26-3 25-1 27 4"/>
<path d="M14972 27773l 26 2 28-4 28-3 31-6 26-5"/>
<path d="M15204 27613l 24-6 30 0 27 1 29 8 23 8 28 11 22 13 12 23-3 25-12 25-16 22-22 22-24 23-23 20-24 19-21 17-19 16-19 16-19 17"/>
<path d="M16104 27515l-19 18-6 24-5 31-3 25-1 28-1 32-2 34-4 36-2 24-5 35-4 34-5 33-3 30-2 28-2 25-3 27-9 24"/>
<path d="M14484 28510l-23-11-25-2-27 6-23 12-21 16-19 19-16 21-15 25-17 31-11 24-11 27-11 29-9 26-8 28-6 25-4 25-3 35 0 28 6 25 19 26 26 17 25 7 31 3 34-2 24-4 23-10 24-9 21-11 21-13 22-13 18-15 20-15 24-27 19-26 12-28 10-27 1-28-5-29-10-32-14-30-12-22-18-30-15-19-23-26-23-18-22-12-29-3-24 6-22 19-13 24-2 29"/>
<path d="M14843 28633l-29-1-26 9-26 17-20 16-19 20-20 24-12 26-7 26-2 27 0 27 6 24 12 24 16 18 26 16 24 8 25 5 28-2 29-5 27-11 24-14 22-15 19-19 14-19 12-28 0-26-10-27-12-23-13-24-17-21-18-19-18-16-23-18-20-14"/>
<path d="M15209 28697l 22-16 24-3 26 1 30 3 29 4 24 4"/>
<path d="M15234 28789l 24-2 24-4 25-5 32-8 25-7"/>
<path d="M15399 28604l 27-5 27 7 26 7 25 10 24 11 17 19 5 27-8 24-13 22-19 23-17 19-19 21-21 19-19 16-23 18-22 18"/>
<path d="M16062 28613l-22 11-20 15-25 16-25 18-20 17-14 28-1 32 5 26 10 27 14 27 18 27 22 23 25 22 28 18 32 13 32 8 32 4 31-1 31-8 31-10 27-16 23-19 17-20 13-28 6-30-1-30-5-30-6-23-11-35-10-25-10-22-17-27-20-21-20-17-31-10-28-2-32 4-24 7-23 8-23 9-23 12"/>
<path d="M14214 29444l-25-3-26 11-23 17-17 19-16 24-11 28-9 30-4 32-2 31 4 29 10 27 14 23 19 18 22 13 28 9 34 3 35-3 35-7 33-11 29-11 24-12 20-18 9-23-1-28-12-27-14-23-19-23-20-24-19-24-20-22-20-21-22-20-22-19-18-17-19 19"/>
<path d="M14669 29443l-17 18-10 31-6 27-5 28-2 26-5 29-5 29-5 29-5 28-4 28-3 27-5 28"/>
<path d="M15180 29575l 23-11 28-3 26-5 28-3 30-4 31-2 29-2 28 0"/>
<path d="M15153 29655l 27 5 28-1 28-3 28-4 31-5 34-6 24-5 33-8"/>
<path d="M15424 29430l 27 8 28 4 26 2 26 3 23 8 24 12 17 18-1 27-16 23-18 16-22 18-20 16-24 18-24 16-23 17-22 15-20 15-21 17"/>
<path d="M16115 29385l-20 16-10 31-6 28-3 32-2 33-2 35-2 24 0 37-1 25 0 26 0 25 0 24-2 36-4 35"/>
<path d="M2971 33883l 29-3 27 1 28 0 26 2 26 1 26 1 30 0 31 1 32-1 28 0 24 0 25-1 30-2 25-1 26 0 25-3 24-3"/>
<path d="M3805 33886l 27 5 25 5 28 4 24 3 28 1 26 2 30 0 31 0 26 3 28 1 26 3 24 1 27 4 24 0 25 4"/>
<path d="M4508 33890l 27 1 28 1 31-2 28-3 28-2 31 0 33-4 33-6 35-5 32-7 33-6 28-8 30-6 25-5 29-3 25-2 25-4 28 2"/>
<path d="M3910 34430l 5 24 6 28 3 26 0 31 0 25-1 26 0 29 2 26 1 28 2 28 0 30-1 28 0 26 1 25 2 31 2 25 3 24 2 26-2 27"/>
<path d="M8562 33615l 24 2 26 0 26 1 31-1 26 0 28 0 28 1 33 1 33 1 24 0 26-2 27-1 30-4 31-3 32-2 33-4 34-3 35-4 34-5 32-4 29-3 27-3 24-3 31-3 29-5 24 3"/>
<path d="M9670 33584l 23-14 26-1 27-2 29 0 29-1 33 0 32-5 32 0 27 1 30 0 29 0 33-1 30-1 30-3 26-3 25-1 28-2 28-4 27-5 24-3"/>
<path d="M10546 33545l 21-13 29-4 26-1 24 0 24-2 28-1 28 1 29-1 25-3 33 0 25 1 31-1 27 0 26-4 27-6 26-6 24-7"/>
<path d="M11300 33488l 28-7 27-4 29-4 26-4 26-2 29-3 24-1 33-5 34-3 32-5 32-3 29-1 30-2 26-4 27-1 32-1 28-1 27-1 26-1"/>
<path d="M9015 34018l 14 25 0 27-3 26-3 30-7 32-5 25-5 25-8 27-7 26-8 25-7 25-6 24-12 31-11 28-11 24-7 26"/>
<path d="M9860 34041l 23-11 27-6 33-2 30 1 30 4 26 7 24 12 15 21-10 26-20 18-25 18-29 20-21 13-23 15-25 16-24 15-23 15-21 13-28 21-23 18-18 18-16 22 5 25 24 3 24-2 28-5 27-6 28-4 29-6 31-6 26-1"/>
<path d="M10735 33974l 13-20 29-3 30 0 27 3 26 6 23 10 8 24-20 20-20 15-24 12-26 9-25 7 18 15 26 6 26 7 27 9 26 11 24 11 23 17 9 22-11 27-20 21-25 20-22 14-20 13-25 12-27 10-28 10-28 9-25 5-25 4-27-2-17-21 10-25"/>
<path d="M11507 33866l 11 22-10 26-12 22-17 25-20 23-19 21-19 19-16 21-15 20-8 25 17 21 28 6 32 5 27-2 29-3 28-4 29-4 27-3 30-4 31-7 32-7 28-7 27-4 28-7"/>
<path d="M11631 33973l-18 19-5 29-2 24-4 27-1 32-3 30-2 32-3 35-4 36"/>
<path d="M8598 35029l-11 22-15 27-15 27-12 24-14 26-14 29-14 29-16 28-14 28-13 24-11 27-4 26 15 20 25 5 26-1 30-6 25-6 27-4 28-6 26-7 27-6 24-8 28-9 24-8 23-9"/>
<path d="M8653 35243l-2 25 4 27-2 30-3 27-2 30 0 31"/>
<path d="M11622 35014l-14 20-12 22-15 25-13 22-16 24-15 28-11 23-12 22-10 27-8 28 0 27 20 18 22 9 26 4 31 2 25 0 30-4 26-4 30-4 26-4 24-6 30-6 25-10 22-13"/>
<path d="M11778 35144l-11 22-7 23-5 30-4 33-4 25-2 27-3 27-1 27 0 25-1 29"/>
<path d="M9789 34926l-25-2-25 19-17 22-19 31-11 25-12 26-11 29-10 32-9 32-8 34-8 32-5 31-4 25-3 25 1 31 4 25 14 22 24 17 23 5 29-4 24-8 22-11 28-18 17-22 1-25-19-17-29-8-28-3-30 1-28 5-25 7-29 11-24 12-19 18"/>
<path d="M10770 34884l-27-2-30 10-25 14-26 17-25 22-21 27-17 31-12 33-9 34-4 34 3 34 10 32 14 28 21 22 20 17 27 12 29 7 30 2 25 0 24-4 21-17 2-28-13-24-15-19-19-16-22-15-22-10-29-6-29 3-23 9-22 20"/>
<path d="M11620 36235l-24 9-6 24 3 24 10 23 25 6 20-15 15-22 8-26-2-25-22-10-24 4-20 14-16 23-10 25 6 24 18 17 25-9 17-16 4-25-22-10-19 16-1 24 25-8 16-19-23 10-3 24 23-9 15-21 2-24-16-19-21 11 0 26"/>
<path d="M8739 36097l 19-17 24-1 27 0 27 1 24 3 23 11 18 16 4 24-10 24-17 19-22 22-21 18-20 16-20 15-26 15-22 13 27 5 25-4 26-7 28-4 28-1 28 3 16 19-12 23-18 19-23 18-23 14-23 13-28 10-25 3"/>
<path d="M9374 36052l-2 26-4 25-7 25-7 26-7 26-6 25-5 26 7 24 20 18 28 7 33-2 28-5 30-7 33-10 32-11 31-12 31-13 26-12 26-12"/>
<path d="M9545 36129l-23 7-7 28 3 29 7 28 6 31 11 23"/>
<path d="M10529 35932l 22-14 27-6 29-2 24 0 25 1 25 4 2 25-21 22-25 18-27 18-22 15-20 17-12 20 25 9 29-1 29 1 29 5 28 6 25 7 21 13 14 23-6 27-19 22-20 18-23 15-26 12-25 7-24 5-29 2-25-2-25-4-30-9"/>
<path d="M11531 36407l-21 11-15 20-18 19-21 23-20 19-22 23-23 24-18 19-18 18-19 22-22 22-21 22-22 24-21 23-21 25-24 25-24 25-25 28-23 26-24 27-23 26-23 26-22 26-24 26-22 26-22 26-24 27-23 26-24 27-23 26-25 27-25 26-25 24-24 23-24 22-24 22-22 21-23 20-24 21-22 20-23 19-20 17-18 16-24 22-22 22-21 18-19 18-19 20-16 19 15-18 25-5 24-8 24-13 18-16 6-24-20-14-25-5-26 6-18 17-12 22-1 25 24 9 24-4 25-11 22-14 1-25-22-15-25 2-21 16-10 22 14 20 25-1 11-22-19-16-23 13-23 18-19 15-25 20-21 19-27 22-21 18-25 18-24 18-25 20-26 21-30 21-30 23-31 24-35 26-33 26-38 29-20 14-20 16-21 16-20 16-22 17-20 16-21 17-21 18-21 17-22 17-20 18-22 17-21 18-21 18-20 16-21 18-18 17-22 15-19 16-34 31-32 29-31 27-25 25-28 23-26 23-23 20-21 20-19 17-24 24-21 21-17 18-16 18 22-12-6 24 24 10 17-18-9-24-21-14-27-8-25-1-21 11-8 26-2 25 19 16 23-7 21-15 6-23-22-14-24 2-13 21 2 24 24 8 24-9-22 12-16 21-18 24-18 21-20 23-16 18-20 26-17 27-14 21-17 23-19 26-23 28-15 19-15 19-16 20-17 22-19 22-20 25-18 23-19 24-19 25-19 24-22 22-19 23-21 24-22 24-22 25-20 24-21 23-21 23-20 23-21 24-22 24-20 25-21 23-18 21-18 20-16 18-22 24-19 20-19 18-18 18-16 21-13 22-9 23 12-22 4-24 5-26-21-13-13 23-3 25-4 25 7 23 25 3 22-14 13-21-20-16-24-4-25 7-16 17-11 24 3 25 16 19 26-2 23-12 19-16 19-17 10-22-6-24-17-21-22-14-25-4-14 23-3 24 7 25 17 21"/>
<path d="M14887 33734l-5 30-4 27-5 31-3 26-3 25-4 25-4 24-5 25-3 30-6 28-6 26-4 25"/>
<path d="M15550 33698l-14 21-13 23-12 25-12 26-8 31-4 25-3 25-1 32 6 28 13 22 22 18 26 13 28 6 27-2 23-7 24-13 10-24-11-23-20-17-24-11-29-6-29 0-26 3-22 10"/>
<path d="M16391 33672l-12 23-1 27 0 26 0 25 0 27-1 27-3 28-2 25-2 26-4 25-5 25"/>
<path d="M16812 33659l 25-5 26 5 26 6 28 5 25 3 24 6 25 9 23 14 13 24-3 24-14 25-20 23-20 18-21 17-23 18-22 17-21 17-19 16-25 19-19 16-16 18 24 4 26 3 26 1 24 3 28 3 24 2 24 2 24 1 31 3 28 5 27 4 28 3 23 6"/>
<path d="M14722 34493l-11 26-15 26-13 21-13 22-13 24-14 21-13 21-14 24-8 24 16 22 28 3 32-1 25-5 26-6 25-8 24-8 30-11 27-10 25-8 28-7 23-5"/>
<path d="M14869 34607l-21 14-5 29 0 29 1 29 1 29 1 29-2 30"/>
<path d="M15611 34438l-26 1-24 15-19 15-17 18-12 21-13 26-12 29-9 31-6 31-1 31 5 30 11 28 18 21 26 13 33 7 35 2 34-2 32-6 25-9 21-13 7-25-13-24-20-18-27-14-26-6-28-2-30 3-25 5-28 9-26 16-15 21"/>
<path d="M16254 34427l-24 1-21 18-20 26-15 25-14 28-14 32-9 22-11 33-4 32 2 30 5 29 8 25 19 21 25 11 27 7 28 1 26-5 26-11 15-21-7-25-23-18-24-11-22-8-25-3"/>
<path d="M16889 34415l-20 17-16 24-19 25-13 23-14 25-9 26-1 29 6 23 20 18 29 8 28 2 24-2 25-3 28-4 27-5 28-5 25-4 29-6 25-5 24-10"/>
<path d="M17054 34484l-20 13-8 29-5 25-1 28 0 30 2 31 3 36 2 24 3 27"/>
<path d="M15441 35277l-11 23 23 14 24-7 19-16-10-22-25 0-12 22 10 23 22 10 25-2 1-24-14-19-25 3-13 21 1 24 18 18 26-1 22-11 8-23-7-24-21-13-25 3-9 24 5 25 19 16"/>
<path d="M16187 35167l 4 26 2 24 2 26 0 25 0 25 2 25 0 25-1 25 0 25-2 25"/>
<path d="M16051 35183l-7-23 20-17 23-6 27 3 22 12 21 12 18 19 17 17 10 25-6 28-12 27-14 23-17 24-18 23-17 20-14 21-14 21-12 22-13 22-13 21-19 15 22-14 23-9 22-8 28-8 26-6 27-5 28-4 25-2 26 0 27 1 25 4 25 2 25 7 24 8 22 11"/>
<path d="M16818 35138l 20-14 29-3 28-1 26 1 26 4 24 5 27 10 23 17 15 21 2 26-14 23-19 19-20 14-22 14-27 14-27 14-30 13-28 15-28 14-24 13-22 14-15 19 23 11 24 0 26 0 28 1 28 2 29 3 28 3 25 8"/>
<path d="M14789 35157l-9 28-4 24-4 24-1 26-1 26-2 27-2 25-4 24-3 29-5 25-1 24-6 24"/>
<path d="M14763 36133l 19 15-17-19-25 2-19 16-6 24 25 7 22-11 7-24-15-19-18 18 9 24"/>
<path d="M16864 36097l-15 20 19 16 25-3 24-10 4-24-23-14-24-1-24 9-16 19 1 24 14 21 24-7 14-20-1-25-24 3"/>
<path d="M15453 35395l-21 11-17 18-17 19-17 22-18 25-20 25-17 25-21 26-16 19-16 21-18 22-19 22-19 24-18 22-19 22-19 22-16 19-16 18-23 25-20 24-19 21-18 20-16 18-21 23-19 19-19 22-19 17-20 17-17 19"/>
<path d="M15625 35433l 24 1 24 10 22 11 22 11 25 13 25 13 25 10 26 10 24 7 22 9 25 16 25 14 26 14 23 13 23 12 28 14 30 13 29 14 22 11 22 12 23 11 24 10 28 15 27 15 21 11 22 10 23 11 24 10 28 14 23 10 22 10 28 13 24 13 26 11 23 11 26 14 26 10 22 12 22 12 22 15 21 13 22 12 24 8 23 8 21 13 21 12"/>
<path d="M16199 35904l-8 27-1 28 0 24 0 26 1 28 0 25 2 31 0 25 1 27-2 25 0 29 2 30 2 26"/>
<path d="M16823 36241l-15 19-17 19-16 18-17 20-17 19-19 23-16 20-16 20-19 21-20 20-22 22-22 21-21 20-17 19-22 22-23 21-19 18-18 18-18 19-18 21-18 22-19 23-19 22-18 21-16 19-20 24-19 23-20 24-20 24-16 24-16 22-14 20-16 22-15 21-15 22-16 21-11 22"/>
<path d="M16154 37030l-13 20 10 23 25 6 23-5 23-13 14-22-13-22-25-9-24 5-22 12-16 19 13 20 26 0 6-23-24-2-19 16 6 23 24 0 25-9 1-25-25-3-17 19 2 26"/>
<path d="M16117 37445l 4 24 0 26-2 28-3 26 0 30 0 24 1 25 1 25-1 24-2 24 0 31 0 30 0 29 0 26 0 27 2 24 6 24"/>
<path d="M16114 38175l 3 25-1 26 0 27 0 27-2 28-1 27-2 26 1 25"/>
<path d="M15886 37734l-25-7-19 15-20 20-16 22-13 22-14 26-13 31-8 22-7 24-6 26-4 28-3 29-1 28 0 30 1 30 3 30 3 29 6 27 5 25 7 25 13 32 16 28 18 24 18 20 19 17 25 14"/>
<path d="M16353 37583l 23 14 22 22 19 25 14 21 13 24 13 26 13 28 13 29 10 30 10 32 7 32 5 32 2 31 1 31-3 30-5 28-6 29-9 28-9 27-13 25-11 23-14 26-13 24-15 23"/>
<path d="M17439 36191l-20 14-17 24-13 22-11 21-12 24-10 25-10 24-9 23-9 27-6 27-3 25-2 26 0 26 1 28 1 27 5 26 4 25 7 27 8 23 8 25 7 25 6 23 10 22"/>
<path d="M17697 36115l 11 22 1 25 2 26 1 25 2 24-1 27-1 27 0 25"/>
<path d="M17716 36443l 9 23 3 26-1 27-3 24-4 25-5 25-4 25-4 26"/>
<path d="M17956 36020l 27 2 25 16 19 17 18 16 19 20 21 23 19 26 22 27 20 26 18 27 15 27 13 27 10 27 9 28 8 28 6 27 4 28 3 25-1 26-2 27-6 26-8 26-10 25-10 24-12 24-12 24-14 21-19 25-18 22-16 20"/>
<path d="M14489 36408l 2-24-21 13-19 22-19 23-13 24-16 27-16 31-16 32-11 24-9 26-7 26-9 27-5 28-5 28-3 26-1 26-2 24 2 34 2 31 4 28 4 24 10 30 10 27 10 23 11 22 13 21 15 19 19 17 25 5"/>
<path d="M14598 36540l-17 18-6 24 5 26 16 19 23 7 27-2 23-8 21-12 21-16 15-19 4-26-13-26-18-22-22-17-23-12-23-5-25 1-26 9-18 18"/>
<path d="M14647 36828l-24-5-19 16-12 22-9 27-5 27 2 27 8 25 16 22 23 15 24 4 28-8 24-14 20-19 15-24 3-27-8-24-21-22-20-15-25-16-24-10-26-4-25 8"/>
<path d="M14802 36403l 15 19 13 24 11 22 15 25 12 21 14 22 13 23 15 24 14 25 14 28 13 28 13 28 11 28 10 29 5 29 2 30 1 33-2 33-3 33-8 34-11 34-11 33-13 32-14 29-14 28-14 27-13 24-15 22-15 21"/>
<path d="M16206 37570l 0-26-10-25-18-17-27 4-15 20-13 24-10 24-8 29-7 32-4 33-2 33 0 32 5 31 6 30 10 27 12 25 16 19 23 20 24 14 26 6 26 1 24-3 24-10 21-17 18-26 12-22 9-25 6-27 2-28 0-29-5-31-6-31-9-30-14-27-15-24-16-18-22-20-24-13-22-10-28-7-25 0-26 6-23 12-14 22-3 27"/>
<path d="M16165 38201l-20-13-22 15-16 26-8 26-5 23-3 24 0 25 3 31 7 26 11 21 17 22 22 13 27 2 29-7 25-12 19-18 19-19 9-26 6-23-3-29-8-25-16-26-19-26-15-21-17-17-19-17-25-10-27-3-23 8-21 17-9 24 1 26"/>
<path d="M15377 35723l-19 16-15 23-11 25-10 28-6 23-6 24-3 25 0 28-3 25-1 25 3 29 3 27 5 23 5 25 11 25 13 24 12 21 10 22 14 20"/>
<path d="M15496 35667l 23-8 26 0 27 0 25 2-10 26-21 18-22 17-21 14-19 17 21-13 26-9 26-2 22 11 4 25-5 25-10 22-18 16-26 7-25-1-25-4"/>
<path d="M15568 35975l-1 26-1 25 0 25-2 28-1 26-3 26-5 24"/>
<path d="M15716 35676l 11 24 12 22 11 26 11 23 10 24 10 26 11 28 9 28 8 26 5 28 1 29-2 27-4 26-6 27-8 28-10 26-9 23-9 24-12 23-23 10"/>
<path d="M12909 39703l 17-23 25-6 3 26-5 33-11 32-10 25-13 27-13 28-15 29-14 29-14 29-14 29-12 31-13 29-12 29-12 27-10 26-7 25-8 23-5 24-9 31-3 29 0 26 7 27 11 22 23 13 25 1 25-6 31-14 23-13 23-13 23-15 19-15"/>
<path d="M12637 40107l 23-21 28-15 24-10 27-12 30-12 32-13 33-12 33-9 34-7 31-4 29-2 27 0"/>
<path d="M13012 40140l-5 26-7 23-8 25-9 24-9 28-10 22 4-26 14-27 13-22 16-28 16-25 18-20 18-20 22-11 28-4"/>
<path d="M13164 40212l 23-8 22-9 26-10 27-11 25-11 21-18 1-24-18-19-21-13-28 0-28 9-23 13-21 18-21 22-16 24-6 24 0 27 10 23 20 18 27 8 26 2 30-1 25-3"/>
<path d="M13426 40165l 23 6 27-1 26-9 23-11 19-15 9-25-16-18-24-7-26 0-26 7-23 9-20 13-19 17-14 23-11 26-8 29-4 29 0 28 6 26 13 23 23 15 24 6 31 3 33-4 24-4"/>
<path d="M13763 40126l 23-10 26-7 29-7 28-5 30-6 33-5 24-4 24-3 34-5 35-5 34-4 31-2 25-1 25 3"/>
<path d="M14260 40159l 23-17 29-9 27-6 29-3 30 1 26 5 22 15 3 25-15 25-17 17-25 20-24 21-22 17-19 18 0 24 22 13 22 15 20 13 23 15 22 11 22 16 20 19 15 23 3 26-5 28-10 31-11 23-14 24-17 22-21 24-23 23-28 21-27 19-27 12-31 8-25-4-20-20-7-26-3-24 3-24 9-27 15-31 14-22 14-23 15-23 20-21 17-21 20-20 20-19 18-19 20-17 28-21 25-17 24-16"/>
<path d="M15319 40197l 13 25 10 23 8 27 10 23 14 22 23 9 20-21 17-26 16-27 18-33 14-27 16-28 16-32 18-33 20-36 20-37 20-39 19-38 17-35 15-29 13-24 13-21"/>
<path d="M14079 39953l 17-17 26-2 25 4 23 9 26 10 22 16 16 22 9 25-6 23-16 21-23 19-19 15-20 18-21 18-19 16-20 14-18 16-20 16"/>
<path d="M11819 41750l-1-24-24-2-11 27-8 24-7 27-1 28 4 28 15 19 22 9 26-7 22-13 18-20 18-25 16-23 7-25 2-25-7 24 2 26 5 25 16 25 22 14 30-1 26-7 26-13 22-21 18-24 15-27 10-28 6-28 0-26-5-28-10-23-16-21-20-14"/>
<path d="M12244 41272l 4 24 4 28 1 29 0 36-1 25-3 28-2 28-1 31-4 34-3 32-4 32-5 30-6 31-4 28-6 27-4 24-6 33-8 26-8 23 6-23 5-24 9-23 7-24 10-23 10-24 13-26 13-21 16-21 22-13 6 25-2 27-1 25-4 28-3 25-3 27 0 24 24 12 20-18 17-21 17-24 16-23 15-23 13-25 24 10 24 6 24-4 25-13 20-14 16-19 6-24-20-15-25-5-28 4-23 11-19 19-15 19-11 22-7 29 0 27 10 23 23 16 26 7 31-2 25-6 26-7 26-12 27-14 24-17 22-17 19-16 17-19 7-27-9-25-17-19 21-12 27-3 13 21-16 21-16 22-17 23-14 25-8 26 3 24 23 9 27-9 27-12 21-13 27-15 24-13 21-13 21-17 15-20 23-9 23-10 23-9-11-24-26-5-25 5-20 14-17 17-15 24-8 25 1 28 10 23 18 20 23 11 27 0 30-4 22-9 28-9 28-11 30-12"/>
<path d="M13639 41571l-12-22-24-4-23 12-17 17-17 20-14 20-16 24-13 23 3 26 24 14 26-1 24-9 21-13 4-24-14 20 25 8 25-8 23-12"/>
<path d="M13714 41598l 26-7 24-3 28-1 27-3-8 25-21 18-21 18-16 19-4 24 27 2 26-9 23-13 22-15 21-16 22-11 24 4 25 0 26-8 21-12 20-15 16-17-20-15-27-1-25 9-21 13-17 18-13 23-9 25 0 28 10 27 20 21 23 8 29 3 24-3 27-7 30-11"/>
<path d="M14641 41722l 27-2 23-5 32-11 28-13 22-13 21-14 25-18 26-19 26-21 26-22 27-22 22-24 21-24 19-25 12-25 13-24 11-32 6-29 3-30-1-26-4-27-15-21-19 16-14 20-18 32-12 25-12 31-15 34-14 38-15 40-17 41-16 42-14 42-13 42-11 42-7 41-6 40-5 38-2 33-2 30 2 24 4 32 5 25 11 22 23-10 14-29 11-30 7-34 4-33 0-36-3-35-3-32-5-29-6-24-5-25 3-25 18-19 24-12 24-14 21-12 24-8 24 4 6 24-4 27-3 24 0 27 14 20 23-12 21-21 20-18 19-20 17-19 14-21-23 11-9 22 2 24 12 24 21 11 28 0 24-9 29-12 28-16 20-16 23-21 23-22 24-24 23-27 20-28 16-29 11-31 7-33 5-32 4-31 2-28-1-26-1-24-25-4-19 25-19 26-14 21-14 22-12 22-13 23-10 26-9 26-7 28-7 26-5 35 0 27 5 25 11 23 21 13 30-2 29-9 22-12 21-15 22-17 21-19 20-20 18-20 17-22 13-22 13-24 11-23 11-32 7-32 3-30-1-28 0-24-4-28-18-16-23 12-18 22-16 26-13 26-11 29-9 23-11 33-6 24-5 35 0 24 1 30 5 25 12 30 16 26 22 18"/>
<path d="M16022 41569l 23-5-3 26-12 24-13 22-14 21-16 23 14-24 21-21 23-21 22-18 23-15 27-14 25-9 12 23-14 23-11 21-6 26 15 23 27 2 27-7 28-11 25-13 21-12 22-15-22 11-8 24 4 27 21 15 26 1 24-6 21-10 18-18 6-24-11-22-17-17"/>
<path d="M16525 41576l 22-12-17-17-23 10-25 16-24 20-19 16-17 20-16 20-15 24-10 22 17 17 28-11 23-17 27-22 17-17 19-18 18-20 18-20 16-22 16-22 13-22 11-22 9-23 7-24 6-24 6-25 4-28 3-28 3-29 3-29 3-30 3-26 3-24 3-26-28 11-15 25-18 28-10 24-12 22-8 27-10 28-9 28-8 28-6 28-3 26-1 25 2 24 7 29 13 23 19 21 25 13 26 5 27-5 25-10 22-14 18-17 15-22 22-10 26 0 23-7-26-11-27 3-28 6-24 16-15 19-8 25 9 23 21 15 27 9 26 2 26-3 30-8 23-10 28-12 25-16 21-19 16-19 11-24 1-25-21 12 0 27 11 25 13 22 7 26-16 20-23 10-25 2 26-4 25-4 29-7"/>
<path d="M17224 41264l 12-23 29-6 26 2 26 4 25 9 17 19-1 28-10 30-10 25-15 27-14 27-15 27-12 27-9 24-7 28-5 24"/>
<path d="M17283 41667l"/>
<path d="M4322 41330l 25 2 6 25 1 30-2 29-4 25-7 28-8 25-11 28-10 24 12-30 13-31 8-24 11-26 11-23 16-30 13-23 18-24 19-19 22-10 25 7 14 23 4 26 0 25-4 26-6 28-7 26-8 24 25-10 16-24 19-28 18-28 18-26 14-22 18-23 19-20 15 19 4 28 0 29 2 27 5 28 14 22 26 9"/>
<path d="M4900 41276l-8-24-25-2-22 18-16 19-16 24-14 24-12 25-10 27 6 24 25-3 22-13 22-18 18-17 19-20 17-22 5-23-15 21-6 27-1 26 3 24 15 20 25-1"/>
<path d="M5010 41244l 23-5 25 9 16 19 7 24 9 23 9 25 5 25 14 22 22 12"/>
<path d="M5155 41224l-23 12-19 15-18 21-18 25-18 24-18 25-16 23"/>
<path d="M5787 41220l-14 27-6 25-7 28-6 31-7 30-6 26-12 21 10-25 12-22 16-24 16-25 18-24 16-21 20-21 20-18 25-3 3 28-1 24-5 27-6 24-6 24 2 26"/>
<path d="M6062 41245l-26 11-17 17-15 21-10 22-4 24 8 25 23 10 24 1 25-7 28-12 20-14 22-19 14-21 6-23-9-28-16-18-24-9-25-4-25 11-9 24"/>
<path d="M6325 41217l-20-17-25 2-21 14-23 20-16 20-15 22-13 24-10 22 1 26 22 14 27-6 22-13 26-19 20-17 19-20 19-20 19-24 15-25 14-24 12-24 10-24 8-23 5-25 4-25 2-28-1-27 1-29 0-29 2-28 0-28 0-24-2-29-1-27-27 3-17 27-16 28-13 32-8 25-4 27-7 29-6 30-5 32-4 32-4 31-2 31 1 30 0 30 2 27 4 27 7 34 12 27 19 23 26 14"/>
<path d="M6512 41206l 24 12 26-3 24-9 21-15 3-25-18-21-22-12-26-3-24 9-22 15-15 19-15 23-11 25-3 24 1 28 12 25 22 20 25 9 26 5 30 0 33-2 28-5"/>
<path d="M7350 41142l-10 24-5 28-9 26-6 25-2 25"/>
<path d="M7391 41033l 30-2"/>
<path d="M7567 41062l-24 2-25 7-21 12-14 21 20 16 27 8 27 4 27 5 24 7 24 10-6 26-23 15-25 11-25 8-25 7-24 5-26-3"/>
<path d="M8193 41239l 28-1 27-2 31-6 26-10 27-16 22-12 22-13 24-13 23-16 25-18 24-19 24-22 22-21 20-21 19-24 15-24 13-23 9-25 8-33 2-24 0-24 0-26-2-27-2-25-3-26-4-31-5-26-26 5-20 22-16 20-16 27-17 30-19 33-19 39-22 41-11 23-10 24-11 25-11 25-11 27-11 27-13 27-10 28-10 27-10 28-9 28-9 28-8 29-8 28-6 27-6 27-4 27-3 26-3 25-1 24 1 44 4 39 6 34 9 28 12 22 23 23 26 12 29 0 28-13 26-25 15-22 14-25 11-28 7-31 6-31 2-32 1-30 1-29-5-28-5-25-10-33-10-29-9-23-12-21-16-19 23 9 25 1 26-4 28-9 28-10 23-10 27-12 21-13-24-2-18 18-12 22 3 25 22 15 26 3 24-2 27-7 25-12 20-14 17-19 11 24 26 7 27-14 26-18 22-19 24-19 22-22 23-25 18-25 18-27 13-30 12-33 4-25 4-25 2-34 2-33-1-27-5-28-23-6-23 15-17 22-15 22-17 29-12 21-11 25-11 27-11 28-8 30-8 30-7 31-6 29-4 28-2 27 1 36 8 29 10 24 22 23 28 14 25 0 28-8 30-17 20-15 19-16 19-18 15-20 18-20 17-22 14-24 14-24 11-24 9-26 8-25 6-28 6-27 3-26 4-25 3-31 2-25-5-28-16-19-21 14-15 19-14 20-14 25-12 30-11 34-7 26-6 27-5 26-2 27-3 25-2 25-4 35 4 32 5 27 15 27 20 18 28 8 33-5"/>
<path d="M9312 40935l 24-13 26 10 23 14 11 25 2 26-6 27-11 25-17 28-13 22-14 21-15 26-11 28-7 25-3 29"/>
<path d="M9351 41346l"/>
<path d="M5924 40765l 33 1 27 4 29 7 31 11 33 15 36 15 39 17 42 19 22 10 23 11 24 10 24 12 26 11 25 12 28 13 27 13 29 14 29 14 30 15 31 15 32 15 31 16 34 16 34 15 34 16 34 15 35 16 36 16 37 15 38 16 39 16 38 16 41 17 40 16 43 16 41 17 42 16 43 17 42 16 44 16 43 16 42 16 43 16 42 17 42 15 42 16 41 16 43 17 39 16 40 16 39 16 39 16 38 15 36 15 39 13 33 13 35 13 36 13 34 12 33 12 33 10 32 12 31 11 31 11 29 9 28 10 27 10 26 9 25 10 23 9 43 18 39 14 34 14 30 12 24 9 28 10 22 9"/>
<path d="M5768 41703l 23-15 38-23 25-13 27-12 27-12 28-10 30-10 30-10 30-10 34-10 34-10 35-10 35-12 38-11 39-13 40-14 41-13 43-15 43-15 45-15 46-15 47-16 48-16 45-17 52-15 49-16 52-16 52-15 53-17 54-16 55-16 58-17 56-16 55-18 57-16 57-18 57-16 58-17 58-18 57-18 58-17 58-18 57-17 58-18 58-19 56-19 58-18 58-18 56-17 56-17 56-18 54-16 54-15 53-15 53-14 51-15 49-13 49-13 46-12 45-11 43-9 42-10 40-8 38-8 36-7 34-7 32-5 29-4 27-4 26-4 24-2"/>
<path d="M12850 46873l 24-11 25-7 28-12 28-12 22-10 24-11 27-12 25-11 22-11 25-13"/>
<path d="M12864 46912l-23 13-5 29-6 25-8 24-6 27-2 27 5 24 23 13 23-9 27-14 27-13 29-10 28-6 29-6 27-4 26 0 26 3 25 11 16 21 6 25-3 28-11 26-14 28-13 21-18 25-20 21-23 19-22 16-26 12-24 6-27 0-26-6-23-12-17-19"/>
<path d="M13936 46850l 6-25-1-25-10-22-23-6-26 9-19 17-17 17-17 19-15 20-9 23-4 25 6 24 15 22 20 19 23 17 20 14 24 13 22 12 22 13 22 11 22 17 19 21 11 25 5 28-4 24-9 27-14 24-18 21-21 16-26 12-26 2-26-7-19-15-16-22-11-23-3-30 2-31 3-24 7-23 9-25 11-25 13-26 15-25 15-25 14-22 19-24 16-18 19-16 19-16"/>
<path d="M15051 46910l 7-27 4-26-2-27-7-27-16-23-22-13-26-7-26 2-28 6-22 11-22 16-21 21-21 23-18 23-15 23-11 27-4 28 10 22 23 15 26 1 31-5 24-8 25-9 23-10 24-11 26-14 20-15 19-20-10 23-5 29-4 25-3 29-3 30-3 30-5 33-3 25-5 26-5 26-6 26-5 25-5 29 0 28 11 22"/>
<path d="M16292 46922l-5-26-11-21-18-19-24-10-28-1-25 8-22 13-18 21-8 24 7 26 14 23 18 20 20 19 20 20 19 18 20 18 18 19 15 19 13 24 3 26-4 24-12 28-12 23-13 21-18 22-19 17-24 18-26 12-25 4-27-6-20-14-16-24-9-31-2-27 3-30 8-29 11-30 11-26 13-23 16-26 18-21 22-21 19-16 24-19 25-15 25-11"/>
<path d="M17166 46842l 27-5 25-1 25-2 25-3 28-3 26-5 28-4 26-2"/>
<path d="M17198 46858l-24 10-15 25-8 23-5 28-1 25 2 25 9 23 16 18 24 6 24-2 26-6 26-5 27-3 28 0 26 2 25 4 27 9 25 13 19 17 12 25-1 27-8 28-13 22-16 20-17 18-19 16-27 14-23 9-25 5-27 2-28-2-25-4-27-10-24-18-15-19-13-22"/>
<path d="M13908 47717l-17 21-3 27 2 25 1 27 1 26 1 25 2 29 2 24 1-27 0-29 0-29-1-30 2-27 2-26 10 22 3 28 2 28 1 27 3 27 5 25-10-23"/>
<path d="M13925 47736l-9-23-21 12-15 20-13 25-8 27-6 26-1 26 6 27 10 22 23 15 22 11 25 2 24-4 25-13 21-15 19-22 13-26 10-24 5-23 3-29-11-27-13-21-16-23-22-14-24-9-27 6-25 12-17 17-15 19-15 21-8 25-2 26 1 25 8 26 13 22 23 16 24 11 26 5 29-2 26-6 24-11 20-19 14-22 12-25 6-23 0-24-3-25-9-22-13-23-19-17-23-11-25-2-24 5-24 13-23 18-18 17-16 23-9 23-8 26-3 25 6 24 9 25 21 16 25 7 25-4 23-10 20-14 18-19 15-22 7-27 3-27-11-26-21-16-24-2-27 7-23 16-18 16-16 18-11 22-9 23 9 23 26 4 23-12 26-16 18-17 12-23-6-24-27 1-23 17-15 20-16 23-5 23 18 17 26-9 21-15 20-18 11-21 2-25-24-11-25 12-18 20-14 24-14 23-1 24 25 3 24-16 20-17 15-19 12-21 1-24-10-24-26 7-14 21-14 24-8 24 25 5 21-14 19-18 13-23 6-24-11-22-26 1-19 18-16 20-12 23-11 23-6 23-2 28"/>
<path d="M12923 48668l-8 26-4 26-5 31-5 34-3 26-2 26-3 26-3 28-3 27-2 26-2 26 0 24-2 33 0 29-4 30-1 25 2 26-16-18"/>
<path d="M14868 48603l 23-8 26-10 25-9 27-3 27 2 23 11 12 23-1 25-18 22-22 18-20 15-24 13-26 10-22 14 25 2 25-2 28-4 28-5 25-2 25-1 31 3 25 6 28 11 22 17 14 25 6 24 2 28-6 23-10 25-14 26-16 20-17 17-22 21-21 18-22 13-25 10-24 6-29 2-24-5-25-10-23-13-20-17-3-25"/>
<path d="M16083 48691l-24 17-19 22-20 21-17 22-14 19-14 22-6 24 11 22 26 10 26-1 30-4 25-5 29-7 30-9 28-9 27-8 27-8 25-8 22-10"/>
<path d="M16148 48754l-10 24 2 24 5 25 5 25 5 26 5 24 6 28 5 28 4 27 3 25"/>
<path d="M17090 48660l 17-20 26-7 26-5 28 2 29 6 23 7 22 15 17 21-4 24-20 18-22 12-22 12-27 9-25 6-25 9 24 12 27 1 24 1 24 1 28 3 29 6 27 6 24 10 22 18 13 23-5 27-11 22-18 27-16 20-17 18-23 21-22 16-22 12-26 10-25 3-27-10-18-17-17-21-15-23-11-24"/>
<path d="M13928 45734l-4-25-10-25-20-16-24-4-28 6-21 12-22 16-19 17-19 21-6 26 15 24 23 15 22 10 27 11 25 13 22 16 23 16 18 19 18 20 16 22 9 23 6 23-1 26-7 27-10 26-16 22-17 17-26 13-28 2-22-9-19-21-10-26-3-32-1-27 2-27 4-24 8-30 11-26 9-25 13-21 21-16"/>
<path d="M13926 45763l-6 24-11 25-14 24"/>
<path d="M14915 45793l 14-20 28-10 25-5 28-2 27-2 26 0 25 1 25 4 25 8 22 13 17 19-1 27-15 24-18 20-21 16-26 13-26 11-25 11-23 9-27 8-27 7-23 6 27-3 28-2 24-2 27 0 26 3 28 4 30 6 25 9 25 15 19 20 13 25 4 24-8 24-12 23-16 20-28 14-24 7-25 4-28 2-29 0-29 0-27-3-29-4-24-5-27-9-21-14"/>
<path d="M17299 45816l 5 26-7 27-8 29-5 23-5 25-6 25-4 25-3 28-1 25-3 31-4 29-1 25-2 28-4 28-3 27 3 25"/>
<path d="M15046 49759l-24 5-12 24-3 26 21 15 26-9 21-15 15-19-14-20-24-9-26 4-20 15-15 21-11 23-3 25 21 15 25 5 25-9 14-20-9-22-23-9-18 18-10 24 12 21 24 10 25-5 12-21-12-21-16-19-24-2-15 20-4 25 12 21 25 9 24-11 16-18 4-24-14-22-22-14-24 1-21 11-13 21 2 25 20 15 24 5 24-5 12-22-11-24-15-19-24-5-14 21-7 26 4 24 13 21"/>
<path d="M13012 45672l-2 25-2 27-3 24-4 26-4 28-5 28-3 29-4 27-3 26-1 25-3 29-1 26-3 27 0 26"/>
<path d="M12886 49746l-24 8 4 25 24 6 24-6 1-25-26-9-24 5-24 7-19 16-15 21 11 22 26 0 24-8 20-14 12-23-12-22-24-8-23 10-19 19-13 24-8 24 10 22 25 7 25-9 19-16-2-25-11-23-25-2-14 22-4 24"/>
<path d="M16060 50770l 23-11 24-3 26-4 25 1 24 7 20 15 0 25-10 25-16 19-15 21-21 21-20 17-24 18-23 16-22 13-24 14-22 14-23 14 23 10 24-3 24-5 27-4 25-3 25-3 25 1 25 2"/>
<path d="M17043 50735l 22-10 27 5 24 7 25 6 25 8 23 11 22 14 7 23-12 26-18 22-17 18-20 20-22 21-24 18-22 17-21 15-26 17-23 16-19 17-21 18 14 22 26 3 27 3 30 5 26 1 28 0 27 2 24 1 23 6"/>
<path d="M16067 51692l-24 1-7 26 4 25 22 10 20-14 14-21-12-22-22 11-9 23 18 18 26 4 24-10 11-22-4-26-13-20-25-5-22 15-13 22-1 25"/>
<path d="M17009 52357l-2 24-3 27 0 25-2 29-2 31-2 30-1 29-2 28 0 25 2 27 1 26-1 24 7-25"/>
<path d="M16987 53311l-4 24 24 9 22-10 10-23-10-22-22 13-15 21 5 24 23-6 15-19-10-22-21 13-8 23 23 11 21-12 3-24-20-16-23 5-18 20"/>
<path d="M16117 45798l-9-24 1-25 22-13 27-8 26-3 28-2 25 2 27 8 25 10 23 16 17 18 7 23-6 28-15 22-16 19-20 24-26 25-19 16-22 15-24 17-21 14-30 18-24 17-26 15-22 11-21 14-20 16 27 6 30 0 25 0 24-3 32-6 28-6 28-6 26-5 24-4 30-4 27 0 26 6"/>
<path d="M12039 44752l-10-23-21-15-27-2-24 10-22 16-19 19-15 21-13 22-8 25-8 31 0 28 18 19 29-3 22-17 18-20 18-25 16-27 13-28 14-29 11-29 11-31 8-35 4-27 4-26 3-27 2-28 2-28 1-30 1-24 2-31 0-28-4-26-22 12-6 27-5 27-2 29-4 36-1 24-3 24-2 27-2 28-2 29-1 29-1 28 0 27 0 24 1 24 3 30 4 26 12 26 13 22"/>
<path d="M13043 44526l-10 26-11 26-14 22-14 24-15 24-12 24-13 21-9 24 2 25 23 13 25-3 25-8 27-9 28-10 26-10 26-9 26-10 26-10"/>
<path d="M13125 44612l-4 24 5 26 1 26 1 31 3 32 0 32-1 25 0 26"/>
<path d="M13940 44591l-23-9-29 4-21 16-16 22-12 22-10 28-3 26 1 24 5 25 13 27 22 20 22 12 27 8 30-1 32-5 32-10 31-13 29-18 25-17 20-20 20-24 11-23 5-24-1-28-9-29-15-25-18-17-22-19-23-16-24-8-29-1-27 1-25 5-23 11"/>
<path d="M15154 44595l-25 2-16 25-13 22-12 30-7 25-7 25-3 26-3 31 4 28 11 24 22 20 22 18 28 10 25 1 26-1 25-10 16-19-5-27-15-19-18-21-23-14-25-5-24 9-19 15-19 19-12 23"/>
<path d="M16263 44508l 9-23-11 28-11 28-9 24-9 23-8 30-6 29 0 28 4 29 12 23 18 16 25 14 25 7 25 1 25-9 18-19-6-27-12-22-18-17-23-11-25 5-23 10-20 16"/>
<path d="M17330 44497l-16 21-11 24-10 25-10 22-10 24-10 22-6 23 21 16 29 6 28 0 25 0 24-3 25 0 25-3 26-4 29-3 25-6 24-9"/>
<path d="M17465 44594l-5 29 5 26 5 25 0 27 1 29"/>
<path d="M17183 54592l 23-8 24-6 26-6 26-7 26-9 26-8 25-7 25-8 25-10 23-11 24-10"/>
<path d="M17205 54628l 6 23 3 27 0 24-1 26-2 26 0 27 2 24 23 12 26-13 23-12 22-10 25-10 28-5 26-2 28 0 28 0 28 5 24 6 25 12 17 20 8 23 2 28-6 25-7 26-8 23-9 24-13 23-15 22-17 20-17 19-24 16-27 13-28 6-24-2-24-2-27-5-27-9-27-4-24-6"/>
<path d="M15130 54488l-19 17-12 23-12 27-11 28-9 25-8 28-10 31-9 30-8 29-7 27-2 27-1 25 5 29 7 29 8 29 13 25 20 18 20 16 24 8 28 5 24-2 28-7 26-11 19-16 16-23 9-24 1-28-9-23-19-19-25-10-25-4-29-1-25 5-25 12-22 15-16 21-16 21-2 25"/>
<path d="M17417 55914l 15 21 4 26 0 25 0 28 0 24-2 27 0 29-2 26-2 26-1 24 2 26 2 25 1 24"/>
<path d="M15021 55903l 17-18 26-5 27 0 25 7 25 8 19 18 3 24-12 23-17 17-21 19-22 19-25 20-20 14-25 19-23 17-22 16-22 14-22 11 25 0 25-3 28-2 28-2 27-3 27 0 27 2 24 2 24 3"/>
<path d="M16116 55891l 23-15 24-6 26-2 24 2 27 9 24 14 11 21-1 26-13 21-22 16-25 6 26-3 25-1 25 4 23 11 20 14 12 22-1 26-14 24-17 19-22 19-21 13-22 10-24 6-24 4-24 1-24-7-25-12"/>
<path d="M13986 55816l-20 15-13 21-15 21-16 22-16 22-10 22 4 25 25 10 25 0 26-5 24-5 25-7 27-7 29-6 27-5 28-4 25-5 26-5"/>
<path d="M14095 55878l-2 29 0 26-1 28 1 25 2 28 0 25"/>
<path d="M12749 55848l 17-17 20-15 27-10 28-8 26-5"/>
<path d="M12796 55839l-24 9-17 18-8 22-3 24 11 24 14 22 20 14 25 3 26-6 23-9 23-12 24-11 25-6 28-4 24 3 13 23-4 25-11 23-11 24-16 21-17 19-20 19-23 14-23 13-25 7-28 4-27-2-22-13"/>
<path d="M12717 54410l-2 27 0 29 0 32 1 27 1 30 0 28 0 30-2 29 0 29 2 27 0 24 1 26 4 27 2 27 5 23"/>
<path d="M16240 54530l 3 27-4 25-4 26-5 29-2 32-3 25-5 31 2 28 1 26 3 27 1 27 0 24"/>
<path d="M13993 54430l 29-5 27 2 24 2 27 4 25 6 21 14 10 22-2 24-8 24-11 21-15 22-16 22-18 21-20 21-19 22-23 22-23 20-24 19-23 15-21 13-25 15-22 14 21 14 28-3 28-8 28-8 30-11 24-7 30-6 30-4 27-3 29-3 24 0 25 2 25 5"/>
<path d="M20245 50255l 6 25 1 26-2 29-2 29-1 27-3 25-4 25-3 24-6 23-5 25 6-28 10-26 12-30 14-32 12-22 15-31 12-22 19-30 21-28 20-26 18-22 18-21 17-20 17-16 22-18 23-8 24 11 9 22 4 26 2 30-5 31-5 27-7 27-5 26-6 25-11 30-8 24-6 26 5 24"/>
<path d="M20864 50004l-13 23-12 23-12 27-15 30-17 33-12 25-12 26-13 27-13 28-14 29-14 29-14 29-14 29-14 28-12 27-13 26-12 24-11 23-16 32-13 27-10 22-13 21"/>
<path d="M20891 50210l 27-4 25 4 23 8 19 17-5 27-16 18-20 17-22 19-23 20-21 19-18 16-17 19 20 17 26-2 25-3 25-5 29-4 30-4 32-4"/>
<path d="M21232 50272l"/>
<path d="M21589 50083l 4 26 4 25 2 24 1 29-1 26-4 25-5 24-7 27-9 24 4-24 9-23 12-23 13-23 13-23 15-22 16-27 15-20 18-19 24 6 4 26-1 26-2 24-4 28-4 28-3 25"/>
<path d="M21970 49898l-9 26-5 25-6 29-7 25-9 28-11 31-12 33-10 22-10 23-10 23-12 24-10 23-12 23-15 30-14 29-12 25-12 26-10 24"/>
<path d="M22028 50075l 24-4 28 2 28 1 24 6 25 10 18 17 0 25-17 22-20 16-24 17-20 14-19 16 16 19 25 1 25 2 23 5"/>
<path d="M20763 51106l 3 25 5 26 6 24 8 23 8 26 9 24 22-17 12-28 7-23 6-27 5-28 6-29 4-26 3-24 3-25"/>
<path d="M21021 51031l-14-20-25 4-20 14-20 20-13 22 6 24 23 12 24 7 25 5 26 3 22 11-11 24-22 15-21 14-24 9-24 5"/>
<path d="M21163 51162l"/>
<path d="M20862 51782l 14 23 5 29 1 26 0 27-1 27-4 26-6 25-8 24 8-24 8-26 12-26 14-26 16-25 18-25 18-21 19-18 22-18 21-12 25 3 19 15 10 24 5 26 0 25-1 26-1 25-1 28 2 26 8 23"/>
<path d="M20122 52989l 14-21 25 1 22 10 23 12 24 13 22 15 21 17 18 18 16 22 7 27-3 24-10 27-15 23-19 26-15 20-18 20-19 19-20 19-20 17-20 17-20 15-28 21-26 18-23 17-20 13-21 15-19 14 27 6 26-7 24-9 27-9 27-11 29-11 31-12 32-10 31-12 31-8 28-7"/>
<path d="M20535 53200l"/>
<path d="M20839 53130l-11 27-6 25-8 27-7 23-7 28-9 25 15-24 15-23 16-25 18-25 17-22 20-24 18-19 21-20 22-15 24-4 13 21-3 29-6 27-6 27-5 25-2 26 7 24"/>
<path d="M21124 53149l 25-8 25-3 24-3 29-1"/>
<path d="M21421 52998l 20-14 26-3 24 3 27 7 21 13 12 22-8 27-21 21-20 14-23 16-21 17-4 25 25 4 24 1 29 0 28 1 29 1 25 1"/>
<path d="M20898 52856l-23 11-22 19-20 18-23 22-18 19-18 20-17 22-14 24-12 25-8 28-5 31-3 31 0 31 3 32 6 33 12 29 17 26 24 22 29 18 23 9"/>
<path d="M21735 52820l 26 0 25 13 27 15 20 14 20 17 21 20 20 21 19 22 17 23 13 24 9 23 6 26 4 27 1 25-5 25-7 26-13 27-15 31-15 19-16 22"/>
<path d="M20041 53786l 14-22 25-11 29-9 24-6 25-6 24-3 29-1 26 5 12 23-16 24-19 20-23 19-21 14-21 13-25 14-22 13-22 14 28 0 24-4 27-4 27-1 26 4 25 13 18 17 7 26-1 26-11 23-18 23-20 17-23 15-25 12-26 8-25 3-28-1-25-8-21-16-12-21"/>
<path d="M20474 53855l"/>
<path d="M20750 53591l-22 11-19 19-21 20-17 21-19 26-20 30-13 22-15 33-13 32-9 33-5 31-1 30 1 28 3 25 11 31 16 25 18 22 20 21 22 16 23 13 22 9"/>
<path d="M20861 53877l-22 11-13 21-9 26-4 25-1 25 23-10 18-24 13-22 12-22 13-21 18-17 22 10 12 25 4 25 1 26 14 21"/>
<path d="M21112 53841l 27-2 26-3 30-6"/>
<path d="M21403 53710l 21-12 26 0 26 4 24 10 17 17 2 24-15 19-14 21 24 12 26 4 24 7 22 13 24 17 17 18 13 21-4 25-21 16-25 11-26 6-25 2-28-6-22-15"/>
<path d="M21724 53605l 24 15 23 19 20 18 23 20 16 19 14 21 13 23 9 23 6 25 2 26-2 27-3 25-7 27-8 26-11 25-14 23-14 22-16 21-18 19"/>
<path d="M17228 59415l 27-5 28-6 24-3 26-6 25-3 26-7 28-6 24-9 25-4 24-1"/>
<path d="M17242 59425l-2 27 3 28 0 30-2 24 0 27 3 25 0 25 9 22 25-3 22-10 26-11 26-10 29-7 29-5 25-3 26 0 25 4 26 7 24 10 22 12 20 19 9 25-3 25-9 25-11 23-17 24-20 22-20 22-23 21-27 18-23 12-22 9-28 11-31 9-24 2-26-2-25-7-28-9-24-14-21-13"/>
<path d="M17641 60711l-18 17-3 24-3 29 0 26-3 30-1 30-3 31-1 31-1 31 2 30 0 26-1 24 1 29 4 29 2 27"/>
<path d="M15234 60778l-8-23 22-12 25-4 25 1 27 2 26 3 28 8 23 14 19 19 8 23-2 24-12 28-20 25-19 20-19 20-23 22-26 19-26 19-21 16-19 20-19 21 5 24 27 3 27-6 29-7 28-7 23-6 30-3 24 0 24 1 25 9"/>
<path d="M14183 60693l 23-15 28-5 25-3 27 2 26 6 16 19-6 26-19 19-17 17-23 14 15 20 28 5 26 5 27 6 25 8 18 18-12 26-21 18-24 17-23 11-23 6-24 6-24-1"/>
<path d="M12819 60655l 5 24-11 27-10 23-11 26-13 27-12 28-11 25-7 24-6 23 2 24 19 17 24 5 26-3 25-3 28-5 24-6 24-9 24-11"/>
<path d="M12926 60819l-14 20-5 24 0 29 3 28 2 29 5 31 7 25"/>
<path d="M16452 60682l 17-20 25-9 27-7 29-8 27-6"/>
<path d="M16488 60677l-19 17-11 25-4 24 1 26 10 22 25 9 29-6 24-5 26-7 27-3 25-3 25-4 25 1 26 4 28 8 24 13 16 23-7 25-13 23-18 19-24 18-24 16-21 12-28 11-27 9-29 6-25 0-25-6"/>
<path d="M15461 59369l-25-2-16 19-13 22-15 28-11 24-15 27-10 32-7 33-5 32-4 32-2 29 1 27 7 30 11 25 18 24 19 15 28 4 25-5 23-9 24-14 22-22 19-22 15-22 10-28 1-27-19-21-23-13-27-1-28 6-26 12-24 14-20 17-21 18-18 22-10 23"/>
<path d="M20019 55621l 8 26 5 25 3 24 2 26 2 28 0 26-1 26-2 25-3 28-8 24-7-26 5-28 5-24 7-25 8-25 9-24 11-26 12-25 14-21 19-26 19-21 19-17 21-17 24-14 24-6 21 12 10 22 4 24 2 29-1 28 1 28 3 25 0 25 2 28 4 26 9 24"/>
<path d="M20029 55596l 13-21 19-23 23-21 25-21 22-15 23-16 21-13 23-13 24-6-4 24-19 29-22 26-27 31-32 37-19 19-18 22-21 21-21 21-21 22-22 21-23 21-23 21-21 20-21 20-21 19-19 19-19 17-31 31-24 23-21 24 28 6 30-9 37-16 23-11 25-12 28-14 28-16 30-16 31-16 33-18 31-17 31-17 31-17 30-17 28-15 27-15 27-14 24-11 22-12 40-22 36-18 29-15 26-13 28-13-18 17-28 21-22 17-25 20-25 22-27 24-26 25-24 27-24 28-19 27-15 28-10 25-4 35 6 32 10 22 15 21"/>
<path d="M20161 59327l 13-21 20 16 9 24 3 29 0 26-1 27-3 28-6 27-8 30-7 27-6 23-9 25-13 21 4-30 9-27 9-33 9-24 8-23 14-34 14-34 16-31 15-27 16-24 15-22 20-23 19-17 21-14 25-5 17 19 3 28 1 24-2 29-2 24-2 25-4 27-3 29-2 28 2 26 9 28 19 22"/>
<path d="M19958 60498l 6-25 18-16 18 17 5 28 0 28-3 29-5 23-7 25-9 25-8 25-9 29-9 24-7 24 6-23 7-24 7-26 9-25 11-27 12-25 12-23 12-23 14-22 13-21 15-22 16-17 21-14 25-3 17 17 6 25 0 24-4 28-6 26-6 27-5 25-3 26 1 26 7 26 14 20 25 4"/>
<path d="M20327 60520l 22-10 25-2 26-1"/>
<path d="M20594 60336l 20-14 26 4 24 8 22 12 17 17 8 25 1 25-1 24-6 25-15 25-17 17-18 17-22 16-25 16-22 16-22 15-22 16-18 16 17 19 26-1 27-3 25-3 27-3 25-2 24-2 28-5 26-2 25-1"/>
<path d="M20915 60480l"/>
<path d="M19869 60239l-25 1-20 16-17 21-14 20-19 25-15 19-15 21-17 22-15 22-13 25-15 25-9 26-9 26-8 26-3 24 1 35 9 35 9 23 12 22 16 21 19 19 21 17 24 15 26 15 26 13 27 12"/>
<path d="M20779 60230l 26 4 21 15 16 18 16 24 15 25 14 23 12 24 15 25 13 25 13 29 7 24 5 26 2 26 1 24-6 31-6 24-10 23-10 22-14 25-13 22-17 22-22 11"/>
<path d="M21374 60292l 22-11 24 3 30 6 29 10 28 13 26 15 21 14 15 19 6 26-6 25-15 27-22 23-18 19-19 18-19 15-20 17-20 16-4 24 22 14 25 8 25 6 29 6 25 4 29 2 31 4 30 3"/>
<path d="M19810 61164l 4-24-21 13-16 20-20 26-17 23-20 26-22 29-15 22-17 22-16 23-15 24-14 23-12 25-11 27-9 26-7 26-6 24-5 24-4 36-2 33 3 31 6 29 10 26 12 23 13 22 19 26 19 23 21 20 18 17 19 17 22 16"/>
<path d="M19930 61572l-8 25-5 26-4 28-3 25-7 26-8 27 8-27 13-25 11-22 14-19 19-23 22-19 19-16 22-12 25 1 10 25 0 25-2 28 1 25 14 23"/>
<path d="M20208 61586l 20-14 25-9 28-4 27-1 24 1"/>
<path d="M20527 61398l 17 20-3 24-8 27-11 22-13 27-12 23-6 24 22 16 24 2 26-5 23-6 29-9 30-10 27-11 27-10 23-9"/>
<path d="M20676 61462l-19 15-4 26-4 26 0 28 4 28 7 24"/>
<path d="M20747 61198l 20-14 29 1 25 6 24 11 22 13 18 16 13 20 9 27 6 31 2 25 2 24 0 26 0 28 0 30 0 27 0 24 0 31-3 28-7 28-11 28-11 27-14 26-15 23-17 23"/>
<path d="M21214 61276l 22-14 29-3 25 1 29 4 25 6 25 8 28 11 21 17 4 26-13 23-21 21-19 17-22 18-24 17-25 15-22 16-23 15-21 13 20 17 28 4 24 2 28 2 30-2 32-4 24-2 24-2 26-3 26-5"/>
<path d="M19822 62256l-20-15-25 13-23 19-18 25-17 25-17 28-18 31-17 31-16 32-11 22-10 22-9 22-8 24-8 33-6 33-2 31-1 33 2 30 4 30 6 26 10 23 13 21 19 25 20 23 19 20 19 17 22 16"/>
<path d="M19857 62649l 0 24 5 24 2 29-2 24-5 25 10-23 13-27 10-22 12-21 15-25 13-21 15-20 17-18 25 4 7 27 5 27 3 26 4 24 1 27 3 25 17 17"/>
<path d="M20215 62607l 27 2 27-2 29-2 24-2"/>
<path d="M20687 62303l-19 17-14 24-15 26-10 22-12 24-12 26-10 28-9 29-7 30-3 28-2 25 2 29 8 24 16 24 23 11 24-1 26-11 21-15 17-20 3-25-14-21-24-7-25 1-27 8-24 9-24 9"/>
<path d="M20859 62163l 17 17 14 27 14 26 13 22 12 23 13 25 14 27 15 28 14 29 12 30 9 32 7 31 4 33 2 36-1 34-2 34-7 33-10 33-14 31-15 28-16 26-19 24-18 19-25 18-25 10"/>
<path d="M21272 62357l 24 5 28 2 24 2 24 5 28 9 23 14 14 23-4 24-17 23-21 23-21 18-25 17-25 20-21 20-17 18-14 19 25 9 24-5 25-6 28-5 28-6 27-4 25-2 29-1"/>
</svg>
