<svg xmlns="http://www.w3.org/2000/svg" viewBox="398 728 18768 6984" stroke="black" stroke-width="20" stroke-linecap="round" stroke-linejoin="round" fill="none" data-xena="0 0 0"><style>@media(prefers-color-scheme:dark){svg{background-color:black;stroke:white;}}</style>
<path d="M2439 2015l-4 2-5 2-5 2 34-34-1 5-4 8-6 7-9 9"/>
<path d="M2505 2090l"/>
<path d="M2941 1735l-6 6 9-9-7 8-8 10-10 11-11 13-12 14 5-7-11 16-10 16-12 20-14 23-15 25-13 24 4-7-11 23-9 24-9 24-9 24-8 26-8 27 2-8-7 28-7 28-6 30-5 31-2 29 2 23-2-6 6 17 8 14 8 14 7 12 8 12 10 10 11 9 12 7 13 7-8-4 14 6 15 3 14 3 15 0 15-1 13-2-9 2 13-3-9 3 13-6 14-7-8 4 12-9-6 6 9-9-5 7 9-11 9-14-5 7 8-14 6-15-3 8 4-13 2-12-1 9 0-12-2-11-5-10 4 8-7-11-7-10-7-9-8-7-9-7-10-6-10-5-12-4-12-3-13-2 9 1-13-1-13-1-12-1-13-1-12 0-12 0-9 1-8 2 9-2-7 1"/>
<path d="M3226 1935l-7 5-8 5-9 7 8-6-10 8-10 10-11 11 9-9-10 11-11 12-9 12 5-7-8 15 4-9-8 18-7 20-6 19 2-9-3 16-1 17 0 18 1 18 3 15-2-8 3 13 6 12 6 11 9 11 9 10 11 8 12 8 13 8 14 7 13 7 14 5-8-3 13 4 12 2 12 1 12 0 13 0-9 1 13-2 12-4-8 3 13-6 13-6 12-7-7 4 12-8 12-9 11-10-7 6 11-10 10-12-6 7 9-12-5 7 8-13 7-14-3 9 6-16 4-14 1-12-1 9 0-12-2-11-4-13-6-13 4 8-8-13-10-12-11-13-13-12-15-12-16-11-17-9-17-8-16-6-17-4-16-4-3-8"/>
<path d="M4035 2208l 4 5 6 5 6 4 6 3-7-4 8 2 9 0 10-1-9 1 12-4-9 4 14-6 15-8-8 5 17-11 22-15 26-19 28-20 27-21 25-21-4 3 23-23 22-23 20-24-3 4 19-23 17-23 16-22 14-21-3 4 12-20 9-20-3 6 6-19 4-17 3-16 1-16-1 8 0-14-2-13-3-12-4-10 4 8-5-9-7-6-8-4-9-2 9 1-11 1 9-2-12 3 8-3-13 6-14 9 8-5-15 11-13 11-13 13 9-9-14 15-16 19-20 22-20 23-18 23 4-5-15 24 3-6-12 24-10 22-8 21-6 20-5 18 2-7-2 17-2 16 1 15 1 12 2 11 3 12-3-9 4 12 4 11 4 10 5 8 6 7 7 5 8 4-8-3 9 1 10 1 10-1-9 1 9-2-8 3 9-4 10-5-8 4 9-6 10-8-7 5 10-9 9-10-6 7 7-11-4 8 5-10 5-10-4 8 4-9 2-8 2-7 1-7-1 9-1-6-2-7 4 8-3-6-4-6-5-4-1-1 51-52 2 2 5 4 7 5 2 8-2 9-5 8-5 7"/>
<path d="M4578 2055l 0 7-1 8-1 8 0 8 0 8 1 10 1 10 0 7 0 5 1 5 1 6 2 7-3-9 2 6 2 8"/>
<path d="M4607 1856l"/>
<path d="M4806 1752l 2 8 2 6 0 6-1 7 0 6 0 7 0 7-1 9 0 11 0 13-1 15 0 16-1 15-1 15-1 16-2 16-1 16-1 17-1 16 0 16-1 16 0 16 0 15 1 13 1 12 2 11 2 10 3 10-3-8 3 10 4 9 5 8 5 6 4 3 5 3-8-3 8 2 8 1 9 0-9 1 10-2-8 3 9-5-7 5 9-6 10-7 8-5"/>
<path d="M4726 2027l-9 0-10 0-9 1-9 2-8 2 9-2-8 2-6 3 16-9-3 2 11-45 5 1 8 0 9 1 10-1 11-2 12-1 12 0 13 1 14 2 14-1-9 2 16-4 9-1 8 3 2 8-2 9"/>
<path d="M5062 2013l 6 2-8-3 6 2 7 1 6 0 7 0-9 2 7-2-8 3 7-4 8-4-8 4 8-5 9-6 10-7 10-7 12-8 11-10 11-9-7 6 9-9 7-8-6 7 5-7-5 8 4-7 4-7-4 8 3-7 2-6-1 9 0-2 51-19-2 4 4-8-3 8 2-9-2 9-1 8 0 9 1 9 2 10-2-8 3 9 4 9 5 8 4 9 5 10 4 10 6 9 5 8 5 7 5 7 4 6 5 6 4 7 3 7 4 8 2 8 3 8 1 8 2 8 0 7-1 7-1 6-2 9-3 4-4 8-3 5-5 7-4 4-8 9-4 3-5 4-7 5-4 3-8 4-6 2-5 2-9 2-6 0-7 1-7-1-6-1-9-1-6-1-6-2-5-1-3-2-4-8-1-2 1-9 4-8 4-8 6-7 3-3 7-6 8-4 6-3 8-3 8-2 9-2 8-1 8-1 8 0 7 1 8 0 7 1 7-1 8 0 8-1 9-1 9 0 10-1 11 0 11 0 11 1 11 0 11 0 12 0 12 0 13-1 8 3 2 8"/>
<path d="M1729 2094l 3-6 3-7 3-5 5-8 6-7 4-4 7-6 4-3 8-5 9-3 6-2 9-2 7 0 8 2 8 3 8 3 7 5 7 5 7 6 7 7 7 8 7 8 7 8 6 7 5 8 6 9 6 11 6 11 7 11 7 12 6 11 7 12 7 13 6 13 7 12 6 12 7 13 6 12 6 11 7 11 6 9 6 9 6 11 5 10 6 9 5 9 6 7 7 7 7 7 7 5 8 4-8-4 8 3 9 2 10 1 11 0 13 0 14-1 7 3"/>
<path d="M2135 2058l-6 2 8-3-6 3-7 4-9 5-9 5 7-5-9 7-11 9-11 11-12 12 9-9-12 13-10 13 6-7-10 13-11 16-14 21-20 27-5 7-19 26 4-6-15 24 3-6-11 23-3 6-14 27-16 27"/>
<path d="M676 3621l 1-4 2-4 1-4 1-5 2-6 2-6 2-7 3-8 1-9 2-8 1-8 2-8 1-9 1-8-1 8 0-8 0-8-1-8-1-7-3-7 4 8-3-7-4-6-5-5-6-5-7-3-7-2 9 2-8-1-8 0-9 2 9-2-10 3 8-4-10 5-9 7 7-6-10 9-9 10 9-9-9 10-9 12-9 12 5-7-9 13-8 13-8 14-8 14-7 13 4-8-6 13-5 13-3 13 2-9-2 12-1 11 0 11 2 10-3-9 3 8 4 6 5 4 6 3-7-3 7 1 9 0 9-1-9 1 9-2-8 3 9-4 10-5 10-6-8 5 10-6 10-7 9-7 10-8 9-7 8-7 7-6 7-5 6-5 5-5 5-4 8-5 5-2 8-4 4-1 9-1 4 1 8 3 3 2 4 4 2 4 3 6 2 6 2 9 2 7 2 7-3-8 2 7 3 7 2 6 2 7 2 6 2 6 3 5 3 5 3 5 4 4 5 4 5 4 6 3 5 2-8-3 6 2 8 3"/>
<path d="M962 3706l-2 9-1 5-3 6-2 7-3 8-3 9-4 8-5 8-5 9-5 9-7 11-6 11 4-8-6 12-4 8-7 13-7 12-7 12"/>
<path d="M1152 3575l-2 3 18-25-1 4 2-8-1 5 1 5-2-9 2 5 4 4 6 3-8-3 6 2 8 1 8-1-9 1 10-2 11-3-9 3 12-5 12-7-8 5 12-10 13-11-7 6 13-13 15-15 14-16 15-17-5 7 15-19 16-20 16-19 16-20 16-20 14-20 13-20-4 6 12-20 12-20 10-21 10-22-4 7 9-23 9-25 8-28 8-28 5-26 4-23-1 6 1-21-1-20-2-17-4-15-4-14-4-13-4-11-5-9 4 8-4-7-4-5-5-3 9 2-5-1 9-2-6 3 15-9-6 5 9-10-7 9 6-7-8 11-9 13-10 15-10 16-9 17 4-8-8 17-7 18-6 20-7 22-6 23 3-8-6 25-6 27-6 26-6 28-5 27-4 28-3 28-1 28-1 26 2 26 2 25 5 24 5 22-2-7 6 20 8 16 11 15 11 13 12 13 12 10 13 10 13 7 13 7-8-3 15 5 14 4 15 1 14 0 14-2-9 1 13-3 14-3 12-5-8 4 12-6-8 4 12-7 10-8-7 6 9-9 8-9-6 7 6-9-5 7 6-10 4-10-3 8 3-10 3-11 1-11-1 9 0-12-1-11-2-12-4-12-5-11 4 8-6-11-6-11-7-10-9-8-9-8-10-7-9-5-10-5-9-4-9-3-9-1 9 1-8 0-8 0-8 2 9-2-7 2 8-4-6 3-8 4-8 2-9-1-4-8"/>
<path d="M1673 3564l 0 6-1 5-1 7-1 8-1 7 0 7-1 8-1 9-1 9-2 11-2 12-2 11-3 9-3 11-5 12-4 14"/>
<path d="M1933 3393l 1-4 1-5 2-6 1-5 0-5 0 9 0-5 0-5-1-5-2-5 4 8-3-5-3-4-4-4-4-2 9 2-4 0 8-2-4 1-5 2-5 2-7 3 8-4-9 4-10 6-10 7-12 9 7-5-12 9-13 10-14 11-12 12-13 12 9-9-11 14 5-8-10 15-10 15-8 15 4-8-7 14-6 13-4 13 2-9-3 12-1 10 0 10-2-9 2 8 4 6 6 5 7 3-8-3 8 2 10 1 11-1-9 2 12-4 13-5-9 4 13-7 13-7-8 5 13-9 12-9 11-10-6 6 11-12 10-11 11-13-6 7 11-13 10-13 11-14 10-15 10-16-5 8 10-17 10-18 10-19 10-20 8-20-3 8 8-19 7-19 6-21 6-21 6-24 6-27 6-26 5-26 4-23-1 7 2-22 1-21 0-21-1-21-2-21-2-20-2-18-2-16-2-13-1-11-2-8-3-6 4 8-3-3 17 0-4 1 24-18-4 5 5-7-4 8 4-8-4 9-4 10-3 12 2-9-2 12-3 15-2 16-3 19-2 20-2 19-2 18-1 17-2 19-2 19-2 22-1 22-3 24-2 25-2 25-1 25-2 26-1 26-1 26 0 26 1 25 2 23 3 23 4 21 4 19 6 18-2-7 6 15 7 15 7 13 7 13 8 11 9 9 9 7-8-3 11 2 11 1 12-1 7 3 3 8-3 9"/>
<path d="M2319 3246l-6 1 23-11-3 3 21-33-1 4 1 5-3-8 2 5 2 4 3 9-3 9-4 8-5 7"/>
<path d="M2316 3391l 17 0-5 1-4 2-4 1-3 1-3 1 29-25-1 3-6 7-9 10"/>
<path d="M3152 3033l-8 3 6-3-8 4 5-4 7-4 7-5 8-4 9-4 9-3 10-3 12-4 13-4 13-4 12-3 13-3 12-2 13-3 13-3 9-1 13-2 13-1 13 1 12 2 11 3 11 3 7 3 10 4 7 5 6 6 4 8 2 8 2 8-1 8-2 8-3 8-5 8-5 9-6 10-5 7-8 10-8 10-8 8-9 10-8 8-9 8-10 9-10 9-11 10-11 9-10 9-10 9-9 8-9 8-8 8-8 7-7 6 9-9-4 6 5-8-3 6 7-17-1 5 1 4-3-9 3 4 5 2-8-3 7 1 8 1 9-1 10-1-9 1 11-2 9-2 11-2 11-1 12 0 12 1 13 1 12 1 13 3 12 3 12 3 11 4 12 4 7 3 11 4 9 5 9 6 7 6 5 7 4 8 3 10 2 8 2 10-1 9-2 10-2 9-5 9-4 8-6 11-6 7-9 12-12 14-14 15-9 10-15 14-13 11-13 9-7 6-12 8-12 7-12 8-12 8-12 6-10 6-8 4-10 4-8 3-9 2-6 1-5 0-9-2-4-2-4-8"/>
<path d="M3670 3101l-2 8-3 10-3 11-4 13-3 14-4 14 3-9-4 15-2 16-1 17-1 16 0 16 1 16 2 15 4 16-3-9 6 15 9 15 11 16 13 14 14 12 15 8-8-3 16 5 17 3 18-1 19-2 20-3-9 1 19-4 18-6-8 3 18-7 17-10-8 4 17-12 15-13-6 6 13-14-6 7 10-12 9-13-5 8 9-14 8-15 7-15-4 8 6-15 5-16 3-18 2-20-1 9 0-20-2-18-4-17-6-16 4 8-8-16-9-15-12-14-13-14-15-14-16-15-17-13-18-11-19-7-19-5-20-3 9 1-19-2-18 0-19 3 9-2-18 6 8-3-18 8-18 11-18 11-8 4"/>
<path d="M1731 5598l-3-3-4-8-1-5 0-6-1-6 0-6-1-6-1-6-1-6-2-6-2-6-2-5-2-6 4 8-3-5-3-5-4-5-4-4-4-4-5-3-6-2-7-2 9 1-6-1-7 0-7 2 8-2-7 3 8-4-9 4-8 6 7-5-9 7-10 8-9 9 9-9-9 10 5-7-8 12-8 14 5-8-7 14-7 15-6 15-5 16-4 16 2-9-3 15-2 15-2 14 0 13 2 12 2 11-3-9 3 10 4 8 5 7 5 6 6 4 6 3-8-3 7 1 7 0-9 2 7-2-9 3 7-3-7 4 7-5 8-6-7 5 8-8 9-10-6 7 9-12 9-12 9-12 10-14 9-14 10-15-5 7 9-15 10-17 8-18 8-19-3 8 8-19 7-20 7-20 6-21 5-22 5-22 4-21 4-21 3-21-1 9 1-21 1-20 1-21 0-20-1-20-1-19-1-18-2-17-1-16-2-14-2-12-2-11-2-8-2-8-2-6 4 8-2-4-3-2 18-1-3 1 24-18-2 3 9-15-2 5-2 7 2-9-2 9-1 10-1 12-1 13-1 15-1 15 0 17-1 17-1 17-2 18-1 19-1 18 0 19 0 19 1 19 1 20 2 19 1 18 2 18 3 18 3 17 3 17 4 16 4 15-2-8 4 15 5 15 5 14 5 13 6 13 6 11 6 11 7 11 6 11 7 10 7 10 7 9 7 9 6 8 7 8 6 6 7 7 2 8-2 9-4 8"/>
<path d="M1762 7172l-1 9 0-6-1-7-1-7-2-8-1-7-2-6-2-6-3-5 4 8-3-6-4-6-4-6-5-4-5-3-6-2-7-3-8-1 9 1-8-1-9-1-9 1-10 1 9-2-9 3-10 3 8-4-10 6-9 6 7-5-10 9 9-10-9 11 6-7-9 12-9 13-8 15 5-8-8 16-7 16-7 18-5 17-5 18 2-9-4 18-2 17-2 17-1 16 1 16 2 14 4 14-3-9 5 12 6 10 7 8 8 6 9 3-8-3 9 2 10 0 10-2-9 2 11-4-9 4 12-6 11-7-8 5 12-8 12-10-6 6 12-12 11-13-6 7 12-14 11-15 11-15 10-17-5 7 10-18 10-20 9-20-3 8 9-21 8-21 7-20 5-20 5-20 3-21 3-20-1 9 1-20 1-19 0-20 0-18-1-19-1-18-1-18-3-18-3-19-3-18-4-17-4-17-4-15-4-13-3-11-4-10-3-8 4 8-3-6-3-5-3-2-2-1 33-9-3 2 15-17-3 5 4-8-2 6 3-8-2 9-1 11-1 12 0 15 0 15 1 16 1 17 1 18 1 18 2 19 2 20 3 21 3 22 3 21 4 22 3 22 4 21 5 21 6 21 5 21-2-9 6 20 6 18 6 17 7 16 7 15 7 14 8 13 7 12 8 11 8 9 7 8 8 7 8 5 8 4 2 9-2 9-4 8"/>
<path d="M2149 6579l 9-2-5 2 8-4-4 2 7-5-4 3 14-16-3 4 4-8-2 6 2-9-1 8-1 9-1 12 0 13 0 15 0 17 0 20 0 22 0 24 1 25 0 27 0 29 0 29 0 30-1 30 0 31 0 31 0 32 1 34 0 33 1 34 1 33 1 33 2 33 1 31 2 32 2 31 1 30 2 30 2 28 2 28 2 27 2 25 2 24 1 23 1 23 1 21 1 19-2 7-3 6-5 6"/>
<path d="M2326 4802l 1 7 1 8 0 11 2 12 0 15 1 17 1 18 0 20 1 23-1 29-3 35-5 36-3 32-1 28 0 29 1 30 0 33 0 35 0 34 0 36 0 38 0 39 0 40 0 41 0 41 0 41 1 41 0 41 0 40 0 40 0 39 1 37 0 36 0 34 0 32 1 29 0 26 2 23 1 22 2 20 2 19 2 18 4 15 2 13 1 12 0 10 0 9 0 8-1 6-2 8-1 3-4 8-6 7-9 10-7 5-8 4-9 2"/>
<path d="M18006 925l-8-3-8-4-7-4-7-4-7-4-7-4-7-4-8-3-7-3-8-1 8 1-8-1-9 0-10 1-10 2 8-2-11 4-12 4-12 6 8-4-12 7-13 8-15 9-18 10-18 10-21 12-23 12-24 12-25 13-25 14-26 14-25 16-25 17-25 18 5-4-25 19-26 19-27 20-31 23-32 24-35 28-35 30-34 32-32 34 5-5-30 35-26 35 2-3-23 35-21 35-19 35 2-4-16 35-13 35-9 33 1-4-6 33-2 32 1 31 4 30 6 29 8 30-1-5 10 30 11 31 13 33 15 33 17 33 20 33 22 34 24 33 26 32 29 33 30 32 31 31 30 30 30 29 28 26 29 26 29 24 32 23 33 23 36 21 37 20 38 18 36 15-4-2 35 13 34 10 34 9 37 7 38 7 42 5 43 3 44 1 42-1 41-3 41-6-5 1 43-8 45-10 48-13 48-16-5 1 47-20 45-23-4 2 43-27 44-29 44-31 43-32 42-33 39-33-3 3 37-35 33-35-3 3 30-36 28-37 25-37 24-38-2 4 21-38 20-38 17-38-2 4 15-38 12-39 9-38 7-39 4-38-1 4 2-39-1-40-3-40-5-39-7-39-10-39-12-39-14-39-16-38-19-37 2 4-19-36-20-34-22-32-25-30-29-29-33-28-35-27-38-25-39-24-40-21-39-18-39-16-41-13-44-12-44-10-45-8 5 0-44-6-41-4-38-2-36-1-34 0-33 0-31 1-29 2-27 3-23 4-22 4-19 4-6-1"/>
<path d="M3885 5565l-31 15 2-3-14 22 2-6 1-6 1-7 1-6 2-7-1 9 0-7 0-6-1-7-2-5-2-6 4 8-3-4-3-4-4-4-5-3-6-2 9 2-6-1-7 0-8 0-8 1 9-2-9 2-8 4 8-4-9 6-9 6 7-5-9 7-9 9-10 9 9-10-9 10-8 10-9 10 6-7-7 11-7 11 4-8-5 11-5 12-4 12-3 11 2-9-3 10-1 10-1 9 2 7-2-8 3 7 4 5 6 4-8-3 7 3 8 1 9 0-9 1 10-1 10-4 11-4 12-4-9 3 12-5 12-6 11-6 10-5 10-6-8 5 9-6 8-6 7-6 7-6 6-5 6-5-7 6 4-5-6 7 4-5-5 8 3-5 4-7 3-4 6-6 6-6 8-5 2-1 9-3 9-2 8 3 1 3 3 9 1 5 1 5 0 5 1 5 0 6 1 6 1 6 0 6 1 6 1 6 1 5 1 5-3-8 2 5 2 5 2 4 3 4 4 3 5 3-8-4 6 2 6 1"/>
<path d="M4356 5515l-4 0 9 1-4 1-5 0-4 1 9-2-4 1-4 2-5 2 9-4-5 2-4 3 8-6-4 3 9-9-3 3 5-7-3 5-2 5-3 5-3 6 4-8-3 7-3 6 3-8-2 6-1 7-1 6 0 7 1 7 1 6-2-8 2 6 3 5 4 5 5 6 6 6 6 6 7 5 8 4 8 3 8 4-8-4 8 3 8 2 8 1 9 1 8 0 8 0 9-1 8-2-9 2 8-2-8 3 7-3 6-3 7-4-8 5 5-4-6 6 4-4-5 6 3-5-4 8 2-6-3 8 2-5 1-6-1 9 0-6-1-7-2-6-2-7-2-7 3 8-3-6-4-6-4-6-4-5-4-5-4-4-4-2-4-2-4-3-4-2-3-2"/>
<path d="M4598 5503l 2 5 2 6 2 6 2 5 1 5 2 5 2 5 1 5 2 5 2 4 2 5 3 6 2 5 1 6 3 8 1 5 1 5 0 5 0 5-1 5-1 5-2 9-1 5-3 4-4 8-3 4-5 7-9 10-7 5-3 2-8 4-9 2-9-2-4-1-3-2-2-5-4-7-2-5 0-6 0-6 0-7 1-9 1-7 2-7 3-7 2-7 4-8 3-7 3-7 3-7 4-7 4-7 4-8 5-8 5-8 6-8 6-6 6-8 7-6 7-7 7-6 7-6 8-6 7-6 8-5 9-5 7-5 9-4 9-4 8-3 9-4 9-2 10-3 9-2 9-1 10-1 9-2 9-1"/>
<path d="M5221 5183l 3 4 4 4 4 5 4 6 4 8 5 8 6 7 5 9 5 10 6 11 6 12 6 12 7 12 7 13 7 14 7 14 8 14 8 14 9 15 9 15 10 15 10 14 10 14 11 14 10 14 10 13 9 13 9 13 9 12 9 12 9 10 8 10 7 8 6 8 7 7"/>
<path d="M5467 5249l 9 1-4 1 8-1-4 1-4 2-5 2-5 2 8-4-5 3-4 3 7-5-5 4-6 4-7 6-8 6 9-9-7 8-8 10-8 11-10 13-9 12-11 14-11 15 5-7-12 17-13 18-13 19-13 19-13 20-13 21-13 22-14 23-15 23-17 23-16 22-5 6-17 22-18 22-7 7-6 5"/>
<path d="M4538 7049l-7 3 8-4-6 4 7-5-6 5-7 6-6 6-6 6 9-9-5 6 5-7-4 7 4-8-3 7-3 7 3-9-2 8-1 7 1 7 2 8-2-8 2 7 4 6 4 5 4 5 5 4 6 3-8-3 7 2 6 1 7 0 6 0 6-1-9 1 7-2-9 3 6-3-8 5 6-4 5-4-7 6 5-4-6 7 3-5-4 8 3-6 2-6-3 8 2-5 2-5 1-4 0-5-1 9 1-6-1-5 0-5-1-5-1-4-2-4 4 8-2-4-2-3-3-3-2-3-4-2-3-3-4-2-4-8"/>
<path d="M4724 7001l 3 5 2 5 2 8 1 5-2-9 2 5 2 5 2 6 2 4 1 5 2 4 1 5 3 8 1 5 1 6 1 6 0 5 0 3-2 9-4 8-5 7-9 10-8 5-8 4-8 2-9-2-4-8-1-2-1-6 0-7 1-8 1-9 1-9 2-8 3-8 3-9 4-8 4-9 5-8 5-8 4-8 5-7 4-6 4-4 5-7 4-4 6-6 4-3 5-4 6-4 6-4 7-4 7-3 8-3 8-3 10-2"/>
<path d="M5264 6773l 5-4 8-5 5-3 8-3 6-2 6-2 7-2 9-2 8-1 10-1 10 0 9 1 7 2 9 2 7 3 9 4 9 5 10 8 10 11 10 11 7 10 7 10 8 12 9 14 10 17 10 16 9 12 9 13 10 14 11 13 10 11 9 11 12 13 12 13 11 13 10 11 8 8 8 7 9 8 9 6 7 4-8-3 6 3 6 0 6 0-9 2 6-2-8 3 6-2"/>
<path d="M5593 6775l 7-5-4 4-5 5-7 6-8 8-8 9-10 9-9 10 9-9-10 11-10 12-9 11-9 10-10 10-10 12-12 15-16 19-18 20-18 20-16 19-12 17-12 17 5-7-13 18-12 19-13 19-13 19-5 8-9 9"/>
<path d="M3709 7196l 6-1-9 1 7-2-9 3 7-3-8 5 7-6-7 6 8-7 9-9 9-11-5 7 9-12 8-14-4 8 8-16 9-17 10-19 10-20 12-22 13-24 16-27 16-28 16-29 14-28-3 6 12-29 11-29 9-28 9-29 7-27 6-28 5-26 3-25 3-24-1 5 1-22 1-21 0-19-1-18-2-15-3-12-2-11-3-8-2-7 4 8-3-4-4-2 18 0-4 1 15-9-4 4 9-10-4 7 5-8-5 9 4-8-5 12-6 13-6 16-7 17-7 20-7 23-7 24 3-9-7 27-8 28-7 30-7 31-6 31-5 31-4 32-4 33-3 32-1 33 0 31 3 31 4 29 5 26 6 25 7 23-2-5 8 21 9 18 10 15 10 11 10 10 9 8 8 7 8 4-8-3 7 3 8 1 7-1-9 2 7-3-8 3 8-5-8 5 7-6-7 6 7-7-6 6 6-8-5 7 5-10-4 8 4-12 4-12 2-12 2-12-1 9 0-13 0-13-2-12-2-13-4-11-4-12-5-12 4 8-6-11-7-12-7-12-7-12-8-11-7-11-7-9-7-8-7-5-6-4-6-3-6-1 9 1-5 0-6 1 9-2-5 3 8-4-4 3 7-5-4 4 15-17-4 5-2 5 4-8-2 5-2 6 3-9-1 6 1 5 1 6-2-9 2 5 3 4 4 4 5 3 6 2-8-3 6 1 7 1 8-1-9 2 8-2 10-3 10-3 14-5-9 3 18-8 24-12 27-13 7-3 9-1 7 3"/>
<path d="M6021 5244l-8 3 5-3 6-3 8-3 7-2 9-1 9-1 9 0-9 1 8-2 9-2 9-1 10-1 11-1 11-1 12-1 13 0 12 0 13 1 12 1 11 0 11 1 10 2 8 3 8 4 7 3"/>
<path d="M5970 5430l 2-5 5-8 2-4 6-7 4-4 7-6 5-3 8-5 6-3 8-3 8-4 8-4 9-3 10-3 10-4 13-2 14-5 15-5 17-6 18-5 19-5 21-4 20-5 18-4 16-3 17-4 9-1"/>
<path d="M7106 5365l-12 12 3-4-5 7 3-6 3-6 3-7-4 8 3-6 2-7 2-7 2-7 1-7 1-7-1 9 0-7-1-7-2-7 4 8-3-6-4-5-6-5-6-4-8-4-8-3-10-3 9 1-10-1-11 1-11 1-12 2 9-1-13 3-12 5 8-4-13 6-12 8-13 9 8-5-13 9-12 11-11 11 9-9-11 12-9 12 6-8-8 12-7 11-7 13 5-8-7 14-6 14-6 15-6 15-4 16 2-9-4 15-2 14-2 14 0 13 0 12 2 11-2-9 2 10 4 8 4 7 5 6 6 5 7 5 8 3-8-3 8 1 9 0-9 1 8-2 9-3-9 3 10-4 11-6-8 5 11-7 13-9 12-11-7 5 13-12 14-15 14-16-5 7 16-20 18-22 19-24 18-23 15-22-4 6 13-21 11-19 10-20 8-19-3 7 7-19 5-19 5-20 4-21 4-21 2-21-1 8 2-22 1-21 1-23 1-23 0-22 0-22-1-22 0-20-2-20-1-19-1-17-2-17-1-15-2-15-1-13-2-13-2-10-2-9-3-8-2-6 4 8-3-5-3-2 25-4-4 2 22-22-4 6 4-8-3 7 3-9-2 9-2 10 0 11-1 13-1 14-1 16 0 17-1 17-1 18-1 19-1 21 0 23-1 23-1 25 0 24-1 25-1 26 0 25-1 25 1 23 1 23 1 23 2 21 2 20 2 17 3 16 2 14 4 15 4 15-2-9 5 15 5 14 6 13 6 11 7 11 6 10 7 9 7 7 7 6 7 5 8 3-8-3 8 3 8 1 9-1 10-1 10-2-9 2 10-2 10-2 7 3 3 9"/>
<path d="M7522 5264l"/>
<path d="M7839 5295l 4-6 4-7 4-7-5 8 4-7 4-8 4-7-4 9 3-8 2-8 1-8-1 8 1-8-1-7 0-6-1-6-2-6 4 8-3-6-5-5-6-4-8-3-8-2-9-2 9 1-9-1-10 1-12 1-12 2 9-1-13 3-14 6 8-4-13 7-13 8-13 9-13 9 7-5-13 10-12 12 9-9-13 14-12 16 6-8-12 17-10 16-10 17 4-8-8 17-6 15-5 13-4 14 2-8-3 14-3 15-2 15-1 14 0 13 2 12 2 11-2-9 4 10 5 9 5 7 7 5 7 4-8-3 9 2 10 1 11-1-9 1 12-2 13-4-9 3 14-5 13-7 15-8-8 5 15-9 14-10 15-11 15-12-7 6 15-14 16-15 15-16 13-14-5 7 10-13 8-11 7-10-5 8 5-9 3-7-3 8 2-7 2-7-1 9 0-6 4 8-2-4 8 2-4-1 8-2-5 2 8-4-6 4 7-5-5 4-5 5 9-9-4 4-4 6 5-8-4 6-4 7-4 7 5-8-4 7-3 7-3 6-3 8-2 7-2 9 2-9-2 9-1 9-2 9-1 9 0 8-1 9 1 8 0 8 2 8-2-8 2 7 3 7 4 7 5 7 6 5 6 5 6 5 6 6"/>
<path d="M8049 5543l-2 5-1 4-2 5-2 4-2 6 2-9-1 6-1 5 0 5 0 6 0 5 0 6 1 6 2 5-2-8 2 6 3 5 3 5 4 4 4 3 5 4 4 2 6 3-8-3 6 1 6 2 6 1 7 0 6-1 7-1-9 2 8-2 7-3-8 4 7-3 7-4-8 4 7-4 6-4 6-5-7 5 6-5-6 7 5-6 5-6 6-7 4-6-5 7 4-6-5 8 3-6-4 8 2-6 1-7-1 9 0-6-1-7-2-6-2-7-3-6 3 8-3-7-5-7-5-5-6-5-6-3-7-4-7-3-7-2 8 2-7-1-7 1-7 1 9-2-7 2-6 3 8-4-7 4"/>
<path d="M6175 6745l-9 1 7-2-9 3 5-3 9-3 5-2 5-2-9 3 5-2 6-3 8-3 7-2 7-3 8-2-9 3 8-3 7-4 9-3 8-3 9-3 8-4-8 3 8-3 9-3 9-3 10-2 8-2 9-1 8-1 7 0 6 0"/>
<path d="M6099 6968l-4-1-2-2-4-8 1-9 4-8 4-8 6-7 7-6 4-2 8-5 8-3 7-2 9-1 8-1 9 0 9 0 9-1 9-1 10-1 10 0 11 0 10-1-9 1"/>
<path d="M6916 6881l-1-4-2-4-1-5-2-4 3 8-2-4-2-4-3-3-3-3-3-2-4-1 9 1-5-1-5 1-6 1 9-2-6 2 8-4-8 5-8 6 7-5-9 8-11 9-11 11 9-9-12 13-12 14-14 16-14 18 6-7-14 19-13 20-12 22 4-8-11 21-10 22-8 21-7 21 2-8-4 20-3 20-1 19 0 18 2 17 4 15-3-8 5 13 5 12 7 10 8 8 10 6-8-3 11 4 12 1 13 0-9 1 14-2 14-5-8 3 14-7-8 5 15-11-7 6 13-13 13-15-6 7 13-16 13-18 13-19-5 7 12-20 13-21 12-22 12-22 12-23 12-22 11-23 11-23-4 7 10-23 9-23 7-24 7-26 5-26 4-26 3-27-1 8 3-28 1-27 1-28 1-27-1-27-1-27-2-27-2-27-3-27-4-25-3-24-4-21-4-20-5-16-5-15-4-12-4-10-3-9-2-7 4 8-3-4-2-2 25-4-3 1 17-14-4 4 10-15-4 7-3 10-4 12 3-9-3 15-4 17-3 19-3 22-3 24-3 26-4 28-3 29-3 30-3 32-3 32-2 33-3 33-1 32 0 32 1 31 2 31 1 30 2 30 2 30 1 29 3 27 3 26 4 25 4 23 5 22 6 20-2-6 6 19 6 17 7 16 7 14 7 13 7 12 6 11 7 9 6 8 7 8 2 8-2 9-4 8"/>
<path d="M7407 6848l 6-7 6-5 7-5 9-3 8-1"/>
<path d="M7576 7062l 5-1 6-1-9 1 7-2-9 4 7-4-8 5 9-5 8-7-6 6 9-9 11-12 13-12 13-14 15-16 15-16 17-17 17-19 18-20-6 7 19-22 19-23 19-24 18-24 17-24 16-24-4 5 15-25 12-24-2 5 10-25 9-23 8-23 6-22 5-22 4-22 2-20 0 6 0-19-1-19-2-18-3-18-3-16-2-16-3-13-3-12-3-10-4-8 4 8-4-7-4-4-4-3 9 2-5 0 9-2-5 2 8-4-6 4 8-5-6 6 14-17-7 10-7 12-7 15 4-8-9 17-9 19-9 21-10 23-11 25-11 27-13 30-13 33-12 34-11 36 1-5-9 36-7 35-6 35-4 34-4 34-2 32-2 31 1 30 2 28 5 25 6 24-2-5 7 22 9 19 10 16 12 13 13 10 12 9 13 6 12 6-8-3 11 4 12 1 11 0 11-2-9 2 10-3-8 3 9-4-8 4 8-5-7 6 7-7 6-6-6 7 5-8-5 8 5-8 3-8-3 8 3-9 1-8 1-9-1 9 0-7 0-8-2-7-3-8-3-8 4 8-4-8-5-7-6-8-6-7-7-6-7-7-7-5-7-6-7-5-6-4-5-3-6-2 9 2-4-1 8-2-3 1 24-18-2 2 9-15-1 5 2-9 0 5 1 6 1 7-2 9-5 8"/>
<path d="M8043 7213l-3 4-3 4 5-8-3 5 5-9-3 6-2 5-2 6 3-9-1 6 0 5 0 5 1 7 1 6 2 7-2-8 2 6 2 6 4 5 4 4 4 3 5 2 5 2-8-3 5 1 6 0 6 0 5 0 5 0-9 1 6-1 5-2-8 3 5-3-7 5 5-4 4-3-6 6 4-5-6 7 3-5-5 8 2-6-3 9 2-5 0-5-1 9 0-5 0-5-2-6-2-5 4 8-3-5-3-5-3-5-4-5-3-5-4-4-4-4-4-5-4-4-4-4-4-4-5-2-4-2-4-1-4-8"/>
<path d="M9124 1913l-2-5 1-8 1-6 3-8 3-6-5 17 0-3 12 10-5-1-7 1 8-2-9 2-10 3-10 5 8-4-12 6 8-5-12 9-12 10-13 12-14 13-13 14 9-9-12 13-11 13-10 12-10 11-8 11 5-7-7 11-7 11 4-8-5 11-4 10-2 9 2-9-1 8 1 6-2-8 2 4 5 2-8-3 6 0 8-1-9 2 10-3 10-4-9 4 9-4 8-5-7 5 8-6 8-5 9-7 8-6 9-7 8-8 9-7 8-6 8-6 8-5 8-5 8-5 7-6 6-4 5-3 8-5 8-3 9-2 4 0 8 3 4 2 3 5 4 6 2 9 3 8 2 10 3 11 1 13 2 13 2 13 2 13 2 14 2 14 3 15 3 16 4 17 3 17 4 18 4 18 4 19 4 19 4 21 3 23 2 23 1 20 1 18 1 17 0 17-2 19-2 20-4 21-5 21-2 9-6 21-7 20-8 20-9 18-4 8-9 18-10 17-9 15-6 7-9 13-10 12-9 10-9 10-9 8-8 5-9 6-8 4-9 4-8 3-9 1-7 2-8 0-9-2-7-3-7-6-7-10-7-11-3-8-5-11-3-11-1-13-1-15-1-16 1-18 1-20 1-9 3-22 5-24 7-28 10-32 12-32 10-27 9-25 3-5 2-4 4-4"/>
<path d="M9568 1895l 6-2-9 2 7-2 10-3 10-4 9-2 9-1 9-1 9-1 10-2-9 2 12-2"/>
<path d="M9598 2009l 6 2-8-3 6 0 7 0 8 1 10 1 10 0"/>
<path d="M10049 1935l-5-4-6-4-6-3-7-3-7-3-8-2-9-3-9-2 9 2-10-2-11-1-11 1-11 1-12 3 9-2-12 3-12 5-12 5 8-4-11 7-11 7-10 7 7-5-10 8-10 9-9 10 9-10-8 10-8 9 6-7-6 9 4-8-4 9-2 9 2-8-1 8 1 9-2-9 2 8 4 6 6 4 8 3-8-3 8 2 9 1 10 0 10-2-9 2 10-2 11-3 11-3 13-5-8 4 15-7 15-6 13-6 9-4 9-4 7-2 6-2 9-2 6 0 5 2 8 3 4 4 4 5 3 8 3 9 2 9 2 10 2 10 2 10 1 11 2 11 2 13 3 15 3 16 2 16 2 15 3 15 2 15 1 15 2 15 2 15 1 16 1 17 0 16-1 17-2 17-3 18-3 18-3 9-5 18-5 19-7 19-7 19-9 18-8 18-5 8-9 18-10 16-10 16-5 7-10 14-11 12-10 12-9 9-10 10-10 9-7 5-10 7-10 5-8 4-8 4-9 3-9 2-8 1-7-1-9-1-7-4-6-5-5-9-4-8-4-12-4-14-2-16-1-16 0-17 1-9 3-19 4-21 6-25 9-27 9-29"/>
<path d="M10298 1964l-6 0-6 1-4 1-6 1 9-2-5 2-6 2-5 2-5 2-6 2 8-3-6 3 8-5-6 4-6 6-6 5 9-9-6 7-5 7 5-7-6 8-4 9 4-8-4 9-3 9-4 8-2 9 2-8-2 8-1 8 0 7 2 6-3-8 3 6 3 6 4 5 6 5 7 3-8-3 8 2 10 2 10 1 7 3 3 9"/>
<path d="M10574 1930l-5-1-5-1 9 1-5 0-7-1-7 0-7 1-7 1 9-2-7 2-7 3-8 4-8 4 8-4-10 4-9 6 7-5-10 8-11 9-11 12 9-10-12 14-11 13 6-7-10 13-8 13-7 11-5 10 5-8-4 7-2 8 2-9 0 7 0 7 0 6 2 6-2-9 2 6 4 4 5 4-8-3 6 2 7 0 8 0 9-2-9 2 10-3 10-4-8 4 11-6-8 4 11-7 11-9-6 6 11-10 11-12 10-12-5 7 10-13 10-15 9-15 10-14 9-16-4 8 9-17 10-18 10-22-4 9 11-25 10-26 8-24 5-20 3-18 2-17 1-18 2-20-1 9 1-21 1-22 0-23 1-27 1-34 1-38 1-38 0-33-3-26-5-18 3 5-6-11-6-8-5-5-4-5-5-2 18 0-6 2 16-9-6 5 9-9-6 8 5-8-5 10 4-8-4 11-4 13 2-9-3 14-2 18-3 21-3 22-3 21-2 20-3 21-2 23-3 25-3 25-3 26-2 27-2 27-2 28-2 27-1 28 0 28 1 27 2 26 3 24 4 22 4 20 6 19-2-7 6 17 7 16 8 15 9 13 11 13 12 12 13 12 3 8-3 9"/>
<path d="M11293 1390l 8-4-7 5 7-5-6 6-8 8-9 9 9-9-9 11-10 13 5-8-10 15-10 16-9 15-10 17-11 19-12 22-13 25-16 29-19 33-20 35-17 33 2-4-14 32-13 34-13 37-10 37 1-5-8 34-7 31-5 29-3 27-1 28-1 31 1 27 5 19-2-6 7 12 7 12 6 14 7 15 7 15 10 13 11 13 13 12 14 11 15 10 3 9-2 9-5 8-5 7-9 9-7 6-8 4-9 1-9-1-15-11"/>
<path d="M11508 1960l-5-3-6-4-8-4-8-5-9-4-9-3-10-3-10-2 9 2-10-1-11 1-11 2 9-2-11 3-11 4-12 5 8-4-11 5-10 7 7-5-9 7-9 8-8 8-8 7 9-9-6 7-6 7 6-7-5 7 5-8-3 7 2-9-2 6 1 6-3-9 3 4 6 2-8-3 7 1 8 0 8-1 9-2-9 2 10-2 10-3-8 3 11-5 14-7 12-6 10-4 9-3 8-4-8 4 8-4-8 5 7-5 6-4 5-4 8-4 5-3 8-3 9-1 4-1 8 3 2 3 2 4 2 8 1 6 1 5 0 6 1 6 1 6 1 7 1 7 2 7-2-8 2 6 3 7 4 6 4 5 4 6 6 5 6 5 7 4 6 3-8-3 7 2 7 2 7 1 7 2 8 2 8 2 8 3"/>
<path d="M11674 2063l 5 2 4 2 4 4 3 5 3 6 2 9 1 6 1 6 0 7-1 7-1 7-2 8-2 8-2 8-3 9-4 9-5 8-4 8-4 8-5 8-4 8-5 7-5 8-6 7-6 6-9 9-6 6-6 6"/>
<path d="M11824 2056l 6-4-8 5 7-5 9-7-6 6 11-10 11-11 11-13-6 7 12-14 12-16 14-18 15-19 16-20 17-21 20-25 21-27 22-26 18-25-3 4 15-22 11-22 10-20-2 5 8-21 6-20 6-20 3-20 3-17-1 7 1-15-1-15 0-15 0-15 0-14 1-13 0-11-1-10-3-8 4 8-5-6-5-4-5-1 18-1-5 2 8-4-7 4 8-5-7 5-8 8 9-10-8 9-9 12 5-8-10 14-10 15-10 17-12 18-11 19-10 21 4-8-10 21-9 22-9 23-8 23-7 22-6 23 2-9-5 22-3 22-1 20 0 19 1 19 3 17 5 16-3-9 5 14 6 12 6 11 8 9 8 8 10 7 9 7 10 5 10 4-8-3 9 3 10 2 10 2 9-1 9-1 10-1-9 1 9-2 9-2-8 3 8-4 8-5-7 5 7-5-7 5 7-6-6 7 5-7-5 8 5-8-4 9 3-9 2-9-1 8 0-8-1-7-3-7 4 8-4-6-4-6-5-6-6-6-6-5-6-4-6-4-7-3-6-3-6-3-6-2-5-1-5-1 9 2-4-1-4 0-4 0-9-2"/>
<path d="M12285 1378l 8 6 7 7 7 9 6 9 6 11 5 12 5 13 6 13 6 14 6 15 6 16 8 16 8 17 8 17 9 17 9 17 9 17 9 16 10 17 11 18 11 18 12 18 10 18 9 17 9 17 7 16 6 16 4 15 3 8 4 16 4 17 3 18 2 18 1 17-1 18-2 18-3 18-2 9-5 17-7 17-4 8-9 17-11 16-5 7-12 16-14 15-9 9-14 15-14 14-14 14-15 14-14 13-15 12-13 11-13 10-12 10-8 6-8 4"/>
<path d="M12722 1699l 8-3 7-2 9-1 7-1 9 0 10 0 11 0 11 0 12 1 14 1 13 1 15 1 13 0 14 0"/>
<path d="M12750 1774l 6-1 11-2 12-1 14 0 14-1 16-1 7 3 3 9-3 9-4 8-5 7"/>
<path d="M13318 1507l 8-3 7-3 8-1 8-1 8 0 7 2 7 3 7 3 7 3 6 4 6 5 6 4 5 5 5 4 5 5 5 4 4 5 3 6 2 6 2 9 1 7 0 7-2 7-2 9-2 7-3 6-5 8-3 6-4 7-5 7-5 6-9 9-5 5-5 4-4 5 9-10-4 5 10-15-3 5 3-9-1 6 2 6-3-8 4 6 5 5 6 4 7 4 6 4 7 3 7 4 8 4 7 4 7 5 8 4 7 4 8 3 7 4 6 5 6 5 5 6 5 5 4 5 4 5 3 6 2 8 0 7-2 9-2 8-4 7-4 8-5 7-5 7-9 9-6 6-8 6-8 7-8 5-8 6-9 6-10 6-9 5-9 6-8 5-6 4-6 3-5 3-8 4-9 2-9-1"/>
<path d="M13766 1566l-2 5-3 6-4 8-4 7 5-8-4 9-5 9-5 11-5 12-6 14-5 16-4 16 2-9-3 15-2 15-2 14 0 14 1 13 2 12-2-8 4 11 5 10 8 8 9 8 11 7 13 5-8-3 14 4 13 2 14 1 13 0 14-2-9 2 12-3 13-4-9 3 12-5 11-6-8 4 11-6 9-7 10-8-7 6 9-10-6 7 10-12 9-13-5 7 8-12 5-11-3 8 4-10 3-11 3-12 1-12-1 9 0-13-1-13-3-15-3-14-5-14-5-12 4 8-7-11-8-10-8-9-10-7-11-6-13-4-14-3 9 2-15-1-16 0-18 0"/>
<path d="M14802 1866l 4 6 4 6 4 4 4 5 4 4 5 4 5 3 6 3-8-3 6 1 8 0 8-2-9 2 10-3 10-4-8 4 12-6 14-8-8 5 17-11 20-15 23-17 23-18 23-18 23-18 24-19 23-19 23-20-5 4 21-20 19-22-4 4 17-22-3 5 14-23 11-23 10-22-3 5 7-22 6-22 4-23 3-22-1 7 1-20 0-18-2-15-2-12-3-11-2-9-4-8 4 8-4-5-6-3 9 2-8 0-9 2 9-2-11 4-12 5 8-4-13 8-15 8-15 10 8-5-16 12-15 15 9-10-15 17-15 18 6-7-14 20-13 20-13 22 4-8-11 22-10 23-9 22-8 21-7 22 3-8-5 21-4 20-2 20 0 18 1 15 2 14 2 13 2 14 3 12-2-8 3 12 5 12 5 10 5 9 7 8 7 7 8 5 9 4-8-3 9 3 9 1 10 0 10-2-9 1 10-2 10-4-9 3 10-4 9-4-8 4 8-5 7-7-7 6 6-6-6 7 5-8-5 8 4-8-3 8 3-8 3-9 1-9-1 9 1-8-1-7-2-7-2-6 4 8-3-5-3-4-3-3-4-3-4-2-3-2"/>
<path d="M15348 1724l 0 6 0 7 0 7-1 8 0 7 0 7 0 8 0 8 0 8 0 8-1 7 0 6-1 6 0 6 1 5-3 9-4 8"/>
<path d="M15477 1472l 1-7 2-8 1-7 2-6 2-5 3-8 5-8"/>
<path d="M15878 1274l-1 8-2 10-2 10-2 10-3 9-2 10-3 9-3 11-4 12-3 12-3 13-5 14-5 14-6 15-6 15-5 18-6 20-6 20-6 22-6 21-7 22-8 23-7 24-9 23-8 21-7 21-6 20-6 19-4 19 2-9-3 17-2 14 0 13 2 10-2-8 3 10 4 10 5 9 7 8 8 8 10 5-8-3 10 4 11 2 12 0 12-1-10 1 12-2 13-4-8 3 14-6-8 5 13-8-7 6 11-11-6 7 11-13 9-13"/>
<path d="M15680 1610l 9 1-7 0-6 1-6 1-4 0 35-56 5-1 9 0 12-1 14-1 16-2 18-3 20-2 21-2 21-1 8 3 2 8-2 9-4 8"/>
<path d="M16077 1609l-6 4-6 5-8 4-8 5-8 6-8 5-7 4-8 5 8-5-7 5 9-9-5 5 6-7-4 7 4-8-3 6 3-9-1 6-3-9 2 6 4 5 6 4 7 4 9 5 9 3-7-3 10 3 13 3 14 4 13 4 13 3 13 4 13 3 12 3 11 4 10 4 8 3 9 4 8 3 7 4 6 4 5 4 5 6 2 7 2 8 0 8-2 9-2 8-4 8-5 6-5 8-9 9-6 7-8 5-8 6-11 6-8 3-12 5-13 6-17 5-18 6-20 6-18 5-15 4-8 2-14 3-14 2-14 3-14 2-13 2-12 1-12 1-12 0-12-1-9-2-13-3-11-5-9-6-8-6-6-7-4-8"/>
<path d="M9151 3675l 3-8 3-6 2-5-3 8 1-6 2-7 2-9 1-9 1-10-1 9 0-9 0-10-1-8-1-8-1-9-2-8-1-8-2-8-3-7 4 8-4-8-5-7-6-6-6-5-6-4-8-3-10-2 9 1-11-1-12 0-13 0-15 3 9-2-15 3-16 5-16 6-17 8 8-4-17 9-16 12 7-6-15 13-14 14 9-9-13 15-12 16 5-7-11 16-9 18 4-8-9 18-7 18-5 16 2-9-3 16-2 14-1 14 1 12 2 10-3-8 3 9 5 7 7 6 8 4-8-3 9 2 11 1 11-1-9 2 11-2 12-4-8 3 14-6 16-8 16-8-8 4 13-8 11-9 12-8 11-8 11-9 11-10 10-8 11-8 10-7 9-7 7-7-6 6 6-6 6-6 5-6 4-5-6 7 5-5 3-4 6-7 6-6 2-1 8-5 9-3 9-2 8 3 2 9 0 2 0 6-2 6-1 6 0 7-1 7 0 7-1 9-1 8 0 8 0 8 0 10 0 9 0 8 1 7 0 7 1 6-2-8 2 6 3 6 4 6 5 5 5 5 8 5 9 5"/>
<path d="M9479 3562l-3 1 8-3-3 1 7-5-4 3 9-9-3 5 9-16-2 5 3-9-1 6 1 5-3-9 2 5 2 5 3 4 2 8-2 9"/>
<path d="M9888 3583l 2-5-4 8 2-6 3-6 2-6 4-8 2-7-3 9 3-7 3-8 3-8 4-7 3-8-3 8 3-8 3-9 4-10 3-10 3-11 1-11-1 9 1-10 0-10 0-9-1-8-3-8-3-7 4 8-3-8-5-6-4-6-6-4-6-4-7-3-7-1 9 2-9-1-9 1-11 3 8-2-12 4-13 5-15 6-17 8 8-4-16 8-16 11 7-5-14 11-12 12-12 12 9-9-12 13-13 15-12 16 5-7-12 17-12 17-11 17-10 17 4-8-9 17-7 18-5 18 2-9-4 16-2 16-2 14 0 13 0 12 1 11 2 10-2-8 3 8 4 8 5 6 7 4-8-3 7 3 9 0 10 0-9 1 11-2 12-3 10-4-8 3 10-4 10-6 10-6-8 5 11-6 11-8 11-9 11-9 11-9 10-9 11-8 10-9-7 6 10-10-6 7 9-12 10-12 8-12 6-10-5 8 5-9 4-7 4-8 4-7 3-6 2-5-4 8 1-2 35 7-1 2 14-17-2 4 4-8-3 6-2 7-2 8-2 6-2 6 3-9-2 7-1 6-2 6-2 9-1 6-2 6-2 6 3-9-2 6-1 7-1 8 0 8-1 8 0 8 0 7 1 7 0 6 1 6 2 6-2-8 2 5 2 6 3 5 3 4 4 5 4 5"/>
<path d="M10158 3743l-1 4-1 5-2 5-1 6 2-9-1 6-1 7-1 8-2 8-2 9-2 8-3 8-2 9-3 10-3 11 3-9"/>
<path d="M10541 3390l 8-3 9-2 7-1 9 1 9 1 9-1 9-1 12-2 14-1 13-2-9 1 13-3 12-3 13-4 14-5 9-2"/>
<path d="M10676 3312l-4 5 14-17-3 6 4-8-3 8-3 8-4 9-4 9-3 9-2 10 2-9-2 10-3 11-2 11-2 11-1 12-1 11 0 11-1 14-1 14 0 12-1 12 0 13 0 12 0 12-2 9-5 8"/>
<path d="M10999 3593l-2-8 2 4 4 2-8-3 6 1 8 0 8-2-9 2 11-2 12-4 14-6-9 4 16-7 17-9 19-9 20-12-8 5 21-14 24-16 26-20 28-21 26-22-5 3 25-23 22-23 21-24 20-23-3 3 19-23 17-22 17-23 15-24-3 5 14-26 12-27-2 5 11-27 10-28 8-27 6-27 3-26 0 5 1-24 0-24-2-24-3-23-5-22-6-20-7-16 3 6-9-12-9-10-9-8-9-5-8-4 9 2-8-1 9-2-9 2 8-4-9 5 8-5-11 8-11 10 9-9-11 14 5-8-11 17-11 19-12 22 5-8-12 24-13 28-14 31-15 33-13 34-12 35-11 36-10 37 1-5-9 37-8 34-7 32-5 28-4 30-3 32-2 32 0 27 2 23 5 20-2-5 6 18 7 17 8 17 8 15 10 13 11 11 11 10 12 8 13 7-8-3 13 4 13 2 14 1 16-2-9 1 17-4-9 3 16-7 13-7-8 5 12-8 11-7 11-9 10-9-7 6 10-9-6 7 8-11-5 8 6-11 6-12-4 8 4-11 2-12 1-11-1 9 0-11 0-12-2-12-4-12-4-12-5-13-6-12-5-10 4 8-5-9-5-8-5-5-5-4-6-4-6-2 9 2-6 0-5 1 8-2-5 2 8-4-5 3 8-6-5 4"/>
<path d="M11651 3387l"/>
<path d="M11714 3582l 7-6 3-3 8-5 6-3 8-4 11-5-8 4 12-7 14-9 14-11 16-11 17-14-7 6 19-17 22-20 23-21 22-21 22-19 20-19 19-20 18-19 18-20-4 5 17-20 16-21 15-22-4 5 14-23 13-24 13-24 11-25-3 6 10-25 8-26 6-24 5-23 4-21 2-20-1 7 2-19 0-16-2-15-2-13-3-10-3-10-4-8 4 8-4-6-4-4-6-2 17 0-7 2 8-4-7 4 8-5-8 5-9 7-9 9-11 11 9-9-10 13 5-7-10 16-11 18-12 21-13 23 5-8-14 27-15 30-15 32-14 33-13 33-11 34-10 33 2-5-8 33-6 32-3 31-2 29 0 26 2 23 4 20-1-5 6 14 8 12 7 11 8 12 7 12 8 11 8 10 8 9 9 8 10 7 10 5-8-4 10 3 10 1 11 0 10-1-9 2 11-3 11-4-9 3 11-6 12-6 11-7-8 5 10-7 10-7-7 6 8-9-6 7 7-9 6-8-4 7 5-9 4-8-4 8 3-9 2-10-1 9 0-11-1-11-2-12-3-11-3-9-4-9 3 8-4-7-6-7-6-5-6-4-6-3-7-2-7-1 8 1-6 0-6 1 8-2-5 1 8-4-5 3 22-22-3 5 4-8-2 5 2-8 0 5 0 6-2 9-4 8-6 7-9 9"/>
<path d="M12320 3611l-2 9-2 7-2 8 2-9-2 9-1 8-1 7-1 7-1 8 0 9-1 8-2 7-2 9-2 8-3 7-2 8-2 9-3 9-3 9-4 7-3 7-4 8-4 9-4 8"/>
<path d="M12726 3222l 9-1 10-1 11 0 12-2 14-2 14-2 16-2 15-1 14-1 13-1 11-2"/>
<path d="M12745 3390l-3 1 42-53 3 2 6 3-8-3 6 2 7 0 6-1 7-1 7-1 6 0 7-1 7-1 8-1-9 2 8-2 7-1 7-2 9-1 7-1 7 0 6-1 7-1 7 0 7 1 7 1 7 2 7 0 8 3 2 9-2 9-4 8-6 7"/>
<path d="M13479 3368l 5-7 3-6 4-6 5-6 5-6 4-8 5-7 5-8-5 8 5-8 4-8-4 8 4-10 3-10 3-10 1-9 1-8-1 8 0-8-1-8-2-9-2-7 4 8-4-7-4-6-5-6-7-6-8-5-10-4-10-3-12-3 9 2-12-2-13 0-14 0-14 2 8-2-15 4-15 5-16 6-15 6 8-4-15 8-15 10 8-5-14 12-13 12 9-9-11 12-10 13 6-7-9 12-7 13-6 12 4-8-5 11-3 11 2-9-2 10 0 10 2 8-2-8 3 7 5 6 6 4 8 4-8-4 10 3 11 1 12 0 12-1 13-2 13-2-9 1 14-2 13-4 13-3 12-4 13-5 11-4 12-5-9 4 11-5 9-5 9-5 9-4 8-3 7-3 7-4 6-3 9-3 6-2 9-1 6 0 8 3 5 3 3 6 3 8 2 8 1 10 0 10 0 10-1 11-1 11-1 11-2 11 0 12-1 11 0 14-1 17 0 19 0 20 0 17 1 17 0 17 0 18 0 19 1 20 0 20 0 21 0 21-1 21 0 21-1 22-2 22-2 22-3 22-3 23-5 23-6 23-2 9-7 24-7 22-7 18-7 15-4 8-8 13-8 13-5 7-8 12-10 10-9 10-10 9-11 9-7 5-12 7-8 4-11 5-9 2-9 2-8 1-8-1-8-2-8-2-6-5-6-6-6-9-3-8-4-11-3-13-1-16-1-17 2-21 1-9 4-24 7-28 13-34 15-36 2-6 15-33 15-30 14-28 14-25 12-23 12-22 11-21 10-18 7-14 7-13 5-11 7-11 5-7 6-7 8-11 9-10 11-9 6-6 10-8 9-7 8-4 9-5 8-4 9-3 8-3 9-3 10-2 7 4"/>
<path d="M13967 3458l 3 5 2 8 1 6 1 6 1 7 1 8 0 7 0 6 0 7 0 7-1 8-1 9-2 11-2 9-3 11-5 12"/>
<path d="M14870 3493l-1-5-1-5-1-6-1-6 0-7-1-7-2-7-1-7-2-7-2-8-3-7-2-7-3-6-3-5-2-6-2-6-3-5-3-6 4 7-3-6-4-7-5-7-6-7-8-7-8-5-9-3 9 2-9-2-9 1 9-2-10 2-10 4 8-4-11 7-12 8 7-5-12 10-12 12 9-10-13 14-12 15 6-7-12 16-11 18-11 20 5-8-10 20-10 21-8 21-6 22-6 21 2-8-4 20-3 17-1 16 0 15 2 13 3 12-3-9 5 10 5 7 7 7 9 4-8-3 10 4 11 1 13-2-9 2 14-3 15-4 15-5-8 3 16-8-8 5 17-11 18-14 16-13-7 6 13-12 11-12-6 7 9-12 8-11 8-10 7-10 6-9 6-8-5 7 5-8 3-7 3-7-3 8 2-5 1-5 1-1 54-17-1 2-1 5-2 5 3-8-2 5-1 7-1 6-1 7-1 7 0 8-1 7 0 7 0 8 0 8 0 7 1 9 1 9 2 10 2 9 2 9-3-9 3 8 3 7 4 7 4 6 5 7 5 6 6 6 2 9-2 9-4 8-6 7-9 9"/>
<path d="M15104 3714l 1 4 0 5 0 5 0 6 1 6 1 6 1 7 0 8 0 8 0 8-1 9-1 9-1 9-2 9-2 8-1 8-2 8-2 9"/>
<path d="M15344 3661l-5 7-3 4-9 9-3 4 8-9-3 5 5-8-4 6-3 6-6 7-4 6 6-8-5 6-4 8 4-8-4 8-5 9-4 9-4 8-4 9-5 9"/>
<path d="M15509 3617l 5-2-9 3 5-2-8 4 4-3 5-4 6-5-7 6 6-5 6-7-6 7 7-9 8-10 9-12 9-13 10-13 11-13 11-15 12-16 14-17 14-17 14-18 6-6 14-18 16-17 15-17 15-17-6 6 14-18 14-18-5 7 13-20 11-21 11-22-4 7 10-23 10-26 12-30 11-30 9-29 8-26 6-23 3-20-1 6 1-17 0-15-2-13-1-11-2-8-2-7 4 8-2-5-4-3-5-2 9 2-6 1 8-2-7 3 8-4-7 5-9 6 7-6-9 7-10 9-12 12-13 14 9-10-14 17-15 19 6-7-14 20-12 21-13 22 4-8-12 24-13 26-14 29-13 30-11 31-11 30-8 31 1-6-6 30-4 29-4 27-1 26 0 25 2 22 3 20 4 18-1-6 7 17 10 16 10 15 10 10 10 7 10 5 12 5-7-3 14 4 14 2 12-1 12-1-9 1 11-2 11-3 12-3-9 3 12-5 11-7-7 4 9-7-7 6 7-7 6-6-6 7 5-7-5 7 3-7-3 8 3-8 2-9 2-8-1 9 0-9 0-8-2-9-2-10-2-9-4-10-4-10-4-10 4 8-5-9-5-8-5-8-6-7-5-6-5-5-5-3-4-3-5-1 9 2-4 0 17-6-4 2 21-22-2 5 6-17-1 5 1 6 1 5-3 9-4 8"/>
<path d="M15984 3629l 1 6-1 7 0 7-1 4 0 5 0 5 0 7 0 9 1 7 0 6 0 6 0 7 1 6 1 7-1 6 0 6 0 10-2 9-4 8"/>
<path d="M16353 3267l-6 3 8-4-6 3-5 3-8 4-5 1-4 2 8-4-5 3-5 3-6 4-7 4-6 4-6 4 7-5-5 4-5 5-5 5-4 5-4 3-5 4 9-9-3 4-4 4 6-7-3 4-2 4 6-17 0 5-3-9 3 5 5 4 6 3 6 2-8-3 6 3 7 2 8 2 8 2 8 2 8 1 8 2 8 2 9 3 8 2 9 2 9 1 9 1 10 1 9 2 9 1 9 2 8 2 7 3 8 3 6 2 6 3 5 2 2 8-2 9-4 8"/>
<path d="M17217 3546l-1 8-2 7-2 9-2 6-3 6 3-9-2 8-2 9-2 9-3 8-3 8-3 8-4 10-4 8-6 9-6 10-7 9-6 10"/>
<path d="M17023 3382l 2-6 1-6 2-5 2-6 1-6 1-7-1 9 0-7 0-7-1-7-1-6-2-6-3-7 4 8-3-6-4-5-3-3-5-4-5-4-6-4-7-2-7-2 9 1-8-1-8 0-10 2-11 2 9-2-11 4 8-4-12 7-12 7 7-5-10 8-10 8-10 9-11 10-11 11 9-9-11 12-11 13-13 14-13 15-16 18-15 18-14 17 6-7-11 16-9 14 4-8-6 14-4 12-3 10 3-9-1 9 1 6-2-8 4 5 7 4-8-3 8 3 9 1 9-1-9 2 8-2 9-2 10-4-9 3 12-5 13-7 14-8-7 4 14-9 14-9 14-10 13-10 13-10-7 6 11-10 7-6 10-9 10-8 9-7 9-6 9-7 10-7 10-8 10-9 8-7-6 6 6-7 6-5 5-5 3-4 1-1 7-6 8-4 8-4 9-1 8 3 3 9-3 8-4 8-2 3-3 5-3 6-4 6-4 6-4 7-5 7 5-8-4 8-4 9-3 9-3 9-2 9-3 9-2 9-2 9 2-8-2 8-2 8 0 8 0 6 1 6-2-9"/>
<path d="M17367 3442l 4-4 5-4 7-6 9-6 10-8 11-9 12-10 14-11 15-12-7 6 15-14 16-16 15-17 15-17 15-17-6 6 15-18 14-19 14-19 13-19 13-18 12-18 12-18-4 7 11-19 11-19 10-20 10-19 9-19-4 8 8-19 6-18 6-19 5-19 5-20 3-19 3-19-1 9 2-17-1-16-1-13-3-12-4-9 4 8-6-7-6-3 8 1-8 0-9 2 9-2-11 4 8-4-12 6-14 10 7-5-14 12-15 14 9-9-14 16-14 19 6-7-14 21-13 23 4-8-13 24-12 25-12 26-11 28-10 30-9 30-8 30 1-6-7 30-6 29-4 27-3 25 0 24 2 21 5 18-2-6 7 14 8 13 7 13 7 11 7 11 8 10 9 8 9 7 11 5-8-4 10 4 12 2 11 1 13-1 12-2-9 1 14-3 13-4 12-5-8 3 12-6 12-7-8 5 11-8 11-7 10-8 9-8-7 6 8-7 6-7 6-7-6 7 5-7-5 8 4-8-3 8 2-8 1-8-1 9 1-8-1-7-2-7-3-7 4 8-4-6-4-5-6-5-5-3-1 0 51-52 3 2 7 3-8-3 11 3 13 4 15 3 15 3 15 3 16 2 16 2 17 1 18 0 22 0 26 0 29-1 7 3 2 7-2 8-3 7"/>
<path d="M16693 1894l-1 5-2 8-3 9 2-9-2 10-2 9-4 13-3 13-5 12-5 8-6 13-9 14-5 7-9 9-7 6"/>
<path d="M17493 1745l 0-5-1 9 0-6 0-6-1-7-1-7-2-7 4 8-4-6-5-6-8-4-9-2 9 1-8 0-9 1 8-2-9 4 8-4-10 5-11 6 8-5-12 8-12 11-13 12 9-9-12 14-13 16 6-7-12 17-11 18 5-8-10 20-8 20-8 19-5 19 2-9-3 17-2 16 0 14 2 13-3-8 4 11 5 10 8 8 9 6-8-3 11 4 12 1 15-1-9 1 16-4 16-6-8 4 16-8 16-10-8 5 16-12 14-12-6 6 13-14 13-14-6 7 11-15 12-15 10-17-5 8 10-17 10-16 10-17 8-17-4 8 7-17 6-19 5-19 4-20 4-19 4-19 2-20-1 9 1-21 1-21 1-22 1-23 0-24 0-24 0-23-1-23-1-21-1-21-2-19-1-17-2-15-1-12-2-10-1-7 4 8-2-2 25-5-3 2 22-22-4 6 4-8-3 9-5 11-4 13-5 14-5 15-5 16-5 18-5 18 2-9-4 21-5 21-5 23-4 23-3 24-4 24-4 24-3 24-4 24-3 23-2 23-1 21-1 21-1 20 0 21 0 20 1 19 1 18 2 16 2 15 3 14 3 13-2-8 3 12 4 11 5 11 5 8 5 7 6 4 6 3-8-3 8 1 7 0 8 3 3 9-3 9"/>
<path d="M17871 1175l 2-9-2 10-1 10-2 12-2 13-3 16-2 17-3 20-3 22-2 23-3 24-3 24-2 23-1 24-2 27-3 28-3 31-2 32-2 34-2 34-2 34 0 32 0 31 0 30 0 29 0 30 0 30 0 29 0 28 1 28 0 26 1 24 1 24 0 22 1 21 0 20 0 17-1 14 1 13 1 13 1 12 1 11 1 9 1 7-2 9-4 8"/>
<path d="M18185 1831l 1-7 0-7-1 9 1-8 0-8-1-8 0-8-1-8-2-8-2-8-3-7 4 8-4-6-5-6-5-6-6-4-7-4-7-2 9 1-9-1-9 1-11 3 9-2-12 3-12 5-14 6 8-4-13 7-14 8-13 9 8-6-13 10-11 10 9-9-10 11-9 11 5-7-7 12 4-8-6 12-5 12 3-9-3 12-1 11 1 9 2 9-2-9 3 7 5 6 7 5 8 3-8-3 10 3 10 2 11 1 12 1 11-1 12-1-9 1 12-2 11-3 11-3 10-3 10-4-8 4 9-4 8-4 7-3-8 4 6-4 5-4 5-4-7 6 5-4 4-4-6 7 4-6 5-5 5-7 5-4 7-6 7-5 9-3 4-1 9-2 8 3 3 4 3 8 2 9 2 9 2 10 1 11 0 12 1 12 1 14 1 14 1 15 2 14 2 15 2 15 3 15 3 16 3 17 3 16 3 16 3 16 3 15 3 16 1 17 1 17 0 16 1 16 1 15 0 15 0 13 0 14 0 15-1 15-1 14-2 12-3 9-3 12-4 11-4 10-5 8-5 10-6 8-5 8-6 7-9 9-7 7-7 7-7 5-8 5-8 4-8 4-9 3-8 2-10 2-10 1-11 0-12-1-9-1-12-3-13-6-14-7-14-7-14-9-13-10-13-12-13-15-11-16-11-18-9-19-4-8-8-20"/>
</svg>
