<svg xmlns="http://www.w3.org/2000/svg" viewBox="191 515 3152 2840" stroke="black" stroke-width="36" stroke-linecap="round" stroke-linejoin="round" fill="none" data-xena="0 0"><style>@media(prefers-color-scheme:dark){svg{background-color:black;stroke:white;}}</style>
<path d="M1118 2881l 1-1 28-4 29-4 28-5 27-5 26-6"/>
<path d="M1360 2774l-1 1-11 24-2 28 3 26 5 27 5 30 7 30 6 28 7 25 9 27 7 27"/>
<path d="M479 1515l 0 0 19 16 30 5 27 3 26 2 27 2 30 2 29 2 29 2 27 2 25 3 29 0 27 0 26-1"/>
<path d="M2634 2090l 1-1 25-7 28 0 27 4 33 4 28 3 34 3 25 1 25 1 25-1 33 0 31 0 28 0 24-1 28 0 25 0"/>
<path d="M739 1194l-1-1-5-25 1-25 3-28 3-27 2-32 2-34 1-35 1-34 0-29 0-31-1-25-5 25-5 27-6 28-9 24-14 24-18 19-17-17 6-28 8-25 12-26 12-22 14-22 27 3 23 12 25 13 22 13 23 10"/>
<path d="M1174 827l 1-1 23-11 25-8 24-4 29 0 27 5 22 15 8 25-7 24-15 24-17 24-21 23-20 23-19 20-17 22-12 23 23 13 25-5 27-6 25-4 25-6 26-6 26-5 31-4"/>
<path d="M1929 1285l 0 1 26 9 28 4 25 0 28-3 29-6 23-6 24-8 23-5 26-10 28-9"/>
<path d="M2064 1324l 0-1 6 30 0 25-2 31-3 34-2 24-3 26-4 25-3 25-1 26-4 34-3 30-2 24-3 26"/>
<path d="M1905 1926l 1 0 27-4 26-4 29-5 28-6 28-4 27-4 25-5"/>
<path d="M1896 1951l 0-1-4 28 4 27 4 25 3 27 2 30-1 31-1 34 0 34 2 34 1 33 0 29 1 26 3 26"/>
<path d="M1879 2184l 1 0 25-3 25-3 27-7 26-3 27-4 25-8"/>
<path d="M1831 2721l 1-1 27-3 30-6 24-5 25-6 24-7 28-8 26-11 21-13"/>
<path d="M1850 2745l 0 0-11 28-7 28-6 35-3 25-2 27 0 26 0 27 0 25 3 35 2 31 3 28"/>
<path d="M1801 2958l 0 0 24-12 30-7 25-5 27-5 28-5 25-4"/>
<path d="M1246 2074l-1 0-17 19-8 22-2 25 1 26 6 27 9 23 17 19 24 8 24-8 16-18 12-26 5-29-7-30-11-23-16-24-18-20-25-15-29-2-26 15-15 20"/>
<path d="M1296 1442l 1-2-3 29 1 27 3 30 3 32 2 29 1 28 1 28 0 25 0 27-1 26"/>
</svg>
