<svg xmlns="http://www.w3.org/2000/svg" viewBox="1647 637 18432 16832" stroke="black" stroke-width="20" stroke-linecap="round" stroke-linejoin="round" fill="none" data-xena="0 0 0"><style>@media(prefers-color-scheme:dark){svg{background-color:black;stroke:white;}}</style>
<path d="M16377 897l 2 8 1 7 2 9 2 12 2 16 3 18 4 20 5 19 4 21 4 22 3 25 3 25 4 26 4 27 4 26 5 26 5 26 5 25 4 24 6 22 5 22 5 19-1-6 5 17"/>
<path d="M16923 911l 0-3 0-7 1-3 3-7 4-7 6-6 2-3 6-5 4-3 5-3 6-5 8-5 7-4 10-6 12-5 8-3 14-6 16-5 20-4 8-2 22-3 24-2 25-1 25 0 26 1 25 3 24 4 22 3 20 3 19 4 17 5 17 6 5 2 15 7 14 9 10 10 9 12 5 14 2 7 2 17 0 18-3 20-2 8-5 19-8 20-11 21-3 7-13 21-15 21-5 6-17 22-7 7-19 20-22 20-25 21-26 21-27 21-3 2-28 20-27 19-25 18-23 17 3-3-21 17-20 19 5-5-15 20 7-12-6 12 2-8 3 6-2-7 7 3-7-2 11 2 13 0 15 0 18 0 21 0 23 0 25 0 26-1 26-3 26-4-6 1 26-5 26-7 27-7 27-7"/>
<path d="M17805 900l-3-7-2-4 0-5 1-8 1-5 3-7 3-5 4-7 5-6 4-4 6-6 6-4 7-4 6-4 8-3 7-3 9-3 10-3 11-3 11-3 11-2 12-2 8-2 12-1 12-2 13 0 13 0 13 2 14 3 13 4 7 3 13 5 12 7 11 7 8 8 7 9 5 9 2 8 2 9 0 10-2 10-2 7-4 10-4 7-6 10-7 10-5 7-7 10-9 9-8 9-8 9-9 8-9 9 8-9-8 9-7 8-5 8 4-6-4 7 3-7-3 6 2-7 0 6-2-8 2 5 6 4-7-3 8 3 11 3 12 3 16 3 17 4 19 4 20 5 22 6 22 6 24 6 23 4 22 4 19 5 18 4 16 4 6 3 14 5 12 5 8 6 6 7 3 8 2 7 0 8-2 10-2 7-4 11-4 7-7 11-5 6-10 12-8 8-14 12-7 4-18 11-7 4-22 9-27 7-6 2-28 5-30 5-31 4-31 5-32 4-32 4-31 2-32 2-34 1-35 0-37 0"/>
<path d="M16403 1860l 4 4 4 7 3 9 2 8 3 12 4 15 3 17 2 17 3 19 2 20 2 20 1 20 2 20 1 21 2 22 1 22 2 23 3 20 4 21 4 21"/>
<path d="M17224 1735l 8-3 8-3 9-2 8-1 9-2 10-1 10 0 11 0 12 0 11 1 10 2 10 2 9 3 7 3 7 3 6 5 5 4 3 6 2 8 2 7-1 8-2 7-2 9-4 9-4 7-5 8-5 7-6 8-8 9-8 8-9 8-9 8-8 8-9 7-8 6-7 5-8 5-7 5-7 4-6 5 7-5-6 4-4 5 16-22-2 5 0-16 2 6 5 5 6 4 6 4-7-3 7 3 8 2 10 2 11 2 11 1 13 2 14 4 14 3 15 3 16 3 15 4 15 5 7 3 14 7 12 7 11 6 10 7 9 7 7 7 4 8 3 7 2 8 1 7-1 8-2 8-2 8-4 7-4 8-5 6-6 8-8 8-9 8-10 8-12 10-13 10-14 10-15 12-15 11-14 11-13 10-14 11-15 11-6 4-15 11-13 8-12 7-13 6-7 4-14 5-14 4-8 2-16 3-17 1-15 0-12-1-8-1-10-3-3-7 1-7"/>
<path d="M17981 1664l 8-3 8-3 9-3 10-2 8-1 12-2 12 0 14 0 14 1 14 1 15 2 16 3 16 4 16 4 15 5 13 5 7 2 12 6 9 7 8 6 7 7 3 8 3 7 1 8-2 9-2 8-4 9-4 7-7 10-5 7-8 8-10 11-13 11-16 13-17 12-18 13-7 5-18 13-19 13-18 12-18 13-17 11-15 10-13 10 6-4-12 10-10 10 8-8-7 8-6 7 9-13-3 6 2-8-1 6 0 7-2-7 2 6 5 5 7 4-7-2 10 3 12 4 14 4 17 3 19 2 21 1 24 2 25 2 28 4 28 4 28 3 28 1 28 0 3 2"/>
<path d="M15634 3048l 7-3 7-3 9-2 8-2 11-1 12 0 13-1 15 0 17 0 18 0 18 0"/>
<path d="M15708 3283l-8 1 8-2 9-3 10-3 8-1 13-2 16-1 19-3 21-3 24-3 26-3 25-2 25-4"/>
<path d="M16607 2736l 5-4 7-4 7-4 7-2 8-3 9-3 10-3 10-3 13-3 7-1 14-2 15-1 17-2 19-1 20-1 22-1 23 0 23 0 23 1 22 1 21 0 19 1 17 1 17 1 16 1 15 2 13 4 11 3 7 3 9 5 8 6 7 7 5 8 4 9 2 7 2 10 0 10-1 12-3 13-2 8-4 14-5 16-6 17-9 19-9 19-11 21-11 21-11 22-10 21-10 20-8 17-7 17-8 19-8 21-8 22-9 23-8 25-9 26-8 25 2-6-6 23-5 22-3 21-3 20-2 19-1 17 0 18-2 6"/>
<path d="M13673 5542l-6-2-7-2-8-2-8-3-9-2-9-2-9-1 8 1-9-1-9 0-9 2 8-1-10 2-10 3-11 3-12 3-12 5-13 6 7-4-12 7-13 6-13 7-12 6-11 8 6-5-10 8-9 8-9 9 8-9-7 10 4-7-5 9 3-7-3 10 2-8-2 9 1 8-2-8 4 7 6 7 9 7 12 5-7-3 14 5 16 3 17 3 17 2 17 2 17 1 17 1 17 1 18 1 17 2 18 2 18 3 18 3 17 4 17 5 7 3 14 6 14 7 12 7 11 8 10 10 8 10 7 12 4 11 3 8 2 12 0 12-2 14-2 8-4 14-6 14-4 7-8 14-10 14-4 7-12 14-8 8-13 13-15 13-15 12-7 5-16 10-16 9-7 3-16 8-14 5-14 4-8 2-12 1-13 0-8-2-12-2-11-5-11-6-10-7-8-10-7-10-3-7-5-12-3-14 0-14 1-15 1-8 2-16 5-17 5-17 7-19 8-19 3-7 9-19 11-20 12-20 5-6 14-21 15-20 5-5"/>
<path d="M14183 5245l-5 5-6 5-6 5-7 4 7-5-6 5-6 5-6 6 8-8-7 7-6 9-7 8 5-6-6 8-6 9-6 10-7 13-7 14-8 15-8 17 4-8-9 18-9 19-8 20-7 22-8 24 2-8-6 25-6 26-6 28-7 29-5 31-4 32-2 33 0 33 1 31 2 31 4 28 5 28 7 26-1-3 9 25 9 25 10 24 12 22 12 21 14 20 14 18 15 17 15 16 14 14 15 13 14 12 15 11 15 10 14 8 12 7 12 7"/>
<path d="M14794 5724l-6-5-6-6-7-6-7-6-8-6-8-6-10-5-10-4-11-3-12-3-12-2 8 1-12-1-12-1-12 1-11 1-11 2 8-1-10 3-10 4-9 4 7-3-9 4-8 6 6-4-7 6-7 7 8-8-8 8-7 9 5-6-6 10 4-7-5 10-5 11-3 10 2-7-1 10 0 11 2 10-2-7 5 9 5 7 7 6 7 5-7-3 9 3 10 2 10-1 12-1-8 1 13-3 13-3 15-4 15-5 16-6 16-5 16-6 16-5 14-6 15-5 14-5 12-5 11-4 10-4-8 3 8-4 7-3 5-2 8-3 8-1 3-1 7 3 2 2 2 8 0 3-1 5-2 8-1 5-2 5-2 5-2 6-2 7-2 6-3 7-3 6-3 8-3 7 2-8-1 9-1 8-1 9-1 10 0 10 0 11 0 11 0 10 0 11 0 11 1 11 2 11 1 11 2 11-2 8"/>
<path d="M14990 5341l 4 4 4 5 5 7 6 9 6 10 7 11 8 11 9 12 10 12 10 14 12 15 12 15 13 15 13 15 13 17 12 17 14 19 13 19 12 20 13 21 12 22 11 21 11 21 11 21 9 23 8 21 6 22 2 6 5 21 5 19 4 19 4 19 2 18 1 19 1 18-1 19 0 20-2 19-3 19-4 18-3 18-4 18-4 18-2 7-5 17-6 15-4 7-7 13-9 13-5 7-10 12"/>
<path d="M15698 5211l-5 4-6 5-5 3 6-4-5 4 8-9-4 5 4-6-4 7 4-7-4 10-4 10-5 11-5 12-5 13-4 14 2-8-3 16-3 18-4 21-5 23-5 27-5 30-6 31-6 32-7 33-5 34-3 35-2 34-1 35-1 35 0 34 0 33 1 32 1 30 3 28 3 27 3 25 5 24 5 23-1-4 6 20 7 19 9 17 9 17 9 16 11 14 11 12 13 11 2 7"/>
<path d="M15980 5454l 2-8-1 7-1 8-2 9-1 12 0 13-1 15-1 16-1 18-1 20 0 22-1 24 0 25-1 25-1 27-1 28 0 28 0 26 1 25 2 23 2 21 3 19 5 17-2-5 5 15 2 6"/>
<path d="M16236 5423l-7 3 5-3 5-2 7-3 6-2 6-2 7-2 7-2 8-2 9-2 8-2 9-1 10-1 10-1 11-1 11 0 11 1 12 1 12 2 12 2 11 3 11 4 7 2 9 5 9 5 7 6 6 6 5 6 4 7 3 8 2 8 2 9 0 9 0 10-2 10-2 8-3 10-3 11-5 11-4 7-6 12-8 12-8 14-8 14-9 16-8 15-8 16 3-7-8 16-7 16-7 17-5 15-5 16-4 15 2-8-4 15-2 13-2 12-2 11-1 11-1 9"/>
<path d="M16523 5172l 9 3 10 4 10 6 10 6 11 5 11 6 12 7 12 9 11 10 11 10 12 11 11 12 9 11 9 12 10 14 9 15 9 17 10 18 9 18 10 20 8 19 8 20 6 19 2 7 6 20 3 21 2 20 1 22-2 22-3 23-5 23-2 8-7 23-10 25-11 26-14 27-2 6-15 27-16 28-16 28-18 27-2 3-20 28-23 27-4 5-27 28-30 28-33 28-34 27-36 28-3 2"/>
<path d="M13594 4682l-2-7 0-5-1 0 51-32 0 6-1 9-1 11-2 11-2 12-2 13-3 14-3 17-4 18-5 19-5 20-2 8-4 19-5 19-5 19 2-8-4 18-4 16-2 15-2 13 0 12 1 11 3 10-2-7 4 9 6 9 8 6 7 7 9 5 9 4-7-2 11 3 13 3 15 3 17 1 17 1 20 0 23-1 23-2 25-1 26-1 27-1 27-2 26-5-6 1 24-5 22-7 22-7 5-1 4 2 1 5-1 4-2 5"/>
<path d="M13903 4861l 0 6 1 9 2 9 2 10 2 10 3 11 3 11 2 12 3 14 3 15 4 16 4 15-2-7 5 15 5 15 5 15 6 14 6 13 2 7-2 8-4 7-4 7"/>
<path d="M14487 4635l 8-3 10-2 8-2 11-1 12-1 13-1 14 0 14 0 14 0 13 1 13 1 13 0 13 1 12 1 13 1 13 2 11 3 11 3 7 3 10 5 10 5 8 6 6 7 3 8 2 8 1 9-2 9-2 8-5 9-3 7-5 6-6 9-8 8-8 8-9 8-9 8-10 8-10 8-11 8-10 8-10 10 8-8-9 10-7 8-8 8-6 7-5 5 8-9-4 5 9-13-3 4 2-7 0 4-2-7 2 5 4 4 5 3-7-3 6 2 7 0 8 2 9 2 9 3 10 3 11 2 11 2 12 3 12 4 13 4 13 4 12 4 7 3 12 6 11 6 11 8 10 9 8 7 7 8 7 7 4 7 4 7 2 7 2 7 0 7-1 8-2 7-2 7-3 7-4 7-5 7-4 5-8 9-6 5-6 5-7 5-8 5-9 6-9 6-10 5-7 4-12 5-14 5-14 5-15 4-16 4-7 2-16 3-15 3-15 1-14 1-13 0-13-1-13-1-8-1-3-7"/>
<path d="M17420 5967l 7-4 7-3 10-2 7-2 12-1 13-2-8 1 14-3"/>
<path d="M17331 6113l 8-3 8-3 10-3 10-2 11-4 14-3 15-4 16-3 17-3 19-5 20-5 20-7 21-7 8-2"/>
<path d="M17955 5662l 3 7 3 10 5 11 4 12 2 7 4 14 4 17 5 18 4 19 5 19 5 20 6 20 4 20 4 21 3 21 2 21 2 22 1 22 0 21-1 20-1 20-1 19 0 20-1 18-1 16 0 12-1 9 1 8 1 6"/>
<path d="M18137 5593l 6-4 6-3 7-3 8-2 8-2 10-2 8-2 12-1 12-2 13-1 12 0 12-1 13 0 14 0 14 0 16 1 16 1 17 3 18 3 18 4 17 4 17 5 17 6 7 3 17 7 15 7 13 9 12 10 10 10 7 11 6 11 2 7 3 12 1 13-2 13-2 8-4 16-8 16-4 7-10 18-12 16-4 7-14 16-16 17-8 8-17 17-18 16-18 16-18 15-16 14-14 15-13 13-11 13 6-7-10 12-8 10-7 10-7 8 5-6-5 7 4-7-3 6 2-8-1 6-2-8 3 5 5 3-7-3 8 2 9 0 9-1 12-2-8 2 13-4 15-4 17-6 18-7 19-6 19-7 21-7 22-6 23-7 21-6 20-6 18-6-7 2 17-7 15-7"/>
<path d="M18809 5686l 8-1"/>
<path d="M19067 5427l 2 9 2 9 2 10 1 10 1 12 2 14 2 16 2 16 1 18 2 19 1 20 2 22 2 24 2 25 1 26 2 28 2 29 3 30 3 27 2 24 3 23 3 22 5 22 4 21 6 22 6 20-2-5 6 18 7 16 8 12 10 9"/>
<path d="M19220 5369l 5-5 5-4 7-4 7-4 7-3 8-3 8-4 9-4 9-4 8-3 10-4 11-4 12-4 13-3 13-2 14-3 8-1 15-2 14-2 14-1 15-1 16 0 14 0 14 0 12 1 12 1 10 3 9 2 9 3 7 3 7 3 6 4 6 5 5 5 4 6 3 5 2 6 2 7 2 7 1 8 0 9-1 9-1 12-2 13-3 15-3 17-4 16-2 8-5 16-5 18-6 18-7 20-8 21-9 23-10 25-11 26-12 27-11 27-10 28-9 26-6 26 1-4-6 24-5 24-5 21-3 21-3 20-2 19-2 18-2 18-2 16-1 15 0 13 0 11 0 9-1 7"/>
<path d="M13702 6240l 7 0 9 1 10 0 13 1 15 0 17 1 20 1 22 1 23 2 23 1 24 2 24 2 26 2 28 1 32 2 34 3 37 2 39 1 40 0 42 0 42-1 44-1 48 0 52-1 54 0 55-1 57-1 61-2 64-1 66-2 68-2 70-2 73-2 74-3 73-1 74-2 74-1 74-2 73-1 72-2 72-1 73-2 72-1 70-2 68-2 67-3 69-3 70-3 76-5 81-5 75-5 63-4 62-4 67-5 66-5 60-5 54-4 49-4 44-2 38-1 37-1 41-1 39 0 34 0 28 0 23-1 20 0 18-1 16 1 13 1 6 3"/>
<path d="M13274 5914l 0-3 3-8 2-3 4-6 5-6 6-6 4-3 6-5 7-5 9-7 11-8 14-9 16-11 7-4 20-12 24-12 26-12 29-13 30-15-4 2 35-22 43-30 46-32 47-31 4-2 48-29 49-26 48-27 46-26-4 2 42-27 43-27 44-28 3-2"/>
<path d="M14527 5893l-7 1-7 0-6 0-4 0-2 0 31-50 5 0 10-2-8 1 11-2 13-4 14-5-8 3 16-7 17-8 20-9 23-9 7-3 26-10 28-11-5 3 33-13 36-14 36-17 39-21 45-25-4 2 44-27 41-26 4-2 38-23 37-20 37-19 4-2 4 0 3 1 1 4-1 4-2 3-2 3-4 4-3 3-37 19-37 21-38 22-41 26"/>
<path d="M13272 9389l 6-1-8 1 7-2 9-2 10-4 14-4 16-5 19-6 21-4 23-4 8-1 26-3 34-3 43-3 46-4 45-4 45-4 47-4 49-3 50-2 49-2 47-4 48-3 50-4 53-4 56-4 57-5 57-4 57-6 60-4 56-5 46-4 43-4 45-5 50-4 55-5 57-6 64-5 80-7 99-7 103-7 91-5 79-3 71-1 67-1 65 0 62 1 58 1 54 1 52 0 54 2 53 1 53 1 49-1 44-2 41-3 37-4 37-4 36-5 35-5 33-5-4 1 31-6 28-5 24-5 22-7 19-7 17-6 14-6 12-5 10-3 7-3 7-2"/>
<path d="M4887 4147l 7-3 11-4 13-5 14-4 15-4 16-5 17-5 19-6 21-6 23-5 25-5 8-2 27-4 31-4-6 0 35-5 36-6 38-8 39-10 40-10 43-11 46-10 47-10 49-11 48-11 49-11 50-12 57-12 63-14 64-14 61-15 57-14 55-14 55-14 55-15 53-15 50-15 48-15 46-14 48-14 50-14 57-16 54-14 46-12 40-11 34-9 30-8 29-6 27-6 4 0 26-5 25-4 24-3 22-2 20-3 19-2 17-2 14-2 12-1 9-1 7 0 7 3 2 7-2 8-4 7-4 7-8 8-7 5-7 3-7 2-7 0-9-1-10-1"/>
<path d="M12317 11664l-6 4 6-5-6 5-6 7 8-9-7 8 5-6-6 10 4-7-5 12-6 15-6 17-5 19-6 22 2-8-6 23-2 8-7 23-7 22-7 21-6 19-5 17 2-7-3 16-2 14-2 12 0 11 1 12 2 12 2 13 3 11-2-7 4 8 4 7 4 6 6 5 6 5 7 3 7 3-7-3 7 2 8 2 7 1 7 2 7 1 8 1 7 2 9 2 9 3 11 3 11 3 10 2 11 3 13 3 15 2 18 2 19 1 18 1 19 1 20 1 21 0 24 1 24 0 25 1 25 2 26 0 26 1 27 2 28 3 30 3 30 5 33 4 34 4 35 5 35 6 35 5 35 5 37 5 39 7 43 6 50 7 57 6 58 4 59 4 58 3 59 3 59 3 59 2 58 1 59 1 61 2 63 2 63 3 63 1 61 2 63 3 64 5 65 4 66 3 65 4 67 3 69 3 69 3 69 3 68 1 69 2 70 2 70 2 68 2 68 0 69 1 69 1 68 1 67 0 64 0 64 0 62 1 61 1 58 1 55 1 52 1 51 2 50 2 49 3 46 4 41 3 36 2 32 2 29 2 27 1 25 2 23 0 22 1 21-1 20-1 19-2 18-2 16-2 14-3 12-2-7 1 10-3 9-2 9-3 7-3 6-2-7 3 5-3-7 4 4-3-11 11 3-4-7 14 2-5 0-6-1 8 0-6-2-7-2-7-3-9-3-9-3-9-4-10-3-11-3-12-3-13-4-14-3-15-4-15-3-16-2-17-3-18-2-19-1-18-1-16-1-15 0-13-1-12 0-11 0-10 0-9 0-10 0-9 1-8 1-8 1-8 1-7 1-8 3-7 4-7 5-6"/>
<path d="M13992 11601l 8-7 9-7 11-8 7-4 15-8 17-10 21-10 25-11 7-3 29-8 34-8 38-8 41-12 43-17-4 2 44-18 3-2 46-17 50-15 53-14 56-12 56-12 58-12 4-1 59-10 63-8 65-8 66-5 66-5 67-3 68 0 68 1 65 3 64 4 61 5 62 6 62 7 59 8 56 9 51 8 48 11 46 12 45 14 43 15 40 15 3 2 36 15 31 14 27 14 22 13 20 12 18 10 18 10 17 10 14 9 11 8 10 9 8 10 6 10 6 10 5 9 4 8 4 7 4 6 5 5 4 4"/>
<path d="M16174 11386l 7 7 8 6 8 7 7 7 8 8 9 10 10 12 11 12 11 12 10 11 9 11 9 12 9 12 8 11 8 10 8 9 7 8 6 7 5 7 3 6 2 8 2 7-1 6-2 8-4 7-3 5-5 6-8 8-4 5-7 4-7 4-7 3-9 3-8 2-13 3-16 1-19 1-22 1-23-1-25 0-25-2-25-2-25-2-24-2-24 0-23 0-24 0-23 0-22-1-23 0-22 0"/>
<path d="M11420 11589l 5 10 2 7 3 11 3 11 2 11 2 12 3 13 3 14-2-8 4 15 5 15 6 16 6 18 6 19 6 19 6 19 6 19 6 18 6 18 7 19 5 19 2 8 6 19 4 20 5 18 5 19 4 17 4 17 3 15 2 14 2 13 2 10 1 9-1 8-1 7-2 8-2 5-4 7-3 5-5 6-7 9-5 3-6 5-6 3-7 3-7 3-8 1-8 2-10 0-11-2-13-2-15-1-15-1-17 0-19-1-21-1-23-3-27-4-7-1-28-5-29-5-31-5 5 0-34-4-34-4-35-2-36-2-38-2-42-3-44-3-46-3-47-2-48-2-51-1-54-1-58 0-61 0-62 1-62 2-63 3-66 3-67 3-68 3-69 4-71 3-73 3-74 4-75 3-75 3-76 3-77 3-76 3-77 3-76 4-76 2-75 1-72 0-66 1-62 0-64-1-68-2-66-1-60-2-55-2-54-1-54-3-53-2-53-3-51-4-52-4-53-5-55-6-55-8-50-7-39-6-4-1-33-6-31-6-30-6-30-7-29-8-27-7-26-8-25-7-24-8-26-7-23-7-20-5-17-5-14-4-12-2 7 1-9-1-8-1-8-2-6-2-4-2-4-2-3-1 8 1-4-1-4 0-3 0-8-1-3-1-4-1-3-2-3-3-3-4-3-4-4-5-3-7-5-8-3-7-5-11-5-11-5-12-5-14-5-16-5-18-5-20-5-21-5-22-3-22-3-24-2-23-2-21-2-19-1-15-2-12-1-9"/>
<path d="M8347 11506l 5-10 4-7 7-9 5-6 8-11 11-12 14-14 17-15 6-5 19-15 22-15 6-4 25-14 29-14 32-14 34-15 37-16 4-1 37-15 38-14 39-14 43-13 46-13 49-12 52-12 51-11 50-11 50-9 4-1 51-8 55-8 56-8-4 0 55-9 54-11 4 0 54-8 55-4 57-3 58-3 56-3 55-2 53-2 54 0 55 2 54 3 52 5 48 6 45 7 44 9 43 11 42 13 40 13 4 2 38 14 34 15 30 15 27 15 25 14 23 14 23 15 22 14 21 15 19 15 19 13 18 12 18 11 18 8 17 7 16 7 15 7 14 5-6-2 12 4 12 3 10 1 9 1 7 0-8 1 6-1-7 3"/>
<path d="M10584 11128l 5 6 6 7 6 7 7 8 8 7 9 7 10 9 10 10 11 10 12 10 12 10 12 11 13 11 12 10 11 11 10 11 11 11 10 13 11 13 9 14 9 14 8 14 7 13 6 14 5 13 2 7 3 13 1 11 0 11-1 9-2 8-3 9-4 7-6 9-4 6-8 9-8 7-6 5-10 7-12 7-14 7-7 3-17 7-20 5-8 1-22 3-26 1-27 1-27-2-27-4-5-1-27-5 5 1-28-4-27-3-25-2-22-1-20-3-18-2-16 1-13 2-10 1-8-2-7-1-5-3-3-7"/>
<path d="M11359 13505l 0-4 0-8 1-5 1-5 1-7 2-6 3-7 4-7 3-7 5-9 6-9 6-10 4-7 8-11 9-12 10-13 5-6 11-13 13-14 14-14 16-15 16-15 6-5 18-16 19-15 21-14 21-14 21-13 20-14 19-14 19-13 19-12 19-12 18-11 18-12 6-3 18-11 18-10 19-9 19-8 6-2 19-7 18-6 19-5 19-4 6-1 19-3 19-2 17-1 17-1 16 0 15 1 14 2 13 3 12 3 7 3 11 5 12 6 11 9 10 10 11 11 10 12 9 13 10 15 10 15 8 15 8 16 8 17 7 16 7 16 6 16 6 15 6 15 5 16 5 16 5 16 5 14 4 13 5 13 4 12 4 11 3 11 3 8 2 7 2 8-2-8 2 7 2 6"/>
<path d="M12068 13363l 5 6 6 6 5 6 6 6 7 6 6 6 6 6 6 6 6 5 6 5 7 5 7 4 8 4 7 4 8 4 8 4 8 3-7-2 8 3 8 2 9 2 8 0 9 1 8-1 9-1-8 1 9-2-7 3 8-4 9-6-7 4 10-6 9-6 10-9-11 12 9-12 8-13-4 7 8-15 9-15 8-16-3 7 7-17 6-18 6-18 5-18 5-18 4-18 4-16 3-16 3-14 2-12 2-11 1-11 3-7"/>
<path d="M11414 13798l 4 4 5 4 6 5 7 7 8 7 9 9 11 9 12 10 14 11 14 12 17 13 17 13 18 13 18 13 18 12 21 12 22 13 21 13 22 14 23 16 25 16 28 19 30 18 31 17 31 16 30 15 29 15 27 13 25 12 22 10 20 8 19 9 18 9 16 9 16 8 14 9 13 8 11 6 10 6 8 4 6 4 5 4 4 2"/>
<path d="M12185 13673l-6 3 7-3-7 4-8 6-9 6-9 6 7-5-9 8-10 9-12 11-12 13-13 14-15 14-16 15-19 16-23 18-6 4-25 17-28 17-28 19-30 20-30 21-30 22-31 22 4-3-30 23-29 24-29 23-31 23-4 2-32 22-34 21-32 19-31 18-29 18-27 16-26 15-24 13-21 12-18 12-16 11 4-3-14 11-11 9-10 8-6 5-9 7-7 5-7 5-5 4-4 2-8 4"/>
<path d="M19917 13592l-8-2-6-3-5-4-5-4-5-4-6-4-8-5-8-5-8-5-10-5-10-5-11-6-12-6-12-6-13-6-13-6-15-6-14-7-15-8-15-7-16-7-16-6-17-6-18-6-21-7-22-7-25-8-28-9-28-12-27-12-28-11-28-8-28-6-27-5-28-4 4 1-28-4-31-2-32-2-34-1-35-2-34-2-34-2-32 1-33 4-33 4-35 6-38 6-40 7-41 9 4-1-40 9-37 10-36 11-33 12-32 14-31 14-32 14-32 13-33 12-31 13-29 14 4-2-26 14-23 14-20 14 4-2-18 14-15 14-13 13 5-5-11 13 3-4-9 12-7 13-8 12-7 13-7 12-7 11-7 10-6 9-5 8-5 6-5 7 5-6-5 6-4 6-4 6-4 6-3 5-2 4-5 7-8 8-6 4-7 4-8 2"/>
<path d="M18351 13525l-2 6-2 7-3 7-3 7-2 7-3 8-3 8-3 8-4 8-4 9-4 9-4 11-4 14-4 15 2-8-3 15-2 8-4 15-4 13-4 13 2-8-3 12-2 12-1 9-2 9-2 8-1 8-1 7 2 7-3-7 3 7 5 6 5 4 6 2-7-2 7 1 7 1 8 0 7 0-8 1 7-1 7-2 7-2 7-2 6-2-7 2 7-3 8-3 7-3 8-3 8-3 9-3-8 2 9-3 9-4 7-3 9-3 8-2 9-2 9-3 8-3 7-2 8-1 8-1 8 0 8-1 7-1-8 2 6-2 7-1 7-2 6-1 6-1"/>
<path d="M18060 13286l 2 10 2 13 3 15 2 19 2 20 3 21 2 21 2 23 0 26 1 27 0 30 0 32 0 34 1 35 0 34 1 34 2 32 2 31 2 31 2 32 3 32 1 32 1 32 1 32 1 32 0 32 1 33 0 32 0 32-1 33 0 32-1 34 1 33 0 33 0 33 0 33-1 30 0 30-1 27-1 26 0 24-1 23 1 23 1 22 0 21 1 20 1 20 1 19 2 19 0 17 1 16 2 14 1 13 1 14 0 13-1 12-1 12-2 11-1 11-1 10-1 11-1 10-2 9-1 9-1 8-1 7-1 6-1 6 0 3-46 16 1-3-3 7 2-6 2-7 4-8 4-6 5-6 6-6 7-4 7-3"/>
<path d="M17772 13319l 0 7-1 7-1 9-1 10-1 10-1 10 0 11 0 11 0 12 1 14 0 14 0 17 0 18 0 21-1 23-1 25-1 28-2 29-1 32 0 31-1 30-1 28 1 28 1 28 1 27 2 29 2 30 1 32 2 33 2 33 2 33 2 33 0 33 1 33 0 35 0 36-1 37-1 39-1 39-2 39-2 40-3 38-2 38-2 38-2 38-1 39-2 38-1 37-2 34-2 32-2 30-2 29-1 29-2 29 0 28-1 27 0 27 0 26 1 25 1 23 2 22 2 21 2 20 3 18 3 18 2 16 2 17 1 17 1 17 1 17 2 16 1 17 1 16 1 15 1 15 0 14 1 15 0 14 0 14 1 14 0 12 0 12-1 12 0 11-1 11-1 10-1 11-1 9-2 10-1 9-2 9-2 9-1 9-2 9-2 9-2 9-1 9-2 10 0 9-1 9-1 9-1 8-1 8-1 8 0 9 0 8 0 9 0 8 0 7 0 7 0 7 0 8 1 7 0 7 0 7 0 6 0 6 1 6 1 6 0 6 0 7 0 6-1 5-2 8-4 7-2 2-4 7-8 8-7 5-7 3-7 2-8-1-2-1-2-2-4-7 1-8"/>
<path d="M17897 12668l-3 10 2-8-1 9 2 9 2 10-2-8 4 11 2 7 3 13 2 15 3 16 2 17 1 16-1 15-1 15-2 15-2 15-3 16-3 16-3 16-3 16-2 15-1 14-1 12 0 13 3 12 3 13-2-8 3 12 4 11"/>
<path d="M18101 14734l 5 5 2 4 2 5 2 5 2 7 2 8 2 8 3 11 3 14 2 16 3 17 1 17 1 19 0 18 0 20 0 21 0 22-1 23-2 24-2 24-3 25-2 27-3 28-4 31-4 34-3 34-2 35-1 36-1 34-1 34-2 34-1 34-1 35 0 36 0 35-1 35 0 34 0 33-1 32 0 33 1 33 0 34 0 36-1 37 0 37 0 37 0 38 0 36-1 36 0 36-2 36-1 37-1 36-2 36-1 35-2 33-1 33-2 31-2 30-1 30-2 31-1 30-1 30-1 29 0 29 0 28 0 27 0 27 1 25 0 24 0 23 1 24-1 23 0 24 0 24-1 24-1 24 0 22-1 22 0 19 0 18 0 19 0 18 0 16 0 16 1 15 0 14 0 13-1 11 0 10 0 10-1 11-1 11 0 11-1 12-1 13-1 12-1 13 0 14-1 15-1 13-1 13-1 11-1 12-1 10-1 9-1 9-2 7-2 8-1 6-2 8-2 5-2 4-3 7-5 6-8 9-2 1-7 5-7 3-7 2-4 0-8-1"/>
<path d="M6920 15243l 2 7-2 8-3 6-5 7-8 8-6 4-7 3-7 2-4 1-8-1-6-1 8 2-5-1-5 1-3 0-8-1-3-1-3-2-1 0 47-38 1 4 1 8 0 8 1 8"/>
<path d="M8224 11789l 8-1-8 2 6-3 6-2 8-1 8-2 10-1 11-1 13-1 15-2 16-1 18 0 20-1 20-2 21-3 21-3 22-3 23-3 23-2 25-1 26-1 28 0 31 2 33 1 32 0 32-2 32-3 32-4 35-4 38-3 41-4 44-4 47-3 47-4 46-5 46-5 46-3 50-2 51-1 51 0 50 0 50-1 52 1 52 2 55 2 53 2 53 2 51 1 51 1 51 2 53 2 52 2 50 1 48 0 46 1 46 0 45 2 47 0 46 1 45 0 42 0 40-1 38 0 38-1 38-1 38 1 40 2 39 1 37 1 34 1 32 1 30 2 29 1 28 2 26 2 26 1 24 3 24 1 23 1 22-1 20-1 18-1 17-1 15-3-7 1 12-3 8-1 11-2 8 0 8 0 6 0-8 1 5-1 5-2 8-1"/>
<path d="M11011 11590l 7 0 7 0 7 2 6 1 7 2 6 2 7 2 7 3 7 3 6 4 7 4 6 4 6 3 6 5 6 5 5 5 5 5 5 5 3 6 2 7 2 7 2 7-1 6-2 8-1 4-4 7-3 5-4 7-5 5-5 6-8 8-6 6-6 6-7 4-6 5-7 5-8 5 6-5-8 6-6 5-8 5-7 4-8 5-10 6 7-5-9 7-9 7-7 5-8 6-8 4-7 5 7-5-6 5-6 6-6 4-7 5"/>
<path d="M12599 11819l 9 0 11-1 11-1 12-1 13-3 13-1 13-1 13 0 14 0 13-1 15-2 16-2 17-1 17 0 18 0 20 0 21 1 23 2 25 3 26 3 28 2 27 3 28 2 29 2 30 1 32 0 35-1 37 1 39 3 41 2 43 0 44-1 43-1 46 1 48 3 53 3 55 3 55 2 55 2 55 3 58 4 61 5 60 3 59 3 58 3 60 3 61 4 62 3 62 2 62 3 63 3 65 4 67 3 65 2 65 1 64 1 66 1 65 1 64 0 61 0 61 0 60 2 60 2 59 1 55 0 51 0 48 0 47 2 45 2"/>
<path d="M15891 11926l-8-1-5-1 8 1-2 0 37-47 3 3 4 4 3 5 2 7-2 6-2 7-3 7-5 7-4 5-8 8-4 4-5 4-6 5-5 3-7 3-6 3-6 2-6 2-6 2-7 2-6 1-6 1-7 1 8-1-7 1-7 2-8 2-8 1-8 0-10 0-10 0-10 1-10 0-11 1-10 1-11 0-9 0-10 0-8 0-7 0-7 0-6 0-6 0-6-1-8-1-3-7 0-8 3-7"/>
<path d="M15758 11776l 7 0 8-1 8 2 7 3 9 3 9 4-7-3 9 4 10 3 11 2 11 4 11 4 11 4 11 3 10 3 11 3 11 4 11 3 10 4 8 3 7 3 8 3 8 4 8 5 7 4 8 3 6 4 3 3 2 8-2 8-4 7-5 6-8 8-3 4-7 5-7 3-7 3-7 2-8 2-8 1-8 1-9 1-9 1-9 0-9-1-9-2-10 0-9 0-8 1-8 0-7 0-7 0-6 1-6 0-6 1-5 1-6 0-6 1"/>
<path d="M15467 11844l 8 0 8 1 9 1 10 2 11 1 12 1 14 2 14 1 17 2 19 0 19 0 20 1 20 1 19 2 19 0 17 0 16 0 17 0 16 0 15 0 16 0 15 1 15 0 15 1 15 1 15 0 15 0 16 0 15 2 15 1 14 1 13 1 11 0 11 1 9 1 8 1 8 0 6-1 6 1 6 1 7 3 2 7"/>
<path d="M15762 11918l-7 0-7 0-7 0-7 1-8 0-8 1-8 1-8 1-8 0-9 0-9 0-11 0-12-1-13-1-15-1-15-1-17-2-17-1-18-1-18-2-19-1-18-2-19-2-18-1-18-1-18-1-18-2-17-1-17-1-18 0-18 0-20-1-20-1-22-1-22-1-23-1-22-2-23-2-21-2-20-1-20-1-20-1-19 0-19 1-19 2-21 1-22 0-25-2-28-1-29-3-30-2-30-2-29-2-28-1-27-1-25 0-24 0-23 0-24-1-24-1-25-2-25-1-25-2-26-2-24-1-24-2-22-1-22-1-21 0-20 0-20 0-20 2-21 2-24 1-25-1-27-1-30-3-31-2-31-2-32-1-32-1-31 0-30 0-32 1-32 0-34-1-35-1-36-3-37-2-35-2-35-1-34-1-35 0-36 1-37 0-39 1-39-1-39-1-38-1-37 0-36 1-37 2-37 1-38 1-38 0-39-1-39 0-37-1-37 1-36 2-36 3-36 3-38 1-37 0-38-2-37-1-36-1-35-1-33 0-33 1-33 1-34 1-35 0-34-1-34-2-32-2-30-1-29-1-27 0-25 0-25 0-24 1-25 0-25-1-25-1-25-2-24-2-22-1-22-1-21 0-20 0-19 1-18 2-17 2-16 2-14 2-13 1-11 1-11 1-9 0-8 1-7 1 8-1-4 1 31-38 0 2-2-7 4 2-7-3 8 2 9 2 12 0 12 1 14 0 15 1 17 2 18 2 20 3 23 3 24 3 27 3 28 2 29 3 30 1 31 0 32-1 35 0 36 1 39 1 41 2 43 1 43 1 43 0 44 0 45 0 47 1 50 1 52 1 52 1 51 1 51 0 52 1 54 2 54 3 55 2 56 2 56 2 57 2 59 3 59 2 60 1 59 1 60 0 60 1 60 2 60 2 59 1 59 2 58 2 59 2 60 2 58 2 57 2 57 2 57 2 56 2 56 2 53 2 53 1 50 2 51 2 50 4 50 3 49 3 46 3 44 3 43 2 42 3 41 3 42 4 41 3 39 3 37 3 35 2 32 2 30 2 30 2 28 3 29 2 28 3 28 2 27 3 26 2 25 1 23 0 22 1 20-1 18-1 16-1 16-1 15-1 13 0 11 0 10 0 9 0 8 0 7 0 7 1 6 0 6-1-8 2 5-2-26 18 2-3-8 22-1-4 3 7-4-4-5-4-6-3-6-2-6-2-6-2-6-2-6-1-5-1-6-1-4-1-1-1-3-7 0-8 3-7 5-7 5-6 6-5 7-4 1-1 8-3 3-1 8-1 7 3 2 7-2 8-4 7"/>
<path d="M15751 11755l 10 6 11 7 11 6 12 6 11 7 12 8 13 8 12 6 13 6 12 7 13 8 14 9 13 9 13 8 13 7 12 8 12 7 12 6 9 5 9 6 6 5 7 6 5 6 3 7 2 7 0 8-1 8-2 7-3 7-4 7-5 7-4 5-8 9-6 4-6 5-7 4-7 3-8 4-10 4-12 5-15 5-16 5-16 5-17 5-17 4-18 5-18 5-19 5-19 6-18 6-17 5-15 5-14 5-13 5-12 6-12 5-11 5-10 5 7-4-9 6 6-4-9 7-6 4"/>
<path d="M15277 6552l-3 5-5 6-5 6 5-6-5 8-6 10 4-7-6 12-7 13-8 16-8 17-8 19-8 22-10 23-10 25-11 25-10 25-8 26-8 25-6 26 1-5-5 26-4 26-2 25 0 25 2 23 4 22 6 21-1-5 8 18 11 16 11 14 13 12 15 10 15 7-6-3 15 5 15 3 15 1 16 0 15-2-8 1 17-3 16-5 17-6-7 2 17-7 17-9 16-8 15-9-6 4 13-10 13-9-6 5 10-10 9-10-5 6 6-10-4 7 4-10-3 8 3-10-1 8 1-11-1-10-4-10 3 7-6-11-9-11-11-11-12-10-14-10-15-10-15-9-14-8-14-8-14-7-14-7-13-4-12-4-12-2 8 1-12-1-11 0-12 1-11 3 7-2-12 4-15 6 7-4-15 8-16 8"/>
<path d="M14996 6980l-7 4 6-4 7-6 10-7 13-9 16-10 7-5 18-10 21-12 24-13 25-12 26-12 26-14 25-15-4 3 26-16 27-17 28-17 4-3 31-17 33-17 34-18 35-17 34-18 31-17 28-15 26-15 25-15-4 2 23-14 4-2 22-14 22-13 21-12 20-11 18-11"/>
<path d="M13306 8597l 6-14-1 7 0 9 0 11 0 12 0 15 0 16 0 18 0 19 0 20 0 21-1 22-1 23 0 25-1 26-1 26-1 26 0 26-1 24 0 24 1 22 0 21 1 20 2 18 2 16 2 15 3 12 2 11-2 8"/>
<path d="M13642 8501l-6-5-7-4-8-4-8-3-8-2 8 1-9-1-9 0-11 0-11 2 7-2-12 3-13 5-13 5 7-3-12 6-12 8 6-4-11 9-11 10 8-8-11 11-9 12 5-6-8 12-7 12 4-7-5 11-3 11 2-8-1 10 1 11-2-8 4 11 7 10 9 10 12 9 14 8 15 7 16 7-6-3 16 5 17 5 17 4 18 3 19 3 19 3 20 3 20 4 19 5 19 6 7 2 17 7 15 8 13 8 12 9 10 10 8 12 6 12 5 15 2 7 3 16 0 18-2 19-3 19-2 8-6 21-7 20-10 20-4 7-12 19-4 6-14 18-15 17-7 8-17 15-17 13-6 5-18 11-16 9-7 3-15 7-15 5-7 2-15 2-14-1-7-1-13-3-13-7-11-10-10-13-9-17-3-7-8-19-6-21-3-24-1-25 2-26 0-7 5-25 6-24 7-24 8-23 8-22 9-22 2-5 10-21 10-20 11-21 3-5 13-20 14-20 17-19 3-4 18-18 18-17 4-4 19-16 4-3"/>
<path d="M14058 8724l-3 0-3-7"/>
<path d="M14293 8514l-1 6 2-8-1 6 0 7 0 8 0 8 1 9 1 10 2 12 2 13 4 15 3 15 3 18 2 18 3 19 2 20 2 22 2 23 1 25 0 26 0 25-1 25 0 23 0 22 1 21 1 19 2 16 2 13 3 11"/>
<path d="M14646 8477l-4-4-5-3-5-2-6-3-6-3-6-2 7 2-7-2-8 0-8 1-8 1 8-2-10 3-9 3-10 5 7-4-10 6-11 6 6-4-11 8-12 10-12 11-11 12 8-8-12 13-10 14 4-6-9 14-8 13 4-8-6 12-4 11 2-8-2 10 0 9-2-7 3 8 5 6 7 6 9 4-7-3 11 2 12-1-8 2 12-3 13-4-7 3 13-5 13-7 13-7-7 4 12-8 12-7 11-8 11-8 10-8 10-7 8-6 8-6 6-5 5-3 7-4 7-3 8-1 4-1 7 3 4 3 2 6 2 7 2 8 1 8 0 9 0 9 0 11-1 12-1 13-1 14 0 14 0 13 0 14 0 15 0 15 0 15 0 16 0 15 0 17 0 16 1 16 1 16 1 15 2 15 2 14 2 13 2 10-2-7 3 9 3 7 3 6 2 7"/>
<path d="M14965 8753l"/>
<path d="M15247 8527l-3-3-3-7-1-5 0-4 0-8 1-5 2-4 3-7 4-7 3-4 5-6 4-4 4-4 6-5 5-4 7-4 6-3 7-3 8-3 8-3 10-2 8-1 10-2 11 0 12-1 13 1 13 0 13 1 12 2 12 3 10 3 9 2 7 3 8 3 6 4 6 5 4 5 3 7 2 7 1 7-1 9-2 10-2 8-4 11-6 13-6 12-3 7-8 13-8 14-10 13-4 7-10 13-10 12-10 12-9 11-8 9-8 9-7 7-5 6 5-7-3 5 6-15-1 4-2-7 3 3 5 3-7-3 7 2 8 1 8 2 9 1 10 1 10 2 10 3 11 3 12 3 12 3 12 2 12 4 11 2 11 3 9 4 7 2 9 4 8 4 8 3 6 4 6 3 4 4 4 4 2 4 2 8 1 4-1 5-1 5-2 8-2 6-3 7-3 5-5 6-4 7-6 6-8 9-7 7-10 7-11 9-6 4-12 9-14 8-15 9-15 8-17 8-7 4-16 8-17 7-16 5-15 5-8 2-14 3-14 2-12 0-10-1-8-1-9-2-8-4-7-6-4-7 1-7 3-8"/>
<path d="M15684 8236l 6-1 7-2 8-1 8-1-8 1 9-1 9-2 8-1 10-2 9-1 10-2 9-1 9 0 10-1 10-1 10-1 9-1 8 0 8-1 8 1 7 0 8 1 7 1 7 1 6 1 5 2 5 1 6 3 5 2 4 2 3 3 4 3 3 4 2 4 1 5 2 8 1 5 1 7 0 7-1 7 0 9-2 10-1 11-2 12-3 13-2 12-3 14-3 14-3 14-4 14-2 8-3 15-4 15-5 17-4 16-5 18-5 18-5 18-5 19-7 18-6 18-6 18-7 17-6 17-7 16-6 16-7 16-6 16-6 16-7 15-6 15-6 14"/>
<path d="M13264 8888l 2-3 6-5 4-4 6-3 7-4 7-4 8-4 10-6 12-6 14-8 15-8 18-10 20-11 23-11 24-12 26-13 26-13 27-16 28-16-4 2 29-18 30-19 31-20 31-21 4-2"/>
<path d="M13410 7891l-6-4-4-5-3-7-2-5-1-5 1-8 1-4 3-8 4-6 4-6 5-6 5-6 6-5 8-6 9-6 6-4 11-6 12-6 13-5 13-6 8-3 13-5 14-5 14-3 14-3 13-2 8-2 12-2 12-1 10-1 10-1 10 1 9 1 9 2 8 2 7 2 7 3 6 3 5 5 3 7 3 7 1 9 1 8-1 8-2 8-2 8-3 8-3 8-2 7-2 7 2-8-1 5 0 5-2-8 2 5 3 4 3 4 4 3 5 4 6 3 7 2-7-2 9 2 9 3 11 3 10 3 12 3 11 3 11 4 11 3 11 3 10 4 10 3 9 3 7 3 8 4 7 5 6 6 5 6 3 6 2 7 2 8 1 7-1 9-2 8-3 9-4 7-5 9-5 6-6 9-8 8-9 8-9 9-11 9-6 4-12 9-13 8-14 8-15 7-7 4-16 7-17 8-20 7-19 7-17 5-15 4-13 3-8 2-12 2-10 2-11 0-10-1-10-1"/>
<path d="M17556 7156l 14-2 11-2 7-1-8 2 7-2 8-2 10-2 12-4 13-4-8 3 13-6 8-3 14-5 16-7"/>
<path d="M17572 7297l-8 1 9-2 9-4 9-3 11-4 11-5 14-4 15-5 18-7 21-8 24-8"/>
<path d="M18366 6940l 4-5 3-5 5-6 5-6 6-5 7-5 7-4 8-5 11-5 8-3 14-5 16-5 20-5 22-6 23-5 23-5 22-4 7-1 22-3 22-2 22-2 21-1 21 0 20 0 18 1 17 3 15 4 6 2 13 6 10 7 7 8 5 10 2 7 2 11-1 12-2 8-4 13-7 14-4 7-9 15-5 7-12 14-8 9-15 14-16 16-18 16-18 17-19 17-19 17-19 17-19 17-21 14-4 4-21 14-23 15-23 15-23 15-21 14 3-2-19 15-16 15 4-4-14 15-12 16 3-5-8 14 3-6-4 10 2-8 0 7-2-8 2 6 5 6 8 5 11 4-7-2 14 3 17 1 20 1 23-1 24-2-8 1 25-4 24-5 25-6 26-7 26-8 29-9 30-10 31-11"/>
<path d="M19131 6884l-8-5-10-4-11-4-12-4-14-4-14-5-16-4-17-3 8 1-17-2-16-1-16 1-15 2-16 3 8-2-14 4-14 6 7-4-13 7-13 7-13 9-13 9 7-5-12 10 8-8-9 11 4-6-6 11 4-7-3 12 2-8-1 12 3 11-2-8 5 10 8 9 9 8 11 7 12 5-7-3 14 4 14 3 16 1 17-1 18-2 19-3 19-3-8 1 18-3 17-5 17-5 15-5 14-5 12-5 12-4-8 2 10-4 7-3 7-3 3-1 8-1 7 2 2 8-2 8-3 7-5 6-2 3-8 8-6 6 8-8-8 9-8 11 4-7-8 12-8 13 4-7-7 14-7 16-5 15-5 15-5 14-3 13 2-7-3 13-1 14-2 13-1 12 0 11 0 9 2 8-2-7"/>
<path d="M19475 6779l-7 2-8 2 8-2-7 3 7-4-7 4-8 6-8 5-9 6-9 6 7-5-10 7-9 8 8-8-8 9-7 8-7 8 5-7-6 8 4-7-4 8-3 9 2-8 0 9 1 8-3-8 4 7 4 7 7 8 9 8 10 7 14 6-7-3 16 5 20 4 20 2 22 2 21 1 21 0 20-2 20-3 19-3 20-3-8 1 20-4 19-5 18-6 18-6 17-6"/>
<path d="M19720 6765l-3 6 3-7-3 7-3 9 2-8-1 12-1 13-1 14-1 17-1 18-1 21-1 25-2 26-4 29-5 30-7 33-7 35-6 36-1 3-2 4"/>
<path d="M14634 9472l-2 8-3 9-3 11-4 12-4 14-5 15-5 17-7 19-7 20-7 23-8 24-9 24-10 26-10 27-9 29-8 30 1-5-7 31-6 30-4 30-2 27-2 25 1 24 2 21 4 19-1-5 6 15 7 14 8 13 9 11 9 11 9 8 11 7 10 5-7-3 11 4 10 1 11 0-8 1 12-2 12-5-8 3 13-7-7 4 13-8 12-9 13-11 13-11-6 5 13-12 11-12-5 6 11-13 10-13-5 7 8-13 7-13-3 7 4-13 4-13 1-14-1 8 0-14-3-12-4-12 3 7-6-12-8-11-10-10-10-9-12-8-12-5-13-4 8 1-13-1-13 0-12 1 7-2-11 4-11 4 7-3-11 6 6-4-11 8-12 11-12 12-11 12-12 12"/>
<path d="M14314 10018l 5-6 6-5 4-3 6-4 8-6 7-4 11-5 13-6 15-7 17-9 20-11 22-12-7 4 24-14 25-15 25-17 26-19 26-21 29-22 32-22 35-23 36-22 4-2 37-22-4 2 37-22 34-23 32-23 30-24 28-25 4-2"/>
<path d="M4798 3546l-5-7-4-7-3-6-4-7-3-7-3-7-1-7 0-9 1-8 1-9 3-8 3-8 3-8 4-7 5-8 4-7 6-8 5-6 7-8 8-8 6-5 9-7 10-7 7-4 12-6 7-3 13-4 13-5 14-3 15-4 14-3 15-4 15-3 14-3 15-3 8-1 14-2 15-2 14 0 13 0 13 1 11 2 11 4 7 2 9 5 8 6 6 7 4 8 2 8 1 10-1 13-2 15-2 8-6 16-7 18-10 20-4 7-12 22-15 23-16 24-4 5-16 23-18 22-18 21-5 6-19 20-20 20-21 19-21 19-20 18-19 18-19 17-17 15-15 15-14 14 5-5-10 12-9 12 4-5-7 10-6 10-6 8-4 7 4-7-3 6 2-8-1 5 1 4-2-8 3 3-7-2 6 1 9 1 10 0 12-2-8 2 14-3 16-3 17-4 19-4 19-5 20-7 20-7 19-7 19-7-7 2 20-8 19-8 20-9 20-9 8-3 7-1 7 2 2 7-2 8-4 7-4 6-8 8-6 4-7 3"/>
<path d="M5416 3527l 6-5"/>
<path d="M5641 3281l 5-6 2-3 6-5 4-3 6-4 4-3 8-3 4-1 5-2 6-1 6-1 7-2 7-1 6 0 6 0 6 1 6 1 5 1 5 1 7 3 5 2 3 4 2 5 2 7 0 7-1 6-2 8-3 6-4 7-3 6-4 7-4 7-5 7-5 7-5 6-4 6-4 6 4-6-3 5-3 5 4-7-2 5 2-8 1 4-3-8 4 4 6 3-7-3 6 2 7 1 8 0 8-1 10 0 10 0 10 0 10 0 11 0 9 1 10 1 9 1 9 2 9 2 9 2 8 3 7 3 7 3 7 4 7 5 5 6 4 6 3 7 2 8 2 8 2 8 1 8 0 10-2 9-2 8-3 11-5 11-4 7-6 11-7 12-8 12-5 6-9 12-9 12-9 11-10 12-8 8-11 11-11 11-12 11-7 4-13 9-13 9-14 8-13 7-7 3-14 6-12 5-12 3-8 2-11 3-11 2-10 1-9 0-9-1-8-1-9-2-7-2-5-3-4-5-4-7-2-6-2-6 1-8 3-7"/>
<path d="M6090 3378l 1-7 3-7 4-7 2-3 5-6 6-5 7-4 5-3 7-3 8-1 7-2-8 2"/>
<path d="M6368 3155l 0-4 1-4 4-7 4-7 3-5 5-6 5-4 6-6 6-5 7-5 8-5 7-4 8-4 10-5 11-4 7-3 11-4 10-4"/>
<path d="M6409 3204l-4 5-4 5-8 9-5 4-4 5 8-8-5 5-4 6-4 5-3 4 5-6-3 4 4-7-2 4-2 6 2-8 0 5-1 6 0 6 1 5-2-8 1 4 2 4 4 4 4 4 5 3 6 3-7-2 6 2 7 1 7 1 9 0 9-1 10 0 10-1 11-2 12-1 11-1 11-1 12-1 11-1 12 0 12-1 13 0 12 1 11 1 12 1 11 1 12 2 10 2 10 3 9 2 8 3 6 2 7 3 6 3 5 3 4 4 3 6 2 6 2 7 1 7 0 7-1 7-2 8-3 7-4 7-3 8-5 9-6 10-7 10-5 7-9 11-8 8-11 12-12 11-15 11-6 5-16 11-17 10-17 9-18 9-18 9-7 4-19 8-19 8-18 6-18 6-17 5-17 5-7 1-16 4-15 2-14 1-13 1-13 0-13 0-12-2-8-1-12-3-11-3-11-4"/>
<path d="M5874 4231l 8-8-4 5 4-6-3 6 3-7-4 9-4 11-5 12-5 14-6 16-5 18-5 20 2-8-5 22-3 23-2 25-2 25-1 25 1 24 3 22 4 20-2-6 7 19 8 16 11 15 12 13 14 12 14 10 14 9 15 6 15 6-6-3 14 3 14 2 13-1 13-2-8 1 13-3-7 3 12-5 13-7-7 4 11-7 10-8 9-8-6 5 8-8 7-8-5 6 6-9-5 7 5-9-4 8 3-9-1 8 1-10-2-9-3-10 3 7-5-10-7-8-9-9-11-9-11-8-12-8-12-7-13-6-13-4-13-2 8 1-13-1-13-1-13 1-12 3 8-2-11 3-11 3-9 5 7-3-9 5 6-5-8 7-7 7 8-8-6 7 4-6-4 8 3-7-4 9"/>
<path d="M5339 5729l-1 7-1 8-3 10-5 12-6 14-6 14-7 15-6 16-7 17-7 18-6 17-7 18-7 18-7 18-6 17-5 17-5 15-4 13-3 12 2-8-3 10-1 8 1 4-9-10 3 0-15 4 5-2-13 9 7-6-5 6 7-10-4 6 8-13 9-17 10-19 9-21-3 8 8-22 9-24 7-24 6-24 4-23 3-24-1 7 2-23 1-21 0-19-1-17 0-14 0-13-1-11 0-8 0-7 1-8 3-7 4-7 2-1 5-6 6-6 7-4 7-3 8-1 7 3 3 4 5 9 6 12 6 13 8 15 9 16 10 17 11 18 11 17 13 19 13 18 14 19 15 19 15 20 15 19 16 19 17 18 17 17 17 16 17 14 16 12 16 11 15 8 14 6-6-3 12 4 11 1 10 0 9-1-16 4 8-3-7 4 7-6-11 11 6-8-5 7 5-11-3 7 4-13 3-15 2-17-1 8 1-18-1-19-2-19-2-21-4-22-4-23-4-24-5-23-5-22-6-21-5-18-7-17-6-14-6-12-6-11-4-9 3 7-4-7-3-6-4-5-2-4-3-3"/>
<path d="M5712 5424l 3-3 3-3 6-5 4-4 4-4 5-3 7-4 7-3 7-3 8-2 8-3 8-2 8-1 8-2 8-1 8 0 8 0 7 1 7 1 5 2 7 2 6 3 5 3 3 3 3 5 2 7 1 6 0 7-1 8-2 8-2 9-4 9-4 7-5 9-6 9-6 9-6 10-5 6-7 9-7 9-6 7-6 7-5 7-4 5 5-7-3 5 6-15-1 4-2-8 3 4 4 3-7-3 5 2 6 1 5 0 6 0 6-1 7-1 9-1 9 0 11-1 12-1 12-2 13-2 7 3"/>
<path d="M6299 5662l-8 1 7-2-7 3 4-3 5-2 8-3 5-2 6-2-8 3 7-3 7-3 7-3 7-2 9-3 8-3"/>
<path d="M6282 5805l 4-6 5-6 6-5 6-4 5-3 5-4-7 4 7-4 6-5 7-4 8-4 10-4 10-5 12-5"/>
<path d="M6680 5523l 1-8 0-3 3-7 2-3 4-7 6-6 2-3 4-3 3-3 6-6 4-3 4-3 7-4 6-3 6-3 7-4 8-3 7-3 9-3 9-3 9-3 9-3 10-2 8-2 11-1 11 0 11 0 13 0 12 1 13 2 12 2 12 3 11 3 11 4 7 3 10 5 9 5 9 7 7 7 5 8 5 9 5 9 3 11 2 7 2 11 1 11-1 11-3 13-2 7-3 14-6 15-7 16-4 7-9 17-11 18-13 18-4 6-14 19-15 18-16 18-17 18-7 8-17 17-17 17-18 16-17 15-17 14-16 13-15 12-14 13-12 11-12 10-10 9-10 9-8 7-8 6-6 6-6 5-4 3 19-29-1 2-2-7 4 2-7-3 7 0 8 1 9-1 10-1 10-1-8 1 11-2 12-2 12-3 8-1 13-2 13-2 14-2 13-1 14-2 14-1 15 0 14 0 15 0 14 1 14 2 13 1 13 3 13 2 12 4 7 3 11 4 11 5 10 5 10 6 2 7"/>
<path d="M7251 5909l 4-2 8-1"/>
<path d="M7484 5377l 7-4 6-3 7-4 8-2 9-4-8 3 10-4 10-6 12-6 13-6 14-7 14-8 14-8 13-8-7 4 13-8 13-9 7-4"/>
<path d="M7516 5434l-8 9 8-8-9 9-9 11-9 10-9 10-8 10 5-6-7 10-7 11 4-7-5 10-4 10-2 8 2-8-2 8-1 7 1 7 1 7-2-8 2 6 4 6 5 4 7 4 8 4-7-3 9 2 11 1 12 1 13-1 16-2 16-3-8 2 18-4 16-3 15-3 15-3 13-3 12-3 11-2 8-1 10-2 11-1 10 0 11 0 11 1 11 1 11 1 11 3 10 2 11 3 11 3 10 3 7 3 10 4 10 5 9 5 8 5 7 6 6 8 6 8 4 9 4 9 2 7 3 9 1 10 0 11 0 11-2 11-2 8-4 11-4 11-4 7-6 12-7 12-9 12-4 7-10 12-8 8-11 11-12 11-13 10-6 5-14 10-14 8-15 8-7 3-14 7-15 6-14 5-15 4-8 2-15 3-17 3-16 1-16 1-16 0-16-1-15-3-8-1-14-3-12-3-11-4-8-5-7-6-7-6-3-7"/>
<path d="M8009 5692l 5 0 5 1 5 0 5 1 6 1 5 1 6 1 4 1 5 1 5 1 6 1 6 0 5 0 5-1-8 2 6-2 6-2 7-2 6-2-7 2 6-2 6-4 7-3-7 4 6-4 5-4-6 5 6-6 5-5-5 6 5-6 5-7 4-6-4 7 3-7-3 8 2-7 2-6 1-6-1 8 0-7-1-5-2-6 3 7-3-5-3-5-5-4-6-3-7-2-7-2 8 1-9-1-8 0-9 1-10 1-9 1 8-1-10 2-8 3-9 4 7-4-9 5-8 4-8 5 6-4-7 5-6 6 8-8-6 7-6 7-5 7 5-7-5 7-5 8-4 7 4-7-4 7-3 7-2 8 2-8-2 8-1 8-1 8-1 8 0 9 0 9 0 9 1 9 2 9 3 9-2-7 3 8 3 9 4 9 4 8 6 7 5 8 7 6 6 7 7 5 8 5 8 5 8 4-6-3 8 3 10 2 10 2 12 0 11 0 12-1 12-1 12-1 13-2 13-1 7 3 2 7"/>
<path d="M8345 5321l 6-3 7-3 6-2 7-1 8-2 9-2 9-4 11-4-8 3 11-4 7-3 12-5 13-5 13-4 13-5 13-4 12-4 13-4 14-4"/>
<path d="M8415 5344l-4 4-4 5 8-9-4 5-4 6 5-7-5 6-4 7-5 6-4 6 4-6-4 6-3 7 3-7-3 8-3 8-2 7-3 9 2-8-2 9-1 10-1 10-1 11 0 11 0 11 0 11 1 11 1 11 2 11 1 10 3 9-2-8 2 9 3 8 4 7 3 7 3 5 4 5 4 4 5 3-7-3 6 2 6 1 8 0 8 0 9-2-8 2 10-3 10-2 10-3 11-4 11-3 11-4 11-4 12-3 13-3 12-3 12-2 13-3 12-3 11-2 11-3 11-3 10-3 10-3 9-2 8-2 8-2 8-1 8-1 8-1 7-1 7 0 6 1 6 1 7 3 5 2 5 3 4 4 3 6 3 6 2 8 1 6 1 7-1 8-1 8-2 8-3 10-3 10-4 12-5 12-5 13-6 13-6 13-5 13-6 13-7 13-3 7-7 13-7 12-7 11-4 6-8 10-9 10-8 8-10 10-10 9-11 9-6 4-12 7-12 6-7 4-12 5-13 4-8 2-12 3-13 1-12 0-12-2-8-1-11-3-11-3-10-3-10-4-9-5-9-5-7-7-6-7-6-7-3-7"/>
<path d="M3803 8294l-1-4 1-8 1-4 3-7 4-7 3-4 5-6 6-5 4-4 6-4 8-5 9-5 10-6 11-7 11-8 12-8 7-4 13-8 14-7 13-8-7 4 12-8 13-9 12-9 12-9 13-9 14-9 13-9 13-8 13-8 7-5 13-7 13-7 12-5 7-3 12-5 9-3 7-1 8-1 7-1 5 0 5 2 7 3 4 3 3 4 2 7 2 7 1 10-1 11-1 15-2 18-4 22-4 24-6 27-2 7-7 29-9 29-9 30-8 29-8 30-8 29 1-4-7 28-6 28-6 27-4 25-4 23-1 21-1 19 1 16 2 13-1-5 3 9"/>
<path d="M4305 8277l 2-8-1 9-1 9 0 11 1 13 1 13 3 13-2-7 4 12 4 10 6 10 6 10 7 7 8 6 9 4-7-3 11 3 12 0 13-1-8 1 15-3 16-5 15-5-7 3 15-7 14-7-7 4 13-9 14-10 14-13-6 5 14-14-5 6 12-15 11-17-4 7 10-18 8-18-3 7 7-21 4-20 0 8 0-20-3-18-6-17 4 7-8-14-10-14-12-15-14-15-16-16-16-14-16-15-18-13-18-14-18-11-17-7-15-3 8 1-14 1-11 3 14-5-10 5-11 7 7-4-10 9 8-8-10 11 5-7-9 14-8 14 4-7-7 16-4 7"/>
<path d="M4778 8438l 1 4 1 4 1 6 1 8 0 8 1 11 0 10-1 11-1 12-1 13-1 14-2 14-2 16-1 17-2 18-3 18-3 18-2 8-4 7"/>
<path d="M4958 7899l-3 2 24-34 0 2-9-10 5 1 7 1-8 1 8-2 9-3-8 2 11-4 13-6 13-7 15-7 16-9 17-8 17-8 18-8 17-8 8-3 18-7 18-6 18-5 18-4 16-4 7-1 15-2 14-2 13 0 12 0 11 1 9 2 6 3 8 3 6 4 5 5 4 6 3 8 2 7 2 10 1 11 1 14-1 16 0 18-2 19-2 21-2 22-2 23-3 23-4 23-5 24-5 24-5 22-4 20-4 18-3 19-2 18 0 17 0 15 0 14 2 12 1 10 3 8-2-7 2 6 2 8-2 8-4 7-4 6-8 8"/>
<path d="M5499 7795l-6 5 4-4 4-4 6-6 5-4 5-3 7-4 5-3 7-4-7 4 8-5 8-5 7-4 9-5 9-4 8-3 10-3 10-3 9-3 9-3 9-1 8-1 8-1 8 2 7 2 7 3 7 3 7 5 5 6 4 8 3 10 2 7 1 11 1 13-1 15-2 16-4 18-2 8-5 19-6 21-7 21-8 22-10 23-12 22-4 6-13 21-13 20-14 19-12 18-11 17-10 15-8 14-7 13 4-7-5 12-3 10 2-8-2 8 0 8-2-8 3 6 5 4-7-2 7 2 9 1 11-2-8 1 13-3 15-4-8 2 15-6 16-7"/>
<path d="M5988 8166l 0 6 0 7-2 8-2 11-3 11-2 8-3 12-4 13-5 15-6 17-6 17-7 19-7 17-9 19-8 18-4 7-10 18-11 19"/>
<path d="M6016 7647l 3-3 3-4 5-5 6-5 5-5 8-5 7-4 9-5 11-6 13-6 14-8 15-8 16-8 17-7 17-7 8-3 17-7 18-6 17-6 16-6 16-5 14-4 12-3 10-3 8-1 10-2 8 0 8 2 7 3 6 3 6 3 5 5 4 5 3 8 2 7 2 10 2 11 1 13 0 14-1 17-2 17-2 19-3 20-4 20-4 22-4 21-4 21-4 22-5 21-4 22-3 21-3 21-4 21-3 20-2 19-2 19-1 18-1 17 0 14 1 13 0 12 2 10 1 8 2 6-2-7 2 5 2 7"/>
<path d="M6489 7582l-2-4 0-4 0-3 1-8 0-3 3-8 2-3 5-7 5-6 3-3 6-5 5-4 7-4 6-3 7-3 8-3 10-2 11-3 11-3 12-3 12-3 12-2 8-2 12-1 11-2 11-1 11 0 10 1 10 2 9 2 6 3 9 3 7 5 5 6 5 7 4 8 2 8 2 10 1 11-1 13-3 14-2 8-4 15-5 15-7 18-8 19-9 20-10 21-4 7-12 20-12 20-14 19-5 6-14 18-14 18-14 17-13 17-11 16 4-6-9 15-8 13-6 12 4-6-4 10 2-7-1 9 0 8-2-7 2 7 5 6 6 4 7 4-7-3 9 3 11 1 11 1 13-1 13-2-8 2 13-3 13-3 14-4 14-5 15-6 17-7 17-7 18-7 18-6 19-7 18-6 19-7"/>
<path d="M6997 7862l 1 6 0 8-1 8 0 9-1 9 0 11-1 11-1 12-1 13-2 12-1 12-2 13-3 13-3 14-2 7-3 14-4 14-5 13-4 14-4 12-4 12-6 13-5 11-4 12-4 7"/>
<path d="M7142 7434l 4-6 5-6 6-5 4-3 7-4 7-3 7-3 10-3 12-2 8-1 13-2-8 1 15-4 16-5-7 3 17-7 16-8 16-8 17-8 16-8 17-7 17-7 7-3 17-7 15-5 15-4 13-3 12-3 8-1 12-2 9 1 9 1 7 2 7 3 6 2 4 3 3 5 3 7 2 7 2 8 0 8-2 10-2 12-3 13-2 8-4 14-4 15-5 15-6 15-6 17-7 18-7 20-7 20-8 21-7 21-6 21-6 21-6 20 2-7-4 20-4 19-3 17-1 17-2 14-1 12 0 10 0 10 0 7"/>
<path d="M7688 7441l-3 6-3 8-3 9-3 10 2-8-2 11-1 11-1 13 1 12 3 13 3 13-2-8 4 13 6 12 7 12 8 10 8 10 10 9 11 9 11 8 12 7 13 6-7-3 13 5 13 3 14 2 14 0 14-1-8 1 14-3 14-4 14-6-7 3 12-7-6 5 11-9-6 6 11-10-6 6 10-12-5 6 9-13 6-14-3 7 5-15 3-15 0 8 1-15-2-16-2-16-5-17-8-18 4 7-9-19-11-17-12-17-12-15-13-15-13-12-14-11-14-8-13-6-14-5-13-3 8 2-12-1-11 1 7-2-11 4-12 5 7-4-11 7 7-5-11 9 8-8-10 11-10 13-8 8"/>
<path d="M4732 6973l-1-3 0-4-1-3-2-4 4 7-2-3-2-3-3-2-3-1 8 1-5 0 8-2-6 2 8-3-6 3 6-5-6 5-6 6-6 7 8-9-7 8-7 8 5-6-6 9-6 10-7 11 4-7-6 12-5 12-4 12-4 11-3 10 2-8-3 11-1 9 0 10 1 8 2 7-2-8 2 6 4 7 5 6 6 7 7 6 9 5 8 4 10 5 11 5 11 5 11 4 12 5 12 6 13 6 13 6 13 8 13 7 14 8 13 8 13 9 14 8 14 9 14 8 13 9 13 7 12 8 11 7 8 7 8 7 6 7 6 7 4 6 4 7 2 8 2 7 0 7 0 7-2 8-3 7-3 7-4 7-5 6-8 8-7 6-7 5-10 6-7 3-12 6-15 5-17 3-8 2-18 3-19 1-20-1-19-1-19-3-8-1-17-4-16-5-15-6-12-8-9-9-7-11-4-7-5-13-4-14-3-14-1-15 0-15 1-8 2-16 4-18 5-17 6-18 7-17 3-7 9-19 10-18 11-20 11-20 13-20 4-6 14-21 15-20 17-20 4-5 17-20 18-19 18-19"/>
<path d="M5064 6909l-3 5-3 5 4-7-3 7-4 8-3 9-3 10-3 10 2-8-2 11-1 11-1 11 0 12 1 12 2 12 3 12-3-8 4 12 5 11 6 12 7 11 6 10 7 10 7 10 9 8 9 8 11 6 10 6 11 5-7-3 10 3 11 2 11 1 11-1-8 2 12-2 13-4-8 3 13-6 11-7-6 4 11-8-6 5 10-9 10-11-5 6 9-12-5 6 8-13 6-15-3 7 5-15 4-16 2-15-1 8 0-16-3-16-5-16-6-16 3 7-8-15-11-15-11-14-13-13-13-11-14-11-13-8-14-5-13-4-13-2 8 1-13 0-13 2 7-2-12 4 7-3-12 6 7-4-11 9 8-8-10 11-9 12-8 8"/>
<path d="M6019 6681l-7-2-6-2-6-1 8 1-7 0-6 0-6 1-6 1 8-2-5 2 7-3-4 2 7-5-4 3 8-8-2 3 4-7-2 4-2 4 4-8-2 5-2 4 2-7 0 5-1 6 0 6 1 5 1 5-2-7 2 5 2 6 2 6 4 5 3 5 5 5 5 4 7 4 8 4-7-3 9 3 11 3 12 3 14 3 16 3 17 3 18 2 20 3 20 3 20 3 21 4 19 4 19 4 17 5 7 3 16 6 14 6 12 6 11 7 9 7 8 8 7 8 5 10 3 10 2 7 2 12 0 12-2 13-2 8-4 13-5 15-8 16-4 7-10 16-5 6-13 17-8 8-16 16-19 16-6 4-20 14-22 12-23 11-6 3-22 8-22 5-6 1-21 3-21 1-19 0-17-1-6-2-16-3-14-5-13-8-10-10-8-12-4-7-6-15-3-16-2-19 0-19 1-19 1-8 4-20 5-21 7-22 9-22 3-7 10-22 11-23 12-22 13-24 15-24 3-5 15-22 16-22 17-21 3-4 18-20 19-18 3-3 19-17 19-15 19-15 4-2"/>
<path d="M6445 6532l 0 6 1 8 2 9 2 10 2 11 2 13 4 14 4 15 4 17 5 18 4 18 5 19 4 18 5 19 5 19 5 19-2-7 6 18 6 18 7 18 7 20 8 19 8 20"/>
<path d="M7090 6507l-7-2-7-1 8 1-8-1-8-1-8 0-8 1 7-2-8 2-9 3-9 3-8 3-8 4 7-3-8 5 6-5-7 6-6 5 8-8-5 6 5-6-4 5-3 5 4-7-2 5 2-8-1 5 0 5-2-7 2 5 4 5 5 4 6 5 7 5 8 4 10 4-7-3 11 4 11 4 12 4 7 3 13 5 13 6 14 6 14 8 15 7 16 8 15 8 16 9 15 9 16 10 14 9 14 10 13 9 12 11 10 11 9 11 7 10 5 10 5 10 2 7 3 11 1 11 0 11-2 12-2 7-3 12-4 7-7 11-4 6-10 12-8 8-13 11-6 4-16 11-18 10-7 3-20 10-21 8-22 8-21 6-7 2-20 4-19 2-18 0-17-1-7-1-15-3-14-5-13-6-11-8-9-8-8-11-3-7-6-12-4-14-3-16-2-19-1-19 1-22 1-7 3-22 5-23 6-23 9-22 2-7 10-22 11-21 11-20 12-19 4-6 12-18 13-17 5-5 13-16 15-15 15-14 5-5 15-13 17-11 6-3 18-11 18-9 18-11"/>
<path d="M7440 6430l 8 1-5 2 14-5-4 2-5 4 6-5-5 4-6 6 8-8-5 7 5-6-6 7-5 9-6 9 4-7-6 11-5 12-4 12 2-8-2 12-2 13-1 14 0 15 2 14 3 15-2-8 4 15 6 15 7 14 8 14 8 13 9 12 9 11 10 10 11 8 11 7 12 5-7-3 13 4 12 2 12 3 12 0 12-1-8 2 12-3 12-5-8 3 12-6-7 4 11-8 11-8-6 5 9-10-5 6 8-12-4 7 7-13 6-13-3 7 5-12 4-13 2-12-1 8 1-12 0-12-2-11-3-11-4-11-5-11 4 7-7-12-8-10-10-10-10-8-11-8-11-6-11-5-11-2 8 1-11-2-12 0-10 0-10 2 8-2-9 3 7-3-9 5 6-5-8 7-7 4"/>
<path d="M5308 8847l 2 6-2 9-2 7-5 11-6 14-6 15-6 17-6 17-5 17 2-7-3 18-4 19-2 17-1 17 0 15 2 15 3 13-2-7 4 12 6 12 6 11 8 10 8 8 9 8 8 7 9 5 9 4-7-3 10 2 11 1 11 0 11-2-8 2 11-2 11-3 11-5-7 3 10-5-7 4 10-6 8-6 7-6-11 11 6-7-5 7 4-7-3 7 2-7 1-6-1 8-1-7-3-6 3 7-4-6-6-6-7-6-9-5-9-4-10-3-10-2 8 1-10-2-10 0-9 1-8 2 8-2-8 3 7-3-8 4-7 4-6 5 6-5-6 4-5 4-4 4-4 4-6 4-7 4"/>
<path d="M5538 8900l-4 4 8-8-4 5-4 6 5-7-4 6-4 7-4 6 4-7-4 7-3 7-3 8-3 8-3 8-3 8-2 8-2 8 2-8-2 8-1 8 0 8 0 5 1 6-2-8 1 5 3 5 4 3-6-3 5 2 8 2 8 1 10 0 10-2 11-1 11-2 12-2-8 2 13-3 13-5-8 3 12-7-7 4 12-8 11-8 11-9-6 5 11-11 12-12 13-12"/>
<path d="M5622 8894l-3 4 12-15-2 4 4-7-2 5-1 5 2-8-1 7-1 7 0 8 1 8 3 10-2-8 3 11 4 11 5 12 4 12 5 13 4 12 4 13 5 12 5 13 6 12 6 12 6 11 6 11 7 11 8 9 9 9 2 7"/>
<path d="M5974 9085l 0 5 0 5 0 7-2 7-1 7-2 8-1 8 0 9-2 11-2 12-2 12-2 13-2 14-2 8"/>
<path d="M6234 8705l 7-3-6 4 6-5-7 6-8 7-8 8 8-8-9 9-7 10 4-6-6 11 4-7-5 13-4 15 2-8-3 16-1 17 1 18 4 20 4 19-2-7 7 20 7 19 9 20 9 18 10 17 11 15 11 13 12 11 12 11 11 9 11 8 12 6-7-3 12 4 12 2 12 1 13-1-8 1 12-3-7 3 10-5 10-5-7 4 9-7-6 5 7-7-5 6 6-9-7 13 4-10 2-11-1 8 0-11-2-10-4-10 3 7-6-9-7-9-10-7-10-6-11-4-10-3-11-2 8 2-11-1-10 2 8-2-10 3-10 4-10 5 7-4-11 6-11 7-10 7 6-4-9 7-9 7-7 8 13-15-5 7 3-7-3 7-2 7-4 7-5 7"/>
<path d="M6532 8677l 0-4 1-4 3-8 2-4 3-6 5-6 4-6 5-6 5-5 5-5 6-6 6-5 7-6 7-6 8-5 8-6 8-5 7-4 7-4 7-3 8-3 6-3 7-2 8-1 6-1 5 1 7 3 4 2 4 4 3 6 2 7 2 7 0 7-2 9-2 10-2 8-3 11-4 11-5 11-5 12-5 11-6 12-5 10-6 10-3 7-5 10-5 8-4 7-3 6 4-7-2 5-2 4 2-7 0 4-2-8 2 4 4 3 4 3 4 3 4 1-7-2 5 1 5 2 6 0 6 1 6 1 7 1 7 0 7 1 8 1 7 2 8 1 6 2 7 2 6 2 7 2 5 3 5 2 4 3 3 4 2 5 2 8 2 5 0 6 0 6-1 7-1 8-2 8-3 8-3 10-4 9-5 11-5 12-6 12-6 13-7 14-3 7-7 13-8 14-7 13-8 13"/>
<path d="M6910 8861l 5 3 4 4 5 4 5 4 5 5 5 6 6 6 5 6 6 7 5 7 5 8 5 8 4 9 4 9 3 10 2 8 3 11 2 11 1 11 1 12-1 13-1 13-1 14-2 12-2 8"/>
<path d="M7319 8379l-2 8-2 9-3 11-3 12-3 14 2-7-4 15-3 16-2 18-1 20-1 20 1 21 2 20 2 21 3 20 4 20 4 20 4 18 6 18-2-7 5 16 6 15 7 13 7 12 7 11 8 9 10 9 10 7 10 6 10 4-7-3 11 3 11 2 11 1 11 0 11-2-8 2 12-3 11-3 11-4-8 3 10-5 10-5-7 4 9-6 8-7-6 5 6-7-5 6 5-8-4 7 5-9 4-8-4 7 3-9 2-9-1 8-1-11-3-11-5-11 4 7-6-10-7-9-8-8-9-7-10-5-10-4-11-2 8 1-11-2-11 0-11 0-10 2-11 2 8-2-10 3-11 4-9 4-9 4 7-4-9 5-7 5-7 4-6 4 6-4-5 4-5 5 8-8-4 5 4-7-3 5-3 5"/>
<path d="M7729 8302l 6-4-3 3-4 4 8-8-4 5 4-6-4 6-4 8 4-7-4 9-4 11-4 12 2-7-3 12-2 14-2 14-1 14-1 14-1 15 0 15 1 15 1 14 1 15 3 14 2 14 4 14-2-7 4 13 6 12 5 11 7 10 7 9 9 8 9 7 9 6 10 5-7-3 11 4 10 2 11 2 11 1 11-1 12-2-8 1 11-3-7 3 11-6-7 4 10-6 10-7 10-9-6 6 9-9 9-10-5 6 8-11-5 6 8-12 6-12-3 7 5-13 4-13 3-14 1-13-1 7 0-14-2-15-5-14-7-15 4 7-9-14-11-13-11-11-13-10-14-7-14-6-14-2 8 1-15 0-14 1-15 3 8-1-15 4-15 6 7-3-14 8 7-5-13 10-12 11"/>
<path d="M7101 3714l 7-3 8-3 10-4 11-3 12-3 13-2 8-2 15-2 17-2-8 1 17-3 18-4 16-3 16-4 16-4 16-5 14-5-7 3 14-7 14-6 14-6"/>
<path d="M7197 3644l 4-7-2 5 2-7-2 7-1 8-2 10-1 11 1 13 2 15 2 16 3 16 4 17 4 18 4 18 5 18-2-7 6 18 6 17 6 17 3 7"/>
<path d="M7535 3484l 6-3 7-2 8-3 9-2 10-2 11-2 11-3 11-2 8-1 12-2 11-1 10-1 11-1 10-1 11 0 9 0 9 1 8 1 8 2 7 3 7 2 7 3 5 4 4 5 3 6 2 8 2 7 0 8-1 9-2 8-3 9-4 9-4 7-6 11-7 11-8 11-4 6-9 11-9 10-8 11-9 10-8 10-8 9-7 9-8 8-7 7-6 7 8-9-5 6 4-6-3 5 4-7-2 5 2-8 0 4-2-8 3 4 5 2-7-3 5 2 7 0 7 0 7 0 7 0 8-1 8 0 9 0 9 1 8 1 8 2 8 2 6 3 8 3 7 3 7 4 7 5 6 4 5 5 4 5 3 6 3 7 2 7 1 8-1 8-1 8-2 8-4 9-4 7-5 9-6 10-7 11-5 6-8 11-9 12-10 13-10 13-11 12-8 8-11 12-11 10-11 10-10 10-10 8-9 8-7 4-10 6-7 4-9 4-8 3-7 3-6 1-5 2-7 2"/>
<path d="M7995 3683l"/>
<path d="M8229 3457l-4 7 4-7-4 9-5 10-4 7-5 11-7 11-6 12-7 12 4-7-6 13-6 13-5 13-6 13-5 13-4 11-4 11-4 11 2-8-2 9-1 9 0 8 1 6-2-7 3 5 4 5 5 4 7 3-7-3 10 3 11 1 13 1 15-1 16-1 16-1 15-1 15-1 13-2 13-1 12-2-8 1 11-2 10-2 10-2 8-2 9-1 10-2 9 0 9-1 8-1-8 1 9-1 8-2 8-1"/>
<path d="M8268 3634l 2-8-1 5 0 5-1 6 0 7 0 7 1 7 2 8 1 9 3 9-2-8 3 10 4 10 3 11 3 10 4 12 5 11 5 11 5 11 5 12 4 13"/>
<path d="M8561 3632l 6-3 7-4 7-4 8-4 8-2 8-3 9-2 9-3 9-2 9-4 11-3 11-3 11-2 11-3 13-5 13-4 13-3 8-1 7 2"/>
<path d="M8576 3693l 7-2 7-3 9-3 10-3 13-4 13-6"/>
<path d="M9101 3328l-1 6 2-7-1 7 0 9-1 11 0 13 0 14 0 15 2 16 2 17 3 17 3 18 4 18 4 18 4 18 4 19 4 20 3 18 2 18 2 18 2 19 1 20 1 20 1 20 1 19 0 19 0 17 0 16 1 15 0 14"/>
<path d="M9390 3308l 7 0 8-1 9 0 10 0 12 0 12 1 14 1 14 0 15 1 16 0 17 0 17 0 17-1 17-1 15-1 15-2 13-2 13-2 12-1 11-2 10-2 10 0 9-1 8 0 7 0 6 1 7 3 5 2 3 4 2 7 1 6 0 8-1 9-2 7-3 10-4 11-5 13-6 15-6 16-7 18-6 19-6 21-7 22-7 22-6 22-7 23 2-7-7 23-5 23-6 24-5 24-4 24-5 24-4 24-5 24-4 24-3 24-4 23-3 22-4 21-3 20-3 17-3 15-3 14-2 12"/>
<path d="M17735 9339l-4-8-4-8-2-8-2-9-1-8 0-7 1-8 1-6 3-7 5-6 3-5 4-6 5-6 5-5 6-5 6-4 7-4 6-3 7-4 8-3 9-3 11-4 12-5 12-4 13-5 14-5 15-4 15-4 15-4 16-3 15-3 15-3 8-2 15-1 14-1 14 1 13 2 12 4 7 3 9 5 8 6 5 8 2 7 3 10 0 12-3 13-2 8-6 14-4 8-9 16-12 18-14 19-4 6-16 20-17 19-18 19-6 7-19 17-21 17-22 16-4 3-23 16-23 16-23 15-22 13-19 13-18 13 4-3-15 13-13 12-11 11 7-7-8 10 4-6-5 9 3-7-3 7 2-7 0 6 1 7-2-7 5 6 8 5-7-2 11 3 14 2 17 1 20 0 22 0 25-3-8 1 25-4 26-7 26-7 27-8 28-10-4 2 31-13 35-14 37-15 39-16 40-17"/>
<path d="M18356 9141l 8-2-7 2 7-3-6 3-7 4-7 5 7-5-8 6-7 8 8-8-8 9-8 10-8 10-8 10-8 11 4-6-8 11-8 13-7 14 3-7-6 14-5 13-5 13-4 11 2-7-2 10-1 10 0 7 1 7-2-7 4 5 5 6 7 5 8 4-7-3 10 3 12 2 13-1 15 0 17-2 19-2 21-3 23-2 24-2 24-2 24-2 24-3 22-3-6 1 19-4 18-5 7-1"/>
<path d="M18568 9156l-1 7-3 7-3 8-3 8-3 10 2-8-2 12-3 12-3 14-3 15-2 15-1 16-1 16-1 16 0 16 1 16 1 15 3 14 3 13-2-7 5 14 5 13 7 14"/>
<path d="M18946 9105l-6-3-7-2-7-1 8 1-7 0-8 0-9 0-9 2-11 2-12 2-12 2-12 3 8-2-12 3-12 3-11 3-10 4 7-4-9 5 7-4-8 5-6 7 12-15-5 8-3 7 3-7-2 8 2-8-1 8 1 10 2 10-2-7 4 10 5 10 7 11 9 11 11 11 12 11 14 11 14 10 15 10 15 10 15 8 15 7 15 6 14 6 14 7 14 6 13 7 12 8 11 8 10 8 8 8 6 9 5 8 2 8 2 9-1 9-2 8-2 9-4 7-5 9-5 6-6 10-9 10-10 12-8 8-12 11-13 11-6 4-14 10-14 8-7 3-15 7-15 5-8 1-15 3-16 1-16-1-8-2-15-4-15-6-14-9-12-12-9-13-8-14-3-7-5-15-3-16 1-16 1-8 4-18 7-19 3-7 10-21 12-22 4-6 14-23 16-22 18-21 4-5 17-20 18-19 19-17 4-3 19-17 20-16 21-14 4-3 22-12 24-12 25-10 4-1 5-1 4 1"/>
<path d="M19334 9089l-4-5-5-5-6-5-6-6-7-5-8-4-8-3-8-1 8 1-8-1-8 0-7 2 7-2-7 3-8 3-7 3 7-3-7 3-6 4 6-5-6 5-5 4-5 5 13-14-4 5 6-15-1 7 0 7-2-7 4 7 6 5 8 5 8 4-7-3 10 3 10 2 11 1 12 0 12 1 13 0 13 1 12 1 11 0 11 0 8 1 7 2 7 3 5 3 2 6 2 8 0 7-2 8-2 7-3 7-2 6-2 6-2 7 2-8-2 8-1 8-1 8 0 10 0 11 0 12 1 14 1 14 1 14 1 15 2 15 1 14 1 15 1 15 0 15 0 16-1 15 0 15 0 16 0 16 0 15 0 15 0 15-2 8-4 7"/>
<path d="M3131 9285l-7-4-9-3-9-2 8 1-9-1-10 0-9 1 7-2-9 3-8 4 7-4-8 6 6-4-8 8 13-15-7 10-6 11 4-7-6 13-5 15-5 16 2-8-3 18-2 20-3 24-3 28-3 32-3 34-2 35 1 38 3 39 4 40 6 36 7 33 8 30-1-3 9 25 10 20 12 16 13 14 14 11 15 8-6-2 16 6 18 3 19 0 20-3-8 2 20-6-8 2 18-9-6 4 16-11-6 5 14-14-5 6 12-14 10-15-4 6 7-15-3 7 6-14 3-13 2-11-1 8 0-10-2-10-3-10 3 7-5-10-7-10-8-9-10-8-13-6-13-5-14-3 8 2-13-1-13 0-13 3 8-2-12 5 7-3-10 7 7-5-9 9 7-8-8 10 5-7-8 11-6 10 4-7-5 11-4 11-3 10 2-7-1 9 1 7-2-7 2 6 4 5 4 4 2 7-1 8"/>
<path d="M3440 9413l 8-8-6 7-6 8-7 8 5-7-6 10 4-7-6 10-4 11-3 12 2-8-2 12-1 12 0 11 3 12-2-8 4 12 5 12 8 11 8 11 11 10 10 10 12 7 11 6-6-3 12 5 13 3 15 2 16 1 16 0-8 1 16-3 17-5-8 3 17-7 16-8-7 4 15-10 12-10-6 5 10-11-5 6 8-12-4 6 6-13-3 7 4-13 2-14-1 8 1-13-1-14-2-13-3-13-6-14 3 7-7-14-10-13-12-13-13-11-15-10-15-10-16-8-16-7-14-5-13-3 8 1-12-2-12 0-11 2 7-2-10 5 7-4-10 6 6-4-9 8-9 9 8-8-9 10 5-6-8 11-5 6"/>
<path d="M4308 9009l 0-3-2-5-1-5-2-4 3 7-2-1 37-16-2 3 8-14-3 8-3 11 2-8-2 13-2 17-2 19-3 23-3 26-4 29-4 32-4 32-3 34-2 35 0 33 0 31 1 28 2 27 2 24 5 22 5 20-1-4 6 17 8 16 9 12 11 10 11 7 11 6 12 5-7-3 12 3 13 2 12-1-8 1 12-2 11-5-8 3 10-5-7 4 10-7 9-8-6 5 8-9-5 6 7-10-5 7 7-11 5-11-4 7 4-11 2-11-1 8 0-11-1-12-3-11-3-11-4-11 3 7-5-11-7-9-8-9-9-9-11-6-10-6-10-5-11-3 8 1-11-1-10 0-9 1 7-1-9 2-8 4 7-4-8 5 6-4-7 5-7 6 8-8-6 7-5 7 4-6-4 6-4 7 4-8-2 6 2-7-1 5-1 5-2 8-3 7-5 7-8 8-7 5"/>
<path d="M4493 9113l-3-2-3-7-1-3 1-8 1-4 3-7 4-7 3-4 6-6 6-5 4-4 7-4 7-5 9-5 10-6 7-4 11-7 12-5 12-6 12-5 11-6 8-2 10-4 10-3 9-2 8-1 9-2 8 0 7 0 6 1 7 3 6 2 4 4 3 5 2 7 2 8 0 8-2 10-2 7-3 11-5 11-5 12-4 7-6 12-7 13-8 13-8 13-9 14-8 13-8 12-8 11-6 9-5 8-3 6 6-15-1 4-2-7 2 3-7-3 5 1 6 1 7-1-8 1 7-2 7-2 8-2 7-3 8-2 9-2 8-1 8-2 9-1 9-1 10 0 9 0 10 0 9 1 8 2 7 2 7 3 6 3 6 3 4 5 3 5 2 7 2 6 0 7-1 8-2 8-2 8-3 9-4 11-5 11-5 11-4 7-6 12-8 12-8 12-4 6-9 11-9 11-9 11-8 10-8 9-8 8-7 8-7 7-7 6-7 5-6 5-6 4-5 3-7 3-6 3-7 1"/>
<path d="M5005 9356l 4-7-2 5-2 5-3 7-3 7-3 8-3 8-3 9-4 8-4 10-4 11-4 11-4 13-5 14-6 15-6 17-7 17-8 18-9 19-4 7"/>
<path d="M3982 9602l 5 6 4 7 3 7 3 8 2 8 3 10 1 12 1 13 1 14 0 16"/>
<path d="M2001 10808l 1-3 4-7 2-2 5-6 6-5 1-2 7-4 8-3 2 0 8-1 2 0 7 3 3 1 4 3 3 5 4 7 4 8 4 11 2 8 3 13 2 15 2 16 2 19-1 21-2 28-4 29-3 25-3 25-3 27-4 29-6 32-6 33-6 33-7 33-7 33-8 35-7 34-7 34-5 34-4 32-3 32-2 30 0 29 1 26 3 24 4 20-1-4 5 18 8 17 8 15 10 13 11 10 12 8 14 5-7-3 14 1 14-1-8 1 14-5-15 7 17-10 24-18 34-28-5 5 37-31"/>
<path d="M1809 11338l-1-3 1-8 1-4 3-7 3-5 4-7 5-6 5-6 6-5 8-6 9-6 7-4 11-6 14-7 16-7 7-3 19-7 21-7 23-6 22-7 23-7 22-7 22-7 21-6 20-5"/>
<path d="M2333 11351l-2 8 2-8-2 8-1 8-2 10-1 11-1 12 0 11 1 12 2 12 1 12 3 12-2-8 4 11 5 11 6 10 6 9 7 7 8 7 8 5 9 4-7-3 9 2 10 0 9-1-8 2 9-3-7 3 10-4-7 4 10-8-7 6 10-10-5 6 9-12 9-12-4 6 8-13 6-15-3 8 6-16 5-17 4-19 1-19 0 8-1-17-1-14-3-11-5-10 4 7-7-10-7-10-8-9-8-8-9-7-9-7-10-5-9-3 8 2-10-2-10 0-10 0-9 1-7 1 8-2-5 2-5 2 7-3-5 3 7-5-5 4-5 5"/>
<path d="M2708 11112l 7-4 7-3 7-1 7 3 2 7"/>
<path d="M2770 11276l-4 7-4 6-2 3"/>
<path d="M3522 10984l-3-7-4-6 4 7-4-6-5-7-4-7-5-7-6-6-6-5-5-3-6-3-5-3-6-3-6-1 8 1-6-1 8-1-5 1-5 2 7-3-4 2 7-4-4 3 8-8-4 4 9-13-3 6-2 7 2-8-1 8-2 11-2 14-1 16 0 15 1 15 1 16 3 19 2 21 3 22 3 22 4 23 2 25 2 24 2 24 2 25 1 26 0 30 0 35-1 34 1 26 1 22 1 23 0 24 0 26-2 26-2 26-2 25-3 24-3 24-5 23-4 23-2 4-2 5"/>
<path d="M3274 11353l 6-5 4-4 5-4 6-4 7-4 8-5 10-5 12-6 13-7 13-6 15-7 15-8 16-8 18-8 8-2 22-8 23-7 18-4 18-5 8-2"/>
<path d="M3719 11530l 0 7-1 7 0 8 0 8 1 9 1 9 2 8 1 7 1 7 0 6 1 7 1 7 0 8 1 8 1 8 2 8 1 7 0 8 1 7 0 7 1 5-1 5-2 8-4 7-2 3-5 7-8 8-6 5-7 3-3 1-8 2-7-1-3-2-4-4-4-7-3-7-4-9-4-10-2-12-3-13-1-14-1-14-1-15 1-16 1-16 1-8 1-15 3-14 3-15 4-17 4-18 6-15 4-11 3-7 5-10 6-9 6-12 8-12 4-7 8-11 5-6 6-8 7-6 6-5 7-6"/>
<path d="M3915 11481l-5 6 8-8-5 6-5 6 4-6-4 6-5 8 4-7-5 10-4 11-3 12 2-8-2 11-1 9 0 8 1 9 3 9-2-8 4 9 5 9 7 8 7 7 9 6 10 6 10 5-7-3 11 4 11 2 12 0 12-1-8 2 13-3 13-3-8 3 10-5-7 4 8-5 7-6-6 5 7-7-5 6 5-7-4 7 4-7 3-7-3 7 2-7 0 8 0-8-1-8-3-8 3 7-5-8-6-8-7-8-9-9-8-9-10-9-9-8-10-7-9-7-8-5-8-5-7-4-5-3-4-3-2-3-4-7-1-4 1-8 1-3 4-7 4-7 3-4 5-6 6-5 5-4 6-5 7-4 7-4 9-5 8-4 8-3 7-3 8-2 8-2 8-1 8 0 9 1 10 1 8 3 7 3 8 3 8 4 6 5 7 7 6 7 5 8 5 8 4 8 4 9 3 9 3 8 3 8 2 7 2 9 2 10 2 10 1 8 0 7 1 5 0 5 0 4 0 5 1 3-2-7 1 1-35 11 2-3-9 13 2-5 4-8 3-8 4-8 4-7 4-6 4-7 4-6-4 7 3-6 4-6 4-7 3-5 3-5 4-4 5-6 4-5 6-5 4-3 7-4 8-3 5-1 8-2 5 2 7 3 6 5 5 7 4 7 3 8 3 8 2 8 2 8 2 7-2-7 2 7 3 6 2 5 4 4 5 4 5 2-7-3 6 1-8 1 6-1-8 3 6-3-7 4 7-5 8-6 8-7-6 5 8-8 8-8 7-9 7-8 7-6 6-6 5-5 5-5 6-5 4-4 5-3 4-4 4-3 5-3 7-4 7-3 5-2 8-1 6 0 7 2 7 3 6 4 6 5 5 5 4 5 4 6 4 6 4 5 3 6 4 6 4 5 4 7 5 7 5 6 5 6 5 5 6 4 5 5"/>
<path d="M4989 11351l-1 6-1 8-2 8-2 8-2 8-3 10-3 10 2-8-3 11-2 10-2 9-2 9-2 10-1 9-1 8-1 7-1 5-1 6 0 6-2-8 2 3-15-2 4-1-14 7 5-4 5-4-6 5 6-6 6-7-5 6 6-8 6-9 6-9 7-10 7-11 7-10 7-10 8-9 5-6 8-9 7-9 6-7 5-5 6-5 4-4 4-2 7-4 4-3 8-3 4-1 8-1 4 0 7 3 5 2 4 3 4 5 4 5 4 6 3 7 2 7 3 7 2 8 2 8 2 8 3 7 2 8 3 7 3 5 5 2-7-3 5 1 6-1-8 1 7-2-8 3 7-3 8-4-7 4 8-5 8-5 8-7 8-7 8-6 7-7-6 5 8-6 7-7 7-8 6-6 6-5 6-5 7-4 6-3 7-3 8-1 6-1 5 1 7 3 4 2 5 3 5 3 5 4 4 4 4 5 4 5 4 5 5 5 5 6 5 5 7 5 6 4 7 4 6 3-7-3 7 2 9 3 10 2 9 1 7 0 7 0 7 3"/>
<path d="M5480 11449l 1 5 1 5-2-8 4 4-7-3 10 0"/>
<path d="M5498 11151l-3 4 18-30 0 5 0 5-2 7-4 7-5 7"/>
<path d="M5668 11391l 8-8-3 4-4 4-3 5 4-7-3 4 4-7-2 5-2 6 2-8-1 6-1 6-1 6-1 7 0 7-1 8 0 7 1 6 1 6-2-8 2 6 3 5 3 4 4 3-7-3 4 0-16 4 5-2-7 4 6-3 6-5 7-6-6 5 8-7-6 6 7-9 7-10 7-10 8-11 7-9 7-10 7-9 5-6 8-9 7-6 6-5 6-5 7-4 7-4 5-4 6-2 7-3 8-1 6-1 5 1 7 3 5 4 5 4 3 6 3 6 3 6 3 6 3 8 4 8 4 10 4 10 5 11 6 11 6 13 7 12 8 11 8 11 2 8-2 8"/>
<path d="M9951 13638l-1-5 0-6 0-6 0-6 1-8 1-7 1-7 2-8 2-8 2-8 3-9 3-8 3-9 4-9 3-7 4-10 5-9 4-9 5-10-4 7 5-11 4-11 3-7 5-11 5-11 6-11 5-11 7-12 6-12 6-12 7-11 4-7 8-11 7-11 8-11 8-11 6-6 8-10 10-11 9-10 10-10 10-10 10-10 6-5 11-9 10-9 10-9 11-7 11-7 7-5 12-6 12-6 12-6 12-5 11-5 8-3 11-4 11-4 10-4 11-4 10-3 10-4 8-3 9-3 7-3 8-2 7-2 7-2 7-1 7 0 6-1 7 0 7 1 7 1 7 3 7 3 6 3 6 5 7 5 7 6 6 8 6 9 7 10 6 12 6 12 6 14 6 13 7 14 5 13 5 14 5 14 5 14 5 15 5 15 2 8 4 15 4 15 4 14 4 15 3 14 3 13 3 13 4 12 3 11-2-7 3 11 3 11 2 7 3 11 2 10 2 9 1 10 2 9 2 8 1 7 1 6"/>
<path d="M10437 13502l 4 7 5 7 4 7 5 6 4 5 5 6 5 7 7 5 7 6 8 5 8 5 7 5 7 4 7 3-7-3 7 3 7 2 8 1 7 1 7 1 7 0 7 0 7-1-8 2 7-2 7-2-7 3 6-4-7 5 6-5 6-5-6 5 7-7-5 6 6-8 6-9-4 7 6-11 6-11 6-11 6-12 6-12-3 7 5-13 5-13 5-12 4-13 4-13 4-14 3-12 3-11 2-10 2-10 2-9 1-9 1-7 1-7 3-7"/>
<path d="M10050 13848l 4 5 5 7 6 8 8 12 10 14 12 16 13 17 15 19 16 20 17 21 18 23 20 23 20 22 22 21 22 19 23 18 22 17 18 15 17 15 16 15 17 14 18 13 18 14 17 13 17 13 17 12 15 12 15 10 14 10 13 10 14 10 13 10 11 10 10 9 6 8 5 6 4 4 4 3"/>
<path d="M10452 13859l 7-3-5 3 6-5-4 4-6 5-7 7-9 9-10 10-11 11 8-8-12 14-11 15-14 16-15 18-17 19-18 20-8 7-19 18-20 18-21 17-21 17-22 18-22 18-22 19-22 19-21 20-19 19 5-5-15 18-13 18 3-4-13 17-12 18-4 5-13 17-13 18-13 17-11 17 4-6-11 16-9 15-8 14-7 13-4 6"/>
<path d="M8419 15090l 0-7 0 7-1-8 0-10 1-12 0-12 1-13 0-14 0-16-1-16-1-16-1-16-3-16-3-16-4-15-5-14-5-13 3 7-6-11-7-9-7-7-7-6-7-3 7 1-8 0-9 2 8-2-10 4 7-3-12 7-14 9 7-5-14 11-15 13-14 16 8-9-14 17 4-6-14 19-13 20-12 22-12 20 4-6-11 21-9 19-6 19-5 18 2-7-2 16-1 14 3 13-2-7 4 10 7 9 9 8 10 5-7-2 13 3 14 1 15-2-8 1 16-3 16-4 17-6-8 3 15-7 15-8-7 4 13-9 13-9 11-10-6 5 10-10 8-10-5 7 8-10 7-9 5-8-4 7 4-8 3-6-3 7 1-5 0 7-1-2 19 7-3 1 13-8-4 5 13-15-5 7-6 10 4-7-4 11-5 14 2-8-3 16-4 17-3 19-3 20-3 21-2 22-2 23-2 23-1 23-1 23-1 24 0 23 0 22 0 23 1 22 0 21 1 21 2 20 2 18 3 18-2 7-3 6"/>
<path d="M8710 15389l-3 5 3-7-2 6-2 7 2-8-2 8-2 10-1 10-1 11-1 11 0 12 1 12 1 12 3 10-2-7 4 10 5 8 5 7 6 5 6 5-7-3 7 2 8 2 8 0 8-2-8 2 9-3-8 3 9-5-7 4 8-6-6 5 8-7 7-8-5 7 7-9 6-9-4 7 6-9 4-9-3 7 4-10 2-9 1-9 0 8 0-8-1-9-2-7-2-8 3 7-4-7-4-7-4-6-6-6-5-6-6-5-6-5-7-4-5-2-6-2-5-1 8 1-4 0-2 0 31-49 3-1 5 0-8 1 7-2 7-2-8 3 7-3 7-4 8-4 7-4 8-5-7 4 8-4 7-5 7-4 7-3 8-3 7-2 8-1 6-1 7-1 6 0 6 1 5 2 7 3 6 3 5 4 6 4 5 5 5 7 4 8 5 8 5 9 5 10 5 11 5 12 5 14 4 15 2 7 5 17 4 18 4 18 4 20 3 22 3 22 2 23 2 24 1 23 2 22 1 21 0 21-1 20-1 19-2 18-2 17-1 15-2 13-1 10-1 6-2 8-4 7-4 7-8 8-2 1-6 5-7 3-8 2-8-1-3-7-2-4-2-10-2-14-3-16-3-19-3-22-4-24-3-25-3-28-2-28-2-28-2-28-3-27-2-26-3-24-2-23-2-22-2-20-1-19-1-17 0-17 0-15 0-13 1-7 1-13 3-11 3-10 3-7 5-10 4-6 5-8 6-6 5-7 6-5 6-5 7-4 6-3 7-3 7-3 8-1 6-1 7 1 7 2 9 2 9 4 6 2 10 5 9 4 9 6 8 6 8 7 8 6 7 5 7 5 6 5 5 5 5 5 4 5 4 4 2 5 2 8 1 5 1 5-1 6-2 8-2 5-2 7-4 7-3 6-5 7-5 7-5 7-7 8-8 8-7 8-9 7-9 7-6 5-10 6-9 5-7 4-10 4-10 3-7 2-8-1"/>
<path d="M9226 14929l-1 8-1 9-2 11-2 13-1 13-2 15-2 16-3 16-2 18-2 18-2 20-3 22-2 24-3 25-3 25-3 26-4 25-2 26-3 25-1 23-2 22 0 20 2 17 3 15 4 14 3 12-2-7 4 11 4 9 5 7 7 5-7-3 12-1-8 1 16-5-7 3 16-8 15-8 7-3"/>
<path d="M9096 15192l-3 4 7-9-2 4 8-14-1 4 0-15 3 2-7-2 6 1 7-1-8 1 8-2 10-4 13-4 15-6 16-5 16-6 16-6 18-5 19-5 7-2 7 3"/>
<path d="M9405 15162l 0 7 1 7 0 9-2 11-1 11-3 13-2 13-2 14-2 14-3 15-2 15-2 14-1 12-2 11 0 10-1 10 1 7 1 6-2-7 2 3-7-3 5 2 7 3"/>
<path d="M9385 15076l 6-5-3 3 8-8-2 3 4-6-2 4-3 4 4-7-3 5-2 6 2-8-1 7 0 6 1 6 0 7 1 7 2 8-2 7"/>
<path d="M9480 15245l 3 6 4 7 3 7 3 7 3 7 3 7 3 7 3 6 3 5 3 5 3 4 4 3 4 3 4 4 5 2 5 3 4 2-7-3 5 2 5 0 4 0-8 2 5-2-15 7 4-3-11 11 3-4-4 7 2-6-3 8 2-6 1-7 1-7-1 8 0-7-1-7-1-8-3-9-4-9 3 7-4-9-6-9-6-8-6-7-6-6-6-6-6-5-5-4-5-3-4-2-3-2-3-7 0-1 0-8 4-7 4-6 5-7 6-5 7-4 7-3 8-1 4-1 6 0 8-1 8-1 9 0 8-1 9-1 8 0 8 0 8 1 8 1 9 0 7 1 8 2 6 2 7 3 6 3 5 4 5 4 5 5 4 7 4 6 3 8 2 8 2 7 2 8 2 9 1 8 0 8 1 8 0 9 0 8-1 7 0 7 0 6 0 5 1 4-2-7 2 2-7-2 4 1 4 0-8 1 5-1-7 3 5-3-7 4 6-4-6 5 6-5 6-7-6 6 6-7 6-7 6-7 5-7 5-6 5-6 5-6 5-5 4-4 6-6 5-3 7-4 5-3 7-3 5-1 8-1 5 0 5 2 7 2 5 3 6 3 5 4 5 3 6 3 5 3 6 2-7-3 5 2 6 1 5 0 6 0 6-1-8 1 6-2-7 3 6-3-7 4 7-4 7-6-6 6 7-7 7-7-6 6 7-9 7-9-5 6 7-10 6-11 5-11 6-12-4 8 5-12 4-11 4-11 3-10 3-9 2-9 1-8 1-6 0-5 0 8-1-1 51-32 0 2-1 5 0 6 1 5 2 6-2-7 2 6 4 7 4 7 5 8 6 9 7 8 7 9 7 10 7 10 7 11 7 11 7 11 6 11 6 11 5 11 5 11 4 11 4 10 2 7 3 10 2 9 0 9 0 9-2 9-2 7-3 8-4 7-4 7-4 7-5 5-8 9-6 4-7 5-7 4-7 3-8 3-8 1-9 2-9 2-10 0-11 0-10-1-9-1-8-2-10-1-8-2-8-1-6-1-5-1-1 0-4-7 1-8 3-7 5-7 5-6 6-5 7-4 7-3 8-2 3 1 7 1 9 0 11 1 11 1 13 0 13 0 14 0 15 0 14-1 15-1"/>
<path d="M1974 13520l 1-5 0-3 4-8 4-6 5-6 1-2 6-5 7-4 8-3 8-1 7 2 1 3 2 7 2 6 0 10 0 13-1 15-2 19-4 22-5 25-7 29-2 7-9 31-9 31-11 31-10 31-10 32-11 32-10 32-11 32-10 31-10 28-10 26-9 24-8 22-7 20-4 18 1-6-2 12-2 7-2 8-4 7-5 6-8 8-1 2-6 4-8 4-7 2-8-2-4-7 1-8 1-6 3-14 5-19 7-26 10-31 11-34 11-36 10-36 10-36 9-37 9-36 9-37 10-35 9-34 9-32 9-30 8-26 8-24 7-20 5-17 4-14 3-11 2-9 3-7 4-6 4-7 5-6 6-5 5-5 7-4 5-2 7-3 8-1 5 0 7 3 4 3 5 6 4 8 5 12 5 15 2 7 5 19 5 22 5 26 4 28 3 31 3 32 5 31 6 32 6 31 7 31 8 30 8 30-1-4 9 28 9 27 10 25 11 22 12 19 11 17 12 14 12 10 12 8 11 4-6-3 10 3 9 2 8-1-15 4 7-5-13 10 8-8-10 12 7-12-3 7 6-17 6-22 6-26 6-28 6-31 5-32 3-34 0 4 1-36 0-37-2-37-3-38-2-37-3-35-2-33-3-29-2-27-2-24-2-20-3-16-4-12-4-9-3-8-1-6-1-6 0-4 1-8 3-8 4-6 6-6 6-6"/>
<path d="M2376 13207l 3-7 1-3 5-7 5-6 3-3 6-6 4-3 5-3 6-4 5-2 8-3 5-2 6-1 6-2 6-1 6-1 6-2 8-1 6-1 6 0 6 1 6 3 5 3 4 4 3 5 2 7 1 6 1 6-1 7-2 8-2 8-3 8-4 7-4 8-6 10-6 10-6 10-6 10-6 10-6 10-6 9-5 10-4 8-4 7 4-7-3 6-3 5-2 5 2-8 0 4-9-10 3 1 6-1-8 1 6-1 7-2 7-3 8-2 9-3 9-3 9-3 11-4 12-3 13-3 13-4 13-5 8-1"/>
<path d="M18344 11540l 9 0-8 1 7-3-14 7 6-4-6 5 5-5 5-5-5 6 4-6 5-7-4 7 4-7 3-7 3-6-3 7 3-7 2-8 1-8-1 7 1-9-1-8-1-8-3-8-3-7 4 7-4-6-5-5-5-5-6-3-6-2-7-2 8 2-7 0-8 1 8-1-10 3-11 5 7-4-13 7-14 8-16 9-16 11-17 11 6-4-17 12-15 14-15 14 8-8-13 15-11 15 4-6-9 15 3-6-7 15-5 14-4 13 2-8-1 12 0 10 2 9-3-7 4 7 5 6 6 4-7-2 8 2 11 0-8 1 12-3 14-5-8 2 16-8 18-10-7 4 18-12 19-16-6 5 19-18 19-21-4 5 19-25 20-28-3 4 19-30 19-32 16-33 15-32-1 3 14-33 13-34 13-36 13-38 13-37 11-35 8-29 6-24 3-21 2-17 0 5 0-15 0-13 0-11-1-9-1-8-1-6-1-4 3 7-2-1 37-17-3 3 5-6-4 7 4-7-4 10-4 12-4 14-4 17 2-8-5 20-5 22-6 25-2 8-7 27-8 28-10 30-10 31-9 32-9 32 1-4-7 33-6 31-5 30-3 28-3 25-1 22 0 21 1 17 3 16-1-6 4 13 4 10 4 8 3 7 5 4 5 3-7-3 8 0-8 1 9-2-7 3 10-5-7 4 10-7 11-9-6 6 10-10 10-11 10-10 9-10-5 6 8-10 6-9 4-6-4 7 1-3 37 5-2 2 5-6-3 6-5 8 4-7-4 9-4 9-4 11-3 10-3 11-4 11-3 12-4 13 2-8-3 14-4 16-3 16-3 17-3 17-4 17-4 18-2 7-5 18-5 18-5 18-5 17-5 17-6 16-5 14-4 13-4 11-3 8-2 3-4 7-4 7-8 8-7 5-7 3-8 2-7-1-4-7 1-8 0-2 2-8 4-13 4-16 6-20 7-24 8-27 8-30 9-30 10-31 8-29 7-28 5-25 5-22 4-20 3-17 2-15 3-14 3-12 4-11 3-6 4-9 4-8 4-7 4-6 4-6 5-6 4-4 6-6 5-4 5-3 7-4 6-3 7-3 6-2 8-2 8-1 8-2 8 0 10 0 9 0 11 2 10 2 10 2 10 3 10 3 10 2 9 3 6 3 8 4 7 6 6 7 5 7 4 7 3 8 2 7 2 8 1 8-1 7-2 8-2 7-4 7-3 7-5 7-5 7-6 7-8 8-6 7-8 6-9 7-6 5-10 6-10 6-11 5-7 3-11 5-10 3-10 2-7 2-9 2-8 1-8-1-3-7 1-8 3-7 4-7"/>
<path d="M18863 11654l"/>
<path d="M19032 14110l 6-5 5-4 7-4 6-4 8-3 7-1 8-2 7-1 7-1 7 0 6 0 7 2 5 2 7 3 4 2 5 3 5 5 4 5 5 7 4 7 5 10 5 13 4 13 2 8 3 13 3 12 3 13 2 12 3 12 3 12-2-8 3 12 3 11 4 11 4 12 5 11 5 12 6 9 7 9 8 9 8 9 7 7 8 6 7 4 7 4 8 4 7 3-7-3 8 1 7 1 8 0 7 0 7 0-8 1 8-1-8 3 8-3 7-4"/>
<path d="M19307 14140l-6 3-7 2-8 3-8 2-9 4 8-3-10 4-10 5-10 6-11 7-11 7 6-4-11 8-13 10-12 11-14 12-13 11-14 13-14 13-14 14-14 14-13 14 8-8-13 14-13 15-13 15-11 14-10 12-10 12-7 8"/>
<path d="M13624 13993l-9-10 7 1 10 0 9 1 10 0-8 2 9-2 10-3 9-3 9-3 9-3 10-4 10-4 11-4 11-3 11-4 11-3 10-4 8-1"/>
<path d="M13666 14046l-7 4-7 4-8 3-6 3 7-3-6 3-6 4 6-5-5 6 8-9-5 6-5 6-5 5-8 9-6 5-5 5-6 5-5 5 8-8-5 6-5 6-4 6 5-7-3 6 5-15-1 7 1 7-2-8 3 7 5 5 6 4 6 3-6-3 7 2 8 0 9 1 10 0 11-1 12-1 11-1 10-1 10-1 9-1 9-1 9-1 9-2 9 0 9 0 10-1 9 0 9 0 10 1 8 2 9 3 6 3 8 4 8 5 6 5 3 7 2 7 2 7-2 7-2 8-3 6-3 7-5 7-4 6-6 7-6 8-8 8-8 8-9 8-10 7-6 5-11 7-13 8-13 7-13 7-7 4-14 6-15 5-17 5-7 2-18 3-18 2-19 2-18 1-17 1-16 0-15 0-14 1-13 1-11 1-11 0-9 1-9 2 8-2-10 3-7 2-8-2-4-7"/>
<path d="M13496 14705l 7-3-5 3 6-4-4 4-5 4-6 6 8-8-6 6-6 7-6 8 5-6-6 8-6 10-6 9-6 9-6 10-5 9-6 8-5 10-5 10 4-7-4 9-4 8-3 9-2 8 2-8-1 7 0 7 1 6-2-7 1 5 3 5 3 4 4 4 5 3-7-3 6 3 8 1 9 2 10 0 11 0 12-2 13-1 13-3-8 2 14-3 16-3 16-3 16-4 16-4 15-3 16-4 15-4 14-4 14-4 12-4 12-4 8-1"/>
<path d="M13556 14784l 8-2-5 3 22-17-3 4 4-7-2 5 4-7-2 6 2-8-1 8 0 11 1 12 1 15 1 17 3 18 3 21 4 23 3 24 3 23 3 24 3 23 3 23 3 21 4 21 4 20 5 21 5 22-2 7-4 6"/>
<path d="M13400 15380l-3-7-2-3 1-8 0-3 3-7 5-7 2-3 5-6 6-5 7-4 4-3 8-2 6-2 8-1 9-1 10-1 11-1 12 0 13 0 14 1 14 2 15 2 14 3 14 2 13 3 12 5 7 3 12 5 10 5 8 6 7 5 5 6 4 7 2 7 2 7 1 8-2 7-2 8-3 8-4 7-5 9-6 9-5 7-7 9-8 8-9 9-10 9-10 8-10 8-6 5-11 7-10 6-10 6-9 6-8 5-7 4-6 3-7 3-4 2 22-16-1 0-7-30 5-1 8-2 10-2 11-3 12-2 12-3 13-3 8-1 13-2 14-2 12-1 13-1 11-1 10 1 8 2 7 3 7 3 6 4 5 5 4 5 3 6 2 8 2 6 0 8 0 8-2 9-2 8-3 10-5 12-5 12-4 7-6 12-8 12-5 6-9 11-8 9-11 10-13 10-6 4-14 8-7 3-15 6-15 5-15 3-7 2-15 3-15 1-14 0-8-2-14-2-13-3-13-5-11-5-10-6-9-8-4-7 1-8 3-7"/>
<path d="M16502 14006l 7-4 7-4 7-2 8-3 9-2-7 3 10-5 11-5 11-5 8-3 12-3 12-3 13-4 13-5 11-4 10-3 10-4 8-1"/>
<path d="M16548 14055l-6 4-5 4-4 3 6-4-4 4-4 4 8-8-5 5 9-13-3 7 2-8-2 7 0 8 1 6-2-7 3 6 6 4 7 3-7-2 8 3 8 2 10 1 11 0 11 0 10-1 10 0 11-2 12-1 11-1 10-1 9 1 9 1 8 0 8-1 8-1 8 0 7 0 7 2 7 2 7 3 7 3 5 4 4 5 2 8 2 6-1 8-2 8-2 8-3 8-4 7-5 8-6 9-5 6-7 10-9 11-9 11-8 8-11 12-13 10-6 5-14 9-15 8-7 3-14 7-14 5-14 4-7 2-12 3-11 1-9 0-6-1-8-1-5-2-3-2-4-7 1-8"/>
<path d="M16928 14073l 8-2-7 2 8-4 9-2 8-1 9 0 10 0 11-1 11-1 10-1 10-1 10 0 10 0-8 1 11-3 11-3 15-6 14-5"/>
<path d="M17190 13972l 7-4 7-3 6-2 8-1 8 1 7 2 7 3 7 5 7 5 6 8 5 10 5 10 4 10 5 10 4 11 4 9 4 8 4 7 5 7 6 7 7 7 8 6 8 6 8 6 7 3 7 4 7 3 7 3-7-2 8 1 7 1 8 0 7-1-8 1 8-3-8 3 9-5-7 4 9-5"/>
<path d="M17387 14022l-5 5-5 5 7-8-6 7-7 8-8 9-8 7-8 7-11 8-12 11-13 12-15 12-6 5-17 12-18 12-20 12-20 12-20 14 6-4-20 15-20 17-6 4"/>
<path d="M16572 14555l-5 5-6 6-6 6 8-8-6 7 4-6-6 8-5 10-6 8-4 9 4-7-4 9-4 11-3 11-3 9-2 8 2-8-1 7-2 8-1 7 0 8 0 7 0 7 0 7 0 7 0 6 1 7 2 7-2-8 3 7 5 6 6 5 6 4 8 3-7-2 9 2 10 3 11 1 12 0 12 0 14 0 14-2 15-1 14-2 14-3-8 2 14-4 15-4 16-5"/>
<path d="M16697 14674l 4-6-3 7 4-7-3 7-3 8 2-7-2 9-1 10-1 11-1 11-1 12-1 11-1 11 0 13-1 12 0 13 0 11 0 12-1 12 0 12 0 13 0 11 0 12"/>
<path d="M16902 14719l 6-3 7-3 8-1 6-1 8-1 8-1 9-1-8 1 11-2 11-2 10-3 11-3 11-2 11-3 11-2 8-2 12-1 11-1 7 3"/>
<path d="M17193 14666l 3-7 3-6 4-6 5-6 6-6 5-3 7-4 8-3 6-1 8-2 6 0 6 2 7 3 7 3 5 5 5 6 5 9 4 8 5 9 4 8 5 8 4 10 5 9 4 9 5 7 5 8 5 8 5 7 5 8 4 7 5 6 4 7 5 6 5 7 5 6 4 5 6 6 6 4 7 3"/>
<path d="M17411 14655l 7-3-10 6 6-5-12 10-13 12-13 12-14 12-16 13-18 15-19 16-21 14-6 4-21 14-21 14 5-4-18 12-17 14-17 16-19 18 6-6-18 20-19 21-5 6"/>
<path d="M16474 15216l 0-4 4-7 1-4 5-6 5-6 3-4 6-5 5-4 6-4 6-3 8-3 7-3 9-3 11-3 12-2 11-2 8-2 13-1 12-2 12-1 12-1 11-1 10 0 8 1 8 2 6 2 7 2 6 3 4 3 3 4 2 4 2 7 0 4 0 5-2 8-2 5-2 7-4 7-3 7-6 7-4 7-8 8-7 7-7 6-8 6-8 6-8 6-6 4-8 6-7 5-7 5 6-5-6 5-6 5-4 4 17-22-1 3-1-15 4 1-7-3 6 1 8 0 10 0 9 1 10 0 10 1 9 1 9 0 9 2 9 1 9 2 8 1 7 3 7 3 6 3 4 3 4 5 3 5 2 8 1 6-1 8-2 7-2 8-3 8-4 8-4 7-4 8-6 9-6 9-4 6-7 8-8 9-8 7-8 7-8 6-6 5-9 5-7 4-10 4-10 4-10 3-7 1-10 3-9 1-8-1-3-7"/>
<path d="M16889 15249l 5-2 6-1 6-2 8-3 9-2 8-1 9-2 10-1 10-2-8 2 10-2 10-2 8-2 10-1 9-1 10-1 10-1 11-1-8 1 10-2 10-3"/>
<path d="M17199 15168l 6 3 6 3 7 5 7 5 7 5 8 7 8 8 8 9 9 9 8 10 8 10 8 9 8 9 8 10 8 9 7 10 7 8 7 8 6 6 6 6 5 7 4 7 5 6 4 5 3 4 4 5 3 5"/>
<path d="M17364 15249l 7-3-4 2 6-4-5 3-5 5-7 7 8-9-7 8-8 11-10 11-10 13-11 12-12 14-12 14-8 8-12 14-14 13-13 13-13 12-13 14 8-8-12 15 4-6-11 16-11 17-11 17-4 6"/>
<path d="M15244 14610l 8-1-8 2 8-3-7 3 8-5 8-4 8-4 9-4 9-4 9-4 8-3 10-3 9-2 8-2 9-1 8 0 7-1 7 1 7 1 7 3 7 4 5 6 3 8 2 8 0 8-1 9-2 7-2 9-4 10-5 11-5 11-4 8-6 10-7 10-5 7-8 9-8 9-9 9-10 7-8 7-8 6-6 4-7 5 6-4-5 4 16-22-2 4 0-15 3 3 7 3-7-3 8 2 8 1 8 1 8 0 7 1 8 1 7 2 8 3 8 2 7 1 7 2 6 2 7 2 5 4 4 6 3 7 2 8 1 9-2 8-2 8-3 9-5 10-4 7-6 11-7 11-8 13-5 6-9 12-9 11-8 9-11 10-12 10-6 5-14 9-14 7-7 4-15 7-16 6-15 4-8 2-15 2-14 1-12 0-10 1-8-1-8-1-6-2-4-4-4-7-2-5-1-7 0-8 3-7 5-6"/>
<path d="M15544 14719l 9 0 9-1 9 0 9 0 10-1 11 0 10-1 11 1 11-1 10-2 10-1 11-2"/>
<path d="M15859 14680l 5 2 6 3 7 3 6 4 6 4 7 4 7 6 7 6 6 5 6 5 7 5 6 5 5 4 6 4 6 5 5 6 6 6 5 5 5 6 6 6 4 7 4 6 4 7 4 6 3 5 3 6 3 5"/>
<path d="M16058 14697l-6 5-6 5-6 6-6 6 8-8-6 7-6 8-7 9-8 8-9 8-10 10-12 11-14 12-14 12-16 14-17 15-18 17-18 18-18 17-17 17 7-7-15 17-14 16-13 16 4-6-12 17-4 6-7 7"/>
<path d="M15269 15188l 7-3 6-2 6-3 6-2 6-2 7-2 7-3 7-2 7-2 8-2 7-1 8-2 7-1 7-1 6 0 7 0 6 1 6 1 7 3 5 2 5 3 4 3 4 4 4 5 2 5 2 7 1 6 0 6-2 7-2 7-3 7-3 9-4 10-6 10-4 7-6 12-7 13-8 14-9 15-10 15-5 6-11 14-8 9-13 13-14 13-15 13-16 12-16 12-6 4-16 12-15 10 6-4-14 10-12 10-12 10-9 8-8 8-7 7-6 6 8-9-4 5 8-13-1 3 0-15 3 2-7-3 6 1 8 0 8-2-8 2 10-3 11-3 13-3 15-5 18-5 19-6 18-7-7 3 17-7 15-7 15-7 13-7 13-6 11-6 7-3"/>
<path d="M15546 15291l-1-3 1-8 3-7 4-7 5-6 3-3 6-5 4-3 5-4 6-4 6-4 7-4 7-4 8-4 7-3 9-3 10-4 9-3 9-3 9-2 9-3"/>
<path d="M15830 15180l 4 4 4 5 3 5 3 5 3 5 4 6 4 6 3 6 4 7 4 7 5 7 5 8 5 8 5 8 6 8 6 7 7 9 6 8 7 8 6 8 6 8 5 7 6 7 5 7 5 5 6 5 5 5"/>
<path d="M15985 15241l 7-3-5 3-6 3 7-4-6 4-6 6 8-8-5 6-7 7-6 7-7 9-7 9-9 10-8 9-10 10-10 10-12 10-11 12-13 12-12 11-12 12 8-8-11 13-12 13-11 13-11 14-11 13 5-7-10 14-8 14"/>
<path d="M6721 16983l 0-5 0-5-1-2 26 3-3 1 14-13-3 4 8-13-2 4 2-8 0 2-42 9 1-2-4 6 2-5-3 8 2-6 1-6 1-5-1 8 0-6-1-5-1-4 4 7-2-3-4-1 16 0-4 1 7-4-4 3 6-5-3 3 8-8-3 4 4-7-3 5-2 4 3-7-2 5-1 4 2-8-1 4-1 5 0 4 1 5-2 8-3 7-5 6-8 9-7 4-7 4-7 1"/>
</svg>
