<svg xmlns="http://www.w3.org/2000/svg" viewBox="763 844 16568 9264" stroke="black" stroke-width="20" stroke-linecap="round" stroke-linejoin="round" fill="none" data-xena="0 0 0"><style>@media(prefers-color-scheme:dark){svg{background-color:black;stroke:white;}}</style>
<path d="M8332 4128l 7 1 7 3 7 2 7 1 7 1 8 1 9 1 9 0 10-1 9-2-9 2 11-2 9-2 12-2-9 2 13-3 14-4 16-5 17-7 15-6-8 4 13-7 12-6"/>
<path d="M8378 4047l 2 8 3 8 3 10 3 13 3 15 3 18 3 18 4 19 4 19 4 21 4 20 4 21 5 20 5 19 5 17-2-8 5 16 7 15 7 14 7 12 7 11"/>
<path d="M8653 4146l 2 8 2 9 2 10 2 12 2 12 3 15 3 17 3 17 3 17 3 19 3 19 3 20 3 22 3 26 2 29 1 28 2 25 1 24 1 22 0 23-1 25-1 23-2 20-2 16 0 13-1 11-1 9-2 8-2 6-4 8"/>
<path d="M8606 4158l 3-5 6-7 4-5 5-5 6-6 7-6 6-6 8-6 8-6 9-5 7-5 10-5 10-4 8-3 11-4 11-2 9-1 12-2 13-1 13 0 14 2 13 2 13 3 12 3 12 4 12 4 8 3 12 5 10 6 9 7 9 7 7 7 5 8 5 7 3 8 3 8 2 8 2 8 1 10 0 10-3 13-2 8-5 13-4 8-7 13-8 12-5 7-11 12-9 9-12 12-14 10-7 5-16 10-17 9-8 3-18 8-18 7-20 6-19 4-8 2-17 4-16 2-8-1"/>
<path d="M9143 4011l-7-3 6 1-9 1 6-1 6-3 7-2 8-2 8-1 8-1 9-1 8-1 10-1 9-1 9 0 9 1 9 1 8 0 7 1 6 1 6 1 8 3 6 2 5 3 5 4 5 5 4 4 3 5 3 5 2 5 2 8 0 6-1 5-2 9-5 8-3 6-4 5-5 7-4 6-6 6-8 9-7 6-8 6-7 5-9 6-9 5-11 6-8 4-12 5-12 4-13 5-13 4-12 4-12 3-9 2-10 2 8-2-9 3-7 2-6 1-4 1"/>
<path d="M9556 4008l 8-4-5 3-4 3 7-5-5 5 9-9-5 6-6 7-7 8 5-7-6 9-6 11 4-8-4 14 2-9-4 16-2 17-2 18 1 20 1 20 3 20 5 20-2-8 6 19 8 19 8 18 10 16 9 13 11 10 11 8 11 5-7-3 12 5 14 3 15 2 15-1 16-2-9 2 17-4 17-6-9 3 18-9-8 5 18-11 17-13 18-14 17-15-7 6 16-16 15-17-6 7 13-17 11-18-5 8 10-17 8-17-3 8 6-16 4-16 2-15-1 9 1-16-2-15-3-16-5-16-7-17 4 8-8-16-10-16-11-13-12-13-13-11-14-10-14-8-15-7-16-5-19-4 9 1-19-2-19-2-19 1-19 2-18 2"/>
<path d="M6972 4232l 7-5-3 3 18-24-2 4 3-9 0 4-2-8 3 3 4 2-8-4 6 1 5 1 7 0 7-1 9-1 9-1 11 0 11-2 12-1 13-2 13-2-8 1 14-3 15-2 16-3 16-3 16-4 15-3 13-4 13-4 9-1"/>
<path d="M6955 4330l 5-7 1-3 6-7 7-6 3-3 5-3 8-4 6-3 8-3 7-3 8-2 10-3 10-2 10-2 11-3 9-1 11-2 13 0 14 0 14-1 15 0 14-2 15-1 15-2 15-2-9 2 14-3 13-3 13-4 14-6"/>
<path d="M7212 4068l 8 3 6 2 7 4 7 4 7 5 8 5 8 4 9 6 10 5 10 5 11 5 12 5 13 5 13 5-7-3 13 5 13 5 13 4 7 4 12 4 12 5 10 5 10 5 8 6 7 7 5 7 4 7 2 7 2 9 1 7 0 7-2 8-3 9-3 9-5 11-4 8-7 10-5 7-8 9-9 10-9 10-10 10-11 10-12 10-12 11-12 11-13 11-14 10-13 10-14 10-13 10-7 5-14 10-14 9-14 9-12 8-12 6-10 6"/>
<path d="M11492 1521l-13 21 0-3-1-3 4-8 5-8 2-3 5-7 7-6 4-3 7-4 5-3 8-3 5-1 6-2 6-2-8 3 6-3 7-3 8-4 8-3 9-2 10-3 10-4 11-4-8 3 10-5 8-3 11-4 13-4 14-5 15-6 13-4 13-4"/>
<path d="M11669 1367l 4-8-1 5 2-8 0 7 0 9 1 10 1 11 2 13 3 14 3 16 3 15 3 16 2 16 3 16 2 18 2 17 2 17 3 17 2 16 3 15"/>
<path d="M11926 1515l 0-3 1-9 1-3 3-8 5-7 2-3 6-7 7-6 3-3 8-5 5-2 6-2 8-4 7-2 9-2 9-2 9-1 11-1 11-1 11-1 13-1 14-1 14 0 16 0 15 0 16 0 16-1 16-1 16-1 15-2 14-2"/>
<path d="M12530 1532l 2-4 5-8 2-3 6-7 7-6 3-3 5-3 5-3 5-4 8-5 6-3 8-3 7-3 7-2 7-2 8-2 9-2 9-2 9-1 9-2 10-1 10-1 11-1 10-1 10 0 10-1 10-2 8 3"/>
<path d="M12650 1384l 2-8 0 5 0 6 0 7 1 7-2-8 2 7 3 7 3 7 2 7 5 9 5 12 5 12 5 9 3 8 5 9 4 9 4 8 3 10 2 8"/>
<path d="M13059 1412l-8 3 5-3 4-2 8-3 9-2 5 0 6 1 7 1 7 0 7 0 7 1 8 1 9 2 10 2 10 1 11 0 12 0 13 1 14 0 8 3 2 8"/>
<path d="M13514 1450l 1-9 3-7 1-4 5-7 3-4 3-4 6-7 4-4 7-6 5-4 8-4 7-4 7-4-8 4 9-5 8-5 8-5 9-3 9-3 9-4 11-3 11-4 11-3 11-3 12-3 14-4 16-6-8 3 20-8"/>
<path d="M13633 1229l 3 4 3 5 2 9 3 9 2 11 1 12 1 15 2 16 1 16 2 16 1 17 2 17 1 15 2 16 2 15 3 15 5 15-3-8 6 17"/>
<path d="M14441 1312l 4-2 8-3 5-2 6-2 6-1 9-2 8-1 9-1 9-1 9-1 10-1 10-1 10 0 11-1 12-2 16-1 15 0 15-1 14-1 12-1 13-2 13-2 13-2"/>
<path d="M14576 1206l-1 9 0 7 0 8 1 9 1 10 2 11 2 12 2 12 2 11 3 12 2 12 3 13 3 12 4 13 3 12-2-8 4 12 2 8"/>
<path d="M15588 1672l-7 4 5-3 5-4"/>
<path d="M15805 1656l 5 0 8 3 5 2-8-3 4 1 5 0-9 2 5-1 5-2 5-2 5-1 5-2"/>
<path d="M16087 1443l 1-8 3-8 5-7 5-7 7-5 7-5 5-2 8-4 8-2 8-3 10-4 12-3 12-2 11-4 11-4 11-4 12-4 12-3 13-3 13-5 14-4 12-3 12-2"/>
<path d="M16240 1224l 3 6 3 8 3 10 3 8 2 12 3 13 4 15 3 15 3 15 3 18 3 18 3 19 2 18 3 16 2 17 3 17 3 17 2 16"/>
<path d="M10755 1531l 9 0 11-1 16 0 17 0 15-1 15-1 15-1 16-2 18-2 21-3 25-3 24-3 8 3"/>
<path d="M11515 2993l 0-4 0-4 0-5 1-5 1-7 2-7 1-8 2-9 2-10 3-10 2-11 2-11 2-12 2-12 3-13 2-13 3-14 2-14 2-15 1-15-1 9 1-15 1-16 0-16 0-17-1-16-1-17-1-17-1-16-1-16-1-15-1-15-1-13-1-12-1-10-1-9-1-6-1-5 4 8-2-2 33-9-3 2 14-16-3 6 4-8-4 8-3 10-3 11-4 12-4 14-5 15-6 18-7 19-6 17-7 15-6 14-6 12-4 7-5 11-5 7-5 8-5 5-9 9-7 5-4 2-8 4-8 2-9-1-3-2-3-4-4-8-2-6-2-8-1-11 0-12 0-15 1-15 1-9 2-17 2-19 3-20 4-20 5-19 5-18 6-14 3-10 3-7 2-5 3-8 5-8 1-1 6-7 7-6 7-4 9-4 9-1 7 3 1 2 2 4 2 5 3 5 3 4 5 5 4 3 5 3 6 2-8-3 6 2 6 1 6 1 6 0 7 0 7 0 7 0 8 0 8-1 8 0 8-1 8 0 9 0 9 0 9-1 8 0 8 1 7 0 6 0 6 1 6 0 5 0 5 1 4 1 8 3 4 2"/>
<path d="M11740 4558l 7-15 8-16 7-14 7-13 5-7 8-13 9-12 8-11 9-11 6-7 9-9 8-9 8-7 6-6 8-6 7-5 8-4 6-4 8-3 6-2 9-1 5 0 8 3 5 2 5 4 4 6 3 9 2 9 3 11 1 14 1 16 1 18-1 19-2 20-2 22-3 22-4 23-3 22-4 20-4 20-4 18-2 9-5 16-5 16-5 15-5 12-5 12-5 9-4 8-4 8-4 6-5 7-9 9-7 5-8 4-2 1-8 1-9-1-4-8 0-5 1-9 1-10 4-13 4-17 7-21 7-24 9-29 11-33 12-37 15-39 13-36 11-28 8-21 6-17 6-14 2-6 7-12 4-7 7-10 7-9 5-6 7-6 7-7 7-4 8-5 8-3 7-2 9-2 7 0 5 1 8 4 4 3 3 6 2 8 2 7 0 8-1 10-1 11-3 13-4 15-2 8-4 15-4 15-5 16-4 15-5 15-4 13-4 13-4 11-3 10-2 9 2-9-2 7 0 6 1 4-2-8 3 3-8-4 4 1-9 2 6-2-16 7 6-4-6 6 7-7 9-9-6 7 10-12 9-14 11-16 10-17 12-18 12-18 12-17 11-17 12-16 10-14 10-12 8-11 8-10 6-8 5-6 6-7 4-5 7-5 7-5 8-3 3-1 9-2 8 3 2 4 2 8 1 6 0 9-1 10-1 13-2 14-2 15-1 17-2 17 0 17 0 18 1 17 2 17 2 16 4 14-2-9 5 13 6 10 8 8 7 6-8-3 9 3 8 0-8 1 9-2"/>
<path d="M12414 4381l-5-3-5-2-7-2-8-2 9 1-7-1-8 0-7 0-8 2 9-2-8 3-9 3-10 5 8-4-10 5-10 6-10 7 8-5-10 8-9 8 9-9-8 9-8 10 5-7-7 11-7 11-7 11-5 11 4-8-5 12-4 11 2-9-2 11-2 9 0 9 0 7 2 7-2-8 2 6 4 4 5 2-8-3 6 0 6 0-9 1 7-2-8 3 7-3 9-5-8 4 9-6 9-7 11-8-7 5 10-9 10-10 10-11 9-11 8-10 9-10-6 7 7-10 7-8 5-7 5-6 3-5-5 8 1-2 32 15-2 1 14-16-2 3 4-8-2 6-2 6 2-9-2 7-1 8-1 9-1 9 0 10 2 9 2 10-3-9 3 9 4 7 4 7 6 6 7 5 7 3-7-3 8 1 8 0 10-2-9 2 10-3-8 3 11-5 11-6-8 4 10-8-6 6 9-9 10-10 6-6 8-4 8-4 9-1 8 3"/>
<path d="M12568 4331l 9-14-1 4 2-8 0 5 0 8 1 7 2 8-2-8 3 8 4 9 4 10 5 10 5 11 6 12 7 11 7 10 8 10 8 10 9 9 10 10 10 9 10 9 11 7 10 7 9 5 10 5-8-3 9 3 8 1 8 3"/>
<path d="M12683 4341l-8 4-5 2-6 2 8-3-6 3-6 3 8-5-6 5-6 6 8-9-6 7-7 8-8 9-8 11-9 11 5-7-9 13-9 15-10 16-10 18 5-8-10 19-10 20-4 8-10 19-10 19"/>
<path d="M13532 4270l 1 5 1 7 0 6 1 9 0 10 0 12-1 13-1 14 0 14-1 15-2 15-1 16-1 17 0 15-1 15 0 12 0 12 1 10 1 8 1 6"/>
<path d="M13588 4002l 1 4 0 5 2 5-2-8 2 5 4 6"/>
<path d="M13725 4162l 9-9-6 7-9 9-7 7-9 7-10 8-11 9-11 10-11 9-10 9-10 8-9 8-7 8-7 7 9-9-6 7-5 5-4 6 5-7-3 5 4-8-2 5 3-9 0 5-2-8 3 4 5 4-8-4 7 2 8 1 9-1 12-1 13 0 14-1 16-1 18 0 18 0 19 1 18 2 17 2 17 2 15 3 14 3 7 3 12 5 9 6 8 5 5 6 4 6 3 8 2 8 0 8-1 8-2 9-3 9-4 8-4 8-5 7-7 9-9 9-8 8-10 9-12 8-7 5-13 9-15 9-16 8-8 3-15 7-16 6-15 6-16 4-8 2-15 3-13 2-11 1-10-1-9-2-8-2-6-3-4-8 1-9"/>
<path d="M14264 4218l 3-8 2-5 3-5 5-7 3-5 4-6 5-6 6-6 5-6 6-5 5-6 7-5 6-5 6-5 8-4 8-3 7-3 8-1 6 0 8 3 5 2 6 4 4 5 5 7 4 9 3 10 3 8 2 13 1 14 1 16-1 17-2 17-2 17-4 17-3 17-4 17-3 8-4 17-4 16-4 14-5 14-3 12-4 11-2 8-1 4-50 9 0 0-3 8 1-5 3-9 5-10 3-8 5-13 7-14 7-15 8-15 8-16 9-15 5-8 9-14 9-13 8-11 7-9 7-8 5-7 6-6 6-6 5-4 8-4 8-4 4-1 9-2 5 1 8 3 4 3 4 5 3 7 3 9 2 8 2 10 1 10 1 11 0 12-1 13-2 13-2 15-2 12-2 11-2 9-1 8-2 8-1 7 0 5-2-9 2 3-8-3 4 0-17 5 5-3-7 4 6-5-6 6 7-7 8-10-6 7 9-12 9-13-5 7 8-14 8-16 9-16 8-16 7-17 8-17 7-16 7-14 6-13 7-12 6-11 6-9 5-8 5-8 5-8 4-6 3-5 4-4 5-7 7-5 4-3 7-5 9-3 8-1 5-1 7 3 5 2 5 4 4 5 4 7 3 7 3 7 4 9 2 10 3 8 2 11 3 12 2 11 2 12 2 12 2 13 2 12 3 12 2 11 2 10 3 10-2-8 3 9 3 9 3 7 4 7 5 6 5 5 2 9-2 8-4 8"/>
<path d="M9918 6432l-6 7 5-6-5 7 4-7 4-8 4-8 5-9 4-8 5-7 5-8 6-7 6-7 6-6 6-6 6-5 7-5 8-5 6-4 7-3 8-3 7-2 9-1 8-1 8 1 8 2 7 3 8 5 8 6 6 9 6 10 5 10 3 12 3 8 2 12 2 13 1 13 1 15 0 15-1 15-1 16-2 15-2 17-1 15-2 15-2 13-1 11-2 9-1 8 0 5 0 1-56 26 1-2 0-6 2-10 2-12 2-14 3-17 4-18 4-20 5-22 6-21 6-20 6-19 6-18 6-16 6-14 4-8 5-11 5-10 5-8 6-7 5-7 5-6 6-5 6-6 5-3 8-4 8-4 5-2 9-1 4 0 5 1 7 3 4 3 4 5 3 7 3 8 2 8 3 9 2 10 3 11 2 12 2 12 2 11 1 11 2 11 1 10 1 10 2 9 1 8 2 8 2 6-3-8 2 5 3 3 3 1-17-1 4-1-23 13 4-4-5 7 4-6-5 7 5-8 6-11 6-12 6-13 7-15 8-17 8-18 9-18 9-17 7-16 8-14 7-12 5-7 6-10 6-8 6-7 5-6 7-6 5-5 8-4 5-2 8-4 9-1 5 1 7 3 5 4 5 8 4 9 3 11 2 8 3 11 3 11 3 11 3 11-2-8 3 10 4 10 4 8 5 8 5 7 5 5 6 4 6 2-8-3 7 2 8 0 8 0-8 1 9-1 10-3 12-5-9 3 12-6 12-6-8 4 12-8 10-8-6 6 9-10 9-10-6 7 8-10 7-11 7-10-5 7 6-10 5-11-4 8 4-10 4-9 3-10 2-9 2-8 1-8 1-7-1 9 0-6 0-6-1-6-1-5 3 8-2-4-3-3-4-1 9 2-4 0 8-2-5 1-5 2 7-3-5 3 7-5-6 5-6 5 9-9-6 6-5 6-5 7 5-7-5 7-6 8-5 9-5 9 4-8-4 9-4 10-3 10 2-9-2 10-1 9-1 9 0 9 1 9 1 7 2 7-2-8 3 6 3 5 5 4 5 2-8-3 6 2 7 0 7-1-9 2 7-3-8 3 7-4-8 5 7-5 6-5-7 5 7-6-6 7 6-7 6-8 5-9-5 7 5-8 4-9 4-9-3 8 3-8 3-8 3-7 2-7 2-6 1-5 1-4 3-8 5-7 6-7 7-6 1 0 7-5 9-3 9-2 7 3 2 3 1 5 3 5 3 6 3 6 4 5 4 6 4 5 4 5 5 4 5 5 5 4 6 3 6 3-8-3 6 2 6 1 7 0 6-1-8 2 6-2-8 3 6-3-8 5 6-4 6-5 6-5-7 6 6-6 7-6 7-4 9-3 9-2 7 3"/>
<path d="M10760 6196l 4 6 4 6 5 5 5 5 5 5 6 6 6 5 7 5 8 4 8 3 8 4 8 3-7-3 9 3 9 2 10 4 8 2 8 3 8 2 7 2 7 2 7 1 6 1 5 1 5 0-9 2 4-1-16 8 4-3-6 6 4-4 7-6 7-5"/>
<path d="M10892 6169l-5 6-6 7-5 6 5-7-6 8-5 9-6 7-6 9-7 8-7 9 5-7-7 11-7 10-5 7-8 11-8 11-9 11-9 11 6-7-9 12-9 13-9 14-9 15-9 15-10 16-10 16"/>
<path d="M11302 6163l-1 8-1 9 0 10-1 10 1 11 0 11 1 11 2 10 2 10 2 9 1 8 1 7 2 6-3 9"/>
<path d="M11300 5991l 2-8 0 4 0 4 1 4-2-8 2 4"/>
<path d="M11457 6148l 2 6 2 7 1 9 1 9 2 9 1 8 1 8 0 7 0 7-1 6-3 8-1 6-2 6-2 6-2 5-2 4-4 8-5 7-1 2-9 9-7 5-8 4-9 2-8-2-4-7 1-9 0-3 2-6 3-9 5-10 4-12 6-13 6-15 3-8 7-14 7-15 7-14 7-14 8-12 4-7 8-11 7-9 7-8 5-7 5-6 5-7 4-4 7-6 8-4 4-2 8-4 9-1 4 1 7 3 4 4 4 6 2 7 3 8 2 8 1 10 2 10 1 11 2 11 2 11 1 11 2 11 2 11 3 11 3 10"/>
<path d="M10297 7223l 4 3 5 2-8-4 5 1 6-1-8 2 7-3-9 3 8-4 9-5-7 5 9-6 11-7 10-9-7 6 11-11-6 6 10-13 11-14 11-17-5 7 10-18 8-17 7-15 7-15-4 8 5-13 4-14 2-12 2-12 2-10-1 9 0-9 0-7-1-7 0-6 1-9 1-3 3-8 5-8 6-7 7-5 7-5 4-2 8-3 9-2 5 0 5 0 6 1 6 0 6 1 7 1 8 2 7 1 7 2 7 3 7 3 7 3 7 3 6 3 6 3 5 3 4 4 4 5 3 4 2 5 2 5 2 5 2 8 1 5 0 6 0 5 0 6-1 7-1 6-1 8-3 9-2 9-3 10 3-9-3 10-2 9-3 10-3 11-3 11 3-9-3 11-2 10-2 9"/>
<path d="M10723 7059l-5-1 8 1-5 0-6 0-7 0-6 1-7 2 8-2-7 2-8 2-7 3-8 3-7 3 8-3-7 3-7 4-6 4 7-5-6 5-5 5 8-9-5 5 6-7-5 6 5-8-4 7-2 7 2-8-2 8-1 8 0 7 0 8 1 6-3-8 2 6 4 5 5 4 5 3-7-3 6 2 7 0 7 0-9 1 8-2 8-3-9 4 9-4-8 4 8-5 8-6 7-7-6 6 7-7 6-6 6-7-6 7 5-7 4-5 4-5 2-4 6-7 7-6 7-4 3-1 8-4 9-1 8 3 1 2 2 3 2 9 1 4 1 6 1 5 1 5-2-8 1 4 2 4 2 5 2 4 3 5 4 4 3 4 5 4 4 2-8-3 5 1 4 0 6-1-9 2 5-2-8 3 6-2-8 4 6-4 6-4-6 5 5-5 6-6 5-6-5 7 5-6 5-7 5-7-5 7 5-7 3-6 4-7 3-5 5-8 3-3 6-7 7-6 7-5 4-1 8-3 9-2 7 3 4 2 3 4 3 5 3 5 3 6 2 6 3 6 3 6 4 5 4 5 4 4 5 4 5 3-8-4 6 2 6 0-9 1 6-2 7-2-8 3 7-4 8-4 9-4 9-6 10-5 10-6 11-6-8 4 11-7 10-7 11-7 10-9 11-8 10-9 11-9 10-9-7 6 10-9 10-9 9-9 8-9 7-8-5 7 6-8 5-7 4-6-4 7 3-5 2-5-3 8 1-5 0 9 0-4-1-4 3 8-2-3-3-3-4-1 9 1-5 0-6 1 9-2-7 2-7 3 8-4-7 4-7 5 7-6-7 6-7 7 9-9-7 8-7 8 6-7-7 9-5 9-6 9-5 9 5-8-4 9-4 9-2 8 2-8-1 7 0 7 1 7-2-9 2 6 2 5 4 4 5 4 5 4 7 4 7 4 9 4 9 4 10 5 10 4 10 5 10 5 10 4 10 5 9 4 8 5 8 5 7 5 7 6 6 5 5 5 5 6 4 7 5 7 4 7 3 8 4 8 3 9 3 9 2 9 2 9 2 11 2 11 1 12 0 13 0 14-1 15-2 15-2 16-2 16-3 17-4 16-4 16-2 9-4 16-6 16-6 14-4 8-7 13-5 7-9 11-8 9-10 8-7 5-9 6-8 4-10 3-9 2-10 1-9-2-11-3-10-6-11-9-10-12-9-15-4-8-8-17-6-19-6-22-3-23-2-24-1-25 2-26 0-8 3-25 4-23 5-23 7-23 9-21 9-21 3-8 9-20 11-20 11-19 4-7 12-18 11-17 12-17 11-16 11-15 10-15 10-13 11-13 5-6 10-11 9-10 8-8 7-5 8-7 7-5 8-4 7-4 6-3 8-3 6-2 6-1 9-2 5 0 6 0 5 0 5 1 4 0 5 0 5-1 4 0 5 0 5-1-9 2 5-1 5-2-9 3 5-2-8 4 5-3 6-4 6-5 6-5-7 6 6-6 7-6 7-7 7-7 7-7 7-8 6-7-5 7 6-8 5-7-5 7 5-7 3-7-3 8 2-6 2-6 1-6-1 9 0-6-2-5 4 8-3-4-5-4-6-3-8-2 9 1-10-1-10 0-12 1-13 3 8-2-13 3-14 4-14 5-14 6 8-4-14 7-13 9 8-5-12 10-12 11 9-9-10 12 5-7-8 12-8 14 5-8-6 13-5 13 2-8-3 12-1 12 1 12-2-9 3 11 7 9 8 8 12 7 13 5-8-3 16 4 18 2 20 1 22-1 24-2 25-3-9 1 24-4 23-4 21-6 20-6"/>
<path d="M10475 8494l-6 7 3-5 3-4 4-5-5 8 3-6 3-6-3 8 2-7 2-8 3-8 2-9 2-10 2-11-1 8 1-11 0-11-1-10-3-10-4-9 3 7-5-8-7-8-8-6-10-5-12-5-12-2 9 1-13-1-14 0-14 2 8-2-14 4-15 5-15 7 8-4-14 9 7-5-14 10-13 13-13 13 9-9-12 14-11 14 5-7-10 15-8 16 4-8-7 16-6 16-5 16 2-9-3 16-3 16-1 15 1 14 2 13-2-8 4 11 5 10 8 9 9 6-7-3 11 3 14 0-9 2 16-3 18-7-9 4 20-9 21-11 23-13-8 4 23-14 23-16 21-18-6 5 20-20-5 6 18-22 16-23-4 5 13-24-2 5 11-26 10-29 8-34 7-36 4-33-1 5 1-30 0-29-2-27-3-28-2-27-3-25-3-23-3-22-4-18-4-16-6-12-4-10-3-8-2-6 3 8-2-2 41-18-3 3 10-15-4 8-3 11 2-8-3 15-4 19-2 22-2 24-2 24 0 25-1 25 1 23 1 21 2 23 2 24 3 26 4 27 3 29 4 28 3 27 4 26 5 24 6 22-1-6 7 21 8 19 9 17 11 15 10 13 11 12 12 10 11 8 3 9-2 8-5 8-5 7"/>
<path d="M10874 8296l-8 2-10 2 9-2-11 4-12 4-12 4-13 6-14 6 8-4-14 8-13 7-12 8-12 8 7-5-11 8-9 8-8 8 9-9-7 8-6 7 5-7-4 7 4-8-3 8 2-9-2 7 0 7 2 6-2-8 3 5 5 4 7 4 9 4-8-3 11 3 13 3 14 3 14 2 16 2 16 3 17 3 16 2 16 2 15 2 14 3 14 3 13 3 13 4 13 4 8 3 13 6 13 6 9 5 7 6 4 7 2 8 2 7-2 7-2 9-4 8-4 7-5 7-6 7-9 9-7 6-7 5-10 7-10 6-11 6-8 4-12 5-11 5-13 5-12 4-14 3-8 2-14 3-14 1-14 0-14-1-8-1-13-2-12-4-11-4-10-5-7-5-4-6-4-8-2-7 0-7 1-8 3-8 5-8"/>
<path d="M11083 8376l-4 5-4 6-6 8 5-7-6 10-6 10-6 10-5 10-5 9 4-8-3 8-3 9 3-8-2 8 0 8 2 8-2-8 4 7 6 7 8 5 8 4-8-3 11 2 11 1 14 0 14-1-9 1 15-3 15-4 15-6-8 4 14-7 13-7 13-7-8 5 11-8-7 6 10-9 7-8-6 6 6-7-5 7 4-7-4 8 3-9 1-9 0 9 0-10-1-9-1-9-1-9-1-10-1-9-1-8-2-7 4 8-3-2 32-10-3 4 18-24-3 8 3-9-1 9 0 9 0 11 0 10 1 12 1 11 2 11 3 10 2 9 3 9-2-8 3 9 4 8 4 8 5 7 7 8 7 6 8 6 8 5 10 4-8-4 11 3 12 3 8 3 2 8-2 9-4 8"/>
<path d="M11928 8422l 4-6-5 7 4-6 5-7 6-8-5 7 5-8 5-8 5-8 3-7 4-7-4 8 2-7 1-6-1 9 1-5-1-5-2-4 3 7-2-4-4-4-4-4-6-3-6-3-7-2 8 1-8-1-8 0-9 1-10 1-9 2 8-2-10 2-10 4-12 5 8-4-12 6-13 7-12 9-12 8 8-5-11 9-10 9 9-10-8 10 5-7-6 9 4-8-3 9 2-9-2 8 0 8-2-9 3 8 5 7 7 6 9 4-8-3 11 4 13 4 14 4 15 4 15 3 15 2 16 2 15 1 15 2 14 1 13 2 11 3 11 3 7 4 9 5 7 6 5 8 2 7 3 8 0 7-2 8-2 8-4 8-4 8-5 7-5 7-7 9-8 10-9 9-9 10-11 10-10 9-11 10-11 8-7 5-10 8-11 6-10 5-8 4-10 4-9 3-8 1-9 1-9 0-8-2-7-3-6-4-3-7-4-8-2-8"/>
<path d="M12248 8447l-7-3 7 2 9 1 7-1-9 1 8-3-8 4 8-4 8-4 9-5-8 5 9-6 10-6 10-7 10-8 9-8-7 6 8-8 7-8-6 7 6-8-5 7 4-8-3 8 2-8 2-8-1 9-1-7-3-8 4 8-5-8-6-7-7-7-9-6-9-4-9-4-11-4-10-2 9 1-11-1-11 1-11 2 9-1-11 3-12 4 8-4-11 6-13 8 7-5-12 10-12 12-12 12 9-9-12 14-11 14 5-7-9 15-8 14 4-8-7 13-4 14 2-8-1 14 1 15-2-8 4 14 7 13 10 13 12 13 14 12 17 12 18 11 19 11 21 10-8-3 23 9 24 7 26 6 26 5"/>
<path d="M12596 8493l-6-5-7-5-8-4-8-4-8-3-9-3-9-2 9 1-10-1-11 0-12 2-11 2 8-2-12 4-13 4-14 5-13 5-13 6 7-3-13 6-12 8 7-5-10 8 9-9-9 10 5-7-7 10-6 10 4-8-4 9-3 10 2-9-2 11 1 10 2 10-2-8 3 9 6 8 7 6 9 6 11 5-8-3 13 3 14 2 15 0 15-1 15-2-9 2 14-4 13-4-8 3 12-5 10-5-7 4 8-6 8-6-7 6 6-6-5 6 5-6 3-6-4 8 2-6-3 8 2-6-1 8 0-6-1-4 4 8-2-2 32-9-3 3 18-24-3 7-3 9 3-8-2 11 0 12 1 12 2 14 4 14 4 16-2-9 4 16 6 16 6 16 7 16 7 17 7 17 7 15 7 16 5 15 6 15 4 15 3 9 4 15 3 16 3 15 1 14 1 12-1 13-2 13-2 14-3 9-3 14-5 13-6 13-4 8-7 12-8 12-6 7-9 11-9 9-10 10-12 10-7 5-12 8-14 8-8 3-14 6-9 2-16 3-17 1-18-1-8-1-18-4-18-6-17-8-17-10-16-12-17-16-16-19-14-22-12-23-4-7-9-24-6-22-4-23-3-23 1-7 3-7 4-7 5-6"/>
<path d="M13002 8373l 0 3 0-17 3 2 5 3 7 4 10 3-8-3 11 4 11 3 13 1 15 2 17 2 19 1 19-1 21-2 22-4 25-3 24-3-8 1 21-3 18-5 15-5 13-5 9-2 8 3 2 8-2 9"/>
<path d="M13103 8230l 1-8 3-8 5-7 1-3 6-7 7-5 7-5 6-3 8-3 8-1 9-2 10-1 13 0 14 0 14 0 15 1 17 1 17 2 19 3 19 4 19 4 19 5 19 5 17 6 8 3 17 7 16 7 17 9 17 12 16 12 11 11 9 10 5 10 3 9 2 9 1 10-1 11-2 9-4 11-4 8-7 10-5 7-8 10-9 9-10 11-12 11-14 10-7 5-15 10-15 8-8 3-15 8-16 7 8-3-15 8-16 7-7 4-15 7-13 6-13 5 8-4-11 6-9 6 7-5-8 6"/>
<path d="M13889 8315l-7 4 3-3-6 6 3-3-6 7 2-4-4 8 1-4-3 8 1-5-1 9 0-5-1-6-2-5 3 7-3-5-4-5-5-5-6-4-8-4-8-3-10-2 8 1-11 0-12 1-12 2 8-2-13 3-13 4-14 5-13 7 8-4-13 7-12 9 7-5-11 8-9 10 9-9-9 10 6-7-7 10-6 11 4-8-4 10 3-9-2 11 0 10 2 9-2-8 3 9 6 8 7 7 10 6 11 6-8-3 13 5 13 3 15 3 16 3 18 1 17 0 14-1-9 1 12-2 9-3-8 3 6-4-14 11 5-5-11 14 3-5-3 8 1-6-1 9-1-3 36-1-2 2 18-25-2 6 2-9 0 8 0 9 2 9 2 9 3 10-2-8 3 11 4 12 4 12 5 13 5 14 5 16 5 16 3 9 4 17 4 19 4 18 4 18 3 18 2 17 1 18 0 17-2 16-1 15-3 14-2 13-3 9-3 13-5 12-6 12-4 7-7 11-5 7-8 10-9 9-10 8-7 6-11 7-13 7-8 3-13 5-9 2-15 3-16 2-16 0-17-2-9-1-16-4-17-6-15-7-15-8-14-11-13-13-11-15-10-16-4-8-9-19-5-21-4-25 0-27 3-28 1-8 4-29 3-7 4-6 5-6"/>
<path d="M14051 8330l 2 4 1 3 0 4 1 5 0 5 0 6 1 7 1 6 0 8 1 7 1 8 0 8 0 8 1 6 0 7 1 6 0 7 0 7 0 6 0 6-1 7 0 6 0 5 0 4-2-8 1 1-45 19 2-3-5 7 2-5-3 8 2-6 2-6 2-7 2-9 3-10 2-11 3-11 2-11 2-11 1-12-1 9 1-11 1-9 1-11 1-9 2-9 2-9 1-9 2-8 1-8 2-8 2-7 3-7 2-7 3-8 3-6 5-8 4-6 6-7 4-5 7-6 6-5 6-4 8-5 7-3 8-3 8-2 7-2 9-2 8 4 2 8"/>
<path d="M14300 8343l 8 1-4 0-5 1-5 0 8-2-5 2-6 2 7-4-5 4 7-6-5 4 9-9-4 5 5-7-3 6 4-8-3 6-2 7 3-8-2 6 0 7 0 7 2 7-3-8 3 7 3 6 4 6 5 5 6 5 6 5 6 4 8 3-8-3 9 3 9 2 9 2 10 1 9 0 10-1 10 0 9-1-9 1 10-2 10-3-9 3 10-4 8-5-8 4 6-4-7 6 5-5-11 14 3-5-3 8 2-7 1-6-1 8 0-7-2-9-2-8-4-9 4 8-5-9-6-8-6-8-6-7-7-6-7-6-6-5-7-4-7-3-6-2-7-2 9 2-6-1-5 0 16-5-2 1 27-38 1 3-3-9 3 3 5 4 7 3-8-3 8 2 9 3 11 1 10 2 11 1 11 1 11 1 12 1 12 1 11 0 9-1 9 0 8-1 6 0 7-1 6 0 5 0 6-1 4 0 5 1 4 1 7 3 4 2 2 4 2 4 2 5 2 8 1 5 1 5 1 5 1 5 0 5 1 6 1 5 0 5 1 6 1 5-2-8 2 5 2 4 2 3 3 2-8-3 4 0 5 0-9 1 6-1 6-3 6-2 7-2-9 3 7-3 8-3 7-3 7-4 7-3 7-5-7 5 7-5 6-4 6-5 6-5 5-4-7 5 5-4 5-4 3-5-5 7 3-4-5 7 2-4 2-2 5-8 5-7 1-1 7-5 8-5 8-3 9-2 8 3 0 2 2 8 1 4 2 5-3-9 2 6 3 5 3 5 4 6 4 5 5 6 6 5 6 6 7 5 7 5 7 5 8 4 8 4 9 3-8-3 9 3 8 2 8 2 7 0 7-1-9 2 8-2-9 3 7-3 7-4-8 5 6-5 6-4-7 5 5-5-6 7 5-6 4-6 4-6 4-5 4-4 5-7 7-6 3-2 8-5 8-3 9-2 3 0 7 4 3 4 2 7 3 9 2 9 2 11 2 11 2 11 2 11 3 11 2 11 2 12 2 12 2 12 2 13 2 13 1 14 1 14 0 15 0 15 0 16-1 15-2 15-2 15-3 15-4 13-2 9-3 12-4 11-4 9-4 8-4 7-4 6-5 7-9 9-4 4-7 5-8 4-4 1-9 2-8-1-5-2-4-4-5-7-4-7-4-10-3-11-3-14-3-15-1-17-1-18-1-19 0-19 1-20 1-20 1-9 3-21 3-23 4-23 5-24 5-25 5-24 5-24 6-23 6-21 5-19 5-17 5-15 4-12 4-8 4-10 6-9 4-7 6-8 6-6 6-6 6-6 7-4 8-5 7-3 8-4 8-2 9-2 9-2 10-1 10 1 11 1 11 1 12 3 12 3 12 4 12 4 8 3 12 6 12 5 11 7 10 7 9 7 8 8 7 7 6 8 4 8 4 8 2 8 2 8 1 7-1 7-3 9-2 7-4 8-4 7-6 7-5 7-9 9-7 7-8 6-7 6-9 5-10 6-9 4-8 4-10 4-10 4-10 3-11 4-11 3-12 3"/>
<path d="M1076 6863l 0-5 0 8-2-5-3-5 4 7-3-5-3-5-3-6-4-6-5-4-5-3-5-1 9 1-6 0-6 1 9-2-8 2 8-4-7 3-7 6 7-5-7 6-8 8-8 9 9-9-9 10-9 11 5-7-9 12-8 14-9 14-9 15-10 15-9 17 4-8-8 17-8 18-8 18-8 19-6 18 3-9-5 18-2 16-2 16-1 14 1 12 2 11-3-8 4 8 4 7 5 4 6 2-8-3 7 1-9 1 7-1-8 3 9-4-8 5 10-7 10-8-7 5 11-10 12-12 11-12 11-12-6 7 10-13 10-12 9-12 8-11 8-10 6-8 5-7 4-7-5 8 3-5 3-4 5-8 2-3 5-6 7-6 8-5 8-3 2 0 9-2 8 3 2 3 2 5 3 6 2 7 3 7 3 7 3 8 4 8 4 8 5 7 4 7 5 7 2 9"/>
<path d="M1330 6893l-3 0 9 1-3 1-4 0-5 1 9-2-5 2 8-4-5 3 7-5-4 4-6 5-5 6-6 6 9-9-6 7 5-7-6 8-6 9-6 9-7 10-6 12-6 12 4-8-7 13-5 14-6 14-4 14 2-9-3 15-3 13-2 13 0 13 1 11-2-8 3 9 5 8 5 6 7 5 7 3-8-3 9 1 10 0 12-1-9 1 13-3 14-6-9 4 15-7 16-8 16-9-7 4 16-11 17-11 8-5"/>
<path d="M1594 6465l 9-9-3 4 5-7-3 4 4-7-2 5-2 7 2-9-1 10-1 12 1 14 1 14 1 17 0 17 1 20 0 21 0 23 0 25-2 27-2 30-3 31-4 32-5 33-5 31-4 29-3 28-3 26-3 26-1 24-1 22 2 21 2 18 5 17-2-7 5 15 5 14 4 13 5 12 6 10 7 8 6 4-7-3 7 2 7 0-9 2 9-3-16 8 9-6 9-9-6 6 10-11 7-5 7-5 9-3"/>
<path d="M1398 6828l 4-6 6-6 5-7 7-8 7-5 9-8 12-9 14-9 8-5 17-10 18-10 19-9 20-10 21-11 20-10 20-9 8-3"/>
<path d="M1830 6725l-1 7-3 8 3-8-3 10-2 13-3 13-2 13-2 14-2 14-1 14-2 14-1 14-3 13-2 13-2 12-1 12-2 11-1 11 0 9 0 7 0 7-3 9"/>
<path d="M1720 6610l-4 2 29-25-2 4 6-17 0 6 2 6-2-8 3 6 5 7 6 8 7 9 2 9-2 8-4 8"/>
<path d="M1977 6899l 2 8 2 5 2 6-3-8 2 5 2 6 2 6 2 5 4 5 5 3-8-3 6 1 6 0-9 2 5-2-8 3 5-2-8 4 6-4-7 6 5-6-6 7 5-8-5 8 5-10-4 8 5-12 5-12 4-14 3-15 3-17-1 8 1-18 1-18 1-18 0-15 0-15-1-14-1-12-2-11-1-9-2-9-2-7-2-6-2-5-1-4-1-3 1-9"/>
<path d="M2206 6834l 6-1 6 0 7-1-9 1 7-2 8-2 9-2 9-4-8 3 9-4-8 4 9-5 10-6 9-7 10-6 9-7 9-7-6 6 8-8 8-7 7-7 6-6 6-6-6 6 4-5 4-5-5 7 3-5-4 8 2-5 1-5-1 9 0-5-1-6-3-5 4 7-4-5-4-6-6-5-6-4-6-5-7-3-7-3-7-3-8-1 9 1-7 0-8 1 9-2-7 2-7 3 7-4-7 4 8-6-7 5-7 6-8 7 9-9-7 8 5-7-7 10-6 11 4-8-6 12-5 13-4 14 2-9-2 15-2 15 0 15 1 14 2 15 4 14-3-9 5 13 6 12 7 12 7 10 8 10 9 10 9 8 11 6 11 5-7-3 13 4 14 2 17 2 18 0 19-1"/>
<path d="M3063 6569l-7 7-6 7-7 7 9-9-8 9-9 10 6-7-8 12-8 13 4-8-7 15-6 16-5 18 2-9-3 18-1 18 0 19 3 18 4 19-3-9 6 18 8 17 10 15 12 13 14 12 16 11 18 9 20 9-8-3 22 6 23 3 22 2 23-1 22-2-9 1 21-4 21-8-8 3 19-9 19-11-8 5 18-12 16-13-7 6 14-14 13-14-6 6 10-15-5 7 8-17-3 8 5-17 3-18-1 9 0-18-3-19-5-19-7-19-9-19 4 7-12-20-13-22-14-23-15-24-16-23-17-22-17-21-18-18-19-16-19-14-17-10-17-7-17-4 7 1-16 1-14 3 8-2-13 5 8-4-12 7 7-6-11 9 9-9-10 11 6-7-8 12 4-8-6 15"/>
<path d="M3686 6885l-2 6-3 6-3 8-4 8-5 10-5 8-6 12-7 13-8 15-9 15-10 17-10 16-5 8"/>
<path d="M3955 6211l 2 8 2 10 2 13 2 15 2 17 2 19 3 21 3 26 2 28 2 29 0 32 1 31 2 31 3 31 2 31 2 30 2 31 1 31 1 31 0 31 0 30 0 29 0 27 0 27 0 25 1 22 1 20"/>
<path d="M4721 6633l 0-6-1 9 0-5 0-5-2-5 4 8-4-4-6-3 9 2-8-1-8 1 9-2-9 4 8-4-10 6 8-5-10 7-11 10-12 12 9-10-12 15 6-8-12 16-10 17-10 17-9 16 4-7-7 16-6 16-5 13-3 13 2-9-2 11-1 10 0 9 1 7-2-8 3 5 3 2-7-3 5 1 6-1-17 5 8-3-8 4 9-5 10-8 12-10 12-11 14-12-7 6 13-13 13-12 13-12 11-11 7-6 10-9 10-7 8-6 7-5 5-4 7-4 9-4 2 0 9-2 8 3 2 8 0 3-2 8-5 8-2 4-3 6-4 5 5-8-3 6-3 6-2 5-2 6 3-8-2 6 0 8 1 10 1 11 3 12 2 13 4 15 4 15-2-8 5 15 5 16 7 16 7 16 9 16 9 15 9 15 9 15 8 15 8 15 7 15 7 16 5 15 3 9 4 15 3 16 2 16 1 18-1 19-2 19-5 20-2 8-7 19-8 20-4 7-10 19-11 17-5 8-13 16-13 16-14 15-9 9-15 15-15 14-15 11-7 6-16 10-15 8-8 3-15 6-9 2-15 2-15 0-9-1-14-3-13-6-13-9-11-12-11-15-9-19-4-8-9-24-6-29-2-34 2-38 0-6 4-39 6-39 7-39 8-38 10-37 11-37"/>
<path d="M4983 6577l 0 5 1 4 0 7 1 7 0 7 1 8 0 9 1 11 2 12 1 11 2 13 1 12 2 13 2 12 1 11 2 11 1 9 0 9 1 8 0 7 0 3-2 9-4 8-5 7-9 9-7 5-8 4-9 2-9-1-3-8-1-3-1-7 0-9 1-11 1-8 1-13 2-15 2-16 3-17 3-17 4-17 5-17 6-16 6-15 4-8 7-14 7-13"/>
<path d="M5242 6562l-3 5-3 6-3 6-3 6-4 7-4 7-4 7 4-7-3 7-4 8-3 8 3-9-2 8-1 8 0 8 1 7 1 6-2-9 3 6 4 5 5 5 6 3-8-3 7 2 8 2 8 1 8 0 9-2-9 2 9-3-8 3 9-3 8-5 9-5-8 5 9-5 7-5 7-5 5-5-6 6 4-5-5 7 3-5-5 8 3-4-4 8 1-4-1 8 0-3 4 7-2-3-3-3-4-3-5-3-5-3-6-2-6-2-7-2-7-2-6-2-7-1-6-1-6-1-4-1-2-1-4-8 0-1 1-9 3-8 5-7 6-7 6-6 8-4 2-2 9-3 4-1 5-2 6-1 7-2 7-1 7-2 7-1 9-2 8-1 8-1 8 0 9 0 8 0 8 1 8 2 7 2 8 2 6 2 8 3 6 3 6 3 5 3 4 5 4 4 3 6 3 6 2 6 2 8 2 6 1 7 1 7 0 7 0 7 0 6 0 6 1 6 0 6 1 6-2-9 2 5 4 4-8-4 5 2 6 0-9 1 7-2-8 4 7-4 8-4-8 4 8-5 8-6 8-7 9-7 8-7 8-7 7-7 7-6-7 6 6-6 5-5-6 7 3-6-4 8 2-5-4 8 2-4 0-1 3-8 5-7 6-7 7-6 7-5 9-3 8-1 8 3 2 8 0 2 0 4-1 5-1 6-1 6 0 6 0 7 1 6-2-8 2 7 3 7 4 7 5 7 5 6 6 6 6 5 6 4 7 3-8-3 7 2 8 0 7-1-9 1 8-3-8 4 8-4-8 4 8-5 8-7-7 6 8-8 7-8-5 7 6-9 6-9-4 7 5-9 4-9-3 8 3-9 3-9 2-9 1-9 2-9-1 8 0-8 1-8-1-7 0-4 4 8-1-1 50-34-1 3 3-9-1 6-1 7 0 8 1 9 0 9 1 11 1 11 1 13 1 14 2 15 2 17 1 17 2 18 1 19 1 19 1 21 0 21-1 21-1 22-1 22-2 21-2 21-3 19-2 20-2 19-2 17-2 16-1 14-2 12-1 8-2 8-1 4-5 8-5 7-9 9-7 5-8 4-8 2-9-2-4-7 0-3 0-7 0-11 0-14 1-17 1-19 2-21 2-24 3-26 2-27 3-29 0-8 3-29 3-30 3-29 0 7 3-29 0-6 3-26 3-25 3-23 3-21 3-20 4-18 3-18 4-16 4-16 5-15 3-8 7-14 7-14 5-7 9-13 9-11 6-7 10-10 6-6 11-8 8-4 11-7 12-5 8-3 13-3 8-2 14-1 13 0 14 1 13 4 7 3 12 5 11 6 10 8 8 9 6 11 5 12 2 8 3 13 2 13 0 13-2 14-3 13-2 9-5 13-6 12-4 8-8 12-6 8-9 11-9 9-12 11-12 11-14 11-7 5-15 10-15 10-15 9-15 9-15 9-14 7-8 4-14 6-14 6-13 4-11 4-9 2"/>
<path d="M6239 6408l 9 0 8-1-9 1 6-2-9 3 5-2-7 4 5-3-7 6 4-4-6 7 4-4-5 7 2-4-3 8 1-5-1 9-1-4 3 8-4-3 9 2-6-1-8 1-8 1-10 3 9-2-11 3-10 3-12 5-11 4-13 6-12 5-12 5-12 5 8-4-10 6-9 6 7-5-8 6-7 6-6 6 8-9-4 6 9-15-4 8-2 8 2-9-1 7 1 7-3-8 3 6 5 6 7 4 9 4-8-3 11 3 13 3 13 3 13 2 13 1 13 2 14 2 13 2 12 1 12 1 10 1 9 1 8 2 8 2 8 3 6 3 6 4 4 6 2 7 3 8 0 7-1 8-3 9-2 7-3 7-5 7-4 6-5 8-9 9-5 5-7 5-7 5-7 5-7 5-8 4-8 4-8 4-10 3-8 1-10 3-10 1-11 1-10 0-11-1-11-2-8-1-11-2-11-2-10-3-10-3-8-3-8-4-8-3-6-3-5-3-4-3-4-3-4-7 1-9 4-8"/>
<path d="M6499 6639l 8-3 8-2 11-2 7 3 6 7 2 8 3 11 0 12 0 13-2 15-3 14-2 9-4 11-5 12-4 8-7 13-9 14-5 7-12 16-14 17"/>
<path d="M1527 7913l 1-8 3-8 2-4 4-7 6-6 7-6 4-4 8-4 6-4 7-3 9-3 8-3 9-4 10-3 11-5 12-4 12-3 13-3 13-5 15-5 15-4 17-4 17-4 19-4 21-4 22-5 19-4 18-3 9-2 16-2"/>
<path d="M1529 8065l 5-4 7-4 6-4 8-4 8-3 9-3 9-3-8 3 11-4 11-5 12-7 12-7 14-7 15-8 15-8-8 4 16-10 8-4 17-10 17-9 15-9-7 4 15-9 14-8 12-8"/>
<path d="M1655 7601l 6-6 8-4 8-3 8-1 8 2 2 4 2 9 2 8 1 13 1 15 1 19 0 21 0 23 0 25 0 25-1 26 0 27 0 28-1 29-1 28 0 29-1 28 0 27 1 25 2 23 1 21 3 19 4 17-2-7 4 13 4 10"/>
<path d="M1853 7570l 7-5-3 4 8-9-3 4-4 5 5-7-4 7 4-8-3 9-4 12 2-9-3 14-3 17-3 18-2 21-2 21 0 23 0 24 0 24 1 24 1 23 2 23 3 23 2 23 2 22 2 23 2 23 3 22 2 21 2 20 2 19 3 18"/>
<path d="M2340 7876l-5-2-4-1-5-1 9 2-5 0-6 1 9-2-6 1-8 3-7 3 8-4-8 5-8 5 7-5-9 7-7 5-9 6-10 7 7-5-9 7-9 8-9 7-9 8-9 8-8 8 8-9-6 8 5-7-5 8 4-8-4 7-2 7 2-8-1 6 0 6-2-8 2 5 4 4 6 4-7-3 8 2 9 2 10 2 12 0 12 0 13 0 15 0 15 0 15 0 16 1 15 2 15 2 14 3 14 4 7 3 13 5 11 6 10 8 7 7 5 8 2 8 3 8 0 8-1 9-2 9-3 10-4 7-6 10-5 7-8 11-9 9-11 12-14 12-7 5-15 11-13 8-13 6-8 4-13 6-13 6-14 4-8 2-13 2-13 1-13 1-12-1-12-2-8-1-11-4-9-6-7-7-6-8-4-8"/>
<path d="M2530 7894l 5 3 4 4 4 3 4 4 3 3 4 3 3 3 4 2-8-3 4 2 5 1 6 0 7-1-9 1 7-1 7-2-9 3 8-3 7-4-8 5 7-5 8-6 7-5 8-5 8-6 7-5 7-5-7 6 6-6 5-5 4-5-5 7 3-5-9 15 2-4-1 9 0-4 3 8-2-4-4-3-5-4-5-2-7-1 9 1-7-1-7 0-8 0-9 0-9 1-9 2-10 1-11 2-11 2 9-1-11 2-10 4-9 4 8-4-8 5-8 5 7-5-8 5-7 6 9-9-7 8 5-8-5 9 4-8-5 10-4 11 2-8-2 11-1 13 1 13 2 14-2-9 4 13 5 13 8 12 9 13 11 12 13 11 13 11 14 9 15 8 15 7-8-3 17 4 19 2 23 1 22 0 21-1 19-2 20-3-8 1 21-4 21-5 9-2"/>
<path d="M2936 7888l-7-2-7-3-8-1 9 1-9-1-10-1-11 1-12 2 9-2-12 4-13 4-14 6-13 6 8-4-13 8-13 8 7-5-11 10-11 11 9-9-9 12 5-7-8 12 4-8-7 13-4 13-4 13 3-9-2 12 1 11 2 10-3-9 4 9 6 8 8 5-8-3 10 4 12 1 15 0 18-3-9 2 19-5 17-5-8 3 15-6 11-6-7 5 10-7 9-6 8-7-7 6 8-7 6-6 6-6 5-5-6 6 4-5 3-5 3-4 6-7 6-5 8-5 8-3 3-1 8-2 8 4 2 4 2 7 3 8 1 8 2 8 2 8 2 10 2 11 2 12 3 12 4 13-3-8 5 14 4 15 5 14 5 13 4 14 5 14 4 14 5 15 5 14 2 9 4 14 3 14 4 15 2 14 2 14 1 15 1 14 0 15-1 16-2 16-4 16-2 9-4 14-4 11-3 9-4 8-4 8-5 7-5 7-6 7-8 9-7 7-7 5-7 5-7 5-8 4-9 3-8 2-10 2-11 0-12-1-9-1-13-3-12-4-12-5-13-7-13-8-14-10-14-10-14-12-13-12-11-13-10-13-7-14-4-8-5-15-3-17"/>
<path d="M3128 7867l-4-1-3-1-3-1 8 1-4 0-4 0-4 1-4 0-3 1 17-6-4 2 8-6-3 3 14-16-3 4 4-8-2 4 2-9-1 5 0 6 1 5-2-8 2 5 3 5 5 5 6 5 6 3 7 4 9 4 8 4 9 4 8 4 10 4 11 5-7-4 11 5 9 3 8 3 8 3 8 3 7 4 6 3 6 3 5 3 4 3 2 4 2 5 2 8 0 5-1 6-2 9-1 5-3 6-4 8-3 6-5 7-5 7-7 7-9 9-8 7-10 8-7 5-10 8-12 8-12 7-13 8-8 3-13 7-13 5-12 6-12 4-12 3-9 2-12 2-11 0-12 0-10-2-9-1-9-3-10-3-3-8"/>
<path d="M3845 7852l 8-3 8-2 6 0 7 3 5 2 5 3 3 4 4 6 4 7 4 9 2 9 3 12 3 15 3 17 1 19 0 22 1 24 0 27-2 28-3 28-3 28-3 28-3 27-3 27-2 27-2 25-2 25-3 23-2 20-1 19 0 16 0 13 0 12-1 10-2 7-2 8-4 8"/>
<path d="M3828 8015l 1-11 1-10 2-12 2-12 3-11 3-12 5-12 4-8 5-11 6-11 5-7 7-11 7-10 8-10 7-9 8-10 7-10 6-6 7-9 8-8 7-5 7-7 9-7 8-5 8-5 8-4 9-3 8-2 9-1 9-1 9-1 8 0 9 1 8 3 7 3 8 3 7 4 6 4 6 6 4 6 3 7 3 9 2 8 0 9 0 10-2 10-2 9-4 10-4 11-4 7-6 12-8 12-5 7-9 12-9 12-11 13-10 12-10 11-9 10-10 10-10 9-10 8-9 7-7 5-9 6-8 5-8 4-7 4-8 3-6 2-8 2-6 0-8-1"/>
<path d="M4216 7839l 4 3 5 2-8-3 5 2 7 1 6 0 7 0 6-1-9 1 6-1-8 3 6-3 6-3 7-3 7-3 7-5-8 5 8-4 7-5 7-4 7-5 6-6-7 6 7-7 5-6-6 6 5-7-4 8 4-7 2-6-3 8 1-6 1-5-1 9-1-4-1-3 3 8-2-3-4-3-5-2-6-2 8 1-6-1-7 0-8 1-8 1-9 1 9-1-10 2-10 4-10 3-11 4-10 4-10 5 8-4-10 5-10 6-10 5-9 5-8 6 7-6-7 7-7 6 9-9-5 7 5-7-4 7 4-8-2 7 2-9-1 8 0 8 1 8-2-9 2 8 4 8 5 8 7 8 7 8 8 8 9 6 11 6 11 5-8-3 12 4 13 4 13 2 13 2 15 1 15-1 16-1-9 1 16-3 17-4 16-5 18-5 18-5 21-6 21-7 9-1"/>
<path d="M4485 7777l 7 0 8 0 9 1 11 2 12 3 12 3 10 2 8 2 7 2 8 3 6 4 6 3 4 4 3 5 2 5 2 8 1 6 0 6-1 5-2 9-3 5-4 7-3 6-5 7-5 6-6 6-9 10-6 5-6 5-7 5-7 5-9 5-8 5-6 4 7-5-6 5-5 4-5 5 8-9-4 5 5-7-4 5 5-8-3 6-2 6 2-9-2 6 0 5 1 6-2-8 1 5 4 5 4 5 6 5 7 5 8 4 9 4-8-3 11 4 11 2 11 2 14 1 15 1 15-1 14-2-9 2 15-4 18-5 20-7"/>
<path d="M5279 7864l 4-3 4-2 4-2 4-3-7 5 4-3 5-3 5-4 4-3-7 5 4-4-5 7 3-5 4-5-5 8 3-5 2-5-4 8 2-5 0-4-1 9 0-4-2-4 4 7-3-3-3-3-4-2-4-2 8 2-5-1-7 0-7 0-7 1-9 2-9 1-9 2 8-2-10 3-10 4-10 4-11 4-10 5 8-3-11 5-9 6-10 6-9 7 7-5-8 6-7 6 9-9-6 6-4 6 5-7-4 6 5-8-3 6-2 5 2-8 0 5 2 7-3-9 4 6 4 6 7 5 7 5 9 3-8-3 10 3 11 1 12 1 12 0 12-1 11-1-9 1 11-2 10-3 9-3 9-4 8-3 7-2 6-3 5-1 9-2 3 0 8 3 2 3 2 8 1 4 2 5-3-8 3 6 2 6 3 7 4 6 3 7 4 7 3 7 4 7 4 5 5 6 2 8"/>
<path d="M5637 7767l-5 1-5 1 8-2-4 1-5 2-9 2-4 1 8-2-5 2 8-4-5 3 7-5-4 4-5 4 9-9-4 5-5 7 5-8-5 7-4 8-5 8-4 8-5 8-6 9-7 9-5 10-6 10-6 11-5 10 4-8-5 10-4 10-3 10 3-9-2 9 0 9 2 8-3-8 3 8 4 7 5 6 8 5 8 4-7-3 9 2 11 0 12-1-9 1 14-3 15-6-9 3 17-8 18-9 19-9 8-3"/>
<path d="M5868 7500l-1 6 2-8 0 6-1 8 0 8 1 9 0 9 1 9 1 11 1 10 1 10 0 10 0 12 0 14 0 14 0 15 0 16-1 17-2 17-1 17-3 16-3 17-3 16-3 16-3 15-2 14-2 14-1 12-1 12-1 10 0 10 2 8-3-9 3 7 5 6 5 4-8-3 7 2 7 0-9 1 9-2 10-4 9-2"/>
<path d="M5769 7612l 7-1 7-1 9-1 13-1 19-3 21-2 21-3-9 1 20-4 20-4 20-6 19-5 19-4"/>
<path d="M6095 7633l-2 7-3 10-4 11-4 11-3 10-3 9-2 8-3 10 3-9-3 11-1 11-1 11-2 10-1 10-1 9-1 9 1 7 1 6 0 4-2 9"/>
<path d="M6082 7457l 1 7-3-9 3 9 4 9 4 10 5 11 7 12 6 11 2 8"/>
<path d="M6208 7786l-2-8 2 5 3 4 2 5 3 4 4 3-7-3 5 2 6 2 6 2 5 0 4-1 5 0 5 0 5-1-9 2 5-1-8 3 5-2-8 5 5-4 6-3 6-5-7 6 7-7-6 7 6-8 6-10-4 8 6-12 5-12 6-12 5-13-3 8 4-13 4-14 3-17 2-19-1 8 1-19 0-17 0-15-1-14-2-12-2-10-2-9-2-8-2-6-2-6"/>
<path d="M6430 7632l-7-3 4 1 5 1 6 2 6 2 6 2 8 2 8 2 7 1 8 0 9 0 10 0 10-1 10-1 10-2-9 2 10-2 10-2 10-4-8 3 9-4 9-5-8 5 9-6 8-6-6 6 6-6-6 6 5-6-5 7 4-6 2-6-3 8 1-7-1 9 0-7-2-7-3-7 4 7-4-7-5-6-6-6-7-7-8-5-9-4-9-3-10-2 8 1-10-1-10 0-11 0-12 2 9-2-11 2-10 4 8-4-8 5-8 5 7-5-7 6-7 7 9-10-6 9 5-7-5 9 4-8-5 10-3 10 2-9-2 10-1 11-1 13 0 13 1 14 2 14 3 15 4 14-2-8 6 15 7 17 9 15 9 12 9 10 11 9 13 7 14 7-7-3 15 5 15 5 18 2 21 0 20-2-9 1 19-3"/>
<path d="M7205 7676l 2-11 2-11 3-13 3-12 3-13 3-13 2-13 2-12-1 9 1-11 0-10 0-9-1-8-3-8 4 8-5-6-7-4-10-2 9 1-10-1-11 1 8-2-11 3-12 4 8-3-12 6-12 6-12 8-13 9 7-5-12 10-11 11 9-9-10 10-8 11 5-7-6 9 4-8-4 10-3 11 2-9-2 12-2 12 0 12 1 11-2-8 3 10 5 9 6 8 9 6-8-3 12 4 13 3 16 1 16-1 16-2-9 1 16-4 14-4-8 3 13-6 11-6-7 5 10-7 8-7-7 6 6-6-5 6 5-6 4-6-5 8 2-5-4 17 0-4 13 10-3 0 16-6-4 3 7-6-6 5 9-9-5 6 5-7-5 7-5 9 4-8-5 10-4 12 2-9-3 14-2 15 0 17 0 18 2 18 2 18 2 18 3 18 3 19 3 19 2 21 2 22 2 22 1 23-1 24-1 23-1 23-3 22-4 21-2 8-5 19-5 16-6 15-5 7-6 13-8 11-5 7-8 9-9 9-8 7-7 5-8 4-9 4-9 2-10 2-11-1-8-2-12-3-11-6-10-9-10-13-8-15-4-8-8-19-6-23-5-26-4-28 0-32 2-33 1-7 5-35 8-36 9-37 2-4 2-4"/>
<path d="M7461 7455l-1 7-1 8-1 7-2 7-1 6-2 7 0 8-1 8 0 8 1 8 2 8-3-9 3 7 3 6 3 7 4 6 4 8 3 9 3 9 2 8 1 8 0 7 0 7-1 7-3 8-2 7-2 6-5 8-3 6-3 5-2 5-6 7-3 4-8 9-7 5-4 3-8 3-8 2-4 1-8-2-4-2-3-6-4-8-3-8-1-9-1-12 1-8 1-13 3-13 5-13 5-14 4-8 6-13 8-13 5-8 8-12 10-13 6-7 11-12 7-5 12-11 13-9 12-9 11-8 11-8 7-5"/>
<path d="M7650 7466l-4 7-5 8-5 8-6 8-5 9-6 10-6 9-5 10-5 9-5 9 4-8-4 8-3 9-3 7 2-8-1 7 0 8 1 7-2-8 3 7 5 7 7 6 8 5-8-3 8 3 10 2 10-1 10-1-9 1 12-3 13-4 13-4 13-6-8 4 13-6 12-6 11-6 10-6-8 5 9-6 6-5-12 12 4-6-4 8 2-6-3 8 1-6-1 8-1-6-2-7 3 8-3-7-5-7-7-7-7-6-8-7-8-6-8-6-8-5-7-4-6-4-5-4-2-4-4-8 1-8 1-5 3-8 5-7 6-7 4-4 6-6 8-4 6-4 8-3 8-3 9-2 9-3 9-1 10-2 10 0 10 0 10 1 11 3 11 3 12 3 11 4 12 4 11 4 11 3 9 4 8 3 8 4 7 5 6 4 5 6 3 6 2 9 2 7-1 8-1 8-2 9-3 7-3 7-4 7-4 8-3 7-4 7-5 6-3 7 4-8-3 6 2-9 0 7-2-9 2 6 4 4-8-3 7 3 8 0 9-2-9 2 9-3-8 3 10-5 10-5-7 4 10-7 9-7 10-8 9-8-7 6 8-8 7-7 7-8-6 7 5-7 4-6-5 8 3-4 4-7 6-7 1-1 6-6 8-4 8-3 9-2 8 3 2 8-1 4-1 7 0 8 1 8 2 8-2-8 3 7 4 6 3 6 5 4 5 5 6 4 6 3 7 3-7-3 8 2 10 0 11-1 11-2-8 2 11-4 12-4-8 3 12-6 12-7-8 5 11-7 9-6 7-7-6 6 6-7-5 6 6-8-5 7 5-9 5-10-4 8 3-11 2-10 1-10 0 9 0-9-1-7-1-5 4 8-2-2 17 0-2 1 24-19-3 4 9-15-2 5-2 7 2-9-2 7 0 8 0 10 1 10 2 9 2 9-2-8 2 9 4 8 3 9 4 10 4 11 2 9 3 12 4 15 3 16 3 17 2 20 1 22 0 23-1 25-3 26-3 27-5 27-7 29-2 8-9 30-8 28-8 25-6 21 1-6-4 19-4 16-2 15-2 12-2 11-1 8-1 6-2 9-1 1-4 8-6 7-9 9-7 6-8 3-8 2-9-1-4-8 0-3 1-9 1-8 2-11 1-13 3-16 2-18 3-19 4-20 5-22 6-27 8-32 10-38 12-45 13-46 12-43 12-39 10-33 9-28 8-24 6-20 4-17 4-15 4-14 5-11 3-7 5-10 5-8 5-9 7-9 5-6 7-8 7-6 7-6 7-5 8-5 8-4 7-3 8-4 8-2 8-1 8-2 9 0 9 0 9 1 10 1 9 3 10 3 8 3 9 4 10 5 9 6 8 6 8 7 8 7 6 7 5 7 4 8 2 7 2 8 1 7-1 7-3 9-2 7-5 8-5 7-5 7-9 10-8 7-10 9-8 5-14 9-16 10-19 10-19 10-8 3-19 10 7-4-19 10-18 9"/>
<path d="M1382 9422l-9 1 8-2 9-3 9-3-8 3 10-4 12-6 13-7-8 5 14-9 14-10 16-12 15-14-6 6 16-15 16-17 15-18-6 7 15-19 14-18 12-18 11-18 10-17-4 8 9-16 9-15 8-13 6-13 6-11 5-11 4-9-3 8 3-8 3-8 2-6 2-5-1 9 0-1 54-26-1 2 2-8-1 5-1 8 0 8 0 8 0 10 0 11 0 12-1 13 0 15 1 17 0 18 0 20 0 22 0 23-2 23-2 25-2 25-3 25-4 27-4 28-5 31-5 31-6 33-5 32-4 32-4 30-3 29-4 28-3 28-3 27-2 25-2 24-2 21-1 19-1 16 1 14 0 12 0 9-2 8-1 7-4 7-6 7-8 10-2 2-8 5-7 4-9 1-9-1-3-4-3-8-3-10-3-14-1-17-1-20 0-23 2-26 1-9 4-30 6-34 7-36 7-37 7-37 8-37 8-36 9-34 10-34 11-33 12-34 12-33 2-4 2-3 3-4"/>
<path d="M1945 9203l 7-5-4 4-5 4-5 5-6 6 9-9-6 7-6 8 5-7-6 9-5 10-6 11 4-8-5 11-5 11-4 12-3 11 2-9-2 12-2 11-1 11 0 10 0 10 1 10-2-9 2 9 4 6 4 5 5 4 7 3-8-3 7 1 6 0-9 2 7-2-9 3 7-3 6-3-7 4 6-4 6-5-7 6 6-6-6 6 5-6 5-8-5 8 4-8-3 8 3-8 3-8 2-8 1-8-1 9 0-8-1-8-1-8-2-8-3-8-3-7 4 8-4-7-4-5-4-6-4-4-3-4-4-4-2-3-4-8-2-4 0-4 1-8 1-4 3-8 2-3 5-8 3-3 5-7 5-4 6-6 6-5 6-5 8-5 9-6 9-6 8-4 10-6 10-6 11-6 11-5 10-5 11-5 8-3 10-4 10-4 9-2 9-1 7-2 7 0 5 1 8 3 4 3 2 4 3 8 1 5 0 6-1 6-1 7-2 8-2 8-2 8-2 10-3 9-3 9-2 10 2-8-2 10-2 10-1 10-1 10 0 10 1 8 2 8-2-8 3 8 2 6 4 7 5 5 6 5 6 4-8-3 7 2 7 1"/>
<path d="M2206 9016l 8 1-4 1-5 2"/>
<path d="M2285 8964l 4 5 4 5 4 4 5 4 5 4 5 4 5 4 5 3 5 3 4 3 5 3 4 4 5 4 4 5 5 6 4 7 3 8 2 7 3 9 1 7 1 8 1 8 0 9 0 9 0 9-1 10-1 9-2 10-2 10-2 10-1 9-1 9-1 9-1 10-1 9-1 10-2 10-1 10-1 9-1 9-2 8-1 7-2 9-2 6-2 6-1 4-4 8-5 7-1 2-9 9-7 5-8 4-9 2-8-2-4-7-1-3 1-6 1-9 1-8 1-11 2-12 3-15 4-16 5-15 5-14 4-8 5-13 6-12 7-12 5-7 6-11 7-10 8-11 7-10 7-10 6-6 8-9 7-7 8-7 6-6 6-6 6-5 7-4 6-4 8-3 6-2 6-1 6-2 5-1 9-1 6-1 5 0 5 1 5 2 8 3 5 3 7 5 6 6 5 8 3 7 3 8 3 9 2 8 2 9 1 9 1 9 1 8 0 8 0 8 0 8 1 9 0 9 1 9 1 8 1 8 1 9 2 8 1 9 2 8-2-8 3 8 3 7 3 7 4 6 3 5"/>
<path d="M1713 8821l 8 2 8 3 8 4 10 5-8-3 12 4 15 5 16 5"/>
<path d="M3601 9182l 2-10 2-11 1-11 0 9 0-11-2-10-2-9-3-8 3 8-4-7-7-6-8-5-9-4 9 2-10-1-11 0-13 3 9-2-14 3-15 5 8-4-15 8-16 10-16 11 7-5-16 13-15 14 9-9-13 13-10 13 6-7-9 13-7 14 4-8-7 15-6 14-4 15 2-9-2 13 0 12 2 10-2-8 4 8 7 6 9 5-7-3 12 3 14 1 16-2-9 1 18-4 19-5 19-7-9 3 19-9 18-10-8 4 18-12 17-12 13-12-6 6 10-11 9-9 6-7-6 6 4-5 6-7 7-5 2-2 7-4 9-4 8-1 8 3 2 8-2 9-1 3-2 6-3 8-3 10-3 11 2-9-3 13-2 13-2 15-2 16-2 17-1 19 0 18 0 18 0 19 0 18 1 19 0 19 1 20 0 22 1 22-1 23 0 23-2 23-1 22-2 21-2 20-3 18-4 17-2 9-5 15-5 13-5 12-4 8-6 10-6 7-6 9-9 9-6 7-7 5-7 5-8 4-7 2-9 2-8-1-8-1-8-3-8-5-8-7-8-9-7-13-4-8-7-16-6-19-5-21-3-24-1-26 2-27 0-9 4-27"/>
<path d="M3855 9129l-1 6 2-8-1 6-2 8-2 8-1 9 0 8 1 9 0 8 0 8 0 8 0 8-1 10-1 9-1 9-3 10-2 8-3 9-3 9-4 8-3 7-4 8-3 5-5 7-9 9-2 2-7 6-8 3-9 2-8-1-3-2-4-8-2-6-1-7 0-9 1-9 1-12 3-16 3-17 4-16 5-15 3-8 7-13 6-13 7-12 5-7 7-12 6-6 9-11 10-9 7-6 11-9 11-10 11-8"/>
<path d="M4075 9093l-5 5-6 6-7 5-8 7-8 7-8 8 9-9-7 9-8 8-6 8 5-7-6 8-5 9-5 8 4-8-3 9-2 8 2-9-1 8 0 8 1 8-2-8 2 6 3 6 4 4 5 4 5 3 6 2-7-3 7 2 7 1 9 1 9 0 10-1-9 1 12-2 11-3-8 3 10-5 10-6-8 5 9-6 8-7-6 6 6-6 6-6-6 7 4-6-5 8 2-6-3 8 1-6-1 9 0-7-2-6 3 8-3-6-4-6-4-6-4-4-3-8-1-2 1-9 4-8 4-7 6-7 7-6 7-5 9-3 9-1 3 0 6 2 7 2 8 1 8 1 9 1 8 1 7 1 8 1 7 1 7 2 7 1 7 2 6 3 8 3 6 2 6 4 5 4 5 5 3 6 3 7 2 8 2 7 1 7 0 7 0 5 0 5 0 5-1 5 0 5 0 5 0 5 1 5-2-8 2 4 2 4 4 4 4 2-8-3 5 1 6 0-9 2 6-2 7-2-8 3 8-3 8-5-8 4 10-5 10-7 11-7 10-8 9-7 8-8 8-6 8-6 6-5-7 5 6-5 5-5-6 7 4-5 4-5 5-7 3-3 7-5 7-5 9-3 9-2 2 0 7 3 2 5 3 8 2 8 1 9 2 9 1 9 0 9 1 10 1 11 0 12 0 13-1 13-1 14-2 15-2 17-1 16-2 16-2 16-2 16-2 15-2 16-1 15-2 15-2 13-2 14-1 12-2 12-1 12-2 12-1 11-2 10-2 10-2 9-2 8-2 8-2 6-5 8-2 5-5 7-9 9-3 3-7 5-8 4-9 2-3 0-9-1-3-3-4-5-3-8-4-8-2-10-2-12-2-13-2-15-1-16-1-18-1-18 0-20 1-19 1-20 1-20 1-8 3-20 3-19 4-19 5-18 6-19 8-20 4-8 9-20 9-18 9-16 5-7 9-14 6-6 10-12 9-9 7-6 10-8 10-7 8-5 11-6 11-5 8-3 12-4 12-4 13-3 8-1 13-2 12-2 12 0 12 0 10 1 10 2 8 3 7 3 7 3 5 5 4 6 2 7 3 8 0 7 0 8-1 8-2 9-3 8-3 8-4 8-4 8-5 9-5 7-7 8-9 9-8 9-9 8-9 8-9 7-9 7"/>
<path d="M4776 9074l-24 24 1-3 0 24-5-1 9 1-7 0 8-1-7 2 8-4-7 3-6 4-6 3-7 4 7-5-6 5-6 6 9-9-6 6-9 9-5 5-5 4 9-9-4 4 9-15-3 7 3-9-1 8 2 8-2-8 4 7 5 5 8 5 8 4-7-3 9 2 11 3 12 2 13 2 13 2 14 1 14 2 14 1 13 2 13 2 12 2 10 2 9 2 7 2 8 3 5 2 4 3 2 4 2 8 1 5-1 6-2 9-2 5-4 8-4 6-5 7-6 7-8 9-7 6-7 6-8 7-7 5-9 6-10 6-10 7-11 6-8 4-11 5-11 4-11 4-11 4-10 2-8 2-11 2-10 1-10 0-9-1-3-8 0-9 4-8 5-7"/>
<path d="M1326 2329l 4 9 4 11 2 9 3 12 4 14 3 15 3 16 2 16 3 17 2 19 2 21 2 22 2 22 2 23 2 23 2 24 1 25 0 24 1 22 0 22 0 19 1 19 1 17 1 14 0 13 0 10-1 9-1 7-2 9-2 3-4 8-5 7-9 10-7 5-8 4-8 2"/>
<path d="M1418 2857l 1 4 2 5-2-8 2 4 3 5 3 5 5 6 6 5 6 5 7 4 8 5 10 5 10 5 12 5-8-3 12 5 13 4 14 3 14 3 14 2 15 0 15 0 15-1 15-3-9 2 15-4 17-4 18-6 19-8 20-8-8 3 22-9 25-10 27-10 8-3 29-10 29-10 28-9 27-9 26-10 26-10 26-8 27-8 28-6 5-1 29-4 29-3 30-1 30-1 29 1 27 0 26 2 25 1 24 2 23 3 21 3 20 5 20 4 18 5 17 5 7 3 17 6 14 7 13 9 11 9 10 9 9 9 8 10 7 8 6 9 6 9 5 8 5 9 4 8 4 8 3 8 3 7 3 5 3 5 3 2-8-3 3 1-25 9 3-3-12 13 4-6-5 8 4-8 4-10-3 8 4-11 4-11 5-12 3-8 5-12 6-12 6-11 6-10 5-8 6-9 6-9 6-8 6-7 6-7 6-6 5-7 6-5 7-6 5-5 7-4 7-4 7-4 9-3 7-3 9-2 9-2 8-2 10-2 10-1 10 0 12 1 12 0 12 1 14 1 13 1 14 1 14 2 16 1 18 2 20 3 21 2 21 3 20 3 19 2 20 2 20 2 21 3 21 1 21 2 22 2 23 2 23 2 25 2 26 3 28 5 27 4 25 3 23 1 22 0 20-2 20-2 21-2 21-4-8 2 21-5 20-5 21-6 22-6 22-6 23-7 22-7 22-8 20-8-8 3 19-8 17-8 15-8-7 4 13-9 11-8 10-9 10-8-7 6 8-9 9-8 8-9 7-8 7-8 6-7-5 6 5-6 5-8-5 8 5-8 4-8 3-7 4-6 3-6 3-5 2-6 3-5 2-4 2-5 5-8 6-6"/>
<path d="M13936 1362l 3-3 6-6 3-3 4-3 8-5 5-2 4-2 5-3 9-3 6-2 8-2 8-3 10-1 10-2 8-2 11-2 11 0 12-1 13 0 13 0 14 0 14 0 15 1 14 1 13 1 14 1 12 0 12 0 11 0"/>
<path d="M14897 1288l 7-3 7-2 9-1 8-1 8 0 9 0 10 0 9 1 9 1 10 1 11 1 12 0 14 1 13 1 15 0 15 1 17 0 17-1 17 1 16 0 17 0 15-1 15-1 13-1 13 0 12-1 12-1 10-2-9 2 10-2 9-2 9-1 9-1 8-1 8-2-9 2"/>
<path d="M15317 1683l 3-3 8-4 4-3 8-3 5-2 6-1 7-2 9-1"/>
<path d="M16562 1398l 6-3 9-1 8-2 10 2 11 1 10-2 11-2 11-2-9 2 13-2 13-3 14-3 9-1 14-2 15-2 15-2 17-3 17-2 19-2 18 0 18 1 17 0 17-1 16-1 16 0 16 0 16 1"/>
<path d="M15060 2753l 3 10 1 9 1 10 1 13 1 14 2 17 1 18 1 20 1 22 2 25 1 25 1 26 0 25 1 27 1 26 1 26 2 27 1 27 2 28 1 27 1 27 1 27 1 26 2 25 2 24 1 24 1 22 0 21 2 19 2 17 3 17 2 16 1 15 0 14 0 12 0 12 0 10-1 9-1 8-2 8-1 4-4 8-5 7-9 9-7 5-8 4-9 2-8-1-2-3-4-7-1-7-2-8"/>
<path d="M13524 2872l-15 7 4-3-20 27 2-5 1-6 0-7 1-7 1-8 1-8 2-8 1-9 0-9 0 9 0-10 1-11 1-11 1-11 1-12 0-13 0-14 0-15 0-15 0-16 0-16-1-17 0-17-1-16-1-17 0-17-1-16 0-15 0-15-1-13-1-12-1-11-1-10-2-9-1-8-1-6-1-5-1-3 4 8-3-3-3-1 9 2-4 0 9-2-5 1 8-3-5 2 7-5-5 4-7 6 9-9-6 7-7 9-8 11-9 13-11 13-11 14-12 14-11 15-11 14-10 13-9 12 5-7-8 12-8 11-6 10-6 8-4 7 4-8-2 5 2-9 0 2-42 4 2-2-5 7 3-5 6-7 6-8 7-10 8-12 9-13 10-14 10-15 11-15 11-15 11-15 10-13 9-11 9-11 7-9 6-7 7-8 6-7 7-5 6-6 6-4 8-4 4-3 9-3 4-1 9-1 5 0 7 3 5 2 4 3 5 3 5 4 5 4 5 5 6 4 6 5 7 5 7 5 8 6 9 5 10 5 9 5 10 4-8-3 10 4 10 3 10 4 11 4 11 3 10 3 10 3 9 3 10 3 9 3 9 4 7 3 8 3 7 3 7 3 2 8-2 9-4 8-5 7"/>
<path d="M14538 5334l 4 4 3 4 4 3 4 3-7-3 5 2 5 1 5 1 5 1 6 2 5 2 5 1 5 1 5 0 5-1-9 1 5-1 4-2 4-1 5-2 4-2 4-1 5-1 5-2 5-2 5-2 5-1 4-1 5-1 5-1 5-1 9-2 5-1 6 0 6 0 5 1 7 0 6 0 6 1 5 1 6 2 5 2 7 3 5 2"/>
<path d="M14506 5041l-3 4 5-7-2 4 4-8-2 6-3 7 3-9-2 9-2 11-1 13 0 16 0 19 1 21 2 23 2 25 1 26 2 26 2 26 2 26 1 26 2 26 2 27 2 29 1 29 2 28 2 24 2 20 3 18 3 16 3 16 2 14 2 13 2 12 1 11 1 8 1 6-2-9 1 3-32 6 1-1-21 28 2-4 2-6 1-7 1-8 1-9-1 9 1-10-1-11 0-11-1-11 0-11-1-10 0-11 0-9 0-9 0-8 0-8 0-6 0-6-1-6 0-6 0-5 0-6 0-5 0-6 0-5 0-6-1-5 0-6 0-6 0-5 0-5 0-4 0-4 1-9 1-3 3-7 5-8 6-7 1-2 7-5 8-5 8-3 3-1 9-1 4-1 5 0 4-1 5-1 5 0 5-1 5 0 6 0 6-1 7 0 6-1 7-1 6-1 7 0 7-1 7 0 8-1 9 0 9 0 9 0 10 0 9 0 10 0 11 0 10 0 11 0 12 1 12 0 13 1 12 0 12 1 12 1 13 0 13 1 12 1 14 0 13 1 15 0 15 0 17 0 17 0 18-1 19 0 20-1 20 1 21 0 21 1 22 1 22 1 23 0 25 1 26 0 27 0 27 0 27 0 28-1 30 0 30 1 32 0 32 0 33 1 32 0 31-1 31 0 30-1 32-2 33-1 35 0 36 0 36 0 35 0 34 0 33-1 32 0 31-1 33 0 35 0 36 1 36 1 37 2 36 1 34 2 34 0 33 1 34 0 35 0 36 0 37 1 38 1 38 1 36 0 34 0 34-1 34 0 33-1 34 0 35 0 34 0 33 0 31 0 29-1 28-1 25-1 24-2 23-2 21-2 22-3 20-3 18-3 18-2 16-2 15-1 13-1 12-1 11-1 10 0 9-1 8-1 8 0 7 0 6-1-9 2 4-2-23 14 3-3-14 23 2-4 1-4 1-5 2-5 2-4 3-8 3-5 2-6-3 8 2-6 2-7 1-8-1 9 0-8 0-9 0-10-1-10-1-11-1-10-1-10-2-10-2-9-3-9-2-8-2-7-3-6-2-6-2-5 3 8-2-3-2-3-3-1 17 0-2 1 23-18-2 4 9-15-2 6 2-9-2 7 0 9 0 10 0 11 2 11 1 12 2 13 3 13 3 14 3 14 3 13 3 13 3 13 3 13 3 13 3 12 2 13 3 12 3 13 2 12 3 11 2 10 2 10 2 9 1 7 1 7 2 5 0 4-2-8 1 1-55 43 0-3 0-5-1-7-1-8-2-9-2-9-2-10-3-11-3-10-3-9-2-9-3-8-3-7 4 8-3-6-3-5-3-4-3 0 33-10-3 2 19-24-2 5-2 6 2-8-1 7-1 7-2 9-4 8-6 7-9 9-7 5-7 4-9 2-9-1-4-8 1-9"/>
<path d="M14528 5362l-8 1 5-2-16 8 3-3-12 13 2-3-9 24-1-3 4 8-2-2-4-1 9 2-5-1-5 0-6 0-6 0-6 0-6 1-6 1-6 0-7 1-7 0-8 1-8 0-8 1-9 0-9 0-10 0-10 0-10 0-10 1-11 0-12 1-11 1-12 0-12 1-12 1-12 1-11 1-12 1-11 1-11 2-12 1-12 2-12 1-12 2-13 1-14 1-15 1-15 0-15 0-16 0-15 1-16-1-16 0-16 0-17-1-16-1-16-1-17 0-17 0-17 0-17 0-18 0-19 0-20-1-20-1-21-1-22-2-22-1-22-2-22-2-22-2-21-1-22-1-21-1-20-1-19 0-19 0-19 0-19-1-20 0-21-1-21-1-22-1-22-2-23-2-23-2-21-1-22-2-21-2-20-2-19-1-18-2-18-2-17-2-17-2-16-2-16-2-16-2-15-1-16-2-17-2-16-2-17-2-18-2-19-2-18-1-16-2-16 0-16-1-15-1-13 0-12 0-11 0-12 1-11 0-12 0-12 0-13 0-13-1-13 0-13-1-14 0-14-1-15 0-14-1-15-1-16-1-15-2-16-1-15-1-15-2-15-1-13-1-14-2-12-1-13-2-12-1-11 0-11-1-10 0-10 0-10 1-10 1-9 0-10 1-9 1-9 1-8 0-8 1-8 0-7 0-6 0-5 0-5 1-4 0-4 0-4 0-3 0-3 0-4-1-9-1-3-1-4-1-4-1-3-1 8 1-3 0 9-2-3 1 23-18-2 3 10-15-2 4 2-9-1 5-1 5 0 5 0 5-1 5 1 5 0 5 1 4-2-8 2 3-8-3 3 0-17 5 4-2-8 5 4-4-13 13 4-4-5 7 2-5-3 8 1-5 2-6 1-7 2-8 1-8 1-8-1 9 1-9 0-8 0-8 1-9 0-8 0-8 0-7 1-6 0-6-1-4 0-3 4 7-1 0 51-34-1 3 2-9-1 6-1 7-2 9-1 9 0 10-1 11 1 11 0 11 1 12 1 11 1 12 0 12 1 11 0 12 1 12 1 11 1 10 2 9 1 8 1 5-2-8 1 2-54 43 0-2-1-5-1-8-1-9-2-11-2-11-2-11-3-13-2-12-3-12-2-12-3-11-2-11-2-10-2-8-1-7-1-4-1-1 57-35 0 3 2 6 3 8 2 10 3 9 2 10 3 10 2 11 2 10 2 11 2 10 2 10 2 10 2 10 2 10 1 8 2 8-2-9 2 7 2 6 2 6 3 9-3 8-4 8-5 7-9 9-7 6-8 3-8 2-9-1-4-8-2-6-2-6-2-7-2-7-2-9"/>
<path d="M1267 2359l 1-6 4-8 2-5 5-8 4-5 5-7 5-6 6-7 7-7 6-5 8-6 8-5 9-5 11-4 8-4 13-4 14-6 15-4 17-4 9-2 18-3 20-3 19-2 20-2 20-1 18-1 17 0 16 1 13 2 11 2 10 4 8 3 8 4 6 5 5 6 4 8 2 8 1 9 0 11-2 11-3 9-3 12-6 13-4 8-7 15-9 15-11 15-6 7-13 15-9 9-16 14-16 12-7 6-17 11-16 11-17 10-16 9-16 8-8 4"/>
<path d="M1929 2208l 0 2 2-8 1 4 1 7-2-9 2 7 2 9 2 7 2 7 2 8 2 8 2 9 1 8 1 9 1 8 1 10 0 9 0 9-1 10-1 9-1 9-2 10-2 9-3 9-2 7-2 6-4 8-6 7-8 9-7 6-2 1-8 3-8 2-9-1-4-8 0-6 0-11 1-8 1-12 3-13 3-13 4-13 4-14 4-14 4-15 5-14 5-13 5-12 4-8 5-12 6-10 6-11 6-11 7-11 5-7 6-9 6-7 6-7 6-6 6-6 6-4 8-5 6-3 8-3 7-2 9-1 7-1 6 0 6 1 8 3 5 2 6 4 6 4 5 5 4 5 3 6 4 6 2 6 3 8 2 8 2 9 3 9 2 10 2 11 3 11 2 12 2 11 3 11 2 11 3 11-2-8 4 11 4 11 4 10 4 9"/>
<path d="M2366 2321l-7-3 5 1 5 1 6 1 6 0 8 0 8 0"/>
<path d="M2548 2343l 3-4-5 6 3-5 6-7 4-5 7-5 5-4 5-4 8-5 8-3"/>
<path d="M2697 2304l-8 3 4-3-7 4 3-3 3-2-7 5 3-3"/>
<path d="M3103 2110l-8 3 4-2 4-2 8-3 5-2 8-1 5 0 4 0 4 2 8 3 5 2 4 3 4 3 4 3 3 5 3 5 2 5 3 7 2 7 3 9 2 9 0 13 0 13-2 15-2 14-3 14-3 15-2 9-4 14-4 15-5 14-5 12-5 11-4 11-4 10-2 9-3 6-4 8-5 7-3 3-8 9-7 5-8 4-9 2-9-2-1-1-4-8-1-6 0-8 1-9 2-11 2-13 4-15 4-17 4-17 6-17 6-16 4-8 7-16 8-15 8-13 7-13 5-7 8-12 7-11 7-11 6-10 7-8 6-7 6-6 7-6 7-6 6-5 7-5 7-4 6-3 8-3 6-2 9-2 5 0 4 1 4 1 8 3 5 3 4 4 4 5 3 5 3 7 2 8 3 8 2 9 1 10 1 11 1 12 1 15 1 16 2 15 1 15 2 12 2 13 2 11 3 12"/>
<path d="M3472 2162l 1 6 1 7 1 7 1 8 0 9 2 11 1 12 3 13 4 14 4 16 4 17 4 20 4 20 4 22 4 20 3 21 2 21 2 20 2 20 1 20 0 19 0 19 0 18-1 18 0 15 0 14 0 12-1 10-1 8-2 9-1 4-5 8-5 7-9 9-7 5-8 4-8 2-9-1-2-3-4-7-3-7-4-10"/>
<path d="M3440 2173l 1-6 1-6 2-7 3-8 2-7 3-8 3-8 4-8 4-7 5-8 5-6 4-5 4-6 5-6 4-5 7-6 4-3 8-5 6-3 8-3 7-1 9-2 8 0 8 1 8 1 9 2 10 2 11 4 8 3 12 5-8-3 11 4 11 4 8 3 9 5 10 5 9 6 9 6 7 6 6 6 7 6 5 6 4 6 3 6 3 8 1 7 0 7-1 7-2 9-3 9-4 10-4 8-7 12-9 13-6 7-10 13-10 12-9 9-11 11-12 10-7 5-14 10-15 10-17 9-8 4-19 8-23 8-25 7"/>
<path d="M4014 2028l 3-4 7-5 4-4-6 5 3-4-5 7 3-4-5 8 3-5 2-5 3-5 5-8 3-5 3-4 4-5 5-6 4-4 4-4 6-6 4-3 4-3 3-3 8-4 4-2 8-3 4-1 9-2 4 0 4 2 8 3 4 2 5 4 3 5 2 7 3 8 2 9 1 11 1 12 1 12 0 13-1 14-1 15-2 14-2 14-2 13-3 13-2 13-3 14-4 14-2 8-3 13-3 11-3 9 3-8-2 7-1 6 0 2-47 11 2-3-5 7 3-6-3 8 4-9 3-8 4-10 5-11 5-12 6-12 5-13 6-13 7-15 7-15 7-16 7-15 8-14 8-15 8-15 5-7 9-13 7-10 6-6 6-8 7-7 6-6 7-6 5-5 6-4 5-3 7-4 5-3 8-3 5-1 9-2 4 0 8 3 4 2 3 4 3 5 3 6 2 9 2 7 1 8 0 8 0 10 1 11 0 12 0 12 0 11-1 12 0 11-1 12 0 11 0 10 1 11 0 9 1 9 1 8 2 6-3-8 3 6 5 5 7 4-8-3 7 2 7 3 3 8"/>
<path d="M4604 2002l 0 6-1 6 0 9-1 9 1 11 0 11 1 13 1 15 1 16 1 17 0 17 1 19 0 21 1 23 1 23 1 24 1 24 0 25 1 26 1 26 0 25 1 24 0 22 0 20 0 18 0 17 1 15 0 13 0 10 0 8-1 7-2 9"/>
<path d="M4530 2054l 0-5 2-5 3-8 3-6 3-6 4-6 3-5 5-8 4-6 4-6 6-6 5-6 7-6 6-5 7-5 8-5 8-5 9-4 9-4 10-4 11-3 12-3 9-1 12-1 12 0 12 0 11 0 11 2 10 2 8 4 9 3 9 4 8 5 7 5 7 6 5 6 5 6 4 8 2 9 3 9 1 9 1 9 0 9-1 10-1 10-3 8-3 10-5 10-4 8-6 10-5 8-8 10-10 11-9 10-11 10-11 10-11 10-12 10-12 9-7 5-13 8-12 8-12 7-12 7-11 7-8 3-10 5-10 4-10 2-8 2"/>
<path d="M2250 1125l-15 7 4-3-7 6 3-4-5 7 3-5 3-4 6-6 3-4 7-6 3-3 8-5 4-2 8-3 5-1 9-1 5 0 7 3 5 2 6 4 4 5 5 6 4 6 3 8 2 9 2 9 2 11 1 12 1 13-1 16-1 17-2 19-2 18-2 18-2 17-3 15-2 15-3 13-2 12-3 9-2 9-2 8-2 6-4 8-2 2-5 7-9 10-7 5-8 4-8 1-9-1-1-2-4-8-1-7 0-10 0-14 2-16 1-8 2-18 3-19 5-20 5-20 6-19 6-19 7-17 6-16 3-8 6-14 7-12 5-8 6-10 7-7 5-7 7-6 6-6 8-4 7-4 8-3 7-2 9-1 6-1 7 2 7 3 6 3 6 5 5 7 4 8 4 8 4 9 3 10 2 9 3 11 2 11 1 12 2 11 1 12 1 11 2 11 1 9 2 9-3-9 2 6 3 3-25 2 4-2-20 17 4-5-5 8 5-8 4-10 6-12 5-13 7-14 7-15 7-16 7-16 8-16 7-16 8-15 7-15 8-14 6-14 7-12 6-11 5-8 7-9 6-8 5-7 6-7 5-5 7-6 6-4 7-5 6-2 8-4 9-1 5-1 5 1 8 3 5 3 4 5 4 6 3 7 4 8 3 10 4 11 4 12 3 12 2 8 4 12 3 14 3 13 3 14 4 14 3 13-2-9 3 13 4 12 4 12 4 12 4 11 3 10"/>
<path d="M1954 3587l-3-2-4-2-4-2-4-2-5-1 9 2-5-1-6 1-6 1 8-2-6 2-8 2-8 3-11 5 8-4-13 7-13 8-13 9 7-5-13 10-13 10-12 9-11 10-10 10 9-9-8 11 5-7-8 10-6 9-5 8-4 8 4-8-3 8 2-9-1 7 0 6-2-8 3 4 4 4-7-3 6 2 7 1 9 1 10 0 10 0 12 0 12 0 13 0 12 0 12-1 12 0 11 0 11 1 10 0 10 1 9 0 9 2 9 3 8 2 8 3 8 3 7 4 7 3 5 4 5 5 4 5 3 5 2 7 3 8 1 7 0 7-1 9-3 9-2 9-4 10-4 9-4 8-6 10-5 7-8 10-8 10-8 9-9 8-9 7-7 6-10 5-8 4-10 4-11 3-8 2-13 2-14 0-15 0-15-1-16-2-9-2-17-2-15-4-15-4-13-4-11-5-10-4-8-5-7-3-5-4-2-5-4-8-1-5 0-5 1-9 4-8"/>
<path d="M2376 3510l-1 8-1-3 4 8-3-2-3-2-4-1 9 2-4 0-5 0 8-2-5 2-6 2-6 3-7 3-7 2-7 3 8-4-8 4-7 4-9 5-9 5-9 5-9 6-8 5-9 5-7 5-7 5-7 4-7 5-7 5 7-5-7 5-5 5-6 6 9-10-3 5 11-24-1 4-2-8 3 2-8-3 5 1 6-1 6 0 6 0 5 0 6 0 5 0 6 0 6 1 6 1 7 2 7 2 6 2 8 2 7 2 8 2 8 2 8 2 9 1 8 1 9 1 9 2 9 1 8 1 8 1 8 1 8 1 7 1 5 1 6 0 5 0 5 0 5 0 5-1-9 2 5-1 9-2 8 3 2 9-2 8"/>
<path d="M2277 3755l-8-3 5 1 4 0 4 0 4 0 5 0 5-1 5 0 5-1 6 0 5-1 7-1 6-1 7 0 8-1 9 0 9-2-9 2 10-2 9-2 10-2 9-1 10-2 11-2 10-1 10-2 10-1 11 0 11-1 11-1 11 0"/>
<path d="M2662 3514l 4 8 4 8 4 9 3 11 3 8 3 12 2 13 2 13 2 13 1 13 1 14 0 15 0 17 0 17 0 17-1 16-1 15-1 13-1 12 0 11-1 10 0 6 0 3-56 26 1-4 2-9 1-12 3-16 3-19 4-21 3-20 4-20 3-18 3-18 4-16 3-14 3-14 3-12 3-11 3-10 4-9 3-8 4-7 3-6 5-8 4-5 5-6 7-6 4-3 8-5 8-3 4-2 9-1 4 0 5 1 7 3 5 3 6 5 6 6 7 10 7 11 5 12 6 13 4 14 2 8 4 14 4 14 3 14 3 13 2 14 2 12 2 11 1 10 1 9 1 9 1 6-2-8 1 2-32 7 3-3-18 20 4-6 5-9 4-10-3 8 4-12 4-13 5-14 4-15 5-15 4-16 5-15 5-15 5-14 5-14 5-13 4-8 6-13 7-13 6-12 6-11 5-7 6-8 5-7 5-6 6-7 4-5 7-5 4-3 7-5 9-3 9-1 4 0 8 3 4 4 5 6 5 7 3 9 4 9 3 10 2 8 3 10 2 11 1 10 2 11 3 10 2 11 2 12 3 12 2 12 4 14 3 14 4 14 4 12 3 13 3 11 3 13-2-9 4 13 5 14 6 14 8 13 2 8-2 9-4 7-5 8"/>
<path d="M1791 4807l 5-4-12 12 3-5-4 7 2-5-3 8 2-7 2-6 2-7-1 9 0-6 0-6-1-5-1-4-2-4 4 8-3-4-3-2-5-1 9 1-5 0-5 1 8-2-6 1-8 3-10 5 8-4-10 5-12 7-13 9 7-5-14 10-14 12-14 13-13 13 9-9-12 15-11 14 5-7-10 15-10 15-9 13-8 13-6 11 4-7-5 10-4 9-2 8 2-8-1 7 1 5-2-8 4 3-8-3 6 2 8-1-9 2 10-2 11-4 12-3 15-4 16-5 17-4 18-4 17-4 9-2 18-2 18-1 17-1 16 0 14 1 14 3 12 4 8 3 11 6 9 6 7 7 5 8 2 8 2 10 1 10-2 10-3 9-4 11-4 8-6 11-8 12-5 7-10 12-11 13-9 10-12 12-13 13-13 11-14 10-7 5-15 9-14 7-8 4-14 6-14 4-13 4-9 1-12 3-12 0-11-1-8-1-10-3-7-4-5-6-4-7-4-7-3-8 1-9"/>
<path d="M1982 4874l 6-2-9 2 6-2 7-1 6-2 7-2 8-3 9-2 10-4 10-4 11-4-9 3 11-5 12-5 11-6-8 4 10-6 8-4 10-6 11-6 10-5-8 4"/>
<path d="M2020 4744l 2 3 2 5 3 7 5 10 4 12 4 13 5 15 5 16 2 9 5 17 5 19-2-9 6 19 5 18 6 18 5 18 6 18 6 17 3 8-3 9-4 8-5 7"/>
<path d="M2297 4775l 3 7 3 6 3 8 2 8 2 9 2 10 2 10 2 12 1 12 1 12 1 12 1 11 1 11 0 10 1 9 0 9 0 8 1 7 1 6-2-9 2 3-25 2 3-2-25 25 3-6 4-8-4 8 5-10 4-11 5-13 4-14 5-15 4-15 5-16 4-15 5-14 5-13 4-12 4-12 5-10 3-8 4-9 4-8 3-6 3-6 5-7 6-7 3-4 7-6 8-4 8-3 4-1 9-2 8 3 4 3 5 5 4 7 4 8 3 10 2 8 3 11 3 12 2 13 2 14 1 15 1 15 2 17 1 15 1 15 1 15 1 13 2 13 2 12 1 11 2 10 2 10-2-9 3 8 4 7 4 6 4 5 4 3-7-3 5 1 6 0"/>
<path d="M2607 4783l 5 3 5 2 6 2-8-3 6 1 7 0 7 0 8-1-9 1 9-1 9-2 11-3 10-3 11-3 11-4 12-5 12-4 12-4 11-4"/>
<path d="M2632 4725l 2-8 0 5 0 7 0 9 0 9 2 11 2 12 2 12 3 12 3 13 4 13 3 14-2-8 4 14 5 14 5 14 6 14 5 13 6 12 5 11"/>
<path d="M2883 4767l 0 8 0 10 1 9 0 11 1 12 2 13 3 14 4 15-2-8 5 16 5 16 7 18 6 17 6 17 6 17 6 17 2 9 5 18 4 19 5 20 4 20 4 20 3 19 4 19 3 18 3 17 2 15 2 13 0 11 0 5-2 9-4 8-5 7-9 9-7 5-8 4-9 2-9-2-2-1-3-8-4-7-4-10-5-13-5-14-6-16-5-17-6-19-6-19-7-20-6-19-6-20-5-20-4-19-3-19-3-18-3-18-1-17-1-16 0-14 1-14 1-9 2-12 3-11 3-11 3-10 4-8 4-9 5-8 5-7 6-8 5-7 7-7 8-8 8-7 6-6 9-7 9-7 9-6 8-5 11-6 12-6 8-3 12-5 12-3 13-3 9-2 13-2 13-1 13-1 12 0 11 1 11 2 10 2 8 3 8 4 7 4 6 5 5 5 3 7 3 8 1 7 0 9-1 9-2 9-4 10-5 11-4 7-7 12-5 7-10 13-11 13-12 14-14 14-9 9-14 14-14 13-15 12-14 12-13 12-13 12-11 10-11 8"/>
<path d="M3606 4445l 8-2-3 2 7-4-3 3 7-5-3 2-4 3-4 4-5 3-5 4-6 5-7 6-7 6-7 6-8 7-9 7-10 7-7 5-10 7-10 7-11 8 7-5-12 8-12 10-11 9-11 10-10 9-10 9-8 9-9 8-7 6-7 4-5 5 9-9-4 4 9-15-1 3 0-17 2 2-7-3 5 0 7 1 9 0 11-1 14-1 13-3 13-1 13-1 13-1 12-1 13-1 13-1 12-1 12 0 12-2 11-2 8 3"/>
<path d="M3406 4698l 5-7 5-7 3-3 6-6 4-2 8-5 5-2 8-3 9-2 6-1 8 0 9 1 10 1 12 0 12 0 14 1 15 0 14 1 15-1 15 0"/>
<path d="M3938 4514l 9-1 4 0 7 3 4 2 4 3 2 5 2 5 3 8 1 6 1 7 1 8 1 10 1 10 1 11 1 10 1 12 0 11 0 13 1 13 0 13 0 13-1 13 0 13-1 13-1 12 0 12-1 12 0 10 0 9 0 8 0 6 0 2-56 26 1-4 1-9 2-11 2-13 2-14 3-15 4-16 4-17 4-17 6-18 6-17 6-18 4-16 5-15 4-14 4-12 4-10 3-8 4-9 4-6 5-7 6-7 4-4 6-6 8-5 4-2 9-3 9-1 5 0 7 3 6 2 6 5 6 6 5 7 5 9 4 10 4 10 4 12 2 8 4 12 2 13 2 14 0 13 1 13-1 12 0 11-1 10-1 10 0 10 0 8 0 6-2-8 1 2-39 12 2-3-5 7 4-6-5 7 5-9 5-10 6-11 6-14-3 8 6-15 7-17 6-18 7-19 7-18 7-18 7-16 4-8 6-16 7-14 6-13 6-11 5-10 6-9 4-7 5-8 5-6 6-6 4-4 6-6 8-5 4-2 8-3 9-1 5 0 7 3 5 4 4 4 4 7 3 8 4 10 2 8 3 12 3 13 3 13 2 15 3 15 2 15 2 14 3 14 1 15 2 14 2 14 2 14 2 12 2 11 3 11 3 10-3-8 3 10 3 10 4 8 3 8 2 9-2 8-4 8"/>
<path d="M4527 4555l 6-2 9-2 6-1 6-1 6 0-9 2 8-2 7-3-8 3 8-3 7-3 8-3 8-4 8-5 9-5-7 5 9-6 7-5 10-5 11-5 10-5 9-5"/>
<path d="M4600 4448l 2 6 2 7 2 8 2 9 3 9 2 10 2 11 2 13 2 14 2 12 3 13 2 12 2 12 4 13-3-9 4 13 4 11 4 10 4 10 4 9"/>
<path d="M4887 4396l 4 4 4 5 3 6 4 7 4 8 3 10 4 10 4 11 4 11 5 13 2 8 4 14 3 14 3 16 2 15 2 17 1 17 1 18 1 17 0 17-1 16-1 16-2 15-3 14-2 13-3 11-2 9-2 10-3 8-2 6-4 8-2 2-5 7-9 9-7 6-8 3-8 2-9-1-4-8 0-3 1-9 2-7 2-11 4-13 5-15 6-16 6-17 6-18 7-19 8-20 7-19 7-18 7-17 7-17 6-16 6-15 6-15 5-14 4-8 5-12 5-10 6-9 4-9 5-8 5-8 5-7 3-5 6-7 3-3 7-6 8-5 8-3 3-1 9-1 8 3 3 3 4 6 3 7 3 8 2 8 3 10 2 11 2 12 1 13 2 13 1 13 2 13 2 15 2 14 2 15 2 14 2 14 2 12 3 12 3 11 3 12-2-9 3 10 3 9 3 8"/>
<path d="M5271 4460l 8 0 8-1 8-1 8-1 9-2-9 2 10-2 10-3 10-2 11-3 11-4 13-5 12-4 11-4-8 3 12-5 11-6 12-6 11-6-8 5 11-7 10-7 8-4"/>
<path d="M5327 4334l 2 8 2 6 1 6 2 8 2 8 3 11 3 14 2 14 2 12 2 12 3 14 2 13 3 14 3 14 4 15 3 14 4 13-2-8 4 13 4 14 5 13"/>
<path d="M5616 4430l 2 9 2 12 3 13 2 13 3 15 4 19 5 23 4 27 4 26 4 24 3 24 3 25 2 28 1 28 1 29 0 28 0 30-1 34-2 33-1 28 1 21 4 16 3 13 1 11 1 8-3 9"/>
<path d="M5573 4434l 0-9 1-7 1-9 2-8 2-8 2-8 2-8 4-8 3-6 3-6 5-8 3-5 4-5 6-7 4-5 7-5 5-5 8-4 8-3 6-3 9-1 8-1 8 1 10 2 9 1 10 3 12 4 7 3 12 5 12 5 12 6 11 7 11 6 10 6 11 7 10 6 9 7 7 7 7 8 5 8 4 9 2 9 2 9 0 9-2 11-2 8-5 10-4 8-6 11-5 7-8 11-10 11-9 9-13 12-15 13-19 15-19 13-7 5-15 11-14 9-14 9-14 8-8 4"/>
<path d="M5003 3235l 8 0 11-1 13-1 14 0 13-1 15 0 14-2-9 1 17-3 9-1 20-3 20-2 15-1 14-2 17-3-9 2 16-3"/>
<path d="M5144 3112l 4 5 3 7 4 8 3 11 3 8 3 12 3 14 3 13 3 15 4 17 4 17 3 19 3 19 3 19 3 20"/>
<path d="M5376 3184l 2 8 2 6 2 7 2 8 1 8 2 9 1 10 1 11 0 11 1 11 1 12 0 11-1 11-1 10 0 11-1 10 0 9-1 8-1 8-1 5 1 2-53 18 2-3 3-6 3-7-4 8 4-9 4-9 4-12 5-13 7-15 3-8 7-15 7-14 6-14 7-13 7-14 7-13 5-7 6-10 6-8 6-7 6-7 7-6 7-6 7-6 7-5 8-5 7-4 9-3 8-3 7-1 9-2 6 0 6 1 5 2 7 3 5 2 5 3 5 5 5 7 4 7 3 8 4 8 3 9 3 9 4 10 2 8 3 11 2 11 2 11 2 12 2 12 1 11 2 11 1 10 1 11 0 10 1 10 1 9 1 7 2 8 1 7-2-9 2 7 4 5 4 5 4 3 2 9-2 8-4 8-5 8"/>
<path d="M5729 3158l-7-3 5 1 6 1 7 1 7 1 8 0 9 1 11 0 12-1 13-1 13-1 14-2 15-1 14-3-9 2 14-4 15-3 14-4 13-3 13-4 13-4 12-4 11-4 10-3 10-3 9-2"/>
<path d="M5889 3068l-1 3 2-8 0 6 1 8 0 8 1 9 1 10 1 11 1 12 0 12 1 13 1 14 2 14 1 13 3 13 2 14 2 13 2 14 2 15 3 14 2 13 3 12 4 11-3-8 4 11 4 10 4 10 2 8-2 9-4 7-6 8"/>
<path d="M6144 3153l 2 5-2-8 3 7 2 8 2 8 2 8 3 10 2 11 3 11 2 12 3 13 2 15 3 17 3 16 3 18 1 18 1 19 1 20 0 20 0 20-1 24-2 26-2 25-1 23-2 21-2 21-2 20-3 21-2 21-3 17-2 16-1 14 0 12 1 9 1 7"/>
<path d="M6083 3236l-1-7 0-7 1-7 1-9 0-7 2-8 2-8 3-8 3-8 3-6 5-7 3-5 6-7 5-5 6-6 6-4 8-4 7-4 8-3 8-4 8-2 9-3 10-2 9-1 11-1 11-1 11 1 11 0 11 1 12 1 11 2 11 2 11 2 11 3 11 3 10 3 7 3 9 4 8 5 7 7 5 6 5 7 3 7 2 7 3 9 1 7 0 9-1 9-2 8-3 9-2 9-3 8-4 9-4 9-4 8-4 8-5 9-6 8-5 7-6 8-9 9-7 8-7 6-8 7-7 8-8 7-9 6-7 5-8 6-8 6-9 5"/>
<path d="M6595 2963l-8 3 5-3-7 4 4-3-7 6 4-4 6-5 4-3 8-4 8-4 5-1 5-1 9-2 7 0 8-1 9 0 9 0 8 0 9 0 9 1 9 1 10 1 9 1 9 2 9 2 11 3 11 3 10 4 9 3 9 2 9 3 8 3 8 2 7 2 6 2 6 2 6 1 6 2 6 2 5 1 4 2 7 3 4 2 1 2 3 9 0 3-3 9-1 4-5 8-5 7-2 4-9 9-4 3-7 6-5 3-7 4-7 3-10 4-9 3-8 3-8 2-9 3-10 3-11 3-11 5-13 4-12 5-14 6-12 5-13 5-11 6-11 5-11 5-11 4-9 4-9 4-8 4-6 3 8-4-5 3 25-29 0 2 0-17 4 2 2 8-2 9"/>
<path d="M4661 3161l-2 8-4 8-5 7-9 8-2 3-7 5-8 4-5 2-6 3-6 2-6 2-5 2 8-3-4 2 7-5-4 3-4 4-4 4-4 5-5 4-5 5-5 5-5 5 9-9-5 5 5-7-4 6-3 5 4-7-3 6-2 6-2 6 2-8-1 5 0 5 0 4-2-8 1 3 3 3 4 2-7-3 5 1 6 1 7 0 8-1-9 1 9-3 10-3 10-4 11-3 12-4 11-3 12-3 11-2 9-1 11-2 11 0 11 0 10 0 10 2 9 2 8 3 7 3 8 3 6 3 5 4 5 5 3 5 3 7 2 8 2 8 1 8-1 8-2 8-2 9-2 8-3 8-4 9-5 10-4 8-6 9-6 10-8 11-5 7-8 10-9 11-9 9-10 11-11 9-12 10-11 8-7 6-12 8-12 8-11 7-11 5-8 4-11 4-9 2-11 3-12 1-11 0-12-1-11-1-9-2-10-1-10-3-10-3-9-4-9-4"/>
<path d="M7119 3014l 5 0 4 0 8 3 4 4 4 5 2 6 2 8 2 7 0 8 0 9 0 9-1 10-2 9-2 10-2 9-3 10-3 10-4 10-3 9-3 7-3 6-3 6-4 7-3 5 0 1-6 7-8 9-8 6-7 3-9 2-9-1-3-8 0-9 4-8 2-3 4-7 4-7 6-9 8-11 8-10 9-12 10-13 9-12 9-13 9-11 9-11 7-10 7-9 6-7 5-7 4-5 5-7 7-5 4-4 8-4 8-4 5-1 9-1 5 1 7 3 5 4 3 5 3 7 2 9 2 8 3 9 2 10 2 11 1 10 1 9 0 8 1 8 2 7-3-8 4 4-8-3 6 0-17 5 7-4-8 5 8-7-6 6 9-8 10-11 10-13-6 7 10-14 9-14-4 7 9-15 9-16 9-16 9-17 9-16 8-14 7-13 7-11 5-9 4-7 4-6 4-7 4-6 6-7 4-4 7-6 7-4 9-3 4-2 9-2 8 3 5 2 5 6 5 9 4 10 4 12 4 13 2 8 4 14 4 13-2-8 4 14 4 13 5 14 6 13 7 12 7 12 7 12"/>
<path d="M7813 4213l 1-5 1-4 3-8 2-5 3-5 5-7 2-4 3-4 2-3 3-3 6-7 3-3 7-6 7-4 4-2 8-3 9-2 4 0 4 0 8 3 4 2 4 2 3 4 3 4 4 4 3 6 3 7 4 8 3 9 2 8 3 12 2 14 1 15 1 16-1 15 0 15-1 15-2 15-1 15-2 15-2 14-2 13-2 12-2 12-2 10-2 9-1 8-1 6 0 2-55 26 0-1 2-6 1-8 2-11 3-14 3-16 4-17 4-18 4-19 5-18 4-17 5-18 5-16 6-16 6-16 6-16 4-8 6-15 6-13 6-11 5-10 5-8 5-7 5-7 5-7 5-5 5-5 7-6 5-4 6-3 7-5 9-3 6-2 8-2 7 0 6 0 6 1 6 2 6 2 8 3 5 2 5 3 5 4 6 5 5 6 5 6 4 7 4 7 3 8 3 9 3 9 3 8 2 10 2 10 2 12 1 13 1 13 0 13 1 12 0 11 0 12-1 12 0 11 0 11-1 10 0 9-1 8 0 8 0 8-1 6 0 6 0 6 0 5 1 5 1 4-2 9-5 8-5 7-9 9-7 5"/>
</svg>
