<svg xmlns="http://www.w3.org/2000/svg" viewBox="3336 9467 18637 35059" stroke="black" stroke-width="16" stroke-linecap="round" stroke-linejoin="round" fill="none" data-xena="-2 -17 0"><style>@media(prefers-color-scheme:dark){svg{background-color:black;stroke:white;}}</style>
<path d="M3649 9621l-1 24 2 28 2 28 3 31 3 27 3 27 4 29 3 29 4 29 4 29 3 30 3 30 3 31 2 28 3 26 1 26 3 25 4 30 5 26 4 25 4 26-1-27"/>
<path d="M3857 9634l 3 25 4 25 4 25 6 30 3 24 5 24 4 27 4 24 3 25 3 26 3 24 2 25 1 27 2 28 1 27 0 25 1 29 1 26 1 27 1 25"/>
<path d="M4714 9642l 1 27 1 31 3 24 3 29 3 31 3 33 3 33 2 33 1 32 2 34 1 32 1 31 1 27 0 26 2 28 1 25"/>
<path d="M4912 9659l-2 25 0 27-2 27-3 26-4 29-4 30-5 30-3 27-3 27 4 26 24 11 26-2 25-6 28-7 27-9 24-8 23-7 28-10 23-8 24-11 24-12 23-12"/>
<path d="M5037 9746l-11 23 3 26 6 28 6 25 6 26 5 28 5 29 3 30 4 29 2 29"/>
<path d="M5994 9709l 2 29 3 30 2 27 1 28 2 28 2 28 2 28 1 28 2 28 0 31 0 27 0 27 0 29-2 26"/>
<path d="M6224 9679l-17 25-12 27-8 25-8 27-6 25-4 25-1 26 5 26 17 20 28 5 27 1 25-2 27-4 29-8 24-7 29-12 25-13 25-13"/>
<path d="M6328 9717l-5 25 4 26 5 25 7 25 6 26 7 27 6 24 4 31 3 30 2 32 2 30"/>
<path d="M7511 9772l 5 27 5 28 4 26 3 27 2 28 3 27 3 27 2 25 3 26 0 25"/>
<path d="M7652 9675l 17-17 25-12 27-8 30-5 30-3 27 0 25 3 26 10 19 15 6 24-22 21-21 16-25 14-25 14-22 12 23 7 30-5 28-3 26 0 24 3 25 6 24 9 25 13 17 20 6 24-10 25-19 23-20 20-20 21-21 14-22 12-25 13-22 9-28 11-27 8-24 4-27 1-25-5-24-9-20-14"/>
<path d="M9106 9597l-5 30 1 25 2 31 2 28 3 30 5 30 3 30 0 29 1 28-4 25-3 28-1 28"/>
<path d="M9344 9582l 27-7 28-4 25-1 27 0 28 1 24 3 30 6 23 10 24 14 18 17 12 22-8 27-19 23-22 22-19 17-25 18-26 19-31 17-29 17-29 15-25 15-26 12-22 10-24 11 20 15 24 2 28 0 25-2 26-2 27-2 27-2 26-1 25 0 31-2 28 0 25 2 27 2"/>
<path d="M9175 10901l 3 27 2 27-1 29-1 30-1 29 1 27 3 26 2 26 3 28 6 27 8 23"/>
<path d="M9380 10880l 9 25 4 27 2 25 2 29 0 28 2 25 0 24 0 30 1 26 1 26-2 24-3 27"/>
<path d="M9106 11573l-2 27-5 26-1 24-2 25-4 27 0 26 1 25 2 28 1 28 2 27 0 25"/>
<path d="M9298 11551l-6 26-8 26-9 26-7 27-3 26-3 27 6 25 13 20 22 11 28-1 28-5 26-6 27-7 28-9 25-9 28-7 25-7 23-10 23-9"/>
<path d="M9456 11599l-4 25 3 24 6 25 3 30 4 25 5 26 3 26 3 24 3 24 6 27"/>
<path d="M7567 12510l 1 27-1 28 0 24-1 25-1 26-3 27-3 26-6 26-2 25"/>
<path d="M7739 12490l 7 23-1 25-5 25-9 25-12 25-8 23-9 27-2 25 15 20 24 3 25-4 25-6 25-7 24-6 27-11 22-10 24-8 23-9 25-9"/>
<path d="M7858 12547l-5 26 0 27 4 26 6 25 4 28 5 27 3 26 3 25 5 26"/>
<path d="M8112 12815l-5 23-6 24-7 26-8 24-10 23"/>
<path d="M8431 12506l-2 26 7 24 3 24 3 27 2 32 2 25 2 25 0 25 0 31 0 28-1 26"/>
<path d="M8515 12533l 25-12 30-8 28-6 28-4 28-1 25 1 24 7 13 22-16 22-22 18-26 15-21 12-22 14-20 15 25 6 25-4 28-1 28 2 28 3 25 8 17 19-2 27-11 22-17 19-20 18-23 16-26 15-26 13-28 11-24 9-25 6"/>
<path d="M8859 12773l-14 23-13 22-15 19-13 24-11 21"/>
<path d="M9088 12534l 6 26 5 26 5 31 3 27 2 32 2 25 0 25-3 25-2 31-1 28 0 27"/>
<path d="M9238 12528l 23-5 29-3 24-1 25 0 25 2 26 3 26 6 23 9 20 17 8 23-17 22-23 18-24 16-27 17-21 15-23 16-24 15-21 14-22 16-18 20 7 25 26 11 26 7 32 2 26 0 28-2 27-5 26-4 23-6 30-6 26-7"/>
<path d="M8382 13936l 25-1 11 24 3 29 2 25 1 27 0 29 0 26-2 25-1 26-2 24-1 25 10 24"/>
<path d="M8602 13930l 12 21 4 24 5 30 3 28 4 30 2 31 0 26 0 25 0 24 3 28 6 28 11 24"/>
<path d="M8799 14227l-8 24-9 23-11 24-11 23-14 26"/>
<path d="M9148 13915l 3 27 5 25 3 26 4 28 4 29 1 30 1 32 0 25-2 31 1 28-2 25-1 26"/>
<path d="M9315 13987l 23-8 29-1 28 1 28 2 29 4 24 6 22 11 6 24-16 23-17 18-22 21-18 17-20 18-20 18-21 16-22 16-19 16-22 20-14 22 14 22 25 4 31 0 26 0 27-3 27-3 27-3 24-2 26 1"/>
<path d="M9175 14614l 0 27 3 29 2 27 0 30 0 24-1 27-1 26-4 27-2 31 0 28 0 27 5 23"/>
<path d="M9337 14609l 2 25 1 28-2 28-5 28-2 27-3 25 4 24 16 19 26 6 27-2 27-5 29-7 25-5 30-8 28-9 26-9 25-12"/>
<path d="M9491 14677l 8 24 11 24 8 25 8 29 4 27 3 26 3 26 1 27 2 28-1 29"/>
<path d="M8414 15385l 3 27-1 29-2 26-2 27-1 27-2 29 0 31-3 30-4 31-5 27-4 25-3 26 1 24"/>
<path d="M8599 15364l-11 25-9 28-8 23-7 25-10 26-12 26-12 27-9 28-5 26 13 22 28 2 24-6 29-7 26-5 27-7 24-7 24-8 30-10 28-10 26-9 27-11"/>
<path d="M8664 15491l 7 23 11 25 9 26 6 26 3 27 3 28 2 28 4 28 4 25"/>
<path d="M8895 15756l-17 19-15 23-16 23-14 24-14 21"/>
<path d="M9166 15448l 7 24 9 27 7 28 6 25 5 30 3 30 1 28-1 28-3 27 0 27 0 25"/>
<path d="M9293 15425l 25-8 28-2 27 0 28 3 26 3 27 5 19 16-8 25-15 19-21 15-22 17-22 11-22 13-21 16 18 16 25 0 29-1 30 0 29 2 25 5 23 10 20 18 5 26-5 24-14 24-15 19-17 19-22 16-24 11-25 8-25 7-24-1-24-6-23-10"/>
<path d="M13268 10784l 6 23 5 27 5 28 6 24 4 25 2 26 2 26 0 24 0 26 0 27-2 25"/>
<path d="M13515 10729l 4 26 4 26 3 24 5 23 2 25 0 27 2 28 1 29-1 28 0 26 1 28 2 24 5 28 3 25"/>
<path d="M13245 11417l 10 25-1 27-4 31-5 24-4 25-4 25-5 25-4 31-6 31-9 28-9 28-5 26"/>
<path d="M13482 11413l-9 24-2 27-4 24-6 26 1 25 4 25 18 19 24 5 29 0 30-2 25-3 31-6 26-5 23-6 30-8 25-9 25-8"/>
<path d="M13641 11469l-8 26 6 29 0 28-1 30 1 25 4 29 3 29 3 24 3 26"/>
<path d="M12734 12338l 5-23 1 25-1 25 1 27-1 27-1 24-1 27-2 29-3 25-3 29-4 25-8 27"/>
<path d="M12895 12325l-11 24-8 25-6 24-5 27-3 26-1 25 13 22 24 9 26-4 28-9 25-9 29-12 28-11 27-12 25-11 23-12"/>
<path d="M12992 12370l 0 24 10 24 11 25 7 26 3 26 2 26 2 26"/>
<path d="M13224 12556l-9 25-14 23-16 25-13 21-13 22-14 21-16 20"/>
<path d="M13380 12302l-1 24 3 27 3 25 0 25 0 28 1 27-1 28 1 27-1 25-3 25 6 24"/>
<path d="M13527 12304l 23-7 27-2 25-1 26 0 24 2 23 11 1 24-16 18-21 17-23 18-21 15-19 15 18 18 26 0 27 3 25 5 24 6 20 14 4 24-10 22-16 23-16 22-18 17-22 17-25 12-25 11-26 7-31 2-23-15"/>
<path d="M14695 11641l 23-14 25-6 25-6 24-4 28-3 26-4 29-5"/>
<path d="M14794 11541l 2 25 0 26 1 25 2 24 3 24 3 28-4 25 2 24 2 27"/>
<path d="M15692 11510l-2 24 0 28-3 26-2 28-4 25 0 27 1 28 1 28 0 24-1 28-1 27 5 26"/>
<path d="M15872 11501l 24-10 24 0 25 3 25 6 25 7 24 10 23 11 19 18 12 22-1 25-8 25-12 22-14 24-19 20-18 17-21 17-24 16-24 15-26 16-22 13-23 16-20 17 23 13 25-6 28-6 24-6 25-4 30-7 29-5 29-2 25-1 28 2 26 3 27 4 9 23"/>
<path d="M4011 17046l 13 24 7 26 3 26 1 31-1 26-3 28-4 32-5 36-4 26-5 28-4 28-6 28-3 29-5 30-3 30-4 29-4 30-3 30-1 28-2 28 0 27 0 24 1 34 4 29 7 24 10 22 16 18 27 9 27-3 25-12 21-13 22-13 20-16 20-18 18-19"/>
<path d="M3859 17533l 20-17 31-10 26-10 30-12 30-14 33-13 23-10 33-12 23-10"/>
<path d="M4452 17561l-12-22-21-14-27 4-23 18-15 21-19 27-14 21-12 21-13 28-9 26-4 27 14 20 25-3 23-10 27-17 19-16 23-19 20-19 16-18 10-22-23 12 0 27 11 22 18 17 20 13 25 1 23-10"/>
<path d="M4607 17540l-15 20-7 26-1 25 2 27 5 28 10 24 25 0"/>
<path d="M4633 17371l-20-14 12 22"/>
<path d="M4707 17644l 14 20 25-7 21-15 17-20 20-22 14-21 15-23 15-25 15-26 14-26 15-27 13-28 10-29 8-34 4-32 3-33 0-32-1-32-2-31-2-27-3-30-2-29-26 10-11 30-9 27-9 28-7 34-6 24-5 28-4 27-4 29-4 29-3 30-4 28-1 26 0 25 3 34 6 30 7 26 12 28 19 22 22 11 27 1 23-9 22-16"/>
<path d="M5112 17388l-26-1-22 11-19 16-18 20-13 22 3 24 27 3 26-5 29-4 27-1 24-2 26 5 20 16-1 24-11 27-12 23-16 23-19 19-20 18-21 13-26 13-23 6-24 0-20-19-3-24"/>
<path d="M5296 17308l 16 20"/>
<path d="M5307 17417l 0 24"/>
<path d="M5870 17192l 11 23 1 24-2 31-2 25-1 27 0 27-1 28 0 29-1 28 0 29 0 29 0 29 0 30 0 29 0 25 0 27 3 25 11 22"/>
<path d="M6097 17206l 4 25 2 26 3 28 2 24 3 31 5 32 2 26 2 25 4 25 1 24 2 30 2 32 2 29 1 26 0 28 3 25"/>
<path d="M6285 17606l-4 24-4 25-3 26-4 24-8 27-9 23"/>
<path d="M6702 17236l-1 25 2 28 2 30 2 31 4 32 2 27 1 28 2 26 0 26 2 26-2 25-1 28 2 26 11 22"/>
<path d="M6879 17243l 23-8 25-5 25-4 28-1 29-1 31-2 28 2 24 5 25 7 20 15-7 25-21 19-24 17-25 15-22 12-26 15-25 15-22 16-19 15 21 13 24-3 28-3 30-3 25-1 25 0 25 2 25 4 24 7 26 11 18 16 13 22 1 27-10 26-13 23-18 25-20 22-25 20-23 14-21 13-30 17-24 9-30 8-27 5-25-2-25-7-17-20"/>
<path d="M7438 17652l-6 24-8 24-8 24-10 28-9 23-13 26"/>
<path d="M7813 17197l 11 25 1 28-2 27-3 31-2 26-2 27-3 29-5 30-5 30-5 29-2 27-3 24 0 29 0 27 1 25"/>
<path d="M8040 17191l-10 26-9 26-7 25-7 29-8 27-4 27-3 24 0 24 6 25 19 18 23 7 27 0 28-4 31-5 25-3 25-6 24-4 26-7 24-6 29-10 28-9 27-11 23-8"/>
<path d="M8184 17241l 1 28 2 29 3 26 3 29 2 32 3 26 0 26 3 25 0 31 3 29 0 27 0 27 2 25 2 25"/>
<path d="M3439 18808l"/>
<path d="M3804 18736l 24-8 23 15 10 23 4 28-1 28-4 25-6 28-8 31-10 30-12 29-12 29-13 28-10 23-13 20-11-26 3-30 8-32 8-34 10-32 11-33 11-29 12-27 12-23 15-26 13-23 16-19 21-13 25 3 16 21 6 24 3 25-1 25-2 31-4 31-5 28-4 26-4 27 3 26 25-4"/>
<path d="M4042 18858l-10 23 24 10 24-6 27-10 22-12 23-15 20-20 11-21-12-22-24-11-25-8-25 3-26 9-20 18-14 24-8 28-4 27 0 28 4 25 11 23 19 18 28 12 25 0 30-4 29-12 22-12 20-12 25-19 18-19 11-22 4-24-4-25-24 8-9 25-1 26 4 25 8 24 11 23 20 17 24 7 25-9 19-17 18-23 12-25 10-26 4-24 0-28-2-25-9-24"/>
<path d="M4384 18860l 24 5 28-1 26-3 24-10 22-16 15-20-11-23-24-6-24 6-23 13-18 16-14 22-11 25-5 28 4 25 11 21 24 13 26 6 26-2 30-7 24-9 24-10"/>
<path d="M4654 18772l 26-5 26-5 25-3 12 21-21 18-20 18-20 19-17 20-15 22-11 23-5 27 17 18 26 3 28-6 25-6 29-10 31-13"/>
<path d="M5575 18762l 2-25-10-23-27-3-25 10-25 18-19 21-17 25-13 22-11 24-8 24-6 27 1 25 9 25 22 10 26-6 28-13 25-17 24-21 22-24 22-27 19-27 16-24 12-26 10-28 9-31 5-27 3-27 1-27-1-28-2-29-3-31-3-29-2-30-3-26-5-24-14 27-9 27-6 27-6 32-4 25-2 24-4 35-1 35 0 34-2 35-1 33 2 31 1 29 6 30 6 26 11 25 23 11"/>
<path d="M5730 18853l 25-6 22-11 25-13 22-17 16-18-10-23-23-12-23-6-25 1-23 10-20 17-16 21-12 22-10 26-6 25-3 25 3 27 13 26 22 14 27 6 26-3 23-8 23-12 24-17"/>
<path d="M5986 18493l 24 10 16 20 6 24 2 29-3 24-6 30-8 29-8 28-9 29-6 24-10 30-11 29-10 26-9 25-7 32-6 25 2 27 18 19 27 0 24-10 28-17 22-13 22-16 20-18 18-18"/>
<path d="M5920 18744l-24 3 26-4 26-6 24-8 28-9 28-9 33-8 34-9 24-6"/>
<path d="M6232 18783l-5-26-10-23-25-3-26 11-18 18-17 21-16 20-10 22 7 24 24 5 27-4 25-7 23-9 24-10 20 16 25 6"/>
<path d="M6472 18708l-25-4-23 6-20 15-18 19-16 19-12 21-9 26-2 25 8 27 19 21 23 8 28 1 25-9"/>
<path d="M6577 18440l 5 27 6 24 6 26 5 33 1 26-1 29-3 32-5 32-8 33-6 24-6 24-10 33-9 30-9 25-10 28-10 25 15-22 14-21 15-20 16-18 17-24 16-20 19-22 18-17 21-13 22 10 2 24-1 29-1 25 0 24 1 25 9 25 20 16"/>
<path d="M7509 18290l 5 28-1 26-2 26-5 28-5 31-5 33-5 34-4 25-5 25-5 24-4 25-7 35-9 34-8 33-10 29-10 26-14 23-14 22 1-26 13-29 15-24 18-24 17-25 18-23 18-21 18-18 20-21 19-17 18-16 22-13 22 11 6 27 1 24-2 27-1 28-1 26 9 24 25 1"/>
<path d="M7756 18599l-14 23-9 26-6 27-3 25-1 25 7 23"/>
<path d="M7772 18487l 0 26 20 16"/>
<path d="M7930 18575l-24 10-20 14-19 18-18 16 23 14 25 6 27 7 24 10 20 15 7 26-13 20-19 15-22 17-24 7-25-9"/>
<path d="M8121 18320l 9 25 10 23 8 28 4 25 2 29-3 31-5 25-8 30-10 33-13 34-9 22-12 33-11 30-10 27-10 24-7 26 1 25 22 12 27-6 27-15 22-15 22-19 20-18 18-19"/>
<path d="M8075 18586l-27 7 27-11 29-8 24-5 26-6 26-4 26-3 25-2 24-1"/>
<path d="M8330 18578l-20 16-20 15-18 17-15 22-7 25 10 25 22 13 28-1 27-9 25-12 16-20 1-26-19-17-23-10-27-7-24-6"/>
<path d="M8542 18551l-24 3 24 9 27-1 25 3 21 11-15 20-22 18-19 17-19 19-18 18-13 22 10 23 26 9 29-2"/>
<path d="M8720 18601l-20 17-12 21-2 26 3 24"/>
<path d="M8708 18477l"/>
<path d="M8931 18556l-25-5-23 16-20 19-18 19-15 23-10 22 3 25 19 16 28 7 25 0 25-5 27-7"/>
<path d="M9186 18542l-7-23-24 6-24 12-21 17-18 17-20 21-14 24-7 24 18 21 27 1 28-8 26-7 21-12 18-19 5 24 22 13 25 0 28-9 24-8 26-14 22-14 19-18 18-17 22-19 18-26 13-28 10-29 6-24 3-26 4-26 2-26 1-28 2-28 0-27 1-30-4-27-26 3-17 26-14 28-12 24-9 31-9 31-7 23-6 24-3 24-4 24-2 25-2 24-1 24 0 34 1 28 4 24 7 25 17 22 23 17 27 2"/>
<path d="M9567 18702l"/>
<path d="M12273 18686l 24-3 24-2 25 0 28 0 26 0 29 1 24 0 29 0 30 0 31 1 31 0 31 0 33 1 33 0 32 0 35-1 36 0 24-2 24 0 24 0 35 0 35 4 36 3 24 2 35 0 34 1 34 3 32 1 31 1 32 1 32 0 30-1 28 1 27-1 26 0 27-5 25 4 24 4 24 5 18 17 21 15 25 9 21 14 24 16 20 18 22 18 18 17 20 18 20 19 22 21 25 20 20 17 21 21 21 17 21 20 23 12 26 21 25 24 26 21 26 20 27 23 27 20 30 20 28 22 27 20 25 19 27 16 30 22 19 15 29 22 19 15 24 14 19 14 19 16 30 21 29 20 28 21 27 20 27 19 25 20 22 19 25 19 24 19 22 18 20 16 18 16 21 16 22 13 20 18 22 15-1-25"/>
<path d="M14623 17797l 24 8-24-6-14 22-6 26 10 22 26-1 19-15-7-24-23-11-21 13-4 24"/>
<path d="M16020 18643l 3 26 8 27 10 25 12 25 12 22 14 20 25 0 14-24 13-23 13-24 9-26 6-25 2-26 0-24"/>
<path d="M16381 18550l-27-2-22 16-22 17-20 17-8 22 25 6 27 0 24 0 26 2 25 5 21 15 10 23-11 24-20 20-21 14-27 7-24 1-22-11"/>
<path d="M16619 18708l"/>
<path d="M18033 18723l 26-5 26 0 28 2 29 2 27 2 29 3 30 0 25 1 28 1 28 2 32 1 31 2 32 1 32 1 33 1 30 3 30 2 28 1 29 0 26-2 25-1 25 0 25 1 24-1 24-3 24-3 19-17 18-21 20-21 19-20 20-21 20-25 18-21 19-23 22-22 22-26 23-27 20-20 19-21 20-22 21-22 19-23 22-22 23-22 23-22 22-22 24-22 23-22 24-19 24-21 23-18 22-20 20-20 22-17 20-19 19-18 19-18 22-27 23-25 21-21 19-19 18-22 15-22"/>
<path d="M19549 19598l 15 19 14-21-24-7"/>
<path d="M20666 18595l-23-8-25 10-24 11-22 15-21 13 20 14 28 3 30 4 24 4 24 8 22 15 6 24-12 21-22 21-23 18-28 13-27 11-25 6-26 5-24-3"/>
<path d="M20937 18643l-27-5-26-6-24-2-25 5-21 16-11 24-4 26 14 22 21 12 24 5 28-3 21-10 19-15 13-21 8-23-2 24-1 27 8 25 21 16"/>
<path d="M21093 18632l-20 14-7 24-3 26 0 24 23-18 13-24 14-22 17-19 11 24-5 24 23 8 23-14 23-14 23-16 20-15 9 22-3 25 3 25 13 22 22 13 26-2"/>
<path d="M21432 18656l 23-11 24-7 25-9 21-11-10-23-22-12-25-2-24 10-20 14-16 19-14 21-1 26 3 25 15 21 21 14 26 11 26 2 29-4 24-4 25-4"/>
<path d="M9088 20151l 8 24 3 25 3 27 3 28 1 24 2 27 0 25 0 25 0 24-2 26-4 27-3 24"/>
<path d="M9262 20146l 2 27 3 27 3 26 4 30 4 28 3 29 3 29 2 28-1 26 4 25 4 24 4 27 6 23 10 24"/>
<path d="M9115 20800l 4 26 1 26-4 29-7 27-5 30-7 32-7 26-7 26-8 25-7 24-6 31-5 26-1 25"/>
<path d="M9226 20877l-8 24-3 28-2 27-4 24-5 26 3 26 15 19 24 8 28-1 26-5 29-5 31-8 29-8 29-7 28-6 24-9 23-7"/>
<path d="M9361 20938l 2 27 4 24 8 27 4 26 5 29 3 24-2 29 1 28 2 27"/>
<path d="M7805 21607l 1 25-2 26-4 30-3 32-4 28-4 27-4 27-3 28-4 27-6 25-4 26-5 24-4 27-3 25"/>
<path d="M7961 21700l-10 22-7 24-6 24-7 23-5 27-4 25-6 24 3 25 20 16 27 3 25-1 30-4 26-9 25-9 25-10 23-8 25-11"/>
<path d="M8035 21795l-2 26 4 25 6 27 5 28 1 28 3 29 3 29"/>
<path d="M8209 22050l-14 20-13 21-12 23-13 22"/>
<path d="M8405 21741l 5 27 5 25 7 28 6 25 4 28 2 30-1 31 0 25-1 29 0 25 0 25"/>
<path d="M8544 21762l 25-2 28-2 25 0 27 0 26 5-12 22-19 19-24 16-21 13-20 15 26 0 25-4 27-1 26-1 23 6 24 6 9 22-12 22-16 19-21 20-23 19-25 15-25 14-25 10-24 6"/>
<path d="M8831 21999l-5 25-7 23-11 26-12 24-10 23"/>
<path d="M9082 21763l 11 25 3 26-1 28-2 25-1 25-2 24-1 25-2 26-3 27 3 24"/>
<path d="M9244 21715l 26-1 27 0 26 0 27 3 24 3 25 12 12 22-10 22-13 22-17 21-20 21-22 18-21 17-20 19-22 18-17 20 3 25 25 1 25-7 29-9 24-7 28-6 26-6 24-6 26-4 24 7"/>
<path d="M10343 21094l 23-6 25-3 25-7 28-10 25-8 23-8 27-8"/>
<path d="M10454 20947l-5 24 0 28 1 24 3 24 8 27 6 28 7 26 9 23"/>
<path d="M11128 20830l 8 25 3 27 3 28 1 25 2 29 0 30 0 31-1 31-2 31-3 29-2 30-2 27-4 27-4 25-4 28-2 29 1 25"/>
<path d="M11386 20897l-1 25-1 27-5 26-7 27-12 28-11 28-11 22-11 25-8 26 3 24 22 14 27 0 25-5 29-7 31-9 25-9 24-6 29-10 27-6 28-6 26-7 26-6"/>
<path d="M11521 20938l 9 25 8 23 8 24 5 27 0 25 3 24 3 25 0 30 2 27-3 24-3 26 1 24"/>
<path d="M12690 21173l 24-7 28-4 28-6 24-5 28-3 25-6 29-5 25-2 24 0"/>
<path d="M12744 21232l 25-2 27-3 26-2 26-5 25-6 25-6 24-6"/>
<path d="M12911 21063l 27 5 27 7 26 5 27 5 23 5 24 7 22 13 13 22-7 26-15 22-18 22-17 20-17 18-18 21-17 21"/>
<path d="M14563 20348l 13 23 8 28 6 29 4 24 3 26 2 28 3 26 3 27 2 25 2 29 3 27 4 24"/>
<path d="M14769 20346l 4 25 3 24 2 26 2 24 2 24 3 26 2 27 1 25 2 30 4 24 3 28 1 26 2 25"/>
<path d="M14447 21013l 8 24 1 24-1 29 0 25 0 27 0 26-2 28-1 31-1 24-4 30-2 26 0 28 6 25"/>
<path d="M14663 21034l-8 25-6 27-1 28-2 26-2 24 1 25 14 20 26 8 26 0 26-3 27-5 26-5 25-5 26-5 25-5 28-7 25-5 27-5"/>
<path d="M14832 21111l 1 25-2 25 3 27 2 27 1 27 3 29 0 25 3 26-1 27 0 25"/>
<path d="M13577 21790l 6 26 2 24 1 29 2 30 0 31 1 25 0 30 0 25-1 29 0 27-2 25 1 26"/>
<path d="M13815 21789l-12 24-7 24-5 23-5 26-7 28-5 24-4 24 20 18 27-4 26-9 26-10 26-10 26-7 24-6 25-11"/>
<path d="M13862 21854l 5 24 5 24 5 25 8 25 5 28 6 23 8 26 10 23"/>
<path d="M14076 22059l-13 23-11 23-14 24-12 24"/>
<path d="M14208 21824l 0 24-2 25 3 27 5 29 2 25 2 28 1 27 0 29 0 24 2 26"/>
<path d="M14303 21852l 24-12 25-2 27 1 27 1 24 4 12 21-15 20-21 19-20 14-21 13 24 5 25 5 29 2 26 5 17 18-7 23-16 22-20 19-22 18-23 15-24 10-24 10-24 5"/>
<path d="M14571 22096l-13 21-9 23-9 26-5 25"/>
<path d="M14742 21859l 19 17 17 22 16 20 12 23 5 27 0 25-4 28-6 26-8 28-7 25-7 24"/>
<path d="M14920 21830l 24-3 27 1 24 4 23 6 23 12 13 22-4 26-10 25-15 24-16 23-16 23-18 21-18 18-11 21 22 14 24 2 26 0 27 0 25 1 24 2"/>
<path d="M14567 22521l 24 8 5 25 1 28 2 27-1 29-2 30-2 24-2 26-5 25-3 26-4 28-4 24-4 25"/>
<path d="M14775 22534l 0 24-11 24-6 24-6 24-8 26-9 23-4 25 4 27 17 18 26 10 29 1 26 0 26-3 29-3 25-6 26-8 24-7 24-7"/>
<path d="M14864 22652l-4 24 2 26 6 24 5 26 3 26 5 27 0 26 3 28 2 26"/>
<path d="M16818 21468l-26 5-21 17-12 24-2 25 1 26 9 26 12 22 17 18 26 10 25 3 23-6 21-15 11-22 1-25-9-26-15-23-19-17-19-17-22-8-4 24"/>
<path d="M17027 21508l 11 22 16 20 15 22 15 20-26-4-11-22 3-27 7-24 11-25 17-20 15-20 21-15 21-12 27-7 26-1 24 1"/>
<path d="M18510 20470l 5 24 5 27 5 29 0 25 2 29 3 27 0 27-2 27-2 26 0 27-3 26-2 25"/>
<path d="M18723 20420l 6 25 14 22 15 20 15 26 10 28 4 30 3 29 1 28 2 25 3 27 14 23"/>
<path d="M19076 20763l-13 25-12 25-16 23-17 24-15 19-11 24"/>
<path d="M19450 20429l 5 24 3 26 3 25 3 29 1 30 2 29 4 28 6 26 3 26 2 27 3 25"/>
<path d="M19752 20459l 24 2 30 6 26 5 28 8 25 9 22 17 10 25-8 23-15 20-20 21-21 20-24 17-25 16-21 15-21 16 7 24 26 5 29 2 27 0 24 1 28 2 25 2 27 1 27 4"/>
<path d="M18044 21930l 2 27 3 26 0 27-2 28 0 29 2 30 0 28-4 27-3 27-3 26-4 26-2 25-6 25-6 24"/>
<path d="M18335 21932l-2 24-5 24-7 26-6 25-2 27-1 24 3 24 18 15 29-3 27-6 25-4 26-6 28-6 31-9 28-6 25-10 28-13 24-9"/>
<path d="M18495 21965l 7 23 9 27 5 26 2 26 2 28 0 31 5 25 6 28"/>
<path d="M18695 22207l 7 23 4 25-5 27-12 26-13 25-14 26-16 24"/>
<path d="M19138 21930l-2 28-5 27-1 28-3 29 0 28 0 30 0 32 0 31-3 27-1 24 2 24"/>
<path d="M19263 21978l 27-7 25-4 29 0 25 1 25 2 24 6 7 25-23 12-23 13-26 13-24 13-23 12 20 15 25 0 24 0 27 2 26 4 21 11 3 25-13 24-16 20-22 17-20 15-25 14-25 13-23 8-25 6"/>
<path d="M19551 22177l 8 26-6 26-13 21-16 23-18 23-14 21"/>
<path d="M19750 21903l 4 27 10 23 6 26 3 29 1 25-1 29 0 24-5 28-10 24-10 24"/>
<path d="M19894 21897l-2 25 3 24 1 27 2 28-3 26-3 26 11 24 25 7 27-3 31-5 28-4 26-4 28-7 29-5 28-6 23-11"/>
<path d="M20061 21944l-7 24 4 25 8 24 9 25 6 25 6 26 3 27 2 29 2 28 1 28"/>
<path d="M19657 21170l 7 25 6 24 6 28 4 29 1 30-3 29-3 24-4 25-4 28-4 25-6 24"/>
<path d="M19832 21137l 5 25 5 25 1 24 1 27 0 29 0 27-2 26-5 28-2 25 6 24 24-4 25-5 23-9 26-6 25-3 29-6 24-5 26-7 25-8"/>
<path d="M19994 21198l-5 26 1 29 0 28 2 25 1 28 5 29 4 27 3 28 6 29 5 25 10 22"/>
<path d="M12133 16864l 26-4 24-1 26-3 27-3 24-3 26 0 27-1 27-1 25-1 26 0 30 0 30 2 30 1 31 3 25 4 25 4 26 3 27 4 27 4 29 6 29 6 30 7 29 8 30 8 31 9 31 8 31 9 33 11 34 10 34 11 33 12 32 13 29 12 31 13 30 13 32 12 31 13 30 15 33 13 31 13 29 14 28 14 28 15 28 13 29 15 29 14 27 14 25 16 26 15 24 15 25 16 24 15 23 14 24 14 25 13 23 12 24 12 26 13 24 12 23 12 23 12 23 12 23 10 28 15 23 10 23 10 26 13 26 12 26 11 25 12 26 10 29 10 29 9 25 9 27 9 30 8 27 8 25 7 24 7 29 9 28 9 28 8 28 7 24 6 27 7 24 6 25 6 27 3 26 2 25-4"/>
<path d="M17902 16845l-11 22 24 1 7-24-24-1-13 20-25-3-23 8-24 3-23 9-21 13-15 19-14 20 21 14 24-12 25-14 22-14 21-14 18-16-21-14-23 11-14 21 26-6 21-13-23-9-8 24"/>
<path d="M21737 18304l 21-14 25-9 25-7 27-3 25 5 9 25-4 26-11 27-12 23-16 27-16 27-11 21-11 22-11 23-10 24-7 23-7 24-4 31-4 29-1 27"/>
<path d="M21751 18827l"/>
<path d="M4085 23976l-23 14-13 27-9 26-4 25 1 25 10 22 24 12 25 1 25-10 19-16 10-22-10-25-19-17-21-17-17-17 14-20 21-14 24-12 25-9 26-3 25 8 18 19 6 24 1 24 0 27-3 27-3 26 24-16 13-21 15-24 10-22 10-23 24 6 6 27 6 26 10 22 25 7 22-14 22-20 19-25 15-21 16-22 14-24 13-23 10-25 6-25 6-26 3-27 2-29 0-29 1-30 2-28 2-25 2-28-1-25-16 19-7 25-6 28-8 33-7 35-4 25-6 25-5 26-4 26-5 26-4 26-4 35-1 33 1 32 2 26 7 29 15 20 26 9 25-16 19-19 18-23 17-24 15-24 11-27 7-23-14 22-6 24-4 27 1 24 18 16 24-12 22-17 20-19 16-20 16-23 13-22-6 29-3 31-2 26 3 26 2 28 1 33-1 34 0 24-1 26-3 29-2 29-3 30-5 30-5 31-6 29-7 28-6 27-7 26-7 24-10 32-9 27-10 23-26-4-12-28-8-31-2-24-1-26 2-27 2-27 3-27 5-29 4-29 6-28 8-28 9-27 9-24 10-23 10-22 16-29 17-27 17-24 17-23 19-18 20-16 21-14"/>
<path d="M5364 23654l-11 23-9 29-7 27-6 29-6 32-8 34-5 24-4 24-5 24-3 24-6 36-6 36-5 33-2 29 0 31 7 25 17 19 23-9 16-19 11-22 7-26 1-25-4-24-11-25-16-21-16-18-19-18-23-12 24 9 24-15 19-17 21-18 25-21 24-22 23-22 21-21 21-23 16-22 14-21 14-26 8-24 6-25-15 22-4 25-3 27-3 28-1 29-2 30-2 29-1 29-2 29 0 29-2 26-2 27-3 31-3 25 0 25 23-15 17-19 16-21 15-25 19-19 19-16 22 13-1 26-2 25 3 24 21 16 23-6 21-14 14-20 24 12 24-5 23-11 21-16 19-17 13-21-5-24-16-18-20-16-25-7-25 10-19 21-15 26-13 25-9 30-3 30 3 25 12 25 22 18 24 9 29 4 28-2"/>
<path d="M6376 24138l 24 0 23-9 24-15 24-18 22-19 23-21 25-26 18-18 18-22 22-22 21-22 21-22 21-23 18-24 16-23 13-23 10-22 11-33 6-33 3-31-2-29-3-28-6-26-7-28-8-23-25 6-16 22-15 24-15 28-15 32-9 23-8 24-7 25-7 25-6 25-6 26-4 24-4 26-3 25-2 24-1 35 3 31 6 28 8 24 18 25 22 19 26 14 30 6 30-1"/>
<path d="M6866 23941l-27-2-28 9-21 14-16 21-14 24-11 23-3 26 18 21 27 2 27-6 22-9 21-12 17-18 11 23 25 4 25-14 22-17 19-16 18-18 19-22 19-22"/>
<path d="M7143 23703l 3-30-2-25-22 14-8 26-4 24-3 28-7 31-8 25-6 27-7 29-7 31-9 31-9 31-9 30-7 31-5 28 0 28 6 25 17 19 24 1 25-11 24-15 22-17 20-18"/>
<path d="M7000 23909l-26 4 27-6 28-6 30-8 27-7 33-10 35-8 24-5 24-5 37-7 34-3"/>
<path d="M7296 23942l-24 9 16 19 27-7 23-11 23-13 21-14 15-18-12-23-24-3-25 6-22 12-17 19-10 23 1 25 16 21 21 13 25 5 29-5 27-6 27-10 27-12 25-13 22-15 18-20 3-24-16-20-12 22 10 25 17 20 16 19-1 25-21 15-27 9-25 4-28 3-23 6 24 3 28-3 28-7 30-10 29-14"/>
<path d="M7702 23676l 17 17 16 23 10 22 8 27 5 25 1 29-3 25-4 27-7 26-7 28-8 28-8 27-6 26-9 31-8 27-5 23 7 24 26-1 30-11 23-11"/>
<path d="M7647 23870l 27-11 29-10 30-9 25-9 29-9"/>
<path d="M8278 24082l 27-6 24-18 19-16 22-18 22-18 19-19 18-18 18-21 14-22 8-24 0-26-11 24 3 25 8 29 9 23 11 22 13 26 13 21 7 25-5 25-21 12-26 4-26-3-24-7 19-15 24-7 25-11 23-10"/>
<path d="M8657 23954l-14 22-4 26 3 24 12 21 26 5 24-8 25-11 22-12-8 22 3 28 7 24 18 21 20 14 26 5 24-8 22-13 23-19 16-21 12-23 2-27-8-24-12-24-16-20"/>
<path d="M9108 23969l-20-13-24-6-22 13-19 18-12 24-5 23 17 18 27 3 25-4 23-9 22-13 17 17 21 15 26-3 24-11"/>
<path d="M9291 23953l-17 18-6 27-4 25-3 26-3 29-4 31-4 26-4 26-4 27-7 29-6 28-6 27-6 26-6 23-8 27-8 25-4-26 3-27 4-30 4-26 4-25 5-27 7-29 5-27 6-25 9-30 10-24 14-23 16-18 21-13 25-3 24 5 24 8 20 15 9 22-15 23-20 16-22 13-25 8-26 3-25 0"/>
<path d="M9593 18277l 11-23 23-9 25-1 24 2 24 14 13 21-6 28-15 25-14 21-14 20-16 25-13 24-6 24-2 24-1 28"/>
<path d="M10047 24069l 14-22 20-13 12 23 2 26-6 30-6 29-6 24-7 24 15-27 13-22 14-22 15-20 16-23 15-21 25 0-4 25-8 25-6 24-3 24 18-20 15-21 19-20 19-16 19-16 15 19 2 26 4 25 17 21 24 4"/>
<path d="M10458 24073l-19-16-26 1-21 13-20 18-18 17-12 22 11 23 25 1 25-9 24-12 20-13 13 20 19 15 24-1 24-12 23-19 22-18 20-17 20-19 19-21 20-22 18-23 18-22 16-22 14-21 12-30 8-22 9-24 9-30 7-30 5-25 5-25-27 5-14 25-13 27-10 25-11 28-10 30-10 32-9 31-7 32-5 30 0 27 2 30 10 28 15 18 22 10 24-7 23-13 23-19 21-21 16-18 16-21 16-23 12-22 11-23 10-23 7-25 2-26 4-26 4-27 3-26 2-30 1-26-12-21-18 20-10 22-11 30-9 26-6 28-4 30-5 32-7 33-10 34-5 33-3 31 0 28 0 27 1 30 6 25 11 22 15 20 25 4 21-11"/>
<path d="M10537 24044l 21-14 26-5 26-3 31-6 32-9 29-6 30-7 30-6 31-6 34-6 35-7"/>
<path d="M10904 24120l 27 1 27-6 26-8 26-11 23-12 19-16-12-21-26-3-27 2-24 7-23 11-19 16-15 22-13 22-8 23 8 27 16 19 21 12 29 2 31-3 24-6 30-10 22-10"/>
<path d="M11177 24057l 25-7 23-7 25-3-15 19-21 14-23 15-22 15-20 19-11 23 19 17 25 3 24-7 26-9 25-12 23-14 21-14 22-17 19-18 18-20 13-21 5-24-25 0-5 25 2 26 14 24 12 22 15 21 12 21-22 16-26 4-24 3-27 3-26 3 26 5 24-5 24-5 25-7 27-7 27-7"/>
<path d="M11529 23776l 25-11 24-6 25-3 27 0 23 9 6 26-9 24-13 23-15 21-14 24-13 20-13 21-13 21-12 23-14 26-13 24"/>
<path d="M11539 24160l"/>
<path d="M4995 25067l"/>
<path d="M3734 24021l"/>
<path d="M5455 25129l-24-3-25 4-26 9-23 12-22 14-19 19-15 18-14 23-7 24-2 25 5 28 14 22 23 15 25 3 33-5 27-10 30-13 29-18"/>
<path d="M5592 24851l 7 27 4 30 4 30 2 27 1 29 1 30 0 31-2 32-2 31-4 31-6 31-7 29-7 27-8 24-9 27-11 25 9-25 14-25 14-22 14-21 13-20 17-24 19-19 18-19 21 15 6 23-1 27 2 25 2 25-1 26 8 24 27 0 26-12 24-11"/>
<path d="M5887 25211l-7-24-23-11-25 5-23 15-17 17-18 20-13 21-9 23 1 25 17 17 25 2 23-10 24-14 20-17 8-24 9 24 24 11 24-5"/>
<path d="M6010 25203l-14 24-6 24 2 25 5 23"/>
<path d="M6023 25071l"/>
<path d="M6093 25187l-5 25-7 24-6 24 19-19 17-21 18-19 17-17 19-17 24-2 7 24-2 24-2 27-4 25 0 27"/>
<path d="M6932 25180l-25-5-27 2-23 5-23 12-16 19 19 15 28 7 26 1 27 1 26 2 21 12-10 25-21 18-27 18-23 12-22 11-25 8-24 7-30 5-26 3-25-4 6-23"/>
<path d="M7081 25194l-11 25-5 26 4 25 20 17 26 1 26-12 23-18 16-18 13-21 0 27 12 21 20 16 27 3 26-7 25-12 22-15 17-21 9-23-6-27-16-22-19-18-15-18"/>
<path d="M7554 25164l-24-8-25 7-23 16-16 18-15 22 2 25 25 9 25-3 27-10 26-7 24-2 15 19 21 15 27-9"/>
<path d="M7722 25157l-8 25-3 25-4 28-5 25-7 29-7 27-8 31-11 30-11 32-9 34-6 23-8 31-5 25-6 26 9-28 6-28 3-28 4-28 3-30 4-25 3-26 5-28 4-28 7-29 7-27 10-28 10-22 12-24 16-19 22-10 27 1 25 9 21 14 16 20 2 25-10 22-15 21-22 19-19 18-20 16"/>
<path d="M8021 25129l-25 5-21 14-18 18 14 21 23 9 25 7 24 6 21 12 5 25-18 18-22 14-22 15-21 12-25 11-25 5-26-6"/>
<path d="M8876 25229l-17-18-26 10-24 14-20 18-17 19-13 25-10 24-5 25 6 25 21 17 25 3"/>
<path d="M9013 25277l-23 12-16 18-12 22-12 24 1 24 24 8 24-3 27-10 20-14 12 22 22 9 25-2"/>
<path d="M9202 25258l-8 23-7 27-8 26-6 24 21-13 18-22 17-19 19-19 21-19 19-15 12 24 3 25-2 27 0 24 5 27"/>
<path d="M10108 25227l 12 21 24-7 26-14 26-15 29-20 19-15 21-18 20-17 21-16 22-19 19-15 18-16 22-25 18-23 11-23 7-23 4-25 2-25-1-28 0-26-3-27-28 3-16 22-15 28-17 31-10 22-10 23-9 24-11 34-9 34-7 32-5 31 0 27 5 31 12 25 15 19 23 15 27 2 24-10 19-20 6-27-7-25-11-27-14-21-17-19 26-6"/>
<path d="M10550 25093l 19 17 26-7 22-13 17-18-8-25-25-7-26 4-17 19-12 22-5 29-4 26-3 26 2 28 9 26 20 18 24 10 31 1 26-5 32-9 30-9 29-11"/>
<path d="M11664 24905l-20-17-25 2-27 12-17 17-20 25-14 25-14 28-11 30-7 31-3 33 2 31 8 31 8 28 11 22 18 23 24 17 29 12 31 2 28-3 32-12 33-12 32-14 22-11 29-20 21-13 22-23 16-20 9-24 3-24 0-25-11-29-14-22-15-24-17-24-17-26-20-22-19-18-24-16-26-9"/>
<path d="M12238 24690l-23 6-23 15-20 19-16 18-13 22-19 27-19 31-14 23-12 22-12 26-14 27-10 30-10 30-11 30-8 30-9 30-7 27-5 26-3 25-1 25 1 34 6 32 7 24 11 24 13 20 18 23 20 17 23 13 26 1"/>
<path d="M12268 24937l-6 26-7 26-10 28-11 30-10 23-12 28-9 26-5 24-3 24 23-12 20-25 15-21 14-23 13-24 9-23 11-29 10-30 7-25 6-23 0 25-1 25 1 27 3 28 3 27 6 24 12 26 13 22 22 16 27 6 28-6 24-10 20-17 17-23 15-24 11-24 8-25 2-26-3-26-8-26-9-26-11-25-12-21"/>
<path d="M12539 24715l 23 18 22 20 22 20 22 24 22 23 19 25 15 24 13 23 9 27 2 30 1 25 0 25-1 26-5 26-6 28-9 29-13 30-19 31-13 21-15 21-16 21-15 22-18 20-17 20-18 19-18 18-24 21"/>
<path d="M5018 26363l"/>
<path d="M5157 26517l 22-14 20-18 17-21 15-20 14-21 13-20 16-25 13-21 10-24 8-23 12 25 3 28-1 28-1 28-2 32-2 34-2 36-2 24-2 24-2 26-2 26-2 26-2 25-1 25-3 32-2 30-1 25-2 28-3 25-14-21-1-29-2-25-1-24"/>
<path d="M5272 26457l 6-25 8-25 16-19 23-14 22-12 26-12 25-6 28-4 25 8 13 23-4 25-14 27-16 24-19 24-18 24-17 20-19 20-15 20"/>
<path d="M5465 26460l 5 25 7 23 15 22 24 10 25-4 22-13 16-20 2-24-10-24-14-20-19-16 25 8 25-8 21-11 18-17 14-21 24 7 18 18 18 17 20 17 15 20 11 23-15 23-21 14-23 11-24 6 23-11 26 2 25 0 26-2 24 1"/>
<path d="M5845 26204l 19 17 11 22 6 24 3 24 0 30-3 26-3 27-3 28-6 29-6 31-5 25-5 29 0 24 9 24 23 10 29-7 26-15 22-10 22-14 19-16"/>
<path d="M5803 26346l 23-14 27-6 31-8 25-6 29-5 31-6 24-4 25-5"/>
<path d="M6512 26599l 26 4 22-12 21-15 24-19 19-17 20-20 18-20 16-20 11-21 12-22 7-24-2-25-4 27 2 27 1 30 1 25 0 26-1 29-1 30-3 32-5 33-3 25-5 35-5 35-4 24-6 24-6 23-13 32-13 33-10 22-11 22-10 22-12 25-15 22-20 13-14-24-1-29 2-31 2-24 5-25 6-26 7-27 9-28 8-28 11-31 11-31 13-31 13-31 13-28 13-25 15-22 15-20"/>
<path d="M6886 26404l-20 19-15 21-14 23-12 23-6 24 0 26 9 24 22 10 27-6 26-11 23-17 15-23 5-26-6-24-16-20-18-17-21-15 28-4 25-12 24-7 23-8 26-10 24-6 24 0 5 25-4 27-4 25-3 25 0 24 6 24"/>
<path d="M7093 26228l-17 17 6 24 13 22"/>
<path d="M7150 26384l-5 23-3 26-4 27 23-15 16-26 15-25 15-19 18-19 22-11 20 16 8 26 4 28 5 27 8 24"/>
<path d="M7368 26129l 25-7 24-2 26 1 26 4 22 14 10 23-5 26-7 24-11 23-15 26-12 23-13 25"/>
<path d="M7434 26465l 17 17"/>
<path d="M6541 26192l"/>
<path d="M4000 27952l"/>
<path d="M4248 28036l-22 10-16 22-5 25 4 28 11 23 19 19 24 10 27 3 24-6 23-11 17-18 8-26-13-21-18-17-24-14-23-10-24-5 17 18 23-7 24-15 20-16 18-17 18-17 19-17 19-20 22-20 19-21 18-19 18-21 20-16 19 15-1 28-4 26-4 27-4 28-3 30-3 28 2 24 5 25 18 15 23-14 21-17 20-19"/>
<path d="M4539 27995l 1-24 9-23 13-22 16-20 17-22 17-19 19-17 23-8 11 22 6 23 3 28 0 25-3 28-2 29-2 30 0 24 4 24 8 23 24 7"/>
<path d="M4846 27579l-2 26-1 27-2 28 0 30-2 25-1 28-2 28-3 31-4 33-5 33-6 33-5 32-6 31-6 29-7 28-3 24 1 26 7 25 26-1 20-17"/>
<path d="M4927 27948l-13 22-7 23-4 27-1 26 20 14 25-17 21-19 21-23 16-18 18-25 15-23 15-24 10-23-3 26-5 26 0 28 2 24 3 25 3 29 3 24 3 24 1 27 1 28-1 28-1 30-3 31-3 33-4 25-7 34-9 35-11 31-13 32-13 30-14 27-13 24-13 21-17 23-26 3-11-26-2-25 3-33 3-24 6-27 7-29 9-30 9-33 11-35 11-35 13-35 13-34 14-34 13-32 13-29 13-29 14-26 13-23 13-21 19-27"/>
<path d="M5932 27837l-26-3-23 12-21 15-19 19-17 24-14 20-15 26-7 25 3 26 14 22 27 11 31 1 27-3 32-7"/>
<path d="M6093 27899l-25 2-25 11-17 17-9 24 3 25 18 20 26 10 24 2 26 1 24-5 8-24-14-22-19-16-1-25 18-16 23-12 25-9 24 1 24 4 6 24-5 24-8 24 21 15 23-11 20-16 17-18 19 15 15 21 26 3 22-13 22-18 34-57-9 24-6 24-3 26 5 23 25-7 16-20 14-21 17-21 16-21 25 3 9 23 11 22 24 7 22-17 16-18 19-24 78-157 3-31 4-25 4-25 8 26-1 26 2 28-3 27-4 25-5 26-4 26-6 28-7 25-6 25-5 29-2 27 8 25 26 3 24-17 19-20"/>
<path d="M6693 27818l-29 2-23 7 23-6 24-8 26-9 31-10"/>
<path d="M7568 27921l 24 9 22-11 23-13 26-18 28-21 19-15 19-17 19-19 20-19 20-20 20-20 18-19 15-18 21-27 15-26 11-26 6-25 2-31-3-28-5-26-9-23-25 13-14 27-11 28-13 35-8 26-7 30-8 31-7 33-7 35-7 38-7 37-6 38-5 38-6 37-4 35-4 36-3 33-2 33-1 31 1 27 0 25 2 30 6 28 14 23 26-5 12-25 9-31 6-27 4-29 2-31-1-28-2-30-4-27-5-25-7-31-5-23-1-24"/>
<path d="M7964 27785l-27 10-19 15-16 20-11 24-3 26 10 24 23 8 23-8 23-14 16-19-6-25-21-13"/>
<path d="M8049 27795l 25-1 25-7 25-4-11 24-18 19-15 22-9 23 6 24 27 8 27-2"/>
<path d="M8248 27804l-17 18-5 25 10 24 24 8 25-6 20-14 11-22 19 17 16 19 23 11 25-2 22-11 13-22 0-25-13-24-18-16"/>
<path d="M8626 27757l-25-2-26 2-24 4-23 8-20 15-16 24-7 23 6 27 23 11 26 2 25-3 28-8 26-11 20-15 5-24-16 18 25 9 24-5"/>
<path d="M8765 27761l 23-11 7 23-13 22-4 24 26 8"/>
<path d="M8996 27755l-24 2-24 9-21 16-14 22-12 23 3 26 21 16 26-4 27-12 23-15 22-21 22-25 18-25 14-25 11-26 6-28 4-31 2-25 1-25 0-27 0-27 0-25-1-24-4-26-7-25-24 3-11 24-3 25-6 31-4 25-1 27-5 28-3 31-3 30 1 28 4 25 7 29 10 25 15 20 20 21"/>
<path d="M9879 27782l 22 11 23-10 25-15 23-16 24-21 20-16 21-17 22-18 22-20 23-20 21-20 21-20 19-21 17-21 14-22 9-24 10-23 7-24 5-24 6-35 3-34 2-32-3-28-3-26-11-21-23 14-14 24-13 26-11 30-8 23-11 34-11 34-6 35-6 35-6 33-2 31 1 28 3 28 4 25 4 24 6 26 13 21 20 16 24 10 28-1 24-8"/>
<path d="M10327 27620l-19 15-11 24-7 25 0 26 6 25 23 8"/>
<path d="M10377 27504l"/>
<path d="M10440 27641l-5 26-2 24-6 26 27-6 14-19 17-21 18-19 19-15 15 21 4 25 3 25 1 24 20 15"/>
<path d="M10697 27366l-4 27-6 25-4 28-6 32-5 27-5 28-6 28-7 28-6 27-6 26-5 31-6 26-6 24 7-27 9-26 6-25 7-26 7-26 12-21 19-16 23 7-5 24-19 18-19 18-13 20 15 19 26 2 27-3 23-8"/>
<path d="M10800 27608l 8-23 16-19 9 23 11 24 14 19 12 24 11 22-4 25-23 7-24-7-23-9 25-3 27 1 27 1"/>
<path d="M11038 27754l"/>
<path d="M11050 27288l 26-2 20 14 18 21 9 22 0 26-9 26-14 21-16 22-15 21-14 20-10 23"/>
<path d="M17512 23594l-2 25-6 26-3 25-3 27-3 28 0 26 0 25 1 29 2 25 1 25 5 25 6 24 6 25"/>
<path d="M17741 23553l 11 21 3 25 3 26 0 26 2 29 0 25 0 24 2 25 2 26 0 27 0 26 0 25 3 27 4 29 0 25 3 25"/>
<path d="M17963 24008l-16 19-15 21"/>
<path d="M18225 23671l-3 24-2 27-3 25-2 29-1 28 0 27 0 26-1 25-4 27-3 26"/>
<path d="M18380 23642l 25 3 26 6 25 5 25 6 25 8 24 12 17 19 3 26-13 20-19 18-19 19-21 17-21 16-19 16-21 20-17 19-13 21 23 13 26-2 30-4 25-4 25-2 25-1 27-1 25 1"/>
<path d="M17516 24343l-2 27 2 26-1 29-2 26-1 29-1 30-4 31-5 28-6 28-8 26-7 24-3 25 6 24"/>
<path d="M17682 24381l-2 27-3 26-11 23-11 25-10 23-8 24 0 25 26 6 26-3 26-3 24-5 26-7 23-6 24-6 23-5 27-9"/>
<path d="M17774 24463l-7 25 4 24 0 24 8 24 3 25 7 25 5 25"/>
<path d="M17447 24988l 8 24 5 25 3 24 1 28-1 30 0 25 2 28 0 29-4 27 1 26-3 27-7 26-2 24"/>
<path d="M17646 25035l-6 25-6 27-6 23-8 26-7 26-8 27-2 26 13 21 25 2 28-5 28-6 25-4 28-5 29-6 27-5 25-6"/>
<path d="M17763 25109l-8 24-3 28 0 28 3 25 2 26 3 28 5 27 6 23"/>
<path d="M17953 25377l-2 27-3 25-9 24-9 25-9 24"/>
<path d="M18256 25047l-2 25 0 28-1 28 1 30 2 29 2 29 3 26 1 27 2 24 0 28 0 24 1 25"/>
<path d="M18428 25073l 24-10 24-1 25 0 28 3 27 3 2 25-22 15-21 11-23 15-22 12 19 16 25 4 23 5 25 8 25 9 26 8 23 13 12 23-9 24-14 20-21 17-18 16-22 12-26 9-24 6-26 1-24-10"/>
<path d="M18817 25345l 6 24-5 26-12 22-19 21-18 23"/>
<path d="M19119 24995l 1 27 1 27 0 24 0 28 0 24-2 25 1 25-2 31-1 28-2 26 2 27 1 26"/>
<path d="M19324 24943l-9 23-4 28-4 24-3 26-7 25-6 25-9 24-3 26 4 24 15 19 24 4 25-2 27-5 23-5 25-6 27-7 28-8 27-7 24-9 22-10 23-12"/>
<path d="M19406 25034l 0 27-1 27 3 27 3 25 4 28 5 26 10 23 5 28 5 23 8 24"/>
<path d="M17487 25932l-5 27-5 25-4 24-1 26 0 26 0 25 1 25 2 29 2 26-1 28-2 25-4 25"/>
<path d="M17692 25912l 25 5 24 7 24 8 24 10 26 8 24 4 23 9 3 24-15 23-19 19-18 19-19 20-19 20-18 19-17 20-15 21 18 16 26-4 25-2 26-2 27 0 26-1"/>
<path d="M17565 26560l 5 28-3 25-3 26-4 25-8 25-6 24-6 28-3 27 7 24"/>
<path d="M17711 26630l-13 22-4 26 2 24 1 26 6 25 16 24 15 20 24 15 26 5 25 1 28-6 29-9 28-11 23-11 20-15 18-19 11-22 3-28-5-24-12-24-17-24-21-18-24-14-24-7-26 2-23 11-23 17-16 19"/>
<path d="M17513 27391l-3 27-5 28-3 27-1 24 1 26-2 27-1 30-3 26-1 27-7 26-5 25 6 24"/>
<path d="M17663 27367l 4 26-2 24-1 24-3 24-6 25-1 28 1 25 18 17 23 13 25 2 24-1 26-6 29-5 23-9 23-10 25-11"/>
<path d="M17812 27463l-9 23-2 28-1 29 0 25-1 24 2 26 2 25 4 24 3 26"/>
<path d="M17498 28168l 8 26 6 26 0 30 0 29-5 28-5 27-6 26-6 24-7 26 0 25"/>
<path d="M17682 28140l 24-3 25 0 26 4 23 8 22 11 8 24-5 23-12 25-14 21-16 23-14 23-16 21-15 19 21 16 24-4 29-6 24-4 24-2 27-3 25-2 25-2 26-1 25 4"/>
<path d="M5203 29092l"/>
<path d="M5398 29086l 12 21 0 26-1 29-2 25-2 28-3 30-5 28-4 32-4 35-5 33-5 33-6 34-8 31-6 29-6 23-5 24"/>
<path d="M5447 29025l 18-17 26-6 26-4 25-1 28 3 27 6 26 10 20 18 4 27-11 25-15 22-21 22-17 18-19 17-18 18-19 15-24 20-24 17-23 10-20-12 7-26"/>
<path d="M5753 29027l 1 27 3 25-1 26-3 26-5 24-6 23-24-8-1-25 6-28 8-23 10-24 16-23 16-24 18-22 20-13 22-13 25-11 25-8 24-6"/>
<path d="M6012 28951l-6 23-2 25-3 28-3 25-3 26 0 26 9 23"/>
<path d="M6062 28811l-16 19"/>
<path d="M6217 29027l-23 14-19 16-14 22-2 28 2 25 19 16 27 0 24-15 19-14 14-25-1-25-11-25-18-20-17-17"/>
<path d="M6449 29013l 6 23 11 24 0 24-5 25-15 19-23-13-7-24 3-25 10-25 14-23 17-21 23-14 19-16 23-11 24-7 26-5 29-6"/>
<path d="M6785 29012l-24 4-4 24-5 26-2 26 4 25"/>
<path d="M6766 28819l"/>
<path d="M7042 28703l 4 26-6 27-7 30-7 24-7 28-9 28-8 29-8 28-7 28-7 26-4 27-2 25 1 28 6 26 13 23 22 10 27 5 26-7 21-13 19-16 18-15"/>
<path d="M6931 28917l-24 5 26 6 28-8 24-7 26-8 28-8"/>
<path d="M7246 28899l-12 22-8 24-6 28-5 28-4 24-3 28-1 24"/>
<path d="M7235 28796l"/>
<path d="M7338 28891l 23-8 25-1 17 17-6 24-14 21-10 23 8 22 19 18 15 20 15 19 18 24 13 20 12 24 10 25 9 28 7 28 1 25 0 25-3 27-4 24-7 27-9 29-12 28-13 27-16 23-15 21-17 20-21 21-22 13-25 6-21-13-13-23-10-30-8-25-1-28 0-31 4-31 9-35 12-33 16-32 13-22 14-20 15-20 17-19 19-19 21-18"/>
<path d="M7713 29004l 26 7 22-11 22-11 22-17 13-20-14-20-23-12-24-2-26 3-24 13-21 15-15 19-13 25-6 25-3 25 4 25 11 26 16 26 22 19 29 10 24 6 24 10 29 1 34-5 29-9 27-9 29-10"/>
<path d="M8693 29086l 23-10 27-10 22-12 19-16 21-17 21-21 25-19 24-25 17-17 18-22 16-18 21-27 19-25 16-26 12-26 7-23 3-27 1-26-1-28-3-25-3-29-10-24-22 9-16 20-15 22-12 25-12 30-10 35-7 24-6 25-5 26-6 28-4 27-3 27-2 28-2 27 0 31 0 28 1 25 6 24 6 27 8 24 11 31 17 20 23 7 26-8 18-23 12-26 3-27-3-27-12-22-18-20 22 13 24-5 27-6 25-11 23-11 21-15 16-18-23-12-25 4-23 16-15 21-12 24-8 24 0 24 6 27 13 22 18 17 25 9 24-1 23-7 29-15 23-15 23-18 25-21 23-21 21-23 14-22 14-24 13-25 8-27 4-28 0-29 0-32 2-34-1-33-1-35-3-31-2-28-4-27-10-25-24-6-13 21-11 27-10 30-6 24-7 26-4 32-1 35-2 36-2 26-1 26 1 35 2 25 4 34 7 34 10 25 17 24 21 16 26 9"/>
<path d="M9433 28996l-24-1-9 26-2 28 4 27 7 24 19 17 24 6 23-10 19-16 13-21 4-25-11-24-19-16-23-7 25-3 27-5 26-4 25-1 24-3 9 22-4 26-9 24 2 24 23 11 22-11 20-15 24-1 16 18 17 18 23 11 26-1 24-10 22-16 12-23 8-25-1-27-9-25-17-21-21-13-24 3"/>
<path d="M8115 31551l 5 26 1 29-1 30-2 29-1 25-4 26-3 27-3 28-2 29-2 27-2 26-1 25-1 29 0 29 5 26"/>
<path d="M9379 31583l 5 24 2 24-1 32-2 31-1 25-4 28-4 29-4 27-5 28-6 27-4 26-5 28-1 24"/>
<path d="M9541 31592l-12 23-10 27-11 25-9 22-10 24-9 23-8 24-3 26 3 24 17 17 26 4 28-5 26-11 28-11 27-14 28-15 25-17 22-18"/>
<path d="M9623 31662l-16 19-2 25 5 24 7 25 8 27 9 28 5 27"/>
<path d="M10458 31622l 3 27 2 26 0 30 0 29 0 32-1 24-2 25-3 31-3 31-3 26-1 26"/>
<path d="M10647 31645l-13 20-8 26-8 25-7 27-4 26-5 26-3 26 16 19 22 12 25 4 26-3 26-7 28-6 28-9 28-12 27-12"/>
<path d="M10759 31711l-13 24-3 25 1 27 4 29 6 25 7 25 6 24 6 24"/>
<path d="M11507 31709l 8 24 4 27 2 25 2 27 4 30 0 31 1 25 1 25 1 31-2 31 0 25 9 25"/>
<path d="M11641 31706l 27 1 26 2 24 3 26 8 17 18-7 25-16 20-18 21-15 19-16 19 6 24 25 3 26 3 28 1 26 4 25 9 17 18-7 25-17 22-19 16-24 12-24 11-24 6-24-3"/>
<path d="M12596 31703l 6 23 4 25 1 26 0 25-2 29-1 28-3 28-6 28-3 29"/>
<path d="M12738 31706l 24-7 28-1 24 1 26 2 24 7 25 9 9 25-10 22-15 22-19 21-21 22-18 16-20 16-23 15-20 19-16 22-12 21-2 25 21 15 25 5 29-5 29-8 23-8 27-8 25-9 26-11 25-10 27-11"/>
<path d="M13595 31656l 11 23 5 24 2 29 1 25 1 25 0 26 0 25-4 26-2 26-3 25-3 28-1 24 14 20"/>
<path d="M13816 31659l-14 23-10 23-9 24-9 28-6 25-4 27 4 24 18 17 25 4 25-1 25-5 29-7 31-9 23-7 25-5 23-9"/>
<path d="M13918 31746l-11 25-1 24 7 29 5 29 7 24 9 29 10 27"/>
<path d="M14743 31776l 3 26 5 28 6 29 6 26 4 26 2 29 1 25 0 28 3 26"/>
<path d="M14886 31751l 19 15 26 8 26 4 24 7 25 10 13 21-16 23-25 16-22 13-26 14-24 16-21 17-19 19-14 23 9 23 23 5 31-4 26-5 29-9 24-8 24-9 24-8"/>
<path d="M16173 31650l 6 23 0 29-1 25-2 29-3 29-5 29-6 28-7 25-3 25"/>
<path d="M16320 31710l-15 20-11 27-4 29 3 24 8 26 15 24 20 16 26 9 26 8 27-2 24-8 26-15 17-20 11-24 7-25-3-26-7-27-15-25-16-22-22-12-25 0-27 4"/>
<path d="M17558 31554l 2 27 0 28-3 26 0 26 2 25 0 24 0 24 2 25-3 25-5 28"/>
<path d="M17815 31518l-14 20-9 24-10 27-6 27-5 28-2 26 3 25 9 24 14 22 25 7 25-3 25-10 30-12 22-10 22-12 27-13"/>
<path d="M17922 31584l-3 25 1 27 4 26 5 27 6 28 2 30 4 25 10 24"/>
<path d="M18925 31541l 1 27-1 27-2 26 0 28 4 27 4 28 3 26 4 25 6 28 10 24"/>
<path d="M19104 31575l 25 1 24 4 28 7 26 8 21 13 13 21 0 25-17 22-22 16-21 13-21 15-20 16 16 21 24 7 26 2 24 0 30-2 30 0 25-1 28-3"/>
<path d="M16305 30873l-3 24 2 24 3 28 1 25 3 32 1 25 2 26 4 27 2 28 3 26 2 27 3 24 1 30 3 30 3 28 3 26 4 29 2 24 1 27 0 25 2 25"/>
<path d="M16255 31376l 6 26 10 22 15 22 15 22 20 14 25-4 20-14 15-20 14-20 15-26 12-24 13-26 11-24 10-21 8-25 7-24"/>
<path d="M8316 31570l-5 26-2 30-3 27-2 27-3 30-2 31-2 30-2 29-2 26-1 24 1 29 0 27 1 27 1 25 1 25"/>
<path d="M16197 30445l-1 24 1 28-1 24 0 26 0 26 0 30 4 25 1 25-1 24 1 25 1 24"/>
<path d="M16338 30391l 2 27 3 25 4 29 2 26 2 28 1 29 2 26 3 24 1 28 2 27 5 26"/>
<path d="M19057 30868l 5 27 3 25 2 29 1 27 1 30 2 29 1 29-1 30-1 29-2 29-1 24 1 26 0 25"/>
<path d="M18989 31193l 8 23 15 24 15 22 17 19 20 16 21 12 24-2 14-22 11-25 9-23 4-24 0-26 0-24"/>
<path d="M18914 30425l 9 23 7 27 3 28 1 27 3 28 1 28-1 27 1 24 4 26"/>
<path d="M19070 30410l 24-11 28-3 26 3 25 4 20 13-3 26-15 18-17 20-20 16 23 8 25 2 26 4 25 8 25 8 25 9 22 15 3 26-16 22-21 14-23 12-24 6-26 3-24-2-25-7"/>
<path d="M11574 30875l 0-25 7 30 1 25 2 28 1 30 2 30 3 30 2 32 2 31 2 31 2 31 3 30 0 30 3 26 4 26 4 30 3 25 2 26"/>
<path d="M11519 31295l 8 24 16 23 17 17 18 18 21 18 22 11 24 6 25-3 20-14 12-22 16-23 10-25 8-25 6-25 3-26 1-27-1-24-6-23"/>
<path d="M11383 30259l 2 29 0 24-1 27 0 28 1 28 2 28 3 26 5 26 4 24 4 29 2 25"/>
<path d="M11512 30268l 1 26 1 28 1 28-1 29-1 28-3 25-2 25 1 26 4 24 17 18 24 0 28-9 25-11 25-11 24-10 27-11 24-13 21-12"/>
<path d="M11630 30386l-6 24 2 28 5 25 6 28 5 25 6 24 6 23 6 24 9 26 9 28"/>
<path d="M17883 34596l 21-14 27-9 27-4 28-3 27-1 25 1 26 3 23 7 18 18-13 25-19 17-19 17-22 15-23 17-23 16-23 14 25 7 26 0 27-2 27 0 24 5 27 4 24 8 20 17 13 22 2 27-7 26-15 25-19 21-19 16-24 17-23 11-25 7-29 6-27 4-27 3-25 1-25 1-29-3-24-5"/>
<path d="M20924 34698l 8-23 24-11 26-5 25-5 26-7 27-4 25-5 25-1 25 2 22 11 0 24-17 18-18 20-22 15-22 13-21 14 0 24 26 0 27 3 28 3 25 5 28 5 27 6 25 9 24 9 19 16 8 23-17 19-22 14-24 9-24 10-32 7-28 5-26 5-27 3-26 0-27-3-25-8"/>
<path d="M19482 33423l-11 21-12 26-6 25-6 26-7 27-4 26-2 24-1 28 4 26 15 19 22 13 28 6 25 1 29-2 28-5 27-9 28-9 29-9 22-10 22-10 23-14"/>
<path d="M19666 33507l-12 24-5 28-4 29 0 27 2 25 2 26-1 27 2 28 5 27 3 27"/>
<path d="M16310 36032l 3-26 21-13 25-3 27 1 29 5 28 9 22 12 19 17 12 25 5 23-6 23-12 22-19 25-16 19-19 18-19 18-22 17-22 17-23 17-21 18-26 20-22 17-20 20-19 18 19 15 24 4 28-5 28-2 30-4 26-4 25-3 24-3 27-1 25-3"/>
<path d="M16727 36187l 25 6 26 1 26-5 25-4 31-4 29-5 31-6 27-3 27-7 29-5 31-7 34-6 32-6 34-8 35-8 25-5 26-5 26-7 27-7 27-7 28-8 31-8 31-8 30-8 31-9 30-9 30-10 30-11 31-10 30-10 32-10 34-8 33-10 35-12 34-12 32-13 35-13 37-12 38-12 41-11 38-11 39-12 41-12 39-14 40-13 40-13 38-13 41-11 42-13 42-12 24-6 44-14 44-15 43-13 44-14 43-13 45-16 45-12 42-13 25-6 44-13 46-12 24-6 47-13 43-14 24-7 24-7 23-6 24-8 23-8 25-7 27-8 25-9 23-8 25-8 25-8 25-10 26-9 26-9 25-9 25-10 25-9 27-10 26-9 26-8 27-9 26-9 26-10 26-9 27-10 26-9 26-11 28-13 26-10 26-10 26-10 27-11 27-10 27-10 25-10 24-9 25-10 24-10 24-10 24-9 23-9 23-9 23-9 22-8 24-9 44-16 43-15 41-15 39-12 38-13 35-13 36-12 33-11 32-12 31-10 31-9 25-9 35-9 30-9 24-7 26-9 24-7-22-11"/>
<path d="M20615 34901l 23-12 26-3 25-2 26 2 26 2 25 8 22 13-5 26-13 23-16 19-14 23-19 23-11 21"/>
<path d="M18324 34579l 20-18 21-18 19-15 22-21 19-18 21-19 23-18 22-21 25-20 27-23 28-23 26-22 24-22 28-21 28-21 29-20 29-22 29-22 19-15 20-14 19-14 28-20 26-21 27-20 22-20 25-19 25-19 22-18 21-16 19-16 22-17 21-12 23-15 21-12"/>
<path d="M19083 33874l 20-14 24-10 24-12 27-7 26-4 26 0 19 15-2 26-11 22-8 23-10 26-11 23-9 26-8 27-4 26"/>
<path d="M6184 35553l 12-22 24-10 23-7 27-5 27-1 28 2 25 3 29 3 25 9 22 13 17 17 8 22-6 28-13 21-16 18-21 19-25 22-18 16-20 16-21 16-22 15-23 15-24 14-24 15-22 15-22 14-20 15-22 15-21 15-21 18-28 21-24 21-21 16-19 21-16 20-2 27 24 7 29 0 29-2 26-4 28-6 29-8 31-6 33-6 33-7 32-5 30-4 28-7 25-3 28 0 26-2 26 3 26-2"/>
<path d="M7389 33672l-8 24-8 24-7 24-10 26-9 25-6 26-7 27-5 29 2 28 10 22 18 17 23 10 27 3 28 1 27-2 30-5 24-6 23-6 24-6 29-7 27-6 24-8 28-6 27-5 22-9 22-11"/>
<path d="M7561 33703l 8 24 3 25 2 29 2 25 3 30 2 29 3 30 1 25 3 28-1 28 0 30 0 28 2 28 2 28"/>
<path d="M8543 34636l 20-13 25-8 27-6 24-3 25-3 26 0 29 4 26 6 25 8 20 16-6 26-21 19-20 14-23 14-24 14-24 11-24 12-25 12-22 12 26 2 26-1 29 2 29 4 25 3 26 6 24 6 27 8 27 12 24 12 17 22-2 28-10 23-18 24-17 20-20 18-20 17-24 16-28 9-28 4-27 0-27-3-23-7-24-12-14-23"/>
<path d="M10092 34655l 23-13 25-1 28 0 32 1 30 1 31 2 29 2 25 1 28 5 25 9 5 23-23 15-22 16-25 15-22 11-23 8 4 25 24 2 26 6 24 11 26 15 22 16 19 16 15 22 4 27-10 24-16 20-18 19-22 18-26 10-28 10-25 6-25 2-24-2-30-6-28-8-23-8-24-13-21-14"/>
<path d="M6713 35688l 21-17 27-11 22-10 28-11 32-14 24-10 26-12 28-13 29-14 30-14 33-16 32-16 35-16 34-18 36-19 37-18 38-19 38-19 37-19 36-18 36-19 35-18 35-19 34-17 35-18 33-16 32-16 33-16 33-15 31-16 32-16 30-14 29-12 25-11 24-11 24-10 22-11 33-14 28-11 26-9 24-10 23-9 25-11 24-7 26-9 25-12 22-11 23-12 13-21"/>
<path d="M8029 34909l 23-11 25-5 28-3 24 0 24 2 25 3 27 5 22 8 16 20-6 23-13 22-18 19-18 20-20 19-19 20-16 19-17 19"/>
<path d="M8096 34025l 24 0 24 8 25 8 28 7 31 9 32 10 34 13 26 6 27 8 31 7 32 7 33 9 34 8 36 10 39 10 39 10 40 12 43 11 44 13 44 12 45 12 45 12 23 6 43 14 45 14 45 13 44 13 45 12 43 14 44 13 43 15 42 14 41 13 39 14 38 12 38 10 35 11 34 11 32 10 27 12 28 10 27 9 24 9 31 15 27 12 22 10 23 10-12 24"/>
<path d="M9665 34419l 25 5 27 9 24 9 24 11 23 13 24 17 19 15 18 16 14 20-10 22-25 8-27 6-25 6-25 5-28 6-28 7"/>
<path d="M7264 38055l 2 27 0 30-1 29-1 30-1 31-1 31-3 30-2 31-1 31-2 30-1 29-2 28 0 25 2 30 4 25 24 8"/>
<path d="M7581 38131l 2 24 0 26-3 26-2 26-2 28-5 32-2 24-2 25-3 25-3 25-3 26-3 30 0 28 4 28"/>
<path d="M9026 38143l 1 28-1 25-2 24 0 24-2 25-1 25 1 26 0 26-1 26 0 25 0 28"/>
<path d="M9255 38159l 20-16 28-3 27 5 21 13 10 24-5 25-12 22-14 19-21 19-17 22 19 15 25 2 25 0 27 1 25 3 27 8 17 17 9 23-3 27-13 24-14 20-18 20-21 18-22 14-22 8-26 4-27-4-24-12"/>
<path d="M10692 38209l-20 17-2 29-1 30 0 26 0 27-4 28-3 28-3 26-2 25 2 25"/>
<path d="M10834 38251l-11 24-7 28-2 24 0 25 2 25 10 26 17 22 25 13 27 7 29-1 24-9 23-16 20-20 15-22 8-25 0-27-9-27-18-23-24-11-28-11-28-4-26 4-24 10-21 15-16 24"/>
<path d="M12255 38200l 2 26 0 28 3 26 0 28-3 28 0 25-4 27-3 24 0 27 6 23"/>
<path d="M12495 38198l-8 24-5 25-2 27-2 25 0 26-1 28-2 29-3 27-2 28-2 27-1 29"/>
<path d="M14042 38300l 7 27-1 28 1 27-2 29-3 28-2 28-2 32-3 28-5 28 0 27"/>
<path d="M14240 38322l-8 27-4 25 0 28 3 27 5 29 3 27 2 29 1 28 0 27 0 26 3 25"/>
<path d="M15505 38295l-1 27-3 28-2 28-4 28-1 29 1 26-1 26-8 23-1 29-3 25 1 24"/>
<path d="M15679 38343l-10 25-7 23-3 26-2 29-1 28-4 30-3 31-3 30 0 24-3 24 1 29 6 27"/>
<path d="M17143 38415l 12 21 0 26 0 26 1 26-2 30-2 26-4 27-4 27-4 29"/>
<path d="M17655 38334l 24-7 28 2 28 1 28 2 25 6 21 13-8 25-20 15-21 10-25 13-25 12-22 13 9 25 26 5 26 8 26 7 24 13 18 16 2 25-16 25-21 19-22 16-23 15-24 13-27 10-26 9-28 1-18-17"/>
<path d="M19081 38386l-8 23-8 28-4 28-6 27-4 27-4 26-2 25"/>
<path d="M19219 38453l-17 17-14 22-4 25 5 25 16 20 23 12 24 9 31 2 25-1 25-6 23-11 21-11 12-23 0-25-16-25-15-20-26-12-27-3-24 7-23 9-25 13"/>
<path d="M10893 37922l 9-23 18-20 21-18 25-15 22-15 24-15 26-14 25-11 28-14 29-12 25-7 27-9 27-9 29-6 30-9 31-6 30-5 24-1 32-4 35-4 31-2 35-1 36-1 30 1 31 2 32 2 25 1 35 2 35 4 31 7 33 6 34 7 32 7 32 10 29 11 32 11 32 11 30 9 27 11 26 11 25 11 22 11 30 14 28 12 20 14 22 17 22 15 14 19"/>
<path d="M12222 37812l 24 8 18 19 18 17 14 20 13 22-5 25-18 20-20 15-24 12-25 9-24 9"/>
<path d="M7475 38782l 19 15 13 21 13 22 15 26 19 24 18 24 20 23 21 25 18 18 20 21 22 19 22 19 25 16 25 19 26 23 20 16 20 15 22 15 21 13 22 15 23 14 24 14 25 14 26 15 25 14 26 13 28 14 29 12 30 12 30 11 31 10 32 9 33 9 35 9 37 8 37 9 38 7 39 7 40 6 40 6 42 9 45 6 44 5 45 5 45 2 47 3 47 3 46 1 46-2 24 0 24 0 25 0 47-1 25 0 25 2 49 2 48-1 48-1 24-1 26-2 27-8 25-2 25-2 48-3 24-3 25-2 24-2 46 2 24-3 25-3 24-3 25-4 24-4 47-10 47-8 47-9 46-10 24-5 45-11 45-12 43-11 43-12 43-12 42-13 40-13 41-13 38-15 37-14 35-14 32-15 30-15 30-14 29-15 27-15 27-15 26-16 24-15 20-14 29-16 24-18 20-17 19-23 13-21 10-22 12-23 9-25 6-25 11-22 13-21"/>
<path d="M10642 38801l 23-11 25-6 25-3 25 2 22 12 8 23 2 27-4 24-5 24-6 26-5 24-4 26"/>
<path d="M12395 38809l 14 21 15 21 18 16 19 15 22 16 20 19 20 16 20 15 19 16 22 17 19 16 21 14 25 15 25 16 28 17 22 13 28 17 25 15 26 15 26 16 26 13 32 14 31 14 33 13 30 13 34 13 22 9 25 9 26 10 26 9 26 9 25 10 25 11 28 9 28 9 30 9 29 7 28 11 30 11 30 10 32 9 30 12 31 9 31 10 30 10 35 9 34 9 36 10 36 8 37 7 37 9 39 8 41 8 38 13 41 8 41 9 39 8 44 6 41 6 43 8 43 8 43 7 42 10 44 9 42 8 45 8 47 5 45 9 49 7 47 8 47 10 24 3 25 3 24 3 26 3 25 3 26 3 26 4 26 0 25 3 25 3 26 3 24 3 27 2 26 3 25 1 26 4 26 3 26 1 27 2 27 3 49 4 27 2 26 0 27 0 27 3 28 1 28 2 28 2 28 2 28 2 30 2 28 1 29 1 29 3 28 1 34 2 29 0 30 1 28 2 31 1 29 2 30 0 29 1 28 1 29 1 30 1 30 3 30 3 29 0 30 0 29 0 29 1 29 0 30 0 30-1 29-3 30 0 30 0 30 0 29 0 31 1 30 0 28-1 29 4 29-1 30-1 28-1 28-1 27 0 28 0 29 0 29-5 28-1 29 0 30-1 30 0 30-1 28-2 30 0 28 0 28-2 28-1 29-2 28-1 30-3 28-1 28-2 27-2 28-3 27-2 28-3 28-3 27-2 27-3 28-3 28-2 26-2 27-3 25-4 25-3 27-3 25-3 26-4 24-3 25-3 24-4 24-5 44-9 47-9 46-11 45-11 24-5 43-11 41-11 40-11 37-12 38-12 36-13 35-13 32-13 30-14 30-13 31-13 28-13 31-14 25-15 23-15 23-14 21-15 21-14 22-18 19-15 27-24 27-20 17-16 19-17 22-24 21-25 20-20 16-18 14-23 16-27 13-21 11-27 11-23 9-25 15-22 13-21 16-19 21-13 18-16 16-20 18-16 16-19 17-19-28 9-24 16-26 18-27 13-26 12-23 10-24 15-25 15-25 10 24-13 21-13 21-14 21-14 22-15 24-11 22-11 24 6 19 15 9 25 2 25 8 23-4 25"/>
<path d="M8261 32308l 23 5 22 12 21 15 18 18 15 20 17 22 20 19 19 18 15 18 19 17 19 16 19 16 19 16 21 17 20 16 20 16 22 14 24 14 22 12 23 14 22 14 25 11 23 12 24 12 24 12 23 10 25 12 24 13 26 11 27 14 24 14 26 14 25 12 25 12 23 12 21 12 25 11 25 10 28 10 23 11 25 11 22 11 22 11 26 11 24 7 27 10 26 10 25 12 26 11 23 9 22 11 24 10 22 10 25 10 25 9 23 8 24 7 26 9 26 7 26 9 25 7 25 9 24 7 24 9 25 8 24 8 24 9 26 6 29 7 27 6 25 6 26 8 26 7 24 8 27 7 25 7 25 5 24 5 23 5 24 7 24 5 24 5 24 7 25 5 24 6 25 5 25 5 28 6 24 4 27 5 27 6 24 5 25 4 27 4 25 4 26 4 24 4 26 7 28 5 25 2 25 5 28 6 28 5 27 7 26 4 24 6 23 5 27 5 25 4 26 5 25 4 25 3 25 3 27 6 26 4 25 3 25 4 25 3 27 2 25 4 26 3 25 2 28 0 27 1 25 2 25 3 26 2 27 3 25 1 25 3 26 3 28 3 26 1 27 5 28 4 27 2 24 2 26 3 27 3 28 2 25 3 27 5 26 2 26 3 25 2 26 0 25 1 27 2 27 3 24 3 27 2 27 2 25 0 30 4 26 1 27 1 28 1 31 2 29 1 31 0 30 2 31 1 25 0 25 1 27 2 25 1 26 1 28 0 29 1 29 0 29 0 30 0 30 1 30 0 30 1 30 0 33 0 30 0 30-1 31 1 31-1 31 1 31 0 31 0 32-1 34-1 34 0 33-1 34-1 34-1 34-3 34-2 35-1 34-3 34-3 36-2 34-4 35-3 36-4 24 0 25-3 25-2 25-1 24-3 24-2 36-3 25-3 25-2 24-3 25-3 26-3 25-3 25-3 25-4 32-6 25-3 27-4 27-4 30-4 28-4 26-5 27-4 26-5 27-4 28-6 28-6 26-4 28-6 28-5 26-5 30-4 28-5 27-6 27-5 30-6 28-5 29-6 29-6 28-5 27-6 28-6 28-5 35-10 28-6 26-6 27-6 26-6 26-6 24-7 24-6 34-9 34-10 23-6 24-7 34-10 33-11 24-6 33-12 33-10 32-12 32-11 29-12 31-12 31-12 23-8 30-11 32-13 28-12 31-12 29-12 30-13 29-12 27-13 27-13 26-13 24-12 23-13 24-13 25-15 22-15 23-15 26-19 21-14 23-15 26-17 18-17 22-19 28-18 23-16 20-17 20-18 16-18 17-17 18-20 17-22 18-20 15-21 15-20 16-24 16-18 16-22 15-20 12-21 16-22 14-24 14-20 16-20 13-22 12-23 14-21 13-21-23 9-24 14-24 13-24 13-23 10-22 11 16-22 19-16 21-12 22-12 23-9 15 21 7 25 6 25 3 27 2 25 4 24 1 25"/>
<path d="M11821 32280l 0 25 8 25 14 23 11 23 15 24 14 23 19 23 20 16 18 16 19 16 21 16 25 15 27 14 25 13 28 12 29 11 31 9 27 6 25 4 24 4 28 5 30 3 29 2 25 1 26 0 25-3 29-5 28-6 24-6 24-8 24-9 24-12 25-12 21-11 23-14 22-15 21-14 26-16 20-13 20-18 19-19 18-18 17-19 17-20 15-19 15-23 13-22 14-21 13-22 7-24-23 12-22 11-23 11-24 11-23 10-23 10-25 13-24 7-23 9 25-6 24-8 27-9 23-9 23-8 28-11 26-11 22-10 23-10 21-11 17 18-2 24 2 24 0 25-2 25-1 27-1 26 2 25 2 24"/>
<path d="M9718 32313l-3 26 13 21 15 23 14 22 15 21 15 20 19 20 19 20 18 16 20 16 19 16 24 17 22 13 22 14 22 14 24 13 26 14 27 14 27 15 27 13 26 15 21 11 28 14 27 13 29 12 29 10 27 9 26 9 29 7 27 7 28 5 30 4 29 2 25 3 28 1 26 0 30 0 29 1 28-1 28-1 28-2 30-2 30-5 24-6 24-7 25-7 24-8 24-6 22-9 25-9 23-9 30-12 28-13 28-14 24-12 22-10 27-16 21-14 22-13 25-19 19-15 18-16 19-16 19-15 22-21 21-22 22-21 20-20 19-21 24-21 19-22 15-22 19-21 17-20 18-20 15-21 16-19 18-22 19-20 15-19-22 11-23 13-23 16-23 17-22 14-21 14-25 12-24 10 11-25 19-15 22-15 23-15 24-14 21-14 22-11 12 22-3 24 7 25 2 24 2 25 7 24 16 21"/>
<path d="M9202 42806l 19 15 16-19-24-2-10 22-3 24 13 21 23 10 24-10 16-18-17-17-25 1-9 24 22 11 16-18-21-14"/>
<path d="M10464 41771l-17 17 3 24 25-4 3-24-22 14-5 25 15 19 18-15-5-23-24-1-5 24 21 14"/>
<path d="M15720 44285l 24 1 15-20-15-20-23 11-15 22 22 10 10-23-19-15-23 5-4 24 16 22"/>
<path d="M9433 43012l 18 16 19 20 24 16 20 16 24 16 21 14 24 12 20 13 25 16 25 14 22 14 22 12 23 14 24 12 25 14 25 16 27 16 29 14 28 13 22 10 32 13 35 13 23 9 23 9 24 9 25 8 24 8 26 9 26 9 28 8 29 9 29 9 28 10 29 11 29 10 30 9 31 10 30 9 32 9 31 11 32 12 33 12 33 12 34 11 34 11 34 10 34 12 35 10 35 12 36 12 37 10 35 12 36 11 36 11 35 13 35 12 36 11 36 11 37 13 35 10 38 12 36 10 37 10 38 9 35 10 37 10 34 10 36 13 35 9 34 9 35 8 35 5 36 7 36 8 34 7 34 8 35 8 36 6 38 6 34 6 36 3 37 6 35 6 40 6 36 11 38 5 38 6 34 5 38 2 37 6 36 5 38 6 38 8 37 6 38 5 39 5 35 5 38 6 38 6 37 5 39 5 37 5 35 5 37 8 37 6 38 7 37 5 36 6 37 5 36 5 38 6 37 5 37 8 37 8 37 5 37 6 37 5 39 5 37 6 36 5 37 6 36 5 36 6 38 4 35 6 36 4 37 5 36 6 34 4 34 3 34 4 35 4 37 3 31 4 34 3 33 4 32 5 35 4 32 4 33 5 33 3 31 4 31 3 31 3 31 4 29 2 30 4 29 3 27 3 28 3 29 2 27 2 26 3 27 2 28 3 27 3 26 1 26 2 36 4 39 2 35-1 34 4 30 2 32 3 32 1 31 2 30 5 32 0 28 0 28 0 29 3 29 2 29 1 26 0 26 3 26 0 26 1 24 0 30-1 24-3 25 1 30-3 28-1 27 6 27 1 25-3 28-2 26-5 29-2 29-3 28-4 29-8 28 0 26-5 27-3 26-3 23-9 26-3 25-1 24-1 24-1 26-3 25-2 26-2 25-3 25-6"/>
<path d="M15505 44136l 12 23 24 10 24 8 26 11 23 9 25 5 23 8 24 8 23 10-19 19-21 12-22 12-22 14-22 17-23 14-23 10-22 13-20 14-24 16-21 13-20 15 7 24"/>
<path d="M13551 42871l 8 23 22-10 18-18-5-24-26 4-22 14-9 24 19 16 18-16-14-21-16 19"/>
<path d="M17825 42704l-5-24 7-24 22-11 25-11 26-7 27-8 28-5 25-2 28-1 28 3 26 8 24 11 12 23 0 30-9 27-13 25-14 22-16 22-16 25-20 21-20 22-23 19-21 19-25 16-26 18-23 17-24 17-25 13-27 13-26 13-23 10-23 12 25-12 25-11 28-7 23-5 24-6 24-5 25-3 30-2 27-1 25 3 28 3 24 6 24 9 20 13"/>
<path d="M18888 41833l 20-17 28-6 24-4 29 0 25 2 30 5 24 3 26 3 25 4 27 5 25 7-11 25-24 15-25 16-22 10-28 13-22 10-29 12-26 11-23 14-21 14 24 5 27-1 26-2 24-2 25 1 29-1 26-3 24 1 26 7 23 7 20 13 6 25-9 23-18 20-20 16-24 15-26 13-29 13-30 9-28 8-28 5-31 2-25 4-25-1-25-8"/>
<path d="M20266 42716l 18-16 24-6 24-3 26-2 27 0 29 3 24 6 24 9 20 14-1 25-14 22-18 25-17 18-20 19-21 17-25 17-24 15-21 17-22 16-23 19-24 17-23 15-26 18-20 15-21 15-17 19 25 0 27-4 28-4 28-2 29-1 27-3 29-1 29 1 25 2 27 3 23 7"/>
<path d="M21600 43412l 8 25 0 30 0 28 0 24 2 25 0 27-1 28 0 30 0 29 1 30 1 27 3 31 3 25 2 27 2 29 2 27 1 24"/>
</svg>
