<svg xmlns="http://www.w3.org/2000/svg" viewBox="2016 1583 12408 7160" stroke="black" stroke-width="20" stroke-linecap="round" stroke-linejoin="round" fill="none" data-xena="0 0 0"><style>@media(prefers-color-scheme:dark){svg{background-color:black;stroke:white;}}</style>
<path d="M7556 4364l-9 5-11 4-11 5-14 6 8-4-15 9 8-5-16 11-15 14 9-9-13 15-12 15 5-8-10 16-10 18-10 20 4-8-11 22-12 26-13 31-13 30-10 26 2-5-6 24-4 23-2 24-2 25 0 26 1 25 2 23 4 22 6 20-1-6 8 19 9 17 10 15 11 13 13 10 14 9 14 7-7-3 15 5 16 3 16 1 16-1 15-2-9 1 15-3 13-4-9 3 13-7-8 5 10-9-7 6 9-9-5 7 7-10 6-9-5 8 5-9-3 8 2-10 1-10-1 9 0-9-2-9-4-9-4-9 4 8-5-9-7-8-7-9-9-7-9-8-10-6-11-5-12-3 9 1-12-1-13-1-13 1 8-1-13 3-14 6 8-4-15 8-14 10 7-5-15 12-16 14-15 15-8 5"/>
<path d="M6835 5421l 7-3 7-2 9-2 8-1 8-1 10-1 10-2 11-1 12-1 11-1 11 0 12-1 11 1 10 0 11 2 10 2 10 3 9 3 8 3 7 3 6 3 5 4 4 5 3 6 2 8 2 7 0 6-2 9-2 8-3 10-4 12-6 11-4 8-7 12-8 13-9 14-11 14-5 8-11 15-12 15-13 15-13 16-15 16-9 9-16 17-17 17-19 18-18 17-19 17-19 17-17 17-16 16-15 15-15 15-12 14 8-9-11 13-10 11-8 10-6 9-5 7 5-7-4 6 4-8-2 5 2-9 0 4-2-8 4 3 6 3-8-3 7 1 9 0 9-1 11-2-9 2 13-3 15-4 17-5 18-7 19-7 20-7-8 3 19-9 21-10 21-12 21-12 22-12"/>
<path d="M7444 5180l-8 1-9 1 9-1-10 2-11 4-11 5 8-4-11 7 7-5-11 9-12 11 9-9-11 13-11 15 5-7-10 17 4-8-9 20-9 22-7 25-7 25 2-8-7 27-6 29-6 31-5 30-4 30-2 28 0 27 1 26 2 25 4 22 5 20-1-6 6 17 6 16 8 14 8 11 9 9 10 8 10 7 10 4-8-3 11 3 11 0 11-2-9 2 12-4-8 3 13-6 13-7 14-8-8 4 13-8 12-10-6 6 11-11 11-10-6 6 9-11 8-11-5 7 6-11-3 8 5-12 3-11 2-10-1 8-1-10-1-11-4-10 4 8-4-8-6-6-7-6-8-4-10-3 9 1-11-1-12 0-13 2-13 2 9-2-13 3-14 5-15 6 8-4-15 8-15 8-14 10 7-6-14 11-13 11-13 12-13 13-7 5"/>
<path d="M6710 6373l-1-3 1-9 3-8 1-3 5-7 6-7 7-6 3-3 6-4 7-4 7-3 9-4 8-2 11-3 12-2 14-3 15-4 15-4 16-4 15-4 15-4 16-3 15-3 14-3 9-1 15-3 14-2 14-1 12-1 12 0 10 1 9 1 8 1 6 3 8 3 5 2 3 4 1 3 3 9-1 4-2 9-3 6-4 8-5 7-6 7-7 8-9 10-9 9-11 11-12 12-13 13-14 14-14 14-15 15-16 15-17 16-18 17-19 16-19 15-20 16-19 16-19 16-18 16-16 16 9-8-15 15-13 16-11 15 4-7-9 15-8 14 4-8-7 14-5 15-4 13 2-9-1 10 0 8-2-9 2 7 4 5 5 5 8 3-8-3 9 1 11 1 13-1 16-2-9 1 18-4 18-5 21-7 22-8-9 3 23-9 23-11 25-11 25-12 26-12 28-12 29-13 7-2 30-12-6 2 31-13 6-2"/>
<path d="M7369 6138l-6 2 8-2-5 2-6 3 8-4-7 3-7 6 7-6-8 7 9-10-7 9 5-7-7 10-7 12-8 14 4-8-7 15-7 15-7 18-7 19-5 21 2-9-5 22-5 25-5 26-5 28-5 28-4 28-3 27-2 28 0 26 0 26 2 25 2 22 4 20 6 18-2-7 6 16 8 14 8 12 9 12 9 9 11 7 11 6-8-3 12 3 12 2 12 0 12-2-9 1 12-3-9 3 12-5 11-6-8 4 11-7 11-8 10-8-7 6 9-8 7-9-6 7 5-9-4 8 4-9-4 8 3-10 1-10-1 9-1-9-2-10-4-8 4 8-6-9-7-9-8-8-9-7-9-6-11-5-11-5-11-2 9 2-13 0-12 2 9-2-13 4-13 5-13 6 8-4-13 8 7-6-12 10-12 10-12 11-12 12-11 12 9-10-12 13-12 14-13 15-12 15-9 9"/>
<path d="M10523 2594l 6-1-8 1 5-1 5-2 6-2-9 3 6-2 7-4-8 5 7-5 8-6 9-7-7 6 9-8 9-9 10-11 11-11-6 6 11-12 11-14 10-14 11-15 11-16 11-16-5 7 10-17 8-17 8-15 6-14-3 8 5-14 4-13 3-12 2-12-1 9 1-10-1-11-1-11-1-10-2-7-1-6-1-4 3 8-1-2 41-19-2 3 10-15-3 5-2 7 2-9-1 9-2 12-1 14 1 14 1 13 1 11 3 11 3 11-3-8 4 11 5 11 5 12 7 11 7 12 7 11 8 10 9 10 9 10 8 9 8 9 7 8 7 8 7 7 6 7 5 8 4 7 4 8 2 9 2 8 1 8-1 8-1 7-3 9-2 5-5 8-5 7-4 5-9 9-5 5-7 5-6 4-6 3-8 4-7 3-8 3-9 2-9 1-9 1-10 1-10 1-10 2-10 1-9 0-10 0-9 0-8 1-7 1-7 1-4 0 8-2-2 1 26-54 3 0 5 0 6-1-9 1 8-2 8-3-9 4 10-4 9-5 10-6-8 4 11-6 11-7 13-8 12-8 14-9 14-11 16-12 14-13-6 6 12-11 10-11 9-11-6 7 9-11 8-11 9-12 5-7 7-6 8-4 9-4 9-1 7 3 3 8"/>
<path d="M10946 2342l-2 5 4-8-2 5-2 7 2-9-2 8-2 9-1 10-1 10-2 11-1 11-1 12-1 13 0 12 0 11 0 10 0 9 0 8 1 8 1 7 2 6-2-8 2 5 3 5 5 2-8-3 5 1 5 0-9 1 7-2-9 3 7-4-8 5 7-6-7 6 8-7 7-9-6 7 7-8 6-9 5-9-4 7 5-9 5-9 6-8 5-9 5-8 4-8 3-7-3 8 2-5 0-4 3 17 0-1 47-26-1 2 4-8-2 6 2-9-2 9-1 9-2 9 0 9 1 8 1 8 2 8-2-8 2 7 4 7 4 7 4 5 5 5 6 3-7-3 6 2 8 1 8 0-9 1 9-2 10-3-9 3 11-6-7 5 11-7 13-9 13-10 13-12-7 6 13-12 13-14 12-15-6 7 13-16 12-17 11-18-4 8 11-19 11-20 11-21 10-20 9-21-3 8 8-21 8-20 7-21 6-21 4-22 5-23 4-26 4-27 4-28-1 8 3-27 1-23 0-18-1-16-3-13-2-12-4-11-3-9-3-8 4 8-4-6-4-3 9 2-4 0 17-6-5 4 16-15-6 7 6-7-7 10-8 15 5-8-9 17-8 19-8 21-9 24-8 27-9 29-9 33-10 37 2-6-11 44-11 49-11 55-12 58-11 60-10 57-9 52-8 47-8 43-8 43-7 42-6 41-5 39-3 38-1 35 0 30 3 27 5 22-1-5 7 17 10 13 11 10 12 8 10 5-7-3 10 2 10-1-17 4 10-5-14 11 10-10-6 7 10-13-5 7 10-17 9-20-3 8 9-23 9-24 9-26 9-27 8-27 6-28 5-27 3-27-1 7 2-27 0-27-2-27-3-25-4-24-6-21-7-19 3 6-8-16-8-13-9-10-8-8-8-6-8-4-8-2 9 1-8 0 9-2-7 3 8-4-8 4 8-6-7 6 9-10-6 6 6-7-5 7-4 7 4-8-2 6 2-8-1 6 2 5-3-8 3 5 6 3-8-3 7 2 8 1 9-1-9 1 9-3-8 4 10-5-8 4 12-7 11-9-6 6 12-11 14-14 13-14 15-17 16-18-6 7 17-21 21-26 26-34 29-42-4 6 30-45 26-41 20-35 15-31-2 4 12-28 9-27 8-26 6-24 4-23 4-21-1 6 2-18-1-15-1-12-3-10-3-9-3-6 4 8-4-4-4-1 18 0-6 2 16-10-7 6 9-10-7 8-8 12 5-8-8 14-10 17-10 20 4-8-11 23-12 25-12 29-13 31-12 34-12 36-10 38 1-5-10 40-8 42-8 42-8 43-6 44-7 43-5 42-4 39-4 38-3 35-1 34 0 30 1 28 2 24 4 22 6 18-2-5 6 15 8 12 8 9 7 7 7 5 7 2-8-3 7 0-18 4 7-2-7 4 7-5-7 6 7-8-6 7 7-12-4 8 7-14 8-18-4 8 8-19 8-20 6-18 4-17 3-16 2-17-1 9 1-17-1-17-2-16-3-16-5-14-5-13 4 7-7-12-6-11-7-10-7-9-8-8-7-8-7-7-8-7-7-6-6-6-6-4-3-3-4-8 0-2 1-9 4-8 5-8 5-7 7-6 3-2 8-4 9-4 6-2 8-3 10-4-8 3 11-5 12-6 13-8-8 5 14-9 15-9 15-10 15-11 15-11 14-11 14-12-7 6 12-11 12-11 10-10 10-10 9-9 8-9 8-8 7-8 5-7 5-5 7-5 8-5 8-3 4-2 9-1 8 3 3 2 1 4 2 8 0 6 0 6-2 8-2 9-2 9-1 10-2 10-2 12-2 12-2 14-2 14-1 15-1 16-1 15-1 14-1 14-1 12 0 11 0 9 1 8-2-8 2 6 3 5 3 4 3 8-3 9-4 8-5 8-9 9-7 5-8 4-9 2-9-1-4-4-3-5-3-8-2-6-1-8"/>
<path d="M11592 2096l-6 0 9 1-6 1 9-2-5 1-5 3-5 2 8-4-5 2 7-5-4 4 9-10-4 5 6-7-4 6 4-8-2 5 3-9-1 5 0 5 1 7 3 11"/>
<path d="M11704 2376l-8 2-4 1-9-1-3-8-1-3 1-8 3-9 5-7 4-7 7-8 5-7 7-7 7-6 6-5 7-5 8-5 8-7 8-5 7-5 9-5 8-4 7-3 8-3 8-4 8-2 9-1 7 0 6 1 7 1 6 1 7 1 6 2 8 3 6 2 5 4 5 6 4 6 4 6 4 7 4 8 2 8 3 8 2 9 2 9 3 10 2 11 3 12 2 11 2 12 2 11 1 11 2 11 2 11 2 11 2 11 3 9-3-8 3 9 3 8 3 8 4 6 4 6 5 4 5 3-8-3 6 0 6 0-9 1 7-2 9-1"/>
<path d="M11992 2272l-5 3-5 3 8-5-5 4 9-10-5 6-6 6-7 9-9 11 6-7-8 11-7 10-6 11-7 12-8 14-9 15-10 19-13 24-15 23-11 20-12 20-12 20-13 21-15 22-5 6-16 21-8 9"/>
<path d="M13228 2031l-3-2-4-8 1-9 0-4 1-5 2-5 1-6 1-6 1-6 3-8 5-8 6-7 7-6 1-1 8-5 9-3 9-1 8 3 2 6 2 8 3 10 1 11 0 10 0 12-1 14-1 17-3 21-3 22-3 20-4 20-4 21-5 22-5 24-5 25-5 25-6 26-5 25-4 23-4 21-4 19-2 19-3 18-1 16-1 16-1 13 0 13 1 10 2 9-2-8 2 7 3 5 4 3-8-3 6 1 7-1-9 1 8-3-16 8 8-6-6 6 9-9 10-9"/>
<path d="M13145 2322l-10 2-11 1-12-1-11 1-12 2 8-2-13 4-12 4-7 2-9 2-5 0-2 0 34-56 3 1 6 0 8-1 10-1-9 1 13-2 15-5 15-6 16-6 9-1 8 3 2 8-2 9-5 8"/>
<path d="M13462 2198l-4 3 7-5-3 3 9-9-3 4 9-16-1 5 0-17 2 3 5 3-8-3 6 1 8 2 9 1 10 1 10 1 8 0 8 1 8 1 7 1 8 2 7 2 7 2 6 2 8 4 5 2 5 3 4 3 3 5 1 5 3 8 0 6 0 6-1 7-3 9-2 7-4 8-5 9-6 11-7 10-7 9-5 7-6 8-7 8-8 9-9 10-9 9-10 10-11 10-9 9-9 8 9-9-8 8-6 8-6 7 5-7-5 6-3 7 4-8-1 5 2-8 0 5-3-8 2 4 3 4 6 4-8-4 7 3 7 1 9 1 10-1 10-1 11-2-9 2 11-3 12-2 9-1 8 3 2 8"/>
<path d="M13693 2341l 4-3 7-4 9-4 4-2 5-1 9-1 5 0 5 0 6 0 7 1 9 0 8 0 8 0 8-1 7-1 9-1-9 2 8-3-8 3 9-5 9-4 8-3 9-4 9-3-8 4 8-4-8 4 8-5 7-6-6 6 7-7 6-6 6-6-6 7 5-7 5-6-5 7 4-7-3 8 2-6 2-6 1-7-1 9 1-5-1-5-3-5 4 8-3-5-4-4-5-5-6-5-7-5-8-4-9-4-9-2 9 2-10-2-11 0-12 1-11 3 8-2-11 4-12 4-12 5 8-4-11 7 7-6-11 8-10 9-9 10 9-10-9 10-8 10 5-7-8 12-6 12 4-8-6 12-4 14 2-9-3 15-1 17 0 15 1 13-2-9 3 11 5 9 6 8 8 8 10 6 12 5-7-3 14 5 16 3 17 3 17 2 19 0 18 0 18-2-9 2 17-4 19-5 22-7 27-9 29-11"/>
<path d="M14094 2288l-3 5-3 5-5 7-9 9-4 4-4 4-4 3-4 3 14-16-2 3 6-17 0 4-2-8 3 3 5 3-8-3 7 3 8 2 8 1 10-1-9 2 10-2 11-4-8 3 12-5 14-7 15-8-8 4 14-8 12-8 10-7 9-7 10-8 9-7 8-7 8-7 8-7-7 6 7-8 6-7-5 7 5-7 4-7-5 8 4-7-4 8 3-8 1-8-1 9 0-9-1-7-4-7 4 8-4-7-6-5-6-4-6-4-7-2-6-2 9 2-6-1-7 1-6 1 8-2-8 2-8 3-10 4-10 4-10 5 8-4-10 6 8-5-10 7-9 8-9 9 9-10-9 10-8 11 5-8-7 11-6 12 4-8-5 12-3 13 2-9-2 13 0 15 2 14 3 13-2-9 5 12 6 12 8 11 10 11 11 9 13 8 13 7 14 6-8-4 15 4 15 3 15 3 16 2 8 3 2 8"/>
<path d="M10730 4309l-16 8 12-8 13-11 16-15-6 6 19-19 24-24-6 6 29-32 30-37 30-38 29-40 29-40 29-41 29-41 27-40 27-39 25-38-3 4 22-37 20-34 16-31 15-29 11-27-1 4 8-25 6-23 4-22 2-21-1 7 0-18-2-15-3-13-3-12-4-10 4 8-5-7-5-6-6-4-7-2 9 1-8 1 9-2-10 4 8-4-12 7 8-6-13 11-14 14 9-10-15 17-15 20 5-7-16 24-16 28 4-7-17 33-16 36-16 39-14 42 1-5-11 46-10 51-8 55-6 51-3 42-2 37 0 36 2 38 4 40 7 37 7 28-1-5 9 22 9 19 11 18 13 16 14 14 15 11 15 9-7-3 16 6 18 4 20 3 19 0-9 1 16-3-9 3 15-6-8 4 13-8-7 6 11-11-6 6 11-13-5 8 9-16 7-17-3 8 6-18 4-21 2-24-1 9 2-27-1-24-3-21-6-18-8-17 4 8-9-17-10-16-12-15-11-13-12-11-13-9-12-7-11-6-12-3-10-3-10-2 9 2-9-1-8-1-8 1 9-2-7 2 8-4-5 3 16-14-4 5 9-16-2 6 3-8 0 6-2-9 2 7 4 6 5 7 5 6 3 9-3 9-4 8"/>
<path d="M11472 4152l-5-1-6 0-6-2-6-2-7-1-8-2 9 2-8-1-9-1-8-1-9 0-9 0-9 1-9 2 8-2-9 3-9 3 8-3-9 4-9 5-9 7 7-6-8 7-8 7 8-9-8 9-7 9 5-7-6 10-6 11 4-8-5 10-4 10-4 10-2 11 2-9-2 11-2 10 0 7 2 5-3-8 3 4 3 4 5 3-8-3 6 2 7 1 7 0 8-1-9 1 9-2 9-4-9 4 9-4 9-4 9-4 9-4 9-5 9-5-8 4 9-6 8-6 6-6-6 6 5-5 5-5 4-4-11 14 3-4-4 8 1-5 0 9-1-4 4 8-3-2 9 2-3 0 33-21-3 3 10-15-2 4-2 5 3-8-1 4-1 6 1 5 1 6-3-8 2 6 3 6 4 7 5 8 6 7 6 6 8 6 8 6 9 6 10 6 10 4 2 9-2 9-5 8"/>
<path d="M11713 4083l 2 6 2 6 1 9 1 10 0 11-1 12-1 12-1 12-1 13-3 14-3 14-2 9-5 14-5 13-5 14-5 13-6 13-5 13-4 11-4 10-4 8-2 6 2-9 0 3-28-7 4-1-15 10 5-5-5 7 6-8 8-11 10-13 10-15 14-18 16-21 16-20 14-17 12-15 10-13 6-7 10-13-6 6 11-13 10-13 6-7 11-12 11-12 11-12 9-11 9-9 8-9 8-9 8-8 9-9 8-7 6-5 7-5 7-4 6-3 8-3 5-1 9-1 4 0 8 3 4 2 3 5 2 6 3 8 1 8 0 9 0 11-1 12-2 12-3 14-3 15-3 9-4 15-3 16 2-9-4 16-4 16-2 9-5 17 3-9-4 17-4 17-3 18-2 17-1 14-1 13 0 11 1 11 2 10-3-9 3 9 4 7 5 5 7 5 7 4 3 8"/>
<path d="M12134 4170l 0-5 0-5-1-5 0-5 0-5 0-5 0-5-1-6-1-5 3 8-3-4-4-3-4-1 9 1-4 0-5 0 9-2-6 2-7 2 8-4-7 4-8 5-9 6-10 7-11 8 8-5-11 8-10 9-11 9-10 10 9-9-9 11-9 11-8 10 5-7-7 10-6 9-5 9 4-8-4 7-2 8 2-9-1 7 1 6-3-8 2 5 4 4-8-4 6 2 8 0 9-1 10-1 11-1-9 1 11-2 12-2 11-4 12-3 11-3 10-4-9 3 10-4 8-4 7-4 7-4-8 5 5-4 4-3 8-5 3-1 9-4 9-1 8 3 3 2 3 4 3 6 3 5 4 5 4 5 5 6 5 5 5 6 6 6 5 4 5 4 6 4 7 4 7 2-8-3 7 2 6 2 7 1"/>
<path d="M12359 4148l 1 5 1 6 2 6 1 6 0 6 0 6 0 7 0 7 0 7-1 8 0 9-1 8-2 7-2 9-2 6-2 5-1 5 2-9 1 3-28-7 4-2-8 5 6-6-7 6 8-8-6 7 8-11 6-10 8-12 10-13 6-7 10-12 9-10 8-10 8-9-5 7 8-10 9-11 9-12 10-12 6-7 10-12 9-9 7-7 7-7 7-7 6-5 5-6 7-6 6-4 8-5 6-2 8-4 9-1 4 0 8 4 3 3 3 5 2 9 3 8 1 10 1 10 0 11 0 11-1 10-1 10 0 11-1 11-1 11-1 12-1 11 0 12-1 11 0 12 0 11 1 10 1 10 1 10 2 9-2-9 2 9 3 8 4 7 5 6 7 5-7-4 9 3 11 1"/>
<path d="M12857 4127l-3 8 1-5 1-4 1-5-1 9 0-4-1-5-1-4 4 8-2-4-3-3-3-2-4-2-5-1 8 1-5 0-5 0-6 1 9-2-6 2 8-4-7 4-8 4-9 6-9 6 7-5-9 7-10 9-10 9-10 11-11 11 9-10-8 10 5-7-6 11 4-8-4 11-4 11-3 9-3 8 3-9-2 6 1 6 1 7-2-9 3 6 5 5 6 3-8-3 8 2 9 2 10 1 12-1 12-1 12-2-9 1 12-2 12-3 11-4-9 3 10-5-8 4 10-6 9-5 8-6 8-5 7-5 6-5-6 6 5-6 6-5 5-5 7-6 4-4 5-5-7 6 5-4 4-4-6 7 3-4 6-7 3-4 7-5 3-3 8-5 8-3 3-1 9-1 4 1 8 3 3 3 3 4 3 5 3 7 2 7 3 9 4 9 3 8 3 8 4 6 6 7 6 7 7 7"/>
<path d="M11188 6499l 2-4-5 8 2-4 2-5-3 8 1-5 2-5 2-5 2-6 2-5 2-6 1-6 1-6 1-6 1-7 1-7 0-7-1 9 1-8 0-9 0-10-1-9-1-10-2-10-3-10-3-10-3-10-3-10-3-9-4-9-4-9 4 8-4-9-5-8-6-8-7-8-7-7-7-7-7-5-8-4-8-3-9-2 9 1-9-1-11 1-10 2 8-2-11 4-12 5 8-4-12 7-12 7 7-5-12 9-11 11 9-9-12 12-11 14-11 15 6-8-11 16-10 17-9 17 4-8-8 18-8 18-6 18-7 19-5 18-5 18 3-8-4 17-3 18-2 16-1 16 0 15 2 14 2 13-2-9 3 12 5 12 5 11 7 10 7 9 8 8 10 5 10 4-7-3 11 3 12 1 13 0 14-1-9 1 15-3 15-4 17-6-9 3 16-7 17-9 16-9-8 5 16-11 15-11-7 5 14-12 14-14 12-14 12-13-6 6 11-13 10-14 9-13 8-12-5 7 7-11 5-11 5-9-4 8 3-8 3-8 1-7 1-7 1-6-1 9 0-5 0-4-1-4-2-3 4 7-2-2-3-2-3-2 9 2-4 0 9-2-4 1 8-4-4 2 8-5-4 3 15-17-3 4 4-8-2 5-2 5 2-9-1 7-2 7 0 9-1 10 0 10 0 11 1 10 0 10 1 11 2 10 1 10 2 10 2 10 1 10 3 10-2-8 2 9 3 9 3 9 4 8 3 9 3 8 3 7 3 7 3 7 4 6 4 6 4 5 5 4 5 3 5 3 5 3 4 2 5 2-8-3 5 2 5 1 5 1 5 1 4 0 5 0 8 3"/>
<path d="M12538 6404l 2-4 3-4 6-6 3-3 7-6 3-3 8-4 4-2 9-3 4-2 5-1 9-2 5-1 4 0 5 1 8 4 5 2 5 3 5 3 6 4 6 5 6 5 5 6 5 6 3 7 4 8 3 9 3 9 2 9 3 9 3 11 2 11 1 11 1 11 1 12 1 14 1 15 0 16 0 16-1 15-1 13-2 12-1 10-1 10-2 9 0 8-1 5 0 3-57 26 1-2 1-4 1-7 2-8 1-9 2-11 3-11 3-13 3-13 3-15 4-16 3-16 5-16 5-16 5-17 6-18 7-18 4-8 7-16 7-15 6-13 7-11 6-10 4-8 6-8 6-8 5-7 6-7 6-7 6-6 5-6 6-6 7-6 6-5 7-5 7-4 7-4 6-3 9-3 5-2 5-1 9-1 5 0 8 3 4 3 4 3 4 4 3 5 3 6 3 6 2 7 2 8 3 9 2 8 3 9 2 10 2 10 3 11 2 13 2 14 2 14 2 14 1 14 2 12 2 12 1 12 2 12 2 11 2 11 2 12 2 11 2 12 3 12 2 13 1 13 1 12 1 12 1 12 2 10 2 9 2 9-2-8 2 7 3 7 2 6 2 8-2 9-4 8-5 7-9 10-8 5"/>
<path d="M11276 5181l-3-6 4 8-5-6-4-1 25-4-5 3 16-15-4 6 5-7-4 8 4-8-4 10-3 11 2-9-3 13-2 13-2 13-1 15-2 16-2 16-1 17-1 17-1 17-1 15 0 15-1 16-1 18-1 18 0 20 0 21 0 22 1 21 0 22 0 22 0 22 0 22 0 23 0 23-1 24-1 24-1 24-1 25 0 25-1 24-1 24-1 22-1 21 0 20 0 18-1 16-1 16 0 14-1 14-1 13 0 12-1 12-1 12-2 11-1 10-2 9-1 8-2 8-1 8-1 7-1 6-2 5-2 9-1 5-2 4-4 8-5 7"/>
<path d="M12778 5243l 2 8 1 5-1 6-1 7-1 7 0 9 0 9 0 12 0 13 1 15 1 16 2 17 2 17 2 17 3 19 2 20 3 20 2 23 2 23 1 24 2 23 2 23 2 24 2 25 2 24 2 26 1 27 1 28 1 28 0 30 0 30 0 28 1 28 1 25 2 22 1 21 1 19 2 18 2 16 3 16 2 16 0 16 0 16 0 13 0 11-1 10 0 13-1 13 0 13 0 12 0 10 0 8 0 7 0 6 0 5-3 9-4 8"/>
<path d="M12733 6965l 14-16-2 4-3 4 4-8-2 6-3 6-3 7-3 8-4 8-4 9-5 10-5 12-6 13-6 15-6 17-7 17-8 18-9 19-5 8-10 19-11 21-11 21-12 22-12 24-14 25 4-8-14 26-3 7-15 28-16 29-17 32-18 34-20 35-20 36-21 36-21 36-21 34-19 32-19 31-18 30-17 29-16 28-16 29-13 27 2-4-12 24-8 18-5 16-5 13-5 13-6 14-6 13-5 11-4 11-3 10-3 10-3 8 3-9-2 8-2 6-1 5-2 9-4 8-6 8-8 9"/>
<path d="M11961 8525l-1 9 0-7 0-6-1-8-1-7-2-8-2-9-2-9-3-8-2-9-3-7-3-7 4 7-4-6-4-6-5-5-5-5-5-3-6-4-7-2-7-2 9 2-8-1-8 1-8 1 9-2-8 3-8 2-8 4 8-4-8 4 8-5-7 6-7 6 9-9-6 7-5 7 5-7-6 8-5 9-5 9 4-8-4 9-4 9-3 10-2 10 2-9-2 9-2 9-1 9 1 10 1 9 1 8 2 7-2-8 2 7 3 7 3 5 3 5 3 4 4 2-8-3 5 2 5-1-17 5 6-2-8 4 6-4 6-4 7-5 6-6-7 6 7-6 8-7 8-8 7-8 8-8 6-7 7-6 7-6 7-6 7-6 6-4 6-4 6-4 8-4 5-3 5-2 8-3 5-2 4-2 9-1 4 0 8 3 3 2 3 4 2 5 2 5 1 4 2 5 1 5 2 5 2 5 2 5 2 5 3 5 3 5 3 5 4 5 5 5 4 5 5 5 5 4 6 4 6 4 7 3 6 3 7 2-8-3 6 3 7 1 7 2 8 3"/>
<path d="M11167 7025l 4 3 4 3 4 3 5 5 5 5 5 6 6 6 5 6 6 7 7 8 6 7 6 7 7 7 8 7 8 8 7 7 8 7 8 7 9 7 9 7 10 7 10 7 11 8 10 8 11 8 11 7 13 7 13 6 15 6 16 7 16 7-8-4 16 7 17 5 17 4 17 4 17 4 17 2 17 1 18 0 18-1 19-1 20-3 21-3 21-3 23-4-9 2 23-4 23-4 24-5 23-4 24-5 22-5 22-6 22-6 21-7 22-6 22-6 23-6 23-6 22-7 23-9 23-9 24-8 24-9 23-8-8 3 22-9 19-9 18-11-7 4 16-10 16-11 16-11 16-12 15-12 14-12 14-11 13-11 13-11-7 6 12-12 11-11 11-11 10-11 9-11 10-10 9-10 8-11-6 7 8-10 8-10 8-9 6-7 7-9-6 7 8-9 6-10-5 8 6-10 6-11 5-9"/>
<path d="M12217 6840l 8-4 4-3 8-3 5-2 4-2-8 3 5-2 5-2 6-2 6-3 7-3 6-3 7-3 9-4 7-2 7-3 8-2 7-3-8 3 7-3 7-4 7-3 6-3 9-3 7-2 9-2 7-1 6-1-9 2 6-2 5-1 5-2 9-1 5 0 5 0 5 1 5 1 8 3 3 3 3 3 4 4 2 5 2 5 3 9 0 6 0 6 0 6-1 6-1 6 0 8-1 9-1 9-2 9-2 9-3 10-2 10-3 11-2 11-3 11-2 12-2 12-2 11-2 12-2 11-2 11-1 10-1 10-1 9 0 9 0 9 0 8 0 9-2 9"/>
<path d="M2348 1773l 3-3 6-6 8-4 9-4 2 0 9-2 8 3 2 4 2 8 1 6 0 7 0 7-1 8-1 9-2 9-2 11-2 11-3 12-3 12-2 9-4 13-4 14-4 16-4 16-4 16-5 17-5 18-5 20-5 20 2-9-5 20-2 9-6 20-5 19-5 19-5 19 2-9-4 20-4 18-3 9-4 17 2-9-3 16-3 16-3 16-3 15-2 14-3 14-2 13-2 12-1 12-2 9-1 8-1 6 0 5 0 3-43 4 2-1"/>
<path d="M2646 1927l-5 1 9-2-5 2 8-4-4 2 7-5-5 4 9-9-4 5 5-7-5 7-4 8-5 9 4-8-5 10-5 12-4 13-3 12-3 11 2-9-2 10-2 11-1 12 0 13 0 13 1 14 1 13 2 12 3 12-2-8 4 12 5 11 6 10 7 9 8 7 10 7 11 6 11 6 13 5-8-3 13 4 13 3 14 1 15 1 15 0 16-1 16-1 17-2-9 1 17-3 17-4 16-6 16-6-8 4 15-7 15-8-8 4 14-9 13-10 12-10 12-10-7 6 11-11 9-11-6 7 9-12-5 7 7-12-4 8 6-13 4-14 2-16 2-14-1 8-1-13-3-13-4-13-7-14 4 8-8-16-10-15-9-13-9-11-10-11-11-10-13-10-13-9-15-8-16-7-16-5-17-3 9 1-17-1-17 0-17 1-17 3 9-2-17 4-15 5-13 6 8-4-12 8 7-5-10 8-10 9 9-10-9 10 6-7-7 10 4-8-4 11 2-9-1 11 0 10 2 11-3 9"/>
<path d="M3377 1744l-5 7-3 4-2 4 5-8-3 5 4-8-2 5-3 6-3 7-3 7-5 8-4 8-4 9-5 9-6 10-5 11-6 11-7 12-7 12-7 13-8 13-7 14 4-8-7 16-8 16-5 8-8 16-9 15-9 15-8 15-7 14 4-8-7 14-5 12-4 11-4 10 3-9-2 9 0 8 1 7-2-9 2 7 4 5 7 4-8-4 8 3 10 1 10 0 10-1 12-1-9 1 12-2 13-4 13-4 15-5 15-5 16-5 16-5 16-5 16-6 17-5 17-4 18-4 18-3 18-4 18-5 18-5 16-5 16-6 16-6 15-5 14-5 13-5 13-4 11-4 11-3 9-4"/>
<path d="M3503 1839l 9-2-4 2 8-4-4 3 7-6-4 4-3 4 14-17-3 5-4 6 4-8-3 8-2 10 2-9-2 11-3 12-1 14-2 15-2 17-3 17-1 18-2 18-2 18-1 20-2 20 0 20 0 20 0 19 0 20 1 20 1 20 1 20 0 18 0 18 0 20-3 9-4 8"/>
<path d="M2333 2753l 14-16-5 9-6 11 4-8-6 11-4 11-4 12-4 12-6 15-7 16-5 18-6 18-6 20-6 21-6 21-7 22-8 22-8 22-9 20-9 20-8 21-9 21-8 18-8 18-7 16-6 14-5 14-5 14 3-9-3 11 0 8-3 9-4 8"/>
<path d="M2701 2802l 7-5-6 5-6 6 9-9-6 7 5-8-6 10-8 11-9 13-9 14-9 16-9 18 4-8-9 19-8 19-9 20-7 21-7 22-7 22-6 21 2-8-5 20-4 20-2 20-2 19 1 18 2 17 3 15-2-8 4 13 5 12 6 10 8 7 8 6-8-3 10 3 11 2 11 1 13-2-9 2 14-4 15-5-8 3 15-7-8 4 16-10 17-12 19-15 21-18 21-17 18-14-6 5 15-14 14-14 12-15-5 7 12-16 10-16-5 8 9-16 8-16-4 8 6-15 3-16 2-16-1 9-1-16-3-16-4-15-7-15 4 8-8-15-11-14-15-15-17-14-19-11-18-9-17-6-17-5-16-2 9 1-15-1-15 1-12 2-11 2 9-2-10 2-8 3-8 4 8-4-6 4 16-14-5 5 6-7-5 6-5 7"/>
<path d="M3154 2774l-4-3-4-8-1-2 1-9 3-8 5-8 6-7 7-5 8-5 3-2 9-3 9-1 7-1 9 1 9 1 10 2 12 2 11 1 12 0 12 0 12 1 13 1 13 2 14 2 13 2 12 2 12 3 11 2 11 4 8 3 9 4 8 5 7 5 5 6 4 5 2 5 2 9 1 6-1 8-2 9-2 8-4 11-4 8-7 11-5 7-9 13-11 13-13 14-14 16-9 10-17 17-20 18-24 19-7 4-25 16-23 14-23 15-23 14-24 14-23 14-23 14-22 13-19 14 4-3-18 14-16 15-17 15 7-7-13 14 5-6-8 12 6-15 0 7-2-8 5 3-7-3 8 0-9 2 10-2 12-4 13-4 15-4 17-5 19-5 20-6 21-6 21-6 21-5 21-4 9-2 20-3 20-4 20-2 19-2 22-1 24-1 22 0 19 0 18 1 17 1 18 2 18 3 18 4 16 4 17 4 16 5 15 4 14 5 8 3 12 5 11 6 11 7"/>
<path d="M7012 1784l-9 1 7-2 8-3 7-2 8-2 9-2 10-2 11-3 9-1 12-2 13-2 15-2-9 1 16-3 9-1 16-3 16-2 15-2-9 2 14-3 13-3 9-1 13-2 10-1"/>
<path d="M6995 1867l-8 4 8-4-7 5-7 4-7 5-8 5 8-5-7 6-7 5-6 6 9-9-6 6-6 7 6-7-5 7-5 7-4 8 4-8-3 8-3 8-3 8 3-9-2 7-2 9-1 8 0 10 0 8 1 8 2 6 1 6 2 7-3-8 3 6 3 6 4 5 6 4 6 4 7 4-8-3 8 3 9 2 8 2 9 1 10 1 11 1 11 0 13-1 12 0 13 0 14-1 14-1 15-1 15-1 15 0 14 1 13 2 13 2 12 3 11 3 8 4 9 4 9 4 8 5 6 5 6 5 3 6 3 7 2 8 1 8-2 10-2 9-3 11-6 13-4 8-8 14-10 14-6 8-13 15-14 16-9 9-17 16-18 16-18 16-18 15-7 5-18 13-18 10-17 9-16 8-16 9-16 8-8 4-14 6-15 4-13 4-13 3-9 2-13 3-13 1-12 0-13-1-12-2-9-2-13-3-11-5-11-7-9-7-8-7-7-9-5-9-4-8-2-9 0-11 1-9 3-12 4-13 4-8"/>
<path d="M7619 1794l-2 7-1 7 2-9-1 8-2 10-1 12-1 12 0 12 0 14 0 14 0 16 1 18 0 19 2 20 1 20 1 20 1 20 0 21 0 21 0 20-1 20-1 21-1 21-3 21-2 20-2 19-2 17-2 17-1 17-1 16-1 14-1 10-1 10-1 10-1 11-1 10-1 8-1 8-1 7-2 8-4 9-6 7"/>
<path d="M7159 2697l 7 2-8-3 7 2 7 2 8 1 8 0 9-1 9 0 10 0 10-2-9 2 11-2 11-4 13-4 13-4 16-4 15-5-8 3 16-7 16-7 17-8 9-3 16-6 16-5"/>
<path d="M7278 2721l-6 4-6 5 8-5-7 4-7 6-8 6-8 7-9 6-10 7-10 8-11 9-9 9-10 9-8 8 9-9-8 9-8 11 5-7-8 11-6 11-6 9-5 8 4-8-4 9-3 8-3 7 2-8-1 7-1 6 0 7-2-9 2 6 3 4 5 4-8-3 7 2 8 2 10 0 11 0 12-1 12-2-9 2 13-3 13-2 13-4 14-3 14-4 15-4 14-4 14-3 14-2 9-2 14-2 15-2 14-2 15-1 16 0 15 0 14 1 15 2 13 2 12 2 12 3 8 3 11 5 10 6 9 6 6 8 3 7 2 9 2 7 1 8 0 9-2 10-2 9-4 11-5 12-5 8-7 12-6 7-10 12-12 14-9 10-16 15-15 15-14 12-15 11-7 6-15 11-16 10-17 11-19 12-21 12-21 12-21 9-8 4-19 8-18 6-17 5-8 2-14 3-14 1-13-1-14-1-9-2-14-3-13-6-13-7-10-10-9-11-8-12-4-8"/>
<path d="M7689 2637l 1 9 0 8 0 9-1 11 0 11-1 12-1 12-1 12-1 15-1 15 0 14 0 15 0 18-1 20-2 16-1 16-2 17-3 17-2 18-3 17-4 18-3 18-2 19-3 18-2 17-3 17-2 15-2 16-3 14-2 14-3 13-2 12-1 12-2 9"/>
<path d="M7030 3477l 5-1 9-2 5-1 7-1 6-1 6 0 6 0 6 1 7 1 8 1 9 2 10 2 10 2 12 3 12 4 12 3 13 3 12 4 13 5 8 3 12 5 10 6 10 6 10 4 8 4 8 5 8 5 6 7 5 6 3 6 2 9 2 7 0 8-2 8-2 9-4 10-6 12-4 8-8 12-5 8-12 13-9 10-14 14-16 14-19 13-7 6-20 14-20 14-22 15-22 15 7-5-23 15-21 16-21 16-20 15-19 16-17 15-17 15-15 15-15 14-14 15-14 14-13 12-12 12-11 10-11 10-9 9 9-9-8 9-7 9 6-8-6 9-5 7 4-8-3 6 2-9 0 4-2-8 2 4 6 5 7 5 8 4-7-4 10 3 12 2 12 1 12 0 11 0 13-1 14-1-9 1 15-3 16-4 17-5 19-5 20-6 20-6 22-7 23-7 24-7 23-7 22-7 22-9-9 4 21-9 20-9 8-3"/>
<path d="M7505 3554l 8-2-4 2 8-3-5 3-6 4 8-5-7 5-6 5-7 7 9-9-6 8 5-7-8 12-7 11-7 12 5-8-6 11-6 13-6 16-6 17-6 18-6 20 2-9-5 21-4 22-4 23-4 23-2 22-1 22-1 22 1 21 2 20 3 19 4 17-2-8 5 16 7 15 7 13 9 13 10 11 10 10 11 8 11 8 13 5-8-4 14 4 15 1 14 1 11 0 10 0 8-1-9 1 9-2-9 3 9-4 8-5-8 5 8-5 8-6 7-6-7 6 6-6-6 7 5-6-5 7 5-7-4 8 4-8 2-10 1-8-1 9-1-9-2-10-3-8-3-8 4 8-4-7-5-7-6-7-6-7-8-6-10-6-10-5-10-3 9 2-10-1-10 0-12 1-13 2 9-1-13 3-14 5 8-4-15 8-18 11 8-5-17 12-14 11"/>
<path d="M6870 4474l 1-3 2-4 4-7 3-3 6-7 2-3 4-4 7-6 4-3 4-3 8-4 6-3 8-3 7-3 8-2 9-2 9-1 9-2 10 0 11-1 11 1 12 1 12 2 13 3 14 3 13 5 8 3 12 5 13 5 12 6 11 5 11 6 9 7 8 7 6 7 4 8 3 9 2 9 0 10-3 11-2 9-5 12-4 8-8 13-5 7-11 14-12 14-9 9-15 15-16 15-17 16-18 17-19 17-20 18-20 17-20 17-19 18-19 19-20 18-22 19-23 19-22 17-16 15 6-6-12 13-10 13-9 11-9 9-9 9-8 8-6 8 9-10-5 7 5-7-3 6 4-8-2 5 2-9-1 5 0 5-2-9 1 5 3 4 6 4-8-3 8 2 9 1 10 0 11-1-9 1 12-2 13-4 15-4 16-4 16-6 17-7-9 4 18-8 19-9 19-10 21-9 23-10 23-9 25-10 8-3 26-10 27-10 7-2 7 3 2 7-2 7-4 7-4 6-8 8-6 4"/>
</svg>
