<svg xmlns="http://www.w3.org/2000/svg" viewBox="750 -13904 5048 1824" stroke="black" stroke-width="20" stroke-linecap="round" stroke-linejoin="round" fill="none" data-xena="0 0 0"><style>@media(prefers-color-scheme:dark){svg{background-color:black;stroke:white;}}</style>
<path d="M933 -12827l 0-2-1-1 1 0 0-1 1 0 1-1 1 0"/>
<path d="M946 -12825l-1-1 0 0 0 0 0 0 0 0 0 0 0 0 0 2 0 2 0 6 1 4 0 4 1 5 0 19 0 6 0 7 1 7 0 8 1 8 1 9 0 9 1 9 1 20 1 11 1 11 1 12 1 12 1 13 1 12 1 13 1 13 0 14 2 14 0 14 2 14 1 14 1 15 1 15 1 15 2 13 0 15 2 14 1 13 1 13 1 13 2 13 0 12 2 13 1 12 0 11 1 11 1 11 1 10 2 10 0 9 1 8 1 8 1 6 1 7 0 6 1 5 0 7 1 3 0 5 1 0 0-4"/>
<path d="M910 -12768l 0-1 1-2 0-1 2-1 1-2 2-2 3-2 4-3 4-2 5-3 6-2 5-2 6-3 7-3 8-2 7-3 8-2 8-2 8-2 8-1 7-2 14-1 19 0 6 0 5 1 5 2 5 1 5 1 2 3 3 2 3 3 2 2 2 5 0 3 0 4-1 4-1 4-1 5-2 5-3 6-4 6-3 7-5 6-4 8-5 7-6 7-5 8-5 8-6 7-6 8-7 7-6 9-7 9-6 9-7 8-6 8-6 9-4 8-4 7-4 6-3 7-2 5-1 3-2 4 0 5 2 1 1 1 2 1 2 0 4-1 4-1 4 0 6-2 5-2 5-1 7-3 7-2 7-3 7-2 7-2 7-2 7-1 6-3 7-1 6-1 7-2 7-1 7-1 6-1 7 0 7-1 13 0 13 1 6 2 6 2 6 2 6 2 5 3 5 4 3 4 4 4 4 5 2 6 2 6 1 7 1 7 0 17-1 10-3 9-2 11-3 11-5 10-4 10-5 11-5 9-6 10-6 10-6 9-8 9-7 8-7 8-7 9-8 7-8 8-6 7-8 7-8 7-7 7-9 7-6 5-8 6-7 6-9 5-7 5-8 3-7 2-8 3-5 2-6 0-5 0-4-2-5-3-2-5"/>
<path d="M1621 -12802l 1 1 0 2 1 1 1 3 1 4 1 5 1 5 3 7 1 8 2 8 2 9 2 10 2 11 2 11 1 12 3 12 1 12 1 13 2 13 2 14 2 13 2 14 2 14 2 15 2 14 2 13 2 15 2 12 3 13 1 10 2 10 3 9 2 7 2 5 2 4 1 3 2 2 2 1 1 1 2-1 2-1 3-3 2-4 4-5 4-7 5-9 5-10 5-12 4-13 5-13 3-14 4-13 3-14 3-13 3-13 2-12 2-11 1-11 2-10 2-9 1-8 1-6 1-6 0-4 1-3 1-2 1-2 0 0 0 3 1 4 1 4 1 5 2 5 2 7 1 7 2 7 2 8 3 8 2 8 3 8 2 7 3 6 3 7 4 6 4 4 4 6 3 4 5 4 4 4 5 2 5 3 4 1 5 2 4 0 5 0 4 0 5-2 5-1 4-2 4-3 5-4 5-4 3-4 5-6 2-4 4-6 3-6 3-6 3-7 2-7 3-8 1-8 2-8 2-10 0-9 1-10 0-20-3-23-1-12-2-12-1-13-2-13-2-13-3-13-2-14-3-12-2-13-3-12-4-20-3-9-3-8-2-6-3-7-5-10-4-5-2-3-2-4-3-3-2-3-2-1-2-2-1-1-1-1-2 0-1-1"/>
<path d="M2446 -12893l-1 1-2 0-1 0-2 1-2 2-3 2-1 3-2 4-1 4-1 6-1 8-1 8-1 10-1 11-1 12 0 13 0 14-1 14-1 15-1 16 0 15 0 17-1 17 0 17-1 18-1 18-2 18-1 17-2 19-2 19-2 18-2 19-2 17-2 18-2 16-2 16-2 14-1 12-2 12 0 10-2 9-1 7-1 6 0 9 0-3-1-5 0-73 0-15-2-17-1-18-3-18-3-19-4-19-4-19-4-19-5-18-4-18-5-18-5-16-3-16-4-14-3-14-2-12-1-12-2-9 0-8 0-7 0-6 1-4 0-4 1-2 0-1 1-1 2 0 2-1 3-1 3-1 4 0 6-2 7-2 7-1 8-2 7-3 19-5 10-2 10-3 21-6 12-2 11-3 12-2 10-2 12-1 10-1 10 0 10 0 8 1 8 1 7 1 5 2 5 2 5 3 3 4 1 3 1 4 0 4 0 5-2 6-3 6-4 5-5 7-6 8-7 9-7 9-8 8-10 9-9 9-10 9-9 9-10 7-10 8-9 8-9 7-8 6-8 7-8 6-8 7-7 4-6 6-6 4-5 5-4 3-3 2-2 2-2 1-1 2 0 1 6 0 3 0 3 2 5 1 5 0 7 1 7 0 8 0 16 0 9 0 47 0 10 0 10 0 11 1 10 2 9 0 10 3 9 1 9 2 7 2 8 3 6 2 5 4 4 3 4 4 3 5 2 5 1 6 0 15-2 8-2 10-3 10-3 12-5 11-6 12-7 12-6 13-8 12-8 11-8 11-9 10-9 10-8 10-9 10-10 8-9 10-10 8-10 8-9 8-10 6-11 5-10 6-9 4-9 4-8 2-9 2-8 2-6 0-8 0-7 0-7-3-6-2-6-2-5-4-5-5-3-6-2-6 0-7 1-8 3-8 4-9"/>
<path d="M3101 -12790l-4 0-1 1-3 0-1 0-2 2 0 1 0 2 0 36 0 9 1 10 1 11 0 12 1 11 2 11 0 13 2 12 1 13 2 12 1 13 1 11 3 11 2 11 2 10 2 9 3 9 2 9 2 7 3 6 2 5 2 4 3 4 2 2 3 2 4 0 3 0 4-2 5-3 5-3 6-5 5-6 5-8 7-9 6-10 5-9 6-11 5-12 4-11 4-11 4-10 4-10 2-8 3-9 2-7 1-6 2-5 0-5 1-3 1-2 0-3-1-1 0 2-1 1 0 18 1 6 1 7 0 7 1 8 1 7 1 7 2 6 1 7 2 5 2 6 2 5 3 4 3 5 2 3 4 4 4 3 4 3 4 2 5 1 10 2 6-1 6-2 5-2 7-3 6-5 6-5 6-5 6-6 5-7 4-9 5-8 5-9 2-9 3-10 3-10 2-10 2-11 1-11 1-10 0-34-1-12-1-11 0-13-2-12-1-13-2-12-2-12-2-11-1-10-2-10-3-8-2-8-3-7-2-6-3-5-2-4-3-4-2-3-3-2-2-1-1-2-2 0-2-1-1-1-2 0-2 0-3 0-2 1-1 1-2 0"/>
<path d="M4980 -13504l 1-3 2-1 1-2 2-4 3-4 2-4 4-4 4-4 4-5 4-5 5-6 5-6 5-6 4-6 5-6 5-6 4-6 4-6 3-5 4-5 3-5 2-5 2-4 2-3 1-4 1-4 0-5-1-2 0-2-2-1-2-2-2 0-4-2-2-1-5 0-15 0-7 0-13 3-7 3-6 3-7 3-6 4-7 4-7 6-6 6-7 6-7 7-6 7-7 8-5 6-6 8-5 8-5 8-4 8-3 7-3 7-2 6-1 7-1 5 0 5 0 3 2 4 1 3 2 3 3 3 9 3 6 1 7 0 7-1 8-1 8-4 10-4 10-5 11-7 11-5 12-9 11-9 12-9 12-10 11-10 10-10 9-10 9-8 9-10 8-8 6-7 6-7 5-6 5-5 4-4 3-3 3-3 1-2 2 0 1-2 0 7-1 2 0 4-2 4-1 5-1 5-1 7-2 6-1 7-1 7 0 15 1 7 0 7 2 7 2 8 1 6 3 7 2 6 3 5 3 5 3 5 4 5 2 3 4 3 4 2 4 2 4 2 5 0 4 0 10-1 6-2 6-2 6-3 5-4 6-5 5-5 6-7 7-8 7-8 6-10 7-10 6-11 7-11 5-11 5-12 5-12 3-10 4-10 3-10 2-10 1-10 2-9 0-8 1-9-1-9 0-8 0-8-1-7-1-5-1-5-1-5 0-2-1-3 0 0"/>
<path d="M5365 -13605l 1-1 2-1 1-2 2-2 3-2 2-3 4-3 4-2 3-4 4-3 3-3 3-3 4-2 3-3 3-3 2-3 3-2 2-2 3-2 4-4 2-1 1-3 1-1 1-1 0-1 0-1-1-1-1-1-2 0-1-1-2 0-3-1-3-1-14 0-5 1-4 1-4 1-15 6-6 3-11 6-6 4-5 5-6 5-5 5-6 7-3 6-5 7-4 7-10 18-1 6-2 5 0 9 2 4 1 3 2 5 3 3 4 2 4 3 4 2 5 0 6 1 6 0 6-1 7-1 8-2 8-3 9-4 8-5 8-4 9-5 8-6 7-5 8-7 7-5 8-5 7-6 5-5 6-5 5-5 4-4 5-4 3-4 3-2 2-3 2-1 2-2 1-1 0-1 1 0 0 1-1 0 0 4 0 3 0 2 0 4 0 9-1 5-1 7-1 6 0 6 0 6-1 5 0 5-1 5 1 5 0 5 1 3 1 4 2 3 2 2 2 3 3 1 3 1 3 2 4 1 8 0 10-3 6-3 6-4 6-3 7-4 6-5 6-5 6-6 7-5 5-5 5-5 5-5 5-5 7-7 3-3 2-2 3-2 2-1 2 0 2-1 2 0 1 1 1 0 1 1 1 2 0 0 1 2 2 2 0 1 1 2 1 3 0 2 1 3 1 2 1 3 1 3 1 4 0 4 1 4 1 5 0 5 1 5 0 5 0 10 1 5 1 5 0 3 1 5 2 9 1 4 1 4 1 4"/>
</svg>
