<svg xmlns="http://www.w3.org/2000/svg" viewBox="506 943 18960 14488" stroke="black" stroke-width="20" stroke-linecap="round" stroke-linejoin="round" fill="none" data-xena="0 0 0"><style>@media(prefers-color-scheme:dark){svg{background-color:black;stroke:white;}}</style>
<path d="M13220 13180l-2-3 0-3 1-8 3-7 2-4 4-7 5-6 3-4 6-5 5-3 7-4 6-2 7-3 8-2 10-2 8-2 11-1 13-1 15-1 15 1 17 1 17 0 17 1 18 2 16 3 15 3 14 3 14 3 12 4 11 3 7 3 9 3 8 4 6 5 6 6 4 7 2 7 2 7 2 9 0 10-1 12-3 14-2 7-5 16-6 18-9 18-3 7-12 18-13 19-5 6-16 18-7 8-18 16-18 16-20 14-5 4-20 14-19 12-19 11-18 11-17 10-15 10-14 9 6-4-12 9-10 8-9 7-7 6-6 5-4 4 16-22-1 3 0-15 4 2-7-3 6 1 9 1 11-1 12-1 15-2 16-3-8 2 18-4 19-3 8-2 20-3 21-3 21-3 21-3 21-4-8 2 20-4 20-4 20-4 20-3 21-4 22-5 23-4 24-4 7-1 6 2"/>
<path d="M14689 13080l-2 4 4-7-3 5-2 5-3 5-3 4 4-7-2 5 2-7-1 7 0 9 0 9 0 10 0 12 1 14 1 15 1 18 0 19 2 20 1 21 2 22 2 22 2 21 1 22 1 22 1 21 1 19 2 19 1 18 2 17 1 16 3 16 3 14 3 13-2-8 3 11 3 10 4 8 2 8"/>
<path d="M16016 13051l-4 6-3 4 5-6-3 5 4-8-3 7-3 7-2 9-3 10 2-8-2 12-3 11-1 12-2 13-2 13 0 14 0 15 1 16 1 16 2 18 2 17 2 19 4 18 3 19 4 17 3 18 3 17 3 15 4 15 3 15 4 14 3 13 4 12 2 11"/>
<path d="M1204 11486l 4 4 2 8 1 4 1 4 1 6 1 6 0 6 1 8 1 9 0 11 2 12 1 14 2 15 1 17 2 19 2 21 2 23 1 24 1 25 0 25-1 26-1 26-1 28-2 28-2 27-2 26-1 25 0 24 0 22 1 19 2 16 4 14-2-6 4 11 2 8"/>
<path d="M1572 11737l-4 2 6-4-2 3 12-15-2 4-3 5-3 5 4-7-2 5-2 5-2 5 2-8-1 6-2 8-2 4 2-8-1 4 0 4-2 8"/>
<path d="M1851 11483l 3-7 4-6 2-4 5-6 6-5 4-3 7-4 7-3 7-3 8-2 8-2 8-1 10-1 10-1 11 0 13 1 13 3 14 3 16 4 16 5 7 3 17 6 17 8 16 7 16 9 15 9 15 9 14 11 12 10 11 12 10 13 8 13 6 13 5 14 2 7 3 15 0 15-2 17-4 18-2 7-7 19-4 7-9 17-11 17-5 7-13 16-8 8-15 16-16 14-18 14-6 4-18 13-19 11-18 10-18 10-18 10-18 8-6 3-18 8-17 8-16 7-15 7-15 6-13 6-11 4-9 3-7 2-6 2-4 2 21-16-1 1 2-32 3 2 8 1 10 1 12 1 14 1 14-1 16-1 16-2 19-2 21-3 23-3 25-2 26-2 26-2 6 2 1 6-1 6"/>
<path d="M2633 11679l 8 0 8 1 8 1 9 2 10 0 11 0 12 0 13-1 15-1 15-1 16-3 17-2 17-3-8 1 18-4 18-5 17-5 17-6 8-2"/>
<path d="M2712 11588l-5 3-7 4-5 2 7-3-5 2 7-5-5 4 8-8-4 5 4-7-3 6 3-7-3 7-3 8-2 10 2-8-2 10-1 12-1 12 0 14 1 14 2 15 1 16 3 15 2 16 2 16 3 16 3 16 3 17 4 15 4 14-2-7 4 14 2 7"/>
<path d="M3151 11497l 1 8 0 10 1 11 1 14 2 16 2 17 3 18 2 19 2 20 2 21 3 22 3 22 3 22 4 22 4 22 3 21 2 21 3 22 3 20 2 20 3 21 2 20 2 22 3 20 3 20 3 18 3 17 4 16-3-7 5 15"/>
<path d="M3638 11615l 7-4 5-3 7-4 8-3 9-5 11-4 12-5 12-5 8-3 13-5 14-5 15-5 15-4 16-5 16-5 17-4 16-5"/>
<path d="M3692 11655l 8 0 9 0 9-1 11-1 13-2 14-3-8 2 17-3 18-4 20-5 22-5 23-5 22-6 23-8"/>
<path d="M4260 11353l 3-2 7-4 7-3 5-2 5-2 7-2 8-2 8-1 9-2 9 0 10 0 10-1 11 0 10 0 12 1 11 2 10 2 11 3 10 4 7 3 9 4 9 5 8 6 6 5 6 5 4 5 2 7 2 7 1 7-1 7-2 8-3 6-4 7-4 6-5 7-5 7-7 7-8 8-7 8-8 7-9 7-7 5-10 7-10 7-10 6-9 6-8 5-8 5-6 4 6-5-4 4 12-15-2 4 4-23 1 4 4 3 6 2-7-2 7 2 9 2 10 1 12 2 12 1 14 2 14 2 14 1 15 2 16 2 15 1 15 1 14 1 14 1 12 1 11 1 10 2 9 1 8 2 7 2 7 2 6 3 6 3 4 4 3 4 2 5 2 7 1 6 0 6-2 8-2 8-3 9-5 11-3 7-6 11-8 11-4 7-10 12-8 8-11 12-14 13-16 12-7 5-18 12-19 11-21 10-7 3-22 9-22 8-23 7-23 6-22 6-22 4-6 2-21 4-21 4-22 4-21 2-22 1-22-1-21-1-22-2-6-1-3-6 1-6 2-6"/>
<path d="M959 12524l 3-4 6-5 3-3 5-3 7-4 6-3 8-4 9-3 7-3 11-4 12-5 14-5 15-4 15-5 17-5 18-4 19-5 18-3 18-4 17-3 8-1 16-3 15-3 13-1 11-1 10 1 9 2 8 3 6 2 7 4 4 5 3 7 2 7 2 9 0 10-1 14-3 16-4 18-2 8-6 19-8 21-10 22-3 6-13 23-15 22-4 6-16 21-19 22-19 21-6 6-20 20-21 19-21 20-21 19-20 19-19 17-17 17-15 15-13 15 5-6-12 13-9 10-7 10 4-5-5 7-5 6-5 7-5 6-3 5 10-22 0 3-2-7 3 1-7-2 7 0 9-1 9-2 11-1-8 1 13-3 14-4 16-5 18-5 19-7 21-7 22-7 23-7 22-7 7-1 6 3"/>
<path d="M1588 12696l"/>
<path d="M1776 12464l 1-3 3-7 4-7 5-6 6-5 3-3 7-4 5-2 7-3 5-2 6-2 7-2 7-1 8-1 8-1 9-1 10-1 11-1 12-1 12 0 12 0 12 1 13 1 13 1 13 2 13 3 14 2 12 3 13 3 13 4 11 4 7 2 11 5 9 5 8 5 6 6 6 7 4 8 3 9 2 8 1 11 0 13-3 15-2 7-5 16-6 17-9 17-4 7-10 19-13 18-13 20-15 20-15 20-4 5-15 20-16 19-16 17-6 6-17 16-16 15-16 13-16 13-16 12-5 4-15 11-15 10-14 10-11 8-11 7-10 6-9 4-7 4-6 4 15-13-2 2 1-32 4 1 7 0 9 1 10 0 12 1 13 1 14 1 15 0 16 1 16 0 16 0 16-1 18-1 18-2 20-1 21-2 21-1 22-2 7 3 2 7"/>
<path d="M2597 12672l 6-1 7-1 6 0 8 0 7 0 9 0-8 1 8-2 8-1 9-3 9-2 10-4 11-3 10-4"/>
<path d="M2668 12554l 5-6-3 4 4-7-2 5-3 7-2 8 2-8-2 10-1 10 0 11-1 11 0 12 0 12 1 13 0 13 0 13 0 13 1 12 1 13 1 14 1 13 0 12 1 12 1 12 2 10 2 9"/>
<path d="M3112 12475l 1 9 1 11 2 13 2 16 3 17 2 19 2 19 3 21 2 20 2 21 2 20 2 20 2 21 3 21 2 21 1 20 2 20 1 20 1 19 1 18 1 17 1 17 0 16-2 8"/>
<path d="M3598 12554l 3-7 4-7 2-2 5-6 2-2 6-5 4-3 6-4 5-2 8-3 6-2 7-2 7-2 8-2 7-1 9-2 9-2 9-2 8-3 9-3 8-2"/>
<path d="M3635 12628l 7-2 8-3 8-2 8-1 8-2 9-1 10-1 11-2 12-2 13-2-8 2 13-3 14-3 15-3 17-4 8-1"/>
<path d="M4167 12292l 7-3 6-2 7-2 7-3 9-1 9-3 9-2 9-2 9-3 8-2 9-2 9-3 8-3 9-3 9-3 9-3 8-3-7 3 8-3 7-4 7-4"/>
<path d="M4276 12303l-3 6-3 7 3-7-3 8-4 8-5 9-3 7-5 8-5 9 4-7-5 10-4 10-5 11-4 11-4 11-4 11-4 12-4 11-4 12-4 12-3 11-3 12-4 12 2-8-2 11-2 11-2 11-1 10-1 8 1 8 0 6-2-8 2 5 2 4 5 1-7-2 6 0 7-1-8 1 8-2 10-2 9-4 11-3 11-4 11-3 12-3 11-3 12-3 13-4 12-2 12-3 13-3 13-2 12-3 12-2 8-1 12-2 11-2 12-1 11 0 10-1 10 1 10 0 10 1 8 2 8 1 6 3 7 2 6 3 4 4 3 5 2 8 2 6 0 7-2 8-2 8-4 9-4 7-6 10-5 7-8 10-10 12-8 8-11 12-13 13-13 12-14 12-14 11-6 5-15 10-14 9-14 8-14 8-13 7-13 7-13 6-7 3-12 6-12 5-12 3-8 2-12 2-12 1-13 0-13 0-13-2-8-1-13-4-13-4-13-6-14-7-12-9-13-9-12-9"/>
<path d="M721 14715l-3 7 2-6 1-6 2-6 2-7 2-7 2-8 3-7 3-7 3-7 3-6-3 7 3-6 3-7 2-6 3-7 3-5 1-3 5-7 5-6 1-1 6-5 7-4 7-3 8-1 7 2 2 8 0 3-2 8-2 7-3 11-3 12-5 15-5 17-7 18-6 20-8 22-7 24 2-8-7 25-6 25-5 24-5 22-3 21-1 18 0 15 1 12 2 10-2-7 4 6 6 4-7-2 7 1-8 1 10-1-8 2 13-5-7 4 13-8 15-12-6 5 14-14 15-16-5 6 14-17 14-18 13-19-4 7 11-18 11-18 8-16 8-14 5-13 5-12-3 7 3-10 3-9 2-7 1-2 3-7 4-7 6-6 6-5 7-5 7-2 8-2 7 3 2 7 0 3-1 7-2 8-1 9-2 10-1 10 0 10-1 10 1 10 0 9 2 8-2-7 2 7 3 6 4 5 4 4 5 3-7-3 6 1 6 0 7-1-8 2 7-3-7 3 7-4-7 4 9-5 8-8-6 6 9-9 9-9-5 6 8-10 8-11-4 6 6-11 6-12-3 7 4-11 4-12 3-12 2-12-1 8 1-12 0-12-2-12-3-12-3-13-5-13-5-13-5-12-5-11-5-10-4-9 4 7-5-7-4-7-3-5-3-3-1 0"/>
<path d="M1208 14676l 5-1 5-1-8 2 5-2-7 3 5-3-7 4 6-4 6-4 6-5 6-5 7-5 7-6-6 5 7-6 6-6 5-6 6-6 5-5-5 6 4-7-5 7 3-6-3 7 2-7 1-6-1 8 0-4-2-5 4 7-3-4-4-4-5-3-5-2-6-2 7 1-6-1-6 0-7 1 8-2-7 2-8 3-7 3 7-4-6 4 6-4-7 5-6 6 8-8-7 7-7 8-6 9 4-7-6 9-6 9-6 9-5 10-6 9 4-7-5 10-3 9 2-7-2 9-1 9 1 10 1 9-2-7 3 9 3 9 6 9 6 7 7 7 8 5 9 5-7-3 9 3 10 2 11 1 12 0 13-1 14-2-8 2 14-3 15-4 16-5-8 3 16-6 15-8 16-7 16-9 16-9"/>
<path d="M1458 14619l 15 0-4 2 14-8-4 3 7-9-3 5 4-7-3 6-3 6 3-7-3 6-2 8-3 8 2-8-1 10-2 10 0 12 0 12 1 13 0 11 1 12 2 11 3 11-3-7 4 11 5 10 5 9 6 7 7 5 8 4-7-3 8 2 9 0-8 1 9-2-8 3 10-5-7 4 9-8 7-4 7-3"/>
<path d="M1522 14309l-4 4 8-8-4 6 5-7-5 7-5 7-5 7-4 6 4-7-3 8 2-8-1 9 0 8 1 8-2-7 3 8 5 7 6 8 7 7 2 7"/>
<path d="M1805 14575l-4 4-3 3-5 4-6 4-5 3-6 4-7 3-7 3 7-3-7 4-8 4-9 6 7-5-8 7-9 7 8-8-8 9-8 10 4-6-8 11-8 13-8 13-8 13 4-7-6 14-6 13-4 13-4 13 2-8-1 12-1 11 0 10 2 9-2-8 2 8 3 6 4 5 5 3-7-3 6 2 7 1 7-1-8 1 9-2 8-3-7 3 9-4 9-5-7 4 9-5 9-7 9-6 8-6 7-6-6 5 6-6 5-5 4-5 3-3 6-5 1-1 7-4 8-3 8-1 7 2 2 8-2 8-1 1-4 7-2 4-2 4 4-7-3 5-2 5 2-7-1 5-1 6 0 6 0 7 1 7 3 7-3-7 3 8 3 9 4 9 5 9 5 10 6 11 7 12 7 13 8 14 8 14 7 16 7 15 7 15 7 15 6 15 6 16 6 16 5 16 2 8 5 16 4 17 3 17 2 17 2 17 2 16 0 17 0 16-1 16-2 14-3 13-2 8-3 11-4 10-5 10-4 7-5 8-4 6-8 8-6 6-7 5-7 3-7 3-7 1-8 0-8-2-10-4-10-7-11-10-10-13-11-17-10-21-3-7-8-25-8-30-7-35-7-38-5-43-6-45-5-46-4-48-3-49-3-49-2-50-1-49 0-50 2-48 2-45 4-44 0-4 4-41 5-40 6-38 5-36 6-34 7-30 7-28 7-24 6-21 6-18 4-14 4-11 3-5 4-9 4-6 5-6 5-6 5-5 7-4 6-4 8-3 8-1 5-1 5 1 7 3 5 4 5 6 5 9 4 12 5 13 6 16 6 17 7 19 6 21 7 22 7 23 6 24 7 24 2 7 5 25 5 27 5 28 4 29 4 29 4 28 3 29 2 29 2 28 1 27 0 27 0 24 0 23 0 21 1 19 0 17 1 14 1 10 2 7-2-7 2 1-39 17 2-4-8 14 4-8 4-11 4-14 5-15 6-17 5-16 6-16 6-15 6-15 5-14 5-13 5-12 4-11 4-10 3-7 4-9 4-8 4-7 4-6 4-6 3-5 5-6 4-3 6-5 7-4 4-2 7-3 8-2 4 0 7 3 4 2 3 4 3 4 3 7 2 7 2 9 3 10 2 11 2 11 2 13 2 13 2 13 3 14 3 13 3 12-2-7 3 10 4 10 4 8 6 7 6 6 6 4-7-3 8 2 8 1-8 1 8-2"/>
<path d="M2270 14213l-2 5 3-7-2 6-2 7 2-8-2 8-1 10 0 10 0 11 0 12 1 12 1 12 2 14 2 14 2 16 3 17 3 17 2 18 3 21 2 23 2 23 1 25 1 25 0 26 1 25 0 25 1 24 3 22 3 22 4 19 4 17-1-6 5 13 6 12 7 9 7 8 7 6-7-3 8 2 9 0-8 1 9-3-7 3 9-6-7 4 10-8-6 5 9-10 11-11"/>
<path d="M2198 14508l-7 2-8-2-3-6 1-8 3-7 4-6 2-3 4-7 5-6 8-7 6-5 10-9 12-9 15-10 7-5 18-10 20-10 22-10 8-3"/>
<path d="M2980 14435l 3 4 4 6 4 9 4 11 2 8 3 13 2 15 3 17 2 19 1 20 2 21 0 20 0 20 0 19-1 19-1 17-1 16-1 14-1 13-1 10 0 7-2-7 2 4-7-3 3 0-29 14 5-5-5 6 6-7 6-10-4 7 6-12 7-13 6-14-3 7 5-15 5-16 5-15 4-15 4-14 4-14 4-12 3-12 3-10 2-8 2-6 3-7 1-3 5-6 5-6 6-6 7-4 7-2 8-2 7 3 1 2 2 8 1 6 1 7 1 8 2 8 2 8-2-7 2 8 3 7 3 7 3 5 4 5 4 4 4 4 4 3-6-3 5 2 5 0 6-1-8 2 7-2 7-2-7 3 8-4-7 4 8-6-6 5 8-8 8-9-5 7 8-10 7-11-5 6 7-11 6-12 6-11 5-11 5-10 5-9 4-9 3-7 3-7 3-4 4-7 6-6 6-5 6-5 8-2 3-1 8-2 6 3 3 3 2 5 2 7 2 6 1 6 2 6 1 6-2-7 2 6 2 6 3 7 3 6 4 7 4 6 5 7 5 5 6 5 7 4 8 3-7-2 9 2 10 0 10 0 12-1 12-1"/>
<path d="M3486 14468l-6 4-6 3 7-4-6 4-5 5 8-9-5 6-5 6 5-7-5 7-4 7-4 7 4-7-3 7-3 7-3 6-2 6 2-8-1 6 0 7 0 5-2-7 2 5 3 4 5 5 5 3 6 3-7-3 6 1 7 0 7-1-8 2 7-2 7-2-7 3 7-3 7-4-7 4 6-4 6-4 5-4 6-4 5-5-6 6 4-5 5-4 3-5-5 6 3-4-4 7 2-4-3 7 2-4 0-3-1 7 0-3 0-3 0-3-1-4 3 7-2-3-2-3-2-3-3-2-4-1-3-7"/>
<path d="M3615 14384l 5-1 5-2 8-1 5-1 4-1 6 0 5-1 6-1 5-1 6-1 5 0 6-1 6-1 5 0 6 0 5 1 5 1 4 1 7 3 4 1 4 2 3 3 2 3 1 4 2 8 1 4-1 5-1 5-2 8-2 5-2 6-2 6-3 6-4 7-3 6-5 6-4 8-5 7-5 8-5 9-5 8 4-7-4 9-4 9-2 8 2-8-2 9-1 8 0 7 1 7 2 7-2-8 2 6 3 5 3 5 4 3 5 3-7-3 5 2 6 0 6-1-8 1 6-2-7 3 6-3 6-3 7-4-7 4 7-4 7-6 8-7 9-7 9-7 8-7 9-6 7-6 7-6 7-6 6-5 6-5 5-4 5-4-6 6 3-4 3-3-5 6 3-3 2-3 5-6 3-3 6-5 3-3 3-2 7-4 4-2 8-3 4-1 5-2-8 3 5-3 6-3-7 4 6-3 7-5 7-4 7-4 8-5 9-5 9-5-7 4 9-6 9-6 9-6 9-6 8-7 8-6 6-5-6 5 6-6 5-5-6 6 4-5-4 7 2-5-3 7 0-4 0 7-1-3 3 7-2-4-4-2-5-2-6-1 8 1-6 0-7-1-8 1-8 1-8 2 8-2-8 2-8 3 7-3-7 4-7 4-7 4-7 5 6-5-6 5 8-8-5 6 4-6-4 6-4 7 3-7-3 8-3 8-3 10 2-8-3 9-2 10-1 10-1 9 1 10 1 10 3 10-2-8 3 9 4 9 5 8 6 8 7 8 9 7 10 6 11 5-7-3 13 3 15 2 16 1"/>
<path d="M4655 14038l-2 3-3 4-3 3 5-6-2 4 3-7-2 5-3 6-2 7-3 9-4 12 2-8-3 14-3 15-2 19-3 20-2 23-1 25-1 25 0 26 1 26 2 25 3 23 4 24 6 22-2-6 7 21 8 20 10 19 10 17 12 15 12 13 13 12 15 9 15 8 16 5-7-2 16 4 16 2 16 1 15-2-8 2 15-4-7 3 14-6 15-8-7 4 15-10 16-11 15-13-6 5 16-15 15-16-5 6 15-18 14-20 14-22-4 6 14-25 11-25-2 5 10-27 8-28 7-28 5-28 0 5 2-28-2-28-4-26-7-27-10-25-12-25 2 4-13-25-15-23-15-22-15-20-16-18-16-14-17-11-18-8-19-6-19-4 6 1-20-2-20-1-20 2-19 4 6-1-18 6-18 9 6-3-17 10 6-3-16 12-15 14-14 15 7-7-12 15 4-6-10 16 4-7-8 17-6 16-4 17 1-8-2 16-2 8"/>
<path d="M5213 14150l-5-1 8 1-5 0-4 1-5 1 7-2-5 2-5 2-6 2 7-3-5 3-6 4-5 4 6-5-6 5-6 6-6 6-6 6-6 6 8-8-5 5-5 6-4 6 5-7-3 6 3-8-2 5 2-7-1 4 1 5-2-8 1 4 4 4 4 3 5 3 6 3 8 3-7-3 7 3 7 2 8 2 9 1 10 2 10 1 10 2 10 1 11 0 11 1 12 1 11 1 11 1 10 0 9 2 8 2 7 3 7 3 6 3 5 4 4 5 2 5 2 7 0 7-1 7-2 8-3 8-4 10-4 7-6 10-7 11-5 6-9 12-10 12-8 8-12 12-13 12-12 12-14 12-13 11-14 11-13 10-6 5-14 9-14 7-7 4-15 5-15 5-14 4-8 1-13 3-13 2-12 1-12-1-8-1-3-7"/>
<path d="M5879 14506l"/>
<path d="M6025 14466l 9-1 8-1-8 1 7-1 6-2"/>
<path d="M6209 14466l"/>
<path d="M728 2210l-7-3 6 2 8 1 9 0 9 1 9 1 10 1 11 1 14 1 14 1 15 0 15 1 16 1 16 0 16 0 15 0 14-1 15 1 14 0 15 1 15 1 15 0 16 0 17 1 17 0 18 0 17 1 16 1 16 1 17 1 16 1 15 1 15 1 13 0 11 0 10 1 10 0 9 0 8 0 6 0 6 1 5 0 5 1 6 3"/>
<path d="M2283 2250l 8-1 8 1 10 1 10 2 12 1 14 0 16 0 18-1 20-1 21-2 22-2 24-1 24-1 24-1 24-2 22-2 21-2 20-2 20-2 20-1 20 0 19-1 20-1 18-1 18 0 17-1 17-1 15 0 16-1 14 0 13 0 10 0 8 0 7 1 6 0 6 2 7 2 2 8"/>
<path d="M3310 2224l 10 0 11-1 11 0 13 0 15-1 18-1 20 0 21-1 24 1 25 1 25 2 24 2 24 1 22 1 21 1 21 1 21 2 21 2 23 1 23 1 23 3 23 3 23 3 23 4 23 3 23 3 22 3 20 4 19 2 18 2 17 1 6 3 2 6"/>
<path d="M4356 2049l 8-2-7 3 7-3-5 4 6-5-5 5 8-8-5 6 5-7-4 7 4-7-3 7 2-8-1 8-1 8 1 8-2-8 3 7 5 6 7 5 8 4-7-2 9 2 9 1 10-2-7 2 11-3 12-3 14-4 15-6-8 3 15-8 15-8-7 4 13-8 12-9 11-8 8-7-6 5 7-7-5 6 5-6-4 6 4-6-3 7 1-7 0 8 0-6-1-6 3 7-3-5-5-4-7-4-9-4-11-4-13-4-14-3 8 2-14-3-15-1-14-1-13 0-12 1-12 1 8-1-11 2-11 4-10 5 7-3-9 5 6-4-8 6-6 7 8-8-5 7 8-13-3 7-2 6 2-8 0 7 2 7-2-7 3 8 6 8 9 9 13 10 17 11 2 8-2 7"/>
<path d="M5298 2245l 7-3 9-2 8-1 10-1 12 0 13 1 16 1 18 2 21 3 23 4 25 4 26 4 25 5 26 6 25 4 26 3 27 2 28 1 28 1 30 2 31 2 33 2 31 2 29 1 27 1 24-1 23 0 21-2 20-1 18-2 19-3 17-3 16-2 15-2 13-1 11-1 10-1 8-1-8 1 7-1 6-2"/>
<path d="M783 2820l 7 5 5 5 6 5 6 7 7 8 9 10 11 12 11 13 10 14 10 15 11 16 12 16 12 15 12 14 13 13 11 14 9 13 8 10 7 7 8 7 7 6 8 6 8 6 7 4"/>
<path d="M943 2907l-6 4 7-4-8 6-7 5-9 7 6-5-9 8-10 10-11 12-12 12-13 13-13 14 8-8-14 16-13 17 5-7-10 14-9 14-9 14-9 16-8 16 3-7-7 15-6 15"/>
<path d="M3589 2801l 6 9 5 9 5 9 6 9 6 9 7 10 9 12 10 11 11 12 11 10 10 11 9 9 10 9 11 8 10 7 11 6 10 6 10 5-7-3 9 3 11 2 10 0 9 0"/>
<path d="M3755 2828l-6 2-7 3 8-3-10 5-11 7-11 7-11 8 6-4-10 9 8-8-11 12-11 14-13 15-12 15 5-6-11 16-11 18-10 19-10 19 4-7-8 18-7 14-7 17-9 20-3 7-5 7-8 8"/>
<path d="M771 6007l-3-3-5-1-5-2-5-1-4-2-4-2-4-2-4-2-5-1-5-2-4-1 7 1-4 0-5 0-6 0-5 0-6-1-8-1-6-1-6-2-5-1-5-2-4-3-3-7-1-1 1-8 3-7 4-7 5-6 6-5 7-4 8-3 8-2 4 1 8 2 8 1 10 0 11 1 11 0 12 1 12 1 12 0 12 1 15 0 18 0 21 0 20-1 17 0 14-1 15-1 15-2 17-1 20 0 24 1 25 2 23 3 21 3 20 2 21 2 23 2 23 1 18 2"/>
<path d="M1444 5899l 7-3 7-3 8-2 8-1 9-2 10-1 12-1 11-1 10 0 12 0 15 0 16-2 15-2 15-1 14-1 15-2 15-3 16-2 17-3 17-2 16-1 18 0 22 0 23-1 22-1 21-1 22-1 21-2 19-1 18-1 17-2 14-1 12-1"/>
<path d="M2239 5953l 2-4 5-7 5-6 6-5 4-4 7-4 6-3 6-3 7-3 7-4 7-3 8-3 8-1 9-1 11-2-8 1 11-2 8-1 12-2 14-2 14-1 15-1 16-1 16-2 18-2 19 0 19-1 19-1 16 0 17-1 19 0 17 0 13 1 14 1 17 1 18 1 17 2 17 3 17 3 7 2"/>
<path d="M3116 6046l 3-7 4-6 5-6 6-5 6-4 8-3 7-1 6-1 9-1 9-1 8-1 9-1 13-1 12 0 11 0 10 1 13 0 13 0 10 0 12-1 16 1 17 0 17 1 18 1 18 1 19 2 18 2 20 1 20 1 22 2 22 2 22-1"/>
<path d="M3972 6069l 4-5 6-5 5-4 7-4 8-4 8-3 8-4 9-2 9-3 13-2 8-2 13-2 14-2 14-2 15-2 17-2 18-1 18 0 19-1 19-1 19-2 18-3 18-2 19-3 19-2 21-2 22-2 23-1 23-1 23 1 24 0 24 1 23 0 22 2"/>
<path d="M4814 6040l 9-2 8-1 9-2 11-1 10 0 9-2-8 2 10-2 8-1 12-2 12-2-8 1 10-2 11-2 14-3 16-3 16-4 17-3 17-4 8-1 17-3 16-2 17-1 22-1 23-1 23-1 23-1 21-1 20-2 20-2"/>
<path d="M5664 6000l 7-1 8-1 8-1 10 0 10 0 10-1 10 0 11-1 11 0 11 1 11 0 12 1 13 0 11 0 10 1 11 1 13 1 14 0 15 1 15 1 14 0 13 0 13 0 14-1 14-1 13-1 11 0"/>
<path d="M6347 6049l 8-2 7-1 9-2 10-1 12-1 11-1 11-1 11 0 13 0 12 0 12 0 14 0 16 0 17 0 18-1 16 0 15-1 14-1 14 0 15 0 15-1 15 0 15-1 17-1 17 0 18-1 18 0 19 0 19 1 20 2 19 1 18 2 17 0 16 0 15 0 14 1 12 0 10 1 8 2 6 1 7 2"/>
<path d="M5672 6641l 9 0 9 3 7 2 9 4 8 5 8 5 8 5 7 6 7 6 8 7 8 7 7 8 6 7 6 6 7 8 8 8 8 9 8 10 9 9 10 10 11 11 12 11 10 10 9 8 7 6 7 5 7 5 7 3"/>
<path d="M5903 6667l-6 1-7 2 7-2-8 4 7-4-9 5-9 5-11 6-11 7-11 7 6-5-12 9-11 10-11 11-9 10 8-9-9 10 5-6-8 11-7 12-8 13-7 14-9 16-8 14 3-7-5 11-4 11-3 7"/>
<path d="M12424 6326l 8-2-5 3 13-8-4 5 12-15-4 6 4-7-3 6-3 7 2-8-1 8-1 8 0 9 1 10 1 11 2 11 3 12 2 10-2-7 4 12 6 17 7 17 6 17 7 18 7 16 8 15 8 15 2 7-2 8"/>
<path d="M13618 7098l-5 4 19-19-3 5 4-7-2 6 2-8-1 7 0 7 0 8 0 9 0 8-1 9 0 12 0 13 0 12 0 11 0 12 0 14 0 15 0 18-1 22-1 21-1 19 0 21-1 26-2 26-2 24-2 23-2 25-2 30-2 37-3 37-3 33-4 35-3 40-3 45-3 42-3 37-2 31-2 28-2 28-3 30-2 31-3 32-3 30-2 30-3 28-2 27-3 26-2 23-1 20-1 18-1 16 0 12 0 10 1 8 0 6 0 5-2 8-3 7-5 7-8 8-7 5"/>
<path d="M18926 6882l 7-3-7 4-8 5-9 5-10 6-10 7-11 8-12 8-13 8-13 8-16 9-16 9-20 10-7 3-20 9-23 8-25 8-26 8-28 10-28 10-28 12 4-2-29 15-30 17-31 18-34 20-37 20-39 21-41 22-41 23-40 23-41 24-43 22-4 2-45 22-48 21-50 22-51 22-50 24 4-2-50 25-49 26-52 26-52 26-53 27-53 26-52 25-3 2-52 24-53 23-54 22-55 22-55 23-53 24-52 23-53 23-54 22-54 22-55 21-53 21-53 21-53 20-54 18-55 17-55 16-53 17-53 16-54 17-55 16-56 16-56 17-55 18-53 19-53 18-53 18-54 18-53 19-50 19-49 18-49 18-49 15-49 14-50 13-49 14-46 13-45 14-45 15-46 14-47 15-49 15-49 16-48 17-48 18-47 19-48 19-49 18-50 17-49 18-48 18-46 19-45 19-45 17-47 16-47 16-46 16-45 17-42 17-41 17-40 17-40 18-41 17-41 16-40 16-39 15-36 16-33 15 3-1-32 15-3 2-32 15-31 13-32 12-33 12-33 11-31 11-30 10-28 9-25 10-22 9-21 10-19 9-17 8-18 8-16 7-16 7-15 6-14 6-12 4-12 3-10 2-10 3-10 2-9 2-8 3-7 2-7 2-6 2-7 2-7 2-7 1-6 1-5 0-6 0-5 0-8-1-4-8 1-7 3-8 5-6"/>
<path d="M13472 8146l 5-6 6-5 6-4 3-1 7-3 8-2 7 3 3 4 2 8 1 7 0 9 0 10-1 10-1 11 0 12 0 13 0 12-1 13 0 13 1 12 1 11 1 14 1 16 2 19 1 18 2 20 2 20 2 21 3 24 2 25 2 25 2 25 1 25 0 26 1 27 1 28 0 29 0 28 2 28 1 28 2 26 1 23 2 20 3 16 4 15 4 17 1 16 2 18 1 16 1 17 1 16 1 16 0 15 0 14 0 14 0 13 0 12 0 12 0 11 0 9 1 9-1 7-1 7 0 6-1 5-1 4-1 4"/>
<path d="M12448 7175l 2 7 1 10-2 12-2 7-3 13 2-8-4 14-3 16-3 17-3 19-3 19-2 21-2 23-2 25-3 26-3 27-3 27-2 28-2 28-3 28-3 29-1 31-2 32 0 33 0 35 0 36-1 38 0 37 0 38 0 37-1 37-1 38-1 38-1 39-2 39-2 39-3 38-3 38-3 37-4 34-3 32-3 31-4 31-4 33-4 33-4 33-5 33-5 32-6 32-6 34-5 32-6 32-4 31-5 30-4 28-4 28-4 28-3 25-2 24-3 23-2 22-2 22-1 22-1 22-1 21-1 20-1 20-1 18 0 17 0 16 1 14 0 14 0 13-1 12 0 10-1 9 0 7 0 6 1 5 0 3-2-7 2 3 2 3 2 7-2 8"/>
<path d="M12269 9172l 2-4 4-6 2-3 5-6 3-3 3-3 4-4 3-3 5-4 4-5 5-5 5-4 6-6 6-4 6-6 7-5 8-7 8-6 9-8 11-8 12-8 14-10 14-9 16-11 15-10 16-11 17-11 16-12 17-12 19-13 21-13 6-4 22-12 24-13 25-12 25-12 27-12 29-13 31-14 33-16 37-19 38-21 36-20 35-18 31-16 31-14 35-16 38-17 43-20 44-21 41-21 38-19 35-16 39-17 43-18 47-21 45-21 42-22 39-21 36-20 36-18 39-19 45-21 49-23 48-23 45-22 41-21 39-19 36-16 36-15 4-1 40-15 45-18-4 2 50-21 50-22 47-22 43-20 40-18 43-18 46-21 48-22 44-22 39-20 36-18 38-18 45-20 47-21 47-20 41-18 35-17 32-17 35-18 41-22 47-25 51-26 50-25 46-25 43-25 40-23 41-23 42-23 43-22 44-21 44-22 42-22 39-22-3 2 37-23 38-24 38-24 40-24 3-2 41-24 41-23 38-23 37-21-4 2 34-21 32-21 32-21 34-20 3-2 35-19 35-20 36-19 35-19 33-20-3 2 31-19 31-21 29-20 30-21 31-20 31-19 4-2 31-18 32-17 31-15 31-14 29-15 28-14 25-15-4 2 23-15 21-14 21-14 21-14 20-15 22-13 21-14 4-2 22-13 21-12 21-12 21-12 19-11 19-12 19-11-5 3 18-11 16-11 14-11 14-11 12-11 11-9 11-9 10-8 9-7 9-6 8-5 7-5 6-5 7-4 7-4 6-4 6-3 7-3 6-3 6-3 7-3 6-2 7-2 6-1 8-2 7 3"/>
<path d="M11244 7130l 4-7-3 6-3 9 2-8-2 12-4 16-3 19-3 19-3 17-1 15-1 14 0 15 0 18-1 22 0 24 0 25-1 26-1 26 0 26-1 27 0 26 1 26 0 26-1 27-1 27-2 28-1 30-2 30-1 31-2 28-1 28-1 28-3 31-2 31-4 33-3 35-5 40-5 46-4 43-4 36-4 31-4 30-4 31-5 32-5 32-5 35-5 35-5 36-5 36-5 35-5 34-6 32-4 31-5 30-4 30-4 30-4 30-3 30-3 29-2 28-2 26-1 25 0 24 0 23-1 20 0 19 0 18 1 18 0 18 1 18-1 19-1 19-1 19-2 19-1 17-2 16-2 14-1 12-2 9-1 8-2 8-3 7-5 6-8 9"/>
<path d="M11037 9064l 3-7 2-4 4-7 3-3 5-6 3-4 4-4 6-5 5-4 6-5 6-5 7-6 8-6 8-6 9-7 10-7 11-7 11-8 11-8 10-8 10-9 11-9 10-8 10-8 10-8 12-8 11-8 13-9 14-8 6-4 15-9 16-9 19-9 20-10 21-10 22-9 22-10 22-10 21-11 21-12-6 3 21-12 21-13 23-13 5-3 25-14 27-14 29-14 30-14 32-13 32-14 33-15 32-14 32-15 31-16 32-16 34-17 35-16 36-16 37-15 36-16 36-17 36-17 36-18 36-18 38-19 39-19 41-19 41-19 41-18 40-19 39-20 39-20 41-21 43-22 48-24 51-26 49-26 42-25 42-25 44-26 44-25 40-22 38-20 37-19 38-19 38-20 38-22 38-22 40-23 44-25 49-27 51-30 49-29-4 2 43-27 41-26 44-28 44-27 4-2 42-25 43-24 45-27 44-26-3 2 40-25 39-26 42-27 40-27 38-24 35-21 3-2 35-21 34-21-3 2 36-22 38-24 41-26 40-24 4-2 35-21 33-20-3 2 34-21 39-24 42-27 41-29 39-28 32-24 29-21 27-18 27-17 4-2 29-17 31-16 31-17 30-16 29-17-3 2 28-17 28-19 27-20 25-18 22-15 20-14 20-14 18-13 16-11 14-9 12-10 13-10 13-10 11-8 7-4 10-5 7-5 6-3 6-2 6-3 8-3"/>
<path d="M11168 9002l-7 4 4-3 3-2 7-4 4-3 5-2 4-2 6-2 5-3 6-3 7-3 7-4 8-3 7-3 9-3 9-4 11-4-8 3 12-5 13-6 15-6 8-3 16-7 18-6 19-6 22-7 23-6 24-7 27-7 26-8 25-7 21-6 18-7 20-7 21-8 22-6 24-6 28-7 34-7 40-9 40-10 38-10 35-10 32-10 31-10 32-10 34-11 34-12 36-12 37-12 36-13 36-13 35-13 35-14 37-13 39-13 40-12 42-11 41-11 39-10 34-9 28-8 27-7 29-7 30-8 33-7 36-9 41-11 47-13 56-16 58-17 57-17 53-16 50-15 47-14 45-14 44-14 44-14 46-15 48-14 47-15 47-15 46-14 44-14 45-15 45-15 49-15 50-15 50-15 49-16 47-17 48-18 49-17 51-18 50-17 49-17 48-18 48-17 49-18 50-18 52-17 51-17 49-17 49-18 47-16 49-17 50-16 51-15 51-16 49-17 47-17 46-18 47-19 48-18 48-17 48-18 47-18 45-19 45-17 46-18 48-17 48-15 49-15 46-16 44-15 43-16 44-17 45-17 46-16 46-17 45-16 43-17 41-16-4 1 40-16 42-17 3-2 43-16 44-17 44-16 43-16 41-15 40-16 40-16 40-15 42-15 43-15 43-14 41-15 40-16-4 1 39-17 38-17 38-17 39-17 41-18 41-17 40-17 38-17 37-17 36-16 35-16 36-15 4-2 36-14 38-13 37-13 36-12 35-12 32-12 31-12 30-12 30-12 30-12 31-12 32-12 33-12 31-12 31-12-4 2 29-12 27-12 25-11 23-11 23-11 22-12 23-10 23-11 23-9 22-10 4-1 21-9 21-8 21-8 19-7 18-6 18-7 16-6 16-6 16-6 15-6 14-5 13-5 14-5 13-4 12-4 13-3 12-3 12-4 12-3 11-2 11-3 10-1 8-2 8-1 8 0 7 1"/>
<path d="M9636 7030l 0 7-1 7 0 9 0 11 0 11 0 12 1 14 2 14 2 17 2 18 2 21 2 25 2 26 0 28 1 27 1 26 2 24 2 23 2 25 2 31 2 33 2 31 2 28 2 24 3 26 3 30 2 33 2 33 2 30 1 26 2 25 2 27 2 27 2 29 1 30 1 30 0 30-1 31-2 31-1 32-3 32-3 32-3 32-3 29-4 28-2 27-3 25-2 24-2 23-2 22-1 21-1 20 0 20 0 19-1 20 0 18-1 18 0 18-1 17 0 17-1 17 0 17-1 16 0 15-1 16-2 15-2 15-2 15-2 15-2 15-3 15-2 15-2 14-2 13-1 12-2 11-1 10-1 10 0 9 0 9 0 9 0 9 1 8 0 8-1 8 0 6 0 7 0 6 0 6 0 6 0 6 0 6 0 7-1 7-1 7-1 7 0 6-1 5-1 5-1 5-1 5-2 8-1 4-2 4-2 4-1 4-2 4-4 7-4 7-8 8-7 5-7 3"/>
<path d="M9538 8988l 5-4 5-4 5-4 7-5 7-6 9-7 10-7 10-7 11-7 12-8 7-4 13-7 14-8 15-8 17-8 18-8 19-9 21-9 21-10 22-11 23-11 23-14-5 3 26-17 30-21 31-21 29-19 29-19 31-20 34-22 37-24 41-26 44-30 44-31 44-28 40-25 35-22 35-22 35-24 37-25 38-27 40-28 42-28 48-31 55-34 3-2 57-34-3 2 54-34 51-34 49-35 49-34 50-35 52-34 52-33 51-31 50-31 49-32 50-30 50-31 51-31 49-31 47-33 45-32 43-31 44-29 45-28 3-2 46-27-4 2 45-27 43-27 41-28 38-27 36-26 37-26 37-25 37-23 4-2 36-22 36-20 33-17 31-17 28-15 24-15-3 2 23-14 21-13 4-2 20-13 20-11 20-10 18-10 17-10-5 3 16-9 13-8 6-4 13-8 13-7 12-7 12-7 11-6 10-6 9-4 8-5-7 4"/>
<path d="M8532 7210l-4 2 25-23-2 5 6-15 0 6 1 8 2 8 2 7-2-8 2 8 3 8 3 9 2 8 4 11 3 13 3 13 4 13 3 16 4 16 4 19 3 21 3 23 2 25 2 28 1 30-1 32-1 33 0 33 0 34 0 36-1 39-1 42-2 44-3 43-3 45-4 44-5 47-4 48-6 50-5 50-6 49-9 48-9 47-11 46-11 47-11 47-11 45-2 4-10 44-12 41-13 39-12 40-11 40-11 39-11 40-9 38 1-4-10 37-8 35-1 4-9 34 1-4-8 34-8 32-7 32-7 30-6 29-5 28-4 25-3 24-3 23-2 21-1 20 1 19 2 16 2 14 3 13 3 12 3 12-2-7 3 10 5 9 4 8 6 7 2 8"/>
<path d="M8357 9210l 9-15 13-18 5-6 19-20 6-5 24-20-5 4 30-22 29-25 28-26 28-29 30-29 32-29 3-3 34-29 34-26 34-25 33-23 4-2 3-1 4-1 4 2 1 3-1 4-2 4-2 3-4 4"/>
<path d="M8374 9329l 4-12 3-7 8-14 4-7 13-16 5-6 18-17 6-5 20-17 22-17 23-16 24-18 25-19 25-20 28-21 30-22 32-21 33-20 4-2 34-20 35-19 33-18 31-18 28-16"/>
<path d="M8438 9345l 1-9 3-7 6-10 4-7 5-6 10-10 6-5 13-12 16-13 19-14 20-15 22-16 25-17 6-3 27-16 32-16 35-17 36-19 37-19 35-19 33-16"/>
<path d="M8468 9337l 1-8 3-6 4-7 4-5 5-6 6-6 10-7 7-4 14-9 19-10 21-12 26-13 32-13 39-14 4-1 44-17 49-19-4 2 51-21 51-23 52-24 56-25 60-25"/>
<path d="M1732 2128l 13-8-4 4-5 5 8-8-4 5 5-6-3 5 4-7-2 5 2-8-1 5 0 4 2 4-2-7 1 4 3 5 3 4 4 3 5 3 5 2-7-3 5 1 6 0 7 0 7-1-8 1 8-2 9-2 10-4-8 3 9-4-7 4 8-6 6-6-6 6 5-6-9 13 3-7-3 7 3-6 2-6 1-6-1 8 0-6-1-6-2-6 3 7-3-4-5-3-6-2-7-2 8 2-6-1-7-1-7 0-7 2 8-2-7 2 7-3-6 3-7 4-5 3-5 4 6-5-4 4 8-8-5 6 5-7-3 6 3-7-2 7 2-8-2 6 1 5-2-7 1 5 3 4 3 3-7-3 4 0-15 4 4-2-7 4 5-3-11 11 4-5 3-5 4-5 5-6 4-5 4-4 6-5 7-4"/>
<path d="M1696 2812l 6 6 6 7 7 7 8 8 8 8 9 7 10 8 11 9 11 10 11 10 12 11 12 10 12 11 13 10 12 9 11 9 10 8 11 8 10 6 10 5 9 4-7-3 7 3 7 0"/>
<path d="M1848 2833l 14-5-9 5 6-4-10 7-11 9-13 10-14 11-14 11-13 12-14 14 8-8-13 14-13 15-13 16-12 15 5-6-11 16-10 17-10 16-9 16-8 15 4-7-7 16-4 7"/>
<path d="M4563 2748l 6 0 7 2 7 2 8 6 9 7 9 8 8 8 8 10 9 11 11 10 11 9 11 10 11 9 12 10 12 11 12 10 12 11 12 9 11 8 10 6 10 7"/>
<path d="M4722 2829l-9 4 7-3-9 5 6-4-9 8-10 10-12 12-11 12 8-8-12 13-12 16 4-6-12 18-13 20-12 21 4-7-12 22-11 23-11 23-11 24-11 23-10 22-9 21-7 21-3 5"/>
<path d="M2438 5375l 5 1 7 3 6 2 6 3 7 3 6 3 8 3 7 3 8 4 8 4 6 4 5 4 5 4 4 3 3 4 4 3 2 4 2 7 0 2-2 8-4 7-5 7-7 8-7 4-7 4-8 2-2 0-8-2-5-1-5-2-5-3-5-1-5-2 8 1-5 0-6 1 8-1-6 2 7-3-6 3 6-5-5 5 8-8-5 5-4 4-8 9-3 4-4 3 8-8-2 3 4-6-2 4 4-7-2 4-2 5-2 5-2 4-1 5 2-8-1 6 1 5-2-8 3 5 4 3 5 2-7-2 6 0 8 0 9-1-8 1 9-2 10-3-8 3 9-4 7-4-6 4 6-4 6-4 5-5 6-5 5-4 5-4 5-4 4-4-11 11 4-4-8 14 2-5-1 8-2-4 4 7-4-3-4-2-6-1 8 1-5-1-7 0-7 1-7 0-8 2 8-2-7 2-6 3-6 2-6 3-5 2 7-4-4 3 7-5-4 3 13-14-3 4 4-8-2 5-2 4-2 5 2-8 0 4 0 5-2-8 2 5 3 5 3 4 5 3 6 3 7 3-7-3 7 3 6 2"/>
<path d="M4182 5529l-8 8-6 4-7 4-5 2-8 1-7 1-7 0-6 1 8-2-5 1-5 2 7-3-5 3 6-4-5 4 8-8-5 6 5-7-4 7 4-8-3 7-3 7-3 7 2-8-1 8-1 8 1 7 1 6-2-7 3 5 4 5 4 4 4 4 6 3-7-3 7 1 7 0 8-1-8 2 8-2 9-3-8 3 9-4 7-4-7 4 6-5-6 6 5-5 5-6-5 6 4-5-4 6 3-6 4-7-3 7 2-7 1-6 0 8-1-6 3 7-3-5-4-5-4-4-6-3-6-2-5-2 7 2-6-1-7 0-8 0-7 1-7 2 8-2-6 2-5 3 7-4-5 3 7-4-4 3 8-8-4 5 5-7-4 5 4-7-3 6-1 7 2-8 0 7-2-8 5 6 6 6"/>
<path d="M6620 5649l-7 1-7 0 8-1-7 1 7-3-6 3 7-4-5 4-3 3-4 3-4 4 8-8-3 4 8-14-1 4 0-15 3 2-7-2 7 0 10-1-8 2 11-2 11-4-7 3 10-5 9-5 9-4 9-5 10-5-7 4 9-6 8-6 8-7 7-5 5-4-18 25 1-4 3 15-2-3-4-2-5-1 8 2-5-1-7 0-7 1-7 1 7-1-7 2-6 3-6 2-3 2-4 1-7 2-8-1-3-7 0-8 3-7 5-7"/>
<path d="M827 6675l-6-1 16 0-5 1 32-38 1 6-2-8 4 8 6 10 7 10 9 12 9 12 9 15 10 15 10 17 10 16 9 16 9 15 8 14 8 12 7 12 7 11 8 12 7 11 8 10 7 11 7 11 8 11 7 10 5 8 3 8-2 7-4 8-5 6"/>
<path d="M1032 6657l 8 1-5 0 7-2-5 2 8-4-5 3-6 4 6-4-6 5 8-8-6 7 5-6-7 9-4 6-8 11-10 10-10 12 5-7-10 14-10 15-11 18-11 19-13 22-13 24-15 24-13 21-13 21-13 22-15 22-15 21-3 5-6 6"/>
<path d="M2317 6666l-3-7 0-8 4-7 4-6 5-6 6-5 7-4 7-3 8-2 5 1 7 2 9 3 7 3 8 4 9 5 8 7 9 7 10 8 9 7 10 9 11 9 11 11 12 12 11 10 11 11 11 11 10 11"/>
<path d="M2560 6664l-7 3-8 3 7-3-9 4-9 5-9 6-10 6-10 6-11 7-11 7 6-4-10 8-11 10 8-8-10 12 5-7-9 14-9 16-9 18 3-7-9 18-9 20-8 19-7 19-5 15-4 8"/>
<path d="M4200 6678l 15 0-4 1 29-29-1 5 2-8 1 8 2 9-2-8 3 9 5 8 6 9 5 8 4 7 5 8 8 10 8 11 8 11 8 10 7 8 7 6 8 6 9 8 12 8 13 9 12 7 11 6 12 5-7-2 12 4 7 3 2 7-2 8"/>
<path d="M4385 6656l 8 1-9 0-8 0-9 1 8-2-9 3-9 3-9 5 7-4-10 6-10 7 6-4-10 8-11 11 8-9-10 12-11 14 5-7-10 16-11 17-9 18 3-7-9 19-9 18-9 18-8 16-7 16-7 17-7 18"/>
<path d="M6741 6601l 5 3 6 4 6 5 7 6 6 6 7 7 7 6 8 7 9 6 10 8 12 7 11 7 11 7 10 7 9 7 8 5 8 5 8 5 8 5 9 6 8 6 6 5"/>
<path d="M6934 6629l-5 4-7 4-7 3-8 5 7-4-9 7-10 8-12 9-6 4-12 9-14 9-15 10 7-4-16 11-15 12-12 11-12 12 8-8-13 14-14 16-13 18-14 18 5-6-14 18"/>
<path d="M8718 1257l-2 10-2 8-3 11 2-8-3 12-3 11-2 13-2 14-2 15-1 15-2 15-1 17-1 17-2 17-1 16-2 14-1 13-1 13-1 14-2 14-1 13-2 14-2 13-1 13-1 11-1 11-1 11-1 9-1 9 0 7 1 7-1 8-4 7-5 7"/>
<path d="M9494 1255l 4-6 5-6 4-4 6-6 5-3 7-4 7-4 7-3 8-3 7-3 9-2 8-1 10-2 11-1 13-1 14 0 14 1 14 1 16 1 16 1 17 1 16 2 17 3 15 3 15 5 14 5 7 3 13 5 11 6 9 6 7 8 4 8 2 7 2 10-1 10-2 8-4 12-6 14-4 7-9 16-12 16-4 7-15 16-8 8-17 17-18 16-20 16-21 16-21 16-20 15-18 16-18 14-16 14-15 13-14 12-13 11-13 10-11 8-11 8-6 4-9 7-8 5 14-13-4 4 9-29 1 4 6 4-7-3 9 2 10 2 12 1 13 0 13 0 13 0 15-1 17-1 18-2 19-1 20-1 21-2 22-2 23-1 23 0 24 0 23-1 6 3 2 6"/>
<path d="M9643 2453l-2-4 3 7-2-1 45-30-2 4-2 7 2-7-1 7-2 8-1 8 0 8 0 10 0 10 0 11 1 11 1 12 1 12 0 12 0 13 0 14-1 14-1 16-1 16-1 16-2 15-1 15-3 14-2 13-2 14-1 12-2 11-2 9-1 8-2 9 0 8-1 6-2 8-3 7-5 7-8 8"/>
<path d="M10763 1311l 5-5 6-4 7-4 7-4 6-3 8-3 7-3 8-3 9-2 9-2 8-1 10-2 11-1 11-1 11 0 11 0 12 1 12 1 11 2 11 1 10 2 11 3 10 3 7 3 9 4 9 4 8 5 6 5 5 7 2 8 3 7 0 9-1 8-2 8-4 8-3 7-5 8-5 8-5 7-7 8-8 8-7 8-7 6-6 7-6 6-7 7-8 7-7 4-8 6-6 4 14-13-3 3 8-29 2 4 6 2-7-2 7 2 8 2 8 2 8 2 10 3 10 3 11 2 12 3 12 2 12 4 12 3 12 3 12 3 12 4 12 5 7 2 12 5 11 6 10 5 9 6 7 6 7 8 4 7 2 7 2 7 1 7-1 8-2 7-3 8-4 8-3 7-7 9-4 6-8 9-8 8-10 8-7 5-11 8-13 9-13 8-14 8-14 8-7 3-14 6-14 5-15 4-8 2-14 2-14 2-13 0-12-1-12-1-8-2-11-2-10-3-8-5-8-5-6-5-6-6-3-7 1-8 3-7"/>
<path d="M12195 1197l-5 6-5 7-5 7-5 6-8 9-6 6 8-8-6 6-6 7-6 8-6 7-6 8-6 8 5-6-6 8-6 9 4-7-5 9-4 9-3 9-3 10 2-8-2 9-1 9 1 9 2 8-2-8 4 7 5 7 6 6 8 5 10 5 10 5-7-3 13 4 13 4 14 4 15 3 15 1 16 1 17-1 17 0 18-1 18-1 20-2 20-2 20-3-8 1 20-3 21-5 20-5 20-5 20-5 8-1"/>
<path d="M12389 1293l 8-8-6 7 5-7-5 10 4-7-5 12-6 14-5 17-5 17 2-8-4 18-3 18-2 18-2 18 0 18 0 17 1 16 2 15 3 15 3 14-2-7 5 14 6 15 6 14 2 7"/>
<path d="M13445 1262l-5-3-6-2-8-2-8-2-9-2 8 2-9-1-9-1-9-1-8-1-9-2-9-1-9-2 7 1-9-1-9 0-8 0-9 1-7 1 7-2-7 3-6 3 7-4-6 4 6-5-5 4-4 5 12-15-3 6 4-8-2 7 2-8 1 8-2-8 3 8 6 9 8 10 10 10 12 10 14 12 15 12 16 13 17 14 18 14 17 14 17 15 15 15 14 14 13 14 12 13 11 13 9 13 8 13 7 12 6 12 4 12 2 7 3 13 1 12 1 11-2 10-2 8-2 10-4 10-5 10-4 7-6 10-4 6-8 9-8 8-8 8-7 4-10 7-7 3-12 6-13 4-8 2-14 3-15 1-15-1-7-1-15-2-14-4-13-6-12-7-11-9-9-10-8-10-5-11-3-7-4-12-2-14 0-13 1-8 1-14 4-14 6-15 3-7 8-16 4-7 11-16 14-17 5-6 16-17 17-17 18-17 20-17 5-5 20-17 21-17 20-18 21-18"/>
<path d="M14409 1165l 8-1 8-1 9-1 11-1 11-2 12-1 13-1 15-2-8 1 14-2 13-4 13-4 14-5 13-4 13-5"/>
<path d="M14519 1193l-5 4-5 3 6-4-4 4 8-8-5 6 5-7-4 8-5 8-5 9-5 9 3-7-4 10-4 9-4 10-3 10 2-8-2 10-2 10-1 10-1 10-1 9 0 9 1 8-2-8 3 8 3 7 5 6 7 4-7-3 7 3 9 1 8-1-8 2 10-2 10-3 10-3 11-4 11-4 12-3 13-3 14-4 15-5 16-4 16-3 8-1 17-3 17-1 16-2 17 0 17 1 15 1 15 2 13 3 10 3 7 2 10 4 8 5 6 6 4 6 3 7 2 7 0 8-2 7-2 8-3 9-4 7-6 9-4 7-9 10-8 8-12 11-15 12-6 5-17 11-17 11-19 9-7 3-19 9-19 7-19 8-19 6-16 6-16 5-14 4-13 3-7 2-12 3-11 1-10 1-10 0-9-1-8-1-9-2-7-3-7-5-5-6-4-6-3-7"/>
<path d="M15685 1190l-3 7-2 7-3 9-3 8-4 9-3 9-4 10-3 11-5 13-4 13-4 15-4 17 2-8-4 18-4 17-3 17-4 17-2 8-5 17-5 17-6 17-5 16-4 14 2-8-2 12-1 11-1 8 1 7"/>
<path d="M15868 1285l-5 9-5 9 3-7-5 11-5 12-4 12-4 13-3 13 2-8-3 13-2 13-1 12 1 13 3 11-3-7 4 10 5 9 6 9 7 8 7 9 8 7 9 5-7-3 10 3 11 1 12-1 12-2-8 2 12-4 13-4-8 3 14-6 13-6 14-8-7 5 13-8 13-9 12-9 11-8-6 5 9-9-5 6 7-10-4 7 6-10 5-10-3 7 3-10 1-11-1 8-1-11-3-12-5-12-6-12 4 7-7-11-7-10-9-9-9-8-10-8-12-6-11-5-12-5-12-3-11-2 8 1-12 0-11 0-11 2-10 2 8-2-10 2-8 3-7 3 7-3-6 4"/>
<path d="M16941 1104l-5 5-7 7 8-8-6 8 5-7-7 10-6 10-7 11-6 11 4-7-7 13-5 14-6 17-6 17-5 18-5 19 2-8-5 20-4 22-3 22-3 23 0 23 0 21 3 19 5 17-2-6 6 16 7 14 8 13 10 12 11 10 11 8 13 8 12 5-7-2 14 4 15 4 16 2 17 2 16 1 15-1 14 0 13-2-8 1 12-2 10-3-7 3 9-4-7 4 6-4-11 11 4-5-8 14 1-7 0 8-2-9-4-8 4 7-7-9-9-8-11-9-13-8-15-8-15-7-17-7-16-6-16-4-16-3 8 2-14-2-14-1-13 0-11 0-11 2-9 2 7-2-8 2-7 3 7-4-6 3 6-4-5 4-4 3-6 5"/>
<path d="M17917 1206l-3-8-3-9-4-8-4-8 4 7-5-8-5-7-6-6-6-4-6-4-6-2-8-2 8 1-7-1-7 0-8 1 8-1-8 2-8 3-9 4-9 4 7-4-10 6-11 6-10 7 6-5-9 8-9 8-9 9 8-8-8 9-7 10 4-7-6 10-5 9 4-7-4 8 2-8-2 8 0 8 2 8-2-8 4 8 7 7 10 5-7-3 12 4 13 4 14 2 15 1 15-1 16-1 15-2-8 1 16-3 16-5 15-5 15-4 13-5 13-5-8 3 11-5 8-3 10-4 9-3 8-1 8-2 4 1 7 3 2 7-1 3-2 8-3 7-5 6-3 4-4 5-5 5 5-7-4 7-4 7 4-8-4 8-2 7-3 9-3 10 2-8-2 10-2 12-1 11 0 13-1 13 0 13 0 13 0 12 1 12 1 12 1 12 2 12 1 12 2 10"/>
<path d="M18955 1154l 8 0 10 1 10-1 11-1 11-2 12-1 13-1 13-1 14-2 15-2 15-1 15-1 13 0 14 1 12 0 13-1 12-1 11 1 10 0 10 1 9 0 9 0 9 0 8 0 9 0 8 0 8 1 8 1 7 1 7 2 7 2 7 2 6 4 4 5 2 8 1 7-1 7-2 8-3 8-4 9-4 9-4 7-6 10-6 11-7 11-7 11-7 12-7 12-7 14 3-8-7 15-7 15-7 15-7 15-6 15-6 14-5 15-6 14-5 14-5 14-4 12-4 12-3 10-3 10-3 9-3 8-2 7-2 6 2-8 0 5-1 6 0 5"/>
<path d="M11056 2480l-4 5 9-13-3 6-3 8-3 8-2 9 2-8-2 10-2 11-2 8-2 10 2-8-3 11-2 12-1 12-2 12-2 13-2 13-1 13-1 14-1 13-1 13-2 14-2 13-1 15-2 14-2 14-1 12-2 11-1 11-1 12-1 12 0 11 0 9 1 9 2 10-2 7-4 7"/>
<path d="M12265 2478l-4 7-4 9-5 9-6 9-6 10-7 11-4 6-8 10-8 12-9 11-9 13-9 12 5-6-9 13-9 12-8 12-9 12-7 11-6 10-6 10-5 9-5 8-4 6-4 7 4-7-3 7 2-8-2 7 0 6-2-8 2 6 3 5 7 3-7-2 7 1 8-1 8-1 9-2 9-1-8 1 11-2 12-2 12-3 13-2 12-2 13-3 13-4 13-4 15-6 15-5 16-4 17-3 16-4 16-4 15-6 15-5 16-4 15-3 15-4 14-4 13-4 12-4 11-4 8-2 7 3"/>
<path d="M12374 2472l 4-6-2 5-3 5 4-7-3 8-3 10-3 11-3 12 2-8-3 13-3 13-3 16-2 16-2 19-1 20-1 20-1 20-1 21-1 22-1 21-1 21 0 19 0 19 0 18 1 17 2 16 1 16 2 15 1 15 2 13 2 13 1 11 2 8 1 7 2 7"/>
<path d="M13521 2467l-2 8-1 8-2 6 2-8-2 7 0 8-1 9 0 10 1 9 0 10 0 10-2 13-1 14-1 16-1 17-2 17-1 16-2 17-1 18-2 19-2 17-1 16-2 14 0 14-1 13 0 10 0 8 1 8 1 6 1 6-2-7 4 5 5 3 6 4 2 7-2 8-4 7"/>
<path d="M14567 2450l 6-5 4-4 6-4 6-3 8-3 7-2 8-1 7-2 8 1 9 1 8 0 11 0 11 0 13 1 14 1 15 0 16-2 17-2 18-2 19-1 18-3 16-2-8 1 15-3"/>
<path d="M14688 2451l-8 3-8 4 8-4-9 5-9 6 7-5-9 6-9 8-9 8-8 7-7 8 8-8-7 7-7 7-6 9 5-7-6 9-5 10 4-7-5 9-4 9-4 10-2 9-3 9 2-8-1 8-2 8-1 8-1 7 1 6-3-7 3 6 4 5-6-3 6 2 8 1-8 1 8-1 8-3 9-3 10-3 11-4-7 3 12-5 12-5 14-6 7-3 15-5 15-4 15-3 16-3 15-3 8-1 15-3 15-2 13-2 13-1 11 0 11 0 9-1 9 0 7 0 8 1 6 2 7 3 6 4 5 7 3 8 2 7 2 8 0 8-2 9-2 8-3 10-4 12-6 13-4 7-7 14-10 14-4 6-12 14-8 9-14 13-15 14-18 13-6 5-18 11-7 3-19 9-20 8-19 8-18 8-18 7-17 5-16 5-13 4-13 5-12 4-11 4-10 3-10 2-8 2-9 2-8 1-8 0-7-1-7-1-6-4-5-5-3-7-4-7"/>
<path d="M15688 2526l 3-6 5-6 5-5 6-5 5-4 7-4 6-3 8-3 8-2 8-1 9-1 10 0 11-1 11-1 12 0 13-1 12 0 13-2 12-1 11-1 12-1 11 0 11 0 11-1 10 1 10 3 7 3 9 5 7 4 7 4 6 5 6 5 4 7 4 7 3 9 2 7 1 10-1 11-3 11-2 8-4 12-5 12-6 13-4 7-7 15-10 15-10 15-11 16-11 16-5 6-12 15-12 13-8 9-12 13-12 12-14 11-7 5-15 10-16 9-17 9-17 9-16 8-7 4-16 8-15 6-13 6-11 5-10 5-9 3-7 2-5 1-8 2-1 0-8-1-4-7 1-8 3-7 5-7 5-6 6-5 7-4 7-3 4-1 6-3 9-3 9-3 9-3 10-3 12-2 8-1 12-2 14-3 13-1 14-2 14-1 14-2 14-2 13-1 12-1 11-1 12-2-8 2 11-2 8-2 12-2 11-1 10-1 10-1 9-2 10-1 10-2 10-1 10-1 9-1 9-2"/>
<path d="M17025 2425l 6-3 7-2 8-2 8-1 8-2 8-1 10-1 9-1 9 0 9 1 8 2 8 2 7 2 7 3 7 4 7 5 6 6 7 5 5 5 4 6 4 7 2 7 1 7 1 7-1 7-2 7-2 7-4 7-3 7-5 6-5 7-8 8-7 6-8 6-6 5-9 6-10 5-7 4-10 5-12 4-13 5-14 5-13 3-13 4-11 4-11 4-9 4-8 3-6 3 7-4-2 1 8-43 3-1 7-1 9-3 9-2 8-2 10-2 11 0 12 0 12 0 13 2 13 1 12 2 12 2 12 2 12 3 11 2 10 3 9 3 9 4 9 3 9 3 7 3 9 4 8 4 9 5 8 5 8 6 7 6 8 6 6 6 7 6 6 7 7 6 5 7 4 7 3 8 2 8 2 8-1 9-2 8-2 9-4 8-4 7-5 10-6 9-5 7-7 9-8 9-8 8-10 8-7 5-11 6-12 7-13 6-7 4-13 6-16 6-16 5-18 4-8 2-18 4-19 2-20 1-19 0-19-1-18-1-17-1-16-2-8-2-15-3-13-3-12-3-10-3-8-5-6-5-6-5-3-5-4-7-2-6 0-7 1-8 1-7 3-7 4-6 5-6 6-6 7-4"/>
<path d="M18175 2326l 0 7 0 6-2 8-2 10-1 11-2 12-3 11-2 13-2 15-2 14-2 13-2 13-2 14-2 14-2 14-3 12-2 12-2 13-2 14-2 15-2 15-1 14-2 13-1 13 0 13 0 15 0 14 0 14 0 12 0 12 0 11 0 10 0 9 1 8 0 7 1 7 1 6-2 8"/>
<path d="M19244 2284l 4 6 2 7 2 7 0 8-1 9-1 10-1 11-2 11-2 12-3 13-3 16-3 16-2 14-3 13-2 13-2 14-1 15-1 15-1 14-1 13 0 14 0 14 0 15 0 15 1 14 1 14 1 13 1 14 2 12 2 11 2 11 2 12 2 12 2 11-2 8"/>
<path d="M8622 2436l 2-8 0 8 0 10-1 9-1 10-1 10-1 9-1 10 0 9-1 9 0 9-1 10-1 10-1 10 0 12-1 13 0 15-1 15-2 17-1 17-2 19-2 21-2 22-3 20-1 19-2 17-2 17-2 16-1 15-1 14-1 13 0 12 0 10-1 9 0 9 0 7-2 7-3 8-5 6"/>
<path d="M8739 4528l-8 1 11-2 11-3 13-2 13-3 14-3 15-4 15-4 16-4 15-5 16-4 19-3 19-4 15-6-8 3 13-6 12-6 8-3 8-2"/>
<path d="M8787 4600l-8 3-7 3-7 2-6 3 7-4-5 3 6-5-4 4 7-8-4 5 5-6-4 6 4-7-4 8-3 10-3 9-2 8 2-8-2 8 0 7-1 7 0 8-1 8 0 7 0 7 0 7 2 7-2-8 2 7 3 5 5 5 6 2-7-3 8 2 9 1 8-1 9-1-8 1 9-2 9-4 11-4 12-4-8 3 12-5 13-6 13-6 13-6 12-6 12-5 7-3 11-4 11-4 12-3 8-1 11-1 10 0 9 1 8 1 6 3 7 3 5 4 2 8 2 7-1 9-2 8-3 11-4 7-6 11-8 11-4 7-9 11-9 11-11 11-8 9-11 10-12 11-13 9-6 5-13 9-14 9-15 8-7 3-15 8-15 6-16 7-16 5-16 5-7 1-16 3-14 2-13 0-12 0-10-1-8-1-9-2-7-1-6-3-4-4-3-7-2-4 1-8"/>
<path d="M9673 4506l-1 8-2 8-3 9-2 8-3 10-3 10-4 11-3 12-5 12-5 13-6 12-6 13-5 14-5 13-5 12-5 11-5 12-3 12 2-8-3 13-2 12-1 10 0 9-2-8 2 7 5 4 2 7-2 8"/>
<path d="M9845 4547l-4 5-4 6 5-6-4 6 4-7-4 8-4 8-3 10-3 10 2-8-3 10-1 10 0 9 1 10-2-8 3 10 5 9 6 10 8 9 10 7 10 6 11 5-7-3 11 4 11 4 11 2 11 2 12 0 12-1 13-1 13-2-8 1 13-3 13-3 13-5 12-5-7 3 11-4 10-6-7 4 9-7-6 5 8-8-6 6 7-9-4 7 4-10-3 7 3-10 1-11-1 7 0-11-3-12-5-12 3 7-8-11-10-12-12-11-13-10-14-7-14-6-14-4 8 2-15-2-15 1-14 4 8-2-15 5-14 6 7-3-14 8-13 8-12 8 6-4-11 9-11 11 8-8-9 10-9 11-7 9 5-7-5 9 4-7-4 9 2-8 0 9 1 10"/>
<path d="M10970 4430l-6 2 7-3-6 3 7-5-6 5-4 5 8-9-5 6-5 6-6 7-6 8 5-7-7 10-6 11-7 12-9 14-9 16-10 16-11 17-11 18-10 17-9 17 3-7-8 16-6 16-5 13-3 12 2-8-2 10 1 8-3-7 3 7 4 6 5 5 7 5-6-3 8 3 11 2 11 2 12 0 15-2-8 2 15-3 16-3 16-4 18-3 17-5 18-4 19-4 18-4 18-4 19-4 17-4 17-6-8 3 16-6 14-7 14-5 12-5 11-6-7 4 10-7 10-7-6 5 9-8 6-6 6-4 8-3 8-1"/>
<path d="M11055 4560l-5 4 8-8-3 4 4-6-2 5-3 5 3-7-2 7-3 7-3 9 2-8-1 10-2 11-1 12-1 13 0 13 0 13 0 13 0 13 1 13 0 15 2 16 1 16 2 16 3 17 2 16 3 16-2 8-4 7"/>
<path d="M12310 4483l-3-6 3 7-4-6-4-5-4-6-6-5-7-5-7-4-8-4-10-2-10-2 8 1-11 0-11 0-12 1-12 2 7-2-12 3-13 5-13 5-13 5-12 6-12 5 7-3-11 6-9 7 6-5-7 7 8-8-6 8 8-14-4 8-3 10 2-8-1 10 2 11-2-8 3 11 6 11 7 10 8 10 9 10 10 9 11 11 12 10 11 10 12 10 11 10 12 10 11 11 10 11 10 11 8 11 8 11 6 11 4 10 2 8 3 10 1 9 1 9-2 8-3 8-4 7-4 7-5 6-8 9-6 6-7 4-7 5-7 3-8 2-7 2-9 1-8-1-8-1-9-1-8-3-8-3-8-5-8-5-7-6-6-7-6-9-3-7-5-10-4-11-3-10-2-11 0-12 0-12 1-8 2-13 4-14 5-13 3-7 7-13 8-13 5-7 9-14 11-16 11-16 13-15 5-6 14-15 16-14 6-5 17-15 19-14 21-14 6-4"/>
<path d="M13436 4390l 6-2 7-3 7-3-8 3 6-3 7-3 7-3 7-3 8-3 9-3 8-3 10-2 9-3 8-2 8-1 8-2 8-1 8-1 8 0 9 0 8 2 9 1 8 2 9 2 7 3 9 4 7 5 5 7 2 8 2 7-1 8-2 8-3 7-4 8-5 6-5 7-8 8-6 7-9 7-10 8-10 8-7 4-11 9-13 8-13 8-14 9-15 7-7 4-16 7-15 6-15 6-14 5-13 5-12 4-11 4-8 3 7-3-3 2 16-45 3 1 8 0 9 0 10 0 10 0 11 0 11 0 11-1 12 0 13 1 12 0 11 0 12 0 12 0 12 1 12 1 12 2 11 1 11 2 12 2 11 2 10 3 10 4 7 2 8 5 8 5 7 6 5 7 4 8 2 8 2 8 0 7-2 8-2 8-3 8-4 9-4 7-6 10-5 6-8 8-9 10-10 9-11 9-6 4-12 9-13 8-13 6-7 4-13 6 7-3-13 6-13 7-13 7-13 7-8 4-14 5-14 5-7 1-14 3-14 2-13 2-13 0-13 0-14 0-13 0-11 1-10 0-10 1-8-2-4-7 1-8"/>
<path d="M14600 4387l 8-8-6 6-5 7 5-6-6 9-6 10 4-7-6 12-7 13-7 16-5 16-5 18 2-8-4 19-3 19-1 18-1 18 0 18 1 17 2 16 3 15 4 14-2-7 4 13 6 11 6 9 7 8 8 6 8 6 9 4-7-3 9 4 11 3 12 2 12 0 14 0 13-1 12-2-8 1 12-3 12-3 12-3 11-4-7 3 10-5-7 4 8-6 7-5-11 11 4-6-4 7 2-6-3 7 1-8-1 8-1-9-3-8 4 7-5-8-6-7-8-7-9-6-10-4-11-3 8 1-12-1-13-1-15 1-14 2 7-2-15 3-15 6-14 5-15 6-13 6 7-4-13 7-12 7-11 8 6-5-10 8-10 7-9 7-8 7 8-8-6 6-5 7 5-7-4 6-5 7-8 8"/>
<path d="M8666 6287l 1 8 0 7 0 10 0 11 0 13 0 15-1 17-1 20-1 21-1 23-1 24-2 25-2 25-2 25-3 25-2 25-2 23-2 21-1 21-2 19 0 18-1 15 0 11-2 7-4 7"/>
<path d="M9579 6273l 5-4 7-4 6-4 7-2 7-3 8-3 9-4 10-3 11-3 12-2 8-2 14-2 13-2 14-1 15-1 14 0 15 1 13 2 12 2 11 4 12 4 7 3 12 5 11 5 8 5 6 4 4 5 2 5 2 7 2 6 0 6-1 8-2 7-4 11-6 11-4 7-8 13-4 6-10 14-14 14-8 9-15 15-17 16-18 15-16 13-18 15-23 17-5 4-23 16-22 15-20 14 4-3-18 14-16 14-15 13-12 12 6-5-9 10-7 9-8 7-9 10-10 9-8 7 8-9-5 6 8-13-1 5-1-15 4 5 8 3-7-3 9 1 11-1-8 2 11-2 12-3 15-5 20-6 23-7 25-5 7-1 28-5-6 1 36-6 37-7"/>
<path d="M11040 6308l 5-4 7-4 6-4 6-3 8-4 7-3 9-3 9-2 8-1 9-2 11-2 11-1 12-2 13-2 13-1 14 0 13 0 12 1 10 1 10 2 9 1 9 2 8 2 7 3 6 3 5 4 3 6 2 8 0 7-2 8-3 8-4 7-5 8-4 6-7 8-7 8-8 7-8 7-9 6-7 5-10 7-10 6-10 5-7 4-10 4-9 4-8 4 7-4-6 4 19-20-2 3 4-22 4 2-7-2 8 2 9 2 9 2 9 2 10 1 9 1 9 1 9 1 9 0 8 1 9 2 10 2 10 2 9 4 7 2 7 5 6 6 4 7 2 7 2 8 1 7-2 7-2 8-3 8-4 7-5 8-8 11-5 7-10 12-11 13-8 8-12 12-13 11-15 11-7 5-15 10-16 8-7 3-16 6-18 5-8 2-18 4-15 3-13 2-12 2-11 0-11-1-11-1-8-2-11-2-8-3-6-3-6-4-3-7 1-8 3-8"/>
<path d="M12424 6165l 1 7 0 8-1 7-2 8-3 8-4 9-4 7-5 8-7 10-5 6-7 10-8 11-10 11-8 8-10 11-10 10-11 12 8-9-10 12-10 12-9 11-8 9-7 9 5-6-6 8-4 8 4-7-2 6 2-7-1 6 2 7-2-7 3 6 5 7 6 5 7 5-7-3 10 4 11 2 13 1 13 1 15-1 15-1 16-2-8 1 17-3 17-3 18-5 18-5 19-6 18-7 18-8"/>
<path d="M13561 6195l 6-4 7-4 8-3 7-3 9-2 9-3 11-3 13-3 14-3 17-3 18-4 20-4 21-5 21-5 21-5 19-4 18-4 15-4 14-5 8-1 7 3"/>
<path d="M13571 6284l 8-8-4 5 5-6-3 5 3-7-2 5-3 6-2 7 2-8-1 7-1 6-1 7-1 7-1 7-1 8-1 7 0 7 0 7 1 7-2-8 2 7 3 5 6 5 7 3-7-3 8 1 9 0 10-1 11-1-8 1 13-3 14-3 16-3 17-4 8-1 17-3 19-2 19-3 19-2 19-2 18-1 16 0 15 1 14 1 11 3 10 3 7 3 8 4 5 5 4 7 2 7 3 8 0 8-1 7-1 8-2 8-3 8-4 7-5 9-8 10-4 7-9 10-8 9-12 11-13 11-7 5-16 11-21 11-7 4-24 11-26 9-24 9-23 7-22 7-20 5-18 6-17 6-14 5-13 3-8 2-11 1-7-2-10-1-7-3-5-5-4-5-4-7 1-8 3-7"/>
<path d="M14904 6176l-6 5 6-5-7 6-7 6-7 8 8-8-8 9-8 9-8 10 4-6-8 11-8 13-9 13-8 14-7 14 4-7-6 14-5 13-4 14 2-8-2 14-1 13 1 13 2 12-2-7 4 12 5 13 6 12 7 12 6 9 8 9 10 10 11 10 12 8 11 5-7-2 12 4 13 3 13 1 13-1-8 2 14-3 13-4 13-5-8 3 12-6-6 4 10-7 10-8-6 5 7-8-5 6 6-8-4 7 3-8-3 7 2-8-1 8 0-8-1-7 3 7-4-8-6-8-9-7-10-7-13-7-12-6-13-4-13-2 8 1-13-1-12-1-12 1-12 2-11 2 8-1-10 3-10 4 7-3-8 4-7 4-7 5"/>
<path d="M15904 6142l 9-1 10-2 10-1 12 0 12-1 13 0 15 1 16 0 16 1 16 1 16 2 16 1 16 1 15 1 13 1 11 3 10 2 9 3 8 2 7 3 7 2 6 3 5 3 5 3 4 4 4 4 2 5 2 8 2 5 0 6-1 6-2 7-2 7-2 7-4 7-3 7-4 6-4 6-5 6-4 6-6 7-8 8-6 7-6 6-7 6-7 7-8 8-8 7-8 8-8 7-8 7-8 8 8-8-7 7-7 8-6 7-6 7-6 8 5-7-6 9-5 9 4-7-6 10-5 11-4 10-4 12-4 11-3 12-3 12-4 10-3 10-3 10-3 9 2-8-2 8-1 8-2 7"/>
<path d="M16895 6193l 2-6 3-7 1-6 2-6 0-5 1-5-1 8 0-6-1-4-1-4 3 7-3-3-5-2 8 2-5 0-6 1 8-1-6 2 8-4-6 3-5 3 7-4-6 4-4 4-5 5 13-15-4 6 4-8-2 6 2-8-2 7 0 7 1 7 2 7-2-7 3 7 4 7 6 6 7 6 8 6 9 6 10 7 10 8 12 8 11 8 13 8 12 8 12 7 11 8 10 8 9 9 7 9 7 9 5 9 4 9 3 8 2 8 1 8 1 8-1 8-2 8-2 7-4 8-4 7-5 8-5 6-6 8-8 8-8 7-6 5-9 6-10 6-8 3-11 5-13 4-8 1-14 3-16 2-15 0-15-2-8-1-14-3-14-3-13-5-12-6-10-8-10-8-9-8-8-8-5-9-4-7-4-9-2-10 1-10 1-8 3-11 3-7 6-11 4-7 8-12 10-13 5-6 13-14 6-5 15-14 17-13 21-14 7-4 23-13 25-14 28-12 31-12 31-13 32-14 31-15 3-1 4-1 4 2"/>
<path d="M17875 6111l-7-6-7-6-6-6-7-6-8-6-7-5-8-6-9-5-9-4-10-5-11-4-11-3-11-3-10-3-11-2 8 1-12-2-11 0-11 1-11 2-12 2 8-1-12 3-11 4 7-3-11 5-9 6 6-5-8 7-6 7 12-15-4 7 6-15-2 7 2 8-2-8 5 7 9 6 11 5-7-2 15 4 18 4 20 3 21 2 22 1 22 0 20-1 20-1 18-2 17-3-8 1 15-4 14-3 13-3 12-3 11-2 8-2 9-1 8-1 7 2 7 3 3 4 3 8 0 6-2 8-3 8-4 8-3 7-5 8-5 7-5 7-6 8-6 7-7 8-6 8-7 7-6 7-6 8 5-6-5 7-5 9-4 8 4-7-4 9-4 10-4 11 2-8-2 12-3 12-2 12-1 11-2 12-1 11 0 12 0 12 1 10 2 10 2 10 2 9-2 8-4 7-4 6-8 9"/>
<path d="M19011 6064l 2 7 1 8 0 10-1 11-1 13-2 14-3 14-4 16-2 7-5 17-5 16-5 17-6 15-7 15-6 14-5 13-6 12-5 11-5 9-4 9-3 9-4 7-5 6"/>
<path d="M19213 6166l-5 8 4-7-5 9-5 9-5 10 3-7-4 9-4 10-4 10-4 10-2 9 2-7-2 9-1 8 0 9 2 8-2-8 2 8 4 6 4 6 5 4 6 4-7-3 7 2 8 2 9 1 9 0 10-1-8 1 10-2 11-3 11-4-7 3 11-5 10-5 10-5-7 4 9-6-6 5 7-7-5 6 7-8-4 6 5-8 4-9-3 7 3-9 1-10-1 8-1-11-3-10-3-10 3 7-5-10-6-11-8-9-8-10-9-10-10-8-9-6-9-5-8-4-9-3 8 2-9-1 7-2-8 3-9 4 7-4-9 6-7 3"/>
<path d="M1290 8240l-1-3 3 7-3-3-3-2-3-2-3-3-3-1 8 1-3 0 7-2-3 1 7-4-4 3 15-13-4 4 5-7-3 6 3-7-3 8-2 9-4 11-4 13-4 15 2-8-3 17-4 18-3 21-3 22-3 25-3 26-3 29-3 30-3 29-1 27 1 25 1 24 2 22 4 20-1-6 5 16 7 12 7 10 8 8 8 7 8 5-7-3 9 2 8-1 7 3 2 7"/>
<path d="M1478 8330l-1 5-1 4 2-8-1 5 0 4 0 4-2-8 2 4 1 4 2 4 3 4 3 5 4 4 3 4 4 4 3 5 3 6 3 6 3 6 3 6 3 8 3 8 4 9 4 10 4 10 4 10 5 10 5 9 6 8 6 7 7 5 6 5 7 4 6 3-7-3 6 2 7 0 6 0-8 1 7-1 6-3-14 7 6-4-6 5 7-6 7-7 7-8 7-9-5 6 7-9-4 7 7-12 6-12 7-14-4 7 6-15 6-16 5-17 4-16 2-16 1-14 0 8 0-12-1-11-1-10-3-10-5-10 4 7-6-9-7-9-9-9-10-8-11-7-11-5-10-2 8 1-11-1-11 1-11 2 7-1-11 4 7-4-11 6 7-4-10 7-10 10 8-9-9 11-9 12 5-7-8 13 4-7-6 14-4 15 2-8-2 15-2 8-4 7"/>
<path d="M2562 8139l 2-4 4-7 3-4 5-6 5-4 5-6 5-5 6-5 7-6 8-6 9-6 8-6 10-7 10-7 10-7 11-7 7-4 12-7 14-8 11-6 8-4 7-3 8-1"/>
<path d="M2618 8156l-5 6-3 5-2 4 4-7-3 5-3 5-2 5-3 4 4-7-2 5-2 5-1 5 2-8-2 5 0 5-1 5 0 4 1 5 0 4-2-7 2 4 3 3 4 2-7-3 6 2 5 1 6 0 5-1 7-1-8 2 8-2 8-2 8-2 9-3 10-2 10-3 11-2 11-2 8-1 11-2 10-2 11-1 11-1 11-1 10 0 10 1 10 0 11 2 9 2 9 2 9 3 6 3 8 2 6 4 5 5 3 5 2 7 3 7 1 8 0 9-1 10-2 11-2 8-3 12-6 13-4 7-8 15-10 16-5 6-12 16-12 15-14 15-8 9-14 14-15 13-15 12-16 12-7 4-15 11-16 9-14 7-7 4-14 6-13 6-12 6-10 5-10 4"/>
<path d="M1537 9057l-1-3-2-3-2-4 4 7-2-3-3-5-2-4-3-5-3-5-3-5-3-5-3-4-4-3-4-3-5-3-4-3-5-2-5-3-6-2-5-2-6-2 8 2-6-1-7 0-8 1-7 1-8 1-7 2 7-2-7 3-7 3 7-3-7 4-8 5 7-5-7 6-8 6-7 7-7 7-8 7 8-8-7 8-7 8 5-7-6 9-5 10 4-8-5 10-4 9-3 10-2 9 2-8-3 9-1 9-1 8-1 8 0 7 0 7 1 6 1 6-2-7 2 6 2 5 4 5 4 6 5 5 6 5 7 5 8 6 8 7 10 6 11 7 11 7 14 7 14 7 16 7 15 8 16 6 15 6-7-3 15 6 15 5 13 5 12 4 11 3 11 3 10 3 10 3 10 4 7 2 9 4 9 5 9 6 9 6 8 7 7 7 6 8 5 8 4 10 2 7 3 10 1 10 0 11-2 11-2 8-3 11-4 11-4 7-6 11-6 11-5 6-8 11-9 11-8 8-10 10-10 10-11 9-6 5-11 7-11 7-7 3-12 6-13 4-13 3-8 2-13 2-13 0-13-1-8-1-13-3-12-4-12-6-10-7-9-9-7-8-5-9-4-7-4-10-2-12-1-16 0-17 1-8 2-20 4-21 6-23 8-23 8-23 9-21 8-19 3-6 8-18 9-18 11-18 11-20 11-19 12-22 13-22 14-24 4-5 14-24 15-22 14-19 14-19 3-4"/>
<path d="M2677 8810l 0 6-2 8-2 5-2 6-3 8-3 10-5 10-4 11-5 11-4 13-4 14-5 15-5 15-5 15-5 15-4 15-4 14-4 14 2-8-3 14-3 14-2 12-1 10-1 8 1 9 1 7-2-7 2 6 2 4 3 4 4 3-7-3 5 2 5 1 7-1-8 1 7-1 8-3 10-3 10-4 11-3 11-4 12-4 12-5 13-4 13-4 12-4 12-5 13-4 13-5 13-4 13-3 12-3 12-2 10-3 10-3 10-3 9-3 8-1 7 3"/>
<path d="M2775 8898l-4-1-3-1 8 1-4 0 8-2-3 1 21-16-3 3 9-14-2 4-1 6 2-8-1 6-1 8-1 10 0 11 0 12 1 15 1 16 1 18 1 19 1 21 2 23 1 23 3 23 2 22 2 23 2 22 4 20 3 21 3 19 4 17 3 16 3 15 4 15-2 8-4 7-4 7"/>
<path d="M1486 9841l-5 5-6 5 8-8-6 7-6 7 5-6-6 8-6 10-6 11 4-7-5 12-5 13-5 13-5 15 2-7-4 16-3 19-2 19-2 20-2 20-1 21 0 21 1 21 1 19 2 16 3 15 4 14-2-8 5 14 7 13 8 12 9 12 11 12 12 11 12 9 13 6-7-2 12 3 12 1 12-2-8 2 11-4-7 2 10-6-7 4 10-7-6 5 8-9-5 6 7-9 6-9-5 6 5-8-3 7 3-9 3-9 1-9-1 8-1-8-1-8-2-8-3-9-4-8 3 7-5-8-7-6-7-5-9-3-9-2-10-2-11-2 7 1-11-1-12 1-13 2-12 3 7-2-12 4-11 5 7-3-10 6 6-4-9 6-9 8-8 8 8-9-8 8 5-6-5 8 3-7-3 8-3 8 2-8-1 8-1 9-2 7"/>
<path d="M2559 9780l-3-7-2-4 1-8 1-4 1-5 3-7 2-4 5-6 5-7 3-3 6-5 5-4 6-3 7-4 7-4 8-4 8-4 7-3 9-2 10-3 9-3 11-2 11-3 8-1 10-1 10-1 10-1 8 0 8 1 7 1 7 3 6 2 5 4 4 4 2 6 2 7 1 7 0 6-2 8-2 7-2 8-4 7-4 7-4 7-4 6-6 7-8 8-6 7-7 6-6 6-7 6-6 6-5 4 17-22-1 3-7-18 3 1-8 1 6-1 7-2 7-2 7-2 8-1 7-1 7 0 8 0 8 1 9 0 9 1 9 2 9 3 9 3 7 3 7 3 6 4 6 4 6 6 5 6 4 6 4 7 3 7 2 8 2 7 2 8 1 9 0 9 0 12-2 12-3 12-2 8-3 12-5 12-5 12-4 7-7 13-9 13-4 6-10 13-11 12-8 8-11 12-14 11-6 4-15 11-17 11-16 9-16 9-15 8-7 3-15 7-14 5-13 4-11 3-8 2-10 2-10 0-8-2-9-2-9-3-9-3-10-4-3-7 1-8 3-7 4-7"/>
<path d="M3810 8855l-11 11 4-5 2-4 3-5 5-6 4-4 6-5 5-4 5-3 7-4 6-3 7-3 6-2 7-2 7-2 8-3 8-2 9-2 8-1 7-2 8-1 7-1 7-1 10-2 11-1 12-1 11-1 11 0 11 0 13 0 13 1 13 2 12 2 11 3 11 4 6 3 11 4 8 5 7 5 7 6 6 7 6 9 4 10 2 7 3 11 1 12-1 12-2 14-4 14-2 7-4 14-5 14-7 15-9 18-4 7-11 20-11 19-12 18-4 6-12 15-11 14-8 8-12 13 8-8-12 13-13 13-12 14-8 8-12 13-12 12-12 10-11 9-11 9-11 8-6 5-11 6-9 6-7 3-10 4-9 4-9 3-8 2-7 2-8 2-6 1-4 1-8-2-2 0-4-7 1-8 3-7 5-7 1-2 5-6 7-5 6-4 5-3 7-3 6-2 8-2 7-2 9-2 9-2 7-1 10-1 9-2 9-1 10-1 9-2 11-1 10-1 11-1 11-1 10-1 10-1 11-1 11 0 11 0 11-1 11 0 10 0 11 1 9 1 10 0 9 1 8 1 9 1 9 2 8 1 8 2 7 2 7 2 5 2 7 3 5 2 5 3 5 2 4 3 4 2 3 2 4 2-7-3"/>
<path d="M5215 8756l 4 5 2 8 2 6 1 7 2 8 0 8 1 9 1 8 1 7 1 8 1 10 0 12 1 10 0 12 1 15 0 16-1 15 0 17 0 22 0 22 0 19 2 20 1 24-1 25 0 20 1 17 2 17 0 16 0 16 0 17 0 16 1 14 0 14 0 12 1 11 1 10 1 9 1 7 1 7 2 6"/>
<path d="M8292 10202l 2-4 2-5 4-6 4-5 5-6 4-5 6-6 7-4 6-4 8-4 7-3 9-3 9-3 11-2 8-1 10-2 12-1 12 0 13 0 13 1 13 1 13 2 12 2 11 2 10 3 9 3 7 3 8 4 7 4 6 5 5 5 4 7 2 7 1 7 0 8-2 8-3 9-4 11-5 10-4 7-6 11-8 11-5 7-9 11-8 8-11 11-11 11-12 11-12 11-12 10-12 10-13 9-6 4-12 9-11 7-10 6-9 6-8 5-6 4-5 3 19-20-1 3 3-23 3 2-7-3 5 1 7 0 8 0 9 0 11 0 12-2 14-1 15-1 17-1 17-1 18-1 17-1 17 0 17 2 16 3 16 3 15 5 15 5 7 3 13 7 13 8 11 8 10 9 8 8 7 10 5 10 2 7 3 12 2 13-1 14-3 15-2 8-4 14-6 15-7 15-4 7-8 15-11 15-4 6-12 14-8 8-13 14-14 13-15 12-6 5-17 11-19 10-7 4-21 9-21 8-22 6-21 5-7 2-22 3-20 1-20 1-19 0-17-1-16-1-7-2-15-3-13-3-11-5-8-6-7-6-6-7-3-7 1-8 3-7"/>
<path d="M9243 10156l-7-3 6 1 7-1 8 0 9-1-8 1 10-2 11-3 12-4 15-4 16-4 17-5 18-4 18-3 8-1 17-3 16-3 17-2 16-2 14-2 13-1 13-2"/>
<path d="M9292 10184l-5 3-6 2 7-3-6 3 7-4-7 4-6 7 7-9-7 9-7 9-8 11 4-6-8 12-8 13-8 14-8 15-7 15 3-7-7 16-7 16-7 16-5 15-5 13-3 13 2-8-3 11-1 11 0 9 0 7-2-8 2 6 4 5 5 4 6 3-7-3 8 2 8-1-8 2 10-2 11-4 13-4-8 3 14-6 16-7 8-3 17-7 20-7 19-6 21-6 21-5 22-5 21-3 8-1 20-3 20-1 20-1 18 0 18 0 15 0 14 2 13 2 11 4 7 2 10 4 8 4 8 5 6 6 6 5 4 7 2 7 2 7 1 9-1 11-2 12-2 8-3 12-5 13-7 14-4 7-8 14-11 15-5 6-12 15-8 8-15 15-16 14-18 13-7 4-19 12-20 11-7 3-20 10-22 8-21 6-21 7-19 6-20 4-6 2-18 3-18 3-15 1-15-1-7-2-12-3-11-4-4-7"/>
<path d="M10357 10128l 4-6 0-1 5-6 6-5 7-4 7-3 8-2 7 3 2 7-2 8-1 4-3 7-4 7-4 7-5 9-6 10-6 11-6 13-7 14-8 14 4-7-8 15-7 17-7 17-7 16-6 17-5 17-6 18-5 16-4 16 2-8-2 14-2 15-2 14 0 13 1 12 2 11 2 9-2-7 3 8 3 8 4 7 6 5 8 5 9 4-6-3 11 3 13 3 14 2 17 1 18 0 19-1 20-2 21-3-8 2 21-4 21-5 21-6 20-6 19-5 19-6 18-6 17-6 16-6 15-5 14-5 11-5"/>
<path d="M10558 10315l 7-3-4 2 7-4-4 3 8-9-4 4 5-6-3 5-3 6 3-7-3 5-2 7-3 7-2 8 2-8-2 9-1 10-1 11 0 12 0 14 1 14 0 16 1 15 1 15 1 17 1 17 2 18 3 19 2 19 3 18 4 17-2-7 5 16 4 14 2 8"/>
<path d="M11381 10172l 5-3 6-3 7-3 8-2 10-2 7-1 11-1 11-2 12 0 13 0 12 0 12 0 12 1 12 2 12 2 12 2 12 3 11 4 12 4 6 3 12 5 10 5 10 7 9 7 9 8 8 8 8 9 6 10 5 10 3 11 2 7 2 12 1 12-1 13-3 14-2 8-5 13-6 15-4 7-8 15-9 16-10 15-5 6-11 15-12 13-8 8-13 14-13 12-13 13-13 11-14 10-12 9-7 5-12 9 6-5-11 9-12 8-10 8-7 5-10 7-9 6 7-4-7 5-6 5-5 4 8-9-3 4 10-21 0 3-2-8 3 3-7-3 7 3 9 1 11 0 12-1 13-1 15-2 15-2-8 1 16-3 17-3 17-3 18-4 20-4 22-5 23-4 23-5 25-4 7-1 26-3 27-4 27-2"/>
<path d="M12664 10108l 0 5 0 6 1 6 0 7 1 8 1 9 1 9 2 11 2 12 1 15 2 15 2 17 2 17 1 18 2 19 2 19 2 19 2 19 2 19 1 18 1 19 0 18 0 17 0 18 0 18 0 19 0 20 0 20 0 20 0 19 0 18 0 17-1 16-1 16"/>
<path d="M8418 11947l 8-1 11-1 11-1-8 1 11-2 12-3 13-4 13-4 13-3 13-4 12-4 11-5-7 3 11-5 10-5 9-4-7 4 8-6"/>
<path d="M8434 11957l-5 3-5 4-6 3 6-4-5 4-6 5 8-8-5 6-5 6 4-6-4 7-5 8 4-7-4 9-5 10-4 11-4 12-4 13-4 14-4 15-4 15-4 16 2-8-4 15-3 15-3 14-2 14-1 14-1 12 0 11 1 9 2 9-2-8 3 8 4 6 4 5 7 3-7-3 8 1 10-1-8 2 11-2 13-4 15-4 16-6 18-6 19-8-7 3 20-8 20-8 19-8 20-9 7-2 21-8 21-8 22-6 23-5 22-4 7-1 23-3 23-2 22 0 20 0 20 2 18 2 16 3 14 3 6 3 12 4 10 6 7 7 5 9 2 7 3 11 0 11-2 14-2 8-5 15-7 17-4 8-9 18-13 19-5 7-15 19-18 20-19 20-6 6-20 18-21 17-4 3-22 14-21 13-21 13-20 11-20 11-18 10-5 3-18 8-18 8-18 5-6 2-17 3-16 1-15-1-12-1-7-2-11-2-4-7"/>
<path d="M9533 12012l 8 0 10-2 10-1 12-2 12-2-8 1 14-2 14-3 16-4 17-3 8-1 19-3 20-2 20-2 20-2 20-2 19-1 19 0 17 0 16 1 14 2 13 3 11 4 7 3 9 5 8 6 7 7 5 8 3 10 3 8 2 11 2 12 1 13-1 14-3 16-3 17-4 18-2 8-6 19-7 21-8 22-9 23-10 25-12 26-12 25-3 6-13 25 3-5-13 25-11 24-10 22-10 21-9 20-8 20-7 17-6 17"/>
<path d="M11054 11870l-10 7 6-4-9 7-11 9-13 11-13 14 8-8-14 15-14 18-14 18 4-6-14 20-14 20-13 21-12 22 3-6-11 23-11 22-11 22-10 23-9 22-7 22-5 23 1-6-5 22-3 21-1 20 0 20 3 18 4 18-1-6 6 15 8 14 8 13 9 12 10 10 10 8 11 7-7-3 11 4 13 2 13 1 14-2-8 2 14-5-7 3 15-6 15-9-7 5 14-10 13-10-6 5 11-11-5 6 9-11 7-11-4 7 5-11-3 7 3-10 1-11-1 8-1-9-4-10 4 7-6-9-7-9-9-8-11-8-11-6-12-5-13-4-12-2 7 1-13 0-12 0-12 2 7-2-11 3-10 5 7-4-10 6 7-5-8 7 8-8-6 8 4-7-5 9"/>
<path d="M11899 11938l-1-3 1-8 3-7 1-3 5-7 3-4 5-6 6-5 4-4 5-3 7-4 7-4 7-3 7-3 9-3 10-3 11-2 10-3 8-1 11-1 10-1 10 0 10 2 9 2 7 2 7 3 6 3 6 4 4 5 4 7 2 7 2 7 0 8-2 8-2 8-3 9-5 11-4 7-5 11-7 11-9 12-4 7-9 11-9 11-9 11-8 11-8 9-7 10 5-7-6 9-4 8-4 7 4-7-3 6-2 5 2-8 0 5 0 5-2-7 2 4 4 3 5 4 6 3 8 3-7-3 9 3 11 3 12 3 13 3 15 4 15 3 17 3 16 3 17 4 17 4 16 4 15 5 14 4 13 5 7 3 13 6 11 6 11 7 9 8 8 8 7 10 5 11 2 7 3 12 1 13 0 15-2 15-4 16-2 7-5 18-7 17-9 18-4 7-10 18-5 7-14 18-16 17-7 8-19 16-5 4-20 14-22 12-23 11-6 3-23 9-24 7-24 6-23 6-5 1-22 4-21 3-19 2-17 1-16-1-7-1-13-3-11-5-9-7-8-9"/>
<path d="M13206 11929l-1 5 2-8-1 6-1 9-2 9-1 11-3 12-3 13-2 8-4 15-5 15-6 16-6 17-6 17-7 16-7 16-6 16-5 16-5 14-4 14-4 12 2-7-3 12-1 12 0 11 2 10-2-7 3 9 4 8 6 7 8 6 10 6-7-3 13 5 14 3 13 2 15 1 16-1 18-1 19-2 22-2 23-4-8 2 24-4 26-5 25-5 25-5 25-5 23-4 22-5 20-5 18-6 17-7"/>
<path d="M13422 12070l 8 1-5 1 14-5-3 3 6-5-4 4 13-15-3 4 4-7-3 6-2 8-3 9 2-8-2 11-1 12-2 13-1 13-2 14-1 16-1 17 0 18-1 19 0 19 2 20 3 19 4 19 4 18-2-8 6 18 8 18 2 7"/>
<path d="M14361 11874l 7 0 9 0 10 1 13 1 14 1 16 1 16 1 17 2 17 2 17 3 16 2 15 3 15 3 13 4 13 4 12 4 7 3 10 5 9 6 8 6 5 8 3 8 2 8 2 9-1 11-3 12-2 8-4 13-7 15-4 7-9 16-10 17-12 18-4 6-14 18-16 17-7 8-17 17-18 16-18 15-18 14-18 13-17 12-15 13-15 13-13 12-11 12 7-7-9 12-7 10 5-6-6 9-3 7 3-7-2 6 2-8 0 4-2-7 3 3 6 3-7-3 8 2 10 0 11-1 14-2-8 2 15-3 17-4 19-5 20-6 20-6 21-6 23-6 24-6 26-6 29-6 31-7 32-7 34-7 35-7 4-1 4 2"/>
<path d="M15959 11750l-2 4 4-7-2 4-2 4 2-8 0 6-1 7-1 7-1 8 0 8 0 11 0 12 1 12 1 14 0 14 1 17 1 18 1 19 1 22 1 22 0 24 1 25 0 25 0 24 0 23 1 23 0 22 1 22 0 21 0 20 0 20 0 18 1 17 0 16 1 15-1 14 0 13-1 11-2 7"/>
<path d="M8449 13114l 1 7-1 5-2 8-2 7 2-8-1 7-1 7-1 8-1 10-1 10-1 10 0 11 0 12 0 13 0 13 1 14 2 16 1 16 2 16 1 17 1 17 1 16 2 15 1 15 1 15 1 14 2 14 1 14 2 14 2 14 2 15 1 15 2 15 2 16 1 15 3 15 2 16 2 14 3 12-2-7 3 11 4 8"/>
<path d="M9782 13094l-3 5 4-7-1 6 2-8-2 7-1 9-2 9-2 11-2 11-1 13-1 13-1 14 0 16 1 17 1 18 1 19 2 21 3 21 2 21 3 21 3 19 3 20 4 19 3 19 3 17 3 17 2 18 3 17 2 16 3 16 2 14 2 13 3 10-2-7 3 9 3 7 2 7-2 8-3 7"/>
<path d="M10809 13164l 1-8 0-3 3-7 2-5 5-6 5-6 4-5 4-4 6-6 6-4 7-4 7-5 8-5 9-5 7-5 10-5 11-5 7-3 12-4 13-3 8-1 14-2 14-2 15 0 15 1 15 0 13 1 13 2 12 2 11 2 10 4 7 3 9 4 7 6 6 6 5 6 3 7 2 8 0 8-1 9-2 8-3 11-5 13-7 13-3 7-8 14-10 15-5 7-11 15-13 15-13 15-12 14-11 11-8 9-10 10-9 9-9 8-9 8-8 6-6 6-6 5-6 4-5 4-3 2 14-13 0 0-14-27 3-1 6-3 7-3 7-3 9-4 10-3 11-3 12-3 8-1 13-2 13-1 14-1 15 0 16 1 17 1 17 2 16 4 16 4 14 5 13 4 7 3 11 5 10 6 9 6 8 8 7 9 6 9 4 8 4 8 2 8 2 8 1 9 0 10-1 9-2 8-2 9-5 10-3 7-7 10-4 6-8 11-8 8-10 10-11 10-7 4-13 9-15 8-7 4-16 7-16 6-16 5-7 2-16 3-15 2-15 1-14 1-13 0-12-1-12-1-7-1-10-2-9-2-8-3-6-1-5-2-3-7 1-8"/>
<path d="M12219 13104l 0 4 0 5 0 7 1 7 0 9 0 9-1 9-1 10-1 11-1 12-1 13-1 14-1 15-2 16-1 17-1 16 0 16 1 15 0 17 0 16 0 17 1 16 1 16 1 15 1 16 1 16 2 16 1 16 2 14 2 12 1 11 2 9 2 9-2-8 3 7 2 7-2 8-4 7"/>
</svg>
