<svg xmlns="http://www.w3.org/2000/svg" viewBox="1810 2088 19206 49811" stroke="black" stroke-width="16" stroke-linecap="round" stroke-linejoin="round" fill="none" data-xena="-1 -20 0"><style>@media(prefers-color-scheme:dark){svg{background-color:black;stroke:white;}}</style>
<path d="M2413 2523l 17-24 13-26 9-24 6-29 3-32 0-25-4-26-6-27-10-26-14-25-22-15-28 0-28 9-24 17-26 24-17 19-17 21-15 22-11 22-11 24-8 23-7 33-1 30 3 29 10 22 20 20 25 6 28-5 26-16 19-17 16-20 13-20 16-28 11-25 10-26 7-25-2 25-3 31-3 25 0 26-2 29 2 35 0 26 0 26 3 28 0 27 0 28 1 28 0 29 1 28-1 29 1 26 1 24 3 31 1 27 3 24"/>
<path d="M2686 2573l 24-4 24-1 29-8 29-10 27-10"/>
<path d="M2739 2643l 27 2 25 0 24 1 24-3 26 2"/>
<path d="M3498 2369l 11-22 28-9 25-5 27-2 26 0 28 2 29 3 24 8 18 17 4 25-6 24-13 29-12 25-15 27-18 30-20 33-22 33-21 33-21 32-20 28-19 26-19 24-17 20-16 19-20 22-19 16-22 14-20 17 25-14 25-9 30-9 25-7 25-8 28-9 28-11 29-10 30-8 28-8 26-6 30-6 27-5 27-4"/>
<path d="M3942 2581l 26-7 29-7 26-13 28-12 28-13 21-12 25-13 22-11"/>
<path d="M4075 2455l 11 26 6 24 4 25 5 28 6 26"/>
<path d="M4510 2284l 19-20 28-8 24-5 26-1 25 1 25 4 23 10 13 21-3 27-13 21-16 18-20 19-22 18-23 18-20 15-25 17-23 14 25-5 27-12 28-7 29 0 29 6 27 8 26 10 25 11 20 14 18 20 7 25-1 28-8 24-12 23-16 25-21 24-23 22-25 19-24 16-26 15-23 11-23 10-25 6-28-1-24-14"/>
<path d="M4946 2424l 27-4 26-3 27-5 28-5 28-6 28-7 25-9"/>
<path d="M5031 2342l-11 26 1 28 1 29 0 25 1 26 5 24"/>
<path d="M5406 2191l 3 27-2 32-5 28-5 30-8 32-12 34-7 24-7 24-12 35-9 32-9 28-7 29 10 24 23 9 25 1 29-3 28-4 28-5 29-7 28-6 31-5 31-7 29-6 30-7 26-8 25-8"/>
<path d="M5560 2373l-8 26 0 30 3 28 4 31 4 27 2 31 3 34 1 32 2 34 3 34"/>
<path d="M2644 3895l 19-18 23-12 26-9 29-9 24-6 27-1"/>
<path d="M2685 3998l 23-14 25-9 27-10 27-7 28-2"/>
<path d="M3473 4376l 11-22 9-26 7-24 7-26 0-27-4-26-9-24-16-20-26-9-28 3-27 12-25 19-17 19-17 22-16 25-15 28-14 28-11 26-6 24-1 28 5 27 17 19 23 7 26-5 21-11 21-15 23-18 18-17 16-21 16-20 17-25 14-23 12-24 11-25-7 26-4 26-2 29-1 27 5 28 6 26 13 21 21 16 24 0"/>
<path d="M3753 4144l 13-21 17-18 23 11 9 23 2 28 0 28-5 31-7 24-6 24-5 24-7 23-10 27-8 25 7-30 9-27 10-29 13-28 12-28 13-28 12-26 13-24 15-23 17-19 24-12 18 15 7 29-2 26-5 31-7 28-9 29-10 29-10 28-7 24-10 28-4 25 17-20 15-29 14-25 14-25 13-26 13-26 15-26 15-25 14-21 18-25 17-19 17-16 23-9 6 27 1 26-2 29-5 27-4 28-5 26-4 27-3 28 0 26 6 24"/>
<path d="M4518 4080l 26-5 25-3 25-2 25-2 25-4"/>
<path d="M4572 4024l-5 24 3 28 4 24-1 25-1 24"/>
<path d="M5304 3632l-23 10-19 23-17 24-15 22-15 26-14 29-14 32-9 23-8 25-8 25-7 27-6 27-6 29-3 29-2 30 0 29 1 28 2 27 2 27 6 25 9 24 10 22 13 20"/>
<path d="M6177 3701l 23 13 19 19 19 18 19 19 19 17 21 19 18 18 17 18 15 19 13 20 9 23 7 25 7 26 5 29 0 29 0 30-4 29-4 30-5 29-6 28-10 27-12 25-16 24-15 20"/>
<path d="M6634 3981l 25 0 28 0 29-4 27-7 27-9 28-7"/>
<path d="M6736 3885l-11 23-1 26 2 27 2 28 3 29 4 26"/>
<path d="M7176 4148l 24 5 28-1 27-8 28-10 23-12 23-16 24-20 18-17 18-18 17-21 18-23 19-22 17-23 16-21 14-20 12-21 16-30 11-28 8-29 3-26 1-27-3-24-5-27-12-21-27 8-20 21-18 24-19 28-11 22-11 23-11 25-9 28-9 29-8 28-5 29-5 31-2 28-1 28 3 25 5 31 10 25 17 25 21 16 28 8 26-1 26-10 17-19 9-24-7-26-12-22-17-24-17-16 24 6 25 3"/>
<path d="M7713 4010l-5 28-5 25-8 27-9 27-7 24-9 27 23-17 18-22 16-26 19-27 15-27 19-24 16-21 19-20 20-16 25-3 13 23 3 31-3 30-9 32-8 30-5 23 0 25 26-11 21-24 18-22 17-23 17-24 13-23 14-22 15-26 14-20 21-12 6 24 1 24 1 30 3 28 8 27 11 22 17 20"/>
<path d="M8384 4192l-2 27-10 25-15 30-12 23-13 23-14 25"/>
<path d="M9309 4072l 26 7 25-3 22-10 27-16 20-14 22-17 25-19 25-22 28-24 27-24 29-27 29-26 26-28 24-27 20-26 18-25 18-24 13-21 15-28 7-25 0-27-5-23-20-18-26-3-21 13-19 18-18 28-15 21-17 25-16 26-18 26-13 28-11 30-7 28-6 28-3 27-1 25 3 35 9 32 12 29 13 25 22 24 22 15 28 8 28-2 22-13 19-21 12-25 0-29-11-21-15-24-21-19-21-12 24 6 27-2 30-4"/>
<path d="M9957 3810l 27 2 25 3 24 4 27 8 23 6 22 10-21 14-22 13-29 13-28 12-28 13-22 11-26 9"/>
<path d="M10198 3912l 0 25-7 26-6 26 1 24 17-23 17-22 16-20 14-22 13-21 18-16 22 16 0 24-3 25 5 24 24 5 19-16 20-20 16-19 16-19 17-18 25-6 10 22 6 24 10 22 15 23 16 19"/>
<path d="M12761 2767l-12-23-4-25 7-26 12-21 20-26 16-21 19-20 18-20 21-16 21-20 19-17 24 2 10 22 5 25 3 28 2 24-1 26 3 27 3 26 6 25 4 25 8 23 10 27 15 25 16 23 22 12 26-2 25-14 24-13 18-19"/>
<path d="M13123 2545l-26 12-23 21-20 20-23 25-16 19-18 20-20 23-19 24-21 23-20 24-19 23-17 23-18 22-16 22-16 22-18 28-12 24-8 23"/>
<path d="M13251 2571l 18-18 24-12 24-6 26-4 28-5 26 0"/>
<path d="M13260 2637l 24-8 24-6 29-6 32-4 31-3"/>
<path d="M13719 2641l 0-28 2-24 9-24 14-21 18-19 21-17 22-14 23-13 25-6 24 9 12 25 3 28 1 26 1 28 1 27 2 30 4 25 6 24 8 30 9 27 13 22 18 20 21 12 27-2 24-14 22-20"/>
<path d="M14046 2480l-28 12-21 16-19 16-18 17-19 21-18 22-17 22-18 22-16 24-15 23-15 25-14 25-13 24-11 23-12 31-10 27-6 26"/>
<path d="M14137 2825l-1 27 15 21 20 16 26 9 26 3 26-6 22-16 13-21-10-25-22-14-26-5-27 1-25 6"/>
<path d="M14788 2268l-20-16-25 4-24 7-24 7-15 22-6 27-4 24-4 29-4 31-3 26-3 28-4 29-5 32-4 33-6 34-5 33-5 30-4 28-1 27-1 26-2 24-3 30 1 28 10 26 19 16 26-1 27-7 26-10 27-9 25-7 25-7 25-2 27-3"/>
<path d="M14904 2506l 1 25-3 24-4 27-5 25-9 26 10-29 9-27 15-26 16-23 18-22 20-16 17 21 5 24 2 26 0 27 0 26 25-2 19-23 15-20 15-19 18-25 14-24 18-16 4 25-4 26 3 26 7 24 8 24"/>
<path d="M15274 2271l 27-6 25-5 28-6 28-8 25-5 26-4 19 16 5 28 2 27 7 26 3 26 0 28 0 31-1 25 1 30 1 30 1 30 1 29 3 26 3 25 4 26 3 26 1 24-22 13-27 1-30 2-29 0-26 1-26 0"/>
<path d="M13247 2730l 23-11 25-9 25-5 27-2 26 0 28 4"/>
<path d="M3446 6239l 6-26 6-26 6-31 3-26-1-24-4-29-10-28-14-21-22-16-25-7-27 6-20 17-18 19-18 25-19 30-13 22-12 24-12 26-10 25-10 25-10 32-5 30 0 24 3 25 17 21 27-4 24-15 18-18 17-23 16-23 15-22 18-26 12-23 7 24 4 27 6 25 16 23 21 13"/>
<path d="M3578 6087l-5 24-3 28-5 31-1 29 0 25 3 24 25-12 10-29 9-24 9-24 8-23 11-24 15-20 22 10 7 24 2 25 0 30-3 29-5 28-3 25 0 25 19-19 11-22 11-26 10-25 9-23 11-26 12-22 13-22 25 1 7 25 2 30 3 25 4 28 6 26 13 22"/>
<path d="M4216 6058l 29-3 29-5 26-4 30-6 24-7 23-5 25-6 28-9"/>
<path d="M4311 5986l-15 21-1 25 6 29 6 24 9 29"/>
<path d="M5196 5615l-27-2-22 20-15 20-15 26-10 22-9 25-10 25-12 28-10 30-10 32-11 33-9 36-10 37-9 38-7 37-5 35-2 33 0 29 2 27 5 25 5 23 11 31 12 28 15 23 14 22 13 21 18 27 17 24 17 23"/>
<path d="M5456 6146l-11-26-11-23-12-23-18-20-23-6-23 11-25 20-18 19-17 24-14 23-10 23-7 27 3 25 19 18 31 0 25-10 24-15 20-14 22-17 18-15 26 4 15 21 17 21 21 17 21 11"/>
<path d="M5606 6088l 8 23-1 25-4 28-7 28-7 23 16-24 15-29 11-22 14-28 13-24 14-20 21-13 18 16 3 25 0 29 0 27 0 25 26-8 11-23 11-22 16-25 17-21 17-17 15 23 3 28 6 26 3 26 9 24"/>
<path d="M6055 6049l 26-6 28-4 26-3 30-4 26-6"/>
<path d="M6152 5962l-15 21-2 24 3 26 6 28 7 27"/>
<path d="M6507 6017l-1-26 6-24 14-20 20-17 25 2 17 18 13 24 11 24 9 23 10 25 11 26 10 27 9 25 13 25 10 22 13 24 19 16 29 1 23-12"/>
<path d="M6757 5897l-23 8-22 18-21 24-17 23-18 25-18 28-18 30-14 20-18 32-17 30-12 27-5 30"/>
<path d="M6895 6196l-16 20 0 25 10 25 19 17 25 7 23-9 17-19 13-24 7-23-6-27-14-20-26-8-27 0-25 2"/>
<path d="M7073 5657l 23 10 19 18 22 21 22 23 22 23 18 25 16 21 12 23 12 26 11 27 11 26 8 29 8 30 7 32 2 32 1 31-3 29-6 28-8 26-8 25-11 23-14 27-11 24-13 20"/>
<path d="M7554 5856l 26 3 27-4 28-5 30-8 23-8"/>
<path d="M7619 5785l-9 24 4 25 11 24 10 25 7 25"/>
<path d="M8329 5522l-21 15-16 24-17 25-18 28-13 22-13 23-12 24-13 27-13 27-11 28-12 30-11 31-9 31-8 32-7 32-6 33-4 34-3 32-1 31-1 29 1 30 3 28 2 28 5 26 4 25 7 34 12 32 11 29 9 24 12 27 14 22 12 22 9 22"/>
<path d="M8396 5952l-2-25 11-25 18-19 21-15 23-8 25 3 21 17 13 24 9 25 9 24 7 25 8 24 8 25 5 26 4 25 6 25 9 29 12 23 15 19 25 8 24-10 24-18 19-17"/>
<path d="M8694 5899l-20 14-19 21-19 23-18 24-16 21-16 24-15 27-18 26-15 28-14 26-10 26-9 28"/>
<path d="M8822 5961l 23-14 25-6 26-1 26-3 25-3"/>
<path d="M9222 5780l-3-25 3-25 15-19 25-11 25 2 25 11 21 12 19 16 18 19 17 25 11 25 0 30-9 29-12 26-18 30-14 21-14 20-16 20-16 19-17 17-18 17-27 24-25 19-21 16-22 17-19 15 24 10 25 1 25-1 28-1 25-2 25-4 29-5 31-7"/>
<path d="M9689 5984l 1-24 6-27-4-24-9-25-17-17-25-10-28 1-23 7-27 14-20 15-20 18-17 20-15 22-10 26 0 27 14 20 27 12 30-1 23-6 28-9 25-12 23-13 20-16 4 25 7 25 14 22 24 9"/>
<path d="M9804 5917l-13 23-7 27-4 24-5 27 24-10 20-25 19-25 15-25 16-20 16-18 5 25-10 27-4 25 23 11 20-16 16-21 19-20 17-18 17-18 19 16 9 25 10 22 11 22"/>
<path d="M10242 5849l 27-1 28-2 30-2"/>
<path d="M10582 5859l-2-24 12-24 17-18 18-16 25 2 21 21 10 24 7 27 6 25 4 26 5 29 4 29 6 27 9 23 16 23 19 18 29 3 29-9"/>
<path d="M10849 5781l-27 11-20 17-24 21-20 19-17 21-17 25-20 25-21 27-19 29-18 27-16 26-11 22"/>
<path d="M10891 6106l-14 20-5 25 16 19 26 3 23-6 23-13 18-18 8-24-15-20-22-15-22-13-26-3-24 6"/>
<path d="M11091 5502l 17 19 18 24 20 25 21 21 24 22 19 16 20 18 18 17 20 19 18 20 15 20 15 21 13 21 11 21 13 30 10 31 6 31 3 30 2 31 0 29-6 29-8 30-11 29-13 30-12 28-16 28-15 27-13 26-14 23-14 19-16 23-18 21"/>
<path d="M10418 7766l-1-26 7-27 9-27 12-23 13-26 14-24 16-20 22-10 20 19 14 25 8 25 9 28 9 28 9 31 6 24 6 23 7 25 7 23 8 30 11 28 15 26 16 19 20 16 26 7 27-2 26-12 26-17 17-18 19-19"/>
<path d="M10815 7562l-27 8-21 19-22 24-19 22-19 26-15 20-13 20-15 22-16 22-14 23-14 22-13 21-18 30-11 22-16 29-16 27-13 25-10 22-11 22"/>
<path d="M11078 7536l 24 3 27 5 27 2 27 3 28 4 27 7 25 11 23 10 24 8-23 12-24 10-25 13-24 13-23 11-22 11-23 9-23 12-21 13"/>
<path d="M11181 7778l 21-13 24-9 25-11 22-11"/>
<path d="M11580 7458l 17-17 25-13 27-11 24-5 24 1 28 6 26 6 25 12 16 20-8 26-17 17-24 20-23 15-24 15-26 15-26 13-24 13-22 10-23 14-18 16 25 5 26-2 27-2 27 2 29 2 28 2 25 2 31 5 25 8 22 10 19 19 13 24 2 28-7 25-11 28-13 22-16 22-15 20-19 22-22 21-24 19-23 16-26 12-26 9-25 6-29 2-25-5-23-8-22-17-14-22"/>
<path d="M12071 7691l-20-13-24-5-25 9-22 13-23 16-21 19-16 20-11 22-1 27 19 17 26 5 28-2 23-7 24-13 22-16 16-19-5-25-7 25 6 23 16 20 24 11"/>
<path d="M12170 7708l-15 22-5 23-3 25-2 27 26-10 15-20 14-23 15-20 17-19 20-14 19 14-8 26-1 26 3 25 23-11 17-21 16-22 19-16 19-16 12 21 7 23 15 20"/>
<path d="M12622 7563l 27-6 27-3 29-4 25-3 28-4"/>
<path d="M12702 7482l-10 24-1 28 3 24 6 27 7 26"/>
<path d="M12927 7505l 11-24 14-20 23-16 22-12 25-10 28-4 24 2 21 17 14 23 10 24 8 23 4 25 2 27 5 26 7 24 9 25 14 24 23 13 25 1 26-11 23-15"/>
<path d="M13276 7416l-23 10-17 18-17 20-16 17-17 19-18 21-22 21-20 22-18 22-18 22-15 20-13 21"/>
<path d="M13407 7645l-8 25 13 21 22 13 25 8 24-3 23-14 17-20 3-25-14-22-21-13-26-3-26 6-21 15"/>
<path d="M10301 7649l 24 1 26-1 32 0 24 0 27 0 29 0 33 0 36-1 39 0 44 0 46-1 24 0 25-1 26-1 26-1 28 0 28-2 28-1 28 0 29 0 31-2 32-1 33 0 34-2 34-1 37-2 39-1 39-3 38-1 40-2 41-2 41-2 41-2 43-2 42-2 44-2 45-2 45-2 46-3 47-2 48-3 46-2 50-3 48-2 49-1 49-3 50-2 50-1 50-3 50 0 50-3 50-1 50-1 49-1 51-1 47-1 48-1 48 0 47 0 46 0 46-1 45 0 43 1 44-1 42 0 41 0 40 0 40 0 38 0 38 0 37 0 37 0 35 0 35 0 33 0 30-1 31 0 31-1 29-1 29-1 26-1 27-1 25-1 26-2 45-1 41-2 38 0 30-2 26-1 31 0 25 0"/>
<path d="M14309 5114l-7-26 2-27 7-27 15-21 17-18 21-13 22 14 19 19 17 21 10 23 15 27 10 24 8 27 8 30 8 29 7 24 12 25 17 21 21 17 25 3 25-8 22-16"/>
<path d="M14680 4938l-24 3-21 13-20 16-26 21-26 24-19 20-19 20-21 22-21 23-19 21-20 24-19 24-16 22-15 21-16 27-12 27"/>
<path d="M14890 4978l 24-8 26-3 26-4 26-5 26-7"/>
<path d="M15281 4734l 21-14 24-8 27-2 29 2 30 8 30 10 28 12 20 13 18 17 13 22-2 28-12 25-16 22-23 23-19 17-20 17-23 16-27 18-25 19-25 18-25 18-25 16-23 17-21 15-21 15-22 21-19 21-9 24 9 22 24 10 29 2 27-2 28-6 27-4 28-4 28-5 31-3 31-4"/>
<path d="M15678 5046l-12-23-22-17-25-2-28 8-27 14-25 12-23 15-20 19-13 23 7 24 23 10 28 0 26-4 28-10 24-12 22-10 17 17 12 22 22 18 28 3"/>
<path d="M15799 5034l-13 23-10 22-4 24 26-1 16-19 15-19 15 19 12 22 24-3 21-15 22-10 7 24 11 22"/>
<path d="M16130 4953l 26-1 24 1 29 2 24-2 24-2 28-1"/>
<path d="M16509 4941l 2-24 11-22 17-18 19-19 23-14 26-4 26 3 20 16 14 26 9 28 6 23 4 26 3 26 6 25 6 29 9 25 15 22 23 14 27 1 26-8 22-13"/>
<path d="M16855 4828l-28 9-22 11-23 13-22 15-23 17-20 20-22 22-23 25-21 26-20 27-16 25-14 25-10 23"/>
<path d="M16965 5093l-17 17-12 24 10 24 22 14 24 1 25-11 20-16 11-23-1-26-16-18-24-9-26 6"/>
<path d="M17284 4801l 27 2 28 1 25 4 28 4 27 2 26 4 24 7-27 9-25 11-23 9-26 11-24 12-24 10"/>
<path d="M17330 4945l 20-16 25-14 28-11 24-9"/>
<path d="M17900 4855l 14-22 11-23 3-24-7-26-13-22-23-13-27 2-24 10-27 16-22 15-19 17-18 25-12 24-6 26 9 23 26 8 24 1 28-7 22-13 23-12 19-16 22 14 7 24 19 18"/>
<path d="M18044 4798l 3 25 1 28-7 25-12 21 16-25 16-23 13-21 16-22 18-18 6 25-6 27-12 25-10 23 25 8 22-16 19-20 16-18 16-19 4 25-2 24 6 24"/>
<path d="M18336 4803l 26-3 26-5 28-4"/>
<path d="M18400 4746l-14 23-7 25-5 27-4 27"/>
<path d="M18599 4755l 21-13 26 10 21 16 18 18 16 21 15 21 14 22 14 19 22 15 21 15 24 11 24 2 25-8 25-12"/>
<path d="M18854 4723l-27 10-25 12-21 12-21 14-21 16-22 17-24 19-20 18-17 18-17 22-13 25"/>
<path d="M18929 4913l 1 24 17 18 24 7 25 3 25-5 19-17 0-25-23-16-27-8-25-2-26 2-25 9-23 14"/>
<path d="M14234 6289l-11-21-1-27 10-24 16-25 17-20 18-18 19-16 25-1 12 23 7 30 8 28 5 31 5 24 3 24 7 25 8 25 10 31 6 23 8 24 13 26 15 24 18 18 24 3 25-7 22-11 22-16 21-18"/>
<path d="M14548 6142l-24 14-19 19-18 17-19 22-20 24-20 27-16 19-15 19-16 21-16 19-14 20-15 21-16 22-17 22-15 23-16 22-16 21-14 20-20 27-13 23"/>
<path d="M14768 6140l 19 16 24 11 25 8 26 6 25 7 25 6 24 4-21 11-24 11-26 11-28 10-24 7-26 8-24 10-22 10"/>
<path d="M14773 6372l 21-15 22-12 21-13 21-12 23-9"/>
<path d="M15148 6114l-9-23 21-14 27-9 28-7 31-5 25-3 25-3 25-1 26 1 25 6-15 22-16 19-20 16-25 15-22 13-21 14-25 16-22 13-22 13 28 0 27-3 24-2 24-1 25 0 24 1 24 2 31 6 30 6 26 10 21 16 9 27-6 24-12 22-16 24-22 25-26 26-27 24-18 16-20 14-28 20-29 15-25 12-27 9-31 5-30-1-26-6-17-17-6-24 3-25 16-25"/>
<path d="M15697 6220l-25-2-27 4-28 7-23 8-22 12-24 17-24 20-19 23-12 23-7 24 10 22 24 7 30-4 27-8 25-11 24-14 19-17 13-20 9 23 13 20 21 14"/>
<path d="M15779 6268l-8 25 0 25 0 26 5 26 17-22 11-22 11-23 13-23 15-19 8 24 0 25 8 24 24-2 16-20 23-6 15 20 12 21 18 17"/>
<path d="M16081 6209l 27-2 26-1 28 0 25-2 25-3"/>
<path d="M16172 6130l-12 23-5 23-5 24-6 28"/>
<path d="M16364 6005l 20-15 24-10 23-6 25-3 28 1 31 5 25 8 24 9 22 13 21 16 15 23 6 23-8 24-17 23-20 19-24 20-21 14-21 16-23 15-22 15-31 21-20 14-30 19-26 19-23 18-21 19-18 22-6 23 25 7 25-3 25-5 27-7 29-8 28-8 28-8 25-5 28-6"/>
<path d="M16691 6114l 18-19 26-12 23-10 28-7 27-4 23 7 14 21 8 26 6 25 4 28 6 27 3 24 8 28 14 27 14 25 19 15 23 6 25-9 23-18"/>
<path d="M17024 6031l-24 3-23 14-23 21-22 23-19 20-22 23-18 16-25 25-17 18-24 25-20 24-13 21"/>
<path d="M17048 6283l-2 24 7 27 15 19 18 16 23 9 24-7 13-22 0-26-9-25-18-17-25-7-24 0-21 13"/>
<path d="M14366 7472l 25-14 23-6 24-7 28-7 24-5 24-6 25-4"/>
<path d="M14397 7537l 22-11 30-9 30-11 26-8 29-8 27-8"/>
<path d="M14657 7289l 19 19 25 7 26 7 25 6 26 10 27 12 21 13 14 21 0 27-15 23-23 22-20 17-23 19-25 20-25 18-24 17-23 15-24 19-19 18"/>
<path d="M15085 7376l 13-20 20-22 19-19 23-16 23-9 24-1 17 17 8 23 4 27 3 24 2 26 4 27 3 26 2 25 5 23 9 27 11 21 16 19 24 13 26 3 28-9 22-12"/>
<path d="M15452 7278l-27 6-23 11-22 11-25 14-26 19-26 22-18 18-20 19-20 19-19 20-21 20-18 20-17 20-19 28-13 23"/>
<path d="M15754 7230l 27-3 28 8 22 9 27 9 27 10 28 9 26 9 23 10-13 22-25 12-22 10-26 9-24 8-25 8-28 12-24 12"/>
<path d="M15730 7491l 23-17 28-8 25-8 27-7 27-7 24-6"/>
<path d="M16410 7052l 2 29-12 22-15 25-17 29-22 28-17 17-22 26-20 25-17 22-15 19-14 24 18 21 28-1 31-3 37-7 25-4 25-5 35-6 34-7 34-6 34-6 31-6 29-7 28-8 28-7"/>
<path d="M16576 7160l-17 17-7 27-5 27-5 30-4 25-5 25-5 25-5 27-4 27-1 26-3 30 3 25"/>
<path d="M16825 7211l-12 24-10 22-6 25-6 24-11 25-7 23 20-17 21-22 16-18 21-23 16-22 19-21 20-16 21 13 3 26 0 25 26 4 24-12 21-15 22-14 19-15 19-16 25 10 13 23 9 23 8 24 12 21 21 19"/>
<path d="M2599 9335l 2-28 4-24 4 28-1 27-4 33-5 35-5 24-5 25-6 24-6 25-8 26-6 26-8 27-8 28-9 26-8 27-7 25-12 32-7 25 2 25"/>
<path d="M2914 9283l-14 21-13 26-10 24-13 27-14 29-11 29-10 27-4 29 9 27 22 18 24 8 26 2 29 1 29-4 27-6 27-4 25-6 23-7 23-10 21-12"/>
<path d="M3025 9425l-8 26-4 28-2 29-3 26-4 29-6 31-6 32-6 34"/>
<path d="M3879 9447l 11-21 6 23-3 25-5 25-7 28-8 29-11 30-8 31-9 32-8 34-9 31-7 30-5 25-2 26"/>
<path d="M4082 9495l 27-2 24 6 24 11 20 17 13 24 7 29-1 26-11 25-16 25-17 19-21 19-23 18-24 16-22 13-24 14-18 16 23 15 28 1 25 1 30 2 26 0 28-1"/>
<path d="M5285 9478l 17-20 24-7 29-6 28-3 29-3 30 0 24 1 26 6 21 12 3 25-8 26-14 28-14 23-15 25-15 26-16 27-13 26-13 27-10 24-11 23-10 27"/>
<path d="M6394 9537l-8 27-3 27-5 30-3 27-3 26-3 27-5 27-8 26-10 25-10 27"/>
<path d="M6565 9519l 23-10 25 2 25 6 23 11 19 21 10 22-4 24-12 22-18 21-18 16-21 13-22 13-23 14-21 12-25 15-19 18 22 11 25-3 26-5 27-6 31-4"/>
<path d="M7983 9413l-2-29 0-29-3-26-15-21-26 0-25 15-18 16-19 19-16 21-16 20-14 20-11 24-5 25 13 25 24 9 25-1 26-5 24-8 24-10-9 26-18 27-9 24-10 24-7 24-9 25-9 24-6 23-5 29-4 25"/>
<path d="M8987 9446l-5-26-4-25-10-24-17-17-29 1-26 11-22 12-21 14-21 15-22 19-15 22 9 25 28 5 25-3 27-6 28-7 26-5 5 23-10 27-4 27-9 25-6 29-7 25-5 26-3 27"/>
<path d="M9744 9450l 6 27-2 28-6 29-8 24-10 23-12 25-12 25-11 24-9 26"/>
<path d="M9922 9469l 25-3 24 5 26 6 28 9 23 10 21 15-2 26-16 18-24 16-25 15-25 15-19 16-16 22 1 26 24 12 26 0"/>
<path d="M11162 9480l 1-25-14 27-17 25-14 23-17 24-16 23-18 22-13 20-9 25 2 28 18 21 25 7 29-3 25-3 29-6 31-7 28-9 27-10 25-10"/>
<path d="M11240 9583l-23 19-19 20-13 20-15 30-7 23-6 25 0 24"/>
<path d="M12019 9515l 14-20 26-10 29 6 29 7 25 9 26 13 23 12 8 22-22 17-28 9-22 8 22 14 26 6 24 10 22 16 17 18 15 19 2 27-7 25-16 19-20 16-25 16-27 14-24 10-28 9-28 1-29-3-28-9"/>
<path d="M13060 9556l-1 26-4 30-5 29-7 29-5 27-3 27-8 27-9 27-10 30-10 24-11 22-13 25"/>
<path d="M13925 9532l 27-9 30-1 30 1 27 5 25 7 19 16-13 23-18 17-24 17-24 15-21 14 18 15 25 6 24 8 26 11 19 17 9 24 0 25-14 24-17 17-24 18-26 17-25 12-25 9-25 4"/>
<path d="M15411 9440l-20 15-21 21-17 17-16 20-17 20-16 23-14 22-11 22-11 23-12 31-8 33-2 32 3 27 8 23 16 25 20 17 24 9 26 2 24-3 21-15-4-28-16-22-23-15-23-10-26-5-24 7"/>
<path d="M16242 9450l 20-20 19-19 16-22 12-26 3-25-3-24-23-15-30 1-25 6-23 9-27 18-23 19-17 17-13 23 8 22 23 9 29 1 24-3 25-5 25-8 21-12-7 25-12 25-5 27-9 26-10 23-8 27-2 24"/>
<path d="M17306 9240l 17-20 8 23-5 27-6 29-6 26-7 26-8 26-7 26-9 25-12 26-11 24-11 23-13 25-10 25"/>
<path d="M17516 9205l 26-11 27-3 27-2 30 0 26 2 25 3 28 6 25 13 17 18 6 23-18 17-28 12-27 9-29 8-24 9 12 20 30 6 23 5 25 9 19 19 17 20 10 23 1 25-7 23-20 18-21 11-25 10-24 6-28 2-31-3-25-9-25-13-22-13"/>
<path d="M2773 10278l-3-24-24 7-13 20-2 24 25-8 17-20 17-18-12-21-25 8-16 18-11 22 16 19 17-19-1-24-25 6-11 23-4 27"/>
<path d="M5252 10259l-24-4-16 19 7 24 20 13 21-13-13-22-22-11 3 24 24-2 21-13-20-15-23 8-19 15-11 25 4 25"/>
<path d="M11173 10202l-23 9-6 24 12 22 22-10-8-23-26-3-22 11-15 18"/>
<path d="M12978 10297l-18-16-14 21 9 23 25-6 8-23-18-18-25-1-15 21-7 23 25 4 9-23-21-11-19 16"/>
<path d="M17530 9951l-27 2-23 14-13 21 15 19 25-1 23-8 2-24-24 4 26 4 23-11 22-14-22 9-19 17"/>
<path d="M12782 10676l 24 4 21 19 19 16 22 21 18 16 18 18 20 19 22 20 21 18 23 19 19 21 21 18 19 17 19 18 17 17 21 18 19 16 17 18-15-25"/>
<path d="M13079 10611l-20 15-13 27-15 26-13 22-15 25-17 30-18 30-13 20-14 22-13 21-18 30-18 30-13 20-18 29-17 29-13 25-13 24-12 23-15 27-7 25"/>
<path d="M15725 11734l-2-24 4-28 7-24 8-26 16-19 8 24 2 30-1 26-4 31-5 33-6 34-2 29-3 26-2 30-5 27 1-30 9-30 10-33 11-31 14-31 10-27 12-23 13-22 18-17 25-4 17 20 9 27-1 31-2 24-3 25-5 32-5 30-8 25-5 24 20-22 13-20 17-22 17-24 15-22 14-21 18-24 18-22 22-13 3 27-3 28 0 26 0 25 3 26 22 16"/>
<path d="M16240 11637l 19-15 26-2 28-4 27-2"/>
<path d="M16267 11700l 25-10 29-3 26-1"/>
<path d="M16513 11484l-16-18 24-12 31-7 25-3 26-2 24 1 27 4 25 7 23 15 14 22-4 26-21 19-18 17-26 14-23 9-22 12-23 11 27-5 25-5 24-1 26 0 25 3 28 4 27 6 25 6 22 13 6 25-3 28-12 23-16 26-19 24-15 24-19 22-19 15-25 11-23 6-30 5-25 2-25-1-29-4-29-6-25-9-7-23"/>
<path d="M16835 11824l-2 27-10 24-13 20-14 21-17 28-12 22"/>
<path d="M17744 11284l-3 27-6 27-5 23-7 25-5 26-5 27-4 28-5 29-4 33-6 34-4 32-4 33-3 30-3 28 6 30 4 27 3 24 15 21 27 6 23-10 22-18 22-18 22-19"/>
<path d="M17567 11559l 21-19 23-12 24-8 26-5 30-4 27-4 32-2 33-2 33-2"/>
<path d="M17978 11481l 23-12 29-2 24-2 28 5 24 6"/>
<path d="M17981 11568l 25-4 26-4 28-3"/>
<path d="M18432 11367l-4 27-6 28-10 28-8 28-6 32-4 25-5 27-7 25-8 26-8 24-7 30-8 25-8 26"/>
<path d="M18554 11397l 25-10 23-5 28-5 29 2 28 7 28 9 25 14 22 17 19 19 13 21 2 25-5 25-18 23-17 22-21 16-25 17-26 15-23 14-25 16-22 16-20 14 19 19 29-1 25-2 26-1 24 2 24 3 28 4 24 10 25 9 23 11"/>
<path d="M11005 10732l 22 11 16 21 15 26 14 21 18 16 23 20 24 20 22 14 22 13 27 16 23 11 23 9 27-4"/>
<path d="M11247 10723l-22 11-16 20-16 22-16 29-16 27-17 27-14 28-13 25-12 25-9 25-10 27"/>
<path d="M5148 10669l 17 20 16 20 19 22 20 24 20 25 19 25 19 23 18 21 17 18 21 22 20 17 23 14 24 7"/>
<path d="M5356 10722l-25 5-20 15-13 22-12 31-12 31-9 22-9 23-10 24-10 25-9 25-8 24-8 23-6 25-10 33"/>
<path d="M2243 13538l 13-22 20-13 25-4 27 1 25 4 25 8 27 10 23 11 22 16 16 21 11 22 6 23-7 29-13 25-13 20-18 22-19 22-21 21-22 20-22 20-21 20-20 19-20 17-24 18-22 16-21 14 27 7 24-2 24-4 28-4 28-3 30-3 28-1 29-1 26-1 26 0"/>
<path d="M3327 13496l 3-24 27-4 28-1 30 2 28 6 29 8 25 10 22 11 19 17 11 26-1 25-10 22-19 25-17 21-21 20-22 20-24 18-22 18-23 16-26 17-20 16-19 16 0 24 25 4 26 0 31-3 26-3 30-3 28-3 25-3 25-1 25 1 28 4"/>
<path d="M4435 13418l-8 24-10 22-13 24-13 22-14 24-13 24-12 21-6 26 16 18 27 9 24 1 25-1 24-3 29-4 27-6 28-6 25-5 28-5 27-5"/>
<path d="M4574 13473l-16 21-4 28 0 27 0 30 0 29 0 31 1 24 0 24 0 32 3 30 5 27"/>
<path d="M5473 13302l-17 23-9 29-9 27-9 30-9 33-7 34-5 35-2 34 0 31 3 30 6 28 9 24 11 21 18 22 20 14 28 8 26 0 24-5 27-12 19-16 13-20 2-25-10-24-18-19-25-13-28 0-26 9-24 12-20 16-17 19"/>
<path d="M6157 13340l-13 20-10 22-13 30-8 27-8 30-9 32-6 24-7 35-5 36-1 34 1 32 5 30 9 25 10 22 18 22 22 18 25 12 26 5 25 0 26-5 23-9 20-15 17-19 9-26-11-25-19-16-25-14-23-5-27 0-30 6-29 9-26 12-24 16-16 18"/>
<path d="M6836 13438l 11-22 25 8 24 6 28 2 29-2 26-5 27-5 25-7 31-8 32-6 25-6 25-3 25 0 14 21-2 29-9 31-9 27-12 30-13 31-8 23-15 32-13 33-12 32-6 29-9 25-6 24-9 26-3 25"/>
<path d="M7868 13312l-8-26-19-19-22-13-27-6-28 3-26 10-25 15-25 18-17 16-20 22-15 22-1 28 12 22 19 19 26 15 23 12 27 11 25 12 22 12 22 13 24 12 22 14 22 19 14 20 8 25-2 25-9 29-12 22-18 22-20 21-21 20-21 16-22 13-22 9-25-2-16-19-12-25-3-26 3-32 4-35 6-25 7-26 9-25 10-25 9-24 15-31 14-25 13-25 16-23 19-18"/>
<path d="M8372 13312l-5-25-15-21-23-12-28-1-29 5-23 9-26 12-24 14-18 17-13 23-3 24 13 27 18 23 23 20 21 12 23 9 25 9 23 8 28 11 25 9 22 13 20 17 14 20 7 25-5 25-14 26-16 20-20 19-27 10-25-5-17-22-11-29-6-26 0-30 4-33 6-24 7-24 10-25 11-23 13-22 21-29 16-23 20-23 20-18 21-12 26-7"/>
<path d="M9077 13225l-2-25 0-24-8-26-16-20-21-16-25-2-26 7-24 10-26 13-23 15-21 15-21 20-14 22-6 25 11 21 26 13 29 4 25-2 25-3 29-5 28-6 25-6 27-9 22-10 19-15-12 24-6 24-5 29-2 26-2 26-1 25-2 27-1 28 0 27 0 26 0 27 0 26-2 32 2 27 1 28 2 25"/>
<path d="M4974 15798l 1-26 0 31-11 31-9 26-11 27-10 28-12 28-11 26-10 27-9 24-8 31-5 25 2 27 13 21 22 10 25 5 31 1 26-1 31-4 26-5 27-4 28-6 27-5 28-6 25-5 29-6 25-5 24-6"/>
<path d="M5110 15956l-11 21 2 24 3 25 4 28 5 31 4 32 4 34 3 36 1 24 2 35 3 35 3 32 2 32 2 28 1 24"/>
<path d="M6324 15769l-22 10-12 29-14 31-9 25-7 27-9 30-7 33-8 35-5 35-6 37-4 34-4 34-2 31 1 30 3 28 6 27 9 23 14 29 15 22 19 17 22 12 29 6 30 1 29-4 31-9 30-10 29-13 22-13 20-19 14-23 0-26-19-24-26-19-28-13-30-12-30-7-31-3-32 3-28 7-25 11-21 14-20 24-10 25-3 26"/>
<path d="M7770 15941l-9-24-9-24-11-25-14-23-18-21-22-21-23-16-24-8-26-1-28 7-27 14-21 14-18 18-14 23-14 23-11 25-9 28 3 26 16 24 25 11 25 2 28 0 31-4 32-7 33-8 30-11 29-10 25-10 26-9 25-13 12-21-25-6-20 19-17 22-13 24-10 29-5 23-7 27-4 27-3 27-1 28-1 29-2 29-1 29 2 27 2 26 4 27 4 29 10 24"/>
<path d="M8949 15800l-5-24 0 24-2 25-1 32 0 25 1 26-1 27 0 27 0 28-2 29-1 28 0 29-3 28 0 25 0 26 0 24 1 32-1 28-1 31 1 24"/>
<path d="M9305 15766l 25-13 24-3 24 1 29 2 30 5 29 9 26 9 21 14 21 17 18 17 17 25 6 23 3 25-3 29-9 25-11 26-15 25-15 25-19 25-24 23-22 21-21 19-20 18-25 19-22 15-16 19 17 22 24 2 26-2 24-2 27 0 26 0 26 1 27 2 25 1 26 2 31 5 27 6"/>
<path d="M11333 15925l 8-24 26-12 24-8 28-7 30-7 25-6 26-6 24-6 28-6 26 2"/>
<path d="M11370 16044l 25-15 26-9 29-7 28-6 26-6 27-6"/>
<path d="M11537 15790l 20-14 26-6 24-6 26-6 29-4 25-1 24 4 27 11 19 16 13 20 6 25-3 28-10 25-11 28-11 21-16 23-17 23-17 23-17 21-18 20-18 18-20 21-17 20-11 21"/>
<path d="M12289 15732l 13-23 26-4 25-3 31 2 25 1 26 4 26 9 20 15-2 28-16 19-24 19-21 15-21 13-26 15-26 13-22 13 18 15 30 4 29 3 27 3 29 6 24 9 29 12 26 12 24 14 20 18 18 24 4 27-6 25-11 24-15 27-16 18-23 21-20 14-26 17-23 10-31 9-24 6-30 4-29-1-26-8-25-11-22-12"/>
<path d="M1940 15844l-20-15-3 27 0 32 0 26 0 28 0 29-2 30-1 29-1 31 0 29 0 30 1 28 3 28 2 25 3 36 2 30 2 25 4 27 4 24-2-30 0-24 0-29-1-32 1-32 0-29 3-28 3-25 3-25 6-26 10-27 14-21 18-16 24-6 26 1 25 5 23 10 20 17 19 20 11 25 5 31 1 27-2 26-6 26-9 26-12 23-13 22-20 24-18 18-23 14-24 4-21-13 23-9 26 5 24 4 27 7 25 8 25 10 22 11 21 13 23 17 23 15 21 13"/>
<path d="M2346 16052l 18-17 26-11 27-11 27-6 27-3"/>
<path d="M2389 16128l 23-16 25-14 22-11 26-14"/>
<path d="M2628 15841l-11 23 0 25 1 32 2 26 1 29 2 32 3 31 4 34 3 34 3 35 2 31 1 35 2 31 2 27 2 27 10 26"/>
<path d="M2877 16293l 12 22-1 28-4 24-9 31-9 27-12 28"/>
<path d="M14527 14348l-6-26 11-25 18-18 22-17 25-16 25-14 22-10 25-6 25-1 22 12-1 24-8 24-10 24-13 26-15 26-19 27-21 26-20 25-20 24-17 19-18 21-12 22 24-7 23-12 23-10 24-8 27-3 29-1 25 1 28 3 27 6 24 9 22 13 19 17 16 20 12 25 9 28 4 35 1 24-4 25-3 25-6 27-5 27-6 27-9 27-11 25-13 24-13 22-15 20-22 26-23 22-22 15-27 10-28-7-18-20-10-24-7-33-3-25-2-27 0-29 3-32 3-32 4-33 6-31 6-31 7-29 10-26 10-26 9-23 11-23 12-23 21-30 16-19 16-18 16-18"/>
<path d="M15206 14124l-24 17-21 15-23 16-22 13-21 13-23 14-23 16-15 19 21 13 29 3 27 0 28-2 28-1 26 0 28 2 24 5"/>
<path d="M15063 14362l 26 3 30 1 27 1 25 1 25 0 28 1"/>
<path d="M15768 13903l 2-27 12 26 6 27 5 34 2 26 1 29 1 31-3 32-1 34-2 36-3 35-2 36-3 36-4 36-3 35-5 31-4 29-4 25-6 31-6 24-6 27-11-23 1-31 2-25-1-27 3-27 2-27 4-26 6-26 8-24 12-27 14-20 19-17 25-10 26-1 24 7 19 18 5 27-5 26-10 23-11 22-15 21-17 19-17 22-15 19-13 24-3 24 9 25 15 21 20 19 23 16 21 13 24 10 26 8"/>
<path d="M16229 13981l 17 22 2 30 2 28-2 32-5 28-6 30-8 33-8 33-6 24-7 24-5 25-6 26-6 35-4 31-2 25 4 25 12 23 23 12 25 0 25-8 24-13 23-17 16-19 12-25-1-26-11-21-19-22-18-17-19-16-21-15-20-13-24-13-23-6-27-1-18 18 26-1 27-12 21-12 22-16 24-17 23-20 24-22 22-22 18-22 16-22 15-22 13-23 13-25 11-25 9-22 8-28 7-24-8 30-6 23-8 29-5 32-7 32-8 34-5 34-3 25-4 24-3 24-5 34-5 34-5 31-2 26-3 25 21 12 18-19 18-22 16-23 12-24 16-22 12-21 7 25 1 25 2 27 0 29 2 25 4 28 9 25 13 20"/>
<path d="M15917 14224l 20-14 24-9 24-7 24-6"/>
<path d="M15963 14121l 1 28-3 26 0 25 2 24"/>
<path d="M16072 14039l 3 28 5 30 3 30 3 31 3 30 3 28 2 29 1 30 0 28-1 24"/>
<path d="M17066 14333l 23-5 25-9 24-9 23-13 24-14 18-20 5-24-22-11-25 0-24 9-25 16-20 19-17 25-11 26-10 26-5 24 6 24 18 20 29 6 24-1 30-6 24-8 25-14 26-19 20-15 18-17 18-18 18-20 17-20 17-22 14-20 17-31 13-34 11-34 4-25 2-25 2-25 1-26-1-25 0-24-3-34-1-27-3-25-15-19-25 15-14 21-14 28-13 27-9 32-5 23-2 25-3 25-2 27 0 27 0 27-1 26 1 25 0 35 5 31 9 29 10 29 14 24 17 17 25 15 25 7"/>
<path d="M17472 14319l 27-1 24-7 22-9 22-11 22-13 19-16-16-21-25-10-23-5-27 3-21 17-16 25-10 25-6 28 0 27 5 24 14 25 22 18 22 12 25 5 25 1 25-3 24-6"/>
<path d="M17701 14286l-20 17-10 26-6 24-2 25 1 26 23 8 15-18 17-23 13-21 24 0 12 23 24 10 26-5 22-12 19-17 22-18 20-17 25-13 25 5 14 22 14 24 15 22 18 21"/>
<path d="M2271 18049l 5 28 3 26 3 32 1 31 0 35-1 24 0 25 0 26-2 27-1 26 0 26-2 26-1 26 0 27-2 26-1 28-1 28-2 28-1 25-3 33-2 27-1 26"/>
<path d="M3180 18104l 5-24 22-16 22-8 28 0 29 0 30 3 30 6 29 6 27 6 24 9 24 12 18 16 8 27-6 30-10 24-16 25-19 22-22 22-19 16-19 16-23 19-21 15-23 19-20 14 25-5 29-6 27-2 28 0 32 3 26 2 27 3 26 4 25 6 31 6 27 11 20 18 12 25 3 27-6 25-7 24-10 23-13 22-15 22-15 19-22 21-22 15-23 12-26 10-27 5-27 5-28 6-25 0-26-6"/>
<path d="M4335 18090l-2-24 25-16 25-11 25-7 25-5 27-4 28-4 30-2 29-3 29-1 24 1 28 8 23 12 11 22-5 26-14 24-16 20-20 22-23 20-24 20-24 16-26 16-24 14-25 15-21 14 28-2 28-7 28-3 28-2 29-1 27 0 28 3 28 3 26 5 24 6 29 12 24 14 18 17 11 26 3 30-5 27-12 27-12 21-21 26-23 19-21 13-28 16-30 6-24 1-24-1-32-5-26-4-31-6-26-7"/>
<path d="M5917 17862l-5 29-6 26-8 28-11 28-12 29-13 33-12 32-12 30-10 27-8 26-5 29 1 27 15 22 28 10 26 0 32 0 24-5 25-2 28-5 31-3 29-7 28-5 25-5 30-7 27-8 26-7"/>
<path d="M6061 18052l-12 23-2 25 6 30 5 28 9 30 8 24 6 23 7 25 6 24 6 23 11 26"/>
<path d="M7281 17987l 28-5 26-3 30-5 25-3 26-2 27-4 29-3 26-2 26-4 26-5 24-3 26-3 27-1 24 6 3 26-3 28-4 29-9 34-5 26-5 27-5 28-3 30-3 27-5 30-5 28-4 27-4 26-3 25-6 32-3 28-2 31-2 25"/>
<path d="M8768 17877l-8-23-13-21-13-22-16-18-23-13-27-2-27 7-21 15-24 21-25 26-14 19-14 22-12 21-16 32-11 31-3 28 0 26 4 27 18 18 27 5 27-7 21-11 25-17 25-20 24-21 20-20 20-23 15-22 13-23-2 31-4 25-3 30 0 34 0 25-1 36 1 25 0 26 0 25 1 27 0 26 1 28 2 25 2 25 1 26 3 32 3 29 4 26 4 29"/>
<path d="M9760 17973l 1-28 1-26-3-25-5-24-11-29-15-21-23-12-30 7-20 16-22 23-15 19-15 20-15 23-15 23-12 23-10 22-8 23-6 32-4 28 1 28 12 21 25 7 28-4 23-5 25-8 24-10 23-12 24-19 20-16 19-19 5 28-4 32 0 28 1 29 1 31-1 31-1 30 0 29-2 29-1 28-2 30-1 29-1 25 2 24 0 24"/>
<path d="M11392 17954l-11 23-4 29-2 24 0 26 1 28 0 28-1 28-2 31-3 34-4 32-4 31-5 29-5 25-8 28-3 25"/>
<path d="M11534 17983l 27 3 23 5 26 5 25 7 23 10 18 18 11 21-1 24-12 21-17 19-20 23-22 21-25 20-24 19-25 17-22 12-21 16 8 23 29 2 25 0 28-3 29 0 30 0 26 0 25-1 25-2 28-4"/>
<path d="M12406 17987l 21 11 6 25 7 28 8 27 4 33 2 36 1 25 0 26-1 26-1 26-1 24-3 35-6 34-4 25-5 31-2 26-5 28"/>
<path d="M12777 18031l-5-25 22-13 24-1 24 2 24 5 25 9 23 9 24 8 22 14 18 18 15 22-2 24-10 23-18 27-18 21-21 22-23 21-24 22-28 21-30 19-27 18-25 15-20 14-21 18-18 19 15 21 26-1 29-3 26-3 31-4 31-7 28-9 28-9"/>
<path d="M13801 18036l 8 24 0 31-2 30-4 33-2 24-5 36-5 35-8 32-9 31-6 27-7 31-1 25"/>
<path d="M13949 18019l 24 10 26 10 29 7 26 6 22 10 24 13 11 24-6 28-11 22-17 21-23 20-22 18-22 19-21 15-23 17-19 14-20 15-23 17-10 22 22 14 25 1 24 0 28 0 24-3 32-4 26-5 26-5 25-5"/>
<path d="M14903 17941l 2 25 0 29-2 24 1 24-2 29-1 31-3 31-2 33-4 31-6 31-8 31-5 26-9 29-7 26"/>
<path d="M15149 17940l-14 22-15 21-13 23-10 26-9 27-6 28-5 29 1 25 11 23 20 20 26 11 24 6 29 1 27 2 31 2 28-2 28-1 27-2 25-3 24-7 25-10"/>
<path d="M15323 18068l-19 18-4 27-4 31 0 26 0 28 1 28 2 26 1 27-3 25 2 26"/>
<path d="M17282 17766l 5 28 6 30 4 26 4 27 2 31 0 34-1 34-1 35-2 24-3 24-5 36-6 35-7 34-7 34-6 29-9 25-11 26-11 23-4-28 5-26 5-30 9-31 9-31 9-30 7-27 10-22 15-25 18-23 23-15 25-4 27 4 25 7 23 10 12 25-4 27-13 22-18 21-21 21-22 23-19 21-19 17-18 18-11 23-2 25 14 22 21 16 25 15 23 10 27 10 29 10 28 11 25 9 24 8"/>
<path d="M17685 18061l 27-2 30 5 24 6 27 8"/>
<path d="M17703 18184l 24 0 29-1"/>
<path d="M18054 17897l 16-18 26-3 30-1 26 1 28 1 27 2 27 3 25 3 28 6 28 9 21 14-9 26-22 15-23 14-25 14-25 14-22 11-22 15-9 23 20 14 27 11 27 8 24 7 26 8 24 7 27 7 29 8 24 12 14 23-6 27-16 23-19 19-23 21-27 17-25 15-27 13-26 9-26 4-29-1-28-11"/>
<path d="M2557 19962l 17 20 6 25 5 33 1 33-1 25-1 26-3 27-2 28-3 32-3 32-4 33-3 34-3 34-3 34-3 33-4 33-2 31-1 28 0 25 3 28 6 29 9 22 14 22 23 6 25-7 22-9 25-12 23-15 23-15 21-17"/>
<path d="M2471 20372l 26-13 23-9 23-9 26-11 28-12 35-11 23-9 26-9"/>
<path d="M2765 20440l 24-5 24-8 25-10 23-13 20-15 14-20-10-24-24-6-26 1-26 11-20 17-18 24-12 21-8 28-3 28 3 24 9 27 15 21 20 15 28 7 28 0 24-3 26-6"/>
<path d="M3130 20304l-24-2-24 9-21 13-21 20-18 21-15 20 1 25 26 6 24 1 28-2 24-1 32-3 30-1 28 1 27 5 24 9 9 23-10 29-14 22-20 21-23 20-24 18-24 14-23 8-28 7-24-4"/>
<path d="M3296 19979l 7 26 8 23 8 27 7 24 6 28 6 31 6 33 5 33 4 33 4 31 3 28 2 25 4 29 6 28 9 27 10 22 19 16 23 6 28-4 27-12 22-15"/>
<path d="M3339 20220l-24 5 25-6 29-7 31-6 23-6 27-7"/>
<path d="M4393 20345l 5-24 11-24 15-22 24-6 19 16 10 26 5 27 3 30 1 34-1 32-3 34-3 33-6 32-10 28-10 29-12 21-1-28 4-30 5-25 5-24 7-26 7-27 7-25 8-26 8-22 9-23 12-30 13-25 15-27 18-18 23-10 22 11 12 25 1 32 0 28-3 30-3 29-3 28-4 32-2 27 26-11 14-23 16-26 13-25 13-24 12-23 12-22 15-25 15-24 19 20 0 30 1 25 0 29 0 31 3 34 3 31 7 28 9 28 10 26 12 24 13 22"/>
<path d="M5252 20260l 26-7 28-4 27-7 28-8 30-7 30-7 26-5 25-6 25-7"/>
<path d="M5305 20342l 23-15 22-8 26-10 28-9 31-10 23-9 30-12 28-14 22-11"/>
<path d="M5528 20107l-27-4 15 21 24 3 29 6 26 7 25 9 25 6 21 13 6 27-9 23-12 23-14 21-15 24-18 22-14 22-16 22"/>
<path d="M6464 19899l-14-20-19-16-25-3-22 12-20 22-17 23-17 30-12 23-12 27-9 29-7 33-7 35-4 37-3 36-1 38 3 36 4 36 9 36 11 31 13 29 16 25 16 18 19 16 29 19 32 15 32 6 32-1 32-5 33-10 33-15 21-13 21-15 19-16 18-20 17-23 15-26 13-26 12-27 10-27 6-26 5-28 1-28-2-29-4-32-7-30-10-31-12-31-14-30-15-29-17-27-17-25-18-20-25-25-27-16-26-13-28-8-28-1-25 7-20 13-24 21-24 26-17 20"/>
<path d="M7242 19622l-26 1-17 21-17 23-19 31-14 24-15 28-16 31-18 35-16 39-18 42-8 23-8 24-9 23-8 24-8 24-6 25-7 26-6 26-6 25-4 25-4 27-3 24-2 25-2 24-1 46 0 43 4 41 5 39 7 38 8 36 10 34 10 31 12 29 10 27 12 25 12 23 16 31 17 26 16 20 21 20 19 15 23 16 23 14 23 9"/>
<path d="M7579 19616l 6-23 17 18 2 26 1 24-1 25-2 25-3 31-5 27-3 24-3 26 5-24 9-31 7-25 9-26 9-27 9-26 7-26 9-23 13-28 12-22 16-22 18-17 21 12 10 23 8 26 4 24 4 26 1 25 3 25 2 25 1 25 2 28 1 28 0 25 1 25 4 25"/>
<path d="M7437 19990l 30-4 25-2 31-5 25-5 29-1 30 0 31 0 29-1 30 0 29 0 29 1 27 0 26-1 26-2 24-3 30-4 28-6 25-3 27-3 26-3"/>
<path d="M7534 20205l 9-23 24 0 9 23 4 25 2 28-1 30-2 32-2 25-4 27-8 31-8 27 4-32 9-28 8-26 11-26 11-24 13-24 16-26 16-21 16-17 21-17 25-1 13 25 3 25 0 30-3 26-6 28-5 27-6 29-6 28 13-26 7-25 7-26 8-23 8-23 9-27 8-24 9-24 16-21 21 14 10 24 5 24 0 26-1 26 3 25-1 25 1 25 6 24"/>
<path d="M8484 20050l 23-16 22-9 25-8 25-4 26-2 26-3 24 0"/>
<path d="M8587 19901l-9 25 7 27 9 28 10 25 10 24 12 27 8 24 5 26 3 25-4 27"/>
<path d="M9254 19820l-2 27 2 25 2 31 2 34 2 24 1 27 1 25 3 26 0 27 2 25 2 26 2 24 3 33 3 33 4 33 3 29 2 28 2 25 2 24-3 27 3 24-3 24"/>
<path d="M9451 19580l 10 22 15 26 18 23 25 23 18 17 21 16 22 18 21 18 23 17 23 18 22 19 23 20 21 21 17 21 19 22 16 22 15 25 14 25 11 27 11 28 9 28 7 29 5 29 3 31-1 33 1 32 0 32-2 31-2 31-5 32-5 30-7 29-7 30-8 26-9 25-10 25-13 34-13 28-13 26-14 24-14 23-16 19-15 20-19 19"/>
<path d="M1994 23012l 28-5 26-6 34-6 26-5 29-4 33-4 35-3 36-3 38-3 37-2 39 1 40 0 41 1 43 3 43 2 45 3 48 2 26 2 25 1 26 2 28 1 28 2 29 1 30 1 30 2 31 1 33 1 32 1 35 2 35 1 35 1 38 1 37 1 38 0 39 1 39 1 40 0 41 1 41 0 43 1 43 1 44 1 44 1 47 1 46 1 48 1 48 0 49 1 50 1 49 1 51 3 52 2 52 1 53 0 53 1 55 2 55 0 55 1 56-2 57 1 58 0 58 0 59 1 59 1 61 1 63 0 63 1 64 1 66 0 67 1 67 0 69 0 68 0 69 0 71 0 70 0 73-1 72-1 73-1 73-1 74 0 75-2 75-1 78-2 75 0 76-2 77-1 78-1 78-2 79-2 80-1 78-3 81-1 81-3 82-3 83-2 83-2 82-2 84-3 86 0 86-3 86-2 88-1 87-3 90-2 91-2 90-2 89-1 91-1 89-3 92-2 91-3 91-2 94-2 94-3 93-5 97-2 94-3 97-4 98-4 97-3 98-5 99-4 98-4 100-4 100-5 100-3 101-5 101-5 101-4 102-5 103-4 102-4 103-5 103-5 104-4 104-5 103-4 103-5 105-5 104-4 105-5 104-4 106-5 106-6 105-4 104-5 106-5 104-4 106-4 106-5 103-4 106-4 105-5 106-4 104-4 103-4 103-4 102-4 103-3 101-2 100-2 100-2 100-2 100-2 100-1 100-1 99 0 98 0 100-1 99-1 99 0 99-2 97-2 96-1 96-3 94-2 94-1 94-3 94-2 93-1 94-3 94-3 96-4 94-3 96-4 93-3 94-4 94-4 94-3 93-3 92-3 92-2 91-2 90-3 90-3 89-2 87-2 88-2 87-1 87-2 85 0 86 0 84-2 85-1 84-2 82-1 82-1 80-2 81-3 80-1 79-1 77 0 77-2 75-1 75-2 72 0 74-2 72-1 72-1 70-2 68 0 68-2 69-1 68-1 63-1 64-2 62 0 61-2 59-1 60-3 56 0 56 0 54-1 54-1 51-1 50 0 49-1 45 1 47-1 43 0 42 0 40 0 37 0 37-1 34 1 32 0 29 0 28 1 26-1 25 0 25 0 41 0 36 1 32 0 26 1 30 3 27 4"/>
<path d="M3192 24915l 26-4 30 2 31 0 27 1 31-2 32-1 33-1 32-1 28-1 31 0 26 1 25 1 25 0 25 0 29-1 27-3 25-8 22-10"/>
<path d="M3940 24921l 23-7 26-1 24 2 28 1 29 0 30 3 31 5 29 3 28 1 26 1 24 0 30-3 26-2 25-1 28-7"/>
<path d="M4716 24943l 25-4 26-2 30-3 30-4 25-1 25-2 25-1 28 1 28 0 30-1 30 1 30-1 29-3 25-2 27-1"/>
<path d="M5527 24905l 21-11 27-5 29-4 30-3 29-1 25-2 27 2 26 1 25 1 25 1 25-2"/>
<path d="M6152 24906l 25-7 26-3 29-4 31-5 29-2 27-2 28-7 25-3 30-2 26-2 24-2 24-3 29-4 26-4 25-1 26-1 25-1"/>
<path d="M6826 24857l 23-7 29-4 27-8 29-4 27-2 27-3 26-5 26-4 25-3 25-2 28-1 28-2 24 2 26 3 26 4"/>
<path d="M7473 24824l 26-8 30-6 27-3 25-3 25-5 31-4 25-2 31-2 28-3 28-1 28-3 28-2 25 1"/>
<path d="M8138 24790l 27-4 25-2 24-2 25-3 27-3 30-3 30-3 26-2 26-1 24 0 25 0 32 0 30 2 27 1 27 2 27 3 27 4"/>
<path d="M2924 25274l 0 26 11 22 12 23 13 21 19 17 21 13 22 9 25 6 30 5 30 3 27 3 29 1 33-1 35 0 35 0 25 2 27-1 28-1 29-1 28-3 30-1 29-1 31 0 31 0 32-2 32-1 34-3 34 0 36-2 39-1 43-4 45-6 24-3 25-2 25-2 25-4 25-2 25-3 25-2 25-2 27-2 26-3 26-3 27-3 26-1 27-2 25-2 27-1 27-3 27-1 26-1 28-1 27-1 28-1 27-1 27-1 27-1 28-1 27-1 27-1 29-2 27 0 29-1 28 0 29 0 29-1 28 0 29-1 28 0 28 0 28-1 28-1 28-1 27 0 28 0 27 0 28 0 25-1 26 1 27 0 26 0 25 0 26 0 25 0 24 0 25 0 47 0 43 0 42 0 39 1 37 2 34 0 32 3 31 0 29 1 26 1 32 1 27 2 24 1 17-18 4-25 3-25 6-23 3-25 6-25 2-25 4-25 5-25 3-25"/>
<path d="M5968 25074l-7 25-4 24-8 24-1 25 3 24 15 21 24 9 26 8 25 4 26 5 29 4 25 2 27 2 30 2 25 1 29 0 31 0 32 2 33-2 32 0 35 0 36 0 36 0 40 2 37 1 39 1 39 2 38 3 38 1 39 2 38 2 39 2 39 2 38 1 40 2 39 1 40 2 42 0 41 1 41 1 40 0 40 1 40 2 39 2 42 0 39 0 40 0 39 0 42 0 42 0 41-1 41 0 41-1 41-1 42-1 43-1 41-1 39-1 37 0 39-2 39-1 40-1 40-2 39-1 36 0 38-1 35-1 36 0 34-4 32-2 31 0 29-3 36 0 25 0 24 1 37-1 33 0 28 0 26 0 26 0 26 0 24 1 23-14 6-24 5-26 4-25-7-25-15-18"/>
<path d="M2150 25952l 6 28 2 24 1 28 2 31 2 30 2 24 3 30 4 28 2 26 0 28 1 25"/>
<path d="M1982 26930l 21-14 24-6 28-4 26-1 24 2 28 6 22 8 21 17 4 25-8 23-17 23-16 18-18 18-17 21-18 20-17 19-17 17-18 21-16 22-9 23 24 11 25-4 26-7 24-7 25-6 25-4 25-2 25 0"/>
<path d="M1975 27843l 18-16 27-7 25-4 27-3 25-2 26 5 16 19-11 26-20 21-22 16-22 16-22 15 21 12 26-4 28 1 26 7 24 10 22 10 22 13 19 16 2 25-17 23-22 21-22 16-21 11-24 9-26 8-27 3-25 1"/>
<path d="M13307 24547l 26 2 25 0 25 2 25 6 27 3 27 5 25 1 24 0 25 0 27-1 24-1 27 1 25-1 25 0 24 0"/>
<path d="M13913 24549l 26 0 24 1 26 3 27 1 29-1 27-2 29-1 27-1 27-2 25-3 27-4 25-2 25-1 25 0"/>
<path d="M14610 24487l 25-5 24 2 24 1 26 0 29-1 30 1 29 0 29 0 24 0 27 0 27 0 25 1 24 1 24 0"/>
<path d="M15187 24510l 24-11 27-4 25-2 27-3 29-3 28-4 24-3 27-3 25-4 28-5 28-3 25-3 27 2 25 1 24 2"/>
<path d="M12780 24818l 8 23-5 27-5 29 0 26 2 30 1 25 0 26-1 27-1 27 2 24 1 28 0 26"/>
<path d="M12700 25470l 19-17 24-6 26 0 25 6 20 15 20 16 8 25-2 29-10 22-14 25-16 20-20 21-18 19-19 16-22 20-19 18-21 19-14 19 23 9 29-1 26 0 25-2 31 0 25 2"/>
<path d="M12630 26171l 21-16 28-6 25-5 29-2 28 1 27 2 27 5 23 13 0 25-19 23-22 18-24 17-23 12 6 24 25 2 29 4 25 8 23 11 22 15 11 25-7 26-15 21-18 17-20 17-21 16-24 20-22 17-21 13-23 12-24 8"/>
<path d="M12715 26726l-7 25-7 27-9 24-11 24-10 26-7 28-3 24-1 28 5 23 21 19 21 12 25 4 31-2 24-2 24-6 27-6 23-9 24-10 29-15 25-14"/>
<path d="M12852 26847l-22 12-15 24-11 25-6 27-1 30 3 32 4 25 6 27 8 30 7 29"/>
<path d="M12755 27348l 24-2 30-6 28-7 29-6 29-7 27-6 31-5 25-2"/>
<path d="M12826 27374l-24 11-21 19-12 22-9 24-4 25 12 22 25 5 25-2 29-3 24-4 31-2 31-1 24 1 27 5 26 10 20 14 16 20 0 25-12 24-19 23-20 19-21 17-25 16-23 14-24 10-31 10-29 6-27 2-28-5-24-12"/>
<path d="M12777 27998l-24 17-19 19-18 25-12 21-10 24-7 27-3 29 3 30 3 31 7 29 8 27 15 22 19 18 27 14 25 6 27 0 26-7 16-18-15-19-20-14-25-12-23-5-23 5-25 18-16 21-12 24"/>
<path d="M12615 28700l 27 2 31-1 28-3 29-2 24-3 25-2 25-3 31-3 27-2 26-3-5 25-17 22-13 21-14 23-11 25-13 27-14 29-12 31-11 31-8 30-7 29-3 30-4 30"/>
<path d="M12821 29289l-23-14-29-7-24 1-27 8-20 15-18 20-14 23-5 25 12 26 18 18 21 15 27 15 26 13 26 16 21 14 23 20 18 24 10 26 1 30-5 23-11 21-17 22-19 23-20 22-20 18-24 15-25 7-22-15-6-27-3-29 1-35 4-25 4-27 7-27 6-28 7-25 7-23 12-29 12-22 18-22 19-15 26-12 26-6"/>
<path d="M12832 30084l-4-27-14-21-22-14-28 1-25 13-23 18-20 21-14 21-12 22-6 25 10 24 26 4 23-10 25-13 23-15 22-14 25-5 4 26-2 27-2 27-1 29-5 31-4 24-6 31-5 29-4 25-3 25"/>
<path d="M12537 30722l-3 28-8 25-6 23-8 24-5 23-7 32-5 31-2 25 8 24"/>
<path d="M12670 30806l-17 26-12 24-10 26-9 28-6 28-1 26 5 29 13 23 21 17 26 4 27-9 21-13 23-22 16-20 12-21 11-22 10-26 5-27-7-26-11-22-19-21-22-18-27-1-24 11-25 19-20 18"/>
<path d="M12453 31352l 11 24-1 28-1 25-1 27-3 26-3 25-4 31-3 28 0 26"/>
<path d="M12647 31365l-8 24-4 25-3 25 0 28-1 28-4 31-4 27-3 25-5 25-4 24"/>
<path d="M12414 31844l-10 23-3 30-2 28 0 27 1 26 1 27 7 29"/>
<path d="M12581 31853l 28 2 25 5 24 9 21 16 7 26-10 27-15 21-18 22-19 19-20 20-20 21-17 19-15 19-11 22 20 16 25 2 28 1 27 0 27 0 30 0 32-3"/>
<path d="M12351 32399l 14 25 7 27 1 25 1 28 3 28 1 31-1 30-6 31-6 31-6 29-8 24-8 27"/>
<path d="M12576 32401l 23-8 23-8 29-5 27 0 28 4 25 7 14 22-8 25-17 25-22 19-21 17-18 16-17 19 23 12 25-6 28-8 29-6 26-2 28 4 25 10 21 18 11 22-3 24-10 25-18 22-20 17-25 18-26 15-23 9-31 9-27 6-26 4"/>
<path d="M12390 32979l-8 25-7 27-6 24-6 25-5 25-5 25-5 26-4 24-4 31 1 25"/>
<path d="M12617 32932l-16 24-12 23-11 24-10 25-9 26-5 25-2 24 8 26 24 11 27 0 29-4 25 0 27-3 24-6 24-4 28-4 26-8"/>
<path d="M12786 32996l-17 19-10 25-5 26-2 31-1 25 1 24-1 26-1 25-1 32-2 30"/>
<path d="M12397 33557l 3 27 0 25 0 32-3 26-5 27-6 29-5 29-5 26-5 30"/>
<path d="M12612 33530l 27-8 27 0 28-8"/>
<path d="M12625 33563l-19 17-16 21-10 22-1 25 23 12 29 0 27-8 27-7 27-6 25-3 29-4 27 2 24 8 25 11 16 20-2 25-14 20-19 17-20 17-19 18-26 16-28 12-24 8-28 8-28 3"/>
<path d="M12355 34087l 22 14 2 27 2 27 1 30-1 26-3 27-3 26-4 28-3 31-5 31-5 29"/>
<path d="M12647 34043l-18 16-17 24-10 24-12 29-9 27-4 29-3 29-2 31 2 32 8 30 7 24 8 25 14 25 22 16 28 3 25-7 22-19 17-24 5-28-11-22-24-14-26 1-25 10-20 14-19 17"/>
<path d="M13197 24235l 26 1 26-3 26-2 31-1 27 0 28 0 29 1 30 1 33 1 33 1 34 1 25 0 25-1 27-1 28-1 26-1 28-1 25-1 25-1 24-1 36 0 34-2 34-1 30 0 26 1 24 1 30-1 27 0 27 1 27 2 26 2 24 0 28 0 25 3 25-1 25 0 24 1 25 1 24 0 26 0 25-2 24-4"/>
<path d="M14569 24240l 23-10 27-5 26-2 25-2 31 1 26-1 29 0 25 0 27 2 31 0 28 0 25-1 30 1 30-2 31 0 33 0 33 1 34-1 36-1 34 0 33 0 32 1 34 1 35 1 24 0 35 0 33 0 32-1 31 0 31 0 33 1 27 1 25 1 31 0 30 3 26 2 27 1 25 0"/>
<path d="M13679 24985l 7 24 8 24 12 22 12 22 23 9 15-19 12-27 8-22 9-25 10-26 7-27 6-27 7-26 9-28 5-28 5-26 8-24"/>
<path d="M14972 24904l 21 14 22 12 24 13 23 13 21 14 22 11"/>
<path d="M15137 24894l-26 3-18 20-16 19-17 22-17 25-13 22-13 22-12 23-13 22"/>
<path d="M13590 25583l 20 17 13 22 14 19 16 18 20 19 24 13 25-5 16-19 13-25 9-23 9-24 9-31 5-31 5-31 3-25 3-26 2-26 4-31 4-28"/>
<path d="M14957 25528l 26 8 22 15 22 17 21 15 23 11 25 10"/>
<path d="M15161 25505l-23 15-23 20-22 22-18 20-19 24-20 27-17 26-17 26-15 27"/>
<path d="M13631 26256l 11 22 11 24 10 23 13 24 14 21 17 17 23 11 18-23 18-28 14-27 13-28 11-29 12-28 8-30 7-29 5-30 6-29 3-26 2-30 1-25"/>
<path d="M15006 26245l 14 20 20 16 21 14 24 14 22 12 23 10"/>
<path d="M15162 26233l-23 12-18 18-22 22-17 19-17 21-17 22-16 22-15 23-13 21"/>
<path d="M13797 26866l 19 20 16 19 17 17 21 14 23 16 21 15 19 15"/>
<path d="M13938 26864l-20 20-16 20-19 25-15 21-16 22-13 22-14 21-15 22"/>
<path d="M15068 26882l 1 24 1 25 5 27 6 28 10 22 19 19 23 10 26-13 17-21 13-23 15-26 17-27 13-25 10-26 7-24 3-25 3-24 5-32 5-28 5-25 6-27"/>
<path d="M13828 27490l 8 26 7 24 15 20 25 1 12-22 13-22 12-23 9-29 10-27 9-28 9-28 7-25 6-28 4-24 3-24-1-24"/>
<path d="M15063 27405l 2 24 6 27 9 27 8 23 11 21 27-8 19-22 17-21 19-23 16-24 17-24 12-23 10-23 9-27 6-28 2-25"/>
<path d="M13812 28135l 3 25 7 24 12 23 15 20 18 19 20-13 13-25 13-25 10-23 10-25 10-29 11-30 6-32 5-31 3-28 2-24 1-24-2-25"/>
<path d="M15071 28028l 4 24 4 25 9 23 14 22 24 4 18-18 19-22 16-22 12-23 13-24 12-25 10-24 4-24 6-24 5-28 5-28 5-25"/>
<path d="M13875 28755l 5 24 9 25 9 26 9 26 12 22 26 0 13-24 12-23 12-25 10-22 13-22 10-25 10-24 7-24 9-28 5-25 4-27 1-24"/>
<path d="M15128 28781l-1 26 3 27 6 23 14 21 22-12 14-24 12-21 12-21 10-24 12-25 11-27 15-27 12-27 9-25 12-29 10-26 10-28 7-23 8-25"/>
<path d="M13804 29457l 21 12 22 15 17 18 16 20 16 19 17 19 21 19 22 13"/>
<path d="M13957 29453l-20 16-16 21-13 22-13 24-14 25-8 24"/>
<path d="M15039 29419l 14 23 15 22 13 21 13 23 13 23 18 16 25-5 21-21 17-22 16-25 14-28 13-24 12-26 14-29 13-27 11-26 9-25 9-28 5-29 4-27 5-25"/>
<path d="M2784 29098l 17-18 22-13 27-13 29-10 29-7 32-5 32-4 29 0 31 3 29 3 24 4 24 10 15 20-6 25-17 27-17 23-21 22-21 23-24 21-23 18-23 15-25 16-24 13-23 10 23-9 28-8 30-8 25-4 25-3 26-1 27 1 26 4 25 5 29 10 23 14 17 18 12 27 2 26-7 31-10 24-16 25-22 26-16 18-19 18-21 17-21 16-21 15-22 12-22 12-22 10-30 11-30 7-27 6-26 3-28 1-25-6-22-12-17-23"/>
<path d="M4535 29106l-1 28 3 30 0 27 0 27 0 28 1 27 1 25 1 27 0 27 0 25-2 24-3 29-3 24-3 25"/>
<path d="M5671 29052l 25-2 27 5 29 5 27 5 31 7 28 7 28 9 25 11 22 13 22 17 16 22 5 25-6 24-14 20-19 21-18 15-22 16-23 14-23 14-23 13-21 12-24 13-22 16-18 18 23 12 25 4 30 2 25 0 25 0 24 1 26 1 26 0 26 1 24 2 30 5 27 9"/>
<path d="M2409 31599l 2 30 0 27 0 24 0 25-1 27-3 25-3 28-2 28-4 28-4 30-5 29-3 29-4 27-4 28"/>
<path d="M2628 31598l-2 26 1 25 3 25 2 27 3 27 3 31 2 25 2 26 0 25 3 31 0 29 2 27 3 24 4 25"/>
<path d="M4215 31653l-25 5-14 23-7 27-2 27 0 31 5 29 7 25 13 25 18 21 21 13 23 10 26 2 27-5 25-12 24-17 20-23 11-21 10-23 8-30 0-29-7-29-13-30-14-21-20-20-26-13-29-1-24 11-25 17-18 17-15 21-17 26-13 27"/>
<path d="M4591 31599l-3 27 2 31 4 28 4 25 6 25 7 26 7 26 9 24 6 25 13 29 8 27 7 27 4 24 2 27"/>
<path d="M6127 31535l-1 29 1 29-1 28-1 27 0 28-1 26-2 24-1 26-5 25-6 25-9 28-4 25"/>
<path d="M6429 31618l 0 27-2 27 0 24 4 27 6 28 11 26 17 22 22 17 28 10 23 6 30-3 28-9 26-13 21-16 18-22 11-25 4-26-2-29-7-26-15-25-18-23-22-15-28-6-24 0-29 2-28 6-22 8-22 16-14 20"/>
<path d="M1925 34242l 27-2 26-11 25-15 21-14 23-19 24-20 25-24 17-18 17-22 19-25 19-30 19-32 20-33 19-35 18-35 17-35 17-37 15-36 13-36 12-36 9-35 7-34 5-32 3-30 0-30-1-26-3-27-6-34-8-28-11-29-14-23-23-10-22 17-18 21-17 30-11 24-13 28-12 31-13 34-12 36-13 38-11 40-11 40-9 41-6 40-5 38-2 37 2 34 4 32 5 31 8 32 9 28 11 27 11 23 13 21 19 26 18 20 23 20 21 12 28 7 25-1"/>
<path d="M2556 33991l-5-27-17-19-23-9-25 2-27 11-22 18-20 25-16 24-16 27-14 28-9 27-4 28 7 23 27 9 27-2 23-7 25-12 25-15 22-16 20-15 23-17 19-19 16-21-19 15 0 30 3 25 7 25 7 24 10 26 11 29 12 32 11 33 11 34 7 23 9 34 6 24 5 24 4 24 3 25 1 26 1 24 0 25-4 34-7 29-8 26-14 26-17 19-27 11-27 0-31-10-24-13-25-18-24-19-25-22-24-23-24-21-22-20-19-18-18-25"/>
<path d="M3142 33979l-4 28-2 28-1 27 1 26-1 25 1 25 1-24 3-26 8-29 11-29 14-29 15-27 17-23 17-22 20-21 20-17 25-14 25-6 24 10 14 23 6 26 0 27-3 31-4 24-4 26-5 31-3 28-2 27 0 24 3 25 8 25"/>
<path d="M4379 33890l"/>
<path d="M5113 33303l 18 16 9 24 6 28 3 27-3 31-4 25-5 25-6 24-8 28-10 26-5-31 8-31 11-32 11-31 11-31 12-28 12-25 12-24 11-23 15-27 14-25 15-21 19-21 24-15 25-6 22 10 13 26 8 24 6 30 1 25 2 25 1 26 2 27 1 29 1 29 1 28 1 25 4 30 4 24 8 23 11 22"/>
<path d="M4895 33777l 24 3 32 0 32-2 26-3 28-4 30-6 32-7 34-8 35-8 34-8 35-8 33-7 32-5 33-5 30-4 28-3 28-2 28-2 29-2 28-2 28-1 27-2 24 0 24-1 34-1 31-1 30 0 26-1 28-1 24 3"/>
<path d="M4874 34590l 23-14 22-19 19-25 19-28 14-21 15-26 15-27 17-30 17-33 17-35 17-36 17-37 17-36 16-36 13-35 13-32 10-31 8-30 7-29 5-28 3-28 1-26 0-34-4-30-9-27-15-21-25 11-16 23-14 25-14 30-10 23-9 26-9 30-10 32-8 34-7 36-5 37-3 38-3 37 0 36 1 36 2 33 4 30 7 28 6 25 14 32 14 26 19 25 17 21 17 17 22 15 25 8"/>
<path d="M5331 34345l-26 5-24 14-20 16-18 20-15 20-15 25-8 24-4 24 21 16 23-9 23-13 24-16 21-19 16-18 16-23 10-24-5 25 4 27 10 26 9 26 9 28 11 29 10 27 7 28 4 31 0 24-2 26-5 25-7 24-11 23-12 21-15 19-17 18-24 15-26 6-24 0-27-8-25-17-16-19-13-22-8-23-6-27 1-31"/>
<path d="M5596 34312l 9 23 1 27-1 26-1 26-3 27-3 25 9-28 9-31 10-22 10-28 11-26 12-25 15-21 18-16 21 15 11 24 8 24 13 22"/>
<path d="M4538 33169l 21-11 24-9 28-8 25-4 27 1 22 11 10 25 0 24-6 29-9 27-14 28-14 24-15 22-16 25-13 22 16 18 25 5 26 2 28-1 33-3 26-3 30-4"/>
<path d="M3122 36850l 1-27-2-25-7-25-17-24-21-18-27-16-22-10-29-9-24-4-26 1-27 5-27 7-26 10-24 13-21 19-19 23-15 25-12 25-7 27 4 25 19 23 18 16 22 14 25 12 28 11 31 11 29 11 30 14 29 15 27 15 26 16 24 16 21 19 17 21 13 25 10 27 6 29 0 31-2 30-5 26-9 23-16 21-25 16-25 4-25-4-25-13-21-22-16-23-14-28-11-33-7-25-5-25-2-26 0-27 2-25 4-26 6-24 8-24 12-32 13-31 11-29 16-28 18-23 19-20 21-18 23-14 24-14 24-11"/>
<path d="M3763 36797l 28-4 27-3 26-6 27-7 27-10 28-12 29-11 27-11 26-9"/>
<path d="M3845 36795l-20 15-22 19-16 22-13 21-12 26-8 26-1 24 11 21 23 9 25 0 25-3 29-5 31-9 24-9 29-7 31-4 31-2 30 1 30 3 27 4 24 9 21 12 21 18 15 22 5 28-1 25-6 24-10 24-13 25-16 20-19 19-22 14-30 14-25 8-27 7-26 3-31 1-31-3-25-2-27-4-23-6-23-9"/>
<path d="M4901 36853l-20-15-11-21 20-18 28-12 29-10 24-5 25-4 25-2 27-2 31 0 27 1 25 5 13 21-13 23-16 19-17 18-18 19-20 15-20 15-24 16-24 16 16 21 24 3 30 5 25 0 25 3 28 4 26 4 26 7 26 10 19 19 11 27-1 30-10 30-13 23-16 25-20 24-23 21-24 19-25 18-26 14-26 10-24 7-24 5-31 5-29-1-23-6-26-11-22-12"/>
<path d="M5921 36772l 7 23 4 30 2 24 1 27 1 32 1 33 1 34 0 34-1 33 0 31 0 29-2 27 0 25-1 28-1 26-1 24"/>
<path d="M6758 36811l 19-19 27-8 25-3 30 0 28 2 26 2 27 4 27 5 24 7 22 12 20 18 10 25-3 28-11 27-13 30-11 21-20 31-14 20-17 19-17 20-17 19-17 18-16 18-18 18-26 23-27 21-25 18-25 17-22 14-25 16-23 13 29 1 30-5 25-6 25-4 26-6 28-5 28-4 29-3 28-3 26 2 25-2 24 0 28 2 28 4 24 4 23 8 23 8"/>
<path d="M7938 36685l-5 25-4 28-5 27-6 31-10 31-8 32-11 34-9 32-10 32-6 29-8 28-7 23-4 27 13 22 28 6 29-1 25-1 25-1 25 0 27 0 31 3 30 0 24-3 32 0 30-2 29-2 27-2 24-3 21-12"/>
<path d="M8065 36916l-12 26 1 24 2 27 4 28 7 29 6 27 5 25 3 27 3 26 1 25 0 25"/>
<path d="M8978 36798l 26-3 29-5 27-6 29-6 30-7 23-6 25-5 28-6 25-4 24-1 6 23-8 28-10 30-9 27-9 32-5 24-9 27-8 27-10 28-12 29-8 28-9 28-9 27-7 25-6 23-6 32-2 28-3 29-1 27 2 25"/>
<path d="M10212 36653l-20 14-15 21-17 26-12 22-9 23-11 26-11 28-10 29-11 31-9 32-8 33-4 31-4 29-3 27-2 25-3 33 1 31 4 27 8 22 16 25 19 20 28 15 29 9 30 3 28-1 27-6 23-12 18-19 14-24 10-27 3-29-1-25-8-24-11-21-19-15-25-9-25 4-27 12-23 16-24 17-22 15-16 20"/>
<path d="M16462 24452l 23-8 29-6 25-3 30-3 25-3 26-4 30-3 32-3 33-3 26 0 27 0 24-1 31-1 27 1 27 1 27 3"/>
<path d="M17728 24373l 24-2 27 2 26-1 29-1 28-1 24 2 27 0 24 6"/>
<path d="M18057 24371l 25-6 27-3 26-5 30-3 26-3 27-4 25-4 25-3 25-2 25-1 28 1"/>
<path d="M18522 24347l 23-9 28-5 28-1 26-2 25 0 25 0 26-1 24 3 24 3 25 5 26 3"/>
<path d="M16635 24940l 19 16 11 24 14 21 11 24 22 10 15-21 10-24 7-28 8-24 8-31 5-24 6-27 4-27 4-27 4-27 6-24 4-26 5-25 4-26"/>
<path d="M17797 25350l 14 22 6 23 9 25 11 22 15 22 16 18 24-6 15-24 15-28 11-24 9-27 8-27 8-28 7-29 5-28 7-25 4-25 7-31 4-25 5-26 0-24"/>
<path d="M16720 26052l 15 20 16 19 17 20 20 14 26-1 17-17 17-24 16-24 11-21 12-24 8-23 5-24 8-26 7-27 3-26"/>
<path d="M16710 27281l 7 24 11 24 13 22 20 16 25 7 21-11 17-20 15-23 12-22 10-22 12-26 7-27 8-27 6-24 7-27 4-25 7-26 7-24"/>
<path d="M16661 28568l 2 27 6 27 9 26 8 23 9 24 14 22 22 15 22-13 16-25 15-26 11-28 10-23 10-22 12-22 11-28 7-25 9-26 8-24 6-24 3-25"/>
<path d="M17709 25986l 22 14 16 21 13 23 10 23 25-3 19-20 17-25 17-25 13-21 13-24 13-24 12-24 14-23 9-24 9-29 7-25 10-25 9-22"/>
<path d="M17796 26598l-1 26 2 26 5 27 9 22 25-1 17-17 15-27 11-24 13-27 12-29 12-29 13-29 12-29 10-28 7-24 10-26 13-25 8-23"/>
<path d="M17729 27249l 8 24 12 24 13 21 18 20 19 16 23-13 15-19 11-21 11-25 14-30 13-32 11-32 11-31 12-30 9-30 8-27 4-24 8-24 5-25"/>
<path d="M17677 27984l 18 19 18 23 15 20 16 24 16 21 20 16 24 0 16-18 14-22 13-32 11-24 10-28 10-29 12-30 10-30 10-30 9-29 10-28 9-27 8-26 7-24 9-30 7-24 9-25 9-27"/>
<path d="M17622 28636l 26 4 19 18 16 20 14 23 14 22 16 19 18 17 25-1 18-17 18-27 17-26 15-29 11-22 12-24 9-24 12-26 11-26 12-27 12-29 14-29 14-28 13-27 12-23 12-21 13-26 13-23 13-26 11-26 7-23"/>
<path d="M17714 29284l 14 20 13 22 11 24 13 23 14 22 11 21 26 0 10-22 9-24 7-30 7-34 5-24 5-25 5-28 6-28 5-31 5-31 6-29 4-28 5-27 5-24 8-33 8-29 6-27 11-30 13-26 12-24 11-23"/>
<path d="M16153 31420l-6-24-14-20-21 14-12 23-8 26-7 30-6 33-2 34-1 35 1 32 6 31 7 30 12 23 21 23 25 14 29 8 26 0 26-4 30-11 25-11 24-15 24-18 19-20 19-23 12-23 10-23 5-25 3-31-5-26-9-26-16-24-15-26-13-24-16-23-16-20-22-19-21-15-24-10-26 0-22 11-21 21"/>
<path d="M16771 31372l-23 16-19 17-16 22-15 25-7 24-3 24 1 24 11 28 13 21 25 18 22 10 23 7 26 3 26 2 27-2 29-6 24-8 27-14 22-20 16-19 13-21 11-22 8-29 1-27-6-26-12-26-16-24-24-20-22-16-24-10-24-6-28-3-28 2-27 4-22 11"/>
<path d="M17319 31374l-22 13-19 19-14 21-10 27-5 23 0 25 6 25 12 27 18 23 23 16 24 11 29 5 25-1 26-5 27-10 26-15 26-19 23-22 18-24 12-25 9-24 2-25-6-24-11-23-18-22-22-19-24-13-25-9-25-6-29 0-25 3-24 7"/>
<path d="M17940 31320l 5 27 6 28 3 28-2 31 0 25 0 26 0 27-1 27 1 26 1 24 0 29 4 25 3 27-1 24"/>
<path d="M16248 32049l-22 11-14 21-11 26-8 24-6 26-1 28 3 26 6 25 11 23 15 22 19 19 22 13 24 9 26 6 29-1 30-6 25-7 24-10 21-13 19-16 17-19 14-23 9-25 6-27 3-27-1-26-6-24-14-28-17-22-22-19-22-16-25-9-25-5-30 0-24 7-22 15"/>
<path d="M16973 32048l-25 3-24 11-20 18-15 26-7 24-4 29-3 31 4 30 11 29 17 27 23 22 20 14 28 13 29 5 29-1 27-8 26-15 23-21 18-18 13-21 10-28 2-31-2-31-7-23-12-29-18-25-23-22-22-19-27-12-27-6-28-1-23 11"/>
<path d="M17478 32001l 11 24 9 24 6 24 1 27 1 30 0 24-1 25-4 25-3 24-3 31 0 25 0 26"/>
<path d="M17952 32054l-20 14-13 23-9 24-4 28 0 25 3 29 9 24 18 21 22 11 26 1 24-6 27-12 22-13 20-15 18-18 15-22 8-25 5-26-1-26-15-23-20-24-24-20-23-9-24-6-26 0-27 3-27 7-24 9-27 12"/>
<path d="M16228 32683l-23 10-13 22-12 26-8 25-7 31-2 25 1 26 6 26 7 24 9 24 12 22 14 22 23 21 23 13 25 8 25 1 28-6 28-15 22-16 19-20 22-25 14-26 9-27 4-26 2-25-3-29-12-25-21-24-23-20-21-12-27-12-26-7-28 3-27 7-23 12-21 18"/>
<path d="M16962 32676l-24-4-24 8-22 15-13 21-11 25-13 30-7 23-5 24 0 25 5 25 8 23 15 27 21 21 23 14 26 7 29 2 28-3 26-9 23-13 20-19 15-22 13-23 8-26 3-27-3-26-9-24-15-24-19-22-26-18-29-13-26-6-25 0-28 6-22 14"/>
<path d="M17524 32676l-7 27 1 31 0 25 1 25 0 25 2 25 1 28 2 27-2 27 0 25 0 30 4 25 7 25"/>
<path d="M17961 32645l 2 25 6 24 3 32 3 25 1 28 2 27 3 30 0 29 1 31 0 28-1 27 0 26-1 31 0 28 1 25"/>
<path d="M16294 33291l-25-7-23 10-23 17-20 22-13 22-13 25-14 29-13 33-7 23-5 24-4 34 2 32 9 31 15 31 17 26 19 21 27 17 26 6 28 2 28-5 28-8 25-12 22-15 22-18 17-22 15-24 8-26 5-25 2-25-5-31-10-23-12-22-14-21-16-20-19-17-25-17-25-9-25-4-24 5-22 11-22 16"/>
<path d="M16889 33334l 10 22 4 28 1 30 3 28 1 28-2 30-2 32-2 31-2 33-1 31 0 27 4 28 9 22"/>
<path d="M17318 33416l-17 19-3 26 2 28 6 28 8 26 12 24 11 22 19 22 24 12 25 1 24-9 20-14 22-17 19-20 12-25 10-25 6-27-2-24-9-23-16-23-21-22-26-15-29-8-29-1-29 3-25 7-22 13-16 20"/>
<path d="M17853 33411l-20 13-11 23-2 24 2 24 6 25 11 22 16 21 17 19 20 18 22 15 22 11 25 5 28-3 30-8 26-14 24-19 16-18 15-28 10-22 10-25 3-25 0-24-7-29-15-28-15-19-24-21-26-13-27-5-32 4-25 7-25 12-22 13-21 13"/>
<path d="M16165 34036l-24 9-15 23-8 27-6 26-5 26-3 28 0 30 4 28 9 29 11 30 13 29 13 24 16 20 24 16 24 8 29 3 27-2 26-12 22-16 21-18 20-22 15-26 9-28 7-28 4-28-4-25-7-24-11-22-14-19-16-19-19-15-27-17-30-9-25 0-28 8-23 13-19 17-15 25"/>
<path d="M16780 34033l 1 30 2 28 6 30 5 31 1 25 3 25 1 24 0 25-2 24-2 25-1 28 0 27"/>
<path d="M17251 34074l-14 23-9 25-9 25-5 26 0 26 4 25 13 26 16 19 15 21 24 13 27 9 26 0 24-8 28-13 26-16 22-21 16-25 13-29 7-30 0-28-8-27-18-26-24-19-20-13-29-11-29-4-29 1-25 7-23 10"/>
<path d="M17992 33939l 2 26 0 25 0 29 2 25 0 26-1 27-2 29-2 27-1 25-1 31-1 30-3 31-1 29 0 24"/>
<path d="M16088 34783l-13 21-2 31 1 32 4 24 6 25 9 25 12 25 13 25 13 20 21 21 21 13 29 4 24-8 26-17 21-18 19-22 16-24 13-26 9-28 5-25 2-25-4-28-12-24-18-19-25-17-24-8-30-4-29 6-28 13-24 16-19 19"/>
<path d="M16778 34634l-8 23 1 25 2 26 7 30 7 30 2 25 3 27 2 27 2 28 1 29 1 28-1 25 0 30"/>
<path d="M17299 34639l-14 22-3 25 0 25 0 26 3 30 2 30 3 32 1 31 4 30 2 29 4 29 4 29"/>
<path d="M17826 34792l-13 23-9 25-6 23-2 27 0 28-1 25 4 25 12 22 22 19 26 5 28-2 28-7 31-11 21-13 20-17 22-20 17-21 15-23 11-24 8-29-3-28-11-26-19-21-26-17-22-11-30-8-31 4-24 7-26 12-24 15-21 17-15 19"/>
<path d="M16117 35477l-24 11-9 28-5 31-1 28-1 32 3 31 4 30 8 32 12 33 15 28 19 24 20 16 25 15 31 3 27-3 28-7 27-15 27-20 17-17 22-25 18-28 12-26 11-28 6-25 0-31-10-30-12-21-18-24-21-21-22-13-26-5-29 0-28 5-28 11-22 14-16 22"/>
<path d="M16800 35397l 12 25 9 27 6 29 3 30 3 25 2 26 2 29-1 27 0 28 0 27-2 25 0 25-1 26"/>
<path d="M17290 35422l-5 26 9 25 7 23 9 28 6 25 1 24 1 29 5 30 0 29-1 25 0 29"/>
<path d="M17861 35398l 20 16-4 26-4 26-5 27-4 29-1 31-4 32-5 30 0 26 0 29 4 28-1 26"/>
<path d="M16194 36094l 0 26 2 25-2 29-3 26-4 29-2 31-2 30-4 30-5 29-3 28-1 25-2 24 2 26 4 30"/>
<path d="M16645 36202l-15 23-2 26 1 24 7 26 13 27 13 25 16 22 23 16 24 8 25 2 25-2 25-9 25-15 22-18 16-18 13-20 11-22 8-25 6-25 3-28-4-29-8-27-14-21-17-17-21-15-27-5-26 2-26 10-27 17-21 19-18 19-15 19-8 23"/>
<path d="M17205 36125l-11 23-1 28-2 27 3 27 3 29 9 27 16 20 17 17 21 15 23 9 28 2 27-5 26-15 22-20 14-21 10-25 7-24-1-28-7-25-18-20-26-18-21-15-22-10-25 1-25 3-25 9-22 16-9 25"/>
<path d="M17732 36118l-7 23-7 27-6 24-6 24 0 29 4 24 9 29 18 15 25 11 25 11 25 0 28-3 28-4 24-9 22-10 26-16 20-17 17-19 15-22 10-23 0-24-13-25-24-13-22-12-24-12-25-10-25-1-25-2-26 7-25 8"/>
<path d="M8696 27754l-16-20-2-25 12-22 19-16 23-12 22-10 28-9 28-5 31-1 26 0 26 4 29 10 21 15 16 23 7 23 3 30-3 36-6 28-6 30-10 29-11 28-13 29-13 29-16 29-15 29-19 28-19 28-18 26-19 26-18 24-18 23-20 23-18 21-17 19-23 24-22 20-21 16-25 17-22 11 28-10 26-9 30-13 22-9 24-11 25-11 25-10 25-10 25-9 25-9 25-6 25-6 34-6 33-6 28-2 26-2 28 2 24 6 13 21"/>
<path d="M9066 27487l 25 4 24-5 23-10 20-15 19-16 15-23 6-25-4-27-17-19-23-12-26 6-17 19-16 21-8 26-9 28-1 24 6 24 7 24 14 25 16 18 22 15 27 9 28 4 27-2 25-4 27-6"/>
<path d="M9229 27499l 3-25 5-26 3-24 0-27-3-24-5-24-8-23 0-24-23-8-24 13-14 22-15 26-10 26-10 29-8 27-2 24-1 26 8 26 20 19 24 6 24-6 21-12 21-18 17-18 16-21 11-22 9-28 7-25 1-25-6-25-16 18-2 27 5 26 8 27 11 30 11 28 12 28 12 25 12 28 9 27 11 26 10 26 7 25 7 24 3 28 0 26-3 28-7 24-17 19-24 8-26 0-26-7-22-10-22-13-22-14-22-17-18-16-17-18 0-24"/>
<path d="M9743 27648l-21 14-21 15-27 19-22 14-25 15-26 17-25 14-27 15-24 16-20 17 27 4 25-2 25-3 25-3 28-1 25-2 25-1 27 1 26 5 24 5"/>
<path d="M9572 27883l 25-5 26-6 24-5 24-6 24-7 23-9 27-4 27-1"/>
<path d="M9994 27714l 17 17 11 25 8 24 4 26 3 27 2 24-2 25 12-24 6-29 6-28 7-29 8-27 7-23 13-27 12-23 15-22 23-9 22 17 16 24 12 23 11 23 10 27 8 26 9 25 8 24 13 21 14 21"/>
<path d="M8411 29538l-5-24 10-23 12-25 17-20 21-20 21-16 25-11 23-7 25-5 26 6 18 17 11 27 0 28-3 26-9 31-12 34-10 24-13 26-13 27-15 26-18 26-18 26-19 25-17 24-18 24-16 23-18 22-16 20-16 19-22 25-18 21-18 20-16 18 22-9 23-12 28-16 24-13 26-13 27-13 28-13 27-12 28-12 27-12 28-11 26-10 25-7 30-8"/>
<path d="M8806 29193l-7-25-8-26-8-23-18-18-24 3-20 18-17 25-12 23-8 24-8 28-3 26 13 21 26-7 21-15 24-18 20-19 17-21 15-19 11 24 11 21 14 26 11 24 9 27 9 28 9 30 6 27 4 27 2 26-3 24-5 24-8 23-18 21-22 10-25 3-25-3-23-9-24-10-20-14"/>
<path d="M9049 29510l 20-18 22-14 22-8 24-8 23-9 22-10 25-12"/>
<path d="M9116 29371l 12 25 10 23 10 25 9 26 10 26 9 23 7 25"/>
<path d="M9538 29508l 18 17"/>
<path d="M9647 29531l"/>
<path d="M9756 29513l"/>
<path d="M9872 29479l"/>
<path d="M10236 29148l 26-11 27-4 27-8 28-8"/>
<path d="M10268 29248l 26-3 24-4"/>
<path d="M10677 29125l-1-27-3-25-6-24-17-22-25-6-24 4-26 10-21 14-19 21-17 25-17 30-14 31-10 33-7 31-1 31 6 27 11 22 21 19 25 8 33-1 27-6 27-11 20-15 21-17 15-19 15-19 11-25 7-26 1-24-5-24-13 25 6 27 7 25 11 29 11 29 12 30 12 31 13 31 12 33 10 23 8 24 9 25 8 24 11 34 7 34 4 34 1 34-2 33-6 33-9 31-14 31-16 27-19 22-20 17-22 12-31 8-25-1-25-8-27-14-25-22-17-18-15-22-13-24-12-28-10-29"/>
<path d="M10484 29105l 20-17 22-15 20-16 25-20 24-16 22-16 18-18 18-17 22-17 20-15 8 25-11 28-10 23-13 26-15 28-17 29-17 31-19 32-21 31-21 35-20 35-20 36-18 33-16 30-15 27-12 22-12 25 18 19 32-10 30-18 24-16 24-19 26-20 26-22 25-20 22-21 22-19 20-18 19-16 25-20 23-18 10 27-8 24-11 28-13 28-15 27-13 26-10 24-9 28-6 24 15 22 26 1 28-6 26-7 21 14-3 26-7 24-9 30-11 25-11 28-9 31-13 33-11 32-10 31-4 26 0 25 6 24 26 6 23-14"/>
<path d="M10955 28894l 13-21 21-19 20-17 24-14 26-12 24-7 29-4 24-1 25 9 11 24 0 24-5 24-11 28-17 31-11 23-14 24-15 24-18 25-17 25-17 25-16 25-14 23-14 22-18 29-14 24-11 27-3 26 10 22 24 6 30-3 29-9 24-10 29-12 28-16 31-16 28-18 29-19 28-20 25-20"/>
<path d="M11435 28573l-14-22-17-20-24-12-25 9-23 18-19 22-14 25-11 22-4 24 18 17 27-9 21-13 22-16 18-18 21-18 17-17 5 27 4 26 4 25 6 24 8 25 10 25 12 26 11 29 8 24 4 26 1 27-4 29-7 24-14 24-22 20-22 13-28 6-26-6-24-16-17-21-14-25-10-26"/>
<path d="M11536 28553l 23-6 25-7 25-8 25-9"/>
<path d="M11571 28474l 1 24 14 24 13 22 16 22"/>
<path d="M11730 28426l 5 25 7 27 8 23 7 23 9 26 8 26"/>
<path d="M14228 37656l-4 25 2 33 0 28 0 31 0 31 1 32 0 31-1 32-1 33-2 31 0 29-2 30-4 27-5 24"/>
<path d="M14507 37702l 4 24 2 25 1 25 0 27 2 32 0 25 0 25 1 30 1 31 1 31 2 28 9 24"/>
<path d="M14863 37742l-24 2-17 17-15 26-8 25-3 29 2 31 7 29 15 27 23 23 22 14 27 8 26 5 27 0 26 0 25-7 25-9 23-10 27-18 19-22 12-25 6-27-3-27-11-27-15-24-21-21-25-15-28-10-32-2-31 6-27 9-22 13"/>
<path d="M15358 37809l-24 8-23 15-14 24 0 25 11 26 17 22 19 15 26 13 32 9 30 5 31 2 28-3 26-5 25-8 24-11 21-14 18-21 11-28 5-25-1-26-9-27-11-25-13-22-18-17-26-15-27-3-26 2-29 9-21 11-18 17"/>
<path d="M2865 37949l 8 24 7 26 6 27 7 27 9 22 14 21 25-8 10-22 9-25 11-31 11-34 10-34 10-32 8-32 5-24 8-31 6-28 6-24 6-23 7-28 6-29 6-23 6-25"/>
<path d="M3869 37867l-9-23 12 25 10 25 7 23 10 29 9 22 10 22 13 23 24 3 11-26 10-28 10-32 9-32 7-31 6-30 6-31 5-30 4-27 4-26 3-29 3-28 3-25"/>
<path d="M4901 37674l 24-2 25 17 19 17 21 22 22 23 22 26 22 24 20 24 20 22 17 19 18 19 21 15"/>
<path d="M5091 37662l-22 16-18 23-17 24-20 30-17 21-16 24-14 23-13 24-11 23-15 31-11 25-5 29"/>
<path d="M5647 37775l 26-8 25 6 22 14 17 24 14 22 13 26 15 26 14 22 16 19 18 19 23 15"/>
<path d="M5853 37785l-26 7-24 15-22 21-16 20-16 23-15 25-15 28-12 26-5 24"/>
<path d="M6646 37776l 18 20 17 22 18 22 20 21 22 18 21 17 23 16 21 13 20 14"/>
<path d="M6835 37802l-26 0-21 18-15 19-14 21-15 24-11 21-10 27"/>
<path d="M7892 37774l 6 26 9 23 15 26 15 24 13 22 15 20 19 20 20 12 21-21 6-23 12-31 7-26 6-27 8-30 7-29 7-30 5-29 4-30 4-27 3-24 2-34 2-29 2-25 0-25-6-23"/>
<path d="M8918 37809l 2 26 7 23 14 23 14 21 18 21 22 12 24-2 19-22 16-24 11-24 10-31 10-30 12-32 6-25 6-24 4-25 3-25 6-35 5-28 2-29-4-28 1-26 8-24"/>
<path d="M16651 37763l 23-7 29-3 29-4"/>
<path d="M16666 37819l 27 6 24-4 28-4 29-3"/>
<path d="M17015 37569l 20-15 25-10 28-7 28-7 25-6 25-7"/>
<path d="M17046 37555l-19 18-20 20-16 23-5 27 13 23 26 10 28 3 26-3 30-7 26-7 29-6 25-6 27-6 29 0 26 5 27 7 22 12 15 23 6 27-12 26-19 15-22 22-19 17-26 17-28 13-28 10-27 3-27 0-29-3-23-9-24-7-23-10-25-10"/>
<path d="M3045 38755l 5-26 1-26-11-26-20-20-26-12-29-7-25-4-26 3-25 7-24 11-21 17-19 22-14 23-8 23 2 29 12 21 22 20 24 12 33 10 26 3 27 5 29 2 28 2 30 2 28 1 28 2 28 1 26 2 25 4 33 7 28 12 22 14 18 23 6 23 0 30-8 32-9 23-12 24-15 23-17 22-19 21-20 17-22 17-22 15-24 10-23 12-34 6-30 4-30-7-26-13-24-21-23-25-14-19-19-31-14-32-10-36-4-27 0-29 1-26 5-30 6-25 9-24 11-24 13-23 14-23 16-19 16-22 19-19 21-17 24-18"/>
<path d="M3779 38707l 19-17 23-13 28-9 26-3 28-4 26-6"/>
<path d="M3860 38648l-23 7-19 16-19 22-12 22-10 23-5 25-1 27 5 26 15 21 18 17 28 9 28 2 25-3 27-5 27-6 30-8 25-7 25-7 30-6 29-5 28 2 28 2 26 4 20 14 8 23-4 27-11 25-14 27-19 25-24 25-25 23-26 24-25 19-24 16-20 13-27 13-26 7-27 2-25-6-25-10-21-14-23-17"/>
<path d="M8030 38698l-12 27-11 28-8 25-10 26-7 26-5 29 1 28 16 23 24 10 27 1 28-3 30-5 34-8 31-13 32-13 30-13 26-10 28-8 20-15"/>
<path d="M8162 38758l-7 23 1 28 2 30 2 28 0 26 0 27 0 30 1 27 3 24 6 29"/>
<path d="M8920 38600l 27-6 28-2 24 0 31 3 31 3 25 0 26 0 30 1 24-2 27-2-2 27-10 30-10 24-13 24-9 26-7 28-9 29-9 31-9 34-8 34-7 33-4 25-5 32-3 28-2 31-3 24 5 24"/>
<path d="M10126 38676l 10-23 26-6 28-1 27 0 26 6 22 10 9 23-3 25-10 24-15 27-14 23-14 22-14 20-14 22-10 23-12 24-8 26"/>
<path d="M10184 39124l"/>
<path d="M14202 38846l 5-25 0 27-8 31-10 27-9 26-9 28-6 26-9 29-9 26-8 24-7 24-7 28-6 24-6 26 18-23"/>
<path d="M14465 38885l-16 20-13 24-7 25 1 28 5 24 16 21 22 15 25 4 25-3 27-10 26-12 25-19 22-19 18-22 0-28-7-24-14-25-18-23-19-16-24-12-27-3-25 3-27 11-23 14-5 25"/>
<path d="M14991 38847l-24 1-23 13-18 20-15 20-14 21-12 21-6 25 3 24 11 24 24 14 25 3 27 2 24-2 26-7 24-7 22-11 18-18 13-22 11-26 4-25-2-28-8-26-10-23-19-18-25-13-27 0-24 7-26 13-16 20-6 27"/>
<path d="M15450 38861l-24-8-24 14-17 21-16 18-14 21-16 23-10 23-8 27 0 25 7 27 18 18 23 12 25 10 24 4 27 0 24-6 28-7 25-11 25-13 19-17 17-19 12-22 11-24 1-27-7-25-11-24-20-20-19-18-23-9-25 4-26 9-18 21"/>
<path d="M2858 39949l 11 23 16 25 14 25 14 21 13 22 18 24 15 21 20 12 13-22 11-25 8-27 8-25 8-27 7-28 7-29 6-30 5-31 4-30 4-31 4-29 4-24 3-24 4-33 4-31 3-25 3-26 1-24 0-25"/>
<path d="M3867 39772l 16 20 16 18 18 20 17 18 17 17 17 19 16 18 20 18 16 19 22 15"/>
<path d="M4056 39753l-24 12-17 21-15 22-16 28-17 27-16 25-15 25-13 20-14 25-11 24"/>
<path d="M8073 39683l 25 4 25 13 20 13 22 13 21 12 20 18 22 15"/>
<path d="M8264 39629l-26 2-22 17-16 20-16 25-16 22-14 23-15 26-9 26"/>
<path d="M8965 39654l 10 23 21 22 18 16 27 13 26 12 27 12 25 11 24 10 23 6 28 4"/>
<path d="M9176 39673l-25 11-21 15-21 19-19 21-19 23-18 25-15 22-15 24-13 24"/>
<path d="M16629 39165l 25-2 29 0 29 0 26 0"/>
<path d="M16615 39281l 27-2 31 0 28-5 28-4 28-6 31-4"/>
<path d="M17053 38961l 6 24 6 25 5 31 0 27-3 29-2 29-1 30-3 31-6 34-7 32-6 32-6 30-5 31-3 29-5 25 0 27 3 25 7 24 6 24-3 25"/>
<path d="M3851 40853l 25 0 27-2 25-2 29-2 25-5 29-8"/>
<path d="M3960 40825l-26 8-18 18-8 28-6 26-5 30-1 26-1 25 3 28 4 25 10 24 21 11 24-7 28-7 22-10 27-12 24-9 27-9 24-2 28 0 25 3 24 9 18 20 7 27-2 28-7 28-11 28-14 23-16 20-19 20-21 18-22 12-26 8-27 4-27 3-26 0-28-5-28-4-25-6"/>
<path d="M8107 40674l-19 20-10 22-9 24-9 25-9 24-8 25-9 26-7 23-8 28-3 29 0 25 10 24 20 16 23 7 26 1 25-6 26-8 27-10 27-12 28-15 27-13 22-13 20-18"/>
<path d="M8168 40867l 4 25 4 27 3 26 0 26-1 29 1 27 1 24 5 26"/>
<path d="M8923 40823l 21 14 25-3 27-5 25-10 25-9 25-10 24-5-4 28-7 27-4 26-6 23-8 31-7 23-6 25-7 31-5 31-4 31-5 29-4 24-4 26-3 25"/>
<path d="M18894 39747l-25-2-23 7-25 4-24 5 5 24 0 25-4 26 0 26 0 28 1 30 3 24 1 26 1 28 1 28 3 25 0 25 2 25 1 24 3 28 0 26 4 27 3 24 0 24 2 26 0 25 22 12 24-2 24-4 24-4"/>
<path d="M19001 39891l-5 26-6 26-5 24-9 27-4 25-1 24 21 16 27-1 24-4 27-5 24-7 27-8 21-11 22-15"/>
<path d="M19106 39918l 9 23 5 27 7 26 6 27 1 24-1 25 0 26"/>
<path d="M19342 40121l 12 23 5 27-3 27-10 28-15 24"/>
<path d="M19692 39836l 27 1 24 0 27-1 27 0 28-2 25-1 25 1 0 28-4 28-7 26-5 27-3 31-5 25-2 25 0 29-2 28-4 25 0 25"/>
<path d="M19990 39687l 26-5 25 0 25 1 27 2 25-1 24 1 21 16 9 22 6 28 3 28 7 25 6 28 3 28 3 28 2 25 2 25 2 26 3 27 0 30-1 27 0 25 1 28 1 26 5 25 2 26-11 21-26 3-26 0-26 1-25 1"/>
<path d="M20111 37727l-13 27-10 28-10 24-10 24-9 25-9 25-8 25-8 25-9 25-7 23-8 28-7 24"/>
<path d="M20362 37759l-17 20-11 25-6 25 4 27 14 21 25 5 27-2 29-10 23-12 22-15 20-17 18-24 7-23-4-26-15-19-22-17-26-11-24-4-25 3"/>
<path d="M20745 37744l-16 21-9 23-3 25 4 28 10 23 13 25 21 16 25 8 25 0 26-7 27-14 19-16 14-21 8-23 1-24-10-25-16-20-22-17-27-9-26 0-28 9-22 14"/>
<path d="M20054 38201l 6-23 3 27-9 28-8 24-9 25-10 25-11 24-10 28-9 25-6 24"/>
<path d="M20402 38170l-16 23-12 22-9 25-1 30 7 26 17 25 18 16 25 15 26 7 30-1 25-7 26-12 26-17 21-21 14-23 9-28-5-25-16-22-21-18-25-13-26-12-27-7-26-3-24 0"/>
<path d="M20848 38089l 3 28-5 27-4 25-6 26-8 27-7 30-6 23-7 27"/>
<path d="M20027 38597l 2 26-5 28-3 26-4 26-2 24 2 28"/>
<path d="M20513 38564l-16 21-19 20-18 22-12 22-9 23 7 25"/>
<path d="M20701 38571l-13 22-11 24-11 24 1 26 11 21 19 16 24 6 25-2 24-4 29-12 27-14 26-18 19-17 16-18 14-22-5-24-19-19-27-13-25-9-27-3-29 1-29 5-28 9"/>
<path d="M20019 39000l-11 26-7 26-12 27-10 26-11 28-10 29-9 28-9 27-7 25-6 26"/>
<path d="M20408 38970l-13 25-8 27-6 23-6 29-2 26-3 25 0 25-4 26-5 26"/>
<path d="M20757 38943l 20 16 3 25 0 27-1 27-3 28-3 28 0 28-3 26-1 24-2 25-1 25 9 22"/>
<path d="M14123 40645l-26 8-19 17-13 20-11 25-8 25-8 24-5 26-2 25 0 26 9 26 17 21 22 11 29 8 27 2 26 1 27-1 26-5 23-6 26-12 20-15 18-16 15-20 11-23 8-23 2-24-5-25-10-22-13-21-19-17-25-15-27-8-26-5-26-2-24 0-26 5-16 19"/>
<path d="M14586 40647l-24-2-18 18-11 22-8 31-5 25-1 26 3 25 6 25 7 24 12 21 18 24 21 20 23 16 22 12 25 11 26 4 28-4 25-9 21-16 16-22 12-23 2-25-4-26-7-28-13-23-14-22-16-25-16-21-22-17-25-6-28-3-25 4-18 19-1 25"/>
<path d="M15154 40597l-8 25-5 24-7 28-5 26-8 26-4 27-5 30-10 29-5 27-1 25-4 26 0 24 1 25"/>
<path d="M15473 40658l-22 14-17 19-13 20-10 26-3 29 1 24 6 29 6 23 9 24 13 21 19 17 21 14 25 13 29 6 28 1 26-4 26-9 24-13 22-17 19-23 11-25 8-27 2-29-6-30-11-30-12-21-18-24-21-20-22-13-24-7-24-3-26-1-24 0-23 13"/>
<path d="M16520 40896l 26-1 24 3 24 2 26 0"/>
<path d="M16522 40962l 27-2 28 0 28-2"/>
<path d="M16930 40747l 24-6 24 4 25 9 26 8 24 7 25 8 26 9 21 13 14 21-1 25-10 24-19 26-18 22-17 22-23 21-24 23-24 22-22 20-18 17-23 19-21 16-16 18 28 0 25-1 26 0 27 1 29 0 27 1 26 1 28 4 25 7 25 9"/>
<path d="M4111 41669l 17 22 19 20 18 16 16 20 18 20 21 13"/>
<path d="M4261 41607l-21 15-18 21-16 19-15 26-12 24-13 25-14 27-12 27-9 26-8 29"/>
<path d="M8108 41676l 26 8 21 12 23 15 25 10 24 9"/>
<path d="M8242 41615l-26 13-19 18-21 23-17 22-17 23-17 26-15 24-12 24-11 27"/>
<path d="M9058 41642l 2 24 7 27 6 26 8 28 6 26 6 24 22-18 13-28 11-26 10-25 10-25 9-28 8-26 9-27 8-26 9-26 9-25 8-24 11-24 11-31 9-27 9-27 9-24 7-23"/>
<path d="M10055 40664l 22-10 26 4 25 10 25 13 20 14 15 21 6 27-11 26-14 24-16 27-11 22-11 22-11 27-6 29-1 30 5 28"/>
<path d="M10199 41058l"/>
<path d="M9050 42625l 29-1 26-5 29-10 27-7 24-7 23-10 28-8 26-5 19 16-14 26-9 22-8 28-13 29-15 30-11 32-9 33-8 32-6 29-4 32-3 30 0 28-2 30-4 26 1 25"/>
<path d="M10001 42584l 23-11 25-6 27 0 24 0 25 5 18 18 4 24-4 25-9 28-10 22-9 24-9 25-6 24-4 28-2 31"/>
<path d="M10133 42972l"/>
<path d="M15285 42456l 7-23 23-16 21-13 24-9 27-3 27-5 27-4 27 0 28 3 25 7 27 11 20 16-1 27-12 22-15 19-18 19-18 18-22 17-24 15-25 15-24 12-27 12-23 8-24 7 28-3 27-4 25-4 29-3 30-8 29-3 31-4 28 1 29 4 23 8 23 13 21 18 6 25-6 26-9 24-16 25-20 25-17 17-20 17-21 16-25 19-25 15-29 8-25 4-24 1-28-3-29-3-25-7-31-5-24-7-23-11-19-17"/>
<path d="M15816 42863l 3 27-10 25-13 21-13 25-13 25"/>
<path d="M16334 42380l 2 27-11 26-6 23-11 22-13 25-11 27-8 24-6 26 2 26 8 23 20 16 23 10 25 6 25-2 30-2 28-5 24-8 24-6 22-11 22-14"/>
<path d="M16412 42494l-1 24-2 24 3 29 0 24-1 29-1 28-1 26 0 26-2 28 1 26 2 25 0 25"/>
<path d="M16880 42893l-14 23-10 22-12 28-12 25-13 22-13 25"/>
<path d="M17343 42419l-18 21-12 28-9 28-8 28-6 28-5 33-3 30 0 30 4 27 11 23 16 19 22 22 20 16 22 11 27 2 25-1 21-15 10-22 1-24-13-21-19-18-28-2-28 9-26 10-23 11"/>
<path d="M14896 43425l-7 27-5 28-5 24-4 30-4 29-2 28 0 27 3 25"/>
<path d="M15260 43349l 23 11 14 21 10 24 12 22 10 22 4 30 0 24-1 30-2 30"/>
<path d="M16072 43359l-10 26-9 22-1 25-3 27-3 26-1 28-1 24"/>
<path d="M16190 43390l-5 24-2 27 4 25 12 23 24 10 26-8 21-15 18-20 14-24 7-28-2-25-16-21-27-2-24 11-20 16"/>
<path d="M16399 43381l-12 21-8 25 2 27 10 23 18 18 22 14 25 5 24-3 22-11 15-20 5-24-13-23-20-16-25-12-26 1"/>
<path d="M14388 43472l-14 20-11 24-9 25-8 28-1 26 1 25 7 23 14 22 17 21 25 3 27-7 24-10 23-12 23-15 20-15 16-19 16-22 11-23 4-26-3-25-11-22-15-22-18-17-24-10-28-4-24 2"/>
<path d="M17194 43256l-2 26-1 25-4 30-2 24-2 27-2 29-4 28-3 28-4 25-7 28-2 25"/>
<path d="M17414 43268l-8 26-6 28-3 27 3 26 5 29 4 24 5 28 1 29 1 29"/>
<path d="M17793 43287l-22 19-13 21-13 27-9 29-5 24-4 25 2 26 4 25 19 21 24 12 25 5 25 1 28-8 29-14 21-12 22-15 18-17 22-21 17-19 14-24 9-25-2-25-18-18-24-17-24-6-28-3-28 0-25 1"/>
<path d="M5921 44336l 25-11 31-8 24-8 29-9 29-11 29-10 28-10 25-10 22-9 26-12 26-13 25 0 6 24-2 24-6 26-6 29-8 33-7 35-6 26-5 25-6 26-4 26-4 25-4 25-2 24-2 25-2 26-2 26-2 25-2 34-2 32-2 32 0 24-1 25 1 25"/>
<path d="M6497 44512l 25-11 25-4 27-9 22-10 22-10 27-12 21-14 24-13 24-12"/>
<path d="M6564 44336l-5 27 10 28 10 25 11 28 6 26 6 32 6 24 7 29 7 23 7 28 7 24"/>
<path d="M7188 44135l-24 4-20 19-15 22-11 23-10 28-9 32-4 24-4 27-2 29-1 33 2 35 2 38 4 34 6 33 7 32 10 25 11 28 12 26 13 22 12 22 23 22 23 16 24 9 33 5 26 0 26-3 24-9 22-13 20-16 15-19 10-24 1-29-11-30-14-20-18-21-25-17-26-16-26-8-26-7-25-1-27 2-27 9-24 14-19 20-13 23-5 25 2 28 12 22"/>
<path d="M7666 44428l 27-1 24-3 27-4 28-5 29-4 26-5"/>
<path d="M7788 44291l-23 8-4 27 5 29 5 31 5 27 7 24 7 24 9 23 10 24"/>
<path d="M8157 44169l 8-23 23-9 29-12 27-11 33-12 22-9 24-8 23-8 32-11 27-7 27-1 20 15-2 28-11 23-17 25-15 18-17 19-20 18-19 18-19 17-19 15-27 20-28 19-21 16-20 15 25-6 26-10 31-11 34-9 25-5 27-7 27-3 28-4 28-5 28-2 28-3 28-1 25-1 32 4 28 6 27 13 19 22 3 25-5 31-10 28-15 31-13 21-14 20-25 27-24 23-27 23-20 16-28 20-30 14-28 7-27 7-27-1-27-1-25-6-29-10-25-13-21-17-16-21"/>
<path d="M8893 44234l 21-12 27-9 28-7 27-3 26-3 26-6"/>
<path d="M8979 44121l-24 2 1 26 5 28 7 25 5 27 7 25 5 28 7 26 8 24 11 28"/>
<path d="M9353 43943l 3 27 4 28 4 31 3 27 2 30 4 34 1 24 2 27 0 26 2 29 1 26 2 27 2 30 0 26 1 25-1 25-1 33-1 30 0 25 1 26"/>
<path d="M9915 44130l 25-5 26-7 24-6 24-4"/>
<path d="M9935 44248l 17-21 24-15 23-12 27-10 31-7"/>
<path d="M10683 44087l 0-25-3-27-8-24-9-22-13-26-19-19-24-14-25-8-25 2-25 13-19 17-18 25-13 20-8 23-3 29 4 26 15 23 23 22 19 19 24 15 22 17 26 13 31 15 26 11 24 12 21 11 28 14 24 11 20 20 6 25-1 28-8 25-13 28-21 27-16 22-22 19-20 19-20 18-27 19-22 9-29 2-22-11-19-22-9-23-3-35 3-26 3-30 5-29 7-29 9-28 10-28 9-27 11-25 11-26 10-22 15-21 13-22 15-21 16-20 18-19 19-19 21-18 23-19"/>
<path d="M10993 44183l 17-17 25-4 28-6 31-9 29-10 26-9 24-7"/>
<path d="M11007 44090l 3 24 9 25 11 28 10 29 9 24 8 25 11 24 10 22"/>
<path d="M11570 43999l-27-9-25-5-30-3-28 1-28 4-25 6-25 8-23 9-25 19-20 23-14 28-5 30 1 30 11 23 20 19 27 6 29-3 31-8 32-14 32-15 31-18 28-19 23-22 22-22 18-18-25 12-16 27-9 25-10 33-7 36-2 25-3 28-2 27 2 26 0 29 0 26 0 27 0 28 3 37 2 24 4 33 5 28 7 28"/>
<path d="M11855 44115l 29 6 31 2 24 0 26-1 30 0 27 4 25 9 22 12-2 24-16 20-23 18-24 20-20 14-22 12-28 15-25 13-22 11-24 11"/>
<path d="M11885 44432l 4-26 17-20 21-20 20-16 24-16 27-19 29-17 30-16"/>
<path d="M12371 43999l 1 27 7 25 6 29 7 27 5 32 3 25 0 26 1 26 0 30-2 29 0 28-3 31-3 29-2 29-2 29-2 26-2 30 3 28"/>
<path d="M12758 43914l-17 19-10 23-13 28-11 24-11 25-11 29-11 32-9 31-10 31-5 31-3 30-1 30 1 28 5 36 7 23 12 30 16 27 18 20 25 18 27 8 28 1 25-10 23-21 17-19 8-28-6-25-17-19-25-17-25-12-29-8-30-4-33 3-34 4-24 4-32 9-28 8"/>
<path d="M11803 44127l 26 13 28 10 23 10 24 9 22 8 23 9 27 8 25 5 22 8 28 9 27 10 25 13 22 12-5 24-21 16-25 13-21 13-27 15-31 14-23 11-23 12-21 12-30 16-26 14-24 14-25 17-22 16 28-10 26-14 26-18 21-17 23-18 26-19 28-22 20-15 20-18 19-16 18-16 17-17 25-21 21-18 22-22 17-21-23 15-23 12-23 6-27 7-27-3-24-6-29-7-30-12-23-9-24-10-26-11-23-13-24-10-25-17-21-16 28 5 28 15 25 11 26 11 31 13 24 9 23 9 34 10 31 14 29 13 27 12 25 12 22 14 26 13 23 17 12 21-16 21"/>
<path d="M13209 43850l 5 26 3 26 1 28 2 32 0 33 0 24-2 24-1 25-1 27-2 26-1 27-1 27-2 26 1 25 0 26 1 34"/>
<path d="M13242 44508l"/>
<path d="M6014 45630l 1 30-3 33-1 24-5 36-4 27-5 28-6 28-4 30-5 30-4 32-3 32-2 32-3 30-1 28-2 25-1 25 0 32 0 27 0 25"/>
<path d="M6221 45918l 23-5 30 0 27-6 31-6 29-8 29-9 26-11 23-10 24-7 25-11"/>
<path d="M6406 45753l-12 25-3 30 1 29 6 31 3 30 3 25 7 31 4 25 7 23"/>
<path d="M6875 45551l-4 27 2 28 0 28 0 27 0 30-3 33-3 25-5 35-6 34-4 32-6 30-3 25-2 26 0 24 26 7 25-17 23-12 27-11 25-7 26-11 30-8 31-13 29-12 30-13 31-11 29-7 25-6 28-7 27-3"/>
<path d="M7068 45724l-9 23-1 24-1 31 1 31 2 29 5 31 4 35 3 25 3 24 4 24 5 31 7 32 6 30 7 27"/>
<path d="M7520 45847l 27 0 28-2 30-6 32-5 27-4 25-3 28 0"/>
<path d="M7640 45671l-19 22-8 31-6 28-3 30-3 31 0 31 2 27 4 26 6 28 6 32 8 34"/>
<path d="M8063 45632l-15-20 18-16 29-8 26-3 32-1 25 0 27 3 25 3 25 9 22 12 21 13 20 23 10 22 5 26 0 29-4 31-6 25-8 23-9 25-11 25-13 25-15 24-16 24-17 23-17 24-18 22-19 19-18 19-19 19-21 18-19 19-20 19-24 22-19 16 28 8 26-2 31-3 26-3 27-1 25 0 31 1 31 1 27 5 25 6 29 6 24 10 22 14"/>
<path d="M8663 45870l 20-15 23-7 28-1 27-4 28-4 32-5 24-6 25-5"/>
<path d="M8784 45721l-8 27 7 31 6 31 6 23 5 27 6 26 5 27 5 28 7 28 7 29 9 29"/>
<path d="M9375 45469l-11 21-8 25-8 36-6 26-6 28-5 30-5 29-5 30-3 29-2 29-2 28 0 28 0 28 0 26 1 26 1 26 1 25 3 25"/>
<path d="M4079 47778l 27-6 24-1 28-2 30-3 29-7 25-8"/>
<path d="M4112 47798l-18 17-12 24-9 23-6 27-6 29-4 25-1 27 5 23 13 25 23 13 27 1 27-10 31-11 24-6 26-9 25-9 24-6 30-3 28 1 24 3 25 12 20 16 14 24 7 25-2 28-8 30-12 22-15 26-16 26-18 24-19 19-26 18-26 12-30 7-28 0-28-9-23-17-15-22"/>
<path d="M5073 47842l 17-21 25-9 27-5 29-3 28-1 29 0 27 3 23 12 17 18-7 26-17 19-22 19-23 18-22 11 18 18 24 3 25 9 27 9 24 11 21 18 10 23-4 29-14 23-18 26-17 18-23 21-24 16-25 12-24 3-25-3-26-7"/>
<path d="M6110 47783l 8 26 4 25 2 26 2 29 0 24 0 25-2 31-5 34-4 24-6 35-7 25-7 36-7 34"/>
<path d="M10019 47675l-5-27-7-26-15-22-26-11-30 0-29 6-22 10-27 17-25 18-16 18-6 27 10 23 20 20 22 14 29 14 22 10 25 10 26 10 26 12 25 13 23 12 22 13 29 19 23 20 19 20 14 26-1 25-18 27-22 19-25 20-31 18-32 15-32 7-29 2-27-3-27-14-19-19-11-22-4-32-1-25 2-28 6-31 8-32 10-31 14-28 15-27 15-24 18-22 18-21 18-18 29-21 20-14 22-12 24-11 26-11 26-11"/>
<path d="M11032 47648l 22-12 31-5 27-4 32-3 36-1 34 1 32 4 30 5 27 7 24 13 23 15 17 21 11 27-4 30-12 27-13 27-13 21-16 21-18 21-19 23-21 21-22 23-22 19-25 22-25 20-23 19-27 19-25 17-25 17-22 15-28 20-25 15-21 15 22 10 26 1 26-3 31-6 31-9 35-8 23-5 33-6 27-6 25 0 31-1 25-1 27 2 25 4 22 13"/>
<path d="M8666 47690l 23-16 24-7 29-7 24-6 31-6 27-7 28-8 28-6 26-4 23 10 3 26-7 28-7 27-9 28-5 24-9 30-7 33-8 31-5 34-7 35-5 34-5 31-3 30-2 27-2 25-3 27-2 27 1 26"/>
<path d="M7306 47725l-27-1-19 25-16 28-15 33-9 28-9 29-7 32-6 33-6 31-3 34-3 33 0 32 0 30 3 28 4 26 7 25 12 30 15 22 21 13 24 9 28 2 29-5 31-13 29-17 25-23 20-25 14-23 9-24-5-28-17-22-24-15-29-11-31-3-25 2-28 8-23 13-21 21-10 22-5 32"/>
<path d="M3283 47755l-11 28-6 27-6 29-7 30-8 33-6 24-6 26-7 27-7 28-6 27-6 26-5 26-4 31 1 30 8 26 18 23 21 16 27 9 24 2 25 2 28-3 28-3 28-6 29-7 28-9 27-13 27-15 26-16 26-16 22-18 19-18 18-25"/>
<path d="M3452 47981l-19 16-10 26-3 25-1 31 0 24 2 26 3 27 4 31 4 31 4 31 5 31 4 31 6 31 6 31 7 31"/>
<path d="M14739 46094l 23-17 29-6 25-7 30-7 33-10 33-10 24-10 24-8 24-7 26-6 32-4 26-3 25-2 7 28-10 23-9 22-13 25-13 27-15 30-14 31-15 34-14 36-13 37-12 37-10 37-9 35-8 34-6 30-4 30-2 28 0 24 3 33 8 28 10 23 24 13"/>
<path d="M15209 46319l 21-13 26-10 26-6 29-6 27-4 28-4 27-6 27-4"/>
<path d="M15291 46215l 6 23 6 25 8 24 7 26 6 27 6 30 5 29 4 33 4 32"/>
<path d="M15862 45911l-26 8-19 25-18 28-13 21-10 23-12 25-10 26-10 29-9 29-7 31-6 31-5 33-3 33-2 31 0 31 2 28 4 26 8 32 13 26 16 22 19 16 21 11 25 5 28 0 28-1 28-8 27-11 24-18 12-22-8-26-21-25-22-18-27-15-33-11-32-5-29 1-25 7-27 18-17 16-15 21-4 24 20 20"/>
<path d="M16120 46250l 26-8 27-4 30-5 25-5 25-4 27-4 26-4 26-3 31-2"/>
<path d="M16327 46075l-11 24-6 31-4 29-4 30-2 31 2 32 2 32 2 33 3 32 4 33"/>
<path d="M16762 46005l-10-23-6-24 14-20 25-5 29 2 25 6 27 9 26 13 27 12 27 16 27 18 24 19 19 19 16 19 11 22 7 25 1 26-2 27-7 26-12 25-16 30-15 20-17 21-17 18-20 19-19 16-19 15-26 22-28 18-28 13-27 13-25 12 24-17 24-8 27-6 28-3 28-3 31-2 31-1 32 1 31 3 25 5 25 7 32 8 27 7 24 10 23 12 21 13"/>
<path d="M17386 46072l 22-15 24-2 30-4 24-2 31-4 31-7 27-12 24-11 23-11"/>
<path d="M17509 45925l 2 25 10 26 10 22 7 24 10 26 10 25 7 24 8 29"/>
<path d="M17889 45769l 10 26 0 30-2 30 0 27 3 29 1 31 2 31 3 36 6 35 9 33 9 34 10 32 8 30 8 28 6 26 6 24 5 23 5 27 1 25"/>
<path d="M18526 46016l 26-9 25-4 24-1 24-1 24 1"/>
<path d="M18598 46107l 19-16 23-12 28-6 25-3"/>
<path d="M19138 45811l-4 29-4 27-7 33-5 34-3 37-4 25 0 26-1 27-1 26-1 27 0 24-1 26-4 35-1 31 1 26 3 26 8 24"/>
<path d="M19423 45699l-25 15-21 25-17 27-10 22-12 23-10 24-8 25-7 25-4 25-1 26 2 25 6 36 10 34 12 31 16 28 19 25 21 24 24 19 20 16 21 12 28 9 25 3 21-17 7-23 3-30-3-28-8-25-11-23-18-24-20-18-24-10-27-3-29 2-23 7-21 13"/>
<path d="M20134 45986l 10 25 13 26 16 24 19 17 21 16 23 6 25-10 18-21 16-23 16-30 12-27 15-26 13-29 16-31 15-31 14-35 17-36 16-38 16-36 13-35 12-33 10-29 8-26 12-31 10-23 7-24 7-25"/>
<path d="M9841 50317l-10-22-21-18-25-8-24-4-29 0-26 3-24 10-21 16-12 24 9 22 17 18 26 16 24 9 25 9 27 8 28 9 27 10 27 11 26 10 22 13 20 20 13 23 3 28-1 24-8 24-10 26-15 27-16 24-18 21-23 20-25 10-24-7-14-22-6-25-1-31 0-36 4-26 3-25 7-27 9-25 11-23 14-24 15-20 17-21 21-19 19-15 22-17 22-13 23-12"/>
<path d="M11425 50303l 2 26 0 28 0 28 0 32 1 24 1 26 1 25 0 32 0 30 0 30-2 30 0 27-1 27-1 27 1 26 2 36 4 31 2 31"/>
<path d="M14467 49587l 20-14 25-15 23-12 27-13 24-10 27-10 29-9 30-9 33-7 32-8 30-7 26-5 29-4 24-2 7 27-5 25-10 35-7 27-10 29-9 32-11 33-8 33-9 33-6 33-4 32-4 32-2 31-2 30-1 28 0 26-2 34 2 26 1 27 5 23 13 21"/>
<path d="M14961 49764l 24-8 28-6 25-7 30-10 31-10 32-9 29-8 30-9 26-11"/>
<path d="M15098 49608l-5 27 4 30 9 26 9 27 8 26 11 28 9 28 10 29 6 28"/>
<path d="M15762 49229l-14 29-11 29-9 24-10 26-11 28-9 29-10 31-9 31-7 32-7 33-4 33-4 34-2 34-1 32 2 30 3 28 5 27 8 24 10 22 19 28 21 21 26 15 27 7 26 3 25-7 28-13 22-22 21-23 13-25 6-23-6-28-19-22-21-13-31-11-26-1-31 3-24 9-24 12-25 13-19 17"/>
<path d="M16038 49601l 29 1 29-1 27-4 28-5 31-8 32-9 29-9 29-10"/>
<path d="M16198 49463l 6 23 8 26 4 25 8 27 11 29 9 28 9 30 7 29 6 29"/>
<path d="M16651 49296l 5-23 25-3 29 0 31 2 28 1 31 0 34 2 34 4 31 6 31 8 26 13 22 17 15 19 12 28 4 24-3 26-10 30-17 32-17 23-19 24-23 26-24 26-25 25-28 25-26 22-26 22-26 22-23 21-24 19-23 16-21 16-28 19-19 17-16 20 11 22 24 3 32 1 24 2 28-1 29-2 30-4 27-3 30-2 29-1 26-1 26-1 26 0 24 9"/>
<path d="M17538 49483l 24 6 27 5 27 5 25 1 29 0"/>
<path d="M17542 49644l 23 10 24 8 24 5 28 3 26 1 29 0"/>
<path d="M18037 49306l-7 27-1 31 2 28 1 31 1 34 3 36 2 26 1 27 2 27 1 28 1 25 1 25 1 25-1 34 1 32 0 31-1 25 2 26"/>
<path d="M18289 49289l 24-8 29-4 24-3 25-3 28-4 28-6 26-5 24-6 31-5"/>
<path d="M18437 49248l-23 10-19 21-12 22-10 23-7 25-6 29-6 27 0 26 5 29 7 24 12 23 20 14 25 3 24-5 29-5 29-3 30-6 26-6 29-1 27 3 24 3 28 9 22 11 16 20 8 27-4 27-10 23-14 21-17 18-17 18-24 17-25 11-22 9-29 9-30 6-28 1-25-4-25-9-23-16-20-22"/>
<path d="M11259 50395l-2 24-6 24-8 25-7 27-7 26-6 26-2 24 11 23 22 14 28 3 27 1 29-3 29-2 30-6 23-6 24-5 26-7 27-8 29-10 26-9 26-6 23-9 23-6 26-9 26-5 25-1"/>
<path d="M3361 50454l-5 27 2 24 4 31 4 35 3 25 3 28 3 27 3 28 1 29 2 30 0 30 0 30 0 26 0 35 0 31 0 24 7 26"/>
<path d="M4084 50529l-6-23 23-13 26-4 27-2 31 2 29 5 28 11 28 13 26 16 15 23 12 25 6 26-6 24-10 28-15 27-21 26-23 25-23 23-24 19-22 19-21 14-22 17-21 16 27 3 30-4 27-5 30-4 32-6 25-4 25-5 25-3 28-4 28-6 31-5"/>
<path d="M5048 50469l 27 5 27-1 25 0 25-2 29-7 28-9"/>
<path d="M5135 50492l-20 17-10 28-8 25-4 24-2 24-1 30 3 24 8 24 18 16 25-12 24-14 28-8 25-7 25-4 26-3 27-3 28-1 28-1 26 2 27 9 22 12 15 19 4 26-4 27-9 25-13 23-19 24-26 19-22 10-23 11-29 9-29 4-25-1-27-5"/>
<path d="M6287 50386l-27 5-19 24-16 23-17 29-12 22-10 27-10 28-9 31-8 31-7 31-6 32-4 30-4 30-1 28 1 26 3 24 7 30 12 22 16 18 22 14 32 3 27-4 28-8 30-13 27-17 23-18 17-17 13-23-8-26-21-17-27-8-30-3-30 3-25 8-24 8"/>
<path d="M7117 50501l 17 17 25-4 25-5 25-10 28-11 28-11 25-11 25-8 28-8 24-5 26-2 22 13 3 27-3 30-5 30-7 31-7 32-6 33-8 34-6 35-5 32-6 31-3 26 0 27 5 24"/>
<path d="M8430 50371l 17-21 26-13 29-11 28-7 28-3 27 0 25 5 24 9 22 14 12 23-7 25-17 24-19 22-20 19-20 19-10 21 30-6 29-11 26-4 28-1 29 2 29 5 28 7 23 8 23 11 25 16 17 21 10 22 5 24-9 29-12 23-15 26-19 25-21 24-22 21-24 19-22 14-21 11-28 9-29 4-27-1-23-6-21-13"/>
<path d="M14674 51310l 21-14 22-10 26-10 28-11 29-10 28-10 25-8 25-9 7 27-4 25-6 29-7 34-4 34-2 34 0 25 0 26-1 29-4 28 0 27-2 28-1 25 3 27 0 24 1 33 2 29 2 27 1 30 0 26"/>
<path d="M15076 51508l 23-5 28-8 24-5 26-5 28-6 26-7 23-9"/>
<path d="M15197 51395l-7 23 6 28 6 25 6 29 9 25 9 24 9 22 12 29"/>
<path d="M15768 51091l 8-25-28 3-16 21-13 21-14 24-13 27-13 33-12 35-12 37-10 38-8 38-6 38-5 36-3 37 0 35 0 31 3 31 5 28 7 23 16 31 19 25 24 16 25 12 26 6 28 0 28-7 28-12 25-15 20-23 5-30-11-24-17-18-23-17-26-13-27-10-29-2-29 6-25 10-25 14-20 14-16 18 4 26 23 13 29 4"/>
<path d="M16078 51466l 23-11 25-4 24-6 29-9 28-7 29-9 28-5 25-7 30-5"/>
<path d="M16196 51335l-2 29 4 28 4 26 9 25 12 29 8 24 7 25 6 26 7 24"/>
<path d="M16612 51145l 2-24 14-22 18-18 24-12 28-10 25-6 27-6 27-3 27-2 24 2 26 4 21 15-3 24-16 24-19 19-21 19-22 19-21 18-18 17-17 19 5 25 29 2 24-3 29-5 30-3 30-1 32 0 34 0 33 0 29 6 25 7 22 9 22 14 13 23-3 29-13 28-19 26-19 17-20 16-25 19-24 14-25 10-27 5-28 0-27-9-18-17-6-27"/>
<path d="M17329 51172l 28-5 28-3 28-4 24-5 26-10 27-6 28-7 28-5 25-6 27-5"/>
<path d="M17488 51020l-6 24-5 29-3 25 0 30 2 31 3 31 1 24 0 24 3 31"/>
<path d="M17941 50827l 22 13 5 29 1 30 2 27 1 31 2 34 0 24 2 26 1 27 2 28 1 27 0 26-3 27 0 28 1 27-1 26 2 26-1 24-1 34 0 27 0 27"/>
<path d="M18385 51054l 23-9 26-8 27-10 25-10 27-7 28-11"/>
<path d="M18395 51130l 25-11 28-6 30-7 23-7 24-4 31-6"/>
<path d="M18886 50859l-5 24 0 28 1 27 2 27 4 29 2 33 0 25-2 25-2 24-4 33-1 25-2 24-1 26-3 27-5 24-3 32-1 30 2 31 4 26"/>
<path d="M19072 50882l 28-2 29-3 29-6 28-6 26-6 30-7 28-6 30-8 26-4 25-2 29 0 25 4 14 21-1 24-4 27-9 24-8 27-6 29-11 33-11 34-6 24-9 34-9 33-8 31-8 34-8 32-5 28-7 30-2 25"/>
<path d="M20220 50819l 25 15 23 19 22 18 19 19 22 21 21 27 23 20 23 19 24 16 22 17 25 18 23 17 20 16"/>
<path d="M20473 50773l-22 20-17 18-19 23-16 19-17 18-17 19-19 18-18 19-16 21-18 23-17 25-18 25-16 25-17 25-15 22-14 22-12 22-14 28"/>
</svg>
