<svg xmlns="http://www.w3.org/2000/svg" viewBox="594 -11806 10776 25208" stroke="black" stroke-width="40" stroke-linecap="round" stroke-linejoin="round" fill="none" data-xena="-85 -132"><style>@media(prefers-color-scheme:dark){svg{background-color:black;stroke:white;}}</style>
<path d="M1287 -10769l-1 1-20-14-19-16-12 22 13 21 21 11 12-22 10-25 20-23 22-26 22-23 16-19 21-21 24-23 26-27 30-30 30-33 31-35 16-19 17-18 17-19 17-19 18-19 17-18 17-19 17-18 33-35 33-32 31-29 30-27 29-24 28-21 28-20 26-17 25-14 22-13 28-16 24-15 22-14-9 23 25-7 2-24-25 4-5 23 11 23 17-18 27 4 19 19 21 23 20 20 23 24 18 18 19 20 19 18 21 19 20 18 20 19 21 18 22 18 23 21 24 22 23 24 22 23 22 24 23 24 20 24 22 25 20 23 20 23 20 22 18 18 16 19 22 25 21 25 17 23 14 22 12 22 13 26 13 26 12 24"/>
<path d="M4589 -10877l 0-1 26 2-24 7 19 16 24 7 24 6 26 4 27 3 26 5 31 3 25 2 28 3 29 3 31 4 32 3 36 4 24 4 26 4 26 3 28 4 28 3 28 2 28 2 26 1 27 2 26 0 26 0 24 0 24 0 34 2 32 1 30 2 29 3 26 1 25 1 31 3 28 2 24-1 25 2 26-1 23-10 23-7"/>
<path d="M1551 -8521l 0-1 24 6 2-26-21-17-24-1 25 4-19 16 14 20 23 19 20 25 21 27 14 24 17 28 17 31 17 36 20 39 19 42 10 24 9 23 10 22 10 23 10 25 9 24 11 23 10 25 10 24 11 25 9 26 11 24 10 26 12 25 10 23 12 26 11 26 12 26 12 24 11 27 12 26 11 26 12 27 12 24 13 25 11 23 11 24 12 21 11 22 24 39 21 36 22 34 20 31 18 27 16 25 14 22 18 29 14 21 13 21-20-21"/>
<path d="M1535 -8472l-1-1 10-23 8-23-23 13-5 30-5 29-3 25-3 29-2 32 0 36-2 39-1 43-2 45-1 24-2 48-1 25-1 27-1 27-1 29 1 27-1 30 1 31 1 32 2 32 1 34 3 34 3 34 2 36 3 35 2 35 3 36 3 35 3 35 3 34 4 35 3 34 5 33 4 32 4 31 4 30 4 29 4 27 4 25 6 46 6 38 4 32 3 27 2 31 2 27-23-8-8-27"/>
<path d="M1543 -8498l-1-1 25 2 22 10 24 15 23 15 26 15 29 16 21 12 21 13 24 13 22 14 24 13 24 14 22 14 26 15 27 14 27 15 29 15 27 15 27 17 28 16 29 17 28 17 28 16 29 16 28 13 27 14 27 14 25 14 23 13 25 13 23 13 23 14 22 13 21 15 21 15 29 20 19 15 29 20 28 19 30 18 29 16 29 15 29 14 28 15 28 13 25 15 22 12 26 15 22 13-20-14-10 22 25-1 12-22 3-25-19-17-22 10-15 19-7 24"/>
<path d="M4668 -8698l 0-1-16 19-15 25-13 23-20 28-15 22-20 28-22 30-25 34-27 36-27 37-28 38-13 20-15 21-13 21-15 23-13 22-14 22-14 23-14 24-14 24-13 23-13 24-13 24-13 24-11 25-13 25-12 23-12 24-11 23-10 22-10 23-19 42-14 38-11 34-7 27-6 28-4 25-10-23 8-24"/>
<path d="M4688 -8638l 1 0-25-1 6 25 7 26 4 25 3 32 1 27 1 30 0 34 0 38 0 39 0 44 0 44 0 44 0 44 0 43 0 42-1 43 1 43-2 45-2 46-1 24-3 47-3 47-3 45-3 45 0 43-1 40 1 38 1 37 2 35 2 32 3 30 2 25 3 25 2 25 4 33 4 25 3 27"/>
<path d="M3124 -6925l 0-1-6 25 21 12 18-18 1-24-24-12-26 5-18 19-4 27 15 19 24-6 20-16 3-24-13 22"/>
<path d="M7251 -8560l 0-1 26-2 25-1 27-2 25-3 30-2 30-3 26-4 28-6 31-5 30-6 31-5 31-4 31-3 30-4 33-3 34-2 24-2 26-2 26-3 28-3 30-3 32-5 32-2 33-3 35-4 35-2 34-3 35-2 35-1 34-3 33-1 31-2 30-2 29-2 30-2 29-1 28-2 27-3 27-1 28-3 26-3 25-1 32-3 27-1 30 0 24 2 24 2"/>
<path d="M7260 -8510l 1-1 9-22-11 22-7 25-8 27-6 27-6 23-6 26-7 29-8 31-9 35-6 24-8 26-7 25-9 27-9 27-9 30-9 29-9 30-7 31-9 30-7 32-8 31-7 31-7 29-7 30-6 31-7 31-7 31-8 32-7 31-7 33-8 35-9 34-9 36-8 36-9 35-8 37-7 36-8 35-6 34-6 32-7 29-6 29-5 26-6 27-4 25-7 33-5 34-5 31-5 29-3 25-4 30-5 28-6 25-15-27"/>
<path d="M7498 -7255l 0 0 19-15-21-14-18 18"/>
<path d="M7934 -7498l 0-1"/>
<path d="M8653 -8640l 0-1 12 22 4 24 3 25 3 25 4 24 8 26 6 28 6 27 8 26 8 24 10 26 9 23 8 24 8 28 9 29 8 26 8 26 9 27 8 27 9 26 8 27 8 26 7 26 7 30 5 23 7 31 8 31 6 24 5 25 5 24 5 25 7 26 6 25 6 25 6 24 6 27 6 30 5 27 6 28 7 28 6 30 7 29 7 28 6 27 6 26 8 27 7 27 7 24 8 30 9 30 8 27 4 25 4 25 3 24 3 26 2 27 0 24 5 24"/>
<path d="M8446 -7395l 0-1-23 12-10 23-6 23-3 26 0 26-3 30-4 28-6 32-4 25-5 24-5 30-4 25-5 28-4 30-4 30-6 33-4 25-5 27-4 26-4 24-5 24-5 24-5 24-5 25-3 27-4 27-3 27-2 28-3 27-4 27-3 28-4 25-4 35-3 32-3 33-2 30-2 28-3 27-3 26-3 31-3 30-3 25-2 25-5 24-9 23-24 3 25-1 14-19-24-2"/>
<path d="M7088 -8894l 0-1 8 23 10 29 9 30 7 30 2 29 1 26-1 25"/>
<path d="M6578 -6783l 0 0 21-15 24-11 27-10 29-7 27-5 26 0 10 24-15 30-18 26-20 27-22 27-23 27-20 28-18 28-13 24-9 25 28 2 25-12 32-17 25-14 28-14"/>
<path d="M7347 -7048l 0-1 22-15 27-12 30-10 25-8 24 5-13 26-16 19-20 20-19 18 26 8 27-10 26-7 26-3 4 26-10 27-13 25-16 24-16 22-17 17-26 11"/>
<path d="M7885 -7419l 1 0-2 28-8 25-12 23-15 27-13 25-7 26 19 18 31-3 32-7 24-8 23-9"/>
<path d="M7935 -7346l-1-1-5 23 5 25 3 30 2 27 1 28"/>
<path d="M8640 -8873l 1-1 27-7 26-6 31-5 25-5 24-6 23-6"/>
<path d="M8703 -8880l-1 1-18 17-7 26-3 27 0 25 18 20 25 0 27-7 30-10 24-5 30-3 24 3 22 10 6 25-16 22-17 18-19 16-24 13-25 6-27 0-28-3"/>
<path d="M9202 -7230l-1-1-23 14-12 29-10 27-8 31-6 32-4 34 1 30 4 25 11 25 21 18 28 5 24-8 21-15 15-19-8-26-22-15-25-4-26 4-23 11"/>
<path d="M8483 -7555l 1-1 19-16 25-4 26-3 30 0 26-2 25 0-11 26-16 25-11 24-11 28-9 23-8 28-7 33-5 25-5 25-5 28"/>
<path d="M8362 -6190l-1-1-23-13-22 13-20 18-18 25-13 27-11 25-3 25 6 24 22 18 23 11 26 10 29 11 29 10 27 12 23 17 17 19 9 27-4 24-12 22-21 18-27 9-27-3-28-18-17-22-13-29-9-30-1-33 4-33 9-34 10-31 12-29 15-26 15-24 16-20 21-19"/>
<path d="M915 -4845l-1 0 10 24 23 10 27-6 26-14 21-16 22-22 23-27 24-34 25-36 26-39 13-21 12-22 14-21 12-22 12-24 12-23 11-23 10-23 9-23 15-45 10-44 6-43 2-40-3-39-5-36-5-32-7-27-10-26-28 7-15 23-17 36-19 47-10 25-11 28-9 29-9 31-10 32-8 33-9 34-8 35-7 37-6 37-7 37-5 38-4 39-3 37-3 39-2 37-1 37 0 36 1 35 2 34 3 34 4 31 4 30 4 29 6 25 6 23 11 41 14 29 18 28 24 15 29-10 15-22 7-23 5-29 3-34-1-36-5-35-7-34-10-32-12-31-12-29-13-28-10-22-14-27-11-23 23 9"/>
<path d="M1390 -4984l-1-3-18-16-27 0-20 15-18 18-17 26-15 28-8 23-3 25 18 18 24-3 24-12 22-21 17-23 11-22 17 21 22 11 26 0"/>
<path d="M1699 -5050l-2-2-25-10-27-4-25 9-20 14-17 18-17 22-15 27-10 26-5 25 2 27 14 24 24 7 27-4 32-10"/>
<path d="M1879 -5415l-1-1 18 20 12 30 4 30 1 34-3 26-5 28-6 32-7 35-8 37-9 38-9 37-9 35-9 32-8 30-7 28-6 25-3 29 6 25 25 4 22-14 28-23 20-19 19-22"/>
<path d="M1836 -5133l-4 1-31 5 28 6 26-4 30-5 35-4 33-5 30-4 30-1 23 8-4 28-11 28-10 23-8 25-8 23-6 29 3 24 23 12 25-1 23-9 23-15 19-17 14-23 1-27-18-21-23-15-22-12-20-13 25-16 28-10 24-6"/>
<path d="M2251 -5136l 1 0 25-11 26-6 25-1-5 28-18 28-20 27-22 24-20 24-14 21-7 25 20 16 28-6 25-10 25-16 25-18 27-19 27-17 25-20 23-20 20-20 17-18"/>
<path d="M2501 -5169l 0-1-10 22-4 30-5 27-6 23-6 26 0 26 24 2 25-11 23-17 19-15 20-17 20-21 20-23 20-25 20-24 19-23 13-20 14-22 23 10 18 17-8 26-14 22-15 25-14 24-16 26-15 24-13 22 24-8 20-13 25-3 27 6 24 14 19 20 11 25 7 31 2 26 2 26 0 28-2 29-5 30-6 28-9 28-10 26-11 25-14 23-14 20-16 18-28 22-28 14-25 3-25-11-16-26-6-26 1-32 6-25 9-27 12-29 16-30 17-31 18-32 19-31 20-30 20-27 22-27 22-23 23-22 23-20 22-17 21-16 29-19 26-15 25-10 25-11 24-9 21-12 21-13-6-24-24-2-27 9-25 15-23 22-13 21-7 24-3 25 4 26 13 28 20 20 25 12 31 5 26-2 26-8"/>
<path d="M2410 -5325l 0-1 26 3"/>
<path d="M3423 -5263l-1 0 32 1 30-1 35-4 24-5 24-6 25-4 35-5 30-2 25 0"/>
<path d="M3410 -5127l-1-1 26-10 28-10 24-9 25-9 26-9 26-8 27-8 25-7"/>
<path d="M3557 -5350l 0-1 26 14 30 8 26 5 25 4 28 6 26 11 18 19 4 27-9 28-15 22-21 24-21 20-22 20-23 19-19 18"/>
<path d="M1380 -3832l 2-4 13-27 17-25 19-21 23-19 27-18 28-13 30-9 27-3 31 0 28 5 21 13 13 20 8 25-3 25-15 31-14 26-19 29-22 31-25 33-29 32-29 32-32 31-29 31-28 28-26 26-22 24-20 20-18 18-18 22-14 19 27-10 23-13 23-15 29-15 31-14 32-14 35-10 32-11 31-9 29-5 28-5 26 0 24 0 34 5 28 8 24 12 24 18 14 20 9 26"/>
<path d="M2177 -3694l-1-3-19 15-7 26-7 30-7 28-5 27 1 30 10 25"/>
<path d="M2210 -3857l-1 0-17 20"/>
<path d="M2247 -3691l 1 2 12 23 8 23 7 23 5 27 1 26 15-22 11-23 12-23 19-23 17-19 23-13 19 17 9 23 6 28 5 30 4 30 7 27 8 24 19 22"/>
<path d="M3078 -4007l-1-1-9 23 1 37 1 33 0 42 0 47-1 24 0 24 0 25 0 25 0 45 3 42 3 36 4 29 6 34 10 26"/>
<path d="M3537 -3675l-4 1-20 15-11 23 15 20 27 0 29-10 24-14 26-18 28-22 28-26 30-28 29-31 29-33 26-33 23-33 17-34 14-33 10-35 6-35 4-34 1-34 0-30-2-32-29-3-24 25-20 25-20 31-21 36-17 38-15 38-12 40-8 40-6 40-1 37 1 37 4 33 7 31 8 28 11 24 12 21 18 23 23 18 20-15-6-25-8-23 3-29 15-25 19-22 16-18 17-21 23-22 22-12 20 15 6 25-2 27-3 29 4 26 26 4 22-11 23-20 21-23 12-22 4-25-18 17 2 25 9 23 19 14 25 4 25-3"/>
<path d="M4264 -3812l-1-1-23-5-20 14-22 18-22 23-15 20-14 27-4 26 13 26 24 11 25 2 30-3 32-9 32-13 22-11"/>
<path d="M4410 -4076l-2 0-16 21-1 33 1 34 2 27 1 30 1 30 1 31-1 32-2 31-4 31-6 28-5 26-9 29-11 25-8-29 9-25 11-25 13-20 18-20 22-12 25-6 25 0 25 2-12 21-22 16-25 18-22 17-17 19 12 20 28 1 28-4 25-6 25-7"/>
<path d="M4603 -3750l 1-1 24-6 23-9 21-13 17-22-2-28-22-14-23 5-20 14-19 19-12 23-5 24 4 29 14 25 18 17 23 8 28-1 23-8 26-13 28-20 27-23"/>
<path d="M4878 -4033l-1-2-24-8-19 16-12 23-7 24-6 31-3 24-3 26-3 26-3 27-2 27-1 26 1 24 4 30 8 24 15 23 22 16 28 0 25-9 27-14 21-21"/>
<path d="M4755 -3891l-2 0 28-11 33-5 29-6 32-7 35-5"/>
<path d="M5257 -3991l-1-2"/>
<path d="M5226 -3922l-1-1"/>
<path d="M5532 -4173l-1-1-11 30-5 30-5 23-4 25-5 25-5 26-4 27-5 27-6 29-6 31-7 30-7 31-7 30-6 29-5 27-4 26-5 31-1 26 2 26"/>
<path d="M1420 -2941l 1-2 15-24 25-16 25-13 31-10 34-6 31-4 30 1 29 4 23 8 20 16-1 27-17 30-18 27-22 30-26 31-26 32-28 30-28 30-27 28-26 27-24 25-21 24-19 20-22 24-21 20 26-15 28-11 35-8 28-5 29-4 32-3 32-4 31-1 35-4 33-2 34-1 32 0 31 1 31 1"/>
<path d="M2185 -2753l-1-1-20 15-3 25-2 30 1 27 5 24"/>
<path d="M2195 -2955l-2 0-21 14"/>
<path d="M2260 -2761l-1 4 0 25-3 28-4 26 15-25 15-28 14-21 20-22 21-15 26 1 16 20 8 26 7 27 7 27 10 23 15 19"/>
<path d="M3035 -3061l 0-1 17-21 25-8 30-6 29-2 30 2 30 7 28 11 25 17 15 25 5 29-5 26-15 31-15 22-20 24-23 22-25 22-26 22-27 20-27 21-27 21-25 20-24 17-21 16-26 19-20 15-20 15 22-12 28-12 24-7 29-8 33-4 35-3 24 1 25 1 24 2 34 3 30 7 25 7 23 9 20 14 12 23"/>
<path d="M3650 -2918l-1-1"/>
<path d="M3635 -2825l-1-1"/>
<path d="M4001 -3058l 1-3 10-24 23-12 31-2 29 1 34 6 23 5 25 8 33 12 30 11 27 12 25 17 13 25-3 25-15 28-17 22-20 24-24 25-24 26-25 24-25 24-26 23-25 22-23 22-21 19-19 18-23 22-20 18 25 5 25-4 28-4 30 0 31 4 28 7 28 8 26 9 25 9 28 12 23 10 23 6"/>
<path d="M1415 -2132l-1-4-1-28 16-22 29-10 36-5 27 1 27 3 28 5 29 6 29 7 30 9 27 10 22 15 25 21 11 26-3 30-11 26-19 31-25 33-30 35-33 35-17 18-34 34-36 32-34 32-32 28-30 28-26 24-23 21-18 20-22 21-18 17 28-10 27-9 34-8 27-3 30-4 32-1 34-2 34-1 35 0 35 0 33 2 32 3 31 3 28 4"/>
<path d="M2212 -1861l-2-1-17 20 0 27 3 33 1 25 4 30 7 25 15 19"/>
<path d="M2275 -2106l-3 0-21 13-10 27"/>
<path d="M2312 -1866l 0 1-1 24 5 27 5 24 0 29-5 25 2-25 13-22 13-22 17-20 22-18 23-12 26 4 13 21 3 28-2 28-2 29-2 26 1 29 8 24"/>
<path d="M3005 -2188l-2-2 20-15 27 0 30 1 29 2 29 5 24 5 28 8 21 12-4 24-22 16-24 13-25 14-25 13-24 12-26 13-21 16 29-3 26-2 32 2 30 2 33 5 35 4 34 6 31 7 28 10 22 12 19 21 7 23-5 30-12 27-20 31-15 22-18 20-17 22-17 20-18 19-20 18-22 15-21 13-30 14-28 6-26 0-24-7-22-11-22-21-10-23 4-29"/>
<path d="M3587 -2121l-1-1"/>
<path d="M3611 -2019l 0 1"/>
<path d="M3945 -2208l-1-1 5-25 23-10 25-8 30-6 32-4 32 0 29 3 24 6 25 12 3 28-16 19-20 15-26 16-28 16-26 13-22 9-23 5 25-13 26-6 32-6 35-2 35-2 26 1 26 3 27 4 25 5 32 12 22 14 17 20 5 28-7 28-11 23-17 24-20 25-25 21-30 19-22 10-32 15-32 10-31 5-31 4-25-1-28-4-24-11"/>
<path d="M1360 -573l-1-4-11-25-2-25 8-24 15-21 17-17 24-21 23-14 26-10 30-5 31-3 32 0 32 3 27 3 26 6 28 12 18 21-2 25-10 27-20 32-17 23-21 25-22 24-25 25-27 24-28 25-29 23-26 22-27 21-25 19-22 18-23 16-20 14-23 15-25 12 26-20 28-13 29-9 32-8 24-5 27-5 29-5 28-4 27-3 25-2 33-1 27 5 27 7 24 11 20 17 12 22"/>
<path d="M1750 -896l 0-1 6-23 25-15 27-8 26-2 30 5 24 9 1 25-18 23-20 23-22 22-20 18-20 15-19 14 24 6 28-2 26-3 27-5 29-6 32-4"/>
<path d="M2258 -541l 0-1-19 21-7 31-5 25-3 25 0 25 5 27 16 21 30 4"/>
<path d="M2323 -728l-2-1-27-8-16 18 5 23"/>
<path d="M2362 -508l-1 2-11 22-5 27-2 25 19-20 12-21 14-19 16-20 22-20 20-16 21-11 23 10 3 26 2 29 1 25 4 30 7 24 13 25"/>
<path d="M3082 -908l-1-1-20 17-5 25-3 25-2 26-3 29-2 33-2 34-1 36-2 39-1 36-2 35-2 32-3 28 0 31 0 25-2 30 0 26"/>
<path d="M3320 -735l-1-1 12 23"/>
<path d="M3327 -633l-1 0"/>
<path d="M3642 -958l-1-1-7 25 2 32 1 28 1 30 0 32 0 35 0 35 0 37-1 36-1 35-2 33-1 32-2 30-3 27-3 25-2 24-3 31 0 31 1 25 3 24"/>
<path d="M1340 291l-4-1-23-9-12-23 24-21 29-15 35-12 35-8 34-2 33 4 30 8 25 12 20 21 6 26-4 26-17 32-14 23-19 25-21 25-23 24-23 23-22 21-23 20-21 19-20 18-20 17-19 16-19 17-19 17-21 18 29 5 23-7 25-7 24-5 23-5 26-3 24-3 35-3 24-2 32-3 29-2 31 3 25 4"/>
<path d="M1629 99l-1-3 24-10 23 6 27 7 25 8 19 16-7 27-19 21-22 17-22 16-20 14-23 15 32-5 26-5 34-5 25-3 30-2"/>
<path d="M2166 322l-2 0-16 21-4 26-2 28 5 26 18 23"/>
<path d="M2224 147l-3-1-24-3 18 20"/>
<path d="M2285 296l-1 2-10 22-5 25-6 28-4 24 18-17 17-18 18-22 19-20 18-18 26-2 13 21 8 23 8 25 10 26 12 22"/>
<path d="M2915 11l-1-2-12-22 26-7 26-2 31 2 24 6 23 7 27 9 27 11 22 15 17 22 4 25-11 26-20 25-18 19-20 21-22 24-24 21-22 21-22 21-20 19-19 21-21 19-20 20-19 19-24 22-18 18-15 19 27 5 26-3 34-7 24-4 24-6 24-5 24-4 24-5 25-4 24-5 32-6 29-6 30-5"/>
<path d="M3341 120l-1-2"/>
<path d="M3325 217l-1-1 25 14"/>
<path d="M3615 -169l-1-1-24 9-15 24-13 25-13 30-14 34-9 25-8 28-8 30-8 32-8 34-8 34-7 35-7 35-6 35-5 35-2 33-2 30 0 28 2 24 5 30 10 25 17 25 20 17 28 10"/>
<path d="M3733 -80l-1-2 5-25 26-12 28-6 24-4 30-2 29 3 11 23-16 21-19 18-23 18-22 14-23 13 30-1 29-4 29-2 27 0 24 7 13 22-5 24-14 24-16 18-19 18-21 16-23 12-24 13-23 9-25 9-26 6-24-4"/>
<path d="M3862 264l-1 0-9 23 2 24 2 27 1 25 0 30-2 26-2 25"/>
<path d="M4032 -215l 0-1-1 27 9 24 13 24 18 25 20 27 14 20 13 20 13 22 11 22 10 23 9 23 10 34 5 24 3 35 0 26-1 25-2 24-4 25-5 24-6 23-11 33-13 27-14 25-17 20-18 20-20 18-17 17"/>
<path d="M1345 1118l-1-2-17-18 1-25 18-23 23-18 22-13 25-10 28-6 27-4 29 1 25 7 26 16 15 25 5 26-3 34-6 24-9 23-12 25-12 25-17 27-18 26-22 27-23 27-24 26-26 24-23 22-25 19-24 16-24 13-26 2 10-27 19-20 22-13 23-7 28-8 29-5 29 0 29 5 30 5 29 10 24 10 24 16 18 18 13 24 7 24"/>
<path d="M1694 884l-1-1 16-23 26-5 28-6 27-2 22 12-7 24-19 24-18 18-17 18-23 20-18 19-18 18 28 5 25-4 29-4 34-4 25 0"/>
<path d="M2131 1170l-1-1-19 20-1 29-1 26 2 25 4 30 10 26"/>
<path d="M2164 1027l-1 0 12 21"/>
<path d="M2257 1192l 1 2 2 26-2 24-5 27-6 25 14-24 15-29 13-23 14-21 15-25 15-19 18-19 24-6 12 23 4 28 4 29 11 26 17 17"/>
<path d="M2739 875l-1-1 13-23 25-7 32-5 25-2 32 2 27 6 22 11 13 24-7 29-15 22-21 22-26 22-29 17-29 18-28 15-24 11-20 12 24-1 27-6 32-6 34-5 25-3 25-3 24 0 24-1 32 2 25 6 23 15 6 27-11 28-20 25-25 25-20 18-20 16-23 16-23 17-23 11-23 10-31 10-28 4-26 1-28-7-18-22 3-29"/>
<path d="M3305 934l-1-1"/>
<path d="M3304 1021l 1 0 25-6"/>
<path d="M3697 852l-1-2-27 3-18 25-18 26-12 22-15 27-14 29-14 31-13 35-12 35-9 35-8 35-5 35-3 32 0 30 0 28 5 34 8 27 12 24 12 22 18 21 20 15 21 12"/>
<path d="M3861 888l 0-2-24 3-13 23-14 30-10 23-9 23-7 25 1 26 20 17 27 0 29-6 25-7 25-9 24-10 22-9"/>
<path d="M3928 927l-1 0-23 11-7 26-5 27-3 32 0 25"/>
<path d="M3831 1257l-1-1 2-25 28-14 27-6 24-3 26 4 12 24-13 22-18 18-21 17-22 20-19 18-16 19 29 1 28-15 26-13 30-15 22-11 23-11"/>
<path d="M4047 902l-1-1 30 1 21 13 22 18 24 23 23 26 20 28 19 30 13 31 11 32 4 32-1 31-9 34-8 24-11 22-12 22-20 25-21 25-23 19-22 14"/>
<path d="M4447 37l-2-1 22-13 29-10 32-10 23-7 25-5 34-8 29-5"/>
<path d="M4518 83l 0 0 24-11 29-10 23-8 25-10 28-10"/>
<path d="M4838 -129l 1-1 23-13 24-7 28-5 25 0 26 3 22 13 1 28-14 21-22 21-24 19-23 16-22 18 4 25 25 3 27 0 28 2 27 3 24 11 11 25-3 25-14 20-21 21-26 16-28 11-30 8-30 3-24 0"/>
<path d="M4436 1107l 1-3 14-23 22-13 22-10 25-8 26-4 29-3"/>
<path d="M4422 1175l 1-1 21-15 23-8 32-12 24-10 28-10"/>
<path d="M4920 860l-2 0-24 6-25 20-19 24-13 22-13 26-10 28-8 30-6 32-1 31 0 30 4 29 7 26 9 23 19 28 21 19 26 10 28 2 29-5 29-14 25-16 20-18 14-25-4-28-18-16-29-14-25-6-25 0-30 4"/>
<path d="M5724 -831l 2-4 7-24 10-26 16-20 19-15 26-8 26 9 21 18 20 25 12 23 10 25 6 28 4 32 0 35-2 28-3 30-4 33-6 36-8 37-7 38-8 38-7 37-6 36-7 35-5 34-2 32-1 31 1 28 3 24 9 28 13 23 16 18 19 18 21 12 24 4 26-2 25-7 27-14 19-19-12-21-27 4-26 9-23 12-27 19-21 14-19 16-17 17-15 20-12 20-11 25-8 28-6 31-3 35 0 35 0 25 0 26 2 28 1 30 2 28 2 32 2 30 3 32 3 35 3 35 4 37 6 38 7 37 7 37 8 36 8 35 7 35 5 34 5 36 2 36 1 36 0 35-1 34-2 32-3 31-4 29-4 27-4 24-10 33-14 28-18 26-21 22-25 17-29 9-29 1-28-2-26-8-25-12-22-17-18-23-12-28-6-28 2-27"/>
<path d="M6168 -230l-1 1-5 30-3 25-1 29 0 30 1 29 3 27 2 27"/>
<path d="M6342 -193l-2 0-24 14-16 28-10 29-6 30 1 30 8 30 15 25 19 17 28 11 25 1 26-6 23-10 22-22 11-26 1-27-7-30-10-26-14-27-15-26-16-22-22-14-24 6"/>
<path d="M6050 -4041l 3-3 22-13 28-9 31-2 32 4 31 11 29 17 24 26 13 20 11 25 8 27 6 28 3 29 3 31 0 31 0 32-2 32-3 31-3 32-4 33-6 37-6 38-9 41-10 42-10 43-13 44-12 43-10 40-8 36-7 31-5 27-5 25-9 30-9 25-17 23-25 17-25 13-30 12-31 13-28 14-25 15-20 16-19 21-14 23-2 30 10 28 14 30 13 24 12 26 12 26 11 25 10 25 10 24 12 28 11 26 7 23 3 26-2 25-4 24-7 28-8 33-6 36-2 36 1 24 4 34 6 34 7 31 8 30 6 29 5 33 4 34 2 36 1 25 1 25 1 26 0 24 0 33-3 34-6 36-7 24-9 23-19 31-15 19-16 19-19 17-20 15-21 12-23 9-34 10-36 2-34-5-31-12-28-15-22-19-15-21-7-28 7-27"/>
<path d="M6427 -3130l-1-1-18 21-17 26-16 28-11 23-11 26-10 28-10 30-6 31-4 29-2 28 2 25 8 32 12 25 15 21 20 14 23 10 24 5 31-3 28-12 22-17 14-22-2-27-17-23-20-16-22-14-23-9-30 1-28 10-22 10-19 20-7 26"/>
<path d="M3811 -752l-1-1 22-16 28-8 25-9 27-12 26-11 23-10"/>
<path d="M3858 -721l-1-1 24-5 25-5 31-8"/>
<path d="M4202 -1004l-1-1-25 7-15 28-14 30-10 23-10 26-9 27-11 29-11 30-10 33-9 34-8 36-6 37-5 37-2 36 0 34 2 31 5 27 11 32 15 25 18 19 27 16 27 8 25 4"/>
<path d="M4284 -961l-1-1 14-22 21-17 25-14 26-5 24 3 24 13 0 26-15 21-17 20-20 18-20 18-20 15-23 17-23 16 21-14 25-12 28-9 28-4 27 0 24 1 26 9 11 23"/>
<path d="M4352 -703l-1-1-21 12-12 27-7 23-8 27-6 28-3 27 1 29 8 27 24 16 25-4 25-10 26-19 25-23 20-25 14-26 6-25-1-29-11-25-22-21-26-15-26-7-25 3-25 7"/>
<path d="M4492 -1029l 1-1 24 13 21 15 25 19 21 19 22 22 18 24 17 26 13 29 10 31 8 34 3 24 1 25-1 26-2 27-5 27-5 26-5 25-6 25-11 33-12 29-13 21-17 22"/>
<path d="M1292 2182l 0-3-2-26 8-24 20-16 20-16 24-12 24-5 25-2 27 0 28 5 24 14 20 19 12 24 4 25-4 29-10 33-12 23-14 24-16 25-19 26-19 26-20 25-21 25-22 22-22 22-21 20-23 21-17 16-25 19-24 17-22 15 18-18 33-16 27-11 26-8 24-6 33-6 35-4 33 1 31 3 26 8 22 9 24 17 19 21 16 19"/>
<path d="M1673 1925l 0-1-11 24-1 24 3 28 4 31 1 24 1 29 2 27 5 25"/>
<path d="M1820 2155l-2-1 26-17 25-8 26-8 27-6 27-4 27 2 24 10 4 27-10 23-18 23-20 20-22 16-27 18-22 18-18 18 24-6 28-6 28-3 29-4 28-1 25 4 27 11 23 17 12 24 1 31-6 25-13 28-16 28-19 27-22 24-22 21-23 15-29 8-28-3-23-10-23-17-24-20-24-26-17-26-10-22"/>
<path d="M2181 1895l 0-1 1 27 4 32 4 26 5 25 3 25 4 31 1 30-2 28"/>
<path d="M2622 2252l-1 1-13 24-1 29 2 30 4 29 6 31 7 27 13 22"/>
<path d="M2649 2047l-2-2-17 19"/>
<path d="M2720 2310l 1 1 12 23 7 25-1 25 14-28 12-25 14-25 15-21 16-19 25 5 7 24 5 24 3 25 4 25 5 25 14 25"/>
<path d="M3306 1977l 0-1 8 24 2 27-1 34 0 26-1 30-2 31-1 32-2 33-1 33-1 32-2 31-2 29-1 25 0 24 0 31-2 25"/>
<path d="M3549 2093l-1 0"/>
<path d="M3547 2198l-1-1"/>
<path d="M3853 1853l 0-1-20 20-12 24-14 28-10 24-9 24-10 23-9 27-8 27-7 30-6 30-4 34-4 32-2 32 0 33 0 31 1 31 2 30 2 29 3 26 4 25 4 25 8 32 10 28 12 29 13 21 19 21 22 12"/>
<path d="M4042 1873l 0-1 13 23-1 27-3 30-3 36-1 26-2 25-4 35-2 33-2 33-1 29 0 26"/>
<path d="M4052 2305l-1-1-24 10-8 26-8 29-8 33-2 34 0 35 4 30 8 24 15 23 25 11 29-3 21-12 20-21 8-27-5-28-14-22-19-22-20-22-20-18-20-15-15 21"/>
<path d="M4167 1915l 0-1 9 25 16 25 13 20 15 22 16 24 18 25 17 25 16 27 14 27 13 29 11 28 8 28 7 27 4 25 2 28 1 30-1 29-4 32-6 31-5 30-8 30-10 30-9 27-11 27-10 25-12 24-12 20-18 23-22 17"/>
<path d="M4563 1940l-2-1-24 10-15 27-10 24-10 31-7 25-7 29-6 32-5 33-5 34-3 35-2 33 0 33 2 31 3 29 3 26 4 25 8 34 10 31 10 25 14 24 18 22 23 9"/>
<path d="M4687 1929l-2 0-17 21-4 31-1 29 1 30 2 30 5 27 5 28 3 30 2 28"/>
<path d="M4709 2340l-2 0-23 11-5 27-1 25 1 25 8 26 13 21 26 11 27-3 22-12 20-20 9-22-4-26-16-20-21-15-25-12-25-5-28 3-22 11"/>
<path d="M4806 1900l-1-2 19 25 23 23 19 15 19 19 20 19 21 19 21 21 20 24 20 23 18 27 15 27 12 26 8 28 7 26 3 28 0 28-2 28-5 31-6 28-9 29-10 30-12 29-14 30-13 28-14 25-13 25-15 27-17 23"/>
<path d="M5187 2170l-1-2 20-14 32-3 26-1 26-1 24 0"/>
<path d="M5220 2239l-1 1 30 1 25-7 27-9 29-8 29-7 28-7"/>
<path d="M5588 1969l-1-1-25 5-8 22-2 33 0 34-1 27-1 31-1 33 0 34-1 36-1 33 0 33 0 33 1 31 1 30 3 27 1 25 1 32 1 27-1 27"/>
<path d="M1284 3157l-1-1 0-27 24-14 25-2 26 4 27 9 25 13 23 16 21 18 16 27 5 25-2 30-10 34-12 26-13 26-16 28-17 29-19 26-19 25-19 23-20 21-17 18-18 17-20 17-19 16 24-16 27-20 27-17 24-11 24-8 27-3 28-3 26 5 23 10 22 10"/>
<path d="M1597 2934l 1-1 2 27 1 29 2 31 3 28 1 33 1 32 4 28"/>
<path d="M1817 3182l-1-1 24-18 23-8 24-6 29-3 24 7 8 23-12 27-15 21-18 22-15 20-17 20-14 21 10 22 26-2 33-4 30-5 32-1 24 3 24 15 10 23 2 31-5 26-9 29-14 29-17 27-21 24-24 20-27 17-25 10-29 7-29-2-27-14-15-19-10-26-2-30"/>
<path d="M2086 2941l-1-1 7 25 6 27 7 27 8 28 9 30 11 26"/>
<path d="M2640 3202l 0-1-13 23-2 27-1 31 0 29 2 27 8 24"/>
<path d="M2657 3040l-1 0-24 12"/>
<path d="M2717 3227l 0 2-6 28 1 26 2 27 4 26 4-28 9-28 12-22 15-24 16-18 17-18 19 18 5 26 3 25 2 26 2 25 3 28 7 25"/>
<path d="M3232 3040l-1-1-5-24 11-21 24-13 27 2 27 6 32 8 32 11 32 13 31 15 25 18 19 20 12 29-5 24-15 30-17 22-19 22-21 23-24 21-24 20-26 19-26 17-25 15-22 14-28 17-21 12-22 12 24 7 28-1 25-1 30-2 31-3 32-3 29-1 27-1 24 1 28 0"/>
<path d="M3563 3176l 0-1"/>
<path d="M3582 3215l-1-1"/>
<path d="M3950 2950l-1-1-24 10-17 24-15 29-14 31-9 23-10 26-9 28-9 29-7 32-5 35-3 34-1 35 1 34 3 31 4 31 5 28 6 25 11 33 10 28 13 23 17 23 18 17 23 15 24 9"/>
<path d="M4097 2992l 0-1 5-24 21-13 26-5 28-2 24-2 29-2 25 0 22 12 6 25-5 25-11 23-14 20-16 22-18 20-18 16-23 19-22 15-23 11-25 9 24-12 26-3 25-1 29 0 26-1 25 2 27 4 23 9"/>
<path d="M4175 3298l 1-1 3 29-1 26-1 27-1 30-2 26 0 26-3 26"/>
<path d="M4407 2855l 0-1 25-7 20 15 18 22 14 21 15 26 16 25 18 30 17 30 11 24 9 24 8 23 7 25 5 24 3 25 2 26-1 27-3 31-6 31-8 31-9 32-10 30-8 30-9 30-9 27-9 25-7 24-12 28-11 22-16 20-26 4"/>
<path d="M4876 2814l-1-1-25-4-21 16-17 20-19 30-13 24-14 29-12 29-12 31-9 33-8 34-5 35-5 35-3 35 0 34 0 33 3 33 5 33 5 32 5 30 6 30 7 27 12 33 12 25 15 20 23 16 30 2"/>
<path d="M4927 2943l 0-2 8-25 22-14 26-3 29 3 28 10 23 12 13 23-11 29-17 22-22 21-23 20-22 18-20 13-23 13 26-4 24-6 26-6 28-5 27-4 27-3 31 2"/>
<path d="M5027 3269l 0-1 14 22 0 25 0 27-1 31-2 25-1 28-3 28"/>
<path d="M5173 2869l 0 0 9 26 16 23 16 19 17 23 19 24 21 28 13 20 14 20 11 22 10 22 7 24 4 24 2 26 0 28-3 28-5 31-7 31-8 31-10 33-11 31-11 32-13 29-12 27-13 24-12 23-18 26-17 19"/>
<path d="M5450 3171l 1 0 23-10 29-5 26-5 27-4"/>
<path d="M5445 3245l-1-1 23-13 29-10 26-7 28-5 27-3 26 1 28 1"/>
<path d="M5849 2866l 1-1"/>
<path d="M5847 2870l-2 5-16 28-16 26-19 30-11 22-13 23-12 22-11 22-14 29-8 24-4 25 19 19 29 0 32-6 25-6 25-7 27-8 30-9 31-10 33-13 22-9 22-9 28-12 23-9 24-11"/>
<path d="M5935 2884l-1-1-8 29 1 28 1 25 2 28 2 29 3 29 2 32 3 30 3 28 3 30 2 26 4 36 4 30 5 31 4 25"/>
<path d="M5794 2852l 0-1 19 15-5 27-10 25-9 23-11 29-12 28-10 28-8 26-8 24-7 23 10 22"/>
<path d="M7704 -4920l-2-1-22-10-25 12-17 22-15 21-13 25-13 28-12 33-10 35-7 36-5 38-1 35 1 32 4 28 8 25 15 29 22 22 26 16 29 10 33 3 36-5 26-8 26-11 23-14 21-17 18-19 13-21 10-23 6-34-4-34-8-23-12-25-15-26-16-27-19-26-19-26-18-24-19-19-25-21-23-12-26-2-25 18"/>
<path d="M8167 -5072l-3-1-25 7-20 16-22 29-16 25-15 30-13 32-12 34-10 35-9 37-6 35-4 36-3 35-1 34-1 31 0 29 1 27 3 26 2 26 3 25 9 33 10 28 13 24 18 17"/>
<path d="M8218 -4933l 1-1 18 22 2 25 0 32-1 36-2 24-2 25-4 26-4 26-5 26-5 25-9 35-9 33-10 30-9 24-12 21-8-23 3-32 5-29 7-27 8-27 11-23 11-23 18-24 20-17 22-12 25-2 14 21-8 23-15 22-18 18-20 15-20 14-1 24 21 18 24 15 21 15 20 17 20 17 20 14"/>
<path d="M8461 -4728l 1-1"/>
<path d="M8597 -4706l 1-2 19 16 3 27-3 26-7 30-9 25-8 29-8 23-20-14 2-26 7-28 12-27 14-26 18-25 22-24 21-23 21-16 24-10 23 11 2 25-5 30-7 27-9 28-8 27-6 26-5 25 12 24"/>
<path d="M8784 -4962l 1 0 23 21 22 24 20 26 12 20 12 22 11 22 12 24 11 22 8 23 8 24 7 24 6 25 4 25 2 26 0 28-4 29-5 31-7 33-9 30-10 32-13 30-15 30-14 29-15 23"/>
<path d="M7495 -1143l-1-2 10-24 25-8 32-10 35-9 34-8 29-5 25 1 5 24-19 25-21 20-25 19-26 17-26 16-23 15-24 15 24 7 25-4 30-4 33 1 34 1 31 6 23 8 19 15 5 25-13 26-17 24-24 24-28 20-30 16-33 13-31 7-30 0-26-6-22-9-21-20-7-25"/>
<path d="M7844 -1053l-1-1"/>
<path d="M7981 -1241l-1-3 5-24 27-9 24-3 27-2 29 0 29 2 28 4 24 5 24 11 10 25-13 26-21 24-18 18-19 19-21 18-22 18-22 18-21 19-21 18-19 15-26 22-22 19-19 19 21 18 24-3 29-8 33-8 34-9 33-5 29-4 28 0 25 1"/>
<path d="M8332 -1091l-1-1"/>
<path d="M8546 -1306l-1 0-8 30-1 26-1 32 1 36 0 24 1 26 1 25 2 27 2 28 1 27 1 27 1 24 2 34 3 30 2 28 3 26"/>
<path d="M7499 -750l-1-1 25-13 34-6 30-4 35-5 38-5 42-6 45-6 47-5 25-3 26-2 26-3 27-2 27-1 28-2 28-2 29-2 29-2 29-1 30-2 30-1 30-2 30-2 30-1 30-1 31-1 31 0 30-2 30-1 28 0 29 0 28-1 28-1 26 0 25 0 46 0 43 1 37 1 33 1 30 2 26 1 31 3 28 4"/>
<path d="M7363 -453l 0-1 4 30 0 30-1 32 0 33 0 35 0 25 1 34 0 31 1 30 3 30 3 25"/>
<path d="M7735 -276l-1-1"/>
<path d="M7730 -282l 0-1"/>
<path d="M7982 -423l-1-2-2-25 21-14 29-13 27-8 29-5 28-3 28 1 26 2 29 7 22 13 10 26-7 30-16 26-24 29-18 20-20 21-21 21-22 21-22 19-21 18-20 17-24 21-22 19-23 21 28 7 26-5 31-5 33-5 33-5 30-3 24-2 26 1 25 5"/>
<path d="M8339 -321l-1-1"/>
<path d="M8527 -491l-1-1 4 25 1 25 3 27 3 28 4 28 3 29 3 30 2 28 0 27 0 33 0 27 1 24 6 26"/>
<path d="M9314 -1083l 0-1 19-16-21-14-17 18"/>
<path d="M9643 -1285l 0-2-7 25-9 26-10 28-10 29-9 28-9 26-2 24 14 20 26 6 27 1 30 0 25-1 27-4 26-3 30-3 26-2 24-5"/>
<path d="M9750 -1203l 0-1-1 28 4 26 4 29 5 26 5 26 5 23 7 24 5 27"/>
<path d="M9397 -703l 3-1 25-3 23-5 30-7 24-3 24-4 26-2 27-3 29-3 31-4 32-4 35-5 35-4 33-3 31-4 27-2 25-2 30 0 25-1 24-1 25 1"/>
<path d="M9595 -563l 0-1 15-20 25-11 29-5 25 1 27 5 28 6 24 7 23 10 20 17-2 25-15 21-20 19-25 21-26 21-27 20-22 18-21 17-24 19-20 14-20 14 23-8 30-6 28-7 28-6 28-1 28-1 28 0 26 1 23 6"/>
<path d="M10107 -748l-1-1"/>
<path d="M10371 -1206l 0-1 24-7 25-8 23-8 25-9 28-8 29-5"/>
<path d="M10341 -1205l-1 2-6 24-3 25 0 25 1 27 3 26 8 22 27 0 23-11 22-11 22-12 26-11 27-5 27 2 25 11 11 23-8 24-20 20-24 14-26 12-29 10-26 7-27 4-24-2"/>
<path d="M10267 -850l 0-1 24 7 28-1 33-4 28-5 32-7 24-5 24-5 24-5 24-5 34-7 34-6 33-5 33-5 30-2 24-1 26 1"/>
<path d="M10412 -716l 0-1 27-2 29-1 25 0 28 2 25 8-10 26-20 16-21 13 20 16 23 8 23 11 22 15 17 19 9 23-5 23-17 20-22 15-27 13-29 12-30 10-23 5-32 5-31 0-27-3-28-9"/>
<path d="M6644 2629l 0-1"/>
<path d="M7005 2371l-1 0 12-23 24-11 26 1 28 2 24 5 27 6 21 12 3 24-16 23-17 20-21 20-21 19-22 16-22 17-23 13-28 14-23 11-22 10 25-2 25-2 31-5 26-4 28-3 30-4 29-6 28-5 26-4 27-3 25 1"/>
<path d="M6918 2692l 0 0 24 0 26-4 30-4 26-5 29-4 31-3 30-2 33-4 30-3 30-4 27-2 31-2 27-4 26-3"/>
<path d="M7132 2739l 0-1 4 27 9 25 7 26 4 27 3 28-1 31-1 27-2 28-3 25"/>
<path d="M7569 2650l-1-1"/>
<path d="M7732 2383l 0-2 19-19 24-3 25 0 26 4 25 6 24 7 21 13 0 25-15 23-18 18-20 19-22 18-24 17-21 15-21 16 25 8 26-4 28-2 32-3 25-2 27-3 28-2 30-3 26 0"/>
<path d="M7703 2724l 1-1 25-6 28-4 30-4 31-4 30-1 31-3 32-4 31-3 27-1 30-2 25-1"/>
<path d="M7886 2794l 1 0 8 24 5 29 6 25 5 27 2 26 2 24"/>
<path d="M6710 3755l 0-1"/>
<path d="M6988 3568l 0-1 1-24 20-18 24-12 25-11 28-7 28-3 25 1 26 6 2 29-15 20-23 21-19 15-25 19-23 16-22 15-21 13 26 2 27-2 32 0 24 2 30 5 24 10 20 14 7 26-17 23-20 14-22 12-22 10-28 7-27 4-26-1"/>
<path d="M6864 3992l 0 0 24-10 27-4 28-4 32-2 31-1 35-2 24-3 25-2 26-4 27-3 25-2 26-2 24-1 35-3 32-2 30-3 25-2 29-5 29-4 25-3"/>
<path d="M7073 4094l 1-2 18-17 25-2 24 1 29 4 31 4 28 4 28 6 20 16-12 21-23 21-25 19-28 19-27 18-28 18-26 17-23 19-18 17-18 17 28 6 25-5 30-5 33-6 24-6 34-6 34-7 30-6 29-6 24-7"/>
<path d="M7549 4017l 1-2"/>
<path d="M7836 3648l-1-1 12-23 31-7 29-2 29 2 26 2 28 5 22 8-2 27-20 15-27 17-22 12-21 11-25 13-19 15 22 12 27 4 23 7 25 5 24 5 24 9-6 27-20 16-26 17-21 13-23 12-23 10-29 8-28 5-25 2-25 0"/>
<path d="M7706 4018l 0-1 29-10 30-6 37-7 28-6 29-5 32-7 34-8 32-8 32-8 30-6 29-6 29-4 26-4 24-3 33-5 28-4 25-4 24 0"/>
<path d="M7949 4069l 0-1 26-10 28-3 28 1 27 3 26 6 14 22-16 21-20 19-24 17-24 16-23 16-21 16-20 15 20 17 28-3 25-5 26-3 29-5 28-4 27-5"/>
<path d="M3963 3862l 1-1-22 10-17 23-16 27-13 29-9 23-10 25-9 27-9 28-8 30-7 31-7 32-5 31-3 31-1 29 1 27 3 25 6 35 9 32 11 30 11 27 11 23 14 27 14 22 18 19"/>
<path d="M4081 3925l 0-3 1-24 26-9 32 0 25 4 30 9 23 12 9 26-15 26-23 22-24 18-23 12-22 10 27 2 30-6 29-5 25 5 7 25-14 23-17 20-15 19-22 16-24 13-26 8-23 6"/>
<path d="M4121 4290l-1-1 25-13 28-7 31-3 25 3 21 16-10 28-20 26-17 20-18 18-18 18-17 17-23 21-20 21-17 22 7 25 30 5 27-3 30-8 33-11 24-10 24-10 25-12 22-12 30-14"/>
<path d="M4327 3905l-1-2 24 5 22 15 27 19 19 17 21 18 20 21 19 22 17 23 15 22 13 24 10 23 9 24 5 27 2 26-1 29-3 28-6 29-8 30-8 29-10 28-9 27-10 25-11 25-11 23-19 29"/>
<path d="M4930 3940l 0-3-2-25-24 7-19 17-21 25-15 22-15 26-15 30-14 32-12 34-11 37-8 37-6 38-4 36-2 33 1 31 3 27 4 26 6 24 10 32 13 28 13 24 22 19"/>
<path d="M4969 3977l 0-4 1-25 19-17 29-4 26 6 21 18 3 25-15 20-19 17-21 13 24 5 28-5 25 0 10 22-12 26-18 24-17 18-18 17-23 15-22 13"/>
<path d="M4993 4255l-1-1 22-12 30-1 29 4 22 13 2 24-15 22-19 19-24 19-23 18-21 16-18 18 11 21 29-8 24-8 26-12 27-11 28-10"/>
<path d="M5118 3914l-1-4-8-22 21 11 18 21 23 25 18 20 19 20 19 21 20 22 18 22 18 21 16 23 13 22 12 24 8 23 6 25 2 25-1 28-4 27-6 28-9 27-10 24-11 22-15 31-15 28-12 22"/>
<path d="M5461 4086l-1-1 22-13 29 0"/>
<path d="M5471 4173l 1 0 25-9 30-8 28-9"/>
<path d="M5943 3955l-1-5-3-24-6-28-11-24-16-23-24-17-32-10-28 1-31 10-22 14-20 16-20 16-17 20-16 28-7 27 3 25 19 24 24 9 29 5 33-1 31-6 30-8 26-11 21-14 22-23 11-21-21 13-8 31-5 30-6 35-4 36-3 26-4 25-3 28-3 27-3 28-4 29-2 28-1 28 0 25 1 35 2 32 1 31"/>
<path d="M3822 1555l 0-1-11-23-20 13-18 22-15 23-12 28-8 24-5 25-1 26 1 25 5 27 11 24 18 16 28 6"/>
<path d="M3902 1550l-1-1 20-18 26-10 23-10"/>
<path d="M3938 1537l-2 2-20 20-14 21 17 18 25-10 24-5 26-2 27 2 13 20-20 16-25 12-22 12"/>
<path d="M3936 1731l 1 0 19-15 20-14 25 1 9 23-2 25 27 0 19 15-2 27-7 24-15 20-25 6-22-11"/>
<path d="M4063 1532l 0 0 20 18 27 13 24 13 24 18 24 20 17 17 15 20 12 22 6 27 1 28-5 30-8 30-10 28-11 25-11 25-14 25-12 21"/>
<path d="M4454 1651l-1-1 27 5 25 0 30-4"/>
<path d="M4452 1752l 0-1 26-3 25-2 27-4 28-8"/>
<path d="M4858 1472l-1-1-6 30-1 25-1 24-2 25-3 26-2 24-3 30-2 26 7 24"/>
<path d="M4989 1487l-2 0-23 11-11 23-5 25-1 25 1 28 6 27 12 21 22 16 27 7 28-6 22-11 23-14 20-19 17-23 13-24 7-30-7-29-17-22-21-13-27-2-25 6-24 13-22 17"/>
<path d="M5062 -641l 0-1 26-5 25-13 23-10 25-15 21-14 24-21 18-22 10-24-6-24-22-17-27-6-25 5-23 12-16 19-11 23-3 28 5 28 10 23 17 20 22 13 25 2 23-7 21-13 20-13 22-12"/>
<path d="M5312 -773l-1 0 27-6 22-10 23-13 22-12"/>
<path d="M5347 -838l-1-1-8 23 3 26 5 27 5 25 10 24"/>
<path d="M5444 -910l 0-1 1 25 5 27 5 24 6 24 7 25 6 25 6 23 8 28"/>
<path d="M5110 -529l-1 0 25 12 25-1 28-6 28-6 31-8 33-10 24-8 25-8 26-9 25-9 25-9 24-8 31-11 28-10 27-9 25-7"/>
<path d="M5381 -479l-1-1 2 27 3 25 2 25 1 24 4 26 7 26"/>
<path d="M5124 455l 0 0 26-1 24-10 22-13 23-16 19-18 5-24-23-14-25 1-25 12-20 16-18 20-15 21-14 27-8 26-2 27 2 25 12 24 21 16 27 5 32-5 26-9 26-15 26-19"/>
<path d="M5303 406l-1 0 25-6 27-10 25-11 23-12"/>
<path d="M5352 344l-1-1-4 27 6 24 8 26 9 24"/>
<path d="M5405 300l 1-1 20-15 25-5 28 3 24 6 21 13-9 26-14 22-16 21-16 20-13 22 25 11 25-5 24-4 26-7"/>
<path d="M5119 674l 0 1 24-6 29-9 25-7 26-11 28-11 32-13 24-9 25-9 26-9 25-8 25-9 24-8 24-7 24-6 32-9 26-8 25-6"/>
<path d="M5358 681l 1-1 20-17 26 2 24 9 3 26-12 24-17 22-17 20-17 19 25 4 29-3 31-6 25-6 24-7 29-8"/>
<path d="M1373 5674l 0-1 1 29 0 33 0 32 0 24 0 27-2 29-1 33-2 35-3 37-4 38-3 39-5 38-3 38-3 38-4 38-1 37-1 35-2 32-2 32-1 30 0 26-1 35 0 30-1 26-2 26-2 24 3-28"/>
<path d="M1990 6098l-1 0 29-3 27-2 32-4 27-2 29-4 27-3 25-1"/>
<path d="M2120 6001l-2 0-24 7-3 26-2 30-1 26 1 27 2 29 4 28 6 25"/>
<path d="M3075 5768l 2-5 11-27 10-25 6-24 2-26-5-29-15-23-22-17-32-6-28 3-31 11-22 12-22 17-23 21-22 26-21 28-18 28-15 29-11 26-6 26-2 33 9 27 17 18 28 7 36-5 25-9 25-13 26-15 24-18 22-17 19-19 24-24 18-24 13-22 9-28 2-26-27 9-11 22-8 24-5 26-2 28 2 30 6 29 7 25 14 20 25 13"/>
<path d="M3200 5875l 0 0-14 21-2 25 0 28"/>
<path d="M3320 5689l 0-1 24 5 30-5 30-8 25-6 22-8"/>
<path d="M3388 5622l-1 1-18 21-2 26 3 24 7 24 10 27"/>
<path d="M3582 5505l-1 1-20 19-6 24-3 32 0 27-1 29 0 34 0 33 0 32-2 26-3 29-5 25"/>
<path d="M2873 6045l-1-1 26 2 32-2 26-2 27-2 29-2 32-2 33-2 34-3 35-3 35-4 34-3 34-5 32-5 31-4 32-4 30-4 29-3 27-3 27-3 24-2 33-1 31 1 26 1 26 2 25 4"/>
<path d="M3216 6181l 1-1 0 27 1 25-1 26-2 31-5 32-3 24-3 25-4 31-3 26-2 26"/>
<path d="M3800 6004l-1-1"/>
<path d="M4132 5741l 0-4-4-26-3-26-7-30-10-25-20-20-25-9-25 2-22 9-24 16-24 19-20 23-16 27-11 26-5 29 9 26 23 12 28-1 25-7 25-11 23-12 22-12 22-17 18-20 10-22-10 24-10 25-7 26-3 25 0 27 7 24 19 18"/>
<path d="M4225 5807l 1-1 27-2 27 4 26 7 4 25-19 18-19 15-22 17-20 14-19 18 29 5 23-9 22-10 29-12 30-8"/>
<path d="M4396 5718l 0-1 20-20 29-12 25-6 25-8 29-9"/>
<path d="M4463 5615l-1-1-13 22 3 26 4 25 6 25 13 26"/>
<path d="M4677 5498l-1-1-4 25 1 30 0 28 0 32-2 36 0 26-2 26-1 27-3 34-5 28-7 30-8 25"/>
<path d="M3998 6021l 2-2 26-10 27-6 35-6 27-5 29-2 29-4 31-2 33-3 35-2 35-4 36-2 36-2 35-1 34 0 32-1 31-1 30-1 27 0 26 0 26-1 35-1 34 0 31-3 27 0 26 1"/>
<path d="M4391 6164l-1-1 4 29 0 29-2 27 0 27-2 25-3 26-4 24-3 27"/>
<path d="M4867 5931l 1-1 25-3 26 0 29-1 33-1 24-3 26-4 23-8"/>
<path d="M4955 5851l-1 0-15 21 0 28 3 24 4 26 7 27 6 25 8 25 9 24"/>
<path d="M5135 6027l 0-1 27 7"/>
<path d="M5238 6051l-1 0 22 9"/>
<path d="M5323 6049l 0-1 21 13"/>
<path d="M4967 5959l-1-1-25 3-20 17-18 20-14 19 29-4 20-15 18-18 12-21-7-24-25-4-23 12-17 17-10 23 25 6 23-9 24-13-9-24-25-6-24-2-24 10-10 23 13 23 27 2 25-3"/>
<path d="M1235 7699l 0 0 29-1 34 4 26 0 34-4 23-5 24-5"/>
<path d="M1350 7611l-1 1-13 23 1 30 6 28 8 29 11 23"/>
<path d="M2161 7475l 1-4 5-25 6-27 6-28 3-30-5-28-14-23-23-18-28-8-31 2-27 10-27 15-18 16-18 19-18 22-16 24-15 24-12 25-8 23-7 32 0 29 7 29 25 16 30-4 24-10 24-15 22-17 20-18 20-20 18-19 17-19 19-24 14-25-20 16-11 29-9 26-4 25 3 27 8 23 20 14 26 5"/>
<path d="M2283 7561l 0 0-2 26 3 26 1 28 0 27"/>
<path d="M2384 7429l 1-1 25-5 30-6 25-6 23-6 28-9"/>
<path d="M2448 7359l-1 1-11 23 4 28 9 24 12 22"/>
<path d="M2640 7224l-1-1-7 28 3 30 4 28 3 29 3 30 2 32 2 30-1 28-1 25-1 29"/>
<path d="M1878 7801l 0-1 24-12 27-6 25-7 29-8 33-10 33-10 36-9 38-8 40-8 44-7 44-5 44-5 46-4 46-5 45-4 47-5 45-2 44-3 42-3 42-2 40-3 37-3 35-2 30-1 28 0 26 0 24 2 30 0 25 4"/>
<path d="M3246 7383l 2-1 20-15 11-25-4-26-20-19-25-8-30 1-23 10-24 19-16 21-12 23-11 29-2 25 6 25 23 10 29-6 25-14 21-15 24-20 19-21 13-22 5-24-13 22-4 25 0 24 7 23 21 18 26 7"/>
<path d="M3409 7446l 0 0-8 23 0 25-1 28 0 30"/>
<path d="M3498 7346l 0-1 25-8 30-9 25-6 24-6 25-6"/>
<path d="M3570 7256l-1 1-12 23-3 25 0 25-1 27-1 27 2 26 8 26"/>
<path d="M3727 7210l 1-1 21-13 26-5 32 0 30 7 22 13 17 20 3 25-9 23-18 19-19 17-23 19-28 20-20 15-20 14-26 21-22 20-18 20 23 13 27-3 25-3 27-2 30-2 33-2 31-1 29-2 24-1"/>
<path d="M3084 7684l 0 0 24 9 27-1 35-7 26-5 29-6 29-7 31-7 33-7 35-5 35-3 37-3 38-4 41-3 44-2 45-3 45-2 47-3 48-3 47-3 44-3 41-3 34-4 31-3 27-2 30-1 25-1"/>
<path d="M3453 7865l 1-1 20-18 27-6 31-4 26 2 22 10 7 24-4 25-11 27-15 26-14 20-18 20-22 18-25 16-27 15-27 15-24 13-23 15 25 14 25-2 29-3 32-4 33-4 33-5 30-7 28-5 27-5"/>
<path d="M2549 7960l 0 0 5 29 3 30 2 25 1 24 1 26 2 26 0 24 2 31"/>
<path d="M4288 7597l-1-1-25-7"/>
<path d="M4872 7229l 0-4-7-27-14-23-22-16-26-6-32 2-26 10-29 15-28 22-19 18-17 20-15 19-14 20-14 26-6 28 13 24 22 11 33-5 29-9 28-11 28-15 24-15 21-17 22-22 20-21 20-20-6 30-13 23-11 25-6 26 0 29 13 22 26 16"/>
<path d="M4993 7371l 1-1 27-6 28 4 20 14-20 20-22 18-22 19-18 19-18 19 20 13 28-5 27-8 32-8 33-12"/>
<path d="M5173 7284l-1-1 22-18 25-10 28-11 28-9 28-10"/>
<path d="M5243 7182l-1 0-22 12-6 26-1 26 3 27 6 25"/>
<path d="M5473 7059l-1-1-20 17-3 30 3 26 2 30 3 32 2 34 2 33 3 31 3 27 3 30"/>
<path d="M5998 7219l 1-2-1-27-8-23-26 1-26 12-22 13-22 17-20 20-15 20-11 25 7 25 25 6 31-6 23-9 28-13 22-18 15-21 2 25 16 21 25 10"/>
<path d="M6120 7297l 0-1 18-19 25 1 26 6 5 26-19 19-21 19-23 17-22 17-16 19 26 10 25-4 32-9 27-10 28-9"/>
<path d="M6292 7162l 0 0 24-10 30-5 28-4 24-5"/>
<path d="M6359 7101l-2 0-23 9-4 29 3 29 3 27 7 25"/>
<path d="M6550 7016l 1-2 21-13 29 4 24 7 24 9 17 19 3 25-13 27-21 24-19 18-21 17-18 16-17 20-7 23 17 18 27 4 30-2 29-3 32-5 25-5 31-5"/>
<path d="M4545 7593l 0-2 19-17 30-10 30-7 25-3 30-5 36-2 41-4 48-4 27-1 28-1 29-3 30-2 31-2 32-2 33-2 34-2 35 0 34-2 34-1 36-1 35-1 36-1 35-1 35 0 35-2 33 0 34-1 33 0 32-1 31-1 30 0 28-1 28 0 26-1 24 0 45 0 39 0 35 2 31-1 27 0 35-2 32-5 35-6 24-5 25-4 25-5 27-5 27-3 27-4 27-3 26-3 25-4 25-3 25-2 29-2 31-3 33-1 36-4 37-3 36-2 37-5 36-3 35-3 33-2 33-2 31-2 29 0 27-1 27 0 25-2 35-5 32-7 29-3 25-5 26-3 25-2"/>
<path d="M5129 7766l-1-1-3 28-2 32-1 26-1 26 0 25 0 24 2 25 2 29 10 25"/>
<path d="M6266 7686l 1-1 8-23 22-9 28-6 26 0 24 5 24 9 17 19-9 27-21 24-25 21-29 20-22 13-21 15-22 13-23 14-22 13-27 18-21 17-15 21 18 16 26-2 26-6 28-7 28-7 29-10 26-8 23-5 26-3 24-2"/>
<path d="M7135 7564l-1-1"/>
<path d="M7333 7792l-1-1 25-3"/>
<path d="M7456 7820l-1-1 24-5"/>
<path d="M7565 7824l 0 0 21-15"/>
<path d="M7392 5810l-1 1-9 27-4 28-4 25-3 28-4 32-5 33-6 35-7 35-8 35-8 35-10 33-8 30-9 28-9 23-11 26"/>
<path d="M7367 5792l 1-3 16-25 21-13 26-8 33-7 25-3 25-2 35 2 31 7 24 11 17 22 2 25-10 23-17 24-23 23-25 23-28 20-30 15-30 13-29 9-25 5-25-3"/>
<path d="M7730 5423l 0 0 5 26 12 31 9 29 4 25 3 29 0 31-3 33-6 36-10 36-13 36-15 35-14 32-16 30-15 27-13 22-18 25 4-24 17-33 13-23 15-24 14-23 16-20 15-20 25-25 24-22 23-13 24-9 16 21-7 25-13 28-10 23-10 28-6 24 7 26 26 9 24-7 22-10"/>
<path d="M7939 5781l 1-1 28 2 25 0 26-5 28-7 24-12 19-16-7-25-24-9-26 1-29 8-22 10-22 16-20 19-17 18-13 22 2 28 23 16 26 4 32-2 27-6 28-10 27-14 25-14 23-16 22-20 14-24 1-24-24 17-16 23-15 27-9 25 2 26 27-8 21-15 24-23 24-23 24-24 24-20 21-19 24-18 18 18-7 28-7 24-6 28 5 26 19 16"/>
<path d="M8446 5713l-1-1-24 2-21 17-18 20-15 25 3 26 24 10 28-5 27-10 23-13 19-24 6-25-5-24-16-24"/>
<path d="M8791 5423l-1-1-16 20-4 25-5 24-7 26-10 32-8 24-10 26-11 28-11 27-10 28-9 25-7 25-9 31-4 26 2 26 16 22 25 2 25-5 25-12 22-16"/>
<path d="M8630 5650l-6 0-25 1-30 4-24 6 30-10 29-9 24-6 24-6 27-7 28-7 29-5 30-6 29-5 29-4 27-3 33-3 24 0 3 26-10 25-10 23-12 23-13 23-12 24-16 30-12 22-7 25 21 13 27-11 28-18 20-15 21-18 20-19 18-20 17-21 13-20 17-26 13-23-23 17-14 24-16 30-11 22-11 25-12 27-11 31-12 33-12 37-12 40-12 40-12 40-13 40-13 35-12 31-12 29-13 25-13 21-13 21-20 26-20 22-21 14-17-17 0-27 5-27 9-33 12-38 16-42 8-23 10-24 11-23 11-24 13-24 12-22 12-21 25-39 23-32 21-27 19-21 21-20 20-18 20-15 21-14 30-16 29-12 27-10 30-3"/>
<path d="M9147 5674l 0-1-19 21-7 30-5 29-5 24-7 27-8 29-10 33-11 34-12 35-14 33-13 32-13 28-10 24-12 24-6-28 6-24 7-29 10-32 10-34 12-36 12-36 14-36 13-33 14-28 13-24 11-21 16-27 15-23 20-20 22-15 27-12 24-3 15 20-11 23-19 23-23 22-21 15-22 10-28 14-21 13"/>
<path d="M9308 5691l 1-1 26-2 28-5 26-7 24-11 19-17-1-25-28-3-26 3-29 10-21 12-20 15-15 20-13 25 3 24 20 15 24 6 30 2 26-6 28-9 28-12 27-12 24-15 21-16 21-22 13-23-25 3 5 27 10 22 13 23 13 24 14 22 3 27-22 18-30 9-28 3-30 0-27-1-25-2 26 12 29 5 24 4 28 4 28 3"/>
<path d="M9393 7000l 0 0-8 24-4 27-5 35-3 25-3 25-2 25-1 24 0 34 1 32 3 28 4 30"/>
<path d="M9030 7654l 0 0 6 26 3 24 1 31 1 30 0 30 0 34-1 35 0 33 3 28"/>
<path d="M9632 7607l 1 1 2 30 4 32 4 25 6 27 6 29 7 30 7 29 7 32 7 32 5 32 6 35 4 34 4 34 4 34"/>
<path d="M8632 8502l-1-1-6 28 1 26 3 33 2 25 2 26 3 27 3 26 4 25 5 25"/>
<path d="M9245 8512l 1-3 23-16 30 5 26 13 26 18 21 23 13 27 4 31-8 32-15 29-22 25-28 20-30 18-32 13-32 9-28 5-28 6 26-2 25-4 30-6 36-6 38-6 43-7 45-5 47-5 25-3 25-2 25-2 25-1 27-3"/>
<path d="M10033 8435l-1-1-2 27 2 30 3 36 3 27 3 31 4 33 4 35 3 35 3 35 2 34 0 34"/>
<path d="M8096 9264l 0 0 5 31 8 30 7 25 7 28 8 28 7 29 8 28 9 28 10 27 10 25 12 22 20 28"/>
<path d="M8732 9221l-1-1 20-15 35 2 28 3 30 5 29 4 27 7 32 9 21 12 10 23-19 20-24 17-28 18-28 15-24 13-25 15 17 23 26 7 31 7 31 8 29 9 26 9 24 16 14 23-2 26-19 23-24 18-31 17-24 9-25 7-25 5-25 2-32 1-29-6"/>
<path d="M9572 9146l-3-2-19-18 28-6 30 3 35 7 31 7 27 11 23 12 20 15 2 25-24 18-24 12-27 10-28 10-27 10-23 9-5 23 26 11 24 7 25 9 21 11 21 20 10 22 0 28-11 22-20 21-30 14-26 6-29 3-28-3-25-8-22-14"/>
<path d="M10479 8975l-1 1-8 30-5 33-3 35-2 27-2 30-2 30-2 31-1 32-2 32-1 33 0 33 0 33 0 32 0 30-1 28-1 27"/>
<path d="M7848 10007l 1-1-11 25-4 25-3 32-2 25-2 27-3 26-2 27-3 28-2 29-5 30-5 29-5 29-4 25-5 33-2 25"/>
<path d="M8369 9968l-1 0-22 14-10 23-8 28-8 33-7 23-6 26-7 25-5 34-2 30 7 30 18 20 22 10 30 7 35 1 27 2 28-1 28-1 28-3 28-4 28-3 26-5 25-5"/>
<path d="M8524 10144l-1 1-17 18-5 23-3 30 0 35 1 25 3 26 3 24 8 32"/>
<path d="M9100 9924l-7 0-28 3-34 9-21 22-15 33-6 28-4 31-1 35 2 35 5 35 6 33 8 27 11 26 11 23 21 28 23 20 25 11 28 5 28-2 26-7 21-12 15-25 2-25-10-28-25-21-26-11-31-5-33 2-32 5-29 9-25 14"/>
<path d="M9718 9872l-3-1-24 3-7 24-5 33-3 31-2 24-4 25-4 25-4 26-4 34 0 33 4 26 10 25 20 19 29 12 30 4 35 0 24-2 26-2 26-5 26-5 25-6 24-7"/>
<path d="M9802 10004l-1 0-15 24 3 30 5 27 7 33 5 24 6 26 5 27 6 28 5 29 5 30 5 29"/>
<path d="M10739 9787l 1-1 20-15 23 17"/>
<path d="M10794 9818l 1 8 4 31 1 32 0 25-1 25 0 27-1 28 0 27 0 27 0 26 0 24 0 24 1 33 3 33 3 33 1 31"/>
<path d="M8620 8258l-2-1-24-10-25-6-27-4-25-3-28 1-30 14-26 24-19 25-20 29-22 35-21 39-22 41-19 40-16 40-14 37-11 33-8 33-6 29-4 28 0 26 3 35 9 34 9 22 11 23 12 22 14 23 16 22 19 22 20 19 22 17 22 13 23 11 25 9 25 6 28 6 30 2 29-2 30-4 30-7 30-9 30-13 28-15 31-20 30-22 29-23 28-25 23-25 21-25 18-26 16-29 13-28 11-33 7-34 3-37-1-37-5-37-9-37-12-36-15-35-19-31-22-27-26-25-28-20-30-20-31-16-31-15-31-12-32-9-32-7-31-6-31-2-30 0-27 2-25 5-32 9-23 13-17 28 0 27"/>
<path d="M8847 9014l-6-3-23-9-23-8-32-8-30-4-32 0-34 3-34 10-23 11-24 15-24 22-24 26-23 31-20 39-17 43-7 23-6 24-4 24-4 26-3 25-1 26 1 24 2 24 7 46 15 42 18 37 22 31 25 26 27 21 30 17 31 13 32 10 35 7 36 2 37 0 37-5 38-5 38-8 37-9 35-12 35-14 30-16 26-20 24-21 20-23 17-26 15-28 11-31 8-34 4-37 0-37-5-39-8-37-12-37-15-36-18-32-20-30-23-26-24-23-26-21-25-18-24-14-25-12-25-9-25-6-27-4-26 2-25 6-23 12-19 20-17 24-13 31"/>
<path d="M9080 9949l-1-4-10-25-8-25-12-30-13-26-17-21-21-13-28-7-26 0-29 7-33 17-26 17-27 21-28 25-28 29-27 31-24 33-21 33-17 35-12 35-7 35-1 35 3 33 7 32 12 32 15 30 19 27 23 26 26 23 31 19 33 17 34 15 34 12 35 11 34 10 35 10 33 6 32 6 29 3 27 2 27 0 24-5 24-9 23-13 22-15 20-20 20-23 16-25 13-28 9-32 6-35 3-37-1-40-3-42-7-42-8-41-12-40-13-35-15-31-17-27-18-24-18-20-19-15-22-12-24-9-28-6-30-3-32-1-32 1-33 4-33 8-32 10-28 12-27 15-22 15-19 18-19 28"/>
<path d="M5285 4778l 0-2 22-9 27-2 27-2 32-5 25-4 27-7 31-8 32-10 33-9 35-8 36-9 35-7 34-6 34-5 32-4 34-5 33-7 32-4 33-5 32-3 33-2 30-3 30-4 30-3 28-4 27-3 25-2 30-2 25-3 27-2 27-3 23-8"/>
<path d="M5618 4899l 0-2-8 26-7 27-9 30-7 30-8 32-7 31-8 30-7 30-6 26-7 28-4 25"/>
<path d="M5783 4881l 1 0-16 24-14 27-12 20-15 28-14 29-10 24-5 24 6 24 22 11 28 3 28-3 30-3 31-7 24-7 29-8 23-10 24-11"/>
<path d="M5850 4913l-1-1-5 29 2 30 2 25 1 32 1 32 0 25-1 25-1 29-1 27-1 25 5 24"/>
<path d="M9124 1986l 1-4-2-25 15 28 6 27 4 35 0 25 0 28-1 26-2 27-2 27-1 27-2 26-2 25-3 35-2 32-1 27-2 30 1 25 3 24"/>
<path d="M9098 2916l-1-2-2-26 22-17 28-12 28-9 31-4 25 1 27 2 28 6 28 8 21 12 22 18 12 22 0 27-8 24-17 26-24 27-21 18-22 18-23 19-22 17-21 17-20 17-28 22-24 20-24 17-21 13 29 4 28 2 26 2 27 3 28 3 28 4 27 2 26 3 30 3 27 4 24 4"/>
<path d="M9242 3769l 0-1 5-23 22-10 24-8 26-7 28-5 31 0 30 5 29 8 24 11 22 16 13 21-13 23-22 21-22 15-24 15-24 15-23 13-26 14-23 9 25 2 29 2 29 2 26 3 26 4 26 5 30 9 22 10 17 20 2 25-9 23-19 25-20 20-23 19-26 15-28 11-30 9-32 8-31 4-31 3-27 0-27-1-24-5"/>
<path d="M9066 4391l 1-1 27-9 25-6 30-5 24 0 27 2 27 4 33 4 35 2 24 0 25 0 24 0 25-1 24-1 36-3 34-5 33-4 29-5 26-5 30-6 25-3 24-1"/>
<path d="M9281 4503l-1-1-23 15-12 22-11 33-7 27-7 32-5 32-3 34-1 31 1 31 2 28 4 27 6 25 11 30 13 22 21 15 28-3 27-14 19-15 21-20 19-23 17-25 15-23 12-31-2-30-20-22-25-12-31-2-34 6-33 12-28 15-22 18-18 22-9 24"/>
<path d="M9142 621l-1-1-15 25 0 28 2 37 3 28 4 29 6 31 5 32 7 32 5 33 4 32 2 30 0 30-1 28-3 24-4 26 2-29 1-28 1-32-1-35-3-36-5-38-5-35-8-35-7-32-7-31-6-28-4-25-2-30 7-25 29-9 33-3 30-3 36-2 26-2 26-1 27-1 25 1 33 4 25 7 19 20-5 26-17 25-18 18-20 18-23 17-24 16-25 14-25 14-25 12-24 10-30 13-28 8"/>
<path d="M9447 629l-1-3 5-23 27-10 30-10 24-8 24-8 25-7 25-7 23-5 33-8 26-5 25-2"/>
<path d="M9591 586l-3 3-17 18-8 25 2 26 6 31 6 27 4 29 3 33 0 35-1 24-1 35-5 32-3 28-5 25"/>
<path d="M9450 1014l-1 0 25 0 30-4 27-6 29-7 32-9 33-8 34-10 35-10 23-7"/>
<path d="M9853 588l 0-1 14-20 25-10 29-8 26-5 26-7 24-5"/>
<path d="M9857 582l-1 1-14 26-3 30 0 31 1 34 0 24 1 37 0 26 0 25 0 25 0 25 0 30 2 30 3 25"/>
<path d="M9843 786l 0-1 19-18 31-9 29-7 32-6 33-5 30-5 24-1"/>
<path d="M9813 944l-1 2 20 13 24-8 28-9 31-12 34-12 25-9 25-9 23-10 25-9 24-10"/>
<path d="M10128 562l 3-1 23-15 30-10 27-6 31-5 30-3 27-1 28 5 22 11 0 29-15 27-15 26-20 29-12 21-13 22-13 21-17 31-14 33-8 32-5 31"/>
<path d="M10285 927l 0-1 21 15"/>
<path d="M3251 8840l-2-2-22-13-25 6-22 20-18 26-15 24-12 30-13 33-6 24-7 24-6 27-5 28-4 31-3 31-1 32 0 32 2 32 3 31 5 31 7 27 7 24 11 31 12 24 16 22 22 16 26 5 26-10"/>
<path d="M3360 8895l-1 0-16 22-3 29 0 27 0 30 0 26 0 27 0 28 2 27 3 27"/>
<path d="M3337 9325l-1-1-15 22 1 30 4 27 8 24 14 23 27 11 26-5 22-17 19-23 11-24-2-26-18-17-20-14-28-9-27 0-24 8"/>
<path d="M3475 8854l-1-1 12 30 17 27 13 20 14 23 15 23 15 24 15 24 14 24 14 25 13 25 10 25 10 24 5 25 3 36-4 27-7 27-10 28-12 29-13 25-14 24-13 22-19 30-16 23-17 20"/>
<path d="M3827 8796l-1-1-25 5-14 25-12 30-9 32-8 26-6 29-7 33-7 33-6 36-4 37-1 37 1 37 0 35 3 32 5 30 6 27 11 33 13 27 15 21 18 18 19 18 26 11"/>
<path d="M3960 8835l 0-1 19-17 25-7 28-2 24 1 9 23-19 22-21 22-22 20-23 20-21 20-16 18-17 21 23 14 23-7 28-8 24-7 25-8 24-6 28-3 24 6"/>
<path d="M4053 9154l-1-1-23 9-8 24-4 29 0 29 7 26 12 21 21 17 27 4 26-7 27-14 22-19 15-24 6-30-4-30-9-24-15-22-18-21-19-15-24-9-28 2-25 13"/>
<path d="M4223 8740l 0-3 20-13 21 15 17 20 18 25 18 28 19 30 16 32 15 32 11 33 8 35 3 35-2 25-3 27-6 28-8 29-10 28-11 27-12 26-14 25-15 26-16 26"/>
<path d="M3177 9658l 0-1-21 13-12 27-10 26-11 31-9 25-9 28-10 29-9 33-10 35-8 36-6 39-4 38-3 37 0 37 3 33 5 32 7 28 8 25 13 30 17 23 15 19 20 20 23 16 27 4"/>
<path d="M3295 9760l 0-1 19-18 26-7 26-4-2 27-14 19-16 20-22 19-19 15 28 4 29-5 28-4 28-6 27-6 28-4 24 7-5 28"/>
<path d="M3393 10050l 0-1 1 25-1 27-1 25-1 24-2 24-3 29-4 29-3 28"/>
<path d="M3520 9720l-1-1 28-5 25 15 20 17 22 18 24 21 22 25 20 24 16 27 15 29 10 31 5 32 0 24-2 25-3 27-7 29-8 26-10 27-10 26-11 24-11 24-16 31-16 28-16 20"/>
<path d="M3918 9608l-1-1-25-3-20 21-15 29-14 31-9 27-8 32-8 36-6 39-5 41-4 42-1 41 0 41 4 39 4 37 6 34 7 28 9 25 13 30 13 23 17 20 21 14 24 0"/>
<path d="M4010 9662l-1-2 18-19 26-7 27-3 26 2 0 24-18 21-17 18-17 17-20 20-15 18 25-8 23-7 25-3 24 7 5 23-11 23-16 20-22 17-22 11-25 12-23 11"/>
<path d="M4138 9960l 0 0 9 24 4 29 0 31-2 26-4 26-3 25-3 27-1 26"/>
<path d="M4210 9607l 1 0 19 19 20 16 21 22 18 23 20 24 18 30 17 32 10 23 14 33 7 24 5 25 4 26 2 27 0 26 0 26-3 28-4 27-5 27-5 26-6 25-8 32-9 25-10 27-12 21"/>
<path d="M4647 8942l-1-1 29-8 27-4 30-3 29-1"/>
<path d="M4630 9038l-1 1 26-5 29-8 26-6 29-6"/>
<path d="M5031 8760l-1-1-5 27 2 27 4 35 3 27 4 29 4 29 5 30 4 30 4 30 3 28 4 26 2 24 4 29 5 28 5 24"/>
<path d="M4573 9820l-1-1 12-23 28-5 25-2 27-1 26-2 24-2 28 2"/>
<path d="M4572 9938l 0-1 20-21 27-12 24-10 28-8 29-8"/>
<path d="M5012 9568l-2-1-24 4-15 22-10 27-8 24-7 28-7 31-6 34-4 35-3 37 0 34 1 35 4 34 7 30 8 29 10 24 10 22 19 27 21 19 23 8 26 2 26-6 22-12 20-18 14-21 8-24 1-25-10-28-18-26-20-15-29-11-31 1-23 10-21 14-20 23"/>
<path d="M3219 10597l-1-1-25 3-14 24-13 27-14 33-10 27-10 28-9 30-10 33-8 32-7 35-5 35-5 36-2 34-1 33 0 31 3 28 4 27 4 25 9 31 10 27 13 22 20 25 23 19 28 11 24 4"/>
<path d="M3352 10700l 0-1 19-17 25-5 27-3 26 0 2 26-18 19-20 20-19 19-19 18 26 3 28-5 24 0 26 5 27 7 12 20-12 26-20 18-23 13-22 8-27 3-23-5"/>
<path d="M3395 11064l 0-2 16-19 24 0 27 4 24 8 16 20-12 24-19 19-24 20-20 14-24 17-22 14-20 15 24 10 24-10 27-12 23-8 25-9 27-11 26-12 25-12"/>
<path d="M3627 10623l 0-2 26 11 23 15 27 16 29 20 19 15 27 24 18 17 17 20 16 20 14 23 11 24 9 23 8 26 3 27 2 30 0 30-3 32-5 29-5 30-8 29-9 27-10 26-12 24-12 23-13 22-21 28-20 22-19 15"/>
<path d="M4127 10508l-1-1-26 10-17 22-14 25-13 34-9 26-8 31-8 34-7 36-6 38-5 39-4 37-1 38 0 37 2 35 3 32 6 28 7 25 12 32 16 24 17 20 24 19 23 14 23 9 27 5"/>
<path d="M4265 10569l-1 1-20 23-13 22-11 28-12 30-8 23-9 28-5 26 15 23 29 3 26-4 30-7 24-6 23-9 28-10 23-11"/>
<path d="M4333 10643l-2-1-14 20 0 29 2 32 4 28 5 32 6 34 10 31 10 26"/>
<path d="M4271 10975l 0-1 18-18 23-7 29-4 24 7 15 22-5 26-12 21-15 22-18 23-18 20-18 16-21 17 24 2 28-11 25-10 29-11 31-10 25-6"/>
<path d="M4417 10568l 0-1 22 20 22 22 20 16 22 19 23 21 22 24 20 26 18 29 15 30 8 23 7 24 4 24 3 26 2 24 0 24-2 26-5 35-9 34-13 33-17 31-18 29-18 23-15 19-18 20"/>
<path d="M4790 10783l 0-1 24-8 25-5 27-4 24-2"/>
<path d="M4776 10885l 0-1 26-6 30-7 25-5 25-6"/>
<path d="M5134 10597l-1-1-12 27-1 27 0 33-1 24-2 26-3 28-4 29-3 31-4 30-5 31-4 31-4 29-4 26-4 34-2 30"/>
<path d="M5410 10648l 1-4-1-25-4-26-17-19-26-3-28 4-29 10-25 13-21 17-15 24-9 26 0 28 12 26 17 18 22 17 28 13 31 15 31 9 29 9 25 12 21 15 16 27 3 32-5 28-12 33-17 30-18 23-20 17-27 12-26 0-25-16-15-22-9-31-3-27 1-28 4-31 9-30 10-31 13-29 13-29 15-26 13-25 15-22 15-20 24-23 21-16"/>
<path d="M7459 10912l-1-1-1 26 1 29 1 35 0 24 0 25 1 25 0 25 1 24 3 34 4 30"/>
<path d="M7889 10802l 0-1 24-10 29-2 28-3 30-3 32-5 31-5 27-5"/>
<path d="M7939 10850l-2 1-19 15-19 21-13 21-11 24-8 23-3 25 11 22 28 3 27-6 25-10 25-8 28-6 31-1 31-1 27 3 27 8 18 18-2 29-15 28-19 22-23 22-24 20-22 14-26 14-26 0-11-22 6-25"/>
<path d="M8516 10828l-1 0-20 15-9 30-3 31-1 28-2 28-2 28-1 24 1 28 6 28"/>
<path d="M8633 10913l-1-1-25 10-13 25 7 27 18 18 25 7 28-2 22-12 8-25-8-24-14-20-18-16-27-6-26 13-20 20"/>
<path d="M9276 10781l 0-1 9 22-1 29-3 27-4 31-4 32-2 31 2 25"/>
<path d="M9449 10858l-1 0-20 14 2 25 11 27 17 18 26 12 27 2 29-7 23-12 14-24-6-26-11-23-15-20-18-20-26-13-27 6-23 16-18 20"/>
<path d="M10196 10663l 1-1 22-11 28-9 29-7 29-6 31-5"/>
<path d="M10236 10660l-2 1-21 13-22 15-14 23-7 25 2 26 18 18 29 5 26-2 30-5 30-8 30-5 30-4 29 0 25 0 27 2 20 15-11 24-23 21-25 19-29 18-31 17-29 13-26 9-27 6-24-7"/>
<path d="M11016 10545l 1 1 14 23 8 23 6 29 3 26 1 28-1 27-3 27-4 26-6 31-5 25-5 26"/>
<path d="M3227 11545l-1-1-25 6-10 24-9 25-9 30-9 34-6 26-5 30-6 35-5 37-4 39-4 39-3 40-1 38 0 36 2 33 4 33 5 31 5 30 6 27 7 24 12 31 12 26 17 26 17 18 23 16 26 6 26 0"/>
<path d="M3383 11588l-1-1-13 20-10 28-8 27-7 24-7 25 2 25 21 18 24 6 30 2 28 0 32-6 25-10 25-12"/>
<path d="M3469 11664l-2 0-15 21 0 25 3 30 3 27 3 27 3 26 5 25 6 25 8 25"/>
<path d="M3381 12063l 0-1 18-18 24-10 24-8 24-2 1 25-17 24-17 20-20 21-17 18 25-3 25-6 27-4 26 0 21 13 8 25-1 26-11 26-14 23-20 20-23 11-27 3-25-7-21-22"/>
<path d="M3539 11556l 1 0 26 3 29 6 26 8 28 12 29 19 18 16 18 20 16 22 15 27 13 29 10 34 7 35 5 37 4 38 1 40-1 40-1 40-3 39-4 38-3 36-5 32-5 31-7 29-6 26-7 24-11 30"/>
<path d="M4068 11471l-1 0-23 14-17 26-14 29-9 24-10 28-10 30-10 33-10 34-8 37-7 36-5 38-3 37-1 36 1 37 2 34 3 33 4 31 7 30 7 27 8 24 13 31 14 22 22 22 26 8"/>
<path d="M4229 11576l 0-2 14-22 25-7 29-5 28-5"/>
<path d="M4252 11577l-1 1-23 20-17 24-12 27-6 28 14 21 25 1 25-5 30-3 27 0 27 5 27 9 23 9 20 17-10 25-23 21-20 16-22 15-22 13-26 13-23 9"/>
<path d="M4234 11993l 1-1 19-16 29-10 26-9 24-5 21 13-11 26-13 21-17 19-19 19-20 15 26-1 25-3 26-2 26 5 24 13 17 18 5 29-10 23-19 23-18 17-27 14-29 1-27-13-20-14-18-21"/>
<path d="M4399 11413l 0 0 28 10 25 9 28 14 21 13 22 13 22 15 24 17 23 17 22 19 21 23 20 23 18 25 14 26 13 25 10 29 7 29 5 33 1 34 0 34-3 33-6 33-9 32-10 33-12 32-13 29-14 26-13 23-20 27-19 18-24 13"/>
<path d="M4812 11672l 1-1 24-12 25-3 24 1 27 6"/>
<path d="M4804 11823l-1-1 27-5 25-2 30-3 34 0"/>
<path d="M5110 11554l-1-1-5 23-8 31-11 30-10 23-12 25-12 26-12 27-8 27-9 23-8 29-4 25 16 18 25-4 28-5 25-3 26-3 26-2 26-1 27-4 25-3 31-5 24-5"/>
<path d="M5201 11715l-1 1-21 18-12 23-10 31-7 26-6 29-6 32-2 34-1 25 4 32 9 25 21 20"/>
<path d="M5399 11761l-4 1-25 16-15 19-7 24-1 26 8 23 15 20 21 17 26 11 28 7 30 0 30-6 28-12 25-16 17-21 13-25 8-28 1-26-7-26-14-25-18-21-21-13-25-3-27 3-25 9-25 12-21 18-17 24"/>
<path d="M2910 12566l-1-1 24 5"/>
<path d="M2996 12572l 11-1 25-3 29-3 31-7 35-9 37-9 39-9 43-10 45-9 48-9 24-4 25-4 27-4 26-5 27-4 28-4 29-5 30-4 30-4 31-4 31-5 32-4 32-4 34-5 33-3 35-4 36-5 36-4 38-4 39-5 38-5 40-5 40-5 41-6 41-4 41-5 42-5 42-5 43-5 42-4 43-4 42-4 44-4 43-4 43-4 43-3 42-4 42-1 43-3 43-3 43-3 42-2 43-2 42-2 42-3 43-2 41-3 40-2 41-1 40-2 40-2 40-1 39-2 38 0 38-2 37 0 36-1 35-1 32-1 34 0 31 0 32-1 30 0 30 0 28 0 28 0 27 0 27 0 25 0 24 1 46 0 41 0 38 0 35-1 32 0 28-1 25 0 31-1 31-3 23-5"/>
<path d="M5178 12652l-1-1-16 17-12 25-12 22-10 23-10 24-9 26-6 29-5 29-1 31 1 26 2 26 5 27 8 26 9 24 15 26 18 19 20 17 23 10 25-2 22-13 15-20 12-25 6-27-7-28-18-22-20-13-29-6-27 6-24 14-20 14-18 22-10 27"/>
<path d="M5376 12697l 0-1 26-4 25-5 26-9 25-11"/>
<path d="M5409 12696l-1 0-20 18-12 26-8 27-4 28 1 27 8 25 25 3 22-14 27-14 23-12 24-8 25-3 26-2 28 1 27 5 19 19-1 27-13 26-13 22-16 22-22 21-21 12-22 13-23 8-29 9-26 3-25-1"/>
</svg>
