<svg xmlns="http://www.w3.org/2000/svg" viewBox="1217 3377 7270 1158" stroke="black" stroke-width="16" stroke-linecap="round" stroke-linejoin="round" fill="none" data-xena="0 0 0"><style>@media(prefers-color-scheme:dark){svg{background-color:black;stroke:white;}}</style>
<path d="M1381 3897l 3-4 21-19 24-14 25-12 28-12 30-11 31-6 25-2 30 0 25 5 19 14 3 25-8 25-12 25-15 26-18 27-22 25-21 27-23 24-22 21-22 20-21 14-22 17-23 11 17-22 21-17 24-11 26-9 28-7 25-4 24-2 29-2 32 0 31 2 27 1 26 6 24 9 21 13 18 21 8 28-2 24-7 27-13 28-18 26-19 27-19 26-23 25-25 24-27 22-30 20-24 11-33 15-23 8-33 9-24 5-32 5-30 0-27-3-30-6-25-14-13-22"/>
<path d="M2752 3870l-1-2 10-22 19-16 24-14 24-10 25-9 29-6 27-3 24 1 27 7 21 12 16 22 8 26-2 28-8 27-10 29-16 32-13 22-16 24-16 22-17 23-18 24-19 24-20 23-19 22-19 21-18 19-25 23-22 21-21 22-16 19 28-12 24-17 23-12 22-9 23-7 33-7 28 1 28 6 25 7 22 12 21 16"/>
<path d="M3089 3563l-1-1 3 27 3 30 6 27 6 28 3 30 1 31"/>
<path d="M3254 3788l 0-1 25-13 27-6 26-3 29-3 24-4 27-3 26-5 26-4 25-5 22 14-3 27-6 25-8 31-9 31-6 24-8 26-8 28-5 29-8 28-7 28-8 28-8 26-5 25-7 34-6 29-4 28 0 27"/>
<path d="M3620 3574l-1 1 3 24 6 27 5 30 3 29 2 31-1 26 0 26 0 25 0 24-4 30-5 26-4 24"/>
<path d="M4494 3867l-1-3-3-24 5-25 20-17 26-13 26-12 28-7 28-7 30-5 28-2 28 2 25 12 8 25-12 24-19 25-19 18-20 19-20 17-20 17-19 15-24 18-25 15-22 16 28 8 30-7 26-3 28-2 30-3 32 0 32 2 29 3 27 4 28 9 22 12 15 19 4 29-6 24-14 28-17 23-18 25-20 24-23 23-25 22-28 19-27 16-28 17-28 13-28 11-27 5-25 1-27-4-23-14-10-24 5-29"/>
<path d="M4916 3554l 1-2 3 25-6 25-3 28-3 30-2 27 1 25-2 25"/>
<path d="M5125 3766l 2-1 21-12 28-7 23-7 24-6 23-6 24-6 28-9"/>
<path d="M5156 3751l-1 0-18 17-8 27-9 27-6 27-3 29 0 24 4 27 11 21 27 4 23-7 23-9 26-12 26-12 26-9 25-8 27-4 26-1 28 4 25 11 15 21 3 24-5 28-11 26-13 24-18 24-23 23-23 24-23 24-24 24-25 20-23 18-22 12-26 10-26 6-25-5-19-18-3-27"/>
<path d="M5549 3536l 0 0 5 26 4 28 2 25 3 25 6 30 2 28 1 27 5 25 2 26"/>
<path d="M6647 3732l 0 0 24-8 27-6 24-5 26-7 29-7 30-8 27-9 27-10 25-7 25-8 23-7 26-9 25-6-1 27-14 29-14 27-15 31-15 31-12 32-13 31-10 34-10 35-9 34-10 34-11 33-9 31-11 30-10 28-10 28-6 23"/>
<path d="M7105 3480l 0-1-12 25-7 28-3 30-1 30 3 27 3 28"/>
<path d="M7894 3782l 1-2 22-10 29-5 26-3 30-2 32-2 24-2 31 0 25 1 25 1 19 16-15 22-23 21-25 18-28 20-29 21-21 15-22 15-21 14-21 14-29 18-25 15-24 16-17 18 25 10 30-6 29-5 30-4 30-4 28-2 28 1 28 2 28 3 26 7 23 9 23 16 16 20-3 28-13 22-16 20-21 19-24 24-19 16-19 16-19 15-28 22-29 21-29 18-29 14-28 7-28 3-26-1-25-7-26-14-22-15-19-20"/>
<path d="M8263 3670l 0-1 27-3 25 2 24 4 24 11 15 20-4 25-18 18-23 15-23 14-20 15-9 22 24 13 28 5 25 1 27 3"/>
<path d="M1716 3675l 0-2 17 17 10 29 7 29 7 31 2 25 4 32"/>
</svg>
