<svg xmlns="http://www.w3.org/2000/svg" viewBox="557 1381 11112 4816" stroke="black" stroke-width="20" stroke-linecap="round" stroke-linejoin="round" fill="none" data-xena="0 0 0"><style>@media(prefers-color-scheme:dark){svg{background-color:black;stroke:white;}}</style>
<path d="M1673 1840l 1-25 8-24 27 9 8 28 4 28 1 30-1 31-3 31-5 30-6 26-9 24-13-21 2-30 5-35 10-34 10-31 12-26 13-22 18-21 25-6 12 25 3 26-1 31-2 34-4 33-4 28-4 25 8-24 7-30 9-33 11-31 10-28 10-22 13-23 21 18 3 29 1 24 1 27 0 28 3 27 3 28 13 22"/>
<path d="M1995 1873l-14 21-5 27 1 26 8 25 16 18 26-3 21-20 16-21 12-24 8-26-1-25-11-23-20-18-26-8-25 3-21 13-14 20 0 28"/>
<path d="M2215 1841l-24-12-25-4-19 17-11 25-7 24-2 30 6 26 15 19 27-4 17-19 14-21 11-27 11-32 6-23 5-25 4-25 2-35-1-25-3-26-6-27-6-27-7-28-6-25-7-30-8-25-17 19-4 28-2 33-1 26 0 30 0 33 2 34 2 33 3 33 3 30 5 28 6 25 11 30 11 23 19 21"/>
<path d="M2765 1549l-5 28-10 26-11 29-9 26-7 27-9 28-6 25-4 26 5 26 22 13 24-2 27-4 24-4 25-7 28-6 26-7 24-6 26-4"/>
<path d="M2845 1584l-3 27 3 29 2 33 2 30 2 34 3 36 0 25 0 25 0 26 0 24-1 34 0 28 1 30"/>
<path d="M971 1794l 3-29 6-25 16-20 26-8 24 6 17 24 7 23 7 28 4 32 4 32 5 30 5 27 9 29 11 22 20 13 22-15 17-20"/>
<path d="M1192 1649l-24 17-18 21-17 24-16 29-17 31-12 22-12 22-12 24-12 24-11 25-11 25-9 23-10 32"/>
<path d="M3284 1942l-8 26-3 29-5 26-7 30"/>
<path d="M1511 3010l 24-7 27 1 25-1 28-4 29-8 28-7 26-8 27-8 25-3 10 26-7 28-7 27-11 33-8 25-8 27-9 28-8 30-7 30-7 29-6 29-6 29-5 29-5 26-5 34-2 25-2 25"/>
<path d="M717 3079l 24-3 28-3 27-7 30-11 23-12"/>
<path d="M778 3060l-21 19-13 24-3 26-1 28 0 27 2 25 4 27 9 23 24-8 20-17 18-18 27-24 25-21 23-17 30-18 27-11 25-6 26 0 27 14 11 24 4 26-2 33-4 25-5 25-8 27-9 26-12 27-14 26-17 24-19 22-20 18-21 15-27 13-23 7-28 5-29 1-25-3"/>
<path d="M2628 3061l 29-5 25-4 28-2 32-3 31 1 26 6 23 14 10 27-3 29-6 24-10 27-14 28-16 27-20 25-22 22-24 21-25 22-25 20-25 19-23 16-20 14-25 16-18 16 29 4 29-4 35-9 27-7 28-10 30-10 31-10 32-10 31-9 31-8 33-6"/>
<path d="M3521 2976l 31-8 25-6 30-10 31-10 24-8 25-9 23-10 23-10 30-15 23-13"/>
<path d="M3616 2929l-18 21-13 20-3 27 3 25 5 29 2 31 3 26 6 24 24 7 25-6 27-7 33-9 25-6 25-6 26-5 26-5 24-2 30 0 27 7 16 24 3 24-2 31-8 35-12 34-18 31-15 20-17 18-22 16-21 12-35 10-33 3-24-2-25-3-25-4-24-7-24-11"/>
<path d="M6207 1796l-9 28-1 31-1 28 0 32 0 36 0 26 0 26 2 26 2 25 1 26 3 27 2 27 1 27 1 26 3 25 2 32 4 30 3 28 3 30 0 25-6 24"/>
<path d="M7212 1871l 0-24 21-16 25-9 25-4 26 0 30 3 31 5 25 6 22 10 6 25-16 18-21 18-25 19-29 18-26 18-27 16-22 13-24 12-22 11 24 2 29-4 25-3 28-5 28-2 28-1 30 5 24 9 20 15 11 21 0 29-8 28-10 22-13 23-16 21-19 18-21 16-23 11-23 7-32 5-30 0-27-5-25-9-24-14"/>
<path d="M8491 1876l 8-24 23-11 27-3 32 1 27 1 28 3 26 4 24 8 23 9 21 17 12 24 0 32-11 28-11 22-17 24-20 26-23 27-25 26-28 25-27 25-29 22-28 20-26 19-25 16-20 14-26 15-22 11 26-5 27-5 33-7 25-3 24-4 24-3 24-2 32-1 27 0 26 5 23 13"/>
<path d="M9799 1739l-9 24 1 32 4 36 5 31 3 37 5 42 5 47 3 25 3 24 4 25 2 24 3 25 2 24 3 25 3 24 4 46 5 44 3 40 2 37 3 32 1 27 0 31 1 25"/>
<path d="M10742 2046l 21-16 28-2 26 0 28-2 25-3"/>
<path d="M10762 2099l 23-9 26-4 30-3 25-3 25 0"/>
<path d="M11503 1753l-1 27 0 32-2 28-1 32-2 36-2 26-3 28-3 27-4 28-4 27-4 25-5 25-5 33-3 27-4 31 0 27"/>
<path d="M7019 3659l-4-24 14-20 21-12 28-7 26-1 30 3 26 5 25 6 22 9 21 17 6 28-12 26-23 24-20 17-22 18-22 17-23 16-22 14-30 15-23 10-24 10 27-5 28-1 35-1 24 1 35 1 24 3 26 3 25 4 24 4 32 9 27 12 20 15 18 25 4 31-6 28-13 30-19 30-16 19-19 17-19 16-23 14-25 10-27 10-26 6-26 4-25 3-24 1-34 0-28-3-27-6-20-15"/>
<path d="M8349 3676l 22-17 28-7 28-5 33-2 34-1 31 3 28 7 27 13 18 17-1 30-16 28-15 23-21 24-26 24-28 24-31 26-32 25-34 26-31 25-30 23-25 20-22 18-18 17-18 20-12 22 25 12 24 4 32 0 26-2 28-3 31-4 32-5 32-5 32-5 29-4 28-4"/>
<path d="M9672 3657l-10 22-7 29-2 25-2 25 0 28 2 26 4 26 4 25 7 24 6 24 9 32 10 29 8 25 7 27 3 27"/>
<path d="M8280 5616l 15-22 28-10 28-5 32-3 35-1 24 2 25 3 24 4 32 11 26 13 19 17 14 27 0 27-6 32-9 25-13 26-18 27-21 28-26 25-31 27-33 26-36 25-36 23-33 22-31 18-26 16-21 12-21 14 27 12 29-4 35-6 25-4 27-4 28-4 27-4 25-3 35-3 31-2 27 0"/>
<path d="M9764 5531l 6 24 8 29 7 27 7 31 5 36 3 26 3 27 2 29 3 30 2 32 1 30 0 30 2 30 2 25 3 33 9 29 12 21"/>
</svg>
