<svg xmlns="http://www.w3.org/2000/svg" viewBox="1023 1541 13256 20088" stroke="black" stroke-width="20" stroke-linecap="round" stroke-linejoin="round" fill="none" data-xena="0 -6 0"><style>@media(prefers-color-scheme:dark){svg{background-color:black;stroke:white;}}</style>
<path d="M1474 2126l 24-16 31-3 29 2 32 4 33 5 25 4 26 2 27 2 27 1 27 0 28-2 25-2 35-5 30-5 26-4 27-5 24-5"/>
<path d="M2356 1869l 1 28 5 33 5 28 3 31 3 31 2 33 3 35 2 35 0 24 0 25-2 25-1 25-4 33-1 28 3 25"/>
<path d="M3071 1908l 14-22 25-13 28-7 26 1 29 7 28 15 21 13 25 20 18 23 10 24 0 27-10 24-15 28-14 21-16 21-20 21-22 22-21 21-21 20-20 18-20 17-26 23-23 19-20 17 25 1 25-7 30-6 34-8 24-4 25-5 24-3 33-5 30-4 28-3 25-2 27 2"/>
<path d="M4167 1813l-9 27-1 24 1 26 3 34 1 25 1 26 2 27 1 25 0 25 1 26-1 26 0 27 1 25 0 33-1 28-2 27 1 25"/>
<path d="M1717 3493l-7 28-2 31 0 27 1 28 0 30-1 30 0 30-2 32-3 31-1 32-2 31-2 26-2 30-2 27"/>
<path d="M2236 3513l 24-15 25-5 25-4 27-2 28-1 28 1 25 2 31 5 26 8 18 16 1 28-16 26-23 22-20 16-20 15-23 15-22 13-23 12-23 12-32 13-27 9-25 7 27-11 27-4 33-4 35-3 25 0 25 0 25 2 25 4 33 8 27 11 21 13 17 23 5 32-5 27-12 29-16 28-19 25-23 22-27 18-30 13-29 10-29 4-28 0-30-6-25-10-19-20"/>
<path d="M2970 3456l 14 24 8 27 7 31 5 27 5 27 4 28 3 28 4 28 3 29 1 29 0 30 0 28 1 30 2 27"/>
<path d="M6402 1958l 25-1 24 0 26 1 25 1 32-2 28-2 27-3 28-3 26-3 25-4 28-3 29-1 26 1"/>
<path d="M7067 1770l 19-17 24-4 32-1 29 0 30 2 31 1 29 4 23 6 25 16 15 22 3 30-8 30-9 22-14 23-15 25-18 27-22 28-23 27-27 28-28 25-30 25-30 25-27 22-28 21-26 19-22 17-27 18-20 15 25-9 28-7 35-8 25-5 25-4 26-4 25-3 26-3 25-2 25-2 33 0 27 2 29 5 26 8 24 9"/>
<path d="M7786 1860l-21-16-23 11-13 24-9 28-6 24-4 28-3 30 0 33 1 32 4 28 5 29 9 25 11 22 20 26 28 17 33 8 25 0 26-3 27-5 28-8 28-12 30-13 27-17 27-17 24-18 20-19 18-19 14-19 15-30 8-30-2-28-13-29-23-26-20-17-25-15-26-15-26-11-26-8-27-4-25-1-25 1-34 5-27 8-26 10"/>
<path d="M8476 1701l 22 11 14 25 6 23 7 37 6 30 6 33 7 36 6 39 6 40 5 40 6 40 6 40 5 37 6 33 6 29 5 34 1 24-3 25"/>
<path d="M9604 2085l-9 25 1 27 6 32 8 32 11 28 13 24 18 20 26 4 16-23 13-25 9-23 9-25 8-27 9-29 8-31 7-30 6-30 6-25 6-29 7-24"/>
<path d="M9972 1997l-17-17-25 6-22 14-25 20-20 18-20 23-4 25 24 5 25 0 30-3 31-3 29-3 25-1 24 5 19 17-1 28-12 26-14 21-18 20-23 17-26 13-27 8-26 2-29-5-21-15"/>
<path d="M10617 1994l 27-6 24-2 28-1 30 0 32 1 32 0 32-1 34 2 33 1 34 0 31 0 32 0 30-3 27-2"/>
<path d="M11491 1803l-24 7-15 20-14 27-11 30-5 24-5 28-3 31-1 33 1 32 5 31 6 28 9 25 12 21 20 27 25 18 29 14 30 8 35 5 24 0 26-3 25-5 24-8 23-11 29-20 25-25 14-21 10-22 8-23 3-25 0-25-5-26-9-27-12-28-15-28-18-27-21-24-22-22-22-18-24-14-24-10-24-7-35-4-32 3-29 9-24 13-18 21"/>
<path d="M12212 1796l 22-13 29 2 25 6 29 7 31 7 30 8 25 10 26 17 17 23-3 31-13 24-14 19-16 20-19 20-23 20-22 19-25 19-25 17-25 17-23 16-23 15-27 20-17 17 25 13 26-6 32-8 35-8 24-5 25-3 25-3 33-2 30 2 26 3 25 7 21 12"/>
<path d="M12902 1819l-1 30 2 28 3 36 3 28 3 29 5 30 5 30 5 30 6 31 3 32 3 32 2 30 2 30 0 29-1 27-2 24-4 32-6 26"/>
<path d="M7359 3051l-9 26-5 28-2 27-3 30-2 34-1 31 4 28 9 24 24 7 24-18 20-24 13-21 13-23 13-23 11-22 14-28 11-27-12 23 7 27 17 23 21 13 29 0 23-13 21-24 14-24 12-26 8-29 3-27 0-26-3-27-5-23-6-25"/>
<path d="M7782 2942l-10 22-5 28-1 30 2 26 4 25 10 25"/>
<path d="M7802 2800l-20 14"/>
<path d="M7902 2911l-4 27-2 25-2 24-2 31-3 27 2 28 25-5 11-22 14-27 15-29 15-25 12-20 19-22 24-10 16 24 4 26 2 24 1 27 2 26 0 25 3 29"/>
<path d="M10862 3014l-9 23 0 28 3 25 13 22 27-5 17-17 18-24 17-22 14-20 4 26 20 14 27-4 27-2 27-5 24-6 23-12 19-19 12-23 0-24-9-23-13-21-18-20-19-14"/>
<path d="M11287 2901l-15 21-9 22-6 25-1 25 4 26 12 21"/>
<path d="M11299 2746l-25 4 4 26"/>
<path d="M11402 2884l-9 26-5 25-3 24-2 25 19-17 17-24 19-23 18-18 25-10 21 15 4 26 0 26"/>
<path d="M1396 5549l 26 1 28 0 25 0 31-1 34 0 35 1 35-1 24-1 24-1 26-2 26-2 26-4 26-4 25-4 23-5 24-6 33-7 28-8 25-6"/>
<path d="M2159 5510l 9-24 18-17 19 19 8 31 3 29-1 34-2 25-2 27-4 28-5 27-6 27-6 28-7 25-6 25-10 30-9 25-8 22-10-30 1-35 3-32 5-34 8-36 10-37 12-35 13-33 13-30 14-28 13-24 13-21 22-27 21-20 20-15 28-11 26 0 24 11 19 18 10 27 3 27 0 32-3 36-4 25-5 27-4 26-5 24-5 24-7 34-4 30-2 27-1 30 4 26"/>
<path d="M1433 6428l-9 28-5 31-3 27-1 27 2 25 9 25 21 17 25-3 24-13 27-20 19-17 17-18 21-28 14-22 11-26-2 24 9 25 11 27 14 26 17 19 28 11 25-4 20-12 19-19 15-26 11-28 7-29 1-29-4-31-9-32-10-29-16-25-24-5"/>
<path d="M1911 6368l-12 22-4 25-3 32-1 27 1 30 4 29 9 25 27 0"/>
<path d="M1936 6203l-22 11-2 25"/>
<path d="M2014 6364l-5 26 2 28 7 24 6 26 1 26 13-26 10-27 12-31 13-30 12-29 13-23 14-20 25-5 12 22 4 30 2 32-1 29-2 32-4 33-3 25-2 26-3 24-2 30"/>
<path d="M5167 5494l 16 18 26 3 29-1 30-1 25 0 26-1 29-1 30-1 29-3 27-6 27-7 26-9 23-10 26-14"/>
<path d="M5790 5381l 14 26 3 30 1 30-2 35-2 24-2 26-3 28-4 27-3 27-4 24-7 32-9 27-7 23-1-30 7-35 6-28 7-31 8-31 9-30 8-28 10-26 10-22 17-31 20-26 18-25 21-19 20-16 22-10 27-7 27 3 25 12 23 16 17 24 10 27 6 25 2 29-2 33-1 34-2 36-2 36-1 33-2 29-1 26 1 27 5 25"/>
<path d="M6547 5009l 6 28-2 26-4 36-4 31-4 34-4 39-4 44-5 46-2 24-4 48-3 47-1 45-1 43 2 40 2 39 4 35 5 33 4 28 5 28 6 35 5 30 6 25 6 26"/>
<path d="M5374 6288l-4 32-2 34-3 26-2 26-1 25 0 24 1 32 7 29 23 13 27-15 20-20 19-24 19-25 16-26 12-22 9-25 3-25-1 27 5 30 13 28 19 20 24 12 27 2 28-8 26-16 19-22 10-28 5-32-2-24-6-25-9-24-14-27-15-20"/>
<path d="M5824 6275l-12 25-6 25-4 29-3 27 1 25 7 25"/>
<path d="M5852 6098l-22 11-12 23 7 24"/>
<path d="M5951 6248l-4 24-1 25-4 26-5 28-7 26-5 24 5-24 12-28 14-28 16-26 15-22 21-23 21-14 24 4 17 20 11 25 9 24 5 28 2 32 5 31 3 26"/>
<path d="M8501 5391l 25-1 29-4 29-5 24-2 28-2 27 3"/>
<path d="M9142 5201l-24 8-21 22-16 25-15 21-13 25-14 26-13 27-9 30-6 29-3 29 0 29 4 29 8 27 10 25 14 23 17 21 18 18 21 15 22 12 24 10 25 8 25 4 27 1 26-3 27-6 27-9 26-14 24-18 23-21 20-25 17-28 15-31 11-33 7-36 4-39-1-41-6-40-7-36-13-32-15-25-18-19-24-15-26-12-29-8-31-5-31-3-30-1-29 2-27 3"/>
<path d="M9747 5116l 4 30 7 24 10 27 12 30 10 35 6 25 3 29 2 31 2 33 0 32-1 33-1 32-3 30-2 26-2 32-1 25 5 24"/>
<path d="M8572 6431l 28 4 29 1 27-8 22-13 26-20 19-18 21-21 21-25 21-27 22-30 23-32 22-33 22-34 18-34 14-34 9-35 5-34 2-32-2-29-4-25-6-27-13-21-27-2-25 16-19 24-17 32-10 27-10 34-9 38-7 44-5 45-2 25-1 46 0 47 3 44 5 41 7 36 10 33 12 27 13 24 18 17 22 12 32 6 25-3 33-12"/>
<path d="M9044 6348l-26 6-14 24-8 26-1 28 5 25 20 22 28 6 28-6 27-13 23-19 17-22 8-28-7-27-19-19-25-14-25-3-22 12-1 24 28-1 30-10 27-12 27-14 26-16 25-15 19-15 17-18 3-25-24 15-5 24 8 26 12 25 17 26 17 27 16 25 13 20 5 25-23 12-27-2-23-13 18-20 26-7 25-6 27-7 26-7 27-10 24-8 23-10 22-10 22-15 18-19 17-21-12-22-24-6-26 7-21 17-16 25-8 24-1 28 10 27 16 21 25 14 25 3 29-3 27-7"/>
<path d="M11506 5500l 24 1 25 3 31 0"/>
<path d="M12271 5249l-30-4-26 9-21 14-22 20-24 27-16 23-15 26-15 29-16 32-11 33-8 32-5 32 1 31 2 29 5 27 10 25 12 22 15 19 18 18 20 15 22 13 26 10 29 8 31 4 32 2 33-2 34-5 31-7 32-11 30-12 28-17 28-19 25-21 22-23 18-26 13-29 6-31 2-34-2-35-8-38-12-35-17-33-20-32-23-27-25-21-26-17-29-13-29-8-29-4-30 0-30 5-28 9-28 13-26 16"/>
<path d="M11716 6448l-26 10-16 19 8 25 27 6 25-14 26-20 20-18 22-21 22-24 23-28 25-30 24-31 24-35 22-35 18-37 15-36 10-33 7-32 5-27 0-32-11-28-24-13-22 10-15 19-12 23-13 30-8 23-7 28-6 32-6 34-6 37-3 37-1 36 2 33 4 31 8 27 11 23 14 20 22 22 23 13 26 5 32-5"/>
<path d="M12134 6355l-25 7-27 13-17 19-8 22 0 25 12 22 22 18 25 11 28 3 30-5 25-11 20-17 12-21 2-24-10-26-18-25-22-17-26-7-24 9 12 20 26 10 27 1 32-3 25-5 27-8 23-10 28-12 22-18 10-22-16-18-19 16 2 28 15 26 18 22 18 22 15 20 14 21 1 26-24 12-26-3 17-20 23-7 26-5 29-6 25-8 28-9 26-6 24-10 19-16 15-21 7-24-14-20-25 3-24 15-20 21-14 21-3 27 13 23 19 20 21 13 26 8 28 1 27-2 26-4"/>
<path d="M1314 8409l 26-10 26-9 24-5 24-2 27-3 27-1 24-2"/>
<path d="M1871 8111l-25 8-19 18-15 22-13 24-12 31-7 24-7 27-4 29-2 32 0 32 4 32 8 31 9 28 13 25 16 21 18 20 22 14 23 10 26 6 28 2 29 1 31-3 29-6 29-9 27-12 25-14 23-18 21-20 19-23 16-23 13-25 9-27 5-28 2-29-2-31-5-33-10-32-13-33-17-31-18-30-20-27-21-24-21-18-21-13-32-12-31-2-31 5-28 11-25 15-21 18-16 19"/>
<path d="M2584 8268l 24 8 7 28 1 25-1 29-5 29-5 30-7 27-7 25-6 25 10-22 9-25 9-25 11-28 10-29 11-28 10-28 10-26 10-26 12-25 16-27 14-20 19-18 20 20 6 24 3 29 2 32 0 24 0 26-2 30-3 30-4 30-4 27-2 24-2 28 3 25 19 16"/>
<path d="M2881 8498l 22-9 24 0 25 5 3 25-18 19-22 16-23 15-20 18 21 15 27-3 28-2 26-2"/>
<path d="M1545 9553l 10 23 24 0 24-11 21-16 25-24 17-21 17-25 18-26 17-31 16-33 14-35 12-39 10-41 8-44 6-46 2-45 3-45 2-44 1-38 2-35 0-29 0-31 0-25-20 23-12 34-9 30-9 37-9 41-9 48-5 25-4 26-3 26-4 28-2 27-2 26-2 25 0 24 2 44 5 36 9 30 9 24 17 25 18 18 28 8 32-5 25-13"/>
<path d="M1979 9284l-19 17-10 22-7 30-5 25 0 30 7 23 25 7 25-8 25-17 18-19 15-21 11-21 7-25-8-26-23-16-24-6 27-6 29-7 24-6 25-8 24-11 21-15 12-22-10 23-3 30 8 28 17 23 15 20 14 27 6 26-2 28-14 25-26 9-23-10-18-17 22-16 26-14 25-13"/>
<path d="M2281 9343l 24 0 27-1 20-14 15-21 5-23-15-23-24-4-19 19-12 21-10 24-6 24 0 25 7 25 13 21 19 16 25 7 31-2 25-5 24-8 23-8"/>
<path d="M4692 8272l 25 1 25 0 25-2 28-3 27-2 25-2"/>
<path d="M5132 8147l 4 26-1 28-3 28-5 34-4 28-7 29-5 31-7 32-6 29-5 26-7 33-4 25 14-23 10-27 11-29 12-33 14-34 13-34 13-33 14-30 14-30 13-28 13-25 13-24 16-30 14-23 17-22 20-13 10 23 0 30 0 30-3 32-5 35-4 25-4 24-6 36-3 25-4 25-3 25-2 33-1 28 1 28 9 24 25 11"/>
<path d="M5445 8436l-5 24 1 24 2 24 0 27-3 27-6 25"/>
<path d="M5723 8203l 0 30-1 33-1 28-3 35-3 36-3 24-3 33-2 27-3 26 0-28 0-28 3-31 5-34 9-34 11-33 12-28 14-25 16-22 17-21 17-19 21-19 23-14 25 5 7 27-1 24-6 28-8 32-9 34-6 24-6 34-4 30-5 26-2 27 5 24 21 17"/>
<path d="M6019 8392l 25-2 24 11 2 25-16 19-15 19-13 21 9 23 26 5 25 7 26 6 27 3"/>
<path d="M4987 9223l-14 22-5 26-5 31-3 34-2 33 2 32 6 29 22 12 25-16 25-27 18-23 17-24 16-25 14-24 15-29 13-26-8 25 6 29 14 25 22 24 24 16 25 6 25-4 20-17 12-26 5-24 0-27-5-26-7-24-10-22-14-24-16-20"/>
<path d="M5389 9165l-16 19-6 27-5 33-3 25-1 26 1 31 6 25"/>
<path d="M5367 8988l 1 25"/>
<path d="M5464 9151l-6 29-1 24-3 26-2 29-1 28 2 25 10-32 9-31 10-32 12-25 14-20 18-22 21-15 23-8 26 8 16 20 10 29 6 27 2 30 3 28 3 26 7 27 8 25"/>
<path d="M7624 8181l 18 19 26 7 25 0 26-3 25-5"/>
<path d="M8152 8033l-27-2-22 21-18 22-22 28-14 22-13 25-12 28-8 28-6 29-2 29 0 29 3 30 6 27 7 25 10 23 18 26 22 22 27 17 32 12 35 3 29-2 26-6 29-10 26-14 24-18 23-18 19-22 17-23 14-25 11-26 7-26 5-28 1-30-3-32-5-33-10-32-10-29-10-24-20-26-23-19-25-12-27-6-28-2-30 3-25 6"/>
<path d="M8598 7968l-21 19-13 24-10 24-5 29-2 35 3 25 6 25 8 23 13 22 21 28 23 22 23 18 23 13 26 8 29 4 28-3 29-5 30-11 28-14 26-20 20-24 13-27 9-30 3-31-4-34-12-33-11-23-16-21-16-20-17-19-18-16-26-20-23-15-23-9-25-5-28 0-27 3-25 7-23 9-22 16"/>
<path d="M9172 8106l 24-5 11 27 0 28-4 27-3 30-7 32-7 30-11 27-10 24-11 25-6-26 8-28 10-28 14-28 14-28 15-26 16-24 15-20 18-19 22-17 26 4 7 27-2 28-4 26-6 28-5 31-5 31-3 30-2 29 1 29 10 22 26 5"/>
<path d="M9458 8291l 24 5 25 4 25 5-14 24-17 17-15 20 25 10 26 4 22 12 13 20 0 25-14 20-22 13-26 2-26-7-22-12"/>
<path d="M8382 9088l-15 22-1 28 2 27 0 28 0 26 6 23 26 4 23-20 20-24 14-21 12-25 8-24 0 29 4 26 12 22 24 11 28-3 24-9 24-14 17-20 8-23 2-26-4-26-10-25-15-24"/>
<path d="M8724 9056l-14 20-5 24-1 27 1 28 5 24"/>
<path d="M8745 8916l"/>
<path d="M8807 9058l-12 29-8 30-5 31-4 26 1 25 22-17 12-27 11-23 12-22 17-23 19-17 21-12 25 7 13 26 10 27 6 25 6 24 13 22"/>
<path d="M11112 8178l 24-8 30-3 26 0 26 5 27 2 25-2"/>
<path d="M11612 7938l-6-24-24 8-15 20-14 21-16 26-16 33-16 36-12 36-11 39-8 36-3 35 2 31 5 30 9 26 12 23 14 20 18 17 21 12 24 9 27 5 28 0 28-1 28-5 28-8 28-11 29-16 29-19 24-21 21-23 17-24 13-27 9-29 5-33-1-36-5-39-8-41-13-41-15-40-20-36-20-33-22-27-20-21-19-16-30-14-26-7-25 0-27 9-19 18"/>
<path d="M11964 8179l 4 26 0 26-1 29-2 29-5 26-8 23-14 20-7-28 2-24 5-28 8-30 12-31 12-28 15-25 15-22 16-26 22-23 18-15 22-15 26-7 19 19 3 28-2 28-5 32-6 27-8 28-5 25-4 31-3 29 3 25 9 25 23 6"/>
<path d="M12250 8313l 25-2 26 0-15 24-21 17-21 16-18 16-16 22 16 20 27-3 28-6"/>
<path d="M12475 8142l 7 28 7 26 2 29-1 29-4 26-9 23-20-17 4-28 12-30 13-23 15-23 16-21 18-20 19-18 24-18 21-13 25-6 19 20 3 30-4 29-5 31-3 24-3 29-4 27 0 27 4 25"/>
<path d="M12784 8272l 26-1 25 5 26 7-6 26-20 17-20 17 20 13 27 6 23 11 17 18-6 27-17 20-19 18-23 14-27-2-23-13"/>
<path d="M11590 9068l-9 29-5 30 1 31 8 24 23 17 24 5 27-7 25-18 20-21 12-26 8-25 2-25-6 24 15 23 21 14 28 6 30 1 25-5 25-16 15-22 7-23 0-25-8-25-12-24-12-23"/>
<path d="M12010 8979l-18 22-1 25 1 29 2 30 2 28"/>
<path d="M12026 8856l"/>
<path d="M12112 8974l-18 21-2 25 4 25 7 25 2-28 7-24 11-25 15-22 20-18 22-18 24-11 22 10 6 24 4 27-1 27-2 28 0 25 0 29 8 26"/>
<path d="M1184 11351l 25 7 25-3 26-6 27-5 28-6 24-3 25-4 29-5 27-4 25 0"/>
<path d="M1719 11289l 18-17 21 16 5 30 0 25-2 28-3 32-6 32-7 29-7 25-7 26 3-30 7-24 9-27 10-29 12-30 13-29 15-30 16-28 17-28 15-24 16-21 19-18 24-9 14 20 6 27 2 25 1 28-2 29-3 32-2 31-3 31-1 29-1 26 2 29 8 25"/>
<path d="M2098 11477l-6 24-3 29-2 29-1 27"/>
<path d="M2848 11242l 11 24 5 30 3 30 0 32 0 25-3 31-5 25-10-26 2-25 6-25 8-25 11-25 11-22 12-23 15-25 15-20 20-17 25-9 25-1 18 17 4 28-3 32-3 27-3 26-4 31-1 29 1 26 14 23"/>
<path d="M3172 11364l 25 0 26 4-4 27-18 21-15 22 23 11 27-6 25-3 23 10 6 28-12 25-15 24-19 18-24 14-27 5-26-1-24-8-25-12"/>
<path d="M2367 11016l 5-26-4-25-22-11-16 20-17 28-11 27-11 33-8 24-4 26-3 26-2 27 0 28 2 28 4 28 6 25 8 23 17 26 22 21 24 16 27 9 29 3 32-2 32-8 30-12 27-18 24-24 20-28 11-23 9-24 7-24 5-24 1-35-5-33-8-23-9-24-13-23-15-22-17-22-18-18-18-17-26-19-26-12-24-7-30-5-26-1-28 3"/>
<path d="M4800 11197l 26-3 25 1"/>
<path d="M5103 11061l 17 19 5 25 2 27 0 34-2 27-3 27-5 30-5 30-4 27-6 27-5 25-10 31-8 22-16-25 4-34 6-26 6-28 9-28 9-29 10-29 11-26 10-24 10-22 14-29 16-26 14-23 15-19 16-19 22-9 21 16 8 24 5 25 2 29-2 33 0 26-2 26-3 27-2 28-1 25-2 35 0 32-2 28 1 30 6 24"/>
<path d="M5422 11366l-4 26-2 29 0 25-2 28"/>
<path d="M5588 11096l 2 25 2 25 0 30-1 28-2 31-2 27-5 30-5 24 1-26 4-25 8-32 11-34 8-24 12-31 13-27 15-27 16-24 19-20 20-14 24 0 11 21 5 26 1 26-1 31-3 33-4 25-3 26-3 25-2 26-2 33 0 27 5 26 16 18 26-7"/>
<path d="M5879 11267l 24-6 27 0 23 10-2 27-16 25-17 21-14 21 14 20 30-1 25-9"/>
<path d="M6133 11053l 18 21 8 27 0 29-2 27-5 29-5 28-7 28-11 27-8 24 6-26 10-28 9-22 10-25 11-27 13-27 13-26 13-23 12-24 11-21 17-27 13-20 15-20 22 13 4 26 3 25 4 27 4 29 3 30 3 28 2 27 3 24 4 26 16 21"/>
<path d="M6450 11175l 24-2 25 3 2 25-15 22-14 20 24 3 27-3 27-1 24 5 10 23-5 27-13 22-17 19-21 11-26 2-24-4-23-11"/>
<path d="M5072 5905l 8-24 20-17 21-14 27-16 31-18 24-13 25-14 28-14 30-16 32-16 33-17 37-17 40-16 42-17 46-16 22-9 24-7 25-10 24-8 25-10 25-8 25-9 25-9 25-9 25-8 26-9 26-8 26-8 28-8 26-8 27-7 27-7 28-8 26-7 27-7 28-8 26-8 28-8 28-8 28-8 29-9 28-9 30-9 30-9 29-9 30-9 29-9 30-10 30-9 30-10 30-10 29-9 28-10 28-9 28-10 27-10 26-9 25-8 24-10 25-8 24-8 23-8 43-14 39-12 34-10 30-9 27-7 32-7 25-2"/>
<path d="M5433 6417l 25-14 24-11 32-16 28-12 30-13 35-16 38-17 41-17 22-9 22-9 24-10 23-9 26-10 26-9 26-10 27-10 28-10 29-10 29-10 29-10 30-11 31-10 31-11 33-10 33-10 34-10 35-11 36-11 37-11 39-12 38-12 40-12 41-13 42-13 43-12 44-14 45-14 45-14 48-14 48-14 49-14 50-15 50-14 50-15 52-15 52-14 52-14 54-14 53-14 55-14 55-15 55-15 55-15 56-15 57-15 57-15 57-15 57-16 56-15 57-15 58-15 56-15 57-15 56-15 56-14 55-15 55-15 54-15 53-15 53-14 53-14 52-14 52-15 51-14 52-14 50-14 51-13 49-13 48-14 48-13 47-13 47-12 45-13 46-12 44-13 45-12 42-11 42-12 41-10 38-12 40-10 36-9 36-9 35-8 34-9 32-8 31-7 30-8 28-7 27-6 25-6 45-11 38-8 30-7 30-6"/>
<path d="M7769 6345l-23 21-21 25-7 23 30 2 33-14 30-16 37-19 42-23 22-13 23-14 24-14 25-14 25-14 27-14 27-15 29-15 29-15 31-15 31-16 32-16 33-15 34-17 33-16 36-17 36-15 37-16 37-16 39-16 39-15 39-16 40-15 41-16 41-15 42-16 42-17 41-16 43-16 41-17 43-16 41-17 42-16 41-17 41-15 41-17 38-15 38-16 36-16 36-15 35-14 34-14 33-13 31-13 31-12 30-12 28-10 27-11 25-10 24-9 23-10 39-15 32-13 25-9 25-8-23 11"/>
<path d="M8737 6347l 24-9 32-14 29-13 35-17 38-18 41-20 23-11 23-11 25-11 24-12 25-11 25-12 25-11 25-11 25-12 25-11 25-10 23-9 24-10 25-10 23-9 23-9 23-9 23-9 43-15 40-14 38-11 35-10 32-7 27-6 31-5"/>
<path d="M9057 6355l 24-19 24-12 31-13 36-15 40-17 43-18 42-17 44-15 42-16 40-14 39-13 37-13 36-11 33-11 31-9 28-8"/>
<path d="M8043 10839l-25-4-22-9-24 11-13 27-9 31-3 30 0 35 1 25 3 25 5 23 12 30 16 21 26 11 29-7 22-15 21-23 20-30 12-23 8-24 6-24 5-33 0-27-8-23-15-19-21-16-22-12-29-9-25 4-19 16"/>
<path d="M8268 10855l-25 3-16 24-7 24-6 33-2 33-1 31 2 24 13 23 26-9 21-19 16-21 18-26 15-31 9-22 8-23 8-35 3-26 2-27-3-27-4-27-7-28-9-28-11-30-14-33-15-35-16-35-14-33-12-26-11-28-23 10-2 28 1 34 2 28 4 31 4 35 5 39 7 41 9 43 11 41 11 38 12 31 12 25 16 29 16 19 22 12"/>
<path d="M8588 10815l-21-19-23-16-24-6-23 14-18 27-14 27-12 29-8 32-1 31 4 26 13 24 27 8 27-13 22-21 15-19 13-23 13-26 12-28 9-31 8-34 4-34 2-34-1-33-5-31-7-34-12-35-16-39-18-41-19-41-16-35-15-29-13-21-20-19-24 15-8 23-6 34-1 27 1 32 4 35 5 39 9 43 11 44 12 46 8 23 8 23 9 22 18 42 20 37 20 28 21 22"/>
<path d="M9181 10748l 2 25 4 25 6 32 5 25 5 28 7 30 6 32 6 32 5 34 5 33 4 30 4 28 1 33 0 28-16-25-6-24-6-29"/>
<path d="M9171 10894l-4-29-2-27-1-26 3-31 11-26 14-23 23-19 26-6 29 1 29 7 26 13 20 22 5 23-2 25-8 30-15 33-16 30-19 25-18 19-23 16-25-1"/>
<path d="M9405 10702l-6 26-3 28 2 26 4 28 5 26 6 24"/>
<path d="M9411 10540l-24 8 1 24"/>
<path d="M9486 10790l 0 26 24 2 26-14 23-20 15-21 13-28 13-30 10-35 5-25 4-26 1-27 0-27-3-28-5-30-5-31-7-31-9-30-8-26-12-31-16-22-23 18-11 24-10 35-6 28-5 32-3 35-1 38 2 41 4 42 8 40 9 38 11 35 11 29 12 24 17 24 25 17 29 2 26-11 23-19 17-22 11-23 14-20 25-4 25-14 18-16 13-23-11-23-25-2-20 14-15 21-10 27-4 26 5 27 16 19 26 9 31-1 27-11 22-12 20-17 19-18 15-20 13-28 7-28 2-25-7-23-21 11 1 27 8 24 17 25 20 22 23 21 20 19 16 19-24 15-23 5-28 6-25 9 24 4 32-3 29-4 27-5 25-6 31-9"/>
<path d="M10520 10501l-6-24 7 29 3 26 3 30 3 34 1 25 0 27 2 27 1 27-1 28-2 25-3 27-15-25-4-35-2-26-1-29 0-29 2-30 3-29 3-28 7-26 11-33 14-26 14-21 19-18 24-4 25 14 16 21 13 27 10 30 5 23 2 25 2 28 0 29 0 31-2 28-1 26 1 26 9 23"/>
<path d="M10804 10728l-2 27-2 29 1 27-2 28-1 30"/>
<path d="M10952 10716l-4 30-3 26-7 33-7 35-8 25-9 27-10 27-11 26-10 22"/>
<path d="M11067 10494l 9 24 5 28 2 27 0 30 0 33 1 34 0 33-1 25-4-31 2-35 2-25 4-27 5-26 6-26 6-24 11-33 11-28 15-28 18-17 24 2 16 20 10 22 10 28 6 25 4 27 3 29 1 32 2 32 1 31 2 27 3 29 9 23"/>
<path d="M11380 10637l 27-10 27-9 25-4 3 24-13 26-13 24-5 25 29-2 26-8 28-2 25 5 12 24-4 27-16 24-18 18-26 16-22 10-27 9-27 2"/>
<path d="M7640 10244l-4 32 2 29 2 35 4 38 7 44 7 48 5 28 5 27 5 29 5 31 6 31 5 32 6 32 6 33 5 33 5 32 6 32 6 30 5 30 5 30 5 28 5 25 4 24 8 43 6 40 5 33 4 28 5 31"/>
<path d="M11755 9929l 0 28 3 24 5 34 4 30 6 32 6 37 7 42 9 49 5 28 6 28 5 29 5 31 6 32 5 31 6 31 5 32 6 31 5 31 5 30 6 30 6 31 5 30 5 29 6 29 7 29 7 28 6 28 6 25 6 25 5 23 13 43 10 38 9 32 6 29 9 32 10 25 3-26"/>
<path d="M12477 10626l-26 6-16 25-12 25-11 29-7 30-3 28 4 27 26 9 22-16 19-19 18-23 16-24 11-22 10-26 2-27-16-24-25-12-24-5-26 6 12 22"/>
<path d="M12661 10604l-24-1-12 26-9 29-6 29 6 28 19 19 27-3 23-13 20-23 14-25 10-31 5-24 1-25 0-25-2-27-5-26-8-29-10-30-11-33-13-33-13-32-11-29-10-23-12-26-20 21-3 31-1 26 1 26 4 30 3 34 5 35 6 38 7 39 8 37 10 35 10 31 10 26 12 32 13 24 15 19 21 20"/>
<path d="M12916 10644l-21-14-23 13-13 21-14 26-11 29-7 28 1 25 12 22 24 7 28-9 20-16 20-23 15-20 13-32 6-23 2-25 0-26-1-27-5-28-8-30-11-33-16-34-17-35-20-35-18-31-16-25-17-24-25 9-6 33 2 32 3 24 6 27 8 28 9 30 13 30 14 30 17 27 17 27 18 24 18 22 18 19 26 23 27 17"/>
<path d="M13187 10526l 24-5 25-2 29-3 26-4 27-5"/>
<path d="M13179 10619l 24-10 27-11 23-10 22-10 29-13 24-13"/>
<path d="M13267 10429l 19 22 25 8 31 4 26 2 24 0 28 2 24 6 24 12 12 23-10 28-19 24-17 20-17 20-21 17-20 15-23 16"/>
<path d="M13623 10572l-4 25-1 26 1 28 15 22 27 9 25-1 25-8 21-16-3-26 25 7 22 10 26-2 20-13 18-17 15-23 6-25-13-23-19-14"/>
<path d="M13907 10562l 5 24 9 26 8 24 7 24 7 24"/>
<path d="M13936 10479l"/>
<path d="M14016 10585l-6 25-1 27 1 24 10-22 8-25 12-25 11-23 23 8 6 25 7 24 10 24 18 17"/>
<path d="M8188 11502l-24-14-27-11-25-6-28 1-21 16-10 30-4 33-1 35 3 25 5 25 6 26 9 27 11 29 10 28 12 27 13 28 12 29 11 29 12 29 8 30 7 28 5 26 1 26 1 24-3 33-7 26-15 26"/>
<path d="M7955 11876l 19-22 22-11 29-14 32-14 22-9 31-11 30-10"/>
<path d="M8241 11870l 2 28 3 24 4 25 6 28 4 29 3 24"/>
<path d="M8239 11729l"/>
<path d="M8342 11899l 0 29 4 25 8 28 7 25-20-13-15-29-10-29-3-24 8-25 14-21 20-20 21-16 23-12"/>
<path d="M8553 11828l-25-1-21 12-19 23-9 24-1 25 17 18 27 3 28-5 30-7 28-5 26 3 8 26-12 24-16 21-22 19-24 18-25 13-25 6-24-2-22-11-18-20"/>
<path d="M8684 11571l-12 28-4 26-3 27 0 32 0 33 1 24 1 24 1 27 1 27 0 28 1 30 0 28 3 27 7 33 11 24 20 18 25 7 29-6 25-13 23-20 21-24"/>
<path d="M8600 11812l 12-23 22-21 28-24 22-18"/>
<path d="M9157 11845l 16 24 5 25 5 32 3 25 2 28 2 30 3 30 2 33 1 32 3 32 2 30 2 26 1 27-12-28-5-27"/>
<path d="M9140 11828l 14-19 25-4 30-3 31-9 24-10 27-11 28 2 7 29-2 25-8 30-10 31-12 27-16 21-20 19-25 3"/>
<path d="M9423 11750l-9 27-5 27-3 26-1 27 3 26"/>
<path d="M9395 11590l-24 0"/>
<path d="M9454 11834l 13 24 25 5 26-12 17-18 13-24 12-27 10-31 8-32 2-25 2-26 0-25-2-27-5-25-6-27-8-27-8-26-11-29-12-22-21 15-10 27-6 31-5 25-1 29-2 32-1 35 2 38 3 39 5 39 8 35 8 31 8 26 15 28 20 21 25 4 23-15 19-17"/>
<path d="M9677 11795l 24-6 24-17 21-18 18-20 11-25-12-21-24-9-27 1-28 14-18 17-18 24-7 26 1 27 12 28 16 20 20 19 23 14 23 9 25 5 32-3"/>
<path d="M10151 11637l 4 26 4 26 3 31 2 33 1 34-1 33-2 28-5 25-8-22 2-29 6-31 10-33 12-32 13-30 13-29 11-22 18-20 26-7 15 20 7 28 5 26 4 31 2 30 3 30 6 29 6 25 9 29 10 22"/>
<path d="M10424 11949l 9 23 9 23"/>
<path d="M1229 13865l 24 8 26 4 25 2 29 2 32 3 32 2 31 2 30 1 29 1 26 0 30 1 26-2"/>
<path d="M1869 13590l 0 24 3 28 5 28 3 25 4 31 4 38 2 40 3 42 2 45 1 41 2 42 2 39 2 37 2 35 1 34 2 30 1 27 2 32 3 27 1 28"/>
<path d="M2446 13753l-11-23-25 14-15 25-15 32-9 26-9 27-7 29-6 30-2 30 0 29 5 26 8 24 17 32 22 28 23 26 28 19 31 15 34 9 36 1 25-5 25-8 25-12 26-16 23-19 22-21 19-24 15-28 13-27 9-28 7-30 2-30 0-32-5-32-8-33-10-30-13-28-14-23-15-19-29-23-33-12-25-4-25-1-24 2-36 8-23 7-31 14-24 16-17 17"/>
<path d="M3154 13652l 9-23 22-11 28-3 25 2 27 6 28 12 26 16 20 20 16 25 11 28 4 31-2 27-8 31-15 34-13 22-17 24-19 23-23 23-23 23-25 22-26 21-24 18-24 16-22 14-29 17-22 13-20 13 27 5 25 0 27-1 27-2 27-1 29-1 30 0 29 1 29 1 26 1 29 4 28 5 26 8"/>
<path d="M1631 15008l 21 11 29-10 25-19 20-18 20-23 22-28 22-32 22-35 22-37 21-39 19-39 16-40 12-37 9-34 6-29 3-25 0-31-3-26-24-9-16 22-15 28-10 25-8 28-9 32-7 34-6 37-3 35-2 34 0 30 3 26 7 32 11 25 14 19 23 18"/>
<path d="M2019 14805l-26 9-18 19-10 24-2 27 5 28 14 23 23 15 26-5 16-19 4-26-11-24-14-21 26 1 26-5 22-11 21-16 24 11 16 19 17 18 16 18 16 19 8 23-15 23-26 10-28 1-24-4 25-12 30-12"/>
<path d="M2301 14848l-6 26 3 28 5 23 7 27 11 23"/>
<path d="M2314 14703l 4 26"/>
<path d="M2369 14855l-4 25 1 28 4 28 24-5 15-25 12-21 20-15 17 21 10 27 7 25 10 26"/>
<path d="M2634 14918l-12-22-24-9-18 17-17 24-10 24-5 24 14 22 26-4 22-10 16-20-14 23-2 29 6 28 9 23 10 25 8 28 5 33 2 24-1 25-2 26-4 25-8 34-10 30-11 21-19 15-28-1-25-12-28-19-19-17-19-21-18-24-17-25-14-25-10-24-9-32-1-27"/>
<path d="M2754 14565l 24-6 26 6 21 14 17 20 8 24 0 24-8 24-14 29-10 25-10 24-8 25-7 25"/>
<path d="M2814 14957l 6 24"/>
<path d="M4324 13957l 23-18 29-6 31-5 30-4 29-4 26-2"/>
<path d="M4336 14014l 25-5 30-2 31-5 25-6 28-6"/>
<path d="M4475 13835l 27 0 27 4 32 5 26 5 27 5 25 6 27 9 25 12 3 28-16 27-20 28-17 19-18 19-19 18-18 17-25 24-22 20-22 19"/>
<path d="M5232 13950l 25-8 28-3 26-3 29-3 32-2 35-4 24-3 35-5 34-5 28-6 25-5 26-5"/>
<path d="M5864 13686l-1 31-1 28-2 25-1 27-2 32-4 34-5 35-5 37-5 37-8 38-5 35-5 35-3 32-2 29-3 26-3 30-1 27"/>
<path d="M6407 13732l 12 26-3 31-5 36-4 26-4 25-5 29-5 30-4 31-5 31-5 31-6 29-5 28-5 26-6 35-5 27-4 26"/>
<path d="M7194 13658l 1 25-3 32-6 32-5 26-5 27-4 28-3 28-3 26-3 27-4 28-4 27-2 27-3 25-2 24-3 34-2 29 0 27-4 29-5 24"/>
<path d="M1665 14893l 23-12 35 0 28 0 34-1 37-1 41-1 45-3 48-3 25-3 28-3 28-4 30-4 31-4 32-5 34-5 34-5 35-5 36-4 34-4 35-4 34-4 34-4 33-4 33-3 32-3 31-4 31-2 30-3 28-2 27-3 26-1 24-2 45-3 38-3 33-2 29-2 33-3 28-2-25 8"/>
<path d="M1704 15596l-14 25-9 26-6 29-5 30-3 31 0 32 3 27 10 26 24 10 26-8 24-18 17-19 16-20 16-23 12-23 16-30 9-24 5-23 5 27 17 20 21 13 23 7 25-1 25-10 23-18 14-21 11-24 6-24 0-28-12-26-20-18-20-13"/>
<path d="M2116 15543l-6 26-2 32-1 25 1 26 2 25 5 25 8 27"/>
<path d="M2161 15418l-9 26"/>
<path d="M2234 15563l-7 25-2 28 0 26 1 29 0 29 1 29 1 26 7-29 9-30 12-34 10-22 12-22 17-28 17-22 19-21 19-14 26 6 7 24-1 30-2 27-2 27 0 24 2 25 8 26"/>
<path d="M2501 15550l-8 26 0 26 2 25 2 26 0 27 1 25 5-24 7-29 10-30 13-28 13-23 17-22 21-18 23 8 8 27 1 29-1 26-1 26 3 27 14 21"/>
<path d="M2733 15567l-9 28-5 24 0 27 2 25 8 27 18 17"/>
<path d="M2790 15395l-19 16"/>
<path d="M2854 15555l-11 25-1 25 5 28 5 28 22-13 11-27 15-25 17-20 22-15 17 20 4 29 5 28 12 23 24 13"/>
<path d="M3161 15548l-1-25-8-24-21-12-21 14-15 21-13 25-5 28 4 28 12 21 21 13 26-5 17-16 18 18 12 23 10 22 10 23 10 25 10 26 6 30 4 35 1 27-1 30-2 32-5 35-6 35-9 37-8 36-8 33-7 29-8 30-24 2-13-26-7-28-5-34-3-40-1-44-1-45 3-45 4-41 8-37 9-34 9-31 10-29 11-26 13-27 13-23 12-22 15-20 23-24 23-21 23-16 22-15"/>
<path d="M10351 13311l 16 22 6 29 2 25 0 26-1 27-4 26-7 25-10 27-12 23-2-31 5-31 3-27 8-29 8-31 10-31 12-30 12-26 13-22 19-26 17-20 18-19 24-13 25 10 11 29 3 27-1 34-3 24-3 26-4 27-4 25-1 35 0 29 3 24 9 27 25 7"/>
<path d="M10661 13449l-12 23-4 26 2 27 8 28 13 20 26 10 26-9 17-16 18-25 5-24-13-26-20-17-21-12-24-6"/>
<path d="M10867 13461l-23 9-18 18-16 23-11 24-8 25 2 27 18 18 27 2 25-6 26-16 17-19 15-24 13-27 9-30 4-31 0-36-3-26-3-27-4-27-6-23-12-26-16-19-27 8-13 22-5 34 3 31 8 35 12 33 10 34 12 31 11 27 12 23 16 24 23 13 25-7"/>
<path d="M11087 13433l-26 1-19 20-13 23-12 23-9 23-4 28 4 24 18 18 25 0 22-13 20-25 12-25 11-28 8-31 6-34 1-25-2-28-3-30-5-31-5-29-8-32-9-25-23-10-10 28-1 34 3 35 3 28 4 30 6 31 5 30 7 28 6 26 5 24 11 31 9 26 14 24 23 14"/>
<path d="M11505 13156l 24-12 28-4 32-2 25-1 25-1 26-1"/>
<path d="M11526 13212l 27 8 26-3 26-4 30-3 30-5 29-5"/>
<path d="M11689 13020l 26 6 32 6 30 7 31 8 30 10 25 12 27 14 18 17-12 25-24 21-24 20-20 20-22 17-16 18-13 22-7 24"/>
<path d="M12270 13222l-16 25-8 24-7 25-3 26 5 29 18 22 27 4 28-11 21-15 17-20 17-25 8-24-3 24 5 31 13 27 21 18 23 10 26-1 24-10 20-18 16-26 11-30 2-31-4-28-10-25-12-22-20-19-28-4"/>
<path d="M12642 13193l-6 26-3 26-5 32-2 24-3 24-2 29"/>
<path d="M12663 13078l-14 23"/>
<path d="M12728 13252l-5 31-1 29-1 26 0 25 21-12 13-27 14-27 13-23 17-18 26-3 14 23 8 26 5 24 5 25 4 31 2 24"/>
<path d="M9008 13436l-13 24-6 27 3 30 10 27 16 21 24 15 27 7 25-3 25-14 17-20 8-25-1-27-9-25-21-21-24-12-27-7 13-25 25-15 27-11 24-7 25-2 23 10 11 23 2 25-2 29-4 32-5 32-4 30-3 26 15-26 11-27 12-27 14-25 12-22 16-23 16-23 24 3 0 30-1 25-1 29 1 28 10 23 26-1 23-12 25-16"/>
<path d="M9442 13472l 14-21 8 23 25 2 22-9 27-16 23-19 15-24 0-25-23-15-27-4-28 4-23 15-14 21-5 26 1 27 7 30 12 30 18 27 22 22 25 12 27 5 30-2 33-12 22-12"/>
<path d="M1906 17412l 3 24 4 27 3 36 1 29 1 33 0 37 1 40-1 40 0 43 1 45 0 48 1 25 0 24 0 25 0 46 0 44-1 37 0 31 0 27 0 31 0 25-5 24-21-15"/>
<path d="M1367 17740l 13 23 28 1 26-3 29-5 27-5 26-2 35-3 32-2"/>
<path d="M2472 17537l-26-10-24 9-16 25-10 25-10 32-6 27-7 30-4 31-3 32 0 32 2 33 5 32 7 31 10 29 13 26 13 23 16 21 16 20 18 18 20 15 31 16 34 7 34-3 34-8 32-17 19-17 16-19 15-21 10-23 9-24 6-26 3-27-1-30-5-33-10-37-12-37-14-36-16-30-15-25-15-19-23-21-21-13-31-8-25-1-25 2-26 4-23 13"/>
<path d="M3319 17548l-21-18-22-13-26-10-27-2-28 9-25 15-27 25-19 20-18 21-18 25-17 27-13 31-13 33-7 33-5 33-3 31 1 31 5 32 7 31 10 30 15 28 16 26 19 25 21 23 21 20 21 18 23 15 23 12 23 8 25 5 26 2 27-2 28-6 27-9 25-14 25-19 24-22 21-28 17-29 15-30 12-30 8-30 5-32 0-31-4-34-7-34-11-32-13-32-15-30-16-26-18-23-18-20-20-17-20-16-20-14-20-12-33-12-32-6-33 2-30 8-25 14-22 17-19 22"/>
<path d="M4037 17592l-15-19-24-12-25 2-23 15-22 23-15 25-12 21-10 26-10 28-8 32-5 33-4 35-1 34 1 33 4 30 5 27 10 24 17 32 23 26 27 21 32 14 24 6 25 5 27 3 26-1 26-2 26-6 25-9 25-12 25-18 21-21 20-24 17-26 14-25 13-25 7-25 5-35-2-34-10-35-10-24-14-23-15-24-17-21-19-18-21-17-24-16-25-15-25-15-24-14-23-14-31-16-25-9-27-3-24 9-11 25"/>
<path d="M4654 17503l 19-18 25-1 28 3 28 7 25 11 27 16 24 19 20 22 20 24 16 24 12 28 5 24 0 30-5 33-7 24-9 26-12 26-13 26-15 26-17 26-20 24-20 24-23 22-24 20-24 18-25 17-24 15-25 12-23 10-32 11-26 7-28 7-24 6 27 2 31-5 28-4 27-4 27-3 27-2 26 0 26 1 26 5 25 3 28 6 23 8 25 8"/>
<path d="M5304 17786l 24 3 31 1 26-2 29-3 29-3 27-3 26-2 29 0 25 1 25 0"/>
<path d="M5520 17661l 24 14 27 7 25 4 25 4 26 3 27 4 26 5 26 9 21 14 2 27-17 21-23 19-23 15-23 13-23 12-22 10-27 10"/>
<path d="M6046 17772l 29 1 30 2 27 0 25-1 25 0 30 0 28 0 30 0 31 1 27 1 24-3"/>
<path d="M6630 17414l-1 30-1 28 1 25 0 30 2 36 2 40 1 43 0 46-2 46 1 46 1 44 1 40 2 39 2 36 0 34 1 32 1 26 0 31 0 24-16-20"/>
<path d="M7049 17572l-21 14-20 21-15 25-10 29-4 32 1 36 5 26 5 28 8 28 10 28 12 27 14 23 14 21 17 18 26 20 27 13 29 3 33-4 24-9 23-12 21-17 21-20 17-24 15-25 12-27 9-26 5-27 1-30-4-30-6-32-11-32-14-31-17-30-19-28-22-24-20-20-22-15-23-12-31-11-29-4-27 0-24 6-23 10"/>
<path d="M8572 17399l 1 27 0 33 2 34 1 31 2 32 3 35 2 37 1 35 2 37 3 37 2 36 2 33 1 32 0 31 0 29 1 27-1 32-1 26"/>
<path d="M7596 17578l-22-9-15 24-12 22-12 27-13 34-8 25-7 26-6 27-4 25-2 25 2 32 10 26 13 22 25 20 22 12 27 8 28 3 30-3 30-11 25-19 23-26 12-22 10-24 10-27 6-27 4-27 1-25-2-24-10-35-9-22-13-21-23-27-26-25-30-19-30-11-24-4-25 4-20 13-16 22-9 22"/>
<path d="M8090 17470l 10 24 6 27 4 28 3 34 2 25 1 26 1 26 2 28 2 26 2 28 1 27 2 26 3 24 2 32 2 30-1 26-2 29-3 24"/>
<path d="M2710 18655l-4 24 2 25 0 32-1 29-3 30 0 28 2 25 7 26 20 15 28-10 20-18 23-25 22-25 20-25 13-22 10-23-3-24-17 20 6 28 11 23 14 20 24 18 24 5 24-9 19-19 16-27 9-30 1-29-7-28-11-25-13-22-16-18"/>
<path d="M3073 18659l-3 26 3 26 3 25 3 29 5 30 5 25"/>
<path d="M3077 18496l-1 25"/>
<path d="M3150 18715l-1 31 0 25 2 27 1 25 9-29 4-25 6-24 10-26 10-24 14-21 23 8 12 24 9 28 7 27 6 30 4 33 5 34 1 32 2 29 0 25"/>
<path d="M7043 18824l 25 9 26 3 31-5 25-9 25-15 27-24 17-20 17-25 16-29 15-33 15-36 12-38 12-42 10-45 8-44 6-45 4-41 3-37-3-32-3-27-9-32-12-22-16-19-25 7-7 25-5 34-4 29-3 33-1 37 1 41 2 41 2 42 5 40 4 37 6 33 8 30 8 27 10 23 17 28 15 20 20 15 27-9 18-27"/>
<path d="M7446 18556l-18 17-8 23-4 26-1 29 4 29 11 25 17 20 27-8 16-22 11-23 8-23 1-27-11-22-21-20-23-12 5 24 22 10 27-3 24-15 22-19 17-20 8-23-7-24-11 24 5 24 11 22 18 24 17 18 17 18 15 19 10 23-3 25-22 15-25 3-24-3-21-13 12-23 23-14 27-10 28-8 24-10 23-14 19-15 21-15 17-18 7-24-14-21-25-5-21 11-14 19-10 25-4 27 2 25 10 27 16 19 21 14 26 10 24 5 28-5 22-20"/>
<path d="M9125 14771l-24-9-25 15-17 24-15 26-11 30-9 32-1 31 6 29 11 23 19 18 30 11 25 0 28-8 28-12 26-17 18-19 13-25-1-26-14-26-18-19-23-19-23-15-21-13-26-10"/>
<path d="M9402 14774l-24-3-25 9-20 15-16 20-14 27-10 23-5 29 2 29 18 15 28-9 20-16 22-23 15-20 13-24 12-26 12-28 11-29 8-28 7-27 4-28 1-28-2-28-3-27-7-27-8-26-7-24-11-32-10-25-15-20-22 12-5 28-3 35 0 26 3 29 2 28 5 32 5 32 7 33 6 34 7 33 7 31 8 29 9 26 9 23 15 27 15 21 22 16"/>
<path d="M9748 14708l-26-3-28 3-26 14-17 18-14 29-9 26-3 27 3 29 16 21 26 5 28-10 22-17 21-23 17-30 10-23 9-23 8-34 6-25 2-25 1-28-1-30-4-30-3-32-4-30-4-29-6-32-7-24-23 5-8 23-5 34-4 27-2 31-1 31 0 34 0 33 2 34 3 31 5 29 6 28 6 25 12 32 13 25 14 20 24 18"/>
<path d="M10570 14449l 11 22-1 27-1 35 0 25 0 28 0 29 0 30-1 30-3 30-1 30-3 30-3 29-2 29-3 25-4 30-6 25-4 25"/>
<path d="M10721 14876l-11 22-3 26 6 26 22 15 25-10 22-16 19-22 14-25 3-27-13-21-23-11-24-2"/>
<path d="M10989 14842l-25 6-23 12-23 18-16 24-8 24 1 26 17 20 25 5 23-10 20-19 15-19 13-22 11-25 9-28 8-30 2-35 1-24-1-25-4-26-2-25-4-33-3-27-5-24-13 21-5 24-2 29-2 32-1 32 1 33 0 33 2 32 5 29 5 26 10 30 11 25 16 20"/>
<path d="M11236 14840l-25-4-24 8-20 19-18 24-14 27-4 26 4 27 17 18 26-5 19-16 22-25 20-29 16-31 12-30 8-30 7-32 5-30 0-26-2-26-10-24-24-2-9 30-5 30-2 26 0 29 2 29 3 28 4 28 3 25 10 33 10 27 13 21 19 17"/>
<path d="M11733 14525l 23-10 25-6 31-8 24-5 28-5"/>
<path d="M11743 14593l 27 2 29-3 26-5 28-8 26-9"/>
<path d="M11919 14439l 26 11 33 3 25 4 31 3 25 5 21 12 1 28-15 23-19 25-19 19-20 18-20 17-20 18"/>
<path d="M12418 14672l-9 26 1 29 8 26 26 8 25-14 23-19 18-22 14-24 8 28 15 24 23 16 28 4 26-3 24-13 22-19 18-24 5-27-6-29-10-28-13-21-20-16-6 25"/>
<path d="M12816 14615l-9 28-7 28-3 25 2 29 4 29 5 23"/>
<path d="M12819 14478l-15 20 4 26"/>
<path d="M12904 14682l-9 23-8 26-4 25 0 24 26-8 16-21 16-25 17-25 15-20 20-16 16 18 8 24 6 24 4 25 3 24"/>
<path d="M1456 20517l 26 3 25-1 28-4 32-6 30-6 31-8 24-7 30-7 23-5"/>
<path d="M1986 20305l 26-7 25-3 32-2 27 1 31 3 28 4 25 7 24 13 19 22 3 24-9 23-13 26-20 28-17 18-18 18-21 18-22 18-23 19-22 19-21 17-21 16-28 22-21 19-18 20 15 21 28 1 27-3 30-6 31-7 32-7 31-6 29-5 25-2"/>
<path d="M2647 20368l-23-12-27-4-26 7-27 14-21 13-21 16-19 20-16 25-13 28-8 33-2 31 7 27 17 20 25 13 33 5 28-1 32-5 34-9 34-10 34-13 33-15 30-17 26-19 22-18 23-25 12-23 2-32-10-23-21-22-28-23-22-11-35-9-24 0-36 5-24 7-23 8-30 13-22 20"/>
<path d="M3306 20348l-24-1-24 6-20 21-15 25-9 27-5 31 3 32 9 23 14 19 20 13 27 10 30 5 33 0 35-7 24-7 23-8 29-15 21-16 19-25 9-26-6-28-15-24-22-24-18-18-19-16-22-14-31-15-30-7-27 1-25 9"/>
<path d="M4057 20366l-21-13-26-3-28 10-22 11-22 16-22 20-20 25-17 27-12 28-5 28 3 27 16 26 20 14 27 9 34 5 26 1 28-2 27-5 27-6 28-9 26-10 24-10 22-13 25-21 15-27 1-26-15-26-20-22-26-21-29-18-29-13-26-7-28-3"/>
<path d="M4584 20378l 25-7 25-2 28-3 31-2 32-1 30 3 24 6 21 16-6 27-22 24-27 22-21 15-22 16-25 16-24 19-25 18-23 19-19 16-22 22-16 23 11 24 29 3 30 0 33-1 25-2 25-1 25-1 24 0 33 2 25 5"/>
<path d="M2831 21465l 25-8 26-18 23-22 17-19 18-23 20-27 22-30 23-34 23-35 22-36 20-37 18-35 15-35 12-32 7-33 5-32 3-32 2-28-1-25-4-31-8-25-24-7-13 28-10 22-9 28-10 33-9 38-9 41-9 45-9 44-6 44-5 45-3 40 1 36 3 33 6 26 14 30 18 19 27 11 28 0 23-8"/>
<path d="M3234 21284l-24 14-17 22-9 23-3 25 14 22 26 8 27-4 22-9 23-15 23-21 15-20-2-26-23-15-24-8-24 3-23 12 25 12 29-10 28-12 30-12 29-15 27-14 22-13 20-13-15 23-2 26 3 26 9 23 15 25 10 22 3 25-17 18-28 7-25 0-24-9 16-21 23-11 23-12 27-15 27-12 24-13 24-14 23-9 24-7 23-9 24-12 18-16 1-25-24-10-28 3-24 17-19 19-16 25-9 27-2 26 11 25 25 18 23 5 30 2 31-1 31-6"/>
<path d="M5782 15109l 26 3 24-9 21-20 18-21 20-26 14-19 14-22 15-22 16-25 15-28 14-27 15-30 13-30 11-31 8-32 7-30 3-30 2-29 1-25-1-34-4-27-8-27-14-21-26-1-20 17-17 25-11 22-11 28-11 30-9 34-8 36-6 38-3 39-2 38-1 37 1 37 3 33 4 32 6 29 7 27 8 23 15 29 16 18 25 12 31-3 25-14"/>
<path d="M6129 14921l-18 18-13 23-14 23-10 28 1 26 18 20 25 2 27-9 22-14 18-21 5-26-14-21-21-11 20 13 26-6 29-14 22-12 23-18 16-22-24 1-6 26 3 28 12 24 11 22 8 27-2 27-15 19-28 10-29 0-23-9-4-24 21-18 25-11 28-7 26-9 28-6 25-5 26-3 27-4 27-10 21-16 17-17 18-23 8-22-10-23-24-9-24 1-27 12-18 21-10 23-7 25 1 27 12 24 19 21 22 20 27 13 28 5 27-2 23-9"/>
<path d="M9075 15829l 4-31 12-28 16-20 22-17 22-13 21-13 28-9 27 7 14 25 5 26 0 34 1 24 0 26-1 27 1 27 0 26-1 27 0 25-1 34 0 30 0 25 5 24 21 14 25-15 23-23 17-20"/>
<path d="M9401 15700l-23 9-18 16-23 25-20 26-15 20-17 23-17 24-17 25-17 26-16 24-13 25-13 22-14 29-10 24"/>
<path d="M9402 15838l-17 23-12 26-7 30-5 32 4 27 16 18 27 0 23-10 24-15 23-20 17-20 12-26 1-29-14-22-18-18-20-15-25-11-25 1 15 20"/>
<path d="M9581 15786l 0 27-2 29 0 24 1 29 1 29 5 24 7 24 4-31 4-26 4-26 7-26 8-23 17-25 19-18 23-16 29-13 27-9"/>
<path d="M10322 15774l 21 17 3 26-3 31-5 26-4 27-6 27-5 26-8 26 6-25 7-24 12-26 13-27 13-28 16-27 16-27 16-23 17-23 15-19 20-24 18-19 19-15 23-8 7 25-5 33-7 32-10 35-8 25-7 26-7 24-8 32-3 27 1 30 10 23 24 7"/>
<path d="M10635 15928l-10 26-9 25-7 23 2 25 23 8 26-11 21-15 17-20 5-25-11-25-22-14"/>
<path d="M10815 15989l-22-13-24 9-18 23-10 25 14 22 27 1 24-10 25-19 17-20 13-24 9-29 1-26 0-30-3-30-4-31-5-27-10-25-20 16-11 26-5 24-4 26 0 28 2 29 3 26 9 28 12 26 18 20"/>
<path d="M11003 15968l-16-19-26 2-22 21-16 18-11 24 7 25 28 3 27-9 23-13 19-16 14-20 12-25 6-30 1-27-2-30-3-31-2-31-3-26-5-23-24 15-4 29 1 27 4 29 7 29 9 30 8 29 9 25 10 26 13 25 17 17"/>
</svg>
