<svg xmlns="http://www.w3.org/2000/svg" viewBox="1126 2511 10502 24499" stroke="black" stroke-width="16" stroke-linecap="round" stroke-linejoin="round" fill="none" data-xena="1 -4 0"><style>@media(prefers-color-scheme:dark){svg{background-color:black;stroke:white;}}</style>
<path d="M6632 2615l 0-1-4 30-2 26-3 31-2 31 1 29 0 29-1 26 2 28 4 26"/>
<path d="M6416 3136l-2 2-22 19-18 24-16 21-18 22-21 24-22 27-15 19-16 19-17 22-17 23-20 26-22 28-25 32-29 37-15 19-16 19-17 21-17 22-19 23-18 24-20 24-21 25-22 26-22 26-23 27-24 25-24 28-24 28-24 28-25 28-24 29-25 29-26 29-24 29-25 27-24 26-23 26-24 26-22 24-23 24-20 24-22 23-20 22-20 20-18 21-19 20-18 19-17 19-18 17-31 36-29 35-29 32-23 32-25 27-22 25-20 22-17 19-20 23-15 19"/>
<path d="M5031 4841l 0-1 16-20 26-5 25 2 22 11 3 26-8 28-11 24-12 23-16 24-17 23-19 20-17 17-19 17-19 18 25 4 24-10 27-8 27-9 26-11 25-8 26-5"/>
<path d="M6826 3194l 1 1 10 22 12 22 13 21 18 23 22 27 18 17 20 20 21 21 23 24 23 25 25 26 27 27 28 28 30 28 31 30 33 32 35 34 17 17 18 19 18 18 18 19 18 19 19 20 19 20 18 22 19 20 19 21 19 22 19 22 19 20 20 23 20 21 19 21 19 21 20 21 20 20 21 21 20 20 21 19 20 20 21 21 21 20 21 22 20 20 20 20 20 19 19 21 20 20 19 19 19 20 20 18 19 19 19 21 18 18 19 18 17 19 18 18 17 18 17 18 31 32 30 32 29 29 27 28 24 26 22 22 21 20 18 17 24 22 19 16 20 19"/>
<path d="M8371 4891l-1-2 24-12 25-7 28-6 25 0 20 14-10 24-17 21-18 19 13 22 26 5 25 5 24 11 22 14 15 23 0 24-15 19-23 11-26 5-24-5-25-5-23-10"/>
<path d="M8628 5267l-1-1-20 20-14 27-13 29-10 24-10 27-12 29-12 30-16 32-15 35-18 37-20 40-22 42-11 22-13 23-13 23-14 23-14 24-14 25-15 25-15 27-16 26-15 27-15 26-15 28-16 28-16 28-15 29-16 28-15 29-15 29-16 32-15 31-16 29-16 30-15 31-15 31-15 30-14 30-14 28-13 29-14 30-12 28-12 28-12 27-10 27-11 27-11 25-9 25-9 23-9 24-9 22-19 44-17 41-17 38-18 38-17 36-15 32-17 30-17 29-16 25-15 24-14 22-19 29-14 21-13 20 16-24"/>
<path d="M7529 7412l-1 0-13 23-6 26-5 25-4 24-1 25 12 22 27 3 28-3 26-3 26-3 24-2 27-4"/>
<path d="M7660 7454l-2 0-15 20-6 26-3 27 0 28 1 28 2 28 5 26"/>
<path d="M8771 5341l 0-2 24 10 24 18 24 16 29 19 22 15 22 15 25 17 24 16 26 19 26 21 29 21 28 24 29 26 31 28 31 29 32 34 33 34 33 35 17 19 18 18 19 20 19 21 20 21 20 21 20 21 20 23 22 23 21 23 20 23 22 24 21 24 22 22 22 24 22 25 23 24 23 27 23 25 24 25 23 26 24 30 24 26 25 26 24 27 25 27 25 26 24 27 25 28 25 25 25 26 25 27 24 25 24 27 24 26 25 27 25 24 24 26 24 26 23 25 24 25 23 24 23 23 24 22 22 23 22 22 22 20 22 20 21 21 21 19 21 19 20 21 20 18 19 17 19 18 18 17 18 17 34 30 31 26 29 23 25 23 24 21 19 16 23 22 19 21-14 20-30 3"/>
<path d="M10901 7317l 0-1 25-5 24-6 26-6 27-5 25-4"/>
<path d="M10901 7347l-2 1-18 16-15 19-16 21-11 23-4 25 22 15 25-2 30-9 25-9 27-8 27-2 28 7 24 11 25 9 22 14 19 16 0 27-15 24-19 21-21 21-23 18-22 14-24 11-26 12-24 7-26 2-25-2-26-8-24-10"/>
<path d="M7073 2868l-1-1 4 25 2 25 1 27 2 25 4 24"/>
<path d="M7067 2787l-1 0-22-10"/>
<path d="M7107 2861l 0-1-24 8-8 26 2 25 10 23 13 23 21 12 25 2 25-7 22-15 12-23 7-23-7-23-15-19-20-16-25-8-25-7-24 2"/>
<path d="M7128 2756l-2-1-25-3-26 3-24 11-22 13-19 17-15 21-14 26-7 24-3 27 1 30 5 30 11 26 15 21 18 17 23 13 25 11 26 7 28 5 27 1 26 0 28-3 28-9 22-11 27-16 23-20 17-21 11-22 9-24 3-26-4-28-7-24-8-26-12-27-15-22-19-18-21-13-23-12-24-7-30-6-28-1-25 1-27 6-21 14"/>
<path d="M8809 5069l 0 0 5 25 18 19 25 10 27 1 27-6 23-10 23-16 15-20 1-26-16-22-25-6-25 4-24 8-23 5"/>
<path d="M8908 4937l-1 0-24-8-23-6-25 3-21 12-19 15-20 17-18 19-16 23-9 22-7 26-1 25 5 26 10 25 18 20 20 18 23 13 25 11 23 9 27 5 25 1 27-1 27-5 24-6 28-7 22-10 20-18 15-24 8-25 2-26-4-27-8-28-14-26-12-21-18-26-20-23-21-19-20-13-25-11-25-5-25 8-21 16"/>
<path d="M5266 5111l 0-1 7 24 4 25 2 25-3 25"/>
<path d="M5262 5027l 0-1-20-14-21 14-22 20-17 21-15 26-12 21-11 22-9 25-7 28-5 29 0 29 4 25 10 27 17 18 24 12 27 6 31 0 25-2 27-8 26-9 24-13 23-15 20-17 16-18 14-28 10-28 1-31-5-23-10-25-15-25-20-26-22-24-23-20-23-14-22-10-25-8-28-1-26 6-26 10"/>
<path d="M11328 7660l 1-1 7 27 2 24 1 24-1 27"/>
<path d="M11366 7600l-1-2-9-24-19-16-24 6-23 14-22 17-16 18-19 26-13 26-10 27-8 26-3 27 0 28 2 28 9 27 17 23 22 20 28 12 25 6 25 5 25 2 25-3 25-7 24-9 24-12 21-16 17-16 14-20 14-27 5-30-4-24-7-26-12-24-16-24-18-21-18-17-29-13-24-9-30-6-28 3-27 4-22 9"/>
<path d="M7532 2811l 0-1 27-3 26 6 24 6 25 6 24 12 13 21-13 23-18 19-20 16-19 18-21 18-15 19 25-2 25-10 27-12 26-10 25-9"/>
<path d="M7609 2749l-3-1-28-5-24-2-25 3-26 10-23 18-18 25-14 25-9 30-6 23-1 25 1 25 5 25 7 24 12 22 16 19 19 17 21 12 25 8 25 5 26 4 27-2 27-8 28-10 25-13 24-15 22-19 18-17 14-21 12-30 7-29-2-31-12-28-12-23-16-23-20-19-21-16-23-13-24-9-24-6-32 0-31 3-28 12-22 18"/>
<path d="M7870 7732l 0 0 23-11 27-5 26 2 25 3 22 14-8 26-17 23-19 21-20 16-22 16-20 14-20 17 20 17 25-4 25-7 25-11 22-11 22-9"/>
<path d="M7988 7628l-3-2-23-9-26-4-24 1-29 10-24 10-22 14-21 18-19 24-17 27-12 22-9 27-6 29-3 28 0 29 5 24 15 28 19 24 19 16 28 14 23 12 27 8 26 4 28 1 25 0 25-4 25-6 25-9 25-13 24-17 22-18 20-22 15-24 9-27 4-26-1-31-4-30-10-28-14-27-17-25-20-21-22-16-22-16-24-9-29-2-25 0-26-1"/>
<path d="M7089 10439l-1 0 3 28 3 29 1 26 1 27 1 26 2 28 4 25 3 25 5 23"/>
<path d="M5507 12496l-2 0-22 15-11 24-8 24-6 31-5 28-3 29-1 31 0 32 3 32 3 33 7 32 9 28 11 30 17 21 22 17 25 13 25 3 26-6 23-18 14-25 6-25-10-27-14-20-19-19-20-14-26 9-18 20-12 21"/>
<path d="M6904 10736l-1 0-23 9-17 18-17 22-17 25-17 25-21 30-17 22-18 25-22 25-22 29-24 30-25 32-26 34-27 34-27 38-28 35-28 38-27 37-27 37-26 37-25 39-25 40-24 38-23 39-23 40-24 38-22 39-23 39-22 40-23 35-20 38-20 34-20 35-18 36-18 31-17 29-16 28-17 25-15 26-15 24-14 25-13 21-14 20-17 30-16 29-14 28-15 27-13 24-14 22-13 25-16 27-14 23-13 21-16 23-16 21-15 18"/>
<path d="M5385 13182l 0-2-23 11-15 24-15 25-18 31-15 25-15 30-18 29-18 30-18 32-20 32-19 31-20 33-22 33-22 34-23 34-21 36-22 35-23 36-21 35-24 36-25 38-25 37-15 20-14 21-14 22-13 22-15 23-14 23-15 25-16 25-14 26-15 25-15 25-15 24-15 25-13 23-13 24-12 22-14 22-23 40-21 38-18 36-16 32-14 29-12 26-13 32-11 26-11 25-12 22 2 24"/>
<path d="M4273 14904l-1 0 9-24 26-3 26-5 25-3 24 3 15 21-1 28-7 23-11 22-14 22-18 21-18 16 28 1 25-8 24-5 26-1 24 6 15 22 3 24-2 24-11 26-16 21-20 13-26 8-25 5-27 0-26-4-27-8-25-5"/>
<path d="M4219 15374l-1-1-19 16-13 24-14 28-14 27-17 32-13 24-14 26-15 27-16 27-17 29-17 29-17 29-17 32-19 30-18 31-16 32-16 30-15 34-16 34-16 34-17 36-17 38-18 38-19 37-20 37-18 37-18 39-17 39-15 37-19 36-17 31-17 34-19 32-15 31-15 29-17 30-15 28-16 29-14 27-13 22-14 22-18 28-15 25-13 25-15 20-14 21-15 21"/>
<path d="M3224 16922l-1 0 19-15 26-8 24-7 27-1"/>
<path d="M3245 16929l-2 0-21 14-15 20-8 24-5 26 3 24 23 9 25-10 25-10 28-9 27-6 24 10 19 18 6 27-3 24-9 25-16 23-19 16-27 11-26-1-24 2-25-8"/>
<path d="M3129 17492l-1-1-18 18-8 22-11 28-10 24-13 30-9 23-10 25-12 26-13 28-14 29-15 33-17 36-18 39-21 41-11 21-12 22-12 23-11 22-14 23-14 24-13 24-13 25-14 25-13 23-14 24-15 26-13 25-13 25-14 26-15 26-15 26-15 28-14 27-16 28-15 27-16 27-15 27-16 26-14 27-15 26-15 26-14 25-17 24-13 24-13 22-11 23-24 40-20 35-15 31-15 27-14 22-17 26-15 21 13-24 10-23"/>
<path d="M2189 19192l-3 0-16 22-4 25-3 27-4 26-3 25-2 26 0 25 12 22 22 10 26-3 27-4 25-13 23-12 20-12"/>
<path d="M2252 19248l-2 1-12 22 3 26 3 28 4 27 6 25 4 26 5 28 6 25 4 25 3 27 5 26"/>
<path d="M2067 19805l 0-2-22 13-14 25-9 29-15 34-10 27-13 26-12 28-13 32-15 32-16 33-14 37-16 37-17 40-19 41-20 42-10 22-10 24-10 22-9 22-19 46-9 25-10 24-10 23-7 23-10 24-10 22-11 23-9 23-11 23-9 21-10 22-12 22-17 43-17 41-16 41-15 40-16 38-16 36-13 34-15 28-13 27-12 23-13 21-12 26-10 24"/>
<path d="M1229 21390l 0 0 24-11 25-10 25-8 26 7 27 7 24 7 25 8 22 10-3 24-9 23-10 30-8 26-9 28-10 31-11 29-11 32-7 31-8 31-6 28-4 27-4 24-4 30-5 29-5 24-4 24"/>
<path d="M2412 19718l-1-2 12 25 12 22 14 20 13 22 13 24 13 27 16 32 13 25 12 26 13 28 15 30 10 32 15 34 15 36 16 36 19 36 19 36 22 37 24 38 23 38 26 39 14 19 25 39 16 20 15 21 16 21 16 19 17 18 16 19 18 19 32 35 31 30 31 30 32 28 32 26 33 28 32 28 34 31 34 32 32 34 18 17 17 17 17 18 32 35 16 19 31 32 28 32 27 29 25 28 23 27 23 26 22 22 21 23 22 22 19 21 18 21 23 21 21 16 22 14 22 10"/>
<path d="M3681 21517l-1-1 26 6 25 9 21 13 17 19 3 24-8 26-13 28-14 27-15 22-20 19-21 17-20 17-24 18-20 13-21 13 9 24 28 8 25 2 25 0 28 2 28 2 26 1 26-3 23-5"/>
<path d="M3816 22085l-1 0-7 27-6 28-6 28-10 34-6 25-6 29-8 32-6 36-8 38-9 38-8 36-8 37-6 37-6 38-7 40-7 45-7 44-8 46-9 46-8 43-9 46-9 44-9 44-10 46-10 46-13 43-10 43-11 43-11 40-5 40-7 36-7 31-5 29-5 27-5 23-6 33-3 27-3 24-2 32-2 24-8 24-6 26-6 24-6-26"/>
<path d="M3353 23876l-2-1-9 24-3 29-4 29-2 25-3 24-5 30-4 26 4 24"/>
<path d="M3455 23906l-3 2-11 22-7 29-1 27 2 27 6 23 11 25 14 25 17 18 22 13 24 6 27-3 22-17 16-19 14-24 11-27 3-25-7-23-13-21-19-15-25-13-23-13-25-10-26 1-16 20"/>
<path d="M4104 21882l-2-2 22 16 22 22 17 25 15 21 16 24 17 26 19 26 19 26 16 20 18 20 19 21 19 24 20 21 20 24 19 22 19 22 20 24 19 24 20 24 19 26 22 26 19 29 23 30 23 32 24 34 25 35 24 37 24 37 23 37 25 38 24 36 26 36 26 37 26 35 25 36 25 35 25 35 23 35 25 34 24 34 23 33 23 33 23 34 23 32 21 34 21 31 22 34 20 34 19 32 18 33 16 29 17 28 15 24 14 24 15 23 13 21 18 28 13 21 16 19"/>
<path d="M5478 23785l-1-3-10-23-16-20-21-12-25 2-22 17-14 24-11 25-2 29 10 22 22 19 23 18 25 17 24 16 20 20 15 25 8 24 2 27-3 26-8 25-14 22-26 11-24-4-26-12-18-20-12-23 0-29 10-28 13-26 11-22 14-25 18-20 19-22 17-23 20-17"/>
<path d="M5530 24328l-1-1-1 30-3 26-6 31-5 31-6 35-5 24-6 25-6 26-6 27-7 29-7 29-8 28-6 29-7 29-6 31-6 31-8 31-5 31-5 32-4 34-4 35-5 33-6 36-6 34-7 33-7 35-8 32-9 36-10 36-10 34-9 36-9 37-10 36-8 38-7 32-8 31-6 30-6 26-6 27-6 24-5 31-6 30-4 29-5 31-5 24-5 25-4 25-10-25"/>
<path d="M5205 26087l-1-3-9-26-8-23-15-24-19-18-22-11-28 0-26 14-20 18-19 24-9 24-8 23-5 27 2 27 10 24 26 6 25 0 25-7 26-10 23-13 16-18-8 27-1 24-2 24-2 30-2 25-1 26 0 27 0 30 1 29 1 30 2 29 1 28 1 26 2 24 4 29 4 30 7 23"/>
<path d="M5734 24186l 0-1-8 24 1 25 5 26 14 22 23 10 24-8 17-19 9-24 0-25-8-28-16-19-25-12-25-7-26 3-15 20"/>
<path d="M5774 24044l-2-1-23-9-24 3-24 11-22 18-19 22-14 26-11 27-6 24-5 30-3 29-2 28 2 26 7 28 13 21 24 12 25 6 27 2 29-3 27-8 27-8 24-10 21-13 18-21 12-23 6-24 1-26-4-28-9-28-10-25-15-22-18-16-21-14-26-10-27-4-25 4"/>
<path d="M5333 26656l 0-1-17 17-3 25 3 26 9 25 19 17 25 5 23-9 17-19 8-23 1-25-4-25-11-25-21-19-24-7-24 5"/>
<path d="M5341 26533l-2-1-23-10-26 3-22 12-18 17-16 24-10 27-6 25-2 30 1 31 3 31 5 30 8 26 10 26 12 24 14 22 20 21 25 16 25 13 29 6 25 2 26-1 24-5 26-13 23-17 19-23 10-22 7-28 3-32-1-26-1-27-5-31-10-24-14-26-17-25-19-18-19-17-21-18-23-11-26-6-23-5-25 2-24 6"/>
<path d="M2608 19457l 0 0-4 27 1 25 4 28 3 25-2 26"/>
<path d="M2588 19397l-2-1-26-2-24 10-18 20-14 20-8 26-3 27-1 27 4 29 6 24 9 23 13 20 16 21 22 18 27 11 26 4 26 0 25-7 27-13 20-13 23-21 19-25 14-21 12-28 4-28 1-29-6-24-10-30-13-23-16-23-20-21-24-19-23-14-28-9-24-2-32 4-28 8-24 11-20 14"/>
<path d="M5812 12952l 0-1-8 26 0 26 3 24 7 24"/>
<path d="M5809 12843l-1-1-26 1-21 14-17 19-15 23-12 24-9 28-5 31-2 24 0 30 4 28 9 24 16 24 21 17 22 9 25 5 28-3 28-9 22-11 22-15 22-17 16-18 13-21 10-23 5-24 0-24-5-24-9-27-16-24-19-21-22-22-23-15-25-16-27-3-25 9-19 16"/>
<path d="M4568 15223l-1 0 24-5 24 1 23 7-6 24-18 17-18 19-20 17-19 18 0 24 26 4 26-3 26-9 23-10"/>
<path d="M4569 15141l-2-1-25-6-25 5-20 14-18 18-14 22-10 23-9 29-6 26-4 26-4 27 0 26 3 24 10 29 13 25 22 19 23 11 28 7 26-1 27-3 27-3 28-4 23-9 22-15 22-15 20-17 18-19 14-21 11-22 6-25 2-25-1-26-6-26-7-28-15-25-21-23-22-22-21-18-22-13-29-8-31 1-29 6-26 13-21 15-20 16"/>
<path d="M3921 21509l 1-1 25-8 24 0 23 9-11 22-18 20-17 21-16 18-9 24 21 13 25-9 19-14 22-16"/>
<path d="M3964 21407l-2-2-25-4-23 5-23 10-20 14-20 17-19 21-12 24-6 24-4 24 0 27 6 28 9 29 13 23 21 21 21 14 25 11 27 6 29 2 29-3 29-10 28-14 20-16 19-18 17-18 16-23 9-25 6-25-1-26-10-23-17-25-14-22-18-18-18-18-25-19-26-14-25-7-24 1-25 9-22 16-19 20"/>
<path d="M3765 24148l 0-1 24-8 27-3 24-2 12 22-20 16-20 15-22 16 23 9 27 1 23 11 13 21-10 24-17 20-24 16-25 7-29 0-28-3-27-5"/>
<path d="M3786 24070l-2-1-25 0-23 11-20 16-18 19-16 24-12 29-5 27-5 30-3 35-1 38 4 35 5 31 8 28 8 23 18 25 18 16 25 15 29 8 24 2 24-1 25-3 26-7 26-10 26-14 25-16 25-23 22-25 20-23 14-26 10-27 7-28 3-28-2-30-8-30-13-31-16-28-10-23-21-28-21-24-23-14-28-12-25-2-30 2-28 7-22 10-26 13-22 14-15 19"/>
<path d="M3532 17214l 0 0 22-11 26-6 25 0 21 15-9 25-15 22 25-3 24-2 21 12-7 26-13 24-17 18-21 21-22 14-24 6-26 1-24-4-25-10"/>
<path d="M3533 17098l-2 0-24 6-22 12-19 15-17 20-17 24-11 22-8 27-7 29-3 24 1 25 7 31 8 24 12 23 16 26 18 16 24 12 22 10 29 8 32-2 24-6 29-9 27-12 24-15 22-18 18-18 14-26 8-25 7-25-1-25-10-27-15-26-15-21-23-19-20-14-22-11-28-10-28-7-27-4-28-1-25 5-18 17"/>
<path d="M4906 15031l 0-1 5 25-6 24-6 24-5 25 1 25 10 22 25 7 24-7 25-11 22-10 23-12"/>
<path d="M4953 15089l-1 0-5 25 1 26 2 24 2 24 3 26 6 29 6 23 15 20"/>
<path d="M4895 14987l-3 1-26 9-23 15-18 18-13 24-6 25-4 32-2 28 0 31 4 32 5 33 10 29 12 28 16 23 20 17 23 12 24 8 27 1 29-3 29-7 27-8 25-11 23-14 21-16 18-20 15-20 14-23 12-29 4-29-2-31-4-25-9-24-15-22-20-21-24-21-26-18-28-14-28-7-28-7-28-1-27-2-26 4-23 5-27 9"/>
<path d="M3896 17089l-1 0-5 24-2 24-5 27-3 26 2 25 19 16 25-2 27-4 26-10 22-12 22-13 20-15"/>
<path d="M3950 17141l-1 0-2 24 5 26 5 28 3 24 9 24"/>
<path d="M3885 17024l-2 0-24-2-25 8-19 14-15 21-11 21-9 26-6 28-2 27 1 27 3 28 8 25 12 23 15 21 19 16 24 15 25 10 24 6 25 3 25-3 24-10 25-9 22-11 22-16 17-19 13-24 10-24 7-25 2-30-4-30-12-27-15-22-17-21-18-18-21-17-21-15-21-13-26-12-27-7-24-3-25 6-24 3-25 9-20 16"/>
</svg>
