<svg xmlns="http://www.w3.org/2000/svg" viewBox="3169 1232 10093 12301" stroke="black" stroke-width="16" stroke-linecap="round" stroke-linejoin="round" fill="none" data-xena="0 -4 0"><style>@media(prefers-color-scheme:dark){svg{background-color:black;stroke:white;}}</style>
<path d="M6609 1989l 0 1 0 27 2 28 4 30 5 29 3 24 5 29 4 26 4 25 2 24"/>
<path d="M6544 2353l-1 1-19 14-19 16-21 21-22 22-20 21-22 25-17 18-18 19-20 19-20 21-23 23-24 24-26 26-27 28-29 28-29 29-30 30-33 30-34 32-35 33-18 18-18 17-19 18-20 18-19 19-20 20-20 20-21 20-21 21-21 20-21 21-22 21-22 20-22 21-22 22-22 23-23 22-22 22-22 23-23 22-22 21-22 23-23 22-23 21-22 22-23 22-23 21-22 22-22 21-21 21-21 20-20 20-20 21-19 20-20 19-18 19-19 19-20 19-17 20-18 17-16 18-32 33-31 31-27 29-27 26-23 25-21 22-19 19-17 18-21 21-19 19"/>
<path d="M4622 4284l 0-2 10-25 22-15 23-8 25-7 25 1 23 12 9 23-1 24-10 27-12 23-20 25-18 19-17 20-18 19-18 17-21 20-18 18-21 18 23 11 25-6 26-7 30-6 29-7 28-6 27-5 25-5 25-2 27 7"/>
<path d="M6777 2449l-1-1 27 3 19 15 25 20 22 21 24 25 18 20 18 20 18 22 19 22 18 25 19 26 19 27 19 29 22 29 22 30 24 31 25 31 25 31 26 33 28 33 28 33 31 33 31 34 31 34 34 35 16 18 18 18 17 17 18 17 17 17 18 17 16 17 34 33 31 33 32 33 31 33 31 35 29 32 29 32 28 30 26 27 25 28 24 27 23 27 21 27 22 28 22 25 21 25 19 25 17 25 16 23 15 21 18 29 14 24 11 27"/>
<path d="M8175 4052l 1-1 21-16 28-5 28 0 27 2 23 12 1 25-19 22-19 16-22 17-19 17 23 10 24 2 27 7 26 4 23 11 16 21-3 26-15 24-19 18-22 12-25 11-25 5-25 0-24 0-24-4"/>
<path d="M8039 4581l 0-1-18 21-13 25-16 28-14 25-15 26-13 21-12 22-14 26-17 27-18 27-21 30-22 31-23 33-23 35-25 35-27 38-28 38-14 20-15 19-16 20-15 21-15 21-16 21-17 22-17 22-17 23-18 24-18 25-18 26-19 25-20 26-19 27-20 27-20 26-19 28-20 24-20 26-20 25-19 26-19 24-19 25-18 25-18 24-19 24-18 24-17 23-18 24-16 23-18 23-17 22-17 22-16 22-16 22-15 20-16 20-16 19-28 38-28 35-27 33-24 31-23 26-20 24-18 23-15 20-17 23-15 21"/>
<path d="M6720 6511l-1 0-16 18-10 24-5 25-4 26-6 26-3 25 7 23 27 3 27-9 24-10 26-9 26-9 25-7 24-12"/>
<path d="M6807 6562l-3-2-14 23 0 24 3 28 6 25 4 28 6 27 6 27 8 25"/>
<path d="M8515 4473l 0 0 24 12 21 16 20 17 16 19 19 20 18 24 21 27 23 29 18 20 16 19 19 20 21 22 22 22 23 25 25 25 27 26 29 30 30 29 31 31 31 33 32 33 33 33 32 35 17 18 17 19 17 19 17 18 17 19 17 19 17 19 18 18 18 19 17 19 18 19 18 19 18 18 18 20 18 20 17 19 18 20 18 19 17 19 18 19 15 20 17 19 16 19 16 18 16 18 15 19 16 18 30 36 30 35 28 36 29 35 27 34 26 36 28 36 25 36 27 36 26 34 26 36 27 34 25 33 26 35 25 31 24 28 25 30 22 29 23 27 22 26 20 23 18 21 17 21 15 20 22 26 18 23 18 23"/>
<path d="M10339 6505l 1 0 24-6 24-4 25-5 25-4"/>
<path d="M10355 6523l-2 1-15 18-14 23-11 25-5 25 2 25 24 12 25 0 24-2 24-5 24-1 25-1 25 4 25 2 22 15 5 26-11 21-19 24-17 17-22 18-23 14-25 9-25 5-25-4-23-9"/>
<path d="M6844 2320l-2-1 16 20 19 18 18 18 19 18 19 19 18 19 18 22 18 21 17 18 16 20 19 19 19 15 19 18 15 18 17 20 18 21 18 21 14 23 15 20 17 20 16 19 17 21 16 18 17 18 16 17 17 18 17 20 16 19 16 18 19 19 19 20 17 18 16 19 15 21 13 22 16 23 16 20 16 20 16 20 17 20 17 22 15 21 17 17 16 18 17 18 16 21 18 19 15 19 18 20 16 21 15 20 17 20 15 20 17 18 20 16 17 18 19 17 20 17 20 14 20 17 17 19 18 16 17 17 18 20 18 19 17 18 16 19 18 19 16 20 16 19 14 21 15 19 15 21 19 15"/>
<path d="M6707 1361l-1-1-18 18-12 25-10 25-8 28-5 25-3 29-3 29-1 30 1 26 4 28 4 25 7 24 10 22 12 21 18 16"/>
<path d="M6829 1465l-2 1-18 16-11 22-6 25-2 29 3 27 9 24 15 21 21 14 25 7 27-3 21-19 11-22 9-27 4-26-1-26-9-23-13-22-18-21-23-12-25-3-25 9"/>
<path d="M7062 1657l 0 0-2 25-3 28-4 27"/>
<path d="M7107 1498l-1 1-7 23-3 27 4 26 7 24 14 25 19 16 28 6 26-7 22-17 16-18 10-26 3-26-5-26-15-20-24-10-25-5-25-2"/>
<path d="M7235 1335l 1 0 26 2 25 9 21 12 19 16 19 18 17 19 14 22 13 27 9 29 1 24-1 26-5 25-8 25-10 23-12 21"/>
<path d="M8681 3774l-2-1-25 1-15 20-13 25-9 25-7 29-5 27-2 27 1 28 1 29 4 26 6 28 11 25 11 23 19 17"/>
<path d="M8768 3882l 0-1-10 24-1 29 5 28 10 25 17 18 27 5 25-12 22-18 19-22 12-24 2-27-11-23-21-16-26-9-25-4-24 6-12 23"/>
<path d="M9014 4024l 0 0 11 22-3 27-10 25-9 24"/>
<path d="M9157 3787l 1 0 9 25 4 27 3 28 4 27 0 27 1 27 2 25"/>
<path d="M9255 3663l 1 0 20 13 22 14 21 16 18 20 15 21 14 21 11 22 9 24 8 25 4 28 0 26-1 27-4 27-6 26-8 29-7 26-12 23-21 13"/>
<path d="M4347 4681l-2 0-21 12-11 25-11 24-8 23-7 24-7 25-5 25-1 29 4 24 5 25 9 23 11 22 18 18 25 7"/>
<path d="M4436 4763l-2 0 0 24-1 25 2 27 3 26 6 26 14 21"/>
<path d="M4560 4905l 0 1-6 24-7 27-6 26"/>
<path d="M4640 4781l-1 1-9 22-1 25 0 26 6 24 15 20 23 14 25-2 22-13 19-17 15-21 10-22 3-26-13-20-24-11-26-8-26 0"/>
<path d="M4810 4675l 0 0 26 8 26 6 24 6 25 12 22 14 19 21 16 22 9 28 1 25-5 30-8 27-10 29-12 26-13 22"/>
<path d="M6474 7035l-2 0-21 16-11 23-11 24-10 25-10 29-7 23-7 30-3 25 2 28 10 29 14 24 19 17"/>
<path d="M6582 7089l 0-1 23-6 28 5 25 8 19 17-1 28-14 22-17 19-18 20-17 19-14 21 23 12 27-7 26-6 25-4"/>
<path d="M6814 7226l-1 1-1 25-6 26-9 26-11 27-5 25"/>
<path d="M6966 7095l-2 0-21 14-10 25 6 25 16 20 25 10 27 1 26-4 22-15 14-20 0-26-16-19-24-9-24-4-24 9"/>
<path d="M7113 7003l-1-2 24 13 20 16 21 15 22 16 19 21 12 23 10 28 4 26 0 29-4 26-9 24-10 27-15 27-15 23-15 20"/>
<path d="M10326 7070l-2 0-24 8-16 18-16 19-12 21-11 26-10 30-5 23-4 28 2 25 15 24 18 17 23 10"/>
<path d="M10457 7106l 0-2 15-21 24-6 27-1 24 3 18 17-14 24-20 18-22 18-20 17-18 16 25 0 23-10 27-3 24-3 24 3 16 19-5 25-18 22-18 18-21 16-24 13-25 13-25 2"/>
<path d="M10707 7257l-1 0-16 21-11 24-11 22-12 25"/>
<path d="M10816 7153l-2 1-20 14-5 25 5 25 13 21 20 19 24 12 25 2 25-9 20-14 18-20 13-21 9-26 3-25-14-24-20-14-28-9-27-3-27 2-27 3"/>
<path d="M11038 6966l 0-1 25 3 25 9 23 10 25 14 26 16 21 13 21 19 16 20 12 24 8 29 1 29-6 32-8 24-10 23-12 23-16 24-16 25-17 21"/>
<path d="M7969 1497l 0 0-3 25-8 25-10 22-9 26-5 24-1 24 5 24 24 8 23-8 23-12 24-10 23-10 22-12"/>
<path d="M8025 1539l 0 0 1 24 7 25 6 24 8 27 5 24 6 30 6 29 6 23 6 23"/>
<path d="M4395 5293l 0-1 15-20 25-8 25 1 24 4 25 8 19 18 2 25-10 23-12 21-18 25-18 19-16 18-21 22-20 20-20 20-19 20-16 18 25-2 24-6 25-5 28-4 27-3 25-4 26-1 25 3 25 6"/>
<path d="M9960 4037l 0-1 5 26 1 24 2 29 3 24 6 28 5 23 3 25"/>
<path d="M9723 4135l 0-1 20-14 25-2 25-7 24-5"/>
<path d="M9759 4057l-1-1 2 26 4 25 4 25 6 23 10 22"/>
<path d="M7663 1635l 0-1 23-7 25-5 25-10"/>
<path d="M7708 1566l 0-1-3 27 4 26 7 28 6 26 6 24"/>
<path d="M4035 5414l 0 0 25 2 26-6 25-8 26-8"/>
<path d="M4088 5341l-1 0 4 27 7 25 7 24 10 25 8 26"/>
<path d="M6302 7911l 0-1 20-14 24-12 26-9 23-8 25-7"/>
<path d="M6353 7803l-1-1 8 25 4 26 4 25 5 26 7 25"/>
<path d="M6546 7714l 0-1 23-6 25 5 23 6 23 10 17 18 2 29-7 25-13 27-17 26-15 20-17 21-17 18-18 22-15 20-17 22 25 4 26-9 24-9 27-7 29-6 29-7 30-4 28-1 25 5"/>
<path d="M10467 7725l 0-1 27-4 25-3 24 0 24 3 25-2"/>
<path d="M10544 7624l-1 0-4 25 7 27 6 25 5 28 7 25 10 23"/>
<path d="M10718 7607l-2 0 0 27 3 27 4 29 5 27 4 27 3 27 1 28 2 28"/>
<path d="M6304 9375l-1 0-19 20-17 22-18 21-18 23-18 24-23 27-17 21-21 22-25 26-27 27-29 29-30 30-32 31-33 31-17 17-18 17-18 17-18 18-19 19-19 18-19 19-19 19-20 19-21 19-19 19-19 18-19 19-19 17-19 18-19 18-18 18-19 19-18 19-19 21-19 19-19 22-20 20-20 21-21 22-20 20-21 22-22 22-22 23-21 22-22 24-22 23-23 24-22 24-24 24-22 24-24 24-24 24-24 24-22 24-25 24-22 24-22 25-23 25-23 25-22 23-22 24-22 22-22 24-20 23-23 22-19 20-19 20-17 19-17 19-31 33-24 28-22 23-18 19-20 23-16 19 15-23"/>
<path d="M6450 9145l 0 0 0 25 0 29 1 25 1 26 3 24 2 26"/>
<path d="M4446 11270l 0-2 13-20 25-9 28-2 27 3 24 9 20 15 5 26-9 24-14 23-19 25-19 25-18 16-19 16-24 20-22 15-21 16-23 14 27-8 24-5 30-3 27-3 30-6 24-2"/>
<path d="M6700 9495l 1 0 24-5 25 9 26 16 24 19 21 19 24 22 26 24 20 16 21 17 24 18 25 18 27 19 29 20 30 20 32 21 35 21 36 23 38 23 39 25 41 25 21 12 22 13 21 13 22 13 23 14 24 13 23 14 24 14 23 14 25 14 25 15 25 15 24 15 25 15 25 15 26 15 26 15 25 15 26 15 26 15 26 16 25 15 26 16 26 15 25 16 26 15 25 16 25 16 25 16 25 15 25 18 24 16 24 16 24 17 24 17 24 16 24 16 24 16 24 16 24 16 23 16 24 16 22 15 23 15 22 15 23 14 21 14 21 14 21 14 21 14 21 14 20 13 21 14 38 26 39 24 36 23 35 21 34 19 30 20 29 19 25 18 24 18 21 15 28 19 24 18 25 17 20 17"/>
<path d="M9100 11155l 0 0 27-4 28-1 24 2 25 7-3 26-21 13-22 10 23 11 23 9 23 9 22 14 16 21 6 26-5 24-13 22-20 15-24 10-27 4-25 1-24-3-25-5-24-13"/>
<path d="M4382 11807l 0-2-17 18-15 23-15 22-20 28-15 21-17 21-20 24-18 26-21 28-22 30-24 31-25 34-29 35-30 37-16 19-16 20-16 21-18 21-19 22-18 22-19 22-21 23-20 24-21 24-20 24-22 24-21 24-21 22-20 22-21 24-20 22-18 22-19 21-18 21-16 21-16 19-16 20-29 36-25 34-23 30-20 27-16 24-15 20-18 26-17 23-9 22"/>
<path d="M3312 13126l 0 0-12 22-15 24-9 25-3 25 16 21 27 6 24-3 26-6 24-8 27-8 23-9"/>
<path d="M3418 13162l-1 0-14 20-1 24 2 24 3 30 0 25 3 28 6 31 3 25"/>
<path d="M4639 11819l 0-1 19 19 20 24 14 19 20 25 19 27 19 30 22 30 17 22 19 23 20 23 20 23 20 23 22 27 23 27 24 27 22 29 23 27 25 30 25 30 27 33 27 32 28 31 29 32 28 33 32 32 30 33 31 32 30 32 30 32 30 32 27 29 26 27 25 29 23 27 24 29 23 28 22 25 19 23 17 17 23 25 19 19 17 21 17 21"/>
<path d="M5822 13027l-1 0 24 3 26-3 25-2"/>
<path d="M5844 13027l-1 0-21 16-12 22-11 24-3 27 2 25 25 14 26-4 25 0 27 3 25-1 26 6 22 13 12 23-5 25-15 20-20 16-21 16-24 5-24 0-25-8-19-17"/>
<path d="M9253 11637l 0-2-4 25-8 30-10 30-13 33-9 23-10 27-12 29-13 29-13 35-16 34-17 36-16 38-17 40-16 40-17 41-17 41-18 40-16 41-16 39-14 41-13 41-13 41-13 41-12 40-13 40-11 39-11 37-9 35-9 32-7 30-7 31-5 27-6 26-6 23-10 33-9 28-10 27-8 24-11 28-10 22-10 22-7 24"/>
<path d="M8732 13229l 0 0-20 14-8 27-5 23-4 28-1 28 2 25 6 25 16 20 23 10 28-7 24-11 22-17 11-23-15-24-27-3-22 13-15 20"/>
<path d="M9353 11486l 0 0 20 15 23 17 20 16 22 22 18 20 20 21 22 25 18 17 17 18 20 19 20 20 22 21 22 21 25 24 27 25 26 25 28 27 29 24 31 27 34 27 34 28 37 30 19 15 19 15 19 14 19 15 20 16 20 15 39 30 20 15 22 16 20 16 22 16 22 15 22 16 22 15 21 16 22 15 22 14 21 16 21 16 21 15 20 16 21 15 20 16 37 30 20 15 37 30 36 28 34 28 33 28 31 24 29 26 26 24 24 24 20 24 19 21 18 20 22 28 18 23 14 20 15 22 13 22"/>
<path d="M10991 12842l-1 0 24-2 26-9 24-7 25-6 23-7 24-6 16 20-6 28-9 27-8 28-11 29-9 22-7 25-8 27-8 25-8 24"/>
<path d="M9506 11290l-2-1 25 10 22 12 24 15 23 13 28 14 23 12 24 14 27 16 29 17 21 11 21 14 24 13 25 12 25 12 28 12 28 13 30 14 31 16 33 15 34 16 36 16 37 15 39 17 38 18 40 18 39 19 40 19 42 19 42 19 43 19 23 9 23 10 23 10 22 11 23 9 24 11 24 11 24 11 24 11 25 12 24 11 25 11 25 12 26 13 25 10 26 12 26 11 25 11 27 11 27 11 26 10 27 12 26 12 27 12 28 13 27 11 27 13 27 12 27 14 27 13 27 13 26 13 26 14 26 14 27 14 26 13 27 14 26 14 27 15 26 14 27 14 26 14 28 14 27 16 27 16 27 15 26 14 28 15 28 15 25 15 27 14 26 13 26 14 27 14 25 14 27 15 26 14 25 15 25 13 25 15 26 14 25 14 26 13 25 14 25 14 26 12 25 13 24 13 23 12 25 13 22 12 22 12 22 13 22 12 21 12 22 11 40 23 40 23 38 22 36 22 36 21 32 21 31 18 28 18 25 17 23 15 21 14 27 20 23 17 24 18 19 15"/>
<path d="M13158 12968l 0-2-12-21-27-1-25 7-22 12-15 19 2 25 19 19 21 12 20 17 19 19 12 21 6 29-2 27-7 25-12 20-19 18-23 10-18-18-11-22 0-26 2-26 6-25 11-24 17-17 21-18 21-13"/>
</svg>
