<svg xmlns="http://www.w3.org/2000/svg" viewBox="854 4383 9286 5510" stroke="black" stroke-width="16" stroke-linecap="round" stroke-linejoin="round" fill="none" data-xena="0 0 0"><style>@media(prefers-color-scheme:dark){svg{background-color:black;stroke:white;}}</style>
<path d="M1321 9430l 1-3 2-24-1-25-14-21-25-11-25 5-25 12-19 15-19 18-15 19-13 21-11 22 3 25 23 14 24 5 25 1 28 0 27 0 24 3 24 13 3 24-7 26-14 25-14 22-18 19-22 15-27 6-23-11-13-20-6-28 2-28 13-22 17-19"/>
<path d="M1274 9358l-2-2-17-20-19-17-21-14-27-6-25 4-25 8-28 16-26 17-24 19-24 23-21 28-19 30-11 23-11 26-8 28-7 26-2 25 0 25 4 35 9 33 14 29 17 28 24 24 26 19 22 10 36 7 26 5 25 2 36 1 33-6 24-6 23-9 25-12 23-14 22-17 21-18 21-19 17-20 15-22 15-20 10-24 12-33 6-32 0-33-5-38-6-25-11-26-10-23-13-24-20-29-22-26-21-20-23-18-23-14-27-15-31-9-27-3-30 0-26 7"/>
<path d="M1403 8911l 1-1 23-13 28-6 24 0 28 1 24 6 2 24-16 22-19 16-22 17-21 17-22 13-24 12 24 12 27-1 24 4 27 4 26 6 27 9 22 16 9 25-9 26-14 20-21 22-18 17-25 15-27 12-29 6-24 2-29 1-23-9"/>
<path d="M2618 8899l 1-2 19-15 27-8 25 0 29 6 29 5 25 6 25 10 16 19-2 27-15 25-20 22-18 18-19 15-21 15-23 21-18 16-23 15-20 19 24 12 24 5 24 2 25 2 24 2 27 2 26 1 25 3 23 6"/>
<path d="M4060 8796l 1 0-12 22-12 20-17 25-14 22-10 22-11 26-8 24 5 23 16 18 27 7 28 2 30-2 24-3 32-6 30-8 24-6 24-10 23-8 24-11 24-12"/>
<path d="M4197 8879l 0 0 1 25 1 25 0 24 1 25 1 24 3 25"/>
<path d="M5128 8792l 0 1-2 24-3 29-3 25-3 28-3 29-3 28-3 28-3 29-3 27-4 25 1 24"/>
<path d="M6296 8616l 0-1 25-7 24-3 28-5 28-5 23-6 24-4"/>
<path d="M6383 8620l-2 2-21 15-18 19-12 22-6 25 1 27 7 23 18 18 25 12 29 4 29 0 30-3 30-2 29 1 27 1 24 2 26 7 22 12 13 20-5 25-16 19-18 17-24 16-21 11-24 10-25 7-25 4-25 3-31 0-25-3-23-8"/>
<path d="M7560 8621l-1 0 24-2 26-6 25-5 28-6 28-8 27-9 23-7"/>
<path d="M7593 8637l-2 1-21 14-11 22-9 24-8 26-5 24-5 25 3 26 28 7 28-3 27-9 28-12 30-10 30-9 29-3 29-2 27 1 25 5 25 10 20 14 7 25-10 25-17 22-25 22-22 12-24 13-26 13-25 9-25 4-31 5-26 0-24-6"/>
<path d="M8868 8667l-1-2 25-10 28 2 25 2 25 4 25 11 21 14 7 26-14 23-21 20-24 17-20 14-24 15-25 15-24 16-22 17-23 20-16 19 5 25 25 6 28-1 25-4 28-6 29-5 29-8 30-5 30-5"/>
<path d="M9745 8633l-2-1-25 7-18 20-16 24-14 29-10 25-9 26-5 29-5 26-1 24 5 30 14 23 19 20 25 16 28 10 29 6 28 3 28-3 25-10 21-12 22-19 9-22-7-28-20-19-26-12-25-6-24-3-31-2-30 2-26 2-24 1"/>
<path d="M1627 8555l 1 0 15-20 17-20 20-24 20-25 25-27 19-21 20-22 24-24 22-25 23-27 23-27 21-27 25-27 23-26 22-24 22-23 19-24 18-22 16-18 16-20 21-25 16-22 16-24 13-23 13-21 19 20 12 23 11 24 16 28 12 22 16 25 14 27 14 27 13 29 17 30 17 30 17 31 12 21 20 31 20 28 17 25 19 25 18 23 16 23 16 20 18 19 15 21 14 25 14 20 20 15"/>
<path d="M4232 8447l-2-2 4-26 18-23 18-21 23-26 18-22 20-22 22-25 24-25 23-24 25-26 26-26 24-24 24-24 19-19 25-22 17-19 20-20 17-18 26-3 21 16 18 21 15 20 15 22 18 24 17 28 15 23 18 25 17 24 17 27 18 26 18 28 18 23 19 23 17 23 16 22 19 24 18 16 19 16 23 12"/>
<path d="M6569 8418l-2-2 0-26 21-23 21-22 20-16 22-22 25-25 27-26 30-30 32-29 33-31 34-31 35-31 18-16 34-31 34-29 33-29 28-27 27-24 23-22 19-17 25-21 21-19 16-19 18 20 13 25 14 29 14 27 13 31 13 30 15 30 13 29 16 27 14 27 16 26 16 26 18 24 17 24 18 22 18 21 18 18 17 18 19 22 17 20 19 18"/>
<path d="M9124 8312l-2 0 5-27 27-25 22-22 27-26 30-28 31-31 34-32 33-30 31-30 29-31 24-26 21-24 17-22 20-26 18-25 12-21 27-3 20 21 15 25 13 29 11 36 8 23 8 25 9 26 9 24 10 23 11 23 15 32 16 30 16 26 17 25 14 23 12 24 16 23 16 21 13 21-3-25"/>
<path d="M9762 7566l 0 0 22-11 26-5 25-3 25-4 27-3 23 9-6 25-12 21-13 22-13 20-15 21-14 22"/>
<path d="M9876 7443l-2-2-17-19-23-7-25-1-28 8-22 12-24 17-19 21-21 22-21 24-21 30-16 29-13 33-8 31-3 28 1 26 4 25 13 28 19 24 18 18 25 18 28 14 27 9 30 2 26-1 27-6 30-7 29-13 28-18 26-22 26-23 22-22 18-24 14-22 7-24 1-25-2-28-4-26-7-27-8-25-10-22-16-25-20-16-22-9-28-8-28-2-27 5-25 7-20 13"/>
<path d="M9417 7461l-1-2 1-25 0-25-15-21-25-13-26 1-28 8-22 12-21 14-18 17-14 23 0 26 14 21 19 19 24 17 22 12 21 14 22 13 20 18 19 22 11 22 2 28-10 25-15 19-19 22-24 14-24 8-24 0-19-16-9-28 0-31 3-28 6-31 10-32 11-29 14-25 14-20 16-20 16-18 20-16"/>
<path d="M6997 7319l 0-2-3 29-5 30-7 31-8 26-8 32-11 31-11 31-13 30-13 27-9 25-4 27"/>
<path d="M7104 7445l-1 2-16 21-13 25-11 28-7 26 3 29 12 25 22 14 25 6 27 0 29-6 28-13 21-14 20-16 16-17 15-23 8-23-1-25-12-24-17-19-22-15-21-11-28-8-26 2-24 10"/>
<path d="M4552 7487l 0 2 21-17 24-9 23-9 25-9 25-10"/>
<path d="M4619 7482l-2 1-19 19-16 23-11 23-7 26 0 24 21 13 24-3 27-12 24-9 26-8 26-8 25-3 27 3 22 14 0 27-11 26-13 20-17 19-21 20-24 18-27 12-27 9-25 7-29 2-25-8-21-13"/>
<path d="M1741 7846l 0-2-4-25 2-24-12 23-13 21-15 23-11 21-12 21-18 24-11 23 3 26 25 5 25-7 25-9 24-6 25-9 24-9"/>
<path d="M1772 7890l-1 2-10 22-3 24 0 25-2 27-1 27 1 27"/>
<path d="M1829 7760l-2-3-23-19-23-11-24-5-25-1-24 2-24 8-27 16-18 17-19 19-14 25-17 25-15 29-11 28-5 30-1 27 4 27 5 25 14 22 20 18 24 17 27 13 30 9 31 8 31 3 31-2 32-8 31-10 28-13 25-17 23-22 21-28 16-28 15-31 9-28 6-27 4-30-7-33-7-25-12-21-17-17-18-16-24-17-26-14-26-10-26-4-26 4-27 10-23 16"/>
<path d="M2098 7441l-1 0 28-9 24-6 25-7 27-8"/>
<path d="M2137 7424l-1 1-22 16-17 20-13 26-11 26-11 25-7 24 0 26 14 22 23 11 24 3 29-4 27-10 26-9 28-10 23-9 28-8 26-2 26-2 25 5 13 20-10 24-13 20-22 24-20 19-20 17-22 15-23 13-24 10-28 12-24 7-23 6-28 4-26 0"/>
<path d="M2668 7226l-2 0 21-17 26-16 26-15 30-17 21-12 23-15 26-16 27-16 30-20 31-21 32-21 36-23 37-24 37-21 38-24 37-24 38-24 37-22 35-22 34-22 31-21 29-20 27-18 25-15 22-15 20-13 27-19 23-14 24-17 18-16 27-3 20 15 22 17 22 21 19 16 19 17 21 17 26 18 29 19 21 13 21 15 21 15 22 15 21 15 23 15 24 17 23 15 22 17 25 17 24 18 24 17 25 17 24 17 22 16 23 16 20 15 21 14 26 19 26 17 26 18 20 15 21 14 19 17 18 18 18 16"/>
<path d="M3436 6160l-1-1-10 25-11 26-11 26-13 27-15 27-9 22-9 23-11 26-5 25"/>
<path d="M3566 6227l-2 0-14 21-8 26-9 23 0 28 11 27 17 25 19 19 22 12 25 4 25 0 28-9 22-16 19-20 13-23 5-25-2-28-9-22-15-22-18-20-20-17-24-10-24-1-26 6"/>
<path d="M2977 6498l 1-1 25-4 22 13 4 24-16 21-16 19-17 17-19 20-15 19 24-5 25-1 27-5 28-5 24-9"/>
<path d="M3053 6395l-3-2-24-6-25-1-28 3-25 6-23 10-23 13-25 16-21 21-16 19-14 26-12 28-9 33-3 31 3 30 9 28 13 24 15 22 23 16 27 9 29 4 30 0 30-4 30-6 29-10 30-14 28-17 25-17 20-18 21-24 16-24 9-28-1-29-9-30-12-26-19-25-22-25-26-22-27-20-24-18-26-9-25-5-31-4-26-3-25-2"/>
<path d="M7277 7075l-1-2 17-18 19-19 20-16 22-21 19-16 22-16 24-18 24-19 26-18 26-19 28-19 29-19 29-20 32-22 31-22 31-23 29-20 30-20 29-20 28-19 28-20 28-20 28-19 27-16 26-20 27-19 23-18 23-17 21-18 19-16 19-17 18-17 25-20 21-18 21-16 24-8 25 8 23 16 19 23 20 25 18 20 20 25 24 26 19 18 21 19 23 18 25 19 26 20 27 21 28 20 29 22 30 21 32 21 33 22 32 20 31 21 31 21 31 21 29 20 28 20 26 20 27 19 25 17 24 17 23 16 21 14 19 16 28 22 22 19 22 20 17 19 20 20 19 17 17 18"/>
<path d="M8067 5965l 0-1-11 21-12 28-10 22-9 22-10 23-10 29-8 26"/>
<path d="M8228 5940l-3 0-26 2-26 6-26 9-24 11-21 15-4 24 19 16 25 10 24 9 26 12 25 15 20 15 15 23 2 30-9 29-11 22-17 22-20 14-24-10-10-23-4-26 0-30 4-27 8-27 14-27 17-25 17-19 19-17 21-18 23-17 24-15 24-12 24-9"/>
<path d="M8533 6223l 1 0 20-13 26 0 26 5 23 9 1 25-19 18-22 15-21 14 25 0 26-6 25 4 12 22-15 21-21 18-21 13-24 8-25-5"/>
<path d="M8612 6128l-2 0-24 3-20 13-18 17-17 19-17 25-13 26-9 28-3 27 4 26 8 25 15 20 19 16 23 15 27 10 30 6 30 1 31-3 25-6 23-9 26-17 17-19 12-25 3-27-7-27-10-22-15-24-19-22-21-20-22-17-22-14-24-13-24-7-26-5-25-2-29-2-26 2"/>
<path d="M3970 6051l-2-1 20-19 27-11 29-14 28-13 24-12 26-14 30-17 35-19 39-22 42-25 24-14 23-14 25-14 26-15 26-15 28-15 29-16 28-16 30-15 30-16 30-17 30-17 32-18 32-17 31-16 32-18 33-17 33-17 34-19 34-16 35-18 34-18 35-18 36-18 35-19 37-18 36-19 36-18 36-19 36-20 36-18 36-19 36-19 36-18 35-19 37-18 34-17 34-17 35-16 34-16 33-15 31-16 30-13 30-14 29-13 28-12 26-11 25-12 24-10 23-10 23-9 41-17 38-13 34-13 29-11 24-8 30-10 26-7 6-23 23 5 24 11 30 9 26 11 31 13 23 10 25 11 28 12 28 15 32 15 34 15 37 15 38 16 40 16 42 16 44 16 23 9 22 9 23 8 24 9 25 9 24 9 25 10 25 10 26 9 26 10 27 10 27 10 27 10 27 11 28 10 28 10 27 10 26 11 28 10 26 11 27 11 26 10 27 12 26 10 26 12 26 10 26 11 25 11 25 10 25 11 25 11 24 11 25 10 24 11 23 10 23 10 22 12 22 10 41 21 39 20 36 20 35 19 32 18 29 18 27 17 26 16 24 16 22 13 28 18 22 15 19 16 18 18-13-23"/>
<path d="M5754 4525l-1-2 16-19 26-9 29-6 31-3 30 0 28 4 25 8 22 16-3 26-17 24-17 19-21 20-25 20-27 21-28 20-27 19-26 18-22 16-23 19-18 16 17 18 30-6 24-8 28-7 29-7 31-10 33-10 34-11"/>
<path d="M6223 4512l-2-2-23-9-24 1-27 5-24 12-16 20 7 25 16 21 18 20 21 18 24 15 22 19 19 18 15 23 1 24-12 23-17 19-24 16-28 8-27 3-27-12-15-25-7-25 0-28 10-29 14-28 12-21 14-21 17-20 21-18 23-19 27-17"/>
</svg>
