<svg xmlns="http://www.w3.org/2000/svg" viewBox="1099 2459 13549 22278" stroke="black" stroke-width="16" stroke-linecap="round" stroke-linejoin="round" fill="none" data-xena="0 -8 0"><style>@media(prefers-color-scheme:dark){svg{background-color:black;stroke:white;}}</style>
<path d="M2211 3232l 0 0 20 17 30-7 23-11 28-17 20-15 20-18 21-20 21-22 21-24 21-22 19-24 17-22 15-23 13-21 12-22 13-29 7-25 2-27-3-26-19 16 3 28 9 28 10 27 15 25 15 26 12 24 8 26 1 28-6 25-11 28-14 25-17 19-22 14-21 11-26 7-28-2-21-14-2-25 16-20 20-16 22-14 26-13 24-10 26-7 24-4 25-8 24-8 21-13 21-14 25-17 21-18 20-18 19-18 17-21 8-26-10-22-25-10-26 5-24 13-18 17-17 21-18 27-13 23-10 24-7 25-5 29 6 29 15 20 28 13 32 0 29-7 33-11 25-9 24-11 24-12 24-12 23-12"/>
<path d="M3017 2971l 0-1-18-16-20-15-26-1-24 10-23 18-20 19-18 23-17 23-13 22-10 24 0 25 19 20 24 1 24-6 27-10 29-16 27-15 22-16 25-19 18-22 8-25-23-8-14 29-6 24-8 27-6 28-5 33-3 33-4 25-2 25-4 25-4 27-4 28-6 27-5 28-7 27-7 30-9 28-11 29-11 28-12 23-11 22-14 27-16 25-18 19-21-13-9-27-5-32-1-25 1-28 2-31 4-32 6-34 7-33 8-31 11-28 11-26 13-25 14-22 16-22 16-20 17-20 17-19 18-18"/>
<path d="M3104 3093l 0 0 21-18 18-17 24-22 22-21 24-24 17-18 16-19 18-19 16-20 15-20 13-21 14-22 12-24 15-26 12-28 12-27 10-28 9-26 7-24 8-33 7-27 7-26-27 3-14 21-15 31-11 23-13 24-12 27-14 28-14 30-14 32-16 32-13 32-14 32-10 32-10 30-6 27-4 24-2 28 5 29 16 22 26 7 30-8 28-13 29-18 24-20 25-19 24-19 22-18 17-18 16-23"/>
<path d="M3457 2867l-1 1 29-7 27-11 24-8 23-6 26-5 24 3-13 24-16 18-16 18-21 21-16 18-18 23-18 18-13 23 10 22 24 3 26-7 28-11 27-15"/>
<path d="M3710 2913l 0 0 17-17 25-10 21-14 20-16 4-24-17-18-23-9-25 7-24 18-18 22-19 27-11 23-10 27-6 24-1 28 8 25 15 22 26 12 28 2 27-4 33-8 33-9 24-9 33-13 31-13"/>
<path d="M3950 2883l-2 0 23-10 28-11 22-11 24-13 19-17-9-22-25-8-28 6-25 11-20 14-21 18-19 20-12 21-6 24 0 25 5 24 8 23 18 22 28 12 31 2 31-4 23-6"/>
<path d="M3098 2799l 2-1 27-7 25-3 26-3 31-6 24-4 26-6 29-6 31-6 33-6 35-6 35-6 36-5"/>
<path d="M4611 2904l-2-1-25-1-18 17-10 23-8 23-5 28 4 27 19 14 24-6 19-15 15-22 4-24-5-24-20-15 25-1 23-15 26-18 20-16 25-17 24-20 26-21 24-24 23-23 18-24 17-22 14-24 11-22 8-24 4-29 3-27-3-25-20-14-20 16-15 18-19 27-14 22-15 26-15 29-17 34-18 38-16 41-19 43-17 45-14 46-7 24-9 23-6 24-7 24-6 23-12 46-10 44-7 43-5 42-4 41-3 40-1 35 0 31 3 27 8 31 14 20 24 15 27-9 18-19 18-29 12-24 7-26 5-25 3-27-1-27-3-26-6-27-8-26-8-26-11-25-9-24-14-29-12-24-14-20-16-20 25-5 26-1 26 0 29 2"/>
<path d="M5279 2970l 0-1-2 29-7 33-10 33-8 26-12 29-12 32-13 34-16 36-15 35-14 36-14 35-13 34-13 32-12 30-9 26-13 29-11 25"/>
<path d="M5219 3055l 2-7 8-27 9-27 9-25 12-23 19-15 23-12 24-5 27-1 26 2 26 10 15 22 3 25-9 25-15 21-21 20-23 20-24 15-23 12-24 10"/>
<path d="M5549 2877l 0 0 25-9 27-2 23 6 7 23-18 22-19 21-18 16-19 18-21 18-20 16-18 19 7 23 24-1 30-5"/>
<path d="M5752 2939l-1-1 24-1 23-9 23-10 20-14-8-24-26-10-28 1-26 7-25 17-18 21-17 25-13 26-5 28 2 25 11 25 23 15 25 5 30-3 28-6 31-9"/>
<path d="M5902 3036l 0 0 24-11 23-12 23-13 27-16 28-19 20-15 18-16 17-18 16-18 21-28 20-28 17-29 13-31 10-33 6-24 6-25 5-25 5-24 4-24 5-32 1-24-27-4-19 20-21 29-14 22-14 26-16 29-13 29-15 34-14 34-12 35-13 37-11 38-9 40-10 39-6 39-6 37-6 36-4 35-3 34-3 32-1 28 0 25 1 33 3 26 9 27 25-10 13-28 9-28 5-31 4-35 1-25 1-26 1-26 0-24 0-33-2-24-4-27-8-24"/>
<path d="M6234 2895l-1-1-19 17-15 26-13 24-12 23-10 26-10 26"/>
<path d="M6265 2762l-1 0"/>
<path d="M6327 2832l 1 0 23-11 24-8 25 1 22 12 6 26-1 26-3 27 0 27 7 24 19 18 25 0 25-8 23-10"/>
<path d="M6550 2761l-2 0-24 2-20 16-21 23-16 17-18 19-20 21-20 21-20 24-21 25-19 25-20 23-18 22"/>
<path d="M6794 2944l-1-1 24-7 28-9 25-13 23-12 26-14 29-17 27-17 25-19 21-18 20-22 11-21 0-25-19 15 1 25 8 26 8 25 7 25 3 28-8 27-14 22-23 16-25 7-24 1 10-22 22-11 27-12 27-8 28-9 25-8 25-7 27-9 26-9 23-9 27-13 22-13 18-17 12-23-10-22-21 12-18 20-15 24-13 26-9 27-5 28 7 27 22 12 27-5 29-14 22-14 23-16 21-16 18-16 19-20 16-22 9-25-22 13-12 21-9 24-6 25 8 24 26-4 23-10 27-15 23-15 23-15 21-16 19-15 20-19 17-19-14 21-8 25-8 23 14 21 27-12 22-12 22-15 23-17 19-15 17-17-16 20-14 24-12 22-9 25 18 15 24-6 25-14 24-15 22-15 17 17 24 13 28-2 26-8 27-11 23-11 24-16 19-18 13-20-14 22 3 24 7 25 7 26-4 24-18 22-23 15-24 8-23-8-11-23 15-21 25 7 26 11 27 12"/>
<path d="M8103 2949l-1 1"/>
<path d="M2601 5857l 0-1 28-5 30 4 32 0 27-1 33-2 37-6 27-4 29-6 30-6 30-7 31-7 31-9 30-8 31-9 29-7 30-6 28-6 26-6 24-6 31-7 27-3 24-2 27-1 26-3 25 2 25 0 22 12 7 24 5 25 3 26 1 32 1 35 1 24 1 34 4 33 3 30 4 30 2 25 6 27 6 25 8 28 9 24-24-2-27-5-27-3-28-1-30 0-25 3-28 2-27 1-27 3-27 2-30-1-31 2-33 1-35 3-25 2-34 3-30 3-27 1-29 0-25 1-32 2-28 3-25 1-26 1-26 0-27-3-25 0-25 3-25 3"/>
<path d="M2808 5394l 1-2 12-25 17-20 24 11 7 24-2 26-6 25-11 27-14 25-14 24-15 22-13 21 9-22 15-25 17-28 18-31 13-20 16-30 16-22 15-20 19-18 21-14 25-1 10 25-2 28-3 24-4 26-6 25-8 23-7 27 22-19 16-21 15-23 16-22 16-22 18-25 14-21 16-20 4 24-5 24-5 26-4 29-4 29-3 28"/>
<path d="M3310 5319l-2-2-21-13-26-3-25 4-22 10-22 18-17 18-15 20-14 20-14 26-5 27 10 24 22 10 28-2 28-10 25-14 21-15 19-17 10-22-16-18-14 22-3 25 1 26 10 24 22 10"/>
<path d="M3375 5352l-1-2 13-21 24-11 25-1 18 18 2 25 6 25 9 25 15 22 21 20 23 14 25 3"/>
<path d="M3532 5305l-2 0-22 10-22 17-19 24-17 22-19 25-19 28-14 21-14 22-16 24"/>
<path d="M2641 6604l 1-1 25-7 26-6 24-5 26-4 29-6 25-2 29-1 26 0 28-1 31 2 31 1 35 0 25 2 29 0 31 1 32 0 32 1 32 2 32 1 34 1 36 2 37 0 39 2 40 1 40 1 41 2 44 0 43 1 45 2 45 0 45 1 47 1 44 1 46 2 25 1 46 2 47 1 24 0 24 1 25 1 48 0 24 0 25 1 25 1 25 0 25 0 25 0 25 0 24 2 26 0 25 1 27 0 26 0 25 0 27 0 26 0 27 1 26 0 27 0 27 1 27 0 26 0 27 1 27 0 26 2 27 0 26 1 27 0 26 0 26 1 27 1 25 1 27 0 24 0 27 1 25 1 25 1 26 0 25 1 25 1 25 1 25 1 24 1 25 1 47 2 47 2 46 2 44 1 44 3 44 2 41 3 43 2 40 2 40 1 39 1 37 1 35 2 34 1 33 2 30 2 29 1 26 2 35 2 30 2 28 2 24 3 26 3 26 0 9 22 1 27 0 27-2 25-2 30-5 28-5 30-7 30-8 29-7 29-8 26-8 31-5 25-1 28 1 24"/>
<path d="M2569 7011l-2 0 25 2 24 0 27-1 27-1 29 2 27 1 29 2 33 2 28 1 32-1 33-1 24-1 25 0 25-2 27-1 29-2 31-2 32-3 34-3 34-3 35-3 36-3 37-3 39-3 40-1 43-4 41-3 42-2 42-3 44 0 44-1 44-1 47-1 43-1 45-1 46 1 47 1 46 0 47-1 47-1 47 0 47 1 46 0 46 1 45 1 45 1 45 1 45 1 42 2 42 0 42 3 42 0 42 2 42 1 40 1 39 2 40 1 40 0 38 2 38 1 37 1 36 1 36 1 35 0 35 3 33 2 31 2 31 2 31 2 31 1 29 2 30 1 29 1 28 1 28 2 28 0 25 1 26 1 25 0 26-1 26 1 25 0 36 0 32 1 30 0 29-1 26 0 25 1 28-1 28-1 25 2 23-10 24-6 24-3 24 5 24 5 23 6 25 2"/>
<path d="M5873 6315l 0-2 4-25 14-22 18-21 19-15 21-14 22-12 24-3 4 27-7 26-8 23-11 26-13 27-13 26-13 23-13 21-15 25-14 22 13-23 13-23 16-25 15-28 16-28 18-28 16-25 16-21 18-23 17-19 19 17-2 26-5 29-9 29-5 27-8 25-12 22-13 20 21-20 18-16 20-22 20-27 21-26 23-23 23-20 21-20 18-18 21-18-7 27-13 20-13 22-11 24-8 25-5 24-5 26 0 26 12 21 26-6"/>
<path d="M6335 6227l-2 1-21 16-17 18-14 21-8 27-1 25 8 25"/>
<path d="M6358 6085l-2 0-21 14-7 25"/>
<path d="M6397 6208l-1 2-4 26-7 27-6 28-9 22-9 25-11 22 8-24 14-27 16-27 17-25 20-22 17-19 20-19 21-12 13 21-3 25-5 27-10 26-12 25-14 24-13 21-5 27"/>
<path d="M3582 7476l 0-1-6 24-2 28-1 27 1 24 3 25 6 24 14 24 18 18 25 11 28 0 26-3 28-10 29-14 26-13 31-14 28-16 30-13 27-13 28-10 30-8 29-5 29-5 26-4 31-2 29 2 27 7 25 6 26 9 24 15 22 16 20 16 18 17 18 20 17 19 24-5 5-23 11-23 14-20 16-20 21-16 20-13 28-8 26 0 26 0 31 3 37 4 26 1 28 3 29 3 30 4 31 4 33 3 35 3 35 4 34 3 37 3 36 5 38 3 39 5 41 5 40 5 41 5 42 4 42 5 42 2 44 1 42 1 42 1 40 0 42-2 40-3 39-3 40-6 34-6 33-6 32-8 29-8 27-11 24-11 22-13 29-21 25-22 21-25 17-23 13-24 8-24 7-30 2-28-1-26-12-22"/>
<path d="M3367 8300l-1-1-25-4-26 1-26 11-26 13-20 14-20 14-23 19-17 19 9 23 25 2 28 1 25-1 25-1 25-1 30-1 26-1 27 7 11 24-14 25-16 21-21 21-22 16-23 12-25 8-24 6-26 6-24-5"/>
<path d="M3520 8333l-2 1-5 23-2 25 2 30 5 26 11 25 20 14 22-11 17-21 14-26 12-26 7-24 5-24-4 27 3 28 6 25 9 24 22 12 25-8 16-17 15-23 13-25 9-25 8 24-2 27 0 27 21-16 11-24 11-24 15-26 14-20 16 20-1 28 0 26 17 17 21-17 20-22 18-23 14-22 21 15 5 27 13 23 25 11 25-2"/>
<path d="M4179 8252l-1-2-25-7-24 9-23 14-19 16 12 21 28-1 29 0 28 2 28 7 25 10 13 22-8 26-15 21-23 15-23 10-26 10-28-1"/>
<path d="M4765 8109l 0-3 6-24 11-22 12-21 15-20 23 14 6 28 3 30 0 35-1 27-2 26-3 28-2 25-2 28-2 27-3 26-3 25-6 34-5 27-7 24-10 24-2-26 8-24 10-27 13-30 13-27 14-24 15-25 17-22 24 4 9 24 3 25-2 28-2 28-2 28-3 27 4 26 18 18 25-7"/>
<path d="M5081 8283l 0 1 21 13 23-16 17-19-6-24-25 0-21 13-16 19-13 24-9 22-6 28-2 25 6 25 20 19 28 2 28-3 28-10 21-11 21-13 19-15 20-22 13-22 11-22 3-27 20-15 24-2 14 22-10 22-14 21-10 22-10 23-6 25 3 26 23 8 24-9 24-12 21-14 23-13 21-14 22-13 21-12 24-8 23-13 18-17 10-22-10-24-24-2-21 12-21 18-16 24-12 22-11 24-4 28 5 27 19 20 27 6 27 1 25-7 27-15"/>
<path d="M5637 8094l 0-1 27 1 24-1 25 6 13 21 0 26-5 26-10 25-10 23-12 25-12 27-10 26-10 27-9 25"/>
<path d="M5729 8440l 0 1"/>
<path d="M1887 10306l-2-1"/>
<path d="M2087 10451l 2 0 25-1 24-12 20-14 22-16 19-17 18-23 16-25 21-27 15-20 14-19 13-21 19-31 12-22 11-21 11-23 9-25 8-25 7-25 11-32 4-27 0-31-4-28-24-7-22 22-16 28-15 25-16 29-15 36-14 40-14 42-15 46-6 24-4 25-6 26-4 26-5 27-3 28-2 28-5 26-2 27-1 26-1 27 0 26 0 24 4 47 9 43 7 36 11 31 11 24 21 27 21 18 25 12 25-3 20-15 17-23 12-34 8-27 8-30 0-34 0-33-3-34-9-32-8-29-10-29-10-26-11-22-18-27-21-19-23-8-23 7 3 24"/>
<path d="M2471 10326l-2 0-25 8-22 14-19 19-12 21-5 28 1 25 11 24 18 18 25 5 25-7 25-17 15-19 13-21 5-23-9-24-23-11-24-1 26-3"/>
<path d="M2593 10302l 2 0 25 1 25 1 26 3 14 22-13 21-21 15-18 17-18 19-14 24-2 24 24 8 25 0 25-4"/>
<path d="M3241 10376l 1 0 22 13 24-1 26-10 22-12 21-13 23-18 19-18 0-24-25-12-25 2-26 10-24 13-22 16-17 23-9 24-5 27 3 26 12 22 24 14 26 6 26-2 30-4"/>
<path d="M3574 10333l-2 0-24-6-24 4-22 12-18 20-17 22-11 24 10 24 29 0 24-8 25-11 22-11 24-15 17-18-25 8 3 26 16 21 27 7"/>
<path d="M3820 10302l-1-2-20-14-24 0-22 18-19 20-19 21-13 21-10 23-5 26 7 25 18 20 28 3 30-4 25-9 27-14 28-17 27-19"/>
<path d="M3989 10014l-1 0-3 28-4 26 0 31 0 28-2 28-4 29-5 31-9 33-9 33-11 34-13 31-10 25-9 24 22-13 14-20 15-21 14-23 15-19 17-23 19-18 19-15 12 24-3 26-6 27-5 28-6 27 2 28 16 21"/>
<path d="M4576 10442l-1 0 27-8 22-11 28-18 23-16 26-17 24-19 23-20 17-19 15-23 8-26-6-24-11 25 1 27 11 29 10 25 10 27 12 23 5 26-10 24-23 15-27 9-25 2-26-1-24-6 24-5 25-9 26-11 23-10 26-13 29-18 32-18 20-14 22-15 21-16 19-15 20-17 18-18 18-17 23-27 21-30 12-22 12-22 10-22 9-22 12-33 9-31 8-26 9-24-26 15-12 24-14 34-10 23-11 27-12 26-14 28-11 29-13 30-12 28-11 28-11 29-9 27-7 25-5 32 1 27 7 23 25 15 28-3 26-13 20-15 21-19 16-19 14-25 3-28-9-23-20-24-19-17-22-14-22-12-23-8-24-8-28-5-25-1 28 12 31 2 36-1 26-1 26-1 28-2 30-2 29-2 31-2 30 0"/>
<path d="M5424 10260l-3 0-24-3-25 1-26 3-27 5-26 8-23 10-20 14-19 20-11 22-6 25 12 22 25 9 29 0 30-6 31-11 27-14 23-14 18-18-17 17 12 22 25 6 25-4 25-6 27-8"/>
<path d="M5589 10273l-1-2 22-10 26 2 23 8-1 24-20 20-19 16-20 15-21 18-20 16-18 16-15 19 5 23 30-6 24-12 28-17 21-13 22-12 24-15 27-16 28-17 29-18 28-18 29-19 27-19 25-19 23-22 22-20 20-22 20-23 18-22 15-24 13-23 15-30 11-24 6-24-26 0-22 20-18 24-12 22-14 27-15 29-15 31-11 22-11 23-12 24-12 25-14 24-13 26-12 25-10 22-9 24-9 30-4 25 3 27 21 15 26-8 26-16 21-14 21-19 20-21 16-19 11-25-2-27-13-26-20-22-23-18-22-11-25-5 26-6 24-6 26-7 32-7 36-5 26-3"/>
<path d="M6533 10383l-1 1-22 10 15 20 28-11 27-16 25-16 27-19 30-21 19-15 19-15 25-20 22-21 20-22 20-24 14-20 14-22-17 24-11 29-11 27-14 35-11 26-14 28-15 31-16 32-16 34-16 34-17 32-16 34-16 31-14 33-14 31-12 29-10 27-14 32-11 23-12 21 9-25 12-30 11-23 11-28 14-31 12-34 13-37 14-36 13-36 14-34 13-34 12-31 11-28 10-24 14-32 11-27 13-27 14-25 19-18 25-14 23-6 29-6 27 1 24 8 25 12 16 20 0 27-15 25-22 20-20 15-21 15-22 15-22 13-25 16-21 15 25-9"/>
<path d="M7039 10250l 0-1-20 15-19 22-11 24-1 25 16 19 26 4 25-4 23-13 23-18 18-21 12-22 3-25-11-21-18-16-26-7 27 6 25-4 27-5 29-6 24-5 30-6 25-5 26-5-14 23-13 23-13 25-13 26-11 25-6 26 15 19 28-12 27-19"/>
<path d="M7344 10042l-1-1-11 24"/>
<path d="M7397 10183l 0 1-7 26-2 25-7 27-11 23-10 22 21-11 19-17 21-18 21-17 18-18 21-19 22-13 14 20-3 25-5 27-2 24 20 15 26-7 24-11 24-14 26-17 25-19 24-21 19-25 14-20 14-25 16-29 10-22 12-22 11-23 10-22 15-27 9-23 9-23 5-26-26 3-18 18-19 25-15 22-15 31-10 22-12 25-11 27-11 26-9 25-7 25-7 33-2 29 0 29 4 26 12 22 25 9 26-10 20-18 19-23 10-22 2-26-7-26-15-27-19-24-22-18-24-13-24-11 20-15 26 0 27-1 29 0 28 5 28 5 29 5 26 5"/>
<path d="M7994 10105l 0-1"/>
<path d="M7985 10204l 0 0"/>
<path d="M2988 11375l 0-1"/>
<path d="M7891 10319l 0-1-17 23-16 19-19 20-21 22"/>
<path d="M8132 9971l 0-1 8 27 3 25-1 29-3 28-4 25-5 27-8 30-7 29-7 26-6 24-6 26-6 24 0 26 27-3 25-10 26-16 22-13 23-14"/>
<path d="M8080 10139l-2 0 27-3 30-10 30-8 32-9 24-6 24-7 24-7"/>
<path d="M8342 10107l-1 0 24-8 28-3 27-2 24 1 26 4 0 26-17 19-17 17-21 19-21 20-20 20-16 21-8 24 25 14 25-1"/>
<path d="M8653 10177l-1-2-17-18-24-11-24 0-24 8-24 13-22 20-15 19-13 21 8 23 26 9 28-6 26-6 24-12 16-19-7 25 9 24 24 6"/>
<path d="M8859 10120l-2-1-23-7-23 11-20 14-21 19-21 20-15 20-8 24 14 20 24 8 25 2 30-2 24-2 24-4 25-5 28-9"/>
<path d="M9018 9915l 0-1 2 24 1 30 0 27-2 29-3 24-5 26-5 25-7 24-11 25-12 24-16 19-10-24 16-26 17-24 21-24 18-19 17-17 21-16 22-15 23-5 1 26-16 19-24 16-20 14-20 13-19 17-2 24 15 21 21 14 27 10 28 3 25 1 29 4"/>
<path d="M3208 11313l 0 0 24-8 26-12 21-13 26-16 21-12 25-14 18-18-9-24-27 0-27 6-27 10-22 15-17 18-19 23-15 26-7 28-5 27-3 27 3 29 6 25 18 17 27 4 27-9 22-12 23-11 27-16 26-18 24-22 20-19 17-18 18-21 13-20-10 24-6 27-9 25-8 25 29-3 15-23 18-25 20-24 15-19 19-19 17 18 2 24 5 26 6 25 18 17 27 3 27-2"/>
<path d="M3840 11294l 0-2-8-22-22-13-25-5-28 6-26 13-21 13-21 21-17 22-15 25-11 24-2 25 14 21 26 3 26-7 24-13 26-20 27-25 20-18 19-21 19-22 17-23 16-24 15-22 11-24 12-33 6-35 4-33 0-26 3-33-1-32-3-27-4-29-7-23-23 15-14 27-11 24-10 31-9 33-6 26-6 28-6 27-6 26-5 27-6 36-3 25-5 33-1 31 2 28 9 29 13 21 23 19 27 6"/>
<path d="M4483 11337l 0 0-2 27-7 25-8 24-8 30-11 33-8 25-9 27-11 28-9 31-10 30-10 28-9 28-11 21-13 32-12 25-10 28-8 23 17-29"/>
<path d="M4416 11439l 1-5 1-25 4-25 6-24 17-20 25-17 22-13 23-11 23-9 23-7 25-3 26 1 22 11 10 25-8 29-18 23-22 24-17 19-20 19-22 19-23 19-21 14-22 11"/>
<path d="M4720 11356l-2 1-24 15-19 20-12 22-2 27 14 21 23 8 27-3 27-8 23-14 20-14 19-19 8-25-11-23-18-17-25-6 27 3 23-7 26-7 24-7 28-9 27-9 26-8 16 18-12 24-13 25-9 24-9 26 2 25 25 6 21-15"/>
<path d="M5050 11154l-2 1-21 16-11 23"/>
<path d="M5060 11314l 0 1-10 22-8 23 24-15 17-17 19-16 17-18 17-17 21-15 14 20 0 27 1 25 1 25 23 10 24-7"/>
<path d="M5405 11069l-1-2-18-16-17 23-8 25-13 30-10 26-8 30-7 31-7 31-6 33-5 31-4 28-2 28-1 26 3 27 9 24 26 8 24-9 21-13 20-17 19-18 19-25"/>
<path d="M5287 11201l-3-1-24 0 25-5 29-6 25-4 25-4 27-5 25-4 25-3 29-4"/>
<path d="M2914 12165l-2-1"/>
<path d="M3027 12306l 0-1 28-7 23-13 21-14 21-17 21-18 20-19 20-25 14-24 9-27 3-24 0-26 0-27 12-21 24-4 25 3 25 5 24 10 18 16 8 24-11 22-17 21-17 18-17 17-19 15-18 18-16 18-7 24 23 14 24-4 27-9"/>
<path d="M3431 12165l 0-1 20-13 24-9 23-13 22-12-21-13-28 6-28 9-24 11-21 14-19 16-9 24 3 26 21 19 29 3 31-6 25-7 28-12 29-13 31-15 27-15 26-15 25-20 18-21 9-24 1-25-7-27-25 8-4 25 7 25 11 23 15 25 15 22 13 22 12 23-8 24-19 18-26 4-26 0-24-5-25-8 28-9 31 0 26-7 28-7 25-8 25-10 25-12 23-11 22-14 26-19 19-18 15-22 5-24-24 2-16 21-12 21-10 25-6 24 1 25 22 12 25-6 23-11 21-16 19-16 18-21 0 26 10 25 25 7 26-10 24-14 20-18 16-19 19-21 17-23 14-23 14-26 14-23 12-25 8-26 5-25 1-28 2-28-1-27-4-26-11-22-25 3-14 22-13 25-11 24-8 29-8 31-8 35-5 24-3 28-3 25-2 26-1 35 1 31 5 28 8 29 14 25 26 13 30-3 26-6"/>
<path d="M4356 11864l-1 0-13 20-11 28-10 25-9 22-8 26-9 30-9 35-5 23-8 34-8 33-7 30-2 29-1 30 6 25 14 21 25 6 26-10"/>
<path d="M4170 12088l-1 1 31-5 26-5 33-5 34-5 25-3 25-4 25-3 24-2 24-2"/>
<path d="M4899 12131l 0 0 12 21 24-13 24-17 20-19 24-20 23-19 24-25 23-25 24-24 19-22 17-24 12-21 4-25-15 25-1 29 4 27 10 26 13 23 13 24 10 24-8 22-25 10-27 6-26-1 19-16 24-1 29-3 28-9 29-13 22-11 22-13 21-14 22-20 14-20 12-26 2-25-3-25-22 18-11 23-11 25-9 28-5 28-1 25 3 28 12 24 23 10 25-8 23-16 19-21 18-25 16-22 12-21 9-25 4-24-14 22-11 26-5 26 0 27 12 21 26-6 21-14 22-19 20-21 18-20 18-23 12-22-15 22-14 23-10 25-7 25 3 24 27-7 19-18 22-19 19-16 17-17 15-19 16-19-4 27-4 27 4 26 16 21 18 17 21 13"/>
<path d="M5812 12114l 0-1"/>
<path d="M5638 12087l 1-3 5-24 11-25 15-24 16-20 18-19 18-20 21-18 20-18 18-17 12 23-1 24 0 29 2 28 5 27 4 24 8 26 8 25"/>
<path d="M4878 13755l 0-2 3-25 4 28 1 31-1 29-2 32-3 39-3 43-4 47-3 26-3 26-3 27-3 28-3 28-3 29-4 28-3 28-2 28-2 29-2 28-3 29-1 28-1 29-1 28 0 29 0 27-1 27 0 27-1 27 0 25-1 25 0 25 0 46-1 46 0 40 2 40 1 37 1 33 0 33 0 27 0 26 3 32 1 27-8-26-6-26-6-25"/>
<path d="M4698 15365l-1-2-8-23-25 0-23 18-18 18-17 23-15 22-13 24-12 21-10 27-3 27 6 25 17 20 25 1 28-9 25-12 26-16"/>
<path d="M4817 15200l-1 0-4 28 0 24-3 31-3 32-2 24-3 25-3 28-5 28-6 29-5 24-9 25-6 25 20-22 13-21 12-21 17-25 16-22 14-20 17-20 24 6 0 29-2 29-3 25-4 28-4 28 0 25 10 24"/>
<path d="M1819 14631l-1 0-26 1-6 23 22 9 22-13-22-15-8 24"/>
<path d="M2799 13586l 0-2 25 4 17 18 19 16 18 19-8 24-20 17-25 12-22 12-22 12"/>
<path d="M1812 14660l-1 0-12-22-1-25 6-25 6-24 11-26 12-27 9-28 11-28 15-27 14-26 11-26 14-28 14-21 13-23 14-23 15-22 16-25 16-27 15-26 18-22 17-22 18-23 16-21 17-20 17-20 17-22 18-23 19-24 19-22 18-20 21-20 23-20 21-21 21-22 17-19 19-17 20-15 25-18 26-16 27-14 23-10 25-8 28-10 25-12 27-9 24-8 25-8 25-6 26-5 25-5 23-7 26-4 24-9 25-6"/>
<path d="M2743 13604l 0-1 17-16 26 6 23 11 22 10 0 24-19 18-19 21-16 19-15 20-18 24"/>
<path d="M2144 14611l 0 0-10-25 7-26 11-28 9-25 9-29 11-31 13-31 11-22 11-22 11-24 12-23 13-23 13-23 15-22 14-22 14-23 14-21 13-24 15-23 17-24 16-23 19-22 15-24 18-21 17-21 17-23 17-20 18-22 17-21 17-19 16-18 22-23 21-24 20-19 15-21 16-20 22-20 19-17 18-19 19-19 22-17 22-13 22-11 23-9-25 11"/>
<path d="M2727 13679l-2-1 18-18 23-13 25-9 24-11 23-6 9 25-11 22-15 26-13 23-13 22-10 23-7 26-7 28-4 29"/>
<path d="M2398 14591l 0-1-4-26 8-23 7-23 8-25 9-22 9-25 10-27 11-28 13-30 10-22 11-24 13-25 12-28 13-27 12-27 13-27 13-22 13-25 14-22 12-23 11-24 15-30 15-28 17-27 14-26 14-23 14-22 14-20 18-22 18-20 17-19-5 25"/>
<path d="M2702 13847l 0-1 9-22 23-13 24-9 24-10 9 24-12 26-13 25-12 22-13 25-9 24-6 26"/>
<path d="M2535 14541l-1-2-3-25 6-24 9-25 9-25 10-23 13-25 15-28 11-22 10-23 10-26 10-27 11-28 11-28 12-28 12-28 15-24 13-22 13-24 15-25 17-21 19-17 21-12"/>
<path d="M2746 14010l 0 0 20-19 22-15 21-14-4 25-11 23-9 23-13 24-11 24-7 26"/>
<path d="M2934 14544l 0 1-3-24 14-22 15-22 15-22 17-18 21-18 19-14 20-19 19-15 24-18 22-16 22-17 21-14 20-13 23-15 22-16 24-12 27-10 25-10 27-11 23-9 23-8 24-9 25-7 25-5 26-4 25-2 27-1 25 4"/>
<path d="M3526 14149l-1-1 27 5 22 11 24 5 20 13-16 19-24 12-25 13-21 14-21 13-17 18"/>
<path d="M3208 14503l 0 0 8-26 20-20 19-20 17-17 20-18 24-16 25-16 21-13 23-15 26-13 21-13 26-11 23-9 26-7 24-6"/>
<path d="M3505 14285l-2-1 25-12 25-7 25 3-17 19-21 16-18 19-13 21"/>
<path d="M3405 14499l 0-1 8-23 14-20 18-20 18-18 20-19 22-16 23-9 19 14"/>
<path d="M3523 14360l 0 1 24 7-4 25-10 23"/>
<path d="M5126 14564l 0 0"/>
<path d="M5134 14530l 0-2 5-25 9-27 12-27 10-23 14-26 17-29 12-22 13-24 14-28 15-27 16-29 15-32 16-29 15-31 14-30 14-28 13-31 13-31 14-32 15-31 15-32 16-33 16-34 17-35 19-35 19-36 10-22 18-38 21-35 21-35 23-33 25-35 28-40 13-22 15-21 15-21 16-23 16-25 17-23 17-24 15-22 17-23 16-24 16-21 17-20 14-21 14-20 16-20 15-20 15-19 31-37 15-21 17-19 16-19 16-20 15-19 16-19 16-20 33-34 33-34 34-33 35-28 17-18 19-15 36-31 36-29 19-19 37-28 38-28 37-25 36-24 34-22 31-21 29-19 26-19 25-16 22-16 28-19 24-15 23-16 21-12-26 3"/>
<path d="M6615 12443l 1-2 17-17 23-8 23-7 26-8 25-5 26 1-1 26-15 22-15 25-16 25-12 27-12 25-11 27-9 27"/>
<path d="M5396 14589l-1 0 8-25 7-26 9-23 10-27 8-25 10-25 10-27 8-27 11-30 12-32 9-23 10-24 12-26 11-27 12-29 13-33 14-30 15-33 16-34 16-32 18-38 19-37 19-38 19-37 19-39 22-38 22-39 12-21 25-42 13-21 13-21 14-22 13-21 13-24 14-23 14-23 14-22 14-23 15-22 15-22 14-21 14-21 14-20 28-39 27-37 26-36 25-34 26-33 27-31 24-28 25-29 23-28 24-28 24-30 22-26 22-26 20-24 19-22 20-22 19-20 20-20 17-19 17-18 22-24 21-23 18-20 19-21 19-22 16-19 17-17 16-19-25-2-24-5 19-16 24-9 24-7 18 15-11 23-11 28-10 25-14 25-14 26-11 24-13 25"/>
<path d="M5882 14530l-1 2-7-25 5-26 6-30 5-26 6-24 7-26 7-29 10-33 7-24 8-25 8-26 8-28 9-31 8-31 9-35 10-35 10-39 11-40 11-39 11-46 14-46 7-23 8-23 8-25 8-24 10-24 9-23 9-23 9-23 9-23 10-22 21-42 17-40 17-39 16-37 15-34 14-30 15-29 14-27 14-27 14-28 14-29 17-28 15-31 16-29 17-28 16-29 19-28 18-27 16-29 18-23 15-22 20-23 19-24 19-21 16-18 18-18-12 23"/>
<path d="M6496 12940l-2 0-24-2 20-17 23-17 20-14 21-14 10 24-1 24-4 25-4 25"/>
<path d="M6871 14592l 0 0-2-24 10-24 15-23 15-22 14-22 15-24 19-25 17-21 20-24 16-18 17-21 17-19 21-20 22-21 23-19 25-21 26-21 27-19 26-19 27-21 28-19 28-20 26-18 30-18 31-18 31-18 32-18 31-19 31-19 33-17 33-18 34-17 35-16 34-14 35-14 34-13 34-11 33-12 33-13 31-12 31-11 31-12 28-10 28-10 27-9 26-9 26-8 24-7 26-7 26-6 27-5 28-6 28-6 28-5 29-5 28-1 30-6 29-4 29-4 29-7 27-3 26-3 26-2 25-2 33-3 29-3 24-3 26-1 25-2 25 0"/>
<path d="M8628 13630l 1-2 21-13 26-2 26 4 24 8 22 12-17 22-19 17-26 15-20 14-22 16-23 17"/>
<path d="M7282 14609l 0-1 14-21 18-19 20-19 22-16 18-17 22-17 19-15 23-17 18-16 21-19 22-16 25-17 25-14 25-14 26-12 24-13 22-11 22-15 22-13 23-15 23-14 26-16 27-17 29-18 33-19 24-15 27-16 26-16 28-16 28-15 28-15 29-15 29-14 28-12 29-13 28-11 28-12 27-11 26-12 25-10 25-12 25-11 25-8 27-12 26-10 25-10 23-9 32-12 29-10 27-9 26-9 23-5 28-9 24-7 27-7 28-6 24-4 24-5 25-4"/>
<path d="M8655 13801l 0 0 24-9 25 1 23 10-12 23-18 16-22 17-21 15-19 16-22 18-21 17-16 20"/>
<path d="M8022 14535l-2 0-12-21 16-22 14-21 14-20 17-22 20-24 23-24 17-19 17-21 19-23 20-24 20-23 21-22 21-22 20-21 19-19 19-22 28-23 19-17 27-22 29-21 24-19 25-20 25-18 26-22 28-20 26-16 25-17 24-13 22-16 21-12 22-10 23-10 20-16"/>
<path d="M8606 13870l 0-1 14-22 25-10 24-3 24-11 24-8 24-9-6 27-18 22-16 19-16 22-14 22-15 22-13 27-10 26"/>
<path d="M8379 14462l-1 1-3-25 9-28 10-25 11-26 10-23 10-25 12-22 12-25 15-25 15-25 14-24 14-23 14-21 15-20 19-24 19-23 20-24 19-22 17-23 19-18 19-18 19-18"/>
<path d="M8628 13953l 1-1 22-13 23-13 21-12 22-12 24-7 4 26-16 23-9 23-12 25-12 22-11 24"/>
<path d="M9065 14595l 0-1 2-25 13-21 21-20 17-16 21-16 23-13 24-15 25-16 27-14 23-10 24-7 27-6 29-6 29-6 27-4 28-3 24-1 28-4 28-3 25 0"/>
<path d="M9447 14341l 0-1 24 9 24 6 28 3 26 4 24 6-9 24-22 12-25 11-21 12-19 15"/>
<path d="M9437 14579l-1-1 15-22 20-14 24-10 24-11 25-3"/>
<path d="M9521 14494l-1 0 23-8 25 5-13 21-21 13-15 20"/>
<path d="M9496 14601l 0 0 11-22 17-18 15-20 20-14 23 5"/>
<path d="M9562 14498l-1 0 9 23"/>
<path d="M10945 12353l-1 0-8 26-4 30-2 29-2 31 0 25 0 27 0 30 0 27 0 27 1 27 0 29 0 28 1 28 0 27 1 25 0 26 0 28 1 26 3 24"/>
<path d="M10845 12766l 0 1 8 26 10 25 13 23 16 23 16 25 16 23 17 19 27 5 21-15 14-22 14-29 11-30 5-28 0-27-2-25-4-26-15-21"/>
<path d="M11194 12584l-1 2"/>
<path d="M11217 12652l-2-1"/>
<path d="M11722 12777l 2-3 9-23 4-26-13-20-28-7-25 0-25 12-22 19-19 23-16 22-11 23-5 26 18 17 25-1 29-10 24-14 17-18-6 25 19 16 25-3 22-15 23-17 18-16"/>
<path d="M11971 12449l 0-2-20-13-19 16-14 22-11 27-10 27-12 32-9 25-8 27-9 31-9 30-10 32-9 33-8 31-6 33-4 33-2 32-1 31-1 28 1 26 3 34 6 30 7 26 9 24 16 20 25-1 12-23 7-27 3-24-1-26-3-27-6-27-8-29-10-28-10-22-15-22-21-15 15-19 0-25 22-10 23-11 18-16"/>
<path d="M12048 12549l 2-4 11-23 10-25 13-24 12-22-9 25-8 24-10 25-10 26-11 27-12 31-13 32-8 23-10 32-9 29-5 27-3 28 6 27 21 14 25-14 21-18 20-23 18-25 13-25 1-27-13-22-19-16-26-14-24-8-25-4-26-2-24 6 18 18 31-2 30-7 26-6 25-5 23-5 28-3"/>
<path d="M12157 12634l-2 1-21 12 25 7 24-6 26-7-12-22-27 5-25 10-22 17-18 22-12 23 0 24 23 14 27 5 25-2 25-5 28-8 28-8 83-101 23-11 24 3 24 4-12 23-24 14-21 12-22 16-14 22-8 26 3 25 16 19 26 6 25 2"/>
<path d="M12552 12597l 0-1 29 0 24-2 27-5 30-5 23-5 32-7 26-8 25-6 23-6 28-7"/>
<path d="M12758 12500l 0 0 25-6 27-1 25 1 28 4 26 6 27 4 28 6 24 8-12 24-21 14-22 15-25 14-23 12-22 16-19 19"/>
<path d="M13070 12699l 0 0 25-10 24-11 25-13 26-18 30-18 30-21 21-15 21-16 18-16 17-17 22-27 17-29 15-28 12-28 8-27 5-23 2-28-28 7-18 21-20 30-16 23-13 28-14 28-11 29-11 31-11 31-11 31-10 30-8 30-5 28-3 25 3 35 4 27 9 29 20 20 23 8 24-7 21-16 20-23 14-27 8-25 3-25-3-25-9-27-10-23-12-21 27 12 27 5 24 5"/>
<path d="M13448 12666l-2-1 25-9 26-8 27-11 22-13 2-25-26-8-23 5-21 15-19 22-16 26-10 27-7 31 0 25 5 27 19 19 23 9 30 1 25-8 28-8 25-12 27-15 28-18 28-16 28-21 27-22 24-26 14-19 11-22 13-20 12-24 12-25 11-25 9-24 11-29 8-24 5-26-1-24-14-20-25 9-20 18-17 21-17 27-12 21-16 25-13 27-15 31-12 30-13 34-12 36-13 36-13 39-8 37-7 35-5 33-4 31-2 28-1 27 2 24 3 31 6 27 7 23 13 24 23 13 27-4 22-15 19-21 12-22 6-25 3-28-5-29-4-31-7-29-12-22-15-20-22-19-25-15 28-7 27-5 26-6 25-8 23-9 22-9 21-13 21-15 22-17-22-11-24 11-22 15-19 18-10 24 4 26 18 18 25 7 28-7 22-13 18-20 3-26-8-22-19-17 25 5 25 0 24-6 26-5 22-11-8 23-14 21-3 24 24 13 26-4 27-5 24-5 26-6 26-7 24-6 16-20 10-22-7-23-25 1-24 13-17 17-10 25-4 25 10 22 19 17 27 7 29-3 29-7"/>
<path d="M14368 12447l-1 0 25-2 30 4 28 4 24 6 28 8 24 13 13 23 1 25-14 26-16 26-19 26-20 24-16 18-19 26-14 23"/>
<path d="M14449 12856l 0 1 21 13"/>
<path d="M10960 14050l-1-2-12-21-4-25 0-28 0-32 0-24 0-29 0-35 0-29 0-28 1-32 1-32 2-32 2-31 3-27 3-33 3-25 0-28-3-24-24 19-15 20-17 22-18 20-19 22-16 19 25-22 21-23 20-23 17-17 17-19 18-17 20 15 21 19 22 12 20 17"/>
<path d="M11160 13636l 0 0"/>
<path d="M11189 13709l 0-1"/>
<path d="M11416 13920l 0 0 23-15 25-15 23-18 22-16 23-22 24-22 16-20 18-18 18-20 17-20 17-21 16-22 14-22 14-25 10-22 12-33 6-28 6-27 4-24-3-28-12-22-24 10-18 26-16 29-12 24-14 25-13 31-12 29-11 31-10 30-8 28-8 30-5 27-3 26 0 25 6 27 11 23 15 22 21 18 27 1 19-22 7-25 0-24-2-28-2-24-7-25"/>
<path d="M11734 13769l 2-1 21-13 25-11 24-13 23-12 22-16 0-25-24-3-26 2-25 8-20 17-17 19-12 21 3 25 15 23 24 15 27 4 27 1 30-5 25-7 24-12 27-12 25-14 24-14 23-18 20-21 20-24 16-25 13-31 12-32 8-23 9-31 8-29 3-28-5-24-7-23-25-4-16 18-13 25-11 25-11 30-8 29-10 29-11 35-8 25-6 26-7 28-6 27-6 28-6 31-6 31-4 32-4 30-4 28-1 26 0 25 2 34 3 29 3 27 3 25 4 24 7 23 26-6 20-20 15-21 12-24 8-28 3-25 1-33-2-30-5-25-9-25-11-28-19-23-20-16-22-12-23-6 26 5 25-2 27-2"/>
<path d="M12182 13726l-1-1-25-7-21 12-12 25-8 26 5 27 16 18 24 4 23-10 19-18 14-21 6-27-12-24-23-15-26-1 28 2 25-4 24 0 25-8 24-8 20-15 20 15-8 25-14 22-16 22-7 23 21 13 25-3 24-6 27-8 22-10 22-12 22-9 22-13 21-12 18-17-11-23-24-5-24 8-22 12-19 18-13 23-5 26 10 25 20 14 24 6 28 1 28-4"/>
<path d="M12733 13601l-1 0 28 1 28-1 28-3 29-5 31-3 29-5"/>
<path d="M12871 13516l 0-1 23 12 23 5 28 5 24 6 26 6 23 9-20 16-27 13-25 13-23 14-20 15"/>
<path d="M13214 13637l-1-2-12-23-26-6-22 11-22 15-18 19-12 24 8 23 25 7 26-2 24-6 22-10 27 2 30-4 30-12 27-12 28-15 27-16 26-18 25-20 20-20 16-22 13-22 9-25 7-25 7-27 5-24 3-24-16-18-22 11-19 15-21 22-19 31-14 28-14 28-16 33-16 34-17 36-17 39-15 39-13 39-12 39-7 36-3 35 1 30 3 26 6 23 10 32 12 27 12 20 19 19 25-11 13-21 9-22 4-27 1-28 0-30-3-33-5-30-7-30-5-23-9-26-15-20 22-16 30-12 26-12"/>
<path d="M13641 13465l 2-5 6-25-6 23-7 26-8 26-9 31-8 22-7 25-9 32-9 30-6 29-4 26-2 28 3 27 15 21 26-2 24-10 24-18 16-18"/>
<path d="M13557 13584l-3 0-24 9 20 14 31 5 31 2 25 0 26 0 27 0"/>
<path d="M13797 13613l-1 0 27-1 24-9 18-16-19-18-27-1-26 6-22 12-21 16-22 21-12 23 1 26 16 19 19 15 23 9 24 1 25-5 28-6 22-10"/>
<path d="M13942 13636l 0-2 7-23 23-8 24-6 0 25-17 19-14 21-6 26 10 24 21 13 25-4"/>
<path d="M14220 13439l 0-1 26 4 26 9 21 17 21 17 11 24-4 27-15 26-18 19-18 22-20 21-20 21-16 24"/>
<path d="M14208 13757l 0 2 17 18"/>
<path d="M4886 13695l 0-1-24-4-27 3-25 0-26-1-25 4-27-1-27-2-25-1-24-2-15 21-7 26-8 25-2 24-5 25-6 25-5 29-5 28-4 28-3 25-2 28-3 29-2 26-4 24-3 26-1 29-5 29-1 26-3 26-2 26-1 31-2 28 2 29 2 29-2 28 0 29 1 24-2 24-1 28-1 27 0 27-2 27-1 26 2 27 4 26 0 27 3 25-1 27-2 24 2 27 0 24 1 26-1 26 4 24 1 27 3 26 0 25 2 25-3 25 1 25 2 26 3 25"/>
<path d="M1310 16554l-2-2 4 26 3 28 1 27 1 32 0 34 1 36 1 25 1 26 1 27 0 27 1 28 1 28 1 27 0 26 0 34-3 31 1 26 3 27 2 25"/>
<path d="M1209 16933l 0 0-7 23 5 25 9 22 10 22 11 25 13 25 14 22 13 25 15 22 18 16 26 4 22-14 16-21 17-26 10-23 11-24 5-25 10-28 8-24 7-25 1-24"/>
<path d="M1589 16783l-2-2"/>
<path d="M1621 16842l-2 0"/>
<path d="M2007 17111l 0-2 23-15 21-13 26-14 27-13 24-13 21-19 18-17 19-19 23-26 16-19 17-22 14-25 16-26 17-27 15-28 16-29 15-30 13-33 13-33 11-31 8-27 8-25 5-33 3-31 1-29-8-24-25 0-23 24-17 24-19 30-15 32-10 26-11 29-8 32-8 34-8 37-3 38-3 39-2 38 3 37 1 36 5 30 6 26 9 22 16 23 14 22 16 18 23 15 25 3 23-6 24-7 25-14"/>
<path d="M2543 16879l-2-2-23-11-24 6-20 20-15 24-14 24-9 23 0 26 27-1 22-12 18-19 12 26 15 19 24 0 24-6 18-17 17-20 13-24 11-23 6-28-4-24-13-21-19 17 11 21 15 20 20 18 20 16 19 18 19 15-18 19-24 6-25 0-26 1 23 14 26 2 26-7 27-11"/>
<path d="M2854 16626l-1 1-10 22-5 24-4 25-3 29-2 30-2 24-3 31-1 25-4 29-1 30 2 25 5 24 12 22 22 10 25-1 25-12"/>
<path d="M2753 16815l-3 1-25 5 25 4 28-5 24-5 27-6 29-7 28-8 25-7 25-7"/>
<path d="M3305 16993l 1 1 26 4 22-14 21-18 25-22 18-18 18-21 18-22 18-23 19-24 18-24 17-25 15-25 14-24 11-24 12-32 6-28 1-31-7-29-23-8-21 20-17 26-14 30-9 23-9 25-8 28-5 25-4 24-2 25 0 33 1 35 3 26 5 33 10 29 13 21 20 19 23 12 28-4 20-17 10-23 4-28-5-25-13-24-16-27-20-24-17-19 15 21"/>
<path d="M3683 16837l 0 0 25-2 26-3 24-6 22-12-17-20-24-5-26-1-25 5-18 19-13 25-8 23-4 29 2 24 11 22 18 16 24 7 24 2 26-6 28-12 22-10"/>
<path d="M3856 16904l 0 0 2 24 24 9 25-14 24-15 20-17 22-20 23-21 22-20 18-23 15-22 11-26 8-25 3-27 1-26-3-25-4-28-9-26-26-4-19 22-15 22-16 25-9 22-10 24-9 27-9 30-6 31-7 34-6 36-6 35-6 34-3 34-2 30 0 28 2 27 3 24 3 33 7 25 12 25 15 21 26-7 17-25 10-31 5-26 2-27-2-27-8-24-13-30-13-22-19-16-24-6 25-6"/>
<path d="M4130 16842l-1 0-26 1-21 13-18 19-10 22-2 25 9 25 14 21 23 12 26-2 19-18 2-25-7-25-15-20"/>
<path d="M4226 16852l 1-1 26-3 25 8 24 6-2 26-19 17-18 18-12 23 9 24 24 12 24 2 26-6 24-9 22-16 17-16 21-12 25-5 24-12 23-14-3-25-22-15-23-10-24 0-22 16-13 24-10 26-1 28 8 25 13 22 29 9 28-1 25-7 24-9"/>
<path d="M4742 16729l-1-1"/>
<path d="M4723 16811l-2-1"/>
<path d="M5136 16731l 0 0 23 7 9 26 2 25-2 28-3 28-6 29-4 30-8 28-10 25-6-30 7-28 10-27 9-23 12-26 10-25 14-25 14-23 13-21 16-20 20-16 22 10 3 24-3 24-4 32-5 25-7 25-6 27-6 28-4 26 10 24"/>
<path d="M5367 16858l-1 0 24-8 27-11 23-9 25-11 16-18-6-25-20-16-27-3-24 7-21 18-18 24-15 25-8 29 2 25 7 26 14 20 21 18 25 7 27 1 28-4 25-9"/>
<path d="M5581 16776l 0-1 23 9 18 21 11 22 9 25 11 22 14 21 19 17 22 15 25 2"/>
<path d="M5722 16781l-2-1-24 6-22 15-17 19-15 25-15 21-19 22-16 23-13 20"/>
<path d="M5908 16555l-1 0 2 27 2 28 2 27 0 29-3 26-4 26-5 26-7 25-8 27-9 30-8 30-6 27-2 27 2 24 9 23 25 13 29 0 30-11 22-9 21-13"/>
<path d="M5802 16777l-2-1 27-7 28-9 32-6 25-2 26-6 25-7 32-5 28-3"/>
<path d="M6106 16967l 1-2 22 17 10 23-7 24-12 21-16 25-16 21-17 17"/>
<path d="M6409 16805l 0-1-7 25-8 29-5 23-11 27-11 24 20-23 18-26 17-23 17-19 22-21 19-18 22-16 24-11 22 11-1 24-3 29-4 24-4 25-3 25-1 25 6 23 26 9 28-10"/>
<path d="M6699 16851l 0 0 23-11 24-9 23-13 19-15-19-18-28-4-27 3-24 9-21 16-16 24-12 27-4 27 1 28 12 26 19 18 26 11 28 1 24-3 26-7 27-11"/>
<path d="M6913 16765l-2-1 16 18 22 19 19 21 21 19 19 17 21 12 25 10 25-2"/>
<path d="M7018 16789l-2 0-26 14-24 18-19 14-19 15-18 18-18 19-19 22-17 22"/>
<path d="M7210 16575l 0 0-14 23-6 25-4 24-6 28-8 30-10 34-8 34-8 33-7 34-4 31-1 27 4 25 8 26 15 22 23 11 28-6 25-12"/>
<path d="M7106 16773l-2 0 29-1 30 3 27 3 27 7 24 5"/>
<path d="M7336 16991l 0 1-11 22-13 20-18 19-22 21"/>
<path d="M7729 16998l-1-2 25 5"/>
<path d="M7832 17000l 0-1 24-5"/>
<path d="M7948 17001l-1-1"/>
<path d="M8269 16924l 0 0 27 2 28 1 25-5 25-10 25-14 28-16 28-20 20-14 27-23 26-24 21-27 19-25 15-23 10-23 7-24 5-25 3-27 3-27 0-26-2-24-8-24-25 12-18 21-16 29-11 23-13 33-13 32-16 37-15 38-16 40-16 44-9 22-14 45-12 43-10 42-8 40-5 39-4 37-2 35 0 33 2 29 4 28 6 25 12 28 13 20 21 18 24 7 28-13 17-18 17-22 15-27 12-31 6-30 2-32-3-31-9-34-9-33-13-29-12-22-17-21-24-15"/>
<path d="M8228 17007l 0-1-18 20-17 23-17 23"/>
<path d="M8676 16833l-1 0-16 19-11 23-8 25-11 23-4 27"/>
<path d="M8718 16749l-1 1"/>
<path d="M8819 16814l-1 0 21 11 22 12-5 25-24 16-21 17-21 15-16 19 10 23 26-5 25-10 26-10 24-12 23-15 25-15 86-94-4-25-25 0-8 24 7 25 12 22 14 21 10 23-7 23-24 4-26-1-25 2-24 0 25 5 26-5 29-10 24-15 27-14"/>
<path d="M9184 16595l 0 0 1 24-3 28-3 24-3 29-3 25-3 31-5 28-7 28-6 25-6 25-4 29-3 26 16 19 24-6"/>
<path d="M9146 16748l-2 0 22-10 29-1 26-2 28-1"/>
<path d="M9657 16864l 2-2 17-16-6-25-24-9-27 4-26 10-25 17-22 19-16 22-12 23 3 25 24 12 28 0 26-7 24-9 25-13 17-19 7-24 27-2 23-8 24-9 21-12 26-15 30-17 31-18 28-21 25-22 22-23 20-23 14-25 11-30 6-28 6-29 3-25 2-30-3-24-17-18-20 16-17 24-10 25-10 25-12 30-10 22-10 25-11 28-14 30-11 32-13 33-12 35-13 33-12 37-11 38-10 33-7 35-6 31-4 29-3 28-2 27 2 34 7 26 12 24 20 17 27-10 17-17 17-23 15-26 13-28 6-30 0-34-5-33-7-33-9-30-12-26-17-23-21-14-24-8 27 3 28-9 24-10"/>
<path d="M10146 16564l-2 0-24 3-11 23-7 28-6 30-5 29-5 29-7 34-7 33-9 35-6 23-7 26-7 24-9 32-7 26-4 29 1 25 26 5 23-12 22-14 22-16 21-20 19-21"/>
<path d="M10008 16770l-2 0 24 7 27 1 29 2 30 1 25 2"/>
<path d="M10192 16858l-2 2 26 6 26-3 25-9 25-9 23-14 8-24-23-13-24-8-24 0-24 11-24 17-18 22-12 26-2 26 3 25 18 22 25 9 26 1 31-6 26-8 24-9 86-77 24-5 26 2-9 24-24 15-19 17-14 21-7 24 10 23 25 6 25-3 25-2"/>
<path d="M10624 16787l 0-1 25-4 28 0 27 0 30-3 24 0 27-1 28-1 31-1 31-1 32-2 34-3 37-3 38-3 40-3 41-3 43-1 43-2 44 2 45-1 44 0 45-2 42-2 42-1 39 0 36 0 34 0 32 0 29 1 27-1 35 0 30 1 27 0 26 0 30 0 28 0 24 4"/>
<path d="M10526 16989l-1 0-18 17-17 19-17 18-17 19"/>
<path d="M11165 16566l-1 0 5 29 9 25 16 18 24-8 26-18 22-18 24-22 22-22 20-23 19-25 17-27 17-26 14-28 10-25 9-23 8-26 2-24"/>
<path d="M1760 16841l-1-1 22-10 24-8 25-9 24-8 26-5 28-4 24-4 24-5"/>
<path d="M1833 16620l-1-2 15 23 20 15 24 1 20-18 17-21 15-21 11-23 12-28 6-24 7-27 5-27 6-30 4-32 2-31 0-27-1-26"/>
<path d="M1376 18717l-2 1 3-29 2-29 3-26 0-30 2-28 5-33-2-25 0-25-4-27-2-35-3-34-3-31-1-24-6-26-6-25-5-25-6-24-19 17-17 16-17 19-18 20-18 17 8-23 16-25 16-21 15-19 15-20 22 12 13 22 16 18 18 16"/>
<path d="M1590 18398l 1 0"/>
<path d="M1635 18482l 1-1"/>
<path d="M5066 17213l 1 2 22-12 26 3 25-1 32 1 27 1 33-2 36 0 27-3 28 0 27 0 30 2 32 4 34 1 36 2 38 1 38 2 41 1 43 1 44 2 45 2 47 1 48 3 25 1 24 2 25 0 26 1 25 1 26 1 27 0 25 3 26-1 27 1 25 0 25 0 26 0 26 0 26 0 25-1 25 0 24-1 26 0 24 0 25-1 24 0 25-1 24 0 48-1 47-1 45 0 43-2 42 0 39 0 38 0 35 3 32 1 30 1 25 0 34 0 26 2 24 5"/>
<path d="M6845 17156l 0-1 26 6 26 12 21 12 24 16 23 15 20 16 20 14-9 24-23 12-29 11-29 8-28 10-25 11-16 17"/>
<path d="M8407 18741l 0 2 26-9 21-13 20-19 17-19 18-20 20-24 22-28 23-29 24-33 24-32 24-34 24-36 22-33 19-34 16-34 13-32 10-32 6-30 5-29 1-25-1-33-6-30-10-23-20-17-24 8-18 18-21 31-16 27-16 34-17 38-17 44-8 23-8 25-8 25-7 26-8 27-8 27-6 26-6 27-7 26-4 26-5 28-4 27-3 26-3 26-2 25-1 25-1 46 1 43 4 41 6 37 7 33 8 29 9 27 8 23 8 23 13 26 17 17 25-2 11-25 7-27 5-35 2-26 1-28-2-27-4-27-3-25-9-34-10-31-9-27-11-23-17-21"/>
<path d="M8753 18552l 0 0-18 20-12 23-7 27-5 27-2 26 2 26"/>
<path d="M8790 18446l-2 0"/>
<path d="M8888 18492l 0 1 21 11 20 15-11 22-18 18-20 16-19 21-18 18-7 25 22 14 27-4 25-9 22-11 19-16 17-19 15-20 16-20 15-21 17-21 15-19 12-24-25 0-8 22 3 28 10 25 11 21 11 23 13 21-21 13-25-7 24 6 25-9 25-12 21-12 22-16 23-19"/>
<path d="M9261 18307l 0-1-12 24-6 28-5 29-4 26-7 31-6 24-8 27-7 24-6 25-6 27-2 25 15 21 24 0 28-3 28-9 24-11 22-14"/>
<path d="M9193 18490l-3 1 23-14 27-7 31-9 25-4 28-3"/>
<path d="M9716 18494l-1-1-17-18-24-7-23 9-23 16-20 18-15 25 6 25 25 6 26-3 24-7 12 22 25 1 25-9 25-14 23-15 26-15 26-19 25-20 24-24 23-25 15-19 19-27 19-32 16-31 13-33 12-31 7-31 5-26 3-26-25 0-16 19-21 29-13 21-15 24-15 26-15 28-15 32-16 34-15 37-15 38-15 37-13 36-12 34-11 35-8 33-6 32-7 30-2 26 0 33 4 26 8 26 17 18 26-8 19-23 13-27 7-24 5-32 0-26-3-24-9-27-14-26-18-16 19-18 23-14"/>
<path d="M10067 18296l 0-3-5 29-6 32-6 27-9 30-10 31-13 32-12 32-10 30-9 29-6 25-3 24 6 26 25 6 28-11 25-16 24-21 20-23"/>
<path d="M9969 18468l-3 1 27 2 32-3 27-2 27-1 26-2 29-4 27-4"/>
<path d="M10224 18436l 0 0 25 6 26-1 23-10 9-23-18-19-27-4-27 9-23 15-19 19-14 21-7 24 10 24 18 17 25 5 27 6 27-6"/>
<path d="M10356 18447l-1-2-24-3-3 27-1 26-1 24 9-27 7-26 10-24 18-17 22-11 23-10 29-5 28-1"/>
<path d="M10630 18558l-1 2 27 1 27 2 28-3 35-2 27-2 30-1 31-2 32-3 35 0 37-2 40 0 42-1 43 0 46-2 45 1 24 0 47 0 47 1 44 2 41 1 40 2 38 1 38 0 36 1 34 0 33-1 30 0 30-1 27-2 24 0 33-3 28-3 23-5-26-15"/>
<path d="M11045 18270l 0 0 12 22 22 11 23-14 16-22 13-20 11-22 13-25 11-25 12-25 12-28 14-28 14-30 13-29 10-23 11-24"/>
<path d="M8211 18943l-2-1-23-10-27-1-27-2-24 3-27 3-31 3-27 3-31 5-35 6-27 5-31 7-35 6-39 6-42 6-45 6-49 7-25 5-25 4-26 4-27 4-27 4-27 4-28 5-28 4-28 3-28 4-29 4-29 4-30 4-28 3-30 5-29 4-29 5-30 4-30 4-30 4-30 5-30 4-31 4-33 4-34 5-34 5-36 3-37 6-39 4-39 6-41 6-39 6-39 5-41 5-40 6-40 6-39 5-39 4-38 4-37 5-36 4-35 3-35 3-32 4-31 4-31 3-29 2-28 3-27 3-26 2-25 1-45 5-42 3-37 3-33 2-28 0-32 0-29 1-25-2 24-7 26-2 25-1"/>
<path d="M5940 19193l 0-1-11-21-24-6-26 7-25 7-23 10-22 12-23 9-20 15-17 17 12 22 22 13 24 11 27 6 26 6 29 5 25 4 26 3 27 4"/>
<path d="M8216 18674l 0 0 3 24-4 28-10 23-16 23-15 21-21 25"/>
<path d="M7459 18615l 0 0-7 27-10 30-10 27-13 30-15 31-14 33-10 23-14 32-15 32-12 28-13 25-12 27-9 23"/>
<path d="M7457 18595l 2-2 24-12 23-7 24 7 25 9 19 15 8 24-16 22-23 18-23 15-24 12-24 13-25 11"/>
<path d="M7620 18600l 0 0 3 24-3 25-2 24-3 27 1-26 13-24 16-19 20-14 23-9 24 9 24 9 24-1 26-8 25-11 21-14-3-26-25-8-25 4-23 16-20 16-18 20-11 23-5 27 10 23 24 15 26 3 25-6 25-7 25-5 22-12 21-18 18-18 11-22-17 21 2 27 9 26 19 14 24-4 28-13 25-17 19-16 21-18 17-19 18-25 12-21 3-27-24-10"/>
<path d="M7276 18783l 0-2 7 28-5 28-12 24-18 25-18 21"/>
<path d="M6542 18689l 2-1 24-2 4 27-7 28-10 26-11 23-11 26-14 29-10 22-16 28-17 27-15 21-14 24"/>
<path d="M6531 18681l 2-3 11-21 15-20 17-21 22-11 26-5 25 8 22 15 8 24-5 25-13 22-19 19-21 17-21 15-23 18-21 12"/>
<path d="M6674 18699l 1-2 22-9 25-14 24-11 23-8 22-15 3-24-24 1-13 21"/>
<path d="M6755 18642l 0-1 4 27-4 24-4 25-8 26-11 25-12 23 4-29 11-28 8-25 9-24 11-21 15-21 19-19 24-15 24-9 25-7 27 3 22 11"/>
<path d="M6899 18673l-1-1 25-1 24-7 25-13 24-10 17-16-14-22-22-13-24 0-23 15-12 23-7 26 2 24 9 23 16 18 27 9 30-3 26-9 24-13 22-16 19-19 16-22 9-25-24 7-14 20-3 24 6 24 14 21 23 8 25-12 22-19 17-19 17-22 15-27 12-27 7-28 0-24-25 6"/>
<path d="M6358 18823l 0-1-7 25-6 24-8 25-11 24-15 25"/>
<path d="M5690 18878l 0 1 20-15"/>
<path d="M5827 18881l 0-1 23-11"/>
<path d="M5965 18881l 0 0 25-6"/>
<path d="M6068 18877l-1 0"/>
<path d="M5340 18950l 0-1-3 25-11 25-14 31-14 25-16 27-20 28"/>
<path d="M3864 18381l-1-1 27-4 25 2 23 10 2 25-13 23-18 22-15 19-20 24-17 20-16 20-16 20"/>
<path d="M3796 18738l 0 0 19-15"/>
<path d="M3673 18462l 1-2-6-23 12-21 19-15 22-17 23-12 25-2 13 21 3 26-3 28-1 29-2 29-1 29-1 25 0 24 2 26 2 25 4 25 8 26 10 25 12 21 18 17 25 5 28-3 25-12 19-15 19-19 16-19"/>
<path d="M4023 18348l-1-2-26 12-22 20-20 20-23 25-24 26-17 20-19 21-20 23-20 25-19 24-20 25-19 25-20 23-20 24-19 22-19 22-16 22-17 21-14 21-17 23-17 24-9 23 25-7 18-16"/>
<path d="M4092 18697l-1-1 25-10 20-16 20-15 21-19 23-22 22-24 22-24 20-28 20-28 16-30 16-29 12-31 7-27 3-28-1-26-10-22-24-7-20 23-13 20-17 27-16 30-9 23-10 25-9 25-7 27-6 29-6 28-3 29-3 28-2 27 2 25 6 32 11 24 17 23 22 15 23 6 26-8 16-25 12-23 8-28-2-28-8-29-10-25-13-22-21-11-9 23"/>
<path d="M4373 18633l 1-1 19-16 23-10 21-14 20-14 6-25-22-12-24 7-21 16-17 22-6 25 5 24 14 21 22 12 24-2 27-11 22-11 22-13 24-12 23-19 21-19 19-20 17-24 16-26 14-27 9-29 7-30 4-30 2-29 1-25-3-25-19-17-25 13-19 22-13 21-13 27-13 33-11 25-8 29-10 30-10 34-9 36-10 37-9 38-8 37-8 35-5 34-5 34-3 31 0 30 0 25 3 32 6 25 11 26 24 9 20-15 16-19 14-25 11-30 7-32 1-26-1-28-7-31-8-27-13-26-15-19"/>
<path d="M4690 18614l-1-1-25-6-19 15-15 19-7 24 9 22 17 18 24 10 28 0 20-17 12-23 7-26 2-24-25-5 4 24 25 0 24-8 20-13 20-16 19-16 22-10 22 13 0 24-14 20-18 18-15 19-1 25 24-1 23-9 26-7 25 1 25 7 25-4 26-5 23-11 25-14 21-17 19-18 6-25-18-17-27 4-25 11-22 16-18 17-14 22-4 26 10 26 18 23 26 12 28 9 26 5 29-1 25-2"/>
<path d="M2022 18672l 1 0 26-1 24 0 33 2 34 1 31 2 29 1 33 3 36 2 38 2 44 0 47 1 25 0 28 0 27-1 28-1 28 0 30 0 30-2 30-1 30-1 31-2 31 0 30-3 32-3 31-2 31-2 31-3 30-2 33-2 32-3 32-2 31-2 31-2 32-2 31-2 31-1 27-2 26-2 26 0 24-1 47-1 38-1 33 2 29 0 31 1 28 1-21 16"/>
<path d="M2703 18419l 0-1 18 17 12 25 10 25 12 24 17 19 25-13 19-23 15-24 15-27 12-23 9-22 11-26 9-27 9-28 10-26 10-25 9-25 9-24 14-26"/>
<path d="M6951 16140l 2-2 21-13 23-9 27-11 25-12 24-9 22-11 26-11"/>
<path d="M7011 15962l-1-1 6 24 6 29 6 24 6 29 5 30 5 29 3 29 4 30 5 28"/>
<path d="M7448 18010l-1-1 27-4 28-6 29-5 25-4 28 1 26-4 24-7 24-2 26-1 25-4"/>
<path d="M1599 20242l-2-1-25-1-25 4-24 5-23 10-25 11-24 12 6 24 27 4 28 6 25 5 28 4 26 3 28 7 23 10 12 23-10 23-15 21-19 24-18 17-20 16-22 12-27 14-29 7-27 3-24-1-28-5-22-10"/>
<path d="M1775 19998l 0 0 3 27 1 25-2 32-3 30-6 35-3 35-3 26-2 26-2 27-5 26-5 26-9 26-6 23-5 24-8 32-9 32-8 29-8 27-12-23 4-27 5-29 4-26 4-28 4-26 6-26 11-25 16-22 17-20 22-13 25-14 24-4 23 8 7 25-13 20-18 17-22 19-19 15-24 16-20 21-16 21-11 22 12 22 24 8 28 3 25 1 28-4 28-7"/>
<path d="M1965 20291l-1 0-16 22-5 24-6 27-3 28 5 25"/>
<path d="M1969 20170l-1-1-2 26"/>
<path d="M2047 20330l-1 0 0 26 2 24 4 26 0 25-2 26-2 26-4 30-4 30-7 28-8 23 1-29 3-27 4-28 3-31 2-31 1-29 0-26 3-27 3-26 7-24 21-13 22-10 28-4 25-4 27 3 25 8 13 20-5 26-16 24-20 21-18 16-20 14-26 11-24 12"/>
<path d="M2565 20244l-1-1 13-22 23-9 27-11 31-10 31-9 24-7 27-7 27-7 29-6 28-6 28-6 28-6 28-5 29-6 29-5 28-5 30-5 30-5 28-5 30-5 23-6 34-6 30-5 31-5 27-3 24-2 26-2 28-3 26 0 24 5"/>
<path d="M3259 20023l 1-1 24-4 27 7 26 12 27 7 25 8 24 8 26 8 22 10-21 15-22 13-23 9-22 12-21 15"/>
<path d="M2918 20312l 1 0 20 14-4 26-6 24-6 26-10 28-12 26-10 25-12 23-15 20 10-24 11-22 12-27 11-25 12-21 16-23 14-24 15-23 16-18 23-19 22-16 24 1 9 24 1 28-5 29-8 28-8 27-10 23-13 23 12-21 10-23 15-21 17-21 15-22 14-22 17-22 20-17 24-5 8 25-3 27-5 24-6 24-5 26-1 24 10 22"/>
<path d="M3349 20331l 0-2-1-26-26-1-22 15-21 20-19 21-17 21-3 24 25 5 24-12 23-13 17-17 3 25 9 23 18 17 23 7"/>
<path d="M3449 20309l 0 0 11 22 15 20 22 19 20 13 21 15 25-1"/>
<path d="M3562 20287l-2 0-24 9-19 16-22 20-18 22-13 21-15 24-14 21"/>
<path d="M3864 20335l-1-2-23-9-22 13-15 23-4 25 8 23 22 13 26-3 20-13 16-24 0-24-9-23 17-19 25-6 18 18 5 24-2 25-7 26 22-17 21-17 21-16 21-15 21-14 4 24-1 26 1 26 13 22"/>
<path d="M4345 20353l 0-1 2 24-4 28-6 25-5 23 6-29 9-25 13-27 17-20 21-14 23-11"/>
<path d="M4509 20357l 0-1 2 25-2 24-3 25"/>
<path d="M4581 20236l-1-1-12 21"/>
<path d="M4679 20358l 1-1-13-20-22-12-26 6-25 16-20 15-18 18-10 22 0 26 14 22 27 2 26-8 23-15 20-15 18-17 13-22-17 22-5 26 0 29 3 27 1 27 2 32 2 25 1 27 0 27-3 29-5 30-7 28-11 31-9 24-12 24-18 23-21 16-27 4-23-14-16-26-8-27-5-35-1-35-1-25 1-26 1-29 4-30 8-32"/>
<path d="M4795 20145l 0 0-3 24-2 28-2 26-3 31-1 27-3 28-6 29-10 30-9 28-11 26-10 23-13 23 9-22 16-26 18-26 17-24 18-20 19-20 19-18 24-3 21 14 4 26-3 26-8 24-8 29-11 27-8 24-6 25 25 7 26-11"/>
<path d="M5049 20234l-2-1-17 18 1 29 0 26-1 27-2 27-6 29-6 31-4 28-2 25 3 25 9 23 26 2 23-10"/>
<path d="M4991 20341l-2 0-25-5 26-2 25-1 29-1 31-4 24-1 26-1"/>
<path d="M3578 19802l-1-3-6-25-13-22-17-23-24-19-22-18-20-14-24-16-26-15-27-14-29-14-33-12-31-10-33-7-33-6-35-4-36-4-36 0-27 0-28 3-29 2-32 3-31 4-30 3-29 6-27 6-25 6-25 4-32 8-26 7-27 11-25 12-23 14-23 18-19 19-15 20-10 22-22 14-22 9"/>
<path d="M2671 19557l 0-1-19 17-11 23-11 21-14 23-12 22-13 26-12 21-14 24-13 22-10 22 10 22 23 12 23 8 25 2 28-3 26-1 24-2"/>
<path d="M6308 24481l 0 0-19 15-9 24-6 25-2 25 7 25 13 22 24 14 25-1 24-8 24-15 20-17 14-26 9-26-2-29-9-26-13-22-22-16-27 10-20 18-17 23-11 22-10 24-5 27 1 26 22 15 25-2 25-10 24-14 17-17 9-22-6-24-16-19-24-11-26-2-23 9-21 14-15 19-7 25 4 24 21 15 25 0 28-7 21-12 22-15 6-26-14-21-19-17-25-9-22 9-18 20-10 23 9 24 25 9 25-9 21-16 11-22-24-6-17 21-3 25 25-5-5-24-20 16-2 24"/>
<path d="M6750 24524l 0-1 26 5 25 0 29-1 31 1 29-1 33-1 25-2 25-2 28-1 28-2 29 0 31-3 33-2 34-2 35-4 35-1 35-1 36 1 36-1 37-1 37-1 39-2 39-1 41 0 43 0 46 0 25-1 25-1 27-2 27-1 28-2 29 1 28-1 30-1 29-2 31-1 30-1 30 0 31 1 31-4 32-1 33 0 32 0 33-1 33-1 34 0 34-2 33 1 35 0 34-1 34 0 35 0 35 0 34-1 37 1 35 0 36 0 36 0 35 0 37 0 36 1 36 0 35 2 36 1 36 0 36 1 36 1 37 0 36 1 38 0 37 0 36-1 37 1 38 0 37 1 37 1 37 0 38 1 37 0 38 1 38 2 39 0 38 1 38 0 38 1 38 1 38 0 38 0 36 0 36 2 37 1 35 1 34 2 35 1 34 2 34 1 34 1 32 1 33 1 32 1 32 2 32 1 32 2 30 1 31 2 29 3 30 2 29 2 28 2 29 3 28 1 27 3 27 3 27 0 27 3 26 2 26 2 24 2 25 3 47 3 47 2 45 4 42 3 39 4 38 3 36 1 35 2 32 1 31 1 27 2 24 2 33 1 26 0 27 3 24 5-24-7"/>
<path d="M11118 24462l 0 1 27 10 27 6 25 6 26 7 25 4 21 12 2 27-20 16-23 18-21 16-22 16-22 16-17 18"/>
<path d="M6095 23994l 0-1 19-17 26 0 22-10 24-6 26-8 25-7 25-13 23-9"/>
<path d="M6160 23879l-1 0 15 22 8 24 6 24 5 25 1 27 0 26 2 25"/>
<path d="M6331 23863l-1-1 10-22 22-16 22-13 26-8 23 12 17 18 13 25 9 26 7 28 3 27 6 25 8 23 15 21 20 13 24-6 19-15"/>
<path d="M6575 23772l-3 1-21 12-18 24-13 23-14 26-11 22-14 27-14 24-13 22-14 25-13 23-13 24-12 23-13 22"/>
<path d="M6724 24346l 0-1 9-22-2 26-2 25-3 24-1 26 3 24 5 24 2 25"/>
<path d="M8226 23919l-1-1-18 18-9 25-8 27-6 31-4 30-2 25 3 25 25 4 23-17 22-22 17-20 15-20 13-21 14-26 11-23 9-23-9 25-9 27-6 28 0 25 4 25 24 12 23-11 19-16 19-21 16-23 10-25 6-25 4-25-4 25-3 25-3 28-4 25-2 24 22-15 15-22 15-27 14-27 14-26 16-23 16-18 7 25-4 28-3 25-1 25 1 25 8 23"/>
<path d="M8737 23899l-2-1-25-7-21 10-20 14-15 20-16 21-16 20-14 26-10 26-1 27 10 26 22 16 28 4 26-7 22-9 23-12"/>
<path d="M8901 23665l 0-2-6 28-3 24-4 26-5 32-7 31-7 35-6 35-5 24-7 34-8 34-8 28-9 29-8 24-8 26 18-22 11-22 11-25 13-27 16-26 17-25 18-19 10 25-6 25-7 28-8 28-9 25-6 26 2 24"/>
<path d="M9132 23962l-2-3-18-19-25-9-25 1-25 14-22 15-19 18-15 19-11 26-2 26 19 17 26 3 29-9 25-10 23-13 19-19 14-22-2-24-16 22-8 23-4 27 9 24 25 7 25-9 19-16 16-19 11-24 4-24-17 20-11 25-5 24 2 24 24-12 19-21 16-23 16-24 14-21 15-19-1 28-8 24-8 26-3 25 17 18"/>
<path d="M9501 23942l-1-2-15-21-23-9-28 8-22 11-21 15-25 21-16 19-16 25-9 26 3 26 25 12 25-5 24-14 22-15 17-17 13-20 10-22-13 23-10 28-7 28-4 28-5 25-4 25-6 27-9 26-12 28-14 25-18 25-18 19-23 14-24 4-22-15-9-28 1-25 4-27 7-27 11-26 14-26 17-23 19-21"/>
<path d="M9537 23979l 1 0 16 20 25-3 23-12 24-14 19-15 7-24-19-16-24-3-27 10-23 14-18 18-15 22-12 23-7 29 5 28 20 20 24 12 26 5 30 0 24-4 27-4"/>
<path d="M9837 23949l-2-2-22-14-24 1-26 7-21 19-19 18-16 18-11 24 0 26 12 21 24 7 28-2 25-9 26-17 24-20 16-19 14-19 11-22 9-25 9-25 8-31 7-34 5-27 6-27 6-27 4-25 5-25 7-31 3-25-1-26-24-3-11 23-10 31-9 29-5 32-5 35-1 25-1 27-1 24 2 33 2 28 4 29 5 25 5 25 9 27 9 22"/>
</svg>
