<svg xmlns="http://www.w3.org/2000/svg" viewBox="1848 2029 7245 6822" stroke="black" stroke-width="19" stroke-linecap="round" stroke-linejoin="round" fill="none" data-xena="0 -1 0"><style>@media(prefers-color-scheme:dark){svg{background-color:black;stroke:white;}}</style>
<path d="M2525 8516l-1 0-15 24-14 24-17 22-17 25-14 22-14 25-13 21-12 23-7 24"/>
<path d="M2893 8068l-1 1-18 22-14 22-15 24-16 30-10 23-9 26-9 25-9 28-9 28-7 28-6 29-3 26-1 24 1 34 6 27 14 27 19 16 26 6 31-4 25-10 25-12 22-19 18-19 16-23 5-24-19-24-23-17-22-11-30-7-28 2-24 5-22 11-11 25 8 24"/>
<path d="M3162 8514l 0 1 2 26-12 24-15 19-19 24-16 19-15 22-14 20-17 25"/>
<path d="M3592 8163l 0-5-2-26-6-24-15-21-22-12-26 3-26 12-22 15-23 23-16 21-16 20-18 26-10 27 1 26 6 26 14 26 17 18 20 15 24 17 24 16 24 15 23 15 20 13 18 18 13 23 1 27-9 23-18 24-18 18-20 18-23 14-26 8-24 5-29 1-24-7-21-14-15-24-8-24-1-28 3-30 7-31 12-28 14-25 19-22 22-23 25-21 30-20 21-12 22-13 22-12 22-11"/>
<path d="M4129 8317l-1-2 22-9 28-4 30-1 26 0 31 2 31 1 33 2 33 2 31 2 28 2 28 3 25 1"/>
<path d="M4200 8365l-1-1 26-2 24-1 32-2 24-3 25-5 26-5 25-6 25-6 25-6"/>
<path d="M4471 8202l-2-2 26-3 31 1 25 1 26 1 27 2 25 5 23 6 28 7 25 13 20 17 6 25-18 23-20 18-26 18-23 16-22 16-22 14-21 12-25 17-22 13-22 16"/>
<path d="M5078 8045l 0-1 22-14 26-10 28-10 23-7 24-10 24-9 23-8 23-9 26-10 27-7 26-6 3 25-8 24-9 24-10 29-12 32-9 24-9 23-9 25-10 27-9 26-10 27-12 28-12 28-11 28-11 26-11 26-9 23-10 22-12 29-8 26-7 27-4 25"/>
<path d="M5459 8227l-1-1 21-13 24-7 26-6 31-7 27-5 24-2 24-4 31-4"/>
<path d="M5596 8134l-2 1-19 16-12 22-9 30-6 27-3 29-1 24-2 27-1 25 2 30 3 29"/>
<path d="M6081 8269l 0-1 22-10 26-3 27-3 29 0 28-4 24-3 24-3"/>
<path d="M6479 7968l-1-2-7 24-3 24-3 28-3 32-2 31-2 24-2 25-2 25-2 25-1 25-3 25-4 25-4 24-6 32-6 25-4 27-3 26"/>
<path d="M6746 8182l-1-1 27 0 24-2 24-3 27-5 29-7 31-6 23-6 27-6"/>
<path d="M6856 8097l 0 1-11 22-5 27-1 29 1 26 3 28 4 28 4 26"/>
<path d="M7420 8196l 0 1 24-12 26-4 25-5 28-3 30-6 29-5"/>
<path d="M7843 7960l 0-1 2 28-7 28-9 29-9 23-10 23-9 22-12 29-12 27-7 25-5 27 5 24 21 14 28-4 24-7 28-11 23-8 28-13 22-10 29-13 27-13 25-13 22-11 25-10"/>
<path d="M7980 8087l-2 0-16 19-10 23-7 29-4 29-3 27 0 26 0 24 3 29 5 28"/>
<path d="M8347 8066l 0-2 20-13 26-6 30-6 27-4 27-5"/>
<path d="M8335 8136l-1-1 24-13 29-6 27-7 29-5 32-3"/>
<path d="M8765 7924l 0-2 12-21 24-8 26-6 25-1 28 5 26 13 19 15 18 16 14 20 8 27-3 26-11 24-21 23-20 19-27 19-29 20-22 13-21 13-21 14-22 12-30 19-26 16-24 14-21 13-21 15-17 18 25-3 25-2 30-5 24-4 27-5 27-4 28-4 29-5 25-3 29-4 27-2 24 3 18 17"/>
<path d="M2477 2352l-2-2-12-21-1-25 11-23 17-18 23-17 22-13 29-12 31-10 30-7 31-2 26 2 24 5 23 8 24 15 11 27-8 28-12 30-16 27-22 27-15 20-15 19-16 22-19 22-18 23-19 21-19 20-19 20-22 17-20 17-21 17-25 22-23 19-23 18 25 1 28-11 25-10 25-9 28-7 30-6 28-6 26-3 25-3 24-4 29-2 29 0 29 4"/>
<path d="M3708 2215l 1-2 20-14 24-10 27-9 23-8 25-8 25-5 28-5 25-1 25 5 16 23-4 29-12 29-15 24-18 27-22 29-16 19-18 20-19 21-21 20-22 23-22 22-22 22-21 21-21 19-19 16-23 20-21 20-18 17 25-8 23-11 29-13 26-9 27-10 29-11 28-11 31-11 32-10 31-10 31-12"/>
<path d="M4222 2249l-2 1-25 11-18 21-6 26 1 28 0 24 7 29 10 23 16 20 22 15 25 10 26 5 27-2 28-10 22-11 20-14 18-15 18-18 17-20 14-22 9-22 5-24-1-25-7-23-11-22-15-20-19-16-28-11-30-2-31 6-23 10-23 13-20 15-20 19"/>
<path d="M2483 3120l 0-1 21-14 24-10 28-11 25-8 25-10 25-11 23-11 29-10 23-9 26-7"/>
<path d="M2597 3070l-1 1-20 18-11 26-7 23-9 27-10 30-6 28-4 26-3 28 3 26 18 18 25-4 26-16 22-18 25-21 26-19 21-12 22-12 24-10 26-8 28-3 24 0 25 7 23 10 21 17 11 23-1 26-7 25-15 27-14 23-17 22-20 26-24 27-24 23-25 22-25 17-24 14-23 9-23 5-30 3-25-6-22-16-15-25 0-25"/>
<path d="M3755 2981l 0-1-11 23-9 26-10 32-6 28-8 31-7 34-6 34-7 33-7 33-8 33-7 29-5 26-4 27 8 24"/>
<path d="M4007 3027l-2 0-20 13-15 20-13 22-14 27-9 23-7 25-6 27-2 26 1 28 5 24 12 28 19 20 25 12 31 4 28-1 28-6 25-10 25-14 23-17 21-18 15-20 9-23 7-23 2-27-2-28-6-29-10-27-12-24-19-24-22-13-24-2-26 5-27 9-28 13-23 17-19 20"/>
<path d="M2037 4994l-2 0 24-8 27-5 28-3 28-4 25-5 25-5 23-5 28-4 30-6 32-6 33-6 32-4 33-6 31-6 29-3 29-1 27 1 28 1 25 2 27 3 25 2 31 3 28 1 24 0 25 0 24-2"/>
<path d="M2360 5104l 0-1 23-12 24-1 25 3 26 5 24 9 17 17-3 28-19 20-20 16-26 17-29 13-30 10-28 12-25 10-26 9-20 15 20 13 28-2 24-3 25-7 29-7 28-8 25-8 25-9 28-8 24-7"/>
<path d="M3070 4936l 1-1 23-13 24-8 26-6 27-5 31-6 30-5 36-5 26-4 30-5 32-6 34-6 34-6 38-7 39-6 42-6 42-3 42-6 44-4 43-5 44-4 44-4 46-5 45-4 25-3 24-3 25-3 24-3 24-2 24-2 47-5 46-4 45-3 43-3 46-3 42-3 42-3 39-2 36-3 34-1 31-1 29-1 27 0 34 1 26 2 24 2"/>
<path d="M3929 4981l 0-1 21-13 24-3 25-3 28-6 26-7 24-7"/>
<path d="M3945 4983l-1 1-18 18-13 20-10 23 2 24 22 12 26-6 24-7 24-7 24-5 25-5 25-4 26-1 24 5 23 10 8 25-16 23-19 18-22 17-21 15-23 13-23 9-30 9-28 4-29 0-23-7"/>
<path d="M5384 4776l 2-1 27-7 30-6 29-8 29-7 28-4 29-2 25 2"/>
<path d="M5414 4850l-1 0 27-5 29-6 28-8 30-11 31-9 23-9 28-10"/>
<path d="M5572 4696l 0-1 26 0 26 4 26 3 27 5 26 8 23 11 13 21-9 23-19 18-22 16-21 13-21 15-22 15-17 17"/>
<path d="M6187 4540l 1-1-10 24-9 25-9 25-8 27-8 30-8 31-8 33-6 32-8 31-7 29-7 28-7 25-9 28-9 23"/>
<path d="M6440 4525l 0-2-9-25-27-7-25 5-24 15-21 22-17 19-13 20-9 24 4 25 18 18 23 13 24 14 22 13 23 14 23 15 23 15 21 17 13 21 5 25-8 24-19 26-18 18-20 15-25 17-23 9-27-3-20-18-9-26-4-31 2-25 3-26 8-27 11-31 15-27 16-24 18-23 20-22 23-19 23-18 25-15 22-12 28-11 28-5"/>
<path d="M6660 4670l 0-2 16-20 29-4 31-1 26-1 28 1 26-1 27-1 26-4"/>
<path d="M6808 4546l-1 0-7 24 0 27 1 25 2 25 1 25 1 25-2 25"/>
<path d="M7145 4444l 0-1 19-15 24-6 32-5 28-3 30-1 28-1 26 0 28 3 24 9 6 24-20 19-24 16-21 13-27 16-27 15-24 10-22 12 25 3 26-2 26 0 27 2 28 6 30 7 25 6 23 8 28 10 23 9 21 13 17 19 0 25-18 23-22 17-27 17-24 13-25 12-26 9-25 9-26 3-25 3-31-1-29-2-25-6-27-10-24-12"/>
<path d="M1972 6595l 4 0 24-5 27-3 26-3 31-3 33-3 24-3 26-3 27-4 29-5 30-4 30-5 33-4 33-4 33-3 34-3 35-2 37-1 38-2 38 0 40-1 40 0 39 2 38 1 37 0 37 1 36-1 35 0 33 0 32 0 32-2 28-1 28-3 25-3 34-3 29-4 31-6 25-6"/>
<path d="M2494 6733l-1-1 20-15 23-7 28-8 24-5 26-8 25-3"/>
<path d="M2551 6742l-3 1-21 13 8 24 24 6 28-1 24-1 26-1 27-4 24 1 24 4 10 23-10 25-20 18-22 19-27 15-23 6-28 3-27-3-25-12 1-24 16-23"/>
<path d="M3429 6505l 0-2 8-22 28-6 27-2 26 1 28 1 31 0 31-1 24-2 25-3 27-3 31-4 32-4 30-4 28-4 28-3 26-3 30 0 24 0 25 3"/>
<path d="M3646 6619l 1 0 24-2 24 2 24 5 25 5 3 25-18 19-23 19-23 17-23 18-18 16-20 16 26 4 25-4 26-4 24-4 25-2 24-4 26-3"/>
<path d="M4863 6255l-1 0 28 1 28-5 27-3 27-2 30-2 29-3 25 0"/>
<path d="M4840 6376l-1 1 28 1 26-6 30-6 24-6 29-7 32-11 33-10 30-10 27-10"/>
<path d="M5076 6183l-1-2 24 7 23 9 29 7 24 7 26 5 28 9 23 10 26 10 23 11-5 26-18 18-18 18-20 18-20 17-21 16-22 16-21 15-22 15"/>
<path d="M5751 6079l-1 1 24-12 25-9 25-10 22-9 23-8 24-7 24-7 23-5 25-6 28-7 24-5"/>
<path d="M5850 6083l-1 1-18 16-9 25-8 28-6 28-7 26-5 27-3 24-1 26 5 25 16 19 24-5 24-14 23-13 27-12 22-9 24-12 25-7 23-6 31-4 31-1 29 3 27 5 27 11 21 16 15 20 9 25-1 27-16 25-21 25-19 20-23 18-25 19-27 16-28 13-29 9-31 6-31 3-30 2-25 1-31-4-25-6-22-10 19-15 30-13"/>
<path d="M6366 6244l 0-1 26-9 24-1 24-1 29-2 30-3 31-5 25-5 30-5 26-6"/>
<path d="M6544 6126l-1 0-12 23-3 28-1 29-3 25-2 25-3 24-2 29 2 25 3 25"/>
<path d="M6949 5999l 0-1-2 27-4 29-2 24-4 29-5 28-5 30-5 29-6 31-6 28-6 25-3 28-2 25-2 29-3 28 1 25"/>
<path d="M7117 6064l 1-2 17-17 24-8 28-6 25-3 25-2 29 1 25 4 24 8 16 19-9 23-20 19-20 14-23 13-22 13-25 14-20 16 23 9 26-4 26-1 27 3 27 4 27 6 25 10 24 9 25 12 17 19 1 25-14 27-17 21-21 23-18 16-21 15-24 12-24 11-26 7-25 5-31 3-26-1-26-7-22-15-7-23 10-22"/>
<path d="M7637 6117l-1-1 24-13 25-6 25-3 27 0 28 3 26 5"/>
<path d="M7653 6171l-3 1 28 4 29-3 27-2 29-4 24-4"/>
<path d="M8086 5955l 0-1-8 28-3 28 0 25-1 27 1 26-1 27 1 27-1 28 0 27-2 27-3 31-6 27-5 24-7 25"/>
<path d="M8478 6018l 2-5 9-22 5-27-11-22-24-8-25 4-27 8-24 9-22 12-23 17-18 23-7 25 2 24 14 24 19 18 22 18 18 19 16 19 16 20 13 23 9 22 2 27-11 22-18 20-20 14-24 14-24 10-29 3-22-15-4-26 6-25 14-30 15-22 18-23 19-22 22-22 22-18 20-18 20-16 23-16 21-13 22-12 22-9"/>
<path d="M2100 8166l 1 0 23-7 31-4 30-6 26-10 28-9 27-10 26-10 24-10"/>
<path d="M2134 8198l-2 1-18 22-9 25-7 25-6 24-3 28 3 25 21 13 26-7 26-11 25-12 29-12 28-10 29-9 23-7 30-6 29-3 24 7 12 22-6 30-9 22-16 22-18 25-16 21-18 21-19 23-22 20-25 18-28 13-26 12-24 8-23 5-25 1-24-8"/>
</svg>
