<svg xmlns="http://www.w3.org/2000/svg" viewBox="1584 1305 11853 18323" stroke="black" stroke-width="19" stroke-linecap="round" stroke-linejoin="round" fill="none" data-xena="0 -5 0"><style>@media(prefers-color-scheme:dark){svg{background-color:black;stroke:white;}}</style>
<path d="M1936 1487l 1-1 10 23-9 24-13 28-12 24-13 25-14 26-14 29-14 30-14 28-15 27-12 24-5 27 2 24 23 11 24-4 28-12 23-12 25-13 29-16 27-13 23-12 22-13 21-12 21-13 25-11 26-7"/>
<path d="M2020 1628l 1 0 11 24-1 31-4 31-5 26-7 30-6 29-3 30-5 29-5 28-7 26-4 24-3 28 6 24"/>
<path d="M2212 1936l-1 0-11 24-8 23-10 28-10 25-12 27"/>
<path d="M2529 1587l-1-1 27-8 31-8 27-9 28-13 22-9 27-13"/>
<path d="M2629 1556l-3 1-24 13-22 15-17 17-15 21-13 25-11 25-9 22-7 24 19 17 28-10 22-10 25-12 25-11 24-9 24-10 28-10 29-11 28-8 27-3 23 9 5 24-6 26-14 25-14 20-16 20-22 22-19 15-25 20-27 19-26 16-27 13-26 10-29 8-27 3-16-19 13-21"/>
<path d="M2887 1846l-2 0-6 23-6 25-14 25-14 28-11 23"/>
<path d="M3297 1428l-2 1-18 17-19 24-15 22-17 27-18 30-11 22-9 24-9 24-6 26-6 25-6 24-3 33 0 30 6 23 12 23 22 15 27 2 32-10 26-13 29-16 23-20 18-19 16-24 8-26-13-22-25-16-25-7-30-3-27 1-24 6-28 8-22 14"/>
<path d="M2267 3361l 0-1-26 3-18 24-11 22-12 28-15 32-10 22-10 23-10 25-8 25-8 26-8 27-5 26-4 25-2 24 2 33 3 28 9 28 16 24 22 13 25 3 29-4 27-13 22-18 16-22-7-24-25-12-25-4-24-2-26 3-26 7-21 13"/>
<path d="M2927 3443l 0-1 21-13 24-8 24-7 29-8 28-8 28-7 26-6"/>
<path d="M3016 3438l-3 1-25 10-22 13-11 23-4 26 1 27 12 21 25 9 24-2 27-8 28-7 28-4 24-4 26-5 26-5 29-2 27 2 15 22-12 24-19 23-16 19-21 20-21 17-21 16-28 15-24 10-23 6-28 3-26 0-24-9-9-22"/>
<path d="M3724 3334l 2-2 10-22 1 27-9 30-11 27-13 27-16 27-13 25-9 26 3 27 13 20 24 6 25-1 27-5 29-6 29-7 28-8 28-8 32-10 29-9 24-10 27-9"/>
<path d="M3903 3402l-2 1-15 24-5 24-2 27-1 29 2 30 5 30 3 27 4 26 6 24 7 25"/>
<path d="M1765 4337l 2-1 13-22 4 24-7 28-7 24-11 27-10 28-11 29-9 28-6 29-6 29-4 28-3 25-2 28 2 28 10 23 17 18 26 5 24-6 26-9 26-10 27-9 23-11 27-13 23-11 27-11 24-7 21-14"/>
<path d="M1915 4499l-2 1-16 19-8 28-5 23-3 27 0 24 3 25 4 26 3 25 6 25 6 24 6 23 9 24"/>
<path d="M2378 4520l 1 1 25-1 24-2 26-1 25-2 25-4 27-4 28-5 29-6 27-6 29-6 27-5 30-5 25-3 31-6 29-4 30-4 29-5 25-5 26-5 27-4 26-2 26-3 24-4 26-4 26-4 29-6 26-4 27-3 28-3 28-3 28-2 27-2 31-2 26-1 25-1 24-1 25-4 24 1"/>
<path d="M2797 4636l 0-1 22-10 25-8 26-10 28-8 25-7 25-5 27-6"/>
<path d="M2878 4595l-3 2-23 16-17 20-15 21-8 23 0 26 18 16 24 2 27-7 24-10 23-11 23-10 25-8 26-5 26 5 8 25-5 26-11 21-15 21-20 17-22 11-24 8-25 1"/>
<path d="M6588 2998l-1 0 21 16 25 1 25 0 26 0 25-1 26-1 27-2 29-1 24-1 27 0 28-1 29-2 28 0 30-1 30-2 30 0 33 0 36-2 25 0 27-1 28 0 28-1 28-1 30 0 31-1 33 0 33-1 35 1 36 0 36-1 37 0 37 0 38 0 39 1 38 1 39 0 39-1 38-1 40 0 39 0 40 1 40-1 38 0 40 1 38-1 38 0 38 1 37 0 35 1 33 1 34 1 32 3 32 2 30 1 30 3 28 2 29 1 26 3 25 1 24 2 36 3 32 4 29 3 30 2 25 1 25 2"/>
<path d="M7608 2423l-2 0-21 11-21 20-18 23-14 22-14 27-13 30-8 23-9 24-6 26-7 26-3 24-2 33 5 28 10 24 17 23 22 15 28 6 24 1 25-7 25-7 28-14 21-14 16-23-9-25-24-16-27-9-31-4-31 0-28 3-26 6-21 16"/>
<path d="M8955 3001l 0-1 27-3 30-2 27-1 31 0 25 0 27 1 31 1 33 1 36 1 25 1 27 0 29 0 32 0 36 0 36-1 38 0 39-1 41 0 41 1 42 1 42 1 43 1 44 0 43 0 45 0 45 0 45 0 46 0 45 0 47 0 46-1 45-1 45-1 44-3 44-1 44-1 41 0 40 0 37 0 35 0 34 0 31 1 28 0 24 1 30 1 25 2 25 2"/>
<path d="M9675 2485l 0-1 25-4 28-5 28-5 27-6 28-7 28-5 26-6"/>
<path d="M9797 2451l-2 1-24 10-19 16-16 22-10 23-8 26-2 26 11 24 22 13 29 0 27-4 27-4 26-4 27-3 27-1 24 6 0 25-17 21-17 17-22 18-24 16-25 14-26 9-26 7-26 4-29-2-24-7"/>
<path d="M10980 2985l 0-1 23-5 25-4 27-2 25-2 26-1 26 1 30 0 27 0 30 1 34 2 24 0 25 0 27 0 28-1 29-1 33-1 34-1 39-2 42-3 43-3 43-4 42-3 43-3 43-4 44-3 45-3 45-3 46-3 44-3 44-3 43-2 42-2 40-2 40-2 38-2 36-2 33-1 30-2 28-1 26-2 34-2 28-1 27-2 25-2"/>
<path d="M11622 2444l 0-1-5 26-9 29-9 24-7 23-3 26 0 26 16 22 24 6 24-1 32-4 24-6 24-5 25-5 25-5 25-7 28-6 28-6 24-9"/>
<path d="M11785 2514l-2 0-21 18-10 24-6 26-6 30 0 32 3 29 7 28"/>
<path d="M6581 3699l-3 0-24 5 22 14 28 1 25 0 31-2 26-2 31-3 35-5 27-3 30-3 32-4 35-3 36-3 39-3 39 0 40-2 42-1 41 0 42 1 42 2 40 0 40 2 40 1 41 2 40 1 40 2 40 1 39 0 40 0 38 0 37 0 36-2 34-1 33-2 31-1 31-2 30-1 29-3 28-2 28-3 25-2 25-2 35-5 34-4 32-4 28-5 24-3 29-5"/>
<path d="M7412 3260l 0-4-23 9-19 20-17 23-16 23-11 25-5 25 7 25 20 15 26 6 27 1 30-3 30-4 31-4 30-6 29-6 25-6 24-7"/>
<path d="M7522 3307l-2-1-16 19-5 27-4 26-3 27-2 27 1 26 4 25 8 23"/>
<path d="M1786 6268l-1-1 24-1 25-3 32-3 24-3 27-3 33-5 36-4 26-2 29-4 29-3 32-4 34-4 34-3 36-4 38-2 40-3 40-3 40-1 40-3 43-2 43-2 45-2 46-2 44-3 47-2 24-1 48-1 25-1 24 0 25-1 24 0 48-2 47 0 46-2 25 0 45-1 44-2 45-2 41-1 41 0 40-1 34 0 35-1 31-1 31 0 30 0 27 1 25 0 32-2 27-2 24 0"/>
<path d="M2531 5662l-2-2-18 19-16 20-13 21-14 24-6 26 2 25 6 26 22 17 24 7 26 0 28-4 25-6 31-6 23-9 23-12 21-11 27-15 20-13"/>
<path d="M2644 5695l-2 0-6 23 2 29 0 30 3 29 7 30 7 31 5 24 12 29"/>
<path d="M3853 6161l-1 1 24-7 28-4 25-2 24-3 32-4 27-4 33-7 35-6 27-6 29-5 32-5 32-5 34-4 34-3 33-4 36-4 36-4 37-4 40-3 40-5 42-2 42-4 43-4 44-2 46-3 45-2 45-3 47-3 45-3 46-3 47-3 46-3 46-1 46-2 46 0 45 0 45-2 44-1 43-1 41-1 42-1 41-1 39 0 38-1 38-1 37 0 36 0 35-1 32-2 31-1 30-3 27-2 26-3 24-2 32-4 27-4 28-3 24-2"/>
<path d="M4923 5604l-1-1 20-16 27-13 27-11 28-9 28-11 24-9"/>
<path d="M4986 5562l-1 0-15 19-9 23-3 28 5 25 23 10 25-2 26-8 27-6 27-5 26-2 24 10 4 25-9 23-14 21-22 19-25 14-25 7-26 5-29 2-24-2-25 0"/>
<path d="M1727 6750l-2-1 22-12 25-7 25-5 29 1 24-2 29-1 25-2 28 0 32-1 36-2 25-1 27-1 29-2 26-1 31-2 31-2 31-3 34-1 35-3 35-3 39-1 36-1 37-2 40-3 37 0 42-2 43-2 43-1 44-2 25-2 24-1 24-2 24-3 27-2 26-1 25-2 25-1 25-1 24-2 25-1 26 0 25-2 48-2 48-3 24-2 25-1 24 0 24-2 25 0 49-3 24 0 24-1 45-1 47-1 46-2 45-2 45-1 44-2 42-1 42-1 41-1 39 1 39 0 36 1 36 1 35 0 33 0 33 1 32-1 32-1 31 0 29-1 27-1 28 0 28-2 28-1 26 0 25-1 24-2 34-1 32-3 30-3 26-4 30-2 24-3"/>
<path d="M2937 6988l-2-1-24-1-17 22-12 27-9 23-7 25-7 30-5 30 0 31 1 29 6 29 8 26 10 22 15 22 20 14 27 7 29 1 28-7 27-10 21-14 17-20-4-24-24-17-25-15-28-8-24-1-29 0-25 3-24 7-16 18"/>
<path d="M6188 6631l 0-1 27-2 25-5 28-4 23-5 26-5 29-2 25 0 27-3 31-4 25-3 28-2 27-4 30-4 31-4 35-3 25-3 26-4 28-4 30-2 31-5 30-3 31-3 30-3 31-2 32-3 33-1 32-2 32-2 32-1 34-2 34-4 35-2 34-2 33-4 33-2 34-2 33-2 33-2 32-1 32-2 31-2 31-1 30-1 29 0 30-1 30 0 28-1 29-1 28-1 26-1 26 0 25 0 25 1 25 1 35-1 34 0 34-2 31-1 31-3 28-2 27-1 26 0 26-2 30-2 26-1 26-2 24 3"/>
<path d="M7137 6847l 0 2 26-6 25-6 24-6 28-8 24-6 24-6 29-6 28-6 24-4"/>
<path d="M7258 6819l-5 2-26 11-24 14-16 20-5 24 12 24 18 16 25 3 28-5 27-4 28-1 25-1 27 2 25 9 16 19-6 24-13 20-19 23-20 17-24 14-27 12-29 10-28 4-28 0-28-4-28-8-25-15-25-18-25-19"/>
<path d="M6136 6024l-1-1 24-1 26-5 24 0 26-1 29-1 26 1 28-2 24-3 25-5 27-5 29-6 30-4 30-4 30-4 30-4 30-4 33-4 33-3 36-3 26-2 27-2 28-3 30-2 29-2 31-2 32-1 33-1 33-2 34-1 34-2 36-1 36 0 37-1 37-1 37-1 35 0 37-1 35 0 36-1 36 1 34-1 36 0 35 0 35 0 37-1 36-2 37-1 36-3 36-2 35-1 36-3 35-3 35-2 36-2 34-3 34-2 33-2 32-2 33-3 31-2 31-1 31-2 29-1 28-1 26-2 27-1 27 0 25-3 25-1 25-2 24-3 24-3 35-3 33-3 33-4 31-6 31-4 30-3 26-3 26-2 30-2 27-1 29 0 28 0 25 0"/>
<path d="M7375 5266l 1-2-18 23-14 24-15 27-16 31-11 22-10 22-9 23-13 33-9 34-7 32-3 30 1 26 5 26 13 25 23 18 25 7 30-3 25-6 25-7 24-12 20-14 19-17 12-23-11-26-21-20-24-15-28-10-28-8-26-4-24 3-25 6-24 16"/>
<path d="M8334 6513l 0 0 24-8 26-6 29-5 29-3 27-2 25-3 28-2 30-1 31-2 32-2 33-2 34 0 37-1 26-2 28-2 31-3 31-1 34-3 33 0 33-3 34-1 35-2 37-3 34-2 35-2 34-3 33-2 33-1 31-1 31 0 29 0 30 0 29 1 28 1 27 1 26 1 25 2 25 1 24 1 33 2 30 3 25 0 29 1 29 2 25 3"/>
<path d="M9008 6695l 0-1-21 12-11 24-7 23-9 27-6 23-1 25 11 22 24 14 25 4 26 1 30-5 29-10 24-6 23-6 29-6 25-5 25-7 23-7"/>
<path d="M9137 6726l-2 0-11 21-1 27 2 30 2 26 4 28 4 25 2 29 0 25 0 25-1 24"/>
<path d="M10165 6113l 0-2 24-1 24-2 31-5 30-6 27-7 29-5 31-6 30-5 28-5"/>
<path d="M10150 6235l-1-1 24-6 24-6 28-8 30-9 25-5 25-7 28-7 25-6 25-6"/>
<path d="M10375 5984l-1-1 21 15 22 11 24 8 28 6 26 7 22 10 24 12 22 15 16 18-6 24-17 17-17 17-21 17-24 16-26 18-25 19-24 17-20 16-17 19-12 21"/>
<path d="M11037 5891l-1-1-2 28-3 25-2 27-4 29-5 33-6 34-8 36-10 34-11 34-13 32-12 28-12 25-8 22-6 25"/>
<path d="M11431 5906l-1-2-20-15-26 0-26 3-30 9-24 9-23 8-26 13-20 13-21 17-13 25 7 27 23 19 27 15 25 10 26 8 30 8 25 7 22 11 18 16 19 22 10 25 1 25-7 26-12 23-14 23-18 22-19 19-21 17-23 11-29 8-27-3-23-13-16-27-5-25 0-30 5-32 7-24 8-23 10-22 18-30 19-27 23-24 17-17 18-16 19-17 27-19 28-16 29-12 28-9 24-5"/>
<path d="M1896 9220l 0-1 25-6 25-2 30-2 31-3 31-1 34-5 27-2 26-4 31-4 32-4 34-4 38-4 38-5 40-4 42-4 41-6 44-4 44-5 44-5 47-4 46-3 24-2 47-5 25-2 26-2 25-3 25-4 25-1 24-2 26-2 25-1 26-2 26-1 26-2 25-2 25-1 25-2 26-1 27-2 25-1 27-1 27 0 27-2 28-1 26-2 28-1 25-2 27-1 26 0 26-3 27 0 25-1 25-1 26-1 25 0 25-2 25-1 24-1 25-1 25-1 25 0 47-1 46 0 45 0 42 1 40 1 38 2 38 3 34 2 32 2 31 3 26 3 27 3 25 4 34 3 32 4 26 3 30 4 25 2"/>
<path d="M3130 8670l 0-1-20 18-10 25-9 23-8 27-6 29-5 24-1 28 8 25 17 22 27 9 27-1 28-6 22-10 18-17 4-26-16-18-22-10-24-1-25 1-25 8-20 16"/>
<path d="M1871 9684l 0-1 22-13 24-5 27-4 31-5 24-4 26-3 27-4 30-4 33-3 33-4 24-3 27-5 29-3 31-4 32-4 31-4 34-4 32-4 35-5 33-3 35-4 36-6 36-2 36-5 36-6 36-3 37-5 39-3 39-4 39-3 37-4 38-3 37-2 38-3 35-2 36-2 34-1 34-2 32-2 33-1 32-1 32-1 31-1 28 0 29-1 25-2 27 0 26-3 34-1 31-1 30-1 28-1 26-2 30-3 30 0 28-2 24-4 25-3 26 2 25-2 24 0"/>
<path d="M2754 9776l 0-1 24-7 25-6 27-5 27-8 27-11 25-2"/>
<path d="M2808 9766l-2 1-15 19-6 25-1 24-3 27-1 26 4 24 17 17 27-5 25-10 22-9 26-9 29-10 28-3 26 1 22 9 16 19 2 26-9 23-15 19-18 20-18 16-23 14-25 9-25 8-27 4-28-2-25-4-26-6-25-8"/>
<path d="M3967 9514l 0 1 23 10 27-1 25 1 24 1 24 0 28-1 28-2 26-2 27-2 26 0 25-3 27-1 26 1 27-2 29-4 33-4 32-4 24-3 30-2 24 0 25 0 26 0 25 0 27 0 29-1 31-1 28 0 28 0 27-1 26 0 26-1 26 0 26-1 26-1 27-1 27-2 26-3 26-1 27-1 25 0 25-2 25-2 24-2 26-2 25-5 25-2 29-2 27-2 26 0 25-2 28-4 25-1 26-1 26 0 25 0 25 1 24-4 24 2 24-4"/>
<path d="M4604 9719l 1 0-12 23-13 21-15 23-11 23-9 23-5 24 16 20 21 10 26 0 26-3 26-6 26-8 31-11 22-8 24-8 29-9 26-8 24-6 28-5 24-6"/>
<path d="M4787 9755l 0-1-17 21-5 23-3 24-1 28 1 25 0 31 1 30 2 25 0 28 3 25 3 24"/>
<path d="M4484 9128l-1 0 25-4 26-3 28-2 27-3 26-3 30-5 27-2 29-1 29-1 30-1 29-2 34-2 25-2 25-3 28-3 27-3 29-2 28-2 28-1 28-1 28-2 28 0 30-2 30-3 31-2 29 0 30-2 28-1 29-2 29-1 30-3 30 0 30-1 29-2 29 0 31-1 29-2 29-1 30-2 28-1 30-2 29-1 28-2 26-1 25-2 25-1 24-3 35 0 32-2 32 1 30-2 28-2 26-2 26-2 31-4 28-2 26 0 28-1 25 0 26-1 24 0"/>
<path d="M5275 8614l 1-1 23-6 24-6 28-5 25-5 29-5 27-6 24-3 25-3"/>
<path d="M5348 8603l-2 0-22 10-16 23-9 24-7 25-5 25 12 21 25 0 26-5 28-9 28-7 25-9 26-9 25-2 24 1 13 21-9 23-14 21-20 21-20 18-23 13-24 9-29 6-29-2-27-4-27-3"/>
<path d="M5636 9468l-1-1 26-4 23-9 24-5 24-6 28-1 27 0 25-1 27 0 31-2 27-1 31 1 37-2 25-2 28-3 27-1 29-1 29 0 31-1 32 0 32 0 33 0 33 0 34-2 35 0 35 0 34 0 36 0 37 0 37-1 37 0 38 0 37 0 38 1 36 1 35 1 36 2 35 1 34 1 34 2 34 2 33 1 33 3 33 2 32 1 32 1 33 3 31 1 31 2 29 1 29 2 28 2 28 1 27 1 26 2 25 2 35 1 34 2 30 1 28 2 26 2 30 0 27 0 29-4 24 0"/>
<path d="M6343 9543l 1-2-24 6-15 19-17 28-14 24-11 26-11 32-9 31-7 31-4 31-3 28 1 25 7 25 12 22 20 21 24 10 26-3 27-9 23-13 20-17 15-23-1-26-15-21-18-16-23-11-24-4-26 0-26 9-22 11-22 15"/>
<path d="M6386 8998l-1-1 25-1 25-1 25-5 31-1 31-3 26-3 30-3 33-2 35-1 24-1 26-1 26-2 28-2 29-1 30-3 30-2 30 0 32-3 32 2 33-2 33-1 35-2 35-2 37-1 35-2 36-1 35-2 33-1 33-2 32-2 32-2 30-2 30-2 28-1 28-2 25-1 25-2 35-3 34-1 31-1 29-3 25-3 28-3 26-6"/>
<path d="M7047 8673l-1 0-22 12-12 21-3 27 1 27 9 24 18 19 27 9 28 3 25 0 26-2 26-3 25-4 24-3 26-6 26-8"/>
<path d="M7181 8689l-1 0-10 23 0 27 1 26 2 30 4 30 6 29 9 28"/>
<path d="M7468 9482l-1-1 20-14 24-2 25-6 25 0 24-1 28 1 27-4 27-3 26-3 23-9"/>
<path d="M8162 8976l 1-2 24-8 26-7 29-6 25-4 28-6 31-6 30-7 28-6 24-3 26 2"/>
<path d="M8207 9048l-5 2-22 11 25 7 24-1 30-6 25-6 24-7 25-6 25-8 25-6 31-7 26-7"/>
<path d="M8392 8897l-1-1 24-5 25 0 28 1 29 4 31 5 30 5 26 5 25 9 20 17-8 24-21 21-22 17-24 17-23 17-22 13-20 15-22 15-17 17"/>
<path d="M9003 8748l 1 0 17 18-3 29-4 30-6 25-7 28-7 28-7 29-6 27-5 25-6 25-3 28-1 26 10 22"/>
<path d="M9234 8717l 0-2 25-10 25-9 23-8 27-7 29-9 28-7 26-8 25-8"/>
<path d="M9304 8736l-2 2-18 17-19 21-16 19-13 22-2 26 19 17 24 2 27-5 27-7 28-9 30-7 29-6 27-6 29-3 25 1 18 17-3 27-11 24-13 21-16 22-17 22-17 22-20 17-22 15-27 11-29 5-27 2-24-1-26-6-25-8-18-17"/>
<path d="M2093 12168l-1-3 9-24 6-27 3-24 0-25-16-18-29 4-24 19-17 24-19 28-18 31-17 32-14 32-11 33-7 29-2 28 4 26 16 20 28 1 23-10 22-18 16-17 15-19 19-24 13-24 9-26 3-25-5 24 5 25 11 23 25 2 21-17 18-16 18-22 16-28 14-21 12-25 13-28 11-30 11-30 7-35 8-34 4-26 3-25 3-26 1-28-1-27-1-28 1-27 0-26 2-34 0-27 0-26-18 25-7 28-6 24-7 26-5 31-7 32-8 37-8 40-9 40-9 42-8 42-8 42-7 39-5 36-3 32-2 27 1 25 5 29 7 24 13 20 22 10 25-6 22-17 18-20 20-23"/>
<path d="M2405 12090l-1 0-15 22-7 28-2 24 5 28 13 21 24-8 19-22 14-20 14-21 3 25 6 26 9 26 16 19 25 9 24-3 17-17 12-22 9-24 7-27 1-27-1-24-9-27-13-21-24-1"/>
<path d="M2809 12133l-2-3-18-20-22-16-24-9-24 13-16 18-17 25-13 23-8 24-2 25 14 22 27 6 24-10 20-15 22-19 14-19 2-25-22 9-7 24 9 25 20 17 24 0 23-12 18-18 16-20 14-25 12-24 7-24-15 24-6 27-3 28-1 25 3 25 15 20 27-12 17-17 18-24 12-22 12-23 10-21 9-23 9-25 9-30 4-25-8 26-5 24-4 26-2 29-3 30-3 32-1 35-2 25-1 25-2 26-2 27-2 29-1 28-2 30-3 29-2 30-4 28-5 26-5 28-8 26-7 24-10 33-12 24-16 25-22 9-13-22-7-25-3-31 0-25 1-27 1-28 3-26 4-27 5-28 7-26 7-25 8-25 9-23 11-22 11-23 17-29 17-25 17-23 18-21 16-19 22-19 21-12 19-18 22-13 16-22 15-25 13-25 11-24 9-23-6 25 5 25 12 26 13 21 18 22 15 25 4 26-10 23-17 20-23 11-28 7-25 1-26-4 19-15 28-10 23-7 30-3 24-2"/>
<path d="M3879 12112l-2-2-11-23-11-23-13-22-16-19-23-6-22 17-20 20-17 26-10 23-8 24-7 29 1 26 17 21 28-2 26-12 25-15 21-20 19-19 18-20 5-23-19 16 2 27 10 22 23 14 26-6 19-20 16-22 10-22 7-26-25-1-5 24 2 27 6 23 23-7 18-19 17-21 13-22 12-25 12-22 15 22 4 28 4 25 7 26 20 13"/>
<path d="M4957 12038l-1-3-13-20-25-7-25 1-27 8-23 16-17 16-17 22-16 25-16 28-12 29-7 26-2 30 13 24 29 6 26-5 22-10 23-13 22-15 18-16 20-22 11-22-11-25-22-13-2 26 13 21 22 16 24-4 24-13 21-17 21-22"/>
<path d="M5076 12002l-2-1 24 6 25-1 25-2 20 12-16 22-20 19-20 16-21 19-20 19-16 19-16 19 14 22 28-3 23-7 25-11 20-13 27-18 19-17 20-16 18-17 19-19 14-20 6-25-14-20 26-4 25-9 26-3 18 17-15 21-18 18-18 16-19 19-16 18-14 25-9 22 8 24 25 8 26-4 24-9 28-12 29-12"/>
<path d="M5524 12020l-1-1-19-16-25-6-26 10-22 14-21 18-16 20-12 23 9 24 26 0 27-7 25-10 23-12-12 22 8 24 25 5 24-10 23-18 16-20 14-23 10-24-21 12 1 25 12 22 25-8 20-16 20-18 20-13 9 23 7 26 13 21 25-1 25-4"/>
<path d="M5905 11997l-2-3-16-19-19-18-24-13-25 5-21 17-17 25-13 22-10 22-9 28-1 27 14 25 25 9 26-3 30-9 25-17 20-18 16-20 11-24-25-3-11 22-7 26-6 28-4 28 0 28 1 27-1 29-3 24-6 25-6 25-9 30-11 26-14 22-18 19-21 12-26-3-21-19-9-24-4-27 1-29 6-32 10-24 13-24 16-24 21-26 22-27 24-25 23-25"/>
<path d="M5958 12005l-1 0 21 14 26-10 23-10 21-11 9-23-23-14-27 0-23 11-22 15-19 20-13 25-7 25 5 28 17 19 25 10 30 2 25-6 26-11 26-13 22-13 19-17 16-19"/>
<path d="M6148 11940l-1-2-3 26-1 26-6 24-8 25 22-15 13-20 14-22 15-22 16-18 8 27-7 23-4 27 25 6 18-20 18-22 15-23 14-21 7 27-5 24-1 24 6 24 25-1 24-10 22-12"/>
<path d="M6443 11945l-1-1 24-12 23-11 21-16-3-24-26-9-27 0-22 12-20 21-14 25-8 28 1 28 13 26 22 13 28 4 26-6 23-10 23-13 22-18 21-20 19-19 16-21 6-24-24 8-10 22-4 27-1 25 24 0 17-19 16-19 15-20 15-19 2 25 0 28-1 25 17 16 26-4 23-11"/>
<path d="M6876 11663l 0-1 5 24 3 26-1 24-6 28-10 30-9 25-10 25-11 26-11 26-8 26-7 28 0 25 10 23 25 13 24-5 24-11 24-12 22-20 18-24"/>
<path d="M6757 11809l-2 0 25-11 29-12 31-10 23-8 25-8 27-7 28-9"/>
<path d="M7072 11630l-1-1 26 2 23 5 23 13 18 17 5 25-11 22-15 20-18 23"/>
<path d="M7041 11919l 1 2 12 21"/>
<path d="M2193 14067l 4 1 24 1 27-1 31 0 28 3 31-2 36 0 25-4 27-1 29-2 30 0 33-3 35-2 35-2 39-6 40-2 41-1 43-2 44 0 44-1 46-2 47-3 24-1 25-1 25-1 26-1 26 0 26-2 25-1 27 0 26-1 27-2 29 0 27-2 29-1 29-2 28 1 30-2 29-2 31-1 29-3 31-1 30-3 29 0 31-4 32-2 30-3 30-2 31-2 32-2 32-3 32-2 31-3 32-2 32-3 33-2 31-2 32-2 33-3 32-3 32 0 32-2 33-2 31-2 34-2 31-3 32-2 32-1 31-4 32-1 31-3 30-1 31-2 31-2 30-1 30-3 31 0 29-2 30-2 30-2 29-1 29-2 28-1 28-2 28 0 28-1 27-1 26-1 27-1 25-1 25-2 24 0 24-3 25-1 44-2 43-1 41-1 39-2 37-1 36-1 32 0 29-1 27 0 35 1 30 3 24 3 24 5 22 10"/>
<path d="M3753 13549l 0-5-5-25-18-18-22-14-25-4-24 2-24 5-23 13-17 17-1 25 14 20 18 20 22 15 26 15 27 14 22 11 22 11 25 15 20 17 13 22 4 27-8 26-16 26-20 23-21 20-21 16-28 9-26-2-24-9-21-20-12-23-8-25 0-29 8-28 13-25 16-19 21-23 24-20 28-16 22-10 24-12 27-6 25-3 24 1"/>
<path d="M5659 13963l-3-1 25-10 25-1 28 0 30 0 29 5 26 1 29 2 31 1 34 1 37 4 24 1 27 2 28-2 31 1 32 0 33-2 34 0 35 0 37 0 37 0 39 0 39-1 39-1 40-2 41-1 41-2 41-1 43-3 43-2 42-1 42-2 43-2 41-2 41-2 40-2 39-1 39-2 37-2 36-1 35-2 31 0 29-1 27 0 25 0 33 0 26 1 25 3"/>
<path d="M6479 13591l 0-2 17-21 26-9 24-6 29-4 26 0 27 0 26 0 28 5 23 10-5 25-23 18-21 13-22 13-22 13-24 9 26 6 28 1 24 7 25 9 27 9 23 13 14 20-9 22-20 16-27 10-25 9-27 6-27 3-28 2-27 1-25-2-25-2-30 0-25-2-22-12"/>
<path d="M7481 13932l 0-1 27-7 25-6 27-3 30 0 25-2 30-1 32-2 36 0 24 0 24 0 25 0 25 0 26 0 26 0 27 1 27 0 28 0 29-1 30-2 29-2 30-1 28-3 29-1 28-1 26-1 25 0 34-3 30-1 25-2 28-1 25-2-26 0"/>
<path d="M7866 13532l 0-1 21-15 29-3 28 2 26 3 26 7 26 9 24 11 25 14 19 19 9 24-12 22-18 18-25 16-23 13-28 12-29 10-27 11-24 8-28 11-24 7 24-2 28-5 30-3 31 1 30-2 26-2 27 2 26 5"/>
<path d="M2134 14856l 2 0 24-6 25-5 24 0 27-3 28-3 25-3 28-3 28-2 28 0 31-2 29 0 30-3 30 0 36-3 25 0 25-2 25-2 25 0 25-2 25 0 26 1 26-1 25 0 28-1 28-2 28-1 30-2 28 0 29 0 29 0 28-1 28-1 28 0 27 0 26 1 25 0 24 0 24 0 34 1 30 0 29-1 29 0 25 0 30 0 26 1 25 2 24 4 23 6"/>
<path d="M2655 14989l-1 0 24-13 29-3 26-3 26-2 24 0 25 7 22 10-7 24-23 17-22 14-22 13-22 13-25 6-23 10 27-3 27 1 24 3 27 4 29 3 27 2 26 7 15 20-12 21-17 17-22 13-27 9-29 11-23 9-29 4-25 1-26 4-24-8"/>
<path d="M3545 14850l 1 1 26 2 25 2 26 1 29 0 31-1 26-2 31-1 33-1 24 0 24 1 25 0 35 0 25-2 25-1 37-1 25 0 25-1 27-2 24 0 33-3 30-1 28-2 30-2 26 2 27 0"/>
<path d="M3808 14987l 2-1 23-7 25 0 29 3 23 7 24 7 19 15 3 25-13 23-19 22-20 16-24 14-27 14-27 12-26 11-24 11 25 1 26-2 25-1 29-3 26-2 27 0 25 0 25-1 26-3"/>
<path d="M5504 14834l 0-1 24-7 26 0 26-3 27 0 27-2 26-4 25-2 26-2 24 1 29 0 26-3 28-3 31-1 25-1 26-2 29-4 30-3 32-2 33-2 34-3 34-2 35-2 25-1 25-2 27-1 27-2 28-1 28-3 28-1 29-2 29-2 30-3 30-2 32-2 32-3 33-1 33-2 32-4 34-1 35-4 34-4 36-2 36-5 34-3 36-3 36-3 36-2 36-3 37-3 35-2 37-5 36-3 36-2 38-3 37-2 37-1 38-2 36-1 36-2 37-1 37-2 36 0 37-2 37-1 36-2 37 2 36-1 38-1 37-1 37-2 35-1 36 0 36-2 37-1 36-1 36-1 37-1 36-1 36-1 35-1 36-1 36 1 35-1 34 0 34 0 34 0 34 0 34 0 35 0 34-2 35-1 35 0 34-1 35-2 35-1 35-2 36-1 35 1 34-2 34-1 34 0 34 0 34-1 31-2 32-1 30-1 30-1 30 0 29-1 27 0 28-2 27-1 24-1 35-2 32-1 29-1 28-1 25 0 28 2 25 0 26 0"/>
<path d="M7466 15018l 1-1 5-26-4-24-19-20-22-9-27 1-29 4-25 7-19 16 6 25 16 20 19 16 22 15 26 15 25 13 22 15 20 21 11 23 2 26-5 26-11 23-18 22-19 18-21 16-23 11-28 5-26-4-21-16-9-27 2-26 8-26 15-27 18-26 17-19 19-17 19-18 20-17 22-16 22-12 25-11"/>
<path d="M10155 14175l 0-1 21-16 26-10 26-9 32-4 25-3 25-2 25-2 31 0 27 3 27 2"/>
<path d="M10184 14252l-2 0 25 2 29-1 24-3 28-3 28-4 26-6 25-5"/>
<path d="M10382 14102l-1-1 23-8 24 2 28 7 24 6 25 7 22 10 24 10 19 15-2 25-22 15-22 12-24 14-21 12-28 13-25 15-21 14-19 17"/>
<path d="M10776 14003l 0-1-7 28-4 27-3 26-3 27-3 27-4 27-5 28-5 27-8 26-7 25-10 30-7 26-5 25"/>
<path d="M11028 13987l-1-1-19 17-13 21-15 29-15 25-14 30-12 32-5 23-6 32-2 27 2 26 8 27 14 23 19 16 27 11 30 1 25-5 24-9 23-14 14-24-1-29-9-23-16-23-19-19-22-13-25-2-22 11-18 16-18 18-14 21"/>
<path d="M2412 18013l 1 0 25 4 24 1 29-2 29-5 25-6 27-3 29-3 31-3 32-3 34-3 24-4 26-3 27-3 29-3 29-3 30-3 34-4 32-4 33-5 35-4 35-4 36-4 36-3 37-4 38-4 39-4 40-4 42-5 42-4 42-4 42-2 41-4 43-3 43-4 45-3 42-3 44-2 44-1 44-2 46-3 44-3 44-4 45-3 44-3 43-3 44-3 42-3 44-3 44-4 44-3 43-4 43-2 42-3 42-2 43-1 43-2 41-2 41-2 39-3 41-1 41-3 42 0 41 0 39-3 39-1 38-5 38-3 37-3 37-2 35-2 34-2 33-1 32-3 32 0 31-2 31-2 29-3 28-3 27-2 25-1 33-2 31-2 26-2 31-4 28-2 27-5 24-4"/>
<path d="M8210 18725l-1 1 24 5 25-1 28-3 25-2 27-1 30-2 25-2 26-1 27-1 27 0 28 0 28 2 29 2 34 0 35 1 24 0 24 1 25 0 27 1 26 2 28 1 28 1 30 1 28 1 31 2 31 0 31 2 32 0 31 0 34 1 34 2 34 1 34 2 35 1 35 1 35 0 37 1 37 1 37 0 38 2 38 1 38 0 40 0 41 0 40 1 41 0 40 0 40 1 41 0 41 0 40-1 40 1 39 0 40 0 40-1 39 1 40 0 39 0 37 1 38 0 37 1 37 0 37 2 36 0 37 1 35 0 35 0 34 0 35 0 33 0 33 0 33-1 30 0 30-1 30 0 29 0 28 0 27 0 27-1 26 0 26 1 35 2 31 0 28 1 26 0 26 1 29 2 25 2 25 0 24 1 24 2"/>
<path d="M3752 17324l-2-1-6 24-7 24-6 29-6 25-5 26-5 26-5 25-5 25-6 30-3 25 12 21"/>
<path d="M3866 17365l-2 1-15 20-8 26-5 24 3 27 18 20 27 9 27 0 30-8 23-9 26-15 21-21 10-23-2-27-13-23-19-18-23-11-27-5-24 5-22 10-18 20"/>
<path d="M9771 19035l 0-1-17 17-12 23-8 22-8 25-8 27-9 25-8 26-5 25-2 24 18 16"/>
<path d="M9939 19047l-2 0-18 15-16 21-9 27 0 26 9 23 19 20 26 13 26 6 27-2 28-8 27-12 18-16 13-24 0-26-13-22-16-18-19-18-22-11-25-5-22 13"/>
<path d="M5709 17325l-1 0 1 28 2 30 3 31 3 28 2 26 2 25 5 31 2 27 4 28 17-21 2-32-2-31-3-28-5-23-11-23 25-6 26-4 25-6 25-7 23-6 26-6 29-3 25-3 26-1 27 1 29 0 29 2 25 1 25 0 29 0 32 0 35 0 35-1 25-1 24-2 25-2 26 0 26-3 26-1 26 0 25 0 25 0 25 1 25 2 24 2 24 5 24 3 25 3 26 4 26 2 27 3 26 2 26 0 27 1 26 1 27 0 27 0 27-1 28 0 26 0 28 0 27 0 28-1 26-1 27-2 26-2 27-2 27-1 26 0 26 0 24 0 25 0 24 0 36 1 24 2 34 3 34 3 33 0 32 3 30 1 28 3 27 1 26 2 27 1 26 1 25 1 25 0 24-2 29 0 28 2 25 0 29 1 26-1 26 3 27 3 24 2 25 1 24-6 24-3 24 1 25-4 25 5 24-2 25-2 25 0 24 3 26-1 25 1 24 2 24 2 24 6 25 1 25 0 25-1 25-2"/>
<path d="M8381 17255l-1 1 3 25 1 24 4 28 4 26 3 27 5 31 4 25 4 31 3 27 3 25 3 25 3 25 1 24"/>
<path d="M7168 16858l-1-2-5-24-15-22-20-16-26-9-24 1-26 9-21 15-19 18-15 22-8 25 7 25 24 9 27-5 25-9 25-13 24-13 21-13 22-16-4 25 2 24 8 28 7 24 6 25 5 26 3 27 2 28 1 27-1 29-1 25-3 25 6 24"/>
<path d="M2387 18904l 2-1 0 26 2 28-4 28 0 27-3 26-1 25-4 28-3 26 22-14 10-24 6-24 3-26 19-16 24-2 26-1 24-3 28-4 25-3 28-3 27-3 31-4 25-3 26-3 29-4 28-3 33 0 32-3 33-3 32-3 34-1 24-2 24-1 25-1 25-1 35-2 25-1 25 0 25-2 25 0 25 0 24 0 27 0 26 0 26 0 27-1 26 0 25 1 25 1 27 1 25 0 25 2 25 1 34 2 24 1 24 2 25 1 34 3 34 0 31 2 33 1 33 1 32 1 31 1 29 0 29 0 28-3 28 0 26-1 25 0 30 1 29 2 26 1 29 0 28 3 28 0 26 2 25 5 24 0 23-10 23-9 24-4 26-4 26-1 25 0"/>
<path d="M4401 18863l-1-1 0 28 4 25 5 27 0 25 3 26 1 24 2 25 7 23"/>
<path d="M3413 19267l 0-2-2-27-19-19-27-3-25 10-23 16-19 18 15 19 25-6 25-14 25-10 4 26-6 24 0 27 2 26 5 26 5 26 4 26 2 25 1 26 8 23"/>
<path d="M7929 11957l-1 0 3 24 3 28 5 29 7 24 10 27 15 25 18 16 27-8 14-25 11-28 8-23 7-24 8-26 7-29 6-30 5-33 5-30 3-31 3-29 3-27 3-25 5-33 5-29 6-29 6-24 0 24"/>
<path d="M8344 12155l 0-1-12 24-15 24-13 24-17 26-15 26"/>
<path d="M8732 12055l 1-3 14-21 10 25-4 26-4 28 2 25 25 3 23-19 22-22 17-19 17-21 16-22 18 18 17 18 27-2 19-16 21-18 19-24 13-23 7-25-17 17-7 26-5 25 0 24 26-12 15-21 16-22 10 23 9 23 24 4 24-5 25-2 18-17 15-21 15-20 17-25 15-24 16-26 15-26 14-29 12-30 8-30 5-26 1-29-4-27-8-26-17-17-27 13-16 21-15 21-13 25-13 27-10 30-8 33-5 30-4 31 0 31-1 28 2 28 3 25 6 27 12 25 22 13 24 0 23-9 24-19"/>
<path d="M9305 11972l-1 0 27 2 23-10-15-19-24 10-20 15-11 22-6 23 6 24 19 17 25 4 24-5 26-13 25-18 19-16 16-18 18-23 13-23 4-25-23 9 5 27 18 19 22 15 22 13 9 23-19 17-22 8-25 2 25-8 24-8 26-9 23-11 25-12 24-16 18-18 15-21 1-25-25-6-7 24 16 19 22 9 25 7 25 8 8 23-19 17-24 12-23 10-24 8 24 4 27-4 25-4"/>
<path d="M10306 11802l-1-2 5-26 26-14 31-12 27-7 30-5 30-1 30 0 28 6 25 9 25 17 16 23-2 26-15 26-19 22-25 24-19 16-19 16-21 18-19 15-21 16-20 15-29 20-27 18-22 16-22 15-19 16 27 1 28-6 27-8 28-9 31-9 28-8 25-7 31-6 26-3"/>
<path d="M10697 11886l 1-3 10-23 26-5 21 14 20 22 14 22 11 25 11 25 14 23 14 20 21 14 28 0 22-10"/>
<path d="M10901 11838l-2-1-26 3-24 15-21 19-17 18-21 21-22 24-22 25-21 24-18 23-17 22"/>
<path d="M11369 11906l 0 1-11 26-9 24-7 29-6 26-6 29-8 32-8 33-5 23-9 34-7 32-7 25-6 28 19-19 15-31 10-26 9-27 7-28 7-28 5-26 4-24 4-30 2-24 2-26 3-25 7-24 12-21 19-18 25-15 26-12 24-5 26 3 24 9 22 13 16 22 2 28-12 28-22 24-20 20-24 17-23 14-24 10-31 9-24 1-20-14"/>
<path d="M11675 11602l-1-1-4 24-1 25-1 32 1 27 1 28 1 29-2 31-5 32-7 33-7 30-8 30-9 25-12 29-13 23 14-22 18-24 21-26 22-26 22-23 19-18 24-19 20-16 4 25-8 26-10 24-9 23-3 27 11 23 27-2 25-12 22-17 21-17 25-4 25-2 25-8 25-10 22-13 13-22-19-14-26-2-24 10-22 17-14 20-8 27 0 25 19 21 24 8 30 1 32-5 30-7 34-7 23-5 24-7"/>
<path d="M12083 11863l-2-2 0 25 4 29 0 25-4 24 16-21 15-22 14-20 17-21 20-22 19-18 21-16 25-8 7 24-4 26-12 24-11 23 20 14 26-9 24-10 25-14 21-16 17-17-16 19-6 25 15 21 26 1 23-9 17-18-15-22-23-10 16-22 25-11 25-10 25-4 19 16-5 25-11 24-14 21 26-14 18-19 20-19 19-19 19-17 7 24-2 25 24 5 24-12 21-15 18-16 20-15 16 20-1 26-5 29 1 25 12 22"/>
<path d="M13012 11825l 0-1 2 24 9 22 15 23 16 19 20 17 27-3 19-15 19-20 21-25 15-19 15-20 15-22 14-21 13-22 12-23 10-22 11-24 13-32 11-29 9-28 11-23"/>
</svg>
