<svg xmlns="http://www.w3.org/2000/svg" viewBox="1091 4473 8589 8442" stroke="black" stroke-width="16" stroke-linecap="round" stroke-linejoin="round" fill="none" data-xena="0 0 0"><style>@media(prefers-color-scheme:dark){svg{background-color:black;stroke:white;}}</style>
<path d="M1744 4849l-1-2 18-22 25-15 25-11 28-11 31-12 32-12 30-10 27-7 25-3 29 1 23 7 20 16 12 23-7 29-15 24-16 18-19 17-20 17-22 16-23 13-22 10-25 12 25-3 26-3 30-3 32-3 27-1 31 0 29 4 26 5 23 7 26 12 23 20 6 28-6 26-9 24-16 27-19 29-17 19-16 18-26 25-19 15-29 20-28 18-28 16-28 14-24 8-26 4-30 0-29-9-18-17-8-25 9-26"/>
<path d="M2886 4785l-1-2 12-24 24-13 26-9 25-8 30-4 24 0 25 2 30 10 26 15 17 20 11 23 8 26-3 31-12 28-15 28-19 27-22 29-19 19-21 21-21 20-23 19-22 18-22 16-22 16-21 14-29 16-22 13-22 13 25-1 25-6 26-4 27-6 24-4 28-3 31-3 27-3 26-1 25 0 26 1 30 5"/>
<path d="M4089 4666l 0 0-8 23-12 28-13 27-12 23-13 21-15 24-14 24-17 27-13 26-13 24-9 24-6 24 25 13 26-3 24-4 28-9 28-8 28-9 29-9 30-10 28-8 26-6 24-6 30-4 27-2"/>
<path d="M4191 4794l-2-1-15 21-3 28 0 32 0 25 1 25 0 24 2 30 3 27 2 25"/>
<path d="M5176 4672l 1-1 22-10 22-8 25-7 29-4 28-5 28-5 23-5"/>
<path d="M5264 4641l-4 1-24 10-24 16-19 21-18 25-10 24-6 26-6 26-6 24-3 29 3 24 18 19 28-3 29-7 27-8 26-8 28-5 25-1 31 1 28 2 24 6 23 14 19 17 9 25-6 26-16 22-21 25-19 17-22 16-25 14-24 14-29 11-28 7-28 4-25 1-31-6-23-9-19-16-8-25"/>
<path d="M6386 4697l 0-2 1 25-4 29-5 31-6 25-6 26-7 29-8 28-7 28-8 26-5 24-6 24-6 28-4 26-4 26"/>
<path d="M7035 4744l 1-2 24 6 3 24-1 26-4 26-5 29-6 32-4 26-6 30-7 28-6 26-7 25 1 25"/>
<path d="M7881 4641l 0-1 27 1 26 2 25 0 26-2 26-3"/>
<path d="M7909 4660l-2 0-21 12-19 19-17 23-13 26-8 23-6 26 0 26 13 21 29 4 30-9 30-9 23-7 29-8 25-5 30-3 28 1 25 5 24 10 23 15 19 21 3 24-12 24-19 19-20 16-21 15-22 13-24 12-25 11-26 10-27 8-28 5-27 3-24 1-26-4-20-15 6-29"/>
<path d="M8927 4594l 0-2 22-14 26-2 28 0 24 1 26 3 30 5 29 6 28 8 29 11 22 12 19 17 8 27-9 27-24 21-28 16-24 12-25 10-25 9-27 6-24 7 25 13 27 5 26 6 25 7 25 6 24 7 25 13 18 18 10 24-9 25-24 14-23 9-26 9-29 4-29 0-28-1-27-4-27-8-22-16-19-19"/>
<path d="M3014 5505l 0 0-8 26-6 26-7 26-5 24 12 21 25-2 26-4 24 0 25-2 26 2 27-3 27-3 24-3 24 0 30-3 26 0 24 2 26 1 28 1 30 2 31-1 32 1 24 0 26 1 27 2 29 1 29 2 30 1 29 0 27 1 30-1 31-1 34-1 34-2 35-1 24-1 26-1 26-2 25-1 27-2 27-1 29-3 28-1 28-1 29-2 28-1 31-2 30-1 31-2 29-1 31-2 32-3 30 0 32-3 32-2 32-2 33-4 32-2 33-3 32-2 33-1 32-2 34-2 32-2 34-2 34-2 34-2 34-3 32 0 33-2 32-2 33 0 33 0 32-1 31-1 31 3 31-1 29 0 30 0 25-3 27 1 28-1 26 0 27 0 27 0 25 0 25 0 25 0 35 0 25-1 24-1 25-1 34-3 33 0 33-1 32-2 33-2 31-2 31-2 29-3 28-1 28-3 27-2 26-1 25-3 30-2 26-3 30 0 28-1 25 0 24 0 25-6 24-6 25-2 25-3 24 1 25-3 25-3 24 0 26-4 11-24 2-25-2-25"/>
<path d="M4304 5937l 0 0 23-11 24-8 26-5 27-7 26-5 24-9"/>
<path d="M4363 5854l-1-1 3 28-1 27 1 25 0 26 0 24 1 26"/>
<path d="M4625 5733l 0 0 2 28 4 29 2 30 0 26 0 26 0 26-1 26 0 24 0 26-2 25"/>
<path d="M1884 11412l 2-2 26-9 27 0 31-1 25 0 26 3 28 0 28 3 30 4 21 14-6 25-23 21-26 15-21 13-21 14-21 14-20 16-20 12-30 18-26 16-24 13-20 15 21 13 32 0 27-2 30-1 30-2 31-2 32 0 28 2 29 5 27 7 23 13 9 24-13 25-22 22-22 18-26 16-27 16-30 15-30 16-30 12-27 8-24 7-31 6-25-2"/>
<path d="M4229 11331l 2-2 9 24-9 24-10 22-10 22-11 22-7 27 4 26 18 17 23 6 24 3 28 1 29 0 28-3 29-5 27-6 27-10 28-10"/>
<path d="M4379 11384l-2 0-20 18-4 30-1 28 5 28 8 27 10 27 12 23"/>
<path d="M5218 11239l 0 0 25-11 27-5 29-4 24-5 27-5 28-6 25-4 30-6"/>
<path d="M5323 11223l-2 2-24 12-21 19-16 22-12 25-7 25-5 27-1 27 19 20 24 0 30-4 24-6 28-6 28-5 27-3 28-4 28-1 25-2 29 3 24 7 25 6 20 15 4 24-13 23-22 21-20 17-23 13-24 14-28 13-28 10-30 7-29 5-31 1-25-4-31-6-22-11-16-20"/>
<path d="M7194 11228l 0 0 0 28-7 24-9 30-7 24-8 24-6 27-5 27-2 28-1 30 4 24"/>
<path d="M8232 11152l-1-1 26-12 27-2 31-2 26-4 27-2 28 0 25 0"/>
<path d="M8315 11127l-3 0-27 5-20 12-17 23-12 26-13 25-7 28-5 25-5 26 0 27 6 25 23 11 26-2 25-5 30-6 32-11 23-5 24-7 33-8 31-4 26-3 30-3 27 0 29 4 23 12 15 21-3 25-16 22-24 16-21 13-25 11-28 11-31 8-31 7-29 7-25 3-28-3-22-9"/>
<path d="M9369 11141l 2-2 24-9 29 6 25 7 27 11 29 10 27 10 26 11 16 17-13 23-28 16-23 9-27 8-25 6-27 10-19 15 18 19 22 11 22 11 27 12 27 13 22 12 17 23-1 26-22 18-30 9-31 7-28 6-27 2-27-3-28-2-28-4-24-6-25-13"/>
<path d="M2281 10953l-1 0 19-17 18-24 16-19 23-23 25-26 19-21 20-20 20-22 22-23 22-21 25-25 23-25 25-26 22-25 19-22 20-22 18-18 18-18 20-23 16-25 15-22 8-23 25 11 18 18 14 19 13 23 14 25 14 27 16 29 14 27 13 31 11 22 11 24 10 23 13 20 15 29 14 24 11 24 11 24 7 23 11 30 11 22 8 26 7 28 7 25"/>
<path d="M4475 10853l-2-1 13-26 25-27 21-22 22-25 23-26 26-28 26-28 26-29 25-28 24-28 22-27 19-29 19-26 15-23 14-22 18-24 12-25 8-23 22 11 19 20 16 21 18 26 14 20 17 21 20 22 25 20 26 22 27 20 19 16 26 21 26 18 25 20 23 21 22 20 20 18 17 16 19 19 20 19 18 18-19-20"/>
<path d="M6500 10755l-2 0 9-27 20-25 18-27 22-29 17-21 18-22 21-25 20-26 21-27 20-26 20-27 18-26 18-27 16-25 14-22 15-29 10-21 4-25 13 22 11 21 14 28 12 21 12 23 15 25 14 26 16 25 17 24 18 23 16 25 18 24 17 22 15 20 16 19 18 20 16 22 13 22 15 22-9-25"/>
<path d="M8578 10634l-2 0 6-28 15-19 21-25 17-20 19-22 19-23 21-24 21-25 21-27 22-29 20-31 20-33 21-33 19-34 19-34 16-30 16-29 13-25 14-30 10-24 9-26 25 9 12 27 10 28 9 25 9 28 10 31 13 33 11 23 19 30 15 20 24 26 17 20 18 19 18 19 17 19 17 19 17 17 16 18 23 27 19 28 17 22 17 22 19 25 14 21 14 22 9 23"/>
<path d="M8918 9552l 1-3 3-28-9-26-25-14-25 1-30 6-26 12-26 17-19 15-23 21-16 18-11 24 10 22 24 19 28 14 24 11 26 12 27 14 27 14 23 16 18 18 14 20 8 26-6 30-18 23-19 16-22 15-26 11-25 10-24 4-29-2-24-12-14-20-5-29 2-25 11-27 17-31 21-31 22-23 22-21 22-17 23-14 22-11 29-13"/>
<path d="M3155 9313l-2 0 13-23 17-19 23-25 16-19 18-20 19-20 19-22 21-22 22-23 23-24 22-23 24-23 25-23 23-22 25-21 24-20 25-19 24-19 22-17 27-22 22-18 21-18 22-11 26 9 23 14 26 12 23 13 25 17 25 13 28 16 21 11 21 13 22 12 25 15 25 16 25 17 27 20 28 21 21 15 22 13 29 22 27 18 28 19 29 19 20 13 31 17 28 17 29 13 25 16 21 12 21 13 23 13 20 18 18 16-4-24"/>
<path d="M7029 9461l-1 0 18-19 26-17 26-18 20-16 21-16 24-18 25-19 28-21 30-23 31-26 32-27 34-29 35-30 36-28 35-31 35-29 34-30 32-28 32-25 29-23 27-19 24-18 21-16 25-17 23-18 18-17 25-4 24 0 21 14 21 14 24 9 25 7 27 10 27 15 23 12 22 9 24 16 24 14 27 19 27 17 30 20 31 19 22 13 22 12 25 13 24 13 26 15 25 15 25 14 26 15 25 13 24 14 24 14 20 14 27 19 23 17 23 19 17 18 16 21 15 20 19-18"/>
<path d="M4266 8176l 0 0 23-9 24-7 26-9 25-8 32-13 25-11 27-11 32-13 33-14 36-14 37-16 38-17 41-17 43-18 22-11 44-19 45-18 23-9 22-9 24-9 23-9 24-10 25-11 25-10 25-11 26-11 26-13 27-11 26-12 27-12 26-13 26-12 26-12 26-13 26-11 25-12 25-11 24-11 24-10 22-10 23-10 23-9 41-19 38-16 35-15 29-11 26-10 31-13 25-10 26-8 24-7 22 10 25 13 22 12 28 14 25 14 27 16 20 12 21 13 24 14 26 17 26 16 29 16 29 17 30 17 31 19 33 18 35 19 35 19 37 19 37 19 37 19 38 20 37 19 38 19 39 22 40 18 39 19 39 19 40 16 38 19 38 18 37 17 36 18 34 18 33 17 33 17 31 16 31 16 30 15 27 14 27 13 26 14 23 12 23 10 31 16 27 11 22 14 24 11 25 10 23 8 17-19"/>
<path d="M1275 12408l-1 0-16 21-10 27-12 26-7 24-8 26-8 30-9 26-5 31-2 25-3 29 0 27 6 25 15 19"/>
<path d="M1394 12511l-2-2-18-17-24-1-14 20 6 25 13 20 20 15 24 13 20 14 19 18 4 26-12 24-15 22-20 13-25 14-26 10-21-12 3-27 7-25 17-24 14-25 17-23"/>
<path d="M1447 12411l-1-1 16 19 20 19 18 17 17 19 17 21 13 23 15 23 11 25 7 26 2 29-5 28-8 26-8 24-10 22-15 21-18 22-19 19-22 14"/>
<path d="M2942 11403l-1-2-7-24 16-22 22-11 28-11 27-9 23-5 25-5 25-6 29-6 24-4 26 7 7 25-14 22-18 23-23 25-25 23-26 22-27 22-23 19-24 17-20 13-22 15 24-16 24-11 28-6 27-6 24-6 27 0 25 4 24 4 22 14 15 21 7 27-3 25-9 29-12 24-9 23-14 22-15 20-21 23-19 17-25 17-25 9-26 4-27-1-23-8-19-15"/>
<path d="M6261 11271l-1-2-10-24 10-25 24-11 25-5 28-1 29 1 30 6 27 11 23 13 17 17 6 25-7 24-17 26-17 21-21 22-22 25-22 24-23 23-24 22-25 20-25 17-23 16-24 17-24 15 28-3 26-5 25-5 28-3 26-5 25-3 28-3 26 1 24 6 20 16"/>
<path d="M2844 9781l-2 0-24 14-15 19-16 28-13 28-13 32-6 24-6 23-3 34 0 28 5 27 7 23 11 22 18 19 22 15 25 10 27 5 28-2 25-7 25-12 16-18 10-23 5-25-4-25-14-25-19-18-23-10-26-1-26 7-22 13-18 17-12 22-2 25"/>
<path d="M6761 9761l-1-2 2-24 22-13 26-9 28-4 26 0 27 0 28 1 26 6 8 25-18 22-23 19-25 19-25 17-24 13-22 13-23 14 20 15 29 2 28 3 30 6 24 5 26 10 24 14 18 18 7 23-12 27-17 19-23 19-21 15-20 16-26 12-24 10-25 8-28 7-27-2-25-9-17-20 2-26"/>
<path d="M4716 9699l 0-1-5 24-3 26-1 25 0 32 1 32 0 24 0 25 0 26-2 26-2 25-1 24-2 30-2 25-3 24"/>
<path d="M4947 9712l 0-1 9 25 7 27 5 26 5 26 5 25 3 25 3 26 2 27 2 28 4 26 2 26 0 24-2 26-3 25"/>
<path d="M3528 8331l-1-1 6 26 7 25 5 27 6 31 2 29 1 29 1 26 0 26 1 28-1 28-6 27-1 24"/>
<path d="M3682 8337l 0 0 24-9 28-9 25-11 25-10 23-9 22-10 26-12 26-7 24 5 9 24-5 27-6 24-9 27-11 31-6 27-9 29-8 30-9 29-6 27-4 26-4 25-3 25-3 29-1 24"/>
<path d="M7642 8435l 0-1-2 29-3 29-2 28-2 26-2 28-2 27-3 28-4 29-5 26-2 27"/>
<path d="M7888 8384l-1-1-2 25 1 24-1 30-1 25-1 26 0 25 0 24 1 31 2 28 0 24-2 29-3 27-5 23"/>
<path d="M5541 7091l 0-2 8-23 27-11 23-7 24-5 27-3 27 5 22 12 10 22-2 27-10 22-15 19-21 24-23 25-17 18-24 24-25 25-24 26-25 25-24 25-22 22-20 19-20 22-7 23 25 8 25-2 31-8 24-6 27-9 25-8 24-8 25-7 24-8 23-7 24-7"/>
<path d="M5971 7101l-2-3-21-19-24-5-24-2-25 8-18 16-9 26 9 24 19 19 21 14 27 11 30 9 29 10 25 9 23 14 14 21 7 27-4 30-13 30-16 25-18 24-23 23-24 18-22 14-27 10-27-3-21-19-8-26-1-26 5-31 10-30 12-32 14-31 17-27 17-22 19-21 21-20 22-18 21-15 23-16 24-16"/>
<path d="M5275 10037l 0 0 2 24-3 25 0 24-1 25 4 24"/>
<path d="M5298 9940l-1-1-19-15-24 2-22 16-19 21-16 18-18 22-15 23-12 22-7 23-5 24-1 26 1 26 5 26 10 25 13 23 16 20 19 16 23 9 26 10 26 6 25 1 28-6 22-13 23-18 17-17 14-22 11-24 8-24 4-26 1-26-7-28-12-25-18-22-19-15-25-8-27-8-26 1-26-1-24 6"/>
</svg>
