<svg xmlns="http://www.w3.org/2000/svg" viewBox="1394 2556 3930 4205" stroke="black" stroke-width="16" stroke-linecap="round" stroke-linejoin="round" fill="none" data-xena="0 0 0"><style>@media(prefers-color-scheme:dark){svg{background-color:black;stroke:white;}}</style>
<path d="M1883 4905l-1-1 18-17 19-18 17-16 21-19 19-15 22-19 24-21 28-23 22-17 22-18 24-19 23-19 21-20 22-19 22-21 23-20 24-21 26-20 27-22 28-23 29-22 31-24 32-23 33-23 33-22 36-22 36-22 38-21 38-21 40-21 38-20 41-19 38-19 37-18 37-17 36-18 34-18 33-16 32-16 32-15 30-13 27-14 27-12 23-12 22-12 29-15 26-14 22-14 24-14"/>
<path d="M3147 3976l-1 0 24-8 29-4 27-3 26-4 25-4 25-4-5 24-17 23-13 23-13 23-14 20-17 22-15 18-13 21"/>
<path d="M3431 3807l-1 0 3-26 10-22 11-25 10-25 9-25 12-32 11-21 11-25 16-27 15-28 19-30 21-33 22-34 24-35 24-35 26-34 27-35 28-34 28-34 28-32 27-33 27-31 27-29 28-28 26-27 25-26 26-26 25-28 27-24 28-23 26-24 26-22 25-22 25-21 25-19 23-18 21-15 22-13 27-15 25-12 26-13 28-10 24-8 23-6 25 1"/>
<path d="M4378 2661l-1-2 24 0 23 10 27 11 27 8 24 12 22 11-2 26-21 19-18 18-21 17-23 18-22 16-18 19"/>
<path d="M4639 2866l 1 0 24 2 17 21 13 22 14 28 9 25 9 28 8 30 9 31 4 32 9 33 6 24 8 28 5 27 5 29 4 29 3 30 4 32 4 33 4 33 3 36 2 36 1 36 0 37 0 36 0 35-2 37 0 36 0 37-2 34 0 32 0 30-1 28 1 27-1 26-1 24-1 34-2 29-3 28-6 26-6 29-8 23-6 26-10 25"/>
<path d="M4637 4058l 0 0 19 20 17 23 17 24 16 21 14 24 16 19 24 7 22-16 19-21 14-20 15-20 18-18 18-19"/>
<path d="M4657 4284l 0 0-24 2-25 3-27 3-24 3-26 3-27 2-28 0-24 0-27 2-32 2-25 0-27 1-28-1-30 0-33-3-33-2-34-2-36-4-35-2-35-5-36-7-35-9-31-9-31-10-31-11-29-11-29-9-25-10-25-10-23-11-23-10-22-12-32-15-28-15-27-15-24-15-23-15-19-15-24-17-19-15-19-19-20-13 0 25 1 24 0 25 5 24-19-16-4-25-6-28 1-25 11-21 24-6 24-4 26 0 25-1"/>
<path d="M3448 3008l-1-1 23-13 23-7 26-8 27-10 26-11"/>
<path d="M3692 2764l 0 0-8 25 0 27 2 32 2 26 3 25 4 24 7 30 8 29 7 29 5 28"/>
<path d="M4937 3475l 0-1 24-6 24-4 27-3 24-1 24-2 25-4"/>
<path d="M5216 3321l 0 0-4 24 1 27 0 25 1 30 0 31 2 35 2 37 1 24 1 33 1 30 0 32"/>
<path d="M3823 4647l-1 0 26-8 27-5 29-4 26-5 26-6 26-6"/>
<path d="M4122 4514l-2 1-8 26 4 25 6 26 5 30 4 25 4 24 6 25 4 27"/>
<path d="M1911 5019l 0 1 14 20 9 24 11 25 12 25 10 23 10 24 14 26 15 23 14 24 13 21 19 22 19 21 16 20 22 21 20 25 21 19 26 22 24 21 23 22 23 23 18 16 20 16 19 15 19 16 19 17 19 19 19 17 21 19 20 17 21 16 22 18 23 19 23 19 25 18 27 16 26 17 30 18 28 17 27 17 27 17 26 16 27 17 28 18 30 19 29 16 29 17 29 15 27 13 30 17 29 16 30 15 30 14 34 13 31 14 33 16 34 16 31 15 32 16 33 13 30 14 32 13 31 13 31 12 32 12 31 11 28 12 29 10 30 10 28 8 28 9 24 9 25 8 24 6 34 6 31 8 28 7 27 9 27 6 26 7"/>
<path d="M3828 6207l 0-1 23-6 26 5 25 8 23 12 17 18 6 25-11 25-16 23-19 17-23 14-24 6-22 9"/>
<path d="M1497 4766l-1-1 2 31 1 28 0 33 0 24 1 25 1 24 1 36-1 32 2 29 2 26 3 25 3 27 3 25 6 23"/>
<path d="M4084 6396l 0-1 14 27 3 27-2 25-1 29 0 31 1 29-1 26-2 25-3 27 4-26 10-30 9-30 11-26 9-25 9-28 10-28 11-24 11-23 12-22 15-19 19-14 21 16 9 26 1 28 1 28 0 26-2 28 1 25 4 30 0 27 2 24 4 28 8 25"/>
</svg>
