<svg xmlns="http://www.w3.org/2000/svg" viewBox="2558 -750 11136 63962" stroke="black" stroke-width="16" stroke-linecap="round" stroke-linejoin="round" fill="none" data-xena="-1 -24 0"><style>@media(prefers-color-scheme:dark){svg{background-color:black;stroke:white;}}</style>
<path d="M3568 4992l 0 0 19 16 15 20 14 26 12 27 10 25 10 28 12 29 13 30 15 32 13 34 11 36 6 24 8 25 8 25 7 25 9 28 7 30 9 32 12 34 10 33 10 31 12 33 10 31 11 31 10 33 11 30 11 30 9 28 10 25 7 26 10 25 10 22 10 22 13 28 13 26 9 23 12 23 13 21"/>
<path d="M3867 5983l 0 0 19 15 24 12 21 14 21 14 23 13 23-8 6-24 4-25 4-28 3-27 3-29 1-25"/>
<path d="M4752 4997l 0-1-13 24-13 25-13 23-13 22-14 21-14 26-16 27-17 28-13 22-14 23-12 23-9 25-12 23-16 21-13 25-15 25-13 26-14 25-14 24-13 24-18 23-15 25-15 23-10 22-18 25-16 25-12 21-18 26-17 25-13 25-16 21-15 23-11 24-13 22-17 21-14 22-13 22-14 20-10 23-15 21-9 23-14 22-14 23-12 21-13 21-21 13"/>
<path d="M4105 5867l-1-1-7 25-3 24 0 25-4 28-4 25-7 27-2 24 20 15 25-9 22-15 23-10 27-9 24-8"/>
<path d="M3600 5446l 0-2 1 25-1 25-1 25 0 28-2 29-1 28 3 28"/>
<path d="M4608 5489l 0 0 5 28 2 26 1 30 3 27 4 29 5 24 5 28 8 25"/>
<path d="M5865 5009l-1 0 17 23 11 21 15 27 10 26 12 29 10 22 11 23 12 24 13 28 15 26 14 27 14 26 14 24 13 25 14 25 14 25 15 25 13 25 12 26 13 26 10 24 12 24 12 23 12 21 10 22 16 33 11 23 11 21 15 31 14 27 13 24 12 23 10 22 13 22 13 20 15 20-16-18"/>
<path d="M6178 5861l 1 0 17 20 20 20 20 18 22 14 22 18 22 11 24 7 16-22 6-25 6-27 4-28 0-26"/>
<path d="M6936 5034l 0-2 3 29-10 25-10 24-13 29-11 21-12 24-14 26-15 27-16 29-16 31-18 31-19 32-19 35-20 37-20 38-19 38-20 36-19 35-18 34-16 33-16 32-14 32-16 29-13 28-12 27-11 23-9 24-14 29-13 26-12 29-10 23-10 23-11-22"/>
<path d="M6478 5800l 0 0 10 26 6 24 4 25 1 28 0 27-3 28-2 24 26-5 24-13 22-13 26-12 23-9 23-11 24-11"/>
<path d="M7996 5046l-1-2 14 23 14 23 16 26 13 21 13 22 14 22 13 23 15 24 16 24 17 27 17 31 17 32 16 32 17 31 10 22 10 23 9 23 13 33 14 31 12 28 13 24 11 24 15 26 14 23 13 21 15 22 14 23 12 22 10 23"/>
<path d="M8817 5052l 0 0-6 23-11 24-10 26-11 22-11 29-11 25-12 28-12 29-15 33-10 23-11 25-13 24-12 25-13 27-12 24-12 24-12 24-13 22-12 23-11 23-12 23-16 31-15 28-16 28-12 26-13 28-12 24-9 26-7 26-6 23-6 25"/>
<path d="M8244 5773l 0 0 12 24 19 15 24 15 24 10 25 6 19-15 14-25 10-25 8-30 5-24 2-25 1-31-2-26-2-24-3-25"/>
<path d="M8494 5618l 0-1-10 22-3 27-2 24-5 29-3 25-3 25-2 25 3 25 25 2 23-16 20-17 21-15 21-13 22-13 22-12 25-6"/>
<path d="M10090 5134l-1-1 20 15 16 27 12 21 14 25 17 31 11 23 10 25 12 23 12 27 12 26 13 25 14 26 14 24 14 25 15 24 13 23 14 22 13 22 12 21 12 23 16 31 15 31 10 22 14 27 14 26 13 21 12 21 13 25 13 24 12 22"/>
<path d="M10512 5652l-1-2 1 25 6 24 8 26 8 24 7 25 4 24 3 27-2 27-8 23-24 8-28-2-29-6-25-6-25-5"/>
<path d="M10809 5215l 0-2 3 30-1 29-2 27-2 32-1 25-2 35-2 35-1 25-2 26-3 27-2 28-2 25-3 25-3 25-3 25-5 34-5 32-6 34-6 31-6 32-6 28-5 29-4 24"/>
<path d="M10677 5792l-1-1-6 26 2 24 4 25 9 24 11 22 23-6 26-13 22-14 21-16 20-16 23-18 21-12"/>
<path d="M11954 5206l-1 0 22 11 17 20 17 22 15 19 16 24 15 21 16 24 14 26 13 27 14 31 10 22 10 23 8 25 11 22 10 23 18 30 13 22 13 21 14 21 13 23 14 23 12 23 13 23 12 20 11 22 20 27 18 28 18 22 16 24 18 24 18 23 16 24 15 24 14 24 10 25"/>
<path d="M12454 5837l-1 0 12 23 11 22 12 23 8 24 5 25 2 25-1 26-11 22-22 10-28 5-29 6-27-2-24-3"/>
<path d="M13039 5299l-2-1-18 16-16 19-15 23-13 20-16 24-15 29-13 23-12 23-12 23-13 24-14 23-14 24-16 25-15 26-16 26-16 26-15 26-15 26-14 24-14 23-14 24-12 23-12 21-11 21-16 27-14 25-13 21-12 24-10 22"/>
<path d="M12610 5818l-1 1-7 25-4 26-5 26-1 25-2 25-3 24 12 21 25-6 24-9 26-12 22-11 22-11 26-10"/>
<path d="M5282 2254l 0-1-25 3"/>
<path d="M5239 2375l 0 0-12 21-6 24 0 31-2 26-2 31-1 31-2 26-2 26-1 26-2 25-4 28-2 28-2 31-2 30-4 34-3 32-2 34-5 35-2 34-4 35-3 35-1 34-1 34-2 34 0 32-2 33-1 32 0 34 0 35-1 25-1 25 0 25 0 25-1 27-2 27-1 27-2 29-1 29-3 27-2 27-5 24-3 24-4 25-8 34-5 25-6 24-6 24-4 27-7 34-8 36-8 34-6 36-4 24-4 24-8 35-3 24-4 25-6 25-6 25-9 34-9 31-6 29-4 27-7 26-5 27-7 25-3 28-7 27-9 26-8 28-8 23-7 24-8 25-9 25-8 23-7 28-8 27-8 24-9 26-4 25-9 27-7 26-6 24-5 26-9 25-1 25-7 25"/>
<path d="M4743 4730l-1 0 9 23 10 23 10 26 9 26 9 24 12 22 22 10 25-9 16-19 18-19 19-24 15-21 14-21 15-21 18-25 16-22"/>
<path d="M5361 2361l-1 0 24 8 25 15 17 19 18 24 12 20 13 23 11 24 11 25 11 26 12 26 14 26 16 25 18 23 18 23 19 24 22 26 23 27 18 20 16 22 18 22 19 23 19 22 18 24 19 24 17 24 18 23 15 22 16 21 16 22 16 23 16 21 16 23 15 22 13 21 13 22 13 20 22 29 15 21 16 21 15 22 16 21 16 20 14 21 15 19 16 19 16 21 15 21 15 20 15 20 20 26 23 28 25 26 14 20 22 27 19 29 19 27 18 27 19 24 17 24 20 24 17 26 15 24 15 21 19 26 15 21 13 22 12 24 13 23 12 28 14 26 15 26 13 22 13 25 13 22 13 21 16 25 13 25 16 27 16 24 14 25 13 22 16 26 12 22 11 21 13 26 10 27 9 28 9 23 8 27 8 24 8 25 9 26 7 25 8 24 9 23 7 23 8 25 7 26 7 24 8 24 10 24 13 21 11 24 10 22"/>
<path d="M6738 4733l-2 0 16 20 20 19 18 16 21 18 21 19 23 13 24 6 24-6 18-19 14-25 8-24 7-29 7-28 5-24 2-26 0-26"/>
<path d="M7982 2299l 0-1 19-15-24 5"/>
<path d="M7907 2399l-1 0-25 4-22 8-26 9-27 9-24 11-27 11-28 11-23 8-24 9-31 8-25 7-27 9-31 10-32 9-25 6-22 8-25 8-24 11-25 11-27 10-28 11-28 10-29 9-28 9-27 10-28 10-29 8-28 8-27 9-28 7-28 8-28 7-29 8-29 7-29 9-28 8-31 8-30 10-31 10-33 11-34 13-36 15-39 17-38 17-39 16-37 12-36 13-37 12-38 13-41 14-44 16-45 17-23 10-24 9-24 9-24 9-23 9-24 9-25 9-25 11-26 9-25 10-24 10-26 11-26 10-25 12-26 10-26 11-26 11-26 11-27 11-26 11-27 10-26 10-25 10-27 12-24 8-26 10-26 10-25 10-25 10-25 10-23 10-24 10-25 10-24 10-24 10-24 9-23 9-24 10-24 10-25 10-24 9-24 10-24 9-23 10-24 11-23 10-24 9-25 10-22 11-23 11-24 10-23 11-23 10-23 11-23 10-23 11-24 12-23 11-23 12-22 11-24 12-22 13-22 13-22 13-24 12-23 12-23 12-23 13-22 13-22 12-21 12-22 13-40 27-21 13-21 14-22 14-21 13-22 12-21 13-21 14-22 13-20 13-21 13-20 13-39 27-20 13-38 26-37 27-35 25-34 26-33 27-32 26-30 26-29 26-29 24-28 23-26 22-26 20-26 19-21 20-19 18-19 17-22 24-20 19-18 21-15 20-9 23-12 24-7 25-3 27-16 24-11 22-11 21-12 24-13 20-14 21"/>
<path d="M3559 4559l-1-1 8 25 1 26 4 24 11 23 14 20 25-2 19-18 18-21 22-20 18-19 19-17 18-18 21-19 19-16"/>
<path d="M8008 2495l 0 0 25 8 20 18 20 20 15 23 17 25 20 24 15 21 16 23 19 25 19 27 19 28 14 21 14 21 15 21 14 22 15 21 15 20 15 21 14 20 14 24 13 21 17 30 18 26 12 21 12 21 12 23 16 32 14 29 15 29 14 33 14 33 9 23 9 25 10 25 9 23 9 24 9 23 11 37 9 24 9 33 9 31 9 32 6 23 10 31 9 28 9 25 9 27 8 28 10 30 8 28 8 26 7 26 8 25 9 24 9 28 9 28 9 27 6 27 6 26 4 29 6 29 4 29 4 27 4 30 5 27 5 28 4 26 6 29 5 23 6 28 8 29 8 31 6 28 5 28 5 27 4 29 5 28 4 25 8 26 8 24 7 25 7 25 4 28 3 24 4 27 1 24 1 26 0 24-2-26"/>
<path d="M8733 4668l-2 0 4 26 21 14 23 12 26 7 23 6 25-1 19-19 14-22 11-28 8-23 8-27 7-27 6-26 5-24 5-26"/>
<path d="M10698 2360l-1-2-16 18-9-23"/>
<path d="M7109 4690l-1 1 22-15 21-13 20-20 21-18 18-18 22-22 17-17 18-17 18-19 21-20 20-20 23-19 23-19 23-18 25-19 24-21 25-22 25-21 26-22 25-21 26-23 27-23 28-25 27-23 29-24 28-24 28-23 29-23 31-24 31-25 32-26 32-26 31-26 33-26 32-25 34-27 34-27 36-26 35-27 36-27 37-26 37-28 37-28 38-29 38-28 38-27 38-28 37-26 38-28 36-26 37-27 37-24 37-23 35-22 36-21 37-22 36-20 37-22 35-21 34-19 35-22 34-20 34-21 35-22 36-19 35-21 35-22 35-22 35-20 36-20 35-22 36-21 35-20 34-19 33-17 32-17 31-16 31-17 30-17 30-15 29-16 27-15 26-14 27-16 26-14 27-13 26-13 26-13 24-14 22-14 22-11 21-13 30-18 29-19 28-16 26-14 23-14 23-13 21-12 28-14 22-11 22-13 23-12 26-13 24-15 26-15 27-13 25-13 24-12 23-13 22-12 23-10 27-12 24-11 24-11 25-9 25-8"/>
<path d="M7109 4542l 0 0-8 27-9 26-10 24-10 25-11 24-11 28-9 25-5 24 24 1 24-2 27-1 28-3 25-6 25-7 28-6 27-3"/>
<path d="M10712 2623l 0-1 12 23 8 27 7 29 6 27 6 32 6 25 6 26 4 26 5 28 4 28 3 28 5 31 4 30 4 32 5 32 4 34 4 33 5 34 3 33 3 35 3 37 3 38 3 37 3 41 3 38 3 41 2 43 4 41 5 43 5 40 6 36 6 36 7 35 7 34 6 32 6 30 7 29 5 29 4 27 5 28 3 27 3 26 2 29 2 29 2 26 0 28 1 25 0 25 0 25-1 24-1 33 0 32 0 30 2 27 0 26 0 31-3 30-3 28-3 24-2 25-4 27-5 31-4 30-5 27-4 24-2 28-2 26-1 25 1 26-1 26-2 28-4 28-4 26-4 26-4 25"/>
<path d="M10744 4770l-1 1 15 22 13 22 12 25 13 21 14 20 17 22 17 18 26-4 15-21 10-24 12-27 11-28 10-25 13-25 14-20 18-19"/>
<path d="M4054 6248l-1-2 15 22 17 25 14 20 14 26 16 32 11 25 12 29 12 33 12 34 12 36 12 38 13 39 13 41 15 41 17 41 17 42 19 41 20 41 21 41 21 42 12 21 25 41 28 39 28 40 15 20 14 20 15 20 15 21 14 20 15 21 16 21 15 22 15 22 16 23 15 23 16 24 16 25 16 25 15 26 18 26 16 26 16 27 17 26 17 27 17 27 17 27 17 26 18 27 17 27 18 26 19 27 18 26 19 26 19 26 19 27 20 27 19 25 19 26 19 25 21 26 19 24 20 25 19 24 20 22 19 24 21 24 20 24 21 25 20 25 22 24 21 24 22 24 22 25 22 25 22 23 22 25 22 24 23 25 22 25 22 26 23 26 22 25 22 25 22 26 21 27 22 27 20 27 23 25 21 27 23 26 22 28 21 26 23 27 22 26 22 27 22 25 22 27 22 26 22 24 23 25 23 24 20 25 21 24 22 23 21 24 21 22 21 21 21 23 20 22 22 24 21 22 21 24 22 23 20 23 20 28 20 23 22 22 20 22 20 22 21 21 20 21 20 21 20 17 20 20 19 20 19 18 18 19 18 18 18 17 18 17 18 17 35 32 36 31 34 29 32 27 33 27 32 26 30 25 29 24 29 23 28 22 28 20 25 18 24 16 22 16 22 13 28 19 25 15 24 14 26 15 23 15 20 16"/>
<path d="M7043 9805l 0-1 5 28 5 24 11 22 18 22 17 23 14 22 16 24 15 21 12 22 7 23 3 27-4 26-11 24-18 18-24 14-27 8-27 4-24-8-23-12-17-17"/>
<path d="M6668 6309l-1-1-10 23 3 25 3 26 7 31 7 29 8 33 6 24 7 26 7 29 8 28 7 29 6 32 4 31 7 34 7 36 8 36 8 37 9 40 8 40 9 42 11 44 10 45 6 23 11 47 7 24 5 25 6 24 7 26 6 26 6 26 6 26 5 26 7 27 6 28 6 29 7 28 6 26 6 29 9 29 6 30 7 29 6 28 7 28 7 32 7 31 6 31 7 29 7 30 6 31 7 31 7 31 8 29 7 31 8 32 7 31 7 32 8 32 6 33 8 31 8 34 6 31 8 33 5 33 7 32 7 33 7 33 6 34 6 32 6 32 7 32 7 33 6 32 7 32 6 32 8 32 7 32 6 32 6 32 7 32 6 34 6 31 6 33 6 32 5 31 6 32 5 31 5 30 5 29 6 30 6 30 4 30 3 30 5 30 4 29 4 32 3 29 3 29 4 30 4 28 3 28 3 28 3 30 3 26 2 26 3 26 2 25 2 26 3 24 2 25 4 45 5 45 4 42 3 38 4 36 3 35 4 32 3 28 4 27 3 35 3 32 3 27 1 25 0 24-1 25"/>
<path d="M7202 9916l 0 1 11 26 13 28 12 22 15 24 16 25 15 26 16 25 16 20 19 20 25 6 13-25 8-24 8-29 11-35 7-24 8-24 8-25 8-25 8-26 9-29 9-29 10-29 11-29"/>
<path d="M8274 6248l-1 2-2 25-2 30-2 28-1 35-2 27-3 31-3 33-4 35-4 38-6 39-6 42-7 44-9 46-4 24-5 25-4 25-4 25-4 25-5 27-5 26-4 26-4 27-4 26-4 27-4 27-4 26-4 26-3 27-4 28-4 27-4 28-4 30-4 29-5 30-3 29-4 30-4 29-4 30-4 29-4 30-4 30-4 31-5 31-5 31-3 31-5 30-4 32-6 32-4 31-4 31-5 31-4 31-5 32-5 34-4 31-6 31-4 31-5 31-5 31-5 31-6 29-4 29-5 31-5 31-5 31-5 31-5 31-6 31-5 32-4 31-6 31-5 30-5 31-6 31-6 30-6 29-5 31-6 29-5 30-7 29-6 30-6 29-6 30-6 29-6 29-6 29-6 29-7 28-6 28-6 29-6 27-8 28-6 26-6 26-7 26-6 26-7 25-6 24-6 24-6 24-12 46-11 44-11 43-9 42-11 41-11 40-9 37-10 36-10 33-10 34-9 30-9 29-9 27-8 25-11 33-9 31-8 25-7 24-8 27-7 24-7 23"/>
<path d="M7515 9713l 0 0 5 27 0 24-1 27 1 28 2 25 3 27 4 28 6 25 13 23 22 14 25 0 27-12 24-19 19-19 21-24 15-20 15-19 16-21 17-23 18-21 20-24 21-24"/>
<path d="M10328 6401l-3 4-14 22-16 28-12 22-13 22-14 23-15 25-14 26-15 28-17 29-17 30-18 33-19 31-19 33-20 34-21 34-21 38-23 39-24 41-13 21-13 20-13 23-14 22-14 23-13 23-16 23-14 23-14 25-15 25-16 25-15 25-16 25-16 25-17 26-16 27-17 25-17 26-17 25-16 27-17 26-17 26-16 23-16 26-18 27-16 25-18 26-16 27-18 26-17 25-19 30-18 27-18 26-17 28-18 27-18 28-19 29-18 28-18 28-19 27-19 27-19 28-20 27-20 27-19 27-20 28-19 28-20 28-19 28-20 28-19 28-19 28-20 29-19 27-20 29-20 27-20 28-19 28-19 28-19 27-20 27-19 27-19 27-19 27-18 28-20 27-19 27-19 25-20 28-20 28-19 26-19 27-18 26-19 26-18 26-17 27-18 24-17 24-17 23-17 23-17 22-16 22-16 22-17 19-16 22-15 20-15 21-15 20-15 20-14 20-27 39-15 19-26 37-27 37-26 35-25 33-27 33-23 32-24 30-23 32-23 32-23 30-22 32-23 27-21 26-20 25-19 24-17 22-18 22-16 19-21 27-18 23-17 19-17 20-16 18"/>
<path d="M7917 9652l 0 0-1 28-6 26-6 26-6 23-8 24-9 24-8 22-8 25-8 24-8 28-5 26-3 26 6 27 17 18 23 10 25 3 32-5 25-7 26-9 28-12 30-15 31-17 21-13 23-12 24-15"/>
<path d="M12421 6363l-2 1-18 16-19 20-22 22-15 22-17 24-18 27-19 26-21 31-14 21-15 21-15 21-16 21-15 23-19 24-18 25-20 26-20 27-23 28-23 31-25 31-27 33-28 35-31 36-16 19-16 19-16 19-17 20-18 21-18 20-19 21-20 20-20 22-20 21-21 21-21 21-22 21-22 22-22 22-23 23-22 23-23 23-22 24-23 23-24 24-23 23-24 24-25 22-24 24-24 23-26 25-24 23-25 23-25 23-26 24-26 23-25 24-26 23-27 22-26 23-27 24-26 24-27 25-26 25-27 25-28 24-27 24-27 25-27 23-28 26-29 24-29 25-30 25-30 25-29 28-31 25-30 25-30 26-31 25-30 26-30 26-30 26-32 27-30 28-31 26-32 27-31 26-31 26-32 27-31 25-31 25-32 26-32 26-32 26-32 25-31 26-32 25-32 26-31 26-32 25-31 26-32 25-32 25-31 24-32 25-31 24-32 22-31 24-32 23-31 22-32 23-30 23-30 22-31 21-29 23-30 21-29 22-29 21-29 21-29 20-29 21-29 21-30 21-28 20-29 20-28 20-28 20-27 18-28 20-26 19-26 16-26 17-25 18-25 18-25 17-24 17-23 16-24 16-23 18-23 17-23 14-23 14-22 14-21 14-21 13-39 23-39 23-36 22-35 21-33 20-31 18-29 18-28 16-25 14-22 15-22 11-30 15-26 13-24 10-24 9"/>
<path d="M8392 9710l-1 1-13 21-14 22-17 26-16 22-19 27-18 26-19 25-19 24-17 23-16 22-14 21-17 23-11 22-5 24 12 22 26 8 25 1 28-2 31-2 32 1 30-2 30-4 29-1"/>
<path d="M7607 10363l-1-1 8-24-15-19-22 11"/>
<path d="M7423 10921l 0-1 23-10 24-6 26-9 26-7 24-6"/>
<path d="M7391 11028l-2 0 22-11 27-9 28-9 25-11 25-9"/>
<path d="M7671 10772l 2-2 18-16 25-3 25-3 28 1 26 5 24 10 13 22-10 26-16 21-21 20-18 17-17 18-24 20-21 18-18 16 23 7 28-4 25-3 29-5 26-2 26-1 25 1 31 1 29 8 21 14 16 22 9 27-1 26-8 29-9 24-12 23-13 23-17 24-21 20-22 20-27 17-28 16-28 10-26 7-25 3-25 0-28-6-28-7-26-11-21-13"/>
<path d="M7633 116l-3 1-25 9-24 14-22 14-24 15-26 17-27 19-29 22-19 15-22 18-24 20-27 22-31 26-34 30-36 31-19 16-19 17-20 17-20 17-20 17-22 18-21 18-22 19-22 19-24 20-22 21-24 20-23 21-25 21-25 21-25 21-25 21-25 21-27 20-26 22-28 22-25 22-27 22-26 22-27 24-27 23-27 23-26 23-27 24-28 24-27 24-28 25-28 25-27 25-29 26-29 26-29 25-28 26-30 27-29 26-29 26-30 26-29 26-28 27-29 26-28 27-30 26-27 26-27 26-28 26-26 25-27 25-25 25-25 24-25 23-24 23-22 23-24 22-21 21-21 20-21 21-19 19-18 18-17 17-31 32-29 31-26 25-23 24-20 20-23 24-17 19-18 17 22-14 19-17"/>
<path d="M5421 1908l 1 0-16 23-14 21-14 22-12 22-13 23-4 26 21 16 30-2 26-9 30-13 23-12 24-15 26-16 27-17 29-20 32-20"/>
<path d="M7786 272l-2-1-1 28 13 26 10 22 13 26 15 31 10 25 10 26 11 28 10 30 10 29 9 33 10 35 9 36 10 38 8 38 9 36 8 38 8 39 9 38 7 42 7 42 6 43 5 45 5 46 3 46 2 46 0 47 1 46 1 47-1 44-1 43-2 40-2 38-3 35-2 34-1 31-3 32 0 29 0 26 0 25 0 32 0 28 0 26 0 24-3 31-4 28-5 26-8 24"/>
<path d="M7855 1832l-2-1 1 24 9 28 10 25 12 28 12 28 12 26 14 24 18 17 26-3 20-18 18-24 17-24 19-29 14-21 14-22 15-22 14-22 15-24 15-23 14-24 14-23"/>
<path d="M7874 177l-1-2 24 13 23 16 25 17 23 17 27 19 30 21 21 16 23 16 23 18 24 19 25 21 27 20 27 21 28 20 30 21 33 23 33 23 36 23 36 24 36 23 39 24 39 25 40 26 21 13 21 14 22 13 21 14 21 14 22 14 22 14 23 13 22 13 23 15 24 14 23 14 24 16 23 14 24 14 22 16 23 15 23 16 22 15 22 15 22 15 22 15 22 17 22 16 22 16 22 15 21 16 22 16 22 16 22 18 22 16 21 16 21 16 20 17 22 16 20 15 20 16 20 15 20 14 19 16 20 16 18 15 19 16 19 17 20 16 19 15 19 17 19 15 18 17 36 32 34 32 31 33 32 31 31 30 30 31 29 28 27 30 26 30 25 28 22 27 22 26 20 23 17 23 18 22 15 21 20 29 18 27 14 24 10 22 10 27 5 24 2 24-3 26-11 23 21 14"/>
<path d="M9893 1968l 0-1 15 21 21 19 19 16 25 18 21 16 22 15 23 13 27 14 27 14 27 13 24 6 32 3 25 3 24 0 28-5 23-8 21-16 14-23 5-29 0-28-4-29-8-24-12-25-13-22-14-22-18-26-20-20"/>
<path d="M7509 -534l-2-2 19-21 29-13 27-12 30-15 30-13 31-13 30-11 26-8 23-5 20 15-10 22-17 25-18 19-20 19-21 20-21 20-19 18-20 19-17 18 26-9 23-9 27-9 26-7 25-4 29-3 27 4 17 19-7 29-11 24-14 27-14 21-15 24-18 22-19 19-19 16-25 14-23 7-26 3-25-3"/>
<path d="M4816 5511l 0-2-2-25-6-26-11-22-18-17-21-15-25-7-27 2-22 10-21 16-19 17-15 22-12 26-12 26-9 28-3 27 1 25 10 23 17 18 22 13 27 4 22-10 24-15 21-17 18-16 20-17 21-20 19-18 18-16 22-19 25-18 19-15 22-16 24-10 22-8 21 13 17 23 9 25 1 24-6 27-7 27-8 23-11 24-16 19-21 15-25-4-22-13-21-22-14-23-19-24-12-21-13-25-13-29-11-25-8-23"/>
<path d="M3562 5497l-1-2-9-22-16-18-24-10-25-4-26 6-23 14-17 21-14 20-12 25-13 28-9 31-8 27-3 32 1 27 8 26 17 19 28 4 26-5 30-10 20-16 18-21 16-23 15-26 13-22 12-21 10-27 12-26 13-26 9-25 18-16 21 17 21 18 15 18 16 19 15 23 2 26-4 24-6 25-9 22-14 21-21 17-24 7-28-2-25-11-20-18-16-21-13-24-9-23-10-29-6-24-6-23-3-25"/>
<path d="M5269 7606l 0-2-2-26-17-20-25-4-25 4-23 10-22 17-21 21-15 20-14 25-10 22-11 28-4 28 2 28 8 23 21 18 27-1 26-11 23-18 25-22 21-16 16-19 23-27 19-27 20-24 13-20 15-22 19-18 22-15 28-4 28 4 25 9 22 16 9 23-4 29-11 29-12 22-16 20-18 22-18 16-27 13-26 3-23-11-20-14-20-18-15-25-13-22-11-25-3-27 5-23"/>
<path d="M6203 634l-1-2 0 29 0 31 1 29 1 30 1 25 0 24 1 26 1 28 1 26 1 27"/>
<path d="M8224 1092l-1 0-13 22-4 25-2 25 0 27 3 27 0 25 2 28"/>
<path d="M9447 668l 0 0-5 27-3 28-5 31-5 32-2 25 0 27 3 29 5 25 7 27 6 25 8 23 5 26"/>
<path d="M2814 16269l 0 0 5 24 25-1 7-23-13-21-24 0-7 25 15 20 25 2"/>
<path d="M4492 16231l-1-1 18-16-10-22-24 3-13 21-3 26 11 22 24 5"/>
<path d="M6224 16227l-1 0 10-22-18-16-15 20-6 24 23 10 24-3"/>
<path d="M8566 16353l 0-1 23-5 14-21-25 3-16 19"/>
<path d="M10374 16314l-1 1 9 22 22-8 12-21-24 0-3 25 20 15"/>
<path d="M2670 16573l-1 0-8 26 0 24 1 30 3 28 3 30 6 31 8 31 10 30 5 25"/>
<path d="M4375 16660l 0-2 23-14 25-9 27-2 25 6 0 26-16 23-18 17-19 19-17 19-17 19 15 21 27 2 28-3 25-5 30-6 34-6 24-5"/>
<path d="M6135 16496l-1-1 21-18 26-5 28 0 27 0 23 5-4 25-22 14-18 16 21 16 25 3 24 5 21 11-9 24-16 21-20 17-25 11-27 11-26 0-25-6"/>
<path d="M8447 16613l 1-2 3 25-10 23-10 24-10 25 7 25 21 12 26 4 27 0 31-7 24-6 30-11 25-10 24-11"/>
<path d="M8567 16646l-2 0-15 19 1 27 7 28 10 29 12 24 15 22"/>
<path d="M10299 16586l-1 0 24-10 23-8 25-9 26-7 26-8"/>
<path d="M10317 16575l-3 1-23 15-18 17-11 22-2 25 21 13 25 0 30-5 27-5 27-1 28-1 25 3 25 6 13 21-16 22-20 19-23 18-25 13-30 9-24 3-24 6-30 2-26-5-26-6"/>
<path d="M2978 16305l-1-1 24-4 25-1 25-3 27-5 24-3 25-5 25-8 27-5 25-5 30-5 26-5 25-2 29-6 31-5 27-1 27-2 30-4 31-3 30-2 27-1 31-3 30-1 28-1 26 0 25 1 25 3 26 2 25 2 29-1 28 1 27-2 27-1 24 2 29-3 29-2 26-1 27-1 28-2 27-3 27 0 27-5 25-1 25 0 25 0 25 2 25 0 25 0 25 1"/>
<path d="M4610 16051l 0-1 3-25 14-22 16-18 17-19 18-17 21-22 21-22 18-19 20-23 21-26 15-20 17-22 18-23 20-25 19-25 19-28 21-28 22-30 22-31 22-31 23-31 24-31 25-29 25-31 27-30 27-29 29-30 29-31 31-32 31-34 34-34 16-17 18-18 17-19 18-18 17-18 18-18 18-18 18-18 18-18 17-17 18-18 34-32 34-31 35-32 35-32 35-32 19-16 33-29 34-30 33-26 33-26 34-26 32-26 33-27 32-31 34-27 31-27 30-27 31-23 29-25 29-23 28-21 25-21 20-18 20-17 26-20 23-17 21-18 16-20 8-23 22 11 17 18 19 20 19 20 16 19 16 20 17 19 18 22 19 24 18 21 21 20 22 20 26 20 30 17 21 13 20 13 21 14 28 22 21 15 19 16 29 21 31 20 21 12 21 13 20 14 31 20 30 20 20 14 30 17 29 21 29 22 19 18 29 20 21 14 30 19 28 20 27 21 27 19 26 21 27 18 26 20 25 22 23 22 21 24 22 23 20 23 22 22 20 20 20 19 18 18 20 17 20 19 21 17 24 17 23 15 23 17 22 17 22 17 23 17 23 19 24 16 23 14 23 16 23 14 21 17 26 19 23 16 23 13 22 17 18 20 17 17 18 18 19 18 18 17 18 19 18 19 19 19 18 20 18 21 16 20 18 22 16 21 16 24 15 21 19 21 16 19 15 22 19 21 17 19 19 21 14 20 16 18 18 19 15 20 17 18 16 19 16 21 17 18 14 21 18 16 24 9 28-4"/>
<path d="M2863 16789l 0-1 23 9 20 15 18 19 15 21 14 22 17 26 15 25 13 28 13 31 10 22 11 24 11 26 9 26 12 27 12 26 12 26 14 24 14 24 15 24 18 23 18 23 18 24 18 25 17 27 18 26 17 28 16 28 18 28 16 31 17 31 18 32 18 31 18 31 18 28 17 29 17 29 17 30 16 28 18 28 16 27 19 29 18 29 16 29 16 29 16 28 16 29 17 31 15 29 14 27 15 27 14 24 15 24 14 24 14 26 13 25 15 26 12 26 12 24 12 24 9 25 11 27 9 26 11 25 10 22 14 29 13 28 14 26 14 22 15 19 19 22 18 22 18 22 16 21 16 21 16 21 15 21 17 22 15 21 22 13 18-22 16-24 18-30 14-22 15-20 16-19 15-20 18-20 16-22 16-22 19-24 18-23 21-22 20-22 21-23 22-20 21-22 23-21 25-21 24-24 27-25 28-26 27-25 29-24 28-27 30-28 32-29 31-31 33-33 32-32 32-33 31-33 31-32 31-31 29-29 30-30 29-26 27-29 26-27 25-27 23-25 25-24 24-24 23-23 22-22 21-24 22-24 22-25 22-28 22-31 23-28 23-32 24-28 23-28 22-27 21-27 19-24 18-22 19-21 16-17 17-20 21-26 18-25 18-23 16-23 16-25 20-25 21-29 16-18 21-29 21-23 15-19 21-27 17-21 21-29 16-18 20-23 16-20 19-24 19-22 15-21 16-20 17-20 17-21 13-21 15-20 18-20 18-24 13-22 14-22 12-23 10-22 15-20 18-21 19-20 14-22"/>
<path d="M3433 20342l-1 0-6 27-1 25 1 28 3 24 5 30 6 29 4 25 4 28 3 24-2 24"/>
<path d="M5746 20372l-1-1 20-16 25-3 28-8 26-2 28 1 25 2 25 3 27 10 23 11 22 15 10 25-6 24-12 23-16 21-19 20-21 20-21 20-24 18-23 18-24 16-23 16-22 14-21 14-23 14-22 13 21 11 30-1 24-3 27 0 28 1 28-2 26 7 27 3 23 8 24 3"/>
<path d="M3762 20804l-1-2 24-6 28 6 24 2 25 3 24 1 26 3 29 2 32 6 32 8 33 7 33 9 26 6 27 7 31 6 30 6 29 6 32 7 29 7 32 6 34 8 34 9 35 9 36 12 36 11 35 10 35 9 36 11 35 9 36 8 36 9 35 8 36 8 35 9 34 8 34 7 32 7 33 7 34 6 32 8 34 7 31 6 32 11 32 8 30 6 31 8 32 5 28 6 29 6 27 3 27 6 24 4 25 5 36 4 34 4 31 3 27 5 27 4 25 0 26 4 24 2 30 3 28 4 27 8 26 6 27 5 23 8-25 0-30 0-32 7-27 3-29 5-32 3-24 5-26 5-28 7-31 6-32 6-33 9-32 7-34 7-33 8-35 8-35 9-35 8-36 10-37 7-39 9-39 9-40 9-40 10-40 11-42 10-43 10-44 10-43 12-43 12-42 9-44 11-45 10-45 11-43 14-42 9-42 10-42 8-41 8-39 8-37 7-37 6-37 3-37 5-35 4-34 5-32 3-30 3-32 3-29 1-27 2-26 2-26 2-24 1-34 0-31 2-30 3-29 3-27 3-26 5-27 3-26 5-25 4-24 8"/>
<path d="M3321 21567l 0-1 23-13 24-2 26-4 26 3 28 4 24 8-7 25-21 20-20 19-23 17-22 13-25 12-21 13 28-3 28-6 27 2 28 1 26 3 25 9 21 14 12 22-6 27-12 25-16 23-16 18-21 14-22 11-26 11-27 4-25-2-26-3-27-6"/>
<path d="M5516 20691l 0-2-23 9-18 16-19 22-17 20-17 18-18 20-19 20-21 22-24 23-16 18-19 17-19 20-21 19-20 19-19 21-18 18-17 20-18 20-20 20-23 21-22 23-24 24-25 26-26 24-27 26-25 26-27 25-26 25-25 24-26 21-28 23-26 22-28 22-30 24-27 23-29 24-29 25-30 23-31 23-29 23-31 19-29 22-29 22-29 21-28 23-28 21-29 21-28 21-27 22-26 21-25 21-27 21-26 19-25 18-24 19-23 15-21 18-21 17-21 14-24 23-20 16-21 17-19 15-22 10-17 19-17 16-20 19-22 14-20 15-19 17-22 16-21 20-21 21-20 18-21 14-20 18-21 18-20 16-19 18-15 20-17 18-15 19 23 15 28 1 29 1 26 3 26 3 26 2 27 2 25 3 32 4 28 4 25 2 29 3 25 3 31 3 33 4 33 2 35 3 35 3 25 4 25 2 28 3 25 4 24 4 26 3 25 4 26 4 27 5 29 6 29 8 27 6 28 7 27 8 25 7 27 10 27 8 28 8 28 9 27 6 25 7 25 7 26 5 26 6 29 6 26 7 26 6 27 6 35 8 28 8 25 6 25 5 25 5 25 3 25 5 25 4 27 6 25 3 23 5 34 7 25 7 25 5 25 4 32 10 30 3 29 6 27 3 30 8 28 7 27 5 26 3 26 5 25 6"/>
<path d="M5759 22547l 0 0 2 25-6 25-4 29-7 25-10 23-9 28-8 24-5 26 12 23 26 7 28-4 26 1 25 1 28 0 28 1 27-1 25 5 25 3"/>
<path d="M5903 22763l-4-2-10 25 4 29 4 27 0 29 2 24 2 24-3 24-2 25-4 26"/>
<path d="M3263 23194l 0-1 19-15 22-10 25-9 26-9 28-10 26-9 24-1 26 2"/>
<path d="M3334 23206l-3 1-20 16-8 25-5 25-3 28-1 27 1 24 26 5 22-11 22-12 21-17 22-15 23-10 25-10 26-6 23-6 24-2 25 8 15 22-1 25-4 27-7 25-12 25-16 23-20 14-22 17-24 8-28 5-25 6-26-1-26-3-22-12"/>
<path d="M3830 20515l-1 0 27 6 26 0 28-1 31-3 27-1 28-1 29-2 29 0 31 0 34 1 36 2 26 1 25 2 26 1 28 0 28 0 31-3 34-3 35-4 36-5 37-6 36-7 34-6 36-5 34-5 33-4 33-5 31-3 29-2 29-2 28 0 27 0 29-1 27 0 26 0 25 1 24 0 35 1 35 0 34-1 32-1 33-1 30 1 30 0 25 1 25 0 26 3 26-1 26 2 25 2 24-3"/>
<path d="M3922 27305l-2-1-1-25-14-21-23 5-13 22-2 25 22 13"/>
<path d="M5820 27348l-1-1 1-24-17-17-19 15 5 25"/>
<path d="M4122 27329l 0 0 25 0 28 4 24 1 27 2 29 2 31 4 25 1 31 0 33-3 35 0 25 0 26 0 37-1 25-1 26-1 30 0 25-1 24-2 33 0 25-1 24 1 25 0 25-1 35-1 33 1 31-1 33-2 29 0 28 1 24 4 25 1 31 0 26 1 27 0 26 1 27 0 25 2 28-2 25 0 25 3 25-4 28-2 25 2 24 3 29 3 28 0 26 0 26 3 24 1 24 8"/>
<path d="M4062 27040l-1-1 14-23 13-24 14-22 17-29 14-25 17-29 19-30 14-22 15-23 15-24 17-24 16-25 16-25 17-29 16-30 18-30 19-32 19-32 21-32 21-34 22-34 23-34 21-34 21-32 21-31 19-31 21-29 21-31 19-30 19-29 18-28 17-25 16-25 16-25 17-25 16-25 14-23 15-21 15-22 13-22 16-21 14-22 13-21 13-20 15-29 15-25 12-21 14-24 11-25 11-23 9-23 14 20 8 27 9 26 7 23 11 24 11 28 6 26 11 30 11 22 9 25 8 30 10 23 13 23 16 28 15 31 15 28 18 29 19 29 13 20 17 28 19 28 22 23 24 25 20 25 18 24 16 23 15 27 15 22 11 21 14 19 13 24 12 21 13 28 12 23 10 24 12 24 16 28 15 28 11 25 10 22 14 25 12 22 12 21 13 24 16 21 15 24 14 23 15 25 14 25 10 22 12 24 10 25 13 22 12 21 12 22 13 21 13 20"/>
<path d="M4040 27583l-1-1 21 15 16 24 13 23 17 18 22 17 22 17 20 14 25 16 25 17 24 18 25 17 21 14 22 15 23 18 25 13 26 12 30 10 28 12 28 9 28 6 28 2 29 2 31 1 33-1 31-2 34-5 32-4 31-2 29-4 27-5 24-3 24-5 31-9 25-5 29-1 31-5 31-6 30-6 24-7 24-6 25-6 31-6 29-4 27-6 28-8 26-10 25-8 24-9 27-8 24-6 26-8 24-9 23-15 24-10 24-9 25-8 22-11 22-12 24-9 18-19 18-18 18-20 16-20 15-21 16-17"/>
<path d="M4290 29805l 0 1 26 5 22 10 25 8 23 9 24 10 23 9 26 12 27 12 24 8 25 10 27 9 25 9 26 11 27 10 29 12 28 14 32 12 34 12 23 9 24 8 23 10 26 7 26 10 27 8 29 10 30 13 31 12 32 14 31 11 32 13 32 12 34 11 34 11 33 11 33 10 33 10 35 13 35 12 34 15 35 13 36 13 36 14 37 14 39 15 39 14 40 15 39 16 37 15 38 17 37 17 36 13 38 17 34 15 34 16 34 16 32 13 31 13 32 12 31 10 30 12 29 11 29 11 27 11 28 10 25 9 34 11 29 10 30 10 26 11 24 8 27 11 25 9 24 4 5-25"/>
<path d="M4135 29679l 0 0 8-23-14 20-13-20 17 20"/>
<path d="M6652 30752l 0-1 22-11-24-3"/>
<path d="M9164 25570l-1-1 24-7-2-24-22 10-13 20 2 25 17 18 24-6 16-18 10-22-9-24-19-15-25-3-13 22 8 25"/>
<path d="M8903 25940l 0-2 4-25 24-3 27 1 31 2 30 1 26 0 27 1 26 2 25 0 31 1 28 3 27 2 24 0 25-3 26-2 24-4"/>
<path d="M12005 25636l-1 0 12-21-25 3-11 22 19 16 23-9 16-19-20-15-26-1-22 10 2 25"/>
<path d="M11883 25942l-1-1 25-7 24-2 27 0 26-2 25-2 29-2 26-5 25-6 26-7 23-8"/>
<path d="M12011 25852l-1-1-10 22 3 27 3 25 5 28 8 25 6 27 6 26 6 24 4 24 5 24"/>
<path d="M9119 26174l-1-1 5 28 1 28 0 25 0 30 1 28 2 32 0 25 0 33 0 28 1 28 0 30-1 31 0 32-2 34-1 34 0 25-1 24 0 26-2 35 0 35-2 32-2 32-2 30-1 31 0 30 0 31 0 31 0 30-1 29 0 29 0 27 0 26 0 25 1 24 3 28 3 26 3 25 4 26 3 25 5 26 5 25-15-21"/>
<path d="M9022 27676l 0-2 7-24 10 25 6 28 4 25 3 30 1 29 0 28 1 28 1 25-1 25 1 24"/>
<path d="M11990 26306l 0-1 11 25 2 27-2 26 0 28 0 25-2 25-1 24 0 25 0 25 2 29 1 25 1 27 2 29 0 32 0 34 0 33 0 33-4 31-4 30-1 28-3 27 0 26 0 25 0 26 1 32 1 30 1 24 1 24 2 25 2 24 4 31 3 28 3 27 5 26 3 25 3 27 0 26-1 25 0 26 0 26-3 25-1 26"/>
<path d="M11901 27665l 1 0 23-12 25-2 24-3 25 1 27 3 23 8 19 16 6 25-7 24-17 26-19 26-16 21-20 19-21 21-21 18-21 18-23 18-22 19-19 15 23 15 24-10 28-6 28-6 26-3 27-3 27 6 20 16 16 19"/>
<path d="M8874 30739l 0-1 24-3 3-24-25 4-4 24"/>
<path d="M8751 30994l 0 0 26-8 25-3 25-2 24-4 25-5 24-3 27-3 27-1 26 0 25 0"/>
<path d="M11621 30840l 0 0 23-7 10-23-17-18-19 18-6 24"/>
<path d="M11513 31095l 0-1 26 1 27 1 28 1 24 0 28-4 25-6 27-6"/>
<path d="M11609 31018l-1 0-5 27 1 25 5 28 5 30 6 29 2 24 2 29"/>
<path d="M9005 34181l 0-1-6-25-24-8-14 20-1 25 11 22"/>
<path d="M11502 34275l-1 1 15-21 6-25-10-22-18 21-9 26-5 28"/>
<path d="M8790 34584l 0-2 1 25 3 25 1 25 2 28 2 30 0 27-1 27"/>
<path d="M11436 34763l 1-3 22-15 25-5 24-6 25-2 24-2 27 2 25 10 16 20-10 24-18 20-22 18-21 12-25 16-20 13-21 15 22 9 24-5 25-4 32-4 24-4 24-3 24-1 24-1"/>
<path d="M7533 32505l 0 0 5 27 1 27 2 29 2 25 1 28 0 27 0 27 1 26 2 24 1 24 1 25"/>
<path d="M9217 33853l 0-1 12-23 15-21 21-22 18-21 17-18 19-20 21-20 22-21 22-22 23-23 24-25 16-18 18-18 17-21 17-20 17-21 18-21 17-20 17-20 18-20 17-21 18-20 18-21 17-21 17-22 17-24 18-24 17-25 18-26 19-26 20-29 20-29 22-29 22-32 22-31 24-32 23-32 24-31 23-31 24-30 23-30 22-28 22-28 23-29 23-28 23-29 23-29 24-28 23-29 23-30 24-33 25-33 23-34 24-33 25-31 23-31 25-30 24-29 24-31 24-29 24-29 23-28 24-29 22-29 22-28 23-29 23-30 23-30 23-29 22-28 22-26 19-26 20-25 18-24 19-22 18-22 17-21 17-22 16-20 14-20 15-20 15-21 15-21 16-20 15-21 16-23 15-22 15-24 15-22 14-21 20-29 18-28 17-25 18-25 18-24 17-23 15-22 18-27 16-25 15-21 14-21 11-22"/>
<path d="M11504 31581l 0-1 5 25 4 24 2 29 0 28-1 25-3 28-2 25-3 30-5 32-7 35-5 25-6 26-6 28-6 29-6 29-5 32-5 33-6 33-5 36-5 34-5 36-3 33-5 35-3 34-3 31-3 30-2 27 0 27 0 26 1 27 1 25 1 25 1 25 2 24 3 26 2 25 3 25 2 24 2 35-1 25 2 36 0 24 0 25-1 34-3 33-2 32-4 29-5 28-6 31-4 31-3 28-4 26-4 31-2 25-2 27-3 29-2 28-3 28-2 27-2 28 0 28 1 27 1 26 3 29 1 24 2 27 0 28 0 28 0 25-2 24 0 29 2 25 0 27 0 26 3 28-3 25-1 26-1 25 0 30-1 24 0 28 0 25 1 26 0 25"/>
<path d="M10199 37161l 0-1 20-13 3-24"/>
<path d="M9140 34587l 0 0"/>
<path d="M9128 34614l 0-1 11 24 9 22 13 28 12 23 11 21 11 25 13 25 13 25 15 23 16 26 18 26 18 28 21 28 21 34 14 21 14 21 15 21 13 22 16 22 15 23 14 22 14 23 15 23 16 24 14 26 16 24 14 22 16 25 16 22 15 25 16 24 16 23 14 25 16 25 16 24 15 26 14 26 13 26 13 24 11 25 12 25 12 26 11 25 10 23 9 25 9 24 8 23 7 24 12 34 12 34 9 23 13 31 11 31 11 28 13 31 13 31 14 31 12 28 12 28 12 30 13 30 12 32 14 32 12 28 10 27 10 24 10 26 9 25 9 29 9 29 7 29 7 24 8 25 9 32 11 30 11 30 9 25 10 30 9 26 11 24 12 24 10 27 9 25 8 27 7 26 8 25 3 26-9-28"/>
<path d="M11282 34616l-2 0-20 17-16 25-13 25-12 24-14 31-12 21-13 24-14 26-14 26-15 29-16 28-16 30-17 33-18 35-17 35-16 39-16 38-16 39-15 42-16 39-15 38-16 38-15 40-16 38-15 38-14 40-16 37-16 38-16 39-17 36-17 38-17 36-19 37-16 36-18 34-16 35-15 32-16 33-16 31-15 30-15 31-15 30-14 28-14 28-14 28-13 27-13 26-13 24-11 26-12 26-12 25-11 27-10 23-10 22-13 33-10 30-9 31-6 25-10 32-8 30-8 24-7 26-8 27-7 24-9 30-8 28-7 29-7 27-5 24"/>
<path d="M10160 28241l-2 1-17 19-15 25-14 22-16 28-14 22-14 25-16 28-15 28-16 28-16 28-16 29-15 31-17 31-11 21-12 23-12 23-11 24-13 26-13 27-14 27-14 27-14 27-15 28-16 28-16 28-15 31-17 31-17 30-16 30-16 30-16 29-18 30-15 29-15 29-14 26-12 26-11 25-11 24-11 23-10 23-10 22-12 22-10 22-12 23-12 23-12 23-13 24-14 24-15 26-16 27-14 26-16 28-15 27-15 28-16 28-15 27-14 25-13 24-11 22-11 22-16 31-16 31-13 30-13 27-11 26-12 23-10 23-10 23-10 23-11 26-10 24-8 24-8 24-9 24-8 25-7 24"/>
<path d="M10247 28345l-1-1 13 23 18 20 22 21 21 19 19 16 21 19 23 19 26 20 27 23 20 15 20 16 20 16 20 16 20 17 21 17 19 16 19 16 20 18 19 18 19 17 18 19 17 20 16 20 16 19 14 21 16 24 15 25 16 26 16 29 14 28 16 29 14 33 15 31 14 29 15 28 16 25 15 28 16 28 16 29 15 27 17 27 18 26 16 27 18 26 16 23 15 23 15 23 17 23 15 23 16 23 15 21 16 22 16 21 15 23 17 23 14 24 13 23 12 24 13 26 13 26 13 26 11 24 16 30 10 23 11 22 10 22 13 32 10 29 11 31 11 33 10 33 9 30 8 28 8 27 8 26 7 25 8 29 9 30 8 30 10 29 8 25 9 26 8 24 11 26 10 25 8 24 9 29 8 25 11 24 9 25 9 23-25 2-27-14"/>
<path d="M10199 27836l 0-1-15 21-7 25 2 25 3 27 3 27 4 26"/>
<path d="M3124 37533l 0 0 24 5 24 3 29 4 28 2 27-3 26-6"/>
<path d="M3437 37342l 0 0 5 28 2 25-2 29 1 32 0 25 0 28 2 26 3 27 1 25-2 25-1 27 2 24-3 28-4 25 1 27-1 26"/>
<path d="M5666 37622l 0 0 24-2 25-1 27-4 25-3 25-5 25-5 24-9"/>
<path d="M5746 37520l-1 0-13 23 0 28 4 26 3 25 3 26 1 24 5 28 6 28"/>
<path d="M6000 37408l-1 1 2 25 6 26 4 26 3 26 0 30-1 24 0 25-1 29-1 31 0 28 0 27 0 28 3 25 3 25"/>
<path d="M2941 39495l 0 0 23 10 25-1 24-4 27-4"/>
<path d="M3134 39371l 0-2 18-16 27-6 27 2 23 8 25 12 19 22 13 23-1 28-12 21-21 19-23 19-21 17-23 22-29 17-21 16-15 21-16 21-7 23 24 6 26 0 26-1 25-1 30-2 30-1 32 2"/>
<path d="M5641 39478l-2-1 25 1 26-3 25-2 27-8 27-10"/>
<path d="M5722 39392l 0-1-1 26 5 24 4 27 3 26 0 27 1 27"/>
<path d="M5868 39352l 1 0 24-2 29-2 29 1 25 0 27 6 20 14 19 16-4 25-17 19-24 19-21 18-22 18-22 17-11 22 21 18 25 6 27 3 25 0 30 0"/>
<path d="M8463 38238l 0-1 22-13 26-5 27-5 24-5 27-3 25-4 26-5 25-6 25-9"/>
<path d="M8592 38118l 0-1 3 28-4 29-3 27-3 30-1 26-3 27-4 26-3 26"/>
<path d="M8820 37996l 0 0-2 27 3 25 7 28 6 25 3 26 2 31-2 24-6 32-3 27-3 32-4 26-3 29-2 28-1 26 1 26"/>
<path d="M10428 38251l 0 0 24-2 28 2 28-4 28-3 30-4 26-2"/>
<path d="M10760 38096l 0-1-5 25 1 28-1 29 0 25-3 27-1 28-3 28-5 25-6 25 4 24"/>
<path d="M8403 38927l 0-1 24-6 24-1 25 1 25-3 25-7"/>
<path d="M8473 38873l-1 0-1 26 6 26 4 24 6 28 8 22"/>
<path d="M8655 38828l 1-2 19-17 26-6 30-4 26-3 28 1 25 1 25 7 21 11 13 22-12 22-21 18-23 18-20 17-21 16-22 16-21 15-24 18-18 17-17 18 14 21 26 7 28 1 28 0 31-2 25-1 26 0 26 1 25 1"/>
<path d="M10352 38889l 1-2 22-9 25-3 27-6 26-7 31-7 24-5"/>
<path d="M10659 38764l 1 2 27 2 27 1 28 2 23 8 10 22-12 24-18 16-22 18-22 16-20 19-20 16-14 21 22 15 25-2 29-4 25 1 26-1 27 1 24 2 24-2"/>
<path d="M9573 39765l 0 0-17 17-15 23-11 21-9 25-3 27 18 20 26 0 24-10 26-15 23-20 15-19 5-24-19-19-24-12"/>
<path d="M9733 39790l 0 0 8 25 7 25 6 24 2 24-10-24 10-22 19-17 19-18 22-15 24-10 27-3 26 0 25 8"/>
<path d="M8353 40861l 2-2 24-14 23-12 21-11 27-13 25-9"/>
<path d="M8403 40745l-1 0-2 27 3 25 2 27 1 27 3 26 5 24"/>
<path d="M8616 40656l 0 0-1 25-1 28-2 26-1 29 1 28 0 26 2 26 2 26 2 25 3 25"/>
<path d="M10245 40840l-1-2 24 5 26 4 24 2 28 2 29 0 29-3"/>
<path d="M10527 40753l 0 0-5 28-2 26-1 24-1 26-1 26-1 24-1 28"/>
<path d="M8291 41653l 0-1 25-5 26-1 24-3 25-1 25-3"/>
<path d="M8545 41531l 0 0-2 24 1 28 4 25 5 28 5 28 2 28 3 28"/>
<path d="M10091 41518l 0-1 24-3 26 1 25 1 27 0 29-1 31-3 30-4"/>
<path d="M10200 41451l 1 0 6 24 4 28 3 26 3 28 2 28 2 24"/>
<path d="M10434 41424l 1-1 23-11 25-2 26 6 24 10 21 13 16 22 2 26-15 22-24 18-24 17-23 17-16 18-2 25 24 10 28 5 29 3 29 1 24-1 25-1 25 0 26 0"/>
<path d="M9351 42370l 0-2-24 7-15 23-5 26 5 26 15 18 26 9 25-5 22-12 14-20-2-27-10-25-15-22-16-19 13 22"/>
<path d="M9564 42375l 0 0 17 20 12 21 12 21 8-26 12-24 14-21 16-19 17-17 25-11 25-2 25 0 29-1 25 1 27 0 25 3"/>
<path d="M8463 41538l 0 0 16-18 23-9 25-3 25-3 22 10 15 19-1 25-11 23-19 17-19 19-22 16-22 17-23 17-18 16 25 0 24-2 27-1 28-1 26 2 26 2 23 5 25 6 23 5"/>
<path d="M8248 43019l-1-2 27 4 28-4 26-6 25-4 24-4"/>
<path d="M8543 42894l 0-2-2 29-3 27-3 27 0 25 2 25 0 27 0 26 1 27 6 25"/>
<path d="M10211 43037l 0 0 24-3 24-2 28-2 29-4 28-5 28-4"/>
<path d="M10284 42929l-1-2-5 29 1 24 2 26 4 26 4 29 6 24 10 24"/>
<path d="M10535 42917l-1-2 11 28 6 26 4 31 0 25 1 28-2 26-3 25-2 25-3 30-1 28"/>
<path d="M8159 43622l 0-2 27-7 27-2 24-2 26-4 25 0"/>
<path d="M8259 43568l-1 0-4 26-1 29 3 28 6 27 9 26"/>
<path d="M8457 43491l 0-2 23-9 26 0 27 0 30 0 28 6 21 13 19 19 2 28-16 23-18 17-22 19-25 18-24 14-23 15-22 15-20 16 2 25 28 8 26 3 30 1 25 0 28 1 31 0"/>
<path d="M10193 43560l 0-2 26-8 26-3 31-1 29-4"/>
<path d="M10510 43448l 0-2 1 29 1 26 0 27-1 26 1 30 0 25 3 25 0 25 3 29"/>
<path d="M10401 43467l 0-1 5-25 20-15 23-5 22 10 7 24 6 26 5 24 4 26 0 25-3 26-11 25-14 21-15 19-15 20-19 15-19 16-22 14-22 8 24-4 26-9 23-7 24-1 24-4 25 5 25 5 24 3 24 4 24 6 25 4"/>
<path d="M10351 43445l-1 0 7-23 22-13 24-6 27-3 24 0 25 9 20 16 12 22 4 25-3 27-6 27-13 22-11 23-12 22-13 22-16 21-17 20-21 16-23 12-24 9-24 0 25 0 27-5 26-1 27-3 25 0 24-1 25 3 25 7 24 9 22 10"/>
<path d="M3242 37990l 0 0-6 23 0 26 1 26 4 26 0 28-1 32 0 28-1 31 0 28-2 31-4 27 0 25-2 26 0 25-2 26-2 28-3 29-3 30-3 30-2 32-4 30-3 30-6 28-4 28-2 31-2 29-1 28-2 31 2 29 1 26 1 26 2 27 0 26-2 28 1 24-3 24-5-28"/>
<path d="M3055 38475l-1 0 22 14 18 21 16 18 18 18 19 18 20 14 26 14 23 14 22 13 24 13 22 14 20 13"/>
<path d="M3025 38724l 0-1 18-20 20-15 21-19 25-19 22-15 20-17 22-17 24-17 20-18 22-18 20-16 22-17 22-17 23-19 21-18 21-18 18-19"/>
<path d="M3611 39163l-1-2 23-19 20-14 23-15 28-16 24-15 28-18 29-21 21-13 28-18 28-19 29-22 19-16 20-15 20-16 22-15 21-15 20-14 21-14 21-14 21-12 21-14 23-12 22-12 22-12 23-14 25-15 25-15 27-15 27-15 27-13 27-17 26-17 26-17 27-19 26-16 26-17 26-15 25-13 22-15 24-14 23-13 24-15 23-15 23-14 24-16 25-14 25-14 25-14 23-12 23-12 31-17 31-15 30-16 28-16 25-18 24-16 24-16 24-15 23-16 21-15 21-14 19-16 24-20 24-19 24-17 23-16 23-14 20-16 23-16 20-15 25-15 21-17 22-17 18-17 19-16"/>
<path d="M4418 38427l 0 0 27 3 23 14 18 19 13 22 12 24 11 27 11 27 11 25 10 23 12 22"/>
<path d="M4582 38381l 0-1-20 16-16 24-9 23-11 27-11 28-11 29-10 24-10 25-13 27-12 27-13 30-12 27-10 23-11 28-7 24-4 25"/>
<path d="M3958 37544l-2 0-23-5 24 7 25 9 28 7 28 5 32 5 27 2 28 3 31 1 30-1 30-3 33-3 32 0 34-1 32-2 32-1 33-2 34-1 35-1 35 0 25 1 27 0 27 0 27 1 30-1 27 0 27-1 29-5 25-2 28-3 27-4 24-1 32-3 29-2 29-1 25 0 30 3 28 2 29 1 27 1 26 0 24 3 26 1 27 0 25-1 26 0 24-1 24 5 23 8 25 2"/>
<path d="M4530 37392l-1-2 21 16 16 19 17 23 14 20 19 25 18 26 18 24 18 20 20 18 20 14"/>
<path d="M4748 37422l-1-1-24 2-23 10-22 20-17 20-21 22-22 24-23 23-23 26-22 27-20 28-21 30-18 27-16 27-13 23-9 22"/>
<path d="M3881 39348l-2 0-25-1 27 3 25 0 25 1 30 0 27 2 30 0 29-1 35-2 25-6 28-3 29-2 27-2 29 3 28-3 28 0 29-2 28-4 29-1 28-2 29 0 31 0 32-2 32-1 30-1 31 0 29-1 28 1 29 1 28 0 26 1 27 1 27 2 27 2 25 2 25 2 36 5 32 3 31 4 30 7 29 4 27 4 27 2 24 1 28-2 28 1 25 2"/>
<path d="M4411 39174l 0-2 21 16 23 18 21 19 22 21 18 17 21 21 22 17 20 19 18 17 20 16 18 19 19 15"/>
<path d="M4647 39173l-2-1-25 1-18 17-19 15-19 20-15 20-18 23-17 23-15 25-13 25-19 27-21 29-13 21-18 27-15 29-15 25-10 25-7 24"/>
<path d="M5942 38095l 0-1 2 26 3 28 3 28 2 30 3 31 2 31 3 24 4 27 3 25 2 24 1 31 2 27 3 29 2 31 0 32-1 32-2 31-2 31-2 27 0 25-1 30 1 26 0 29 0 26-1 28 0 24 0 31 1 28-1 27 0 27-2 24-4 25-4 24 1 25"/>
<path d="M5842 38467l 0-1 24-2 25 12 24 17 23 19 20 18 19 20 20 22 21 21 19 20 22 20 18 17 22 15 19 15"/>
<path d="M5805 38692l-1-2 3-25 18-18 21-20 20-17 22-19 25-20 28-17 29-20 29-22 27-23 27-20 22-19 21-17 18-16 20-17 21-18"/>
<path d="M3231 46370l-1 1 26-7 27-2 26 0 24 1 24-1"/>
<path d="M3438 46259l 0 1 5 23 9 24 4 25-2 27 0 25 1 29 1 26 1 27 1 27 3 25 1 26 2 26"/>
<path d="M5562 46358l 0 0 25-2 25-3 26-7 24-3 26-5 24-6"/>
<path d="M5636 46291l 0 0-2 27-3 25-1 25 3 26 2 27 10 23"/>
<path d="M5853 46205l 0-1-4 24-1 31 1 28 2 29 4 27 3 29 5 29 2 25 2 27 2 24 1 24 3 27"/>
<path d="M3051 47916l 0-1 23-13 26-5 25-5 24-7 27-8"/>
<path d="M3262 47770l 0-1 27-7 27 1 27 8 20 14 16 20-2 25-17 23-16 17-18 17-19 18-20 20-17 16-13 21 25 5 26 0 27 3"/>
<path d="M5529 47823l 0 0 27-7 24-2 26-5 26-1 24-5"/>
<path d="M5613 47737l-1 0-13 21 4 27 2 28 6 23 6 27"/>
<path d="M5729 47708l 0-2 25-6 27-3 25-2 25-1 28 4 22 12 4 25-14 24-17 21-22 20-20 14-19 16-19 17 20 17 27-2 29-3 27-2 25 4 23 9"/>
<path d="M2975 49261l 0-1 25-7 24-6 24-6"/>
<path d="M3157 49159l 0-1 23-13 26-6 24-1 25 5 0 25-21 21-17 17-20 16-17 17 24 9 24 0 27 4 27 2 26 8 21 12 14 21-9 26-12 21-15 20-23 15-26 11-25 8-24 1-24-7"/>
<path d="M5425 49282l-1-2 21-17 25-8 24-6 24-7 21-15"/>
<path d="M5447 49214l-1-1 3 25 9 24 12 22 11 23 12 23"/>
<path d="M5627 49162l 1-1 22-15 25-7 27-2 27-2 26 4 11 21-14 21-20 17-19 16-11 21 20 14 25 4 25 7 25 9 24 10 20 15 3 25-16 22-22 15-25 10-25 5-27 5-25-3"/>
<path d="M2953 50601l 0-1 24-9 28-2 28-4 25-1 26-3"/>
<path d="M3213 50428l 2 0 11 22-6 27-7 24-7 28-5 25 5 23 18 18 24 7 28-2 27-6 26-5 29-10 26-9 24-8"/>
<path d="M3336 50514l-2 1-15 19-3 26-3 24 3 31 4 28 5 29 8 28 10 25"/>
<path d="M5366 50618l-1-1 23-10 26-4 25-4 26-4 27-8 26-8"/>
<path d="M5441 50540l-2-1-19 16-10 24-3 26 4 26 10 23"/>
<path d="M5697 50456l 0 0-7 23-8 25-12 24-9 25-9 23 9 24 24 11 26 2 25 0 27-2 24-4 28-3 27-3 30-3 29-3 25-5 25-3"/>
<path d="M5810 50520l 0 0-10 22-4 28-3 24-2 24 0 25 0 26-1 27 0 25 0 25"/>
<path d="M3325 46783l 0-1 3 27 4 26 4 25 0 24 3 28 2 29 1 29 1 25 3 29 0 32 0 28-1 27-1 27 0 28 0 25-2 31 0 29 1 26-1 25 2 27-2 26-2 26-1 27-1 27-2 25"/>
<path d="M3228 47106l 0 1 22 15 20 17 22 13 23 13 23 11 23 11 22 14 20 14"/>
<path d="M3223 47282l 0 0 18-20 22-15 24-15 26-17 22-15 21-15 22-14 20-15 20-13 24-16 22-14 20-15 22-16"/>
<path d="M5435 46678l 0-2-24 10-15 22-14 20-20 25-19 23-21 25-24 27-14 21-17 22-18 25-17 24-19 24-17 23-18 24-17 26-18 28-20 27-19 30-20 28-21 29-20 29-20 26-19 26-18 25-19 25-20 27-18 27-20 28-19 27-19 27-20 27-19 29-19 28-18 30-19 27-20 27-19 28-19 28-21 31-18 26-19 27-19 26-18 24-18 24-14 24-16 24-15 25-15 23-17 22-12 22-14 22-12 21-15 24-15 23-17 23-17 23-17 23-16 23-17 22-17 21-17 21-17 22-16 21-18 21-16 21-15 18-22 26-22 23-19 23-21 23-21 21-24 22-24 21-22 23-22 24-22 25-22 23-22 23-21 20-21 21-20 19-17 19-17 16-17 18-22 21-20 23-18 26-21 21-17 18-14 22-17 22-14 21-13 22-15 23-15 21-13 22-12 25-16 22-16 19-12 25-15 19-16 19-16 19"/>
<path d="M4467 47855l 0 0 18 17 18 18 11 21 15 21 18 17 6 23"/>
<path d="M4529 47816l 0 0-10 22-3 27-2 25-1 27-2 25-2 25-3 32-2 27-1 29-1 27 1 27 6 27"/>
<path d="M3509 50309l 0-2 10-22 18-18 17-19 16-18 19-17 19-23 17-18 17-18 18-23 15-21 15-24 20-31 14-20 14-23 16-24 16-24 16-22 16-22 17-18 16-18 19-18 16-19 16-21 23-27 19-28 21-23 24-27 23-27 15-20 22-28 18-20 17-21 19-20 20-21 19-22 20-24 20-25 21-26 20-24 20-24 21-23 20-20 20-21 19-22 19-21 20-23 19-22 20-22 22-23 20-22 21-24 24-25 22-28 24-26 25-26 23-27 25-26 23-26 20-27 22-25 20-22 21-22 22-22 18-21 20-20 19-20 18-20 18-22 19-21 17-21 19-21 17-19 18-20 18-19 17-19 16-20 15-21 13-20 14-20 20-28 19-25 19-21 18-20 16-19 20-23 19-23 18-24 17-20 16-20 18-21 15-22 17-22 17-19 15-23 15-20 16-19 17-18 15-19 15-19 16-19"/>
<path d="M4435 49088l-1-1 21 16 12 23 6 23 7 25 8 27 11 26 12 23"/>
<path d="M4502 49012l-1 0-16 22-10 25-6 28-6 26-5 24-9 30-8 29-6 29-5 29-4 28-4 28-2 25"/>
<path d="M9184 46416l 0-1 27 6 28-2 28-3 27-4 28-5 26-7"/>
<path d="M9406 46325l-1 0-4 25-3 28 1 27 1 27 0 29 0 26 0 27"/>
<path d="M11162 46383l 0 0 28 0 30-3 26-4 26-3 26-7 24-8 23-10 26-10"/>
<path d="M11267 46280l 0 0-2 24 4 27 8 26 6 24 2 27 1 25-1 24"/>
<path d="M11466 46243l 0-1 6 27 1 26-1 26 1 25 1 28 3 30 1 25 0 31-1 27"/>
<path d="M8994 47737l 0-1 27-6 24-1 26-2 26-4"/>
<path d="M9197 47651l 1-1 24-9 23-6 25 0 24 5 18 16-10 22-17 21-19 21-21 18-20 19-20 17-19 19-12 22 13 21 25 7 30 3 28-1 29-5 32-3"/>
<path d="M11185 47689l-1-1 25 6 29 0 28-5 29-6"/>
<path d="M11264 47619l 0 0-3 24 2 24 5 26 2 24 5 26 3 27"/>
<path d="M11418 47617l 2-1 25-8 25-4 25-3 28 2 22 12 8 24-14 23-19 19-18 16-20 13-25 15-19 19-15 21 9 25 25 8 25 3 28 0 28-1 27 2"/>
<path d="M8874 49232l 0-1 27 0 28-2 28-5 25-5"/>
<path d="M9116 49101l 0-1 23-12 25-1 26 0 24 3 5 24-17 17-20 18-14 20 20 16 25 1 24 4 21 12 16 19 7 23-7 24-14 24-19 17-22 13-27 10-28 2-25-7"/>
<path d="M11173 49084l 0-1 26-1 24-2 26-4 25-5 25-4 29-6"/>
<path d="M11278 49052l-1 1-4 25 5 24 9 25 11 21"/>
<path d="M11470 49011l 1-1 26-8 25-4 25 2 24 5 21 11-14 22-19 18-21 16-20 15-9 25 25 1 25 2 25 1 24 6 20 16 3 24-10 22-18 21-19 19-22 13-25 8-25 2-25-5-21-11"/>
<path d="M8845 50417l 0-1 26-7 26 1 24 1 30-1 24-3 29-4"/>
<path d="M9174 50273l-1-1-18 19-11 25-6 24-6 25-5 28-2 25 3 26 14 21 24 7 28 2 28-1 28-2 31-7 23-8 29-7"/>
<path d="M9275 50401l-2-2-5 28 6 28 6 26 3 25 3 28"/>
<path d="M11207 50398l-1-2 27 8 29-1 28-6 28-6 25-4 23-6 25-7"/>
<path d="M11354 50329l 0 1-8 26-1 26-2 26 0 26 1 26 6 24"/>
<path d="M11538 50333l 0 0 24 1 25 3 25 4 22 11-1 25-19 17-21 15-19 17 13 21 24 1 27 4 24 5 21 14 5 25-17 21-20 20-22 13-24 11-27 9-24-1-24-7-23-10-21-15-21-15-22-15"/>
<path d="M9591 46559l-1-2-12 22 0 25 6 25 12 22 20 19 22 13 20 14 22 14 19 18 22 15 21 12 26 14 27 12 26 11 26 14 26 14 24 13 25 14 28 12 22 10 23 10 22 13 23 10 24 7 23 11 27 11 28 14 31 13 31 14 32 12 32 13 32 14 30 11 31 15 29 11 31 11 29 9 26 10 25 9 23 11 24 10 23 10 24 13 27 15 25 11 23 11 21 13 27 14 27 15 26 18 23 13 24 15 21 11 23 15 20 20 22 13 16 18 21 13 17 19 18 18 18 17 19 17"/>
<path d="M11701 46472l 0 0 18-16 20 14 15 22 17 21 19 18 22 11 19 18 17 19 14 19 16 22 20 19 20 22 16 17 18 20 18 18 17 19 17 19 17 19 16 19 17 19 16 19 14 21 15 21 15 23 12 24 12 26 11 26 9 28 10 27 9 25 9 29 9 27 8 27 6 29 5 29 5 28 6 28 6 31 5 31 7 28 4 25 4 26 2 28 2 29 0 27 3 31 0 25 0 25 1 27-1 26 0 25 0 30-3 26-3 29-3 32-3 32-3 26 0 26-5 30-5 27-5 30-2 30-2 25-3 30-6 23-6 25-7 24-9 30-7 25-4 31-11 28-12 28-13 25-13 24-13 25-13 26-10 27-10 24-11 23-13 22-19 21-14 24-16 24-14 20-15 21-13 23-12 24-14 23-16 23-12 25-20 17-16 18-16 21-17 19-13 20-17 18-16 18-18 17-15 20-16 18-17 17-17 17-17 18"/>
<path d="M11051 46571l 0 0-24 11-22 15-21 12-23 14-25 12-22 9-24 9-23 10-24 13-28 11-23 10-26 10-26 11-28 11-27 15-28 13-28 14-26 11-25 11-23 11-28 15-27 13-26 15-26 14-26 16-26 15-26 18-20 15-22 13-22 12-24 13-22 13-28 15-23 12-22 13-23 13-25 16-20 15-20 14-23 14-26 15-20 15-21 13-21 15-25 14-25 15-26 16-23 12-20 16-22 19-18 15-22 19-22 19-20 18-21 20-18 18-20 15-21 17-18 17-20 13-20 17-20 18-22 13-24 11-21 12-20 14-22 12"/>
<path d="M9029 46600l-1-2-24-3-22 13-21 17-18 20-19 21-18 22-19 20-19 23-15 19-16 22-18 23-17 26-18 27-18 28-18 29-19 28-19 28-17 28-15 31-15 30-13 30-12 30-10 26-9 25-7 27-8 29-6 32-7 31-7 29-9 34-10 36-6 26-8 24-6 23-9 32-7 34-7 35-6 33-4 34-4 34-3 33-3 24-3 35-2 36-3 32-3 24-2 35-2 24-3 31 0 29 0 28 0 32 1 31 2 30 2 27 4 28 3 28 4 27 3 24 3 30 3 32 3 29 3 28 6 31 5 28 8 28 12 24 11 26 10 22 11 25 10 22 13 25 12 29 9 24 11 22 12 25 10 22 13 22 13 22 13 21 9 23 12 24 8 24 8 23 9 23 13 21 12 23 15 22 10 24 13 21 11 21"/>
<path d="M11699 47829l 0-1 25-3 20 15 16 19 17 19 17 18 16 19 19 19 15 18 18 22 19 25 16 23 15 21 13 21 14 22 14 20 13 21 18 26 17 24 16 22 16 23 12 21 15 25 14 20 18 25 13 23 13 25 12 25 11 23 12 24 13 26 14 27 11 23 15 25 11 21 14 24 11 22 10 23 9 23 8 23 9 23 9 27 5 27 5 26 4 27 4 24 4 25 2 28 1 28 0 24 0 28-3 29-1 31-3 25-4 31-1 28 0 29-2 25-2 24-5 25-3 25-3 28-3 25-1 25-3 27-7 30-8 27-8 26-8 26-6 23-9 29-4 25-4 29-5 24-12 25-5 28-14 24-13 20-11 24-14 25-15 22-10 22-14 22-15 19-15 19-13 21-14 20-19 21-17 18-18 21-18 20-16 18-15 20-19 20-16 20-16 17-15 21-16 19-14 21-15 19-18 17"/>
<path d="M11610 50347l 0-2 7-25 10-23-14 21-14 21-13 23-15 23-17 25-12 21-15 28-15 27-13 22-9 23-8 25 24 5 24-10 21-15 24-11 27-8 27-7 29-6 24-3 26-7 25-11 25-10"/>
<path d="M11629 50340l-2-1-22 10-5 27 1 28 1 28 5 31 5 26 4 26 4 28 6 31 5 28 3 28 2 25 0 30 0 27-1 24"/>
<path d="M8941 47991l-2-1-21-11-23 11-21 17-25 17-22 18-25 19-21 17-21 17-23 18-22 20-25 21-25 22-24 25-23 26-16 19-15 21-16 21-16 25-15 24-16 26-16 26-16 26-16 26-16 27-15 28-14 29-15 29-14 29-12 28-14 29-14 29-13 28-15 29-13 30-12 30-13 30-12 32-11 31-10 33-10 34-9 35-10 34-9 35-9 35-9 34-7 32-7 34-6 33-5 31-4 31-3 30-3 28-1 28 0 25 1 27 3 35 2 32 4 28 3 28 5 27 4 28 5 27 5 28 6 24 6 27 10 29 13 26 12 29 11 30 12 25 14 25 14 24 12 23 13 22 12 23 11 23 12 21 15 25 15 20 14 22 14 19 16 24 14 20 13 21 13 23 18 22 14 20 17 20 14 20 15 19"/>
<path d="M8824 46612l 0-2 23-9 25 3 25-5 23-7 23-10 24-9 25-7 26-11 23-7 21-13-5 25-9 27-7 26-8 23-9 24-8 27-9 23-7 27-7 27-8 31-6 25-7 23"/>
<path d="M11688 48771l-1 0 13-22-8 23-13 28-11 24-11 23-12 26-12 25-7 24-2 25 24-4 25-4 26-1 25-2 28-2 28-7 25-6 23-6 28-4 27-7 24-3"/>
<path d="M11019 47337l-1-1 7 24 11 25 10 24 12 21 11 21 11 22-24 3-26 9-28 7-26 6-27 5-26 4-27-1-24-2"/>
<path d="M10912 46574l 0 0 20-14 25-6 22-8 27-4 25-4 25 0 6 23-11 27-13 23-12 21-10 24-13 26-10 26-10 24-6 23"/>
<path d="M11845 49968l 0 0 2 26-5 26-9 23-11 25-10 22-12 24-11 24-9 24-3 25 23 9 27-4 26-7 26-2 29-4 24-4 27-5 25-4 27-4 25-5 24-3"/>
<path d="M8758 48001l 0-1 14-19 22-13 23-12 22-11 23-8 23-8 24-11 25-1 19 16-6 24-11 27-10 26-10 26-8 24-9 28-6 25-7 24-8 25"/>
<path d="M3031 41769l 0 1 26 10 25 4 25 2 25 0 27-8 27-14"/>
<path d="M3280 41609l-1-1 7 28-1 25 1 28 2 25 1 25 2 24-3 24 0 24 3 31 3 29"/>
<path d="M5517 41753l 0-1 26-10 27-4 30-3 30-5 30-6 28-7"/>
<path d="M5612 41660l 0 1-11 24-3 27 1 26 4 25 4 25 7 24 5 28 7 25"/>
<path d="M5803 41577l-2 0 3 28 7 24 8 24 7 29 3 25 4 31 3 25 3 32 1 29 0 25"/>
<path d="M2919 43280l-1-1 25-5 26-5 25-3 29-4 24-5 27-7"/>
<path d="M3139 43184l 0 1 26 6 26 7 24 7 21 18 10 22-6 23-16 23-19 19-20 18-17 17-15 21 19 19 25 0 31-2 29 1 30 1"/>
<path d="M5523 43199l-1-1 17-20 24-8 27-5 28-4 25 0"/>
<path d="M5596 43146l 0-2 0 28 3 25 4 25 6 25 5 29 9 26 15 22"/>
<path d="M5765 43135l-2 0 26 5 26 2 32-2 26-3 25-1 30 1 23 6 22 11-4 24-11 21-17 25-17 18-17 17-23 21-24 21-18 17-10 23 23 11 26-2 26-5 27-6 26-4 29-5 29-5 29-5 25-2"/>
<path d="M3472 41906l-1-1 21 16 20 15 26 10 26 12 23 15 22 13 22 12 24 13 26 15 24 15 25 14 22 15 26 16 27 14 22 12 24 11 24 13 23 12 22 14 22 12 23 15 21 15 21 17 20 14 22 16 24 14 24 15 26 15 23 15 26 19 26 17 25 16 25 14 25 15 25 15 28 14 25 13 23 15 24 14 23 12 22 13 23 14 24 14 24 16 21 17 25 21 22 17 25 16 20 14 22 14 26 18 24 18 23 16 24 15 24 19 19 16 22 17 22 18 20 18 17 18 23 16 20 17 22 19 21 16 22 14 22 14 23 16 21 13 24 16 23 12 25 13 22 18 22 11 21 16 22 10 21 14 19-21"/>
<path d="M5173 42910l 0-1 25 11 17 20 20 17 14 20 13 23 12 21-12 22-25 12-28 6-25 7-28 6-28 3-28 1-25 0-23-7"/>
<path d="M3499 43084l-2-1 10-25 20-16 17-19 19-19 22-17 24-18 20-18 18-16 23-16 21-13 27-14 24-14 25-16 27-16 28-16 28-16 31-17 30-19 30-18 29-20 22-13 23-15 21-14 25-14 22-14 22-13 22-13 22-12 21-12 30-16 28-18 25-16 29-18 27-17 27-19 23-16 24-16 25-14 23-15 22-15 25-16 25-15 25-17 24-18 24-19 25-16 25-16 22-15 20-15 19-15 24-17 20-14 18-17 18-18 20-19 22-19 24-16 21-15 23-17 19-18 20-15 22-17 22-14 21-16 19-16 21-15 22-16 22-13 20-18 20-15 20-16 23-12 20-13"/>
<path d="M5104 41888l-1 0 19-15 25-5 27-6 27-5 23-9 24-7 14 20-7 24-6 26-10 23-9 24-9 24"/>
<path d="M5729 42090l 0-1-4 27-1 28-2 24-1 25 0 28-2 25-1 25 0 25 0 28-1 30 1 30 1 29 1 28 1 26 2 27 4 28 3 25 4 24 4 29 2 29 0 27 1 27 1 26 0 27 1 26 1 24-1 24 3 25 3-25"/>
<path d="M5650 42746l-1 0 12 22 11 24 12 21 17 19 17 16 24-6 16-23 15-18 16-21 17-23 17-22 17-22 11-21 12-24 13-21 13-24"/>
<path d="M3154 42893l-2-1-5-25 2-25 1-25-1-25-5-26 3-31 2-31 1-28-1-28-1-27-1-29 1-31 0-31-2-32-3-34-3-33-3-36 1-28 0-27 0-24 0-25 1-27 1-30 0-26 0-28 0-25 3-25 0-25 2-27 2-26-25 1-19 17-16 18-19 16-19 18-18 17 20-23 17-20 20-21 19-17 17-19 22 13 13 20 18 17 13 25 15 21 17 17"/>
<path d="M3558 42906l 0-1-21 12-16 22-15 20-12 21-13 23-12 22-1 24 21 12 25 6 24 6 25 2 24-8 23-5 26-5 26-7 24-5"/>
<path d="M3419 41962l 0-1 13-20 18 18-1 26 3 24 5 26 2 27 1 26-2-25 0-26-5-26-4-27-5-28-2-26 21-17 26-6 25-6 26-5 24-7 26-6 26-1 24-3 25 0 24-2"/>
<path d="M6293 43665l 0-2 20 16 16 22 12 23 14 24 11 25 16 21 20 15"/>
<path d="M6240 43759l 0-1 17 19 16 19 18 18 17 18 21 16 19 15"/>
<path d="M6809 44603l-1-1 24 3 24 6 24-1 27-5 28-2 25-2 28-4 25-1 26-1 31-2 31-4 31-4 25-4 26-5 28-4 26-5 25-5 24-3 29-1 26 2 26-1 30 0 24 1 26 3 24-2 26-5 26-1 26-3 25-2 24-2 26-1 26-2 25-1 23-7"/>
<path d="M7680 44479l-1-2 21-12 23 14 21 13 22 10 22 15 14 20-14 23-20 17-21 13-23 19-24 15-22 10"/>
<path d="M6829 44541l 0-1-27 6-22 17-20 14-20 17-19 18-18 18 15 20 24 3 27 5 24 7 24 4 21 12"/>
<path d="M6517 44808l 0-1 18 16 11 26 4 29 4 28 2 25 2 28 1 30 3 32 1 32 2 37 2 24 0 26 2 25 3 25 1 26 3 34 2 36 5 29 2 29 1 31 2 25 3 25 13 21"/>
<path d="M7886 44788l-1-2 3 26 1 29 0 24 0 27-1 27 0 29 0 30-1 32 0 30 1 30 0 29 0 28 1 25 2 27 3 26 9 24 24-2"/>
<path d="M7838 45153l-1-1 4 26 13 22 17 23 18 16 23 9 26-11 17-20 19-25 14-22 13-24 13-29 10-25"/>
<path d="M6477 45392l-2-1 18 19 17 21 17 17 19 15 24 0 15-20 11-21 9-23 13-28 7-24 7-30 6-30 6-28"/>
<path d="M6630 45680l 0 0 26 0 26 2 28 5 28-1 27-2 24-2 27-3 30-4 34-1 24-2 36-2 25-1 26-2 27-1 28-2 28-1 29-1 28-1 28-1 29-2 29 0 29-1 29-2 29 1 29-1 28-1 28 0 26-1 25 0 26 0 24 2 26-1 24-1 35-5 32-1 29-1 26-1 29 0 30 2 28 1 25-1 25-2 22-9-5-26"/>
<path d="M7741 45551l 0-1 24-3 26 4 27 5 26 6 23 9 9 22-15 22-22 16-21 12-20 15-27 14-24 9-27 9-30 7"/>
<path d="M6725 45594l 0-1-23 12-20 16-24 15-22 14-21 12-20 15-15 20 13 21 24 15 23 13 23 12 22 19 22 16 20 13 18 17 23 10"/>
<path d="M3527 52870l-1-2 15-21 23-10 24-6 26-6 26 0 28 1"/>
<path d="M3751 52728l 0-1 4 25 4 25 5 27 1 29 1 30"/>
<path d="M5423 52829l-1-2 16-21 23-8 26-8 25-5 31-4"/>
<path d="M5694 52702l-1-1 24-6 28-2 25-1 23 12 7 25-17 20-21 20-21 17-20 17-21 16-17 17 6 25 25 2 28 0 27-2 26-2 25-4 28 1"/>
<path d="M5778 52647l-1-2-6 25 0 27 2 26 2 27 0 25-3 24-2 31-3 28 0 25 0 29-2 26-4-26-3-25 0-26 0-31-1-30 1-31 0-29 0-30 0-28-1-25 3 26 1 25 2 28 1 28 0 28-1 26 2 30 1 28 1 26"/>
<path d="M3403 53442l 0-1 27-4 25 0 25 1 24-1"/>
<path d="M3617 53368l 0-1 27-6 26 2 25 6 21 13 11 24-14 22-19 19-18 16-25 16-22 20-19 17-6 23 24 4 24 8 27 3 26 5"/>
<path d="M3329 54219l 0 0 27-8 25-6 26-5 28-8"/>
<path d="M3601 54080l 0-1 23-14 29-6 24-2 25 3 24 6 0 27-15 23-18 16-21 15-19 14 11 21 27 3 29 0 25 0 24 9 5 25-12 26-10 24-17 19-19 18-25 10-26 3-25-7"/>
<path d="M3329 54904l 1-1 27-1 26 0 29-3"/>
<path d="M3596 54762l 0-2 16 19-4 25-1 25-9 23-11 27-8 26 3 25 25 8 27-2 26-6 29-11 24-9 30-9"/>
<path d="M3721 54811l-1 2-14 21 1 29 1 26 3 28 5 29 6 30 3 24"/>
<path d="M3252 55597l 1 0 20-14 27-2 24 0 28 1"/>
<path d="M3506 55463l 0 1 24-15 27-8 26-3 24 5 0 25-16 18-19 17-22 18-17 18 23 7 25 0 29-2 26-3 23 5 14 20-6 26-13 22-16 21-21 16-22 10-25 10-31 5-26-2"/>
<path d="M5500 52720l-2-2-6 26 0 29 1 30 2 24 4 28 6 27"/>
<path d="M3495 55469l-1-1 24-7 29-6 24-5 27-7 28-5 24-3 26-6 24-5"/>
<path d="M3571 55467l 0 0-18 17 0 29-5 25-10 26-5 26-3 25 22 10 27-7 25-12 24-8 26-8 28-6 26 0 26 5 24 8 14 21-6 25-16 22-18 17-24 18-23 12-27 13-26 12-23 6-28 5-26 2-25 2"/>
<path d="M3225 56307l 0 0 26 1 26 0 30-6 29-2 29-1"/>
<path d="M3617 56085l-1-1-12 22-10 25-12 29-7 25-5 27-5 27-3 26-1 28 5 29 10 24 13 23 26 14 24 6 26-3 22-10 18-21 1-26-13-24-18-20-26-7-27 5-22 15-16 20-10 23"/>
<path d="M3249 56964l 0-1 22-14 26-12 25-4 28-2 26 0 24 0"/>
<path d="M3529 56854l 0 0 23-15 27-5 26-1 26 5 24 11 0 25-6 27-13 27-12 27-12 23-11 23-14 23-8 26-8 24-9 28-4 28"/>
<path d="M3237 57730l 1-1 24-10 29-6 29-5 24-5"/>
<path d="M3564 57602l-2-2-22-11-24-7-25 1-19 18 3 27 5 25 16 25 16 19 20 16 20 17 21 18 19 24 8 26-1 27-12 26-15 23-20 19-20 14-23 7-25-13-13-20-2-25 5-30 5-26 9-25 12-26 13-24 15-20 17-17 21-20 25-14"/>
<path d="M3211 58505l-1 0 26-10 24-4 30-3 26-3"/>
<path d="M3571 58379l-2-3-12-23-16-17-22-14-25 2-21 16-19 20-13 23-3 26 16 22 27 9 29-3 23-10 24-12 18-19-6-23-18 17-7 23 0 25 5 30 3 26 3 28 5 25 8 26 7 27 4 25"/>
<path d="M3165 59203l-1 0 27-11 26-7 31-8 25-8 25-8 28-6 27-6 25-7"/>
<path d="M3459 59071l 1 0 8 25 4 27 2 27-1 28-1 28 1 27 0 24 2 26"/>
<path d="M3616 59089l-2 0-20 14-10 22-9 28-7 23-4 26 1 26 5 24 9 23 15 25 22 21 26 10 28-3 22-13 21-19 14-20 12-23 9-25 1-24-8-26-14-28-15-24-21-23-20-16-25-9-26 2-21 14"/>
<path d="M5428 53375l 0-2 23-8 29 3 24 2 28 1 28 1 26-2"/>
<path d="M5534 53324l-2 0-10 22-1 26 3 29 6 28 8 29 7 25 14 21"/>
<path d="M5742 53321l 0-1 22-15 26-1 24-1 24 5 21 14-10 25-18 18-20 17-23 18-23 16-21 16-21 17-11 21 18 17 24 8 27 7 25 4 27 4"/>
<path d="M5344 54846l-1-1 24-14 25-5 28-6 26-5 27-6"/>
<path d="M5446 54751l-2 0-14 20-1 27 2 28 1 26 3 25 5 27 16 20"/>
<path d="M5633 54731l-2-1-3 25 0 27 0 26 10 24 25 10 26 4 30-1 26-4 29-7 29-5"/>
<path d="M5745 54747l-2 0-22 13-8 26 2 27 5 25 5 29 6 23 6 24 6 25"/>
<path d="M5313 55499l-1-1 27-8 24-2 26-4 29-5 27-6"/>
<path d="M5385 55413l-2 0-20 14-3 29 5 27 8 29 8 24 10 24 11 21"/>
<path d="M5595 55389l 0-2 18-16 26-12 26-12 25-12 24-9 25-7"/>
<path d="M5637 55356l-2 1-20 16-15 21-5 23-3 25-1 25 9 25 23 7 26-1 24-5 26-5 27-2 28-1 24-6 20 13-12 23-21 21-23 16-24 15-25 12-28 10-26 7-25-4-17-20"/>
<path d="M5330 56201l-1-1 22-14 28-4 25-3 27-4 25-7"/>
<path d="M5407 56120l 0 0-6 24 2 25 3 28 6 27 6 24 9 24"/>
<path d="M5687 56014l-1 0-13 23-9 28-5 24-8 31-3 24-3 28-2 27 1 28 1 25 10 29 17 20 21 14 27 2 25-8 22-9 19-17 15-21-7-26-24-14-28-1-24 5-21 11"/>
<path d="M5344 56994l 0-1 22-13 26-6 28-5 25-3"/>
<path d="M5422 56902l-2 1-7 24-3 28 5 29 8 26 10 25 14 22"/>
<path d="M5574 56877l 0 0 24-8 24-9 24-6 23-9 28-5 24-4 24 0 14 21-2 26-7 28-7 24-7 27-8 28-9 29-9 27-6 24-5 26"/>
<path d="M5338 57776l 0-2 18-20 25-1 27 1 28 1 25 0"/>
<path d="M5432 57689l 0 0-11 25-6 25 0 28 6 29 8 24 12 22"/>
<path d="M5303 58586l 0-1 24-12 24-5 28-3 27-2 27-4 25-3"/>
<path d="M5395 58505l-2 0-9 23-2 25 2 24 6 26 9 26"/>
<path d="M5663 58480l-1-4-7-26-16-19-24-12-25 2-24 9-18 20-12 23-5 24 12 22 23 9 29-1 25-5 24-9 22-11 12-21-24 7-8 28-4 29-1 27-1 25 0 26-4 28-2 27-3 28"/>
<path d="M5235 59247l 0-1 23-17 25-7 30-4 27-3 26-3 24-7 25-6 27-7"/>
<path d="M5357 59145l-1-1-4 26 4 27 6 28 5 28 4 31 6 27 4 26"/>
<path d="M5600 59087l-2-1-9 28 0 25 0 25 1 30 1 24 1 32 3 32 3 28 1 25 3 24"/>
<path d="M5779 59115l-2-1-21 12-13 28-6 24-5 26 0 28 1 31 1 28 6 25 11 25 15 22 23 11 26-8 25-16 21-18 17-26 13-27 8-28 0-30-5-24-8-29-10-26-14-25-18-18-24-15-24-2-25 2"/>
<path d="M3020 57123l 0 0-18 17-9 23-11 27-11 25-9 24-11 26-9 24-11 26-10 22-9 26-9 27-8 26-8 30-8 30-7 24-7 26-6 27-8 26-6 27-6 29-6 30-8 31-6 30-5 32-6 30-6 31-6 30-5 31-5 29-9 27-4 26-2 27 4 28-2 27-1 31 0 31-2 26 1 24 1 25-1 27-2 25 1 28 2 32 2 26 6 29 2 26 4 28 5 30 3 26 4 28 4 30 7 27 6 25 5 26 8 27 6 27 7 27 11 27 5 27 7 25 11 25 11 23 12 24 7 27 9 26 13 22 9 24 11 23 10 24 19 18 10 22-8-24"/>
<path d="M2851 59020l-2-2 22 13 25 9 22 12 25 7 25 2 21-14 12-24-1-28-1-25 2-26 2-25-6-25-1-24"/>
<path d="M5963 59081l-1 1 21-15 17-17 15-21 17-21 13-22 14-24 15-20 12-21 13-26 9-22 13-28 9-22 12-22 11-26 10-30 7-25 7-26 6-25 9-31 6-24 4-25 6-24 7-25 4-25 5-28 3-29 5-26 6-30 5-31 7-31 8-29 8-27 10-28 7-29 5-33 4-28 5-26 5-24 2-29 0-27 1-27 0-25 1-27 0-26-1-30 0-29 3-31 1-28 0-27 2-26-1-25-2-28-4-28-3-25-4-26-6-28-5-28-6-28-8-28-9-24-9-26-5-24-12-22-14-20-10-24-10-25-11-23-12-22-12-21-11-22-12-22-16-20-15-21-12-22-16-19-14-20-16-19-20-16-19-15-18-19-22-8-20-15-17 20 1 26 2 25-7-26-5-26-6-24 2-25 6-23 25-1 25-4 25-2 24 4 24 4"/>
<path d="M3081 58936l-1 0-3-25-11-21-13-24-11-24-9-25-12-26-10-24-6-24-9-24-9-23-9-24-7-28-8-28-6-25-8-26-4-24-6-25-4-25-6-26-1-26-1-27-2-29 5-26 2-25 6-28 2-27-1-26-1-25 1-25 3-28 3-28 2-25 6-28 9-23 6-24 9-25 11-24 13-23 13-22 13-22 15-21 14-20"/>
<path d="M5832 57832l-1-1 19 17 12 23 12 22 12 25 13 22 13 22 9 26 12 27 4 28 3 26 3 29 2 24 1 24 3 27 0 28 2 26 1 24 3 26 3 25 1 25 1 26 2 29-2 27 2 27 0 25-2 25-1 25-6 24-1 28-3 26-3 25-7 25-3 28-3 25-6 26-2 26-1 26-7 24-5 25-4 24-6 24-5 24"/>
<path d="M5819 58828l 0 0 8 23 8 25 6 23 3 26 5 26 24 3 17-22 19-19 15-19 15-21"/>
<path d="M5088 59059l-2 0-20-15-14-24-9-24-9-24-9-25-7-25-6-24-9-26-7-25-3-24 7-25 9-22 15-20 13-22 12-22 18-18 21-11"/>
<path d="M5029 58669l 0 0 14-20 22-14 23-8 25-8 25-3 24 5 3 25-7 25-6 26-7 27-1 25 4 25"/>
<path d="M3760 58523l-1 0 21 16 15 23 12 23 9 24 7 26 4 25 3 29 1 24 2 28 0 29-3 26 2 25-4 24-5 24-8 27-8 24-11 23-9 23"/>
<path d="M3732 58879l 0 0 11 25 2 27 4 25 4 24 9 22 25 4 21-16 18-18 21-16 21-15 22-16"/>
<path d="M3942 59071l 0 0 9-25 18-16 21-13 24-7 25-9 24-10 21-12 24-15 21-14 21-16 23-16 21-17 24-19 23-19 24-18 22-18 22-18 21-17 21-18 20-17 22-16 22-16 21-17 20-16 19-18 19-17 23-16 25-18 26-19 22-17 19-18 21-21 22-18 21-14 26-19 27-17 24-16 21-13 22-14 25-17 25-16 24-15 21-14 24-20 21-19 22-17 21-18 20-15 21-16 19-15 17-20 19-20 18-19 18-20 18-18 22-16 20-15 16-19"/>
<path d="M5135 58066l 0 0 20-17 19-16 20-12 23-11 22-12 24 1 5 25-8 25-9 28-8 22-10 26-8 27-6 28"/>
<path d="M3749 57966l-1 0 17 22 14 21 13 21 15 25 16 26 15 21 17 23 15 21 15 28 16 20 18 22 18 21 20 21 21 22 20 21 18 24 21 23 22 23 20 23 20 23 17 22 18 23 19 22 17 19 16 20 16 19 16 22 16 21 16 20 16 19 17 24 17 24 19 26 15 19 17 20 17 23 18 21 20 22 19 23 21 22 16 18 19 23 21 21 19 17 18 19 21 21 21 15 22 16 20 15 21 18 23 15 20 17 20 15 22 13 22 14 21 13 22 17 23 9 20 13 19 16 22 14 21 16 19 15-1-24"/>
<path d="M4867 59103l-2 0 22 13 22 14 19 18 22 14 18 18 19 16 19 15-23 14-27 7-23 7-21 11-22 14-18 15"/>
<path d="M3843 55069l 0 0 16 22 14 24 16 21 15 23 11 22 14 26 12 22 13 25 12 21 12 21 13 24 16 22 13 23 15 21 12 22 15 25 15 22 14 23 14 23 15 25 14 22 10 27 14 29 16 28 14 29 16 31 13 30 10 22 14 30 16 30 15 28 12 22 12 22 13 25 12 24 11 23 15 30 13 22 12 20 13 21 12 22 13 29 17 32 16 29 17 26 16 25 17 28 17 27 14 24 17 25 15 24 18 27 15 30 11 24 12 27 16 27 16 21 15 28 10 23 11 25 11 27 14 27 13 21 13 24 12 25 10 22 11 28 11 22 9 27 10 28 13 28 10 29 10 22 13 25 13 22 9 23 13 21 13 24 14 25 13 24 13 26 9 23 15 20 13 26 10 25 12 25 12 26 10 22 10 24 12 24 16 21 11 24 13 21 10 25 10 25 10 24 11 23 16 19 10 23 12 23 13 22 12 22"/>
<path d="M5045 57526l-2 0 17 20 23 16 21 15 21 13 24 7 25-8 13-22 8-23 4-24 0-26 3-29-3-25-5-25-7-26-9-23"/>
<path d="M3708 57621l 0 0 8-23 12-22 11-24 13-20 17-24 15-23 14-23 16-24 14-25 12-22 13-23 15-24 14-28 18-32 16-30 10-22 18-29 19-29 21-28 18-27 14-27 18-28 19-27 19-26 18-28 20-29 13-21 13-22 12-24 13-26 14-25 14-27 14-26 15-25 16-27 16-28 15-29 16-29 14-28 16-28 15-25 15-30 16-29 14-30 15-30 16-31 15-28 15-30 14-29 15-28 13-29 14-30 14-31 13-29 14-27 14-25 13-27 11-26 11-26 12-26 11-26 11-23 11-25 10-23 9-24 11-24 10-24 10-24 11-24 10-25 11-23 11-24 10-23 10-23 10-22 16-29 15-29 12-29 13-27 13-25 12-25 13-23 11-24 12-23 12-23 13-22 17-27 16-25 16-23 15-24 13-26 13-23 15-20 15-21 16-20 16-20 18-19 16-20 12-20 14-22 12-23"/>
<path d="M5039 55038l-1 0 18-20 22-15 22-15 21-11 23-9 23 7 11 24 0 24-2 27-5 27-9 28-7 26-7 28-2 28"/>
<path d="M5923 56837l-1 0 24-5 22-15 20-16 19-16 16-18 14-22 15-22 12-22 13-25 10-25 10-28 12-25 10-25 8-27 7-28 6-27 6-24 4-25 5-28 4-28 1-25-1-25-2-30-2-29-3-30-3-30-5-27-5-28-3-27-9-27-9-25-5-28-4-28-3-30-1-25-7-26-5-25 0-25-9-25-8-26-8-27-10-26-9-26-9-23-11-25-14-22-13-22-14-21-15-20-13-21-17-19-19-15-3 27-5 26-5 25-1 26-6 24 2-27 3-29-3-24 2-24 21-12 27-5 28-3 25 2 25-3 26-1 27-4 26-3"/>
<path d="M3007 55643l 1-2-11 22-10 27-15 23-12 28-14 25-15 28-13 29-12 30-10 25-6 26-8 26-8 28-7 30-5 28-6 24-4 26-6 28-5 25-6 24-7 30-4 25-3 27-6 28-6 25-4 25-4 31-4 24-4 27-3 29-1 28-1 29 2 26-1 26 3 28 3 25 6 27 5 25 7 26 13 22 7 24 8 26 13 22 11 23 16 21 10 23 15 22 18 19 16 21 19 17 21 15 21 12"/>
<path d="M2983 56751l 0 0 10 22 14 21 18 21 14 21 11 21 16 19-12 21-19 15-18 17-25 8-20 12-24 7-26 0"/>
<path d="M5797 58666l 0-1 24-4 24-2 25 4 25-2 25 9 24 1 26 7 25 6 25 12 24 7 23 11 22 14 24 17 20 13 21 14 21 17 19 16 20 17 22 23 13 21 15 20 17 22 14 22 12 21 11 21 11 24 9 25 7 26 8 29 6 28 3 26 2 31 0 31 0 30 0 24 0 24-2 26-2 32-3 24-6 24-6 27-5 26-2 26-9 30-11 28-9 24-11 23-12 25-14 23-15 24-15 22-16 23-16 21-15 27-19 20-20 20-23 11-22 17-23 15-24 18-27 13-26 12-28 11-27 13-25 12-23 8-25 10-25 8-26 7-29 6-30 6-31 4-30 5-32 5-33 3-38 3-35 5-25 2-25 3-24 5-25-1-25 2-26 0-24-2-25-1-24-2-25-1-24-4-25-3-33-6-24-3-24-6-24-5-35-10-24-7-26-7-31-7-32-6-32-8-34-7-31-6-35-7-35-5-33-5-38-6-33-5-35-4-36-6-30-5-33-5-32-6-32-7-33-6-32-8-32-7-30-7-33-9-30-6-31-10-31-9-28-10-28-9-28-9-28-7-25-7-26-8-24-9-25-9-23-9-23-10-32-16-26-14-27-17-24-16-23-17-23-17-19-17-20-22-16-25-16-22-11-23-12-25-6 27-1 26 0 25 1 25-5 23-6-23-3-28-5-26-1-25-1-27 5-23 22-10 24 3 27-4 26-4 24-7 23-9 24-3"/>
<path d="M5581 59568l 1 0 16 17-9 23-14 20-17 17-19 18-21 18-23 18-23 16-23 17-24 18-24 16-26 17-25 14-27 15-27 15-27 14-26 15-21 11-27 14-24 16-24 13-23 10-22 12-25 9-23 9-23 12-23 9-25 9-25 9-25 11-25 12-26 10-30 8-34 8-31 6-33 10-36 9-25 6-25 6-26 7-27 8-28 7-29 6-29 6-27 6-28 5-25 5-26 5-27 5-26 3-27 5-25 4-26 3-25 3-34 2-36 1-35 0-33-5-33-3-33-3-32-4-33-3-32-2-29-4-32-10-30-5-27-5-27-6-27-8-27-10-26-7-28-9-24-5-25-8-25-8-24-10-23-10-23-11-22-9-31-11-26-13-26-15-21-13-20-15-21-14-27-15-22-11-21-12-23-10-26-16-23-13-23-15-23-13-22-17-23-17-26-16-24-17-23-17-24-18-23-19-21-19-16-19-16-20-14-25-16-24-16-21-16-21-12-23-11-22-11-22-6-24-7-25-6-27-7-24-6-24-5-25 0-26 3-25 4-28 8-28 2-26 6-27 7-26 8-25 6-27 9-24 7-26 12-25 10-24 10-22 13-23 11-24 15-22 14-22 15-22 18-19 16-18 16-19 21-13 21-14 23-14 25-9 22-15 22-11 22-15 20-13 21-13"/>
<path d="M3214 58644l-1 0 25-7 24-5 28-3 25-1 25 3 11 23-11 22-12 22-13 24-12 25-11 24-11 22 0 26"/>
<path d="M3964 54248l 0-1 23 9 17 20 20 15 20 15 21 15 21 15 20 17 19 16 18 16 21 18 20 21 17 22 17 25 15 21 16 20 17 20 15 20 13 24 15 22 12 21 10 23 11 24 14 25 12 24 10 24 12 23 12 26 13 26 12 23 11 28 13 25 11 28 10 28 8 25 7 25 9 29 10 27 11 23 8 26 8 27 10 24 6 26 8 24 8 28 9 29 5 24 8 27 6 28 6 27 7 25 6 27 6 26 12 26 6 26 7 27 6 26 6 23 6 26 6 27 1 25 3 28 7 29 5 26 6 25 5 25 4 29 4 28 3 25 6 25 5 26 3 27 5 27 4 28 2 27 3 27 3 29 3 26 2 28 0 24 4 25-5 29 0 27 3 28 2 24 0 25 1 25-1 28-2 25 0 25 0 27 0 24-3 27-3 28 0 29-1 25-1 26-1 24 1 27 3 24 1 26-1 24 2 24 0 29-3 26-1 25 0 25 1 25 0 29 0 25 1 30 0 26-1 26 0 25 0 29 1 26 1 24-2 26 1 30 0 28 0 26-4 28 2 25-2 26-4 29-2 26-1 27-1 26 0 31 1 25 3 24-1 29-5 27 3 27 0 30-2 27-1 30-2 27 0 28-1 26 7 27-1 28 2 24 5 28 5 25 3 27 4 26 1 27 6 24 6 24 6 26 9 26 7 23 9 23 11 23 13 23 11 21 15 23 15 19 9 24 15 21 14 20 15 21 19 17 16 19 17 21 20 18 21 16 19 18 20 17 18 16 17 20 19 18 17 17"/>
<path d="M5050 58385l 0 2 19 17 18 18 17 24 14 19 13 21-20 16-25 6-23 6-24 0"/>
<path d="M4001 53553l 0 0 22 11 20 16 21 15 23 19 18 17 17 19 18 17 17 18 17 18 16 19 18 24 13 21 11 21 13 21 12 24 11 22 16 27 12 22 13 21 14 26 12 24 11 23 14 23 17 24 13 27 13 28 11 23 10 25 10 24 8 23 13 27 16 24 12 27 13 29 10 23 15 28 15 27 8 26 11 22 14 24 11 23 9 22 9 24 10 31 11 27 8 24 8 32 9 25 10 29 9 27 10 27 10 22 10 28 7 26 9 23 9 23 9 28 7 26 8 25 9 24 9 23 8 27 8 25 9 29 11 25 10 26 5 27 8 24 8 24 9 26 9 29 7 27 5 26 8 22 7 25 6 24 7 25 8 23 7 25 10 25 9 28 10 24 8 26 10 25 8 27 9 28 5 23 10 23 8 23 6 26 7 29 8 24 8 23 9 23 9 24 11 23 12 22 16 19 11 22 14 20 14 21 12 24 17 19 10 22 17 19"/>
<path d="M5109 55899l 0 1 18 16 15 22 14 21 14 20 10 25 13 22 11 23 7 23-8 24-21 16-24 11-25 6-24 1"/>
<path d="M3855 56218l-1-1 6-24 13-23 15-19 18-22 14-20 19-21 15-21 14-25 13-26 16-27 11-21 14-24 16-25 17-27 17-27 15-26 14-27 16-26 14-25 13-26 11-28 14-24 15-25 12-32 13-27 12-26 13-25 12-27 13-29 16-28 12-30 12-30 9-30 12-29 11-30 13-35 8-22 11-33 9-23 14-32 9-25 10-26 9-26 9-25 9-25 9-26 8-24 7-25 9-23 11-33 6-23 11-32 12-30 11-31 8-24 8-23 11-23 10-23 13-32 9-25 9-24 8-24 10-25 6-24 8-25 9-23 9-24 10-23 13-34 8-24 8-23 14-36 11-31 13-31 12-27 10-25 13-21 14-24 14-24 12-26 10-23 12-21 11-22 13-25 12-23 16-22 18-24 16-26 18-20 16-21 13-21 19-21 20-21 15-19 18-23 16-19 19-15 15-21 18-17 19-19 19-18 17-19 11-21 15-21 15-20 18-16 21-13 16-18"/>
<path d="M5157 53510l-1-1 18-18 24-5 26-4 25 10 19 16 0 25-6 27-7 23-10 25-9 25-6 29-8 24"/>
<path d="M3993 56203l 1-1-21 16-13 24-14 21-17 21-12 20-9 25 12 21 23 10 22 10 25 1 25 2 25 0 25 10"/>
<path d="M5098 56254l-1-1-23-7-20-15-23-7-21-14-23-11-19-16-16-18-16-20-18-17-15-20-14-22-18-19-18-18-16-21-16-18-20-17-20-15-15-20-16-18-19-19-20-17-22-14-17-18-18-19-21-14-15-19-20-16-16-19-19-15-17-17-19-17-17-20-19-15-19-17-16-19-18-17-19-17-16-19-15-20-15-20-17-19-18-16-19-18-13-21-17-21-13-22-12-23-12-23-15-21-15-22-15-22-9-24-13-21-11-23-12-23-14-25-10-23-7-23-12-22-9-25-15-20-10-24-8-22-13-23-7-27-5-28-11-22-9-25-12-21-10-22-12-24-13-23-9-23-9-25-8-24-9-27-12-23-9-24-12-23-12-22-12-24-11-22-10-22-6-24-12-21-13-22-10-22-12-21-24 17-8 23-8 25 5-24 21-12 26 4 23 5 27 5 24 6 23 10 19 19"/>
<path d="M5329 54223l 0 0 25-4 25-4 24-3 24-5 26-8 22-13"/>
<path d="M5401 54148l 0 0 2 24 6 24 9 26 8 24 5 24"/>
<path d="M5626 54038l 0 0 23-8 27-5 26-5 26-2 28 2 17 17-18 16-23 14-22 16-20 13 25 1 25 2 24 1 27 3 22 13 2 25-21 17-21 16-24 11-22 11-26 6-24 1-24-3"/>
<path d="M5173 54270l 0-2-20 16-16 21-17 20-15 21-15 19-11 27-11 22-11 21-16 24-15 22-12 24-15 23-15 23-15 20-16 19-13 25-15 21-14 20-13 21-15 19-9 25-12 21-11 23-9 25-10 22-11 22-9 22-6 24-7 24-10 22-8 24-8 23-8 24-13 21-8 25-12 23-9 23-8 23-8 26-5 24-8 24-6 24-9 23-8 24-3 24-4 24-5 25-6 23-9 23-10 23-10 22-13 21-10 22-12 22-12 23-14 21-16 22-11 21-14 23-15 19-14 22-16 20-17 21-13 22-14 21-13 25-13 22-13 23-16 21-13 24-11 22-9 24-15 20-8 24-12 22-11 21-13 23-8 22-12 25-12 23-11 22-12 22-16 23-18 18-12 21-16 23-12 21-13 21-15 21-16 19-16 18-17 18-23 11-25 6-22 10-23 7-23 10"/>
<path d="M3715 52619l 2-2 18-20 15-20 13-20 6-24-12-24-22-12-25-6-24-2-27 2-30 5-27 7-29 9-28 11-28 14-29 19-21 16-21 15-22 17-19 16-25 24-19 17-21 26-22 30-13 30-8 23-8 32-4 34 0 34 5 34 6 29 8 26 13 26 18 23 20 22 23 18 26 16 28 9 33 7 30 4 31 2 31 0 25-3 24-4 26-5 25-5 25-4 23-7 33-12 35-13 22-10 23-11 22-14 20-14 29-20 19-15 27-22 24-25 19-21 16-24 13-25 11-27 5-29 0-31-4-25-9-23-12-26-18-31-21-27-18-18-20-18-21-16-25-13-22-12-24-9-33-9-25-4-26-2-25-1-27 0-26 1-25 3-25 4-24 6-33 11-26 11-24 19-19 25"/>
<path d="M5658 53174l-1-1-23-7-26 0-26 1-25 3-25 4-25 6-28 4-23 7-28 12-24 13-22 12-22 14-22 18-17 17-12 25-12 23-8 27-4 30 0 26 1 24 2 25 4 26 7 30 8 25 9 23 17 20 17 20 22 14 22 12 22 14 24 9 27 9 25 4 25 4 29 2 27 3 29-3 26 0 25 3 28-4 29-2 24-3 27-6 24-4 24-11 23-10 23-13 25-14 21-11 22-16 18-18 19-16 18-23 17-18 14-21 10-25 6-24 0-26-3-24-3-30-9-30-10-25-11-24-12-22-15-19-18-16-20-14-26-12-29-14-23-11-24-6-27-2-28-5-27-5-27-4-27 0-24 3-30 2-29 1-25 2-28 4-26 3-27 2-25 3-25 6-18 19-9 27-2 24"/>
<path d="M3202 53668l-1-2 20-18 25-10 25-11 27-9 24-8 26-11 27-14 30-18 23-11 22-11 22-14 31-17 27-16 29-16 29-14 27-10 22-10 22-10 26-11 23-10 22-13 28-12 25-7 24-9 27-12 21-13 23-14 17-20 17-18"/>
<path d="M5174 56406l-1-1 9-24 15-22 19-16 20-20 20-16 22-18 22-11 24-9 23-8 28-6 25-7 27-6 28-3 27-6 30-8 25-7 23-10 23-9 27-11 29-15 21-14 24-17 22-13 21-14 21-18 22-14 23-13 21-13 22-12"/>
<path d="M3256 54409l-1 0 24-14 22-14 23-16 22-14 24-13 25-17 28-17 30-19 22-13 23-14 23-13 24-14 25-14 26-12 26-13 26-15 25-13 21-12 21-12 29-17 27-17 26-17 25-14 26-16 22-15 20-18 20-15"/>
<path d="M5173 58771l 0 0 19-17 21-16 22-15 24-17 24-17 21-13 23-16 27-19 29-17 29-18 29-15 30-17 30-17 30-15 30-13 26-13 25-12 23-14 22-14 21-13 24-14 23-16 21-13 19-16"/>
<path d="M3253 59424l-1 0-18-16 21-17 21-16 23-18 21-16 22-18 22-19 24-19 23-19 24-17 22-17 21-16 26-18 24-13 24-9 26-10 26-9 22-10 22-13 20-14"/>
<path d="M5697 57597l-2 2-15-21-19-16-25-6-22 12-20 16-17 17-14 22-7 24 3 27 14 21 19 15 24 13 25 10 25 8 23 6 26 9 21 11 16 22-7 25-13 21-18 25-18 20-19 17-25 16-26 8-27-5-20-18-8-25-1-25 7-29 10-30 11-22 11-22 12-21 15-26 17-24 17-25 16-22 17-16 17-18"/>
<path d="M5626 53877l-2-2-26-4-26 1-25 5-26 7-28 9-23 9-24 12-24 13-26 15-26 16-24 17-21 15-24 19-17 17-15 22-11 22-11 26-7 29-6 26-6 27 0 25 2 28 10 27 13 25 15 28 19 23 16 18 24 23 25 17 25 12 26 10 25 11 26 5 30 2 26 1 28 1 30-1 27-4 29-4 28-4 28-5 27-7 27-8 24-8 25-10 23-9 24-10 28-15 26-18 19-15 25-17 22-18 19-18 17-23 15-23 12-25-1-27-7-27-10-22-15-24-21-23-19-18-19-21-20-16-24-16-24-13-25-16-22-12-23-11-23-11-24-6-29-9-26-6-25-4-25-3-29-1-28 5-27 9-15 20"/>
<path d="M3365 56014l-2-1-25-3-25 2-22 8-27 10-27 12-26 14-25 15-20 16-21 22-19 22-19 22-18 23-16 29-10 24-9 25-9 25-5 30-4 29-3 24 1 25 7 28 10 23 14 25 15 19 20 15 21 18 24 16 28 11 30 7 29 7 25 6 29 3 31 0 31 3 26 2 25 2 29 8 28 5 29 1 30 2 27 4 31-3 29-6 24-10 26-13 24-14 24-15 20-16 17-17 16-22 17-23 13-25 10-25 4-25 3-25 0-26-4-29-10-24-7-25-9-30-12-25-13-23-16-24-13-21-17-25-18-20-18-22-22-19-25-12-25-17-22-10-29-5-28-5-25-2-27 1-25 3-28 4-29 6-25 3-25 6-27 10-25 4-26 8-2 26"/>
<path d="M5204 57966l 1-2 20-19 24-19 26-20 23-17 26-20 29-20 21-15 23-14 22-15 21-14 23-15 24-14 22-13 23-14 21-13 21-14 21-14 29-19 27-16 25-15 21-14 27-14 22-12 25-13 22-10"/>
<path d="M5189 59484l-1 0 16-23 21-19 25-20 23-17 28-20 30-18 22-15 22-10 23-14 24-15 25-13 27-15 28-13 31-11 28-13 29-13 28-13 27-13 27-12 27-11 26-12 24-13 22-10 27-15 26-12 22-12 27-12 23-15 21-14 19-15"/>
<path d="M3256 55141l 0 0 27-10 26-7 23-9 27-9 30-13 22-10 25-11 24-13 25-13 24-16 23-15 25-15 23-15 23-12 21-13 27-19 22-15 21-14 26-16 23-16 20-16 19-15"/>
<path d="M5640 54632l 1-1-2-24-12-21-23-12-27 0-25 2-24 1-28 8-30 9-23 8-30 12-22 10-28 14-25 14-25 19-24 16-23 18-21 22-18 22-18 27-14 26-10 25-8 29-4 31 2 29 2 27 8 26 13 27 16 25 22 19 23 15 26 9 24 7 26 5 28 5 29 1 27 4 28 5 30 5 32 4 30 2 31 1 27-2 32 0 24 2 27-1 24-3 25-5 25-5 30-9 28-8 28-11 25-13 20-16 24-18 22-22 19-26 14-22 12-22 14-27 11-29 5-28-1-29-6-29-13-29-14-21-19-25-16-18-15-19-19-17-20-15-22-15-22-12-23-13-25-7-26-6-28-6-28-3-27 0-26 7-33 5-26 2-25 5-30 8-26 8-27 9-22 10"/>
<path d="M3167 55773l 0 0 26-7 26-7 26-11 25-9 30-12 32-15 22-9 24-11 22-11 23-12 22-11 22-13 30-19 28-18 29-19 30-20 29-20 30-20 28-19 26-16 24-18 22-14 26-17 24-12 24-11 24-10 25-4"/>
<path d="M3192 57212l-1 0 8-25 18-16 23-18 20-15 27-21 24-18 24-20 27-25 19-15 24-19 23-18 22-16 21-17 21-14 20-14 29-23 23-17 22-15 23-15 25-15 22-14 22-12 27-19 25-13 22-15 25-13 22-14 24-14 20-13 25-10 17-17"/>
<path d="M5526 55221l 0 0-25-1-24 5-24 10-23 13-22 13-23 13-23 14-23 13-24 15-19 14-24 19-19 21-16 20-22 23-17 22-12 23-11 26-10 25-2 26 0 28 5 30 12 28 16 25 18 21 20 20 19 15 25 12 26 8 29 10 29 11 28 8 23 5 24 6 31 7 31 4 28 4 28 1 30 2 26-3 31-3 30-5 27-6 25-6 28-4 25-8 26-13 26-14 23-19 20-18 22-20 24-20 15-22 15-25 14-25 6-28-4-25-6-25-8-25-14-23-16-22-19-25-18-18-18-18-19-16-20-15-21-13-20-14-28-15-29-13-22-10-29-13-26-9-27-4-31-3-30 0-30 5-31 6-24 5-29 7-25 9-24 12"/>
<path d="M5668 56728l 1-1-17-17-22-12-23 7-28 3-25 3-25 9-26 4-23 11-23 7-23 10-25 11-26 11-22 11-25 14-19 16-23 15-21 21-16 19-17 19-14 24-10 22-12 25-8 26-7 26-6 27-2 26 1 29 5 29 6 24 8 24 13 24 16 25 18 23 17 19 18 16 25 17 23 14 22 13 23 8 24 7 28 8 31 3 32 1 26 3 25 1 25-2 25-3 24-5 24-5 28-9 26-11 26-9 21-11 25-14 20-14 23-20 17-20 15-23 13-23 10-23 12-28 3-26 0-28-2-28-7-31-11-25-15-28-16-27-18-28-21-26-19-23-18-20-23-21-24-18-21-16-25-18-27-10-27-5-25-10-26-6-26 0-24-1-29 4-26 6-22 13 2 25"/>
<path d="M2927 57923l 0-1 17-17 23-12 21-15 18-16 20-15 24-7 5 27-4 26 2 27 0 26-3 26 3 28 2 26 3 25"/>
<path d="M3179 57982l-2-1 16-22 16-20 17-18 22-20 26-24 28-24 19-17 22-17 22-19 21-20 22-21 23-23 23-20 23-21 22-21 22-20 22-20 20-17 20-18 21-15 20-16 21-13 24-20 24-19 21-11 22-12"/>
<path d="M6934 57449l-2-1 25 9 22 17 19 23 21 24 15 19 17 23 16 22 16 24 16 23 16 20 16 26 16 28 14 24 13 21 16 24"/>
<path d="M7183 57484l-2-2-25-8-19 15-18 26-11 25-11 32-12 31-9 23-8 22-8 25-8 23-10 33-7 29-7 25-7 28"/>
<path d="M9053 52849l 0-1 11 24 12 27 10 24 8 30 5 23 3 25 0 29-1 32-4 30-6 29-6 26-8 25-17-22 0-30 1-24 2-27 3-28 4-28 4-29 6-29 6-27 7-27 8-25 9-25 15-31 14-27 15-24 16-18 25-6 23 16 10 30 3 25 0 30-2 33-3 35-1 25-2 25-2 27-1 34 0 29 6 31 13 21"/>
<path d="M9371 52891l-1 0 24 7 28-7 24-12 23-18 21-18 18-19 4-25-24-13-25-3-26 6-25 18-18 23-11 25-8 28-7 30-3 32 1 32 4 30 10 25 14 21 22 21 25 12 28 0 30-7 22-13 22-17 21-22 19-23 14-27 10-25 6-24-1-31-7-27-10-26-21 17-5 27-1 31 2 30 6 30 12 30 16 27 18 23 25 18 28-2 23-20 13-21 13-29 11-32 7-34 3-34-2-34-5-30-8-32-8-31-7-24-8-23-16 21"/>
<path d="M9806 52864l-2-1 27-10 24-4 26-4 24-4 25-9 20-15-6-24-24-9-29 0-25 7-24 15-22 19-17 25-10 22-9 28-2 24 7 26 16 19 24 9 24 3 30-3 25-6 26-9 27-15 25-18 24-21 19-22 15-19 11-24 4-29-5-27-9-23 24 8 25-1 24-3 29-5 25 2 24 8 2 24-15 22-16 20-18 22-14 24-7 26-2 26 13 21 24 8 27 2 32-6 26-9 25-11"/>
<path d="M11098 52770l 0 0 27 0 28-11 27-20 21-20 23-23 24-27 26-28 28-30 28-33 28-34 25-37 22-32 16-31 13-28 10-25 7-28 3-25 1-25-3-32-10-29-24-2-19 21-14 20-16 25-17 28-18 31-16 34-14 35-11 37-9 39-8 39-4 38-3 38 0 38 4 34 7 33 10 27 12 23 16 19 27 22 29 15 29 6 27-1 24-10 20-17 15-24 8-26 1-30-8-29-12-27-19-26-22-24-23-19-21-17-23-8-24 5 15 22"/>
<path d="M11796 52650l-7-3-29-11-24-2-24 4-28 9-21 14-17 19-13 24-1 28 12 21 26 13 27 1 30-7 29-11 23-16 22-14-25 6 5 26 19 16"/>
<path d="M12008 52612l-2-2-18-16-25-6-24 7-20 15-18 19-12 25-6 24-3 30 2 26 10 23 15 21 26 9 25-2 31-8 24-11 27-13"/>
<path d="M12124 52285l-2-1 3 27 6 29 4 31 3 38 1 30-1 31-2 33-2 33-3 36-3 36-4 34-5 34-3 30-5 28-4 33-2 25-1 25 1-25 3-24 5-30 7-32 9-30 10-24 10-22 14-25 17-22 20-15 26-3 24 12-2 28-15 25-17 23-18 21-18 21-18 22-12 22 5 23 28 4 27 1 28 2"/>
<path d="M12402 52382l-1 0 6 29 3 24 3 24 0 24 0 29-3 33-4 35-3 24-3 32-2 30 2 26 4 24 9 30 11 25 19 17 25-2 24-17"/>
<path d="M12293 52615l-1 0 29-10 24-6 28-7 29-7 33-8 23-5 34-8"/>
<path d="M12614 52545l-2 0-22 12 1 25 9 24-1 25-8 23-15 21-12 25-9 23 11 22 25-5"/>
<path d="M12893 52586l-5-4-19-15-23-8-24-1-24 12-17 17-18 22-14 22-8 27 1 26 18 19 27 2 26-5 25-8 22-11 24-15 18-16-6-23-16 20 8 24 22 14"/>
<path d="M13116 52561l-4-3-24-11-25 5-20 14-20 21-17 19-14 26-11 27-2 28 8 25 16 18 24 11 31-1 29-9 25-13"/>
<path d="M13216 52312l-2-1 1 29 5 27 3 32-1 34-1 26-2 29-2 27-3 28-2 28-2 27-3 25-3 25-3 34-3 31-2 26-3 25 3-24 3-28 9-30 13-25 12-24 14-22 15-22 15-19 22-22 19-18 20-16-5 26-20 18-25 19-24 19-18 17-18 20 2 24 26 10 26 2 25 2 29-4 28-10"/>
<path d="M13407 52340l 0-2 11-22 22-13 28-1 28-3 29 7 26 11 20 18 12 22 5 25-7 28-13 24-13 22-15 20-16 22-16 21-12 22-12 27"/>
<path d="M13540 52655l-1 1 11 23"/>
<path d="M9351 54266l 0 0 27-8 23-10 26-18 23-22 23-27 16-22 17-24 16-24 17-28 18-28 17-30 17-34 17-31 14-33 13-33 11-32 9-31 6-30 4-29 3-33 0-28-28 11-19 28-15 25-14 30-15 35-13 38-12 40-12 41-5 24-10 43-8 47-4 24-3 24-2 25-3 46-1 47 1 44 2 42 5 40 5 37 7 34 6 29 7 25 12 30 10 22 19 14 20-15 14-30 9-34 4-26 2-28 1-30-2-29-5-28-6-26-8-26-9-23-15-30-18-26-16-19-18-21-18-16 26 2 27 4 24-3"/>
<path d="M9684 54099l 0-1 21-12 27-1 29 0 29-4 26-4-9 24-18 19-16 19-16 23-15 20-12 23-3 24 22 15 28-10 22-12 23-15 67-59 25-4 24-12 22-14 20-14 17-18-1-24-24-7-22 11-18 18-14 20-12 25-5 26 3 27 15 19 24 12 28 1 24-4 26-7 26-12"/>
<path d="M10111 54110l-1 0 25 2 23-12 22-13 12-22-21-16-25-3-27 7-21 14-17 22-12 21-9 25-3 28 5 27 13 24 19 16 26 10 25 3 28-7 24-7"/>
<path d="M10565 53974l 2-2 21-16 24-12"/>
<path d="M10582 54029l-1 0 25-11 23-11 28-10 30-8 26-5"/>
<path d="M10979 54197l 1-1 26-9 25-18 22-17 25-19 19-15 21-18 22-18 23-22 25-24 24-24 22-26 21-28 20-27 18-30 12-29 12-29 9-30 7-31 5-31 5-32 4-29 2-26 2-28-6-25-26 8-18 19-22 30-17 28-16 34-18 36-16 39-16 43-14 44-8 23-7 24-7 25-6 25-6 26-5 27-5 25-4 28-4 27-3 27-3 27-2 26-2 27-1 26-1 25 0 24-1 24 0 45 1 43 3 37 4 32 5 26 12 28 17 24 24 6 22-24 11-29 8-27 6-28 4-33 2-34 0-35-3-38-5-38-7-41-9-38-9-39-10-33-9-27-10-22-16-19-26-1-15 23-3 25 14 21 24 8 31 1"/>
<path d="M11389 53946l-1 0 28-12 25-14 26-14 26-9 26-8 24 4-19 19-21 17-25 19-19 15-22 17-19 19-21 21-13 23 0 27 22 15 31-3 23-7"/>
<path d="M11605 53974l 0-2 23-7 28-4 25-10 22-13 10-22-17-18-23-10-27 2-22 16-18 20-11 22-4 26 7 26 18 20 25 15 26 10 29 2 27-6 25-12 27-13"/>
<path d="M11852 53938l-1 0 26 1 23-9 23-12 21-19 16-22 4-25-12-22-27-6-27 6-23 17-16 19-15 25-8 27-1 28 6 24 16 23 19 19 24 10 31 3 29-4"/>
<path d="M12405 53919l 0 2 14 19 13 22 21 15 25 2 18-17 18-23 14-21 14-23 12-27 12-29 14-34 10-24 10-26 10-28 10-26 10-26 8-23 14-25 11-27 3-26"/>
<path d="M9714 56120l 0-1 24-3 27 0 25 0 27-1 27-1"/>
<path d="M9968 55916l-1-1-1 27 4 29 3 29 3 27 2 27 3 29 3 31 2 30 3 30 3 31 3 26 2 25 3 31 4 25 2 25"/>
<path d="M11516 56153l 0 0 26 1 26-1 24-4 25-4 25-8 23-11"/>
<path d="M11578 56102l-1 1 6 28 9 26 9 24 10 24 13 23"/>
<path d="M11827 55934l-1 0 6 26 10 26 10 24 9 29 8 31 6 23 7 30 7 28 4 31 2 24 2 27 0 25-1 26"/>
<path d="M9568 57190l 0-1 26-8 26-6 23-6 27-3 28-6"/>
<path d="M9795 57082l-2 0 22-10 25-1 25 0 27 7 20 15 15 19-2 24-17 22-17 19-19 17-18 17-18 19-14 25 1 25 24 13 28-1 30-3 31-5 29-4 24 0"/>
<path d="M9528 58411l 0-2 24 0 27 4 30-5"/>
<path d="M9775 58310l 2-2 21-11 26-4 27-1 25 4 22 10-5 25-17 22-19 21-17 20-7 24 27 0 24-1 27 1 26 2 24 5 25 10 20 17 7 25-9 22-20 22-22 22-22 16-24 18-21 13-25 8-25-8"/>
<path d="M11710 57205l 0 0 23-11 23-6 25-5 26-8"/>
<path d="M11749 57135l 0 0-2 28 1 25 5 27 5 28 5 25"/>
<path d="M11939 57094l-1-2 22 12 21 19 21 13 20 16 19 19 10 22-15 21-22 13-25 13-23 13 7 24 27 0 26 0 30 3"/>
<path d="M11575 58381l-1 0 25-2 27-4 24-1 25-4"/>
<path d="M11572 58377l-1 1 3 26 8 26 7 27 6 25 9 25"/>
<path d="M11811 58322l 0 0 27-6 25-5 27-2 25 2 24 7-1 26-16 20-19 20-18 16-15 20 15 19 25-3 26-2 24 0 25 6 22 12 14 21 1 27-10 23-21 19-25 14-22 13-28 4-25 1-25-4-21-12"/>
<path d="M10223 56403l-1-1 19 19 16 20 13 21 15 25 13 24 11 23 12 22 12 23 18 28 14 26 10 23 17 28 17 29 17 31 16 30 16 30 16 31 19 29 18 30 19 28 20 26 21 25 19 23 19 24 19 24 18 21 18 23 17 21 18 26 18 23 20 24 18 25 18 22 17 22 15 22 17 28 16 26 14 23 19 26 19 23 18 23 13 21 17 26 14 23 16 26 11 24 13 26 13 23 15 24 13 23 15 23 15 22 17 20 16 19 16 24 16 20 14 22 13 23 16 23 15 19 14 24 14 21 16 19 15 22 17 23 12 22 13 20 16 20 13 24 13 21 10 22 14 21-2-25"/>
<path d="M11224 58134l-1 0 25-5 25 3 22 14 23 15 21 15 21 16 23 9 12-22 0-30-1-32-2-28-4-31-5-31-4-29-2-24-2-26-3-25"/>
<path d="M10140 58202l 0 1 17-22 17-23 15-20 16-26 15-21 14-22 14-23 16-23 15-22 17-24 17-25 18-26 20-28 14-22 14-20 17-24 17-25 18-26 18-28 18-27 20-26 19-27 20-24 18-26 19-25 19-22 19-24 17-21 17-21 15-22 14-20 15-20 20-30 20-29 20-28 19-25 17-28 16-30 12-21 17-28 17-28 16-25 16-27 16-25 14-23 16-23 15-24 15-23 15-20 18-26 17-27 17-23 17-23 16-24 16-23 15-25 15-26 14-26 13-24 12-22 17-24 12-22 13-23 13-22 15-23 13-20 15-21 17-22 15-20 17-20 17-19 16-17 13-21 14-21"/>
<path d="M11267 56433l 0-2 8-22 19-17 25-7 24-1 13 21-4 26-5 23-6 24-4 25-6 27"/>
<path d="M9797 56502l 0-1 4-24-5 27 3 25 2 29 1 29 0 29 0 32 0 30 0 30 0 27-1 28 0 27 0 26 4 25"/>
<path d="M9744 56783l 0 0 8 23 14 22 17 19 16 17 16 19 14-21 8-24 6-30 6-23 8-26 6-24 11-25"/>
<path d="M11755 56838l 0 1 8-24 3-24 3-27 2-25 1-24 2-30 1-27 0-24-2-29-1-28 0-27-1-28 0-25-3-25-25 5-19 16-20 22-18 19 11-23 18-20 18-17 18-15 24-7 24 7 23 12 22 10 18 17 16 17"/>
<path d="M10226 56208l 0-1 23 6 22 15 18 17 17 19 14 20 17 16 18 18 17 19 20 16 18 17 20 21 22 15 24 16 20 12 25 16 20 12 21 15 21 15 21 14 20 14 20 18 21 18 21 15 23 14 25 15 26 15 25 9 24 7 24 9 24 10 23 11 28 10 24 14 23 13 22 13 19 14 24 15 22 13 22 15 20 15 18 18 18 17 22 17 18 18 19 17 20 16 19 15 20 14 20 13 21 15 19 18 19 18 19 16 22 11 19 15 20 16 18 16"/>
<path d="M11389 56938l-1-1 17 18 18 19 18 18 17 17 15 21 3 24-21 14-24 6-27-4-24 0-26-4-23-7"/>
<path d="M10053 57079l 0-2 20-15 21-13 23-12 23-7 18-18 21-16 21-17 23-12 28-9 25-13 22-11 27-17 23-14 22-16 24-16 24-16 26-18 27-19 20-15 20-14 21-14 21-14 22-14 23-14 22-15 23-14 22-14 23-13 25-12 23-13 24-14 23-13 22-12 22-11 21-12 31-17 22-13 21-12 21-12 21-13 21-12 31-17 28-16 27-16 26-14 24-14 22-12 21-13 25-15 24-15 21-11 22-13 22-12 19-16 20-14 22-11 21-13"/>
<path d="M11292 56243l 0-1 23-12 23-6 24-3 25-3 25 3 1 26-10 23-10 24-8 26-6 24"/>
<path d="M10160 58029l 0-1 4 25-13 28-11 28-12 28-9 24-7 24-7 26-7 23-6 31-2 25-1 25 26-6 22-16 21-19 22-16 22-16 24-17 23-15 22-14 19-16 21-13 23-15"/>
<path d="M10180 56460l 0 0 6-23-2 25-2 26-3 27-2 26-1 25 0-26 2-25 1-24 1-26 0-25 27-3 25 7 25 9 24 9 25 5 25 7 22 11 21 13"/>
<path d="M12901 62869l 1-1 23-5 26-2 28-4 27-2 26-3 28-5 24-5"/>
<path d="M13013 62785l 0 0-4 26 1 28-1 26 1 28 1 29 0 25 4 25"/>
<path d="M13202 62720l 1-2 21-13 27-4 29-1 30 1 26 6 21 14 3 26-17 20-21 14-22 16-17 18 24 12 28 7 24 3 27 8 25 8 25 12 18 16 12 22-10 24-17 17-23 17-25 13-29 13-28 9-27 7-29 2"/>
<path d="M13148 62446l 0-2 2-27-1-24-1-24 0-29 1-32 0-25 0-26-1-30-2-32-2-24-2-25-2-27-1-27-3-28-2-27-1-26-2-25 0-25-1-34 0-31 0-26-1-30-1-25-5-24-5-24-12 22-16 21-18 23-18 22-17 21 9-25 13-24 12-21 22-8 25 5 25 8 25 10 23 11 23 9 20 15"/>
<path d="M12844 61422l 0-1 22-13 23-9 26-9 26-7"/>
<path d="M12872 61344l-1 0 18 19 11 22 10 26 9 23"/>
<path d="M13009 61299l 1-2 17-18 24-13 23-7 29-5 26-5 25 0 28 5 23 9 12 21-11 23-18 18-24 16-27 16-27 15-22 16-20 16 20 17 26-2 29 1 29-1 29-3 28-3 25 0 26 9"/>
<path d="M10210 61510l 0-1 26-2 27 0 27 5"/>
<path d="M10381 61421l 0 1 24-12 26-9 25-1 26 2 24 7 15 19-12 23-17 19-20 16-19 17-19 15-14 20 26 0 28-3 27-5 25-4 25 3"/>
<path d="M10339 61864l 0-2 7-24 5 27-2 27-2 29-1 26-2 29-3 36-2 25-2 28-3 28-1 29-2 31-1 28-1 28-1 28 0 24 0 26-2 34 0 28 1 24 0 31 0 29 1 26-1 25-2 24-16-21"/>
<path d="M10179 62451l 0 0 11 23 11 22 19 19 23 16 22 12 23 9 24 5 25-9 15-19 16-23 12-22 10-25 8-22 7-24"/>
<path d="M10079 63019l 0 0 23-11 25-9 27-9 25-9 26-12"/>
<path d="M10246 62910l-2-2 12-23 26-11 25-7 28-5 22 11-2 28-13 23-16 19-16 21-12 21 24 3 25-5 25-5 25-1 22 13 7 23-7 25-12 22-16 20-20 14-26 11-26 4-25-6-22-10-21-14"/>
<path d="M3371 61814l-1 0 20-14 28-4 29-5"/>
<path d="M3630 61593l-2-2-15-19-22-13-26 1-20 14-18 23-14 23-8 25-2 27 18 17 22 16 22 11 24 4 29 3 29 2 31-1 28-4 25 3 22 12 16 23 3 27 0 28-5 28-5 28-9 26-10 23-15 26-21 13-24 0-24-16-15-25-9-25-6-30-5-31-6-33-4-34 2-29 6-26 8-25 9-23 16-25"/>
<path d="M3916 61977l 0 2 2 24 0 25-3 25"/>
<path d="M3979 61717l 0-1 23-8 22-11"/>
<path d="M3993 61642l 0 0-5 24 7 27 7 24 8 25 10 24"/>
<path d="M4224 61510l-2-3-15-20-21-14-26 5-20 16-14 24-11 27-4 25 6 27 13 21 21 14 23 14 27 13 25 10 26 7 25 5 24 5 24 9 22 15 14 20 6 26-2 28-7 26-10 22-18 17-25 0-23-15-19-22-16-26-9-26-9-29-7-23-2-25 2-25 24-14 28 3"/>
<path d="M4514 61826l 0 0 11 22 4 27 1 28-4 29"/>
<path d="M4763 61624l 1 0 23-11 21-12"/>
<path d="M4976 61445l-1-1-4 28 1 27 0 32 2 24 4 25 3 30 2 24 3 28 0 25 5 25"/>
<path d="M5088 61509l 0 1-15 21-7 26 0 30 4 26 10 26 14 22 21 19 25 6 26-5 24-17 19-22 15-24 14-26 5-27-3-26-9-25-18-21-26-20-21-12-26-13-24-4-19 15"/>
<path d="M5419 61683l-1 0-15 23-9 26-7 25-5 28"/>
<path d="M5451 61518l 0 0 20-15 26-8 24-12 25-10"/>
<path d="M5500 61463l 0 0-7 26 4 26 8 25 9 27 12 22"/>
<path d="M5641 61373l-2 0 0 25 5 27 5 27 2 26 1 26 1 26-1 26-2 26-3 27-1 28 1 25"/>
<path d="M5757 61433l-3 3-9 29-6 29-1 28 5 25 8 25 14 23 19 17 24 11 27 5 24-12 20-18 15-24 11-26 7-28 1-29-2-28-8-28-15-22-20-14-24-8-29 0-25 4-24 9"/>
<path d="M4210 61502l 0-2 10-21 23-7 14 21 2 27-8 25-13 22-11 24-3 25"/>
<path d="M3282 61446l-6 3-23 12-31 17-29 20-21 13-18 18-20 17-19 17-18 17-17 17-23 26-22 27-18 27-16 26-14 26-12 27-7 26-6 30-2 32 0 24 2 32 5 31 7 32 14 32 10 22 15 29 19 24 21 24 22 21 24 19 29 19 31 19 22 12 25 12 26 12 27 11 26 11 27 11 24 9 27 10 28 9 30 7 34 6 33 5 34 6 33 5 34 4 34 4 35 2 38 3 37 1 37 3 38 1 35 0 37 2 38 0 39 0 40-2 38-1 38-2 38-2 37-2 39-2 40-3 40-2 39-3 38-2 37-3 37-4 39-2 40-4 39-3 39-6 39-7 40-6 41-6 40-7 40-6 38-7 37-7 37-7 38-4 38-6 41-7 37-7 36-8 35-8 33-8 34-9 34-6 34-10 35-10 34-11 31-13 31-9 31-9 30-9 31-7 31-8 32-8 32-9 32-9 31-9 29-11 31-11 31-10 29-10 28-11 28-10 28-9 27-10 30-9 27-12 27-11 29-10 24-10 24-9 24-10 22-10 23-11 22-11 30-17 26-17 28-22 27-20 24-23 22-25 16-25 15-28 13-30 7-33 5-34 1-35-1-25-4-36-5-26-6-25-7-23-8-24-10-22-11-22-17-30-20-28-21-26-19-21-21-19-23-14-27-12-28-13-31-11-34-6-35-6-29-4-28-4-28-5-29-3-29-2-29-3-30-2-29-3-32 0-33 0-32 0-36 0-33 1-34 1-34 3-34 2-36 2-37 4-36 3-37 4-37 4-38 6-36 6-39 6-39 7-39 7-40 5-39 5-39 4-40 5-43 4-41 5-41 3-40 4-39 4-40 4-40 4-39 4-39 5-40 7-39 3-40 5-40 6-41 4-39 7-38 6-37 6-36 6-36 7-35 6-34 6-33 6-34 5-34 5-35 5-34 5-34 5-34 4-31 5-33 5-33 5-32 6-33 8-32 6-34 9-32 10-32 9-32 10-30 8-30 9-31 8-27 9-26 8-25 7-31 12-32 11-23 8-33 9-30 9-27 10-23 9-26 9-26 12"/>
</svg>
