<svg xmlns="http://www.w3.org/2000/svg" viewBox="1585 3805 3648 7917" stroke="black" stroke-width="16" stroke-linecap="round" stroke-linejoin="round" fill="none" data-xena="0 0 0"><style>@media(prefers-color-scheme:dark){svg{background-color:black;stroke:white;}}</style>
<path d="M1687 4261l 0-1 8-22 5 28-2 25 2 28 3 28 1 29 3 29 3 28 7 30 6 27 11 27 8 23"/>
<path d="M1959 4228l 0-1 5-26 17-21 17-20 19-21 25-20 24-14 23-16 26-15 26-13 28-13 28-11 32-11 24-8 25-7 24-6 24-4 25-4 33-2 32-1 32 0 31 1 28 2 25 4 25 5 24 6 27 8 26 8 23 8"/>
<path d="M2649 3907l 0 0 23 5 26 9 21 14 22 11 20 17 12 22-19 20-21 11-22 13-23 11-22 8"/>
<path d="M2980 4013l 0-1 23-11 29-5 25-2 26 0 26 2 27 1 28 5 24 12 16 19 1 24-14 26-19 25-21 19-22 19-25 19-26 19-25 18-22 17-18 17-15 23 21 12 28-4 28-7 25-5 25-3 27-2"/>
<path d="M2880 4451l 0 0 8 23 7 25-1 28-6 24-10 23-14 25-13 25-14 25-20 24-15 19-17 18-19 20-25 18-26 19-30 16-24 10-25 6-27 8-29 7-29 4-30 5-30 2-29 1-30 1-29-2-28-2-27-4-36-6-24-7-24-6-32-12-28-11-23-9-25-12-24-14-19-16-6 24 0 27-1 25-5 27-10-26-3-25-2-28 2-26 13-21 24-5 26 0 25 1 25 3"/>
<path d="M1883 5037l-1-2 18 20 15 21 18 25 13 23 10 24 16 28 11 21 18 30 14 21 13 21 17 21 18 23 17 25 17 27 19 30 18 29 19 31 21 30 20 29 19 29 21 27 18 28 20 27 20 25 16 22 20 24 20 23 20 22 25 24 20 19 21 18 20 17 17 17 19 16 28 23 22 16 28 17 25 15 26 16 21 13 22 15 19 15 22 12"/>
<path d="M2789 5928l 0-1 23-12 25 0 24 5 21 13-2 27-12 22-19 15 23 10 23 6 25 9 22 14 13 22-3 27-2 25-10 25-21 15-27 4-24-7-24-7-23-10"/>
<path d="M2653 5899l-1-1 24-1 18 22 16 24 12 23 12 22 14 21 10 22 9 23-16 18-25-3-24-9-24-6-21-12"/>
<path d="M2933 8059l-1-2-13-21-24-10-23-6-28-5-29-2-25-2-25 1-27 2-28 4-35 6-25 5-25 7-26 7-27 8-27 9-26 9-24 9-23 11-21 11-32 18-20 15-25 19-23 19-19 20-19 22-18 26-16 27-16 28-14 26-14 28-11 29-11 27-6 29-5 27-1 29 0 29 5 32 4 32 7 31 9 31 9 32 13 29 15 27 19 25 19 25 22 22 25 21 28 19 28 19 31 19 31 15 34 13 23 9 27 8 25 8 25 9 24 5 34 11 24 6 26 6 25 6 26 5 26 2 25 5 28 1 28 2 30 2 30-1 31-1 32-1 33-3 34-2 33-3 32-2 28-1 28-4 26-4 26-3 24-4 32-7 30-7 29-8 29-9 27-10 30-14 26-14 28-16 26-18 28-19 25-19 24-19 22-22 22-22 19-21 18-25 16-23 12-23 16-25 13-28 13-29 10-28 9-27 6-27 4-27 1-25-2-25-5-25-7-26-11-24-15-27-18-29-14-21-21-28-22-24-24-23-25-20-20-13-28-18-29-13-25-14-28-13-28-15-30-10-29-12-31-9-31-8-31-6-33-5-32-1-30-3-33 0-33-1-33-1-32 0-30-1-28-1-25 0-27-1-24 0-26 0-27 7"/>
<path d="M2562 8397l 0-2 8 24 4 25 3 26 2 27-2 26-1 25 6 23"/>
<path d="M3238 8381l 0 1 25-3 27-1 25 3 28 4 27 6 21 13 5 24-16 22-19 19-20 13-23 14-26 13-24 12-21 12-24 18 15 20 27-5 24-9 23-8 30-5 25-2 26 0 24 6"/>
<path d="M3163 9239l-1-2-6 29-4 31-2 31-2 34-4 35-3 25-2 28-5 28-2 30-2 31-2 29 0 31-1 31 0 30 0 31 1 31 0 31 0 31-1 29 0 28 1 27 1 26 1 25 0 24-1 34-1 30-1 26 0 25-3 27 1 25 0 24"/>
<path d="M2990 10053l-1 0 6 23 9 24 13 26 13 24 17 23 16 19 16 19 23 14 24-11 22-19 19-23 17-21 15-21 15-21 13-21 11-22 13-24 12-21"/>
<path d="M3038 10519l 0 0 22-11 23-7 28-5 25-6 25 9-14 21-17 20-20 19-14 21 8 23 24-4 27-4 25-3 23 8 18 17 7 27-7 23-14 25-14 22-16 19-25 15-24 9-27 7-28 3-27-5-23-6"/>
<path d="M3334 4453l 0 0 28 4 30 13 24 12 25 15 25 18 25 20 26 25 18 18 17 20 18 22 16 24 17 24 17 25 17 26 17 26 16 26 16 27 16 25 14 27 14 26 14 25 13 25 13 22 16 30 15 28 14 25 12 23 14 27 11 22 14 23"/>
<path d="M3726 5076l-1-1 21 12 20 19 17 17 16 19 24 7 25 7 24-8 20-19 14-26 7-27 4-26-2-27-9-23"/>
<path d="M3948 5231l 0-2-8 29-6 25-7 24-5 25-7 27-4 24 1 24 13 22 26 6 30-7 27-10 22-10 23-10 26-14 26-12 26-16 19-15"/>
<path d="M4053 5305l-2 0 4 27 4 28 5 28 7 28 6 31 2 28 4 27"/>
<path d="M3843 8699l 1-1 23 15 21 20 22 22 25 25 16 18 17 20 17 20 21 22 21 22 22 22 22 24 22 25 21 24 20 26 20 27 20 26 19 29 18 27 18 25 15 26 16 25 14 27 12 29 11 28 7 28 9 26 6 27 6 27 6 26 5 25 6 32 4 24 4 33 4 30 3 25 3 25 6 28"/>
<path d="M4269 9602l 0 0 23 14 19 19 19 17 22 17 21 12 23-14 18-26 16-28 10-24 9-24 9-23 7-23 4-25"/>
<path d="M4350 9839l 0 0-11 23-2 26 2 28-3 27 3 24 13 22 23 13 24 0 30-5 27-4 24-6 24-7 26-8 22-10"/>
<path d="M4471 9904l-2-1-3 26 7 25 8 29 7 26 9 28 6 31 4 25 6 28 4 25 6 26 6 27"/>
<path d="M3932 7813l-2-6-4-27-6-27-11-28-13-25-16-18-23-9-28 10-25 19-19 20-16 26-10 27-7 26 0 28 10 24 28 10 31-2 25-9 24-9 22-13 22-18 16-17 12-24 4-25-21 17-4 24-3 29 2 30 1 25 5 31 4 25 7 23 7 30 8 30 7 26 10 24 8 24"/>
<path d="M3249 11153l-1-1 11-23 18-17 22-12 24-10 27-8 25-2 27-1 24 4 8 25-9 23-9 22-14 25-17 26-19 24-22 26-19 29-19 25-18 22-17 25-10 24-9 25 10 24 29-3 25-8 21-12 24-13 27-16 23-12 27-13 22-15 20-19"/>
<path d="M3305 10982l-3-2-29-6-24 2-27 7-25 10-25 18-22 19-22 21-24 24-24 27-17 20-14 22-14 27-14 30-13 33-11 35-9 35-4 35-2 35 2 33 7 32 8 29 11 28 13 24 16 21 18 18 28 21 22 10 24 9 24 6 27 3 25 3 28 1 28 2 25-3 28-3 28-6 28-9 27-11 26-12 26-14 26-17 25-16 23-21 21-22 19-25 16-24 16-26 12-26 8-29 5-29 0-29 0-33-6-36-10-38-13-40-16-37-18-36-21-32-22-33-25-29-23-26-23-22-22-16-23-15-23-10-35-8-34-1-31 6-26 13-19 15"/>
<path d="M4706 10277l-2-2 25-7 23-8 29-10 23-7 25-8 24-5 29-8 27-7 24-5 26-3 0 25-13 25-11 28-12 28-11 27-11 26-10 28-7 25"/>
<path d="M4931 10101l-5-2-26-12-30 2-29 10-24 11-24 16-26 23-18 19-16 22-19 25-18 28-18 28-17 31-17 32-12 34-11 34-6 31-3 32 0 30 5 27 6 25 13 32 20 26 24 23 17 18 28 19 30 16 29 3 24 5 25 1 27 0 31 1 28-7 29-8 28-15 27-14 24-16 22-17 18-18 16-20 13-21 11-22 10-25 7-25 5-27 2-30-1-33-2-36-5-41-7-39-9-37-12-36-12-32-14-28-17-24-17-21-21-15-21-15-22-12-32-11-31-7-32 0-31 3-28 7"/>
<path d="M3685 7560l-1-1-24-1-23 16-21 22-16 19-20 21-15 27-19 30-17 34-14 38-16 40-12 42-9 42-6 42-3 43 1 41 4 40 10 38 12 36 16 32 23 29 24 24 27 19 29 15 31 11 35 9 37 6 41 2 42 0 42-4 43-9 42-9 43-13 40-14 38-14 36-19 32-21 27-22 23-25 18-24 14-25 9-25 4-27 1-27-4-30-9-33-13-33-16-34-19-36-23-37-27-37-29-38-16-18-31-34-18-19-16-17-17-17-32-33-31-28-32-26-27-19-25-13-23-11-32-4-30 7"/>
</svg>
