<svg xmlns="http://www.w3.org/2000/svg" viewBox="1435 2849 10490 14522" stroke="black" stroke-width="16" stroke-linecap="round" stroke-linejoin="round" fill="none" data-xena="0 0 0"><style>@media(prefers-color-scheme:dark){svg{background-color:black;stroke:white;}}</style>
<path d="M1771 3660l 0-2 7-24 17-19 18-19 19-16 16-19 20-18 23-19 21-19 20-18 21-19 24-20 20-16 21-16 23-14 24-15 28-13 28-15 29-13 31-12 32-11 30-9 29-6 29-4 30 0 25 3 25 7 23 7 24 10 25 10 24 11 23 9 28 16 25 18 19 17 19 18 16 18 19 22 16 23 15 23 13 21 14 22 16 18 16 20 21 13 21-16"/>
<path d="M2628 3629l 1-1 26 0 25 3 24 7 24 8 24 7 25-2 25-14 13-22 6-26-2-24-9-28-12-22"/>
<path d="M1634 3526l-1-2-13-21 9-25 13-22 17-19 18-24 21-24 24-25 19-17 22-16 21-19 22-18 24-18 23-18 25-18 27-18 27-19 28-21 29-18 29-19 30-19 30-17 32-17 33-16 35-14 32-15 34-14 35-14 31-13 34-10 35-10 32-8 34-7 33-6 35-5 37-4 38-2 39-1 40-1 37 0 40 2 38 3 39 4 38 5 38 6 38 6 37 8 37 8 38 10 37 11 38 11 36 13 35 11 35 12 34 13 34 14 32 14 31 15 28 12 28 14 27 14 24 14 24 14 24 14 22 15 20 15 21 16 26 22 24 21 20 22 16 19 17 23 16 21 12 21 11 22 9 23 10 24"/>
<path d="M3582 3436l 0 0 25 9 24 14 23 14 21 11 23 10 23 6 25 2 25-11 22-18 16-21 13-24 10-25 7-28 2-27"/>
<path d="M1776 3627l 0-1-23 10-19 18-17 19-20 17-14 21-16 21-14 20-11 22-5 25"/>
<path d="M1686 3491l 0 0-18 20-16 22-13 24-14 26-12 23-12 23-12 25-14 24-12 25-8 24-6 26-8 27-3 26"/>
<path d="M3002 3625l 0-1-8-22-9-23 15-19 20-17 22-13 21-13 23-9 27-11 24-9 27-9 24-7 23-6 24-5 28-6 27-3 26-3 26 0 26 1 24 2 27 5 25 6 25 6 23 5 27 8 23 10 22 13 20 12 16 20"/>
<path d="M3536 3453l 0-2 6 26 14 22 18 21 19 16 15 20-23 14-26 6-27 5-25 5"/>
<path d="M3727 3649l-1-1-12 22 0 27-5 24-2 25-7 23-8 24-10 27-13 22-15 23-17 23-18 22-20 21-23 20-22 19-28 17-22 10-22 11-26 9-26 8-28 8-27 6-28 4-27 1-27 0-26-3-29-5-28-6-28-8-29-9-29-10-29-12-31-13-28-13-28-13-26-13-25-13-21-11-25-16-22-13-24-8-22-16-20-16 10 23 6 23 3 25 0 26 0 26-2 25-21-17-8-24-6-28-7-23 17-20 27-9 23-7 24-7 25-2 25-1"/>
<path d="M2684 3863l 0 0-3 24-2 26-1 27 1 24 5 25 5 25 6 27 4 30 9 26 8 29 7 26 9 26 12 27 14 25 16 25 18 22 19 22 21 24 18 19 19 17 19 20 19 18 22 18 23 16 25 15 25 14 29 13 32 12 33 10 25 4 35 6 35 7 37 8 26 3 26 1 28 0 27 0 26 0 27 0 26-1 26 0 25-1 35-2 37-1 26-2 25-2 25-1 24-2 35-3 25-4 25-3 25-4 26-3 24-1 25-3 25-4 33-7 24-4 25-6 34-9 34-10 24-7 23-7 24-6 22-8 23-9 34-13 23-10 23-11 24-10 22-11 23-11 31-16 22-12 31-16 31-18 21-11 30-20 28-20 26-20 29-20 27-20 27-20 26-22 23-22 22-25 23-25 22-25 21-28 22-27 22-26 23-25 19-25 16-24 15-21 17-26 13-23 15-21 13-26 12-23 12-23 7-23-21 12-25 10-26 10-27 10-23 10-23 11 25-10 20-14 25-7 26-5 25 0 24 0 23 10 15 20 5 24 7 24 0 24"/>
<path d="M3893 3524l 0-1 8-23 15-21 20-19 17-18 21-19 17-18 22-17 25-18 28-16 27-17 29-17 32-17 22-12 20-13 24-12 23-11 24-11 25-10 24-11 24-11 23-10 25-9 34-11 32-10 33-9 32-6 30-3 29-1 28 1 26 3 27 5 26 7 26 7 23 6 23 9 24 12 23 13 21 14 19 18 18 18 16 22 16 23 14 21 8 23 7 24"/>
<path d="M4816 3395l 0 0 20 18 20 18 23 9 25 7 24-4 21-14 18-21 16-24 11-28 8-24 8-23 3-25"/>
<path d="M1852 5992l-2-2-12-22-1-24 10-25 16-19 20-16 24-15 23-10 26-6 29-3 25 0 26 0 26 2 26 3 29 5 27 11 11 23-9 28-11 24-20 27-15 20-22 19-19 19-19 22-19 21-17 21-19 20-21 22-22 22-21 20-21 19-19 16-25 20-21 18-24 19-20 19-14 20 25-4 29-10 29-12 27-10 29-12 33-10 30-11 32-9 31-8 30-7 25-2 24 1"/>
<path d="M2302 5764l-1 1-9 22-9 23-7 24-6 23 3-24 4-24 6-26 2-24 22 16 12 21 11 22 17 17 24 5 17-21 12-26 7-24 7-25 5-27 0-28 1-28 1-24"/>
<path d="M2555 6044l 0-1"/>
<path d="M2772 5917l 0-2-2 25 0 29 1 26-1 27-1 31-4 31-7 25-9 25-10 24-11 21-14 23-15 19 11-29 10-27 10-30 12-33 7-24 6-24 6-23 9-32 7-28 5-24 6-27 7-23 20 14 12 23 12 25 9 27 10 29 10 30 11 28 12 27 14 24 20 24 20 22 22 16 25-2 25-19 17-22 17-28 12-22 9-22 8-25 8-25 4-28 5-29 4-31 4-33 3-31 1-31 1-27-3-33-3-27-11-25"/>
<path d="M1644 6188l 1-1 26-7 28-3 27-4 35-7 29-8 35-9 38-12 42-13 47-13 23-8 24-6 26-7 26-8 27-8 27-8 28-8 29-7 27-8 29-7 29-7 29-6 29-6 29-6 30-6 28-6 31-6 29-4 30-5 30-4 30-4 30-5 29-3 31-2 29-4 30-3 29-4 28-3 28-3 26-3 27-4 27-3 25-3 47-5 44-5 42-4 40-4 36-4 34-2 29-3 24 0 33 0 25 2 28 2"/>
<path d="M1710 7068l 0-2-6 29-8 28-10 26-12 28-9 31-10 29-9 29-6 31-10 30-8 30-9 28-7 23 17-20 15-29 11-24 12-27 10-29 9-29 10-29 7-27 7-27 5-25 7-33 5-29 3-29 0-27 9 26 7 25 6 29 8 34 7 26 7 25 5 25 5 26 4 24 7 26 7 24 15 33 15 29 14 25 16 20 21 20 25 11 30-5 23-18 16-25 18-28 10-22 11-23 8-26 6-26 6-27 3-27 3-28 1-32 2-30-1-28 0-27-3-34 0-30 0-28-2-25 16 20"/>
<path d="M2250 7202l-1-1"/>
<path d="M2478 7051l-1 0 3 27 0 25-7 31-5 27-7 26-8 28-8 29-11 31-11 29-14 25-14 25 9-25 12-30 14-32 13-33 13-31 10-29 6-28 7-24 7-26 5-25 7 30 2 24 2 27 5 28 4 27 12 26 11 25 14 22 16 20 24 19 24 17 25 6 29-5 27-13 21-23 16-22 12-30 14-28 8-33 6-23 4-26 6-27 3-26 2-26 0-35-3-30-7-30-10-22 2 28"/>
<path d="M2908 7127l 0 0 11 22 2 29"/>
<path d="M2972 6990l 0-2 5-25 0 25-6 25-4 29-3 31-4 31-5 32-3 30 0 26-3 29-5 27-5 25"/>
<path d="M2905 7422l-1 0"/>
<path d="M1891 9135l 1-2 12-23 12-23 8-23 10-23 21 16 3 25-1 31-2 25-3 30-4 35-4 26-4 26-5 28-5 28-6 29-11 28-4 28-6 26-5 26 1 24-6 32-5 26-8 30-6 27-22-10-3-29 0-28 4-34 5-24 4-26 6-26 8-28 7-27 8-31 9-30 12-31 12-31 15-30 15-28 13-24 13-23 12-22 19-28 16-23 17-19 22-20 21-16 22-9 24-7 27 0 25 11 18 19 10 22 5 30 2 28-2 32-5 34-4 24-5 28-5 26-6 27-6 26-5 25-5 26-6 26-4 26-4 24-3 32-2 28 2 25 7 28 9 25 24 15"/>
<path d="M2427 8815l 1-1 19-15 24-1 24 6 24 6 22 14 10 24-14 21-18 17-21 18-20 20-21 19-22 17-13 22 23 9 25-3 26-5 28-2 29-3"/>
<path d="M2760 9032l 0 0 24-2 24 2 25 1 28 3 28 2 27 6 24 9 18 18-1 26-13 27-19 26-16 18-19 20-20 20-22 21-24 21-23 21-26 19-26 18-25 19-23 19-24 18-21 19-22 18-21 17-18 15-24 22-15 19-13 23 13 21 26 1 25-5 24-8 26-7 26-8 25-7 28-5 26-5 24-3 29-3 25-1 25 3 23 9"/>
<path d="M3082 8962l 0 0-3 27-6 25-8 24 13-22 12-21 12-22 16-24 15-20 19-21 19-17 22-16 21 12-6 24-9 23-8 24-11 24-8 23-1 28"/>
<path d="M3751 9242l 0-2-18-16-27 10-28 13-21 13-21 12-24 18-22 17 12 24 27 1 26-1 28-2 29-1 28 0 28 5 19 16 0 26-14 28-23 22-22 17-23 14-24 12-24 10-26 6-31 6-28 1-25-8-8-26"/>
<path d="M4010 9001l 0-1 2 28 2 25-2 31-6 28-10 31-7 24-10 25-11 28-12 31-13 32-14 32-14 29-14 30-11 26-10 23-10 31-6 26-5 25 12 22 28 7 24-4 28-12 29-16 22-14 21-14"/>
<path d="M3877 9286l-2 1 27-12 27-9 31-10 34-8"/>
<path d="M4207 9327l-2 0-26-4-26 0-24 2-23 12-19 19-5 25 27 10 24-4 23-8 22-10 19-15-5 25 17 18 26-2 28-8 28-13 23-14 25-17"/>
<path d="M4458 9039l 0-5-5-25-22 17-9 23-8 28-9 32-7 24-5 26-7 26-8 29-6 31-10 28-8 29-7 29-6 25-6 26-6 35-3 28 1 24 6 28 16 20 30 0 23-10 26-16 28-21"/>
<path d="M4304 9277l-5 0-26 5 28-3 27-7 32-8 33-7 34-6"/>
<path d="M4531 9368l 0 0 28 1 28-5 27-7 25-7 27-6 21-13-1-25-22-14-24-2-25 5-18 17-15 21-10 26-3 28 4 31 7 26 13 23 20 19 22 10 24 5 30 2 27 0 24-5 24-10"/>
<path d="M2003 10491l 0-1-5 26-6 23-10 28-9 23-8 26-13 30-13 31-10 22-10 23-12 21-17 30-13 25-10 23-12 23 12-24 15-31 12-25 13-28 10-30 10-30 10-29 8-28 10-27 7-25 10-33 8-31 9-25 9-23 13-25 16 25 6 27 6 34 4 27 4 28 5 31 6 28 6 29 8 27 9 27 8 23 9 23 15 30 14 25 16 20 23 18 24 5 23-13 19-27 17-31 12-24 9-26 7-31 5-29 4-28 1-30-2-26-4-25-8-28-6-25-10-32-9-27-9-24-25 2"/>
<path d="M1971 11067l 2-2 23-15 26-3 23 7 12 22-10 24-14 21-17 22-20 22-21 19-21 18-23 18-20 15-15 19 24 8 30-6 25-3 25-2 26-1 28 3 26 7"/>
<path d="M1862 10432l-2-1-22 10-24 19-22 20-20 22-19 25-21 31-12 20-14 24-14 25-15 31-13 33-14 38-12 39-12 39-9 42-9 42-5 44-2 45-1 41 3 37 2 37 8 34 8 32 11 29 10 26 14 23 16 20 25 24 26 19 31 12"/>
<path d="M2520 10497l 1 0 17 20 15 21 18 23 16 18 15 20 14 21 13 22 12 28 11 27 6 29 2 30-2 36-5 36-4 26-9 28-8 27-9 28-14 26-10 23-12 25-15 23-13 23-13 21-14 20-20 30-20 26-18 23-18 18-22 16"/>
<path d="M2814 10851l-1-1"/>
<path d="M3015 10647l 1-1 16-21 25-11 28-6 27-4 27-4 29 2 28 2 30 5 22 9 21 13 19 18 15 21 8 26 3 31-3 24-6 26-13 27-13 20-15 21-18 24-20 25-20 25-24 25-25 25-28 25-31 25-31 24-32 22-29 21-30 18-25 19-22 15-22 13-27 17-21 14-23 17 29 0 24-5 26-5 27-6 25-5 27-5 28-6 26-3 28-1 24 0 29-2 27 1 26 3 25 8"/>
<path d="M3439 10464l 0-1 3 28-2 28-3 25-6 28-7 26-10 24-13 25-13 23-19-16 4-24 6-27 6-25 9-28 10-27 14-23 16-21 19-15 23-8-23 11 19 15 9 23 12 26 14 24 15 23 15 27 13 23 11 24 16 22 7-28 0-27-1-30 0-28 3-26 2-26-1-25 3-25 4-27 9-24"/>
<path d="M3730 10549l 0-2 23-14 29-1 29-2"/>
<path d="M3928 10455l 0 0 26-8 27 2 26 3 27 5 25 13 15 21-2 27-17 23-21 22-20 16-22 17-21 16-21 16-20 16-22 19-14 19 21 15 24-3 25-4 27-4 26-4 28 0"/>
<path d="M4349 10875l-2 0-25 3-28 8-29 8-26 11-23 12 7 23 22 8 27 3 24 2 28 1 24 3 25 6 25 7 16 20-6 25-15 20-17 16-22 16-24 15-26 13-26 13-27 9-30 8-28 2-24-7-15-18-9-25"/>
<path d="M4629 10659l 1 1-1 29 1 27 1 26 0 31-3 26-7 28-12 30-13 33-12 31-13 30-9 24-9 25-5 29 0 27 13 20 26 5 24-7 26-14 22-14 22-16"/>
<path d="M4482 10879l 2 0 28-8 26-6 31-9 27-7 31-3"/>
<path d="M4936 10872l-2 0-28-3-27 1-26 1-25 6-23 11-20 14-17 18-12 21-4 26 18 17 27 5 26-5 27-9 24-12 14-21 7 24 26 6 29-2 31-9 23-9"/>
<path d="M5122 10655l-1-2-14 24-5 27-4 26-4 27-2 30-4 31-5 32-3 25-4 32-2 31 0 25 2 24 5 29 11 22 19 18 24-4 24-11 20-19"/>
<path d="M5047 10849l-2 1 25-1 27-1 25-1 26 0 24 0"/>
<path d="M5252 10922l-1 0 26-2 25-1 24-7 23-8 19-17 2-24-17-19-24-8-25 2-27 14-20 12-22 19-16 24-6 26 9 23 14 23 18 19 18 16 22 11 25 8 25 7 24 5 26 1"/>
<path d="M1742 12306l 0-2-2 29-3 28-3 25-6 28-7 28-9 31-6 31-9 35-8 34-5 23-6 34-3 29-2 27 27-3 19-21 18-30 13-25 10-26 11-27 10-26 9-27 4-28 3-25 1-33 0-26-3-25-1 25 7 27 9 25 13 27 14 30 15 29 19 24 20 20 21 14 22 10 31 5 31-5 25-10 22-20 13-23 10-31 9-35 3-25 1-25-1-25-4-34-3-26-4-27-6-26-6-29-6-26-6-28-6-25-5-31-7-24-11 21-1 30 4 26"/>
<path d="M2386 12070l-1-2-24-1-17 20-18 27-17 28-13 22-14 23-13 24-10 25-12 26-10 29-9 31-6 31-6 34-5 33-5 32-6 35-3 32-1 30-1 28 4 26 4 26 7 32 9 25 16 27 18 25 17 21 21 15 25 9"/>
<path d="M2390 12323l-1 0-10 22-2 24-5 24-5 32-5 30-8 29-9 28-9 29-9 24-10 23 3-34 6-24 8-27 8-29 9-28 9-27 7-26 8-35 7-33 3-27 2-27 12 29 5 28 6 32 5 36 4 26 5 28 7 27 5 26 5 24 5 35 9 31 12 23 15 22 24 8 29-9 16-19 20-24 15-23 13-25 13-30 11-29 8-30 7-28 6-30 4-26 1-26-1-26-4-34-2-29-7-27-24-2-6 24"/>
<path d="M2754 12449l-1-2 26-10 24 0 25-1 27 3 25 5 29 2"/>
<path d="M3145 12277l-2 0-13 24-2 25 0 33-3 29-5 32-5 36-5 27-4 27-3 28-5 28-5 25-3 25-3 30"/>
<path d="M3177 12107l 0-1 23 9 31 9 26 12 27 18 25 22 26 22 25 27 22 25 18 27 14 27 8 29 6 34 2 33 0 24-2 25-3 25-4 29-9 29-10 28-13 29-12 28-13 26-13 28-10 26-13 22-12 20-21 27"/>
<path d="M3599 12472l-1-2"/>
<path d="M3857 12274l 2-2 18-18 28-3 29-2 24 2 29 5 30 7 32 9 31 10 29 10 29 9 24 12 25 19 12 24-3 29-16 30-16 22-23 27-27 27-30 30-33 31-33 31-35 32-34 31-35 29-31 30-31 26-27 25-23 23-22 19-18 17-23 18-21 14 24 5 28-8 34-7 26-7 25-8 28-7 29-11 27-7 29-8 29-7 27-5 25-4 34-5 29-1 25 1 27 3 25 10"/>
<path d="M4327 12056l 1-2-22 22-12 21-14 25-12 26-10 26-9 24-11 28-5 24 21-13 9-24 8-27 6-30 7-30 7-28 6-25 7-24 9-25 4 26 1 27 2 25 5 28 7 26 7 24 11 27 15 24 14 20 17 17 25 6 22-17 17-25 13-23 10-29 6-31 1-32-2-29-5-27-9-30-11-25-13-25"/>
<path d="M4597 12205l-1-1 24-13 27 3 30 0"/>
<path d="M4810 12137l 1-1 26-4 29 0 29 1 30 2 31 1 29 3 26 5 0 26-19 17-21 14-24 16-23 17-19 17-22 21-15 21-7 24 11 21 22 13 27 7 25 0 31-2 30-2 26-3 25-3"/>
<path d="M1884 13738l-1-3-3-28 0-26 8 24-2 27-4 33-3 24-3 26-4 28-4 27-4 26-5 27-5 26-6 24-6 35-7 31-6 28-6 28 9-24 5-24 7-28 6-31 6-35 7-34 4-37 4-36 5-36 3-34 6-32 4-30 3-24 6-30 3-26 9 30 6 28 6 28 5 32 8 33 9 34 10 33 11 33 11 29 12 24 11 21 18 23 22 18 24 2 18-24 10-26 10-35 6-27 7-30 5-30 4-29 1-29 1-27-1-27-2-26-2-24-7-36-4-27-8-23"/>
<path d="M2329 13828l 0-2"/>
<path d="M2518 13655l 1-2 10-25 24-15 27-7 30 1 25 4 29 5 26 7 23 10 19 20 6 27-6 31-12 28-11 21-13 25-14 23-15 25-16 23-15 20-18 22-18 21-18 19-19 19-20 18-19 17-26 23-24 18-21 17-19 19-16 18 27 0 29-2 27-4 32-8 35-6 32-5 33-6 30-2 29-4 27-1 25 1 25 3 26 5"/>
<path d="M2924 13457l-1 0-14 20-8 24-7 29-8 28-4 32-6 28-7 26 11-21 5-24 3-30 0-28-1-31-2-29-4-28 0-25 11 21 11 25 10 28 12 22 10 22 15 25 13 28 16 23 21 15 27-2 17-24 10-29 6-29 3-28-3-28-5-29-8-23"/>
<path d="M3184 13499l-1 0 27 1 25 1 27-2 27-1"/>
<path d="M3410 13417l 0 0 17 21 13 21 12 25 10 25 1 25"/>
<path d="M7575 13253l-1 0 26 2 26 0 25 0 25-1 26 1 27-2 24-1 26 0 27-5 27-1 28 0 27-1 26-1 24 4 24-1 26 2 26 2 28-4 24 1 24-5 25 4 27-4 27 0 25-2 26-2 25 0 25-3 25-3 24-6 24-4 22 10 2 25 2 26-2 25 0 26 0 25-1 26 3 27 3 25 1 25 3 26 2 24 2 26 1 25 1 24 3 28 4 25"/>
<path d="M7702 15318l-1-1-23-10-8 23"/>
<path d="M8190 15345l-1-1"/>
<path d="M8671 15331l 0 0"/>
<path d="M9271 15350l-2-1"/>
<path d="M7649 16008l-1-1"/>
<path d="M8205 15956l-1-2 22-9"/>
<path d="M8646 15936l-2-1"/>
<path d="M9280 15914l-2-1"/>
<path d="M7662 16542l-2 0"/>
<path d="M8204 16601l-2-2 22-12"/>
<path d="M8644 16534l-2-1 22-10"/>
<path d="M9332 16536l-5-7"/>
<path d="M7617 17186l-2-1"/>
<path d="M8098 17229l-2-1 22-13"/>
<path d="M8724 17100l-5-1"/>
<path d="M9342 17158l-4-1"/>
<path d="M7810 15466l-1-1 24-8 24 7 23 13 22 12 22 15 25 16 26 16 26 18 25 17 26 13 28 15 28 12 26 8 27 11 25 8 27 8 26 9 25 8 27 8 22 11 24 11 24 9 22 9 24 9 20 14 22 11 24 7 21 13 23 8 21 13-4-27"/>
<path d="M8502 15677l-1-1 7 24 16 19 16 21 16 18 16 18 9 23-23 11-26-3-26-4-25-7-18 17"/>
<path d="M8559 16079l-1 0-25-4-25 7-23 13-24 11-23 11-24 13-22 10-25 9-26 9-25 8-28 11-24 13-27 13-28 10-27 10-27 14-24 16-25 13-23 13-23 13-23 11-22 12-21 12-26 13-26 12-23 16-25 12-23 10-25 9-25 9-21 16-22 13-19 15"/>
<path d="M7739 16376l 0 0-13 21-10 22-7 25-6 24-3 24 5 25 21-14 21-13 26-9"/>
<path d="M7808 16367l 0 0 11-24 12-27 13-25 11-26 12-25 11-23 10-24 9-26 9-23 11-30 11-30 11-26 11-25 9-27 9-25 12-30 8-24 9-27 6-25 6-25 10-28 9-28 9-25 10-26 9-23 13-26 12-22 15-22 13-24 10-26 11-24 6-24 8-24-25 10-20 16-21 15 2-24 16-21 19-18 19-15 21-13 15 22 2 25 5 26 7 23 16 22"/>
<path d="M8247 15552l 0-1 11 23 12 21 14 22 14 27 12 28 11 21 12 22 12 22 12 24 11 26 12 23 12 25 11 21 11 25 11 22 9 22 8 23 11 29 10 29 6 24 5 29 8 31 8 27 7 28 8 26 6 23 8 27 9 27 7 27 8 26 8 26 8 23 7 25 9 22 4 24-24 4"/>
<path d="M8471 16396l 0 1 23 13 24 6 26 5 25 5 23 8 3-24-10-27-11-24-10-22-10-23-1-25"/>
<path d="M8496 16451l 0 1-25-1-23-12-27-6-24-9-24-7-27-11-25-11-26-11-28-12-23-9-26-13-26-13-28-16-26-12-26-10-25-9-26-9-23-6-24-7-28-10-25-6-25-4-27-9-25-8-27-7-24-9-24-6-26-8-24-11-21-12-12-22-2 27 0 24 1 24-5-24-6-23-6-24 23-9 24-11 24-6 24-6"/>
<path d="M7761 16091l-1-1 8-23 16-19 17-19 15-21 20-22 20-20 20-18 21-19 17-17 22-19 21-20 19-17 19-17 18-18 20-16 20-18 22-19 23-20 24-19 24-17 24-18 20-15 24-17 25-15 23-17 22-17 22-16 21-16 19-15 21-14 21-16 21-13 19-17 18-17 18-16"/>
<path d="M8418 15446l-1-2 9-22 24-11 25-9 25-6 24 4 19 16-7 25-11 21-15 23-12 22-11 22-3 25"/>
<path d="M8526 15534l 1-1 2 27-8 26-9 30-7 29-6 23-7 25-8 31-10 27-6 31-7 28-8 25-7 24-7 29-6 23-7 24-11 28-8 26-8 28-6 25-6 24-6 25-6 26-6 28-4 24-6 27-9 26-9 25-7 25-12 21-8 23-11 22-10 24-10 23-7 26-9 24-6 23-8-23 0-25-12-22-12 21-2 26 1 24 6 23 12 21 25-9 22-16 19-18 20-18"/>
<path d="M10609 15399l-1-2"/>
<path d="M11021 15433l-1-1"/>
<path d="M11376 15440l-1-2"/>
<path d="M11816 15457l 1 0"/>
<path d="M10663 16070l 0-1"/>
<path d="M10959 16094l-1 0"/>
<path d="M11372 16095l 0-1"/>
<path d="M11788 16086l-2 0"/>
<path d="M10548 16698l-2-2"/>
<path d="M10866 16702l-1-1"/>
<path d="M11310 16687l-2-1"/>
<path d="M11758 16662l-2-2"/>
<path d="M10526 17197l-2-2 25 13"/>
<path d="M10942 17235l 0-1"/>
<path d="M11303 17224l-1-1"/>
<path d="M11796 17267l-2-1"/>
<path d="M10681 15536l 0 0 13 21 18 21 23 13 22 13 22 14 24 10 20 15 22 16 21 12 24 14 23 17 22 14 23 9 23 9 23 11 24 10 22 13 22 11 23 10 22 12 24 11 20 16 22 15 21 11 18 18 23 9 21 17 24 7 21 13 19 16 21 14 21 13 19 14"/>
<path d="M11451 16158l 0 0 4 25 6 25 5 26 5 24 6 23 6 25 7 25 3 27 9 27 7 24 5 24 4 26 6 25 6 24 5 26 8 25 4 24 6 24 5 27 9 26 5 26 7 23 8 25 4 25 8 25 4 25 9 26 9 24 11 21 11 22 12 22 5 26 8 25 9 24 7 24 6 26 9 22 7 25 8 23 4 24 7 24"/>
<path d="M11580 17093l 0 0-25 2-24-8-22-13-23-12-22-16-21-12-24-11-22-12-23-13-22-11-24-14-27-10-22-8-23-8-27-10-24-11-23-9-23-12-24-10-22-12-23-16-22-13-22-12-23-15-23-10-22-16-21-14-21-11 8-24 10-22 12-23 10-21 10-24 9-23 9-24 11-23 8-24 9-23 7-25 6-24 9-28 6-26 8-28 5-23 6-24 7-29 9-27 9-25 7-24 11-25 13-24 11-23 12-27 12-26 11-23 11-25 10-26 10-27 10-28 8-24 8-26 10-26 8-24 7-26 9-23 15-24 10-25 11-25 9-23 12-22 15-21 8-23 8-22 16 19 12 22 8 24 5 26 6 25 6 24 6 23 6 25 5 27 5 25 6 24 8 24 8 27 8 25 7 27 9 25 10 25 11 25 11 26 11 26 5 24 10 25 8 24 10 26 8 23 9 26 10 26 9 28 10 26 12 27 11 25 12 25 10 22 10 22 9 24 8 23 11 23 7 24 10 25-6 23-22 14-20 16-21 11-23 13-22 14-19 15-21 14-21 16-21 15-22 13-19 16-22 16-22 13-19 15-20 16-21 16-23 11-23 8-25 15-25 10-25 11-23 9-21 15-22 12-21 15-20 12-20 16-20 14-22 18-19 16-19 16-18 17-21 13-20 13-25 1-12-23-11-22-10-23-13-25-9-22-9-24-10-22-8-24-5-26-4-24-2-27-3-28-2-26-4-27-7-24-9-28-7-24-8-25-5-23-5-25-6-25-6-24-4-26-7-25-4-25-4-24-3-26-6-23-2-28-1-26 0-26-4-27-4-26-5-26-6-25 2-24-13-21-23-5-12-21-11-22-26 3"/>
<path d="M10758 16158l-1-1 16 20 17 19 17 17 15 18 17 19 14 20 19 19 13 20 16 21 15 20 11 22 20 16 15 21 20 16 18 20 21 15 22 15 18 18 22 14 20 15 19 15 20 16 22 13 20 14 18 17 16 18 11 22-16 19-17 17-17 18-19 18-19 16-19 17-19 18-21 15-20 17-20 16-22 17-23 16-19 18-22 15-18 17-24 17-21 11-21 14-25 15-23 17-23 16-23 16-20 15-19 17-17 18-22 15-21 14-19 16-20 14-17-20 4-27 5-29 4-28 7-27 6-26 8-24 9-29 8-26 8-28 7-28 6-24 8-28 8-30 6-23 6-25 8-28 6-25 7-25 7-24 9-26 6-24 8-26 7-27 7-25 6-23 4-26 7-26 11-21 11-22 9-23 8-25 9-22 17 19 13 21 13 22 11 22 14 24 12 23 8 23 9 27 9 26 6 24 8 24 6 26 8 28 7 24 9 23 9 21 10 24 6 24 6 24 6 25 6 28 8 23 10 23 13 20 10 25 12 22 8 24 11 23 9 25 10 22 6 24 13 22 13 21-25 1-25-10-22-16-20-16-22-13-22-14-22-12-23-10-22-13-24-14-20-13-22-12-22-12-20-14-22-12-19-16-21-14-23-9-21-14-22-12-19-15-20-14-22-9-25-3"/>
<path d="M10622 16712l 0 0 8-24 9-24 10-22 9-25 9-23 10-24 11-22 10-24 9-23 10-25 11-23 8-24 8-25 8-24 6-23 10-24 9-25 9-25 8-24 4-26 7-25 5-26 4-25 5-26 7-25 7-23 7-26 5-24 5-24 5-24 6-24 6-23 7-25 6-24 6-25 6-25 6-24 7-25 9-26 8-24 8-24 10-23 8-23 8-24 5-25 5-25 7-24 6-24 24 0 16 19 10 22 16 19 18 17 13 21 19 16 19 18 18 16 22 13 17 19 21 15 22 13 21 12 20 13 21 15 24 12 21 12 24 11 22 11 21 15 22 14 22 12 23 10 24 12 22 15 26 8 21 16 25 8 23 9 22 12 23 9 24 11 21 12 22 11 21 13 16 19-23 11-15 19-14 20-14 21-15 19-14 20-15 22-17 18-21 18-18 18-19 21-17 20-21 18-21 18-21 19-21 16-21 21-21 18-22 15-21 15-20 18-20 14-21 14-20 14-20 18-21 11-20 15-21 14-22 12-22 15-21 14-20 13-20 17-20 14-20 18-21 16-19 16-17 18-20 13-20 15-22 15-19 16"/>
<path d="M11659 16133l 0 0 20-15 3 26-12 22-6 23-7 25-9 25-11 28-9 26-10 25-7 28-11 27-9 23-10 28-10 25-10 22-13 29-9 22-10 25-12 26-13 25-12 25-11 25-9 23-11 26-9 27-10 26-10 25-11 23-10 27-9 24-10 23-11 26-8 26-9 22-7 25-8 25-6 24-7 26-6 26-7 25-6 24-9 25-3 24-19-19-9-22-13-25-11-22-10-23-10-25-9-24-8-24-9-27-12-22-11-23-10-27-12-25-13-25-11-27-11-29-13-29-12-30-8-24-8-26-9-23-7-24-7-25-8-29-7-28-6-24-6-30-7-24-8-22-15-22-12-23-10-22-8-23-9-24-3-24-6-24 9-24 18-18 17-18 19-21 16-20 20-22 22-22 16-20 21-23 20-21 19-22 20-22 20-21 19-21 19-18 20-15 19-16 20-18 18-19 17-17 22-22 23-20 20-23 20-21 20-16 19-16 19-18 22-18 18-18 19-19 19-15 21-17 20-16 20-16 19-15 19-17 17-17 16-19"/>
</svg>
