<svg xmlns="http://www.w3.org/2000/svg" viewBox="1563 623 13485 14829" stroke="black" stroke-width="16" stroke-linecap="round" stroke-linejoin="round" fill="none" data-xena="0 -1 0"><style>@media(prefers-color-scheme:dark){svg{background-color:black;stroke:white;}}</style>
<path d="M2320 3382l-1 0-24 2-17 19-13 27-9 25-8 26-7 30-4 31-3 32 0 33 2 31 7 27 8 24 11 22 19 24 24 17 29 8 28 1 24-6 26-11 22-14 22-20 16-20 15-23 13-23 9-25 8-24 1-24-3-31-6-27-9-28-13-30-14-26-15-21-16-18-23-16-23-13-24-7"/>
<path d="M2787 3357l-2 1-21 14-16 25-13 29-9 27-6 30-1 32 2 28 6 25 9 23 18 25 25 17 28 13 25 3 30 3 29-3 29-8 28-13 20-14 19-19 16-19 13-21 10-27 3-30 0-24-7-25-9-26-12-26-16-23-17-20-18-17-26-16-29-9-22-9-24-7-26 0"/>
<path d="M3396 3489l-1 0 28-2 28-3 24-3 25-3 29-5 27-1 29-6 26-6 27-4 24-1 26-1 25-2 25 0"/>
<path d="M3657 3397l 0-1 24-4 24 0 28 4 25 6 23 13 19 18 1 26-9 24-15 19-17 19-20 16"/>
<path d="M4257 3364l-2 0-26-1-24 12-17 19-11 22-9 28-4 29-2 32 2 30 8 27 18 24 22 14 28 8 25 0 28-4 29-8 30-14 30-17 26-18 22-21 16-20 12-22 6-27-4-28-13-28-17-19-18-16-22-16-25-12-25-10-25-6-31-5-26 2-24 7-10 22"/>
<path d="M4598 3313l-1 0-7 24-1 26 0 26 1 32 1 26-1 27 0 28-1 26-4 26-1 31-1 26-2 25-3 26"/>
<path d="M4972 3483l 0 0 29-5 26-4 28-5 25-5 25-4 28 0 24-2 28-2 28-1 25-2 26-3"/>
<path d="M5153 3359l 0 0 27-1 25 4 27 4 25 5 24 7 26 8 22 9 22 14-3 24-17 21-17 20-19 18-20 15-18 16"/>
<path d="M5742 3309l 0 0-2 27 0 25 2 28 2 30 0 26 1 28 0 27-2 25-3 24-4 29-2 26"/>
<path d="M6011 3273l 0-1-5 27-5 25-4 30-2 30-3 25-1 27-2 28-1 26-1 27-1 24-1 31-1 29-1 26 1 26 3 24"/>
<path d="M6358 3495l 0 0 28-2 25 0 25-1 29-4 27-4 27-1 25-3 25-4 28-3 28-2 29-3 25-1 26 0 25 2"/>
<path d="M6656 3418l-1-2 22-13 25 2 27 5 27 6 23 7 23 9 19 16-7 23-20 16-21 17-20 14-24 16-21 15-19 15"/>
<path d="M7255 3320l-1-1-13 24-9 25-10 28-10 27-12 29-12 26-11 28-13 25-12 26-12 23-15 27-9 24"/>
<path d="M7411 3409l-1 2-16 21-13 23-9 22-8 24-5 25-2 30 4 26 10 23 17 18 23 13 28 9 30 3 25-3 24-5 25-9 24-12 24-15 22-15 20-16 17-16 18-25 10-25 2-27-5-32-9-22-12-23-14-20-21-19-23-11-29-6-28 1-27 11-24 19"/>
<path d="M1883 4984l-1 0-24 1-24 9-22 17-18 21-12 24-14 29-11 22-7 30-5 27-1 27 9 22 18 19 23 15 25 7 30 3 24 0 32-6 23-9 26-10 25-15 24-19 21-22 19-22 13-25 6-23-4-29-13-26-18-22-23-21-27-15-27-11-25-6-23-7-27-2-25 7"/>
<path d="M2248 5069l-5 0-27 4-27 10-23 17-16 21-10 27 1 25 6 26 8 23 16 26 19 18 25 13 27 6 28 4 27-1 27-3 26-7 28-11 26-16 20-21 16-22 9-24 0-26-8-26-13-21-19-26-21-18-24-15-24-12-27-12-25-7-29-2-27-1-26 6-16 19"/>
<path d="M2692 5048l-4-1-27 3-25 12-20 16-18 22-13 24-3 25 4 25 7 23 15 24 20 19 22 12 26 7 27 1 25-2 25-7 24-14 24-17 21-21 14-24 9-24 3-29-8-23-18-26-18-19-20-18-25-15-25-8-23-6-30-2-26 2-25 11-14 21"/>
<path d="M3044 5062l-1-1 27 0 27-6 28-4 25-5 27-5 25-3 25-2 28-4 25-5 25-7 22-10"/>
<path d="M3199 4976l 0-1 25 3 23 5 25 6 24 10 22 11 25 8 21 12-17 18-22 17-21 17-21 17-20 15-20 15"/>
<path d="M3686 4982l 0-1-26 5-13 21-13 28-6 28-6 25 0 24 1 29 12 27 18 19 25 12 26 0 24-4 28-11 25-13 24-16 22-15 21-17 20-23 16-25 9-24 1-26-14-24-19-19-22-17-26-13-27-9-26-2-26 2-21 12"/>
<path d="M4132 4950l-2-1-26 0-24 7-20 17-13 25-4 26 0 27 12 22 20 16 23 17 26 10 28 3 25-5 22-10 22-12 22-18 16-19 14-25 2-27-10-24-21-19-21-13-23-10-26-4-26 0-26 6"/>
<path d="M4475 4909l 0 0-5 27 0 24-3 29-3 30 1 25-4 29 0 25 0 27"/>
<path d="M4803 5028l 0 0 25 10 27 1 27 0 29-1 26-2 27 0 28-1 27-2 26-3 24-4"/>
<path d="M5032 4947l 0 0 20 13 25 7 24 3 27 4 25 5 24 9 14 20-16 19-23 17-22 17-24 14-22 15-20 17-15 21"/>
<path d="M5575 4950l-1-1-24-4-23 6-20 17-16 20-11 21-7 26-2 25 3 25 11 26 16 19 23 17 26 11 29 6 25 1 26-2 29-7 28-12 25-15 21-17 17-23 14-28 6-28-5-30-11-26-17-21-19-20-22-16-24-9-28-9-24-5-27 5-21 16-11 24"/>
<path d="M5928 4900l 0 0 0 25-3 27-3 24-1 24-3 27-1 26 0 24-2 26 8 23"/>
<path d="M3601 745l 0-3"/>
<path d="M3616 726l 3 3"/>
<path d="M6181 4882l 0 0 9 25 5 24 2 25-1 27-2 29-4 29-4 27-5 28 1 24"/>
<path d="M6474 5000l 1-1 22-8 26-2 25-2 24-2 26-2 29 1 25 0 27 2 26 2 26 1 26 0 25 1 28 2 27-2 24 2"/>
<path d="M6843 4917l 1-1 26-4 24 2 23 8 21 12 15 20-14 21-22 17-19 15-20 16-20 14-20 15"/>
<path d="M7266 4906l 0 0 5 25-3 26-4 26-6 27-6 26-6 25-7 24-6 23"/>
<path d="M7534 4909l 0 0 8 24-3 24-2 27-1 26-3 25-4 26-9 24-8 24"/>
<path d="M7806 4867l 0-1 3 25 0 24-1 28 0 24-2 26-1 25 0 29 0 24 3 25-1 25"/>
<path d="M8162 4964l 0 0 25-5 25-4 27-3 27-2 24-1 25 0 24-3 27-2 25-2 25-4 25-4"/>
<path d="M8383 4879l 0-1 27-1 25 7 24 9 26 8 25 8 22 11-9 23-23 16-23 13-23 15-24 14-21 16-18 16"/>
<path d="M8902 4828l 1-2 14-21 12 23-4 29-3 29-4 31-5 29-6 30-5 27-4 26-2 27 1 26"/>
<path d="M9202 4808l-1-1 6 25 3 28 0 27-2 25-4 29-7 23-8 24-9 22-9 24-5 25"/>
<path d="M9474 4856l-1 0-18 17-11 25-10 27-5 26-2 25 5 28 13 22 18 18 23 15 24 8 28-1 26-10 23-11 22-15 16-17 14-22 8-23 1-25-6-29-10-25-13-21-16-18-24-16-26-8-28 0-28 5-25 8-23 16"/>
<path d="M9900 4956l-1-1 25-4 26-2 26 2 25 0 29 0 27 0 26 0 25-1"/>
<path d="M10090 4894l 0 0 24 4 24 1 24 5 22 10-13 22-17 16-19 18-17 17-16 19"/>
<path d="M10454 4855l 0 0 0 24-6 25-11 24-14 25-13 25-15 25-13 25-11 23-10 24"/>
<path d="M10695 4901l 0-1-23 12-20 20-15 22-10 23-3 25 5 25 10 22 17 19 21 13 23 10 28 5 28 0 26-3 30-6 29-10 27-11 22-14 22-18 17-18 9-26-6-24-14-23-15-20-21-21-21-15-23-11-27-8-27 1-25 10-18 17"/>
<path d="M11627 4945l 0 0 23 5 24-5 26-1 24-1 26 1 26-1"/>
<path d="M11787 4897l 0 0 24-5 25 5 23 9 13 21-19 16-22 15-22 14-23 12-22 11"/>
<path d="M11265 4847l 0-1-7 27-5 26-8 27-8 29-8 26-9 29-10 29-9 26-9 24-4 25"/>
<path d="M12229 4858l 0 1-24 6-15 19-13 20-12 23-9 23-10 28 0 27 10 24 13 22 16 19 19 17 23 14 23 9 27 4 27-5 26-12 22-18 21-21 14-20 11-23 8-24 6-28 1-26-8-27-12-25-16-19-22-15-23-8-27-2-25 2-21 13"/>
<path d="M12646 4829l 0 0-9 24-11 24-10 23-11 24-8 25-9 24-8 24-7 27-5 25"/>
<path d="M12842 4877l 0 0-23 14-16 22-16 22-11 26-4 27 0 27 9 23 16 19 25 12 24 5 26 1 30-6 24-9 22-10 20-13 22-17 17-23 8-22 0-25-10-27-18-23-21-19-23-14-28-2-26 4-27 13"/>
<path d="M13255 4939l 0 0 24 5 26 0 26 0 28-2 26-1 25 1 24 0 26 0 26-1 27-4"/>
<path d="M13474 4834l 0-1 24 13 25 8 25 7 25 7 27 7 25 6 22 10-11 23-22 14-21 14-20 15-23 12"/>
<path d="M13976 4835l 0-1-2 26-4 26-10 24-12 24-13 21-16 25-12 22-13 21-16 23-13 23"/>
<path d="M14201 4874l-2-1-23 10-21 18-17 23-9 24-3 27 0 25 8 25 16 21 24 15 25 7 24 1 25-3 26-5 25-7 28-10 25-12 22-17 18-17 16-25 6-26-5-25-10-27-14-27-14-20-19-20-23-14-24-10-28-6-24 2-22 13-5 26"/>
<path d="M14757 4840l-1-1-25 0-24 14-19 15-17 19-14 20-10 22-4 29 2 26 11 21 21 18 24 6 29 3 25-1 26-5 29-8 27-9 25-11 22-10 25-15 20-15 14-22-1-24-11-27-19-22-17-17-24-17-25-11-28-7-28-1-28 5"/>
<path d="M1864 6313l 0-1-6-23-20-15-23 9-18 22-18 28-14 25-14 25-10 26-6 27-1 25 10 27 11 25 15 19 24 7 29-3 25-9 21-13 20-18 19-21 19-22 16-23 10-25 8-29 0-27-2-27-11-26-15-27-17-22-22-17-25-2-24 12"/>
<path d="M2186 6298l-2-1-26 6-20 15-18 17-12 22-10 27-4 26 3 27 9 22 13 25 15 18 27 12 24-1 24-11 20-13 22-17 18-19 18-18 14-20 11-27 8-28-4-27-11-21-13-25-13-20-24-8-25 1-24 8"/>
<path d="M2514 6278l-2-1-26 1-21 12-9 27-6 24-5 29-1 25 1 30 4 24 8 31 12 26 18 22 22 13 28 7 28-3 24-13 22-19 16-19 17-22 13-25 10-22 8-24 4-26-3-30-8-24-9-25-14-24-15-22-22-21-24-11-26-5-30 1-23 10-24 15-12 20"/>
<path d="M2808 6307l-2-2-24-7-19 17-12 22-8 23-5 23-2 30-2 30 3 29 13 24 17 25 21 21 22 8 25 0 28-4 26-11 21-17 20-21 15-22 8-28-5-29-7-28-13-28-15-19-20-19-24-12-26-5-27 2-22 9"/>
<path d="M1835 6949l 0-1-24-6-23 15-16 21-15 26-11 25-9 24-7 26-4 28-1 28 5 24 12 27 17 22 20 19 23 17 24 13 29 6 26-2 24-6 25-17 19-18 16-23 15-26 16-26 13-29 9-28 2-28-4-25-10-27-16-26-16-19-23-19-25-13-27-9-28-6-25 8"/>
<path d="M2181 6989l-1 0-23 8-16 22-5 25-8 28 2 28 7 26 15 24 25 9 25 3 27-6 24-10 21-16 19-19 14-24 11-24 2-29-8-27-14-20-17-19-27-12-26-6-27 2-22 13-13 23"/>
<path d="M2415 7010l-2-1-23 6-17 18-5 25 7 24 11 24 18 22 23 11 28 1 27-2 21-14 15-20 11-25 0-27-15-20-21-19-20-17-21-13-24-3-23 9-14 20"/>
<path d="M2766 6953l-2-1 3 26 3 25 4 29 2 26 0 27 1 30 1 28-1 30-2 28-4 24"/>
<path d="M1836 7589l-2 0-23 8-20 16-14 21-16 25-11 22-1 27 5 24 9 24 15 21 21 14 23 10 26 4 25-7 23-10 21-12 19-17 12-22 8-23-3-27-12-26-17-17-20-18-23-17-28-6-30 5-22 14"/>
<path d="M2088 7614l-2 0-27 7-21 13-8 26-1 27 1 28 8 25 15 22 19 18 25 14 24 6 24 1 26-10 25-14 18-18 10-23 3-29-11-24-13-23-18-17-28-8-28 2-24 9"/>
<path d="M2387 7548l 0-1 2 25 3 28 0 25 0 28 1 25 5 26 6 24"/>
<path d="M2741 7519l-2 0-3 26 1 24 5 28 5 27 3 27 1 25 4 25 6 25"/>
<path d="M1841 8155l 1-1-24-8-14 23-11 23-10 25-8 25-4 26-3 31-2 28 5 26 6 27 16 19 25 7 25 2 24-7 27-13 18-16 16-20 11-21 13-28 6-28 2-28-5-29-10-22-15-24-19-21-22-19-22-13-26 1"/>
<path d="M2119 8161l-2-1 4 26-2 25-2 28-2 25-1 28 0 26 0 26 7 25"/>
<path d="M2364 8089l-1 0-6 23 2 25 7 28 7 27 2 24 1 29 2 27 1 27 6 25"/>
<path d="M2728 8138l 1 0 5 24 5 28 6 28 5 24 1 26 3 26 2 25"/>
<path d="M1804 8718l 0 0-12 21-3 24 2 25-4 26-3 27 0 28 0 30 0 28 6 29 12 21"/>
<path d="M2060 8770l 1 0 17 18 6 24 2 26 0 24-2 27 1 25 0 26"/>
<path d="M2396 8704l-1-1 3 27 4 26 6 24 7 25 3 28"/>
<path d="M2796 8619l 1-1-3 25-2 25 2 24 2 28 2 28 4 28-3 26 0 26"/>
<path d="M1787 9283l 0-1 8 27 2 29-4 29-5 27-4 25-5 31-8 26-10 30-3 27 7 23"/>
<path d="M2035 9275l-1-1-7 25-2 28 0 27 0 27 3 27 5 26 3 24 0 26 3 26"/>
<path d="M2334 9253l 1-1 12 24 5 26-3 27-7 30-6 27 0 26 0 24-5 25"/>
<path d="M2700 9278l-1 0-17 18-5 27 3 25 6 27 12 26 16 24 20 19 22 13 27-2 23-15 24-11 22-19 13-23 11-23 9-28-1-26-9-27-17-21-19-16-28-11-28-8-26 0-25 6-24 12"/>
<path d="M1847 9908l-1-2-7 25-4 26-5 31-4 25-3 24-6 31-4 28-2 29 6 23 20 14"/>
<path d="M2040 9888l 0 0 2 27 3 24 3 25 2 25-1 32-2 29-4 29-5 24-3 27"/>
<path d="M2252 9906l-2 1-16 19-7 25-5 26 4 26 12 26 16 19 18 16 25 12 30 4 26-3 26-8 26-11 26-18 18-23 12-23 4-24-12-23-25-17-24-5-29-3-30-1-29 2-25 3-29 7-24 6-24 9"/>
<path d="M2775 9829l 0 0-4 26-1 25-2 29 1 26 1 27-1 26-2 27 0 26-3 24"/>
<path d="M1790 10481l 0-1 6-23 5 27-3 25-3 30-7 26-3 27-4 28-8 28-2 25 5 24 15 19"/>
<path d="M2006 10490l-2 1-16 20-11 22-9 24 0 25 7 24 7 25 14 21 20 18 26 9 26-5 22-14 19-18 14-24 4-30-3-24-8-27-12-24-18-19-21-16-23-9-25-1-24 10-13 24"/>
<path d="M2383 10435l 0 0-6 26-5 24-2 26 2 24-3 26 4 27-7 23"/>
<path d="M2746 10390l-1 0 5 27-9 25 1 24-1 25 2 25 1 25 4 27 0 26"/>
<path d="M1799 11101l-1-1-25-5-16 20-10 25-8 28-4 25 1 27 2 24 8 26 14 21 18 17 23 13 29 5 27-1 27-6 28-10 21-14 15-20 13-26 7-28-2-28-5-24-14-26-18-17-22-13-28-7-28-1-27 5-23 10-10 24"/>
<path d="M2132 11104l-1 0-2 27-3 25 1 25 0 28 1 28-1 26 0 24 0 25"/>
<path d="M2416 11057l 2 0 0 25-4 27-1 24-1 26-1 27 0 25-2 27-3 25 2 25"/>
<path d="M2738 11014l 0-1-26 6-15 25-8 26-8 26-2 25 1 24 6 27 16 22 19 17 26 5 26-4 23-9 24-16 19-15 21-20 14-26 6-25 1-25-14-23-23-19-23-12-22-9-24-9-25-4-28 5"/>
<path d="M1797 11690l 0-1-3 28-5 28-3 25-4 25-3 28-5 28-4 26-6 24-3 26"/>
<path d="M2093 11681l 0 0 8 25-6 24-2 26-7 26-10 23-4 27-5 26-5 26"/>
<path d="M2322 11654l-1 1-16 20-6 24-4 27 0 27 7 24 12 22 25 9 24 4 24-2 24-5 24-7 21-14 22-17 12-23 12-22 2-25-12-26-20-19-24-16-25-11-26-1-25 7-17 18"/>
<path d="M2727 11577l 1-1-24 9-14 23-5 26-4 25-1 29 2 28 9 23 9 24 22 14 23 11 26-1 26-8 22-10 21-15 16-19 10-23 7-26 4-29 1-24-7-26-15-21-21-17-23-10-24-5-25 2-22 15-22 12"/>
<path d="M1781 12197l 1-1 5 25-6 30-8 29-6 24-6 29-8 26-8 27-8 27-4 24 21 11"/>
<path d="M1972 12276l-2 2-18 18-10 22 3 25 7 25 14 24 20 16 22 8 27-3 20-16 18-18 16-18 12-23 2-26-4-29-17-18-19-16-24-7-25 5-20 17"/>
<path d="M2369 12211l 0 0-25 5-17 19-13 21-9 23-7 28-2 24 5 25 10 22 22 13 24 7 24-3 24-14 23-14 17-22 18-17 8-23-4-27-12-23-19-21-18-19-25-9-24-1"/>
<path d="M2729 12134l 0-1-2 25-4 28-4 25 1 28-1 26 1 27 1 25 0 26"/>
<path d="M1719 12836l 0 0-24 4-17 17-4 26-3 29-6 28 2 27 6 26 7 26 12 21 16 25 18 18 22 14 23 10 25 0 25-8 22-15 21-20 16-25 15-27 10-26 6-26-6-26-13-22-15-23-19-17-22-14-22-12-25-4-28-1-22 12-5 23"/>
<path d="M2069 12868l-1-1-25 1-22 16-15 23-7 28-3 27 6 23 12 23 19 16 24 15 25 1 27-7 26-11 23-20 20-20 15-21 8-25-2-26-16-22-21-18-20-14-21-13-24-5"/>
<path d="M2484 12768l-1 0-4 24-3 28 0 28 0 25 0 25 0 24-3 24 6 27 2 27"/>
<path d="M2769 12771l-1-1-24 3-14 24-8 23-8 25-4 25-1 28 8 26 13 24 16 18 25 3 24-7 22-12 21-20 15-23 15-25 9-26 1-26-8-24-15-22-20-18-24-16-22-14-25-1"/>
<path d="M1825 13432l 0-1-24 3-21 16-16 23-8 25-5 23-1 26 5 25 13 21 17 18 24 13 28 2 29 1 26-7 25-12 22-12 16-18 11-22 3-26-5-25-16-22-22-15-24-11-25-6-27-1-18 18"/>
<path d="M2178 13403l-1 1-8 22-5 25-3 25 3 25-1 27-2 28-3 24-7 24"/>
<path d="M2433 13402l 0-1-24 6-18 22-8 24-8 26 0 28 5 28 17 19 21 13 25 9 25-1 26-9 25-14 19-20 15-21 8-28-4-26-10-26-17-19-24-11-24-10-24-1-23 10-18 19"/>
<path d="M2796 13337l-1 0-2 25-2 28 0 24-2 24-1 29-1 29 0 27-2 27-3 26-5 24"/>
<path d="M1899 13899l 0-2-12 26-8 24-10 27-11 27-9 23-12 30-9 27-9 26"/>
<path d="M2075 13929l 0-1-14 22-9 24-6 24-1 24 8 24 14 20 23 11 27 0 24-12 23-14 19-20 15-21-4-26-18-19-18-20-19-17-25-8-26 3-12 21"/>
<path d="M2468 13881l 0 0-5 26-4 24-5 28-5 25-8 29-9 24-11 24-7 26"/>
<path d="M2716 13917l-1 2-23 15-16 19-12 25-5 25-2 25 7 30 9 23 14 21 19 22 24 16 24 7 25 0 28-8 20-18 20-18 14-25 10-27 3-24-8-27-9-25-10-23-15-21-23-19-24-6-24-3-28 3-24 9"/>
<path d="M1775 14658l 1-1 5-23-9-24-17 18-8 27-8 25-3 24 3 27 9 25 24 13 23 6 27-1 22-11 23-10 25-16 20-17 17-22 11-23 7-27 2-25-8-24-22-17-27-9-25-1-27 3-29 6-23 10-23 9-13 21 18 20"/>
<path d="M2133 14496l-1-1-13 21-5 25-6 25-7 25-6 28-4 26-5 27-5 25"/>
<path d="M2282 14553l 1 0-9 23-8 24-3 25-4 25 11 25 20 15 23 10 24-2 27-6 21-16 18-23 12-22 12-23 5-26-8-25-17-18-23-8-23-5-27 2-25 11-25 9-15 19"/>
<path d="M2676 14512l 0-1-23-10-24 3-20 15-10 23-11 22-4 28-3 27 9 25 16 19 22 13 25 8 28 0 25-4 25-7 22-11 22-15 17-18 14-23 15-24-5-25-16-21-18-20-19-17-21-12-25-8-25-5-24 6-22 14"/>
<path d="M1826 15090l 0-1 9-22-2 28-6 25-7 26-8 27-6 25-7 26-8 25-5 27-8 25-8 24-3 24"/>
<path d="M2019 15142l-1-2-20 14-11 22-10 24-4 26 5 26 10 23 23 12 25 2 27-5 23-12 19-22 16-20 11-23 5-26-5-24-15-23-18-16-23-12-27-1-25 0-7 24"/>
<path d="M2322 15100l-2-1-23 11-20 20-9 24-6 28-6 26 4 28 6 26 14 21 16 18 24 3 26 1 25-7 22-12 22-18 20-21 14-23 10-23-6-27-18-16-22-16-25-12-22-12-26-3"/>
<path d="M2770 15058l-2 0-25 0-18 19-13 21-11 27-9 22-4 28 1 28 12 24 19 17 23 14 24 7 24-3 27-2 24-13 21-15 13-20 11-22 0-26-6-24-14-23-16-19-23-12-23-12-22-11-24 2-19 18"/>
</svg>
