<svg xmlns="http://www.w3.org/2000/svg" viewBox="1769 4700 4646 2310" stroke="black" stroke-width="16" stroke-linecap="round" stroke-linejoin="round" fill="none" data-xena="0 0 0"><style>@media(prefers-color-scheme:dark){svg{background-color:black;stroke:white;}}</style>
<path d="M3121 5025l 0 1 1 24-3 27-3 28-3 25-1 26 2 24 1 25-2-26 3-28 6-25 4-27 7-26 8-23 12-27 11-28 14-27 13-21 17-23 18-22 18-19 16-19 19-19 20-18 19-15 24-9 26 5 14 21 11 22 9 26 8 25 8 25 5 26 5 29 1 27 0 24-2 28 2 25 0 28 4 25 22 13"/>
<path d="M3379 5618l-2-1"/>
<path d="M3384 6279l 0-1"/>
<path d="M3370 6903l-2-1"/>
<path d="M4914 4927l 0-2 17 19 4 30 2 27-1 29-2 29-2 28-4 26-5 28-7 23-13-21-4-27 0-27 1-28 4-28 6-28 6-24 12-27 15-24 17-18 22-13 26 1 25 16 17 25 11 25 9 27 7 26 4 25 4 24 24 7 17-25 15-25 18-29 19-30 20-28 20-25 21-19 22-21 20-15 25 2 18 22 10 25 9 28 6 26 6 29 5 31 2 32 1 34 0 24-1 34 0 33-2 29 0 29 0 26"/>
<path d="M5097 5667l-1 0"/>
<path d="M5086 6342l-2 0"/>
<path d="M3533 5665l 0-1 24 2 29 1 32-3 28-4 28-5 31-5 31-5 31-3 32-3 29-1 34-1 33-2 35-2 35-3 26-1 27 0 25-1 28-1 28-1 26 0 25 0 26 0 26 0 26 0 26 1 35 2 32 3 32 2 31 0 29 0 27 1 25 1 25 0 27 0 26-1 27 0 25 0 25-1 29-1 28 0 25 2 30 1 26 0 27 1 25-1 26-4 25 6"/>
<path d="M3542 5790l 0-1 23-7 23 9 27 13 23 13 23 11 25 10 23 10 27 9 29 9 29 10 30 12 22 9 25 8 25 8 25 9 28 12 25 8 27 9 30 9 28 7 28 8 29 7 28 8 29 7 29 8 28 8 28 10 28 11 27 11 26 11 26 12 26 12 24 11 23 13 24 12 25 13 27 12 28 13 27 13 28 11 25 11 24 12 23 13 23 12 23 11 23 10 23 8 23 9 27 12 24 10 25 12 25 9 26 6 23 6"/>
<path d="M3529 6289l-1-1 23-14 22-11 22-10 27-14 23-11 24-13 26-15 27-14 30-14 30-16 32-16 31-18 22-10 22-12 21-11 22-11 31-17 21-11 30-15 32-14 31-15 30-13 29-12 27-12 27-11 29-11 27-11 28-11 24-9 26-11 25-10 23-8 27-12 27-11 27-13 27-12 28-13 22-10 26-11 25-9 24-11 23-11 23-8 28-9 27-7 25-7 27-8 26-7 22-11 23-12 22-11"/>
<path d="M3487 6896l 0-1 5-25 17-18 21-17 21-18 24-20 19-17 20-17 24-17 24-19 28-20 28-24 22-16 23-16 23-17 25-17 26-18 26-18 28-17 26-16 27-17 26-16 27-16 28-16 26-15 26-15 24-15 24-15 21-14 21-14 21-13 20-15 24-13 19-15 27-22 24-20 24-19 24-19 25-18 23-19 21-19 20-19 20-18 20-18 21-17 19-17 19-16 19-18 19-16 19-16 24-19 22-20 22-17 21-14 21-16 19-16 20-16 21-17 19-15 23-18 21-15 20-16 18-19 21-17 20-18 19-15 15-20"/>
<path d="M1906 6309l-1 0-8-24-18 19-6 25"/>
<path d="M6304 6432l-1-1 3-24 6-23-22-10-13 21 8 23"/>
<path d="M5282 5802l 0 0 24 5 24 11 24 13 26 16 20 15 22 16 24 19 26 22 18 16 20 15 20 16 20 16 21 17 22 17 23 15 25 15 26 14 26 13 26 14 26 13 26 12 25 12 25 10 23 13 23 12 21 13 30 18 28 19 27 17 24 18 21 17 24 20 19 16 20 16 20 16"/>
<path d="M5316 6377l-1-1 28-7 25-1 31 0 30 1 35-1 26 0 28 0 28-2 29 0 30 1 29-1 31 3 30 0 32 3 31 2 31 2 31 2 30 1 29 1 29 2 27 2 26 2 26 4 24 2 32 5 27 3 30 6 27 4 24 2"/>
<path d="M3138 5718l 0-1-28 10-27 16-25 14-29 18-32 18-23 13-23 13-27 16-28 15-31 16-31 15-34 15-34 15-34 16-34 15-34 15-35 15-35 16-35 16-35 16-34 18-35 16-32 16-31 16-30 14-26 14-28 14-24 13-22 11-30 16-23 11-22 13-21 13"/>
<path d="M2111 6370l 0 0 26-3 24-2 26-3 32-4 28-3 34-4 24-2 26-3 28-4 29-4 30-4 31-6 32-2 34-5 36-4 36-4 36-4 36-4 35-3 35-3 33-3 34-3 32-3 32-2 33-1 28-1 25-1 25 0 31-1 30 0 27 0 27 3 23 9"/>
<path d="M2071 6504l 0-1 24-4 24 2 28 4 29 4 24 3 26 3 31 6 25 7 27 7 27 8 30 10 31 11 31 10 30 10 31 11 30 12 31 12 31 10 29 12 26 14 24 14 24 13 24 11 23 11 22 11 28 10 27 10 27 10 27 9 24 8 26 6 23 9 24 8 21 12 17 17 21 13 22 12"/>
<path d="M5713 5752l-1-2-14-21-3 25 1 26 2 29 3 29 4 29"/>
<path d="M5669 6460l 0 0-8 23 0 24-1 24 1 26 3 25"/>
<path d="M2577 5701l 0-1-8 24-1 25 2 28 5 24 8 26"/>
<path d="M2840 6104l-1 0-5 25 8 25"/>
<path d="M2608 6722l 0 0 5 25 2 28 0 25-2 27-1 28"/>
</svg>
