<svg xmlns="http://www.w3.org/2000/svg" viewBox="2763 4001 5139 6534" stroke="black" stroke-width="16" stroke-linecap="round" stroke-linejoin="round" fill="none" data-xena="0 0 0"><style>@media(prefers-color-scheme:dark){svg{background-color:black;stroke:white;}}</style>
<path d="M3045 6641l-1 0-4-24 4-26 9-23 8-22 11-25 15-27 19-25 18-20 18-25 20-26 22-27 16-19 16-20 19-21 20-21 21-21 22-20 22-20 20-20 24-19 22-18 23-17 21-18 22-16 25-16 26-15 30-13 28-13 26-12 25-10 23-8 24-7 24-7 24-5 26-3 25-3 25-2 24-1 36 1 24 2 35 4 34 8 31 14 31 14 29 17 24 17 25 19 23 20 24 21 20 22 18 19 19 21 19 21 17 21 17 18 18 18 16 20 14 24 15 22"/>
<path d="M4153 6342l 0-1 25 6 25 15 20 13 25 15 22 13 20 15 23 10 24 11 24 7 27 3 21-12 14-26 6-27 3-25 0-25 0-25-6-25-11-25"/>
<path d="M3071 6501l 1-1-19-16-18-17-11-23-5-26-1-30 2-24 6-27 3-31 6-28 6-23 7-27 6-31 9-32 7-33 6-24 6-25 9-27 8-28 8-28 11-31 9-29 11-28 13-28 14-25 15-27 16-25 17-26 19-27 21-26 22-26 22-27 25-28 27-28 30-28 31-25 30-26 31-24 31-22 32-23 31-21 29-21 29-19 29-19 28-17 29-17 30-16 30-16 30-15 31-15 30-13 32-13 30-12 30-13 29-9 32-10 31-8 33-7 30-5 29-2 29 0 28 2 29 3 30 4 28 5 26 7 28 8 28 8 28 10 31 10 28 11 32 11 30 12 32 13 31 12 31 15 30 17 28 15 28 16 27 18 27 16 25 18 22 19 21 20 20 21 18 22 17 23 16 24 15 27 13 26 14 26 13 27 13 27 12 29 13 27 14 28 12 29 12 26 12 26 9 25 10 24 9 23 12 32 12 28 10 28 8 28 6 27 5 27 6 26 5 30 5 26 5 27 5 25 1 26 4 26 3 25 0 26"/>
<path d="M5025 6274l 0 0 8 26 14 24 14 20 16 22 19 18 20 16 23 7 26-4 23-18 19-20 19-24 16-28 12-28 9-23 7-26 3-26-3-25"/>
<path d="M3024 6436l-2-2-15-21-10-22-9-23-7-27-2-29-2-28 1-27-1-28 0-32-1-35 0-25 1-25 1-26 1-27 1-27 2-28 2-28 4-28 3-29 7-29 6-30 6-31 8-28 7-30 9-30 10-31 13-33 13-35 14-36 13-38 13-41 16-40 15-40 16-43 17-40 17-44 19-42 18-39 21-38 19-37 20-35 19-35 21-35 22-34 23-35 27-33 28-36 32-36 33-37 16-18 18-19 18-19 19-17 18-18 18-18 19-19 18-16 19-18 19-15 19-17 21-16 19-15 19-15 22-14 21-15 21-15 21-14 22-14 22-14 25-14 23-14 24-14 24-13 24-12 24-13 24-13 25-13 21-13 26-11 24-12 26-12 24-12 26-12 26-11 25-11 27-10 26-11 26-11 26-10 27-10 28-10 27-10 30-9 28-8 29-9 28-8 29-9 28-8 27-8 28-7 28-7 25-9 28-6 26-6 26-6 25-4 25-5 25-4 25-4 24-5 25-3 25-4 26-2 25-3 25-3 27-2 26-2 26-2 26-2 26-1 26-1 25 0 26 0 25 1 24 0 26 3 24 2 25 2 24 2 25 3 48 7 24 4 47 9 46 10 45 10 45 12 45 13 23 7 45 13 44 14 24 8 45 15 46 16 23 8 43 18 44 17 43 18 41 19 41 21 40 22 38 25 38 25 38 25 38 25 37 25 37 28 38 29 35 31 17 17 35 32 34 35 17 17 17 18 32 36 16 18 16 18 15 19 16 19 15 20 30 38 16 19 14 20 14 20 16 19 28 37 16 20 28 39 29 38 27 40 13 20 25 40 25 39 12 21 12 21 12 22 12 22 11 23 12 23 11 24 11 23 10 22 11 22 10 22 10 22 9 23 9 24 20 43 9 22 9 23 10 22 18 43 18 42 16 41 17 41 16 40 15 39 15 36 15 34 12 32 13 34 13 33 12 33 10 32 10 29 11 31 9 30 8 28 8 26 7 25 8 25 7 24 10 33 9 28 8 29 7 25 5 23 5 25-6-26-8-26"/>
<path d="M7342 6416l 0 0 20 14 21 16 20 18 21 21 17 17 21 18 22 12 23 9 27 4 24-12 20-12 22-22 18-21 16-23 15-24 13-23 10-23 9-24 9-24 7-24"/>
<path d="M2918 6854l-2-1-24 6-19 18-7 26 2 27 14 21 21 14 26 7 31-2 27-7 28-13 21-13 22-22 12-24-1-27-19-24-26-19-22-12-26-11-30-8-29-2-28 2"/>
<path d="M4063 6802l 1-1 23 8 10 22 5 24 6 25 3 26-3 27-2 26"/>
<path d="M5132 6659l-1 2 26 6 28 5 25 8 22 12 11 23-10 24-18 20-19 19-22 20-17 20-16 18-16 18 18 19 25 6 28 6 25 3 28 4 29 3 30 6"/>
<path d="M7567 6729l-1-1 26-10 25-5 29-5 25-3 29-6"/>
<path d="M7606 6731l-2 1-24 13-19 16-16 19-14 24-6 23 17 21 27 6 29 0 24 1 29 1 28 1 28 4 26 5 25 6 23 12 17 19-4 24-18 20-21 17-23 12-23 8-28 5-27-5-24-8-22-12-19-19-21-15"/>
<path d="M6059 6455l 0-2"/>
<path d="M6599 6422l 0-1"/>
<path d="M4380 6936l 0-1-3 28-7 27-7 32-9 27-7 31-12 32-6 25-8 24-9 25-6 26-9 26-8 27-8 27-8 27-8 30-10 30-11 32-12 34-13 36-12 36-11 40-13 42-12 44-7 24-4 26-8 25-7 25-7 25-7 26-7 26-7 26-7 26-8 24-7 25-7 25-6 25-6 25-10 47-9 46-9 44-7 44-7 45-7 43-7 43-7 41-7 43-5 42-5 43-5 45-3 45-6 47-6 47-3 25-2 24-4 25-4 25-3 24-5 25-3 26-4 26-4 25-5 24-8 47-7 44-8 45-6 43-7 40-7 40-7 38-5 38-6 37-5 34-7 35-5 32-5 33-5 33-3 32-5 32-4 31-5 30-5 28-4 26-3 24-4 33-4 31-4 26-3 30-1 28-2 25-6-26"/>
<path d="M3696 9755l-1 0 9 25 12 22 12 23 12 22 24 4 16-25 14-23 12-24 11-24 9-25 13-21"/>
<path d="M3587 10164l-1-1-24 7-11 21-7 27-6 29-6 28-3 31 3 31 3 28 7 29 16 21 23 12 24-1 20-14 3-25-14-21-17-17-26 0-15 19-13 22"/>
<path d="M5414 6307l 0-1-2-25 16-21 18-18 21-18 20-18 20-19 19-17 20-17 19-16 23-16 21-18 25-14 22-11 22-11 23-11 26-11 25-10 24-7 26-9 24-4 24 1 24 9 22 17 17 17 14 22 10 22 8 25 7 24 5 24 8 24 13 21 20 15"/>
<path d="M5918 6233l-1 0 4 24 15 19 19 18 23 11 24-8 18-21 12-23 8-28 8-28 9-28 7-24 5-27 10-24"/>
<path d="M5975 6711l-1-2-13-20 21-13 23-10 25-3 24 3 8 23-20 16-22 13-21 13-22 11 25 8 25 2 24 9 14 21-3 27-13 22-19 18-24 10-25 4-25-1-24-7"/>
<path d="M6555 6611l 0 0-20 15-16 18-19 20-15 23-3 25 15 21 24 7 24 1 24-4 28-3 28-6 25-3 26-7 24-6"/>
<path d="M6619 6635l-1 0-14 20-5 28 0 25 0 27 3 30 4 27 2 25 3 24 3 27"/>
<path d="M5337 6121l 0-1 10-22 10-24 15-22 12-23 11-22 14-23 14-21 18-20 16-20 20-19 19-20 19-21 17-21 17-17 17-18 16-18 21-18 22-14 22-14 21-14 21-12 21-14 21-12 23-13 23-11 24-11 23-8 24-6 24-7 25-8 27-4 26-4 25-2 25-1 28-3 29-1 24 1 30 1 26 1 26 0 25 2 26 7 24 7 25 9 22 11 22 13 21 17 17 17 18 21 15 22 14 21 14 23 13 22 12 25 8 27 8 26 9 25 12 23 9 24 8 25 9 25 7 26 5 26 3 24 7 24 6 25 3 25 5 23"/>
<path d="M6400 6161l 1-2 21 12 20 17 20 12 21 16 21 14 25 3 22-15 16-22 13-21 13-21 11-23 10-25 9-25 6-24"/>
<path d="M5827 6648l-1 0-17 17-15 25-17 23-17 23-20 23-16 22-16 24-19 25-18 23-16 22-15 22-14 21-13 22-13 22-12 22-13 25-12 25-13 26-14 27-13 26-16 26-16 29-17 26-19 27-21 28-14 22-15 22-14 22-14 20-21 28-19 27-20 29-15 20-14 20-15 20-14 20-19 29-20 29-19 29-19 27-19 26-19 26-19 27-20 26-19 27-22 29-24 28-15 19-18 20-17 22-18 19-18 20-18 20-19 20-16 20-18 20-17 19-17 20-17 20-16 20-15 20-15 20-16 21-16 20-18 23-16 21-17 21-17 24-16 24-17 24-17 23-18 24-17 23-18 24-18 23-17 23-18 23-17 22-17 21-16 21-16 20-21 28-17 27-16 26-14 26-14 24-14 23-13 24-12 24-11 25-11 24-11 23-14 23-12 24-11 25-11 22-10 23-8 23-11 26-13 24-10 25-10 27-10 27-10 25-10 29-12 22-12 26-10 22-11 21-7 24-11 22-11 22-13 21-12 26-11 24-10 22-13 20-7 24-8 23-7 25-8 23-11 24-13 20"/>
<path d="M3931 9370l-1 0 4 27-2 26-2 25-1 25-1 24-2 28 2 24 20 13 22-11 23-8 23-12 23-14 22-13 25-14 22-12"/>
<path d="M6442 6635l 0-1 4-24-15 24-10 23-12 26-13 25-11 22-11 25-15 26-12 23-14 24-14 24-14 21-14 21-13 21-14 21-17 25-13 20-15 21-13 24-15 20-16 19-16 21-16 21-15 22-14 21-13 20-13 21-14 21-14 21-15 22-14 22-15 23-14 23-14 22-16 22-16 21-15 22-16 20-13 21-14 22-13 23-13 21-16 26-18 26-19 26-14 20-14 20-18 20-17 20-20 23-20 22-22 25-23 25-21 25-21 24-21 23-20 25-19 23-20 23-20 22-19 26-21 24-20 25-21 25-21 27-20 26-22 25-20 26-20 27-21 25-20 23-19 27-18 28-13 21-19 29-21 28-19 27-22 26-14 20-15 19-16 20-16 21-17 20-17 21-18 21-18 21-19 21-18 19-18 20-18 18-17 18-23 25-21 24-19 23-19 23-20 24-19 22-18 22-18 23-19 23-21 21-21 22-20 20-19 21-18 20-20 19-18 19-18 25-21 22-20 22-22 22-23 21-22 19-23 21-18 17-21 20-21 19-19 20-19 22-16 19-17 21-17 17-16 22-16 21-16 21-16 22-14 21-14 20-18 19-16 21-15 20"/>
<path d="M4190 9357l 0-1-7 25-2 27-4 29-7 27-3 26-4 27-5 26 1 25 1 24 22 8 22-14 19-15 21-14 22-8 25-3"/>
<path d="M7297 6801l-1 0-16 20-10 24-9 23-10 23-10 22-11 25-13 22-12 22-13 23-13 23-17 24-17 25-18 25-16 20-16 22-18 23-22 22-22 20-19 21-22 21-23 23-25 23-17 18-19 15-27 22-27 23-18 16-18 16-19 17-19 16-18 16-20 17-21 16-21 16-20 17-21 15-21 16-21 15-21 15-21 13-22 16-21 15-21 14-21 15-22 14-24 13-23 13-24 14-23 13-24 11-23 11-24 12-23 11-24 12-23 12-23 12-33 13-32 11-32 9-32 8-31 7-32 6-34 3-34 2-32 1-31-1-28-2-27-3-26-6-24-7-23-6-30-12-23-11-22-11-28-16-20-13-23-20-22-20-23-18-19-18-18-17-18-19-15-19-17-17-19-17-20-22-16-19-17-17-15-19-14-20-17-21-16-21-14-22-15-23-14-22-13-22-9-26-11-23-14-24-10-27-9-23-10-23-10-25-11-22-16-22-15-19-15-20-4-24-4-25-13 22-15 21-15 23-12 26-10 23 19-21 17-19 17-18 18-17 17-17 19-15 19-17 19-16 17 19 13 22 16 19 18 16 21 13 18 17"/>
</svg>
