<svg xmlns="http://www.w3.org/2000/svg" viewBox="2763 -2566 6522 13101" stroke="black" stroke-width="16" stroke-linecap="round" stroke-linejoin="round" fill="none" data-xena="-1 3 0"><style>@media(prefers-color-scheme:dark){svg{background-color:black;stroke:white;}}</style>
<path d="M3045 6641l-1 0-4-24 4-26 9-23 8-22 11-25 15-27 19-25 18-20 18-25 20-26 22-27 16-19 16-20 19-21 20-21 21-21 22-20 22-20 20-20 24-19 22-18 23-17 21-18 22-16 25-16 26-15 30-13 28-13 26-12 25-10 23-8 24-7 24-7 24-5 26-3 25-3 25-2 24-1 36 1 24 2 35 4 34 8 31 14 31 14 29 17 24 17 25 19 23 20 24 21 20 22 18 19 19 21 19 21 17 21 17 18 18 18 16 20 14 24 15 22"/>
<path d="M4153 6342l 0-1 25 6 25 15 20 13 25 15 22 13 20 15 23 10 24 11 24 7 27 3 21-12 14-26 6-27 3-25 0-25 0-25-6-25-11-25"/>
<path d="M3071 6501l 1-1-19-16-18-17-11-23-5-26-1-30 2-24 6-27 3-31 6-28 6-23 7-27 6-31 9-32 7-33 6-24 6-25 9-27 8-28 8-28 11-31 9-29 11-28 13-28 14-25 15-27 16-25 17-26 19-27 21-26 22-26 22-27 25-28 27-28 30-28 31-25 30-26 31-24 31-22 32-23 31-21 29-21 29-19 29-19 28-17 29-17 30-16 30-16 30-15 31-15 30-13 32-13 30-12 30-13 29-9 32-10 31-8 33-7 30-5 29-2 29 0 28 2 29 3 30 4 28 5 26 7 28 8 28 8 28 10 31 10 28 11 32 11 30 12 32 13 31 12 31 15 30 17 28 15 28 16 27 18 27 16 25 18 22 19 21 20 20 21 18 22 17 23 16 24 15 27 13 26 14 26 13 27 13 27 12 29 13 27 14 28 12 29 12 26 12 26 9 25 10 24 9 23 12 32 12 28 10 28 8 28 6 27 5 27 6 26 5 30 5 26 5 27 5 25 1 26 4 26 3 25 0 26"/>
<path d="M5025 6274l 0 0 8 26 14 24 14 20 16 22 19 18 20 16 23 7 26-4 23-18 19-20 19-24 16-28 12-28 9-23 7-26 3-26-3-25"/>
<path d="M3024 6436l-2-2-15-21-10-22-9-23-7-27-2-29-2-28 1-27-1-28 0-32-1-35 0-25 1-25 1-26 1-27 1-27 2-28 2-28 4-28 3-29 7-29 6-30 6-31 8-28 7-30 9-30 10-31 13-33 13-35 14-36 13-38 13-41 16-40 15-40 16-43 17-40 17-44 19-42 18-39 21-38 19-37 20-35 19-35 21-35 22-34 23-35 27-33 28-36 32-36 33-37 16-18 18-19 18-19 19-17 18-18 18-18 19-19 18-16 19-18 19-15 19-17 21-16 19-15 19-15 22-14 21-15 21-15 21-14 22-14 22-14 25-14 23-14 24-14 24-13 24-12 24-13 24-13 25-13 21-13 26-11 24-12 26-12 24-12 26-12 26-11 25-11 27-10 26-11 26-11 26-10 27-10 28-10 27-10 30-9 28-8 29-9 28-8 29-9 28-8 27-8 28-7 28-7 25-9 28-6 26-6 26-6 25-4 25-5 25-4 25-4 24-5 25-3 25-4 26-2 25-3 25-3 27-2 26-2 26-2 26-2 26-1 26-1 25 0 26 0 25 1 24 0 26 3 24 2 25 2 24 2 25 3 48 7 24 4 47 9 46 10 45 10 45 12 45 13 23 7 45 13 44 14 24 8 45 15 46 16 23 8 43 18 44 17 43 18 41 19 41 21 40 22 38 25 38 25 38 25 38 25 37 25 37 28 38 29 35 31 17 17 35 32 34 35 17 17 17 18 32 36 16 18 16 18 15 19 16 19 15 20 30 38 16 19 14 20 14 20 16 19 28 37 16 20 28 39 29 38 27 40 13 20 25 40 25 39 12 21 12 21 12 22 12 22 11 23 12 23 11 24 11 23 10 22 11 22 10 22 10 22 9 23 9 24 20 43 9 22 9 23 10 22 18 43 18 42 16 41 17 41 16 40 15 39 15 36 15 34 12 32 13 34 13 33 12 33 10 32 10 29 11 31 9 30 8 28 8 26 7 25 8 25 7 24 10 33 9 28 8 29 7 25 5 23 5 25-6-26-8-26"/>
<path d="M7342 6416l 0 0 20 14 21 16 20 18 21 21 17 17 21 18 22 12 23 9 27 4 24-12 20-12 22-22 18-21 16-23 15-24 13-23 10-23 9-24 9-24 7-24"/>
<path d="M2918 6854l-2-1-24 6-19 18-7 26 2 27 14 21 21 14 26 7 31-2 27-7 28-13 21-13 22-22 12-24-1-27-19-24-26-19-22-12-26-11-30-8-29-2-28 2"/>
<path d="M4063 6802l 1-1 23 8 10 22 5 24 6 25 3 26-3 27-2 26"/>
<path d="M5132 6659l-1 2 26 6 28 5 25 8 22 12 11 23-10 24-18 20-19 19-22 20-17 20-16 18-16 18 18 19 25 6 28 6 25 3 28 4 29 3 30 6"/>
<path d="M7567 6729l-1-1 26-10 25-5 29-5 25-3 29-6"/>
<path d="M7606 6731l-2 1-24 13-19 16-16 19-14 24-6 23 17 21 27 6 29 0 24 1 29 1 28 1 28 4 26 5 25 6 23 12 17 19-4 24-18 20-21 17-23 12-23 8-28 5-27-5-24-8-22-12-19-19-21-15"/>
<path d="M6059 6455l 0-2"/>
<path d="M6599 6422l 0-1"/>
<path d="M4380 6936l 0-1-3 28-7 27-7 32-9 27-7 31-12 32-6 25-8 24-9 25-6 26-9 26-8 27-8 27-8 27-8 30-10 30-11 32-12 34-13 36-12 36-11 40-13 42-12 44-7 24-4 26-8 25-7 25-7 25-7 26-7 26-7 26-7 26-8 24-7 25-7 25-6 25-6 25-10 47-9 46-9 44-7 44-7 45-7 43-7 43-7 41-7 43-5 42-5 43-5 45-3 45-6 47-6 47-3 25-2 24-4 25-4 25-3 24-5 25-3 26-4 26-4 25-5 24-8 47-7 44-8 45-6 43-7 40-7 40-7 38-5 38-6 37-5 34-7 35-5 32-5 33-5 33-3 32-5 32-4 31-5 30-5 28-4 26-3 24-4 33-4 31-4 26-3 30-1 28-2 25-6-26"/>
<path d="M3696 9755l-1 0 9 25 12 22 12 23 12 22 24 4 16-25 14-23 12-24 11-24 9-25 13-21"/>
<path d="M3587 10164l-1-1-24 7-11 21-7 27-6 29-6 28-3 31 3 31 3 28 7 29 16 21 23 12 24-1 20-14 3-25-14-21-17-17-26 0-15 19-13 22"/>
<path d="M5414 6307l 0-1-2-25 16-21 18-18 21-18 20-18 20-19 19-17 20-17 19-16 23-16 21-18 25-14 22-11 22-11 23-11 26-11 25-10 24-7 26-9 24-4 24 1 24 9 22 17 17 17 14 22 10 22 8 25 7 24 5 24 8 24 13 21 20 15"/>
<path d="M5918 6233l-1 0 4 24 15 19 19 18 23 11 24-8 18-21 12-23 8-28 8-28 9-28 7-24 5-27 10-24"/>
<path d="M5975 6711l-1-2-13-20 21-13 23-10 25-3 24 3 8 23-20 16-22 13-21 13-22 11 25 8 25 2 24 9 14 21-3 27-13 22-19 18-24 10-25 4-25-1-24-7"/>
<path d="M6555 6611l 0 0-20 15-16 18-19 20-15 23-3 25 15 21 24 7 24 1 24-4 28-3 28-6 25-3 26-7 24-6"/>
<path d="M6619 6635l-1 0-14 20-5 28 0 25 0 27 3 30 4 27 2 25 3 24 3 27"/>
<path d="M5337 6121l 0-1 10-22 10-24 15-22 12-23 11-22 14-23 14-21 18-20 16-20 20-19 19-20 19-21 17-21 17-17 17-18 16-18 21-18 22-14 22-14 21-14 21-12 21-14 21-12 23-13 23-11 24-11 23-8 24-6 24-7 25-8 27-4 26-4 25-2 25-1 28-3 29-1 24 1 30 1 26 1 26 0 25 2 26 7 24 7 25 9 22 11 22 13 21 17 17 17 18 21 15 22 14 21 14 23 13 22 12 25 8 27 8 26 9 25 12 23 9 24 8 25 9 25 7 26 5 26 3 24 7 24 6 25 3 25 5 23"/>
<path d="M6400 6161l 1-2 21 12 20 17 20 12 21 16 21 14 25 3 22-15 16-22 13-21 13-21 11-23 10-25 9-25 6-24"/>
<path d="M5827 6648l-1 0-17 17-15 25-17 23-17 23-20 23-16 22-16 24-19 25-18 23-16 22-15 22-14 21-13 22-13 22-12 22-13 25-12 25-13 26-14 27-13 26-16 26-16 29-17 26-19 27-21 28-14 22-15 22-14 22-14 20-21 28-19 27-20 29-15 20-14 20-15 20-14 20-19 29-20 29-19 29-19 27-19 26-19 26-19 27-20 26-19 27-22 29-24 28-15 19-18 20-17 22-18 19-18 20-18 20-19 20-16 20-18 20-17 19-17 20-17 20-16 20-15 20-15 20-16 21-16 20-18 23-16 21-17 21-17 24-16 24-17 24-17 23-18 24-17 23-18 24-18 23-17 23-18 23-17 22-17 21-16 21-16 20-21 28-17 27-16 26-14 26-14 24-14 23-13 24-12 24-11 25-11 24-11 23-14 23-12 24-11 25-11 22-10 23-8 23-11 26-13 24-10 25-10 27-10 27-10 25-10 29-12 22-12 26-10 22-11 21-7 24-11 22-11 22-13 21-12 26-11 24-10 22-13 20-7 24-8 23-7 25-8 23-11 24-13 20"/>
<path d="M3931 9370l-1 0 4 27-2 26-2 25-1 25-1 24-2 28 2 24 20 13 22-11 23-8 23-12 23-14 22-13 25-14 22-12"/>
<path d="M6442 6635l 0-1 4-24-15 24-10 23-12 26-13 25-11 22-11 25-15 26-12 23-14 24-14 24-14 21-14 21-13 21-14 21-17 25-13 20-15 21-13 24-15 20-16 19-16 21-16 21-15 22-14 21-13 20-13 21-14 21-14 21-15 22-14 22-15 23-14 23-14 22-16 22-16 21-15 22-16 20-13 21-14 22-13 23-13 21-16 26-18 26-19 26-14 20-14 20-18 20-17 20-20 23-20 22-22 25-23 25-21 25-21 24-21 23-20 25-19 23-20 23-20 22-19 26-21 24-20 25-21 25-21 27-20 26-22 25-20 26-20 27-21 25-20 23-19 27-18 28-13 21-19 29-21 28-19 27-22 26-14 20-15 19-16 20-16 21-17 20-17 21-18 21-18 21-19 21-18 19-18 20-18 18-17 18-23 25-21 24-19 23-19 23-20 24-19 22-18 22-18 23-19 23-21 21-21 22-20 20-19 21-18 20-20 19-18 19-18 25-21 22-20 22-22 22-23 21-22 19-23 21-18 17-21 20-21 19-19 20-19 22-16 19-17 21-17 17-16 22-16 21-16 21-16 22-14 21-14 20-18 19-16 21-15 20"/>
<path d="M4190 9357l 0-1-7 25-2 27-4 29-7 27-3 26-4 27-5 26 1 25 1 24 22 8 22-14 19-15 21-14 22-8 25-3"/>
<path d="M7297 6801l-1 0-16 20-10 24-9 23-10 23-10 22-11 25-13 22-12 22-13 23-13 23-17 24-17 25-18 25-16 20-16 22-18 23-22 22-22 20-19 21-22 21-23 23-25 23-17 18-19 15-27 22-27 23-18 16-18 16-19 17-19 16-18 16-20 17-21 16-21 16-20 17-21 15-21 16-21 15-21 15-21 13-22 16-21 15-21 14-21 15-22 14-24 13-23 13-24 14-23 13-24 11-23 11-24 12-23 11-24 12-23 12-23 12-33 13-32 11-32 9-32 8-31 7-32 6-34 3-34 2-32 1-31-1-28-2-27-3-26-6-24-7-23-6-30-12-23-11-22-11-28-16-20-13-23-20-22-20-23-18-19-18-18-17-18-19-15-19-17-17-19-17-20-22-16-19-17-17-15-19-14-20-17-21-16-21-14-22-15-23-14-22-13-22-9-26-11-23-14-24-10-27-9-23-10-23-10-25-11-22-16-22-15-19-15-20-4-24-4-25-13 22-15 21-15 23-12 26-10 23 19-21 17-19 17-18 18-17 17-17 19-15 19-17 19-16 17 19 13 22 16 19 18 16 21 13 18 17"/>
<path d="M8862 -2055l 2-4 12-22 19-19 21-11 2 26-12 24-17 28-15 24-18 29-22 33-26 38-14 21-15 21-15 21-16 22-16 21-15 21-16 20-15 19-28 35-29 34-29 35-30 36-31 37-30 37-28 34-26 35-22 28-16 22 31-3 28-19 35-26 37-30 19-16 19-16 18-16 34-29 30-26 27-26 28-30 32-35 18-21 17-21 18-23 18-21 16-22 16-20 15-20 25-35 19-29 13-22 12-22-25 5-20 15-25 24-30 29-32 33-18 19-19 17-18 17-17 17-34 31-31 29-28 26-28 28-31 32-31 34-32 34-32 35-29 32-23 27-18 21 24-2 26-19 31-25 32-29 31-31 27-29 26-29 21-24 17-23 14-22 12-22 14-25 16-29 19-36 22-41 11-22 11-21 20-41 15-36 10-30 8-31 1-26-22 13-20 21-17 17-16 18-22 24-17 20-13 25-10 25-6 23-8 27-11 29-10 26-13 29-15 31-12 21-16 32-15 28-11 24 25 0 26-15 22-16 24-20 25-22 21-18 24-24 28-26 30-29 31-31 28-29 25-28 21-25 18-21 19-24-23 10-21 21-27 26-30 30-32 34-17 18-18 19-17 17-15 18-16 20-31 35-28 36-28 38-15 20-16 22-16 22-18 24-18 25-19 26-19 26-19 26-19 26-18 26-17 26-19 25-15 23-16 22-12 21-22 37-16 29-10 22-3 27 25 6 32-13 30-19 38-26 21-16 23-19 22-18 24-19 23-20 25-20 22-20 22-20 20-20 19-19 18-17 33-33 32-34 16-19 17-18 16-21 18-21 17-24 17-22 16-22 16-19 23-32 16-23 14-21-29 11-20 15-27 22-34 29-18 17-18 18-19 18-18 17-32 30-26 27-22 23-23 28-30 37-17 22-19 25-20 26-22 27-23 29-20 25-21 26-19 24-16 23-16 20-25 34-15 22-6 24 28-6 22-12 30-19 36-26 18-16 21-17 20-19 19-18 19-16 19-18 18-16 31-32 25-25 19-21 17-22 18-23 23-31 14-21 15-22 16-24 16-25 18-25 16-24 14-24 13-20 20-30 15-26-23 19-21 23-27 34-32 37-15 19-16 19-28 33-25 25-19 27-22 29-26 39-15 22-17 25-17 27-19 27-19 27-18 27-19 26-16 26-17 24-15 23-14 21-20 34-14 25-6 24 29 0 35-19 34-22 20-16 22-18 22-21 24-21 24-22 25-23 24-21 22-22 21-19 21-19 19-19 19-20 18-20 18-25 20-25 20-27 21-29 22-31 22-31 19-31 20-30 18-27 17-28 14-25 12-22 20-41 14-34 10-26 6-27-16-18-28 13-25 15-30 25-35 32-19 18-19 20-20 20-21 22-20 20-20 24-22 21-20 23-20 21-20 21-19 20-18 22-18 22-18 21-17 22-18 24-19 26-19 28-22 30-20 30-20 29-20 30-19 29-17 27-15 26-13 23-20 38-12 29-6 28 16 18 26-3 24-8 31-16 39-28 22-17 23-19 25-21 25-22 25-22 23-22 23-20 20-20 19-19 18-17 17-18 16-18 15-20 15-21 15-23 16-23 16-25 16-27 16-26 14-26 13-24 12-24 11-22 17-42 13-35 7-29 5-32-7-25-24-4-24 13-21 16-24 21-27 27-27 32-30 35-16 20-15 21-16 20-16 20-15 20-16 19-27 38-26 40-14 22-13 23-14 24-16 26-15 26-15 26-15 27-14 25-13 24-12 21-18 36-12 28-8 25 24 11 30-15 28-20 35-28 19-18 21-20 21-20 20-21 22-20 19-21 18-19 19-18 17-19 16-18 15-19 15-20 15-23 16-22 15-24 16-26 16-26 15-27 14-26 12-26 12-24 9-25 9-22 15-42 8-36 6-30 3-29-18-18-26 12-19 15-27 24-29 30-18 18-16 19-17 18-17 19-17 19-18 20-17 19-17 18-30 33-28 31-25 30-26 34-14 21-15 22-17 23-18 25-18 26-17 25-18 27-18 26-17 24-15 24-15 21-22 35-16 26-11 24 28-6 21-13 28-24 17-17 19-18 20-22 22-22 22-24 23-25 23-23 22-23 20-21 18-20 31-34 25-33 25-41 13-25 15-30 16-29 16-32 15-33 16-31 15-30 12-27 12-25 16-40 11-31 6-23 3-27-2-25-24-8-20 16-20 17-25 26-29 33-32 37-18 20-17 22-17 21-17 19-15 19-29 37-27 35-28 41-16 24-17 27-19 27-20 30-20 30-21 30-20 30-20 28-18 25-17 23-14 21-24 33-16 23-14 21 18-16 19-21 27-34 18-19 19-22 19-24 22-25 21-24 20-25 21-23 20-25 18-21 16-21 29-36 27-36 13-20 15-21 16-25 18-27 20-31 21-33 21-34 22-35 20-35 20-34 18-31 17-31 15-27 13-25 11-22 18-39 11-32 7-25 6-28-11-24-32 10-22 15-28 24-34 29-18 16-20 18-20 20-21 19-21 19-21 20-20 19-20 19-18 18-18 16-33 31-33 35-17 19-18 20-19 21-20 24-19 23-21 25-20 26-21 25-20 25-20 25-19 25-18 23-17 21-16 20-25 33-16 21 20-20 27-35 16-20 19-23 18-24 19-23 19-23 17-21 17-19 15-19 26-36 24-32 23-34 24-37 24-35 23-37 22-38 20-38 21-40 22-40 12-21 13-21 12-22 14-24 12-21 12-21 20-36 11-25-27-3-24 19-30 28-32 31-32 33-17 17-32 37-19 21-20 23-22 25-23 28-24 28-25 30-26 32-28 32-27 31-27 32-27 33-27 30-26 30-25 28-24 27-21 24-21 23-17 20-28 34-19 23-14 22 23-26 27-31 18-19 20-23 23-25 23-27 25-27 26-28 25-28 25-27 24-28 25-28 22-28 23-27 22-26 20-25 17-25 16-22 14-22 14-21 24-38 24-38 26-42 15-23 17-25 17-28 19-28 21-28 20-30 22-29 21-30 19-29 19-27 17-25 14-23 25-38 15-28 10-26-29-6-24 16-34 29-21 18-23 21-24 22-25 23-25 23-24 23-24 22-24 23-24 22-24 24-24 25-25 24-27 28-26 29-28 31-29 33-29 35-29 33-29 34-28 34-27 31-26 31-23 27-22 26-20 23-16 21-16 19-23 32-14 23-13 23 31-7 24-18 33-27 19-17 22-19 23-21 23-22 25-23 25-22 25-25 26-25 25-25 24-25 24-24 23-23 22-24 21-22 21-22 20-21 19-22 20-22 20-24 21-23 23-26 23-26 24-26 25-28 26-28 26-30 27-28 26-28 24-26 22-24 20-21 18-18 28-28 20-19 16-18-22 12-27 21-36 31-21 18-22 20-24 21-26 23-26 22-27 24-27 23-26 22-25 23-26 23-26 21-24 22-25 23-24 22-25 23-26 26-27 25-27 26-27 28-28 29-27 28-26 28-26 27-26 25-23 22-23 21-20 17-33 29-23 23-21 20 24-17 31-25 19-16 22-18 24-22 27-24 29-25 30-26 30-27 31-28 32-26 33-27 31-27 31-24 29-25 28-23 28-21 28-22 27-22 27-23 28-21 28-23 28-22 29-25 28-24 28-23 26-22 23-21 22-17 34-30 28-21 19-17 21-19-21 21-26 23-36 36-22 21-23 23-26 26-26 25-28 27-28 26-29 26-27 25-25 24-25 22-23 21-24 22-22 21-22 22-22 22-22 23-22 24-24 26-24 28-25 27-24 29-25 28-25 29-24 29-26 27-23 27-21 25-19 23-17 19-27 32-17 21 25 4 28-18 40-27 23-16 26-19 27-20 28-21 28-21 29-20 27-20 25-19 23-16 21-16 18-16 29-23 22-19 21-17 23-17 30-23 34-28 34-28 27-25 24-19-23 23-21 22-26 29-29 31-28 29-21 21-18 18-22 27-21 25-28 31-17 19-17 18-18 19-19 19-18 19-17 18-32 32-25 23-20 19 30-18 25-18 29-24 31-28 31-24 22-21 21-16 17-18 20-21-19 30-18 24-20 27-22 26-24 29-30 34-16 18-19 19-19 20-20 20-21 20-20 20-20 21-20 18-20 19-18 17-33 32-25 26-19 16 27-16 33-26 19-17 21-19 22-21 24-20 23-20 22-20 22-18 20-17 20-17 19-16 35-30 36-31 17-18 21-17 21-19 22-21 24-24 24-25 27-25 26-28 27-28 26-27 26-27 24-25 24-24 23-22 22-21 21-19 21-18 20-17 20-16 19-16 34-27 30-23 22-16 20-13-30 24-30 24-19 17-21 18-23 19-25 20-25 21-27 21-26 22-28 22-28 24-28 24-28 25-30 25-29 26-28 25-27 24-27 23-25 22-25 22-25 22-22 22-25 24-25 26-25 28-29 30-28 32-30 35-30 35-29 36-30 35-29 33-26 31-24 29-22 28-19 25-18 22-14 20-23 34-14 25-7 25 28 3 23-15 31-21 19-15 21-17 23-19 25-22 25-23 27-25 28-25 28-27 30-27 28-27 28-27 29-26 26-25 25-24 22-21 22-19 19-18 19-17 21-18 20-18 22-21 24-22 25-24 26-25 27-26 25-25 25-21 21-20 18-16 29-23 22-15-25 24-27 27-16 17-20 19-21 21-22 22-24 22-24 25-24 22-24 21-22 21-21 20-20 19-21 20-20 20-21 20-22 24-23 26-25 28-27 30-27 32-29 33-29 32-28 32-28 33-26 30-26 29-25 28-23 26-21 22-19 22-17 21-27 32-19 23-14 20 29-12 26-22 38-32 21-19 23-21 25-24 26-24 26-25 28-26 29-27 29-27 29-26 29-25 28-27 28-25 24-23 23-21 22-21 21-19 19-19 20-20 21-20 21-21 23-22 22-23 23-25 23-23 22-24 20-22 18-19 30-31 22-25 20-22-33 17-30 27-37 34-21 19-21 19-22 20-23 20-22 19-21 19-20 17-19 16-36 31-17 17-19 18-20 20-21 22-23 23-25 27-26 27-28 29-28 28-27 28-27 27-25 26-23 25-22 22-20 22-18 18-29 32-22 22-18 19 26-5 24-18 34-25 20-15 21-18 23-19 25-22 26-22 27-22 28-25 29-25 29-24 28-24 29-24 25-22 24-21 24-20 23-18 22-19 23-18 23-19 22-19 25-22 25-21 25-22 25-21 22-20 21-18 19-16 32-24 22-17 20-15-24 13-23 21-33 28-36 34-20 19-20 19-21 18-20 19-21 19-21 19-19 18-20 17-19 18-20 18-19 19-20 20-20 20-20 20-22 22-24 23-22 24-22 22-22 23-21 22-20 20-19 21-17 18-28 31-19 24-16 27 23 16 33-13 31-15 38-25 22-15 22-16 23-17 23-18 25-19 25-18 23-17 22-17 21-16 38-25 32-19 30-21 34-24 19-15 19-15 21-18 20-17 19-16 33-28 27-21 23-16-9 28-16 24-20 31-23 34-25 33-27 35-29 34-29 33-31 33-31 34-33 34-17 19-19 21-17 21-19 21-17 20-18 20-16 19-28 34-22 26-19 25 29-4 24-16 31-24 35-29 18-16 19-17 20-17 20-16 20-18 18-17 20-17 19-17 18-16 34-32 31-31 31-30 31-34 32-35 30-36 26-32 22-28 16-22 13-21-22 12-18 16-23 22-25 23-28 23-29 25-30 25-33 25-32 25-34 25-34 25-37 26-19 15-21 15-22 16-22 17-22 17-22 16-22 16-21 15-21 15-20 13-40 24-36 20-33 19-31 15-25 12-26 8-15-23 11-31 14-33 21-41 12-23 14-25 15-25 17-28 17-28 17-30 19-29 19-31 19-32 19-32 20-33 19-33 17-32 17-30 16-30 15-29 16-30 17-30 18-32 18-35 22-37 23-40 24-43 26-45 27-45 25-45 26-43 25-42 25-39 24-36 23-34 22-30 21-28 20-25 17-23 16-19 27-30 16-18-25 31-29 34-18 20-20 22-21 22-23 24-23 24-25 23-25 22-25 25-25 23-25 25-26 24-27 25-26 25-25 24-24 25-24 22-22 23-20 20-21 20-20 20-19 21-20 22-20 23-21 25-22 27-22 28-23 31-24 33-25 34-23 35-24 36-25 36-23 34-22 35-21 32-19 31-18 28-16 28-15 24-12 25-12 23-10 22-15 41-11 41-8 36-3 33 1 27 8 28 20 25 24 11 33 1 26-6 31-11"/>
<path d="M8874 -1403l-1 0-20 13-21 14-22-10 0-24-3-25-10-22-24 2-23 10 26-12 24-14 26-22 25-25 15-18 20-24 16-22 14-23 6-26-21-14-30 3-24 6-27 9-30 10-27 12-24 7 22 15 25 1 28-1 29-5 29-7 27-8 25-8 25-6 26-2 19 16-9 24-14 28-16 23-18 26-21 26-15 19-16 19-17 20-17 20-18 22-16 18-19 22-18 19-1 24 14 20 20 15-8-25-5-24-7-25-8-27-6-26-7-23-8-25-10-24-11-22-14 20 0 26 0 27 1 27 3 28 4 28 3 25 3 26 5 24 3 28 3 25-10-25-7-27-7-28-5-26-7-28-7-29-7-27-6-26-7-24-9-24-7-27-7-27-8-29 19 27 15 29 11 22 14 26 14 30 17 32"/>
</svg>
