<svg xmlns="http://www.w3.org/2000/svg" viewBox="921 1747 12147 9222" stroke="black" stroke-width="16" stroke-linecap="round" stroke-linejoin="round" fill="none" data-xena="0 0 0"><style>@media(prefers-color-scheme:dark){svg{background-color:black;stroke:white;}}</style>
<path d="M1051 2380l-2-2 6-25 11-21 15-22 18-25 20-25 16-19 18-21 20-19 21-11 21 14 4 24-3 24-10 30-9 28-13 31-12 31-10 28-11 27-10 28 1 26 23-17 21-16 21-14 23-11 24-7 26 0 25 7 24 18 20 21 18 26 12 24 8 27 6 30 5 34 1 26-2 28-2 31-5 30-7 30-6 30-7 28-10 28-9 23-15 31-17 25-17 20-25 17-25 3-28-10-24-20-19-21-17-24-15-28-12-31-4-37-1-26 4-27 3-28 5-29 8-28 10-28 14-27 13-24 13-24 13-22 20-29 20-24 21-21"/>
<path d="M1476 2409l 1-1 10 23 3 27 1 26-1 28-2 27-4 25-6 25 8-29 9-31 8-24 12-29 10-28 12-23 15-24 16-19 23-15 25 0 11 22 2 26-4 26-6 28-6 28-5 26-6 27-5 27 1 24"/>
<path d="M1856 2268l 2-2 25-12 24-3 28-1 29-1"/>
<path d="M1872 2366l 0 0 24-11 30-6 27-4"/>
<path d="M2326 2288l-1-1 3-25 14-20 17-18 20-19 21-17 23-15 25-12 24-8 27-1 23 9 10 24-5 24-9 22-16 26-16 28-21 26-20 23-20 19-18 19 26-6 28-8 28-3 25 0 26 5 25 9 25 13 24 20 18 28 7 25 7 30 3 31 1 24-2 24-5 26-6 26-9 27-9 27-10 25-10 24-12 21-22 27-22 19-25 16-28 6-28-9-21-17-17-26-10-25-2-28 0-36 4-26 4-29 7-26 11-27 12-27 16-27 15-28 17-28 17-26 19-25 19-22 20-20 20-16"/>
<path d="M2787 2334l 0-1 9 24-1 28-3 25-3 29-5 27 12-23 11-29 13-25 13-23 16-24 16-19 24 3 3 25-4 27-6 28-9 28-6 23-7 28-3 24"/>
<path d="M3008 2398l 0 0 27-5 25-1 29-2"/>
<path d="M3266 2359l-1 0-4 24-2 26-4 26-5 28-2 26-5 24-5 24"/>
<path d="M3568 2143l-1 1 27 1 19-16-18-17-25 10-4 24"/>
<path d="M4020 1851l-1-1-22 9-19 21-18 23-19 32-13 26-13 29-13 30-13 30-11 30-8 29-8 28-5 29-4 30-2 29-1 27 0 25 3 34 7 30 10 26 11 23 17 27 18 23 21 21 22 15 26 7"/>
<path d="M4070 2160l 0-1 9 25 5 30 2 26 1 28 0 26-1 24-2 25 19-27 15-29 16-31 12-22 12-21 17-30 17-25 16-25 17-19 23 5 5 29-1 27-2 30-1 32-2 24-3 32-3 29 2 26 7 25 21 13 28-9"/>
<path d="M4440 2214l-1-1 26-7 25 0 30 3 27 1 28 3"/>
<path d="M4822 2101l 0 1-7 27-1 25 1 30 1 24 1 25 0 25-3 25-3 27-2 27"/>
<path d="M4899 1903l-1-1 25 2 25 18 22 19 19 17 20 20 19 22 18 22 17 24 15 25 10 27 9 28 8 28 6 30 1 31-2 30-5 30-10 29-9 28-11 25-14 28-13 21-13 22-19 24"/>
<path d="M1950 3524l-1 0 25-2 30-5 23-7 27-9 30-11 29-10"/>
<path d="M2059 3424l-1-1-10 22-3 28 0 27 2 30 3 24 4 25"/>
<path d="M2416 3552l-2-2 12-24 21-12 27-10 26-4 24-2 28 0 24 5 13 21-10 28-15 23-18 24-22 21-17 18-18 17 26-8 27-6 30-2 30 5 24 9 23 15 21 21 14 23 8 26 0 31-3 29-7 33-10 33-8 33-13 30-14 27-19 21-18 16-26 13-28 3-27-6-27-17-13-25-8-25-4-31 1-35 3-27 6-25 9-26 8-24 12-25 14-23 16-24 19-25 19-22 19-21 21-19 19-16 19-15"/>
<path d="M2775 3629l-1 0 14 22 1 25 20-18 12-26 12-25 12-23 13-22 14-20 24 5 5 26 0 24 0 27-1 24 0 26 17 16"/>
<path d="M3052 3564l 0 0 26 2 27-4 24-3"/>
<path d="M3210 3543l 0-1 21-13 24-4 25-2 25 4 9 25-9 27-14 22-20 23-19 20-18 17-18 17 24 9 28-5 28-6 24-5 24-2"/>
<path d="M3729 3358l-1-1"/>
<path d="M4093 3106l 0-2-22 17-14 24-10 27-12 26-10 22-10 24-11 27-11 30-10 31-10 33-9 33-7 31-7 31-5 28-3 24 0 32 3 28 5 26 7 28 10 22 17 22 21 16 28 12"/>
<path d="M4157 3398l 0-1 8 24 6 25 1 25-1 26 0 27-2 27-2 28-2 24 11-22 11-30 10-25 9-27 11-25 10-24 10-22 15-28 15-22 17-20 21-16 22 14 6 28 3 27 0 29-1 26-1 30 0 25 0 27 7 23"/>
<path d="M4507 3411l 0 0 25-6 27-5 26-2 26-3"/>
<path d="M4834 3301l 0-1-2 25-1 24-2 30-1 26-2 28-3 27 0 28 0 29 3 26 3 27 8 26"/>
<path d="M4904 3092l 0-1 25 12 21 19 18 20 21 21 23 24 24 25 24 24 24 24 22 24 20 25 16 27 13 28 10 33 5 35 1 25-2 25-4 27-7 25-9 27-12 26-12 25-13 24-14 23-14 21-16 19-16 19-16 19"/>
<path d="M1026 5022l-2-2 1-24 24-13 25-3 25 0 25 4 27 7 24 14 1 27-11 27-18 26-17 20-21 18-19 14-24 16 26 8 28 6 27 6 25 5 26 4 31 7 25 9 25 10 21 12 25 21 18 23 14 28 5 26 0 33-1 27-5 28-4 30-4 25-7 24-7 23-10 22-12 24-13 25-14 23-15 21-16 19-25 22-24 17-26 11-29 2-25-7-23-16-14-20-9-25-9-31-6-35 1-27 0-27 3-27 5-28 6-27 8-28 9-26 7-27 13-24 15-23 13-23 21-19 16-20 23-25"/>
<path d="M1455 5169l 1-1 24-7 25 7 18 16 2 24-9 24-14 23-16 23-18 23-18 19-16 19 24 0 27-6 25-5 25-5 25-2 26-1"/>
<path d="M1865 4994l 0-1 27-5 27-1 25-1 27 0"/>
<path d="M1870 5076l 0-2 25-12 26-6 25-6 26-5 29-6 30-5 31-5"/>
<path d="M2498 4631l-1 0-10 24-1 30 1 29 0 36 1 26 1 29 1 30 1 32 0 34 2 34 0 34 1 35-1 36 0 35-1 32-1 31-1 25-3 34 0 29 0 25 0 28 3 25 6 23"/>
<path d="M1085 6083l 0-1 17-19 25-11 28-9 29-9 27-5 25 2 27 10 19 19 1 25-8 26-12 23-13 22-15 20-17 20-18 17-18 17-21 14-22 9 22-9 25-6 28-2 32 1 30 4 30 7 27 11 25 12 23 14 18 18 12 23 10 28 4 26 0 27-6 31-5 24-6 26-7 27-7 28-8 26-9 24-8 25-9 22-11 22-17 31-19 24-21 21-21 13-26 8-25-3-23-10-18-21-15-22-5-24 1-26 0-27 6-28 14-29 10-24"/>
<path d="M1554 6164l-1-1 27-10 25-2 24 0 24 2 23 10 8 24-14 23-18 22-22 16-23 17-21 13 23 8 25-2 25-2 28-1 25 6 17 18 1 26-8 26-16 24-16 19-21 13-23 9-25 6-25 5-27 3-25-5-7-26"/>
<path d="M1915 6121l 1-1 22-12 28-5 28-5 24-3"/>
<path d="M1909 6196l 0-1 29-4 29-7 26-5 24-6 23-5"/>
<path d="M2414 5918l 1-1 10-22 22-13 28-12 28-4 26-2 28 1 28 3 26 6 28 11 21 13 16 21 6 28-2 27-9 26-16 30-12 23-15 22-15 23-17 22-19 22-18 24-22 21-22 20-20 18-21 15-28 20-24 17-24 14-23 14-21 11 24-17 26-14 24-9 25-7 23-6 25-2 25 1 32 4 30 4 25 9 22 11 24 10 22 12 22 15 16 19 17 17"/>
<path d="M1239 7110l-1 0 18-17 28-8 25-2 25-1 28 3 22 11 11 25-7 23-14 24-19 25-17 18-19 19-25 16-22 13-20 13-24 12-21 12 27-11 24-4 29-4 31 0 25 0 31 6 24 4 29 8 26 13 21 16 15 22 11 28 4 31 0 25-2 28-8 28-7 32-9 32-13 32-11 21-17 32-14 20-22 28-25 23-23 20-22 16-27 9-29-2-23-13-11-25-4-32 1-31 7-35 5-27 8-26 10-28 10-27 13-26 16-26 17-26 19-25 19-25 20-20 18-20"/>
<path d="M1628 7260l 0 0-3 27-8 26-8 23-10 24-11 25-8 23 21 10 24-8 27-8 24-8 24-7 26-7 23-5"/>
<path d="M1706 7348l-2-2-3 25 0 27 0 26 2 31 1 26 1 24 4 26"/>
<path d="M1988 7116l 0 0 23-11 28-3 26-3 29-2 27-1"/>
<path d="M2012 7221l 0-1 23-13 29-9 27-8 27-8"/>
<path d="M2424 7013l 0-1 17-19 26-7 29-5 28-2 24-2 28-3 28 1 25 5 1 28-15 24-23 18-27 18-23 13-23 13-24 12-27 13-21 14-23 9 28 0 28 1 28 0 32 2 26 1 28 1 28 2 28 1 26 1 24 1 31 2 25 10 16 18-3 26-12 24-16 26-16 22-15 22-17 19-18 17-21 16-21 16-24 12-26 10-27 7-27 3-24 2-26-2-25-7-17-17-5-23"/>
<path d="M2998 7138l-1 1"/>
<path d="M3182 7007l 0-1 20-15 27-3 26-1 28 0 28 1 27 2 24 6 15 19-6 24-13 26-18 22-20 21-23 20-25 16-25 14-25 13-22 12 25-3 25-3 29-2 27-1 25-1 25 2 29 2 27 3 24 10 12 22-4 25-7 26-10 22-15 20-19 25-20 21-23 14-26 9-28 1-28 0-25-4-21-11-6-25"/>
<path d="M3667 7130l 0-1 24-4 27-3 28-3 29-3 31-1 28-1"/>
<path d="M3717 7232l 1-2 23-15 25-10 24-6 28-3 30 0"/>
<path d="M4310 6942l 0-4 4-25 2-26-9-27-17-17-27-9-29 3-26 11-28 19-20 15-20 16-19 15-19 18-16 17-23 25-14 23-8 25 4 27 21 19 26 6 31 2 28-3 29-6 31-10 23-9 28-16 25-17 21-19 16-21 10-23-6-23-24 9-5 27-3 26-1 29-2 31-3 34-2 36-4 25-1 27-1 26-2 26 1 29 0 26-1 27 1 26 0 24 2 32 1 26 3 27 6 24"/>
<path d="M1250 8255l-2-1-4-26 20-18 24-13 29-8 28-1 27 5 25 10 21 17 13 23 2 25-4 29-9 22-14 24-17 25-16 22-20 20-22 17-21 14-23 17-21 16 24-9 26-9 23-7 28-3 28 2 28 7 23 14 21 18 15 22 8 25 8 31 5 26-2 29-6 32-7 35-6 25-5 25-9 26-10 27-11 23-17 21-13 21-21 23-20 23-19 15-25 14-28 0-22-17-15-26-6-28 0-31 6-34 6-27 7-29 9-29 13-29 14-31 16-28 17-29 18-27 17-25 16-26 17-22 18-18"/>
<path d="M1594 8425l 0-1 21-14 24-6 23-7 26-3"/>
<path d="M1611 8456l-1 0-14 22-6 24-5 26-4 24 12 22 23-9 22-11 22-12 21-13 22-11 25-12 25-8 25 3 9 24-5 29-9 29-11 29-11 27-15 23-19 18-24 16-24 13-25 5-27-6-18-16"/>
<path d="M1908 8332l 0 0 24 0 28-2 28 3"/>
<path d="M1906 8446l 0-2 20-14 24-10 27-5 24-4"/>
<path d="M2440 8140l 0-2 15-18 8 26-1 28-6 27-7 25-7 29-8 24-8 23-8 24-14 32-12 31-10 30-11 26-7 28-3 25 12 23 28-2 24-4 26-8 29-8 28-11 25-8 29-8 25-6 23-6 29-9 24-7 27-4 24 3"/>
<path d="M2582 8327l 0 0 2 27 1 25 2 27 1 30 1 25 0 26-2 26 0 25-1 25 1 30-2 25-1 24 0 24"/>
<path d="M2955 8394l-1 0 23-9-24-5-7 25"/>
<path d="M3276 8178l 0-1-3 28 0 27 0 27-2 30 0 31 0 25-1 26-2 27-2 25 0 28-2 26-3 24"/>
<path d="M3470 8144l-1 0-1 27 1 28 1 32 0 27-2 28 0 28-3 28-2 28-1 29-1 27-2 24-4 30-2 25-1 26"/>
<path d="M3628 8295l 0-2 20-15 27-8 28-5 26-6"/>
<path d="M3668 8342l 0-1 27-10 23-5 25-2 28-3"/>
<path d="M4055 8075l 1-2 10 26-7 24-11 25-12 25-10 22-12 22-12 22-10 23-10 28-8 27-3 26 20 15 25 2 28-5 28-7 24-8 24-9 24-8 27-9 26-6 24-8"/>
<path d="M4166 8191l 0 0-12 23-6 24-5 29-5 30-2 29-1 27-2 24 1 26-3 25"/>
<path d="M4461 8093l-1 0-13 21-8 27-8 24-9 26-9 27-7 26 1 24 21 14 26 5 29 1 27-3 29-6 25-4 29-5 27-3 26-4"/>
<path d="M4579 8131l-1 0-15 19-1 26 6 28 3 28 6 31 4 31 3 30 3 29 3 25 3 28 5 25"/>
<path d="M7622 8072l 2-1 24-15 26-8 28-8 23-6 23-6 29-8 25-9"/>
<path d="M7618 8057l-2 0-23 11-8 26 0 26-1 29 0 28 2 28 4 32 6 30 8 24 10 22 24 10 25-14 22-13 25-16 22-13 25-14 25-12 25-11 25-8 25-8 31-7 27-1 26 8 17 19 4 24-4 25-11 29-12 22-13 23-16 21-18 24-20 22-20 22-21 18-21 17-24 11-24 11-24 4-24 2-28-3-28-8-17-17 4-25"/>
<path d="M8188 8181l 0-1"/>
<path d="M8169 8303l-1 0"/>
<path d="M8608 8016l-1-1-2-25 18-16 24-13 24-5 29 0 28 2 25 4 24 6 23 9 28 15 22 15 17 18 8 23-9 28-14 23-18 22-20 22-24 23-29 21-20 17-23 14-24 15-22 16-23 12-23 12-22 10-32 14-30 14-26 12-27 13-21 12 28-2 25-3 32-7 29-6 31-6 30-3 30-4 31-3 30-3 29-3 26-3 31-2 27 2 27 5 22 11"/>
<path d="M9199 7793l-1 0-13 22-7 26-5 28-4 35-3 28-3 33-3 32-4 38-3 39-3 40-3 42-1 39-2 37-1 37-1 33 0 33 0 30 1 26 1 25 1 31 2 26 1 24"/>
<path d="M9591 7991l-2-1 29-7 24-2 28-1 31 1 31 5 29 5 26 5 27 8 19 16-16 21-25 17-25 13-29 14-23 11-23 9-27 9-24 9-23 9 22 14 28 6 28 1 28 3 28 2 27 2 24 2 27 4 25 4 25 6 22 10 17 18-6 27-15 22-18 19-23 18-22 15-24 10-26 10-27 9-28 7-27 6-26 4-28-1-26-4-23-13-6-25"/>
<path d="M10782 8184l-1 0-16 18 0 24 17 18 26 7 26 0 23-6 19-16 1-25-18-18-23-14-23-10"/>
<path d="M10962 8195l-1 0-6 23 9 24-2-25 5-27 11-25 16-19 21-17 24-10 26-10 24-7 24-1 27 1"/>
<path d="M12121 7873l-1 0 28-8 27-5 24-5 27-8 31-5 29-5 30-3 26-3 30-3"/>
<path d="M12137 7910l-1 1-3 25 5 25 5 25 7 25 10 22 22 12 25-2 26-5 29-5 24-6 27-4 25-5 26-5 31-5 28-3 25 0 25 3 22 10 9 22-6 27-13 21-16 23-18 23-22 22-23 20-23 17-22 12-23 8-30 2-29-2-28-8-24-12"/>
<path d="M11832 8606l-2 1-23 15-19 20-20 20-16 22-18 28-13 26-15 29-13 31-14 32-12 34-9 33-5 32-1 29 0 27 3 27 5 25 10 27 12 25 12 26 13 20 17 19 19 19 19 18 22 10"/>
<path d="M11917 8785l 0-1 20-16 23-6 27-2 25 0 26 2 26 4 28 8 22 12 14 23-6 26-13 23-18 22-23 22-23 20-23 20-23 16-24 16-23 13-21 13-25 13-24 14 23 8 28-2 29 0 31-3 32-1 30-5 29-3 27-2"/>
<path d="M12455 8668l 0 0-9 23-6 25-9 26-12 22-13 22-15 24-13 22-14 23-5 24 23 10 29-1 27-3 31-5 25-3 31-6 29-5 29-5 24-4 27-5"/>
<path d="M12551 8740l-1 0 0 28 4 28 5 24 3 25 2 25 0 25-1 28-3 28-6 25"/>
<path d="M12684 8597l 2 0 25 5 27 8 26 11 26 10 26 11 24 12 22 13 20 18 20 17 16 18 14 22 11 25 9 25 6 26 3 25 0 27-4 25-6 29-8 27-11 28-13 29-14 25-12 23-15 26-14 22-15 20-20 15"/>
<path d="M7960 8862l-2 1-20 16-20 16-20 22-18 21-20 26-20 31-13 22-14 24-14 25-15 26-13 28-15 26-12 29-10 31-10 31-9 32-7 30-6 30-5 32-2 32-2 33-1 31 1 28 0 28 3 25 6 35 9 29 11 26 14 22 14 21 20 23 18 20 21 15 20 15"/>
<path d="M8131 9031l-2 1-23 13-16 23-14 24-11 25-9 22-8 25-7 24-8 29-6 31-5 34-3 29-2 30 0 27 3 30 4 28 6 27 7 24 9 24 11 22 13 22 16 26 17 23 19 22 17 22 15 19"/>
<path d="M8290 8998l 0-2 19-19 22-10 23-5 24-6"/>
<path d="M8304 9009l-1 1-16 19-10 22-8 26-8 23-5 26 21 13 24-9 24-9 24-6 26-8 27-5 25-2 22 9 4 25-13 23-17 19-18 18-21 19-26 17-24 14-25 8-27 5"/>
<path d="M8320 9374l 0-2 13-21 23-13 23-9 28-5 25 1 8 22-12 22-16 19-21 22-19 16-19 15-22 15-21 15 26-1 23-6 28-9 23-6 27-7 28-2 24 0"/>
<path d="M8568 8974l-1-1 15 21 19 20 19 23 14 23 14 25 12 24 9 24 9 28 9 31 5 24 6 24 7 33 8 30 5 28 5 29 4 30 2 28-1 27-2 26-4 25-9 29-9 22-16 27-15 21-22 21-22 11-23 8-27 2"/>
<path d="M8960 9280l-1-1"/>
<path d="M9205 9126l 0-1 14-20 22-10 25-1 26 5 27 7 24 9 25 16 18 16 7 27-5 25-12 25-12 22-16 21-18 20-20 23-19 18-21 15-20 14-21 13-23 14-24 16 21 17 29-3 25-2 27 1 26-1 27-2 25 1 24 1 27-2 27-1"/>
<path d="M9486 8881l 0 0 11 23 16 22 15 19 19 23 21 21 21 21 22 17 21 19 22 19 21 18 19 20 16 20 15 22 13 25 10 26 8 30 4 32-1 34-2 24-6 34-6 24-5 25-7 25-9 25-9 24-10 24-8 22-12 32-12 29-11 24-15 25-19 18-26 7"/>
<path d="M7762 10256l 0-1 23-9 26-6 24-5 29-4 27-4"/>
<path d="M7745 10370l 1-1 23-16 26-8 24-6 28-4 31-6"/>
<path d="M8242 9991l-2 2-18 15-17 21-14 23-10 22-11 25-11 31-8 24-7 26-8 28-8 29-7 29-8 30-6 31-5 31-5 34-3 30-3 29-1 29-1 28 0 28 2 26 2 25 4 25 3 24 6 36 9 31 9 27 9 24 9 23 12 24 14 26 13 21 16 18 22-12"/>
<path d="M8440 10139l 0-1 22-14 24-8 27-3 25-1 25 1 26 3 25 6 19 19-4 29-14 28-17 24-22 24-22 23-25 23-25 22-27 21-26 22-25 20-25 18-22 15-22 18-16 19 25 11 24 0 30-5 25-6 28-10 31-14 28-14 30-11 29-10 25-7 29-8 27-3 23 6"/>
<path d="M8902 10192l-2 0-21 19-16 21-12 27-7 25-4 28-3 27 1 26 3 25 7 28 15 25 17 18 24 16 30 4 26-4 22-10 22-14 23-18 20-22 18-25 12-23 6-27-5-29-15-28-16-24-17-26-19-20-19-21-26-14-25-7-28 0"/>
<path d="M9133 10104l-1-1 24 15 18 17 20 22 20 25 16 20 16 22 16 22 14 23 15 22 10 25 8 25 6 24 4 27 3 26 0 25-2 26-4 26-7 25-9 23-10 25-15 28-13 20-18 23-18 19-20 20"/>
<path d="M5451 9302l 0 2 5 26 5 27 6 28 11 26 10 25 14 27 15 21 20 15 22-11 8-25 9-25 10-27 7-24 6-27 9-31 9-35 7-36 7-36 4-35 4-33 3-29 3-28 3-34 3-25 5-26 6-24"/>
</svg>
