<svg xmlns="http://www.w3.org/2000/svg" viewBox="1559 1860 13632 2925" stroke="black" stroke-width="16" stroke-linecap="round" stroke-linejoin="round" fill="none" data-xena="1 6 0"><style>@media(prefers-color-scheme:dark){svg{background-color:black;stroke:white;}}</style>
<path d="M1874 2811l-7-23-10-24-25-7-24 10-17 17-16 20-15 26-14 28-12 33-8 23-7 24-9 35-5 32 0 31 4 28 7 23 14 25 22 19 24 5 25-5 21-19 19-21 16-26 12-25 10-25 8-24 8-30 6-27 1-24-1-24-13 23 0 29-1 27 1 24 1 26 1 25 2 25 5 31 4 24 9 25 15 24 18 18"/>
<path d="M2075 3145l-2 25 5 29 4 29 2 25 2 29 5 27"/>
<path d="M2170 3138l-5 23 2 25 3 28 5 26"/>
<path d="M2318 2918l 24-11 24-5 28-3 27-4 27-7"/>
<path d="M2394 2843l-14 23 3 28 6 27 7 23 10 25 9 26"/>
<path d="M3011 2822l-7-25-10-26-14-20-24-13-25-3-27 6-23 13-25 21-17 22-17 27-18 31-10 25-10 24-8 24-7 24-6 31-1 28 6 29 17 24 28 8 29-8 22-13 23-18 22-22 25-22 21-22 19-24 15-21 11-22 11-24 7-24 2-25-7 26 0 26 0 25 3 28 2 29 4 26 9 29 13 23 21 18"/>
<path d="M3238 2987l 23-5 27-1 24 1 24 4 5 25-14 22-17 21-18 20-18 20-14 20 8 24 25 0 23-7 27-11 22-11 24-12"/>
<path d="M3465 3002l 26-8 26 0 23 10 4 27-9 23-15 23-13 23-9 22 20 17 26-9 26-14"/>
<path d="M3843 2705l 23-11 27-6 24-2 26 1"/>
<path d="M3843 2833l 22-11 25-7 29-4 25-3"/>
<path d="M4860 2259l-27 5-22 14-15 19-12 25-7 27 0 29 6 26 11 22 19 15 24 7 28-3 24-5 24-9 23-12 22-16 19-19 18-19 10-23-3-26-11-22-20-21-22-16-23-12-24-8-25-4-30 1-23 9"/>
<path d="M5450 2246l-23-7-23 10-18 20-12 24-5 23 5 26 14 24 19 16 26 12 30 1 23-5 24-8 22-10 22-16 14-22 7-24-8-24-19-23-22-15-26-7-27 3"/>
<path d="M4916 2806l-5 24-1 26-2 26-2 31-1 25-3 25-3 26-2 28-2 28 0 26 3 27 7 25"/>
<path d="M5358 2829l 0 27 6 26 8 24 9 23 6 28 1 25 1 27 2 26 2 26"/>
<path d="M7423 2825l 26 5 22-10 21-14 25-22 19-20 20-22 22-24 21-26 22-25 22-28 22-26 19-27 18-28 17-27 14-26 11-25 7-25 7-23 5-24 5-32 3-30 0-25-4-25-12-22-28 13-16 19-20 27-18 30-11 23-8 26-9 27-7 30-5 30-5 34 0 33 0 34 3 35 3 32 3 34 6 30 7 28 7 25 8 23 12 27 14 21 21 19 25 8 22-14 14-26 5-27 0-29-7-30-13-28-17-24-19-18-22-11-25-2 2 26"/>
<path d="M7928 2855l-5 24 0 25-1 24 1 27"/>
<path d="M8026 2878l 4 25 5 23 8 25"/>
<path d="M8286 2684l 24-5 29-3 29-3 26-3 25-3 25-3"/>
<path d="M8401 2596l-8 26 4 25 5 24 4 25"/>
<path d="M8833 2754l 5 24 25-2 22-15 23-18 27-23 20-18 21-19 24-22 22-22 21-23 23-24 18-24 18-25 17-25 14-24 14-24 10-25 9-24 8-27 5-25 5-24 3-25 3-33 0-28-5-24-20-16-24 12-19 16-21 22-20 30-12 22-12 23-10 26-10 27-8 28-6 31-4 31-3 31-2 31-1 30 2 30 1 28 3 27 6 34 11 27 14 22 20 22 21 14 27 5 26-7 19-22 14-25 7-25 3-25-3-25-10-24-15-24-23-17-24-5-6 24"/>
<path d="M9271 2833l 23-8 24-3 23 8-7 23-16 22-14 20 17 17 23-7 26-8 27-9"/>
<path d="M9505 2778l 25 8 21 11-12 23-20 17-16 21-10 22 25 7 28-9 26-11"/>
<path d="M9776 2502l 23-9 26-7 26-7 30-3 25-2"/>
<path d="M9807 2584l 23-9 29-6 29-5"/>
<path d="M10504 2099l-12-21-25-6-18 19-15 21-12 23-10 28-5 31 0 29 7 26 13 22 19 15 25 11 28-2 27-10 24-17 21-20 18-21 13-21 3-24-8-28-15-26-21-21-22-19-22-18-21-13-25-3-25 8-12 21"/>
<path d="M11008 2056l-21-13-21 18-10 27-3 29 3 25 8 22 14 21 18 17 22 10 31 4 26-2 25-7 22-12 22-19 15-20 4-25-10-26-19-22-20-16-23-9-25-6-25 0-24 2-26 10"/>
<path d="M10506 2571l-3 26 1 29 0 28 4 29 1 30 1 31 1 31 0 31 0 28 3 25"/>
<path d="M10975 2619l 11 26 9 27 7 24 6 24 5 27 4 29 0 29 2 25"/>
<path d="M13158 2498l 3 25 2 25 1 28-4 26-7 26-9 23-9 23 9-22 12-26 10-24 11-26 8-26 8-26 10-30 12-25 12-25 13-21 18 20 0 27-3 26-6 30-5 30-3 28-1 28 0 26 10-26 10-25 12-31 9-22 14-28 13-24 15-20 15-20 21-14 15 23 4 24 1 26-3 28-4 25-4 24-7 26-2 25-1 26"/>
<path d="M13537 2641l-8 26-3 25-2 26-4 25-3 27-5 26"/>
<path d="M13868 2369l 21-16 27-6 31-5 26-1"/>
<path d="M13873 2430l 21-11 28-9"/>
<path d="M14433 1996l-26 10-16 19-11 25-7 25-4 24 2 27 3 26 14 21 21 13 25 6 27-3 23-10 22-16 16-21 10-24 2-28-3-27-12-23-16-21-18-15-26-7-24 2"/>
<path d="M14995 1967l-24-4-27 12-21 16-17 24-16 24-6 28 4 26 15 24 21 17 29 4 28 0 27-7 23-8 24-13 19-16 9-24-8-26-15-22-21-15-26-8-29-1-28 5-22 11"/>
<path d="M14504 2446l-11 22-6 28-6 25-3 26 1 25-4 29-1 27 0 24"/>
<path d="M14953 2455l-4 26 0 26 4 26 5 29 8 26 4 24 1 27"/>
<path d="M1888 4426l 1-25 1-27 0-28-4-25-10-25-13-22-23-9-25 5-23 13-18 17-19 22-18 26-18 29-16 29-14 29-12 29-9 30-4 28-2 30 7 27 19 20 27 7 28-9 23-17 19-21 19-22 17-23 15-26 13-24 12-25 9-23 4-24-8 26-5 27-3 29 0 25 6 25 17 19"/>
<path d="M2090 4488l 26-3 25 5 22 9-2 28-16 22-15 19-20 21-18 22-18 21-13 20 6 24 25 2 27-10 26-13 23-15"/>
<path d="M2259 4522l-14 23-6 25-3 27-1 24 4 28"/>
<path d="M2612 4291l 23-8 26-4 27-4 30-6 30-6"/>
<path d="M2736 4200l-17 19-3 25 0 25 3 27 6 30"/>
<path d="M3314 4204l-9-23-14-21-20-15-23-9-26 0-23 5-28 11-24 14-25 18-22 21-22 26-19 28-16 31-13 32-7 32 0 30 8 29 16 20 22 13 30 2 26-5 28-10 28-15 25-20 22-19 19-19 18-23 12-22 8-23-2-24-10 27-3 24-1 24 3 28 10 26 18 23 24 19"/>
<path d="M3426 4410l 24 3 24 8-6 26-15 19-18 21-14 21-1 24 23 10 25-5 25-10 25-13"/>
<path d="M3611 4402l 26 3 26 1 23 7-9 23-15 19-17 20-14 22 8 24 26-5 25-16 26-16 23-13 22-14"/>
<path d="M3918 4197l 23-11 25-7 26-6 27-6"/>
<path d="M3910 4293l 27-9 24-11 29-10"/>
<path d="M7703 4232l 20 17 24 7 25 3 26 1 28-2 25-6 27-10 28-15 23-15 23-19 26-25 17-20 16-21 15-21 13-23 11-23 8-24 7-24 4-25 0-34-5-35-9-31-8-28-13-27-20-20-25-8-24 9-19 19-14 23-14 27-10 22-8 23-8 25-6 28-3 29-4 31-2 31-1 30 0 29 2 28 4 26 6 26 7 24 10 23 14 31 15 25 20 19 21 14 22 9 26 7 27-10 19-18 13-21 7-26 3-30-3-30-11-25-14-22-20-18-21-13-24-3 14 22 23 9"/>
<path d="M8259 4310l-11 21-4 26 0 26 1 27 2 27 3 29 11 22"/>
<path d="M8361 4374l-8 25-2 25 1 27 0 24 5 24"/>
<path d="M8581 4116l 27-7 27-2 25 1 29 0"/>
<path d="M8604 4213l 26 2 26 0 26-1 30 1"/>
<path d="M4796 3822l-23-6-20 17-14 25-8 25-8 25-5 28 1 26 5 29 11 25 18 20 23 8 25-1 23-8 21-15 21-18 17-20 15-25 8-25-2-29-11-24-17-22-19-21-18-18-19-16-23-5-19 16-15 24"/>
<path d="M4809 4305l-24 5-21 18-13 24-8 23-5 25-2 26 0 27 5 23 11 24 16 19 25 14 27 5 26-5 24-11 22-16 15-18 10-26 2-25-3-25-14-26-15-19-17-17-20-18-24-14-25-3"/>
<path d="M5268 3776l-4 29 0 29-1 26 0 26-1 26 1 25 0 27 3 25"/>
<path d="M5293 4299l 4 24 5 24 7 27 5 28 2 27 4 26"/>
<path d="M9238 3701l-25 4-22 16-12 25-4 27 2 29 10 27 16 23 21 20 23 12 25 4 26-2 23-9 25-15 23-17 16-23 8-27 0-29-4-27-7-26-7-25-9-23-12-23-21-11"/>
<path d="M9826 3662l-27 2-22 17-17 20-13 21-7 23 4 26 15 20 22 16 22 10 28 9 25 3 27-3 26-11 23-15 19-18 14-21 5-24-3-25-8-23-16-23-21-15-26-9-24 5-23 10-23 16"/>
<path d="M9310 4157l-12 24-4 29-4 30-7 26-5 27-4 28-5 27-3 26 1 25"/>
<path d="M9804 4288l-2 28 4 27 6 23 12 23 17 19 21 16 23 10 27 2 24-9 19-14 16-19 11-26 1-26-15-24-19-21-22-14-25-3-26 1-22 10-22 18"/>
<path d="M12970 3943l 6 27 3 29-3 30-4 25-5 25-8 28-7 26 14-25 12-29 9-24 8-24 10-24 8-24 12-27 13-25 17-20 20 17 0 29-4 29-4 31-1 28-1 24-3 28 17-24 16-29 11-25 13-25 14-26 13-23 13-21 15-26 13-20 17-18 6 27-2 29-3 25-2 25-1 30 0 25 2 28 4 27 6 27 13 20"/>
<path d="M13410 4118l 27 2 25 6 24 9 22 13-5 25-19 16-23 18-23 16-21 15-17 18 21 16 25-4 25-6 25-7 28-6 24-5"/>
<path d="M13778 3854l 24-2 31 5 26 5 25 3"/>
<path d="M13804 3962l 24-3 25 1"/>
<path d="M14358 3511l-3 25-5 27-1 25 3 27-2 25 3 26 2 25 7 23"/>
<path d="M14912 3518l-23 8-12 22-7 25-2 25 12 22 22 15 26 3 26-4 25-11 19-15 14-23 1-25-8-25-14-23-18-17-26-7-26 3-21 13"/>
<path d="M14349 4020l-3 27-4 28-3 29-4 27-6 25-7 24-9 23-7 25"/>
<path d="M14775 4007l-19 17-11 23-9 24-3 29 0 29 8 25 14 22 23 12 27-3 23-6 25-13 20-15 13-21 0-25-7-24-12-21-17-20-22-15-24-4"/>
</svg>
