<svg xmlns="http://www.w3.org/2000/svg" viewBox="430 1412 17478 21286" stroke="black" stroke-width="16" stroke-linecap="round" stroke-linejoin="round" fill="none" data-xena="0 -5 0"><style>@media(prefers-color-scheme:dark){svg{background-color:black;stroke:white;}}</style>
<path d="M1313 2455l 1-26 6-28 12-25 15-19 22-14 25 1 16 20 7 26-1 27-3 24-7 25-8 27-11 27-11 30-12 27-11 24-12 23 11-30 9-25 13-27 11-26 12-24 17-30 16-27 14-25 14-20 20-20 21-16 24-12 26 5 15 22 3 26 0 26-4 29-8 28-9 31-9 29-10 29-8 24-10 25 16-24 10-26 11-28 11-26 10-26 10-25 12-23 12-22 16-24 16-22 24-4 6 27-1 26-5 31-5 24-3 24-4 30-2 30 1 24 16 21"/>
<path d="M1918 2386l-18-17-25 0-23 15-20 17-20 24-15 22-16 24-14 23-13 28-3 28 13 23 28 6 27-10 20-13 19-15 22-22 18-19 15-21 15-23 10-25-15 22-3 26-1 24 7 25 21 14 25 0"/>
<path d="M2092 2334l 5-24 22-12 23 7 21 17 15 20 10 23 10 24 8 25 8 22 14 21 25 10 28-6"/>
<path d="M2274 2252l-23 11-21 20-20 23-20 17-19 22-20 24-13 21-22 27-19 28-16 24"/>
<path d="M2674 1722l-23 14-19 26-16 27-18 31-14 24-15 27-15 30-16 32-14 34-14 38-14 37-11 41-12 40-8 41-8 39-5 40-3 40-2 40-2 37 0 38 0 34 3 33 3 32 6 30 5 28 6 27 5 23 10 32 11 23 16 22 17 19 17 18 23 13 26 6"/>
<path d="M2920 2052l 5-25-8 29-7 29-10 33-6 23-6 24-5 24-3 24-6 37-3 25-2 25-1 34 0 30 3 27 6 28 13 22 26 9 24-5 21-14 24-18 26-25 17-17 23-28 15-21 15-21 12-22 13-21 11-22 14-33 11-34 11-35 4-25 5-25 3-25 5-35 5-31 5-26 4-29 3-25-13 25-8 31-7 28-6 29-6 29-6 31-3 33-4 31-3 31-2 29-1 27-1 24 1 24 3 29 2 27 7 28 9 24 11 23 21 13"/>
<path d="M3511 1902l-21-12-24-2-16 19-8 28-7 29-7 27-6 31-6 25-6 28-6 30-5 28-6 27-5 31-5 29-5 26-5 27-2 26-3 32-2 29-3 27-2 25 0 27-1 26 1 24 4 24 16 18 25 5 26-1 27-1 26-1 25-1"/>
<path d="M3761 2002l-11 29-6 24-6 30-7 31-6 31-8 29-5 29-6 26-2 25-3 30-1 25 0 27-3 24"/>
<path d="M3893 2391l-10 24-13 26-13 26-10 24-12 27-11 28"/>
<path d="M4474 1843l 23-14 25-8 27-5 26-5 24-6 26-2 26 1 21 14 5 23-2 27-2 28-1 25-2 27-1 28 0 30-1 34 1 33 0 33 1 29 0 29 2 26 0 24 0 30 3 29 5 24 5 26 6 27 7 24 6 25 1 24-27 8-26 6-27 4-25 3-26 3-27 0"/>
<path d="M4823 2461l-16 23-14 23-15 25"/>
<path d="M5076 2420l"/>
<path d="M5229 2412l"/>
<path d="M5324 2407l 25-2"/>
<path d="M5636 1791l-6-23 17 18 17 19 19 25 17 21 19 21 18 23 19 23 20 24 20 26 20 27 20 29 12 21 11 21 13 33 7 23 7 30 1 32-2 29-7 32-13 31-11 23-12 22-14 23-12 20-13 21-21 28-20 26-21 23-20 19-19 15-24 14"/>
<path d="M2992 2815l-23 9-2 24 5 27 7 24 14 23 16 22 20 16 27 12 26 6 31 1 28-2 32-3 33-6 36-8 26-6 27-8 29-8 31-8 32-8 36-8 33-7 35-6 32-4 31-4 33-2 32-2 30 1 32 1 29 4 27 6 28 7 23 9 24 11 22 10 22 13 30 18 29 18 24 20 19 19 17 21 15 19 14 22 10 22 18-23 12-28 11-27 16-22 18-18 23-13 23-13 25-12 29-11 33-11 23-6 26-5 27-5 28-2 29-4 32-2 33-2 35-2 34-1 33 1 36 0 34 2 33 1 36 0 33 3 33 0 35 3 33 2 31 0 30 2 29 2 29 2 28 3 28 2 25 2 25 0 34 1 34 2 29-3 27-5 23-11 28-9 26-12 21-19 18-21 13-24 12-27 15-25 9-24 4-24-23-15"/>
<path d="M4169 1970l 17 19 9 27 4 32 2 30-1 31-1 31-3 34-3 31-4 32-5 32-6 31-7 30-6 23-4 26-1 25"/>
<path d="M4382 2043l-4 25-9 23-14 22-18 23-16 21-17 19-18 19-18 18-21 23-16 21-13 20 14 20 28 3 27 0 25 1 25 4 24 5 26 3 23 7 27 6 25 4"/>
<path d="M3854 3308l-11 25-6 23-4 28-5 30-3 24-4 32-3 25-3 27-5 28-6 30-3 26 10-27 7-30 4-24 4-26 4-27 4-25 4-34 3-32 3-29 3-24 3-25 22 21 9 23 8 25 10 28 11 28 13 29 13 31 13 31 13 28 15 24 20 23 23 13 29 4 22-10 17-18 17-29 11-23 10-25 8-26 6-24 6-25 3-34 3-34-1-32-3-33-5-29-4-27-6-26-6-25"/>
<path d="M7204 2454l 24-8 21-19 25-26 19-22 21-23 22-26 21-29 21-29 21-29 20-30 20-29 20-29 18-30 16-31 15-29 9-29 7-27 6-26 2-25 0-34-3-29-5-26-25-10-25 19-22 25-15 21-15 24-14 25-13 27-10 29-8 30-6 31-3 32-3 31 1 31 2 31 5 31 7 31 9 29 10 26 12 24 20 28 21 24 23 18 24 15 25 10 26 8 24 0 17-22 5-25-4-28-9-24-9-24-11-25-14-23-14-21 26 10"/>
<path d="M7657 2281l 24 6 25-8 22-9 21-16 21-18 10-22-14-22-24-10-24 6-19 14-18 21-16 22-13 22-8 26 5 24 22 18 27 7 29-1 23-8 29-9 23-5 25-11 23-15 24-20"/>
<path d="M8003 1880l-7 24-4 26-5 28-7 30-8 26-9 30-10 33-7 23-6 24-8 34-8 33-5 31-2 27 0 29 10 24 22 14 28 1 29-11 27-15 26-18 24-20 25-20 21-18 19-18"/>
<path d="M7918 2093l 20-22 29-15 28-15 32-14 34-12 35-10 24-5 33-4 31-1"/>
<path d="M8313 2100l-27 4-28 4-25 3-25 7-25 10-21 15-17 18-12 23 0 26 25 12 29-1 25-7 26-9 25-12 20-13 20-19 11-22-15 22-1 25 10 22 26 5 24-6"/>
<path d="M8508 1876l-5-23 16-19 28-7 25 1 24 6 22 13 16 24 0 25-7 24-11 27-13 21-16 22-15 25-17 24-14 25-13 28-5 29"/>
<path d="M8571 2213l-5 25"/>
<path d="M1243 5075l 3-24 22 15 2 25 2 33-1 25-1 27-1 29-2 30-1 30-1 31 0 31 2 31 2 28 4 26 5 24 8 28 17 22 27 6 28-19 23-26 13-22 14-24 13-23 13-25 12-24 9-23 11-33 9-28 4-25 3-25-3 31 2 29 4 28 8 29 11 26 12 25 14 21 21 20 22 13 25 6 27-7 20-20 15-23 15-30 11-34 6-24 5-24 1-25 0-35-4-34-9-32-10-32-14-29-13-26-15-22-17-18-20-13"/>
<path d="M1744 4912l 2 29 1 28 2 26 0 31 1 34 0 25-1 24 0 26 0 26-2 28 0 30-1 29-1 29 0 29-2 28-1 27-1 25-2 33-2 29-2 30 10-23 7-29 9-32 8-31 9-31 10-29 10-27 12-27 15-25 20-17 22 13 7 26 2 25-3 30-6 32-3 29 1 29 15 19"/>
<path d="M1957 5279l-13 23-6 28 0 29 4 28 9 23 20 14 24-4 23-16 16-20 16-25 13-25 10-25 6-25 2-26-9 28 0 27 3 30 5 31 6 25 7 25 7 28 8 28 8 30 8 30 7 32 6 33 2 36 1 35-1 25-4 35-6 32-9 27-10 24-18 24-22 15-26 4-29-5-22-11-23-15-23-22-18-26-17-31-10-22-11-24-8-24-9-24-7-33"/>
<path d="M2968 4954l-23-7 28-4 26-9 24-10 28-12 26-8 27-9 28-9 24-8 26-4"/>
<path d="M2971 4987l-11 24 2 28 2 24 2 29 3 28 3 32 2 33 3 33 3 33 3 33 2 30 3 27 3 28"/>
<path d="M2992 5180l 23-11 29-5 28-5 29-6 31-3 30 1 22 10"/>
<path d="M2997 5401l 27-6 24-6 26-8 31-7 24-6 28-4 28-5"/>
<path d="M3571 4731l-24-8-25 1-27 5-27 5-27 4-25 4-25 4-24 7 3 25 7 24 5 29 3 31 0 30 0 34 0 26-1 30-2 33-1 34-2 35-3 36-3 37-4 36-3 36-3 34-4 34-3 32-5 32-3 30-3 29-2 27-1 26-1 33 0 26 1 26 6 26 17 19 24 2 30-5 28-5 24-4 27-6 28-6 28-7 25-6 25-4"/>
<path d="M3664 4958l-1-24 25 10 18 23 16 29 9 26 12 25 10 29 11 30 12 30 14 30 15 32 13 31 14 28 15 25 13 24 18 25 18 22 19 15"/>
<path d="M3848 4944l-25 5-20 18-16 19-16 23-17 28-17 33-14 24-14 26-14 26-14 29-15 28-13 29-13 28-12 27-11 25-12 32-7 23"/>
<path d="M4066 5106l 25-2 26 1 27-1 26-2 26-4 25-3"/>
<path d="M4136 5017l-5 24 7 28 5 26 7 28 7 29 6 23 7 31"/>
<path d="M4554 4876l 17 21 16 20 18 21 16 23 19 26 19 25 21 22 21 21 18 18 24 15"/>
<path d="M4827 4822l-7 26-6 29-4 25-5 28-5 32-6 36-3 25-3 27-4 27-2 28-3 27-3 27-4 28-4 28-3 27-3 24-3 33-3 29-2 25-3 26"/>
<path d="M4969 4673l 24-13 27-8 29-4 28-2 26 0 24-3 25-3 25-2 12 22 5 26 2 32 3 28 3 32 2 35 1 27 2 27 1 30 3 32 1 33 2 34 1 34 2 36 0 34 2 34 1 34 2 32 2 31 2 32 2 28 2 26 3 24 5 31 4 28 3 26 5 25 4 29 3 25-1 27-9 23-24 15-25 5-25 2-25 0-29-1-25-3-25-2-28-2-24-4"/>
<path d="M533 1974l 8-27 24-16 20-15 22-15 22-14 21-12 28-15 25-10 26-8"/>
<path d="M588 1939l-14 24-1 27 0 24 1 32 3 35 2 25 2 25 5 34 6 34 7 33 7 32 6 34 4 33 4 34 1 31 0 29 0 26-3 27"/>
<path d="M579 2216l 23-10 24-6 23-8 28-10 28-13 30-14 31-13 27-13 22-10"/>
<path d="M639 2444l 17-19 22-16 26-14 22-11 24-10 27-12 29-10 31-13"/>
<path d="M1206 1709l-14-21-19-15-25 0-27 6-23 11-26 11-24 12-22 10-2 28 4 31 2 32 0 25 2 25 1 30 0 28 0 31-2 33-1 35-1 37-3 40-2 43-3 44-3 45-3 46-1 44-3 46-1 44-2 46-1 24 0 24-1 47 0 24-1 48 0 43 0 43 0 39 2 37 3 34 3 31 3 28 4 26 8 33 7 25 7 23 10 24 12 23 22 15 25 6 25 0 26 0 27 0 27-1 28-2 26-3 26 0 28 1 25 5"/>
<path d="M6057 1584l 8-24 25-9 24-8 26-4 24-5 25-5 23-5 26-5 27-4 22 8 6 30 6 27 4 36 2 25 0 26 2 27 3 29 3 31 6 34 5 34 6 35 7 36 6 37 7 40 7 40 5 43 6 41 5 44 3 41 4 39 3 39 3 35 1 35 2 35 1 32 2 33 3 31 1 30 2 29 1 28 0 27 2 27 3 33 4 30 1 26 0 29-1 27-15 22-26 12-32 5-27 4-25 1-30 0-30 0-31 1-27-1-26-2-25-5-20-16"/>
<path d="M5666 5051l 27-4 25-6 28-7 31-9 28-5 25-1"/>
<path d="M5721 5103l-24 2 24 6 25 2 24 1 29-3 26-2"/>
<path d="M6291 4761l-17-17-26-4-24 4-27 4-24 3-25 5-22 10-8 26-3 26 0 25-2 29-2 35-1 25-1 27-1 28 0 31 0 31-1 29 0 31-2 30 0 30 0 32 1 30 1 30 1 29 0 27 1 26 1 25 0 36 1 33 2 31 4 25 4 27 17 17 26-7 24-7 28-10 26-10 27-9"/>
<path d="M6139 5156l 17-18 25-8 29-8 24-6 31-5 24-3 26 0 27 4"/>
<path d="M6153 5430l 22 12 27 5 24 3 28-2 28-4 28-6 24-3 26-6"/>
<path d="M6618 4750l-15-21-28-2-26 4-24 6-24 6-25 9-21 12-1 25 0 27 3 26 2 31 4 28 2 33 3 26 1 26 1 28 2 29 1 29 0 29 1 30 1 30 1 30 2 29 2 30 2 28 1 27 2 26 3 25 3 34 2 31 2 30 3 27 4 30 4 24 7 27 16 20 23 10 27 2 25-2 28-5 25-7 25-9"/>
<path d="M6656 5045l 20 15 20 19 18 18 18 21 19 21 22 23 21 25 22 23 19 24 17 24 15 22 12 22 11 26 10 27"/>
<path d="M6866 5084l-26 12-19 19-15 21-14 23-15 27-16 31-12 23-12 24-11 23-14 23-9 23-10 30-5 29"/>
<path d="M6960 4820l 20-15 25-8 25-8 25-6 23-8 24-6 22 11 6 23 3 29 5 32 2 26 2 28 2 32 5 34 2 24 3 25 5 23 3 25 4 24 3 24 3 36 4 34 4 34 3 30 3 29 3 26 0 25 0 29-3 26-5 24-11 25-14 23-19 22-20 13-24 10-28 7-28 4-27 1-26-3-27-8-23-14"/>
<path d="M7492 5137l 23-14 26-6 24-5 32-4 29-3 29-2 25-4"/>
<path d="M7551 5057l-12 24 1 28 6 26 10 29 6 26 6 27"/>
<path d="M8297 4725l-27-10-24-3-25 0-27 2-30 1-28 2-27 3-28 4-25 5-26 7-22 9 0 26 3 24 4 28 2 27 3 30 3 32 4 36 2 25 1 25 3 27 3 26 3 35 4 35 2 24 3 36 2 34 2 32 2 29 0 26 1 32 3 28 1 30-1 24 10 22 24 3 27 0 24-1 28-2 25-4 23-5 26-6 24-3 26-3"/>
<path d="M8052 5095l 23-8 28-1 26-2 26-4 26-3 27-2 27-2 29-1"/>
<path d="M8658 4648l-25-2-25 0-25-1-27 0-26 4-23 9-15 19-4 24 1 25 1 25 1 26 2 32 2 29 0 36 0 25-1 28-1 29-1 31-1 31-1 31-2 31 0 32-2 31-1 31 0 28 0 28 1 24-1 35 1 32 0 31 1 27 2 25 5 24 4 30 2 25 13 25 15 21 22 10 26 2 26-1 27-2 26-4 26-4 25-7"/>
<path d="M8713 4874l 21 18 14 25 16 27 12 23 13 22 11 24 13 22 14 22 16 25 17 26 16 21 20 17"/>
<path d="M9001 4866l-13 23-3 30-3 29-4 33-5 36-7 25-5 26-6 27-7 29-6 30-8 30-8 30-9 28-6 28-7 27-7 25-4 24-8 31-5 24-5 29"/>
<path d="M9055 4720l 23-14 26-5 28-3 27-2 26-3 25-1 28 3 19 17 12 26 5 24 5 31 5 28 3 31 3 34 2 36 1 27 0 29 0 31-1 30-1 29 0 29-3 30 0 27 0 26 1 25 1 35 1 29 2 26 2 29 3 27 4 27 2 25-1 24-14 21-22 14-25 9-25 8-25 7-25 5-28 5-25 5-29 1-26 0-23-9"/>
<path d="M9717 4769l 23-10 25-1 25 0 28 0 29 5 25 8 22 14 10 26-7 31-10 23-12 26-13 28-15 30-12 21-17 30-12 28-11 24-9 24-8 22"/>
<path d="M9802 5313l 7 23"/>
<path d="M10260 5145l 18-17 23-13 22-11 27-13 30-15 22-12 25-12 25-14 26-13 27-15 26-13 26-13 25-12 25-12 26-10 24-9"/>
<path d="M11125 4875l-5-27-15-20-25 2-25 13-22 18-25 22-17 19-17 20-16 22-16 24-16 26-16 26-16 25-14 24-10 23-12 30-6 23 7 25 25 8 24-8 24-11 22-14 23-16 22-17 21-20 19-17 18-19 11 22 4 25 23 11 23-15 18-22"/>
<path d="M11180 4972l-11 23-3 25 0 25 25-3 16-25 11-21 12-22 12-21 15-23 17-18 17-17 12 24-2 26-4 28-3 27 3 24 20 17 29-10 21-11"/>
<path d="M11493 4893l-25 6-17 18-16 24-8 22-9 28-5 28 7 26 20 17 27-5 26-16 22-20 16-18 14-21 4-27-8-25-20-17-23-12 15-21"/>
<path d="M11807 4596l 14-26 11-22 13-28 12-24-4 30-11 29-10 27-9 31-8 32-8 35-7 26-7 27-5 28-4 28-7 29-7 28-7 27-8 26-5 34-1 28 6 29 15 23 23 6 26-4 29-14 18-16 21-22 9-23-3-28-15-23-18-17-20-15-21-16-22-13-28-12-26-6-27-1-25 5 25-3 26-14 24-15 29-20 20-15 22-15 24-19 25-19 25-19 22-20 22-19 18-18 17-17 21-25 16-20 12-25 4-25-18 23-15 29-13 27-11 30-10 34-10 24-7 25-7 28-9 25-6 28-8 28-8 28-7 27-6 26-6 25-5 25-3 32-2 27 6 25 29-3 18-16 18-25 16-18 16-19 19-17 21-24 20-23 16-17 22-17 21 12 4 30-3 29-4 24-1 25-1 29 12 23 25 7 24-9 22-16 17-18 9-22 0-26 15-18 19-16 21-14 16-21-12-24-27-4-23 6-28 14-21 18-17 22-14 25-8 28 0 32 4 31 14 25 20 21 22 16 29 8 24 1 28-5 31-9 23-8"/>
<path d="M12492 4821l-24 6 7 25 24 8 28 3 24 4-12 22-24 15-23 12-20 14-20 20-15 22-5 23 5 24 22 15 27 2 25-3 28-6 33-9 36-11"/>
<path d="M13305 4435l-11 21-11 27-6 27-5 23-7 29-8 34-7 25-6 25-7 28-7 27-8 28-6 26-8 26-8 34-5 31-1 27 1 30 5 24 13 23 19 17 25 5 27-4 24-8 24-14 21-16"/>
<path d="M13167 4772l-27-10-26-4 30 0 31-3 29-6 32-10 24-6 26-8 26-7 27-7 156-7-14 22-12 26-11 25-12 25-9 26-4 25-1 27-1 25"/>
<path d="M13532 4590l-23 11-4 28 3 25 8 27"/>
<path d="M13555 4772l 3 25-1 27-4 25-3 25-9 24 14-27 14-23 16-24 18-22 19-19 19-17 21-14 20 15-4 27-6 24-8 26-8 23 25-12 25-20 22-18 19-17 21-15 21-17 22-13 11 25-6 26 2 26 4 26 9 23 22 11 28-2 22-10 21-13 18-18 19-17 23-13 24-8 25-5 24-7 23-13-7-25-23-16-26-4-24 1-24 11-19 19-16 25-13 23-6 26 2 25 13 21 19 19 22 12 29 10 26 2 30-2 24-3 25-5 29-7 31-8"/>
<path d="M1794 7351l 25-6 26-7 27-9 27-9 27-12 29-12 30-9 27-9 27-9 23-5"/>
<path d="M1847 7375l-6 23-1 31-2 26-3 28-4 28-4 29-2 30-4 32-5 33-5 33-6 31-5 30-6 31-4 27 25-6"/>
<path d="M1845 7605l 26-15 23-8 27-10 29-9 31-10 29-9 26-6 23-6 25 0"/>
<path d="M1758 7828l 24 8 28 4 26 0 29-3 29-4 30-4 25-5 26-4 25-4 28-5 24-3"/>
<path d="M2468 7069l-22-12-26-7-25-1-28 0-26 2-25 2-25 5-12 22 4 28 5 25 4 31 2 30-2 35-1 26-1 28-3 30-2 31-3 33-3 34-5 34-4 38-6 36-7 37-8 38-8 38-9 38-8 37-9 35-8 36-9 35-7 34-6 33-6 31-5 29-4 26-4 33-2 28-2 24-1 25 3 27 15 20 25 0 25-2 27-2 29-2 28-1 28-2 27 1 24 1 28 3"/>
<path d="M2700 7526l 11-25 19-18 25-1 16 20 5 23 0 32-3 28-7 31-8 32-10 32-10 31-11 28-9 23-9 27-7-30 6-32 7-23 8-25 9-27 10-25 9-26 10-24 12-22 16-28 14-24 13-22 16-22 19-16 24 9 11 25 6 32 1 28-3 32-4 33-6 32-4 29-3 27-3 30-1 26 14-23 13-27 12-22 12-24 12-24 13-25 14-25 13-23 14-22 12-21 17-28 16-23 17-22 17-19 17 18-2 26-5 25-5 28-5 28-4 28-4 27 0 24 4 28 13 23 18 18"/>
<path d="M3355 7519l-1-27-5-26-17-18-26 5-21 16-17 18-21 22-20 24-20 27-17 26-16 28-11 23-6 25 9 25 25 3 29-11 27-15 28-19 25-20 21-20 17-19 15-22 10-23-25 4-8 28-5 27-3 28 0 24 7 24 18 18 24 9 28 0"/>
<path d="M3490 7513l 5-25 17-18 26 9 13 23 5 25 1 26 0 29-3 32-3 31 0 24 6 27 17 19 24 3 24-11 23-18"/>
<path d="M3685 7431l-24 12-18 18-19 22-19 23-17 22-20 26-21 28-15 22-16 22-17 21-16 21-16 19-23 25"/>
<path d="M4157 7095l-24 5-20 18-18 24-13 21-14 27-16 34-11 26-13 27-13 29-13 32-14 34-14 35-12 36-12 35-10 35-9 33-7 32-4 29-2 27-1 24 3 32 4 29 7 27 6 24 11 29 12 23 15 22 18 20 24 16"/>
<path d="M4310 7354l 23 8 0 33-4 34-5 26-7 27-7 29-8 29-8 30-7 31-9 30-7 29-7 29-6 26-6 34-1 28 1 28 15 22 27 3 23-14 24-23 20-19 21-24 23-25 22-26 22-28 20-28 18-28 18-29 16-28 14-28 13-25 11-27 10-26 9-25 7-25 7-23 7-31 6-25 6-27-15 21-10 25-11 29-11 31-9 35-8 33-7 34-7 35-5 35-5 33-3 31-2 28 2 24 4 28 9 28 15 22 19 16"/>
<path d="M4750 7757l-11 26-6 27-3 24-4 27-4 26-3 25"/>
<path d="M5021 7833l-13 23-10 25-12 25-13 26-11 22-10 22"/>
<path d="M5376 7432l-20 18-13 30-14 28-12 31-11 31-6 32-3 32 0 34 4 31 5 26 10 28 17 24 23 11 31-8 23-13 26-21 18-19 20-19 19-22 19-22 20-24 18-25 17-24 17-23 14-22 13-22 17-30 13-29 10-28 6-27 2-25 2-29-6-26-19 16-12 25-13 30-12 34-6 24-11 34-7 24-6 24-7 25-4 25-5 25-4 25-3 24-3 35 0 34 2 30 5 25 12 25 15 19 20 16"/>
<path d="M5758 7703l 23 8 21 16-3 24-15 19-21 19-24 17-21 15-17 18 25 3 25-4 27-6 25-9"/>
<path d="M5895 7270l 18 17 20 20 17 20 20 23 17 20 13 25 11 26 10 26 9 26 7 27 3 29 0 31-4 33-8 34-9 35-9 24-10 23-13 23-10 22-17 31-15 29-14 26-11 23-12 21"/>
<path d="M6118 7156l 25-3 26-2 28-5 26-4 27-3 24-3 6 26-1 25-1 28-1 25-1 29-2 32-1 35 0 25 0 28-1 28-3 29 0 30-1 30-1 32-1 35-1 35-2 37-1 37 0 38-2 37-1 37-1 35-1 35 0 33 0 30 0 28 0 25 1 34 2 30 0 27 1 24 1 26 0 26-6 23-23 12-24 0-27-5-25-4-28-2-28-2-25 0-28-1-28-4-22-11"/>
<path d="M6745 7610l 23-17 25-7 28-8 29-5"/>
<path d="M6739 7684l 27-10 24-3 29-1"/>
<path d="M8546 7630l-2 27-8 29-7 27-6 28-6 28-7 30-7 29-10 33-8 23-8 24-8 23-10 32-10 31-10 29-10 25-8 25"/>
<path d="M8540 7625l 6-25 17-21 22-13 27-9 26-5 28-2 30 0 30 4 27 7 23 12 15 19 10 24 1 29-10 27-14 23-19 26-23 26-16 18-25 25-25 23-25 20-29 17-27 16-27 14-22 11-23 8"/>
<path d="M9062 7454l-20 14-19 25-13 20-16 24-19 28-14 21-13 23-13 26-16 27-13 28-13 30-13 31-9 31-10 32-9 32-6 31-4 31-4 31-2 29-2 27 0 26 5 34 6 31 9 27 16 27 12 23 10 23 13 23 21 21 24 9"/>
<path d="M9164 7896l 14-23 20-16 25 8 3 28-6 23-8 26-9 27-11 24-11 23-12 24-12 22 9-27 12-23 16-26 16-26 15-25 15-23 20-25 16-21 16-18 16 21 1 28-4 29-5 29-3 26-5 24 27-8 17-20 15-20 16-22 15-19 18-20 18-17 16 19 0 27-3 28-1 26 7 25 26 9"/>
<path d="M9647 7894l-21-15-27 0-22 13-18 19-18 17-17 19-15 23 12 22 25-3 25-7 22-14 21-14 15-19 13 24 13 21 22 12 26 1 24-5"/>
<path d="M9776 7903l-7-24 10-23 25 1 14 20 15 21 13 25 13 22 12 23 19 17 25 7 25-1 25-12"/>
<path d="M9914 7828l-25 7-17 22-19 26-19 24-17 20-21 21-18 19-19 23"/>
<path d="M10320 7554l-24-2-22 17-18 21-17 23-19 27-14 25-15 27-15 30-10 22-10 23-9 24-10 27-9 26-7 28-6 27-6 27 0 26-3 34 0 31 1 28 5 26 7 24 9 29 9 25 11 26 12 21 14 24 14 19"/>
<path d="M10470 7763l-22 17-11 22-10 26-9 30-7 31-5 32-5 29-1 27-1 31 3 25 12 25 23 9 27-4 26-13 22-15 22-18 22-21 20-22 17-25 16-25 9-25 10-25 6-25 5-23 0-30 0-28 1-27-14 27-10 31-5 24-5 26-5 27-1 29-2 27 2 26 2 25 4 31 7 27 6 23 13 25 19 15 27 7"/>
<path d="M10785 8050l-11 22 0 24 2 27 4 28 1 27"/>
<path d="M10953 8148l-14 22-9 23-13 25-18 25-16 22"/>
<path d="M11123 7813l-7 25-5 26-5 24-3 25-4 26-1 26 0 25 4 31 7 25 13 25 21 13 25-1 24-12 21-15 20-17 19-22 16-23 17-26 14-27 13-28 12-30 8-29 2-27 4-31 1-24-2-24-16 21-9 27-9 30-6 28-7 32-3 35-5 34-2 34-2 31 4 29 5 26 7 25 11 26 17 23 21 16 26 6"/>
<path d="M11475 8044l 27 2 25 5 24 10 19 17-19 16-22 11-24 14-6 24 22 12 27 3 28-6"/>
<path d="M11653 7706l 19 19 20 17 17 17 18 18 20 19 20 20 19 21 17 24 15 24 12 24 8 23 7 26 7 27 3 29-1 30-7 32-11 31-13 31-19 29-19 28-18 25-21 23-23 19-22 20"/>
<path d="M12103 7924l 20-13 25-4 26-4"/>
<path d="M12046 8000l 27-2 26-3 25-2 29-2"/>
<path d="M12404 7919l 15-20 19-17 22-10 22 14 14 22 11 23 6 28 8 23 13 26 9 24 12 25 19 17 25 11 25 2 24-4 26-9 25-15 21-17"/>
<path d="M12648 7882l-26 11-20 15-24 18-18 17-17 25-17 18-18 19-19 19-20 22-19 22-18 21-15 22-11 23"/>
<path d="M12695 7570l 27 2 25 9 23 14 17 17 21 22 20 23 14 20 16 23 14 27 13 27 14 30 13 28 12 31 10 29 7 29 5 27 0 28-1 25-5 26-6 26-10 26-15 28-17 30-14 20-21 29-20 27-18 25-16 22-17 22-18 20-21 15"/>
<path d="M13186 7856l-22 10"/>
<path d="M13350 7851l 3-26 16-22 17-19 23-8 24 7 16 21 12 22 11 23 9 25 11 25 9 25 7 26 6 24 9 28 13 22 18 19 26 10 27 1 29-8 23-10 28-17 25-20"/>
<path d="M13659 7748l-23 8-19 16-21 24-18 21-21 23-20 28-19 28-20 30-20 29-14 19-14 21-20 28-17 25-16 25-12 24"/>
<path d="M7607 7086l-24 5-21 12-16 19 25 7 24-4 31-9 25-8 27-8 30-10 31-9 32-9 32-8 33-6 30-5 26-3 24-3 25-3 27-1 26 0 8 23-15 20-19 20-18 19-17 19-20 20-15 22-14 20"/>
<path d="M7538 7166l 23 12 24 8 23 8 22 10 23 11 22 12 22 14 24 20 25 19 23 20 18 19 16 19 12 23-1 28-12 28-17 23-23 27-17 20-21 21-21 21-26 23-25 21-25 24-27 23-23 22-25 23-25 21-24 22-23 20-22 19-19 17-18 17-23 20-18 19-15 19-11 22 23 12 31 4 26 2 31 0 34-2 26-1 27-2 28-2 29-2 30-2 30-2 29-1 30-1 31 0 30 1 32 2 28 3 27 2 35 4 31 3 29 2 25-1 27-4 27-7 23-11 11-25-1-28-5-28-12-24-16-25-16-24-14-21-23-17-25-8"/>
<path d="M7263 8268l 5-26 18-18 23 10 16 22 11 22 11 23 11 23 12 27 8 23 11 27 11 24 12 24 19 19 25-6"/>
<path d="M7499 8218l-27 5-21 13-22 17-23 20-17 18-19 20-21 21-21 25-18 24-15 21-12 22"/>
<path d="M7616 8240l 23-8 26-9"/>
<path d="M7586 8307l 25-5 28-7 25-6 29-5 25-7"/>
<path d="M7862 8192l-2 27 0 27 2 26-1 28-1 24-2 26-1 25-3 25-2 31-2 28-5 27"/>
<path d="M7681 6653l-8 23-4 28-4 28-5 30-6 24-6 25-5 24-4 24-6 24-5 24-5 26"/>
<path d="M7825 6648l-11 22-14 25-16 19-18 20-18 19-19 18-18 17-19 15-18 15 25 3 28-1 25 1 27 4 25 7 23 8 26 9 23 9 22 12 21 11"/>
<path d="M1901 9698l 0 27 0 26-2 27-2 24-2 28-4 29-4 33-5 33-5 35-4 24-4 25-5 27-5 25-6 23-8 34-8 31-7 29-6 27-8 28-7 23"/>
<path d="M1890 9739l 10-22 17-17 21-17 23-14 24-10 27-6 25 1 26 9 22 10 21 13 17 18 15 21 8 23 1 27-8 28-10 23-14 24-17 22-21 21-21 19-22 16-22 13-23 11-23 7-24 7-27 6-24 3-26 1"/>
<path d="M2452 9511l-22 15-14 22-13 21-15 27-16 29-12 22-13 25-12 25-13 27-13 29-13 29-14 33-12 33-11 33-11 33-9 33-7 33-7 31-6 32-4 31-3 30-2 30 0 27 2 25 1 24 7 30 11 29 15 27 17 25 20 21 21 17 22 15"/>
<path d="M2553 10048l 0 25 3 28 0 24-2 26-6 28-9 27-9 25-11 22 4-30 8-27 13-33 9-23 15-31 15-30 14-27 14-24 15-24 18-21 23-11 22 9 14 25 7 26 2 26-3 31-8 32-7 23-11 29-7 23-6 25 14-23 12-22 15-26 18-27 16-27 16-24 15-22 18-25 16-19 17-19 24 0 5 24 1 24-2 27-4 28-5 28-4 27 0 29 8 23 23 9"/>
<path d="M3094 10019l-23-9-25 3-22 12-18 17-18 23-18 24-18 25-13 22-3 25 23 9 26-8 22-15 21-18 19-17 17-17 17-21 15-22 3 27-3 24 2 25 10 24 21 17"/>
<path d="M3271 10018l 12-23 24-5 23 8 20 18 11 23 5 25 5 27 7 24 9 24 14 21 22 10 26-7"/>
<path d="M3448 9995l-27 8-21 18-20 23-16 19-18 18-21 23-19 25-19 24-15 20-15 22"/>
<path d="M3904 9652l-24 3-21 19-19 22-17 23-20 28-14 22-15 22-15 25-14 28-14 27-12 28-13 28-11 29-10 29-9 31-6 28-6 30-4 27-1 27-2 25 1 25 4 31 6 25 9 29 11 27 15 25 15 22 16 21 15 22 16 21"/>
<path d="M3991 9833l-11 24-5 28-5 24-7 26-8 30-8 32-8 32-9 32-6 31-3 27-1 27 7 24 17 18 26 9 26-6 26-12 27-16 18-16 21-19 20-24 22-26 14-19 20-30 16-30 15-31 12-31 8-29 8-30 4-29 2-27 1-30 0-24-22 13-10 23-11 24-8 25-9 25-7 27-8 28-6 26-6 26-2 24-2 25-2 28 3 25 6 27 11 27 11 23 18 20"/>
<path d="M4378 10216l 2 27 1 25 2 25 3 29 1 24 1 27-4 27"/>
<path d="M4665 10272l-11 27-9 23-12 26-11 22-14 25-12 22"/>
<path d="M4817 10267l"/>
<path d="M4912 10273l"/>
<path d="M5020 10260l"/>
<path d="M5156 10273l 4 27-12 24-15 24-18 20"/>
<path d="M5529 9873l-11 24-7 27-6 31-3 27-4 30-4 34-4 34-3 33-3 31 1 28 6 29 12 23 27 9 28-9 26-16 27-22 20-19 21-21 22-22 19-22 17-21 16-22 13-20 13-22 16-31 13-30 11-28 7-28 5-27 3-26 3-24 1-26-3-24-14 22-8 29-7 26-5 26-6 30-4 30-4 32-5 31-2 32-1 28 3 25 4 29 8 24 16 22 22 11 24-5"/>
<path d="M5935 10089l-9 25-8 26-4 24-2 25-6 26-8 25 11-21 15-25 16-25 14-25 17-25 17-22 19-18 21-11 8 24 1 28 1 26 0 25 0 26 11 22"/>
<path d="M6150 9680l 22 11 20 19 20 25 17 21 18 24 15 26 14 26 10 26 9 26 4 27 6 29 3 30 0 35-3 36-5 25-6 27-8 28-12 29-10 28-13 30-14 29-14 28-14 28-14 26-12 23-16 27-15 21-21 16"/>
<path d="M6458 10005l 26-11 29-5 25-4 25-3 25-2 25-2 26-1"/>
<path d="M6506 10075l 27 1 26-3"/>
<path d="M6940 10004l 14-20 22-13 25 1 21 17 12 22 7 29 5 27 2 30 2 25 2 25 2 31 6 24 13 22 23 13 27 2 25-8 28-16 23-14 22-18 20-18"/>
<path d="M7192 9989l-24 12-21 13-24 18-26 21-27 22-26 22-19 15-26 25-26 22-20 21-19 20-15 22-12 21"/>
<path d="M7209 9714l 25 10 21 16 21 21 18 20 19 22 19 25 18 26 17 29 16 30 15 31 12 31 10 33 4 33 5 35 0 35 0 24-3 24-5 25-5 25-7 25-10 26-10 26-12 25-13 25-13 23-14 21-15 19-21 28-18 23-19 19-19 18"/>
<path d="M7765 10070l 26-5 30-1 29-2"/>
<path d="M7717 10173l 27-7 30-3 24-1 27-3 28-3 28-3"/>
<path d="M8565 9589l 2-26-26 3-14 21-11 21-13 25-15 31-11 23-10 25-12 28-11 30-13 33-11 34-12 36-11 36-10 37-11 37-8 37-7 36-8 37-4 36-3 34-1 34 2 31 1 31 2 29 3 27 4 28 5 24 8 33 11 28 11 25 12 24 16 27 15 23 14 22 15 22 15 20 19 16"/>
<path d="M8733 9705l 18-17 22 10 19 18 14 23 14 27 14 23 15 24 14 24 11 21 16 23 19 16 28-6"/>
<path d="M8984 9671l-25 6-24 15-21 16-22 21-21 23-16 20-16 22-15 22-13 22-16 26"/>
<path d="M8580 10098l 28-5 26 0 26 1 29-1 32 0 28-2 30-1 30-3 30-3 30-5 29-4 28-3 26-2 30-1 30-1 29 0 27 0 26 1 25 5"/>
<path d="M8762 10220l-8 25-6 28-3 27-4 31-6 31-6 31-4 31-5 25-7 25-6 30-6 26-1 25"/>
<path d="M8905 10245l-11 22-12 22-12 21-17 23-19 21-18 16-25 15-23 13-22 11 24 9 28 3 27 4 25 5 28 8 29 8 26 10 22 9 23 11 22 10"/>
<path d="M9245 9617l 20 14 16 22 22 23 18 21 18 22 19 22 21 21 19 26 16 29 11 23 12 22 8 25 10 26 7 26 7 26 6 27 3 28 2 29 0 30-1 32-4 32-4 34-6 33-8 33-6 35-9 34-8 32-10 33-9 30-9 27-9 25-12 31-14 30-15 26-14 21-23 19-24 10"/>
<path d="M9561 9548l-9 28-3 28-2 27-2 25-6 25 15-22 6-25 1-28 0-27-1-26-2-27-2-25 2 27 8 28 13 26 15 27 15 26 17 24 18 19 20 14 25 11 24-8 19-21 16-26 11-22 10-30 5-31 0-30-5-29-12-25-14-25-16-18"/>
<path d="M10002 10075l 21-16 27-6 30-5 27-3 28-4"/>
<path d="M10651 9551l-23 15-15 24-12 23-11 26-9 25-10 29-8 24-8 26-9 30-10 33-11 37-11 41-10 44-11 46-8 46-8 47-6 45-4 45-2 42 0 41 2 40 3 39 5 37 6 33 7 31 8 29 9 25 9 22 13 31 12 24 12 21 17 24 16 23 16 23 18 18 22 15"/>
<path d="M10853 9710l 16-18 23 7 13 21 15 25 10 28 9 23 10 27 10 25 11 24 14 22 20 16 25-1"/>
<path d="M11029 9730l-25-2-23 12-19 15-24 23-20 21-21 22-19 21-18 18-14 21-11 24"/>
<path d="M11161 9783l 24-11 25-5 27-3 25-2"/>
<path d="M11506 9628l-2 29 3 30 0 24-1 27 0 27-2 28-1 28-2 28 3 25 1 27 0 26-3 27"/>
<path d="M10783 10101l 24-1 27-1 25-2 35-1 27 1 28 0 32-1 35-2 35-3 39-1 38-2 40 0 41-1 44 0 45-1 41-1 41-1 40 0 39 1 38 1 36 1 33 2 30 1 28 3 25 3 35 7 28 6 24 9 10 22-19 16"/>
<path d="M11144 10232l-5 23-6 29-5 26-6 30-5 30-7 31-7 29-7 30-6 27-3 24-2 26 2 26"/>
<path d="M11325 10294l-26 11-19 16-21 18-20 16-21 17-23 18-25 16-18 16-17 17 12 22 25 3 27 3 25 5 26 6 26 4 24 4 30 3 25 2 28 0 25 2"/>
<path d="M11746 9593l 14 24 16 26 13 20 16 26 16 27 20 28 19 29 20 30 12 21 15 22 11 22 11 23 10 22 8 24 8 27 7 27 5 28 3 29 3 29 2 30-2 30-2 29-3 32-6 33-5 34-10 35-10 34-13 35-12 34-14 32-13 31-12 28-13 25-13 24-11 22-17 29-14 25-14 22-25 0"/>
<path d="M12064 9502l-5 23-2 27-1 29 0 29-3 28-7 28-11 25-12 25 2-25 8-25 10-28"/>
<path d="M12087 9486l 6 28 2 27 8 26 14 25 15 23 18 21 20 19 20 15 24 13 28 6 25-10 18-19 17-27 10-24 6-25 3-27-1-26-4-26-3-27-6-24-9-27-12-24-12-22"/>
<path d="M12994 9953l 4 27 3 25 7 25 9 25 10 24 10 23 23-20 12-24 17-32 12-23 11-23 12-24 9-23 6-25 9-23 7-24 12-32 8-27 8-28 5-24 10-24"/>
<path d="M8552 11710l 9 23 5 25 3 30 3 28 2 29 1 28 1 26-2 27-2 26-3 28-3 25"/>
<path d="M8419 12161l 27 7 24-1 30-1 25-3 27-5 28-4 31-4 30-5 30-5 31-6 31-6 29-6 29-5 26-4 25-3 27-4 26-3"/>
<path d="M8694 12307l 23-11 30-3 27 1 29 3 24 6-2 24-20 19-19 14-20 16 23 10 26-3 28-2 28 3 24 9 20 16 11 24-3 25-9 24-12 21-19 23-24 18-26 13-27 4-26 2-28-2-26-10-21-19-8-25"/>
<path d="M8287 11668l-25-1-19 23-16 26-15 29-14 34-11 26-10 27-10 29-9 33-8 33-8 36-6 36-6 38-3 37-1 36-2 39 1 37 1 39 4 38 6 35 7 34 8 31 12 30 11 28 13 27 14 24 14 23 17 21 17 19 19 18 20 16 20 14 21 13 31 16 32 14"/>
<path d="M9042 11656l 9 26 10 27 11 26 13 29 17 28 18 30 20 29 12 23 12 24 11 22 11 25 11 25 8 25 7 28 4 28 2 28 1 30-1 29-3 29-3 29-6 31-8 30-6 30-10 29-10 28-11 28-11 27-13 27-9 23-15 30-11 28"/>
<path d="M9411 12132l"/>
<path d="M9895 11782l-2 30 5 34 6 31 5 35 1 25 2 25 3 29 0 30 1 32 1 33 0 34-1 33 1 36 0 32 0 31 0 32 0 28 1 29 0 25 1 24 2 32 4 27 3 27 3 29 5 24"/>
<path d="M7638 13432l 25-12 30-2 25-4 31-5 26-4 27-5 27-5"/>
<path d="M7781 13332l-10 25-1 25 2 30 3 32 4 26 4 24 6 24 9 24 10 25"/>
<path d="M8553 13172l 17 17 0 26-3 27-5 24-8 26-6 27"/>
<path d="M8329 13492l 25 2 24-1 31-3 28-1 32-4 33-6 33-4 33-4 33-5 30-3 30-5 29-5 26-4 24-4 27-7 25-2"/>
<path d="M8498 13628l 18-20 23-12 27-8 30-3 27 1 24 4 7 24-16 22-19 17-18 17 17 19 25 5 25 1 22 11 4 24-13 21-16 21-18 20-22 14-23 13-21 11-30 10-30 7-24 3"/>
<path d="M8217 13215l-19 18-14 24-11 23-14 27-14 33-10 26-10 27-9 30-7 31-7 34-5 35-5 35-2 36 1 35 0 35 3 35 5 34 7 33 8 32 11 30 14 29 15 30 20 29 20 25 21 24 23 21 27 17 28 15 32 10 31 4 32 2"/>
<path d="M8865 13170l 23 18 20 27 18 27 19 28 19 26 19 31 13 20 16 31 16 30 12 32 13 30 10 32 8 32 6 35 2 36 0 25-1 25-5 27-6 30-7 27-9 27-9 26-10 26-12 28-10 25-12 26-11 23-14 31-14 24-14 25"/>
<path d="M9279 13622l 23 13"/>
<path d="M9570 13412l 21-13 27-3 26-7 27-4 25-3 29-1 25 1 28 5 25 8 25 13 20 18 9 26 1 30-2 27-7 28-10 30-10 21-14 23-17 22-21 21-24 22-30 21-19 16-20 14-19 14-28 22-26 19-26 21-20 16-22 19-15 18 19 16 27 0 28-2 31-4 29-3 25-5 26-7 30-3 28-3 28-1 25-4"/>
<path d="M7764 15195l 25 3 27-1 24-4 24-6 24-7 21-12 22-18"/>
<path d="M7825 15097l-5 25 5 28 6 29 6 25 7 27 6 27 7 25 11 23"/>
<path d="M8325 14756l 14 22 5 24 3 29 1 24 4 30 0 26-5 26-4 24-9 28-7 24"/>
<path d="M8184 15168l 27 2 25-4 25-3 27-3 28-6 30-6 33-6 34-4 32-4 31-4 29-4 27-3"/>
<path d="M8394 15311l 20-15 28-9 29-9 24-3 32-1 24 1 13 20-12 23-18 21-19 19-16 20-11 21 6 23 24 2 27-1 22 11 1 25-11 25-18 25-20 18-19 15-26 17-29 14-24 7-26 4-27 0-27-3-26-9"/>
<path d="M8147 14770l-13 22-7 26-7 28-7 36-5 27-4 28-5 31-6 32-5 35-5 36-3 40-3 38 0 41-2 39 0 38 1 38 1 38 3 37 6 36 6 36 10 35 9 36 13 31 15 29 17 28 20 24 21 22 23 18 23 14 26 13 26 9 27 7 29 6 29 3 28 1"/>
<path d="M8722 14778l 19 23 15 29 13 26 14 33 10 23 11 25 13 27 12 25 10 28 12 27 9 27 8 28 9 30 5 31 5 32 3 31 2 32 0 31 0 33-3 32 0 31-4 31-5 31-7 29-7 28-8 27-6 24-11 30-10 23"/>
<path d="M9223 15231l"/>
<path d="M9500 15010l 25-8 29-1 30-2 31 3 30 8 24 8 23 17 5 23-14 24-16 19-18 17-24 17-18 16 18 20 26 2 30 1 25 4 26 4 24 5 23 6 31 9 26 12 21 16 16 19 4 28-6 25-10 22-13 24-17 27-19 23-21 22-23 19-22 16-23 11-26 10-25 10-27 5-27-1-27-4-30-12-27-16"/>
<path d="M11989 13640l 17-18 28-7 28-5 30-6"/>
<path d="M12059 13706l 27-6 29-5 30-6 28-6 29-7"/>
<path d="M12516 13408l 22-11 26-1 25 4 29 7 24 6 26 6 28 7 30 7 28 10 25 10 26 16 17 19 9 22-1 25-13 29-19 25-27 25-20 19-23 18-26 19-26 20-27 19-26 19-27 19-25 18-26 16-22 15-27 20-17 17-15 19 10 22 25 6 27 1 31 0 34-3 25-5 26-5 30-5 29-4 26-5 27-4 32-5 31-2 25 0 29 4"/>
<path d="M2420 17423l 27-8 25-5 24-3 29-4 31-7 29-7 30-7 30-8 30-11 29-10 28-10 23-10 21-13"/>
<path d="M2497 17454l-5 27-1 31-2 28 0 28 0 30-2 33-3 34-2 36-2 26-2 26-3 27-1 27-4 25-3 32-4 29-5 31-3 27"/>
<path d="M2498 17666l 27-12 25-8 27-7 29-3 25-3 24-5 32-3 28 1 25 2"/>
<path d="M2473 17948l 26-8 27-6 30-6 24-6 25-5 26-5 25-6 25-6 26-4 25-5 24-3"/>
<path d="M3121 17555l 28-3 27-2 25-3 29-5 28-6 27-1"/>
<path d="M3143 17657l 27-11 28-5 28-3 32-5 30-4"/>
<path d="M3960 17069l-25 0-17 21-14 25-11 26-14 34-10 27-11 31-12 34-10 37-12 38-11 42-11 42-10 44-10 46-8 43-7 44-5 39-6 39-3 36-1 35 1 34 3 34 4 31 5 28 5 28 6 23 7 24 10 34 11 31 11 27 13 27 13 21 17 23 16 19 16 19 18 17 14 19"/>
<path d="M4198 17059l-1 25-1 29-3 32-1 24 0 26 1 27 0 27-1 29-2 29 0 27-1 28-2 25-3 29-4 25"/>
<path d="M4383 17080l-22 17-19 18-24 22-17 18-22 20-19 20-16 20-16 23 7 23 28-3 27-4 26 3 24 6 26 11 26 6 21 14 22 10 23 9"/>
<path d="M4046 17583l 27-11 25-7 30-9 27-7 33-9 31-7 29-3 31-6 31-6 31-8 30-1 28 1 26 0 24 0 29 0 27 0 26 0"/>
<path d="M4217 17681l 9 23 8 24 5 27 3 32 1 25 0 31-2 31-3 33-3 31-3 31-3 27-2 28"/>
<path d="M4432 17710l-25 12-19 15-20 16-19 17-21 20-19 16-13 22 13 21 27 6 24 6 26 2 27 2 24 2 25 2 29-1 24 3 25 3 25 7"/>
<path d="M4665 17127l 20 14 24 16 26 20 19 18 19 20 19 23 19 28 18 31 11 22 10 24 9 25 7 28 7 28 3 29 3 31 2 30 1 32-1 33-2 32-4 33-6 34-5 34-5 37-6 33-7 33-8 29-9 31-8 26-8 24-9 24-13 28-10 26-14 24"/>
<path d="M5036 16883l 0 24 0 28 1 26 1 30 0 25 0 26 0 27-1 24-3 26 0-28 1-28 0-29"/>
<path d="M5028 16899l 17 21 16 24 13 22 14 25 16 24 19 22 23 17 25 11 26-6 16-25 10-29 9-31 7-30-2-30-6-26-11-25-11-22"/>
<path d="M5519 17168l-3 29-2 24-3 29-2 33-2 36-2 26 0 27-1 28-1 29-1 27-1 30-1 30-1 29-2 32-2 27-2 26-2 35-4 32-4 26-3 30-6 24"/>
<path d="M5690 17311l 9 24-7 24-14 25-17 20-19 22-22 21-21 22-20 19-20 21-19 18-23 17-20 18-15 19 23 9 25 5 27 0 29 2 31 4 31 5 29 12 26 10 23 11 25 15 21 18 18 21 11 22"/>
<path d="M6127 17503l 24-5 28 2 24 1 25-1 25 1"/>
<path d="M6788 17030l-23 10-19 22-19 27-14 26-14 30-9 24-10 26-8 28-9 30-9 30-7 32-6 33-4 35-4 36-1 36 1 35 1 36 5 36 6 36 7 32 10 29 9 27 11 23 11 25 12 22 17 28 18 22 21 21 19 21 19 18"/>
<path d="M7010 17032l 4 28 1 27 1 31 0 24 0 24-1 25 0 26-2 26-2 25-6 31-4 28"/>
<path d="M7173 17027l-18 20-18 19-18 16-19 20-22 20-18 19-16 19-16 20-13 22-1 24 25 11 26 1 26-4 26-3 24-1 26 3 25 2 27 5 23 10"/>
<path d="M7260 17159l 29-5 24-3 24-3 28-6"/>
<path d="M7566 17049l-10 24 4 26 6 26 10 24 7 25"/>
<path d="M7039 17408l 25 2 28 0 26 0 29-2 31-1 25-1 37-2 26-3 28-1 30-3 32-3 31-3 32-2 31-2 31-2 28-2 25-3 27-2 26 0 25-1 34 0 28 0 28 2 25 5"/>
<path d="M7252 17546l 3 27 0 31 1 26-2 30-1 27-1 24 2 31 0 30-2 26 4 25"/>
<path d="M7437 17533l-23 13-19 20-20 17-18 17-15 19-16 18-19 22-12 22 2 25 26 9 27 4 29 0 28 3 31 0 24-2 30-3 28-1 25-2 28 1 26 1"/>
<path d="M7804 17023l 25 1 20 20 21 21 14 21 15 26 14 30 9 23 7 25 8 28 7 28 8 28 5 30 5 30 3 32 3 33 3 34-1 35-2 36-2 34-4 35-3 33-4 33-5 32-4 31-5 29-6 28-9 27-8 24-15 30-14 24"/>
<path d="M8047 16880l 4 27 1 25 0 29-3 30-2 25-5 27"/>
<path d="M8027 16849l-2 27 11 26 12 23 17 24 20 23 22 22 19 19 17 19 21 14 27 1 22-16 12-21 8-26 5-27 2-30-3-24-7-28-8-25-12-26-14-26"/>
<path d="M8493 17091l-6 26-2 29 0 28 0 31 2 34 1 35 2 34-2 25 0 28 0 25 0 26 0 25-1 24-2 25-2 25-3 33-3 30-2 24 4 25"/>
<path d="M8672 17160l-17 23-11 22-15 25-15 24-15 26-12 21-16 25-17 20-15 19-2 25 24 12 27 5 27 6 24 5 24 6 24 6 27 10 26 12 23 9 22 13"/>
<path d="M9084 17328l 24 0 24-2 30 0 26-3 24-3"/>
<path d="M9176 17244l-12 24 2 27 5 29 10 25 11 25 12 22"/>
<path d="M9824 16973l-24-5-21 19-15 19-14 28-18 30-13 23-13 24-12 25-13 26-13 28-11 31-9 33-6 33-4 34-5 34-3 34-3 33 0 33 2 32 5 31 6 31 8 28 9 25 9 24 15 30 16 25 16 20 22 23 22 16 26 9 27-1"/>
<path d="M9965 16961l 9 23 5 29 3 29 5 27 5 31 5 28 3 27 1 29 2 25-2 24"/>
<path d="M10133 17007l-23 12-19 19-14 22-16 18-17 19-16 19 13 24 28 7 26 4 26 3 26-2 25 1"/>
<path d="M10324 17063l 28 1 25 0 24 1 28-4"/>
<path d="M10624 16965l-9 23 4 26 9 26 7 25 6 26 2 26-2 25"/>
<path d="M9915 17399l 26-8 25-1 32-4 25 1 28-4 30-4 32-3 33-5 33-3 34-2 36-2 36-1 36-1 35-2 35-1 35 1 37 0 36 1 36 2 34 1 31 1 33 1 31 0 30 1 29 2 27 2 25 1 33-2 28 0"/>
<path d="M10320 17527l 8 23 4 29 2 31 1 25 5 27-1 29-5 29-1 30-2 26 2 27 11 23"/>
<path d="M10543 17564l-25 13-22 19-19 15-23 19-19 17-18 15-24 16-22 15-22 17-18 16 17 19 25 2 26 1 29 0 31-1 24-2 24-1 32 0 31 1 26 1 24 1"/>
<path d="M10954 16863l-11 25 6 24 14 31 18 21 20 23 25 24 16 19 16 18 18 19 17 19 16 21 18 21 15 21 14 22 12 23 9 24 10 27 7 26 7 28 3 31 2 29 0 30-1 31-3 27-4 30-5 31-7 31-8 31-7 30-11 27-9 27-10 24-11 22-16 30-20 25-22 21-23 19-24 12"/>
<path d="M11247 16765l-11 26-7 27-5 23-7 27-7 28-6 26-7 25-6 28"/>
<path d="M11206 16759l 21 16 21 20 20 17 18 20 15 21 17 25 15 23 16 18 17 23 20 18 24 10 23-16 15-22 11-29 8-27 3-24 2-26 1-26-1-27 0-25-5-30-8-23-5-25"/>
<path d="M11766 16916l-15 21-20 24-13 25-16 29-12 34-9 24-8 24-6 26-8 24-7 28-6 28-6 30-5 30-5 30-4 30-3 31-1 32 0 34 0 35 2 34 3 34 3 29 6 28 8 26 13 31 17 26 16 19 24 16 25 5"/>
<path d="M11884 17118l-8 29 3 32 2 30 5 32 2 34 2 24 3 25-1 25 0 27 0 25-3 36-2 34-1 31-1 27-1 28"/>
<path d="M12059 17211l-22 11-20 19-22 21-17 17-17 18-18 19-17 21-16 20-13 25-8 24-1 24 18 20 24 7 30 7 25 8 25 6 29 3 25 6 25 0 27-2"/>
<path d="M12294 17324l 24 4 30 3 26 1 29 0 27-1"/>
<path d="M12614 17243l-3 27-1 24 3 30 2 27 0 31-2 30-4 31-3 24-3 26-3 27"/>
<path d="M12683 17058l 18 16 22 16 22 15 21 16 22 18 19 21 21 23 22 25 19 25 15 24 13 25 10 28 6 27 3 31 1 29-5 28-10 34-9 22-12 22-12 24-14 22-18 31-18 28-18 23-20 19-25 19"/>
<path d="M13052 17269l 25-3 24 3 24 2 25 1"/>
<path d="M13529 16813l-24 13-13 24-13 30-11 28-15 31-10 24-9 24-10 27-8 28-9 27-7 27-5 28-6 26-4 26-3 26-5 27-2 35 0 25 3 34 3 35 5 31 6 31 6 28 7 25 7 25 9 22 11 25 12 26 18 24 20 17 18 18 22 12 24 3-2-25"/>
<path d="M13745 16727l 2 25-2 30-3 25-2 24-1 25-1 26-1 25 0 26-3 30-2 25-3 25 2 27-3 24"/>
<path d="M13897 16739l-16 22-16 23-16 21-15 20-18 23-17 20-16 20-13 21 20 16 27 3 25 3 28 3 25 3 29 3 26 4 27 3"/>
<path d="M14082 16877l 23-8 28-3 27-5 26-1"/>
<path d="M14427 16784l 23 15 22 11 23 12 18 16 6 25-20 19-21 19-21 15-19 15-22 16-18 16 17 20 26 7 29 2 28-2 26-2 24-3"/>
<path d="M13664 17176l 29-2 27-3 27-3 30 0 33-2 34-1 28 0 31 0 37-1 36-3 35-2 36 0 34-1 39-2 40-1 39-2 41 0 37 0 40 0 39-1 37-1 37 1 37 0 32 0 31 1 29 2 27 1 34 1 29 1 25 5"/>
<path d="M14060 17334l-10 23-6 32-6 28-5 28-7 28-8 34-7 35-6 24-7 29-6 25-3 25 11 21"/>
<path d="M14249 17396l-26 10-24 17-21 14-21 16-25 20-19 17-22 22-19 19-6 23 25 6 26-3 27-1 27-2 30 1 25 0 24-1 24-3 24-3 24-4 30-8"/>
<path d="M14678 16763l 24-6 24 11 22 12 22 18 23 20 23 23 17 17 22 27 22 29 12 21 15 32 10 32 8 34 4 34 4 34-2 33-5 36-6 25-6 27-5 26-8 28-8 27-12 28-12 30-14 29-15 31-13 28-15 29-15 27-15 24-12 24-19 28-17 20"/>
<path d="M14947 16744l 3 27 1 28 2 24 4 28 3 24-2 25 0-24 0-26 0-27-4-25-2-26 1-25 8 26 16 19 16 22 17 18 18 16 23 16 24 13 27 4 26-11 17-23 10-28 0-27-6-28-9-28-6-25-11-25-13-22"/>
<path d="M15414 16826l-19 16-18 24-14 21-15 22-13 24-13 26-14 27-12 29-13 29-11 30-10 31-9 31-8 31-7 31-7 29-5 28-2 27 0 26 2 27 3 25 5 25 11 33 14 25 19 21 26 20 24 9 25 3 31-5 26-13"/>
<path d="M15574 16911l-20 17-1 24-1 25 2 29 3 35 3 26 3 30 3 27 1 27 1 29 0 27-3 29-1 28-3 25-2 24-1 35-4 33-5 30"/>
<path d="M15733 17004l-14 25-16 23-14 19-18 21-18 20-23 18-22 19-19 20-18 23-13 22 2 24 20 15 25 6 28 6 30 6 30 5 26 3 28 6 25 4 25 1 25 0"/>
<path d="M15936 17099l 24 2 28 3 29 1 29 0 25-1 26-3 24-1 27-3"/>
<path d="M16342 16960l-5 26 0 29 6 31 8 25 6 29 5 28 3 26 4 26 0 27 0 26-3 29-2 28"/>
<path d="M16433 16823l 18 20 23 21 18 19 19 20 20 22 22 23 22 25 21 28 18 28 17 27 11 27 11 27 6 25 5 24 1 30-4 29-6 29-8 23-16 23-20 21-19 16-23 16-26 16"/>
<path d="M16995 17046l 25-2 30-1 24-3 25-3 23-7 24-6 29-11"/>
<path d="M17149 16932l-15 20-5 26-1 29 1 28-1 29 1 25 5 25 7 23"/>
<path d="M17475 17190l"/>
<path d="M17662 17193l 27-5"/>
<path d="M17803 17190l"/>
<path d="M3234 19170l 24-11 27-5 29-6 23-8 27-8 26 3"/>
<path d="M3299 19282l 26-6 29-6"/>
<path d="M3898 18760l-23-9-16 25-12 22-12 27-13 33-11 27-11 30-11 33-11 35-10 36-11 36-9 35-8 37-7 36-6 36-5 35-2 33-2 35 0 34 2 32 2 34 2 31 3 33 4 32 4 32 5 30 4 28 5 25 5 24 6 24 9 35 9 31 10 26 12 28 12 25 17 21 17 20 19 17"/>
<path d="M4117 19006l-6 27-2 31-1 30-1 30 0 34 0 24 1 26 1 25 1 27 1 27 1 27 0 28 2 28 1 26 1 28 2 26 0 26-1 25-1 32-1 26-3 25-1 24"/>
<path d="M4226 18820l 26 8 20 14 23 17 20 15 19 16 18 19 19 23 17 24 18 28 15 30 14 34 8 23 8 27 5 27 6 31 3 33 2 33-2 40 0 36-3 36-2 34-2 32-6 35-6 34-9 34-7 30-8 27-8 26-12 35-12 31-10 26-10 24-14 21"/>
<path d="M4511 18661l 19 15 6 24-2 28-7 27-11 26 3-25 3-24 2-24-2-24-2-29-4-27 18 19 19 24 18 26 11 21 19 23 18 16 24 15 25-6 13-23 9-27 5-24 3-30 0-28-2-28-4-28-5-24-6-23-9-23"/>
<path d="M4894 18861l 10 23 4 25 5 32 1 30 1 36 0 24 0 25 0 26-1 29 0 30-2 35-1 32 0 32-2 32-1 31-1 29-1 30-1 25 0 27 0 26 3 32 0 27 2 27"/>
<path d="M5128 18979l-11 25-12 20-15 21-17 24-18 24-20 24-17 20-15 18-16 23-11 22 6 24 23 10 27 10 24 11 23 16 26 16 22 9 22 12 22 13 26 15 23 16 22 15 22 10 20 16"/>
<path d="M5564 19160l 24-8 26-9 21-13 24-9 26 6 25 2 24 3 25 0"/>
<path d="M6474 18614l-20-16-23 14-21 19-16 20-18 24-16 28-12 23-12 26-13 27-12 30-12 32-11 34-10 35-8 36-7 38-6 38-6 37-3 39-2 35 0 34 4 33 3 29 4 30 6 29 5 29 8 28 7 25 8 23 10 28 10 31 10 28 11 27 13 27 14 24 12 22"/>
<path d="M6649 18688l 17 17 8 26 1 33-3 29-3 31-3 31-3 28-3 32-3 30-3 29-3 31-2 28"/>
<path d="M6847 18669l-19 18-15 24-14 22-14 21-17 20-19 18-19 19-19 19-17 17-12 21 19 18 28 6 26 3 26 7 26 5 27 9 27 7 24 9 26 4 26 0"/>
<path d="M7036 18834l 28-8 25-5 27-4 26-3"/>
<path d="M7353 18689l 5 27 12 21 6 27 4 30 3 26 3 27 3 28"/>
<path d="M6761 19083l 26 2 24 2 32 1 29-3 31-4 32-5 34-4 34-6 24-2 26-3 29-2 28-1 30-2 29-2 29-3 30-4 28-1 28 0 27 0 25 1 25 1 35 0 32 1 29 1 24 0"/>
<path d="M7042 19215l-5 27-1 25-2 29-1 26-2 24-3 27-3 25-1 25 0 27 3 29"/>
<path d="M7230 19199l-23 10-24 15-19 20-17 16-20 17-26 16-19 15-18 17-4 25 25 11 25 0 28 2 25 1 27-2 29-2 29 0 25 2 28 4 26 6"/>
<path d="M7583 18585l 26 6 19 17 16 20 18 18 21 21 20 21 19 27 20 29 17 31 11 24 8 23 8 26 7 26 4 28 4 30 3 30 2 32 2 29 0 32-2 31-1 31-5 34-6 33-6 33-8 34-7 33-8 30-10 29-9 27-10 26-11 27-11 27-13 26-13 24-15 22-23 26-21 19"/>
<path d="M7876 18590l 2 27 2 28 0 27-5 26-4 27-7 25 4-25 7-30 4-29 0-29 1-26-1-24 14 25 16 20 19 22 18 24 21 21 17 17 23 18 24 9 26-5 15-20 12-22 10-27 7-30 1-27-2-27-7-25-10-25-12-21"/>
<path d="M8355 19091l 19-15 26-8 25-8 28-2 26 0 25 6"/>
<path d="M9187 18602l-9-23-26 8-16 21-16 24-18 31-13 23-13 27-14 27-13 29-13 28-11 31-10 32-10 32-7 33-5 35-4 35-2 35 0 36 2 31 4 31 5 32 6 30 8 29 8 28 8 25 8 25 9 24 12 35 14 25 13 22 19 20 20 19 19 17 20 16"/>
<path d="M9370 18601l 0 26 6 24 8 26 5 25 3 26-2 29-4 31-8 24-10 25-6 23"/>
<path d="M9508 18619l-17 17-18 18-16 19-16 17-20 19-21 18-21 14 17 23 23 10 23 9 24 9 26 10 27 9 25 7 22 15"/>
<path d="M9729 18698l 24-6 31-2 24-5 26-2"/>
<path d="M10033 18560l 23-6 25 2 23 7 25 14 20 19 11 24 5 25-4 24-12 23-18 19-18 18-18 17-21 17-16 19 16 18 26 6 26 3 24 2 28 4 24 4"/>
<path d="M9396 19003l 23-12 26-2 25 3 30 2 26 1 26 2 30 1 25 2 27 0 30-1 32-1 33-1 36-2 35 0 38 0 37-2 33-3 34-3 33-3 34-2 32-2 30 0 27-3 26-2 33-4 28-1 27-3"/>
<path d="M9767 19090l-9 25-4 30-1 25-4 28-2 25-2 25-2 28-3 25-4 28-3 31 1 27"/>
<path d="M9933 19125l-20 17-22 20-20 20-21 19-25 17-21 14-20 16 5 25 25 9 27 6 25 3 25 6 30 1 25-3 26 0 24-1 25-1 28 2 26 0"/>
<path d="M10400 18526l 24 0 21 20 17 23 18 27 17 24 17 26 16 27 14 32 14 32 7 25 7 26 4 27 4 32 0 30 0 32-4 34-5 34-6 36-6 37-10 37-9 34-10 35-12 34-10 31-10 33-9 29-13 28-11 26-10 24-15 30-14 24-17 23"/>
<path d="M10672 18468l 10 24 1 25-5 26-11 23-9-24 3-24 2-27 4-25 18 22 14 23 12 22 13 23 19 22 18 16 25 10 20-16 9-25 4-30-1-26-5-28-8-26-9-27-8-24-3-26"/>
<path d="M11318 18880l 24-8 30-4 28-4 29-2 28 0 26 4"/>
<path d="M11716 18990l 25 5"/>
<path d="M11849 19010l"/>
<path d="M11945 19028l 25 8"/>
<path d="M12582 18850l 23-9 27-4 26-4 28-3 26 0 27 0 29 1"/>
<path d="M13420 18474l 7 27-1 28 4 25 4 28 6 24 1 27-3 27"/>
<path d="M13211 18841l 25-6 30 1 33 3 30-1 32 1 33 0 34 0 25-1 25 0 26 0 36-2 24 0 31 0 29 2 29-2 26 0 24 2"/>
<path d="M13345 19011l-2 27-1 25 3 31 1 26-1 27-3 29-2 25 3 30 6 28"/>
<path d="M13533 19004l-22 17-16 24-17 20-16 21-15 19-16 22-18 19 1 24 24 8 27 0 27-1 27 1 28-2 28-5 26-3 24-6"/>
<path d="M13275 18471l-18 23-15 22-17 26-17 30-12 22-13 23-14 26-11 27-12 27-13 31-9 32-11 34-10 36-5 36-6 36-5 38-3 35-1 36 1 36 4 28 7 31 7 28 9 25 10 27 12 24 15 21 16 23 19 18 19 16 21 14 23 13 22 10 34 9"/>
<path d="M13798 18482l 25 13 25 20 21 17 23 20 26 25 23 29 14 21 13 25 10 28 11 32 10 32 7 33 6 32 3 30 3 33 0 32-3 32-3 31-9 32-7 30-4 25-6 24-8 33-13 31-14 25-19 24-19 21-25 15"/>
<path d="M14073 18349l-3 25 0 30 5 29 9 30 8 28 7 27 6 29 2 25-3 25 4-26 4-27 6-25 4-28 2-28 0-24-4-26-2-27 12 21 16 25 16 18 22 23 16 23 21 17 19 15 26 11 26-5 20-15 19-22 14-22 14-28 5-31 2-29 2-29-5-24-9-23-10-23"/>
<path d="M3255 21347l 24-8 26-6 27-7 26-8 25-8"/>
<path d="M3279 21451l 23-13 23-5 26-5 27-4"/>
<path d="M3841 21195l 1 28 2 28 2 29 3 32 3 25 1 26 2 25 0 25 0 26 0 26 0 24 0 25 0 26-1 25-1 25-1 31 0 27 1 24 0 25"/>
<path d="M4146 21191l-19 19-18 23-21 25-18 21-22 24-24 27-18 18-20 16-19 16-28 22-25 23-20 20-21 21-16 23-8 25 19 19 26 3 26 2 28-2 30 0 31 2 29 6 30 5 29 7 26 8 22 13 23 14 20 14 19 16"/>
<path d="M4303 21084l-2 27-1 26-1 28-2 28-2 27-5 24 8-24 8-28 5-24 3-31 3-26 0-28 3 28 10 28 12 25 14 21 20 19 23 10 24 0 23-13 17-25 10-27 4-29-2-26-5-27-8-23-13-21"/>
<path d="M4545 21085l 24-3 26 3 24-1"/>
<path d="M4594 21041l-9 23 6 23 9 24"/>
<path d="M4713 21009l 8 25 9 23 7 26 5 27 4 25 3 27"/>
<path d="M5613 21108l-22 11-20 21-13 23-12 31-11 25-10 29-11 33-7 25-7 25-6 25-4 25-3 26-4 25-2 25-1 25-1 36 1 32 4 31 6 28 4 25 11 27 16 22 20 19"/>
<path d="M5726 21207l-1 27 2 25 3 30 3 26 1 28 2 31-1 31-2 31-4 30-7 30-4 27-6 29"/>
<path d="M5911 21219l-17 19-15 22-17 23-15 21-18 23-18 23-17 20-16 22-11 24 17 20 24 8 27 4 24 5 29 6 27 6 26 3 27 3 26 5"/>
<path d="M6200 21342l 27-2 27 0 26-1"/>
<path d="M6584 21212l-4 25 0 29 5 28 4 26 3 31 1 31-1 25-2 25-4 31-6 28-4 27"/>
<path d="M6608 21094l 26-5 26 3 29 8 21 11 21 12 22 13 19 16 18 18 14 21 13 23 11 25 6 25 6 27 4 30 1 31 0 31-4 32-7 33-10 33-12 33-7 24-14 32-13 31-12 25-13 25-15 20-16 22-24 11"/>
<path d="M6949 20953l-3 27-3 27-4 27-6 28-6 27"/>
<path d="M6952 20944l 2 25 14 23 16 19 16 18 19 22 17 21 16 21 20 21 22 12 25-8 15-23 9-27 4-30 0-29-3-26-6-25-6-24-7-25-11-23"/>
<path d="M7999 21059l-19 16-14 20-12 22-13 25-9 28-9 28-7 29-9 33-3 25-4 25-4 25-2 25-1 25-1 35 2 24 3 33 3 31 4 27 5 25 7 25 11 22 14 21 14 19 19 17"/>
<path d="M8089 21156l-5 26 1 26 1 24 1 26 2 28-1 33-4 34-3 36-6 33-7 32-7 30-5 28-7 25-9 26"/>
<path d="M8259 21197l-17 18-20 21-18 16-18 18-22 17-19 19-18 18-16 20-6 23 19 16 22 14 25 11 25 9 29 9 23 9 28 9 25 12 22 13"/>
<path d="M8474 21349l 27-8 25 2 27 1"/>
<path d="M8770 21260l 24-2 27 7 21 15 12 23-6 25-17 21-21 17-25 17-23 16-24 19-21 18-14 21 13 22 27 2 30-2 26-8 29-10 27-9 27-12"/>
<path d="M8882 21056l 20 19 21 14 26 14 23 14 21 17 19 20 17 20 16 21 16 23 11 23 10 23 7 31 3 26 0 27-5 25-7 27-12 25-12 23-16 23-17 23-19 19-20 20-19 18-23 18"/>
<path d="M9217 20873l-7 27-1 27-4 25-5 24-4 29 21-19 10-23 8-23 9-31 5-31 4-28 3-25 0 28 4 26 5 27 10 25 16 22 18 21 22 16 25 10 27 4 26-13 14-23 8-29-2-24-4-27-5-26-10-25"/>
<path d="M5051 21372l 27-2 27-2 26-1 31-2 28-2"/>
<path d="M7312 21391l 28-5 24 0 24 1 29 2 28 2 29 2"/>
<path d="M9669 21275l 23-14 25-8 25-2 28-1 31-2"/>
<path d="M10068 21332l"/>
<path d="M10173 21346l"/>
<path d="M10352 21365l 27-3"/>
<path d="M10895 21175l 23-10 29-4 28-4 30-5"/>
<path d="M11339 20970l-2 28-1 29-5 31-4 26-4 27-6 28-6 28-9 29-8 25-7 25-6 29-7 25"/>
<path d="M11532 20809l-3 27-7 30-8 27-5 24-3 25 9-28 8-25 5-24 5-26 6 25 5 26 11 24 16 21 22 13 25 3 23-6 24-18 18-23 9-24 4-29-3-25-4-28-8-25-7-25-3-25"/>
<path d="M3726 21878l 29 3 28 2 27 2 30 1 31 3 36 3 26 2 29 2 31 1 33-1 33 1 34 1 35 0 38 0 41 0 42 0 45 0 48 0 24 0 24-1 26-1 26-1 25 0 27-1 27-1 28-1 28-1 28 0 28-1 29 0 30-1 31-1 32-2 31 0 32-2 34-1 34-1 33-2 35 0 35-1 34-1 36-2 36-1 37-1 38-1 38-2 39-1 39-1 40-2 42 1 41 0 42-1 41-1 42-1 42-1 43-1 44 1 43-3 45-1 44-1 46-1 46 0 45-1 43-2 47-3 46-1 46-1 47-1 46-1 48-1 48-2 49 0 48 0 47 0 48-1 48 0 47-1 50 0 48 0 49-1 48 0 49 0 48 0 49 0 47 0 46 0 49 0 48 0 49 0 48 0 49 0 47 0 50-1 47 0 48 1 49 0 47 1 49 0 49 0 51 0 48 2 49 0 48 0 48 0 47 0 48 1 47-1 45 0 47 0 47 1 47 0 46 0 48 1 45 1 46 2 45 1 46 0 45 0 46 0 46 1 45 0 46-1 45 0 45 0 46-1 45 1 45 0 45 0 44 0 46 0 45 1 44-1 45 0 45 0 44 0 43 1 44 0 44-1 44 0 42 0 43-1 43 0 43-2 44 0 43-1 42-1 43-1 42-1 42-2 41 1 43 1 41-2 41-1 41-2 40 0 41-1 43-3 40-4 40-2 39-2 39-1 37-2 39-2 39-3 37 1 37-3 38-1 37-2 36-1 37-2 35-2 35 0 35-2 33 0 33-2 31-2 34-1 32 0 30 0 30-2 29-2 29-1 28-2 28 0 25-2 25-1 25-3 48-2 45-1 41 0 38-1 34 0 31-1 30-1 26 0 31 0 30-1 26 0-24 6"/>
<path d="M7193 22015l-6 29-2 27-1 24 1 31 1 32 2 34 3 34 4 36 1 26 0 26 0 27-1 28-2 26-2 25-3 26-5 35-7 33-7 29-6 29-2 24 23-16"/>
<path d="M7419 22142l-11 23-14 25-14 20-19 23-15 20-19 22-17 22-17 21-16 20-19 19-20 18-14 21 17 21 26 6 24 7 27 3 26 2 27 6 28 6 28 5 25 7 24 12 23 8"/>
<path d="M7540 22100l 3 26 4 25 0 25-1 25-6 25 8-23 6-27 1-28 2-28-3-26 14 23 12 25 18 17 22 12 26 4 26-9 14-21 9-24 7-24 5-27-1-25-5-25"/>
</svg>
