<svg xmlns="http://www.w3.org/2000/svg" viewBox="1258 1601 19194 26867" stroke="black" stroke-width="16" stroke-linecap="round" stroke-linejoin="round" fill="none" data-xena="-1 -9 0"><style>@media(prefers-color-scheme:dark){svg{background-color:black;stroke:white;}}</style>
<path d="M1361 2528l 26-10 25-13 27-19 24-19 27-26 19-21 18-22 19-25 19-28 18-29 18-30 18-32 17-33 15-33 14-36 13-37 11-38 8-40 7-40 4-40 2-39 1-38-1-36-1-32-2-31-1-25-3-29-6-23-27 1-16 26-14 34-9 27-10 31-9 32-9 35-9 35-8 37-7 39-6 42-5 41-3 43-3 40 0 38 3 36 3 32 6 28 7 26 13 31 15 24 16 17 25 14 26 1 27-7 25-16 19-18"/>
<path d="M1884 2165l-12 22-5 26-4 25-4 27-5 30-3 26 0 27"/>
<path d="M1932 1940l-9 23 2 25"/>
<path d="M2003 2222l 10 25-2 29-4 24-3 28-5 27 13-25 10-25 11-27 12-26 12-25 15-26 14-24 15-23 18-17 20 17 0 29-3 28-6 31-5 25-5 24-4 29 0 26 10 22 25-6"/>
<path d="M2281 2227l 6 25 22 11 23-9 20-16 18-22 12-22 9-24-9-23-21-11-25 11-17 19-18 25-13 23-12 24-6 24 0 27 9 26 21 14 24 2 25-3"/>
<path d="M2659 2178l-24-9-25-2-27 5-23 14-20 21-16 20-13 23-6 26 9 22 24 10 28-7 23-13 22-15 19-20 12-23-15 22-1 27 6 25 25 6 24-8"/>
<path d="M2789 2146l 27-7 25-2 27-1 25 7-3 24-15 24-19 21-15 20-14 21-13 23-5 26 19 17 25 0 29-9 25-13 23-9 26-13"/>
<path d="M3060 2096l-11 23-8 24-7 26-7 28-6 24-3 27 1 24 18 16 19-15"/>
<path d="M3069 1976l"/>
<path d="M3289 1823l 1 26 1 26 0 28-4 25-5 29-9 31-9 33-6 25-7 25-7 26-8 25-8 24-10 24-9 23-11 31-7 24 3 26 24 15 24-5 24-13 20-16 21-15 21-19 16-20"/>
<path d="M3154 2115l 20-16 21-11 26-15 24-13 27-12 29-11 31-11 31-8 30-7 27-4 28 0 23 11 3 25-11 26-17 22-19 16-15 21-15 23-11 25-2 25 28-3 21-14 20-18 21-22 22-24 21-24 21-25 19-25 17-22 17-25 14-21-14 26-13 31-8 25-6 28-5 32-3 33-3 26-3 26-4 28-2 30-3 32-2 33-6 35-4 36-6 36-6 37-6 39-6 37-7 38-8 38-8 33-9 34-12 29-12 27-12 24-17 26-18 22-26-2-12-26-5-34-1-28 0-32 4-35 5-37 7-43 10-44 7-24 7-23 8-24 18-44 9-22 22-41 22-40 22-38 22-34 24-34 24-31 25-28 25-26 24-25 27-20 26-19 25-17 26-13 24-12 32-11 26-5 25 5"/>
<path d="M2449 3832l 20-19 22-10 26-11 27-8 23-7"/>
<path d="M2480 3848l-23 16-16 19-13 21-10 27-5 26 0 29 3 28 7 24 22 12 25-3 27-10 24-8 26-10 28-11 31-9 29-6 31-2 29 2 27 7 23 17 12 23-1 26-12 29-12 23-12 22-15 20-15 20-18 16-23 21-24 16-25 13-28 9-25 3-28 0-25-3-22-15"/>
<path d="M3567 3839l 24-6 29 2 29 3 29 5 28 9 23 11 18 17 6 23-4 25-12 23-19 26-16 21-18 21-21 21-23 22-26 22-27 22-25 22-22 22-21 19-20 24-11 24 15 20 26 6 25 3 25 0 30-2 27-1 32-2 27-4 28-5 30-5"/>
<path d="M4676 3811l 25-4 26-3 30-6 25-4 26-6 26-4 31-5 29-4 27-3 25-3 25 3 6 26-8 27-10 28-10 23-10 27-13 25-10 27-7 29-10 28-10 28-11 28-10 24-12 29-9 24-9 27-11 24-7 23"/>
<path d="M4702 7857l-9 26-5 26-6 29-5 24-2 25 0 26 0 26 0 26 0 27 0 26 0 28-1 25-1 24-1 31-3 29-3 26-3 29-4 24-2 24"/>
<path d="M2547 8159l 27 5 25 6 25 5 28 4 30 4 30 3 29 3 29 2 25 1 27 0 26-1 24-2 31-2 30-2 30-3 25-3 26-5 26-7 24-10"/>
<path d="M4546 9286l 11-23 25-4 24-4 26-2 27-1 27 0 27 1 24 3 25 6 24 10 17 22-5 24-14 23-16 20-20 20-23 19-27 20-27 21-27 19-25 22-28 20-26 18-23 19-19 17-17 20-15 19 24 11 31-2 30-4 24-4 24-2 32-4 29-3 29-1 25-2 27-1"/>
<path d="M2893 9186l-11 23-5 25-4 30-3 25-2 27-2 28-1 30-2 29 0 29-2 28-4 27-3 27-4 25-5 29-3 25-1 25"/>
<path d="M6316 10655l-4 27-1 25-4 28-3 26-1 24-2 26-4 27-4 25-4 27-3 24-4 27-2 25-5 26-1 24"/>
<path d="M4366 10693l 29-5 26-3 29-3 27-3 28-7 24-6 25-3 25-3 25-2 29-1 25 0 25-1 27 0 24 0 24-2"/>
<path d="M6227 11565l 24-13 26-4 29 1 26 3 25 7 22 11 18 18 2 25-13 21-18 18-24 16-20 13-24 15-23 14-25 17-26 17-25 16-23 15-25 16-21 16-13 20 24 12 25 2 27 0 27 0 28-2 29-2 30-2 26-3 25 0"/>
<path d="M4563 11372l-8 24-8 23-7 26-6 33-5 27-3 28-5 26-5 32-3 25-2 24-3 30 0 24"/>
<path d="M6120 12150l 25-5 27-1 25 0 27 0 26 2 26 2 28 7 23 12-10 23-21 15-21 12-25 13-23 12 16 18 26 7 25 4 27 7 24 8 24 6 26 9 21 16 11 22-6 23-17 24-17 21-20 18-24 15-26 13-25 13-27 7-28 1-29 0-28-3-27-4-22-10"/>
<path d="M4188 12054l-2 27-3 25-3 31-2 25-3 30-4 32-4 31-4 27-6 27 1 25"/>
<path d="M4317 12178l 24-1 27 0 26-1 29-2"/>
<path d="M4491 12131l 24-14 25-8 24-5 27-3 25 3 24 4 24 13 15 21-5 26-17 20-21 17-25 18-22 14-21 16-20 14-24 17-20 18-19 21-13 20 16 18 29 6 25 0 29-1 28-4 25-5 29-4 27-7 28-4"/>
<path d="M6214 12748l 15 21-7 24-11 23-11 24-13 25-9 25 12 21 26 7 26-1 32-2 31-7 23-6 31-9"/>
<path d="M6396 12811l-18 21-8 25-3 29 0 24 1 25 0 27 0 24 2 30"/>
<path d="M4144 12795l-11 23-4 29-5 27-7 28-6 26-6 24-6 29-5 26"/>
<path d="M4273 12921l 25 10 24-2 25 0"/>
<path d="M4578 12861l 25-8 24-3 27-1 25 1 22 12 0 25-16 21-19 19-22 19-24 17-25 17-21 14-20 18-20 20-11 23 13 22 24 10 29 7 26 3 30 3 25 0 28 0"/>
<path d="M6179 13314l 27-2 28-6 27-4 24-7"/>
<path d="M6182 13294l-21 16-21 18-14 22-4 24 7 25 24 9 26-1 26-4 25-5 25-5 24-3 25-2 24 5 23 9 14 19 1 25-8 23-17 18-17 18-21 18-23 14-22 15-24 13-25 9-25 5-25 1-29-3-26-8-23-16"/>
<path d="M4172 13392l-3 24-4 29-4 33-6 25-6 25-6 23-7 28-3 26-1 27"/>
<path d="M4266 13542l 25-6 24-1 24-2 29-4 31 2"/>
<path d="M4549 13423l 27 0 28 5 24 9 20 13 17 21-6 24-16 21-17 18-21 19-24 17-23 14-20 16-19 17-15 20 14 20 29 5 24 0 29-2 31-2 25-2 26-1"/>
<path d="M6205 13811l-17 19-11 25-11 29-9 25-9 27-7 33-6 37-3 25-3 25-3 25-1 33 3 33 7 28 6 25 11 26 16 20 24 14 29 3 23-10 22-18 21-21 13-24 10-25 3-28-9-25-16-22-22-15-27-6-26 11-21 14-17 20-12 23"/>
<path d="M4138 14017l 2 25 1 27 0 24-3 29-4 30-6 30-6 33-5 32-3 27"/>
<path d="M4290 14139l 25-1 30-1 28-3 24-3 24-4"/>
<path d="M4635 14033l 25-6 27-3 25 2 27 5 16 18-4 29-14 22-16 20-16 21-18 19-21 21-17 19-12 22-2 25 24 14 28 2 24-1 28-5 23-6 26-8 28-9 31-10 33-11"/>
<path d="M5999 14509l 24 9 28 2 30-1 26-5 26-6 28-4 27-6 25-4 29-6 26-2 23 9-6 29-7 31-8 27-7 28-9 34-7 24-8 27-7 25-7 27-7 28-8 28-7 26-6 27-7 26-9 33-8 30-7 28-6 28-3 28"/>
<path d="M4160 14541l 10 28-4 33-4 30-4 32-5 33-6 32-6 33-6 33-5 34-5 28-3 31 7 26"/>
<path d="M4328 14671l 27-2 25-3 28-5 24-4"/>
<path d="M4647 14548l 27-5 28 3 28 2 28 5 23 6 21 16-4 24-15 24-18 20-21 21-17 17-23 22-21 21-19 20-16 25-12 21-6 24 21 18 29 0 29-5 24-5 30-7 29-6 26-3 25-9 26-8"/>
<path d="M6118 15589l 2 27 0 28 0 28 1 28 1 29-1 25-2 29-3 26-6 25"/>
<path d="M2551 15609l 28-2 26 4 26 0 28 0 30-3 26-3 25-2"/>
<path d="M5987 16252l 24-2 26 2 25 1 30 3 26 5 20 15 7 24-9 24-15 20-19 22-17 19-22 21-22 19-20 19-20 19-19 18-15 20 22 12 25 5 27-5 28-7 23-7 27-9 28-4 29-1"/>
<path d="M2631 16077l 8 23 9 29 6 26 0 31 0 28-1 27-1 28 1 31"/>
<path d="M6000 16800l 24-7 26-4 30 0 28 3 24 9 21 15 4 26-12 22-18 16-22 16-21 15 18 17 27 7 26 7 23 7 25 11 20 14 11 24-7 24-15 22-18 21-24 20-25 15-22 14-25 9-28 3-28-2-29-7-26-13"/>
<path d="M2436 16623l 3 27-1 30-4 26-6 28-8 30-11 28-11 28-8 26-3 25"/>
<path d="M2547 16719l 25 3 27 1 24-2"/>
<path d="M2749 16663l 24-2 24 5 25 6 13 23-6 24-15 25-17 20-19 19-19 19-18 16-17 17-14 23 16 19 27-1 24-3 27 0 28-2 32-3 27-1"/>
<path d="M6052 17455l 10-22-12 23-12 26-12 25-9 27-4 24 3 27 17 21 25 10 27 4 25-4 25-6 25-8 23-11 22-12 24-19"/>
<path d="M6233 17465l-15 19-12 26-9 25-8 25-4 27 0 29 2 30 1 26"/>
<path d="M2322 17306l 19-17 26-3 25 1 25-2 27-2"/>
<path d="M2253 17138l-8 27-3 26-3 27-3 25-4 27-6 28-7 31-6 31-6 30-6 26-3 29 2 27"/>
<path d="M2647 17214l 23-7 29 2 28 1 26 3 24 9-13 22-20 14-24 18-18 15-16 18 3 25 25 3 26 3 26 4 23 6 22 12 12 22-4 25-11 24-16 23-16 19-24 15-25 7-28 3-29-5-24-5-24-14"/>
<path d="M6043 17977l 11-24 25-3 27-4 29-5"/>
<path d="M6073 17949l-22 13-13 23-10 22-6 25 3 24 22 11 26 5 26 0 29 2 28 1 25 4 25 10 24 16 16 17-3 28-14 25-16 26-17 21-24 19-23 14-22 9-27 7-25-2-25-10"/>
<path d="M2212 17857l 5 27-3 27-5 24-7 27-8 30-10 29-11 31-10 28-8 27"/>
<path d="M2341 17941l 26 7 27 1 28-2 27 2"/>
<path d="M2687 17807l 2 27-8 26-10 25-11 25-10 25-10 25 11 22 24 2 26-1 25-4 27-8 26-9 25-10"/>
<path d="M2812 17862l-15 20-9 27-5 24-3 27-1 28 0 29 3 25"/>
<path d="M6145 18493l-23 12-19 20-14 20-12 23-9 26-9 29-5 25-1 31 3 25 4 25 6 28 15 25 19 20 25 10 28-2 25-9 20-15 16-22 5-26-16-19-22-18-26-4-26 9-17 22-10 24"/>
<path d="M2091 18366l 11 24 4 29 0 24-2 31-3 24-5 27-7 27-7 28-7 29"/>
<path d="M2271 18455l 24-6 28-6 28-5 26-7"/>
<path d="M2649 18302l 23-11 28-10 26-9 24-8"/>
<path d="M2696 18287l-22 18-16 21-11 26-3 26 5 26 20 15 25 5 25-1 30-5 25-4 28-4 26-1 26-2 24 1 23 7 6 23-16 25-18 22-17 17-18 17-21 18-20 17-25 19-24 14-25 9-29 6-26-2"/>
<path d="M6010 19172l 25-5 28-3 26-5 25-7 25-7 24-5 17 18-11 21-13 23-15 25-12 28-12 30-7 27-5 26-6 27-6 26-7 26-6 24-4 27-3 28-5 25-9 24"/>
<path d="M2103 18963l 2 25 0 26 0 30 0 30 0 25-3 25-3 27-4 26-3 24-4 26-2 27-1 27"/>
<path d="M2285 19090l 22 11 28-4 29 3 25-2 25-5"/>
<path d="M2659 18903l 23-11 27-1 25-3 24-6 27-3"/>
<path d="M2729 18889l-22 11-14 21-9 26-9 25-5 27-2 24 2 26 14 20 28 3 26-3 25-8 27-8 29-9 30-6 28-3 25-1 25 4 22 12 9 25-6 29-12 27-15 27-17 24-17 23-21 17-23 15-23 13-24 6-26 1-27-9-26-12-21-15-16-18"/>
<path d="M5953 7766l 24-4 21 16 19 18 18 22 12 25 7 27 4 28 1 24-1 25-3 29-3 31-4 26-4 28-6 28-2 29-1 28 0 28 2 28 3 27 4 26 4 26 9 30 11 28 14 25 15 22 13 22 16 22 18 21 20 16 22 11-22 13-19 19-12 21-13 23-9 24-7 23-4 29-3 28-2 30-1 26 1 28 3 28 4 30 4 29 6 29 8 29 6 23 6 24 5 23 8 31 6 26 5 27 5 28 6 28 6 29 7 27 6 26 6 25 6 24 6 30 7 29 6 26 3 25 3 28 0 28-3 25-3 25-6 24-9 26-10 25-13 22-18 17-24 10-23 8-27 8-23 5-25 3-26 0-26-5"/>
<path d="M6776 8082l-1 29-1 27 0 31 0 32 0 31 0 30 0 31 4 27 0 25 0 26-1 26"/>
<path d="M7082 7930l-3 25-7 30-7 29-5 27-8 30-6 32-11 35-6 25-7 25-8 25-7 27-7 27-7 26-7 26-7 25-8 25-7 24-7 23-10 34-8 31-7 28-5 25-7 28-5 27"/>
<path d="M7183 8144l-6 26-3 28-3 27-1 26-1 27-2 28-2 25-1 26 5 25"/>
<path d="M7291 8220l-8 23-3 26 1 26 7 23 14 23 19 17 24 9 28 1 25-10 23-18 16-18 16-24 8-24 0-24-8-26-14-21-24-10-24-2-26 7-23 9-24 12-19 16"/>
<path d="M6844 10635l 10-22 20-17 22-9 24-9 26-3 25 5 20 16 13 20 9 29 7 29 5 25 2 25-1 29-1 32-1 33-4 25-2 25-3 25-3 28-4 27-3 28-3 29-3 29-4 30-4 29-3 30-2 29-2 31-1 31 0 31 0 32-1 34 0 34 0 38 1 38 0 39 1 39 1 39 1 38 3 36 3 38 5 39 4 37 6 39 5 37 6 38 7 39 6 38 8 40 8 40 8 38 10 38 10 37 9 38 9 39 10 39 8 38 9 39 10 38 7 40 9 37 9 39 9 37 11 37 10 36 10 36 11 35 11 33 14 33 14 31 14 31 15 28 15 28 15 27 16 26 17 26 15 25 15 23 14 21 15 21 20 28 17 25 16 22 15 20 15 20 15 20 8 23-20 16-22 12-24 12-17 18-17 23-11 26-8 25-8 30-10 31-7 29-9 32-8 34-10 34-6 25-7 25-5 25-7 25-6 26-7 26-6 27-5 27-5 28-4 29-6 27-6 27-6 27-4 29-6 29-5 28-4 29-5 27-3 28-4 29-3 28-4 29-3 28-3 28-1 28-2 25 0 26-1 25-2 34 0 33 0 32 1 25 1 34 1 31 0 26 0 29 0 29 0 28-3 26-3 31-1 27-3 26-5 28-5 25-8 28-11 26-12 27-15 27-13 23-13 23-11 21-14 21-15 23-18 17-18 17-23 16-21 12-26 11-21 12-22 12-20 15"/>
<path d="M8106 12580l 2 24 0 31-2 27-3 29-1 31-2 28-3 26-2 27-1 28 1 25 23 6"/>
<path d="M8303 12577l-5 26-1 26 1 26 2 28 2 28 4 25 6 27 5 26 3 25"/>
<path d="M8020 12992l 27 2 24 0 31-1 25-1 28-2 29-1 31-3 32-2 32-3 30-1 29-2 30-3 26-4 26-5 29-4 25-1 24 1"/>
<path d="M8143 13154l-2 25-5 27-7 29-7 26-9 27-12 27-9 25-10 28-8 25-6 24"/>
<path d="M8331 13148l-13 23-12 24-11 26-9 24-7 23-6 26 6 24 23 11 27-2 29-6 24-4 29-4 28-4 28-6 26-7"/>
<path d="M8447 13226l-11 23-3 29 0 26 0 29 4 30 5 24 5 25 7 30 4 26 6 25"/>
<path d="M6643 15569l 5-24 18-17 26-7 27 6 25 12 19 16 18 19 15 21 13 23 12 27 11 30 6 24 4 28 2 30 3 32 2 25 3 25 2 28 0 30 3 29 2 32 2 33 4 33 3 35 4 36 4 36 5 36 3 37 4 35 6 35 6 33 7 33 6 33 8 34 5 35 9 33 9 32 10 32 12 31 11 31 13 31 14 31 14 31 16 28 17 27 18 27 21 27 20 26 22 24 19 20 21 23 20 23 21 22 19 22 18 21 19 18 17 17 18 18 25 24 24 21 22 18 18 18 20 23 15 19-23 7-27 7-25 14-26 11-21 15-18 17-15 26-13 28-15 24-12 28-12 30-11 33-11 34-8 24-10 33-8 32-6 32-5 35-2 24-4 24-3 27-3 26-3 27-2 29-2 30-2 31-2 34-1 33-2 31-1 31 0 28 0 32 1 34 2 31 2 37 4 33 3 33 3 33 6 30 6 34 5 33 7 35 6 35 5 35 6 35 6 36 5 35 5 35 4 33 5 34 3 33 5 33 6 31 3 33 4 33 4 31 3 31 5 30 4 30 3 31 4 30 3 27 4 31 5 30 2 29 3 34 2 28 2 29 3 28 1 28 1 27 1 26-2 24 0 33-2 33-4 31-6 29-7 29-9 27-10 29-18 25-13 21-17 22-21 15-23 15-22 12-29 11-27 8-27 7-26 6-27 5-25 3"/>
<path d="M8023 16851l 17-19 25-4 25 4 26 6 24 12 14 21 2 24-11 23-14 21-19 23-18 17-18 17-21 21-18 17-15 21-10 23 16 20 27 0 23-6 29-7 30-10"/>
<path d="M8339 16918l-19 18-14 22-6 26 3 25 13 23 20 16 23 11 29 4 26-4 24-8 23-13 23-19 13-21 3-28-10-23-15-22-19-15-27-6-26 0-24 9-21 12"/>
<path d="M7755 17296l 26 7 28 1 26 0 31 0 26-2 27-4 31-4 32-4 34-5 34-5 37-5 39-5 39-5 38-4 37-4 38-3 37-4 36-3 34-3 31-3 30-1 29-2 27-1 25-2 24-1 33-2 28-2 27-1 30-1 28 2 24 2"/>
<path d="M8032 17452l 24-5 30 2 26 0 28 2 23 9 0 25-17 17-23 13-23 13-8 22 20 15 26 10 24 10 22 8 22 14 9 25-7 24-13 22-18 22-23 15-24 11-23 5-26 3-22-12"/>
<path d="M8410 17366l 23-9 24-3 27-4 24-4 24-7"/>
<path d="M8460 17394l-9 23-3 25 1 25 12 24 22 15 25 11 24 7 27 9 27 7 22 12 20 15 8 24-10 26-18 21-25 17-22 11-28 7-24 1-25-5-25-10"/>
<path d="M9608 8130l 20-16 25-5 28-2 25 0 25 1 24 9"/>
<path d="M9641 8218l 27-5 28-3 27-6 29-6"/>
<path d="M10061 7912l 17-17 25-10 24-3 27-5 27-4 25-4 25-1 11 23-8 26-9 25-9 26-10 23-10 24-9 24-9 28-7 27-9 26"/>
<path d="M9933 8334l 25 11 27-2 25-4 30-6 31-7 32-7 29-6 30-8 28-7 26-6 25-6 29-12 30-6 31-2 27-6 25-4 25 3"/>
<path d="M10050 8487l 25-2 25-3 26-9 27-6 27-7 25-7 28-8 30-8 28-6 26-5 25-3-10 23-12 28-13 27-12 25-11 25-12 29-11 30-13 32-11 31-12 31-10 31-7 29-6 24-4 25 5 25"/>
<path d="M10419 8525l-6 28-2 25 4 29 11 27 12 25 18 21 22 9 26 6 23-6 27-9 19-19 13-21 9-23 5-24-1-29-10-23-12-21-16-18-28-11-27-1-24 9"/>
<path d="M9385 12880l 24-4 24-6 26-6 27-7 25-8"/>
<path d="M9440 12930l 26-2 26-5 23-5 27-7"/>
<path d="M10018 12536l 24-15 23-11 25-11 26-14 23-14"/>
<path d="M10057 12526l-17 17-14 20-5 25 0 25 6 25 19 15 28 3 27-4 27-3 26-3 28-1 26 3 5 24-14 22-18 18-20 18-21 19-23 15-23 11-26 8-26 3-25-11"/>
<path d="M10294 12465l 27-2 27-7 26-9 23-9 23-8"/>
<path d="M10354 12451l-15 19-12 23-3 24 10 24 21 17 24 4 28 2 28 1 28 4 24 10 18 19 5 26-8 24-15 23-18 19-22 21-20 16-25 19-24 15-22 12-27 9-26 7"/>
<path d="M9944 12911l 28 2 33-2 29-4 32-4 33-7 25-6 25-6 27-6 26-6 28-6 25-7 26-6 25-6 26-6 26-5 25-4 34-5 32-4 30-1 30 0 26 0 24 0 25 3"/>
<path d="M10064 13048l 25-14 27-12 23-9 28-7 26-7 23-6 23 9 7 26-2 25-7 28-6 26-9 30-6 25-6 25-7 25-8 26-5 24-4 26 0 25"/>
<path d="M10415 13071l-4 27-1 30 5 26 11 26 19 16 26-5 23-15 22-22 13-21 12-22 10-22 9-27 3-28-11-21-22-15-26-9-26 0-25 7-24 14-25 20-17 21"/>
<path d="M9312 17097l 26 7 24 1 29-4 26-2"/>
<path d="M9347 17207l 25-4 28-7 27-9"/>
<path d="M10143 16733l-14 23-8 25-9 24-11 25-11 25-9 23-9 25 1 25 22 13 25 0 27-4 30-7 24-6 24-6 23-9 22-9"/>
<path d="M10228 16797l-17 21-10 27-6 30-5 30-2 28 0 26 0 24 4 25 19 17"/>
<path d="M10416 16798l-11 23-3 25-3 31 0 29 1 28 5 28 15 20 27 4 21-15 20-19 18-24 13-22 6-25-7-24-23-17-24-9-26-4-27 3-22 13"/>
<path d="M10024 17168l 31-5 27-4 31-7 24-5 23-6 25-6 25-7 25-8 26-8 26-8 25-9 25-7 25-9 25-7 24-7 34-8 34-8 32-4 27-3 28-4 25 5"/>
<path d="M10148 17294l 27-8 27-11 26-13 24-10 25-10 25-2 20 17 2 28 0 26-6 31-3 25-4 27-7 30-7 28-6 25-7 25-6 25-7 28-3 26"/>
<path d="M10477 17246l-8 23-4 26-1 30 2 30 2 27 9 22 17 18 25 1 23-15 15-19 13-24 4-27-14-22-25-13-29-5-25 5"/>
<path d="M12485 8191l 24-9 24-5 28-5 29-5 23-6 23-5"/>
<path d="M12538 8269l 19-15 23-8 25-7 25-6 25-7"/>
<path d="M12664 8132l 23-8 24-5 28-5 26-2 25 2 23 9 12 23-12 24-12 22-14 23-15 24-12 22-11 24"/>
<path d="M13255 8113l 13-23 24-10 27-2 23 11 14 20 1 25-8 24-11 25-13 22-6 24 18 17 24 11 24 13 25 11 25 13 24 12 24 17 18 18 14 23 9 30 4 27 2 29-5 30-6 31-7 31-11 30-13 27-13 25-17 22-20 18-25 15-25 4-22-10-16-25-7-24-5-27 0-33 0-35 3-24 6-36 10-34 12-31 16-28 17-27 20-25 23-23 23-23 21-23"/>
<path d="M13677 8106l 18-16 27-8 28-6 25-5"/>
<path d="M13688 8172l 29 1 29-5"/>
<path d="M14254 7782l-8 26-4 29-6 25-7 25-5 26-5 26-5 30-7 25-4 25"/>
<path d="M14426 7796l-21 18-12 27-12 28-8 24-5 25-5 29 4 26 9 23 19 22 20 13 25 5 28 0 29-5 29-12 23-15 20-15 17-20 3-28-10-24-18-23-18-18-19-18-25-19-22-13-23-10-24-4"/>
<path d="M14725 7814l 20-13 24-6 28 2 27 6 26 10 23 14 14 20-10 27-16 23-19 22-18 17-19 16-25 20-22 16-19 15 24 12 25-3 24-2 30-1 28 0 28 0 26 1 26 3"/>
<path d="M14155 8164l 27-2 30-1 29 0 34-2 25-1 27-1 30-3 31-3 33-2 34-4 32-2 33-3 35-3 33-2 35-2 36-2 35-2 37-1 34-2 33-1 33 0 31 0 32-1 30 0 29 0 25 0 30 0 28 1 24 5-23 13"/>
<path d="M14328 8348l 23-7 29 1 24-1 25 0 25-1 25-1 25-2 13 22-8 26-15 27-14 25-11 22-12 24-14 25-12 26-13 25-11 24-10 24-7 27 0 27"/>
<path d="M14689 8403l-10 23-5 25 4 29 8 25 14 21 22 16 22 9 26 6 24 2 30-4 26-9 21-13 12-22-5-26-16-24-20-19-21-16-24-10-25-1-29 4-24 11-22 15-20 19"/>
<path d="M13191 7935l 14-20 18-20 19-20 14-23 12-21 15-25 11-21 12 24 7 28 9 27 10 23 15 24 17 22 18 17"/>
<path d="M13272 9927l 7-24 14-21 24-10 27-5 25 0 26 8 3 27-13 20-19 23-16 19-17 20-19 17 22 11 25 12 25 14 22 11 25 14 25 15 22 15 21 21 13 22 6 27-1 31-5 28-8 30-11 32-13 32-17 31-15 26-13 22-22 22-23 15-23 8-27-6-18-18-16-23-12-24-6-30-1-33 0-34 6-35 5-33 9-29 9-25 15-25 17-24 17-23 19-22 20-19"/>
<path d="M13699 9752l 23-12 26-3 26-3 26-2"/>
<path d="M13699 9839l 26-2 24-1 28-2 24-3"/>
<path d="M14233 9455l 23-15 27-11 27-8 27-7 26-6 24-3 24 1 6 27-8 23-15 28-11 24-13 26-12 28-11 29-12 27-12 26-10 26-10 30-8 27-7 23-9 24"/>
<path d="M14573 9387l-2 25-4 27-8 27-7 27-11 22-8 26-1 26 13 21 26 8 29 2 24-4 24-5 25-5 24-6 27-8 25-9 25-10 19-16"/>
<path d="M14731 9481l-5 25 3 26 6 23 5 24 2 27 3 24 0 26-1 24"/>
<path d="M14255 9874l 25 10 26-1 24-3 29-2 34-5 33-5 24-5 33-6 30-7 30-6 31-7 33-6 31-5 31-4 28-3 25-4 31-4 25-2 28-2 26-1"/>
<path d="M14305 10044l 26-2 24-4 25-4 25-3 28-2 27-4 25-1 9 25-9 27-12 25-13 28-13 23-11 24-11 25-10 27-10 24-11 23-6 23-7 28-3 24 19 16"/>
<path d="M14655 10072l-1 28-2 28-2 26 4 26 10 23 14 24 19 18 21 12 23 7 28 0 22-15 20-19 12-22 9-25 6-28-3-26-9-24-16-20-26-11-30-7-23 6-23 10"/>
<path d="M16737 9062l 22-17 24-6 29-7 28-5 27-4"/>
<path d="M17045 8884l 20-14 26 0 27 0 28 3 26 6 28 5 22 10 15 20-9 28-16 22-20 21-24 20-25 22-23 21-25 22-27 19-21 18-22 19-16 22 17 18 27-5 26-7 28-9 31-10 24-7 24-5 29-10"/>
<path d="M17443 8927l-11-23-19-16-25-3-25 10-15 22 7 25 18 21 17 18 19 20 22 20 20 14 21 14 23 15 20 15 18 19 7 25-14 23-20 17-25 10-29 4-26-4-22-10-21-18-12-22 1-25 8-24 13-21 17-21 22-16 25-16 22-10 25-5"/>
<path d="M16999 9367l 27-8 29-7 30-7 32-5 35-6 35-4 25-4 25-4 25-5 26-5 28-3 26-3 27-4 34-4 33-3 31-3 28-1 26-2 29 0 25 1 25 5"/>
<path d="M17142 9493l 24-8 25-5 28-7 26-6 24-4 24-1 21 13-3 24-12 27-12 26-11 28-14 29-12 21-11 27-10 25-5 26"/>
<path d="M17456 9494l-12 24-5 24-4 28 2 25 13 23 20 20 25 9 28-4 27-7 20-14 18-17 8-25 1-28-13-25-19-18-23-12-25-6-25 1-25 7"/>
<path d="M14141 12490l-4-24 17 22 7 28 4 27 3 31 3 34 0 36-1 25-1 24-1 25-1 25 0 25 0 24-2 34-1 29 1 27 3 25"/>
<path d="M14385 12603l 22-10 26-7 25-6 28-5 25-6 24-6 25-6"/>
<path d="M14490 12488l-11 22 1 26 5 27 10 27 9 28 8 28 10 24 14 23"/>
<path d="M14800 12383l 16-18 24-15 22-9 24-6 26-3"/>
<path d="M14803 12412l-16 21-2 26 10 25 16 18 22 14 25 4 25 3 27 2 24 1 25 2 29 5 28 8 23 13 17 19 4 28-9 26-15 23-19 18-18 18-23 18-20 16-24 17-24 11-27 6-29-4-22-9-22-18-9-25"/>
<path d="M15194 12468l 22-10"/>
<path d="M15403 12333l 22-17 24-5 26-1 28 1 26 3 26 9 22 15 15 21-5 27-14 23-17 22-16 19-19 19-19 19-18 18-17 22-16 19-10 22 20 14 26-6 25-5 28-5 26-2 24-1 25 1 25 4"/>
<path d="M14011 16304l 23-8 24-10 26-13 25-13 25-14 24-12"/>
<path d="M14035 16327l-20 17-13 22 2 25 23 11 26-3 26-8 26-12 25-13 23-12 27-10 25-7 27-1 23 11 9 25-3 26-11 23-15 25-19 23-22 19-22 16-22 15-24 9-24 0-22-12"/>
<path d="M14064 16709l 22-14 26-7 24-3 24-1 24 2 22 13-3 25-14 24-17 19-19 20-18 19-18 18-20 18-16 18 8 24 24 8 26 0 24 0 28-4 27-6"/>
<path d="M13866 16228l-16 20-7 32-6 24-4 29-7 31-6 33-6 35-6 36-5 36-4 36-3 36-3 35-2 37-1 37 3 35 1 35 3 33 4 32 4 30 7 29 8 28 9 25 10 25 10 22 18 29 19 23 22 18 22 15 24 13 27 6 32 2"/>
<path d="M14370 16258l 27 10 21 14 18 17 19 20 20 19 18 25 10 23 12 21 10 24 7 25 5 31 3 33 2 36-1 25-2 28-3 28-5 29-3 29-5 28-5 27-4 27-10 33-9 33-8 33-7 27-6 31-9 27"/>
<path d="M14742 16598l 25-7 24-1 24-1 25-2 25-3 27-6 23-8"/>
<path d="M14837 16539l 2 27 10 26 9 26 9 22 12 23 14 22"/>
<path d="M15182 16445l 8-23 22-14 24-6 26-1 27 2 24 11 20 13 20 19 18 20 3 27 0 25-6 28-10 22-15 24-14 26-17 28-15 21-19 18-21 24-20 18-20 15-23 16-21 12 23-10 26 0 24-1 26 0 25 3 26 4 25 0 24 3"/>
<path d="M15559 16503l"/>
<path d="M15704 16322l 25-8 23-6 25-9 25-13 25-11"/>
<path d="M15772 16292l-21 15-11 22-3 24 0 26 3 26 10 25 15 23 22 12 29 3 26-2 30-2 27-8 25-4 24-2 25 3 27 4 21 13 18 20 7 27-1 26-4 25-8 24-12 26-11 22-16 22-20 16-22 14-25 5-26-3-25-7-26-13-21-12-21-13"/>
<path d="M16294 16472l 23-10 23-7 24-7 23-9"/>
<path d="M16281 16521l 26-9 24-5 26-5"/>
<path d="M16523 16357l 23-9 29 0 24 4 25 8 22 14 9 24-12 24-16 23-18 18-21 20-21 21-21 20-22 19-23 18-19 19-19 22-18 22-8 23 23 8 26-3 24-3 27-6 29-9 24-6 26-7 29-9 27-10 25-10"/>
<path d="M16815 16440l-21 17-12 24-14 23-6 25 2 26 9 23 15 19 29 10 29-3 25-6 25-10 23-12 19-15 21-16 17-21 6-26-11-25-19-22-20-16-24-15-26-8-26-4-27 2-26 5-26 11-21 12"/>
<path d="M17269 16480l-5 27 0 28 3 25 9 23 10 23 11 23 24-13 13-22 19-28 16-24 14-26 13-28 12-28 12-27 11-28 10-26 10-29 5-25 8-23"/>
<path d="M16319 12297l 23-10 28-7 25-6 24-4"/>
<path d="M16317 12391l 20-15 24-8 26-8 25-7 29-8 24-8"/>
<path d="M16688 12144l-2 26-1 30 1 27 0 27 4 28 3 29 5 27 6 26 6 27"/>
<path d="M16957 12093l-2 27-1 25 1 29 4 24 6 26 8 26 7 26 4 28 6 30 5 30 4 33 3 32 6 31 2 30"/>
<path d="M8498 9453l 10-24 18-17 24-11 24-9 25 2-1 27-10 23-12 22-12 26-12 22-16 26-14 21-10 22 9 23 25-7 23-10 23-12 21-11 22-10"/>
<path d="M8538 9715l 25-4 26-7 24-6 9 25-9 23-9 25-11 24-13 21-12 23-11 24 14 20 22-10 19-21 18-23 17-21"/>
<path d="M8405 9418l-7 23-1 25 1 25 1 32 0 26 1 29 2 32 1 34 2 25 2 26 1 26 2 26 3 25 3 25 3 24 6 23 7 32 8 31 8 26 12 23 18 24"/>
<path d="M8740 9397l 10 24 15 22 13 21 13 22 13 22 14 24 12 23 12 24 11 23 5 27 4 27 0 29-2 27-3 30-7 31-11 29-11 27-10 22"/>
<path d="M8921 9589l 16-18 21-15 23-13"/>
<path d="M8925 9651l 25-8 24-15 25-16"/>
<path d="M9102 9396l 5 26 10 26 8 25 9 30 5 23 5 27 5 29 4 28 4 28 3 26 5 27 5 25"/>
<path d="M9447 9595l 20 20 16 21 17 19 18 19 21 15 25 7 13-25 5-24 4-31 1-25 2-26 3-31 0-31 0-25-1-24-2-24 0-26 0-24-3-26 0-24-1-34 1-26 2-24"/>
<path d="M14005 19137l 3-24 24-15 28-13 26-9 29-5 32-4 26-3 24 1 28 2 27 4 23 11 18 16-1 28-8 25-12 28-13 24-15 21-19 21-16 18-24 21-26 16-21 11-22 15-23 11 22-11 23-10 23-10 27-8 26-8 30-9 28-8 28-5 24-1 28 3 26 9 19 16 13 25 2 25-2 30-4 26-12 25-14 26-15 19-18 19-18 18-24 18-27 12-24 7-28 11-25 4-27 1-27 0-27-1-25-3-22-13"/>
<path d="M14915 19100l 20-14 25-4 28-9 31-2 24-1 29 1 28 1 26 2 25 7 18 16 7 25-5 25-10 26-17 32-14 23-16 25-18 25-17 25-19 25-21 23-22 24-20 22-20 17-19 19-16 19-18 18-17 19-22 19-21 19-18 18 28-4 27-4 28-8 26-7 30-7 28-7 28-8 30-9 30-10 33-9 29-5 31-7 28-4 26 0 24 5"/>
<path d="M15839 18972l 5 30 4 26 7 30 5 25 4 25 6 25 7 27 5 26 6 27 7 29 5 34 4 33 5 31 5 30 2 30 3 29 3 26 3 25 2 25 2 25 4 26 0 24"/>
<path d="M16659 19153l 25-4 26 0 27-1 27 0 25-2 28-4"/>
<path d="M16662 19250l 26-3 25 0 28-2 29 1 27 4 26-1"/>
<path d="M16843 19063l 23 8 25 7 29 1 29 4 25 7 27 9 22 15 12 22-7 28-15 23-15 21-14 22-15 21-17 17-20 21-19 22-18 16"/>
<path d="M17349 18957l 26-5 28-2 26-1 26 1 24 1 27 2 27 7 20 14 1 25-13 22-20 22-21 18-26 17-22 13-22 11-25 11-21 12 23 6 25 2 29-3 30-1 30 1 24 1 24 2 25 2 25 5 27 10 25 14 17 22-2 27-8 24-10 25-17 27-16 19-19 19-19 16-22 14-24 11-23 7-31 8-25 3-26-3-27-6-22-9-24-13"/>
<path d="M18586 19148l-7 26-2 26-2 26-3 29 3 30 13 21 26-14"/>
<path d="M18627 19000l-5 24"/>
<path d="M18698 19166l-11 23-5 24-3 26 14-22 10-22 10-27 13-23 14-23 20-14 21 15 9 23 3 25 4 25 6 25 24-2"/>
<path d="M18885 19113l 2 29 8 23 11 24 16 19 24 6 14-21 11-22 8-25 8-28 4-24 6-23"/>
<path d="M19043 19136l 24 2 23-11 23-13 19-16 12-22-21-15-26 3-23 11-20 21-12 22-8 23-2 27 3 25 15 19 25 13 29 5 26-2 27-9"/>
<path d="M19257 19089l 24-4 27-1 25 1 9 24-14 25-16 22-19 22-16 22 13 22 27-6 26-11 25-14 22-16 18-17 21-20 17-19 17-21 14-22 13 21 9 24 14 23 12 22 5 27-12 26-16 20-23 11-28 6-24 0-24-8 19-19 23-8 24-2 26-1 29-5 27-5 27-7"/>
<path d="M19655 19091l-5 27 1 24 1 26 1 25 6 24"/>
<path d="M19702 18970l-17 17 9 23 8 24"/>
<path d="M19737 19095l 3 27 5 27 5 25 11 22 21 11 25 1 22-10 19-19 9-26 0-24-16-22-21-13-24-7 24 0 24-10 26-3 25 2 18 17 2 26 1 25 7 24 25 1 17-17 14-25 13-21 12-22 24 10 21 15 25 3 27-7 25-13 16-20 11-22 5-23 15 20 13 23 11 21 16 20 9 24 5 24-12 22-23 9-26 3-25-2-22-11 25-4 27 1 26 2 27-3 24 3 25-1"/>
<path d="M20349 19188l"/>
<path d="M4741 22199l 25-11 28-9 24-8 28-11 31-10 30-13 29-11 27-11"/>
<path d="M4802 22162l-26 11-22 14-20 20-18 23-11 26-4 25-2 26 2 24 6 24 16 18 29 0 31-10 28-11 31-13 23-9 23-8 34-12 32-7 31-5 28-2 24 0 26 4 24 10 15 20-2 27-11 22-18 27-23 29-17 19-18 19-19 18-20 19-21 19-22 18-24 15-23 14-24 12-25 9-23 8-33 9-32 8-28 4-28-4-20-14 8-29"/>
<path d="M5293 22286l"/>
<path d="M5304 22368l"/>
<path d="M5805 22169l-6-26-9-26-10-25-14-25-19-17-29-1-30 13-22 15-25 22-24 25-16 19-19 28-14 26-7 26 2 27 16 19 28 7 27-6 31-12 22-10 22-13 23-13 20-14 27-20 24-19 20-17 20-19 14-21-10 27-5 28-1 25-2 26-3 27-1 30-3 31-2 33-2 34 0 24-3 36-3 33-3 29-1 28-1 30 3 25"/>
<path d="M4837 22920l-23 7-16 27-13 29-9 23-8 26-9 29-8 30-9 32-10 33-8 35-7 37-4 36-2 35-1 33 2 30 5 25 11 33 17 23 20 16 24 9 24 3 26-6 27-14 25-21 19-25 14-29 8-28-1-25-9-23-15-20-21-18-24-10-25-4-25 3-23 9-22 12-20 15-21 23-11 24-1 26"/>
<path d="M5236 23164l 23 9"/>
<path d="M5246 23248l"/>
<path d="M5698 23008l-14 24-3 24-1 33 0 30 1 32 2 33 1 25 0 24 1 36 0 24 2 33 3 29"/>
<path d="M6001 23016l-16-21-28-4-26 8-22 19-17 18-16 19-13 21-11 23 2 26 20 20 26 11 23 7 26 7 28 6 26 7 25 6 24 13 22 16 13 24-4 29-17 22-19 17-23 14-27 11-25 6-24 1-28-6-21-16-15-22-8-31 2-28 9-32 16-31 19-30 23-26 23-24 24-22 23-18 22-13"/>
<path d="M4756 23858l 22-14 25-9 27-8 25-6 26-7 26-6 29-8 23-5 26-4 20 13-4 27-6 25-8 33-6 24-7 28-6 30-7 32-7 32-7 33-8 32-6 30-6 30-4 29-4 25-3 24-2 32 0 25 2 24"/>
<path d="M5252 23947l-21 13 4 26"/>
<path d="M5216 24071l"/>
<path d="M5548 23909l 23-16 28-4 27-1 27 1 29 6 21 11-1 26-15 20-22 23-19 18-19 15-24 19-21 18-18 17 23 8 30-3 28-3 28 0 29 3 23 8 18 17 8 25-3 27-10 23-17 25-13 21-16 20-21 21-25 20-25 20-27 16-23 12-27 6"/>
<path d="M5905 23840l-11 28-9 23-10 22-6 24-6 25 0 27 2 28 6 27 9 25 13 22 16 19 19 16 26 14 27 7 25 1 25-8 22-14 17-22 10-24 0-27-14-22-25-9-25 5-22 12-21 16-20 20-18 20"/>
<path d="M5000 24752l-4-24-11-24-24-14-28-2-25 7-24 14-20 14-18 19-15 24-11 28-2 24 11 29 17 19 26 19 22 12 23 10 26 11 25 12 23 14 22 19 16 22 8 28 2 25-3 31-10 25-15 25-18 23-21 23-24 19-25 15-27 10-29 6-28 0-25-6-26-15-20-25-9-25-2-31 6-35 7-25 10-26 12-28 16-29 17-29 20-27 21-26 21-25 21-22 22-22 21-21 21-18 20-16 28-18 25-11"/>
<path d="M5175 24905l"/>
<path d="M5179 24997l"/>
<path d="M5458 24796l 23-5 24-7 26-11 30-11 27-9 25-9 24-4-10 27-14 30-11 29-12 31-13 33-11 34-9 24-7 24-6 24-6 23-9 34-7 29-4 25 0 28"/>
<path d="M5793 24771l 20-17 28-6 27-6 30-4 30-1 26 1 25 6 18 19 0 25-8 25-13 23-18 26-16 18-16 19-18 20-18 22-19 22-20 23-19 24-20 23-18 21-15 20-16 24-9 24 12 25 28 7 33-1 27-6 28-7 28-9 26-8 27-7 25-3"/>
<path d="M4900 25623l 2-28-4-27-12-22-22-16-27-4-24 7-21 13-20 18-20 25-14 22-12 24-12 26-8 23-5 30 4 27 20 16 27-2 25-11 28-16 27-18 26-20 21-19 19-21 13-20-20 20-6 24-2 25-5 29-5 32-3 36-3 26-3 27-3 28-3 29-3 31-4 29-4 29-2 26-2 24-1 29 1 25"/>
<path d="M5129 25725l"/>
<path d="M5136 25833l"/>
<path d="M5521 25658l 2 30-4 28-6 31-7 33-5 23-5 25-5 24-6 25-6 25-5 23-7 35-4 29-3 29"/>
<path d="M5755 25627l-13 23-11 24-14 27-10 22-10 25-10 24-8 25-7 28 4 24 24 14 28 4 25 0 29-4 30-8 29-8 28-12 25-13"/>
<path d="M5849 25692l-17 21-6 28-4 31-3 26-2 26-1 26-2 25-1 25 2 25 4 26 12 21"/>
<path d="M6102 25652l-17 21-16 23-11 22-11 23-8 24-5 28-2 27 6 26 16 18 26 10 25-2 26-6 26-8 25-11 23-12 24-15"/>
<path d="M6199 25748l-14 23 1 26 5 24 2 30-2 25-1 27-2 31-3 25"/>
<path d="M4670 26466l-11 23-9 28-6 26-5 30-7 33-6 34-5 24-6 25-6 24-5 24-6 24-8 30-5 29"/>
<path d="M4809 26541l-17 20-11 22-12 28-9 31-7 32-3 32 1 30 6 29 8 27 11 21 20 22 27 12 25 3 28-4 28-9 27-14 23-17 22-21 19-25 14-27 8-25 3-24-1-24-9-24-12-26-19-27-19-26-21-22-18-17-23-14-28-6-25 2-22 14-9 23"/>
<path d="M5187 26576l"/>
<path d="M5186 26647l"/>
<path d="M5484 26479l 26 2 28 1 25 2 26 6 20 13-2 24-16 27-18 20-20 25-16 19-16 19-24 25-24 24-21 23-20 24-18 22-14 25-7 23 19 17 28-2 24-7 29-10 32-12 32-13 34-14"/>
<path d="M5904 26517l-16-21-23-12-23-7-25 1-27 6-21 13-7 25 14 22 20 18 27 13 22 9 24 13 22 15 18 16 12 22 2 26-9 23-18 26-15 18-20 18-22 17-22 12-27 10-27 2-22-15-10-28 0-31 9-28 11-28 15-29 18-28 20-25 23-21 22-19 24-15"/>
<path d="M6222 26483l-5-25-18-19-26-1-27 9-25 15-19 16-16 20-6 24 6 26 14 20 24 16 27 13 28 10 28 12 26 15 19 15 18 20 12 22 3 25-12 26-19 20-24 18-28 12-28 3-24-4-23-10-19-18-10-24-2-29 3-31 11-26 14-25 17-28 17-22 20-21 21-18 22-17 22-13"/>
<path d="M4594 27250l-4 30-9 29-9 26-10 29-10 31-10 33-10 33-10 33-10 32-9 28-6 24-4 25"/>
<path d="M4788 27262l 3 26 2 27 0 27-1 25-2 27-4 30-6 33-5 33-5 33-5 31-6 26-2 27"/>
<path d="M5106 27359l 12 22"/>
<path d="M5113 27446l"/>
<path d="M5321 27259l 21-15 25-11 23-10 27-9"/>
<path d="M5372 27244l-16 19-14 20-15 22-11 22-5 24 9 23 23 6 26-1 26-4 25-7 25-4 27-3 26-1 24 2 26 8 23 14 18 20 9 26 0 28-9 27-13 23-15 25-19 23-20 22-24 19-23 16-25 10-26 7-25 4-26-4-23-18-10-26 5-28 15-22"/>
<path d="M5698 27216l 29 5 24-2 27-3 27-5 27-4 29-3 26 1 3 25-12 27-12 29-11 26-14 29-17 33-12 22-11 23-11 22-15 33-12 30-10 29-7 25-6 26-4 25 23-9"/>
<path d="M6189 27147l-15 26-12 26-10 24-11 30-12 32-8 23-8 25-7 28-7 28-7 30-5 27-4 27-2 34 3 26 7 28 15 24 20 14 24 10 26 2 27-10 24-15 20-19 16-22 13-22 10-27-1-27-10-22-19-23-24-13-26-6-24 2-24 8-21 17-15 20-9 23"/>
<path d="M4574 27936l 9 24-1 25-4 25-7 28-7 33-6 23-6 24-6 25-7 25-7 25-7 25-8 23-9 32-7 27-6 24"/>
<path d="M4703 27956l 24-2 26 4 26 3 29 4 27 4 26 4 25 5 21 12 15 22 0 27-11 30-13 26-16 27-23 26-16 19-17 16-18 18-18 16-24 24-25 23-21 21-19 20-15 22-10 24 20 13 26-1 27-6 30-11 26-10 29-8 29-11 29-10 26-10 25-10 24-8"/>
<path d="M5117 28074l 23 12"/>
<path d="M5137 28137l"/>
</svg>
