<svg xmlns="http://www.w3.org/2000/svg" viewBox="344 1109 9112 6872" stroke="black" stroke-width="20" stroke-linecap="round" stroke-linejoin="round" fill="none" data-xena="0 0 0"><style>@media(prefers-color-scheme:dark){svg{background-color:black;stroke:white;}}</style>
<path d="M2423 2798l 12-22 8-23 7-27 5-29-1-28-12-23-20-15-28 3-21 13-21 22-20 32-12 26-11 27-11 29-8 29-6 27-5 26-1 25 2 30 11 26 24 11 27-5 24-12 26-19 23-26 22-27 17-26 12-23 9-25 1-25-19 18 0 30 1 26 2 27 4 28 5 26 10 27 18 21 26 12"/>
<path d="M2511 1789l-11 22 22-9-5-24-24 7"/>
<path d="M2492 1843l 0 25 0 26 0 25-1 28 0 29 0 33 0 34 0 24-1 37-1 25-1 25-1 25-1 25-1 35-2 33 0 31-2 26-3 27-1 24"/>
<path d="M2415 2356l 9 25 12 24 18 18 26-1 14-22 9-23 9-27 8-26 9-27 8-24"/>
<path d="M2554 1844l 15 19 21 22 16 19 22 20 22 24 19 16 18 18 20 18 21 18 22 19 26 18 29 20 30 19 32 21 31 23 32 24 34 25 33 26 33 27 33 30 31 32 31 33 29 33 28 31 26 30 25 27 22 24 21 20 25 24 21 21-2-27"/>
<path d="M3229 2554l 15 22 21 20 21 16 25 12 27 4 22-15 13-25 7-26 4-29 3-27 0-27-2-27-5-31-5-23"/>
<path d="M3482 2740l-25-7-19-15-27-7-27 10-22 17-16 18-15 25-9 23-6 25-5 26 0 28 2 28 5 24 12 24 17 17 26 15 28 5 26-1 27-6 27-10 23-8 23-12 21-13"/>
<path d="M2222 3189l-17 19-16 25-18 26-15 21-18 25-20 30-22 32-25 35-25 36-25 36-28 39-25 39-15 20-12 21-14 20-14 20-25 41-13 21-14 20-12 21-12 22-11 21-12 21-23 42-22 39-20 36-18 31-14 29-13 24-16 28-15 24"/>
<path d="M1611 3938l 2 27 4 25 3 27 5 25 12 23 25 9 25-11 25-14 26-15 21-12 21-15 22-14"/>
<path d="M1363 4272l 13 26 7 30 5 25 4 25 3 25 3 28 3 29 1 28 2 24 2 24 8-25 7-28 8-25 12-25 13-21 17-19 22-10 23 9 23 16 18 16 16 19 6 25-8 23-12 21-20 21-21 13-25 7-25-3-19-17"/>
<path d="M3479 3177l 0 27 4 27 2 30 4 25 2 27 4 33 3 35 1 27 1 27 2 28 1 33 2 33 0 35 0 37 1 35 1 35 2 35 2 34 2 31 1 31 1 28 1 24 2 30 2 30 1 29 2 27 1 24"/>
<path d="M3437 3980l 19 15 19 18 16 18 17 23 20 15 25 2 11-21 10-28 6-23 5-30 3-25 4-25"/>
<path d="M3431 4203l 6 25 4 30 3 29 3 31 5 29 4 29 3 26 3-28 13-24 17-18 24-11 25-5 28-1 23 9 14 22-2 24-11 24-20 18-25 9-24 3-27 1"/>
<path d="M1321 4705l-19 22-15 25-15 24-13 20-15 23-17 27-18 28-21 30-22 33-23 34-23 37-23 37-23 39-23 40-12 22-12 22-12 22-13 24-12 22-13 23-12 23-13 23-11 22-11 22-21 39-19 36-16 32-12 25-13 30-9 25"/>
<path d="M807 5361l 0 26 3 29 1 25 2 25 3 28 4 24 15 20 23-5 20-13 23-20 17-18 20-20 18-18 21-15"/>
<path d="M809 5842l-7-25-9-24-13-22-16-19-21-15-25 4-18 24-12 30-8 28-6 30-5 31-3 31-1 26 3 27 20 16 22-18 21-25 16-22 16-25 17-28 13-22 13-25 14 21 8 27 11 24 16 20 21 14"/>
<path d="M797 6134l-5 24 1 27 3 28 2 26 3 31 1 25 1 25 0 28 0 30-2 31 0 34-2 34-3 36-3 38-4 38-3 38-2 31-3 34-2 25-1 26-2 27 0 26-2 28 0 26 0 26 2 42 2 32 3 25 2 25 4 26"/>
<path d="M700 6933l 14 23 19 22 18 22 18 22 20 26 13 20 24-6 9-27 9-24 8-24 11-22 13-26 10-23"/>
<path d="M733 7309l-9 23 7 27 7 29 6 25 7 27 6 28 4 25 3 31 0 26-2 24-16-21-2-25 3-27 7-27 13-24 22-15 27-6 27 5 21 17 13 24 5 28 0 25-6 26-14 23-22 16-27 5-25-3"/>
<path d="M3524 4117l-9-23-20-15-29-4-27 1-31 5-26 6-26 12-26 18-27 23-18 18-19 22-20 24-18 25-18 29-14 29-11 29-10 31-7 30-3 30 0 31 3 31 6 31 11 28 15 26 19 23 23 22 26 17 28 15 30 10 32 7 34 7 36 5 35 2 33 2 32 2 31 0 30 0 27-2 26-4 34-11 23-11 21-14 20-17 18-20 15-22 13-24 11-26 9-27 7-27 6-28 4-26 0-26-1-24-5-24-9-27-13-27-17-28-22-30-25-29-26-27-27-25-26-20-24-15-25-12-24-7-24-5-25-4-36-1-24 0-25 2-36 5-33 5-31 3-26 1-29-1-27 4"/>
<path d="M1361 4090l-29 1-28 5-27 9-25 14-18 15-19 22-20 25-18 31-11 24-9 28-8 30-7 30-5 32-2 33-1 33 2 34 5 32 9 32 11 31 14 30 16 27 18 22 21 20 22 17 25 14 27 15 28 10 30 7 31 5 31 3 31-1 30-2 30-6 28-8 28-10 27-13 27-15 26-19 25-22 22-24 21-27 18-25 15-28 13-27 10-28 8-25 5-25 2-25 0-33-9-34-10-24-16-24-19-23-22-23-27-21-30-20-33-19-36-19-36-15-35-11-37-9-35-4-33 0-32 3-28 7-26 9-24 10-29 19-23 15-20 15"/>
<path d="M691 7139l-27 1-27 10-22 15-16 18-18 25-17 31-12 24-9 27-8 30-8 32-5 34-4 37-1 39 3 38 5 38 7 39 8 36 12 33 14 29 16 25 18 22 20 18 21 13 23 9 38 7 25 1 24 0 44-4 39-8 31-9 30-11 31-13 31-14 29-16 27-17 26-18 21-17 20-20 16-19 12-21 10-25 5-26 3-29-1-33-3-33-7-35-8-36-13-36-15-35-19-35-23-34-27-33-30-32-33-28-32-24-30-20-30-14-28-11-32-7-27 0-31 3-35 9-24 8-25 8-24 11-24 10-30 16-28 13-20 13-22 16"/>
<path d="M3383 2647l-24-9-26-2-27 5-27 7-27 14-22 16-21 22-21 28-13 23-12 25-11 27-8 27-6 28-4 29-3 29 0 28 2 27 5 23 14 30 20 25 25 22 27 15 33 11 35 6 36 2 24-2 26-3 25-4 26-7 25-8 25-12 23-13 23-17 22-18 22-19 19-20 17-24 17-25 13-25 11-27 8-23 6-32 1-33-7-32-12-32-21-30-19-21-22-20-23-20-24-18-26-16-27-13-26-10-27-8-26-3-24-1-33 4-29 7-26 10-22 10-24 14"/>
<path d="M1304 7597l-7 26 3 26 5 27 4 27 6 26 5 24 5 25 8 25"/>
<path d="M1963 4642l-1 25 5 27 6 27 6 32 7 30 6 25 7 25 3 24"/>
<path d="M2568 1441l 22-12 24-1 25 0 25 0 24 2 22 10-3 25-14 26-15 24-13 22-11 22 25 0 25-5 25-7 25-2 26 7"/>
<path d="M2641 1616l 14-22 14-22 13-22 13-25 15-25 16-25 16-25 20-30 15-23 14-22 14-20 16-24 19-22 15-19 12-21"/>
<path d="M1866 4969l 12-21 19-23 18-23 20-28 15-19 15-21 16-20 16-21 16-23 17-22 15-23 15-20 20-25 18-22 19-23 14-20"/>
<path d="M1143 7821l 18-19 14-20 17-27 15-20 16-20 19-23 20-25 19-26 20-24 18-23 18-19 20-24 18-20"/>
<path d="M3905 2649l 24-5 28-1 25 2 25 6 23 9 24 17 14 21 2 31-6 25-9 29-14 29-16 28-19 27-17 23-16 18-16 19 19 15 25-4 28-5 31-7 27-5 29-1 25 3"/>
<path d="M2999 1454l 7-24 25-10 27 3 24 5 26 9 26 10 16 19-5 27-14 25-14 22-15 21-14 19-16 21-14 20 24 4 28 0 30 1 30 2 25 2 23 10 22 13"/>
<path d="M5447 1949l 9-22 17 19-4 32-5 32-3 25-5 28-5 30-5 32-5 34-5 34-5 35-3 32-3 32-2 28-1 34 5 24"/>
<path d="M5593 2013l-11 31-8 33-2 34 0 34 5 32 10 28 14 22 19 15 29 7 24-3 24-10 22-14 19-17 17-21 12-22 7-25 3-25-6-25-15-24-24-24-20-16-21-15-21-13-29-13-29-5"/>
<path d="M5748 1811l 17-18 28-8 30-3 25 2 20 13-8 25-13 21 25 6 24 1 26 7 17 18-5 27-19 25-23 20-20 13-22 13-22 12"/>
<path d="M6283 2094l-11 24-8 30-7 27-5 28-4 25 1 27 10 24 24 4 19-15 21-25 15-23 14-22 10-24 8-26 4-24-4 28-2 25 0 26 3 30 8 27 25 8 16-20 14-22 13-23 11-25 11-23 9-27 7-25-3 25-3 33-2 29-3 26-1 27 26-6 13-22 12-25 10-27 10-25 10-22 8 27 2 31 2 25 3 28 5 27 15 21"/>
<path d="M6711 2116l-11 28-9 26-8 30-4 29 6 25"/>
<path d="M6713 1924l-11 21"/>
<path d="M6900 2136l-19-14-24-5-22 10-20 23-15 23-11 26-6 26 21 15 23-7 26-16 18-17 18-18 16-23 13-22-26 10-11 23-12 28-10 34-7 25-5 30-5 33-4 34-4 36-1 36 0 34 2 32 4 25 10 26 19 21 25-6 17-28 14-33 7-25 5-29 4-30 1-30-2-30-5-28-6-27-11-29-15-22 24-5 25-13 25-17 19-16 19-18 20-23 17-23-14 27-7 25-3 26 10 23 22 15 27 7 28-8 25-14 20-22 10-24 8-26-1 26 12 22 20 18 24 9 27 4 23-7 21-15 18-19 22-15 23-10 23-11 2-26-24-11-25 1-23 9-15 20-7 24-3 28 3 29 11 26 17 22 23 10 31-1 30-10"/>
<path d="M7994 1710l 18 23 8 32 2 31-2 24-2 26-4 30-5 30-6 34-7 34-6 35-8 34-7 32-4 29-3 26 1 31 7 23 19 20 31 4"/>
<path d="M8144 2095l 27-6 27-13 21-12 23-18 15-21-19-17-29 1-25 3-26 9-23 13-20 17-19 25-9 24 2 28 18 21 22 11 28 1 31-2 25-6 29-12 23-17 18-19 12-21-5 25 25 8 24-9 20-14 19-15 17-18 18-17 9 25-4 27-2 28 14 23"/>
<path d="M8659 2041l-19-19-26-12-27 10-19 17-19 22-16 28-10 28-4 25 8 24 21 12 25-4 29-15 20-15 22-21 14-21 10-23-13 23 0 28 3 26 5 28 5 29 6 30 2 33 0 36-3 35-5 23-11 34-11 25-11 23-20 29-25 19-27 9-26 0-26-11-23-21-15-20-12-23-10-28-7-32-4-37 1-40"/>
<path d="M8838 1660l-8 24-3 25 0 25 2 29 1 33 0 28-1 28-2 32-4 31-4 32-5 32-4 29-3 25 0 30 5 28 17 24 28 8 27-5 20-13 19-20"/>
<path d="M8771 1927l-24 4-24 7 27 8 27-8 33-14 22-11 23-13 21-15 20-16 18-16 21-26 16-24 11-24 7-30 1-29-3-26-9 27-2 27-1 35 0 24 2 26 1 26 1 27 1 25 0 26 0 25-1 31 1 28 21-14 12-22 12-23 15-22 12 23 3 25 3 27 5 23 15 21 24-1"/>
<path d="M9273 1915l-26 9-25 17-20 18-15 20 0 25 26 4 28 3 24 8 20 16 4 26-14 22-23 17-28 11-26 6-30 4"/>
</svg>
