<svg xmlns="http://www.w3.org/2000/svg" viewBox="352 1922 11584 12288" stroke="black" stroke-width="16" stroke-linecap="round" stroke-linejoin="round" fill="none" data-xena="0 0 0"><style>@media(prefers-color-scheme:dark){svg{background-color:black;stroke:white;}}</style>
<path d="M6670 2269l 0-1-1 28-4 25-3 27-3 29-1 29-2 30 0 29 0 27"/>
<path d="M6690 2186l-5-2-29-2-25 3-24 6-25 15-20 20-18 26-15 24-12 27-11 29-9 30-5 32-3 32 1 32 5 29 11 25 14 24 19 20 22 18 26 13 28 9 31 6 33 2 34-4 25-4 23-6 24-8 22-10 23-12 21-14 20-17 19-17 17-19 19-31 13-31 5-33 0-36-6-24-9-25-11-25-14-23-16-22-18-18-20-15-21-13-22-10-22-10-24-8-23-6-34-5-34-2-32-2-26 1-29 5"/>
<path d="M6389 2730l 1-2-21 21-19 24-18 20-19 23-25 24-27 30-30 33-16 18-18 18-18 20-19 19-21 22-21 21-22 22-23 22-24 24-24 24-26 24-27 26-27 27-27 27-29 27-29 28-28 28-29 28-31 28-28 30-30 29-29 28-29 29-29 29-29 30-29 28-27 28-28 27-27 27-28 27-26 28-26 25-25 26-25 25-22 25-22 24-22 24-22 22-21 23-22 22-21 23-20 23-21 22-21 21-20 21-20 21-19 19-19 20-19 18-17 18-18 16-33 31-30 28-24 22-23 19-23 23-17 19"/>
<path d="M4499 4553l 0-1 23-16 26-8 28-8 27-6 25-4 26-2 11 23-18 24-15 21-19 19-20 20-21 18-21 18-21 15-23 20-14 21 5 23 28 6 25-5 24-8 29-12 28-14 28-16 26-14 24-16 21-14"/>
<path d="M4680 4407l-5-2-27-9-31 0-25 5-29 9-31 11-23 9-23 10-23 12-23 13-21 15-20 15-19 17-19 17-16 18-14 20-17 31-11 33-3 32 3 33 10 32 15 30 24 25 21 13 25 9 26 8 29 5 31 3 32 0 31-2 32-4 29-6 30-8 31-11 28-13 29-15 26-15 25-16 22-16 20-16 16-17 18-28 13-28 4-30-1-31-10-34-11-24-14-27-17-26-18-26-20-25-21-22-21-16-21-14-28-12-27-10-30-7-27 2"/>
<path d="M6951 2857l-2-3 22-11 27 12 21 13 26 17 19 15 20 18 25 20 26 24 29 25 32 28 35 29 19 16 19 17 21 17 21 18 21 19 23 20 24 20 24 22 25 21 26 22 26 23 28 23 28 23 28 25 29 25 30 25 30 26 30 27 31 26 30 27 31 27 31 27 32 27 32 27 32 27 33 27 32 27 33 27 33 27 32 26 33 28 32 28 32 28 33 28 31 28 33 27 33 29 31 28 33 27 32 27 32 27 31 26 30 26 30 26 30 25 29 24 28 25 28 23 26 23 27 22 26 22 26 21 24 22 25 19 24 19 22 19 23 18 22 17 21 17 20 14 20 15 35 26 30 23 26 20 23 16 26 18 22 13"/>
<path d="M9226 4647l 0-1 21-16 25-5 24 0 26 4 23 9-2 26-22 15-22 16-23 16 17 16 26-2 27-1 27 5 23 9 7 24-10 25-17 18-20 15-22 13-25 10-25 5-25-6"/>
<path d="M9322 4497l-5 0-26 5-26 11-26 12-26 15-23 16-21 20-19 22-14 25-10 23-7 27-2 31 2 33 6 30 9 30 12 26 17 25 23 22 28 18 30 12 34 8 24 3 25 0 26-1 26-3 25-6 25-6 22-10 30-18 26-22 23-22 19-22 14-25 9-30 2-33-4-35-5-26-7-28-10-29-12-27-13-25-16-20-18-17-31-17-24-6-26-2-28 1-30 4-30 7-31 9-31 11-28 12"/>
<path d="M4427 5063l-1-2-26-3-23 21-20 21-27 28-19 21-21 22-24 27-23 28-27 29-29 33-30 33-31 36-16 20-18 18-17 21-19 20-20 22-20 22-21 22-22 22-22 24-23 24-24 25-25 26-28 25-28 27-26 26-28 28-27 27-28 28-27 28-26 27-26 28-28 28-28 26-27 27-26 26-27 27-27 24-27 24-25 24-26 24-24 23-25 22-24 22-24 21-24 22-21 21-22 20-22 19-21 18-20 17-20 18-37 31-21 14-34 26-31 23-28 21-21 15-26 16"/>
<path d="M2652 6692l 2 0-16 25-17 26-17 25-15 29-11 22-11 28-5 24 1 25 14 23 21 13 31 2 28-4 31-7 24-9 23-13 19-14 20-18"/>
<path d="M2715 6814l-2 3-12 21-9 28-7 31-4 25-2 26 1 26"/>
<path d="M2722 6549l-5-1-26-1-30 5-23 11-27 14-28 21-22 18-22 19-21 22-21 23-19 24-17 25-17 25-15 28-15 31-11 33-7 35-5 35-2 34 1 35 4 33 8 32 13 27 17 26 17 24 20 21 22 19 23 16 26 11 27 8 28 5 28 1 27-2 28-6 26-9 29-12 28-15 27-19 29-20 26-23 25-27 21-27 20-27 16-28 13-26 12-27 8-27 4-29 2-33-3-32-7-34-12-33-16-33-18-33-22-32-22-29-25-22-24-19-24-14-24-10-25-9-24-5-35-2-32-1-27 2-26 2"/>
<path d="M4958 5020l 0-1 17 22 14 21 16 22 19 24 23 29 19 19 19 20 22 22 24 23 25 26 28 27 28 28 29 30 29 32 30 31 15 18 17 18 33 34 16 18 16 19 18 19 18 19 17 19 18 20 18 20 18 21 18 21 18 21 19 22 17 22 17 23 16 22 17 23 17 23 16 24 15 23 14 22 16 23 15 24 15 23 15 24 15 23 14 23 16 22 15 23 14 22 14 21 13 21 13 21 14 21 25 42 25 39 25 38 23 36 22 34 21 33 19 29 18 25 18 23 17 20 15 19 20 20 18 18 21 21"/>
<path d="M6003 6773l 0-1 27-7 28-6 26-9 25-10"/>
<path d="M6018 6774l-2 2-19 17-12 25-9 24-4 24 16 21 25 1 25-2 25-4 27-1 24-3 26 2 23 11-1 26-18 21-22 18-25 18-21 13-28 13-26 9-25 2-27-4-24-15-15-26"/>
<path d="M6096 6514l-5 1-28 1-28 7-30 12-33 15-21 11-31 19-27 22-17 17-16 18-15 21-14 25-11 25-10 27-7 30-5 30-3 33-1 33 1 32 6 32 8 29 12 27 14 26 17 24 19 20 21 19 21 15 23 12 25 10 25 8 25 3 26 2 26-2 26-6 27-7 27-11 28-12 26-17 25-20 25-24 22-30 20-27 18-29 12-32 12-28 8-32 5-32 2-31-2-33-6-32-8-32-11-31-13-25-16-21-18-17-31-18-32-12-34-6-36-3-35 1-35 2-33 3-29 3-25 5-25 5"/>
<path d="M9403 5064l 1-3 6-24-14 25-14 25-18 32-13 21-15 27-14 28-15 32-15 32-16 37-16 37-17 41-16 44-9 22-18 46-10 26-10 26-10 25-10 27-11 26-12 27-12 28-11 28-11 26-11 29-12 29-12 28-11 27-11 28-11 26-11 26-10 27-10 25-11 25-9 25-9 23-9 23-8 24-15 43-12 40-10 36-8 34-6 31-5 30-3 27-4 35-2 27-4 31-3 28-12 22"/>
<path d="M8772 6814l-1-1-24 15-14 23-16 27-11 24-10 23-7 30-2 25 2 28 12 25 16 20 26 12 26-5 26-13 19-19 15-20 7-24-12-23-25-15-26-5-32 3-24 6-23 8-25 13-20 16-9 24"/>
<path d="M8772 6614l-4-1-27 0-25 7-27 12-25 18-26 22-17 19-16 21-16 22-15 27-14 28-11 29-10 31-6 32-4 31-2 31 1 32 3 31 6 30 9 27 10 26 12 21 15 20 24 23 26 19 28 15 29 9 32 1 35-8 23-8 25-12 25-13 28-16 26-20 26-21 23-25 21-27 17-26 15-28 12-28 10-26 6-28 1-27-3-28-7-30-10-29-14-26-16-29-18-28-20-26-20-26-22-18-24-15-23-11-24-7-34-6-33-2-31-1-26-1-27-5"/>
<path d="M9794 4974l 0-1 19 21 20 25 22 25 19 19 22 22 27 22 29 23 34 24 38 25 39 28 22 15 22 14 23 16 23 16 23 16 24 17 25 18 24 18 24 18 25 19 25 20 25 19 25 20 25 20 24 20 25 21 24 20 25 22 24 21 25 21 26 22 25 22 25 22 26 22 25 22 25 21 25 22 24 22 25 22 26 22 24 23 25 21 25 22 25 22 25 21 24 22 24 22 23 20 24 20 22 20 23 20 23 20 21 18 22 19 20 19 21 17 20 17 19 18 18 16 17 16 33 31 31 28 28 28 26 26 23 26 20 23 18 21 21 27 16 23 17 24 15 21"/>
<path d="M11408 6688l 1-2 27 4 29-1 28-3 29-3 25-3 25 0 23 7 4 25-9 24-13 26-12 25-13 27-12 26-10 22-12 25"/>
<path d="M11515 6545l-6-2-28-3-32 3-32 7-31 9-30 13-29 14-26 18-24 23-19 26-14 32-11 35-4 26-3 27 0 29 3 28 7 27 9 25 12 24 13 23 18 21 19 21 20 16 23 15 23 12 24 7 26 7 27 5 30 1 32 0 33-6 33-8 33-11 32-14 30-14 28-16 24-19 21-19 21-21 16-19 18-30 8-31 1-35-2-26-4-25-9-27-11-27-13-28-17-27-17-25-19-25-20-21-23-18-24-15-27-12-27-9-28-6-29-6-28-1-30-1-28 2-29 3-29 4"/>
<path d="M2492 7491l-2 0-21 13-19 17-19 25-15 21-17 22-13 21-12 23-14 26-15 30-17 32-19 35-22 38-24 41-13 21-14 22-14 23-16 23-14 24-16 25-15 25-16 26-18 27-17 27-19 27-18 28-18 28-17 28-20 29-18 28-18 28-17 28-17 26-16 28-16 27-19 27-16 28-17 27-16 27-16 28-16 28-16 26-18 25-14 24-14 23-14 22-14 21-12 21-13 21-22 38-23 35-21 31-21 27-17 23-17 19-22 21-21 16"/>
<path d="M1434 9299l 0-2-7-25-13-25-19-19-24-10-27 7-24 18-19 19-18 23-10 22-3 25 19 21 22 8 26 5 29 4 30 8 27 7 20 15 14 24 2 25-11 25-17 23-26 11-26 2-25-8-21-17-16-19-9-23 0-28 7-24 15-25 15-22 19-21 22-22 20-16"/>
<path d="M1438 9123l-5-3-24-9-29-4-28 0-30 2-29 10-23 15-25 16-24 19-19 25-15 21-13 25-11 26-13 26-7 25-7 34 3 24 1 25 3 26 7 36 14 30 17 26 22 21 27 17 28 9 36 7 25-2 31 1 29-6 29-10 30-9 27-13 28-15 25-16 23-21 24-22 22-23 19-27 15-25 14-27 10-26 7-28 3-27 1-27-4-28-6-25-10-25-12-25-18-25-18-24-22-24-23-21-25-21-25-19-24-16-24-18-24-12-24-9-31-10-25-4-25 0"/>
<path d="M2924 7382l-1-2 22 14 20 25 17 25 13 21 17 22 19 27 20 26 23 27 23 29 23 30 26 34 25 36 26 38 27 40 26 41 15 21 15 21 14 22 16 20 16 22 16 23 16 22 15 23 16 22 16 23 15 23 16 23 14 22 15 23 16 22 17 22 16 23 16 22 15 23 15 21 16 22 15 22 15 21 14 21 14 20 27 35 14 20 25 37 25 36 22 36 21 32 20 29 18 28 16 27 15 23 14 20 13 20 17 24 14 22 15 23 10 22"/>
<path d="M3902 9099l-1-4-13-24-21-11-27 8-23 15-20 20-15 23-13 25-6 25 15 20 26-8 25-15 21-13 22-13-1 25-10 25-4 25 2 26 3 30 1 25 2 27 10 23"/>
<path d="M3898 8944l-3-2-22-13-27-4-29 5-28 16-24 22-16 18-17 20-14 24-15 24-14 26-12 28-11 26-8 30-5 30-3 33 0 34 2 34 5 35 8 30 10 29 12 28 14 24 17 22 19 18 21 14 24 11 23 9 26 5 27 0 26-1 27-6 24-9 24-9 22-14 22-17 21-20 19-25 16-25 14-26 11-29 8-27 4-29 3-28-1-28-2-29-7-30-9-31-12-31-15-32-16-28-19-25-19-21-20-18-19-15-29-17-31-8-32-1-30 3-29 9-25 13"/>
<path d="M5409 7335l-1-1-19 18-14 23-11 22-12 27-10 25-9 22-8 23 11 21 25-2 25-6 27-11 23-12 25-8 25-10 22-11 22-11"/>
<path d="M5459 7413l-1 0-13 23-3 25 0 26 1 27 3 27 7 27"/>
<path d="M8186 7450l 0-1 26-7 26-5 27-3 28 2 24 0 23 11 6 25-18 23-19 22-22 21-26 17-27 15-25 16-19 15-20 15 14 21 25 0 23-5 27-6 31-8 23-7 25-4 25-5"/>
<path d="M11162 7266l-1 0 27-11 26-6 25 0 26 1 24 3-2 25-17 18-22 13-22 14 9 23 24 1 28-1 28 0 26 3 25 8 23 13 1 26-20 18-21 12-26 11-29 8-30 7-24 2-26-5-24-8-23-10"/>
<path d="M854 9800l-1 0-14 20 2 25-2 28-1 29 1 25 0 25-1 26 5 26"/>
<path d="M3261 9813l-2 0 27-3 26-4 26-4 25-2 24-3 29-1 26 0 21 12-7 26-11 24-11 23-12 27-13 22-9 24-9 29-7 27-8 26"/>
<path d="M5018 7364l 0-1-2 25 0 27 4 28 1 25"/>
<path d="M5604 7624l 0-1 7 28-11 25-11 23-11 23"/>
<path d="M5196 7575l 0 0-5 24-7 26-10 25"/>
<path d="M5779 7378l 0 1-13 23-6 24-6 27-2 26 10 22 27 7 26-1 26-6 27-9 29-10 30-11 27-7"/>
<path d="M5873 7424l-1 1-10 23 4 25 7 29 7 26 7 28"/>
<path d="M7756 7456l-2-1-8 27-1 26 0 25 2 24 4 30 5 28 4 30 3 28"/>
<path d="M7931 7699l-2 0-18 17-10 24-9 28-7 24"/>
<path d="M8495 7609l 0-1-5 28-9 26-9 27"/>
<path d="M8700 7435l 0 0 25-1 27 0 29 5 24 6 20 14-9 27-18 18-24 20-20 15-22 13-23 14-21 14-23 19-17 20 15 21 29-1 26-3 25-6 26-6 26-6 27-3"/>
<path d="M10889 7232l-1-1 5 24 3 25 2 26 3 30 0 26-1 25 0 27 0 28"/>
<path d="M11052 7441l 1 0-12 22-11 24-11 21-12 22"/>
<path d="M11537 7422l-1 2-17 18-12 21-10 22-14 23-10 25"/>
<path d="M11675 7266l 1-2 22-12 25-3 25 1 25 6 25 6 24 12 7 25-21 17-22 13-24 13-24 13-21 15 20 15 24-2 25 2 23 13 12 23 2 24-10 23-15 20-20 17-20 15-26 13-27 9-26-4-21-13"/>
<path d="M455 9858l 0-1 12 25 1 29 4 24 1 32 5 24 1 25 4 24 3 29 7 28"/>
<path d="M632 10044l 0 1-5 27-4 28-2 27-3 24 0 27"/>
<path d="M1002 10031l-2 0-6 26 0 26-1 26-4 28"/>
<path d="M1219 9837l 0 0-2 27 2 25 5 29 5 27 4 28 6 30 4 29 3 27 1 28 0 31"/>
<path d="M2928 9850l 0 0-1 25 0 30 3 31 1 32 1 26 2 25 5 26 4 24 6 28"/>
<path d="M3116 10117l 0-1 4 27-5 28-7 26-6 24"/>
<path d="M3590 10033l 0 0-7 25-3 26-6 29-8 30-7 25"/>
<path d="M3797 9779l 0-1 27-4 23-6 25-8 26-11 22-8 24-6-1 26-6 25-8 24-9 26-9 24-8 26-7 26-6 25-5 25-6 25-6 29-3 25-6 25-9 23"/>
<path d="M964 6915l-1-1 10-22 25-13 25-10 28-7 27-2 26 2 27 7 18 17-2 27-13 22-21 25-18 19-20 16-18 16-17 17-21 20-21 18-17 19-18 22-9 24 26 7 26-6 25-6 25-10 31-11 25-7"/>
<path d="M1227 7125l 0 0-9 23-13 25-13 25-10 25"/>
<path d="M1446 6883l 1-2-18-19-26 0-24 10-21 16-15 19 2 25 15 20 24 18 20 14 19 16 21 19 16 22 10 27-1 26-9 27-16 22-23 10-27 3-22-11-18-20-11-21 1-29 9-27 13-25 20-22 18-17 21-14 24-11"/>
<path d="M1584 7192l 0 1 4 26-8 25-12 21-14 21"/>
<path d="M1815 6964l-2-3-17-19-23-6-25 1-28 9-22 13-17 22-11 23-2 24 21 16 27 4 25-5 24-10 23-11 16-21-16 24-5 25-4 27-4 29-4 26 0 24 3 26 5 24"/>
<path d="M10057 4582l 1-2 14-21 25-10 24-6 25 1 25 2 24 9 6 25-14 21-20 21-22 21-23 18-22 17-20 15-23 16 22 14 24-2 31-3 24-1 26 0"/>
<path d="M10341 4757l 0-1-17 19-15 23-13 20-16 22"/>
<path d="M10519 4547l 0-1 23-9 26-5 29-8 29-5"/>
<path d="M10518 4578l-2 1-21 15-13 23-8 25 16 19 28-8 24-8 27-7 25-6 26-4 29-2 25 5-1 24-19 22-22 20-24 19-23 19-25 18-24 14-22 11"/>
<path d="M10767 4734l-1 1-18 20-12 24-13 22"/>
<path d="M11031 4516l-1-2 21-12 25-3 30-3 31-3 31-5 29-3 27-4 24 2-9 25-15 23-14 24-14 22-13 21-11 21-13 28-9 23-11 28-10 26-8 24-7 25"/>
<path d="M3686 4719l 0-2 8-25 20-15 26-19 25-15 28-20 21-16 23-18 25-17 24-16 24-16 22-15 24-16 25-14 25-15 22-13 21-14 26-19 22-18 19-18 18-17"/>
<path d="M5882 2352l-1-2 8-26 20-14 26-16 20-12 24-13 25-14 26-14 27-15 29-16 29-16 28-17 29-17 30-16 28-17 26-17 27-16 26-15 26-14 24-14 24-14 23-12"/>
<path d="M2256 12298l 0-2-4 25 3 31 6 26 6 25 7 26 6 26 4 30 0 28-3 26 0 29-4 29-1 24"/>
<path d="M2446 12654l 0 1-8 25-10 22-15 23-8 23-11 22"/>
<path d="M2718 12292l-1 1-19 16-13 25-13 25-11 23-10 29-3 26 7 25 22 13 27-1 28-9 25-9 25-7 24-9 23-9"/>
<path d="M2772 12378l-1 1-5 25-5 29-2 29-2 27-1 26 4 24 1 26"/>
<path d="M2952 12624l-1 1-14 21-13 23-11 26-6 28"/>
<path d="M3233 12330l-2 0-19 16-9 26-6 23-6 29-5 26-1 24 6 28 15 22 27 7 28-3 24-6 26-6 27-6 25-2"/>
<path d="M3305 12483l-1 0-13 22-4 25 7 28 5 26 5 25"/>
<path d="M2025 12234l-4 1-25 13-19 16-19 22-16 27-9 26-9 31-7 34-3 25-4 28-2 28 0 31 2 29 3 31 4 31 6 31 8 31 9 30 12 29 13 25 15 24 18 24 22 22 24 19"/>
<path d="M3434 12112l 1 0 19 16 16 20 19 19 22 20 18 20 16 22 17 25 15 28 15 30 14 33 14 31 11 33 8 33 6 33 4 33 0 32-3 34-5 23-7 25-10 25-14 25-15 26-19 27-22 30-27 28-26 29-28 28"/>
<path d="M4543 12174l-2 0-22 10-16 20-15 20-16 28-11 23-10 26-9 29-8 30-8 34-4 34-5 32-6 29-2 31-1 28 0 28 1 29 2 25 5 25 10 23 23 16 27 3"/>
<path d="M4651 12349l 0-2 27-9 25-6 24-3 29 0 27 4 23 8-2 28-13 23-13 22-16 22-19 24-19 25-16 19-15 21-12 25 6 25 25 5 28-2 28-4"/>
<path d="M4929 12556l-2 2-9 26-10 28-8 27-9 27-7 29-3 29"/>
<path d="M5183 12330l 0-1 23-10 26-9 25-7 25-6 28-8 24-7 25-8"/>
<path d="M5236 12336l-2 1-21 16-17 19-14 24-3 25 9 23 27 6 27-4 28-9 28-8 28-4 24 2 26 4 17 19-2 28-8 28-11 25-12 22-14 22-18 19-20 15-21 14-24 11"/>
<path d="M5558 12587l-1 1-15 19-11 25-4 25-5 23"/>
<path d="M5752 12322l-1-2 27-4 26-6 28-5 29-6 25-5 27-3 24 1 8 23-10 24-12 25-13 30-8 24-10 24-7 26-6 24-6 30-7 26-6 26"/>
<path d="M5961 12188l 0-1 25-1 26 8 27 11 21 13 21 18 18 20 18 20 14 23 10 27 9 26 5 26 3 24 0 28-4 28-4 24-9 24-8 28-10 24-11 28-12 22-11 25-17 26-18 18-20 15-21 13"/>
<path d="M1478 13647l 0 0 26-3 26-5 25-3 27 2"/>
<path d="M1521 13743l-1-1 19-15 26-11 24-6 24-7 27-5"/>
<path d="M3850 12468l 0-1 23-10 26-6 27-5 25-7"/>
<path d="M3888 12392l 0 0-16 18-2 26 1 26 2 27 4 24"/>
<path d="M2029 13385l-1-1-24 12-15 26-13 26-9 25-11 26-10 30-12 29-10 35-8 34-10 34-10 35-11 34-6 25-5 26-5 26-2 26-2 26-1 25-1 25 3 34 8 30 9 25 11 23 13 21 19 22 19 15 20 13 28 10"/>
<path d="M2162 13638l-1-2 21-16 25-13 29-9 31-8 30-5 25 0 26 1 25 5-10 23-18 17-25 16-22 14-22 11-28 15-25 13-24 14 25 0 30-2 27-1 28 0 28 1 26 6 23 12 12 22 2 28-12 25-18 22-20 20-23 17-28 14-27 11-27 9-26-1-26-5"/>
<path d="M2602 13947l 0-1-4 28-8 28-6 26-5 30"/>
<path d="M3020 13626l-1-2-7-24-3-26-13-24-14-21-22-17-28 0-22 12-26 18-19 16-17 21-17 24-14 28-10 26-1 27 17 18 24 4 25-4 25-10 27-14 22-15 21-16 18-17-4 24-5 27-1 26-1 25-2 24 0 29-1 29 0 26 1 25 1 28 2 24 6 23"/>
<path d="M3189 13965l 0 0-1 25-4 26-7 23-11 24"/>
<path d="M3499 13573l-1-2 5 29 1 31-3 26-1 26-2 26-1 27-1 27-2 27 2 28-1 27-3 28-1 26 4 24"/>
<path d="M3831 13531l-4-3-19-15-26-7-29 8-23 16-17 18-15 20-12 26-6 27-1 28 5 24 21 16 25 2 25-5 30-13 21-14 22-15 19-17 21-21 11-23 7-25-15 26-6 29-7 29-4 26-3 25-3 27-1 24 1 24 4 31 6 30 6 28 13 22"/>
<path d="M3977 13366l 1 0 26 11 19 18 18 22 17 23 20 26 23 26 21 26 18 28 15 30 14 29 12 31 10 31 6 31 3 33-1 34-5 26-4 25-9 35-6 23-9 24-9 25-11 22-14 33-16 26-16 22-18 22-17 22"/>
<path d="M1431 13899l-3-2-18-17-4-26 11-28 18-29 15-23 17-25 20-27 21-31 24-35 27-37 27-39 27-37 27-36 27-33 26-32 26-28 23-23 20-21"/>
<path d="M6754 13804l-1 0-9 25-8 29-9 30-9 25"/>
<path d="M7612 13160l 0-2-27 0-21 17-19 18-16 20-17 23-17 25-17 26-16 30-17 27-14 30-11 28-10 30-8 29-5 30-4 30-1 28-1 29 1 28 0 27 3 26 6 29 8 28 10 25 10 24 13 22 15 21 16 19"/>
<path d="M7831 13373l-1-1 17-19 26-3 28-4 28 5 26 8 24 11 22 11 13 21-10 24-16 20-21 23-19 16-25 18-25 16-23 17-22 19-18 19 6 24 27 0 28-4 31-4 25-3"/>
<path d="M8154 13609l 0 1-6 23-5 24-8 27-8 23"/>
<path d="M8486 13365l 0-3-4-26-15-21-26-8-24 6-24 12-24 17-17 17-12 22 2 25 19 17 20 15 25 13 25 12 25 13 24 11 21 12 21 16 16 20 2 25-11 25-17 20-23 18-23 15-24 10-26 5-22-12-16-19-6-24-2-26 5-26 10-26 15-25 16-22 20-19 20-15 25-10"/>
<path d="M8624 13698l 0 2-9 27-12 22-15 19-16 25-14 20"/>
<path d="M9016 13398l-2-2-23-16-22-15-24-7-24 3-28 10-22 17-17 21-10 25 8 25 21 21 23 12 28 4 27-3 24-4 24-8 21-13-11 28-7 28-6 24-2 25 2 25 3 28 4 27 11 22"/>
<path d="M9174 13200l 0-1 17 22 16 24 19 24 15 21 17 25 17 26 17 25 17 23 14 25 13 22 11 30 11 26 8 25 5 23 1 27-1 28-5 27-8 25-11 27-15 27-18 27-19 25-20 26-18 21-19 19-24 19"/>
</svg>
