<svg xmlns="http://www.w3.org/2000/svg" viewBox="346 3032 13120 40173" stroke="black" stroke-width="16" stroke-linecap="round" stroke-linejoin="round" fill="none" data-xena="0 -13 0"><style>@media(prefers-color-scheme:dark){svg{background-color:black;stroke:white;}}</style>
<path d="M5837 4238l-1 0-26 6-18 17-22 20-22 20-20 18-26 23-20 17-24 19-24 21-27 22-30 24-32 25-33 26-36 27-39 29-18 15-21 15-20 16-20 16-21 16-20 16-22 17-21 17-22 18-22 19-22 18-22 19-22 18-23 20-23 19-22 20-25 20-24 20-24 21-24 20-22 23-25 20-25 20-25 20-25 21-24 20-24 21-24 20-27 18-23 19-23 20-24 20-23 21-23 20-24 22-23 21-22 22-25 22-24 22-24 23-25 23-26 23-26 25-27 24-27 25-27 26-28 25-27 25-26 25-27 25-25 24-25 23-24 23-24 22-22 21-22 21-20 19-21 21-21 19-19 19-19 19-19 19-18 18-18 19-18 18-17 17-32 33-34 32-28 31-31 30-29 29-29 28-28 25-25 23-23 20-19 20-19 17-26 23-21 20-19 15-20 17"/>
<path d="M2591 6805l-1 1-20 15-17 17-7 25 3 25 12 21 20 14 27 8 25-5 28-8 23-13 24-17 19-20 20-21 3-24-19-15-28-11-25-6-26-6-25-3-25-4 24 5 29-1 26-4 27-7 23-8 24-10 23-8 24-7 9 25 0 25 0 31-1 31-1 25-1 28-2 28-2 31-3 30-4 32-5 29-5 24-8 27-6-31 2-27 2-32 3-33-1-31 1-30 1-30 1-25 1-28 1-27 3-28 9-27 17-22 22-17 24-14 24-11 25-9 26-7 13 22-14 25-18 25-16 21-16 20-17 22-13 21"/>
<path d="M3025 6685l 3-3 22-20 20-16-18 16-18 18-16 19-13 21 8 23 27 4 29-2 24-4 27-4 24 0 14 21-13 23-19 22-21 19-21 18-23 14-24 10-23 8"/>
<path d="M2605 7157l-2-2 22-15"/>
<path d="M2814 7104l-1 0 26 2"/>
<path d="M2952 7101l-1 0"/>
<path d="M3098 7065l-1 0"/>
<path d="M6042 4500l-1-1-17 22-9 23-11 30-9 26-12 31-15 37-18 43-10 23-11 24-10 26-11 27-11 28-11 28-11 30-12 29-12 30-13 30-13 32-13 31-15 32-13 32-15 32-13 34-15 32-14 34-14 34-13 35-15 35-13 36-13 35-15 37-13 37-14 37-14 36-15 39-14 39-15 40-15 42-16 42-16 44-17 43-17 44-16 45-17 44-16 44-16 44-16 43-15 42-14 41-14 41-13 39-12 39-12 37-10 35-10 34-9 31-8 30-7 28-5 27-5 24-4 25-7 47-3 41-2 40-1 36 1 31 0 28 2 25 2 24 3 30 3 27 4 24-6-28-1-26"/>
<path d="M4820 7377l-2-1-23-9-22 13-17 17-20 22-17 22-16 25-11 26-8 25-3 29 5 25 18 18 29 3 31-7 29-12"/>
<path d="M4899 7474l-2 1-25 12-20 16-3 26 17 18 28 7 25 0 25-7 23-12 16-18-13-23-25-15-23-11 28-4 27-13 24-13 22-11 22-12 23-11 1 28-5 25-5 32-3 25-2 27-1 26-2 27-2 28-3 32-5 29-4 29-6 26-6 31-6 25"/>
<path d="M5001 7538l 1-3 3-28 10-24 19-22 20-15 21-13 24-10 24-6 26-5 25 6-3 27-16 24-18 23-20 20-20 18-22 19"/>
<path d="M5194 7432l 1 0 3 27-2 26 3 30 3 25 13 22 25 5 24-15 18-19 13-25 9-24-5-25-19 15 0 28 8 28 14 26 13 21 13 21 14 23 13 25 9 24 7 29 2 25-4 27-6 23-8 25-10 22-15 26-19 24-22 20-23 15-27 10-28 1-25-8-25-15-18-16-16-20-16-19-15-24-13-22"/>
<path d="M6289 4425l-1-2 24-6 19 16 16 21 15 23 16 31 11 25 13 28 13 32 14 36 16 37 15 41 16 41 17 45 8 23 8 24 8 25 8 26 9 25 9 26 9 28 9 27 9 28 9 28 10 29 10 28 10 31 9 29 10 30 10 30 11 31 11 31 11 31 10 31 12 31 12 31 12 31 12 32 12 30 12 31 12 32 13 30 12 31 12 31 12 31 12 31 12 31 12 31 12 31 9 31 12 32 10 32 11 33 11 31 10 31 10 32 10 32 9 33 9 31 8 32 9 32 7 33 8 33 5 33 8 33 6 32 7 32 6 33 5 32 5 33 5 30 5 31 4 28 4 29 4 27 4 27 3 26 4 25 2 25 2 24 3 24 5 45 4 43 3 38 3 34 2 31 2 25 3 32 2 29"/>
<path d="M6774 7488l-3 1-21 15-12 28-4 27 1 30 9 25 16 22 25 13 28 2 25-7 20-15 18-21 5-25-12-21-23-18-22-14-23-12-25-11 25-8 28-6 28-9"/>
<path d="M6943 7449l 0 0-3 25 1 25 1 30 3 25 2 30 4 32 5 34 4 33 5 33 3 33 2 34 1 32-1 29-2 24-3 26-14-21-2-29-2-34 0-27 0-27 1-30"/>
<path d="M6944 7591l-1-11 0-31 0-26 0-28 3-25 19-16 24-6 25-8 23-6 27-4 28-5 27-2 22 12-10 22-17 19-22 20-24 20-22 18-25 15-24 7"/>
<path d="M7270 7367l-1-2-27-3-23 10-23 15-23 17-19 15-16 21 12 22 25 1 26-1 29-2 28 1 26 4 18 19-5 27-16 23-19 19-21 19-23 17-24 13-22 9-26 9-24-9"/>
<path d="M6701 7845l-1-1"/>
<path d="M6944 7811l-3-2 19-15"/>
<path d="M7117 7802l 0-1"/>
<path d="M7244 7812l-1 0"/>
<path d="M6508 4163l 2 1 24 13 21 17 19 18 21 21 24 25 19 18 21 20 22 22 25 22 28 26 29 27 33 30 35 30 19 16 20 16 21 17 21 16 23 18 23 17 23 17 25 19 25 19 25 19 26 20 26 20 26 21 28 20 28 22 28 21 28 22 29 22 30 24 30 22 30 23 31 24 32 24 31 24 32 25 32 25 32 25 32 25 31 27 33 26 32 28 33 27 33 28 32 29 34 28 34 29 32 30 33 30 34 30 34 31 34 31 34 31 33 30 34 31 34 30 34 31 33 31 34 28 34 31 34 31 35 31 34 32 33 32 33 31 33 31 32 31 31 31 31 30 31 30 30 29 30 28 30 28 29 27 29 30 28 27 29 27 27 27 27 27 26 26 26 27 25 26 25 24 24 25 22 25 24 24 22 23 21 22 21 22 21 20 20 22 20 20 19 21 18 18 17 19 18 17 17 18 32 34 29 28 29 28 26 23 23 22 20 21 18 19 24 23 18 18 19 18"/>
<path d="M9152 7027l-2-2-25 3-21 13-24 18-20 20-16 23-9 22-6 25-1 29 7 28 14 22 24 11 27 2 32 0"/>
<path d="M9256 7146l-2-1-24 4-17 17-10 23 4 24 22 13 27-2 25-11 15-20-9-23-22-10-24-8"/>
<path d="M9403 7103l 0 0-6 26-4 29-1 24-1 26-1 33-2 27-4 30-4 28-6 27-6 29-7 28-10 29-8 25 9-26 6-26 4-27 4-31 4-28 3-31 0-30 1-25 1-26 3-28 7-24 14-23 21-18 22-16 22-10 27-5 26 4 6 23-15 20-20 21-23 18-20 16"/>
<path d="M9565 7095l-1 0-16 19-6 23 0 26 3 25 12 24 22 13 25-7 22-17 17-23 11-23 3-25-14 23 4 27 7 25 12 26 15 23 14 22 13 24 9 24 5 26-5 28-10 24-16 19-18 18-25 13-27 6-24-3-24-9-24-15-18-16-17-17"/>
<path d="M6754 4147l 0-2 27-2 25 12 25 12 22 11 24 12 30 14 33 14 25 10 24 11 26 12 27 12 29 14 31 12 31 16 35 14 34 16 37 19 38 20 38 21 42 23 21 12 22 11 23 11 23 12 23 12 23 13 25 14 24 14 25 13 25 15 25 14 26 15 27 16 27 15 27 15 28 16 29 16 28 17 30 17 30 17 30 17 31 19 31 17 32 18 31 18 32 18 33 19 32 19 34 19 34 19 33 20 35 20 35 19 35 20 37 20 36 19 36 21 37 20 38 21 38 20 37 20 39 20 39 21 39 20 40 21 40 21 42 20 41 21 42 22 41 22 42 22 41 22 43 22 42 23 42 23 42 23 44 22 43 23 44 23 44 22 44 23 45 23 44 23 45 22 44 24 43 23 44 24 44 22 43 24 43 24 43 24 43 22 43 24 42 24 42 24 42 23 41 23 40 22 40 22 40 22 41 23 39 21 39 22 38 21 38 21 38 21 36 21 37 22 35 20 35 20 35 20 34 21 33 19 34 20 32 20 33 19 31 19 31 18 29 17 30 18 29 15 27 16 27 16 25 14 25 14 25 13 23 14 21 13 21 13 41 23 36 22 34 19 31 17 29 16 26 14 21 12 26 17 22 16 21 16"/>
<path d="M11235 7017l-1-2-24-3-17 21-13 23-7 26 3 24 17 20 26 8 28-3 23-8 20-16 5-23-12-24-18-21-17-18-18-16 25 4 28 0 29 0 28-2 25-2 25-3 6 26-8 26-6 24-5 28-5 29-4 30-3 28-4 31-7 26-7 25-8 22-12 24-10 22 7-28 9-30 6-26 5-27 5-28 4-29 4-29 4-27 3-25 2-25 6-24 16-20 23-8 25-5 24 3 17 18 1 25-13 22-22 15-25 10-22 9-24 5"/>
<path d="M11561 7022l 0-1-23 12-19 19 0 24 24 12 23 7 24 5 26 5 20 15-5 25-21 13-26 10-25 8-28 3-25 1-25-1-25-6"/>
<path d="M11178 7276l-1-2 22-12"/>
<path d="M11325 7303l-1-2 26 0"/>
<path d="M11446 7340l 0 0 25-5"/>
<path d="M9990 3646l 0-2 1-24 4-24-19-17-25 10-23 18-20 23-15 21-14 23-12 23-10 22-11 29-1 28 13 22 24 9 24-11 21-17 18-19 15-19 16-19 12-21 12-22 12-28 9-29 5-26 5-29 1-33 3-25 0-27 1-30 1-30 0-31 1-31 0-31 0-28 0-28 0-25 0-31-2-28-5-26-21 19-9 32-7 37-6 28-5 30-5 33-7 35-5 37-6 37-6 36-3 33-3 31-1 28 0 25 2 31 5 27 7 28 13 25 18 20 23 8 28-1"/>
<path d="M10143 3630l-2 0-18 15 2 26 14 23 22 11 26 0 26-11 20-17 15-24 4-24-8-23-14-21-24-10-24 10-9 23"/>
<path d="M10594 3578l-2 0-18 17-12 24-5 24-2 27 0 25 6 25 23 10"/>
<path d="M10607 3359l-2-1"/>
<path d="M10771 3305l-1 0-10 22-2 26 3 28 3 26 1 25 1 29-1 30-3 31-5 29-6 28-7 29-8 26-7 28-6 24 24 8 24-14"/>
<path d="M10718 3526l-2 1-24 5 24-8 28-11 27-11"/>
<path d="M11182 3664l 0-1 24 6 28-2 22-9 22-11 27-18 26-23 18-17 16-18 16-18 15-20 14-21 13-21 13-32 11-34 5-34 3-36-3-32-2-29-5-29-17-21-26 14-16 19-17 27-13 23-12 24-10 27-10 29-9 30-8 33-8 33-5 32-3 33 0 28 2 27 6 24 10 31 15 27 15 21 23 18 24 12 29 3 24-13 15-19 9-26 3-30-3-27-9-27-11-23 15-19 24-5 24 3 12 25 2 28 1 27 4 25 15 19 24-15 17-21 14-23 10-26 11-27 7-24 5 24 0 29 2 24 2 28 4 30 6 30 4 30 3 34 3 34 1 30-2 34-2 24-5 25-5 24-7 33-9 34-11 32-12 29-14 23-16 25-20 15-26-8-15-20-10-28-6-31-3-27 0-29 5-37 6-26 8-29 10-28 11-27 13-29 13-27 15-28 14-25 15-24 15-21 15-19 23-26 23-21"/>
<path d="M12334 3695l-1 0 23-14 19-21 20-23 19-22 20-25 22-28 14-20 15-21 16-23 15-24 15-28 14-30 14-29 14-30 12-29 10-28 9-28 6-27 5-26 5-32 3-25-3-26-24-1-19 18-17 23-16 27-15 32-10 24-9 25-9 27-6 27-6 28-5 29-5 29-3 29-1 25 1 34 5 28 8 25 14 26 17 19 27 12 26 0 31-7"/>
<path d="M12752 3465l-2-1-25-6-24 4-25 11-23 15-18 19-12 23 14 21 23 7 25-3 24 9 25 5 25-10 23-12 23-16 20-18 16-21-17 18-9 23-3 26 23 10 24-12 23-16 21-18 16-18 3 27-2 27 1 24 2 28 5 30 4 25 2 26 1 30-2 33-4 35-7 24-9 34-10 34-12 31-14 26-14 23-20 21-25 9-23-10-13-25-5-29-2-36 3-26 3-29 6-30 7-33 10-33"/>
<path d="M13015 3512l 0 0 26-2 24-9 22-12 21-15 11-22-25-11-24 2-28 6-25 13-19 18-16 21-6 25 12 25 20 16 29 7 25-1 30-8 24-8 25-12"/>
<path d="M13236 3413l-1-1 27-9 26-3 24 0 25 5 4 25-22 18-22 19-22 19-12 21 0 24 18 20 26 8 27 5 29-2"/>
<path d="M4782 8029l-1-2-21-12-27 11-22 12-25 18-22 18-26 22-20 19-24 21-25 25-29 28-34 33-19 19-19 20-21 22-22 22-22 24-22 24-22 25-24 27-23 25-23 25-24 25-24 26-23 26-24 26-24 27-24 26-24 28-26 28-27 29-25 31-28 31-26 31-28 31-28 32-27 32-27 33-27 32-28 35-29 35-30 35-30 38-30 36-31 38-29 37-30 37-29 37-29 37-29 39-28 36-28 36-28 35-29 36-28 34-27 35-27 34-27 34-25 34-28 33-25 32-25 31-25 32-24 31-25 29-23 28-23 27-22 28-23 26-21 25-20 24-21 25-20 24-18 22-18 21-17 20-16 20-15 19-16 18-26 33-24 29-21 25-16 19-19 18-17 17 23-13"/>
<path d="M2447 10682l-1 0-7 24 3 26 10 23 18 21 23 12 28 1 24-6 23-20 15-19 12-22 7-26 3-27-7-28-14-24-23-17-25-9-25-8-25-2-28-3 17 20 27 4 25 0 28-7 29-11 24-12 25-13 21-13 16 21 0 24 3 30 5 28 6 31 4 25 5 24 2 25 4 26 3 26 2 29 3 29 3 29 2 28 2 25 1 25 2 33 0 27 0 24-3-25-5-32-1-27-4-30-3-31-2-31-2-30-2-28-3-26-2-24-2-34-2-30-2-29 0-26 3-25 6-27 12-26 13-27 16-25 16-20 19-19 20-18 22-13 26-12 27-3 23 12 12 21-6 23-10 22-15 21-16 18-17 20 28-8 22-16 22-11 24-8 24 0 21 12 5 26-8 27-12 23-18 24-14 19-22 22-20 19-22 17-23 5-16-19"/>
<path d="M2883 10473l 0 0 2 26-1 26-6 23-2 27-5 24-8 26-10 26-11 26-16 21-18 19-20 16-24 7"/>
<path d="M3078 10429l-2-2-25-7-25 3-23 11-20 17-15 20-13 21 5 24 25 3 25-4 23-7 28-9 25-8 25-7 22 12-6 28-12 25-19 25-16 20-14 21-20 22-25 19-24 17-23 14-26 7"/>
<path d="M2500 10966l-2-3 19-21"/>
<path d="M2739 10894l 1 0"/>
<path d="M2877 10871l-1 1 24-11"/>
<path d="M2986 10800l 0 2 24-7"/>
<path d="M4969 8306l-1-2-3 26 2 27 0 35-2 28-2 31-2 34-3 37-2 41-4 44-1 25-3 26-3 28-3 29-3 30-4 33-4 33-4 35-3 36-5 37-5 36-5 39-5 38-5 40-6 40-5 40-5 40-6 40-5 39-5 38-6 38-6 37-5 35-6 35-5 33-7 33-5 33-5 31-5 31-5 30-4 29-3 27-4 30-3 25-2 26-3 24-2 25-4 44-4 43-3 38-2 37-4 36-5 36-4 35-6 34-4 30-5 30-5 29-5 27-5 27-6 28-9 29-6 24"/>
<path d="M4312 10595l-1 0-23 8-20 17-11 24-9 25-5 29 1 27 11 22 24 7 27-2 27-7 27-17 23-19 22-18 16-22 13-21 10-23 1-25-24-6-17 19-13 22-12 22 19 16 22-11 19-16 19-20 16-20 11-21 25 6 14 21 9 22 5 25 3 25"/>
<path d="M4526 10581l 0-1 13 23 7 28 5 26 3 30 0 27 2 31 0 29 0 26 0 27 0 27-7 24-3 26-3 25-8-27 0-31 1-26 0-26 1-30 0-29-1-29 0-27 1-26"/>
<path d="M4544 10575l 1-3 7-27 11-21 17-18 27-1 22 16 14 21 6 24-2 28-6 23-12 25-12 23"/>
<path d="M4719 10520l 0 1-9 25-7 26 0 28 5 28 22 15 24-5 25-16 23-16 18-18 16-24 9-24-18 18 0 29 5 31 5 26 7 29 7 30 4 28 2 25-1 25-5 27-11 23-18 23-23 18-22 10-26 2-30-7-29-11-22-11-27-15-25-16"/>
<path d="M4425 10571l 1 1-18 17-10 24-6 26-2 25 5 25 19 18 28-2 25-12 19-14 19-17 16-20 9-23-10-25-20-18-23-12-24-8-25 1"/>
<path d="M5377 8255l-1 0 6 25 8 30 10 32 7 25 9 30 9 33 11 36 11 40 11 41 12 45 12 45 11 44 13 45 6 24 12 44 6 24 7 23 5 24 7 24 7 25 7 24 7 27 7 26 8 28 7 30 8 29 7 30 9 31 7 32 8 33 8 33 8 33 7 33 7 34 8 36 6 33 7 35 8 35 7 35 6 35 6 34 7 35 5 33 5 33 5 33 4 32 4 30 3 30 3 29 3 29 2 26 2 26 1 25 2 24 2 46 2 43 0 41-1 37-2 34-1 32-2 29 0 25 2 32 3 30"/>
<path d="M10413 4639l 0-1 27-11 25-9 21-11 26-14 29-19 20-15 20-17 21-18 22-20 22-21 21-23 22-25 20-27 19-27 17-26 15-27 14-25 12-26 9-27 10-25 7-26 6-27 4-25 2-25 3-34-1-26-3-25-28 5-16 24-15 26-14 33-9 23-8 26-8 26-8 30-6 30-6 31-5 32-4 32-2 33-3 30-2 29 0 27 0 24 4 32 6 25 9 26 15 22 16 19 25 9 25-4"/>
<path d="M10966 4372l-1-1 23-9 24-5 28-5 30-4 29-5 31-3 31-4 31-3 28-5 26-3 28-4 25-3"/>
<path d="M11233 4247l 0-2 29-1 30 3 27 5 25 5 26 7 24 8 16 18-11 24-20 19-20 17-25 17-26 18-23 17-21 15"/>
<path d="M11568 4313l-1 0 0 27 0 28-1 28 0 25 0 25-1 25-2 30-1 26-2 26-11-23-2-28 3-32 4-25 8-27 11-29 12-26 13-23 15-23 16-20 19-20 18-17 24-18 23-12 24-10 25-8 24-4 25-3 24 7"/>
<path d="M5492 10525l-1-1-24 12-19 16-14 25-6 26 8 23 24 4 28-5 24-16 16-20 10-22-7-25-22-13-25-5 22-16 25-13 23-10 24-14 25-2 12 23 2 29 1 32 0 28-2 32-2 34-1 25-2 26-2 25-2 26-1 24-3 32 0 31-3 31-3-28"/>
<path d="M5599 10498l 0-2 8-22 22-12 24-9 27-7 27-4 26 0 23 11-2 25-14 24-16 20-17 18"/>
<path d="M5858 10414l-1 0-22 12-21 18-14 20 1 25 23 8 26 5 25 1 24 9 5 25-13 22-19 20-24 12-24 5-25 1-25-5"/>
<path d="M5562 10675l-2-1-25-4 26-6 24-3"/>
<path d="M5693 10657l-1 0 21-17"/>
<path d="M5795 10623l-1 1"/>
<path d="M5710 8138l-1 0 17 17 23 19 20 18 23 22 17 22 18 25 19 26 19 27 18 27 19 29 15 19 16 20 17 21 18 21 18 21 19 23 18 23 19 24 19 26 21 25 21 25 22 26 24 26 25 28 23 30 23 30 24 32 23 32 25 33 24 37 23 35 23 34 24 34 23 33 24 35 23 35 23 37 22 38 22 38 22 40 22 41 21 41 21 41 11 21 22 41 22 40 22 42 21 41 22 42 21 40 20 41 22 39 21 37 21 38 21 35 21 35 22 37 22 35 21 34 20 29 19 33 19 32 18 31 18 32 16 30 17 30 14 29 16 28 15 26 15 24 14 23 20 29 17 27 17 22 16 21 18 23 14 20 13 24-8 27"/>
<path d="M6883 10662l 0-1-24-1-22 14-16 20-14 21-16 26-13 29-7 25-7 25-4 25 1 30 8 25 17 23 24 9 24 1 29-5"/>
<path d="M7035 10814l-2 1-19 20-13 24-8 23 2 25 20 16 25 6 25-5 23-13 17-18-12-23-22-13-21-12 5-25 25-12 23-11 23-10 24-9 24-6 12 22 0 28-2 28-1 31-2 24-1 25 1 24 0 27-1 28-1 28-2 25-1 26-2 27-3 25 0-31 0-25 0-27 0-28 1-31 2-33 2-31 1-28 3-27 3-28 6-26 13-22 17-17 21-11 24-5 27-2 23 6 23 13 2 27-16 23-18 20-22 18-19 16-21 14"/>
<path d="M7407 10763l-1 1-17 20-13 24-8 25 6 25 22 9 27-5 27-12 21-16 20-16 17-21 10-24-19 19 6 24 12 27 10 25 13 25 12 25 13 24 10 25 9 25 6 27-2 27-7 23-11 23-15 19-20 15-24 13-30 8-26 3-26 2-28-2-29-8-28-9-27-9-27-14-29-16-28-24"/>
<path d="M5846 8120l 0-2 27-4 28 9 31 15 28 18 22 17 22 20 25 22 27 25 29 26 32 28 33 30 37 30 19 16 20 16 20 17 20 17 20 17 21 19 21 18 22 19 22 19 23 19 24 19 23 21 24 20 25 21 23 22 25 22 24 23 25 23 24 23 26 24 25 23 25 24 26 23 26 25 25 24 27 25 26 25 28 25 27 25 27 28 28 25 27 27 27 27 27 27 28 28 26 29 27 30 28 27 26 30 27 31 28 30 27 30 26 31 27 30 26 30 25 30 27 31 26 30 25 29 26 30 24 30 25 29 24 29 23 29 24 29 23 28 22 28 22 28 22 28 22 26 21 27 22 26 21 25 20 24 20 24 19 25 20 22 19 23 19 21 18 22 19 19 17 21 17 19 18 18 16 18 16 17 30 32 28 31 26 28 24 25 23 22 19 21 17 19 20 25 19 22 16 22 13 22"/>
<path d="M8153 10816l-2 1-18 16-16 18-9 24 9 24 24 14 25-2 23-9 20-16 17-21 6-26-13-24-20-16-20-13 26-6 26-6 27-10 24-8 23-7 11 23 2 28 2 24 3 28 3 24 4 26 3 27 3 29 1 30 0 29-1 30-3 27-6 29-4 26-12-26 0-24 0-30 3-32 1-35 2-36 1-24 2-36 3-34 3-31 6-27 6-29 9-27 14-21 18-15 26-5 24 3 24 11 20 13 7 25-13 25-17 20-23 18-23 18-22 14-22 12"/>
<path d="M8608 10696l-1-1-26 3-19 17-16 19 15 21 24 5 25 3 27 6 23 11 12 22-16 22-21 11-25 9-24 5-24 3"/>
<path d="M8208 10972l-1-2 17-21 26-5"/>
<path d="M8396 10972l 0 1 24-3"/>
<path d="M8511 10958l-1 0 24-1 27 2"/>
<path d="M1940 7327l-1-2-20-13-24 7-18 19-13 21-10 23-9 27-9 29-7 31-5 34-1 25 2 32 7 28 8 26 13 23 17 21 20 15 22 12 30 8 26 3 30-2 30-6 31-12 31-17 21-14 22-16 18-16 18-17 17-18 22-25 18-26 13-24 9-24 5-23 1-30-7-24-15-23-17-23-18-23-23-23-25-21-26-17-26-12-28-7-27-5-25-3-30 2-28 8-26 10-21 14-17 18-7 26"/>
<path d="M4503 11236l 2-2 6-25-13 23-12 26-9 23-9 26-9 32-10 34-10 36-11 41-11 43-14 43-6 23-7 25-7 24-6 26-7 25-6 25-8 28-7 26-7 27-7 26-7 26-7 26-6 27-7 27-6 28-7 28-6 28-6 29-6 28-4 28-7 28-5 27-5 27-4 26-4 27-8 48-6 24-4 45-6 42-4 39-1 36-4 34-1 35-3 29 0 27-2 24-3 29-3 24-1 24 11-26 8-25"/>
<path d="M3827 13187l-1-2-11 24-4 27 0 29 3 30 8 26 19 17 24 10 23-8 15-20 10-25 3-25-7-25-21-19-23-15-25-15-23-12 23 10 23-11 27-13 22-16 22-15 21-18 14 22 2 26 1 26 0 29 2 25 2 27 2 31-1 32 0 24-1 26-1 25 0 24-6 35-6 30-5 26-7 28-13-24-1-26-2-28 0-31-1-32-1-34 0-34 1-25 1-34 3-29 5-30 5-24 9-23 11-22 17-19 24-13 26-9 24-13 23-9 25 3 9 25-9 24-13 20-17 19-20 17-21 15"/>
<path d="M4236 13058l-1-1-19 16-17 19-18 21-17 19-14 22 25 8 25-4 28-4 26 2 27 5 21 13 6 23-13 24-19 20-22 15-26 12-25 5-25 6-25-5"/>
<path d="M3974 13410l-2 1 22-15 29-1"/>
<path d="M4100 13392l 0 1 26 5"/>
<path d="M4228 13384l 0-2 25-3"/>
<path d="M6723 13328l-2-2-24-3-19 19-8 27 0 26 3 27 14 23 24 9 27-6 24-15 16-18 13-22 4-24-14-23-22-16-23-10 22 12 26-7"/>
<path d="M6853 13298l 2 0 21 13 5 27 2 30 1 29 1 31 1 31 0 28-2 29-2 27-4 28-5 26-6 31-5 27 3-32 2-30 0-32-3-34-4-35-5-36-4-33-4-26-4-25-2-25 3-26 14-20 22-16 24-17 23-12 23-10 23-8 25 4 1 28-10 26-16 26-16 25-16 22-18 18"/>
<path d="M7183 13193l-2 1-24 10-24 14-22 17-14 20 16 18 25 6 27 1 24 5 11 22-10 22-18 22-22 20-22 14-25 9-25 9-25 8"/>
<path d="M6813 13479l-2-2"/>
<path d="M6939 13520l 0 1 27-1"/>
<path d="M7081 13509l 1-2 22-9 26-2 26-1 24 2"/>
<path d="M9628 7748l-1-2 15 21 10 27 13 34 9 25 12 28 11 28 14 31 15 36 15 38 16 44 8 22 8 23 9 23 8 24 10 25 8 26 9 24 10 27 9 25 10 27 9 26 10 28 8 25 10 26 9 27 10 26 10 27 9 25 10 27 11 26 9 24 10 26 10 26 10 25 9 25 10 25 10 25 9 26 10 26 9 24 9 23 9 23 10 23 17 42 18 43 17 42 16 41 16 42 15 37 15 35 14 36 13 32 11 31 11 30 11 25 8 27 6 23 7 32 5 25 6 24 4 24"/>
<path d="M10067 10003l-1-2-10-22-25 6-12 25-6 26-3 31 2 30 7 26 12 22 22 19 28 6 27-3 26-10 24-17 16-22-1-26-17-25-20-21-19-16-20-15 26 0 28-6"/>
<path d="M10251 9985l 0 0 5 27 2 28 1 25 3 30 3 25 3 27 2 30 1 33 0 37 0 36-3 34-3 30-5 30-6 28-6 29-5 25-3-24 3-33 3-31 3-34 3-35"/>
<path d="M10245 10114l 0-4-2-26 5-27 14-23 23-15 24-11 25-9 25-8 29-7 27-2 10 24-18 22-23 19-20 13-22 12-24 9-25 13-22 8"/>
<path d="M10618 9939l 0-1-27 5-25 12-20 14-19 17 18 18 27 10 23 11 24 10 22 12 16 17 6 24-9 24-22 18-25 13-24 6-25 2-24 1-24-1"/>
<path d="M10117 10388l-1-2 22-13"/>
<path d="M10267 10391l 0-1 27 3 28-4"/>
<path d="M10430 10377l 1 0 24-5 23-5 25 3"/>
<path d="M7070 11512l-1 0-5 25-5 27-3 24-3 31-2 30-4 36-4 25-4 24-5 26-5 29-5 31-6 34-6 34-7 34-5 34-5 33-3 34-3 33-3 34-2 32-3 31-2 31-1 27-1 32-2 32-1 32-2 34-3 29 0 30-2 30-1 28-1 27 0 24 0 31 0 30 1 33 2 31 1 25 2 27 3 27 1 25 4 24 1 25"/>
<path d="M5875 3588l-1-2-10-23-26 5-26 15-26 20-22 20-21 23-21 25-20 28-17 31-14 31-10 29-5 24 2 26 16 21 26 6 27-5 33-12 25-12 26-14"/>
<path d="M6014 3639l-2 0-25 9-21 12-22 14-21 18-18 22-10 23 0 28 15 21 28 5 27-4 29-11 22-11 21-13 23-20 18-23 5-24-19-20-24-9-24-3 12-27 22-17 22-15 22-16 24-15 22-10 23 9 1 29-2 29 0 26 0 29 1 31-1 36 0 25-1 26-1 28-1 28-3 29-2 28-3 26-1 26-2 24-1 33-2 25 2 24 6-24 3-28 3-25 2-27 2-29 2-29 0-31 0-31-1-31-2-31-2-28-2-27-2-25-3-32-3-27-2-29 1-24 13-22 26-11 25-3 29 0 24 3 24 3 26 7 22 10-5 24-21 21-21 18-23 16-22 14-24 13"/>
<path d="M6370 3554l-1 0-11 26-6 26-2 24 2 29 9 26 23 12 28-6 21-11 25-17 22-21 18-23 14-23 13-21 9-25 4-26-3-25-8 28 1 26 4 29 10 27 12 26 13 24 14 22 14 24 11 26 9 28 5 27 0 30-5 30-8 24-11 23-15 20-17 17-22 10-29 0-32-6-23-7-24-9-24-11-26-18-23-18-20-21-16-23-12-21"/>
<path d="M5568 7664l 0-2 7-24 9 25 2 30 1 27 0 29 1 25 3 26 4 28 2 25 2 28 5 25 6 24"/>
<path d="M2337 11382l-1-2-1-24 20-15 26-14 23-11 23-8 25-11 28-7 27-3 25 6 20 16-1 25-10 22-11 25-20 25-18 21-19 21-19 22-22 21-25 21-25 19-20 17-23 17-21 17 24 3 26-7 26-4 28-4 25-4 23-5 26-3 27-1 25 1 22 12"/>
<path d="M4688 11013l-1-1 21-18 27-8 27-6 28-5 26-4 24 3 20 15-13 22-19 16-20 17-22 15-23 13 23 12 25-3 25 0 26 5 24 6 6 23-12 22-19 19-18 19-19 18-20 15-22 12-27 7-24-6-24-8"/>
<path d="M3957 13721l-2 0-12 27-6 30-7 25-9 28-8 29-8 31-10 26-7 29-2 24 8 25 21 14 25 3 25-3 31-7 24-6 23-8 25-9 22-11 22-10 25-13 23-14"/>
<path d="M4098 13828l-2 0-15 19 0 25 3 27 5 30 7 29 6 27 5 29 4 24 4 24 4 29"/>
<path d="M5891 10911l 0 0 20-13 23-9 24-7 25-4 26-6"/>
<path d="M5955 10896l-2 0-22 8-15 22-11 24-10 25-6 26-3 25 24 12 25-9 27-10 24-9 27-9 28-4 25 0 24 4 23 6 24 9 19 15 10 22-7 23-12 21-17 18-22 19-20 14-22 12-23 9-29 7-28 3-26 1-25-1-25-4-22-13"/>
<path d="M7686 11005l 0-1-16 18-14 23-14 28-12 23-11 25-11 23-9 31-5 29 0 30 2 24 5 23 10 24 20 14 27 3 27-7 25-12 18-17-6-27-22-18-24-13-26 0-24 10-19 17-10 24"/>
<path d="M7329 13672l 0-2 19-15 25-7 29-9 23-8 30-10 25-7 28-7 24-6 24-6 13 23-10 24-9 23-8 24-9 25-6 25-5 31-1 32 0 31 1 31 1 28 0 24-1 30-1 26-4 28-7 23"/>
<path d="M8937 11087l-2-2-19-18-22-11-29-4-28 2-24 10-19 18-8 25 4 28 11 22 19 22 25 18 21 13 20 14 26 18 22 17 17 20 12 26 0 28-10 27-13 22-16 23-20 21-20 18-21 11-26 9-26-4-17-16-7-27 2-27 6-31 10-34 15-32 19-31 14-20 20-26 20-24 19-22 17-18 20-18 22-10"/>
<path d="M7682 7792l 0-4 3-25-2-26-9-23-14-23-23-15-25-1-31 8-25 13-26 16-26 19-23 22-20 25-14 22-10 25 5 24 24 13 32-3 30-8 34-12 33-12 31-14 26-13 24-13 20-15-25 12-16 24-11 26-5 29-2 26-1 26-1 25 0 28-1 29 0 31-1 29-3 28-2 29"/>
<path d="M9970 7578l-1-2-9-22-3 24-5 31-5 31-7 34-6 32-5 29-1 26 2 30 9 24 17 17"/>
<path d="M10191 7673l-2 1-27 4-17 17-11 23 1 25 20 19 28 9 25 2 28-5 27-8 23-14 19-21 6-29-12-27-17-24-16-18-22-22-20-15-24-6-20 21-12 29-7 28"/>
<path d="M10750 10416l-2-2-9 23-5 30-4 29-3 29-4 30-4 30-6 24-2 24"/>
<path d="M10881 10435l-1 0-11 22-4 24-2 29-1 25-2 27-1 25-1 28 0 31-1 27-1 25-1 24 0 29"/>
<path d="M12040 7426l-1-1-15 21-7 25-4 25-7 27-6 28-7 29-8 29-6 28-8 25-6 25-7 27 3 24"/>
<path d="M12308 7506l 3-2 21-12 26-6 28 0 24 7 18 17-3 24-20 24-17 18-22 18-22 17-22 18-19 15-22 17 4 25 28 6 25 1 32 0 27 0 28-1 27-2 25-1 25 0 28 4 26 8"/>
<path d="M5968 16136l 0 1 20 14 25-6 23-11 2-26-21-14-24-1-25 9-19 15-1 26 23 12 25-1 25-10 14-21-17-21-26-8-22 15-10 22 3 25 22 10 25-2 17-18 5-26-8-23-17-19-23 10 14 21"/>
<path d="M5997 15458l-1-2-25-3-22 11-23 19-20 22-14 20-14 23-13 25-11 27-9 26-7 27-2 28 1 28 5 23 13 28 22 23 20 13 26 11 28 8 29 5 31 2 31 0 29-2 29-3 24-5 28-9 25-14 21-20 16-25 12-29 5-24-1-29-7-30-10-30-15-28-18-24-23-19-27-16-28-12-27-8-26-5-32-5-25-3-27 1-22 14"/>
<path d="M5755 16344l-1-1-23-7-24 14-22 18-18 19-23 21-22 16-23 18-24 18-26 22-18 16-21 18-22 17-22 19-26 19-28 22-31 24-34 27-38 29-20 16-19 16-21 15-21 16-23 17-23 17-23 19-25 18-26 19-26 19-27 21-27 20-28 22-29 19-30 22-30 22-29 22-31 23-31 23-30 24-30 23-31 24-29 24-30 24-31 25-29 24-30 25-32 23-30 24-31 25-32 25-30 24-31 24-32 24-32 25-32 25-33 24-32 26-32 26-34 27-32 26-33 26-33 26-32 25-33 25-32 24-32 24-33 24-32 25-32 25-31 25-32 26-32 26-32 26-32 25-32 25-31 26-31 24-32 24-31 25-30 24-29 23-28 24-27 23-27 23-27 22-26 21-25 21-25 22-24 19-25 19-25 19-22 18-20 16-20 18-20 16-37 28-32 30-33 26-28 22-26 21-21 16-25 22-21 19-23 25-18 25-15 25-9 24-9 23 23-9 19-22"/>
<path d="M2180 18978l-2-1-18-17-26 10-21 16-18 16-17 22-14 24-14 29-9 28-4 26 4 27 17 18 25 6 27-3 31-9"/>
<path d="M2288 19066l-2 2-22 13-12 21 3 26 19 18 26 6 25-10 24-10 13-22-10-23-20-16-27-10-25-6 28-2 24-13 25-14 22-11 23-11 23 14 5 25 2 25 3 31 0 25 0 25-2 29-3 30-5 25-4 35-4 26-7 34-5 30-3 25 0 26 3-27 4-35 3-26"/>
<path d="M2390 19097l-2-3-5-25 5-27 19-15 22-12 23-9 26-7 26-5 24-5 24-3 24 7-8 26-18 25-16 18-19 17-17 16-21 19-18 22"/>
<path d="M2631 18990l-1 0-19 19-6 26-1 25 17 19 24 9 30-3 23-9 21-18 18-20 13-21 2-26-12-21-8 24 10 24 11 23 16 25 13 25 13 27 13 20 9 24 10 24 7 24 4 25-1 26-8 24-10 22-15 22-16 20-18 16-28 4-26-5-27-9-27-14-21-21-18-20-15-21-11-24-2-24"/>
<path d="M5868 16421l-1-1-18 20-13 23-13 22-15 25-13 22-15 24-15 25-17 27-17 30-17 31-11 22-11 21-13 21-12 20-13 22-13 21-13 23-14 24-13 25-13 23-14 26-14 25-15 26-13 26-15 25-14 24-15 24-15 23-15 25-14 24-14 23-14 25-15 27-15 27-16 29-16 28-17 29-17 27-16 30-18 30-18 29-19 33-18 30-19 31-20 29-20 29-19 30-17 29-19 29-13 26-17 25-16 26-17 25-18 27-17 28-17 25-16 27-16 23-14 24-14 25-13 25-15 26-15 25-14 25-14 24-11 23-11 24-10 23-10 23-12 24-12 25-13 24-12 24-12 23-19 31-13 21-12 21-12 22-13 22-13 21-12 21-19 31-13 22-13 21-17 28-14 26-12 25-9 23-12 23-16 26-15 27-10 23-12 27-14 24-15 25-13 21-12 23-14 24-14 20"/>
<path d="M3968 19151l 0-1 17-19 22-13 22-11 22-12 24-11 23-6 24-6 12 21-2 26-8 24-11 26-9 24-10 28-10 22-11 24-9 29-8 28-6 29-1 27 11 25"/>
<path d="M4112 19551l 0-2"/>
<path d="M2214 19798l 0-1-11 22-9 27-8 25-11 30-9 27-10 29-12 33-9 23-9 27-10 26-10 28-10 30-12 30-12 31-11 33-13 32-11 34-13 36-12 35-12 36-11 36-11 38-11 40-10 41-13 40-11 41-12 39-15 39-12 37-12 35-11 33-7 32-8 28-9 30-9 27-9 27-9 29-9 28-8 29-9 30-9 28-10 30-11 31-11 29-10 28-10 29-10 28-10 28-9 31-10 28-8 26-7 26-7 23-6 24-5 23-8 35-11 29-6 28-1 25-6 24-5 31-5 28-6 26-3 24-23-12"/>
<path d="M1267 22063l 0-1 4-24 18-16 23-9 25-10 25-4 28 0 23 7 22 14 5 26-7 25-13 26-15 25-14 24-13 25-13 23-12 24-6 27-8 24-6 26-6 26"/>
<path d="M1354 22482l-2 0"/>
<path d="M2481 19832l 0 0 6 27 4 26 1 26 3 29 6 35 3 27 1 28 2 30 0 31 2 30 2 31 3 29 3 32 2 33 1 35 0 37 2 39 1 43 3 45 0 25 1 25 1 25 1 27 0 24 1 26 1 27 2 26 1 26 2 26 2 25 1 24 1 25 2 25 3 48 4 44 5 43 6 41 5 40 4 40 4 36 4 33 5 35 4 35 6 34 3 33 2 32 1 28 0 29 2 29 1 28 0 26 0 25 0 28 1 28 2 29 0 27-1 25-2 32-1 31 0 32 1 31 0 28-3 29 1 28-1 27-1 28-5 25-8 25-4 27-4 29-6 23 2-27"/>
<path d="M2381 22271l 1-2 11-22 13-21-20 14-19 17-20 19-19 18-14 22 21 12 24 1 27 3 23 7 17 17-6 24-16 21-17 19-20 16-22 10-20-13"/>
<path d="M2492 22311l 0 1 25-2 24-14 21-15-20-15-25 6-19 18-12 22 1 24 18 17 23 8 25 4 26-5"/>
<path d="M2721 22127l-1-2-4 27 0 30-2 31-1 26-2 27-1 26-2 25-1 30-2 28 0 27 5 25 25 5 23-11 25-16"/>
<path d="M2663 22271l-5 0-25 1 25-17 28-11 29-6 30-6 29-5"/>
<path d="M6078 16388l 0-1 4-24 1 24 1 28 2 25 1 29 1 25 0 27-2 31-1 32-2 36 0 26 0 28-2 28-1 30 0 29-2 31 1 31-1 32-1 32 0 35 0 33-1 34 0 33 0 32 0 32-3 34 0 36 0 36-1 38 0 37-2 38-2 37-1 38 0 39-1 38-1 37 0 35-1 35 0 34 2 31 2 30 2 28 2 26 2 26 2 26 1 26 3 28 1 26 2 30 2 27 1 25 2 30 0 26-1 28 2 30 0 29 1 30 2 30 0 26 0 25 1 33 2 31 2 30 2 29 3 29 3 30 3 28 0 28 0 27-1 26-2 28-3 31-4 28-3 31 0 29 0 28 0 27 2 29 1 26 0 28 1 24-1 28 0 25 0 25-1 25 1 25 3 25 2 26-1 24 2 25 1 24 0 24"/>
<path d="M5844 19269l 0-2 16-18 24-13 24-10 25-4 23-6 17 17-13 24-13 23-17 28-13 21-12 22-13 23-11 23-11 29-7 26-2 28 3 24"/>
<path d="M5912 19591l-2 1-1 25"/>
<path d="M6278 16333l-1-1"/>
<path d="M2812 19956l-1-1 19 18 18 20 18 18 18 21 22 16 20 16 19 18 17 19 20 20 16 18 19 21 18 19 20 22 26 23 21 23 22 22 20 26 16 18 18 20 18 18 17 20 17 20 15 20 18 20 18 20 18 23 23 24 19 25 22 25 22 25 16 27 23 26 21 25 24 26 24 27 23 29 25 31 24 30 24 30 24 30 25 30 25 32 25 33 26 32 24 33 25 33 27 34 26 35 28 33 25 33 27 34 26 33 28 33 29 34 29 34 30 33 29 33 28 33 28 30 26 34 28 33 27 32 27 35 28 32 25 31 25 32 24 27 21 30 23 30 21 29 21 30 21 27 21 25 19 23 18 23 17 22 16 21 15 20 20 25 16 23 14 23 16 21 14 20-17-19"/>
<path d="M4236 22304l 0-1 20-16 26-1 26-2 25 3 26 4 22 12 8 24-11 25-15 22-14 22-17 19-16 21-16 20-12 22-14 26-7 24-2 24"/>
<path d="M4329 22635l-1-2 21 16"/>
<path d="M3000 19398l 0 0-4 24-4 28-6 27-5 27-4 24 0 28 0 24"/>
<path d="M3000 19301l-2-2-15-19-25-11-24 2-25 7-22 11-23 20-17 19-15 22-16 25-15 31-9 23-7 23-5 25-4 25-2 25-2 26 0 25 6 36 13 32 17 25 21 22 23 16 27 12 25 9 26 7 27 3 28-4 31-8 32-12 28-17 23-21 20-23 18-24 16-25 11-27 7-29 1-29-3-31-7-28-11-31-15-29-18-27-19-22-19-18-20-13-24-7-30-3-28 5-27 12"/>
<path d="M4399 19596l 0 0 22-11 26-6 25-3 26-1-1 26-23 15-23 13-20 15-24 19-20 15-18 17-6 24 24 7 26-5 28-8 27-7 27-11"/>
<path d="M4512 19457l-3-2-24-6-28 2-24 7-27 14-22 13-22 19-18 24-18 27-12 22-11 23-8 23-6 29-1 28 7 26 13 27 18 21 25 13 27 10 27 6 24 0 27-4 28-5 25-9 24-10 27-15 22-20 16-18 12-22 10-22 7-31-2-25-8-23-12-26-14-23-17-22-17-18-20-15-25-13-27-8-30 1-28 8-23 14-17 19"/>
<path d="M6273 19619l 1-2 21-11 26-10 25-6 28-7"/>
<path d="M6288 19601l-2 0-21 14-10 22-10 24-5 26 9 23 25 2 28-6 25-10 25-11 25-8 26-3 24 1 20 16-11 24-17 17-24 17-27 14-22 12-24 12-23 8-24 6-29 4-28 4-25 0"/>
<path d="M6347 19438l-2-2-26-9-27 1-28 9-25 12-26 14-18 16-18 18-19 24-22 30-15 22-14 23-14 25-13 22-12 26-8 25-7 23-4 27-2 25-1 24 3 24 7 30 13 25 16 21 20 18 25 12 27 10 28 6 29 0 33-5 33-8 32-11 30-14 22-12 28-20 27-21 22-26 19-29 14-31 9-31 3-31-3-34-6-24-7-25-9-26-13-25-12-24-15-22-16-18-23-22-25-13-25-6-26-3-24 3-26 10"/>
<path d="M1179 22801l-1 0 24-10 23-10 23-9 23-5 27-5 20 16-9 24-22 20-24 16-23 15-27 12-23 9 25 6 25-2 24 6 2 25-16 18-19 16-19 16-22 15-24 11-26 2"/>
<path d="M1153 22673l-2-2-21-12-23 14-21 21-15 20-15 25-17 26-18 30-14 33-8 24-7 25-4 28-2 26-1 26 3 26 7 33 12 32 18 30 25 24 27 19 23 9 24 7 30 3 26 3 26-2 25-3 24-5 28-8 26-10 28-13 24-13 23-17 20-17 17-17 17-29 10-28 3-29-2-33-7-32-10-22-12-25-17-24-18-24-18-24-19-19-26-24-20-15-21-11-33-15-32-8-30-3-30 1-25 4-26 11-21 13"/>
<path d="M2912 22602l 0-1-23 17-19 25-13 23-12 28-9 28-4 25 10 24 28 7 31 0 23-6 24-7 25-8 29-10 22-10"/>
<path d="M2980 22654l-1 1-19 19-5 28-2 25 0 25 1 27 5 25 10 22"/>
<path d="M3006 22523l-4-2-23-12-27-6-28-3-29 2-31 10-21 12-20 16-17 20-18 22-18 27-14 31-12 32-7 24-5 35 0 37 3 34 9 32 11 26 18 20 22 17 27 11 28 7 33 5 36 2 27-2 26-4 26-7 27-8 26-8 25-11 23-11 27-19 22-18 22-23 17-24 11-28 2-30-2-30-6-32-14-32-17-32-13-22-22-30-22-26-25-19-25-19-25-16-24-7-27-9-24-5"/>
<path d="M4576 22737l-1-1-23 14-18 23-16 24-12 26-5 25-3 27 0 26 5 25 9 23 9 22 22 22 24 15 25 11 29 4 25-6 24-15 15-22 2-28-14-21-26-16-26-8-27-3-26 3-23 10-21 12-20 19-6 24"/>
<path d="M4631 22627l-4-1-23-7-26-3-25 2-26 9-26 16-19 17-19 22-20 26-19 31-11 23-9 26-8 28-4 27-5 28-1 29 1 28 2 28 6 26 10 24 12 22 24 26 29 18 30 17 33 14 35 4 34-3 24-6 25-6 24-8 22-10 30-18 26-22 17-18 13-21 18-30 10-22 10-28 2-32-5-34-7-25-10-24-11-23-15-26-14-24-19-24-19-19-22-18-21-16-22-11-22-11-29-11-31-5-27 1-24 4-24 11"/>
<path d="M1542 19039l 0-2-5-25 1-26 1 27 2 24 2 31 1 34 0 34 0 24 0 25 3 34 3 31 2 29-2 30 0 26 6 25 1 26 2 25-15-25-7-30-5-34-3-35-3-25-5-35-8-35-1-35-4-34-4-30-6-27-7-29-7-27-3-26 8 28 5 31 3 26 3 30 3 32 2 32 2 34-1 31 0 28 0 27 1 24 1 30 1 25 0 25"/>
<path d="M4673 19022l-1-1 24-5 24-7 23-13 24-12 22-10 25-10 23-6"/>
<path d="M4737 19001l 0-1-20 18-9 23-9 27-6 24-8 29-9 23-3 27 1 25 15 19 27-8 26-11 24-12 29-10 26-6 25-6 29-6 26-1 27 1 23 6 28 6 22 12 13 21-4 26-9 25-13 20-16 18-21 19-23 19-22 18-21 12-23 7-27-5-23-9-25-6-23-8"/>
<path d="M6781 18884l-1-2-25-2-17 17-16 21-12 22-13 25-13 29-9 23-9 23-8 25-7 25-5 24-4 24-5 33-1 30 4 28 8 25 11 22 15 22 18 17 22 13 22 11 23 9 30 7 25 2 29-6 22-10 19-18 5-24-4-27-9-23-12-21-18-21-20-15-24-7-26 1-30 7-23 6-29 9-23 12-19 18-12 23-1 24"/>
<path d="M875 23479l-2-1 12-23 28-8 26-8 28-8 24-7 24-6 27-6 31-3 29 4 24 13 15 22 1 26-13 27-12 23-17 24-21 24-22 24-18 16-23 25-17 18-23 25-19 17-21 14-20 14-21 13-27 21-24 18-23 12-27 15-19 15-21 13 26 1 26 0 30-4 28-3 31-2 27-6 27-3 25-6 27-8 26-6 26-3 31 0 27-3 28-2 25-3 24 6"/>
<path d="M2829 23362l 0-1 20-17 23-10 26-11 26-4 28-2 25 0 27 3 28 3 29 3 22 13-6 26-22 20-19 19-22 17-23 17-22 16-23 11 22 13 25 7 25 4 25 3 26 0 28 3 25 5 24 7 26 9 18 18 6 26-4 25-13 28-15 25-15 20-22 24-25 20-21 14-23 13-25 9-27 8-27 6-30 5-26-1-24-7-25-11-19-16"/>
<path d="M4888 23256l 1-1-11 27-13 26-12 24-13 24-14 25-11 25-10 26-11 25-10 25-4 27 7 23 22 15 27 0 32-6 27-5 28-5 29-8 26-3 25-8 24-6 22-10 25-5 26-6 25-8"/>
<path d="M5009 23358l-1-1-4 27 0 24 0 25-2 26-1 29-3 31-3 33-2 30 1 30 1 29 1 24 1 25 3 29 3 25 3 29 1 25"/>
<path d="M7428 24764l 0-2-4 27-3 30-1 31-3 30-2 30-2 31-2 30 0 26 2 28 1 27 3 25"/>
<path d="M7397 24730l-2-3-18-19-20-17-25 2-26 12-21 18-18 22-18 32-14 23-14 25-12 26-13 25-9 27-7 28-6 26-3 26-3 34 3 32 7 26 12 22 23 22 23 14 28 10 33 6 36 2 24-1 25-3 25-2 35-7 24-6 33-15 31-13 26-14 24-14 18-19 15-23 13-24 9-26 2-28-4-31-12-33-10-22-12-23-13-25-15-22-16-22-16-18-27-22-28-16-30-12-30-4-29 2-28 8-27 12-23 12-22 20"/>
<path d="M7091 25382l 0-2 1-24-25 7-21 16-20 19-24 23-19 18-21 19-22 20-25 22-28 24-28 23-29 26-31 26-33 28-32 31-35 33-19 17-18 18-19 19-19 21-20 20-20 20-20 21-21 22-21 22-21 23-22 22-23 23-22 24-24 25-23 25-25 25-25 26-24 25-25 27-25 25-26 26-25 26-25 26-25 26-25 25-25 27-24 24-23 24-22 23-22 22-20 21-20 20-19 19-34 32-29 29-27 25-24 24-19 20-16 18-16 19-14 20 25 8"/>
<path d="M5406 26941l 2-3 19-17 21-15 22-16 23-11 24 1 6 25-12 25-16 24-19 20-21 22-16 18-17 17-18 19-18 23-15 25-3 24 23 14 25-2 24-9 24-10 23-9 23-8 22-13 23-15"/>
<path d="M5515 26821l-4-1-28-11-25-5-27 1-31 5-24 7-27 9-26 11-28 16-20 14-18 16-18 18-19 18-19 21-17 23-15 25-13 26-10 27-8 27-5 27-1 28 1 28 3 26 8 25 17 31 23 26 20 14 23 9 24 7 25 4 26-1 27-1 28-4 28-6 29-8 28-10 28-12 25-13 26-17 24-18 23-19 20-21 17-21 14-21 11-21 9-23 7-34-1-36-4-25-7-25-10-28-12-28-14-28-16-25-17-21-27-20-25-9-30-4"/>
<path d="M7754 25234l-2-4 25 11 20 18 26 20 20 16 22 17 24 20 25 20 26 24 28 25 28 28 28 31 29 28 32 31 33 30 34 29 18 17 33 32 33 34 18 18 17 19 17 18 17 18 18 19 18 18 18 18 18 19 19 17 18 18 19 19 19 19 18 19 19 19 19 19 19 19 20 19 20 19 19 18 20 18 21 18 20 17 20 19 20 15 21 19 20 18 21 17 21 18 21 17 21 17 20 16 20 19 20 17 20 17 19 17 18 18 19 16 18 17 35 32 32 33 33 32 30 30 16 18 29 28 26 26 25 24 25 22 21 21 21 19 19 16 23 20 25 17"/>
<path d="M9417 27007l 2-2 21-10 27-2 26 0 23 6 21 12-17 23-21 12-24 14-18 18 23 14 29 1 25 4 25 9 12 22-12 23-20 17-22 15-24 16-27 13-28 7-27 3-27-1-25-8"/>
<path d="M9433 26896l-2 0-26 10-25 16-19 21-12 21-11 26-6 28-5 30-2 33 4 32 9 32 12 27 15 28 20 26 22 23 24 20 26 17 26 11 27 6 31 1 33-3 24-7 24-9 23-12 22-14 21-15 19-19 17-19 13-21 16-31 7-32-1-37-4-24-7-26-11-29-13-26-16-26-17-26-18-20-20-23-22-19-21-15-21-12-33-10-31-2-30 3-29 9-30 13"/>
<path d="M5133 27552l 0-1-26 9-19 20-20 22-18 17-21 23-23 27-18 20-20 22-21 23-24 26-25 28-26 31-28 35-29 37-15 18-17 19-17 20-18 19-19 21-19 20-19 21-19 21-20 21-20 21-19 23-20 22-20 22-21 21-20 22-20 22-21 23-21 21-21 21-22 23-21 23-21 24-22 24-22 24-23 24-23 27-24 25-23 24-24 25-23 25-24 24-23 25-23 22-24 24-21 23-22 22-21 22-22 21-20 22-20 20-20 20-20 20-18 19-18 20-19 17-18 18-18 18-33 34-33 30-32 28-28 27-24 23-21 21-25 25-21 18-20 19 8 22"/>
<path d="M3200 29440l 0-1-20 17-12 21-13 27-11 22-8 27-3 26 16 20 24 8 29-3 28-6 24-8 22-9 23-10 27-12 24-14 20-16"/>
<path d="M3258 29521l-1-1-4 25 0 25 3 26 4 26 3 27 0 27 5 25"/>
<path d="M3203 29299l-5 0-33 3-27 8-30 12-30 16-28 18-25 23-17 18-16 20-14 24-14 25-12 27-12 28-9 27-7 31-5 31-2 30 3 30 5 28 9 26 11 25 13 22 13 20 16 19 20 17 31 20 23 9 24 6 24 4 24 3 36 1 24-4 25-8 27-10 28-15 28-16 29-18 26-20 23-21 23-21 22-23 19-23 18-24 13-23 12-24 10-32 3-34-1-36-6-27-6-27-11-28-14-29-14-28-19-30-20-27-19-28-21-27-19-23-19-24-18-16-24-21-24-16-22-15-23-12"/>
<path d="M5566 27592l-2-2-1 26 9 28 11 25 13 31 9 24 10 24 12 25 12 26 14 27 15 30 18 28 18 28 18 29 19 27 19 28 20 28 22 29 19 29 23 30 23 33 23 32 24 34 21 33 20 33 20 37 19 35 17 37 17 34 17 33 16 34 15 34 15 36 14 32 14 35 15 36 14 34 15 33 14 33 12 32 13 32 12 31 10 28 12 25 9 26 9 26 10 25 7 24 11 31 9 27 8 23 9 24 12 24 16 19"/>
<path d="M6208 29385l 1 0 27-2 27-3 26-9 26-9"/>
<path d="M6267 29360l-2 0-25 13-18 16-10 23-5 25 2 25 17 18 27 5 29-5 27-3 25 0 24-1 26-3 26 2 20 15-6 25-13 23-21 19-25 17-29 14-29 7-30 2-30 0-28-1-25-10-23-16-9-25"/>
<path d="M6271 29241l-3-2-27-7-26 3-26 8-23 14-20 15-20 21-18 24-17 27-15 27-12 30-9 30-4 36-2 25 2 25 6 35 11 30 15 28 21 23 23 20 29 14 31 10 33 5 35 1 35-6 35-8 23-8 24-7 22-9 32-14 27-18 22-21 19-22 14-25 10-27 6-27 0-29-6-31-11-32-16-32-14-23-15-23-16-21-17-21-26-21-27-14-29-9-28-5-27 0-26 4-24 8-24 15-18 18"/>
<path d="M9441 27469l 1-3-24 9-13 23-15 29-10 25-12 26-12 30-13 35-17 36-18 41-10 22-10 22-11 23-10 24-12 25-11 27-11 25-12 26-13 27-12 26-13 28-13 28-13 27-14 29-15 28-14 29-15 29-15 29-15 29-15 30-16 29-15 29-14 30-16 28-14 28-14 29-14 28-13 25-13 25-12 25-12 24-11 23-9 22-19 38-14 39-13 35-11 31-8 31-7 28-6 28-5 28-5 29-4 26-5 26-5 26-5 25-7 25-8 27-8 27-10 27-10 27-10 29-11 25-10 25-10 24-13 26-12 30-8 28-7 23-9 23-4 25 20-25 14-29"/>
<path d="M8548 29528l-2 0-24 6-19 14-22 19-20 24-13 21-10 24-8 27-5 28-3 27 3 24 10 29 15 24 18 16 27 9 29-5 24-15 23-19 19-21 13-24-13-24-25-8-28 0-29 5-27 13-25 14-23 15-15 22"/>
<path d="M8549 29482l-3-2-24-12-26-4-30-2-25 6-24 11-25 17-19 17-19 21-20 24-17 25-15 27-13 30-10 35-7 35-1 34 4 33 8 33 13 31 17 25 22 18 25 11 29 6 32 1 33-3 34-7 34-11 24-9 24-10 24-10 23-13 22-14 20-17 18-19 16-18 21-28 16-28 11-31 6-32 0-30-7-31-13-29-17-31-22-28-16-17-26-24-28-19-30-13-30-9-27-5-24-4-27-1-26 1"/>
<path d="M9842 27503l-1-1 20 22 17 20 19 18 24 23 17 17 19 18 21 21 22 22 24 26 25 27 26 26 28 28 26 28 27 31 26 32 27 34 26 36 26 36 26 37 12 21 14 20 26 40 13 21 13 22 13 22 14 23 14 20 12 20 14 23 13 24 14 22 13 23 13 23 14 23 13 23 15 23 13 22 14 22 14 22 12 22 14 22 11 24 14 22 13 22 13 22 13 23 12 24 12 22 12 22 13 21 12 23 11 24 11 23 11 24 11 22 11 24 11 24 10 24 10 23 19 43 19 42 16 39 19 36 18 35 18 33 16 33 16 28 16 25 16 22 16 21 17 20 21 27 20 22 16 17 19 21 16 21 5 25"/>
<path d="M10988 29667l 0-2 23-14 28-11 25-9 22-11 25-7 26-2 25 1 12 22-13 24-9 23-13 26-13 27-9 24-8 23-5 25"/>
<path d="M11117 29531l-5-3-26-7-32-2-25 3-35 5-25 6-33 11-23 9-22 11-22 14-20 15-20 18-17 18-16 19-14 22-11 22-10 25-6 25-2 26 2 27 5 28 9 26 10 25 15 23 15 19 19 16 21 15 23 10 23 10 25 7 27 5 28 6 30 0 30-2 30-7 29-9 28-10 27-9 26-10 25-15 24-17 21-18 19-21 16-20 13-23 10-26 8-25 4-25 0-25-1-26-6-28-8-28-13-29-15-26-16-25-18-21-20-18-21-12-24-11-25-7-26-3-27-3-29 2-29 3-28 5-28 5-24 6-29 10-23 8-24 13"/>
<path d="M2978 30083l-1-1-25 3-20 18-17 22-19 31-13 22-13 25-15 29-16 31-19 35-22 38-22 37-25 41-12 21-13 21-12 22-14 22-13 23-13 24-14 23-14 24-16 25-14 25-14 27-15 26-15 25-15 26-15 26-12 25-13 23-14 24-13 24-23 42-21 40-21 36-16 32-15 32-17 31-12 30-14 29-13 24-11 22-16 27-10 25-13 27-9 23"/>
<path d="M1974 31688l 0-2 1-25-7-25-19-15-27 1-18 17-19 19-14 20-13 27-6 25 5 25 17 19 21 18 27 13 25 9 28 10 24 10 23 15 19 16 5 24-8 24-12 27-15 21-21 20-26 13-30 2-26-11-16-19-13-23-7-25 0-29 7-25 12-28 13-23 14-23 17-23 19-24 21-25"/>
<path d="M2006 31473l-3-3-21-14-24-7-27 0-26 7-30 15-26 19-19 16-19 16-18 18-18 19-17 22-16 22-15 27-14 25-12 27-9 30-10 31-10 33-7 35-6 35-1 36 0 35 6 33 8 34 11 28 15 25 16 21 27 25 23 13 22 12 25 9 24 7 24 4 26 2 33 2 33-2 30-9 32-13 22-13 23-13 21-17 20-17 18-18 16-20 14-22 11-23 11-25 9-27 7-26 5-26 2-28 0-28-3-26-6-28-8-26-11-26-15-23-15-22-17-20-19-18-19-16-31-17-22-11-24-8-32-11-28-7-30-5-26-1-24 6"/>
<path d="M3298 30068l 0-1 20 18 19 18 16 17 18 21 19 22 18 23 21 26 15 19 16 21 15 25 15 24 15 25 15 23 16 27 17 30 18 32 19 34 20 35 21 36 19 35 20 38 20 37 20 37 21 36 24 37 23 37 25 34 24 34 25 33 25 33 27 35 26 37 27 35 27 36 25 33 27 35 28 33 24 35 24 36 25 33 23 31 24 30 24 30 23 27 21 26 21 24 18 20 17 17 21 25 20 20 17 18 20 18 21 17"/>
<path d="M4395 31878l 0-3-3-27-2-26-11-22-23-6-25 10-22 20-20 24-16 25-11 22-3 25 24 13 24-3 23-9 25-14 23-14-3 27-3 25 0 29 0 26 0 24 0 29 0 25 2 28"/>
<path d="M4453 31696l-4-2-22-15-23-14-26-11-26-11-27-5-30 5-25 6-27 13-28 18-20 14-18 17-18 20-17 21-17 22-16 23-14 26-15 27-13 31-10 31-8 31-4 32-3 32 2 34 5 33 6 30 11 28 11 25 14 21 16 19 17 17 18 16 30 20 23 10 24 7 35 8 33 3 34 0 35-6 24-6 25-9 25-12 23-15 24-18 24-21 24-22 22-23 21-24 18-26 15-27 13-26 11-28 8-27 6-30 6-30 0-32-2-36-4-30-9-30-11-28-14-24-16-23-20-20-21-14-22-12-25-13-34-12-24-8-24-5-34-2-32-1-28 2-25 7-27 10"/>
<path d="M6337 29905l 0 0 20-14 23-9 26-8 29-3 25-2 26 2 24 9 10 22-1 27-13 25-17 27-16 22-18 22-18 21-20 22-22 22-23 21-21 17-19 16-22 15-20 14-15 19 26 0 27-7 26-3 25-4 25 0 25 0 27-2 26-1 25-6 25-8"/>
<path d="M8683 30035l-1-1 24-15 28-7 29-3 28 0 26 3 22 10-16 21-22 15-23 10-19 16 19 15 25 2 28 1 26 6 24 8 23 13 13 23-5 25-15 20-22 21-19 18-22 19-22 18-23 15-23 10-25 4-28 0-26-6-22-13-17-25-6-24"/>
<path d="M11419 30021l-1-1-1 25-2 28-2 27-4 25-1 26-1 29-1 27-1 25 0 24 3 25"/>
<path d="M1866 32412l 0 0 11-22 27-5 26-1 25-2 28 0 24 6 16 18-3 24-12 21-19 25-15 21-16 19-19 19-19 16-23 22-23 19-19 18-18 19 19 21 24 1 27-3 26-1 25-4 25-3 24-2 29 1"/>
<path d="M4515 32447l-1-1 25-5 26-3 26-7 29-11 24-9 26-9 22-10"/>
<path d="M4575 32454l-2 1-19 16-12 22-6 24 10 22 24 1 29-3 27-7 25-4 27-4 26-1 25 2 27 5 21 12 19 18 8 22-5 27-12 22-17 25-21 22-21 18-20 16-23 13-26 9-26 6-29 2-27-1-27-9-23-14-13-20"/>
<path d="M8726 30524l 0-2 12 22 5 26 4 24 3 25 2 25 1 26 0 27-2 25-2 27-4 26"/>
<path d="M8644 30784l-1-1 22 15 21 16 21 18 20 16 22 13 25-2 18-16 10-23 9-24 8-23 5-25"/>
<path d="M8748 31158l 1-1-2-26-7-25-15-20-26-7-24 9-19 20-17 23-12 22-5 24 9 25 19 15 28 14 25 11 29 11 22 10 25 13 22 16 17 22 3 28-9 23-15 22-19 22-22 16-23 9-27 8-24-5-17-20-6-29-1-26 4-26 8-24 11-25 12-26 15-23 19-25 18-19 20-18 22-13"/>
<path d="M10127 27034l 0 0 2 24-4 25-7 26-8 23-6 24 5 24 24 6 24-5 25-3 25-4 25-11 25-11"/>
<path d="M10223 27064l 0-1-1 24-1 25 4 26 2 25 1 27 2 26 6 24"/>
<path d="M10341 27347l 0 0 5 24 3 24 0 25 2 25 3 25 3 25"/>
<path d="M10309 27478l 0 1 6 24 11 23 15 20 25 5 23-9 17-17 17-20 14-24 8-23"/>
<path d="M10492 27662l 0-1 7-23-6-26-19-17-24 2-23 17-19 18-16 21 0 24 23 10 26-2 26-11 21-12-18 18-5 26 0 26 0 26 0 25 2 26 2 24 2 25"/>
<path d="M3595 29855l 0-1 24-7 26-1 26-4 24-7 5 25-5 27-11 23-5 28-8 29-6 24-6 24-6 26-1 27"/>
<path d="M5857 27226l 0-2-3-26-24-9-25 7-22 14-21 17-19 19-12 22-4 26 17 19 27 0 25-6 23-9 20-17 16-18-15 20-5 28-4 24-2 25-1 26 0 26 1 29-2 29 1 26 2 25"/>
<path d="M7947 24973l-1 0 1 24-2 28-2 26-2 26-2 26 0 24"/>
<path d="M8121 24982l-1-3-2-25-2-24-25-8-22 12-18 18-19 21-12 23 9 25 23 17 24 9 24 5 26 6 21 13 4 25-12 25-16 21-18 19-20 17-21 14-16-21 5-28 10-22 15-25 20-25 15-19 16-18 19-21 18-17"/>
<path d="M6087 34097l 0 0-19 17-6 26 4 27 9 27 17 21 22 18 25 5 24-5 28-10 27-16 25-20 20-25 13-25 6-23-1-28-8-28-13-26-18-18-22-12-25-2-27 5-26 8-24 12-25 17-17 20"/>
<path d="M5803 34311l 0-1-16-18-24 3-24 9-27 8-26 7-27 8-29 7-24 7-23 6-31 9-25 9-25 7-27 11-32 15-28 11-32 13-34 12-35 11-34 13-36 14-39 15-42 16-43 17-43 16-43 15-44 14-44 16-22 8-45 15-45 16-46 16-46 15-24 8-24 9-26 8-26 9-27 9-28 9-28 10-31 10-31 10-32 10-31 11-33 10-33 11-33 12-35 11-33 12-33 11-34 13-34 12-34 12-33 12-33 12-34 12-33 13-33 13-34 12-32 12-34 13-33 12-33 13-34 12-33 12-33 13-36 13-35 13-35 13-35 13-36 13-35 12-36 13-36 15-36 13-36 13-37 14-35 13-36 14-36 14-36 13-35 13-35 14-37 14-34 13-37 13-35 13-35 14-36 12-35 13-35 13-36 14-35 14-35 14-34 14-35 15-36 12-35 16-36 15-36 13-36 13-34 14-35 13-35 13-34 13-34 12-33 12-33 13-32 13-33 12-32 13-32 13-31 13-30 12-30 14-30 11-30 13-29 12-27 13-29 12-29 12-27 12-26 12-28 10-26 12-26 11-26 11-25 11-25 11-24 11-24 11-24 11-24 10-23 10-23 10-23 11-22 10-22 10-41 19-40 20-38 17-36 17-34 15-33 12-31 13-27 13-29 13-28 16-29 13-30 15-26 13-24 10-29 14-26 11-23 9-28 12-24 12-24 8-23 8 23-12"/>
<path d="M449 36300l 0 0 11 23 3 26-3 25-1 26-2 24-3 25 2 26-3 24"/>
<path d="M610 36400l 0-1 12-21 25-5 26-3 24 0 24 10 2 24-12 23-17 24-14 22-14 24-12 21"/>
<path d="M658 36663l 0 2"/>
<path d="M5891 34452l-1 0-24 1-23 14-22 13-20 13-21 15-25 17-21 14-22 14-22 13-26 17-29 17-24 15-28 14-34 16-37 19-39 17-40 17-40 17-40 14-40 17-41 17-42 18-22 11-45 19-23 9-24 10-24 10-25 9-24 10-26 10-27 9-25 12-28 10-26 11-27 11-28 11-28 11-29 10-29 12-29 10-29 11-30 11-29 11-30 12-31 10-30 12-31 10-31 12-31 11-31 11-32 11-31 11-32 11-32 11-31 12-32 10-30 12-32 11-32 11-30 11-30 11-29 10-30 11-31 10-31 11-29 11-31 10-30 11-30 11-31 10-30 11-29 10-30 10-29 11-31 10-29 10-30 11-31 10-29 12-31 11-30 11-29 12-31 11-30 12-30 11-28 11-31 12-31 10-29 11-30 11-29 11-30 8-29 11-30 11-29 11-29 11-30 11-30 11-30 11-30 14-29 11-30 11-29 11-30 11-28 11-27 10-27 11-27 10-27 10-28 10-26 11-24 10-26 10-27 9-27 10-26 10-25 9-26 10-26 9-26 9-24 10-25 10-23 10-24 9-25 10-23 10-22 11-22 10-22 9-43 19-41 16-39 16-41 16-36 15-37 15-37 14-34 15-35 16-34 16-35 16-31 15-30 15-29 14-29 15-29 14-28 13-25 13-24 11-31 15-31 13-26 13-25 12-27 9-25 10-22 11 20 14"/>
<path d="M1288 36506l 1-1 22-10 26-6 27-5 28-3 25 5 4 25-16 25-21 24-19 18-18 18-20 18-19 18-21 16-20 19-18 19-17 20-14 22-6 23 11 23 25 4 27-4 27-8 23-9 27-10 24-10"/>
<path d="M1533 36501l 0 0 20-17 24-6 24 0 9 24-10 25-13 22-17 22-14 22-10 25"/>
<path d="M1546 36784l-1 0"/>
<path d="M6019 34514l-1 1-23 10-24 16-21 15-21 15-25 20-24 18-27 19-29 19-22 15-22 16-24 14-23 17-26 17-27 20-28 19-30 20-29 20-31 19-29 21-31 20-30 22-31 23-31 23-31 22-31 22-32 22-30 22-30 22-31 22-29 25-33 24-32 24-35 26-36 25-35 27-37 27-19 16-19 15-21 14-20 14-21 14-21 14-21 15-21 14-23 13-21 15-22 15-22 16-21 15-22 16-22 16-22 15-22 15-22 13-22 15-20 13-20 13-21 14-38 24-38 24-34 24-32 21-32 21-30 22-31 22-31 22-34 23-36 23-40 25-21 13-21 13-42 26-20 14-21 12-21 13-22 13-22 13-23 14-24 13-24 14-23 13-24 14-23 12-24 13-23 13-24 13-22 14-23 13-22 12-24 13-21 12-21 13-39 23-37 20-32 19-30 19-28 16-28 18-27 16-25 15-24 16-23 12-21 16-30 19-28 18-29 20-20 15-20 17-20 14-25 18-21 16-25 18-18 16-16 19-13 23-19 20-17 17-16 18-19 17-21 13"/>
<path d="M2501 36767l-1-2 26-9 30-6 25-6 30-5 32-5 28-1 27 0-13 23-21 16-24 15-28 15-24 17-27 15-24 16-21 14-18 17 20 17 30-2 25-4 26-5 28-1 24 5 13 21-18 23-23 21-20 15-19 16-19 14-21 14-21 11-26 13-23 10-23 6 20-18 21-12"/>
<path d="M2858 36921l-1-1-22-14-25 2-25 8-24 7-3 26 27 5 28 1 28 2 27 4 22 11-1 24-17 19-22 19-24 17-25 12-27 9-26 8-25 2-16-19"/>
<path d="M6145 34593l 0 0-17 19-15 20-15 20-16 20-16 18-17 19-16 18-18 19-18 20-19 25-16 19-16 18-18 19-19 19-18 19-20 20-21 18-19 19-19 18-20 19-20 21-20 22-22 20-22 21-23 22-25 24-17 18-25 24-18 18-20 17-19 17-20 19-19 18-20 16-19 17-19 18-18 16-17 17-19 17-19 17-20 19-21 19-20 19-21 19-21 21-21 19-23 20-22 18-22 18-23 19-22 20-22 20-20 20-22 19-18 19-19 16-17 17-24 26-22 25-21 23-21 23-21 20-21 23-23 23-21 24-22 25-24 26-23 24-24 25-25 24-25 24-27 25-23 24-23 24-22 24-22 25-24 22-20 22-19 21-16 19-16 19-16 18-19 22-19 24-16 19-16 20-18 23-20 22-18 22-16 20-20 22-18 20-18 21-18 19-16 18-16 19-17 21-16 19-20 19-21 19-15 18"/>
<path d="M3827 36703l 0-2-13 21-11 23-12 22-15 23-13 24-14 26-11 25-7 27 10 25 24 10 29 2 29-3 25-6 24-7 27-11 28-10"/>
<path d="M3852 36837l-1-1 5 27 4 30 1 26-1 26-3 25-3 26-4 24-2 25"/>
<path d="M4035 36809l 0-2 23-9 27 8 26 7 23 10 18 17-5 26-14 22-14 21"/>
<path d="M4043 37102l 0-1"/>
<path d="M6203 34582l 0 0-8 25-8 27-11 25-10 24-11 24-12 27-10 24-11 25-11 25-12 28-13 29-13 28-14 31-9 22-14 33-13 31-12 28-15 29-14 32-16 32-16 31-18 29-12 22-14 22-14 24-15 24-15 22-15 24-14 23-12 23-14 25-12 24-12 24-12 25-13 22-12 22-12 22-12 22-17 31-12 23-10 23-12 22-12 25-11 21-15 32-12 29-13 27-13 22-12 24-11 25-11 26-11 26-9 25-10 25-10 26-12 24-12 23-14 29-12 24-13 25-11 23-11 21-14 25-12 26-10 24-11 26-15 26-13 24-14 27-14 28-15 28-9 22-13 25-10 23-11 25-9 23-11 24-8 23-9 23-10 24-10 24-13 24-15 22-12 22-12 22-16 22-9 24-12 23 23-13"/>
<path d="M4766 37044l 1-1 16-20 22-12 23-9 27-10 28-9 24-8"/>
<path d="M4789 37042l-2 1-20 14-12 23-15 21-14 22 25 6 26-7 27-6 27-4 25 2 9 24-9 27-12 21-16 19-16 19-21 17-22 13-22 10-25 7-25-4-1-27"/>
<path d="M4892 37014l 0-2 23-12 24 2 25 6 20 14-5 30-13 25-16 26-14 20-14 22"/>
<path d="M4873 37267l 0 0"/>
<path d="M6279 34612l-1-1-1 25 0 31 0 29-2 33-1 25-3 26-2 29-3 30-4 34-3 34-4 36-6 36-5 36-4 36-6 37-5 40-5 38-3 38-3 37-4 37-3 37-4 38-4 40-4 37-4 37-4 35-4 30-2 34-3 32-2 33-2 35-4 32-3 32-3 30-4 31-4 31-4 31-3 31-5 31-5 29-5 29-4 29-5 29-5 26-3 25-4 25-2 24-3 26-3 26-1 25-4 25-3 25-1 26-1 25-3 34-2 34-2 34-2 31-3 29-3 28-2 27-2 25-4 28-2 26-3 26-1 26"/>
<path d="M5907 36812l-2 0-24 9-22 19-19 23-12 22-11 26-11 29-8 30-7 31-3 28 0 25 4 29 10 27 14 21 25 9 27-11 19-17-3-24-25-15-25-8-26-4-25 7-13 20"/>
<path d="M6053 37174l 0-1 22-12 12-21-22 12-10 22 25-5-9-24-24-1-7 26 16 20"/>
<path d="M6400 34589l-1-1 18 17 16 23 12 26 10 24 12 30 9 23 9 28 8 28 9 33 9 32 8 32 8 31 8 34 7 32 7 31 7 35 5 34 5 37 4 35 3 24 3 26 4 35 3 25 4 25 3 24 4 26 3 24 4 25 6 34 6 36 4 24 7 34 7 31 7 30 6 32 5 31 4 32 4 33 4 32 5 32 5 31 5 28 3 29 6 31 4 34 5 30 3 28 4 26 3 28 3 27 2 29 2 25 2 25 3 25 3 31 4 28 3 32 6 28 6 25 6 30 6 31 4 26 4 29 4 25 5 30 4 30 7 27 6 29 7 27 6 23 6 24 6 25 5 27 6 23 5 24 4 25 17-25"/>
<path d="M6517 37015l-1-1 24-6 25-6 25-6 23-8 27-9 23-6 22-10-13 25-13 21-12 26-13 30-9 25-9 26-8 23-9 30-7 28-5 27-3 24-3 26"/>
<path d="M6789 36995l 0-1 9-23 22-10 24-8 24 9 19 16 10 23-12 25-16 24-19 21-21 25-15 19"/>
<path d="M6779 37321l 0 0"/>
<path d="M6462 34431l-1-1 19 17 16 19 18 17 18 18 17 21 18 20 16 20 17 19 20 21 22 23 17 18 19 21 21 21 20 22 20 24 21 23 22 25 24 25 16 19 16 18 16 18 15 19 16 19 15 19 14 21 15 21 14 20 14 20 15 19 14 20 14 21 14 21 15 21 14 21 14 24 15 23 14 24 14 25 13 24 15 25 15 25 14 23 15 25 15 24 15 27 14 25 15 26 14 26 14 24 14 25 15 24 14 25 14 23 13 25 13 25 13 25 12 25 12 25 12 24 10 25 12 25 10 25 12 24 11 24 11 24 12 25 10 25 12 23 11 24 11 22 15 34 12 22 10 23 10 24 10 22 15 32 15 30 15 30 13 30 9 23 13 29 12 29 13 27 12 28 10 25 10 24 12 24 14 28 13 26 13 24 12 23 10 23 13 23 13 24 13 22 8-22"/>
<path d="M7690 36938l-1-2-19-16-25-5-27 5-28 9-20 13-19 15-9 26 6 23 21 14 29 7 31 0 25-2 31-2 28 0 26-1 24 10-5 24-17 24-18 21-20 19-23 17-21 15-21 14-28 12-25 5-28-3-22-19-7-25-2-24 5-31 8-24 11-23 13-20 21-25 17-18 22-19 24-13 26-12 25-2"/>
<path d="M7787 37224l 0 0 11-22-24-6 20 15"/>
<path d="M5580 37355l 0 1-25 3-22 11-21 13-21 11-23 16-21 12-26 16-21 12-21 13-27 18-22 16-23 16-25 18-25 20-27 20-23 17-25 17-26 16-22 14-25 16-27 16-29 16-28 16-26 13-25 15-25 14-24 12-27 15-26 14-29 16-29 18-30 18-32 18-32 18-34 17-33 18-35 17-33 17-35 18-37 18-40 20-22 11-23 10-23 12-25 12-25 13-25 12-25 13-25 12-25 12-25 11-25 12-25 11-24 11-24 11-24 10-24 11-24 11-24 9-23 12-24 10-25 10-24 10-26 11-25 10-25 10-25 12-26 9-26 11-26 12-28 11-26 11-27 11-27 12-27 11-27 12-28 11-26 11-25 11-28 11-28 11-28 11-28 11-28 10-28 12-28 11-29 12-27 12-28 12-28 11-28 11-28 11-28 12-28 12-28 12-27 11-28 12-28 12-28 12-28 12-28 12-27 11-28 11-28 10-28 12-25 10-27 12-26 10-26 11-26 11-26 11-29 11-25 12-25 10-27 12-26 10-26 12-27 11-27 11-26 11-26 11-27 12-26 11-26 13-26 11-25 12-23 10-24 12-24 11-24 10-25 12-24 7-25 11-24 11-25 11-24 11-26 10-25 11-23 11-24 11-23 10-24 11-23 11-23 10-43 19-43 19-40 17-38 16-37 16-34 15-32 13-32 13-29 15-29 12-26 14-24 10-24 9-29 11-25 10-25 12-24 9"/>
<path d="M1011 39668l 0-2 8-24 6-25 3-25-6-25-21-17-28-2-28 8-29 13-27 14-20 17-22 24-19 24-15 21-9 23 6 24 23 13 27-5 23-9 23-11 23-17 20-17 20-16 15-20-9 26-8 26-10 24-9 22-6 28-8 29-9 30-5 24-8 24-8 30-6 30-5 27-2 28-2 28-4 26 21-15"/>
<path d="M1171 39840l 0-2-21-12-22 11-18 17-22 15-18 17-3 24 22 12 28 4 27 1 24 0 23 8-1 27-16 20-17 22-19 16-22 11-24 8-27 3-24-4"/>
<path d="M5606 37508l 0 0-24 3-21 16-17 17-21 16-19 15-22 18-24 16-23 16-20 15-23 16-24 16-26 13-25 16-25 15-25 15-25 15-25 13-27 15-27 17-29 18-29 21-23 14-24 15-25 14-25 13-28 16-27 15-30 16-32 17-33 16-37 18-36 17-39 21-39 20-39 19-41 22-39 19-42 20-40 21-41 19-41 21-40 20-40 19-41 20-41 20-41 22-43 22-43 20-22 11-41 22-44 22-22 11-23 14-24 11-23 12-24 12-25 11-23 13-23 12-25 12-23 12-24 13-23 11-23 12-23 12-22 13-23 12-23 11-21 12-22 12-41 24-21 12-41 23-20 13-42 23-41 23-39 25-40 24-39 24-38 25-38 25-38 24-35 24-37 22-34 22-33 19-33 22-29 21-32 21-30 21-28 20-29 20-26 19-26 17-25 19-27 18-23 18-25 19-23 18-22 16-21 15-20 15-19 16-27 22-27 23-23 20-24 18-22 15-25 16-20 16-25 19-20 17-22 18-21 13-21 16-16 19"/>
<path d="M1999 39689l 0-1-15 21-8 24-11 24-10 24-12 27-13 27-14 28-12 28-10 26-8 23-6 25"/>
<path d="M2107 39756l-1-1-22 10-16 22-13 24-12 24-3 26-2 25 1 25 10 22 21 15 26-4 22-13 19-19 16-20 17-25 7-26-3-26-9-29-13-25-18-19-21-16-26-6-25 5-13 21"/>
<path d="M2282 39987l-1-2-20-12-15 19 24 2-24 4"/>
<path d="M6650 34460l-1-2 21 13 19 17 19 17 20 17 21 18 19 16 19 15 21 15 23 17 21 20 18 17 19 18 19 19 20 19 21 21 24 22 25 22 25 23 20 15 19 17 20 17 22 16 22 16 22 16 22 16 22 17 22 15 22 17 23 17 22 17 23 18 23 17 24 17 23 19 22 17 22 19 22 20 23 20 22 21 22 21 22 23 22 22 21 22 21 22 20 19 21 23 20 22 19 23 19 22 19 23 18 22 18 20 17 21 18 22 18 20 17 21 18 20 17 19 17 19 17 19 17 19 16 20 15 19 15 22 15 19 21 28 22 27 21 29 19 28 21 28 20 25 21 24 19 25 20 26 19 21 18 22 18 19 16 22 16 19 15 19 16 18 15 20 15 20 18 24 17 24 18 24 17 24 15 21 17 22 17 20 19 21 17 21 17 22 16 22 17 17 15 21 12 21 17 22 16 18 14 22 15 21 17 21 12 23 14 20 15 21 14 20 10 22 10 22 12 22 10 24 9 23"/>
<path d="M8472 36977l 0-1-16 24-11 22-11 23-11 25-10 26-9 23-10 23-9 26-8 24"/>
<path d="M8639 36925l 0-1-21 12-11 22-9 26-9 24-8 26-9 25-11 28-8 24-9 27-9 25-10 23-6 26"/>
<path d="M8806 37041l 0-2-6-24-24-1-24 10-22 11-21 14-20 15-13 21 19 19 26 4 27 2 26 2 25 4 26 4 23 10-5 26-17 18-18 16-22 15-27 16-21 12-27 10-23 9-26 6-23-6"/>
<path d="M7455 37410l 0-1-22 11-20 14-19 19-20 17-18 16-21 16-21 14-21 14-21 17-19 16-18 19-16 18-20 18-21 18-18 16-20 16-18 16-20 20-17 18-18 17-20 19-19 15-21 14-21 17-23 19-20 16-18 19-22 16-20 19-20 22-21 21-19 18-21 18-19 17-19 19-21 18-20 19-18 17-17 17-22 18-19 17-21 16-21 16-21 19-23 20-19 16-19 18-25 20-24 17-23 20-18 17-24 22-21 21-17 18-25 20-20 18-20 19-20 18-19 19-20 19-20 19-19 20-19 18-20 19-20 15-19 18-20 19-21 19-21 19-21 18-22 19-21 20-22 19-21 20-22 16-22 18-21 17-24 21-25 22-26 22-25 20-24 23-25 22-25 17-26 20-24 19-23 19-24 19-23 17-23 18-23 18-23 19-22 19-24 19-23 19-24 19-23 18-23 19-23 18-22 17-20 16-18 18-21 22-17 20-18 22-19 19-18 19-21 19-19 18-19 19-18 18-22 20-21 17-20 13-19 17-17 21-17 18-17 19-15 20-15 19-16 18-18 18-16 19"/>
<path d="M4792 39858l 0 2-4 25-4 28-8 24-5 27-9 26-9 23-4 25"/>
<path d="M4865 39866l 1-1 22-13 25 0 28 2 25-2 27-2 21 11-1 25-12 22-15 22-18 22-20 22-20 22-18 22-22 21-18 17-16 21 19 15 25-1 25-2 26 1 26 4"/>
<path d="M5151 40037l 0 0-19 15 23 9 18-16-12-22-25 9-16 21 6 23 24-8 15-20-24-9-11 23"/>
<path d="M7606 37502l 1-1-6 26-12 23-15 25-13 28-13 23-16 27-19 29-14 21-14 22-15 23-14 23-14 24-13 24-13 25-14 24-12 23-13 23-11 23-11 22-13 22-18 32-13 23-13 23-14 23-14 24-13 22-13 23-14 25-13 22-14 22-14 20-14 21-14 20-15 22-13 21-15 20-13 21-19 27-18 27-19 27-19 26-22 28-15 20-16 21-16 21-17 21-17 22-19 22-18 22-18 22-17 19-19 21-15 20-23 28-20 26-18 27-16 25-14 24-14 26-15 21-15 23-17 24-20 26-20 30-21 26-16 19-24 27-23 27-21 26-18 25-17 22-15 20-15 21-14 21-14 20-15 23-16 28-20 25-21 24-22 27-21 25-17 23-16 21-15 21-15 23-11 21-13 23-12 21-15 22-13 21-15 19-14 22-12 21"/>
<path d="M5952 39883l-1 1-15 19-8 24-10 29-8 23-6 25-8 24-8 26-3 25"/>
<path d="M6030 39849l 0-2 16-20 27-11 27-5 25-1 26 0 21 12-9 23-16 18-19 20-21 20-19 18-15 20 25-6 23-9 25-7 27-4 27 0 21 11-3 28-16 19-16 21-20 17-23 13-25 11-24 11-25 7-26 5-25-5 7-24"/>
<path d="M6317 39803l-1-1 20-16 26-7 25-5 25 1 16 19-6 26-12 24-12 21-13 23-12 21-11 21-10 24-8 25"/>
<path d="M6362 40108l 0 0"/>
<path d="M6711 34309l-1-1 21 13 22 12 22 13 23 13 22 11 24 13 26 16 21 15 21 15 23 19 24 19 28 19 28 16 21 13 20 14 22 15 22 15 22 14 24 15 23 15 24 17 25 18 25 19 25 18 28 19 27 19 28 19 29 20 29 21 28 21 30 22 29 22 30 22 30 21 30 23 29 25 31 24 29 24 30 24 31 22 31 23 31 23 32 22 32 23 31 24 30 25 31 24 30 24 30 24 32 25 29 25 30 26 30 26 29 26 28 26 28 27 29 26 28 27 29 26 27 26 25 25 26 25 24 26 25 25 23 27 23 25 23 23 23 25 23 24 22 24 22 23 23 23 22 21 22 22 23 22 22 23 22 22 23 22 22 20 23 20 20 21 20 19 20 19 19 21 18 19 17 19 17 18 24 24 25 24 17 18 16 19 23 25 24 20 22 20 22 20 21 21 19 19 18 20 15 20 16 21 20 25 17 23 17 19 20 23 18 18 21 16 17 18 20 14 19 18 21 15 23 12 22 13 21 16 20 16"/>
<path d="M9333 36948l 1-2-11 26-10 26-9 29-7 26-9 25-8 25-7 25-10 25-6 24"/>
<path d="M9467 36949l 0-1-23 12-19 22-13 21-10 22-9 26-8 24 4 25 23 13 28-1 29-4 25-4 24-4 24-4 26-8"/>
<path d="M9513 37015l-1-1-13 22-7 25-7 27-5 29-1 25 4 28 15 19"/>
<path d="M9776 37060l-1-2-20-12-21 11-22 17-17 17-15 19 13 23 22 16 25 5 25 1 27 3 25 5 19 16-4 24-16 21-21 20-22 14-26 8-28 5-26 0-26-3-27-7-24-11-17-17"/>
<path d="M4756 40367l-1-2-26 12-17 19-17 23-13 21-18 25-15 24-17 20-18 24-19 27-23 30-20 31-21 31-21 32-21 34-22 35-22 37-22 32-23 32-22 30-22 29-19 30-21 31-20 29-19 31-22 32-18 31-19 33-19 32-19 32-19 33-19 33-18 32-19 30-19 30-16 28-16 28-16 26-15 24-15 22-13 22-17 28-15 25-15 26-14 25-14 26-13 25-13 26-13 25-13 25-12 24-12 23-14 25-15 24-13 21"/>
<path d="M3485 42042l 1-2 3-25-3 28-9 26-9 25-10 26-9 27-11 30-10 30-10 30-9 28-7 24-4 26-4 28"/>
<path d="M3606 42047l 2-2 21-12 25-2 26-4 25-3 27 0"/>
<path d="M3661 42070l-2 0-24 8-19 18-17 21-15 25-9 27 10 23 27-7 26-8 25-9 28-9 25-2 26-1 22 12-8 25-16 27-16 20-16 20-20 22-21 21-21 20-22 15-24 11-25 2-20-18 2-24"/>
<path d="M3839 42055l 0-1 23-12 25 3 22 8 24 11 1 26-15 26-15 20-15 20-16 23-16 24"/>
<path d="M3873 42379l-1-1"/>
<path d="M1820 40261l-1-1-16 18-16 27-19 26-15 22-15 25-19 28-16 24-18 23-19 25-19 26-19 24-19 30-20 30-20 30-21 35-21 31-20 31-20 31-20 31-20 29-19 27-15 27-13 26-13 26-12 28-14 27-14 29-16 28-14 31-16 29-16 32-18 33-20 32-19 33-18 32-16 31-16 25-14 28-14 24-14 23-11 23-15 30-12 25-11 24-10 26-11 22-14 20-14 24-15 22-17 21"/>
<path d="M716 41825l-1-1-13 28-10 25-10 28-10 31-8 25-10 28-9 25-9 24-8 27-3 25 5 24"/>
<path d="M875 41795l-2-2-23 10-15 21-13 25-11 21-10 23-8 24-6 26-5 30 1 32 10 25 16 18 24 12 26-3 26-10 17-18-2-25-10-23-15-22-21-16-26 2-17 17-3 25"/>
<path d="M1054 41919l-1-1-22-11-22 13-22 16-19 18 0 24 24 10 24 4 24 2 25 4 11 21-8 26-16 23-17 20-20 14-25 9-25-5-22-14-18-18"/>
<path d="M4940 40352l-1-1-22 9-11 26-13 27-13 25-10 22-10 24-11 28-11 27-12 29-9 28-10 31-11 32-13 34-7 24-9 24-8 26-9 24-9 23-9 23-11 25-15 33-11 25-10 24-9 26-10 24-12 34-9 24-13 32-11 25-9 24-11 22-9 23-9 23-10 25-8 24-9 22-11 33-13 30-12 31-12 30-11 29-11 31-12 26-12 27-11 28-12 25-10 25-9 25-12 30-10 23-9 22-9 28-9 29-7 29-7 24-9 27-7 23-10 27-9 22"/>
<path d="M4249 42106l 0-1-8 24-3 26-1 28-4 24-4 26-5 28-6 29-5 26-1 26"/>
<path d="M4345 42107l-1-2 21-13 25-5 27-6 26-8 25-8 11 22-8 23-11 27-13 29-10 24-9 26-10 25-7 24-9 24-10 28-6 26-4 26"/>
<path d="M4607 42057l-1-1 21-16 25-3 25-8 25 2 5 26-10 28-11 27-12 22-15 27-13 26-10 25-11 25-7 23-5 26"/>
<path d="M4632 42429l-2 1"/>
<path d="M5746 37426l 2-2-22 20-19 18-22 21-19 19-21 22-23 23-18 18-19 18-19 19-21 20-23 22-23 24-24 24-25 25-27 24-28 24-28 25-29 27-30 28-29 29-31 29-31 29-31 29-31 29-31 29-30 29-30 28-28 27-28 27-27 28-26 27-29 27-28 28-29 29-30 32-30 32-29 31-28 30-29 29-28 31-28 30-29 33-29 34-29 32-29 33-28 30-27 31-27 30-26 29-27 29-26 29-29 29-27 28-26 28-25 27-25 25-25 24-25 24-24 23-25 22-23 24-25 24-25 23-25 27-26 24-25 24-26 21-26 22-27 24-26 23-27 25-25 25-25 23-24 22-24 21-23 18-22 18-20 15-19 15-26 21-25 25-17 16-25 24-23 18-21 20-24 21-20 19-18 17-21 20-19 19-20 21-18 16-22 16"/>
<path d="M3020 39969l-2-1 25-9 27-2 24 1 7 24-14 22-19 19-18 17-21 16-22 11 19 17 24 11 25 4 22 10-6 24-15 21-15 20-23 18-21 14-24 11-24 3"/>
<path d="M3159 39948l-2 0 24-6 25-7 25-7"/>
<path d="M3209 39927l-2 2-18 15-10 22-7 25-6 26-5 24-3 25 21 15 23-6 26-10 26-8 24-1 23 13-8 24-14 22-13 21-20 17-23 14-25 10-24 3-24-2"/>
<path d="M5908 37404l-1 0-25 5-12 22-9 25-9 24-8 23-8 25-5 25 2 27 7 23 16 19 24 5 24 2 18-19 11-23 9-22-5-25-21-16-24-6-20 16"/>
<path d="M5901 37342l-1-2-19-15-26-7-27 1-22 12-20 15-18 20-14 21-14 21-14 25-11 30-9 30-7 29-1 31 5 31 9 25 15 22 19 22 19 20 22 18 25 14 26 7 28 6 28 6 30 0 28-8 26-11 24-12 22-18 17-21 12-26 3-26-2-29-5-31-9-31-6-26-9-26-10-25-13-24-12-23-17-25-16-22-20-15-28-6-26 0-24 6-25 7-22 8-24 10-23 15-15 22"/>
<path d="M7757 37467l 0-1-19 15-17 21-13 22-14 21-11 22-9 26 6 24 27 5 24-2 24-7 21-11 22-10 23-9 22-14 19-16"/>
<path d="M7809 37520l-1 0-20 17-4 26 0 27 1 25-3 24 0 24"/>
<path d="M7897 37490l 0-2 22-14 25-1 24 6 4 25-11 22-11 22-11 25-9 26-9 24-5 24-2 24"/>
<path d="M7948 37385l-2-1-25-8-26-3-24 1-28 1-25 1-27 1-27 4-28 9-28 9-22 10-22 14-24 17-21 20-22 25-17 30-14 28-10 30-4 27 1 28 6 25 10 23 13 23 18 22 22 18 25 16 27 16 28 18 29 11 30 9 32 7 30 5 29 0 27 0 27-5 24-6 23-11 24-11 23-15 23-19 21-22 18-22 17-24 12-23 8-23 4-29-6-30-10-29-13-22-15-19-17-19-20-18-22-16-24-13-23-11-25-7-25-4-26-2-24 1-31 2-26 2-28 7-22 13"/>
<path d="M4194 40285l-1 0-19 17-13 21-14 23-15 23-13 22-8 24 13 21 25-3 23-12 25-7 23-10 22-13 21-17"/>
<path d="M4222 40321l 0 0-8 24-3 26 1 27 2 27 5 26"/>
<path d="M4382 40285l-1-2-22-9-23 11-15 23-10 22 8 25 24 12 25 9 25 6 24 10 7 25-15 19-20 16-24 8-25-6-12-21 4-27 13-22 18-22 20-20 19-18"/>
<path d="M4428 40144l-2-3-18-17-23-14-25-4-26 2-27 3-28 9-24 11-25 11-26 12-25 14-27 15-25 18-26 22-24 27-15 20-14 21-14 20-17 31-12 30-9 29-7 29-2 32 3 27 6 25 10 23 15 24 18 23 22 18 26 15 31 9 31 7 32 4 32 1 33-4 34-5 25-6 23-6 24-8 23-11 24-10 24-12 22-14 22-12 19-14 18-16 19-16 22-26 20-25 13-24 10-23 6-25 0-25-4-26-7-25-11-28-12-26-19-29-22-24-18-18-25-17-27-16-27-13-27-10-25-3-25-1-28 5-25 8-22 15-16 18"/>
<path d="M3189 42718l 0 0-15 22-15 20-14 21-12 22-11 23-11 22-6 25 5 24 24 7 28-2 28-3 24-9 24-6 23-8"/>
<path d="M3211 42804l-1-1-16 18-4 27-7 26-3 27-1 26 1 26 8 24"/>
<path d="M3394 42801l 0-2 1-25-9-23-22-12-25 9-18 16-18 22-14 25-12 21 8 26 21 11 27-6 22-14 20-17-7 25-4 27-3 26-3 25 0 27 5 25 15 19"/>
<path d="M3398 42640l-2-3-18-19-20-14-23-12-28-3-29 3-31 7-25 11-25 13-27 15-25 17-25 20-22 23-21 25-18 25-16 30-11 22-8 25-8 23-6 33-3 29-1 31 7 31 11 29 13 23 18 19 21 17 24 16 26 11 30 7 30 5 30 1 33-5 33-6 30-6 28-11 31-14 31-18 26-21 25-22 23-24 23-25 19-28 13-29 7-28 3-28-1-28-6-25-12-29-13-27-17-28-20-25-23-22-25-18-27-12-31-8-26-3-25 1-26 9-21 15"/>
<path d="M4457 42709l 1 0 21-13 24-9 27-11 23-6 28-6 26-3"/>
<path d="M4511 42693l-2 1-23 9-18 19-10 23-10 25-3 25 17 18 24-5 24-8 24-9 23-8 28-7 24-6 24-3-2 27-15 20-19 21-20 19-22 19-24 18-22 14-27 11-24 9"/>
<path d="M4670 42734l-2-1-23 12-15 21-7 26-1 24 4 26 12 22 17 18 23 16 27 6 25-6 24-13 20-17 15-23 9-25-3-25-14-21-22-19-23-13-27-7-25-4-28-7-26 1"/>
<path d="M4650 42592l-2-2-25-12-26-3-30 2-28 6-24 7-26 9-30 12-29 13-28 15-25 15-22 16-17 20-14 22-13 28-8 31-5 33-2 24 1 25 2 26 6 24 9 32 16 28 19 28 23 23 28 19 30 14 32 9 34 8 36 7 25 1 25 1 27 0 26-1 26-3 26-4 24-4 25-7 35-11 24-8 22-11 23-10 23-12 20-13 28-21 22-20 18-23 11-21 8-28-2-30-6-26-11-29-15-29-20-28-16-21-17-22-19-17-19-20-18-17-26-21-28-14-25-9-25-7-25 0-23 8-30 8-25 9-22 13-21 19-14 22"/>
<path d="M6445 40406l-1 0 24-7 24-10 23-13 20-15"/>
<path d="M6474 40377l-2 1-16 21-6 26-3 26 3 24 8 23 24-2 21-15 23-17 23-8 24-2 22 13 3 24-7 25-11 23-14 24-14 20-20 19-22 15"/>
<path d="M6655 40364l-1 0 19-19 27-9 25-8 23 7-5 27-11 23-13 22 24-4 26-3 25 2 3 27-16 21-17 19-15 19-18 19-21 19-22 18-25 9"/>
<path d="M6626 40184l-3-2-20-13-27-10-24-6-26-2-26 3-25 13-26 19-21 18-20 30-14 25-13 25-12 26-10 29-9 28-6 29-4 29-2 26 1 28 2 27 6 25 6 23 16 31 19 22 23 20 27 16 31 10 35 10 25 1 27-1 27 0 26-2 27-2 26-2 26-6 27-10 26-9 26-12 26-13 24-14 23-17 22-16 19-17 18-18 20-29 15-31 9-30 6-32-1-31-5-31-13-32-11-23-14-23-16-22-17-21-26-20-28-15-30-12-29-6-31-2-31 1-31 2-27 5-31 4-24 2-25 0"/>
</svg>
