<svg xmlns="http://www.w3.org/2000/svg" viewBox="4188 2011 5939 4000" stroke="black" stroke-width="16" stroke-linecap="round" stroke-linejoin="round" fill="none" data-xena="0 0 0"><style>@media(prefers-color-scheme:dark){svg{background-color:black;stroke:white;}}</style>
<path d="M6111 2232l-1-1-26 10-18 18-20 20-21 20-25 24-20 20-24 23-26 27-30 31-33 35-18 19-20 21-20 22-21 22-23 21-24 25-25 25-27 25-26 26-28 27-28 27-29 27-30 27-29 27-31 27-28 27-30 27-29 27-28 27-28 26-29 28-27 25-28 27-28 26-27 26-27 26-28 26-28 26-28 25-26 27-28 25-27 25-28 25-27 25-28 26-28 27-27 26-28 27-28 27-29 27-27 27-28 28-28 26-28 25-26 26-27 24-26 24-26 23-25 23-25 21-23 21-22 19-23 18-20 18-19 17-34 28-29 25-24 20-20 17-20 16 11-25"/>
<path d="M6166 2303l-1-1 18 20 22 17 21 20 18 18 22 21 26 25 19 19 21 19 20 21 22 21 24 21 26 23 28 23 30 26 32 27 31 29 35 30 36 32 17 17 20 17 19 16 20 18 21 19 21 17 21 18 21 18 22 18 22 19 22 19 22 19 23 18 23 19 22 20 24 20 23 20 24 19 23 21 23 22 24 21 24 21 23 23 24 22 23 22 25 22 24 23 24 23 23 23 24 23 23 24 24 23 24 25 22 24 24 23 22 22 23 23 24 22 22 22 23 22 22 21 23 21 22 20 22 20 23 20 22 20 22 18 22 19 22 18 21 16 21 19 20 16 20 15 19 16 22 14 19 15 37 28 37 27 34 24 29 23 28 20 25 18 22 16 28 19 21 15 21 12-27-7-25-2"/>
<path d="M8154 4132l 0-1-23 15-16 23-14 23-16 28-13 23-14 23-17 27-19 31-21 33-24 36-26 40-16 20-15 21-15 22-16 23-17 23-16 24-18 25-17 25-19 26-18 26-19 28-20 27-20 28-22 29-22 30-22 31-22 31-22 31-24 33-24 31-24 34-25 34-26 34-26 35-27 34-27 35-27 35-26 36-26 35-26 36-25 36-23 34-23 35-22 33-20 32-20 30-17 28-17 27-15 25-14 26-12 24-11 21-19 41-15 37-13 32-12 29-10 26-8 23-8 27-6 23 12-22 14-31"/>
<path d="M8269 4168l 0-1 27 0 29 12 21 11 25 14 28 20 19 16 20 18 20 21 22 22 22 25 22 28 22 28 24 31 24 32 24 33 25 32 25 35 27 34 29 34 30 33 32 32 33 32 18 17 18 17 18 17 19 17 19 16 19 18 20 18 20 17 19 17 19 18 20 19 20 18 19 19 19 18 20 17 19 19 19 19 19 18 19 19 18 19 19 19 18 18 17 18 19 18 17 18 17 17 19 17 17 17 17 17 19 17 17 16 18 18 34 32 33 31 32 30 32 28 31 28 31 24 29 22 28 21 28 17 27 17 24 16 23 15 30 18 27 17 22 13 23 15"/>
<path d="M7291 5869l 0-2 6-24 8-26 8-25 11-28 10-25 12-25 11-25 13-24 16-26 16-29 14-25 15-27 14-28 14-26 15-28 15-28 15-30 13-30 14-31 14-31 13-30 12-28 12-28 12-24 11-23 12-22 13-22 13-22 14-24 15-25 16-27 17-27 15-28 17-26 18-28 19-27 18-25 17-25 17-23 19-23 18-20 17-21 18-20 18-21 17-16 21-22 20-20 21-20 18-18 21-19 20-16 21-13 24-12 24-7 27-2 26-1 25 5 24 10 21 14 21 16 23 12 23 13 24 12 25 13 23 12 25 13 24 15 24 15 21 13 22 19 21 19 22 19 20 15 21 15 23 16 22 17 24 18 19 17 20 14 20 15 24 19 18 18 24 21 22 21 24 21 17 16 18 18 19 17 18 19 18 21 17 21 18 23 17 22 17 24 17 22 18 23 16 24 16 22 17 20 17 20 18 22 16 22 19 19 17 19 16 19 17 18 25 19 22 17 21 17 22 15 22 13 22 15 25 19 22 16 25 19 22 18 24 13 22 12 24 15 23 9 23 10 21 16 19 16 18 15 19 16"/>
<path d="M6334 2116l-1-1 25-1 24 13 19 16 23 18 23 17 18 16 19 17 21 18 24 18 23 17 25 17 27 19 21 15 23 16 23 18 24 19 24 20 25 21 23 24 24 27 23 26 16 19 24 25 19 17 19 17 22 18 23 17 23 16 24 15 23 15 25 16 25 16 25 16 26 16 27 16 27 16 26 17 26 18 27 19 26 20 27 21 25 20 26 20 27 21 26 20 27 22 25 21 26 23 25 23 27 24 26 23 28 21 27 22 28 21 29 21 27 22 27 21 28 20 27 21 28 21 28 22 27 23 29 23 28 24 28 24 28 23 28 25 26 27 26 25 27 26 25 25 26 25 25 27 25 24 25 24 27 25 25 22 25 24 26 24 26 23 26 24 26 23 27 23 25 23 23 22 23 22 24 23 23 24 22 23 23 24 23 22 23 22 23 22 24 21 24 22 24 22 25 22 23 23 24 21 23 22 23 22 24 19 23 21 23 22 22 21 21 21 20 21 19 20 21 20 20 22 20 22 20 21 18 21 18 20 18 19 18 18 19 18 19 17 18 19 18 18 18 19 18 17 18 19 17 18 18 18 19 19 18 19 19 16 18 18 18 17 17 17 18 16 25 26 23 26 24 25 23 23 23 22 23 21 22 19 24 20 23 18 26 18 24 16 22 14 21 14 20 15 21 13 26 17 24 18 19 15 23 18 21 22 21 22 21 18 18 19 17 20 19 20 19 17 18 16"/>
<path d="M4550 4004l-1-1 18-19 18-19 17-23 16-22 18-23 19-23 19-21 21-19 19-21 17-19 18-19 18-20 22-21 22-25 25-25 17-18 17-17 17-20 18-17 18-18 19-16 20-17 20-16 19-17 19-16 19-16 20-17 20-17 22-18 22-21 24-20 25-21 25-21 25-21 27-22 27-21 26-21 27-19 26-19 26-18 27-18 27-18 28-17 27-18 28-18 26-15 25-16 25-15 24-15 24-15 23-14 23-15 21-14 29-21 27-20 27-19 26-19 23-18 23-16 19-15 20-13 22-13 22-14 22-14 22-13 22-11 26-13 24-11 23-10 26-7 24-7 24-1 24 3 27 9 22 10 25 11 23 10 22 13 25 11 23 13 23 13 23 12 25 14 23 15 23 14 22 15 20 17 23 20 23 18 21 19 20 22 20 19 20 21 20 22 21 22 18 24 20 24 16 19 20 24 19 18 19 22 20 25 20 24 19 23 19 21 19 20 19 22 19 21 18 19 17 19 14 22 16 18 19 22 18 24 19 23 16 17 17 19 20 21 16 19 17 19 19 20 20 22 19 18 19 16 19 15 22 18 21 18 18 15 18 17 17 18 17 18 20 21 20 20 23 17 18 16 20 20 17 19 16 22 19 18 14 21 16 19 16 18 17 18 17 20 18 17 19 16 17 18"/>
<path d="M6133 3063l 0-1 23-9 22 10 21 14 20 19 15 19 17 22 18 27 14 20 20 26 16 18 18 18 22 21 19 16 23 22 20 16 20 16 22 16 23 18 22 18 23 21 24 20 23 21 23 19 24 20 23 19 24 19 21 17 23 16 22 16 22 15 21 15 22 15 20 14 20 16 23 21 22 22 21 21 18 17 18 18 18 19 17 22 16 22 16 19 19 24 17 22 17 22 17 19 19 18 19 17 21 21 18 21 18 23 19 22 17 18 20 21 17 18 17 18 16 22 12 24 12 25 11 23 12 24 11 23 12 23 12 22 9 25 6 24 7 26 6 26 4 27 7 28 6 26 5 25 7 25 5 25 1 25-4 27-5 28-6 23-8 25-9 25-11 27-11 24-11 25-12 23-13 24-14 30-9 23-12 22-11 22-12 23-12 22-11 22-14 30-14 28-13 23-17 28-15 25-17 26-15 21-18 25-18 25-17 25-18 22-15 20-14 22-13 22-12 23-13 22-16 25-15 24-15 23-12 22-13 22-13 22-15 22-14 24-12 24-13 24-12 21-11 24-12 21-12 25-13 25-13 21-13 21-12 22"/>
</svg>
