<svg xmlns="http://www.w3.org/2000/svg" viewBox="1178 2386 14995 19782" stroke="black" stroke-width="16" stroke-linecap="round" stroke-linejoin="round" fill="none" data-xena="0 -3 0"><style>@media(prefers-color-scheme:dark){svg{background-color:black;stroke:white;}}</style>
<path d="M1369 3267l-4 0-21 15-17 19-13 21-10 23-9 29-6 26-6 31-3 32 0 31 6 30 7 26 12 21 17 18 25 18 22 11 24 6 26 4 26 0 25-3 25-4 24-9 25-12 22-15 21-17 18-20 13-22 8-26 1-25 0-28-7-30-11-29-16-29-19-28-19-27-19-24-19-21-18-15-25-15-27-5-26 4-23 11-19 16"/>
<path d="M1987 3252l-1-1-2 26-2 30 0 27-3 28-4 32-5 33-4 33-3 33-3 31-3 26-4 31-5 23 2 25"/>
<path d="M2596 3208l-1-1 23-15 25-5 24-4 30-1 27 4 27 8 21 12 16 20 4 27-13 24-13 21-16 25-22 26-23 25-17 17-18 18-17 18-21 19-18 16-20 16-18 16-24 21-23 19-19 20-11 22 21 16 27-1 29-7 31-10 22-9 31-10 28-8 26-7 24-5 24-2 29 0"/>
<path d="M3439 3140l 2-2 21-12 24-6 24-2 29 0 27 2 27 3 27 9 23 16 10 24-13 26-19 18-19 15-24 14-27 12-26 10-26 10-29 11-26 8 25-4 26-4 29-3 32-1 26 2 29 2 28 4 25 8 21 13 15 25 2 28-7 25-13 29-14 23-16 23-20 21-20 17-22 13-29 15-24 7-30 5-27-1-26-5-23-12-18-18-6-23 5-24"/>
<path d="M4374 3057l-1-2-10 25-9 25-13 23-15 27-15 21-14 21-14 21-17 25-12 24-11 22-1 26 24 8 28 2 28-1 31-3 23-5 32-6 30-11 24-9 22-10 29-10 27-11 23-11"/>
<path d="M4421 3180l 0-1 5 28 3 27 2 29 0 31-2 24-3 29-2 28-5 28 0 25"/>
<path d="M5031 3044l-1-1 28 3 28-4 26-4 25-6 26-8 25-8"/>
<path d="M5020 3074l-2 0-21 14-14 24-12 26-6 27 3 26 16 19 25 8 28-2 27-3 28-2 29-1 28-3 27 0 26 0 29 3 27 8 20 17 6 25-8 22-14 25-16 21-19 20-21 20-21 18-20 17-22 14-25 14-26 7-28 1-27-5-24-12-14-21 4-26"/>
<path d="M5902 2966l-1 0-19 20-16 23-13 24-12 26-13 28-10 31-9 33-10 32-5 31-4 31-2 27 4 25 12 26 16 20 22 15 27 7 30 1 26-5 27-6 25-10 28-12 23-17 4-25-17-19-25-16-24-8-25-4-25-2-25 0-31 2-29 4-24 7"/>
<path d="M6658 3005l-1-2-25-3-19 16-17 22-14 25-12 27-9 29-5 24-3 24 1 29 6 26 10 22 19 23 21 14 25 10 26 4 29 0 30-6 24-8 23-13 22-17 20-17 17-18 16-26 8-28 1-26-7-26-13-26-18-22-22-18-25-13-28-9-29-6-29-3-26 0-25 2"/>
<path d="M7482 2998l 0-1-1 28-4 29-4 28-5 30-5 31-4 28-6 28-4 29-5 29-4 27-3 26"/>
<path d="M8165 2999l 0-1 22-14 28-9 29-5 29-2 25 4 25 14 18 18 11 25-4 25-15 22-20 21-19 18-22 18-24 18-24 17-24 15-22 14-21 14-24 17-19 15-15 20 7 24 25 6 26 1 30-3 26-3 29-5 29-5 29-5 29-6 29-7 29-6 24-3"/>
<path d="M8840 2899l 0-2 25-9 29-3 28-1 29 1 28 2 26 3 27 8 17 17-4 26-19 18-22 13-26 15-22 10-22 11-24 8-29 8-24 8 25 6 26 2 24 9 25 10 28 9 25 9 23 8 27 10 22 10 19 17-10 28-19 18-19 15-21 14-23 14-24 14-25 12-25 10-25 7-25 6-25 5-30 1-26-3-19-18"/>
<path d="M9748 2885l-1-2 5-24 19-14-2 26-11 22-17 22-16 19-17 19-17 19-15 20-17 23-15 21-9 22 6 26 21 15 28 6 29-1 31-5 24-7 26-6 25-7 26-6 23-6 28-8 23-10"/>
<path d="M9852 2964l-1-1-10 23-6 25-8 29-5 24-4 25-5 25-2 25-1 24"/>
<path d="M10379 2833l 1-1 24-9 27-5 26-7 27-7 28-7 28-6 25-4"/>
<path d="M10447 2836l-2 1-23 9-22 17-19 21-14 21-9 23 0 25 15 20 26 6 25-1 31-6 25-5 24-4 30-2 27 0 28 1 25 4 22 10 20 15 0 27-19 22-21 17-26 19-23 15-25 15-26 11-24 8-24 6-27 5-25 0-27-6-20-15"/>
<path d="M11234 2731l-1 0-23 11-18 17-22 24-18 24-18 25-20 29-18 31-10 22-11 32-8 28-2 25 2 29 10 24 18 21 24 17 28 15 29 9 29 4 27-2 25-9 19-17-4-25-20-22-24-20-21-13-24-9-23-6-30-8-26-2-24 2"/>
<path d="M11922 2794l-2 0-24 2-23 9-21 14-20 17-17 19-19 25-13 21-12 23-10 31-4 28 4 25 11 22 20 18 29 13 25 8 28 4 31-1 31-4 28-6 28-7 23-9 26-15 20-18 12-24 2-29-6-29-11-29-13-26-18-23-19-17-19-15-22-16-23-12"/>
<path d="M12587 2774l 0 0-1 27-8 29-8 26-9 29-8 27-9 26-9 28-8 27-7 23-8 24"/>
<path d="M13024 2779l 2-1 23-7 27-3 28-1 25-1 27 1 26 4 26 6 27 10 19 18-6 27-20 17-25 19-22 16-24 14-26 16-24 15-24 15-23 13-21 13-20 17-18 18-4 25 28 7 25 0 28-2 30-4 24-2 25-2 26-4 27-4 28-4"/>
<path d="M13644 2724l 1-3 20-14 24-3 25-3 28-2 28 1 25 1 27 8 23 13 1 26-23 17-24 10-29 10-25 6-26 6-31 6-27 6-23 5 23 15 29 6 26 3 26 4 28 7 29 9 24 8 23 11 20 17 12 23 1 27-15 20-23 16-30 14-27 9-29 7-30 6-29 3-27 2-25 1-24-1-28-4-26-10-16-22"/>
<path d="M14393 2679l 2-1-6 25-16 19-17 22-16 22-13 21-4 26 13 22 22 14 28 7 27 3 30 0 30-4 30-3 25-3 24-3 27-6 31-5 27-5"/>
<path d="M14574 2747l 0-1-17 24-9 24-8 23-9 23-7 25-8 26-7 27"/>
<path d="M1744 3770l 0-2 11-22 16-25 15-20 17-24 21-28 16-21 18-22 18-24 19-24 21-27 20-26 21-28 20-29 21-28 21-28 20-26 20-27 21-25 19-27 18-26 17-24 16-24 13-20 19-27 13-22 13-24"/>
<path d="M3349 3595l-2-1-14-21 18-20 18-19 22-24 18-19 20-21 21-23 23-24 25-26 24-28 28-28 28-29 29-29 30-30 28-30 27-31 28-31 25-30 25-28 23-28 19-27 19-24 16-21 21-25 16-22"/>
<path d="M4917 3507l 0-1 11-24 17-23 20-27 20-24 23-28 16-19 16-21 18-22 19-23 19-24 20-26 21-27 22-28 22-31 25-31 22-31 22-30 21-30 21-27 19-26 18-26 17-23 15-22 20-26 16-18 15-19"/>
<path d="M6465 3483l 0 0 15-19 15-19 15-21 16-22 15-24 16-24 14-20 14-22 18-24 20-28 21-30 15-22 14-20 16-22 14-20 14-20 15-20 21-27 20-24 18-21 17-20 20-23 16-20 18-20 16-21"/>
<path d="M7365 2984l 0-2 20-13 27-6 26-4 28-5 29-5 26-4 24-2 28-1 24 5-15 22-20 15-21 14-23 14-25 14-25 13-26 12-26 13-27 12-26 13-21 10-25 11 28 2 31-7 27-7 28-7 28-7 25-8 24-7 27-6 24-6-18 21-27 13-22 10-22 12-22 10-27 12-23 12-22 12 22 11 30-3 23-7 28-10 26-8-10 22-20 15-21 16-19 14-24 14-22 13-23 15-16 19 23 7 25-3 25-1-1 25-16 22-10 22"/>
<path d="M8968 2890l 1-2 19-18 21-12 24-12 24-12 25-10-20 15-21 12-27 13-29 15-31 16-22 9-22 12-22 10-23 8-33 12-29 10-26 9-26 9 32 0 33-5 26-6 29-5 30-6 31-6 29-6 28-6 27-5 25-6 35-6 31-5 26-3 27-2-6 26-26 13-31 15-24 11-24 11-25 12-26 12-25 11-26 11-27 11-28 11-27 11-27 11-25 9-30 12-23 9 26 8 31-6 24-5 26-8 26-7 25-6 24-6 34-9 29-6 26-6 28-4 24-2-27 14-23 11-28 14-32 14-22 11-22 9-23 10-24 10-22 9-23 9-23 9-30 12-25 9 30 11 34-7 26-6 27-6 25-6 25-5 31-8 27-6 28-7 26-5-25 9-23 9-24 8-25 9-24 10-26 13-25 15-21 14-3 25 17 19"/>
<path d="M10395 2805l 0 0 24-11 24-8 29-6 25-5 28-4 27-3 26-3-19 20-27 11-25 11-26 13-27 12-28 12-27 11-27 11-22 10-22 12 3 25 26 1 31-3 25-5 24-5 31-4 30-5 27-4 26-3 25-1-18 22-29 16-29 15-23 10-24 9-25 10-25 12-25 10-25 11-24 10-31 13-23 11-22 15 26 11 24-5 31-7 31-9 32-10 28-8 28-7 25-8 30-6 26-2 22 8-18 18-22 13-27 17-24 13-26 14-28 14-30 13-27 13-24 14 17 21 29-1 29-6 30-9 30-9 30-8 26-7 24-6 25-5 24-4-23 16-23 14-24 14-24 15-25 14-22 17-15 19 4 24"/>
<path d="M9567 3295l 0-2 7-25 12-25 15-19 19-23 18-20 21-22 24-24 17-18 18-18 19-20 20-20 20-22 20-23 21-24 22-24 22-27 20-26 21-24 17-24 15-20 14-20 19-25 16-21 15-23 14-21 9-23"/>
<path d="M11834 2785l 0 0-24 0"/>
<path d="M11804 2794l-2-2-21-11 25 6 29 2 31 1 27-1 30-3 29-4 26-2 30-3 25-1 28 0 22 8-26 11-30 10-28 10-33 11-25 8-27 8-29 9-29 7-31 8-28 8-29 7-28 7-26 7-25 5-27 8-22 15 12 24 31 5 36 0 28-1 32-2 31-4 31-1 30-3 29-2 28-3 28-3 25-2 26-1 33-1 30 1 27 1 24 7-22 13-31 11-31 10-23 7-25 8-26 8-26 7-27 7-27 7-28 7-28 7-25 6-32 9-25 8 13 23 27-2 33-4 25-3 25-5 34-7 34-8 32-6 28-7 27-5 27-7 24-5-24 13-27 12-25 11-25 13-26 13-26 13-27 14-23 15-22 18-7 25"/>
<path d="M12514 2799l 2-1 24-6 30-6 30-5 28-5 24-7 25-4 24-1-26 11-29 9-27 9-33 12-34 11-24 8-25 9-27 8-26 9-23 7-32 11-26 11 11 21 33 3 31 0 34-1 34-2 30-3 29-3 27 0 27 0-18 22-23 8-25 9-25 9-25 9-23 9-25 10-15 20 22 12 25-1 24-1 26-4 25-5 22-9-6 25-22 13-21 12-25 12-26 10-23 11-24 12-5 23 24 0"/>
<path d="M13687 2693l 1-2 5-25 19-15 27-8 24-3 26 0 24 3 24 8 12 22-19 18-22 13-23 11-28 12-31 11-23 9-32 12-33 11-31 9-25 6-25 10 19 17 25 0 34-4 26-4 29-5 31-5 33-6 31-5 30-4 27-4 24-4 29-5 25-3 25-2-29 12-30 8-23 7-24 8-23 7-26 7-27 6-27 7-26 6-25 6-32 8-27 6-24 9 25 14 28-1 36-3 27-3 29-5 28-4 29-5 25-5 35-6 31-5 25-3 25-2-25 17-29 10-31 12-22 9-23 9-25 10-24 10-25 9-24 9-33 11-27 10-22 11-3 24 27 7 27 1 31-2 29-2 28-2 24-3 25 1-8 25-15 22-18 17"/>
<path d="M11810 2866l 1-2 19-15 24-9 25-7 26-6 25-5-20 15-23 9-28 11-28 11-26 11-25 11-25 10-23 10 21 13 27 4 31 3 31 0 26 0 28 3 25 2-18 17-24 9-23 11-16 20 17 22"/>
<path d="M12783 3193l 0-2 10-23 18-16 22-20 22-19 27-21 21-15 22-17 22-18 25-20 26-21 29-24 28-26 29-28 31-30 32-30 32-31 31-29 30-28 29-27 25-23 24-22 21-20 19-18 23-24 17-19 17-19 16-20"/>
<path d="M14483 2669l 5-2 25-9 27-6 23-7 27-5 26 0-17 21-25 7-24 7-29 7-33 7-25 5-26 5-26 4-27 5-27 4-25 3-27 2-24 2-35 2-27 1-25 2 25 3 39-3 33-1 37-2 41-4 41-2 43-3 41-1 41-2 39-1 36-1 33-1 27-1 24 0 32 1 24 2 25 3-27 10-29 8-25 5-27 6-28 6-30 6-31 7-34 6-34 7-36 5-37 6-36 6-34 4-31 5-26 3-28 4 26 14 24 1 28 0 31-3 32-3 33-2 32-3 31-2 32-2 30-3 28-2 25-1 33-3 33-1-25 16-32 7-27 6-29 5-31 6-30 6-31 6-35 8-32 5-32 4-30 4-24 4-28 5 18 21 33 3 28 0 29-1 31-3 30-2 27-3 27-4 35-3 30-3 24-1 24 0-23 8-26 6-29 8-29 8-29 7-25 7-23 8-22 12 2 24 23 11 25 7"/>
<path d="M1876 4060l-2 0-21 12-15 22-9 24-5 25 3 26 13 21 18 19 23 14 25 7 28 1 26-6 23-13 23-18 16-23 9-27 0-26-5-24-13-22-21-22-24-14-28-9-28-6-25-6-25 2"/>
<path d="M3532 3830l 0-1-8 27-5 27-3 25-5 26-4 27-5 27-3 25 0 27 1 25"/>
<path d="M4999 3818l 0-2 23-6 29 3 27 3 24 7 20 13-2 27-12 24-17 20-22 20-24 19-26 17-26 16-25 15-22 15 11 23 29 4 29 1 30 0 24-1 26-4 28-4"/>
<path d="M6411 3751l 0-2 22-12 25-5 25-4 26 0 26 3 23 11-9 26-20 16-22 12-22 11-27 11 27 9 29-1 29 3 28 4 23 6 22 10 19 16-1 27-12 22-16 19-20 19-25 18-27 16-28 13-29 10-30 8-27 2-23-5-18-18-1-28"/>
<path d="M9595 3553l-1-1-20 14-19 20-18 18-18 19-19 22-15 19-13 25 2 24 26 10 25-1 25-5 27-3 28-5 26-8 25-6"/>
<path d="M9585 3667l-1 0-5 27 2 25 3 27 5 29 5 24"/>
<path d="M12882 3378l 0 0 27-3 28-2 28-6 25-6 28-6 25-6 26-5 27-6"/>
<path d="M12955 3376l-2 1-20 13-20 16-17 19-13 21-6 25 16 19 24 0 27 0 25-1 28-2 29-1 31 1 30 2 26 3 28 5 24 6 23 12 9 25-10 22-20 17-24 14-24 9-28 8-26 5-29 0-26-6-22-15"/>
<path d="M15052 2634l 1-2 17-16 23-9 26-9 29-5 24-6 29-5 25-5"/>
<path d="M15112 2632l-2-1-24 3-21 15-16 18-14 21-8 24 13 22 25 6 29-5 30-5 28-4 27-5 26-2 24-1 25 0 25 1 22 9 6 25-12 24-16 20-20 21-19 16-22 13-22 11-23 9-28 7-25 3-27-3-17-17"/>
<path d="M15823 2546l-2 0-21 15-15 21-14 22-13 22-16 28-12 31-9 33-6 30 0 29 6 29 8 25 13 21 17 21 19 19 24 14 28 3 29-6 22-9 19-18 10-25-2-26-10-25-18-16-25-9-27 0-26 5-26 11-27 8"/>
<path d="M14999 2655l 5-4 28-16 22-13 23-12 25-14 25-14 25-13 25-12 23-12 23-11 27-16 24-12 23-10 25-7-12 24-24 21-25 16-20 13-22 14-23 14-24 16-27 15-27 15-28 13-27 15-27 13-25 13-22 11-29 14-25 15 21 11 29-5 25-7 28-8 29-10 32-12 31-10 30-10 30-10 26-9 25-8 32-9 27-9 25-7-20 22-26 15-31 17-21 13-23 13-22 13-22 14-22 13-21 13-22 12-29 18-23 14-19 15 21 18 30-2 32-9 33-14 22-10 29-13 29-12 24-9 25-10-19 19-25 17-20 14-26 18-19 14-24 16-20 15-19 18 10 23 30-4 23-7 25-11 25-12 22-12 25-13 23-13-26-3-22 15-22 15-19 15-19 20-7 25"/>
<path d="M15562 3059l 0-1 12-24 21-20 25-23 18-18 22-21 23-23 26-24 26-24 28-26 27-25 28-30 29-30 29-30 28-30 27-29 24-27 23-24 21-19 17-19 20-20 20-20 15-20"/>
<path d="M15840 3176l-1 0-20 15-18 22-16 24-15 28-13 24-12 26-10 27-5 26-4 30 6 23 14 24 19 20 20 12 25 3 24-6 24-10 16-20 12-23-5-25-16-22-20-18-24-7-23 6"/>
<path d="M1935 5697l 0 0-7 27-7 24-9 29-9 24-8 26-8 27-7 26-6 29-6 28-4 26-6 29-3 27 0 26 7 25"/>
<path d="M2153 5657l 0-1 20-15 25-10 30-9 25-6 24-4 24-4 27-4 29-4 27 0 27 5 24 11 13 21-6 23-14 20-22 23-20 18-25 16-23 15-21 14-22 13-26 14-25 10 27-6 27-7 30-6 29-2 27 0 26 4 24 7 22 11 21 14 19 19 12 21 3 24-8 28-17 25-19 21-21 20-21 18-23 14-23 9-29 9-33 4-29 1-25-2-27-9-19-18"/>
<path d="M2888 5579l 0 0 25-5 27-3 25-4 24-4 31-5 27-4"/>
<path d="M2894 5606l-1 1-18 18-15 23-13 22-9 25-7 25-1 27 9 24 25 9 26-5 29-3 25-5 25-3 26-3 25 0 25 3 28 1 24 5 22 15 8 25-8 27-14 26-16 22-15 22-18 22-20 20-20 17-21 14-21 13-25 11-29 8-25 3-25-4-27-10-19-19 9-23"/>
<path d="M3457 5611l-3 1-25 12-17 20-19 26-9 23-8 24-4 25-1 26 2 25 7 24 11 21 20 24 16 18 21 15 21 14 24 10 26 12 26 5 26 0 26-7 22-13 20-16 19-19 18-21 13-22 8-23 2-31-3-26-6-29-10-25-14-23-18-22-21-18-25-18-26-10-27-4-26 1-26 9-25 17-18 20"/>
<path d="M4150 5458l-1 1-24 7-17 21-16 24-7 24-11 27-13 26-12 28-10 27-11 23-8 25 1 25 9 22 25 12 24 1 29 0 31-3 26-2 25-5 27-6 26-8 26-7 23-7 25-7 28-6 26-7 24-9"/>
<path d="M4270 5600l 0 0-16 21-7 28-3 27-1 29 0 29-2 28-3 28-4 26-2 27"/>
<path d="M4851 5501l-2-2 14-20 29-3 29 0 25 0 24 3 23 5 25 7 22 9 22 17 15 20 6 27-6 24-11 22-20 26-19 21-25 23-27 22-20 16-21 15-24 15-24 15-25 14-25 13-23 13-28 17-21 15-21 14-19 16 25 7 29-2 26-3 27-4 28-2 28 0 28 1 27 2 28 3 26 4 25 6"/>
<path d="M5553 5332l-1-1-22 11-19 20-16 23-19 27-21 30-13 23-12 22-13 24-10 22-10 22-11 33-7 33-1 29 8 26 10 23 16 19 16 19 20 15 29 16 24 9 25 3 25 3 30-1 28-5 22-11 19-19 8-27-4-25-17-23-20-16-26-10-27-3-26 2-28 8-27 11-25 16-19 15"/>
<path d="M2076 6760l-1-2 3 29-4 27-6 32-9 27-10 32-11 32-11 33-13 32-14 32-13 30-11 29-8 24-12 22-16 23"/>
<path d="M2496 7033l 0-2 11-21 20 15 1 27-2 27-6 24-10 25-10 22-14 22-13 21 13-22 18-27 15-25 18-27 15-23 17-21 19-22 17-18 20-18 23-11 15 21-1 25-7 25-11 25-13 25-12 22-12 25 20-14 14-24 18-26 14-20 21-22 15-21 16-19 19-15 24-6 5 25-4 24-12 22-8 23-6 26-6 25-2 25"/>
<path d="M2896 7038l-2 1-22 14-17 24-15 21-5 26 14 19 27 5 25-5 25-13 17-18 15-21 2-26-12-24-23-17-25-7-26 4"/>
<path d="M3110 6970l-2-2-24-7-24 4-23 11-24 17-16 20-15 21-11 21-4 25 13 22 22 10 25-5 22-13 20-16 21-19 22-24 15-20 16-22 13-25 13-28 9-29 8-31 2-30 4-28 4-30 1-30 0-30 1-30 1-25-18 18-6 24-10 27-5 29 0 29-5 32-6 36-5 34-2 35-2 31 0 28 4 28 5 25 10 25 18 19"/>
<path d="M3810 6736l-1 0 18-21 22-11 28-7 27 1 26 4 26 4 24 6 26 8 24 14 16 20 3 25-7 30-17 28-20 23-24 26-17 17-19 18-25 26-21 14-21 16-24 13-21 13-22 12-30 16-27 13-24 11-28 10-22 13 28 4 26 2 29-4 30-3 29-2 31 0 29 3 27 2 27 2 29 5 25 6 21 14 9 23"/>
<path d="M2060 7613l-2 0-27 5-23 15-21 20-19 23-13 20-14 26-13 28-9 30-4 27-2 26 5 30 9 23 16 25 23 18 30 12 25 2 28-3 31-10 29-13 21-14 19-15 19-15 20-17 19-24 16-21 10-25 2-24-11-26-18-18-23-17-31-14-30-14-29-15-30-12-27-11-28-11-22-9-23-9-24-2"/>
<path d="M2841 7499l 0-1-20-15-24 2-23 5-27 8-24 6-24 9-3 24 3 26 5 30 1 27 0 28-5 29-5 25-5 28-7 30-7 28-8 28-6 29-7 30-7 25-8 29-7 24-4 25 7 24 23 11 25 2 29 0 27-2 25-2"/>
<path d="M2999 7620l-1-1-11 23-13 26-12 25-14 25-13 21-12 25-7 24 6 24 20 14 27 2 29 0 24-5 24-6 28-8 26-11 25-9"/>
<path d="M3063 7727l-1 0-10 23-5 25-5 28-6 27-4 30-2 28 3 25"/>
<path d="M3239 7546l 0-2 17-18 26-8 27-7 27-6 26-2 26-4 25-5 2 25-7 25-6 32-2 27 1 27-3 30-4 28-1 26-1 29 0 29 0 26 0 25-1 28 1 25-1 29-2 27-5 27-3 26-15 20-26 4-27 2-25-2-23-6"/>
<path d="M1983 8403l-2-1 13-23 25-3 25 0 25 5 27 7 23 10 20 14 19 19 1 24-10 29-11 21-16 25-22 23-23 25-25 23-21 25-28 22-29 23-24 21-22 18-17 16-17 17-16 22 10 24 26 4 30-1 26-4 27-2 28-2 27 1 26 0"/>
<path d="M2775 8311l-1-2-22-12-25-2-25 2-25 6-24 6 4 28 1 27 0 30 0 28-3 26-2 28-4 29-7 31-5 34-4 25-6 35-6 32-6 33-7 34-6 33-5 32-6 27-8 26-5 25-7 27-2 25 10 22 25 0 27 0 24 0 25-3 28 0 26 6"/>
<path d="M2933 8464l 0-1-12 21-6 24-8 24-10 27-9 28-11 22-11 29-11 27-9 23-9 26 7 25 23 11 24 0 26-6 24-5 27-5 26-9 24-7 26-3"/>
<path d="M2997 8618l-2 0-11 21-3 24 1 28 3 30 2 24-1 29 2 28 1 30 4 26"/>
<path d="M3189 8387l 0-1 24-7 25-6 27-7 24-7 25-3 16 21 3 26-5 28-1 26-1 29-1 29-1 31 1 26-1 24-1 31-1 24 1 31 1 26 1 28 4 29 5 27 0 27 3 25-9 23-17 18-25 3-25-2-26-1"/>
<path d="M7879 6530l 0-2 8 25 0 30-2 24-3 27-4 29-6 31-7 32-6 34-7 35-6 35-6 30-5 30-4 24-5 24-5 24"/>
<path d="M8641 6444l 0-1-18-17-24 0-25 7-19 14-7 24-4 24-3 24-3 24-2 29-3 28-3 30-1 25-3 33-3 27-5 30-3 30-5 28-4 27-4 25-3 26-5 32-3 30-3 26-3 26-2 25 0 25 26 2 27-1 27-2 26-1 24-3 24-5"/>
<path d="M8787 6584l 0-2 22-9 26 3 23 9 24 7 22 10 22 13 12 22-1 26-11 22-16 19-19 20-23 21-19 15-20 17-19 16-22 18-20 15-12 22 25 12 28 4 26 1 26-1 28-5 29-8 29-9"/>
<path d="M9087 6502l 1-2 19-16 22-12 28-8 27-4 25 1 25 5 12 21-5 26-3 28 0 26 1 25 1 24 2 27 3 29 4 24 3 24 3 30 2 26 3 27 5 28 4 26 1 26 0 26-3 25-16 22-24 5-26 5-25 1"/>
<path d="M8262 7354l-1-1-23-7-26 6-23 8-22 10-24 12-23 13-1 24 10 22 2 27-1 25-3 28-4 24-3 26-6 28-7 28-7 30-9 28-9 30-7 31-6 26-5 30-1 25 1 24 6 24 16 18 25 5 25-2 25-1 27 3"/>
<path d="M8323 7473l 0 1-5 23-9 24-10 22-12 26-13 26-12 23-7 24 11 21 25 3 25 0 27 2 28-6 24-6 24-7 24-6 27-8 24-10"/>
<path d="M8390 7545l-1 0-16 17 0 27 2 24 1 26 1 29 0 24 0 24 2 26 7 24"/>
<path d="M8511 7350l-2-2 24-14 26-7 26-4 27 0 25-5 28-6 25-7 16 21 3 24 3 26 2 24 1 24 0 27 0 29-2 28-1 31 0 26 0 27 0 25 0 24 4 27 4 24 7 28 9 26 5 25 0 26-9 23-22 12-23 7-25-4-25 0-24-7"/>
<path d="M9645 7570l-1 0-20 14-18 22-13 23-8 24 2 24 13 21 24 10 27 0 24-7 27-13 19-14 19-19 7-27-11-22-19-16-26-3-25 6"/>
<path d="M9830 7570l-1 0-7 24 3 26 7 26 2 25-5-25 8-25 13-23 19-21 23-15 24-12 27-8 28-2 25 1 26 4"/>
<path d="M11671 7145l 1-2-25-3-26 6-26 8-23 9-5 24 6 25 1 25-1 29-3 29-6 25-5 28-7 30-7 33-9 31-7 29-8 27-7 25-7 27-7 26-7 28-7 25-2 24 16 18 26 3 27 0 26-1 24-3 26-3 26 1"/>
<path d="M11759 7279l 0 0-5 24-9 25-9 24-10 25-8 25-6 25 3 25 27 10 26 1 30-3 27-2 29-3 26-4 27-4 25-7"/>
<path d="M11861 7364l-1-1-6 26 7 27 6 23 7 23 4 25 0 25 0 26"/>
<path d="M12018 7170l 1-1 26-5 25-2 25-3 29-2 27-1 25-2 22-10 7 24 8 24 5 24 1 30 3 29 1 28-1 25 0 26 0 29 0 24 1 27 3 27 3 26 0 28 5 28 4 28 2 24 4 26-24 4-24 3-27 0-26 2-24 4"/>
<path d="M7677 7408l-2-2-26-5-22 12-21 18-18 19-17 23-13 21-11 23-8 27-6 29-2 30 1 32 7 27 11 24 16 20 24 18 29 11 27 5 29-3 29-4 31-8 30-14 28-18 26-22 19-21 12-22 9-28 0-26-6-24-15-26-19-21-21-19-22-17-21-11-27-10-27-4-26-1-26 6"/>
<path d="M10956 7277l 1-1 21-12 22-12 23-8 23-8 25-9 26-2 24 7 22 15 15 22 9 26 1 26-5 28-9 23-14 25-14 22-19 22-23 19-19 15-20 15-20 14-21 13-21 13-28 17-27 13-24 10-24 11-25 14-22 10 27-7 26-7 25-3 28-3 27 0 27-1 29 1 29 1 27 2 28 4 26 5 26 9 24 10 23 9"/>
<path d="M8334 8316l-2-1-27-3-26 2-24 7-24 11-23 12-21 14-14 19 3 25 3 28 4 28 0 24 2 25 1 24 2 24 2 28 1 30 0 32 0 32-1 34-1 32-1 30-2 27-1 25-2 30-3 25-1 24 0 25 19 19 24 4 24 0 24-4 26-6 25-6 24-7"/>
<path d="M8597 8488l-1-4-10-23-20-16-23-11-27 4-22 12-22 19-19 21-11 24 1 27 12 21 19 15 22 17 22 17 23 17 22 18 19 17 17 24 7 26-1 27-10 24-18 22-25 13-23 7-25-1-23-10-22-18-17-25-6-27-1-25 6-26 11-21 21-24 18-16 20-14 22-14 22-16 25-14 26-13"/>
<path d="M8697 8308l 1-1 18-18 22-11 26-9 28-7 25-6 26-2 24 8 0 26 0 28 1 26 1 31 3 25 3 26 5 26 6 31 3 26 4 27 3 27 3 26 3 26 3 28 2 27 1 25 1 28 0 24-1 30-1 25-5 28-9 24-17 20-25 14-24 5-26 2-27 3-24 0-24 0-25-7-19-16"/>
<path d="M11751 8070l-2-1-26-4-27 3-25 5-24 6-24 5-25 3-6 25-2 30-2 26-1 32-3 25-2 28-1 28-2 28-2 31-4 30-2 31-5 30-6 33-7 31-9 32-7 29-8 28-6 25-5 30-5 29 0 27 5 24 15 21 28 4 29-2 28 0 26 1 26 3 24 6 25 0"/>
<path d="M11999 8312l 1-2 6-24-12-22-23-9-26-4-26 2-25 9-24 14-19 17-7 26 7 25 18 21 19 16 22 14 25 17 22 14 25 17 16 20 13 24 2 24-9 24-16 19-23 19-24 13-25 5-25-2-22-15-15-26-2-27 2-27 5-27 11-24 17-23 20-24 19-18 18-16 25-17 27-16 27-15 26-13"/>
<path d="M12106 8103l 1-2 19-15 26-5 24-4 25-1 26 0 24-4 25-1 9 25 1 25 3 29 3 24 3 29 3 30 4 28 3 30 2 24 3 26 1 27 0 25 0 24 0 33 2 30 0 24 0 25-1 29 1 24 1 25 0 25 0 25-22 9-27 1-24 0-25 1-24 4-25 1"/>
<path d="M1987 10345l 0-2-20-15-25 3-24 12-15 21-16 20-15 27-11 23-10 27-8 26-7 29-4 26-3 29 5 26 11 27 15 24 16 18 18 16 26 17 26 13 30 9 31 5 29 2 31-4 22-9 26-13 23-15 20-21 22-23 21-28 21-28 12-25 7-28 3-27-3-27-5-27-12-25-17-27-19-22-19-19-20-15-20-15-27-15-26-6-24-6-28-5-25 1"/>
<path d="M2624 10311l-1 0 1 26-2 26-5 28-4 32-1 27-4 30-4 30-4 30-3 26-3 28-3 28 0 28-2 26-5 24"/>
<path d="M3350 10320l 0 0 17-17 26-8 27-4 28-1 24 3 23 7 25 9 21 18 15 19-5 26-15 24-20 26-22 21-27 23-19 17-19 17-22 15-20 16-30 18-27 19-25 17-24 18-22 18-17 17 22 12 31-4 26-6 28-9 25-7 25-3 27-3 24-4 25-5 29-1 24 3 24 6"/>
<path d="M4166 10251l 0-2 21-13 28-6 29-3 24-3 24 0 30 8 27 8 27 8 22 10 18 16 5 25-16 22-20 17-27 18-22 12-24 13-24 10-23 9-25 11-23 8 25-3 25-3 28 0 29 2 25 2 30 4 23 6 28 10 25 15 22 17 11 24-6 27-15 23-15 18-20 17-24 15-28 14-28 13-27 9-27 8-24 3-25 0-27-3-26-9-17-16-8-25"/>
<path d="M5120 10193l 0-1-18 19-15 21-17 26-14 22-14 22-14 24-13 23-12 23-14 26-11 25 4 24 22 11 24 3 32 1 25-3 28-5 25-10 27-7 29-6 24-5 23-9"/>
<path d="M5191 10342l-1 0-14 22-7 24-5 27-3 27-1 26 2 26 4 25"/>
<path d="M5850 10193l 2-2 21-15 29-3 24-1 28-2 31-4 30-3 28-2"/>
<path d="M5935 10164l-3 1-24 9-25 16-21 18-15 20-12 25-8 28-6 27 3 26 16 22 25 12 26 1 30-2 26-5 27-6 26-4 24-3 29-2 25 4 24 8 21 13 10 25-8 25-17 25-22 21-20 16-23 17-24 17-25 12-26 8-25 6-25 4-31-1-27-6-23-10-9-23"/>
<path d="M6595 10142l-6 0-24 12-19 25-15 26-16 29-11 34-7 35-1 24 1 31 4 29 8 23 8 24 13 22 15 20 23 20 25 16 26 6 30 3 32-1 26-9 19-16 15-22-4-26-19-20-22-14-28-7-31-3-31 3-29 7-25 9"/>
<path d="M7249 10154l 1 0 26 7 30 4 31 0 25-3 26-4 31-5 25-4 24-3 1 25-14 23-13 26-8 24-10 25-10 26-10 27-10 26-9 27-11 28-11 29-12 30-12 28-12 31-12 28-10 27-10 28-5 26"/>
<path d="M8122 10247l 0-3-9-23-18-16-22-14-27-2-27 6-18 16-15 23-7 24-2 28 5 25 11 22 18 24 18 16 20 17 20 17 20 17 20 16 19 18 21 21 15 22 8 24-7 27-17 21-20 18-25 17-27 15-29 16-26 13-24 8-26 2-22-12-14-24-5-27 2-25 4-26 8-26 12-28 16-30 20-25 22-22 22-17 23-16 22-12 22-12 29-13"/>
<path d="M2395 10727l-2 0 18-24 17-19 25-25 18-18 19-19 25-23 25-25 28-26 30-27 30-27 29-26 29-27 29-25 27-25 24-23 24-21 23-21 21-19 21-17 19-17 26-21 23-19 24-18"/>
<path d="M4053 10693l 0 0 15-22 18-21 19-21 23-23 18-19 21-20 22-20 23-23 24-22 25-23 27-24 25-22 25-22 25-22 24-22 23-20 21-21 20-20 23-27 21-25 17-18 17-20 16-21"/>
<path d="M5734 10547l 0 1 23-15 18-22 18-22 17-18 20-22 18-17 18-18 19-19 21-20 23-22 22-20 24-23 23-24 25-23 23-24 24-21 24-22 22-19 23-19 21-18 28-19 26-16 28-15"/>
<path d="M7092 10538l-2 0 10-26 18-17 26-27 22-19 25-22 27-22 30-22 32-25 33-23 33-24 34-24 32-22 30-22 27-20 25-17 24-16 21-13 27-21 23-16 19-17 19-15 20-17"/>
<path d="M1945 11322l 0-2-3 25-4 26-4 24-3 28-7 32-11 34-8 26-7 24-8 26-6 26-6 25-7 25-7 31-4 25"/>
<path d="M2299 11346l 1-2 21-15 23-7 31-6 32-6 26-2 25-1 25 2 29 4 26 5 18 20-9 24-20 23-18 16-23 19-26 20-28 18-26 17-24 17-24 15-23 15-16 18 24-8 29-13 27-9 27-6 26-6 28-2 30 1 31 4 25 6 24 16 15 19 7 27-8 23-19 27-18 19-20 21-24 19-26 21-19 14-20 15-32 19-27 11-23 8-25 4-24-10-5-27"/>
<path d="M2919 11342l 1-2 25-12 24-5 29-7 23-7 28-4 33 1 27-2"/>
<path d="M2974 11344l-3 2-21 11-21 17-16 22-10 23-8 24-3 28-1 27 7 23 24 7 29-4 27-4 29-7 24-6 30-4 30-1 28 0 28 3 27 10 23 12 20 17-2 29-15 20-18 18-22 17-25 20-25 19-25 16-25 12-23 10-24 6-27 5-28-5-21-18"/>
<path d="M3388 11352l 2-2 25-9 23-6 30-9 27-5 27-5 27-3 26-2 25-1 30-2 25 0 25 2 4 24-11 24-9 24-12 22-12 23-14 25-15 26-14 26-12 24-11 27-12 30-12 25-11 22-10 23-10 23"/>
<path d="M1657 10817l 0-2 11-23 22-24 19-17 21-18 24-21 27-24 31-28 32-26 31-28 34-27 37-23 35-26 21-12 34-24 33-23 29-18 29-16 27-15 26-10 28-12 26-11 24-11 25-12 31-14 31-11"/>
<path d="M3968 11410l-2-1-25 4-20 13-13 23-6 25 0 28 6 25 10 22 20 22 24 15 24 5 29 2 26 1 25-1 23-9 22-13 21-14 22-17 14-20-3-27-18-24-24-19-22-12-24-14-23-11-24-5-28-6-26 2"/>
<path d="M3103 10720l 0-1 15-19 18-17 19-17 24-20 19-18 20-19 23-21 24-22 26-23 26-23 25-23 27-25 26-23 25-24 27-25 26-22 25-22 24-23 23-21 22-21 18-20 27-21 23-19 22-12 25-13"/>
<path d="M4941 10542l 2-4 15-21 16-20 22-19 25-25 20-20 22-21 23-21 25-23 26-22 28-25 27-25 28-26 29-25 25-22 26-23 25-22 25-21 25-21 25-20 23-19 22-18 22-16 21-14 21-13 22-11"/>
<path d="M6283 10532l 2-4 11-25 20-24 26-22 21-17 24-17 27-21 27-19 28-20 29-22 29-21 30-22 30-23 30-23 30-22 27-21 26-22 25-18 24-17 22-18 22-13 22-13 22-12 29-12 24-7"/>
<path d="M7655 10567l 0 0 20-16 21-17 19-16 22-21 25-24 28-23 20-16 21-16 21-15 22-17 23-16 23-17 25-19 27-17 28-18 30-20 32-21 30-20 30-22 28-18 25-16 23-15 21-13 27-16 22-13 28-14"/>
<path d="M4514 11294l-1-1-19 21-16 25-19 25-14 19-20 25-17 21-15 20-17 25-15 20-7 25 16 21 27 8 29 1 26 2 25 3 25-4 30-8 27-7 26-8 29-13 27-14"/>
<path d="M4547 11425l 0-2-5 28-1 24-4 29-5 25-4 24-2 28"/>
<path d="M5237 11338l-1-2-6-25-16-21-22-15-27-7-28 5-27 8-28 14-24 14-22 18-14 24-9 27 1 25 10 26 21 23 22 16 25 16 22 13 22 11 25 15 21 19 17 19 13 23 5 25-7 28-15 24-19 17-20 17-24 13-25 14-24 8-28 5-26-7-19-17-9-24-3-26 6-31 10-25 12-26 19-27 20-26 22-26 24-24 21-21 25-19 22-18 25-13 25-12"/>
<path d="M5820 11238l 0-2-22 14-13 24-12 22-15 27-12 23-12 23-11 25-10 25-8 25-5 25-3 30 1 28 6 24 13 24 18 21 24 16 25 13 25 6 27-2 23-13 20-14 17-17 16-18 14-24 7-25-2-26-13-23-17-17-23-8-28-1-29 4-26 8-27 11-21 14-20 16 3 25"/>
<path d="M8370 9169l-2 0-25-4-25 0-26 2-23 10-16 18-2 24 3 26 2 25 0 27 0 26-3 29-3 31-5 25-5 27-8 31-8 35-7 25-7 25-7 25-11 35-8 24-9 32-6 28-1 29 4 29 8 26 10 23 21 15 26 4 24-3 27-4 24-5 25-5 25 3"/>
<path d="M8505 9315l 0-2 6 26-4 27-4 25-6 28-6 29-7 28-7 31-7 31-6 31-4 26-1 30 2 26 24 9"/>
<path d="M8689 9348l-2 1-18 18-16 22-15 26-11 23-8 24-6 28-1 26 1 26 5 24 7 24 9 22 17 23 25 15 28 9 27 0 25-5 20-13 13-20-9-24-19-18-27-14-28-4-28 6-23 8-24 12-17 16"/>
<path d="M8848 9196l 0-2 25-10 29-8 29-7 25-8 25-6 31-5 25-4 26-3 9 25-7 26-7 28-4 24-3 26-3 32-2 29 0 31 1 31 1 31 1 28 1 31 2 33 2 32 2 29 2 26 1 28 2 29 1 26 0 32-1 29-3 24-15 21-22 10-25 5-25 4-25 3-28 3-26-1-24-7"/>
<path d="M11630 9040l-1-1-21-12-25 0-26 2-24 3-26 5-22 9 3 24 2 25-1 29-1 28-4 27-4 25-4 30-4 26-5 26-4 26-5 28-5 27-4 27-3 32-2 25-3 31-4 27-3 26-3 27-1 25 8 23 26 1 26 1 27-3 24-3"/>
<path d="M11759 9128l-1-2-2 25-2 25-3 26-2 24-4 30-3 31-1 30-2 28-6 29-4 25-8 27"/>
<path d="M11963 9103l 0-1-19 22-13 27-10 22-10 23-8 24-7 24-6 23-4 25-2 26 2 28 6 28 11 24 17 19 26 4 25-9 22-13 18-18 11-23-11-22-27-9-27-6-27 2-25 3"/>
<path d="M12177 8990l 0-2 19-18 26-7 26-5 24-4 25 5-6 26-4 25-4 25-3 28-3 26-2 28 0 31-2 25 0 32-1 27-1 25-1 27 0 26 0 24 2 28 3 26 5 29 5 29 0 25-2 26-5 26-8 24-10 22-17 17-26 4-26-5-26-9-24-9-22-10"/>
<path d="M7680 8331l 0-2-27 8-15 21-16 25-18 30-13 22-13 22-14 25-13 25-13 25-13 28-11 28-10 26-8 26-8 31-3 26 4 28 12 23 24 16 25 12 27 9 27 10 28 6 25 0 25-8 16-20 11-22 4-26-3-24-11-28-16-25-19-19-23-9-25 0-26 9-22 16-21 19-17 20-11 26-1 28"/>
<path d="M1953 12481l-2-2-21-11-25 9-16 24-13 28-12 25-11 30-9 33-9 29-5 33 0 34 3 34 6 31 9 26 13 22 18 19 19 16 25 12 28 8 32 4 34-2 33-7 33-13 23-15 23-14 22-17 20-16 19-19 13-20 15-20 15-32 9-31 3-31-1-28-8-29-15-28-19-18-23-28-19-17-19-16-28-22-27-17-25-17-26-13-26-7-29-3-24 4-21 14"/>
<path d="M2509 12473l-1-1-8 27-2 27-1 27-3 26-1 29 0 30-1 31 0 33 0 33-1 33-3 31-2 28-4 30 0 27"/>
<path d="M3041 12519l-2-2 22-12 28-2 29 1 29 0 28 0 30-1 26 2 27 3 28 9 25 14 3 27-8 28-14 20-22 21-24 22-25 22-19 17-19 17-19 17-20 16-20 16-27 22-23 22-19 20-2 26 24 8 28 5 25-1 30-3 29-6 30-5 30-6 31-9"/>
<path d="M3685 12443l 2-2 15-18 28-7 25-3 25 1 24 3 23 12 16 19-3 24-13 23-22 20-24 18-26 18-20 15 23 11 30-4 30-7 28-3 26 5 25 5 23 9 23 16 9 23-6 25-15 23-19 16-23 17-27 17-26 13-25 10-25 11-26 8-29-4-23-11-15-24"/>
<path d="M4741 12352l-1-1-1 28-8 25-10 23-13 29-15 27-18 27-18 26-17 24-13 23-9 22 10 23 24 7 28 0 26 0 27-4 27-3 26-5 24-4 29-4 25-9"/>
<path d="M4757 12505l-2 1-20 19-10 22-4 26 0 24 3 27 3 26 6 30 7 29 9 25"/>
<path d="M5151 12401l-1-1 28-3 26-4 30-7 31-7 25-5 27-4 24-5 27-4"/>
<path d="M5240 12401l-4 1-24 12-19 17-20 20-16 20-9 22-3 25 2 25 10 23 26 11 25 4 28-4 31-5 31-4 31 0 25 1 28 6 27 7 29 12 22 15 19 18 1 24-11 26-16 19-23 20-29 21-21 13-22 13-22 11-20 13-31 15-29 11-26 5-28 2-26-6-16-21 4-30"/>
<path d="M5941 12390l-5 4-18 16-20 22-21 29-15 23-14 26-13 28-12 29-11 28-9 28-6 26-3 25 0 25 4 31 9 24 13 21 19 19 24 14 28 8 30 0 31-3 28-7 26-10 24-13 18-16 14-22 2-27-18-21-23-18-24-10-24-6-26-5-26 1-25 0-29 5-23 11-20 15"/>
<path d="M6347 12400l-2-1 24-7 29 2 32-3 25-4 26-2 25-1 29 1 29-1 25 1-8 23-14 28-8 28-8 31-8 25-8 28-9 29-11 31-9 29-9 30-8 27-8 28-5 23-8 25-8 25-4 25"/>
<path d="M1944 13480l-1-1-3 24-4 32-6 29-4 26-5 26-5 29-4 29-3 30-1 27-3 25-5 25-5 23-3 26-5 27-5 24"/>
<path d="M2342 13480l-1-1 4-25 26-9 25 2 27 6 24 10 21 16 13 22-11 27-20 25-15 19-18 19-17 19-20 15-24 20-22 18-22 14 27-1 29-3 28-1 32 4 24 2 24 5 27 5 28 9 20 13 13 21 4 27-9 23-16 25-19 19-24 16-26 14-29 8-29 6-26 6-31-1-27-7-26-10-19-19-3-25 10-25"/>
<path d="M2924 13451l 0-1 24-6 29-4 27-3 25-4 30-7 29-4 25-4 23-7"/>
<path d="M2996 13446l-2 2-19 15-16 18-11 22-7 27-6 25-3 28-2 24 14 23 25 2 25-6 28-7 28-4 26 0 28 1 27 1 29 5 28 7 25 6 25 11 17 19 5 23-3 28-10 25-12 22-15 21-19 21-22 20-27 16-24 11-22 11-31 10-31 2-28-2-25-11-15-18-6-25"/>
<path d="M3553 13444l 2-2 25-11 23-5 30-5 24-5 26-4 26-1 24 0 31 3 25 4 23 9 10 22-3 25-6 26-9 29-10 23-12 26-13 28-14 30-15 33-11 22-14 32-14 31-12 27-13 23-18 23-19 19"/>
<path d="M2299 13024l-2-2-21-14-6-24 11-22 18-17 19-17 20-18 21-13 26-18 32-19 25-14 27-15 29-18 30-18 32-17 31-18 33-16 32-19 35-21"/>
<path d="M3698 12796l 0-2 12-25 20-18 23-22 27-25 20-19 23-17 23-19 25-17 28-18 31-21 31-21 32-24 32-22"/>
<path d="M5077 12743l-2-1 15-20 20-18 26-20 21-16 22-17 28-16 27-18 28-17 29-18 29-19 33-18 34-19 35-19 35-18"/>
<path d="M6321 12695l 2-2 20-21 24-21 21-17 25-18 19-15 21-16 22-16 23-16 27-16 25-17 25-17 26-17 24-17 26-16 24-15 25-14 22-15 21-14"/>
<path d="M4158 13515l 1-1 19-16 24-6 25 3 27 5 28 12 24 14 20 15 17 17 15 22 1 24-8 25-16 22-19 23-22 25-19 16-19 15-29 20-22 13-29 20-20 15-25 18-21 13-22 17-19 19 25 4 27-5 29-4 31-6 32-1 29-2 29-1 26 7 25 4 25 6"/>
<path d="M5038 13463l-2-1-22 12-16 19-15 20-13 20-18 28-12 25-10 26-9 32-7 34-3 24-1 25-1 25 2 31 6 27 13 27 22 21 26 13 28 7 30 5 26-5 24-11 21-16 14-21 5-26-4-27-17-19-23-15-28-6-25 3-26 4-24 4-26 7-23 13"/>
<path d="M3033 12923l-2-1-24-9 20-22 20-16 27-25 20-18 23-20 24-19 26-21 28-21 29-20 32-22 31-21 32-20 31-20 32-18 33-19 34-16 32-17 33-16 32-12 30-14"/>
<path d="M5618 12871l-1 0 20-17 20-19 18-19 19-18 20-22 22-22 17-18 17-18 18-19 19-20 18-19 19-22 18-18 20-19 18-19 26-25 23-25 20-26 19-19 22-18 22-13 24-13"/>
<path d="M5572 13474l 0 0-12 23-12 25-11 22-11 25-12 23-15 24-15 22-15 22-17 23-12 22 24 8 26-5 29-8 29-4 29-6 28-1 28-2 26 1 29 0 26-1 25-1 25-1"/>
<path d="M5679 13550l-1 0-11 23 0 25 0 25 1 30 1 26 2 25 1 32-1 28 1 30 2 24-1 25-1 27"/>
<path d="M4595 12677l-2 2-21 15-23 13 18-22 22-21 21-17 26-18 26-21 27-23 20-18 19-16 18-17 29-21 28-21 27-23 26-20 25-22 23-20 21-20 20-15 24-18 17-18 17-17"/>
<path d="M10879 8096l 1-1 15 20-12 22-13 24-14 21-16 21-16 23-18 25-16 23-16 20-15 24-10 23-2 25 21 14 25-1 26-4 28-7 29-9 28-11 23-10 22-8 26-8 29-9 26-8 24-6"/>
<path d="M10999 8193l-1-2-6 25-4 27-5 26-5 28-4 28-4 29-3 28-6 27-2 26-2 24-4 24"/>
<path d="M6328 8274l-1-1 10-24 20-15 23-7 27-3 27-5 26 0 26 3 26 5 21 12 19 21 13 22 5 25 0 33-6 28-12 28-16 30-20 31-15 19-15 21-16 20-16 18-15 19-23 26-25 24-25 23-25 20-24 18-22 15-26 17-20 15-21 13 25-8 29-8 29-7 25-3 25-3 27-2 25-3 25-3 24-1 30-1 28 2 25 3 26 3 22 15"/>
<path d="M6936 8600l 0-1-20-14-19 16-18 18-13 22-6 26 8 24 23 12 26 2 27-3 24-12 19-18 1-27-13-24-18-19"/>
<path d="M7054 8622l 0 1 1 24 3 25 8 23-1-25 6-25 12-24 13-23 17-20 21-15 25-6 25 1 21 12"/>
<path d="M10183 8164l 0-2-21-11-18 21-13 21-15 26-9 25-10 26-10 30-9 31-4 31-1 28 3 24 9 26 15 23 19 18 22 12 24 7 27 3 30-5 25-9 23-14 23-16 20-18 16-21 18-27 9-30-1-30-9-30-10-24-13-21-20-21-24-19-26-15-24-10-23-6-26 5-24 9-7 25 11 29"/>
<path d="M10439 8441l 0-1-24 8-11 22 12 23 25 3 25-9 15-19-6-24-17-17"/>
<path d="M10522 8452l 0 0 5 24 9-24 12-24 14-20 21-14 26-3 26 4"/>
<path d="M8436 11287l 0-1-22-10-21 13-18 20-16 23-12 21-12 21-10 24-6 23-3 24 0 31 6 28 8 25 13 21 21 16 27 8 26 2 29-8 23-11 25-13 25-17 22-19 17-19 14-22 4-25-11-28-18-25-16-19-19-21-21-20-19-19-25-18-26-12-24-4-25 4"/>
<path d="M8856 11119l 1-1-9-22-23-9-25 2-25 4-24 11-16 18-1 27 1 27 0 25-2 26-1 31-3 25-3 29-4 28-3 34-5 32-3 25-4 33-4 31-3 28-2 26 1 30 2 29 0 28 3 25 10 22 25 6 27-1 26-5 27-8 26-5 25-6 24-5"/>
<path d="M8987 11245l 0-1-3 24 1 25 0 25-5 25-7 24-6 23-6 24-1 24 18 17 26 4 27-6 23-7 26-9 24-7 22-12 21-11"/>
<path d="M9081 11296l 0 0-1 28 6 29 5 26 3 25 2 24 2 25 0 25 0 28 1 26"/>
<path d="M9197 11157l-2-2 21-18 27-4 27-6 27-4 26-5 24-2 23-7 19 17 6 28 6 24 7 27 6 29 4 24 5 25 4 25 6 32 6 23 3 26 6 27 7 28 6 27 6 23 5 25-1 25-16 20-25 5-26 0-26-2-26-5-24-1"/>
<path d="M9757 11319l 0-1 22-10 29-3 24-1 25-2 29-3 31-2 24-2 24-3 28-3"/>
<path d="M9917 11200l-1-1 29 1 24 4 27 4 28 5 28 5 25 7 25 6 23 10-5 24-18 20-21 16-23 17-25 18-23 16-23 13-23 12"/>
<path d="M10627 11054l-2-1-22 9-21 17-19 20-20 27-20 30-13 21-11 23-9 25-11 36-3 26-3 26 0 26 3 26 5 33 10 27 12 21 18 17 21 11 23 12 24 8 26 3 31-1 24-5 29-12 26-14 19-19-3-26-16-19-25-18-21-13-22-11-24-7-32-5-24 0-29 5-28 6"/>
<path d="M11150 10986l-1-2-19-16-22-9-25 0-26 2-26 1-24 1-18 18-5 27-4 25-3 29-3 29-4 30-5 35-4 25-3 26-5 27-4 28-3 26-4 27-3 26-3 25-2 24-4 32-3 31-3 28-1 25 0 24 4 26 20 15 25 0 24-2 24-6 25-4 25-5 27-4 26 0"/>
<path d="M11381 11157l-3-3-19-19-23-10-28 2-26 13-24 16-20 17-11 22 3 25 12 23 18 17 20 16 20 17 20 19 19 16 14 21 10 24 7 26-3 28-14 23-20 17-27 11-26 2-26-12-22-19-15-19-9-23-7-27 3-26 7-24 13-22 18-23 22-21 22-18 22-18 21-17 21-14 22-10"/>
<path d="M11547 11010l 0 0 25-4 26-3 25 0 26-4 24 0 12 23 3 26 1 26 1 27 2 30 4 30 3 32 0 26 2 31 0 30 1 28 2 26 3 25 1 25 0 25 0 25 2 27 1 24-1 26 0 25-14 21-25 2-27-1-24 0-26-4-24 0-28-4-24 2-23 6"/>
<path d="M8368 12448l 1-2 19-17 25-11 25-4 27 1 28 4 22 10 17 20 3 24-8 25-14 20-16 21-21 23-22 25-25 25-25 25-25 20-22 17-22 19-19 20-21 21-19 18 26 4 25-4 28-4 25-1 27-1 27-3 26-3 26 0 24-3 25-3"/>
<path d="M8904 12291l-2-1-23-7-27 0-28 5-28 3-24 6-24 8-22 9 10 22 2 26 1 30 0 27-1 32-1 35-2 24-1 24-2 24-1 25-1 32-2 33 0 29 0 31 0 28 0 28 0 26-1 30 0 24 1 26 6 23 24 8 26 10 27 1 26 5 28-1 28-2 25-1"/>
<path d="M9037 12439l 0 0-12 24-8 27-7 25-9 31-8 23-8 25-6 24-7 29-5 25-4 26 2 24 22 10 25-1 25-2 27-6 28-9 28-6 25-3 25-5 25-7"/>
<path d="M9124 12552l-1 1-5 24 1 29 5 24 5 24 3 24 3 27 5 27 5 28 5 27 5 23"/>
<path d="M9277 12389l 0-1 26 3 26 3 28 0 27 0 26-2 28-3 25-5 23-6 13 23 4 24 2 25 5 28 4 29 5 28 6 26 6 31 4 31 3 25 2 26 1 26 2 25 2 29 1 27 1 25 3 24 3 25-4 24-20 14-26 2-26-2-25 3-24-2"/>
<path d="M9926 12565l 0 0 23-8 25-3 28-5 26-3 28-1 28-3 28-7 26-3 30-4 26-4 25-5"/>
<path d="M10148 12434l 0 0 27 1 28 0 28 3 27 7 23 11 24 11 17 19-2 26-15 20-20 22-18 19-24 16-22 15-21 16"/>
<path d="M10637 12365l 0 0-8 25-9 26-10 24-11 24-13 26-13 26-7 25-5 25 15 22 22 9 25 1 28-1 28-3 28-2 28-3 28-5 24-8"/>
<path d="M10707 12493l-2 0-12 23-4 25 0 27 2 30 5 30 4 27 4 30 4 24 6 27"/>
<path d="M11150 12269l 0 0-25-1-23 9-23 12-24 9-18 16 1 25 3 26 3 25 2 26 3 31 1 31-1 27 0 31 2 29 2 30 2 24 2 31 1 27 0 30 2 27 1 25 1 26 2 24 0 24 25 4 25-3 23-6 28-5 25-9"/>
<path d="M11444 12430l-2-2-13-22-19-17-24-6-26 5-22 14-14 21-6 27 2 25 12 23 17 22 18 18 17 17 21 18 22 17 20 16 17 21 13 21 7 26-9 23-22 20-24 13-29 8-28-1-24-9-23-19-17-21-7-27 1-24 9-24 13-23 17-23 20-22 21-21 22-19 20-16 26-16 25-15"/>
<path d="M11591 12319l 0-2 21-13 24-5 25-5 23-6 27-5 25-5 24-3 14 21 6 28 2 24 4 28 3 25 3 26 2 30 1 26 0 25 1 26 1 27 1 25-2 24 1 31 4 26 1 31 2 30 1 25 1 24 2 28 0 24-2 25-10 22-25 3-25 4-26-3-27-2-26-1-24-4"/>
<path d="M13312 11160l 1-2 9-25 5-26 0-24-1-25-7-24-19-17-29-5-28 9-23 13-23 15-22 21-20 26-16 23-13 21-6 26 12 23 26 5 26-8 27-10 28-12 21-13 22-17 21-18 3 27-5 29-6 27-6 31-2 24-3 24-2 24-3 31-3 29-2 26-2 24 1 25 18 17"/>
<path d="M13432 11376l 0 0-9 23-5 29-6 24-4 25 3 25"/>
<path d="M13511 11427l-2 0-14 23-6 25 17 22 24 6 25-5 23-10 17-21-3-24-18-21-19-15-24-3"/>
<path d="M13726 11178l 0-1 23-10 25-6 25-1 24 0"/>
<path d="M13735 11232l-1-1 24-6 24 1"/>
<path d="M14104 11016l 1 0 6 27-6 28-6 30-6 30-6 25-10 27-9 29-8 30-7 28-7 29-4 24-5 26-4 28-6 24"/>
<path d="M14350 11077l-2-1-22 9-24 17-17 19-17 23-13 25-9 27-2 29 3 26 11 24 19 17 23 12 25 5 27 0 23-6 26-10 22-12 28-15 17-17 18-23 10-23 6-25 1-27-6-24-9-25-13-23-17-20-17-18-22-15"/>
<path d="M14740 11082l 0-1-27-1-20 16-19 20-17 22-16 24-13 25-5 25 6 24 10 22 18 22 17 18 23 19 23 9 25 2 28 1 27-2 29-6 24-10 23-15 18-21 9-26 3-26-2-29-7-30-6-24-9-24-17-21-20-15-25-4-28 1-26 8-21 13-13 20"/>
<path d="M15179 10998l 0 0-8 26-5 26-4 26-5 25-4 24-4 28-2 28-7 26-3 26-2 28-8 23-7 25-7 25"/>
<path d="M15278 11369l 2-1 21-10 25 10 21 12 14 21-6 24-19 20-20 16-21 15-22 13 16 20 28-1 26 0"/>
<path d="M13222 12711l-2 0-18 18-13 24-8 25-1 28 7 24"/>
<path d="M13297 12771l-1 1-16 19-7 24 12 21 24 1 25-9 23-13 2-25-23-11-24-5"/>
<path d="M13546 12482l 0-1 21-11 28-4 26 1"/>
<path d="M13518 12571l 1-1 25-10 24-4 28-5 27-5"/>
<path d="M13139 12405l 1-2 5-24 1-26-9-24-14-22-21-15-27-4-21 12-20 20-12 21-4 28 4 26 14 24 20 22 21 20 22 19 22 14 21 19 14 21 10 24-3 27-13 23-18 21-20 22-23 17-23 13-29 5-26-1-23-13-15-24-10-28-2-28 2-25 9-28 14-22 17-23 20-22 24-19 22-18 26-14 25-12 22-12"/>
<path d="M13944 12342l 0 0-6 27-4 24-6 28-8 29-10 23-13 30-8 25-8 25-7 26-3 25"/>
<path d="M14153 12371l-3-1-27 12-24 17-18 20-5 28-1 29 4 31 8 28 14 22 20 21 24 17 28 9 25-2 25-2 25-2 27-8 24-13 21-16 18-17 18-22 11-24 2-25-6-27-9-23-15-25-17-19-23-13-29-4-26 1"/>
<path d="M14623 12368l-2-2-24-9-27 0-24 11-20 17-17 20-12 24-5 30-2 27 5 25 11 21 25 18 26 11 30 9 26 2 26-2 24-2 31-6 28-11 22-16 18-19 6-27 0-26-6-25-9-22-18-22-25-11-26-7-24-1"/>
<path d="M15041 12365l-1-2-22-14-28 2-24 9-22 19-17 20-16 20-13 20-10 29-2 30 4 28 9 23 16 19 22 14 26 9 28 4 33 1 26-5 27-6 25-9 22-13 25-16 18-24 8-28-1-29-7-26-12-21-21-18-24-16-24-8-25-2-25 4"/>
<path d="M15268 12596l 1-1 24-2 24 1 26 7 19 15-7 24-21 16-23 10-24 11-21 12 18 19 26 3 28 3"/>
<path d="M7249 9137l 0-1 17-19 24-5 27 1 25 7 20 19 1 25-12 23-17 23-19 18-21 19-18 16-24 19-20 20-19 18-19 21-16 22-14 20 23 11 26-6 29-4 30-5 29-3"/>
<path d="M7476 9297l 0 1-8 24 16 20 26-3 20-15 15-22 1-24-17-17-23 8"/>
<path d="M7606 9272l 0 0 10 22 8-23 12-22 15-19 22-16 24-8"/>
<path d="M7884 9137l 0 0-2 25-3 26-3 24-5 26-1 25"/>
<path d="M7985 9171l-1 0-15 23-4 25 6 25 17 19 24 4 25-5 21-12 19-18 16-24 3-27-12-23-16-20-23-10-24 6-16 19"/>
<path d="M5859 9035l 0-1-17 17-12 24-10 24-8 26-7 27-2 25 1 24 1 24 9 27 15 22 24 11 26-4 23-12 18-19 6-25-15-20-23-11-25-2-25 5"/>
<path d="M5965 9212l-1 1-18 19-8 24 14 21 25 1 24-8 21-17 10-22-11-22-22-11"/>
<path d="M6083 9227l 0 0 9 23-11-22 7-27 15-22 18-16 23-9 24-8"/>
<path d="M6414 9042l 0 0-10 23-4 27-6 26-3 29-5 29-3 27-7 26-1 24"/>
<path d="M6527 9060l 0 0-11 24-9 27-10 25-10 23-11 22 10 23 24 1 26-7 24-6 25-7 27-8 26-9"/>
<path d="M6585 9098l 0 1-1 25 6 25 7 23 5 24 5 24 3 28"/>
<path d="M11965 11011l-1-1"/>
<path d="M12090 10958l-1-1 19-15"/>
<path d="M12224 10907l 0 0 22-14"/>
<path d="M12261 10823l-1 0 24 6 26-4 26-7 25 0 26-2 23 9-7 25-16 21-16 19-17 22-15 21-13 22"/>
<path d="M12637 10583l-1-1-8 24-9 29-9 27-8 28-4 24-3 27 0 25"/>
<path d="M12758 10605l-2-2-23 6-17 19-9 24-2 26 6 25 17 21 25 9 31 2 25-5 24-9 21-12 18-16 16-21 6-28-1-25-8-26-12-27-15-21-19-17-24-8-25 8"/>
<path d="M13208 10358l 0-2-21-11-24 0-25 5-23 10-21 14-9 24-1 27-2 26-2 26-2 29-3 28-5 25-5 25-5 25-7 29-9 26-6 25 9 22 25-2 25-4 25-4 25 1"/>
<path d="M13255 10478l 1-2-12 22-5 23-2 25-5 24-3 25"/>
<path d="M13390 10442l-2 1-19 22-13 21-9 26-2 28 3 28 9 24 17 18 26 6 26-8 25-12 13-21-11-23-27-1-24 11-19 17"/>
<path d="M13563 10378l 1-1 24-9 24-7 28-6 26-4 24-4 20 15-4 25-1 27 0 26 3 28 1 24 2 26 4 27 3 27 2 25 1 24 1 25-17 18-25 11-25 1-26 2-25 0"/>
<path d="M1903 15239l-1-3-5-24-11-22-26-7-19 19-15 24-14 24-14 30-10 35-5 25-6 27-4 29-1 28 0 28 2 28 5 25 6 23 13 30 18 24 20 18 25 12 27 4 30-1 33-10 22-9 23-12 23-14 21-15 24-27 16-19 18-27 16-27 3-27-3-27-9-29-11-30-15-26-20-29-23-26-22-24-25-21-22-17-21-12-28-6-24 4-21 18"/>
<path d="M2368 15231l-2 0-21 17-5 28-2 31 0 25-1 27-2 27 1 28 1 28 4 26 3 27 3 26 1 30"/>
<path d="M2993 15184l-1-2 22-15 25-7 29-8 31-5 30-2 29 0 27 5 23 7 25 10 18 18 3 24-8 23-15 22-21 23-27 24-20 18-21 17-21 18-22 17-20 17-21 16-28 20-24 19-20 16-18 18-11 21 23 8 29-6 23-5 28-6 32-8 23-8 24-9 25-10 29-12"/>
<path d="M3628 15179l 2-2 21-12 29-3 28 3 23 8 20 20 7 25-12 23-20 18-21 16-22 14-23 12 18 16 28-2 27 0 24 4 21 13 15 21 4 26-13 22-20 20-22 15-24 12-25 7-30 3-27 4-26-4-23-15"/>
<path d="M4258 15115l 2-2 12 25-7 30-9 27-12 27-12 29-10 30-8 25-3 25 8 25 28 4 25-1 31-5 26-4 27-7 26-10 27-8 25-9 24-11"/>
<path d="M4363 15253l-2 0-16 20-6 26-3 29 1 27 4 27 4 26 10 25"/>
<path d="M4835 15158l 1-1 21-13 23-7 25-5 28-3 27-2 25-1"/>
<path d="M4934 15146l-3 1-26 9-21 13-18 19-8 25 2 28 11 23 18 20 24 10 29 3 26 0 25-2 28 1 25 1 27 6 27 10 19 16-2 28-21 22-24 17-27 17-22 10-23 9-24 9-25 3-28 0-28-8-25-14-18-16-14-22"/>
<path d="M5525 15050l 0-2-22 11-20 23-17 25-17 30-16 33-13 32-8 34-4 28-2 31 5 28 7 25 18 25 22 16 25 10 28 5 27-6 26-12 19-19-3-27-26-14-25-3-27-1-25 3-25 4-20 15"/>
<path d="M5927 15114l 0-2 23-12 29-5 28-4 25-5 29 0 25-1 25 6 7 25-6 25-11 26-15 26-14 24-13 24-14 21-13 25-11 24-11 23-11 26-8 23-6 25-3 25"/>
<path d="M6592 15156l 0-3-2-26-6-23-13-22-22-13-27 1-25 15-19 15-14 21-8 27-1 25 8 25 15 22 17 19 20 16 20 14 21 15 22 16 19 18 17 20 8 28-7 26-16 22-21 17-21 16-23 12-29 10-25 1-27-7-15-21-3-26 6-28 12-28 13-28 18-27 21-26 23-24 23-23 24-21 23-19 25-18 25-15"/>
<path d="M7009 15286l 2-3 12-25 10-26 3-24-12-26-17-18-23-12-24-4-25 4-25 12-21 17-22 21-15 24-5 26 15 23 24 9 31 4 25-1 26-3 25-3 26-6 23-6-18 19-13 28-9 27-8 29-6 31-2 29-2 30-1 26 3 24"/>
<path d="M7631 15208l 0-2-11 26-9 25-10 24-9 26-10 27-9 29-5 24 2 25"/>
<path d="M7753 15259l-1 0-21 17-11 23-8 28-2 28 1 25 10 28 20 18 23 9 27 2 27-5 27-9 23-13 18-17 13-22 0-27-13-24-15-19-18-17-20-14-26-11-24-8"/>
<path d="M8534 15236l 0-2-7 24-6 27-5 27-5 29-3 25-1 28 0 24 5 27"/>
<path d="M8802 15208l-1 0-21 18-11 25-4 28-1 25-1 30 0 24-2 25-3 26-3 27-3 26-2 25"/>
<path d="M1847 16114l-1-2 3 25 1 32 1 30-2 30-3 34-1 37-2 36-1 36-2 34 0 31-1 31-2 26-5 24 1 26"/>
<path d="M2365 16138l-2-2 19-18 28-3 27 0 25 2 31 1 30 3 27 5 22 11-7 27-20 17-20 16-21 15-25 17-22 16-22 13-26 12 17 16 28-6 24-4 29-4 29-1 27 0 27 7 19 15 9 23-11 26-7 24-12 21-20 24-19 17-22 15-23 16-24 12-24 11-28 7-28 0-21-14"/>
<path d="M2979 16111l-1-1 24-11 29-5 25-4 27-3 24-3"/>
<path d="M3029 16104l-2 1-20 14-17 19-7 24 3 27 10 26 17 22 27 9 27 5 24-1 25-2 27-3 26 0 29 5 28 6 23 11 23 16 14 20-8 25-16 22-22 21-19 19-20 14-27 16-29 11-27 9-29 3-24-7-16-20"/>
<path d="M3598 16099l 1-1 22-14 25-8 25-2 27-3 26-2 28 1 26-2 24 7 13 21-3 27-7 24-6 24-9 26-12 28-11 29-13 27-9 26-8 25-6 25-9 28-6 27"/>
<path d="M4351 16152l 1-4 9-28 3-27-8-27-15-20-25-13-26-1-30 9-23 11-24 16-22 18-21 21-16 18-16 24-8 25 14 23 29 4 25-4 28-12 26-13 21-12 20-14 14-21-9 24-2 26-4 26-5 30-4 29-4 28-2 28-2 25-2 24-2 25 0 24"/>
<path d="M4844 16079l 0 0-6 23-1 29 2 29 1 31-1 25-1 27-4 29-1 27 1 25-1 25-6 31-3 26 8 23"/>
<path d="M5129 16083l-1-2-7 28 3 25 2 26 2 31 0 31 0 29 0 31-1 31-4 28-1 25-3 28-4 26"/>
<path d="M2169 15658l 2-3 15-24 14-21 21-19 24-22 18-19 22-19 20-24 25-25 25-28 28-29 31-28 31-29 32-28 33-27 33-27 33-26 34-28 34-25"/>
<path d="M3426 15550l 0-4 10-27 20-24 18-25 23-28 18-18 22-20 21-22 23-23 25-24 29-25 30-23 33-26 36-27 36-29 19-16 19-15 19-16 21-17 21-16 21-17 21-17 22-17"/>
<path d="M4779 15502l-1-2-4-27 8-25 13-26 17-24 22-29 18-20 20-22 24-22 26-23 27-25 28-25 31-25 34-28 35-27 38-29 39-28 20-15"/>
<path d="M5602 15536l 0-1 13-26 18-25 19-25 17-18 18-19 20-20 22-21 23-21 26-24 26-23 29-22 30-26 30-22 31-24 32-24 35-26 34-27 37-29 19-15 39-28 20-14 20-14"/>
<path d="M6746 15571l 1-2 12-24 16-21 17-20 23-22 17-17 19-20 21-22 24-26 26-27 30-27 32-30 34-28 36-28 36-31 38-29 39-30 18-16 20-17 20-16 19-16 19-16 20-16 19-15 19-15 37-28 35-25"/>
<path d="M8291 15555l 1-3 15-20 19-17 25-21 21-17 25-18 27-20 31-21 33-23 36-23 39-25 39-26 39-25 20-14 40-25 39-26 21-13 38-26 38-26 34-24 32-22 30-19 27-16 24-13 22-12 27-12"/>
<path d="M5432 16098l-1-1 21-15 26 1 27 5 24 7 26 4 30 8 28 10 27 14 21 18 17 22 8 25-6 31-12 21-18 23-22 24-24 24-28 22-29 20-28 20-29 17-25 15-22 11-26 12-24 8 26 2 28-9 24-7 24-6 26-4 25-4 25 0 28 3 27 3 27 5"/>
<path d="M6266 16071l 1-1-23 10-18 23-15 23-18 28-16 23-11 27-8 25-7 31 1 30 6 30 12 23 23 20 21 16 25 9 26 3 27 0 27-8 24-7 28-8 19-15 8-24-15-25-20-19-24-10-27-2-26 2-25 5-18 16"/>
<path d="M7012 16038l 0-1 2 28-5 25-8 27-11 29-10 30-10 23-13 28-10 24-8 26-12 25-6 25"/>
<path d="M7167 16136l-2 2-18 16-19 23-11 26-2 25 7 24 19 20 21 15 28 6 25-4 26-10 21-15 20-19 16-21 7-27-5-29-8-25-13-24-17-17-25-1-25 7"/>
<path d="M2994 15627l-1-2-7-23 16-20 21-24 25-23 19-17 22-19 25-21 28-19 29-22 30-21 30-22 31-22 32-21 31-21 31-20 30-19 31-18 31-18 30-16 27-15 25-13 23-10"/>
<path d="M5309 15480l-1 0 13-24 18-19 17-18 20-19 24-18 17-17 19-18 19-21 18-18 22-20 21-19 18-22 18-19 21-17 21-16 20-15 20-14 24-8"/>
<path d="M7415 15418l-1-2 18-20 25-14 24-12 29-16 31-17 23-11 24-13 25-12 25-13 25-10 25-10 22-9 33-14 31-10 27-9 25-10 28-11 28-5 24-9 26-2"/>
<path d="M8011 16017l 0-1-11 24-11 22-13 24-13 23-14 23-14 21-15 25-11 23-5 24 21 13 26-3 24-5 24-7 25-5 28-5 26-6 28-2 27 1 26-1 25 2"/>
<path d="M8133 16125l-1 0-13 23-11 28-8 29-5 24-4 25-2 25-2 26-5 25-5 27-5 25-7 23"/>
<path d="M4126 15527l-1-2 6-25 17-21 17-17 22-21 26-25 20-18 21-18 22-20 22-19 20-19 22-19 23-18 23-19 24-17 24-17 22-16 22-14 21-14 29-21 27-17"/>
<path d="M8787 16126l 0-1-24-6-22 13-21 21-15 23-13 26-9 30-3 31 3 27 11 25 17 21 23 16 27 12 29 5 29 2 30-6 24-7 24-10 22-14 19-15 23-20 17-23 10-26 3-29-5-24-6-25-7-26-10-22-18-24-20-17-24-15-25-6-28 0-25 14"/>
<path d="M13810 13870l 1-1 7 28-8 25-8 23-9 25-10 25-11 26-11 25-12 24-9 22-13 29-11 22-11 22-7 25"/>
<path d="M14151 13919l 0-1 13 22-5 27-12 27-13 23-16 25-16 24-18 24-19 24-18 25-16 25-14 22-14 22-13 22"/>
<path d="M14457 13945l-1-2-26 11-18 24-16 19-11 24-8 29-1 25 9 25 20 21 28 15 26 6 31 1 25-4 26-5 27-9 28-12 25-14 20-14 20-20 9-25-6-30-14-26-14-21-18-20-22-15-22-10-27-6-24-3-27 6-9 24"/>
<path d="M14980 13848l 0 0-17 17-9 22-9 27-7 29-6 25-7 31-3 25-6 31-9 29-8 28-7 28-10 26-12 21-10 25"/>
<path d="M15122 14188l 1-2 21-12 26 5 20 14 0 26-16 20-23 15-22 13-22 10-21 14 16 19 25 2 24-3"/>
<path d="M13379 14018l 0-1 20-15 28-7 25-4 26 0"/>
<path d="M13370 14092l 1-1 22-10 27-3 26 0 25 3"/>
<path d="M12692 13910l 1-4 4-25 9 27-9 29-12 26-13 27-13 26-15 27-15 26-14 27-13 25-11 25-12 28-9 23"/>
<path d="M12831 13939l 2-3 13-20 21-16 25-9 24-7 26 3 25 8 21 11 18 16 10 23-11 23-20 16-22 12-24 10-24 6-26 10-25 12 21 11 26 2 28 8 25 4 24 4 29 7 25 9 10 24-14 26-18 18-19 16-26 17-22 10-23 8-23 8-28 11-25 3-25-2-27-1-15-20 17-22"/>
<path d="M13120 14179l-1 0-19 16-14 20-11 22-11 25"/>
<path d="M13204 14232l 0 0-14 20 11 23 27-1 25 2 21-14-6-25-17-19-24 1"/>
<path d="M1879 17932l-1-2-18-15-23 10-17 18-15 21-15 26-6 23-6 26-6 28-3 29 4 29 10 25 16 24 24 15 28 11 30 3 26-3 29-10 31-13 29-17 27-17 20-21 18-23 9-23 3-28-5-31-10-24-12-22-16-22-18-18-19-17-22-12-28-6-27 2-23 7"/>
<path d="M2528 17878l-2 0-10 24-9 28-7 25-4 25-4 25-5 25-4 29-6 28-3 27-1 28-1 28-2 26"/>
<path d="M3071 17977l 0-1 21-12 29-7 24-3 24 0 28 4 24 10 16 21-2 27-14 25-20 21-19 16-22 17-24 17-24 13-22 13-23 18-22 11 16 21 24 0 31-3 28-3 34-1 25 0 25 0 26 0 28 0"/>
<path d="M3833 18017l 1-2 14-21 26-4 25 0 28-1 28 3 25 6 24 3 23 10-17 21-22 15-28 14-22 8-28 12-22 10 14 21 29-1 24 2 28 7 25 5 27 9 21 14 6 24-18 22-19 16-23 17-28 13-24 6-27 6-24 3-27-2-23-10"/>
<path d="M4844 17906l 0 0-6 25-13 26-16 19-17 17-19 18-21 17-19 20-3 25 22 13 23 7 29 5 32 3 28 1 26 1 25-1 26-2 25-4 29-9"/>
<path d="M4944 17995l-3 1-21 16-14 26-7 26-3 26 1 30 5 26 6 25"/>
<path d="M5468 17986l 0-1 24-13 27-9 25-4 29-4 28-1 25 3"/>
<path d="M5545 17987l-3 1-27 4-22 12-15 21-5 26 1 25 7 25 19 17 27 8 27 2 27-2 31-3 27-1 26 4 14 20-20 18-24 17-27 17-23 11-23 11-28 10-25 7-27 4-16-18 17-20"/>
<path d="M6368 17917l-4-2-28 4-22 18-16 19-16 23-15 29-13 33-12 34-7 33-4 32 2 31 8 27 12 22 18 19 24 13 28 9 28 1 26 1 30-4 25-9 18-16 6-27-18-22-23-14-29-7-25-2-24 0-25 4-24 11"/>
<path d="M6797 17985l 0-2 29-6 29 0 24-1 26-2 25 0 24-2 29-1 27 5 16 18-11 22-13 26-14 28-14 23-14 26-17 24-14 22-13 21-11 22-11 25-8 25"/>
<path d="M7827 18000l-1-3-8-23-19-17-29-4-28 1-30 4-24 9-23 10-24 12-19 17 14 24 21 15 19 14 22 16 24 20 23 20 24 21 24 21 20 20 18 20 16 21 12 22-23 12-31 5-30 0-31-3-31-3-27-3-24-6-28-9-21-13-15-22 6-29 16-20 25-22 20-18 22-17 24-16 26-19 26-16 28-15 28-14 27-8 26-9 25-7"/>
<path d="M8426 17980l 0-2-3-26-18-18-27-1-28 6-24 12-23 13-19 16-7 25 25 13 25 3 29-2 26-5 26-5 23-9-3 24-7 26-7 28-8 25-7 28-4 27 1 30 6 25"/>
<path d="M9335 17916l 1-1-4 28-11 29-9 26-10 26-8 27-7 24-4 30 0 26 8 24"/>
<path d="M9485 17992l-2 1-24 14-17 18-13 22-6 28 7 25 20 20 27 11 25 0 31-6 25-9 24-10 20-15 18-19 7-25-2-28-7-24-14-22-22-15-24-3-24 6-21 17"/>
<path d="M10246 17804l 0-1 2 24 0 31-1 30 0 29-3 24-3 26-3 25-7 30-6 26-2 26"/>
<path d="M10476 17819l 1-2 10 22-1 25-2 29-2 24-4 28-4 25-5 27-6 26-9 23-8 25"/>
<path d="M11291 17841l 0-2 1 28-3 27-4 25-2 26-5 26-7 25-10 28-7 30-5 25-9 26-4 25"/>
<path d="M11484 17857l 1-2 24-6 27 6 27 8 22 11 23 12 21 13 19 19 1 26-17 21-23 18-23 15-25 14-25 14-24 17-17 19 16 19 25 4 27 1 25 1 27-1 26-1 24 1"/>
<path d="M1903 18947l 0-1 3 28-2 27-5 29-6 25-3 25-4 32-5 24-1 25-4 25 0 27"/>
<path d="M2360 18915l 0-2 23-9 28-4 29-2 28-2 29 1 27 5 3 25-21 19-23 14-25 12-24 9-22 10 18 18 28 0 27-2 30 0 28 3 26 3 23 10 20 15 8 27-7 23-16 26-21 21-18 16-20 18-22 13-23 12-22 8-26 7-26 1-28-3-21-13"/>
<path d="M2837 18887l 0-1 23-13 26-4 30-5 24-2 26-2 25 0"/>
<path d="M2883 18893l-2 2-20 15-17 25-6 25-4 25-1 26 12 23 24 7 27-4 25-5 24-5 30-5 29-1 29 1 26 4 25 9 19 17 0 27-10 22-15 20-24 19-20 16-18 17-25 18-25 13-25 10-26 3-29-2-22-14-13-22"/>
<path d="M3386 18868l 0 0 23-7 28-2 26-2 28-1 27-1 28 0 25 2 17 18-4 26-9 24-13 26-14 27-13 22-10 23-9 22-11 28-8 23-10 28-8 24-7 26-3 25"/>
<path d="M4023 18870l-2-2-18-21-25-10-29-2-26 5-26 9-23 10-20 16-17 23-10 23 6 24 26 11 29 1 27-4 25-6 27-10 24-12 21-16-9 25-4 27-4 26-4 28-3 26 0 25 0 24 3 25"/>
<path d="M4685 18940l-1-1-10 24-3 26-9 27-6 25-5 29-7 26-5 25-4 24 2 25"/>
<path d="M4816 18942l 0 0-9 23-6 29-2 26-3 26-5 29-3 29 1 32 0 25 1 26 6 25"/>
<path d="M2220 18261l-2-2 5-25 27-17 27-17 30-21 23-16 23-19 26-21 28-21 29-23 31-23 31-23 30-22 31-20 28-19 27-19 27-18 24-19 27-18 26-16"/>
<path d="M3744 18443l-2-4-6-26 6-24 16-23 19-18 20-18 22-18 26-19 21-14 23-16 25-17 28-17 29-16 28-18 28-16 28-17 28-16 30-15 29-15 31-15 30-15"/>
<path d="M5331 18262l-1-2 4-26 17-19 18-17 25-22 18-17 20-17 21-19 24-18 26-19 26-22 28-23 28-24 30-22 31-22 30-22 31-19 31-21 29-21 29-19 27-16 25-14 23-11"/>
<path d="M6728 18292l-2-1 11-26 21-16 28-19 22-15 26-17 27-17 29-19 31-19 32-21 33-22 35-22 35-22 36-22 36-22 34-21 33-19 34-19"/>
<path d="M8236 18256l-1 1 16-19 20-16 26-17 20-14 22-15 24-16 26-17 28-18 30-17 32-19 33-20 35-21 36-20 36-20 37-21"/>
<path d="M10048 18061l 0 0 19-21 21-12 27-15 22-11 23-13 26-14 27-12 30-13 31-15 32-16 32-18 33-17 33-17 33-17 33-17 32-17 31-17 30-17 27-16 28-16 25-14 23-12 30-15 27-11"/>
<path d="M5547 18946l-2 0-26 5-21 11-16 20-13 22-9 23-7 28-2 28 3 27 9 26 12 24 22 22 24 15 28 10 26 3 27-3 27-12 23-20 19-23 14-26 7-27 1-30-4-31-5-25-13-22-19-22-23-12-24-4-25 6"/>
<path d="M6433 18924l 0-1 3 26-14 25-12 22-16 27-13 26-11 26-4 25 20 14 27-1 26-2 27-1 27-3 28 0 27-1 25-3 27-3"/>
<path d="M6513 19021l-2 0-14 22-7 24-6 25-1 26 1 28-1 26 0 25 0 25"/>
<path d="M7651 19027l 0-2 2-25 3-26-11-21-24-5-27 6-22 12-22 15-19 16-7 25 7 25 15 18 21 18 26 11 22 12 22 13 22 16 15 19 8 26-1 28-11 25-16 19-25 6-22-10-17-20-8-25-1-25 6-28 12-28 13-22 16-20 18-20 19-20 19-18 25-15 27-12"/>
<path d="M8494 19016l-1-1-11 21-5 28-6 27-7 30-6 31-7 27-5 26-5 24"/>
<path d="M8628 19030l 1-1 26 6 25 12 21 13 20 16 6 24-11 24-19 19-21 17-19 15-13 22 7 23 25 5 25 4 27-2 28-4 24-4"/>
<path d="M1591 18264l 2-2 12-25 24-18 22-17 29-23 21-15 23-16 22-17 25-15 28-19 28-19 32-18 29-19 29-19 31-17 31-18 31-15"/>
<path d="M4601 18294l-4-2-23-15 5-26 26-12 26-9 31-13 25-9 26-9 30-13 31-14 33-17 37-16 40-18 41-18 42-19 41-22 22-11 41-23 22-11 21-12 21-11 22-11 41-20"/>
<path d="M7482 18277l-2-1 10-26 21-17 28-19 22-15 25-16 26-20 29-18 32-19 34-20 38-19 41-22 22-11 21-11 23-11 22-11 23-10 23-10 23-12 22-10"/>
<path d="M11002 18115l 3-5 17-16 27-17 31-19 25-13 27-14 29-14 31-14 33-14 34-13 32-14 34-12 32-13 32-12 33-11 34-12 35-10 37-11 34-11 35-9 34-11 33-9 30-10"/>
<path d="M9757 18857l-1 0-22 14-15 22-14 25-9 22-11 24-9 24-9 26-7 25-4 25-1 29 4 28 8 22 15 19 24 15 26 9 24-1 26-10 23-12 19-19 12-23 1-26-11-24-21-13-23-5-24 4-26 5-23 12-20 14"/>
<path d="M6065 18221l 0 0 21-13 20-14 26-18 27-17 30-20 22-16 24-18 24-20 26-22 28-20 28-20 28-21 28-20 28-19 29-19 28-16 29-15 28-14 27-11 27-10"/>
<path d="M10528 18902l 0-2 20-14 25-4 27 0 27 1 25 2 27 4 13 21-13 24-18 23-18 19-20 21-22 24-22 24-24 24-22 24-22 22-19 20-19 19-17 19 28 7 27-2 29-3 24 0 32-1 30 2 25 0 27 4 22 11"/>
<path d="M2877 18303l-1-1-3-26 18-23 20-23 18-20 22-21 26-21 25-23 27-23 19-18 19-18 21-19 19-19 21-18 19-18 20-17 19-18 19-16 20-16 26-24 27-21 25-19"/>
<path d="M1717 20603l-2-3-16-18-26-11-23 11-16 18-17 23-12 26-11 30-6 24-7 36-3 28-4 30 0 34 1 25 6 28 8 26 13 35 18 24 22 16 23 10 29 5 31-2 31-5 32-9 24-8 22-9 22-13 23-15 19-15 24-25 15-27 13-25 6-24 2-27-5-26-10-31-12-21-13-24-12-24-19-28-25-17-24-13-23-6-30-4-28-3-26 5-19 15"/>
<path d="M2308 20598l 0-2-2 25-4 30-2 26 0 30-3 31-2 34-4 24-2 36-4 34-3 30-3 28 3 25-3 30-1 25"/>
<path d="M2870 20617l 0-2 1-24 27-1 25 2 30-2 25 1 25 1 29 2 30 0 28 10 21 13 10 23-5 24-16 26-17 20-22 24-25 21-28 19-20 14-28 23-19 17-29 20-22 14-25 17-23 21-21 21-15 22 25 10 26-4 26-6 30-8 27-4 28-6 29-7 34-9 23-5 33-7"/>
<path d="M3475 20569l 2-2 20-14 29-1 25-2 27 2 30 3 28 2 29 5 24 14 12 22-11 25-20 17-25 18-24 16-23 18-22 12-21 11 28 7 27-2 29 4 27 3 29 6 28 5 25 4 24 9 24 17 18 18 3 25-14 28-20 21-20 16-22 12-27 10-26 7-24 3-25-1-28-2-25 1-27-6"/>
<path d="M1721 21589l 1-2 7 25-1 27-4 32-7 34-4 26-6 27-3 27-4 27-4 26-5 25-2 24-2 25-1 33 0 31 0 24 3 26 1 24 9-25"/>
<path d="M2248 21687l-1-1 3-24 22-11 25-4 26-4 29-1 29-3 31-3 29-3 26-1 27 3 24 10 3 25-20 26-21 24-20 18-24 20-22 21-24 18-25 15-20 14 17 21 28 2 25 1 28 3 31-2 29 0 25 0 26 4 22 14 2 26-13 24-16 24-15 20-20 17-18 18-25 19-25 14-22 10-23 8-23 6-25 2-25-4-31-9-27-11-25-20"/>
<path d="M2083 20986l-1-1 5-24 16-24 15-20 20-20 24-23 29-24 20-20 22-19 25-20 26-22 29-19 31-23 31-20 32-22 31-20 32-19 31-20 30-19"/>
<path d="M3486 20797l 2-4 12-24 16-20 21-25 18-20 20-21 22-23 25-21 19-16 22-15 22-17 23-17 23-19 26-17 27-20 28-18 28-18"/>
<path d="M3107 21678l-2 0 8-23 21-16 22-10 24-8 25-4 25-2 25 2 27 9 23 10 22 12 18 18 13 23 7 25-4 27-9 23-12 28-13 25-16 23-20 24-21 23-22 22-24 20-24 19-23 22-22 18-18 18-18 17-20 20-17 17 24 4 26-9 25-7 26-5 29-2 25-4 25-5 29 0 28 3 25 8"/>
<path d="M2710 21151l 0-1 14-19 19-21 21-20 17-19 20-19 23-22 22-25 25-27 26-28 26-30 28-32 27-32 29-34 27-33 28-33 27-33 27-32 27-32 26-29 24-28 21-26 21-24 18-21 17-18 22-24 15-19 15-20"/>
</svg>
