<svg xmlns="http://www.w3.org/2000/svg" viewBox="-2277 -693 16883 52493" stroke="black" stroke-width="16" stroke-linecap="round" stroke-linejoin="round" fill="none" data-xena="2 -18 0"><style>@media(prefers-color-scheme:dark){svg{background-color:black;stroke:white;}}</style>
<path d="M7075 2043l 0-1-3 28-2 24-4 25-2 26 0 24 0 30 0 27"/>
<path d="M7125 1930l 0-3-10-24-16-21-21-14-26-2-28 9-25 20-21 24-14 20-14 23-14 22-13 22-11 23-11 32-8 34-2 35 2 33 9 31 13 25 19 20 23 17 25 14 26 10 28 5 30 2 31-3 33-8 31-13 22-11 20-13 27-21 23-24 18-25 15-28 9-28 3-28-3-29-8-31-9-24-11-26-12-26-13-27-14-25-14-22-22-23-23-14-24-9-25-2-31 6-22 12"/>
<path d="M6792 2490l-4 2-23 14-20 17-23 21-25 22-19 17-20 18-21 22-24 24-25 26-28 30-31 31-34 33-17 18-19 19-20 19-20 21-22 21-22 23-24 24-24 25-25 26-27 27-28 28-29 29-30 31-30 30-31 31-33 32-32 33-34 34-35 33-36 34-36 35-37 35-38 34-38 36-38 36-39 35-39 37-40 35-39 34-40 34-41 34-38 34-39 32-38 31-36 29-35 28-33 27-33 26-30 24-30 24-28 22-26 21-25 20-24 18-23 17-21 16-21 15-37 27-33 23-29 19-23 16-26 15-24 10"/>
<path d="M4571 4321l 1 0 26 4 25 4 25 11 17 17 1 27-11 22-17 26-21 24-16 17-18 17-20 20-17 17-18 19 13 21 27 0 29-3 25-6 25-9 26-10 27-11 22-17"/>
<path d="M4684 4194l-4-2-23-7-27 3-28 16-20 17-24 19-22 23-22 23-22 27-21 27-16 32-10 23-8 25-6 25-5 24-3 35 0 34 7 32 9 30 13 26 18 20 22 16 27 11 28 6 31 0 31-4 33-11 24-11 25-14 26-16 26-19 26-19 25-22 23-21 21-25 19-22 16-24 12-23 12-21 7-25 6-23 2-36-3-33-9-33-9-23-16-32-20-29-21-24-22-19-25-17-23-11-27-5"/>
<path d="M7322 2449l-1-2 22 20 22 23 21 22 18 17 19 21 21 21 24 23 27 26 28 27 31 29 33 31 18 17 18 18 18 18 20 17 20 19 20 19 22 20 22 20 22 21 24 21 23 22 25 23 25 24 25 22 27 24 26 24 27 23 28 25 28 25 27 25 28 25 28 25 28 26 29 27 29 25 29 25 28 27 31 26 29 26 30 27 29 26 30 27 29 25 30 26 29 25 28 25 29 25 28 24 28 23 28 23 28 23 27 23 26 23 25 21 25 22 24 20 23 22 22 20 22 20 21 19 19 19 19 19 17 19 17 17 30 34 26 30 22 26 19 23 18 26 14 23"/>
<path d="M9345 4309l-1 0 28-4 26-3 27 1 4 25-20 17-15 22 9 22 26 3 23 9 22 10 13 23-9 26-17 23-20 18-23 15-26 13-27 7-27 2-26-4"/>
<path d="M9427 4159l-4 0-24 6-22 11-22 15-23 23-16 20-18 23-16 25-14 28-12 31-7 23-5 35-2 34 3 31 9 29 12 27 16 23 19 20 21 16 25 12 29 7 31 3 33-3 33-8 23-11 23-11 20-13 20-14 26-22 22-27 17-26 12-29 8-31 1-31-3-32-8-32-13-35-11-24-12-23-13-22-16-18-25-22-25-16-28-9-28-4-31 1-32 4"/>
<path d="M4235 4900l-1-1-17 25-16 20-23 26-19 20-20 23-23 24-26 27-30 29-36 33-19 17-21 18-22 20-22 20-22 20-25 21-25 22-25 23-28 24-27 24-28 23-28 25-29 24-29 25-31 26-30 25-31 26-31 26-30 26-31 27-32 28-33 27-33 27-33 28-32 28-32 29-32 28-34 28-31 28-31 28-30 27-31 28-29 26-30 25-28 25-27 24-26 24-26 23-25 22-24 22-23 22-23 19-21 21-20 19-21 19-20 19-19 17-18 17-33 31-30 27-24 23-20 20-21 22"/>
<path d="M2287 6663l-1 1-12 23-11 24-10 26-8 23-3 26 5 25 22 11 24 1 26-5 26-9 25-10 25-11 22-11"/>
<path d="M2368 6739l-2 1-15 22 0 25-1 26 1 24 2 29 1 28 3 24"/>
<path d="M2312 6550l-5-1-23-6-25-1-25 5-26 10-28 16-19 16-19 19-19 23-17 27-11 34-8 23-7 25-5 27-5 27 0 29 4 28 7 28 8 25 9 23 12 21 15 21 26 22 32 15 34 6 26 2 26 0 24-4 27-6 26-9 25-9 25-12 24-12 22-13 23-14 20-16 17-17 16-19 15-19 14-21 15-31 10-31 3-29-4-29-11-31-16-31-16-22-16-21-16-22-18-21-18-19-19-17-20-16-29-16-28-12-25-5-25 1-32 6-22 10"/>
<path d="M4796 4989l 0-1 8 26 12 27 14 28 12 21 14 22 13 25 16 28 18 29 19 31 21 31 21 31 22 33 21 32 23 32 23 31 23 30 23 31 24 31 24 33 26 33 27 34 27 35 28 36 29 38 29 37 28 37 28 37 30 35 29 34 30 33 29 29 28 27 26 26 26 26 24 27 21 23 20 23 19 20 18 19 17 17 22 23 18 16 23 20 19 16 22 11 23 8"/>
<path d="M5940 6501l-1-1 27-1 28-4 23-8 24-13"/>
<path d="M5958 6514l-2 1-22 12-17 21-10 24 7 24 24 3 28-4 27-2 24 0 24 3 23 9 16 20-6 26-14 24-16 19-25 18-25 13-28 3-25-10"/>
<path d="M5948 6355l-3 0-27 10-24 20-18 22-17 27-13 23-13 25-12 30-10 31-8 31-5 33 1 36 7 33 11 31 14 30 19 22 22 19 26 16 28 12 31 9 33 3 32-4 32-8 32-15 31-16 20-16 20-17 20-19 16-20 13-22 14-33 10-35 6-35 1-24-1-24-5-24-7-25-11-25-14-24-15-24-17-25-18-24-18-22-17-18-26-18-26-11-24-3-25 2-23 6"/>
<path d="M9489 4724l-2-1-19 17-9 24-9 26-10 35-9 30-10 33-13 37-14 41-15 43-8 23-9 22-9 24-10 26-11 27-11 27-12 28-12 29-12 29-13 31-14 30-14 32-14 32-14 32-16 33-16 32-15 34-17 31-17 32-16 33-16 31-16 31-16 29-15 29-15 29-14 30-13 27-14 25-12 25-11 23-11 23-10 22-19 39-16 35-14 31-10 27-12 31-7 26 20 12"/>
<path d="M8812 6461l-1-1-16 20-9 26-8 30-5 29-3 25 0 27 0 30 0 31 4 28 6 25 12 23 22 15 28 1 23-8 23-14 19-20 14-24 8-23 2-25-19-17-29 1-24 6-22 11-23 18-16 18"/>
<path d="M8824 6373l-2-2-23-11-27 5-21 18-16 18-19 23-18 27-19 30-19 31-10 23-10 24-9 22-6 24-5 24-4 36 0 25 3 24 7 36 12 34 10 22 11 22 21 27 26 18 29 14 32 8 35 3 24-2 25-3 25-7 25-9 25-13 24-15 22-18 22-20 19-23 19-24 15-24 13-27 12-26 9-25 6-28 4-25 0-25-3-26-6-24-10-25-12-21-14-22-16-23-17-22-16-24-18-19-19-18-26-20-26-15-26-8-26-4-24-1-27 5"/>
<path d="M9698 4684l 0-1 22 13 17 18 19 15 25 22 21 16 25 19 27 21 30 22 34 26 34 27 38 30 21 15 21 15 21 16 22 15 23 16 23 17 24 17 24 17 25 17 25 19 25 19 27 18 26 20 26 21 26 20 28 20 26 22 27 21 27 21 27 22 27 23 28 22 28 23 29 24 28 22 29 23 29 24 29 23 29 23 30 23 29 22 29 22 30 22 30 23 29 21 29 21 29 21 28 19 28 19 28 20 27 18 28 18 27 19 27 17 27 19 27 17 26 17 26 17 25 16 25 17 24 15 24 15 23 14 22 14 21 13 22 12 39 24 37 23 34 22 31 19 28 18 26 17 23 14 28 19 22 17 18 17"/>
<path d="M11641 6349l 1 0 26 2 26-3 30-3 28-3 30 2 25 5 20 16-5 26-11 24-12 24-15 27-15 26-14 24-13 25-6 23"/>
<path d="M11774 6267l-3-1-28-5-27 0-25 4-26 7-27 10-28 16-22 17-20 19-20 20-19 24-18 29-11 22-9 23-6 23-3 26 0 24 3 25 9 34 15 31 15 19 24 25 28 20 32 14 24 6 24 6 25 4 24 1 26 1 25-3 24-5 26-7 24-9 23-9 21-13 18-16 18-18 22-28 13-22 11-22 10-24 6-23 4-36-2-25-4-24-7-27-8-27-11-27-12-29-16-26-16-25-18-22-19-19-19-19-22-15-22-15-23-11-33-12-32-4-32 1-33 6-34 12-22 10"/>
<path d="M2118 7276l 0-1-11 23-12 28-12 28-17 33-15 26-18 31-19 33-20 38-24 43-12 22-13 23-16 24-14 25-15 27-16 27-17 29-17 29-18 29-18 30-18 31-20 32-19 32-21 31-20 33-22 32-21 32-22 34-22 32-23 33-23 32-22 32-22 31-22 32-22 31-22 31-22 30-20 31-20 29-22 31-20 28-21 28-22 28-19 27-20 27-18 26-17 24-16 24-16 23-15 24-13 21-24 38-23 36-21 28-15 23-15 20-17 21-16 19 22-19"/>
<path d="M1007 9254l-2-2-17-17-20-15-28-4-28 5-22 14-16 18-12 21-10 23 4 27 17 19 23 15 23 10 23 9 25 14 17 18 16 23 6 25 1 26-2 27-6 25-8 23-17 23-22 12-28 0-21-13-13-24-8-26-1-26 6-29 9-31 9-26 11-25 13-25 11-25 13-23"/>
<path d="M957 9096l-3-2-24-11-27-1-28 6-21 13-23 18-20 20-19 26-12 21-13 23-13 25-11 25-9 26-9 28-6 28-5 29-3 30 1 30 0 30 3 28 3 27 6 25 10 23 12 22 16 21 25 25 19 15 30 17 32 12 34 6 35 3 32-1 30-7 30-12 31-18 20-16 21-20 18-22 16-25 14-28 13-26 9-31 9-30 5-29 3-30 0-29-2-28-3-28-6-28-9-28-10-26-12-25-14-22-17-21-19-21-19-17-22-18-18-16-29-23-27-21-23-12-30-7-24-3-26 8"/>
<path d="M2643 7219l-1-1 20 23 16 22 20 30 17 25 16 29 19 31 19 32 17 35 21 38 20 38 21 41 21 40 23 40 24 42 22 42 13 22 12 23 12 23 13 24 12 24 13 25 13 25 15 25 15 27 14 26 15 28 14 28 14 28 13 28 15 30 15 30 15 30 15 30 15 31 16 33 16 31 17 32 16 31 17 31 16 30 16 29 16 29 16 27 16 27 15 27 14 25 14 25 13 24 14 23 14 23 12 21 14 21 24 38 24 36 20 29 18 29 15 26 12 22 10 23 10 22 9 25-26 0"/>
<path d="M3736 9199l-2-2-18-15-22-16-25 0-21 14-16 19-11 28-8 29-7 24 2 27 19 16 27-8 23-13 20-15 19-18 20-16-8 24-7 23-3 25 3 25 4 25 5 28 7 24 7 23"/>
<path d="M3739 9065l-4-2-26-10-25-5-25-1-23 8-24 18-15 22-18 26-11 22-11 26-10 32-9 35-5 26-4 26-1 28-2 28 2 28 5 26 7 28 9 27 11 26 15 23 20 28 24 20 19 16 26 11 29 8 28 2 28-1 25-6 23-11 23-14 24-20 23-25 20-29 16-30 9-24 7-23 5-25 3-24 1-36-3-34-3-24-12-32-16-29-22-27-18-19-19-16-22-15-20-16-21-13-23-13-32-15-30-10-26-8-25-6-29-1-23 10-18 17-12 23"/>
<path d="M5655 7179l 2-1 11 21-13 26-15 22-18 21-19 19-15 18 22 13 24 0 23 9 12 21 2 25-2 26-9 23-11 23-11 23-6 24-4 26 7 25 18 16 24 4"/>
<path d="M5752 7316l-1-2 21-14 25-2 24 4 23 12 6 23-6 24-10 23-15 25-16 24-15 22-13 22 7 23 27-2 26-3 28-10"/>
<path d="M5918 7245l-1-1 25-3 24 9 8 25-6 24-9 23-11 23-3 25 15 19 21 12 23 10 24 7 21 12 5 24-6 24-7 24-10 22-12 22-18 18-24 12-26 7-24 1"/>
<path d="M8497 7218l 0 1-22 12-22 12-20 17-18 17-13 23 23 10 25-1 25 7 23 13 10 23-6 24-13 22-15 21-13 21 6 23 7 24 10 23"/>
<path d="M8692 7279l 0-2-5-26-10-22-25 0-21 14-17 19-17 23-10 23 9 23 27-1 25-12 24-16 20-15-10 26-7 27-2 26 2 28 3 24 8 25"/>
<path d="M8778 7198l-1-1 23-10 24 3 23 11 9 23-12 22-15 21-13 23-8 23 24 9 24 7 20 14 9 25 3 26 6 24 5 25-4 25-16 19-25 5-24 4-27 2-24-1"/>
<path d="M11468 7101l 1-2-26 10-21 17-18 17-15 21 21 15 28 5 25 5 20 14 8 23-12 23-14 19-6 25-10 22-3 25 9 22 23 9"/>
<path d="M11606 7196l-1-1 6 24 4 25 1 30 0 27 1 26 0 24"/>
<path d="M11680 7123l 0-1 25-6 26 7 21 13-5 26-13 24-15 23-9 23 25 5 24 7 22 12 14 22 6 25 1 24-6 25-13 22-24 11-27 2-26 4"/>
<path d="M711 10011l-1 0-23 11-18 20-17 23-14 20-15 22-14 24-9 23 16 19 27 0 27 2 26 3 23 10 8 24 0 26-8 24-12 22-2 24 2 25-5 24-2 25 0 25 16 18 24-9"/>
<path d="M838 10198l-1 0 21-14 25-6 24 3-5 27-11 23-14 21-14 22-12 23-14 26-1 26 22 16 25 1 29-4 25-5 22-11"/>
<path d="M1014 10092l-1 0 24-11 25-5 10 22-13 21-15 21-12 25-9 24 0 24 13 21 26 9 23 6 21 13 10 23 9 24 3 26 3 27 4 25 2 27-6 26-13 22-18 16-23 12-27 9-24 5"/>
<path d="M3534 9911l 0-1-22 11-18 23-15 25-11 22 3 25 20 15 24 11 22 11 20 15-8 24-13 22-16 23-19 17 12 24 10 24 3 26-6 25-4 25-5 26-4 24 5 27 17 17 22 10"/>
<path d="M3652 10061l-2-2 20-14 24-7 25-11 24-6 24-1 10 26-2 24-6 24-10 28-8 25-7 25-7 28-5 25-4 25"/>
<path d="M3845 9988l 0-1 15-19 24-7 9 23-12 21-7 25-7 24 9 23 21 11 17 17 23 12 18 16-6 25-6 23-6 25-8 23-4 25 0 25 0 24 1 24-9 25-12 21-24 8"/>
<path d="M522 6305l-2 0 25 7 24 8 18 17 8 25-6 25-7 25-17 17 25 8 24 3 23 9 16 18 2 24-10 23-10 26-10 24-10 27-7 25-8 25-5 25-2 26 5 27 10 25 17 18 27 10 27 6"/>
<path d="M856 6374l-2 0-24-1-19 15-12 25-3 25 1 28 7 31 11 27 16 25 22 20 22 12 24 6 27-3 23-17 14-26 12-25 6-25-2-26-11-24-15-20-17-24-17-18-23-15-23-9"/>
<path d="M1096 6547l 0 1-4 24-2 25 1 24-4 27"/>
<path d="M1117 6335l-1 0 26 1 25-3 24-1 17 18-5 24-11 26-11 24-8 24-2 24 22 10 24-5"/>
<path d="M1355 6479l 0-1-2 26-4 27-5 26"/>
<path d="M1379 6265l 0-1 19-16 21-11 21-12 24-10 24-2 2 25 1 26 2 26 0 24 2 27 4 29 5 25"/>
<path d="M1627 6429l-1 1 2 24 0 25-6 28"/>
<path d="M1751 6259l-1-2-2-27-5-23-18-17-20 14-15 23-9 26-6 23-1 27 8 23 23 8 23-6 18-17 12-23-1 24 2 27 5 26 1 24 16 21"/>
<path d="M1859 6112l 0-1 2-24 24-7 23 8 14 20-13 22-14 21-10 24-8 23 11 22 23 9 24-2-1 27-11 22-2 24 23 13 23 9 23 10 8 24-3 26-9 25-9 23-13 21-16 18-21 12"/>
<path d="M10503 4197l 0-1 8 24 0 26-3 28-7 28-9 24-9 22-13 22-8 23 16 20 20 13 21 16 10 22-6 25-12 23-16 22-14 20-14 20-9 24-7 24 13 21 21 13 26 3"/>
<path d="M10655 4405l-1-1-21 12-11 22-7 28-2 28 2 25 8 22 15 20 22 18 27 13 25 5 24 0 29-5 28-10 22-15 15-23 8-26-6-27-10-25-16-26-18-22-19-18-23-14-28-2-22 10-18 19-10 25"/>
<path d="M10976 4595l-1 2 0 25-3 24-9 24-14 23"/>
<path d="M11128 4377l 0 0 8 23 6 25 6 25 5 25 5 25 6 30 5 24 8 28 6 28"/>
<path d="M11323 4630l-1 2-13 21-11 24-14 21-14 21"/>
<path d="M11639 4409l-2-2-20-15-23-10-25 0-28 6-22 11-21 15-20 22-10 25 4 25 25 15 26 4 25-3 27-3 25-6 24-12 13-20-17 18-4 25 0 24 0 28 0 24 3 28 3 24 4 26"/>
<path d="M11722 4661l 0 1-2 27-2 24-6 28-12 23"/>
<path d="M11977 4389l-1 1-7 23 0 26 1 30 1 25-1 25 0 27-1 28-3 27"/>
<path d="M12116 4451l-1 0-10 24 3 25 13 25 15 23 19 18 20 15 24 3 27-2 23-8 23-16 15-20 6-25-10-24-16-22-23-18-25-10-27-5-26 2-24 14-20 16"/>
<path d="M12475 4220l-1-1 24-11 28-6 25-2 25 4 7 25-10 25-15 24-13 22-15 19-16 19-14 24-9 23-2 26 17 18 23 8 15 22-10 22 5 24 17 18 19 18 17 18 15 21 11 22 8 24 0 24-8 24-16 19-20 15-24 6"/>
<path d="M2306 11832l-1 1 18 18 25 4 27-6 23-16 20-18 20-22 16-19 13-22 7-27-9-24-20-14-28 0-26 12-21 12-16 18-15 22-13 22-11 22-6 28 0 25 2 26 9 25 13 25 19 22 22 16 21 14 27 9 26-2 27-2 25-13"/>
<path d="M2608 11711l 0-2 16 20 8 24 5 25 4 28 4 25 2 25 0 30 2 27 1 28-7-26-3-29 1-30 3-31 4-30 8-27 10-27 8-23 14-22 20-21 21-18 23-11 24-5 28 1 20 14 20 18"/>
<path d="M2958 11944l 0 0 26 3 26-9 25-13 20-17 18-18 20-22 18-28 20-30 12-21 11-22 15-33 12-34 8-32 5-35 0-34 0-25 0-34-3-32-5-29-6-24-11-24-17-17-25 1-20 18-19 22-13 25-13 31-8 33-4 27-3 25 0 25 2 25 6 37 6 25 8 25 10 23 15 29 16 25 20 24 18 24 20 22 17 19 24 19 23 16 21 15 25 6 25 5"/>
<path d="M3544 11678l 0-1 27-4 25-5 28-7 25-9"/>
<path d="M3583 11779l 1 0 26-9 24-8 24-10 24-5"/>
<path d="M3942 11723l-2 0 28-6 26-13 28-14 28-15 22-18 19-19 16-18-4-24-28 1-28 7-24 14-24 16-23 16-20 18-15 22-11 28-5 30 0 33 6 28 12 22 17 20 21 17 26 5 30-5 31-9 23-12 25-13 22-16"/>
<path d="M4202 11624l-2-1 27 5 22 16 18 19 16 22 14 23 10 23 12 24 13 23 18 20 23 13 26 0"/>
<path d="M4434 11602l-2-1-25-3-27 10-22 17-25 20-20 20-21 23-21 25-20 23-18 23-17 24-9 27"/>
<path d="M4611 11614l-2 0-24 9-21 16-17 18-16 21-14 22-11 24 0 26 6 24 19 18 30 5 27-1"/>
<path d="M4708 11735l-3 1 24 2 21-13 24-21 20-16 19-17 21-22 20-25 19-26 18-29 15-28 13-32 9-35 3-34 1-34 0-25-3-36-4-33-6-25-10-25-19-17-22 11-15 21-16 29-9 24-9 29-6 34-5 34-3 35-2 27 0 26 0 28 2 26 2 24 5 34 6 30 10 23 16 25 17 20 22 15"/>
<path d="M4989 11613l-1-1-15 20-2 24 4 27 19 16 26 0 24-12 23-19 16-23 12-24 5-26-6-24-8 25 6 27 11 24 17 19 26 8"/>
<path d="M5414 11557l-1-2-14-21-22-10-24 1-27 9-26 13-25 18-19 16-17 18-20 24-11 21-2 27 20 19 25 6 29-7 26-12 23-12 21-14 16-18 14-21 14-24 10-23 8-24 7-28 3-32 1-35-1-25 0-26 0-27 0-26-3-33-6-31-7-29-19-15-18 22-15 28-10 25-8 32-5 31-1 34-2 34 2 36 3 26 6 35 8 29 12 26 15 26 16 19 24 15"/>
<path d="M5505 11582l-1-1 26-7 24-12 22-13 10-22-12-25-23-15-26-3-25 6-20 20-11 22-9 23-5 27 4 26 13 22 21 20 23 13 22 11 25 3 28-1 28-4 25-9"/>
<path d="M5799 11569l 1-2 6-24-1-24-15-21-28-2-24 13-22 20-18 18-16 21-11 23-10 29-4 24 9 25 23 10 24-5 28-16 20-16 21-19 20-24 18-24 18-27 14-31 11-32 7-33 4-34 1-25 1-26-1-29 0-27-1-30-2-29-1-29-2-28-3-27-6-32-5-24-8-23-21 13-13 25-7 26-4 27-3 30-2 36 0 25 0 29 0 27 0 31 0 31 0 33 1 33 0 34 2 33 1 30 0 28 3 27 4 24 9 33 9 27 9 23 12 22 24 16 25 0"/>
<path d="M6521 11547l 0-1 16 22 5 24 0 29-2 26-2 26-3 26-5 24-7 25-3-25 8-31 9-23 11-27 12-25 15-24 13-23 15-19 18-26 16-21 20-20"/>
<path d="M6735 11573l 0 0-9 23-2 25 0 27 4 24 24 9 25-11 19-16 20-18 20-20 16-21 15-23 10-24 3-25-23 10-10 26-3 27 4 26 16 22 23 14 24 0 25-8 25-17 20-17 16-22 9-25-24 0-14 21-12 21-5 26 13 20 23-14 19-18 16-19 16-20 15-19 14-21 13-21-6 27-4 25-1 26 5 25 12 26 19 18"/>
<path d="M2301 13312l-1 0 24 5 26-6 22-13 21-18 18-19 15-21 13-21 9-24 8-27-6-23-21-17-27 2-20 13-20 20-16 19-17 22-14 25-12 27-10 28-9 26-8 25-5 32 1 27 6 26 10 22 19 21 24 16 28 4 26-2 27-9 21-14 19-14 25-19 25-19"/>
<path d="M2553 13168l-2 0 26-12 24-7 26-6 25 3 15 23-5 26-11 25-9 24-9 22-11 22-15 24-8 23-3 25 24 5 24-13"/>
<path d="M2781 13358l-1-1 21 16 24-16 22-19 18-19 18-25 14-23 14-26 15-30 12-33 13-32 12-31 11-32 8-36 6-33 3-36-2-35 0-31-3-24-6-28-13-23-26 3-18 16-16 25-10 29-9 25-9 30-7 34-4 26-3 29-1 28-1 30-1 28 0 30 1 30 4 30 6 29 6 24 10 32 12 27 16 26 14 24 20 20 20 19 24 15 28 4 28 3 27-4 26-9"/>
<path d="M3251 13411l 0 1 5 26 0 26 2 27 1 26 2 24-1 26-1 27-4 26"/>
<path d="M3400 13092l-2 1 23 9 25 2 24 2 26 4"/>
<path d="M3416 13204l-1-2 27 2 26-5 28-4"/>
<path d="M3711 12940l 0-2 12-23 27-5 25-6 27 0 26 5 22 17 0 27-9 29-9 25-10 25-13 25-12 26-10 24-11 22-8 24-9 25-7 24-5 29 1 27"/>
<path d="M3840 13388l-2 0-16 21"/>
<path d="M2306 14341l-1 0 23 8 27-11 21-12 21-15 21-17 21-19 16-23-17-18-29-1-26 3-24 5-23 9-22 10-22 15-20 21-8 24-5 29 2 30 8 27 14 25 22 19 24 13 27 8 27 1 30-1 30-4 29-9 22-12"/>
<path d="M2566 14249l 0 0 22-12 24-11 25-7 23 8-5 26-10 22-12 24-14 26-14 22-11 24-8 27-3 26 13 20 25-1"/>
<path d="M2731 14390l 0 1 27-3 25-17 20-14 19-18 22-22 20-25 19-28 19-32 18-29 15-31 14-29 11-29 7-28 4-27-1-25-3-26-6-25-7-29-8-23-10-22-16-20-26 0-18 19-13 28-9 31-6 29-8 33-5 36-3 36-1 27 1 26 0 25 4 25 4 24 10 32 9 29 11 23 16 26 18 20 22 18 26 11"/>
<path d="M3118 14326l 0 0 26-9 26-7 24 5 0 27-14 23-15 22-18 23-16 21-15 24-14 22 8 25 25 9 28-2 27-8"/>
<path d="M3418 14113l-1-1 23-11 27-5"/>
<path d="M3424 14203l 0 0 26-5 26-7"/>
<path d="M3638 13955l-1 0 17-20 21-14 24-8 26-6 27-1 24 5 14 20-1 26-5 26-11 28-12 25-11 24-10 24-8 23-10 23-10 23-9 29"/>
<path d="M3730 14335l-1 1"/>
<path d="M9787 11692l-1-1-4 26-6 26-8 25"/>
<path d="M10292 11435l 0-1 20 18 2 27-3 30-5 24-5 25-10 28-8 23-10 22 7-27 11-28 12-24 12-25 13-25 16-24 15-20 19-18 19-17 21-17 22-11 22 14-1 28-5 27-6 29-9 29-7 25-4 25 22-12 13-20 17-25 18-23 18-25 16-24 16-22 17-22 14-19 2 27-5 30-4 25-4 25-2 26 0 26 9 23 17 18 29 0 24-10"/>
<path d="M10718 11490l 0-2 24-9 24-11 21-11 21-14 17-17 10-24-13-21-25-11-26-1-26 8-22 20-17 20-17 25-7 25 2 24 11 26 18 19 25 10 25 8 29-3 24-4"/>
<path d="M10948 11336l-1-1 24 4 23 14 18 18 18 20 13 21 10 22 15 19 16 21 15 20 21 12 25-7"/>
<path d="M11142 11325l-2 0-25 11-18 16-17 21-16 19-18 21-18 21-18 24-16 24-16 26-14 25-11 22-9 26"/>
<path d="M4622 15158l 0 0-21 14-16 22-20 19-15 19-15 22-14 21 6 23 25 5 26 8 21 16 15 23 0 25-3 27-6 25-8 23 7 23-2 26-10 26-4 27-5 27-4 25-1 27 0 26 3 26 5 26 13 24 17 20"/>
<path d="M4798 15503l 0 1 0 27 2 27 0 25 4 25 8 24 16 23 25-3"/>
<path d="M4826 15329l-5 2-23 11"/>
<path d="M5038 15673l 0 1 2 26 0 28-6 24-7 25-8 26-12 26"/>
<path d="M5317 15584l 0 0 26-8 26-10 21-12 24-13 17-18 8-22-21-18-26-5-27 10-21 18-14 22-13 26-9 28-5 30-2 27 8 24 20 16 25 6 26 2 26-4 28-8 23-8"/>
<path d="M5536 15536l-1 0-2 25 12 23 4 25 1 25-12-25 0-25-1-24 1-24 6-26 12-22 16-17"/>
<path d="M5711 15586l 0 0 22-17 19-17 22-21 17-21 18-21 16-23 12-26 10-27 6-25 0-28-5-31-7-29-9-24-10-22-27 0-19 19-18 27-14 25-11 29-8 32-5 32-1 29 2 27 5 25 7 24 14 28 17 24 20 20 22 17 22 13 25 10 26 5"/>
<path d="M5992 15569l-1 2-11 25-4 25-1 27 3 27 4 26 21 13"/>
<path d="M5981 15445l-5 1-25-3"/>
<path d="M6193 15193l 0-1 20-16 25 3 20 16 7 23-9 24-14 25-13 21-13 23-12 23-4 26 9 22 17 19 22 13 22 9-5 24-16 22-8 25 16 22 24 13 22 16 20 17 11 21 5 24-2 25-11 22-15 20-18 16-26 13-27 6-25 3-24-9"/>
<path d="M6527 15668l 0 0-1 25-2 26-5 29-6 28-6 23"/>
<path d="M6762 15518l 1 0 3 24 1 28-3 28-4 25-7 24-9 26 10-24 16-26 13-22 18-23 20-19 18-20 22 12 2 28-6 27-5 27-6 24 21-19 15-22 16-22 15-19 15-21 25-1 8 27 4 25 5 24 9 24 23 8 24-7"/>
<path d="M7154 15553l 0-1 19-16 20-16 21-19 13-20-24-7-26 9-25 15-21 16-16 19-13 21-11 24-1 25 15 23 25 6 28 4 26-3 22-8 24-12"/>
<path d="M7327 15477l 0-1 26 2 23 9 19 15 21 18 17 20 14 21 20 15 22 12 27 0 22-10"/>
<path d="M7481 15455l-5 3-24 14-20 14-21 21-18 20-18 28-14 20-16 27-14 24-8 24"/>
<path d="M7529 11547l-1-1-3 29-1 26-6 32-4 25-5 26-5 25-6 27-8 27-7 27-9 27-9 25-10 25-9 25"/>
<path d="M7557 11479l 1-1 19-14 27 10 21 11 21 16 19 20 12 23-1 25-13 24-17 19-19 15-25 15-21 13"/>
<path d="M7761 11548l-2 1-15 22-9 25-4 25 7 25 22 14 27-2 22-12 22-15 21-17 17-20 15-24 5-27-8-24-16-19-25-10-24 6-19 16 8 23"/>
<path d="M7963 11506l 0 0 16-20 20-16 22-17 20-20 16-19 1-25-24 10-7 27 6 26 14 23 17 21 14 24 11 24 2 26-8 24-21 20-22 11-27 4-24-3-21-15 20-14 24-9 24-2 27-2"/>
<path d="M8627 11101l-2-2-23-6-22 16-16 22-13 20-14 23-14 24-10 28-6 30-5 31-1 30 0 30 1 32 2 32 2 33 1 33-2 34-3 31-2 29-5 25-7 27-9 26"/>
<path d="M8381 11444l 0-2 14-22 23-13 25-12 28-9 28-6 28-2 27 1 28 3 23 10 9 24-13 25-12 23-10 27-6 25-3 25 8 23 23 10 27-9 24-15 17-21 10-24 0-24-8-24-11-24 24 6 24 8 22 12 21 13 11 21-1 27 12-22 7-25 10-26 11-23 14-21 18-20 24-14 28-6 28 1 27 9"/>
<path d="M7344 12353l 0 1 27-3 25-11 26-15 19-15 20-18 22-22 16-18 16-20 18-21 17-24 17-23 16-23 14-24 12-22 10-23 12-33 8-31 3-28-3-27-6-26-20-16-26 8-18 17-15 22-17 27-16 29-14 32-14 32-7 24-7 31-3 29 1 24 5 25 9 25 15 23 21 15 22 12 25 4"/>
<path d="M7661 12231l-2 1 23 8 27-6 23-11 21-16 13-21-18-16-25 4-20 14-17 20-11 26-6 24 9 25 22 15 25 1 26-2 27-10 24-14 20-15-7 23 26-6 19-16 20-20 17-19 18-17 18-18 18-16 19 15 0 25 2 25 4 27 8 25"/>
<path d="M8452 12140l-1-1-20 17-12 23-13 25-10 25-7 24 0 26 13 22 26 9 26-2 27-11"/>
<path d="M8474 12023l-2-1-26-3"/>
<path d="M3375 11896l-1 1-8 26-5 27 0 26-1 27 2 26 10 24 23 6"/>
<path d="M3386 11773l-2 0"/>
<path d="M1171 17429l 0 0 22 10 24 0 24-7 22-13 16-18 12-21-12-22-27-5-25 3-23 12-16 22-13 20-11 25-7 30-3 28 2 25 4 25 13 21 21 16 29 4 26-6 27-13 21-16 25-16 20-25 13-30"/>
<path d="M1389 17341l 0 0 22 10 26-6 25-2 25 0 16 18-9 23-15 25-13 27-13 25-10 22 1 25 19 15 24 7 25 0 25 1 25 3 24-13 23-21 19-25 15-23 16-25 15-28 13-28 13-25 13-27 12-29 7-32 3-33 1-35-1-36-1-25-2-25-4-30-4-25-10-22-14-21-23 12-13 21-11 28-10 27-9 34-5 29-4 28-1 27-2 27 0 24 1 24 2 24 3 36 6 33 8 33 9 27 13 30 14 22 22 19 25 9 26 1 23-10"/>
<path d="M1889 17463l 0-1-5 27-3 27-2 30-1 25-1 25-2 26 2 24 1 25 5 25"/>
<path d="M2076 17501l-1-2 3 26 0 27 0 25 3 27 4 26"/>
<path d="M2088 17330l-3-1-26 3"/>
<path d="M2905 17016l-1-2-1-25-15-19-22 12-19 19-12 23-9 23-9 25-8 29-9 28-5 30-3 29 0 29 2 25 0 26 3 32 3 24 2 26 2 27 2 26 1 26-1 24-4 30"/>
<path d="M2704 17288l 0-1 20-22 25-14 25-11 27-10 27-9 25-6 31-5"/>
<path d="M2975 17236l-1 1-11 23-8 26-4 24-4 29 2 27 7 28 12 22 21 13 25-6 19-19 9-24 4-29-10-23-18-18-22-13-25-3"/>
<path d="M3073 17292l 0 1 8 22 14 23 12 21 7 26 2 26-1 29-8 22-16-18-2-29 2-24 5-25 10-22 13-22 12-21 17-20 20-16 19-17 22-17 23-12 29-9 27-1"/>
<path d="M1961 17756l 0 0-2 24-4 27-6 28-8 28"/>
<path d="M3837 17332l-1 0-9 24-2 29-7 26-1 25 1 24-1 27 0 26 3 25"/>
<path d="M3865 17180l-2-1"/>
<path d="M4221 17253l-1-1-24 8-20 16-24 16-20 15-24 16-22 15-23 16 14 21 24 8 23 6 24 9 25 9 23 11 22 10"/>
<path d="M4048 17508l-1-2 26 5 18 18 22 15 22 12"/>
<path d="M4353 17363l 0-2 8-23 26 1 16 19 14 28 9 26 7 28 3 29 1 30 0 26-4 28-7 24 7-25 9-23 9-24 11-26 12-27 12-26 12-28 12-27 10-25 14-26 14-21 19-15 19 18 7 28 5 27 0 31 1 27-1 24-3 31-2 27-2 24 24-20 13-24 12-25 13-25 11-26 12-23 14-26 14-24 17-23 24 9 1 26-2 30 0 29-2 31 0 25-2 31 0 26 2 27 6 25 12 24"/>
<path d="M4873 17542l 0 0 27-6 25-15 21-15 22-18 21-19 15-22 11-22 0-27-17-17-25 0-24 16-16 19-15 20-13 22-9 29-5 27 2 27 9 26 15 19 24 13 25 8 29 2 28-6 24-9"/>
<path d="M5123 17371l-1-2 11-22 21-12 24-7 25 4 18 18 14 20 7 26 4 29 6 28 4 27 9 28 10 22 16 20 21 13 27-3 20-15"/>
<path d="M5395 17299l-2 1-25 11-25 16-21 18-22 21-22 25-16 19-16 19-18 20-17 20-15 22-15 21-19 29-16 24-12 22-11 25"/>
<path d="M5497 17515l 1-1 26-2 25 3 26 5 23 10-4 26-17 18-19 16-19 17-20 16-17 17-17 20-11 22 10 23 22 10 27 2 27-4 31-4 24-7"/>
<path d="M6389 17345l 0 0 25 7 23-6 25-12 23-17 23-21 19-22 13-21-14-22-27-4-28 6-24 9-25 14-25 16-23 18-22 19-18 19-15 20-16 24-12 23-5 28 5 23 14 22 20 17 28 12 26-1 30-3 26-5 26-7 26-12 27-15"/>
<path d="M6659 17202l-1 0 24-1 25-4 25-1 21 14-11 27-19 25-19 22-23 23-21 21-17 25-14 24 1 26 27 4 30-10 28-13 31-15 31-19"/>
<path d="M6973 17224l 0-2-15-18-27-2-25 10-25 17-21 16-18 18-15 22-11 22-4 25 18 18 29-3 22-10 24-10 25-13 17-17 3 25 21 14 26 3 28-11 26-15 22-16 23-21 20-21 39-100-9-23-7 24 11 26 18 19 19 15 21 19 16 23 13 24 3 28-11 24-16 18-23 15-22 8-28 7-28-2-19-18 6-25 18-20 22-14"/>
<path d="M7292 17266l 2 1 24 10 26-9 23-14 23-16 20-18 17-21 5-23-18-17-24-6-25 8-21 14-21 21-17 25-12 22-7 26 5 26 19 18 27 8 27 3 24 0 25-5 25-8 24-7 24-6"/>
<path d="M7638 17171l-1 0-24-6-25 0-25 10-17 16-19 21-15 19-14 20-12 29-6 25 4 26 14 22 26 12 28-4 25-10 20-14 21-21 19-24 18-27 18-30 15-32 9-23 8-23 7-24 6-23 5-36 2-24 2-25 2-24 1-36 1-30-1-25-7-24-26-6-21 18-18 24-13 23-12 28-7 37-4 25-2 25-1 28 1 25 1 28 5 29 4 29 7 27 9 23 12 30 16 25 16 22 15 20 19 20 23 16"/>
<path d="M5759 7999l-2-1 9 24 18 19 20 20 20 22 19 21 21 22 25 21 19 15 21 13 22 12 24 10 25 10 28 9 30 7 33 3 35 0 26-4 27-2 30-2 30-1 32-1 32-3 33-3 35-3 37-4 39-6 41-5 44-6 45-6 48-5 25-3 25-5 26-4 27-4 26-4 27-4 26-2 28-5 28-2 27-2 28-3 28-2 29-3 28-1 28-2 28-2 28-3 28-1 29-1 28 0 28 0 28 0 28 0 27 1 29 1 26 1 27 6 26 3 27 3 26 3 27 4 26 4 25 6 26 5 26 2 26 5 25 6 26 6 25 5 24 6 25 6 24 7 24 7 46 13 23 10 23 9 22 9 22 11 22 11 43 20 41 22 38 22 37 23 35 22 33 25 32 25 30 22 27 27 24 23 22 21 19 21 18 18 22 24 18 19 19 16 25 2 13-27 9-27 7-29 9-28 9-29 10-23 13-21 17-19 20-21 24-18 25-19 28-17 32-17 23-8 25-9 26-8 28-8 29-8 31-10 33-9 35-9 36-8 38-6 38-8 39-6 40-6 40-7 41-5 43-5 43-4 43-3 43-4 46-3 46-3 46-2 47-3 47-2 48 0 24-2 24 0 25 0 25 1 25 0 25 1 25 0 25 0 25 2 25 1 25 0 26 1 26 1 25 1 25 0 26 2 26 1 27 0 25 2 27 1 25 1 26 2 27 1 26 2 26 1 26 2 26 1 25 2 28 2 26 2 26 2 26 3 25 2 26 2 26 1 26 2 25 1 24 1 25 1 25 0 25 2 25 1 26 1 48 0 46 1 46-2 44-2 41-2 42-4 39-3 40-4 38-5 37-6 35-6 31-8 33-7 28-8 27-10 26-9 34-14 23-10 31-17 29-18 25-17 22-18 20-25 16-27 14-27 9-27 3-26-3-25"/>
<path d="M5539 17261l-1-1 17-17 26-8 27-4 23-6"/>
<path d="M5778 16996l 0-1 10 24 7 26 6 24 5 26 4 32 1 30 0 31 1 32 0 34 0 25-1 26-1 27 0 25-1 33 0 29 0 28 0 31 1 27 1 25"/>
<path d="M11830 5096l 0-1-24-1-25 10-26 8-24 9-22 10 8 23 6 26 4 24 4 27 1 28-1 28-2 25 0 29-1 30-3 29-3 28-2 25-1 26-4 26-1 24 25 6 24 0 27 0 26 0 25 0 25-4 25-7"/>
<path d="M11993 5239l-1-1 24-5 27-1 26 1 25 5 2 25-16 18-21 22-17 19-20 19-20 18-17 18-13 22 19 16 25-1 29-2"/>
<path d="M12163 5407l 0-1-6 24-9 25-9 24"/>
<path d="M12450 5234l 0-2 2-25-7-25-22-15-27 0-23 9-24 11-22 17-19 19-2 24 22 11 25 9 28 7 24 6 22 9 21 12 21 16 12 21-1 29-11 22-16 20-21 19-24 14-25 3-5-27 9-30 13-26 14-27 16-21 16-23 16-21 20-20 19-19 23-19"/>
<path d="M12593 5071l-1-1 28-7 24 0 27 0 28 0 27 2 24 0 26 1 19 16-4 25-3 28 1 25 2 27 1 29 1 29 2 29 2 26 3 25 4 29 1 25 2 27 0 29 0 26 0 24-6 25-16 19-23 10-27 7-24 4-26-1"/>
<path d="M13021 5499l-1-1-23 13-16 18-17 22-16 21"/>
<path d="M13355 5089l-1 0-23-8-25 6-24 8-22 10-25 11-19 15 2 26 2 24 3 25 5 25 5 24 3 28 0 28-1 30-4 27-7 31-8 31-7 28-6 27-7 24-4 26 2 24 19 18 25-6 24-6 25-6 27-2 26-8 27-3 24-6 25-2"/>
<path d="M13474 5177l-1 0-7 23-2 30 2 27 1 27 2 25 4 24 5 28 3 24 7 24"/>
<path d="M13610 5183l-1 0-15 21 2 28 5 24 7 26 9 25 5 25 5 27"/>
<path d="M13751 5442l-1 0-7 27-6 25-10 22-14 21"/>
<path d="M14016 5280l-1-2-23-9-23 13-16 18-17 19-14 21-10 22-6 24 7 24 25 9 24-4 25-12 20-17 19-16 20-19 22-20 17-18 22-22 20-19 19-15 21-16 22-11 24-10 24-1 19 16 11 22 11 23 8 23 2 24-16 20-23 16-25 11-25-2-27-5-26-7-25-10-25-11-20-14-18-15-12-22"/>
<path d="M14296 5061l 0-1 23 9 16 19 21 21 18 16 22 16 23 18 22 19 17 17 18 23 12 24 9 23 4 28-7 24-11 23-17 25-14 20-15 19-17 24-16 22-16 21-16 18"/>
<path d="M7212 8954l 0-1-23-5-25 2-24 2-13 23 2 25 2 26 2 26 1 28 0 28 1 25 1 26-1 26-1 24-1 26-1 27-2 28-1 28 1 26 2 26 1 26 4 25 25 0 23-6 25-5 25 1 23 6"/>
<path d="M7289 9044l 0-2 4 25-6 27-9 26-9 28-8 23-8 25-3 26 23 10 24-1 25-3 24-6 26-3 25-8 24-5"/>
<path d="M7382 9075l-1-1-2 27 4 25 4 29 3 25 3 25 2 25 1 28-2 25"/>
<path d="M7558 9315l 0-1 3 27-4 24-7 24-10 27"/>
<path d="M7887 9072l 0-1 11-22 1-24-21-14-24-7-25 9-21 13-19 16-18 22-13 21 0 25 21 17 23 7 25 5 26 6 26 9 22 10 22 17 17 21 8 27 0 24-9 24-13 27-13 20-19 21-21 16-20 12-25 8-21-17-9-28 2-34 5-29 7-28 9-28 11-27 13-26 14-24 17-26 18-21 16-18 20-14"/>
<path d="M8055 8931l 0-1 24-7 26 0 26 0 24 0 20 15 3 27 2 26 2 27 3 30 3 28 1 31 2 25 3 27 2 24 4 25 3 24 4 26 3 25 4 24 5 29 5 29 4 26 2 24 4 25-10 23-25 8-27 4-25 4-26 1"/>
<path d="M8408 9470l 0 0 5 23 2 25-2 25-12 25-13 21"/>
<path d="M8798 8943l 0 0-25-2-25 3-23 8-25 8 0 25 6 25 1 25 0 27 2 26 3 25 2 25 1 24 0 24 2 24 2 27 3 25 0 24 1 27 0 25 2 26 3 27 0 25-1 24 1 24 25 4 25-2 23 6 24 3"/>
<path d="M8921 9057l-1 0 9 24 2 29 2 27 1 27 1 27 0 25 0 28-1 26-2 25"/>
<path d="M9013 9057l-1-1 18-21 26-12 27-8 28-6 26-2 22 11-8 27-18 22-19 19-19 19-21 14 25-1 24 3 29 1 25 1 24 4 23 11 9 27-9 24-14 22-17 20-19 19-23 18-24 10-25-4"/>
<path d="M9334 9327l 0 1-3 26-9 27-11 21-16 23-16 22-15 21"/>
<path d="M9668 9082l-1-2-10-21-25 0-22 17-18 17-19 21-13 20-10 24 5 26 27 6 26-8 25-8 21-12 25-13 22-16 23-16 23-15 23-12 25-2 24 6 22 10 19 17 16 21 0 25-14 23-22 17-24 11-28 6-29 0-24-6-28-13-25-17-23-18-21-18-6-25"/>
<path d="M9800 8864l 0-1 27-2 21 14 22 16 25 15 25 18 21 19 23 17 21 16 19 21 16 21 11 26 9 27 6 28 2 30 3 30-3 31-4 25-5 25-9 27-10 26-13 27-11 22-14 26-17 22-16 19"/>
<path d="M1229 -185l 1-2 9-26 15-20 20-15 25 3 20 20 18 23 16 25 11 27 10 23 15 25 10 26 12 27 12 27 14 25 13 20 21 24 23 19 24 14 23 7 26-2 27-10"/>
<path d="M1553 -271l-4 2-22 12-21 21-18 20-21 24-22 25-19 29-18 28-13 21-12 21-13 21-12 21-17 31-14 28-13 26-9 24-11 28"/>
<path d="M1730 -529l-2-3 6-26 20-16 30-8 28-5 27-3 27 0 27 0 25 6 4 25-15 22-20 21-19 16-20 17-20 18-20 18-20 18-21 20-16 19 25 9 28-9 27-10 28-11 28-4 29-1 28 1 32 3 24 6 28 11 25 14 21 19 9 27 1 28-6 31-11 24-11 25-12 25-13 24-15 22-17 20-18 18-22 15-25 14-26 12-26 10-29 8-31 4-26 2-24 0-25-3-24-14-13-24"/>
<path d="M2249 -440l 1-2-5 30-6 27-10 28-12 27-10 27-6 24-3 27 7 24 21 14 25-6 24-15 22-20 16-18 18-22 16-25 12-22 2 26 3 25 5 26 10 22 18 23 20 15 24 7 25 2 26-2 27-7 27-12 23-16 17-18 14-21 10-23 4-26 2-27-7-28-15-28-16-25-16-18-22-16-23-12"/>
<path d="M4985 -286l 0-4 10-26 13-21 15-19 17-17 23-11 27-1 23 16 16 22 10 22 8 26 8 28 7 28 8 28 8 28 9 27 11 25 15 25 16 19 20 14 22 10 25 1 28-6 25-13 24-19"/>
<path d="M5344 -413l-4 2-23 15-21 23-18 23-20 26-20 29-13 21-14 21-15 23-15 24-15 26-16 26-16 26-15 25-14 22-12 22-15 25-12 22"/>
<path d="M5492 -456l 1-2 22-16 23-9 24-6 26-6 28-4 28-4 28-3 24-2 27 0 23 10-9 26-19 20-23 17-20 15-22 13-22 13-25 10-23 9-25 11 29-5 28-9 28-7 29-4 28-3 26-1 24 2 28 9 26 14 21 17 15 21 3 27-8 25-11 21-18 23-18 17-17 18-18 16-19 16-22 12-22 11-25 11-28 9-30 6-31 4-29 2-27 0-30-4-27-8"/>
<path d="M5942 -444l 0-1 11 26 0 27-2 27-4 27-3 26 0 29 6 25 25 12 30-6 28-14 22-14 21-16 19-17 18-23 12-22 5-25-18 15-7 25-3 27 1 25 9 28 15 20 19 19 21 14 23 11 26 3 27-1 28-5 28-10 25-14 20-17 16-25 6-28-1-28-6-25-8-27-10-30-9-30-9-28-11-26-13-23-14-20"/>
<path d="M708 19750l-1-1 0 26 3 24 3 27 0 29 3 30 3 30 4 30 2 32 1 31-1 29-1 24 2 28 2 27 8 24"/>
<path d="M1026 20090l 1 0 1 26-4 25-2 26-6 28-7 26-10 26"/>
<path d="M1319 19707l 0-2 17-18 25-12 28-7 29-6 26 0 28 6 27 8 24 17 21 17 7 25-1 30-5 24-13 26-18 28-20 28-15 20-17 20-16 19-22 27-19 23-16 19-15 22-10 22 24 12 26-3 26-5 27-9 30-10 23-6"/>
<path d="M1724 20038l 1 1 13 22 6 27-2 24-7 27-9 28"/>
<path d="M2061 19637l 1 0 25-4 24-1 26-2 25 2 25 2 25 4 29 5 24 5 24 14 16 21-2 26-13 26-13 23-16 21-20 23-23 23-24 25-19 18-23 24-23 21-18 17-17 21-18 21 8 25 28 6 24 2 28 2 24-2 28-4 31-7 31-6 31-9 26-6 24-4"/>
<path d="M771 20695l 0-1-5 27-3 26-1 26-1 31-1 33 0 35-1 36 0 26 1 25 3 35 0 30 1 27 5 30"/>
<path d="M1327 20628l 1 0"/>
<path d="M1076 20987l-1 0-13 22-8 25-8 25-12 25-10 23-8 25"/>
<path d="M1272 20668l-1-1 20-14 26-9 25-6 25-6 28-3 27-3 28 2 23 5 22 16 8 26-8 28-9 23-14 27-18 31-20 30-17 18-18 18-17 19-21 17-19 19-18 17-25 21-20 20-18 19-17 22 20 15 25-5 28-7 30-10 30-10 25-6 31-5 27-4 25-3"/>
<path d="M1630 20960l 2 0-9 25-7 23-9 28-6 28"/>
<path d="M1933 20642l 1-3 22-14 29-11 25-5 28-6 28-1 26-2 25 3 24 9 22 14 3 24-14 25-21 17-23 20-20 14-25 19-22 17-17 17 6 25 25 6 25 3 27 0 27 0 26-1 26 2 25 3 23 8 16 18 3 24-10 22-15 23-16 22-21 20-19 15-21 13-25 9-25 7-29 2-27-6-23-8-21-19"/>
<path d="M3203 19669l 0-1 24-12 25-7 26-6 28-5 28-5 26-1 25-1"/>
<path d="M3195 19759l-2 0 25-3 30-6 28-8 24-6 25-9"/>
<path d="M3367 19566l-1-2 24 3 29 9 28 4 28 3 31 5 29 5 27 4 24 9 20 17-5 27-14 22-15 20-20 22-24 19-27 21-24 18-21 20-22 22-16 19"/>
<path d="M4087 19420l 0-2-20 15-19 20-19 21-15 19-17 22-16 23-16 27-14 28-12 31-11 30-7 30-6 28-4 25-1 27 1 34 5 29 12 27 16 23 17 18 25 15 22 10 24 6 28 1 26-9 23-11 18-17 15-21 6-25-12-22-22-15-25-3-25 5-29 8-27 9-23 14-24 16-20 18-17 18"/>
<path d="M3137 20664l 0 0 27-4 25-1 24-5 25-2 28-3 26-5"/>
<path d="M3141 20771l 0 1 26-11 24-9 27-10 31-8 23-6 24-8 24-10"/>
<path d="M3360 20537l-1-1 22 12 27 6 23 6 26 4 25 3 26 4 24 5 30 4 24 5 25 10 9 23-15 22-19 23-19 20-21 20-18 21-17 22-18 20-17 22-15 21-15 23"/>
<path d="M4029 20402l 0-2 24-9 25-2 28 1 28 1 26 3 24 10 14 20-5 26-9 28-9 26-12 27-11 24-12 24-11 24-11 25-13 24-12 24-12 24-12 22-11 22-14 23"/>
<path d="M741 21628l 0-2 22 12 7 28 2 30 1 24-1 26-3 27-1 26-4 26-4 26-3 25-5 24-4 36-5 31-2 26-2 27 7 25"/>
<path d="M1009 21993l 0 0-5 27-6 25-8 28-10 25-10 27-9 25"/>
<path d="M1255 21614l 2-2 21-15 26-12 24-7 25-7 28-5 29-3 28-4 25 1 27 6 25 9 18 16 2 25-9 28-18 29-19 28-14 21-16 21-16 19-19 20-19 19-19 19-20 19-19 18-16 18-20 16-17 20-13 20 1 25 22 12 25-2 28-7 25-6 27-10 26-8 27-7"/>
<path d="M1661 21903l-1 1-10 22-10 24-11 26-8 26-12 24"/>
<path d="M2028 21529l-2-2-22 16-13 28-11 28-8 23-10 25-8 26-4 25-4 29 7 26 20 19 30 5 24-1 26-5 23-5 25-8 24-8 24-10 22-11 22-16"/>
<path d="M2082 21663l-2 0-7 23 1 26 2 25 7 29 8 29 8 30"/>
<path d="M3148 21556l 1-1 22-8 25 1 28-3 27-6 26-6 28-7 29-4 25-3 29-2 28 1"/>
<path d="M3255 21625l-2 0 23-8 24-9 27-10 29-12 29-11 28-11 25-12"/>
<path d="M3394 21451l-1 0 25-2 27 0 25 2 27 3 27 2 28 3 25 2 28 10 23 9 19 16 0 25-13 27-14 21-18 21-20 19-19 16-24 19-25 17-18 16-16 17"/>
<path d="M4136 21437l-4-4-19-19-23-15-24-9-26-3-27-2-25 4-27 7-22 17-5 23 14 21 17 19 23 19 28 20 20 14 22 14 22 17 21 15 20 16 25 24 21 23 17 22 13 26 4 27-1 25-9 22-17 20-19 15-26 12-30 12-33 9-32 6-31 3-25-5-25-15-14-25-3-24 3-28 10-30 14-31 13-20 14-21 16-19 16-20 16-20 16-19 18-18 18-17 19-15 20-16 30-18 31-13"/>
<path d="M831 22471l 1 0 6 27-1 25 0 28-3 31-2 29 2 32-1 26-1 27-4 26-2 28 0 25 1 30"/>
<path d="M1118 22802l 0 1-5 25-5 26-4 28-5 25-7 31"/>
<path d="M1415 22478l-1 0 28-3 28 1 30 1 29 6 23 6 27 12 23 15 8 23-14 25-17 19-23 22-27 24-17 17-22 18-20 18-19 18-24 23-22 20-18 18-16 22-11 22 13 21 25 5 29 1 27-1 27-2 29-3"/>
<path d="M1741 22849l-1 0-18 21-14 20-15 21-18 24-14 20-14 24"/>
<path d="M2026 22481l 0 0 27-1 26-3 29-4 25-6 26-6 26-7"/>
<path d="M2064 22496l-2 1-21 15-13 23-8 24-4 26 0 25 1 25 5 23 13 21 25 6 24 0 28-6 28-3 27-2 29 1 26 3 25 3 27 4 24 8 19 15-5 27-17 20-18 21-19 20-26 18-21 11-22 11-22 10-24 8-24 8-31 5-26-4-27-8-18-19"/>
<path d="M3166 22548l 0 0 27-2 25 1 24-1 29-4 25-6 28-6 26-3 30-3"/>
<path d="M3186 22648l 0-1 24-13 28-6 30-9 25-6 27-6 27-4 26-6 27-4"/>
<path d="M3466 22462l-1-1 23-9 30-3 29-1 24 1 31 5 27 6 26 10 20 17 7 23-11 22-16 21-21 20-23 20-25 19-24 18-22 18-19 15"/>
<path d="M4107 22256l 0 0-5 24-8 24-12 24-13 28-10 22-11 28-9 26-8 27 0 26 9 23 25 8 25 1 30-3 26-8 31-8 28-9 28-10 27-9 27-9 25-8 28-11 25-13"/>
<path d="M4237 22315l-1-1-6 27-1 26 0 31 1 25-1 25-3 25-5 28-4 28-5 29-6 29-4 25-3 32-1 24 5 24"/>
<path d="M5175 22387l 0 1 4 25 4 25 19 16 18 16 27-11 18-21 15-22 18-26 19-30 21-34 23-36 22-37 21-37 20-37 19-34 16-35 14-32 13-30 11-31 8-26 8-24 7-30 6-29 0-25"/>
<path d="M7300 19368l 1-3 3-24-28 0-23 18-23 21-16 18-18 20-13 20-6 24 15 20 25 8 28 1 25 0 28-3 25-3 30 0 27 6 12 22-11 26-19 27-18 23-20 22-21 19-23 17-24 14-26 9-25 6-24 1-30-5-23-12-15-22 3-24"/>
<path d="M7520 19381l-4 1-22 10-26 16-26 18-23 20-19 22-13 22-3 25 8 23 20 16 28 8 26 2 29-4 29-12 24-13 19-18 13-21-2-27-16-20-22-14-24-12-24 2"/>
<path d="M7639 19376l 1 0 6 26 4 24 4 28 2 27-3 28-6 25-9 24-10-24 6-27 10-26 15-28 14-21 17-20 18-19 20-15 27-19 27-10 28-8 30-6 32-6"/>
<path d="M8049 19114l 0-2 3 28-5 32-6 31-6 30-8 32-6 23-7 26-7 25-6 23-8 25-7 24-7 25-5 24-5 31-3 27 4 29 16 23 28 10 30-6 25-13 27-18 26-21 22-23 17-22 15-27"/>
<path d="M7941 19340l-2 1 25 9 32-5 31-6 34-7 27-4 27-3 28-2 28-3"/>
<path d="M8234 19407l-3 1-24 10 26-3 27-13 27-15 23-13 18-18-17-21-28-4-24 5-24 7-21 14-21 17-18 21-14 22-10 26 3 26 16 22 23 14 23 8 26 5 27 3 29 0 28-1 29-3"/>
<path d="M8513 19402l-2-2-20-15-22-14-25-7-25 9-19 18-17 22-12 25-6 26 0 24 8 24 23 13 24 0 29-10 23-16 24-22 21-26 19-27 14-28 11-31 7-29 5-32 4-35 1-34 0-31-1-33-3-27-6-25-20-15-17 24-13 29-8 31-5 36-3 27-2 29 1 32 1 29 3 31 3 30 5 27 6 29 8 25 8 24 10 24 14 29 15 23 19 25 15 21"/>
<path d="M7150 19862l 0 0 27 4 36 0 33-1 40-3 47-4 26-3 28-4 30-3 30-4 32-5 34-5 35-3 35-5 37-4 37-5 38-3 39-4 40-5 41-4 41-4 41-3 41-4 41-3 40-3 41-5 40 0 38-3 40-2 38-1 38-2 37-1 36-1 35 2 34-1 33 0 32 0 31 0 30 1 28 1 26 1 26-1 24 2 44 5 40 5 36 5 31 7 27 5 24 5 31 8 28 9"/>
<path d="M2209 24095l-2 0-21-11-26 4-21 15-21 16-23 22-19 20-18 21-16 19-18 23-13 25-3 25 21 13 27-1 25-3 29-5 27-1 24 9 4 25-3 25-6 28-5 26-9 25-10 24 24 9 19 16-8 24-10 28-12 27-9 24-7 30-4 27-4 28-4 24 0 24 6 25 23 16 26 8 29 6"/>
<path d="M2373 24455l 0-2 24 4 12 22 5 25 1 31-3 25-5 25-5 31-6 28-9 25 0-27 6-32 4-24 10-36 7-25 6-24 8-25 9-27 10-23 12-21 17-17 27 3 14 20 7 24 2 25-1 28-3 28-4 28-3 28-3 28 1 25 23-19 11-29 10-23 10-24 10-23 10-22 16-31 16-26 16-25 17-20 11 22 2 28 0 31-3 25-1 26 1 28 6 23 9 28 10 23 19 15 30-1"/>
<path d="M2797 24465l-2-1 19 19 27-4 28-9 24-10 22-14 18-20 1-26-22-15-27-3-22 13-18 19-11 23-9 23-5 25-2 24 5 28 13 21 17 19 24 17 26 7 28 0 30-6 24-10"/>
<path d="M3086 24373l 0-1 22-10 27 4 22 15 18 19 11 21 10 23 10 28 12 27 16 23 19 18 25 1 20-17"/>
<path d="M3295 24332l-1 1-22 14-18 24-19 24-16 23-16 25-17 28-17 30-20 29-19 30-12 26"/>
<path d="M3532 24593l-2 1-17 19 0 25 0 28-3 31-6 23-8 28"/>
<path d="M4037 24331l-1-2-13-20-25-8-23 10-24 12-19 17-14 22 3 24 22 16 24 6 29 3 24 0 27-1 26 4-2 28-13 21-16 23-21 23-23 21-25 18-25 13-25 9-26 2-24-13-7-25"/>
<path d="M4191 24349l-2-2 2 27 2 28 3 24 2 26 3 24 8 24 24 11 27-11 20-16 24-19 23-21 22-25 19-25 15-25 10-22 9-23-3-26-22 14-10 24-4 26-2 29 3 27 10 28 12 22 16 17 19 15 26 12"/>
<path d="M4515 24338l-2 1-15 19-3 26 3 28 0 26 5 26 24-6 14-22 10-22 10-27 11-24 12-28 14-24 24-1 3 25-2 28-5 29-7 29-4 28 0 25 25-3 18-25 15-25 12-21 12-25 14-24 13-21 20 19 2 28 1 28 2 26 10 23 25 1"/>
<path d="M4978 24003l-1-1 22-11 24-2 25 4 22 11-9 22-17 22-20 19-19 22-19 22-14 20-9 25 1 28 16 19 23 14 26 11 22 8-15 21-14 19-13 22-1 25 6 25 13 20 18 18 21 22 14 21 13 24 11 24 6 27-6 24-16 23-18 22-19 18-22 19-25 16-24 9-25 6-26 0-25-9"/>
<path d="M3701 24835l 0-2-24 15-15 26-13 22-12 24-14 24-13 23-10 26-7 28-5 27-1 28 0 26 2 25 7 26 13 23 12 20 19 19 20 14"/>
<path d="M3776 24874l-1-2-4 25 0 29-3 29-5 31-4 26-3 29-2 29-2 29 0 26 4 25 12 23 27 1 25-16 20-18 16-22"/>
<path d="M3726 25039l-1 0 22-16 27-11"/>
<path d="M3924 24996l-1 2-14 19-13 26-9 23-3 25 7 26 21 14 27 0 21-14 15-23 4-26-13-21-19-16-24-8"/>
<path d="M4185 25039l 1 0 22 12 2 24-5 24-7 26 2-28 5-23 7-27 7-25 11-22 13 24 1 27-1 24-5 25 14-22 13-25 12-26 10-24 13-20 3 26-1 25 6 24 12 23 23 7"/>
<path d="M4394 25038l 1-1 22-10 16-18 1-24-23-9-21 15-14 21-7 25-2 26 6 24 16 21 25 7 28-3 22-10"/>
<path d="M2122 24461l-5-4-17-18-17-19-16-20-6-25 8-26 20-20 28-15 23-10 29-9 33-10 39-12 45-13 24-7 26-7 28-8 30-8 31-9 33-10 34-10 37-10 39-11 40-12 41-11 42-13 44-13 46-12 47-14 48-13 47-13 50-13 50-12 51-13 51-12 51-13 52-11 51-11 53-12 50-11 51-12 51-11 50-10 49-11 49-9 49-10 47-8 47-9 47-7 44-7 44-7 43-4 42-6 42-3 39-3 39-3 37-1 35 0 35 1 32 1 30 2 27 4 25 5 23 5 40 12 29 13 20 17 14 25-3 31-13 23-22 27-32 30-19 16-22 17-24 16-27 17-29 20-31 19-34 21-36 21-37 22-39 23-41 23-42 25-44 24-43 25-44 24-46 25-47 25-48 25-48 25-49 24-48 24-49 25-47 25-46 24-43 25-42 23-40 24-38 23-35 21-34 20-30 19-27 17-25 16-22 15-34 25-21 21-7 27 31 11 31 4 41-3 24-2 27-3 30-5 32-6 35-8 36-10 40-10 41-11 44-13 47-14 47-15 50-15 51-16 54-16 54-16 56-18 57-18 59-19 59-18 60-18 62-18 62-17 62-18 62-18 62-16 62-13 61-16 61-15 60-15 59-14 57-14 57-12 55-11 52-11 50-10 48-8 45-9 43-6 38-5 35-4 32-2 28-4 24 0 37 3 30 12 4 24-23 25-28 21-38 23-23 13-26 13-28 14-30 15-32 16-34 17-37 15-38 17-38 17-39 19-41 19-40 19-42 19-41 19-42 18-41 20-40 19-39 18-38 18-37 18-34 17-32 17-30 16-28 16-24 15-22 15-20 13-32 22-18 20-12 23 9 22 31 21 34 13 45 10 27 5 29 4 32 4 33 2 37 3 38 1 40 2 42 0 43 0 45 0 46-1 47 1"/>
<path d="M2727 25862l 0-1-10-22-14-20-26-8-29-1-26 4-23 8-21 13-19 18 6 24 21 15 24 14 25 17 21 11 24 13 24 14 19 20 4 26-7 26-13 24-19 20-19 15-21 17-21 14 25 7 24 11 21 18 16 20 12 23 4 24-5 26-5 26-9 24-10 24-6 24-8 26-2 29 4 27 10 22 21 18 23 8 28 0"/>
<path d="M2929 26198l 0-2 15-21 16 19 3 26-2 25-7 29-7 25-9 22-12 26-9 24 19-27 18-29 14-22 13-21 15-19 19-28 19-22 15-18 17-17 21-14 3 27-4 24-6 27-8 26-7 26-8 26 27 0 15-19 16-20 15-18 22-23 18-16 18-18 2 27-7 29-6 26-3 24 1 26 12 22 28 9"/>
<path d="M3354 26265l-1-1 24-6 26-10 24-10 25-17 18-17-5-25-25-11-28-5-24 1-25 8-22 14-19 19-17 22-15 24-8 28 2 25 12 25 21 13 26 4 28-1 31-7"/>
<path d="M3560 26187l-1-1 11-23 26 3 16 18 11 26 10 25 7 24 12 23 17 17 26 2 27-8"/>
<path d="M3742 26154l-2-2-25 1-27 12-21 17-19 17-18 16-19 18-17 19-14 20-13 27-5 23"/>
<path d="M3950 25929l 1-2 15-21 24-13 27-3 24 6 17 16 0 25-15 22-16 18-19 21-17 17-13 20-10 23-2 26 16 18 24 9 17 16 11 23-7 24-4 25 3 25 6 24 7 24 8 24 8 24 6 24-3 26-13 23-16 22-18 18-25 13-25 5-25 1-28-2-25-1"/>
<path d="M7691 23304l 1-4 10-26 13-20 18-18 25 1 15 22 7 25 2 31-1 29-2 32-3 33-4 34-5 30-3 31-3 25 1-24 2-30 0-25 3-27 4-29 3-29 6-27 6-27 6-26 7-25 10-31 12-27 11-22 15-22 17-17 25-1 14 20 8 24 3 32 0 30-2 31-3 26-1 28-3 32 2 24 4 25 6-30 7-28 6-23 9-33 8-24 8-23 11-30 12-27 13-25 11-21 13-21 18-21 24 1 4 27 0 32-3 30-3 35-2 31-2 28-2 29-1 28 3 28 3 24 5 25 8 25 17 19"/>
<path d="M8175 23310l-1 0 25 1 28-12 25-12 26-15 23-19 18-18 10-22-21-14-30-6-27 3-27 7-25 12-20 17-18 20-14 24-8 23-8 27-4 29 6 31 15 25 22 15 25 7 30 0 32-8 26-10 27-15 23-17"/>
<path d="M8353 23176l 0-1 26-3 27 9 22 18 16 23 10 25 10 25 8 25 9 23 14 23 19 21 25 13 26 3 24-9 18-19"/>
<path d="M8559 23149l-2-1-25 4-25 13-17 23-12 22-12 25-12 28-11 28-11 28-10 31-8 28-3 29"/>
<path d="M8768 23355l-2 1-12 24 0 27 3 28 1 28 1 28"/>
<path d="M7551 23043l 0-2 11-21 25-9 22 12-6 25-13 25-15 22-16 24-14 23-13 21-16 23-13 22 6 24 24 9 23 5 22 11 4 25-11 25-14 22-13 22-10 22-10 25-6 25-3 25 5 25 13 22 9 27 1 24 0 29-5 25-3 28 2 25 23 11 27-8"/>
<path d="M8804 22964l-1-1 24-6 25 9 20 15 16 22 10 24 1 25-2 26-3 25-2 26 1 25 18 18 23 5 11 24 5 26 13 22 17 17 16 19 15 21 15 22 15 18 3 26-6 24-13 21-20 20-19 19-18 17-21 14-23 6"/>
<path d="M9443 23201l 2-2 25-9 29-3 27 0 27 1 29 0 27-3"/>
<path d="M9517 23177l-2 0-15 20 2 26 10 27 10 22 15 23 19 19"/>
<path d="M10134 22959l-2 0-25 8-24 16-22 18-22 20-19 18-18 20-14 22 4 26 24 15 25 12 26 8 24 8 23 12 16 17 6 25 0 24-7 26-10 22-9 23-9 27-10 24-9 25-7 26-2 24 10 23 18 21 23 13"/>
<path d="M10268 23274l-2-1 10 26 10 27 5 24 3 29-2 24 2-25 12-27 10-22 12-23 13-24 13-22 19-23 18-18 22 14-2 25-4 26-3 25-3 27 0 25 27 1 16-18 15-22 14-24 12-21 14-20 17 16 0 27 2 25 4 26 10 24 23 14"/>
<path d="M10672 23277l-1 0 28-2 27-9 24-10 23-12 24-13 17-22 3-25-21-13-26 1-29 10-23 16-18 16-17 24-10 24 0 26 8 24 14 23 17 19 26 12 27 3 31-1"/>
<path d="M10928 23199l-2-2 14-20 26 7 20 15 15 23 16 23 10 23 14 26 12 21 17 23 25 11 28 1 25-7"/>
<path d="M11103 23149l-4 2-26 7-23 18-22 19-17 18-16 19-18 18-14 23-14 23-10 24-8 27"/>
<path d="M11278 23332l-1-1 22 15 12 22-10 23-21 14-21 16-14 22 16 19 23 5 25 1 26-4"/>
<path d="M11511 22945l 0-2 19-16 26 1 26 3 26 7 23 12 13 20-4 26-16 19-21 19-18 19-16 17 9 24 17 21 15 21 17 17 17 20 10 22-12 23-11 23-2 24 9 25 17 19 11 22 17 18 15 21 4 26-5 26-14 21-18 19-21 12-26 6-30 5"/>
<path d="M7593 24443l 0-1 23-10 26-5 30-5 24-2 26 0"/>
<path d="M7602 24507l-2 2 29 6 25-7 31-6 31-5"/>
<path d="M8044 24232l-1-1-25 0-17 18-18 22-17 23-14 21-9 25 4 27 14 20 18 17 22 11 23 14 22 15 19 15 0 26-14 23-21 19-19 20-19 21-16 23-8 24 13 23 16 20 10 23 10 25 9 24 5 24 4 28 1 29-2 27 1 24 4 27 7 25 14 23 22 16 23 9"/>
<path d="M836 27345l 0-2 15-20 25 2-13 22-17 19-21 21-19 20-18 16-20 16-17 18 18 18 25 7 24 8 23 11 6 24-2 26-10 23-7 24-7 23-9 25-3 26-10 24 0 26-2 25 2 27 3 24 5 26 10 25 11 21 19 19 27 7"/>
<path d="M1082 27451l 0-1 10 23 5 28 2 27 3 28 6 28 2 24 2 25 2 29 3 29"/>
<path d="M1322 27660l-1 2-9 26-7 25-6 27-6 30-7 24-5 28"/>
<path d="M1511 27413l 0-2 20-16 25-7 28-3 25 8 21 14-8 24-19 19-17 18-19 21-14 22 0 24 22 10 25 0 23 10 21 13 0 25-10 22-14-22"/>
<path d="M1461 27415l 0-1 24-12 27-7 24-6 25-2 28 1 25 5 20 15 11 26 1 24-9 29-9 22-13 24-15 25-17 24-20 25-20 24-20 20-19 19-24 21-21 23-21 21-25 16-19 17 25 4 25-9 24-6 31-6 27-5 24 0 26-3 31-8 31 0 24 0 28 3 26 6 25 4 27 7 23 5"/>
<path d="M1940 27311l 0 2 27 3 23 5 27 5 27 5 24 8 18 16-3 24-21 16-19 16-22 16-20 17-16 22-7 23 12 22 24 11 24 8 25 9 22 11 16 19 12 22 14 21 11 23 11 22 2 25-8 26-9 23-15 23-17 17-23 13-22 12-23 7-28 6-27 4-28-1"/>
<path d="M2420 27487l 0-2 26 1 26 1 28 1 25-1 31-2"/>
<path d="M2477 27436l-2 1-15 21 4 27 11 24 19 21 16 18"/>
<path d="M3120 27312l-1 0 25-14 24-9 25-8 28-5 29 6 25 13 17 19-2 25-15 24-16 21-20 21-21 18-22 19-17 17 11 22 23 8 12 22-2 24-9 25-8 28-10 25-16 23-12 24-10 23-4 27 8 25 13 20 17 18 27 9 26 3 27-2"/>
<path d="M3433 27389l 0-2 21-11 27 2 24 5 25 8 23 9 21 16 7 24-9 22-15 24-15 19-19 18-20 17-23 19-24 19-18 19-14 21-8 25 23 12 24 3 31-1 26-1 30 0 31-3 32-2"/>
<path d="M3723 27312l 0 0 25 2 23 8 24 10 14 21-13 22-14 20-14 20-12 22 0 24 12 22 18 17 20 15 15 20 9 22 11 24 15 20 9 25 4 25-2 24-9 24-18 17-27 7-26 4-24 2-28-3"/>
<path d="M402 28567l 1-2 23-7 27-4"/>
<path d="M427 28674l 0 0 26-7 29-4 28-3 31-1"/>
<path d="M1138 28385l 0-1-14 24-13 22-12 21-13 22-11 24-12 26-12 26-11 28-7 25-5 25 14 22 26 8 25 4 27-3 26-2 27-5 22-11 25-10 26-8 22-10 25-7 23-6"/>
<path d="M1221 28497l-1 0-5 23-2 27-1 30-1 28-1 28 0 28-2 26-2 27-2 25 0 24 1 29-2 27-2 24 2 24"/>
<path d="M807 28329l-1 0 21-14 26-3 25-6 21 13-11 24-15 20-18 23-18 25-20 23-18 20-16 22-16 22-5 24 22 15 21 12 17 17-5 27-4 28-8 23-10 24-12 24-9 26-9 22-11 23-8 24-4 29-5 26 6 26 12 21 19 22 25 17 22 11"/>
<path d="M1411 28343l-1-1 22-13 25-6 29-3 26 0 25 0 25 3-3 26-21 19-18 21-16 20-14 23-5 25 9 25 17 19 20 15 18 18 20 17 15 20 17 18 17 21 16 21 17 17 21 15 20 16 11 21 6 27-10 24-11 22-10 26-14 24-13 21-19 20-23 15-28 1-25-6-16-17"/>
<path d="M2422 28511l-14-2"/>
<path d="M2267 28545l-1-2 20-16 24 0 27 2 28 2 27 4 27 2 27 0 29-6 21-11"/>
<path d="M2368 28477l 0 0 5 24 7 28 6 28 8 29 5 27 5 28 3 24 6 26"/>
<path d="M3053 28335l-2-1-25-1-20 19-17 17-16 21-15 22-8 24 1 25 16 22 20 16 21 15 22 13 21 14 10 23-3 28-10 24-16 23-15 21-13 23-13 20-12 21-6 25-3 28 2 26 11 23 11 21 21 17 24 11 25 3 25-4 23-5"/>
<path d="M3261 28445l 0-1 1 25 4 24 6 30 4 27 5 30 7 26 5 27 4 30 3 27 5 25 4 26"/>
<path d="M3441 28320l-1 0 26-4 26 3 26 4 25 8 17 17-6 26-14 24-18 20-13 22-7 24 3 24 16 20 24 12 24 11 20 13 22 12 16 18 8 23 7 25 12 23 12 23 8 25 2 24-1 27-4 27-7 24-11 26-13 23-19 20-25 8-26 5-25 3"/>
<path d="M1104 30048l 0-1-19 18-18 21-18 17-19 18-21 20-20 18-18 18-3 25 19 16 22 13 22 12 22 13 22 14 19 18 6 24-1 25-13 24-14 21-16 22-16 20-6 23 19 17 7 23 2 25-3 28-6 25-7 27-7 26-7 23-4 27-1 28 0 26 10 27 10 22 18 21 23 16 27 6"/>
<path d="M1310 30265l 0 0 1 27 5 31 5 31 6 28 4 29 5 30 3 31 2 29 2 28 2 28 2 31-1 29-3 30 0 31"/>
<path d="M1604 30696l-1 2-4 25-2 26-7 27-6 25"/>
<path d="M1881 30372l 1-1 24-7 26-4 25 1 26 1 26 4 24 5 24 10 19 18-3 24-13 28-15 22-20 25-21 25-22 25-22 22-23 19-19 18-17 16-14 23-12 22 0 25 21 12 30 6 31 0 28-2 29-4"/>
<path d="M2236 30681l-1 1-7 28-9 23-8 24-9 25-8 29"/>
<path d="M2577 30318l 0-1 26-3 26 2 29 0 28 0 24 1 25-2 29-5 27-8"/>
<path d="M2601 30365l-2 0-21 11-17 22-8 22-6 28-3 29 6 27 16 21 26 7 26 1 28 1 30-5 27-1 29-1 27 2 25 7 21 14 7 24-12 23-13 21-16 20-19 22-21 21-23 19-27 13-23 11-24 5-25-2-22-14"/>
<path d="M3035 30200l-1-2 27-1 23 7 27 5 25 3 25 7 22 13 10 22-20 18-25 11-24 14-19 20-16 20-8 24 9 23 17 17 25 10 26 7 25 0 24 8 12 22 4 25-1 24 6 27 7 26 5 26 5 26 1 26-3 26-13 22-17 19-19 16-21 17-24 11-24 7-27 6-32 0-26-6"/>
<path d="M4223 30401l-2 0-24 10-18 18-11 26-1 28 11 24 19 14 26 9 29 4 29-2 23-7 19-16 7-25-4-25-13-23-17-21-18-17-21-14"/>
<path d="M4815 30170l 0-2 1-24-25 3-21 12-21 16-17 22-13 22 2 25 16 18 22 16 17 18 19 15 19 18 20 17 16 20 3 25-8 24-16 21-19 20-18 19-21 15-20 18-9 23 7 24 10 22 9 25 8 24 5 26 3 25 5 25 6 25 17 19 23 12 27 7"/>
<path d="M5133 30322l-1 0 3 25 3 30 1 25 1 30 1 26 0 26 0 27 0 26 0 27 0 29 0 27"/>
<path d="M5373 30673l-1 1 3 25-13 23-17 24-14 22"/>
<path d="M5753 30299l 0-1 6 27-2 27-6 30-4 25-6 25-7 25-7 27-9 27-11 22-9 25"/>
<path d="M5942 30315l 0-1-14 22-9 30-6 25-4 32 0 24 5 30 8 23 15 21 21 15 27 7 28-3 24-13 19-16 21-18 19-24 13-21 14-27 7-26-2-26-9-27-16-25-19-16-27-10-28-5-28 3-25 7"/>
<path d="M6311 30153l 1-1 24-7 26-2 22 12 13 21-17 19-19 21-20 20-17 21-12 22-2 27 10 22 21 11 25 5 25 4 10 24-4 25-3 24 6 24 5 24 9 26 12 21 8 23 3 25-12 21-21 15-22 10-21 12-21 12-24 9"/>
<path d="M546 31834l-1-2 13-21 19-16 24-16 25-15 23-14 27-6"/>
<path d="M609 31861l-5-1 22-15 24-7 26-9 27-9"/>
<path d="M979 31739l 1-1 15-20 22-11 20 15 2 25-5 25-7 28-6 30-6 29-8 26-8 26-8 23-5 26 16-19 11-29 11-23 11-24 14-20 13-22 18-25 19-23 16-19 19-21 22-16 23-12 16 18-3 28-5 25-4 28-9 28-9 26-9 26-8 25-8 29-4 25-3 25 19-18 16-23 15-22 16-22 15-21 16-20 19-24 19-18 19-15 10 22-1 25 0 29 0 26 0 25 1 26-1 24 15 22"/>
<path d="M1419 31912l 1 0 24-6 24-5 23-12 19-18 8-25-7-25-28 2-19 19-17 18-15 20-15 26-9 26 1 25 6 25 18 20 22 12 26 1 28-5 25-12"/>
<path d="M1662 31842l 1 0 13 22 3 27 1 25 1 26 8 23 16 22 21 19 25 7 28 2 27-6"/>
<path d="M1823 31861l-2-1-29 2-25 12-24 17-18 15-16 22-19 23-20 22-17 21-15 21-13 24"/>
<path d="M1879 32084l 0-1 17-18 25-1 25 3 3 25-15 20-16 21-19 19-18 21-13 23 12 21 26-6 27-7 28-9"/>
<path d="M2071 32108l-2 0-24 6-16 20-4 24 16 20 25 8 26-5 23-9 19-19 1-25-13-20-21-16-26 7"/>
<path d="M8943 27637l 1-2 7 23-5 24-5 28-7 30-5 23-7 25-8 23-8 24-10 22-11 25-14 22-3-28 5-25 6-28 8-30 7-30 7-25 9-24 11-23 12-22 15-20 20-23 24-20 22-15 23-13 23-10 28-6"/>
<path d="M9175 27674l 0-1 23 6 25-3 28-7 27-7 24-12 13-23-14-20-23-15-25-7-26 3-23 10-23 20-19 21-14 21-14 27-7 23 3 26 18 24 25 14 26 7 31 2 34-1"/>
<path d="M9455 27632l-1 0 17-17 26-4 29-6 24-6"/>
<path d="M9837 27609l-2-1-25-5-29 6-20 14-21 17-18 19-17 24-4 26 12 22 26 4 27-6 23-10 19-17 12-23-1-24"/>
<path d="M9920 27630l 1-1 18 18 3 27-6 24-11 21-13-21 11-23 16-23 20-22 23-17 24-12 26-10 25 2 24 7"/>
<path d="M10245 27609l-2-3-18-20-20-17-27-4-26 9-23 15-23 18-17 18-19 20-14 24-6 24 3 25 25 7 26-5 27-9 29-15 21-12 31-18 28-22 23-24 17-27 13-29 11-31 8-31 8-26 7-34 5-27 5-26 6-36 6-23 4-30 1-27-26 13-16 19-19 25-14 21-12 22-11 24-11 23-10 25-8 25-6 24-4 25-3 25-2 26 0 34 3 32 4 25 6 24 13 25 16 19"/>
<path d="M10410 27639l-1 0 27 1 26-3 28-3 25-9 14-22-17-21-25-13-24-4-29 4-23 9-19 16-17 24-9 26-4 28 3 26 7 26 21 16 31 4 25 0 28-4 29-8 27-11 24-15 23-17 17-22 10-23-10 25-4 26-4 27-5 24 13-24 15-24 18-22 19-19 22-15 27-8 27-3 26 3 24 5 26 5 24 7 27 11"/>
<path d="M9596 28240l 0 0 26 1 26-6 24-6 22-9 22-14"/>
<path d="M9662 28126l-2 2-15 23-8 24 3 27 3 25 3 25 2 25 0 27"/>
<path d="M9043 28832l-2-2-27-5-26 7-23 12-23 16-22 20-17 18-18 20-15 20-14 25-10 22-7 27 0 28 22 17 29 2 30-2 25-5 26-7"/>
<path d="M9165 28915l-1-1-26 4-20 17-19 20-15 20-9 23-4 27 9 25 18 16 25 0 18-18 9-22 4-25-3-27-5-26-6-23 15-19 21-14 27-4 25 1 23 9 10 25-1 26-9 28-8 24 21-19 14-25 13-27 16-26 15-23 17-19 23 11-1 28-3 27-1 27 0 24 21-12 17-22 15-25 16-26 15-24 13-22 13-20 6 26-2 29-1 27 0 28 6 25 13 21 27 4 22-10 22-20 16-20 10-22 8-23 6-24-9 29-2 29-1 29-3 25-2 25-3 26-4 29-4 31-2 31-4 30-3 28-4 26-4 25-6-31-1-31 2-35 1-36 1-26 2-27 2-26 3-25 4-34 5-30 6-25 10-30 11-26 14-21 19-19 25 0 22 14 19 18 16 21 11 25-2 26-10 27-15 23-16 18-22 19-21 11-16-21"/>
<path d="M9815 28838l-1 0 3 26 0 25 3 27 0 27-3 28-7 25-18-17 2-28 5-28 9-26 12-22 15-19 22-13 25-7 28 1 25 7 20 17 15 19 21 12 25-10 25-11 24-13 21-15 23-15 15-19-20-14-28 0-26 8-23 16-16 21-13 24-9 22-2 28 11 22 21 15 27 4 28-1 24-6 23-9 24-12 24-13 25-15 22-17 20-17 20-24 14-22 9-23 3-24-12-21-19 17-9 23 3 24 7 25 14 23 15 22 15 23 11 25-2 24-23 11-26-1-24-4-25-2 22 13 23-7 28-5 30-10 25-9 26-11 27-12 26-13 22-14 19-16 20-19 12-25-1-28-8-25-15-18-17 18-1 27 8 26 11 24 11 25 13 23 11 24 7 23-9 26-25 8-27 0-28-2-23-10 26-4 28 0 25 0 30-1 32-5 25-4 26-5 25-6"/>
<path d="M10693 28832l-2 0-21 10-6 27-3 27 0 27 12 22 27-6"/>
<path d="M10733 28752l-1-5-7-29-12-21-16 20"/>
<path d="M10823 28888l-1 1-12 22-7 25 10 24 21 15 25 3 22-17 15-24 7-23-3-28-8-24-17-21-20-13-24-4 25 3 23-6 27-3 25 0 25 5 24 10 16 19 7 26-2 25 22-13 16-25 17-26 15-25 17-21 19-15 25 9 7 24 4 27 5 24 5 28 6 25"/>
<path d="M8236 30949l-1-2 4-26 14-24 19-22 17-20 17-20 19-20 19-17 21-19 20-14 8 29-7 33-8 33-8 24-8 26-10 27-10 28-9 27-9 26-8 25-9 23-9 34-6 28-2 25 25 7 22-24 15-20 17-24 18-29 18-30 19-32 17-34 18-32 19-34 16-32 15-34 14-29 13-29 11-26 14-30 11-22-2 27-6 29-5 24-6 25-6 27-4 28-6 30-4 31-4 34-4 34-5 36-5 39-6 41-8 41-8 43-10 44-10 42-10 42-10 42-9 39-10 39-10 36-10 34-11 31-9 31-10 27-9 23-12 27-12 24-16-22 2-35 2-29 5-33 6-34 6-35 8-39 8-39 11-40 11-38 13-37 14-36 13-33 15-31 13-29 14-27 14-26"/>
<path d="M8704 30911l-2-1-23 15-11 28-8 24-7 24-10 30-4 28 0 25 9 26 23 11 25-12 16-19 12-21 7-26 1-28-7-24-10-23-9-23-7-24 21-15 26-12 23-10 25-8 26-1 23 10 5 24-5 24-6 23 10 22 23-14 20-18 16-20 15-21 13-23 11-23 4 27 1 27 2 25 7 25 11 22 20 15"/>
<path d="M9546 30721l-1 0-26-1-23 11-24 16-20 17-17 21-17 24-13 23-9 24-3 26 16 22 26 5 28-3 26-7 27-11"/>
<path d="M9724 30760l-2-1-25-4-28 6-22 11-18 17-16 25-12 26-4 26 16 18 26 4 28-5 21-12 22-13 16-19-23 10-5 25 21 12 24-9 23-10 21-15 20-15 17 18 24 8 24-8 22-16 16-19 17-18 15 22 4 25 11 24"/>
<path d="M10520 30738l-1-2-13 25-9 25-13 28-12 25-12 25 0 25 26 7 24-10 23-11 22-14 20-17 17-17 19-23 15-21 11-23-21 12-6 25-2 27 6 25 23 9 26-12 25-16 20-14 20-18 19-19 16-19 19-24 16-23 13-26 6-23-17 23-7 27 7 26 12 25 14 25 16 22 13 21 6 26-8 25-22 9-25-1-25-12-14-20 6-24 22-16 23-10 25-4 26-4 27-6 28-5 25-3 25-5 25-9 24-11 21-12 21-15 16-18 9-23-4-25-17-19-27 3-24 14-21 15-20 22-18 25-16 27-9 28 0 28 6 26 11 22 19 23 20 15 24 10 30 4 27-2 28-3 24-6 23-11 24-10"/>
<path d="M11266 30902l-1 0"/>
<path d="M1189 33480l 1-2 13-21 25-5 22 12 16 24 8 25 4 24 1 26-2 29-7 33-6 25-8 25-6 28-10 26-10 25-8 24-16 29-10 22-7-24 5-28 6-33 8-35 11-34 12-28 14-26 14-24 17-22 16-18 19-19 22-13 26-3 22 16 13 23 6 26-2 31-8 29-6 31-6 24-8 30-8 30-7 25-5 24-5 24 3 25 11-26 10-23 14-29 10-23 11-21 11-24 12-25 13-25 15-25 15-25 16-23 15-19 20-31 21-24 15-19 18-19 18 18 0 30-3 31 0 31-4 24-5 26-5 24-5 27-2 29 0 28 4 28 11 25"/>
<path d="M1946 33511l-1-1-19-15-24 0-23 14-20 15-21 17-22 22-17 22-18 23-17 23-12 25-10 26-12 30-4 25 6 26 19 20 22 11 25 2 29-5 27-7 30-12 32-11 33-12 24-9"/>
<path d="M2195 33502l 1-3 9-25 16-20 20 16 2 27-3 24-4 25-5 26-7 27-11 25-9 28-11 28-15 24-16 27-12 22 15-24 16-29 13-23 14-22 15-23 14-23 13-23 13-22 12-22 13-22 13-22 20-28 17-23 22-19 22-17 22 11-1 25-4 29-6 25-8 24-4 26-6 26-8 26-5 32 0 29-2 27-1 25 3 26 11 22 26 2"/>
<path d="M2780 33454l-1-2 23-9 26-8 26-5 30-6 31-3 31-1"/>
<path d="M2788 33580l-1 0 25-1 28-2 24-7 25-6 30-8"/>
<path d="M3112 33549l 1-2 16-19 25 7 16 18 10 26 6 24 2 26-3 25-3 30-7 32-10 28-11 25-12 26-7-29 10-28 12-34 14-32 14-30 15-26 17-26 16-22 15-19 18-17 22-12 24 9 15 24 6 25 0 29-4 25-6 24-7 24-10 27-8 23 24-19 16-26 18-25 17-28 18-25 19-25 17-19 21-21 19-15 21 13 6 26 0 25 0 27-3 30-3 24-3 26-1 29 3 27 13 24"/>
<path d="M3752 33618l 1-1 10-23 8-23-15-20-24-6-25 2-25 10-22 13-22 17-21 21-17 23-15 21-16 26-5 25 16 22 24 3 26-5 29-10 23-11 21-14 22-18 19-15 18-16-5 24-5 26-2 28 5 26 17 21 24 7"/>
<path d="M3873 33596l 1-2 16-18 25-7 28 0 25 10 21 16 12 21 8 24 5 28 5 29 9 24 15 23 23 12"/>
<path d="M4093 33509l-1-1-23 9-22 9-21 21-16 19-18 22-18 22-17 25-17 25-17 26-12 24-10 24"/>
<path d="M4955 33581l 0-3 0-24-17-18-25 4-27 14-25 19-20 20-19 23-18 22-16 22-13 20-11 23 1 24 19 18 25 7 29 1 36-5 27-4 28-7"/>
<path d="M5182 33575l-2-1-23-7-25 6-23 13-20 16-21 16-19 19-16 24-13 23-8 25 9 27 18 20 25 5 29-1 25-5 22-13 20-19 16-21 13-23 10-28 8-28 6-25 10-24 11 22 9 24 8 25 8 24 9 23 28-6 22-19 22-21 23-19 22-19 20-19 18-17 20-18 12 24-5 25-4 27-3 27 2 26 8 25 25 9 24-6 27-16 23-17"/>
<path d="M5732 33290l-1-2-4 25-3 30-3 27-3 29-6 30-9 34-6 26-7 26-6 26-7 24-12 33-11 30-9 26-5 24 0 28 17 18 30-1 30-13 26-15 22-16"/>
<path d="M5667 33499l-3 0-24-1 27-9 27-6 29-6 33-4 24-3 25-1 30 0 28 0"/>
<path d="M5896 33719l 0 0"/>
<path d="M6707 33574l-1-2-1-24 24 3 25 3 12 25-4 24-9 26-13 28-13 22-15 24-17 22-15 20 8-23 14-25 18-26 18-28 17-27 20-25 19-25 20-19 18-18 23-17 21-13 24 0 15 20 2 28-5 28-10 29-9 24-12 22-14 25-12 24-7 23 23 13 28-13 24-14 25-18"/>
<path d="M7052 33562l-1-1-26 3-11 21-10 26-9 25-5 25 5 26 24 6 29-8 23-10 23-13 21-16 20-16 19-16 20-20 17-22 6-24-22 20-14 25-10 27-4 27 6 25 22 14 25-1 26-11 22-12 22-15 21-17 20-17 21-21 15-22 3-25-19 20-12 22-9 24-10 24-7 23 23 12 19-17 22-21 23-23 15-20 14-20 16-23 15-20 13 22-7 29-7 24-10 28-5 23 24 2 21-17 21-23 20-25 19-22 20-20 20-15 6 24-3 24-3 26-7 24-6 27-3 28 2 27"/>
<path d="M7698 33758l 0 1"/>
<path d="M224 34910l-2-3-6-24 9-23 16-19 21-18 25-13 26-4 19 17 7 27-3 33-6 32-5 25-4 29-8 28-9 28-7 27-7 24-5 25-9 29-4 25-7 25-3-29 3-35 3-26 3-29 4-30 4-29 5-28 7-25 9-29 10-29 13-21 26-5 14 21 6 25 6 23-1 27-5 29-3 29-2 25-4 28 20-17 11-30 4-26 8-25 9-25 10-23 14-30 12-21 18-20 22 13 1 30 0 28 2 26 2 30 1 30 3 28 2 28 3 24 11 25 15 20 19 15"/>
<path d="M703 34923l-2-1-11 26-1 30-2 30 1 29 0 28 5 25"/>
<path d="M690 34730l-2 2-10 24 4 26"/>
<path d="M811 34899l-1 2-7 25 3 28 0 24 0 26-2 26 23-11 12-22 11-27 14-26 11-24 13-23 12-25 14-23 24-2 6 24 5 29 6 33 3 27 3 28 1 25 7 27 10 22 15 23 19 15"/>
<path d="M1745 34954l 1-3 2-27 1-28-6-25-12-22-25-15-29 0-26 11-19 16-19 19-16 19-13 22-9 23-6 25 1 27 13 22 24 9 27-2 25-9 23-13 20-15 17-20-1 25 9 25 18 18 26 13"/>
<path d="M2013 34884l-1-3-10-23-16-19-17-20-21-13-24 2-25 12-24 21-14 20-13 23-5 25-4 29-1 24 10 30 17 18 24 8 26-3 27-11 26-13 24-19 13-24 10-23 5-24-10 24-5 25 0 31 0 25 3 25 3 27 4 28 3 32 0 35 3 27 0 26-2 28-1 29-4 28-4 29-4 28-6 29-7 27-7 28-12 31-11 22-18 17-28-6-18-18-16-27-12-31-11-32-2-30-4-32 2-33 6-31 11-32 10-22 12-21"/>
<path d="M2251 34844l-1-2-14-24-24-10-28-6-28 3-26 11-18 18-19 24-14 21-10 24-6 28-3 27 1 28 9 30 17 22 22 14 28 5 31-6 30-13 25-15 20-16 18-22 11-21 6 27 6 26 0 28-2 31-3 32-3 31-4 25-1 25-3 26-3 27-3 29-4 32-6 31-6 30-7 28-10 23-14 30-12 25-14 22-24 0-18-24-10-24-6-27-3-31-1-35 1-24 5-35 4-25 9-34 10-27 10-24 12-25 18-30 19-25 23-23 22-21"/>
<path d="M2450 35051l 0 0"/>
<path d="M-61 35099l 2-2 24-16 30-11 34-10 29-8 32-10 38-11 42-13 23-8 26-9 28-9 29-10 32-10 32-11 36-11 37-12 40-11 41-12 44-11 46-13 45-10 48-13 50-12 50-13 53-12 53-13 53-12 55-11 55-13 56-11 53-10 53-9 53-8 52-8 51-7 51-7 49-5 50-6 50-4 51-5 50-4 49-3 50-3 49-1 51-3 49 0 49-1 49 1 48 0 47 1 47 2 45 1 43 3 42 3 40 3 40 3 37 4 35 5 34 4 30 4 30 5 28 4 28 4 25 4 24 4 44 8 36 7 31 6 27 7 29 9 27 9 21 14-25 2-25 4-33 5-25 6"/>
<path d="M1392 35176l-1-2 17-18 30-9 30-8 35-11 42-12 47-14 24-8 27-7 27-9 29-10 30-9 31-8 33-9 33-9 35-9 35-9 37-8 37-7 38-9 40-8 39-8 39-8 38-7 38-7 38-7 37-6 36-6 34-6 35-6 34-5 33-5 32-5 32-4 31-3 30-4 30-4 28-3 28-2 26-2 25-4 48-3 42-3 38-2 33-1 28-1 26 0 31-1 28 1 24 0-25 5-23 5"/>
<path d="M1907 35368l 0-2 8-24 27-17 29-13 24-11 29-11 30-13 36-13 38-10 43-12 41-13 43-12 44-13 40-12 41-12 40-11 37-11 35-9 35-9 32-10 30-7 28-6 27-5 34-5 31-5 25-4 28-3 28-4"/>
<path d="M6252 36257l-1-1-1 28 0 29-1 27 0 25 1 25 2 25"/>
<path d="M6350 36244l-2-2-21-11-25-5-25-1-25 6-22 13-22 21-16 18-17 24-16 25-13 27-11 26-6 26-2 25 4 31 12 27 20 21 25 14 24 8 30 5 32 0 35-5 35-10 25-9 24-10 24-15 23-13 21-14 20-15 26-20 18-21 12-23 5-28-9-29-13-27-18-30-23-27-18-16-19-15-32-16-34-10-24-3-25-2-25 1-25 1-24 4-32 6-27 6-28 9-22 13"/>
<path d="M5941 36764l-2 1-27 14-19 15-25 21-18 16-20 18-21 17-23 20-25 20-27 24-29 25-31 27-36 30-20 17-19 17-22 17-22 19-22 20-24 21-25 20-25 22-25 21-28 23-28 23-28 25-29 24-31 25-31 27-31 26-34 28-34 28-35 28-38 29-37 30-38 32-38 31-40 31-40 34-41 33-41 33-40 33-43 33-42 34-42 32-42 33-40 33-42 33-40 32-40 31-39 31-39 29-38 28-37 28-38 27-36 25-35 25-38 24-33 23-33 22-33 21-31 20-30 20-28 18-28 17-25 16-25 16-24 13-22 12-22 12-37 19-35 15-28 13-22 8-25 7"/>
<path d="M3283 38739l-1-2 13-23 22-14 24-13 25-10 25-6 26-4 30-1 25 6 24 13 2 30-11 26-13 24-18 23-21 23-22 21-25 21-24 22-26 20-22 17-20 17-20 18-15 22 18 18 29-3 23-9 28-9 29-10 31-13 30-12 29-12 25-13"/>
<path d="M3393 38612l-5-1-29-1-29 7-27 13-19 16-19 17-17 22-16 22-12 23-10 27-9 31-9 32-3 25 0 26 2 25 4 27 5 25 8 25 10 26 11 23 15 20 25 24 28 20 22 10 34 9 26 0 28-4 29-7 33-12 32-16 33-18 31-24 28-23 26-25 24-24 19-23 16-23 13-33 3-33-5-33-8-24-13-26-18-26-22-26-25-26-25-19-24-15-26-11-25-4-28-1-27 3-27 7-26 8-25 9-23 10-29 13-23 18"/>
<path d="M6750 36773l 3-2 25-4 20 15 13 22 19 25 18 23 17 17 20 20 23 21 27 24 29 23 34 24 38 26 19 14 21 15 21 14 22 16 22 17 23 16 22 18 24 17 23 18 24 17 24 18 25 18 25 19 25 20 24 21 26 20 26 21 26 21 27 24 26 23 27 22 27 22 27 22 27 23 27 23 27 23 27 24 27 22 27 23 27 22 28 23 28 22 27 22 27 22 28 21 28 21 28 21 28 22 28 21 27 22 27 22 27 20 26 21 26 20 26 20 25 19 23 20 23 19 23 18 23 18 22 19 22 18 21 19 20 16 20 18 19 16 19 16 19 16 34 31 33 28 29 26 27 27 22 24 19 22 16 19 19 25 13 22 9 27"/>
<path d="M8685 38636l-1-2 2-24 22-9 26-4 30-6 24 0 25 2 27 6 23 8 15 21-13 21-22 15-22 12-25 14-26 12 20 15 25 0 25-2 26-3 24 6 11 23-12 22-20 15-21 16-26 15-29 11-30 6-28 0-27-5-23-12-16-20"/>
<path d="M8838 38443l-2-1-25-3-30 8-22 13-26 20-28 23-18 17-18 19-17 20-14 20-12 21-13 32-7 33-1 32 5 32 9 34 15 28 18 27 25 23 31 18 23 7 24 8 28 5 28 1 30 0 31-5 33-4 34-10 34-11 34-12 30-16 29-15 23-14 28-22 18-20 11-23 3-26-2-31-4-25-10-26-12-26-17-25-22-24-24-25-28-22-29-20-32-18-33-13-32-12-33-7-34-5-32-1-34 2-33 4-32 6-32 7"/>
<path d="M3110 39213l-1 0-20 18-18 18-23 22-20 21-21 23-25 27-17 20-19 23-21 25-23 29-25 32-28 36-15 19-15 19-17 19-16 21-18 21-20 21-20 23-22 23-24 25-25 25-25 27-27 28-28 29-30 29-30 31-31 32-32 33-32 34-34 33-35 35-34 34-35 36-35 34-36 34-35 34-37 34-35 33-36 34-36 32-36 33-35 32-34 31-34 31-32 30-33 30-32 28-31 27-30 26-30 25-29 25-28 22-28 22-26 21-25 21-24 19-23 17-22 16-21 16-38 27-35 22-29 17-25 14-22 11-23 13"/>
<path d="M1082 41131l-1 0-14 21-11 31-10 24-9 25-10 25-6 28-1 26 5 24 9 23 25 13 25 2 26-6 28-12 21-14 21-18 21-22"/>
<path d="M1123 41237l-2 1-15 20 2 27 8 22 12 23 9 24 10 27 9 27 9 25"/>
<path d="M1122 41029l-3-1-27-7-27 5-23 10-23 17-20 21-22 25-16 19-14 22-12 21-12 24-10 26-9 25-8 29-9 29-3 30-1 33 1 31 5 32 7 31 9 29 9 27 13 25 16 25 19 20 21 19 23 16 24 12 27 9 26 6 27 3 29-3 28-7 31-11 33-16 30-21 31-23 29-28 28-31 28-34 21-37 19-37 13-36 9-36 3-36-4-38-10-39-13-39-17-38-19-36-20-33-23-29-23-23-24-19-24-13-26-7-25-4-26 1-28 3-26 5-27 7-29 11-25 11-25 12-22 13-25 15"/>
<path d="M3743 39417l 0-1 15 20 15 23 15 27 19 31 15 23 16 25 18 27 19 28 21 30 23 30 25 32 24 32 26 36 25 36 25 38 13 20 12 21 13 21 25 41 11 23 13 22 13 23 12 23 12 23 12 21 12 25 11 23 11 22 12 23 12 23 11 22 11 21 12 23 11 22 11 22 12 21 23 40 12 21 22 40 23 39 21 38 21 37 21 35 19 32 19 32 16 29 16 29 15 27 13 26 12 27 10 23 15 31 13 22 11 24 10 22 13 23"/>
<path d="M4529 41131l-1-1 24-5 30-6 30-4 31-7 24-9 23-7 28-9"/>
<path d="M4558 41128l-3 2-22 16-13 21-8 25 1 28 4 25 10 22 20 12 25 0 28-9 26-12 28-10 28-6 29-1 24 0 25 4 10 25-11 21-19 24-19 19-23 17-25 18-28 15-28 14-30 9-27 7-28 0-24-5-26-15-15-27-2-28"/>
<path d="M4640 40975l-5 0-31 8-31 9-22 10-23 10-23 14-23 15-25 16-23 16-24 18-21 19-20 20-18 22-18 23-16 25-14 26-10 28-6 29-1 34 1 30 7 31 11 32 15 28 22 29 22 26 25 21 28 19 31 15 34 12 35 8 39 6 39 2 40-2 40-4 37-11 38-12 37-15 35-17 32-20 31-21 28-21 25-25 21-25 15-25 11-29 8-26 3-29-2-31-6-33-10-37-15-38-19-40-22-39-24-35-27-31-27-25-28-19-28-13-29-5-29 0-28 7-27 9-25 10-23 12-26 19"/>
<path d="M8971 39041l 0-1-27 12-18 23-17 26-18 29-12 22-13 25-12 27-13 29-12 34-14 38-14 41-15 45-7 24-9 25-10 26-9 27-9 27-12 28-10 30-12 29-12 29-12 30-13 30-14 31-12 32-15 33-16 31-15 34-17 33-16 33-17 34-17 33-18 33-17 31-18 33-15 32-17 30-17 30-14 31-14 28-13 29-13 29-12 28-13 27-10 27-11 26-10 26-10 26-10 23-18 43-18 39-16 35-13 29-12 25-12 24-14 28-11 23-12 24"/>
<path d="M7964 41232l 0-2-23 7-19 23-11 21-11 24-10 26-7 28-2 27 1 25 8 29 14 24 21 18 25 8 26 1 26-6 23-12 18-18-1-27-24-13-27-3-29 2-29 6-24 9-22 14"/>
<path d="M8061 41063l-5-1-25-7-31 0-24 7-23 12-22 13-21 18-22 22-22 28-13 22-14 22-13 27-11 29-11 33-6 35-4 35-2 38 2 36 3 37 6 35 8 32 10 32 12 27 13 22 23 27 28 18 32 11 37 0 26-3 28-8 30-7 29-14 29-16 29-20 27-25 27-24 24-26 21-26 18-27 15-28 12-28 9-26 6-28 1-28-2-31-7-33-8-32-12-32-13-31-17-31-17-30-19-24-21-23-19-17-21-12-32-10-31-7-32-2-29-4-26-1"/>
<path d="M9334 39008l 0-1 25 6 27 16 28 19 21 14 24 16 28 16 29 22 32 22 33 25 36 27 38 28 21 16 21 16 21 16 22 18 23 17 22 18 23 19 24 20 25 20 25 21 26 21 27 22 27 22 28 23 28 24 29 23 29 25 30 25 29 25 30 25 29 27 31 26 31 28 29 27 32 28 31 28 31 28 32 30 32 29 31 30 32 28 32 30 31 29 31 28 31 30 31 29 30 29 31 28 30 29 30 29 29 29 30 28 29 29 29 28 28 27 27 27 26 27 27 27 25 26 23 26 23 25 23 24 21 25 21 22 20 22 19 21 18 22 18 20 17 21 15 19 29 36 25 33 20 30 17 28 13 24 12 22"/>
<path d="M11352 41082l 0-2 22-14 27-6 27-5 29-6 31-6 31-6 28-3 29 0 24 5 8 26-14 24-16 22-17 19-17 19-16 21-15 21-13 21"/>
<path d="M11566 40845l-5-1-30-4-28-2-33 2-24 6-25 7-27 9-26 12-26 13-26 12-24 19-24 20-23 22-22 28-20 26-16 28-14 29-9 31-6 31-3 30 4 29 8 28 13 25 18 24 22 21 26 19 28 18 31 13 32 12 35 10 36 6 36 5 36 1 34-1 34-4 32-7 31-10 31-12 28-14 26-17 22-17 18-19 18-21 14-21 14-21 10-24 7-25 4-28 1-31-2-31-7-33-9-32-12-33-16-33-19-28-20-27-21-21-24-18-23-14-24-10-25-8-34-6-33-2-30 1-25 4-23 8"/>
<path d="M917 42024l-2-1-20 19-15 29-10 32-12 26-12 32-18 37-16 43-9 23-9 24-10 26-11 28-10 29-12 29-12 31-12 31-13 32-14 33-13 32-13 33-15 33-12 32-12 31-13 32-12 33-12 31-16 31-13 32-13 31-14 31-14 31-12 30-14 29-13 29-9 28-14 27-13 26-12 25-13 25-13 22-13 24-21 41-21 37-16 31-10 26-13 22-11 25-9 22"/>
<path d="M203 43790l-3-5-17-19-27-16-25-3-29 1-30 8-21 13-21 20-16 18-9 24 9 26 19 17 28 14 25 7 30 5 28 1 24 2 30 3 22 11 17 21 15 23-1 29-7 28-8 31-10 31-13 27-13 28-14 20-19 18-21 13-20 14-27-1-16-19-3-24 2-30 6-24 7-27 10-28 13-29 14-31 15-32 15-33 17-31 16-27 16-25 22-26 18-19"/>
<path d="M195 43672l-4-3-18-16-23-12-29-4-29 0-31 6-25 11-26 16-19 16-19 18-19 18-21 25-16 27-17 29-17 36-14 35-15 37-9 41-9 42-2 43 2 46 4 44 8 44 10 42 15 38 19 33 25 30 31 25 31 21 33 16 34 13 33 6 37 3 36-3 36-7 35-13 35-17 33-21 34-26 29-29 26-31 24-34 21-35 17-36 12-37 6-35 2-34-2-33-9-31-13-31-19-32-23-34-26-36-25-35-29-35-29-31-30-28-28-21-27-16-23-10-31-6-28 4-28 6-25 12-22 10"/>
<path d="M1525 41889l 0-1 20 21 15 25 17 30 15 21 17 22 17 25 19 27 21 29 24 29 26 30 26 30 30 31 26 34 32 34 16 19 16 20 16 20 17 20 16 21 20 20 16 22 17 22 18 22 16 22 17 23 17 24 16 23 18 24 16 25 18 26 17 27 17 27 17 26 20 28 17 25 15 26 16 27 15 28 15 25 14 25 15 25 10 23 14 24 13 23 13 21 24 40 23 38 23 36 21 29 19 29 16 27 15 25 13 23 19 26 15 19 10 23"/>
<path d="M2773 43659l-1-4-6-29-7-27-11-24-23-16-25 5-27 16-23 20-22 23-21 28-17 29-11 27-6 23-1 29 12 22 25 1 25-6 28-11 31-17 20-14 19-16 27-20 18-16 19-15-13 23-12 21-12 23-15 27-10 27-6 30-4 29-1 28 0 30 2 27 5 23 17 17"/>
<path d="M2776 43479l-4-1-26 3-25 6-28 11-31 12-28 17-28 16-22 19-20 21-17 21-16 23-13 28-14 32-5 25-4 27 1 28 1 29 5 30 6 30 10 29 13 27 14 24 16 21 17 18 20 17 23 13 24 8 26 6 25 0 25 2 25-2 25-5 37-10 23-11 24-17 23-16 20-20 20-22 18-22 13-25 10-25 7-25 5-25 3-36-3-25-6-23-11-28-13-26-15-29-17-29-18-24-17-20-25-18-27-7-29 1-29 7-29 10-27 17-20 16"/>
<path d="M4201 41823l 0-2-25-6-17 18-13 22-11 26-8 30-5 24-1 26 0 24 4 27 13 25 22 16 25 6 29-3 23-7 25-10 22-10 22-17 13-22 5-29-6-29-12-25-13-28-16-28-15-20-19-16-22-12"/>
<path d="M4382 41889l-1 0"/>
<path d="M4393 41956l-1 1"/>
<path d="M4541 41840l-2 0-23 14-11 25 3 24 13 23 17 20 22 14 23 7 28 0 29-4 26-13 20-16 13-21 9-22 1-27-7-29-14-28-19-23-24-14-31-5-23 8-26 17-19 17-17 22-15 22"/>
<path d="M4129 42229l 0-1 24-13 28 0 24 0 27 6 20 16 5 25-10 25-17 25-21 18-20 15-22 16-22 16-22 16-14 22 16 21 29 2 24-7 30-8 22-10 25-11 25-12"/>
<path d="M4391 42233l-2-2"/>
<path d="M4388 42352l-1 1"/>
<path d="M4519 42251l-2 0-25 6-18 21-2 28 4 28 7 26 10 26 11 26 14 23 17 21 20 13 23 10 26 9 26 1 27-5 26-13 26-15 21-17 15-21 10-22 5-28-3-25-13-29-15-23-18-22-23-20-25-15-26-10-26-6-26 0-26 4-31 10-26 13-22 19"/>
<path d="M7666 41877l-1-2-24-3-23 18-13 25-5 23-1 28 3 26 7 27 12 25 18 19 22 14 26 5 27-1 23-11 24-17 19-25 13-25 5-28-2-26-8-24-15-21-19-19-20-20-24-15-27-2-19 16"/>
<path d="M7882 41896l-2 2"/>
<path d="M7866 41983l 0-1 27-4"/>
<path d="M8032 41864l-2 0-24 5-20 17-15 20-6 27 0 31 6 24 10 22 13 21 16 18 25 17 27 15 28 10 31-1 25-5 25-10 24-16 21-20 17-24 14-26 8-29 0-26-4-25-11-22-16-21-19-14-23-11-24-5-26-1-27 2-25 4-25 8-25 11-22 13"/>
<path d="M7738 42318l 0-4-2-24-10-25-15-20-23-9-26 8-22 16-18 19-14 25-2 25 16 22 26 6 29 0 25-6 24-11 27-12 24-10-20 15-5 26-2 29-2 31-2 28-1 31 0 28 0 25 0 24-1 30 2 28"/>
<path d="M7896 42392l-2 0-21 15"/>
<path d="M7897 42485l 0 0"/>
<path d="M8145 42344l-1-2-5-25-11-25-7-24-18-19-22-13-25 4-28 14-18 16-18 21-17 23-11 22-8 23-5 27 5 25 20 16 30 0 31-7 23-6 22-11 26-16 19-16 15-20-25 7-11 22-8 27-4 24-1 27-1 25 1 28 0 27 3 26 4 24 6 25"/>
<path d="M11265 41610l 0-2-27-4-24 17-17 17-18 21-17 25-14 26-9 24-4 32 4 27 8 25 17 18 24 12 31 7 27 1 29-4 29-6 30-13 29-18 19-17 21-24 15-23 8-24 1-26-7-28-13-27-18-23-23-20-25-16-28-13-25-9-31-3-28 0-23 8 2 26"/>
<path d="M11552 41616l-2-1"/>
<path d="M11521 41745l-1 0"/>
<path d="M11718 41618l-1-2-22-9-21 19-14 21-11 26-6 31 1 27 6 26 13 28 16 19 23 12 27 8 29 2 31-7 29-13 23-14 21-17 20-24 12-25 4-28-9-31-10-22-13-22-15-19-20-16-26-12-26-2-29 7-22 11-22 15"/>
<path d="M11338 42096l 0-1-2 30-2 25-1 32-1 31 1 28 0 25 1 31 0 25 1 24"/>
<path d="M11519 42141l 0-1-5 27"/>
<path d="M11522 42263l-1-2"/>
<path d="M11781 42105l 1 0 10 23 6 31 2 24 2 29 1 31 1 29 4 35 0 34 4 31 5 27 6 26 6 28 7 24"/>
<path d="M-38 44709l-5-3-23-8-24 5-28 13-20 16-15 21-11 27-7 30-4 29-2 25 5 25 7 24 12 22 13 21 19 20 28 10 26-2 23-8 24-15 26-19 17-18 15-19 14-21 11-22 11-30 5-27 0-24-10-27-18-25-19-19-22-15-21-13-29-8-25-2-23 5"/>
<path d="M148 44798l 0-2"/>
<path d="M156 44880l-2 0"/>
<path d="M295 44724l-1-1-26 6-22 18-10 22-3 28-2 25 0 28 9 25 13 23 20 20 28 6 26-6 28-14 20-13 19-16 18-21 10-26-1-24-14-25-20-16-25-15-22-12-29-1-26 11"/>
<path d="M-129 45244l-1-1 21-13 29-6 30-4 26 1 20 13-9 26-17 23-19 21-17 16-19 17-19 20-21 17-20 15-23 20-18 19 1 25 27 6 29 0 28-3 30-6 28-8 30-11"/>
<path d="M123 45245l-2 0-14 20"/>
<path d="M117 45339l-1-1"/>
<path d="M288 45215l-2 1-25 7-12 22 25 0 26-9 22-10 30-8 25-1 25 3 15 22-4 25-11 26-13 23-17 25-17 24-17 17-23 21-20 13-27 16-24 16-22 15-13 20 26 7 27-5 24-6 23-8 24-6 29-6 26-3 28 4"/>
<path d="M2472 44503l-2 0-24 4-21 16-14 21-12 23-8 30-4 25 2 25 10 30 9 24 14 22 23 19 23 12 28 6 24-3 28-9 19-19 17-25 11-21 10-23 3-26 1-26-5-25-15-27-24-17-24-4-24 7-23 11"/>
<path d="M2708 44614l-1 0"/>
<path d="M2710 44680l-1 0"/>
<path d="M2849 44556l-2 0-22 13-9 23-6 26-1 27 10 27 17 25 21 18 25 13 28-1 22-12 21-18 16-22 13-27 6-25-4-25-14-21-23-20-27-16-30-5-27 6-28 10-28 15-25 19-22 25"/>
<path d="M2474 45028l 1-1 17-19 25-12 27-10 28-10 25-7 23-7 24-7-2 25-13 23-10 23-11 27-10 26-10 26-10 28-8 32-9 31-7 30-8 25-5 31-4 26 3 24"/>
<path d="M2728 45074l-1 0"/>
<path d="M2728 45161l-1 0"/>
<path d="M2849 44998l 0-1 24-11 25-9 26-9 25-7 23-9 24-9 5 24-1 24-7 24-5 31-2 25-7 26-8 30-11 31-7 23-12 31-9 28-10 24-6 23 0 29"/>
<path d="M-326 40357l-2-2-21-10-29 7-20 16-17 19-12 24-10 25 0 28 6 24 10 27 16 22 21 20 23 10 28 4 24-5 23-14 24-19 18-20 12-21 11-26 7-23-11-25-12-22-17-21-17-20-19-15"/>
<path d="M-132 40450l-1 0"/>
<path d="M-117 40488l-1-1"/>
<path d="M41 40326l-1 0-21 12-10 22-7 27-3 25 3 27 13 23 23 16 23 7 26-5 22-12 18-22 12-25-1-24-8-26-18-21-23-13-28 6-22 14"/>
<path d="M-395 40809l 0-1 21-15 24-5 26-2 26 1 25-1 26 2 22 12 0 27-15 25-19 24-17 20-21 20-22 17-21 15-19 15-19 16-24 18-18 19 5 24 24-1 27-3 27-7 25-6 25-9 22-11"/>
<path d="M-158 40841l-1-2"/>
<path d="M-148 40912l-1-1"/>
<path d="M-64 40804l 1 0 26-11 27-10 26-5 25-3 25 1 21 14-11 27-16 25-18 19-18 23-14 21-17 23-16 18-3 25 23 5 25-6 24-9 25-9 28-6 27-6 26-7"/>
<path d="M-376 41253l 0-1 19-16 25-9 25-7 24-6 27-6 26-7 26-5 26-7 24-6-8 26-8 23-11 25-12 23-9 26-7 26-7 28-7 25-5 29-3 28-3 24 0 29 7 25 27 6 10-22"/>
<path d="M-83 41277l 0-1"/>
<path d="M-83 41377l-2 0"/>
<path d="M142 41198l-1-2-10-21-16-21-26-7-24 11-18 19-17 24-11 23-10 27-7 28 5 24 20 15 29-3 25-10 24-14 20-16 18-19 11-25 6-23-19 17-5 24-6 23-5 25-5 28-1 29 2 30 2 27 5 28 9 24"/>
<path d="M9627 38161l-3 1-21 13-18 21-13 20-12 22-10 27-6 27-3 30 4 27 9 26 13 21 24 17 22 10 24 6 27 2 29-4 29-9 28-10 25-10 22-16 19-19 15-19 11-25 1-26-10-30-14-24-19-23-22-24-22-20-22-17-21-11-27-8-28 1-22 14"/>
<path d="M9942 38226l-1-2 16 19"/>
<path d="M9966 38315l-2 0"/>
<path d="M10108 38195l-2-1-25 2-14 20-9 28-3 26 0 30 7 28 13 21 18 16 26 15 28 7 25-1 27-8 26-13 25-19 21-21 13-24 4-24-9-26-18-19-25-18-22-11-31-6-24 0-32 5-29 11-20 15"/>
<path d="M9764 38514l 0-1-4 28-3 29 0 28 2 25 2 26 5 29"/>
<path d="M9949 38543l-1-1"/>
<path d="M9940 38627l 0 0"/>
<path d="M10134 38498l 0 0 11 24 6 27 3 26-1 25-2 28-3 27 0 26 3 25"/>
<path d="M9804 38917l-1-3-7-24-12-20-23-12-24-9-23 7-18 19-14 22-10 24-3 26 13 23 25 6 26-6 26-14 21-16 15-18-21 16-12 25-3 25 2 27 4 30-2 30-1 25 0 25-1 24-5 29-4 26"/>
<path d="M9897 38958l-2 0-4 25 11 21"/>
<path d="M9901 39080l-1 0"/>
<path d="M10106 38926l-1 1-8 28-3 25-2 29-3 25-3 31-5 29-5 28-3 26-2 24-1 30"/>
<path d="M10220 38983l-2-1-21 15-13 25-3 28-3 31 2 30 6 27 11 25 16 19 24 8 27-1 24-9 25-16 19-19 15-23 9-28-3-29-12-25-22-23-19-15-26-16-27-5-28 7-25 9-23 16-18 23"/>
<path d="M135 46350l-1 0-18-16-24-4-25 0-27 6-23 9-23 10-8 22 1 25 2 27 1 29-2 28-2 25-1 31 1 29 0 30 0 25-2 25-2 26-2 25 1 28-1 26-2 27-1 28 0 25 0 28 0 25-4 26-1 25 2 24 27 3 25-1 26-3 25 4 25 1 24 0"/>
<path d="M209 46509l 0 0 9 23 5 28 3 25 0 28-3 25 3 25 2 26 1 26 1 27 0 24"/>
<path d="M415 46772l-1 0 3 26-6 25-11 25-9 29-11 23"/>
<path d="M557 46521l 0-1 27-5 24 2 25 9 23 7 24 11 18 16 7 26-9 25-19 22-19 20-17 20-17 20-19 18-15 21-6 23 25 3 24-2 25-5 25-8 25-10 26-12 27-13"/>
<path d="M765 46275l 0-1 27 13 25 18 22 15 21 16 22 21 22 23 19 21 18 22 18 23 14 24 15 24 13 26 11 25 10 31 6 28 2 25-4 26-8 31-13 32-11 22-11 21-14 21-16 32-14 27-13 24-16 27-12 22-15 20"/>
<path d="M97 47420l-1-1-25-7-27 7-26 7-26 8-26 9-24 7-25 7 16 19 8 29 5 24 4 27 2 31 1 24-1 26-2 28-1 31-2 31-4 30-3 32-4 30-6 32-7 30-5 28-6 31-5 28-3 25-5 27-5 32-5 33-3 29-1 26-2 31 0 24 1 24 24 8 22-11 25-8 26-3 24-4 25-2 25 9"/>
<path d="M137 47701l 1-2 22-13 25 0 24 7 23 10 22 14 19 17 12 22-3 24-15 26-24 23-20 18-20 21-22 23-21 22-19 20-17 19-16 19-7 26 13 21 25 1 28-6 24-7"/>
<path d="M407 48001l-2 1-10 26-8 25-12 28-13 28-10 22"/>
<path d="M627 47664l-1 0-2 27-9 27-11 27-13 29-12 26-10 25-5 24 8 23 26 9 30-2 29-4 26-5 27-7 28-10 22-9"/>
<path d="M713 47763l 0 0-8 26-2 26-1 25 0 28-3 31 0 28 2 29"/>
<path d="M769 47524l-1 0 23 14 24 16 21 14 23 14 23 17 18 19 18 22 17 21 15 24 11 24 6 25 6 24 3 27 1 30-4 35-6 27-8 28-10 28-12 29-10 28-14 27-14 27-16 24-15 23"/>
<path d="M170 48563l-2-1-29-3-27 4-27 7-23 8-24 5-22 12 9 25 6 24 4 27 2 28 0 24 0 27-1 30-4 33-5 25-5 36-3 35-3 33-3 26-4 24-6 35-2 25-3 31-1 31 0 28 2 29 3 26 8 23 22 13 27-2 27-1 26-6 27-1"/>
<path d="M287 48739l 0 0-11 26-11 24-14 27-12 24-10 24-9 23-9 28-7 25 4 27 14 20 24-1 25-8 26-10 29-11 24-8 23-11 21-11"/>
<path d="M337 48841l 2 0-7 24-2 26 0 29 1 25 1 25-3 27-1 27-1 29-2 27"/>
<path d="M525 49127l-1 1-20 19-18 21-11 21-15 25-11 23"/>
<path d="M824 48775l-4-2-24-10-28-5-25-1-27 3-22 11 10 23 19 19 21 15 22 13 26 12 21 13 20 16 18 16 4 30-6 25-7 25-12 28-18 26-19 21-21 15-21 10-25-14-4-28 4-28 7-24 11-27 13-26 18-24 22-24 22-23 20-21"/>
<path d="M958 48592l-1 1 21 16 19 16 21 15 18 18 19 18 15 25 14 25 10 27 7 23 10 29 8 25 6 27 3 28-2 27-1 26 0 27-6 30-8 30-10 31-10 28-11 29-11 27-13 25-15 26-13 25-13 21"/>
<path d="M180 45679l 0-1-21-12-27-2-27 3-24-1-26 3-8 25 0 26-1 29 0 29-3 31-2 32-3 25-2 27-4 28-4 26-6 30-5 30-2 26-2 29 2 24 23 10 28-3 25-4 25 1"/>
<path d="M250 45847l-2-1-25 3-18 19-11 24-7 24-4 26 6 28 10 22 15 20 25 7 25-5 22-16 15-22 10-22 0-28-10-22-16-23-21-17-24-9-24 9"/>
<path d="M449 46040l 0 0-7 25-8 27-11 24-13 29"/>
<path d="M630 45816l 1-1 4 28 5 25 0 28 1 24 3 24-2 27-2 25 0 26"/>
<path d="M709 45680l 0 2 21 14 19 19 17 20 15 25 15 25 16 25 11 27 11 27 11 24 6 28 0 29-1 30-7 27-9 25-7 24-9 26-15 23-14 21-19 20"/>
<path d="M-190 45882l 1-2 20-13 24-5 37-3 30-4 35-1 40-2 46-1 25 0 25-1 27 0 27 0 28-1 29 0 29 1 29 0 30 0 31 0 30 0 30 0 31 0 31 0 30 0 30 0 30-1 29 0 28 0 28 0 27 0 26 0 26 0 26 0 24 1 25 1 47 1 43 4 40 5 38 6 34 7 34 8 31 8 28 7 26 6 24 6 28 6 29 8 23 9"/>
<path d="M-28 49727l 0-2-5-25 4-27 12-22 16-20"/>
<path d="M18 49743l-1-2-1-24 10-24 19-22 18-20 19-15"/>
<path d="M196 49629l-1-1 9 26 0 30-2 25-5 28-7 28-8 31-7 24-7 25-8 26-7 27-5 25-9 25-7 25-9 23-9 25-10 34-9 30-7 25-6 23 12-22 10-27 13-32 15-31 12-21 16-32 16-28 12-25 15-19 18-21 19-18 21-14 2 25-9 26-8 30-8 31-6 28-6 28 1 30 8 24"/>
<path d="M400 49934l-2-1-23-9-22 14-16 23-14 22-12 23-7 26 7 24 24 7 24-12 23-16 17-17 12-22-2 25 21 15 25-3"/>
<path d="M545 49946l-1 0 10-23 17 20 13 24 13 23 10 23-10 23-25 5-26-1-24-7 26-1 27 4 25 0 27 1"/>
<path d="M742 49690l-1 0 3 26 0 24-7 26"/>
<path d="M871 49678l-2-1-6 27-3 26"/>
<path d="M-1554 46314l-2-1-24-8-24 1-23 7-22 12-21 13-9 24 2 25 0 25 1 29 1 25 2 28 0 29-1 30 0 30 0 32-1 31-2 34 1 30-2 30-2 33-5 31-5 27-9 29-7 27-3 25-3 25 3 24 25 9 25-2 25-2 26-2 25-2"/>
<path d="M-1426 46626l-1-3-17-19-26 2-23 15-16 20-14 27-6 24 0 26 3 25 8 25 12 23 16 24 25 14 27 5 28-1 23-6 27-16 20-21 12-28 6-27-5-27-10-30-10-24-12-23-15-26-18-21-24-3-21 18-16 22"/>
<path d="M-1206 46856l-1-1-19 23-14 21-14 28-11 29-11 26-10 27"/>
<path d="M-1071 46558l 0 0 2 25 4 24 5 30 2 29 2 30 2 32-2 24-3 31-3 29-4 27"/>
<path d="M-1014 46417l 1 0 17 19 20 20 20 16 22 19 22 20 21 20 19 21 19 20 19 23 13 21 12 21 12 27 5 28-2 29-5 24-7 25-10 28-12 26-16 28-15 27-17 27-15 26-13 22"/>
<path d="M1986 46690l-1 1-12 25-7 26-2 24 0 29 8 24"/>
<path d="M2011 46531l 0-1"/>
<path d="M2192 46587l 1-2 22-11 27 0"/>
<path d="M2152 46677l 0-1 23-10 25-5 25-3"/>
<path d="M2495 46537l-2 0-22 11-15 22-6 30 5 24 11 25 15 24 20 20 24 19 21 12 23 10 24 5 32 3 28-3 25-7 21-12 18-20 12-27 5-23 0-25-3-28-9-29-11-24-18-23-22-13-26-6-30 0-25 5-25 10-24 11-24 17"/>
<path d="M-1967 49690l 0-2 2-25 3-27 11-23 17-18"/>
<path d="M-1874 49682l 0-2 1-25 10-23 17-18 21-12"/>
<path d="M-1699 49750l-1-2-13-21-25 6-22 14-19 18-9 24 14 21 27 8 28 2 28 2 28 4 22 10-6 25-22 19-22 16-26 16-26 10-26 8-27 2-22-10 8-27 19-17"/>
<path d="M-1598 49812l 0 1-17 19-7 25 8 26 21 16 25-7 24-13 19-18 8-24-5-23-9 22 6 27 12 21"/>
<path d="M-1436 49805l 0 1-11 22-6 23 19 15 13-22 18-19 15-18-6 25-1 25 1 26 24 8 20-18 13-21 6 24 1 26"/>
<path d="M-1245 49733l 0-1-8 24"/>
<path d="M-1168 49740l 0 1-11 22-5 25"/>
<path d="M5536 46402l 0-1 7 25-8 24-6 24-7 24-8 27-8 28-9 26-8 27-7 25-7 25-8 23-5 24-3 27-5 25-3 25 9-24"/>
<path d="M1941 47720l 0-1-20 19-9 24-10 30-6 25-6 25-4 31-1 30 0 26 4 27"/>
<path d="M2023 47491l 0-1"/>
<path d="M2108 47705l 0 0 27 2"/>
<path d="M2078 47799l-2 1 25 0 25-4 26-3"/>
<path d="M2395 47567l 0-1-1 25-1 26-3 30-5 31-4 25-4 25-5 24-4 26-7 31-7 29-7 25-5 29-3 25"/>
<path d="M5336 47594l 0-1-14 22-11 24-14 25-13 26-12 23-12 23-14 22-14 22-13 22-12 22"/>
<path d="M5426 47674l-2 1-24 15-20 19-12 24-2 26 6 23 15 24 22 16 23 9 27 2 27-3 27-11 29-11 27-14 24-18 22-21 16-21 9-23-2-24-14-24-19-19-22-12-24-2-25 2-25 7-22 12"/>
<path d="M5701 47908l-1 1-10 23-14 25-17 24-20 22-19 24-16 21"/>
<path d="M5989 47661l-1 0-5 25-5 26-8 29-8 25-8 26-8 28-9 24-6 27"/>
<path d="M6218 47661l 0-2 1 26-6 24-9 28-8 25-8 24-9 23-8 22-8 23-10 27-13 24"/>
<path d="M-1598 47504l-2-1-22-8-26-5-25 0-25 4-26 6-25 6-23 6-24 7 6 26 0 29 1 28 0 27 2 27 0 30 0 33-1 33-2 35-1 24-2 27-1 25-3 26-2 25-2 32-2 31-3 28-3 31-3 28-1 25-3 24-6 26-5 30 5 26 13 20 26 2 26-4 26-5 27-1 27-5 25-3 26-7"/>
<path d="M-1587 47761l 0 0 4 25 6 26 7 29 5 25 3 28-2 25 0 25-3 25"/>
<path d="M-1410 48035l 0 1-8 26-9 28-7 25-9 27"/>
<path d="M-1238 47775l 0-1 26 6 26 4 24 2 27 3 24 2 11 22-6 23-16 22-18 17-18 19-23 22-21 21-19 19-14 20 0 25 27 2 27-6 28-9 26-10 22-11 23-10"/>
<path d="M-1070 47596l 0 2 20 15 19 22 19 22 20 25 16 21 17 20 15 20 16 20 16 25 10 25 8 26 3 30-2 25-4 27-9 28-16 32-13 23-16 26-18 28-16 27-20 28-18 27-18 24-21 24"/>
<path d="M-1751 48702l-1 0-16-18-22-14-25-9-27-4-26-2-22 11 0 28-3 25-6 28-4 24-3 28-6 29-5 32-7 34-4 25-6 34-5 23-6 31-5 35-6 38-5 33-2 32-1 28 3 27 2 28 3 25 5 25 16 20 20 14 26 6 27 1 25 5 25 2"/>
<path d="M-1723 48920l 1-2 8-22 20-19 24-6 27-4 26-1 26 7 18 18 2 24-8 26-14 25-14 21-15 22-16 20-17 21-15 18-16 22-10 22 12 24 28 1 24-6 23-9 27-7 27-4"/>
<path d="M-1450 49109l 0 1-2 27-5 25-6 25 0 25"/>
<path d="M-1280 48910l 0-2-3 27-6 29-9 26-11 24 1 26 19 15 26 6 29-2 25-4 26-7 23-8 27-10 23-10"/>
<path d="M-1158 48961l-1 0-10 23-1 24-2 26 0 25-2 28 5 24"/>
<path d="M-1111 48791l 0 0 17 18 22 21 19 19 21 22 22 21 16 19 16 24 14 26 11 23 4 26 2 28 0 27-3 30-5 29-8 33-11 33-9 31-9 27-8 30-12 25-9 23"/>
<path d="M6500 48624l-1 0-25 1-17 16-14 21-16 18-19 14-16 24-11 22-12 22-8 23 13 22 22 11 28 4 24-3 27-7"/>
<path d="M6600 48644l 0 0-14 23-4 26 1 25 12 23 25 4 24-9 18-20 14-21 8-24-11 24 0 27 7 25 11 21 19 15"/>
<path d="M6753 48683l-1 0-9 23 2 25 3 25 20-15 15-24 12-22 12-21 13-24 16-21 11 21-2 27-1 26 1 25 5 24 20-14 15-21 15-20 19 16 3 25 7 24"/>
<path d="M7081 48637l-1-2-26-1-25 11-21 15-18 17 8 24 25 9 25 4 24 9 23 9 5 25-17 17-24 15-24 11-25 4"/>
<path d="M7156 48660l-2 1-9 22-6 26 2 24 16 19 26-6 21-15 19-22 15-23 10-24-5 26 4 26 10 22 23 10 27-4"/>
<path d="M7319 48667l 0 0-12 22-5 25 0 24 20-14 14-20 16-23 14-19 22-13 14 20-2 27 2 24 25 1 20-16 17-18 12 21 1 24"/>
<path d="M7621 48575l 0-1 26-2 24-2 24 0 26-2"/>
<path d="M7618 48638l 0 0 26-2 24 0 27-2"/>
<path d="M7907 48468l-1 1 21-12 25-3 24 6 20 15 20 16 17 18 11 23-11 26-19 21-21 19-20 14-22 14-23 15-22 15-20 16-22 17-19 19-2 24 27 4 26-4 25-3 25-1"/>
<path d="M8108 48757l-1-1-10 25-11 25-13 25-12 24"/>
<path d="M8302 48506l 1-1 26-5 26 2 25 2 30 2 25 5 26 6 21 16-6 24-22 18-26 19-21 13-25 16-25 13-23 13-23 14-20 14 1 25 26 2 27 6 27 10 29 6 24 6 29 8 24 9 19 15-3 25-22 18-19 15-23 12-25 5-23 9-25 9-26 3-25 3-28-2-24-9"/>
<path d="M4215 48548l 0-2 2 30 1 30-1 34 0 28-1 26-1 27-1 27-1 25 0 26 0 25 0 26 0 24 2 35 1 30-1 26-1 26-4 30-8 25-19-18-2-30 1-27 3-29 4-27 6-27 7-26 8-25 11-27 14-26 16-22 19-16 28-3 25 3 25 10 17 20-4 25-12 23-15 21-18 20-21 17-19 15-22 15-21 17-9 24 17 18 26 6 27 0 28-2"/>
<path d="M4186 48541l 0-3-2-27-3 32 0 26 0 28 2 30 2 28 3 30 2 34 3 30 4 34 3 29 3 31 0 28 3 30 0 26 0 30-3 26-3 25 1-26 3-31 4-24 3-25 5-25 4-25 8-30 6-24 11-24 14-20 22-13 25 1 22 12 18 17 16 24 12 21 7 25 0 29-10 28-15 24-17 22-22 23-17 18-23 21-21 14-22 11-25-5"/>
<path d="M4423 48807l-2-1-20 14-8 26-1 28 4 25 14 22 27 2 25-12 15-24 9-25 3-25-6 26 6 26 12 23 18 16 25 8"/>
<path d="M4651 48796l-1-1-21-12-23 14-18 19-17 22-12 26-5 27 6 23 26 4 23-8"/>
<path d="M4703 48585l-1 1-18 17-4 26 1 24 6 31 5 29 3 32 2 32-1 24-4 26-4 28-5 24-8 28-8 24-11-21 0-24 4-28 7-25 14-22 19-17 21-14 24-8 10 23-16 22-16 21-15 21-13 24-3 25 17 18 27 6 27-2"/>
<path d="M4816 48837l-2 1 25-2 22-16 17-17-4-24-25 0-22 13-18 17-13 23-1 24 10 24 22 14 25 7 25 1 27-7"/>
<path d="M4966 48632l-1 0-13 20-4 30-2 26 0 30-1 26-2 28-1 26-1 26 2 27 9 22 18 17 26-3 24-10"/>
<path d="M4905 48768l-2 0 25-2 29-9 25-6 25-6"/>
<path d="M5074 48737l-1 0 23-9 25-3"/>
<path d="M5053 48789l-1 1 26 1 27-8 24-10"/>
<path d="M5208 48676l-1 0 24-6 25 2 28 6 24 12 9 23-3 26-14 25-16 22-23 22-20 19-20 22-18 18-18 18-13 24 22 11 28 5 27-2 29 1"/>
<path d="M-1981 51458l 1-2 4-26-3-25-25-2-24 9-21 11-23 15-23 18-18 17-17 21-15 20-12 27-9 29-6 27-2 28 5 25 11 22 19 16 24 8 29 0 25-5"/>
<path d="M-1867 51498l 0 0-15 19-8 25-3 26 9 23 23 8 21-13 15-18 14-23 7-24 6 26 5 25 17 18 24-3"/>
<path d="M-1687 51488l 0 1-13 22-3 25-3 25 21-13 14-27 9-24 13-23 19-20 21-12 11 24 2 28-1 25 1 26 10 23 20-18 12-23 12-24 13-23 6 27 1 26 8 24 13 21"/>
<path d="M-1195 51217l-1-2-10-23-27-2-25 13-25 19-26 20-20 20-19 19-17 22-10 25-2 24 13 21 26 13 24 7 25 10 27 7 29 7 31 8 29 9 23 12 23 16 5 27-13 26-18 20-19 16-21 16-22 14-26 15-27 9-24 1-29-3-19-19"/>
<path d="M-1111 51451l-2 2-15 21-10 24 2 26 20 15 25 5 24-7 17-17 19-17 10-23-7 23 8 25 22 15"/>
<path d="M-911 51468l-2 1-17 19-6 24 1 25 22-14 15-21 13-22 16-19 16 18 5 25 7 23 24 7 17-20 7 24 10 23"/>
</svg>
