<svg xmlns="http://www.w3.org/2000/svg" viewBox="1140 2248 6803 4390" stroke="black" stroke-width="16" stroke-linecap="round" stroke-linejoin="round" fill="none" data-xena="0 0 0"><style>@media(prefers-color-scheme:dark){svg{background-color:black;stroke:white;}}</style>
<path d="M1372 2351l 1 0-20 22-14 24-12 27-15 32-9 26-7 28-9 30-6 31-7 34-7 35-3 36-4 36-2 37 0 36-1 34 2 32 4 29 4 25 7 25 12 30 13 25 21 23 22 17 26 9 27 2 25-6 22-15 18-22 11-26 2-27-11-25-14-21-17-23-20-21-21-19-20-17-23-15-23-9"/>
<path d="M1641 2640l 0 0 4 27"/>
<path d="M1677 2783l-3 0"/>
<path d="M2533 2399l 0-1-24 11-16 22-14 29-14 28-12 32-10 34-8 33-8 32-7 31-4 30-3 27-3 31 0 27 5 29 4 25 9 30 8 24 11 24 13 20 14 21 17 18"/>
<path d="M2870 2422l-1-1-23 9-12 22-11 22-12 27-11 24-11 27-11 29-9 30-7 30-3 29-1 28-1 28 1 27 3 26 2 24 8 27 11 23 15 24 14 21 15 22 17 21 16 17 22 15 21 16 22 11"/>
<path d="M2216 3912l-2 2-15 25-12 28-11 26-12 29-9 23-9 27-10 29-8 34-10 37-10 38-9 41-9 42-7 42-3 42-3 41 2 39 1 37 4 35 3 29 6 28 6 27 8 23 9 23 11 30 11 28 14 28 16 27 15 23 16 20 16 19 21 19 24 18 25 7"/>
<path d="M2390 3950l-1 2-12 22-10 28-7 32-6 27-3 32-3 33 2 32 1 26 6 25 10 30 15 25 20 18 25 7 27-3 22-16 11-22 1-26-9-24-21-19-23-10-25 1-22 17"/>
<path d="M2389 4510l 0 1 22-12 26-7 27-3 24-2 25 0 12 21-16 22-17 22-18 20-16 20-13 21 26 4 24-2 26-4 27-2 25-2 21 14-2 25-11 26-12 24-19 23-22 21-27 18-25 16-26 12-28 7-28-7"/>
<path d="M2549 4025l 0-1 24-4 24 8 27 14 25 16 19 18 19 21 23 26 19 28 20 30 18 31 12 21 15 33 14 32 12 31 8 32 8 35 5 26 5 26 2 24 2 24-1 35-1 25-2 25-2 28-3 26-4 27-5 27-7 24-6 24-7 34-5 31-9 24-13 22-16 21-22 10"/>
<path d="M3209 4437l 0-1 24 9 28 3 27-1 30-3 27-3"/>
<path d="M1915 4815l 1-1 23-12 24-10 30-16 26-16 21-11 23-13 24-13 24-15 24-16 25-17 27-18 29-21 28-22 28-25 29-26 28-27 31-27 32-27 30-28 32-27 30-26 29-27 31-26 30-25 29-25 28-23 27-22 24-20 22-19 22-19 19-16 20-15 26-22 19-16 24-18 22-19 22-16 22-12"/>
<path d="M4118 3954l-2-1-21 16-11 23-14 26-10 24-9 30-7 24-8 25-7 27-9 28-8 29-8 29-8 30-8 30-6 31-7 32-6 33-6 32-6 33-5 31-2 30-2 30-2 28-1 28 0 28 1 25 3 37 6 32 8 29 10 28 9 26 8 23 14 26 16 23 14 19 18 19 21 14 24 4"/>
<path d="M3114 4578l 2-5 9-27 13-23 15-25 19-27 19-29 15-21 15-21 22-28 21-27 23-22 19-21 17-17 20-17-3 30-12 29-13 24-10 25-11 25-12 25-10 23-12 23-14 30-9 24-9 23-3 26 25-1 24-11 20-15 21-15 22-19 19-16 0 26-8 24-5 28-6 28 0 29 17 23 26 8"/>
<path d="M4354 4012l 0-1-5 28-9 28-9 27-11 29-8 23-13 27-9 25-7 24 12 22 25-5 24-9 30-11 29-13 27-14 22-13 22-13 25-13 22-11 22-14 23-15"/>
<path d="M4484 4038l 0-1-5 24-1 29-2 29 0 30 3 25 2 25 1 24 4 31 6 31 6 28 5 24 6 27"/>
<path d="M4460 4544l 0 0 11 23 6 25 2 31 1 30 3 32 1 31 1 26 2 31 3 26 3 28 5 25"/>
<path d="M4655 3822l 0 0 3 25 6 28 8 27 11 31 13 31 12 30 14 28 16 26 15 26 16 26 17 26 17 25 17 28 18 30 15 33 8 22 9 25 9 25 9 25 6 28 6 28 5 31 3 28 2 29 3 28 0 28 2 28 0 28-2 26-2 27-4 26-4 26-3 25-4 25-9 31-9 27-12 28-12 27-13 22-22 13"/>
<path d="M5149 4355l 0 0 22-14 23-8 23-8 27-4 27-5 25 0"/>
<path d="M5775 3964l-1-1-21 13-16 20-17 24-14 24-12 24-11 29-12 33-10 24-9 27-8 29-8 30-8 33-7 33-6 33-6 33-4 33-4 30-2 28 0 26 0 24 4 34 5 33 9 33 10 29 11 26 13 24 13 23 15 21 15 20 22 21 19 16 24 16 26 10 24-1 21-11"/>
<path d="M6036 3955l 0-1-11 23-12 24-12 29-10 30-8 22-8 24-9 24-9 29-6 25-3 28 6 23 18 18 25 0 28-9 25-10 25-12 25-12 24-11 28-11 26-13"/>
<path d="M6087 4117l-1-1 0 26 2 30 3 25 4 24 4 24 5 26 5 25 3 28"/>
<path d="M6056 4490l 0 1-1 24-11 21-14 24-12 23-12 23-12 23-11 23-12 22-6 24 25 7 24-4 25-7 25-8 28-9 23-10 24-10 22-10 23-10 22-10"/>
<path d="M6129 4580l-1 1-1 26 6 29 4 24 5 28 4 28 5 28 4 26 5 28 5 27 4 25"/>
<path d="M6227 3933l-1-1 12 21 16 19 17 19 20 21 23 22 18 17 18 18 18 16 20 19 19 19 21 19 20 20 20 19 18 19 17 20 14 21 13 24 11 25 10 26 8 28 7 29 6 30 4 28 3 30 3 28 2 28 4 30 1 26 0 27 0 25-1 25-1 25-3 35-3 30-4 28-5 26-6 24-6 29-8 24-11 24-16 18"/>
<path d="M6942 4293l 0 1 27-1 25 0 27-4 29-3"/>
<path d="M6942 4384l 1-1 24-6 27-1 24-3 29-3"/>
<path d="M7441 4129l 0-1 9-22 21-16 27-11 27-8 31-4 25-2 24 2 25 2 30 5 25 8 23 12 20 18 7 26-11 27-16 20-21 23-19 17-20 16-23 15-24 15-24 14-22 11-25 11-23 9 26-11 24-6 29-5 31-4 32-1 31-1 31 2 28 3 26 6 28 10 20 15 14 22 8 26-1 25-7 27-13 28-13 25-17 25-21 24-24 25-26 23-27 22-27 18-27 15-28 10-27 7-25 4-31-1-28-6-26-10-24-12-20-14"/>
<path d="M1338 5753l-1-3-22 9-12 30-10 31-7 25-8 30-10 33-8 34-8 37-5 35-1 37-3 38 0 37 1 38 1 35 3 32 5 27 6 25 9 23 16 31 17 26 18 19 23 14 26 16 25 10 28 1 28-5 22-20 9-27 1-30-4-25-11-30-18-25-18-18-25-19-26-11-24-3-25 0-28 5-25 14-21 18-8 25"/>
<path d="M1594 6071l 0 0 1 26"/>
<path d="M1599 6218l-2 1"/>
<path d="M2209 5755l-1-1-22 10-19 20-17 21-14 26-10 23-8 26-10 29-9 29-9 32-9 33-7 34-7 35-3 33-1 32-2 29 3 28 0 28 3 25 6 34 9 29 9 27 12 29 12 27 15 25 21 23 22 21 21 19 23 16 22 13 26 12"/>
<path d="M2710 5763l-1 2-19 15-19 20-15 21-9 24-10 23-13 24-12 26-10 29-6 30-8 31-4 31-3 34-1 31 0 33 5 33 7 32 8 29 10 26 13 23 12 23 14 23 19 25 18 16 21 17 21 14 26 12"/>
<path d="M2884 5757l 1 0 19 17 25 18 20 20 19 25 17 24 15 26 14 28 14 31 13 34 10 34 8 24 7 24 10 28 6 25 3 25 4 24 1 37 2 25 3 37 0 35-1 35-5 34-4 34-7 30-6 28-7 24-10 29-13 24"/>
<path d="M3512 6057l 0-1"/>
<path d="M3550 6223l-1 0"/>
<path d="M4532 5772l 0-2-24 8-18 24-13 22-15 27-12 25-12 24-12 26-8 25-9 26-4 24-4 29-3 30-1 30 1 30 3 31 5 31 4 32 7 28 6 28 8 26 12 26 14 25 12 23 17 26 17 23 20 20 21 11 24 5 25-4"/>
<path d="M4772 5746l 0-2 18-18 29 0 27 2 25 4 24 5 26 8 21 12 0 26-16 22-16 18-18 18-20 19-20 15 28 3 28-5 27-3 29-1 28 3 27 8 24 13 10 23-5 25-18 22-23 19-21 12-25 10-28 9-29 5-29 4-26 2-24-2-20-12"/>
<path d="M5025 6190l-1 0 8 26 8 22 5 26 2 26 1 26 0 29-3 26-3 27"/>
<path d="M5123 5614l 0 1 14 22 15 22 19 24 19 20 22 20 21 22 22 22 24 26 16 19 17 20 15 20 21 29 17 30 16 32 13 33 6 25 5 27 1 29 1 33-1 31-3 33-4 33-4 33-5 32-5 31-4 29-6 28-5 26-5 26-7 33-9 27-12 29-13 24-23 11"/>
<path d="M5611 6055l 0 0 26-4 26-2 27-2 28-3 23-5"/>
<path d="M6225 5598l 0-1-19 16-17 19-14 24-11 25-9 24-9 28-9 28-8 29-9 31-9 34-9 34-7 33-6 31-6 31-6 29-4 30-4 27-1 26 0 25 1 25 3 31 7 31 7 30 9 27 11 23 13 24 11 22 12 21 15 23 13 21 15 24 16 20"/>
<path d="M6404 5609l 2-2 21-15 22-10 27-6 28-2 28 0 24 4 22 10 6 24-16 21-20 18-23 19-20 15-24 14-22 11 29-6 28-1 30-1 24 1 28 3 25 8 26 7 22 16 4 25-12 24-15 22-20 22-20 18-23 15-25 11-25 7-25 4-28-2-23-5-20-15"/>
<path d="M6522 6033l 0 0 24-2 25-3 26-7 24-4 6 26-18 22-16 19-17 19-17 20 23 12 25-5 29-2 25-2 30-1 26 3 25 7 18 18 1 27-6 26-10 23-15 23-19 22-22 23-24 19-20 13-28 11-29 5-26-1-23-10-19-26"/>
<path d="M6732 5515l 1 0 18 19 21 16 20 15 24 16 26 18 29 18 29 20 21 14 20 15 20 16 20 16 25 24 16 18 19 27 17 30 11 33 5 25 3 27 0 27-2 27-4 28-6 30-7 32-9 33-12 32-11 32-12 31-13 31-13 31-13 28-13 28-13 27-12 24-11 21-14 28-13 21-21 16"/>
<path d="M7195 5787l 1 0 26 7 24 6 28 4 28 1 24 0"/>
<path d="M7188 5924l-1 1 13 21 31 1 24-3 26-4 27-6 28-7 28-9"/>
<path d="M7454 5742l 1 0 25 0 27 4 24 4 28 3 28 3 31 4 30 5 30 5 28 6 24 8 21 15 12 26-1 29-12 28-15 22-20 24-22 22-19 18-19 16-20 17-23 21-22 18-24 19-23 19-21 18-20 19-17 17-21 24-16 23-2 26 22 11 31 2 30-3 36-9 25-6 28-7 28-9 27-11 28-10 27-10 27-10 25-9 23-10"/>
</svg>
