<svg xmlns="http://www.w3.org/2000/svg" viewBox="1326 2479 4742 3635" stroke="black" stroke-width="19" stroke-linecap="round" stroke-linejoin="round" fill="none" data-xena="0 0 0"><style>@media(prefers-color-scheme:dark){svg{background-color:black;stroke:white;}}</style>
<path d="M1545 2824l-2-1-21-13-20 15-14 20-12 27-11 24-8 27-5 30-2 31 0 29 5 30 7 26 14 28 17 20 21 12 25 6 28-2 25-5 27-9 27-12 23-16 21-16 19-19 14-22 13-29 7-30 0-25-7-26-13-24-17-24-21-24-23-23-24-22-22-16-26-11-26-1-27 10-19 21"/>
<path d="M2084 2760l-4 0-26 0-21 16-17 25-11 26-7 30-2 31 5 26 7 28 9 27 12 24 13 24 18 19 22 16 29 9 25 7 26 2 26-3 28-7 26-12 25-18 21-20 18-23 11-26 6-28 0-28-3-28-13-29-18-30-15-21-14-20-23-25-23-19-23-9-24-4-25 3-24 8-24 15-15 20-6 24"/>
<path d="M2628 2726l-1-3-20-16-27 6-20 14-15 20-11 22-8 30-3 27-1 28 5 28 12 27 13 31 12 30 16 26 21 21 24 16 23 11 23 8 25 4 31 1 24-5 24-8 22-14 19-19 15-23 12-27 7-31 3-32-2-33-6-34-11-34-15-29-18-21-21-16-22-12-25-7-30-3-27 0-27 4-26 7-25 12-25 17"/>
<path d="M1639 3564l-2-2-21-12-29 3-23 11-23 21-18 21-17 27-13 29-11 33-8 33-3 25 0 26 4 27 5 25 6 25 8 24 7 23 18 31 19 27 23 18 26 14 29 9 31 1 31-3 31-10 32-15 21-14 19-15 19-18 17-19 16-22 15-31 7-32 1-31-7-34-12-34-12-25-14-24-16-25-20-23-19-22-20-19-21-15-27-16-25-8-26-3-31 3-28 13-20 19-8 25"/>
<path d="M2231 3580l-1-1-23-8-27 10-22 15-19 20-18 25-13 29-8 26-8 29-3 30 0 30 6 31 9 28 13 25 16 22 22 17 24 14 24 8 32 4 28-5 29-10 28-17 25-22 24-26 17-26 9-27 5-28 1-29-7-32-12-34-10-22-14-24-14-25-17-22-17-19-24-19-25-11-28-4-25 6-16 19-5 27"/>
<path d="M2752 3534l-1 0-1 27 4 25 2 31 3 25 1 28 0 30 0 32 3 31 5 31 4 29 4 29 5 27 4 28 4 27 5 23 6 24"/>
<path d="M5650 2736l-1-3-10-24-22-12-28 5-22 13-20 24-14 21-12 25-9 24-5 24 1 31 5 23 7 24 12 23 20 24 25 14 30 3 26 0 31-4 33-10 31-16 29-22 18-16 24-24 20-25 14-26 10-24 5-27-1-27-7-26-12-27-17-26-20-25-23-19-23-15-23-8-30-6-31 4-23 10-22 17-20 21-17 25"/>
<path d="M5705 3189l-2 0-9 24 2 27 1 31 2 26 1 26 3 28 5 29 4 33 3 34 3 32 3 28 3 24 3 28 5 26 3 24"/>
<path d="M5733 3981l-1 0-4 24 0 31-1 31 0 25 0 25 1 25 0 25 0 25 0 25 0 25 1 26 1 25 1 36 2 34 2 34 1 32 1 28-1 29-1 27"/>
<path d="M5597 4462l 0 2 10 24 11 23 17 25 15 19 20 24 23 21 24 14 27 8 23-5 20-18 19-27 14-26 12-29 10-30 8-30 6-31 7-30 4-28 3-26"/>
<path d="M5734 4938l 0-2 2 31 3 32 0 27 1 28-1 31 0 30 0 31-1 30 0 30-1 29-1 26-2 28 2 25"/>
<path d="M5721 5659l-3-4-15-20-25-6-16 25-11 25-6 24-6 26-3 28-1 30 2 33 5 33 6 25 9 32 14 27 18 21 21 15 23 12 26 5 28-2 29-11 29-20 18-18 18-21 15-23 14-28 11-26 9-25 6-24 5-30-2-32-8-31-12-31-15-29-19-27-19-22-20-17-27-11-28-1-28 4-25 8-22 13-19 15-18 21"/>
</svg>
