<svg xmlns="http://www.w3.org/2000/svg" viewBox="-772 1099 15840 31560" stroke="black" stroke-width="20" stroke-linecap="round" stroke-linejoin="round" fill="none" data-xena="1 -12 0"><style>@media(prefers-color-scheme:dark){svg{background-color:black;stroke:white;}}</style>
<path d="M1544 1780l-2 26 1 31 5 36 4 26 4 27 4 27 4 25 4 24 3 34 2 32 0 31-2 28-3 30 0 25"/>
<path d="M1135 2891l 26-7 24-19 22-20 17-18 18-21 18-24 19-26 18-28 18-28 18-30 16-30 14-29 11-29 8-27 4-26 0-25-1-24-6-34-8-26-15-22-26 12-12 22-14 34-11 28-10 31-9 34-8 35-6 36-4 35-2 34 0 31 4 29 4 26 10 32 13 25 16 18"/>
<path d="M1441 2717l-23 9-23 16-18 21-10 24-4 29 6 24 22 13 27-5 22-14 17-18 10-23-7-25-26-6-20 14 6 26 25 6 28-8 24-14 20-19 15-20 10-24 8 24 15 19 18 21 17 21-8 23-26 10-25 2-28 0 24-11"/>
<path d="M1650 2793l 20-14 22-14 21-17 11-24-18-16-25 1-25 12-20 21-10 23-5 25 5 29 13 23 27 10 32-2 29-9 22-10 23-13 24-16"/>
<path d="M2918 1940l 24-13 30-5 31-1 25 2 26 4 26 7 24 9 23 12 20 21 7 25-8 31-14 27-15 20-18 22-21 20-24 23-24 21-24 21-25 20-24 18-23 16-20 14-26 20-21 21-10 23 23 6 31 0 28-1 30-1 30-1 32-1 31-1 30 0 27 1 26 4"/>
<path d="M4602 1970l-10-22 19-19 29-10 27-6 29-5 28-2 27 2 30 8 20 15 10 26-10 24-23 19-23 14-27 13-27 12-23 10-25 12 23 13 27 1 33 3 27 4 29 6 29 6 29 9 27 10 24 11 24 17 12 21 0 29-14 27-19 23-26 25-20 17-21 15-21 13-33 15-24 5-26 2-26-2-24-4-25-5-32-11-27-12-20-13-17-17"/>
<path d="M1416 3684l-25-1-21 14 2 24 17 19 21 14 28 6 30 0 24-7 24-13 20-22 12-23 7-27-4-28-13-23-19-18-22-11-25-3-25 5-27 12-26 16-20 17-14 22"/>
<path d="M6342 1939l-4-26-7 24-8 29-10 23-9 23-10 23-16 33-12 31-10 28-2 26 16 21 31 4 26-5 29-9 30-11 32-13 23-10 30-14 28-13 24-12 26-13 24-14"/>
<path d="M6471 2023l-22 13-5 25-4 28-2 32-1 34 0 33 2 31 3 30 1 27 3 26 4 29"/>
<path d="M7923 1919l-3-24 24-9 26-4 31-4 31-4 27-4 30-5 29-5 26-3"/>
<path d="M8040 1894l-27 9-21 17-13 24-9 25-9 26-7 24-5 26 8 24 23 11 29 0 24-3 27-5 31-7 32-7 32-5 29-3 26 0 29 4 24 12 11 22-2 28-11 28-16 23-18 23-18 23-22 22-25 20-28 17-27 13-25 9-31 4-25-4-22-10-20-14-16-19"/>
<path d="M2641 3007l 5-24 27 3 24-12 23-18 20-20 22-28 16-22 17-23 16-25 15-25 13-25 12-26 9-25 6-26 5-26 4-25 2-34 2-27-2-25-25-3-17 30-15 31-11 26-10 28-10 30-8 32-6 33-5 32-3 30-2 28 1 26 6 31 10 24 17 22 25 12 26-1"/>
<path d="M2973 2874l-24 7-15 20-9 25 1 26 11 21 25 7 23-11 19-19 13-22 1-26-20-19-24 1-17 17 25 12 24-5 27-10 26-15 19-15 22-20 16-19 8-23-10 24 0 30 5 24 8 27 10 27 7 26 1 27-12 21-22-14-12-23 20-16 25-3 25-4 26-6 26-7 23-11 23-15 16-18-9-23-26-2-21 13-20 20-13 22-7 28 5 25 17 25 20 14 23 10 27 7 28 2 26-3 26-4"/>
<path d="M2990 3609l-26 6-20 14-16 20-14 28-6 25-4 28 2 29 7 26 13 22 23 19 24 12 31 0 25-7 26-13 24-18 21-21 16-23 10-28 0-27-10-24-17-24-20-21-22-14-26-8-25 1-24 15"/>
<path d="M4262 2962l-3 31-2 30-1 29-1 26 5 25 20 19 25-6 22-12 23-16 20-20 18-22 13-22 12-26 7-24-9 24-6 23 1 27 15 21 26 12 28 0 26-11 20-14 16-22 1-25-10-26-15-24-18-17"/>
<path d="M4622 2960l-17 21-3 28 5 24 19 16"/>
<path d="M4667 2830l-25-4-13 20"/>
<path d="M4706 2992l-11 23 14-24 16-23 22-25 17-17 22-20 19-15 23-9 15 21 4 28 2 28-1 28 4 26 8 25"/>
<path d="M4578 3431l 8 29 2 28-1 37-1 26-3 29-3 29-4 31-7 30-4 29-5 29-4 27-3 27-5 34-5 24-4 25"/>
<path d="M5814 3062l 19 14 26 7 24-7 20-12 22-19 23-25 15-19 15-20 14-22 14-22 12-24 11-27 9-28 8-28 7-29 5-28 5-27 2-25 4-24 3-32 0-25-1-24-20 24-11 29-7 24-8 27-8 30-8 32-9 36-7 36-5 37-5 36-3 33 0 30 1 28 2 25 7 33 9 24 16 22 25 11 23-7 24-19"/>
<path d="M6184 2973l-25 9-10 25-1 26 5 25 15 19 27 0 22-11 21-21 17-25 9-25-5-27-21-20-27-9-26 5-17 19 17 21 30-2 30-9 22-10 26-16 25-17 17-16 12-24-6 24 12 22 14 22 12 21 6 25-5 24-20 14-26 6 21-19 24-11 24-7 27-7 27-4 25-4 24-6 23-10 21-17 18-22 7-24-10-23-23-11-24 6-25 17-18 19-17 23-10 24-4 29 11 24 23 17 25 5 29 3 29-1"/>
<path d="M6124 3527l-25-1-13 22-11 28-7 23-6 27-2 27 4 30 7 25 16 26 25 19 29 9 26-2 29-9 30-16 27-21 20-23 15-25 10-25 2-25-4-25-10-26-14-27-18-25-19-21-20-16-24-15-28-6-28 4-25 14-17 18-16 23-13 29-9 33"/>
<path d="M7787 2853l-14 24-2 24 6 28 21 12 25-9 20-17 18-21 12-23 7-27-17 18-2 27 3 29 15 22 24 5 24-9 21-17 19-23 11-28 5-29-2-26-8-24"/>
<path d="M8082 2839l-7 24 5 25"/>
<path d="M8131 2686l"/>
<path d="M8202 2831l 0 26 0 25-1 25 16-21 14-24 15-22 17-20 21-11 14 20 2 30-1 28-1 28-5 27-7 30-7 29"/>
<path d="M8005 3284l-8 29-5 27-5 33-5 35-3 35-3 35-1 35-2 31-2 30-2 26-2 29-2 26"/>
<path d="M9539 1749l-28 10-18 27-14 25-14 30-14 34-13 38-13 40-12 39-8 38-6 35-3 30 0 28 2 25 9 29 16 22 20 15 22 8 28-1 27-8 26-15 23-20 18-24 12-24 4-27-13-24-25-18-25-6-27 0-27 7-25 11-22 15-22 17-17 19"/>
<path d="M9027 2849l 5-29-11 24-9 26-9 28-7 29 2 27 20 12 23-12 22-19 25-26 17-19 14-20 17-25 12-23-12 26 5 28 15 19 20 17 22 13 27 2 20-19 13-23 10-30 3-30-4-25-9-25"/>
<path d="M9422 2785l-8 27-3 28 1 27"/>
<path d="M9507 2624l"/>
<path d="M9553 2774l-1 27-1 24-5 24 11-24 14-24 15-23 16-19 20-18 25-5 8 27-3 27-6 25-5 26-4 25 2 27"/>
<path d="M9288 3205l 7 25-1 29-2 30-5 34-3 36-2 33-3 33-3 31-3 30-2 26-3 27"/>
<path d="M10839 1787l 22-9 28-5 29-5 35-5 24-4 24-3 26-3 34-5 31-5 31-4 25-3 26 2-1 28-18 27-16 26-15 27-15 30-15 32-11 24-10 24-10 25-11 24-10 23-10 24-10 23-10 23-14 30-10 25-8 28"/>
<path d="M10514 2806l-12 24 6 26 19 19 28 0 24-12 23-18 26-25 18-20 19-21 18-24 18-24 17-26 14-26 11-27 10-29 7-28 6-28 6-28 3-25 4-31 0-25-24 2-15 29-14 29-10 24-9 27-9 28-8 29-6 30-6 30-4 30-4 27 0 26 2 31 6 27 14 26 24 13 30-2"/>
<path d="M10866 2768l-26 15-17 22 0 25 17 20 27 8 24-6 23-12 15-20-2-27-15-24-20-20 23 18 28-3 31-7 23-10 23-10 20-15 17-20-11 22 3 28 8 24 15 23 14 20-18 19-26 6-27-1 14-19 27-7 24-4 28-3 27 0 27-2 25-5 27-7 23-9 20-15-2-24-26-4-22 11-21 14-19 17-15 25-2 27 10 23 15 18 24 16 26 7 31 3 29 0 28-2"/>
<path d="M10816 3206l-27 3-14 24-13 23-11 25-9 29-5 27 0 28 14 25 21 15 25 6 28-3 27-11 25-16 18-22 10-24-5-28-8-22-13-23-14-21-18-19-20-20-22-14-24-1-15 20"/>
<path d="M12321 2026l 21-13 19-16 19-14 18-18 14-20 11-25 1-25-10-24-18-21-24-12-26-2-30 6-22 11-22 17-22 22-18 26-10 30-2 32 5 28 13 27 19 23 23 22 27 18 31 15 32 12 30 10 25 10 21 15 11 22-12 26-23 23-22 16-26 12-24 7-27 0-21-11-12-23-3-26 1-31 7-37 7-26 10-28 13-27 14-26 16-24 16-21 16-19 24-23 21-19 23-12"/>
<path d="M12115 2777l-22 9-4 27 12 23 25-4 24-15 21-17 18-19 1 27 14 22 22 11 30-2 25-12 20-18 14-23-1-29-12-26-14-21"/>
<path d="M12459 2731l-11 22 1 24"/>
<path d="M12458 2630l"/>
<path d="M12542 2740l 5 28 4 28 6 24 22-16 15-23 19-23 18-19 22-18 24-7 18 17 10 25 8 28 3 27 1 25"/>
<path d="M12330 3122l-8 26-3 29 0 32-2 27-1 30-2 30-1 31-2 29-2 26-3 31-5 26-3 25"/>
<path d="M13682 2151l 7-24 5-25 2-30-3-30-6-24-14-21-20-13-27-5-25 5-28 11-28 20-27 23-22 27-17 26-8 24 0 30 12 22 22 12 28 3 25-3 27-8 26-13 22-16 23-19 17-19 18-23 10-23-21 23-9 24-8 26-6 29-6 32-7 34-6 34-4 35-4 32-3 31-2 29-3 24 1 24 3 26"/>
<path d="M13345 2801l 3-26 3-24-2 28-6 26-4 27 5 25 12 21 20-15 18-22 12-24 11 23 5 26 13 21 23 10 25-6 19-19 15-24 13-28 6-27 0-24-5-25"/>
<path d="M13607 2821l-2 26 1 28 7 25"/>
<path d="M13665 2706l"/>
<path d="M13722 2857l 15-19 14-23 15-22 17-19 20-14 23-9 18 17 2 25 1 25-1 24-2 26 5 25"/>
<path d="M13560 3190l-6 24-1 25 1 28 2 27 3 26 2 26 3 25"/>
<path d="M1199 5384l-6 28-3 30 0 24-1 25-1 26 0 31"/>
<path d="M1312 5406l-10 25-6 26-3 26 2 24 11 27 20 18 30 8 24-2 25-7 22-12 19-17 16-26 4-31-3-24-8-23-14-21-18-17-25-15-28-5-26 2-24 7"/>
<path d="M1031 6213l 1 24 26-3 22-15 22-20 18-20 19-26 18-30 11-24 12-25 9-26 8-26 6-25 4-25 0-25-1-25-4-35-7-28-12-26-23-8-17 23-11 24-10 30-7 24-5 26-5 27-3 29 0 29 0 29 3 28 5 27 9 32 13 26 13 20 22 15"/>
<path d="M1271 6097l-24 13-17 23-6 28 9 25 24 10 27-10 19-22 13-26 3-25-10-24 26 0 20-18 20 14 10 22 14 24 13 21-13 22-26 7-24-4 21-16 22-8 25-8 24-9 26-12 24-13 21-13 19-15-12-23-27 1-21 11-17 19-9 23 5 28 12 21 18 19 23 16 29 9 24 2 24-4"/>
<path d="M1204 6650l-10 24-1 25 5 25 17 18 25 0 25-12 17-17 12-24 0-28-13-25-24-17-27-3-25 6-21 13"/>
<path d="M2406 5514l 1 26-1 30-1 25 0 24-1 30-1 25"/>
<path d="M2514 5513l-3 27 2 28 5 27 6 29 5 28 3 25 2 30 1 25-1 25"/>
<path d="M2279 6208l 0 26 3 26 16 19 25-4 22-18 11-21-9 26 3 27 18 20 27-3 19-18 6-24-4-25-18-15"/>
<path d="M2520 6246l-9 24 5 26"/>
<path d="M2523 6140l 14 24"/>
<path d="M2629 6253l-1 26-3 28 0 25 20-18 13-25 14-23 16-24 17-17 22 12 8 27 5 30 3 28 3 27"/>
<path d="M2489 6600l 14 26 3 30 1 26-2 28-2 29-5 29-6 27-7 24-9 25"/>
<path d="M3822 5555l-9 23-2 30-3 30-2 29-3 29-3 26-4 26-4 24"/>
<path d="M3883 5586l 16-18 29-1 25 9 19 15 16 20 5 24-13 22-17 18-22 22-21 23-17 20-8 22 23 15 30-1 26-4 27-3 26-2 26-2 24 2"/>
<path d="M3622 6269l-1-24-3 29 0 29 3 28 14 20 23-17 18-23 17-23 11-24 7-25 5 28 11 23 20 16 25 6 25-12 17-19 2-24-11-24"/>
<path d="M3929 6238l 1 24 3 27 9 24"/>
<path d="M3946 6127l"/>
<path d="M4064 6232l-1 24 0 26-1 24 15-23 12-26 11-21 16-24 19-19 23-9 13 22 4 25 2 27 0 27 2 26"/>
<path d="M3920 6557l 3 28 4 27 3 24 4 30 5 27 3 26"/>
<path d="M5219 5555l 16 19 3 25 2 27 0 28-1 30-2 30-4 30-2 29-3 24-3 25"/>
<path d="M5402 5517l 23-13 24-5 32-5 27-1 30 0 25 4 25 9 18 16-11 25-21 19-20 15-22 15-19 15-22 14 30 0 30-5 24-4 31 0 26 3 29 8 28 11 21 20 4 25-9 24-19 21-24 22-20 15-21 15-21 13-24 13-24 12-24 8-24 7-34 6-32 1-30-4-25-6"/>
<path d="M5133 6266l 5 25 5 26 16 18 25-4 25-16 18-17 13-20 10 24 17 19 25 9 27-3 23-8 21-17 16-21 10-24 2-30-10-25-19-16-23 6 10 23"/>
<path d="M5469 6229l-1 25 7 27 5 25"/>
<path d="M5514 6073l"/>
<path d="M5569 6203l 14 24 6 25 4 29 2 24 8-23 13-28 12-21 16-25 17-19 19-17 23-8 13 20 4 28 1 27-1 28-3 27-4 28-3 26"/>
<path d="M5424 6586l-2 29 1 30 2 25 2 26 3 24 3 30 5 26 5 26"/>
<path d="M6839 5444l-4 29-4 29-3 24-3 24-2 25-3 28-2 27-4 28-4 27-3 25-2 30 3 25"/>
<path d="M6999 5460l-3 25-9 24-9 30-8 30-6 24-5 30-1 28 10 23 25-2 23-7 29-11 29-14 29-14 25-12 24-13 27-14 24-8"/>
<path d="M7099 5594l-4 29 1 27 5 30 5 30 3 28 2 27"/>
<path d="M6694 6180l-16 19-5 25 0 25 2 25 13 22 27 4 23-12 20-19 16-21 11-24 8 27 15 22 25 10 25-7 20-15 15-22 5-28-13-22"/>
<path d="M6996 6171l-9 24 1 27 7 23 5 25"/>
<path d="M7014 6093l 20 16"/>
<path d="M7110 6202l 7 24 4 25 15-23 12-22 16-20 23-11 15 22 4 26 0 27-2 28 0 26 0 29"/>
<path d="M6957 6629l-1 25 7 26 5 27 3 29 2 30-3 28-4 27-3 24"/>
<path d="M8319 5547l-1 26 2 33 1 31 2 34 2 36 0 24-2 25-3 35-2 28"/>
<path d="M8467 5536l 24-12 30-9 28-8 27-5 28-5"/>
<path d="M8504 5546l-17 21-8 27 1 26 7 24 18 21 26 5 29-5 30-8 30-6 24-1 24 12 9 23-4 27-10 25-18 24-21 21-26 17-22 9-31 6-30 2"/>
<path d="M8165 6233l-4 27-6 29-4 25 7 27 26-4 20-15 20-18 25 10 17 20 21 14 25 1 23-15 14-20 12-25 3-25-5-24-13-26"/>
<path d="M8469 6236l-6 26 1 28 3 26 6 24"/>
<path d="M8490 6119l 4 25"/>
<path d="M8584 6251l 5 28 1 26-2 26 24-9 16-21 14-22 19-22 22-16 25 4 10 22 5 26 3 29-1 28"/>
<path d="M8442 6619l 5 24 6 25 6 32 4 25 4 27 1 31 0 29-2 28-4 25"/>
<path d="M9647 5619l-6 28-4 26-2 28-1 28 0 28 1 27-2 26-1 30 3 25"/>
<path d="M9840 5585l-18 20-7 28-4 26-2 27 0 28 0 26 4 24 11 27 17 18 25 11 28-4 23-17 14-24-7-23-23-11-24 10-18 20"/>
<path d="M9646 6266l-9 23 1 25 6 26 23 12 22-14 18-23 13-25 5-25-3 25 3 27 16 18 26 0 23-15 15-23 4-27-2-28-6-28-10-24"/>
<path d="M9904 6237l-7 25 6 27 9 24"/>
<path d="M9931 6135l"/>
<path d="M10002 6237l-4 26 1 25 19-19 15-25 12-21 24 0 3 28 1 27 6 25 8 23"/>
<path d="M9827 6568l 5 25 4 26 2 29 1 29 1 28 1 27 0 25"/>
<path d="M10933 5594l-1 28 2 25 0 27 2 28 0 26 1 25 0 30 2 25"/>
<path d="M11090 5581l 24-10 25 0 25-1 25-3 25-7 22-10 16 21-6 26-11 29-12 29-12 28-12 29-13 28-10 25-10 26"/>
<path d="M11922 5509l-3 29-1 27 0 25 0 24-1 31-1 28-3 28 8 24"/>
<path d="M12197 5469l-14-21-25-2-15 21-2 25 11 26 18 22 18 18 20 18 19 17 16 20 9 25-9 25-20 21-25 11-27-3-20-16-8-27 3-29 8-25 15-27 19-25 25-23 26-22 28-20"/>
<path d="M13113 5456l 0 26-2 26-2 28-2 31-2 30 0 28-2 26 0 25"/>
<path d="M13440 5435l-14-24-23-13-28 7-20 16-19 21-13 22 3 24 27 11 28-1 26-8 24-11 18-15 0 24-3 25-2 26 0 27 2 28 2 24-2 28"/>
<path d="M10803 6295l-15 20 2 26 17 17 27-4 20-14 13-22 8-26 6 27 15 22 22 13 27 3 24-11 12-24 3-27-7-26"/>
<path d="M11106 6263l 4 24 8 24"/>
<path d="M11138 6168l"/>
<path d="M11207 6263l 0 25 25-11 19-21 22-18 24-6 5 23 2 27 4 27 6 25 6 24"/>
<path d="M11041 6608l 5 26 6 27 5 27 4 28 6 25"/>
<path d="M11880 6288l-14 21 16 20 27-2 22-11 20-16 19-18 22 14 24 11 21-14 9-26-4-29-7-26 11 25"/>
<path d="M12187 6214l-26 11-5 25 3 26"/>
<path d="M12211 6103l 8 23"/>
<path d="M12292 6205l 5 27 3 24 25-5 18-21 18-16 23-6 13 23 4 24 5 24 2 29 0 25"/>
<path d="M12256 6602l-5 28 9 26 6 25 6 25 8 25"/>
<path d="M13322 6206l-16 21-3 27 1 26 12 22 24 10 28-10 20-16 18-20 12-26 16 20 21 13 26 3 27-5 23-16 15-23 4-27-4-29-8-24"/>
<path d="M13658 6176l-14 22-2 24 15 21"/>
<path d="M13705 6073l"/>
<path d="M13760 6174l-2 26-3 25 24 3 20-24 19-21 21-18 22-17 25-5 14 20 2 26 2 28 1 25 1 25 2 30 1 28"/>
<path d="M13528 6593l-4 26 1 25 3 32 3 33 3 36 5 35 5 33 4 31 2 30 2 27 0 26"/>
<path d="M4203 4256l-7-24-22-12-25 7-21 13-22 15-19 15-13 21 22 16 28 3 25 1 26 3 28 8 20 13 0 27-14 22-20 16-26 13-26 7-25 0-26-12"/>
<path d="M4289 4074l 9 26 3 25 2 32 1 28-1 31-3 32-2 30-2 27 2 24 6 29 11 22 22 17 28-6 21-13 22-18"/>
<path d="M4247 4259l 25-14 28-12 24-8 26-7"/>
<path d="M4443 4259l-7 26 3 26 6 24 3 25-11-25-3-24-4-24 6-24 21-15 27-5"/>
<path d="M4571 4248l-18 17-13 21-6 23 11 23 25 8 26-4 16-19-4-27-16-21 25 3 11 26 4 27 19-18 14-23 15-20 13 22 1 25 10 24 26 4 25-13 20-15 18-21 10-23-16-19-22 11-19 17-15 21 13 22 23 6 23 14 17 23 15 22 14 20 14 22 10 23 7 24 2 27-6 29-9 23-12 20-19 19-27 5-24-18-12-21-10-25-5-29-1-28 1-27 5-27 6-27 11-24 12-23 17-25 16-19"/>
<path d="M4999 7229l 25-5 25-6 26-9"/>
<path d="M4993 7233l-12 26-4 24 0 28 1 25 21 12 25-11 24-13 27-9 25-4 26 1 22 12 1 28-9 26-13 24-18 24-20 18-22 11-25 5-24-5-16-18"/>
<path d="M5222 7293l 27 4 27-2 25-4"/>
<path d="M5287 7216l-11 24 0 25 1 27 1 25 3 25 5 28"/>
<path d="M5544 7184l-12-21-19-19-27 6-15 19-16 24-10 26 0 27 15 21 25 14 26 8 27 6 25 6 24 13 16 21 2 25-10 25-16 21-24 15-25-2-22-20-13-25-7-24-3-29 1-31 4-29 10-22 12-21 18-18 26-5"/>
<path d="M4777 1422l 5-24-11 25-6 24-6 30-3 31-1 28 1 28 3 24"/>
<path d="M4770 1299l-22-11-24-3-25 8-25 15-20 17-22 25-16 19-14 20-13 21-12 23-12 33-5 24-2 30 3 28 10 23 13 20 20 16 23 13 28 10 30 6 32 2 34-1 35-7 33-9 30-12 28-15 24-17 21-20 17-24 14-26 8-29 5-30-2-31-8-31-14-27-16-24-20-17-23-15-26-11-28-7-29-5-29-2-30 0-25 5-27 9-21 18"/>
<path d="M6330 1472l 17-18 24-6 25-4 25-3-11 27-20 15-21 17-20 17-21 17-15 19 22 10 27-7 25-8 24-10 23-7"/>
<path d="M6413 1370l-17-22-22-10-27 2-24 8-24 13-22 11-21 14-19 17-15 20-14 23-9 27-7 31-3 31 3 29 7 26 13 23 16 18 26 18 24 9 26 5 30 0 30-4 28-8 28-10 28-12 27-18 26-18 22-20 19-21 14-21 11-27 5-32-4-31-11-30-18-25-19-19-25-14-23-8-30-6-29-2-24 2-25 7-24 8"/>
<path d="M7712 1376l 16-19 28-10 24-5 26 0 25 4 19 17 3 25-11 27-19 22-18 18-19 19-21 19-21 19-22 18-20 15-19 16 9 24 26 0 26-2 30-3 27-5 28-4"/>
<path d="M7942 1448l 24-10 26-6 26-6"/>
<path d="M8084 1361l 17-19 24-8 28-4 25 2 22 10-8 25-22 19-19 17 9 22 28 2 27 4 27 6 23 9 8 24-15 22-20 17-25 14-22 9-28 7-25 0"/>
<path d="M9190 1329l-6-24 4-25 19-16 28-4 26 3 27 7 26 13 17 18 1 24-17 18-21 17-22 14 21 17 24 7 23 15 15 21-1 24-16 25-18 20-20 17-24 13-24 10-26 5-27 2-26-2"/>
<path d="M9409 1399l 24-5 27-4"/>
<path d="M9570 1288l 11 22-4 28-8 29-12 25-16 26-12 23 7 23 27-2 26-7 27-8 30-8 27-7 24-7 24-7 23-9"/>
<path d="M9653 1387l-3 26 4 25 3 24 1 24-1 25-2 27"/>
<path d="M1711 1304l-10-24-24 10-10 28-7 29 0 31 4 30 9 24 17 18 27 8 27-7 22-16 19-25 12-22 10-22 8-24-2-24-14-20-24-15-29-8-26 3-20 17"/>
<path d="M3053 1432l-24-5-7 26 5 28 8 24 15 23 22 17 27 8 26-2 19-15 7-28-3-25-11-25-16-23-21-19-23-15-24-5-22 15-12 22"/>
<path d="M7559 3817l-1-25-2 31-4 30-7 33-4 26-5 26-6 29-5 28-5 26-5 25-6 30-4 27"/>
<path d="M7669 4033l 6 24 14 22 19 16 23-8 16-23 4-25-13-22-24-7-14 19"/>
<path d="M7837 4018l-6 25 4 26 1-26 12-24 20-17 22-13 23-8"/>
<path d="M8052 3859l 26-6 28 0 25 0 25 5 10 25-12 27-16 20-17 22-20 22-20 21-18 22 12 21 24 0 27-3 27-6 28-3 25 5"/>
<path d="M9100 3791l-9 25-4 29-5 27-4 32-4 27-5 29-6 28-6 26-6 28-5 23"/>
<path d="M9197 3978l 4 25 7 25 19 17 26 6 27-5 23-13 13-22-15-20-27-9-27-4"/>
<path d="M9370 3963l-1 24 5 26 6-24 6-25 14-22 21-16 25-12 23-9"/>
<path d="M9598 3776l 22-11 27 0 25 6 19 16 8 23-5 27-12 21-17 23-18 24-20 22-15 19-13 22 23 12 28 0 29-1 25 1 25 2"/>
<path d="M10452 3670l-4 25-2 29-2 27-2 25-3 25-3 26-4 26-5 26-5 24-8 28-6 26"/>
<path d="M10611 3803l 24-7 25-2 27 0"/>
<path d="M10833 3676l 24-9 26-1 27 6 23 10 1 27-13 22-18 18-19 17 26 0 24-2 28 4 25 9 24 10 24 14 21 19 9 26-8 24-10 23-15 22-18 19-23 16-24 12-28 8-26 2-25-4-21-13"/>
<path d="M1030 8613l 11 28-1 26-3 32-2 35-2 26-2 24-3 27-2 26-2 26-3 25-2 32-2 29-3 25"/>
<path d="M901 9374l-20 14-9 24-2 29 6 29 17 21 24 13 24 1 26-10 20-17 8-28 0-25-8-25-15-26-15-19-21-22-25-10"/>
<path d="M1935 8634l 19-21 29-13 28-7 28-2 27 1 25 4 24 8 24 14 15 22-7 31-14 27-22 29-17 20-19 20-21 21-20 20-20 20-19 17-24 21-17 17-17 19 28 7 24-1 30-3 30-5 31-6 31-4"/>
<path d="M2118 9181l-26 7-17 20-11 23-8 27-4 27 5 25 14 21 23 16 30 10 25 0 25-4 24-9 21-12 20-22 9-26-3-27-16-27-17-21-20-17-24-10-30-3-28 11"/>
<path d="M3489 8641l 24-14 27-5 30-3 30-3 26 1 26 8-3 25-17 21-18 19-18 18-23 19-19 14-21 13 29-4 26-3 31-2 31 1 26 7 22 17 12 22 0 25-12 25-20 24-20 19-25 16-25 14-23 10-22 8-30 7-28 4-26 1"/>
<path d="M3520 9235l 21-14 12 21-2 25-2 24-3 25-4 28-5 28-6 26-4 28"/>
<path d="M4791 8572l-14 19-14 27-13 28-10 22-10 29-7 26 9 25 20 14 27 6 25 1 26-2 27-3 25-4 30-6 25-6 24-10 22-14"/>
<path d="M4938 8610l-8 24-2 26 0 25 0 26 1 29 0 29-1 30-2 32-2 33-2 30-3 28-2 29"/>
<path d="M4954 9158l 2 28-1 29-2 27-1 30-2 24-2 24-4 31"/>
<path d="M6183 8576l 19-18 23-8 28-5 26-6 23-8 22-11"/>
<path d="M6211 8551l-6 24-5 29-4 24-5 29-2 25 24 2 20-16 24-12 28-9 25-5 24-1 26 2 25 9 13 23-1 27-7 24-13 26-17 25-17 18-18 17-25 17-25 10-25 2-25-4"/>
<path d="M6272 9033l 24-1 27 5 23 10-3 24-15 23-15 19-21 21-21 19-22 19-20 15-10 23 21 12 24 6 25 1 24 0 27 0"/>
<path d="M7836 8385l-26 11-13 22-18 28-14 23-15 23-12 25-11 26-10 26-7 27-4 27-1 26 2 25 7 33 11 26 15 20 22 15 26 9 28 4 25-2 24-5 25-13 15-20-6-25-17-17-22-12-25-2-23 9-23 17-17 24"/>
<path d="M7733 8986l 26-4 25 3 24 11 10 23-1 26-12 23-16 20-23 17-23 17-19 18-17 16 22 11 25 2 28-1 24-1"/>
<path d="M1430 10579l 26-9 29-9 28-10 31-13 24-10 23-10 33-12 27-8 27-8 25 0 8 25-3 31-7 32-6 25-7 28-8 30-8 33-8 36-9 36-9 39-8 39-9 39-7 37-6 37-5 33-4 30-3 29-2 25-2 24-2 30 0 29 2 24"/>
<path d="M1936 10730l"/>
<path d="M1959 10816l"/>
<path d="M2393 10714l 14-21 25-8 26-5 25-2 26 2 25 5 24 13-5 26-14 19-22 22-17 18-17 19-15 21 19 14 27 1 25 3 25 4 23 6 27 7 25 11 15 21 1 24-7 24-14 25-19 20-25 17-22 10-25 6-26 2-31-3-25-11-12-23 14-25"/>
<path d="M2838 11062l-7 25-9 29-13 28-11 22"/>
<path d="M3112 10658l-6 29-10 28-8 28-7 29-6 28-2 31 6 28 19 17 24 9 31 4 28-3 30-5 28-6 27-6 23-5 31-8 23-9"/>
<path d="M3268 10751l-1 24 5 27 7 30 5 28 6 29 6 29 5 29 6 28 4 32"/>
<path d="M4059 10860l 29 6 30 7 30 6 25 4 32 3 26 0 26-2 23-6"/>
<path d="M4271 10784l 27 4 29 7 27 10 28 14 24 16 16 20 3 28-12 27-16 20-21 19-20 15-21 14-25 8"/>
<path d="M5075 10796l 19-18 24-15 27-10 26 1 23 9 20 19 7 25-16 23-21 19-20 13-22 13-22 11-26 14-22 11 24 4 26 3 29 7 25 5 28 5 27 9 30 10 22 10 11 22-13 24-17 16-22 16-26 15-25 12-27 11-25 8-24 4-29 2-26-4"/>
<path d="M5441 11110l-16 19-15 24-15 28-10 23"/>
<path d="M5605 10815l 19-16 22-9 24-5 26-2 31 3 24 10 18 21-8 25-23 19-27 14-27 14-23 12-18 17 21 15 26 2 25 0 26-1 25-1 24 3 23 15-1 25-13 25-20 22-20 16-24 17-25 16-24 13-26 10"/>
<path d="M5937 11085l-11 23-16 25-16 24-15 20-14 22"/>
<path d="M6167 10789l 15 20 8 24 3 25 1 32 0 25 0 25 2 28-2 27-1 28-3 27-6 29-4 28-3 26-5 35-4 30-3 27-4 27"/>
<path d="M1953 11863l-1-26"/>
<path d="M1996 11907l-24-7"/>
<path d="M2312 11797l 0-25 26-11 29-5 25 0 25 1 25 6 25 9 23 10 26 16 16 23 1 25-11 24-18 26-16 17-19 18-22 17-24 18-26 18-28 19-26 18-27 17-23 16-20 14-25 16-22 17 27 11 24 1 29 0 32-5 32-2 33-5 32-3 30-1 29 0"/>
<path d="M2681 12160l-16 22-15 26-15 25-15 28-14 28"/>
<path d="M2927 11770l 21-18 29-3 29 0 30 0 30-1 29-2 28-4"/>
<path d="M2991 11782l-22 10-17 21-11 27-4 32-1 24 4 30 9 25 18 22 25 14 25 6 30-2 26-5 27-6 26-7 28-5 26-2 29 2 24 13 6 23-9 24-13 22-20 23-23 23-27 22-30 20-30 17-32 11-33 2-30-6-27-12-24-17-21-17-17-18"/>
<path d="M3763 12051l 13-24 33-5 35-8 27-4 27-5 27-5 27-4 25-3 24-2 34-1 29 1 28 0"/>
<path d="M3996 11910l 24-9 27 8 28 14 26 14 21 17 15 20 10 22 3 28-13 25-20 15-29 13-26 9-25 6-30 5-29 2"/>
<path d="M4830 11860l 8-24 28-5 27 0 32 3 25 2 26 5 24 4 24 10 11 21-14 25-20 21-19 16-21 17-23 19-25 20-26 20-26 20-25 20-25 19-22 18-19 15-17 20 1 24 31 2 32-6 25-7 26-6 24-6 24-6 24-6 35-9 33-7"/>
<path d="M5225 12077l-14 23-9 26-8 25-8 27-11 29-10 26"/>
<path d="M5419 11845l 22-16 28-5 31-2 29 4 29 10 23 12 19 18 5 25-10 23-21 25-24 22-20 15-22 18-24 18-24 18-24 17-20 16-24 20-17 19 7 25 26 6 33-3 31-6 31-7 30-6 28-3 27-4 26 0 29-2"/>
<path d="M5761 12127l-2 26-4 25-8 25-10 28"/>
<path d="M5951 11841l 21-17 30-8 28-4 27-1 28 2 22 9 5 26-12 22-18 20-21 21-16 19 18 18 24 7 25 8 23 7 25 10 10 22-19 25-21 18-25 15-30 12-24 6-26 6-28 3-27 2-30-6"/>
<path d="M2297 12821l 0 27 3 24 3 30 4 34 4 36 5 35 5 33 2 33 0 32 0 28 0 29 5 23"/>
<path d="M2527 13225l-4 26-4 25-8 25-10 29-13 31"/>
<path d="M2902 12814l-28 9-20 25-14 30-9 24-5 27-4 29-1 30 2 27 5 25 8 24 17 29 21 21 23 13 24 6 30-2 25-8 23-13 19-15 13-21 0-30-16-24-20-17-25-13-27-5-27 3-29 10-27 13-22 16-20 22-10 22"/>
<path d="M3658 12931l 28 4 27 0 30-5 26-3 25-2 26-1 25 0 31 1 31 0 30 0 25 1 27 0"/>
<path d="M3915 12845l 24 13 26 9 26 7 28 7 27 8 23 5 25 6 7 24-20 22-22 18-20 15-20 13-26 16-22 12-22 11-26 7"/>
<path d="M4755 12815l-3 26 2 33 2 31 1 36 2 25 0 24 0 35 2 34 2 32 2 29 1 25 0 25 0 25"/>
<path d="M4957 13161l-9 24-7 26-8 26-12 28-10 23-12 27"/>
<path d="M5281 12749l-3 26-3 29-3 29-2 32-3 34-1 34 1 32 0 29 0 26 0 30 0 24 6 24"/>
<path d="M5449 13104l-20 17-14 22-12 27-10 22-10 23-8 23"/>
<path d="M5779 12749l 21-14 24-3 28-2 27-2 24-2 25-1"/>
<path d="M5815 12764l-22 16-12 22-8 28-2 29 1 26 18 21 29 7 29-3 28-7 29-8 29-7 27-5 25-3 26-2 24 6 9 23-14 28-14 20-18 20-22 19-24 18-25 15-27 13-28 11-29 9-28 5-28 2-25-2"/>
<path d="M7445 11937l 23-14 24-5 29-2"/>
<path d="M7435 12007l 22-14 25-3 32-1 28-1"/>
<path d="M7844 11862l 22-16 29-8 30-3 25-2 25-2 29 4 22 12 1 29-17 22-20 18-24 16-23 16-24 16 28 7 31-5 24 1 30 6 23 12 18 21 0 26-12 21-23 22-22 13-23 13-26 10-28 7-29 6-28 4-27 0"/>
<path d="M7374 12819l 26-7 28-4 32-5 25-5"/>
<path d="M7340 12933l 29-5 23-6 30-7 36-7 36-6"/>
<path d="M7797 12666l 27-1 33-2 30-3 28-4 25-5 29-9"/>
<path d="M7828 12700l-13 21-5 28 2 25 5 25 6 25 11 25 20 19 24 11 26 2 27-2 28-3 30 0 28 0 28 1 16 20-14 24-17 19-21 19-25 17-29 15-31 13-34 10-34 6-36 1-24-2-26-5-26-8-26-11-24-16"/>
<path d="M7400 11111l 20-14 27-5 27 0"/>
<path d="M7405 11209l 26-4 26-1 25-1"/>
<path d="M7814 10979l 19-15 25-4 26-2 28 4 24 9 19 19-4 24-17 22-19 17-24 18-23 17-20 16-20 16 28 5 24-2 33-1 34 0 33 3 30 6 25 10 21 12 19 20 3 26-15 23-20 18-25 18-28 16-22 9-33 12-33 8-30 5-26 0-26-9"/>
<path d="M8402 11042l-26 17-19 26-11 23-5 30 7 27 15 21 25 14 28 8 30 2 25-3 30-7 32-12 23-11 22-13 26-22 19-24 11-23 4-24-4-31-10-24-16-20-20-17-24-12-27-8-28-4-29-2-24 2-25 4-29 10-20 17"/>
<path d="M8441 11052l 19 17 22 18 18 16 25 15 23 10"/>
<path d="M8547 11013l-24 18-15 21-17 24-16 21-19 22-18 20-15 18"/>
<path d="M8873 10934l 19-15 29-4 33 0 29-1 30 0 27 3 29 6 23 15 15 19-6 25-22 14-25 12-27 12-28 12-22 10 22 16 28 5 31 5 29 7 30 10 27 15 21 17 17 21 5 27-14 24-22 19-23 13-27 11-31 6-33 3-35-1-35-5-24-5-31-9-29-11-26-12-25-12-23-12-23-13"/>
<path d="M10422 11730l 23 14 23 16 24 16 24 18 20 17 24 18 22 17 24 18 22 12 26 0"/>
<path d="M10657 11721l-24-3-17 17-18 22-19 26-16 23-17 24-17 25-17 25-17 22-19 22-15 20-15 19-15 22"/>
<path d="M2415 14152l-6-24-5 30 0 25-1 27 1 29 0 31 0 33 0 33 0 34 1 35 1 33 3 33 1 30 1 27 3 34 2 28 4 24"/>
<path d="M2636 14620l-6 26-3 29-3 26-4 28-5 27-5 27"/>
<path d="M2911 14160l-20 26-12 23-12 28-11 32-10 36-8 40-6 42-2 44 0 43 4 40 8 37 14 32 18 26 21 21 24 15 26 10 25 4 27 0 28-5 25-8 25-10 21-13 24-23 17-26 8-26-1-26-11-24-18-24-28-18-32-12-25-3-24 3-24 5-22 9-30 15-21 17-14 21"/>
<path d="M3623 14425l 24-2 30-1 26-1 27-2 30-3 31-3 30-2 28 0 27-1 24 0 29 0 25-1"/>
<path d="M3873 14325l 16 19 25 13 22 11 27 15 24 13 21 16 11 24-8 25-17 20-25 20-22 15-25 13-26 12-24 12-23 10"/>
<path d="M4613 14246l-8 26 4 25 4 33 3 27 1 28 2 30 2 28 1 29 1 28 1 29 0 28 0 28 2 24 3 31 11 25"/>
<path d="M4849 14612l-4 27-10 27-9 25-11 28-15 33-17 32-12 23-15 31-13 24"/>
<path d="M5149 14237l 27-2 32-5 29-4 30-3 31 0 30 3 27 8 23 15 10 29-8 31-17 31-17 21-18 23-21 24-22 22-21 21-21 19-20 17-26 24-19 20-16 18 23 16 29-4 27-8 31-10 23-7 23-8 24-5"/>
<path d="M5568 14558l 3 28-6 28-9 28-11 25-14 31-12 21-13 22-21 28-14 20"/>
<path d="M5871 14260l-16 22-8 29-2 28 0 31 0 29 7 25 15 19 25 15 26 9 28 4 32 0 34-4 35-7 33-9 30-10 28-10 24-10 27-11"/>
<path d="M6039 14304l-25 4-11 25-1 28 2 24 5 28 4 28 5 32 5 32 4 34 6 33 7 31 8 30 8 27"/>
<path d="M7232 14274l 24-9 31 0 27 2 29 2"/>
<path d="M7268 14429l 22-11 27-7 34-6 26-5 29-3"/>
<path d="M7879 14083l-11 24-8 26-12 34-8 24-11 24-11 25-10 25-10 24-15 31-10 29-5 25 2 24 17 18 29 6 31 0 28-4 31-5 34-7 35-9 31-10 32-10 31-10 30-10 28-9 25-8 30-10 28-8"/>
<path d="M8034 14217l-14 23-1 26 1 32 3 26 4 27 5 27 6 30 3 26 6 26 3 26 6 35 6 32 3 28 4 30"/>
<path d="M2271 15514l 27-1 32 0 32-3 24-2 26-2 25-3 35-1 30 3 29 10 16 25-5 29-16 26-17 22-21 22-23 24-28 22-29 23-29 23-30 22-27 20-25 20-21 17-25 20-17 18 25 10 30-8 26-10 29-10 32-11 34-11 34-11 33-10 31-9"/>
<path d="M2658 15812l 1 25-2 26-6 29-8 27-9 24-13 28-14 25-14 24"/>
<path d="M2930 15530l 19-16 25-7 28-5 27-5 26-6 25-5 26-9"/>
<path d="M3052 15487l-26 14-26 16-22 14-24 17-18 20-10 23 7 29 17 17 25 14 23 7 28 4 32 1 35 0 33 0 30 3 25 3 28 10 18 18-1 26-18 28-22 23-27 22-29 19-22 11-32 14-33 11-32 7-30 0-27-5"/>
<path d="M3851 15544l 22 16 27 1 32-1 24-3 35-4 36-5 33-5 30-5 27-4"/>
<path d="M4056 15479l 24-5 30 0 26 2 26 4 24 7 24 8 21 12 22 13 14 20-10 23-25 22-27 19-20 14-22 13-22 13-21 12-29 16-24 13-24 11"/>
<path d="M4716 15507l 1 26 0 27 3 28 3 30 2 25 2 25-2 32-4 25-5 23-8 25-11 25"/>
<path d="M4511 15536l 22-19 29-10 30-5 24 0 25 4 27 5 29 8 26 8 22 10 20 18 5 26-13 29-20 27-20 20-22 21-26 19-26 20-26 20-25 17-24 16-23 15-22 12-28 18-24 15-22 15 26-14 27-14 23-11 22-11 25-9 25-9 23-8 35-10 32-8 30-4 25-1 28 1 25 4 23 12"/>
<path d="M4986 15810l-19 16-15 23-11 22-11 25"/>
<path d="M5326 15491l 7 30 2 27 2 30 1 34 1 34-2 26-2 25-4 27-4 25-4 33-3 27 2 29"/>
<path d="M5534 15789l-1 24-3 27-4 26-13 31-14 26-18 27-20 26"/>
<path d="M5947 15424l-16 25-11 25-13 27-14 29-12 30-10 26-5 27 11 22 23 10 32-1 30-6 24-5 25-7 27-7 28-6 29-5 27-5 26-4 25-4 31-4 25-4 26-6"/>
<path d="M6076 15496l 5 26 5 24 2 31 2 25 2 27 0 30 0 31 1 31 0 31 2 28 2 25 6 32 8 24"/>
<path d="M7154 15548l 21 12 28 6 27-2 27-4 30-4 29-4 27-5"/>
<path d="M7181 15642l 28 1 31-2 24-2 30-3 31-4 33-3 34-3"/>
<path d="M7759 15388l-18 19-16 22-20 25-17 24-15 26-16 28-14 25-11 27 1 27 23 18 24 8 25 2 33 0 24-2 25-3 27-4 29-4 29-4 28-4 28-4 26-5 24-4 32-6 28-5 26-7"/>
<path d="M7879 15484l-6 29 4 33 4 32 4 25 2 26 4 26 4 28 4 25 6 27 4 25 6 33 7 28 7 26"/>
<path d="M2257 16521l 5-24 18-20 25-7 26 0 27 3 27 9 21 12 13 21-11 24-18 18-24 19-25 18-27 17-25 15-25 14 29 6 33-5 25-4 25-4 35-3 32 1 27 5 24 11 14 20-1 29-11 22-19 24-25 24-19 14-28 20-26 15-24 12-28 10-25 5-24-7"/>
<path d="M2675 16912l-26 11-23 17-20 18-20 23-17 27"/>
<path d="M3026 16431l-22 19-13 20-16 27-18 31-12 22-12 22-11 23-14 28-8 24 2 27 15 18 28 11 29 3 33-1 35-6 24-5 34-8 29-9 25-8 23-11 26-14 18-19"/>
<path d="M3075 16549l-10 28 2 28 4 35 3 27 5 28 3 30 4 30 3 31 4 32 3 30 4 30 5 27 6 25"/>
<path d="M3733 16714l 28-6 28 8 33 9 23 5 36 6 25 2 26 1 25-1 25-1 34-4 28-7 23-8"/>
<path d="M3972 16644l 25-1 26 6 30 5 30 5 24 5 30 8 24 8 20 17 0 25-18 23-19 16-23 16-24 15-24 16-26 17-25 16-21 16"/>
<path d="M4538 16570l-11-22-13-22 20-20 25-3 28-1 29 2 29 2 26 6 24 9 5 26-18 20-23 17-30 17-22 12-32 16-28 12-23 13-20 15 23 11 33-2 34-3 35-2 35-2 30 3 25 6 23 14 6 27-17 26-21 23-27 23-20 15-21 13-32 16-29 12-27 7-26 5"/>
<path d="M4963 16836l-20 14-24 20-27 24-26 24-26 25-21 27-15 23"/>
<path d="M5191 16595l 19-17 27-4 25 1 26 4 27 12 13 20-14 23-22 16-21 14-24 14-21 13-22 15 23 10 26-2 32-3 31-1 28 1 26 5 20 16-5 24-15 22-19 18-24 18-25 17-25 15-23 11-23 10-25 7"/>
<path d="M5558 16863l-14 24-15 24-15 25-12 22"/>
<path d="M6020 16499l 1 24 7 31 4 26 5 28 7 32 5 33 5 35 3 36 2 35 0 32 0 29-1 27 0 33-2 26-2 27-10 23"/>
<path d="M7135 16499l 27 4 25 4 28-1"/>
<path d="M7098 16600l 26-10 28-4 32-3 25-4"/>
<path d="M7610 16469l 26-9 32-2 26-1 28 1 26 1 30 5 26 9 2 25-23 17-21 13-23 14-21 12-22 14 13 22 25 4 30 4 32 2 33 3 26 5 26 10 18 17 0 28-18 25-17 17-23 15-24 12-27 8-29 6-30 3-30 0-27-2-25-7-25-17"/>
<path d="M7672 16393l-24-1-35 0-25 5-33 11-25 11-24 16-24 19-23 23-21 28-17 32-14 35-9 37-5 37 0 36 5 35 10 32 13 27 18 24 23 20 27 17 29 13 34 9 34 5 36 1 36-3 37-8 36-11 35-16 35-19 34-22 29-27 26-27 22-29 19-30 14-31 9-32 6-33-2-35-7-36-10-37-16-33-16-29-19-25-22-20-24-15-27-10-29-6-30-3-30-1-30 3-29 6-26 7-23 11"/>
<path d="M8081 16514l 24 11 20 16 21 19 23 19 22 19 23 20 23 18 20 18 20 19 23 12"/>
<path d="M8288 16548l-24 8-23 18-18 17-19 19-17 22-18 22-18 25-15 21"/>
<path d="M8287 16491l-30-9-31-5-25 2-28 9-25 17-16 19-14 24-12 29-8 32-4 33 3 32 11 28 16 21 23 17 26 10 33 2 25-3 27-7 28-8 26-11 27-13 25-16 24-17 22-18 17-18 17-28 9-27 0-31-8-32-9-22-20-29-22-25-24-21-24-15-29-10-27-2-26 8-12 20"/>
<path d="M8733 16420l 23-14 28 3 26 8 24 12 14 22-19 23-25 17-22 13-20 13-20 16 9 26 26 4 26 3 29 3 30 5 25 5 25 9 25 14 7 26-10 27-17 22-18 17-22 14-23 13-28 10-30 8-30 4-32 1-30 0-27-4-25-5-25-10"/>
<path d="M1578 17992l 16-19 11-22 6-25-11-23-23-12-29-6-26 1-30 5-32 11-22 11-21 12-20 15-18 16-17 17-18 27-7 26 4 25 15 22 28 20 23 12 27 11 29 10 31 10 30 10 31 9 29 11 25 10 24 12 29 21 18 25 10 28 0 31-8 31-18 32-15 18-19 17-20 14-31 13-32 4-32-9-26-20-15-19-12-23-8-28-5-31-1-34 4-36 7-36 10-36 13-35 15-34 16-30 17-28 17-24 18-21 19-18 26-21 27-14"/>
<path d="M1802 18023l 6 24"/>
<path d="M1863 18102l"/>
<path d="M2170 17924l-6-24 2-25 23-8 27-3 27-1 30 0 26 1 27 2 25 4 28 11 18 22-6 26-16 22-26 22-22 15-23 13-25 12-24 10-32 15-29 10-24 7-24 5 23-8 30-6 27-3 28-3 31-1 31 0 30 2 29 3 28 6 25 7 32 13 22 16 15 27-1 28-11 24-19 23-26 23-21 14-22 13-23 10-23 10-34 9-33 8-33 5-30 3-26 2-26 0"/>
<path d="M2662 18351l-6 26-13 22-17 23-16 20-15 21"/>
<path d="M2872 17946l 23-9 29-7 27-6 26-9 26-9 26-9 29-6"/>
<path d="M2860 17971l-24 13-17 18-13 25-5 26 5 26 16 21 22 14 27 11 27 6 31 4 25 1 26 2 24 2 30-1 26 1 29 5 23 8 17 18 1 27-13 22-16 20-22 22-23 21-22 21-21 17-21 14-28 12-32 8-24 0-30-2-26-6-23-12"/>
<path d="M3582 18053l 25-3 30-1 36-3 26-3 27-3 27-3 28-2 26-2 24-2 30-2 30-1"/>
<path d="M3835 17953l 26 4 28 9 25 11 25 14 20 14 15 21-5 23-22 23-24 19-27 17-25 17-21 19-12 22"/>
<path d="M4283 18045l-17-19 16-18 31-8 31-6 35-5 33-3 31 0 24 3 25 11-3 27-20 22-24 18-26 16-26 14-27 13 27-5 31-6 33-3 29 2 26 4 27 11 19 16 8 23-14 23-22 16-20 14-23 14-25 11-23 9-25 10"/>
<path d="M4711 18238l-19 23-19 21-18 18-16 19-17 23"/>
<path d="M4949 17948l 24-16 23-8 25-7 26-4 31 2 23 10 20 16 4 24-20 22-22 13-30 13-32 14-31 13-27 14-23 14 27 14 26 0 33 0 24 0 35 2 33 5 29 5 24 9 22 14 6 27-17 25-19 15-24 16-26 15-25 12-24 10-25 8-24 7"/>
<path d="M5358 18258l-13 26-18 23-22 22-24 27-18 18-16 19"/>
<path d="M5727 17973l 11-26 23-10 30-6 30-4 32 0 32 2 29 7 25 8 27 15 14 23-1 29-11 25-21 26-19 18-23 17-27 17-29 16-30 16-31 15-31 14-29 14-26 13-30 15-24 15 8 24 34 3 35-3 26-4 31-4 32-6 32-7 31-6 28-5 28-3 26-1 34 3"/>
<path d="M2191 18773l 14-21 27-3 25-1 28 1 28 3 28 6 25 11 21 20 6 25-10 26-18 24-24 25-18 18-17 17-19 18-20 18-22 18-23 17-24 18-23 16-23 16-21 14-28 18-23 15-20 15 27 1 28-4 28-3 30-6 26-3 25-3 25-4 31-2 27 1 28 3 25 12"/>
<path d="M2513 19139l-13 25-14 23-14 21-16 25-15 25"/>
<path d="M2974 18660l-22 9-18 20-22 30-17 25-17 28-18 31-19 33-18 35-17 40-15 39-12 39-6 36-3 31 3 28 6 24 16 28 24 21 29 12 30 2 34-6 33-14 23-12 20-13 25-22 17-22 6-24-13-22-20-15-28-14-30-9-30-5-28 1-29 5-23 13"/>
<path d="M3576 18905l 27-4 28-2 34-8 25-5 27-5 26-5 25-2 32-4 28-1 26-1 24-1 28-3"/>
<path d="M3838 18776l 31-1 30 3 24 4 26 8 23 14 9 23-9 23-19 24-21 20-26 20-27 18-25 18-22 16-20 16-19 16"/>
<path d="M4321 18810l 22-13 29-2 33-1 29 1 28 4 25 7 27 13 18 21 1 28-18 26-25 22-22 17-23 18-25 20-25 18-26 17-24 17-23 13-26 17-21 16 21 14 26-2 35-2 27-2 27-2 28-3 27-3 29-3"/>
<path d="M4655 19095l-21 19-18 17-21 21-20 20-19 21-21 21-20 18"/>
<path d="M4961 18721l 6 28 5 31 3 29 2 33 2 33-2 37-2 25-3 26-4 26-4 33-1 26 7 24"/>
<path d="M5179 19012l-1 29-3 24-9 30-11 26-15 30-12 22-14 22-14 22-17 22"/>
<path d="M5758 18750l 11-21 18-21 25-15 24-9 31-3 29 3 26 5 27 10"/>
<path d="M5844 18739l-22 15-14 22-8 29-3 25 1 25 7 25 15 26 20 14 28 10 27 3 29 1 29 0 28 1 28 3 24 5 23 10 18 20-1 24-16 19-27 17-24 11-26 9-26 7-25 3-26 2-30 1-27-4-25-9"/>
<path d="M6914 17983l 22-14 27-12 27-7 28-3 29 0 28 2 28 5"/>
<path d="M6963 18078l 28-8 31-6 27-4 30-3 35-3 35-2"/>
<path d="M7486 17851l 14-21 30-3 26-1 31 0 31 4 31 6 27 9 25 17 6 27-17 26-25 20-28 18-30 17-28 13-27 12-27 10 27 11 32 0 36 0 25 1 26 3 25 2 24 5 30 10 20 15 15 25 1 27-14 28-21 23-27 22-22 14-22 13-23 11-25 10-24 8-23 7-33 6-27 1-30-3-14-23"/>
<path d="M8275 17938l-29-2-26 5-28 13-21 12-22 16-21 20-20 22-17 26-14 26-10 26-6 25 2 33 11 29 21 23 29 16 25 6 27 4 30 0 32-2 33-5 35-9 33-10 32-13 28-14 23-15 19-16 21-25 12-28 0-30-10-32-14-20-18-17-22-15-23-14-23-10-25-8-25-5-24-3-24-2-32 2"/>
<path d="M8207 18094l 24 4 28 15 28 13 27 15 21 14 21 15"/>
<path d="M8324 18046l-20-17-26 11-22 22-19 21-22 25-24 26-19 26-13 26"/>
<path d="M8725 17908l 10-22 26-2 25 2 28 3 28 6 27 7 25 10 24 15 13 24-17 22-23 11-28 12-26 14-20 19 6 25 25 13 25 9 25 10 23 11 22 16 17 20-9 26-24 17-22 11-25 8-28 8-29 6-27 4-27 1-25-1-26-7"/>
<path d="M9820 18143l 23 12 24-3 23-10 20-13 19-17 23-22 17-18 16-18 17-20 15-20 14-20 15-22 12-20 16-33 12-31 10-31 7-28 2-25 0-27-2-25-27 7-20 23-15 25-18 29-12 23-11 24-10 24-9 26-6 24-6 25-3 25-5 35-2 32 3 28 9 28 17 22 21 12 29 3 25-5 22-10"/>
<path d="M6983 18813l 27-8 29-3 30-4 25-4 30-5"/>
<path d="M7030 18849l 26 11 30 0 28-2 30-3"/>
<path d="M7556 18700l 26 4 26-4 29-6 30-3"/>
<path d="M7621 18720l-22 11-24 15-18 17-15 23-6 25 5 25 21 13 29 5 30 0 24-4 26-4 26-2 26-1 30 1 26 8 18 19-5 25-15 19-23 22-23 18-27 19-29 18-30 15-28 10-25 6-25 3-28-2-22-13-6-31"/>
<path d="M7780 18615l-22-16-24-5-28 0-25 4-28 9-32 13-23 11-25 15-26 15-24 18-24 20-23 21-23 24-22 26-21 30-19 33-15 34-13 37-7 38-5 37-2 35 3 32 7 26 11 23 15 19 19 17 22 13 25 11 28 8 30 5 31 2 34 0 34-3 36-6 35-9 37-11 35-13 35-15 33-16 29-18 28-18 23-19 17-22 18-24 12-27 13-28 7-31 5-31-2-33-7-33-11-32-16-32-20-30-22-26-27-24-28-21-28-18-29-15-27-12-25-9-25-7-31-6-27 0-27 8-17 17"/>
<path d="M9778 18987l 3-27-5 25-7 28-4 25 0 28 8 22 21 13 28-5 24-13 23-18 17-21 11-23 10 24 15 20 22 10 25 1 29-5 30-8 23-10 23-12 20-15 20-18 14-22 8-25-2-30-13-25-19-22-20-16-20-17"/>
<path d="M11208 13129l 28 3"/>
<path d="M11244 13088l-14 26-12 28-14 27-17 29-13 21-15 23-14 23-15 24-15 25-12 25-11 23-9 30 1 29 21 20 30 3 29-4 24-5 24-8 25-10 26-10 26-11 24-12 27-11 23-11 22-10 28-13 22-13 19-14 4-26"/>
<path d="M11302 13231l-7 27-6 32 0 30-1 32 0 36-1 26 1 26 1 27 1 25 4 34 5 29 9 30 18 20"/>
<path d="M11578 13312l 26-11 29 2 25 2 24 5"/>
<path d="M11563 13409l 22-12 30-8 29-6 34-7"/>
<path d="M12023 13207l 21-16 32-5 31-5 32-3 28-1 25 1 29 3 25 5-4 24-31 12-30 10-32 10-32 11-28 11-23 9-22 12 27 4 28 0 33 1 24 3 25 5 26 8 26 10 26 11 21 12 22 19 10 27-3 24-15 28-20 21-26 18-31 16-31 12-33 9-34 4-25 1-31 0-29-5-27-12-15-20"/>
<path d="M12634 13269l 5-24 16-18 20-22 18-23 15-27 12-26 8-24 5-24 2 27 3 25 8 25 13 21 11 21 17 18"/>
<path d="M13021 13207l 21-16 30-5 29-4 26 0 25 4 28 8 17 17-14 25-22 15-24 15-21 14-20 15 18 16 25 2 26 3 28 5 27 7 23 11 23 16 15 21 11 23-4 27-13 25-21 16-22 11-30 11-33 9-24 4-35 5-33 1-30-2-28-9-17-20"/>
<path d="M13596 13204l 15-20 5-27 6-26 15-25 17-24 18-22 20-15 9 25 7 27 4 26 10 24 11 23 17 19"/>
<path d="M14008 13122l 20 18 6 29 3 29 1 32 2 36 2 35 6 35 5 35 6 34 5 31 6 27 6 30 5 28 6 24"/>
<path d="M12033 13969l-23-10-19 17-14 21-11 22-12 27-12 32-13 34-9 33-6 33-2 27 3 28 12 23 25 10 31-1 26-7"/>
<path d="M12168 14044l 9 24 7 28 4 24 2 28 0 24"/>
<path d="M12300 13964l 29 6 28 10 24 10 24 11 19 16 17 26 10 29 0 31-11 26-19 26-22 26-25 25-23 22-20 18-20 16"/>
<path d="M13066 13977l 1 25 1 28 3 25 4 26 0 27-8 26"/>
<path d="M13017 13867l-23 9-25 16-23 19-21 20-21 23-18 27-15 30-10 34-6 34 1 33 6 30 12 28 18 26 22 22 26 20 28 14"/>
<path d="M13210 13879l 26 15 21 19 20 16 19 19 20 22 19 22 16 23 10 25 4 25-4 25-14 23-20 22-26 21-25 17-22 12"/>
<path d="M14021 13903l-29 1-24 15-19 15-16 19-11 22-9 24-2 25 5 30 16 27 22 15 27 8 30 4 34-3 24-5 25-7 25-9 22-12 26-17 19-19 14-28 2-30-6-24-13-22-16-18-20-15-29-12-27-7-26-1"/>
<path d="M13776 13793l-22 9-23 22-20 24-20 30-11 21-10 23-10 31-4 29 5 28 13 24 21 20 28 16 24 8 27 6 28 5 30 2 30 0"/>
<path d="M14183 13805l 27 0 28 10 29 15 21 17 19 22 16 25 9 27 5 27 0 27-3 28-4 28-7 28-11 28-17 27-20 27-20 25-20 22-18 21"/>
<path d="M10905 14782l 24-10 29-6 26-8 27-10 25-11"/>
<path d="M10918 14798l-24 15-22 19-23 22-18 25-13 21-12 27-3 29 11 23 24 9 31-1 26-7 31-8 31-8 32-7 30-4 26-1 24 5 15 22-4 30-12 24-19 27-15 20-17 20-20 19-20 18-20 16-28 17-30 14-29 7-28 3-31-3-22-16-7-26 7-25 16-20"/>
<path d="M11151 14972l 14-21 25-10 29-6 27-1"/>
<path d="M11144 15050l 21-14 28-7 31-3"/>
<path d="M11466 14899l 19-19 27-13 29-8 29-5 25-3 27 3 19 15-20 16-25 15-24 17-24 14-21 15 21 14 27 0 27 3 25 3 30 8 24 12 18 19-1 28-13 22-18 18-20 17-23 16-24 14-25 11-24 9-25 5-24 3-28-5-20-13"/>
<path d="M11905 14874l 21-17 19-17 17-20 14-22 14-23 12-25 8-23 9 23 10 23 13 20 17 20 20 13"/>
<path d="M12482 14798l 21-16 24 0 26 5 25 9 23 13-16 24-23 13-26 13-28 16-24 14 25 10 26-5 26-2 28 2 27 7 24 11 20 14 18 21 10 22-7 28-16 18-22 17-24 11-24 8-29 3-29-2-24-7-25-11"/>
<path d="M12971 14752l 10-26 21-23 18-22 15-21 15-24 13-21 14 21 8 23 11 23 13 24 12 25 14 20 17 21"/>
<path d="M13430 14741l 24-5 27 6 27 8 26 9 23 11 23 14 19 17 14 20 6 24-11 22-19 19-20 15-24 16-28 19-21 13-22 13-21 13-28 20-19 16-15 19 28 6 31-1 29-1 30-2 30 0 28 2 28 3 27 8"/>
<path d="M12576 15622l 19 21 0 25 0 25-4 31-6 35-5 36-3 25-1 24-1 35 0 34 0 30 0 28 2 25 1 27 4 25"/>
<path d="M12992 15612l 4-29 12-23 16-25 14-24 10-23 3 27 2 26 4 25 8 27 11 22 20 19 23 7"/>
<path d="M13397 15642l-14 23-12 22-12 22-10 24-11 23-12 28-5 26 0 26 12 21 24 14 26 1 27-2 29-4 31-5 28-5 27-8 23-7 29-12"/>
<path d="M13483 15807l-16 21-10 23-3 29 2 26 3 28 3 28 1 26 3 25"/>
<path d="M13419 15261l-21 12-15 24-10 23-5 27 5 23 21 13 25-1 24-7 22-14 17-20 2-25-9-23-20-18-24-12-25-1"/>
<path d="M14621 13307l 21-12"/>
<path d="M14581 13397l 23-8 29-4"/>
<path d="M14796 13319l-22 15-13 21-6 25-4 26 1 27 5 25 11 24 21 18 26 0 25-10 26-17 18-16 14-24 6-24-9-26-21-19-24-11-29 0"/>
<path d="M13436 16260l-24 6-14 23-6 25-5 26 5 28 10 23 22 13 27 0 26-10 22-13 20-18 16-21 14-27 5-29-3-30-10-28-16-20-24-12-26-2-28 5-23 15"/>
<path d="M12642 16429l-14-19-8-23-19 18-15 20-14 25-9 26-4 27 7 25 22 19 27 3 29-5 24-10 25-13 22-16 21-21 9-26-10-29-22-24-22-18-26-16-22-13-25-11-25-8"/>
<path d="M12580 15297l-9 22-2 27 2 24 4 25"/>
<path d="M11618 15308l 6 30 0 28 0 31 1 30 2 27 0 25-2 31-3 28"/>
<path d="M1314 20300l-1 29-2 25-1 27-1 30-1 35-1 35-2 34 0 34-2 30-2 28-2 26-4 28-4 27"/>
<path d="M2495 19913l-4 26-2 33 0 27 2 30 11 22 24 6 24-14 19-19 17-23 9-22 6-25-2 26 7 28 18 19 23 6 29-5 23-11 17-23 5-28 0-25-10-23-23-9"/>
<path d="M2770 19921l 1 27 6 27 6 26 3 26"/>
<path d="M2800 19809l"/>
<path d="M2873 19958l-3 25 0 25 9-27 11-27 13-23 15-19 19-15 17 19 2 26-2 27-2 29 0 26"/>
<path d="M3057 19906l 7 24-3 27-9 26 8-28 13-23 15-21 15-19 20-19 22-13 12 25-1 26-1 26 11 23"/>
<path d="M3334 19870l-26-1-23 14-24 20-17 22-7 24 17 17 26-7 21-13 14-20 27 3 26-13 24-17 26-21 17-17 25-26 20-26 15-27 10-30 6-33 5-35 1-29-6-26-24 3-18 22-14 23-12 28-10 31-8 33-4 36-1 35 2 34 8 30 13 25 15 20 22 17 25 5 25-11 13-20-3-27-15-19-23-16-22-14-22-13 28-2 25-8 23-9 24-13 23-17 19-18 15-21 10-29 3-24-1-24-1-31-5-26-26 12-9 23-10 27-8 33-5 23-4 24-2 25 0 35 3 33 7 28 11 23 20 21 22 9 25-5"/>
<path d="M3680 19861l 26-3 25-6 21-12-6-24-27-9-25 1-23 9-17 18-13 21-7 28-2 29 4 27 15 25 19 15 29 9 35 1 25-3"/>
<path d="M4783 20073l 29-4 24-10 32-20 26-20 29-23 31-27 30-30 30-31 26-31 22-32 17-31 13-32 7-31 5-30 3-29 0-24 0-27-10-25-26 9-18 29-13 32-9 26-9 30-9 33-8 34-6 33-5 32-1 29 1 26 5 25 11 33 17 26 21 16 24 7 26-2"/>
<path d="M5216 19925l-19 14-3 27 13 24 28 8 29-7 23-17 15-20-2-25-20-13-25-5 27 5 26-7 27-14 19-15 18-20 10-23-11 26 10 24 16 19 20 16 21 20 14 21-13 24-28 12-29 3-28 0-25-1 24-14 29-9 31-9 25-7"/>
<path d="M5614 19873l-22-14-24-2-23 10-22 17-21 19-12 22 25 3 31-8 23-8 24-9 15 23 21 13 29-9 23-14 24-19 25-24 23-26 20-28 14-28 11-31 7-34 4-26 4-26 2-25 1-29-11-22-23 19-17 22-16 30-9 23-8 25-7 26-5 27-2 27 0 27 2 25 8 35 11 30 12 23 19 22 24 13 22-10 8-27-4-27-15-27-17-21-22-12 29-3 27-10 22-12 23-16 23-21 20-23 19-24 14-25 9-27 6-27 2-26 0-28-22-12-14 20-11 24-10 28-10 32-5 34-5 35-2 24-1 34 1 32 4 30 7 23 15 23 26 12 30-4 25-12 22-12"/>
<path d="M6057 19878l 21-14 23-8 23-8 22-12 6-24-24-14-27-1-25 7-19 16-13 22-6 27 1 29 9 29 18 24 24 21 23 12 25 8 28 2 27-2"/>
<path d="M2965 20384l-19 16-11 28-6 25-5 27-2 25-1 27 3 26 7 24 12 27 17 23 25 16 31 7 29-2 30-8 31-14 30-17 25-18 21-20 17-19 12-27 3-28-5-24-13-27-20-28-22-23-25-16-25-10-24-4-31 2-28 11-23 17-14 26"/>
<path d="M5516 20301l 1 29 4 29 6 35 3 26 3 27 3 28 3 27 3 24 2 24 2 34 0 30-1 26-5 26-13 23"/>
<path d="M1213 21306l 7-24 24-8 28-3 33 1 27 5 27 9 21 16 10 24-1 26-12 32-14 24-20 26-21 23-18 18-21 20-24 21-25 22-27 22-27 23-26 22-22 18-20 17-22 20-16 18 20 18 32-3 32-6 24-5 39-12 25-7 23-7 42-12 33-9 25-6 31-3"/>
<path d="M2954 21283l-25 12-29 19-17 18-21 28-11 22-9 23-8 33 1 32 9 29 18 28 25 24 21 13 22 10 26 9 26 6 26 3 27 0 26-3 26-6 24-9 22-14 25-23 15-27 4-28-7-29-15-29-17-19-20-19-24-19-25-18-26-16-25-13-25-11-23-8-32-7-28 0-22 10"/>
<path d="M5469 21105l-14 24-4 25-4 26-4 30-2 32 1 34 1 34 5 34 1 34 1 31 3 27 2 28 4 24"/>
<path d="M1272 22155l-21-16-14-19 26-9 28 0 26 0 31 3 24 6 19 19-8 23-20 24-24 18-28 18-29 17-30 12-24 10-22 10 30 7 31 3 26 3 28 5 25 5 28 7 27 12 20 13 12 22-4 29-13 22-21 23-17 17-19 17-19 14-21 13-21 11-33 13-32 9-26 4-29-1-27-8-15-21"/>
<path d="M3005 22115l-6 30-6 26-7 30-7 33-5 31-5 31-3 28-1 30-1 29-1 28-2 26 0 24 0 25"/>
<path d="M5400 22072l-24-13-25 3-16 21-12 21-11 26-7 28-4 29 3 26 8 24 15 20 20 17 25 14 30 10 32 5 31-2 29-8 28-15 25-20 22-24 17-28 13-30 4-31-4-31-10-31-15-28-20-26-25-21-25-13-24-7-31 1-29 9-26 15-17 20"/>
<path d="M1140 23174l-8 26-13 28-13 25-14 28-15 29-15 28-13 25-10 24-6 24 4 26 19 20 27 10 25 1 31-2 26-3 28-6 26-6 29-6 26-5 30-5 26-10 20-13"/>
<path d="M1228 23294l-11 23 1 28 1 25 1 30 2 32 1 32 0 31-1 30-1 29-2 28 0 24 1 26"/>
<path d="M2907 23286l-24 6-16 19-17 24-13 23-11 27-7 28-3 28 3 26 7 23 13 22 22 24 25 18 24 8 26 3 29-3 28-7 28-13 24-17 21-20 17-23 11-24 7-24 2-26-8-28-14-30-23-25-23-20-25-16-25-11-26-5-26-1-30 7-24 13-20 20-11 23"/>
<path d="M5415 22968l-11 23-8 27-7 24-6 27-5 28-4 29-3 28-2 28-4 28-1 27 0 26 2 27 3 27"/>
<path d="M1077 24276l 20-14 28-12 26-10 27-7 26-6 28-4 27-3 26-1"/>
<path d="M1092 24290l-24 13-15 23-5 28-7 29-8 30-6 27-3 26 8 23 25 2 30-11 31-13 23-9 24-8 34-11 32-8 30-5 26 0 27 5 22 15 12 22 3 29-5 30-9 24-14 25-16 25-21 21-25 19-25 14-24 9-26 5-26-1-27-4-25-7-22-9-23-12"/>
<path d="M2960 24232l-5 29-4 32-2 25-3 27-2 26-2 25-1 26-2 25-2 26-2 28-2 27-1 26-1 27-1 26-1 26-2 25-1 33 0 27 3 27"/>
<path d="M5262 24113l 7 28 1 30-3 29-2 32-3 34-1 24-3 25-2 26-3 26-4 26-5 27-6 29-6 28-6 27-8 25-6 24-11 31-5 25-5 24"/>
<path d="M8234 21208l-21-19-28-6-29 5-26 9-30 12-32 15-28 16-22 14-20 15 24 14 28 3 25 1 27 1 28 2 28 3 27 4 23 5 32 10 21 12 17 21-14 28-18 16-26 18-32 15-24 7-24 7-31 6-28 0-27-4-12-24"/>
<path d="M8348 21296l-5 28-3 28-1 25-2 30-5 36-4 26-6 26-6 27-6 27-6 26-9 32-6 28 5-31 5-24 6-27 6-28 5-28 5-27 3-28 2-27 1-27-1-25 1-33 3-27 4-26 15-22 24-12 26-5 24 1 24 5 22 14 8 27-11 27-18 21-24 17-23 15-23 17-18 21 17 20 24-6 29-10 22-11 27-17 27-22 19-18 19-19 23-23 21-24 21-26 19-29 16-30 13-33 12-35 10-39 10-39 8-37 8-35 7-28 7-30-1-25-26 10-15 23-15 30-10 26-13 30-13 33-12 36-13 36-11 37-9 35-7 33-6 31-1 28 0 24 6 31 10 22 21 23 26 11 29-1"/>
<path d="M8756 21257l-12 21-9 27-7 26-1 25 5 26 14 20"/>
<path d="M8775 21205l"/>
<path d="M8928 21002l-3 28-3 25-7 31-6 24-7 26-8 27-10 28-10 29-10 28-10 28-7 25-7 31-2 26 4 26 8 23 21 12 28-1 23-7"/>
<path d="M8870 21254l 18-20 31-9"/>
<path d="M9357 21227l-9 25-8 26-9 23-5 30 0 25 4 25"/>
<path d="M9381 21118l-11 22"/>
<path d="M9439 21297l 1 25-2 26-4 25 0 25 14-26 13-21 14-23 16-22 16-18 18-19 5 27-3 27 0 25 9 25 26 6"/>
<path d="M9726 21019l 1 29-2 30-3 29-6 36-5 24-6 26-9 27-7 28-9 27-10 27-7 25-9 33-6 30-3 26 2 27 14 20 29-5 24-13"/>
<path d="M9652 21220l 28 12 25 6 28 6"/>
<path d="M9860 21286l-4 26-6 23 3 26 23 14 25 0 25-10 22-19 11-27-3-28-13-24-19-15-25-2-20 16"/>
<path d="M10746 21116l-25 12-23 17-19 20-14 24-8 25 0 25 10 24 18 24 26 23 19 14 21 13 31 16 33 14 31 10 33 5 34 0 34-7 33-13 29-17 23-23 19-26 13-31 5-37 0-26-3-27-7-28-9-27-13-25-17-20-20-15-22-10-25-4-27-1-29 1-28 4-28 5-26 8-26 9-24 12-22 12-21 13-25 19-17 19"/>
<path d="M10788 21225l 25 12 22 14 27 16 22 13 24 12 23 11 28 11 24 6 24 1"/>
<path d="M10998 21141l-22 14-21 22-16 19-23 23-19 17-21 18-20 18-19 18-18 17-22 25-18 21"/>
<path d="M11397 21133l-29 3-27 9-26 15-27 19-24 23-19 27-12 30-6 30 4 28 10 25 17 22 22 18 29 12 24 4 25 2 26 0 27-3 25-5 24-9 23-11 28-20 20-22 12-25 4-28-8-31-14-30-22-24-25-15-28-8-27-2-25 1-25 4"/>
<path d="M11712 21067l 21-11 30-2 25 4 27 8 21 15 3 27-12 25-12 21-14 24-15 27-16 28-15 30-12 30"/>
<path d="M11773 21471l-1 26"/>
<path d="M7378 22435l-4-24 24-15 30-11 23-8 31-7 24-1 28 4 22 10 18 21-2 30-10 24-15 20-22 18-24 15-24 11-28 9 23-11 30-3 28 2 32 4 26 3 26 5 25 10 19 17 1 24-14 25-19 22-25 24-22 16-22 14-26 13-27 13-27 10-25 10-25 7-33 8-29 3-30-2-22-13"/>
<path d="M7200 22858l 29-3 28-1 35-2 27-3 27-3 30-3 33-3 31-3 33-4 33-4 32-5 31-3 28-4 26-3 33-4 28-2 30-1 26 5"/>
<path d="M8196 22365l-24 10-24 15-21 16-21 23-19 30-12 23-10 26-9 27-8 27-5 28-3 26 1 25 8 30 14 28 18 22 24 18 30 12 23 5 27 2 25-2 27-6 28-9 30-12 31-16 29-19 28-20 24-22 21-23 17-23 13-22 9-24 7-26 2-27-1-31-3-31-7-32-13-31-15-28-19-24-22-21-21-16-23-12-23-9-34-4-35 3-31 14-21 14-18 17-17 20"/>
<path d="M8163 22495l 21 15 20 14 28 15 22 12 20 13 26 16 24 16 22 13 22 15 17 17"/>
<path d="M8385 22375l-21 16-19 25-15 21-19 27-14 20-15 20-14 21-16 21-15 23-14 22-13 23-12 22-17 29-12 24-9 24"/>
<path d="M8954 22433l 18-22-14-21-30 3-30 8-33 12-22 10-23 12-22 14-23 15-20 14-23 19-12 21 23 10 29 6 36 5 25 5 27 5 25 5 24 6 29 9 27 14 18 19 3 25-14 25-21 19-28 19-33 17-23 10-32 10-30 7-27 3-28 1-10-24"/>
<path d="M9151 22673l 1 31 5 27 8 27 7 29 5 30 3 26"/>
<path d="M9768 22370l-25-7-29 3-27 8-20 13-23 22-16 20-15 24-14 27-11 29-10 30-6 29-4 29 0 28 5 26 9 23 19 27 26 20 22 11 23 9 25 5 26 3 26 0 27-5 26-7 27-10 27-13 26-16 25-19 23-23 22-25 18-25 16-26 10-26 6-29 2-30-3-31-6-29-12-26-16-20-19-15-23-10-24-8-26-4-25-1-34 0-29 2-30 6-25 9-23 14"/>
<path d="M9729 22470l 16 19 18 26 17 23 20 24 21 24 22 25 19 23 16 22 21 24 17 19 26 2"/>
<path d="M9901 22396l-24 15-17 19-22 29-18 22-18 24-20 26-21 27-21 28-20 27-19 26-15 23-12 22"/>
<path d="M10438 22508l-19-17-24-2-26 7-22 9-25 12-28 15-25 15-20 14-15 20 15 19 26 12 27 11 27 11 26 11 24 11 23 11 27 14 21 13 15 21-18 19-25 16-23 12-25 12-25 10-26 10-25 8-24 7-30 8-30 2-16-17"/>
<path d="M10581 22724l 22 15 18 19-10 25-20 15-20 17 15 22 29 0 26-3 26-4 28-6 25-6"/>
<path d="M10052 23031l 26 9 32-1 27-2 31-2 39-1 40-2 43-2 46-3 45-2 47-3 45-2 44-3 41-1 40-1 35-3 35-1 30-1 30-3 28-1 25-1 32-2 30-2"/>
<path d="M8623 23055l 29-6 27-3 35-3 28-2 28 0 32 0 32 0 35 0 38 0 38 0 43 0 41 0 40 0 40 1 38-1 39-1 38-3 36-3 32-3 30-2 25-3 31-4 29-3 27 0"/>
<path d="M11229 22445l 29-4 30-2 25-3 25-2"/>
<path d="M11204 22507l 27 3 26 1 24-2 29-1 34-2"/>
<path d="M11746 22287l-27 9-21 23-21 27-16 23-17 26-17 29-14 32-11 32-9 31-3 30-2 27 5 35 12 29 20 26 25 25 30 19 22 11 32 13 32 9 31 3 31-4 32-13 21-12 22-16 22-18 21-20 20-22 16-24 14-24 10-24 6-25 3-26-1-26-4-26-7-26-9-24-16-31-21-24-25-18-25-15-28-10-30-5-32-4-29-1-28 3-25 5-29 12"/>
<path d="M12134 22270l 25-9 28 2 28 5 28 9 20 14 6 25-9 24-14 24-13 21-13 22-13 22-12 23-12 23-11 22"/>
<path d="M12151 22677l 1 24"/>
<path d="M-161 25655l-23-9-28-7-31-3-24 0-25 4-25 6-24 10-24 14-25 17-25 18-25 19-22 19-21 21-8 23 24 17 30 7 27 5 28 5 28 6 28 5 29 7 30 7 30 9 29 11 27 12 23 15 18 17 17 25 5 29-6 24-13 26-21 26-27 24-21 14-22 11-24 8-24 5-34 3-35-4-32-7-31-9-27-11-22-11-20-14-13-23"/>
<path d="M-18 26070l-9 25 0 25 5 24 13 20 22 10 29 2 27-10 19-20 11-27-1-25-15-19-22-12-24-6-25 0"/>
<path d="M45 26040l 4-26 6-24-6 24-8 29-7 31-6 35-4 33-3 32-2 27 1 30 5 23 9-26 0-24-1-28-2-28-2-28-3-24-4-25-12 25-5 29-4 29 0 28 2 28 8 24"/>
<path d="M339 25783l 26-4 27 2 26 1 27 4"/>
<path d="M308 25902l 29-3 30-2 29-4 33-6"/>
<path d="M705 25721l-27 7-22 21-13 20-14 25-9 30-6 33 0 25 5 35 5 23 14 30 21 24 25 16 30 7 32 1 34-6 34-12 22-13 20-14 19-16 23-27 17-30 9-34 0-36-5-26-7-27-11-26-13-24-17-22-20-19-22-14-23-11-25-7-25-2-26 1-27 6-28 9"/>
<path d="M-360 26680l-12-21-26-8-31 4-23 9-27 12-28 16-27 19-26 19-20 20-13 26 4 26 20 22 25 12 32 8 24 3 27 2 26 2 26 3 27 1 35 4 31 3 25 4 25 13 2 29-12 22-24 28-21 19-25 20-27 19-26 16-27 14-25 10-24 8-31 4-28-1-28-9-16-22"/>
<path d="M-178 26925l 24 4 27 0 28 0 24 5-3 27-21 18-22 17-25 17-23 18-22 20 14 19 28-3 25-3 25-6 27-9 29-13"/>
<path d="M208 26705l 24-6 30-6 25-4"/>
<path d="M151 26810l 25-1 30-1 29-5"/>
<path d="M585 26644l-24 14-26 20-20 23-16 28-9 34-4 25 1 24 4 27 7 26 9 25 12 24 14 21 23 23 26 16 29 8 30 0 33-7 32-15 20-15 20-18 21-21 21-23 18-25 17-25 13-28 10-28 6-30 2-32-3-31-9-29-13-27-20-24-23-19-27-16-28-12-29-7-31-5-32-2-31 0-32 2-31 4-29 6"/>
<path d="M-355 27468l 1-24-12-22-25 0-23 15-20 18-23 23-21 24-17 22-12 21 15 22 28 7 28 5 32 3 34 2 34 1 31 1 27 1 29 4 19 17-11 29-16 24-22 26-25 25-27 22-26 15-27 9-26 2-30-2-26-8-20-14"/>
<path d="M-113 27640l 24 3 25 3-3 25-17 21 20 14 27-2 26 2 7 24-6 26-10 24-13 26-16 22-22 17-24-1"/>
<path d="M130 27502l 25 8 29-1 29-3 26-8"/>
<path d="M108 27585l 27 6 27-4 25-5 27-7"/>
<path d="M510 27280l-1 26 7 26 5 29 3 25 2 31 1 35 1 27 0 28 0 29 1 30 0 29 1 28 2 26 4 36 7 32 6 28 6 26 6 28 5 27"/>
<path d="M-310 28301l-3-27-9-22-23-17-29-6-24 1-30 8-22 10-24 13-23 15-24 19-21 17-21 20-18 19-20 27-10 24 5 27 23 14 27 9 33 5 25 3 27 1 27 1 28 2 26 1 26 3 24 4 33 8 28 9 23 10 22 16 13 25 2 26-8 31-12 28-15 29-22 26-25 25-27 22-28 14-30 9-30 1-28-3-24-6-22-11-10-25"/>
<path d="M-129 28637l-13 23-6 23-5 28 1 26 1 26 3 26 18 17 27 5 25-1 24-3 26-9 23-13 20-16"/>
<path d="M-49 28767l-9 26 1 25 7 26 10 27 10 24"/>
<path d="M193 28433l 23 11 27 8 28-6 23-7 27-10"/>
<path d="M207 28515l 21 16 25 0 26-1 25-2 24-2"/>
<path d="M13170 5023l-17-19-2 24 10 23 10 29 13 36 13 41 15 46 9 25 9 26 10 27 11 27 11 28 11 30 12 30 12 30 12 32 14 32 12 33 14 34 13 35 14 35 15 36 15 36 16 37 16 36 16 38 17 38 16 37 18 38 17 37 18 38 19 38 17 38 20 39 20 37 18 39 19 38 19 38 19 39 19 38 18 36 17 37 18 37 17 35 17 37 17 34 15 35 16 34 15 34 16 32 14 31 15 31 13 29 12 27 11 26 11 25 11 24 18 43 15 36 13 32 10 29 6 26 1 33"/>
<path d="M13135 6963l-9-23 0-26 18-26 16-25 20-31 17-23 19-27 21-30 24-34 23-40 12-22 13-23 12-24 13-25 12-28 13-29 15-29 13-31 14-32 14-33 14-35 15-35 16-37 16-38 15-40 16-40 17-40 17-41 16-43 18-43 17-43 17-43 18-43 19-44 18-44 19-44 18-42 18-44 17-42 17-42 16-42 17-40 15-40 14-38 14-38 14-37 13-36 12-35 12-34 11-32 11-32 10-31 10-29 9-28 9-27 8-26 8-25 8-24 16-43 14-36 15-29 11-23 13-22"/>
<path d="M6540 19572l-26 2-16 28-17 32-13 26-14 28-17 33-18 35-19 40-19 42-19 43-15 43-12 41-7 38-3 35 1 30 7 26 12 32 14 25 18 18 24 14 25 7"/>
<path d="M6664 19937l-22-13-22 12-18 18-17 19-17 23-15 26-13 26-7 25 2 28 23 15 26-3 30-10"/>
<path d="M6807 19949l-21-12-23 15-16 22-12 22-9 24 10 24 27 1 23-10 19-17 10-23-1 25 27 2 23-12 19-17 13-20 5 27 4 26 26-1 12-24 13-23 12 23 5 24 5 25"/>
<path d="M7210 19932l-26 9-20 15-19 25-14 22-9 28 4 26 26 7 27-11 22-16 19-17 19-22 15-22-5 25 5 25 10 22 13 23 12 22 12 23 8 23 5 25-2 25-7 25-16 24-24 11-29-6-20-15-17-25-8-25-3-28"/>
<path d="M7325 19957l-2 27 6 27 17 17 25-1 23-15 13-22 2-26-20-18-28-2-23 7-23 13"/>
<path d="M7710 19764l-23 9-18 22-13 24-10 29-2 30 10 27 17 21 22 16 26 7 27-1 30-8 27-16 18-20 9-29-2-24-10-25-19-25-19-16-24-15-25-10"/>
<path d="M7848 19641l 21 18 23 18 20 15 18 16 19 19 17 20 16 21 12 24 8 23 5 32 1 32-2 26-8 27-14 25-16 25-19 20-20 16-22 13"/>
<path d="M3475 20182l-19-15-22 16-16 25-14 24-12 26-13 26-10 27-5 29 0 30 5 28 11 25 19 26 24 16 30 8"/>
<path d="M3562 20350l-22 14-17 19-12 23-7 23 6 26 21 13 27-3"/>
<path d="M3670 20369l-24-7-24 6-16 20-7 25-2 25 19 15 27-9 18-16 12-23 10 23 23 10"/>
<path d="M3742 20373l-3 27 4 26 25-4 12-23 13-21 14 22 11 25 16 19"/>
<path d="M3944 20379l-24 9-15 25-6 25 3 27 20 18 23-9 15-20 8-24 5 28 10 27 11 25 10 26 6 24 5 28-7 27-17 23-26 11-27-1-20-15-6-24 2-26"/>
<path d="M4011 20392l-7 25-1 28 10 22 24 1 14-20 6-27-8-23-25-5-24 9"/>
<path d="M4222 20253l 4 25 5 26 3 28 3 27 4 25"/>
<path d="M4324 20219l"/>
<path d="M4320 20188l 17 20 14 21 15 20 17 20 13 21 8 27-1 29-7 23-12 25-15 25-18 23"/>
<path d="M4182 20304l 2-26 1-25-21 17-8 25-8 29-4 29 0 25 4 27 13 23 21 13 25-3 24-16 17-20 14-21 9-26 0-27-5-28-14-25-20-17-24-10-25 1-24 12-14 22-2 26"/>
<path d="M7695 19840l-6-26-2-24-3-26-23 15-4 27-1 32 0 34 3 36 4 35 4 31 7 28 5 25 7 27 8 25-4-25-5-25-6-32-8-34-5-24-5-25-5-25-5-24-7-34-5-29-5-23-5-24 18 24 9 25 12 27 11 30 10 30 6 29 6 27 6 30 5 25-3-28-3-32-2-26 0-27-1-29-1-29-1-29-2-28-2-25-2-32-3-24-2-24 6 28 3 32 3 25 4 25 3 26 2 26 3 24 4 34 3 32 3 28 2 27-10-29-3-31-2-35 0-36 1-34 1-30-1-25-1-27 2 30 1 29 2 33 3 31 1 29 3 24 4 25-5-31-4-26-4-27-2-25-3-24-8-23"/>
<path d="M642 28268l-11-24-18-17-22 13-13 24-10 28-6 35-4 26-1 28 1 28 3 30 4 29 7 29 10 28 13 26 17 21 21 19 21 13 23 9 34 6 32-1 33-9 32-17 22-15 21-20 18-23 17-27 13-28 9-30 7-27 2-26-2-26-6-25-10-24-14-24-19-21-22-21-25-17-25-13-24-10-24-6-35-2-34 2-33 10-28 13-20 17-19 25"/>
<path d="M-207 29320l-6-25-12-21-17-21-26-12-28-3-25 3-23 8-23 12-23 15-22 21-21 24-18 22-15 20-9 26 12 22 27 3 31-3 27-5 27-3 29-6 29-3 26-3 28 0 25 13 12 21 0 26-6 24-11 26-16 28-18 24-22 21-25 17-28 11-25 9-27 5-24-1-29-10-21-14"/>
<path d="M-138 29494l 23-13 23-11 25-7 25-6"/>
<path d="M-92 29473l-19 22-7 27-3 25 3 27 7 25 25 8 21-16 23-17 24-15 25-11 24-2 21 12 5 24-2 24-6 28-12 24-18 24-22 18-27 12-28 7-29 4-26 1-25-5"/>
<path d="M251 29327l 22-13 24-5 25-4 25-3 24 4"/>
<path d="M284 29416l 23-10 26-2 25-2 28-1"/>
<path d="M631 29156l 18-20 27-6 25 0 24 0 25 2 24 6 27 12 17 18 9 26 2 26-4 32-5 23-9 26-9 26-12 25-13 25-14 25-16 25-20 25-21 24-23 24-22 23-22 22-22 19-18 16-25 20-23 16 25-2 28-7 23-5 26-4 26-6 26-4 25-3 30-1 28 1 28 5 25 4"/>
<path d="M-259 30168l-23-9-30 0-26 4-27 7-25 12-25 16-21 16-21 18 7 25 23 10 24 5 30 5 26 2 29 4 27 5 26 7 22 9 25 16 18 19 11 23 1 27-14 28-17 20-21 19-25 14-30 10-33 5-24 2-33-2-33-3-27-6-25-9-25-13-3-24"/>
<path d="M-98 30420l-13 23-11 26-9 25-6 31-3 25 1 31 7 30 13 25 21 17 26 3 25-7 20-20 10-23-13-24-23-8-26 0-25 5"/>
<path d="M127 30284l 21-13 27-8 25-9 25-6"/>
<path d="M163 30344l 24 6 26-1 29-3"/>
<path d="M679 30010l 6 24 6 33 3 33 2 26 2 28 1 28 2 31 2 30 2 30 0 29 2 29 1 27 2 25 3 33 2 28 5 29 3 24"/>
<path d="M-252 31106l-6-26-10-25-21-18-27-8-27 1-24 5-24 11-22 16-21 20-20 24-18 24-11 24-7 26 9 26 23 13 27 6 26 0 29 0 30 0 30 0 28 0 25 3 27 7 24 13 12 25-6 25-11 24-18 27-21 25-25 21-26 17-29 11-30 8-30 1-27 0-30-4-24-6"/>
<path d="M-138 31384l 28-3 28-4 28-3 27-4 25 3 3 26-7 26-10 29-8 24-10 26-8 26-7 24-5 24"/>
<path d="M199 31074l 23-13 26-3 25-3 25 1"/>
<path d="M194 31186l 28-9 28-4 29-3 27 0"/>
<path d="M645 30891l-8-24-16-22-25-3-25 15-18 20-14 20-15 24-14 31-13 35-11 42-9 47-6 48-2 25-2 24-1 47 3 40 7 35 8 28 11 23 19 23 22 14 24 8 26 2 28-6 29-15 20-13 22-17 21-21 20-23 19-25 16-26 14-25 12-26 9-24 8-35-1-31-9-29-14-25-19-20-23-16-27-14-29-12-28-13-27-11-26-11-23-8-27-7"/>
<path d="M-203 32073l-19-17-21-15-23-9-27-6-31 0-25 3-24 6-26 11-20 13-15 22-5 25 15 19 22 9 30 6 27 4 28 3 29 0 27 2 29 6 21 13 13 26-4 28-9 25-14 25-18 22-21 18-23 12-25 8-25 1-27-3-26-7-26-8-24-10-22-11-20-15"/>
<path d="M-16 32264l-14-20-20-16-25-5-22 10-18 17-14 20-6 24 15 24 24 12 25 8 27 6 27 7 25 9 20 13 10 22 0 25-10 26-16 23-20 16-27 10-25-2-25-12-16-21-1-29 8-28 11-23 15-27 16-28 20-25 19-20 21-21 20-16"/>
</svg>
