<svg xmlns="http://www.w3.org/2000/svg" viewBox="3062 2531 13896 13168" stroke="black" stroke-width="20" stroke-linecap="round" stroke-linejoin="round" fill="none" data-xena="-1 -2 0"><style>@media(prefers-color-scheme:dark){svg{background-color:black;stroke:white;}}</style>
<path d="M3317 3211l 6 27 6 31 5 32 4 28 3 33 3 35 1 24 1 24 1 26 0 27 0 27 1 26 0 24 1 32 1 27 3 25"/>
<path d="M3852 3227l 17-20 24-15 22-11 25-11 25-7 24-8 24-8 31-4 30-2 29 3 25 5 25 13 15 20 2 28-8 24-16 23-22 27-18 18-19 19-21 20-25 22-25 22-28 22-28 22-30 23-30 22-26 21-25 22-20 19-19 24-11 21 11 22 31 9 24 1 30-4 30-7 27-8 26-8 25-8 28-9 26-7 28-9 30-10 29-12 29-10"/>
<path d="M4574 3157l 22-14 26-9 29-6 28-5 29-4 28 1 27 1 26 2 27 4 22 12 11 23-13 23-19 18-21 18-18 17-13 21 9 24 24 13 27 7 24 8 25 8 22 10 19 15 12 22 1 27-9 24-19 23-17 17-21 17-22 17-24 15-22 13-24 11-23 7-25 7-26 5-24 3-30 0-28-8-13-21"/>
<path d="M5804 3311l 26-2 25 4 25 0 32 1 26-1 29-1 27-3 28-2 30-2 30-4 30-4"/>
<path d="M6061 3219l 27 0 25 2 24 3 26 6 28 9 24 7 26 12 21 13 16 20-3 26-20 19-24 17-23 15-24 14-24 13-22 14-21 11-23 13-21 12"/>
<path d="M7407 3096l 6 23 4 26 4 30 2 25 2 27 0 32 3 34 1 34 1 36 2 34 0 31 0 28"/>
<path d="M7958 3182l 24-8 26 0 28 0 30 1 25 1 25-1 31 3 25 9 26 9 17 21 4 28-10 27-17 26-20 21-25 21-27 22-20 15-19 16-28 22-23 20-20 17-19 20-6 24 19 16 24 3 32-4 30-3 25-4 27-8 28-9 28-9"/>
<path d="M8921 3158l 24-12 26 1 29 2 30 3 30 6 28 7 24 8 12 24 0 25-13 28-17 23-17 18-23 20-24 17-22 16-20 16 14 21 27 9 31 4 29 2 30 6 23 6 27 8 26 10 21 15-4 24-25 13-25 10-25 12-32 12-34 10-29 9-25 9-24 7-30 6-25 2-25-5"/>
<path d="M4310 4614l 9-23 23-12 28-10 28-6 30-4 30 0 30 1 30 4 28 3 27 5 28 10 23 17 12 20 1 28-10 29-16 27-18 31-16 22-16 22-17 23-19 22-20 23-19 22-20 21-20 20-20 21-19 20-16 21-20 25-14 21-12 23-1 25 24 13 30-4 24-5 27-8 27-8 29-10 28-9 31-9 32-11"/>
<path d="M5125 4491l 20-17 27-3 29 0 31 1 29 5 28 9 22 13 13 22-7 25-19 22-18 16-20 16-21 17-19 16-15 19-3 25 21 18 28 10 30 6 27 3 28 0 31 2 30 2 26 4 26 11 20 14 14 22 6 23 0 25-7 27-11 22-19 22-20 17-26 17-28 17-30 16-30 15-29 13-28 12-27 9-24 4-22-10"/>
<path d="M5979 4694l 27 0 25 2 26 1 24-1 32-1 26-3 26-1 25-4 25-4 26-6 25-5"/>
<path d="M6263 4573l 28-6 27-2 25 0 29 1 28 3 24 6 25 6 22 12 15 20-11 22-19 19-18 17-22 18-19 17-21 16"/>
<path d="M7600 4356l 15-20 24-7 25-4 26 1 27 6 23 8 24 10 22 13 21 14 20 19 12 25-3 27-9 23-14 20-18 21-22 22-25 21-26 19-28 20-28 19-27 19-26 18-23 17-18 17-17 17-13 21 16 21 23 9 26 5 24 1 24-1 25-2 29-5 27-7 30-6 31-5 29-6"/>
<path d="M8418 4412l 20-15 27-4 24-2 27-1 29 2 33 3 25 4 26 5 29 8 25 11 20 19 11 25-4 27-15 19-22 20-20 17-25 18-27 17-31 19-30 17-30 17-28 17-22 15-23 18-16 19-10 22 18 21 25 9 31 4 27 0 27-1 30-2 30-3 30-3 27-3 26-4 27-4 24-3 30-3"/>
<path d="M7128 4419l-23-9-9 23-5 28-7 26-4 26-7 27-6 28-6 27-6 28-7 25-3 28-6 28-3 26-5 26-3 24-4 30 3 24 8 25"/>
<path d="M3401 6136l-8-27-11-22 0 30 1 32-1 29 1 32-1 35-1 26-2 27-1 27-1 27 0 27-1 27 0 26 0 34 2 30 4 24 8 24"/>
<path d="M4071 6103l 5 30 3 24 3 26 3 30 1 32 2 34 1 25 2 25 1 25 2 25 3 25 2 26 2 26"/>
<path d="M4957 6063l 7-23 28-4 24 0 29 0 33 0 25 0 34 3 29 4 27 4 28 9 23 14 10 24-14 24-20 18-21 15-24 14-23 15-21 12-23 13-17 19 26 9 29 0 24 0 26 0 24 3 31 7 27 7 28 8 24 11 20 17 9 26-10 29-22 26-23 19-27 22-22 16-22 13-23 14-23 12-23 11-23 10-31 11-27 9-27 4-23-9"/>
<path d="M5855 6141l 11-22 28-7 25-3 24-1 27 0 30 0 31 0 28 0 30 0 28-3 29-4 27-5 25-5"/>
<path d="M6115 6031l 23 9 27 6 29 5 28 7 25 9 24 12 18 19 3 25-10 22-15 19-18 18-23 20-25 19-25 17-26 14-23 12"/>
<path d="M7015 5938l-5 27-3 31-3 29-3 30-2 31-1 31 2 32 1 31 0 30 0 29 1 28 0 28 0 26 1 31 1 26"/>
<path d="M7684 5911l 10 25 7 27 3 24 7 25 7 26 7 27 6 26 6 26 5 26 3 25 0 30 0 30-3 26-2 28"/>
<path d="M8503 5849l-8-23 27-13 28-6 24-3 27-4 28-2 25 0 28 3 24 3 27 6 27 10 24 14 17 17-2 27-17 22-24 19-20 14-24 19-22 17-19 17-2 24 27 9 26 6 25 8 24 9 25 10 27 13 23 15 19 15 15 21 13 24-3 26-18 21-23 13-25 10-28 6-32 6-29 4-30 2-30 1-30 1-28-1-27-1-28-6-25-7-23-10-24-11"/>
<path d="M3499 7312l-6 26 2 30 1 24 2 27 3 29 2 28 2 29 2 30 1 28 2 29 0 28 2 26 4 34 6 26 15 22"/>
<path d="M3991 7291l 23-13 25-7 31-7 29-5 31-4 30-4 31-2 29-2 26 0 26 2 30 6 26 11 17 17 4 25-5 24-11 22-16 25-22 26-25 26-25 24-20 17-19 16-20 15-26 21-21 17-17 18 15 21 27 3 32-5 31-8 23-7 36-11 25-8 23-8 26-6 26-7 26-6 28-6 28-6 27-6 30-5"/>
<path d="M5017 7160l 9-23 28-9 28-2 30 1 29 6 24 7 24 9 24 19 16 23 8 27 0 27-8 28-13 21-16 21-23 22-23 24-18 16-19 16-19 17-21 16-29 22-27 20-24 18-20 16-21 16-14 20 22 11 30-3 25-3 25-5 31-6 34-8 35-7 24-7 25-6 28-6 27-5 28-4 27-4"/>
<path d="M5799 7352l 20-14 32-3 31-3 26-3 28-4 32-4 35-4 24-3 24-4 35-4 32-5 30-5"/>
<path d="M6096 7228l 27 2 28 3 28 4 26 3 26 7 23 9 18 17 9 23-15 21-18 16-19 18-21 17-21 18-23 18-23 17-22 15"/>
<path d="M6795 7157l 20-18 26-7 24-5 28-3 28 1 30 3 29 6 28 9 25 9 20 15 14 23-5 24-14 21-16 18-23 20-25 22-20 14-20 15-23 16-22 15-23 15-23 15-22 14-28 19-22 15-18 19 2 24 25 10 29 1 24-1 28 0 26-2 28-3 27-4 29-3 29-4 32-4 32-5 32-5"/>
<path d="M7580 7138l 17-18 25-1 25 2 25 2 25-2"/>
<path d="M7552 7179l-2-24 21-15 23-13 25-12 26-11 26-8 26-3 25 1 26 6 25 10 21 13 4 24-22 19-27 13-27 11-31 10-24 7-34 11-32 11-27 9-28 11-23 10 26 2 26-5 27 0 25 0 25 3 28 3 24 4 32 6 24 5 31 7 28 8 22 11 23 16 20 18 11 25 1 28-17 22-24 18-21 13-26 12-27 12-30 10-29 9-31 6-31 4-28 3-24 0-31-2-25-4-28-8-23-9-22-11"/>
<path d="M12691 3793l 24-11-18-16-19 16 25 4 18-16-2-24-23-8-24 11-8 24"/>
<path d="M13255 3728l 23-9-15-21-24 5 3 25 25 8 26-3"/>
<path d="M13814 3667l 23 8 20-13 3-24-25-8-23 6-9 24 22 12 23-6"/>
<path d="M13344 3200l 10-23-15-19-17 19 16 19 25 9"/>
<path d="M13900 3094l-23-8"/>
<path d="M13991 2696l-25 3-11 22 5 23 22-11 7-23-18-19-23 7-3 25"/>
<path d="M12243 5761l-14-20 25 2-16-20-26-1-22 11-17 23-11 25-7 23 2 24 15 22 26 9"/>
<path d="M12206 5742l 24-4 25-4-15 22-23-7-27 7-23 15-13 21-9 23 22 12 22-12 20-16 4-24 14 19"/>
<path d="M12857 5690l-22 11 20 15 24-10-24-12-26 4-15 19 15 21 23 10"/>
<path d="M13384 5696l-24 6-12 22 21 13 26-7 24-11 13-21-21-16-25-1-12 23 2 25 21 16"/>
<path d="M13963 5687l-24 2 1 25 25-2 24-9 17-17-23-13-25-5-19 15 2 24 17 18 27 2"/>
<path d="M14490 5627l-26 1-10 22 23 13 25 3 25-2 23-8-12-21-21-12-25-5-16 22"/>
<path d="M12183 6405l-23-8-7 23 22-13-3 25"/>
<path d="M12806 6376l-24-2-17 19 17 19 22-9"/>
<path d="M13324 6366l-25 1-16 19-1 25 25 7 24-9 7-23-24-8 11 24"/>
<path d="M13993 6326l-21-13-18 18-9 24 26-4 23-13"/>
<path d="M14472 6267l-23-11-22 9-16 23-4 26 16 19 25 1 25-8 26-9 18-17 0-25-24-9-19 16-12 21"/>
<path d="M12777 6904l-22-11-19 17-11 23 14 21 25-2"/>
<path d="M13403 6863l-17 17-11 22 22 12 23-10-19-16-22 9 7 25"/>
<path d="M13906 6831l 2 24 24-1"/>
<path d="M14468 6811l-25 0-13 20 24 7"/>
<path d="M12081 7703l-8-23-18-16-13 20 16 20 24 1"/>
<path d="M12685 7617l-2 24 23-7-13-21 12 22"/>
<path d="M13436 7567l-23 9-11 22-2 24 24-1 18-18-4-25-3 25"/>
<path d="M14198 7498l-25 4-24 4 23 8"/>
<path d="M14533 7438l-16 19 24 5 20-13-9-22-23 9 1 25 25 0"/>
<path d="M11806 8478l 8-25 22-14 25-7 26-1 16 19-7 25-14 23-15 20-15 23-13 22 23 6 24-2 25 2 25 7 23 14 15 22-1 24-12 26-17 22-20 20-23 19-27 14-25 9-28 5-24-1-22-12"/>
<path d="M12577 8412l-7 23 1 27-6 27-13 26-10 24-8 25-7 25-2 25 10 22 24 11 29-1 25-4 29-9 29-11 22-10 23-11 22-13 23-12"/>
<path d="M12661 8545l-14 21 6 24 6 24 6 26 10 22"/>
<path d="M13278 8418l-15 23-12 22-12 25-10 26-5 26 9 23 24 7 26-1 28-3 24-7 24-8 25-12 21-12 21-12"/>
<path d="M13388 8465l-15 20 0 25 7 27 7 27"/>
<path d="M14024 8358l-20 15-10 26-9 26-6 24-4 26 7 25 24 14 25 5 24-2 29-7 29-7 27-8 26-11 27-12"/>
<path d="M14135 8412l-19 15-1 25 2 26 7 26 9 27"/>
<path d="M14512 8288l 3 27-3 26-2 27 6 25 13 22 24 12 24 5 29-1 29-5 25-7 23-7 29-10 24-10 21-15"/>
<path d="M14672 8333l 3 27 7 25 7 28 5 26 5 28 5 27 4 29"/>
<path d="M11842 11897l 17-20 9-23-24-7-7 24 22 15"/>
<path d="M12549 11815l 20 14 6-25-21-14-23 12-17 19"/>
<path d="M11910 11112l-8 23 6 24 23-14 7-23-8-24"/>
<path d="M12605 11125l 4-24 9-23-21-14-20 13 4 25"/>
<path d="M11747 12349l 8-26 25-16 24-9 26-7 28-3 24 2 20 15 5 24-2 25-7 25-12 25-18 23-17 19-21 17-25 17-25 14-23 12-24 13-23 14 27 6 25-3 30-6 27-7 29-7 32-6 30-9 31-8"/>
<path d="M12470 12179l 24-11 28-6 28-4 25 0 27 3 26 9 22 11 12 22-6 24-16 26-18 19-20 21-22 19-21 17-22 20-18 18 23 10 26-4 25-3 25-5 30-6 32-7 26-7 25-4 28-1"/>
<path d="M16170 8310l 20-14 23-9 26-5 26-3"/>
<path d="M16211 8360l 23-14"/>
<path d="M16525 8162l 18-18 25 1 25 2 27 7 23 10 1 25-17 18-18 16-20 15-21 13-19 16 25 3 29-6 27-3 27 0 24 3 26 6 28 12 25 15 19 17 14 24-1 28-12 27-17 20-19 16-24 12-24 10-28 6-26 5-29 2-29 1-29-1-28-2-25-4-28-4-24-6"/>
<path d="M15425 12039l 22-13 28-6 28-8 27-6 27-4 30-6"/>
<path d="M15484 12086l-23 5 25-9 26-7 27-6 32-6"/>
<path d="M15927 11934l-19 16-17 17-16 21-11 23-6 28 2 29 9 30 12 23 18 20 22 16 23 11 25 7 30 0 33 0 31-4 31-6 26-11 26-16 22-18 17-22 12-29 6-27-3-25-12-24-20-23-23-22-24-20-21-14-26-16-24-14-23-9-29 0-26 8-22 16-17 21"/>
<path d="M11719 14820l 6-25 1-25-23-12-25 1 16 21"/>
<path d="M12324 14806l 8-23-20-13-21 11 20 15 25 3"/>
<path d="M12876 14751l"/>
<path d="M12884 13635l 24-3-7-25-24-1-19 16-4 24"/>
<path d="M12398 14138l 20 14"/>
<path d="M12898 14101l 20 14 14-19-20-13"/>
<path d="M11592 15296l 8 27 6 25 9 25 7 28 3 24 2 26-1 26-2 24 0 29"/>
<path d="M12245 15265l 25 2 27-4 24-2 28 4 22 10 7 25-10 25-14 20-17 22-20 24-20 22-20 23-15 23-14 20-14 22-6 23 24 8 26-5 27-7 25-8 27-9 24-6 25-8 26-9"/>
<path d="M12809 15208l 13-22 23-9 27-8 27-4 25 1 18 19-5 25-14 23-10 23 22 13 28 1 26 3 24 2 25 3 28 7 23 8 21 13 12 22-2 26-8 23-17 21-19 21-25 17-24 12-21 12-27 11-26 5-27-2-25-12"/>
<path d="M15533 14651l 27-5 31-5 25-4"/>
<path d="M15527 14749l 26-2 29-7 31-8 27-6"/>
<path d="M16236 14512l-23 8-23 17-17 20-17 27-10 26-8 26-6 28-7 31-1 32 2 33 8 32 10 30 16 25 18 20 21 18 24 13 24 12 25 6 24 3 26 0 31-3 25-5 25-7 25-12 22-13 24-16 20-19 19-21 15-22 14-23 9-30 1-25 1-24-7-29-12-28-13-25-15-24-17-20-16-22-20-21-21-20-16-18-19-18-22-14-25-6-25 3-26 10-18 16"/>
<path d="M3336 9091l 17 23 2 26 0 33 0 26 0 28 1 31 0 33 0 34 0 33-1 33 0 33-2 31-1 30 0 25 0 27 3 26"/>
<path d="M3745 9097l 27-11 27 2 32 5 26 5 28 6 27 9 24 13 18 16 15 19 9 31-2 26-9 31-10 22-12 23-16 24-20 25-21 25-24 25-26 25-27 24-25 24-25 20-20 19-22 19-18 19 25-5 23-10 27-10 28-10 29-8 27-7 26-7 26-5 27-2 25 7 20 17 13 23"/>
<path d="M4343 9121l 11-21 28-6 27-2 30 2 28 4 25 8 20 16 4 27-13 29-16 25-23 25-24 24-25 22-23 19-20 14-21 13 23-14 28-11 25-8 27-8 29-4 29-2 28 3 25 7 28 16 20 20 11 24-1 29-8 23-13 25-18 27-25 25-19 17-20 14-21 12-30 15-30 9-27 4-31 0-27-5-17-21"/>
<path d="M5210 9273l 29 1 32-2 28-3 29-4 30-4 31-5 29-6 27-6 24-7 28-6"/>
<path d="M5399 9183l 26 6 24 2 29 1 29 2 28 5 22 12 13 24-5 25-12 24-19 24-17 19-19 17-20 16-25 17-22 10"/>
<path d="M6481 9145l 4-25 17-19 22-12 24-9 26-4 28-1 30 4 30 6 26 11 22 14 17 19 8 24-3 28-8 25-14 27-18 26-16 19-19 18-20 20-22 19-23 18-24 17-23 16-23 15-22 13-27 17-21 14-21 13 21-16 29-10 26-7 28-6 29-5 28-3 29-2 26 0 25 0 25 2 24 5"/>
<path d="M6944 9104l 19-16 26-10 27-5 30-2 32 2 27 4 25 6 23 8 22 14 17 20 8 24-2 24-10 28-12 21-16 22-20 22-23 22-26 22-26 20-27 20-25 18-24 16-22 14-27 17-24 16 29 6 30-4 32-3 30-1 30 0 31 1 29 3 24 3 27 5 25 9 24 13"/>
<path d="M3381 10615l-21-14-27-5-26 12-19 18-19 25-18 30-15 33-9 30-5 25 3 26 23 11 22-15 20-22 22-26 21-28 17-24 13-22 1 27 3 28 10 25 17 18 28 7 28-6 22-13 19-20 14-20 12-26 14-33 9-25 7-26 7-29 5-30 5-31 3-32 1-34 0-38-1-38-3-38-4-37-3-34-2-28-3-34-5-26-20 26-7 24-6 30-6 32-4 36-2 36 0 39 1 40 4 41 5 39 5 37 8 33 10 28 9 22 16 23 20 17 28 0 26-21 20-30 13-27 11-30 12-34 9-36 8-35 7-37 3-38 0-36-2-35-6-35-7-35-9-33-8-30-8-25-10-26-17-19-17 23-8 26-7 33-3 28-3 30-1 34 0 37 2 38 3 40 4 40 6 38 6 35 7 34 8 30 7 26 8 24 11 30 12 24 20 23 25 10"/>
<path d="M4178 10670l 24 6 24-11 20-19 16-22 11-25-3-25-18-18-25-2-26 10-20 22-14 23-12 28-10 31-6 31-2 30 2 27 10 28 19 18 29-2 22-12 25-21 25-27 15-19 20-27 14-23 11-26 1-26-11 24 4 28 10 31 10 24 13 24 13 21 18 20 25-2 13-28 7-25 5-29 2-30-2-30-3-26-6-30"/>
<path d="M4524 10686l 26 3 20-14 19-22 14-21 6-25-19-15-26 2-24 12-18 22-12 24-8 28-3 29 3 27 10 22 25 16 25 3 26-5 26-14 21-16 19-17 21-23 15-21 6-26-10 24 2 29 4 25 10 22 24-8 9-23 10-30 8-23 10-24 13-22 23 14 11 25 6 25 6 25 5 26 6 25"/>
<path d="M5121 10412l 23-9 24-5 29-4 27-4"/>
<path d="M5139 10476l 28 2 27-5 25-5 28-8"/>
<path d="M5216 10288l 20 17 24 13 22 10 23 10 27 11 25 12 20 15 9 26-9 27-12 22-16 23-18 23-17 19-19 17"/>
<path d="M5777 10746l 28 1 23-8 29-15 24-18 26-25 18-20 18-23 17-26 16-28 16-30 15-31 14-31 13-32 11-32 9-33 7-32 5-31 2-30 1-29-2-27-2-26-4-24-5-31-7-24-9-23-25-1-14 25-10 30-8 25-5 28-7 32-6 34-5 37-5 39-4 38-1 37-1 35 2 33 2 28 3 28 6 24 9 30 13 25 22 22 27 14"/>
<path d="M6197 10538l-24 14-12 24-8 24-4 27 1 27 8 28 21 18 28-3 21-20 15-23 9-23 2-27-8-22-19-20-23-13 19 15 24-11 21-13 21-16 19-17 18-22 12-23-10 22 1 29 9 24 16 22 18 23 16 22 13 23 8 23-3 30-13 24-20 15-23 7-24-1-24-9-14-20 4-25 14-22 19-17"/>
<path d="M6428 10588l 22 14 24 10 27 0 25-10 21-14 20-19 13-22 4-24-21-16-26 0-25 12-21 20-13 22-5 25 2 24 13 24 16 19 22 15 24 9 27 2 29-4 24-4"/>
</svg>
