<svg xmlns="http://www.w3.org/2000/svg" viewBox="942 1852 17510 41574" stroke="black" stroke-width="16" stroke-linecap="round" stroke-linejoin="round" fill="none" data-xena="0 -11 0"><style>@media(prefers-color-scheme:dark){svg{background-color:black;stroke:white;}}</style>
<path d="M1375 1984l 0-1 5 26-2 26-4 31-4 25-6 26-3 28-4 29-2 31-3 32 0 32-4 32-1 30 0 27-1 30 2 24 5 25"/>
<path d="M1963 2025l-1-1-1 29 1 26-1 31-1 27 0 30 1 31-1 34-2 33 0 30-3 28 0 28 0 27"/>
<path d="M2741 2035l 1-2 13 24 1 30-1 26 0 30-2 26-3 28-7 25-4 29 0 24 0 28-1 27 1 24"/>
<path d="M3548 1956l 0-1-2 28-3 31-3 30-3 32-3 31-6 32-3 25-1 24-3 30 0 27 0 29 4 27 9 25"/>
<path d="M1353 3133l 0-1 18 19-1 30-5 32-7 26-5 29-5 29-6 30-4 29-4 28-4 27-1 26-6 29-6 28-1 25 0 24"/>
<path d="M1874 3099l 1 0 6 27 2 28 3 28 2 31 0 25 0 29-3 32-3 34-3 35-8 35-5 35-5 32-4 27 1 25 1 24 4 25"/>
<path d="M2652 3111l 0-2 8-22 25-9 25-6 24-6 28-2 27 2 27 3 25 5 25 10 25 12 23 14 23 19 21 21 13 20 8 25-3 27-9 25-14 28-15 22-19 23-20 24-23 24-23 26-26 25-19 17-27 22-25 17-26 17-22 13-23 11-25 9 25-12 28-4 26-3 30-4 26-2 31-1 27 1 26 0 26 3 24 3 27 6 24 7 23 9"/>
<path d="M1435 4353l 1 0-7 25 0 31-2 32-3 25-1 26-4 25-3 25-2 25-1 26-4 28-3 27-1 25-5 25"/>
<path d="M1958 4290l 0-1 20-15 23-9 28-11 26-6 29-6 29-4 28-5 26-4 26 0 26 2 23 8 2 24-13 24-18 17-19 22-19 15-24 15-22 16-23 14-21 15-25 12-23 13-21 12 23-9 26-3 29-2 24-1 26-1 25 1 27 2 28 4 25 5 29 5 25 6 23 9 20 16 16 21 9 25-2 25-10 27-13 26-16 26-18 25-16 18-19 15-21 15-21 13-25 11-26 10-25 7-25 4-26 3-25 0-32-2-27-2-27-5-24-10-22-10-20-15"/>
<path d="M1322 5378l-1-1 9-24 22-14 22-9 27-7 24-3 28-1 25 4 25 10 19 15 16 23 10 23 3 28-6 29-16 28-13 22-14 22-18 25-20 26-23 24-22 21-24 20-21 18-21 16-24 17-21 14-24 16-20 14 25-2 24-11 23-11 27-11 29-10 28-8 24-6 25-2 24-2 27 2"/>
<path d="M2053 5293l-1-1 20-17 23-5 26-1 27 0 29-1 30 2 26 3 26 8 21 15 12 24 0 25-10 26-10 23-14 27-15 27-20 25-22 25-23 24-23 23-22 22-22 20-23 17-24 13-25 11-25 15-22 10 27-8 26-3 27-2 28-2 29 0 29-1 28 1 25 3 25-1 24-2 29 3 25 3"/>
<path d="M1484 6149l 0 0-3 24-8 28-15 25-17 29-21 25-19 29-14 21-14 20-14 21-13 20-19 27-16 26-13 22-13 28-8 25-1 25 16 19 25 4 28-1 27 0 29-3 30-7 25-6 24-5 27-7 28-9 28-8 30-8 30-6 27-6 29-7 26-6"/>
<path d="M1619 6389l-1-1-1 30-1 26-2 32-2 33 0 33-2 34-1 33-2 32-2 34-2 31-1 28-1 29-2 27-2 25-1 25"/>
<path d="M1044 2290l 0-1 14-21 25-9 25-6 31-5 28-3 32-4 33-6 35-3 28-3 27-3 30-3 31-3 32-2 34-2 35-2 36-2 38-1 40-1 43-1 43-2 44-1 45-2 47 0 47-1 24 0 25-1 47-1 25 0 25 0 25 0 26 0 27-1 26 0 28-1 28-1 29 0 29 0 29-1 29 0 30 0 30-1 30-1 31 0 31-1 31-1 32-1 34 0 34-2 33-1 34 0 34-1 34-1 35-1 33-1 35 0 35-1 34-1 35 0 36-1 34 0 35-1 35-1 36-1 35 0 35 0 36 0 35-1 34 0 34 0 34 0 32 0 34 1 32 0 31 1 32 1 33 1 31 1 32 1 30 1 29 1 31 2 29 1 28 1 28 2 28 1 28 2 27 1 26 1 25 1 25 1 25 1 25 1 47 3 47 2 43 4 41 3 39 2 35 3 33 2 30 2 28 2 25 2 33 2 27 3 25 4 27 5"/>
<path d="M7531 3067l-1-1-24 6-18 22-15 22-13 24-14 28-13 32-12 34-10 34-6 35-3 34-1 31 0 34 4 30 6 27 12 29 18 25 20 21 25 16 30 12 25 7 26 2 27-3 27-3 26-6 24-7 27-13 21-15 18-21 5-25-13-27-18-20-25-16-27-10-27-2-27 3-26 6-22 12-21 14-23 16-18 17-12 23"/>
<path d="M7519 4239l-1-1-25 5-12 27-12 29-8 24-6 29-7 34-6 36-6 38-3 38-3 36-3 36 0 33 0 33 1 31 2 28 3 26 5 25 10 32 12 25 17 26 22 20 26 15 30 7 25 1 28-4 26-8 24-11 22-13 19-17 18-19 10-22-10-23-22-20-21-12-25-10-25-7-30-2-26 2-23 6-22 13-20 17-17 18-11 25 2 24"/>
<path d="M7351 6471l-1-2-1-25 15-18 21-16 22-12 26-11 23-8 28 0 28 3 25 6 26 13 23 12 19 16 18 16 7 24-15 22-19 20-22 18-24 17-26 17-26 14-28 14-28 14-28 15-23 12-23 12-21 13 20 15 29-6 28-6 25-4 25-2 26-3 27-1 25-2 31 2 26 3 25 4 24 9 21 14 14 23 3 26-6 25-10 27-10 24-13 25-14 25-19 26-20 24-23 23-22 19-20 14-27 15-28 9-27 6-27 1-27-5-25-11-22-14-19-18-11-22"/>
<path d="M1508 8050l 0-1-4 24-1 28 0 25-3 27-3 31-3 35-3 26-1 27-2 27-2 28-4 30-3 28-1 27-3 26-1 25-2 26-2 27 0 26 0 35-1 30 0 29 0 24 0 27 2 26"/>
<path d="M2954 8121l 0 0 3 28 2 27 0 25 1 29 2 32 2 26 1 24 3 24 1 30 2 29 1 27-1 25-1 28-4 25"/>
<path d="M2243 7907l-2-1-5-24 2-27 13-28 10-22 16-26 18-24 17-19 21-19 25-18 29-20 21-13 22-13 24-14 26-14 27-13 29-12 31-11 35-11 36-10 37-10 39-8 40-8 43-5 41-3 39-1 39 1 39 1 39 5 37 4 38 8 37 8 35 10 35 11 31 9 33 12 33 12 30 13 30 15 26 16 25 16 22 19 20 17 19 18 17 20 16 20 14 19 13 21 19 28 16 27 13 26 7 23 8 23 10 29 5 23 6 25"/>
<path d="M2190 8116l 0-2 14-21 24-8 24 1 23 9 14 22 6 24-6 24-13 26-16 26-15 22-17 24-17 24-13 21-19 23-15 21 19-16 21-19 22-13 23-12 24-5 25 3 18 16"/>
<path d="M3565 8174l-2-1 23-9 26 0 25 1 24 1 25 4 24 8 23 13 9 24-14 26-20 22-19 17-21 18-20 15-20 16-22 19-18 16-20 14 24 10 24 6 26 2 27 1 24 4 27 1 24-2 22 10"/>
<path d="M7454 8058l-1-2 12-24 22-10 25-9 25-10 26-1 28 3 24 6 24 7 24 11 20 16 0 27-13 22-23 23-24 18-28 19-30 18-31 18-32 13-28 12-26 10-29 9-23 8 28 5 26-4 30-5 25-4 29-7 30-5 30-5 31-1 28 0 25 3 24 8 21 12 20 21 16 21 9 24 3 29-6 32-10 24-13 25-17 27-19 23-19 22-19 16-21 13-29 10-24 7-25 4-24 5-25 1-32-1-29-8-25-9-22-11-22-14-16-18-6-23"/>
<path d="M9493 8239l 1-2 9-25 7-25 3-24-6-25-26-5-25 11-21 17-17 17-18 22-17 22-15 23-14 27-12 23-10 30-2 26 5 25 22 18 25 1 28-10 20-13 19-16 17-20 16-21 12-22 10-22 10-26 2-25-21 17-5 25-4 24-1 25 7 24 12 21 22 11 25 2 25-5"/>
<path d="M9747 8287l 0 0 24 3 24-4 24-9 26-18 22-17 22-20 25-26 16-18 15-20 16-21 13-21 13-22 15-32 12-32 6-31 2-32-2-33-4-31-7-29-7-25-11-23-15-23-24-4-16 26-7 25-7 32-5 36-3 24 0 28 0 30 0 29 3 30 1 27 4 28 5 27 5 26 6 23 8 33 10 28 9 26 13 26 14 21 19 17 22-13 5-24-3-25-8-25-11-22-16-18-17-16 25 9 24 4 26 5 28 2"/>
<path d="M10421 8144l 0-1-14-21-24-2-25 9-21 11-23 15-19 19-17 19-13 21-6 26-2 25-2 24 6 25 10 22 17 17 19 17 22 12 21 13 23 5 26-5 25-9 23-12 20-13 21-14"/>
<path d="M10587 8303l 0 0 25-2 24-15 22-22 19-20 19-22 19-23 17-24 19-27 17-29 15-30 12-32 9-33 5-35 2-25 1-34 0-28-4-29-6-27-26-7-21 19-14 22-18 28-11 22-10 25-10 28-7 29-6 30-3 33-3 33 0 34 2 33 4 30 5 31 8 28 8 27 9 26 16 28 19 27 21 20 23 12 31 9 28 2 24-8 18-18 14-22 1-25-6-26-10-24-12-25-16-25-17-21-23-20-22-11-27-7-25 4 18 18 30 2 32-2 28-3 27-3 26-2 27-3 26-2"/>
<path d="M11331 8127l-1-1 24-10 29-8 25-8 26-9 23-5 25-5"/>
<path d="M11323 8201l 0-1 22-13 26-8 25-5 24-6 27-4"/>
<path d="M11950 8141l 2-2 9-22-25-9-25 11-24 15-19 15-18 18-20 21-16 23-10 24 2 25 14 22 23 9 26 4 31-3 27-5 30-7"/>
<path d="M12107 8229l 0 1 27-6 25-13 22-13 25-19 19-15 21-18 21-17 21-18 19-18 19-19 17-19 15-21 16-20 19-30 12-31 7-32 3-30 0-29-3-28-10-25-25-9-25 11-20 19-17 21-17 27-18 31-9 23-11 23-10 25-7 26-9 27-6 29-7 29-5 30-2 28 0 27 4 36 7 30 8 25 13 20 20 21 23 13 25 4 27-4 27-9 22-17 15-20 12-26-1-26-6-25-11-22-16-19-18-16-24-6 17 17 29 7 30 3"/>
<path d="M12685 8172l-2-6-7-24-14-22-18-19-27-2-25 12-24 18-22 23-16 20-11 22-8 27-2 27 5 23 19 18 23 6 28 0 25-5 21-10 21-16 14-22 1-25-17 19 11 24 23 13 25 4"/>
<path d="M12839 8194l-1-1 24-1 24-6 27-11 21-12 25-17 26-20 18-18 20-19 19-21 17-20 13-21 12-23 9-23 9-25 5-26 2-30 0-27-9-24-28-2-25 18-19 22-16 32-11 24-9 28-8 29-8 31-6 29-5 29-1 27-1 24 1 33 4 28 7 27 14 27 14 27 23 9 26-5 23-18 13-20 9-24 5-25-6-25-14-20 28-2 26 0 26 3 28 0 27 0"/>
<path d="M1451 9978l-2-2 8-25 27-13 25-12 27-12 28-11 28-11 29-9 26-9 24-6 28-1 23 5 15 23-11 28-17 22-19 26-24 26-24 26-18 17-25 23-24 20-26 18-21 17 26 2 30-5 24-3 26-1 25 1 25 4 26 8 19 15 14 24 0 26-6 24-13 26-13 28-18 25-14 26-16 24-17 23-21 20-20 18-23 14-26 11-26 8-24 5-28 2-28-3-22-9-16-19-5-30"/>
<path d="M1862 9641l 0-1 8 27-3 26-7 28-3 25-8 25-9 27-5 26 7 25 25 10 25-7 25-12 21-13 22-15 21-14"/>
<path d="M1947 9682l 0 0-2 25-3 27 0 28 0 30 0 25-3 26-3 25"/>
<path d="M2527 9897l-1 0-8 26-4 26-2 27 0 29-3 34-4 36-2 26-3 25-1 25-1 26-2 28-2 27 0 28-2 35 0 34 0 28 2 25 4 25 8 25 24 3 25-13 27-15"/>
<path d="M2446 10264l-3 1-24 11 29 8 29-6 27-8 32-10"/>
<path d="M2705 10243l-1 2-10 25-11 25-3 27 8 26 19 18 28 3 25-10 25-16 17-20 8-25-8-23-19-19-24-12-25-4"/>
<path d="M2953 9912l-1 0 3 24-2 31-2 28-3 28-5 26-4 32-5 32-4 25-7 35-4 31 0 27 1 24 1 28 7 27 13 22 25 10 28-10 23-13 26-14"/>
<path d="M2889 10157l-2 1 24-11 32-8 29-6 32-6"/>
<path d="M3197 10123l-1 0-25 8-21 13-22 16-19 19-17 18-12 24 6 23 24 5 26-9 25-13 16-19-20 15-2 24 18 17 26-2 28-10 24-14 19-15 20-20 15-19 16-19 16-20 11-23 9-23 5-26 4-32 1-35 0-25 0-26 2-24-2-25-1-32-5-28-6-30-8-25-23 13-10 28-9 28-5 27-4 31-1 35-1 25 0 25 1 24 1 34 4 32 3 29 4 28 7 25 13 22 14 23 17 21 22 18 23 12 23 11"/>
<path d="M3963 10077l 0-1 25-10 27-9 28-5 23-6 23-6 30-8"/>
<path d="M3991 10128l-2 0 26 6 27-1 31-6 25-6"/>
<path d="M4461 9891l-2-2-18-18-22-11-27 4-24 12-23 19-19 20-16 23-12 22-8 25 1 29 17 22 21 17 24 10 28 6 30 4 32 5 25 2 26 6 24 10 26 11 25 13 18 22-3 29-13 25-16 21-18 22-26 22-27 22-28 15-25 13-25 9-24 4-31-6-26-13-21-22-12-22-7-28-4-31 4-32 4-31 9-27 11-28 13-26 16-25 18-23 18-21 19-17 19-15 24-18"/>
<path d="M4624 9854l 0 0 9 23 10 29 4 25 3 31 1 31 1 34 1 24-1 36 0 24 0 32 2 31 0 33 1 26 1 25 0 25 1 24"/>
<path d="M6227 10297l 1 0 8 26-1 24-5 29-8 31-7 23-8 23"/>
<path d="M6664 10133l 0-3-9-25-20-15-24 1-28 12-26 19-21 23-21 29-13 20-11 22-13 33-7 31-2 27 7 31 15 21 22 10 27-1 28-12 21-17 20-24 15-20 14-23 13-25 13-26 11-29 9-29 7-30 6-28 4-29 3-28 2-28 0-29 0-28-2-28-3-28-3-24-5-35-6-28-6-24-12-21-21 16-8 23-8 30-5 24-6 36-3 29-3 29-2 29-1 33-1 30 0 29 1 30 2 27 3 26 4 28 4 25 8 33 11 26 14 20 20 17 30 7"/>
<path d="M6807 10203l-2 0-15 19 25 6 23-8 24-16 21-20 15-20 1-26-20-21-26-11-29-7-29 3-22 11-19 21-11 25-9 28-5 31-1 30 3 28 5 26 12 28 17 21 22 15 26 4 24-3 26-9 30-13"/>
<path d="M7079 10142l-2-2-19-16-27 2-22 14-17 17-21 24-18 25-16 26-13 24-12 26-5 29 9 26 20 16 29 7 24-5 27-16 24-17 24-22 17-17 15-20 16-20 15-24 14-25 13-25 10-27 6-24 5-37 2-25 0-28 0-28-2-31-1-30-2-29-2-26-4-33-5-26-9-25-25 0-9 26-9 31-6 24-5 27-5 28-4 30-4 33-4 32-3 33-3 34-1 35-1 36 1 33 1 30 4 27 10 33 13 27 19 24 22 13 32 1 24-6 23-12 21-14 19-19 15-20 13-27 6-27 0-26-5-25-25-3-14 26-9 23-6 24-1 26 5 26 19 19 28 0 25-10 22-13 23-21 19-24 12-27 1-27-13-20-21 13-12 26-7 28 0 27 6 25 17 22 27 7 24-9 23-13 22-19 20-24 14-23 10-24 5-27-3-24-22 14-5 24-4 25-2 27-2 32-2 25-3 26-4 27-4 32-4 35-4 27-3 25-6 34-5 30-4 26-4 27 12-21 4-27"/>
<path d="M7434 10229l 1-4 2-27 8-23 21-15 24-14 24-6 27-7 28-4 24 2 22 11 11 24-6 26-13 25-21 24-19 18-19 16-25 18-22 10-25 7"/>
<path d="M7675 10167l 1-1 26-4 24-6 26-9 21-11 14-21-13-20-23-9-27 1-24 9-24 16-17 21-12 23-4 27 5 28 13 26 16 21 25 14 28 5 27-2 29-12 22-12 22-16 22-16"/>
<path d="M7894 9832l-1-1 24-5 24 6 23 5 25 9 20 16 11 22 1 26-9 30-13 29-13 22-15 24-14 25-16 27-15 26-16 25"/>
<path d="M7890 10342l 0 0"/>
<path d="M11760 9065l-1 0 13 20 29-2 25-9 22-11 24-18 27-21 18-17 19-18 20-21 21-22 19-22 18-22 16-20 14-22 11-22 11-31 5-35 1-26 0-26-2-24-6-30-8-23-17-18-28 7-22 21-19 25-18 31-13 24-12 26-11 29-11 29-7 29-8 28-5 29-3 30-2 28-1 29 0 28 3 26 4 25 5 24 11 30 11 27 14 20 21 21 23 10 25 3 25-4 22-17 20-22 15-25 6-28-4-31-6-23-10-25-12-25-18-22-19-15-24-7"/>
<path d="M12333 9027l 1-1 5-25 3-26-3-25-20-16-27 0-28 12-26 17-24 19-22 21-17 21-12 21-8 26-1 27 14 22 22 13 29 2 25-6 23-10 23-13 18-16 17-19 9-24-7-25-17 19-3 24 1 25 8 26 17 19 25 9"/>
<path d="M12440 9109l-1 0 24 7 24-2 25-7 25-9 22-10 23-16 22-21 17-25 14-27 12-24 8-25 8-27 3-25 2-30 1-30 1-33 0-33-1-31-1-25-8-23-23 12-15 26-12 23-10 24-10 27-10 29-7 30-7 34-6 35-2 34 1 32 4 28 7 24 11 28 15 22 18 16 27 8 25-1 26-7 24-12 17-19 4-25-11-25-14-22-14-21-19-16 25 5"/>
<path d="M13045 8919l-2-2-24-7-24-2-24-1-24 10-22 11-18 20-14 20-12 23-9 26-3 25 3 29 8 27 13 25 19 22 22 13 26 9 33 2 25 1 26-4 27-1 28-4"/>
<path d="M11921 9713l 1-2 7-24 6-26 3-25-15-21-25-2-25 8-22 14-25 20-24 22-23 24-18 23-13 24-11 23-8 26 3 25 22 13 25 3 31-8 26-10 24-15 25-17 19-16 15-20-13 21 5 25 12 22 21 16"/>
<path d="M12070 9801l-1 1 29-6 24-12 23-13 22-15 23-19 22-23 23-25 23-24 20-24 15-26 12-26 7-25 4-24 2-31-4-25-10-30-13-23-23-10-22 12-17 28-14 32-9 25-6 28-5 30-3 33-2 33-3 35 0 34 0 33 3 33 5 26 4 27 11 28 14 23 20 21 26 17 26 5 24-11 14-23 7-24 2-26-7-28-12-28-14-25-16-18-23-10 6 25 25 8 29-1 28 0 26 1"/>
<path d="M12655 9725l-2-5-5-25-13-21-27-7-27 9-26 20-20 20-22 23-19 20-16 21-14 26-7 25 9 23 21 13 25 4 30-4 26-7 25-12 21-12 21-17 17-21 4-25-17-17-7 24 2 27 14 23 23 11 27 6 25 1"/>
<path d="M12761 9580l-1-2-13-20-26-4-27 4-22 10-25 17-22 15-22 19-21 21-16 20-17 21-13 23-12 29-8 23-1 27 7 23 16 20 20 13 27 6 28-2 28-9 31-9 28-10 23-9 27-12 22-13 22-16 20-15-27 11-27 14-24 13-27 15-21 10-22 11-28 10-24 6-24 7-27 8-25 4-24-1-26-2-22-15-3-25 17-17 14-22 8-24 6-27 5-23 6-24 9-23 18-18 22-15 24-13 26-13 26-8 26-4 26-1 24-2"/>
<path d="M12929 9734l-2 1 25-3 23-13 22-17 22-21 20-17 20-22 21-25 18-27 16-26 12-26 9-26 5-26 5-29 3-30 1-28-3-25-25 7-17 25-17 28-10 22-11 24-11 25-8 28-7 28-6 31-6 29-4 30-2 28 0 28 2 25 5 34 9 29 11 22 19 23 25 17 25 3 26-11 22-21 13-23 5-26 0-29-6-29-8-23-12-23-18-18-22-11 21 12 26 6 25 2 26 1 30 1 25 2"/>
<path d="M11845 10500l-1 0-17 17 24 6 22-14 20-15 22-21 25-24 17-18 17-20 16-22 15-19 20-30 17-27 11-26 6-24 1-28-4-29-10-23-24 11-16 20-16 23-15 27-16 32-9 23-9 25-8 27-5 28-5 28-5 27-1 26-2 26 3 35 5 31 8 25 14 25 18 18 25 11 25 0 24-9 18-16 12-26-1-29-12-21-13-26-13-21-19-18 19 15 27 5 26-3"/>
<path d="M12276 10441l-3-1-24-2-25 6-21 17-13 24-11 26-8 28-1 25 7 25 15 19 24 11 28 0 29-7 30-8 28-12"/>
<path d="M12429 10556l-1 0 26-4 21-15 24-19 19-20 18-24 19-26 17-28 15-25 12-26 8-28 5-30 3-31 0-30-2-30-3-25-8-28-12-23-26-1-17 18-13 26-10 24-8 28-5 31-3 35-3 24 0 35 2 24 4 35 7 35 6 29 9 27 8 23 14 27 16 20 20 18 27 4 23-10 17-22 11-21 8-28-2-29-7-25-12-24 26 3 24 7"/>
<path d="M13074 10395l-2-3-17-24-20-16-27 6-21 17-21 22-18 23-16 24-14 23-14 29-6 24 6 27 13 25 21 15 28 6 24-1 28-9 24-16 18-21 12-21 10-25 19 20 12 23 13 21 20 23"/>
<path d="M1836 12122l 1-3 9-26 8-24 7-27 5-26-3-26-8-26-12-22-18-17-26-1-25 9-23 16-26 25-17 17-14 21-18 29-16 29-12 28-7 25-3 29 4 24 18 19 25 0 28-11 25-20 19-22 18-22 14-21 10-22 0 27 4 26 10 23 11 22 24 14"/>
<path d="M2165 12009l-1 1-5 23 11 24 19 19 25 4 30-4 26-10 23-12 24-13 26-18 27-20 18-16 25-23 16-19 20-25 19-28 17-28 15-33 13-31 9-33 10-34 6-28 6-25 0-28-6-30-10-22-20-17-24 3-18 17-19 24-14 21-16 24-15 26-14 27-15 28-11 29-8 29-7 27-3 29-2 25 1 24 5 33 8 30 10 27 16 29 17 20 22 18 26 6 25-6 21-12 17-18 11-21 5-26-10-26-12-22 25 12 25 3"/>
<path d="M2946 11871l-1-1-19-15-25-1-26 12-21 13-25 19-23 22-22 22-18 24-11 25-4 25 10 25 23 17 26 8 25 4 27 3 26 0 30-3 30-6"/>
<path d="M3297 11844l-2-1-24-1-25 8-22 14-21 16-19 19-13 23-5 25 2 24 9 23 22 20 24 9 29 8 28 5 29 0 29-2 27-3 24-7"/>
<path d="M1853 12961l 2-4 11-27 6-25 1-25-4-25-21-17-25-3-31 9-27 10-29 19-19 17-19 18-18 23-18 20-17 21-14 20-17 26-12 21-11 26 11 22 25 11 28-5 25-8 28-10 26-14 24-15 22-18 19-17 6-25-6 24 1 28 3 26 14 20 24 7 24-4"/>
<path d="M2102 13008l-1 0 26-5 23-10 22-13 22-15 27-18 28-22 20-15 19-16 19-16 18-18 25-25 16-19 19-30 9-23 8-30 5-28 1-29 0-27-2-30-5-25-26-5-17 18-17 22-19 29-19 30-18 29-10 23-9 23-10 36-6 23-3 25-3 36 3 32 5 29 10 24 11 21 17 19 24 15 25 4 27-9 22-12 18-19 13-24 4-27-3-25-13-23-21-11 21 14 26 1 28 1"/>
<path d="M2605 12958l-1-1 28-3 28-13 21-14 22-16 25-17 19-17 16-19 15-20 14-21 11-23 12-23 10-25 9-25 6-30 1-27-21-13-23 21-20 25-16 23-14 24-11 29-8 30-5 32-3 32 0 28 0 27 6 32 9 24 13 22 21 16 27-2 26-10 22-16 19-19 15-24 8-24 0-27-8-25-17-21 27 1"/>
<path d="M3070 12922l 0 1 25 1 24-6 24-13 20-16 23-15 24-16 21-22 22-22 18-25 16-25 10-24 10-28 8-33 3-33 4-32 2-28 0-29-8-24-24-3-19 17-21 24-15 24-16 27-16 33-9 23-8 24-5 25-4 25-3 25-1 24-2 24 3 33 4 27 5 23 11 25 16 22 20 19 25 6 28 0 26-10 20-14 18-24 19-22 9-26 1-27-15-21 26-8 27 0 30-2"/>
<path d="M1809 13793l 2-2 12-23 11-23 7-26-5-26-10-24-22-12-25 8-25 13-22 14-22 19-19 21-18 25-15 23-11 24-9 25-7 25-3 26 6 28 13 22 26 8 25-4 23-8 22-13 18-20 12-21 8-26-1-25 6 27 3 24 6 24 15 20 22 8"/>
<path d="M2174 13777l-1-2-15-19-18-19-27-1-25 7-22 16-18 18-12 21-10 24-7 26 6 24 21 12 29-2 23-10 26-12 19-17 13-24 1-27-9-25-11 24 0 25 4 25 7 24 16 23 24 9"/>
<path d="M2539 13811l 0 0 26-4 26-10 28-16 23-16 25-15 22-20 21-19 21-17 22-23 20-24 17-28 17-27 12-29 4-30 5-26 1-27 0-30-8-23-18-19-24 5-23 20-19 21-17 29-18 31-11 23-10 24-8 25-3 27-5 27-2 25-1 34 5 32 8 28 9 25 17 26 18 19 24 16 25 5 25-3 24-15 16-23 9-24 1-29-6-26-12-24-19-18 25 8 28 9 28 5"/>
<path d="M3029 13768l 0-1 22-14 21-12 19-15 24-19 19-20 17-22 17-21 17-25 11-22 10-29 5-24 4-33 2-29-2-26-10-22-21-13-21 11-14 23-10 24-10 30-8 26-4 29-6 31-3 31-3 27 0 26 4 30 9 29 6 26 21 15 24 8 24-11 22-15 15-20 10-25-7-23-12-23-21-12 24 4 25 0 27-1 25 0"/>
<path d="M1797 14736l 1-1 18-20 14-22 12-21 10-24 6-27 5-24-4-27-21-15-27 8-25 19-22 21-23 25-20 25-20 25-15 22-12 27-5 24-2 25 24 11 24-5 24-13 23-12 23-17 21-18 18-16 9-23-15 21-1 25 6 29 10 23 26 15"/>
<path d="M2309 14598l 0-3 7-25 7-26 6-25-12-23-25-4-24 6-27 17-22 21-26 23-21 27-20 24-11 23-11 24-2 24 8 25 23 12 27-1 25-8 25-10 23-10 21-16 18-21 13-22 0 25 3 27 12 21 20 18"/>
<path d="M2821 14497l-1-2-4-25-19-15-27-4-24 4-27 11-28 18-19 18-18 19-15 21-15 23-9 28-1 25 12 22 27 5 28-2 27-8 25-14 27-18 23-17 16-18 13-23 5-25-8 24 1 26 9 27 15 23 22 20"/>
<path d="M3303 14419l 0-5-3-25-18-16-24 3-28 7-26 16-20 17-20 18-19 19-17 24-8 25-4 24 7 23 27 6 26-7 23-11 22-14 19-18 18-16 18-22 13-23 9-23 7 25-1 28-1 28 1 25 7 24 15 23"/>
<path d="M1844 15639l 2-2 12-21 16-25 9-23 9-29 0-26-9-22-25-10-26 5-24 14-24 21-16 20-16 22-13 21-14 20-12 26-8 23 17 21 25 0 24-11 26-14 27-13 19-20 12-22-6 25 3 25 16 22"/>
<path d="M2037 15659l 1 0 27-5 24-11 25-17 21-14 20-19 25-21 18-18 21-18 18-22 18-20 17-20 20-29 18-28 16-28 9-23 8-25 3-26 2-26 0-25 0-28-2-25-17-19-24 3-21 19-17 19-16 25-14 28-14 30-11 34-6 23-5 25-3 24-3 34 0 30 3 29 5 26 8 29 9 22 17 22 23 14 27 6 29-1 26-7 15-20 3-25-7-24-15-23-18-20-20-16 24 9 27 1 27 0 29 0"/>
<path d="M2744 15430l 0-2 9-24-23-9-25 9-25 14-21 15-18 17-17 19-15 25-8 24 1 28 18 23 26 12 25 6 31 0 25-6 27-9 28-9"/>
<path d="M3048 15458l 0-1 25-2 29-7 23-8 28-9 27-10 26-12 28-18 20-15 29-19 26-24 24-23 19-25 12-23 8-24 6-25 4-26 2-25-3-24-4-28-5-28-10-22-13-22-27-5-20 16-18 22-17 26-20 27-16 30-10 23-8 25-7 27-4 26 1 28 0 26 2 26 5 31 8 28 13 24 12 21 19 23 24 19 23 13 27 4 26-7 22-16 12-22 3-27-4-24-15-21-18-19-21-12-24-9 23 16 24 12 26 6 30 7"/>
<path d="M5700 11650l 0-1-1 26-7 27-10 28-9 24-8 23-10 27-10 28-9 25-5 26 2 27 15 19 29 3 24-7 22-9 28-12 23-11 24-12 26-12 24-11 22-12 22-13 22-12"/>
<path d="M5834 11708l 0 0 5 25 3 30-1 31-3 26-3 29-3 29-2 29-1 28-1 28-2 26-1 24-2 24-1 25"/>
<path d="M5663 12357l-1 0 3 24-5 25-12 26-12 28-9 26-12 27-12 29-13 26-10 25-11 28-7 27-1 24 17 19 26 4 23-8 29-10 23-11 26-12 22-14 22-15 21-14 25-14 25-15 23-14"/>
<path d="M5795 12433l 0 1-11 24-3 24-1 28-2 25-1 27-2 27-3 25-3 27-2 31-3 27-2 24-3 27-3 25"/>
<path d="M5743 14156l 0 0-2 24-2 24-2 29-4 26-4 30-5 34-3 25-2 25-3 25-3 25-4 28-5 34-3 25-3 26-1 37-2 32 0 30 1 27"/>
<path d="M7638 11104l 0-1-25-5-24 13-24 16-22 21-19 23-13 22-12 21-8 26 5 23 17 19 24 14 25 5 25 1 30-6 23-9 25-14"/>
<path d="M7785 10844l 0 0-4 27 4 28 5 27 4 31 2 25 1 29 0 33-1 33-3 31-3 31-5 29-6 27-8 29-9 24 4-26 11-27 10-23 13-28 14-27 13-21 19-21 16-17 18-16 16 19-4 27-6 23-8 25-8 26-5 24-1 25 22 13"/>
<path d="M7987 11116l-1 0-16 21-9 26-1 24 7 26 21 17 29 1 24-7 26-13 25-18 19-18 15-23 0-26-19-21-23-6-25-5-26 0-23 8"/>
<path d="M8208 11065l 0 1-5 26-2 28-1 28 2 26 3 26"/>
<path d="M8243 10958l-1-2"/>
<path d="M8454 11046l-1-2-23-6-24 10-23 14-18 17-14 24-5 26-2 26 4 26 7 24 15 24 26 12 27 2 25-5 29-12"/>
<path d="M8610 11075l-1 0 21 14 25-3 23-9 21-11 11-22-14-21-27-3-26 9-19 19-16 19-13 25-4 28 10 24 20 19 26 10 29 3 26-5 27-10 22-10"/>
<path d="M8846 11006l-2 0-21 11 5 23 13 25 16 22 17 20 19 18 19 20 14 22-13 21-26 3-25-3 25-3 27 0 26-3 27-3 27-7"/>
<path d="M8272 11478l 0 0-15 21-10 27-9 25-11 29-8 24-6 24-6 24-5 25-3 30 0 25 4 30 6 24 11 24 15 22 18 16 23 9 24 0 26-6 26-12 18-17 15-22 11-24 3-25-10-24-22-13-25-6-26 1-24 10-15 19-13 22-10 26-5 27"/>
<path d="M8299 12290l 0-2 7-25-16 25-13 25-15 31-11 23-10 24-10 23-9 26-9 25-9 26-6 28-7 27-4 26-3 24-1 35 3 30 6 29 9 23 15 25 19 22 22 19 22 14 29 9 24 2 29-1 28-6 24-11 15-19 8-23-2-25-14-22-18-18-24-13-26-6-26 4-23 12-24 17-19 18-19 23-14 23"/>
<path d="M8181 14312l-2-2 17-17 26-8 26-5 24-1 26 0 29 3 25 3 26 2 23 9 22 8 19 16 7 28-6 25-12 21-17 20-23 19-27 15-22 12-27 11-25 8-23 6 25 2 27-5 28-3 26-2 28 3 26 3 22 15 16 19 5 27-5 27-8 24-10 22-18 20-22 14-26 7-24 5-26 1-27-3-30-3-29-4-29-4-27-6-24-8-24-9-24-9"/>
<path d="M11089 10832l 0-3 3-25 14-21 25-6 16 20 0 27-10 30-12 33-13 24-13 26-15 27-15 27-16 27-16 27-14 26-13 27-11 25-8 23-8 29-2 30 9 25 18 16 30 5 29-3 30-9 23-11 24-10 23-13 24-14 23-16 21-17"/>
<path d="M10969 11024l-1 1 14 22 25 6 29 1 28-3 30-4 34-6 33-8 32-7 29-7 25-6 26-6-13 20-24 17-18 18-14 20-10 25-2 25 10 22 21 14 29 2 28-5 29-12 25-17 17-17 13-22-6-27-18-20-24-17-22-10-25-10-24-9 24-7"/>
<path d="M11511 10807l 0-1-21 17-9 24-5 26-6 23-6 25-6 28-7 28-7 30-9 32-13 32-9 31-10 30-5 30-4 25 4 27 26 11 26-7 26-13 27-18 26-20 23-21 19-19"/>
<path d="M11369 11013l 0 0 26-9 25-8 32-4 27-1"/>
<path d="M11663 11026l-2 1-25 1-26 8-26 12-20 15-16 18-13 24-8 25 10 22 21 12 25-6 23-13 23-16 17-17 12-22-22 12 2 25 14 23 21 14 24 3 27-5 24-7 26-13 26-17 23-20 20-22 15-25 9-31 5-24 3-27 1-26 0-28 0-29-2-24-3-27-21-15-21 18-15 23-13 27-9 26-11 31-5 23-5 26-3 33-4 26-1 29 2 26 9 30 11 25 13 23 17 21 21 15 22 11 28 3 26 0"/>
<path d="M11114 11540l 1-2 17-16 24-6 25-1 26 7 26 8 26 12 22 15 15 21 5 27-9 24-17 25-19 21-22 23-26 24-28 21-28 20-26 19-25 19-21 16-18 16-16 18 20 15 26-4 24-7 28-8 27-11 28-10 29-12 29-10 27-7 25-7"/>
<path d="M11455 11547l 0-1-8 29-7 27-9 23-9 27-6 25 16 19 27 0 25-3 30-7 24-6 25-8 31-12 22-10"/>
<path d="M11581 11572l 0 1-8 29-3 30-1 29 0 29 1 30 2 31 2 30 2 30"/>
<path d="M11060 12213l 1-1 20-19 27-16 28-10 29-9 30-6 28-1 29 4 26 10 21 13 13 24-1 25-10 25-15 20-18 23-22 23-22 24-25 21-25 19-28 20-27 19-26 21-22 16-23 18-19 16 26 8 32-9 27-8 29-7 32-11 33-10 30-12 27-10 27-10 23-9"/>
<path d="M11510 12090l 0-1 2 24-4 25-6 28-9 29-10 31-11 28-8 25-2 26 12 21 24 8 27 1 27-3 23-6 25-5 25-9 23-8 29-13 25-16"/>
<path d="M11663 12162l-2-1-12 21 0 26 1 29 0 26-1 26 0 27-1 26-2 28 2 24"/>
<path d="M11174 14114l 2-1 25-10 28-8 29-5 30-2 28 2 26 1 24 9-7 25-25 18-27 18-23 15-24 14-23 13-26 16-22 17-20 17 22 12 25-4 29-4 26-2 26-2 26-1 26 1 29 3 25 4 26 9 19 15-5 26-18 21-18 22-18 18-20 19-23 17-24 17-25 16-26 14-26 11-30 10-30 4-29 1-29-5-26-10-21-12-20-16-13-23 7-26"/>
<path d="M8090 13369l-1 0 26 2 31 0 33-1 25 1 26-1 31-2 25-1 24 2-9 26-20 17-24 18-20 14-21 14-26 17-24 12-23 14 19 19 30-4 28-3 30-2 29-4 29-2 27 4 27 3 25 5 20 13 9 25-6 25-12 22-18 22-20 18-22 16-24 15-24 10-24 12-23 8-24 8-31 5-26 2-27 1-21-13"/>
<path d="M8322 14971l-2-1 17-21 27-8 23-6 32-5 29-3 24 0 25 8 6 25-15 25-15 20-20 21-20 21-23 19-23 18-22 14-21 13-21 12-19 15 28-6 32-6 28-7 28-7 28-6 25-4 25-1 26 3 26 8 20 16 6 25-4 25-13 28-16 25-16 20-19 21-22 18-23 18-22 14-22 12-30 10-28 8-25 5-26-4-18-17-5-23"/>
<path d="M7306 5534l 0-2 19-18 27-7 29-3 26-2 24 3 26 5 26 7 13 22-11 22-17 18-19 16-23 18-23 15-24 13-21 11 25 7 30-4 24-1 25 0 27 2 27 1 25 3 31 5 25 8 23 9 15 22-4 26-11 22-17 24-15 19-18 16-19 17-24 12-24 11-26 7-26 7-26 3-27 2-26 0-30 0-24-4-23-6-22-13"/>
<path d="M1769 16592l 0-3 2-25 6-24 4-28 4-25-2-27-1-26-22-15-26 3-26 15-21 20-16 21-16 22-12 24-13 28-10 28-3 26 8 25 23 8 26-9 19-18 18-18 21-19 17-18-3 26 13 21 25 8"/>
<path d="M1943 16559l 0 0 17 17 29 4 26-7 22-13 24-21 17-20 18-26 19-27 18-29 18-31 15-32 11-32 7-29 7-30 7-28 0-27-2-26-6-23-8-26-15-23-23-10-18 16-13 24-9 23-4 29-4 30-2 32 0 35 4 36 4 31 6 32 7 27 9 25 13 27 13 25 14 20 21 20 23 14 26 0 20-15-13-22-19-21-21-16-22-13 23-9 28-4 27-2 30-3 25-3"/>
<path d="M2783 16463l 1-1-4-24-9-24-23-14-24-4-24 11-21 16-14 26-9 25-4 24-4 24 12 24 26 5 24-9 23-12 16-21 14 21 20 16 24 6"/>
<path d="M3032 16509l 0 1 26 4 26-5 24-12 22-21 19-18 17-19 20-25 19-26 18-28 14-27 12-27 11-29 8-30 4-34 2-34-1-33-5-26-7-31-9-24-12-23-25-4-22 11-18 26-13 23-13 31-11 35-5 26-3 27-3 28-2 31 1 30 2 35 4 29 5 25 9 29 10 26 15 21 15 21 16 18 23 19 24 10 25-4 22-12 17-23 3-24 2-25-10-24-18-21-22-18-19-16 25 7 27 7 26 3 25 3"/>
<path d="M8388 16024l 0-1 3-25 20-14 25-14 25-6 26-5 28-4 27 4 22 13 22 13 16 19 8 26-5 28-9 27-18 25-18 19-22 18-24 19-23 15-23 14-24 15-23 11-28 11-28 6-24 2 17-20 21-11 29-12 29-8 24-5 24-4 25-4 24-2 24-3 31-1 28 3 25 5 27 10 22 15 17 20 11 27 1 25-9 26-10 24-16 22-19 22-25 20-22 16-24 14-27 12-27 10-26 6-24 6-30 3-27 0-24-2-24-5-25-10"/>
<path d="M5471 15924l-1-1 24-15 25-4 28-3 25 0 25 0 27 0 27 1 31 5 24 9 19 22 4 25-7 31-13 30-11 23-13 22-15 22-16 24-19 23-18 24-20 23-20 22-21 22-21 21-22 22-19 19-18 19-19 15-24 22-20 19-18 19-17 18 24-3 26-6 29-10 24-6 27-6 29-6 30-6 28-5 27-4 25-2 24-2 28-3 27 0 30-3 24 0 27 3 25 3"/>
<path d="M11249 15781l-1 0-21 11-14 21-11 23-7 24-8 29-5 24-4 29-5 32-4 37-4 40-2 38-2 40-1 40 2 36 4 39 5 30 7 26 12 29 15 24 17 19 20 14 22 11 28 4 27-5 26-14 19-17 19-19 12-23 9-29 2-29-12-27-16-17-26-14-29-3-29 3-25 7-23 15-22 18-17 18-16 21-9 25-3 27"/>
<path d="M5244 11085l-2 0-22 11-18 16-19 17-17 21-16 26-14 26-13 26-9 26-5 25 4 25 18 16 27 0 28-6 22-9 25-10"/>
<path d="M5354 11191l-2 1-21 15-15 20-10 25 1 25 20 15 26 2 24-9 19-14 17-18-11-23-24-9 3-26 23-18 20-17 21-14 23-12 25-6 6 25-6 24-9 23-8 24-8 27-3 26 26 1 23-14 20-14 22-20 16-18 17-20-23 12-1 24 11 22 26 9 28-10 20-13 21-13 17-19 14-25 9-27 0-25-18 20-6 26-3 25 3 26 25 0 15-20 16-26 12-21 15-25 12-21 11 22-2 25-5 27 0 26 7 23 24 6 24-16"/>
<path d="M5994 10874l 0-1-12 21-7 25-3 27-2 27-4 29-2 25-3 27-5 24-4 26-3 28-3 24-4 28 1 26 6 23 23 13 26-5 24-16 20-15"/>
<path d="M5899 11078l-2 0 23-9 24-7 26-9 27-8 29-9 31-8 29-8"/>
<path d="M6201 11026l-2 2-20 18-20 19-16 19-14 22 18 16 24-8 28-2 24-4 25 1 14 21-3 24-10 27-15 26-16 24-18 19-20 14-27 7-28-3-20-14"/>
<path d="M10789 3048l 0-3-2-25-7-25-17-21-22-15-25-9-27-3-29 4-26 9-25 13-20 15-16 18-7 25 17 22 21 12 24 13 28 12 27 13 25 15 19 16 19 22 16 23 10 27-2 25-8 25-18 22-22 15-25 5-23-13-11-23-4-25 0-28 5-30 8-24 12-27 18-25 15-19 17-19 17-18"/>
<path d="M10977 2884l 0 0 7 27 7 30 6 31 3 24 4 27 4 29 3 30 2 29 3 26 2 30 1 26 3 26 2 24"/>
<path d="M11331 3067l 0 0 24-6 27-6 25-4 24-2 26 1 25 3"/>
<path d="M11894 2870l-1-1-22 18-11 26-9 27-9 29-8 31-7 31-4 31-2 28 0 25 3 28 9 28 17 20 24 12 25 1 28-12 22-13 18-17-8-24-25-11-24-8-25-4-27 0"/>
<path d="M12221 2949l-1-2-12-24-16-19-18-17-26-7-25 13-20 20-18 24-11 26-4 26 22 16 28-1 25-5 26-9 24-11 23-14 18-17-14 20-9 27-8 26-5 28-3 28-3 29 0 29 0 28 1 24 6 27 12 23"/>
<path d="M12408 3004l 1 0 26-2 26-2 24-3 26-4"/>
<path d="M12442 3074l-1 0 27-3 24-5 26-5 25-5"/>
<path d="M12716 2902l-1-1-10 23-3 25-3 29-1 25-1 27-1 29 0 31-1 31-2 26 0 28 1 28"/>
<path d="M12822 2915l 0 0 24-4 27 3 24 4 26 4 25 4 25 5 27 7 25 11 16 20-7 26-19 23-22 22-20 17-24 18-24 16-23 17-21 16-19 17-16 18 28 8 26-4 29-4 26-3 28-1 26-1 24 0"/>
<path d="M5587 14976l-1 0-10 23-9 24-10 23-11 25-11 27-14 28-10 23-10 22-11 22-14 26-13 27-11 26-6 25 8 24 24 1 26-6 27-9 25-11 24-10 26-14 28-13 26-11 22-10 28-8 25-1"/>
<path d="M5603 15013l 0 2 5 26 6 27 6 25 4 28 4 29 2 31 1 27 1 28-2 28-3 28-1 29-1 24-2 25-1 25 0 25 1 25 0 24 25-3"/>
<path d="M5683 13167l-1 0-15 21-14 27-14 24-14 28-12 23-13 25-13 25-14 27-14 28-14 29-11 26-9 24-9 29-3 26 21 14 24-6 27-12 24-7 25-9 24-6 31-10 30-9 31-10 23-6 27-7 28-8 25-7"/>
<path d="M5765 13237l-2 0-16 20-7 24-4 25-2 28-1 31 2 33 1 33 1 24 1 24 1 25 2 24 4 33 2 33 4 30 5 26 4 25"/>
<path d="M11117 13107l 1-2 4 24-2 29-4 25-4 31-6 24-7 27-10 29-10 30-11 33-7 23-8 24-6 23-6 24-7 28-3 26"/>
<path d="M11281 13114l 0-1 17-21 27-11 24-5 28-1 25 0 25 0 25 4 25 6 28 9 25 12 23 14 14 21-3 25-15 26-18 23-23 25-25 25-18 17-18 16-18 17-26 22-25 21-24 20-21 19-19 17-21 17 26 9 28-5 26-3 25-1 25-3 27-1 26-1 28-1 27-3 25-2 30-1"/>
<path d="M11054 14965l-2-1 0 26-3 27-5 24-7 29-9 28-9 26-9 25-9 25-9 24-13 27-9 23"/>
<path d="M11235 14906l 0-2 13-20 24 0 25 8 27 11 24 12 22 11 24 16 23 15 17 18 10 23-6 24-14 25-15 23-17 22-21 20-22 19-22 19-22 17-23 16-23 16-19 15-22 18 25 2 25-6 27-7 30-7 26-5 27-5 27-2 30-2 28-1 24 0 25 2 21 12"/>
<path d="M4616 16733l-1-1-16 18-13 21-12 24-10 24-10 28-10 31-8 25-8 25-6 27-5 28-3 29-5 29-2 27-2 26 0 24 5 31 5 26 9 30 10 27 15 24 18 22 16 19 19 18 18 16"/>
<path d="M4700 17097l 0 0 11 26 4 29 4 32 2 30 2 32 0 25 0 27 1 28 1 29 1 27 1 26 1 25 2 35 0 28 0 28"/>
<path d="M4734 17084l 1-1 23-12 26-5 27-2 26 3 28 4 24 10 11 21-2 24-8 30-12 28-14 26-15 26-17 21-18 22-17 17-20 17-23 13"/>
<path d="M4918 17167l-2 1 4 25 27 7 26-1 24-6 23-12 21-13 16-19 12-24 0-25-20-18-27 0-24 12-18 18-18 19-14 22-13 25-9 26-1 27 10 25 22 11 28 0 25-5 25-9 27-13"/>
<path d="M5147 17061l-1 0 28-2 24-6 26 1 26 5 2 25-17 21-17 23-17 22-12 22-11 23-4 26 12 21 26 3 24-6 23-15 20-15"/>
<path d="M5352 17133l-2 2-14 19-8 26-2 26 14 21 26-7"/>
<path d="M5362 16943l-2-1-24 7"/>
<path d="M5503 17124l-2 0-8 26-4 25-1 25 4 25 15 24 23 11 27-3 22-14 17-17 16-22 11-22 5-25-10-25-20-19-26-10-24-3-28 4-21 12"/>
<path d="M5774 17099l-1-1-24-4-24 11-19 17-17 19-12 27-8 28 0 29 11 22 24 10 29-3 27-12 24-21 18-21 17-23 13-26 13-29 11-27 10-30 7-31 3-24 3-34 0-35-4-34-6-32-9-27-10-28-12-22-18 18-11 29-9 31-5 28-3 29 2 33 3 36 8 35 4 24 9 33 10 29 9 28 13 27 16 19 16 18 25 9 27-4"/>
<path d="M5981 16705l-1 0 21 19 15 19 19 23 14 19 17 21 21 25 16 22 15 22 13 27 10 24 9 30 5 32 2 24 0 35-3 33-5 32-4 25-8 34-7 32-11 31-12 31-10 25-14 26-13 21-19 20-24 13"/>
<path d="M1903 18429l 0-2 5 26 6 24 6 25 9 31 7 35 4 27 5 28 4 29 4 31 6 29 4 30 3 29 4 28 1 27 2 24 1 30 2 30 3 28 1 24"/>
<path d="M2541 18469l 1-2 22-15 23-6 24-4 29-6 27-6 25-1 24 9 8 26-9 29-11 29-14 28-18 30-13 22-20 28-22 23-19 17-21 15-22 12 26-11 27-10 30-10 23-7 31-6 31-4 28 0 27 5 26 7 24 17 18 24 9 26 2 30-4 28-10 27-14 23-21 18-24 13-26 6-29 0-28-3-29-9-25-13-20-15-17-19"/>
<path d="M3224 18599l 0 0 27-7 30-3 25-3 29-6 27-4 26 0"/>
<path d="M3260 18725l-1-1 24-4 27-7 23-7 23-10 28-10 27-7"/>
<path d="M3355 18459l-1-1 24 9 30 5 28 2 27 5 30 5 29 8 26 9 24 10 21 15 16 22 0 28-9 25-12 22-14 24-18 23-18 20-20 20-21 18-21 19-20 15-24 16-22 10-24 3"/>
<path d="M4182 18399l-1-2 21-14 22-9 25-11 31-10 31-6 29-6 28-2 23 15 4 28-6 25-10 24-12 23-15 22-14 21-17 17-19 16-22 20-19 20 23 6 30-10 29-11 25-8 28-8 27-4 29 0 24 6 21 19 14 25 6 28 1 25-1 25-5 27-10 25-9 26-13 21-15 20-25 21-27 16-28 10-24 2-31-3-26-3-29-9-25-7"/>
<path d="M1876 19449l 0-1 23-10 24-7 26-4 30-1 26 0 25 4 23 7 28 12 26 18 17 21 10 28 0 27-6 31-7 25-8 26-9 26-14 29-14 30-15 31-17 29-17 27-18 25-19 23-19 21-17 18-23 23-18 19-20 18 23 9 32-6 26-6 27-6 24-7 26-4 26-5 25-3 29-3 31-2 25 5 22 9"/>
<path d="M2676 19440l 1 0 18-20 22-16 23-13 23-12 26-6 24-1 25 7 19 16 3 25-6 29-9 24-14 25-13 27-16 26-15 25-17 20-17 17-16 19 27-11 29-11 24-11 26-11 25-8 31-5 27 0 26 7 21 15 14 23 6 29 0 28-3 30-6 32-9 33-11 31-15 26-14 26-17 21-19 18-28 13-27 6-26 2-25-5-25-14-19-22-4-24"/>
<path d="M3253 19527l 0-1 24-7 25-3 29-2 24-1 24 5"/>
<path d="M3282 19609l 0-1 25-13 28-9 24-7 26-9 23-8 26-9"/>
<path d="M3367 19420l 0 0 23 5 29 6 27 3 24 3 28 10 24 8 23 9 21 17 18 18-3 26-18 21-21 14-25 14-23 12-22 10"/>
<path d="M1903 20345l-1 0 14-21 25-9 26-4 25-2 25 10 20 15 9 24 1 27-5 27-6 30-9 25-12 24-14 24-14 21-14 20-23 20-21 17-22 13-25 9 19-22 25-6 30-5 24-1 27 2 28 1 27 5 27 3 27 7 26 8 24 10 20 14 25 20 17 20 11 23 6 28-7 30-11 26-19 22-18 18-23 16-25 17-31 14-28 9-25 5-25 1-32 2-27 2-26 3-16-18"/>
<path d="M2753 20398l 2-1 27-5 26-9 26-5 27-7 26 2 24 13 12 21-4 29-11 28-11 23-14 26-16 24-17 23-16 19-19 18-20 15 23-17 21-13 27-11 26-6 28-5 29-2 29 3 24 7 21 14 20 15 18 22 10 27 5 25 1 28-5 25-11 22-13 23-18 20-22 14-27 12-29 11-26 5-25 2-28 1-26-1-14-20"/>
<path d="M3380 20516l 1 0 26-2 25-1 28-4 28-1 26-3"/>
<path d="M3395 20564l 1 0 24 1 28 1 27-2 27 0 25-2 25 0"/>
<path d="M3514 20401l-1 1 24 10 26 5 25 7 25 11 22 10 21 17 12 22 4 24-4 24-14 20-20 16-22 12-22 13"/>
<path d="M6027 18652l 0-3-1-25-2-24-24 7-20 17-17 20-16 25-13 20-12 23-10 23-8 22-8 30-2 24 9 24 27-3 26-18 16-18 17-21 16-23 14-21 13-24 10-22 5-25-9 27 0 24 1 27 5 25 11 22"/>
<path d="M6141 19654l-1-2-8-23-14-23-19-17-26-12-27-2-26 11-25 19-19 22-18 26-16 29-15 29-12 29-7 25-4 28 4 25 12 23 24 9 28-7 21-17 20-20 21-24 20-22 17-23 14-21 13-26 8-24-1-24-15 20-5 28-3 28-1 28 5 28 8 24 15 26 20 18 24 7"/>
<path d="M6345 19663l-1-2-16-19-26 4-21 15-17 19-17 23-14 30-11 22-8 24-6 31-2 29 4 28 19 18 28-5 21-16 19-21 19-25 15-28 7-26 5-24-2-25-11-21-12 21 1 28 6 26 9 25 13 21 15 20 23 17"/>
<path d="M7271 19668l 1-1 15-19 13-22 7-25-5-25-20-13-25 2-24 14-18 18-16 23-13 28-9 28-5 25 1 28 10 22 23 11 25-10 22-15 16-19 16-22 6-24-5 26 0 28 5 28 12 24 20 16"/>
<path d="M7405 19715l-1 1 14 21 25-5 24-15 17-19 19-22 16-22 13-24 12-24 11-24 8-27 5-24 3-26 0-26-2-28-3-31-5-29-4-26-6-26-10-24-24 1-11 26-9 23-6 27-6 31-3 37-1 25 0 27 0 28 0 28 2 27 3 25 6 33 8 30 7 24 12 25 16 23 21 15 25-2 15-21 3-25-8-24-10-23-15-21 12 22 25 9"/>
<path d="M4310 19292l-1-2-13 21-9 29-7 23-6 24-7 26-6 27-6 28-6 29-4 30-5 30-3 31-3 30-4 28 1 24 3 27 12 28 13 21 24 12 25-1 25-5 24-12 24-16 22-19 18-23 12-23 7-27-4-25-19-18-22-10-24-7-28 0-24 13-18 17"/>
<path d="M6053 20662l 0-1 0-26-11-22-24-12-24 3-23 14-18 17-17 25-14 24-11 24-9 23-6 31-1 28 8 28 17 17 25 0 24-10 21-18 19-22 16-22 13-22 8-24-2-25-5 28 4 26 5 24 7 24 9 22 15 24 17 20"/>
<path d="M6344 20713l 0-2 4-25-4-27-15-19-23-10-23 8-23 18-19 24-14 24-9 24-7 24 0 26 11 22 26 7 26-11 24-14 20-20 16-21 12-22 1-26-17 18 3 25 10 22 18 19"/>
<path d="M6585 20637l-1-2-15-21-24-4-24 2-22 14-17 18-14 21-12 28-10 27-6 29 1 25 12 25 25 7 25-11 21-16 16-18 14-23 8-22 6-24-18 18-1 27 5 25 9 23 12 22 17 19"/>
<path d="M6178 21054l-1 0 23-12 25-14 24-10 27-8 22-8 25-8 23-6 21 11-8 23-16 24-17 19-18 17-21 17-22 19-23 16-25 13-20 15 15-19 22-13 24-13 22-13 25-11 24-8 25-8 25-6 23 10 16 20 6 24-1 25-6 24-10 25-14 27-14 20-17 19-17 19-19 18-21 15-22 9-24 7-26 7-27 3-23-11"/>
<path d="M6091 19963l-1 0 18-16 25-7 22-9 26 0 12 21-13 22-17 19-20 19-21 17 23-9 24-8 25-7 24-3 24 0 25 6 8 23-5 26-13 22-18 17-20 15-23 14-26 11-26 3-26-2-27-10"/>
<path d="M5966 18948l-1 0 21-13 24-1 24 3 25 7 5 24-16 19-15 19 20 17 24-2 25 3 8 24-17 21-22 13-24 9-23 9"/>
<path d="M7383 19954l-2-2 2-24 23-10 24-3 27-6 28-1 26 6 6 25-18 24-19 18-21 13-21 12 25-4 24-10 26-5 25 3 18 17-15 20-20 16-25 15-22 10-23 12-24 11-22 11"/>
<path d="M7559 20680l 0-1-2-25 4-25-6-23-20-13-24 11-20 19-15 22-11 22-13 27-9 25-7 25-1 24 7 23 26-1 19-15 21-18 18-19 16-19 4 26 8 23 15 20 27 0"/>
<path d="M7811 20698l 0-2 5-24 6-24 0-26-8-24-16-20-23-8-22 11-18 17-17 27-15 27-13 26-9 23-7 27 0 25 11 21 26 1 24-8 21-17 19-21 15-23 10-25 4-25-7 24 1 26 8 25 14 21 21 16"/>
<path d="M7992 20725l 0 0 25-11 22-16 18-16 21-18 20-24 20-26 14-22 13-25 12-25 10-25 8-24 6-25 3-26 4-27 2-31 1-26 1-30-2-25-25-5-17 19-12 21-14 29-10 23-9 26-6 29-6 29-3 30-1 31 0 32 4 26 8 27 10 24 15 22 19 20 21 11 23 6 25 6 25-6 10-23-8-25-13-25-19-19-16-21 25 4 26 2 26-4 25 0"/>
<path d="M7878 20993l 1-2 10-24 9-24-18 17-11 22-11 27-7 25-8 29-5 31-4 32-1 31 0 31 5 30 10 26 19 21 22 12 28 1 25-11 24-15 19-20 14-23 4-26-6-25-17-23-24-8-26-1-25 10-24 14-23 15-18 17"/>
<path d="M9137 20587l 1-1 10-24 12-23 4-25-4-25-15-19-26 0-25 12-19 22-16 24-15 25-10 22-7 25 1 26 11 24 25 4 25-7 22-15 22-21 18-20 15-22 3-25-17 20 1 25 7 23 17 17"/>
<path d="M9272 20559l-1 0 0 25 18 17 27 0 25-12 19-18 22-23 16-21 16-26 14-25 13-25 8-25 8-24 6-30 3-32 1-26 0-25-3-28-3-26-8-25-21-13-24 16-16 26-12 26-10 30-8 31-4 35-3 33 0 33 0 32 5 29 8 29 12 22 16 18 24 7 27 6 23-7 21-13 1-27-9-22-15-22-16-18 16 22"/>
<path d="M9699 20454l 0-2-22-12-25 6-23 13-18 18-18 18-14 24-8 26-5 25 1 26 13 24 21 16 24 13 29 12 32 4 24 0 25-3 25-6 24-8 27-11 21-14"/>
<path d="M9288 20887l 0-1 18-19 24-7 26-4 28 0 29 2 23 8 26 9 18 17 5 25-9 23-14 22-18 23-16 19-17 19-18 17-17 17-22 19-21 13-24 15-21 12 24-8 24-8 25-2 24 0 25 0 28 0 28 5 24 3 24 5 25-2"/>
<path d="M4234 20402l 0 0-1 24 0 28-1 24 0 30-1 25-2 24-1 27-2 28-2 29-2 31-2 28-2 31-4 28-3 25-4 27 13-25"/>
<path d="M4377 20437l 0 0 5 26 9 28 6 26 3 30 3 29 1 31 1 25 2 26 0 26 2 25-1 29-1 27 3 24-1 24"/>
<path d="M2004 21727l 1-1-4 31-11 28-11 23-10 27-11 23-13 28-14 32-13 32-13 31-12 31-12 26-8 27-6 29 14 21 25 4 25-3 28-7 27-12 23-9 27-10 23-6 28-12 25-12 22-10"/>
<path d="M2046 21898l-2 0-5 26 8 29 4 28 2 25 1 28 3 29 3 30 4 32 3 31 2 28"/>
<path d="M2650 21853l 0 0 23-11 25-12 25-3 25-4 26-1 26 3 24 3 26 6 19 16-10 27-17 21-22 21-22 18-22 17-26 16-12 21 25-2 26-4 27-2 24-3 25-1 30 2 26 6 27 9 24 13 14 23 3 28-6 29-12 28-16 25-15 23-20 24-27 21-22 13-23 9-29 10-27 3-26-5-27-9-21-12"/>
<path d="M3276 21970l 2 0 28-2 26-5 29-7 25-4 28-7"/>
<path d="M3309 22010l-2 1 29 1 30-3 26-5 24-5 23-6 25-8 23-6"/>
<path d="M3456 21792l 0-1 23 9 25 7 24 10 23 13 22 13 22 12 19 16-8 24-17 18-19 19-21 18-20 15-21 17"/>
<path d="M3974 21739l 1 0 21-14 23-6 30-7 28-5 29 5 23 9 21 12 16 19 10 22 1 24-5 26-10 24-21 25-19 21-23 24-24 18-26 18-23 21-22 18-19 18-19 15-17 17-15 22 29 7 25-1 30-3 32-2 24-2 30-4 27-1 26 1 23 9"/>
<path d="M4360 21714l 0 0-5 27-6 30-9 28-11 24-11 27-12 28-12 28-9 25-8 29-6 25 3 25 28 3 28-5 25-5 27-6 27-9 29-9 30-9 28-5 25-6"/>
<path d="M4467 21774l 0-1 4 25 5 26 5 30 3 31 3 27 3 28 0 29 1 27 3 29-3 27-5 30-3 26"/>
<path d="M11149 20351l 1-1 21-19 26-17 28-11 26-8 26-8 24-4 28-2 26 1 23 10 18 18 2 27-14 23-22 22-22 17-24 18-24 17-23 13-23 16-23 14-22 16-18 16 26-3 26-8 31-5 25 0 27-2 27-2 27-2 31 0 29 3 18 16-9 24-20 20-20 15-23 13-25 15-24 15-25 12-25 10-25 9-24 7-27 9-29 2-20-15"/>
<path d="M11581 20441l 0 0"/>
<path d="M11780 20191l 0 0 4 25 4 27 1 24 2 29 2 32-1 33-2 34-5 32-5 32-4 33-4 24-6 27-8 27-9 24-9 23"/>
<path d="M12000 20406l 0 0 24-2 25 0 24-1 25-2 28-1 27-2 27-3 24-5"/>
<path d="M12129 20303l-1-1 2 29 4 28 0 27-1 24-1 25-2 26"/>
<path d="M12552 20199l-1-1-22 11-19 24-17 30-10 22-10 26-8 26-8 28-7 26-6 26-4 34-2 24 3 35 6 31 10 24 18 26 23 16 27 7 26 2 25 0 27-6 24-13 23-15 16-19 3-26-12-21-24-13-23-10-27-6-26 0-27 9-19 16"/>
<path d="M12794 20447l-2-2"/>
<path d="M12971 20297l 0-1 17-17 25-5 28 2 24 7 23 7 13 21-17 21-24 16-25 15-22 15 18 20 24 3 24 6 27 9 24 12 14 21-3 25-15 24-21 20-20 17-23 14-23 10-29 8-27 5"/>
<path d="M13310 20437l 0 0 22-12 23-7"/>
<path d="M13358 20341l-2 0-14 22 5 26 4 28 6 28 6 27"/>
<path d="M13590 20310l-1-1 21-17 28 2 29 7 24 7 25 11 22 13 21 15 14 24-6 26-16 23-25 21-22 15-24 15-22 14-21 14-27 15-21 14-19 18-10 22 23 12 24-1 25 0 28 0 31-4 25-2 24-2"/>
<path d="M13870 20459l-1-2"/>
<path d="M14063 20344l-1-2 18-19 29-2 25 2 29 4 23 6 24 9 3 25-20 15-20 16-24 13-16 19 21 15 25 7 27 6 27 8 26 7 24 12 21 13 1 24-16 19-19 15-22 12-26 9-24 3-28 3-24 1-24-9"/>
<path d="M12125 21221l-1-1 23-9 26-4 29-4 29 1"/>
<path d="M12140 21304l-1 0 24-8 28-4 29-1 27 2"/>
<path d="M12528 21068l 0-1 16-19 26-7 26-3 24-2 25 1 24 1 29 7 24 10 19 18 6 23-8 26-16 19-20 24-24 23-17 17-20 18-19 16-20 21-19 18-17 17-17 18-22 22-19 22-18 19-15 20 13 20 26 6 27 0 31 0 25-3 27-4 28-8 29-6 28-8"/>
<path d="M12865 21062l 0-2 16-19 21-13 26-10 28-6 28-5 29 0 26 1 24 6 20 16 3 28-9 24-13 26-12 27-12 23-11 25-13 24-9 25-13 26-12 27-12 25-10 24-11 23-13 28-13 26-10 24-6 25"/>
<path d="M13473 21199l 0 1 6 26 8 26 7 27 9 25 14 24 20 14 22-13 24-23 20-27 15-20 18-32 11-23 10-24 9-26 10-28 9-24 8-32 6-26 0-25"/>
<path d="M10874 19286l-1 0 17-19 25-5 26-4 25-3 26-1 29 5 29 4 23 6 21 14 5 26-9 24-19 23-21 19-25 19-21 13-22 12-28 12-27 10-23 5-28 6 25 7 29-4 32-5 28-6 26-3 27-4 25-2 24-1 29 0 26 5 22 10 13 21-2 27-8 25-14 27-18 26-18 19-18 20-21 16-20 15-21 13-22 12-30 8-29 0-28-1-21-18-4-25"/>
<path d="M11329 19457l 0-2"/>
<path d="M11603 19239l 0-1-5 24-2 30-1 24 0 26 0 28 3 27 2 30 2 29 1 28 2 28 1 28 1 26 0 28-1 24-2 26-1 25"/>
<path d="M11833 19443l 1-1 24-10 28 4 26 2 26 2"/>
<path d="M11860 19395l 0 0 4 25 3 27 4 28 5 25 3 25 3 25"/>
<path d="M12220 19258l-1-2 24-16 32-5 28-1 29-2 30 2 28 2 25 5 27 10 25 12 14 21-9 26-19 22-25 18-21 13-28 14-28 11-26 9-25 6-25 3 28-5 25-4 30-3 32-1 26-2 28 1 27 2 25 4 30 6 27 11 24 13 17 20 3 28-10 27-15 23-17 24-23 19-24 16-23 18-24 9-26 4-28 6-27 2-24-6-26-12-21-13"/>
<path d="M12716 19463l-1-2"/>
<path d="M12888 19283l 0 0 14-20 25-13 27-6 23-10 23-6 24 0 25 10 17 18 14 20 11 23 6 26 1 28-6 23-8 23-13 24-16 22-22 20-20 18-20 19-20 19-18 20-21 20-21 20-16 19-17 19 21 12 27-1 25-1 27-2 28-4 25-4 27-3 25 1 25 2"/>
<path d="M13300 19335l 0 0 24-8 28-1 27 1 25-3"/>
<path d="M13308 19411l 0 0 23-11 28-6 25-3 29-2 24-3"/>
<path d="M13816 19278l 2-3 12-26 15-23 10-24 6-26-8-25-23-10-28 2-28 11-23 11-23 14-22 14-19 16-16 24-11 21 0 24 15 22 27 8 27-1 26-6 23-9 23-12 20-16 13-22-6 27-8 27-8 31-6 24-6 31-4 32-4 24-4 30-2 30 0 29-2 27 8 24"/>
<path d="M14375 19361l 0-1 12 23 11 21 14 24 9 28 12 22 25-9 19-28 20-26 13-22 15-24 16-26 17-27 20-28 17-25 18-27 16-25 13-22 12-21 14-25 12-26 12-23 8-25"/>
<path d="M11526 18132l 0-1 17-21 25-10 30-8 28-5 29-6 29-3 28-1 26 3 29 9 29 10 20 16-5 30-17 17-20 15-24 13-24 14-25 12-24 13-26 13-23 11 27 4 27-4 30 0 27 4 29 6 30 8 30 9 28 11 27 13 25 12 22 14 23 19 19 19 3 28-14 22-18 16-21 16-28 16-32 14-32 14-31 11-28 11-31 9-27 7-29 7-28 3-23-11 10-25"/>
<path d="M12151 18301l-1-1"/>
<path d="M12383 18101l-1-1-4 24 0 33 2 30 1 34 1 35 0 25 1 24 1 26 1 26-1 27-1 25-2 30-2 26-1 25-2 31-1 26-2 28"/>
<path d="M12790 18303l 2-2 25-10 28-4 25 0 28-1"/>
<path d="M12775 18402l 0-1 20-13 28-11 28-6 25-5 29-4"/>
<path d="M13223 18174l-1-1 18-17 28-3 27 2 32 4 26 5 25 8 23 6 23 7 28 9 22 16 7 26-18 22-22 15-24 14-26 15-26 14-24 10-24 14-14 22 23 7 27 6 31 4 31 6 31 6 30 6 27 6 23 12 16 18-1 25-17 18-24 15-23 11-25 11-30 11-31 8-29 4-30 5-30 7-31 2-25 3-25-2-28-1-23-6"/>
<path d="M11277 16911l 1-2 11-24 8-26 2-25-14-23-25-10-24 3-26 12-22 15-19 20-17 19-11 22-2 24 12 25 21 18 24 13 27 11 24 8 25 8 24 8 23 9 23 12 18 20 10 26-6 26-14 25-15 19-19 17-21 14-29 11-30 7-24-1-21-11-16-19-8-25-1-31 3-27 9-27 12-29 17-27 18-28 22-25 24-27 18-17 17-18 24-22 20-17"/>
<path d="M11448 16817l-1-2 18 17 5 29 1 24 2 27-1 31-1 32-2 31 0 32-1 36 0 33 0 30 0 25 0 31 0 24 0 24"/>
<path d="M11835 16988l 1-1 5 30 3 29 6 28 5 25 8 24 9 29 15 24 19 16 18-18 13-21 14-30 11-34 9-24 7-23 7-27 6-26 7-31 7-32 6-32 8-30 6-26 8-31 6-23 1-25"/>
<path d="M2900 23898l 1-2 10-24 8-24 4-25 2-26-2-25-11-22-18-19-27-9-29-2-26 7-22 12-23 20-17 20-16 24-14 26-12 28-8 29-6 29-2 25 2 25 5 24 11 29 10 25 13 23 19 16 25 3 21-15 16-18 19-26 16-21 14-21 12-22 11-22 9-27 7-25 3-27 4-25-6 26 0 27 2 28 3 26 4 27 5 27 6 27 10 25 16 20 18 16 25 8 25 0"/>
<path d="M3259 23682l 0 0 24-2 26-3 28-2 27 0 25 3 28-3 25 0 25-2"/>
<path d="M3279 23778l 0 0 24-1 28 2 27-1 28 1 29-1 28-5 28-5 27-7 25-6"/>
<path d="M3481 23567l-1-1 26 6 26 9 25 11 24 10 24 12 24 10 22 13 25 11 21 14 8 25-6 25-12 22-15 27-15 22-15 23-16 19-15 20"/>
<path d="M4180 23908l 0-2 5-24 0-24-7-23-22-15-24-7-25 6-19 16-14 21-13 21-11 24-8 24-5 25-3 24 1 24 4 24 9 25 19 20 24 11 24-2 22-14 20-21 17-23 11-24 9-24 1-26-13 22-1 28 4 28 9 25 15 21 20 18"/>
<path d="M4477 23952l 0-2-3-25-5-27-11-24-17-18-27-8-23 12-19 16-15 19-16 27-12 26-10 25-6 24-3 28 9 28 16 19 25 13 28 2 25-8 25-13 20-16 14-22 9-26 2-27 1-24-14 24-1 25 2 25 5 25 10 26"/>
<path d="M4849 23917l-2-3-23-16-23-14-24-8-25-1-26 11-21 17-20 23-16 27-10 22-8 24-3 31 2 29 7 24 19 20 26 11 28 1 25-6 26-15 17-18 15-20 13-26 10-27 4-28-1-26-18-17-15 24-3 27-2 29 3 24 11 25 13 21 17 18"/>
<path d="M5170 23900l-2-3-19-16-24-10-25-5-24 7-21 17-17 21-16 26-9 24-6 31-1 28 7 27 13 23 21 13 24 1 25-4 23-16 18-19 16-19 14-21 9-25 8-24 4-27 4-27-2-25-3 24 2 27 7 25 7 24 15 25 17 20 20 15 26 11"/>
<path d="M2764 24947l 0-3-3-27-9-24-18-19-24-10-26 2-21 13-19 20-17 23-11 22-10 23-7 27-6 24-3 28 1 24 10 26 19 15 27 0 26-13 22-17 21-20 17-22 8-23 4-27-3 26 7 26 13 21 21 15"/>
<path d="M3078 24933l 0-2-17-18-22-12-28-2-25 10-21 13-17 20-12 21-12 25-9 28-9 29-4 28-2 27 5 25 8 30 14 20 21 15 28 4 26-12 22-20 21-24 16-21 11-22 8-26 2-27-6-23-12-22 0 25 0 25 5 28 7 26 10 25 14 24 17 21 20 17 24 12"/>
<path d="M3415 24808l 0 2 26 9 25 3 27 3 24 0 26-5 30-4 25-2"/>
<path d="M3398 24972l 1-1 25-8 23-5 28-6 26-3 26-4 24-3 28-5 27-5"/>
<path d="M3547 24808l-1-1 26 0 27 6 24 6 28 5 25 7 26 8 26 5 25 9 12 22-8 24-11 26-16 21-21 20-18 17-23 17"/>
<path d="M4207 24954l 1 0 21-15 14-21 7-25-11-24-24-13-25-3-24 7-21 14-20 21-19 26-13 25-10 27-7 26-4 30 2 29 11 22 25 10 29-1 28-9 28-12 20-15 20-20 17-19-4-24 6 25 14 22 12 20 19 17"/>
<path d="M4505 24971l-1-1-13-20-17-18-23-9-25 2-23 14-16 21-15 27-12 25-9 29-4 25 0 26 13 22 26 12 26-5 29-13 24-13 21-16 22-22 14-22 3-24-24-8-10 24 2 26 7 26 16 22 21 18 26 10"/>
<path d="M4734 25067l-4 1 24 7 25-11 23-14 23-19 23-22 18-18 16-19 16-21 16-19 15-20 16-28 14-27 10-27 4-27 0-28-3-28-6-25-8-23-15-25-18-21-25-5-19 24-12 28-10 33-6 23-4 28-4 29-1 30-1 32 0 30 2 32 4 31 4 31 6 29 9 23 13 31 16 25 17 19 25 16 27 8 26-7 18-20 10-26-1-29-10-29-17-24-18-24-16-19-23-13 3 26 26 7 24 4"/>
<path d="M5154 25024l-1 1-4 24 24 8 26-7 25-10 25-16 26-23 18-19 17-21 17-24 16-24 12-25 12-28 10-30 5-26 3-28 0-24-2-29-6-29-9-24-13-25-20-16-25-2-26 19-19 24-15 22-12 29-9 34-4 27-3 27-1 29-1 30 1 32 1 31 4 30 5 29 7 26 8 25 11 29 12 27 15 22 18 22 24 9 25-3 23-9 19-20 13-23 10-27 0-25-8-27-13-21-22-11 17 21 25 5 28 2 24-5 26-9"/>
<path d="M2723 26026l 1-1 12-23 14-23 4-25 3-25-6-23-23-14-27 4-26 16-20 28-14 24-15 28-11 29-9 28-6 29-4 29-1 30 5 25 18 16 29-4 20-13 21-18 21-25 13-22 15-25 11-22 3-25 4 25 10 23 13 22 16 20"/>
<path d="M2947 26140l 0 0 17-19 17-23 16-26 19-27 17-31 13-22 13-24 15-23 12-25 12-23 12-24 9-23 9-25 9-33 6-29 2-27-3-27-5-23-10-27-13-23-17-19-20 18-8 28-4 26-3 31-5 34-1 37-2 35-1 32 3 31 2 28 3 28 3 28 4 28 6 31 7 25 8 22 13 28 15 25 19 24 21 14 26 5 21-12 13-24 6-28-1-30-11-27-13-21-20-25-22-23-20-20-19-16 19 17 27 7 29 1 26-4 29-8 26-9"/>
<path d="M3381 25885l 0 1 28-4 27-4 28-3 29-6 24-3"/>
<path d="M3418 25994l 1-1 25-7 27-6 26-5 24-10 24-13 24-12"/>
<path d="M3510 25820l-1 0 21 17 25 11 28 9 26 6 27 5 25 8 25 9 19 16-2 27-18 21-15 22-16 20-18 16-16 18-17 20"/>
<path d="M4218 26066l 1 1 15-19 15-23 11-27 11-26 5-26 1-27-7-25-17-17-24-12-27 2-25 10-23 19-17 20-16 27-17 29-9 24-13 33-10 30-7 29-6 26 0 27 13 23 26 4 24-14 22-15 23-21 23-23 20-26 19-21 16-22 12-23 0 27 9 26 15 24 23 9 21 12"/>
<path d="M4383 26086l 0 0 20 15 26-8 21-14 22-18 22-21 21-27 13-20 14-23 12-22 13-22 15-30 12-32 8-32 5-24 8-32 3-32 1-33 0-31 0-30-1-27-1-27-22 17-11 28-9 23-7 26-7 28-5 29-6 31-4 33-3 32-3 32-2 31 0 29 0 31 3 28 4 26 7 33 7 27 16 25 19 18 25-1 21-13 19-18 21-21 16-24 7-28-2-25-12-23-21-23-24-16-25-9-24 8 13 23 19 17 26 12"/>
<path d="M4976 25913l-2-1-26-10-28-2-30 2-26 4-24 17-22 17-16 23-13 25-8 26 6 28 14 19 23 10 27-1 26-8 23-16 19-16 19-19 12-22 4-24-7 25 2 26 4 27 5 25 7 26 20 17"/>
<path d="M5169 26052l 0 0 23-9 19-16 22-20 19-18 23-23 23-27 15-20 15-18 14-20 13-24 19-29 16-31 13-30 8-32 5-32 1-30-4-29-5-26-6-23-16-24-22-10-20 14-15 19-15 26-11 23-10 26-9 26-7 31-7 31-6 33-5 36-4 37-3 37 0 36 0 35 3 33 6 28 6 25 12 33 12 26 15 22 22 16 26 7 25-10 16-25 7-26 0-25-7-26-12-27-14-26-18-21-21-12 21 18 26 7 28 2 25 1 28-2 28-4 28-3 25-3 27-7"/>
<path d="M2516 27098l-1-2 3-28 2-25 2-27-3-29-15-27-16-19-17-17-25-12-27-4-26 4-19 18-19 27-14 27-12 31-9 29-6 31-3 30-3 29 1 25 3 26 10 23 21 15 28-6 21-16 20-25 17-22 16-26 11-23 9-24 6 23 8 30 3 27 7 26 11 22 18 20"/>
<path d="M2816 27043l-1-4-12-21-17-18-21-14-24-5-25 6-21 18-18 27-16 26-12 31-9 33-5 30-3 30 1 26 7 28 18 18 25 7 31-8 28-15 27-17 26-24 22-30 21-27 18-25 12-22 7-27-3-25-16-18-26 3-14 24-5 26 1 30 6 30 8 29 10 22 13 20 15 20"/>
<path d="M3162 27041l-4-2-23-16-25-9-25 0-23 13-16 20-14 24-9 24-6 29-3 25-1 29 7 27 16 22 28 0 24-15 17-18 13-20 8-25 4-25-1-27-3-24-12-24-5 25 2 26 3 27 10 25 11 22 13 22 16 21 22 16"/>
<path d="M3456 26907l-3-1 24 3 27 2 30-2 27-5 28-5 27-3"/>
<path d="M3441 27052l 0 0 23-12 26-9 26-5 27-8 29-11 31-10 30-9"/>
<path d="M3593 26886l 1 0 27 6 27 0 28 0 28-2 28-3 27-3 27 3 24 7 18 22-3 26-13 27-14 22-19 22-23 21-20 16-18 20-22 19-23 16"/>
<path d="M4209 27108l 0-3 5-26 8-26 4-25 0-27-8-25-19-15-24 0-24 7-22 14-20 25-15 25-14 29-7 24-10 34-5 32-2 25 2 29 11 26 17 17 27 0 25-10 22-13 21-15 24-19 20-18 13-20-3 27 10 24 14 23 23 16"/>
<path d="M4498 27028l-2-2-21-15-26-3-28 5-24 14-19 20-13 21-10 23-7 23-6 28-4 27 7 24 18 17 27 4 28-8 26-12 25-18 21-22 16-20 12-24 3-26-9-22-16 21 2 27 4 25 4 28 8 24 14 21 27 9 24-4"/>
<path d="M4855 27012l 0-1-5-23-19-17-24-8-27 5-26 17-21 23-16 24-14 27-12 29-9 29-6 24-1 24 4 26 13 22 27 6 26-7 23-16 18-18 17-18 19-22 11-25 8-22 4-25-8-24-18 18-2 27-1 30 3 24 8 26 14 23 21 16 25 10"/>
<path d="M4917 27231l-2 1-21 12 8 24 17 18 23 9 24-6 26-17 20-14 22-21 24-23 25-28 26-32 25-33 22-33 21-33 17-30 16-27 13-25 13-33 7-32 4-30 2-29-2-30-6-31-8-28-11-23-14-21-23-11-25 14-14 30-12 32-9 27-8 28-8 31-6 36-6 35-4 37-4 39-2 40-1 40-1 39 2 35 4 27 8 25 14 26 18 23 19 19 26 16 30 3 24 0 30-9 22-12 17-21 5-27-8-28-17-24-18-19-18-18-18-19-20-19 18 18 30 8 30 7 25 0 25-2 26-4 28-4"/>
<path d="M2604 28029l-2-5-9-22-11-25-11-26-12-20-22-16-27-4-27 10-25 21-18 20-18 24-16 25-11 26-9 25-5 29 4 28 11 21 27 9 25-9 23-13 20-16 17-21 13-25 10-24-3-24-1 26 1 25 2 28 7 26 15 22"/>
<path d="M3049 28025l 0-2-1-26-4-26-15-22-18-19-20-16-27-5-28 9-21 16-21 23-15 20-13 24-9 25-3 24 0 30 5 27 17 23 24 9 25 3 25-5 22-13 18-18 17-23 11-26 3-25-5-25-3 24 1 26 5 23 15 25 21 16"/>
<path d="M3262 28042l-1 2 13 21 23-9 24-16 21-19 24-22 22-27 16-20 15-21 13-21 14-20 15-31 9-29 10-30 8-29 5-29 2-31 3-32 0-29 1-26-4-31-10-26-23 17-12 26-9 24-9 29-5 31-6 31-5 32-3 33-6 31-1 32 1 36 0 31 7 32 4 26 9 33 10 29 14 24 19 22 19 16 26 7 26-9 22-17 16-23 13-25 6-24-5-28-11-21-15-21-18-22-18-16-21-14-24-5 22 13 28 5"/>
<path d="M3766 27746l 0-1 27-4 25 0 25-2 25-1 25 1 25-1 28 1"/>
<path d="M3772 27879l 0 0 25 2 30-2 29-4 29-6 30-6 24-5 31-9"/>
<path d="M3948 27673l-1-1 24 16 22 13 23 13 22 11 22 11 24 12 22 12 7 24-13 22-14 21-19 23-20 22-20 22-21 22-19 21"/>
<path d="M4422 27900l 0-3-3-25-9-24-22-15-25-3-24 7-22 11-25 19-18 20-16 25-14 27-11 29-6 26-2 29 5 26 18 20 25 4 28-9 26-15 25-19 22-21 18-22 16-23 9-22-1-26-5 24 9 24 9 25 10 22 17 22 23 12 26 1"/>
<path d="M4739 27885l 0-2 2-24-1-26-11-21-22-11-24 0-24 14-20 18-22 21-14 21-12 24-11 25-2 28 10 23 24 11 24-9 22-12 23-16 20-14 19-20 5-23-3 27 0 24 10 23 19 17"/>
<path d="M4886 27916l-2 0-3 24 22 12 26 0 26-7 22-12 23-17 17-17 20-19 20-23 21-24 18-28 15-26 13-27 9-30 7-29 2-31 0-32-2-28-4-31-7-25-16-20-24 8-13 23-9 26-9 27-9 30-8 35-4 29-1 30-2 31 2 31 1 30 4 29 5 29 6 27 6 25 8 24 12 29 15 20 20 24 21 19 25 9 25-9 19-18 14-25 3-24-5-29-12-22-16-23-20-23-18-17-19-17-24-7 11 24 24 6 27 2 28-2"/>
<path d="M5551 27788l 0-2-19-16-24-2-24 6-24 12-23 18-17 19-19 23-17 27-11 26-9 27-2 27 5 24 9 23 17 21 25 17 23 11 25 9 28 2 30-5 29-8 28-12"/>
<path d="M2671 28922l 0-2 2-26 2-27-9-24-17-19-25-11-26 4-23 16-19 24-16 26-14 30-13 32-10 33-7 30-3 30 2 30 9 24 19 20 23 7 29-5 23-14 23-18 18-18 12-27 12-27 10-26 5-24-5-24-11 25-3 28 1 29 3 27 10 26 19 15"/>
<path d="M2941 28891l-2-2-20-18-23-13-25-3-22 9-18 18-16 23-9 23-10 26-6 26-7 27-3 26-3 25 2 25 17 19 25 4 22-9 21-13 19-14 17-18 18-21 18-23 15-25 10-26 7-27 5-31 2-26 2-27 1-27-1-29 0-34-1-32 0-30-2-25 0-27-1-27-4-24-3-26-7-25"/>
<path d="M2735 29115l-1 0 20-17 17-17 16-22 16-21 18-25 16-21 16-26 16-24 17-27 14-27 12-29 12-26 9-26 8-27 5-29 3-29 2-33 1-32 3-33 2-28-2-27-5-26-6-23-23-6-16 22-17 27-14 23-15 28-13 28-11 34-6 25-6 28-5 25-4 25-3 26-3 37 0 24 0 24 1 35 6 34 4 30 5 29 6 29 10 26 12 22 20 20 18 17 24 10 27-1 21-12 18-19 15-21 15-22 5-24 6-26-6-26-12-26-14-20-18-20-22-17-23-12-24-3 25 0 25 1 28-5 26-4 28-6 26-6"/>
<path d="M3345 28866l-2-2-21-12-24-9-23 6-23 14-20 20-14 24-13 27-9 29-3 27 0 26 5 25 15 25 18 17 25 9 25 4 28-2 25-4 25-7 26-9 25-11 25-11"/>
<path d="M3690 28785l 0-1 21-13 28-6 27-2 29 0 25-1 28-2"/>
<path d="M3689 28897l 1 0 26-2 25 0 28-5 26-6 27-9 30-9 28-10 25-10 28-15"/>
<path d="M3904 28697l 0 1 27 5 28 4 28 1 28 5 24 13 20 15-2 25-9 23-14 24-13 20-16 22-15 18-19 25-20 23-19 19-23 16"/>
<path d="M4377 28891l-1-2-7-28-6-27-13-23-22-13-24-2-26 11-23 20-18 19-16 23-14 25-10 27-9 26-9 30-3 27 6 26 25 10 28-8 23-12 27-19 25-21 25-22 17-16 20-20 0-24-9 25 0 25 1 28 8 24 16 21 25 6"/>
<path d="M4514 28922l-2 1-8 22 10 25 26 10 27-2 26-11 21-13 25-20 19-15 18-17 18-21 18-20 15-20 16-20 21-26 18-31 14-29 7-31 4-34 1-24-2-34-3-32-5-32-7-30-10-29-16-21-24-2-16 17-15 28-10 27-12 32-10 34-5 24-4 28-4 30-3 32-2 31 1 31 1 29 3 31 5 28 5 27 6 25 13 32 13 26 15 23 21 19 22 11 27-4 22-13 19-16 15-21 10-25 4-27-6-27-14-24-18-21-21-17 21 16"/>
<path d="M5150 28757l 0-1-9-22-23-9-23 6-22 15-16 18-17 20-16 20-14 20-10 22-5 25-1 25 5 29 11 25 19 18 23 10 24 2 24-3 26-6 26-11 23-11"/>
<path d="M5301 28971l 0 1 25-3 22-14 20-17 25-22 19-21 22-24 22-24 21-26 19-25 16-25 13-24 12-27 9-29 7-28 3-31 2-31 0-30-3-29-4-27-16-19-26 8-15 27-13 26-13 33-10 33-6 26-4 26-3 29-2 32-2 31-1 35 1 32 2 29 4 29 5 24 10 29 14 26 15 20 21 16 25 12 27 3 26-7 19-18 10-22 6-26-4-27-9-24-16-25-19-19-20-15-23-7 23 6 24-2 24 4 26 0"/>
<path d="M6982 23466l 0-2-24-8-18 18-17 21-14 21-16 26-19 30-18 30-19 31-11 21-11 22-10 22-9 22-10 33-8 33-3 34 0 30 4 29 7 27 7 26 11 23 15 27 15 23 18 22 18 20 19 17 20-16"/>
<path d="M7095 23668l-1-1-6 24-3 26-2 31-2 28-1 25 0 24 1 28 0 26 2 24"/>
<path d="M7135 23487l 0-1 18 16 19 24 18 25 16 22 16 20 18 22 16 19 15 19 19 23 15 24 13 26 10 26 8 30 2 25 0 26-4 27-7 27-9 29-14 31-13 29-13 27-13 26-13 21"/>
<path d="M6905 24474l-2 1-21 18-17 24-15 21-14 24-14 25-12 26-10 31-10 30-8 33-8 34-5 35-3 34 0 37 3 33 4 34 7 30 8 29 11 26 14 22 19 23 21 16 26 9 28 4"/>
<path d="M7109 24560l-1 0-13 20-10 22-11 25-12 28-9 24-10 25-9 26-8 23-6 28-1 24 6 24 24 7 27-4 26-9 31-10 23-11 23-8 28-11 25-7 25-10 24-12"/>
<path d="M7204 24691l-1 1-10 22-3 29 0 33 0 28 1 27 2 27 3 31 3 28 7 30 10 25"/>
<path d="M7330 24544l 1 2 16 22 22 19 20 20 22 23 17 22 15 22 15 18 13 24 11 26 10 26 7 27 4 28-2 29-4 34-8 34-9 32-9 28-9 27-12 29-12 22"/>
<path d="M6867 25465l-1-1-22 12-16 22-13 24-11 24-12 30-9 24-9 28-9 27-9 30-7 29-6 29-5 28-4 27-3 25-1 34 1 37 6 32 6 25 10 28 13 25 14 20 20 18 19 15 25 9"/>
<path d="M6965 25621l 2-2 19-18 27-8 28-4 29-1 25 10 23 12 13 23-3 25-12 25-13 21-17 20-18 22-20 23-20 22-20 21-18 19-16 18-16 23-14 25-3 25 27 6 27-8 28-10 24-13 26-15 26-16 28-16 27-18 25-16"/>
<path d="M7239 25527l 1 0 29 6 23 10 27 10 28 10 29 13 27 16 18 16 20 19 16 20 12 25 8 28 3 32-2 29-5 29-9 29-11 31-13 31-10 28-11 28-16 26-18 24"/>
<path d="M6822 26613l 1-2-24 13-16 23-13 25-14 30-8 24-8 26-7 27-6 27-6 32-4 34-4 33-3 37-1 33 1 32 2 32 4 29 5 27 6 24 13 29 15 24 16 20 20 17 24 10 26 3 25-1 25-4"/>
<path d="M7049 26726l-2 0-22 14-15 25-13 23-12 30-9 24-6 23-5 32-2 27 1 25 11 22 19 16 28 12 29 1 27-4 29-8 27-13 26-14 24-15"/>
<path d="M7146 26850l-2 2-9 22-7 24-7 27-2 26 0 29 4 29 6 25 12 23"/>
<path d="M7271 26693l 0 0 24 10 24 17 19 15 19 20 18 24 16 25 13 28 9 26 6 28 5 26 2 25 2 28-1 30-5 29-6 30-9 29-11 30-12 27-13 25-13 23-19 24-19 17"/>
<path d="M6712 27565l 1-2-20 16-14 23-15 29-11 26-11 31-10 34-7 26-8 27-7 29-6 32-6 31-5 31-4 30-2 28 0 26 3 34 8 28 13 20 22 21 25 12 25 3 24-6"/>
<path d="M6852 27687l 0 1-4 26-2 30-3 26-5 31-3 27-4 24-2 28 3 24 11 24 23 10 26-3 29-5 23-10 24-10 27-8 24-12 21-15"/>
<path d="M6960 27819l-1 1-13 21 0 26 3 27 3 28 2 27 1 27 0 24 3 27"/>
<path d="M7104 27620l-1-1 27 8 22 18 19 15 16 18 16 20 15 23 14 21 14 26 10 28 9 34 7 33 8 33 6 32 5 29 2 32 0 32-3 33-4 31-6 30-8 24-11 25-12 23-18 20"/>
<path d="M6765 28406l-2-1-24 7-16 21-13 25-11 26-13 30-10 25-9 25-9 25-9 27-8 25-6 27-6 29-4 26-2 30-2 31 1 27 3 30 3 25 6 25 11 32 15 27 15 24 17 18 24 18 25 6 26-6"/>
<path d="M6944 28526l-1-1-13 26-6 29-6 23-5 31-5 29-4 30-4 26 2 27 21 15 26-7 24-5 26-2 25 2 28 5 28 2 28-6 27-9 21-12"/>
<path d="M7089 28586l-3 2-19 20-5 24 0 26 2 32 1 26 1 27 0 28 3 27 2 27 3 25 3 28 7 24"/>
<path d="M7175 28449l-1-1 18 24 14 24 11 23 11 25 11 31 11 29 12 29 11 29 9 32 7 31 5 33 2 31-1 35-4 34-5 33-9 31-10 30-12 26-14 24-14 21-21 21-20 18-21 16-23 16"/>
<path d="M5790 19205l-1-1 24-6 25 2 25 0 25 0 25 3 24 0 27 0 28-1 25-3 27-2 25-2 25-4 24-3 30-3 28 0 27-1 29-2 25-3 25-1 25-2 25-2 25-5"/>
<path d="M7160 20141l-1-1 24 6 27 0 27-1 26-1 24 0 28-2 28-3 27-3 29-2 28-3 29-4 29-3 30-5 31-3 25-5 25-6 26-6 27-3 28-3 26-3 25-1 27 2 25-2 25 0 25-4 23-6"/>
<path d="M7441 21424l 0-1 25-10 24 0 29 0 26 6 31 0 27 0 30 0 36-2 27-1 31-3 32-3 35-3 34-3 34-3 32-4 29-1 30-1 30-1 28 3 28 0 28 0 25 2 34 1 31 2 28 2 30 3 24 1 25 1 24-1 20-14"/>
<path d="M9046 21328l-1-1 25-7 26 0 30 0 31-2 28-2 33-5 25-1 26-1 27 0 28-1 28-2 29 0 30-1 30-1 30-2 29-1 29 0 30 0 29-1 31-3 29-2 30-1 29-2 28-1 27-2 25-1 24-1 25-2 26-2 26-3 27-2 25-2 34-3 29-3 25-3 29-1 24-2 25-1 25 0"/>
<path d="M9253 23820l 0 1-4 26-4 26-2 27-4 31-4 35-3 25-4 26-4 28-4 28-3 30-5 29-4 27-3 28-4 26-4 26-5 25-5 29-7 25"/>
<path d="M9210 23810l 2-2 18-19 28-9 29-5 27-3 29-1 27 5 23 7 21 11 20 17 12 24 0 26-10 22-13 21-16 22-21 22-22 22-24 21-23 19-24 17-23 12-25 13-24 8"/>
<path d="M9549 23846l 0 0 24-4 24-6 28-10 24-15 23-14 15-21-15-22-25-11-25 2-28 6-24 12-21 18-20 21-16 24-10 25 0 26 13 26 22 16 27 6 29 4 25-1 24-5 23-10 25-9 27-8 24-12"/>
<path d="M9812 23729l-1 0 26-2 27-2 25 0 18 17-11 24-17 21-16 18-18 18-16 20-15 24-5 26 11 23 22 11 28 0 26-9"/>
<path d="M10077 23741l-1 0-20 13-14 21-5 24-5 25 3 28 12 23"/>
<path d="M10072 23617l-2 0"/>
<path d="M10221 23781l-3 0-26 11-15 19 0 26 10 24 18 18 25 8 26 2 25-11 18-21 4-24-12-25-18-23-20-15-24-2"/>
<path d="M10480 23749l-1 0-25-3-24 5-24 15-18 22-15 22-5 23 1 26 10 25 20 16 26 4 28-6 24-11 23-20 20-25 14-23 10-25 9-28 7-28 3-31 3-33 2-25 1-25 2-26 2-26 1-27 1-34-1-27-7-24-25 0-16 21-11 24-10 28-7 33-3 25-1 27 0 28 1 30 2 28 2 28 4 28 5 25 5 23 9 33 9 25 14 25 18 22 23 9 25-15 17-22 16-23 15-22 10-25 8-25 7-24 7-23 0-25-13 23-4 25 9 24 11 26 13 24 15 23 15 19 13 22-19 18-25-1-26-1-25-1-24-3 23 5 27-3 29 4 25-3 26-8 26-6"/>
<path d="M10900 23557l 2-2 19-17 25-11 27-5 25 2 25 8 18 19 7 29 0 25-5 26-7 26-10 26-10 23-11 25-12 24-13 27-10 26"/>
<path d="M11011 23900l 0 0 20 15"/>
<path d="M2208 30069l-1-2 13 25-4 31-3 31-7 35-5 26-4 27-5 28-4 28-4 28-4 28-4 28-5 29-1 29-1 28 0 26 2 34 4 27 9 24 22 13 24-7 20-19 14-22 11-27 7-33-89-151-35 2-29 6-29 11-27 12-24 13-21 14-20 17 13 22 28-5 27-13 24-14 25-18 19-16 18-18 20-20 21-22 22-24 22-25 21-24 19-24 63-183-5-25-6 29-4 28-1 36 0 25 0 26-1 28 0 28-2 29 0 29 0 29 0 30 2 29 0 31 1 29 3 28 1 25 2 32 1 24 3 25 14-19 7-28 6-31 7-34 9-32 8-27 11-27 14-21 5 25 3 27 3 25 5 25 8 28 7 24 11 23 22 14 26-9"/>
<path d="M2571 30330l-2 1-11 23 0 28 3 26 7 25 18 16 37-170-16-24-15-20-17-19 3 26"/>
<path d="M2723 30301l 0 1-27 6-21 16-9 22 18 17 25 13 23 8 24 7 22 11 21 14-6 25-20 19-23 11-25 13-25 7-25-1-25-4"/>
<path d="M3351 30438l 0 1 20 16 29-7 21-12 22-15 22-18 21-19 20-20 15-20 16-23 7-25-25 3-14 26-6 27-3 27 6 24 22 10 24-7 24-16 21-16 19-22 19-21 15-20 16-24 12-25 6-25 1 25 9 27 13 26 15 25 12 22 13 24 8 27-1 24-13 21-25 8-25 1-26-4-24-8 18-15 28 0 27-3 28-2"/>
<path d="M3520 30138l 0 0"/>
<path d="M4552 30323l 0-2 4-25 4-24 0-24-18-18-26 8-22 21-20 22-17 20-16 27-12 24-5 24 4 24 24 13 25-4 26-13 23-15 24 9 19 18 26 9"/>
<path d="M5236 30351l-1-1 23 10 24-1 24-9 21-13 23-20 25-24 19-20 18-23 21-25 20-26 20-27 19-25 17-28 16-27 12-27 10-31 6-26 6-25 3-25 2-33 0-29-4-26-7-25-16-19-16 18-15 27-13 29-9 23-9 24-9 25-7 27-5 26-5 30-2 30-3 29 0 31 3 28 4 27 6 28 8 25 13 32 15 24 17 22 20 15 26 9 28-7 19-15 12-24 3-25-6-25-14-25-17-20-13-21-14-21 26 6"/>
<path d="M5801 30127l-2 0-26 5-27 14-22 17-21 22-15 19-12 22-11 25-4 24 4 27 19 18 27 2 26-9 21-13 19-17 14-20 7-24-9-23-21 13 4 25 10 27 12 21 24 13 25 6"/>
<path d="M6038 30162l-1-2-15-18-23-12-22 10-20 14-17 20-17 27-10 22-8 25-5 30 2 26 15 20 28 2 23-11 25-20 22-24 22-29 15-20 13-23 12-21 12-24 10-25 9-25 6-29 5-27 3-28 2-29 1-29 1-31 0-33 0-31-1-30-1-27-2-34-2-28-4-25-24-5-12 24-8 25-7 30-8 34-4 24-2 28-2 29-1 31 0 32 1 33 0 33 1 30 3 33 2 29 3 28 6 26 9 30 10 25 13 25 18 18 25 10"/>
<path d="M6709 30084l-1 0-9 27-5 25-3 30 1 29 10 25 18 19 25 5 24-9 20-17 18-20 13-24 8-27-5-27-13-21-10 27 6 28 8 25 15 24 21 17 24 3 28-5 22-14 19-19 15-25 9-26 3-24-4-30-9-23-12-25-16-17-5 24 6 28"/>
<path d="M7128 30072l-1-2-11-21-18-19-25-8-22 19-14 21-11 21-15 28-10 30-3 25 5 26 24 13 28-10 21-15 18-20 17-22 9-25-20 14-9 25-2 28 8 25 20 16 26-4 21-14 20-15 22-21 17-20 11-23-17 21-9 22-2 26 14 23 25 4 27-10 21-17 19-21 20-25 18-27 13-23 8-23 5-28 1-26-16 19-5 30-2 30 0 31 0 34 1 25 1 25 1 30 1 26 1 27 0 28-1 28-1 31-2 28-3 29-4 26-3 27-6 27-7 25-8 27-9 25-11 26-12 24-19 31-19 24-20 19-25 12-25-3-21-17-12-22-6-28-3-35 1-28 4-31 6-33 8-35 11-32 12-34 14-33 16-31 17-30 19-29 18-28 18-30 18-25 20-27 21-26 22-22 23-26 24-24 23-27 23-27"/>
<path d="M7940 30027l-2-2-24-2-6 24-2 27 1 25 8 28 16 19 23 7 28-6 26-13 24-20 19-22 13-24-1-26-19-20-27-12-23-9-26-6-24-1 25-10 25-9 22-12 25-13 20-15 21-15 22-18 21-19 20-23 20-22 18-25 15-23 12-22 9-23 5-24 2-26-2-25-10-22-21 19-14 23-14 31-9 26-9 31-8 34-8 36-8 40-8 40-8 44-7 46-4 24-6 49-5 46-3 43-3 41 0 35 2 36 3 32 5 26 7 25 11 26 16 24 25 13 19-15 16-29 10-30 6-35 1-35-2-25-6-24-7-26-8-26-9-24-10-25-14-32-14-29-12-23-14-22 22-12 27-4 24-6 27-6 31-10 24-6"/>
<path d="M8991 29838l 0-2-23-9-25 9-20 13-19 20-18 24-10 23-5 24 5 28 19 19 23 9 25 0 29-4 34-10"/>
<path d="M9166 29889l-2 0-27 5-23 9-18 19-7 24 5 26 18 18 25 9 27 3 27-8 24-13 11-24-8-23-18-19-17-19-9-23 18-18 24-11 25-8 24-2 21 13 6 25-1 26-2 26-2 27 20 15 23-16 21-19 22-20 17-21 15-20 9-22-15 20-9 23 0 26 12 21 23 11 24-4 25-14 21-15 20-20 16-21 11-22 2-25-21 18-3 26-1 25 5 27 24 8 19-16 17-22 15-23 15-21 15-21 15-23 14-21 15 21 0 24-1 25 1 26 8 24 27-7 20-18"/>
<path d="M9916 29478l-1 1-10 23-4 27-4 25-5 29-6 26-6 28-9 31-12 32-13 31-11 33-11 34-9 31-7 28-4 24-1 26 6 26 20 16 26-8 19-15 20-19"/>
<path d="M9841 29707l-2 1 21 15 27-3 29-3 27-4 27-2 24-3 17 19-7 25-8 31-8 25-8 23-6 24-3 25"/>
<path d="M10084 29587l-2-2-25-3"/>
<path d="M10156 29778l-1-2-10 24-7 27-9 23-9 26-7 24 20-17 18-25 15-19 16-19 16-19 21-17 21-17 24 0 12 21-2 26-1 28 13 22 25 9 25-3 24-12 23-19 18-18 16-19 13-21 9-26 0-27-13-21-24 3-21 14-16 24-8 29-3 29 0 29 2 29 6 28 9 22 13 26 14 24 12 25 7 26 2 31-2 27-3 28-7 31-7 32-8 30-10 31-12 29-12 28-15 25-14 20-22 17-27 7-24-6-14-22-7-24-3-30 2-35 2-25 5-26 4-25 7-28 9-29 12-32 13-33 14-29 13-24 13-22 19-29 19-27 19-20 19-18 23-17 24-14"/>
<path d="M10515 29914l 0 0"/>
<path d="M2105 30938l 5-1 32-7 31-4 32-5 36-6 27-4 29-4 31-5 33-6 35-6 38-5 40-5 45-6 47-7 24-3 26-4 27-3 26-4 27-3 28-4 28-3 29-3 29-3 30-4 31-4 31-3 32-3 33-3 33-3 34-3 35-3 36-3 36-2 36-2 38-3 37-2 38-1 37-2 41-2 40-2 41-2 41-3 43-2 43-3 44-3 45-3 45-3 46-3 45-3 48-4 46-4 49-2 49-4 50-4 50-3 52-4 51-5 53-3 53-5 55-4 55-4 57-5 57-4 58-5 59-5 60-4 61-5 62-6 62-3 63-6 62-5 64-5 64-5 66-4 65-6 66-4 66-6 68-5 69-4 68-5 70-5 71-5 72-4 73-5 72-4 72-5 72-4 73-4 74-5 73-4 74-4 75-4 74-5 75-4 75-4 76-4 75-4 75-4 75-4 76-4 75-4 76-4 76-4 75-4 76-4 75-4 75-4 76-4 75-3 76-4 74-3 75-4 75-4 75-3 75-3 76-3 75-4 75-4 75-4 74-4 75-3 74-3 73-3 72-3 72-3 71-2 69-2 69-1 68-1 67-1 65 0 65 0 65-1 61 0 61 1 60 1 58 2 57 1 56 3 55 1 54 2 53 3 51 2 49 2 50 2 47 3 46 3 45 3 44 3 43 2 42 2 42 3 39 3 39 2 38 2 36 2 35 2 33 2 32 2 32 1 29 2 29 1 27 1 27 1 25 1 44 2 41 1"/>
<path d="M1811 32340l 0 0 5 26-1 26-4 27-7 25-10 31-11 26-12 28-13 31-15 33-16 33-14 33-15 30-12 28-12 27-8 23-10 28-4 25 12 24 30 2 29-7 26-8 27-11 31-10 32-13 24-9 22-8 33-13 31-13 27-11 26-10 29-11 25-9"/>
<path d="M1891 32555l-1 1 2 27 4 26 3 32 2 34 4 25 3 26 6 29 4 29 3 31 3 31 3 32 3 33 3 32 3 30 2 27 1 25 3 33 2 26"/>
<path d="M2651 32360l-1 0-1 25 2 29 4 26 5 30 6 23 5 28 6 30 6 32 4 32 5 33 6 32 5 31 6 31 6 27 4 27 5 26 4 24 3 24 3 35 2 29 3 25 3 25"/>
<path d="M3413 32654l-1-2 16-19 29-4 29-4 26-3 27-3 29-2 27-2 32-3 28-1"/>
<path d="M3444 32711l-2 0 25-6 26-4 31-5 25-4 27-3 25-5 23-6 25-5 25-5 26-6"/>
<path d="M3631 32530l-1-1 26 3 27 3 25 2 31 4 28 3 28 3 25 3 28 7 26 9 21 13-6 26-21 19-23 18-24 18-24 15-23 13-25 13-25 15-25 9"/>
<path d="M4396 32302l-1 1-12 25-1 31-1 35 1 27 0 31 3 32 3 35 4 39 7 40 6 42 6 42 7 42 5 39 5 40 6 37 4 35 5 32 4 30 1 24 5 28 6 23"/>
<path d="M1730 33660l 0-2 10-21 13 21-3 26-7 27-10 30-11 33-12 34-8 32-9 28-6 25-6 23 0 25 24 10 24-5 24-9 26-10 22-13 29-14 29-7 29-12 25-10"/>
<path d="M1843 33789l 0 0 2 29 5 24 6 28 2 30 2 25 0 31 0 25 3 24 1 29"/>
<path d="M2637 33598l 0-1 24-9 27-4 27-3 28-3 27-2 30-3 29-3 28-2 26 0 31 3 26 10 22 15 12 24 2 26-6 26-12 30-11 22-15 24-16 26-20 28-22 28-23 29-24 30-25 29-26 27-28 29-26 28-24 25-20 25-19 19-22 24-20 22-13 20 25 2 27-9 30-7 26-7 27-8 26-5 27-5 31-4 30-4 29-2 27-1 26 2 24 1"/>
<path d="M3497 33685l-1 0 28 3 27 5 24 1 24 1 28-2 25-3 24 0 28 0"/>
<path d="M3465 33794l-1 0 25-12 31-5 25-3 28-3 26-3 28-2 27-2 28-2 25-1 29-3"/>
<path d="M3728 33507l-2 0 16 25 21 16 21 12 27 11 23 9 27 9 28 7 25 10 25 9 22 9 15 21-4 24-11 22-16 24-19 25-22 23-16 17-19 17-18 18-19 18-21 19-19 18"/>
<path d="M6591 33757l 0-2 7-25 7-26 6-26-3-25-19-15-29 3-22 13-23 21-17 21-17 23-13 24-12 24-7 26-6 30 3 29 15 20 24 10 24 1 28-9 24-13 21-18 17-19 15-22 13-22 5-24-14 22 3 25 13 21 23 15"/>
<path d="M6878 33689l-1-2-13-21-27-3-22 15-17 20-18 24-12 22-12 28-8 25-4 27 9 26 22 10 27-3 25-14 20-16 20-20 16-21 9-24-13 21 5 25 13 24 18 16"/>
<path d="M7209 33701l-2-2-15-18-23-15-27-1-25 7-21 17-20 21-14 21-11 22-11 26-5 28 3 26 13 21 22 11 24 2 26-7 22-14 19-16 18-21 13-25 5-24-18 18 2 27 8 28 12 25 18 23"/>
<path d="M7508 33712l 0-2-2-25-6-24-22-11-27 4-20 14-21 17-19 22-13 22-10 22-11 22-8 24-5 29 6 25 20 14 26 4 25-4 24-8 21-11 20-19 14-21 6-25-15 21 3 27 9 24 13 25 16 20"/>
<path d="M6530 32709l 1-1 11-23 3-25-20-16-27 6-25 14-21 20-20 25-13 21-14 25-12 26-11 23-6 24 3 26 22 13 28-7 21-12 19-16 18-17 17-20 15-23 10-22 3 24-2 27 4 25 11 22 19 17"/>
<path d="M6841 32738l 0-2-5-25-4-25-20-14-24 9-19 22-14 20-13 22-14 26-9 27-4 26 6 25 25 12 25-3 26-12 19-16 17-19 14-22 3 25 11 24"/>
<path d="M7186 32708l-2-2-10-22-11-23-27-7-26 7-25 17-19 16-19 18-17 23-17 26-16 28-12 28-9 26-3 30 4 24 18 19 25 4 27-4 25-10 24-15 23-21 22-23 18-22 14-21 12-23 8-25-2-27-20-13-8 26 0 29 3 25 5 26 10 25 13 24"/>
<path d="M7476 32720l 0-2 0-26-11-21-25-8-28 7-22 14-23 22-19 23-17 27-14 27-10 24-5 27 3 28 13 22 23 11 26 2 23-5 22-12 21-18 12-22 8-25-7-25-9 25 4 31 7 26 10 24 16 25 20 22"/>
<path d="M8557 33679l 0-1 0-26-5-27-6-24-11-22-23-10-28 12-23 22-18 22-18 27-16 30-15 31-10 30-8 28-3 25 0 25 7 25 22 14 28-5 20-15 21-23 19-24 17-23 14-23 11-26 5-25-17 20-1 25 0 25 3 26 9 23 18 19"/>
<path d="M8914 33616l 0-1-7-23-13-21-20-17-24-7-28 5-25 16-19 15-18 19-17 21-15 23-14 22-10 22-7 27 2 28 11 21 19 15 27 5 26-4 28-11 27-14 19-15 17-19 9-24-3-25-17 20-9 27-1 26 4 28 12 22 16 19"/>
<path d="M9186 33648l-2-2-14-19-23-15-25 0-25 8-25 18-19 21-18 23-14 26-9 25-3 26 11 24 24 9 31-2 26-9 25-10 24-15 19-18 12-23 2-25-20-13-14 23-4 27 1 24 9 26 16 21"/>
<path d="M9411 33217l 0 2-2 25-1 24-2 29-3 36-1 27-2 30-1 30-2 30 0 33-1 32-1 31 0 30-1 28-1 28-1 25-1 32 0 24 0 27-3-27 3-27 3-26 10-22 21-16 26-7 25 0 27 7 21 13 20 21 13 22 5 24-6 26-15 21-19 18-22 9-27 3-26-3"/>
<path d="M10496 33754l 2-2 15-20 16-21 12-23 10-23 3-25-7-25-17-21-22-10-27 3-25 9-25 14-19 18-17 21-16 23-12 25-9 25-6 30 4 25 17 19 26 9 28-4 23-10 23-13 20-17 15-21 15-20 1 26 2 28 4 24"/>
<path d="M10853 33658l-2-2-3-25-3-25-23-12-24 3-23 9-26 16-20 18-19 22-18 23-15 24-11 22-7 23 2 25 19 15 26 5 28-3 24-5 23-8 23-9 26-15 19-15 15-23 0-26-12-22-25-1-8 22 4 28 12 25 16 22 17 16"/>
<path d="M11086 33252l 0 2 1 28 2 31 2 28 2 31 2 32 2 36-1 26-1 25-1 28-3 26-2 27-2 25-3 34-3 28-3 25-4 24 14-20 12-25 13-21 14-20 20-15 25-3 26 5 25 12 21 18 19 19 13 21 6 26-7 26-16 22-18 20-21 18-23 15-25 13-25 6-28-1-23-5-18-19-5-28"/>
<path d="M11474 33212l 0 0 9 23 8 29 5 31 3 36 1 28 1 29 0 32-1 31-1 34-2 32-1 31-2 30-3 28-2 25-5 35-4 29-4 30-6 23 0-29 6-31 8-31 8-27 9-26 9-24 12-26 19-18 25-4 27 10 24 14 23 17 19 18 16 18 13 23 2 25-11 28-14 21-20 19-22 16-26 14-22 12-26 10-26 6-24-4"/>
<path d="M12815 33673l-1-2-14-21-15-21-22-16-27-2-24 7-27 19-19 21-18 26-13 25-9 23-7 27 1 25 12 22 22 9 25-1 26-12 24-18 23-21 16-22 9-25 5-23 0 24 1 26 3 25 11 22"/>
<path d="M12951 33325l 0 0-7 28-1 26-1 32-1 25-1 25 0 25 1 24 1 35 1 35 3 34 2 31 1 31-1 28 0 29-4 28 19-22 11-24 13-23 17-25 20-19 23-7 24 12 26 13 26 13 23 13 16 20 3 24-10 28-18 22-18 19-20 17-23 14-24 9-27 4-26-6-21-17"/>
<path d="M13428 33663l 1-2 6-24-14-20-27 1-24 9-28 16-23 17-21 20-18 18-17 25-13 23-9 23 5 24 27 6 29-3 28-7 25-7 25-11 22-12 11-23-18 16 4 25 16 18 23 13 24 6"/>
<path d="M13543 33255l 0 0 14 24 9 26 7 26 9 28 8 31 7 32 4 36 2 26 0 25 0 28-3 27-5 27-4 26-6 25-6 25-9 34-7 30-8 25-8 25 10-24 12-28 10-25 13-21 15-19 21-14 25-3 29 3 26 6 25 9 23 10 20 16 11 21-3 27-13 25-19 23-21 20-22 20-22 16-24 8-26 5-24 3-28-3-27-8-20-13"/>
<path d="M6910 34123l 0 0 8-23 22-16 25-8 23-5 24-1 24 5 19 15-2 27-8 23-13 24-17 23-17 17-18 17-22 17-24 15-24 10 21-14 27-7 25-5 28-3 27 0 26 0 26 3 24 4"/>
<path d="M8856 34091l 0 0 17-17 22-13 25-5 25 4 25 8 22 11 18 17 2 25-11 23-19 26-18 21-19 21-19 19-18 16-23 17-24 18-22 17 25-9 25-3 27-2 27-2 25-2 25-1 27-2 23 6"/>
<path d="M10998 34069l 0 0 9 23 0 25-1 24 0 26-3 26-2 27-4 25"/>
<path d="M13058 34083l 1 0-8 24-1 28-3 26-1 24-3 25 0 26-2 27 3 24"/>
<path d="M4455 33407l 0-2-23 6-16 26-12 25-13 31-9 24-10 26-9 26-6 29-8 30-6 31-4 31-3 30-1 27 1 24 2 25 6 29 11 24 20 24 23 16 26 12 28 7 32 0 30-6 27-12 22-13 22-22 15-25 12-26 4-26-3-28-15-26-22-16-27-15-25-7-26-3-24 3-26 5-27 12-23 18-16 21-14 26"/>
<path d="M13991 35297l 0 0 25-4 28-4 27-6 28-5 26-3 27-3"/>
<path d="M14076 35164l-1 1 3 26 6 25 3 25 5 30 4 25 6 29"/>
<path d="M14529 35322l 0-2-2-28-9-23-22-12-28-1-25 11-20 16-20 24-17 26-15 26-9 24-3 26 9 23 20 16 28 2 24-9 22-14 18-19 14-22 6-25-1 26 6 27 13 23 25 11"/>
<path d="M14646 35001l 0 0 5 27 7 25 5 27 5 30 6 33 4 24 5 35 3 25 4 34 1 34 1 34-1 31-1 27-2 29-3 25 8-28 11-27 13-25 15-24 19-20 21-12 24-3 25 8 15 20 11 23 5 29-2 30-6 24-10 24-14 20-18 21-21 14-25-3-21-11-18-23"/>
<path d="M15080 35303l-1 0-22-11-23 13-17 17-14 21-15 23-11 26-6 25 1 24 2 26 14 24 24 16 23 8 29 2 24-3 25-4"/>
<path d="M15308 35302l-1 0-25-5-24 8-19 17-14 19-15 22-10 22-7 27 0 26 8 28 14 22 20 18 23 8 28 5 28 1 30-5"/>
<path d="M16314 35338l 1-2 10-23 6-23 2-25-13-22-26-6-28 5-23 13-19 16-18 22-17 25-17 31-13 31-9 31-4 25-2 25 9 26 24 16 28 2 25-11 27-15 25-16 21-18 16-19 13-24 6-28 0-24-2 24 5 25 6 27 9 23 17 23 21 14"/>
<path d="M16439 35001l-2-1-3 25 6 24 9 29 10 35 7 26 6 27 6 27 6 28 3 29 5 27 3 27 3 26 2 35 3 30 1 26 0 28-1 25-6-28 2-28 8-28 10-24 15-23 17-20 19-17 23-9 27 1 25 10 15 25 4 26-1 28-8 27-13 24-12 22-16 20-19 16-24 8-25-11"/>
<path d="M16951 35347l-1-2-4-25-3-24-6-23-23-12-24 12-20 18-16 19-16 22-15 25-13 27-5 28 3 30 11 24 20 18 24 14 25 5 26-1 30-7 24-9 29-13 27-15"/>
<path d="M17107 35023l-1 1-1 26 1 28 3 25 5 29 4 33 2 24 1 26 1 28 1 28 1 28 0 27 1 28-1 27 0 26 0 25-1 31-1 26-2 29 13-25 11-28 10-22 13-23 17-21 18-16 23-9 27 2 24 9 22 17 16 22 8 26-1 28-10 27-15 22-18 19-20 18-23 13-24 7-28 3-24-6-22-14"/>
<path d="M6643 35175l-1-1-17 19-10 23-16 26-10 23-4 29-5 26-2 27-2 29-2 31-1 32 1 33 5 33 3 31 8 28 11 28 11 23 15 23"/>
<path d="M6737 35275l-1-1 21-16 25-9 25-4 26 2 24 9 9 24-11 25-13 20-17 22-19 22-18 20-18 21-16 18 23-5 27-6 28-3 29-4 27-1 29-1 23 12 6 26-8 23-16 25-19 23-20 19-23 13-25 10-27 2-21-12"/>
<path d="M6870 35154l 1 0 16 20 19 16 23 16 25 16 25 18 20 17 19 19 20 20 18 24 15 25 16 25 14 26 12 28 10 28 7 30 4 30-1 32-2 30-2 30-5 28-9 26-12 24-13 20-18 25"/>
<path d="M8786 35074l 0 0-16 22-12 23-9 27-10 28-11 26-8 30-7 32-3 27-4 29-3 30-3 30-2 30 1 27 3 27 5 26 9 29 9 23 12 22 11 21 15 21 18 18 22 12"/>
<path d="M8896 35207l-2 2-12 26-11 29-7 25-4 30-4 31 0 33 1 31 5 31 6 24 11 24 18 20 26 11 28 0 27-10 21-12 19-19-3-24-22-10-29-9-28-2-26 7-22 13"/>
<path d="M9022 35135l 0 0 11 23 16 22 15 22 19 23 19 27 20 26 18 27 18 28 19 30 17 29 16 29 13 29 12 30 8 33 5 35 0 24 0 26-6 35-7 33-10 28-11 23-15 21-21 23"/>
<path d="M10911 35099l-1-1-26 6-15 24-10 24-10 22-8 26-9 29-8 33-7 35-4 24-3 36-2 24-2 34 0 33 2 32 3 28 8 30 9 28 10 28 14 25 16 20 20 17"/>
<path d="M11014 35282l-1-2 24-12 25 2 26 4 24 10 13 22-13 24-18 24-20 20-21 16-16 18 26 1 27-4 28-4 26-1 21 11 14 21-3 27-11 24-16 18-22 14-26 12-27 3-27-3"/>
<path d="M11129 35128l 0-1 26 9 22 14 19 16 19 19 19 20 17 21 19 22 14 21 14 23 12 28 11 26 8 29 5 30 3 32 0 34-2 33-5 35-6 34-7 32-11 28-11 24-17 25"/>
<path d="M12919 35019l-2 0-25 9-20 18-17 21-19 28-14 27-15 31-16 33-14 31-11 32-8 31-6 31-2 31 1 31 4 28 7 26 9 26 10 23 16 20 16 18 21 19"/>
<path d="M12976 35142l 0-2 20-15 27-12 27-4 24 10 13 21-4 29-14 23-16 20-17 20-18 16-20 16-19 15 27-5 25-6 25-1 25 1 24 5 17 18-2 27-11 24-13 21-16 21-19 16-21 15-22 11-25 7-24 6-26 0"/>
<path d="M13087 34977l 0 1 20 18 19 17 21 16 23 18 23 17 19 16 19 18 20 20 19 21 15 19 14 20 11 24 8 23 5 31 0 27-6 33-9 33-11 32-14 31-14 29-15 26-15 23-16 20-23 20-22 12"/>
<path d="M14675 35751l 0-2-23 11-11 22-8 27-7 23-6 27-6 31-7 32-6 33-6 33-5 30-2 29-1 27 2 31 5 26 9 25 15 22 22 12 24 3"/>
<path d="M14807 35717l-1-1-16 22-6 24-7 27-6 29-5 32-4 33-1 35-2 32 3 31 3 26 6 24 11 26 14 22 25 12 25-4 24-14 19-23 11-22 1-25-15-24-22-15-25-6-25 4-21 13-9 23"/>
<path d="M14924 35728l-1 1 6 23 12 21 17 25 15 21 15 22 16 23 14 25 14 26 9 23 8 23 5 25 3 25 0 28-3 28-5 28-7 24-8 23-11 22-15 22-20 19-24 12"/>
<path d="M16708 35844l-1 1-19 16-17 22-16 22-13 22-10 22-9 23-7 24-5 30 0 24 6 30 7 24 11 26 13 25 16 22 16 18 19 16"/>
<path d="M16804 35896l 1-2 20-15 25-3 28 2 25 4 25 9 15 21-13 20-22 17-23 14-23 12-23 10-23 11 25-2 28-6 24-3 30 3 28 3 24 6 23 12 7 24-12 21-19 22-22 18-20 13-22 12-27 7-29-1-21-12"/>
<path d="M16992 35777l 0-1 23 9 24 11 22 12 23 17 22 20 16 18 17 18 20 24 13 26 9 26 4 33-1 27-3 27-8 26-9 25-11 25-12 24-16 25-14 23"/>
<path d="M1919 37084l 1 1 25 0 15-21-2-25-22-13"/>
<path d="M1894 37102l 1-1 15-19 11-22-14-22 4 25"/>
<path d="M2330 37152l-1 0-24-4-23 12-22 22-11 22-11 25-8 30-8 28-2 30 8 28 15 22 21 12 30 6 26 0"/>
<path d="M2541 37209l-2 1-24 9-22 13-16 20-7 24 1 25 9 25 16 24 22 19 23 10 25 5 27-2 24-11 13-22-8-26-16-19-16-24-14-19 21-13 24-6 25-2 21 14 10 22 3 25 9 23 25-5 19-15 18-22 16-19 10-24-21 13 2 24 13 22 24 3 24-5 20-18 14-21 11-25 6-24-7 25 2 25 5 26 6 24 25-10 10-25 11-25 15-22 18-24 20-15 10 24-3 25 0 25 1 26 12 21 25 2 20-15"/>
<path d="M3190 36931l 0-3-5-24-15 22-5 32-3 26-4 26-1 28-1 29-1 36 0 25 2 25 3 27 1 27 2 27 2 26 6 34 8 29 6 23 10 22 18 17 29-6 19-19 15-22"/>
<path d="M3090 37166l-4 0 24-16 24-11 31-16 23-11 22-10 33-13 23-9 22-9"/>
<path d="M3905 37138l-2-1-15-19-21-12-23 9-20 18-20 23-12 22-13 27-8 25 0 25 23 12 28-5 23-12 22-13 21-18 13-23-23 6 2 26 9 27 21 13 25-4 19-21 15-22 16-28 18-31 17-31 11-23 10-24 7-25 6-25 4-26 2-27 0-26-1-28-2-28-3-27-1-25-6-23-5-26-6-25-13-21-22 12-14 23-10 28-10 31-4 25-4 25-2 30-4 30-2 30-1 34 2 34 1 34 3 36 4 30 3 28 6 24 10 31 14 24 20 25 21 13 27 0 27-9 25-14 23-21 15-19 15-21 14-23 14-27 12-27 8-27 8-31 5-31 4-33 2-36-1-37 0-40-4-39-3-36-3-32-3-24-7-27-12-21-25-6-19 17-12 24-10 29-5 30-3 24-1 26-1 29 1 28 1 28 2 27 4 28 4 27 5 26 5 27 4 25 6 23 7 26 12 31 13 27 16 26 20 19"/>
<path d="M5013 37178l-1 2-5 27-4 29-3 34-1 25 0 27 0 29 0 29 0 29 1 30 1 30 1 29 0 30 0 28-1 26"/>
<path d="M5030 37119l-1-1 22-13 24-12 26-2 26 5 25 8 21 18 12 25 3 25-4 26-10 22-16 28-16 19-18 16-20 17-21 14-21 13-26 14-23 7-26 1"/>
<path d="M5242 37153l 0 0 24 0 26-8 22-9 24-16 21-18 14-19-14-20-27-4-26 5-22 13-20 16-17 20-15 22-11 26 0 28 10 25 18 18 23 9 30 0 27-6 23-9 23-11 63-123-11-22 21-12 24-5 28-3 21 12-6 24-16 22-17 19-18 20-16 18-17 20-8 24 15 21 26 4 24-3 23-8 25-12"/>
<path d="M5638 37098l-2 0-20 18-11 22-6 24 2 25 20 16"/>
<path d="M5656 36958l-2-1"/>
<path d="M5788 37098l-2 0-25 9-13 21-5 28 3 28 13 22 21 15 22 10 25 0 26-8 22-11 16-22 6-26-8-24-21-19-26-9-28-2-24 11"/>
<path d="M6013 37067l-1 0-26-4-24 9-22 17-17 20-11 25-2 27 9 23 24 12 27-6 24-15 22-22 14-25 10-22 7-28 6-33 3-25 2-25 1-26-1-27-2-28-4-32-5-31-4-26-6-25-8-27-11-25-21-14-17 17-6 30 0 27 0 31 3 24 6 37 5 26 5 28 5 27 5 25 8 34 6 31 7 29 7 30 8 25 12 28 12 26 23 13"/>
<path d="M6230 37023l-1 0-24-2-23 13-18 16-17 21-12 22 18 20 24 8 26 7 26 6 24 8 20 17 0 25-15 20-20 17-25 11-28 8-27 3-27-3-24-12"/>
<path d="M4593 38630l 0-2 0-25 4-28-2-25-7-27-12-23-22-14-30 1-23 10-23 18-18 22-18 29-11 22-12 24-12 26-9 24-13 24-6 24-6 32 3 27 6 29 16 20 25 3 26-9 21-15 24-24 16-18 24-27 20-27 18-26 14-25 12-28 3-29-6-27-24 9-1 27 0 28 6 28 6 28 6 24 17 23 17 19 19 17"/>
<path d="M4576 39711l 0-1 11-23 9-24 1-25-7-26-12-23-19-19-26-2-28 9-22 16-22 20-20 19-19 24-14 29-8 29-3 24 5 27 19 17 24 6 29 1 28-10 22-12 23-15 18-17 6-23-3-25 10 22 14 19 22 13 25 3"/>
<path d="M4977 39617l 0-2-3-25-14-21-20-17-22-11-24 0-27 7-23 15-17 17-17 20-15 28-15 31-15 28-8 28 2 32 7 24 16 19 25 5 25-1 26-4 27-9 26-13 24-15 20-15 18-16 17-19 15-21 10-24-4-26-17 18 0 28 3 25 8 30 9 29 12 25 18 22 24 18"/>
<path d="M5910 39642l 2-5 6-25 3-26-6-24-22-16-26-6-28 4-24 7-25 13-25 19-18 19-18 23-14 21-9 23-8 31 1 24 11 26 23 15 28 2 26-10 22-10 21-14 20-14 21-18 16-18 14-23 5-23-7-24-6 27 1 26 5 25 8 24 11 25 20 21 24 11 25-4"/>
<path d="M6031 39261l-2 1-1 28 5 28 7 32 8 28 9 33 8 32 6 24 5 32 6 32 4 29 4 30 1 28-1 25-3 30-2 26 11-29 11-28 10-27 12-25 13-21 15-24 17-17 24-9 24 0 25 7 21 15 15 22 9 25 0 27-7 24-7 24-10 22-17 22-20 18-25 10-26 5-24-1-27 0-22-12"/>
<path d="M4502 40844l 0 0 13-23 5-25 6-28 2-29-1-26-12-23-21-14-25-7-25 4-22 18-17 17-18 23-17 26-15 29-14 31-11 33-11 32-6 28-1 29 3 26 17 20 26 2 29-7 23-10 20-19 23-23 22-25 20-22 20-23 15-22 7-25-15 19 1 25 3 27 5 28 6 29 7 23 17 22 24 16"/>
<path d="M4804 40738l-2-2-23-14-21-11-27 6-22 9-21 19-17 23-15 23-10 30-6 24-3 25 3 24 10 22 21 14 28 2 26-5 28-15 18-16 20-24 15-23 11-22 4-27-5-26-10-22-8 23-2 26 3 30 6 29 10 28 12 22 16 24 23 15 29 6"/>
<path d="M5079 40770l-1-2-15-19-15-21-22-10-25-3-26 10-19 16-14 21-14 25-13 28-9 27-8 29-2 29 0 28 10 23 24 11 28 0 28-9 20-19 18-17 15-24 9-25 1-26-3-25-9 24 2 27 5 28 7 24 9 23 14 24 17 21"/>
<path d="M5975 40786l 1-2 7-24 5-26 3-25-2-25-12-21-25-4-26 2-24 11-22 19-19 19-20 25-15 25-14 28-11 28-7 28-6 23-1 24 11 28 19 20 25 3 24-1 24-12 20-15 19-19 17-24 16-23 15-23 9-27 5-24-20 16-4 24-1 26 4 25 8 23 14 21 22 12"/>
<path d="M6322 40744l 2-2 9-25 6-24 6-27-1-26-9-22-23-12-24 2-24 11-22 15-18 16-20 20-21 26-13 20-12 22-11 23-13 31-7 28-3 24 1 27 10 22 19 17 26 7 28-9 27-17 21-14 21-19 16-19 18-20 13-21 15-23 8-27 1-24-21-13-10 25-1 26 1 27 6 24 10 25 12 26 16 23 23 18"/>
<path d="M6514 40297l 0 2 5 29 7 32 7 26 8 34 5 25 6 28 4 29 6 28 5 29 4 28 2 28 2 27 1 28-1 25-1 27-2 25-3 32-2 25-4 29 9-22 6-24 6-25 7-24 9-30 12-26 13-21 19-21 20-15 25-10 26 4 22 12 22 20 14 20 10 26 1 29-9 29-14 25-14 24-16 19-19 16-22 9-26 8-26 2-28-1-26-3-21-12"/>
<path d="M7768 40722l 1-4 4-25 4-26 1-26-5-27-14-23-18-19-20-17-27-9-26 8-23 15-23 22-24 26-22 30-13 21-12 24-11 22-9 25-8 25-8 26-5 24-5 29 2 29 13 22 30 5 30-8 29-16 20-13 20-17 27-23 23-25 21-21 15-21 13-24 10-24-1-25-6 26 3 25 5 28 11 25 14 23 15 22 19 18"/>
<path d="M7926 40266l-2-1-10 26-2 31 3 30 3 35 3 27 3 27 4 29 3 32 3 34 2 33 2 33 2 30 2 29 1 27 0 25 0 32 0 28-3 26-7 24 1-25 1-30 5-29 7-31 10-24 15-20 16-19 22-18 24-8 25-2 28 2 27 8 24 10 17 18 10 26-3 29-11 28-14 23-19 21-21 19-23 16-23 13-30 9-30 8-27 4-27-5-19-17-2-28"/>
<path d="M8399 40669l 0-2 4-25-3-25-15-23-22-11-29 0-27 7-25 12-25 16-16 17-16 22-14 26-10 29-6 28-3 26 4 24 17 24 28 10 31-3 25-5 22-13 27-17 21-18 16-18 12-23 5-26-6-24-12 25-1 27 1 28 4 28 9 23 20 19 29 6"/>
<path d="M9323 40690l 0-3 7-27 0-27-16-22-24-9-26-1-26 9-26 14-26 20-18 23-18 29-17 32-10 22-12 32-8 27-1 24 8 23 21 12 25 0 24-10 29-16 30-18 27-21 21-23 16-19 12-21 6-23-2-25-19 16-2 25 2 26 3 27 9 26 14 21 26 10 25-10 19-19"/>
<path d="M9469 40280l-2 0-12 23 4 26 3 28 2 24 1 25 2 28 2 28 1 29 0 32 0 33 0 34-1 29-2 28 0 25-2 31-1 27 0 26 16-20 11-30 10-22 14-25 15-23 15-20 22-19 25-6 22 9 19 18 15 24 6 25-1 30-7 25-10 30-12 21-15 20-20 17-25 12-25 0-24-5-20-17"/>
<path d="M9686 40236l 0 0 5 26 7 29 7 31 4 30 2 26 2 25 0 28 1 29 1 26 0 32 0 29-1 28-1 28 0 25-3 36-2 32-2 28-3 29 6-29 7-31 6-27 10-25 15-25 15-19 20-14 25-8 27 0 22 9 19 20 8 27 0 27-8 26-9 24-13 23-17 23-20 20-22 12-25 6-25-7-22-14"/>
<path d="M10759 40680l 0-3 2-24-4-24-9-24-15-20-25-7-29 7-27 10-22 15-19 16-18 18-15 19-16 26-10 23-10 31-7 27 0 25 10 24 24 16 30-2 29-6 23-11 23-13 21-18 22-20 12-21 1-25-15-19-3 27 4 29 3 24 5 29 8 26 19 18 27-6"/>
<path d="M10839 40329l-1 2-3 27 3 24 4 31 3 24 3 25 4 28 4 29 3 29 3 31 4 31 3 30 2 32 2 29 1 27 1 26 0 29 0 25-3 26 2-26 4-24 6-29 8-30 7-26 12-25 16-22 23-13 25-6 25 7 24 6 22 11 19 17 19 22 11 21 2 28-10 24-18 24-22 21-25 15-29 14-23 9-29 9-26 3-28-4-23-13 2-26"/>
<path d="M11336 40601l-2-1-25-1-25 9-18 16-20 19-21 22-13 24-10 29-10 26 1 30 13 24 19 20 22 10 27 3 29 1 28-1 25-5 26-9 24-10"/>
<path d="M4514 42120l-1-3-3-25-4-25-11-23-14-20-20-14-26-4-23 9-24 20-18 24-15 19-12 22-11 24-10 22-3 26-6 23-4 36-2 30 1 27 7 30 11 22 22 11 28-1 24-14 20-16 22-20 20-25 18-28 16-26 13-23 8-23 8-26-16 19-3 24 1 28 5 24 14 24 20 18"/>
<path d="M4771 42088l-2-2-18-18-23-9-26 2-22 21-15 22-12 22-11 23-7 29-5 27-5 23 1 27 9 24 27 11 27-4 25-12 24-20 18-18 20-20 13-23 5-23-6-24-11 21 4 26 7 25 11 25 16 19 20 14"/>
<path d="M5085 42096l-1-2-11-21-14-22-22-13-26-3-21 13-16 20-17 26-13 22-10 24-9 30-1 30 6 24 16 19 26 8 24-6 24-12 22-17 20-19 15-21 9-23-1-26-11-21-9 26 0 24 6 25 11 26 15 19"/>
<path d="M5473 42075l-2-2-15-22-20-16-24-13-26-7-28 0-25 5-25 10-27 15-21 20-16 28-13 24-8 29 0 30 9 25 24 13 27 1 25-7 28-12 23-13 17-17 14-22 4-24-11 21 10 26 16 24 21 20 22 15 22 13 28 6"/>
<path d="M6340 42027l 1-3 4-27 3-25 3-25-9-25-24-14-26 3-22 14-24 21-17 20-18 24-15 25-13 23-11 28-7 25-4 25 3 29 9 27 19 20 24 8 29-7 25-14 22-13 18-17 24-21 16-21 11-22 2-26-7-24-2 25 4 25 5 26 7 25 10 23 12 24 15 20 25 12"/>
<path d="M6658 42024l-2-2-5-25-12-22-26-8-25 8-21 19-19 25-13 20-15 24-11 22-11 22-8 25-2 28 11 23 25-5 23-12 23-15 24-18 22-22 20-20 17-22 9-24-17-17-20 18-3 26 0 28 7 28 14 20 20 22 22 13 27 3"/>
<path d="M7015 42013l 0-2 2-27-1-26-15-22-22-15-28 3-25 12-22 16-18 18-15 19-18 26-11 23-9 30-6 24-3 24 5 24 16 19 26 3 29-8 25-14 23-19 22-21 20-22 14-23 9-22 4-26-22 10-4 26 0 25 2 26 6 24 15 21 19 20 24 6"/>
<path d="M7139 41584l 0-1 5 24 9 25 9 23 8 32 6 26 5 29 6 29 4 35 3 35 2 25 1 26 0 28 0 28 0 25-1 26-1 26 0 33 2 31 0 24 0 27 0 24 1-24 4-31 4-24 4-27 5-23 7-27 11-26 16-19 23-6 25 0 25 3 24 3 21 13 17 23 8 28-1 27-4 25-10 25-13 27-16 23-22 16-25 12-29 4-25 2-27-2"/>
<path d="M8273 41972l 1-3 5-24 7-26 8-23 2-25-9-23-19-18-22-10-28 4-24 13-24 11-19 16-20 22-21 29-18 27-17 29-16 32-12 30-8 29-5 27 0 24 8 27 19 19 24-1 24-10 27-16 26-19 18-17 18-19 17-21 14-20 12-21 9-27-5-25-26 7-9 22-6 27-4 29 0 25 4 26 9 27 17 24 24 17 21 11"/>
<path d="M8538 41949l 1-4 3-27-1-27-8-25-20-15-27 4-23 13-19 17-18 25-13 22-13 24-13 26-10 27-8 29-4 25 0 31 7 24 25 12 28-9 22-12 23-18 17-19 20-23 14-21 13-26 9-26 3-25-4-24-14 20-7 27-2 30 5 28 8 27 10 23 13 23 20 17"/>
<path d="M8661 41466l-1 0 6 27 5 30 4 29 4 26 4 27 5 28 5 31 3 25 4 26 4 27 3 30 2 30 4 29 2 33 2 29 2 30 1 32 1 28 0 30 0 26-1 24-1 32-1 24-2 25-6-27-4-30-2-26 2-28 3-30 9-28 11-22 16-20 20-16 22-10 29-1 28 2 25 5 21 14 15 20 10 25 5 29-4 25-8 25-11 25-13 25-15 25-16 22-20 19-21 17-24 17-26 9-29-1-23-9"/>
<path d="M9238 41958l 0-1 2-24-11-22-18-19-25-10-27 3-22 12-20 15-20 19-15 22-13 21-11 28-7 29-5 24-2 29 2 24 10 24 17 20 23 11 26 1 25-8 25-13 21-20 18-17 16-18 14-22 15-25 11-25 8-28 2-28-5-24-21 18-8 25-6 25 0 27 8 28 13 21 14 23 17 21 23 16 26 10 25 3"/>
<path d="M10146 41990l-1-5-3-25-3-27-7-26-12-22-26-6-23 13-19 17-18 20-18 21-15 22-10 22-9 26-1 28 7 24 13 21 24 11 24 1 27-7 24-19 16-19 12-22 9-24 7-26-2-27-11 21-2 25 3 26 9 25 18 18 23 8 25-2 22-12"/>
<path d="M10533 41899l 0 0 5-23-10-25-18-16-25-4-25 7-25 16-19 17-16 20-14 25-12 29-9 29-3 29 4 27 14 20 24 13 28 0 24-13 24-18 22-16 14-23 7-24 2-26-14 22 3 26 9 26 12 23 20 16"/>
<path d="M10616 41509l-1 0 6 24 4 29 4 31 2 25 2 28 3 32 3 32 4 34 3 33 4 31 2 31 4 29 2 29 2 27 1 26-1 25 0 32 0 27-1 26 0-29 4-31 7-31 7-23 9-28 11-21 17-21 22-11 27 4 26 9 25 10 22 15 13 22 3 26-8 26-14 25-17 25-20 22-23 19-26 14-24 3-17-18"/>
<path d="M10892 41496l-1-1 6 24 7 26 7 31 8 33 3 25 6 27 4 31 5 30 3 34 4 33 2 32 1 37 1 30 2 29 1 28 2 33 0 33 1 28-1 28 9-24 6-27 10-22 12-23 17-24 18-19 23-16 27-10 25 0 25 5 18 18 12 22 5 23-4 25-9 24-11 25-16 23-17 18-25 12-23 6-24 0-24-7-23-12"/>
<path d="M11922 41951l 0-2 2-27 3-25-5-26-14-21-22-11-25 1-22 11-24 18-19 18-18 20-17 22-14 23-14 27-7 24 0 27 21 15 29 0 24-9 25-12 24-13 21-16 19-17 14-19-11 25 0 27 7 24 15 21 24 3"/>
<path d="M12208 41923l 1-3 9-24 5-25-10-22-22-14-29 2-27 9-21 14-19 21-17 24-13 27-12 29-5 23 7 25 27 5 25-4 27-8 25-13 19-15 15-22 5-24-7 26 0 25 5 27 8 27 12 22"/>
<path d="M12344 41487l 0 0 15 23 15 23 12 25 10 24 6 28 6 31 5 35 3 26 4 27 3 26 3 24 1 25 2 25 1 35 2 36 0 30 0 27-2 26-8 23 0 26-5-26 0-26 3-26 3-27 4-27 11-25 13-21 18-20 25-12 26 1 28-3 26 3 25 12 21 18 15 22 7 23-1 29-5 24-11 25-14 25-16 27-17 23-18 18-21 13-26 8-27 0-26-10-21-17-9-25"/>
<path d="M12895 41833l-1 0-25 1-22 12-22 17-19 19-19 21-13 22-12 24-8 24-4 24 0 25 9 25 13 21 19 16 24 10 28 2 29-2 32-8 24-10 23-13 23-12"/>
<path d="M13998 41854l-1-2-9-25-7-24-15-21-20-17-26-3-24 13-21 19-20 27-15 26-12 27-10 26-9 32-3 30 1 27 8 25 18 18 26 0 24-12 21-18 20-23 16-24 13-22 12-25 8-24-4 28 0 26 4 25 8 28 12 25 19 16"/>
<path d="M14122 41420l 0-1 1 25 4 30 4 28 5 30 7 36 4 24 3 26 3 25 2 27 2 29 1 29 1 31-1 28 0 26-2 26-2 24-2 33-3 29-3 26 0-28 4-27 8-26 14-24 17-20 20-17 23-9 25 3 26 12 24 18 16 17 19 23 14 22 8 24 0 26-9 25-16 25-18 20-22 13-26 9-27 6-23-6-23-12"/>
<path d="M14698 41892l 0-1 2-25 2-26-10-23-15-20-26-7-29 4-22 11-21 17-20 23-14 21-14 23-12 23-10 22-9 23-8 29 0 27 9 23 27 4 27-5 26-13 20-16 20-16 20-16 21-21 15-20 12-23 7-24-16 23-7 25 1 27 8 26 18 19 21 10"/>
<path d="M14917 41839l-2-5-15-23-16-21-25-6-27 10-23 20-17 23-16 26-10 22-8 28-5 27 6 25 25 11 27-3 21-12 21-14 19-16 19-22 17-22 10-22-11 26-3 28 2 27 8 25 17 22 23 18 26 8"/>
<path d="M15621 41816l-1-2-10-23-9-23-16-19-27-3-25 8-26 14-20 17-21 21-15 25-12 23-8 23 4 25 23 14 24-2 24-6 25-11 23-14 22-18 17-21 12-23 8-25-20 18-6 25-1 28 7 25 12 22 21 14 26 3"/>
<path d="M15813 41361l 0-1 3 29 3 29 2 33 1 25 2 27 1 26 2 28 3 27 3 28 3 28 3 26 2 26 5 35 3 32 3 31 2 24 1 26 1-31 7-24 13-23 20-16 23-13 25-7 26-4 27 4 24 11 20 16 11 23-1 27-11 22-16 23-22 20-25 17-22 12-22 11-28 2-28-6-28-7-22-10"/>
<path d="M16279 41732l-2-5-8-23-17-17-26-5-26 7-24 13-20 15-19 18-19 20-20 24-13 20-10 22-7 28 16 19 28-4 25-12 28-14 22-13 19-14 23-16 17-17 16-19-12 21-1 25 9 25 14 19 22 13 26 4 24-6"/>
<path d="M16375 41405l 0-2 6 26 4 24 5 28 8 29 8 33 7 35 4 36 4 24 3 25 2 27 1 26 1 33-1 29-3 27-3 28-7-27 0-28 4-25 9-25 13-22 18-19 23-12 28-3 24 5 27 10 23 11 17 17 11 23 2 26-12 21-22 19-24 17-27 8-28 0-27-1"/>
<path d="M17341 41705l 1-2-1-24-20-13-25 9-23 15-25 19-23 21-20 21-18 25-11 21-9 27 7 25 27 1 26-8 23-10 25-12 24-13 24-15 20-18-10 26 8 24 15 21 28 4"/>
<path d="M17462 41274l 0 1 2 24 4 29 5 29 6 31 6 36 4 24 5 25 4 26 3 28 3 26 3 28 0 28-1 29 0 26 0 24 1 34-1 29-2 27-1 25-5 25-12-23-1-27 5-28 7-24 14-25 19-17 20-15 24-11 26 1 25 4 26 11 23 9 17 18 9 23-5 24-18 22-26 17-21 11-29 12-28 6-25 4-28 2-23-9"/>
<path d="M17911 41716l 1-3 0-25-3-26-15-19-25 1-25 12-25 15-21 19-16 21-14 20-4 24 17 22 27 3 27 0 27-6 23-10 20-18 4 25 15 21 19 16 21 14"/>
<path d="M18237 41646l-2-2-23-7-24 11-21 15-18 16-17 18-15 20-14 22-11 22-8 24 2 25 19 19 28 8 25 0 27-3 31-4 31-2 29-7 25-8 25-9 24-9"/>
<path d="M5510 43060l 0-2 1-26 0-25-6-24-19-15-24 1-27 11-25 20-19 19-16 24-14 25-12 25-9 25-7 24-4 24 1 29 6 28 16 18 26 2 27-7 22-15 22-13 16-20 7-23 20 16 10 22 14 24 16 20 19 16"/>
<path d="M5630 42798l 0 2-1 28 3 25 5 23 4 27 5 30 3 30 2 24 4 34 3 35 5 32 2 29 3 29 1 24-1-25 1-27 0-25 9-23 17-22 24-2 25 4 27 9 24 12 19 15 14 23 3 24-10 26-13 26-17 18-18 18-23 16-26 9-27 2-25-6"/>
<path d="M5874 42735l-1 1 0 28 5 26 5 27 5 32 6 34 5 23 4 24 3 26 6 29 2 29 3 31 3 29 3 27 3 25 3 33 0 24 1 25-7-28-4-28-3-24 0-29 10-28 15-22 22-10 26-9 25-4 26 3 26 4 24 11 19 19 8 23-3 25-10 25-13 26-15 19-19 15-21 13-28 11"/>
<path d="M6413 43030l-4-4-24-9-25-1-27 6-26 13-25 11-27 13-21 19-16 20-10 22 6 26 19 20 25 12 30-1 27-11 20-17 13-21 1-25 7 23 15 24 18 22 26 14 24 11"/>
<path d="M7509 43045l-2-2-16-18-25-9-27 2-27 14-19 15-18 21-17 28-14 29-10 32-8 31-2 31 1 28 4 24 9 27 16 18 25 5 26-9 21-19 16-22 12-21 10-26 7-24 17 21 10 25 13 20 15 24 22 13 26 5"/>
<path d="M7587 42754l 0 1 0 27 2 26 5 32 5 31 6 36 4 25 4 30 2 31 2 31 3 31 0 30 5 28 1 24 2 29-1 24 3 27 6-24 8-25 11-25 15-22 18-20 22-13 25 0 23 8 24 11 22 13 15 21 5 24-4 25-8 24-13 21-16 20-19 19-26 11-24 5-25 2-24-6"/>
<path d="M7862 42762l 0 2 8 25 7 30 5 30 7 36 4 27 5 29 4 28 5 27 5 27 7 25 4 25 7 33 5 29 6 24 5 26 5 26-20-16-10-24 2-27 5-24 12-22 18-21 21-17 23-8 24-4 22 10 18 18 18 21 8 26 3 26-2 24-8 25-14 28-17 27-16 25-18 19-21 17-26 1-19-17-8-22"/>
<path d="M8231 42724l-1-1-1 30 6 32 6 31 7 34 5 26 6 28 5 31 5 31 6 31 4 32 6 31 4 31 3 28 4 32 3 30 2 28 2 25 2 24-7-28-7-28-5-29-3-27 2-25 9-25 18-21 24-11 27-7 30 1 25 4 27 13 18 16 14 24 2 26-3 32-6 26-10 26-13 21-20 16-23 8-30 2-28-4-24-8-22-13"/>
<path d="M9329 42991l 0-2-8-24-19-16-25 0-24 7-21 12-20 13-19 18-15 22-14 28-10 31-5 29 0 26 12 25 25 9 27-5 27-11 22-11 15-22 21 13 11 24 13 20 22 15"/>
<path d="M9355 42753l-1-1 16 22 13 26 10 23 10 27 9 29 10 32 9 36 7 35 6 34 4 31 4 34 1 33 1 29-1 27-1-28 2-32 5-28 7-27 10-27 15-21 20-16 28-3 28 1 26 6 23 13 18 18 4 26-7 26-13 23-16 19-19 15-21 13-21 11-28 5-25 1-25-4"/>
<path d="M9682 42609l 0-1 15 24 7 28 7 29 6 34 7 32 5 37 5 25 4 27 2 24 6 35 2 24 2 33 0 31-1 25-3 25-5 26-4 25 3-26 3-24 4-26 5-29 6-26 7-26 9-24 13-20 25-8 25 3 21 13 21 15 17 18 15 19 7 25 0 25-9 25-10 25-15 25-20 22-24 19-25 15-25 10-23 6-27-1-23-12-3-27"/>
<path d="M10163 42896l-3 0-24-6-25 9-21 12-23 19-23 20-19 23-12 26-10 26-7 26-3 30 3 25 14 20 20 15 25 12 28 7 31 6 26-2 30-7 32-10 34-10 24-10 24-12 24-12 23-14"/>
<path d="M11176 42890l 0-3-8-25-14-22-26-5-25 10-20 16-21 21-16 20-15 21-14 24-12 22-11 29-4 24 8 23 27 11 23-6 21-12 22-13 20-17 23-20 17-17 11-23 0-26-22 14 3 27 10 26 13 21 21 17 25-1"/>
<path d="M11244 42514l 0 0 1 29 3 27 4 31 4 36 3 25 2 28 3 28 1 30 2 30 2 31 2 31 3 28 1 28 2 26 2 32 1 30 3 31-2-32 0-26 0-26 0-26 0-24 1-26 5-24 20-16 24 3 24 10 27 9 25 12 20 16 13 22 3 25-9 27-14 23-15 23-18 17-23 13-26 3-25-4"/>
<path d="M11681 42787l-1 0-26 5-24 14-22 14-19 16-21 18-19 20-16 24-12 26-6 24 2 27 18 20 22 10 30 5 28-2 30-7 31-10"/>
<path d="M11909 42847l 0-2-1-25-12-21-25 3-25 15-23 19-17 21-15 20-17 27-8 23-5 30 0 26 6 25 25 9 24-7 22-13 21-17 18-19 19-23 13-21 10-24-23 12-4 26 2 27 8 25 12 21 15 23 19 17"/>
<path d="M12786 42802l 0-1 2-25-13-22-26 0-24 10-22 15-19 18-18 19-16 20-15 22-14 28-13 27-9 25-7 29 2 28 19 18 25 0 24-10 23-17 22-19 19-20 18-17 15-20 13-25 6-23 0-24-6 23-4 28 1 27 4 25 11 22 22 12 26-2"/>
<path d="M12892 42498l-1-1-13 23 0 32 3 30 6 34 6 34 4 25 4 26 4 28 4 27 3 28 3 26 2 27 1 27 1 26-1 28 0 33-1 25-2 27-5-26 6-28 8-27 10-24 13-22 15-23 18-16 23-9 24 0 22 10 21 17 8 27-2 28-10 24-13 24-18 22-17 18-25 15-24 7-25-3-21-16"/>
<path d="M13239 42781l-1-1-23 6-21 18-17 20-19 23-15 21-13 27-8 31-1 30 3 28 9 25 20 16 28 4 27-7 25-9 28-10 30-16 29-15"/>
<path d="M13314 42484l 0 0 15 25 12 27 9 26 10 30 8 34 4 25 4 26 2 29 2 29 1 26 2 26 1 35 0 34 0 31 0 29-2 24-3 29-5 25 0-25 4-28 3-27 5-26 8-24 14-23 16-18 23-13 26-6 26 2 26 8 24 12 17 17 12 23-8 24-12 22-14 20-16 21-16 18-24 19-20 14-28 9-29-2"/>
<path d="M14341 42818l-1-1 4-24 8-27 2-24-6-25-18-17-25 1-26 12-24 20-20 20-21 21-19 24-17 26-13 30-9 31-5 29-1 27 3 28 15 22 25 8 28-6 24-13 23-16 20-18 14-21 13-24 12-25 0 25 6 25 12 24 23 13"/>
<path d="M14454 42458l-2-2-12 23 2 32 2 29 2 32 2 37 1 26 1 28 2 31 0 31 1 31 2 33 1 29 0 27 0 26-2 35-2 31 0 28-5 25-4-26 3-30 6-33 5-28 4-26 7-27 13-23 17-16 24-9 25-3 30 3 29 3 25 3 22 14 8 26-5 28-10 23-18 25-21 24-19 16-19 16-24 19-22 12-27 4-21-11"/>
<path d="M14923 42711l-2-1-26-7-27 6-22 13-20 18-22 23-19 23-13 25-11 25-5 26 1 26 9 23 21 17 22 14 28 3 29 0 30-2 31-8"/>
<path d="M15199 42692l 0-1-27-2-22 14-22 12-20 20-20 19-16 20-15 23-12 27-4 26 3 27 7 25 15 23 23 14 24 5 31 1 28-3 33-8 33-10"/>
</svg>
