<svg xmlns="http://www.w3.org/2000/svg" viewBox="849 1269 12576 18888" stroke="black" stroke-width="20" stroke-linecap="round" stroke-linejoin="round" fill="none" data-xena="1 -1 0"><style>@media(prefers-color-scheme:dark){svg{background-color:black;stroke:white;}}</style>
<path d="M1144 2357l 28 3 23-9 20-15 22-20 21-26 14-20 11-22 10-22 10-22 12-31 9-28 9-29 4-26 1 26-1 26 0 36-1 29-1 32 0 36-2 37-1 39-2 40-2 40-1 37-2 35-3 31-3 29-3 24-3 29"/>
<path d="M1350 2010l 20-16 24-12 27-6 30 5 23 10 22 14 19 19 16 21 8 24-2 30-9 27-17 33-13 25-16 25-17 26-19 25-19 21-18 20-25 22-27 13-21-15"/>
<path d="M1589 2156l 24-5 22-9 23-11 23-15 17-19-3-27-18-16-27-14-27-6-24 7-19 18-13 21-12 30-6 23-5 25-1 25 1 24 8 34 11 29 17 26 18 19 29 12 25-1 28-9 29-17 20-15 19-20 20-21"/>
<path d="M1816 2004l 26-6 23-9 26-10 24-8 26-3 5 27-12 24-14 22-15 24-15 26-15 27-10 22-9 25 0 24 22 16 29-7 23-14"/>
<path d="M2091 1966l-12 24-8 28-5 27-5 30-3 31-1 28 6 26"/>
<path d="M2068 1812l-26 5-1 27"/>
<path d="M2230 2036l-9 24-1 27 6 28 14 22 21 16 24 4 25-10 20-17 16-25 10-28 0-27-8-25-19-20-21-14-22-10-29-6-28 7-20 14"/>
<path d="M2541 2007l-24-11-24-1-23 13-18 18-18 23-15 28-10 29-6 27-2 24 6 28 21 11 24-5 20-15 21-20 20-25 18-31 9-22 9-25 8-25 6-29 4-31 3-34 0-36-3-37-5-39-7-39-9-39-10-35-9-32-9-27-8-23-13-24-15-22-20 18 0 27 3 26 5 32 8 37 9 42 12 46 6 24 12 45 6 24 12 43 12 39 13 34 12 30 12 26 11 24 16 30 16 25 15 20 15 19"/>
<path d="M3415 1669l 1 30 2 31 0 25 0 28 0 29-1 30 1 31 1 31 1 31 1 32 1 31 0 31 0 28-1 26-2 33-1 24"/>
<path d="M4122 1939l 27-9 30-5 26-3 28-5 31-7 28-7"/>
<path d="M4171 2021l 26 3 25 1 31-3 28-5 31-9 31-13 31-17"/>
<path d="M4378 1812l 27-3 25 1 25 4 24 8 17 20-4 27-8 24-12 28-13 25-13 23-12 22-16 25-15 22"/>
<path d="M5241 1682l 1 29 2 27 2 28 3 29 3 25 0 28-2 26-8-24 2-31 5-26 7-26 7-26 9-23 8-23 14-29 15-23 16-19 20-13 26 2 19 21 9 26 4 26 2 25 0 27 0 26 0 25 0 31 2 26 3 24"/>
<path d="M5692 1429l-9 28-10 28-8 25-10 29-13 32-14 37-15 41-16 44-8 23-8 24-8 23-10 24-8 23-9 23-10 23-17 44-9 23-17 43-15 41-13 38-11 34-8 29-5 25-5 25"/>
<path d="M5620 1790l 24-9 29-6 26-4 25-3 32 2 24 7 19 18 4 30-8 26-14 33-14 25-15 27-17 27-18 27-18 26-20 25-18 22-16 20-17 23-9 23 24 10 28-3 24-4 26-4 27-5 27-7 28-7 23-8"/>
<path d="M5093 1451l-24 11-17 23-13 26-10 23-10 27-11 30-12 34-11 39-11 43-10 47-4 25-5 25-3 26-5 27-3 28-3 28-2 28-1 29-1 30 0 29 0 30 2 30 3 29 4 29 4 28 5 28 7 27 6 27 8 25 8 23 9 23 21 41 28 36 31 29 34 23 39 16 41 10 42 5"/>
<path d="M5881 1486l 13 24 17 27 16 24 21 30 14 22 13 23 14 25 13 26 14 25 13 28 11 27 10 27 9 28 6 30 5 31 4 34 1 38-1 40-5 40-6 41-8 39-8 37-8 34-9 29-8 23-10 23"/>
<path d="M6089 1501l 21-12 28-3 25 0 27 0 25 1 29 5 23 10 8 24-14 25-20 24-17 17-19 19-18 20 8 24 26 7 26 3 25-3"/>
<path d="M6893 1914l-23-9-21 20-17 22-18 26-17 25-11 25-10 25-7 26 2 24 11 29 19 18 30 5 31-9 22-13 24-18"/>
<path d="M7022 1559l-19 16-2 25 2 30 5 28 4 30 6 34 5 36 5 37 4 40 4 38 2 39 2 37-1 34-3 32-3 25-7 27 7-27 14-31 12-23 12-22 13-21 19-28 18-22 17-18 20-19 23-9 1 24-6 33-6 31-5 31-4 30 2 29 19 15"/>
<path d="M7304 1906l-20 20-9 22-4 27 2 25 14 20 24 10 27-3 22-11 18-17 12-27-3-29-17-19-26-14-24-6-28-3-27 4"/>
<path d="M7498 1849l-5 26 1 26 3 26 4 26"/>
<path d="M7494 1731l-25-8"/>
<path d="M7703 1853l-20 15-20 22-19 26-14 24-11 24-10 23-8 26 1 24 23 15 29 0 30-7 31-10"/>
<path d="M7867 1921l 26-6 24-12 24-15 18-19-1-26-28-8-26 3-26 11-23 18-19 24-12 26-3 28 7 24 19 16 27 9 24 2 27-1 27-5 26-10 24-13 22-18 19-19 17-26 9-23-1-26-23 5-7 27 7 24 14 21 19 24 20 22 18 19 14 25 3 25-9 27-17 18-24 11-27 7-26 4-25-2 28 0 28 1 30-1 31-2"/>
<path d="M3208 3174l 23-10 26-3 32 2 28 6 33 7 24 7 24 7 33 13 26 15 18 17 10 28-3 27-11 35-13 25-16 30-21 28-24 31-28 31-29 31-30 31-29 30-28 30-28 28-25 27-22 22-19 17-18 17 30-10 23-8 26-8 30-8 32-8 32-7 34-6 33-6 31-4 30-4 25-3 35-1 30 0 30 4 25 11 17 20"/>
<path d="M3947 3373l 24-5 27-3 30-6 30-7 25-5 28-7 28-7"/>
<path d="M4009 3440l 25-7 29-5 31-6 27-4 27-4 25-5 29-7"/>
<path d="M4161 3230l 25 14 29 9 26 7 27 7 25 9 28 13 23 16 17 23 4 25-7 23-13 22-19 23-18 16-20 16-22 13-21 13-26 16-22 14"/>
<path d="M4937 3399l 26 9 18 21 15 26 8 27 5 32 2 24-1 25-2 27-5 28-6 25-6 25-10 29-10 27-13-21 5-35 6-28 7-31 10-34 11-35 12-35 12-32 12-30 13-28 13-25 12-22 12-20 16-25 19-22 25-10 25 11 17 20 11 21 10 24 10 24 8 29 6 33 3 25 2 28 1 29 0 29 1 28 0 26 1 25 0 33 0 25 10 22"/>
<path d="M5475 3354l"/>
<path d="M5728 2971l-22 18-10 24-9 22-11 27-12 34-15 38-14 43-6 24-6 24-6 25-5 25-4 26-4 26-3 25-3 24-2 24-2 46 0 42 4 39 6 34 8 31 10 28 12 26 14 24 14 20 22 26 23 21 22 15 21 12 27 11"/>
<path d="M5812 3081l 11 25 9 24 9 31 5 26 3 28 2 26 0 28 1-35 6-30 7-33 8-34 10-32 10-28 11-24 17-29 15-22 17-20 22-11 23 16 10 28 4 32 2 25 2 25 0 27 1 26 1 25 1 31 3 25 6 26"/>
<path d="M6234 2899l-16 21-6 24-8 35-6 28-6 32-9 35-9 39-10 42-11 47-7 24-6 25-5 26-7 26-6 26-7 26-7 25-6 25-6 24-12 45-11 40-8 34-7 30-8 32"/>
<path d="M6257 3325l 29 6 26 8 24 11 24 14 15 22-9 24-19 26-21 23-24 24-26 23-25 23-20 20-18 20 20 15 25-4 29-5 31-7 31-9 31-10 28-13 24-14"/>
<path d="M6490 2879l 5 26 13 23 19 28 17 22 20 23 20 25 20 28 19 30 16 33 16 35 14 37 11 39 9 42 7 43 5 44 4 46 2 45 3 45-1 42-3 40-5 35-9 33-8 30-10 27-13 24-15 20-20 15-32 15-26 3"/>
<path d="M7378 3351l-25-4-24 15-19 16-19 22-20 24-19 28-15 33-10 22-7 24-8 35-1 34 6 32 13 25 19 15 27 5 37-9 29-13 31-18"/>
<path d="M7504 3034l 14 29 10 37 7 30 5 34 5 36 5 40 4 43 2 45 1 44-1 43-3 38-3 35-7 29-5 23-8 24-4-31 11-34 10-24 12-22 19-30 20-25 18-21 23-20 25-9 19 22 7 30 2 28 0 30-1 31 0 28 6 26 25 10"/>
<path d="M7874 3377l-20 21-12 25-9 26 0 28 17 20 25 6 28-7 25-12 22-13 23-20 10-25-3-28-11-21-21-19-27-12-26-4-24 9"/>
<path d="M8119 3335l-5 24-5 25-1 25 1 25 6 24"/>
<path d="M8116 3223l"/>
<path d="M8366 3326l-27 1-22 19-18 21-15 19-17 23-15 23-12 24-8 27 4 28 18 21 28 8 24 2 26-1 29-6 30-10"/>
<path d="M8537 3344l-17 17 22 16 26 2 25-9 21-13 19-22 12-23-8-26-25-6-24 8-24 16-16 20-15 23-11 25-8 31 4 27 15 21 23 13 29 4 26-3 29-7 31-11"/>
<path d="M8839 3311l-24-6-23 11-19 19 12 20 24 10 28 7 26 8 25 7 22 13 18 16-2 28-18 24-20 19-21 13-22 10-29 7-26 1-23-5-22-9"/>
<path d="M9384 3257l 25-6 29-8 25-6 25-4 29-2 31 0"/>
<path d="M9989 2824l-21 14-13 21-15 29-11 24-12 28-14 32-13 38-13 43-14 47-5 25-6 25-6 25-5 25-5 25-3 25-3 25-2 25 0 45 4 44 6 40 9 36 11 35 14 30 14 28 17 24 15 21 17 18 26 24 26 18 23 15 25 10"/>
<path d="M10066 2908l 9 23 10 28 7 24 5 25 6 26 3 25 3 30-2 25 5-30 8-30 7-25 10-24 9-25 10-23 11-23 15-29 17-26 15-21 18-19 24-11 25 12 11 27 3 27 3 33 0 34 1 24-2 36-1 34-1 32-2 24 3 27"/>
<path d="M10601 2858l-25 21-15 24-16 31-12 26-14 31-17 35-17 38-23 43-11 22-11 23-11 22-11 23-11 23-12 23-10 24-8 22-10 23-17 42-14 39-10 34-8 27-4 28"/>
<path d="M10546 3229l 26 1 27 5 25 6 20 16-4 24-13 22-14 20-18 21-22 21-21 20-17 17-15 20 25 5 25-6 30-8 34-10 35-12 33-13 31-12"/>
<path d="M10727 2756l 19 21 25 23 20 15 21 17 22 19 24 19 22 20 22 22 20 21 18 24 16 25 15 28 13 28 11 31 8 32 5 34 0 36-1 37-3 38-6 37-5 37-10 35-9 33-12 32-11 28-12 26-11 23-15 28-17 19"/>
<path d="M11044 2690l 25-1 26 6 24 9 24 12 16 18-11 25-20 17-23 17-19 16-17 18 26 8 30 2 30 2 34 2 31 5 29 7"/>
<path d="M2396 5418l 10-24 21-15 23-8 30-5 28-1 24 1 27 2 26 4 25 5 22 10 25 16 19 21 14 30 5 29-1 36-4 26-8 29-10 30-14 33-18 32-22 33-23 30-23 30-23 27-22 24-22 22-22 21-23 18-23 18-22 15-20 14-25 14-23 9-25-2 13-23 25-18 27-14 25-9 30-7 30-5 30-4 29-2 29-1 29 0 28 2 26 3 24 5 28 8 25 10 24 10 21 12"/>
<path d="M2874 5011l 10 25-6 25-6 24-9 29-6 28-3 27 12 22 27 4 27-2 27-4 26-6 24-7 23-11 22-11"/>
<path d="M2985 5032l 1 26 4 25 5 28 4 25 3 28 2 28 1 25 0 28"/>
<path d="M3707 5641l 10 25 6 32 3 32 2 25 1 28-1 31 0 33 0 34-2 36-2 37-2 36-2 37-2 35-2 33-3 30-3 32"/>
<path d="M3691 5705l 6-26 14-22 21-15 29-13 27-8 30-6 29-4 25-1 27 6 18 17 8 26-1 25-8 31-9 24-11 23-14 24-15 23-16 20-18 17-25 21-23 14-25 8"/>
<path d="M3988 5707l 24 11 27-9 22-11 23-17 20-18 15-25 2-25-23-14-26-1-28 6-28 15-22 17-17 21-11 23-8 25-3 26 4 28 8 25 12 22 24 20 30 10 24-1 26-9 27-15"/>
<path d="M4194 5594l 26-8 27-6 31-5 27-3 24 3 2 29-8 23-14 28-16 28-18 30-18 30-16 25-9 28 3 27 23 11 25 1 27-6 22-9 22-14 22-18"/>
<path d="M4469 5646l-9 25-5 24-4 28 1 29 10 23"/>
<path d="M4463 5462l-23 11"/>
<path d="M4600 5662l-4 27 0 24 5 27 13 25 18 16 24 8 27-4 23-14 19-16 11-23 3-25-8-28-17-18-28-12-28 4-24 9-23 18"/>
<path d="M4915 5644l-29 4-20 13-18 19-16 25-13 29-8 25-5 24-1 28 8 25 23 11 25-7 25-15 25-22 17-19 16-21 13-23 12-25 10-27 10-30 8-30 7-33 4-32 1-34-2-34-3-37-5-37-7-36-6-35-5-29-7-32-10-24-21 13-7 24-5 35-2 29-2 34 2 38 1 41 3 44 4 44 5 42 7 39 8 34 9 27 10 23 17 26 16 20 20 17 24 8"/>
<path d="M5446 5214l 6 28 7 31 5 24 6 27 5 30 5 32 5 37 4 39 4 42 5 44 4 45 4 42 3 39 3 35 2 32 1 29 2 25 0 27"/>
<path d="M2143 6784l 20-16 26-9 27-3 25-1 30 0 32 2 31 4 32 8 28 11 25 15 20 20 10 26 1 34-4 27-7 28-11 30-12 32-14 30-15 29-17 28-18 26-19 26-20 24-21 24-20 21-21 20-19 17-28 21-24 18-21 14-25 13 28 3 25 4 30 4 25 1 27-1 27-1 28-3 28-2 27-3 27-2 26 0 25-1 27 1 28 4 25 7"/>
<path d="M2650 6516l-26 1-22 17-17 19-14 19 14 20 24 8 25 7 27 8 28 10 24 10 19 16 12 21 3 28-3 25-9 27-13 23-17 17-25 13-26-4-25-20-16-23-12-27-5-29 1-30 5-30 9-28 13-27 15-23 17-22 19-17"/>
<path d="M2890 6955l 24-11 24-3 30-1 29-1 24 0"/>
<path d="M3240 6723l 24-14 27 0 31 4 27 5 27 6 25 8 22 10 24 16 17 23 8 24 0 32-3 27-8 28-11 30-14 32-17 32-18 33-21 31-22 29-24 27-23 25-23 24-21 22-20 21-18 18-23 20-20 13 30-9 24-7 26-7 28-9 28-8 30-8 27-7 30-5 24 0 23 9 23 9"/>
<path d="M3616 6527l-3 25-1 26-7 27-10 25-1 26 23 7 27-4 24-4 26-3 27-4 24-6"/>
<path d="M3718 6556l-12 21-1 27 0 28 2 32 2 26 3 27 4 28 5 27"/>
<path d="M4114 6866l 29-5 25-7 24-7 26-10 28-7 28-4 25-2"/>
<path d="M4196 6953l 25-9 26-8 25-8 29-8 28-8"/>
<path d="M6102 5411l 27-6 29-4 28-4 32-4 30-4"/>
<path d="M6189 5480l 22-11 26-4 30-4 24-3 27-2 26-2"/>
<path d="M6677 5146l-1 26 3 25 4 25 3 29 4 34 1 25 2 28 2 29 1 31 2 31 1 30 1 28 1 25 0 34 1 25 4 26"/>
<path d="M7026 5188l-19 23-12 24-6 25-4 28 0 34 1 25 2 25 4 27 5 25 6 25 6 24 13 29 15 22 20 14 24 11 30 0 27-11 22-19 12-22 4-29-11-24-22-21-24-11-27-4-27 4-24 10-21 12-18 18"/>
<path d="M4184 6861l 3 24 6 36 3 30 2 34 2 36 1 39-1 39-2 43-3 44-3 45-5 44-5 41-7 36-5 31-6 24-8 28"/>
<path d="M4168 6956l 7-25 18-22 20-19 26-18 25-13 29-12 29-9 26-3 31 3 24 12 19 20 10 23-3 29-8 25-14 30-19 30-15 19-24 25-25 21-25 18-25 12-25 7"/>
<path d="M4504 6964l 29-3 23-8 26-14 25-19 21-21 12-21-1-27-24-13-24 1-26 7-25 16-22 22-15 26-8 30-2 25 3 25 11 28 20 21 26 14 32 5 28-4 30-11 30-16"/>
<path d="M4771 6867l-9 24 5 24 8 30 6 28 1 28-5 24-21-14-6-30-2-27 2-24 10-30 13-21 16-18 18-18 22-15 25-15 26-12 25-9"/>
<path d="M5037 6823l-6 24-5 30-4 25-3 25-1 26 0 26 2 28"/>
<path d="M5061 6674l-14 23-2 24"/>
<path d="M5159 6886l-1 25 0 29 4 25 8 23 18 21 25 8 26-7 20-18 16-26 13-29 6-28-3-27-11-23-20-17-25-10-25-1-29 5-21 14"/>
<path d="M5508 6781l-26-4-25 3-23 15-15 24-12 28-9 26-4 26 0 28 15 26 26 9 28-16 20-20 20-30 13-24 11-27 12-30 9-31 8-33 7-34 6-34 3-33 2-34 0-34-3-32-2-28-2-25-4-26-18-17-13 21-9 26-6 34-3 26 0 32 3 35 4 40 6 42 7 44 8 42 10 39 10 36 11 31 10 27 12 22 19 27 23 20 21 12"/>
<path d="M6069 6523l 20-18 25 1 25 1 29 2 32 4 30 6 32 10 28 14 23 16 17 20 10 25 4 30-4 35-5 27-9 27-13 26-15 28-20 28-20 27-23 27-24 26-21 22-20 22-16 19-19 26-15 23 19 17 27-2 26-2 28-2 30-2 30-2 28-1 26-1 24-3"/>
<path d="M6602 6658l 26 6 25 1 27-2"/>
<path d="M6602 6738l 29 0 26-1 31-5 25-5"/>
<path d="M7009 6453l-14-20 21-15 24-2 25 2 27 4 29 4 29 6 31 7 30 11 25 15 19 19 13 23 5 29-5 36-8 26-12 29-15 29-19 29-21 29-22 29-23 27-24 27-24 25-24 25-24 25-24 22-23 20-18 15-22 18 27 8 28-3 28-5 29-5 31-7 33-6 32-5 29-4 25-1 26 0 25 1"/>
<path d="M7551 6439l-12 27-6 27-6 25-10 30-11 31-10 22-12 23-12 23-13 23-12 22-16 28-12 22-2 24 32-5 28-8 33-12 23-8 34-12 23-6 33-9 34-7 30-4 24-4 29-2"/>
<path d="M7669 6510l-17 22-7 29-6 30-6 33-3 25-3 25-2 29-2 28-3 29-1 29-1 26-1 25 1 30 7 26"/>
<path d="M7982 6558l-14 19-10 30-3 25-2 32 1 24 2 26 3 28 5 27 7 28 10 25 11 23 12 21 22 23 23 15 27 7 28 1 27-7 26-14 25-24 16-19 14-24 12-25 9-27 7-29 2-29 0-28-4-28-10-28-12-27-16-26-17-23-18-19-29-19-31-6-34 4-22 10-21 11-21 14-26 21-22 22-17 21"/>
<path d="M2181 8298l 1-26 12-23 15-20 22-10 25 0 28 7 26 8 26 11 26 13 28 16 25 18 17 17 15 19 11 23 5 26 0 28-3 31-10 33-9 25-11 25-15 28-15 25-16 26-17 26-18 24-19 24-18 23-19 22-18 21-18 19-17 18-23 23-21 20-24 19-22 12 23-17 27-8 25-6 27-4 28-3 25-2 24-2 25-2 29 2 27 2 25 3 24 4 24 5"/>
<path d="M2540 7928l-4 25 1 29 2 28 2 31 3 25 0 25 1 30 1 25"/>
<path d="M2676 7881l-6 26-5 25-5 31-2 27-1 29 0 27 3 26 7 27 14 22 27 6 22-13 13-22 6-25-9-24-20-13-29-5-26 8-22 15-15 19"/>
<path d="M2946 8467l 30-4 27-1 25-1 28-4 31-6 30-9"/>
<path d="M3369 8126l 25-6 27-5 24-4 27-4 28-2 27 2 23 8 25 18 13 29 4 29-2 36-5 27-7 28-12 31-16 30-17 31-20 29-23 27-22 24-23 24-23 22-22 21-20 19-20 17-25 19-22 16 28 5 29-2 31-5 32-5 35-7 23-5 36-6 33-3 30-1 26 2 24 5 28 11 21 12"/>
<path d="M3839 7987l-13-25-13-24-20-15-25 2-21 13-19 24-10 22-1 27 16 18 25 9 28 4 28 6 26 8 25 14 15 20 1 26-13 21-22 10-27-5-24-16-15-22 1-25 10-23 17-25 17-20 20-15 24-15"/>
<path d="M4313 8407l 4 27 4 29 1 25 2 29-1 32 0 35-1 38-1 38-2 38-2 37-1 36-2 33-2 32-3 27-2 26"/>
<path d="M4354 8407l 11-26 25-13 26-2 32 2 25 5 26 10 22 15 4 28-12 27-16 25-23 27-26 25-20 15-28 20-24 17-24 14"/>
<path d="M4634 8376l 21 12 25-3 23-10 26-18 22-21 12-22-14-22-26-2-26 5-24 12-21 16-18 20-12 21-9 29 0 29 10 28 17 21 25 14 30 6 27 0 27-6 28-10 28-15"/>
<path d="M4868 8278l 26-1 27-3 24 0 2 25-12 22-13 21-13 23-13 23-12 28-7 23 6 25 24 5 25-3 27-9"/>
<path d="M5093 8326l-14 25-10 23-4 26 4 27 25 6"/>
<path d="M5095 8193l-25-1-14 20"/>
<path d="M5213 8323l-16 19-4 29 4 27 12 24 18 20 25-3 17-17 13-26 6-27-2-28-19-20-24-7-26 5-23 10"/>
<path d="M5433 8314l-28-1-26 11-20 19-15 22-11 30-4 29 1 27 9 24 22 17 30-4 26-18 21-22 21-31 13-25 12-29 10-30 10-33 10-32 7-33 6-33 2-34-1-34-3-34-5-32-6-30-5-26-10-28-13-21-17 20-3 25 0 32 3 24 5 26 6 28 7 31 7 33 8 35 7 35 8 34 7 32 7 30 6 26 7 24 10 28 15 27"/>
<path d="M6256 7879l 9 24-8 30-10 25-11 31-12 34-9 26-10 26-8 27-7 26-5 25 0 32 6 26 17 25 28 16 29 6 32-2 36-6 26-6 27-7 26-7 25-9 25-8 31-13 27-13 23-14"/>
<path d="M6469 8026l-20 22-6 27-3 27-1 30 1 31 3 33 4 36 4 36 4 35 5 30 5 25"/>
<path d="M6814 8034l 26 1 25-1 25-2"/>
<path d="M6791 8143l 28-6 29 0 24 0 25-3"/>
<path d="M7269 7708l-21 14-6 30-4 25-7 31-6 26-6 30-8 35-8 38-10 42-9 45-8 48-3 25-3 25-2 26-2 26-1 24 3 46 5 39 10 34 13 27 15 23 19 20 27 19 31 8 37-3 26-7 27-11 25-14 24-17 23-20 19-21 16-21 15-31 4-26-9-29-19-15-28-10-30-5-30 0-30 5-31 8-29 10-23 12-25 16-18 20"/>
<path d="M7610 7868l 22-11 28-10 24-8 25-7 25-9 30-9"/>
<path d="M7627 7858l-13 24 1 29 3 29 5 29 4 30 6 28 10 23 24 7 27-9 24-11 29-10 24-8 25-4 32-1 29 4 26 9 21 16 12 25-1 31-6 28-10 30-14 30-19 28-23 25-26 21-28 18-31 15-30 13-27 7-28 5"/>
<path d="M8120 7838l 27 6 25 8 27 9 26 11 21 14 13 26-3 26-11 31-15 27-20 31-16 22-16 23-17 22-17 23-16 22-17 20-19 26-13 21 15 21 28-5 33-5 30-7 34-6 34-8 34-7 33-5"/>
<path d="M8582 7880l-17-25-21-20-25-10-28-6-26 1-28 9-21 22-10 26 4 31 14 23 23 20 30 20 21 12 23 12 22 11 22 10 30 16 25 17 19 20 16 23 8 26 3 26-5 25-15 23-20 18-28 11-33 1-25-3-25-5-22-9-30-16-21-23-14-25-3-30 4-32 12-31 17-30 15-20 17-19 20-16 23-17 24-15"/>
<path d="M8838 7847l-8 24-3 28 0 26 0 28 2 31 5 32 5 32 10 31 14 28 16 24 21 21 26 11 24 1 26-4 28-13 27-19 21-22 13-26 7-27 2-25-5-23-10-23-18-22-26-22-27-18-27-14-27-8-26-3-25-1-28 3-28 6"/>
<path d="M2063 9783l 3 27 1 25 1 25 1 34 0 28 1 32 1 37 0 42 1 47 0 25 0 27 0 27 0 28-1 30-1 30-1 30 0 31-2 32-1 33-1 34-1 34-2 34-1 34-1 35-1 34 0 34-1 34 0 34 1 34 0 33 1 35 2 35 1 37 1 36 3 39 1 38 2 40 2 41 2 41 2 42 2 41 2 42 2 43 2 42 1 42 2 41 1 41 1 41 1 39 0 40 0 38 0 38 0 36-1 35 0 34-2 33-1 32-2 30-2 29-2 26-3 25-4 46-5 38-4 31-3 24-5 29"/>
<path d="M2159 9785l-19-16 25 2 30 3 30 0 36 0 25 0 27 2 27 1 29 1 32 1 34 0 37 0 39 0 42 0 43-1 47-2 24-1 24-1 25-1 26-1 26-1 27 0 28-1 27 0 28-1 29 0 30 0 31 0 30 0 32 0 31 0 32 0 33-1 32-1 32-1 33-1 34-1 33-3 33-2 35-3 34-2 35-2 35-3 35-3 34-2 36-3 36-4 35-3 35-3 35-3 34-4 35-3 36-4 34-3 35-3 35-3 35-3 34-3 35-3 34-3 34-2 33-3 32-2 32-2 32-3 32-2 30-2 31-2 30-3 29-2 29-3 29-3 27-3 27-3 24-4 25-3 24-5 46-8 42-7 40-8 32-5 28-5 31-6 26-3-6 25 0 29 1 27 3 31 1 26 1 30 1 33 2 36 2 37 1 38 3 40 4 41 2 41 3 43 4 45 2 43 2 46 1 25 1 25 0 25 0 26 0 27 0 27-1 28-1 28-1 28 0 29-1 30-1 29 0 29-2 30-1 30 0 29-1 30-1 29-2 31-1 30 0 31-2 30-1 30-2 29-2 30-2 29-1 29-2 30-3 28-1 28-1 28-2 26-1 28-2 26-2 26-1 25-1 25-1 26-3 49-2 25 0 24-3 24 0 25-2 46-1 45 1 44-1 42-1 40-1 39 0 37-1 34-1 33 0 29-1 26-1 25 1 32 0 29 1 26 2 30-1 30 0 29 0 28-4 28-5 25-25-14"/>
<path d="M1974 12088l 24-1 27 5 25 5 30 5 28 3 29 2 35 2 25 2 28 1 29 2 31 1 33 2 35 2 36 1 39 2 40 0 42 0 45 0 46 0 47 0 24 0 25 0 24 0 25 0 26 1 26 0 27 0 27 0 28-1 28 0 30-2 30-1 32-2 30-1 33-2 32-2 33-2 32-2 34-1 32-3 33-2 34-3 32-2 33-3 32-2 33-3 32-3 31-2 32-3 31-3 31-3 30-3 30-2 30-2 30-2 29-2 29-1 28-1 29 0 28 1 29 1 28 1 28 1 28 2 28 2 29 2 28 2 27 3 27 4 28 3 27 5 27 4 26 5 27 4 25 5 26 6 25 5 25 6 25 5 24 6 24 6 46 13 46 13 43 12 43 10 41 10 39 10 36 8 33 8 31 7 27 6 26 6 25 3 30 5 25 2 25 0-10-23"/>
<path d="M2084 10839l 1 24 24 9 24 0 26 1 29 2 29 2 26 1 32 3 34 4 26 3 27 0 28 1 31-1 32 0 33 0 34 0 35-1 35 1 35 0 35 2 38 2 37 2 40 3 43 3 45 5 47 3 24 2 25 3 25 1 25 2 26 2 25 1 26 1 26 2 26 1 27 2 27 1 28 1 28 1 28 1 29 1 28 1 30 1 30 1 30 1 30 1 30 2 30 1 31 2 31 1 29 2 30 1 29 2 29 2 28 1 29 1 28 2 28 2 28 1 27 2 27 1 28 1 26 1 27 0 27 2 25 0 26-1 26 0 26 0 25 0 24 0 47-2 47-1 44-1 47-3 43-1 40-3 40-1 37-1 35-2 33-1 31 0 29 1 25 1 26 1 34 1 30 2 26 2 27 1"/>
<path d="M3461 9735l-24 6-2 28-1 25 1 31 0 28 2 33 1 25 2 25 2 28 3 30 1 33 2 36 2 38 1 39 3 41 3 44 3 46 2 47 3 46 4 45 4 45 4 45 2 47 2 45 1 43 2 45 3 43 2 44 2 45 2 45 2 48 0 24 0 25 0 24 2 25 0 48 1 24 1 25 3 46 0 24 2 46 1 46 2 45 0 45 0 43 1 40 2 39 2 37 0 34 2 34 0 31 1 27-1 26 1 35 2 32 4 30 2 25 2 26 2 26 1 27 2 29 1 29-1 26 0 26-2 31-3 30-3 30-2 27-1 24"/>
<path d="M2571 9375l 22-14 28-7 25-3 26 1 28 9 17 23-2 26-10 24-14 24-18 23-20 21-19 19-22 19 25 4 26-7 29-3 28 0 25 2 25 3"/>
<path d="M1686 10205l 24-6 29-3 28-2 25 3 22 12 1 29-8 27-10 23-15 25-17 24-19 23-19 20-18 20-22 21-17 19 24-4 26-8 25-7 24-6 26-5 26-2 23 10"/>
<path d="M2923 10477l 4-25 2 28-5 32-7 28-6 30-7 31-9 30-9 30 16-28 15-30 15-30 15-30 14-27 14-23 16-20 17 20-4 28-5 34-5 24-6 27-6 27-6 28-5 26-4 24-5 29 26-7 14-22 15-28 15-30 18-32 17-31 19-29 16-29 14-26 13-23 15-25 18-17 0 31-5 30-7 36-5 24-6 24-5 25-10 35-7 31-6 26 26-12 13-21 12-24 15-27 11-24 10 25 2 28 7 30 6 23 9 25 15 22"/>
<path d="M3621 10484l 19-19 21-13 25-1 9 22 1 29-3 32-6 29-8 32-7 23-7 24-9 23-11 30-10 23 19-20 18-26 20-29 18-28 18-24 18-22 19-22 17-17-2 28-7 26-10 35-8 26-10 28-9 30-11 29-10 28-10 28-13 32-10 25 20-22 17-27 18-30 13-21 19-29 18-27 15-23 15-20 5 24-5 25-7 28-8 27-7 23-4 25 27-10 23-23 16-19 16-18 17-20 19-16 1 26-6 29-9 31-5 23-8 29-5 24 25 6"/>
<path d="M4294 10486l-25-3-14 25-12 21-13 24-15 28-16 29-18 27-16 25-13 20 18-28 13-21 14-24 17-27 16-27 17-26 17-25 14-22 22-27 18-18 21-14 2 27-7 27-8 24-9 24-11 27-11 28-12 26-13 28-12 26-13 24-13 26 23-10 24-29 17-22 18-22 17-22 18-21 16-19 23-23 18-17 23-9-1 28-9 28-11 34-8 24-9 25-10 25-9 22-14 30-12 25 19-14 22-28 15-23 17-27 16-25 15-25 13-21 19-29 16-23 17-19 6 28-6 26-6 29-7 30-6 28-3 25 2 28 9 25 11 23 10 24"/>
<path d="M2950 9999l-11-21-5-26 5-24 12 23-2 26-6 32-5 24-7 25-8 25-8 25-9 22-10 28-7 25 20-20 20-25 13-20 14-22 16-22 16-21 16-20 21-26 20-22 15 23-6 25-8 30-9 32-8 32-10 29-8 27 22-16 19-29 13-22 14-22 12-23 14-21 17-28 17-22 15-19-4 29-6 25-8 28-8 30-8 25-6 24-4 25 28-7 17-19 19-21 20-14 10 27-1 30-2 26-1 24 1 25"/>
<path d="M3700 11085l-2 26-2 28-5 32-5 35-4 25-6 26-6 27-8 24-10 31-9 22 11-27 14-36 11-30 12-31 12-31 13-29 14-26 12-23 17-30 15-21 19-18 5 29-6 28-10 35-8 24-8 26-7 26-8 25-7 24-8 25 17-23 13-30 16-32 16-27 13-23 14-22-5 30-10 28-9 29-7 23 23-8 17-21 15-22 17-24 18-19-2 29-5 25-5 25-4 26-3 28-1 25 2 26 27 2"/>
<path d="M4234 11655l-1-24 4-25-2 26-6 32-4 27-7 29-5 25-5 26 15-24 12-28 13-31 13-32 12-29 12-23 13-22 10 25-4 25-6 27-5 27-6 30-4 26-4 25 24-9 15-26 15-31 15-29 15-25 14-26 12-21 4 29-2 26-4 30-4 33-5 33-5 33-3 29-2 27 27-2 18-22 14-21 13-22 15-24 15-22 20 15 8 26 5 24 5 27 5 27 5 28 6 25 9 25"/>
<path d="M3041 11123l-6-26 7-23 4 30-7 28-10 32-9 23-10 23-15 32-13 24-14 21 15-28 12-22 14-28 16-30 16-31 16-29 16-27 14-22 21-27 17-21 17-20-3 28-8 26-10 31-8 23-8 25-8 27-9 26-8 25-11 31-10 25 21-15 17-27 13-22 15-23 16-24 15-21 15-21 21-24 20-21 13 25-7 30-8 33-9 32-6 25-5 27 25 6 22-23 20-27 20-25 18-20 17-22 9 25-6 30-9 33-6 24-10 34-9 30-6 24-8 27"/>
<path d="M2340 11140l-2-24 6-25 7-23-7 30-7 28-8 32-8 24-6 25-7 24-9 31-7 24 20-25 12-22 14-26 15-29 16-30 15-27 15-24 15-22 18-26 17-20 9 26-6 30-6 24-7 24-8 25-7 22-10 29-9 26 26-20 20-28 16-23 15-23 17-23 15-21 22-27 20-18 21-16 3 29-6 30-7 23-6 26-8 26-7 25-8 25-10 34-5 24 24-3 22-25 16-23 16-27 16-28 16-27 14-25 14-22 16-26 16-23 3 30-4 26-3 30-4 30-1 28 2 27 6 25"/>
<path d="M7913 5198l 21 12 25-2 10-23-25 8-3 24 18 17 23-7 14-20-23-9-14 21 17 19 26-3 22-16 11-22-21-16-25 1-14 22 15 19"/>
<path d="M8410 4985l 2 27-6 28-10 29-9 26-11 29-12 30-12 32-11 30-7 25-2 24 6 24 21 17 24 4 31 1 32 0 26-2 31-3 31-5 33-6 31-8 27-8 27-8 24-7 28-8 23-8 22-9"/>
<path d="M8590 5030l-8 24-1 34 2 31 1 25 2 25 2 26 3 27 3 27 3 25 2 25 4 25 3 33 3 32 1 25 3 30 2 25"/>
<path d="M10356 7911l 24-9-20-13 4 26 21 14"/>
<path d="M10716 7764l-6 24 2 24 1 33 2 27 2 29 1 32 4 33 4 37 5 37 4 39 5 39 3 37 2 36 2 36 2 34 1 35 1 34-1 34-1 33-2 30-1 26 0 32 1 25 0 25"/>
<path d="M9901 6678l-16 21 12 21 12-21-25 1 22 15"/>
<path d="M10087 6483l 22-10 27 0 26 1 27 3 27 4 26 6 24 6 27 11 20 13 19 19 9 22 0 29-13 31-18 29-14 21-14 21-16 21-17 21-18 21-19 20-17 18-24 24-19 20-19 18 30-3 23-7 28-8 31-10 33-8 33-8 32-5 27-2 26 0 27 4 22 10"/>
<path d="M11534 6065l 23-9 26-6 30-7 24-7 25-7 25-6 23-7 28-12 21-17"/>
<path d="M11665 5902l-1 29 3 30 3 25 4 27 5 25 5 25 4 25 5 30 4 25"/>
<path d="M12032 4904l-5-24 0 30-1 35-2 34-1 41-2 48 0 27-1 28-1 30 0 30-1 33 0 33 0 34 0 35 0 37 1 36 2 37 0 38 2 38 3 39 3 40 4 40 3 41 4 41 5 43 5 44 6 45 5 46 5 47 5 50 6 51 5 53 4 54 5 55 4 55 4 58 4 58 5 59 5 60 5 60 5 61 4 61 5 63 4 61 5 63 4 63 5 63 4 63 5 64 4 63 5 62 4 63 4 62 5 63 5 61 3 62 2 61 2 61 4 61 2 59 2 60 2 58-1 58 2 56 1 54 1 54 1 52 1 50-2 50 1 48 1 47 0 45 0 43 0 41 0 40 1 38 1 36 0 33 0 32 0 29-1 27 0 25-1 42 0 34 0 32"/>
<path d="M12896 6237l-5 26-4 27-5 36-5 30-5 33-10 39-12 45-7 25-8 25-9 27-10 28-9 29-10 29-11 30-11 30-11 30-11 31-11 31-10 30-10 29-11 29-9 28-8 27-8 26-9 25-7 24-14 44-12 38-11 31-7 24-7 25"/>
<path d="M13025 6555l-15 21-11 28-11 28-14 34-9 24-10 25-10 26-9 24-7 24-6 32-1 29 17 22 25 4 25-2 28-6 31-8 33-10 25-7 27-8 25-9 24-9 22-9 31-12 27-11"/>
<path d="M13098 6653l-3 26 1 25 2 28 4 31 4 31 6 33 5 30 3 30 1 30 1 31 0 33-1 32-3 30"/>
<path d="M1009 13790l 23-10 23-12 29-14 22-14 22-13 21-13 24-15"/>
<path d="M1038 13776l-15 21-1 28 1 30 0 27 0 29 1 30 1 25 5 25 27 3 27-17 27-21 20-16 21-17 21-14 21-12 30-13 28-8 31-4 27 8 14 25 4 27-2 24-9 27-15 28-20 27-18 17-20 16-20 14-21 12-31 15-30 13-25 8-26 7"/>
<path d="M1476 13890l-10 22"/>
<path d="M1465 13997l"/>
<path d="M2236 13520l-6 24 5 30 7 32 6 28 6 30 5 34 5 38 3 42 2 48 1 26 0 28 0 29 1 31 0 32 1 34 0 35 1 37 1 36 1 39 1 40 1 41 1 42 2 43 2 43 3 43 2 44 3 42 3 43 2 41 2 41 3 40 2 40 3 40 1 38 1 39 3 38 1 39 2 38 2 38 2 38 3 38 3 38 3 38 4 37 2 38 4 38 4 37 4 37 3 37 4 37 4 36 3 38 4 36 3 37 2 36 3 35 3 36 2 35 2 33 1 33 1 32 1 30 2 30 1 30 1 28 1 27 1 27 1 25 3 25 3 44 4 40 3 35 5 31 3 26 4 32 5 24 8 24 24-5 26-10 27-6 30-2 31-1 27-1 31-1 35-2 25 0 27-2 28-1 31 0 33-2 35 0 38 0 39 0 40 1 41 2 42 2 42 3 45 2 44 3 46 2 47 3 25 2 25 1 25 2 26 2 25 2 27 2 26 1 27 3 27 1 27 1 27 2 27 1 27 1 27 1 28 0 28 1 27 2 29 1 28 1 29 0 29 0 28 0 29 1 28 0 28-1 28-1 28-1 28-1 28-1 27-1 29-2 28-1 28-2 28-1 28-1 28-3 28-2 27-1 28-2 28-2 27-3 28-1 27-3 27-1 28-2 28 0 28-1 28-1 28 0 27 1 29 1 27 0 27 1 26 0 27 1 26 1 27 0 25 2 25 1 25 1 25 0 24 3 24 0 47 3 25 1 24 1 24 0 25 2 24 0 24 0 25 0 47 0 46 0 44-2 42 0 43-3 40-1 40-1 37-2 38-1 35-2 31-3 31-2 27-4 25-4 32-4 26-5 23-7 14-21-11-22-9-23-8-26-4-27-5-24-5-28-6-29-6-32-7-36-3-26-4-27-3-27-3-29-4-32-4-32-5-34-2-34-3-32-2-34-2-35-2-36-1-38 0-40 1-39-1-42 0-45-1-47-1-25-1-26 0-26 0-28-1-28-1-29-1-30-1-30-1-30-2-30-2-31-1-31-2-32 0-31-2-30-1-31-2-29-2-30-1-29-1-28-1-28-1-27-1-28 0-27-1-27 0-27 0-26 0-27 0-27 0-27 0-27 1-27 0-27 1-28 1-28 0-27 0-29 0-28 1-28 0-28 0-29 0-29-2-29 0-30-1-29 0-30-1-29 0-28 0-28 0-27 0-27 0-25 0-25 0-46 0-43 2-41 0-38 0-36 1-33 0-30-1-30 0-30-1-28 1-25-1-32-3-27-5-26-12-21-22 9-25 7-29 5-28 4-27 2-31-1-24-1-37-4-25-2-28-3-30-3-30-2-32-2-34-2-36-1-38-2-39-2-39-1-39-2-40-2-41-1-42-2-44-2-45-1-46 0-48 0-24 0-25 0-25 1-25 1-25 1-26 1-27 1-26 1-26 2-26 1-27 1-26 2-26 2-25 1-26 2-26 1-26 2-26 1-26 1-26 1-26 0-26 0-25 1-25 0-25 0-25 0-25 0-26 0-25 0-25-1-24 0-26-1-24-1-25-1-24-1-46-2-47-1-45-1-45 1-44 2-44 2-43 3-44 3-43 4-42 4-43 4-42 5-42 5-41 5-40 5-38 5-39 5-39 4-39 4-39 4-37 4-36 3-36 3-36 3-33 2-32 3-30 1-28 1-26 3-25 0-25 2-35 0-35 3-33 4-30 4-27 6-27 6-25 7-24 10-21 13-24 18-22 19-20 16-22 19"/>
<path d="M2306 14924l 24-3 27-1 26-1 24-1 30-3 35-5 25-3 25-5 29-4 30-6 33-6 35-6 38-6 39-6 41-7 45-7 47-6 25-3 24-3 26-3 26-3 26-2 26-1 28-3 27-1 27-2 28-2 29-1 29-1 28-2 29-1 29-1 31-1 30 0 31 0 30 0 31 0 32 0 32 0 32 2 30 0 32 0 31 2 31 2 31 1 31 3 30 2 31 3 32 2 31 3 32 2 30 3 32 2 31 2 31 1 31 2 30 0 31 1 31 0 31 0 30 0 31-1 32 0 31-1 31-1 32-1 31-2 32-2 31-2 31-1 30-2 30-2 30-2 30-2 29-2 29-1 28-1 28-2 28-1 28 0 26-2 26 0 26 0 25-1 25 0 25-1 46 0 46-1 44 0 40 0 38 0 35 0 33 0 33 0 30 0 27 0 25-1 33 0 30 1 26 1 28 2 26 5"/>
<path d="M3863 13363l 11 24 9 22 6 24 6 33 4 27 3 31 3 35 2 38 2 42 1 44 2 45 1 46 1 45 1 46 1 47 1 45 0 47 2 47 0 24 1 24 1 25 1 25 0 25 2 27 1 26 1 26 1 26 2 28 1 26 1 26 1 27 1 26 1 26 2 25 1 25 4 47 3 45 3 44 3 43 2 40 3 40 2 38 2 39 3 39 2 39 3 40 2 39 3 39 2 41 2 41 2 40 2 41 1 40 3 40 1 39 3 38 3 37 2 35 4 35 2 35 4 35 4 32 4 33 5 32 5 31 6 32 5 33 5 34 5 33 5 30 5 29 5 27 5 26 4 25 4 33 4 30 7 30 6 27 7 26 3 32 2 30 3 26 1 24 2 27 3 25-1 25"/>
<path d="M2296 14559l 25 0 24-1 27 1 24 0 28-1 25 0 26 0 26 1 26 0 30-1 31-3 24-2 26-3 26-1 24-1 26 0 24 0 27 0 27-1 26-2 24-2 25-2 26-1 26-2 25-2 24-2 24-2 32-3 32-3 31-3 26-4 26-4 26-3 25-4 25-4 25-4 30-5 27-2 26-3 25-2 26-3 24-7 26-4 26 2 25 4 25 3 25 0 27-5 25-3 24-2 26 0 25 1 27 0 27 1 25 3 24 5 26 4 24 5 27 3 24-4"/>
<path d="M1930 14006l 17-22 27-12 32-7 26 0 25 1 29 5 22 9 18 23-2 28-8 30-8 23-10 22-12 21-14 20-14 20-22 25-22 23-20 21-18 16 24 10 29-9 24-6 23-7 25-7 26-7 28-9"/>
<path d="M2930 13089l-4-24 22-14 25-3 26 1 26 3 24 2 22 12-13 21-18 18-19 18 20 14 29-2 28 5 27 9 24 9 23 5-2 25-18 18-23 13-28 11-28 9-27 6-25 5"/>
<path d="M6945 12277l 22-12 32-9 30-8 32-9 33-10 34-11 23-7 25-8 24-7 23-8 29-10 24-7 28 0 16 24 1 28-2 26-5 31-6 34-9 37-10 40-9 41-10 42-11 44-10 44-12 44-11 42-7 40-8 38-5 35-2 33-3 29-1 24 1 28 3 26"/>
<path d="M7462 12395l"/>
<path d="M7490 12490l"/>
<path d="M7914 12254l 6-24 24-15 26-12 28-8 30-4 29-1 24 3 24 8 10 23-10 26-15 26-22 27-18 17-18 17-19 15-28 20-24 17-25 16 23 8 26-2 30-1 32 0 33 0 32 1 28 3 28 5 25 9 24 20 16 27 7 24 0 29-5 32-9 31-13 29-15 26-22 22-27 21-31 16-33 11-32 7-30 2-25-2-24-9"/>
<path d="M8374 12388l"/>
<path d="M8596 12089l-3 29-2 25-5 30-6 32-10 35-8 26-7 27-8 28-7 27-6 24-6 31-1 27 11 22 24 8 32 2 29-1 34-2 35-4 35-5 33-7 28-8 24-7 25-10"/>
<path d="M8656 12269l 0 27 5 24 6 23 6 31 6 36 2 25 1 28 0 27 0 28 0 27 0 27-2 35-3 28"/>
<path d="M9040 12358l"/>
<path d="M9265 12063l-13 23-6 28-9 31-8 30-11 34-8 25-9 28-8 27-7 25-5 24-5 31-2 25 0 25 15 22 28 0 25-4 31-6 36-9 26-7 26-6 27-6 25-6 24-5 24-5 32-8 28-6 28-8"/>
<path d="M9409 12203l-6 26 2 28 1 29 1 34-1 25-1 28-3 29-4 29-5 28-5 27-1 25 0 31"/>
<path d="M9855 12315l 24-2 27-3 26-4 27-6"/>
<path d="M9919 12248l-11 23 0 24 4 29 6 28 7 26 8 24 9 27 11 23"/>
<path d="M10224 12028l-8 29-2 25 0 30 1 32 3 37 2 25 2 27 1 29 2 27 1 29 2 27 2 28 0 27 0 26-3 33-3 29-1 31-1 26"/>
<path d="M10654 12231l 26-1 25 0 26 2 26 1 26 1 24 1"/>
<path d="M10632 12339l 28 1 31-1 26-1 28 1 27 1"/>
<path d="M11107 12008l-2 25-2 30-4 27-5 31-8 30-8 31-10 31-10 27-7 27 7 25 26 5 31 0 28 0 32-1 33-2 33-5 33-7 32-8 28-7 28-9"/>
<path d="M11238 12111l-4 27 1 32 2 30 1 25-1 26-1 28-2 29-2 30-3 29-2 30-1 28-2 25 0 34 3 26 10 22"/>
<path d="M11648 12113l 1-29-3-30-9-25-15-19-28-9-24 6-27 17-20 17-20 21-19 22-17 25-15 25-13 25-11 32 0 29 25 15 26-2 30-9 30-15 29-17 25-18 21-17 19-18 5 27-5 33-2 25-2 27 0 28 0 27 1 27 1 26 1 26 0 24 1 33 0 28 0 27-3 24-6 28"/>
<path d="M6709 13772l 24-6 27-3 26-6 29-9 25-9 25-11 26-12"/>
<path d="M6775 13777l-20 15-16 23-8 25-4 28-4 29-5 31-4 28 1 26 14 19 25-5 25-11 27-15 25-12 25-11 29-10 28-9 26-5 30-4 26 4 23 8 18 17 13 24 5 31-1 30-4 30-10 30-14 29-19 24-24 20-28 14-30 8-32 3-30-1-26-4-29-8-22-9"/>
<path d="M7216 13893l-10 24"/>
<path d="M7225 14002l"/>
<path d="M7576 13989l 4 26 2 27 3 33 2 25 3 28 2 29 1 31 2 32 0 31-1 29-2 25-3 31-5 27"/>
<path d="M7556 13985l 9-26 21-20 25-18 29-16 22-10 34-12 30-8 25-3 26 4 20 17 8 27-2 29-6 23-10 26-17 25-19 25-21 23-23 20-25 16-22 11-25 6-23-11"/>
<path d="M7906 13575l 3 25 6 32 9 32 6 23 5 27 5 29 4 31 3 33 1 35 2 36-1 35-2 35-3 31-2 29-4 25-2 31-1 26"/>
<path d="M8291 13770l 28 4 28-3 27-4 23-5 25-4 28-4 25-5"/>
<path d="M8309 13868l 26-1 26-5 25-6 27-2 25-3 26-5"/>
<path d="M8443 13695l 27 0 24 5 27 9 22 10 24 14 17 16 9 23-5 27-11 23-16 24-15 23-14 20-15 22-16 18"/>
<path d="M8860 13630l 11-23 21-13 24-8 25 0 28 5 29 6 26 6 25 6 25 9 22 10 23 18 14 26 6 25-1 31-5 24-7 27-10 27-12 28-15 26-18 28-20 26-22 27-22 25-22 22-24 22-22 19-20 18-20 15-27 19-23 15-20 13 25-10 27-7 30-4 30-3 25-1 30-3 31-2 32-3 30-2 27-2 32-1 28 0 26 0 25-1"/>
<path d="M9188 13425l 18-16 26-9 28-3 26 2 18 18-3 27-12 27-15 27-20 25-20 22-17 20-16 19 23 7 27-2 25-1 26-2 27 0 25 1"/>
<path d="M9420 13464l"/>
<path d="M9500 13363l 19-19 26-5 26 4 12 21-17 19-22 17-20 15 27 4 27 5 23 8 20 15 15 21 4 26-13 25-21 15-26 8-24 5"/>
<path d="M9710 13435l 28-4 26-3 25-2 27-3"/>
<path d="M9744 13380l 9 24 5 24 6 27 5 26"/>
<path d="M9921 13313l 13 22 8 27 5 26 2 27-1 24 2 25 0 25 2 31 2 29 1 26 5 24"/>
<path d="M7603 15036l 8 23 6 27 2 26 0 30 0 34-2 36 0 25 0 26-1 28-1 28-1 26-2 25-3 34-4 28-5 27"/>
<path d="M7559 15042l 13-23 26-14 30-9 28-5 29-4 26 0 29 4 24 7 19 20 5 27 0 27-5 30-10 31-13 30-16 27-16 22-19 17-25 17-24 8-25 0"/>
<path d="M7856 14735l 26-14 28-6 25-5 29-2 28-1 26 2 31 5 24 14 17 21 8 30 1 30-3 25-4 28-9 29-10 28-11 29-15 28-15 27-17 26-19 25-20 22-20 21-20 20-19 18-24 24-22 18 31 0 26-7 31-9 33-7 30-6 28-5 25-4 27-2 25 4 21 13"/>
<path d="M8334 15070l 1-26 1-24-1-25-9-26-24-13-27 4-21 14-22 23-14 22-9 25-4 30 3 25 15 20 25 2 25-10 21-15 18-17 13-21 0 26 3 27 3 25 17 18 27-1"/>
<path d="M8506 14887l 26-1 30 0 27-3 28-5 28-6 25-2"/>
<path d="M8524 14955l 26 4 27-8 30-8 23-8 28-10 23-9"/>
<path d="M8649 14760l 25 2 26 5 25 8 24 11 21 18 15 23 6 24 2 26-5 26-10 24-15 24-15 20-18 17-19 14"/>
<path d="M8988 14732l-23-8 8-23 19-18 27-10 28 3 27 8 28 12 29 14 29 12 25 10 22 11 17 18 10 24 5 24-2 30-6 33-9 24-10 24-10 24-15 25-15 26-18 25-20 25-22 24-23 23-24 23-24 20-25 19-24 17-23 15-28 20-25 15-26 13 27-10 28-6 27-4 30-3 30-7 32-6 32-6 29-6 29-5 27-4 30-3 27-1 24 2"/>
<path d="M9281 14500l 22-15 26-3 26 3 25 6 21 15 9 26-6 30-9 23-12 24-13 25-15 22-18 19-22 21-19 18-19 16 28-2 26-1 29-1 25-2 25-2 25 0"/>
<path d="M9511 14603l"/>
<path d="M9624 14488l 21-13 27 0 26 2 28 6 24 12 15 19-4 28-11 25-17 27-15 20-17 19-18 19-18 17-19 17 27 4 27-7 24-7 29-7 27-4"/>
<path d="M9859 14593l"/>
<path d="M9927 14460l 24-10 25-5 27-5 28-1 20 15-14 22-19 20-22 19 25 8 26-1 25 2 25 5 20 13 1 27-10 22-15 21-22 17-26 10-25 2-27-6-17-16"/>
<path d="M10204 14506l 24-6 27-5 25-5 25-3 25-5"/>
<path d="M10269 14421l 8 26 4 25 2 28 0 25"/>
<path d="M10436 14362l 9 26 3 24 2 25 1 26-2 28-3 25"/>
<path d="M4170 13376l 4 25 3 26 2 27 2 26 4 25 2 28 2 25 3 26 2 28 2 29 2 24 3 31 3 29 2 27 3 26 1 29 1 30 2 30 2 32 1 24 2 25 1 32 2 30 4 31 3 28 3 27 0 28 3 28 2 25 0 27 0 27 1 27 1 27 0 27-2 30-2 26 0 29-1 25-2 28-2 27-2 25-1 28 1 27 2 26-3 27 1 25-1 27-1 25 1 25 0 25 3 24 3 24"/>
<path d="M2285 17521l-1 31 7 31 6 27 7 32 5 38 7 42 8 48 3 26 4 27 5 28 3 29 5 30 4 31 5 32 4 34 4 34 4 35 4 36 4 37 4 37 4 39 4 39 4 40 4 40 4 40 4 41 5 41 4 40 4 41 4 41 5 42 4 42 4 42 5 43 3 43 3 45 4 44 4 43 4 44 4 44 4 43 4 44 5 43 4 41 5 41 5 42 5 39 5 39 5 38 6 35 4 35 6 35 4 31 4 30 5 29 5 27 5 28 5 25 9 45 9 40 9 37 8 34 7 32 7 30 6 27 6 33 4 27 1 26"/>
<path d="M2327 17446l-24-9 18-19 23-6 28-3 34-2 25-1 27 1 33 0 36 3 41 1 45 2 48 2 26 0 26 0 28 1 29 1 30 1 31 1 33 0 33 0 34-1 37 0 36 0 37-1 38-1 38-1 39-1 40 0 40-2 39-2 40-1 41-3 40-2 40-3 42-3 40-3 41-3 42-3 41-4 41-3 42-5 41-3 41-5 42-4 42-5 42-5 43-5 42-5 43-5 42-7 42-5 41-6 40-5 41-5 39-5 40-6 39-5 38-5 38-5 37-6 37-5 36-5 35-5 35-5 34-5 33-5 32-5 33-4 30-5 30-5 29-4 28-5 27-5 26-4 25-4 25-4 24-5 45-7 40-6 39-5 33-5 29-2 25-2 28-1 26 0 6 26 1 25 2 32 0 32 0 24 1 29 2 30 0 35 1 37 0 40-1 44 0 44 0 46-1 45 1 44 1 45 1 46 1 48 1 24 0 25 1 25 2 26 0 26 2 27 2 27 2 28 2 29 2 29 2 31 2 30 2 31 1 30 3 32 0 31 2 32 3 33 1 32 1 33 1 31 2 33 2 33 3 32 1 33 1 32 2 31 1 32 3 31 2 30 1 31 1 30 1 30 2 30 0 29 2 30 0 29 1 30 2 30 1 29 1 29 0 27 1 28 2 28 1 29 0 28 2 27 2 28 2 28 3 28 2 28 3 27 2 26 3 25 2 25 5 47 4 44 5 41 5 38 6 35 5 33 5 28 8 26 6 23 9 31 10 26 10 28 7 25 5 24-3 24-7-28"/>
<path d="M2582 19995l 15-21 28-5 31-5 27 0 34 1 26 3 28 3 31 3 33 2 36 3 37 2 40 1 43 1 45 0 45 0 47 0 48-1 24 0 48 0 25 0 24 0 25 0 25 1 25 1 25 0 24 1 25 0 26 1 26 1 25 0 25 1 26 0 26 0 27-1 26 0 25-1 25-2 25-1 25-2 25-2 25-2 24-2 24-2 25-4 25-2 25-3 24-3 25-4 24-4 24-4 48-7 47-6 44-7 45-7 41-6 39-6 38-5 36-3 35-3 34-1 33-1 32-2 31-1 30-1 30-1 30-1 28 0 27-2 26 0 25 1 24 1 35 2 31 0 29-1 30 1 27 1 26-2 31-1 25 1 27 0 28-1 28-2 24-2 24-2 25-4 26-2 26-2 25-2 28-4 24 4"/>
<path d="M2405 18483l 21-12 25-2 29 1 24 1 29 0 31-2 29-2 35-3 26-2 28-4 29-4 31-2 32-4 34-4 36-4 37-4 40-5 42-5 43-7 46-7 47-6 46-6 24-3 47-5 48-5 24-3 25-2 24-2 24-2 25-1 25-3 25-1 25-1 25 0 25-2 26-1 24-1 25-1 25 0 25 0 24-1 25-1 24-1 48-1 25-1 24 0 25-1 25 0 24-1 25 0 26 0 24-1 25 0 25 0 25 1 25 0 24 1 25 0 24 0 24 1 47 0 45-1 44-1 41-1 42 0 42-1 41-1 41-3 39-2 37-3 35-2 36-3 34-3 33-4 32-3 31-2 30-3 29-3 29-3 29-4 30-2 28-3 27-2 25-2 35-2 31-2 28-2 30-1 26-1 25 1"/>
<path d="M2438 18990l 25-8 28 1 29 3 26 1 31 1 36-2 26-2 28 0 27-2 28 0 32-1 33 0 36-2 39 0 40-2 41-1 44-2 47-2 47-3 25-1 25-1 25-1 26-1 25-1 25 0 25 0 26 0 26 0 26 0 27 0 26 1 26 1 28 0 27 0 26 1 27 0 27-1 28 2 27 0 27 1 27 0 26 0 27 0 27 0 26 0 27 0 27-1 27-1 27-1 27-1 28-1 28-2 28-2 28-1 28-2 28-1 27-2 27-2 27-1 26 0 28-1 26-1 26-1 25-1 25 0 25-1 25-1 25-1 48-3 46-2 46-3 46-2 44-3 42-3 42-2 41-3 40-4 40-5 39-5 37-5 36-5 33-4 31-4 29-5 25-2 35-5 28-3 25-1 32 0 28 1 25 2 30 3 26 1 24 1 30-2 25 0 25-1"/>
<path d="M3665 17378l-4 29 3 25 5 31 2 25 3 28 2 31 3 34 2 36 2 40 3 42 3 45 3 46 4 46 3 46 5 46 6 46 5 47 6 47 5 47 2 24 2 25 3 24 1 26 2 25 3 25 2 25 2 26 1 27 2 25 2 27 3 26 2 28 1 26 2 28 2 27 1 26 2 27 1 27 1 27 1 26 1 27 1 25 1 27 1 25 1 24 2 24 0 25 3 24 2 46 3 47 1 46 2 44 2 44 4 44 3 43 3 40 5 42 5 40 4 40 6 38 5 36 5 33 4 31 4 30 4 29 5 28 3 29 2 28 2 26 2 25 2 35 4 32 3 29 5 28 1 27 1 26 3 28 0 27 2 26 2 24"/>
<path d="M4055 17357l 9 25 6 32 6 33 4 25 5 27 4 31 5 33 5 36 5 36 4 38 4 40 4 41 5 41 5 42 5 43 6 43 4 48 5 46 3 24 6 47 6 47 6 46 6 47 6 47 6 46 3 25 2 24 3 24 3 24 2 25 2 24 6 48 5 46 5 46 4 46 4 47 2 46 3 45 4 45 1 45 1 43 1 44-1 41 1 39 4 39 4 36 6 38 6 35 5 35 7 35 6 34 7 34 8 33 6 34 6 31 5 31 4 28 3 28 3 27 3 25 2 24 3 34 2 34 4 32 5 30 4 28 2 25 4 28 2 25 3 26 1 29 0 32 0 28 3 25 4-35"/>
<path d="M4585 17339l-5-24 9-22 2 25 0 27 0 25 2 29 2 32 3 37 3 40 3 42 5 44 6 45 6 45 7 47 1 24 3 25 3 25 3 26 2 27 3 27 3 29 3 30 3 31 3 30 2 32 3 32 3 33 3 32 3 32 2 32 4 32 3 30 3 30 5 29 3 29 5 28 4 29 3 27 4 28 4 28 4 27 3 28 3 27 4 27 3 26 4 27 4 25 2 26 4 27 4 25 2 26 3 25 2 25 3 25 2 24 4 46 3 45 4 43 4 41 3 38 4 37 5 36 6 35 6 35 6 34 10 32 8 33 7 31 8 31 6 32 7 31 7 30 5 31 5 30 5 29 3 30 4 30 3 29 3 27 4 27 2 25 4 34 3 33 2 27 2 29 6 32 4 25 7 26 6 23-1-30-2-25"/>
<path d="M2970 17423l-6 29-1 32 2 33 3 28 3 32 5 33 5 37 6 41 6 42 6 46 3 24 3 24 4 25 2 24 3 26 3 28 3 27 3 28 2 28 2 29 3 29 2 30 2 29 3 30 2 29 2 29 3 29 3 28 3 29 3 28 3 28 3 30 2 28 3 27 3 29 3 28 4 28 3 27 4 28 4 26 4 26 4 26 3 25 5 25 3 25 6 47 6 47 2 46 2 24 5 48 1 24 3 46 5 46 2 42 2 42 3 40 2 37 3 35 4 31 4 32 4 31 4 30 4 30 4 29 3 29 4 29 3 29 4 28 5 28 4 25 5 24 6 32 5 26 5 24 7 28 6 25 5 27 2 28 3 27 3 26 4 25 5 25"/>
<path d="M2342 17924l 24-4 29-2 31 0 30 0 24 0 26 0 28-1 31-2 33-1 35-2 38-3 40-3 42-4 47-4 48-3 25-1 25-1 26-1 26-1 26-1 28-1 28-1 29 0 29 0 28-1 29 0 29 0 30 0 28 0 29 1 30 0 29 0 29 1 30 1 28 1 30 1 29 1 30 1 30 0 30 1 30 0 31 0 30 1 31 0 30 1 29 0 29 1 30 0 30 0 30-1 29 0 29-1 30-1 30 0 30-1 29-1 28-2 30-1 29-2 28-1 28-2 28-1 29-3 28-1 28-2 27-2 28-1 27-2 28-3 27-2 26-1 27-2 25-2 26-2 26-1 24-2 24 0 45-1 43 0 40 1 39 2 36 3 34 4 34 3 31 3 28 2 27 1 36 1 24 0 35-2 32-2 30-3 26-2 26-4 29-2 27-2 27-1 25 1"/>
<path d="M2596 19610l-1-24 20-14 28-7 29-3 28 0 27 1 30 1 33 2 35 3 36 2 24 3 25 0 24-1 36-3 24-1 25 0 27 0 29 0 29 0 28 0 28 1 29 0 31 1 32 1 33 2 34 2 34 2 34 2 36 1 35 3 37 2 37 1 37 2 37 0 35 0 35-1 36-1 34-2 34-3 35-2 36-1 36-2 38-2 36-2 37 0 37 0 35 0 35 1 35 0 33 0 33 2 33 0 32 0 31-1 32 0 31 0 31-1 31 1 30 0 29 1 28-1 26-1 26-1 24-2 25-3 35-5 33-4 32-5 27-3 30-4 27 0 26 1 26 1 28-2 25-1 29-2 26-1 25-4 24-4 25-7 24-7 25-5 24-3 26 4"/>
<path d="M2593 17508l-19 25-8 23-12 26-12 24-15 25-15 23-13 21-13 22 19-23 19-26 23-26 22-25 22-20 22-18 25-16 24 3-1 26-5 25-9 28-12 29-12 28-11 23-10 26 25-11 22-21 18-19 17-18 20-17 18-16 27-18 25-16 27-11 24 8-1 26-8 32-11 27-11 27-12 26-10 27 27-15 21-24 23-28 21-26 20-21 23-20 20-14-8 26-12 28-10 24-10 22-10 23-10 23 22-13 17-20 20-25 16-18 6 28-9 28-5 24-3 27"/>
<path d="M3170 17563l-5-24 18-20 20 16-7 31-12 30-15 31-13 21-17 29-17 24-14 21 21-25 22-27 17-21 19-22 20-23 20-22 20-19 19-18 26-22 20-14 24 5-2 26-7 26-11 28-14 28-15 27-13 25-14 23 24-15 23-25 20-20 20-21 22-20 22-19 21-18 21-15 19-15 25-15 26-8 6 27-8 26-13 30-11 23-10 26-11 26-12 28-13 27-10 28 19 15 26-12 25-17 22-11 24-9"/>
<path d="M3810 17480l-16 24-8 22-10 28-12 32-17 33-17 30-14 23 29-16 19-19 20-21 20-21 21-21 20-20 19-19 24-24 24-17 9 30-11 26-14 30-17 29-18 30-13 25-10 24 25-7 18-17 21-21 24-19 23-8 12 25 3 28 0 27-1 30-3 33-1 30"/>
<path d="M3805 18056l 8-28 16-26 17-20 18-18 22-19 23-12 1 29-10 24-12 28-15 29-17 29-15 27-13 21 25-15 20-22 21-21 20-19 19-16 21-13-8 25-10 23-12 25-14 25-14 25-12 23-10 25 22 15 22-15 18-19 17-21 17-20 19-22 17-17-5 28-7 28-6 30-4 24-6 31-5 31-4 27-4 27"/>
<path d="M3787 18655l 14-24 19-27 21-25 24-24 23-21 20-18 20-15 3 26-11 26-15 31-12 22-11 23-11 23-16 32-12 25 25 2 22-23 16-19 16-18 24-25 20-21 23-19 4 25-10 25-11 28-9 30-10 32-7 33-3 27 0 31 6 29 17 20 22 9 30 1 25 0"/>
<path d="M3228 18081l 14-20 7 24-12 23-19 31-15 23-17 23-18 22-18 22-17 19-21 24-19 20 21-29 17-24 22-29 24-30 26-30 28-28 28-27 25-25 23-22 20-17 19-16 5 25-12 25-16 29-11 22-13 24-12 25-13 24-15 31-10 25 26-5 26-23 22-21 24-24 26-24 28-23 25-21 25-19 22-15 27-19 23-11 1 26-15 24-13 20-13 21-15 27-12 22 23 10 21-17 24-17 22-16 21-14 25-11 12 22-2 28-5 28-3 25-6 25"/>
<path d="M2608 18086l 19-16 17 18-3 32-9 35-9 26-11 26-12 28-11 25-10 23-13 25 21-12 22-23 25-28 28-32 30-32 30-32 30-29 30-27 29-23 26-18 20-14 23-11 9 23-12 25-16 32-14 24-13 25-15 26-13 24-16 30-7 25 29-1 23-17 18-17 19-20 20-22 20-21 19-21 17-20 22-25 20-21-8 28-10 23-9 23-7 25-6 26-1 24"/>
<path d="M4234 17473l 5-24 13-21 21-15 12 23-10 22-14 29-13 23-14 24-16 25-16 25-15 22-19 26-13 21 20-14 22-22 24-25 24-26 22-24 23-23 19-17 23-10 1 29-8 23-10 24-12 22-11 28-12 27-7 24 26-5 20-17 25-23 17-17 26-25 24-23 22-20 20-17-1 31-10 22-12 23-12 23-11 23-9 25-8 30-2 30 3 32 6 23"/>
<path d="M4237 18106l 5-28 12-21 19-24 17-18 18-18 23-19 17 17-12 23-15 29-20 29-15 20-20 28-18 25-14 22 24-16 25-23 18-17 20-18 19-17 28-23 25-20 24-15-1 28-11 23-12 23-10 23-3 24 24 5 29-9 30-12 33-12 31-11 28-5 24 1"/>
<path d="M4335 18618l 4-28 12-23 18-24 20-24 18-20 7 24-12 23-16 26-15 27-16 25-15 21-14 23 22-9 18-18 17-19 21-20 20-15-3 27-11 23-11 26-11 25-8 26 2 25 17 18 25-3"/>
<path d="M4788 18521l-1-25 20-19 22-12 8 25-6 27-9 26-13 26-12 26-14 25 25-3 19-16 22-19 25-17 25-17 23-13 22-10 18 17-7 34-8 24-10 27-13 29-15 28-14 27-13 27-12 24-11 28 20 14 25-19 22-18 21-20 22-20 21-19 20-18 19-16 25-20 20-14 23 8-5 27-8 27-7 26"/>
<path d="M4801 18016l-20-14 9 25-4 31-6 27-8 26-8 28 28 1 19-15 20-20 21-19 21-19 20-15 24-15 21 15-6 25-8 23 23 10 25-8 27-5 26 5 23 11 20 18 15 20"/>
<path d="M4825 17461l 6-26 15-21 23-15 25-8 11 21-6 29-11 28-15 29-15 28-13 25 29-8 25-18 27-20 28-17 25-14 21-12 25-10 24 4 10 23-2 28-2 29-4 31 0 30 7 27 15 25"/>
<path d="M7591 16128l 5 26 4 25 3 31 2 25 0 29 0 30 0 35 0 38-1 40-1 40-1 40-1 37-2 36-2 32-2 27-3 30-3 24"/>
<path d="M7556 16154l 7-24 23-17 26-12 25-8 27-6 28-5 26-3 24 0 29 6 24 11 18 22 7 25-1 25-6 30-10 33-10 23-11 22-13 23-15 21-15 19-25 25-24 19-25 12-29 5-25-10"/>
<path d="M7961 15836l 9 24-2 25-6 25-9 29-11 33-8 25-10 25-9 25-10 25-10 23-8 23-12 32-8 23 0 25 25 1 23-7 29-11 22-9 23-10 22-10 31-14 28-14 26-13 23-12 22-12 19-17"/>
<path d="M8049 15927l 8 28 9 29 6 30 6 37 0 27 2 30 1 30 0 32 1 31-1 29 0 26 2 35 5 27"/>
<path d="M8338 16126l-11-24-11-22-24-10-23 15-15 20-17 28-15 33-10 33-5 28 3 29 19 16 25-4 29-13 20-15 22-23 14-20 8-23 7 23 10 26 13 20 16 19"/>
<path d="M8508 15949l 31-4 29-3 34-4 35-4 32-4 30-4"/>
<path d="M8541 16055l 24-6 30-6 26-6 27-8 27-10"/>
<path d="M8665 15811l 29 7 25 3 29 3 28 3 27 5 23 6 25 13 19 21 6 28-4 27-9 25-14 30-13 21-12 23-15 23-13 21-16 20-22 25-21 19-19 16"/>
<path d="M8956 15787l 30-9 31 0 25 3 26 2 26 3 27 2 26 4 26 4 34 7 28 11 21 14 16 26 4 34-6 31-8 24-12 25-17 28-19 28-22 28-23 28-25 28-27 26-29 27-28 25-28 22-25 20-22 16-23 19-18 18 26-3 26-4 32-4 36-3 25-1 24 0 25 0 34 2 32 2 28 1 30-3 26-5"/>
<path d="M9340 15584l 26-9 24-6 27-9"/>
<path d="M9331 15591l-19 20-3 25 6 25 17 18 25-3 28-11 25-9 30-6 29-2 24 4 24 9 13 24-10 22-15 21-18 20-20 18-22 16-21 12-27 11-27 4"/>
<path d="M9611 15610l"/>
<path d="M9690 15495l 26-8 28-4 28-7 27-7"/>
<path d="M9740 15489l-17 21-13 25-3 25 2 27 8 23 24 5 25-6 30-9 31-7 29-4 25-1 27 3 15 21-11 23-18 23-20 23-22 21-26 15-25 8-24 6-29 2-26-5"/>
</svg>
