<svg xmlns="http://www.w3.org/2000/svg" viewBox="654 1735 14138 26899" stroke="black" stroke-width="16" stroke-linecap="round" stroke-linejoin="round" fill="none" data-xena="0 -2 0"><style>@media(prefers-color-scheme:dark){svg{background-color:black;stroke:white;}}</style>
<path d="M1784 3218l 0-2 9-25 16-21 19-16 23-9 24 12 5 23 0 24-4 25-6 29-6 24-7 27-7 26-8 25-10 24-10 29-9 24 12-27 11-31 14-35 9-25 11-26 12-26 10-26 12-25 10-23 11-23 10-23 11-22 15-27 12-22 15-25 15-19 26-4 15 24 7 24 6 28 2 25 1 28 1 28-1 31-3 29 0 33-1 32 0 33-2 29-3 26 0 28 4 25 27 5"/>
<path d="M2306 3104l 0-1 23-15 27-8 28-7 29-5 27-3"/>
<path d="M2289 3233l 0 0 14-23 24-13 29-12 22-10 24-9 24-9"/>
<path d="M2694 2864l 0 0 23-15 24-6 30-6 32 0 32 4 31 6 29 13 28 15 24 19 20 20 14 25 8 26 0 30-3 24-9 28-15 28-14 22-18 23-21 24-23 25-23 24-26 27-25 22-27 22-26 20-24 16-23 17-20 15-28 20-24 16 28 6 29-11 31-9 25-6 28-6 28-5 29-6 28-5 26-3 26-3 26-4 27-1 25 2 24 7"/>
<path d="M1572 4690l-1-1-3 27-1 27-6 27-4 27-4 32-4 29-3 33-4 34-3 32-3 31-1 28-3 26 0 30 3 27 1 26 4 25 24 7 25 0 25 3 24 3 25 1 24 0 26-1 28-1 24-1 27 1 26 1 24 3 25-1 24 1 25 1 28-2 25 0 26 1 28 3 28 4 27 2 25 0 26 1 25 3 26 2 27 3 28 1 24 3 24 0 26 2 26 2 25-1 27-1 26 0 26-2 26-1 26-2 25-1 28-3 24-1 24-2 27 1 24 0 24-2"/>
<path d="M1544 4708l 0 0 25 1 24 1 24 0 26-4 24-6 27-6 25-3 26-3 25-1 25-3 26 0 27 0 30 0 28 1 25-3 26-1 26-2 25-1 29 1 27 2 27 1 24 0 25 1 24 2 29 1 29 1 29-1 26-1 26-2 26-1 24-1 26-1 27 3 26 4 24 2 25 3 24 4 25 4 26 6 28 6 24 3 25 4 25 1 13 22 3 24 5 25 0 24 6 25 4 25 4 28 5 26 0 28 2 28 2 25 0 26-1 28 0 25 2 26 1 27 1 25-1 28 1 27 5 28-2 27 1 29-1 25-1 24 3 26-1 28 0 25-2 29 1 26 3 24 0 25"/>
<path d="M2140 4685l-1 1-12 21-3 25-7 25-4 24-2 24-3 26-1 30 0 28-3 29 0 25 0 25 1 24 2 24 1 26 3 27 2 28 4 27 6 27 2 28-2 29 0 31-3 27 0 25 0 26-3 25 0 25 0 28 1 25 1 26 1 24 0 25 1 27-1 24-4 24"/>
<path d="M1516 5131l 1 0 1 25 0 27 3 24 1 25 1 29 0 29 0 24 0 25 1 24 3 29 0 27 6 24 2 24 1 28 2 25 7 24 8 23 17 18 22 10 25 4 25 0 25-1 25-3 28 1 26-5 29-3 29-5 26-3 27-3 27-1 28 1 24 4 27 2 24 3 25 3 27 4 25 2 26-1 26 1 28 1 24 3 25 2 26 1 28-4 28 0 26-1 25-1 25-2 25-1 27-1 24-1 25 4 25 4 24 8 25 6 25 6 26 2 25 5 24-6"/>
<path d="M4522 4695l 0 0-1 27-1 27-3 27 0 30 0 25 0 28 0 29 0 30 0 27 0 27 1 28 2 25 2 27 2 27 0 27 3 27 0 26 0 25 0 26 0 26 1 29 1 25 1 27 0 27-2 27 0 24-3 25-7 23-8 24"/>
<path d="M4519 4659l-1-2 18-17 27-6 24-4 29-5 25-6 26-5 28-7 29-6 27-5 28-7 26-6 28-5 26-5 26-3 24-2 24 0 25 2 22 10 12 25 5 30 4 26 7 33 4 30 3 34 4 37 2 24 2 25 4 27 3 27 3 26 4 27 4 25 2 26 3 26 2 26 3 28 3 28 4 28 3 28 3 28 2 27 2 25 2 24 2 34 1 32 1 31 1 30 1 25 1 26 1 27-8 24-23 8-24 7-28 3-26 4-29 4-31 3-24 3-25 4-24 3-25 3-26 3-27 3-25 4-26 3-24 2-31 1-31 0-28-2-26-4-27-7-27-5-24-5-23-8-22-12"/>
<path d="M4981 4586l 0 0 24-5 26-8 27-10 26-9 23-7 28-7 26-6 24-6 25-5 27-3 27-1 28 2 25 3 24 4 23 7 21 14 12 22 7 23 4 28 1 27 0 31 1 25 2 26 1 28 1 30 0 30 0 33 0 34-1 34 0 33 0 33 0 33 0 34 0 34 0 34 2 32 2 30 5 30 3 27 4 26 5 30 5 30 4 31 2 29 3 25 2 27 0 24 0 25"/>
<path d="M5033 5058l 1 0 25-11 26-5 27-3 26-2 25-1 25-1 28 2 26 0 27-2 25-1 26-3 24-3 28-3 25-1"/>
<path d="M5073 5517l 0 0 24-6 24-5 25-4 25 0 25-2 27 0 28 0 27 0 26 1 25 3 25 2 27 6 24 4 25 5"/>
<path d="M6692 4573l 0-1-5 25-4 25-1 27 1 28 1 26-2 27 0 25 2 27 0 29 0 25 2 25 1 26 1 27 1 26 1 27 0 27 1 27 0 28-1 29 2 27 0 28 1 28 0 25 1 29 0 29-1 27 1 25-1 26-2 28-1 27-2 27 0 27 2 25 0 24 3 25-1 24"/>
<path d="M6698 4616l 0 0 20-17 22-10 25-10 26-9 24-9 26-7 25-5 24-5 26-4 27-7 25-5 29-4 29-4 25-1 25-1 26 0 19 15 9 24 4 25 5 29 4 24 6 26 6 28 7 26 7 25 8 24 6 24 4 24 3 29 1 24 2 26 4 25 2 25-19 17-25 10-23 5-27 5-25 4-30 4-25 4-25 3-26 4-25 2-30 5-27 4-26 6-29 7-23 6-25 6-24 6-25 5-27 4"/>
<path d="M6760 5058l-1-1 12-22 24-7 24-6 27-1 29-4 24-4 28-6 29-7 28-7 24-6 24-6 25-6 25-3 24 0 25-2 26-2 24-4 22 11 0 25-1 25-3 26-2 24-2 28-2 30-1 33-1 30-2 26-2 31-1 31 0 28 0 32 0 30 0 26 0 27 0 25 0 27-2 24 0 25 1 25-18 19-18 18-25 10-26 3-28 1-31-1-28-3-31-3-25 0-24 0-30-1-26-4-27-5-27-4-27-5-26-3-26-3-24-4-28-5-25-7 8-26"/>
<path d="M7169 4518l 0 0 27 2 26-2 24-2 31-5 27-4 29-4 28-5 28-3 26-2 29-1 24 0 26 4 25 8 24 10 20 16 10 23 3 25 2 26 1 25 1 27 0 29 2 31 1 34 0 34 2 35 1 25 0 27 1 26 1 26 0 25-1 24 0 25-1 34 0 32-1 31 0 29 1 28 0 27 1 26 1 26 0 25-1 29-1 29 0 26-1 26-2 26-3 25 0 25-7 23-6 24-4 24 2 25 2 25 0 25-16 20-25 3-26 4-27 1-28-1-26 0-27 1-26 0-28-1-26 1-24 6-27 5-25 2-26 3-26-2"/>
<path d="M8543 4603l 0-1-2 26 1 27-2 25-3 28-3 26-2 29 0 26-2 29-3 27-2 29-2 24-4 25-4 25-3 25-5 25-3 25-4 25-3 30-2 29 0 27 2 28 2 26 0 28 1 26-1 28-1 26-3 30-2 25-2 28 1 25 0 26 3 25 0 24 2 25-1 25 4 25 23 10 25 5 27 0 26 0 25-3 28-3 25-2 25-4 25 1 25 1 25 3 28 4 25 2 25 3 24 2 25 4 23-11 12-25 6-25 5-26 2-24 3-31 5-35 2-25 2-27 4-25 3-25 5-24 3-24 4-35 4-33 3-29 3-26 2-25 0-24-2-25-1-26 0-25 0-25 1-24 2-27 1-25 1-31 0-25-1-25 1-26-1-25 0-27 0-25-1-26-2-24-4-27-3-24-6-24-13-21-22-11-25-5-25 2-26 6-28 4-25 4-30 8-31 6-25 4-27 3-27 3-27 1-27 4-27 4-26 3-31 3-27 2-25 1 25-3"/>
<path d="M8940 4588l 0 0 24-8 24-7 25-5 27-1 26-2 26-3 26-1 26-2 27-1 26-3 24-1 27-1 28-1 29 0 28-3 28 0 27-1 25-1 24 7 17 17 12 25 6 24 5 29 3 26 0 27 0 28 2 32 0 26 0 24 1 27 0 32 0 35-1 33 1 33 1 33 0 33 0 25 0 35 1 35 0 30 0 32 1 31 2 29 0 28 0 28-1 30-2 29-3 27-3 29-1 25-2 27-1 25-3 26-5 27-7 24-5 24-23 6-25-2-29 1-28 1-29 2-27 1-25 0-28-2-25-1-28 0-25-1-28 0-26 1-28 4-24-3-26-1-25-2-25-4-23-9-23-10-24-6-26 12"/>
<path d="M1491 6906l 1-1 15 20 8 26 0 25 3 25 2 28-2 25-1 25 1 29-1 25-1 27-5 26 0 26 0 26-3 30-1 26 17 17 27-1 25-1 27-1 30-4 25-2 31-2 25-2 26 0 30-1 30-1 27 1 31-1 31-2 30-1 29 0 25 2 28 0 28 0 34-2 32-2 25 0 31-2 32-1 28 0 28 0 31 3 28 3 26 4 31 5 32 4 28 6 24 6 27 4 28 3 27 3 26 0 25-3 16-18-1-24 3-24 0-26 0-24 0-26 1-30 1-25 0-27 2-27 1-27-1-25-1-26-3-25 1-25 1-26-5-23-8-25-23-9-25 1-27 4-27 0-26 0-27-1-26-2-31-2-25 0-26 1-28 2-26 0-26 3-33 0-25-1-25-2-30-5-27-4-28-5-28-7-27-3-30-4-28-3-25-3-32-2-25-1-24-1-28-1-27 0-25 0-27-2-25-2-27 1-26 1-22 12-17 21"/>
<path d="M1521 6908l 0 0 11-22 16-19 23-10 23-7 26-6 27-4 28-3"/>
<path d="M1500 7333l 0 0 0 24 3 27-1 25 2 25 0 25 3 29 0 29 0 25-1 30-1 25-3 30-3 30-1 28-2 25-1 27 0 24 8 23 11 22 23 8 24 2 25 3 26-2 27 0 27 1 26 0 27-3 28-1 26-3 27-7 26-9 25-5 28-4 24-6 24-7 26-3 23-6 22-11 14-21 11-23 4-25 3-24 2-25-1-24 3-24 1-25-4-26 2-27 5-27 1-24-3-26-1-25-6-25-1-24-5-26-1-25 9-23"/>
<path d="M2040 7351l 0-1-10 25-4 25 3 24 0 25-2 25-2 28 1 28 0 25-1 26-2 24 0 27 4 27 2 25 5 24 9 23 12 21 25 5 24-1 25-5 26-3 26 1 26 0 26 0 26 6 24 5 26 0 24 2 25 0 27-4 25-4 25-5 24-5 23-5 25-6 25-5 23-8 23-9 22-9 9-25 1-26-3-24-3-28-4-28-6-30-2-29-2-28-1-26-1-27 1-24 1-24-4-26 2-24"/>
<path d="M4372 6887l 0 1 8 25 2 27 1 24-2 27-1 28-1 29-2 25-1 26-2 25 1 25-1 24 5 24 10 22 13 21 17 18 20 15 25 6 27 3 25-1 26-1 27-1 25-3 24-3 27-7 25-7 24-3 23-5 25-7 28-6 28-3 30-4 29-2 28-2 27-2 28-1 26 0 29-1 28-4 28-5 28-4 25-1 26-3 26 0 25 2 26-2 25-3 24-5 25-1 22-12 15-20 5-27 1-28-3-25-3-29-3-30-4-30-2-24-2-27-3-25-3-26-2-26 2-24-25-8-26 3-24 4-25 2-28 2-31 1-24 0-26 0-27 0-26 0-29 0-30 0-29 2-28 0-29-2-30 1-31 3-31 4-29 4-27 1-26 3-27 3-26 3-24 1-31-1-24 0-31 2-26 0-24-1-26-1-27 0"/>
<path d="M4410 7291l-1-2-14 22-4 28-5 25-3 27 1 27 3 27 1 26 1 27 2 29 2 26 3 26 9 25 14 20 19 15 25 2 27-2 24-3 25 1 24 2 26 2 24 1 26-4 27 1 25-2 26-3 25-2 25 0 25 1 29-3 24 1 25 2 30-2 25-1 30 2 28 0 25-4 25-5 26-3 25 0 28-4 26-4 25 0 24 0 27-1 26 0 27 3 26-2 25-1 26-4 22-12 13-21 3-28 0-26 0-25-6-24-1-25-3-25-3-25-1-29-2-24-2-25-3-27-3-27-11-21-4-25-1-24-3-24"/>
<path d="M6492 6912l 0-1-5 24 0 27 0 26-1 25-1 27-1 24-2 29 0 25-1 32 0 32-1 25 0 27 0 29-1 32 0 31 1 29 1 27 1 25 2 31 1 26 1 25 2 29 3 28 3 26 3 25 3 28 4 24 5 24 24 2 23-6 25-3 24 7 24 4 27 3 25-1 28-3 26-3 26 0 26 3 25 1 24 1 29 0 25 0 27 0 27 0 25-2 24-2 25-2 26-2 27-4 24-5 25-2 26 0 27-1 27 0 24-3 25-2 26-4 25-2 24 2 25 2 26 1 24 0 25 5 23 5 21-12 8-26 1-26 1-24-1-30-3-32-3-27-3-25-2-25-1-25 0-25 3-25 1-25 1-25 3-29 2-28 3-26 5-24 4-24 3-29 3-29 3-26 4-26 4-24 3-25 2-24 2-26-3-24-10-23-21-11-26-5-24-5-25-1-25 0-25 0-28 1-25 0-25-1-25-1-27-3-27-3-29-2-29 0-28-2-28-4-26-2-25 0-24-2-30-2-26-1-27 0-30 0-30 0-29-3-28-2-26-1-24-1-26-1-28-4-24-2-26 3-27 5-25 5-24 4-26 2-24-4-25 3"/>
<path d="M1463 8820l 0-1 12 23 5 25 0 26 5 28 2 27 2 29 1 26 1 25-2 24 0 29 4 25 2 27-2 24 0 27-1 25 19 16 24-6 25 0 26 0 25 2 25 3 25-1 25 2 24-1 24-4 25-6 26-3 24-4 25-3 25-1 25-1 24-3 25-2 22-8 25-8 9-22 2-27 1-27 0-27 1-26-4-25-1-25-5-25-3-26-3-25-3-27 1-27-5-24-4-24-22-11-25-2-25-1-27 2-30 5-26 5-27 4-24 3-30 4-28 3-25 3-26 2-26 1-26 1-28 2-25 1-25-2-23-10-24-5 25 0 25-1 26-2 25 1 26 0 25-2 25-2 24-6 24-1 27-1 25 7 26 1 27 3 26-1 24-2 27-3 26 0 26 1 24-6 25-3 24-8 24 0 25-4 27-5 25-3 26-5 26 0 25 0 24-2 28-3 25-3 24-3 24-4 24-1 25 0 26-1 26 2 24 6 26 1 25 6 11 21 7 25 4 25 4 25 3 26 3 27 3 26 0 27-2 26 2 24 0 27-3 25 0 25-4 28-1 24 3 24-22 12-26 0-25 5-27 2-26 2-28 3-27 2-25 4-25 1-28 1-24-1-25 0-24-2-25-5-23-5-25-7-26-5-23-5-25-4-24 2-24 5-25-5-24 1"/>
<path d="M1447 9250l 0-2 15-18 12 25 1 28 5 25 7 26 5 27 6 26 5 24 1 28 0 26 1 28 0 29-3 24 0 25-1 30-3 28 0 25 3 25 1 26 3 25 0 24 4 25 26 2 26-4 25-6 28-6 29-8 30-3 25-4 25-2 25 0 26 0 28-3 28-1 30 1 30 0 31-1 30-2 28 3 27 0 30-3 28-4 28-1 26 0 27 1 28-2 26-1 26-3 26 0 27 3 26 0 29-3 25-2 26-1 25-3 26-1 25-2 24-5 6-25 3-24 1-27 0-24-1-25-2-28 0-24 0-25-5-24 2-28-3-25 1-25 3-25 1-24 4-24 1-24 3-25 3-24 8-23-2-25 0-27 7-23 0-26"/>
<path d="M1678 10762l 2-3 16-22 18-17 22 14 6 25-2 32-5 30-5 24-6 25-7 27-8 28-9 29-11 31-11 30-12 32-13 32-13 29-11 28-12 27-11 25-15 31-14 24-13 21"/>
<path d="M1722 10700l 0-2 19-19 22-12 27-11 24-9 27-8 27-6 27-1 25 1 31 5 22 10 21 19 12 21 8 23 2 28-10 24-15 19-18 20-25 22-30 21-22 14-22 12-22 12-24 10-23 10-32 12-30 11-25 7-26 6 21-15 26-10 27-10 30-8 31-7 30-4 31-5 30-2 27 0 27 1 24 4 29 9 24 14 18 21 12 23 1 26-7 24-14 28-15 30-14 21-16 22-19 22-22 22-23 22-26 24-28 21-27 20-27 16-28 14-25 13-25 9-25 8-25 5-34 2-30-3-27-8-24-11-20-14-21-19-9-24 3-25 17-23"/>
<path d="M2190 10895l 0 0 10 22"/>
<path d="M2168 11026l-3 0"/>
<path d="M1985 11288l 0 0-1 26-6 26-7 26-9 27-3 26 0 24 28 3"/>
<path d="M1994 11211l-2 0"/>
<path d="M2556 11030l 1-2 10-22 16-23 18-20 22-16 22-15 25-1 6 26-6 28-8 28-9 24-11 27-13 31-15 28-13 27-10 26-11 23-13 26-14 19 13-21 13-22 14-29 11-22 13-22 12-23 14-23 14-25 15-23 14-22 14-21 18-28 17-22 19-22 19-20 24-8 12 25-2 28-6 25-8 32-11 27-12 29-13 28-14 28-13 26-10 26-7 24-9 26-6 24 24 8 21-19"/>
<path d="M2933 10978l-1-2-15 21-10 26-9 25-10 28-9 25-9 28-4 26 25 9 22-21 22-20 18-20 19-19 17-20 17-22 16-18 18-20 19-21 11-22-16 22-17 25-12 23-12 25-13 23-11 27-6 24 25-8 17-20 16-19 17-19 15-22 17-20 15-20 19-22 17-22 15-21 6 24-4 26-5 27-10 28-10 27-11 23-11 24 22-14 20-26 15-22 15-25 15-24 18-20 18-24 16-21 19 16-10 22-12 22-11 26-11 22 27-8 18-20 19-21 17-22 16-19 17-19 16-21 17 20-5 24-6 29-6 28-8 27-8 27-4 25"/>
<path d="M3464 11075l-1 0 24-16 22-14 20-12 21-17 23-21 25-23 18-16 20-19 19-20 20-23 20-25 18-26 19-26 19-25 17-25 15-27 12-27 8-25 6-25 4-32 1-26-2-25-16-19-26 13-20 17-22 24-16 18-17 22-21 24-18 27-18 29-16 31-16 32-15 32-14 34-10 31-9 32-7 31-4 30-3 29 0 27 2 24 6 29 9 23 17 22 19 14 26 8 27-9 23-19 24-24 15-22 13-21 10-30 5-28-3-25-9-28-15-20-23-9-9 24 14 21"/>
<path d="M3776 11008l 0-1 23-8 26-5 24-8 23-11 22-15 13-20-23-15-27 1-23 9-22 19-16 19-14 24-14 24-10 24-5 24 0 26 12 21 25 12 28-6 26-10 22-12 25-15"/>
<path d="M4011 10927l-2-1 26-10 24 0 25 2 8 23-18 17-19 17-20 17-19 19-16 21-16 25-3 25 16 21 24 5 28-2 29-9 25-10"/>
<path d="M4623 11003l-1-1-23-8-25 10-22 18-17 23-16 23-13 21-13 20-15 27-6 28 0 28 11 22 23 12 24-4 25-12 21-16 20-20 17-17 13-24 3-25-11-22-18-19 25-8 23-9 27-14 24-13 26-18 28-22 19-16 21-16 22-18 22-19 22-19 22-20 19-20 18-22 18-21 16-21 17-20 15-20 18-30 15-29 12-29 9-27 6-28 2-24-25 8-22 19-22 24-16 21-17 24-18 28-19 31-20 37-22 37-22 42-21 43-10 22-12 22-10 24-10 24-10 24-10 25-9 25-9 25-9 24-8 23-7 24-15 44-10 39-6 39-6 34-2 29 0 30 2 33 7 28 14 28 16 18 28 6 25-12 20-17 18-25 12-24 10-25 6-25 3-27 0-27-5-27-7-25-10-25-12-24-13-26-17-21 18-17 28-5"/>
<path d="M5427 11013l 2-3 12-24 18-21 23-11 23 8 8 25-3 30-7 30-9 24-12 24-14 23-16 25-14 23-14 20-17 22 14-25 19-29 15-23 18-23 18-24 20-24 19-24 20-23 19-22 18-21 18-20 17-17 16-18 22-21 21-18 24-16 22-11-2 31-12 22-17 25-21 30-14 23-15 24-15 23-15 24-13 23-11 22-12 30-8 25-3 27 4 24 18 17 28 2 24-10"/>
<path d="M5886 10994l-2 0-23 11-18 17-18 20-15 22-11 24 4 24 25 4 24-11 21-16 23-19 20-21 16-20 4-24-2-26 19-21 25-9 25-10 24-1 3 29-7 25-11 23-13 24-15 23-16 22-15 20 22-18 22-20 19-16 18-20 19-19 19-19 18-20 19-17 21-17 22-16 23-10-1 28-12 23-12 22-13 26-12 23-13 24-12 25-10 26 6 24 29-1"/>
<path d="M6276 10954l-1 0 23-9 29-8"/>
<path d="M6379 11108l-1-1 18-19 19-16 23-22 21-18 22-19 22-22 23-22 21-21 19-21 16-19 15-24 9-26 2-24-13 21-2 27 8 26 9 27 9 23 11 24 8 22 8 26-2 25-13 20-23 13-28 9-28 3-28 2-28 0-24-2 26-14 23-8 26-6 30-9 23-9 25-8"/>
<path d="M6814 10876l-1 1-11 22-8 28-7 25-7 30-8 31-10 29-7 23-9 26-11 25-11 27-11 26-13 29-11 27-11 26-9 24-8 23-10 32-7 25-3 25 16-27 10-26 11-28 13-31 7-23 7-26 6-26 6-29 6-29 6-30 6-29 6-27 7-25 9-33 12-27 11-22 14-23 16-19 22-15 24-10 28-4 25 0 25 7 25 13 10 24-5 28-13 23-21 23-19 16-22 17-20 15-19 17-25 15-24 11"/>
<path d="M7276 10877l-2 0-26-9-26-7-26-7-26 0-25 12-20 14-21 19-19 22-15 20-11 22 3 25 25 4 25-7 23-12 21-14 20-16 19-18-17 20-10 23-3 25 22 14 24-7 24-12 26-13"/>
<path d="M7345 10876l-2 0-21 14-16 21-13 23-1 27 22 10 19-18 20-22 20-22 20-21 22-18 20-17 24 3-1 28-8 23-13 24-14 23-12 22 24-2 24-15 20-14"/>
<path d="M7596 10864l-1-1-16 22-9 24-9 24-10 22-14 22-14 21 12-23 15-27 15-20 17-21 19-22 20-22 18-19 22-19 21-16 22-12 6 28-6 25-5 24-8 26-10 24-10 26-8 25-6 25 12 22 25-10"/>
<path d="M7885 10840l-2 1-18 15-18 24-14 21-13 27-7 26 2 26 23 10"/>
<path d="M7926 10689l-2-1-27-1-19 15 3 26"/>
<path d="M7972 10882l-1 0-13 22-13 23-12 25-16 24-15 22-10 22 24-13 24-23 22-20 24-24 25-24 22-22 19-17 23-15 20 15-10 25-10 27-4 24 12 21 25 9 28 0 27-1 29-5 23-9 24-10 25-12 25-13 24-17 23-16 18-16 19-19 11-23-8-25-25-8-27 4-24 12-20 15-21 17-20 22-16 21-15 24-6 28 5 25 17 17 26-1 23 6 3 25 1 26-1 29-2 32-3 27-4 31-7 33-7 26-8 26-9 28-13 30-12 31-16 33-17 34-18 34-20 33-20 31-19 28-21 26-19 24-17 20-16 19-21 20-22 10-17-22-4-29-1-24 2-28 5-32 7-34 9-36 11-39 13-40 16-44 8-23 18-44 18-43 10-22 20-41 20-37 19-34 19-28 21-23 20-21 22-16"/>
<path d="M8873 10849l 0-2 10-22-24-6-28 10-22 12-22 14-22 17-23 18-22 19-19 17-20 20-12 23 12 23 26 5 25-5 32-7 23-6 25-7"/>
<path d="M9002 10866l-2-2-28 4-22 11-21 17-7 25 13 21 25 13 26 7 24-3 22-11 12-21-17-22-18-16 5-25 20-14 23-13 28-10 24-9 26-4 22 14-2 26-9 25-12 26-12 24-13 20 25-15 20-18 21-22 23-21 21-18 22-18 20-13 1 25-9 28-11 27-9 23-4 25 18 22"/>
<path d="M9360 10908l-2 1-21 13 21 13 29-8 29-12 25-13 27-15 28-17 29-20 29-21 19-18 17-17 24-24 19-23 15-27 9-29 5-28 2-30-3-24-6-25-16-18-26 8-24 21-21 23-21 30-13 21-13 26-15 28-13 30-14 32-13 31-12 30-11 29-9 29-6 27-5 23 0 33 4 26 13 28 16 17 27 6 25-1 30-12 23-13 21-16 21-24 14-21 5-27-10-25-17-21-19-18-22-18-23-8"/>
<path d="M9709 10806l 0-1-18 20-10 24-11 27-9 25-6 27 1 26 24 13"/>
<path d="M9815 10644l-3-1-26 7-15 21"/>
<path d="M10048 10824l-2-2-21-16-22-15-25-9-28-1-26 13-25 20-19 18-18 21-15 21-13 23-8 30 5 27 19 14 30 7 30-7 23-12 26-15 22-16 12-21-3-25-25-3-9 25-6 25-3 24-3 29-4 31-3 25-7 27-6 27-9 27-9 28-10 26-11 29-12 28-14 27-15 26-16 23-17 23-17 21-16 18-25 25-21 18-23 15-25-5-6-29 6-27 10-35 11-24 13-28 15-31 17-31 19-32 19-31 21-30 22-27 24-25 22-22 22-19 21-19 21-17 21-17 21-15 20-14 21-13 21-12 21-12 21-13 30-17 26-17 22-14 22-17 24-20 20-19-20-15-23 9-11 22 2 27 6 25 10 26 11 21 14 22 3 26-16 20-23 14-25 6-26 1-25-4 22-13 28-1 26-3 29-3 24-2"/>
<path d="M10588 10955l 0 0 23 14 29-5 26-11 29-15 22-14 24-15 24-18 25-16 26-19 23-20 23-20 21-21 18-20 16-21 14-22 10-22 10-34 2-32-1-29-6-26-11-28-18-18-27 5-25 19-22 25-16 24-19 28-19 35-18 37-19 43-19 43-9 23-10 24-9 25-9 24-10 25-9 25-9 26-10 25-15 47-7 24-6 24-6 24-9 45-7 42-4 36-2 30 0 26 5 29 14 25 22 11 25-8 23-17 18-16 18-22 19-22 17-24 16-24 13-26 10-26 6-27 3-28 0-25-3-25-6-25-8-24-12-33-12-27-13-21-19-16"/>
<path d="M10966 10828l-2 0-25 6-23 14-15 20-10 26-5 26 0 25 3 24 14 20 26 0 26-13 22-16 19-16 14-21-1-25-14-22-20-16-23-11-24-4 25 6 27-7 28-9"/>
<path d="M11094 10807l 2-1 24-8 26-2 26 3 19 16-8 25-19 19-22 19-23 18-19 16-16 21 0 26 21 13 25-1 26-4 29-8"/>
<path d="M11522 10935l-1 0 24 0 31-5 30-7 25-9 28-14 29-16 20-13 22-14 22-15 23-17 23-17 20-17 19-17 17-18 21-27 16-28 12-28 9-30 8-26 6-24 7-24 7-24-9 27-13 31-16 34-13 27-15 29-16 32-18 30-19 30-19 30-20 29-19 29-18 28-15 26-15 22-13 21-15 26-14 23 20-14 21-20 26-27 18-21 17-19 17-18 23-23 21-22 18-17 20-16 21-12 6 24-11 25-10 23-11 26-5 26 19 18 27 0 23-9 23-11"/>
<path d="M12012 10890l 0 0 26 6 24-8 23-9 25-12 18-16-14-22-23-7-28 1-24 9-22 13-19 15-17 19-11 22-5 25 4 25 18 21 24 12 26 4 25-3 30-8 30-10 29-13"/>
<path d="M12238 10856l-2-2-21-9-22 17-15 21-12 23-12 26-6 29 4 27 13 23 27 5"/>
<path d="M12363 10692l-2-4-14-20-23-9-21 13-7 24 3 28"/>
<path d="M12445 10872l-1-2-16-18-25-3-25 9-20 14-24 19-16 18-15 19-16 24-12 22 5 25 23 12 29-3 26-6 28-10 24-9 25-14 18-17-23-7-10 23-4 25-1 25-1 24-1 25-2 30-4 36-4 26-5 27-7 26-7 27-9 27-10 26-11 29-12 27-13 27-14 26-15 24-14 22-15 20-24 25-19 16-27 7-21-17-8-31-2-36 2-27 4-31 8-35 9-39 13-45 14-46 8-24 8-25 11-25"/>
<path d="M12695 10612l-1 1-8 25-5 29-2 28-2 25-2 25-5 24-6 29-10 34-9 25-10 24-10 23-13 23-11 22-12 21-18 28-14 23-15 20 8-24 15-24 18-28 20-29 22-27 22-24 21-22 19-16 19-16 22-14 0 28-10 22-12 26-9 23-10 25-6 27 9 23 28 0"/>
<path d="M12984 10626l 0 0-14 24-12 25-7 27-9 31-8 25-9 29-10 28-11 28-12 25-9 26-9 24-10 28-6 24-3 25 9 25 26 1 28-9 27-13"/>
<path d="M12833 10801l-2-1 26-4 26 0 28-3 30 1 32 1 24 2 26 1"/>
<path d="M13413 10860l 0 0-14 22-13 23-11 26-10 24-10 25-8 25-5 27 5 26 26 5"/>
<path d="M13483 10704l-2-1-25-5-3 26"/>
<path d="M1833 12041l 2-2 14-23 9-24-11-21-28 0-25 6-24 10-29 15-32 17-26 14-24 16-26 16-28 19-26 21-29 22-29 26-29 26-27 27-27 27-26 26-26 27-26 28-22 27-20 27-16 26-13 23-13 33-7 29 2 24 9 29 18 23 24 18 22 9 28 4 32 0 31-4 30-6 32-6 32-12 31-13 31-14 30-13 26-13 28-12"/>
<path d="M1830 12491l-1 1-13 21-10 26-11 25-6 24-5 28-2 29 6 24 25 2"/>
<path d="M1822 12391l-1 0"/>
<path d="M2090 12246l-2-1"/>
<path d="M2059 12351l-1-1"/>
<path d="M2502 11993l 1-2 2 27-8 27-7 33-8 23-7 25-7 30-10 30-11 33-11 32-12 34-13 34-12 35-12 36-12 35-11 35-10 34-10 34-9 31-9 29-8 27-6 23-5 33-5 23-3 26 11-25"/>
<path d="M2695 12324l-2 1-25 11-24 15-19 16-19 18-20 20-16 24-16 23-13 23-7 27 2 27 25 16 23 5 28 0 30-5 24-6 27-6"/>
<path d="M2856 12414l-2-1-25 1-24 14-16 17-2 24 18 16 26 2 26-7 21-12 20-14 20-17 15-21-9-23 16-19 24-14 23-11 25-4 11 24-6 28-9 25-10 23 27-6 20-17 21-18 20-18 18-17 21-23 21-19 20-14-8 26-11 26-13 24-11 22-11 23-8 25 6 25 22 10"/>
<path d="M3247 12409l-2 1-17 18 14 22 24 0 22-11 29-16 22-16 25-16 25-23 28-24 16-19 16-18 16-18 21-28 19-28 15-31 13-32 6-24 7-34 6-31 4-24-2-25-28-1-24 20-20 23-15 20-16 23-16 28-17 31-16 34-19 36-19 40-20 42-19 43-18 43-15 43-14 41-10 41-6 37-4 32-2 30 2 26 7 34 12 25 18 23 22 14 24 5 22-11 8-26 10-24 12-25 9-28 9-22 6-28 4-26 5-27 3-28 0-25-2-25-9-24-28-2-23 10 26-6"/>
<path d="M3577 12377l-2 0-18 18-13 26-9 26-2 26 8 24"/>
<path d="M3667 12264l-2 0-26 8-14 22"/>
<path d="M3814 12358l-2-2-23-13-24-8-25 1-24 12-20 15-20 19-14 20-8 23 1 25 21 14 27-5 25-6 25-12 18-16-5 25 0 25 5 27 7 29 6 25 8 28 5 30 0 24-1 24-5 25-8 25-11 25-13 25-18 22-20 19-22 19-22 12-29 9-26 0-23-10-18-17-8-24 2-26 6-30 12-34 9-25 11-25"/>
<path d="M3982 12336l 0-2-7-23-24-5-24 12-21 15-21 18 0 25 25 7 27 2 24 6 26 9 17 16-6 25-18 21-21 15-25 14-25 8-28 3-25-6-9-23"/>
<path d="M4260 11956l 0-1 1 28 0 29-1 29-2 27-2 32-3 35-4 25-6 25-6 27-10 27-9 29-11 30-12 31-12 31-12 32-14 31-12 32-12 29-12 29-9 28-10 25-8 25-12 28-8 24-11 26"/>
<path d="M4570 12443l-1-1 29 3 27-9 22-11 26-15 29-20 22-16 22-19 26-22 27-23 27-25 27-27 27-27 25-27 22-28 22-29 19-27 17-25 14-24 13-21 13-32 9-28 6-25 3-25-26 2-17 25-15 25-17 31-13 23-13 25-14 28-13 28-15 30-15 30-16 28-16 30-15 28-14 29-14 28-12 26-11 23-11 31-8 25-4 27 9 23 23-14 19-17 22-22 24-26 16-18 16-18 16-19 21-28 19-24 18-19 20-17 19-15 3 26-7 30-8 26-9 27-8 26-7 24-5 26 10 24 29-6"/>
<path d="M5113 12334l-1 1-13 20-9 25 1 25"/>
<path d="M5170 12150l-2-2-24-5-10 22 9 23"/>
<path d="M5307 12275l 1 0-20-17-25 3-22 12-22 19-17 17-18 20-16 20-16 26-8 25 11 23 24 6 23-8 25-13 20-13 20-16 17-21 2-25"/>
<path d="M5007 12344l-2-1 24-7 24-14 23-18 20-19 16-20-25-3-22 17-17 17-14 20-16 24-13 23-10 23-9 25 12 22 27 6 30-6 29-12"/>
<path d="M5303 12339l 0-1-14 24-7 25-6 26-6 26-5 23-7 27-10 28-8 29-10 29-11 33-9 23-10 24-10 22-13 31-13 28-15 27-15 26-14 23-21 21-22 12-27 5-25-9-15-19-13-26-11-28-6-26 0-31 3-33 6-25 7-25 9-27 12-27"/>
<path d="M5431 12037l 0 0-5 25-4 31-6 33-6 27-7 29-8 29-9 31-11 32-11 31-13 32-12 32-14 28-14 26-17 26-14 24 12-27 14-20 16-24 17-22 16-21 16-18 20-22 20-20 19-16 13 24-5 25-8 25-8 23-8 24 6 24 24-5 23-12 25-18"/>
<path d="M5677 12077l 0-1-15 24-7 24-10 28-7 25-9 28-10 30-10 31-12 31-12 31-10 30-9 27-7 25-6 24 4 25 29-8 21-13 22-16 18-21"/>
<path d="M5543 12282l-3 0-24-2 21-16 25-9 30-6 25-5 27-4"/>
<path d="M6055 12249l 0 0-14 23-11 22-15 26-14 25-14 27-12 25-10 28 8 25 29-8 23-15"/>
<path d="M6078 12161l-2-1"/>
<path d="M6427 12282l 1-2 13-22 13-21-7 26-16 26-15 21-15 22-13 21-14 24-9 23 15 21 29-8 25-11 24-14 20-17 19-18 19-19-6 26-4 24 4 24 19 16 25-7 21-14 22-21 18-20 17-21 14-22 10-27-1-25-12-27-17-19-23-9"/>
<path d="M6880 11918l 0 0 8 23 0 26-4 26-7 28-9 30-8 26-9 27-10 31-13 30-15 31-14 29-15 28-17 28-15 26-14 26-15 22-13 21-19 21-19 15 7-26 14-21 20-22 21-22 17-17 19-19 21-19 20-22 20-18 19-18 18-17 20-18 22-16 5 25-12 26-10 25-13 27-13 28-10 25-10 25-7 27 13 20 25-7"/>
<path d="M7032 12213l-1 1-20 18-15 23-11 23-11 24-10 23 2 25"/>
<path d="M7043 12108l-1-1"/>
<path d="M7244 12165l-2-1-27 4-23 11-23 13-23 18-22 21-15 20-14 25-5 27 13 21 22 13 24-2 25-4 26-7 29-9"/>
<path d="M7389 11912l-2-2-25 4-5 26-4 32-3 27-3 30-4 33-6 34-4 26-7 25-6 25-7 23-10 32-9 28-6 24-8 25-9 23 17-21 21-20 18-18 23-21 18-17 16-17 22-20 19-16 19-16-2 27-11 25-11 24-11 23-10 26-8 27-7 27 7 26"/>
<path d="M8160 12178l 0-2-20-18-31-3-31 4-25 9-27 11-27 13-28 13-24 12-26 16-21 16 15 22 31-1 31-2 25-1 24-1 30 1 24 3 24 6 11 22-23 19-26 16-24 15-25 14-24 10-28 6-25 2"/>
<path d="M8393 11918l 0 1-5 26-6 27-6 24-9 30-11 25-14 28-16 31-10 23-12 24-12 22-12 22-13 21-18 32-15 29-11 27-8 27 2 25 22 13 28-12 22-11 24-11 28-16"/>
<path d="M8232 12182l-3 0 21-14 32-6 36-7 27-4 28-3"/>
<path d="M8608 12200l-2-2-21-13-25-11-25 4-25 10-20 13-19 15-16 18-14 21-6 23 18 20 25 0 25-4 27-8 21-12 14-20-18 18-6 24 19 18 26-9"/>
<path d="M8690 12193l-1-1 21-16 26-2 27 4 22 12-18 20-23 13-24 16-21 16-22 17-18 16-14 19 8 25 26-1 27-9 23-11"/>
<path d="M9030 12030l-1-1-18 17-14 21-12 21-13 23-14 24-14 28-14 25-14 22-11 23-11 25-8 26 5 25 22 9 28-4 31-8 26-7"/>
<path d="M8808 12105l 1 0 24-4 30-7 27-5 29-4 31-4 31-3"/>
<path d="M9505 12162l 0-1-27 6-18 19-13 24 4 25 24 7 28-2 23-8 21-15 13-22-21 13 13 24 21 14 25 2 26-8 25-14 22-19 14-20 5-26-9-23-24 1 24 5"/>
<path d="M10039 11824l-1 0-18 20-17 24-13 25-16 29-11 21-13 23-14 25-14 27-18 30-18 30-19 33-21 33-21 34-21 36-21 34-20 35-22 35-22 33-20 33-21 31-20 29-18 28-16 23-12 22-15 24"/>
<path d="M10395 12188l 0-2-23-9-25 9-25 10-22 11-24 14-22 12-24 13-18 18 25 10 26-1 24-3 25-2 31-3 25-1 28 4 12 22-17 23-21 18-20 15-22 15-22 11-28 14-24 7-24 7-24-4 10-22 21-21"/>
<path d="M10565 12195l-1 0-14 20-11 23-9 25-10 31-9 26-10 30-16 34-10 22-11 23-16 32-16 30-12 26-12 26-4 26"/>
<path d="M10586 12195l-1-1 15-21 25-8 25-1 28 4 20 13 15 21-5 23-14 22-18 19-25 19-22 16-23 14-23 15-21 11"/>
<path d="M10947 12225l-1-2-13-24-17-19-25-7-24 6-22 10-25 13-21 19-15 23-2 24 22 12 25 0 25-1 24-8 24 8 25 1 26-4"/>
<path d="M11036 12215l-1-1-24 6-21 18-18 22-11 22 11 22 23-9 24-13 23-16 21-15 18-19 19-17 18-17 10 24-5 27-7 24-5 28 0 26 15 23 25 4"/>
<path d="M4682 2848l 2-2 18-15 22-12 25 2-3 26-9 26-13 26-14 31-11 23-10 25-12 25-11 27-11 27-10 27-10 29-9 29-10 27-9 28-9 27-8 25-6 25-9 31"/>
<path d="M4707 2847l 0-2 10-22 23-14 27-12 23-8 25-8 26-5 27-4 27-1 24 3 30 8 25 13 22 17 12 21 3 25-9 25-20 26-21 21-25 21-27 19-20 15-31 18-29 17-30 15-26 11-24 9-26 9 18-18 28-9 30-7 28-3 28-3 28-1 28 2 29 4 26 5 25 8 22 11 22 16 14 23 0 28-13 26-16 23-24 25-19 17-20 18-23 19-24 19-25 17-28 17-27 15-28 13-25 12-26 8-26 7-24 5-33 3-30-3-25-7-22-10-20-15-12-20 6-24 20-18"/>
<path d="M5095 3301l-1 2-13 20-12 23-10 25-6 28-5 28-1 26 7 25 26 6"/>
<path d="M5123 3171l-1 0"/>
<path d="M5378 3047l 0 0 25-3 28 1 27 1 30 3"/>
<path d="M5350 3148l 0-1 23-16 27-6 30-5 28-3"/>
<path d="M5878 2854l 1-1 5 24-5 25-12 28-12 24-15 26-15 25-17 25-17 26-18 25-16 24-12 24-11 24-4 24 18 16 29 4 32-3 30-5 31-7 31-7 31-6 29-6 28-7 25-5 30-8 26-4 24-4"/>
<path d="M5965 3009l-1-1-6 28-3 27-2 31-1 26-1 28-3 28-3 28-2 26-2 26-3 24-3 28-2 27"/>
<path d="M6272 3374l 0 0-10 23-17 23"/>
<path d="M6976 2916l 0-2-2-25-27 8-23 13-19 14-21 17-22 18-21 20-22 21-23 24-23 24-17 18-16 18-15 20-20 26-15 26-9 22-5 26 5 24 10 22 17 23 23 16 25 9 30 6 26 0 29-2 30-6 32-7 32-8 31-8"/>
<path d="M7135 3292l-1 0"/>
<path d="M7123 3295l 0-1 16-18 23-9 26-2 26 3 21 12 13 20-2 27-17 26-17 17-19 20-22 20-23 19-25 17-25 16-23 15-20 13-21 13 28-4 24-6 26-6 27-5 27-4 26 0 26 3"/>
<path d="M4997 3270l 0-1-9-22 17-22 22-13 24-9 26-3 25 3 19 15 12 23-3 28-9 28-11 23-18 25-17 21-18 22-21 23-22 21-23 21-24 20-22 18-18 16-24 17-23 13 15-24 21-16 22-16 21-13 24-9 27-5 28 5 26 6 24 5 24 11 21 12 22 12 24 5"/>
<path d="M7598 3046l 0 0 26-6 26-4 28-4"/>
<path d="M7584 3115l 0-1 24-7 27 0 24 0"/>
<path d="M7972 2945l 0-2 20-15 25-6 25-1 26-3 27 2 26 2 24 6 22 11 3 25-21 16-24 15-21 13-23 13-25 13-25 12-25 13-24 12-22 10-23 12 20 16 23-6 26-8 25-6 27-3 29-2 31 0 30 5 28 8 26 11 26 13 23 16 20 16 20 21 11 25-1 24-10 22-19 23-19 18-22 19-25 19-26 16-28 15-26 12-28 8-26 6-24 2-31-1-27-6-24-10-22-17-14-22-1-28"/>
<path d="M1475 13231l 0 0 12 23 2 27-1 28-5 30-6 31-1 36-3 24-4 27-5 27-6 26-5 25-5 25-3 25-4 25-5 25-7 28-8 26"/>
<path d="M1444 13236l 0-2 13-21 21-20 27-15 28-10 31-6 25 1 25 0 31 6 22 8 29 13 28 13 28 16 24 17 22 21 17 21 12 22 6 28 0 28-8 33-11 28-19 30-15 23-16 22-16 22-18 22-19 20-22 21-21 19-21 19-23 18-20 15-24 14-22 10-33 15-29 9-25 4-32 0-27-6-17-17"/>
<path d="M1825 13654l-1 0-12 22-10 23-7 28-3 26 0 24 13 22 25-12"/>
<path d="M1812 13539l-1 0"/>
<path d="M2119 13418l-1-2"/>
<path d="M2106 13535l-2 1"/>
<path d="M2533 13266l-2-1 14 21 0 26 0 25-2 28-5 31-8 31-10 26-8 28-9 29-14 32-8 23-9 24-8 24-7 23-11 31-7 29 1 27 12 23 26-6 22-14 26-20 18-22 20-23 21-24"/>
<path d="M2445 13495l-2 0 20-14 23-10 23-9 25-9 28-7 25-6"/>
<path d="M2665 13461l-1 3-11 25-13 25-8 23-9 22 0 25 17 21 28 6 25-7 25-13 23-17 21-21 14-25 6-25-11-23-23-9-25 0"/>
<path d="M2927 13268l 0-1-3 27-5 24-3 26-3 26-7 26-9 32-9 23-8 25-8 22-10 23-11 31-9 32-6 29-5 30 3 26 24 5 21-13 27-20 22-17"/>
<path d="M2830 13465l-3 0 18-23 23-10 23-9 26-7"/>
<path d="M3115 13482l-3 0-25 4-27 3-27 10-23 13-18 16-11 24 14 22 27-1 26-9 22-9 12 23 21 13 24-2 26-12 24-17 21-14 22-16 23-18 25-20 23-22 21-27 15-26 16-24 14-26 9-27 3-26 0-27-1-25-5-28-13-23-27-2-22 13-19 20-13 22-13 29-10 27-7 31-7 33-4 25-4 24-3 24 1 33 4 29 6 25 6 24 12 25 14 20 25 15 28 2 24-3"/>
<path d="M3950 13196l 0-2-8 24-6 32-5 24-7 29-7 32-9 34-12 37-10 38-12 39-14 37-12 41-15 41-13 41-14 38-15 33-11 33-13 31-10 29-9 29-9 24-12 29-7 27 25-4"/>
<path d="M4129 13546l-1-1-26-1-25 10-20 16-20 21-17 23-11 25-4 25 21 18 27 2 29-5 24-6 24-7"/>
<path d="M4279 13534l-2 1-22 15-21 20-15 21-9 23 14 19 26-2 25-12 23-11 21-18 19-16-8-23-24-8 23-16 25-10 23-9 27-6 24 2 11 25-6 23-11 25-13 22-11 23 22-15 17-19 18-21 16-18 18-19 18-17 20 13-1 26-3 26-2 28 1 26 11 22"/>
<path d="M4604 13612l-1 1 17 19 24-11 25-16 24-16 26-22 29-20 27-21 27-22 26-25 18-16 16-18 21-25 18-24 13-26 9-25 4-24 3-32-3-25-12-23-25 1-20 15-18 20-17 24-17 32-13 25-12 31-13 33-13 36-15 39-16 40-16 43-15 47-8 24-15 44-12 43-11 41-10 37-6 38-6 34-4 33-4 30-2 27 1 35 6 25 12 25 22 12 18-19 14-21 18-26 11-21 11-23 9-22 10-23 9-35 6-26 3-26 3-27 1-25 1-32-3-26-5-28-9-27-13-23-9-22 25 0"/>
<path d="M4956 13519l-1 0-13 23-8 26-8 27-5 25-6 25 4 25 26-8"/>
<path d="M5031 13458l-1-2-13-21-23 9 4 25"/>
<path d="M5172 13555l-1-2-16-18-22-13-25-7-25 3-22 10-15 19-16 23-12 27-2 25 13 21 25 5 24-4 27-9 22-13 19-18 12-21-9 25-4 27-3 25-2 30-4 31-6 31-6 23-12 26-11 24-14 26-13 25-14 22-18 24-16 21-15-25 3-29 9-27 13-27 14-32 12-22 12-21 20-28 14-20 22-27 16-21 16-18 16-18 24-26 22-24 20-24 18-19 18-18 18-21 18-22-16 20-5 25 2 25 11 24 12 26 14 24 11 23-22 15-25-6-24-2 26 6 25-1"/>
<path d="M5528 13233l 0-2-3 29 1 25 2 31 1 31 1 31-1 35-3 24-2 28-4 26-4 26-6 27-7 28-8 29-9 28-10 27-10 25-11 25-11 25-11 22-13 31-10 24-10 23"/>
<path d="M5902 13611l-1 0 24 8 26-6 27-13 23-16 28-21 21-13 21-17 23-17 21-17 21-21 21-19 20-21 18-20 17-21 14-20 16-31 10-30 4-30-2-28-4-25-8-24-21-12-17 21-13 22-16 28-11 23-12 26-12 28-13 33-13 33-14 34-15 37-13 38-14 39-14 42-11 40-11 42-8 40-7 41-6 41-4 37-3 34-1 32 0 27 1 24 4 30 9 23 27 7 19-19 16-27 11-25 10-23 8-26 5-27 4-24 3-27 1-27 1-25-1-24-3-33-5-28-5-25-7-27-9-23"/>
<path d="M6273 13453l-2-2-25 2-21 14-19 21-9 23-6 25 2 28 6 24 13 21 28 3 22-11 20-20 14-22 7-23-7-25-23-10 25-3"/>
<path d="M6358 13460l 0 0 25-6 26-4 23 5 16 20-17 18-23 16-19 15-17 20-18 19 1 24 26 9 26-7 27-7 31-8"/>
<path d="M6832 13494l-1 1 28 1 25-10 23-14 26-15 30-15 20-15 21-15 21-16 21-17 20-16 20-17 18-19 17-18 21-29 17-28 13-30 9-31 8-27 7-27 4-29-19 23-13 25-16 31-15 22-16 27-17 29-18 31-18 33-17 32-18 32-17 31-16 31-14 30-12 27-9 24-10 34-4 25 0 25 27-8 18-20 20-26 20-30 16-26 16-27 12-22 16-21 15-23 19 16-4 25-6 27-5 25 19 14 27-3 25-13 22-13 20-15 24 0 24-9 20-13 22-16 15-18-11-22-26-2-24 9-20 17-16 20-15 22-8 27 4 26 18 20 28 9 29 0 31-6 25-8"/>
<path d="M7454 13447l-1-1-22 13-14 21-10 26-1 26 6 24 19 16"/>
<path d="M7520 13279l-3-2-24-6-27 3 5 25 22 18"/>
<path d="M7652 13429l 0-1-15-19-24-6-25 8-24 14-18 17-19 24-13 23-4 24 9 23 25 4 28-3 24-7 25-13 22-18 15-18 1 25 1 27 2 25 1 25 1 28-1 30-3 30-6 25-11 26-15 28-18 28-16 21-15 18-18 18-17 18-25 24-25 19-23 7-27-1-15-25 0-25 6-34 9-28 12-31 13-36 18-40"/>
<path d="M7822 13062l-1 0-13 25-6 30-1 25 0 26-1 31-1 34 0 26-2 26-2 26-4 25-5 26-6 26-8 25-8 25-10 23-14 32-12 26-14 25 21-25 20-23 15-19 17-20 17-19 16-21 15-19 22-23 19-17 19-15 21-12 11 22-3 26-5 23-3 25-4 27 6 24"/>
<path d="M8133 13142l 0 0 3 29 3 28 0 29-4 32-5 27-8 31-9 29-12 29-11 30-12 26-9 27-9 24-5 26 7 24 26 4 28-5 25-8 25-12"/>
<path d="M8039 13314l-2-1 29-4 30-2 26-1 28-1"/>
<path d="M8611 13401l-1 1-11 21-11 23-9 28-8 28-7 25-5 27 21 11"/>
<path d="M8676 13280l-2-2-24-8"/>
<path d="M8409 3376l-2 2-19 25-12 28"/>
<path d="M8877 2875l 0 0 2 26-5 30-8 30-6 24-7 24-9 27-9 29-10 30-10 33-11 32-11 32-11 29-10 29-11 29-9 27-8 26-8 23-7 30-7 23"/>
<path d="M8868 2909l 0-4 5-26 18-17 28-7 28-2 29 1 25 4 26 6 27 6 28 8 28 10 28 11 27 12 25 13 23 15 22 15 18 17 14 20 11 30 0 24-8 28-17 30-17 20-20 24-23 22-25 23-27 22-28 22-29 22-30 21-30 18-30 16-29 15-30 12-29 12-29 9-26 8-25 6-28 4-29-1-24-8"/>
<path d="M9257 3278l 0 0-13 23-12 23-11 22-10 24-8 25-7 28-4 25 0 25"/>
<path d="M9342 3145l-2-2"/>
<path d="M9548 3080l 0-2 26-4 24 1 26 2 25 4"/>
<path d="M9517 3173l 0 0 26-2 28 1 24 1 27 0"/>
<path d="M10104 2982l 0-3-4-25-7-24-19-18-27-5-26 8-26 12-28 16-26 19-22 20-14 20-4 25 8 24 16 23 21 16 27 16 23 12 25 9 27 10 26 10 25 11 22 10 22 15 16 17 13 21 5 33-6 26-12 28-18 25-23 25-28 22-20 15-21 12-23 10-34 10-35 3-34-3-33-9-28-17-22-21-15-22-10-23-3-32 3-26 8-26 13-27 20-25 23-28 18-17 20-17 20-18 22-17 22-15 23-17 24-15 21-14 22-14 22-14 21-12 28-17 25-14 22-12"/>
<path d="M9153 3329l 0-1 1-25 12-22 17-21 18-17 23-16 23-9 24-7 27-4 25 8 14 22-2 27-11 27-16 26-19 23-18 18-20 19-21 20-22 19-22 18-22 15-26 16-25 14-24 9 12-23 20-14 23-14 23-9 26-3 27 2 27 7 26 9 23 10 23 10 23 5"/>
<path d="M4985 1916l 1-2 4 29-7 31-6 28-7 28-7 29-7 30-10 31-9 32-10 33-10 34-12 33-10 30-9 23-8 25"/>
<path d="M4989 1921l-1-2-2-25 21-16 29-10 30-9 28-7 27-6 29-5 30-3 28 1 25 5 26 9 23 14 11 23-5 27-14 29-17 24-21 25-25 24-18 17-18 17-20 15-21 15-22 15-21 13-22 12-22 12-31 13-27 10-29 9-23 5 15-22 24-17 21-13 27-14 23-9 30-6 26-3 25 2 28 7 22 12 19 18 10 23 0 26-7 24-13 29-14 24-16 22-19 22-19 19-22 17-23 16-25 14-24 15-28 10-28 3-24 2-26-3-23-9"/>
<path d="M5296 2346l-1 0-9 23-10 29-7 25-4 29-3 24-2 27"/>
<path d="M5556 2167l 1-2 22-10 25-4 27-3 26-3"/>
<path d="M5524 2258l 0-1 20-14 28-7 25-4 30-4"/>
<path d="M6012 1925l 0 0-2 25-4 27-5 24-9 31-7 28-6 28-7 29-7 30-7 29-7 32-6 28-6 26-6 24-4 27-4 24-2 25 16-21"/>
<path d="M7280 1929l-1-1-25-7-25 7-25 12-24 15-21 13-24 19-21 15-20 19-20 19-18 22-18 22-16 25-14 24-12 26-8 25-5 24 0 29 6 27 12 26 20 18 23 10 27 0 25-3 25-4 28-7 28-8 29-10 29-7 26-5 24-6"/>
<path d="M7412 2279l 0 0-15 21-12 24-9 23-7 24-6 25-6 25-6 25"/>
<path d="M7606 2133l 0 0 22-11 26-4 28-3 25-2"/>
<path d="M7598 2198l 0-1 24 6 26 1 24-1 24-1"/>
<path d="M8240 1888l-1-1-16 25-6 29-5 27-5 29-6 30-6 31-7 31-6 31-8 29-8 30-7 32-5 30-7 28-5 24-5 25-6 30-4 26-1 26"/>
<path d="M9101 1928l 0 0 3 25 0 30-2 25-4 30-4 31-5 25-8 25-8 23-9 25-8 25-9 23-10 28-11 23-12 23"/>
<path d="M9113 1922l 2-2 18-15 27-6 28-1 27 1 32 3 25 6 26 8 26 9 23 11 21 14 24 19 23 20 21 20 16 21 12 23 8 25 4 28 1 27-7 25-13 25-17 21-23 21-28 20-29 19-21 12-22 12-23 10-23 9-25 6-23 7-24 5-33 5-30 3-25 0-25-4-24-7-17-20"/>
<path d="M9522 2330l-1 0-6 24-6 26-10 23-13 24-10 22"/>
<path d="M9762 2105l 0 0 27-2 24 4 27 3"/>
<path d="M9733 2200l 0 0 26-6 24 0"/>
<path d="M10104 1933l 0-2 11-21 24-10 25-2 25 0 24 1 29 4 26 7 27 6 26 6 28 9 23 11 19 18 4 25-12 27-18 24-19 20-23 20-24 22-25 22-27 21-27 21-29 22-19 15-29 21-28 18-28 18-25 15-22 11-21 12-21 12 27-1 28-5 27-3 29-1 32 1 25 1 27 1 25 1 25 0 29 0 27 3 25 3 23 5"/>
<path d="M2522 14858l 1-2 16 22-1 31-4 32-5 29-4 30-8 31-9 35-13 33-6 24-11 34-6 24-10 31-7 27-8 26-8 25"/>
<path d="M2595 14819l 1-3 15-19 24-10 30-1 28 3 30 7 32 9 22 10 21 13 19 17 19 19 14 22 16 27 12 26 11 28 6 25 4 29 0 30-2 29-6 29-12 31-11 21-13 22-15 22-16 20-25 26-27 22-26 21-21 11-22 12-23 9-24 7-29 9-29 4-25 1-25-4-23-10-20-16-2-28"/>
<path d="M2928 15318l 0 0-14 23-12 25-11 25-5 25 0 25 6 25 20 15 25-6"/>
<path d="M2959 15205l-2 0-20 17"/>
<path d="M3085 15375l 0 0 27 4 26-2 27-4 27-6 26-7"/>
<path d="M3310 15310l 0 2 0 25 4 25 1 24 3 28 2 26 1 25-1 26"/>
<path d="M3568 15211l-1-3 24-1 26 3 27 0 29-1 31-6 25-5"/>
<path d="M3641 15155l-1 1-7 26 2 25 9 26 9 23 9 22"/>
<path d="M3832 15332l-2-1"/>
<path d="M3919 15341l 0 1 24 3 25 4"/>
<path d="M4038 15387l 0-1"/>
<path d="M4244 15224l 2-1 24-7 26-5 28-1 27 3 30-4 25-4 27-10"/>
<path d="M4368 15112l-2 2-15 23-3 26 4 27 5 25 6 25 8 24"/>
<path d="M4689 14958l 0 1-1 26-1 27 0 29 0 26-1 29-3 30-5 33-5 37-6 35-5 25-6 23-9 33-8 26-8 27-2 25"/>
<path d="M4701 14956l 2-2 21-15 29-4 27 1 26 4 26 7 29 11 28 12 29 10 28 15 24 13 23 18 24 19 20 19 12 22 4 30-3 29-11 25-15 22-19 25-26 25-20 17-22 17-22 16-25 18-26 15-27 14-26 12-25 11-23 11-31 10-26 9-27 3-26-3"/>
<path d="M5063 15349l-1 0-12 23-7 26-6 24-6 27-5 26-5 24-4 24"/>
<path d="M5339 15213l 0 0 24-5 24-2 29-2 25-3 25-6 25-6 24-9"/>
<path d="M5454 15121l-2 0-16 20-1 24 0 27 0 25-2 29 0 25 1 24"/>
<path d="M5963 14973l 0-1-5 26-8 28-6 26-5 26-6 28-4 31-4 28-3 26-2 28-2 29-4 27-9 24"/>
<path d="M5969 14996l 0-1 15-20 24-12 25-6 24-6 26-2 25 1 25 6 26 4 24 4 27 9 23 6 21 15-6 24-20 19-23 17-22 15-26 14-29 14-30 14-30 11-26 8-28 10-25 5 13-21 26-8 24-6 29 0 27-2 27 2 26 5 25 7 25 7 26 12 23 13 23 16 14 22 8 23-1 26-9 25-16 23-20 24-17 18-18 16-18 19-26 19-22 10-22 10-24 10-24 7-25 3-24 4-30-2-26-5-26-9-22-16-8-24"/>
<path d="M6332 15424l 0 0-4 26-10 24-10 24-6 24 3 25 19 16 24-6"/>
<path d="M6375 15342l-1-1"/>
<path d="M6636 15220l 0 0 25 3 27 1 24-2 27-4"/>
<path d="M6712 15156l 0 0-7 26 2 24 1 24 5 28 4 27"/>
<path d="M7086 15011l-1-1 1 24-2 27-3 29-6 25-7 26-9 29-9 32-12 32-12 33-13 30-13 28-12 25-11 22-11 25"/>
<path d="M7063 15045l 0-2 16-19 22-12 24-5 25-2 25 0 26 3 26 4 25 5 28 7 24 9 13 20-18 22-22 18-22 16-25 16-26 17-27 15-26 14-26 13-23 11-25 9-22 11 25-1 27-9 26-8 28-3 32-1 24-3 25 0 25 3 24 7 30 8 26 8 21 12 21 17 6 26-8 26-16 23-19 16-22 20-25 21-26 19-27 20-29 16-29 13-28 9-27 6-25 1-31-1-25-4-23-13-14-25 0-28"/>
<path d="M7452 15398l 0 0-15 23-8 24-10 25-6 27-4 29 0 25 16 19 25-6"/>
<path d="M7459 15334l-2 0"/>
<path d="M7578 15463l-1-2 24 2 27 1 24-3 26 3"/>
<path d="M7776 15439l 0-1-5 26-2 27-1 24-2 25 1 24"/>
<path d="M8315 15089l-1-1-19-16-26-2-26 3-27 8-24 8-25 10-26 12-27 16-22 14-22 19-23 21-21 24-20 26-17 28-15 27-10 26-8 25-5 31-1 25 5 25 12 23 18 20 21 14 24 9 25 8 27 0 28-3 25-8 25-7 28-7 26-5 23-9 23-7"/>
<path d="M8417 15440l 1 0-1 26-8 26-7 24-8 23-10 24-8 23"/>
<path d="M8600 15338l 0-1 27-6 24-1 27-2 27-2"/>
<path d="M8669 15261l-1 1-11 22-11 26-6 24-4 25 0 26 6 25"/>
<path d="M8837 15412l 0-1"/>
<path d="M8906 15419l 0 0 23 8"/>
<path d="M9009 15424l-1-1"/>
<path d="M9181 15248l 0-1 24 0 27-2 26-2 24 1"/>
<path d="M9252 15205l 0-1-10 23-4 26 0 26 1 24"/>
<path d="M9640 15062l 1-2-3 27-7 26-7 29-7 31-6 26-6 27-8 28-9 28-11 26-11 25-12 25-12 21-11 28-9 24"/>
<path d="M9657 15087l 1-3 11-24 19-15 24-13 22-8 28-1 31-2 25-1 30 5 27 8 26 9 24 12 17 19-10 24-24 17-28 16-25 13-29 14-30 14-31 13-29 11-27 7-23 7-27 8 23-11 28-8 25-4 29-1 29 2 28 6 28 9 25 11 23 8 27 11 20 16 5 24-9 25-19 21-19 16-23 15-28 19-21 13-22 15-21 11-23 11-23 9-23 9-31 7-26 6-25-5-22-18-5-26 9-24 22-14"/>
<path d="M10014 15430l-1-1-12 24-10 22-9 25-4 24"/>
<path d="M10465 15125l 0-3 6-26-15-19-26 1-24 9-25 15-29 17-24 17-29 22-19 15-19 18-18 16-18 19-15 19-15 19-18 30-14 29-9 28-3 26 6 26 16 24 23 14 27 7 31 3 27-1 26-4 28-4 29-8 29-8 32-8 33-6 30-8 29-11 23-9"/>
<path d="M10600 15407l-1 0-18 17-11 23-4 27-2 27 3 26 18 16"/>
<path d="M10636 15324l-3 0-24-4 0 25"/>
<path d="M10728 15437l-1-1 25 3 27 4 27 0"/>
<path d="M10950 15391l 0 0 1 26 1 26 0 25-1 27-1 24"/>
<path d="M958 14875l 0 0-4 24-7 30-9 24-8 27-8 27-8 29-11 32-7 33-11 32-10 31-14 31-9 33-10 29-7 25-6 25 0 25"/>
<path d="M911 14897l 0-3 9-25 14-20 24-12 24-11 24-5 28-5 27-3 26-2 28 1 28 5 26 7 22 9 24 12 19 16 22 19 20 19 18 23 11 24 5 27-3 25-9 23-13 23-17 29-21 30-18 23-18 20-17 21-20 17-21 17-20 19-23 16-22 15-22 10-22 9-31 9-30 4-24 3-26-2-28-8-21-17"/>
<path d="M1357 15223l-1 1-12 22-5 25-3 26 2 27 2 24 9 26 24 10"/>
<path d="M1405 15112l-1 0"/>
<path d="M1647 15081l 2-1 22-13 24-6 28-6"/>
<path d="M1607 15142l 0 0 22-10 26-4 28-3"/>
<path d="M1972 14909l 0 0-16 21-7 25-7 27-3 25-5 31-8 31-8 25-7 25-9 26-9 25-7 30-5 26 5 24"/>
<path d="M2097 15055l 0 0 27-1 28-1 25-2 28-4 26-4 25-5 21-12"/>
<path d="M2222 14966l-1-1-20 16-6 27 1 25 3 25 3 27 4 29 8 26"/>
<path d="M924 16043l 0-2 2 29-7 27-8 25-10 29-14 34-11 24-11 24-11 24-9 23-10 22-13 30-10 28-8 23-8 24"/>
<path d="M892 16030l 1-2 12-25 22-14 27-11 27-5 24-3 29-2 27-1 24 1 25 2 30 4 27 8 25 9 24 7 24 15 11 23 4 29-6 26-9 24-16 25-18 29-20 29-15 20-15 19-16 18-19 17-17 19-20 16-21 16-22 15-23 12-22 14-21 13-31 16-31 13-31 10-25 6-24 4-25-1"/>
<path d="M1213 16399l 0-2 20-17 25-4 27-1 26 4 11 22-17 20-19 15-21 15-24 18-23 15-24 14-23 17-19 15 25 10 25 1 30-3 30-3 32-8"/>
<path d="M1534 16255l 1-2 16-21 25-9 26-7 27-6 28-3"/>
<path d="M1562 16290l-1-1 25-7 29-4"/>
<path d="M2003 16052l 0 0-2 24-4 28-5 31-3 28-7 29-10 31-11 29-10 30-9 28-11 29-9 26-10 23-13 26-8 23"/>
<path d="M2087 16241l 0-1 24-1 28 1 27-2 30-2 27-5 29-4 28-5 25-3 28-6 24-7"/>
<path d="M2248 16175l-1-1-16 19-3 26-2 28 2 24-1 24 3 30 7 29"/>
<path d="M2640 16072l 0 0 24 5 25 4 24 5 26 6 26 4 26 6 25 8 24 11 14 24-10 25-16 22-19 19-24 19-29 20-21 13-22 12-22 13-25 12-25 12-27 12-26 12-25 12-26 11-24 10-24 8-32 12-26 11 28-7 24-7 26-5 28-3 29-4 24 0 30 2 28-2 32-1 31 0 27 0 25 0 28 0 25 1"/>
<path d="M5116 16312l-1 0 28 0 29-2 26-3 26-2 27-2 25-3"/>
<path d="M5222 16257l 0 0-9 25-3 28-5 27-9 23-5 26-2 24"/>
<path d="M5902 16150l 2-2 9-23-2 24-12 21-17 23-16 21-18 22-22 23-16 17-22 22-19 17-17 20 13 21 26-3 28-6 27-4 28-7 23-8 24-5 32-6 30-6 29-7 27-9 24-8 28-7 25-6"/>
<path d="M6001 16203l-2-2-18 17-7 26-2 29-1 26-3 29-5 31-4 24-3 25-6 30 2 28 13 21"/>
<path d="M6388 16311l 0-1 27-4 27-1 26 0 31-2 30-4 30-2 31-3"/>
<path d="M6549 16235l-1 0-19 15-13 21-6 25-5 26-3 24 2 26 5 24"/>
<path d="M7108 16144l 0-1-5 29-5 24-7 26-7 27-9 26-6 27-6 23-8 26-9 26-10 26-10 27-10 24-12 24-7 24"/>
<path d="M7269 16303l-1-1"/>
<path d="M7576 16114l 0-2-7 25-4 28-6 23-6 27-9 25-7 25-8 29-8 28-8 25-7 26-6 28-7 27-6 25-3 25"/>
<path d="M7848 16250l 1-2 24-12 27-7 24-2 30 0 25-2 24 0"/>
<path d="M7823 16317l 0-1 27-4 25-6 23-6 28-6 24-1 24-3"/>
<path d="M8504 16163l 2-3 13-21 4-27-13-21-23-16-23-10-27-4-25 1-26 3-28 6-29 10-26 12-18 17-12 23-1 28 9 26 13 21 19 20 25 16 26 15 21 12 28 15 27 16 24 15 20 17 16 24 7 23-2 28-13 21-23 22-20 17-22 14-25 14-28 11-28 9-29 1-29-1-27-5-24-8-28-14-17-21-8-28 0-27 7-27 12-22 18-21 25-22 29-21 20-13 21-13 22-13 21-11 31-15 29-12 27-13 27-10 26-11 25-8 27-10"/>
<path d="M1240 17280l 1-2 1-25-6-23-16-20-24-3-25 2-26 7-24 10-26 11-25 11-25 14-22 16-22 19-24 20-24 25-17 19-16 21-19 23-14 24-14 26-12 26-10 26-9 27-6 25-5 35-2 33 1 29 7 26 11 27 16 22 20 18 21 13 29 9 26 3 29-3 30-6 29-7 28-8 26-9 27-8 24-8 23-9 28-8"/>
<path d="M1377 17703l-1 2-17 21-12 22-9 26-6 27-7 23-5 27 5 24 22 10 25-15"/>
<path d="M1404 17621l-1 0"/>
<path d="M1655 17502l-1-1 25-7 27-7 29-5 28-3 25 0"/>
<path d="M1649 17589l 0 0 18-16 25-3 30-4 25-2 27-4 26-3"/>
<path d="M2218 17330l-1-2 10-25 20-16 19-15 16 20-6 24-11 27-9 26-9 28-10 30-9 29-8 29-8 28-6 25-7 24-6 23-6 27-5 25-6 27-3 25"/>
<path d="M2422 17467l 2-1 27 5 28 4 25 1 25 2 25 2 25 0 25 0 25 0 25 1 26-2 28-5 25-6 25-12"/>
<path d="M2685 17389l-1 1-16 19-6 28-5 29-2 24-1 26 1 31-1 28"/>
<path d="M3033 17290l 1-1 4 25-2 27-5 24-5 30-7 27-8 28-10 27-12 30-14 32-9 23-13 32-9 30-11 28-11 27-6 25"/>
<path d="M2963 17311l 0-2 5-24 19-15 28-11 23-6 25-3 27-1 30 4 31 3 32 2 32 4 34 5 29 7 29 6 27 6 27 8 23 12 21 13 22 19 17 21 9 23 2 27-8 32-11 25-16 25-21 25-25 27-19 16-21 19-22 17-26 17-25 16-25 13-29 12-26 9-26 9-26 7-35 4-33 3-29 2-27-3-25-4"/>
<path d="M3483 17667l-1 0-22 11-15 22-8 23-5 25-1 27 4 28 9 25 16 20 25 4"/>
<path d="M3503 17573l-3 0-27 2-12 20"/>
<path d="M3821 17545l 0-1 26-3 26 5 28 0 28-1 25-1"/>
<path d="M3890 17459l-1 0-18 19-10 22-4 28-2 26-1 28 0 30 1 27 2 27 5 24"/>
<path d="M4074 17738l-2-1 23-13"/>
<path d="M4164 17723l 0 0"/>
<path d="M4253 17741l 0 0 23-9"/>
<path d="M4468 17567l 0 0 23 7 25 1 28-3 24-2"/>
<path d="M4561 17508l-1 0-13 22-9 22-5 29-3 24-4 29-2 24-5 28"/>
<path d="M4863 17339l-1-1 9 23 3 26 2 30 0 24 1 26-3 27-6 25-6 26-6 28-7 28-6 29-8 26-6 23-7 25-7 24 9-27"/>
<path d="M4886 17340l 0-2 8-22 27 5 28 6 23 6 24 8 25 7 25 7 24 8 24 7 23 9 29 10 23 13 25 14 18 16 14 23 5 24-2 26-9 27-15 28-18 23-21 23-23 20-24 22-25 21-25 17-25 15-27 12-27 9-27 7-25 3-32-2-25-4-26-6-23-10"/>
<path d="M5250 17712l-1 0-15 22-4 26-2 25-1 27-3 26-4 28-7 24"/>
<path d="M3522 17794l-1 0 21-11 23-10 25-8"/>
<path d="M3678 17710l 0-1 12 23-2 26-1 25-1 28-3 24 1 24 5 24"/>
<path d="M990 18491l 1-2 11-21 7 29-8 28-8 27-11 31-9 23-10 24-10 27-11 25-12 26-11 25-13 25-11 25-12 23-13 31-8 27-8 28 0 24"/>
<path d="M987 18415l 1-2 20-15 28-6 30-4 32-1 27 1 26 4 28 6 28 7 25 8 28 12 23 13 21 17 16 18 14 20 9 25 1 32-6 28-9 29-14 31-10 22-14 22-15 22-16 22-19 21-21 22-22 20-26 18-25 16-24 12-26 12-33 14-31 8-27 4-26 1-29-3-26-5-24-9"/>
<path d="M1402 18870l-2 1-21 16-18 21-14 24-6 26-4 24 2 27 18 17 25-5"/>
<path d="M1416 18765l-2-1"/>
<path d="M1729 18621l-1-3 24-11"/>
<path d="M1705 18674l-2-1 26 9 28 3 27 2"/>
<path d="M2276 18484l 0-1-3 25-5 27-6 25-11 29-9 25-11 31-13 31-10 24-9 23-10 22-8 23-12 30-11 28-10 23-11 27-9 24"/>
<path d="M2251 18457l 0-2 17-20 25-8 24-6 25-4 27-2 27 1 27 4 27 4 27 6 25 7 22 9 25 12 23 10 21 18 15 25 7 24 5 27-4 28-8 25-14 25-15 20-17 17-16 19-17 19-20 20-20 17-24 12-25 4-25-6-22-11-21-13-26-3-25 1-24 1-23 9-23 12 26-7 25-5 29-6 25-6 26-2 25-2 24 3 24 7 27 10 22 11 23 15 20 13 18 17 9 23-9 23-16 19-19 17-21 19-20 14-25 15-29 13-32 15-26 7-25 8-25 5-25 5-34 7-33 4-29 1-27-1-30-3-24-8-26-8 8-26"/>
<path d="M2685 18957l-1-1-16 21-13 22-13 22-10 24-5 23 5 25 23 14"/>
<path d="M2703 18885l-3 0"/>
<path d="M3029 18747l 1-1 26-4 25-4 26-5 25 0 24-5"/>
<path d="M3095 18650l-2 0-16 17-4 28-2 28-1 28-1 29-1 25 0 25-3 27"/>
<path d="M3443 18605l-2-2-9-22-3 27-4 27-7 33-7 29-8 31-8 34-11 31-10 31-11 29-10 28-9 22-10 24-7 24"/>
<path d="M3392 18619l-1-3 2-26 19-16 25-8 27-5 29-3 29 0 28 2 28 3 23 8 23 15 15 22-5 25-22 20-26 18-24 15-25 16-28 15-30 16-30 13-28 10-24 8-24 7 22-13 27-10 31-6 24-3 30-1 25-1 24 1 25 1 31 4 27 7 26 11 21 17 7 24-11 24-20 24-22 20-27 22-19 15-22 14-22 12-24 13-26 12-23 9-23 10-31 9-28 6-30 0-28-7-18-16 9-24"/>
<path d="M3739 18912l-2 2-17 21-12 23-11 25-8 29-5 29 0 27 14 20 28-4"/>
<path d="M3756 18815l-2 1-23 12 2 24"/>
<path d="M3842 18978l 0 0 26-5 24 0 25 0 26-2"/>
<path d="M4055 18935l-1 1-16 21-4 27-1 27 2 28-1 24"/>
<path d="M4665 18605l-1-2-7-25-21-12-23 6-22 12-25 15-21 13-20 13-23 18-23 18-24 19-20 20-18 23-16 22-12 21-13 28-7 23 1 28 16 24 22 19 24 9 26 6 30 4 25 2 24-2 31-4 25-3 27-6 25-6 29-10"/>
<path d="M4790 18911l-1 0-12 21-8 25-9 26-8 27-7 26-9 24-7 24"/>
<path d="M5029 18793l 0-1 23-10 24 1 25 3 27 4 29 1 30 0 28 0"/>
<path d="M5134 18730l-2 0-19 15-12 23-6 23 0 25 4 28 9 25"/>
<path d="M5246 18921l 0-1"/>
<path d="M5340 18924l-1-1"/>
<path d="M5436 18921l 0-1"/>
<path d="M5679 18809l-1-1 25-5 25-2 28 3"/>
<path d="M5741 18735l-2 1-17 18-6 27-1 29 1 26"/>
<path d="M6020 18578l 0-2 11 23 3 31-3 30-3 24-5 28-6 28-8 28-10 27-12 28-13 25-12 23-14 25-13 21"/>
<path d="M6025 18565l 0-2 11-24 25-12 27-5 26-1 29-3 31 1 33 0 31 5 30 8 25 8 25 11 18 17 3 27-19 22-25 16-26 11-29 10-31 7-31 8-30 7-31 6-28 6-30 6-23 7 26-2 26-2 31 0 24 3 25 4 27 4 26 5 27 6 25 8 29 10 21 11 17 19 1 26-13 26-18 25-19 19-22 21-24 18-26 18-28 14-31 13-33 13-32 8-32 4-28-3-27-6-22-9-25-14-17-21-5-25"/>
<path d="M6431 18917l 0-2-7 25-9 26-7 27-9 25-7 24-9 23-8 24"/>
<path d="M6890 18600l 0-2-11-24-24-4-28 10-26 15-21 16-23 18-24 20-23 24-21 25-18 28-15 28-11 27-7 27-5 25-1 25 3 31 7 25 13 22 19 16 24 8 28 3 29 2 30-4 28-5 27-5 26-6 25-6 24-7"/>
<path d="M7057 18949l-1 0-13 21-9 25-5 26-2 26 4 25 24 7 24-16"/>
<path d="M7097 18845l-2 2"/>
<path d="M7199 18973l 0 0 25 9 24-1 28-2 25-1 28-2"/>
<path d="M7485 18911l 0 1-11 22 0 27 0 24 2 24-1 25-4 26-2 25"/>
<path d="M7706 18768l 0 0 22 10 26 1 28-1 25-1 27-4 26-5 26-4"/>
<path d="M7829 18699l-1 0-15 23-11 25-7 27-5 29-3 28 0 29 6 23"/>
<path d="M8392 18646l 1-2 6-23-18-19-25-1-24 10-24 8-21 11-25 17-21 16-22 20-25 26-19 18-19 20-17 19-17 22-16 21-13 20-17 29-12 25-8 25-3 27 2 25 7 25 16 25 21 19 25 16 24 12 30 4 31 3 24 3 26-4 26-6 25-7 24-6 24-9 27-12 27-8 25-7"/>
<path d="M8562 19052l-1 0-20 15-10 27-2 25 0 25 10 23 25 6 28-5"/>
<path d="M8594 18952l-2 0"/>
<path d="M902 19527l 2-3 8-24 25 7 1 30-4 26-10 30-12 27-12 33-11 22-7 25-9 23-10 22-14 32-17 30-13 26-10 22-13 24"/>
<path d="M906 19439l 2-2 19-14 24-6 25-5 29-5 24-4 25-2 31 0 25 2 32 5 25 8 22 10 24 15 19 21 17 21 11 22 10 26 0 29-7 26-9 26-16 29-15 21-17 23-21 24-21 26-23 22-24 21-25 19-26 17-25 17-25 12-22 12-24 9-25 7-23 5-26 4-32 4-28 0-29-2-24 0-25 1"/>
<path d="M1281 19926l-2 0-21 12-14 21-17 24-9 23-8 25-4 30 5 24 22 14 24-7"/>
<path d="M1275 19861l-2 0-25 7 21 15"/>
<path d="M1377 19995l-1-1 21-11 26-2 28-3 27-4 25-3"/>
<path d="M1459 19929l-2 0-18 16 5 26 5 27 8 26 9 25 6 24"/>
<path d="M1606 20007l-2 1 0 24 7 24 3 27-3 24 0 24"/>
<path d="M1890 19829l-1-2 23-13 24-1 27-4 25 0 25 0"/>
<path d="M2309 19661l-1 0-7 23-3 29-3 31-3 25-6 28-7 31-8 30-8 30-8 31-7 26-7 25-5 27-6 25"/>
<path d="M2267 19659l 0-2 14-20 24-7 26-4 24-2 27-2 27-1 28-1 28 0 27 2 27 3 25 7 31 8 26 9 24 14 21 16 15 20 10 26 2 29-8 27-16 27-17 22-20 21-23 23-26 22-27 21-29 17-21 12-32 14-32 13-32 11-31 6-30 2-26 0-28-2-28-5"/>
<path d="M2620 20005l 0 0-15 23-12 22-11 27-7 26-3 27 6 24 24 0"/>
<path d="M2619 19960l-2 1"/>
<path d="M2920 19813l 1-1 22-12 25 5 28 6"/>
<path d="M2907 19904l 0 0 23-13 26-4 24-2 28-1 27 3"/>
<path d="M3394 19660l 1-1 8 24-5 25-5 24-4 26-4 28-8 25-7 26-8 30-5 23-7 30-6 26-6 24-5 26-9 22"/>
<path d="M3382 19693l 0-2 14-21 21-15 22-14 21-12 24-12 25-5 26-3 27 1 28 4 27 8 23 6 16 20-6 25-12 22-19 25-19 18-20 19-22 17-23 16-21 12-28 13-29 11-23 10-24 6 17-19 28-7 28-4 30-2 28 0 30 4 26 5 25 5 25 8 24 16 21 19 10 23 0 29-10 27-15 25-14 20-18 21-21 17-21 18-24 16-26 13-29 12-28 9-29 7-27 4-24 2-29 0-28-3-24-10-5-23 15-20"/>
<path d="M3725 20093l-1 0-13 22-6 24-7 24-8 25 0 25 26 3"/>
<path d="M3762 19990l-2 1"/>
<path d="M3845 20120l 0 0 26-4 26 2 24 0 27-6"/>
<path d="M3923 20067l 0 0-14 20-2 25-4 25 2 25 9 23"/>
<path d="M4086 20072l 0-1-8 24 0 27-1 26-5 25-4 26"/>
<path d="M4368 19846l-1-1 28-3 27-6 24-4 25-3 28-4 28-5 26-5"/>
<path d="M4456 19773l 0 0-4 27-1 28 0 28 0 24 3 29 5 24"/>
<path d="M4757 19706l 0 1-5 27-4 27-6 27-4 26-7 31-7 27-9 30-9 33-10 34-9 31-7 28"/>
<path d="M4747 19725l 0-1 19-17 26-8 23-9 24-5 28-3 28-2 27 0 28 2 27 3 27 4 23 7 25 11 17 20-6 27-19 20-20 15-23 18-26 14-29 15-31 12-30 12-30 10-28 8-26 7-29 6-27 2 19-18 24-9 24-5 26-2 28-2 31-2 30 1 28 3 26 5 27 9 22 14 15 22 4 24-7 25-13 23-16 19-19 19-20 16-22 14-23 12-27 9-24 4-25 2-25-3-25-3-23-5-28-5-25-9-20-19-6-25"/>
<path d="M5124 20119l 0-1-13 23-10 26-7 24-5 26 15 19 25 1"/>
<path d="M5119 20024l 0-1"/>
<path d="M5607 19779l-1-1-22-9-26 3-24 7-24 10-21 13-21 11-24 14-22 21-17 20-16 22-14 22-13 25-10 26-9 26-4 24 1 27 7 24 12 23 19 15 24 7 27 7 26 0 26-2 24-3 27-7 27-6 25-10 24-6"/>
<path d="M5711 20088l 0 1-7 25-4 26-1 24 1 25"/>
<path d="M5917 19968l 0 0 23-5 26-3 27-1"/>
<path d="M6191 19871l 0 0-11 23-6 24-1 26-2 28 0 27-1 26-2 27 1 25 1 24"/>
<path d="M5447 19655l-2 0-22 14-21 16-19 20-19 20-16 19-16 20-15 22-15 24-10 22-13 24-14 26-8 23-7 23-6 29-1 27 0 29 2 27 1 26 2 25 3 31 4 24 4 26 5 25 11 22 16 21 22 15 26 3"/>
<path d="M6244 19730l 2 0 22 12 21 20 16 22 13 20 16 22 17 23 14 22 15 19 12 23 11 24 10 24 7 25 7 24 1 27-1 26-6 30-9 25-12 25-17 25-15 19-19 22-20 19-23 17-23 14"/>
<path d="M6629 19979l 0-1 25-3 24-1 26-3 26-5 25-7 25-8"/>
<path d="M6748 19895l 0 0-12 24-10 24-8 24-5 26-2 25"/>
<path d="M7043 19776l-1-1-4 27-1 27-2 26-3 26-5 29-7 33-5 24-7 23-7 24-9 27-9 28-6 24"/>
<path d="M7048 19785l-1-3 3-26 19-19 21-11 28-4 28 2 28 0 25 2 26 3 27 4 28 4 26 5 30 4 25 8 22 12 12 23-7 24-20 23-17 16-22 18-25 13-27 10-28 8-31 9-30 7-26 5-30 3-28 6-24-1 26-6 28-4 26-5 30-1 31-1 31 1 27 4 23 7 26 11 21 16 16 22 7 26-5 27-15 23-18 21-22 21-21 16-26 16-30 15-33 13-35 9-33 7-34 9-32 3-31 0-28-6-25-3-27-4-24-12-11-23 4-27 21-16"/>
<path d="M7362 20147l-1 1-4 25-7 24-5 27-3 28 3 25 12 20 25-10"/>
<path d="M7406 20056l-3 0-25 2"/>
<path d="M7557 20185l-1 0 24-3 25 1 25-2"/>
<path d="M7766 20135l-1 0-5 23-5 28-5 26-3 26 9 23"/>
<path d="M8206 19689l-2-1-24 6-20 17-21 18-19 18-15 22-15 21-17 25-16 24-16 27-13 23-12 22-13 23-12 25-9 25-6 26-5 30-1 28 3 25 6 25 8 23 10 24 10 22 11 24 15 20 18 18 21 13 23 9"/>
<path d="M8427 19840l-2 1-27 2-26 8-24 12-21 13-22 19-18 17-18 18-18 24-16 26-15 26-13 24-10 25-8 24-1 27 6 26 19 19 22 15 26-1 25-5 29-3 28-9 27-8 26-6 25-9"/>
<path d="M8504 20110l 1 0 24 1 21 11-5 25-18 18-18 16-22 16-21 17-8 22 26 0 25-1 28-5 25-6 25-8"/>
<path d="M8822 20035l 0 1 24-4 24-2 26 1 24 2"/>
<path d="M9408 19903l 0-1-2-25-25 0-24 4-25 6-24 9-24 9-24 10-25 13-22 11-21 15-19 15-18 17-18 22-15 22-9 25-6 28 0 25 8 27 14 22 15 22 22 16 23 10 27 9 27 6 25 0 25-7 21-12"/>
<path d="M9458 20182l 0-1-8 24 0 25-1 25-1 25"/>
<path d="M9619 19781l 1-1 26 9 18 15 19 20 18 18 18 19 18 20 17 24 13 21 10 28 9 24 8 26 9 28 2 28-2 29-4 26-10 26-10 22-15 22-15 21-18 21-20 15-22 12"/>
<path d="M10002 20029l 1-2 21-14 25-9 26-8 28-4 27-7"/>
<path d="M10050 19954l-1 0-4 26 5 26 5 25"/>
<path d="M10146 20116l-1-1"/>
<path d="M10214 20151l-1 0"/>
<path d="M10309 20145l 0 1"/>
<path d="M10492 20046l 0-1 24-7 26-4 25-2 26-3 25-2"/>
<path d="M10543 20001l 0-1 11 24 7 25 9 24"/>
<path d="M10881 19836l 0-1-11 25-7 28-5 28-5 28-6 24-9 26-9 28-10 31-10 29-9 27-8 26-8 30-5 24-1 24"/>
<path d="M10877 19807l-1-2 13-22 24-9 29-8 26-3 27 0 28 2 29 3 31 6 28 7 25 6 21 15-4 26-23 19-28 17-24 13-26 11-24 11-24 8-29 8-28 7-26 5 27 3 30 0 25 1 27 3 29 5 23 6 24 6 29 9 23 12 23 15 17 19 6 24-4 26-14 21-20 25-21 19-24 21-30 20-22 15-24 14-23 13-25 11-24 10-25 6-24 5-35 4-32 0-31-3-24-6-23-11-17-18 3-24 20-17 28-13"/>
<path d="M11271 20223l 0 0-5 25-4 26-7 24-7 23"/>
<path d="M11730 19648l 0-1-19 18-15 21-14 21-17 23-15 20-17 23-18 26-20 27-15 20-15 21-17 22-14 22-14 22-13 23-11 22-11 23-9 22-13 30-9 31-5 27-1 27 1 26 4 25 5 30 8 27 8 24 10 22 13 23 16 21 21 16 23 6"/>
<path d="M11908 19882l-2 0-27-2-26 7-26 12-23 17-22 18-22 16-20 21-15 20-17 25-14 26-9 25-6 27 1 27 10 24 17 18 21 14 24 7 27 3 30 0 24-2 31-6"/>
<path d="M11965 20155l 0 0 2 25-7 23-6 27-2 27 5 24 25 7"/>
<path d="M12005 20084l-1-1"/>
<path d="M12145 20086l 0-1 24-8 27 1"/>
<path d="M12628 19900l-1-2-13-20-26 2-25 9-23 12-20 13-22 13-21 15-22 16-22 22-21 23-20 23-15 23-10 23-9 27 1 27 13 23 21 18 25 11 28 7 27 2 32-1 24-3 26-1 25-5"/>
<path d="M12648 20163l-2 1-23 7-16 19-6 28 2 25 6 25 22 14"/>
<path d="M12679 20082l-2-1"/>
<path d="M12773 20181l 0-1 25-1 24 4"/>
<path d="M12919 20167l 0 0 0 26-5 26-9 24-8 22"/>
<path d="M12987 19873l 0-1 21 15 22 16 21 19 18 20 13 23 11 21 8 25 4 27 2 25 3 29 0 24-5 29-7 26-6 25-7 23-8 26-10 23-11 22-15 19"/>
<path d="M13219 20091l 0-1 25-10 27-3 24-1 25-1 28 1"/>
<path d="M13278 20033l 0-1-4 28-2 26 0 27 2 25 0 25"/>
<path d="M13674 19936l-1-2-19-15-26 3-24 9-22 12-23 14-21 15-22 18-26 19-17 18-17 20-15 26-11 22-6 27 2 27 11 24 17 19 23 14 24 9 25 7 26 2 24 4"/>
<path d="M13643 20238l 0 0-16 22-8 23-6 27 0 24"/>
<path d="M13667 20188l 0-2"/>
<path d="M13737 20272l 0 0 26 2 24 0 25 3"/>
<path d="M13800 20240l-1 0-7 23 0 25 0 27 1 26"/>
<path d="M13945 20264l-1 0-12 22 2 25 6 23 5 24"/>
<path d="M14079 20129l-1-2 24-3 26 0 26 2"/>
<path d="M14565 19965l-1-1-23-9-27 2-25 11-22 12-25 15-24 17-24 20-19 17-19 21-16 20-13 20-13 28-7 24-1 26 10 25 17 17 26 12 27 6 31 2 24-2 25-4 26-5 25-5 29-7 25-11"/>
<path d="M14661 20228l 0 1-10 23-8 23-5 25 15 20 25 3"/>
<path d="M14687 20171l 0-1"/>
<path d="M1755 21046l 0 0 24 1 25-5 27-3 25-2"/>
<path d="M1763 21126l 0-1 27-3"/>
<path d="M2128 20928l 0-2-5 25-6 25-5 27-6 32-5 26-6 28-6 31-6 31-4 34-6 34-4 31-3 24-2 25 2 26"/>
<path d="M2094 20913l 0-2 18-18 29-13 28-9 31-5 27-1 27 0 27-1 26 1 27 3 24 6 26 8 24 13 15 20-3 27-12 20-20 24-22 18-27 19-29 17-29 18-29 16-29 13-26 11-29 10-24 6-24 3 23-14 28-7 28-2 25-1 30 3 29 2 26 2 26 4 26 3 25 6 24 7 26 13 23 17 13 21 3 24-3 25-13 29-14 24-17 23-20 23-22 20-23 18-28 17-28 15-27 11-29 7-31 4-31 3-28 0-26-2-29-7-23-9-23-16"/>
<path d="M2520 21391l-2 2-9 22-9 24-9 24-7 26-3 27 4 26 25 7"/>
<path d="M2553 21288l-2 1"/>
<path d="M2645 21419l-1 0 25-5 25-4 25-4 27-4"/>
<path d="M2676 21349l 0 1-9 24-3 27 0 24 5 26 6 26 10 23"/>
<path d="M2873 21369l 0 0-8 26 0 26 3 24 3 25 2 25-2 30 2 25 1 25"/>
<path d="M3148 21231l 1-1 21-11 25-6 26-4 25-2 26-4 26-3"/>
<path d="M3197 21172l-1-1-11 24 1 26 7 26 5 26 7 29 3 25"/>
<path d="M3659 21019l 1-2 10-22-2 26-5 25-7 30-6 26-6 31-9 34-6 25-6 24-6 23-6 25-7 23-8 34-7 31-3 28-2 28 5 25"/>
<path d="M3681 20996l 2-2 15-19 27-11 24-6 26 0 29 3 28 3 30 5 27 7 28 7 22 11 13 21-10 23-21 17-27 17-24 12-25 10-27 10-27 12-27 10-25 11-26 12-22 11 24-1 27-1 30 2 29 2 27 4 24 5 26 5 25 6 23 8 25 12 19 17 15 24 4 24-7 26-12 23-16 26-19 25-23 23-21 16-24 13-26 13-28 12-28 10-28 7-25 8-29 3-28 0-24-7"/>
<path d="M4020 21465l 0-1-14 22-9 26-7 26-3 26-3 24 9 24 27 1"/>
<path d="M4051 21347l-2-2"/>
<path d="M4178 21485l 0 1 28 1 27 2 25-1"/>
<path d="M4354 21462l 0-1 0 24 3 25-1 24-5 25"/>
<path d="M4736 21086l 1-1 11 23-1 26-3 25-4 25-6 29-8 24-5 25-7 26-6 24-6 25-6 28-5 26-7 30-4 27"/>
<path d="M4724 21084l 0-4 5-24 19-17 24-12 26-7 27-6 29-4 25 0 28 4 31 4 31 6 30 12 29 14 25 14 22 16 19 16 18 18 16 26 10 23 6 24 1 29-7 29-12 25-17 25-21 22-17 17-18 16-21 14-22 12-25 8-24 7-25 4-31 3-28-1-25-3-27-6-22-8-18-17"/>
<path d="M4718 21427l-1 0-17 17 23 9 25-9 22-10 24-7 26-4 25-7 26-8 24-8"/>
<path d="M4672 21462l-1-1 25-9 24-6 27-3 24-4 26-4 27-5"/>
<path d="M5197 21472l 1 0 10-22-7 27-7 24-6 26-8 27-6 26-7 26-3 27-5 24"/>
<path d="M5434 21340l-1-1 28-2 25-5 26-4 30-7 31-8 29-8 26-7"/>
<path d="M5545 21247l-2 0-17 17-1 27 2 25 3 29 3 28 3 29 2 28"/>
<path d="M5783 21543l-2-1 25-7"/>
<path d="M5917 21534l-1-1"/>
<path d="M6011 21540l 0-1"/>
<path d="M6191 21356l 1-2 24-11 29-2 29-2 25-2 26-4 25-6"/>
<path d="M6294 21293l-2 1-18 18-3 25 3 25 6 24 9 23 9 23"/>
<path d="M6691 21175l 0-2 15 25 4 29 0 25-2 28-2 30-5 31-6 33-8 32-8 32-8 31-7 26-5 25-4 28-6 28"/>
<path d="M6710 21151l 1-2 6-24 23-14 28-1 27 3 30 8 30 10 30 9 29 8 29 6 27 4 24 8-12 24-21 15-22 10-25 15-27 16-28 14-29 11-29 10-29 8-25 10-27 7-24 3 28-3 29-6 30-3 32-1 26-1 27 1 25 0 24 2 31 4 27 5 23 8 23 16 17 20 8 28-4 25-12 26-18 25-16 20-20 20-23 20-25 20-27 17-30 16-30 12-30 10-31 4-31-1-30-3-26-7-27-12-19-17-12-24 0-25"/>
<path d="M7078 21568l-1 0-14 21 0 27 1 27 2 28 2 25"/>
<path d="M7388 21195l 1-1 14 21 1 28-1 27-1 28-2 29-1 24-3 27-4 28-6 29-6 29-7 29-6 25-5 25-4 30-2 29"/>
<path d="M7383 21216l-1-2 9-24 27-5 26-3 25 0 28-2 31 3 29 6 30 7 29 10 27 14 26 16 21 13 23 19 19 19 15 21 12 24 8 23 2 28-6 29-13 28-16 25-21 27-23 27-18 17-19 15-18 16-28 21-29 17-28 12-27 10-24 1-26-5-23-10-23-15-21-18"/>
<path d="M7779 21608l-1 0-16 18-7 26-5 24-4 26 0 24 13 21"/>
<path d="M7786 21496l-2-1"/>
<path d="M7924 21643l-1 0 24-6 25-4 25 2 24 1 26 3"/>
<path d="M8142 21592l-1-2-16 21-5 24-6 28-5 28-2 27-1 25"/>
<path d="M8504 21400l-1-1 21-14 27 0 25 0 30-5 25-4 28-5 25-2 28-4"/>
<path d="M8583 21320l 0 0 5 27 1 26 1 25 1 30 3 28 5 26"/>
<path d="M8996 21173l 0-1 2 28 0 30-2 24-3 30-3 26-4 29-4 28-6 29-5 27-5 26-4 28-5 25-3 25-3 31-1 28"/>
<path d="M9004 21176l 0-2 13-20 23-7 31-3 31-1 28 1 29 2 31 7 30 6 29 7 29 10 26 11 24 12 23 14 20 16 19 16 18 17 19 24 13 23 7 24-1 28-6 24-12 26-18 26-15 21-18 22-19 22-21 24-22 22-24 21-24 20-27 19-25 19-25 16-25 17-23 11-24 10-24 7-35 6-33 3-31 1-29-6-26-9-21-12-20-16-11-21 7-26"/>
<path d="M9426 21658l 1 0 9 23-7 25 1 25 4 25 22 13"/>
<path d="M9513 21581l-1-1"/>
<path d="M1017 22251l 0 0 4 27 0 24-1 27-1 24-3 26-3 30-3 34-2 25-2 27-1 29-2 30-2 31-3 31-2 31-2 29-3 27-1 24 0 30 0 26"/>
<path d="M991 22281l-1-2-1-25 7-24 13-20 20-21 22-16 26-7 25-8 27-10 26-4 27 2 23 10 20 17-4 28-16 27-19 26-15 20-16 23-18 21-21 23-20 21-22 18-20 18-25 25-18 16-25 15-22 12-24 10 21-17 22-15 25-14 26-12 26-11 30-11 31-7 32-6 29-2 25-1 26 0 25 4 30 12 21 16 14 21 10 26 0 26-3 25-10 30-13 29-18 29-15 19-16 19-19 20-21 20-19 18-22 16-20 15-21 14-21 13-29 16-28 11-27 9-29 7-25-4"/>
<path d="M1485 22599l-1 1-10 23-6 29-3 24-4 28-3 31-5 27 1 25 5 26 18 16 17-16"/>
<path d="M1400 22416l-4 2-8 22"/>
<path d="M1684 22382l-1 0 28 2 24-2 25-5 23-7"/>
<path d="M1684 22461l-1 1 21 13 27 0 30-6 27-9"/>
<path d="M2121 22722l-2 0 25-2 19-20 16-23 19-30 15-25 16-27 15-30 16-32 16-31 15-32 14-33 14-30 11-31 9-33 9-30 6-31 6-27 4-34 2-31-1-25-2-25-13 22 0 30 4 26 6 31 6 25 8 25 8 27 9 26 9 28 9 27 10 28 11 28 11 26 9 27 10 23 15 30 13 27 10 24 10 23 9 23"/>
<path d="M2285 22511l 1-1 24-13 24-11 24-9 25-8 28-7"/>
<path d="M2676 22607l-1 2-6 25-4 25-3 29 0 25 2 29 0 24 4 26 20 13"/>
<path d="M2642 22478l-2 0"/>
<path d="M2658 22035l 0-2 10-24 20-15 23-5 28 0 27 7 20 16 5 28-3 25-14 22-17 22-14 22-15 20-18 19-22 22-19 19 24-11 23-14 26-12 27-7 24-9 23-6 25-1"/>
<path d="M977 23784l 2 0 23-5 18-19 18-22 14-23 11-24 14-33 8-26 9-29 9-29 8-30 10-30 9-30 8-30 8-30 7-29 7-27 6-24 8-30 6-25 9-25 16 22 5 25 3 26 7 30 6 35 5 34 6 36 6 26 6 28 7 29 7 33 7 29 6 30 8 29 7 25 4 25 11 27 16 27 16 19"/>
<path d="M1117 23588l-5-1 14-28 28-17 22-11 23-10 29-12 23-7 30-6"/>
<path d="M1494 23748l-1 1-4 25 3 28 4 26 1 25 8 23 10 23 23 10"/>
<path d="M1456 23580l-1 0-16 20"/>
<path d="M1649 23516l-2 0 27-5 27-9 28-8 26-6"/>
<path d="M1713 23577l-2 1 26 5"/>
<path d="M2091 23280l-1-1 23-9 15 19 9 30 5 24 1 29 1 33 1 36-2 25-3 28-5 31-5 34-4 37-5 35-7 34-5 31-6 26-6 25-7 28-6 26"/>
<path d="M2288 23532l 1 0 26 8 28 0 28 2 27-2 25-5 25-5 24-9"/>
<path d="M2385 23450l-2 2-14 22 2 24 7 26 7 24 7 27 7 23"/>
<path d="M2600 23781l-1-1 18-19 15-21 16-26 10-22 14-25 14-30 12-23 10-23 11-24 8-24 12-34 6-24 6-33 7-35 5-29 5-27 2-28 6-25 13 25 10 31 9 26 9 27 11 29 11 31 9 25 11 33 9 23 11 33 9 23 11 22 12 30 11 29 10 28 10 23 12 21"/>
<path d="M2695 23640l-1-1 15-21 21-14 26-12 23-8 26-5 29 0 31 0"/>
<path d="M3087 23721l-1 1-5 24-5 24-5 31-1 25 5 27 2 27 10 22 25 7"/>
<path d="M3064 23600l-5 1-22 10"/>
<path d="M3220 23814l 0 0 21 14 26 0 24-7 27-9 22-13 24-5"/>
<path d="M3498 23704l-1 0 0 25 4 26 5 27 3 25 4 24 5 24 7 24"/>
<path d="M3684 23476l 0 0 26 0 27 2 26-3 26-4 24-8"/>
<path d="M3743 23391l-2 0-7 25 7 27 10 26 10 23 9 22 9 26"/>
<path d="M3874 23620l 0-1"/>
<path d="M3992 23628l 1 0"/>
<path d="M4107 23628l 1 0 25-2"/>
<path d="M4325 23500l 0 0 17 18 26 8 25 4 25 3 24 4"/>
<path d="M4403 23452l-1 1-9 26-2 25-3 27-2 28-3 27 0 29 2 28 1 25"/>
<path d="M4650 23736l-1 2 18-22 6-24 7-31 6-24 6-26 7-28 7-28 7-28 6-28 7-29 7-28 5-29 6-27 4-26 4-27 4-33 3-28 1-26 1 28 6 27 7 32 12 34 9 23 10 23 11 24 11 23 12 22 12 21 11 24 17 31 18 31 17 26 18 24 15 19 17 25 14 24"/>
<path d="M4718 23568l 0 0 23-13 27-10 26-6 28-4 29-4"/>
<path d="M5132 23629l 1 0 4 27 6 27 6 26 3 28 1 27 2 29 1 27 2 24"/>
<path d="M988 24919l-1 0 15-19 12-29 9-24 10-26 10-26 10-28 10-28 9-28 10-30 10-30 9-31 8-30 9-30 6-29 6-28 8-26 5-25 6-25 4-34 4-34 4-24 3-26 15 24 6 28 6 25 7 26 9 30 8 35 11 34 7 24 13 33 8 22 5 24 8 25 9 24 13 33 9 23 13 31 12 30 10 28 10 22 12 26 9 23"/>
<path d="M1047 24713l 0-2 11-22 21-18 25-15 25-12 29-11 28-14 22-10 27-13 29-11"/>
<path d="M1498 24788l 1 0-3 24 3 24 4 27 3 26 2 25 1 28 3 29 5 28 2 27 4 24"/>
<path d="M1648 24591l-1 0 23-14 22-13 23-6"/>
<path d="M1646 24678l 0-2 16-20 24-5 27-2 27-5 25-8"/>
<path d="M1997 24292l 0 0-9 28-2 29 0 29 3 30 3 32 1 25 3 27 3 29 3 31 3 31 3 31 5 30 5 31 6 31 5 28 4 29 4 25 8 31 7 27 9 24 13 22"/>
<path d="M1056 25769l-1 2 10-23 9-25 7-24 6-27 9-33 7-24 6-26 7-27 7-31 9-32 9-34 7-31 5-31 4-29 5-28 5-28 7-25 4-25 4-33 3-26 3-28 18 16 13 28 9 27 11 28 15 30 12 28 10 30 11 33 11 32 12 29 10 29 9 28 7 25 12 30 6 25 6 28"/>
<path d="M1128 25507l-2 0 25-8 26-6 23-9 28-13 23-9 24-11 24-14"/>
<path d="M1475 25626l-1 0 17-20 26-9 25-1 22 15-3 27-6 26-7 26-12 22-11 22-12 26-18 21-18 15 25-9 25-4 25 1 25-3 24 3"/>
<path d="M1681 25444l 0 2 24-9 25-10 24-8"/>
<path d="M1724 25465l 0-2 18-18 24-12 24-10"/>
<path d="M1996 25240l-1 0-16-18-1-25 22-15 23-12 22-9 26-7 24-3 26 4 25 2 25 10 20 17 7 23 1 25-6 30-5 25-7 26-11 25-14 25-20 27-20 24-19 24-15 21-16 21-19 21-21 15-17 17-2-25 19-17 21-12 28-12 26-6 26-6 24-5 28-2 26 1 24 8 21 15 14 19"/>
<path d="M983 26679l-2 0-7-23 3-25 1-32 4-28 10-31 5-25 6-26 4-28 5-27 7-30 6-29 6-28 5-29 5-26 8-35 7-30 4-25 8-24 8-24 27 2 24 17 23 23 19 23 19 26 17 28 14 29 14 29 14 30 14 29 11 25 10 24 8 23 10 30 6 24 6 24"/>
<path d="M982 26387l-2 1 22-14 22-10 28-12 28-13 24-11 26-10"/>
<path d="M1347 26414l-2-1 22-12 25-7 25 1 19 15-9 27-17 22-18 21-14 21 23 9 21-15 24-7 25 0 25 12 18 19 11 25-2 28-12 25-18 21-21 22-19 16-25 19-21 14-27 5-26-6-17-20"/>
<path d="M1593 26332l 1-1 23-13 28-3 28-3 26 4"/>
<path d="M1638 26402l 0 1 17-18 19-16 21-14 24-8"/>
<path d="M1943 26051l 0 2 5 24 5 26 4 28 0 25-3 26 1 29 1 26 1 25 19 15 26 3 29 0 26-1 24 0 26-3 25-4 31-6 28-7 28-4 27-5 24 1"/>
<path d="M2118 26115l-1-1-3 25 6 27 6 24 5 29 4 24 6 25 4 24 3 25 5 28 6 26 4 25 7 32 6 30 5 24 5 26"/>
<path d="M848 27796l-2-5 2-24 9-29 8-22 11-29 11-33 9-23 7-26 10-29 9-30 10-31 11-34 10-33 10-34 10-36 10-34 7-35 7-33 6-31 5-30 5-26 5-24 7-32 5-25 3-25 22-11 13 25 15 25 13 28 12 28 13 31 10 23 9 25 9 27 7 29 9 29 9 29 9 30 10 31 9 28 7 28 12 27 8 23 11 29 6 28 8 25"/>
<path d="M903 27509l-1-1 23-16 25-12 31-11 23-10 27-10 24-12 29-10 31-9 27-9 27-5"/>
<path d="M1379 27495l-1 2-8 22-2 28-6 28-5 28 1 24 23 13 28-4 28-5 25-6 28-7 27-6 25-12 22-13"/>
<path d="M1469 27544l-1 1-4 26 10 26 10 27 11 22 12 25 12 24 11 25 12 23"/>
<path d="M1608 27381l 0-1 25-13 26-12 25-9 24-9 26-8"/>
<path d="M1645 27422l-1 0 18-19 23-16 23-13 23-10"/>
<path d="M2125 27145l-1-2-9-23-17-19-22-12-27-6-27 2-23 9-19 19-13 27-9 28-1 27 6 25 14 22 17 17 23 14 25 9 28 10 29 9 30 5 23 6 28 9 30 9 26 8 24 11 22 14 20 15 17 19 12 26 5 24 2 28-7 34-11 31-15 29-18 25-22 18-29 12-30 1-30-7-23-11-22-18-21-24-18-31-10-22-12-36-6-26-4-27-3-27 1-25 2-25 2-25 6-25 6-25 7-23 11-32 13-29 10-24 12-23 18-22 19-16"/>
<path d="M1059 28340l-3 2-14 21 9-26 9-25 8-30 7-32 7-26 7-26 8-27 9-29 8-28 8-29 7-30 7-27 6-27 8-25 10-34 7-26 7-24 21 13 11 24 8 24 11 28 14 31 8 24 10 25 10 28 9 27 11 28 10 28 10 28 10 27 14 24 11 24 15 29 12 25 10 22 12 22 14 21"/>
<path d="M1092 28239l 1-1 21-13 23-9 24-10 26-8 27-9 25-14 26-12 29-9"/>
<path d="M1533 28279l-1-1 18-16 22-13 22-15"/>
<path d="M1557 28262l-1 1-4 24 3 25 6 29 8 26 8 25 23 6 18-18 19-18 20-17 24-11 25-5 24 6 14 22 8 25 2 27-2 27-3 29-13 26-21 20-28 10-24 5-27 5-26-10-22-14"/>
<path d="M1832 28106l-1 0 24-3 23-8 26-3 25-9"/>
<path d="M1870 28173l 0 1 25 3 26-9 23-14"/>
<path d="M2172 27908l 0 0 7 28 7 28 7 26 6 28 5 30 2 33 5 24 4 35 5 33 4 32 5 29 1 25 1 25"/>
<path d="M2403 27853l-1 0-12 27-5 23-5 32-6 30-4 34-3 35 0 33-1 30 1 30 3 27 7 26 11 27 13 20 19 15 22 9 27-8 24-18 16-23 15-23 10-25 7-23 1-27-9-23-22-17-29-4-27-1-27 2-23 9-19 17-17 22-12 25"/>
<path d="M2676 28202l-1 0"/>
<path d="M2762 28273l 0-3"/>
<path d="M2866 28213l 0 0 24 9"/>
<path d="M5449 23449l-1-1 25-4 27 0 29-2 28-4"/>
<path d="M5446 23527l 0 0 25-3 27-3 27-1 24-1"/>
<path d="M5822 23334l-2-1-19-14 6-24 25-7 30-3 25-1 29-1 32 1 32 0 31 3 27 5 23 6 26 8 21 16 11 25-5 32-9 23-14 24-18 23-22 26-17 18-25 24-25 21-24 21-23 18-21 18-21 15-22 17-24 14 25-7 26-6 25-7 27-4 27 1 29 0 27 1 24 1 26 4 24 7 17 17 2 25"/>
<path d="M6262 23198l 0 1 2 24 1 27 1 24 4 27 23 12"/>
<path d="M6199 23088l-2 0"/>
<path d="M6368 23221l-1-1 21-13 26-6 24-5"/>
<path d="M6629 23082l 1 1 5 25 2 28 2 26 1 24 0 29-2 25 0 27 0 27 3 24"/>
<path d="M3085 22385l 0-1 26 1 28 2 26-4 26-6 24-9 25-12"/>
<path d="M3131 22480l-1 0 24-1 25-12 23-10 25-10 25-9"/>
<path d="M3438 22254l-1 0 16-21 24-9 26-3 24 1 27 2 26 4 25 6 27 9 22 12 17 17 8 25 0 27-5 25-7 30-10 33-12 34-11 24-11 23-13 23-14 24-14 22-14 21-15 21-14 20-22 25-22 21-22 17-26 16-23 8-28 0 9-23 24-11 23-9 22-9 24-5 29-8 29-6 27-4 24-1 27 1 25 4 24 6 20 15"/>
<path d="M3706 22151l-1 0 15-21 22-10 24-5 25 3 27 10 22 12 19 18 5 25-13 24-19 23-19 18-23 19-20 20-22 15-24 13 23 8 25 2 24 4 24 7 25 6"/>
<path d="M3954 22201l 0 0-12 23 0 27 4 24 12 24 23 6"/>
<path d="M3967 22058l-2 0-25 7-17 18-4 25"/>
<path d="M4082 22181l 1 0 26 2 25-1"/>
<path d="M4282 22093l-1-1 24-5 27 1 26 3 28 3 27 6 18 17 9 24 1 28-8 22-14 25-16 26-17 18-21 18-19 15-22 14-22 12 25-3 25-3 24 0 26 2 26 5 24 7 18 17"/>
<path d="M10411 23088l 0 1 11 25 12 28 11 26 11 21 13 22 17 25 15 23 18 22 22 15 21-14 9-26 7-28 9-34 6-26 5-29 5-31 5-34 4-34 5-35 4-37 4-39 6-38 6-36 7-35 6-30 8-30 6-26 6-24 8-29 9-28 9-24"/>
</svg>
