<svg xmlns="http://www.w3.org/2000/svg" viewBox="1366 2016 7942 24038" stroke="black" stroke-width="16" stroke-linecap="round" stroke-linejoin="round" fill="none" data-xena="0 -5 0"><style>@media(prefers-color-scheme:dark){svg{background-color:black;stroke:white;}}</style>
<path d="M1837 2699l 0-1 6 25 6 26 8 31 7 25 7 26 9 25 9 24 8 28 11 25 12 21 25-13 12-21 13-29 9-23 6-25 7-26 5-25 4-26 3-25 0-35 0-35-1-30-3-28-8-22"/>
<path d="M2200 2693l-2-2-15-21-22-11-27 1-23 19-16 19-15 23-9 24-7 24 3 26 14 23 27 8 28-10 22-14 18-16 2 24 16 19 24 2 29-14 23-15 25-21 23-26 15-19 20-30 15-32 11-31 5-31-1-33-3-25-4-27-5-29-6-31-6-28-6-28-5-25-7-32-8-25-11-22-20-15-26 6-16 25-10 27-6 26-5 30-2 25-1 28-1 29-1 32 2 32 3 32 6 33 5 29 6 28 8 25 8 23 14 30 15 28 15 24 15 19 19 18 24 16 30 7"/>
<path d="M3189 2708l-1-1-13 21-2 25-2 31-2 25 1 25-1 24 2 25 6 29 10 27"/>
<path d="M3220 2546l-1 1-7 23"/>
<path d="M3464 2788l-2-2-14-22-18-17-24-4-22 15-19 20-16 26-11 27-7 24-3 28 14 19 26-3 26-16 23-19 24-26 15-20 14-21 18-29 12-29 7-28 4-30-1-30-3-33-4-35-3-25-3-24-6-35-7-28-6-28-25 0-12 28-9 26-10 30-10 29-6 37-3 25 0 27 0 26 2 26 2 25 5 35 7 33 11 29 11 27 15 25 13 22 16 25"/>
<path d="M3602 2786l 0-2 11-23 21-15 23-12 25 4 13 25 5 29 2 28 1 28 3 25 4 24 6 25 10 24 17 19 27 5 24-11"/>
<path d="M3764 2730l-2 0-23 6-14 24-9 28-12 28-11 23-12 26-12 26-12 27-10 27-10 30"/>
<path d="M1626 2129l-2-2-25-9-26 4-25 8-20 13-10 24 0 26 3 25 4 25 5 28 5 31 5 28 1 28 1 32-1 35-2 27 0 28-5 31-4 32-5 33-8 34-7 36-7 34-7 34-6 33-4 30-4 29-1 27-3 27-3 26-1 24-4 33-1 29 2 28 3 27 8 25 20 16 27 4 30 1 29-1 28-3 27-3 28-2 25 2"/>
<path d="M4145 2927l-2 0-11 23-9 26-10 22-8 24-12 26-15 27-13 25"/>
<path d="M4276 2930l-2 0"/>
<path d="M4394 2919l-2-1"/>
<path d="M4501 2900l 0 0 23-7"/>
<path d="M4747 2237l 1-2 18-16 23-11 28-7 24-5 29-4 24-2 24 7 13 21 8 27 3 31 4 33 2 30 3 33 3 34 1 25 3 25 1 26 2 24 0 24 0 35 2 33 0 33-1 32 2 29 0 28 1 27-1 28 0 27-1 27 0 25 1 28 2 28-1 26 1 26 0 26-1 24-23 12-25 1-27-5-24-3-27-1-24-9"/>
<path d="M1637 3556l 1-1-24-7-23-6-24-3-25-1-14 20-5 25-3 25-1 25-2 24 0 25-2 27-3 26-2 28-1 28 1 28-1 28 0 32-1 26-2 26-1 29-1 28-2 31-2 31-3 34-4 35-2 24-4 34-4 31-4 30-3 29 3 28-2 26 1 24-1 31 0 30 2 26 3 25 4 26 9 22 21 15 25 4 26-1 25 2"/>
<path d="M1893 4027l-2-1-22-8-25 1-27 7-22 10-21 12-22 16-15 21 11 22 23 6 27 5 25 3 28 5 24 9 16 19 4 25-9 27-16 23-19 25-23 21-21 14-25 7-21-15-1-26"/>
<path d="M1975 4075l-2 1-12 24-8 27-5 28-3 25 7 26 13 20 28 1 27-15 22-20 16-21 18-23 11-21 4-25-6 25-6 28 1 25 14 21 23 13 25-3"/>
<path d="M2196 4109l-1 1-11 23-4 24-3 25 27 3 13-22 13-21 14-21 7 26 3 24 5 24 23-6 21-19 16-19 13-22 17 17 0 27 0 27 0 28"/>
<path d="M2859 4145l-2-1-25 9-24 17-14 20-4 24 11 25 19 19 26 7 27-1 25-7 23-13 11-23-2-26-20-17-24-7-5 23 27-4 24-10 26-16 21-14 24-20 26-22 19-18 17-16 17-18 21-25 18-25 14-28 13-29 9-31 8-33 4-33 2-30 3-27 0-25-25-7-21 18-20 24-13 20-14 25-11 28-13 31-12 35-11 36-11 36-8 39-7 38-4 40-1 40 1 38 3 36 7 34 7 28 8 28 12 25 11 24 11 22 18 26 17 22 16 21 18-21-11-30-12-28-70-139 15-22 25-5 28-4"/>
<path d="M3572 4049l 0-1 14 22 15 24 10 24 11 22 17 20 24 5 18-22 11-23 13-26 9-28 9-28 10-22 10-22"/>
<path d="M3949 4039l 0-2-15-18-24-6-23 9-19 16-11 26 0 24 18 16 27 1 26-9 22-13 13 20 27-3 23-10 22-14 26-19 27-23 23-25 21-28 17-26 12-27 6-30 1-28-5-29-6-28-7-30-6-29-6-28-6-26-7-23-18-16-13 23-12 29-7 29-6 33-4 36-1 24 1 26 2 27 3 26 4 24 7 34 9 30 7 28 11 27 12 22 14 21 16 20 19 17"/>
<path d="M4330 3990l-2-1-25-4-26 9-23 11-17 18 7 25 23 13 24 6 27 5 27 6 23 9 12 23-15 22-24 16-26 14-25 11-24 5-24-6"/>
<path d="M4825 4029l 0-2-5 32-5 24-4 24-3 30 0 29 10 22 24 8 25-8 22-15 20-20 14-20 15-23 7-25-2-25-12 21-8 24-3 26 1 24 11 25 19 15 23 7"/>
<path d="M5047 4080l-2-1-19 16-8 27-4 25-3 29-2 24-2 25-3 27-3 26-4 26-5 30-6 25-3 27 11-30 9-28 11-32 6-24 5-24 4-25 6-35 6-35 5-29 4-26 4-26 7-27 14-20 24 3 26 10 24 10 23 14 13 22-8 27-16 20-24 19-26 17-23 16-23 13"/>
<path d="M5582 3798l-2-2-24 7-8 29-5 29-6 33-3 25-3 25-3 24-3 37-3 33-1 33-2 31-1 28 3 25 7 24 19 17 28 3 28-12 22-17 17-19 11-28-83-99-24-8-25-6-28-4 22-10 25-5 28-3 25 0 27 3 24 4 24 7 19 16 3 25-10 24-9 23 2 25 22 11 26-8 22-13 19-18 13-22 2-27-16-21-24-6-26 6-23 10"/>
<path d="M6184 4054l-2 0-20 17-10 22-8 25-5 25 2 28 8 27 19 19"/>
<path d="M6216 3954l-2-1-9 24"/>
<path d="M6380 4074l 0-1-28-1-26 16-22 22-15 19-14 25-6 23 3 27 19 16 29-5 24-11 25-17 21-24 15-19 17-28 10-26 6-30 4-34 2-24 1-26 2-26 1-28 1-30 1-29 0-28 1-25-1-28-4-28-24-7-20 23-15 23-12 26-9 31-6 36-3 35-1 35 1 32 3 33 5 31 4 30 6 31 7 25 13 28 14 21 24 18"/>
<path d="M6542 4069l-1-1 24-7 19 17 15 23 13 26 11 26 17 24 16 18 25 9 25-9"/>
<path d="M6674 4050l-2-1-28 8-25 15-21 17-19 19-16 20-17 24-11 22"/>
<path d="M6945 3695l-1-1 24-12 27-4 26-4 25-2 24 0 27 2 24 3 26 4 21 15 6 24 0 26-3 26-2 32-1 27-3 31-2 33-3 34-4 35-3 32-4 32-3 29-4 30-3 28-2 26 0 29 0 26 3 25 1 25-3 26-11 23-24 7-26-2-25-5-27-8-25-7-25-11-25-13-25-9"/>
<path d="M6780 4227l-2-1-24 12-22 17-13 22"/>
<path d="M6859 4174l-2-1"/>
<path d="M6917 4175l 0-1"/>
<path d="M6992 4181l-2-1"/>
<path d="M3474 10500l 0-1 15 24 3 25 1 32-1 28 0 32-1 25 0 27-1 31-2 32 0 34-5 33-1 33-1 34-2 32-1 29 0 29-2 31 0 30-1 29-1 26-14-23-7-31-6-29-6-30-3-29-4-34-2-24-3-25-1-26-1-34 1-34-1-33 0-30-1-27 2-31 0-24 2-26 2-26 4-27 9-25-3 25-5 28-4 25-7 25-2 24 12-24 8-24 10-26 6-24 10-26 9-23 22-12 21 10 14 21 16 21 10 22-15-19-12-22-20-17-23-12-23-7-25 3-15 20-14 20-14 23-12 26-11 21 20-21 12-24 16-24 15-19 15-22 24-3 17 21 17 17 15 20 14 22 16 20"/>
<path d="M5808 10335l-1-2-1-25 5-25 6-25 5-25 3-28 0-25 2-28 3-26 1-29 2-26 2-28 0-25 0-26 0-25 0-26-1-27-1-26 0-27-1-27 0-29 0-27-1-26 1-27-1-26 0-26-1-26 1-25 0-24 0-24-5-24-25 4-16 20-15 20-16 18 9-25 21-17 24-8 24-6 18 17 10 23 14 22 17 18 18 18"/>
<path d="M5818 10509l 1 0 2 27 1 25 2 24 3 28 2 24 3 26"/>
<path d="M5902 10506l-1 0 7 24 7 24 6 27 4 27 3 27 1 24"/>
<path d="M3489 10150l 1 0 22 11 18 18 15 19 14 20 16 18 18 18 21 15 20 14 22 10 23 7 23 8 24 1 24-8 22-12 15-20 15-23 13-22 12-25 10-22 14-22 13-21 10-25 14-20 12-22 10-22 11-21 10-25 13-24 14-24 17-20 16-23 16-18 17-19 19-15 23-11 25 1 26 4 21 13 20 18 12 21 13 22 11 24 8 25 11 23 10 24 6 25 11 25 10 25 14 22 13 21 21 16 19 18 22 13 23 10 23 5 26-4 24-5 22-11 23-9 22-10 22-10 22-15 22-13 18-16 19-15 19-18 19-20 18-20 14-21 14-20 13-21 11-21 16-21 11-22 14-22 16-24 13-21 16-23 12-21 13-26 13-22 14-22 16-24 10-23 11-22 17-22 15-22 17-21 18-22 15-20 20-18 18-16 19-19 18-17 19-14 22 11 22 13 18 16 16 22 14 21 12 26 16 23 11 25 9 25 11 25 11 25 10 25 11 21 11 23 11 25 11 25 15 21 17 17 17 23 13 20 14 22 11 21 12 22 11 22 12 24 15 20 16 18 14 22 17 21 16 20 18 20 16 20 17 17 18 18 18 19 15 18 22 16 20 16 24 9 19 14 22 11 21 13 21 12"/>
<path d="M3187 9743l 2-1 13-21 24 0 26 3 24-2 27 1 24 6 25-2 24 2 25-2 25-2 24-5 25-2 25-4 26 0 27 2 26-3 27-2 26-1 25 0 27-6 27 1 24-1 26 3 24-3 26 1 26-2 26 3 26-2 25-3 27 0 25-2 26 0 24 2 25 1 25 3 25 2 25 2 28 2 25 3 25-1 27 1 26 2 25 4 27-5 24 5 25-1 24 0 27 3 24 1 26 0 25 2 24 1 25 3 24 5 24 3 25 8 26 3 24 6 24 8 25 2 24 5"/>
<path d="M4684 9664l-1 0 18 16 22 12 17 17 18 16 8 23-15 21-13 23-18 19-21 17-20 16-22 11"/>
<path d="M4409 10145l 0 0 3-24 2-26 3-25 3-27 3-24-3-25-3-25-6-24-3-24 3-24-13 20-12 21 11-21 20-13 22 15 19 18"/>
<path d="M3689 10288l 0-1 1-24-1-26 1-24 2-24 4-24-21 12-15 20 3-25 20-14 18 16 24 6"/>
<path d="M3685 14472l 1-2-27-5-22 15-27 18-30 18-27 20-26 21-23 20-18 16-15 20 25 9 24-5 24-5 29-5 28-5 27 7 23 11 19 17 7 26-5 24-9 23-15 23-17 21-4 24 17 17 15 22 8 23 4 27 1 27 0 26-4 24-3 27-5 26-5 28-1 25 1 29 4 24 6 23 13 25 12 23 20 18 23 12 27 7 28 8"/>
<path d="M5022 15158l 0 0-2 27 2 26-1 28"/>
<path d="M5958 14743l 1-1 1-24-25 2-19 18-13 23-8 27-1 26 6 25 12 23 19 16 23 6 26-2 24-10 17-22 10-24-6-25-12-21-21-14-23-7 15-23 19-14 20-15 21-16 22-12 24-7 19 18 10 23 6 23 7 28 8 31 5 28 5 32 5 34 1 25 1 27-1 26 0 27-2 28-1 29-2 26-2 27-4 32-3 29-2 27 1 26 2-25-4-33-5-31-8-35-4-27-6-27-7-27-4-27-5-24-4-25-6-34-6-31-4-27-4-26 0-25 8-24 17-19 20-15 26-13 23-10 26-9 27-6 29-3 27 3 25 6 20 19-1 25-12 26-18 27-18 19-18 18-24 19-21 16-21 14"/>
<path d="M6477 14710l-1-1-23 11-23 17-19 17-15 23 11 22 28 7 24 2 26 2 24 3 26 5 26 3 19 16-4 25-15 20-18 16-20 14-21 14-25 7-28 2-27-2-22-11"/>
<path d="M7257 14477l-2-5-11-23-18-16-25-4-24 10-17 19-14 26-9 23-6 28-4 32 1 35 3 25 5 36 7 34 7 24 6 24 8 24 9 35 4 24 6 25 5 35 2 33-2 32-5 29-8 25-10 27-19 17"/>
<path d="M7104 14745l 0-2 8-24 25-13 25-6 25-5 29-3 32-3 24-4 30-3 25 1"/>
<path d="M7354 14704l-2 2-13 23-12 22-7 24-4 27 2 27 7 26 11 23 22 16 24 5 27-3 25-13 21-18 10-24 0-28-10-25-15-23-16-19-18-19-23-5 7 25"/>
<path d="M7533 14750l-1 1 3 26 8 24 11 22 11 26 9 23 2 24-16-20-4-27 1-24 3-27 4-24 10-22 16-19 21-15 23-10 29-10 31-8 26-5"/>
<path d="M9015 14387l 2-2 21-12 25-9 28-4 27 4 23 11 15 23 0 25-6 25-11 23-15 24-17 24-16 26-16 24-14 23-10 25 2 25 20 18 22 9 26 5 20 14 16 19 1 25-8 23 0 26 9 24 12 21 11 24 11 23 9 24 5 25-3 25-16 19-21 16-23 17-26 7-27 3-24-5-23-13-18-17"/>
<path d="M1726 14697l 1-2 26 4 12 25 11 29 13 34 10 27 7 28 8 31 5 32 6 35 7 35 5 36 8 34 7 34 9 32 7 28 8 25 13 30 17 23 18 19 25 0 16-30 9-35 10-27 7-32 12-33 10-38 6-43 5-43 3-48 3-46 3-44 1-42 0-39 0-32 0-29 0-33 2-28-3-25 23 15"/>
<path d="M2228 14831l-2-1 25-1 29-3 24-5 28-6"/>
<path d="M2288 14905l-2-1 28-4 31-5"/>
<path d="M1829 16001l-1-2-12-21-7 28-6 34-5 29-6 33-6 34-6 35-6 35-4 36-4 35-1 33 0 32 2 29 4 25 10 33 12 26 21 23 25 12 32-1 28-13 20-15 21-20 20-24 18-28 19-31 18-31 15-32 13-33 9-33 7-33 4-29 1-26-2-35-5-26-6-27-9-26-8 23-2 34 0 31-2 32 0 24 0 25 0 28 0 28 0 25 1 25 2 35 3 31 8 27 15 24 14 27 15 23 18 21 23 15 24 3"/>
<path d="M2328 16192l-1-2 28-6 28-2"/>
<path d="M2380 16283l-1-1 22-10 24-8 25-8"/>
<path d="M3628 16248l-1-2 6-25 7-24 15 21 6 25 1 24 5 26 4 24 2 28-2 26-5 23-2 25-7-27 1-30 3-26 5-27 6-26 8-25 8-24 10-22 13-26 14-23 16-22 19-15 24-14 24-9 24-2 24 8"/>
<path d="M3915 16226l 0 1 24-1 26-11 23-9 27-11 23-16 10-23-21-15-24-4-25 3-25 7-21 13-17 18-16 25-11 26-6 24 1 26 12 27 15 18 23 13 24 6 28 3 32-2 34-7 24-5"/>
<path d="M4288 16161l 0-2-8-25-22-12-28 8-22 18-21 24-18 20-13 21-10 29-5 29 5 26 19 17 26 1 30-12 24-12 20-14 20-15 17-20 13-22 7-24-18 17-11 28-9 27-9 32-9 35-5 25-6 26-3 26-2 28-3 29-2 29 1 29 0 29 2 25 4 25 6 34 10 31 9 24 16 22 16 19 21-18 6-25 5-24 2-27-2-31-8-31-6-25-6-25-6-30-5-26-8-25 24 7 26 0 27-9 29-7"/>
<path d="M2957 16251l-1-1 6-26 11-21 16 24 4 29 1 29-1 27-3 30-6 28-2 28-5 24 9-30 10-26 11-29 11-26 12-24 16-23 12-21 13-23 16-21 17 18 0 26 2 28-3 28-1 27-1 28 0 24 5 24"/>
<path d="M3206 16324l-1 0 19-19 18-17 17-18 16-19 14-22-2-26-20-15-25 3-15 20-11 27-6 24-6 23-1 30 5 29 9 23 17 17 28 5 24-5 24-10"/>
<path d="M3359 16226l-1-1-15 21-1 25 1 25 1 25 25 0 20-18 14-22 13-22 1 28 6 24 24 9 18-18 15-25 12-23 6-26 0-25-7-25-14-24-25 5"/>
<path d="M3539 16355l-1-1 26 3 23-7"/>
<path d="M4040 14925l-1 0 3 25 3 24 4 30 5 29 9 28 7 25 14 20 22-11 10-24 11-32 7-29 7-31 4-33 4-24 5-34 6-30 3-25 4-27 5-26"/>
<path d="M4346 14970l-2-3-5-24-8-25-15-19-27-3-20 14-18 24-10 22-8 27-4 24 15 20 26-3 21-13 25-19 21-19 20-20-3 25-6 25 3 28 9 25 16 23 25 10 23-10 20-20 18-22 19-25 13-22 13-25 10-25 12-29 12-30 11-31 11-32 7-34 6-34 4-33 2-34 0-36-2-34-4-34-4-34-6-28-6-29-3-27-7-33-5-26-13-25-26 3-15 23-15 26-12 31-7 25-4 26-5 30-3 32-1 36 0 36 1 37 2 40 3 40 4 40 5 39 5 37 7 35 8 31 9 28 9 25 8 22 15 27 17 24 19 19 20 13 24 7 25 2"/>
<path d="M8221 14678l-1-2-2 25 3 25 5 25 6 27 9 27 11 22 25-7 10-25 7-24 4-27 5-27 3-27 3-26 1-25"/>
<path d="M8458 14675l-1-3-4-25-11-22-23-8-22 18-15 20-18 24-12 26-6 25 4 24 22 10 25-9 21-16 20-15 21-21 13-23-20 14 0 27 11 24 16 21 23 8 27-7 23-16 19-18 20-22 22-29 14-21 14-24 13-25 12-26 12-26 9-27 7-27 5-26 2-30 0-27-2-27-2-28-4-27-5-27-5-24-8-30-10-27-21-15-24 12-14 21-15 31-10 29-8 35-4 24-5 29-3 31-2 33-1 35 1 35 3 34 5 32 6 32 8 29 11 24 11 24 18 28 20 25 23 19 23 17 24 16 23 10"/>
<path d="M7971 20419l-1 0 23-11 27-7 25-8 28-7 27-5 23-5 26-6 24-5 27-8 24-5"/>
<path d="M7983 20427l-1 0-16 17-6 27-3 25-1 29-2 25 2 25 4 27 3 26 4 27 5 23 26-3 24-17 22-14 22-15 22-14 24-12 26-12 25-8 29-5 29-1 26 3 28 8 23 10 20 17 11 23-1 26-6 24-13 22-15 22-19 22-19 18-18 17-19 17-19 16-26 17-26 14-26 10-25 6-26 1-29-4-27-8-25-9"/>
<path d="M8095 21178l-1-1-1 26-2 26-1 25 0 25-1 29-1 25-1 29 0 30-2 31-1 27-1 29-2 31-2 34-2 32-2 32-3 32 0 32-2 32-1 32-1 34-1 34-1 35-1 34-1 32-3 33-2 34-3 26-1 34-2 34-2 34-1 35 0 34 0 36 0 34 1 24 0 25 0 24 0 35 1 35 1 24 1 35 1 33 1 32 0 35 0 36 0 24 0 24 0 25-1 34 1 36 0 25 1 24 2 34 1 30 1 33 1 35 2 31 1 29 1 27 1 29 1 29 1 29 2 26 1 29 3 31 1 26 2 27 1 28 1 26 1 30 0 26 1 26 2 31 0 24 1 33 1 31 0 27-1 25 1 32 1 25 1 26 2 26 4 31 4 29 1 24 1 28 0 29 0 28 1 27 1 27 0 30 1 29 1 29 1 28 1 25 3 28 1 26 2 24 0 30 1 27 1 27 1 25 0 27 2 28 1 27 0 28-1 28 1 25 2 26 2 25 0 25"/>
<path d="M8126 25022l-1-1-25 4-13 23-10 28-9 29-6 28-3 29 0 30 6 25 9 23 20 16 22 10 29 4 27-6 24-13 26-19 22-21 18-25 12-25 7-28-4-30-11-27-14-28-12-21-19-22-18-16-22-15-25-12-28 2-23 13-24 15-16 20-9 24"/>
<path d="M8517 25385l 0-2-23 10-13 27-12 26-7 24-9 28-6 29-6 34-5 31-2 32 0 28 4 33 6 32 6 26 11 24 11 22 15 19 21 16"/>
<path d="M8604 25533l 0 0-13 22-2 27 0 29 1 24 9 26 21 17 27-5 24-11 25-13 23-13"/>
<path d="M8676 25604l-1 2-7 26 4 27 6 28 8 25 10 22"/>
<path d="M8743 25460l 0 2 17 19 25 14 22 18 16 19 12 22 9 24 4 26 0 26-3 27-4 29-6 28-8 27-8 23-9 22"/>
<path d="M7568 25514l 0 0-18 17-12 22-12 28-11 25-9 29-6 26-4 32 0 29 5 26 10 28 12 26 15 23 20 13 26 8"/>
<path d="M7620 25628l 0-1 18-16 24-1 25 5 2 26-12 23-14 24-8 24 25 2 25-5 24-1 24 4 1 24-13 23-18 21-23 17-24 7-26-3"/>
<path d="M7709 25516l 1 1 24 10 23 16 21 18 16 18 14 22 9 24 3 26 0 24-3 32-3 25-4 24-4 24-7 30-6 27-8 27"/>
<path d="M6776 25478l 0-2-11-21-22 14-9 24-10 26-8 27-6 30-6 32-3 25-1 27-1 25 3 29 5 24 7 24 17 20 24 4"/>
<path d="M6865 25532l 1-2 26-1 21 11 2 24-14 23-17 21-18 22-16 19-10 22 14 20 28 1 25-4 25-6 27-8"/>
<path d="M6968 25431l-1-1 22 12 21 16 21 16 16 18 11 27 8 25 5 25 2 29-4 28-5 29-7 27-12 24-18 25-21 20"/>
<path d="M5663 17658l-1 0 8 23 1 25 3 29 3 24 2 29 1 31 2 31 1 24-1 26 0 29 0 30 1 29-1 31 1 31 1 32 2 33 2 34 2 32 2 37 1 38 2 25 0 25 0 25-1 26 0 27 0 27-1 24 0 27 0 27 0 25 0 30 0 27 1 28 1 27 0 29 1 31 1 30 2 30 3 27 1 26 1 25 0 27 1 28 0 29 0 28 0 28 0 27 0 29 0 27 0 29-1 29-2 28 0 28-1 27 0 26 1 25 0 25 0 28-3 28 0 29 0 28 1 28 2 28 2 28 2 28 2 29 0 29 3 29 1 29 2 29 3 29 1 29 1 29 2 27-1 27 0 27-1 27 0 27-1 26 0 25 1 25-1 24 0 24 0 35 0 36 1 37-1 25 0 25 0 30-3 27 0 27 0 26-2 25-1 25-1 26 0 26-1 34 0 35 1 35 2 24 3 35 2 26 3 35 3 24 3 34 2 34 2 30 1 33-1 36-1 35-1 24-2 26-2 35-3 34-3 34-1 31-2 31 1 31-1 31 0 30 2 34 0 34 0 31-1 30-1 33-1 24-2 29-3 25-2 25-3 25-2 24-4 25-2 25-1 25 0 32 0 30 0 27 3 30 1 25 4 34 3 31 3 28 2 32 3 35-1 24 1 26 0 25 0 26 1 35 1 30 0 30 1 29 4 30 2 28 2 32 1 31 0 31 1 31 0 37 0 24 0 27-1 27-2 29-1 26-1 26-1 24-1 30 0 32 2 35 1 30 1 30 1 29 2 30 2 29 3 32 1 33 1 24-1 25 1 27 0 28-1 25 0 25-1 25 1 31 1 31 1 31 2 29 1 29 2 26 2 27 2 29 1 29 2 28 2 31 2 35 3 32 3 31 2 27 2 27 3 31 4 29 4 29 6 28 6 28 5 29 4 30 5 28 3 27 4 30 3 26 4 30 3 25 2 25 1 25-1 28-2 27-1 26-1 27-3 25-3 27-3 27-5 27-5 28-3 27-6 27-5 28-5 24-5 24-4 26-6 23-3 28-2 25 2 27-3 24 0 24 2 25 4 26"/>
<path d="M5473 17211l-1-2 2 29-3 25-2 24-4 25-7 28-3 25"/>
<path d="M5629 17241l-1 2-11 22-5 24 2 25 8 27 15 23 20 14 24 5 23-5 26-8 20-14 19-17 15-21 10-23-5-27-12-23-21-24-18-17-26-17-25-16-25-7-27 1-22 9-17 18-12 20"/>
<path d="M5775 24993l-2-2-21-9-17-19-20 15-14 26-10 25-8 31-3 25-1 25 1 27 8 26 14 25 21 20 25 8 28-6 26-7 25-15 21-15 20-18 21-19 18-22 16-20 16-24 6-29 0-28-9-26-19-21-22-15-27-16-20-15-25-9-24-1-29 3-28 10-22 13"/>
<path d="M5701 25557l 0-2-23 6-13 22-9 27-7 27-7 29-4 30-1 25 0 31 3 26 8 25 14 25 22 17 25 6 26 1"/>
<path d="M5815 25663l 0 1-8 24 0 26 1 28 2 27 3 29 3 27 7 24"/>
<path d="M5890 25487l-1 0 17 18 17 22 14 20 16 23 15 25 14 26 11 29 6 25 5 26 2 28 0 29-2 30-4 30-5 31-7 27-7 24-8 23-13 28"/>
<path d="M6827 24686l-2 0-18 22-11 23-11 31-7 26-9 29-7 31-6 34-5 35-1 34 3 30 7 27 14 27 16 20 23 14 24 6 25-1 24-15 17-19 10-23-11-25-19-16-24-14-25-3-23 10-23 13-20 15"/>
<path d="M7515 24888l 0-2-4-25-9-25-14-22-21-14-27 1-26 12-23 17-18 24-9 23-5 27 5 26 12 22 18 17 24 14 27 13 29 13 24 5 30 7 22 12 20 15 3 27-11 21-19 23-23 14-25 4-25-7-24-15-14-19-8-28-1-24 4-26 5-29 7-25 9-28 11-25 13-25 13-20 17-23"/>
</svg>
