<svg xmlns="http://www.w3.org/2000/svg" viewBox="2886 5663 1660 1343" stroke="black" stroke-width="30" stroke-linecap="round" stroke-linejoin="round" fill="none" data-xena="3 -1 0"><style>@media(prefers-color-scheme:dark){svg{background-color:black;stroke:white;}}</style>
<path d="M3883 6216l-24-7-26 10-23 18-16 24-12 22-10 25-5 28-4 25 6 24 23 13 26-12 20-15 17-23 12-24 9-24-6 27 8 23 20 17 26-3 16-22 14-24 13-24 14-28 13-30 11-23 10-25 8-26 9-29 8-32 8-36 7-36 4-40 5-40 2-40 2-38 1-35 0-32-2-27-5-29-11-27-14-20-24-8-21 19-11 26-6 29-7 26-5 31-7 35-5 38-3 41-3 42-1 41 0 44 1 43 4 39 6 37 5 30 9 26 9 23 19 24 24 18 26 4 25-13 20-22 20-29 12-25 10-28 9-29 7-33 8-30 5-32 6-32 4-35 4-36 2-37 2-35 1-36 2-33 3-27 2-32-11 31-6 26-6 29-6 31-5 33-4 32-3 34-4 35-3 35-1 32-2 30 3 24 4 30 6 29 10 23 25-12 13-22 15-30 15-30 14-29 10-25 10-24 12-24 4 28-1 25-2 26 2 28 3 26 9 24 24-9 14-23 9-24 8-25 7-26 6-24 6-25 13 21 5 27 5 37 5 27 4 31 2 32 3 34 2 37 3 41 0 46 1 47 0 24-1 25-1 25-1 24-1 25-2 26-1 26-3 26-3 25-3 25-3 25-4 25-3 25-4 24-9 44-8 41-7 32-7 25-11 26-24-10-14-26-9-28-7-32-6-36-5-38-1-39 0-42 0-45 3-46 5-46 7-44 7-38 10-37 11-35 11-34 14-34 15-31 14-29 16-27 15-25 16-23 16-20 15-19 24-24 23-20 25-17"/>
<path d="M2916 6690l 21 13 27-4 24-10 27-16 21-17 22-22 16-19 17-22 17-26 19-31 18-33 19-37 19-40 19-44 9-23 9-23 9-24 7-24 8-25 8-25 6-24 7-25 5-25 4-25 4-24 7-45 4-43 3-39 2-35-1-32-1-29-5-34-6-25-11-22-22 17-12 34-10 33-10 38-11 45-5 25-5 27-4 27-5 29-4 30-4 30-4 31-4 32-5 32-4 33-4 34-4 34-4 34-5 35-3 35-4 34-1 36-5 29-1 31-2 30-1 29 0 26 1 27 1 24 6 49 4 44 6 40 7 35 7 30 8 23 12 24 16 19 25 0 11-26 9-34 5-29 4-30 3-34 2-32 0-29-2-28-4-31-7-24-12-27-17-24-17-20-17-19-1-26"/>
<path d="M3369 6347l-9 24-1 24 0 29-2 31 1 24 1 24 3 31 6 25 24 7"/>
<path d="M3404 6057l-5 30 0 28"/>
<path d="M3502 6435l-5 25 7-23 9-23 9-30 10-32 10-28 12-26 14-21 20-15 22 14 9 27 6 30 7 30 1 26 5 26 6 27 18 20"/>
</svg>
