<svg xmlns="http://www.w3.org/2000/svg" viewBox="2024 1568 12045 9645" stroke="black" stroke-width="16" stroke-linecap="round" stroke-linejoin="round" fill="none" data-xena="0 0 0"><style>@media(prefers-color-scheme:dark){svg{background-color:black;stroke:white;}}</style>
<path d="M2132 2290l-5 25 17 17 27 3 25-6 25-18 25-20 20-19 21-21 19-22 17-21 12-21 10-28 5-30 1-28-3-27-5-25 11-24 26-9 25-10 28-11 31-5 29-3 28-2 24 1 25 3 7 26-14 21-14 20-16 22-15 23-16 22-15 19-14 21-18 25-14 22-8 22 16 19 23 6 30-7 26-12 25-12 22-13 18-16 16-18 12-23 21-14 23-16 23-12 21-15 19-15 17-17 3-25-20-16-27 3-21 22-19 24-19 26-14 28-9 24-1 25 17 21 23 9 25 0 29-7 24-10 23-16 24-21 17-17 19-24 13-24 7-25-15 22 2 26 7 25 9 23 18 18 25-3 20-19 15-22 7-24 0-27-2-27-5-27-6-24"/>
<path d="M3049 2032l 25 9 23-8 19-16-7-24-24-10-25 5-22 14-22 19-19 21-13 23-11 27 0 26 15 19 25 13 25 2 25-3 26-8 25-13 23-15 20-16 16-22 1-26-8-22-12-24 24-6 28-3 27-1 27 3 3 24-22 17-21 21-19 21-19 20-12 22 15 19 23-6 25-10 28-12 21-11 23-12 23-12 21-12 21-13 26-16 21-15 17-17 7-25-10-25-18 16 6 24 8 24 10 24 10 26 6 25-10 25-24 12-23 6-25-4 12-23 23-12 25-9 26-8 25-6 27 0 24 0 26 3 24-2 23-9 22-14 22-12 6-24-23-13-27 0-23 14-17 20-13 23-8 27 4 27 13 20 21 18 24 7 27 0 24-3"/>
<path d="M4254 2056l 17-18 3-24-25-8-26 15-23 24-19 26-19 28-16 27-12 23-10 27 13 22 27 1 26-10 22-11 20-14 23-19 16-18 11-24-1-27-12-24 27-10"/>
<path d="M4404 2028l 8 25 5 25 2 25-6 24-16-21 5-28 10-23 11-22 14-22 20-17 26-15 23-11 28-7 31-6"/>
<path d="M4750 2000l-23-12-25-8-25 2-23 11-22 17-23 23-17 23-14 24-10 22-6 27 9 22 27 5 24-7 22-13 24-19 23-23 19-27 17-28 12-27 11-28 6-29 5-30 4-33 4-34 2-32 3-29 3-29-21 18-4 25-4 29-3 24-3 26-3 27-2 26-2 27 0 30 3 24 7 24 10 26 24 14 26 2 23-10 11-22 25 0 28-4 23-9 26-12 20-16 1-26-18-17-27 3-22 9-24 15-17 19-13 23-10 24 3 27 17 18 24 12 26 4 29-4 23-7 26-11 27-13 27-15 24-16 22-15 19-14"/>
<path d="M5131 1940l-23-11 18 18 25 4 25 6-12 22-22 16-20 18-21 17-13 22 0 27 21 16 29 3 30 0"/>
<path d="M5303 2112l-12 22-17 21-16 20-17 17-21 18-23 21"/>
<path d="M5900 1964l-25-3-20 20-13 22-9 25-6 26 2 24 21 12 23-5 14-22 1-25-15-20 8-24 24-14 24-14 22-12 8 23 2 26 3 25 3 28 5 26 2 26 0 26 27 0 16-28 12-24 11-26 8-28 10-28 6-27"/>
<path d="M6166 2014l 15-19 24-11 22-12 21-12-23-10-26 6-23 17-18 18-15 21-10 24-3 26 8 24 19 18 26 8 25 0 27-6 22-10 28-18"/>
<path d="M6341 1917l 24 5 24 4 25 2 26 4 20 15-15 22-18 15-22 21-19 18-14 20-11 25-2 24 20 17 29-1 31-8 29-10"/>
<path d="M6625 1946l-11 23-8 26-6 27-6 25 4 25 25 0 28-14 22-14 21-18 15-19-9 24 8 26 24 13 25-3 23-12 19-18 13-21 8-22-1-25-8-26-9-24"/>
<path d="M6912 1947l-16 20-4 25 0 27-3 24 6-23 13-24 15-23 19-21 19-19 20-16 23-13 25-11 25-8"/>
<path d="M7151 1916l-16 18-3 24-3 25-4 27 2 26"/>
<path d="M7209 1766l"/>
<path d="M7348 1671l-8 26 0 27 0 25-3 30-3 25-7 31-7 25-8 26-8 25-10 23-10 23-12 21-10 23-4 27 7 23 25 0 28-9 27-10 30-14 28-17"/>
<path d="M7252 1894l 29 0 26-1 31 2 28 2 29 3 27 6 28 5"/>
<path d="M7544 1934l-23 8 17 17 24-7 27-10 21-14-3-26-23-11-24 2-24 10-25 14-19 15-16 19-10 23-5 25 0 30 6 26 10 27 19 20 20 16 26 11 29 2 26-4 29-9"/>
<path d="M2295 3119l 1-24 12 21 8 30 4 31 1 28 1 31 0 30 1 28 2 24 6 27 21 14 22-10 21-19 17-22 16-23 14-24 14-25 12-22 18 17 4 28 6 24 10 25 12 23 19 22 21 14 27 2 26-12 19-15 20-22 21-25 19-29 16-31 12-32 5-32 0-33-3-34-7-34-8-32-11-30-10-23-10-23-11-21 21 11"/>
<path d="M2795 3361l-3 25-3 27-1 28"/>
<path d="M2802 3217l"/>
<path d="M2987 3113l"/>
<path d="M2992 3193l"/>
<path d="M3541 3202l 3-24-25 0-26 11-22 15-22 19-18 18-18 22-11 22-3 28 10 25 18 16 23 9 28 4 30-2 25-6 26-9 25-9"/>
<path d="M3665 3255l-23 8 24 6 24-6 24-9 25-11 21-13 19-17 11-22-24-13-25 1-24 6-21 12-18 19-16 21-11 21-7 24 2 26 13 24 18 17 25 9 28 0 29-8 22-11 23-13 22-13 22-14 23-18 19-16 17-18 10-22-7 27-2 26-1 26 28-5 15-19 16-20 17-19 20-19 21-15 16 19 4 25 3 24 9 24 16 20"/>
<path d="M4235 2971l-6 23-5 30-4 29-6 31-6 31-7 29-7 24-8 31-6 24-4 29-2 27 2 24 25 5 22-11 21-14 24-17 25-18"/>
<path d="M4129 3167l 27-2 24-5 25-4 28-4 29-2 27-2 25 1 29 1"/>
<path d="M4381 3164l-14 20 24 10 28-7 24-9 22-9 16-19-17-17-27-3-26 7-24 12-21 20-15 20-9 23 0 26 12 21 21 18 26 8 29 2 30-3 26-8 28-11"/>
<path d="M4628 3133l 27 1 28-1 25 2 5 25-21 16-19 16-21 19-17 17-17 19-17 22-10 25 6 24 25 9 26-1 24-4"/>
<path d="M5406 3226l-23-10-19 19-13 24 2 26 21 14 28 0 24-7 25-12 22-12 22-12 3-26-16-19 14-21 21-15 23-16 22-14 23-14 22-14 22-15 20-15 20-16 21-18 17-22 13-23 9-24 4-25 3-29 3-26 1-27 0-25-20 16-14 25-12 27-15 31-9 24-10 28-11 28-10 33-10 34-11 36-10 36-9 38-7 38-6 38-5 37-4 37-4 36-2 35-1 33 0 31 2 28 2 26 7 34 9 29 10 23 14 22 21 15 24-14 14-24 9-24 4-28 0-28-4-32-8-34-5-24-12-34-12-31-14-27-13-24-14-22-16-24-15-19 25-13 25-3 25-3 31-3 27-4"/>
<path d="M6413 3153l-6 30-4 31-5 31-7 34-5 26-7 25-8 27-6 25-9 26-7 26-5 23-9 33-8 30-6 26-8 26"/>
<path d="M6397 3180l 10-22 29-7 25-7 28-3 28 3 23 5 22 16-6 26-20 19-20 15-23 15-22 13-22 13-25 12"/>
<path d="M6747 3121l-23-11-24-1-24 9-25 13-21 13-18 20-13 23 14 22 26 6 25 0 23-5 24 8 25 7 25-10 26-16 21-13 23-15 25-17 24-19 22-22 18-22 16-25 13-28 12-31 7-31 7-32 6-33 5-34 5-33 2-28 2-24-17-18-17 21-14 25-11 27-6 24-8 29-8 31-5 23-6 25-6 27-6 28-5 28-6 27-4 26-4 25-3 33-2 31 1 26 4 28 16 21 26 0"/>
<path d="M7014 3055l-20 14-10 23-6 25 1 27 3 25"/>
<path d="M7026 2926l"/>
<path d="M7092 3067l-5 27-9 24-6 23-11 22 17-26 13-25 15-24 15-19 16-19 23-8 10 23-2 25-3 25 9 25 20 14"/>
<path d="M7354 3055l-23-15-26-2-25 11-25 15-22 20-13 20-16 26-9 26-3 29 10 25 24 6 25-6 23-12 25-15 23-19 22-23 19-24 14-27 10-30 3-31 1-34 2-32 3-34 3-32 1-36 0-35 3-29 2-26-21 20-7 24-7 26-4 31-3 35-3 27-3 29-4 30-5 30-4 31-4 30-2 28-2 27-2 24 0 34 3 29 8 24 19 24"/>
<path d="M7487 3111l 5 25 3 27 0 27-3 25-9 25-12-21 8-27 12-26 17-26 17-19 23-21 22-15 25-13 28-6"/>
<path d="M7718 3068l-22 10-25 10-20 13-19 19-14 23-5 25 13 23 27 8 24-2 24-8 21-13 11-22-7-27-11-23-7-23 20-16 26-8 25-1 15 20 3 25-3 29-4 29-6 25-1 26 24-14 14-26 14-26 16-21 15-20 16 18 1 24 15 20 22-11 24-16 21-17 9-24 22-10 23 11 25 5 26-6 24-9 25-12 17-18-8-24-18-16-26-2-24 9-21 14-20 15-13 23-7 27 1 29 7 28 15 22 22 15 31 11 33 1"/>
<path d="M8690 3147l 14 20 25 8 28-3 28-12 25-15 22-18 13-22 6-24-12-22-26-7-26 7-25 13-26 15-22 21-16 24-13 25-8 26-4 27 6 26 14 21 25 10 28 1 27-3 28-9 28-11 27-13 26-13 24-11"/>
<path d="M8978 3065l-4 25-7 24-9 24-13 22-15 25-11 21 23-17 19-20 21-24 22-22 19-20 19-17 24-13 23-10 17 19-5 27-9 26-9 23-3 27 17 17 28 6"/>
<path d="M9354 3067l-20-17-26-10-24-1-25 7-22 8-22 11-21 14-17 18-15 20-16 24-2 25 16 22 27 8 27-4 24-10 27-13 26-18 26-20 21-22 19-22 15-25 12-28 9-30 7-31 5-31 4-33 2-25 1-25 2-33 0-25-3-25-24 0-13 24-6 26-5 25-5 27-3 30-3 32-5 33-4 34-5 35-4 33-3 31 2 26 7 27 16 22 25 10"/>
<path d="M9541 3078l-22 12-15 21-11 23-7 25 0 24 22 13"/>
<path d="M9582 2903l-10 23 14 22"/>
<path d="M9617 3082l 2 27-8 25-8 23 19-14 20-17 22-18 19-16 23-15 23-9 24 1 12 24-3 24-3 26 14 23 27 6 30 0 24-4 31-5 27-8 26-12 17-19 4-28-8-25-16-19-26-6-28 10-22 17-20 17-19 16-18 21-10 24 5 23 24 11 25-2 25-5 25-9 20-13-4 27-1 25 2 30 3 24 4 27 5 26 5 28 4 30 1 29-1 28-7 28-9 30-12 29-16 28-18 26-19 23-21 18-26 16-26 6-24-4-21-14-13-26-5-26 0-32 4-35 10-35 8-23 10-22 10-23 12-23 14-23 15-22"/>
<path d="M10711 3132l-4-26-15-22-24-12-25 2-23 9-20 13-22 19-12 24 3 25 25 13 28 3 28-4 23-5 25 0 15 23 26 4 27-5 27-13 23-12"/>
<path d="M10944 2864l-14 23-7 26-5 25-7 27-7 32-6 28-6 28-9 28-9 27-9 26-10 26-9 24-8 28 1 24 28 8 31-7 26-10"/>
<path d="M10829 3003l 26-5 29-5 28-4 32-2 34-1 25 0 27 0"/>
<path d="M11549 3011l-15 20-12 23-6 25-6 25-3 28 3 25 20 18"/>
<path d="M11603 2864l"/>
<path d="M3395 4376l 27-1 26-1 27-4 27-7 27-9 25-9 27-11 23-7"/>
<path d="M4105 4336l-20 14-11 26-8 24-9 25-6 25-5 26-2 31 7 27 18 16"/>
<path d="M4151 4124l"/>
<path d="M4447 4018l-20-16-26-8-27 6-22 14-19 24-12 29-10 27-9 29-7 32-6 34-6 36-4 35-3 34-3 35-3 31-2 29-1 27-1 25-3 30-2 24-6 24"/>
<path d="M4158 4273l 17-17 25-7 31-3 28-2 32-1 33-1 24-2 26-3"/>
<path d="M5169 4077l 6-24 20-15 24 6 11 25 3 30 0 29-5 33-2 25-5 27-4 27-7 27-8 29-10 26-9 27-10 24-12 23-12 22-17 31-16 24-13 24 18-25 19-28 15-21 16-20 15-19 22-28 20-26 19-23 18-19 17-17 20-18 20-15 23-11 14 20-5 25-9 28-9 23-10 30-9 28-6 24 0 24 10 25 24 7 28-5"/>
<path d="M5528 4305l-17-18-27 4-21 16-19 18-18 19-9 24 17 20 26 0 25-7 20-14-24 6 9 25 25 11 24-6 24-10 24-14 21-14 18-18 19-17 17-20 13-22 11-23 8-25 7-27 7-28 4-29 5-30 5-30 4-29 5-26 5-29-24 6-11 23-9 24-9 27-8 30-6 24-7 23-6 25-7 25-7 26-6 27-8 25-6 24-8 33-5 28 1 31 8 22 22 17 24 1 24-6"/>
<path d="M5919 4049l-25-1-20 17-15 23-11 27-8 31-7 26-3 28-5 28-1 26 0 25-3 27-4 25-3 24-5 30-5 31-10 29-10 22-11 22-13 20-17 23"/>
<path d="M5716 4288l 22-11 27-3 30 0 29 2 31 2 28 2"/>
<path d="M6168 4313l-24-3 25-3 29-5 28-5 32-7 27-4 26-2"/>
<path d="M6520 4307l-26-2-22 13-19 18-18 21-14 22-14 23-11 24 3 25 16 17 25 8 30-2 27-7 28-9"/>
<path d="M6648 4359l 26-3 24-5 24-5 27-5 25-9-11-23-25-5-28 0-26 10-24 15-19 17-14 23-13 26-2 28 7 25 18 18 25 10 27 2 24-2 26-6 26-10 28-11 28-13"/>
<path d="M6934 4325l-23-8-9 24 2 26-3 27-9 23 22-13 21-22 20-21 20-18 21 12 0 25 20 15 26 0 27-8"/>
<path d="M7213 4057l 2 27-4 25-5 25-7 30-9 25-11 26-11 28-12 28-13 29-15 29-13 26-11 25-5 28 3 25 20 19 28 3 30-9 28-10 26-13 26-12 26-16"/>
<path d="M7132 4254l 27-8 23-6 26-3 30-4 31-2 33-3 33 1"/>
<path d="M7396 4265l 23-10 23-10-8-23-27 1-25 7-25 13-20 17-13 23-1 27 16 19 18 22 22 18 25 10 27 5 28 0 29-5 61-66-24 8-12 24 0 24 0 24 1-27 17-25 16-21 21-18 23-13 23-10 23-11 26-10 28-6"/>
<path d="M2872 6779l 5-27 6-25 7-24 3-29-4-25-12-24-19-16-26-3-27 9-24 18-18 20-20 24-17 27-18 30-16 29-12 30-8 26-3 27 11 26 22 12 27-2 26-14 20-15 20-16 18-19 17-19 16-25 15-24 9-23 3 29 2 28 3 25 4 25 9 25 14 25 23 15 26 1"/>
<path d="M3544 6287l 19 20 3 32 1 28 1 33 0 24-1 24 0 26-1 24-1 25-1 25-3 35-3 36-2 24-4 34-4 31-5 27-6 29-6 24-4-24 8-27 8-25 12-27 12-21 11-23 11-23 12-21 16-27 16-19 21-18 25-4 23 10 22 13 19 15 20 17 16 20 10 24 1 29-5 26-14 28-13 22-16 21-15 19-18 17-24 20-25 14-27 9-24 3-27-6-18-20"/>
<path d="M4483 6698l-4-26-16-20-22-13-26 2-26 15-20 16-21 23-19 26-17 28-14 29-11 29-8 27-3 25 5 28 16 25 23 9 29-3 23-13 22-20 16-21 12-24 6-26-1-25-5 25-1 26 3 25 4 25 12 22 21 16"/>
<path d="M5278 6350l 2 28 1 31 2 36 1 27 1 27 0 27 0 29 0 28-1 27-1 28-1 26-2 25-5 24-8 34-8 30-6 26-8 25 12-25 11-27 14-25 13-21 16-19 22-14 25-5 29 6 25 9 28 10 28 12 23 10 23 17 13 22-1 26-15 26-22 23-22 17-22 13-21 12-27 10-28 5-28 0-22-12"/>
<path d="M6265 6340l-5 23-6 27-5 26-2 31-1 34-2 24-3 25-4 25-4 25-4 26-5 26-5 25-6 25-5 23-7 32-7 27-8 26 11-27 11-24 13-23 17-24 18-19 24-11 27 1 29 6 24 7 26 7 26 8 25 14 16 18 3 28-10 25-17 24-22 22-19 16-22 14-23 11-23 11-24 8-26 0-25-13-17-22"/>
<path d="M7616 6670l-14-21-14-22-16-18-23-12-25 0-25 9-26 19-20 18-19 19-16 26-10 28 3 26 25 14 26 0 24-5 24-8 23-11 25-14 22-17 19-16 2 28 5 27 9 24 21 19 32 4"/>
<path d="M8603 6134l-10 23-4 29-2 30 0 26 1 30 0 35-1 25-1 26-3 29-3 30-5 30-5 30-6 29-7 28-7 26-6 26-5 24-9 32-9 27-7 23 5-29 9-26 11-25 13-22 21-24 19-18 21-15 22-11 26-8 25 0 25 5 25 11 24 15 19 17 18 18 13 24 4 25-3 28-19 23-19 15-25 16-26 15-28 14-27 10-23 7-26 4-29-5-22-12-14-22-5-24"/>
<path d="M9791 6648l 8-25-1-27-9-26-12-23-21-20-24-10-30 0-29 10-27 13-25 20-22 24-22 25-19 26-16 25-10 22-2 25 16 21 28 6 25-3 25-7 25-9 23-12 24-16 19-16 15-21 6-25 22 10 5 26 6 26 8 24 15 22 21 16 29 7"/>
<path d="M10507 6089l 17 17 4 28 2 31 0 25 0 28-3 29-2 32-4 33-5 35-4 37-7 35-6 37-7 34-8 31-7 31-6 29-7 26-6 26-9 32-8 26-9 25 1-28 12-29 17-31 18-30 21-26 21-21 21-15 22-15 26-11 24-7 25-2 30 1 28 7 23 15 17 25 2 26-5 28-5 24-9 22-11 23-17 23-19 22-23 20-21 17-22 14-28 13-28 5-28-5-24-14-18-23-9-29-1-28"/>
<path d="M11425 6556l-11-23-15-20-16-18-26-6-25 2-27 13-19 15-19 19-19 21-18 24-17 25-13 24-10 23-4 28 17 23 28 4 24-5 27-10 30-13 26-14 23-16 23-20 17-20 10-22 5-25-21 19-3 27 3 25 8 24 18 21 25 11 25 2 30-4"/>
<path d="M12013 6532l 8-23 7-25 0-26-8-23-27-7-26 3-27 9-22 11-24 14-23 16-22 19-19 21-14 20-8 24 1 25 15 19 24 9 25 3 27-3 29-6 26-9 22-10 26-15 23-17 15-21 5-24-4 27-1 28 4 26 13 24 17 20 23 16 28 8 26 0"/>
<path d="M2874 7355l-23 17-16 24-17 23-21 25-25 27-17 20-17 20-19 21-18 21-19 22-17 22-18 20-17 21-17 21-19 21-19 23-20 24-20 25-21 24-19 24-22 25-20 23-19 23-17 20-21 28-17 21-15 25-13 22 22-11"/>
<path d="M3685 7388l-16 21-13 24-13 21-17 26-20 28-13 21-15 22-14 23-14 24-15 24-14 24-15 25-13 23-12 23-11 22-15 29-15 27-13 23-13 27-10 24-11 25-13 21"/>
<path d="M3289 5576l-8 24-3 24 0 26 0 28 4 28 8 27 17 18 22-13"/>
<path d="M3330 5397l"/>
<path d="M3454 5518l 23-6 25-6"/>
<path d="M3469 5559l 26-4 26-4 25-6"/>
<path d="M3646 5371l 18-17 24-3 27 1 24 3 27 5 22 11 14 20-4 25-10 22-13 22-14 22-14 22-14 20-18 27-18 23-18 21-15 21-13 22 22 15 24-3 26-4 27-4 29-2 25-3 25-2 25 2"/>
<path d="M4316 7554l-2 25 1 28-1 30-1 24 0 24 0 27 0 29 0 30 0 31 0 25-1 26 0 28-1 28-2 27-1 26-2 24-2 30-1 27 0 26-3 24-1 30-5 26-8 25-7 23-6 24-9 25-8 23-12 23-17 21-19 17-21 15-20 16-21 16-23 15-24 13-22 12-22 13-22 11-22 10-25 8-26 8-25 5-26 3-27 3-25 3-26 0-25-1-25-1-27-2-27-3-27-3-27-5-25-8-24-10-22-12-21-18-17-19-19-20-16-23-17-23-13-20-12-21-12-22-9-23-9-26-7-25-12-23-7 28-6 25-8 26-8 27-8 26-6 25-6 27-7 24 4-27 4-30 3-25 5-27 4-27 5-26 11-22 21 17 17 16 16 19 18 21 14 20 22 11"/>
<path d="M3452 8212l 24-5 23 10 20 17 19 16 21 14 21 13 22 11-26-13-20-13-22-15-24-17-24-17-23-15-24-9-23-7-27-5 23 10 26 5 25 6 28 6 29 6 25 4 24 6 23 10"/>
<path d="M5324 7387l 12 23 2 25 6 28 4 25 8 29 7 27 5 29 4 28 7 30 6 29 2 30 2 24 2 24 1 25 1 26 2 27 0 25-2 27-3 24 0 30 0 29-2 28-3 27-3 26-7 28-8 27-10 26-13 22-11 23-17 24-20 21-20 16-21 13-22 13-27 11-24 7-28 8-31 5-31 4-26 2-25 3-30 3-28 3-28 3-26 3-26 0-25 0-24-3-29-4-25-7-27-11-23-12-21-15-19-16-21-14-21-17-19-16-22-16-23-19-21-19-19-23-17-23-19-20-15-21-12-22-15-25-10-26-13-26-10-26-8-22-7-25-7-24-6-25-8-26-2-28-4-25-7-25-6-24-4 24-3 32-5 23-5 30-3 26-5 25-3 24-4 25-1-25 1-25 1-26 1-29 3-29 7-26 6-26 8-23 16-21 16-17 27 4 18 16 21 17 21 18 22 17 22 15 21 15-11 23"/>
<path d="M6255 7173l 11 21 2 25-4 25-5 24-9 25-12 23-16 22-21 19-17 20-24 10-25 0-23-6-26-10-26-9-25-10-25-11-22-11-19-19-18-18-13-21-16-21-12-21-12-23-8-23-6-25 0-24-22 13-13 20-12 24-11 23-10 23 7-24 8-25 7-26 8-26 17-17 25 7 22 10 22 10 22 12 22 12"/>
<path d="M7360 7175l 2 27-9 24-4 24-7 26-8 23-7 26-6 23-9 24-10 23-9 28-12 25-13 22-13 24-14 23-14 24-18 22-19 23-19 21-16 19-18 18-19 16-19 16-19 16-21 14-23 17-22 15-25 15-24 14-24 14-25 12-26 10-27 9-26 8-25 6-25 4-25 4-30 4-24 0-30 2-25 1-26-1-26 0-26-2-25 0-25-3-26-2-31-3-25-3-31-4-31-7-25-6-25-7-25-6-25-6-29-9-27-9-30-7-23-9-22-9-25-13-23-17-20-20-19-20-19-19-16-22-15-23-13-22-12-23-7-24-12-25-10-22-11-25-7-23-9-24-9-27-7-26-7-25-8-24-10-23-10-23-13-20-11 28-6 28-6 26-6 27-6 28-6 26-3 24-8 23 2-27 1-27 3-30 4-29 9-25 4-28 3-24 26 8 19 18 22 13 20 15 23 8"/>
<path d="M8469 7073l-3 25 4 24-3 27-2 25-1 25 0 28 0 24 0 26-2 27-1 30-4 31-5 31-1 24-5 26-7 27-9 28-9 27-10 27-10 29-9 31-11 28-10 28-15 28-12 28-12 25-14 25-16 24-18 23-20 24-23 24-25 24-17 18-18 16-19 17-20 15-20 15-22 14-21 14-21 12-21 13-32 18-22 12-24 11-23 12-24 11-23 11-24 10-26 10-27 9-26 8-26 8-26 8-25 6-25 6-27 6-25 3-24 2-35 2-34 0-36-2-35-4-34-4-34-5-34-5-34-7-32-7-34-7-29-6-32-4-33-5-25-3-25-3-35-4-34-4-25-2-25-1-25-2-26 0-35-3-33-3-34-3-34-4-32-4-30-3-27-3-29-3-27-4-30-4-28-5-28-5-28-6-25-6-28-7-28-7-28-8-27-9-27-9-25-10-23-10-26-11-24-11-25-12-28-15-25-15-26-17-25-18-24-17-23-17-22-14-20-15-23-19-23-15-22-18-17-19-17-17-15-21-10-25-9-22-9-28-4-26-8-26-8-25-7-26-8-24-8-26-4-24-5-24-4-24-4-25-6 25-6 28-6 28-7 28-8 24-11 23-9 23-1-29 4-28 4-28 4-25 5-27 9-23 22-13 25 2 24 12 25 15 20 16 18 20 19 16 18 16"/>
<path d="M9598 7063l-7 26-2 26-2 25-6 24-5 29-2 25-4 30-2 24-3 25 1 26-3 25-2 26-4 25-3 25-3 25-5 25-4 24-8 25-4 25-4 29-7 28-7 29-9 30-6 29-4 30-7 29-7 28-9 24-8 25-8 26-9 27-9 26-10 25-11 25-12 24-11 25-14 25-13 25-14 26-12 27-14 25-15 25-16 25-16 22-17 22-16 20-20 24-18 22-19 21-19 22-16 18-19 18-18 18-19 19-20 19-20 18-22 18-22 16-25 18-25 17-25 18-25 17-28 17-28 18-29 16-30 13-32 13-32 13-33 13-31 13-32 14-34 12-23 8-32 11-24 9-25 8-25 8-27 6-27 7-27 6-28 7-28 5-28 6-28 6-26 4-29 4-28 3-27 3-28 2-27 3-28 1-29 2-29 3-30 2-31 2-29 0-33 2-32 3-33 3-32 3-34 2-34 1-34 0-36 1-34 0-34 0-36 1-36-1-35-2-36-1-34-3-36-3-37-2-35-3-39-2-37-2-37-3-36-3-36-2-36-3-36-2-37-3-35-3-35-5-35-4-33-4-35-6-34-6-32-7-35-7-31-7-32-7-30-8-30-9-29-9-27-9-28-10-27-11-25-10-26-11-24-11-23-10-23-10-22-11-22-9-22-11-31-17-28-19-27-19-25-21-22-22-19-25-20-28-19-28-17-29-17-29-15-30-14-28-15-25-12-23-11-21-14-28-10-30-9-23-8-25-10-26-6-27-5-27-4-27-2-27-2-25-2-25-5-25-3-31-3-27-5-27-1-29-4-24-4-25-5-25-6-28-3-27-3-24-6-25-5-26-8-23-15 24-14 26-12 22-15 22-16 19 9-28 10-25 13-25 11-22 11-22 12-22 24 4 21 15 19 16 17 21 16 19 17 17"/>
<path d="M10443 7108l 6 24-4 25-5 24-6 23-10 24-11 26-12 26-13 24-12 24-12 22-16 22-14 20-17 24-17 21-18 23-22 20-21 19-20 15-21 14-24 12-23 12-22 11-26 12-30 10-29 8-24 7-25 4-26 5-25 3-32 5-25 3-26 3-25 3-25 2-28 2-25 0-26 0-28 1-29 0-33 0-25 1-25 0-28-1-28 0-28-1-26-1-27 0-26-1-27-1-24-2-30-2-24-1-31-3-25-3-26-3-28-4-25-3-24-5-30-8-27-9-25-12-22-11-28-15-21-12-24-15-23-16-27-15-26-16-25-15-22-16-22-16-20-15-19-16-17-17-22-20-16-20-17-19-17-18-18-20-13-22-12-21-9-25-7-24-7-24-6-23-3-25-6-23-23 18-8 24-8 28-4 28-6 28-4 25-3 24-8-27 4-28 3-29 4-24 3-25 7-23 24-7 25 8 22 9 24 11 27 11 25 9 24 9"/>
<path d="M11190 7036l-6 24-5 24-12 23-11 26-11 27-14 22-15 21-12 25-15 22-17 22-14 21-16 19-18 17-22 18-22 17-24 17-24 17-24 14-26 13-28 12-26 13-23 11-26 11-31 9-23 8-30 9-26 7-26 5-26 4-32 6-31 5-25 3-31 2-31 1-32-3-25-1-24-2-25-4-31-6-25-6-27-6-26-8-28-7-28-7-28-8-24-9-25-9-26-9-24-10-25-11-25-10-24-13-21-13-24-13-24-11-24-12-22-12-22-11-21-11-25-17-24-18-20-16-19-16-18-20-18-20-11-22-9-23-8-23-4-25-3-25-16 19-6 27-4 26-3 24-2 24-1 27-2 25-6-28-1-29 3-25 0-25 2-27 1-26 25 0 24 13 23 8 26 6 27 4 25 2"/>
<path d="M11996 6828l 11 21-3 27-6 23-7 24-8 24-7 24-11 24-11 22-16 22-18 18-22 11-23 6-27 1-25-5-24-5-23-11-25-11-21-15-18-20-13-21-13-25-9-26-4-25-4-25-8-23-21 17-9 23-12 21-7 26 6-24 11-25 7-24 12-21 25-1 22 11 22 13 21 12"/>
<path d="M12121 9627l 23-8 6-24-25-2-18 17 14 20 20-15 28 4 27 0 28 0 27 1 25-1 28-3 26 0 30 0 32-2 33-1 24 0 26-1 25-2 28-3 29-2 30-2 32-3 32-1 33-2 30-2 33-1 31-1 31-1 32-1 31 1 30 0 31-1 29 0 28-1 25 0 34 1 34 1 31-1 32-1 28 0 28-1 26 0 30 0 26 2 25 0 25-1 31-2 28 0 27 0 28-2 26-1 18 17 24 1 20-15-21-13-16 19 14 19 22-14-9-23-20 15"/>
<path d="M11655 10036l 24 5 26-3 26-3 25-1 25 0 25-3 25 0 26-1 27-2 25 0 28 0 29-1 24-2 26 0 24-3 26-2 32-2 29-2 26 1 27-1 25-1 24-1 25-1 27-1 26-1 24 0 25 2 25 1 25 1 27-2 25 3 24 0 24-2 29-1 26 0 26 0 25 0 26-1 25 1 27-4 25-5 27-4 25-6 24-1 24-3-7 23 22 12 23-8 17-17-18-19-24 7-11 21 21 13 21-13-9-24-23-8-22 12-19 18"/>
<path d="M11091 10557l 20 13 25 2 26-5 27 0 25-2 24-1 26-2 28-2 29-1 24-2 26-2 30 0 29-1 30-3 25-2 27-2 27 0 24-1 26-3 26-2 28-3 27-1 28-2 25 1 31 0 30 0 24 0 30-2 28-1 30 1 29 0 25 0 29 0 28 0 30 0 24 0 25-4 34-3 31 3 25 0 31-1 28-1 30 1 24-1 30-2 31-2 26 0 29-3 33-2 25-1 34-3 34 0 29-2 30 2 35 0 35-3 31 0 28-2 29 1 27-2 29-3 29-1 28-3 27 0 27-2 24-1 29-1 29 0 29-4 27-3 26 2 29-2 26-4 24-3 24-2 30-4 29-3 28 0 29 1 31-2 31-1 28-1 24 0 26-1 32 0 30 0 25-2 27-1 25-1 26 0 31-2 31 0 28 0 25-2 28-1 25-2 25-1 25-1 25 1 24-3 24-3 24-5 13 20 24 6 9-22-19-17-19 18-4 24 24 7 16-18-7-23-25 8"/>
<path d="M10431 11083l 25 1 25-1 26-1 26 1 27-2 26-6 25-5 28-3 25-4 25-6 25 1 28-1 27 0 25-1 26 2-20 14 20 13 12-22-18-19-25 6-15 19-3 25 21 12 21-13 5-25-13-21-10 25"/>
</svg>
