<svg xmlns="http://www.w3.org/2000/svg" viewBox="1584 5018 15072 14835" stroke="black" stroke-width="19" stroke-linecap="round" stroke-linejoin="round" fill="none" data-xena="-3 -1 0"><style>@media(prefers-color-scheme:dark){svg{background-color:black;stroke:white;}}</style>
<path d="M15353 14627l-2-6-6-27-2-26 20-21 22-10 24-7 31-4 26-1 27-2 27 2 24 1 29 3 25 9 19 18 8 27-3 27-11 28-12 21-14 20-16 19-18 18-22 19-22 15-21 13 27-8 24-5 27-4 28-4 26-1 27 3 26 8 14 20 0 28-9 28-12 21-16 22-18 20-19 21-21 20-23 17-24 14-24 10-24 8-31 1-24-3-20-13"/>
<path d="M13501 14456l-2-2 6 29 6 25 5 27 5 31 5 34 3 24 4 24 4 26 3 25 4 26 4 25 4 24 4 33 3 25 5 27"/>
<path d="M13518 14431l-1-1 15-22 27-16 29-13 25-8 27-9 26-5 26-6 24-2 28 1 23 9 18 20 1 25-8 26-16 24-21 25-16 19-16 19-17 22-13 20 25-5 26-13 24-8 25-7 28 0 28 1 29-1 28 3 26 10 26 12 18 18 10 24 1 25-4 30-9 31-15 26-19 24-16 17-26 17-22 10-24 7-24 2-24 2-26-2-25-4-23-7-27-8-22-12-19-18"/>
<path d="M16161 15408l 0-2-6 29 1 29 3 24 1 26 3 30 0 34 0 33 0 24 0 35 0 25-1 33-1 32-1 25-1 27"/>
<path d="M16132 15440l-2-2 18-18 27-10 24-6 26-6 25-4 25-2 30 0 26 2 26 9 18 17 5 25-5 25-12 23-14 23-16 25-18 23-19 24-18 25-16 23 25-4 29-9 27-7 30-6 29-1 29 3 25 8 24 11 22 13 9 24 0 26-6 29-8 27-11 27-14 27-17 22-20 18-25 17-27 8-30 3-30 0-30-2-28-5-28-6"/>
<path d="M14546 15935l-2 0 8-27 11-26 7-24 11-31 11-34 9-25 8-24 7-26 7-25 6-26 6-27 3-28 3-27 3-26 1-33 1-24-1-27 16 18 12 29 11 23 12 27 12 28 14 31 13 29 12 30 13 29 12 29 12 28 11 27 10 23 11 23 10 22"/>
<path d="M14611 15755l 0-2 15-19 25-7 24-5 25-2 28 2"/>
<path d="M15531 13684l 0-2-23-9-23 7-19 15-22 16-17 20-16 19-16 23-14 21-11 26-12 28-6 23-3 27-1 29 3 26 10 26 12 22 16 20 19 19 24 8 24 3 24-2 28-4 28-10 22-9 29-13 27-13"/>
<path d="M16191 14474l-2-1-18 16 1 29 1 27 2 27 2 35 0 25 0 25-1 25-2 25-1 28-2 27-2 27-1 27-2 24-2 35-2 29-1 28 3 24 10-28 5-26"/>
<path d="M16141 14559l-1-2 7-24 23-9 28-5 29-3 25 0 29 1 32 3 32 2 29 4 28 5 26 8 26 8 22 10 22 18 17 25 10 28 6 28 1 25-2 27-5 29-8 29-9 29-13 29-13 28-15 23-17 21-19 20-20 16-28 12-31 7-25-1-24-5-30-7-22-10-25-15-20-15"/>
<path d="M13868 13695l-2-1-24-7-28 1-23 9-25 13-19 16-19 18-19 24-14 20-13 24-12 28-11 28-9 31-6 28-5 32 3 31 6 28 15 22 21 19 27 18 24 10 28 8 32 6 36 4 26 1"/>
<path d="M14440 14628l-2-1 4 28 6 24 8 25 7 29 6 24 6 28 4 28 4 28 2 31 0 34 0 33 0 25 0 25 13-25"/>
<path d="M14449 14574l-2-3 20-14 30-2 26-1 28 1 29-2 28-2 28 2 27 2 25 7 22 10 21 16 19 22 13 25 6 28 2 25-2 26-6 24-8 28-11 27-14 29-16 28-19 29-20 24-22 22-22 15-25 13-26 7-26 6-24 2-29-3-26-9"/>
<path d="M15308 15485l 0-1 5 26 5 27 4 28 6 33 5 35 4 32 4 36 3 24 3 24 3 35 4 30 5 30 3 24"/>
<path d="M15304 15510l 0-2 9-23 24-8 28-3 28 0 32 0 26 4 28 5 27 7 26 7 23 12 25 18 19 24 12 23 9 22 4 28 2 25-1 26-4 24-6 26-10 25-12 25-14 26-18 26-21 25-25 23-27 17-29 14-29 7-27 2-25-4-22-10-25-20-16-26"/>
<path d="M13745 15446l-2-1-24 6-20 15-18 16-20 19-15 20-15 21-16 27-16 29-15 28-15 28-13 29-12 30-10 31-8 31-4 32-1 31 1 25 9 29 12 22 16 21 17 20 21 15 22 11 26 10 27 6 31 3 32 3 36-7 25-8 25-9 27-13 27-13 28-14"/>
<path d="M15338 14651l-1-2 2-26 7-24 3 28 1 29 2 30 3 31 5 29 3 25 4 26 4 26 4 31 5 27 5 29 6 27 6 25 6 24-8-27-5-24-5-29-4-25-4-26-4-28-3-25-4-29-4-26-10 22 2 27 4 28 6 23 4 25 5 24 4 26 2 27 4 26"/>
<path d="M8316 17547l 0-2 20 15 9 32 4 31 4 37 2 26 0 28 1 27 1 27 1 27 0 25 2 25 1 31 3 28 1 24 3 26"/>
<path d="M8331 17597l-2-4-10-23-4-24 3-24 18-17 25-9 27-6 23-5 28-6 28-5 26-3 30 2 27 4 23 8 22 11 24 13 18 19 17 25 16 26 12 29 10 31 3 25-3 28-3 31-3 30-7 30-10 30-14 29-13 30-14 28-18 25-20 22-21 20-22 16-25 10-24 8-26 9-28 5-25-3-16-20"/>
<path d="M9039 17550l 0-2-10 22 1 26 2 30 1 27 2 29 0 32 0 34-1 35-1 34 0 31-1 27-1 30-2 25"/>
<path d="M8986 17536l-1-2 9-25 25-7 30-6 26-4 28-1 28-3 28-1 26 4 25 8 20 16 4 26 2 27-5 24-12 24-19 23-18 20-20 16-20 16-20 15 25-6 25-3 28-2 31 1 26-2 28 2 24 8 22 11 16 17 9 24 3 29-4 26-8 27-10 28-15 26-13 20-20 23-24 17-29 10-30 5-25-1-27-3-28-9-23-12"/>
<path d="M9869 17578l 0-1 2 28 2 29 0 29 0 35 0 26 2 28 1 29-1 30-1 30-3 29 0 25 3 34 6 25 4 24"/>
<path d="M9835 17563l-1-2 2-25 17-18 26-13 23-7 31-9 32-4 29 3 29 2 29 3 28 6 31 5 25 10 22 11 19 16 22 20 17 20 9 26 2 26-5 25-7 29-11 31-14 31-9 24-14 29-15 30-20 25-22 24-22 20-24 16-23 11-30 9-26 5-28 0-24-8"/>
<path d="M10696 17544l-2-2 6 28 1 31 2 28 1 31 3 32 1 34 2 32 1 34 2 33 1 30 1 27 1 29"/>
<path d="M10690 17547l-2-5 4-26 17-19 22-15 25-13 31-11 24-1 24 3 28 8 28 10 24 13 19 19 6 27-8 23-17 20-20 22-22 22-20 15-20 15-24 19-19 15-20 15 28 4 25-3 25-4 28-2 28 2 28-2 26-2 30 0 26 5 22 10 18 17 0 27-7 28-12 25-17 27-13 20-18 21-21 19-24 16-23 12-24 10-23 6-31 3-26-3-23-10-20-12-19-19"/>
<path d="M8362 18851l-1 2-12 21 18-24 15-25 14-25 13-29 11-22 10-23 9-23 9-25 9-24 7-23 6-25 5-23 3-24 1-25 3-37 3-32 2-25 5-26 22 12 12 27 10 24 8 26 11 29 10 30 11 32 10 32 9 33 9 30 9 26 9 24 11 23 9 24 9 23"/>
<path d="M8448 18685l-2-2 16-20 28-5 31-4 32-2 26-3 27-6 29-7 34-6"/>
<path d="M9179 18503l-2-1-20-16-24-10-26 7-23 19-17 19-17 19-15 24-16 25-11 29-10 27-7 27-5 29-5 25-2 27 2 25 6 26 9 24 16 25 22 22 19 17 24 10 27 7 33 1 25 0 28-3 26-4 27-5 25-6 26-7"/>
<path d="M9892 18836l-2-3-5-24 4-25 5-24 9-27 9-27 9-28 10-28 10-31 8-35 6-34 4-32 3-32-1-34 1-29-2-27 0-27 0-25 22 10 14 28 13 31 16 34 11 25 10 22 10 26 8 25 10 22 10 26 8 23 11 22 7 25 13 31 11 28 10 26 10 29 7 23"/>
<path d="M9927 18685l-2-1 7-26 20-13 28-12 27-7 31-5 25-2 27-1 29-1"/>
<path d="M10887 18419l 0-2-18-15-25-3-26 7-22 14-20 14-21 21-14 20-15 23-14 21-13 26-13 29-6 25-1 24 0 30 7 27 10 24 13 23 18 24 24 16 24 13 26 9 31 6 30 0 30-2 24-4 24-6 25-8 23-10 25-16 24-14 23-16"/>
<path d="M8408 19273l 2-2 7 23-1 29 0 30 0 25-1 29 1 33-1 25-2 35-3 31-1 32-3 28 1 26-1 28 1 27"/>
<path d="M8377 19286l-2-2 13-22 23-15 24-9 25-3 25-2 30-1 24 2 28 4 25 6 28 7 26 10 26 15 19 17 15 23 7 27 5 25 1 29 0 33-5 36-6 34-11 32-13 31-18 28-18 27-17 25-20 21-23 18-23 18-24 11-31 11-25 3-24 0-26-6-28-10-21-14"/>
<path d="M9229 19302l-2-1 7 24 3 25 3 27 3 33 3 26 0 27 3 26 0 26 2 29-1 31 1 26-2 26"/>
<path d="M9224 19251l-1-3 13-22 22-17 27-11 23-6 24-2 25 0 25 3 25 9 22 12 6 25-10 23-14 23-17 25-20 21-21 19-23 18-20 19-17 17 24-8 25-3 26-4 26-5 28-3 28-5 28-2 28 2 27 6 21 14 14 21 10 23 3 28-3 29-7 28-8 27-15 25-19 16-19 19-26 10-31 5-29 4-30-1-30 0-26 0-27-2-22-12-7-25"/>
<path d="M10247 19274l 0-3-2-25-7-24-20-15-24 6-20 16-22 22-16 19-14 24-10 22-10 29-9 25-7 28-3 30-3 29 0 30 3 26 3 25 10 27 12 21 19 20 19 16 22 9 27 4 26-8 27-8 24-4 25-7 23-10 21-13 23-14 22-14 23-9"/>
<path d="M10757 19608l 0 0 27-5 16-18 16-25 14-22 13-22 14-34 7-23 9-27 8-26 9-27 7-29 6-28 5-27 5-28 3-27 2-30 3-27 3-28 2-27 4-28 5-27 17 25 9 22 10 30 12 33 12 36 10 22 10 25 13 25 11 24 12 23 11 21 16 26 18 26 15 27 13 27 9 23 13 24 13 22 12 23"/>
<path d="M10912 19392l-1 0 24-11 25-9 28-7 29-5 24-4 27-7 25-3"/>
<path d="M3181 6908l-1-1 11-22 19-20 21-15 22-11 26-9 25-5 25-1 25 2 22 13 2 25-14 24-19 23-18 18-18 16-23 20-20 16-18 17-25 8 22-13 24-9 27-9 29-9 28-4 27-3 25 3 24 4 25 12 22 17 16 18 9 24 0 26-6 26-13 23-14 23-14 23-19 19-23 19-24 12-24 7-24 1-25-8-24-11"/>
<path d="M5607 6997l-1 2-3 26 3 24 5 27 5 29 5 27 3 26 4 25 2 28 2 29 1 24 1 31 4 24"/>
<path d="M5582 6990l 0-2 10-24 16-18 19-16 24-10 28-6 28-1 29-1 28 5 25 7 23 9 22 11 18 18 0 24-13 26-15 19-19 17-18 16-23 16-22 11-23 10 8-25 23-7 26-9 29-3 28-3 28-2 28 6 22 10 23 14 17 23 7 25 3 25-5 28-7 24-11 28-15 22-21 21-22 15-23 12-25 9-24 6-30 1-28-2-26-6-22-9-17-18"/>
<path d="M6182 7266l-2-3 9-24 15-24 13-27 13-28 9-24 10-25 9-25 9-26 8-27 8-28 10-31 7-32 6-27 6-25 8-26 9-24 22 13 7 24 7 25 6 23 4 25 5 27 6 28 7 28 9 25 8 26 8 23 9 23 10 24 11 22 15 20 16 19 17 18"/>
<path d="M6279 7149l 0-1 23-10 24 0 27 0 25-1"/>
<path d="M5626 7951l 0-1 5-25 9-28 9-26 10-26 8-24 6-24 6-24 7-28 7-29 7-29 6-31 5-27 4-25 7-26 8-24 22 13 15 26 12 26 13 29 13 30 8 24 8 23 6 24 10 30 12 25 10 23 12 26 13 22 13 21"/>
<path d="M5685 7810l-1 2 25-10 26-7 28-5 25-4 26-7 23-10"/>
<path d="M2351 9566l 0-3 5-27 9-24 8-24 8-28 9-27 6-23 10-26 9-26 9-28 8-29 8-27 6-25 6-29 4-25 2-24 4-25 1 28 4 26 5 24 6 25 8 26 8 29 9 29 10 32 11 31 10 32 12 30 13 29 12 25 13 24 12 23 13 23 15 21 17 17"/>
<path d="M2367 9493l-2-1 11-22 24-12 26-8 24-5 28-5 25-3 25-3 30-2"/>
<path d="M1884 9963l 1-1 0 28 2 31 3 24 4 26 2 25 2 28 1 25 2 24 5 29 2 27 5 25 7 24"/>
<path d="M1870 10011l-1-5-1-25 3-25 4-28 9-23 17-20 22-15 23-8 22-9 28-6 27-3 29 3 23 8 19 17 5 25-6 28-11 27-13 26-14 26-15 27-14 22-18 22-18 16 28-5 24-8 26-8 28-4 26 0 26 4 23 10 22 18 13 21 6 23 0 26-7 26-7 24-10 25-12 22-19 25-20 23-22 15-25 10-25 9-25 0-27-9-25-11-23-18-15-22"/>
<path d="M3024 9907l-2 0-25-7-24 8-22 13-22 16-19 20-15 20-13 25-10 28-9 25-6 30-2 26 3 27 11 26 17 20 21 14 22 9 26 7 24 6 25-1 25-6 26-8 26-11 26-10 25-13"/>
<path d="M2398 10739l 0-1 5 28 4 29 2 31 2 24 5 27 2 26 0 26 3 26 3 27 4 30 5 25 6 25"/>
<path d="M2398 10729l-1-3 3-27 10-23 16-23 20-19 26-13 23-9 23-9 28-9 28 1 25 0 26 2 24 12 21 12 20 13 19 20 16 23 9 23 6 28 1 24-1 25-5 28-6 29-7 27-8 28-8 24-10 24-13 27-17 24-19 19-20 17-25 12-26 2-27 2-24 2-28-5-22-10"/>
<path d="M4584 9466l 1-3 10-27 10-25 12-30 11-23 11-26 12-27 11-30 11-32 8-34 4-24 5-24 7-35 5-29 4-30 4-27 7 28 3 29 6 24 6 25 10 30 6 25 9 26 7 25 9 25 7 25 7 23 8 30 6 28 6 24 10 26"/>
<path d="M4631 9309l-1-1 23-8 28-4 24-4 26-3 24-4"/>
<path d="M5160 9461l-1 0 18-20 16-22 17-25 14-22 15-26 17-30 12-21 12-22 10-23 11-22 10-22 13-33 11-32 10-30 7-26 7-25 8-25 9-25 21 19 8 29 6 24 7 28 6 28 6 28 7 28 8 25 7 26 7 27 7 28 7 24 7 29 8 25 8 26 11 22"/>
<path d="M5315 9324l 0-1 17-16 24-10 23-10 27-8"/>
<path d="M5969 9446l-1 0 9-23 13-27 12-24 12-29 13-26 13-30 14-33 9-23 8-24 8-23 7-26 6-25 6-25 6-25 8-32 8-28 10-29 9-27 18 19 4 29 3 25 2 27 2 25 3 28 2 27 4 26 3 25 5 30 5 26 6 29 8 25 11 23"/>
<path d="M6088 9238l-1 1 26-1 24-6 24-4 29-6"/>
<path d="M6507 9405l 0 2 16-22 14-24 15-24 13-22 13-25 13-27 14-29 15-31 10-24 8-25 9-22 8-24 11-32 11-31 8-28 8-29 9-25 19 20 5 27 4 31 6 35 6 34 4 25 5 24 8 35 9 33 9 33 7 31 9 27 9 28 13 26 11 23 11 21 15 20"/>
<path d="M6655 9237l 0-1 23-10 25-5 27-1 26-1 25 0"/>
<path d="M1709 6752l-2 0 10-23 10-25 15-27 11-25 12-30 10-21 10-23 10-24 9-24 9-25 8-24 7-26 6-24 6-25 5-27 3-25 3-26 3-34 1-26 1-26 7 25 7 25 3 32 6 25 3 24 6 26 7 25 4 25 6 25 6 25 6 27 6 25 7 27 5 25 7 24 10 34 12 33 11 27 10 22 11 23 11 23"/>
<path d="M1765 6664l-2-1 19-19 24-11 26-8 25-6 24-5 29-5"/>
<path d="M2195 6763l-1-1 7-24 11-22 9-23 9-26 13-30 15-29 13-33 10-32 9-34 5-34 5-35 1-35 0-26 0-24 1-34 2-28 0-25 6 27 5 24 6 28 10 32 10 30 11 30 8 29 11 30 10 26 12 28 13 24 11 23 11 22 12 25 13 22 8 23"/>
<path d="M2262 6654l 1 0 23-6 28-6 28-9 28-11 25-8 28-9"/>
<path d="M2647 6699l-1-1 0-25 11-23 12-27 11-23 12-27 12-29 11-31 11-33 7-24 6-25 5-25 3-27 4-25 1-25 3-34 0-29 3-31 2-24-2 27 3 25 6 29 7 32 10 33 9 34 10 32 10 30 10 30 11 29 10 26 8 24 12 29 9 24 10 22"/>
<path d="M2718 6589l 0-1 24-10 26-6 25-3 26-3"/>
<path d="M2191 5986l-2 0 10-24 13-25 10-23 9-25 10-28 8-30 9-28 8-28 7-24 4-26 4-28 3-27 9 27 8 29 7 24 13 28 12 27 14 25 14 26 10 25 12 21 13 23 12 21 14 20"/>
<path d="M2256 5871l-1-1 16-19 27-8 28-2 27 0"/>
<path d="M2258 7279l-1 0 2-26 7-27 6-28 4-24 5-25 7-28 6-30 6-30 4-28 3-31 5-29 7-26 21 20 13 22 11 29 9 26 10 24 14 27 12 28 15 27 12 23 14 26 13 23 19 16"/>
<path d="M2325 7153l 0-1 23-12 23-7 27-4 24-1"/>
<path d="M5068 6264l 0-1 2 27 1 25 0 31 0 31 2 32 3 24 3 31 3 29 3 25 6 25"/>
<path d="M5065 6292l 0-3-2-25 16-18 25-12 27-5 28 2 28 2 29 5 26 10 24 10 17 19-4 26-15 20-16 21-19 20-25 17-25 15-25 14-25 12-21 14 24-13 23-11 26-10 27-8 27-3 26-1 24 3 24 6 23 8 19 15 9 25-5 25-11 23-15 25-15 21-20 21-22 16-24 12-24 6-29 4-30-1-26-4-26-7-12-23"/>
<path d="M5177 5723l 0-1-21-13-25 1-26 5-23 9-21 13-18 19-15 19-15 24-12 26-13 28-9 29-7 30-3 30 1 27 6 24 10 24 15 20 21 18 25 9 25-4 26-11 22-14 24-16 22-15 22-14 25-14 24-13"/>
<path d="M4673 6322l 0-2-8-23-24-8-23 9-21 15-19 18-16 22-15 21-13 26-11 27-9 31-5 24-3 26-2 24 2 30 3 31 7 27 9 22 12 25 18 22 20 15 24 9 26 1 28-6 26-11 23-13 26-18 26-17 27-15 25-11"/>
<path d="M5732 6212l-2-2-11-21-22-16-24 0-26 12-23 14-19 18-20 23-16 19-15 23-14 25-10 25-9 25-6 26-3 26 0 25 5 31 10 26 16 26 16 19 20 15 23 12 23 6 28 5 24 4 26-2 29-7 30-8 30-9 26-9"/>
<path d="M5275 7010l-2-2-21-12-24-5-26 4-23 8-24 10-21 13-21 14-21 17-17 18-18 23-15 23-11 25-6 25-4 24-3 24 3 26 7 25 11 23 16 18 18 19 25 9 24 8 25 2 25 1 26 1 25-5 23-8 24-10 22-12 25-4 22-10 25 0"/>
<path d="M2730 7328l-1 0 12-27 12-27 10-27 9-24 10-25 9-24 9-24 7-25 8-24 8-29 9-27 8-30 7-28 9-25 10-27 9-25 12-24 20 19 6 23 6 27 5 25 7 25 7 27 8 24 8 26 10 26 10 26 10 22 11 22 13 22 11 21 13 23 12 23"/>
<path d="M2825 7177l 0 2 22-14 24-5 26-3 26-3"/>
<path d="M2769 7592l-1 0 2 24 2 24 0 27 2 27 0 27-2 28 3 26 1 26 1 25 3 25 4 25"/>
<path d="M2744 7610l-1 0-1-25 9-23 12-23 20-16 25-12 25-12 27-10 27-7 24-3 25 4 23 6 19 15 1 26-6 24-11 22-17 23-19 22-16 19-23 17-21 17-24 14-23 9 3-24 23-14 25-9 25-8 25-7 28-5 25 2 29 3 24 10 19 20 11 21 5 28 0 29-9 28-10 25-10 28-19 25-20 19-20 16-21 13-28 14-23 11-26 6-26 1-28-1-26-6-24-12-13-24"/>
<path d="M3213 6924l-1-1-5 28 7 26 7 27 5 27 5 25 4 25 5 29 3 30 0 27 2 29 1 26"/>
<path d="M5461 11150l 0 0 20-18 10-24 9-25 6-23 10-27 10-31 8-22 8-25 7-28 7-27 7-29 7-27 7-26 7-26 6-24 5-24 6-31 5-25 3-25 7 32 3 27 7 34 7 33 9 35 5 25 7 24 7 25 12 35 8 24 9 23 8 23 8 24 10 31 11 24 14 28 12 22 16 20"/>
<path d="M5531 11032l-1 0 24-14 29-7 24-7 27-11 23-9 27-8 25-7"/>
<path d="M6072 11819l 0 1 1 26 19-20 10-23 9-29 12-31 9-25 9-29 9-27 8-28 9-29 6-26 7-28 6-26 5-24 5-33 4-28 2-25 1-26 10 29 7 30 11 35 7 25 8 27 9 25 10 26 11 26 11 23 12 25 12 23 12 21 11 21 17 26 15 21 20 21 16 18 18 19"/>
<path d="M6148 11778l 0-1 15-22 21-16 26-11 26-8 29-8 29-9 29-7"/>
<path d="M4812 11949l-1-1 11-26 5-26 5-24 6-30 8-32 10-35 7-24 7-26 6-27 6-25 5-28 5-25 7-35 5-30 3-29 5-25 8 23 6 25 6 29 10 30 12 28 13 31 14 32 14 27 14 25 12 22 11 21 16 25 15 21 11 21 13 21"/>
<path d="M4797 11818l 0-1 24-11 28-8 28-7 25-6 25-6"/>
<path d="M5452 12708l-2-2-3-26 10-24 9-23 9-26 11-32 12-34 9-26 9-27 9-28 8-28 8-30 7-28 5-30 7-28 4-26 3-26 4-31 1-24-1-26 11 24 8 26 11 30 14 33 10 23 10 24 10 23 11 22 10 23 17 30 16 28 14 22 16 22 18 27 13 21 15 20 11 22"/>
<path d="M5522 12523l 0-1 17-17 20-13 22-13 27-11 28-10 26-8"/>
<path d="M5503 11877l-1 0 1-26 4-26 6-25 5-26 6-28 8-33 8-34 5-23 6-24 7-32 7-31 5-28 3-24 4-24 1-24 5 24 6 26 6 23 6 24 8 26 8 26 9 25 10 26 9 26 11 26 13 24 10 23 13 26 12 24 11 23 15 22"/>
<path d="M5546 11711l-1 0 24-9 28-7 31-4 27-3"/>
<path d="M7183 11531l 0 1 26 9 27 4 29 3 25 2 26-2 28-4 27-2 29 0 28-2 26-2 24-5 28-4 25-9"/>
<path d="M7437 11457l-1-1 18 17 21 14 20 15 18 19 10 22-13 24-16 19-16 20"/>
<path d="M8724 11322l 0-1 21-16 27-6 28-3 25-4 24-5 24 3 21 12-4 24-11 25-15 24-17 28-14 27-12 25-8 25-4 26 1 24"/>
<path d="M8859 11643l-2 0"/>
<path d="M8326 11523l-2-2-2-25 16-20 21-12 28-2"/>
<path d="M9462 11444l 0 0"/>
<path d="M8878 10780l-2-2-21-12-25-3 21 13"/>
<path d="M8930 12171l-2 0"/>
<path d="M8347 11535l-1-1-23-8 22-12-12-21 5 23"/>
<path d="M4310 14494l-3 0 10-23 22-11 26-8 26-4 25 1 24 6 12 22 2 27-3 24-6 28-5 27-6 28-4 25-1 29 0 29 1 25 2 29 6 27 10 24"/>
<path d="M4475 14953l 0 0"/>
<path d="M5328 10069l-1-1 4 28 4 31 3 25 2 28 4 28 4 26 5 27 5 24 5 24 6 30 4 27 6 29 10 22"/>
<path d="M5322 10082l-1-3 3-26 10-22 22-14 26-5 29-1 24 1 29 3 27 6 23 10 17 18 1 25-11 22-18 19-21 19-24 18-25 17-20 15-22 15 27 0 27-6 26-4 26-2 25 1 26 1 25 4 26 8 22 12 11 23-5 26-10 22-17 24-17 19-19 18-22 16-22 14-24 10-24 8-24 6-28 5-27-7-13-20"/>
<path d="M6068 10654l 0 1 2 26 6 30 4 25 5 28 6 29 7 32 5 31 4 31 4 31 4 30 5 26 3 25 2 31 1 25 3 27"/>
<path d="M6076 10716l 0-2 5-26 13-25 20-21 26-15 23-6 25-6 25-3 24 2 27 1 23 5 18 20 0 27-9 26-12 21-13 22-15 21-16 20-22 21-21 17-19 17 24-7 25-12 29-8 27-3 26-6 25-2 26-1 23 9 14 21-2 26-11 23-13 24-15 22-16 24-22 22-22 22-24 19-23 14-23 11-28 9-25 6-24 0-21-14"/>
<path d="M6870 11413l-1-2-24 0-26 11-19 14-21 20-15 21-13 25-8 31-3 25-2 28 1 26 2 25 8 29 10 23 17 18 26 8 26 2 23-8 24-5 26-2 25-6 28-6"/>
<path d="M5497 13058l-1-1 12 21 7 28 5 25 4 27 4 28 5 30 3 30 3 30 4 25 6 26 6 23 8 24"/>
<path d="M5464 13073l-1-2 9-22 18-17 20-13 27-9 26-7 26-8 27-3 26-4 26 1 25 6 25 7 25 9 23 17 16 21 10 24 3 29-1 26-3 26-6 27-11 28-15 27-18 26-19 22-22 20-23 19-21 14-26 9-24 6-25 0"/>
<path d="M4810 12337l 0-1 5 24 8 29 7 24 9 32 7 27 9 29 9 27 7 26 5 25 6 24 7 29 4 30 2 25"/>
<path d="M4803 12314l 0-2 8-23 15-22 21-14 26-8 28-4 25 0 26 2 28 4 27 5 26 5 28 5 25 9 21 13 19 17 16 18 14 23 7 27 2 27 1 26-2 29-7 27-9 25-10 24-14 25-15 21-17 20-19 16-21 16-23 15-25 5"/>
<path d="M4131 11640l 0 1 1 28 1 27 0 25 3 24 2 25 1 32 3 25 1 27 2 28 3 28 2 26 2 29 2 28"/>
<path d="M4113 11616l 0-4-2-26 19-18 24-8 26-5 28-4 31 1 24 1 25 2 24 6 24 7 23 10 23 13 22 18 18 19 16 22 12 25 11 26 5 27 3 26-2 25-2 26-6 25-7 25-11 24-14 23-14 21-20 22-21 21-26 15-27 9-29 5-26 2"/>
<path d="M4353 15412l-1 1 22 10 9 26 4 24 2 31 2 25 1 30 3 30 3 31 2 31 4 30 4 26 3 30 3 28 3 29 3 29-1 27"/>
<path d="M4380 15440l-1-1 14-22 23-13 22-10 28-11 25-4 25-4 28-4 29 4 30 9 27 12 26 14 22 16 19 16 18 17 12 21 7 26 5 32 0 28-2 32-6 31-7 28-9 30-11 32-10 29-12 27-12 23-14 21-18 24-20 19-21 14-25 9-29 4-24-2-25-7-22-16"/>
<path d="M4196 13700l-2-1 7 27 9 26 7 25 9 31 8 32 9 33 8 33 6 34 6 33 5 30 4 27 4 26 3 27"/>
<path d="M4197 13696l 2-3 7-25 17-18 23-10 24-5 28-1 23 6 29 8 27 5 24 11 18 21-1 28-10 22-13 26-15 20-15 19-20 18-22 16 19-15 24-8 28-6 23-5 25-3 28 1 28-1 24 4 23 9 13 25 3 25-3 28-5 25-7 27-9 27-10 23-11 23-16 19-24 17-24 15-25 8-25 2-25-1-25-7-25-15-20-14"/>
<path d="M6114 12296l-1-1 9 25 8 25 4 26 5 29 5 28 6 29 3 25 3 28 2 30-1 24-1 24"/>
<path d="M6103 12314l-1-2-3-25 16-22 19-15 21-12 25-8 24-4 27 1 29-1 26-1 25 3 26 5 24 10 21 13 20 21 18 22 13 23 8 30 1 26-3 25-6 26-7 30-10 30-13 26-15 23-16 18-18 17-25 17-28 11-27 6-24 2-25-4-24-6"/>
<path d="M4865 10824l-2-1-22-8-24 8-22 17-19 20-20 22-14 20-16 23-11 22-10 24-9 25-7 28-4 26-3 26-1 31 5 23 14 25 22 15 22 10 25 6 25 8 26 2 28 0 28-4 30-8 29-9 22-12 22-9 30-13 22-13 22-13"/>
<path d="M3683 14532l-3-2-23-12-25-5-24 3-27 8-24 13-22 14-17 17-20 19-18 23-16 25-14 28-12 28-10 29-4 30-3 33 0 35 1 33 4 33 7 30 9 23 15 27 19 22 21 18 24 16 26 11 24 8 23 8 30 1 23-6 30-5 27-10 27-10 26-14 25-14 24-12"/>
<path d="M5097 14435l 3-1 24 6 6 24 5 30 5 28 5 24 4 28 6 31 3 29 5 34 4 34 5 37 5 33 4 34 4 28 5 27 5 28 6 23"/>
<path d="M5106 14425l-1-2 24-13 26-9 26-8 27-5 28-6 27-5 26-2 25 2 27 9 19 16 10 21 0 26-5 27-8 25-11 27-13 23-13 25-14 25-17 23-19 20-20 14 19-19 22-10 26-6 30-5 29 2 27 3 24 5 24 8 25 12 20 13 14 20 9 26 1 28-3 26-7 24-10 22-16 25-23 18-23 11-24 6-25 3-28-1-26-3-27-5-22-8"/>
<path d="M9128 5526l 0-2 23-9-3 28 5 25 15-25 10-31 7-27 7-31 6-36 3-25 3-26 3-27 2-26 2-27 3-26 3-35 4-30 4-29 1-26 22 21 6 28 7 35 5 25 4 26 5 27 4 28 5 30 5 29 5 31 6 29 5 29 6 29 6 26 7 25 7 23 11 33 9 28 9 24 8 25 11 22"/>
<path d="M9178 5521l 0-1 14-20 26-15 24-9 27-12 29-12 23-9 25-8 26-9 26-6"/>
<path d="M9954 5177l-2-1-6 29 3 30 1 27 2 30 3 33 2 24 2 37 0 26 0 26 1 28 1 25 1 25 3 31 3 28 9 26 25-2"/>
<path d="M9970 5218l-2-4 20-19 24 0 31 0 26 0 31 1 30 3 27 3 24 6 25 11 20 18 5 26-7 25-16 22-17 17-18 18-20 18-20 17-21 19-18 17 24 6 27-2 29-1 29 3 26 3 25 10 20 17 6 27-8 25-13 22-18 24-17 19-19 14-22 15-24 12-26 13-26 6-25 6-25 1-26-1"/>
<path d="M9571 5408l 0-2 25-10 26 0 30-2 28-1 30-1 28-1 27-4 25-5 24-9"/>
<path d="M9771 5318l-3-1-24-5 21-11 25 2 25 8 24 12 21 14 18 18 5 24-10 22-18 22-19 17-20 16-22 16-21 10"/>
<path d="M9605 5304l 0-2-14 22-14 22-17 23-16 21-16 17-6 23 19 19 19 16 21 14 22 11 22 12 28 11"/>
<path d="M9265 6239l-1-3-6-24-21-12-26-3-24 9-23 18-20 21-15 20-16 26-10 21-9 24-9 24-5 24-4 33 3 33 7 26 13 27 17 20 20 15 24 11 29 10 30 6 30 3 29 3 29 0 31 0 32-4 30-8 31-11"/>
<path d="M9505 6402l-1-1 24-15 23-11 28-9 24-6 25-6 28-7 25-4 24-2 26-3 25-2 25 1 23 7-26-9-25-7-24-9 26 0 22 11 24 11 24 10 23 10 22 14 17 18-20 17-25 4-25 2-25 1"/>
<path d="M9553 6302l 0-1-26 0-22 12-20 18-21 19-21 19-15 19 5 25 25 12 28 7 28 3 28 0 28 5 25 5 25 13"/>
<path d="M10045 6239l 0 0 0 27 5 28 6 30 6 26 5 25 4 26 4 29 3 29 3 25 1 26 6 25 12-26 1-24-1-29-4-29-5-30-5-31-7-29-7-26-7-24-7-27-6-24-1-24 26 2 29 7 29 6 25 4 26 4 26 4 27 5 25 8 23 7 27 12 22 15 17 20 5 27-8 26-13 22-19 22-21 22-23 20-21 19-23 17-23 16-23 11-23 11-28 10-28 9"/>
<path d="M9230 5838l-2 1-3 28 0 28 1 26 3 29 3 28 5 28 4 28 4 25 4 26"/>
<path d="M10161 5730l-1-1 2 28 2 27 4 32 2 27 4 28 3 29 1 28 3 27 2 24 5 27 6 24"/>
<path d="M8317 14547l-2-4-3-29 5-28 7-28 10-34 9-26 10-30 13-32 13-33 15-35 14-35 14-37 13-37 13-38 13-36 11-35 11-30 10-27 11-33 9-26 8 29 0 28 2 34 5 35 5 26 10 35 9 25 9 23 10 24 11 22 16 31 10 22 14 29 13 29 12 24 12 21 11 21"/>
<path d="M8433 14280l-2 1 25-4 29-9 31-9 27-9 29-9"/>
<path d="M9127 14408l-2-1 0-25 7-23 9-31 9-24 10-29 12-32 10-23 10-23 11-26 10-28 9-29 10-30 9-28 7-26 11-33 8-26 9-29 18 24 9 25 8 29 10 30 11 35 8 25 9 26 9 24 9 22 14 31 12 31 10 28 11 27 9 24 9 23 14 23"/>
<path d="M9219 14263l-2 2 28-3 30-4 32-7 29-6 31-5"/>
<path d="M9974 14393l-1-3 1-25 3-25 4-28 7-27 10-30 11-23 12-25 14-28 17-30 17-32 17-33 18-34 16-34 17-30 13-28 13-25 13-29 10-29 2-24-9 26-2 32-1 30 5 31 7 34 6 23 6 25 7 24 9 26 7 25 9 25 9 25 12 32 12 28 14 23 13 22 17 25 14 20 13 22"/>
<path d="M10050 14259l-1-1 15-24 22-12 28-5 24-6 29-3 32-2"/>
<path d="M10803 14389l 0-3 11-27 15-27 11-23 13-30 17-32 13-26 15-26 16-28 16-29 16-34 18-34 18-35 17-39 18-36 15-36 15-34 12-30 12-28 10-23 13-28 10-22 5 31 2 26 3 32 6 36 5 24 6 24 9 25 9 24 11 23 13 23 12 24 13 25 13 27 13 27 13 25 12 25 11 23 11 24 14 31 12 28 10 24 11 25 7 24"/>
<path d="M11067 14178l-2-1 19-16 30-8 33-3 25-2 25 0"/>
<path d="M8156 5362l-1-2-25 1-12 25-6 26-3 28 2 25 10 26 18 21 23 8 30 7 26 1 30-5 22-8 22-12 20-16 17-17 14-22 8-25 3-32-4-26-9-26-12-22-15-19-25-18-28-8-29 1-28 6-25 10-22 18-18 22-11 24-5 25"/>
<path d="M8332 6124l-2 0-13 23-2 25 0 25 1 25 3 25 3 26 6 26 8 29 10 32 7 34 9 34 9 31"/>
<path d="M8374 14859l-2-1-3 24 0 31 0 27 0 30 0 32 0 24-1 35-1 25-1 36-2 27-1 32-1 28-1 31 1 25"/>
<path d="M8315 14874l-1-5 10-22 25-6 30-2 25-1 26 3 27 7 29 6 27 6 26 4 30 8 23 10 23 12 16 19 7 25-3 28-9 26-12 23-16 27-18 28-22 27-23 25-25 18-26 16-26 10-25 8-24 8-31 3-27-6-24-7-8-23"/>
<path d="M8417 15093l-4-1-23-9 13-20 25-3 25 0 31-2 27 1 31-1"/>
<path d="M9967 14772l 0 0 0 24 2 33 1 30 2 31 2 33 1 35-1 34-1 25-1 36 0 35 0 29-1 25-1 27"/>
<path d="M9924 14756l-2-3-3-27 12-22 26-10 31-7 29-4 33-7 32-6 34-6 33-1 29-1 25 2 23 9 15 19-6 23-16 24-19 22-22 21-26 19-27 19-25 17-24 16-24 17-17 18 17 19 28-3 27 0 28-3 30 0 30 0 30 5 29 5 28 4 28 8 26 17 15 20 5 29-6 27-16 29-18 24-22 23-23 22-26 21-27 18-30 14-29 10-27 7-29 2-24-9"/>
<path d="M10765 14803l-2 0-7 30-2 24-3 26-2 27-1 31-2 32-1 32 0 34-1 29-1 25 2 29 6-33-2-28-2-35-2-25-3-35-3-33-2-25-2-24-2-24-1-33 0-28 3-31 7-27 12-25 23-17 27-8 25-5 28-3 29-1 29 1 25 3 25 6 17 19-2 27-12 23-16 18-20 16-21 20-20 17-18 16-19 19 14 23 26 2 30 0 31-1 30 0 28 3 27 4 25 10 17 21-4 27-15 27-20 21-20 18-24 14-26 16-26 17-28 10-29 7-30 0-31 2-34-2"/>
<path d="M8372 15974l-2-2-12-23-22-11-24 6-25 16-23 19-22 23-19 26-15 26-11 26-6 26-2 26 1 25 6 24 8 23 12 21 17 19 22 15 27 12 32 7 25 3 27-1 29-2 33-5 33-7 34-10 34-12 35-13"/>
<path d="M9048 15882l-4-2-26-7-23 6-20 14-19 16-18 21-18 25-16 25-13 30-8 26-5 26-4 28 1 30 4 28 11 25 19 23 25 22 30 17 23 9 27 5 29 4 31 4 34 1 35-2 39-1 39-5"/>
<path d="M9787 15899l-1-1 25 4 22 20 11 23 7 25 6 27 2 31 1 32-1 34-1 31-1 33 0 31 0 24"/>
<path d="M9832 15854l 2-4 17-23 21-11 24-8 31-7 28-2 30 0 34 2 24 6 24 4 24 4 24 5 35 6 33 11 25 12 18 16 16 24 4 30-5 30-8 22-12 26-15 29-18 30-22 32-23 29-25 27-27 25-28 23-28 20-28 17-26 13-24 10-33 10-27 6-29-3-19-15"/>
<path d="M10872 15723l-2 1-3 24 5 30 3 30 2 25 1 26 1 28 1 30 0 29 0 30-1 30-2 28 0 28 0 28 0 34 0 30 0 30"/>
<path d="M10889 15718l 0-2 13-21 28-11 29-2 28 1 30 5 33 9 31 10 31 12 31 14 31 15 26 15 21 17 18 18 17 26 6 28-2 26-8 30-14 30-12 21-14 23-15 22-20 24-22 26-24 22-25 21-25 19-24 16-23 15-22 13-32 13-30 11-25 4-30 0-21-12-15-21"/>
<path d="M11439 14344l-1 0-16 17-3 26 3 26 17 21 26 6 26-1 21-11 16-19 10-23 1-25-4-27-13-20-22-15-25 2-25 10"/>
<path d="M10497 14358l 0 1 5 25 3 24 4 25 2 25 3 28 1 26 0 26"/>
<path d="M9637 14400l-2 1-25 6-9 23 0 25 5 27 16 18 22 11 24 0 26-6 15-20 8-23 3-27-7-27-17-21-23-15-26-8-27 3-22 13"/>
<path d="M9143 14879l-2-5 14 26 6 29 5 26 4 29 4 29 2 32 3 32 2 31 2 27 2 27 4 30 9 25"/>
<path d="M9152 14899l-3-2-2-25 22-15 30-12 27-6 30-7 28-3 26 0 26 5 30 5 24 10 13 25-4 24-11 24-16 23-17 21-18 19-21 19-18 18 24 12 30-1 26-1 25 0 24 5 20 17 7 25-5 24-9 24-14 25-16 25-19 23-22 21-25 15-25 9-27 5-27-2-28-5-27-6"/>
<path d="M8369 14890l-2-1 6 28 5 28 2 31 0 28 0 30-1 32-3 35-2 32-3 34-3 31-2 32-2 30 3 27"/>
<path d="M8343 14900l-2-3 13-22 31-5 31-3 25 1 25 5 32 4 29 5 26 6 25 6 19 17-10 22-19 22-20 15-23 17-27 18-29 18-28 19-26 14-25 11-28 13-25 7 22-17 28-12 25-8 26-6 29-8 31-7 28-9 28-3 25 0 26 6 22 12 16 19 11 22 3 31-5 27-12 30-14 28-13 20-17 19-19 15-21 16-23 17-24 11-25 8-25 4-31 3-28-2-25-7-26-14-17-24-6-23"/>
<path d="M8840 14456l-1 0-9 23 0 26 2 27 4 29 8 27 6 24"/>
<path d="M9566 15196l 0-1-5 24 0 25 1 28 2 25 1 25 1 25"/>
<path d="M10366 16130l-1 0-6 26 2 27 3 25 0 28 1 30 2 27"/>
<path d="M11294 15087l-1 1-10 22-7 27-5 28-4 30-3 26-3 29-3 24"/>
<path d="M10532 15171l-2-2-19 15-8 23-7 25 1 25 15 22 22 13 26 9 24-5 22-13 13-23-1-27-13-20-20-15-22-12-24-4-15 20-5 28"/>
<path d="M11374 16216l-1-1-17-19-19 16 7 24 16 22 18 16 22 12 24-6 23-12 14-25 2-25-8-24-18-18-26-11-26-4"/>
<path d="M9388 16259l-2 2-10 22-4 28 2 28 6 25 11 22 18 16 24 2 22-12 13-26 2-25-6-24-18-17-25-8-24 3-23 8-22 13-12 21"/>
<path d="M8705 15333l-2 0-18 17 0 25 20 17 27-1 22-10 18-17 4-27-9-25-20-16-24-3-21 17-13 21-12 25"/>
<path d="M8652 16321l-1 0 2 24 7 28 3 26 7 27 8 27 9 28"/>
<path d="M14407 14116l-1-1 10-26 15-24 17-25 14-22 18-27 12-21 12-22 13-24 11-25 11-27 10-29 9-28 9-28 7-28 6-25 5-24 5-31 4-25 2-27 7 24 7 23 8 25 9 25 9 29 11 32 8 25 11 34 8 24 8 24 11 34 12 34 10 32 12 29 9 25 11 30 9 25 12 24"/>
<path d="M14468 14004l 1 2 27-3 24 1 29 2 28 2 24-2 27-1 29-3"/>
<path d="M16106 14084l 0 1 14-23 13-26 12-24 13-26 13-32 9-22 9-24 10-25 8-24 8-26 7-23 7-25 7-24 5-23 7-30 7-29 8-26 15 24 8 28 7 25 8 25 9 28 11 29 12 30 12 28 11 28 11 29 10 30 10 25 10 22 13 27 13 22 15 21"/>
<path d="M16220 13955l 0-1 20-16 25-8 28-6 25 0 25 1"/>
<path d="M15342 14619l-1-2-4-24 13 24 3 25 1 27 1 27 0 29 1 30-1 31-1 30 0 24 0 29 2 26"/>
</svg>
