<svg xmlns="http://www.w3.org/2000/svg" viewBox="1594 1900 11200 3149" stroke="black" stroke-width="16" stroke-linecap="round" stroke-linejoin="round" fill="none" data-xena="0 0 0"><style>@media(prefers-color-scheme:dark){svg{background-color:black;stroke:white;}}</style>
<path d="M2356 2470l-11-25-19-20-28-4-23 10-23 13-24 21-18 17-18 21-19 21-18 23-18 24-16 25-14 25-14 26-11 27-10 25-8 26-6 36-2 28 8 30 16 18 31 3 25-9 30-19 23-16 20-22 21-24 21-26 18-26 19-26 17-25 15-22 13-22 15-28 7-25 3-25-17-18-21 20-13 27-7 26-6 23-4 29 2 28 6 27 9 24 11 23 15 22 18 22 22 11 25-2"/>
<path d="M2530 2289l 27 3 24 7 21 13-5 24-18 18-20 20-18 17 27 1 23-11 26-12 26-7 29-1 28 2"/>
<path d="M2767 2464l 20-17 21-13 25-15 25-13"/>
<path d="M2801 2357l 3 27 4 29 4 27 4 25 5 27 7 26"/>
<path d="M3157 2616l-14 21-4 25 9 23 26 9 24-9 21-14 27-25 21-22 23-25 23-27 24-29 23-29 21-28 20-28 17-28 14-27 11-27 8-27 5-27 4-27 2-26 1-35-2-26-7-27-28-1-20 26-12 23-13 25-13 29-13 32-12 31-12 34-8 35-8 35-5 33-4 33-1 32 3 30 4 27 8 25 14 31 16 23 19 18 20 15 26 10 25 2 25-11 18-25 7-32 0-25-4-27-11-26-15-25-17-22-19-15-25-13-23-6 7 25"/>
<path d="M3661 2256l 22-17 24-9 27-2 25 5-3 24-17 22-18 22-20 19-15 22 15 20 25-3 26-7 24-7"/>
<path d="M3995 2443l 25-11 24-7 27-9 25-7 25-6"/>
<path d="M4052 2352l-3 27 1 25 5 28 6 23 9 26"/>
<path d="M4566 2415l-2-24-23-12-24 1-23 9-26 15-21 16-22 22-22 26-21 27-17 29-13 30-9 28-3 29 8 24 18 18 27 11 26 3 30-4 34-10 25-10 25-12 25-14 25-16"/>
<path d="M4728 2231l 23-12 23-7 24-4 25 3 3 27-16 20-19 18-18 17-18 18-13 21 4 25 24 6"/>
<path d="M4984 2387l 25-4 26-7 26-9"/>
<path d="M5037 2305l-8 23 5 25 3 28 2 29 0 25 1 27"/>
<path d="M5386 2418l 4-26-18-16-28 4-26 15-21 17-20 20-19 22-17 19-14 20-11 25-4 28 18 20 24 0 28-11 22-15 24-17 25-19 22-22 21-23 17-26 18-26 13-29 9-33 8-35 5-25 2-28 2-26 0-27 1-26 1-25 0-34-3-27-3-26-22-10-12 23-10 25-9 31-5 29-5 31-4 33-6 34-2 36-3 33 2 32 4 27 6 30 10 23 15 21 20 15 28 0"/>
<path d="M5680 2079l 22 10 18 17-1 24-14 19 24 12 25 1 25-2"/>
<path d="M5937 2232l 25-6 24-6 28-6"/>
<path d="M5920 2307l 25-8 24-6 27-4"/>
<path d="M6309 2284l 22-11 25 6 20 17 13 25 2 29-6 29-7 23-9 27-12 27-13 26-17 27-15 24-15 20-15 21-16 18 10-27 10-25 15-31 12-21 12-21 14-21 18-28 18-26 17-26 18-22 17-18 20-19 17-18 25-16 24-12 24-5 27 6 18 23 3 26-5 24-7 27-11 29-13 28-11 25-9 28-7 26-1 28 2 25 11 24 21 13 25 3 26-6"/>
<path d="M6768 2613l 11 25 0 28-6 27-12 31-16 28"/>
<path d="M7669 2694l 20 13 28-2 27-13 27-17 22-15 24-18 25-21 27-24 27-26 27-28 26-29 26-30 25-29 22-31 20-31 17-31 14-34 13-32 9-34 9-32 9-31 5-31 5-29 5-29 3-26 2-32-1-25-9-25-25 2-22 23-12 22-13 27-15 33-16 37-17 41-10 23-9 24-9 24-9 26-8 27-9 28-9 28-8 28-8 29-7 28-7 28-6 30-6 29-5 29-5 29-5 28-3 29-3 28-4 27-3 27-3 25-2 26-1 24 0 47 3 41 5 37 6 31 9 26 10 22 16 27 18 19 24 9 28-9 18-18 17-28 12-21 9-23 7-24 5-24 2-25-2-24-1-25-5-23-11-35-13-31-13-27-15-23-16-24-19-20"/>
<path d="M8197 2497l-25 5-23 15-16 21-4 24 4 24 12 21 24 5 23-6 26-14 24-17 15-20 7-24-14-22-21-17-22-10-22 10 9 22 23 11 25-2"/>
<path d="M8340 2452l 24-5 24-6 28-7 25-2 25 2-5 26-20 18-19 16-21 19-19 20-12 20-11 23 14 21 27 7 30 3 29-3 32-5"/>
<path d="M9004 2433l 12-21 21-14 25 1 14 22-2 27-8 27-14 28-10 23-15 25-16 24-18 21-14 21 16-28 19-30 14-21 15-20 14-20 23-27 22-26 21-24 19-21 21-22 22-15 24-13 24-6 24 11 7 24-1 26-9 25-11 27-10 29-12 29-13 29-8 28-4 29 0 27 19 18"/>
<path d="M9789 2397l-12 25-11 30-9 25-10 25-11 28-9 26-6 24-2 24 6 23 28 0 23-10 27-18 21-15 21-18 20-18 19-18 18-17 19-21 19-22 13-23-21-13-13 22-7 24-7 25-5 24-3 26-2 24 1 25 7 26 25 6 22-12 21-16"/>
<path d="M10073 2415l-18 19-12 26-9 22-6 24-8 29-10 32-7 24-6 25-10 25-8 26-7 27-10 27-6 26-7 25-7 25-9 33-8 30-8 27 19-27 10-22 9-27 10-29 9-28 8-30 8-30 6-28 6-27 5-26 5-25 6-34 7-31 8-26 10-29 12-24 15-20 19-19 20-13 27-7 28 3 26 5 25 11 21 18 7 26-12 25-17 22-17 17-22 18-21 18-23 15-22 12-25 10-25 3"/>
<path d="M10745 2049l 24-2 12 25 5 25-2 31-5 25-7 28-10 29-9 29-9 29-10 31-12 33-10 22-10 22-11 23-10 22-14 31-12 28-14 26-10 23-10 27-6 23 19 17 31-6 28-12 24-12 23-13 22-13 22-15 20-12 21-14 29-20 24-20"/>
<path d="M10719 2337l-21 14 24-3 24-8 28-11 30-11 23-6 25-8 24-6 29-7 25-3 25 1 12 22-15 24-11 21-12 21-10 23-7 24 0 26 11 25 21 13 29 1 27-5 30-11 21-10 25-16 19-18 12-24-7-25-17-18-24-17-25-11-27-3-25-2"/>
<path d="M11880 2121l 11 22-4 27-9 30-12 26-14 28-15 32-12 23-12 23-13 25-14 24-15 26-14 24-13 21-15 26-14 27-10 23"/>
<path d="M11980 2415l 28-3 30-6 27-7 29-11 28-9 28-9 24-10 18-16 5-24-9-23-24-14-26-4-24 4-23 11-24 16-19 15-24 22-21 23-17 24-14 26-3 26 2 25 12 24 24 12 28 7 27 0 30-3 24-6 23-5 24-5 25-7 33-9 28-11"/>
<path d="M12386 2093l 24 10 28-2 28-3 24-6 25-6 26-7 24-7 23-8 28-7 24-8 23-8 24-7 0 28-9 24-14 22-15 27-18 28-12 22-14 24-14 25-16 26-13 24-12 23-13 23-15 32-15 29-11 27-11 27-10 24-8 24"/>
<path d="M2181 4176l 15 25-4 26-8 31-7 25-9 26-10 31-12 31-12 34-14 35-15 37-13 36-14 36-12 31-11 30-10 27-9 25-10 34-7 27-5 26-4 24"/>
<path d="M2307 4543l 24 3 26-4 25-13 25-16 18-16 17-18 20-21 17-20 6-25-18-16-28-2-27 6-29 11-22 14-21 18-20 21-18 23-13 25-11 28-7 32-4 31 1 28 6 25 10 22 18 16 26 11 25 1 28-4 30-7 30-12 23-11 22-12 27-16 24-13"/>
<path d="M2726 4270l 11-22 26-11 25-5 30-4 25 0 30 1 26 4 22 13-1 27-16 19-23 22-21 16-24 16-24 17-24 14-21 13-26 13-21 12 21-15 23-11 25-10 26-8 28-5 28-1 25 3 28 10 22 14 9 23-6 25-14 27-14 21-17 21-20 22-22 20-23 19-24 17-25 15-27 11-26 11-26 7-24 4-27 1-24-9-2-26"/>
<path d="M3010 4626l"/>
<path d="M3172 4257l 27-5 28-4 25-6 27-7 26-8 28-5"/>
<path d="M3213 4285l-20 16-11 22-2 26 6 25 9 23 16 21 25 4 25-3 25-4 28-7 31-4 29-5 30-3 28-2 24 0 25 5 12 22-10 22-18 25-18 19-21 21-22 19-23 16-23 15-23 13-24 9-31 8-24 2-26-1-25-4-24-8"/>
<path d="M1999 4060l-27-1-23 11-20 14-22 22-24 29-16 22-16 23-18 27-18 28-17 30-19 34-16 37-15 38-15 41-11 43-12 44-7 46-5 44-1 44 2 44 7 40 10 39 14 36 18 31 20 29 23 24 27 20 27 17 31 13 31 13"/>
<path d="M3303 4088l 26-5 22 13 21 20 21 20 17 19 18 19 18 22 18 22 17 22 16 24 15 25 14 28 11 29 10 30 7 33 3 35 0 26-3 26-5 28-7 28-9 28-12 28-13 27-13 26-15 26-14 24-14 22-13 21-17 23-17 22"/>
<path d="M3645 3963l 24-11 28-1 24 1 24 8-13 24-17 18-24 18-23 16-21 14-19 18 19 15 25 0 30-3 29-3 24-3 24-3 27-3"/>
<path d="M4480 4176l 20-24 17-19 19-21 20-22 19-21 17-18 20-20 17-18-1 27-6 27-6 27-10 32-11 35-7 26-8 26-8 27-9 27-8 28-8 27-6 27-6 24-5 32-2 26 0 29 7 26 23 14 27-7 26-15 30-20 19-16 19-17 18-16 25-23 19-23"/>
<path d="M4469 4255l 19-23 23-13 27-12 23-9 23-8 25-8 26-8"/>
<path d="M4794 4260l-17 17-17 20-12 23 8 26 24 15 26 4 30-5 28-9 22-11 18-19-4-25-18-20-24-14-25-7-25 5"/>
<path d="M5730 4224l-26-5-26 8-24 14-26 16-20 15-19 17-19 19-17 21-15 21-11 22-5 25 8 23 27 13 31 0 25-5 27-6 30-12 30-13"/>
<path d="M5886 4263l-27-3-28 3-24 11-22 16-19 16-16 21 3 26 25 11 25 3 27-3 26-3 24-9 10-22-10-22-8-22 19-18 25-14 25-12 25-11 25-1 6 26-10 23-12 22-12 22-11 24 26-4 17-19 19-19 17-21 18-18 17-17 24-19 20-17 21-14 20 16 4 24-5 28-6 28-5 26 17 19"/>
<path d="M6305 4182l-24 10-8 25-1 24 4 27 9 22 12 25 18 18 27-3 21-15 19-19 17-21 15-22 13-23 10-22 7-28 4-26-6-26"/>
<path d="M6560 4192l-24 3-18 17-4 28 7 23 15 19 23 13 26 5 26-2 23-7 22-13 2-25-15-20-24-18-26-14-22-10 25 9 30-5 29-11 25-11 27-14 27-16 28-18 25-22 24-22 22-27 16-19 16-30 14-31 9-33 8-35 7-32 4-32 3-26-2-25-13-21-24 16-19 28-13 30-9 25-9 25-10 28-8 31-7 33-8 33-7 35-5 32-5 31-3 30-4 27 0 26 4 31 9 25 16 25 18 19 25 1 27-11 20-18"/>
<path d="M6918 4145l 2 24 9 24 7 24 10 26 16 22 22 10 21-11 22-22 14-25 12-27 8-28 2-28-3-28-9-23"/>
<path d="M7197 4138l 28-8 22-10 24-13 18-17-9-25-22-10-27 2-22 14-19 17-19 21-13 24-6 23 3 26 15 20 22 12 28 5 25-2 30-7 26-7"/>
<path d="M7822 4038l 5 23 0 29 0 24 2 29 7 25 26 6 26-19 23-20 16-18 15-21 16-22 15-25 14-27 14-28 12-29 12-29 10-31 10-29 7-30 8-30 8-27 8-26 13-32 10-27 9-23"/>
</svg>
