<svg xmlns="http://www.w3.org/2000/svg" viewBox="1368 1866 8704 7149" stroke="black" stroke-width="16" stroke-linecap="round" stroke-linejoin="round" fill="none" data-xena="0 0 0"><style>@media(prefers-color-scheme:dark){svg{background-color:black;stroke:white;}}</style>
<path d="M6506 2140l-1-1 5 25 2 26 2 28 0 28-3 27-4 27-6 23"/>
<path d="M6559 1983l-2-2-22-12-28 9-25 14-20 15-22 21-23 27-15 20-13 20-13 24-12 25-9 26-7 27-7 26-5 25-2 34 2 33 7 29 10 25 14 21 16 19 18 15 22 12 25 9 26 7 27 1 26-3 28-12 31-14 21-12 20-15 20-16 18-18 17-19 15-21 14-22 11-23 9-24 5-26 4-26 1-29-1-28-3-28-5-26-12-33-13-29-18-21-27-16-32-4-25 2-26 7-25 11"/>
<path d="M6242 2579l-2 0-24 9-19 18-19 19-22 24-16 20-17 21-19 22-20 23-22 25-24 29-26 31-31 35-16 19-18 20-19 21-19 21-21 23-20 24-21 24-22 24-21 25-22 25-23 26-24 26-23 26-24 26-24 26-24 25-24 25-26 24-24 24-23 24-24 23-23 23-23 22-22 21-23 20-21 20-20 19-20 18-19 17-35 30-31 26-28 21-22 17-27 18-23 14-19 18"/>
<path d="M4969 3909l 1-1 19-19 24-3 14 20-1 25-6 25-10 23-14 26-16 24-13 21-9 23 24 6 25-3 26-8 21-11"/>
<path d="M5013 3832l-4-2-28-6-29 6-24 16-20 18-17 21-17 25-12 27-12 28-7 31-4 25-2 30 4 29 6 30 11 27 15 25 19 21 22 15 25 9 29 3 31-2 33-9 23-8 22-11 21-12 26-23 24-26 20-28 15-27 9-27 3-27-1-28-7-29-13-32-12-21-14-21-15-20-21-27-19-20-27-17-26-8-25-2-29 5"/>
<path d="M6783 2674l 1 0 22 14 25 19 19 15 25 19 20 15 24 17 25 18 28 21 30 23 32 23 33 26 36 26 37 28 37 27 20 14 19 15 20 14 20 14 20 15 21 15 20 15 22 15 21 15 22 16 21 15 22 15 22 13 21 16 22 14 22 16 22 14 20 15 21 14 21 14 21 16 20 15 40 28 38 27 35 26 34 25 31 25 28 23 26 24 24 20 22 19 18 18 21 21 19 19"/>
<path d="M7959 3826l 0-1 25-13 24-7 25-5 25 2-18 21-19 17-22 16-18 16-17 18 6 24 24 13 25 10 23 9 19 18 5 26-9 23-15 20-22 16-25 11-27 5-26-4"/>
<path d="M7984 3685l-2 0-22 9-21 15-23 22-18 21-16 25-16 27-14 30-10 34-5 25-2 25 0 25 4 33 11 32 16 28 20 23 26 21 28 15 28 10 29 8 29 2 29-2 30-8 29-13 28-15 25-22 24-24 19-26 16-31 9-35 3-24-2-24-4-25-9-24-12-26-14-27-18-27-19-27-21-23-22-21-24-17-24-15-24-11-23-9-33-7-34-2-33 3"/>
<path d="M4586 4307l 0-1-29 10-19 24-16 19-20 23-23 26-24 28-26 32-29 33-30 35-17 19-17 19-18 20-19 21-19 22-20 23-21 23-21 25-22 25-24 26-25 27-25 28-28 28-28 29-28 31-33 31-31 31-31 32-31 31-32 32-32 31-32 32-31 32-31 30-31 30-31 31-32 29-29 30-30 29-28 26-28 26-28 27-28 27-26 25-26 25-26 25-25 24-25 22-24 23-22 21-21 21-21 20-19 18-18 16-34 33-30 25-26 21-20 16-22 15-22 10"/>
<path d="M3039 6000l-2 0-21 13-17 22-15 20-12 23-9 23-8 28-1 25 11 23 26 12 26 0 30-5 28-10 28-11 26-15 25-17"/>
<path d="M3101 6097l-1 2-10 25-1 27 3 24 4 25 4 26 6 23"/>
<path d="M2983 5930l-5 3-28 15-23 17-24 17-23 21-21 24-19 26-17 27-13 30-10 32-4 24-2 25 1 27 3 26 6 25 9 35 12 23 21 29 26 21 29 16 32 9 33 5 34-3 25-4 26-8 26-11 26-13 25-16 24-18 21-20 18-20 18-21 14-20 18-31 10-34 5-35-2-24-6-25-11-26-15-28-18-28-20-28-21-28-19-22-21-18-22-13-33-9-33-4-31 3-27 5"/>
<path d="M4959 4579l-1 0 18 21 14 24 11 25 13 28 10 22 11 25 12 26 13 27 14 28 15 30 17 32 18 34 18 34 21 35 22 35 23 38 24 37 24 39 23 39 22 41 24 40 22 40 22 40 21 39 20 40 19 38 19 34 20 35 17 33 17 32 16 28 14 27 12 25 13 21 16 29 15 20 19 19"/>
<path d="M5652 6067l 0 0 24-2 24-6 26-6 24-9"/>
<path d="M5691 6068l-2 1-15 21-10 25-9 26-3 26 15 19 27 0 24-10 28-8 27-6 26 1 23 9-4 24-14 20-21 19-20 16-22 15-23 12-22 8-27 8-26-1"/>
<path d="M5688 5897l-4 0-30 7-23 13-26 19-17 17-17 19-17 20-18 23-15 24-14 26-11 29-9 29-7 30-6 31-2 29 2 29 4 30 8 26 10 29 12 26 16 23 16 22 20 16 21 14 22 10 26 7 26 4 26 1 27-2 25-6 27-7 26-12 27-14 24-17 23-22 20-26 17-28 16-27 14-25 12-22 7-25 2-26-1-27-6-25-8-30-13-29-13-26-16-29-18-22-20-18-23-16-24-9-25-7-26-4-26 0-27 1-28 4-25 5-24 8-29 11"/>
<path d="M8042 4478l 2-2 18-20-9 27-16 29-12 26-15 29-14 33-17 39-18 41-9 23-11 24-10 24-12 26-12 27-11 28-14 28-13 29-13 29-13 30-15 30-13 31-15 29-16 30-15 31-17 32-18 32-17 31-18 32-18 33-18 33-18 32-18 32-17 31-17 30-17 30-16 30-16 27-16 28-15 27-15 26-14 25-15 24-13 22-26 40-23 35-21 32-16 25-13 23-12 25"/>
<path d="M7241 6112l-2 1-17 17-11 24-7 26-2 27 3 25 9 26 19 21 22 10 27-4 23-12 15-21 3-26-15-21-25-13-28-2-22 12-16 23-14 24"/>
<path d="M7281 5954l-2 0-25 5-24 13-20 18-18 22-11 23-11 30-6 25-6 26-3 29 0 31 3 29 6 30 7 27 10 24 17 25 23 22 25 17 29 10 24 2 26-3 26-6 26-15 27-19 25-19 20-22 16-25 11-26 7-26 2-28-6-27-15-24-21-28-18-18-20-21-20-19-21-17-22-14-31-15-28-9-26-3-24 0-31 3-25 9-22 13"/>
<path d="M8389 4206l-2-1 5 24 16 24 17 26 18 22 20 28 16 21 18 23 20 26 22 26 25 28 26 28 28 29 29 32 32 32 35 31 34 32 18 16 18 16 19 16 19 17 18 18 19 18 20 17 20 18 20 16 20 18 19 17 19 17 19 18 19 17 19 18 18 17 19 18 19 18 18 19 17 18 18 18 18 17 17 19 17 18 17 18 33 35 30 35 29 32 27 33 24 32 24 30 21 31 18 27 15 27 16 26 12 22 17 29 13 22 11 21"/>
<path d="M9530 5783l 0-1 26-6 25-5 26-6 28-2 25 7 16 18-2 28-8 25-6 25-6 26-6 25-7 29-5 26-2 25"/>
<path d="M9592 5686l-5-2-26-3-30 3-29 7-27 15-21 16-19 18-19 22-16 25-15 28-11 32-5 24-4 27-2 27 0 27 3 25 12 35 11 21 21 29 26 22 20 13 22 12 25 8 25 9 26 5 28 2 29-2 30-7 30-7 29-11 29-12 28-13 27-16 23-16 22-16 19-16 23-25 16-27 9-27 4-31-6-34-7-25-11-24-14-25-16-24-18-22-19-21-20-17-22-15-21-11-23-9-34-8-24-1-25 1-25 3-24 1-25 6-34 12"/>
<path d="M2933 6601l-2 1-21 16-18 20-20 21-24 25-24 20-24 25-26 30-29 34-29 40-18 20-18 21-19 22-20 22-20 24-23 23-22 25-22 24-23 25-23 25-23 24-23 25-25 25-22 26-23 25-23 27-23 27-23 26-23 28-24 28-22 27-22 28-23 27-23 27-22 27-21 25-21 26-21 25-20 24-21 24-20 23-20 21-18 19-18 19-17 18-20 16-29 29-23 26-18 20-16 22"/>
<path d="M1736 8078l-2-2-17-20-24-7-26 6-22 11-21 18-20 20-18 17-9 23 7 24 18 19 23 14 23 10 28 4 25 5 13 20-6 24-12 26-17 25-19 20-20 13-25 5-23-17-14-20-7-27-2-27 4-26 10-28 15-27 16-27 17-25"/>
<path d="M1689 7888l-6-2-27-4-26 6-25 11-25 12-25 16-17 19-14 25-15 29-9 23-9 26-8 28-7 33-3 34-1 36-1 37 3 40 7 38 7 35 11 33 14 27 13 24 21 20 21 16 23 13 25 10 25 5 25 2 25-3 28-6 25-10 29-10 27-16 25-20 24-21 20-27 21-26 17-30 15-32 12-32 9-30 5-30-1-29-1-28-8-27-10-26-14-25-17-27-20-27-23-28-21-27-27-24-25-23-25-19-25-16-24-14-22-10-23-7-28-5-25 0-24 7-26 14"/>
<path d="M3258 6605l-2 0-19 15 8 25 13 28 16 29 11 21 15 25 16 27 18 31 20 31 21 32 22 35 25 33 24 34 26 35 28 33 28 36 28 36 27 34 25 36 27 37 27 38 25 41 14 20 25 37 22 35 21 34 21 31 18 32 19 30 16 29 16 26 16 25 15 23 16 22 19 27 17 22 21 17 18-18"/>
<path d="M4058 8037l-2-2-15-19-23-12-26 5-23 14-24 19-18 18-18 25-12 28-6 24 7 24 26 6 20-17 20-21 18-19 0 25-1 27 4 27 0 25 3 26 0 29 6 23"/>
<path d="M3920 7939l-4 1-27 8-27 11-28 15-25 18-22 20-18 23-19 25-19 30-9 22-8 25-9 26-2 30 0 33 3 35 10 38 8 36 11 35 14 30 13 28 19 24 19 20 21 17 23 14 22 9 24 7 34 2 33-4 34-7 33-16 21-14 20-19 21-18 20-20 18-20 16-23 15-26 13-28 12-31 9-28 5-27 2-26-4-24-7-27-10-29-13-29-14-30-17-28-19-27-22-26-22-22-19-18-21-13-30-13-31-6-29-3-27 3-28 5-27 7-28 13-20 16"/>
<path d="M5709 6708l 0-2-2-25-6-24-18-17-25 3-21 17-18 21-15 21-15 23-15 22-11 21-9 24 0 26 10 24 27 2 25-11 23-15 22-18 25-19 18-16 18-18 23-19 24-18 23-19 23-16 21-12 24-13 27-8 26 2 25 9 11 22-5 27-16 20-21 17-26 4-26-6-27-12-22-13-21-18-16-21-12-22-11-23-9-27"/>
<path d="M7194 6674l 1-2 19-18 25-11 26-8 28-7 24-7 28-7 27-4 16 18-18 21-23 24-19 18-21 18-22 15-21 16-22 17-17 17 23 12 27-8 30-11 28-9 25-5 28-2 24 1 21 15-3 26-12 21-19 24-18 17-24 16-25 14-26 9-27 6-25 3-23-9"/>
<path d="M9736 6539l-1-3-10-24-14-21-20-19-23-11-26-1-23 8-23 16-22 20-14 21-10 26 0 26 17 17 27 6 31-6 27-7 29-11 28-17 28-19 23-19 21-19 20-17 24-19 22-16 20-14 25-6 26 11 22 15 17 19 8 23-13 25-17 20-22 16-22 13-25 11-23 7-27-2-26-7-21-17-14-23-8-27-6-25"/>
<path d="M1669 8731l-2-2-25 1-22 13-22 16-19 17-17 19-11 22-7 27-3 25 5 26 18 16 29 0 24-15 25-21 19-22 19-23 19-22 18-21 16-21 17-25 18-19 21-11 16 19 5 26-2 27-5 26-14 20-22 14-26-2-27-8-20-13-20-16-22-18-13-20 16-20"/>
<path d="M3931 8718l-2-2-20-15-23 15-16 20-15 27-10 22 2 25 26 5 21-14 21-14 18-17 18-20 18-18 23-16 20-16 23-9 25 4 26 6 24 6 19 15 2 24-13 20-23 9-25-4-23-11-21-15-19-20-15-21"/>
</svg>
