<svg xmlns="http://www.w3.org/2000/svg" viewBox="1201 1922 9984 12646" stroke="black" stroke-width="16" stroke-linecap="round" stroke-linejoin="round" fill="none" data-xena="0 0 0"><style>@media(prefers-color-scheme:dark){svg{background-color:black;stroke:white;}}</style>
<path d="M1575 2274l-1-1-21 16-13 24-10 22-9 27-7 31-3 26 0 27 3 28 4 27 9 24 15 27 19 20 24 16 23 11 24 5 29-1 31-6 26-12 23-13 20-16 18-17 17-23 8-23 4-29-2-26-4-28-6-28-10-28-13-26-14-23-17-19-22-18-21-14-26-2-24 7"/>
<path d="M2489 2290l-2 0-26 1-24 10-18 21-13 26-8 24-5 26-3 28 4 27 9 27 11 23 14 21 17 18 24 17 22 10 27 10 26 6 27 3 24-1 24-8 22-17 17-18 14-24 6-27 3-24-3-28-4-29-9-30-8-28-7-25-14-26-16-18-21-12-29-1-23 5-24 12"/>
<path d="M3544 2281l-2-1-25-2-20 14-15 21-8 28-3 26 0 27 3 29 8 31 14 26 21 23 19 15 25 15 28 12 31 7 31 2 31-4 27-11 24-16 22-22 17-23 9-30 3-25 0-24-5-26-9-28-14-25-17-23-17-18-28-13-24-3-28 0-30 4-31 9-28 13"/>
<path d="M1598 3301l-3 0-27 3-19 16-13 21-10 24-4 25-5 28-1 31 2 33 4 31 9 31 15 28 21 24 22 20 24 14 27 12 28 7 28 2 27-2 27-7 28-13 28-18 18-16 24-25 20-27 16-29 12-30 5-29 0-28-5-29-11-27-14-28-17-25-20-21-22-16-23-12-24-7-29-4-29 3-24 7-24 12-23 16-18 20"/>
<path d="M2824 3411l-2 0-23 9-19 17-16 19-15 22-14 25-11 22-10 28-5 30 3 30 6 24 11 25 16 20 23 13 25 8 28 2 32-4 25-7 25-10 24-12 23-15 21-17 17-18 16-22 9-22 1-28-7-28-14-25-19-25-17-16-24-16-23-12-25-6-28 0-25 8"/>
<path d="M3711 3330l 0 0-2 28 0 28-1 28 1 33 4 35 2 24 2 25 2 25 2 25 3 25 3 25 4 31 6 29 6 24 8 28 7 23 5 26"/>
<path d="M1644 4581l-2 0-20 18-13 22-9 28-6 28-2 25 4 30 3 31 8 29 9 27 11 23 17 23 20 19 21 14 26 11 24 4 31 0 23-6 29-13 27-20 21-18 18-21 14-21 10-24 6-23-2-25-4-25-13-25-19-28-16-20-17-19-24-24-25-16-24-11-25-4-31 4-23 12-24 15-24 20-16 22"/>
<path d="M2880 4547l 0-1 9 23 4 30-1 29 2 31 2 36 4 36 0 25 1 24 0 34 0 33 0 32-1 25-3 26"/>
<path d="M3631 4643l-1-1-13 22-3 27-3 27 0 32 5 24 7 24 8 22 11 23 13 20 23 22 26 17 24 7 24 2 32-2 26-8 28-13 27-18 27-19 22-22 15-19 13-25 6-24-1-29-8-25-13-27-16-26-19-25-21-24-24-20-25-15-24-9-24-4-27 4-29 11-30 17"/>
<path d="M1631 5665l-3 5-11 24-11 32-7 35-3 24-1 25 0 25 2 25 7 35 10 31 13 26 17 21 19 18 21 12 29 11 32 4 25-2 27-6 27-13 26-16 25-21 22-24 17-28 14-31 9-31 5-29-1-26-3-26-6-27-12-27-15-23-16-22-19-16-23-12-29-6-26 0-29 3-26 8-21 14"/>
<path d="M2811 5663l 0 0-5 25 0 30 1 28 1 30 2 30 2 33 1 25 1 24 2 26 1 28 2 26 3 27 2 32 2 29 5 27 10 22"/>
<path d="M3837 5637l-1 0-6 23-3 25-1 30 0 33 1 26 2 28 4 31 2 30 0 28 1 25 3 29 4 24 4 24"/>
<path d="M1797 6732l-1 0 3 27 1 27 0 30-3 30-3 31-5 35-5 34-4 25-5 25-4 25-4 25-5 24-4 33"/>
<path d="M2777 6882l 2-1-24 9-11 24-9 23-9 28-3 28 1 32 4 33 7 33 9 27 13 24 18 17 28 13 31 2 28-4 29-12 29-12 29-16 28-19 27-21 27-22 22-22 15-23 11-24 5-25-11-29-14-21-20-20-22-19-26-19-24-17-26-9-25-6-27 0-30 2-27 4-25 12-12 24"/>
<path d="M3726 6857l 0 0-8 23-4 29-4 24 0 30 3 31 5 24 8 26 11 25 14 21 20 17 27 11 27 3 26-5 26-8 22-11 21-14 21-17 19-20 16-19 11-26 3-27-6-30-7-24-12-24-14-23-18-22-19-21-21-14-22-11-26-4-24 1-27 7-22 14-16 19"/>
<path d="M8317 2084l 0-1-2 28 0 31 0 25-2 28-1 26 0 26 0 26-1 28-1 29 0 27 1 28 1 24 6 28 10 22"/>
<path d="M9052 2082l-1 0 25-2 31 0 31 0 28 1 29 3 30 3 29 2 26 3 28 7 26 13 16 24 4 28-4 28-9 24-13 27-18 28-14 19-15 19-17 18-20 19-21 19-22 18-24 19-24 19-24 18-23 16-21 16-26 19-25 18-21 13 28-1 25-1 25 1 31-1 26-1 27-2 28-2 31-2 30-1 30 0 26-2 26-1 29 0 26-2"/>
<path d="M9845 2091l-1-2 21-15 26-2 29 0 32 1 26 2 28 2 26 2 24 3 26 4 21 12-8 24-18 16-23 18-24 16-24 14-22 13-19 15 23 14 24 5 30 6 27 4 30 5 29 5 31 5 28 6 23 9 24 11 18 17-5 28-20 22-25 19-21 14-23 15-24 14-25 13-23 12-23 10-32 14-31 8-27 4-25 1-25-4"/>
<path d="M10609 2025l-1-1-16 20-3 26-2 27-1 30-3 24-3 25-3 25-2 24-5 30-3 28-3 26 0 25 4 26 14 20 23 10 28 3 27 0 29-1 31-3 33-3 33-5 33-6 32-6 28-7 24-8"/>
<path d="M10768 2223l 0 0-3 24-2 29 0 31 0 24 2 26 1 25 0 26 2 26 1 28 2 26 2 25"/>
<path d="M8288 3319l 0-1 5 24 2 35 0 33 1 24-1 25 1 26 0 24 0 25-2 36-1 34-1 32-2 28-5 28-3 25-5 28 0 26"/>
<path d="M8865 3342l 0 0 23-9 23-7 27-7 25-7 28-6 25-5 26-4 27 0 29 2 25 4 28 12 21 14 16 21 4 25-7 27-12 25-19 29-16 20-17 21-19 21-19 19-20 20-20 19-21 18-21 18-21 17-20 16-20 15-27 22-24 19-19 17-22 16 0 25 27 1 24 0 27-4 31-3 32-6 33-4 32-5 31-4 30-6 28-4 26-6 26-6"/>
<path d="M9915 3273l 0 0 2 24-5 25-9 25-10 24-13 28-16 30-16 30-17 25-14 22-14 25-11 25-3 26 14 20 26 13 25 6 29 3 32 0 33-1 25-3 35-5 34-5 33-6 29-7 26-7"/>
<path d="M10057 3444l-1 0 1 24 1 29 1 27 0 28 1 31 1 31 0 31 1 31 0 29 2 28 4 26 2 25"/>
<path d="M10751 3457l-1-1 9-23 28-3 33 0 30 0 34 0 33 1 30 3 27 2 28 5 22 10-5 24-23 15-22 13-28 12-28 12-31 13-34 12-31 11-28 12-22 11-21 12 17 18 26 5 26 6 29 3 32 7 31 6 34 6 31 6 27 6 29 10 20 13 16 19 8 25-9 28-18 22-16 18-19 16-21 17-20 15-23 15-24 14-28 13-29 13-28 8-27 4-25 2-27-2-26-9-23-14-18-16"/>
<path d="M8347 4680l 0-1 0 28-2 28 0 26-2 28-1 31-2 35-1 25 0 26-1 27-2 27-1 27-2 27 0 27-3 34-1 34-2 28 0 28 1 25 4 25"/>
<path d="M8926 4819l-1-1 22-13 25-8 29-8 27-6 28-6 25-4 26 1 19 16-12 24-19 23-21 21-22 20-24 17-25 16-22 12-24 11 21-14 26-8 28-3 26-2 27-2 30 0 29-1 29 0 27 2 27 5 22 14 11 21 2 26-9 27-13 23-17 22-19 20-21 16-24 15-24 11-24 9-28 7-27 1-26-3-25-3-24-4"/>
<path d="M9843 4806l-1-1 18-16 25-11 25-2 26 8 25 14 21 15 19 16 20 19 14 22 6 25-5 29-10 22-15 26-20 28-14 20-16 19-16 21-18 19-17 19-18 19-19 15-27 22-26 18-22 16-25 16-24 12 24-14 26-10 27-8 31-6 25-4 25-2 25-3 24-2 25-4 26-2 24 1 30 0 27 0 24 3 24 5"/>
<path d="M10697 4742l-1-1-10 28-9 22-11 26-13 29-12 23-11 28-9 25-2 25 20 19 25 7 25 4 31 1 27-2 30 0 30 0 29 0 27-1 26-3 24-4 29-6 28-6 23-6 24-7"/>
<path d="M10907 4771l 0 0-3 27 1 27 2 24 1 28 1 29 1 26 1 28 3 25 2 29 3 25 2 26"/>
<path d="M8315 5996l 1 1 4 25 4 28 3 29 2 25 0 28 0 31-3 33-2 34-2 33-3 32-2 30 0 26 0 27 0 25"/>
<path d="M8931 5958l-1-1 22-15 28-1 28-3 25 0 24 1 28 2 26 2 0 24-25 19-25 17-22 13-22 13-22 13-22 11-24 16-21 13 25 12 26-6 31-4 24-4 27-3 28-2 27 0 26 2 31 7 26 10 20 15 15 22 7 23 2 27-6 28-13 20-19 21-18 16-22 15-23 13-25 12-27 9-27 7-27 5-25 1-26 0-25-3-29-4-23-8-22-12"/>
<path d="M9811 5871l 0 0-11 26-10 26-11 26-12 27-10 22-9 28-7 28-5 23 2 26 15 21 25 9 25 1 25-1 25-1 25-3 25-3 26-1 26-3 26-4 30-5 26-3 29-5 26-6"/>
<path d="M9966 5956l-1 0-6 23 5 28 4 25 6 28 6 32 3 25 2 25 3 26 2 25 4 31 2 27 3 27"/>
<path d="M10682 5924l-1 0 19-18 21-13 25-11 23-6 28-2 28 0 31 2 24 3 31 5 29 9 26 14 23 12 22 16 15 19 4 25-9 29-11 22-15 26-20 29-14 21-16 20-17 21-17 20-18 20-19 20-19 16-19 15-28 19-28 17-23 14-21 11-24 12-24 9 22-12 24-8 31-7 26-3 29-4 29-4 28-2 27-2 25 0 31 1 27 2 27 2 23 5"/>
<path d="M8430 6917l 0-1 17 18 7 28 3 26 3 26 0 26 0 30 0 29-1 32-2 31-4 31-4 28-5 26-3 25-3 24-1 28-2 28 1 25"/>
<path d="M9001 6937l 1 0-2 24-4 25-7 25-8 24-9 25-10 28-10 27-9 23-3 25 12 21 23 8 27-1 29-6 28-6 30-3 29-6 29-7 29-3 27-4 25-5 27-2 24-2"/>
<path d="M9187 7004l-1 0-13 22-5 24-2 26 0 30 1 32 2 26 3 27 5 26 5 25 6 26 5 25 5 28 4 24 3 26"/>
<path d="M9766 6982l 1 1 21-17 23-8 28-6 28-4 30 0 30 4 23 7 23 12 24 19 20 20 13 21 7 24 2 26-9 26-13 24-21 26-19 20-20 22-23 22-24 19-25 21-27 22-25 19-24 17-24 17-21 15 25 1 29-3 25-3 27-1 27-2 27-1 27 1 26 1 31 0 28 1 24 1 27 4 24 8"/>
<path d="M10732 7005l 0-2 26-9 29 5 29 5 33 5 31 6 24 4 26 4 25 9 19 16-10 24-23 16-20 12-25 16-24 14-21 17 3 25 26 3 25 3 27 3 26 9 25 7 21 12 18 16 14 22 0 25-11 22-16 22-17 17-27 13-23 6-24 1-26 1-27-6-25-11-24-12"/>
<path d="M1498 8577l-5 2-22 15-17 22-14 24-15 26-10 32-7 24-8 26-4 28-2 30-1 31 5 30 5 30 6 30 8 27 11 27 12 22 14 21 24 25 25 17 27 13 29 8 31 3 31-4 31-9 30-15 22-15 20-17 21-22 20-24 17-24 17-23 13-22 10-24 11-34 5-35-1-26-2-27-7-28-10-28-13-28-15-30-16-30-15-27-17-23-16-19-26-20-23-14-24-8-29-2-30 6-27 13"/>
<path d="M2144 8392l-1 0-22 11-19 19-17 24-17 24-17 31-14 24-12 24-12 26-13 28-10 32-9 34-7 39-5 41-4 44-1 25-2 47 1 47 3 44 5 42 8 38 9 33 11 32 10 26 15 22 15 18 24 17 26 14 23 9 30 1 22-12"/>
<path d="M2220 8825l 1 0 10 22 7 23 5 29 0 25 1 24 1 28-1 24 12-27 11-31 9-23 11-24 13-27 13-27 15-24 17-23 17-21 24 0 7 25 3 27 0 27 0 28 0 28 2 27 1 24 3 25 11 21"/>
<path d="M2615 8494l 0 0-9 25 1 25 2 32 1 29 3 34 0 24 2 26 2 28 1 30 2 32 0 29 1 28 2 26 3 35 4 30 3 25"/>
<path d="M2647 8987l-1 0-6 23"/>
<path d="M2708 8458l 0 0 24 10 18 17 19 22 15 19 16 22 13 24 14 26 12 30 12 31 11 32 9 35 7 38 4 26 2 28 2 24-1 27-1 28-3 28-3 29-5 29-5 29-7 28-8 28-8 27-8 23-15 26-14 26-14 20-21 13"/>
<path d="M2542 9198l-1 1 22-12"/>
<path d="M3193 8741l 0-1 23-9 29-1 28-4 26-4"/>
<path d="M3193 8862l 0-1 22-14 28-8 28-8 30-12 25-9"/>
<path d="M3519 8554l 2-1 17-17 26-9 27-4 25-2 25 1 29 3 24 9 20 21 9 22-1 26-7 26-10 29-13 30-16 31-15 32-17 30-16 28-16 24-14 26-12 23-12 27-6 27-1 27 10 25"/>
<path d="M3642 9168l 0 0"/>
<path d="M1537 10384l 0-2 10-21 13-22 21-13 23-9 23 11 11 28 4 28 0 28-2 32-2 35-3 26-4 26-5 25-3 26-6 25-4 25-6 27-6 24-6 33-6 25-9 25 2-29 0-30 4-34 6-36 7-34 8-34 7-32 9-29 9-26 10-25 11-22 10-27 14-22 15-19 19-19 25-9 21 13 18 21 11 25 8 25 6 26 1 29 0 26-1 28-2 32-2 26-2 30-2 26-1 27 4 25 15 18"/>
<path d="M2034 10070l-1 0-2 27-1 28-1 31 0 28 0 34 3 24 0 25 0 25 0 25-3 36 0 34 0 34"/>
<path d="M2035 10666l 0 0 17 21"/>
<path d="M2434 10350l-1 0 15 22 22 11 26-4 24-10 25-17 19-17 15-19 25 2 23 8 24 12 24 14 23 12 23 9"/>
<path d="M2515 10463l-1 0 25 2 24-6 24-10 23-14 22-13 24 0 8 24 18 20 25 2 24-7"/>
<path d="M3412 10067l-1-2 25-3 9 26 4 25 5 25 0 26-3 29-5 29-7 29-7 28-6 24-8 26 8-26 6-23 9-27 8-29 8-30 10-29 11-25 10-21 13-29 14-25 17-21 15-19 22-13 22 16 7 25 4 28 2 25 0 28 0 32-1 35-2 24-3 25-2 34-2 31-2 26-2 30-1 28"/>
<path d="M3343 10542l 0 0 26-5 29-3 31 0 28-3 28-6 29-9 33-7 31-7 32-7 28-6 28-5 30-4 27-3"/>
<path d="M3506 10661l 0-1 20-16 28 0 27 2 28 5 22 15 0 28-11 25-16 22-16 18-15 19-15 19-19 22-19 18-15 22-8 23 24 5 24-1 27-8 29-9 26-5 24-5 25-5"/>
<path d="M3311 10071l-1 0-23 11-15 19-13 26-9 32-6 23-7 25-8 27-7 29-6 29-7 32-6 34-7 36-5 37-4 39-4 39-3 38-1 38-1 36 1 35 2 33 3 32 3 30 4 28 6 26 3 24 10 30 12 28 17 22 20 19 24 14 26 11"/>
<path d="M3919 10164l-2-2-17 19 14 22 16 22 19 20 20 20 17 16 17 19 16 25 14 24 15 24 12 28 9 30 7 25 5 28 4 30 1 31-2 33-4 36-4 24-8 24-6 25-11 35-7 24-12 31-12 27-11 24-14 24-18 20-15 20-25-4"/>
<path d="M4246 10102l-1 0-3 28 2 26 1 26 4 28 3 26 2 29-1 29 1 31 0 31 0 32-3 29-1 30-1 28 2 32-3 31-1 24 1 25"/>
<path d="M4271 10716l 0 1"/>
<path d="M4675 10460l-1 0"/>
<path d="M5015 10236l 0-2-2-25 20-16 24-9 25-3 28 3 27 6 29 4 31 6 21 13 23 15 22 15 15 20 8 24 2 29-5 26-11 31-16 32-12 25-14 23-15 25-17 25-18 19-17 21-18 19-18 18-19 19-20 18-18 17-19 16-25 20-25 16-21 12-22 11 27-13 26-5 28-6 24-1 25 0 27 1 24 2 26 3 24 0 30 6 26 7 28 9 22 10 21 15 20 14"/>
<path d="M1305 10619l-2-2 13-21 25-2 25-1 32-1 25 0 29 0 29-2 32-1 35-3 40-3 46-6 24-2 26-3 26-3 28-4 29-4 30-4 31-5 33-4 33-5 34-6 35-5 36-6 36-5 38-6 39-5 39-5 40-6 41-5 42-5 43-6 42-5 44-5 46-5 45-5 46-5 47-4 47-4 49-4 50-3 51-4 52-4 53-3 54-2 56-3 56-2 58-3 58-2 59-2 62-3 61-2 62-4 62-3 63-2 64-3 63-3 63-2 64-3 64-4 65-3 65-3 66-4 66-5 68-6 66-4 67-6 67-5 65-5 64-4 64-4 63-4 60-3 62-4 61-4 60-4 60-3 59-4 59-4 59-5 58-4 58-5 54-4 55-4 54-5 53-3 52-4 51-4 49-3 48-3 48-1 45-2 44-2 42-3 42-2 39-1 38-3 36-1 35-4 33-1 32-2 30-1 27-1 27-1 45-1 38-1 30-1 29 4"/>
<path d="M1603 10750l 0-2 27-3 31 0 33-2 26-2 29-3 33-4 35-4 40-6 43-6 46-7 24-5 27-5 26-4 28-5 30-6 29-6 32-6 31-6 34-6 32-5 34-6 34-6 35-5 36-5 35-5 38-5 37-5 38-4 37-4 38-4 40-4 39-3 41-4 40-4 43-3 43-4 46-3 47-5 48-4 49-4 50-4 53-4 53-4 54-4 54-4 55-3 56-2 56-3 55-3 55-3 54-2 54-1 54-2 53-1 53 1 54-1 55 0 56 0 55-1 57-1 57-1 57-1 56-2 56 0 56-1 55-1 55-1 55 0 54-1 53 0 53-1 52 1 50 0 51 0 50 1 48 0 48 0 47 0 48 0 47 0 47 0 46 0 44 0 45-1 43 0 42-1 42-1 40-1 40 0 38 0 37 0 34-1 35-1 33-1 32-1 29-1 28-2 28-3 26-1 24-1 44-3 39-3 32 0 25-1 28-2"/>
<path d="M1386 12405l 2-2 21-15 19-19 18-19 19-24 13-20 13-23 14-26 14-28 17-32 18-33 19-36 22-36 18-39 18-40 19-43 15-44 16-44 8-24 13-43 9-42 8-41 6-37 1-36 1-32 1-29-5-34-3-26-14-22-25-3-26 18-21 17-22 29-13 24-15 28-12 38-15 37-15 41-14 42-12 46-5 25-5 25-4 25-4 25-3 26-2 24-1 25-1 24 0 25 3 44 5 41 8 37 9 31 11 27 13 23 13 25 21 26 22 21 21 12 28 9 26 1"/>
<path d="M1817 12238l-1-3-4-25-9-24-18-16-25-2-21 12-21 22-14 20-15 25-13 28-11 31-7 32-3 30 1 27 7 23 21 18 28 3 28-11 23-16 23-20 20-22 16-21 13-25 7-24-6-24-25 4-5 27-1 29 1 25 3 28 5 32 7 34 3 28 4 25 3 25 3 27 3 36 2 26 1 26 3 35 2 33-1 29-5 26-5 24-13 22-21 19-26 8-27-5-27-13-19-16-20-21-18-23-16-26-13-29-6-27-1-30 5-29"/>
<path d="M2171 12111l-1-1 23 12 5 25 4 25 0 25-1 26-2 27-7 25 10-24 8-27 7-24 8-24 9-23 15-26 11-24 13-22 15-24 17-20 24 7 3 29-1 24-2 29 0 25-4 27-3 25-3 31 0 28 2 25 24 4"/>
<path d="M2544 11684l-2 1-16 17-2 25 0 30 1 26 2 25 2 30-2 35 0 26 0 27-1 29 0 29-2 30-1 31-1 31"/>
<path d="M2513 12252l 0 1"/>
<path d="M2865 11984l-1 0 21-14 28-9 25-8 28-9 23-8 27-6"/>
<path d="M2900 12068l 0-1 20-15 24-8 26-9 29-5"/>
<path d="M3707 11715l 0 1 24 2 27-1 25-6 24-8 25-8 28-11 29-11 29-14 28-11 30-13 28-12 23-12 28-9 24-8 2 28-12 24-13 21-10 22-14 24-14 25-16 24"/>
<path d="M3713 11812l 1-1 19-15 27-1 26 5 24 5 26 7 28 5 25 9 16 19-2 24-10 27-13 22-16 24-21 27-15 19-17 22-20 22-20 22-21 22-22 22-20 24-22 22-19 23-18 21-16 19-21 27-17 20-16 24-12 23 7 23 22 8 27 3 32 2 29 1 33-1 35-2 35-4 24 0 35-2 34-5 32-5 31-3 32-2 30-3 28 0 29-2 28-5 24-6-12-22-19-20-25-16-21-12"/>
<path d="M4363 12315l-1 0 24 8 27-6 22-10 25-15 22-14 23-22 16-19 18-23 18-24 18-26 19-32 19-30 19-30 19-30 20-28 17-31 15-31 14-30 11-32 10-29 7-30 6-30 4-26 0-27 0-25-3-34-3-27-9-24-13-22-25 7-19 22-13 25-11 26-12 30-11 33-9 25-6 30-7 34-6 38-5 40-4 40-3 41-3 40-1 39-1 37 0 35 1 32 1 30 3 25 3 33 6 26 13 27 18 18 28 2 24-8"/>
<path d="M4894 12158l 1-1 9-26 3-25-15-21-25-11-28 0-24 7-21 12-17 17-17 24-13 24-8 27-6 25 1 28 13 25 25 12 27-2 25-7 25-14 22-20 16-19 15-22 8-23-7-24-22 13-11 21-3 25 0 28 4 28 4 29 5 24 3 28 4 32 2 31 1 28-1 32-2 37-2 34-4 35-4 34-6 32-8 29-8 26-9 25-13 24-21 17-23 9-25-6-18-20-16-27-12-24-9-26-6-27-4-28 0-26 1-25 5-24 6-26 12-23"/>
<path d="M5187 12045l 1-2 13-20-6 24-9 25-9 25-10 27-6 23-5 26-4 27 0 25 12 24 26 5 26-10 23-19"/>
<path d="M5212 11887l-2 0"/>
<path d="M3758 12535l-1 1 2 24 1 25 3 24-2 27-5 27-7 27"/>
<path d="M3776 11362l 0 1-2 27-3 25-1 29-2 26-1 25 5-27 11-23 9-24 10-27 10-22 12-21 15-23 21-15 17 19 6 26 5 27 4 26-2 24 3 25"/>
<path d="M5813 11821l 1 0-22 14-21 11-22 10-22 10-26 12-22 13-24 13-22 12-24 16-23 14 24 5 23-6 27-2 28 1 27 3 25 4 23 12 21 11 21 13 13 20"/>
<path d="M5596 12048l-1 0 24-1 25 6 25 4 24 4 26 4 25 4 21 15 20 15"/>
<path d="M6126 11977l 0-2 11-21 17-18 22-12 24 2 13 22 1 24-3 27-6 29-9 29-9 28-11 34-8 23-6 24-11 32-11 27-12 23-11 24-11 22-1-29 5-27 9-32 8-23 8-24 9-25 11-25 10-24 13-21 11-23 12-22 16-29 15-29 15-23 17-22 17-17 21-19 21-15 23-10 24 5 14 24 4 26-3 30-4 26-7 28-6 29-8 31-6 31-6 29-6 31-4 29-2 25 0 27 6 27 18 16"/>
<path d="M6511 12193l 1 2 21 14 24-8 24-16 16-21 15-20 17-22 20-29 13-22 16-26 16-26 15-28 16-30 18-30 16-32 16-32 16-32 13-31 11-34 7-34 7-33 4-35 2-32 2-31-1-28-2-31-6-27-13-21-27 1-25 18-16 17-16 28-16 28-10 24-11 22-10 30-9 34-9 36-8 37-8 38-6 38-4 40-3 40-2 39-1 36 2 35 2 31 3 26 5 28 10 31 13 27 17 22 22 15 25 7 27 0"/>
<path d="M6973 11987l 0-2-13-23-25-4-26 9-23 12-23 18-20 20-16 22-13 21-10 25-6 23-1 25 9 27 24 13 26-2 25-14 21-13 23-19 16-21 11-22 2-26-25 5-8 26-2 27-1 32 3 24 3 28 4 28 3 31 5 31 4 32 4 34 4 31 3 34 3 35 1 24 0 35-2 34-3 32-5 29-8 29-11 23-18 23-21 18-26 11-27 2-28-8-27-13-26-20-19-22-17-26-17-28-13-34-7-33"/>
<path d="M7207 12007l 0-1 9 24-2 26-4 26-5 27-1-25 11-28 12-22 13-23 13-22 15-22 15-25 17-24 16-19 19-22 20-18 22-13 25 9 8 22 2 31-2 30-4 26-4 29-3 30-3 28-1 26-1 25-1 25 0 31 3 24 8 26 20 16"/>
<path d="M1526 14052l-1-1-6-25 10-26 11-22 12-25 15-25 14-22 15-21 17-19 24 10 5 24 4 31 0 32 0 29-3 25-4 33-4 34-6 30-5 28-6 28-6 24-6-23 6-30 4-34 6-23 5-25 7-24 8-24 7-24 8-25 12-33 12-28 11-25 10-25 12-22 13-22 19-18 19 19 3 27 2 28-4 31-4 32-3 28-4 34-3 29-6 28-2 24 0 26 1 26 1 30 3 25 7 24 27-6"/>
<path d="M1965 13555l-1 1-16 19-3 32 0 32 0 27 3 31 3 36 1 26 3 28-1 26 0 27 2 27-2 26 2 26 1 26 0 24 3 31 2 26"/>
<path d="M1947 14229l-2-1"/>
<path d="M3205 13692l-2 0-25 8-17 16-15 21-12 28-10 27-9 30-8 24-4 24-3 27-3 29 0 29 3 32 4 28 10 27 9 26 12 21 17 29 23 22 25 17 27 11 29 8 29 1 30-3 30-8 30-14 28-20 19-16 19-17 16-21 16-22 14-23 10-22 10-24 7-25 7-25 4-29 0-36-8-35-10-22-12-25-16-24-16-23-16-22-18-20-18-16-19-15-28-13-29-7-29-2-28-1-26 4-25 5-27 6-21 12"/>
<path d="M3903 13431l-2 0-18 17-15 20-16 23-13 20-11 25-13 30-9 25-11 28-9 31-10 34-11 36-9 37-8 40-9 39-4 39-6 38-2 35 0 35-1 33 3 32 3 32 6 30 6 28 8 26 9 24 14 33 17 30 19 25 19 21 18 18 26 20 27 16 25 13 25 5"/>
<path d="M2638 13764l-2 1-25 1-27 7-22 11-23 14-22 20-17 22-13 26-11 29-5 28-3 25 2 27 14 24 22 14 21 12 28 4 27-1 26-3 25-7 26-10"/>
<path d="M2518 13938l 0-1 27-6 25-7 24-6 24-5 23-7 28-4 31-1"/>
<path d="M4096 14065l 0 1 25 1 28-4 27-4 24-5 24-9 28-8 26-9 22-9 22-16 21-18 16-22 13-23 4-26-16-22-23-15-26-10-29-3-28 3-27 9-29 15-26 16-20 15-20 21-19 24-15 24-11 27-5 29 0 30 0 24 5 28 9 27 13 23 17 19 22 17 25 15 24 9 29 3 28 3 29 0 31-7 24-9 25-12 24-13"/>
<path d="M4507 13650l-1-2 11-23 18-18 21-12 12 25 3 25 0 31-3 24-2 30-6 28-5 23-8 25-7-23 8-26 12-27 9-23 11-24 11-24 13-24 13-25 13-24 13-21 16-25 19-20 20-16 16 18-2 26-1 27-1 27-4 25-3 25-4 27-1 28 2 26 5 24"/>
<path d="M4847 13736l 0 2 8 23 25-4 18-17 19-19 18-20 19-20 19-23 16-19 15-23 15-22 13-26 11-25 12-27 9-27 10-32 6-31 0-31-2-29-7-27-10-28-18-17-27 3-21 16-16 22-15 27-10 29-6 25-6 30-6 32-3 35 0 34 1 34 3 32 5 28 7 25 13 27 14 21 18 17 27 6 27 3"/>
<path d="M5206 13564l-1-1-19-19-25-6-23 9-17 22-13 28-11 28-5 25 1 26 15 23 25 6 25-14 21-15 17-21 10-24-2-27-19 20 5 26 2 26 3 25 2 29 1 28 1 28 1 25 1 25 3 29-3 31-3 29-6 25-11 25-11 21-19 16-28 1-24-13-18-18-10-23-7-24-1-26 7-25 10-25"/>
<path d="M5303 13560l-1 1-3 26 2 28 1 24-3 27-4 26-5 25 5-25 8-24 11-26 12-27 11-28 11-23 15-24 13-20 16-18 25 3 9 25-1 29-5 28-2 28-2 27-2 27-1 25 4 25 14 24"/>
<path d="M5532 13365l-1 0 11 25 14 20 18 25 13 21 14 22 15 23 16 26 17 27 17 28 17 31 16 31 13 30 12 30 12 31 9 31 7 33 7 34 6 35 5 36 3 35 1 35 0 35 0 32-2 34-4 36-5 35-5 35-7 35-8 33-9 32-10 36-10 29-9 25-10 23-14 23-12 21-15 19-25 3-12-23 3-24"/>
<path d="M5996 13914l 0 1 27-8 28-7 30-4 26-5 26-4"/>
<path d="M6039 14022l-1 0 26-12 26-11 29-9 25-7 28-8"/>
<path d="M6588 13729l-2-1-23 6-14 21-11 23-11 24-9 25-10 29-9 34-6 25-4 27-5 27-3 26-2 32 0 30 3 29 5 29 9 32 14 24 17 17 22 10 26 4 33-3 25-7 25-13 25-13 24-17 25-16 23-20 22-20 21-21 17-20 15-21 19-29 12-28 7-27-1-29-6-25-13-25-18-26-22-29-17-19-17-19-19-16-19-15-28-20-28-12-27-9-25-4-27-1-24 5"/>
<path d="M7158 13456l-2-2-26-3-19 17-17 26-16 29-12 25-14 33-9 25-10 25-9 28-9 29-8 28-8 31-7 32-6 32-5 34-6 32-3 32-3 31-1 30 1 29 1 28 2 25 3 27 5 25 6 24 10 32 12 28 12 27 15 23 13 21 18 24 21 22 17 17 21 18 18 20 17 19 18 20 19 19 20 14"/>
<path d="M7226 13775l 1-2 13-20 18 18 4 27 0 33-3 28-5 29-5 27-8 31-8 30-11 32-10 30-10 27-9 24-10 23-10 23 5-29 7-32 8-27 10-28 11-28 12-30 14-29 14-30 15-29 15-26 15-25 14-25 14-20 17-22 18-20 18-18 21-12 18 17 5 29-2 30-4 30-4 25-5 26-8 27-8 31-9 30-10 31-9 27-7 26-7 25-6 27-6 25-2 25 27 2 23-15"/>
<path d="M7587 13648l-1 1-11 23-5 25-5 25-8 24-10 25-13 20 10-25 14-22 15-22 14-21 15-19 18-23 15-21 18-17 5 26 5 26 3 24 1 24-1 27-2 25 5 26"/>
<path d="M7741 13446l-1-2 13 22 14 22 12 22 12 25 12 30 8 24 9 25 7 25 7 24 7 25 8 31 4 25 2 28 0 29-1 32-3 35-3 24-6 24-5 25-6 24-5 24-5 24-7 23-8 33-10 34-9 30-9 25-12 27-14 26-17 21-18 18"/>
<path d="M8565 14186l 0 0-8 23-5 26-7 27-10 31-8 25-8 25"/>
<path d="M8846 14018l-2 1-22 12-17 17-12 22-9 24-5 24-3 29 6 26 12 23 22 13 26 4 24-2 26-9 27-17 19-16 19-22 15-23 2-25-14-23-22-14-24-15-22-12-24 0 24-9 27-12 25-10 28-13 23-13 24-19 24-19 25-22 21-18 21-24 20-25 16-22 13-23 10-24 7-28-1-25-3-25-9-26-14-20-25-4-24 19-18 25-13 25-12 32-8 26-5 27-4 29-5 30-1 29-2 30 0 31 1 29 3 27 4 26 7 34 10 31 13 25 13 23 21 16 24 0 24-12 13-23 7-27-1-26-11-26-16-22-22-12 19-16 24-9 24-10 22-12 19-15 1 26 4 26 5 26 7 26 11 26 16 22 20 16 21-22 14-24 14-23 12-22 11-25 10-22 12-28 7-25 7-24"/>
<path d="M9505 14127l-2 0"/>
</svg>
