<svg xmlns="http://www.w3.org/2000/svg" viewBox="743 2538 8109 3021" stroke="black" stroke-width="16" stroke-linecap="round" stroke-linejoin="round" fill="none" data-xena="0 0 0"><style>@media(prefers-color-scheme:dark){svg{background-color:black;stroke:white;}}</style>
<path d="M1000 3102l 1-5-4-31-7-31-6-24-11-29-10-25-15-24-26-4-17 20-14 27-14 31-13 34-6 24-5 24-3 24-4 25 5 33 6 26 16 27 19 18 26 11 27 0 25-9 22-16 22-9 16 20 8 29 7 29 2 26 0 31-4 34-1 25-3 28 0 29-3 29-4 29-5 30-5 29-4 30-5 29-6 27-5 25-9 33-10 28-16 19-26-1-17-21-13-28-7-24-5-28-7-31-4-32-1-33 0-36 5-36 4-39 6-41 8-41 10-40 10-37 13-35 15-31 13-30 15-26 16-21"/>
<path d="M1238 3042l-1-1-23 12-18 19-16 20-17 26-13 22-10 23-10 23-8 29-1 25 6 27 20 17 22 11 26 2 24-4 27-8 29-14"/>
<path d="M1499 3053l-2-2-21-13-26-7-27 4-22 19-19 20-14 21-12 24-8 25-7 26-1 26-2 30 6 27 18 19 27 1 23-14 20-19 19-24 16-28 15-31 8-33 6-34 1-35-3-27-3-30-3-32-3-35-2-36-2-35-2-33-1-29-2-28-1-25-3-30-3-25-5-26-6-23-9 27-2 29-3 36 0 27 0 28 1 29-1 30 1 33 1 34 1 34 3 34 3 31 4 27 5 25 8 33 9 31 9 29 9 27 10 27 14 25 20 20 25 8"/>
<path d="M1987 2695l-2-1-26 3-22 12-21 17-24 24-16 21-15 25-16 29-16 31-15 34-15 37-15 38-12 40-10 39-11 37-6 38-3 36-2 34 3 33 3 28 5 27 9 24 10 22 19 29 22 25 27 20 30 17 24 10 24 9 23 8"/>
<path d="M2186 3207l-4-2-23-13-24-6-26 6-24 14-22 20-15 20-14 22-9 30-2 25 1 27 10 22 25 9 29-3 26-11 24-17 19-18 18-20 5-24 2 25 7 28 9 24 18 19 22 15"/>
<path d="M2344 3357l 2 0-7 26-6 23-10 25-12 28-12 23-10 25-13 24"/>
<path d="M2584 3293l-1 1 8 23 24 3 26-13 22-17 18-16 17-17 17-19 19-20 15-20 15-21 14-21 13-22 10-23 11-34 5-35 1-25 0-24-2-25-3-25-3-33-4-27-7-26-13-21-24 7-17 27-13 23-8 24-7 25-7 30-1 33-4 30-1 29-1 30 1 29 3 29 6 28 8 26 8 23 12 31 10 25 16 20 24 18 23 12 25-1 20-17 10-26 2-25-4-27-7-27-12-24-18-20-19-16 24 8"/>
<path d="M3017 3323l-2 1-5 24-10 26-15 25-13 26"/>
<path d="M3308 3094l-2 0-27 7-19 15-16 24-8 26-3 28 3 29 10 22 18 19 26 12 24 4 27-2 29-6 30-12"/>
<path d="M3428 2765l 0 0 18 17 19 19 23 22 16 20 20 22 21 24 19 27 17 30 13 32 8 23 12 32 9 30 8 30 5 31 6 33 2 34 0 34-2 25-6 35-5 25-6 24-8 33-10 33-11 32-10 28-10 25-12 21-16 21"/>
<path d="M4787 2879l-1-1 15-20 16-18 21-13 25-3 25 8 15 20 0 29-5 26-11 30-9 23-9 23-9 22-10 24-11 22-11 27-8 26-6 25-2 29"/>
<path d="M4844 3320l 0 0"/>
<path d="M5996 3386l-1-1 23-16 20-13 25-18 22-22 18-22 22-25 15-20 17-22 17-22 17-25 17-26 15-25 14-26 12-25 11-28 9-28 8-30 7-30 5-29 5-26 2-34 1-29-1-26-4-25-12-23-25 10-19 30-12 24-13 29-13 32-13 37-13 38-12 40-11 38-8 37-7 37-5 35-3 34 0 31 3 27 5 26 10 31 13 25 22 22 27 14 28 5"/>
<path d="M6489 3140l-3-1-28 2-24 9-23 15-17 18-15 25-11 22-10 24-7 24-5 23-2 28 5 25 16 21 22 12 31 3 31-5"/>
<path d="M6702 3179l-1-2-21-11-21 11-19 20-15 22-12 22-10 26-7 25 1 24 21-17 8-26 10-26 11-22 15-24 15-20 17-20 18-17 23 9 2 25-5 27-10 25-8 22-10 25 15-22 17-24 17-27 19-24 15-23 16-22 18-17 19 16-5 29-7 25-9 25-9 25-7 26-1 26 24 5 25-9"/>
<path d="M7388 2715l 0-2-11-24-25 1-20 14-21 19-24 28-17 22-18 25-19 28-18 30-18 34-18 36-17 39-16 39-14 37-12 38-11 36-7 35-5 33-2 31-1 30 2 28 3 25 8 31 10 25 16 26 19 20 20 15 23 8"/>
<path d="M7450 3180l-2-3-15-22-17-20-24-10-26 11-21 18-18 24-17 26-12 24-7 25 11 23 25 6 28-4 24-6 23-11 18-18 3-25 1 24 9 24 18 20"/>
<path d="M7616 3305l-1 1-17 17-17 22-15 24-11 21"/>
<path d="M7926 3106l-1 0-26-6-26 12-22 14-20 16-18 19-16 21-12 22-8 25 3 25 14 22 19 16 24 9 25 3 30 0 32-4 23-5 30-11"/>
<path d="M7740 3240l-1 0 27-11 19-16 22-18 24-22 21-19 21-22 19-24 18-24 16-26 12-26 10-30 7-32 6-34 5-34 3-28 4-26 0-24-7-23-25-2-21 20-18 21-20 28-18 31-11 24-12 25-10 28-9 28-9 26-7 27-5 25-6 24-2 24-2 34 1 31 3 29 6 25 11 27 12 24 17 20 22 14 24 7 24 0 21-15 16-24 8-24 2-26-6-29-7-24-10-24-15-22-22-11 6 24 25 7 26 2 28-2 25-3"/>
<path d="M8125 3336l 0 1-6 24-12 26-14 22-18 26-14 21"/>
<path d="M8450 3177l-2-1-26 4-23 11-22 15-17 17-18 21-14 25-9 28 0 25 10 22 19 16 23 6 25 3 28-1 32-6 25-8 27-10 27-12"/>
<path d="M8581 2812l 0 0 17 19 17 19 22 23 19 19 19 25 18 25 16 28 14 27 12 27 8 27 4 24 2 27-1 29-5 30-7 29-10 27-15 29-16 30-20 29-20 30-20 28-20 28"/>
<path d="M957 5047l 0-1 24-3 21-16 21-24 20-29 19-24 21-29 22-31 28-33 25-39 25-38 13-22 24-40 21-41 18-43 13-41 13-40 9-39 6-38 5-38 3-36 0-34 1-30-1-25-4-29-8-22-28 8-16 23-13 22-14 28-14 33-14 38-15 42-15 46-7 25-7 26-8 27-7 27-7 29-6 30-7 30-5 31-5 31-5 33-5 33-5 32-5 33-3 31-2 32-3 30-3 31-1 29 0 29 1 28 3 28 2 26 2 28 3 25 11 45 9 41 11 38 12 31 11 28 12 25 18 25 19 17 24 1 13-24 8-33 5-28 2-33 3-36 1-37 0-38-2-35-3-33-4-30-5-28-5-28-6-23-9-29-10-27-10-21"/>
<path d="M1429 4806l-3-2-25-12-26 3-22 16-17 22-16 27-12 24-12 25-7 26-4 27 17 20 24 0 22-11 18-17 15-25 9-23 2 26 8 24 18 17"/>
<path d="M1678 4806l-3-1-24-3-22 16-18 21-15 23-11 23-8 26 2 28 14 20 27 10 26-1 29-7 27-12"/>
<path d="M1922 4489l-2-2 10 25 6 28 1 29-3 25-5 31-9 34-9 24-10 26-11 26-11 27-10 25-11 25-9 22-11 33-8 30-2 24 2 27 13 23 27 10 29-3 25-7 28-13 27-16 24-18 24-20 20-22 16-23"/>
<path d="M1884 4733l-5 2-25 9 19 16 29-4 25-6 25-6 25-7 25-6 29-6 25-3 20 14-11 25-11 23-8 26-5 28 2 29 8 23 21 16 27 0 27-14 21-20 19-22 11-25-3-27-20-19-21-14-23-6-28 2"/>
<path d="M2259 4737l 0 0 22 16 24 11 14 20-17 17-21 21-16 19-16 23-10 22 5 24 24 10 27 1 25-1 28-3"/>
<path d="M3098 4866l-2 0 24-7 23-13 25-18 21-15 22-18 24-21 26-23 25-25 25-27 24-27 24-28 22-29 18-28 17-29 14-28 10-27 7-27 5-27 3-28 4-28 2-25 2-34-1-29-6-24-24 3-17 25-15 25-14 34-12 29-12 32-13 34-15 37-12 38-11 38-9 36-9 34-6 31-6 28-3 27-1 25 1 32 4 26 12 28 15 21 20 16 30 5"/>
<path d="M3567 4736l-1-1-20-13-26 3-20 16-18 21-20 23-12 21-13 28-10 28-4 27 8 26 23 13 29 0 29-8"/>
<path d="M3712 4773l-1-1 0 28-5 31-8 27-9 28-10 24-8 23 20-24 16-23 16-27 19-23 17-20 17-21 16-18 3 26-7 25-9 25-10 21 21-11 19-19 21-22 17-18 19-20 21-18 22-13 17 18 0 27-2 27-3 24-1 26-1 26 4 25 14 21"/>
<path d="M4057 4936l 0-1"/>
</svg>
