<svg xmlns="http://www.w3.org/2000/svg" viewBox="1752 1843 18054 13645" stroke="black" stroke-width="16" stroke-linecap="round" stroke-linejoin="round" fill="none" data-xena="0 -1 0"><style>@media(prefers-color-scheme:dark){svg{background-color:black;stroke:white;}}</style>
<path d="M1955 2160l 8-23 24 6 5 25-1 33-5 32-4 24-7 27-7 29-8 31-8 32-9 33-9 34-9 34-11 36-10 34-9 34-9 30-7 30-7 25-8 32-6 25-3 28"/>
<path d="M2136 2543l 18 18 25 9 24-2 27-8 22-14 20-16 18-17 16-18 14-23 5-24-13-23-22-10-31 1-28 8-22 11-24 13-22 16-23 18-21 22-18 27-14 27-10 27-5 31 3 30 10 27 19 23 26 17 23 7 28 2 29-4 32-9 23-8 22-10 22-12 23-12 21-12"/>
<path d="M2617 2165l-15 20-12 22-9 25-11 28-12 35-9 26-10 28-10 30-10 31-10 30-9 32-8 29-5 31-3 28-1 26 3 34 8 28 12 21 19 21 23 9 26 1 29-6 28-14 23-16 18-18 13-25 0-27-14-26-20-19-24-17-24-11-28-3-26 7-23 12"/>
<path d="M3668 2256l 5-25 4 28-9 29-8 23-10 25-12 28-11 30-11 29-12 31-10 28-9 28-7 28-6 26-5 32-1 27 4 24 13 21 26 11 26-7 27-15 21-17"/>
<path d="M3569 2432l-26 2 27-12 24-11 27-12 27-12 26-13"/>
<path d="M3803 2402l 20-14 25-6 25-5 27 3 10 23-18 19-19 17-16 18-18 18-17 19-16 18-14 24-3 24 13 24 27 7 29-4 25-8 30-12"/>
<path d="M4105 2415l-20 19-15 22-13 23-12 24-7 26-3 24 18 19"/>
<path d="M4157 2246l-23 8-13 23 3 25"/>
<path d="M4353 2449l-11-22-15-20-18-20-24-13-24 0-25 11-19 16-19 21-16 22-12 22-6 25 11 22 23 9 25-3 27-9 26-9 24-13 17-17-22 14-1 26 17 19 25-7 22-16 24-19 18-22 17-19-5 23 10 23 24-10 23-17 20-19 18-19 16-18 3 25 3 27 7 24 17 19 25 8 28-2 23-5 138-104 11-22 3-27-6-24-22-13-21 16-20 19-17 18-19 23-15 24-12 27-1 25 21 17 26-3 26-8 24-11 22-12 8 25 0 29-2 29-3 32-3 32-4 27-6 28-7 30-8 36-10 34-8 24-10 23-10 24-12 23-11 24-11 21-19 27-19 21-18 16-23 13-24-10-10-24-1-26 1-34 3-24 4-25 4-29 8-28 10-29 11-30 13-24 11-24 11-22 17-30 18-30"/>
<path d="M4855 2498l 23-5 23-9 27-15 22-14 23-19 24-22 23-25 23-27 19-27 15-26 11-28 9-29 6-30 3-29 1-30-1-26 0-30-8-23-23 9-16 24-14 27-15 31-9 24-8 26-9 28-8 28-7 29-8 27-3 28-2 24-1 24 1 32 5 26 15 25 18 17 23 9 27 1 30-8"/>
<path d="M5173 2424l 23-11 25-13 22-13 22-18 9-21-5-24-18-17-23-9-25 9-21 19-19 21-13 22-9 28-2 29 4 27 13 22 18 16 23 12 31 9 28 4 33-1 35-5 26-6 29-8"/>
<path d="M6099 2279l 23 10-1 28-5 28-5 28-7 29-9 24-10 24-13 25-11 24 15-22 13-22 15-28 17-30 17-26 16-23 19-25 18-21 20-21 19-19 21 13-3 29-7 28-11 30-8 24-6 29-6 25-2 26 17 17 20-12 24-21 19-18 19-20 20-20 19-18 21-22 18-21 12-22-24 9-13 23-9 23-7 26-5 24-1 24 15 20 26-8 21-15 23-20 18-19 17-17 18-24 15-21 11-23 1-25-15 21-9 27-7 26-4 27-3 28 1 25 21 13 19-15 19-20 19-24 18-19 18-24 14-21 15-24 12-23 0 26-7 28-8 25-8 26-4 25 22-11 20-25 17-20 15-22 19-24 14-21 18-21 11 22-6 25-12 27-10 27-11 24 30-7 20-19 21-22 23-22 21-22 19-19 18-18 19-19 20-18 9 24-3 24-7 26-7 29-8 29-7 28-1 27"/>
<path d="M6949 2363l 22-11 25-16 25-19 20-16 20-18 22-18 22-19 21-19 21-20 19-19 17-18 16-19 19-29 14-30 11-31 8-31 6-28 0-28-4-27-28-1-19 19-18 22-19 28-12 23-12 25-13 27-13 27-11 28-14 29-9 28-9 28-7 27-3 26-4 24-2 30 3 25 11 26 17 17 24 7 26-3 22-10 21-20 13-21 10-22 0-28-9-22-13-21-19-19-26-13-25-4-22 10 13 20 23 12 25 6 28 5"/>
<path d="M7291 2273l 23-8 24-12 20-18 16-20-14-22-27-9-25 2-25 7-24 14-21 21-16 21-11 24-3 26 4 24 12 21 16 18 26 13 27 5 25-2 30-4 25-7 29-13 26-14 21-19"/>
<path d="M7497 2221l 23-12 25-1 23 5-14 22-21 18-19 16-20 19-22 19-13 22 15 20 28 0 24-8 27-12 22-12 22-13 24-16 21-16 19-18 18-18 19-20 17-23 13-21 7-24-21 19-9 26 5 28 8 27 15 25 11 21 11 22 2 25-18 19-29 3-24-2-27-5-24-7 26-13 28-2 25-2 30 0 28 0 26 3"/>
<path d="M2425 4564l-5-25 5-23 11-22 14-22 18-19 20-17 22-11 21 13 9 25 2 30 1 25-1 28 1 29 0 31 2 30 2 29 4 27 4 24 6 25 10 22 20 18 25-6 23-19 22-22 17-20 15-23 16-22"/>
<path d="M2718 4385l-20 16-19 22-17 23-19 28-14 22-13 21-15 23-13 21-14 23-14 24-12 24-13 24-13 24-12 25-12 23-12 23-16 29-12 24-10 23"/>
<path d="M2841 4744l 10 24 1 26-4 26-5 23"/>
<path d="M3202 4515l"/>
<path d="M3593 4197l-22 17-17 23-16 27-14 26-14 30-15 32-8 22-7 24-7 23-6 25-5 25-5 24-3 25-3 35-1 33 1 29 3 29 3 25 10 30 12 25 16 24 22 18 21 11 26 4"/>
<path d="M3653 4437l 8-25 23-14 24-6 23 7 17 18 13 25 11 26 7 30 5 29 7 27 10 23 12 23 14 20 21 12 27 1 22-11 22-16"/>
<path d="M3941 4340l-24 6-21 17-20 24-17 22-16 25-19 29-14 22-14 24-15 26-15 25-14 25-13 25-13 22-14 31-9 26"/>
<path d="M4097 4606l-8 26-6 27-6 29-4 25-3 24"/>
<path d="M4297 4433l 27 2 27-3 26-3 28-3 26-5"/>
<path d="M4361 4379l-5 25 0 25 3 25 4 27"/>
<path d="M4619 4290l 2 24 2 28 1 28 2 31 1 31 0 31 1 25-2 30-4 26-3 27 0 24"/>
<path d="M4673 4112l 23 5 24 11 25 15 19 15 20 19 19 21 19 22 18 22 15 22 15 22 15 21 13 21 10 22 6 30 1 30-5 32-6 27-15 29-18 28-15 20-14 20-14 21-15 19-23 26-27 22-25 22-26 18"/>
<path d="M2309 4969l 27-8 26 2 25 2 33 2 26 3 30 2 34 1 39-1 44-2 24-2 26-2 27-2 28-3 29-2 30-3 31-2 31-3 33-2 33-3 34-3 34-3 35-2 33-2 35-3 35-2 34-1 36-2 35-1 35-3 35-1 35-2 34-2 37-1 35-2 37-2 35-1 37-2 36-2 36-1 37-1 36-2 36-1 34-2 35-1 36-1 34-1 35-2 33-1 34-1 32-1 33-1 32 0 31-1 31 0 30-1 29 0 28-1 28 0 27-1 26 0 25 0 24 0 45-1 44 0 40 1 35 0 33 1 28 2 24 1 31 2 26 1 25 2 24 1-30-3"/>
<path d="M3463 5136l 27-6 27-2 26 0 26 4 20 15 0 25-13 25-18 25-19 20-19 19-21 18-22 18-25 19-22 16-19 17-21 19-21 18-18 17 24 7 26-1 27 0 27 0 25-3 26-2 27-3 28-5 30-6 32-6 31-5"/>
<path d="M5270 4863l 24-7 24-3 31-4 27-5 25-5"/>
<path d="M5341 4837l 1 26 1 25 1 29 3 28 5 28"/>
<path d="M5994 4449l 10-23 13-21 20-15 25-5 24 12 14 19 11 28 8 25 8 29 5 27 7 29 10 23 24 15 27-2 24-12 21-15 19-16"/>
<path d="M6249 4318l-25 14-20 19-18 18-19 22-20 25-15 20-16 22-15 23-18 24-16 24-15 25-14 24-13 22-14 29-7 24"/>
<path d="M6383 4544l 24 5 23 9 20 15-8 23-18 20-18 17-15 21 22 9 27-6 27-8 27-7"/>
<path d="M6864 4044l-27-2-22 20-17 20-18 26-21 28-13 22-13 24-12 26-12 26-11 29-9 28-10 29-7 31-7 29-6 30-5 29-3 28-2 26 1 25 4 31 7 28 9 23 17 23 18 18 24 10"/>
<path d="M6922 4306l 11-22 24-5 27 7 25 15 21 19 11 22 10 24 10 26 7 25 10 25 12 25 15 26 16 18 24 10 28-1 28-10 22-15 22-19"/>
<path d="M7151 4238l-24 10-19 16-18 16-20 22-22 24-15 19-17 19-17 22-18 22-16 24-15 23-13 23-12 23-13 29-6 24"/>
<path d="M7397 4482l 23 11 25 7 24 9 8 22-18 21-21 18-23 17-18 16-7 24 24 6 25-8 28-10 25-7"/>
<path d="M7683 4355l 28-2 29-3 24-3 26-4 26-6"/>
<path d="M7743 4303l-8 24 6 24 7 25 12 22"/>
<path d="M8003 4152l 0 24 2 26 4 25 3 24 3 27 4 29 1 28 0 25-1 25 0 24 9 22"/>
<path d="M8100 3941l 22 13 20 15 23 21 21 18 22 20 24 21 23 23 21 23 19 26 18 25 15 28 11 27 9 29 6 28 4 29 0 27-2 30-6 28-12 29-16 28-18 29-21 25-24 23-26 21-26 19-28 15"/>
<path d="M5922 4826l 28-4 25-1 33-2 34-1 28-2 31-3 34-3 38-4 41-5 48-5 26-3 26-3 28-3 29-3 30-3 31-3 32-2 31-2 32-3 33-2 35-2 35-2 36-2 37-2 36-3 40-2 37-3 38-1 37-2 38-1 37-1 38-2 37 0 38-1 37-1 38-1 38 0 37-1 38-1 37-1 37-1 37-1 37-1 35-2 36-1 34-1 34-2 34-2 33-1 31-1 30-2 30-2 29-2 29-2 27-1 28-1 26-2 25-1 24-2 45-2 39-3 36-3 35-2 34-1 29-2 25-1 28-3 27-1 26 2"/>
<path d="M7013 5017l 25-5 26 1 24 9 22 13 15 20-6 23-16 20-18 17-21 19-23 21-24 17-21 15-19 18-19 18 11 23 28 3 26-3 26-6 31-6 28-6 33-8 25-5 27-6"/>
<path d="M8707 4619l 18-16 26-8 24-6 29-7 29-5 25-4"/>
<path d="M8784 4532l 2 30 2 31 1 25 1 25 2 25"/>
<path d="M9502 4217l-4-25 5-25 13-23 15-22 21-18 22-13 26-6 22 12 10 26 2 30-2 28-2 31-4 25-4 25-3 31 2 29 4 24 7 23 12 21 25 12 28-12 21-13 23-16 23-20"/>
<path d="M9717 4115l-22 17-21 23-18 21-20 23-24 27-17 18-17 19-19 21-16 19-17 20-21 27-19 25-13 21-13 24"/>
<path d="M9830 4342l 23-8 29-4 29 1 24 2 26 7-1 25-22 13-22 14-24 12-20 14 25 6 25 4 23 10 21 15 1 25-12 22-17 19-22 20-25 16-25 10-24 6-26-2-22-15"/>
<path d="M10304 3910l-24 14-20 20-17 19-22 26-13 20-15 22-12 24-14 25-13 25-11 27-10 27-8 27-6 30-5 28-3 28-2 26 0 35 6 31 9 29 13 23 16 24 19 17 24 7 29-2"/>
<path d="M10336 4104l 15-21 23-16 23-12 23-6 27-2 27 5 21 13 20 22 10 22 6 30 6 26 6 31 2 24 4 28 5 24 9 26 18 23 25 11 28-4 22-10"/>
<path d="M10641 3995l-22 10-22 21-23 22-21 21-21 25-16 19-15 19-14 21-13 21-13 21-12 21-20 30-15 30-12 27"/>
<path d="M10813 4185l 27 4 26 6 25 6 25 9 19 16-21 17-23 12-26 9-23 12 15 20 26 0 25 2 24 6 10 22-13 23-23 20-20 14-24 15-27 9-24 1"/>
<path d="M11070 4071l 26-5 24-3 25-5 25-9"/>
<path d="M11140 3986l-14 20 0 28 0 24 6 24 5 26"/>
<path d="M11411 3867l 7 26 6 29 7 25 7 31 2 25 3 29 0 27-1 28-2 25-5 25-4 25-9 26-6 25"/>
<path d="M11515 3741l 25 4 25 13 23 13 24 22 17 21 22 24 19 27 16 28 17 31 15 31 10 22 10 34 8 31 6 30 3 31-2 32-4 29-10 28-13 28-19 28-18 19-18 19-20 18-21 18-20 17-23 17-25 16-25 14-27 12-28 13"/>
<path d="M9454 4656l 25-6 25-1 25 0 30-1 37-1 28-1 31-1 36-2 39-3 44-2 47-5 25-2 25-2 26-3 29-3 29-3 30-3 31-3 31-2 33-3 33-2 35-3 35-2 35-2 35-2 37-3 37-1 38-2 38-3 39-2 37-1 38-2 41-1 40-2 40-1 40 0 41-1 39-1 41-1 40 0 39 0 38 0 38 0 37 0 35 1 34 1 35 0 34 0 32 0 32 1 30 0 31 0 29 1 29 0 27 1 27 1 26 0 26 0 46 0 46 1 41 0 36-1 36 1 32-1 27 0 28 0 29-3 26 0"/>
<path d="M10410 4816l 22-11 29-4 27-1 29 3 26 7 20 13 3 26-15 22-23 21-23 16-26 18-27 17-23 18-27 20-30 18-23 17-23 20-21 19 7 24 28 2 27 0 29-3 25-2 25-4 26-5 30-6 31-7 30-7"/>
<path d="M12057 4575l 23-10 29-4 28-5 24-5 23-6 24-7 29-11"/>
<path d="M12198 4448l-11 24 0 27 3 29 2 25 1 26"/>
<path d="M12761 4137l 14-22 17-17 22-13 25-5 20 15 14 20 8 27 6 24 10 24 7 26 8 29 7 25 12 25 17 21 22 13 28 1 30-7 22-11"/>
<path d="M13051 4020l-15 20-18 25-23 23-18 18-21 19-20 20-22 20-22 20-21 21-18 21-18 21-14 20-18 27-12 24"/>
<path d="M13186 4293l 8 24 4 24-4 25-10 22 10 25 23 9 27 4 26-3 26-4 23-6 25-6 25-11"/>
<path d="M13307 4338l 3 24 2 28 2 24 2 25 2 25 1 25"/>
<path d="M13781 3806l-25 10-21 22-20 23-23 27-16 19-15 22-16 22-17 25-16 25-17 25-13 27-14 26-10 29-9 27-7 28-6 26-7 26-2 25-1 24 5 34 8 30 10 27 14 24 15 22 19 18 19 16 22 13"/>
<path d="M13763 4108l 11-23 22-13 26-5 24 13 18 17 14 25 8 28 4 25 6 28 11 28 6 25 8 26 15 21 21 15 26 4 25-5"/>
<path d="M14033 4035l-23 8-28 15-22 17-25 21-19 15-19 16-20 16-19 18-17 18-19 19-18 20-19 19-16 19-17 25-9 28"/>
<path d="M14100 4259l-17 17-17 20-16 21-15 22-9 23 10 23 24 8 24-1 27-2 28-1 31-4 24-6 26-6"/>
<path d="M14138 4333l-11 23 0 28 2 27"/>
<path d="M14393 4166l 23-8 24-2 25-2 26-2"/>
<path d="M14447 4126l-11 25-8 25-3 30 0 27 0 24 8 25"/>
<path d="M14620 4078l 9 23 5 29 4 24 4 27 2 26 3 25 2 25"/>
<path d="M14670 3886l 13 21 17 23 19 22 14 20 14 25 17 25 21 23 18 23 16 22 12 23 11 24 7 25 6 25 4 30-6 31-7 24-14 21-19 24-26 22-27 23-20 14-30 20-31 16"/>
<path d="M12614 4644l 21-12 24-2 25 1 25 0 25 2 32 3 37 1 28 1 31-1 35 0 39-1 42-1 45-2 25 0 26-2 26-1 28-1 29-1 31-1 30-2 31 0 32-1 33-1 33-1 33-1 35 0 36 0 36 0 37 0 38 0 37 1 40 1 38 1 38 1 40 1 40 1 38 1 41 0 39 1 39 1 40 1 40 1 40 1 39 0 39 1 39 1 39 1 37 1 36 0 36 1 35 0 34 0 33-1 31 0 31 0 31-1 30 0 30 0 27 0 28 0 26-1 25 0 44 0 40-1 35-1 31 0 27-1 30 1 27 0-24 6"/>
<path d="M13826 4781l 26-5 26-4 24-1 25 5 21 13-9 28-19 17-24 18-22 13-19 14-22 14-21 14-24 13-26 17-22 16-19 17-15 22 20 14 25 1 30 0 28-1 31-2 25-2 28-2 24-1"/>
<path d="M15159 4581l 14-20 26-5 28-2 26 0 25 3"/>
<path d="M15139 4671l 23-14 24-6 26-7"/>
<path d="M15499 4495l 24-10 25 3 20 18 1 26-9 24-12 28-11 22-12 22-13 24-6 23 13 21 28 1 33-10 27-16 28-21 25-22 24-25 18-16 16-18 18-28 13-31 13-30 13-29 12-27 8-23-3 30-11 28-12 34-7 26-8 28-10 28-12 31-15 33-14 33-12 36-13 37-12 36-12 37-11 36-11 36-10 36-11 34-11 33-13 32-13 29-14 26-13 24-16 19-21 23-19 19-21 14-15-21-4-33 4-32 6-25 7-26 9-28 12-28 14-30 17-29 15-26 17-26 14-24 18-21 18-21 16-20 20-18 25-24 27-21 26-20 25-16 28-16 25-12 25-9 26-9 24-4"/>
<path d="M2249 6756l 5-23 20-15 23-10 29-8 31-5 32-1 24 1 31 5 26 6 21 14 9 28-10 31-18 32-16 23-19 27-21 28-22 28-23 28-24 29-26 28-27 29-27 28-27 29-29 29-28 27-26 26-25 25-23 24-21 22-19 18-22 22-20 19 20 19 24-5 24-6 25-9 28-10 30-12 32-12 31-12 31-10 27-8 25-5 30-4 28 0"/>
<path d="M2650 6969l 19 16-5 23-10 32-10 28-11 30-13 31-10 32-12 31-9 28-8 25-7 24 21 13 23-22 24-27 18-22 17-22 18-22 16-24 15-23 13-23 12-23 12-22 15-31 11-30 9-27 7-23 7-27-13 27-8 27-8 31-9 34-7 36-5 27-4 30-7 31-7 32-8 34-7 35-9 37-7 36-8 38-8 38-10 37-9 36-11 34-10 34-11 33-12 31-11 30-11 27-9 24-13 30-11 24-12 22-24-9-7-27-3-29 0-33 0-24 3-26 4-27 7-30 7-30 10-30 11-31 13-30 14-29 17-28 17-27 19-25 20-23 20-23 21-23 20-21 19-21"/>
<path d="M2980 6958l 26-13 27-8 25-1"/>
<path d="M2975 7113l 20-14 28-9 25-7"/>
<path d="M3424 6973l-2-26 13-22 14-20 17-19 19-17 22-14 23-11 24 5 13 25 2 25 0 30 0 24-1 30 1 30 0 30 2 30 4 29 7 28 10 26 12 22 18 22 20 15 27 9 24-2 24-10 27-16 19-18 18-18 19-20"/>
<path d="M3810 6857l-24-5-21 19-15 20-16 25-20 30-14 21-14 21-15 22-16 23-17 25-17 24-16 26-17 25-16 25-16 24-14 22-13 20-15 27-12 22-8 23"/>
<path d="M3892 7145l-8 23-9 25-7 23-8 24-7 24-6 26"/>
<path d="M4067 6720l 18-17 26-4 24 1 24 6 5 25-20 22-18 17-21 20-22 19-19 15 16 19 26-6 25-4"/>
<path d="M4288 6895l 21-13 24-8 26-8 26-8"/>
<path d="M4348 6786l-14 20 3 28 6 28 8 24 8 27"/>
<path d="M4606 6781l 11-22 19-18 22-14 26-6 25 8 14 20 11 24 9 25 5 27 7 29 6 25 6 25 6 25 6 30 10 27 10 23 16 20 22 12 26 2 32-7 25-9 25-12 23-15 20-17 17-19"/>
<path d="M4926 6676l-25 8-20 18-17 18-19 23-19 27-20 29-13 22-15 23-16 24-16 25-15 25-15 25-13 22-14 31-11 27"/>
<path d="M5059 6935l 26-1 24 3 23 9-11 22-20 17-20 17-13 20 24 11 24-5"/>
<path d="M5099 6557l 23-11 25 1 25 8 7 24-17 19-21 17-20 18-14 20 24 8 24-6 27-7"/>
<path d="M5407 6767l 23-13 24-7 26-7 25-6 26-6 27-8"/>
<path d="M5470 6647l-2 25 4 29 3 28 2 25 2 27 5 28"/>
<path d="M5899 6722l 0-25-1-27 2-27 10-24 13-20 25-2 15 24 9 25 10 29 9 24 6 24 7 25 9 22 9 28 9 23 13 21 25 16 28 3 29-9 27-12 25-17"/>
<path d="M6186 6529l-22-11-23 9-17 22-15 22-17 25-20 29-16 22-18 22-16 24-19 25-21 25-19 25-20 22-17 22-15 18-16 25-12 25"/>
<path d="M6283 6774l 24 0 25 6 17 17-21 20-18 16-20 15 16 18 24 1 23 8 16 19-2 27-11 22-19 21-21 14-22 14-22 11-28 8-24 0"/>
<path d="M6380 6386l 25-9 24 1 24 3 18 18-17 20-18 19-19 15 15 20 26 4 27 3"/>
<path d="M6611 6637l 27-6 25-5 28-6 24-6"/>
<path d="M6675 6554l-23 14-12 22-5 27 1 25 6 25 7 26"/>
<path d="M6970 6661l 11-24 14-21 16-21 21-15 24-5 24 12 16 25 10 29 4 25 2 29 0 30-2 31-1 31 0 30 3 29 3 26 9 22 13 27 16 22 21 14 24 9 29 3 26-4 28-8 30-12 26-15 23-18 20-18"/>
<path d="M7286 6586l-23 8-25 18-21 19-24 25-18 18-16 19-20 19-19 22-19 22-19 23-21 23-18 21-18 22-14 20-13 28-7 23 0 26"/>
<path d="M7475 6832l-23 17-17 18-15 25-11 21-9 24 1 25 19 18 25 1 32-7 27-8 26-10 23-9 24-9 29-12 22-13"/>
<path d="M7544 6881l-14 22-5 25 2 25-1 26 1 25"/>
<path d="M7457 6348l 25-8 28 0 27 2 26 4 22 11-6 26-20 17-19 15-22 16-23 16-18 17 16 18 29 0 27-2 31-4 28-3"/>
<path d="M7880 6618l 25-7 29-4 29-4 25-3 31-6"/>
<path d="M7941 6525l-11 25-6 27-4 25-3 29-3 29-1 29"/>
<path d="M8476 6530l 8-23 20-18 24-13 23-7 27-2 22 11 14 21 8 27 4 25 3 27 2 26 0 27 2 25 4 31 5 25 7 25 13 25 20 19 27 7 29-3 30-7 30-11"/>
<path d="M8803 6493l-27 9-25 18-22 18-24 22-19 17-19 18-17 20-20 20-20 19-21 20-20 20-18 20-16 18-15 19-19 26-12 22"/>
<path d="M8927 6788l-23 16-17 19-15 23-13 25-8 22-6 26"/>
<path d="M9066 6645l 25 2 27 0 28-4 25-6 24-5"/>
<path d="M9159 6554l-17 20-9 23-5 27 0 27 0 26"/>
<path d="M9374 6494l 23-10 21 18 11 25 6 27-1 24 3 28 2 29 6 25 16 20 27 12 24 2 31-5"/>
<path d="M9561 6494l-24 5-26 12-23 13-23 14-21 17-20 19-19 20-19 22-17 23-16 22-14 20-11 25"/>
<path d="M9667 6670l 22 13 13 20-21 19-21 12-18 17-10 22 24 13 25-3 26-8"/>
<path d="M9822 6571l 23-11 27-4 26-5 25-5"/>
<path d="M9926 6482l-18 20-8 24 5 25 7 26"/>
<path d="M10139 6411l 20-14 27 0 27 2 27 6 22 14 15 24 8 26 6 26 1 27 2 25 7 25 8 26 9 23 16 17 28 8 30-7 27-14"/>
<path d="M10378 6395l-26 5-22 14-22 20-19 18-21 20-22 21-22 24-22 23-20 25-15 22-12 22"/>
<path d="M10487 6583l 24 4 23 11 2 25-22 15-22 11 24 10 22 13 2 25-11 22-20 18-20 15-22 11"/>
<path d="M10651 6497l 25 0 29 3 26 2 27 2 24-2"/>
<path d="M10740 6423l-8 25 1 27 6 23 8 26"/>
<path d="M10937 6370l 20-14 25 0 25 12 17 21 13 23 8 26 11 27 8 25 7 25 9 23 10 25 15 21 18 19 28 12 28 0 25-5 28-9"/>
<path d="M11167 6313l-26 2-20 18-15 20-17 26-15 23-17 26-20 27-21 27-19 25-19 25-12 23-10 27"/>
<path d="M11344 6520l-8 27-5 25 2 24 1 25 15 20 23 9 27 3 24 0 29-5 25-5 26-8 23-10"/>
<path d="M11493 6530l-17 20-4 27-2 26 0 29 0 24-1 30 1 27 0 26"/>
<path d="M13958 6654l 10-27 13-24 13-23 12-24 10-23 4-27-17-20-31 0-23 8-27 15-29 22-19 17-21 18-21 18-18 19-17 19-15 19-16 27-13 23-9 24 2 26 26 10 29-5 25-9 25-13 24-12 20-13 24-16 22-16 17-19 5 23 10 22 24 5 25-11 25-13 21-15 26-17"/>
<path d="M14350 6131l-7 26-10 29-7 28-6 24-7 26-7 28-9 31-9 34-8 23-8 27-9 26-11 27-10 25-9 25-9 25-11 33-9 30-6 26-4 27 2 25 19 17 24-10 24-14 26-20 27-23 19-16 29-22"/>
<path d="M14181 6467l 21-16 21-11 25-14 32-15 22-10 24-9 25-8 26-9 26-6"/>
<path d="M14730 6464l 17-18 25-15 23-9 24 8 3 25-7 29-12 24-15 26-17 26-15 27-15 24-16 23-12 20-14 22-15 20 17-27 17-26 14-21 16-22 18-19 15-21 22-26 19-25 19-21 21-20 20-16 22 10-9 29-10 22-13 23-14 20-12 27-10 23-9 23 27-13 20-19 20-21 22-21 21-20 19-18 23-22 21-20 19-14 7 24-11 26-12 26-11 25-12 25-12 23-7 24 27 8 30-11"/>
<path d="M15151 6523l-24-6-18 20-15 25-5 24-5 24 18 16 26-4 21-10 24-16 20-15 19-19 11-23-6-24-20-15-25-3 29 3 23-8 24-9 22-11 22-12 22-15 10-22-15 20-5 26 7 24 13 25 14 19 14 22-3 25-22 13-25 6-25-1-25-2 27-8 27-6 24-5 31-6"/>
<path d="M15598 6230l 17 20 5 24 1 26-3 28-6 32-10 28-14 30-17 31-12 21-14 21-14 21-19 29-15 25-10 22-6 24 7 24 26 5 28-9 27-12 22-11 27-18 22-13 23-15 24-19"/>
<path d="M15490 6407l 18-20 28-10 29-6 32-5 26-3 25-3"/>
<path d="M16582 6093l 1 25-13 29-15 24-22 27-18 18-17 19-17 21-19 20-16 19-17 20-16 18-20 27-18 25-14 23-11 24 9 23 28 5 27-3 32-5 25-5 26-6 27-6 27-6 23-7 34-10 31-9 26-8 30-10 25-9"/>
<path d="M16624 6245l-12 27-5 25-7 28-8 31-5 23-7 25-10 24-7 29-1 24-3 25"/>
<path d="M17278 6092l 2 26-4 27-6 27-9 29-9 27-14 28-14 31-10 22-9 22-10 23-15 31-13 31-9 27-9 23-7 24 0 24 21 13 29-8 26-9 27-13 25-13 25-15 22-17"/>
<path d="M17097 6324l 23-9 28-5 24-5 26-5 31-5 32-4"/>
<path d="M17378 6323l 25 2 26 2 25 4 23 12-17 22-23 15-22 16-19 15-19 17-18 21-11 25 10 25 28 5"/>
<path d="M17595 6380l-19 19-10 25-7 24-11 24-5 24"/>
<path d="M17635 6267l"/>
<path d="M17815 6413l-23-17-26-11-24-5-24 11-18 17-13 23-8 26 6 23 22 16 24-1 26-9 24-12 20-15-22 14 3 25 22 13 27-5 25-10"/>
<path d="M17909 6435l-19 15-3 25 25 6 24-13 21-17 20-17 19-16-15 20-7 24 5 24 28 9 28-1 25-4 29-8 27-10 22-12 22-12 15-21 5-25-7-25-22-12-25 3-22 9-24 16-16 18-10 22 14 22 26-2 23-8 21-14-2 27 1 26 0 25 0 30 2 24 1 24 1 24 0 29-4 28-8 23-13 23-21 21-25 18-23 11-24 4-26-6-21-18-10-28-2-30 3-25 6-28"/>
<path d="M18186 6409l 20 14 29-6 28-12 24-13 23-16 20-16 16-20 10-22 10-26 6-30 4-25 1-26 2-31-1-28-12-22-25 12-16 21-14 20-13 24-11 27-10 29-9 29-2 29-3 27-2 25 8 31 15 26 19 22 23 15 27 9 24-1 25-5"/>
<path d="M18471 6392l 23-9 25-5 22-9 19-19-13-20-21-14-25-5-24 11-17 18-4 28 2 25 6 25 12 22 18 21 23 15 27 9"/>
<path d="M14896 7216l 5-25 16-18 22-13 24-6 9 25-6 29-9 31-7 24-9 23-10 24-13 22-15 27-11 23-18 23 4-24 13-29 12-23 13-23 15-23 16-21 15-20 16-19 19-23 19-18 20-14 21-13 25-7 11 22-7 23-9 28-7 25-11 25-10 25-10 21-10 24-6 23 25 2 25-16 22-15 21-18 22-17 18-19 19-23 16-21 15-22 9-22-13 20-11 24-10 24-5 28 1 25-2 25 10 25 25 7"/>
<path d="M15224 7257l-11 22-12 22-10 24-3 25 6 24 25 4 24-13 25-18 19-17 20-18 18-18 16-23 13-22 12-24 9-24-18 17-12 25-7 26-8 27 1 28 11 21 21 14 26 0 25-9 21-11"/>
<path d="M15501 7202l-10 22-5 23-8 26-5 24-7 27 24-18 16-19 17-25 14-21 16-23 18-21 22 11-2 27-7 28-6 27-6 23 22-11 22-21 20-18 16-18 20-22 18-20 17-20 17-17-3 25-5 25-5 28-6 28-6 24 3 25"/>
<path d="M15824 7254l 5 24 27-4 26-12 23-12 27-16 28-18 27-20 26-22 25-22 24-23 17-24 12-24 10-26 9-27 7-28 5-29 3-26 1-29-5-23-24 13-19 25-12 24-13 28-14 33-13 24-9 26-10 28-9 27-7 28-7 27-5 26-6 24-1 32 4 25 13 23 24 15 28 5 23-6 24-14 19-17 15-20 9-26 0-28-8-29-10-22-19-16"/>
<path d="M16208 7179l 26-1 27-9 25-9 22-13-3-24-23-8-27-3-24 4-23 11-19 18-14 23-8 26 5 27 16 19 25 10 25 2 29-3 24-7"/>
<path d="M16454 7112l 24 0 3 24-19 18-20 16-19 17-18 20-7 24 26 6 25-8 26-10 27-14 22-12 28-16 25-16 21-15 21-19 14-23-1-24-23 12-3 26 7 27 10 24 11 21 12 21 14 22 13 23-11 23-25 0-25-4-26-6-24-6 24-6 24 3 26 1 26 3 27 4"/>
<path d="M16804 7337l"/>
<path d="M17300 7156l-8 23 2 30 3 24 1 28-2 25 4 25 30-7 25-19 19-18 21-23 26-25 22-27 24-28 22-28 20-31 20-30 20-31 18-32 17-32 18-32 17-31 16-30 14-27 13-24 13-22 19-26 17-24 13-21"/>
<path d="M4330 8579l-25-6-27 8-20 12-23 21-19 20-15 20-15 23-14 26-9 26-5 26-1 25 6 25 13 27 24 20 29 9 24 1 27-6 26-8 26-11 25-13 28-14"/>
<path d="M4550 8273l 0 30 2 31-1 33 0 24-2 26-2 26-3 28-6 28-5 30-6 30-6 32-7 30-7 32-8 31-8 31-7 28-6 26-8 32-4 24-2 24 10-26 8-30 8-25 8-26 10-26 11-26 12-25 13-22 14-21 19-24 18-19 22-12 24 6 7 26-1 31-5 26-7 30-5 28-6 25-4 25 6 23 25 3 25-9 23-14"/>
<path d="M4775 8687l 11 22 25 1 25-9 23-15 21-16 20-19 11-22-13-22-26-8-25 8-20 17-17 24-13 23-8 24-6 23-1 29 7 23 14 20 21 12 27 5 29-2 24-4"/>
<path d="M5173 8595l-23-13-26 3-21 15-21 19-18 21-17 26-16 26-13 25-6 24-2 28 7 24 13 21 25 13 30 0 30-10 25-12 23-15"/>
<path d="M5284 8328l-12 21 0 24 0 28 3 25 1 28 0 30-3 31-2 33-2 34-4 32-5 31-8 29-7 25-9 27-11 22-4-26 3-25 8-26 12-24 12-24 15-22 18-22 15-20 16-20 20-13 13 20-14 23-17 22-16 23-17 18-18 21-10 23 7 25 24 8 25 1 28-4 28-4 23-5"/>
<path d="M5938 8278l 1 24-2 26-1 33-3 28-1 30-1 32 0 34-2 35-2 25-3 25-3 24-3 35-3 31-3 29-3 24-7 25-3 26"/>
<path d="M6920 8609l 0 26 1 26 1 31 1 31 4 25 9 25 15 19 26-4 19-21 19-28 15-22 16-25 13-26 14-28 12-29 11-29 10-29 9-31 7-30 7-30 6-30 4-29 4-25 3-34 3-29"/>
<path d="M4235 9627l 8-23 2-25-24-10-26 6-25 11-21 15-24 20-24 26-17 18-16 21-16 23-15 23-14 24-11 22-11 31-4 25 4 26 17 21 28 5 29-8 28-14 21-12 22-16 21-17 22-19 21-18 21-20"/>
<path d="M4420 9208l-14 22-8 23-7 23-5 29-5 34-3 24-3 27-3 28-4 29-4 31-5 31-5 32-4 32-6 31-4 31-5 30-5 28-5 27-9 33-5 26-2 24 19-16 14-26 18-32 13-24 14-24 13-25 9-22 17-31 14-26 15-24 17-23 18-19 15 20 1 31-3 30-5 25-5 27-6 26-5 26-6 29 1 24 24 13 24-9 21-11 21-16"/>
<path d="M4672 9616l-5 24 19 17 24-5 25-11 23-17 18-19 4-26-23-14-24-4-28 0-25 9-24 15-18 21-11 23-11 26-3 27 3 25 16 26 20 15 27 8 25 2 28-2 30-6 30-10 31-13"/>
<path d="M5001 9605l-20-14-25-3-23 16-21 20-15 20-13 22-9 23-4 26 6 23 16 19 24 13 27 7 25-1 28-8 22-11"/>
<path d="M5115 9349l-11 23 2 27 2 29 2 25 0 29 0 34-1 24-1 24-1 26-2 26-3 25-3 26-3 26-6 35-5 32-3 26-6 27-8 24-4-25 3-32 4-27 5-28 6-28 6-26 8-24 9-27 14-23 19-16 25 3 25 5 22 9-10 25-20 16-20 18-17 17-10 25 6 23 18 18 24 10 25 7 26 2 25 1 30-1"/>
<path d="M5745 9405l 24 8 24 9 29 6 28 6 24 7 22 9 21 16 5 28-9 25-16 22-16 17-22 17-25 20-26 19-27 19-25 20-24 19-19 17-18 17-18 19-11 22 22 15 24 5 29-1 26-4 27-5 28-5 30-7 30-8 29-8 26-6 27-6"/>
<path d="M6784 9427l-9 23 6 25 8 24 9 25 12 24 9 24 10 24 11 23 24-10 10-26 15-34 10-27 11-27 13-29 11-30 13-31 8-33 12-34 11-34 11-35 13-32 10-30 10-27 7-23 11-30 8-25 8-26 4-28 2-25"/>
<path d="M10650 8703l 3-26-20-13-26 3-23 8-21 13-23 19-19 18-17 20-20 23-17 24-16 26-13 28-11 26-10 23-3 25 9 26 25 15 26 3 25-2 27-5 27-8 29-10 29-11"/>
<path d="M10841 8738l-20-15-25-4-24 7-23 14-17 17-16 20-16 22-9 22-1 26 12 22 28 5 26-9 24-13 22-17 18-17 16-19 9-24 3-24-8 26-4 26 0 24 7 25 25-6 18-18 15-23 15-22 11-23 5 23 20-18 17-19 16-19 20 14-2 27-4 26-1 24 10 23 24-3"/>
<path d="M11524 8663l-20-17-24-6-26 3-25 13-19 18-21 23-13 23-10 23-7 24-2 31 4 28 15 23 25 9 31-7 25-13 27-18 27-22 18-17 23-26 19-27 17-29 16-30 12-30 9-31 7-34 6-33 3-36 2-24 1-24 0-34 0-29 0-30-5-24-20 21-14 27-11 26-9 28-8 31-6 32-6 36-2 26-4 26-4 25-1 26-4 25-3 25 0 24 2 32 4 29 8 29 18 19 25 7"/>
<path d="M11746 8712l-23 14-15 20-8 24-4 27 11 22 22 14 27 4 26-4 24-7 27-13 24-15 14-22 1-25-18-19-21-12-24-10-25 2-24 5"/>
<path d="M12477 8351l 28-2 30-2 30-1 24-1 24 1 31 2 29 5 24 9 19 16-9 25-21 17-21 13-23 13-28 12-23 12-22 10-22 13 11 23 26 5 25 2 30 2 25 2 24 4 28 9 28 11 22 16 9 26-6 24-13 25-19 23-24 25-19 15-19 16-21 15-21 14-23 14-30 18-26 15-22 11-28 7-28-4-21-17-8-23 1-32"/>
<path d="M12907 8293l 24-6 24-2 27 2 26 8 22 11 20 21 9 24 1 28-5 25-8 27-9 27-13 23-13 24-13 24-11 25-11 23"/>
<path d="M12970 8755l 12 22"/>
<path d="M9071 10553l-1-26 2-25 7-25 12-25 16-23 18-21 21-20 20-18 22-12 25 3 17 21 8 27 6 28 2 24 4 26 1 26 2 26 2 25 4 25 6 26 8 28 10 24 15 24 17 17 25 8 26-6 23-12"/>
<path d="M9420 10419l-26 11-15 20-14 21-18 26-19 29-13 20-21 30-20 29-14 21-13 20-12 21-18 28-17 27-14 21-15 26-11 24"/>
<path d="M9532 10668l 5 28 1 26-1 24-2 27 1 24"/>
<path d="M9630 10556l 24-11 24-5 28-10 29-7 28-7 28-10"/>
<path d="M9699 10489l 1 27 1 28 6 24 7 26 6 25"/>
<path d="M9948 10405l 9-24 21-16 24-2 23 13 17 18 9 28 8 28 8 25 6 24 5 24 7 24 6 26 9 24 16 18 27 7 27-10 27-16 23-14"/>
<path d="M10190 10342l-23 9-18 20-17 25-16 22-18 25-16 28-13 20-19 30-21 29-15 27-12 26-9 23-9 28"/>
<path d="M10349 10575l 25 5 21 12 5 25-22 16-21 16-20 16-18 20 3 24 25 5 27-4 27-7 29-9"/>
<path d="M10614 10458l 20-13 25-7 25-2 27-5"/>
<path d="M10660 10360l-2 24 10 26 12 25 13 23 12 25"/>
<path d="M10919 10300l 13-23 18-19 22-14 26-11 23-6 26 5 19 20 13 24 4 28 0 31 0 24 3 27 0 25 0 32 5 27 8 25 8 23 16 21 26 6 29-9 27-19"/>
<path d="M11192 10228l-27 6-18 15-20 20-16 21-17 24-19 25-21 25-20 28-21 28-19 28-19 25-12 22-6 27"/>
<path d="M11325 10425l 27-4 25 2 26 6 23 7-11 23-23 14-16 20 20 13 27 4 24 4 23 9-6 26-21 15-20 14-30 14-25 9-26 7-26 5"/>
<path d="M9092 9959l-25 7-24 10-23 13-23 15-24 21-19 18-17 20-14 26-11 21-9 25-12 27-11 30-11 31-10 33-9 35-9 35-8 36-6 35-6 34-3 34-2 33-1 32 0 31 4 30 5 29 6 27 11 27 12 25 15 24 18 23 20 23 24 20"/>
<path d="M11550 10068l 23 8 20 16 18 18 18 22 19 22 18 25 16 25 11 25 9 29 4 31 2 33-1 32-6 32-9 30-11 28-17 26-21 24-20 22-19 17-25 17-27 7"/>
<path d="M11862 9845l 28 3 26 10 20 15 15 20-20 19-24 16-24 12-19 16 6 25 19 15 25 6 24 2 28 2"/>
<path d="M12021 10126l 23-17 27-11 26-11 25-6 25-5 27-5"/>
<path d="M12036 10174l 25-3 27-5 29-2 28-2"/>
<path d="M12322 10139l 25-3 14 21 13 27 9 25 12 26 8 29 7 24 6 24 5 27 12 23 20 19 30 7 29-2 24-8 25-13 26-18"/>
<path d="M12540 10117l-26 8-19 21-18 22-15 21-20 25-22 28-16 20-18 22-16 23-19 24-17 23-15 22-15 20-15 29-13 27"/>
<path d="M12699 10371l-5 26-7 28-6 26-5 26-7 26-4 24"/>
<path d="M12790 9977l 25-11 27 0 26 3 24 8-1 27-18 18-22 16-22 14-12 22 26 5 24-3 27-4"/>
<path d="M13034 10120l 24 6 26-1 23-6 27-8"/>
<path d="M13099 10062l-12 23 1 28-1 28 1 29 0 25 1 26"/>
<path d="M13277 10092l 10-25 26-9 27-2 26 3 22 13 19 18 12 22 11 22 9 27 8 29 10 24 6 26 6 25 10 26 7 24 22 13 27-3 28-11 22-14 24-16"/>
<path d="M13534 10056l-25 9-20 18-22 22-19 19-18 24-19 22-20 25-21 26-19 27-17 27-14 24-10 26"/>
<path d="M13684 10262l 20 14 10 22 5 25-9 23-17 19-20 18 6 24 24 2 26 0 27-5 23-10 26-12"/>
<path d="M13704 9950l 25-2 24 8 22 12 18 17 6 26-12 23-13 21 6 24 25 1 27-4"/>
<path d="M14020 10184l 22-14 27-3 30-2 27-1 27-4"/>
<path d="M14074 10082l 2 24 7 24 8 25 5 28 3 24 5 25"/>
<path d="M14297 10055l 12-23 20-15 25 5 19 18 13 27 6 25 3 24 8 31 8 25 8 31 6 29 11 23 16 20 21 18 28 0 24-14 23-16"/>
<path d="M14536 9959l-23 8-21 19-17 22-16 21-18 23-20 26-20 26-20 28-19 30-18 28-12 25-12 27"/>
<path d="M14678 10155l 27 6 20 14-4 24-22 14-23 12 16 19 23 9 21 15 1 26-13 22-21 15-23 9-28-2"/>
<path d="M14625 9770l 24-5 24 6 22 8 16 18-15 19-20 14-17 17-17 17 22 14 25 0 26-1 29-1"/>
<path d="M15014 10031l 25-5 24-4 26-4 23-5 26-9"/>
<path d="M15071 9925l-11 24 3 27 4 26 7 28 5 27 9 23"/>
<path d="M15451 9865l 24-5 24 11 22 13 20 13 22 13 21 15 15 19 11 22 1 26-14 22-20 19-25 17-22 13-26 14-24 16-25 16-25 15-27 16-24 17-20 16-22 18-16 19 22 13 26 0 26-1 27-5 30-4 26-3 24-2 32-3 26-2 25-3"/>
<path d="M15907 9692l-25 5-19 16-17 19-19 26-15 24-15 28-17 31-19 34-18 34-21 35-18 37-17 36-15 34-11 31-8 28-7 26-2 26-1 24 5 32 5 29 9 28 10 28 11 28 11 25 15 23 15 24 13 21 15 22 18 18"/>
<path d="M15994 10011l-14-20 12-24 23-9 25-2 26 10 17 17 12 21 8 29 4 24 1 25 2 25 1 24-1 29 3 25 9 26 16 21 19 15 25 8 26-3 29-11"/>
<path d="M16253 9936l-27 2-21 13-19 16-26 23-21 21-21 24-18 27-21 28-15 19-15 20-13 21-16 28-11 27-10 27-5 24"/>
<path d="M16324 10225l-8 27-7 24-4 26-2 25"/>
<path d="M16468 10005l 11-21 25-6 22 10 17 19 13 21 10 26 7 25 6 26 4 26 9 24 13 22 15 20 25 8 24-7 23-13"/>
<path d="M16695 9933l-18 17-13 21-17 22-19 26-15 21-15 24-17 26-18 27-19 26-18 23-19 23-16 24-4 25"/>
<path d="M16813 10129l 23 9 22 11 16 19-15 19-20 15-20 16-4 25 25 10 25-4"/>
<path d="M17018 10011l 24-5 28-3 26-3 28-4 24-5"/>
<path d="M17079 9937l-6 23 0 28 4 24 9 25 12 26"/>
<path d="M17215 9868l 21-11 27 1 24 12 19 15 16 20 13 22 8 25 8 28 9 27 9 28 10 28 8 25 12 21 24 12 28 3 25-5 27-9"/>
<path d="M17422 9877l-23 8-21 21-17 19-17 21-21 24-15 21-13 22-13 20-14 24"/>
<path d="M17525 10059l 23 5 25 11 7 23-18 17-19 15-12 21 22 13 25-1 25-6 26-7"/>
<path d="M17693 9883l 25-2 23 10 25 14 18 16 18 22 11 26 6 26 7 25 2 27 1 25 5 25 19 15 26 3 25-8 25-15"/>
<path d="M17868 9879l-23 8-20 14-20 15-20 19-18 20-17 20-17 23-12 26"/>
<path d="M17938 10049l 24-8 28 0 26 6 22 13-10 22-23 9-24 12 18 17 22 9 18 18 0 24-21 16-25 12-27 8-24 6"/>
<path d="M18152 9959l 25-2 25 0 28-3 28-4 27-5"/>
<path d="M18212 9876l-6 23-2 28 4 25 4 29 4 28 8 29 10 25"/>
<path d="M18402 9799l 20-19 26-9 27-7 25 0 23 5 21 13 22 16 15 21 12 23 8 28 3 27 4 25 5 30 5 25 4 25 18 17 27 7 27-7"/>
<path d="M18630 9767l-18 17-13 26-7 26-9 27-9 27-11 28-13 28-12 27-13 27-10 23"/>
<path d="M18767 10026l 0 24 2 26 4 24"/>
<path d="M18869 9756l 23-9 27 1 25 5 23 9 19 15 19 21 18 25 15 22 15 25 12 24 12 23 15 23 14 20 17 19 22 13 28 0"/>
<path d="M19103 9746l-23 17-19 20-15 27-10 25-6 25-9 28-8 25-7 25-8 27"/>
<path d="M19333 9957l 24 6 21 14-6 24-26 7-23 10 19 15 24 6 24 8 21 15 21 16 6 24-13 20-24 11-27 9-25 4-27 0-27-6-20-19"/>
<path d="M19485 9608l 27 5 23 12 25 16 19 15 18 17 19 18 20 20 20 21 17 24 13 28 9 29 5 32 2 30 1 29-1 29-4 29-6 29-8 28-10 25-14 24-14 23-16 23-18 20-20 16-21 15-22 14"/>
<path d="M12005 11395l 26-9 25-6 23-6 28-6"/>
<path d="M12037 11441l 25-5 28 3 30 1 25-1"/>
<path d="M12307 11157l 20-15 28-2 25 4 30 3 26 7 25 9 23 10 25 12 19 19 10 22 3 25-9 26-16 25-14 19-19 21-21 21-22 23-22 24-22 24-19 23-18 22-16 19-17 23-11 21-6 23 24 13 29 2 31-1 31-4 27-6 29-5 28-5 26-5 26-4 29-7 24-2"/>
<path d="M12727 11417l-12 23-8 26-5 27-1 25 12 22 25 8 25-8 24-15 16-19 14-22 12-22 13-22 9-26 6-24-5 28 0 29 1 27 0 30 4 24 3 29 3 29 3 32 2 34 3 35-1 26-1 24-1 26-4 27-1 26-3 25-4 24-8 34-8 31-12 26-12 26-12 22-25 1-16-20-11-23-6-28-2-25 1-26 2-29 6-32 4-35 8-25 9-23 15-31 15-27 16-25 16-22 14-20 16-25 19-20 21-16 17-16"/>
<path d="M11057 12943l-13 25-4 26 1 29 9 25 17 18 25 10 29-2 27-8 29-12 25-16 21-19 18-19 11-22 3-29-8-26-15-22-20-20-25-16-25-11-27-2-26 8-19 19-10 24"/>
<path d="M11344 13067l-12 23-12 25"/>
<path d="M11543 12901l-23 9-12 21-9 28-1 28 5 28 11 24 20 16 24 8 30-1 23-7 24-12 26-15 21-18 14-20 8-27-5-27-13-23-23-14-28-12-28-6-26-2-25 11-12 23"/>
<path d="M11821 13095l-7 26-8 26-11 25-10 26-9 25"/>
<path d="M12059 12925l 27 3 24-6 26-11 25-13 19-16 12-23 0-25-17-17-25-9-27-3-28 10-21 16-17 21-12 27-9 24-7 26 3 28 9 23 20 19 23 15 25 9 29 4 26 0 26-5 24-9 21-12 22-11"/>
<path d="M13177 12873l-20-15-26 14-16 18-14 27-9 23-3 27 10 25 18 17 25 4 24-12 25-17 8-23 6-24-6-25-14-22-15-20"/>
<path d="M13242 12875l 23 9 20 15 11 23 4 25 0 26-16-22-2-24 10-27 14-21 14-21 19-17 23-16 26-9 27-2"/>
<path d="M14072 12847l 24 1 30-5 26-7 24-10 21-13 18-18 4-25-22-13-26-8-23 7-23 14-23 19-15 19-13 26-9 23-4 25 10 24 16 19 18 16 25 11 25 7 25 3 25-3 25-4 25-8 21-12"/>
<path d="M14364 12961l-11 23-5 28-7 27"/>
<path d="M14563 12833l 25-5 22-12 21-16 18-17 15-20 7-25-19-19-28-3-26 6-25 7-21 13-13 21-12 28-8 23-3 31 5 30 13 25 15 24 18 18 24 11 30 6 30-3 24-6 24-9 22-12 24-13"/>
<path d="M14835 12917l 13 20 1 25-13 26-15 21-15 19"/>
<path d="M14983 12775l 24 2 24-6 23-7 24-17 21-17 10-22-12-22-21-12-24-5-27 0-22 10-18 19-11 24-5 25 1 26 8 22 11 24 17 17 22 13 29 9 26 3 25-3 26-7 24-8 23-10"/>
<path d="M14425 14418l-2 26-2 26-2 35-2 30-1 31-1 35-1 38 0 40 2 41 3 47 1 24 3 25 4 26 4 27 5 27 5 27 5 27 7 26 7 27 7 28 8 26 9 27 8 25 10 25 9 22 11 23 10 22 22 40 22 35 24 30 23 25 25 20 24 12 23 9 34 8 32 1 32-7 32-15 20-14 19-20 18-22 15-26 14-30 12-29 11-30 8-30 5-30 2-27-1-28-3-26-6-23-13-30-16-28-21-25-28-18-32-11-32-5-30 0-31 5-29 12-29 16-20 16-25 21-22 23-16 22-9 23-8 30-2 28 22 16"/>
<path d="M14804 14117l 10 22 10 26 10 29 6 27 7 27 7 28 7 31 5 30 8 28 10 26 9 23 6-27 2-30-2-36-3-26-4-25-10-32-11-30-12-27-10-25-13-25-14-21 17 23 21 17 24 12 22 12 28 7 28 3 24 3 26-6 6-25-1-32-4-30-3-33-7-32-10-30-10-27-12-25-10-22-10-22-11-24-14-21"/>
</svg>
