<svg xmlns="http://www.w3.org/2000/svg" viewBox="2592 2044 19888 42088" stroke="black" stroke-width="20" stroke-linecap="round" stroke-linejoin="round" fill="none" data-xena="-1 2 -3"><style>@media(prefers-color-scheme:dark){svg{background-color:black;stroke:white;}}</style>
<path d="M3131 2471l 4 29 0 26-1 29-2 30-3 33-5 35-4 25-4 25-5 26-6 27-4 26-5 25-5 25-8 31-11 32-7 27-2 28-8 27"/>
<path d="M3350 2724l 26-1 25-7 29-9 30-10 25-9"/>
<path d="M3585 2740l 3-24 22-10 26 5 10 22-1 24-5 24-9 25-13 23-13 22-13 21 4-30 9-25 13-25 16-25 14-22 17-22 17-22 20-16 25 1 15 21 4 25-1 26-4 27-5 25-5 25-7 25 20-22 14-21 17-22 18-24 15-23 16-23 19-21 1 29-3 29-2 27 2 28 6 26 24 13 26 2 24-10 22-13 23-15 20-16 16-21 24-7 25 1 23-14 21-13 17-20-7-23-28-2-25 5-22 13-18 19-15 25-10 24-7 23 3 26 15 24 23 16 25 4 25 0 25-5 27-10 26-14 25-18"/>
<path d="M4221 2714l 27 8 25 8 21 11 16 21 12 22 12 24 15 20 25 6 23-9 20-15 19-19"/>
<path d="M4410 2674l-24 1-16 19-20 20-16 18-17 22-18 24-15 21-15 22-11 23-12 23"/>
<path d="M5052 2609l-20 14-19 18-9 23 0 28 4 26 14 21 22 9 27 0 23-8 24-15 17-17 7-26-4-27-10-22 22 11 24-8 22-13 24-12 21-16 22-20 18-20 19-19 18-18 19-22 17-23 13-24 10-25 1-28-6-24-19-15-22 17-13 23-12 26-11 29-5 24-5 29-5 31-2 27-2 32 2 30 3 32 2 28 1 28-2 26-4 28-8 28-14 24"/>
<path d="M5193 2632l 27 6 24 7 28 2 24 0 28-3 32-4"/>
<path d="M6146 2816l 25-5 28-4 28-5 30-7 31-3 24-5 24-6 24-7 28-5 28-1 25-5 28-8 26-6 24-10"/>
<path d="M6808 2762l 25-5 24 1 26 1 26 3 29-2 25-2 25-4 27-3 30-3 25-4 24-4 24-5 29-7 28-5 26-3"/>
<path d="M7417 2779l 27-8 27-7 26-2 25 0 29-3 33-3 29-4 29-5 28-4 30-4 24-4 26-5 25-7 25 0"/>
<path d="M8502 2514l-13 21-10 28-5 28-4 28 0 28 1 25"/>
<path d="M8521 2365l"/>
<path d="M8656 2470l-27 10-23 11-21 17-5 25 19 18 24 8 25 6 28 5 24 7 25 7-8 24-25 12-28 5-24 0-24-4"/>
<path d="M9562 2204l 9 24 1 25-2 27-3 31-6 35-3 24-2 26-2 28-2 26-2 25-4 25-1 36-1 34 1 29-2 28 0 28 0 25-3 25"/>
<path d="M2897 3645l 16-21 23-9 30-6 27-2 25-1 27 5 19 15 6 26-10 27-13 26-18 29-21 28-22 28-17 19-17 19-21 19-17 18-25 24-24 23-23 21-25 19-21 17-23 18-21 20 11 21 27 0 27-3 27-3 29-7 30-9 30-11 31-11 32-13"/>
<path d="M3192 3787l 17-19 26-11 27-9 31-7"/>
<path d="M3461 3770l 1 27-5 28-7 25-9 27-13 23-11 22-1-31 12-30 14-27 16-26 14-21 17-26 15-23 16-20 25 4 6 28-1 26-5 30-9 29-9 25-8 25-10 26 13-24 16-28 13-21 14-22 17-25 16-22 15-22 19 16 2 30 0 29-2 28-1 28 0 25 20 16 25 1 85-102 24-6 22-10 24-11 25-13 19-17 0-25-24-6-27 4-24 6-19 18-15 19-13 26-10 22-7 25-4 31-1 26 10 27 21 18 24 5 31-4 27-9"/>
<path d="M3976 3735l 24 14 24 1 25 8 22 9 19 20 9 24 4 25 9 24 20 14 24-6"/>
<path d="M4176 3726l-23 10-20 20-18 15-22 22-16 19-15 22-16 22-15 23-16 23-12 21"/>
<path d="M4913 3724l-17 18-10 24-3 27 7 23 15 20 25 10 26-5 26-15 20-18 18-19 13-21 3-27-14-20-26-9-28 1-20 13 20 15 24-12 26-13 24-14 21-13 24-15 25-17 28-19 27-20 29-20 24-24 19-22 19-24 13-24 12-24 9-29 2-30-2-24-2-30-7-23-26 3-18 24-17 28-11 24-11 24-11 29-12 34-12 36-11 39-12 41-12 43-10 44-6 23-6 24-4 24-8 48-4 25-7 47-5 46-5 44 0 40 2 35 1 31 5 26 10 31 10 25 16 21 22 12 29-13 15-21 13-28 10-32 6-30 0-25 0-24-3-26-6-29-6-27-11-27-9-25-11-25-12-23-14-28-13-23-18-17-25-7 27 12 25 6 30 1 28 0 32 0"/>
<path d="M6117 3806l-24-4 24-1 27 1 26-4 25-3 27 0 31-1 31-5 25-3 26-2 28-3 27-2 25-5 25-2 34-3 29-2 28 0 24 0"/>
<path d="M6698 3823l 24-10 26-7 26-6 25-6 26-4 29-2 27 1 25-1 31 0 25 1 25 2 24 1"/>
<path d="M8440 3640l-22 11-8 24-6 26-6 25 0 27 3 24 21 16"/>
<path d="M8479 3457l-24 4 5 27"/>
<path d="M8651 3566l-25 4-23 8-25 12-23 13-18 18 10 23 29-2 29-5 30-1 29 1 26-1 27 0 23 13-13 22-19 16-24 12-22 12-26 12-28 6-26 4-26 2-24-5"/>
<path d="M9478 3327l 22-14 24-1 27 6 25 7 23 8 27 10 25 13 22 13 9 23-22 17-24 10-27 11-26 7-25 7-25 7-25 10 19 18 25 4 28 3 26 5 27 6 28 7 23 8 30 9 31 10 27 11 23 12 18 19-8 24-16 20-24 21-22 17-24 17-24 16-24 15-24 15-29 12-26 11-28 9-25 5-26 2-28-1-24-6-21-11-14-21 2-25"/>
<path d="M2924 4651l 27-7 31 0 24-1 26-1 25-2 29 0 25 0 26 3 4 26-19 23-24 22-24 21-26 21-24 20-24 17-24 16-23 12-27 16-22 12 19 15 29 1 31 0 29 0 24-3 29 4 24 8 24 13 17 17 7 24-6 31-12 29-13 24-17 24-17 25-21 26-21 24-24 22-20 16-28 21-29 18-25 15-27 12-26 9-31 6-24-1-21-11 4-27"/>
<path d="M3224 5021l 21-11 24-8 29-6 24-5"/>
<path d="M3470 5010l 18 20-2 28-11 27-10 23-16 19-21 19 9-27 13-20 16-24 17-23 18-24 16-22 17-26 17-21 18-17 23-10 17 17 0 26-3 26-4 27-8 29-8 26-11 25-10 24 19-20 15-19 16-23 19-24 18-22 16-20 19-23 18-19 11 21-4 25-4 25-3 25-4 27 8 23 25 9"/>
<path d="M3863 5012l 25-3 24-8 24-9 19-16 1-25-25-6-26 1-25 11-19 17-16 24-13 26-11 28-2 27 7 25 18 20 26 4 26-5 29-12 24-13"/>
<path d="M4041 4938l 24 7 21 17 15 21 16 21 15 20 23 12 27 3 25-6"/>
<path d="M4163 4934l-26 11-18 17-20 23-13 21-13 22-15 23-14 25-13 23"/>
<path d="M4850 5015l-20 14-10 22 2 26 18 18 27 3 27-3 24-11 17-18 11-21-13-22-24-13-26-9 25-3 25-10 24-15 27-19 25-16 27-21 22-14 21-17 22-18 23-17 21-19 20-18 21-19 18-19 15-20 15-20 19-29 16-31 12-29 8-30 3-30 2-29-2-25-6-25-25-5-20 17-18 25-12 22-14 25-15 29-16 33-15 38-15 42-8 23-8 23-9 24-7 25-9 25-7 26-9 27-6 28-6 26-7 28-2 28-6 27-4 27-3 26-3 25-3 25-5 46-2 42 1 36 3 33 8 30 5 26 9 31 9 23 16 21 25 6 15-25 8-27 5-29-1-31-8-34-7-35-7-25-8-25-7-23-12-32-10-24-15-24-19-18 29-4 31-1 31-2 32-3"/>
<path d="M6049 5052l 23-11 30-7 27-6 29-8 34-6 24-7 26-6 27-7 27-6 29-5 27-5 26-5 32-4 31-3 27-2 26 1 25 8"/>
<path d="M8484 4809l-14 20-10 27-11 23-7 25-7 23-8 24-7 30-4 29 7 24"/>
<path d="M8521 4621l 2 24"/>
<path d="M8684 4768l-29 2-29 6-25 9-22 12-18 17 24 17 26 0 24-2 29-3 28-5 25 0 26 2 24 5-3 25-25 16-25 16-26 14-25 11-28 8-24 5-25-9"/>
<path d="M9473 4510l 22-11 24-8 24-4 27 0 26 0 27 2 26 8 22 13 4 24-20 16-20 16-22 13-24 12-25 11-25 13-25 12 21 11 24-2 25 2 25 2 25 3 25 3 26 6 26 8 23 9 25 16 18 20 6 24-9 23-19 23-23 20-20 14-22 15-22 15-25 12-25 10-28 10-25 9-29 8-27 5-25 5-30 2-26-2-25-9"/>
<path d="M2857 7763l 20-14 25 1 22 15 11 22 7 26 0 25-3 25-7 26-10 27-11 24-14 24-15 21 5-27 12-28 10-25 14-27 17-26 16-23 17-24 17-22 16-21 20-23 18-18 24-13 24-1 10 23 3 25-3 27-6 25-6 26-8 28-8 28-6 25-3 25-4 27 13 20 27-3 26-9"/>
<path d="M3242 7801l 26-4 27-6 24-5 26-6"/>
<path d="M3390 7818l 16-19 24 4 10 23-3 25-6 25-11 22-13 23-14 23-15 20 18-21 14-20 17-23 18-23 16-23 15-19 19-22 18-18 18-17 20 17-2 28-6 25-10 23-9 25-10 24-10 23 24-7 18-18 18-22 17-23 17-20"/>
<path d="M3665 7793l-14 23-10 22-6 24-3 26 6 24 25 9 26-10"/>
<path d="M3754 7813l-22 10 27 6 25-8 25-12 25-14 16-18-4-25-25-6-24 2-22 10-19 19-17 20-11 24-9 25-2 27 6 26 13 22 22 10 26 2 26-8"/>
<path d="M3855 7773l 28-5 24-2 27 2 25 10 17 17 4 25 6 23 24 11"/>
<path d="M4032 7722l-25 2-23 13-19 15-19 22-15 20-20 23-19 25-15 24-6 26"/>
<path d="M4681 7814l-18 20-12 22-1 25 11 22 25 2 26-16 24-23 17-20 17-21 14-27 11-23 8-27-1-28-14-21-22 10-1 24 25-1 26-13 21-13 24-14 27-17 22-14 24-16 24-17 23-21 24-21 21-23 22-22 19-25 18-27 13-28 10-27 5-27 4-25-2-27-7-23-23-11-19 19-15 21-13 23-14 29-10 24-12 26-11 29-12 33-10 36-11 39-12 41-13 44-10 45-12 45-12 45-10 46-10 43-7 44-4 40-1 37-3 35 3 32 4 28 6 25 15 28 15 23 17 17 22 12 27-5 24-18 16-20 12-25 10-29 3-32-1-33-5-37-9-25-12-26-12-27-17-26-13-24-13-20-18-24-19-15-25-12-25-4 28 3 29-6 28-6 35-7 24-6 23-5 26-5 27-7"/>
<path d="M5884 7747l 24 13 25 1 31 0 28 0 31-3 31-2 34-4 25-1 25-2 26-3 24-1 33-2 30-1 25-1 29-2 24-3 25-6 22-10"/>
<path d="M7391 7521l-3 27-1 27-4 26-6 29-5 24"/>
<path d="M7434 7400l"/>
<path d="M7560 7467l-25 3-24 11-23 15-13 20 15 22 23 5 27 2 28 1 28 0 25 4 22 9-13 21-20 15-24 14-24 9-24 10-24 8-27 7-25 3-24-7"/>
<path d="M8759 7307l 17 19-3 26-8 28-8 25-11 23-11 24-12 22-13 20-15 20 14-27 13-28 10-22 13-24 13-24 14-23 18-24 16-20 17-17 20-18 21-15 26-9 24-3 21 14 3 24-7 28-11 23-10 24-12 25-9 23-12 23-9 24 1 25 27 10 27-3"/>
<path d="M9708 7210l 26-6 27-3 29-4 28-2 26-2 25-1 31-2 24-1"/>
<path d="M9693 7313l 26-11 27-8 28-8 24-5 26-5 26-5 25-3 24-2 25-3"/>
<path d="M9961 7112l 22 13 23 12 26 13 24 10 22 10 24 11 20 17-3 24-19 16-20 16-21 17-26 18-26 20-23 17-21 17-17 21"/>
<path d="M5979 7572l 27 4 25-8 21-16 21-19 23-26 17-21 17-22 18-25 17-25 15-25 13-23 12-23 14-32 11-32 8-32 4-31 0-31-3-27-6-28-16-19-21 13-21 25-16 28-13 22-10 26-10 27-9 28-6 29-6 29-4 28-4 28-1 27 0 25 0 34 4 28 6 23 10 24 15 22 21 12 27-2 19-18 8-26-6-26-13-21-19-16 25-7"/>
<path d="M6319 7507l-8 24-3 24-3 25"/>
<path d="M10644 7514l 26 11 30-4 27-8 28-13 30-18 23-14 22-18 23-19 24-21 21-20 22-21 21-20 19-20 20-20 14-21 17-31 9-31 8-29 5-30 1-29-1-27-7-26-23-13-25 11-17 20-18 23-20 29-12 22-13 24-12 26-13 27-11 30-9 29-8 31-7 32-5 30-3 30 0 29 0 25 6 34 8 28 13 23 17 22 24 16 25 5 28-10 18-17 14-21 6-28-5-27-12-26-16-21-20-15-22-10 23 7 26 0 26-1"/>
<path d="M11125 7550l-12 21-9 26-6 26-3 26-4 24-6 24"/>
<path d="M11777 7133l-27 3-22 11-23 13-26 12-28 11-22 11-22 12-22 14-22 14-21 12-20 13 22 10 24 7 26 10 24 11 23 9 23 7 24 5"/>
<path d="M11883 7257l 18-16 8 26-9 24-9 25-11 22-11 22-10 22-15 22 11-25 12-22 12-23 14-22 16-22 14-21 18-20 20-18 21-13 24-11 25-7 23 5 11 24-6 24-9 25-8 24-11 22-11 25-11 23-9 24-6 25 3 26 15 21 23 6 28 0"/>
<path d="M2930 8809l 21-12 21 18 8 23 2 29-5 26-8 30-9 23-13 24-12 22-13 25-10 22 1-29 9-24 11-25 14-26 14-26 13-27 13-24 12-22 16-26 16-21 15-21 17-18 14 20-1 25-4 26-5 24-6 25-6 25-9 27-10 26-4 25"/>
<path d="M3214 8818l 22-16 26-7 24-4 29-6 28-4"/>
<path d="M3409 8779l 13 23 2 24-3 24-8 27-9 25-12 23 19-21 15-21 16-24 15-22 14-22 14-22 17-20 19 18-1 24-5 25-8 25 21-15 17-20 16-20 19-19 18-17 17 18-5 26 4 24 24 3"/>
<path d="M3736 8795l 25 0 25-10 26-10 22-13 21-16 6-24-24-3-24 8-19 17-12 24-4 25-1 26 11 22 21 15 25 7 25-1 27-7 27-11 27-10"/>
<path d="M4023 8706l 20-14 24-6 24 8 10 23 4 25 4 25 3 24 15 21 24 7 25-5 20-15"/>
<path d="M4160 8674l-22 14-18 18-17 24-12 21-12 23-13 23-11 25"/>
<path d="M4782 8718l-17 19-14 23-13 22-9 24-6 25-1 27 4 29 17 22 26 4 27-8 24-15 20-22 15-24 7-26 0-25-14-23-19-16 2 25 24-1 24-8 22-11 23-14 24-17 28-21 20-14 19-17 26-23 20-23 18-22 14-23 13-22 6-29-1-30-3-28-9-23-21-13-25 13-16 23-14 25-14 31-10 25-9 26-10 29-8 32-8 33-7 36-4 38-4 39-3 40-1 39-1 39 2 36 2 35 1 33 4 29 4 28 5 25 12 30 9 23 15 25 24 4 16-26 10-22 7-26 2-26-1-25-6-32-7-23-14-24-10-22-12-22-12-24-16-20 25 9 25 5 30 0"/>
<path d="M6055 8705l-16 18 2 26 12 23 16 19 25 7 24-5 30-13 27-17 22-13 22-16 23-18 24-20 20-22 24-22 25-22 24-23 25-22 18-21 16-20 16-31 12-29 9-30 4-32-2-29-4-26-6-26-17-19-25 1-21 20-17 20-18 26-20 30-12 21-14 21-12 24-10 23-9 25-6 25-7 25-4 25-2 25-1 35 1 32 3 28 7 23 14 25 17 21 25 9 30-3 27-9 21-11 19-17 0-25-16-19-22-12-23-8"/>
<path d="M6557 8751l-15 22-7 26-2 26"/>
<path d="M7162 8586l-17 20-9 25-3 24 0 24 2 27 7 24"/>
<path d="M7195 8465l 13 21"/>
<path d="M7304 8541l-19 17-20 18-17 19-1 24 24 1 26-1 24-1 26 3 7 24-23 16-22 10-28 9-27 2"/>
<path d="M9614 8328l 25 1 25-2 25-4 26-5 30-4 27-6 25-4 25-3"/>
<path d="M9551 8441l 25-9 28-7 24-7 24-7 33-9 39-9 24-6 24-7"/>
<path d="M9799 8205l 26 5 26 6 28 8 27 9 26 10 20 13 11 22-17 21-25 15-24 14-25 16-26 17-21 14-22 14-21 14"/>
<path d="M10604 8331l-17 19-4 26 3 25 16 23 25 8 29-5 33-13 26-14 28-17 31-20 31-22 34-23 32-23 32-24 27-23 27-23 23-23 19-22 19-21 14-21 15-30 8-30 4-27 2-27-3-29-12-21-25 9-25 21-22 23-16 18-15 21-16 23-16 25-15 28-16 31-16 32-15 34-16 32-12 33-13 31-7 29-5 28-3 26 0 33 6 27 15 26 19 15 28 7 27-7 20-15 18-20 13-27 2-24-5-25-11-25-17-25-16-19-19-16 24 7 27 8"/>
<path d="M11087 8477l-9 23-3 27-5 26-4 25-7 25"/>
<path d="M8432 8442l 4 24-6 24-8 27-9 24-11 24-12 24-15 25-16 21 15-26 13-21 15-23 18-22 18-21 17-16 18-19 20-18 20-13 24 6 3 27-9 26-7 24-6 26-8 25-7 25 12 21"/>
<path d="M8668 8504l 28-3 26-2 28-4"/>
<path d="M8988 8293l-9 24-2 30-3 30-3 25-4 25-3 26-4 27-3 28-2 28-6 28-5 26-7 24-7 27-5 25"/>
<path d="M11470 8208l 26 8 26 9 24 5 25 5 24 6 1 26-21 15-22 15-25 12-25 15-22 11-22 13-20 15"/>
<path d="M11431 8444l 23-14 25-7 28-6 29-3 27-4"/>
<path d="M11850 8335l-6 26-2 24-9 25-8 23-11 23-12 21 15-22 18-22 16-22 17-24 15-24 19-22 19-20 20-16 23-11 25-3 23 9 8 25-6 25-7 26-9 28-7 23-10 23-5 24 4 25 15 19 19 18"/>
<path d="M2830 10584l-3 24 0 24-1 28-3 25-5 25-6 25-9 26-7 24-9 23-3-28 4-24 4-25 9-26 13-27 14-27 14-25 13-24 16-19 21-13 26 5 15 22 2 27-2 27-2 25-2 25 1 25"/>
<path d="M3038 10635l 24-9 23-9 26-13 27-14"/>
<path d="M3289 10404l-2 24 4 26 4 28 2 24 0 25-1 27-2 29-1 29-2 30-3 29-1 26-3 28-1 24"/>
<path d="M3517 10633l 8-24 23-6 23-8 26-3"/>
<path d="M3723 10589l 17 18-6 24-5 23-8 29-5 26-3 25 8-26 9-29 5-23 10-29 11-29 9-24 13-23 14-22 22 15 7 24 5 28 1 25-3 25-2 25-1 24 17-20 15-21 11-24 15-24 10-25 16-18 12 22 6 24 5 23 13 21"/>
<path d="M4003 10607l 24-10 26-12 20-13 19-15 17-20 10-22-18-19-25-1-27 5-23 12-18 19-14 21-5 24 1 27 13 24 21 18 24 8 27 0 28-6"/>
<path d="M4162 10532l 26-5 25 6 25 17 22 16 19 15 20 14"/>
<path d="M4280 10447l-22 15-16 22-16 24-14 24-13 20-12 21-15 24-7 27"/>
<path d="M5086 10512l-23 11-16 25-10 25-5 28-2 29 2 28 8 27 18 19 23 7 27-7 20-16 17-23 4-25-7-25-15-19-18-17-5-25 18-16 24-12 23-11 24-15 20-15 24-18 25-21 19-17 19-18 20-19 19-20 19-21 17-21 17-21 14-21 18-29 14-26 9-26 4-27 2-25-3-32-7-28-14-22-25 10-12 22-16 31-11 25-12 27-10 29-10 31-10 33-8 39-8 39-7 42-6 41-6 42-5 42-3 41-2 42-1 39 0 37 1 35 3 33 4 30 5 28 6 25 10 33 12 25 15 19 24 16 24-4 15-23 9-30 5-27 1-29-3-28-5-29-9-29-13-28-15-29-13-30-13-26-12-22-16-22 25 3 26-7 32-13"/>
<path d="M6333 10451l-22 12-14 21-3 24 6 24 15 20 23 8 29-4 23-10 27-17 29-23 21-18 22-20 24-22 24-22 25-24 25-23 22-24 23-26 19-24 17-24 14-22 12-21 13-31 8-30 4-30-3-28-7-30-11-28-14-22-19-19-26-8-28 7-24 17-18 20-16 24-18 26-15 30-14 22-12 33-13 33-7 29-5 31-2 31 2 30 3 27 8 23 12 26 20 19 20 20 24 13 27 0 23-8 26-14 25-18 18-16 22-22 17-20 11-23 3-24-9-23-16-19-22-13-26 4-21 17"/>
<path d="M6779 10474l-8 23-1 26 1 24-1 25-5 27-6 23"/>
<path d="M7257 10471l-12 21 24 0 26-15 20-16 25-19 17-16 19-16 20-19 18-18 16-19 17-20 16-19 19-28 16-26 10-23 9-27-2-25-6-26-11-25-13-21-20-16-25 9-18 19-17 28-13 28-10 22-9 25-10 26-11 29-9 29-8 30-6 27-2 28-3 24-1 35 2 30 5 25 12 26 15 22 21 14 28 3 28-10 17-17 10-22-2-27-12-22-15-20-14-22"/>
<path d="M7591 10514l 24 2 23 9 5 23-13 22-20 19-18 16-12 21 23 7 28-5 24-5"/>
<path d="M7034 10607l-16 20-13 25-14 25-13 21-13 23"/>
<path d="M8393 10583l 0 27-6 23-8 27-9 27-5 24-2 27"/>
<path d="M8428 10451l"/>
<path d="M8533 10515l-25 10-20 17-14 21 17 18 26-4 24-4 26-2 22 10-1 26-14 23-19 22-21 14-21 13-24 8-24-4"/>
<path d="M9411 10476l 4 27-6 27-6 29-7 24-10 25-9 24-11 22-12 23 9-27 15-27 16-28 16-26 16-24 16-22 19-24 20-19 19-18 25 3-3 24-5 27-9 23-9 26-10 25-9 23-6 24 9 25 23 6"/>
<path d="M9645 10501l 25-12 27-4 28-4"/>
<path d="M9847 10480l 3 26-3 24-10 24-12 21-14 21 6-25 16-19 16-21 15-21 16-22 19-22 15-19 10 22-4 26-1 27-6 25-8 25 22-9 17-19 17-18 21-16 16-19 4 25-5 24-1 26 9 23"/>
<path d="M10086 10512l 23 7 25-7 25-10 22-13 20-14 18-18-23-10-27 2-25 11-21 13-19 19-15 22-10 26 5 24 12 22 20 15 25 5 28-2 25-9"/>
<path d="M10273 10469l 24-2 24 11 16 21 13 22 15 21 18 19 24 8"/>
<path d="M10388 10451l-24 1-18 17-16 21-15 22-17 25-13 21"/>
<path d="M11090 10333l 27-2 29-1 27-3 31-6 30-6 28-3"/>
<path d="M11070 10435l 20-14 28-9 28-10 24-6 26-8 28-8 26-7"/>
<path d="M11274 10220l 12 23 20 16 26 11 28 8 25 9 10 22-14 21-22 19-24 16-24 14-20 14-21 17"/>
<path d="M11718 10448l 20 19 30-2 27-7 29-11 32-15 23-12 23-13 24-15 22-16 21-16 19-17 16-18 23-27 19-26 16-25 13-28 10-29 6-29 1-30 2-27 0-26-1-25-12-22-27 6-27 21-24 25-18 20-16 21-17 22-15 23-15 25-12 24-12 26-12 27-10 26-7 27-6 25-6 34-2 31 2 28 4 24 8 26 16 20 23 15 27 5 30-4 22-11 20-17 14-24-3-26-15-22-15-20-21-14-7 24"/>
<path d="M12093 10479l 24 3 22 11 12 23-9 24-17 20-21 14-22 13 22 10 25-2 27-2 32-3"/>
<path d="M14209 2972l 14-22 11-24 8-24 0-28-15-21-26-10-27 7-26 17-20 18-19 22-17 25-14 27-9 26-5 30 6 25 15 24 27 9 27-8 25-13 25-18 18-17 19-24 12-22 4-26-11 23 2 27 5 28 4 24 4 28 6 27 6 29 5 28 4 31 0 33 0 34-2 36-1 24-2 25-4 25-3 25-7 34-6 24-6 24-10 29-12 23-15 21-22 13-26-9-18-22-14-30-8-26-5-32-2-37 1-27 3-29 4-32 7-31 8-30 10-28 9-26 11-22 16-31 17-26"/>
<path d="M14371 2964l-14 20-3 25 6 24 16 20 24 13 24-5 23-6 23-18 13-20 5-24-5-25-10-23-22-14-25 1"/>
<path d="M15089 2896l-23-13-25-1-21 18-14 27-10 27-8 25-2 25 5 28 15 20 25 2 26-15 18-17 20-22 19-25 17-26 14-25 12-26 11-29 6-27 1-27 0-30-3-31-6-32-4-34-3-28-1-26-4-25-17 21-6 24-6 26-3 27-4 28-4 31-3 32-1 31 2 30 2 29 4 27 5 24 9 26 12 21 21 15 28-5"/>
<path d="M15251 2906l-18 17-12 22-4 25 4 26 16 21 25 5 22-9 22-17 15-23 0-25-15-19-25-11 25-7 21-10 23-9 25-9 24-7 13 21-6 25-6 26 5 25 26-1 24-11 19-16 16-19 11 23 23 15 25 0 28-6 22-12 17-17 8-25-12-21-19-16-24-8-26 4"/>
<path d="M15711 2857l 3 25-4 27-5 24-7 24 20-22 16-22 14-23 15-21 18-20 17-22 22 12-4 24-3 24-1 26-3 27 6 23"/>
<path d="M16295 2905l 3 24 28-2 22-11 22-13 26-19 19-15 18-16 20-18 19-18 18-19 19-18 15-19 21-26 14-28 9-26 6-28 0-27-1-27-5-30-11-23-27 8-20 24-16 25-16 28-11 21-11 23-10 22-11 25-9 25-9 27-8 27-6 28-3 25-3 24 1 34 5 26 8 24 15 23 20 17 23 5 24-7 22-18 15-22 7-28-5-28-11-26-14-23-15-20 25 2 24 1 24 0 28 3 22 10 5 27-3 24-2 25 4 24 22-11 21-21 16-19 17-20 17-23 12-21 9-25-9 27-1 25 1 25 1 25 2 28 2 31 1 31-1 37-1 26-2 25-2 25-1 24-2 25-3 29-3 25-5 25-6 24-11 31-9 23-16 30-16 28-16 23-20 22-23 10-24-6-13-23-7-24-2-29 1-34 3-24 4-26 5-25 8-25 6-25 9-24 10-23 11-22 19-26 18-26 20-20 19-22 19-16 21-17"/>
<path d="M17377 2615l 23-13 26 1 26 3 26 7 22 10 23 12 16 21-4 26-16 19-19 22-25 19-26 21-28 20-30 19-30 19-29 18-28 18-25 16-19 16-19 16-15 19 15 19 26 4 29-2 24-2 27-4 25-3 26-4 26-4 25-5 29-2 27-2"/>
<path d="M18009 2809l 20 15 2 25-2 24-8 26-10 24-11 21-15 21 19-23 18-22 17-20 17-21 19-25 16-21 14-22 6 28 3 29 2 27 3 26 23 8 18-22 16-21 18-19 19-17 25-8 8 27 5 24 11 23 18 16"/>
<path d="M18468 2837l-17-19-27 2-22 15-23 19-17 19-17 22-10 25 13 22 25-5 24-10 26-9 22-12 21-14 14-21 6 24 25 9 27-2 24-7 35-35 16-18 23 9 20 16 20 16 18 16 22 14 23 12 24 3 27-10"/>
<path d="M18772 2824l-22 14-17 17-16 21-18 22-18 20-17 20"/>
<path d="M14165 4377l 16-21 8-24 8-25-2-27-9-23-14-20-25-6-22 10-24 20-19 21-18 24-15 23-12 25-8 24-6 29 2 28 15 19 25 5 27-8 21-11 19-17 17-19 12-21-10 23 0 29 4 27 5 26 6 23 4 24 4 26 2 27 2 27-1 28-1 29-2 28-5 30-7 26-8 25-15 24-16 17-26 12-28-2-25-12-15-20-9-29-3-27 3-31 8-34 13-33 13-22 15-21 16-20 18-20 17-19"/>
<path d="M14319 4350l-26 10-19 20-13 25-7 28 2 25 17 21 26 8 28-4 28-11 19-16 18-16 18-19-5-24-19-17-25-12-25-7"/>
<path d="M14737 4271l-25-2-21 16-18 16-17 25-10 23-6 27 2 27 15 19 27 2 26-13 22-20 16-19 17-21 16-25 14-27 12-28 11-29 7-30 4-30 0-31-4-30-4-33-5-35-3-24-5-33-4-25-7-25-15 19-6 26-6 32-2 28-1 30-1 31 1 34 0 35 3 35 3 35 6 31 10 25 15 26 20 18 27 8 29-10 21-15"/>
<path d="M14954 4244l-23 14-16 22-13 21-6 23 10 25 21 11 28-6 23-12 19-19 8-24-11-22-23-12 25-10 25-3 25 0 2 24-4 24-3 24 8 24 26 0 24-9 23-15 18-18 15 21 23 9 27-4 19-16 12-24 2-25-11-23"/>
<path d="M15305 4233l 2 27 2 25-2 24-3 25 15-23 14-24 17-19 16-21 19-18 18 16-3 27-1 28-2 25-2 27-3 27"/>
<path d="M15836 4282l-8 23 21 13 23-13 22-16 25-24 18-19 21-20 20-21 20-21 19-20 17-21 16-19 19-29 12-28 6-27 2-27-5-29-8-23-19-18-26-3-21 17-19 27-15 31-12 23-8 27-9 27-6 27-6 29-4 27-4 28-4 28-1 26 3 35 6 29 7 24 15 24 18 17 25 3 20-15 12-21 3-24-6-24-13-21 25 6 23-6 27-10 23-15 20-16 20-19 18-16-2 25-4 26 5 25 17 18 25 3 25-9 23-16 15-19 5-24-16 22-2 28 1 30 0 26 2 31 3 31 1 33 2 36 0 25 1 26 0 27-1 27-3 28-3 28-3 29-5 28-7 28-6 27-7 24-10 30-12 23-15 22-24-9-10-24-5-26-2-30 2-24 2-25 3-26 4-27 5-28 7-30 8-31 9-32 8-29 11-29 12-27 12-25 16-23 14-22 15-21 16-18 25-24"/>
<path d="M16720 4123l-20 19-15 20-13 27-7 24-6 27-4 28-1 28 2 26 4 27 9 29 18 22 27 10 27-8 23-9 23-12 24-18 22-19 21-20 17-21 19-28 11-29 5-24-4-32-10-25-12-25-15-25-19-25-20-20-22-14-28-11-26-5-25 3-25 12-22 17-10 23"/>
<path d="M17001 4140l"/>
<path d="M17007 4229l"/>
<path d="M17531 4282l 1-27 0-24-9-23-25-11-25 5-20 18-18 21-12 23-12 26-10 28-9 28-9 28-5 25-1 26 13 23 27-2 25-19 20-19 19-22 17-26 16-28 15-30 13-32 8-24 11-34 8-35 4-25 3-25 1-28 2-28 0-30-1-29-1-28 0-28 0-34 0-26-1-26-6-24-7 24-5 30-4 30-3 32-3 25-3 25-3 25-4 26-4 27-4 28-4 26-4 27-3 25-4 25-4 34-3 34-1 29-1 26 2 27 7 25 13 21 25-2 23-14"/>
<path d="M17667 4236l-8 23-3 25-1 28 2 26 1 27 8 25"/>
<path d="M17710 4116l"/>
<path d="M17850 4181l-25-4-20 15-13 21-14 25-9 23-8 23-8 29-1 25 3 25 16 22 27-1 23-20 22-25 17-25 17-28 13-29 12-30 7-26 7-28 4-29 2-32 1-34-3-35-1-25-2-24-5-34-2-30-2-24 0-24-10 25-3 29-3 27-4 32-3 32-2 34-3 35-3 24-4 25-2 34-1 32 1 28 2 25 4 28 10 26 17 21 28 7"/>
<path d="M18279 4194l-6 23-6 26-7 28-7 24-7 26-5 24 15-23 12-24 13-27 13-26 14-26 12-23 13-20 13-21 16-19 18-15 15 20-2 26-4 27-5 24-6 27-4 25-3 27 6 25 28 5"/>
<path d="M18527 4194l-19 15-14 24-7 24 1 25 16 19 25-1 22-12 18-18 9-24-12-23-17-20-24-13"/>
<path d="M18742 3933l-8 25-1 27-2 30-4 26-7 30-8 30-3 25-3 24-3 31-3 25-3 25 0 28 4 25 14 21 27 2 23-10 20-16 21-18 17-22"/>
<path d="M18616 4119l 24-4 24-7 28-8 26-8 28-9 32-10 33-9"/>
<path d="M19237 4168l-27-3-20 13-22 15-19 18-16 19-13 21-11 22-11 25-3 24 9 24 26 10 26 1 26-4 30-8 23-9 22-9"/>
<path d="M19338 4202l-1 27 3 27 0 26 1 27-3 26-7 24-1-27 6-29 7-28 6-24 12-26 13-21 18-17 26-10"/>
<path d="M19503 4197l-18 18-12 24-3 25 12 23 21 15 27 1 25-13 18-17 12-23 1-24-14-23-22-15-24-5"/>
<path d="M19716 4138l-26-1-22 16-17 18-8 22 20 18 23 9 22 10 23 12 17 18 1 25-19 17-22 12-27 10-26 9-27 2-23-12"/>
<path d="M19907 4109l-27 4-27 7-24 14-14 22 16 20 24 9 29 6 26 3 25 1 27 3 25 6 7 25-17 22-21 16-24 15-25 13-26 10-22 9-25 4-26-2"/>
<path d="M20494 3913l 3 29-1 29-4 28-6 30-6 24-8 26-9 26-10 29-10 30-11 28-10 25-7 23-4 27 7 23 24 11 31-2 24-6 25-8 25-11 25-10 21-14"/>
<path d="M20423 4101l-30-6-28-2 25-3 31-8 29-10 33-14 24-10 24-11 27-11 25-12 23-14 21-13 26-20 20-18 18-21 12-22 8-25-10 22-6 27-5 25-3 27-4 27-6 31-7 31-7 32-8 31-7 28-6 25-5 24-7 27-6 24 19-18 15-23 14-25 16-22 19-21 20-15 25 5 3 28-1 25-2 25 0 25 19 18"/>
<path d="M20859 4146l-10 23-3 26-1 26-2 27 0 26-1-26 4-28 5-26 10-23 15-23 19-16 25-13 23-9 27-3 25 4"/>
<path d="M21025 4161l 18 16 26-6 23-10 20-13 18-16-18-16-26 1-27 8-25 11-22 16-17 20-9 24 2 25 17 20 25 9 25 3 29-3 24-6"/>
<path d="M21297 4118l-25-1-24 8-21 13-6 24 25 7 28 5 25 4 25 9 15 19-22 18-25 14-25 11-24 8-26 6-24 1"/>
<path d="M21442 3906l-8 26-2 27 0 26 0 29 0 26-2 27-2 28-4 28-4 28-4 26-4 27-1 29-2 25 28-7 16-22 19-23 16-20 19-18 21-11 11 25-1 25-3 25-2 25-2 27 2 26"/>
<path d="M21649 4334l 5 25-9 26-15 29-17 29"/>
<path d="M17489 5090l 17 21 3 27 2 28-2 25-3 28-3 27-4 27-6 26-7 28-6 24 3-24 9-30 6-25 7-26 8-25 9-23 12-28 13-22 15-23 16-18 22-12 18 20 5 28 1 25-1 27-3 27-3 26-3 28-4 28-2 27 25 9 20-15"/>
<path d="M17718 5211l-10 22 7 23 26 5 25-8 21-13 17-18 12-22-13-20-21-11-26-1-24 14-17 18-14 25-10 26-9 25-5 24 1 26 12 24 23 13 28 4 26-4 31-8 23-8"/>
<path d="M17909 5204l-12 24-2 25 0 27 18 16 27-10 22-17 17-17 12-21 4 24 17 18 27 3 22-8 24-12 19-20 11-22 2-24-11-23-14-21-18-16"/>
<path d="M18415 4862l 4 27 1 26-2 27-1 30-3 30-4 24-5 31-5 30-5 29-1 25-2 27 0 25 6 26 15 21 27 9 30-2 27-9 24-14 22-19"/>
<path d="M18315 5051l-23 8 24-1 25-9 24-9 27-12 31-15 31-16"/>
<path d="M18560 4831l-17 18-6 28 2 27 4 25 4 29 4 25 2 27 0 29 0 28-1 29-2 27-4 25-3 28-3 24 9-29 11-29 9-25 10-23 11-22 18 15 9 25 7 27 10 24 17 19 25 2"/>
<path d="M18724 5071l-16 19 0 24 1 27-2 25 2 25 3-29 1-24 2-25 5-25 12-22 19-15 24-7"/>
<path d="M18802 5099l 26 3 26-7 24-10 22-14-15-20-26-4-26 6-21 13-16 21-9 26 1 26 12 23 23 17 30 3 31-7 29-9"/>
<path d="M19055 5064l-21-14-24 6-22 16-18 18-1 25 25 8 25 1 25 1 26 3 24 9-9 24-23 17-26 15-25 9-26 0-20-20"/>
<path d="M19205 4791l-17 17-3 25 3 25 2 24 1 28 0 31 1 33-1 35-3 36-6 34-6 33-4 29-3 26-3 27 21-17 16-25 16-28 15-29 13-28 12-27 12-22 13-24 14 23 1 28 0 25 0 26 1 25 3 25 14 20"/>
<path d="M19844 5022l-3 27-5 27-5 25-4 24"/>
<path d="M19872 4875l 11 23"/>
<path d="M20024 4966l-24 4-26 10-22 11 7 25 26 10 23 10 23 9 21 15 8 24-18 18-23 15-28 11-26 5-26-3-23-13"/>
<path d="M20654 5152l 27 6 24-10 24-13 28-19 20-15 22-14 20-17 21-16 18-17 18-18 22-26 18-26 12-29 9-31 6-31 3-34 2-32 0-31-2-31-6-24-22 12-19 24-15 24-15 28-16 32-10 22-11 24-10 25-8 23-8 24-5 23-5 32 0 29 6 30 12 23 16 18 23 15 24 6 26 0 24-3 20-15-4-25-6-23-7-25"/>
<path d="M21056 5046l 22-11 24-4 24-10 23-11-4-25-25-4-23 10-21 16-18 19-15 25-4 24 3 24 10 23 21 13 28 1 31-8 27-11 27-15 25-17 24-20 22-21 20-21 18-22 14-23 11-27 7-29 5-31 7-31 3-31 3-30 1-27 0-28-4-25-21 16-8 22-9 28-5 25-4 25-3 28-3 30 0 30 0 31 3 28 3 28 3 26 5 29 10 24 15 22 26 8 28-7"/>
<path d="M21464 5002l-26 5-18 19-4 25 14 21 24 11 27 0 25-7 22-13 14-22-13-22-20-12-24-7 23 9 25-2 26-1 28-2 27-4 24-4 25-8-18 16-15 18 4 25 23 14 25 5 27-1 25-5 23-12 17 18 25 5 25-5 26-11 22-14 15-20-5-25-16-21-16-20-18-17"/>
<path d="M14410 6447l 0-26-4-24-10-24-22-13-26 7-21 18-18 20-14 23-13 25-8 25-6 24 0 28 8 25 20 15 27 0 27-13 24-18 19-19 12-23 5-24-20 18 5 28 4 26 6 29 8 30 5 23 4 26 2 28 4 28 3 27 1 28-1 28-3 25-5 24-11 24-18 22-23 5-25-8-20-16-15-24-9-24-5-29 2-33 4-35 8-25 8-24"/>
<path d="M14538 6429l-14 24-13 26-9 23-6 23-3 24 1 27 24 14 27-2 24-16 17-20 12-21 3-25-13-21-17-17"/>
<path d="M14979 6427l-22-15-24-8-24 11-17 23-11 26-7 25-3 24 16 22 28 3 22-10 25-20 19-20 18-22 16-25 13-26 10-28 10-27 10-28 4-27 0-27-1-27-2-28-5-30-5-30-3-27-6-23-26 0-12 21-10 32-7 28-4 32-1 31-2 33 1 32 5 32 6 28 9 26 13 21 20 21 23 13 25 6 25-3"/>
<path d="M15169 6411l-25 11-9 23-5 27 5 25 23 12 25-7 21-15 17-18 15-23 3-24-9-25-16-19 26-8 27-4 24-7 25-7 16 20-3 24-5 26 18 16 22-12 22-17 20-18 16-20-17 17 6 27 19 17 25 9 26-3 24-13 18-19 12-21 6-24-13-21-17-18-22-16"/>
<path d="M15610 6332l-5 25-5 25-2 26-5 25 15-25 13-21 16-19 18-21 19-20 21-14 12 23-2 26-1 24-2 27 2 27"/>
<path d="M16184 6435l 14 20 26-10 22-19 21-21 23-24 17-18 18-19 18-20 18-20 19-21 18-21 16-22 15-22 12-22 15-31 10-31 4-29 1-29-2-24-8-25-19-15-18 16-15 23-17 34-10 27-9 31-9 33-8 35-8 35-6 36-7 36-6 34-4 34-2 32 1 28 3 25 8 30 13 27 17 17 23 6 26-8 21-19 16-25 9-27 5-27-10-26-13-23-19-16-19 17 9 23 22 13 25 0 23-8 22-11 21-15 22-18 15-21 9-23-17 21-2 25 0 26 2 29 3 24 5 27 5 28 5 30 5 33 6 34 5 34 4 33 1 36-2 34-4 33-8 31-9 31-11 27-12 24-20 23-22 14-30 5-28-9-21-16-17-26-9-26-6-29-2-34 2-26 3-27 6-28 6-28 11-26 11-26 15-23 16-21 16-20 18-20 17-19 17-19 19-19 16-19 21-18"/>
<path d="M16998 6039l-5 24-2 26-2 26-3 24-3 28-5 31-4 33-6 31-4 30-4 28-4 27-2 30-2 27"/>
<path d="M17201 6160l 2 26"/>
<path d="M17184 6256l"/>
<path d="M17641 6388l-13-20-24-3-24 10-22 17-20 18-18 20-16 19-14 25-10 22-2 25 12 23 24 16 26 3 28-3 31-8 25-7 25-8"/>
<path d="M17781 6435l-7 23 4 27 0 26 1 26-9-24 3-26 6-23 13-22 19-18 22-18 22-12 24-6"/>
<path d="M17978 6406l-23 11-15 22-7 25 2 24 13 21 25 13 26 2 26-6 20-13 15-20-2-26-19-15-27-5-24 8"/>
<path d="M18187 6394l-25 11-21 15-17 17 15 21 28 6 28 1 28 0 26 1 25 2-3 26-24 17-26 13-26 10-23 8-28 5-27 1-19-16"/>
<path d="M18437 6337l-26-4-22 10-9 24 15 21 25 5 26 2 25 3 23 8-9 24-21 17-22 14-27 10-26 5-24-3"/>
<path d="M19058 6048l 4 27-2 30-4 32-7 28-8 30-10 33-12 31-11 31-11 29-8 26-6 27 1 24 16 19 30 1 25-7 27-14 21-13 21-17 13-21"/>
<path d="M18970 6267l-28-3 23-8 28-15 25-14 28-18 29-20 22-15"/>
<path d="M19214 6023l-7-23-14 23-5 26-2 31-2 26-1 27-2 30-3 33-3 33-5 30-6 29-7 27-7 25-7 28-6 24 23-12 19-21 18-23 17-21 19-20 22-11 10 25 4 25 1 25 18 18 25-7"/>
<path d="M19373 6284l-9 23-1 25-1 25 1 25 3-26 2-27 6-25 18-19 23-11"/>
<path d="M19517 6304l 27-1 25-5 24-8 22-11-17-20-26-4-25 3-23 10-21 19-17 22-9 24 7 25 22 14 30 5"/>
<path d="M19773 6281l-25-3-24 5-20 15 6 25 22 12 24 8 25 6 25 9 22 11-15 20-23 11-28 7-28 3-26-3-24-14"/>
<path d="M19883 6039l 8 24 6 27 4 27 3 24 2 28-1 29-4 29-5 29-5 27-6 26-7 29-6 26 19-17 19-24 18-23 19-19 18-16 16 19 0 27-2 29-1 27 3 24 15 23"/>
<path d="M20113 6450l-2 25-15 21-21 18-19 16"/>
<path d="M20316 6314l 5 27 0 26-2 25-9 25-17 17 6-28 13-23 15-24 15-20 17-21 20-17 23-12 21 13 1 25-4 26-9 25"/>
<path d="M20523 6323l 25 5 23-7 26-8 22-14 0-24-23-9-28-1-25 8-20 14-17 19-10 25-1 24 8 23 18 21 23 11 31 7 24 0"/>
<path d="M20682 6331l-20 17 10 22 23 13 26 3 24-6 26-9 20-17 14-20 13 24 23 7 28 2 24-4 15-20-12-23-18-17-18-17-8-22"/>
<path d="M21172 5972l-4 25 0 24 2 31 4 26 6 27 4 28 2 32 1 33-1 32-3 30-5 26-6 28-6 25-5-27 9-28 10-27 14-24 20-16 25 3 19 16 19 18 12 22-6 24-19 16-23 13-23 9"/>
<path d="M21391 6276l 25-5 26-3 23-7 11-23-20-17-26 0-25 12-20 16-14 22 0 25 14 22 21 13 27 3 25-1 27-5 26-8"/>
<path d="M21588 6014l-8 27-3 25-2 31-1 28-3 32-2 32-2 28-2 26-1 30 1 27 4 25 9 24 27 5 28-8 25-12"/>
<path d="M21737 6264l-27 3-25 8-18 18 6 25 18 16 26 7 27-1 23-6 19-16 6-25-13-24-22-16-24-6 24 9 25 1 26-1 24 2 10 23 0 27 6 24 19 15 26-7 23-14 17-17 3 27 12 25 15 20 21 16 23 10 28 2 25-10 19-15 10-23 2-29-5-29-10-26-15-21-20-16-22-12-24-3"/>
<path d="M19627 7171l-27 5-21 18-13 23 1 27 18 20 26 7 27-3 25-9 17-18-1-25-15-20-20-13 25 0"/>
<path d="M19740 7172l 4 26 4 24 3 26 5 24-4-24 4-24 8-25 14-22 23-13 25-1 26 4 30 6 25 7"/>
<path d="M17355 7980l 1 24 1 28 3 25 1 26 0 26-7 24-1-27 10-27 8-26 13-22 16-20 13-20 15-22 19-14 25 3 6 25 0 27-1 25 2 27 9 23 28 3"/>
<path d="M17588 8016l-11 22 1 26 13 20 26 8 29-4 22-9 24-15 18-18-2-25-22-18-25-10-28-2-28 4-22 12"/>
<path d="M18085 7732l 11 26 6 26 3 24 2 30 1 31-2 26-3 26-4 26-4 24-5 31-1 25 1 27 15 21 25-2 22-12 22-18 19-20"/>
<path d="M18025 7884l 26-2 23-6 29-9 25-10 27-11 27-12"/>
<path d="M18251 7689l-18 17 1 27 3 24 3 29 1 32 0 26 0 28-1 27 0 26-2 26 1 29 0 26 20-16 15-25 12-22 14-21 21 12 4 28 2 28 1 24 6 23 22 13 25-9"/>
<path d="M18424 7958l 3 25 2 27-1 25 1-29 10-24 14-24 18-18"/>
<path d="M18520 7969l 26 2 23-10 20-15 17-19-16-20-25 2-22 12-19 20-13 23-6 25 14 22 25 10 24-1 28-6"/>
<path d="M18717 7891l-20 13-12 21-4 25 17 17 25 1 27 0 25 1 6 23-19 16-23 8-26-7"/>
<path d="M18803 7711l 8 23 10 28 9 29 6 27 2 30-2 30-5 29-5 30-5 28-4 25 22-18 16-24 15-23 21-13 16 19 8 24 3 24-1 24 3 27 5 24"/>
<path d="M19035 8048l-14 20-9 24-14 24"/>
<path d="M19642 7905l 0 24-1 24-4 26-8 27-12 22-3-24 14-23 16-23 16-21 18-20 19-16 25-4 15 21 6 27 3 28 0 26 6 23 25-3 20-13 18-15 31-39 25 0 26-2 24-5 25-11 21-15-8-24-23-5-22 11-18 19-13 22-1 25 11 23 24 13 26 3 26-1 30-8 23-10 28-13"/>
<path d="M20108 7910l-16 18-2 25 16 21 25 9 25 0 27-5 21-13 16-20 5 27 14 21 21 15 26 4 26-5 20-17 9-25 0-24-12-23-13-24-18-17"/>
<path d="M20772 7907l-28-2-24 8-21 12-19 19-15 24 3 24 26 6 30-8 24-11 23-13 20-17 20 13 26-7 26-12 27-14 27-15 23-19"/>
<path d="M20998 7803l 6-32 5-27 6-29 6-32 5-31 5-29 5-28-26-1-19 23-14 23-13 26-12 29-12 35-7 24-6 25-6 26-6 26-4 25-3 34 1 30 3 26 9 29 13 24 22 14 25-2 25-13 16-18 15-19 15-22 5-25-4-26-13-25-19-16-25-5"/>
<path d="M21156 7835l-16 20-6 25 1 25 10 22 24 6 24-10 18-17 4-25-15-19-22-15-23-9 25 1 25-3 25-4 26-5 26 2 19 17 7 25 4 24 8 26 9 23 24 5 14-20 11-24 8-27 6-25 6-26 4-25 26 3"/>
<path d="M21546 7850l 27-6 23-6 24-9 22-14 14-21-9-25-21-13-25 1-24 12-18 17-13 22-7 28 6 26 11 22 19 18 26 12 25 5 33 3 28 1"/>
<path d="M14363 9320l 5-28 5-28-1-28-8-26-19-18-25 8-19 19-17 19-15 24-14 24-9 26-8 28 1 25 15 21 24 7 27-4 29-11 22-13 23-17 19-19 7-23-23 11-2 26 6 26 6 24 7 26 10 28 9 29 6 24 6 25 3 29 1 30 2 31 1 31-3 28-6 23-13 27-19 22-22 15-24 6-26-12-17-21-11-28-4-25 0-32 3-25 6-27 7-30"/>
<path d="M14568 9264l-13 23-14 25-11 22-8 27-3 26 13 25 25 8 27-8 21-14 21-17 17-24 8-26-9-25-18-19-22-12-23-13"/>
<path d="M15105 9236l-25-5-23 7-22 16-19 21-15 25-7 25 4 25 23 14 25-2 25-9 22-12 22-17 23-21 20-25 19-25 17-26 16-28 12-30 11-31 6-33 3-34 0-35-1-35-6-36-4-24-6-34-7-27-9-23-24 10-9 27-7 27-4 32-4 33-2 24-2 26-3 27-2 29-2 29 0 28 0 27 2 24 3 25 8 31 7 26 14 27 14 20 22 12 27-4 20-14 21-20"/>
<path d="M15337 9196l-23 14-12 23-8 24-2 28 12 21 24 12 24 1 24-9 20-16 15-23-1-26-18-20-25-13-25-5 31-3 27-4 28-4 29-3 26-3 24-2 10 23-10 24 1 25 5 25 22 12 27-5 24-14 15-19 15-24 7 24 15 20 25 8 24-7 22-17 11-24 9-24-6-27-12-23-14-21-19-15"/>
<path d="M15768 9152l 20 14 4 24 5 25-4 25-1 25 11-25 13-21 14-25 14-20 16-19 22-11 22 11 6 25 3 28 1 27 8 27 18 20"/>
<path d="M16238 9192l 0 24 7 24 27-2 23-11 27-20 21-20 23-25 23-26 15-19 18-28 18-30 17-29 14-28 9-27 3-26 2-27-1-24-5-29-8-24-16-20-19 16-15 25-10 27-12 32-7 25-8 25-7 27-6 27-5 27-4 30-4 30-3 31-2 29 0 27 2 34 5 26 10 23 19 17 25 0 22-17 14-27 5-28-3-28-6-24 15 19 25-1 27-5 23-8 24-3 10 23 25-1 17-19 20-19 20-20 15-20 16-19 14 24 5 27 7 29 6 24 5 26 6 29 7 31 4 33 2 36 0 24 0 27-2 27-4 29-6 28-6 26-7 27-7 26-9 27-9 26-12 24-13 30-16 23-21 18-25 8-20-14-10-24-6-25-2-32-1-25 0-27 1-28 1-31 5-32 7-32 9-31 11-30 10-26 13-25 11-22 20-30 22-26 24-22 25-21 23-17"/>
<path d="M17098 8891l 27 1 25 8 28 11 21 10 22 12 20 16 4 25-8 23-13 22-20 23-16 19-16 19-19 17-21 23-15 22-16 23-10 24 9 24 24 10 28 1 30-4 24-8"/>
<path d="M17446 8992l"/>
<path d="M17460 9058l"/>
<path d="M17912 9005l-23-11-23 11-19 17-17 22-13 22-14 25-15 25-11 22-9 25 14 21 27-3 27-9 25-9 26-10 26-12 25-12 24-13"/>
<path d="M18024 9030l-8 25 0 27 3 28 0 24-12-21 4-29 9-25 13-21 18-18 21-18 19-16"/>
<path d="M18225 8994l-17 17-15 20-10 25-5 27 8 22 26 7 25-9 21-14 17-19 12-22 2-24-17-22-27-9"/>
<path d="M18416 8967l-25 5-22 16-11 22 21 15 25 6 24 6 26 6 5 25-20 14-24 15-27 9-27 3-10-24"/>
<path d="M18574 8954l-24 5-24 12-21 17-11 22 23 10 26 1 27 2 25 4 24 8 17 17-10 24-22 15-22 12-24 9-26 1-25-4-22-13"/>
<path d="M19130 8711l 2 26-4 30-5 31-7 27-9 28-12 29-11 30-12 31-10 29-7 27-5 29 2 24 9 23 18 17 28 4 23-6 25-13 24-20 19-23 13-23 5-28-9-27-18-23-23-21-22-12-28-9-28-3-28 3-24 11-13 20 23 10 31-6 24-9 28-14 31-16 30-20 20-14 21-16 27-21 23-22 16-19 16-25 9-22 2-27-14 24-4 30-1 28 0 29-2 32-4 32-5 33-4 35-4 31-5 26-5 24-2 25 25-5 18-20 18-19 18-19 21-12 7 25 3 26 2 27 5 26 9 25"/>
<path d="M19489 8998l-15 20-5 25 10-25 8-24 11-24 14-21 19-18 24-11 27-4"/>
<path d="M19641 8964l 23-11 22-9 21-16 14-19-20-15-25-3-24 6-23 12-19 17-18 21-6 24 13 23 22 12 25 4 28-3 25-6"/>
<path d="M19845 8899l-25-7-20 16 1 26 23 14 23 9 26 9 24 9 20 16 4 24-14 21-23 17-24 7-24 3-24-3-24-7-18-18"/>
<path d="M19994 8672l 2 28 3 24 8 30 5 24 5 27 3 27 3 28 1 28-5 29-5 28-6 27-6 23-9 27 23-10 17-17 19-19 17-18 20-16 22-14 19 17 2 26-1 24 0 28 3 25 8 23"/>
<path d="M20224 9061l-10 23-12 26-11 21"/>
<path d="M20570 8895l-7 24-2 26-3 26-4 28-5 26 22-22 18-19 18-19 18-18 21-21 19-18 18-18 10 25 3 26 6 24 5 25 3 25 21 13 28-10 22-13"/>
<path d="M20850 8923l 17 20 25-1 24-6 23-9 14-21-17-18-26 3-21 15-18 18-15 21-11 22-1 26 17 19 25 1 28-4"/>
<path d="M21079 8913l-23 8-6 25 9 25 18 15 25 5 28-5 21-12 20-17 3-25-15 21 8 25 20 19 22 8 28 0 25-8 21-14 19-18 10-24-6-23-14-20-21-18"/>
<path d="M21643 8883l-23 8-24 17-17 17-11 22 5 26 21 14 28 1 23-9 19-16 0-24 16 18 25 10 25-4 27-13 25-12 23-16 23-19 21-20 20-21 16-22 13-24 10-27 4-27-2-28-3-25-8-26-15-20-25 5-21 22-18 26-10 23-9 24-5 26-1 27 0 28 3 27 4 26 5 24 10 27 11 24 16 22 22 15 25-1 22-16 9-23 0-25-10-24-13-21-20-14 16 18 24 4 26 3 27 3 25-1 25-4-22 10-17 19 1 24 22 10 22-12 5-24-9-23-4-24 17 18 21 15 21 14 17 19 17 18 21-14 10-22 12-22 11-21 17 17 23 8 24 0 25-5 22-12 22-12 12-21-24-10-25 5-21 18-18 19-11 25-3 27 6 26 20 20 28 10 30 3 26 1"/>
<path d="M2928 12597l 22-11 26-4 31-7 24-6 27-6 24-7 23-6 28-9 25-5 26 1 14 22-4 27-12 26-12 21-15 19-16 18-19 20-20 18-21 14-22 12 28 12 25 6 26 4 30 4 24 4 24 5 25 6 24 6 22 11 21 17 6 27-2 24-6 29-12 25-19 22-21 16-25 15-29 13-30 12-30 9-30 7-31 6-27 3-27-1-31-2-24-4-22-11"/>
<path d="M3757 12483l 23-14 26-3 27-3 28-1 24-1 26 0 29 0 25 1 26 6 11 21-13 26-18 24-19 19-21 19-23 17-21 17-20 16-21 17-24 19-21 12-22 13 26-2 26-4 29-4 25-3 26-3 29-2 28-2 27-2 26-1 27 0 26 1 28 6 22 11 13 24 1 26-7 26-12 24-16 26-22 28-16 17-19 18-19 15-28 19-33 16-34 10-33 6-31 3-28-1-29-2-31-4-25-6-22-13-21-13-14-21"/>
<path d="M4439 12473l 5 24 1 27-3 27-1 32 1 34-1 24 0 25-1 27 1 28 1 28 2 28 1 31 2 29 2 28 2 25 6 25 2 33 1 30 0 27 4 32 3 24 8 26"/>
<path d="M5668 12801l 24-4 26-1 29-4 29-5 25-3 30-4 29-2 24-3"/>
<path d="M5709 12899l 28-5 28-3 28-5 31-6 24-6 28-6 25-8 25-9"/>
<path d="M5947 12714l 27 3 24 7 24 8 25 9 23 12 22 13 7 24-12 22-17 20-15 21-17 18-18 17-15 22-10 24"/>
<path d="M7009 12454l 12 23 5 26 1 31 2 25 3 26 4 28 3 29 3 29 3 30 3 30 2 31 0 31 0 31 2 31-2 31-6 28-4 31-4 28-7-26 3-26 4-28 4-28 8-25 11-25 13-21 17-20 21-16 25-2 26 8 27 10 21 13 21 16 20 18 17 21 8 26-2 25-10 27-12 21-16 20-17 17-26 17-25 11-23 7-25 4-26 0-26-4-25-6"/>
<path d="M7404 12954l 2 25 3 24 1 25 1 25 1 24 2 25"/>
<path d="M7881 12613l-27 5-25 11-22 11-24 12-21 12-23 13-19 16-18 16 23 10 24 6 24 5 28 6 24 5 24 2 24 10 26 4"/>
<path d="M8187 12489l 23-12 27-1 25 4 26 4 25 4 28 5 24 5 23 12 18 18-11 24-18 18-23 17-20 14-24 17-22 14-21 15-18 18 25 4 27-7 30-4 24-2 30 2 30 5 25 7 24 14 20 16 15 21 6 23-6 27-11 22-16 20-20 19-23 16-24 11-27 9-26 7-29 3-25 0-29-3-26-8-22-10"/>
<path d="M7060 13635l 2 26 2 26 2 31 1 25 0 28 1 29 0 32 0 32 1 32 1 32 1 33 1 35 1 31 0 28-3 28 1 28-2 25-8-24 0-28-3-24-4-27 1-25 7-25 9-24 15-19 20-13 24-3 25 4 25 9 25 11 23 16 19 19 17 19 10 24-6 26-13 25-17 21-20 22-22 14-26 14-29 11-29 9-27 6-25 0-23-8-7-24"/>
<path d="M7345 14137l 20-14 24 3 18 18 16 21 0 26-8 24-21 20-20 18-25 16-24 14-20 13 25 10 28-3 25-3 26-3"/>
<path d="M7925 13792l-24 10-19 15-23 14-23 16-25 12-22 13-20 13 24 8 28 4 26 5 23 7 25 5 25-1"/>
<path d="M8209 13659l 25-12 25-4 26-4 26-3 28 0 26 2 24 5 9 23-12 21-15 24-18 20-21 18-22 18-21 18-21 12 26-5 27-2 27-1 25 0 26 4 24 8 25 9 22 14 19 18 6 23-3 27-13 25-18 19-18 19-21 15-22 11-23 10-26 7-29 5-25-4-24-5-25-12-22-12"/>
<path d="M7046 14755l 10 23 11 28 9 27 6 30 6 24 6 24 6 27 4 26 5 27 1 26 2 27 0 27 0 26-2 25 0 31-4 27-8-26 1-24 6-24 8-23 19-19 15-22 21-15 23-9 26-2 27 4 23 11 23 10 17 18 6 26-4 26-8 27-13 21-15 19-18 18-22 14-26 9-25 2-24-6-17-18"/>
<path d="M7404 15142l 24-4 24 6 4 24-13 21-14 20-17 17 25 2 23 7 0 25-17 19-22 12-24 7"/>
<path d="M7704 14894l 25 8 26 6 26 4 28 4 26 2 24 3 25 4-11 25-18 16-23 17-22 12-23 15-20 14-22 14-22 14"/>
<path d="M8255 14719l 3 27 6 26 5 24 3 26 3 30 3 31 3 25 1 25 1 26 1 27 1 31 2 27 1 25 6 26 2 25 4 25"/>
<path d="M9458 15025l-11-24-20-17-26 1-22 12-20 20-16 21-15 23-12 27-9 26-7 24-6 27 0 27 20 17 25-10 22-18 20-16 16-17 19-23 15-23 4-25-8 24-1 25 18 17 25-10 19-20 15-21 4-24 0 27 3 28 6 24 22-17 15-22 13-25 12-22 16-19 22-9 20 17 3 27-2 24 2 25 21 11"/>
<path d="M9810 15034l-23-6-19 20-13 20-6 24 7 24 24 6 23-11 24-17 16-21 15-23 16-27 12-29 7-24 6-25 5-27 3-26 1-28-1-28-2-31-3-29-3-26-6-26-25 9-7 25-6 31-2 25 1 26-1 27 0 26 2 29 3 29 4 28 4 28 6 25 5 24 10 27 9 24 15 21 20 19 23 13"/>
<path d="M10729 15109l 17 23 1 32 1 27 1 28-1 27-2 28-3 30-5 30-4 29-5 29-7 28-8 29-7 27-9 25"/>
<path d="M10783 15052l 23-9 25-7 28-6 26 2 20 15 11 25-2 28-10 27-13 23-17 24-21 23-20 19-20 16-23 13-24 6"/>
<path d="M10989 15108l-1 26 3 25-2 24-8-23-1-25 1-25 11-23 17-21 22-17 25-10 26-8"/>
<path d="M11121 15082l 23 12 25-7 22-10 21-14-15-20-24 5-19 15-11 21-5 28 0 25 19 18 25 7 28-7 23-14 21-17"/>
<path d="M11285 15049l-3 24 5 25 16 20 25 11 27-6 22-15 13-20 10-22 9-25 3-26-4-27-6-25"/>
<path d="M12045 14744l 20 19 1 26-1 32-3 29-6 32-6 31-7 32-4 32-8 27-6 24-10 27-6 25-2 25 7 25 26 9 26-6 24-16 21-21 12-23"/>
<path d="M12017 14923l 25-14 27-13 22-15 24-18 21-19 19-20 17-19 14-23 13-23 8 29 0 26 1 27 0 29-1 30-1 34 0 32-3 31-1 28-2 30-1 27 14-22 13-26 13-26 16-20 20-17 24 5-1 27 1 27 0 24 26 8"/>
<path d="M12388 14988l-8 23 0 25 1 25 1-27 4-25 10-28 9-25 14-25 16-19 20-15"/>
<path d="M12530 14983l 26-8 23-6 25-11 21-13-5-24-26-6-25 5-17 17-14 21-12 24-7 24 3 28 8 22 20 13 25 5 28-1 28-9"/>
<path d="M12764 14902l-23 11-12 21 5 24 22 13 25 4 23 6 27 7 1 25-20 19-22 18-22 13-26 12-25 10-24 4"/>
<path d="M12892 14680l-6 27 1 28 2 25 0 29 1 32-1 25-5 26-2 25-2 27-3 26-3 31-2 25 24 3 15-19 21-20 19-20 17-19 23-11 22 11 9 24 3 26-3 28-1 25-4 28 0 24 10 23"/>
<path d="M13457 15023l 4-24-1-24-27-1-24 16-18 19-16 18-8 23 17 18 25-2 24-5 24-8 25 4 25 2 22-13 23-19 21-21 16-19 16-22 15-22 13-24 12-24 7-24 6-24 7-26 3-29 3-30 2-27 3-26-18 20-8 27-5 25-5 27-5 28-5 26-1 28-2 26 2 27 1 25 3 32 3 26 7 25 17 17 24-2 22-11 22-18"/>
<path d="M13544 14937l 22-12 25-8 28-11 26-10 29-10"/>
<path d="M14200 14768l 11-22 17-17 23-8 26-5 26 0 27 4 23 10 19 16 15 23 2 27-8 28-14 21-19 24-16 17-18 18-19 17-19 17-21 17-21 17-20 14-24 17-23 16-25 13 26 0 27-6 25-2 28-4 29-1 28-3 25 0 26 3"/>
<path d="M14878 14941l-24 7-6 24 0 26 19 16 24-4 20-14 12-22 4-25-12-22"/>
<path d="M14968 14936l 18 16-2 24 0-26 14-23 18-21 19-15 23-13 27-10 25-5"/>
<path d="M15702 14765l 18-17 26 0 27 2 26 4 23 9 19 16 4 24-14 20-19 18-20 15-17 18 0 24 23 9 28 7 28 6 26 4 24 8 18 18-9 23-19 16-22 15-25 9-27 6-26 4-26 0-26-5-27-5-20-15"/>
<path d="M18031 12139l 4 24-2 28-1 28-2 31-1 32 0 24-1 31-1 30 2 26 0 29 1 25 0 24-1 25"/>
<path d="M17978 13163l 14-20 22-11 25-4 25-2 28-1 25 2 26 3 28 6 24 8 23 14 13 20-2 24-9 28-16 26-15 20-16 20-20 22-21 21-23 24-26 23-25 22-22 21-19 19-19 16-18 18-19 20 23 10 27-2 25 0 25-2 26-4 30-1 29 2 30 2 24 5 24 7 20 14"/>
<path d="M17997 14426l-4-24 22-12 28-3 27-1 26 0 27 1 29 3 25 3 25 5 20 16-2 26-9 26-10 24-14 28-17 29-15 20-19 29-19 27-19 23-16 24-15 20-20 22-17 20-17 20-19 19 28-3 25 0 25 0 28 0 25-3 26-5 28-5 26-5 24-7"/>
<path d="M3051 16550l-3-26 8-22 14-23 19-21 19-19"/>
<path d="M3179 16580l-7-24 0-24 6-28 18-21 20-15 26-17"/>
<path d="M3445 16863l 11 27 0 28-3 25-3 27-2 29-3 31-4 33-4 32-6 28-3 25-5 25"/>
<path d="M3410 16857l 5-25 23-9 29-2 26-4 27-2 26 0 25 4 20 15 5 27-7 28-10 26-14 25-18 22-19 15-23 15-26 7"/>
<path d="M3712 16895l-25-11-24-2-19 16-6 25 1 26 10 22 26 7 26-8 16-19 4-24 1 24 23 11"/>
<path d="M3945 16828l-23-10-24 6-16 21-9 23-7 27 2 25 21 12 23-9 19-18 16-18 15-21 15-26 12-27 5-24 6-23 3-31-2-32-2-24-6-25-6-24-7-24-10-26-11-25-22 17-3 30-3 26-1 30 1 33 3 24 3 36 4 25 4 24 8 34 9 30 10 24 12 23 14 23 25 17 26 3"/>
<path d="M4168 16848l-24-6-20 17-11 24-7 23-3 26 18 17 23-12 20-22 16-22 12-24 9-25 9-26 7-28 5-30 4-24 0-26-5-31-2-33-2-35-1-33-1-28-2-24-12 23 0 25-1 28-1 30 0 33 2 35 1 35 2 24 0 34 3 34 2 31 7 28 9 29 12 22 24 8"/>
<path d="M4312 16840l-6 24 2 24-1 25 3 26 13 21"/>
<path d="M4335 16715l"/>
<path d="M4416 16835l 0 24 0 24 26-6 14-22 21-15 25-3 19 18 9 22 9 23 19 18 25 12 25 3 22-12 19-19 12-22 6-23-25-2-11 22-8 23 1 25 25 7 15-21 13 25 9 25 6 27 4 24 3 30 0 25-2 25-2 25-3 27-6 28-6 27-10 28-12 25-13 24-17 21-24 12-24 1-23-19-13-28-9-30-7-35-4-27-3-28-2-29-1-28"/>
<path d="M4793 16579l 11 23 6 24-5 26-4 27"/>
<path d="M4860 16607l-5 27-8 27-7 29"/>
<path d="M3355 18347l 10 26-2 26-2 25-1 29-4 32-6 35-5 25-3 25-4 27-5 26-4 25-6 25-4 25-8 36-8 34-8 33-5 32-6 28-6 23-11 23"/>
<path d="M3577 18700l 19-16 24-10 25-8 26-9 23-8"/>
<path d="M3903 18666l 20 18 6 29 0 29-3 25-4 25-9 22-10 25-8 22 3-28 13-31 10-25 12-25 12-21 18-25 15-20 18-20 24-5 19 18 3 24-2 25-4 28-8 30-8 28-6 24-10 23 19-15 14-20 17-24 15-25 16-23 13-21 17-22 16-22 23-5 6 25-1 27-1 26 1 24 5 26 23 10"/>
<path d="M4323 18716l 26-2 25-10 23-8 20-17 20-18 7-23-26-9-26 3-24 11-23 18-17 22-15 21-11 21-9 27-6 30 5 25 13 20 21 16 28 6 27-3 25-9"/>
<path d="M4505 18678l 17-17 25 2 16 20 9 25 6 25 4 26 12 24 16 21 21 16 25-6"/>
<path d="M4671 18659l-26 8-22 14-16 20-19 22-18 25-19 27-15 22-16 22-13 20"/>
<path d="M5518 18718l-20 14-15 20 2 27 13 22 25 6 25-4 21-18 16-19 6-25-12-22-24-9-25-3 23 8 23-7 24-12 22-16 20-15 24-19 26-21 27-24 25-25 22-23 15-24 12-27 5-25 1-29-5-23-9-24-13-25-24-6-12 22-10 25-10 35-8 27-7 31-8 35-6 35-5 37-6 37-1 37-1 37 2 36 2 37 3 34 4 31 9 28 7 25 13 32 8 24 17 25 21 18 26-1 18-20 9-27 4-26-3-28-3-26-7-27-10-24-12-22-16-22-22-19 19-16 30-6 24-7"/>
<path d="M6628 18272l 26 2 7 26 1 30 0 25-2 31-3 34-4 25-3 25-4 26-5 27-4 27-4 26-5 24-8 33-7 28-6 24-9 25 8-26 11-23 11-23 12-24 13-22 18-25 15-22 19-16 22-12 24 0 26 8 24 14 18 23 7 24 0 25-6 24-16 26-16 21-16 20-20 18-20 16-21 13-22 11-28 10-25 5-24-1-17-17 13-25"/>
<path d="M6942 18744l-10 23-5 25-6 26-6 24"/>
<path d="M7137 18803l-14 21-16 24-15 27"/>
<path d="M7301 18756l"/>
<path d="M7411 18759l"/>
<path d="M7526 18749l"/>
<path d="M7657 18774l-9 24-13 21-15 22"/>
<path d="M7968 18744l 24 0 26-14 20-15 22-16 27-22 19-16 19-18 20-19 17-19 19-22 16-21 15-20 14-21 15-28 11-28 7-30 5-30 1-28 2-25 1-25-22-9-17 22-13 24-15 29-15 34-9 23-8 24-7 25-7 28-5 27-5 27-2 27-2 24 0 33 2 28 11 30 15 20 21 17 25 4 25-10 20-21 12-25 6-27-5-27-12-24-14-20-21-17 21 12 24 3"/>
<path d="M8406 18763l-10 25-7 23-11 25-13 22 11-25 15-22 15-21 14-21 18-22 16-17 22-13 24-5 17 18 0 25-3 26-7 24"/>
<path d="M9344 18439l-14 20-13 22-9 25-8 26-6 24-4 29 1 25 5 26"/>
<path d="M9415 18272l"/>
<path d="M9544 18397l-22 12-20 17-18 19-6 23 28-1 28-3 27 0 27 3 24 6 16 19-15 21-17 23-23 20-26 19-24 14-26 9-24 1-9-24"/>
<path d="M10300 18417l 6-23 3-27-4-25-19-17-25 3-23 9-25 18-21 17-22 20-21 22-18 23-17 23-15 20-10 23 1 28 19 16 31 3 28-10 27-13 23-11 27-16 25-16 22-16 18-16 19-19 13-24 0-24-14 23-6 28-5 28 0 26 8 25 20 16"/>
<path d="M10448 18525l-15 20-6 24-4 26 25-12 18-20 17-20 17-18 19-15 21-14 24-10 22 12 3 25-3 28-2 26"/>
<path d="M11821 18211l 27-9 25-4 25-4 27-2 29-1 28-3 25-4"/>
<path d="M11770 18294l 25-1 25-4 25-4 31-5 24-6 27-6 26-7 27-8 24-8"/>
<path d="M11989 18119l 28 2 25 3 25 3 28 6 25 8 20 13 7 24-8 25-18 23-22 20-24 20-22 19-20 14-23 15-23 13-26 15-22 15"/>
<path d="M12944 17954l 10 23-5 29-6 26-8 30-8 28-6 27-7 26-9 28-9 27-10 29-11 28-11 28-8 25-10 28-10 22-8 25"/>
<path d="M12982 18386l"/>
<path d="M12625 18984l 11-22 19-17 25-12 25-10 25-6 29-3 24 1 25 2 25 6 22 14 11 26 1 29-4 28-9 24-15 26-17 28-22 28-22 26-16 18-26 26-21 17-20 19-20 18-19 17-19 15-27 19-26 16-22 15-20 13-21 13-22 15 28-7 29-7 28-7 24-5 27-6 29-4 28-5 30-6 28-3"/>
<path d="M12990 19327l"/>
<path d="M13778 18879l 11-22-26-5-24 8-25 12-25 15-28 16-24 17-23 17-20 16-19 19-11 22 1 25 19 18 25 3 28-4 26-5 25-1 22 13 12 22-5 27-10 25-15 21-15 20-18 16 24 12 25 3 18 16 7 23-7 27-9 23-15 24-16 24-13 20-15 21-14 22-13 20-11 23-8 23 6 25 16 21 22 14 25 14 27 8 24 4 26 2"/>
<path d="M14163 19052l-15-19-26 9-18 21-16 19-18 25-12 24-12 24-13 26-11 27-9 29-6 29-5 28-2 25 2 28 8 25 15 21 24 13 25 7 27-1 27-8 27-12 26-17 22-15 18-19 17-19 18-27 12-27 8-30 3-28-6-28-12-29-11-24-16-27-18-23-20-18-25-7-22 16-5 24"/>
<path d="M14354 19393l-9 27-14 22-14 24-14 22"/>
<path d="M14521 19377l"/>
<path d="M14613 19386l"/>
<path d="M14727 19389l"/>
<path d="M14864 19420l-14 21-15 24"/>
<path d="M15467 19172l-4-27-10-22-16-22-23-12-28 8-20 14-19 17-19 20-18 21-16 21-16 24-12 22-10 22-8 26 2 27 19 16 30 0 30-10 26-10 27-13 24-14 21-15 18-16 14-19 0-25-3 25-1 25 4 24 21 15"/>
<path d="M15600 19293l-5 26-9 26-11 23-12 22 17-24 13-21 17-25 18-19 19-19 20-16 16 18-9 24-6 25 0 24"/>
<path d="M15952 19132l 26-4 24-4 23-6 28-5"/>
<path d="M16271 18966l 4 27-2 30-3 29-5 29-7 29-8 30-7 24-8 24-8 29-7 26-7 26-8 25"/>
<path d="M16499 18892l 14-22 26-5 25 4 21 14 13 21-7 24-14 22-19 15-20 15-19 17-15 19 22 12 24 7-8 24-17 20-9 24 9 22 18 21 21 17 21 17 22 16 18 19 16 20 11 23 4 28-9 25-13 23-18 24-21 23-17 17-24 17-25 10-27 7-26 3-27-4-21-13-12-25"/>
<path d="M17357 18961l-14-20-24-8-25 1-26 6-22 10-22 13-24 18-23 22-16 18-15 20-15 25-12 25 1 25 13 24 22 19 25 10 23 6 25 3 26-1 28-4 28-4 26-4 29-5 23-5"/>
<path d="M17935 18788l-23-10-25 1-24 4-24 13-20 15-13 23 10 23 20 17 24 13 25 12 20 15 3 27-16 19-21 14-19 15 10 22 12 25 5 24-5 26-8 24-14 24-14 21-12 25-11 25-6 25 3 25 15 21 20 16 27 9 25 6"/>
<path d="M18147 18829l 2 26-2 31-3 26-4 25-3 28-3 27-4 29-4 29-3 27-5 31-5 28-9 27-2-27 9-24 13-22 14-20 14-20 21-17 24-9 28 0 24 6 24 7 24 14 15 21-1 27-16 24-22 21-21 17-25 15-24 15-26 12-26 10-26 9-24 7-27 4-25 0"/>
<path d="M18397 19230l-8 25-1 27-5 23-9 25-12 23"/>
<path d="M18574 19236l-11 25-12 23-16 22"/>
<path d="M18912 19193l"/>
<path d="M19002 19201l"/>
<path d="M19095 19206l"/>
<path d="M19211 19208l-6 24-14 21-15 20"/>
<path d="M19602 19112l-22 14 6 24 27-2 30-7 26-9 28-12 32-16 22-10 23-12 23-12 22-13 20-13 27-24 19-16 21-24 19-26 12-27 11-30 8-32 4-32 3-30-1-28-10-24-24 3-19 17-17 18-17 21-18 23-18 29-11 21-11 25-11 24-9 26-9 27-9 26-4 24-3 33 3 26 11 28 15 19 20 18 26 7 25-9 19-18 11-23 5-27-4-28-9-25-14-20 11 23 24 9"/>
<path d="M20059 19075l-7 23-3 28-8 25-11 25-11 21 15-19 20-21 19-19 21-18 23-14 24 4 8 25-4 26-2 25"/>
<path d="M20382 18741l 25 0 27 5 24 8 22 11 18 18-10 24-20 17-23 16-22 16-18 17-3 24 21 14 25 10-6 24-15 19 3 26 11 23 15 20 19 18 17 20 12 21 10 24-2 24-15 20-23 18-22 14-23 13-24 10-25 7-25 1-26-6"/>
<path d="M3160 20777l 15-20 24-11 27-5 29 0 25 0 28 1 27 3 24 5 25 12 18 23 3 28-7 29-10 25-14 27-18 28-15 19-16 19-19 19-20 21-20 19-21 20-19 19-23 19-23 17-24 19-26 16-25 16-23 15-23 15-27 17-23 16-20 16-18 17 27 5 26-3 25-7 28-8 31-9 32-11 31-11 31-9 28-7 27-5 26-4 25-1 32 0"/>
<path d="M3610 20977l 25-7 30-7 26-7"/>
<path d="M3827 21021l 14-20 25 6 2 28-2 28-6 27-10 28-7 26-10 23-7 24 10-30 11-29 13-23 13-24 14-20 16-23 18-21 20-16 23 12 8 25 0 27-2 24-3 24-4 26 25-5 18-22 16-23 16-21 17-20 17-20 19 19-1 26-1 27 8 23"/>
<path d="M4246 21029l 27 8 25-3 25-8 28-12 25-14 19-15 16-18-17-18-27 0-24 6-21 12-22 17-21 18-14 24-5 23-1 28 9 25 20 19 23 12 27 4 24-4"/>
<path d="M4436 20994l 24 2 25 8 24 13 17 19 15 23 14 23 15 21 25 12 24 3"/>
<path d="M4606 20983l-23 8-22 13-22 16-23 21-17 18-16 20-16 22"/>
<path d="M5358 20964l-20 15-16 23-11 23-11 23-8 24-3 25 0 25 12 22 27 6 24-6 24-13 21-16 15-20 0-24-17-21-25-9-25 5 21 13 26-6 25-9 24-12 26-15 21-14 25-17 23-19 25-20 22-21 22-22 17-23 13-23 12-25 7-27 5-31 3-31 1-29-1-27-5-29-15-21-25 6-18 20-19 21-15 30-10 22-8 26-11 30-10 32-10 36-10 36-9 40-7 41-8 42-4 43-3 44 0 43 2 43 3 41 4 38 7 34 6 32 10 29 11 25 13 22 19 26 16 18 16 18 27 8 20-16 8-31 3-27-4-31-6-34-7-24-6-25-8-26-6-25-6-23-10-29-13-25-18-19 25 9"/>
<path d="M6286 21053l 17 19 29-2 27-9 23-12 28-16 29-19 22-15 23-16 22-17 22-18 20-18 18-18 18-18 17-19 22-27 15-28 8-27 4-27 0-27-3-26-7-24-10-28-16-22-24-8-27 8-21 13-21 15-23 21-23 23-22 25-17 28-15 31-12 34-9 34-7 33-4 33-2 29 3 28 6 25 10 22 13 23 18 17 23 11 26 7 27 1 26-2 25-3 24-6 25-13 20-17 5-23-11-24-16-21-21-15-23-8"/>
<path d="M6797 21061l-12 22-3 26-5 27"/>
<path d="M6944 21104l-17 17-13 25-10 22"/>
<path d="M7118 21094l"/>
<path d="M7190 21090l"/>
<path d="M7317 21061l"/>
<path d="M7509 21068l-17 19-16 23-12 22"/>
<path d="M7797 21105l 29-4 21-13 28-20 20-18 25-19 27-21 27-23 27-22 25-21 22-21 19-19 22-28 16-25 11-28 6-29 1-28-6-28-5-31-5-25-24 7-18 26-14 29-9 22-9 25-10 25-8 26-7 26-6 26-4 25-3 25-3 25 0 25 0 24 3 34 6 30 10 27 15 27 17 20 24 13 27 4 23-10 12-21-3-25-12-23-16-19-19-17-21-17-21-14-21-11 24 6 25 5 26 4"/>
<path d="M8259 21142l-10 23-6 24-10 25-10 23-12 21 21-19 19-24 20-22 17-19 18-17 22-13 18 20-3 26-3 27-6 26 17 19"/>
<path d="M8474 21166l 27 3 28-3 27-6"/>
<path d="M8702 21127l 0 25-2 25-5 26-7 27-6 26"/>
<path d="M9386 20977l-17 20-7 25-9 26-3 26 13 21"/>
<path d="M9463 20796l-2 26 22 12"/>
<path d="M9588 20880l-20 17-19 16-19 19-17 17-7 24 22 12 27 3 26 2 27 2 22 11-4 25-19 16-18 16-22 12-23 10-27 6-26 2"/>
<path d="M10274 20920l 0-26-1-26-3-24-13-22-22-13-26 0-27 10-22 15-20 16-24 21-20 23-15 24-8 24 2 26 17 23 26 12 24 2 24-2 25-7 22-11 22-17 19-16 3-24-16 20-6 26 0 27 12 25 22 17"/>
<path d="M10377 21016l-8 26-9 22-6 24-9 23 28-10 18-18 23-21 18-16 21-14-9 23-9 24-6 24 24 14"/>
<path d="M10594 21045l 27-2 27-3 24-6 23-5"/>
<path d="M10793 20991l-4 27-2 25-2 27 0 24"/>
<path d="M11604 20856l 18-18 29-5 27-1 26-2 29-1 28 0 27-1 29 0 26 1"/>
<path d="M11679 20921l 26-7 26-4 28-6 25-6 26-5 26-4"/>
<path d="M11892 20784l 27 3 26 4 28 4 28 3 27 8 20 17-5 25-18 23-22 21-19 15-19 16-24 19-19 18-21 19"/>
<path d="M12501 20609l-7 24-2 29-2 27-4 31-4 26-2 29-1 30-5 30-3 29-3 30-3 27-5 27-3 25-4 28-2 25"/>
<path d="M12632 21074l"/>
<path d="M14196 18113l 5-24 4-24 3-30 2-26-7-26-21-15-25 3-21 12-20 17-20 22-19 27-18 28-18 31-16 30-15 30-12 27-7 24-3 24 10 24 22 11 28-7 26-10 24-15 20-20 18-18 18-20 13-21-4 26-1 26 11 24 23 10"/>
<path d="M14312 18236l-14 23-8 27-6 26-6 23 18-18 14-22 14-23 15-19 18-20 19-15 21 15-1 26-3 26 0 26"/>
<path d="M14942 17929l-21-11-26 5-23 11-26 12-24 14-23 12-22 15-21 16-18 19-11 25-5 27 9 25 15 19 22 15 26 7 24 3 26-2 28-4 23-7 23-11"/>
<path d="M14748 18063l 24 0 25-2 29-3 27-3 25-4 27-3"/>
<path d="M15030 17792l-15 23-15 22-13 22-17 23-18 27-15 19-21 29-16 21-12 22-14 20-14 20-20 28-18 28-15 25-15 27-13 22-16 25-15 22-16 23-14 21"/>
<path d="M15587 17721l-20-14-26 0-27 8-25 14-23 12-22 16-18 19-6 23 22 15 28 5 26 7 27 6 17 18-2 25-9 24-19 19-18 19-16 18-18 17-17 17 15 19 19 16 14 20 9 24-4 27-12 22-15 24-14 25-11 22-10 25-5 25 12 21 22 11 30 1 28-4"/>
<path d="M15742 17858l-5 24 3 30 0 28 0 29 2 31 0 24-2 26 0 25-3 25-5 27-7 27-7 25 16-23 18-21 19-22 16-22 24-13 23 9 18 18 14 20 4 25-11 25-15 19-19 20-22 17-20 14-24 10-28-2-25-6-12-22"/>
<path d="M15992 18232l 6 24 2 25-6 24"/>
<path d="M16170 18239l-10 24-15 24-15 21-15 21"/>
<path d="M16300 18220l"/>
<path d="M16418 18224l"/>
<path d="M16473 18219l"/>
<path d="M16595 18230l-5 24-13 21"/>
<path d="M16765 18208l 26-11 23-15 21-13 24-16 25-17 24-17 21-17 19-19 18-20 17-22 16-25 14-25 11-28 11-30 9-33 8-32 3-25 3-26-7-23-25 9-19 19-15 21-13 26-15 30-12 33-6 24-7 35-4 35-2 24-1 35 3 31 4 28 6 23 12 28 12 23 20 18 27 2 21-11 13-22 4-24-8-28-13-25-14-22-17-18"/>
<path d="M17162 18141l-1 27 0 25-4 25-9 23 12-23 16-24 15-20 17-21 21-11 18 16 10 24 14 20"/>
<path d="M17375 17739l 26-2 25 10 23 7 23 14 19 16 5 25-15 22-18 18-20 17-18 20-14 22 0 26 22 13 24 4-9 24-18 18-9 22 13 22 19 20 21 16 22 12 20 15 23 13 16 18 4 27-8 23-18 20-22 17-22 16-26 11-24 10-25 4-24-4"/>
<path d="M13792 20815l 7-24 11-26 12-25 6-25-11-22-27-4-25 4-28 11-22 14-22 19-21 23-14 21-15 23-14 26-12 28-10 27-7 26-2 30 8 29 18 18 29 7 27-5 31-12 23-13 22-15 19-17 22-21 18-22 12-22-5-23-9 24-5 26-6 25 1 25 14 21 23 10 25 1"/>
<path d="M13995 20968l 9 23-5 28-9 26-10 28-13 25-11 25 20-20 17-24 16-24 15-20 16-20 18-17 23-7 11 25-2 25-4 25-3 26 4 25"/>
<path d="M14218 21046l 24 10 24-1 25-4"/>
<path d="M14511 20957l 0 26 1 25-5 24-6 24-10 24-6 27-8 24-7 24"/>
<path d="M15143 20686l-11-22-24-2-26 9-25 13-25 16-21 17-19 20-17 21-18 23-11 23-4 24 6 27 18 20 22 11 27 3 28-3 31-6 24-6 23-6 30-9 25-10"/>
<path d="M14933 20823l 25-10 27-7 28-10 25-6 28-8 30-8 27-9"/>
<path d="M15244 20543l-19 20-15 24-16 26-13 22-13 22-15 27-17 27-18 31-13 22-16 24-15 25-17 25-16 24-15 23-17 21-19 28-16 23-12 24-6 24"/>
<path d="M15923 20587l-21-14-25 6-22 10-21 14-19 15-19 17-15 20-13 24 0 25 21 17 25 10 27 7 22 11 17 18-7 24-17 19-17 17-18 17-18 18-15 20 12 22 22 12 15 21-2 24-4 27-9 24-10 26-3 25 15 22 26 3 25-5 27-7"/>
<path d="M16163 20623l-13 26-6 26-5 32-3 24-3 26-2 28-1 29-3 28-3 26-3 25-6 29-4 28-6 25 13-27 12-25 14-24 18-21 18-16 21-13 24-5 25 2 24 11 17 17 10 22-4 25-19 22-18 17-22 17-23 15-24 12-24 11-24 6-18-17"/>
<path d="M16443 20963l-10 22-2 26 0 25"/>
<path d="M16675 20975l-18 18-17 24-17 25-11 21"/>
<path d="M16914 20959l"/>
<path d="M17010 20968l"/>
<path d="M17100 20967l"/>
<path d="M17248 20977l-14 22-13 21-15 20"/>
<path d="M17509 20952l 23 12 29-9 24-11 27-16 22-12 23-14 22-14 22-15 21-15 26-23 22-24 19-25 14-25 10-24 9-24 5-25 2-25 0-24 0-27-6-24-25 13-17 19-14 19-15 24-14 26-14 29-12 31-8 23-9 35-7 33-3 29 1 27 5 29 13 26 19 17 23 7 26-6 26-12 22-16 18-20 4-24-6-25-14-21-21-12 25 11"/>
<path d="M17984 20969l-11 23-9 25-10 23 24-12 22-20 21-19 20-16 19-16 7 24 0 27 6 25"/>
<path d="M18199 20980l 27 2 25-4 25-6"/>
<path d="M18383 20944l-7 26-4 26-7 26"/>
<path d="M18651 20606l 24-2 24 7 22 12 2 24-21 13-23 11-21 15-23 13-19 16 9 24 24 10 22 12 22 11 18 16-19 15-21 12-6 24 19 15 22 12 21 13 22 14 20 14 15 19-6 25-15 19-21 16-22 16-24 15-23 11-25 6-27-2-18-16"/>
<path d="M12405 21942l-8-24 7-24 21-13 22-12 22-10 24-6 28 1 25 5 23 13 20 16 16 24 4 25-4 26-10 26-17 29-13 22-18 23-19 25-22 26-25 27-27 27-30 28-30 30-32 27-32 27-31 24-29 21-26 20-25 17-19 14-25 16-20 14 24-5 26-10 24-7 23-7 29-6 29-4 34-4 28-1 28 0 25 0 25 2 28 3 29 3 31 5 25 6 24 11 11 22"/>
<path d="M12755 22360l"/>
<path d="M13387 22153l-4 27-1 28-3 28-6 29-6 29-7 25"/>
<path d="M13407 21995l"/>
<path d="M13677 21888l-23-13-24 0-23 12-20 21-16 19-14 23-12 25-2 24 6 28 9 26 11 24 10 24 6 26 6 27 6 27 1 30-1 25-4 25-8 31-12 25"/>
<path d="M13453 22122l 23-8 28-6 29-5 28-4 28-7 28-6"/>
<path d="M14631 22101l 10-26 8-26 6-26 6-25-10-23-25-3-27 16-20 15-19 18-18 20-19 23-17 23-15 25-15 23-10 23-8 29-1 26 2 24 15 19 25 3 24-10 24-14 24-20 17-18 18-23 16-21 15-23 11-23-15 22-7 25-7 26-2 26 1 27 14 24 22 13"/>
<path d="M14753 22224l-5 27 0 25-1 25-8 24-8 22 17-18 16-20 16-23 16-20 14-20 11 23 7 23 2 24 2 25"/>
<path d="M14940 22280l 23 6 25 0 25-4"/>
<path d="M15168 22240l-4 26-6 26-2 25-5 28-3 25"/>
<path d="M15482 22018l 23-7 26-6 25-4"/>
<path d="M15482 22073l 27-2 26-3"/>
<path d="M15932 21990l-1-24-7-25-22-15-28 3-26 13-26 18-20 22-16 19-15 19-15 26-9 24 0 25 13 23 21 13 26-1 24-10 25-16 18-16 18-21 13-20 11-23-17 21-8 25-3 27 5 26 16 17"/>
<path d="M16029 22139l-8 23-3 25-7 25 20-15 15-19 17-19 21-13 20 14 5 25-5 27"/>
<path d="M16350 21915l"/>
<path d="M16361 21999l"/>
<path d="M14081 23308l 23-16 21-14 23-12 28-18 25-18 28-20 21-15 20-14 27-21 25-22 23-21 19-23 15-23 13-23 9-23 9-31 3-26 2-27-1-27 0-29-1-25-23 6-13 23-10 24-11 26-13 28-14 30-11 32-8 34-9 32-6 32-7 33-4 32-2 32-1 29 3 31 6 28 10 22 17 19 25 11 26-4 22-14 13-21 5-25-9-25-17-23-20-14-21-11 25-7"/>
<path d="M14521 23394l 14 21-3 24-8 25-12 22 11-22 10-23 14-24 14-22 16-20 19-20 20-17 24-9 11 21 0 26-8 26-8 25-6 25-2 25"/>
<path d="M15127 23081l-26 0-22 10-24 6-22 11-22 11 18 16 25 10 23 8 24 14 22 11 22 11"/>
<path d="M15636 23260l 12-21 8-25 7-24 4-28 0-24-11-22-28 1-22 13-23 17-20 20-15 19-13 20-11 23-13 26-8 22 3 27 13 20 22 12 25 4 25-8 22-10 21-14 19-14 19-16 15-20 13-23-19 19-4 26 2 24 14 22 25 9"/>
<path d="M15851 23292l 2 24-7 24-9 23 15-23 14-20 15-20 16-19 18-19 18 16-9 22-4 25-2 25 22 14"/>
<path d="M16044 23294l 26 3 26-5"/>
<path d="M16219 23244l 3 24 6 27 1 24-2 24-9 23-7 26-12 22"/>
<path d="M14121 24381l 30 1 23-9 30-14 27-16 27-20 19-15 18-16 19-18 19-19 21-22 18-22 18-24 17-23 15-22 16-22 18-30 13-29 13-28 7-24 2-26-6-26-18-18-24 1-21 21-16 28-13 28-9 23-9 26-9 27-6 30-7 30-7 30-5 31-6 31-2 28 0 26 2 25 5 34 8 28 12 25 11 22 17 23 20 17 23 9 22-9 7-25-8-27-14-26-14-22-14-21-13-20 25-2 25 7"/>
<path d="M14575 24443l-12 24-2 27-4 25 14-21 15-26 16-24 18-20 17-18 20-18 23-9 16 19 3 25-1 27-1 25 8 23"/>
<path d="M15096 24268l-8 27-6 26-8 27-5 24"/>
<path d="M15145 24169l"/>
<path d="M15235 24230l-25 11-19 17-16 21 5 25 27 2 25-3 27-1 24 1 17 18-8 25-21 19-22 15-25 11-25 6-23-6"/>
<path d="M15866 24214l 17-19 6 25-8 26-10 27-10 27-6 25 22 14 27-11 20-16 18-18 16-21 13-22-10 23-5 26 6 25 24 6 26-10"/>
<path d="M16091 24215l-14 21-7 25-5 26 24-4 18-20 17-23 19-20 18-17 14 20-4 25-6 26-3 24-1 25 24 6"/>
<path d="M16306 24217l-15 20-5 26 0 26"/>
<path d="M16388 24077l"/>
<path d="M16552 24167l-20-14-24-12-22 11-22 19-16 20-10 22 7 25 23 10 28-4 24-8 22-13 15-20-21-13-16 18-15 23-11 23-10 27-9 28-8 24-7 26-4 26-2 26-1 31 2 26 8 23 18 19 26 4 17-18 14-25 7-23 2-27-3-29-3-24-5-31-5-26-10-26-8-23 22-9 25-7 26-8 26-10 23-12 24-13 21-13 19-15 18-17 15-21-19 17-10 27-5 24-4 24 3 26 14 20 26-6 23-15 19-20 14-22 12-22 8-24-5 25-3 26-4 24 5 26 25 5"/>
<path d="M16915 24202l 25-2 23-9 21-13 16-18-10-23-27-7-26 2-22 14-17 18-11 24-4 28 2 27 13 25 19 19 27 10 26 2 27-2 27-6 25-13"/>
<path d="M17638 24166l-13 21-2 27-5 25-7 25"/>
<path d="M17683 24024l 11 22"/>
<path d="M17751 24122l-5 27-6 25-5 25-8 24-6 24 20-19 15-21 16-21 16-19 16-18 18-16 21 15 7 27 3 27 8 25 13 21"/>
<path d="M18588 23797l-18-17-25 9-22 19-18 17-18 21-13 22 0 24 23 11 24 3 26 5 20 16-5 25-15 21-19 19-19 16-4 25 12 21 10 23 7 25 1 24-8 26-12 23-10 24-5 24 10 23 24 12 25 3"/>
<path d="M18666 24162l 26-11 22-15 20-14 22-15 24-18 24-17 23-20 22-20 18-20 15-19 16-26 13-25 9-28 5-30 4-30 3-26-2-26-25 15-21 25-16 22-16 25-16 26-15 28-14 30-13 30-10 30-7 31-3 28 2 26 7 28 10 22 17 23 22 14 24 5 26-5 26-10 21-22 13-23-4-26-14-23-22-16-22-10 3 25"/>
<path d="M19052 24152l-2 24-3 26-6 24-5 24-6 24"/>
<path d="M19262 24236l-17 20-16 20"/>
<path d="M19509 24171l"/>
<path d="M19582 24194l 23-14"/>
<path d="M19674 24173l 25 2"/>
<path d="M19906 24223l-17 17-22 18-19 17"/>
<path d="M20105 24168l 18 19 27-7 28-12 25-14 26-17 29-18 30-19 19-15 20-14 26-23 24-24 20-25 19-25 13-24 12-28 8-27 3-25 1-24-3-31-9-23-22-15-28 9-26 16-20 18-19 22-18 28-12 22-11 23-11 26-11 26-8 28-8 28-7 28-5 28-4 25 0 25 1 34 6 31 8 26 12 21 16 20 25 12 26 0 24-8 21-17 18-22 12-22 7-28-3-27-10-24-16-21-22-12"/>
<path d="M20493 24218l-8 25-10 22-7 23 23-9 16-21 18-20 17-17 24-6 13 22 5 25 8 23 25 0"/>
<path d="M20844 23836l 25 3 22 12 17 17-17 19-22 16-25 13-20 15-18 20-8 24 9 22 23 12 23 10-7 24-22 12-15 20 19 15 21 18 21 17 20 16 14 22 7 24-1 27-7 24-16 20-20 17-22 9-28 9-25 1-23-12"/>
<path d="M12290 25324l 2-25 18-20 22-15 24-10 24-3 28-2 27 5 22 14-12 21-19 21-19 18-24 17-24 16-22 13-24 12-23 9 29-3 25-6 29-7 30-6 30-1 30 0 28 3 28 6 22 10 19 16 12 22-1 29-10 27-12 21-17 22-18 20-19 18-21 16-21 13-23 12-24 12-28 8-25 7-27 4-31 2-25-2-25-7-7-25"/>
<path d="M12676 25625l"/>
<path d="M13290 25450l-16 20-7 26-4 27-4 25-2 27"/>
<path d="M13289 25325l"/>
<path d="M13524 25210l-24-9-22 12-20 19-13 22-10 24-8 23-2 26 1 28 1 25 5 29 6 24 3 25 3 26 0 28-2 27-5 26-9 23"/>
<path d="M13356 25430l 21-15 27-11 28-7 27-5 32-6 35-7"/>
<path d="M14230 25471l-8-23-9-25-11-22-17-19-25-9-27 3-25 14-19 16-18 20-17 27-10 23-12 28-9 26 0 28 12 23 27 10 28-5 26-8 25-15 22-18 19-21 13-20 0-25-10 22-3 28 2 24 10 23"/>
<path d="M14296 25554l-5 26-1 25 24-8 17-17 17-20 8 23-7 23 1 24 14 20"/>
<path d="M14471 25576l 25 4 27-5 25-4"/>
<path d="M14681 25535l-8 23 6 24 2 26-5 26-8 25"/>
<path d="M15005 25338l 23-9 28-5 25-5"/>
<path d="M14977 25404l 26-2 26-2 32-5"/>
<path d="M15398 25342l 17-18 18-18 15-22 8-24-16-19-25-4-28 7-26 13-21 15-22 19-20 22-15 22-12 23-9 23-3 25 8 23 20 14 25 0 29-9 24-12 22-13 19-15 16-20 14-22-20 18-7 25-5 24 0 28 11 23 24 14 28-2"/>
<path d="M15561 25435l-14 20-3 25 25 0 18-18 19-16 22-10 13 22 3 26 0 24 4 26"/>
<path d="M15907 25295l 24-6 24-6 25-4 24-5 26-4 25-5 25-6"/>
<path d="M16040 25215l-6 25-2 26-6 25-6 25-6 23"/>
<path d="M16349 25032l-3 24-3 27-5 27-4 27-3 24-5 25-5 25-5 25-5 27-5 25-6 28-4 25-6 26-5 24-6 24"/>
<path d="M14142 26520l 25 3 24-6 23-11 21-13 25-21 19-19 20-23 19-24 17-28 17-28 13-27 12-25 10-29 5-25 1-28-3-25-6-26-7-24-26 5-16 24-11 22-13 29-11 32-10 25-7 26-8 28-10 31-6 31-5 34-2 31-2 31 0 28 1 25 2 25 8 32 9 27 13 22 18 22 22 17 27 8 25-8 19-20 13-25 8-24-5-28-15-25-17-23-20-18-22-10 27-1 25 4"/>
<path d="M14560 26643l-3 25-5 23-6 25-6 25 15-20 13-23 14-20 14-20 16-19 19-16 25-1 4 26-3 27-6 26-1 25 5 23"/>
<path d="M15231 26383l-2 25-4 29-2 26-3 27-3 27-2 25 2 26"/>
<path d="M15298 26256l-23 5 17 18"/>
<path d="M15422 26339l-21 15-18 19-10 22 1 24 25 3 26-1 27 4 21 14 13 21-10 25-18 23-24 15-23 10-28 2-25-6-17-19"/>
<path d="M16071 26408l 18 18 4 24-2 28-5 27-7 23-10 25 7-25 12-26 15-25 14-24 14-20 15-20 18-17 24 5 6 24-1 25-3 28-7 25-6 26 20 18"/>
<path d="M16334 26437l-20 15-11 22-5 25 17 19 25 3 26-7 22-10 19-19 7-24-17-19-22-11"/>
<path d="M16602 26147l-11 23-5 28-6 25-10 29-7 26-9 27-8 31-10 34-8 31-8 29-5 26-4 30 2 24 8 26 20 12 28-6 21-15"/>
<path d="M16456 26391l 24-14 28-11 28-11 26-9 28-10 31-8 34-7"/>
<path d="M17235 26374l-14 21-13 27-9 23-9 27-6 24-3 26 19 15 30-10 22-12 23-16 22-18 23-21 16-18 16-21-22 12-9 24 1 25 12 22 27 7 24-9 23-17"/>
<path d="M17468 26402l-17 20-12 22-8 23-8 24 25-3 21-19 18-19 19-18 19-19 18-20 24 1 1 25-4 26 5 24 27 6"/>
<path d="M17701 26374l-17 17-6 25-6 26-1 26"/>
<path d="M17708 26266l-9 23"/>
<path d="M17872 26372l-14-21-25-2-20 20-19 19-15 19-12 23 14 22 24 2 27-3 26-8 20-13-22 13-14 24-12 27-8 23-11 24-12 26-12 27-8 28-7 26-5 25-1 28 6 25 17 18 27-8 19-17 17-21 15-27 11-26 5-26 1-27-5-28-9-28-9-24-12-22 25-10 27-6 24-10 28-14 22-13 20-13 25-17 17-18 15-19 11-23-21 14-12 23-9 24-7 26-6 24-3 25 9 23 23 11 24-6 21-14"/>
<path d="M18132 26436l 13 21 25 3 24-5 23-11 18-16 8-24-15-21-24-5-26 7-20 19-13 21-10 25-5 25 3 28 10 25 18 19 27 10 25 2 25-3 24-7"/>
<path d="M18135 26399l-12 21-11 25-10 23-9 26-5 23"/>
<path d="M16336 25103l 5-25 20 18-2 27-2 24-3 26-4 30-3 25-5 26-5 29-6 28-8 31-9 32-9 33-8 32-7 27-9 28-9 27-9 23 6-29 3-26 4-28 2-29 4-27 4-24 9-23 11-24 19-19 20-17 25-9 24 6 9 23-18 21-18 16-20 18-17 19-14 21 16 21 24 11 24 12 24 10 27 5 25-1"/>
<path d="M16584 25476l 0 24-5 26"/>
<path d="M17146 25120l 1 27 1 25 0 25-2 28-2 31-2 30-3 32-4 31-5 33-6 33-6 29-5 24-10 27-15-23 2-28 5-30 5-27 8-27 11-23 17-18 22-12 24-7 24-3 28 1 23 13 9 23-12 25-23 18-21 17-20 18-20 15-19 16-2 25 23 16 26 9 29 4 27 3 29 1 30-3"/>
<path d="M17398 25305l 27 1 25 2 26 3 25 3 27 2 23 6-14 22-26 13-24 10-23 11-26 14-23 15"/>
<path d="M17844 25200l-25 8-20 19-15 24-10 23-6 27 0 27 7 29 10 28 11 24 15 19 25 15 25 8 28 1 28-4 25-8 25-11 24-14 21-18 18-19 13-20 12-24 5-26-2-31-10-23-14-24-18-21-21-17-21-14-22-11-24-6-26-3-25-1-28 6-23 13"/>
<path d="M14313 27157l-23-8-23 12-18 16-16 19-10 22 8 23 26 9 27 5 23 10 17 17 4 25-6 26-13 23-13 24-18 19-10 24 12 21 20 14 18 18 12 23 5 24-2 24-7 24-12 27-11 23-9 25-5 24-3 29-2 27 9 23 16 18 20 17 25 11 24 8 26 3"/>
<path d="M14664 27495l 7-24 6-26 5-25-11-22-24-9-23 10-24 18-21 22-18 26-12 22-12 22-12 29-4 27 0 28 12 26 22 10 24-2 26-13 19-16 18-20 16-18 11-21 9-24-11 24-1 24 5 25 10 24 23 13"/>
<path d="M14808 27585l 9-23 16-19 13 22-2 25-6 27-6 23-7 24-9 23 10-24 12-24 14-22 17-21 15-19 22-10 18 17 1 26-3 25-6 25-2 24 17 19"/>
<path d="M15099 27475l 25 0 27-1 27-4 26-7 24-8"/>
<path d="M15173 27415l-9 26 0 26 4 26 10 23 12 22"/>
<path d="M15419 27274l-5 26-2 24 0 24-1 31-3 25-1 25-3 28-2 29-2 30-1 29-1 27-3 25-6 28 0 25 3 25"/>
<path d="M15525 27711l-5 25-10 27-12 22"/>
<path d="M15836 27653l"/>
<path d="M15896 27673l 24 3"/>
<path d="M15979 27668l"/>
<path d="M16106 27682l-7 23-13 22"/>
<path d="M16540 27510l 8-25 3-26-9-23-19-15-27-1-23 12-23 20-18 21-15 24-15 27-12 28-4 27 6 26 22 13 28-3 26-10 24-15 21-16 16-20 17-19 6-27-23 13-3 26 6 24 13 20 19 15 25 9"/>
<path d="M16672 27574l-1 24-5 24 17-18 14-22 14-22 16-19 14 21 4 25 0 25 5 23 25 3"/>
<path d="M16867 27451l 27-5 27-6 26-6 24-6 26-9 25-8"/>
<path d="M16947 27357l-2 25 5 27 8 24 3 28-2 25"/>
<path d="M17239 27178l 5 27 1 28-1 28-1 25-3 28-5 28-4 30-6 28-6 27-6 26-6 31-4 27-6 28 13-22 9-24 9-26 6-27 7-24 7-25 14-23 22-13 27-3 25 3 20 17-1 25-17 19-19 14-21 15-22 16-20 18-15 21 18 17 24 0 26-2 25-3 28-6 25-7 25-7"/>
<path d="M17480 27420l 25-11 26-1 25-2 27-3"/>
<path d="M17717 27263l-4 28 1 30 2 26 3 28 3 27 2 29 1 30-3 27-3 26-2 27-3 24"/>
<path d="M17983 27172l 9-23-23 14-13 20-9 24-4 24 3 25 17 17 24 11 23 5 19 16-20 15-18 16-21 14-14 20 16 18 25 7 26 7 26 10 24 13 22 17 20 19 15 19 13 21 7 24-4 28-15 22-21 18-21 17-26 10-26 6-28 3-28-2-27-5-16-20"/>
<path d="M18628 27223l-25-3-27 8-24 9-22 16-22 15-20 20-17 18-15 18-11 22-9 25 0 27 12 22 22 14 25 8 25 2 28-1 32-4 28-5 27-6"/>
<path d="M19140 27089l-26 2-23 8-23 8-25 10-22 11-23 13-21 15-17 18 0 25 20 18 24 16 22 13 22 13 22 15 15 19-6 27-15 20-22 13-24 15-21 11-21 14 18 17 23 11 23 14 16 21 4 25-5 25-8 23-8 25-5 25 9 24 27 9 26-1"/>
<path d="M19343 27111l-4 28-3 30-2 31-2 25-1 30-2 31-1 32-1 35-1 29-1 27-3 29-2 27-1 25 12-25 10-28 9-22 10-23 18-16 26-2 28 4 25 9 24 13 16 20 7 24-11 22-17 18-22 14-22 11-25 10-25 6-25 4-26 0"/>
<path d="M19597 27486l 2 27 0 26 0 27 2 25"/>
<path d="M19776 27527l-16 18-18 21-17 17-15 19"/>
<path d="M19877 27508l"/>
<path d="M19961 27506l"/>
<path d="M20021 27513l"/>
<path d="M20143 27519l-13 24-10 26-13 26"/>
<path d="M20326 27473l 20 16 25-8 28-11 27-11 29-14 29-17 25-19 25-18 21-19 19-20 15-20 13-21 11-29 7-30 4-31 3-24 1-31-2-26-24-7-19 17-18 24-13 23-13 24-12 26-11 30-7 32-8 34-4 33-1 29 3 26 10 29 15 23 18 17 24 8 24-1 27-12 18-20 8-23-6-25-12-23-16-18-22-13 23 13"/>
<path d="M20722 27454l-8 23-5 25-7 27-8 25 14-24 19-21 19-17 21-16 21-12 19 16 1 25 3 26"/>
<path d="M20942 27465l 24-4 25-3"/>
<path d="M21094 27423l 5 23 0 25-1 24-1 24-3 26"/>
<path d="M21266 27068l 24-1 23 9 17 19 10 21 2 25-11 23-15 21-13 21 5 24 23 11 24 7-19 16-17 18 7 24 18 18 17 17 19 17 13 21 6 23-3 24-7 24-12 22-21 15-22 10-26 8-25-1-22-11"/>
<path d="M3449 29586l-19 20-8 24-8 29-5 26-5 27-5 30-3 28 1 27"/>
<path d="M3485 29400l-24 5 9 24"/>
<path d="M3713 29369l-25-5-25 8-18 19-15 23-9 25-7 25-6 27-2 30 2 28 1 25-1 27 1 29-1 29 1 29 1 28 2 28-1 26-3 26-3 30"/>
<path d="M3541 29616l 26-10 29-7 29-7 24-6 24-6 28-6"/>
<path d="M4543 29669l-5-26 0-25-1-28-3-27-5-24-20-15-24 14-19 20-15 21-14 24-12 25-12 24-9 22-7 23-4 30 2 28 10 23 24 7 25-7 24-15 17-23 12-22 0 26 5 24 14 20"/>
<path d="M4621 29799l-8 24 1 25 22-16 13-23 16-22 17-19 24-4 7 26-2 26 11 22"/>
<path d="M5164 29554l-14 22-6 26-3 28-4 24-4 24"/>
<path d="M5185 29468l"/>
<path d="M5280 29526l-20 14 0 25 7 23 22 11 27-3 23 6 4 27-9 26-15 22-16 19-22 15-24 10-26 6-26-4"/>
<path d="M6110 29258l 5-24 24-3 8 24 5 29 2 31 3 26-1 29-6 33-5 35-5 25-3 24-6 25-5 23-8 34-9 33-7 29-8 25-7 25 14-26 11-24 12-25 13-23 15-23 19-23 20-18 20-14 25-9 22 10 8 24 1 25-1 29-4 29-4 26-3 25 28 4 25-16"/>
<path d="M6414 29526l-14 23-9 27-6 24-6 24-5 24"/>
<path d="M6439 29386l-1 27"/>
<path d="M6577 29520l-12-22-25 5-25 15-19 16-15 21-12 23 0 25 24 9 26-7 25-15 21-15 14-20-13 21-3 26-2 29-2 25-2 26 3 28-2 31-4 27-1 27-3 28-3 29-4 28-3 27-8 27-13 25-16 25-18 16-24 11-27-6-21-18-15-20-10-27-5-34-2-35 1-26 0-27 2-29 2-30 4-31"/>
<path d="M6734 29198l-1 26-1 26 4 25 3 31 3 25 3 27 2 28-3 32-2 30-3 29-2 29-8 28-9 26-10 26-12 21 7-26 12-26 14-26 17-26 19-22 17-22 20-16 23 9 12 23 9 23 6 26-1 25-3 28 3 26"/>
<path d="M6970 29633l-10 23-10 24-16 26"/>
<path d="M9996 29504l 19 17 25-12 29-16 22-16 21-18 18-19 20-23 14-24 6-25-3-28-13-20 28 2 25 0 25 7 25 9 21 11 15 19-14 24-16 20-16 21-14 21-5 25 24 8 26-8 25-7 25-10 25-10 23-10 24-11 24-13 25-12 20-17-16-20-27 1-23 9-19 16-15 23-11 22-1 27 7 24 22 13 28-1 26-9 25-12"/>
<path d="M10569 29375l-13 21-10 24-7 25-6 23-5 27-4 28-7 25-9 28-10 27-10 26-13 28-9 26 0-29 6-24 6-27 8-30 8-30 10-28 8-27 9-25 10-30 11-24 16-23 16-21 23-14 26-9 24-3 24 5 18 17 3 25-12 22-16 22-20 22-20 16-22 17-23 14-24 12"/>
<path d="M10799 29401l 26-9 23-7 24-7 26-12 21-13 18-16-15-21-25-4-27 5-26 11-21 20-17 23-12 25-6 25 5 27 17 18 25 7 29-2"/>
<path d="M11071 29326l-26-5-25 10-19 15-13 21 19 17 25-8 21-15 1 25 22 13 25-6 25-11 22-14"/>
<path d="M11283 29150l 1-27 0-25-14 22-10 27-9 28-8 23-8 24-7 26-6 28-8 27-5 27-2 24 0 26 5 25 20 15 25-10 18-22 13-25"/>
<path d="M11211 29249l-27-4 26 4 28-5"/>
<path d="M11409 29237l-23 11-23 12-21 13-16 19 22 13 27 2 26 2 26 3 24 7 19 16-5 25-23 19-20 16-21 11-25 7-25 0"/>
<path d="M3681 28450l 2-28 1-27-3-28-6-23-16-19-24 2-21 12-24 21-19 20-19 25-17 27-17 29-15 31-13 28-11 28-6 26-2 29 10 27 20 18 27 1 23-8 24-17 19-16 18-18 16-20 16-19 18-24 14-23 8-25 5-24-15 24-3 26-1 26 1 28 6 25 15 22"/>
<path d="M3823 28606l-12 23-3 26 1 27"/>
<path d="M4465 28340l-1 24-2 24-5 27-3 30-5 25-6 25-5 24-5 27-1 24"/>
<path d="M4529 28249l"/>
<path d="M4620 28364l-21 13-15 20-8 24 18 16 25 4 24 7 21 13-7 26-17 20-19 18-24 10-24 1"/>
<path d="M5183 28415l 27-3 25-13 21-17 19-18 13-20 4-24-21-16-24 0-23 9-22 16-16 18-15 21-13 24-10 22-7 26 3 27 12 25 21 12 25 4 25-2 29-11 22-12 22-13 21-13"/>
<path d="M5411 28324l-17 17-10 24-6 26-6 26-1 27 1 27 21 13"/>
<path d="M5452 28212l"/>
<path d="M5634 28100l-17 20-6 28-6 24-7 26-9 28-8 24-7 26-8 27-7 26-7 27-4 26-6 29-2 24 4 26 23 15 24-8 23-16 22-20"/>
<path d="M5539 28258l-27 1 22 16 23-7 26-10 27-12 29-15 29-17 21-12 29-20 25-19 22-19 17-19 18-25 13-21 14-23 8 26 3 27-1 25-2 29-3 31-5 32-9 34-5 24-4 24-4 25-8 34-9 31-9 25-4 30-2 26 24-14 18-25 16-26 15-20 15-21 19 15-4 25 5 25 23 12 26-9"/>
<path d="M5975 28409l 25-4 27-3 24-9 20-16 13-20-6-25-27-5-25 8-18 17-16 18-10 24-1 27 11 24 19 19 25 6"/>
<path d="M6142 28380l-7 23 5 24 7 25 3 25-3-27 3-27 12-24 19-19 19-17 24-14 28-5 26-3 24 0 27-3 25-3"/>
<path d="M7205 28381l 7-24 14-20 19 15 4 26-2 27-4 24-5 28-9 25 0-25 10-21 14-22 14-21 15-20 18-24 16-20 19-17 22-10 24 0 17 19 3 26-5 25-6 29-10 25-8 23-3 25-3 24 22 15"/>
<path d="M7540 28346l 24-5 26-6 26-6 25-6 24-7 23-6"/>
<path d="M7934 28025l-2 27-5 29-1 32-2 27-3 30-1 30-5 31-4 33-7 34-6 32-8 31-7 28-7 24-6 26-8 26-7 25"/>
<path d="M8427 28361l-20 14-13 21 0 25 13 21 25 9 26-3 23-11 19-15 8-23-15-21-21-17-21-16 17-20"/>
<path d="M8595 28324l 7 25-2 26 3 24-8 23-12-22 11-24 18-17 19-18 23-14 21-11 23-9 25-8 29-3"/>
<path d="M9153 28309l 23 10 6 24-1 25-7 24-8 24-10 22-6-24 12-22 18-25 13-21 15-20 15-20 17-17 22-19 22-16 27-11 23-10 23-7 25 7 19 18 2 26 2 29-4 25-4 26-2 25-2 25 6 26 21 15"/>
<path d="M3381 30827l 0 28-4 27-3 25-4 25-2 28-1 24 3 28 3 24 10 24"/>
<path d="M3438 30668l"/>
<path d="M3650 30559l-21-11-21 16-12 25-9 23-7 28-7 25-3 28-1 30-2 31 3 25 2 26 4 27 4 31 6 29 3 31 0 31-6 31"/>
<path d="M3476 30844l 23-9 24-7 33-5 27-6 33-6"/>
<path d="M4482 30777l-10-27-11-24-18-18-25-4-22 12-22 16-20 21-16 18-16 20-16 25-13 22-8 26 4 24 25 5 29-9 28-14 22-12 26-17 24-17 19-17 16-19 11-22-21 13-6 25-7 26-3 24 4 25 9 24 22 10 25 1"/>
<path d="M4593 30912l-15 21-6 24 19-15 17-18 18-17 19-17 21-15 22 10 5 27 2 26 6 26"/>
<path d="M8001 29529l 21-11 20-20 20-23 17-20 19-24 20-26 21-28 20-30 16-31 14-31 10-29 6-30 5-29 2-30 0-30-1-25-6-24-22 21-11 31-7 25-8 25-8 29-6 31-8 31-7 34-6 35-5 37-2 37-3 38-3 37 0 37-3 35-1 34-1 29-3 27 2 33 3 27 5 25 7 24 13 23 21-16 9-27 7-30 1-31-4-31-7-31-9-29-9-28-9-24-13-22 28 3"/>
<path d="M8249 29497l 25 8 27-7 20-13 21-16-1-25-24-9-26 1-24 13-20 18-15 25-10 23-9 28-1 26 9 24 17 21 25 7 27-5 23-11 24-16 20-16 22-20"/>
<path d="M8437 29477l-14 20-6 24 17 17 26-2 22-14 19-14 5 26 15 22 25 7 25-7 24-11 24-11 19-17 14-23 8-22-9-23-14-21-22-16-23-10"/>
<path d="M5126 30733l-9 23-5 24-6 28-3 25-3 26 2 25"/>
<path d="M5149 30630l-24 3 26 7"/>
<path d="M5284 30661l-17 19-16 21-10 24-6 24 18 16 24 2 26 2 23 11-14 23-20 16-25 9-24 6"/>
<path d="M5903 30910l 22-13 20-20 22-22 22-21 23-25 18-19 18-21 20-22 19-22 17-23 17-23 15-23 13-23 12-24 9-24 10-34 4-33-1-30-4-29-6-23-13-25-20-20-25-7-24 15-13 20-11 24-9 28-8 33-7 25-4 27-1 29-2 30 4 28 1 28 2 26 5 26 2 26 4 24 10 32 9 27 12 23 16 24 16 17 24 10 24-5 27-14"/>
<path d="M6245 30769l-21 14-15 19-2 25 16 18 25 8 24-7 21-14 14-21-10-23-21-13 23-14 22-9 24-7 24-6 4 25-4 27 6 23 25 6 20-15 19-17 17 18 11 23 17 20 25 3 21-15 12-21 9-27 6-24-4-25-13-21"/>
<path d="M6664 30828l-5 24-11 25-13 24"/>
<path d="M7567 30678l-14 23-13 24-12 21-9 26-9 23 11-30 10-22 13-23 16-27 14-24 17-20 24-1 8 25 2 28 2 25 3 25 21-12 14-21 17-17 21-19 19-17 20 15 3 25 5 26 15 20"/>
<path d="M7911 30681l-8-24-22-12-24 13-18 18-17 20 5 25 26 2 25-8 23-13 17-17-4 25 8 23 26 0 21-14 18-16 19-17 4 25-5 23 23-5 17-21 17-19 21 15-2 25 3 24 22 14 25-9 20-16 18-16 18-19 15-20 15-20-12 22-5 25 4 25 27-1 22-14 19-16 17-20 13-21-2 27-3 24-2 24 2 29 0 32-4 28-1 28-4 30-4 33-8 35-4 24-5 25-7 25-7 26-8 25-8 22-12 30-13 24-15 21-21 14-17-17-9-22-3-33 2-30 4-35 6-24 6-25 7-25 9-25 10-26 12-26 12-25 13-23 12-22 14-23 14-22 16-22 19-20"/>
<path d="M9529 30701l 22-11 29-14 26-12 24-14 22-12 22-18 20-17 21-16 6-24 25 2 13 20-2 24-17 19-20 20-18 17-15 19-13 22 25 7 27-10 28-9 26-8"/>
<path d="M9896 30618l 23-14 22-13 19-15-19-16-25 3-22 13-20 17-17 23-13 23-3 27 12 22 23 14 27 2 25-3 26-5"/>
<path d="M10069 30602l-15 19-8 23-4 25 0 28-3 27-8 29-6 23-9 24-8 22-12 26-9 23-6-30 7-24 10-27 10-30 12-29 12-31 10-31 13-31 12-28 10-26 12-23 14-23 17-19 25-4 22 10 22 15 16 21 1 27-14 25-18 22-18 18-23 16-24 13"/>
<path d="M10316 30592l 24-2 26-8 23-12 22-12 12-21-22-10-27 1-23 9-23 16-17 22-13 24-5 26 15 23 21 11 29 6 31-1 25-3"/>
<path d="M10564 30564l-26 5-22 15-7 24 25 7 22-11 22-14 17-17-8 25-3 24 18 17 26-10 22-17 22-18 18-17"/>
<path d="M10813 30369l 7-26 5-28 4-30-8-24-16 23-12 24-8 30-8 28-9 30-9 34-6 24-6 24-6 24-7 34-3 31 0 26 6 24 15 22 24 9 24-12 18-23 12-21 6-28-2-27-7-30-11-24-18-24-21-16-28-10-25-3-24 0-25 5 26-3 26-4 28-4 30-5 28-5 28-3"/>
<path d="M11024 30417l-23 6-24 8-25 9-13 20 24 12 27 5 27 5 25 8 21 13-8 25-23 14-28 14-25 10-23 10"/>
<path d="M11150 30591l"/>
<path d="M3589 32382l 12-22 24-8 25-3 28-4 29-2 28 0 24 1 25 7 6 25-14 24-16 19-20 18-23 19-24 17-23 15-21 13-23 11 27 6 31 3 26 3 29 5 32 6 29 6 28 7 25 8 23 13 13 21-3 27-11 23-16 20-18 21-21 20-20 17-23 16-24 15-25 13-28 12-24 7-23 5-26 3-26-5"/>
<path d="M4293 32411l 17-20 26-5 25-2 26-2 30-1 30 0 29 3 25 4 25 12 18 16-6 25-20 20-24 17-21 13-21 13-23 12-24 9-27 10-24 9 28 3 24 0 29 0 27 0 25 2 27 2 31 5 27 8 23 13 18 20-6 28-15 19-16 21-19 22-25 18-25 15-25 12-28 9-25 6-30 4-26 0-27-5"/>
<path d="M5384 32331l 0 27 0 28 1 30 0 32 1 26-3 28-1 29 0 29-3 26 0 24 0 29-2 26-8 28-5 25"/>
<path d="M6383 32531l 25-8 23-7 29-8 28-7 27-5 29-4 26-1 27 2"/>
<path d="M6354 32622l 25-8 27-4 24-5 29-5 25-6 27-7 28-7 26-9"/>
<path d="M6577 32429l 26-2 26 1 24 2 25 2 25 5 25 7 28 12 13 21-9 26-16 18-21 19-23 19-19 17-20 14-23 18-23 18-18 21"/>
<path d="M8100 32315l 11-22 22-12 22-10 25-8 25-5 28-4 28-1 28 4 24 7 21 14 12 23-5 25-9 23-13 27-15 21-18 21-19 20-24 20-19 21-20 20-20 20-21 16-20 16-23 18-22 16-21 16-18 15 24-1 25-7 27-9 29-9 24-5 28-8 29-3 28-2 25 1"/>
<path d="M8693 32285l 21-16 24-5 29-4 27 1 28 4 27 5 25 5 26 9 24 15 20 17 10 23-4 26-15 24-21 20-18 16-22 15-23 16-26 17-25 17-30 17-27 15-27 14-25 12-25 14-24 12 25 7 28-4 25-4 29-5 33-6 25-3 28-4 27-5 26-2 25-1 25 5"/>
<path d="M9627 32252l-23 10-19 20-16 22-17 26-11 22-10 30-4 31-1 28 2 28 12 28 17 25 19 18 22 10 27 9 26 4 28-2 28-8 30-12 23-12 21-19 19-24 18-24 9-24 2-28-3-26-13-28-19-27-21-23-20-15-25-16-25-11-28-6"/>
<path d="M10391 32241l 20-16 27-6 24-1 26 2 25 7 20 18 5 25-6 26-11 23-14 26-15 21-18 23-14 24-13 23"/>
<path d="M10468 32549l"/>
<path d="M11071 32238l 24-1 19 15 20 19 18 25 14 21 18 19 16 21 13 20 18 25 17 24 15 21 14 21 14 21"/>
<path d="M11314 32210l-23 11-13 27-16 24-15 21-15 22-16 25-16 27-19 26-20 26-17 25-16 26-14 26-16 26"/>
<path d="M8209 33450l-23 11-13 26-9 28-7 29-6 25-3 24 0 28 5 24 9 25 21 18 22 10 30 6 28-3 29-9 31-13 22-14 21-17 16-18 19-24 8-25-2-26-2-25-7-25-14-25-19-22-22-20-23-17-23-12-24-9-28-5-25 4"/>
<path d="M8807 33434l 23-5 27 3 28 4 27 7 25 8 17 19 4 24-15 23-19 20-23 20-25 20-21 15-21 13-19 15-25 17-19 18-9 24 24 11 24 2 30-2 25-4 28-4 25-6 26-6 30-7 29-6"/>
<path d="M9469 33403l 25-7 28 3 25 5 29 4 24 6 26 9 17 16 1 25-14 25-19 21-22 22-22 16-25 15-23 14-21 15-27 17-23 16-22 16-15 20 22 11 28-1 26-5 25-4 29-3 26-3 27-2 26 0 24 0 28 6"/>
<path d="M10432 33337l 17-18 25-9 28-2 25 3 24 11 12 22-8 25-17 23-17 20-19 20-18 21-19 23-16 22-13 22-10 23"/>
<path d="M10467 33700l"/>
<path d="M11179 33421l 10 22 10 26 5 23 6 24 10 22 24-4 15-22 16-27 12-21 12-23 10-24 12-25 11-26 11-28 12-31 10-30 9-30 9-30 10-26 7-24 9-29 7-23 7-23 8-25"/>
<path d="M13735 32412l 5-25 6-28 3-27 0-28-2-25-1-28-6-25-25-11-23 10-25 17-21 17-25 20-24 25-26 26-15 19-19 29-19 29-11 28-8 24-3 31 6 26 13 21 25 11 25 0 26-6 29-12 25-17 20-18 18-17 18-18 14-21 1 26 3 27 8 24 19 19"/>
<path d="M13854 32501l-6 25 1 24-2 27 22-17 17-23 15-22 18-16 22 10 0 27 2 26 1 25 16 19"/>
<path d="M14815 32192l-24-7-25 12-23 14-20 14-20 20-16 19-17 22-15 25-5 24 0 27 14 23 27 11 32-3 28-9 31-10 30-13"/>
<path d="M14976 32262l-26-1-24 5-21 12-18 17-16 20-10 22 18 18 27-2 24-8 22-12 22-14 17-19-11 21 19 16 27-5 23-9 21-16 14-20 8-24 23 8 9 24 7 23 26-1 15-21 13-20 14-20 15 21 4 26 9 23"/>
<path d="M15864 32260l 20 18 25-8 30-15 28-16 20-14 23-16 24-16 24-19 21-18 19-18 17-17 22-26 18-24 10-22 7-25 2-25-1-24-5-23-6-24-7-30-9-24-24-3-18 22-15 23-16 27-14 30-9 22-12 35-7 23-7 34-5 31-1 31 2 27 5 31 9 26 16 21 22 12 26 0 21-13 16-20 9-24-4-25-5-26"/>
<path d="M16211 32149l 27-4 24-6 25-7 22-10 21-15-17-18-24-3-24 9-23 12-18 17-16 23-11 26 3 26 16 23 25 13 25 3 31-1 25-5"/>
<path d="M16795 32029l-23 8-19 15-3 24 24 7 25 4 23 8 15 21-14 21-17 19-25 15-27 10-27 9-27 5-25 4-23-7"/>
<path d="M16982 32051l-24 12-22 18-15 20-6 23 12 21 27 3 28-5 23-11 19-16 3-24-18-17-23-9"/>
<path d="M17131 32045l 2 26-1 24-5 25-10 24-16 19 7-26 14-25 16-20 17-23 16-18 22-18 21-14 28-10"/>
<path d="M17406 31811l 6 26 4 25-1 27-5 26-8 29-5 25-9 27-10 27-13 27-11 25-9 23-8 26-4 24 6 24 25 8 25-5 29-12 24-13 25-14 25-16 23-16"/>
<path d="M17358 31974l-22 11 30 0 26-3 33-2 26-3 30-3"/>
<path d="M17625 31981l 27 4 24-8 24-9 23-10-12-20-28 4-27 10-23 12-22 15-16 22-6 23 12 23 25 12 30 5 29 0"/>
<path d="M17933 31959l-19-18-23-11-24-1-23 9-26 14-21 15-18 21-10 23 0 25 17 21 24 6 29-2 28-7 30-15 21-17 19-19 16-19 17-27 8-28 6-28 2-25 0-25-3-28 1-28 0-31 3-25-4-26-11-24-22 13-8 29-2 30-3 27-2 29-4 32-2 32-1 32 1 29 4 27 6 27 8 25 11 27 12 22 18 16"/>
<path d="M18673 31993l 11-21 17-20 20-17 21-12 25 7 1 24-8 28-9 26-14 27-12 24-11 22-17 24-16 21 15-22 15-21 17-23 18-26 18-25 18-24 17-21 17-17 23-19 20-16 22-13 24-7 14 22-6 24-11 26-10 23-11 23-11 24-10 22-8 24-4 26 24 7"/>
<path d="M19070 31955l-25 11-20 16-18 20-10 26 3 24 18 17 29 4 28-5 25-10 18-16 3-25-18-19-19-16 11-22 23-11 24-11 25-6 23 6 5 26-2 25-9 28-11 24-12 22 23-10 19-18 18-19 21-19 20-15 20-15 5 24-4 25-5 27 0 24"/>
<path d="M19388 31970l 24-6 26-2 29-3 27-6"/>
<path d="M19728 31967l 13-22 11-21-18-16-28-2-26 8-23 12-26 16-22 17-17 20-14 25-4 25 15 19 27 2 25-9 21-12 25-17 25-18 24-21 22-21 20-22 17-24 13-25 12-25 8-25 8-28 5-30 4-29 4-30 2-28 1-24-1-26-24-8-15 22-14 22-14 26-13 28-10 30-10 33-6 34-4 34-2 33 2 29 4 26 8 29 11 23 16 21 24 10"/>
<path d="M19901 31923l 25 0 27-4 24-6 22-13-19-18-25 2-23 11-21 14-18 17-11 24 5 25 24 15 25 5 26-1 28-3 23-5 24-5"/>
<path d="M20207 31886l-25-4-22 13-21 16-21 18-12 23-8 25 8 23 24 14 29 2 27-6 28-7 28-9"/>
<path d="M20393 32023l"/>
<path d="M3723 35465l-24 13-19 25-15 25-16 30-11 22-9 24-8 25-8 25-7 27-5 27-4 28-1 27-2 28 1 28 2 25 6 35 9 26 13 22 20 17 23 13 22 9 25 6 25 0 28-5 26-10 22-11 21-14 22-22 12-22-3-29-9-24-18-21-23-17-27-14-29-10-26-4-29 4-25 15-20 17"/>
<path d="M4325 35491l-23 13-17 18-17 25-13 24-15 27-11 29-11 33-10 33-6 34-2 32 1 33 5 29 9 26 18 25 24 18 28 12 29 4 31-1 28-3 27-9 20-13 11-22-7-23-19-21-21-12-25-7-29-3-28 0-25 3-25 9-23 12"/>
<path d="M4971 35454l-21 17-15 23-10 26-9 23-6 27-6 27-3 28-4 31 0 32 3 31 5 29 8 26 11 22 18 24 21 17 28 9 25 0 25-4 25-8 27-13 23-16 9-24-13-25-21-18-22-11-27-7-24-3-27 6-22 10-23 15-17 17"/>
<path d="M5736 35512l-20 17-16 21-14 24-11 25-12 27-10 24-7 27-3 25 3 24 18 22 27 7 25 2 29-3 24-6 31-9 25-7 28-8 30-12 29-11 28-12"/>
<path d="M5804 35623l-5 23 7 24 10 23 11 27 9 27 8 27"/>
<path d="M6350 35535l 23-5 30 0 25 3 28 4 28 6 24 8 23 15-6 25-16 20-20 14-19 15-22 16-19 17-20 15-23 17-19 18 25 3 25-6 29-4 24 0 26 2 25 6 26 6 26 11 17 19 1 25-21 21-20 15-26 12-28 7-25 5-29 1"/>
<path d="M6911 35474l 26-5 25 0 29 1 31 2 25 3 25 2 27 5 25 9 20 16 3 26-19 20-22 18-25 18-23 18-25 15-24 16-18 17 22 8 29 1 27 2 28 6 28 7 24 7 23 8 23 13 11 23-12 24-22 18-24 14-29 12-31 10-29 8-27 3-29 0"/>
<path d="M7929 35528l 24-6 30-6 25-4 29-4 30-5 27-4 30-4 24-2"/>
<path d="M7968 35596l 24-5 28-4 27-5 27-6 24-6 25-5 24-5 29-8"/>
<path d="M8155 35420l 24 5 28 6 27 3 29 4 28 5 28 7 24 12 14 19-10 24-16 21-18 17-21 18-23 17-22 15-22 15-21 16"/>
<path d="M9247 35371l-25 0-19 19-8 23-6 28-4 26-3 32-4 25 1 26 1 24 4 24 8 31 13 26 14 23 20 18 23 14 27 8 25 4 24 0 24-3 27-6 31-12 22-10 22-12 22-15 18-16 19-17 16-18 16-19 21-28 13-27 5-27 0-27-5-26-8-29-12-27-17-26-14-22-18-19-19-15-23-13-24-7-27-1-26 5-25 11-23 16-20 18-10 24"/>
<path d="M10300 35317l 1 27-1 31 0 28 0 27 2 26 1 25 1 24-3 28-3 26-3 25-5 26 4 27"/>
<path d="M11267 35322l 26-2 25 2 24 3 29 5 22 9 22 12 13 20-3 28-15 21-24 22-21 16-25 19-25 17-25 17-27 16-23 17-20 14-19 15-17 20 19 18 25 4 28 0 25-3 31-5 26-6 30-6 32-7"/>
<path d="M12038 35284l 21-14 25-4 24 0 26 1 24 3 27 6 23 10 25 12 23 18 17 20 10 24-6 25-13 22-18 18-19 17-19 15-23 16-24 16-19 15-19 16-21 16-11 23 11 22 25 7 27 1 27-2 30-4 25-3 25-3 31-3 26-1"/>
<path d="M12956 35222l 24-11 24-5 25-4 31-3 24-5 30-4 28-4 29-3 27-4 25-2"/>
<path d="M13034 35224l-21 15-9 23 3 25 0 25 10 25 15 21 22 10 28 0 24-2 29-4 29-5 31-3 28 0 25 2 29 4 24 6 25 7 25 12 17 18-9 22-17 20-23 18-21 12-25 13-24 11-25 11-26 8-26 7-25 3-32 3-24-2-22-12"/>
<path d="M13680 35171l 27-6 28-4 29-4 26-5 26-3 27-4 27-5"/>
<path d="M13721 35171l-22 17-14 20-5 24 7 24 22 15 26 6 27 0 26-2 28-3 28-3 25-1 28 0 25 1 26 7 21 15-7 23-18 18-24 17-23 13-25 12-28 10-30 6-29 4-25 3-28-3"/>
<path d="M14781 35073l 17-17 25-10 26-5 28-1 24 0 28 0 25 6 22 13 12 22-4 24-17 23-18 18-21 21-20 21-16 19-13 25-9 24 0 25"/>
<path d="M14960 35426l"/>
<path d="M9272 36405l 15 20 8 25 10 25 7 24 12 21 17-19 13-26 10-29 9-23 8-23 11-25 10-26 9-30 8-30 11-29 10-28 9-25 7-24 8-26 6-25"/>
<path d="M10197 36297l-14 21 0 25 3 25 7 24 7 27 10 24 23 8 14-22 11-22 12-28 14-33 9-23 9-24 9-23 12-33 11-29 10-27 5-24 6-25 3-25 5-24-2-25"/>
<path d="M11270 36291l 16 19 11 23 9 26 19 16 16-20 15-25 13-25 16-30 15-29 15-30 16-31 12-31 13-30 9-26 7-24 8-30 7-26 5-28 5-24 5-25"/>
<path d="M12173 36177l 14 22 16 22 14 20 16 19 21 18 20 17 21 13 21 13 23 10"/>
<path d="M12322 36149l-23 10-13 25-11 22-13 23-11 23-11 26-12 27-12 27-11 21-9 26"/>
<path d="M9367 37881l-24 5-17 22-13 21-10 25-9 22-7 25-6 27 0 24 4 26 9 25 13 23 18 22 19 16 25 11 25 8 24 6 27 1 30-3 27-8 26-16 20-15 19-16 17-20 19-23 11-23 9-23 4-30 2-24-1-27-3-25-7-24-9-24-12-23-14-21-21-22-24-18-21-12-25-10-27-6-28-1-26 3-27 7-25 13-19 20-12 23"/>
<path d="M11104 37812l 23-9 25-7 26-6 27-4 25-10 26-11 24-11 22-12"/>
<path d="M11129 37818l-11 23 1 25-2 24-2 28-2 26-4 27 2 25 8 23 24-9 24-13 21-12 26-12 27-8 29-5 27 0 26 1 23 6 22 10 15 21 0 24-8 27-13 25-16 18-16 20-21 18-21 17-22 11-25 10-26 6-26 2-28-1-27-6-19-14"/>
<path d="M12162 37740l 21-14 25-10 27-11 27-9 27-7 25-6"/>
<path d="M12200 37715l-17 18 1 25-1 25-2 27-2 26-5 27 5 24 17 17 25-9 26-13 25-11 26-8 25-8 27-4 24 1 24 7 18 17 8 25-2 27-9 26-10 25-16 22-20 16-23 15-21 12-25 10-25 3-25-3-24-4-22-12"/>
<path d="M10183 37869l 23-10 25-4 25-3 28 0 29 1 25 5 21 15 3 26-12 25-18 26-15 21-15 21-20 21-22 20-19 19-20 18-17 19-19 16-25 18-19 15 25 7 27-7 24-8 24-6 25-6 25-4 25 2 24 5 21 12"/>
<path d="M20697 31579l 12-22 25-5 26-2 24 6 23 12 18 19 12 22-4 27-11 24-15 23-18 24-16 24-14 21-13 21-15 27"/>
<path d="M20772 31948l"/>
<path d="M9578 39483l-24-8-24 14-16 21-12 23-11 22-11 24-9 28-5 32-2 30 1 28 2 24 8 23 17 25 20 18 22 11 29 6 29 0 30-4 29-10 30-13 29-16 26-17 25-21 23-21 19-24 14-25 10-24 6-26-3-30-10-27-19-26-20-16-26-17-27-15-28-13-26-10-27-8-31-3-27 6-23 12-15 19"/>
<path d="M10564 39438l-5 24 0 26-3 29-6 28-3 24 0 24-5 31-5 28-2 27-1 24-4 27 8 25"/>
<path d="M11236 39468l 21-17 24-11 23-11 23-10 24-12 23-9"/>
<path d="M11268 39471l-24 5-10 22-2 26 1 24 0 27-1 26 9 21 24-6 25-11 25-13 25-10 27-8 27-5 25-1 24 11 13 22 1 25-7 24-10 25-15 22-17 17-23 17-22 13-26 6-25 4-24 1-25-5"/>
<path d="M21414 31634l 23 12 17 21 15 22 14 21 19 26 14 21 15 22 14 22 17 27 19 20 17 18 19 17 26-1"/>
<path d="M21679 31580l-23 13-19 20-20 24-17 23-19 25-19 26-20 29-21 30-14 22-15 23-15 25-14 21-13 20-19 27-18 23-15 21"/>
<path d="M3949 41477l-25-5-23 17-17 21-13 23-10 22-10 26-12 28-9 33-6 24-5 26-4 28-4 28-1 29 0 29 3 28 4 27 6 27 7 23 12 32 19 26 24 21 25 13 32 7 33 1 24-2 31-8 28-10 23-13 20-16 18-18 18-23 7-27-3-25-19-21-25-14-25-10-31-5-24 0-26 2-26 7-25 11-22 16-17 20-13 20-12 27"/>
<path d="M4598 41476l-27 5-12 25-13 26-8 25-10 27-7 30-9 30-9 33-6 23-4 35 0 33 3 30 7 27 10 24 12 22 18 22 21 15 26 8 29 0 26-7 21-14 18-18 6-28-6-27-16-21-23-14-24-5-25 4-25 8-22 13-19 16"/>
<path d="M5260 41433l-20 17-12 28-8 24-8 29-4 31-7 35-2 25-8 28-1 28-2 28-1 27 0 27 2 26 3 35 5 31 10 25 19 23 20 17 24 7 28-3 29-10 22-11 19-16 17-19 18-23 13-23-11-22-19-19-26-6-29-3-26 3-24 6-26 12-23 13-17 21"/>
<path d="M6007 41548l-5 28-8 27-8 25-9 26-5 28-7 26-8 26 5 23 17 18 26 8 25 0 24-3 27-7 29-9 23-8 29-12 21-12"/>
<path d="M6098 41645l-2 27 6 29 5 29 5 26 6 28 6 27 4 27 3 27"/>
<path d="M6750 41497l 20-13 26-4 24 2 25 2 24 5 21 14-7 27-19 21-18 16-22 19-18 16-16 18 25 6 27-3 28-3 25-2 25 2 25 2 25 5 22 12 10 22 0 25-12 25-17 25-17 19-17 18-21 16-21 14-21 13-25 13-25 9-26-2-23-16"/>
<path d="M7203 41483l 24-9 27-2 25-3 27-1 28-2 27 0 26 3 24 5 19 17-3 24-16 23-20 20-18 17-19 16-18 15-22 20-21 21 16 19 29-7 26-5 28-4 31-2 29-1 28 0 26 6 23 11 10 24-5 27-15 25-20 21-18 20-20 17-20 16-24 11-31 6-28 4-29 1-25-4-28-9"/>
<path d="M3013 42972l 24-5 27 3 24 0 27 0 24 0"/>
<path d="M3055 43093l 23-10 25-8 26-9 28-4 27-3"/>
<path d="M3167 42893l 26 6 29 2 26 6 23 17 11 25 1 27-7 28-9 24-14 25-15 23-19 21-21 19-21 19-21 13"/>
<path d="M7565 42878l-18 17-10 25-6 25-5 25-3 26 0 28 3 27 8 24 11 26 12 22 23 16 25 10 26 0 26-7 25-13 21-15 16-19 13-20 12-25 7-24-5-25-14-25-16-23-12-25-20-22-21-17-25-7-28 1-25 12-22 16-12 21"/>
<path d="M7008 42904l-8 27-2 24-5 26-2 28 0 26-4 25-4 27-5 26-4 25-1 24"/>
<path d="M6174 42897l-5-23 19-16 25-6 25 0 25 3 26 6 25 9 24 12 12 22 4 28-10 26-15 24-17 24-19 24-17 19-14 21-17 19-20 23-24 21-23 19-19 21-18 17 25 6 26-4 24-6 28-4 24-2 27 0 25 4 24 7"/>
<path d="M5281 42898l-3 29 1 24 0 28 0 30-1 25-2 26-2 27-4 28-3 27-3 26-1 30-3 27-3 24-3 25-1 25"/>
<path d="M5273 43581l 13 21 17 19 15 22 12 21 11 22 15 25 17 21 18 22 19 21 18 18 21 17 25 17 28 14 22 10 22 10 23 12 26 9 24 10 27 9 27 11 28 10 28 8 29 8 30 7 27 5 31 5 35 5 32 3 33 4 31 3 35 1 34 0 32-1 31-3 31-3 32-4 33-6 32-5 31-5 31-8 31-8 29-10 29-11 26-11 28-13 29-13 31-14 30-15 27-16 29-18 27-17 26-20 25-19 26-20 22-21 21-21 19-22 20-20 17-18 20-23 16-23 16-21 17-23 16-22 12-22 13-20"/>
<path d="M3909 42914l 1-24 23-11 28 0 25 5 23 10 15 19-5 24-13 22-18 21-18 20-19 19-19 15 25-2 25 3 25 5 27 10 22 12 20 17 10 25-2 26-10 25-17 25-22 17-21 14-26 12-26 5-24 0-22-11"/>
<path d="M4431 42948l 18-17 27-7 28-3 26-1 24 1 24 9 10 23-9 25-12 23-15 20-16 20-20 21-18 21-20 20-18 18-18 16-20 20-18 20 25 11 25-11 26-8 26-9 26-7 25-2"/>
</svg>
