<svg xmlns="http://www.w3.org/2000/svg" viewBox="1451 1045 17992 13496" stroke="black" stroke-width="20" stroke-linecap="round" stroke-linejoin="round" fill="none" data-xena="0 0 0"><style>@media(prefers-color-scheme:dark){svg{background-color:black;stroke:white;}}</style>
<path d="M2097 1476l 6 5 4 7 4 7 3 8 1 8 2 7 1 9 0 13 0 18 0 21-2 21-3 19-2 20-3 24-3 29-4 28-1 7-4 25-4 28-6 33-5 33 1-7-4 28-3 28-5 33-1 7-5 32-4 27 1-7-3 26-5 30-1 7-4 27 1-6-4 21-3 17-3 17-3 17-1 6-4 17-4 15-3 8-2 6-2 3"/>
<path d="M2042 1484l 1-6 1-5 3-6 2-6 3-7 5-7 4-6 4-5 5-5 5-5 6-5 8-5 7-3 8-4 9-2 9-2 7-1 8-1 9 0 8 1 10 0 10 2 12 1 8 1 13 2 15 3 15 3 16 2 18 4 20 3 20 5 20 6 19 7 18 7 18 8 18 8 6 4 18 9 17 11 18 12 16 13 16 13 5 5 14 15 14 15 12 16 10 16 3 7 9 17 8 17 4 16 2 8 2 16 0 17-2 20-1 7-6 24-8 26-11 26-13 28-3 6-14 27-15 25-13 23-14 21-15 23-17 26-20 30-20 29-18 24-17 22-21 24-6 5-23 23-24 20-24 17-25 16-23 14-24 12-6 3-23 11-22 9-20 6-20 5-17 3-7 1-14 1-11 0-11-1-6-1-11-3-9-3-5-3-9-5-8-6-4-3-6-8-4-7"/>
<path d="M2751 2233l-1 5-2 6-1 6-2 7-1 7-2 7-1 9-2 9 1-7-1 11-1 12-2 12-1 12-2 13-1 13-1 14 0 13 0 12 0 13 1 12 1 11-1-7 2 10 3 9-3-6 3 7 5 6-5-5 7 5-5-2 7 3-6-1 7 0-5 1 9-3 13-6-4 2 14-8 4-2 4-1"/>
<path d="M2733 1968l-4 4 8-11-2 5-2 4 1-6-1 4-1-6 1 5 2 6 3 5-2-3 3 6 2 3 0 3 0 3"/>
<path d="M3013 2496l-1 7-2 7-4 6-3 7-4 5-4 8-6 11-8 10-3 3-3 2"/>
<path d="M3269 2049l 4 9"/>
<path d="M3281 2352l-1-7 2 5 3 6 3 6-3-6 4 7 4 6 4 7 5 9 6 10 6 10 5 9 3 6 5 10 5 11 5 13 5 12 3 12 3 12 3 14 3 17 4 16 2 15 2 7 2 16 3 18 3 19 2 21 1 21 1 19 0 17 0 15-1 14-2 15-1 7-2 16-3 14-2 14-3 13-2 13-3 12-3 11-4 10-3 7-5 8-6 8-5 7-5 5-6 5-6 3-7 3-7 1-8 2-9-1-7-1-10-2-10-3-11-5-11-5-6-4-11-7-11-8-11-9-10-9-4-4-10-10-8-12-8-13-2-4-7-15-5-16-4-17-1-4 1-3"/>
<path d="M3910 1804l 6 0 8 0 10 0 11 0 9 0 10 0 13-1 14-1 14-1 14-1 14 0 14 0 4 1 4 2 2 2"/>
<path d="M3866 1969l 6-1 10-2 12-1 11-1-7 1 10-3 12-3 13-4 16-3 20-5 19-5 15-4 18-4 22-4 3-1"/>
<path d="M4386 2216l 7-5 8-6 9-7 11-8 11-8 12-10 14-11 15-12 18-14 17-14 15-13 13-12-5 5 13-14 15-16 16-18 15-20 13-18 10-16 7-13-4 6 6-11 4-12 3-12 2-13 2-13-1 8 2-14 1-14 0-16-1-14-1-13-1-9 1 7-2-6 9 12-2-2 32-5-3 2 4-6-3 6-1 7 1-7 0 8 0 9 0 10 1 10 1 11 2 12-1-7 3 14 4 13 3 10 4 10 4 8 4 9 5 10 5 10 5 11 5 10 4 8 2 8 2 9 1 7 1 10 1 10-1 9-1 7-3 10-3 10-5 11-3 6-5 10-5 9-6 9-6 9-6 8-6 5-6 6-6 5-8 5-6 3-8 4-9 3-8 3-9 1-8 1-8 1-9 0-9 0-8-1-7 0-7-2-6 0-4-1-2-1-6-3-5-5-4-7-1-7 1-7 3-6 6-6 6-3 7-1 3 0 7 1 10 0 12-1 14-1 14 0 14-1-7 1 13-2 12-3 14-3 15-4 18-6 20-6 22-7"/>
<path d="M4919 1911l 2 6 1 7 2 8 0 10-1 13-1 15-1 8-2 14-3 13-3 13-5 14-6 15-7 16-7 18-7 16-6 13-4 12-4 12-3 11-2 9 1-7-1 7 0 6-1-7 2 5-4-6 3 3-11-8 4 2-7-1 5-1-7 2 7-3 7-4-6 4 8-6 10-6 10-8 12-12 14-14 15-15-5 5 14-14 12-14 9-13 8-12 7-13 7-12 7-12-4 6 6-12 5-11 3-10 4-10 2-8 2-8 1-4 35 26-1 1 5-5-3 5-4 7 4-6-4 8-4 10-4 12-4 12-3 13-3 10-2 9-1 7 1-7-1 9-1 9 0 7 0 8 0 8 1 7-1-7 2 6 2 6-3-7 2 5-5-5 5 3-7-3 6 2-7-1 7 0 9 0-7 1 9-1 8-2 8-3 9-3 9-3 11-5 10-4 10-4 10-3 10-2 4 0 10-2 4 1 3 1 3 3 2 4 0 3"/>
<path d="M5218 1895l 3 6 4 6 2 7 3 8 2 8 1 7 2 9 1 10 0 11 0 11-1 9-1 7-1 10-2 10-3 11-4 11-6 12-5 13-6 14-5 13-5 11-4 8-3 7-4 7-4 6-4 5-5 5-3 3-7 3-7 1-7-1-6-3-2-1-5-5-3-7-1-7 0-4 1-7 2-7 4-9 6-11 3-6 7-14 9-15 11-18 13-20 13-20 12-18 12-17 12-18 13-18 12-16 12-14 10-12 8-9 7-7 5-5 6-6 7-3 5-3 7-1 6 0 7 1 5 2 6 3 5 5 4 4 3 6 4 7 2 8 1 7 2 10 1 11 0 11-1 13-1 14-1 7-3 15-2 15-3 13-3 13-4 13-4 13-4 13-4 11-3 10-2 7-2 6-2 4 0 2-3 6-5 5-7 3-7 1-7-1-6-3-6-5-3-6-1-8 1-7 2-3 2-6 4-8 5-11 6-14 8-16 7-16 4-7 8-14 7-13 9-13 9-14 8-14 8-12 8-11 10-11 9-11 9-10 8-9 6-5 7-7 7-6 6-4 7-3 6-3 7-1 7-1 7 1 5 1 7 4 4 3 5 5 4 6 3 6 4 7 3 9 2 9 1 7 1 10 0 11 0 12-1 11-2 11-1 7-2 11-2 12-2 14-2 15-3 14-2 12-2 10 1-7-1 10 0 11 0 11 0 10-1-6 2 8 3 8-3-6 4 7"/>
<path d="M6362 1880l-2-5-3-5 3 6-3-4-4-4 5 5-4-4 6 4-5-2 7 1-5-1 7-1-6 1-6 3 6-4-6 4-5 4 5-5-4 5-4 5-4 6-5 8-6 8-6 10-6 10-7 11-6 12 3-6-5 12-4 14-3 13-2 12 1-7-1 10 1 10-1-7 2 9 4 8-4-7 5 7-5-5 6 5 6 3-6-3 7 2-7-1 8 1 8-1-7 1 9-3 9-3 10-5-7 3 10-6 11-7 11-9 11-9 9-9-6 6 8-9 7-8 5-7 3-7-3 7 3-6 1-5 1-4-1 7 0-5 0-4 1 7-2-4 4 7-3-3 12 9-4-2 7 2-4 0 7-1-4 1 6-3-4 3 9-12-2 4 0-14 1 4-8-12 3 4-6-3 6 2 7 2-7-1 6 0 7-1-7 1 7-1 8-3 9-3 11-5 13-6 16-8-7 3 20-11 22-14 22-15 23-16 23-18 22-20 23-21 23-22 23-23 23-23 24-23 23-24-6 5 23-24 21-25 19-25 18-25 16-24 13-25-4 7 11-25 9-24 8-25 7-26 6-26 4-26-1 7 3-24 2-23 1-20 0-16-2-14 1 7-2-11-3-9 3 7-4-6 5 5-5-3 13 4-6 0 7-1-8 4 6-4-10 8-13 12 5-5-13 16-15 22-14 25-15 27-14 28 4-6-13 28-13 30-13 36-16 46-17 55-19 60-18 60-16 56-14 51-12 48-12 49-11 50-10 52-9 52 1-7-7 51-5 48-2 45 0 42 3 39 5 38-1-8 8 36 9 30 10 24-3-6 10 17 10 12-5-5 11 7-6-3 13 4-7-1 13 1 12-1-7 1 11-4-6 3 12-8 13-12-5 5 14-15 14-17 12-18 10-20-4 6 9-23 7-26 4-27-1 8 2-29 0-29-1-30-3-29-3-27-4-24 1 7-5-22-5-22-5-21-4-18-5-14-5-13-6-12 3 7-7-12-6-9-6-7 5 6-3-3 32-5-2 2 3-20 1 5-3-6 5 5-4-4 8 5-5-3 12 4 15 3-5-1 19 2 20 2 3 0 3 2 2 2 2 3 0 3 0 4-2 2-2 3"/>
<path d="M7731 1875l 3-10 4-11 3-10 2-10 1-9-1 6 0-8-1-8 1 7-1-6-3-6 3 7-3-5 5 5-4-3 6 3-5-2-5-1 7 1-6 0 7-1-8 1-7 3-9 4 7-3-10 6-10 7-10 9-10 11 5-5-10 11-11 12-10 14-12 15-12 17-12 18-13 19-11 17-10 17 4-6-8 15-5 14-4 13-2 10 1-7 1 9-1-7 2 5-8-11 4 4-6-4 6 2-7-1 8 0 10-1-7 1 11-2 13-4 14-6 14-8-6 4 15-9 13-9 14-9 12-9 12-9 10-9 9-8 7-7 6-5 4-3 6-3 7-1 2 0 7 1 7 3 5 5 3 7 1 7 1 3 0 5 0 7 1 7-1-7 2 6-3-6 3 6 5 6-5-6 6 4-6-3 6 2-7-1 7 0 7-1-7 1 7-2 7-3-6 3 7-4 7-5 8-5 8-6 8-6 9-7 9-7 8-7 9-7 8-6 8-6 6-6 6-6 6-6-5 5 6-6 5-6 5-5 5-5 4-4 6-3 3-1 7-1 7 1 7 3 5 5 3 7 1 2 1 7 0 5-1 8-2 7-3 8-3 9-3 8-4 8-3 8-3 8-3 7-3 8-2 7-1 7 1-7 0 5-4-14 2 3-19-9 4 0-7 1 6-2-6 3 7-5 9-8 10-8 10-10 10-11-5 5 10-10 10-12 9-11 9-11 9-11 8-9 8-9 5-5 6-7 6-4 6-3 4-1 7-1 7 1 6 4 5 5 4 6 1 3 1 7 0 6-1 7-1 8-3 9-2 9-2 8-2 9-2 8-2 9-1 9 1-7-1 9 0 8 1 8-1-7 3 6-4-6 4 5-5-5 5 4-6-4 6 2-7-1 6-1-7 2 8-2 8-4 10-4 10-5 10-5 11-5 11-6-7 3 11-5 11-7 11-6 12-8 13-9 12-9 13-9 11-9 10-8 10-8 8-8 8-8 7-7 7-6-5 5 6-7 5-6 4-6 4-7-4 7 3-7 3-6 1-7-1 7 0-5 1 7-1-5 9 12-3-2 21 3-4 1 6-3-4 3 5-5-4 4-4 7 4-7-3 7-2 8 1-7-1 7 0 9 0 8 1 9 1 8-1-7 1 8 2 9 2 9 2 9 3 9 2 10 2 9 1 9 2 8 1 8 1 7 2 8 1 6 0 7 0 6-1 6-1 8-2 6-2 7-4 6-4 6-5 5-5 5-5 4-7 3-6 3-7 1-7 1-7-1-7-1-7-1-7-3-7-3-7-3-7-4-6-5-6-4-5-5-5-5-4-5-3-4-3-6-1-7 0-4 1-7 1-4 4-7 5-5 3-3 6-3 6-4 7-3 9-3 9-3 11-2 10-3 11-2 11-2 7-1 11-2 11-1 11-2 10-1 10-1 11-2-7 1 12-2 12-2 13-3 12-2 7-1 11-2 12-2 11-2 11-1 10-2 10-1-8 1 10-2 8-2 8-1 7-3 7-2 7-3 7-3 6-3 6-3-6 3 6-3 6-3 5-3 6-4 6-3 7-3 6-4-6 3 6-3 6-4 7-4 6-4 6-5 7-5 6-5 6-4 7-5 6-4 7-4 6-3 5-4 5-3 4-4-5 5 4-4 4-6 4-6 3-6-3 7 3-6 2-5 1-2 3-6 5-5 7-3 7-2 7 2 6 3 5 5 4 6 1 7-1 8-1 1-1 5-1 6-1 7-2 7 2-7-1 7-2 7-1 8-1 7-2 7-1 8-2 7-2 7-2 8-3 9-3 10-5 11-5 12-5 12-5 11-4 7-5 11-5 10-6 11-5 10 3-7-4 10-3 8-1 8 0-15 1 6-8-12 4 4-14-5 6 1-7 1 8-2 9-4-7 3 10-6 11-8 10-9 12-11 11-10 12-12 11-11-5 5 12-12 10-11 10-11 9-10 8-10 8-9 7-7 6-6 5-5 4-4 6-3 7-1 7 1 2 0 6 4 6 5 3 6 1 7-1 7-1 5-2 7-4 9-4 9-3 10-4 9-3 9-2 9-1 9 1-7-1 8 1 8-1-8 1 8 3 7-3-6 4 6-5-5 5 4 6 4-7-4 7 2-7-1 7 0 9-2-8 1 9-2 10-3 10-5 11-6-6 4 11-7 12-7 12-8 11-8 12-9 10-9 10-10 9-9-5 6 7-9 7-9 5-9-3 7 3-8 2-8 1-7-1 7 0-7-1-6 1 7-2-6-2-6 3 6-3-5-4-6-4-5-4-5 5 5-5-4-5-3 6 3-6-2-5-1 7 1-6 1 7-2-5 2 7-3-4 2 8-11-2 4 1-7 1 5-4-14 3 6 5 6-5-6 7 5-6-3 7 3 9 3 9 2 9 1-7-1 9 1 9 1 8 0 8 1 8 0 7 0 8 0 7 0 7-1 7 0 6-1 7-1-7 1 7-2 7-1 7-2 6-3 6-3 6-3-7 4 6-3 5-3 7-4 5-2 6-3 6-3 6-2 7-3 6-3-6 3 6-3 6-4 4-5-5 6 3-6-4 14 0-6 1 7-2-5 4 7-5-5 5 6-5-4 6 4-7-2-7-2 7 1-8 0-8 0-8 1 7-1-9 2-9 3-9 5 7-4-9 6-9 6-9 8-8 7-8 8 5-5-7 9-7 8-6 9-4 9 3-6-4 9-3 10-1 10 1-7 0 10 1 10-1-7 2 10 4 9-3-7 5 8 6 8-5-5 7 6 9 5-7-3 10 4 11 2-7-1 12 2 13 0 14-1 15-1 15-3-7 1 16-3 17-5 17-5 18-7 19-7 19-8 18-9 18-9-6 3 17-9 15-9 15-9 12-9 11-9 9-8-5 5 7-9 6-8 5-9-3 7 3-9 3-9 1-9-1 7 1-9 0-8-1-8 0-7 0-5 1-7 2-4 3-6 5-5 3-2 7-3 7-1 5-1 6 0 7 1 7 1 7 1 7 2 7 2 7 4 7 3 6 4 5 5 6 6 4 6 3 7 3 7 1 7 1 7-1 7-1 7-2 7-4 6-4 7-5 7-6 7-6 6-5 6-7 6-7 7 6-5-7 7-6 8-5 8-5 8 3-6-4 9-4 10-2 9-2 10 1-8-1 9 0 8 1 7-1-7 2 7-3-6 3 6-4-5 5 6 7 4-6-3 10 4 12 3-6-1"/>
<path d="M10094 1758l 4-5-3 5 2-5 0 13-1-4 8 11-4-2 13 4-5 0 7-1-7 2 7-3-8 4-8 6-8 7-8 8 5-5-8 9-8 10-8 10-8 11-7 10-7 11-5 11 3-6-5 11-4 9-2 10 1-7-1 8 1 8-1-7 2 8-3-7 3 7 5 5-5-5 6 4-7-4 7 3-7-1 9 0 9 0 11-2-7 1 12-3 13-4 13-6 12-6-6 3 12-7 11-7 10-7 9-8-5 5 7-8 7-8 5-8 4-7-3 6 2-7-1 7 0-6 2 7-2-6 3 6-3-5-4-5 5 5-6-4-7-5-7-4-8-4 7 3-8-3-7-3-7-2-6-3-5-3-5-5-3-7-1-2-1-7 1-8 3-6 5-5 3-3 7-3 6-4 9-2 10-3 7-1 10-1 11 0 11 0 11-1 11-1 10-1 9-1 8 0 9 0 7 0 7 1 7 2 6 3 7 3 5 5 5 5 4 6 3 6 2 7 2 7 0 7 0 7-1 8-1 7-2 8-2 9-3 11-3 11-3 11-3 12-2 12-3 11-2 11 2-8-2 10 0 8 1 7-1-7 1 6 3 6-9-12 5 4-7-3 6 1-7-1 6 0-7 1 6-2 7-3-6 3 6-5 8-7-5 6 7-9 8-9 8-11 8-12 8-12 8-12 8-12 8-11 7-12 7-11 6-12-3 7 5-11 4-11 4-11 4-11 4-10 3-10 3-9 3-7 2-5 3-6 1-2 5-5 7-3 7-1 7 1 6 3 5 5 4 7 1 7 0 3-1 6-1 7 0 8-1 7 1 7 1 8-1-8 2 7-4-6 4 6 5 6-5-5 6 5-6-3 7 3 8 3 7 2 8 1 9 2 8 1-7-1 9 1 10 1 9 1 10 1 9 0 9 1 9 1 8 0 7 2 8 1 7 1-7-1 7 0 6 0 7 0 6-1 6 0-7 1 6-1 6-2 6-2 6-1 6-3 6-2-7 3 6-4 6-4 6-4 5-5 6-5 5-4 5-5 6-4 5-4 5-3-6 5 4-5-3 7 2-5-1 7 0-6 1 8-2-5 8 11-5-4 7 4-6-3-7-1 7 1-7 0 7-1-7 1-6 3-7 2-7 3-8 2-8 3-8 4-10 4-10 6 7-4-11 6-10 7-10 7-10 8-10 9-9 9 5-5-8 9-6 10-6 10 4-7-4 11-2 11 1-7 1 11-1-7 2 11 5 12-3-7 6 11 9 9-5-5 10 7 12 7-6-3 13 5 15 5 16 3-7-1 16 1 17-1 17-1-7 1 18-4 18-4 19-6 19-8 20-7 20-8 19-8 19-7 18-7 16-7"/>
<path d="M10854 1761l 6 1-2 0 6-39 3 0 6 0-6-1 7-1 7 0 7 1 8 1 10 0 10-1 10 1 8 1 10 2 10 2 10 2-7-1 10 0 9-1 9-1 8 0 7 0 8 1 7 0 7 0 7 1 6 4 5 3 5 5 3 6 2 6 1 8-1 7-1 7-3 7-4 6-5 6-5 5-6 6-8 6-9 8-9 7-11 9-11 9-11 10-11 11 5-5-11 12-11 12-10 12-8 11-6 11 3-6-4 10-3 9 1-7-1 8-1-7 1 7-3-7 4 7-5-5 7 5-6-3 11 4 12 3-6-1 15 2 17 0 18-2-6 1 22-3 24-5 27-6 31-8 35-8 38-8 3-1 3 1 3 1 2 3 2 2 0 4 0 3-2 3-2 2-3 1-36 13-34 11-30 11-27 8"/>
<path d="M11680 1807l 11-4 13-6 15-6 17-7 20-9 22-10 23-11-7 3 24-12 22-14 22-14 19-15 17-15 15-14-5 5 11-14 10-13 7-13-4 7 6-12 4-10 4-10 2-9 1-9-1 7 1-7 0-7-1-7 1 8-2-5 3 6-3-3 11 8-4-2 7 2-5 0 7-1-5 3 6-3-5 4 5-5-4 5-4 6-4 7 3-7-3 8-2 8 1-8-1 9 0 11 1 11-1-7 2 12 4 12 4 12 5 12 5 11-3-7 6 11 6 10 7 9 6 8 5 8 5 7 3 7 4 7 2 7 2 8 1 7 0 8-2 7-2 7-3 6-4 7-5 5-5 5-6 5-7 3-6 4-8 3-8 2-9 2-10 2-10 2-7 1-11 2-11 1-11 1-11 0-11 0-10 0-9-1-6 0-7-1-1-1-7-3-5-5-3-7-1-7 1-7 3-6 5-6 7-3 3-1 7-1 8-1 10-1 13-2 14-2-8 1 15-3 15-3 14-4 15-5 14-5 15-7 15-8 15-8 16-8 15-7 16-8 15-7 14-7 14-6 13-7-6 3 12-7 10-7 10-6 8-6 7-7-5 5 6-6 4-7 4-6-3 6 3-6 2-7 2-7-1 7 0-7 0-6 1 7-2-4 15 14-3-1 14 0-5 1 7-3-6 4 5-5-5 6-5 7-6 9 4-6-6 11-5 13-6 13-6 13-6 14-7 14-6 14-5 14-5 13-3 12-3 11 1-7-1 9 1 8-1-7 2 7-4-6 4 6-5-6 6 4-7-3 7 1-7-1 9 0-8 1 10-2 12-4 12-5 13-6 14-7-7 3 14-7 12-8 12-8 11-8 9-7 9-8-5 5 7-7 5-8 5-8-3 6 3-7 2-7 1-5 0 15-1-3 29 15-3 1 12-8-4 4-4 6-4 8-4 8 3-7-3 8-4 7-2 7-2 7 1-7 0 7 1 7-1-7 2 6-3-6 5 5-6-5 6 3-6-3 7 3-7-1 8 0 8 0-7 1 8-3 10-4-7 3 11-5 11-7 13-9 14-9 15-9 17-10 18-11 18-11 19-12 20-13 20-13 19-16 20-17 19-18 19-18-5 5 17-20 17-21 15-22 15-22 12-23 12-24-3 6 11-25 11-27 9-27 9-27 8-25 7-22 5-21 3-19 3-18-1 7 2-17 0-16-1-14 1 7-3-12-4-8 8 11-6-4 7 3-8-2 14 0-8 2-9 4 6-3-10 7-11 10-12 13 5-6-13 15-14 17-15 20-15 21-16 24-17 25-17 26-18 29-18 29-18 32-17 33 3-7-16 34-14 33-13 33-11 31-9 30-7 28-4 27 1-7-3 24 0 23 1 21 3 19-1-7 5 18 6 15-3-6 8 13 10 12-5-5 11 9 12 6-7-3 13 4-7-1 13 2 14-1-7 1 14-3 14-5 14-7-7 3 13-8 13-9 11-10 11-11-5 6 9-12 7-11-3 6 6-12 3-12-1 7 1-13-1-14-2-14 1 8-3-14-5-13-6-13 4 6-7-11-8-11-8-8 5 5-8-7-8-6-8-5 6 3-8-4-7-2 7 1-7-1-7 0 7-1-6 2 7-4-5 4 5-6-2 5 3-6-1 6 0-15 1 7-3-7 3 6-5-5 6 5 6 3-6-3 7 3 9 3 8 1-7-1 9 2 9 1 9 1 7 1 9 1 8 2 9 1-7-1 8 1 9 1 8 0 7 0 8 0 6 0 7 0 7 0 7-1 7 0 6-1 6-1-7 1 6-1 5-3-6 3 6-3 6-4 6-4 7-4 6-4 7-5 7-6 7-6 7-7 7-7-6 5 7-7 7-8 6-7 6-8 5-7 4-8-3 6 3-7 2-7 1-6-1 7 1-6-1-6 2 7-2-4 3 6-3-3 12 8-4-2 7 1-4 0 7-1-5 2 6-3-5 2-5 4 5-5-4 5-4 6-4 6-3 7 3-7-3 7-2 6-1 7 1-7 0 6 0 7 0 8 1 8-1-7 2 7 2 8 2 8 3 8 3 7 3 8 3 7 4 8 3 8 5 8 4 9 5 10 5 10 5 10 5 9 4 9 5 8 3 8 4 8 2 8 1 9 2 7 0 8-1 8-1 7-3 7-3 7-4 6-5 5-6 5-6 4-6 4-8 3-8 3-10 2-7 1-10 1-10 1-11 0-7-1-11-2-11-3-10-4-6-3-9-5-8-5-8-6-7-6-5-5-6-6-6-6-4-6-3-5-3-6-1-5-1-7 0-5 1-7 4-6 3-4 4-4 5-3 6-3 6-2 6-1 7-1-5 1 8-1 6-1 9 1 11 0 11 1 11 1 12 1 4 1 3 1 2 3"/>
<path d="M12942 1739l 7 0 7-1-7 1 7-1 7-3 8-2 9-3 9-4 9-3 8-4 8-3 6-3 7-3-7 3 7-4 8-5 7-5 7-4 5-5-5 6 3-5-3 6 1-6-1 7 1-6-1-6 1 8-2-6 4 6-3-5-4-4 5 5-4-4-6-4-5-3 6 3-7-3-7-2-7-2 7 1-8-1-8 1 7-1-8 1-8 2-8 3-8 3 6-4-8 6-9 7-8 8-8 7-8 7 5-5-8 9-8 10-7 10-6 9 4-6-4 8-3 10 1-7 0 10 1 9-1-7 3 9-4-6 5 7 7 8-5-5 9 6 9 6-6-4 10 5 11 2-7-1 12 2 13 0 13 0 15 0 15-2-7 1 16-4 17-4 17-5 19-6 20-5 21-7 22-9 22-9 23-10-6 3 22-12 21-13 20-16-4 4 18-18 16-18 14-18 13-18 13-18 2-3"/>
<path d="M13382 1411l-2-4-3-4 3 5-2-3 4 5-3-2 6 3-3-1 7 1-5 1 8-2-6 2 7-3-6 3-6 4-5 5 5-5-6 6-4 7-4 7 3-6-4 8-3 8-2 9-2 11-2 12 1-8-2 13-1 14-1 7-3 15-2 16-2 17-3 17-3 19-3 18-3 18-4 20-3 19-3 20-3 18-3 18-3 18-3 17-3 15-2 13 1-7-2 11-1 10 0 9 1 8-1-7 2 8-3-7 4 7-5-5 5 4-6-4 7 3-7-1 8 0-7 1 10-1 10-2 10-3 12-5 15-7 14-7-5 2 13-7 11-8 11-8 3-1 3-1 4 1"/>
<path d="M13219 1597l-5 3-7 3 10-7-3 3-10-30 6 2-6-2 10 2 13 1 13 0 15 0 15-1 15-2 16-2 14-2 14-1 13-1 15-1 16 0 17 0 18 0 18 0 19 1 18 2 19 2 18 3 17 2 4 1 16 2 3 2 3 2 2 4"/>
<path d="M13542 1680l-4 4-3 3-4 4 4-4-2 4 3-6 0 4-3-19 3 3-11-8 6 2 8 1-7-1 10 0 11-2 12-1-7 1 11-3 12-4 12-6-6 3 11-7 11-6 11-7 11-7 11-7 11-7 9-7 8-6 8-6 8-7 8-7 8-7-6 5 8-8 5-8 5-8 4-7-3 7 3-7 3-6 2-5 1-5 1-5-1 8-1-4 4 14-2-3 12 9-4-1 15 0-4 1-5 2 7-3-5 3-5 4-6 5 5-5-6 7-6 7-5 9-4 9 3-7-4 10-2 10-2 11 1-7-1 10 0 10 1 10 1 10-1-7 3 11 2 10 2 9 3 7 3 8 3 8 3 9 4 8 4 9 4 8 4 8 4 6 3 6 2 5 2 5 1 7 1 5-1 5-1 7-1 4-3 6-3 4-5 5-4 3-5 3-7 4-7 3-9 2-7 1-9 1-10 0-9-1-7-1-11-2-10-2-10-3-10-3-10-3-8-2 7 1-6 0-2 0-7-1-6-4-5-5-3-6-2-7 2-7 3-7 5-5 6-3 7-1 4 0 8 0 9 0 10-1 10-1 10 0 9 0 9 0 10 0 11 1 12 1 13 2 14 1 15 2 16 2 17 1 19 2 20 2"/>
<path d="M14491 1747l 6 4 7 4-7-3 8 3 8 3 8 2-7-1 8 1 9 0 9-1 9-1 10-2-7 1 11-2 11-3 10-4 11-6-6 4 10-7 11-8 11-7 11-8 10-8 10-9-5 5 9-10 7-8 6-7 6-7 4-6-4 6 2-7-1 7 1-7 1 7-2-6 4 7-3-5-5-5 5 5-5-4 6 4-7-4-8-2 7 1-9 0-9 0 7-1-11 3-10 4-11 4-12 6 7-3-13 8-14 9-14 10-15 10-15 10-15 9-14 10-14 10-13 10-13 10 6-5-11 12-10 12-8 12-7 13 3-7-5 12-3 12-2 11 1-8 0 10-1-7 2 8 3 7-3-6 4 6-5-5 6 6 9 6-7-4 11 5 14 4-7-1 17 2 21 1 22-2 21-3-7 1 21-4 20-7 19-8 18-9-6 3 19-10 19-11 19-11 19-11 19-11 19-11 17-10 17-9 15-11 15-10 12-11 11-10-5 5 9-10 7-11-4 6 6-11 3-11 2-10 2-9-1 7 0-8 1 7-1-5 8 11-3-2 14 4-5 0 7-1-6 3 6-3-6 4 6-5-6 6-5 8-5 8-6 7-5 8-4 9 3-6-4 10-4 10-4 9-4 9-4 9-4 9-3 10-2 9 1-7 0 7-1-7 2 6-8-12 5 3-14-4 8 0-8 1 9-3 9-4-6 3 10-6 11-8 11-8 11-9 10-10 11-10 9-9 10-8 9-9-5 5 7-8 7-9 5-7 5-6 5-5 5-3 6-3 7-1 5-1 7 1 6 4 5 4 5 5 3 6 4 8 3 9 2 9 1 8 1 8 1 9 1 9 0 10 0 9 1 10 0 9 0 9 0 8 1 9-1-7 1 8 2 7-3-6 3 7 4 6-5-4 5 4-5-2 7 3 7 1-5 0 10 1 10 0 12 0 3 1"/>
<path d="M15257 1675l-4-4-3-4-4-4-4-4 5 5-5-3 6 3-5-2-6-1-5-2-7-1 8 1-7 0-7 1 7-1-7 2-8 2-9 3-10 4-11 6 7-3-12 7-12 7-12 8-12 9-12 9-11 11-12 11-11 11 5-5-10 12-9 12-7 11 4-6-6 11-3 10-2 10 1-7 0 9-1-8 2 9 3 8-4-7 5 7-5-5 7 6 8 4-7-3 10 3-8-2 11 1 12-1-7 2 13-3 15-4 17-5 17-7 18-7 18-10-6 4 17-12 16-13 16-14-5 5 14-15 12-16 12-17 11-19 10-19 10-19-3 6 9-19 9-20 8-21 7-22 6-22 6-23 5-23 6-24 5-24 5-26 5-25 4-27-1 7 3-26 3-26 2-24 2-23 1-20 0-18-1-14-1-12-1-9 1 7-2-7-2-5 8 11-3-2 13 5-4 0 13-4-4 3-6 4 6-5-6 6-6 8-5 10 3-6-4 12-5 15-4 17-4 18-5 21-6 23-5 23-5 25-5 25-4 26-4 28 1-7-3 29-4 29-3 29-4 30-3 28-2 29-3 27-1 27-2 25 0 23 1 22 2 19-2-7 3 17 4 15 5 14-3-6 5 12 8 10-5-4 9 7 10 6-4-2 11 3-4-1 13 2 13 0 4 1 3 2 3 3"/>
<path d="M15543 1741l 6-3-6 5-6 5-6 5-6 5 5-5-5 7-6 8-6 9-5 8-5 9 3-6-3 9-4 9-4 9-2 9-2 7 1-7-2 9 0 8-1-6 2 8 2 7-3-5 4 6-5-4 5 5 6 3-4-3 8 2-5-1 11 0 11-1 3 1 3 1"/>
<path d="M15663 1446l-2 7-2 6-2 6-1 6-2 6-2 7-2 4-4 4"/>
<path d="M15731 1683l-2 5-3 5-3 6-4 7-3 7-3 7 3-6-3 7-2 8-3 8-2 7-3 7-3 6-3 6-3 6 3-6-2 5 1-7 0 3-23-23 4-1-13 5 7-4 7-6 8-7 10-7 10-8 11-8 12-8 12-9 12-9 12-9 12-9 12-9 11-7 11-6 6-4 11-5 9-4 8-4 6-3 6-2 7-1 7 1 6 3 6 3 6 5 4 6 3 7 2 8 2 7 1 9 0 10-1 11-1 7-2 11-2 10-3 9-2 8-2 8-2 8 1-7-2 7-1 7-1-6 1 8 3 8-2-5 5 8 6 7-3-3 8 6-3-2 9 4 3 1 2 2 2 3"/>
<path d="M16095 1688l 2-7 1-8 1-8-1 6-1-7 1 7-1-6-3-6 3 6-4-4 5 5-5-3-6-3 6 3-7-3-8-2 7 1-9-1-10 1 7-1-11 2-11 4-12 4-12 6 6-3-12 8-12 10-12 11-12 11-11 11 5-6-10 12-10 12-9 12-7 11-7 10-4 9 3-6-3 9 1-7-1 8 1 8-2-7 3 8-3-6 3 7 5 6 6 5-5-5 6 5-6-3 7 3 8 2-7-1 8 0 9-1-7 2 8-2 10-2 7-1 9-2 10-1 9-2-7 1 8-1 7-2 7-1 7-2 7-1 7 0 7 1 6 2 7 3 6 4 5 5 5 6 4 7 3 7 3 9 3 11 1 7 2 14 3 15 2 16 2 17 3 17 2 18 3 19 2 19 3 19 2 18 3 19 2 19 1 19 0 18 0 18-1 20-1 21-3 21-1 7-4 21-5 20-7 20-8 21-10 21-3 6-11 20-12 19-13 18-13 17-14 18-14 16-13 15-5 5-13 12-13 10-13 8-6 3-13 5-13 2-7 1-13 0-7-1-12-3-11-5-7-4-10-7-5-5-9-9-8-12-3-7-7-14-4-17-1-7-3-19-1-21 0-24 4-26 1-7 5-28 9-30 10-30 14-32 15-32 3-6 16-31 17-31 17-29 18-29 19-29 20-27 22-27 25-26 3-3 27-24 28-22 3-1 4-1"/>
<path d="M16959 1694l 1-7 2-8-1 6 1-7 1 6-1-2 37 6-1 4 3-6-3 7-4 9-4 9-4 7-5 9-5 10-6 10-6 9-5 10 3-7-4 10-4 10-3 9-3 8 1-7 0 8-2-8 2 7-4-7 4 6-5-6 6 4-6-4 7 2-7-1 9-1-7 1 11-2 12-3 13-6-6 3 13-7 13-8 13-8 12-8 12-8 10-8 9-7 7-7-5 5 6-6 3-7-3 7 2-7-1 7-1-5 4 14-3-4 5 5-4-3 6 4-5-2 7 2-5 0 14-4-6 3 5-5-5 5-4 7-5 8-3 8 3-7-4 8-2 8-2 8 1-7-1 9 1 9-2-7 3 9 3 8-3-7 6 7-5-5 8 5-7-3 9 4 10 3-7-1 10 1 11-1 13-1 13-1 14-2-7 1 15-2 14-4 14-4 13-5 13-6-7 4 12-6 9-7 8-6-5 5 7-7 4-8-3 7 3-9 2-9-1 7 1-9 0-9-2-9 1 7-2-10-4-9 3 6-6-8-6-9-7-8-7-8-7-8-6-6 5 5-6-6-6-6-4-5-4-4-4-3-4-5-3-4-3-5-1-6 0-4 1-6 2-5 5-5 3-4 10-6 3-1 4-1 3 1 4 1 2 3 2 3 0 4 0 4-3 10 1-5 0 7-1-6 2 4"/>
<path d="M17686 1209l-3 9 3-6-4 10-4 12-5 15-5 16-5 18-7 22-7 25-8 27-10 29-10 29-13 31-14 32-17 34-18 38-18 38-4 7-19 38-21 36-21 36-21 35-20 35-20 36-19 35-18 33-17 32 4-6-16 30-14 30-13 27-10 24-8 21-8 19-6 18-6 14-5 9-3 7-2 4"/>
<path d="M18226 1526l 18-9-3 4 3-6-3 6 1-6-1 7-1-6 2 7 2 7 3 9 2 10 1 3-1 4-1 2-2 3"/>
<path d="M18249 1786l-1 7 0 8 0 9 2 10 2 10 2 10 1 11 2 11-1-7 3 11 2 12 3 12 3 12 3 12 4 11 3 12 3 11 3 12 3 12 1 7 3 15 2 15 1 16 1 15 1 15-1 15-1 16-1 7-2 15-4 15-4 15-5 15-7 14-4 7-8 14-9 13-11 12-5 5-11 11-10 10-11 8-11 6-6 3-11 4-7 1-11 2-12 0-11-1-7-1-12-3-11-5-6-3-11-6-11-8-10-8-11-9-5-5-11-11-10-10-9-11-8-10-6-11-5-12-4-6-4-12-3-13-1-6-2-15 0-16 2-17 0-6 3-16 5-14 6-16 2-4 8-15 8-13 2-2"/>
<path d="M18597 1915l-1 6-1 8-2 8-3 7-4 8-3 6-6 8-7 7-7 8-7 9-9 11-9 8-2 3-3 1"/>
<path d="M19067 1711l-2 8-2 9-2 9-2 9-2 11-2 10-2 10-2 10 2-7-2 11-1 11-1 10 0 10 0 10 0 10 0 10 1 9-1-6 2 8 3 8-3-5 3 7 5 6-4-4 7 5 9 5-4-2 10 3 11 2 3 2 2 2"/>
<path d="M19164 1443l-3 5"/>
<path d="M2036 3183l 4 1 5 1 6 1-7-1 6 1 8 0 8 0 8-2-7 1 9-1 11-3 12-2 13-2 14-3 16-3 16-4 17-4 18-4 22-4 25-4 6-1 24-4-6 1 22-3 5-1 18-3 15-2 14-1"/>
<path d="M2101 3272l 1 7 1 10 0 11-1 13-1 15-3 17-1 7-3 18-4 20-5 19-5 19-5 20-5 21-6 21-7 23-6 23-6 25-6 26-7 26-6 27-7 27-8 26-9 25-9 26-10 24-9 23-8 22-7 20-7 19-5 18-5 15-4 12-3 10-2 8-1 6-2 4-3 2"/>
<path d="M2057 3531l 8-1 9-1 10-1-7 1 12-3 13-3 14-4 15-4 16-4 16-5 17-4 17-4 17-3 17-3 16-2 17-3 6-1 15-1 12-1 12 0 5 1 11 2 9 4 3 2 6 5 3 3"/>
<path d="M1906 3910l 6-2 8-1-7 1 7-2 8-2 10-1 7-2 10-1 10-1 11-2-7 1 10-2 10-3 10-4 11-3 12-2 11-2 13-2 12-2 14-2 6-1 14-1 14-1 15-1 14-1 15-1 16 0 16 1 16 1 4 1 3 1"/>
<path d="M2533 3877l-3 6-4 6-3 7 3-6-4 9-4 10-4 11-5 12-4 12-4 12-5 14-5 14-4 14-4 13-4 13-4 12-3 12-3 11-2 9-2 8 1-4-1 8-1 3"/>
<path d="M2531 3684l-5 3"/>
<path d="M2715 4089l-2 8-2 8-2 11-5 10-3 6-6 10-6 10 3-5-6 14-5 13-2 4-8 13-8 13"/>
<path d="M2981 3699l 1-7-1 6 1 13 1 7 0 6 0 3"/>
<path d="M2968 3952l 3 7 2 8 3 8 2 10 3 10 2 11 2 11 2 12 2 12 3 13 3 16 3 18 4 18 3 15 1 8 2 15 2 16 2 16 1 18 1 18 1 19 0 19 0 19 0 18-2 18-2 19-1 7-4 18-4 16-5 15-5 15-6 13-3 7-7 12-7 12-8 10-9 9-5 5-9 8-11 6-6 3-12 4-12 3-8 1-12 2-12 0-13-1-7-2-13-2-12-5-12-6-6-3-11-9-12-9-4-5-10-11-10-13-8-14-2-5-7-16-5-18-4-20-1-4-3-21-2-22 1-3"/>
<path d="M3642 3446l 7-3 8-4 10-3 12-2 13-3 14-4 15-3 16-4 16-4 4 0 4 0 3 2"/>
<path d="M3631 3574l 6-4 7-4 7-3 9-3 7-1 9-2-6 1 12-2 12-3 13-3 5-1 15-2"/>
<path d="M4104 3773l 7-5 8-5 9-7 10-7 11-9 11-11 13-11 13-13-5 5 13-14 14-14 14-15 13-15 12-15 12-14 10-14 10-12 9-12 8-10 7-8 6-8 4-5 6-5 3-4 6-3 8-1 2 0 7 1 6 3 5 5 4 7 1 4 1 7 0 7-2 9-1 7-2 12-3 13-3 14-4 15-5 16-5 17-7 16-6 17-7 17-7 17-8 18-8 18-8 18-9 20-9 19-4 6-8 18-8 15-7 14-7 11-5 10-5 9-4 8 3-7-2 5-1 3-35-26 2-1-5 5 3-4 6-7 6-10 8-12 9-13 9-16 11-16 10-17 11-17 11-17 11-17 11-17 10-17 9-15 10-16 9-14 9-14 9-14 8-12 8-12 7-11 7-10 6-9 6-8 5-5 5-5 4-4 7-3 7-1 3-1 7 2 6 3 6 5 1 3 4 6 1 7 0 6-1 9-1 7-2 10-3 12-3 12-4 12-3 13-4 13-3 14-4 14-4 15-4 14-3 13-3 12-3 12-3 11-2 10-1 9 1-7-1 8 0 8 1 6-1-7 2 6-3-6 3 5-6-5 4 3-6-3 4 1-7-1 5 0-7 1 5-1 7-3-7 3 8-5 8-6 10-8 10-9 11-10 11-12-5 5 13-13 13-15 14-16 15-17 14-17 13-17 11-16 10-15 9-15 7-14-4 7 6-14 4-13 4-12 2-11 3-9 1-9 1-6-1 7 0-5 5 14-1-2 25 8-2 1 11-9-3 4-4 6-5 7-5 9-5 10-6 11 3-7-5 12-6 12-5 13-6 13-5 13-5 13-4 13-4 12-3 12-3 12-2 12 1-7-2 11 0 10 0 8-1-8 1 7 2 4-3-6 3 4-5-5 4 3-7-4 5 2-7-1 6 0-7 1 6-1 7-2 8-4-6 3 9-5 10-7 11-9 12-11-5 5 12-13 13-15 12-16 11-15 10-15 10-14 9-15 8-14 7-13 6-12 6-11 5-9-4 6 4-8 3-6 1-4-1 7 0-1 42 13-2 3 3-7-2 7-3 9-3 11-3 11-3 12-3 11-3 13-2 13 1-7-2 14-1 13-2 14-1 13-1 11-1 10-1 9 0 8 0 7-1-8 1 6-3-7 2 4-11-9 4 1-14 0 5-1-6 3 6-4 7-6 8-8-5 5 8-9 9-11 10-13 10-13 10-14 11-14 11-15 10-14 10-14 10-13 9-13 8-11 7-11 6-9 6-9 5-6 3-4 5-6 2-1 7-3 7-1 7 1 6 3 6 5 3 7 1 7 0 2-1 7-1 5-2 8-3 9-4 11-3 12-4 12-5 12-5 13-4 12-5 12-5 13-5 12-5 12-4 11-5 11-4 9-3 8-2 5 0-14 0 2-35-11 3-2 6-6 9-8-6 5 10-11 11-12 13-13 12-13 13-15 13-14 12-14 11-14 11-13 10-11 9-10 7-8 7-7 5-5 6-5 4-3 7-3 7-2 4 0 7 1 7 3 3 3 5 5 3 6 2 5 2 5 1 7 0 7-1 7-1 7-1 8-2 8-2 9-2 10-3 9-2 10-2 9-3 8-2 8-1 8 1-8-1 7 0 6-1-7 1 4-3-6 2 3-11-8 4 1-7-1 5-1-8 1 6-3-6 4 7-5 7-7-5 5 7-8 8-9 9-10 8-11 8-11 8-10 8-11 7-10 7-10 5-8 6-8 4-7 5-6 3-5 5-5 4-3 6-3 7-1 3 0 7 1 6 3 5 5 2 4 3 6 2 6 1 7 0 8 1 9-1 9 0 9-1 9-1 10-1 9-1 10-1 10-1 7-2 11-1 10-2 9-1 10 1-7-1 9-1 8 0 7 1 7-1-7 1 5 2 5-3-7 3 4-12-9 4 2-7-1 5 0-7 2 6-2 7-3-7 4 8-4 8-6 8-6 10-7 10-8 10-9 11-9 12-11 13-11 13-12 13-12 14-12 13-12 14-13 14-13 14-14-5 5 14-15 15-17 14-18 14-18 13-19 13-18 12-19 12-19 11-21-4 6 11-21 9-22 9-23 7-22 7-22 5-22 4-21 3-22-1 8 2-21 1-20 1-18-1-17-1-16-1-13-1-12 1 7-3-10-3-8 3 7-3-6 5 5-5-3 13 5-6 0 14-4-7 4-8 7 5-5-9 11-9 13-10 15-10 17-10 19 3-7-10 21-10 24-10 27-10 30-11 34-11 36-11 38-9 36-7 33-4 31 1-7-2 28 0 26 1 26 3 24-1-8 5 23 5 21 7 20 7 16-3-6 7 13 8 10-6-5 8 7 7 4-6-3 8 2-7-1 8 0-8 1 8-2 8-3-6 3 7-5 7-7-5 6 6-8 6-8 6-10 6-10-4 6 5-10 4-11 3-12 3-11-2 7 2-12 0-11-1-11-2-11 1 7-2-11-3-9-2-9-3-7-3-6 3 6-3-5-4-4 6 5-4-3 6 4-4-2-4-2-6-3-5-5-3-6-1-7 1-7 3-6"/>
<path d="M5533 3535l 6 0 7 0 7-1 8 0 9-1 10-2-7 1 10-2 11-3 10-4 9-4 9-4-6 3 8-6 9-6 8-7 9-7 8-7-5 5 7-7 5-7 4-7-3 7 2-6-2 7 0-6 1 7-2-5 3 7-4-5 5 5-5-3 6 3-7-2-8-1 8 1-9 0-10 0 7-1-10 2-11 3-12 4-12 5-10 5 6-3-10 5-10 7-10 7-10 9-10 9-9 9 5-5-8 10-7 9-6 10 4-6-5 10-4 11-2 12 1-7-1 12 1 12-1-7 2 10 4 10-4-6 6 9 7 9-5-5 8 7 10 6-6-3 11 4 14 4 15 3-7-2 19 1 18-1-7 1 15-3 14-6-5 3 14-7 16-8 15-10 17-11 16-10 16-9 15-9 15-9 3-1"/>
<path d="M5801 3463l-3-5-3-5 0-4-1-6 1-6 2-6 5-4 4-2 5-3 7-1 7 0 7 1 7 2 7 3 6 3 6 4 6 5 5 6 4 6 3 7 2 5 1 7 0 6-1 7-1 6-1 6-3 7-3 8-3 9-4 8-3 7-5 9-6 9-6 10-7 9-6 10-8 10-7 11-7 11-7 11-6 11-5 10 3-6-5 10-4 10-3 12-3 12 2-7-2 11 0 10-1-7 3 9-4-6 5 7-5-4 6 6 7 5 9 4-5-2 10 3-6-1 12 2 14 1 16 1 20-1"/>
<path d="M6519 3522l 6-1-4 2-5 2 6-3-4 4-5 4-5 5 5-5-5 6-5 8-5 8-5 9-6 9 4-6-5 10-5 11-4 12-3 11-3 12 1-7-1 12 0 12 1 11-1-8 2 11 3 9 5 9-3-7 5 8 7 8-5-5 7 5 10 5-7-3 11 3 13 2-7-1 13 0 14-1-7 1 15-3 14-4 15-7-7 4 14-8 12-10 11-10-5 5 9-11 8-12 7-12 5-10-3 6 4-10 3-10-1 7 1-8 0-8 1 7-2-8-2-6 3 6-4-6-5-6 6 5-7-4-7-4 7 3-8-3-9-3-9-2-8-2 7 1-8 0-7 0-6 0 7-1-5 2-4 2 11-8-3 3 3-7-1 4 1-7 0 5-1-7 3 4-4-6 4 4-5-5 5 3-6-3 6 2-7-1 8 1 10-2-8 1 11-3 13-6-7 3 15-9 17-12 20-16 21-17 21-19 23-20 23-22 23-22 24-23 23-24 24-24-5 6 23-25 22-24 20-25 17-24 15-24 13-23-4 6 11-23 9-24 7-23 7-23 5-23 5-22 3-21-1 7 3-19 1-16 0-13-1-9 1 7-3-6 15 15-4-1 20-3-5 3 5-5-7 7-7 11-9 14-11 17-12 20-13 22-13 23-15 26-15 31 3-7-17 38-18 43-18 44-15 41-14 38-13 38-13 39-13 42-13 45-13 46-12 47-11 47-9 47-8 46-7 44 1-7-5 42-4 40-1 37 0 34 1 31 3 28 5 25-1-7 5 21 6 18 7 15-3-6 8 11 8 9-5-5 9 5-7-4 10 2-15 0 10-2 10-4-6 3 11-7 10-9-5 5 10-11 9-13 8-15-3 6 7-17 6-20 5-22-1 7 3-25 1-26 0-26-2-28-3-28-4-29 1 8-5-28-6-27-7-26-7-24-8-23-9-20 3 7-9-18-10-14-10-13-9-9 5 5-9-8-9-5 6 3-8-3-8-2 8 2-7-1-6 0-4 1 19-10-1 1-12-35 3 1-7-1 7 1 8 1 11 1 12 1 13 0 16 1 17 0 20-1 23-2 24-3 25-2 4 0 3 2 3 3 2 3 1 4-1 4-2 3"/>
<path d="M7679 3706l 4 1-6-3 5 0-7-1 7-1-7 1 8-3 10-5-6 3 11-7 14-10 15-10 18-13 19-14 20-15 22-16 21-17 22-18 21-19 21-20-5 5 19-21 18-20 14-19 10-18 8-15-3 6 5-13 3-13-2 8 2-12 0-11-2-10 1 7-2-9-3-9 3 7-4-8-5-5 12 9-6-2 7 1-6 1 14-5-6 4 5-5-6 6-4 9 3-6-4 11-3 11-3 12-2 12 1-7-1 12 0 12 0 12 2 13-1-7 3 13 3 14 4 14 5 14 5 14 5 12 4 13 5 12 3 12 4 11 2 11 3 10 1 7 1 9 1 10 0 10-2 10-1 8-2 9-3 8-3 6-4 7-5 7-5 5-6 5-6 5-8 4-6 4-8 3-8 2-9 2-7 1-8 1-8 1-7 0-6 0-6 0-4 0-3-1-7-1-7-3-1-1-5-5-3-6-1-8 1-7 3-6 5-5 2-1 6-4 4-1 7-3 7-3 9-4 10-4 11-5-6 3 11-6 12-7 12-8 13-9 14-9 15-10 16-10 16-11 16-11 17-12 17-11 17-12 18-11 17-11 17-10 16-11 16-11 15-12 14-12 13-12-5 5 10-11 7-11 4-8-3 6 3-8-2 8 1-7 1 7-1-5 3 6-3-4 5 5-5-2 6 3-6-1 7 1-6 0 7-1-7 1-8 3 6-3-7 4-8 5-7 7 5-6-7 8-7 8-7 11-6 11-6 11 4-6-6 10-4 11-4 11-4 11-3 13-2 12 1-7-1 12 1 10-2-7 2 9 4 7-8-11 5 5-7-3 7 3 8 1-7-1 9 0 11-2-7 1 11-3 12-5 13-6-7 3 12-6 12-7 10-8 10-8 9-8 8-8 8-7-5 5 6-7 5-5 5-5 4-4 7-3 2-1 7-1 7 1 6 3 6 5 3 7 1 3 1 7 0 6-1 7 0 8 0 8 1 7-1-7 2 6 2 7-3-7 3 5-5-5 4 4-6-3 5 3 6 1-7-1 7-1-7 1 8-2 8-3 10-5-7 4 10-6 12-7 12-8 14-10 15-12 17-13 18-14 20-15 22-17 23-17 22-17 22-18 21-19 20-19-5 5 17-21 16-21 14-22 12-23-3 7 11-24 10-23 8-24 7-24 5-24 4-24-1 8 2-23 2-21 0-19-1-18-3-15 1 7-3-13-5-11 4 6-5-8-5-6 5 5-5-3 6 3-5-1 14 0-6 1 6-3-6 3-6 5 5-5-7 7-7 10-9 11-8 14-10 16-11 19-12 21-12 24 3-7-13 27-13 28-12 29-13 30-12 30-11 30-9 29-7 28-6 27 1-7-3 27-2 26 1 25 2 23-1-7 4 22 6 21 8 18-4-6 10 17 10 14 12 13-5-6 13 10 13 7-6-3 13 5 13 3-7-1 13 1 12-1-7 1 11-3 10-5-7 4 9-7 8-7-5 5 6-9 6-10-3 7 5-11 3-10 3-11 2-12-1 7 1-11-1-12-1-12-1-12 1 7-3-12-3-11-4-10-3-10-4-7-2-5-1-7 0-2 1-7 3-6 5-6 7-3 7-1 7 1 3 1 6 1 7 2-7-1 9 0 9 0-7 1 9-2 10-4 10-4 10-4 11-4 12-5 11-5 11-6-6 3 11-6 11-6 10-7 9-6 9-7 9-6 7-7 7-6-5 5 5-6 3-4-4 7 1-2 35 26-2 1-5 5 5-5-5 6-6 8-5 8-4 8 4-7-4 9-2 9-2 9 1-8-1 10-1 9 0 10 0 9 1 10 1 10 1 9 1 10 2 10-2-7 2 9 3 10 2 10 3 10 4 10 3 10 3 11 4 10 3 10 3 10 3 10 3 9 2 8 2 8 1 7 1 6-1 7-2 6-3 6-5 5-4 4-7 3-6 2-7 1-8 1-8-2-7-1-10-2-11-4-11-4-11-4-11-5-12-5-11-6-10-4-9-5-6-3-8-4-7-4-6-5-5-5-4-5-3-6-3-6-1-7 0-6 1-8 2-6 3-6 5-7 5-5 6-5 9-5 6-3 10-5 12-4 14-5 15-4 15-4 17-3 16-4"/>
<path d="M9077 3471l-3-5 5 5-5-5 7 4-6-3 8 3-7-1 9 0 10 0 10-2-8 2 11-3 11-2 10-4 11-4 10-4-6 3 10-6 10-6 9-5 9-6 8-4 6-3 5-4-5 5 4-5-5 13 1-6 1 7-3-8 3 7-6-8 5 5-7-7-8-6-9-5 6 3-9-4-10-4-10-3-11-2 7 1-11 0-11 1-11 2 7-1-12 3-11 3-12 6 7-4-11 7-11 7-10 8-10 9 5-5-9 10-9 12-8 12-8 15 3-7-6 15-5 16-3 15 2-7-2 13 1 13-1-7 2 12 5 11-3-6 6 10 9 9-5-5 11 8 12 7-7-4 13 5 13 3-7-1 15 1 15 0 18-2-7 1 19-3 20-4 22-7 23-8 24-10 25-10 23-11-5 2 22-12 20-14 20-13 19-14 18-13 3-2 3 0 3 0"/>
<path d="M9455 3114l-5 5-4 4-4 5 5-5-4 5-3 7-4 7 3-6-3 8-3 9-2 10-2 10-2 12 2-7-2 11-1 13 0 14-1 15-1 17-1 17-2 17-2 17-2 17-1 7-2 17-3 17-3 17-4 18-5 19-6 19-6 19-5 18-5 18-4 17-4 16-2 16 1-7-1 13 0 13 0 10-1-7 2 9 3 7-3-6 5 5-5-5 6 4-13-5 8 1 9-1-7 1 10-2 10-4 13-5-7 3 14-6 14-8 14-9 13-10 14-11 13-12 13-11-4 3 12-12 11-11 10-11 2-2 3-2"/>
<path d="M9304 3376l-6 4-5 2-6 4 5-3-3 4 7-10 0 4-14-27 5 2-6-1 9-1 10-1-8 1 12-3 12-5 14-3 15-3 16-3 17-3 17-3 7-1 18-2 21-1 21 0 22 3 5 0 22 4 22 4-4-1 22 2 3 1 3 1"/>
<path d="M9568 3533l-3 5 2-5-2 6 1-6 0 5-8-17 4 2-6-3 5 1-6-2 6-1-7 1 8-3 8-4-7 3 10-5 10-7 11-7 11-8 11-8 10-9 10-10 9-10 10-9 10-10 9-9 8-8 9-9-5 6 8-9 7-9 7-9 6-10 6-9 5-8 4-8-3 7 3-8 2-9 2-8-1 8 0-7 4 14-2-3 19 9-5 0 8-1-6 3 7-3-6 4-5 5 5-5-4 6 3-6-4 7-3 9-3 9-2 8-2 9-2 9 1-7 0 9-1 9 1 9 1 9-1-7 1 7 2 8 2 7 2 7 3 8 3 8 4 9 4 9 3 9 3 8 3 9 2 9 2 8 1 7 1 8 1 8-1 7-1 8-1 7-1 7-3 7-4 6-3 7-5 6-5 6-5 5-6 4-7 4-8 3-9 3-10 3-10 3-10 2-7 1-10 1-10 0-7-1-9-1-8-3-7-3-7-3-7-2-7-1-6-2-6-4-4-2-5-6-4-6-2-4-1-7 1-6 1-7 3-7 3-6 5-5 5-5 7-4 6-3 7-3 8-3 8-3 11-2 7-1 12-2 14-1 15-1 18-1 20-1 21-1 24 0 25-1 27-1 27 0 29-2 4 1 3 2 3 2"/>
<path d="M10462 3523l 2 7-1-7 3 7-3-7 5 6-5-5 6 6 8 4-7-3 9 3 10 2-7-1 12 0 14-2 16-2-7 1 17-4 18-4 17-6 17-7 15-7-6 3 14-8 13-8 13-7 11-8 12-8 10-8 8-8-5 5 6-6 4-7-3 7 2-6 2-7-1 8 0-7 0-6 1 7-1-5 3 7-3-5 5 6-5-3 6 3-6-2-7-1 7 1-7-1-9 1 7-2-9 2-11 4-11 5-13 6 7-3-12 7-13 9-13 10-14 12-13 13 5-5-13 15-13 15-11 15-11 15-9 15-9 15 4-6-7 15-4 15-2 15 1-7-1 13 0 11-1-7 3 11 5 9-3-6 7 9-5-5 10 7 12 6-6-3 14 4 16 3-7-1 17 1 19-2-7 1 18-5 20-8 20-9 21-11-6 4 22-13 23-13 24-14 24-15 24-15 23-14 22-15 19-14 17-13 14-13 12-12-5 5 10-10 8-11 6-9 5-7-4 6 3-7-1 7 0-5 4 13-3-4 12 8-5-1 7 1-6 0 7-1-7 3 6-4-7 4-7 5-8 6-7 7 5-5-7 8-7 9-8 10-7 10-7 10-6 9-5 10 3-7-4 10-3 8-2 9 1-7 0 7-1-7 1 6-3-6 4 5-11-8 5 2-7-1 8 0-8 1 9-2 9-4 10-5-6 3 12-7 13-7 13-9 14-10 14-11 13-12 13-12 12-13 11-11 10-10 9-9 8-7 7-6 6-5 5-4 6-3 3-2 7-1 7 1 6 4 6 5 3 6 1 7 0 3-1 7-2 6-2 8-3 10-3 10-3 11-3 11-3 12-2 11-2 10-2 10-2 9-1 10-2 8 2-7-1 8 0 7 0 7-1-7 2 6-3-7 3 5-5-5 5 4-6-3 8 3-7-1 9 0-7 1 11-1 13-4 15-5 16-6 18-7 18-7 20-8 20-7 20-8 4 0"/>
<path d="M11315 3432l 3-5 2-6-3 5 1-5-1 6 0-5-1-6 1 7-2-5 3 6-4-4 5 5-5-3 7 3-7-2 7 2-8 0-10 1 7-1-10 3-11 3-11 5-12 5-14 6-15 6-15 8 6-4-16 9-15 10-15 12-14 13 5-6-13 14-12 15-10 14-8 14-7 13 3-6-5 12-4 12 2-7-2 11 1 11-1-7 2 9 4 8-4-6 6 6-5-5 8 5-7-4 9 3-7-1 11 0 13-2-7 1 15-4 17-6 19-9-6 4 20-11 20-14 22-16 21-17 21-19 21-19 20-20-5 5 20-21 18-21 18-21 17-21 15-21 14-23 13-24-3 6 12-25 11-25 10-26 10-27 8-28 8-29 7-28 7-27 6-26 6-26 3-25-1 7 3-24 2-22 0-19 0-16-2-13 1 7-2-11-3-8 4 7-4-5 11 9-4-2 14 0-5 1 6-3-6 4-7 7 5-5-7 9-9 12-8 14-8 15-8 17 4-7-9 18-8 19-8 21-8 22-8 24-8 25-8 27-8 28-8 31-7 33-8 33-6 32-6 32-6 33-6 32-5 31 1-7-3 30-3 29 0 28 1 25 4 22-2-7 5 20 6 17-3-6 8 15 9 13-4-4 10 10 12 8-6-3 13 4-6-1 13 1 15-2-5 1 16-4 18-6 18-7 19-9 3-1 3 1"/>
<path d="M11642 3454l-5 5-6 7 5-5-6 8-5 8-6 9-5 9 3-6-4 10-4 10-3 11-3 12-3 13-3 14-2 15 1-7-2 16-1 16-1 17 0 17 2 15-1-7 3 13 3 12 4 12 5 10-3-6 6 9-5-5 7 6-5-3 8 3-5-1 9 0-5 0 10-3 11-5-4 2 12-9 13-11 4-1 3-1"/>
<path d="M11710 3237l-5 3-5 2-5 3 6-3-5 4 5-5-4 6-4 5-4 5-4 6 3-6-3 8-2 9 1-6 0 10 1 9-1-5 3 9 4 10 4 10 4 10 1 3-1 3"/>
<path d="M11805 3510l-3 8-3 9-3 10-3 9-4 9-4 9-3 6-4 9-4 9 4-6-4 8-4 9-3 7-3 8-2 7 1-7 0 5-10-18 3 3-13-5 5 0-13 4 6-3 8-6 8-8 9-9 10-10-5 5 10-11 11-12 10-12 10-11 10-12 11-11 5-5 10-11-5 5 10-10 5-5 9-9 9-8 9-7 9-6 7-5 6-3 7-3 7-1 6-1 7 1 6 4 5 3 5 6 3 6 3 7 2 8 1 7 0 9 0 9-2 7-1 10-3 11-2 12-3 10-3 11-2 10-2 10 1-6-2 11 0 11-1-7 1 10 3 10 4 9-3-5 5 8 6 7-3-3 7 5-4-2 8 3 9 3 3 1 3 3 2 4"/>
<path d="M12136 3482l-1-7 0 6-2-7-2-6-4-6 2 5-5-5 5 4-6-5-8-4 6 3-8-4-9-2 7 2-10-1-13 1-15 2 7-1-16 4-17 6-16 8 6-3-16 9-15 11-14 12-14 14 5-6-13 15-12 14-11 14-8 13 3-6-4 13 1-7-2 12 1 11-1-7 4 11-3-6 6 9 7 9-5-5 9 7 10 5-6-3 11 3-7-2 12 1 12-1 11-1 9-1 9-2-7 1 9-2 9-2 9-1 8-1 8-1 9 0 7 1 8 1 7 3 7 3 6 4 5 5 5 5 4 6 3 7 2 8 1 7 1 9 0 10-1 12-1 14-2 14-1 15-2 16-2 17-2 17-1 18-2 19-2 19-2 20-2 21-3 21-3 22-1 8-4 23-5 24-6 24-8 26-9 24-9 23-10 23-11 24-4 6-13 26-15 28-17 29-20 28-21 27-22 25-23 23-5 6-22 21-21 20-21 18-22 16-23 13-6 3-21 10-16 5-8 1-12 0-7-1-7-3-9-6-5-5-6-10-3-6-3-14-1-7-1-18 2-21 1-7 4-26 7-30 8-32 11-37 14-39 18-41 3-6 22-42 25-42 28-42 29-39 29-38 28-34 25-30 22-24 21-22 3-2 21-21 23-20"/>
<path d="M12962 3505l-4 6 5-5-5 7-4 8-5 8-4 9 3-7-4 9-4 10-3 11-3 12-3 11-2 10 1-7-1 10 0 9 1 9 1 7-1-7 2 7-3-7 3 5-5-5 5 5 6 3-6-3 7 2-7-1 7 1-7 1 9-2 8-5-6 4 10-7 11-7 11-8 13-9 12-10 11-10 10-10 9-10-5 5 8-9 7-9 4-9-3 6 3-9-1 7 0-8 0-8 1 7-2-7-2-6 3 6-3-4-3-4 5 5-4-2 7 3-5-2-4-1 14 0-4 1 12-8-3 4 3-6-2 7-2 8 2-7-2 9 0 8 2 9-1-8 2 8 2 8 3 8 4 7-3-6 4 7 5 7-5-6 6 6 7 5 8 4-7-3 9 3 11 2-7-1 11 1 12-2-7 1 12-3 13-3 14-5 14-6-7 3 14-7 14-9 12-8 10-10-5 5 9-10 7-11 6-11-3 6 4-11 1-10-1 7 0-10 1 7-2-10-3-9-4-9 3 7-4-8-5-6 5 4-5-5-5-4-5-4 6 3-5-3-5-3-4-4-3-5"/>
<path d="M13711 2937l-5 4 5-4-5 7-5 9-5 11-6 13 3-6-6 14-7 17-7 20-8 22-9 23-11 24-13 27-3 6-16 31-18 35-19 37-23 38-25 38-27 40-28 42-29 44-28 45-28 45-27 44-25 45-23 43-23 40-22 37-20 35-20 33-17 32-15 28-13 25 3-6-11 21-3 5-9 17-7 13 3-5-5 11-2 4-4 7-3 3"/>
<path d="M13986 3609l 8-4-6 3 10-6 12-7 14-9 17-10 18-11 19-11 19-12 20-12 18-12 17-13 15-12 14-12-6 5 11-12 10-11 6-11 5-9-3 6 3-8 2-8-1 7 0-7-1-7 1 8-2-6 3 7-4-5 5 5-5-3 7 3-6-1 8 1-6 1 7-1-6 3 6-3-6 4-7 6 5-5-7 8-7 9-6 11 3-7-6 14-6 15-4 17-4 17-3 19 1-7-2 20-2 21-1 21-2 22-1 21-2 22-2 22-3 24-4 24-1 8-4 25-6 27-7 28-8 29-10 28-10 28-11 29-12 30-12 30-11 29-11 26-9 21-9 21-10 20-9 21-9 21-10 20-3 6-9 18-9 18-10 16-10 12-5 5-9 7-6 4-7 3-7 1-8-1-5-2-7-3-5-5-4-5-4-7-4-8-3-12-1-8-1-14 2-18 1-7 4-20 6-22 7-24 9-25 9-28 11-30 12-34 14-35 16-37 17-38 3-5 19-37 21-34 22-31 23-28 25-24 3-4 25-22 25-21 25-20 3-2"/>
<path d="M14384 3476l 4 4"/>
<path d="M14283 3152l 2 18-1 4-1 3-3 2-3 1-3 1"/>
<path d="M14373 3558l 1 7 0 9-1 7-1 10-3 12-3 11-3 11-4 11-5 12-6 13-6 12-3 6-7 13-8 13-9 14-9 13-10 14-12 14-13 13-2 3"/>
<path d="M14588 3440l-3 7-4 7-4 8 4-7-4 9-4 9-4 10-3 10-4 10-3 11-3 10-2 11-2 9-2 8 2-7-2 9-1 10 0 10 0 9 0 9-1-7 2 7-3-5 4 6-4-4 6 4-5-2 8 2-5-1 10 0 11-1 3 1"/>
<path d="M14633 3178l-4 4-4 2-5 1"/>
<path d="M15309 3407l 3-5 2-6-3 5 0-2 36 19-2 3-4 8-5 10-6 11-7 12-7 12-7 13-7 13 4-7-6 13-5 13-4 12-3 11-3 9-2 7 2-7 0 7-1-7 2 5-8-12 5 3-14-5 7 0-7 1 9-3 10-5-6 3 11-7 13-9 14-11 14-11 15-12 16-12 15-13 14-13 13-12 11-11 10-8 8-8 7-7-5 5 5-6-3 7 1-4 22 30-2 0 13-5-4 4 5-5-4 5-4 6-3 7 3-7-3 8-2 8 2-7-1 8 0 8-1-7 1 9 3 8-3-7 4 7 5 6-6-5 7 4-6-3 8 3 11 1-7-1 11 1 12-2-7 1 11-2 11-4 12-4 11-5-6 3 12-7 11-8 11-9 10-9-5 6 9-9 7-10 6-9 6-9 5-9-3 6 4-10 2-9-1 7 1-9 0-9-1-9 1 7-2-9-3-8-3-8 3 6-4-8-5-7-4-8-5-6-5-5-5-5-4-5-5-5 5 5-5-4-5-5-3-6 0-4-2-7 2-7 3-6 5-5 6-4 6-2 11-4 13-3 4-1 4 1 3 2 3 2 2 4 0 4 0 4"/>
<path d="M15988 2834l-2 8-1 8-2 11 1-7-1 12-1 14-1 15-1 18-2 20-3 22-3 25-1 7-4 27-6 28-7 30-9 31-11 33-13 36-14 36-15 38-17 37-4 6-18 37-20 34-19 33-18 30-17 29-15 27-13 24-11 21 4-6-9 17-6 15-3 10 1-8 1 5-30-22 4-1-6 3 8-8-5 5 11-12 13-16 14-18 16-20 17-20 18-19 5-5 18-19-5 5 17-18 17-18 15-18 14-17 13-17 12-14 10-13 10-12 8-10 7-9 6-7 5-5 5-5 6-3 4-1 7-1 7 1 7 3 5 5 2 4 3 7 2 7 0 9 0 11-2 11-1 7-2 11-3 10-2 10-3 10-3 12-3 12-3 12-3 11-3 12-3 10-3 10-2 8-2 8 2-7-1 7 0 7-1-7 2 6-3-6 4 5-6-5 6 4-6-3 7 1-7-1 8 0-7 1 9-3 11-4 12-6-6 3 13-7 13-8 14-10 15-11 15-11 14-11 13-10 13-10 11-8 9-7 8-7 6-7-5 5 5-6 5-6 3-7-3 6 3-6 1-5 4-7 1-1 5-5 6-4 7-1 8 1 6 4 5 5 3 6 1 3 2 6 3 7-4-6 4 6 5 6-5-5 5 5 6 4 6 4-6-4 7 3 8 3 9 1-7-1 10 0 11-1-7 1 11-2 10-3 10-3 10-5-7 4 10-5 9-6 9-4 8-5 6-5 6-6-5 5 5-7 4-6-3 6 2-6-1 7 1-7-1-6 1 7-2-6 3 6-3-5 5 6-4-4 6 3-5-2-6-2 7 1-7 0-8 0 7-1-8 2-8 2-9 3-10 3-11 4-10 5 6-3-11 6-11 7-11 7-12 8-11 9-12 9-10 10-10 10-9 9 5-5-8 9-7 10 3-6-5 10-2 11 1-7-1 10 1 9-1-7 3 8-3-6 6 8-5-5 9 8 10 8 12 8-6-4 14 7 15 6 16 3-6-1 16 3 17 0 17-1-6 1 16-3 16-3 16-5 17-5"/>
<path d="M16522 3227l 7 2 7 2 6 2 7 2 6 2 7 2 6 2 7 3 6 3 6 4 5 5 4 5 4 7 3 6 2 6 1 7 1 7 1 7-1 7-1 7-2 6-4 7-3 7-4 7-5 9-6 9-7 8-8 9-9 9-9 10-5 5-9 9-9 9-9 7-9 7-8 6-6 6 5-5-4 6-4 6 3-7-2 6 1-7 0 7-1-7 3 6-3-7 5 6-5-5 6 4-6-3 7 3 9 3 9 1-7-1 10 1 11 0 11-2-7 1 11-2 11-2 10-4 10-3 9-3 9-4 8-3 8-3 7-4-6 3 6-3 7-4 6-3 6-4 6-3 6-2 6-3 6-1 7-1 6-1 7 0 6 0 7 0 7 0 7 0 8 0 7 0 7-1 7-1-7 1 8-1 7-2 7-2 7-1 7-1-7 1 8-1 7-3 8-2 8-3 9-3 8-3 9-3 8-4-7 3 7-4 6-3 6-3 5-3 5-4 4-4-5 5 3-5-3 6 2-6-1 7 0-6 2 7-2-6 3 6-4-5-5-6 5 5-6-5-7-4 6 3-8-1 8 1-9-1-10 0-10 0-10 0-9 1 7-1-10 3-9 2-9 3-9 4-9 5 7-3-9 6-9 7-8 7 5-5-7 9-8 9-7 10-5 11 3-7-4 12-2 11 1-7-1 11-1 10-1 10 1 10 1 8-1-7 3 8 3 7-3-6 5 7 6 7-5-5 8 7 9 7 10 6-7-3 12 5 13 4 15 4-7-1 17 2 19 2 19 0 20 0 20 0 20-1 20-1 4 0 4 2"/>
<path d="M17883 3105l-4 3"/>
<path d="M17817 3445l 3 6 4 8 4 9 2 11 3 11 1 7 2 13 1 12 1 14 1 16 0 17 0 20 0 19 0 19 0 20 0 21-1 21 0 20-2 19-1 19-2 21-3 23-1 7-3 24-5 24-5 25-7 24-7 26-9 25-10 25-11 24-3 6-12 24-13 24-11 24 3-7-11 24-4 6-10 22-11 21-12 21-11 19-11 18-10 15-9 13-8 11-7 9-6 7-5 5-7 5-6 4-7 2-7 1-7-1-6-1-7-4-6-4-5-5-7-6-7-9-6-12-3-6-6-14-5-16-4-19-4-20-1-7-2-21-1-22 1-24 3-26 4-28 1-6 6-29 8-31 9-31 10-31 12-31 13-29 14-28 2-4 14-26"/>
<path d="M18496 3423l-4-7-4-8 3 5-6-6 4 4-7-6-8-5-9-4 6 3-10-3-11-2 8 1-12 1-13 2 7-1-14 4-15 5-16 7-16 8 7-4-17 10-15 12-16 13-14 15 5-5-13 16-12 16-11 17-10 16-7 15 3-6-5 13-4 13-2 12 2-7-1 12 1 10-1-7 3 8-3-6 5 6-6-5 7 4-7-4 8 3 9 2-7-1 10 0 11-2-7 1 12-3 12-3 13-4 13-5 12-5-6 3 11-6 10-7 9-6 8-6 6-6-5 5 4-5 4-4-4 6 1-1 35 26-3 3 5-5-5 6-6 10 4-7-6 11-4 13-4 15-3 15-3 16-3 18-3 18 1-7-2 20-3 20-2 20-1 20-2 21-2 22-2 21-2 22-3 21-3 22-3 22-2 21-3 21-1 7-4 21-4 20-6 20-5 19-7 18-6 16-7 14-3 7-7 13-8 12-7 11-7 9-6 5-7 7-8 5-6 3-8 3-7 1-8 0-7-1-9-3-6-3-8-6-5-5-8-8-7-10-5-12-3-6-4-13-1-6-2-15 0-16 2-19 1-6 5-21 8-24 10-26 13-30 15-31 15-32 2-3 2-2 3-2 3 0 3 0"/>
<path d="M18678 3487l-5 3-7 3-7 4-7 4-8 4 6-3-7 4-7 6-7 7 5-5-6 8-6 9-5 9-6 10 3-6-4 10-4 10-4 10-2 10-2 11 1-7-1 10 1 9-2-7 2 9 3 8-3-6 5 6 5 6-5-5 7 4-7-3 8 2-8-1 8 1 9-1-7 1 11-3 11-3 11-4 11-5-6 3 10-6 11-6 9-7 10-7 8-8-5 5 8-9 6-9 6-8 5-8-4 6 3-9-1 7 2-10 0-11-2-10 2 7-3-9-4-8-5-9-5-11 3 7-6-10-5-9-6-7 5 5-6-6-5-4-5-4 6 3-5-3-6-2-5-1 6 1-5 1-5-1"/>
<path d="M18871 3496l 9-1 9 0 9-1 9-2-7 2 8-2 8-3 8-3 8-4 7-4-6 4 6-5 6-4 6-5-5 5 4-6 5-6 3-6 3-5-3 6 2-5 0-4-1 7 0-5 1 8-1-5-1-4 3 7-3-4-3-5 5 6-5-4 7 3-6-3-6-2-6 0 7 1-7-1-7 1-7 1 7-1-8 2-8 2-10 4-10 4 6-3-10 6-11 7-11 8-11 9-11 11 5-5-10 11-10 12-8 12-7 13 4-7-6 13-4 11-2 11 1-7 0 10 2 10-2-7 4 9-4-6 6 8 7 8-5-5 10 7 11 7-6-3 12 5 15 3-7-1 15 1 15-1 16-2-7 1 16-3 16-5 17-6 16-6 17-7 17-6 17-7 16-8 15-7 15-7-7 3 14-8 13-9 12-9 12-9 11-10 10-9-5 5 8-9 7-8 5-8 5-8 5-8 4-7 4-8 3-6-3 6 2-5 2-5-1 7 0-4 1 7-1-3 8 12-2-2 6 3-3-1 7 1-4-1-4 1 7-2-4 1-4 1-4 2-4 1-4 2-5 2-3 1 6-3-4 2-4 3-3 2-4 2-2 3 8-11-2 3 2-7 0 4-2-7 1 4 2 5 2 5 2 6 3 6 3 6 3 7-3-7 3 7 5 6 4 7 5 6 4 7 5 6 5 7 6 6 6 6 6 6-5-5 6 6 7 6 7 6 7 6 5 6 6 5 5 6 4 6 4 6 3 6 4 6 3 5 2 5 1 5 1 7 0 5-1 7-1 5-3 7-2 5-5 5-5 5-7 5-6 3-9 5-9 4-11 2-10 2-7 1-11 2-13 1-13 1-13 1-14-1-14-1-7-1-13-2-12-2 7 1-11-1-11-1-10-1-9-1-8 0-7-1-4 0-7-1-7-4-5-5 0 0-3-7-1-7 1-7 3-6 5-5 6-4 7-1 5-1 7 0 10 0 11 0 13 1 14 0 16 2 17 2 18 2 19 2 19 2 20 1 20 1 21 0 24 2 24 1"/>
<path d="M4253 5092l 6-1 7-2-6 1 8-2 9-4 10-6-7 4 10-7 12-7 12-10 14-10 15-13 15-14 17-15 16-16 17-17-5 5 17-18 17-19 15-20 14-20 12-19 9-19-3 7 8-19 6-18 5-19-1 7 2-18-1-15 1 7-3-13-5-10 4 6-6-9-7-7 5 5-6-6-6-4 6 3-6-3-7-3-7-2-7-1 7 1-7 0 7-1-7 1 7-3-5 3 9-12-3 6 1-7 0 7-1-7 3 7-3-6 5 6-5-5 7 5 9 5-7-4 9 5 10 3 11 2 11 2-7-2 10 1 10 1 10 1 11 0 12 1 11 1 12 1 11 0 11 1 9 0 9 1 7 1 7 1 6 2 5 1 7 4 4 2 3 3 5 5 3 5 3 6 1 5 1 7 0 6-1 6-1 7-1 7-2 7-3 8-4 7-4 8-6 9-5 10-6 11-7 12-6 12-6 11-6 12-6 10 4-6-6 11-4 11-5 10-4 9-3 8-2 8 1-6-1 7 0 6-1-6 2 5-3-5 3 5-3-4 5 4-4-2 7 3 7 3 3 1"/>
<path d="M4840 4794l-4 4 5-5-4 6-3 6-4 8 3-7-4 9-3 10-3 9-2 11 1-7-1 11-2 12-1 13 0 12-1 12-1 13 1 12 0 11-1-7 2 10 2 9 2 9 3 8-2-5 3 6 4 5-3-3 5 4-3-2 6 2 8 2 3 1 2 2"/>
<path d="M4896 4537l-3 6-3 8-3 9-2 10-2 4-2 2"/>
<path d="M5092 4757l-6-1-6-1-7 0-7-1 6 1-7 0-8 0-8 1-8 1-8 1 7-1-8 2-7 3-8 3-8 3 7-3-8 4-8 5-7 5-7 6-6 6-6 6 5-5-6 7-6 9-6 9-5 10 4-7-4 10-3 10 1-7-1 9 0 10 2 9-2-7 3 9 4 8-3-7 5 7-5-5 6 5 7 4-6-3 7 3 9 2-7-1 9 0 9 0 9-2-7 2 10-3 10-3 11-5 10-5-6 3 10-6 9-6 10-7 9-7 9-7 8-7 7-7 7-7 7-6-5 5 6-7 4-6 4-4 5-5 1-2 7-3 7-1 7 1 7 3 5 5 3 7 1 7 0 2-1 7-2 6-1 6-2 8-2 8-1 9-2 9 1-7-1 10-1 11 0 11 0 13 0 13 0 14 0 14 1 15 1 17 1 17 2 18 0 19 1 21 0 21 0 23-1 24-2 24-3 27-1 7-4 28-7 31-8 32-8 30-9 29-9 27-10 25-9 25-10 22-4 7-10 20-9 18-9 15-8 12-8 9-5 5-8 5-6 4-8 2-7 1-7-1-8-1-7-4-8-4-5-5-7-8-6-11-3-6-6-14-4-15-1-7-3-18-1-20-1-22 1-25 2-29 4-34 1-7 6-36 7-39 9-41 11-43 12-46 14-48 17-51 21-56 26-59 28-56 2-4"/>
<path d="M5280 4493l 7-12 8-14 8-14 8-13 7-11 7-8 4-5 7-7 6-5 6-3 5-2 7-1 7 1 6 3 7 3 5 5 6 7 3 6 4 9 2 11 2 7 1 13 0 15-1 19-1 21-3 22-3 24-1 7-4 26-5 26-6 27-7 28-7 29-7 29-8 31-8 31-9 31-9 30-9 28-8 25-8 23-7 20-6 17-5 14-4 12-2 8 1-7 1 4-30-22 4-1-7 3 6-5-5 5 8-10 9-13 11-17 12-21 13-23 13-22 12-21 12-21 13-22 13-21 11-17 11-14 9-12 8-9 7-8 5-5 7-7 6-4 6-3 7-1 7-1 7 1 6 3 7 3 5 5 5 7 3 6 4 10 2 10 1 7 1 10 0 9-1 10-1 9-1 11-1 11-1 11-1 11 0 10 0 9 0 10 1 10-1-8 2 10 2 8 4 7-4-6 4 6 5 5-5-5 5 5-6-4 6 4 7 2-6-1 8-1-6 1 9-2 10-3 11-5 12-6 13-7-4 2 14-8 3-2 4 0"/>
<path d="M5776 4419l-5 7-6 8-4 8-4 8 3-6-2 8-3 10-3 12-4 14-3 16-4 20-5 22-5 23-4 23 2-7-3 24-3 22-4 24-3 24-3 24-3 22-3 18-1 18-1 18-1 18 0 18 2 18 3 16-1-7 3 15 4 14 4 12 6 11-4-7 7 9-5-5 7 7 7 5-7-4 8 4 9 2-7-2 10 1-6 1 11-2 11-3-5 2 12-5 11-8 12-8 12-9 12-11-3 2 11-12 11-14 3-2 3-2"/>
<path d="M5647 4665l 7-1 12-2 16-2 17-3-7 1 18-4 20-4 20-5 7-1 21-3 22-4 24-4-5 1 26-5 27-6 28-6 28-5 3-1"/>
<path d="M18269 5954l 6 3"/>
<path d="M15980 5962l"/>
<path d="M16044 6343l-1 7"/>
<path d="M16068 6521l 1 5 1 5-1-7 2 5 2 6 3 7 3 6 3 7-3-7 4 7 4 7 4 7 5 8 5 9 5 9 6 9 5 11 4 6 5 12 6 11 6 13 5 12 5 12 5 13 5 13 4 13 5 12 3 13 3 13 3 13 3 14 1 7 2 15 1 15 1 15 1 14 0 15 0 14 0 14-1 15-2 14-1 7-2 13-3 13-3 12-3 11-4 10-3 11-4 9-3 6-4 8-5 6-5 5-4 4-6 4-6 3-6 2-8 1-6 1-7-1-7-2-8-3-6-3-8-4-8-6-8-7-5-5-9-9-9-10-9-12-9-12-8-14-7-14-3-6-7-14-6-14-5-14-4-14-3-13-3-12-3-11-1-9-2-9-1-7-1-4 0-4"/>
<path d="M13109 6738l 0 8 0 10 0 10 0 11-1 12-1 15-1 15-1 17 0 18-1 18-1 19-1 19-1 19-1 20-1 20-1 20-1 19-1 18-1 17-2 16-2 14-1 5-1 13-2 11-3 10-1 8-2 6-2 3"/>
<path d="M13072 6590l 7-1 7-2 9-1 10-1 10-1 12-1 12 0 12-1 13 0 12 0 11 0 10 1 8 1 9 2 9 2 8 2 7 3 6 3 6 4 5 4 5 5 3 5 4 7 1 5 2 7 0 6 0 7-1 7-2 8-4 8-3 7-5 9-5 8-7 9-7 8-5 5-9 9-9 8-11 7-10 6-7 3-11 6-11 5-12 5-11 5-11 4-10 3-10 3-9 3-8 3-8 2-7 2-7 1-4 1-5 1-4-1"/>
<path d="M13423 6415l 7 0 7 0 9 0 7 1 10 2 10 1-7-1 11 2 11 1 10 0 11 1 12 1 11 0 11 1 10 1 10 0 9 1 8 0 6 1 8 1 5 1 6 3 6 5 2 3 3 6 1 8-1 7-1 4-3 7-5 6-5 5-7 6-9 6-10 7-12 6-6 3-13 7-13 6-14 7 7-3-14 7-14 8-12 7-12 8-11 7-10 8-8 7-7 6 5-5-6 5-3 6 3-6-2 5 1-7 1 4-4-13 3 4-5-5 5 3-6-4 7 3 9 1-7-1 11 1 13 0 14 0 15 0 14 0 15 0 14 0 13 0 13 0 12 0 12 1 11 0 11 1 7 1 11 2 9 2 9 3 6 4 7 3 5 4 5 5 4 5 3 6 3 6 2 6 1 7 0 8 0 9-1 7-2 9-4 9-4 6-5 10-7 11-7 12-8 11-8 12-10 12-11 12-5 5-12 12-13 11-14 10-14 10-14 9-15 9-14 8-15 7-6 3-14 6-13 5-13 3-12 2-4 1-11 1-10 0-10 0-4-1"/>
<path d="M13907 7094l 0 7 0 8-1 7-1 8 1-7-1 9 0 10 0 11-1 12 0 12 0 13 1 13 0 13 2 15 1 14 2 15 1 15 1 14 1 15 1 14 1 14-1 12-1 12 0 10 0 9 0 7-1 6-1 5-3 5"/>
<path d="M13925 7007l 6 3 6 3 7 4-7-4 7 4 8 3 7 3 8 4 8 4 7 3 7 3 7 4 6 3 6 3 6 3 5 3 5 3 5 5 3 5 3 6 3 5 1 4 1 7 0 5-1 7-1 5-2 5-4 6-2 6-4 5-5 6-5 6-6 5-6 7-8 7-8 8-8 8-9 7-9 8-9 8-9 8-9 7-9 7-10 7-9 6-9 5-9 4-5 3-7 3-7 2-5 0-5 1-5 0"/>
<path d="M14154 6944l 6-1 7-2 7-1 8-1 9 0 9 0 8 0 9 1 8 1 7 1 8 1 8 1-8-1 8 1 7 1 7 2 7 1 7 3 6 3 7 3 5 3 4 3 5 5 4 5 3 6 2 6 1 5 1 7 0 5-1 7-2 5-3 6-3 7-4 8-6 8-6 10-7 10-8 9-9 10-5 5-9 9-9 9-9 8-9 8-8 8-8 7-8 7 5-5-7 7-5 7-5 6-3 6 3-7-2 5 1-7 0 4-5-13 3 3-5-5 5 3-6-3 6 2 7 1-7-1 8 1 8 0 9-1 9-1 9-1-7 1 8-2 9-3 10-2 11-2 11-2 12-2 12-2 12-3 12-2 13-1 5-1 12-1 11-1 10-1 9-1 4 1"/>
<path d="M1769 6160l 0 8 0 10 0 11 0 13-1 14-1 15-1 17-2 17-2 19-2 19-3 19-1 7-3 20-3 21-4 21-3 22-5 22-4 21-5 22-5 22-5 22-5 21-6 21-6 20-5 19-6 18-8 16-7 16-7 13-3 5-6 13-6 10-6 9-7 8-2 3"/>
<path d="M1697 6129l 4-4 5-3 6-3 6-3 7-2 8-2 8-3 10-1 7-2 11-1 12-2 12-2 13-2 14-2 14-2 15-1 15 0 15 1 16 1 16 1 17 2 16 2 7 1 15 2 14 4 14 4 13 4 13 6 7 3 12 6 13 7 12 7 11 8 12 8 10 9 5 5 10 10 10 11 8 12 7 14 4 6 5 14 4 15 2 7 2 16 1 17 0 17-3 19-1 7-4 20-5 21-7 22-8 23-8 24-10 24-10 24-12 24-3 7-12 24-13 23-14 24-16 23-17 21-18 20-5 5-20 20-23 21-26 22-24 20-21 17-18 13-18 12-18 12-18 11-17 10-7 3-16 8-16 6-15 5-13 3-14 2-6 1-13 0-12-1-12-1-11-2-5-1-9-2-8-3-4-2-6-4-3-3-5-5"/>
<path d="M2139 6905l-2 4-3 4 4-6-3 5-1 6-2 6-2 5-1 6-2 7-1 7-2 8-2 8-1 9-2 8 1-7-1 9 0 9-1 9-2 8-1 9 0 10-1 9-1 9 0 8 0 9 1 9 0 8-1-7 2 8 1 7 2 7-3-6 3 6 3 5-4-4 4 4-5-3 5 2-5-1 6 1-6 0 8-1 8-4 9-4 4-1"/>
<path d="M2170 6668l-5 3"/>
<path d="M2356 7128l 1 6 1 7 1 7 1 7 0 7-1 8 0 8-2 8-2 9-1 7-2 9-3 10-4 10-5 10-5 11-3 5-5 11-7 10-7 10-7 10-3 2"/>
<path d="M2469 6704l"/>
<path d="M2558 6947l 0 6 1-7 0 6 1 7 1 7 1 8 1 7-1-7 2 8 2 9 3 8 4 9 4 8 4 10 4 10 4 12 4 13 4 13 4 14 5 15 5 15 4 16 5 17 5 17 4 17 4 17 3 16 1 7 3 16 2 16 1 15 1 15 0 14 0 13 0 12-1 11-1 7-3 10-3 11-4 9-3 7-5 8-6 8-7 6-5 6-7 5-8 5-7 3-9 3-10 2-7 2-10 0-11-1-7-1-11-2-11-3-11-4-11-5-11-6-6-3-11-7-10-8-10-9-4-4-9-10-8-11-6-12-3-4-5-14-4-15-3-16 0-4 0-3"/>
<path d="M2839 6573l 6-1 7-1 7-1 8 0 9 1 10 1 10 0 11 0-7 1 12-1 6-1 11-1 11 0 11 0 10 0 9 0 4 1 7 1 3 2"/>
<path d="M2861 6701l 7-2 9-1 10-2 12-1 12-1 13 0 14-1 14-1 14-1 14-1 18-3-5 1 25-5 26-4 3-1"/>
<path d="M3502 6220l 6 0 6-1 7-1-7 1 7-1 9-2 10-2 12-2 13-3 13-3 14-3 15-3 15-4 16-5 16-5 16-5 17-5 18-5 18-5 19-5 19-5 19-4 19-4 19-3 7-2 18-3 16-2 16-2 15-2 13-1 11-1 10 0 8-1 6 1 7 1 5 1 7 3 2 3 5 5 4 6 1 7 0 5-1 7-1 5-2 6-2 6-3 6-3 6-5 7-5 8-7 8-8 9-5 5-8 8-9 7-8 8-9 8 5-5-9 8-9 9-9 9-9 9-8 9-8 8-8 7-3 3-7 7-7 5"/>
<path d="M3394 6280l 8-1 8-1 10-1 12 0 13 0 15 1 17 1 17 1 18 2 17 1 17 3 7 1 16 2 16 3 15 4 14 4 13 4 12 5 11 5 11 5 9 4 7 3 9 5 7 5 8 4 6 5 6 5 5 5 6 7 4 6 4 7 3 7 1 7 1 8-1 7-1 8-1 7-3 7-3 7-4 6-4 7-5 7-7 8-7 10-8 11-9 13-10 13-12 16-12 16-15 18-15 17-17 18-17 18-5 5-18 18-17 18-18 17-19 17-19 18-19 18-19 18 5-5-18 19-17 20-17 19-16 20-16 19-15 18-14 18-14 18-12 16-11 15-10 13-8 12-7 11-6 10-4 9 3-7-3 9 1-7-1 8 1 7-1-7 3 5-4-6 5 5-5-5 6 5-7-4 8 4 10 3 11 3-7-1 13 1 14 1 15 1 16 0 18-2 20-1 21-1 24-2 24-1 26-1 27-2 27-2 26-2 27-2 25-3 25-3 25-3 24-2 25-2 25 0 26-1 27 0 26 0 26 1 26 1 24 1 23 0 21 0 19-1 17-1 16-1 15-1 13-3-7 1 12-2 12-3 11-3 9-2 8-3 8-3-7 3 7-4 5-5-5 5 4-5 3-6-3 7 2-7-1 7 1-8 0-9-1-9 1 7-2-10-3-9-4-11-5-10-5-11 3 6-5-11-6-12-7-11-6-11-7-10-6-8-6-7-5-6 3 3-6-5-5-4-2-2"/>
<path d="M3607 7197l-1 7-1 12-2 13-2 15 1-7-2 15-2 17-2 17-1 17-2 17-2 17-2 17-1 7-3 18 1-7-2 19-2 18-2 19-1 18-2 18-2 18-1 17-3 16-1 7-2 16-3 15-2 14-3 14-3 13-3 11-2 10-3 8-2 7-2 5-3 7-2 2-5 5-6 3-7 2-7-1-7-4-5-5-2-2-3-6-1-6-1-7-1-9 0-11 1-12 1-14 2-15 2-16 1-7 3-17 3-17 4-18 5-17 5-17 6-16 6-14 5-14 6-11 5-11 3-6 5-10 6-9 6-8 6-8 6-8 5-7 6-7 5-5 7-6 7-6 8-5 7-5 7-4 7-4 7-3 7-4 7-2 7-2 7-1 7 0 7 0 7 1 8 2 7 2 7 3 6 3 6 4 6 3 4 4 5 3 5 6 4 4 3 4 3 7 2 4 1 6 2 7 0 5-2 7 0 6-2 6-2 6-2 7-4 6-4 7-5 7-6 8-5 5-7 7-8 7-7 6-7 6-8 6-8 6-7 6-8 5-8 5-8 5-7 5-7 4-7 5-6 4-7 4-5 4-5 4 5-5-4 4-2 4 3-6-1 5 1-8 0 5-1-7 2 4-3-6 2 4-5-5 4 3 5 4 6 3-6-3 6 2 8 2 7 2 8 2 8 1 9 2-7-1 9 1 10 0 11 0 11 1 13 0 13 1 13-1 14 0 15 1 15 0 15 1 16 0"/>
<path d="M4537 6321l 2 9 1 10 0 11 0 12 0 14-1 14 0 14-1 16-1 17-1 17-2 18-1 7-3 17-3 17 2-7-3 19-2 20-3 20-1 7-3 19-5 19-4 18-6 18-5 17-5 15-5 15-5 14-5 12-5 10-2 5-5 8-5 6"/>
<path d="M4468 6199l 3-3 4-4 6-3 6-4 7-3 9-4 11-3 13-3 14-3 7-1 15-2 16-2 16-1 16-1 16 0 16 1 17 1 7 1 17 3 16 3 17 4 16 5 17 5 16 6 16 8 6 3 16 8 16 9 15 9 14 10 14 10 13 12 5 5 11 12 10 13 9 13 3 7 6 14 4 14 2 7 2 15 1 16-1 17-1 7-4 17-5 19-8 19-9 20-3 6-11 20-12 21-14 20-14 21-16 21-16 19-18 19-17 19-5 5-18 18-18 17-18 16-18 15-19 13-19 13-21 12-6 4-22 11-22 10-21 9-21 7-20 6-19 4-18 4-7 1-17 2-15 1-14-1-12-1-10-2-7-1-8-2-6-2-5-1-4-3-5-2"/>
<path d="M4990 6654l"/>
<path d="M4999 6802l 3 6 2 5 2 5 2 5 1 6 2 6 2 7 1 7 2 7 2 8 3 8 2 8 2 8 3 8 1 8 2 9 2 8 1 7 1 9 2 9 1 10 1 10 1 11 1 10 0 11-1 10-1 10 0 10-1 11-1 11-2 7-1 11-2 11-2 10-2 11-3 10-2 9-2 9-3 9-2 8-3 7-4 6-3 6-3 4-5 6-4 4-6 3-6 3-6 3-6 2-7 2-8 1-7 0-9-1-7-1-8-2-9-1-9-3-9-3-9-4-6-3-9-5-9-5-8-6-8-6-7-7-5-5-6-6-6-6-5-7-3-6-3-6-3-6-2-7-1-6-1-6 0-7 1-7 1-5 3-10 5-13 2-4 7-12 3-3"/>
<path d="M5260 6889l 4 6 1 7 2 7 0 6 1 5 1 5 1 7 0 7-2 7-1 7-2 7-4 7-4 8-3 5-6 8-6 9-7 8-8 9-3 3-8 7-3 2"/>
<path d="M5453 6540l 1 6 1 7 1 9 1 9 1 10 0 11 1 12 0 13 0 14 0 16 0 16 0 18 0 19-1 20 0 20 0 20 0 21 0 20 1 21 0 20 1 18 0 17 0 16 0 15-1 14-1 14 0 12-1 10-1 9-1 8-1 7-1 6-4 6-1 2-5 5-6 4-7 1-8-1-6-4-5-5-3-6-2-3-1-8-1-7-1-10-1-11-1-13 0-13 0-14 0-14 0-15 1-14 1-15 2-14 2-13 1-7 2-13 2-12 2-12 3-11 4-10 3-9 3-6 4-8 4-6 5-6 5-5 4-4 5-4 4-3 6-4 5-2 5-1 7-1 5-1 6-1 6 1 7 1 6 0 5 2 6 2 6 2 7 3 6 3 7 3 6 3 6 4 5 4 5 4 6 5 4 5 3 5 3 6 3 5 2 5 1 5 1 7 1 5-1 6-1 7-1 6-1 5-2 7-4 6-3 6-4 6-5 6-5 5-7 6-7 6-7 7-7 6-7 6-7 5-6 6 5-5-5 6-6 6-4 6-4 7-4 6 4-7-3 6-2 7 2-7-1 6 0 6-1-7 2 5-3-7 4 5-6-5 6 4 7 4-7-4 8 3 8 3 9 3 10 4 10 3 11 2 12 2 12 2-7-1 12 1 13 1 13 1 12 1 11 0 11 1 11 1 11 1 11 1 11 1 10 1 5 1"/>
<path d="M3330 5853l-1 7-2 8-2 9-2 11-2 12-3 14-3 16-3 16-3 17-3 17-4 16-6 19-7 20-8 24-8 27-9 30-10 36-11 41-12 44-13 45-13 46-13 47-12 49-12 50-12 51-12 51-12 53-10 52-10 54-8 53 1-7-7 52-5 51-4 49-1 47 0 47 1 46 3 46 5 45 7 42-1-6 8 40 11 39 11 35 14 35 15 33-2-4 18 33 20 32 23 33 23 32 2 3 0 3"/>
<path d="M5744 5843l 5 11 6 14 7 16 9 18 10 20 10 21 12 23 12 24 12 25 14 26 14 29 15 31 16 32 16 33 15 34 15 34 14 34 13 34 13 35 12 37 12 38 11 39 9 41 9 41 1 7 8 42 6 44 5 44 3 46 2 47 1 49 0 48-2 48-3 47-5 47-4 46-6 45-5 44-6 43-1 7-6 40-7 39-7 36-8 35-6 33-6 30-7 27-6 24-7 21-7 18-7 14-2 4-5 10-3 3-3 2"/>
<path d="M13329 6069l-5-3-4-4-3-5-2-4-1-6 0-4"/>
<path d="M13952 5558l 1 11 0 13-1 14 0 17-1 20 0 22-1 24 0 26 0 26 1 26 1 25 1 23 1 26 2 28 1 31 2 33 3 36 2 37 2 39 2 39 1 41 1 42 1 42 1 41 0 41 0 39 0 38 0 37 0 36 0 35 1 33 0 30 2 29 1 27 1 24 1 22 2 19 1 17 2 16 1 13 2 11 1 9-1-6 0 7 1 6 1 4-7-9 3 2 3 3"/>
<path d="M16157 5885l 6 0 7 0 7 1 7 1 8 2 9 1 10 2-8-1 10 1 10 1 10 1 11 2 12 0 12 0 13 0 15 0 15 1 16 0 18-1 18-1 20-1 21-1 22 0 23-1 23-1 23-1 22-1 21 0 19 0 19-1 17 0 17 0 16 1 16 1 16 2 15 1 15 2 13 2 7 1 12 2 12 1 11 2-8-1 11 1 9 2 10 2 10 1 9 2 8 1 7 1 6 1 6 1 6 1 6 0 7 0 4 0 3 2"/>
<path d="M16708 5829l 7-1 7 1 7 1 8 2 9 1 9 3 12 3 12 4 12 4 12 6 12 5 7 3 11 7 12 7 11 6 11 7 11 6 10 6 8 6 8 6 7 5 7 5 6 5 6 5 5 5 4 6 4 6 3 6 3 6 1 7 1 5-1 7-3 7-3 5-5 5-6 4-5 4-6 4-6 3-6 3-7 1-7 1-8 1-8 0-10 1-10-1-10-1-10-1-10-1-8 0-9 0-9-2-5-1-7-1"/>
<path d="M17892 5974l-6 1-6 1-7 2-7 1 7-1-7 1-9 3-10 2-7 1-12 2-14 1-15 1-16 1-17 2-18 2-19 2-20 3-22 2-22 3-23 3-23 3-24 3-26 2-29 1-30 2-32 1-31 0-30-1-28-1-26-1-24 0-24-1-21-1-19-1-18 0-16 0-14 0-13-1-6-1-11-3-10-2-8-2 4 0-6 0-4-1"/>
<path d="M17410 5937l-6 1-7 1 7-1-7 2-6 3-7 2-7 3-7 2-7 3-7 3-8 3-8 3-8 3-7 3-7 2-7 3-7 2-6 3-6 3 7-3-5 3-5 5-4 4-4 4 5-5-4 4-4 5-3 5 3-6-2 6 2-7-1 6 0 7-1-7 2 6 2 7-3-7 4 6 4 6 5 5-5-5 5 5 7 4 7 4 7 4 7 5 8 5 9 7 9 6 9 6 10 5 9 5 10 6-6-3 10 5 5 3 11 6-5-3 11 5 13 5 12 5 12 5 12 6 4 1"/>
<path d="M13532 6019l-1-5 1-7 2-4 3-6 2-3 5-5 3-3 6-3 4-2 4-1 5-2 7-2 9-2 11-2 11-3 12-2 8-1 12-2 12-2 14-1 15-1 17-2 19-2 19-1 21-1 21-1 23 0 23-1 23-2 23-1 22-2 22-1 21-3 22-2 22-3 24-2 24-2 24-2 24-1 25-1 25-1 25 1 24 0 21 0 20-1 18-1 16-1 15-1 15-1 13-2 13-2 12-2 12-1 11-2 11-1 10-2-7 1 9-2 9-1 7-2 8-1 6-2 6-1 6-2 6-1"/>
<path d="M14395 5786l 7 2 8 3 7 3 8 3 8 3 9 3 9 4 10 4 11 5 6 3 10 5 10 5 9 5-6-4 9 4 9 4 8 3 9 3 9 3 8 3 8 3 6 4 7 3 6 3 5 3 5 3 5 4 5 5 4 5 3 5 3 7 1 7 1 5-2 7-2 6-3 6-3 6-5 5-5 5-5 5-6 5-9 4-6 4-11 4-12 4-14 5-15 5-15 5-15 5-14 5-13 3-12 4-11 5-11 4-10 3"/>
<path d="M13157 8644l-1-7 1-6 3-7 5-4 6-3"/>
<path d="M13454 8647l 6-1 5-1 6-2 6 0 7 1 7 1 7 1-7-1 8 1 9 1 10 1 7 1 11 2 11 2-7-1 11 2 11 0 13 0 13 1 13-1 15-1 15 0 17-1 18 0 20 0 21 0 21 0 23-1 24 0 24-1 24-2 23-2 23-1 23-1 23-1 22-1 22-1 21-1 22 0 22 0 22 0 22 0 20 1 20 0 19 1 19 1 18 1 16 0 14 0 13 0 11 1 11 1 9 1 9 1 8 1 7 1 5 1 6 1 6 1 7 2 12 5"/>
<path d="M14231 8501l 6 0 6 0 6 2 7 1 8 1 8 2 9 2 9 2 9 2 10 2 9 3 11 3 10 3 11 4 10 4 10 4 9 4 6 3 9 5 8 5 7 5 7 6 6 5 5 5 6 5 4 6 5 6 3 7 4 6 2 6 1 6 1 7 0 6-1 7-1 7-2 7-4 8-3 6-5 8-6 8-7 8-9 10-5 5-10 10-11 10-12 10-14 10-14 11-14 10-13 11-13 12-13 11-13 11-15 10-14 10-15 9-16 9-3 2-15 7"/>
<path d="M15788 8705l"/>
<path d="M15655 8745l-5 2 7-1-6 2-6 2-7 3-8 2-9 2-11 3-12 2-7 1-14 2-16 2-18 2-21 2-23 2-25 1-26 2-26 3-28 2-28 2-29 3-29 3-30 2-31 2-34 0-33 1-35 1-33 0-33 0-33-1-30-1-29-2-27-1-26 0-24-1-24-1-21-1-20 0-17 0-16 1-14 0-12 0-10 1-8 0 7-1-6 1-3 1 13-18 0 3-1 5-3 5"/>
<path d="M14981 8698l-6 3-7 3-7 3-8 4-8 5 6-4-8 5-9 5-7 4-9 4-10 5-11 5-12 5-11 5-12 5-11 4-12 5-12 4-11 4-10 4-9 5-8 4 6-3-8 4-7 4-5 4-4 3 5-5-2 4 4-14 1 5-2-7 3 5-3-6 5 5-6-5 7 5 9 5-7-3 11 5 12 5 13 6 16 5 16 5 16 5 16 5 18 5 18 5 19 4-6-1 21 3 22 4 6 1 23 3-6-1 25 4 26 3 27 4 28 3 3 0 3 1"/>
<path d="M18182 8634l 6 1"/>
<path d="M17955 8641l-6-1-8 0-7 0-9 0-10 0-11 0-13 0-15 0-18 1-21 1-23 2-24 0-26 1-26 0-28 1-28 1-27 2-26 1-25 3-26 2-27 1-26 0-27-1-26-2-24-2-23-2-21-2-7-1-19-3-17-4-15-3-12-4-10-4-8-4-6-2-5-2-5-3-5-4"/>
<path d="M17537 8514l-6 1-8 2 6-1-9 3-10 2-10 3-12 3-13 3-14 3-15 3-15 4-16 3-15 4-15 4-15 4-14 4-14 5-14 4-14 5-13 5-12 5-11 4-9 4-8 4 6-3-7 4-6 5-6 5-5 5 5-5-4 4-3 5 5-13-1 6-1-8 2 7-3-7 4 6 5 6 5 6-5-5 6 4 7 5 9 5 8 4 10 5 10 5 11 6 12 7 12 7 14 9 14 8 14 8 14 9 14 8 15 9 14 9 14 9 12 9 11 7 9 8 9 7 10 9 9 8 10 7 10 7 9 7 9 6 3 3 1 3"/>
<path d="M9062 6225l 1 6 2 9 1 9-1 9 0 10-2 7-1 10-2 11-2 13-3 13-4 14-3 14-3 16-3 16-3 15-2 13-3 14-3 16-3 17-4 19-4 18-4 19-4 19-3 19-4 20-3 20-4 19-4 18-4 17-4 15-4 13-2 13-3 11-3 10-4 9-4 7-2 4-3 6-3 5-2 3"/>
<path d="M9033 6779l-6-3 6 2 7 2 7 2 7 2 8 1-7-1 9 1 9 1 11 0 10 1 10 0 11 0 11 0 12 0 14 0 13 0 14-1 14 0 13-1 13-1 13-1 13-1 13-1 12-1 11-1 11 0 11-1 10-1 10 0 11 0 10 0 4 1"/>
<path d="M4269 10231l 5 5 4 4 3 6 2 5 1 7 1 7 0 9 0 11 0 12 0 12-1 15-2 16-1 17-1 18-2 18-2 17-2 17-1 16-2 16-2 16-1 16-2 14-3 14-2 13-2 13-2 12-2 11-1 6-2 9-3 7-3 6-2 5-3 4-3 4"/>
<path d="M4512 10617l-1 6 0 7-1 6 0 7-1 7-1 7-2 7-2 8-4 9-4 9-5 10-5 11-6 12-3 5-6 11-7 10-9 10-10 11-10 10-2 2-3 2-3 0"/>
<path d="M10459 11192l 1 7 1 8 0 10 0 11 0 11 1 13 1 13 0 14 0 15 0 15-1 16 0 16 0 16 0 16-1 16-1 16 0 16-1 15-1 14-2 15-2 13-1 7-2 12-3 12-3 11-3 10-4 9-4 9-4 8-2 5-3 7-4 5-3 5-3 3"/>
<path d="M10228 11670l-1 7-1 7 0 9-1 9-2 7-2 11-4 11-5 12-3 5-6 13 2-5-7 15-3 5-8 15-10 17-11 17-11 18-13 18-14 19-3 2-3 2"/>
<path d="M10474 12143l 1 6 1 6 1 7 1 7 1 9 1 9 1 10 1 11 2 11 1 12 1 14 1 14 1 15 1 15 1 15 1 16 1 15 1 15 1 15 0 14 1 15 0 14 1 14 0 13 0 12 0 11 0 10 0 8-1 9 0 5-2 6-1 6-1 5-2 3"/>
<path d="M10210 12556l 4 4 2 4 3 6 2 6 1 7 1 6 0 7-1 9-1 6-3 9-4 11-5 13-5 13-7 15-8 16-2 4-9 18-11 19"/>
<path d="M9917 10218l 0 9-2 10-1 13 0 14-1 16 0 17 0 18 0 20 0 20 0 21 0 21-1 21-1 22-1 21-1 20 0 18-2 18-2 17-2 17-1 17-2 15-2 15-2 13-2 13-1 11-1 9-1 8-1 7 0 5-1 3-1 3-3 2"/>
<path d="M10342 10236l 0 10 0 12-2 14-1 15 0 17 0 18 0 20 0 21 0 22 0 22 0 22 0 22 1 21 1 22 2 22 1 24 2 25 1 24 2 23 1 21 1 19 1 17 2 15 1 13 1 12 1 9 0 9-1 4-2 3"/>
<path d="M18305 6538l-1 7-1 7-1 8-2 9-1 10-2 11 1-7-1 12-2 13-2 13-1 13-2 14-1 15-2 15 0 14-1 14 0 14 0 13 0 13 0 13 0 11 1 11 1 10 1 10-1-7 2 10 2 9 3 8-3-7 4 7 4 5-5-6 4 4-6-3 5 1-7-1 6 1-7 1 7-1 8-3-6 3 9-5 10-6 9-7 10-8 11-9 10-10-4 4 11-11 10-11 3-3"/>
<path d="M18249 6366l 4 3"/>
<path d="M6312 6485l-7-1 6 0 6 0 6 0 7 0-8 1 8-1 7-1 8 0 8-1-6 1 9-2 9-4-5 3 9-4 5-3 10-4 9-4 9-4 4-1"/>
<path d="M6351 6410l 3-6-1 4 1-7 0 5 0 6 0 9 1 9 1 12 0 12 0 13 0 13 0 15 0 15 0 15-1 16-1 16-1 17-1 17-1 15-1 15 0 4-2 2"/>
<path d="M6731 6113l 6-3 6-2 8-2 9-2 9-2 9-2 11-2 12-4 13-4 13-4 13-4 13-4 14-4 14-4 15-3 15-3 15-3 13-3 13-3 12-3 12-3 11-3 11-3 5 0 8-2 7 0 7 0"/>
<path d="M6729 6208l-2 5 3-6-2 6-2 7-1 9 1-7-1 10 0 11-1 11 0 13-1 13 0 15 0 16 0 17 0 17-1 19-1 20-1 21-2 23-1 22-2 23-1 23-2 24-3 24-3 23-1 7-3 22-3 22-4 21-3 20-4 19-3 17-3 16-4 16-3 15-4 13-3 11-3 9-2 8-3 6-2 5-3 4-3 4"/>
<path d="M6686 6465l 6-3 7-3 8-2 9-2 10-2 10-3 11-2 12-3 7-1 13-2 14-2 14-1 14-2 15-1 15-1 15 0 14 0 14 1 14 1 12 2 7 1 11 3 10 3 8 4 5 3 5 4 4 4 4 5 2 5 2 6 0 4"/>
<path d="M6660 6790l 5-3 7-2 7-1 8-2 9-1 9-2 10-1 12-1 12 0 13 0 13-1 14 0 15 1 15 0 15 2 16 1 15 2 17 2 15 2 16 3 14 2 14 3 13 2 5 1 12 3 12 3 11 3 11 3 10 3"/>
<path d="M7239 6913l 0 6-1 5-1 6-1 5-2 7-2 7-2 6-2 7-1 8-2 10 1-7-1 11-1 10-1 10-1 9-1 10-1 9 0 10 0 10 0 9 0 9-1-6 1 7 2 8 2 6 3 6-3-5 4 6-4-4 6 6 4 3 3 2"/>
<path d="M7190 6773l"/>
<path d="M7367 7146l-1 6-4 6-3 5-4 5-4 6-4 7-3 7-4 7-5 7-2 2-3 2"/>
<path d="M7506 6718l-2 4"/>
<path d="M7543 6937l 1 5 2 7 0 5-1-7 1 5 2 7 1 6 2 7 2 7 3 8 2 8 3 8 2 8 2 8 3 8 2 8 3 9 2 10 2 10 3 10 2 11 3 12 2 11 1 7 2 13 2 12 2 12 1 13 2 14 2 14 2 15 1 15 1 15 1 14 0 14 0 13-1 12 0 12-1 12-2 7-1 11-2 11-3 9-2 9-3 7-3 7-3 7-4 6-5 6-5 5-7 5-8 6-7 3-8 4-9 4-10 4-10 3-10 2-10 2-11 3-8 1-11 2-11 1-10 0-11 0-10-1-10-1-7-1-9-2 7 1-9-1-8-2-7-1-7-2-6-3-5-3-5-4-5-4-4-4-3-5-3-5-2-4-1-5-1-5-1-4"/>
<path d="M8043 6399l 7 0 7 0 8 0 9-1 10 0 11 1 12 2 10 1 6 1 10 2 11 2 12 3 14 2-5 0 15 2 16 1"/>
<path d="M9079 6192l 8-3 10-2 10-3 13-3 14-4 15-4 18-5 19-5 20-5 19-6 20-6 19-7 17-6 15-6 16-6 15-5 16-3 14-2 7-2 15-1-7 1 15-3 14-2 13-3 13-1 5-1 11-1 10 1 5 1 8 1 7 2"/>
<path d="M8996 6518l 7-2 8-2 9-4 10-4 10-3 10-4 11-3 12-4 12-4 13-4 13-4 14-5 15-4 14-4 15-4 16-3 16-3 17-3 7-1 16-2 16-2 14-2 14-1 12-1 13-1 11 0 11 0 10 1 5 1 9 2 7 2 7 3 3 2"/>
<path d="M9577 6715l 4 4"/>
<path d="M9604 6942l 3 8 3 7 2 9 2 10 3 10 2 11 3 11 2 13 2 12 3 13 2 14 3 13 3 14 1 7 2 13 2 14 2 14 1 15 2 14 1 15 2 15 1 15 1 16 0 16 0 16 0 15 0 15 1 14-1 14 0 12-2 12-1 7-1 11-3 10-3 10-4 9-3 6-5 8-5 8-5 7-5 5-7 6-7 6-7 5-6 3-8 4-8 2-8 2-7 1-9 1-9 0-9-1-7-1-9-2-9-2-8-3-7-4-7-3-8-5-7-4-6-5-6-4-6-4-5-4-5-4-4-5-5-5-4-5-4-4-2-5-3-6-3-5-2-5-2-5-2-6-1-7-1-4"/>
<path d="M9806 7056l 0 9 0 9 0 10-2 7-1 10-2 11-3 11-5 11-5 12-4 12-5 12-4 12-5 11-4 11-4 11-1 3-2 2-3 2"/>
<path d="M10088 6861l 2 7 1 7 1 9 1 9 0 10 0 11-1 12 0 13-1 13-1 14-1 14 0 13-1 14-2 14-1 14-2 15-2 15-2 16-2 15-1 14-2 14-1 7-2 13-2 13 1-7-2 12-1 11-1 10-1 9-1 8 0 6 0 3-45-7 0-2 1-5-1 7 1-7 1-8 0-10 1-10 0-12 1-12 1-14 1-13 1-14 1-12 1-12 2-7 2-11 2-10 3-8 2-8 3-6 2-6 4-6 3-4 5-5 3-4 3-2 7-3 4-1 7-1 5 0 5 0 6 1 7 1 5 1 6 1 6 2 6 2 6 3 6 3 6 2 6 4 6 3 5 3 4 3 5 5 4 4 2 4 4 7 1 4 1 8 1 5 0 6-1 7-1 6-2 5-4 7-3 5-3 6-4 5-4 5-5 5-5 5-5 5-5 4-5 5-5 4 6-5-5 5-4 5-4 5-3 4-3 4-2 4 3-7-1 4 0-14 1 4-3-6 3 4-5-5 5 3-6-3 6 3 7 2 7 2-7-1 8 1 9 2 10 1 11 0 12 1 12 0 12 1 13 1 3 0 3 2 2 2 2 3 0 3"/>
<path d="M10457 7013l-5 2 7-3-5 3-5 3-6 4-5 4-5 4-5 4-5 3-5 3-5 3-5 3-5 4-4 4-4 3-4 3-4 2-5 2-4 3-4 3-4 3-4 2-3 1 9-11-1 3-3-21 3 4-6-5 5 4 5 3-6-3 5 1 6 2-7-1 6 1 8 0 8 1 8 0 8 0 8-1 9 0 8-1 9 0 9-1 9 0 9 0 9 1 8 1 7 0 7 0 6 0 4 1 5 1 4 2 3 3"/>
<path d="M10384 7123l 6-1 5-1 6 0 6 0 7 0 8 1 8 1 8 1 9 1 10 1 11 1 11 1 4 1 10 2 10 1"/>
<path d="M10663 7035l 0 7 1 8 1 10 1 11 1 12 1 13 1 15 1 16 0 17 1 17 1 17 1 19 0 19 1 19 0 18-1 19-1 18-1 18-2 17-2 17-2 16-3 15-2 14-3 13-1 6-3 11-2 10-3 7-3 7-1 3"/>
<path d="M10665 6964l 4-5 4-4 5-4 5-4 4-3 7-3 5-3 6-3 6-2 7-1 7-1 7 1 7 1 7 1 7 1 8 1 7 2 7 3 7 3 7 3 6 3 7 3 6 3 6 3 6 4 7 5 6 4 5 4 5 4 5 4 5 4 5 5 4 5 3 6 2 5 1 7 1 6-1 7-2 5-3 6-3 6-4 5-6 7-5 5-7 7-8 8-10 8-11 8-12 9-13 10-14 10-15 10-14 10-13 9-14 9-13 8-12 7-11 7-10 5-10 6-10 4-5 3-9 4-9 3-7 2-6 0-7 1-5 0"/>
<path d="M10939 6855l 5-1 6 0 6 0 7 1 7 0 7 0 8 1 8 1 8 0 9 1 7 1 8 1 7 1 6 2 6 3 6 3 7 3 6 3 5 5 5 5 5 4 4 5 3 5 4 7 2 5 1 5 2 7 0 7-1 6-1 8-2 7-2 8-4 8-3 7-5 9-6 9-6 10-6 8-8 10-8 9-9 9-5 6-9 9-9 8-10 9-9 8-10 9-10 8-10 8-10 7-9 7-9 7-8 7-8 6-7 5-5 5-5 4 5-5-3 3 3-6-1 3-8-26 3 2-7-3 6 1-7-1 7 0 7 0 9-1 8 0 10-2 9-1-7 1 9-2 10-2 10-2 11-2 7-1 11-2 11-1 11-1 11 0 10 0 11 1 9 1 9 2 6 1 9 2 9 3 8 4 8 3 8 3 4 2 7 4 3 3"/>
<path d="M8960 6747l 6 7 3 6 1 7 0 6-1 7-2 6-2 6-2 6-3 7-1 5-2 5-2 6-1 5-2 4-1 5-1 4 2-7 0 5-5-14 2 4-11-8 4 2 5 0-7-1 5 0-7 1 4 0 5-2 5 0 7-2 6 0-7 1 5 0 5-1 6-1 6-1 7-1 7 0 7-1 5-1 7 0 7 0 7 1 5 1 6 1 7 2"/>
<path d="M2405 9286l 0 9-1 10-1 7-2 10-2 12-2 11-3 13-3 12-3 14-4 15-3 15-3 17 1-7-2 17-2 17-3 18-1 7-3 20-4 21-4 21-5 22-4 21-6 20-7 19-8 19-6 18-7 21-9 25-8 26-1 3-3 3"/>
<path d="M4606 9308l 5-2 5-2 5-2 7-1 7-1 8-2 8-2 9-3 9-2 11-3 11-2 7-1 11-2 12-1 13 0 12 1 14 1 7 1 14 2 14 3 14 3 13 4 13 5 11 6 7 3 11 6 10 7 9 8 5 5 7 7 5 7 4 7 3 8 1 7 1 8-1 10-1 7-3 10-5 12-3 7-7 12-9 14-10 13-11 14-13 14-5 5-15 15-15 14-16 15-16 15-16 14-16 15-17 14-16 14-17 14-17 13-19 12-19 11-19 10-6 4-20 9-18 9-18 9-16 8-15 7-15 7-12 6 6-3-10 6-10 5-7 4-5 3-2 1-14-41 3-1-7 1 6-1 8-3 11-3 13-3 15-3 17-4 18-4 20-5 20-4 19-3 19-4 19-3 18-3 7-2 19-3 18-2 18-3 17-1 17-1 18-1 17 0 18 0 17 1 17 1 16 2 5 1 15 2 13 3 14 4 3 2 3 3 2 3"/>
<path d="M7542 9182l 1 7 1 6-1 7-1 7-2 8-3 9-4 11-4 12-6 12-6 13-3 7-7 13-7 14-8 14-8 15-8 15-8 14-7 13-7 13 3-6-5 13-5 12-4 12-3 10-1 10 1-7 0 8 1 7-1-7 2 6-3-6 4 5-6-5 5 4 7 3-7-3 8 3 8 1-7-1 10 1 11 1 12-1 14-1 14-1 15-2 16-2 15-2 16-3 16-2-7 1 16-3 15-3 16-3 15-3 14-3 14-2 13-2 6-1 12-1 10-1 9 0 7-1 5 1 6 1 4 2"/>
<path d="M7664 9343l 1-7 0 6 0 6 0 7 1 7 0 9 0 10 0 11 1 13 0 15 0 16-1 16-1 18-2 19-2 20-2 20-1 20-1 20-1 19-2 19 0 3-2 3"/>
<path d="M7970 11309l 3 9 1 7 2 11 1 11 1 13 2 13 1 14 0 15 1 15 1 14 1 14 0 13 1 14 0 13 1 13 0 12 0 13 0 12 0 12 1 11 0 12 0 11 0 9-1 9-1 9-1 8 0 6-1 6-1 6-2 4"/>
<path d="M7713 11707l-3 7-4 7-4 8-7 9-6 10-5 10-6 12-7 13-3 2-3 2"/>
<path d="M7071 11228l 8-3 8-2 10-3 11-3 7-1 12-2 13-2 14-1 16-1 16-1 17 1 15 1 15 1 8 1 14 3 14 2 13 3 12 4 12 4 6 3 10 6 10 6 9 6 8 7 5 5 6 8 6 8 3 6 4 9 3 9 1 7 1 11 0 10-1 7-2 11-3 12-6 14-6 13-3 7-8 13-9 14-11 15-12 14-5 5-14 14-16 14-17 14-17 12-18 12-18 12-17 11-17 11-16 10-16 9-14 8-13 7-11 6-10 6-7 3-8 4-7 4-4 2 11-9-1 2-19-37 4 0 7 0 9-2 10-1 11-2 11-2 12-1 14-2 13-2 15-1 15-1 15-2 16-1 15-2 16-1 15-2 14-1 14-1 14-1 13-1 14 0 13 0 12 1 12 1 7 2 11 1 10 3 10 2 10 3 9 4 9 5 8 4 5 3 7 5 7 4 6 4 6 4 6 4 3 3 2 4 1 4-1 4"/>
<path d="M7670 10642l 1 6 0 5 0 7 0 7 0 7-1 7-1 8-1 9-1 10-2 9-2 10-1 6-2 9-2 10-3 9-3 10-3 9-4 8-3 7-3 7-2 3-2 2"/>
<path d="M7920 10205l 1 7 1 8-1 9 0 10 0 12 1 14 0 15 0 15 1 16 1 17 0 18 1 18 1 19 0 19 1 18 0 17-1 18 0 17-1 17 0 16-1 16-1 16-1 16-1 16-1 16-1 14 0 13 0 11 1 10-1 4-2 3"/>
<path d="M7310 10204l 0 7 1 7 1 8 1 8 0 11 0 11 1 11 1 13 0 13 0 14 1 15 0 17 1 20 0 23 0 23 1 23 0 22 0 21 0 20 0 18-1 19 0 18-1 19 0 17-1 17 0 15 0 13 0 11 0 11 0 8-1 7-1 5-1 5-2 3"/>
<path d="M10105 9127l-6 10-6 11-7 12-6 14 3-6-7 15-7 17-8 17-7 19-7 19-7 21-6 21-6 20-5 20-5 20-2 19 1-7-2 20 0 19 2 19 2 17-1-7 4 16 4 14 6 13-3-6 8 12 9 10-5-5 10 9 12 8 13 7-6-4 14 6 14 4 15 3-7-1 15 1 16 1 15 0 15-1 15-2-7 1 14-4 13-5-7 4 12-7 9-7 8-7-5 5 6-8-4 7 4-9-2 7 2-8-1-9 1 7-2-10-5-9 4 7-7-10 5 6-9-10-13-8 6 3-15-8-16-5-15-3 7 1-14-2-13 0-11-1-9 1-9 1 5-1-9 1-10 3-8 3-8 3 5-2-7 4-6 5 3-3-6 6-2 2-3 2-3 0-3 0-3-2-3-2-1-3-1-3 1-4 1-2 3-8 3-3 3-1"/>
<path d="M10067 10658l 0 6 0 6-1 5-1 7-2 6-2 8-3 7-4 9-5 10-5 10-2 5-6 11-6 11-6 12-7 13-6 12-2 2"/>
<path d="M12566 9930l-1 10-2 11 1-8-2 13-2 14-1 7-2 15-3 15-2 17 1-8-2 18-3 19-2 19-1 8-3 19-3 19-3 18-4 18-3 17-4 16-4 15-3 15-4 14 1-5-2 13-1 6-2 11-2 10-1 7-1 5"/>
<path d="M12542 9897l 1-6 1-6 3-6 3-6 5-5 6-5 6-3 7-4 8-3 7-2 7-2 9-2 12-2 7-1 15-3 17-2 16-2 17-1 17-1 18 0 17 1 18 2 7 1 18 3 19 3 19 4 18 5 17 5 17 6 16 6 14 7 7 3 13 7 10 8 5 5 7 8 6 8 3 7 5 9 4 11 3 12 1 7 1 13 1 13-2 16-1 7-2 16-5 18-6 18-8 18-3 6-10 18-11 18-13 18-15 16-5 5-16 16-16 14-17 15-17 14-17 14-18 14-17 13-18 11-19 9-6 4-17 8-16 7-16 5-14 3-6 1-13 1-13-1-5-1-12-3-4-2-10-6-9-7-2-3-8-8"/>
<path d="M13065 10255l-3 7-3 6-3 8-3 8 3-6-5 9-3 6-6 10-7 10-7 11-8 12-8 12-8 13-8 13-8 14-2 2-3 2"/>
<path d="M13334 9801l 7-3 7-1 9-2 10-2 8-2 9 0 12 0 12 0 14-1-6 1 15-2 16-3 5-1 19-2 22-2 21-2 18-3-4 0 17-4 3-1"/>
<path d="M13337 9879l-3 5-3 6-4 8-5 9-4 9 3-6-3 8-3 9-4 11-4 12-3 14-4 14-4 15-4 16-3 18-4 17-3 18-4 17-3 15 1-7-2 16-2 16-2 15-3 14-2 13-2 12-1 10-1 9 0 7 0 6-1 5-2 4"/>
<path d="M13354 9920l 10 1 11 0 11 0 9-1 9 0 10-1 11 0 12 1 13 1 14 2 14 2 15 2 5 1 14 2 13 3 13 3 11 4 11 4 2 2"/>
<path d="M13272 10207l 9-3 11-3 13-3 14-3 15-4 16-3 7-2 17-2 18-2 18-1 20 0 19 0 19 0 20 1 20 0 20 1 18 2 6 1 18 3 16 2 15 3 15 4 4 1"/>
<path d="M4982 10218l 0 8 0 10 1 11 0 12 1 12 0 14-1 15 0 15 0 16 0 16 0 16 0 16 0 17 0 17-1 17-1 16 0 16-1 16-1 14-1 14-1 12-1 11-1 10-1 10-1 9-1 9-1 8-1 5-1 7-2 5-2 4-3 5"/>
<path d="M9635 12096l 5-3 6-3 5-4 7-3 7-3 9-3 9-3 11-2 11-3 12-2 7-1 11-2 13-1 12 0 12 0 11 1 9 1 8 1 8 1 9 2 7 2 6 3 7 3 5 3 5 5 4 4 2 4 4 7 1 5 1 7 1 5-1 7-2 6-2 6-4 6-4 6-5 7-7 7-5 5-7 6-8 7-9 6-10 8-10 7-11 7-10 8-11 8-10 8-9 6-8 7-8 6-7 6-6 5-5 6 5-6-4 5 4-6-1 4 0-14 1 3-8-11 4 3-6-3 5 2-7-1 7 0 7 0 9 0 9-1 11-1 11-1 12-1 12-1 11-2 12-1 13-1 12-1 13 0 13 0 12 0 10 2 7 1 10 1 8 2 7 3 7 3 6 3 5 4 5 5 3 4 3 7 2 5 1 7 1 6-1 7-1 8-3 9-4 10-4 7-6 12-8 12-9 13-10 13-11 14-12 13-12 13-6 5-12 12-13 12-13 12-13 11-14 11-12 9-13 9-13 7-12 6-6 3-12 4-12 4-10 2-6 1-11 1-9-1-5 0-9-2-8-2-6-4-4-2-6-3-3-3"/>
<path d="M9629 11353l 3-5 5-4 5-5 5-4 6-4 6-3 7-3 8-3 8-2 7-1 9-2 9-1 10-1 10-2 11-1 10-1 11-1 11 0 11 1 11 0 10 1 7 1 10 2 9 3 8 3 6 4 8 3 6 4 5 5 4 5 3 6 3 6 1 7 0 7-1 7-1 7-4 8-3 7-5 8-7 9-9 9-5 6-11 10-12 10-14 11-15 11-15 11-16 12-15 12-16 13-15 13-15 13-15 12-13 13-12 13 5-5-12 12-10 12-10 11-8 10-6 9-4 8 3-6-3 7-1 5 1-7 1 4-5-13 3 3-12-9 4 1-7-1 6 0-7 1 8-1 8-3 10-4-6 3 10-6 12-7 13-8 13-9 15-9 15-10 16-10 18-10 18-10 18-10 5-2 19-9 20-9 20-8 21-7 20-7 4-1 4 1 3 1"/>
<path d="M14738 10986l-1 6-1 11-3 12-4 14-5 15-5 15-7 14-3 7-7 14-7 14-7 13-7 13 4-6-7 13-6 15-7 15-6 16-6 16-7 16-6 18-6 17-6 15-4 14-3 12-2 11 1-7-1 9-1 10 0 8 0 6 1 6-1-7 2 5-4-6 3 4 3 4-5-6 4 3-6-3 5 1-7-1 6 0 7 0 8 0 10 0 10-1 11-2-7 1 12-2 13-3 14-3 15-4 16-3 16-4 17-5 17-4 18-4 17-5 17-4 16-5 15-4 13-3 13-3 11-3 10-2 9-2 7-2 5-1 5 0-3 0 5-1 5-2 3-1"/>
<path d="M14796 11194l 1-7 0 6 1 8-1 9 0 10 1 9 1 11 2 11 1 12 2 12 1 12 1 12 2 13 1 13 1 13 1 14 0 15-1 13-1 12-1 12-2 12-2 13-1 6-2 11-3 11-3 10-2 9-2 7-2 7-1 5-2 4-3 2"/>
<path d="M15447 10997l-5 3 6-3-4 4-5 6 5-5-5 7-6 8-5 10 3-6-4 11-5 12-5 14-5 14-4 15-4 16-4 18-4 19 1-7-3 20-2 22-1 21 0 22 1 21 3 21-2-7 4 20 6 19 7 17 8 16-3-6 9 15 10 14 11 12-6-5 12 11 13 9 13 8 14 7-6-3 13 5 14 5 12 2-7-1 12 1 12 0 11-2-7 2 11-3 9-4-7 3 8-5 7-6-5 5 5-5 4-6 3-6-3 6 3-6 1-8-1 7 1-8-1-8 1 8-2-9-3-8 4 7-5-8-6-7 5 5-7-6-9-6 6 3-11-5-13-3 6 1-15-2-16 0-17 1-17 3 5-1-18 4-19 6-18 6-18 6-3 1"/>
<path d="M12937 12104l 1 6 1 6 0 7 0 8-2 6-1 9-2 10-3 12-3 14-3 14-4 16-5 16-5 18-5 18-6 19-6 19-5 21-5 21-6 20-4 21-5 20-4 20-5 19-4 19-3 20-1 3"/>
<path d="M14581 11978l 2-2 6-1 6 1 5 2 3 2 4 5 3 5 3 6 1 7 1 7-1 8-1 8-3 8-3 9-4 11-6 12-3 6-6 13-7 13-8 14-9 14-10 15-10 15-10 14-11 15-10 15-8 14-8 13-6 13 3-7-5 12-3 11-2 9 2-7 0 9-1-7 2 7-3-6 4 6-5-5 7 5 8 5-6-4 10 4 13 2-8-1 14 1 15 0 16-2-7 1 16-3 17-4 18-6 18-6 18-7 19-7 20-8 20-7 20-7 21-7 20-6"/>
<path d="M14736 12114l-3 8-3 9-4 10-3 12-3 13-2 14-2 13 1-7-1 14-2 14-2 16-2 16-2 16 0 17-1 19 0 17-1 17-1 17 0 18 2 18 1 16 0 4-1 3"/>
<path d="M15412 11941l-3 8 3-6-4 9-4 11-3 13-4 15-3 17-4 18-3 19-3 19-4 20-4 21 2-7-3 22-1 22 0 22 1 21 1 21 2 20 3 20-1-8 4 19 7 16-3-6 8 15 10 14 11 13-5-5 12 11 14 8-7-3 15 5 15 5 16 3-7-1 16 1 17 0 15-3-7 1 14-4 14-5 12-6-7 4 11-7 9-8-5 5 7-8 6-9 6-9-3 7 3-10 3-9-1 7 0-9-1-10 1 7-2-9-3-9 3 6-6-8 5 5-7-7 6 3-11-5-12-4 6 1-15-3-16 0-16 0-17 1-18 3 5-1-19 4-19 5-3 0-3 0"/>
<path d="M13603 12976l 5-3 5-4 7-3 8-2 9-2 7-1 9-1 10-1 10 0 10 0 10 1 7 1 11 2 10 3 9 5 6 3 9 5 7 5 6 6 5 5 6 6 4 7 3 7 2 8 1 7 1 9 0 9-2 8-1 10-3 11-4 12-5 12-3 6-6 12-6 11-8 13-7 13-8 13-9 13-9 12-9 13-10 12-9 12-10 12-10 12-10 13-11 12-5 5-12 11-12 11-11 10-11 10-11 9-9 10-9 9-8 8 5-5-7 8-5 6-4 6 4-7-2 5 1-7 1 4-5-13 4 4-11-9 6 3 10 2-7-1 12 1 13-1 15-1 15-3-6 2 16-3 18-3 7-1 19-2 20-3 21-3 23-3 23-2 23-3 25-2 26-2 4 1 4 2 3 3"/>
<path d="M14614 12915l 3-4 5-5 4-4 5-5 6-4 5-3 7-3 5-3 6-3 7-1 6-1 6-1 6 1 7 1 6 1 6 1 5 2 6 3 5 3 4 4 5 5 4 4 3 7 2 5 1 7 1 6 0 7-2 7-1 8-3 9-4 11-5 13-6 14-3 7-8 15-8 16-10 16-10 18-10 18-9 17-10 18-9 17-8 16 3-7-7 15-6 15-5 13-3 12 1-8-2 11 1 9-1-7 2 8-4-6 4 7 6 5-5-5 7 5-6-3 9 3 11 3-7-2 13 2 14 2 16 0 16 0 18-2 20-2-6 1 23-4 23-5 24-5 25-6 24-5 24-5 3-1"/>
<path d="M14817 13108l-6 4-5 6-5 6 4-5-4 7-5 8-4 8 3-6-4 10-3 11-3 10-3 11-3 13 1-7-2 13-2 13-1 14 0 13 0 14 1 13 2 13-1-4 3 13 4 14 4 14 1 3-1 3"/>
<path d="M15411 12891l-5 7-5 9-6 11-6 13-6 14-8 16 4-6-7 16-6 18-5 18-4 18 1-7-2 18-1 19 1 18 4 19-2-7 5 18 7 18 8 16-4-7 10 14 12 13-5-5 13 13 14 11 15 10 15 8-7-3 16 7 17 6 16 3 15 3-7-1 15 1 14 0 13 0 13-2-7 1 11-3 10-5-6 4 9-5 8-5 7-6 6-6-5 5 5-5 4-7-3 7 3-7 2-6-1 7 1-6-1-6 1 7-1-5 3 6-2-5-5-5 5 5-6-4 6 3-8-3-9-4-12-3 7 1-14-2-16-2-18-1-19 0-20 1-20 1-20 1-20 3 4-1-20 4-3 0-3 0"/>
<path d="M12852 13922l-1 6-1 12-2 14-1 15-3 17-3 17-4 19-4 19-4 20-5 21-5 23-5 25-5 26-5 26-4 27 1-7-4 27-3 29-2 31-2 27-1 23-1 20 0 17 0 4"/>
<path d="M13411 13926l 5-3 7-3 9-3 7-1 11-2 15 0 17 0 18 0 15 1 7 1 15 3 15 2 17 3 19 3 18 3 14 3 12 4 12 4 11 4 11 5 7 4 10 6 9 8 5 5 7 8 5 7 3 7 2 6 1 7 0 8-1 7-2 9-4 11-6 13-4 6-7 13-10 13-12 12-5 5-13 11-14 11-14 11-13 9-15 11-19 12-20 15-20 13-20 13-18 11-15 9-12 8-12 9-13 9-11 10-10 9 5-5-6 8-4 7 5-14-1 7-4-14 4 6-5-5 7 7 11 6-6-3 14 5 16 4-6-1 20 2 23 0 25-2 23-3-6 1 22-4 23-6 28-9 30-10 32-10 34-9 36-9 36-9 4 0 3 0"/>
<path d="M14615 13906l 2 8 0 10-1 11-1 7-2 13-5 13-5 14-6 15-7 14-3 7-7 14-7 14-8 13-7 13-8 13-7 13-6 12 3-7-6 12-4 11-2 11 1-7-1 12 0 11-1-7 3 10-4-7 5 8 6 7-5-5 9 6-6-3 10 4 14 2-7-1 16 1 17-1 19-2-7 1 21-4 23-5 24-6 25-6 26-7 27-7 26-7 27-5 26-5 24-6 24-6 3 0"/>
<path d="M14770 14042l-5 5 4-4-5 7-5 8-5 8-5 9-5 9 3-6-3 9-3 10-3 11-3 11-2 11-2 12 1-7-2 14-2 14-1 15-1 15 0 15 0 14 2 13 1 14 0-4 2 13 4 13 0 3"/>
<path d="M15404 13852l-9 5 5-2-9 8 5-4-9 11-7 12-8 14-7 15 3-6-8 16-6 18-5 19-3 19 1-7-2 21-2 20 1 21 1 19 2 20-1-7 3 19 6 18 7 18-4-6 9 17 11 15 13 15-5-6 14 13 16 11 17 9-7-3 18 6 19 5-7-1 19 2 19 0 19-1-7 1 17-3 17-5 15-6 14-7-6 4 12-8 10-9 9-9-5 5 8-9 6-9 4-9-3 7 4-8 2-8-2 7 1-7-1-7 1 8-2-7 3 7-3-6-4-6-6-6 5 5-6-5-8-4 6 3-9-4-9-2-11-2 7 1-12-1-12 1-13 1 7-1-13 2-14 3-14 3-13 5-13 5 5-3-13 7-11 8 3-3-10 11-10 12-8 14-3 3-4 2"/>
<path d="M18769 11083l 8-4-6 3 7-6 5-3 8-4 6-1 9-1 10-2-7 1 10-2 10-3 11-4 12-3 12-2 13-2 12-4 14-4 14-4 13-5 13-4 14-4 12-2 4-1 12-2 3 1"/>
<path d="M18863 11144l-5 5-4 4-4 5 5-4-4 5-2 6 3-6-3 7-2 8-3 9-2 9-2 9-2 11-2 12 1-7-1 13-1 7-2 12-3 14-4 15-4 15-4 14-4 13-3 14-4 15-4 16-3 15-3 13-2 12-2 10 1-7-2 10-1 9 0 7-1-6 2 6 1 5-1 5-2 4"/>
<path d="M18881 11223l 8-1 8 0 8 0 9 0 7 1 9 1 9 3 9 2 10 2-7-1 10 1 10 2 5 0 10 3 9 3 4 3 6 3 6 5 3 3"/>
<path d="M18777 11445l 16 0 16 0 16 0 17 0 18 1 19 0 18 0 18 0 18-1 18 0 4 1 18 3 3 1 2 3 1 3 1 3"/>
<path d="M18810 11983l 7-1 7-2-7 2 8-2 9-4 8-4 8-4 8-4 8-3 7-4 8-3-7 3 7-4 6-3 7-4 6-3 6-2 7-3 6-2 7-2 6-1 7-1 8-1 8-1 7-1 8 0 8 0 7 1 5 1 7 2 6 2 6 1"/>
<path d="M18805 12000l 1-7-1 9 0 9-1 9-1 9 0 10 1 12 1 11 1 12-1 11-1 11 0 12-1 11-1 12-1 11-1 11-2 11 0 10 0 11 0 11 0 11-1 11-2 11-1 11-1 11-1 7-1 10-3 9-2 9-3 10-3 9-3 8-3 8-3 6-2 7 1-6-1 6 0 7-1-6 0 5 1 6-1 5"/>
<path d="M18819 12152l 7 0 8 1 7 1 7 0 8 0 8 0 8 1 9 1 9 0 9-1-7 1 8-1 8-2 8-1 8-2 8-1 8-1 7-1 7 0 7 0 7 1 8 1 6 1 6 1 5 2"/>
<path d="M18772 12370l 7 2-7-1 8 0 8 1 9 0 9 1 8 0 9 0 9-2 9-1 9 1 9 1 9-1 9-1-7 1 8-1 8-1 7-1 8-1 7 0-6 1 7-1 8 0 7-1 6-1 7 1 6 0 7 2 6 2 6 2-4-1 6 1 4 0"/>
</svg>
