<svg xmlns="http://www.w3.org/2000/svg" viewBox="128 -14639 8736 22440" stroke="black" stroke-width="20" stroke-linecap="round" stroke-linejoin="round" fill="none" data-xena="0 0 0"><style>@media(prefers-color-scheme:dark){svg{background-color:black;stroke:white;}}</style>
<path d="M6842 4767l 0 1-1 0 1 0 0 1 1 2 1 0 1 2 1 1 1 2 1 2 2 3"/>
<path d="M4182 5546l-1 0-2 1-2 0-2 1-2 1-2 1-2 0-1 1-2 1 0 0-1 1 0 1-1 0-1 1 0 0-1 2 0 0-1 1"/>
<path d="M4154 5568l-1-1 0 0-1 0-1 0-1-1-1 0 1 0 1 1 1 0 1 2 1 1 1 2 3 1 2 2 1 3 2 3 3 3 2 3 2 4 2 3 2 5 2 3 2 4 1 3 2 4 2 4 1 4 1 3 1 5 1 3 1 5 0 4 0 19 0 4-1 4-2 4 0 4-1 4-1 3 0 4-2 5-1 2 0 1 0 2-1 1 0 1-1 0 0 0 0-2 0 0 0-1-1-2-1-3-1-4 0-15 1-7 0-8 1-8 1-8 1-19 1-10 1-8 1-10 1-9 1-8 1-10 2-8 1-8 1-7 2-8 2-7 2-6 3-5 2-5 3-4 4-4 4-3 4-3 5-2 5-3 5-2 6-1 13-3 6-1 8 0 7-1 8 0 7 1 8 0 7 0 8 2"/>
<path d="M4374 5537l 0-1-1 0-1 0-2 0 0-1 1 0 0-2 1 1 1-1 2 0 2 0 2 0 2-1 3-1 4 0 4-2 3-1 5-1 5-1 5-2 5-2 5-2 5-3 5-2 6-4 12-5 5-4 6-4 5-3 6-4 5-3 4-5 4-3 3-4 3-3 3-3 2-4 1-3 1-2 0-5-1-3-2-1-1-1-3-2-3-1-3-2-4-1-4-1-5-1-17 0-13 2-6 1-6 2-7 3-6 2-7 3-6 5-6 4-6 5-5 6-6 5-5 7-6 8-4 7-4 8-5 8-7 19-3 9-2 9-2 9-1 10-2 9 0 9 0 8 1 16 1 8 3 7 2 6 2 6 3 6 3 5 5 5 4 4 5 3 5 2 6 2 6 2 14 0 8-2 9-3 8-2 10-4 9-4 9-5 9-7 9-5 9-7 8-6 7-7 8-7 7-7 6-6 6-6 5-7 5-5 5-6 4-6 4-4 2-6 3-5 2-5 2-5 2-5 1-5 2-3 1-5 1-3 1-3 1-3 0-3 1-2 0-3 1-1 0-2-1 0 0 0 0 0-1 1 0 17 1 5 0 17 1 6 0 6 2 5 0 5 2 4 1 4 2 5 2 3 3 4 2 4 2 3 2 4 2 3 3 3 3 2 3 2 3 2 3 1 3 1 7 0 4-1 5-1 4-2 4-3 5-2 5-5 5-4 5-5 5-6 5-6 5-7 4-7 4-8 4-7 3-8 3-7 3-8 2-7 2-8 1-7 2-6 1-7 1-12 1-6 0-17-1-5 0-4 0-3 0-4-1-3 0-3-1-2 0-2 0-1 0 1 0 1 2 3 0 2 1 3 1 2 1 4"/>
<path d="M4721 5551l 1 0 0 1 1 0 1 1 3 2 5 0 3-1 3-2 3 0 7-3 3-2 4-2 4-2 3-2 4-2 4-3 4-2 4-3 4-2 4-3 4-3 3-3 4-3 3-2 3-3 3-3 3-3 2-3 2-3 2-3 2-2 1-3 2-3 0-2 1-3 1-3 0-3-2-4 0-3-1-2-2-2-2-3-2-2-2-2-3-1-2-2-3-1-3-1-3-1-4-1-3-1-7 0-4 1-4 1-3 1-4 2-3 2-4 3-4 3-3 3-4 4-3 5-3 6-4 6-3 7-3 6-3 8-3 7-2 8-3 8-1 9-2 8 0 6-1 8 0 7 1 7 1 7 1 7 3 5 2 5 4 5 3 4 4 4 4 2 5 2 5 1 5 2 6 0 7 0 6 0 6-2 8-2 6-2 7-3 7-3 7-5 7-4 6-5 7-5 6-5 7-4 5-5 6-5 5-5 5-5 4-5 5-5 2-5 4-5 2-5 2-5 1-4 1-4 1-3 0-9-1-2 0-3 0-2-1-1-1-1 0-1-1-1-2 0 0 1 0 0 0 1 0 1 1 0 1 1 1 1 1 1 2 0 2 0 2 1 3-1 7 0 7-1 3-1 4-2 4-1 3-2 4-1 5-4 3-2 2-1 3-1 2-1 3-2 1-1 2-1 2-1 1-1 1-1 2-1 1-1 1 0 1-1 0 1-1 0 0 1-1 0 0 0 0 1-1 1 0 1-1 1-1 2 0 2-2 2 0 3 0 2 0 2-1 3 1 2 0 2 0 2 2 3 0 1 2 3 1 1 1 1 1 2 2 1 1 1 1 1 1 1 1 1 2 1 0 0 1 1 1 1 0 0 1 1 1 0 2 2 1 0 0 1 2 1 1 0 0 1 2 1 0 1 3 3 1 2 1 2 1 2 2 3 1 2 1 3 1 3 2 2 0 3 2 2 1 3 1 2 1 3 1 2 1 2 0 2 2 2 0 2 1 2 0 3 1 2 0 14-1 1 0 2-1 3-1 0-1 3-1 1-1 1-1 2-2 1-2 2-2 3-2 1-2 2-2 2-3 2-3 1-2 2-3 2-3 1-2 2-2 1-2 1-2 2-3 1-2 0-2 0-2 1-1 0-3 1-1 1-2 1-2 0-1 1-1 0-1 1-1 0 0 1-1 0 0 0 2 2 1 0 1 1 1 0 2 1 1 0 2 1 3 0 2-1 3 0 2-1 2 0 3-1 3-1 2-1 3-1 4-1 3-1 4-1 4-1 4-1 3-1 5-1 3-2 4 0 4-2 4-2 4-1 4-2 4-2 3-2 5-2 4-3 7-4 4-3 5-3 8-6 5-3 5-5 5-3 4-4 4-5 5-4 4-4 5-3 5-4 5-3 5-4 4-3 4-5 4-4 3-4 3-5 2-4 3-3 2-5 1-3 2-4 1-3 0-3 1-3 0-7-1-2 0-3-1-2-3-5-1-2-1-1-2-2-1-1-5-2-1-1-2 0-2 1-1 0-1 0-3 3-1 1-1 1-1 2-2 3 0 2-1 3 0 8 1 2 0 4 1 4 2 2 2 4 1 4 2 3 2 4 2 3 3 3 2 4 3 3 2 4 3 3 3 3 3 3 3 3 3 3 3 3 3 3 2 2 3 3 2 2 3 3 2 2 2 3 2 3 2 3 2 3 2 2 1 2 2 2 1 2 1 2 1 1 2 2 0 1 0 1 1 1 0 2-2 4-2 1-2 3-3 2-2 2-5 2-4 1-4 3-5 2-5 2-5 2-5 2-6 2-6 2-11 3-6 2-6 1-5 2-4 0-4 2-4 1-3 1-2 1-1 0-3 0 0 0 1 0 0-2 2-1 2-2 1-2 3-2 3-2 4-3 5-3 5-3 6-4 6-4 13-8 7-4 6-3 7-3"/>
<path d="M5234 5583l 0 3 1 0 1 1 2 0 1 0 11 0 7-1 3-2 5 0 4-2 4-1 5-2 9-5 4-2 5-2 13-6 4-2 3-2 4-1 3-2 2-2 3-2 1-1 1-2 1-2 0-5-1-1 0-2-3-3-2 0-2-2-2-1-3-1-3-1-3 0-3 0-4-1-3 0-4-1-3 1-7 0-3 1-5 1-3 1-4 2-4 2-4 2-3 2-3 3-3 3-3 3-3 3-2 3-2 4-2 3-2 5-2 4-2 5-1 5-2 5-2 5-1 6-2 5 0 14 1 5 2 4 2 5 2 4 3 3 3 4 4 4 4 2 6 3 6 2 7 0 8 2 19 0 11-1 11-1 13-2 13-3 15-2 14-3"/>
<path d="M5631 5640l 1-1 2-1 2-2 3-2 3-3 3-2 5-4 4-4 5-5 6-5 5-5 7-7 8-7 7-7 8-8 7-8 10-9 8-10 9-9 8-10 10-10 8-12 10-10 8-13 8-11 8-11 7-12 6-11 7-11 5-11 5-11 8-22 3-10 3-12 2-11 1-11 1-11 0-11 0-11 0-10-2-10 0-9-2-9-2-7-2-8-3-5-3-5-3-5-5-5-3-2-4 0-3 0-3 1-5 1-4 4-5 4-6 6-6 6-6 9-8 10-7 11-8 13-7 14-8 14-7 16-6 16-7 15-6 17-6 16-5 17-4 15-5 16-4 16-2 15-2 15-1 13 0 13 1 12 2 12 2 10 3 9 2 9 4 7 4 6 4 6 4 4 4 4 5 3 4 2 5 1 5 1 4 0 5-1 5-1 10-4 5-3 6-3 5-5 4-4 5-4 4-5 3-5 3-4 2-5 2-3 1-4 2-7 0-11-1-3-1-2 0-3 0-1 0-4 0 0 1-2 3-1 2-1 2-1 4-2 3-3 8-4 4-3 5-3 5-2 5-3 5-3 4-2 4-2 3-3 4-1 3-1 2-1 2-1 1-1 1 0 0 2-1 1 0 0 0 2-1 2-3 4-1 3-3 7-2 4-3 5-2 5-2 5-2 4-1 5-3 5-1 4-1 4 0 3 0 5 0 3 1 1 1 2 3 2 2 1 2 1 3 0 3 1 7 0 9-3 5-1 4-2 5-2 5-4 5-4 5-2 4-5 5-3 3-5 5-3 3-4 3-3 3-2 3-3 2-2 1-2 2-1 1-2 0 0 0-1 1-1 0-1 0 1 1 1 0 1 0 2 0 1 1 2 2 2 0 3 0 2 1 3 1 2 2 3 1 3 2 6 3 3 1 3 2 2 2 3 2 2 1 1 2 2 2 1 3 1 1 1 3 1 2 1 2 0 2 0 3 1 5 0 3-1 2 0 3 0 3-2 3-1 3 0 3-2 4-2"/>
<path d="M6013 5475l-1 1 0 1-1 1-1 1-1 2-1 2-1 2 0 1 0 12 0 1 0 2 1 1 0 2 1 0 0 2 0 0"/>
<path d="M5995 5384l-1-1-1 0-2-1-1-1-1 0-3-1-2 0 0 0-2 0 3 3"/>
<path d="M6054 5613l 0-1 2 0 0 0 1 0 1-1 1 0 1-1 3-1 2-1 2-2 3-2 3-3 4-3 4-4 4-4 5-5 4-5 5-5 5-6 5-5 5-7 6-6 5-8 5-7 6-7 5-8 5-8 5-8 9-16 3-7 4-8 3-8 3-8 2-8 3-8 1-7 2-8 1-7 1-7 0-8 1-7 0-8-1-7 0-6-1-8-2-7-1-8-1-7-2-8-2-7-1-6-3-7-2-5-2-5-1-4-2-3-2-3-2-2-2 0-2-1-1 0-2 1-3 1-3 2-3 3-4 4-4 5-3 5-4 7-5 8-4 8-4 9-4 10-7 22-4 12-4 12-3 13-3 13-4 13-3 15-3 13-2 13-1 12-2 13 0 12 0 12 1 20 2 10 2 9 2 8 3 7 3 6 4 6 4 5 5 4 6 4 6 3 6 1 7 1 8 1 8 0 8-1 8-1 9-3 8-2 9-2 9-3"/>
<path d="M6314 5527l-2-2-2-1-2-1-3-1-2-2-2-2-2 0-1-2-2 0-2-2-1-1-2-1-2-1-1 0-2 0-3 0-2 0-2 1-3 1-3 2-3 2-3 2-4 4-3 3-5 4-3 5-4 5-4 5-4 6-4 5-3 6-3 5-4 5-2 5-3 6-1 4-2 5 0 5-1 4 0 5 1 3 1 4 1 2 3 3 2 2 3 2 2 2 4 2 4 0 9 0 6-1 6-1 6-3 7-3 7-4 7-6 8-5 7-7 7-6 7-7 8-8 6-8 6-8 6-8 6-8 15-25 3-9 5-8 3-8 3-9 3-8 3-9 3-9 2-8 1-8 2-9 0-8 1-8 0-9 1-8 0-25-2-17 0-10-2-8-2-9-1-9-2-9-2-9-2-8-2-8-2-7-2-7-2-6-3-4-1-4-2-2-2-2-1-2-2-1-3 0-2 1-1 2-2 1-2 2-3 4-3 5-4 6-3 7-3 9-3 9-3 12-3 12-2 12-3 13-1 15-1 15-1 15-1 15-1 15 1 14 1 16 1 15 0 14 2 15 2 14 2 15 3 12 3 14 3 12 5 12 4 12 5 10 6 10 11 18 6 8 7 8 7 7 6 7 8 5 7 7 7 6 7 4 7 6 7 4 7 4"/>
<path d="M694 -14050l 0-1-2-2-1-1-1 0 0-1-2-3-1-1 0 0 0 3-1 2 0 1-1 2 0 2-1 3-1 3-1 4-2 4-1 4-1 5-3 5-2 6-2 6-4 13-2 7-3 7-2 6-2 8-3 7-2 8-2 7-2 7-1 8-2 7-1 7-1 6-1 13 0 11 0 5 0 5 2 4 1 4 2 3 2 4 2 3 3 2 3 3 3 2 9 3 3 1 10 2 5-1 5 1 25 0 6-1 7-1 7 0 7-1 7-1 8-1 14-2 14-1 12-2 13-1 12-2 10-2 20-3 9-2 9-2 9-1 10-2 8-1 18-3 7-1 9-2 8-1 7 0 6 0 6-1 6 0 5 1 3 0 4 0 4 1"/>
<path d="M864 -13971l-1-1 0 0-1 1-2 0 0 1-1 0 0 3-1 2 0 7 1 4-1 6 1 7 1 7 1 9 2 9 0 9 2 10 2 11 1 11 2 11 2 12 1 11 1 11 2 12 2 11 1 11 1 10 1 9 2 10 1 10 1 9 2 9 1 17 2 8 0 9 1 8 2 7 0 7 1 6 2 6 2 6 1 5 1 5 2 4 2 4 2 3 6 4"/>
<path d="M1260 -13871l-1 0-2-1-3 0-2 0-1 0 0 0 1 0 0 1 2 1 1 2"/>
<path d="M1271 -13798l-2 0-2-1-2 1-1-1-2 0 0 1 0-1 2 0 1 0 1 0 3 0 2 0 4 1"/>
<path d="M1955 -14050l 0-1-1 0-1-1-1-1-3-1-3 0-2 1-3 1-2 1-3 2-3 4-4 4-4 5-4 6-5 6-4 8-4 7-4 9-3 8-4 9-3 9-2 8-2 8-1 8-1 7 0 14 1 5 2 5 1 6 2 5 4 5 3 5 5 5 5 4 5 4 6 3 7 3 6 3 7 1 7 1 7 2 7 1 15 0 7-1 8-2 8-2 8-2 9-3 8-4 9-4 9-5 9-5 8-6 9-6 9-6 14-13 6-6 6-8 5-6 5-6 4-6 2-7 3-6 0-6 0-12 0-6-2-6-2-7-3-7-3-7-5-6-5-7-5-7-6-5-4-3-3-2-7-5-4-3-5-2-4-1-5-2-4-2-5-1-4-2-4-1-5 0-8-1-7 0-4-1-6 1-2 0-2 0-2 0-2 1-2 2-1 2"/>
<path d="M2890 -14040l-1 0-1 1-1 0-2 3-1 2-3 3-2 2-3 5-2 4-3 6-2 6-3 8-2 7-3 9-2 8-2 9-1 8-2 10 0 8 0 7 1 16 1 7 2 7 3 6 3 7 2 6 5 6 3 5 5 5 5 4 6 4 6 2 8 3 7 1 8 1 9 0 8-2 10-2 10-3 8-4 10-4 9-6 8-6 8-5 7-6 8-7 7-5 5-7 6-6 5-6 4-6 4-5 4-6 1-6 2-4 1-6 0-5-2-6 0-6-2-6-3-5-3-7-4-5-4-5-4-5-5-5-5-4-5-4-12-7-5-4-10-6-5-2-6-1-4-2-5-2-8-1-2 0-3-1-3-1-2 0-1 1 0 2"/>
<path d="M3614 -14037l 0-1 1 0 0 0 1 0 0 0 0 0 0 0-1 0 0 1 0 0 0 1-1 0 0 0-2 3 0 0-1 1-1 1-1 2-1 2-1 3-2 3-1 4-2 4-2 4-2 6-2 5-1 7-2 6-1 7-1 6 0 19 1 5 1 6 2 6 1 5 2 5 3 5 4 5 3 4 4 4 5 5 4 3 5 4 12 5 6 3 6 2 6 1 7 2 7 1 7 1 8 0 7-1 8-1 7-1 8-2 8-2 8-3 9-2 8-3 7-4 8-3 8-4 7-4 6-4 6-5 5-4 5-5 5-4 3-5 3-5 2-5 2-5 1-4 1-6-1-5-1-5-2-7-3-6-4-6-4-6-5-6-5-6-7-5-5-5-7-4-8-4-7-4-8-4-9-2-8-3-8-2-7-2-8-1-7-1-5-1-7 0-10 2-8 1-4 2-3 1-3 2-2 2-1 2"/>
<path d="M4350 -14067l-1-1 0-1-1-1-2-1-1-1-2-1-2-2-2-1-7 0-1 1-2 1-3 1-2 2-3 3-2 2-4 4-3 4-3 5-3 7-2 7-3 7-2 7-3 9-1 9-1 9-1 8-1 9 2 15 1 8 2 7 2 7 3 6 4 6 4 6 4 5 5 5 5 5 5 5 6 4 6 4 7 3 6 4 7 3 8 2 7 3 8 1 8 1 9 0 8 0 7 0 8-1 8-2 8-2 7-3 7-3 7-4 7-5 7-4 6-5 5-5 5-6 4-5 4-6 2-6 3-6 1-7 1-7 0-8-1-7-1-8-3-7-2-8-3-9-4-7-4-8-4-8-5-8-5-7-5-8-6-7-5-7-5-6-3-2-3-3-3-2-3-3-3-2-4-1-3-2-4-1-3-1-4-1-4-1-10 0-7 1-6 1-6 2-4 4-4 5-3 5-2 5"/>
<path d="M5159 -14033l-1-1-8 0-3 1-4 1-4 0-3 1-3 2-4 1-4 1-3 3-4 2-3 3-4 4-3 5-5 5-3 6-3 6-4 6-3 7-2 7-3 8-2 6-2 8-1 7 0 7-1 7 1 6 1 7 2 7 1 6 3 5 3 7 3 5 4 5 4 4 5 4 6 4 6 3 7 3 8 2 8 0 9 1 9-1 9 0 9-2 9-3 10-3 9-4 10-5 10-5 9-6 9-6 10-5 9-6 8-5 8-6 7-6 7-5 6-5 5-5 4-5 3-5 3-5 5-8 0-5 1-5 1-5-1-5-1-6-2-6-2-6-3-6-3-6-4-5-4-5-5-5-5-5-6-5-6-5-5-4-7-3-13-5-6-2-7-2-5-1-7 0-5 0-5 0-5 1-5 1-8 3-4 1"/>
<path d="M1947 -13160l-1-2-3-2-2-1-2-1-3-2-3-1-2-2-7 0-2 1-3 1-1 2-2 1-2 3-2 3-2 4-2 4-2 5-2 6-2 7-1 8-2 8-1 9-1 10-1 11 0 11 1 11 0 11 1 11 1 10 2 10 2 10 4 8 4 8 4 8 5 7 5 6 6 6 6 4 6 4 8 4 7 3 7 2 8 3 17 1 8 0 9-1 8-1 9-2 9-3 8-4 9-4 8-4 8-5 7-5 6-6 6-5 5-6 3-5 4-6 2-5 2-6 2-5 0-5-1-6-1-5-3-5-3-5-4-5-6-4-7-5-7-4-8-4-9-5-9-3-9-4-10-3-11-4-20-6-10-3-9-1-10-2-8-2-15-1-7-1-10 0-5 1"/>
<path d="M2839 -13138l-1 0-3 1-3 2-4 2-3 2-5 3-3 2-4 4-3 3-3 4-3 4-3 4-2 5-2 5-2 6-2 5-1 6-1 6 0 6 1 6 1 5 2 6 2 5 2 5 4 5 3 4 4 4 4 3 6 3 5 3 6 2 7 2 6 1 7 1 22 0 8-1 8-1 8-1 8-2 7-1 7-3 7-2 7-3 6-3 5-3 6-4 3-3 5-4 4-4 3-4 2-3 2-4 1-3 1-3 0-3-1-3-1-3-1-3-3-3-4-3-3-4-5-4-6-4-7-4-6-5-7-3-8-5-8-4-8-4-8-4-9-3-8-3-8-3-7-3-8-2-6-1-6-2-10 0-4-1-3 2"/>
<path d="M3546 -13104l-2 1-4 3-4 4-4 3-5 5-5 5-4 5-3 5-3 5-2 5-2 6-1 5-1 5-1 6 0 5 0 5 0 5 2 4 0 4 3 4 2 4 3 3 3 3 4 3 4 3 5 2 6 2 5 1 7 1 7 2 14 0 7-2 8-1 9-2 8-2 9-2 9-4 7-3 9-4 9-5 7-5 6-5 7-5 5-5 4-5 3-5 2-5 1-4 0-5 0-4-3-5-2-4-3-4-4-4-4-5-6-4-5-5-6-4-6-5-7-4-7-3-7-5-7-3-6-3-6-3-6-3-5-2-6-1-4-2-5-1-3 0-5 1-2 1-4 1-3 2-2 3-3 3-2 4"/>
<path d="M4381 -13152l-3 1-3 0-3 0-5 2-5 1-5 2-5 3-5 3-4 4-4 5-4 5-4 5-3 7-3 6-3 7-2 8-2 6-1 7 0 7 0 7 1 8 2 7 2 6 3 7 3 6 4 6 3 5 5 4 5 4 5 4 5 3 6 3 6 2 8 3 7 1 8 1 9 0 8-1 10-1 9-2 9-2 9-3 8-3 8-3 7-4 8-4 6-4 5-4 4-4 4-5 2-5 1-5 1-5 0-5-1-5-2-5-3-6-3-6-5-5-5-5-6-6-6-5-7-5-7-5-8-4-7-5-8-4-8-4-7-2-8-3-8-3-7-2-6-2-6-1-6-1-5-1-4 1-11 2-3 2-3 2-2 2-3 6-1 3 0 3"/>
<path d="M5202 -13102l-4 1-4 3-5 3-5 4-6 5-6 5-6 5-4 6-4 5-2 6-2 6-1 5-1 5-1 5 1 5 1 4 2 5 3 4 3 4 3 4 4 4 5 4 10 6 5 2 7 3 6 0 7 2 7 0 21 0 16-2 7-3 8-2 8-3 8-4 8-4 7-4 8-4 6-4 6-5 6-5 5-5 4-5 3-5 3-5 2-5 1-5 0-5 1-5-1-5-1-5-1-5-2-4-2-5-3-4-4-4-4-5-4-3-5-4-6-3-7-3-5-2-7-2-7-1-7-2-7 0-23 0-8 1-7 1-8 2-7 3-7 2-7 3-7 5"/>
<path d="M723 -11860l 0-1-1 0 0-3 0 0 0-4 1-1 1 0 2-1 2-1 6 0 3 0 20 0 7-1 26 0 13 1 12 0 11 1 9 1 9 2 6 1 6 0 6 2 4 2 4 2 3 1 2 3 2 2 1 3 1 2 0 3 0 2-2 5-2 4-3 4-3 6-5 6-7 7-6 8-4 4-5 5-5 5-6 6-7 5-7 8-7 7-8 8-8 7-9 9-8 9-10 9-8 9-10 10-9 9-9 11-9 10-9 10-8 9-8 9-6 8-6 8-6 8-5 7-4 6-3 6-3 6-3 4-2 4-2 4-1 3-1 2-1 3 0 2 1 1 1 2 1 1 2 1 2 0 3 1 3 1 3 1 3 0 5 1 4 1 6 0 6 1 7 0 8 0 8-1 19-1 18-1 19-3 20-3 20-4 19-4 19-4 17-5 16-5 17-6"/>
<path d="M1160 -11823l 1 1 3 2 2 1 0 2 3 1 2 2 2 2 3 3 2 2"/>
<path d="M1134 -11680l-1-1-9 0 1 0 0 0 1 0 1 0 1 0 2 0 2 1"/>
<path d="M2060 -11985l-1 0-2 1-2 2-3 1-3 3-4 4-4 5-3 5-3 6-4 7-2 8-4 9-2 10-3 10-2 10-2 10-2 11-1 11-1 11 0 20 2 9 1 8 2 8 3 7 3 7 4 5 4 5 5 4 6 4 6 2 6 2 6 1 8 0 8 0 9-2 9-3 10-4 10-4 10-5 12-7 10-7 11-8 10-7 10-8 9-9 8-8 8-7 6-8 6-7 5-6 4-7 3-6 3-7 1-6 1-6 0-5 0-6 0-5-2-6-2-5-3-5-3-5-4-5-3-4-5-4-5-5-5-3-5-4-5-3-6-2-6-2-6-1-11-2-11 0-10 2-5 1-5 2-4 2-4 4-4 3"/>
<path d="M2873 -11914l-2-1-5 0-4 1-3 0-5 1-4 0-3 2-4 2-4 1-3 3-4 3-5 4-4 5-4 5-3 6-4 7-3 6-2 8-3 7-1 8-1 8-1 8 0 7 1 8 0 6 2 6 3 6 2 6 4 5 4 4 5 4 6 3 6 2 8 3 17 1 9-1 9-3 10-2 12-3 10-3 12-4 11-5 12-6 10-6 11-6 10-6 9-6 8-6 6-7 5-5 4-6 4-5 2-5 1-5 0-4 0-5-3-8-3-4-4-4-4-4-6-5-5-4-7-3-7-3-8-4-17-4-8-2-8-1-8-1-15 0-7 0-12 2-5 1-4 2-4 2-2 3-3 2"/>
<path d="M3605 -11902l 0-1-1 0 0 1-1 0-3 1-1 2-3 2-3 2-3 2-4 4-5 4-5 4-4 6-6 6-5 6-5 8-5 7-5 7-4 7-3 8-4 7-2 7-2 7 0 5 0 11 1 4 2 4 2 4 2 4 3 3 4 3 4 3 5 3 6 1 6 1 7 1 7 0 8-1 8-2 9-2 9-2 9-3 8-3 10-3 8-4 8-3 8-4 7-4 7-4 5-5 5-3 5-4 2-3 3-4 2-3 1-2 1-3 0-5-2-3 0-3-2-3-3-4-3-4-4-3-4-4-5-4-5-3-5-4-6-3-6-3-6-3-6-2-7-3-5-2-7-2-5-2-6 0-4-1-8 0-3 1-3 2-3 2-3 2"/>
<path d="M4460 -11928l-1 0-1 1-1 0-1 3-2 2-1 3-1 4-1 5-1 6-1 5-2 7-1 8 0 8-1 9-1 17-1 8 0 18-1 9 0 24 1 8 0 15 1 6 0 8 0 7 0 19 1 6-1 7 1 6"/>
<path d="M5125 -11920l 1 0-1 1 0 1-1 2 0 3-2 2-1 5-1 5-1 5-2 7-1 7-1 7-1 8-2 8-1 10-2 8 0 10-1 10-1 9-1 11 0 80 1 10 0 10 1 10 1 9 0 9 3 19 2 8 1 10"/>
<path d="M2048 -11099l-1 0 0 1-1 1-2 2-1 3-1 3-2 4-1 5-1 6-1 6-2 8-1 8-1 7 0 9-1 9 0 29 1 10 0 9 1 10 0 9 1 9 1 9 0 10 1 7 1 8 1 8 2 8 2 8 3 6 3 7 3 6"/>
<path d="M2740 -11121l 1 0 0 4-1 3 1 3 0 4-1 5 0 6 1 6 0 8 0 8 1 9 1 9 1 9 1 10 1 9 1 9 1 10 1 9 1 8 1 9 1 9 1 8 1 8 1 8 1 8 0 8 1 7 2 7 1 8 1 7 2 6 1 7"/>
<path d="M3636 -11154l 0 1-1 0 0 3-1 2-1 3-1 3-1 4-1 5-2 5-1 5-2 6-1 7-1 6-1 6-1 6-1 7 0 6 0 6-1 6 0 7-1 7 0 20-1 8 0 16 0 9 0 8"/>
<path d="M4439 -11102l-1-1-5-3-3-1-2-1-4-1-4-1-2 0-3 1-3 1-4 1-3 2-3 3-4 3-3 3-4 5-3 5-5 5-3 7-4 6-3 7-3 8-2 9-2 8-1 8-1 9 0 8 1 9 0 8 2 7 3 7 3 7 3 6 4 6 5 5 5 5 6 4 6 4 6 2 7 3 8 2 7 1 8 2 7 0 8-1 8-1 9-2 8-2 9-3 8-4 9-3 8-4 8-5 8-4 6-5 6-5 7-6 5-5 4-5 4-5 3-5 2-5 1-5 1-5-1-4-1-4-1-5-2-4-3-5-4-4-4-5-5-6-5-5-6-5-6-4-6-5-8-4-6-4-7-4-7-2-7-3-6-2-7-2-7-1-18 0-5 1-8 2-3 1-3 1-2 2-1 1-2 2-1 2 1 2 1 2"/>
<path d="M4919 -11080l-2 0-2 1-3 1-3 2-3 2-3 2-3 3-2 3-2 3-1 4 0 5-1 5 0 10 1 6 1 4 2 6 2 5 3 6 3 5 4 6 3 5 5 4 5 5 5 4 6 4 6 3 6 3 7 2 6 2 7 2 7 1 7 3 8 0 7-1 8 0 8-1 8-1 9-2 7-2 9-3 8-3 8-3 8-4 7-4 8-5 7-4 7-5 6-5 5-4 5-5 3-4 4-4 2-3 2-5 1-3 0-5-1-4-2-5-3-4-4-5-5-5-6-6-6-4-8-5-7-5-9-5-9-4-9-5-9-3-10-3-9-3-10-2-10-2-9-2-9 0-10 0-8 0-8 0-8 1-7 1-6 2-6 2-5 2-4 3-4 4"/>
<path d="M3996 -12220l 0-6-1-4 0-4 0-3 0-14 0-1 0-2 1 0 0-1 1 0 0 4 0 1 0 2 1 3 1 4 1 5 0 6 0 7 1 8 0 32-1 14 0 14-1 14-2 17 0 17 0 17-1 19-1 38 0 20-1 20 0 20-1 20 0 37 1 20 0 19 1 19 0 19 0 20 2 19 0 19 0 20 2 20 1 20 1 20 1 22 1 22 2 23 0 23 2 23 0 24 1 24 0 77-1 25-1 26-1 26-1 27-1 27-1 26-1 27-1 26-1 25-1 26-1 26 0 25-1 25-1 25 0 25-2 25-1 24 0 25-1 24 0 48-1 24 0 183 0 23 0 146 0 18 0 155 1 20-1 19 0 20 0 20 0 83-1 20 0 23-1 22 0 22-1 22 0 21-1 21-1 22 0 20-1 20-1 20-1 18-1 19-1 18 0 16 0 17 0 33-1 17 0 33-1 17 0 32-1 17 0 17-1 16 0 16-1 17-1 17-1 18-1 17-2 19 0 19-2 17-1 19 0 18 0 18-1 17 0 16-1 15 0 125 1 13 0 29 1 15 0 87-1 10 0 22-1 11 0 63 1 10 0 8 1 8 0 9 0 16 1 8 0 16 1 9 0 31 1 6 0 6 0 5 0 39 1 3 0 8 0-2-1 0 1 0 1-2"/>
<path d="M7502 -14100l-1-1-1-1-2-2-1-1-1-1-3-1-2-2-3-1-2-1-4 0-4-1-4-1-4 0-9 2-5 1-5 2-5 2-6 3-6 4-11 6-10 8-10 9-9 7-8 8-5 8-5 7-4 6-2 5-2 5-1 4 0 9 1 3 0 4 3 3 2 3 2 3 3 2 4 2 4 1 5 2 6 1 6 2 19 2 7 0 7 1 6 0 6 1 24 0 6 1 5 0 4 0 9 2 3 1 4 1 3 1 3 2 3 1 2 2 2 2 2 2 1 1 1 2 1 3 0 2-1 2-1 3-1 3-2 2-2 4-3 4-3 4-5 4-4 5-5 4-6 5-5 5-5 5-6 3-6 4-12 7-6 4-6 2-6 3-5 2-5 1-4 1-4 1-5 0-2-1-2-2-1-2 0-5 2-4 2-4 3-5"/>
<path d="M7606 -14057l 1 0-1 0 0 1-1 0 0 1 0 1-1 0 0 1-1 0 0 0-1 1 0 1-1 1-1 2-1 2-1 3-1 4-2 3 0 5 0 3-1 4 1 3 0 3 1 4 1 3 3 3 2 3 2 3 3 3 3 2 3 2 4 2 3 1 7 1 4 0 4-1 4-1 4 0 4-2 4-1 4-2 4-3 3-2 3-3 3-3 3-3 2-3 2-2 2-3 0-3 2-2 1-3 0-8-1-2-2-2 0-2-2-2-1-2-2-2-3-1-2-2-2-1-3-1-3-1-4-1-3 0-2-1-3 0-3 1-5 0-2 1-1 0-1 1 0 0 0 2 0 0 1 0 1 1 1 1 2 1 2 0 12 0 3 0 5-2 3-1 5-2 4-2 4-2 2-1 2-1 5-3 2-1 3-2 2-1 3-2 3-1 2-2 3-2 2-1 3-2 3-2 3-1 3-2 3-2 4-3 2-1 2-1 2-1 2-1 1 0 1-1 1 0 2 0 1 0 0 0 1 0 1 1 0 2 3 2 0 1 2 3 3 4 2 4 2 5 2 4 2 5 2 4 1 5 1 3 3 4 1 4 1 4 2 3 2 4 1 3 2 3 1 4 1 3 1 3 1 3 2 2 0 3 1 2 1 2 0 2 1 1 0 1 1 0-1-1 0-1-1-2-1-4-1-3 0-3-2-3-1-4 0-4 0-8 0-3 0-5 2-4 2-5 1-2 2-3 1-2 2-3 3-3 2-3 3-3 3-3 4-4 3-3 4-4 5-3 4-4 5-4 5-4 6-3 5-5 6-3"/>
<path d="M7946 -14285l-1 0-1 1 0 3-1 2 0 24 1 6 0 7 1 16 0 9 1 9 1 9 3 30 1 10 1 10 3 19 2 18 3 16 2 15 3 13 4 11 3 9 4 8 4 6 5 6 5 5 5 5 5 4 5 3 7 4 6 2 7 1 8 0 9-1 8-1 10-3 9-3"/>
<path d="M7868 -14057l-1-1-1-2-3-1-1-1-1-1 1-1 0-1 1-1 1-1 3-1 2-3 4-2 4-3 6-3 6-4 8-3 8-5 10-5 10-5 12-6 12-6 15-6 15-7 16-7"/>
<path d="M8427 -14095l-1-1 0 0-1 0 0-1-1 0-1-1 0-1 0-1 0-4 0-2 1-3 2-4 1-3 1-5 3-6 2-6 5-7 3-7 5-9 5-9 4-9 6-10 5-10 5-11 6-11 5-12 5-11 5-12 5-12 5-12 7-24 4-12 3-13 2-12 2-12 2-12 1-12 1-12 2-11 0-11 0-10 1-10 0-45-1-3 0-5 0 2 0 10 0 5 0 6 1 7 1 9 1 9 2 10 1 9 1 11 3 12 2 11 3 12 3 13 4 12 3 12 9 23 4 12 5 10 5 10 5 10 6 9 6 9 7 8 6 9 7 8 6 7 7 8 7 7 7 6 6 5 7 6 6 6 6 5 7 4 6 4 5 4 6 3 5 2 5 2"/>
<path d="M8441 -14182l 0-1 1 0 0-1 4-4 2-3 3-2 4-3 4-2 6-4 5-4 7-4 8-4 9-5 10-5 10-6 11-6 12-5 13-6 12-6 14-5"/>
<path d="M713 -10089l 0-1 0 2 1 2 0 4 0 2 0 3 1 5 0 3 1 5 1 6 0 6 0 7 0 7 1 8 0 16 1 9 0 26-1 9 0 131 1 7 0 7 0 7 2 7 1 6"/>
<path d="M1153 -10017l 1-1-1 0-1 0 0 0 0 2 0 0 0 0 1 0 1 1 1 2 3 2 2 3 3 2"/>
<path d="M1215 -9912l-1-1-3 0 0 0 0 0 0 0 0 0 4 0 1 0 3 1 2 1"/>
<path d="M2091 -10066l-1-2 0-2-1-2-1-1-1-2 0-2-2-2 1-1 1 0 0 2 0 1 0 2 1 3 0 6 1 4 0 11-1 6-1 6 0 7 0 7-1 8 0 8-1 8-1 9-1 8-1 8-2 9-1 9-2 9-2 9-2 10-2 10-1 10-2 10-1 10 0 10 0 10 1 9 2 9 2 7 3 8"/>
<path d="M2738 -10024l-1-1 0-1-1-2-1 0-1-2-2-1-3-2 0 0-7 0-4 1-2 1-4 1-3 2-2 3-3 2-4 3-3 5-4 4-4 5-3 5-4 6-3 6-3 6-4 7-2 6-2 7-1 7-3 8 0 7 0 7 0 7 1 7 2 7 2 7 3 7 3 6 4 5 5 6 5 5 6 5 7 4 7 4 8 3 8 3 9 2 10 1 10 1 9 1 10-2 10 0 11-1 10-2 10-2 10-3 10-2 9-4 9-3 9-3 8-4 7-4 7-3 7-4 6-4 6-4 5-4 5-4 3-4 4-3 3-5 1-3 1-4 1-3 1-4 0-3-1-4-1-4-4-7-3-4-5-4-4-4-6-4-5-4-7-4-7-4-7-4-7-4-8-3-7-4-8-3-7-2-7-2-7-3-6-2-5-1-4-2-4 0-3-1-3 0-2-1-1 1-1 1 0 1 1 2"/>
<path d="M3570 -10025l-1-1-3-1-2-1-2-1-3-1-2-1-3-2-1-1-2 0-1 0-1-1-1 0-2-1-2 0-3 2-1 0-1 1-3 1-2 2-3 2-2 3-5 3-3 4-5 5-6 6-6 6-5 7-6 7-7 8-5 8-6 8-6 9-4 8-5 7-4 8-7 16-2 8-2 8-3 14 0 21 2 7 1 6 2 5 2 5 3 5 4 4 4 3 5 4 10 6 6 1 7 2 6 2 7 0 20 0 7-1 6-1 7-1 6-2 7-3 5-3 6-3 6-3 5-3 4-4 4-3 4-4 3-4 2-5 2-3 1-4 1-5 2-3 0-8-1-4-2-5-1-4-3-5-2-4-4-5-3-5-4-5-5-5-4-4-6-5-5-4-5-4-5-5-4-3-5-5-5-4-4-3-4-3-4-2-4-3-4-2-4-1-3-2-3-1-3-2-2-1"/>
<path d="M2156 -9232l-1-3-1-1-2-3-2-2-1-2-2-3-2-3-2-2-3-3-3-2-1 0-1-2-3 0-2-1-2-1-5 0-3 1-7 1-3 2-5 2-4 3-5 4-5 4-5 5-5 6-6 7-5 7-10 16-5 9-4 10-4 10-2 10-3 10-2 10-2 11 0 20 1 9 1 9 3 9 3 9 4 8 5 7 5 6 7 7 8 5 8 5 10 5 10 4 11 2 11 1 12 1 13 0 12-1 13-2 12-3 13-4 12-3 13-5 12-5 11-5 12-5 10-5 10-7 10-6 8-5 9-6 7-6 6-7 6-6 5-5 4-5 4-5 3-4 2-5 1-3 1-4 0-8-1-3 0-3-1-4-2-3-2-4-3-4-2-5-4-3-3-4-3-5-5-4-8-7-5-4-3-3-4-2-5-3-3-2-4-2-3-1-3-2-3-1-3-2-2 0-2-1-5 0 0 1-2 3"/>
<path d="M2891 -9201l 0-1-1 0 0 0-1-1 0-1 0 2-1 0 0 7-1 5 0 5-1 7-1 8 0 9-2 10-1 11-2 10-1 11-1 12-1 12-2 12-3 23 0 11-1 11-1 11 0 10 1 10 1 10 2 10 2 10 3 9 3 9"/>
<path d="M3440 -9180l-1 0-3 1-3 2-4 2-5 3-4 3-5 5-4 5-4 5-4 5-7 13-2 6-3 6-1 7-1 6 0 7 1 7 1 6 3 6 2 6 3 5 3 5 4 5 5 5 5 5 6 4 6 4 6 2 7 3 5 2 7 2 7 1 6 0 7 0 8 0 7-2 7-1 8-3 7-3 8-3 8-3 7-5 8-4 7-4 7-5 6-5 7-6 6-6 6-5 5-6 4-6 4-5 3-5 3-5 3-5 2-5 2-4 0-4 1-5 0-4-1-4 0-4-2-3-2-4-3-4-3-3-5-3-4-3-5-3-6-3-6-2-6-1-8-1-7-1-8 0-15 1-16 3-7 2-8 2-6 3-8 3-6 4"/>
<path d="M4519 -10107l-2 0-2 1-1 1-1 2-1 3-2 2-1 5-2 5-2 8-2 7-2 8-2 10-2 10-2 12-2 11-2 12-1 11-2 11 0 12-2 11-1 12 0 9 0 10 0 19-1 9 1 9 0 17 0 8 0 8 1 7 1 7 1 6 1 6 1 5 2 5 2 5 2 3 2 4 3 3 4 3 3 2 4 1 3 1 5 2 5 0"/>
<path d="M5035 -10129l 1 1 1 1 1 1 1 1 1 3 1 1 1 2 2 3 0 4 1 4 1 6 0 6 1 8-1 8 0 10 0 11-1 11-1 12 0 12-1 12-2 13 0 13-2 24 0 13 1 11 0 11 1 12 1 10 2 10 1 11 1 10 3 10 1 9 2 10 2 10 2 9 1 9 2 8 2 9 1 8 2 7 0 7 2 7 1 6 1 6 1 6 0 5 1 5"/>
<path d="M4461 -9345l 0 2-1 3 0 4-1 5-1 6-1 7 0 9-1 9-1 10 0 10 0 11 0 44 0 11 0 10 1 12 2 32 1 11 0 10 1 10 0 21-1 11 0 8-1 10-1 9 0 25 1 8 0 6 1 6 1 6 1 5 1 5 2 4 1 4"/>
<path d="M4966 -9275l-1-1-1 0-2-1-2 1-1-1-5 0-2 1-3 0-4 2-3 2-3 3-4 3-5 2-4 4-4 4-5 5-4 5-5 6-4 6-4 7-5 7-9 16-4 8-5 8-4 9-3 8-3 9-3 9-2 9-2 8-1 9-1 8 0 7 1 7 1 6 2 7 3 6 4 5 4 5 10 8 6 3 6 3 7 2 7 1 24 0 9-1 17-3 9-3 9-3 10-3 9-4 9-5 9-4 8-4 8-6 8-5 7-5 7-6 7-5 6-6 6-6 5-6 5-5 4-5 4-6 3-5 2-5 2-5 1-6 0-5 0-5-1-5-1-5-3-5-2-6-3-5-4-6-3-5-5-5-5-4-5-5-7-5-6-4-6-5-7-3-7-5-7-3-8-3-14-6-8-2-6-2-7-2-7-2-5-1-6-1-6 0-4 0-14 0-8 1-4 1-3 1-4 2-3 2-3 3"/>
<path d="M1425 -7502l 1-4 0-2 2-10 1-7 2-7 2-8 2-8 2-8 2-9 3-8 3-10 3-9 3-10 2-9 2-9 2-9 2-9 0-8 1-6 0-6-1-5-2-5-2-3-2-3-2-2-4 0-3-1-5 1-4 1-5 2-6 4-8 5-7 7-9 9-9 10-10 11-10 13-10 14-9 15-10 16-9 15-9 16-8 16-8 16-8 16-8 16-7 15-6 14-5 14-5 14-3 13-4 11-2 11-1 9 0 9 0 7 1 6 2 6 3 3 4 4 5 2 5 1 6 1 7-1 8-2 9-3 9-3 9-6 10-7 9-8 10-9 9-9 8-10 8-10 8-11 7-10 7-12 6-11 7-9 5-11 5-10 5-9 3-9 3-7 3-7 2-6 2-6 2-3 0-4 0-1 1-3 0-1-1 0 0 1-1 0-1 0 0 1 0 1 0 6-1 2 0 28 1 5 1 7 1 5 3 5 5 12 3 6 4 6 4 5 4 4"/>
<path d="M1621 -7477l 0 1-1 0 0 0 0 0 0 0 1 1 2 1 1 0 2 1 2 0 2 0 4 0 3-1 5-1 4-2 5-2 6-3 5-4 6-6 6-6 7-7 6-8 7-8 14-22 8-11 7-12 9-13 8-14 7-14 8-13 7-14 8-15 7-16 8-15 6-15 7-16 7-17 6-17 6-16 5-17 5-15 4-18 3-15 2-16 1-16 2-17 1-16 0-16-1-16-2-15-1-16-2-15-2-14-2-13-3-11-3-10-4-9-3-7-3-5-4-4-3-1-4-3-4 0-4 0-4 0-5 3-6 2-4 5-5 5-5 7-6 8-5 11-6 12-6 15-5 15-5 17-6 20-5 21-5 22-5 23-4 24-4 24-4 24-3 23-2 24-3 23-1 23 0 22 1 22 3 20 2 20 4 19 5 19 6 17 6 18 6 17 7 15 7 15 8 14 9 13 8 12 9 10 9 9 9 9 9 7 9 6 9 3 9 3 9 2 7 0 8 0 7-1 8-2 5-2 6-3 6-3 5-4 4-4 9-10 2-5 4-6 2-6 2-7 2-6 2-7 1-7 0-20-1-7-2-8-1-7-3-8-2-7-3-8-3-6-3-7-3-7-4-5-3-7-2-5-3-5-2-5-3-5-2-3-1-4-2-3 0-2-2-1 0-2 0 2"/>
<path d="M2252 -7555l-4-2-5-2-6-1-6-1-8-2-7-2-7-1-6-2-15-2-5-1-8 0-4 0-5 2-3 1-4 2-3 2-3 4-5 4-2 4-5 5-3 6-3 5-4 7-3 7-2 8-3 7-2 6-1 7-1 6 0 6 1 6 1 5 1 5 1 5 3 3 2 4 3 5 2 3 3 3 3 2 4 2 3 2 4 2 8 0 5-1 4-2 5-1 5-3 4-3 5-4 5-4 13-13 4-5 4-5 4-4 2-4 3-5 2-5 3-3 2-4 2-3 2-3 1-3 1-2 1-3 1-1 0-1 0-1-1 0 0 1-1 0 0 1-1 1 0 1 0 3-1 2 0 25 1 5 1 5 1 6 1 7 2 6 2 6 3 6 2 6 3 6 3 5 2 5 3 5 5 5 3 5 4 5 5 5 5 3 8 4 7 3"/>
<path d="M2638 -7564l 1-2-1-2-1-2 0-2-1-2-1-2-1-2 0-2-2-1-1-1-1-1-2-1-4 0-2-1-2 0-2-1-9 0-2 1-3 2-2 1-4 4-3 3-3 3-5 5-4 5-4 7-5 7-5 8-3 10-4 9-4 11-4 10-2 12-3 21-1 12 1 20 3 10 2 7 5 8 4 7 6 6 8 5 7 5 10 4 11 3 12 0 13 1 15-1 15-1 15-3 17-4"/>
<path d="M2979 -7515l-1-1-3-2-1-1-3-2-2-2-3-1-3-2-2-1-2-2-3-1-3-1-3-2-2-1-4-1-4-1-2 0-4-1-4 1-10 0-3 0-4 2-4 1-4 2-5 2-5 3-10 9-11 10-5 5-10 11-5 7-4 5-5 6-2 5-3 6-2 5-1 4 0 8 1 4 2 1 2 3 2 2 4 1 3 2 4 1 5 1 11 0 7-1 6-1 6-2 8-2 7-3 6-3 6-4 5-4 5-4 5-4 5-2 3-4 4-2 3-3 3-2 3-3 3-1 2-1 2-1 1-1 1-1 0 3-1 0-1 0 0 2-1 0 0 0-1 2-1 1 0 2-1 2-1 2 0 3-1 3-1 3 0 4 0 3 0 3-1 4 0 3 1 3 0 3 1 4 1 3 2 2 1 3 2 2 3 3 3 2 3 2 4 1 4 0 4 2 11 0 6-1 6-1 6-1 7-2 6-2 7-2 5-2 7-3 6-3 6-2 6-2 11-6 6-3 5-3 6-4 6-4 6-4 6-7 7-5 6-6 21-22 8-8 8-9 9-9 8-9 8-10 9-10 8-12 9-12 8-12 8-12 8-13 8-14 8-13 7-14 7-13 13-29 6-14 5-15 4-13 4-16 2-14 2-14 1-15 0-13 0-14 0-14-1-14-2-12-2-15-3-13-2-12-4-12-3-11-3-8-5-8-4-6-4-5-4-3-4-2-4-1-5 0-5 1-5 2-6 3-7 4-6 7-6 9-8 10-8 12-7 14-9 15-8 19-8 18-7 19-7 21-6 21-5 21-9 43-3 21 0 21-1 20 0 38 1 17 2 17 4 15 4 16 5 14 5 14 5 14 7 12 7 12 7 11 7 10 8 8 7 9 7 7 8 6 7 5 7 3 7 3 7 2 6 1 8 0 5-2 6 0 6-2 5-3 5-3 5-4 4-4 4-5 3-5 3-6 3-5 2-7 2-6 2-7 1-13 0-6-1-6 0-5-1-7-2-5-2-6-1-5-3-5-2-5-2-5-2-5-3-4-2-3-3-4-2-2-1-4-2-2-2-2 0-1 0 0 0 0 0 0 1 0 1 1 3 1 2 1 3 2 5 0 4 2 6 3 6 1 7 1 8 2 9 1 8 1 9 1 20 0 12-1 11-1 12 0 12-2 13-1 13-2 13-3 13-2 13-1 13-2 12-2 11-2 12-2 10-1 10-3 10-2 8-1 9-2 7-2 6-2 7-2 5-1 3-3 5-1 3-1 2-2 1-1 1-1 0-2-2-2-1-1-1-1-2-1-2-2-3-2-2 0-3-1-6-2-3 0-23 0-4 0-5 2-5 1-5 2-4 2-5 2-5 4-5 2-10 9-5 5-5 6-6 5-5 6-5 7-5 5-5 7-5 5-3 7-4 6-3 5-2 6-3 6-1 5-1 3 0 8 1 3 1 2 3 2 2 1 2 1 3 1 11 0 4-1 5-1 5-2 5-2 5-3 5-3 5-3 4-4 5-4 4-3 5-4 3-4 4-4 4-4 15-15 1-1 2-1 1-1 1-1 1 0 0 0 0 2 0-1 1 2 0 0 2 2 0 3 1 2 1 3 1 4 2 5 0 4 2 5 1 5 2 6 2 5 3 6 2 6 3 6 9 11 6 6 6 5 6 6 9 4 10 3 11 4 14 1 16 3"/>
<path d="M1257 -6868l-2-1-2 1-3 1-3 0-4 2-3 2-4 2-4 3-3 3-3 4-3 4-4 5-3 6-3 7-4 7-3 8-3 7-2 9-2 9-1 9-1 8-1 10 0 15 2 9 0 8 2 6 1 7 3 8 2 6 3 6 3 5 3 4 4 4 4 3 3 3 5 2 4 2 4 1 4 1 5 0 5-1 6-1 6-1 6-2 5-2 6-4 6-4 8-4 7-6 7-5 7-7 7-8 7-7 6-8 6-8 6-7 10-16 4-9 4-7 4-8 2-7 2-8 1-8 0-14 0-6-1-6-2-6-3-5-3-5-9-10-5-4-13-8-7-4-8-3-8-1-8-2-8-1-8-1-8 0-7 2-8 0-7 2-6 2-6 3-6 3-6 3-6 4-5 3-4 5-4 5-7 10"/>
<path d="M1814 -7031l-1-1-3 0-1 1-1 0-3 1-1 0-2 3-2 2-1 3-2 5-2 5-2 7-3 8-7 20-4 11-4 12-5 12-4 14-6 14-5 14-5 14-6 15-6 16-6 15-7 16-7 16-7 16-6 15-7 16-7 16-6 15-6 14-6 14-5 15-5 15-5 13-4 14-4 13-2 13"/>
<path d="M2140 -6889l 1 0 0 4 0 1 0 5 1 4 1 3 0 4 1 4 2 15 1 6 1 5 1 7 0 6 1 6 1 13 2 6 1 7 0 7 1 6 1 6 0 6 1 6 1 6 1 6 0 5 0 6 0 6 1 6-1 6 1 6-1 5 1 5 0 21 1 4 0 4 1 8 1 3 1 2"/>
<path d="M2697 -7138l 0 3-1 2 0 2 0 3-1 4-2 5 0 5-2 5-1 7-2 8-2 8-3 9-3 10-3 11-4 12-3 12-4 13-9 25-4 13-5 14-5 13-10 25-5 12-5 13-5 13-4 12-5 12-3 13-5 12-5 13-4 12-4 13-5 12-5 13-5 14-6 13-6 13-5 12-5 14-6 13-5 12-4 12-5 11-3 11-4 10-2 9-2 8-1 6"/>
<path d="M2883 -6979l 0 1-1 0 0 1-3 2-1 2-1 0-2 3-1 2-2 4-1 4-2 4 0 4-2 4 0 7-2 5-1 11-1 5-1 6 0 11 2 15 2 5 1 4 1 4 2 4 2 3 1 4 3 4 2 2 2 3 3 2 3 2 3 2 3 1 3 2 3 1 4 0 4 0 3 0 5 0 4-2 5-1 4-2 5-2 6-2 5-4 5-2 5-5 4-3 5-5 5-5 4-4 7-10 3-5 3-6 2-4 2-5 1-5 2-6 1-4 0-4 0-4 0-4-2-5-1-4-2-5-3-2-2-5-3-3-4-4-3-3-3-3-4-2-3-2-4-2-4-1-5-1-7 0-5 1-4 0-4 1-8 3-4 1-3 2-4 3-3 1-4 2-4 3"/>
<path d="M3282 -7154l-1 1 0 3-1 3-2 5-2 6-2 7-2 9-3 10-3 11-3 12-4 14-5 15-4 15-4 17-5 17-4 18-4 18-5 18-5 18-4 18-4 17-5 18-4 18-5 17-5 18-4 17-4 16-5 16-5 17-4 15-4 15-5 15-4 13-4 14-4 13-5 12-3 12-3 11-4 10-2 10-3 9-1 8-1 7 0 5"/>
<path d="M3544 -6976l 0 1 0-1 2 0 1-1 1 0 1 0 2-2 3-1 3 0 3 0 4-1 4-1 5-1 3-1 4-1 5 0 4 0 4-1 4 0 3 1 4 0 4 0 3 1 3 1 6 3 2 0 1 2 2 1 0 0 1 1 1 1 0 3-1 0-1 2 0 2-2 3-1 2-2 3-5 7-2 4-3 3-2 4-3 4-3 3-3 3-3 2-2 3-2 2-2 3-1 2-1 1-2 3 0 2 1 2 0 1 1 1 0 1 2 2 1 1 2 1 2 1 4 3 3 1 3 1 3 2 3 2 4 2 4 2 4 2 3 3 4 2 3 2 4 3 3 2 4 3 3 2 3 2 3 3 2 2 3 3 3 2 2 3 3 3 3 2 2 4 3 3 2 3 2 2 2 3 0 3 1 4 1 3 0 6-2 4-1 2-1 4-3 4-2 4-3 3-7 9-4 5-4 4-4 5-4 4-4 5-5 3-3 4-5 4-4 3-3 2-5 4-3 3-5 1-4 2-8 3-5 2-5 2-5 1-5 1-5 1-5 0-6 0-6 1-19 0-4-1-4 0"/>
<path d="M1316 -6267l-1 0 0 1-2 1-1 2-2 2-2 4-2 4-3 6-2 6-4 8-3 10-4 10-5 11-5 12-5 13-5 13-6 14-6 15-6 15-12 32-6 15-13 32-6 15-5 15-12 30-6 15-5 15-6 14-5 14-5 14-4 12-5 13-4 12-3 11-4 11-2 10-2 9-2 8-1 7 0 11 1 4 1 3 3-1 3 0 4-2"/>
<path d="M1549 -6123l-1 1 0 0-1 1-2 2 0 2 0 2 0 2-1 3-1 4-1 6-2 6-1 7-1 9-2 8-1 10-2 9-1 10-2 20-1 9 0 10 1 19 1 8 2 8 3 7 3 7 5 6 4 5 7 5 5 4 8 4 7 2 8 2 9 1 18 0 9-1 10-2 9-2 10-4 10-4 10-5 8-6 9-6 9-7 8-6 7-7 7-8 6-7 5-8 5-7 4-8 3-7 2-8 2-8 1-7 1-7-1-7-2-7-3-7-4-7-4-6-5-6-6-6-7-6-7-5-8-4-9-4-9-5-10-3-10-2-10-3-10-2-10 0-11-1-10 0-10 1-10 0-10 1-9 1-9 2-8 3-8 3-7 2-5 3-5 2-3 3-3 4-2 3"/>
<path d="M2221 -6315l-1 0 0 1-1 1 0 1-1 1 0 1-1 1-1 3-1 5-2 5-2 5-3 8-3 9-5 9-5 11-5 13-5 12-7 15-6 15-8 15-7 18-9 17-8 18-18 35-9 19-8 18-10 19-8 18-8 18-8 16-7 17-7 17-6 15-5 16-5 14-4 14-4 14-3 12-2 11-1 11-1 9 0 8 1 7 2 5"/>
<path d="M2486 -6190l 0 1-1 3-1 3-2 4-1 5-1 7-3 7-1 8-1 8-1 8-2 10-1 8-1 9 0 9-1 9-1 9 0 41 1 8 0 8 1 8 0 7 1 8 1 7 0 7 1 7 0 7 2 6 0 7 2 5 0 6 3 5 2 4"/>
<path d="M2944 -6330l 0-4 1 0 0 0-1 0 0 1-1 1 0 1 0 0 0 3-1 2-1 4-1 3-1 5-1 6-3 8-3 9-4 10-4 12-4 13-6 14-6 14-6 15-7 15-7 17-6 15-7 16-7 16-7 17-8 16-7 17-7 16-8 17-8 16-7 16-7 15-8 16-6 15-13 29-7 14-5 14-5 12-4 11-4 10-3 10-3 9-2 6-1 7-2 5-1 5 0 7 1 1 2 2 1 1 3-1 3-1"/>
<path d="M3089 -6131l 0 1-1 0 0 0-2 2-1 1-2 1-1 3-2 3-2 4-2 5-2 6-3 6-2 8-2 8-2 8-2 9-1 8 0 8-1 9 1 8 1 8 2 8 2 6 3 6 3 8 4 6 4 6 5 6 5 4 6 5 6 4 7 3 7 3 8 2 8 1 7 0 8-1 9-2 8-1 8-3 8-4 8-4 7-3 7-5 7-5 5-5 6-5 5-4 5-5 4-5 4-5 4-6 2-4 2-6 2-5 1-5 1-5 1-5-1-5 0-5-1-5-2-4-2-5-2-6-4-5-2-6-5-6-8-12-5-6-5-6-5-4-5-5-6-4-5-3-5-3-6-2-5-2-6-1-6-1-6-1-5 0-6 1-5 1-5 1-4 2-3 2-4 3"/>
<path d="M3702 -6334l-1 1-1 4-2 4-1 5-2 7-3 9-4 9-4 10-4 11-5 11-5 13-6 12-6 14-7 13-7 14-14 30-9 16-8 16-8 17-9 18-9 17-9 18-10 19-10 19-10 18-22 39-10 20-11 19-10 18-11 18-11 18-10 17-9 16-8 16-8 14-7 14-6 13-5 12"/>
<path d="M1371 -6729l 6-1 7-2 8-1 10-2 13-1 15-2 14-1 13-1 15 0 14 0 15 0 15-1 16 0 15-1 50 0 18-1 17 0 20-1 18-1 19-1 40-2 21-1 20-1 21-2 21-1 23-1 23-2 24-2 24 0 50-3 26-2 26-1 27-2 28-2 28 0 29-2 29-1 60-3 31-1 30-2 32-1 33-2 32-3 67-5 34-2 34-3 35-3 35-3 34-2 35-3 35-2 35-4 36-3 37-2 36-3 37-2 37-4 37-2 38-3 37-3 38-3 36-3 37-2 38-3 37-2 38-2 37-3 37-3 36-2 37-3 36-2 37-3 35-1 35-2 35-2 33-3 34-2 34-2 33-2 32-1 31-3 32-2 31-2 30 0 30-2 28-1 28-1 27-1 27-1 26-1 25-1 24 0 22-1 23-1 23-1 22 0 22-1 41-1 20-1 19-1 19-2 17-1 17-2 16 0 16-2 15-1 14-2 14-2 12-1 13-1 10-1 10-2 10-2 10-1 8-1 8-1 7-1 7 0 5-1 5 0 4-1 8 0 0 1-1 0-2 1-2 0-4 0-4 2"/>
<path d="M3935 -6209l 0-1-1 0-1 0 0-1-1 0-1-1 0-1 2-1 1 0 0-1 2 0 0 0 3 0 2-1 3-1 2-1 4-1 4-1 3-1 4-1 4-1 4-1 5-1 4 0 3-1 5 0 4-1 13 0 4 2 4 0 3 0 4 0 3 1 3 1 3 0 3 1 3 1 2 2 2 1 2 3 1 2 1 2 0 2 1 3 0 2-1 3-1 6-1 3-3 3-2 4-3 4-3 3-4 4-3 4-4 4-4 4-4 4-5 3-5 5-4 3-5 4-4 3-5 2-4 4-4 3-4 3-4 3-4 2-3 3-4 2-3 2-2 2-3 2-2 2-1 1-1 1-1 1 0 3 1 0 2 1 1 1 2 0 2 2 4 0 3 1 4-1 4 2 5 0 5 0 6 0 11 0 5 0 18 0 5 2 4 1 3 0 5 2 3 0 4 1 4 1 4 1 3 2 3 0 3 2 4 1 2 2 4 1 3 2 2 2 3 1 3 2 2 2 3 3 1 1 2 2 2 2 1 2 1 2 0 3 1 2-2 6-1 2-2 5-1 3-2 5-3 3-4 5-3 5-7 9-5 4-4 4-4 4-4 3-4 4-4 3-5 3-8 8-5 2-5 3-4 2-5 3-4 2-4 2-5 0-5 1-5 1-4 1-4 0-4-1-4-1-8 0-4 0-3 0-3-1-3 0-3-1-2-1-2 0-1-1-3-1-1-2"/>
<path d="M987 -6970l 0-16-1-1 0-1 0-1-1 0-1-2-1 0-1-1-1 0-1-1-4 0-1 1-2 1-2 1-2 1-6 6-2 4-5 5-4 6-6 8-5 8-6 8-7 11-7 11-9 12-9 13-8 14-9 15-9 15-10 17-10 15-9 17-5 8-6 10-6 9-6 11-7 10-7 12-7 10-7 12-7 12-7 13-7 13-8 13-7 14-8 14-7 14-8 14-6 14-6 14-6 13-5 13-4 12-5 13"/>
<path d="M2496 -8434l-4 0-2 1-2 0-1 1-2 1-2 1-1 2-2 1-2 2-2 2-1 3-3 4-1 3-1 5-2 4-1 5 0 5-2 6 0 6 0 6 0 21 0 7 1 6 1 7 2 6 2 6 2 5 3 5 3 5 3 3 3 3 3 4 4 3 3 2 3 3 4 2 4 1 4 2 4 0 8 0 4 0 5-2 5-2 4-1 5-2 5-2 5-2 5-3 5-3 4-3 4-3 4-4 4-4 4-4 3-4 4-5 3-4 2-5 3-5 2-5 2-5 1-5 1-4 0-4-1-4 0-4-2-4-2-5-2-3-3-4-3-4-3-4-5-4-5-3-5-3-5-4-5-3-7-5-6-3-5-2-7-2-6-3-6-2-6-1-6 0-6 0-5 0-10 2-10 3-5 2-4 2-4 3-3 4-3 4-2 5-2 5"/>
<path d="M2863 -8442l 1 3 0 3 1 5 1 5 1 5 0 7 1 6 1 7 1 6 2 7 0 5 2 7 1 13 2 7 0 8 1 6 1 7 0 7 2 7 1 6 0 5 0 6 1 6 1 5 1 6 2 5"/>
<path d="M3091 -8446l 0-1 1 0 1 1 3 0 3 1 6 0 4 0 23 0 10 2 4 0 5 1 4 1 9 1 3 1 4-1 3 1 2 2 2 1 2 1 2 1 1 2 1 1 0 7-2 6-2 3-2 4-2 4-4 5-2 5-4 5-4 5-5 6-5 6-10 11-4 7-6 6-4 6-4 5-5 6-4 7-3 4-4 4-3 4-2 2-2 3-2 3-2 2-1 2-1 2 0 1 0 3 0 1 1 1 1 2 2 1 2 2 3 2 3 2 3 1 5 2 5 1 5 0 7 0 6 0 7-1 8-2 8-2 9-1 8-3 9-2 9-4"/>
<path d="M3383 -8425l 0-1 1 0 1 0 1 0 2 0 2 0 3-1 4-1 3-1 4 0 4-1 4-1 5 0 4-2 4-1 4 0 3 0 4-1 15 0 1 1 2 0 1 0 1 0 1 1 0 0 0 1 0 1 0 0 0 1 0 1-1 1-1 2-1 1 0 2-2 3-3 3-1 3-2 3-2 4-2 3-3 4-1 4-1 3-2 3-1 3 0 3 0 3 0 2 1 1 2 4 1 2 1 1 3 2 4 3 2 2 3 1 3-1 3 1 5 0 4-1 6 0 3 0 4 0 12 0 3 1 5 0 3-1 2 1 3 0 2-1 3 1 2 1 3 1 2 0 3 1 2 1 3 1 1 2 2 2 2 2 1 2 1 4 0 5 0 2-1 3-1 2-2 3-2 3-2 4-3 3-3 5-3 3-3 4-4 4-3 4-5 3-4 4-4 3-5 3-5 4-10 5-5 3-4 2-4 2-4 1-5 2-4 0"/>
<path d="M1251 -5096l 0-6-1-6 0-7-1-8-1-9-1-10-2-9-1-8-2-6-2-7-3-6-2-5-3-5-4-4-4-3-3-2-4-2-6-1-6 0-6 0-7 2-7 3-8 4-9 5-8 6-9 8-9 9-8 10-9 11-8 10-8 11-7 11-7 12-6 11-6 11-4 11-4 10-3 10-2 10-3 9-2 9 0 8 0 7 0 7 2 6 2 5 3 4 3 3 5 4 4 1 5 2 6 0 5-1 7-1 5-3 8-2 7-6 8-5 8-7 8-6 8-7 8-8 9-9 9-8 7-7 8-9 7-8 7-8 6-8 5-8 5-7 5-7 4-7 4-5 3-5 3-6 2-4 3-8 1-2 0-1 0-3 0 1 0 0 0 25 0 6 0 7 0 7 0 8 1 7 1 8 0 7 2 6 1 7 5 12 2 5 4 5 4 4 3 4 5 3 6 3 5 3 7 2 6 2"/>
<path d="M1468 -5036l 1 1 0 4 0 3 0 1 3 3 2 2 3 0 6 0 4-1 5-2 6-2 7-3 8-4 9-5 8-6 10-7 11-8 11-10 10-10 11-10 11-11 10-12 12-12 11-14 11-13 11-14 10-14 10-15 10-15 10-15 10-15 8-15 7-14 7-15 6-14 4-14 4-14 3-14 1-14 2-14 0-29-1-15-1-13-2-15-2-13-2-12-2-12-3-9-3-9-3-7-3-7-3-4-4-4-3-3-3-2-4 0-4 0-4 2-4 3-4 5-5 5-5 7-6 8-6 11-5 12-5 12-6 14-5 14-4 16-4 17-3 17-3 18-3 18-3 19-2 19-2 20-2 18-3 18-1 19-1 17 0 33 0 15 2 15 1 15 3 13 3 12 3 12 4 11 4 10 5 10 3 9 6 7 5 8 6 6 5 5 6 5 6 5 6 2 7 4 7 2 6 1 6 1 13 0 6 0 7-3 5-2 7-3 5-2 6-4 10-9 5-5 4-4 4-6 4-5 3-5 3-5 3-6 2-6 2-5 2-6 1-7 1-6 0-6 1-8 2-12-1-8-1-7 0-7-1-7 0-7 0-7-1-6-1-6-1-3-1-4-1-2-1-1-1-2-1 1-1 0-1-1 0 1 0 1-2 2-1 2-1 1-1 3 0 3-1 4-1 2 0 6 2 6 0 3 3 2"/>
<path d="M2139 -5077l-1-3 0-2-2-3-1-3-2-5-4-8-2-4-2-3-2-5-2-3-2-4-3-3-3-3-3-4-4-3-4-3-4-2-5-2-5-2-6-1-6-2-7 0-6-1-8 0-7 2-8 1-8 2-8 3-9 2-7 4-8 4-8 4-9 5-7 6-8 5-6 5-7 6-5 6-6 6-4 7-5 5-2 5-3 6-2 5-1 5-1 4 2 3 1 3 2 4 2 2 4 2 4 1 4 1 6 1 5 0 7 0 7 0 8-2 7-2 8-1 8-3 8-2 8-2 7-3 6-3 6-2 6-3 5-3 5-2 4-3 4-2 3-2 2-2 3-1 3-1 2-1 1-1 1-1 2-2 1 0 0-1 0 0 0 0 0 0 0 0 0 1-1 0 0 1-1 1 0 6-1 2 0 2 0 9 0 3 0 3 1 2 1 4 1 2 0 3 2 3 0 2 2 2 2 2 2 2 3 0 3 2 3 0 4 1 10 0 6-1 6-2 8-1 7-2 9-2 9-4"/>
<path d="M2349 -5009l 3 0 1 1 2-1 3-1 5-2 5-2 7-3 8-4 9-4 9-7 11-6 12-8 11-9 12-9 13-9 13-12 13-10 13-12 13-13 13-11 13-12 12-12 10-13 10-12 9-12 9-12 7-12 5-12 6-12 4-10 4-11 3-11 2-10 2-10 2-10 0-10 1-10-1-9 0-9-2-9-1-8-2-7-3-6-2-6-2-4-3-4-3-3-3-2-4-1-5-2-5 0-5 1-5 1-7 4-6 3-6 6-6 7-6 8-7 9-6 10-6 13-6 12-5 13-5 14-5 13-4 14-3 14-3 15-2 15 0 14 0 13 0 13 1 14 2 11 3 11 4 9 3 10 4 7 3 8 5 6 5 6 5 6 4 6 5 5 5 3 4 4 6 3 4 3 5 2 10 3 5 1 5 1 5 1 9 0 4-1 4-1 4-1 3-2 3-2 3-2 2-1 3-3 2-2 1-3 2-2 1-3 1-3 0-8-1-3 0-3-1-4-3-4-2-5-2-4-3-3-3-5-2-3-4-5-3-4-11-11-4-3-3-3-4-2-3-2-3-1-3-1-2-1-2 0-1 1-1 0-1 0-1 2-1 1-1 2 0 3 0 2 0 7 0 3 1 3 2 4 2 3 2 4 3 3 4 3 4 4 5 2 6 2 6 2"/>
<path d="M2956 -5108l 1-3 1-2 1-3 2-3 1-4 2-4 2-5 1-3 2-4 1-4 1-3 1-3 1-4 1-4 0-3 1-4 0-3-2-7-1-3 0-4-2-2-1-3-3-2-2-2-3-2-3-3-3-1-3-1-5-1-8 0-5 1-5 3-7 4-6 3-7 4-7 4-8 6-9 6-8 5-8 7-8 6-8 6-7 6-6 7-6 6-6 6-3 6-4 5-2 5-2 5 0 5 0 5 0 5 5 8 3 4 5 3 5 3 5 2 7 1 8 2 7 0 8-1 9-1 8-1 8-2 9-3 8-3 8-3 7-4 7-4 6-3 7-5 6-3 6-4 5-3 5-5 3-3 5-4 3-3 3-3 2-3 2-3 3-2 1-3 1-2 0-2 1-2 1-2 0-1 1-2 0 0 0 2 0 1 0 2 0 2 0 3 1 2 1 3 0 4 1 3 2 3 1 3 1 4 2 3 2 4 2 3 3 3 3 3 3 2 4 3 5 2 6 2 5 2 7 1"/>
<path d="M3257 -4984l 0-1 2-2 2-1 2-2 3-3 3-2 4-3 5-5 7-3 6-4 8-6 9-5 9-7 10-5 10-7 10-6 10-8 10-7 10-7 10-7 10-8 20-14 9-8 10-7 10-7 9-8 8-7 8-8 8-7 8-8 7-8 7-8 7-7 5-9 6-8 5-8 5-10 4-8 5-10 3-10 5-9 2-10 4-10 2-11 3-11 2-11 2-11 2-12 1-12 2-10 0-11 1-10 0-20-1-9 0-8-2-7-2-7-2-6-2-5-3-3-3-3-3-2-3-2-5 0-4 0-5 0-6 2-6 3-7 4-7 4-8 6-9 7-8 9-9 9-8 11-8 12-8 13-7 14-8 14-11 30-5 15-4 15-4 16-3 16-2 15-1 16-1 15 0 15 1 30 3 14 2 13 4 12 4 13 5 10 5 10 6 9 6 7 8 7 15 12 8 4 8 3 9 3 8 2 8 2 8 1 8 1 8 0 14-1 7-1 6-2 7-2 6-3 6-3 6-4 5-3 5-5 4-4 4-5 3-5 3-5 2-5 2-3 1-6 1-5 1-5 0-4-1-5 0-5-3-10-2-5-3-5-6-10-3-4-3-5-5-4-3-4-4-3-4-4-4-3-4-2-3-2-3-2-2-2-3-2-2-1 0 0-1 0 0 0 1 2 0 1 1 0 1 0 1 1 2 1 2 1 3 2 3 0 4 1 5 1 5 0 5 2 25 0 8-1 7-1 7 0 8-1 8-1 7 0 9-3 9 0 8-2 9-1 9-2 9-1 9-1 10-2 10 0"/>
<path d="M4067 -5142l-1-3-1-3-2-3-2-3-3-4-2-3-3-3-2-2-3-2-4-1-3-2-3 0-3 0-4-1-4 0-5 1-4 1-5 1-5 1-5 2-5 3-6 2-5 3-6 2-5 4-5 3-5 3-5 4-6 4-4 4-5 4-5 4-5 4-4 4-4 4-4 4-3 4-3 4-3 4-2 3-2 4-1 3 0 5 1 2 1 2 2 1 2 2 4 1 3 2 4 0 5 0 5 1 5-1 6 0 7-2 6-2 7-3 7-3 7-3 7-5 7-4 7-4 7-5 6-5 6-4 5-5 5-4 4-4 4-2 3-3 3-3 2-2 2-2 1-2 2-2 0-1 1-3 1-1 0-1 1-1 0-2 0 1-1 0 0 3-1 1 0 8 1 2 0 3 1 4 1 6 1 4 2 3 1 3 2 3 3 3 1 3 3 2 2 3 3 1 3 2 4 2 7 3 4 0 5 1 5-1 16 0 7 0 7-1 7-1"/>
<path d="M4259 -5114l-1 0 0 1-1 0 0 0 1 1 0 0 2 1 1 1 2 0 2 2 3 0 4 0 3 1 5 0 5-1 5-1 5-1 8-3 6-2 8-4 8-5 8-6 9-6 8-7 10-7 9-9 9-11 10-9 10-11 10-11 10-12 10-12 10-12 10-13 9-12 9-13 9-13 9-13 8-14 8-14 6-13 7-15 5-14 6-15 4-16 4-16 3-16 3-16 2-16 1-15 2-16 0-26-1-12-2-11-1-10-2-8-3-8-3-6-2-4-4-3-2-3-4 0-4-2-4 1-4 1-4 3-4 3-6 4-5 6-6 8-7 8-7 11-8 12-7 13-8 15-7 15-8 17-7 18-8 20-6 18-6 20-7 19-11 40-5 20-3 20-4 19-2 20-1 19 0 17 0 17 2 16 2 15 3 14 3 13 5 11 5 10 5 9 4 8 5 7 6 6 5 6 5 5 5 3 5 3 5 2 4 2 5 1 5 0 6-2 5-2 5-3 5-4 11-10 5-6 5-6 5-7 5-8 4-7 5-7 3-6 3-8 3-7 2-7 2-7 0-7 1-6 0-7-1-7-1-6-2-6-2-6-2-5-2-5-2-3-3-4-2-3-3-3-3-1-2-2-3 0-5 0-2 0-3 1-2 2-1 0-2 2-2 1-1 2-1 2-1 1-1 2 0 4 1 3 2 2 0 3 2 2 3 3 2 3 4 2 4 2 5 2 5 1 7 2 6 2 8 1 8 1 8 2 9 0 9 2 18 3 9 0 10 1 9 1 10 1 10 2 11 1 10 1 11 1"/>
<path d="M4945 -5128l-1-1-2-1-2-1-3-1-3-2-2-2-3-2-1-1-2-2-2-3-2-2-1-2-2-1-2-3-1-2-2-3-2-2-4-5-2-3-2-3-3-4-4-3-3-2-3-4-4-4-3-3-5-4-5-3-4-4-6-3-5-3-6-3-7-2-6-2-6-1-8-2-7 0-7 0-8 0-8 2-7 1-9 3-9 4-9 4-8 5-8 6-9 6-8 7-8 6-7 8-7 7-6 9-10 15-4 9-3 8-2 8-1 8 0 7 1 7 2 8 2 7 3 5 4 7 5 5 5 4 6 3 7 3 7 2 8 1 8 0 9 0 9-1 9-1 10-3 20-7 9-4 10-5 9-6 9-5 9-6 8-6 8-6 6-6 7-6 5-5 6-5 5-6 11-15 3-5 3-5 2-4 1-5 2-4 1-4 1-2 0-3 0-5 1-1 0-2-1-1 0 1 0 0 0 1-1 1-1 1 0 3-1 2-1 3-1 5 0 4-2 10 0 11 1 5 1 5 1 5 2 5 1 5 2 4 2 4 3 4 3 3 3 5 3 4 4 3 4 4 3 4 4 2 5 4 4 3 4 2 10 6 5 2 7 2 6 2 7 2 7 2 8 2 7 1"/>
<path d="M1592 -4594l-2-1-2 1-2 1-3 0-4 2-3 1-4 2-3 3-3 4-3 3-3 4-3 4-3 5-2 5-2 6-2 6-2 6-1 7-1 7-1 7 0 23 2 8 0 9 1 8 2 8 3 7 3 8 4 7 3 7 5 6 4 6 6 5 5 4 5 4 6 3 6 2 6 1 7 1 7 0 7-1 7-1 8-3 7-3 8-4 8-5 8-6 7-6 7-6 7-6 6-7 7-6 10-13 5-7 5-8 3-8 4-8 4-7 2-8 3-7 2-7 1-6 1-6 1-6 0-5-2-6-2-4-3-5-3-5-5-6-4-5-6-4-7-4-6-3-8-4-7-3-8-2-8 0-9-1-7-1-8 1-7 1-8 1-7 1-7 3-7 2-6 4-4 4-4 4-4 4"/>
<path d="M2456 -4614l-1 0-3 1-2 1-2 0-3 1-10 0-2 1-1 2-3 0-2 3-2 2-3 3-2 4-3 4-2 4-3 6-1 6-2 6-2 8 0 7-2 8 0 17 1 8 1 8 2 8 2 7 3 7 3 8 5 6 4 6 4 5 12 9 5 3 8 2 6 0 8 1 16 0 8-1 9-2 8-3 9-3 8-4 9-5 8-5 8-5 8-5 7-6 6-6 12-12 5-6 5-7 7-11 3-7 1-5 2-6 2-10 0-5-1-5-1-6-1-5-2-4-3-4-5-4-4-4-5-4-6-4-6-3-7-3-7-3-7-3-8-2-7-1-7-1-7-1-13 0-6 3-7 2"/>
<path d="M3489 -4616l-1-1-2 0-2-1-3-2-2 0-3 0-3 0-2 0-1 1-2 1-3 1-2 2-2 2-3 3-3 3-2 5-3 5-2 5-3 6-2 6-3 6-2 6-2 8-1 8-2 7-1 9-1 9-1 7 0 18 1 7 2 7 2 6 2 6 3 6 3 5 5 4 4 4 5 4 5 2 6 2 6 2 7 0 15 0 9-1 8-2 9-2 8-4 8-4 9-4 8-4 7-5 7-5 6-6 5-5 6-6 4-5 4-6 3-6 3-6 1-5 1-6 1-5-1-4-2-5-1-5-2-5-4-5-3-6-5-3-5-5-5-6-6-4-6-5-8-3-7-4-8-3-7-4-8-3-7-3-7-2-7-3-7-2-7-1-5-2-11 0-4 1-4 0-3 1"/>
<path d="M4360 -4669l-1-1-1-1-2-2-2-1-3-1-2-2-3 0-2-1-5 0-3 1-2 1-3 1-4 2-3 2-5 3-4 3-4 3-5 5-9 10-4 7-4 6-3 7-4 7-3 8-3 7-2 9-2 8-1 8-1 8 0 15 1 8 1 6 2 8 2 5 3 6 4 5 4 4 4 4 6 3 6 3 7 2 7 1 7 2 7 0 8 0 8 0 8-2 8-2 8-2 8-4 7-3 8-4 7-4 6-5 6-4 6-6 10-10 5-7 5-6 4-6 3-7 4-7 3-7 2-7 2-8 2-8 0-7 0-14 0-7-1-7-2-6-2-7-3-6-4-7-3-7-5-7-4-6-10-12-5-5-11-8-6-4-6-2-6-2-5-2-6-3-5-1-4-1-5 0-10 0-3 0-4 1-4 1-4 2-3 1-3 3-3 4"/>
<path d="M5177 -4720l 0-1 1 0 0 2 0 0 2 1 1 0 2 1 2 1 3 0 3 1 30 0 8-1 7 0 8 0 8-1 8-1 7 0 8-1 14 0 7 0 13 0 6 0 6 0 20 0 3 0 3 0 2 0 2 0 2 0 1 1 2 0 0 1 1 0 1 1-1 0 0 0-1 1-1 1-1 3-1 3-2 4-1 6-2 7-3 7-4 9-3 9-5 10-4 10-5 11-4 11-5 11-5 11-4 12-5 11-5 12-4 12-4 12-5 12-3 12-4 12-3 11-3 13-3 11-3 11-3 9-3 9-2 10-2 9-2 9-3 9-1 7-2 8-2 7-1 7-1 6-1 5 0 5-1 4 1 3 0 3 1 2"/>
<path d="M967 5004l 0-2 1-2 0-3 0-1 1 1-1 0 0 2 1 0 0 1 1 0 1 1 0 1 2 4 0 2 0 2 0 5 1 3 1 3 0 3 1 3 2 3 0 4 0 4 2 5 0 5 1 6 0 7"/>
<path d="M959 5670l 1 0 0 3 0 1 0 0-1 0 1 0 0 2 0 1 1 1 1 0 0 1 1 0 0 0 0 1 0 2 1 1 0 1 1 1 0 1 0 3 1 2 1 2 1 2 1 6 1 3 0 3 2 3 1 4 0 3 2 3 0 4 2 4"/>
<path d="M927 6520l 0-1-1 0-1-1-1-1-3-1-3 0 2 0-1 0 2 0 0 0 1 1 1 1 0 1 2 2 1 2 1 1 1 3 1 3 1 4 0 14"/>
<path d="M894 7258l-4 0 0 1 0-2 0 0 1 0 2-1 0-1 2 0 2 0 2-1"/>
<path d="M2176 5105l 1-1-1 0 0 1-1 0 0 1-1 0 0 0-1 0 0 1-1 1 0 1 0 1-1 1 0 2-1 4 0 9 0 3 1 3 1 3 0 4 1 3 1 4 1 4"/>
<path d="M2155 5917l-1 0 0 1-1 0-1 0 0 1-1 0 0 1 0 0 0 1 0 0 0 7 1 5 1 3 1 3 0 4 2 3 2 5 1 4 1 5"/>
<path d="M2131 6827l-2 0-2-1-3 0-1 1 0 1 1 0 2 5 1 3 0 2 2 3 1 4 0 4 1 5 1 4 1 3"/>
<path d="M2148 7506l-1-1-3 0 2 0 1 0 1-1 1-1 2-1 2-1 1-1"/>
<path d="M1163 5738l-1 0 0 1 2 0 0 0 2 0 3 2 1 1 2 0 2 1 3 1 2 1 3 1 2 1 3 1 2 1 3 2 4 1 3 2 4 1 17 6 5 1 5 1 5 1 6 3 11 2 7 3 6 0 7 2 7 2 5 2 8 2 7 2 8 2 7 1 9 2 8 2 8 3 9 1 8 2 8 3 8 2 9 3 8 3 8 2 8 3 9 3 8 3 10 4 8 3 8 3 9 2 9 4 9 4 8 2 8 4 8 4 15 5 8 5 7 2 8 4 8 4 7 2 9 4 8 4 8 3 9 4 8 3 9 3 9 4 8 3 9 2 8 3 8 4 8 3 8 3 8 3 8 3 7 4 8 3 8 4 7 3 8 3 7 4 8 3 8 4 7 3 7 3 7 2 8 4 7 3 8 3 7 3 8 2 7 3 8 2 7 3 15 5 8 2 6 3 7 2 7 1 7 3 8 2 7 3 7 3 7 3 7 2 7 3 7 3 6 2 17 7 5 2 6 2 13 7 4 1 4 2 3 1 4 1 3 2 3 1 4 1 3 1 3 1 2 1 3 1 2 1 3 1 2 0 3 1 2 1 2 0 1 1 1 1 2 1 2 0 1 0 1 0 1 1 2 0 2 1 1 0 1 0 1 0 0 1"/>
<path d="M1126 5142l 0-1-4 0 2 0 0 1 1 0 0 1 0 1 1 2 1 2 1 2 1 3 2 4 2 4 2 5 2 5 3 5 2 7 3 5 3 8 2 6 3 7 3 8 3 7 3 8 3 8 3 8 3 9 4 9 3 8 4 9 3 8 5 9 3 8 4 10 5 10 4 9 5 10 5 11 5 11 6 12 5 12 7 13 6 13 7 14 6 13 7 15 6 16 7 16 7 18 7 17 7 19 7 18 6 18 8 20 7 19 7 19 8 19 6 18 8 18 8 18 6 17 7 18 8 17 7 17 7 16 7 17 7 15 7 17 7 15 7 15 7 15 8 14 8 14 8 14 8 14 9 15 8 14 8 15 8 14 8 14 8 13 8 14 8 14 7 14 7 13 8 14 8 13 7 12 8 14 7 13 8 13 8 13 7 13 7 12 8 14 7 12 7 13 7 12 6 11 7 12 7 11 6 11 13 19 6 7 6 9 5 8 5 8 5 8 5 8 5 7 5 7 6 8 5 7 6 8 5 7 5 7 6 7 5 7 5 7 5 8 4 7 5 7 5 7 5 6 5 7 5 6 3 6 5 6 4 6 4 6 4 5 5 7 3 6 3 6 4 6 4 5 4 5 3 6 4 5 3 6 4 5 4 5 4 6 3 5 4 5 4 5 3 5 4 5 3 5 4 4 3 4 4 4 3 5 3 4 3 4 4 5 3 4 3 5 4 5 3 5 4 5 3 5 3 6 5 5 2 5 4 6 4 6 2 6 3 6 4 7 3 6 3 6 2 6 3 6 3 5 3 5 4 5 2 4 4 4 3 4 3 5 3 3 3 5 3 3 3 4 3 4 3 4 3 4 4 4 3 4 3 3 4 5 3 4 3 3 3 4 3 4 3 4 3 4 2 4 3 3 2 4 2 4 2 4 3 3 2 3 1 4 3 3 2 2 2 3 1 3 2 3 1 3 2 2 1 2 1 2 2 2 0 3 1 2 1 1 1 2 0 0 0 2 1 1 0 2 1 0 0 2-1 0-1 0"/>
<path d="M1142 5770l 1 0 0-1 1 0 1 0 1-2 2-1 1-1 1-1 2-1 1-2 3-2 2-1 2-2 3-1 2-2 3-2 3-2 5-2 3-2 4-3 5-2 10-6 5-3 10-6 6-3 7-3 5-3 6-4 6-3 7-3 7-4 7-3 7-4 7-4 8-5 7-4 9-4 8-4 8-4 9-4 9-5 10-5 9-4 9-4 9-5 10-4 10-5 8-4 10-5 10-4 10-5 9-4 9-3 10-4 9-4 10-4 8-3 9-5 9-3 9-5 9-5 9-4 8-4 9-5 8-4 9-5 8-5 8-5 8-4 9-4 8-5 9-4 9-5 8-4 9-4 7-5 8-5 8-4 8-5 7-5 7-4 7-5 7-5 7-5 7-4 7-4 7-4 6-4 7-5 6-4 6-4 6-3 7-4 5-4 6-3 6-3 5-4 5-2 5-3 5-2 5-3 5-2 4-3 5-2 4-3 5-2 4-3 4-2 4-3 5-2 5-3 4-2 4-2 5-1 5-3 4-2 4-3 5-2 4-3 6-2 4-3 15-9 5-2 5-3 5-2 4-3 4-2 4-2 3-1 4-3 7-2 3-2 2-2 4-1 5-3 3-1 2-1 3-2 2-1 3-1 2-1 5-1 1-1 2-1 2-1 2-1 1 0 2-1 2-2 2 0 1-2 2 0 2-2 1-1 3-2 2-1 1-2 2 0 2-2 3-2"/>
<path d="M1056 6720l-1 0 0-1 0 0-1 0-1-1 0 1-1 0 2 0 0 1 1 0-2-1 0 3-1 1 2 1 1 1 0 1 2 2 2 2 2 2 3 3 3 4 3 2 2 5 4 4 4 4 3 5 4 5 5 6 4 5 5 7 6 7 5 7 6 7 5 8 7 8 5 8 7 9 5 8 5 9 7 8 6 8 7 8 8 9 6 8 7 7 7 8 7 7 5 8 7 8 6 8 6 7 6 7 6 6 6 7 6 7 6 6 6 6 5 7 6 7 6 7 6 8 7 7 6 7 6 8 7 7 7 8 7 8 7 8 7 7 7 8 7 8 7 8 7 9 8 8 7 8 7 8 7 9 8 9 8 9 8 10 8 8 9 10 7 8 8 9 7 7 6 8 7 8 6 6 6 6 6 7 5 6 6 6 5 6 6 6 5 7 6 6 6 6 5 7 6 6 5 6 5 6 6 6 5 6 6 5 5 6 6 6 6 6 6 5 5 7 7 6 5 7 7 6 6 7 5 5 5 6 6 6 6 5 5 5 6 4 5 5 6 4 6 4 5 6 6 4 5 5 6 5 5 5 5 5 5 3 6 5 5 4 6 4 5 4 5 3 5 3 4 3 4 3 5 3 4 3 4 2 4 3 4 3 4 2 5 2 4 3 4 3 4 2 3 3 5 3 3 2 5 3 3 2 4 2 3 3 3 2 4 3 4 2 4 3 3 2 4 3 4 2 4 3 4 2 3 3 4 2 3 2 3 2 2 1 3 2 3 1 2 2 2 2 2 1 3 2 2 2 2 1 3 1 2 2 2 2 3 0 2 2 2 0 3 1 2 1 3 1 2 1 1 1 2 1 2 1 2 1 1 2 2 1 3 1 1 1 2 2 2 1 2 2 2 1 1 1 2 1 3 1 1 2 2 1 4 3 3 1 2 3 2 0 1 2 2 1 1 1 2 2 2 2 0 0 2 0 1 1 1 1 1 1 0 1 2 0 1 1 2 1 0 2 3 1 1 1 2 2"/>
<path d="M1759 5851l 0-1 1 0 2-3 3 0 1 0 2 0 0 0 3 0-1 0 0 1 0-1 0 0 0-1 0 0 0 1 1 0 0 1 1 0 0 1-1 1 1 0 0 2 1 2 0 1 0 1 1 2 1 2 0 3 0 3 2 6 1 4 0 4 1 3 0 3 1 4 0 3 1 3 0 3 1 3 1 3 0 2 0 3 1 4 1 2 0 3 0 2 0 2 1 2 0 4 1 1 0 4 1 1 0 2 0 0 0 0 0 1-1 0 0 1-2 1"/>
<path d="M1795 6453l 1 0 0-1 0 0 1 0 0-1 2 0 1-1 4 0 1-1 12 0 2 1 4 0 1 1 5 0 1 1 2 0 2 0 2 0 2 1 3 0 2 1 3 0 2 0 1 0 1 1 1 1 2 0 1 1 0 0 2 0 1 2 1 0 0 0 1 1 0 1 0 0 1 1 0 3 1 0 0 1-1 1 0 1-1 3-1 1-2 2-1 3-1 2-2 2-2 3-1 3-3 2-1 3-2 2-2 3-2 3-2 3-2 2-1 2-2 1-1 2-1 1-1 1 0 1-1 0 0 2-1 0 1 1 0 1 2 0 1-1 3 0 0 1 1 0 2 0 2 1 4 0 2-1 13 0 2 0 4 0 2-1 8 0 2-1 5 0 3-1 5 0 3 0 2 0 2-1 3 0 2-1 2 0 2 0 2-1 2-1"/>
<path d="M1659 5330l 1 0 0-1-1 0 0-1 1-1 3-3 1 0 1-2 2-1 1-1 2-1 2-3 1 0 2-2 1 0 2-1 1-1 1-1 3 0 0-1 2 0 2-1 1 0 1-1 3 0 0-1 9 0 0 2-1 0 0 1 0 1-1 1-1 2-1 2-2 3 0 2-1 2-3 2-2 3-2 3-2 2-2 3-3 3-2 2-2 2-2 2-3 3-1 1-1 1 0 1-1 0 0 1 0-1 1 0 1 0 0-1 3 0 1-1 3 0 1 0 4 0 1 0 5 0 2 1 2 1 1 0 2 0 3 2 2 1 1 1 2 1 2 1 3 2 1 1 1 1 3 2 1 1 1 1 1 1 1 2 1 1 1 2 1 2 0 1 1 2 0 2 1 1 0 5-2 4-1 1-1 2-1 2-2 2-2 1-1 3-2 1-2 2-2 2-1 2-2 2-2 1-2 2-2 1-2 2-2 1-2 1-2 1-1 0-3 2-1 0-1 1-3 1-2 0-1 2-2 0-2 1-1 0-2 1"/>
<path d="M1634 7186l 1 1-1 0-1 0 1 0-1 1 0 3 0 1 0 18-1 2 0 3-1 2-1 3 0 2-1 3-1 3 0 2 0 3-1 3 0 2-1 3 1 2 0 12 1 1 0 1 0 1 1 2 1 0 1 2 2 1 1 2 1 0 1 1 1 1 1 0 2 1 1 1 2 1 2 0 3 2 2 0 2 1 1 0 2 1 2 1 2 0 4 0 2 1 5 0 2 1 5 0 2 0 5 0 3 0 9 0 2-1 3 0 2-1 5 0 2 0 3 0 2-1 3-2 2 0 4-1 2-1 3 0 2-1 2-1 2 0 3-1 1-1 1-1 3-1 2 0 1-1 1-1 1 0 1 0 1-2 2 0 1-1"/>
<path d="M1688 7247l 1 0 0 6 0 1 0 12 1 2 0 2 1 3 1 2 0 3 2 4 0 3 1 2 1 2 1 3 0 2 0 3 1 2 0 3 1 2 0 3 0 3 1 2 0 2 1 3 0 8 1 3 0 3 0 2 1 3 1 3 0 3 2 3 1 3 0 5 0 3 1 3 0 6-1 3"/>
<path d="M3231 6388l 0-3-1-1 0-1 0-1-1-2 0-1-1 0 0-1-1-1 0-1 0-1-1 0 0 0-1 0 0 0-1 0 0 4-1 1 0 2-1 1 0 13 1 2 0 1 1 3 0 2 1 2 0 2 1 1 2 2 2 1"/>
<path d="M289 6422l 2 0 1-1 1 0 1 0 2-1"/>
<path d="M887 5235l-1-1 0 0-1-1-1-1-1-1-1 0 0-1-2 0 1 0 0 1-1 1-1 0 0 1-1 1-2 2-3 2-5 11-3 5-3 7-4 7-3 8-4 9-3 5-2 6-3 6-4 7-3 8-5 9-3 10-10 21-12 24-6 14-7 14-7 15-7 15-8 17-8 17-7 17-8 17-9 17-8 18-9 17-8 18-8 18-8 18-7 18-8 17-7 18-8 18-7 17-8 17-7 18-8 16-8 18-7 17-8 18-9 17-8 17-7 18-8 17-8 18-8 17-8 17-7 18-8 17-8 16-6 17-7 16-7 16-7 16-6 14-7 15-5 15-5 14-6 14-5 12-5 13-5 12-4 13-5 11-4 11-4 10-5 11-5 10-3 9-4 9-3 9-3 7-4 8-3 7-2 8-3 5-2 7-2 5-2 5-1 5-2 4-1 4-1 3-1 2-1 3-2 3 0 1 0 2 0 1-1 0 1 0-1 0 1 0 0-1 1-1"/>
<path d="M426 6400l 2 0 0-1 1 0 1 0 0-1 1-2 1-1 1-1 1-3 1-2 2-3 2-3 2-4 2-5 3-5 4-5 4-7 4-7 4-8 6-8 6-8 6-10 6-10 7-10 8-11 8-11 8-10 8-12 9-11 9-12 9-11 9-12 9-12 10-11 10-12 10-12 10-12 10-12 10-11 11-13 10-11 11-12 10-12 10-12 11-13 11-13 10-12 10-12 20-25 17-22 16-21 13-18 12-16 10-13 8-12 7-10 6-8 5-8 6-7 4-8 4-5 4-6 3-4 3-4 1-3 2-3 1-2 1-1 1-2 2-1 0 1-1 0 1 1-1 2"/>
<path d="M499 6500l 0-2 3 0 1 1 2 0 2 0 2 1 2 1 3 0 4 1 3 1 4 1 5 2 5 1 5 1 5 1 7 2 6 1 6 2 6 2 7 3 7 2 7 2 7 3 8 2 8 2 9 3 7 3 9 3 9 2 9 3 8 3 10 2 9 3 9 3 10 3 10 3 19 6 18 6 15 5 15 4 14 3 12 4 11 2 8 2 8 1 7 1 7 1 6 0 5 1 5 0 5 1 4 0 3 1 3 0 3 0 4 0 2 1 1 1 1 0 1 0"/>
<path d="M452 6543l-1-1-1 0-1 0-1 0 0-1-2 0 0-1-2 0 0 1 2 1 1 2 1 2 2 2 1 3 2 3 3 3 3 5 4 4 3 6 4 5 5 6 4 6 5 8 6 7 5 9 6 9 6 8 13 19 7 10 7 10 7 10 7 11 8 11 8 11 8 12 9 12 17 24 9 12 9 14 10 13 10 13 10 14 9 13 10 14 10 14 10 12 10 14 10 14 11 14 10 15 18 26 17 25 16 24 14 21 13 20 12 17 10 15 9 13 17 25 7 12 8 13 6 12 8 11 7 12 6 12 6 10 6 11 12 19 5 8 5 7 5 8 4 6 5 6 5 7 4 6 4 6 3 6 4 5 3 5 3 4 3 4 2 5 3 3 2 4 4 3 3 3 3 4 3 3 5 2 3 3 4 2 5 3 5 1"/>
<path d="M2232 7488l 2-3 3-3 4-3 5-4 5-6 6-6 6-6 6-8 7-6 7-8 7-8 8-10 10-10 9-11 11-11 11-13 12-13 13-14 13-16 14-14 13-16 14-16 15-16 15-18 15-17 15-18 16-18 17-19 16-19 16-19 17-20 16-18 17-19 17-19 16-18 16-19 16-18 31-37 16-18 15-18 15-18 15-17 14-17 15-17 14-16 14-15 13-16 13-14 11-14 12-13 11-13 9-13 10-12 9-11 17-22 9-10 7-11 8-9 7-10 8-8 7-9 6-8 7-7 6-8 6-8 5-6 6-6 6-7 5-5 5-7 5-5 6-6 5-5 5-5 4-5 5-5 4-5 5-4 4-4 5-5 4-3 4-4 5-3 3-4 4-3 3-3 2-2 3-2 2-3 2-2 1-1 0-1 1-1 0-2-3 0"/>
<path d="M2329 6843l 3-2 2-2 4-2 3-3 4-3 5-3 5-4 6-2 6-4 6-3 7-3 7-4 8-4 8-4 8-4 9-4 9-5 9-5 11-5 11-5 11-5 12-6 13-6 13-6 14-7 15-7 15-8 15-8 15-7 17-8 16-8 17-9 17-8 17-8 17-8 17-8 17-8 17-7 16-8 17-7 17-8 16-7 16-7 16-7 15-8 15-7 14-7 14-6 13-6 13-6 12-6 12-6 12-5 10-5 10-4 10-5 9-4 8-4 9-4 8-4 7-5 7-2 7-5 6-3 6-2 5-3 5-2 4-3 4-2 4-2 3-2 3-1 3-3 2-2 3-1 3-2 2-1 2-1 3-2 1-1 1 0 1-1 1-1"/>
<path d="M2273 6069l-1-3-2-1-1-1 0-1-1-1 0-2 1 0 0-1 2 0 1-1 5 0 2 0 3 0 4 0 3 1 4 1 4 2 5 1 5 2 6 3 6 4 8 3 7 4 9 5 9 5 10 6 10 5 10 7 11 6 11 6 12 7 11 7 12 7 11 8 13 7 14 8 13 7 15 7 16 7 16 8 17 6 19 7 19 8 18 6 20 7 19 7 21 7 19 8 20 7 20 6 20 7 21 6 20 6 20 7 19 6 20 6 18 6 19 6 17 6 17 6 15 7 15 5 14 5 15 5 13 5 13 5 12 4 12 4 10 5 10 4 10 3 10 5 8 3 8 4 7 2 7 2 6 3 6 1 5 2 8 3 3 0 3 1 2 1 2 0 1 1 2 0 0-1 0 0 0-1 0-1-1-2 0-1"/>
<path d="M2345 5267l-1-1-10 0-2 0-4 0 0-1 2 0 0-1 1 0 0 1 2 0 3 1 2 1 2 1 2 3 2 2 3 3 3 4 3 3 3 5 4 5 4 5 5 6 5 6 5 7 5 8 7 8 6 8 7 8 7 9 8 10 8 9 8 10 9 9 9 10 9 11 9 11 10 12 11 11 11 12 11 13 12 12 12 13 12 13 12 14 12 13 12 12 11 14 12 13 12 13 12 13 11 13 12 14 11 13 12 13 12 14 12 14 11 14 12 14 12 14 12 15 11 14 13 15 11 15 11 15 13 14 12 15 12 13 12 14 12 13 12 13 11 13 21 24 10 12 10 12 10 12 8 11 10 12 9 12 8 11 9 10 9 11 9 11 8 10 8 10 7 10 7 10 7 9 7 9 7 8 5 8 7 8 5 8 5 7 5 6 5 7 4 5 4 5 3 5 4 4 4 4 4 4 2 3 3 3 4 3 2 3 2 2 2 2 2 2 2 2 1 1 2 1 0 1 1 0 1 1 0 1 1 0 0 0 2 0 0 0-1 0 1 0-1-1 0-2-1-1 0 0 0-1-1-1"/>
<path d="M4064 4669l 1 1-1 3 0 2-1 3 0 12 1 5 1 5 0 5 1 5 2 5 1 7 1 5 2 6 1 7 2 7 3 6 2 7 4 13 1 5 3 7 1 7 1 6 2 7 1 6 1 7 1 7 0 27-2 6 0 6-2 5-1 5-2 5-2 4-2 5-2 3-2 3-2 3-2 1-1 2-2 1-1 1-2-1-1 0-3-3-1-2-2-1-2-4-2-4-1-6-2-6-1-7-2-8 0-9-1-9 0-20 1-20 2-12 1-10 2-12 2-11 2-12 3-12 3-10 3-12 4-11 3-12 2-5 3-5 2-5 3-6 2-5 3-5 3-5 3-5 4-5 3-5 4-5 5-4 4-5 4-4 5-4 6-4 6-3 5-3 7-3 6-3 7-2"/>
<path d="M4263 4707l 0 1-1 0 0 0 2 1 10 0 4-1 4 0 10-2 6 0 5-3 6-1 5-2 6-2 6-2 6-3 5-2 5-3 5-2 5-3 4-2 3-3 4-2 3-3 2-2 2-2 2-3 2-2 0-1 1-2 1-3 0-1-1-2 0-2-1-2 0 0-2-2-3-3-1 0-2-1-2-1-2-1-3 0-2-1-3-1-12 0-7 1-6 2-7 2-5 4-5 4-4 5-4 5-2 5-3 6-3 6-4 7-3 7-2 8-3 8-3 9-3 8-2 8-2 9-2 8-1 8-1 7 0 13 1 6 1 5 2 5 2 4 2 3 3 3 3 3 4 1 4 2 5 1 5 0 5-1 5-1 6-1 6-3 5-2 7-3 7-4 6-3 8-5 6-4 7-5 7-5 6-5 7-5 7-5 6-5 6-6 7-5 6-5 5-6 6-5 5-6 4-5 4-5 3-4 3-4 2-4 3-4 1-4 1-4 1-4 2-3 0-4 0-3 1-3 0-7-1-2 0-5 0-2-3-4 0-1-2-1 0 0-1 0-1 0-1 1 0 1 0 1-1 2-1 2-1 3-2 3 0 4-2 3-1 5-2 4 0 5-2 5 0 5-1 4 0 5-1 4 0 5-1 5 0 13 1 5 0 3 1 4 1 3 1 1 1 1 2 2 1 1 3 0 2-1 2-1 2-2 2-3 3-3 2-3 3-5 3-5 3-5 3-6 3-6 3-5 3-7 2-6 3-6 3-6 2-5 3-6 2-6 3-4 2-4 3-5 1-1 1-2 3-2 2-3 3 0 2-1 2 0 2 1 1 2 1 2 2 2 0 3 1 3 0 3 1 5 0 25-1 4 0 19 1 2 0 1 1 3 1 1 3 0 3-1 2-1 3-1 7-3 3-2 4-3 4-3 4-3 5-3 3-4 4-3 3-4 3-3 4-3 3-2 4-4 2-2 2-1 1-1 1-1 1 0 1-1 1 0 0 2-1 0 0 5-1 2 0 12 1 3 1 8 1 3 1 4 2 3 1 3 2 3 3 2 2 3"/>
<path d="M4711 4658l 0-1-1-2 0-1-1-1-2-1-1-2-2-2-1-1-1 0-1-1-1-1-2-1-3 0-3 0-4 0-3 0-5 2-3 1-5 2-4 2-3 2-8 6-2 3-4 2-2 4-2 4-2 2-2 4-1 3-1 3 0 7 1 3 0 3 2 2 2 3 2 3 3 2 3 2 3 2 5 1 8 2 10 0 5-1 4-1 4-1 4-2 9-4 4-2 4-3 3-3 4-3 3-2 3-4 3-3 3-3 2-3 2-3 3-4 1-3 1-2 1-4 1-3 1-3 0-10-1-2 0-1-1-2 0-1-1-2 0 0-1-2-2-2-1-1-2-2-1 0 0-1-1-1-1 0 0-1 1 0 1 0 4 0 1-1 2 0 2-1 2 0 2 0 2 0 2-1 3-1 2-1 2 0 4-1 2-1 2 0 1 0 2-1 5 0 2 1 1 1 1 1 1 1 0 1 1 1 1 4 1 3 2 5 0 5 0 5 1 5 1 3 0 10 0 5 1 5 0 4 1 5 1 4 1 4 1 4 4 9 1 2 3 1 1 2 1 1 3 1 4 0 1-1 2-1 2-1 2-2 2-2 3-3 2-3 3-4 2-3 3-5 2-4 2-5 2-5 3-4 2-5 1-4 2-5 0-3 0-2 1-2 1-3 0-2 0-3 1-3 0-2 1-3 0-2 1-3 0-6 0-2 0-16"/>
<path d="M4897 4645l 1 0 0-1 2 0 1-1 2-1 2-1 2-2 1 0 1-1 2-1 2-1 2 0 2-2 2 0 3-2 3-1 3-1 3-1 3-2 4-2 3-1 4-3 3-2 4-2 4-2 3-3 3-2 6-6 3-3 2-2 2-3 4-8 1-2 1-3 0-4-1-3-2-5 0-2-2-2-2-1-1-2-2-1-3-2-2-1-3-1-3 0-4-1-6 0-4 1-3 0-4 1-3 1-4 3-4 2-3 2-4 3-3 3-3 2-3 4-3 4-3 3-3 4-2 4-3 4-2 4-3 7-3 7-2 7-2 7 0 6-1 6 0 5 1 5 0 5 1 4 1 5 3 4 1 5 3 4 2 4 3 4 3 3 4 3 4 2 10 5 6 2 6 1 7 2 8 0 17 0 10-1"/>
<path d="M5529 4268l-1 1 0 0 0 0-1 1 0 2-1 1-1 2 0 3-1 3-1 3 0 5-2 5-1 7 0 8-1 8-1 8-1 9-1 11-1 11-1 24-1 13-1 13-1 13 0 13-1 15 0 13-1 14 0 14-1 14 0 14 0 13 0 13-1 25-2 22 0 67 2 10 1 8 1 6"/>
<path d="M5650 4632l 0 2-1 2 0 2 1 2 1 3 1 3 2 3 3 4 3 3 4 3 3 4 4 3 4 3 4 3 5 3 5 3 5 2 4 2 4 2 5 2 4 2 5 1 4 2 4 0 7 0 3 1 3 0 3-1 6-1 3-1 2-1 3-1 2-1 3-3 2-2 4-4 2-3 2-2 1-3 1-3 1-3 1-3 1-3 0-6 0-4-1-6-2-3-1-2-2-3-3-3-2-3-2-1-2-1-3-3-2-1-3-1-2-1-2-1-3-1-3-1-2 0-3-1-3 0-3-1-6 0-5 1-5 0-5 1-3 1-3 1-2 2-1 1-1 2 0 0 0 3 0 1 0 1 1 1 1 1 1 1 2 0 2 1 1 0 2 1 9 0 2-1 2-1 2 0 3-1 2-1 2-1 3 0 2-1 3-1 2 0 2-1 1-1 2 0 2-1 3 0 10 0 1 0 2 1 2 1 3 1 2 2 3 3 2 1 1 1 2 1 2 2 2 2 1 2 2 1 1 2 2 3 2 1 1 1 2 3 1 1 1 1 3 3 1 2 1 1 1 2 2 0 0 2 1 1 1 1 2 2 1 1 0 1 1 2 1 0 0 2 0 0 1 1 0 2 1 0 0 5 0-1-1 0 0-1-1-1 0 0 0-1-2-1 0-2-2-1-1-2-1-1-1-2 0-7 1-3 0-3 1-4 1-3 3-7 2-3 2-4 2-3 3-3 1-2 1-2 2-1 1-2 2-2 1-1 2-2 2-2 2-1 2-2 6-3 3-2 3-2 4-1 3-2 5-1 5-2 10-3 5-2 7-1 6-1"/>
<path d="M6314 4394l-1-1 0-5 2-1 0-1 2-1 1-1 2-1 2 0 2 0 2-1 3 0 3-1 16 0 4-1 4 1 4 1 5 1 4 1 5 1 4 1 15 4 5 3 15 4 5 2 5 1 5 3 10 2 4 3 4 1 4 2 5 2 4 2 7 4 4 1 3 3 2 2 3 2 3 3 2 3 2 3 1 3 1 4 1 3-1 4-1 5-1 4-2 4-3 5-2 5-4 6-5 6-5 5-6 7-6 6-7 7-8 7-8 7-8 6-17 15-9 7-7 7-9 6-8 7-14 11-13 11-10 8-8 7-6 5-3 4-2 2-1 1-1 2 0 0 1 2 1 0 0 1 3 2 2 1 2 1 2 0 3 1 3 1 5 1 4 1 4 1 8 0 5 0 27 0 7 0 13 0 8-1 15 0 8-1 15 0 9 1 15 0 8 1 8 0 7 0 7 1 7 0 7 1 6 0 11 1 5 1 4 1 5 0 3 0 4 2 3 1 4 1 2 1"/>
<path d="M6751 4402l 0-2 1-1 1-3 1-1 1-2 0-2 2-1 1-2 2-2 2-4 3-1 2-3 3-1 2-1 3-1 3-2 3 0 4-2 3 0 3-1 4-1 3-1 4 0 14 0 4 0 2 1 4 1 3 1 2 0 3 2 2 2 2 1 2 2 2 2 2 2 1 2 1 4 1 3 1 3 0 4 1 4-1 5 0 5-1 5 0 6-1 5-1 6-2 7-1 6-2 7-3 7-2 7-3 8-2 7-3 8-2 7-3 8-3 8-3 8-3 8-3 8-3 8-2 8-2 8-3 15"/>
</svg>
