<svg xmlns="http://www.w3.org/2000/svg" viewBox="1481 1917 16538 30925" stroke="black" stroke-width="16" stroke-linecap="round" stroke-linejoin="round" fill="none" data-xena="-1 -12 0"><style>@media(prefers-color-scheme:dark){svg{background-color:black;stroke:white;}}</style>
<path d="M3627 3042l 1 30 2 24-1 34 0 25-1 27-3 27-1 27-2 28-4 28-5 27-4 27-5 25-4 25-6 36-5 34-4 31-3 27-3 29-5 25"/>
<path d="M4473 3041l 16-21 26-12 25-5 30-1 26 3 29 5 24 10 17 20-4 28-18 19-18 17-21 16-23 15-23 14-22 15-26 17-21 18 21 13 29-1 25-2 28-2 28 0 26 2 27 4 26 7 24 8 27 13 20 14 17 21-1 25-16 24-19 17-19 16-24 12-23 10-27 8-28 3-26-5-25-13"/>
<path d="M3454 4065l 23-7 28 5 25 7 28 7 29 5 31 5 28 5 27 9 19 17 3 25-10 28-14 24-18 25-22 24-24 25-25 22-24 23-24 21-22 20-19 18-21 20-16 18 22 11 28-6 29-6 26-4 26-4 25-5 29-6 25-3 24-6"/>
<path d="M4678 3979l 3 25 5 30 4 31 4 28 4 34 3 24 4 26 3 27 1 28 0 26-2 26-1 24-1 33 2 27 1 30 4 25"/>
<path d="M3185 5426l 26-11 27-6 26-5 27-5 30-4 25-3 28 0 25 6 20 14-8 24-16 22-21 23-18 17-22 20-21 18-22 18-17 18 26-4 24-9 26-8 30-5 28-2 30 2 27 9 22 17 8 24-4 26-11 30-12 23-16 21-20 22-21 18-21 11-26 6-30-1-27-5-30-7-28-10-25-9-22-10"/>
<path d="M4495 5215l 5 25 5 30 5 25 4 29 2 33 2 24 3 35 2 25 3 35 3 34 3 31 4 28 2 25 1 28 2 25"/>
<path d="M3273 6496l-16 25-9 26-10 29-7 24-8 25-8 26-9 24-9 29-2 27 11 23 24 3 24-4 28-12 23-12 23-15 23-14 24-13 25-13 25-11 24-10 30-11 23-9"/>
<path d="M3365 6559l-3 25 3 30 4 26 3 28 3 28 1 27 2 26 1 27-1 25-2 25-6 28"/>
<path d="M4550 6298l-17 17-6 28-9 25-9 28-11 29-9 30-10 24-9 26-6 26 16 17 25 3 25-2 30-6 24-8 25-10 24-12 25-14 22-15 22-16 20-15"/>
<path d="M4613 6392l 3 26 0 24 2 26 3 25 1 27 0 24 2 26 0 25"/>
<path d="M3373 7551l 26-11 24-12 24-13 26-15 21-14 20-15 19-15"/>
<path d="M3361 7535l-23 14-12 24-5 23-2 27 2 27 6 27 14 21 22 10 26-5 24-13 21-16 24-14 23-10 24-7 24-5 29-2 27 2 27 8 16 21 2 26-5 24-9 24-14 25-17 19-19 18-22 16-25 13-24 11-26 9-25 6-31 4-24-4-25-15-15-19"/>
<path d="M4372 7430l 23-11 23-9 24-3 25 5 25 10 22 16 7 25-6 27-13 21-16 24-16 19-19 19-21 21-23 20-24 20-24 18-20 17-22 19-17 19 25 6 30-7 30-8 32-7 25-5 26-7 27-7 30-11 24-10 24-6"/>
<path d="M3623 8484l-14-20-27 13-21 20-16 23-17 28-12 25-11 29-11 33-11 36-9 39-9 41-6 44-6 45-3 45 0 42 2 39 4 34 8 29 9 23 19 25 23 17 26 7 30-4 35-15 23-16 24-19 22-22 21-24 18-25 16-24 13-23 13-29 0-27-23-20-27-8-25-3-26-1-28 1-31 5-24 4-32 10-25 13-20 16-17 20-6 25"/>
<path d="M4469 8437l 1 25 4 33 4 28 7 32 4 24 5 27 5 29 3 28 4 29 5 28 5 28 6 25 6 24 8 30 7 25 9 26"/>
<path d="M6804 5356l 29 2 29 0 31-6 28-5 25-6 25-8"/>
<path d="M6917 5234l 3 27 3 25 1 28 1 28 1 26 5 25"/>
<path d="M7197 5159l-10 23-4 28-1 29 1 30-1 24 0 25 1 27-2 26-1 24 0 31 0 27 0 27 9 23"/>
<path d="M6697 8590l 25-7 25-7 29-9 26-10 27-9 26-12"/>
<path d="M6793 8485l 11 24 6 29 3 26 6 26 7 23 10 22"/>
<path d="M7122 8396l-4 27 7 26 5 24 8 29 7 25 5 27 3 27 1 26 1 26 0 24 0 25 0 28-1 27"/>
<path d="M6919 4057l 23-13 26-4 26-2 26-5 24-8 23-12"/>
<path d="M7001 3956l 5 23 4 29 0 24-1 29-3 28"/>
<path d="M7291 3844l-14 22-8 29-2 29 0 31 2 25 8 25 5 28 6 27 4 25 5 28 3 29"/>
<path d="M6817 3159l 26-9 24-8 26-6 27-4 27-6 25-5 25-7"/>
<path d="M6901 3096l 8 27 3 25 3 24 0 27 0 28"/>
<path d="M7211 2944l-5 30-3 26-3 24 0 26 3 27 3 28 6 28 5 28 6 28 6 26 5 24 7 30 4 29 3 25 0 24 6 26"/>
<path d="M11186 2571l 12 25 5 30 0 32 1 27 0 28 0 29-1 29 1 27 1 27 1 24 2 24 3 30 4 25 8 23"/>
<path d="M11677 2360l-16 20-15 27-16 28-17 30-15 32-8 24-12 24-9 25-10 28-11 26-8 29-11 30-13 29-11 32-13 33-13 34-13 35-13 33-14 33-12 30-12 28-11 25-10 23-9 30-7 26"/>
<path d="M11750 2596l 24-8 27 0 23 6 27 9 24 13 14 22-9 24-24 19-23 14-25 12-25 9-25 7-23 8 23-7 29-2 28 0 24 2 25 3 31 5 30 9 25 9 20 19 1 26-12 24-22 22-23 15-20 13-24 12-22 11-28 12-28 9-31 3-25 0-25-7"/>
<path d="M12867 2497l-23-9-26 1-25 4-23 12-17 16-3 24-4 28-3 28-6 23-4 30-5 28-10 28-8 29-5 29-11 27-9 29-6 30-9 28-7 29-7 25-2 25 6 23 27 2 26-3 28-7 25-6 26-4 28-5 24-1 27 0 27-2 24 0"/>
<path d="M12960 2629l-9 25-14 23-10 27-12 26-11 22-8 23-1 24 22 13 29-1 26-3 24-4 28-4 25-4 26-4 29-7 26-8 24-7 22-12"/>
<path d="M13053 2678l-5 28-1 27 5 30 6 26 5 25 4 28 3 26 3 27"/>
<path d="M13191 2549l 28-3 28 4 29 3 31 1 27 4 28 2 25 3 27-1 22 10 0 25-3 28 0 32 3 26 3 27 3 27 2 29 1 30 0 29 3 27 3 27 1 26-1 30 0 25-1 28-2 25-7 23-17 17-25 9-24 1-25-3-23-6-26-7-26-7-26-7-26-3"/>
<path d="M13972 2755l 25-2 25-5 28-8 27-10 26-9 25-10"/>
<path d="M13960 2836l 27-11 26-6 30-10 31-9 29-5 27-4"/>
<path d="M14123 2671l 21-14 26-6 29-3 24 4 24 11 21 15 16 19 3 25-16 19-18 22-20 18-22 16-24 17-22 16-25 19-20 14"/>
<path d="M14502 2959l 22 10 26-10 24-11 28-17 20-13 22-15 22-16 22-17 23-19 24-19 24-20 25-21 22-23 22-23 16-25 16-25 13-25 11-23 9-23 7-31 4-28-17-17-30 11-25 18-28 25-20 20-20 23-18 27-16 28-15 33-15 32-10 36-10 37-8 37-5 39-5 38-2 40-2 35 1 38 3 35 4 32 7 31 5 26 10 34 11 25 17 22 22 9 21-19 9-29 4-29-2-32-6-35-6-23-5-23-11-34-10-29-11-25-15-25-19-19-21-12 27 0 29-5 28-9 25-11"/>
<path d="M15040 2533l-23-10-19 21-10 24-7 32-7 27-7 31-6 36-4 28-5 29-4 30-5 31-3 32-5 31-3 28-3 25-3 35 2 30 5 25 10 23 23 11 28-8"/>
<path d="M15072 2865l 22 17 27-5 31-10 28-10 24-12 18-17 4-27-23-16-26-2-25 2-23 9-23 13-23 16-19 21-12 23-7 27-3 29 3 28 7 25 16 25 21 15 28 12 31 2 26-5"/>
<path d="M15260 2830l 29-4 24 0 24 8 23 13 19 19 17 17 12 23 18 18 20 19 22 13 24 3 25-3 28-6"/>
<path d="M15535 2795l-23 6-17 18-13 25-14 27-13 21-15 25-22 25-19 24-21 25-17 29-20 26-17 23-16 22"/>
<path d="M11387 3676l 23-11 27-6 23-6 31-4 24 0 28 10 22 14 14 20 5 28 0 31-5 26-10 26-13 26-17 27-20 27-16 18-24 26-24 25-23 23-26 23-27 22-20 16-20 14-16 19 28 5 25-4 25-3 26-3 24-6 24-5 29-8 33-10 33-10"/>
<path d="M12693 3548l-26-2-26 2-24 2-26 3-27 6-24 11-22 13-16 19-6 25 3 27 3 25 2 30 3 24-1 26-1 27-2 28-2 28-4 31-2 31-7 31-8 30-10 31-10 30-8 28-7 23-9 25-3 26 12 23 24 9 24 9 29 8 24 6 30 0 30-4 26-5 28-5 29-6 27-5"/>
<path d="M12903 3720l-18 20-15 19-19 19-18 18-19 21-16 19-6 23 14 22 26 8 25 2 29-4 28-4 28-5 25-7 23-9 27-9 23-9"/>
<path d="M12945 3773l 0 28-4 29-3 26-1 25 3 24-3 25 0 27 2 24"/>
<path d="M13212 3579l 25-4 27 5 26 2 27 2 25 1 25-2 25 1 24 9 11 25 4 28 3 29 4 24 3 28 4 26-1 26 3 26 6 26 3 26 3 24 4 27 2 25-2 26-2 26-4 28-9 24-13 21-16 19-21 12-24 8-27 2-26 0-29-6-31-5-27-8-27-10-25-9"/>
<path d="M14117 3827l 27 5 31-1 25-3 25-3"/>
<path d="M14136 3898l 22-14 23-9 25-8 25-2"/>
<path d="M14248 3762l 25 2 25 1 26 5 22 11 16 20 6 26-12 25-17 23-19 23-17 22-19 17-21 19-18 17"/>
<path d="M14639 3885l 22-13 24-4 27-3 25-2 28-1"/>
<path d="M14720 3827l-1 25 3 25 4 26 7 25 10 22 14 22"/>
<path d="M14976 3767l 23 8 25 9 28 9 22 8 25 10 21 14 16 21 10 26-6 25-17 22-19 18-23 19-28 19-25 17-29 17-28 15-29 15-24 13-21 11-19 15 10 24 24 0 25-3 28-2 30-1 32 0 31 1 29 1 25 3 25 3 29 4"/>
<path d="M11368 4829l-20 23-10 34-6 26-7 28-5 31-4 28-3 29 0 27 0 24 3 30 7 24 17 23 24 13 24 3 31-4 24-9 25-13 26-17 29-17 26-20 24-21 22-22 18-22 16-21 15-29 7-27-2-24-15-24-22-25-21-16-20-15-24-13-26-10-26-7-26-4-25 0-35 4-33 8-30 13-24 11-21 16"/>
<path d="M12739 4580l-20-13-25-1-25 4-23 8-22 10-16 19 0 24 11 22 8 25 1 25 0 30-1 25-7 27-6 31-8 35-6 24-5 25-7 25-7 27-6 27-5 28-6 29-5 26-5 25-3 34-6 29-4 28-8 25-1 24 3 25 18 16 27 4 30-2 31-5 27-9 31-9 29-11 23-10 25-13 22-10 23-10"/>
<path d="M12911 4759l-14 23-7 23-9 24-9 25-6 26-5 25 5 24 21 14 25 5 25-2 29-5 23-6 26-6 29-6 24-8"/>
<path d="M13003 4839l-6 28-5 30-5 24-1 28 6 26 5 24 6 24 8 23"/>
<path d="M13196 4613l 23-13 25-4 27-4 27-3 26 0 27 0 24 4 12 22 1 26 0 27 0 29 3 30 3 32 4 32 3 26 2 25 3 25 3 32 1 24 4 24 2 31-1 29-1 24 0 24-3 25-17 17-21 14-22 9-26 7-28 2-24-1-26-5-22-13"/>
<path d="M14038 4818l 27-8 28 1 31 4 27 3 29 2 25 1 29 1 27-1"/>
<path d="M14027 4967l 25-5 26-7 25-5 26-3 27-4 28-3 26-2 25-6"/>
<path d="M14221 4725l 25 2 27 6 25 10 24 10 25 11 23 14 21 14 20 15 8 23-3 24-17 25-23 22-19 16-22 19-22 17-22 17-24 18-22 14-22 12"/>
<path d="M14609 4869l 24 2 27 0 25 0 27-4 30-9 29-9"/>
<path d="M14659 4800l-10 24 1 25 9 28 14 26 8 25 9 23 15 22"/>
<path d="M14855 4751l 23-5 29 0 28-1 30-1 29 4 27 8 22 11 20 17 11 24-5 25-16 19-20 14-23 16-25 15-29 15-31 15-30 15-29 14-21 15-19 16-18 20-15 20 10 22 26 3 28-2 25-3 27-4 27-3 28-5 25-4 27-3 25-3 31-4 24-1 24 2"/>
<path d="M15805 5078l 26-8 26-15 25-16 31-18 29-20 20-15 20-16 22-16 23-16 25-17 23-16 23-17 23-18 20-18 18-19 16-20 16-30 14-28 9-27 3-26-3-27-11-23-25-13-26 1-23 9-21 15-19 22-17 30-9 23-8 24-8 25-6 26-5 28-3 28-1 28 2 28 3 27 4 26 6 24 8 32 11 27 13 23 16 22 22 14 23-14 7-27-1-27-9-28-13-28-16-24-17-18-20-16 23 8"/>
<path d="M16286 4914l-18 20-7 28-1 25 3 27 13 20"/>
<path d="M16330 4760l-13 20 21 17"/>
<path d="M16551 4931l-14-20-25-4-26 7-25 13-24 15-19 17-7 24 26 3 25-4 23-9 22-15 13-20-13 23 14 23 25 9"/>
<path d="M16726 4868l-23-10-24 14-23 12 16 22 24 7 22 10 22 12 21 14 10 24-20 18-20 14-22 13-24 6-25-5"/>
<path d="M15214 5695l 28-3 30 0 25-1 26-2 27-2 29-6 26-5 23-7"/>
<path d="M15258 5611l 2 25 7 27 6 28 4 29 6 24 2 25-1 26"/>
<path d="M15594 5446l-7 27-10 24-13 28-13 26-15 30-14 32-9 24-11 24-11 25-11 24-9 25-12 25-10 23-10 24-15 31-13 25-12 22-9 27"/>
<path d="M15602 5637l 21-15 29-3 28 1 28 4 24 10 12 23-17 22-22 19-23 14-22 14-22 14-23 14-24 14-22 14-19 16 11 24 26 1 26-6 30-10 26-9 28-10 27-8"/>
<path d="M15563 5730l 20-14 25-12 25-14 25-15 22-11 26-11 23-9 27-3 26 0-21 16-25 9-28 9-29 10-28 6-25 8-30 8-31 6-28 7-29 8 29-1 33-11 23-9 34-11 31-11 30-8 26-8 23-5 27-6-25 9-28 9-25 8-23 7-24 6-28 7-23 6 23-13 28-12 28-13 22-8 31-9 29-8 27-6"/>
<path d="M15928 5540l 25 1 27 7 28 8 24 8 23 9 26 12 18 16 15 21 0 26-13 20-17 17-22 19-23 12-23 13-26 13-26 12-26 12-21 13-23 15-15 20 27 8 25-2 27-4 25-5 28-5 30-4 32-4 29-5 31-3 28-2 27 0 26 3"/>
<path d="M16426 2861l 27-5 31-2 25-4 25-3 25-3 30-4"/>
<path d="M16525 2748l 10 22 6 23 7 27 3 28 1 29 3 26 4 28 2 26"/>
<path d="M16760 2649l-14 27-8 25-8 23 1 30 0 25 3 31 1 25 2 31 6 28 4 28 4 28"/>
<path d="M17163 2844l 0 26 0 24-2 26 0 25 0 28-10 22-4-25 3-30 4-28 7-29 9-27 7-26 12-22 29-3 27 4 23 7"/>
<path d="M17354 2866l 24-5 26-7 26-8 24-8-5-24-23-11-24-2-26 8-24 17-19 16-17 22-12 23-5 24-1 27 16 20 25 12 27 6 26 0 30-5 25-7"/>
<path d="M17600 2797l-26 4-22 12-17 19-3 25 16 20 22 12 22 10 25 12 23 12-10 25-25 13-25 7-28 4-29 1-26-1-24-8"/>
<path d="M16697 2749l 3 24-1 31-4 28-6 29-6 33-7 32-5 31-4 33-3 30-4 30-1 25 2 28 3 24-4-24-6-25-2-24 0-29-4-24-2-24 6-24 9-27 18-20 21-15 26-12 25-8 24-5 24 2 22 14 8 25-16 22-20 15-26 13-25 12-24 7-14 21 11 24 21 18 26 11 27 9 26 7 27 4 27 2 27-1"/>
<path d="M15171 2277l 10-23 26-7 27-9 24-9 24-10"/>
<path d="M15225 2160l-1 26 3 26 5 24 3 25 5 26 6 24"/>
<path d="M15409 2020l-5 24 4 29 6 30 4 24 5 26 4 28 5 28 4 28 7 28 4 28 4 27 3 26 1 24 1 29"/>
<path d="M10332 7767l-9 23-10 31-8 29-9 31-6 34-6 32-4 32-6 32-5 31-4 29-2 27-3 31-4 27-4 28-3 25"/>
<path d="M10561 7893l-6 24-5 32-3 30-2 34-1 34 4 33 8 30 12 28 16 24 19 20 21 16 28 15 31 6 26-3 25-5 24-9 21-12 24-20 22-24 15-26 6-26-4-27-12-29-15-23-19-25-18-17-25-24-23-20-23-13-27-10-30 1-25 15-18 19"/>
<path d="M11094 7791l 3 26 4 31 3 29 1 32 0 33 0 31-2 30-3 30-1 30-2 31-3 29-4 25-2 29 4 24"/>
<path d="M11456 7905l-20 17-16 25-6 25 7 25 15 21 22 20 22 10 24 9 24 6 31 3 25-3 23-7 29-10 24-14 19-22 8-29-2-27-8-29-12-24-14-24-18-24-19-19-19-15-25-10-28-2-28 5-25 8-23 11-21 14"/>
<path d="M12345 7720l-9 23-7 27-6 23-5 26-6 27-8 31-7 29-5 29-3 27-5 27-5 25-4 30-1 29"/>
<path d="M12642 7800l-18 16-12 26-2 26 4 27 10 27 16 21 22 18 25 10 26 4 25-1 28-8 21-11 26-20 21-21 13-21 9-26 5-27-10-26-15-19-14-20-22-22-23-14-27-6-32 2-23 6-23 11-26 17-21 19"/>
<path d="M13304 7653l-7 26 0 29-1 31-3 28-1 28-1 28-1 29-4 30-2 29-3 30 0 27-2 27-3 30-3 26-6 26"/>
<path d="M10204 8848l-4 27-4 30-6 26-5 28-5 31-5 24-4 25-7 29-9 31-6 26-6 29-2 27-1 24"/>
<path d="M10662 8898l-12 26-6 25-6 27-4 27-2 25-6 26-5 27-7 26-4 25"/>
<path d="M11093 8817l-25-2-22 10-18 15-18 25-15 26-14 30-9 30-5 32 0 32 3 29 6 26 10 23 15 25 22 18 27 10 27 2 25-4 25-8 28-11 24-16 22-19 18-20 16-21 11-22 6-24-2-25-9-31-14-22-16-22-21-23-21-21-23-15-26-10-28-4-26 4-22 15-12 21"/>
<path d="M11670 8801l-7 25-4 25-3 32-3 26 0 28-2 28-4 30-1 29-1 29 2 27 2 31 2 26 12 23"/>
<path d="M12170 8866l-14 20-9 23-8 27-2 26 0 26 6 25 10 25 20 20 22 12 28 9 24 2 26-2 24-7 27-14 20-22 18-25 10-26 2-27-4-25-10-24-14-23-18-22-18-19-21-16-26-2-24 4-25 10-24 13-20 16-16 22"/>
<path d="M10604 8431l-22-11 23 14 24 8 24 2 29 2 26 1 24 0 29-1 31-2 33-3 36-5 25-3 27-4 28-4 30-4 31-4 31-4 32-3 32-3 31-2 30-2 33-3 34-3 37-4 40-4 39-3 38-5 41-5 39-5 39-4 38-4 35-4 37-3 34-3 33-2 35-1 34-1 34 0 36 0 32-1 33 0 34 0 32-1 33-2 32-2 29-3 32-2 31-2 28-2 30-1 29-3 29 0 33-1 28-1 28 0 27 0 26 0 26 1 26 1 25 1 24 1 35 2 34 2 32 0 29 2 28 2 25 2 28 1 24 1 27 3 25 3 24 5 25-4"/>
<path d="M12695 8861l-5 29-3 28-4 24-2 26-2 26-1 28-1 24-2 31-7 29-3 25-1 25"/>
<path d="M13255 8829l-13 23-1 29-3 30 0 24 0 27 2 28 1 27 0 26-1 25 0 31-2 29-2 25-4 24-11 22"/>
<path d="M10114 9722l-11 26-6 25-6 34-7 26-6 26-8 27-7 28-5 28-6 27-6 28-5 26-6 25-5 35-6 30-3 26 1 25"/>
<path d="M10450 9776l-13 22-7 26-3 25-3 28-2 29-2 30 2 31-1 31-4 28-1 25"/>
<path d="M10968 9707l-2 24-4 25-3 31-2 24-3 26-3 27-3 26-3 27-1 26-3 26-3 31"/>
<path d="M11458 9766l-20 15-13 27-9 28-3 31 2 25 4 24 9 25 12 24 14 22 18 18 27 15 29 7 29-3 27-12 21-13 20-19 17-21 15-22 11-29 2-28-8-30-13-23-18-23-22-19-24-14-26-9-30-3-24 5-24 10"/>
<path d="M12132 9735l-10 22-7 24-8 29-6 23-5 25-5 25-4 27-8 29-7 30-6 28-1 24-1 28"/>
<path d="M12526 9772l-12 23-3 25-6 28-8 28-2 26-4 30-4 24-2 26-1 30-1 27 2 26"/>
<path d="M13141 9719l-7 24-1 25-3 31 0 31 3 31 2 28 3 30 0 29-2 29-3 25-6 26"/>
<path d="M9906 10739l-22 20-14 21-12 23-8 24-5 31 4 28 12 26 18 24 25 18 29 8 25 1 27-4 30-9 27-15 22-20 18-21 14-21 12-28 4-28-5-29-12-26-15-22-21-21-23-16-23-9-24-7-23 5"/>
<path d="M10456 10723l-25 4-25 16-21 20-16 24-12 27-2 25 10 23 19 16 26 10 27 4 26-2 26-6 24-11 19-15 13-21 6-26-2-27-11-26-17-23-22-18-26-8-24 4-12 21"/>
<path d="M10891 10708l-24 2-26 12-24 14-17 18-8 27-2 25 5 25 13 24 20 20 29 16 23 9 25 7 27 3 26-1 27-6 25-9 22-11 24-17 16-21 6-26-6-28-10-25-19-25-19-19-23-20-25-11-26-1-25 6-22 11-17 18"/>
<path d="M11470 10756l-24 2-16 22-7 28-1 25 3 24 10 26 16 20 21 13 26 5 27-1 23-6 27-12 26-17 16-24-1-26-12-23-20-21-21-15-24-12-27-4-26 9-18 17"/>
<path d="M12054 10749l-25-3-24 8-23 17-20 20-14 22-7 24 5 23 16 19 22 12 24 6 26 3 28-3 31-6 25-6 28-10 22-12 22-12 16-17 7-24 0-25-8-26-15-21-21-17-25-9-28-2-25 3"/>
<path d="M12575 10766l-25-3-25 6-23 11-20 19-12 26 5 24 10 23 18 18 21 12 28 10 24 5 30-3 25-7 27-10 23-17 16-23 3-29-7-23-13-25-16-19-22-20-24-14-26-7-26-3-27 4-22 13"/>
<path d="M12998 10748l-24 2-23 12-23 19-16 25-6 28 4 29 12 27 17 25 22 18 23 15 24 9 26 4 28 1 28-3 25-7 22-15 20-19 18-22 10-24 6-26-2-28-7-24-10-23-15-28-19-23-22-17-27-13-25-6-25-1-24 8"/>
<path d="M11944 10261l 27 4 28 6 34 4 26 1 31 1 31-1 40-1 44-3 25-3 25-1 28-2 25-3 28-2 26-2 27-2 25-2 29-2 24-2 26-1 26-2 26-1 25-1 48-2 46-1 25-1 46 0 44 1 43 0 40 2 38 2 34 3 33 2 29 2 27 2 34 5 28 5 28 6 25 5"/>
<path d="M9766 10443l 21-17 31-10 28-6 36-6 25-1 27-2 30-3 30-1 34-2 37-1 39-1 41-2 41-3 44-5 45-4 46-6 46-6 45-4 42-6 41-3 39-3 36-3 31 0 31-1 28 1 26 1 26 2 34 3 32 2 26 3 24 2 28 3 28 2 25 0"/>
<path d="M10930 9334l 30 1 28 1 32 0 37 0 26-1 29-1 31 0 32-1 38-1 40 0 44-3 45-1 46-2 47-2 49-1 24 0 46-2 45-1 44-1 43-2 45 0 46-1 44-1 44-1 44 0 43 0 41 0 38 0 37 0 33 2 32 1 31 1 27 2 28 1 26 2 24 1 31 2 25 3 27 2 25 3"/>
<path d="M9881 12505l-16 22-12 26-11 28-5 25-3 25-4 25 0 25 2 30 4 27 9 28 16 24 17 17 23 16 26 8 27 1 25-5 24-8 25-11 25-16 19-15 23-23 15-20 17-26 14-24 9-23-1-26-4-25-7-25-12-25-15-20-16-22-25-17-22-10-26-5-27 5"/>
<path d="M10576 12454l-8 26-7 25-6 30-4 24-3 25-2 24-5 30-6 30-7 29-6 29-6 25-2 26"/>
<path d="M10910 12498l-20 18-13 26-6 23 3 29 9 23 14 20 19 18 21 13 21 12 24 7 26 2 25-3 25-8 28-13 21-17 20-20 16-19 10-25 6-27 2-31-9-30-20-25-24-18-28-7-32 0-30 5-26 8-22 11"/>
<path d="M11576 12360l-13 24-2 25 2 30 2 26 0 31 0 31 0 31-3 25-6 31-3 25-5 27"/>
<path d="M11880 12332l 15 21 12 24 9 26 9 30 6 24 4 25 2 26 2 26 2 26 0 25-2 25-2 30-2 29-6 30-8 24-8 23"/>
<path d="M9959 13353l-23-9-25 10-20 19-21 25-16 27-14 26-11 30-10 31-8 31-5 32-4 28 3 25 9 29 15 24 21 18 22 11 27 7 25-2 28-7 29-12 20-16 22-18 18-21 17-21 15-25 14-24 9-24 2-31-3-32-6-24-10-27-13-25-15-26-16-21-22-20-22-11-28-8-27 1-26 7-21 16"/>
<path d="M10479 13342l-24 0-24 18-16 21-15 20-12 23-10 26-7 25-4 24-2 24 3 30 10 25 14 21 20 19 25 10 28 4 30 1 29-5 28-10 26-13 25-18 20-22 15-23 6-25-3-27-10-26-12-21-14-23-18-21-17-18-17-18-21-17-22-12-26 1"/>
<path d="M11044 13272l-15 19-8 29-5 32-3 27-2 28-4 26-2 26 2 27-1 28-2 25-3 25-1 31 1 27 0 26"/>
<path d="M11464 13342l-24 15-17 21-17 25-13 24-5 27 0 27 9 25 19 18 25 10 25 8 28 1 27-3 28-8 22-17 16-19 10-27 1-26-2-29-9-30-11-22-18-23-19-16-22-14-23-6-25-1-22 14"/>
<path d="M12057 13245l-15 22-1 30-1 28 0 31-2 34-1 34-3 35 0 25-2 34 0 34-2 32 0 28-3 25-9 23-5 24"/>
<path d="M9856 14123l-25 11-22 18-19 17-15 21-13 27-7 24-7 26-4 27-3 27 1 27 5 28 11 23 17 19 23 13 27 6 30 0 27-3 26-8 28-16 28-18 21-14 29-22 18-16 22-25 16-23 10-22 4-27-5-30-7-23-13-22-16-19-18-18-22-14-29-11-28-9-26-3-25 1-26 4-21 16"/>
<path d="M10465 14201l-25 11-24 12-19 16-15 22-10 29-3 30 1 26 6 27 11 27 15 24 18 21 18 22 19 19 22 12 27 12 28 9 29 7 29 0 26-8 23-12 22-17 18-25 9-25 5-25 0-26-5-30-6-31-12-29-15-25-17-19-24-18-26-13-27-8-29-4-25 0-25 4-22 12-20 18"/>
<path d="M11039 14193l-26 2-15 23-16 24-10 27-7 30-2 29 4 25 13 26 17 19 21 12 24 8 26-2 28-12 20-15 20-18 19-21 14-23 7-25-2-25-15-22-19-15-21-11-23-9-25-5-24 3"/>
<path d="M11558 14202l-23 14-17 25-14 26-7 24-5 25-2 28-2 28-1 26 0 26"/>
<path d="M11894 14233l-24 8-18 19-13 25-3 28 8 24 13 22 18 22 21 17 25 14 22 8 27 3 28-7 25-16 16-18 10-23 3-28-9-28-14-27-15-22-17-17-20-15-28-12-28-6-25-1-26 0-24 7"/>
<path d="M9763 14988l-20 17-10 22-11 29-6 24-8 27-6 29-6 31-6 30-6 30-6 28-1 25 3 29 10 22 22 10"/>
<path d="M10177 15014l-7 27-4 28-3 29-1 25 0 28 0 24-2 25-4 32-4 24-6 31-3 28-1 25"/>
<path d="M10726 15050l-14 20-4 28 1 27 0 26-1 31 1 30 0 31-1 30-2 25 0 29-4 28"/>
<path d="M11439 15039l-4 26-7 31-6 29-5 26-6 29-3 25-2 26 0 25 0 28"/>
<path d="M11876 15053l-25 14-12 22-11 25-5 25-1 28 7 30 14 26 17 22 22 19 27 12 30 7 31 3 31-5 32-11 23-11 23-15 20-17 16-19 14-27 5-29-3-27-13-29-15-22-17-21-20-18-28-15-29-6-32-2-29 5-27 9-22 11"/>
<path d="M9688 15979l-24 14-17 19-11 23-10 27-5 30 2 31 5 24 8 23 15 29 16 24 19 16 24 14 27 5 25-4 30-13 23-15 24-19 21-24 17-25 14-27 7-24 1-29-6-24-15-21-20-21-20-16-23-12-26-5-25 3-15 21 3 28"/>
<path d="M10330 16015l-29 8-23 17-21 21-13 26-5 25 6 28 15 22 23 17 27 14 28 12 25 5 26 3 24 1 31-3 30-7 28-12 23-16 19-19 6-27-8-24-17-18-23-21-24-18-25-17-25-16-22-12-26-9-28-3-25 9"/>
<path d="M10938 15982l-27 6-20 20-14 21-1 27 8 24 14 20 23 15 24 6 26 4 29 2 30-3 31-3 27-6 23-10 23-12 21-16 15-22 4-25-6-27-13-22-22-22-19-16-22-14-25-10-31-7-25-3-29 2-28 10-21 16-3 25"/>
<path d="M11511 15931l-25 4-23 13-18 18-16 19-8 25-2 27 5 25 12 23 19 20 25 12 26 7 28-1 24-5 27-6 27-11 19-14 17-20 8-25-3-25-14-22-20-24-22-20-24-15-23-10-25-4-25 11"/>
<path d="M11947 15928l-24 7-23 14-20 21-15 23-7 30 1 24 12 22 15 19 21 18 29 8 25 7 26 5 26 0 26-5 25-11 20-15 16-25 5-25 0-31-5-27-13-27-20-29-22-26-25-21-25-17-28-9-26-4"/>
<path d="M15082 11954l-12 23-14 29-13 27-16 29-14 32-15 31-14 30-13 30-11 28-9 27-8 26-9 24-10 29-7 24-2 25"/>
<path d="M15310 12120l-8 27-4 30 5 29 13 21 24 16 30 12 27 5 26 4 26-1 25-1 31-5 24-7 23-10 23-18 12-23 0-29-9-28-14-25-16-24-18-22-19-16-28-3-23 5-24 14-18 21"/>
<path d="M15313 12161l 6-23 16-20 20-15 22-9 25-6 23-6"/>
<path d="M16029 12081l-14 23-6 24-5 28-5 25-7 26-8 28-11 26-10 22-10 22-12 24"/>
<path d="M16222 12157l-1 25 6 23 16 19 22 11 24 8 27 3 29 3 25-2 32-3 25-6 23-10 23-13 17-17 14-21 12-22 7-26-3-28-11-21-17-18-21-13-24-3-26 2-23 8-23 12"/>
<path d="M17009 11930l-11 27-11 23-14 26-13 27-15 27-12 26-6 25-5 24-7 26-11 23"/>
<path d="M17200 11967l-12 26-8 26-7 29 0 29 8 28 12 27 21 21 25 14 28 7 28 0 29-8 28-12 28-17 17-16 20-18 17-19 15-25 12-23 3-28-5-28-10-26-18-17-26-6-25 0-26 4-25 10-22 13"/>
<path d="M17911 11822l-8 30-11 31-8 26-6 28-4 28-5 29-6 29-5 30-5 30-7 31-5 31-5 30-6 29-7 27-5 24"/>
<path d="M14760 12944l-17 24-10 25-9 27-2 29 2 25 7 24 15 20 24 15 26 9 28 3 25-3 26-10 22-10 22-13 21-17 20-19 18-21 15-21 12-28 2-25-11-27-18-21-23-19-27-13-29-10-26-4-26 2-27 9-23 12"/>
<path d="M15317 12914l-17 20-8 24-9 29-10 32-5 24-6 30-6 30-6 29-4 27-1 28"/>
<path d="M15701 12944l-15 21-12 21-7 25-4 29-3 24 0 25 2 25 7 28 10 27 14 21 22 15 29 8 25 0 30-6 22-12 19-15 21-21 16-20 13-22 9-28 0-28-8-27-14-25-18-21-21-16-23-11-28-7-24-1-25 6"/>
<path d="M16292 12957l-25 8-11 22-8 26-2 26 2 26 8 25 10 23 16 18 18 16 25 14 29 5 26-1 26-7 27-10 21-15 18-22 10-23 2-26-13-27-15-23-19-22-21-13-24-7-26-4-25 2"/>
<path d="M16840 12839l-19 20-13 28-10 25-12 27-10 28-9 27-6 26-5 24-7 31-4 28-4 24 0 25"/>
<path d="M17137 12916l-17 20-15 23-12 22-10 28-3 25 4 24 14 27 19 18 25 12 26-1 27-7 28-11 23-12 26-18 20-20 15-24 3-25-7-23-18-23-22-20-24-16-22-12-29-4-26 3-23 6-22 13"/>
<path d="M17731 12832l-21 14-7 24-3 30-2 26 0 28-1 29 1 31 3 31-1 30-4 30-9 31-8 32-6 27-5 26"/>
<path d="M14690 13738l-25 3-16 20-11 28-6 32-1 29-2 30-1 34 1 35 3 33 8 30 13 30 19 25 20 20 21 15 25 12 27 5 30 1 31-5 31-10 28-15 25-18 21-23 15-25 9-23-1-30-6-30-10-30-14-22-14-21-19-25-21-22-20-16-24-8-25-3-28 2-25 7-24 11-22 11"/>
<path d="M15217 13850l-24 8-17 20-11 26-9 26-3 30 0 30 2 28 8 24 13 22 18 19 22 11 28 7 27 3 29-4 23-7 23-10 22-13 20-14 20-20 12-24 7-29-8-25-14-27-14-22-17-19-24-16-25-9-28-4-30 4-23 10-19 16"/>
<path d="M15900 13822l-11 22 0 28-1 27-2 32-4 27-6 25-3 25-6 25-5 25-6 29-4 25"/>
<path d="M16309 13817l-8 27-3 29-3 27 0 30 1 30-4 30-6 29-6 27-1 24"/>
<path d="M16687 13830l-17 19-10 22-15 22-10 28-6 28-3 26 3 28 9 23 17 18 28 8 29 1 29-5 27-9 25-13 23-18 19-23 12-23 5-29-7-28-11-23-18-23-23-21-25-10-26-4-24 1-26 8-22 11"/>
<path d="M17196 13792l-22 12-14 21-12 24-7 26-3 25-1 25 7 28 16 24 21 16 24 10 28 6 27-2 25-6 28-8 25-14 20-17 15-25 5-28-12-27-18-23-22-22-28-15-27-10-27-2-25 1-23 11"/>
<path d="M17677 13692l 0 28-2 25-2 30-2 31-1 27-2 27-5 28-4 27-4 25-2 26-4 24-5 30-4 29-2 24"/>
<path d="M14615 14649l-12 23-14 25-13 22-13 27-11 27-7 31-6 29-7 29-3 26 0 26 5 30 10 25 14 20 21 16 25 6 28-2 31-12 22-15 20-19 16-20 17-28 10-29 2-26-2-24-7-28-12-26-13-22-15-21-19-17-22-12-24-3-25 7-24 11-17 18"/>
<path d="M15197 14805l-25 0-25 14-17 17-18 19-12 23-4 26 3 25 9 23 19 20 19 17 21 12 26 6 25 2 25-5 22-10 24-13 22-15 18-17 14-21 5-28-5-24-12-23-17-21-18-19-20-19-20-19-20-15-25-15-25-4-25 5"/>
<path d="M15766 14762l-27 11-22 16-21 15-17 18-15 20-15 26-7 27 3 28 13 22 22 13 26 5 25-1 31-10 23-9 21-12 23-18 18-18 8-23-4-27-16-21-17-20-22-20-22-11-25-8-22 10"/>
<path d="M16145 14767l-22 15-20 14-18 18-14 20-9 27-2 24 7 24 12 23 17 18 26 12 25 4 29-3 23-8 25-10 26-17 15-19 14-22-4-25-16-25-18-20-21-19-22-17-25-10-25-2-23 8-19 20"/>
<path d="M16751 14760l-27-1-28 9-23 15-23 19-17 22-9 22-7 28 4 29 15 22 22 18 22 11 27 7 28 3 29-2 28-7 23-10 19-16 15-21 2-24-2-27-9-24-19-21-16-17-22-18-25-12-25-3"/>
<path d="M17261 14763l-26-8-29 3-25 11-21 17-13 26-3 28 9 28 13 23 20 19 23 14 23 7 31 2 26-2 25-4 23-13 17-17 3-26-6-25-12-25-20-23-19-18-23-19-22-11-27-1-24 11"/>
<path d="M17717 14674l-20 19-10 27-3 27 1 26 1 31 0 31 0 33-3 32-2 32-6 28-2 25 2 31 1 28"/>
<path d="M1867 11539l-10 30-6 24-7 32-6 25-5 25-5 28-5 27-4 27-3 28-4 27-3 26-3 27-3 26-3 26-2 26-3 35-3 30-3 30 3 25"/>
<path d="M2106 11694l-17 18-12 21-10 25-3 26 2 27 10 27 21 25 20 17 22 15 25 11 26 7 28 1 31-6 30-12 30-16 29-19 27-20 24-22 15-23 11-22 6-28-3-27-14-28-16-21-21-21-24-19-25-12-24-7-24-1-25 1-23 7-28 12-25 14-20 15-10 23"/>
<path d="M2835 11499l-13 20-2 28 1 28 1 32 1 25 0 25-1 28-2 26-3 29-4 30-5 29-5 27-3 26-2 30-3 29"/>
<path d="M3210 11486l 9 23 8 27 7 29 6 28 2 25 1 29 0 28 0 31-2 32 0 33-1 32 0 29-1 27 1 25 2 28"/>
<path d="M3744 11475l 4 26 3 29 3 30 1 26 3 29 4 31 4 32 4 33 4 33 5 34 5 33 6 34 6 32 4 33 3 30 2 27 1 29"/>
<path d="M1749 12516l-25 9-19 23-12 24-8 27-6 31-4 25-2 25-3 28-1 28 0 27 1 26 2 26 4 24 6 34 9 25 16 25 22 17 25 9 29 1 30-8 22-12 23-16 22-22 20-28 13-20 12-21 14-30 9-30 3-26-1-24-8-29-12-21-17-23-20-21-21-21-21-21-19-16-22-17-22-12-25 2"/>
<path d="M2340 12575l-13 23-9 29-9 27-8 29-3 25-6 25-4 25-5 24-4 25-4 25-6 30-3 25 3 24"/>
<path d="M2690 12599l-20 17-12 25-10 26-6 30-2 29 3 28 8 25 16 23 18 20 22 16 22 12 24 7 29 3 27 0 26-10 25-15 21-15 15-21 11-25 4-29-5-29-8-22-13-22-16-21-18-16-27-18-26-10-25-4-25-2-24 3-21 13-8 25"/>
<path d="M3197 12577l-1 25 5 27 4 27 3 28 2 29 1 25 2 27 1 26 2 25 3 30 5 28"/>
<path d="M3702 12601l-11 23-3 28 1 25 4 24 3 27 1 30 0 30 1 30-1 31-2 29-2 26"/>
<path d="M1775 13622l-26 0-19 17-17 23-10 29-4 29-2 28 0 28 2 29 3 29 6 29 9 25 17 26 20 18 25 8 29 0 27-4 27-10 30-15 25-17 19-15 17-18 16-18 16-20 17-28 12-24 6-29-3-25-11-22-19-25-20-16-19-15-22-12-28-12-28-7-28 0-25 8-19 19"/>
<path d="M2350 13745l-24-3-24 5-23 18-17 20-10 24-3 25 5 25 12 25 20 21 22 16 29 9 24 4 25 0 25-2 29-7 27-13 24-19 20-21 12-22 3-25-10-26-17-18-22-19-19-15-26-17-26-12-23-9-24-3"/>
<path d="M2813 13580l-18 20-9 29-4 28-5 29-4 32-5 31-4 30-3 29-2 25 2 26"/>
<path d="M3169 13642l-21 15-12 26-6 28 0 25 8 28 13 22 17 19 23 15 24 4 26-8 20-13 18-22 16-19 13-25 3-27-9-26-16-19-21-15-26-12-23-6-28-4-25-3"/>
<path d="M3843 13532l-24-4-6 25-2 27 0 28-1 29 0 27-1 28-2 29-2 26-2 27-5 26-7 29"/>
<path d="M1661 14496l-23 8-21 20-15 26-10 30-5 26-3 30-1 33 2 35 6 32 8 29 10 26 13 23 22 22 24 12 25 5 29-6 22-13 24-18 23-22 21-22 19-24 14-25 10-25 8-29-2-25-11-28-14-21-15-20-18-18-24-21-24-13-25-7-25 0-21 13"/>
<path d="M2354 14552l-25 10-26 20-18 20-15 23-12 26-8 26-2 26 6 30 14 25 16 19 17 17 19 20 24 13 27 8 26 4 24 1 25-2 29-8 27-13 22-17 16-20 10-24 0-25-10-25-18-26-16-18-19-16-19-17-25-16-25-12-27 0"/>
<path d="M2871 14571l-26 5-23 10-21 12-19 21-9 25-3 25 7 29 13 24 20 19 25 13 25 6 25-4 25-8 25-14 20-18 11-27 0-24-12-27-16-21-22-22-23-16-25-11-24-5"/>
<path d="M3313 14510l-24 5-12 25-3 25 0 29 3 25 2 26 1 28 2 27 1 27 2 27 1 26 7 28"/>
<path d="M3714 14533l-20 20-13 23-8 26-4 29 0 24 2 24 7 26 13 23 19 18 22 10 27 4 25-3 26-10 21-19 19-20 15-21 13-24 6-28-2-26-7-27-15-25-16-22-16-17-24-13-23-9-25 1-22 10-18 18"/>
<path d="M5426 12663l-11 23-7 23-9 29-6 30-5 31-4 28-3 28-1 28-1 27 1 26 1 31 2 28 0 28"/>
<path d="M5339 13567l 24-8 28-3 24 1 24 5 24 13 18 18 12 22-5 28-9 27-14 26-14 20-15 19-16 18-16 18-20 22-15 19-16 20-18 21 24 3 27-10 24-6 27-7 25-5 28-2"/>
<path d="M5354 14383l 28-5 25-3 28-1 27-2 29-3 25 3 24 6-3 25-18 24-17 25-21 24-22 22-22 22-19 21-13 22 16 18 26-7 24-9 28-9 25-1 25 5 15 23 0 27-9 24-12 25-16 23-21 20-24 15-27 10-24 6-29 4-26-2-27-1-26-4"/>
<path d="M1802 16539l-18 20-7 28-2 28 2 32 5 23 13 27 18 25 22 18 26 13 24 6 25 0 25-3 27-9 29-13 28-18 25-19 22-24 19-23 14-26 11-27 8-28 4-27-2-25-7-25-18-27-23-21-22-12-25-7-27-3-28 1-25 2-23 6-27 7-23 11-18 16-13 22 0 27"/>
<path d="M2441 16386l 1 27-5 25-6 24-7 25-10 25-9 27-9 27-10 28-9 28-7 25-11 25-10 25-9 25"/>
<path d="M2813 16425l-22 14-17 21-16 19-12 22-11 23-8 27-3 25-1 26 2 32 10 22 15 20 19 19 24 14 28 8 31-3 29-8 27-12 24-17 20-19 18-24 11-23 12-28 7-28 1-28-4-26-11-30-14-23-20-24-22-13-26-5-28 5-23 9-23 10-19 16"/>
<path d="M5196 16650l-14 20-11 22-15 29-14 27-13 25-14 25-15 24-14 21-13 23-15 22-12 22-17 29-17 31-16 30-15 27-14 22-14 26"/>
<path d="M5414 16761l-18 18-18 21-16 25-9 28-3 28 6 25 13 23 19 15 24 9 25 1 27-7 27-10 28-17 22-17 22-16 19-21 16-22 13-21 9-25 2-25-6-25-12-26-15-22-23-19-26-9-28 2-28 4-27 13-23 15"/>
<path d="M5896 16783l-10 25-10 24-15 25-15 26-16 25-14 20-15 24-13 25-6 24"/>
<path d="M6164 16725l-6 27-10 23-11 25-10 24-14 24-10 22-12 25-15 25-10 23"/>
<path d="M6428 16828l-23 5-21 20-11 22 3 26 16 22 22 13 26 9 27 8 26 0 26-6 26-10 19-15 17-20 14-21 4-28-8-27-17-23-21-17-24-9-25 6-24 7"/>
<path d="M5077 17298l-25 7-21 19-18 22-16 25-11 22-6 25-1 26 18 18 27 3 28-6 23-10 24-12 23-15 22-16 19-18 9-23-9-25-19-15"/>
<path d="M5467 17271l-17 17-13 24-13 20-12 22-14 22-15 23-7 24"/>
<path d="M5655 17305l-22 16-15 20-5 25 12 23 24 11 24 0 24-9 22-17 12-24 1-28-14-21-21-13"/>
<path d="M5935 17277l-4 26-6 26-12 21-11 27-10 23"/>
<path d="M6350 17268l-21 12-7 25-8 27-3 28 4 25 9 24 15 20 25 9 27-10 23-12 18-18 16-19 12-24 4-26-13-24-25-14-24-3-27 1"/>
<path d="M5079 17671l-25 5-13 22-7 26 3 26 20 14 26-2 25-7 23-12 23-15 14-21 5-27-14-22"/>
<path d="M5351 17660l-18 19-15 20-9 22 3 27 13 21 26 5 26-6 22-12 21-16 7-24-10-22-18-18-22-11"/>
<path d="M5710 17666l-20 20-10 28-7 25-8 27-7 25-8 27-6 24"/>
<path d="M5922 17718l-24-2-15 22-7 26 11 22 22 12 25 3 25-5 25-11 22-15 13-22-5-25-15-22-19-18-24-6-24 5"/>
<path d="M6404 17680l-23-8-25 2-16 19-12 27-11 26-7 28-1 24 1 25 3 25 8 24 15 23 19 16 27 7 28-2 27-10 25-12 21-18 17-22 12-21 3-24-5-28-8-23-16-19-18-17-20-14-27-5-28 6"/>
<path d="M3045 20169l 21-14 24-10 25-8 29-7 32-5 26-6 26-5 28-7 28-7 24-7 23-10"/>
<path d="M3118 20121l-23 9-7 26-3 24 0 27 6 27 9 23 23 12 29-1 27-10 26-10 27-10 25-6 28-3 26 3 27 9 21 15 13 21-2 28-8 24-15 27-15 19-17 19-20 16-19 15-27 15-24 7-29 3-26-7-22-16-15-24"/>
<path d="M4660 20132l 0 27 1 27 1 26 2 27 1 27-1 30-2 29 0 29 0 24-1 24-3 29-2 24-2 27"/>
<path d="M6098 19943l-20 15-19 18-15 19-11 24-14 28-10 23-6 25-7 26-4 26-3 25 1 30 4 27 6 25 12 25 17 17 20 15 27 13 24 5 28-6 29-10 21-14 18-21 8-24-2-25-9-28-15-18-23-11-25-6-27 0-25 4-23 9-20 15"/>
<path d="M3099 21456l 27-8 25 6 24 10 26 12 21 13 22 15 15 20-2 30-13 27-12 24-16 25-19 26-18 25-22 24-22 24-22 25-25 23-22 21-20 16-22 18-20 15 19 16 25-4 24-5 23-6 25-5 27-6 27-5 29-5 29-2"/>
<path d="M4746 21466l-4-26-3-28-11-23-23-14-28-2-26 5-30 13-26 16-22 18-19 18-10 22 12 22 29 2 28-7 23-9 28-15 23-12 20-14-9 26-7 32-2 31-1 34-2 34-2 35 0 34-2 33 3 29 3 29 7 26 9 27"/>
<path d="M5959 21447l 25-3 27 1 30 4 28 6 28 6 24 7 22 15-6 25-25 18-27 16-21 13-22 11-25 14-22 14 7 24 25 2 28 2 25 3 28 4 24 6 27 10 17 18-6 25-21 20-23 15-25 14-22 11-26 7-27 0-24-7-23-10"/>
<path d="M2804 23212l 25-8 23-6 25-6 25-8 25-6 26-7 24-7 24-7 26-4 12 24-2 28-5 31-5 25-8 25-7 27-8 29-8 28-10 28-10 28-10 27-10 26-9 23-10 27-7 24-5 24"/>
<path d="M4580 23056l-14 21-15 24-14 27-15 25-12 26-10 25-5 24 11 22 20 13 25 6 26 1 26-3 32-7 27-6 26-9 25-8 29-12 24-13"/>
<path d="M4705 23128l-17 21-5 27-1 26 1 27 4 28 3 27 3 29 6 28"/>
<path d="M6105 23050l-11-23-20-16-27-8-25 3-26 10-24 14-19 16-12 24 1 24 13 26 17 20 18 19 21 22 21 18 19 18 20 22 13 22 6 24-6 26-20 18-24 2-20-17-10-22-2-25 9-29 17-27 15-19 17-20 19-19 20-19 20-18 19-17 19-16 23-16"/>
<path d="M3447 23299l 27 6 28 3 24 1 26 0 28-2 28-2 28-3 28-3 26-2 28-2 28-2 30-3 28-3 29-4 26-4 24-3 24-5 27-8"/>
<path d="M3865 23190l 27 6 25 5 26 3 28 3 30 5 27 7 28 10 23 9 13 21-13 23-22 21-22 18-21 13-21 14-23 12-27 16"/>
<path d="M5810 23203l-26-8-24 0-26 1-31 1-25 2-26 2-28 4-31 3-29 5-32 6-31 5-31 7-28 6-27 5-30 5-24 4-28 1-27-2-25-5"/>
<path d="M5443 23151l-26-1-24 6-26 5-23 9-27 10-23 12-21 14-13 22-1 25 13 21 20 16 22 10 24 12 22 14 22 13 18 16"/>
<path d="M4672 22093l 4 28-2 26-3 32-3 35-3 25-2 27-2 25-1 25-1 25-1 24 0 25-1 24-2 24-1 25 0 34 1 33 1 30 2 28 1 27-1 31-1 26-1 25"/>
<path d="M4599 22650l 1 27 13 21 19 17 20 13 25 9 26 0 24-15 17-20 16-22 17-27 12-22 11-23 8-25 8-25 5-26 1-29"/>
<path d="M4968 21594l 27 8 28 1 28 0 32-1 36-3 24-3 26-2 26-2 26-2 26-1 26-3 26-2 26-2 26-2 24-3 25-1 24-3 24-2 24-2 32-2 28-2 28-2 26-3"/>
<path d="M5518 21529l 26 6 27 5 25 4 24 4 26 3 24 5 27 6 23 8 1 26-22 17-20 14-25 17-26 18-27 18"/>
<path d="M5795 20206l-25-5-27 3-25 3-34 4-26 3-30 3-30 4-32 4-32 4-34 4-34 4-37 2-37 4-38 4-36 4-34 6-34 3-31 2-31 3-29 2-28 3-26 2-24 3-30 2-25 2-24 1 27 9 28 3"/>
<path d="M5139 20168l-24-2-24 15-20 14-21 15-20 17-17 19-11 22 18 22 24 14 22 12 25 12 24 11 22 11 25 9 25 7 28 6"/>
<path d="M6054 20540l-8 26-3 28-3 29-4 35-2 24-3 25-2 26-2 27-3 27-1 26-1 27-1 25-1 25 0 35-2 33 2 30 0 28-2 31 2 28 1 25"/>
<path d="M5893 21006l 13 24 11 26 12 23 16 19 15 19 19 22 20 15 24 8 25-4 21-16 18-24 14-23 13-23 10-23 11-28 6-24 1-27"/>
<path d="M6034 22628l-4-25 1-28 0-31 0-25-2-30-3-34-3-24-2-26-2-27-4-29-2-30-2-31-3-30-3-29-3-26-1-34-1-26-3-27-7-24-8-24-22 15-21 25-19 19-17 20-22 21-18 17-19 18 8-27 17-28 14-21 21-28 21-22 18-19 21-18 19-14 21 17 19 15 21 17 24 14 21 13 21 14"/>
<path d="M3044 22844l-2-27 0-25 0-28 0-25 1-28 1-28 0-33 2-36 0-28 0-28 0-28 0-29 0-30-1-28 0-28-1-26 1-24 1-33 0-29 0-25 1-27-1-25 3-25 6-24-19 19-16 23-16 24-18 26-17 24-13 21-13 20 15-22 15-24 13-23 16-20 19-15 22 10 20 17 20 16 21 13"/>
<path d="M4670 21164l 6-28 5-27 6-30 4-26 2-26 0-27 0-25 0-25-3-31-6-30-7-28-6-23-9-26-10-23-23 18-15 21-17 22-16 20 9-25 13-23 15-22 14-20 21-13 15 19 16 20 19 19 22 15"/>
<path d="M4255 21586l-27-8-25-3-26-3-24-1-29-1-24 2-28 2-32 2-35 4-25 3-36 5-35 6-34 7-34 7-34 7-29 6-26 5-29 5-25 3"/>
<path d="M3820 21567l-27 2-24 5-22 8-22 12 6 25 19 17 22 12 22 14 21 11 25 10"/>
<path d="M3665 20314l 24-2 24 4 25 1 26 1 31-3 25-3 28-4 28-4 30-4 29-6 31-4 32-6 31-5 30-4 26-5 26-4 30-4 24-2 24-4"/>
<path d="M4171 20168l 25 5 20 13 21 16 20 18 15 18 6 25-12 21-19 22-18 19-19 19-21 16-20 16-20 16-20 15-25 19-20 15"/>
<path d="M3227 20737l-2 26 3 29-1 29-3 25-5 27-5 29-6 30-6 31-6 31-4 29-3 28-4 25-3 25-2 28"/>
<path d="M3140 21089l 3 24 16 21 17 17 25 5 22-17 19-22 15-20 13-20 14-24 11-22"/>
<path d="M9149 19194l-6-24-3-27 8-25 16-19 22-14 24-5"/>
<path d="M9229 19270l 6-24 11-21 15-25 16-19"/>
<path d="M9311 19272l 16-20 15-19 17-19"/>
<path d="M9343 19622l 23 6 22-19 19-24 17-25 13-21 13-22 14-21 15-23 15-22 13-23 12-23 11-24 7-25 7-24 7-25 8-34 5-32 3-30-1-25-1-24-25 0-17 24-16 28-17 32-11 23-10 25-10 25-9 25-8 26-6 23-5 25-3 35 0 24 3 35 5 33 6 29 10 23 14 23 19 19 26 7 28-7 21-19 15-20 16-22 8-23 2-27-5-29-11-22-25 4"/>
<path d="M9635 19592l 23 9 24-13 19-19 16-21 17-24 16-27 17-27 15-26 13-27 10-27 10-29 8-29 7-30 5-30 1-30 3-27 2-29-2-26-23 9-16 22-14 23-12 25-12 26-10 25-9 29-5 30-3 32 1 32 0 31 3 30 4 26 9 28 12 22 20 20 23 8 24 3 27-5 23-11"/>
<path d="M9984 19452l-23 11-16 18-13 23-7 24 1 25 14 22 24 7 25-4 22-15 17-19-1-25-10-24-17-18 19 15 25 4 26-6 25-11 22-17 22-20 15-18 17-20 14-20 11-21 11-30 9-28 4-29 0-28-2-25-5-25-25 5-15 19-15 29-10 26-7 29-8 34-4 35-2 32 2 32 4 31 9 30 11 28 13 25 19 24 20 15 23 9 26-7 16-22 3-29-3-27-8-25-10-22-13-22-22-15 9 23 26 6 26-1 26-7 25-9"/>
<path d="M10426 19167l 8 23-1 25 4 25"/>
<path d="M10535 19179l-9 24-7 25-9 29-8 25-11 26"/>
<path d="M11908 18990l 11 23 6 25 6 25 1 26 0 25-7 24-19-18 0-29 6-23 9-28 15-26 18-20 21-19 19-15 25-17"/>
<path d="M12118 19038l 26-1 25-8 22-9 24-12 23-11 20-15 16-18-15-21-27-2-29 6-23 10-26 13-19 16-16 19-12 23-4 24 4 27 16 21 20 15 24 6 27 0 32-4 25-6 27-9"/>
<path d="M12425 18961l-6 25-5 27-4 30-6 29-6 27-7 23 2-25 9-28 12-26 11-25 11-23 15-20 18-16 19 18 4 24 0 24-3 25-5 25 26-6 17-23 15-20 16-19 15-19 16-22 16-20 15-21 3 27-8 25-9 26-6 24 3 24 11 22"/>
<path d="M12785 18944l-23 13-14 20-18 21-12 22 9 23 26 0 23-10 20-16 11-22-11-24-17-16 23-13 25-9 23-7 23-9 25-5 13 21-3 24-3 27-3 24 2 25 25-3 17-19 13-21 18-23 12-23 11-27 11-22"/>
<path d="M13049 18929l 23 7 26-4 24-11 22-13 13-21-3-25-13-21-24 6-17 19-16 24-17 22-7 27 4 26 17 18 24 8 27 4 25 1 27-3"/>
<path d="M12012 19992l-2-26-17-16-25 1-21 11-21 19-15 23-16 23-13 21-6 24 2 25 23 10 25-7 21-14 15-20 12 21 21 15"/>
<path d="M12210 19928l-24-8-25 8-21 16-16 21-14 25-14 29-6 26 1 25 4 24 15 20 24 3 24-10 21-17 19-17 15-22 12-22 14-25 13-26 11-27 8-32 6-35 6-25 3-25 5-26 4-28 3-28 3-28 4-28 1-26 2-34 0-26-4-26-24-2-19 17-13 21-11 26-4 25-6 28-6 30-2 32 0 35 1 24 0 25 0 25-2 25 1 35 2 30 6 26 10 30 9 24 16 23 24 15"/>
<path d="M12470 19924l-21-12-25 7-17 21-14 20-12 22-7 25 1 26 21 15 26-5 23-14 20-17 20-24 14-22 14-25 15-26 12-30 10-32 9-23 5-32 3-32-2-33 0-32 0-30-3-28-10-23-26 3-13 22-10 28-8 28-4 25-4 29-2 33-1 35-1 25 1 24 3 35 3 29 7 26 9 29 10 23 16 24 18 16"/>
<path d="M13017 19475l-8 27-10 31-10 31-11 32-9 24-8 23-10 25-10 25-12 27-11 28-12 27-12 29-12 29-13 30-13 31-14 31-15 30-14 31-16 31-15 31-14 30-15 29-18 28-14 28-14 25-12 22-10 28-10 24"/>
<path d="M12950 19916l 15 19-1 26-6 25-9 23-12 25-12 22 14-20 13-21 14-23 15-22 15-21 19-23 17-19 16-18 19-15 21 15 5 28-1 25-3 26-4 26-2 24 16 20"/>
<path d="M13234 19919l 26-4 21-14 6-24-26-7-25 5-24 13-19 15-16 19-13 21-10 24-3 26 7 25 20 18 24 9 27 2 28-4 28-9 27-12"/>
<path d="M13471 19942l-5 27-2 26 2 25 20 14 22-13 18-18 16-19 18 17 23 14 24 0 27-7 26-11 21-13 22-17 19-17 7-25 0-25-7-25-15-19"/>
<path d="M14490 19579l-2 29-9 26-15 32-11 25-14 28-15 29-14 30-16 31-16 31-18 31-19 32-19 33-19 32-19 31-17 31-16 30-15 28-14 25-12 23-16 29-12 24-12 27"/>
<path d="M14818 19769l"/>
<path d="M14804 19965l 10 22 10 26 8 27 6 25 5 31 3 24 4 33 0 27-4 33-3 33-4 33-5 29-7 30-9 27-9 24-10 27-13 24-20 14-19-16-8-25-5-24-1-29 1-31 3-35 4-25 5-27 4-26 8-26 7-24 14-33 15-29"/>
<path d="M15022 19929l-19 17-10 23 1 27 11 25 22 12 26-4 27-11 22-15 16-18 9-25-10-24-20-15-22-13-26-6"/>
<path d="M15240 19842l 7 27-5 25-4 26-3 25-3 26 0 25"/>
<path d="M15269 19743l"/>
<path d="M15331 19855l 2 25 0 27-4 25-10 24 19-23 14-23 15-22 16-20 16-18 18-17 9 24-2 25 3 26-3 25-3 24 4 24"/>
<path d="M15602 19643l 24-3 25 1 24 7 24 9 20 16 6 25-11 26-18 26-17 22-16 22-19 22-15 24-13 23"/>
<path d="M15628 19992l"/>
<path d="M14923 18441l-1-24-10 28-8 23-12 31-10 22-12 25-12 27-12 29-13 29-13 30-14 32-15 34-15 34-14 37-15 37-13 35-15 36-14 36-15 34-14 34-13 31-13 29-10 25-8 23-9 27-4 25"/>
<path d="M15082 18890l-26-3-25 16-19 16-22 20-17 25-14 24-11 23-7 25-2 26 6 24 23 8 23-13 20-18 16-18 18-22 17-25 15-27 15-26 14-29 10-30 7-31 3-32 3-31-1-35-2-34-5-31-4-28-5-26-6-27-10-24-22 13-9 23-6 29-3 26-1 29 0 36 0 36 1 24 1 33 3 34 5 32 6 31 6 27 12 28 12 24 17 23 26 10 27 0 25-13"/>
<path d="M15345 18855l-26 6-22 11-14 20-11 23-9 23-4 28 1 25 12 22 24 9 26-2 28-7 27-12"/>
<path d="M15491 18590l 23-9 25 5 22 9 14 23-4 30-10 28-11 24-12 25-14 26-13 27-12 26-9 23-8 23-8 29-7 28"/>
<path d="M15479 19051l 20 15"/>
<path d="M10478 23527l 24-5 26 1 28 1 27 1 25 4 28 6 23 11 23 13 17 19 10 23 3 29-4 25-10 23-17 26-22 28-17 20-17 21-19 21-20 22-19 21-20 20-21 20-19 19-21 19-21 17-18 17-20 17-24 22-20 21-19 21-16 20 11 22 27-1 28-4 25-5 24-6 24-6 26-4 23-6 29-7 28-6 27-5 25-6"/>
<path d="M11324 23566l 23-8 26-1 24 0 25 4 25 7 23 9 26 12 23 15 14 23 6 24-8 23-21 25-22 19-29 21-21 13-21 15-22 14-21 14-23 14-30 21-26 19-25 19-22 17-20 15-19 17-15 21 21 14 26 1 28-1 28-4 29-3 31-5 25-4 27-6 26-6 24-7 29-7"/>
<path d="M12078 23513l 27-1 25-2 28-5 29 0 26 0 26 4 25 9 24 13 22 16 14 21 7 26-11 27-16 25-20 19-25 21-20 14-21 12-26 17-23 16-19 15-18 18 17 19 26-1 26 0 27 0 30-1 28 1 25 1"/>
<path d="M11348 24292l 7 24 3 31 0 26 1 29 2 29 4 31 3 30 3 26 4 25 3 25 3 25 3 30 5 24 3 27"/>
<path d="M11295 24577l-6 23 8 25 11 22 13 20 14 20 17 19 23 13 27-1 24-12 21-21 17-20 15-23 13-21 11-24 11-23 11-22"/>
<path d="M10573 25251l 21-15 28-5 24 2 25 7 25 10 23 13 24 15 15 20 8 26-8 25-14 25-16 22-19 24-24 26-17 18-18 18-17 18-19 19-20 20-19 19-20 17-18 17-24 21-19 17-19 16 19 21 27 3 31 3 25 0 26 1 28 0 33 0 32-2 34-1 32-3 34-4 31-3 27-1 25-2 27-3"/>
<path d="M11481 25234l-5 30-3 27 2 31-2 24-3 27-3 27-2 29-1 30 0 26 0 31 1 27 4 27 1 28"/>
<path d="M12011 25187l 26 1 26 1 30 0 28 3 23 6 25 9 25 8 21 16 7 26-13 28-18 25-18 18-19 19-20 20-23 19-24 20-25 19-22 17-19 16-22 18-18 19-11 23 14 20 25 1 26-3 26-4 26-4 27-5 27-4 28-5 28-5 28-5 29-5 25-4 28-5"/>
<path d="M15628 22835l 7-24 27-6 25-6 25-4 29-5 28-4 24-3 28-4 31-3 27 0 25 4 21 16-9 23-24 16-20 14-21 14-23 13-24 11-22 10-27 11-25 10 24-1 25-4 24-1 26-1 30 3 26 4 24 6 23 10 19 19 9 24-4 25-14 21-20 22-23 21-20 14-22 13-23 9-24 6-29 5-27 1-28-3-26-10-25-10-21-14"/>
<path d="M14878 22949l 22-16 25-4 29-1 26 4 24 6 24 11-1 24-14 25-21 24-19 18-18 16-25 19-25 17-22 16-23 16-18 17 28 6 32-7 31-5 31-6 34-5 34-4 26-2"/>
<path d="M16565 22845l 11-23 27-5 24 1 28 6 26 7 25 10 22 14 16 20-3 24-18 22-23 19-26 17-24 15-20 17-17 17 16 19 25 6 26 3 27 3 29 2 28 3 24 6"/>
<path d="M15745 23512l 6 25 0 29 2 27 3 28 3 29 2 29 1 28 0 28-1 28 0 31-1 30-1 30-2 28-3 26-4 30-4 25-6 25"/>
<path d="M15659 23855l-23-13-13 23 8 24 9 24 15 23 14 23 13 21 16 21 18 20 23 10 28-10 21-16 21-21 22-26 18-27 18-28 12-26 11-27 6-24 5-29 2-28 2-25"/>
<path d="M14759 24659l 16-20 27-10 30-3 25 0 27 5 25 8 23 12 22 17 14 24 11 23 2 27-11 25-18 21-20 17-24 19-27 20-29 19-21 14-21 14-23 12-29 19-24 16-23 19-17 19 20 15 24-3 27-3 24-5 28-4 28-5 30-4 29-4 28-2 31-1"/>
<path d="M15546 24622l 23-5 29-1 30-1 25 1 29 4 29 4 28 3 28 10 21 13 15 21-1 28-14 25-18 22-23 22-26 19-23 13-23 14-27 14-23 13-24 13-22 17 8 25 26 0 25-4 26-2 31-3 26-4 29-3 33-2 32-1"/>
<path d="M16372 24627l 22-17 29-6 25-4 32-5 26-1 24 3 28 7 26 8 27 11 22 16 9 23-5 24-16 21-23 18-22 14-25 11-26 14-27 13-29 14-27 12-25 13-25 14-21 17-11 23 18 17 24 7 25 3 31-1 25-1 25-1 25 0 27 0 26 0 28 1 28 3 26 2 24 5"/>
<path d="M3357 25028l 27 4 28-3 24-8 23-12 28-11 29-12 25-13 24-12"/>
<path d="M3440 25003l-21 11-18 19-18 24-13 26-9 23-8 26-5 26 3 25 22 12 26-3 24-5 25-4 26-5 27-1 28 2 24 1 26 5 23 9 18 16 6 24-10 26-15 26-14 19-17 18-20 17-21 17-21 11-29 13-25 8-25 3-25 0-27-4-20-18"/>
<path d="M4231 24906l 2 29 0 25-2 30-3 28-4 31-4 33-5 32-4 32-7 32-4 34-3 34-2 31-3 27-2 28 8 24"/>
<path d="M4837 24887l-17 18-9 23-8 27-2 30 0 32 3 30 4 31 8 29 11 25 12 22 18 24 22 19 22 13 25 6 28 0 26-9 20-16 18-21 14-25 5-28-8-26-22-14-30-3-28 2-29 6-27 10-24 12"/>
<path d="M3270 26155l 23-11 27 0 26 0 30 3 30 4 25 8 22 13 16 18-1 24-12 26-14 22-18 23-23 22-26 22-26 21-26 22-24 19-24 18-20 15-21 17-21 16 9 24 25 3 26-6 24-9 26-10 30-9 34-9 34-11 25-5 24-6 24-6"/>
<path d="M4203 25999l 0 25 1 28 3 26 4 28 2 30 2 30 2 31 0 29 0 30-3 26"/>
<path d="M4935 25851l 29-3 29 3 25 4 25 4 25 5 26 8 24 15 6 24-15 22-19 19-21 16-20 19-6 24 28 4 27-3 27 0 25 6 24 14 20 14 14 22-4 26-17 22-16 18-19 15-25 16-22 12-24 9-27 4-28-2-23-14"/>
<path d="M3329 27028l 23 17 25 1 24 0 27-4 26-3 27-7 27-4 26-4 31-3 28 0 25 1 25 1 23 5 11 24 0 29-2 24-4 24-3 25-6 25-5 25-5 25-6 26-6 24-7 25-6 23"/>
<path d="M4218 26884l-23 17-12 22-15 28-13 23-13 26-11 24-12 22-12 29-9 29-8 25-1 28 17 18 27 3 27-4 23-8 23-9 24-9 23-10 23-10 30-8 29-12 25-13 25-12 23-14"/>
<path d="M4319 27006l-15 21 4 26 4 27 6 25 5 24 3 27 3 24 5 27 3 27"/>
<path d="M5156 26819l-3 24 0 24 0 30 0 26 1 28 1 30 2 31 0 28 0 30-1 31-1 28 1 29 2 30 0 28 2 24 2 29 3 25 6 24"/>
<path d="M9668 27250l 24-11 28-6 25-6 24-8 23-8 23-9 24-10 24-11 23-11 23-10 25-12 23-10"/>
<path d="M9699 27362l 21-13 26-16 27-16 25-14 26-11 25-13 24-9 26-12"/>
<path d="M9805 27072l 10 23 7 25 5 32 4 28 2 30 4 28 3 29 4 29 0 29 0 27-2 28-4 28-6 26"/>
<path d="M9926 27026l-2 27 1 28 3 30 1 25 2 26 1 26 2 27 3 28 1 26 0 25-1 24-1 28-2 28"/>
<path d="M10408 27338l-26 8-17 22-13 23-4 24 8 25 17 21 24 8 28-5 22-12 21-13 23-18 16-20 1-27-14-22-21-12-23-7 25 9 26-3 26-8 29-13 24-13 22-15 22-17 21-21 23-22 21-24 20-25 15-24 17-27 18-27 10-22 10-30 10-33 8-31 2-28 1-28-26-6-18 17-22 25-16 21-17 23-17 26-18 28-16 28-13 28-12 28-9 28-8 31-7 32-7 33-6 33-4 36-2 34 0 32 2 33 2 30 5 27 7 33 11 27 13 26 17 18 24 0 16-25 8-32 1-26-3-29-7-27-9-27-11-25-12-21-15-22-19-18 26-1 29-2 29-1"/>
<path d="M11657 26932l-27-7-28 2-25 8-28 11-28 15-23 15-24 20-19 15-28 24-28 26-21 27-14 20-14 22-10 23-8 23-7 33-2 32 5 29 11 24 17 20 18 18 29 15 34 8 24 3 26 0 24 0 35-3 25 0 24-4 24-4 26-5 35-12 34-11"/>
<path d="M12021 26975l-27 0-26 7-26 8-29 8-30 10-23 12-22 15-21 18-22 22-20 26-18 31-9 31-6 24-6 33 1 34 7 29 10 24 15 21 26 20 23 9 26 7 29 5 33-1 32-4 31-7 32-6 28-6 27-9"/>
<path d="M12227 27210l-11-23-20 15-12 22 1 25 12 22 23 13 21 13 25 8 23 9 19 16-2 26-20 19-20 15-22 13-26 11-27 7-27 0-24-3-24-9"/>
<path d="M15146 26578l 20 20 3 31 1 26 2 31 0 34-1 38-2 40-2 39-1 39 0 38 2 38 0 39 1 36 0 37-1 35-1 33 0 34-1 33-2 30-1 31-2 27-3 26-1 25-5 35-4 28-5 25-5 28"/>
<path d="M15768 26806l-12-22-27 2-28 12-23 13-26 17-19 15-20 16-19 17-21 19-20 21-21 20-17 19-16 22-16 31-10 32-5 30 2 28 7 25 12 25 17 19 20 15 22 14 25 9 28 6 30 2 32-2 33-7 34-11 35-11 27-10 26-9 27-12 25-11 26-12"/>
<path d="M16174 26836l-25-2-27 4-26 12-26 16-21 14-22 19-22 20-20 22-17 24-13 23-8 24-5 31 3 27 10 24 14 22 17 21 24 13 23 6 33 4 28-2 30-5 31-8 31-9 31-12"/>
<path d="M16406 26575l 3 28 2 25 4 27 2 24 6 28 6 32 5 24 3 36 2 27-3 27-2 29-2 29-4 30-1 30-4 30-4 28-3 30-5 29-3 29-3 28-3 26-2 25-3 36-4 34-2 29-4 30-1 25-5 27-10 23"/>
<path d="M9655 28729l-10-23-27-7-25 6-24 9-26 13-30 16-21 13-21 15-22 14-23 17-22 19-20 20-19 21-18 22-16 24-14 25-12 24-8 25-6 24-4 24 0 35 8 31 10 26 15 22 18 18 23 13 27 7 32 1 34-5 25-5 25-8 25-10 25-10 25-12 23-12"/>
<path d="M9950 28763l-25-3-28 5-26 8-25 13-20 14-21 17-21 19-23 20-17 21-16 22-11 30-4 24-2 24 0 31 10 30 15 23 25 16 24 6 31 2 33-2 34-5 25-6 25-7 25-8 25-11 25-10 25-11 25-10 23-9 23-10"/>
<path d="M10484 29043l 18-17 18-17 21-14 24-18 21-17 23-21 23-22 24-23 21-24 21-25 19-23 15-24 10-22 11-31 3-30 0-24-4-27-23-6-22 14-22 21-21 28-16 21-9 23-11 24-8 23-4 24-5 25-3 27 0 28 2 27 4 27 4 26 4 25 7 24 13 31 15 28 16 19 22 15 24 6 28 2 23-12 18-18 13-21 6-27 0-29-3-26-7-26-7-26-12-23-18-17"/>
<path d="M10878 29006l-23 5-26 11-22 16-9 23 11 22 21 14 25 3 25-8 21-13 16-18 9-25-12-24-22-14-23-5"/>
<path d="M11110 29003l-24-6-27 0-23 7-21 15-13 23 0 26 19 16 25-4 22-12 19-19 17-18 16 20 11 21"/>
<path d="M11199 29041l 3 26 11 21-9-23 9-24 13-23 16-18 24-11 23-6 27-1 29-1"/>
<path d="M11488 28990l-23-9-25-4-23 8-18 20-18 23-13 24-3 25 16 20 27-2 27-13 24-16 26-20 20-17 18-18 19-19 14-19 12-22 6-31 2-24-4-32-4-26-4-28-6-27-9-26-8-28-8-25-16-18-13 22-9 28-9 26-6 30-4 33 0 24-2 26-1 26 1 28 0 26 1 25 2 24 3 25 6 32 10 30 11 25 19 25 22 16 25 11"/>
<path d="M12246 28872l"/>
<path d="M12237 28978l 25-8"/>
<path d="M12618 29075l 16-20 6-25 3-25-3-25-26-6-24 9-22 16-22 18-17 21-12 21-6 24 6 23 25 11 25 0 24-8 24-10 22-13 13-21 20 15 24 8"/>
<path d="M12933 29000l-7-24-20-15-26-3-28 9-27 13-19 15-20 21-15 20-10 23 1 26 14 23 25 12 30 0 29-8 29-14 23-15 23-19 23-21 22-23 18-25 16-25 11-25 9-28 7-28 3-29 2-30 1-31 0-32 0-34-2-33-4-29-6-24-8-25-26 11-13 22-11 22-9 25-7 31-2 33-3 25-4 36-2 25-2 27 0 26 1 25 4 25 4 34 6 33 8 27 10 24 14 21 18 22 22 14 27 9"/>
<path d="M13327 28991l-11-22-9-25-22-11-26 0-27 11-24 16-18 16-18 20-15 21-11 23-8 30 0 24 9 22 24 15 24-1 26-9 26-12 26-18 22-21 18-21 17-22 15-25 13-25 10-28 8-30 6-32 8-33 7-35 4-25 0-24 1-36-5-29-3-26-6-24-9-22-15 20-10 27-6 24-4 27-4 30-3 33-2 33 0 34 0 34 0 35 2 35 4 34 6 29 7 24"/>
<path d="M13506 29144l-8 26-6 28-8 27-12 28-17 26-16 19"/>
<path d="M14090 28944l-4 27 0 25 2 28 0 27-1 28-1 24-6 26-22 12-9-27 2-24 8-25 12-28 9-23 15-28 15-25 18-24 18-16 24-7 24 14"/>
<path d="M14263 29013l 27-6 24-12 21-13 24-14 22-13 20-14 17-17-14-21-27 2-27 11-26 17-22 22-18 21-14 23-5 27 12 24 21 15 29 4 27-1 27-7 27-8"/>
<path d="M14527 28954l-17 18-10 27-5 28-6 24-4 26 24 7 18-21 15-21 12-22 14-27 8-25 6-26 7 23-1 27 12 23 24-10 20-15 17-23 12-21 23-9 6 24 5 26 5 25 4 24 24 10 25 0 28-6 26-9"/>
<path d="M14939 28956l-24-8-26 3-24 13-20 16-14 21 3 25 15 22 25 3 26-4 24-9 20-17 16-22 6-25 9-23 24-5 23-9 23-9 18 20 6 24 7 25 10 26 17 17 26-5 19-18 11-22 4-24 1-25-2-24 6-24 22-10 27-2 25 2 22 10 26-6 27-3 25-9 21-13 7-25-14-22-26-6-26 6-23 15-19 19-15 25-9 23-8 29 3 27 11 23 19 20 25 13 27 4 30 0 24-1 31-6"/>
<path d="M12021 30378l 21-17 17-19 15-19 17-23 18-25 20-28 21-31 19-30 16-29 13-26 11-22 7-25 0-26-12 22-3 25-2 29 1 33 0 35 2 34 0 35 3 34 2 24 3 25 1 26 2 26 1 27 2 27 0 26 0 28 0 29-1 27-3 29-3 25-4 24-6 34-7 29-7 24-13 26-19 18-21-13-11-22-6-35-4-27-2-28-1-31 0-32 2-33 3-34 6-32 5-31 6-31 8-29 7-27 9-24 8-23 10-22 16-32 17-30 21-29 21-28"/>
<path d="M12369 30135l-18 16-16 23-9 23-7 24-2 27 8 26 18 18 25 1 24-7 21-13 17-18 6-25-10-23-17-18-20-18"/>
<path d="M12494 30118l 15 22-1 24 0 27 3 24 17 20"/>
<path d="M12572 29961l"/>
<path d="M12647 30143l-3 25-4 26 22-18 14-25 11-24 14-24 12-21 19 17 7 27 4 25 5 25 16 19"/>
<path d="M12900 29847l 23 9 27 6 26 8 20 14 9 23-3 24-8 24-13 25-11 27"/>
<path d="M12966 30218l 27 1"/>
<path d="M12213 29778l"/>
<path d="M14574 29984l-9-23-26-7-23 10-20 18-17 19-19 22-16 25-15 25-11 25-10 22-10 25-4 25 8 24 27 4 22-12 22-17 22-23 21-25 16-19 15-20 13-22 16-21 20-31 17-31 10-22 9-24 9-33 5-32 0-32-2-33-4-32-8-30-5-30-8-29-11-22-19 21-9 26-9 31-5 24-4 34-2 33 0 32 1 34 3 33 5 34 2 29 5 27 9 26 9 30 7 27 10 24 17 19 26 10"/>
<path d="M14877 29999l-26-2-24 10-17 17-15 24-13 21-6 24 3 24 18 22 25 7 30-1 27-5 25-9"/>
<path d="M15063 29763l 27-8 25 10 12 21-2 29-6 25-6 28-6 28-5 28"/>
<path d="M15116 30134l"/>
<path d="M14097 29353l 24-17 27-13 25-12 32-16 25-13 28-15 31-18 34-19 37-23 40-24 21-13 23-13 23-14 25-13 25-15 25-14 26-15 27-16 28-14 28-16 30-15 29-16 30-16 29-16 30-16 30-15 30-15 29-15 29-15 29-15 28-14 29-14 28-13 27-14 27-13 26-13 27-13 25-13 25-13 26-12 25-13 24-11 24-12 24-13 23-11 23-11 22-9 42-20 39-17 37-16 33-13 31-13 29-12 25-9 30-12 23-10 23-9"/>
<path d="M16126 28791l 22-11 17 21 9 23 2 27 0 28-3 29-6 29-7 26-15-24 1-29 6-30 7-27 11-24 14-24 18-22 22-12 24-6 23 7 13 22 6 29 0 26 0 25-3 25-3 25 24-9"/>
<path d="M16369 28813l 15 19 5 27 4 27 7 25 24 7 21-17 18-21 11-23 3-26 2 26 7 24 12 24 25 13 27-6 20-14"/>
<path d="M16624 28594l-15 19-2 29 0 27 0 25 1 29 0 32-1 33-3 32 0 27-2 30-1 31 1 28 3 27 4-32 4-27 1-26 1-25 2-28 9-27 13-21 22-12 24-3 23 8-11 25-15 24-16 23-13 24-11 24-8 24 3 25 11 24 24 8 24-1 24-5"/>
<path d="M16821 28876l 27-2 25-9 23-11 19-17-5-25-22-12-25 0-23 9-21 17-15 19-8 24 2 25 9 24 16 20 25 14 28 6 28 1 28-1 26-4"/>
<path d="M3412 29984l 0-24 17-19 22-17 22-10 27-3 24 3 26 8 27 11 27 14 23 17 19 20 16 21 11 27 2 31-5 29-11 35-10 24-13 26-14 27-18 24-18 26-19 25-19 25-16 24-17 23-17 25-16 21-18 20-15 21-15 20-20 30-17 22-17 23-15 19 28-1 27-7 30-8 30-4 26-7 27-7 31-9 32-7 32-6 29-5 29-4 27-3 25-2 31-1 27 3 23 8"/>
<path d="M4295 29890l 16-18 25-7 26-1 29 3 27 9 24 11 19 15 13 25 0 26-10 29-15 23-15 21-18 20-18 20-18 17-22 21-19 19 29-2 26-8 28-4 28 3 24 4 25 4 28 4 29 8 28 12 25 13 20 12 14 23 6 29-3 26-10 29-12 25-13 21-21 24-19 19-19 17-24 20-24 15-27 10-25-5-24-17-16-24"/>
<path d="M5136 29825l 20-14 27 2 29 9 28 10 24 10 25 11 24 10 24 13 23 13 24 16 18 19 14 25 6 24-8 28-10 22-14 22-16 25-20 23-19 22-22 24-20 25-21 27-15 25-11 23-7 23 7 24 25 12 25 2 26-2 25-1 24-1 26-2 26-2 25-1 24 1 28 5"/>
<path d="M4480 30866l-4 30 2 27 1 25 0 25 0 27 0 27-1 29 0 30 0 31 0 32 1 30 1 30 2 29 2 27 2 25 3 24 5 31 6 25 9 22"/>
<path d="M4369 31357l 9 24 15 22 22 18 22 14 24 11 25 8 25 1 24-5 23-6 21-14 16-18 14-25 7-32 5-26 5-28 6-27 5-25 5-31 4-25 10-25"/>
<path d="M3492 32051l 14-20 25-13 30-4 24 1 27 7 22 18 16 22 7 25 2 31-3 28-6 31-9 33-12 33-9 26-11 24-11 25-11 25-13 24-13 22-13 20-17 27-14 22-16 24-15 20 27-6 24-9 28-11 30-12 33-12 34-11 34-11 25-6 25-6 24-6 35-5 31-3 27-2"/>
<path d="M4709 31820l 16 23 9 29 8 30 4 25 4 25 4 29 3 28 2 31 3 32 5 31 6 27 8 24 10 25"/>
<path d="M5279 31828l 25-12 25-10 29-4 29 3 30 2 29 6 25 9 27 11 23 15 16 19 8 23-2 29-10 25-15 23-17 25-19 27-20 26-21 29-20 26-19 25-15 24-10 25-7 24 16 21 29 4 28 3 30 5 27 0 28-1 28 1 31-2 31-1 25-2 25 0"/>
<path d="M10597 32356l-20-14 22-17 24-10 26-7 29-1 29 1 29 6 28 9 25 13 20 15 17 21 5 26-2 27-9 23-14 25-18 25-21 26-25 25-25 23-26 22-24 21-23 19-22 18-23 19-23 15-23 15 21 12 28-3 29-4 29-6 29-2 28 2 28 0 27 2 26 6 25 7 25 8"/>
<path d="M11465 32380l 20-16 26-1 28 8 27 11 27 14 20 17 15 20 8 23 2 27-3 24-12 28-15 23-16 22-16 21-20 19-22 20-24 18-22 17-25 17-22 14-23 11-21 13 23 8 28-1 24-3 29-6 30-3 31-2 32 1 30 1 30 0 30 0 27 4 27 5"/>
<path d="M12486 32255l 4 27 4 27 3 30 5 30 2 25 5 25 5 25 5 25 3 25 5 26 3 25 0 32 1 29-1 27 0 26 3 25 2 27 3 25"/>
</svg>
